<svg height="107" viewBox="0 0 108 107" width="108" xmlns="http://www.w3.org/2000/svg"><g fill="#fff"><path d="m101.494737.04210526h-95.20000016c-3.47368421 0-6.29473684 2.82105263-6.29473684 6.27368421v32.46315793c0 .8842105.71578947 1.6 1.6 1.6s1.6-.7157895 1.6-1.6v-3.8526316h101.389474v65.6842102c0 1.705263-1.389474 3.094737-3.094737 3.094737h-95.20000016c-1.70526316 0-3.09473684-1.389474-3.09473684-3.094737v-53.8736839c0-.8842105-.71578947-1.6-1.6-1.6s-1.6.7157895-1.6 1.6v53.8947369c0 3.473684 2.82105263 6.294737 6.29473684 6.294737h95.22105216c3.473685 0 6.294737-2.821053 6.294737-6.294737v-67.3052632-13.6-13.41052633c-.021052-3.45263158-2.842105-6.27368421-6.315789-6.27368421zm3.094737 31.70526314h-101.28421084v-10.4210526h101.28421084zm0-13.6210526h-101.389474v-11.81052633c0-1.70526315 1.38947368-3.09473684 3.09473684-3.09473684h95.22105216c1.705264 0 3.094737 1.38947369 3.094737 3.09473684z"/><path d="m95.6210526 5.89473684c-2.6105263 0-4.7578947 2.12631579-4.7578947 4.75789476 0 2.6315789 2.1263158 4.7578947 4.7578947 4.7578947 2.631579 0 4.7578944-2.1263158 4.7578944-4.7578947 0-2.63157897-2.1263154-4.75789476-4.7578944-4.75789476zm0 6.29473686c-.8631579 0-1.5578947-.6947369-1.5578947-1.5578948 0-.86315785.6947368-1.55789469 1.5578947-1.55789469s1.5578948.69473684 1.5578948 1.55789469c0 .8631579-.6947369 1.5578948-1.5578948 1.5578948z"/><path d="m82.7578947 5.89473684c-2.6105263 0-4.7578947 2.12631579-4.7578947 4.75789476 0 2.6315789 2.1263158 4.7578947 4.7578947 4.7578947 2.631579 0 4.7578948-2.1263158 4.7578948-4.7578947 0-2.63157897-2.1473684-4.75789476-4.7578948-4.75789476zm0 6.29473686c-.8631579 0-1.5578947-.6947369-1.5578947-1.5578948 0-.86315785.6947368-1.55789469 1.5578947-1.55789469s1.5578948.69473684 1.5578948 1.55789469c0 .8631579-.6947369 1.5578948-1.5578948 1.5578948z"/><path d="m69.8947368 5.89473684c-2.6105263 0-4.7578947 2.12631579-4.7578947 4.75789476 0 2.6315789 2.1263158 4.7578947 4.7578947 4.7578947 2.631579 0 4.7578948-2.1263158 4.7578948-4.7578947 0-2.63157897-2.1473684-4.75789476-4.7578948-4.75789476zm0 6.29473686c-.8631579 0-1.5578947-.6947369-1.5578947-1.5578948 0-.86315785.6947368-1.55789469 1.5578947-1.55789469s1.5578948.69473684 1.5578948 1.55789469c-.0210527.8631579-.7157895 1.5578948-1.5578948 1.5578948z"/><path d="m54.4421053 5.89473684h-40.6105264c-2.6105263 0-4.75789469 2.12631579-4.75789469 4.75789476 0 2.6315789 2.12631579 4.7578947 4.75789469 4.7578947h40.6105264c2.6105263 0 4.7578947-2.1263158 4.7578947-4.7578947 0-2.63157897-2.1473684-4.75789476-4.7578947-4.75789476zm0 6.29473686h-40.6105264c-.8631578 0-1.5578947-.6947369-1.5578947-1.5578948 0-.86315785.6947369-1.55789469 1.5578947-1.55789469h40.6105264c.8631579 0 1.5578947.69473684 1.5578947 1.55789469 0 .8631579-.6947368 1.5578948-1.5578947 1.5578948z"/><path d="m39.7473684 55.3684211c-1.1157895 0-1.9578947.8842105-1.9578947 1.9578947 0 1.0315789.8421052 1.9578947 1.9578947 1.9578947 1.031579 0 1.9368421-.9263158 1.9368421-1.9578947 0-1.0736842-.8842105-1.9578947-1.9368421-1.9578947z"/><path d="m52.8842105 55.2421053c-.7157894 0-1.1578947.8631579-2.8842105.8631579-1.9789474 0-2.8210526-.9894737-2.8210526-2.6526316v-2.2947369c0-1.6631579.8421052-2.6526315 2.8-2.6526315 1.7052631 0 2.2105263.8 2.8421052.8.8842106 0 1.4736842-1.1157895 1.4736842-1.8105264 0-1.1157894-1.8947368-2.2526315-4.6105263-2.2526315-4.3578947 0-6.2315789 2.5894736-6.2315789 5.9157894v2.3157895c0 3.3684211 1.8947368 5.9157895 6.2526316 5.9157895 2.7157894 0 4.7578947-1.2 4.7578947-2.3578948.0210526-.7368421-.5684211-1.7894736-1.5789474-1.7894736z"/><path d="m62.0631579 45.2421053c-3.431579 0-6.2526316 2.7368421-6.2526316 5.8526315v2.3789474c0 3.1157895 2.8842105 5.9157895 6.2526316 5.9157895 3.3473684 0 6.2526316-2.8210526 6.2526316-5.9157895v-2.3578947c0-3.2210527-2.9263158-5.8736842-6.2526316-5.8736842zm2.5263158 8.2315789c0 1.3473684-1.1578948 2.6526316-2.5263158 2.6526316-1.4105263 0-2.5263158-1.3052632-2.5263158-2.6526316v-2.3578947c0-1.3052632 1.1157895-2.5894737 2.5263158-2.5894737 1.3894737 0 2.5263158 1.3052631 2.5263158 2.5894737z"/><path d="m85.9157895 45.2421053c-1.6631579 0-3.3473684.9263158-4.3578948 2.8842105-.6105263-1.7052632-1.9578947-2.8842105-3.6-2.8842105-1.8947368 0-3.1789473 1.0736842-3.8105263 2.1894736v-.8631578c0-.6947369-.7578947-1.1578948-1.6421052-1.1578948-1.0947369 0-1.8526316.4631579-1.8526316 1.1578948v11.3473684c0 .568421.7578947 1.1789473 1.8526316 1.1789473 1.0105263 0 1.8736842-.6105263 1.8736842-1.1789473v-6.8210527c0-1.7052631 1.1157894-2.5894736 2.2526315-2.5894736 1.2 0 2.3578948.9894736 2.3578948 2.5894736v6.8631579c0 .8.9894737 1.1578948 1.8526316 1.1578948.9263158 0 1.8736842-.3368421 1.8736842-1.1578948v-6.8842105c0-1.6631579 1.1157894-2.5894737 2.2736842-2.5894737 1.1578947 0 2.3368421.8842106 2.3368421 2.631579v6.8210526c0 .5684211.8631579 1.1789474 1.8526316 1.1789474 1.0105263 0 1.8736842-.6105263 1.8736842-1.1789474v-6.8210526c-.0210527-3.7684211-2.5263158-5.8736842-5.1368421-5.8736842z"/><path d="m39.7473684 87.8105263c-1.1157895 0-1.9578947.8842105-1.9578947 1.9578948 0 1.0315789.8421052 1.9578947 1.9578947 1.9578947 1.031579 0 1.9368421-.9263158 1.9368421-1.9578947 0-1.0736843-.8842105-1.9578948-1.9368421-1.9578948z"/><path d="m51.2842105 77.6842105c-1.9368421 0-3.3052631 1.0736842-3.8526316 2.1894737v-.8631579c0-.6947368-.7578947-1.1578947-1.6421052-1.1578947-1.0947369 0-1.8526316.4631579-1.8526316 1.1578947v11.3473684c0 .5684211.7578947 1.1789474 1.8526316 1.1789474 1.0105263 0 1.8736842-.6105263 1.8736842-1.1789474v-6.8210526c0-1.6210526 1.1789474-2.5894737 2.3578947-2.5894737 1.3894737 0 2.5052632 1.3052632 2.5052632 2.5894737v6.8210526c0 .7789474.9894737 1.1789474 1.8526316 1.1789474.9263158 0 1.8736842-.4 1.8736842-1.1789474v-6.8210526c-.0210527-3.2-2.3157895-5.8526316-4.9684211-5.8526316z"/><path d="m69.1157895 87.7684211c-.8631579 0-1.6421053 1.0947368-3.5368421 1.0947368-2.0210527 0-3.3684211-1.0947368-3.3684211-2.7578947v-.4210527h5.8526316c1.3052632 0 2.6736842-.1052631 2.6736842-2.568421 0-3.2-2.7578947-5.4105263-5.9368421-5.4105263-3.5157895 0-6.3157895 2.6526315-6.3157895 5.768421v2.4210526c0 3.5368421 2.8842106 5.9157895 6.9684211 5.9157895 3.0736842 0 5.0736842-1.4105263 5.0736842-2.4 0-.568421-.5473684-1.6421052-1.4105263-1.6421052zm-6.9263158-5.0947369c0-1.3894737 1.2-2.2526316 2.5052631-2.2526316 1.3894737 0 2.5263158.9263158 2.5263158 2.2736842 0 .631579-.2315789.7789474-.8421052.7789474h-4.2105263z"/><path d="m79.3684211 88.4210526h-1.1157895c-1.2 0-1.6210527-.4-1.6210527-1.5368421v-6.3157894h3.3894737c.6105263 0 .9473685-.6526316.9473685-1.3473685 0-.6526315-.3368422-1.3473684-.9473685-1.3473684h-3.3894737v-4.9473684c0-.6947369-.9263157-1.1578947-1.8736842-1.1578947-.8631579 0-1.8526315.4631578-1.8526315 1.1578947v13.9789474c0 3.2631579 1.8736842 4.6736842 5.3263157 4.6736842h1.1157895c1.0736842 0 1.5789474-.7789474 1.5789474-1.5789474.0210526-.8-.4842105-1.5789474-1.5578947-1.5789474z"/><path d="m28.1263158 43.3473684h-14.4631579c-.8842105 0-1.6.7157895-1.6 1.6v14.4631579c0 .8842105.7157895 1.6 1.6 1.6h14.4631579c.8842105 0 1.6-.7157895 1.6-1.6v-14.4631579c0-.8842105-.7157895-1.6-1.6-1.6zm-1.6 14.4631579h-11.2631579v-11.2631579h11.2631579z"/><path d="m28.1234438 75.3052632h-14.460572c-.8840524 0-1.5997139.7157894-1.5997139 1.6v14.4631579c0 .8842105.7156615 1.6 1.5997139 1.6h14.460572c.8840524 0 1.5997139-.7157895 1.5997139-1.6v-14.4631579c0-.8842106-.7156615-1.6-1.5997139-1.6zm-1.5997139 14.4631579h-11.2611441v-11.2631579h11.2611441z"/></g></svg>