<?xml version="1.0" encoding="utf-8"?>
<!-- Generator: Adobe Illustrator 22.1.0, SVG Export Plug-In . SVG Version: 6.00 Build 0)  -->
<svg version="1.1" id="Layer_1" xmlns="http://www.w3.org/2000/svg" xmlns:xlink="http://www.w3.org/1999/xlink" x="0px" y="0px"
	 viewBox="0 0 512 463.9" style="enable-background:new 0 0 512 463.9;" xml:space="preserve" fill="#fff">
<g>
	<g>
		<path d="M488.5,0H23.5C10.6,0,0,10.6,0,23.5v320.6c0,13,10.6,23.5,23.5,23.5h168.9v49.1h-32.6c-8.6,0-15.5,7-15.5,15.5v16
			c0,8.6,7,15.5,15.5,15.5h192.4c8.6,0,15.5-7,15.5-15.5v-16c0-8.6-7-15.5-15.5-15.5h-32.6v-49.1h168.9c13,0,23.5-10.6,23.5-23.5
			V23.5C512,10.6,501.4,0,488.5,0z M352.2,431.8c0.3,0,0.5,0.2,0.5,0.5v16c0,0.3-0.2,0.5-0.5,0.5H159.8c-0.3,0-0.5-0.2-0.5-0.5v-16
			c0-0.3,0.2-0.5,0.5-0.5H264c4.1,0,7.5-3.4,7.5-7.5s-3.4-7.5-7.5-7.5h-56.6v-49.1h97.2v49.1h-8.5c-4.1,0-7.5,3.4-7.5,7.5
			s3.4,7.5,7.5,7.5H352.2z M497,344.2L497,344.2c0,4.7-3.8,8.5-8.5,8.5H23.5c-4.7,0-8.5-3.8-8.5-8.5V23.5c0-4.7,3.8-8.5,8.5-8.5
			h464.9c4.7,0,8.5,3.8,8.5,8.5L497,344.2L497,344.2z"/>
	</g>
</g>
<g>
	<g>
		<path d="M472.4,32.1H39.6c-4.1,0-7.5,3.4-7.5,7.5v288.6c0,4.1,3.4,7.5,7.5,7.5h432.9c4.1,0,7.5-3.4,7.5-7.5V39.6
			C479.9,35.4,476.6,32.1,472.4,32.1z M175.3,79.1h89.2v17.1h-89.2L175.3,79.1L175.3,79.1z M160.3,320.6H47.1V79.1h113.3V320.6z
			 M160.3,64.1H47.1V47.1h113.3V64.1z M464.9,320.6H175.3V111.2h289.6V320.6z M279.5,96.2V79.1h81.2v17.1H279.5z M464.9,64.1h-24.6
			c-4.1,0-7.5,3.4-7.5,7.5c0,4.1,3.4,7.5,7.5,7.5h24.6v17.1h-89.2V79.1h32.6c4.1,0,7.5-3.4,7.5-7.5c0-4.1-3.4-7.5-7.5-7.5h-233V47.1
			h289.6V64.1z"/>
	</g>
</g>
<g>
	<g>
		<path d="M79.6,96.2h-8c-4.1,0-7.5,3.4-7.5,7.5c0,4.1,3.4,7.5,7.5,7.5h8c4.1,0,7.5-3.4,7.5-7.5S83.8,96.2,79.6,96.2z"/>
	</g>
</g>
<g>
	<g>
		<path d="M135.8,96.2h-24c-4.1,0-7.5,3.4-7.5,7.5c0,4.1,3.4,7.5,7.5,7.5h24c4.1,0,7.5-3.4,7.5-7.5S139.9,96.2,135.8,96.2z"/>
	</g>
</g>
<g>
	<g>
		<path d="M79.6,128.3h-8c-4.1,0-7.5,3.4-7.5,7.5s3.4,7.5,7.5,7.5h8c4.1,0,7.5-3.4,7.5-7.5S83.8,128.3,79.6,128.3z"/>
	</g>
</g>
<g>
	<g>
		<path d="M135.8,128.3h-24c-4.1,0-7.5,3.4-7.5,7.5s3.4,7.5,7.5,7.5h24c4.1,0,7.5-3.4,7.5-7.5S139.9,128.3,135.8,128.3z"/>
	</g>
</g>
<g>
	<g>
		<path d="M79.6,160.3h-8c-4.1,0-7.5,3.4-7.5,7.5s3.4,7.5,7.5,7.5h8c4.1,0,7.5-3.4,7.5-7.5S83.8,160.3,79.6,160.3z"/>
	</g>
</g>
<g>
	<g>
		<path d="M135.8,160.3h-24c-4.1,0-7.5,3.4-7.5,7.5s3.4,7.5,7.5,7.5h24c4.1,0,7.5-3.4,7.5-7.5S139.9,160.3,135.8,160.3z"/>
	</g>
</g>
<g>
	<g>
		<path d="M79.6,192.4h-8c-4.1,0-7.5,3.4-7.5,7.5s3.4,7.5,7.5,7.5h8c4.1,0,7.5-3.4,7.5-7.5S83.8,192.4,79.6,192.4z"/>
	</g>
</g>
<g>
	<g>
		<path d="M135.8,192.4h-24c-4.1,0-7.5,3.4-7.5,7.5s3.4,7.5,7.5,7.5h24c4.1,0,7.5-3.4,7.5-7.5S139.9,192.4,135.8,192.4z"/>
	</g>
</g>
<g>
	<g>
		<path d="M79.6,224.5h-8c-4.1,0-7.5,3.4-7.5,7.5s3.4,7.5,7.5,7.5h8c4.1,0,7.5-3.4,7.5-7.5C87.1,227.8,83.8,224.5,79.6,224.5z"/>
	</g>
</g>
<g>
	<g>
		<path d="M135.8,224.5h-24c-4.1,0-7.5,3.4-7.5,7.5s3.4,7.5,7.5,7.5h24c4.1,0,7.5-3.4,7.5-7.5C143.3,227.8,139.9,224.5,135.8,224.5z
			"/>
	</g>
</g>
<g>
	<g>
		<path d="M440.4,168.3h-7.2c-3.2,0-6,2-7.1,5l-21.8,60.6l-21.8-60.6c-1.1-3-3.9-5-7.1-5h-7.2c-4.1,0-7.5,3.4-7.5,7.5V256
			c0,4.1,3.4,7.5,7.5,7.5s7.5-3.4,7.5-7.5v-57.2l21.2,58.8c0.2,0.9,0.6,1.8,1.3,2.8c1.4,2.1,3.8,3.2,6.1,3.2c1.2,0,2.4-0.3,3.5-0.8
			c1.7-0.9,3-2.4,3.6-4.2c0.4-1,13.1-36.3,21.5-59.7V256c0,4.1,3.4,7.5,7.5,7.5s7.5-3.4,7.5-7.5v-80.2
			C447.9,171.7,444.5,168.3,440.4,168.3z"/>
	</g>
</g>
<g>
	<g>
		<path d="M327.9,229.4c11.9-4.5,20.4-16,20.4-29.5c0-17.4-14.2-31.5-31.5-31.5h-32.1c-4.1,0-7.5,3.4-7.5,7.5V256
			c0,4.1,3.4,7.5,7.5,7.5s7.5-3.4,7.5-7.5v-24.6h19.9l14,27.9c1.3,2.6,4,4.1,6.7,4.1c1.1,0,2.3-0.3,3.3-0.8
			c3.7-1.9,5.2-6.4,3.4-10.1L327.9,229.4z M316.8,216.4h-24.6v-33.1h24.6c9.1,0,16.5,7.4,16.5,16.5S325.9,216.4,316.8,216.4z"/>
	</g>
</g>
<g>
	<g>
		<path d="M261,239.5c-3.1-2.7-7.8-2.4-10.6,0.7c-4.7,5.3-11.4,8.3-18.4,8.3c-13.5,0-24.6-11-24.6-24.6v-16
			c0-13.5,11-24.6,24.6-24.6c7,0,13.8,3,18.4,8.3c2.7,3.1,7.5,3.4,10.6,0.7c3.1-2.7,3.4-7.5,0.7-10.6c-7.5-8.5-18.3-13.4-29.7-13.4
			c-21.8,0-39.6,17.7-39.6,39.6v16c0,21.8,17.7,39.6,39.6,39.6c11.3,0,22.2-4.9,29.7-13.4C264.4,247,264.1,242.3,261,239.5z"/>
	</g>
</g>
</svg>
