<?xml version="1.0" encoding="utf-8"?>
<!-- Generator: Adobe Illustrator 22.1.0, SVG Export Plug-In . SVG Version: 6.00 Build 0)  -->
<svg version="1.1" id="Capa_1" xmlns="http://www.w3.org/2000/svg" xmlns:xlink="http://www.w3.org/1999/xlink" x="0px" y="0px"
	 viewBox="0 177.9 595.3 486.1" style="enable-background:new 0 177.9 595.3 486.1;" xml:space="preserve" fill="#fff">
<path d="M570.4,336.6h-24.7v-69.4h-19.8v-39.7H248.9l-35.4-49.6H27.1C12.2,177.9,0,190,0,205v433.4h0.1c0,5.6,1.7,11.1,5.2,15.6
	c4.9,6.3,12.2,10,20.2,10h444.1c11.5,0,21.6-7.7,24.3-18l101.5-278.2v-1.8C595.3,349,584.8,336.6,570.4,336.6z M525.8,336.6h-79.4
	v-9.9c0-5.5-4.4-9.9-9.9-9.9c-5.5,0-9.9,4.4-9.9,9.9v9.9H377v-9.9c0-5.5-4.4-9.9-9.9-9.9c-5.5,0-9.9,4.4-9.9,9.9v9.9h-49.6v-9.9
	c0-5.5-4.4-9.9-9.9-9.9s-9.9,4.4-9.9,9.9v9.9h-49.6v-9.9c0-5.5-4.4-9.9-9.9-9.9c-5.5,0-9.9,4.4-9.9,9.9v9.9h-49.6v-9.9
	c0-5.5-4.4-9.9-9.9-9.9c-5.5,0-9.9,4.4-9.9,9.9v9.9h-22.5c-1.4,0-2.8,0.1-4.2,0.3c-5,0.8-9.4,3.1-13,6.3V287h416.7V336.6z
	 M49.6,498.3V346.5h56.5c-1.9,2.4-3.3,5.1-4.1,8.1l-3.1,8.6L49.6,498.3z M89.3,326.7H63.6l5.8-5.8L89.3,301V326.7z M506,247.3v19.8
	H95.1l-25.7,25.7v-45.5h193.6H506z M19.8,205c0-4,3.3-7.3,7.3-7.3h176.1l21.3,29.8H49.6v85.2l-19.8,19.8v219.1l-9.9,27.1V205z
	 M474.9,640c-0.7,2.4-2.9,4.1-5.4,4.1H25.4c-2.4,0-3.8-1.4-4.4-2.2c-0.6-0.8-1.6-2.5-1.2-4l10-27.4v0l90.9-249.2l0.3-0.8
	c0.7-2.4,2.9-4.1,5.4-4.1h419.4h24.7c3.8,0,4.7,5.4,5,8.1L474.9,640z"/>
</svg>
