<svg xmlns="http://www.w3.org/2000/svg" width="442.53" height="339.17" viewBox="0 0 442.53 339.17">
  <style type="text/css">
    .st0{fill:#ff383f;}
  </style>
  <path class="st0" d="M434.53,46.82L395.71,7.99C390.38,2.66 383.91,0 376.3,0C368.68,0 362.2,2.66 356.88,7.99L169.59,195.57L85.65,111.34C80.32,106.01 73.85,103.35 66.23,103.35C58.62,103.35 52.15,106.01 46.82,111.34L7.99,150.17C2.66,155.5 0,161.97 0,169.59C0,177.19 2.66,183.67 7.99,189L111.34,292.35L150.17,331.18C155.5,336.51 161.97,339.17 169.59,339.17C177.2,339.17 183.67,336.5 189,331.18L227.83,292.35L434.53,85.65C439.86,80.32 442.53,73.85 442.53,66.23C442.53,58.62 439.86,52.15 434.53,46.82"/>
</svg>