<?xml version="1.0" encoding="utf-8"?>
<!-- Generator: Adobe Illustrator 22.1.0, SVG Export Plug-In . SVG Version: 6.00 Build 0)  -->
<svg version="1.1" id="Capa_1" xmlns="http://www.w3.org/2000/svg" xmlns:xlink="http://www.w3.org/1999/xlink" x="0px" y="0px"
	 viewBox="0 0 480 480" style="enable-background:new 0 0 480 480;" xml:space="preserve" fill="#fff">
<style type="text/css">
	.st0{stroke:#fff;stroke-width:6;stroke-miterlimit:10;}
</style>
<g>
	<g>
		<g>
			<path class="st0" d="M472,432h-24V280c0-4.4-3.6-8-8-8c-2.6,0-5,1.3-6.5,3.4l-112,160c-2.5,3.6-1.6,8.6,2,11.1
				c1.3,0.9,2.9,1.4,4.6,1.4h104v24c0,4.4,3.6,8,8,8s8-3.6,8-8v-24h24c4.4,0,8-3.6,8-8S476.4,432,472,432z M432,432h-88.6L432,305.4
				V432z"/>
			<path class="st0" d="M328,464h-94.7l88.1-103.7c0.2-0.2,0.4-0.5,0.6-0.7c16.6-24.5,11-57.7-12.6-75.6
				c-28.7-20.6-68.7-14.1-89.3,14.6c-7.8,10.9-12,23.9-12,37.4c0,4.4,3.6,8,8,8s8-3.6,8-8c0-26.5,21.5-48,48-48c10,0,19.8,3.2,28,9
				c16.5,12.7,20.4,36,8.8,53.3l-98.9,116.5c-2.9,3.4-2.4,8.4,0.9,11.3c1.4,1.2,3.3,1.9,5.2,1.9h112c4.4,0,8-3.6,8-8
				S332.4,464,328,464z"/>
			<path class="st0" d="M216.2,424.2c0.2-4.4-3.3-8.1-7.7-8.3c0,0,0,0,0,0C104.1,412,20.3,328.4,16.3,224H48c4.4,0,8-3.6,8-8
				s-3.6-8-8-8H16.3c4-104.2,87.5-187.7,191.7-191.7V40c0,4.4,3.6,8,8,8s8-3.6,8-8V16.3c102.8,4,185.7,85.3,191.6,188l-31.2-31.2
				c-3.2-3.1-8.2-3-11.3,0.2c-3,3.1-3,8,0,11.1l44.7,44.7c0.8,1,1.9,1.8,3.2,2.3c0.3,0.1,0.6,0.2,1,0.2c0.5,0.2,1.1,0.3,1.7,0.4
				c0.1,0,0.2,0,0.2,0s0.2,0,0.2,0c0.6,0,1.2-0.2,1.8-0.4c0.3,0,0.7-0.1,1-0.2c1.1-0.4,2.1-1,2.9-1.8l45.3-45.2
				c3.1-3.2,3-8.2-0.2-11.3c-3.1-3-8-3-11.1,0l-32,32C425.9,90.4,331.4,0.3,216.6,0.1c-0.2,0-0.4-0.1-0.6-0.1s-0.4,0.1-0.6,0.1
				C96.6,0.3,0.3,96.6,0.1,215.4c0,0.2-0.1,0.4-0.1,0.6s0.1,0.4,0.1,0.6c0.2,115.9,91.9,211,207.8,215.3h0.3
				C212.5,431.8,216,428.4,216.2,424.2z"/>
			<path class="st0" d="M323.5,108.5c-3.1-3.1-8.2-3.1-11.3,0l-86,86c-6.5-2.9-13.9-2.9-20.4,0l-40.7-40.7c-3.2-3.1-8.2-3-11.3,0.2
				c-3,3.1-3,8,0,11.1l40.6,40.6c-5.7,11.9-0.6,26.2,11.3,31.9c9.2,4.4,20.1,2.5,27.3-4.7c7.2-7.2,9.1-18.1,4.6-27.3l85.9-85.9
				C326.6,116.7,326.6,111.6,323.5,108.5z M221.7,221.7C221.7,221.7,221.7,221.7,221.7,221.7c-3.2,3-8.1,3-11.3,0
				c-3.1-3.1-3.1-8.2,0-11.3c3.1-3.1,8.2-3.1,11.3,0C224.8,213.5,224.8,218.5,221.7,221.7z"/>
		</g>
	</g>
</g>
</svg>
