<?xml version="1.0" encoding="utf-8"?>
<!-- Generator: Adobe Illustrator 22.1.0, SVG Export Plug-In . SVG Version: 6.00 Build 0)  -->
<svg version="1.1" id="Layer_1" xmlns="http://www.w3.org/2000/svg" xmlns:xlink="http://www.w3.org/1999/xlink" x="0px" y="0px"
	 viewBox="0 0 96 101.4" style="enable-background:new 0 0 96 101.4;" xml:space="preserve">
<style type="text/css">
	.st0{fill:#FFFFFF;}
</style>
<g>
	<path class="st0" d="M57.9,12.5c0.4-2,0.7-3.7,1-5.5c3.6-0.3,14,4.6,19.8,9.5c10.1,8.5,16,19.3,17.1,32.4
		c2.5,27.2-17.2,49.3-42.1,52.2C26.6,104.2,3.3,84.9,0.3,59C-2.8,31.5,16.7,11.3,36.1,7c0.3,1.9,0.6,3.7,1,5.7
		c-0.8,0.3-1.4,0.5-2.1,0.7C19.1,19.2,9.6,30.3,6.5,46.9C5.5,52.2,5.8,57.7,7,63c0.2,0.9,0.6,1.6,1.3,2.2c5.4,5.1,11.7,8.6,18.7,11
		c8.4,2.9,17,3.8,25.8,3.2c10.4-0.7,20.2-3.7,29-9.5c1.9-1.3,3.7-2.9,5.6-4.3c0.9-0.7,1.3-1.5,1.6-2.6c3-14.7-0.4-27.6-10.6-38.6
		c-5.2-5.6-11.7-9.4-19.1-11.4C58.8,12.8,58.4,12.6,57.9,12.5z M10,70.7c5,12.5,20.1,26.5,42.1,24.6c9.5-0.9,17.8-4.7,24.8-11.3
		c4.3-4.1,8.8-10.5,9.1-13.3c-11.3,8.6-24,12.6-38,12.6C34,83.2,21.2,79.1,10,70.7z"/>
	<path class="st0" d="M47.5,0c2,0,4,0.1,5.9,0c3-0.2,4,2.1,3.6,4.3c-0.3,2-0.7,4-1,6c-0.4,2.4-0.9,4.7-1.2,7.1
		c-0.4,2.6-1.7,3.5-4,3.4c-2.3-0.1-4.6,0-6.9,0c-2.3,0-3.3-0.8-3.7-3.1c-0.6-3.5-1.2-7-1.8-10.5c-0.2-1-0.4-2-0.5-3.1
		c-0.3-2.4,1-4,3.4-4C43.3,0,45.4,0,47.5,0z"/>
	<path class="st0" d="M55.8,42.6c0-7,5.6-12.6,12.6-12.6c7,0,12.7,5.6,12.7,12.6c0,7.1-5.7,12.8-12.7,12.7
		C61.3,55.3,55.8,49.6,55.8,42.6z M59,42.5c-0.1,5.3,4.2,9.6,9.4,9.7c5.1,0,9.5-4.2,9.5-9.4c0.1-5.3-4.2-9.6-9.4-9.6
		C63.3,33.1,59,37.3,59,42.5z"/>
	<path class="st0" d="M27.7,55.8c-7,0-12.7-5.7-12.6-12.7c0-7.1,5.7-12.6,12.8-12.7c5.7,0,12.5,4.4,12.5,12.6
		C40.5,51.4,33.5,56,27.7,55.8z M27.9,52.6c5.2,0,9.4-4.3,9.4-9.4c0-5.2-4.3-9.5-9.6-9.5c-5.1,0-9.4,4.4-9.4,9.5
		C18.3,48.3,22.6,52.6,27.9,52.6z"/>
	<path class="st0" d="M68.5,38c2.7,0,4.7,1.9,4.7,4.6c0,2.7-2.1,4.9-4.7,4.8c-2.5,0-4.7-2.2-4.7-4.7C63.9,40.1,65.9,38,68.5,38z"/>
	<path class="st0" d="M27.9,47.8c-2.6,0-4.7-2.1-4.7-4.7c0-2.6,2.1-4.7,4.7-4.7c2.6,0,4.8,2.2,4.7,4.8
		C32.6,45.9,30.6,47.9,27.9,47.8z"/>
</g>
</svg>
