<svg xmlns="http://www.w3.org/2000/svg" viewBox="0 0 137.9 38.6"><path d="M85.7 31.5c-15.1 2.2-32.6-.2-46.8-5.6-8-3.1-15.4-7.7-22.4-12.7-3.6-2.6-7-5.4-10.3-8.3C5.3 3.9 2.1-.4.8 0-3.5 1.4 11 14.3 12.7 15.6c7 5.4 14.4 10.6 22.6 14.1 13.7 5.9 30.1 9.8 45.1 8.7 8.7-.6 17.5-1.1 26-3.6 3.6-1.1 7.1-2.4 10.4-4.2 2.3-1.2 4.7-2.5 6.9-4 1.6-1.1 3.1-3.4 4.8-4.1.2 3.3-2.6 6.9-2.7 10.3-.1 4.1 2.9 2.3 4.2 0 2.2-3.7 3.8-7.8 5.5-11.8 1.5-3.4 4.2-7.3.5-10-3.2-2.3-7.4-3.4-11-5-2.4-1.1-7.1-4.6-9.8-3-8.4 4.9 12.5 9.5 13.7 10.5-1.1 1.1-2.8 1.7-4.1 2.6-1.9 1.3-3.5 2.9-5.4 4.2-3.5 2.5-7.4 4.6-11.3 6.3-6.8 3-14.9 4.8-22.4 4.9-5.4.8 1.1 0 0 0z" fill="#ffd801"/></svg>