<svg xmlns="http://www.w3.org/2000/svg" viewBox="0 0 1419.4 1092.1"><linearGradient id="a" gradientUnits="userSpaceOnUse" x1="134.307" y1="539.708" x2="1429.394" y2="523.991"><stop offset="0" stop-color="#d67bbf"/><stop offset="1" stop-color="#e85eaa"/></linearGradient><path d="M1345.6 654.1c0 7.8-.1 35.5-16.2 61.3-49.3 79-173.6 19.4-318.6 75.4-71.4 27.6-109.5 80.5-162.7 131-63.6 60.3-167.9 83.9-253.6 71.1-57.8-8.6-114.9-39.7-147.4-89.3-33.9-51.8-56.3-110.6-91.8-162.3-57.6-84.1-132-150.5-204.4-221.3-31.6-30.9-63.8-61.9-75.2-105.9-10.3-39.8-5.5-83.9 15-119.7 20.9-36.4 57.2-63.1 97.6-74.1 49.1-13.4 97.7 1.3 145.9 11.5 43.1 9.2 90.2 14.2 132.8-.2 39.8-13.5 78.2-36.9 113.2-59.7 52.9-34.4 122.3-104.8 190.2-102.5 23 .8 45.3 5.2 45.3 5.2 44.8 10.4 65.4 33.5 184.6 48.2 82.4 10.1 140.9 7.4 185 52.7 26.2 26.9 34.9 57.8 42.4 84.9 28.2 101.1-23.7 131.2-2.4 207.5 25.5 90.7 119.9 101.9 120.3 186.2z" fill="url(#a)"/><linearGradient id="b" gradientUnits="userSpaceOnUse" x1="83.943" y1="585.308" x2="1055.262" y2="516.152"><stop offset="0" stop-color="#ac33bd"/><stop offset="1" stop-color="#d04291"/></linearGradient><path d="M1365.1 459c-1 13-3.5 26-7.4 38.4-18 57.8-64.6 92-91.7 143.1-24.6 46.4-12.2 93.3-5.4 142.4 10.3 74.4-34.2 150.4-99.6 187.5-65.4 37-147.3 38.1-218.3 13.5-90.7-31.4-140.5-110.2-222.6-150.7C557.4 753 404.6 901.5 242 844.4c-47.8-16.8-88.4-50.7-118.9-91.2-54-71.8-77.5-167.5-55.9-254.7 20.1-81.2 80.2-151 158.7-180.7 85.3-32.3 186.3-19.5 259.3-82.2 36.4-31.2 67.1-68.7 103.6-99.7 62.6-53.2 143.3-86.5 225.4-85.6 82.1 1 164.6 38.2 214 103.8 26.6 35.2 52.6 72.1 87.6 99.7 39 30.7 85.6 40.4 132.1 54.6 31.5 9.6 63.2 23 85.4 47.4 25.3 27.4 34.7 65.7 31.8 103.2z" fill="url(#b)"/><linearGradient id="c" gradientUnits="userSpaceOnUse" x1="353.826" y1="153.642" x2="463.302" y2="153.642"><stop offset="0" stop-color="#ac33bd"/><stop offset="1" stop-color="#d04291"/></linearGradient><circle cx="408.6" cy="153.6" r="54.7" fill="url(#c)"/><linearGradient id="d" gradientUnits="userSpaceOnUse" x1="268.025" y1="111.205" x2="332.206" y2="111.205"><stop offset="0" stop-color="#ac33bd"/><stop offset="1" stop-color="#d04291"/></linearGradient><circle cx="300.1" cy="111.2" r="32.1" fill="url(#d)"/><linearGradient id="e" gradientUnits="userSpaceOnUse" x1="791.859" y1="1037.387" x2="901.335" y2="1037.387"><stop offset="0" stop-color="#ac33bd"/><stop offset="1" stop-color="#d04291"/></linearGradient><circle cx="846.6" cy="1037.4" r="54.7" fill="url(#e)"/><linearGradient id="f" gradientUnits="userSpaceOnUse" x1="1355.176" y1="568.101" x2="1419.357" y2="568.101"><stop offset="0" stop-color="#ac33bd"/><stop offset="1" stop-color="#d04291"/></linearGradient><circle cx="1387.3" cy="568.1" r="32.1" fill="url(#f)"/><path d="M813.2 22.3c51-18.7 105 4 150 28.1 23.3 12.5 46.2 26 70.5 36.7 25.8 11.3 52.1 18.3 80.3 20 27.2 1.6 55-.5 81.8 5.3 20.7 4.5 42.4 13.6 55.1 31.5 12.8 18 14.9 40.8 17.7 62.1 3 22.7 6.8 45.6 21.4 64 14.8 18.7 37.6 27.7 58.3 38.1 18.8 9.5 40.9 24.4 44.2 47.2.7 5 0 9.8-1.7 14.5-1.4 3.9 1.6 8.4 5.4 9.5 4.2 1.2 8.1-1.4 9.5-5.4 8.6-24.6-7.1-49.3-25.8-64.3-19.1-15.3-43.1-22.1-63.2-35.9-9-6.2-16.4-14.1-21.4-23.8-5.1-9.9-7.6-21-9.5-32-3.8-22.6-4.5-46-13.6-67.4-9.6-22.7-28.7-37.9-51.2-46.8-25-9.9-52.1-10.8-78.6-11.3-15.1-.3-30.3-.4-45.4-2.5-13.2-1.8-26.2-5.3-38.7-9.7-25.6-9.1-49.3-22.5-73-35.5-47.6-26.1-101-52.8-157-42.7-6.5 1.2-12.9 3-19.1 5.2-3.9 1.4-6.5 5.2-5.4 9.5 1 4 5.5 7 9.4 5.6zM41.9 446.4c-23.7 39.8-37.2 85-40.9 131-3.7 45.9 2.8 92.9 19.1 136 16.1 42.4 41.6 80.6 75.1 111.2 32.6 29.9 71.6 52.6 113.5 66.6 41.5 13.9 86.3 19.3 129.9 14.4 5.8-.7 11.5-1.5 17.3-2.4 4.1-.7 6.4-5.8 5.4-9.5-1.2-4.3-5.4-6.1-9.5-5.4-41.1 6.9-83.7 3.9-123.8-7.3-40.1-11.2-78.2-30.7-110.4-57.3-33.3-27.5-59.8-62-77.3-101.5-17.7-39.9-25.8-84-24.8-127.6 1-43.6 11.5-87.2 31.6-126 2.6-4.9 5.3-9.8 8.1-14.6 5-8.4-8.3-16.1-13.3-7.6z" fill="#ac33bd"/></svg>