<svg xmlns="http://www.w3.org/2000/svg" viewBox="0 0 384 512"><linearGradient id="a" x1="0%" y1="0%" x2="0%" y2="100%"><stop offset="0" stop-color="#e464ae"/><stop offset="100%" stop-color="#bf3ba6"/></linearGradient><path fill="url(#a)" class="st0" d="M192 0C86.1 0 0 86.1 0 192c0 141.6 177.1 310 184.7 317.1 2.1 1.9 4.7 2.9 7.3 2.9 2.6 0 5.3-1 7.3-2.9C206.9 502 384 333.6 384 192 384 86.1 297.9 0 192 0zm0 298.7c-58.8 0-106.7-47.9-106.7-106.7S133.2 85.3 192 85.3 298.7 133.2 298.7 192 250.8 298.7 192 298.7z"/></svg>