<svg xmlns="http://www.w3.org/2000/svg" viewBox="0 0 512.002 512.002"><path d="M468.146 372.001a8.398 8.398 0 00-10.725-5.104 8.399 8.399 0 00-5.105 10.725c4.831 13.613-.062 28.927-11.899 37.242-14.585 10.242-34.783 6.713-45.027-7.871-4.962-7.065-6.876-15.64-5.39-24.145 1.486-8.505 6.197-15.921 13.261-20.884a32.272 32.272 0 0135.784-.924 8.398 8.398 0 108.932-14.226 49.029 49.029 0 00-54.37 1.404c-22.164 15.567-27.531 46.263-11.963 68.427 9.55 13.597 24.79 20.872 40.265 20.87a48.85 48.85 0 0028.163-8.908c17.987-12.633 25.419-35.91 18.074-56.606z"/><path d="M484.733 340.609c-11.666-15.376-28.617-25.908-47.728-29.653-19.117-3.747-38.786-.386-55.386 9.458a79.376 79.376 0 00-14.442 10.958l-66.567-94.773L330.725 64.35c16.764 28.675 23.023 62.608 17.233 95.724l-17.121 97.931a8.399 8.399 0 006.828 9.719c.489.086.977.128 1.456.128a8.401 8.401 0 008.263-6.954l17.121-97.931c7.773-44.459-3.865-90.232-31.927-125.582a8.4 8.4 0 00-14.851 3.776l-30.77 175.999-46.94-66.829a8.399 8.399 0 10-13.746 9.654l105.833 150.678-20.606 28.88-100.685-143.347c-19.313-27.496-28.079-60.848-25.103-93.958l24.156 34.391a8.4 8.4 0 0013.746-9.654l-36.005-51.261a8.397 8.397 0 00-8.463-3.414 8.408 8.408 0 00-6.587 6.325c-10.362 43.924-1.428 90.295 24.512 127.226l73.556 104.724-6.701 38.334a78.951 78.951 0 00-11.61-2.948c-20.782-3.633-41.739 1.046-59.009 13.176-17.269 12.13-28.781 30.255-32.415 51.039-3.635 20.787 1.045 41.746 13.175 59.015 12.129 17.266 30.255 28.776 51.041 32.409a79.957 79.957 0 0013.777 1.202c16.102 0 31.789-4.926 45.237-14.371 17.266-12.128 28.776-30.256 32.411-51.045l8.603-49.206 31.401 44.706c12.419 17.682 30.974 29.45 52.249 33.139a80.378 80.378 0 0013.728 1.189c16.059 0 31.637-4.895 44.919-14.278 17.646-12.469 29.184-31.1 32.484-52.463 3.298-21.355-2.093-42.615-15.182-59.864zm-184.751 93.882c-2.861 16.37-11.924 30.643-25.519 40.192-13.595 9.548-30.095 13.232-46.466 10.368-16.365-2.861-30.637-11.924-40.187-25.519-9.551-13.596-13.235-30.098-10.373-46.466 2.861-16.364 11.925-30.635 25.523-40.186s30.1-13.234 46.463-10.374a62.132 62.132 0 0117.199 5.681 8.4 8.4 0 0012.045-6.058l5.615-32.114 27.198 38.724-11.498 65.752zm183.33-36.587c-2.599 16.821-11.683 31.492-25.577 41.308-13.373 9.449-29.74 13.092-46.084 10.259-16.844-2.92-31.539-12.241-41.373-26.243l-43.039-61.277a1.181 1.181 0 00-.031-.044l-5.471-7.791 20.606-28.88 17.117 24.369a8.396 8.396 0 006.645 3.569 8.362 8.362 0 006.829-3.203 62.29 62.29 0 0117.258-15.109c13.046-7.738 28.528-10.375 43.587-7.422 15.061 2.951 28.406 11.234 37.577 23.322 10.307 13.589 14.554 30.331 11.956 47.142z"/><path d="M247.17 375.396c-12.926-2.26-25.955.649-36.691 8.19-10.737 7.541-17.894 18.812-20.154 31.736-4.664 26.68 13.248 52.181 39.926 56.845 2.858.499 5.721.747 8.563.747 10.011 0 19.765-3.064 28.128-8.936 10.737-7.541 17.894-18.812 20.154-31.736 4.664-26.682-13.247-52.181-39.926-56.846zm23.379 53.952c-3.069 17.556-19.843 29.348-37.406 26.272-17.556-3.069-29.342-19.849-26.272-37.406 3.069-17.556 19.846-29.342 37.406-26.272 17.556 3.07 29.342 19.85 26.272 37.406zm38.564-136.927c-3.164-1.677-7.148-1.156-9.746 1.321-2.932 2.795-3.409 7.375-1.189 10.745 4.091 6.214 13.974 4.041 15.244-3.226.616-3.524-1.143-7.162-4.309-8.84zm-140.574 25.334l-.06-.336a23.72 23.72 0 00-23.364-19.539h-42.697c-7.754 0-14.878-2.936-19.262-7.458h54.866a8.4 8.4 0 000-16.798H76.927a498.739 498.739 0 01-2.801-14.401h59.136a8.4 8.4 0 000-16.798H71.399a492.225 492.225 0 01-1.863-14.39h61.822a8.4 8.4 0 000-16.798H67.922a485.59 485.59 0 01-.928-14.401h64.364a8.4 8.4 0 000-16.798H66.442c-.072-4.801-.072-9.6 0-14.401h65.544a8.4 8.4 0 000-16.798H66.994c.237-4.797.546-9.595.927-14.39h65.341a8.4 8.4 0 000-16.798H69.535A490.457 490.457 0 0171.4 103.25h63.845a8.4 8.4 0 000-16.798H74.126a498.756 498.756 0 012.802-14.401h61.094a8.4 8.4 0 000-16.798H83.154c4.384-4.522 11.51-7.459 19.263-7.459h42.697a23.71 23.71 0 0023.366-19.55l.055-.307a23.67 23.67 0 00-5.149-19.427A23.69 23.69 0 00145.17 0H65.153C45.79 0 28.708 13.107 23.613 31.873c-9.545 35.168-18.532 116.992-7.131 307.083.278 4.629 4.261 8.168 8.886 7.88a8.399 8.399 0 007.881-8.887c-8.915-148.663-6.642-252.981 6.576-301.676 3.112-11.466 13.529-19.475 25.328-19.475h80.017c2.824 0 4.551 1.561 5.329 2.492.776.929 2.004 2.901 1.485 5.785l-.039.219a6.929 6.929 0 01-6.831 5.71h-42.697c-19.353 0-36.088 11.699-39.791 27.818-17.388 75.659-17.388 152.382 0 228.04 3.703 16.119 20.438 27.818 39.791 27.818h42.697a6.935 6.935 0 016.831 5.709l.06.337c.499 2.775-.728 4.746-1.505 5.673-.776.928-2.499 2.486-5.318 2.486h-28.1c-16.178 0-29.771 12.639-30.945 28.776l-8.884 122.155c-.627 8.629-7.897 15.389-16.549 15.389a16.52 16.52 0 01-16.52-15.043 4405.875 4405.875 0 01-8.991-111.731 8.399 8.399 0 10-16.759 1.133 4427.641 4427.641 0 009.026 112.164c1.616 17.26 15.908 30.275 33.244 30.275 17.411 0 32.038-13.603 33.303-30.968l8.884-122.154c.538-7.4 6.772-13.197 14.192-13.197h28.1a23.684 23.684 0 0018.204-8.511 23.675 23.675 0 005.152-19.418z"/></svg>