<svg height="512" viewBox="0 0 60 60" width="512" xmlns="http://www.w3.org/2000/svg"><path d="M57.621 36.371L57 36.123V3a3 3 0 00-3-3h-8a3 3 0 00-3 3v9h-8.907a33.009 33.009 0 00-4.931-5.91c-7.216-7.215-9.4-6.154-9.9-5.656l-2.827 2.828c-.5.5-1.561 2.682 5.656 9.9 4.983 4.984 7.567 6.02 8.853 6.02.384.026.761-.105 1.046-.363l2.829-2.829c.223-.222.554-.789.209-1.989H43V31.25l-21.232 6.181a8.854 8.854 0 00-.653-5.89l3.411-2.849A3 3 0 0027 30h8a3 3 0 000-6h-8a3 3 0 00-2.952 2.522c-.3.2.258-.253-3.882 3.206-2.569-4.242-7.1-7.764-8.881-9.049 1.032-2.512-.047-5.279-3.059-7.722A4.97 4.97 0 000 16.7a5.072 5.072 0 00.931 2.939C20.79 47.865 8.7 30.683 18.4 44.461a2.906 2.906 0 002.275 1.223L22.492 50H18a8.009 8.009 0 00-8 8 2 2 0 002 2h46a2 2 0 002-2 7.984 7.984 0 00-3-6.235v-8.178a3.787 3.787 0 00.621-7.216zM18.2 5.022c3.406 1.546 10.381 8.478 12.022 12.027C26.705 15.421 19.813 8.523 18.2 5.022zm13.715 11.043c-1.628-3.737-8.992-11.1-12.727-12.728l1.323-1.323c.819.169 3.589 1.842 7.237 5.49s5.321 6.417 5.49 7.238zM27 26h8a1 1 0 010 2h-8a1 1 0 010-2zm18 5.323V26h10v9.323zM55 24H45v-7h10zM45 3a1 1 0 011-1h8a1 1 0 011 1v12H45zM2.565 18.488A2.934 2.934 0 014.9 13.782a3.3 3.3 0 012.066.729c1.739 1.41 3.518 3.544 2.288 5.785l-3.686 2.459zM20.032 43.31L6.72 24.391l3.266-2.179c4.4 3.17 11.255 9.444 9.85 14.7a1.986 1.986 0 002.453 2.459l21.66-6.317 12.933 5.172a1.785 1.785 0 01-1.331 3.312C43.443 36.7 44.3 37.01 44.022 37.005c-.16-.033.2-.112-22.992 6.655a.914.914 0 01-.998-.35zM39.359 50l-4.578-8.269L43 39.334V50zm-16.691-4.734l10.145-2.96L37.073 50H24.664zM58 58H12a6.006 6.006 0 016-6h34a6.009 6.009 0 016 6zm-13-8V39.477c11.149 4.457 9.526 3.816 10 3.977v7.135C53.071 49.805 52.249 50 45 50z"/><path d="M48 9a1 1 0 001-1V7a1 1 0 00-2 0v1a1 1 0 001 1zm4 0a1 1 0 001-1V7a1 1 0 00-2 0v1a1 1 0 001 1zM18 54h-1a1 1 0 000 2h1a1 1 0 000-2zm15 0H22a1 1 0 000 2h11a1 1 0 000-2z"/></svg>