<svg height="512" viewBox="0 0 60 56" width="512" xmlns="http://www.w3.org/2000/svg"><path d="M50.9 1.558a1 1 0 00-1.343-.458c-.138.067-3.41 1.629-5.85-.811A1 1 0 0042 1c0 4.411-5.383 8-12 8S18 5.411 18 1a1 1 0 00-1.707-.707c-2.44 2.44-5.712.878-5.846.812a1 1 0 00-.894 1.79 7.625 7.625 0 006.683-.06c.177.658.438 1.29.777 1.881a4.369 4.369 0 01-4.776 2.312 1 1 0 10-.479 1.942 6.3 6.3 0 006.53-2.513c.51.554 1.074 1.056 1.683 1.5-.809 2.876-2.749 3.031-2.983 3.038A1.003 1.003 0 1017 13c.145 0 3.361-.048 4.727-3.945a16.3 16.3 0 003.252 1.275c-.217 3.089-3.37 4.746-3.428 4.776a1.001 1.001 0 00.9 1.789c.175-.088 4.067-2.085 4.509-6.143.676.108 1.357.18 2.04.216V17a1 1 0 002 0v-6.032a19.281 19.281 0 002.044-.216c.442 4.058 4.334 6.055 4.509 6.143a1 1 0 10.9-1.788c-.034-.017-3.211-1.676-3.429-4.777a16.3 16.3 0 003.252-1.275C39.639 12.952 42.855 13 43 13c.545 0 .988-.44.992-.986A1.007 1.007 0 0043.014 11c-.225-.007-2.174-.153-2.985-3.038a11.475 11.475 0 001.682-1.5 6.311 6.311 0 006.531 2.513 1 1 0 10-.484-1.94 4.311 4.311 0 01-4.771-2.314c.339-.59.6-1.223.777-1.881a7.616 7.616 0 006.683.06 1 1 0 00.453-1.342z"/><path d="M50.447 18.9a1 1 0 00-.89-1.791c-.138.066-3.41 1.629-5.85-.811A1 1 0 0042 17c0 4.411-5.383 8-12 8s-12-3.589-12-8a1 1 0 00-1.707-.707c-2.44 2.439-5.712.878-5.846.812a1 1 0 10-.894 1.79 7.628 7.628 0 006.683-.06c.177.658.438 1.29.777 1.881a4.367 4.367 0 01-4.776 2.312 1 1 0 10-.479 1.942 6.3 6.3 0 006.53-2.513c.51.554 1.074 1.056 1.683 1.5-.809 2.876-2.749 3.031-2.983 3.038A1.003 1.003 0 0017 29c.145 0 3.361-.048 4.727-3.945a16.3 16.3 0 003.252 1.275c-.217 3.089-3.37 4.746-3.428 4.776a1.001 1.001 0 00.9 1.789c.175-.088 4.067-2.085 4.509-6.143.676.108 1.357.18 2.04.216V33a1 1 0 002 0v-6.032a19.281 19.281 0 002.044-.216c.442 4.058 4.334 6.055 4.509 6.143a1 1 0 00.9-1.788c-.034-.017-3.211-1.676-3.429-4.777a16.3 16.3 0 003.252-1.275C39.639 28.952 42.855 29 43 29c.545 0 .988-.44.992-.986A1.007 1.007 0 0043.014 27c-.225-.007-2.174-.153-2.985-3.038a11.475 11.475 0 001.682-1.5 6.311 6.311 0 006.531 2.513 1 1 0 00-.484-1.94 4.313 4.313 0 01-4.771-2.314c.339-.59.6-1.223.777-1.881a7.619 7.619 0 006.683.06zm7.363 16.11C10.8 39.533 17.776 39 13 39a3 3 0 00-2.816 2H4.5a4.5 4.5 0 100 9h5.684A3 3 0 0013 52c4.8 0-2.336-.547 44.81 3.99a2 2 0 002.19-2V37.011a2 2 0 00-2.19-2.001zM53 37.491v16.027l-15-1.443V38.93zM2 45.5A2.5 2.5 0 014.5 43H10v5H4.5A2.5 2.5 0 012 45.5zM12 49v-7a1 1 0 011-1h3v9h-3a1 1 0 01-1-1zm6-8.15l18-1.728v12.761L18 50.15zm37 12.861V37.3l3-.288V54zM57.905 55L58 54z"/></svg>