<svg height="512" viewBox="0 0 60 60" width="512" xmlns="http://www.w3.org/2000/svg"><path d="M32.7 8.778a1 1 0 10-1.414 1.414l4.439 4.439a1.968 1.968 0 00.51 1.925c1.761 1.761 3.081 3.34 6.107 3.7a9.966 9.966 0 015.964 2.713l4.9 4.9a4 4 0 105.537-5.776l-4.781-4.781a9.968 9.968 0 01-2.712-5.964c-.372-3.1-2.108-4.513-3.7-6.107a2 2 0 00-1.924-.509L41.187.293a1 1 0 00-1.414 1.414l4.243 4.243L42.6 7.364l-4.241-4.242a1 1 0 00-1.414 1.414l4.242 4.242-1.414 1.414L35.53 5.95a1 1 0 00-1.414 1.414l4.243 4.242-1.415 1.415zm16.564 2.809a11.944 11.944 0 003.284 7.14l4.781 4.781c.79.75.885 1.976.221 2.839a2.063 2.063 0 01-2.93.109l-4.9-4.9a11.942 11.942 0 00-7.14-3.285c-2.358-.281-3.4-1.6-4.931-3.129l8.488-8.483c1.582 1.579 2.847 2.575 3.129 4.928z"/><path d="M45.21 41.048c-1.209-3.508.345-8.237.769-16.013a1.002 1.002 0 10-2-.11c-.412 7.581-1.933 12.234-.821 16.266C39.043 41.568 34 42.594 34 45c.082.83.6 1.554 1.36 1.9l.489 2.445c-1.19.167-2.486.3-3.872.4v-6.917a18.772 18.772 0 004.432-7.922c1.6-.423 4.591-1.89 4.591-6.946 0-2.339-.54-3.749-1.652-4.311a2.413 2.413 0 00-1.774-.128c0-.637-.022-1.268-.067-1.866a1 1 0 00-.287-.629C33.362 17.136 31.7 17 24.5 17c-4.788 0-6.585-2.736-7.23-4.368a1 1 0 00-1.54-.424c-2.856 2.2-4.261 5.9-4.3 11.314a2.416 2.416 0 00-1.773.127C8.54 24.211 8 25.621 8 27.96c0 5.04 2.971 6.513 4.574 6.94a18.569 18.569 0 004.463 7.97v6.874C6.8 49 4.193 46.745 2.826 45.2c6.6-3.156 1.166-15.883 2.13-25.933C5.939 9.063 14.5 8.594 17.105 8.687c.215.024.432-.018.623-.119a24.458 24.458 0 0113.557-2.433 1 1 0 00.215-1.989 26.711 26.711 0 00-14.487 2.537C10.821 6.524 3.872 9.667 2.964 19.075c-1.006 10.5 4.444 23.172-1.99 24.654a1.01 1.01 0 00-.493 1.851c1.63 1.5 2.839 5.216 16.665 6.182a3.012 3.012 0 002.908 2.244h8.94a2.951 2.951 0 002.877-2.246 61.01 61.01 0 004.371-.451c.91 4.548.758 3.3.758 5.691a3 3 0 003 3h14a3 3 0 003-3c0-2.536-.267-.568 1.64-10.1A2.342 2.342 0 0060 45c0-3.611-11.119-4.126-14.79-3.952zm-6.765-15.614c.023.011.555.3.555 2.526 0 2.675-1 3.966-2.048 4.587a42 42 0 00.612-6.861c.46-.263.771-.309.881-.252zM10 27.96c0-2.221.532-2.515.555-2.526.11-.055.421-.01.88.253.015 2.297.216 4.59.6 6.854C10.99 31.918 10 30.627 10 27.96zm5.569 9.261c-1.792-3.826-2.152-7.982-2.152-13.446 0-4.214.858-7.222 2.618-9.143C17.153 16.505 19.569 19 24.5 19c6.92 0 7.952.105 11.037 3.171.031.518.046 1.056.046 1.6 0 5.452-.364 9.6-2.177 13.445-2.1 4.471-5.094 6.738-8.906 6.738-3.842.004-6.846-2.262-8.931-6.733zm13.425 14.785h-8.94a1 1 0 01-1.006-1.127c0-.051-.011.715-.011-6.435a10.539 10.539 0 0010.94-.024V51a.985.985 0 01-.983 1.006zM47 43c6.09 0 10.231 1.264 10.941 2-.71.736-4.851 2-10.941 2s-10.231-1.264-10.941-2c.71-.736 4.851-2 10.941-2zm8 14a1 1 0 01-1 1H40a1 1 0 01-1-1v-1h10a1 1 0 000-2H38.82l-1.234-6.167a39.07 39.07 0 0018.828 0C54.728 56.262 55 54.2 55 57z"/></svg>