<svg xmlns="http://www.w3.org/2000/svg" viewBox="0 0 22 20.1"><path d="M12.1.7c1.1-.5 2-.7 3.5-.7C19.3 0 22 3.1 22 7.1c0 3-1.7 6-4.8 8.8-1.7 1.5-3.8 3-5.3 3.7l-.9.5-.9-.4c-1.5-.8-3.6-2.3-5.3-3.7C1.7 13.1 0 10.2 0 7.1 0 3.1 2.7 0 6.5 0c1.4 0 2.4.2 3.5.7.4.2.7.4 1.1.7.2-.3.6-.5 1-.7zm3.7 13.7c2.8-2.5 4.2-4.9 4.2-7.3C20 4.2 18.1 2 15.5 2c-1.2 0-1.8.1-2.6.5-.5.2-.9.5-1.3.9l-.6.8-.7-.8c-.4-.3-.8-.6-1.3-.9-.8-.4-1.4-.5-2.5-.5C3.9 2 2 4.1 2 7.1c0 2.4 1.4 4.8 4.2 7.3 1.5 1.4 3.5 2.7 4.8 3.4 1.4-.6 3.3-2 4.8-3.4z"/></svg>