<svg width="18" height="18" fill="none" xmlns="http://www.w3.org/2000/svg"><g class="prod-sort-g" clip-path="url(#clip0)"><path fill="#fff" d="M0 0h18v18H0z"/><path d="M3.75 0h-3A.75.75 0 000 .75v3c0 .414.336.75.75.75h3a.75.75 0 00.75-.75v-3A.75.75 0 003.75 0zM17.25 0H6.75A.75.75 0 006 .75v3c0 .414.336.75.75.75h10.5a.75.75 0 00.75-.75v-3a.75.75 0 00-.75-.75zM3.75 6.75h-3A.75.75 0 000 7.5v3c0 .414.336.75.75.75h3a.75.75 0 00.75-.75v-3a.75.75 0 00-.75-.75zM17.25 6.75H6.75A.75.75 0 006 7.5v3c0 .414.336.75.75.75h10.5a.75.75 0 00.75-.75v-3a.75.75 0 00-.75-.75zM3.75 13.5h-3a.75.75 0 00-.75.75v3c0 .414.336.75.75.75h3a.75.75 0 00.75-.75v-3a.75.75 0 00-.75-.75zM17.25 13.5H6.75a.75.75 0 00-.75.75v3c0 .414.336.75.75.75h10.5a.75.75 0 00.75-.75v-3a.75.75 0 00-.75-.75z"/></g><defs><clipPath id="clip0"><path fill="#fff" d="M0 0h18v18H0z"/></clipPath></defs></svg>