<svg height="512" viewBox="0 0 60 60" width="512" xmlns="http://www.w3.org/2000/svg"><path d="M55 18v-2a3 3 0 00-3-3h-1v-1a3.987 3.987 0 00-2-3.444V6.117l3.883 4.005a3 3 0 004.248-4.23L52.264.9a3.022 3.022 0 00-2.147-.9H35a3 3 0 000 6h8v2.556A3.987 3.987 0 0041 12v1h-1a3 3 0 00-3 3v2a5.006 5.006 0 00-5 5v8h-7.355C26.214 13.687 26 17.392 26 12a3 3 0 00-3-3H3a3 3 0 00-3 3v4.091C3.5 54.586 3 46.434 3 57a3 3 0 003 3h49a5.006 5.006 0 005-5V23a5.006 5.006 0 00-5-5zM34 3a1 1 0 011-1h15.117a1 1 0 01.716.3l4.875 5A1 1 0 0154.3 8.719L50.027 4.3a1 1 0 00-.717-.3H35a1 1 0 01-1-1zm11 3h2v2h-2zm-2 6a2 2 0 012-2h2a2 2 0 012 2v1h-6zm-4 4a1 1 0 011-1h12a1 1 0 011 1v2H39zm3 22v-3a4 4 0 00-4-4v-7h16v30h-9V41a3 3 0 00-3-3zm-4-5a2 2 0 012 2v3H20v-3a2 2 0 012-2zM2 12a1 1 0 011-1h1v2a1 1 0 002 0v-2h2v2a1 1 0 002 0v-2h2v2a1 1 0 002 0v-2h2v2a1 1 0 002 0v-2h2v2a1 1 0 002 0v-2h1a1 1 0 011 1v3H2zm21.905 5l-1.269 14H22a4 4 0 00-4 4v3a3 3 0 00-3 3v7H4.913L2.1 17zM5 50h10v4.088c-.581 1.251-3.528 1.145-3.964.073A1.93 1.93 0 009.22 53H5zm12-5h14a1 1 0 011 1v6a1 1 0 01-1 1H17zM5 57v-2h4.222C10 56.72 12.754 57.557 15 56.6c-.035.474.028.95.184 1.4H6a1 1 0 01-1-1zm13 1a1 1 0 01-1-1v-2h14a3 3 0 003-3v-6a3 3 0 00-3-3H17v-2a1 1 0 011-1h24a1 1 0 011 1v16a1 1 0 01-1 1zm40-3a3 3 0 01-3 3H44.816A5.077 5.077 0 0045 56h10a1 1 0 001-1V23a1 1 0 00-1-1H37a1 1 0 00-1 1v8h-2v-8a3 3 0 013-3h18a3 3 0 013 3z"/><path d="M7 45a1 1 0 001-1.083l-1.67-20A.987.987 0 005.247 23a1 1 0 00-.913 1.079l1.67 20A1 1 0 007 45z"/><circle cx="5" cy="20" r="1"/></svg>