<?xml version="1.0" encoding="utf-8"?>
<!-- Generator: Adobe Illustrator 22.1.0, SVG Export Plug-In . SVG Version: 6.00 Build 0)  -->
<svg version="1.1" id="Capa_1" xmlns="http://www.w3.org/2000/svg" xmlns:xlink="http://www.w3.org/1999/xlink" x="0px" y="0px"
	 viewBox="100.6 217.2 394.2 407.4" style="enable-background:new 100.6 217.2 394.2 407.4;" xml:space="preserve">
<style type="text/css">
	.st0{fill:#fff;}
</style>
<g>
	<path class="st0" d="M485.9,315.2l-0.1-0.5c-9.5-38.4-52.4-79.7-91.7-88.3l-0.4-0.1c-63.7-12.1-128.2-12.1-191.9,0l-0.5,0.1
		c-39.4,8.6-82.2,49.8-91.7,88.3l-0.1,0.5c-11.8,53.7-11.8,108.1,0,161.8l0.1,0.5c9.1,36.8,48.8,76.2,86.7,87v42.9
		c0,15.5,18.9,23.2,29.7,12l43.5-45.2c9.4,0.5,18.9,0.8,28.3,0.8c32.1,0,64.1-3,96-9.1l0.4-0.1c39.4-8.6,82.2-49.8,91.7-88.3
		l0.1-0.5C497.7,423.3,497.7,368.9,485.9,315.2z M451.5,469.2c-6.3,25.1-38.9,56.3-64.8,62c-33.9,6.4-68,9.2-102.1,8.2
		c-0.7,0-1.3,0.2-1.8,0.7c-4.8,5-31.7,32.6-31.7,32.6l-33.8,34.7c-2.5,2.6-6.8,0.8-6.8-2.7v-71.1c0-1.2-0.8-2.2-2-2.4c0,0,0,0,0,0
		c-25.9-5.8-58.4-36.9-64.8-62c-10.6-48.5-10.6-97.7,0-146.2c6.4-25.1,38.9-56.3,64.8-62c59.1-11.2,119.1-11.2,178.2,0
		c25.9,5.8,58.4,36.9,64.8,62C462.1,371.5,462.1,420.7,451.5,469.2z"/>
	<path class="st0" d="M353.9,502c-4-1.2-7.8-2-11.3-3.5c-36.5-15.1-70-34.6-96.6-64.6c-15.1-17-26.9-36.2-37-56.5
		c-4.7-9.6-8.7-19.7-12.8-29.6c-3.7-9.1,1.8-18.5,7.5-25.3c5.4-6.4,12.4-11.3,19.9-14.9c5.9-2.8,11.7-1.2,16,3.8
		c9.3,10.8,17.8,22.1,24.7,34.6c4.2,7.7,3.1,17.1-4.6,22.3c-1.9,1.3-3.6,2.8-5.3,4.2c-1.5,1.3-3,2.5-4,4.2c-1.9,3.1-2,6.8-0.8,10.2
		c9.5,26.1,25.5,46.4,51.7,57.3c4.2,1.7,8.4,3.8,13.3,3.2c8.1-0.9,10.7-9.8,16.4-14.5c5.6-4.5,12.6-4.6,18.6-0.8
		c6,3.8,11.8,7.8,17.5,12c5.7,4,11.3,8,16.5,12.6c5,4.4,6.7,10.2,3.9,16.2c-5.2,11-12.7,20.1-23.6,26C361,500.4,357.4,501,353.9,502
		C349.9,500.8,357.4,501,353.9,502z"/>
	<path class="st0" d="M297.7,295c47.7,1.3,86.9,33,95.3,80.1c1.4,8,1.9,16.2,2.6,24.4c0.3,3.4-1.7,6.7-5.4,6.7
		c-3.8,0-5.5-3.2-5.8-6.6c-0.5-6.8-0.8-13.6-1.8-20.3c-4.9-35.5-33.3-64.9-68.6-71.2c-5.3-0.9-10.8-1.2-16.2-1.8
		c-3.4-0.4-7.9-0.6-8.6-4.8c-0.6-3.6,2.4-6.4,5.7-6.6C295.9,295,296.8,295,297.7,295C345.4,296.4,296.8,295,297.7,295z"/>
	<path class="st0" d="M370.2,389c-0.1,0.6-0.1,2-0.5,3.3c-1.3,4.8-8.5,5.4-10.2,0.6c-0.5-1.4-0.6-3.1-0.6-4.6
		c0-10.1-2.2-20.2-7.3-29c-5.2-9-13.2-16.6-22.6-21.2c-5.7-2.8-11.8-4.5-18-5.5c-2.7-0.4-5.5-0.7-8.2-1.1c-3.3-0.5-5.1-2.6-4.9-5.8
		c0.1-3.1,2.4-5.3,5.7-5.1c10.9,0.6,21.5,3,31.3,8.1c19.8,10.5,31.1,27,34.4,49.1c0.1,1,0.4,2,0.5,3
		C369.9,383.2,370,385.7,370.2,389C370.1,389.6,370,385.7,370.2,389z"/>
	<path class="st0" d="M340.6,387.8c-4,0.1-6.1-2.1-6.5-5.8c-0.3-2.6-0.5-5.1-1.1-7.6c-1.2-4.9-3.8-9.4-7.9-12.4
		c-1.9-1.4-4.1-2.4-6.4-3.1c-2.9-0.8-6-0.6-8.9-1.3c-3.2-0.8-4.9-3.3-4.4-6.3c0.5-2.7,3.1-4.8,6-4.6c18.5,1.3,31.7,10.9,33.6,32.7
		c0.1,1.5,0.3,3.2-0.1,4.6C344.2,386.5,342.4,387.7,340.6,387.8C336.6,387.9,342.4,387.7,340.6,387.8z"/>
</g>
</svg>
