<?xml version="1.0" encoding="utf-8"?>
<!-- Generator: Adobe Illustrator 22.1.0, SVG Export Plug-In . SVG Version: 6.00 Build 0)  -->
<svg version="1.1" id="Capa_1" xmlns="http://www.w3.org/2000/svg" xmlns:xlink="http://www.w3.org/1999/xlink" x="0px" y="0px"
	 viewBox="0 0 341.5 483.5" style="enable-background:new 0 0 341.5 483.5;" xml:space="preserve">
<style type="text/css">
	.st0{fill:#666666;}
</style>
<path class="st0" d="M59.2,478.1c-46.6-17-70.8-68.7-53.8-115.4L108.7,79c22.6-62.2,91.6-94.4,153.8-71.7s94.4,91.6,71.7,153.8
	L231,444.8l-28.2-10.3l103.3-283.8c17-46.6-7.2-98.4-53.8-115.4s-98.4,7.2-115.4,53.8L33.6,373c-11.3,31.1,4.8,65.6,35.9,76.9
	s65.6-4.8,76.9-35.9l82.8-227.4c5.6-15.5-2.4-32.8-17.9-38.5c-15.5-5.6-32.8,2.4-38.5,17.9L90,393.5l-28.2-10.3l82.8-227.4
	c11.3-31.1,45.8-47.2,76.9-35.9s47.2,45.8,35.9,76.9l-82.8,227.4C157.6,470.9,105.8,495.1,59.2,478.1z"/>
</svg>
