<?xml version="1.0" encoding="utf-8"?>
<!-- Generator: Adobe Illustrator 22.1.0, SVG Export Plug-In . SVG Version: 6.00 Build 0)  -->
<svg version="1.1" id="Layer_1" xmlns="http://www.w3.org/2000/svg" xmlns:xlink="http://www.w3.org/1999/xlink" x="0px" y="0px"
	 viewBox="0 0 420 512" style="enable-background:new 0 0 420 512;" xml:space="preserve">
<path d="M332.4,469.2h18c16.5,0,30-13.5,30-30V222.5c0-16.5-13.5-30-30-30H69.6c-16.5,0-30,13.5-30,30v216.7c0,16.5,13.5,30,30,30
	h193.9c5.5,0,10-4.5,10-10V212.5h77c5.5,0,10,4.5,10,10v216.7c0,5.5-4.5,10-10,10h-18c-5.5,0-10,4.5-10,10
	C322.4,464.7,326.9,469.2,332.4,469.2z M166.5,340.9h87v108.3h-87V340.9z M69.6,212.5h77v108.4h-87v-98.4
	C59.6,217,64.1,212.5,69.6,212.5z M59.6,439.2v-98.3h87v108.3h-77C64.1,449.2,59.6,444.7,59.6,439.2z M253.5,320.9h-87V212.5h87
	V320.9z"/>
<path d="M380.4,72.8c0-16.5-13.5-30-30-30H69.6c-16.5,0-30,13.5-30,30v67c0,16.5,13.5,30,30,30h280.9c16.5,0,30-13.5,30-30V72.8z
	 M360.4,139.7c0,5.5-4.5,10-10,10H69.6c-5.5,0-10-4.5-10-10v-67c0-5.5,4.5-10,10-10h280.9c5.5,0,10,4.5,10,10V139.7z"/>
<path d="M87.9,276.7H93v5.1c0,5.5,4.5,10,10,10s10-4.5,10-10v-5.1h5.1c5.5,0,10-4.5,10-10c0-5.5-4.5-10-10-10H113v-5.1
	c0-5.5-4.5-10-10-10s-10,4.5-10,10v5.1h-5.1c-5.5,0-10,4.5-10,10C77.9,272.2,82.4,276.7,87.9,276.7z"/>
<path d="M194.9,276.7h30.3c5.5,0,10-4.5,10-10c0-5.5-4.5-10-10-10h-30.3c-5.5,0-10,4.5-10,10C184.9,272.2,189.4,276.7,194.9,276.7z"
	/>
<path d="M224.1,395l8.1-8.1c3.9-3.9,3.9-10.2,0-14.1c-3.9-3.9-10.2-3.9-14.1,0l-8.1,8.1l-8.1-8.1c-3.9-3.9-10.2-3.9-14.1,0
	s-3.9,10.2,0,14.1l8.1,8.1l-8.1,8.1c-3.9,3.9-3.9,10.2,0,14.1c2,2,4.5,2.9,7.1,2.9s5.1-1,7.1-2.9l8.1-8.1l8.1,8.1
	c2,2,4.5,2.9,7.1,2.9c2.6,0,5.1-1,7.1-2.9c3.9-3.9,3.9-10.2,0-14.1L224.1,395z"/>
<path d="M125.2,372.8c-3.9-3.9-10.2-3.9-14.1,0l-30.3,30.3c-3.9,3.9-3.9,10.2,0,14.1c2,2,4.5,2.9,7.1,2.9s5.1-1,7.1-2.9l30.3-30.3
	C129.1,383.1,129.1,376.8,125.2,372.8z"/>
<path d="M302,324.7h30c5.5,0,10-4.5,10-10s-4.5-10-10-10h-30c-5.5,0-10,4.5-10,10S296.4,324.7,302,324.7z"/>
<path d="M342,347.1c0-5.5-4.5-10-10-10h-30c-5.5,0-10,4.5-10,10c0,5.5,4.5,10,10,10h30C337.5,357.1,342,352.6,342,347.1z"/>
<path d="M390,0H130c-5.5,0-10,4.5-10,10s4.5,10,10,10h260c5.5,0,10,4.5,10,10v452c0,5.5-4.5,10-10,10H30c-5.5,0-10-4.5-10-10V30
	c0-5.5,4.5-10,10-10h31c5.5,0,10-4.5,10-10S66.6,0,61,0H30C13.5,0,0,13.5,0,30v452c0,16.5,13.5,30,30,30h360c16.5,0,30-13.5,30-30
	V30C420,13.5,406.5,0,390,0z"/>
<path d="M89.8,20H90c5.5,0,10-4.5,10-10S95.6,0,90,0h-0.3c-5.5,0-10,4.5-10,10S84.2,20,89.8,20z"/>
<path d="M124.8,119.7H87.9c-5.5,0-10,4.5-10,10c0,5.5,4.5,10,10,10h36.9c5.5,0,10-4.5,10-10C134.8,124.2,130.3,119.7,124.8,119.7z"
	/>
<path d="M193.9,119.7H157c-5.5,0-10,4.5-10,10c0,5.5,4.5,10,10,10h36.9c5.5,0,10-4.5,10-10C203.9,124.2,199.4,119.7,193.9,119.7z"/>
<path d="M263,119.7h-36.9c-5.5,0-10,4.5-10,10c0,5.5,4.5,10,10,10H263c5.5,0,10-4.5,10-10C273,124.2,268.5,119.7,263,119.7z"/>
<path d="M332.1,119.7h-36.9c-5.5,0-10,4.5-10,10c0,5.5,4.5,10,10,10h36.9c5.5,0,10-4.5,10-10C342.1,124.2,337.6,119.7,332.1,119.7z"
	/>
<path d="M303.4,449.2c-5.5,0-10,4.5-10,10c0,5.5,4.5,10,10,10h0.3c5.5,0,10-4.5,10-10c0-5.5-4.5-10-10-10H303.4z"/>
</svg>
