<?xml version="1.0" encoding="utf-8"?>
<!-- Generator: Adobe Illustrator 22.1.0, SVG Export Plug-In . SVG Version: 6.00 Build 0)  -->
<svg version="1.1" id="Layer_1" xmlns="http://www.w3.org/2000/svg" xmlns:xlink="http://www.w3.org/1999/xlink" x="0px" y="0px"
	 viewBox="0 0 480 480" style="enable-background:new 0 0 480 480;" xml:space="preserve">
<style type="text/css">
	.st0{fill:#1E81CE;}
</style>
<g>
	<path class="st0" d="M30.953125,358.015625c-41.2695313-73.2539063-41.2695313-162.7460938,0-236l13.9179688,7.8711014
		c-38.5039063,68.3828125-38.5039063,151.90625,0,220.2890625L30.953125,358.015625z"/>
	<path class="st0" d="M66.390625,321.8476563c-24.5117188-51.8125-24.5117188-111.8828125,0-163.6953125l14.4023438,6.8945313
		C58.359375,212.5,58.359375,267.5,80.7929688,314.953125L66.390625,321.8476563z"/>
	<path class="st0" d="M449.03125,358.015625l-13.9179688-7.8710938c38.5039063-68.3828125,38.5039063-151.90625,0-220.2890625
		l13.9179688-7.8711014c41.2695313,73.2539139,41.2695313,162.7460938,0,236V358.015625z"/>
	<path class="st0" d="M413.5898438,321.8476563l-14.3984375-6.8945313C421.625,267.5,421.625,212.5,399.1914063,165.046875
		l14.3984375-6.8945313C438.1015625,209.9648438,438.1015625,270.0351563,413.5898438,321.8476563z"/>
	<path class="st0" d="M344.8867188-0.0000067H135.09375c-21.5859375,0.0195312-39.0820313,17.5117188-39.1015625,39.0976563
		v401.8046875C96.0117188,462.4882813,113.5078125,479.9804688,135.09375,480h209.7929688
		c21.5859375-0.0195313,39.0820313-17.5117188,39.1054688-39.0976563V39.0976486
		C383.96875,17.5117111,366.4726563,0.0195245,344.8867188-0.0000067z M111.9921875,39.0976486
		c0.0117188-12.7539063,10.3515625-23.0898438,23.1015625-23.0976563h209.7929688
		c12.7539063,0.0078115,23.0898438,10.343749,23.1054688,23.0976563v8.9023438h-256V39.0976486z M367.9921875,63.9999924v336h-256
		v-336H367.9921875z M344.8867188,464H135.09375c-12.75-0.0078125-23.0898438-10.34375-23.1015625-23.0976563V416h256v24.9023438
		C367.9765625,453.65625,357.640625,463.9921875,344.8867188,464z"/>
	<path class="st0" d="M199.9921875,432h16v16h-16V432z"/>
	<path class="st0" d="M231.9921875,432h16v16h-16V432z"/>
	<path class="st0" d="M263.9921875,432h16v16h-16V432z"/>
</g>
</svg>
