<svg xmlns="http://www.w3.org/2000/svg" viewBox="0 0 514 513" width="514" height="513">
	<defs>
		<clipPath clipPathUnits="userSpaceOnUse" id="cp1">
			<path d="M1 1L513 1L513 513L1 513Z" />
		</clipPath>
	</defs>
	<style>
		tspan { white-space:pre }
		.shp0 { fill: #fff } 
	</style>
	<g id="Page 1" clip-path="url(#cp1)">
		<path id="Path 1" class="shp0" d="M106.61,204.36c39.83,-46.82 75.48,-120.71 93.19,-160.59c3.76,-8.51 11.48,-14.6 20.62,-16.29c9.15,-1.68 18.53,1.27 25.07,7.88l31.32,31.48c22.15,-11.04 48.89,-6.69 66.4,10.8c17.41,17.68 21.71,44.46 10.7,66.7l31.36,31.52c6.58,6.61 9.5,16.03 7.8,25.21c-1.68,9.11 -7.73,16.81 -16.18,20.61c-36.61,16.25 -72.16,34.8 -106.43,55.53c18.03,13.92 35.19,28.93 51.38,44.95c5.44,5.29 8.54,12.53 8.61,20.11c0.07,7.58 -2.9,14.88 -8.24,20.26l-14.05,14.12c-5.29,5.36 -12.51,8.39 -20.05,8.39c-7.01,0.01 -13.77,-2.64 -18.91,-7.41c-44.84,-41.4 -72.64,-47.8 -72.92,-47.86c-0.35,-0.1 -0.7,-0.23 -1.03,-0.38c-0.26,-0.09 -0.51,-0.16 -0.76,-0.28c-0.85,-0.39 -1.63,-0.91 -2.31,-1.55c-0.06,-0.06 -0.14,-0.08 -0.2,-0.13l-7.86,-7.91l-7.86,7.91c-5.27,5.33 -12.46,8.33 -19.96,8.31h-0.01c-7.5,0.02 -14.69,-2.97 -19.97,-8.3l-41.73,-41.96c-10.98,-11.07 -10.98,-28.93 0,-40.01l8.75,-8.79c-5.81,-10.39 -4.5,-23.3 3.27,-32.31zM120.02,230.89v0l78.12,78.54c1.28,-1.19 2.67,-2.36 3.99,-3.55c0.99,-0.88 1.96,-1.76 2.98,-2.64c8.23,-7.14 17.24,-14.12 26.76,-20.91c0.83,-0.59 1.66,-1.18 2.5,-1.77c42.87,-28.81 88.23,-53.73 135.53,-74.46c3.35,-1.48 5.75,-4.53 6.38,-8.14c0.7,-3.67 -0.46,-7.44 -3.12,-10.07l-35.81,-35.99l-3.72,-3.74l-100.25,-100.77c-2.06,-2.12 -4.89,-3.31 -7.84,-3.31c-0.69,0 -1.37,0.06 -2.05,0.19c-3.61,0.65 -6.65,3.06 -8.1,6.42c-18.08,40.72 -54.57,116.26 -95.79,164.72c-3.95,4.46 -3.77,11.22 0.41,15.47zM289.67,79.75l24.65,24.78l26.7,26.83c4.74,-14.65 0.93,-30.73 -9.9,-41.69c-10.84,-10.86 -26.86,-14.69 -41.44,-9.92zM255.03,287.1c-13.24,8.67 -25.92,18.15 -37.98,28.4c-1.02,0.88 -2.08,1.76 -3.08,2.64c24.64,11.97 47.2,27.82 66.81,46.95c4.38,4 11.15,3.79 15.27,-0.47l14.05,-14.12c2.12,-2.14 3.3,-5.05 3.28,-8.06c-0.03,-3.02 -1.25,-5.9 -3.41,-8.01c-17.1,-17.13 -35.46,-32.95 -54.94,-47.32zM106.68,257.5c-4.38,4.41 -4.38,11.52 0,15.93l41.73,41.96c2.08,2.1 4.91,3.28 7.87,3.27h0.01c2.95,0.01 5.78,-1.17 7.86,-3.27l7.92,-7.97l-57.53,-57.83zM368.16,45.9c-0.79,-2.96 0.08,-6.12 2.27,-8.27l17.07,-17.07c3.34,-3.28 8.7,-3.26 12.01,0.05c3.31,3.31 3.33,8.67 0.05,12.01l-17.07,17.07c-2.15,2.19 -5.3,3.05 -8.27,2.27c-2.96,-0.78 -5.28,-3.1 -6.06,-6.07zM291.13,26.6v-17.07c0,-4.71 3.82,-8.53 8.53,-8.53c4.71,0 8.53,3.82 8.53,8.53v17.07c0,4.71 -3.82,8.53 -8.53,8.53c-4.71,0 -8.53,-3.82 -8.53,-8.53zM513,436.2v34.13c-0.03,23.55 -19.11,42.64 -42.67,42.67h-426.67c-23.55,-0.03 -42.64,-19.11 -42.67,-42.67v-34.13c0.01,-9.42 7.64,-17.06 17.07,-17.07v-298.67c0.02,-14.13 11.47,-25.58 25.6,-25.6h102.4c4.71,0 8.53,3.82 8.53,8.53c0,4.71 -3.82,8.53 -8.53,8.53h-102.4c-4.71,0 -8.53,3.82 -8.53,8.53v298.67h17.07v-273.07c0.01,-9.42 7.65,-17.06 17.07,-17.07h51.2c4.71,0 8.53,3.82 8.53,8.53c0,4.71 -3.82,8.53 -8.53,8.53h-51.2v273.07h375.47v-273.07h-59.73c-4.71,0 -8.53,-3.82 -8.53,-8.53c0,-4.71 3.82,-8.53 8.53,-8.53h59.73c9.42,0.01 17.05,7.65 17.07,17.07v273.07h17.07v-298.67c0,-4.71 -3.82,-8.53 -8.53,-8.53h-85.33c-4.71,0 -8.53,-3.82 -8.53,-8.53c0,-4.71 3.82,-8.53 8.53,-8.53h85.33c14.13,0.01 25.58,11.47 25.6,25.6v298.67c9.42,0.01 17.06,7.65 17.07,17.07zM495.93,453.27v-17.07h-148.32l-9.99,19.98c-4.31,8.69 -13.2,14.18 -22.9,14.15h-115.43c-9.71,0.03 -18.59,-5.45 -22.9,-14.15l-9.99,-19.98h-148.33v17.07h93.87c4.71,0 8.53,3.82 8.53,8.53c0,4.71 -3.82,8.53 -8.53,8.53h-93.87c0.01,14.13 11.47,25.58 25.6,25.6h426.67c14.13,-0.02 25.58,-11.47 25.6,-25.6h-93.87c-4.71,0 -8.53,-3.82 -8.53,-8.53c0,-4.71 3.82,-8.53 8.53,-8.53zM185.47,436.2l6.18,12.35c1.44,2.9 4.4,4.73 7.63,4.72h115.43c3.24,0.01 6.2,-1.82 7.63,-4.72l6.18,-12.35zM163.13,461.8c0,4.71 -3.82,8.53 -8.53,8.53h-8.53c-4.71,0 -8.53,-3.82 -8.53,-8.53c0,-4.71 3.82,-8.53 8.53,-8.53h8.53c4.71,0 8.53,3.82 8.53,8.53zM350.87,461.8c0,-4.71 3.82,-8.53 8.53,-8.53h8.53c4.71,0 8.53,3.82 8.53,8.53c0,4.71 -3.82,8.53 -8.53,8.53h-8.53c-4.71,0 -8.53,-3.82 -8.53,-8.53z" />
	</g>
</svg>