<?xml version="1.0" encoding="utf-8"?>
<!-- Generator: Adobe Illustrator 22.1.0, SVG Export Plug-In . SVG Version: 6.00 Build 0)  -->
<svg version="1.1" id="Layer_1" xmlns="http://www.w3.org/2000/svg" xmlns:xlink="http://www.w3.org/1999/xlink" x="0px" y="0px"
	 viewBox="0 0 512 512" style="enable-background:new 0 0 512 512;" xml:space="preserve" fill="#fff">
<path d="M386.1,280.9c-2.6,0-5.2-1-7.1-2.9l-19.5-19.5l-12.1,12.1c-2.1,2.1-5.2,3-8.1,2.2c-2.9-0.7-5.2-3-6.1-5.8l-25.6-85.3
	c-0.9-3-0.1-6.3,2.1-8.5c2.2-2.2,5.5-3.1,8.5-2.1l85.3,25.6c2.9,0.9,5.1,3.2,5.8,6.1c0.7,2.9-0.1,6-2.2,8.1l-11.5,11.5l19.5,19.5
	c3.9,3.9,3.9,10.4,0,14.3L393.3,278C391.3,279.9,388.7,280.9,386.1,280.9z M359.5,239c3,0,5.8,1.2,7.9,3.3l18.8,18.8l12.1-12.1
	l-19.8-19.8c-1.8-1.8-2.8-4.2-2.8-6.8c0-2.6,1-5,2.8-6.9l6.6-6.6l-56.5-16.9l16.9,56.5l6.2-6.2C353.7,240.1,356.5,239,359.5,239z"/>
<path d="M366.9,110.9H128c-4.7,0-8.5-3.8-8.5-8.5V59.7c0-4.7,3.8-8.5,8.5-8.5h238.9c4.7,0,8.5,3.8,8.5,8.5v42.7
	C375.5,107.1,371.6,110.9,366.9,110.9z M136.5,93.9h221.9V68.3H136.5V93.9z"/>
<path d="M230.4,204.8h-68.3c-4.7,0-8.5-3.8-8.5-8.5v-51.2c0-4.7,3.8-8.5,8.5-8.5h68.3c4.7,0,8.5,3.8,8.5,8.5v51.2
	C238.9,201,235.1,204.8,230.4,204.8z M170.7,187.7h51.2v-34.1h-51.2V187.7z"/>
<path d="M320.9,204.8h-56.4c-4.7,0-8.5-3.8-8.5-8.5v-51.2c0-4.7,3.8-8.5,8.5-8.5h68.3c4.7,0,8.5,3.8,8.5,8.5v39.2
	c0,2.7-1.3,5.2-3.4,6.8c-2.2,1.6-5,2.1-7.5,1.3l-1.8-0.5l0.6,1.9c0.8,2.6,0.3,5.4-1.3,7.5C326.1,203.5,323.6,204.8,320.9,204.8z
	 M273.1,187.7h36.4l-1.8-6.1c-0.9-3-0.1-6.3,2.1-8.5c2.2-2.2,5.5-3,8.5-2.1l6,1.8v-19.2h-51.2V187.7z"/>
<path d="M331.1,238.9H128c-4.7,0-8.5-3.8-8.5-8.5V59.7c0-4.7,3.8-8.5,8.5-8.5h238.9c4.7,0,8.5,3.8,8.5,8.5v134.8
	c0,2.7-1.3,5.2-3.4,6.9c-2.2,1.6-5,2.1-7.5,1.3l-36-10.8l10.8,36c0.8,2.6,0.3,5.4-1.3,7.5C336.4,237.7,333.8,238.9,331.1,238.9z
	 M136.5,221.9h183.1l-12.1-40.2c-0.9-3-0.1-6.3,2.1-8.5c2.2-2.2,5.5-3.1,8.5-2.1l40.2,12V68.3H136.5L136.5,221.9z"/>
<path d="M476.4,418.1H35.6C16,418.1,0,402.2,0,382.5V35.6C0,16,16,0,35.6,0h440.7C496,0,512,16,512,35.6v346.9
	C512,402.2,496,418.1,476.4,418.1z M35.6,17.1c-10.2,0-18.6,8.3-18.6,18.6v346.9c0,10.2,8.3,18.6,18.6,18.6h440.7
	c10.2,0,18.6-8.3,18.6-18.6V35.6c0-10.2-8.3-18.6-18.6-18.6H35.6z"/>
<path d="M476.4,418.1H35.6C16,418.1,0,402.2,0,382.5v-83.8h512v83.8C512,402.2,496,418.1,476.4,418.1z M17.1,315.7v66.8
	c0,10.2,8.3,18.6,18.6,18.6h440.7c10.2,0,18.6-8.3,18.6-18.6v-66.8H17.1z"/>
<path d="M273.1,384h-34.1c-4.7,0-8.5-3.8-8.5-8.5v-34.1c0-4.7,3.8-8.5,8.5-8.5h34.1c4.7,0,8.5,3.8,8.5,8.5v34.1
	C281.6,380.2,277.8,384,273.1,384z M247.5,366.9h17.1v-17.1h-17.1V366.9z"/>
<path d="M384,512H128c-4.7,0-8.5-3.8-8.5-8.5v-17.1c0-14.1,11.5-25.6,25.6-25.6H367c14.1,0,25.6,11.5,25.6,25.6v17.1
	C392.5,508.2,388.7,512,384,512z M136.5,494.9h238.9v-8.6c0-4.7-3.8-8.5-8.5-8.5H145.1c-4.7,0-8.5,3.8-8.5,8.5V494.9z"/>
<path d="M349.9,477.9H162.1c-4.7,0-8.5-3.8-8.5-8.5c0-4.7,3.8-8.5,8.5-8.5c30.3,0,42.7-14.8,42.7-51.2c0-4.7,3.8-8.5,8.5-8.5h85.3
	c4.7,0,8.5,3.8,8.5,8.5c0,36.4,12.4,51.2,42.7,51.2c4.7,0,8.5,3.8,8.5,8.5C358.4,474.1,354.6,477.9,349.9,477.9z M206.8,460.8h98.4
	c-8.7-9.9-13.7-24.2-14.8-42.7h-68.8C220.5,436.6,215.5,450.9,206.8,460.8z"/>
</svg>
