<svg xmlns="http://www.w3.org/2000/svg" viewBox="0 0 513 509" width="513" height="509">
	<defs>
		<clipPath clipPathUnits="userSpaceOnUse" id="cp1">
			<path d="M0 1L512 1L512 509L0 509Z" />
		</clipPath>
	</defs>
	<style>
		tspan { white-space:pre }
		.shp0 { fill: #fff } 
	</style>
	<g id="Page 1" clip-path="url(#cp1)">
		<path id="Path 1" class="shp0" d="M512,74.14v185.39c0,4.15 -3.36,7.5 -7.5,7.5c-4.14,0 -7.5,-3.36 -7.5,-7.5v-185.39c0,-4.14 -3.37,-7.5 -7.5,-7.5h-116.82l-44.1,40.36c1.56,3.51 2.43,7.4 2.43,11.48c0,15.69 -12.77,28.46 -28.46,28.46c-15.69,0 -28.46,-12.77 -28.46,-28.46c0,-1.94 0.19,-3.83 0.57,-5.66l-51.09,-30.35c-5.18,5.4 -12.46,8.77 -20.52,8.77c-5.96,0 -11.5,-1.85 -16.08,-4.99l-63.02,57.1c1.89,3.8 2.95,8.08 2.95,12.61c0,15.69 -12.77,28.46 -28.46,28.46c-15.69,0 -28.46,-12.77 -28.46,-28.46c0,-15.69 12.77,-28.46 28.46,-28.46c5.73,0 11.07,1.71 15.54,4.64l63.28,-57.32c-1.19,-2.54 -2,-5.28 -2.4,-8.15h-152.33c-4.14,0 -7.5,3.37 -7.5,7.5v55.41c0,4.14 -3.36,7.5 -7.5,7.5c-4.14,0 -7.5,-3.36 -7.5,-7.5v-55.41c0,-12.41 10.1,-22.51 22.51,-22.51h154.32c4.34,-10.18 14.45,-17.33 26.19,-17.33c11.74,0 21.85,7.15 26.19,17.33h137.62l10.03,-9.18c-2.1,-3.97 -3.3,-8.48 -3.3,-13.28c0,-15.69 12.77,-28.46 28.46,-28.46c15.69,0 28.46,12.77 28.46,28.46c0,9.12 -4.32,17.25 -11.01,22.46h70.01c12.41,0 22.51,10.1 22.51,22.51zM350.44,66.64h-119.22c-0.12,0.89 -0.29,1.77 -0.49,2.64l50.7,30.11c5.21,-5.76 12.74,-9.38 21.1,-9.38c6.17,0 11.88,1.98 16.55,5.33zM315.99,118.47c0,-7.42 -6.04,-13.46 -13.46,-13.46c-7.42,0 -13.46,6.04 -13.46,13.46c0,7.42 6.04,13.46 13.46,13.46c7.42,0 13.46,-6.04 13.46,-13.46zM216.48,62.77c0,-7.42 -6.04,-13.46 -13.46,-13.46c-7.42,0 -13.46,6.04 -13.46,13.46c0,7.42 6.04,13.46 13.46,13.46c7.42,0 13.46,-6.04 13.46,-13.46zM111.88,155.94c0,-7.42 -6.04,-13.46 -13.46,-13.46c-7.42,0 -13.46,6.04 -13.46,13.46c0,7.42 6.04,13.46 13.46,13.46c7.42,0 13.46,-6.04 13.46,-13.46zM415.49,29.17c0,-7.42 -6.04,-13.46 -13.46,-13.46c-7.42,0 -13.46,6.04 -13.46,13.46c0,7.42 6.04,13.46 13.46,13.46c7.42,0 13.46,-6.04 13.46,-13.46zM512,289.54v63.94c0,0.05 -0.01,0.1 -0.01,0.14c0,0.05 0.01,54.2 0.01,54.25c0,12.41 -10.1,22.51 -22.51,22.51h-164.32l4.28,37.28h35.62c4.14,0 7.5,3.36 7.5,7.5v26.33c0,4.15 -3.36,7.5 -7.5,7.5h-218.14c-4.14,0 -7.5,-3.36 -7.5,-7.5v-26.33c0,-4.14 3.36,-7.5 7.5,-7.5h35.62l4.28,-37.28h-164.32c-12.41,0 -22.51,-10.1 -22.51,-22.51v-248.32c0,-4.15 3.36,-7.5 7.5,-7.5c4.14,0 7.5,3.36 7.5,7.5v186.42h56.79v-99.86c0,-4.15 3.36,-7.5 7.5,-7.5h56.44c4.14,0 7.5,3.36 7.5,7.5v99.86h28.06v-63.05c0,-4.15 3.36,-7.5 7.5,-7.5c4.14,0 7.5,3.36 7.5,7.5v63.05h41.44v-127.54h-41.44v34.48c0,4.15 -3.36,7.5 -7.5,7.5c-4.14,0 -7.5,-3.36 -7.5,-7.5v-103.65c0,-4.15 3.36,-7.5 7.5,-7.5h56.44c4.14,0 7.5,3.36 7.5,7.5v196.7h28.06v-99.86c0,-4.15 3.36,-7.5 7.5,-7.5h56.44c4.14,0 7.5,3.36 7.5,7.5v99.86h28.06v-239.39c0,-4.15 3.36,-7.5 7.5,-7.5h56.44c4.14,0 7.5,3.36 7.5,7.5v239.39h55.24v-56.44c0,-4.14 3.36,-7.5 7.5,-7.5c4.14,0 7.5,3.36 7.5,7.5zM314.35,467.66l-4.28,-37.28h-108.13l-4.28,37.28zM357.57,482.67h-203.14v11.32h203.14zM86.81,345.98h41.43v-30.69h-41.43zM86.81,300.28h41.43v-15.61h-41.43zM86.81,269.66h41.43v-16.04h-41.43zM186.31,203.44h41.44v-15.61h-41.44zM186.31,172.82h41.44v-16.04h-41.44zM285.81,345.98h41.44v-30.69h-41.44zM285.81,300.28h41.44v-15.61h-41.44zM285.81,269.66h41.44v-16.04h-41.44zM385.32,345.98h41.44v-170.22h-41.44zM385.32,160.75h41.44v-15.61h-41.44zM385.32,130.13h41.44v-16.04h-41.44zM497,407.88h0v-46.6h-481.99v46.6c0,4.14 3.37,7.5 7.5,7.5h466.99c4.14,0 7.5,-3.36 7.5,-7.5z" />
	</g>
</svg>