<?xml version="1.0" encoding="utf-8"?><svg xmlns="http://www.w3.org/2000/svg" xmlns:xlink="http://www.w3.org/1999/xlink"><symbol viewBox="0 0 270.4 98.1" id="iconSheer"><path d="M175.1 51.8c.2 1.2.3 2.1.5 3 2 8.4 8.6 14 17.2 14.7 7.6.6 13.6-2.3 18-8.5 2.2-3 5.7-3.5 8.5-1.1 1.6 1.4 1.8 3.2.5 4.9-.7.9-1.4 1.8-2.1 2.8-2.9 4-6.7 6.7-11.4 8.3-7.6 2.6-15.2 3-22.7.2-10.1-3.7-16.1-11.1-17.8-21.7-1-6.5-.4-13 2.6-18.9 4.3-8.4 11.1-13.6 20.5-15.1 6.2-1 12.4-.4 18.2 2.4 8.2 3.9 13.2 10.5 15.1 19.3.5 2.4.7 4.9.9 7.3.2 1.5-.5 2.2-2.1 2.3h-44.1c-.4.1-.9.1-1.8.1zm38.3-9.2c-1.2-7.9-10.7-14.7-19.4-14.2-9.1.5-18.2 7.5-18.5 14.2h37.9zm-101 9c.1.8.2 1.4.3 2 1.7 9.3 9.3 15.7 18.7 15.9 7.1.1 12.7-2.8 16.8-8.6 2.2-3.1 6.1-3.4 8.8-.7 1.3 1.4 1.5 3 .3 4.6-.5.8-1.1 1.5-1.7 2.2-3.1 4.5-7.3 7.4-12.5 9.1-7.6 2.5-15.2 2.7-22.5-.2-10.6-4.1-16.4-12.1-17.6-23.3-.6-5.4-.1-10.7 2.2-15.6 4.3-9.4 11.4-15.2 21.8-16.6 5.5-.7 11-.3 16.1 1.8 9.2 3.8 14.6 10.9 16.6 20.6.4 2.2.6 4.5.7 6.7.1 1.8-.3 2.2-2.2 2.2h-43.5c-.7-.1-1.4-.1-2.3-.1zm38.4-9.1c-1.2-7.8-10.4-14.4-19.4-14.2-8.8.2-17.9 7.2-18.6 14.2h38zm101 13.5c.7.6 1.1 1 1.5 1.4 4.9 4.2 9.8 8.3 14.6 12.5.3.3.7.6 1 .9 1.8 1.8 2 4.4.3 6.2-1.6 1.8-4.2 2.1-6.1.5-3.4-2.8-6.7-5.7-10-8.5-4.8-4.1-9.5-8.1-14.3-12.2-.4-.4-.9-.7-1.6-1.3 0 1-.1 1.6-.1 2.3v36.1c-.2 2.5-2.1 4.3-4.6 4.2-2.4-.1-4.1-1.9-4.2-4.4V21.9c0-1.6.2-1.9 1.7-1.9 2.1-.1 4.2-.1 6.2-.1 5 0 10.1.2 15.1-.1 8.4-.4 17.8 6.4 18.7 16.3.8 8.9-5.2 17.3-14.3 19.1-1.1.2-2.3.5-3.9.8zm-15.3-6.9c.5.1.9.1 1.2.1h12.6c1.2 0 2.4-.1 3.6-.5 3.9-1.2 7-3.5 8-7.7 1.7-7.1-3.6-13.7-10.9-13.7h-13c-.5 0-1 .1-1.5.1v21.7zM88.5 52H63.9c0 .7-.1 1.4-.1 2v18.9c0 .8 0 1.6-.2 2.3-.6 1.9-2.6 3.1-4.5 3-2.1-.2-3.8-1.8-4.1-3.9-.1-.5 0-1 0-1.5V5.4c0-.9.1-1.8.4-2.6.6-2 2.6-3 4.7-2.8 1.9.3 3.5 2 3.7 3.9.1.6 0 1.2 0 1.8v34.7c0 .7.1 1.4.1 2 1.5.4 22.9.4 24.5 0 0-.5.1-1.1.1-1.7V23.9c.2-2.3 1.9-4 4.2-4.1 2.3-.1 4.3 1.6 4.6 3.9.1.5 0 1 0 1.5v48.9c-.3 2.3-2.3 4.1-4.5 4-2.3-.1-4.1-1.9-4.3-4.2V52zM25 78.3c-5.9-.1-11.4-1.4-16.5-4.4-2.2-1.3-4.2-2.9-5.8-4.8-.8-1-1.6-2.1-2.2-3.3-1-1.9-.6-3.4.9-4.9 1.7-1.6 4.1-2.3 6.4-.7C9 61 10 62 10.9 63c.9.9 1.6 1.9 2.5 2.8 2.7 2.7 6 4.2 9.8 4.6 3.5.4 7 .3 10.4-.9 1.4-.5 2.8-1.2 4-2.1 2.9-2.2 3-5.9.2-8.2-1.3-1.1-2.9-1.9-4.5-2.6-4-1.7-8.1-2.9-12.3-4-3.4-.8-6.7-1.9-10.1-2.9-1.3-.4-2.5-1.1-3.7-1.7-3.2-1.7-5-4.4-5.5-7.9-1-7.1 1.7-12.8 8.1-15.9 9.8-4.8 19.7-5.2 29.4.4 1.8 1 3.5 2.5 5.1 3.9 1.2 1 2 2.5 2.5 4 .8 2.6-.5 3.9-2.8 4.4-2 .4-3.8-.2-5.2-1.7-.3-.3-.5-.6-.7-.9-2.3-3.4-5.6-5.3-9.6-6.1-4-.7-8-.6-11.8.9-1.4.5-2.8 1.3-3.9 2.3-2.7 2.3-2.7 5.4-.1 7.8 1.7 1.6 3.7 2.5 5.9 3 4.8 1.2 9.7 2.4 14.5 3.6 3.1.8 6.1 1.8 8.9 3.4 3.6 1.9 6.2 4.7 7.1 8.8 1.1 5 0 9.4-3.9 13-4.4 4-9.5 6.3-15.4 7-1.7.1-3.3.2-4.8.3z"/></symbol><symbol viewBox="0 0 512 512" id="serv-1" xmlns="http://www.w3.org/2000/svg"><path class="bst0" d="M120 305.2c3.3-2.6 176.8-136.8 166-128.4 3 2.3 177 137 166 128.4V60H241v121H120v124.2zM271 361h30v60h-30z"/><path class="bst0" d="M128.8 151H211V68.8zM361 421V301h35.4L286 215.2 175.6 301H211v120h30v-90h90v90h30zm-60-120h-30v-30h30v30z"/><path class="bst0" d="M120 512h332V331h-61v120H181V331h-61z"/><path class="bst0" d="M181 56.4L207.4 30H482v421h30V0H181zM90 421H60v-90h30v-30H60v-90h30v-30H0v30h30v90H0v30h30v90H0v30h90z"/></symbol><symbol viewBox="0 0 60 60" id="serv-2" xmlns="http://www.w3.org/2000/svg"><path d="M8 7h2a1 1 0 001-1V5a1 1 0 011-1h6a1 1 0 011 1v1a1 1 0 001 1h2a1 1 0 001-1V5a5 5 0 00-5-5h-6a5 5 0 00-5 5v1a1 1 0 001 1z"/><circle cx="15.002" cy="19" r="4"/><path d="M7 32h16a2 2 0 002-2v-1h-6a1 1 0 010-2h6V11a2 2 0 00-2-2H7a2.006 2.006 0 00-2 2v16h6a1 1 0 010 2H5v1a2.006 2.006 0 002 2zm2-13a6 6 0 1112 0 6 6 0 01-12 0zm4 35a1 1 0 001 1h2a1 1 0 001-1V34h-4zM.058 58.67A1 1 0 001 60h2.12a1 1 0 00.95-.67L12 36.43V34H8.6zM21.4 34H18v2.43l7.93 22.9a1 1 0 00.95.67H29a1 1 0 00.94-1.33zm37.683 18.052c.367-.59.4-1.327.088-1.947L57.118 46h.264a2 2 0 001.789-2.9l-9-18a1.987 1.987 0 00-1.789-1.1H29a1 1 0 000 2h11.522c.326.395.462.914.372 1.418a1.822 1.822 0 01-1.3 1.207c-.7.219-1.415.386-2.14.5-1.079.154-2.134.44-3.143.851a3.807 3.807 0 00-2.383 3.036 3.986 3.986 0 001.772 3.619c2.12 1.572 4.641 1.551 7.1 1.545a16.624 16.624 0 013.8.253c2.667.624 5.228 2.571 5.413 5.571H28.79a1 1 0 000 2h26.092l2.5 5H31.21a1 1 0 000 2h23.672l2.5 5H32.89a1 1 0 000 2h24.492a2 2 0 001.789-2.9L57.118 53h.264a1.986 1.986 0 001.701-.948zM45.051 36.481a18.388 18.388 0 00-4.262-.3c-2.216.009-4.31.024-5.9-1.152a2.053 2.053 0 01-.979-1.8 1.87 1.87 0 011.218-1.429c.863-.342 1.764-.58 2.684-.709.82-.13 1.63-.32 2.423-.569a3.791 3.791 0 002.6-2.623 3.455 3.455 0 00-.081-1.9h5.627l9 18H52.01c-.181-3.559-2.9-6.569-6.959-7.518z"/></symbol><symbol viewBox="0 0 512 512" id="serv-3" xmlns="http://www.w3.org/2000/svg"><path class="dst0" d="M384 477.9H128c-4.7 0-8.5 3.8-8.5 8.5v8.5c0 9.4 7.6 17.1 17.1 17.1h238.9c9.4 0 17.1-7.6 17.1-17.1v-8.5c-.1-4.7-3.9-8.5-8.6-8.5zm-221.9-17.1h187.7c0-28.3-22.9-51.2-51.2-51.2h-85.3c-28.2 0-51.2 22.9-51.2 51.2zm111-375.5V17.1c0-4.5-1.8-8.9-5-12-3.2-3.2-7.5-5.1-12-5-9.4 0-17 7.7-17.1 17.1v375.5h34.1V85.3zm-247.5 0h35.2c6.1 6 13.6 10.5 21.7 13.2L20.1 238.9h18.7l55.1-124.1L149 238.9h18.7L105.5 99c8.4-2.5 15.9-7.2 21.8-13.7h94.5V51.2H119.5c-5.4 0-10.4 2.5-13.7 6.8-2.3 3.1-6.8 8.3-10.9 8.4h-.1c-5.2-1.2-9.7-4.1-12.9-8.4-3.2-4.3-8.3-6.8-13.7-6.8H25.6c-9.4 0-17.1 7.6-17.1 17.1s7.7 17 17.1 17zM406.5 99l-62.2 139.9H363l55.1-124.1 55.1 124.1h18.7L429.6 98.5c8.1-2.7 15.5-7.2 21.7-13.2h35.2c9.4 0 17.1-7.6 17.1-17.1s-7.6-17.1-17.1-17.1h-42.7c-5.4 0-10.4 2.5-13.7 6.8-3.2 4.2-7.7 7.2-12.9 8.4h-.1c-4.1-.1-8.6-5.3-10.9-8.4-3.2-4.3-8.3-6.8-13.7-6.8H290.1v34.1h94.5c6 6.6 13.5 11.3 21.9 13.8zM179.2 298.7v-34.1c0-4.7-3.8-8.5-8.5-8.5H17.1c-4.7 0-8.5 3.8-8.5 8.5v34.1c0 11.3 4.5 22.2 12.5 30.2s18.9 12.5 30.2 12.5h85.3c23.5-.1 42.6-19.2 42.6-42.7zM494.9 256H341.3c-4.7 0-8.5 3.8-8.5 8.5v34.1c0 23.6 19.1 42.7 42.7 42.7h85.3c23.6 0 42.7-19.1 42.7-42.7v-34.1c0-4.7-3.9-8.5-8.6-8.5z"/></symbol><symbol viewBox="0 0 682 682" id="serv-4" xmlns="http://www.w3.org/2000/svg"><path class="est0" d="M553.3 370.3V414c0 19.8-16.1 36-36 36h-56.6c-19.8 0-36-16.1-36-36v-43.7H254.1V414c0 19.8-16.1 36-36 36h-56.6c-19.8 0-36-16.1-36-36v-43.7H21v218c0 24.6 20 44.5 44.5 44.5h550.3c24.6 0 44.5-20 44.5-44.5v-218h-107zm-37.4-54.8h-53.7v97h53.7v-97zm99.9-155.8H65.5c-24.6 0-44.5 20-44.5 44.5v128.7h104.5V314c0-19.8 16.1-36 36-36h56.6c19.8 0 36 16.1 36 36v18.8h170.6V314c0-19.8 16.1-36 36-36h56.6c19.8 0 36 16.1 36 36v18.8h107V204.2c.1-24.6-19.9-44.5-44.5-44.5zM163 315.5v97h53.7v-97H163zm56.7-193.3V93.4c0-5.5 4.6-10 10.2-10H449c5.6 0 10.2 4.5 10.2 10v28.8h37.5V93.4c0-26.2-21.4-47.5-47.6-47.5H229.8c-26.3 0-47.6 21.3-47.6 47.5v28.8h37.5z"/></symbol><symbol viewBox="0 0 512 512" id="serv-5" xmlns="http://www.w3.org/2000/svg"><path class="fst0" d="M501.5 450.1l-33.4-33.4c-6.5-6.5-17.1-6.5-23.6 0s-6.5 17.1 0 23.6l4.9 4.9H129.3l4.9-4.9c6.5-6.5 6.5-17.1 0-23.6s-17.1-6.5-23.6 0l-33.4 33.4c-3.3 3.3-4.9 7.7-4.9 11.8 0 4.2 1.7 8.6 4.9 11.8l33.4 33.4c6.5 6.5 17.1 6.5 23.6 0s6.5-17.1 0-23.6l-4.9-4.9h320.1l-4.9 4.9c-6.5 6.5-6.5 17.1 0 23.6s17.1 6.5 23.6 0l33.4-33.4c3.3-3.3 4.9-7.7 4.9-11.8 0-4.3-1.7-8.6-4.9-11.8zM77.2 349.9l-4.9 4.9V57l4.9 4.9c6.5 6.5 17.1 6.5 23.6 0s6.5-17.1 0-23.6L67.5 4.9c-6.5-6.5-17.1-6.5-23.6 0L10.5 38.3C4 44.8 4 55.4 10.5 61.9s17.1 6.5 23.6 0L39 57v297.8l-4.9-4.9c-6.5-6.5-17.1-6.5-23.6 0s-6.5 17.1 0 23.6l33.4 33.4c6.5 6.5 17.1 6.5 23.6 0l33.4-33.4c6.5-6.5 6.5-17.1 0-23.6-6.6-6.5-17.1-6.5-23.7 0zM423 133.6h83.5V16.7C506.4 7.5 499 0 489.7 0H261.6v133.6H345c9.2 0 16.7 7.5 16.7 16.7S354.2 167 345 167h-83.5v50c0 9.2-7.5 16.7-16.7 16.7s-16.7-7.5-16.7-16.7V0h-72.3c-9.2 0-16.7 7.5-16.7 16.7v345c0 9.2 7.5 16.7 16.7 16.7h72.3V295c0-9.2 7.5-16.7 16.7-16.7s16.7 7.5 16.7 16.7v83.5h228.2c9.2 0 16.7-7.5 16.7-16.7V167H423c-9.2 0-16.7-7.5-16.7-16.7s7.4-16.7 16.7-16.7z"/></symbol><symbol viewBox="0 0 512 512" id="serv-6" xmlns="http://www.w3.org/2000/svg"><path class="gst0" d="M499.8 63.8l-160.7-30c-2.4-.4-4.9-.3-7.2.4L175.2 82.9l-156.6-39c-4.5-1.1-9.2-.1-12.9 2.7C2.1 49.5 0 53.9 0 58.5v365c0 6.9 4.7 12.9 11.4 14.6l160.7 40c1.2.3 2.4.4 3.6.4 1.5 0 3-.2 4.5-.7l157.1-48.9 157 29.3c4.4.8 8.9-.4 12.3-3.2 3.4-2.9 5.4-7.1 5.4-11.5v-365c0-7.2-5.1-13.4-12.2-14.7zM422 236.9v106.6c0 4.3-1.9 8.5-5.2 11.3-3.3 2.8-7.6 4.1-11.9 3.5l-67.4-9.5-157.9 48.7c-.1 0-.2.1-.4.1-.2.1-.4.1-.6.2-.2 0-.3.1-.5.1s-.4.1-.6.1c-.2 0-.4 0-.6.1-.2 0-.4 0-.5.1h-2.2c-.2 0-.3 0-.5-.1-.2 0-.4 0-.6-.1-.2 0-.4-.1-.6-.1-.2 0-.4-.1-.5-.1-.2 0-.4-.1-.6-.1-.1 0-.2 0-.3-.1l-4.5-1.3c-8-2.3-12.5-10.6-10.2-18.6 2.3-8 10.6-12.5 18.6-10.2l.2.1 100.3-31v-94.7c0-6.6 4.3-12.4 10.6-14.3l25-7.6c7.9-2.4 16.3 2.1 18.7 10s-2.1 16.3-10 18.7l-14.4 4.4v74.3l26.5-8.2c.3-.1.7-.2 1-.2.2 0 .4-.1.6-.2.3 0 .5-.1.8-.1.3 0 .6-.1.9-.1h1.6c.5 0 1.1.1 1.6.1l53.6 7.6v-76l-16.6-1.9c-8.2-.9-14.1-8.4-13.2-16.6.9-8.2 8.4-14.1 16.6-13.2l13.2 1.5V153l-54.5-7.7L236 176.8v21.7c0 8.3-6.7 15-15 15s-15-6.7-15-15v-12.3l-26.6 8.1c-.2.1-.3.1-.5.1s-.3.1-.5.1-.4.1-.6.1c-.2 0-.3.1-.5.1s-.4 0-.6.1c-.2 0-.3 0-.5.1h-2.1c-.2 0-.4 0-.7-.1h-.4c-.3 0-.5-.1-.8-.1-.1 0-.2 0-.3-.1-.4-.1-.7-.2-1.1-.3L120 179.9v84.8l55.5 15.7L206 271v-12.4c0-8.3 6.7-15 15-15s15 6.7 15 15V282c0 6.6-4.3 12.4-10.6 14.3l-45.3 14c-1.4.4-2.9.7-4.4.7-1.4 0-2.7-.2-4.1-.6L120 295.8v56.4l4.3 1.2c8 2.3 12.5 10.6 10.2 18.6-2.3 8-10.6 12.5-18.6 10.2l-15.1-4.4C94.4 376 90 370.2 90 363.5V160c0-4.7 2.2-9.1 6-12 3.8-2.8 8.6-3.7 13.2-2.4l65.7 18.8L332 115.7c2.1-.7 4.4-.8 6.5-.5l70.7 10c7.4 1 12.9 7.4 12.9 14.9l-.1 96.8z"/></symbol><symbol viewBox="0 0 512 512" id="serv-7" xmlns="http://www.w3.org/2000/svg"><path class="hst0" d="M511.4 251.8l-52.6-180C456.9 65.4 451 61 444.4 61H195.3V30c8.3 0 15-6.7 15-15s-6.7-15-15-15h-90c-8.3 0-15 6.7-15 15s6.7 15 15 15v31H67.6c-6.7 0-12.5 4.4-14.4 10.8L.6 251.8C-.7 256.3.2 261.2 3 265c2.8 3.8 7.3 6 12 6h482c4.7 0 9.2-2.2 12-6 2.8-3.8 3.7-8.7 2.4-13.2zM165.3 61h-30V30h30v31zM497 431h-26V301H41v130H15c-8.3 0-15 6.7-15 15v51c0 8.3 6.7 15 15 15h482c8.3 0 15-6.7 15-15v-51c0-8.3-6.7-15-15-15zm-286 0H91v-85c0-8.3 6.7-15 15-15h90c8.3 0 15 6.7 15 15v85zm210 0H241v-85c0-8.3 6.7-15 15-15h150c8.3 0 15 6.7 15 15v85z"/><path class="hst0" d="M271 351h45v60h-45zm75 0h45v60h-45z"/></symbol></svg>