<svg xmlns="http://www.w3.org/2000/svg" viewBox="0 0 512 512" width="512" height="512">
	<defs>
		<clipPath clipPathUnits="userSpaceOnUse" id="cp1">
			<path d="M0 0L512 0L512 512L0 512Z" />
		</clipPath>
	</defs>
	<style>
		tspan { white-space:pre }
		.shp0 { fill: #fff } 
	</style>
	<g id="Page 1" clip-path="url(#cp1)">
		<path id="Path 1" class="shp0" d="M512,218.75v283.25c0,5.52 -4.48,10 -10,10h-472c-16.54,0 -30,-13.46 -30,-30v-452c0,-16.54 13.46,-30 30,-30h267.98c2.65,0 5.2,1.05 7.07,2.93l96,96c1.88,1.88 2.93,4.42 2.93,7.07v133c0,5.52 -4.48,10 -10,10c-5.52,0 -10,-4.48 -10,-10v-123h-66c-16.54,0 -30,-13.46 -30,-30v-66h-257.98c-5.51,0 -10,4.49 -10,10v452c0,5.51 4.49,10 10,10h86v-79.63c0,-5.52 4.48,-10 10,-10h64c5.52,0 10,4.48 10,10v79.63h20v-137c0,-5.52 4.48,-10 10,-10h64c5.52,0 10,4.48 10,10v137h20v-207c0,-5.52 4.48,-10 10,-10h64c5.52,0 10,4.48 10,10v207h20v-147.75c0,-5.52 4.48,-10 10,-10c5.52,0 10,4.48 10,10v147.75h44v-263.25h-44v40.5c0,5.52 -4.48,10 -10,10c-5.52,0 -10,-4.48 -10,-10v-50.5c0,-5.52 4.48,-10 10,-10h64c5.52,0 10,4.48 10,10zM284,365h-44v127h44zM180,422.37h-44v69.63h44zM307.97,86c0,5.51 4.48,10 10,10h51.86l-61.86,-61.86zM388,295h-44v197h44zM448,304.89c0,2.63 -1.07,5.21 -2.93,7.07c-1.86,1.86 -4.44,2.93 -7.07,2.93c-2.63,0 -5.21,-1.07 -7.07,-2.93c-1.86,-1.86 -2.93,-4.44 -2.93,-7.07c0,-2.63 1.07,-5.21 2.93,-7.07c1.86,-1.87 4.44,-2.93 7.07,-2.93c2.63,0 5.21,1.06 7.07,2.93c1.86,1.86 2.93,4.44 2.93,7.07zM265,174.15c0,5.52 -4.48,10 -10,10h-17.99c-5,46.03 -44.1,81.98 -91.44,81.98c-50.71,0 -91.98,-41.26 -91.98,-91.98c0,-47.34 35.94,-86.44 81.98,-91.44v-17.99c0,-5.52 4.48,-10 10,-10c65.85,0 119.42,53.57 119.42,119.42zM216.86,184.15h-71.28c-5.52,0 -10,-4.48 -10,-10v-71.28c-34.97,4.88 -61.98,34.99 -61.98,71.28c0,39.69 32.29,71.98 71.98,71.98c36.29,0 66.4,-27.01 71.28,-61.98zM244.5,164.15c-4.7,-46.85 -42.07,-84.22 -88.92,-88.92v88.92zM265,304.25c0,5.52 -4.48,10 -10,10h-191c-5.52,0 -10,-4.48 -10,-10c0,-5.52 4.48,-10 10,-10h191c5.52,0 10,4.48 10,10zM138,352.5c0,5.52 -4.48,10 -10,10h-64c-5.52,0 -10,-4.48 -10,-10c0,-5.52 4.48,-10 10,-10h64c5.52,0 10,4.48 10,10zM188.08,352.5c0,2.63 -1.07,5.21 -2.93,7.07c-1.86,1.86 -4.44,2.93 -7.07,2.93c-2.64,0 -5.21,-1.07 -7.07,-2.93c-1.87,-1.86 -2.93,-4.44 -2.93,-7.07c0,-2.63 1.06,-5.21 2.93,-7.07c1.86,-1.86 4.43,-2.93 7.07,-2.93c2.63,0 5.21,1.07 7.07,2.93c1.86,1.86 2.93,4.44 2.93,7.07z" />
	</g>
</svg>