<?xml version="1.0" encoding="utf-8"?>
<!-- Generator: Adobe Illustrator 22.1.0, SVG Export Plug-In . SVG Version: 6.00 Build 0)  -->
<svg version="1.1" id="Layer_1" xmlns="http://www.w3.org/2000/svg" xmlns:xlink="http://www.w3.org/1999/xlink" x="0px" y="0px"
	 viewBox="0 0 162 210.8" style="enable-background:new 0 0 162 210.8;" xml:space="preserve">
<style type="text/css">
	.st0{fill-rule:evenodd;clip-rule:evenodd;fill:#FFFFFF;}
	.st1{fill-rule:evenodd;clip-rule:evenodd;fill:#00223A;}
	.st2{fill-rule:evenodd;clip-rule:evenodd;fill:#0265B2;}
	.st3{fill:#6C7A89;}
	.st4{fill:#EC644B;}
	.st5{opacity:0.5;fill:#FFFFFF;}
	.st6{fill:#DADFE1;}
	.st7{opacity:0.5;fill:#DADFE1;}
	.st8{fill:#FFFFFF;}
	.st9{fill:#BDC3C7;}
</style>
<path class="st0" d="M77.9,209.4c-19.7-9.1-39.4-18-58.5-28.3C0.8,171,1.4,154.3,0.6,135.5c-1.3-29.6,0-59.3,0-88.9v-5.2l4.8-1.8
	C19,34.5,32.9,29.1,46.9,25.1c10.5-3,21-5.1,32-5.3c11.4-0.1,22.4,1.9,33.4,4.9c14.9,4.1,29.7,9.5,44.2,14.8l4.9,1.8v5.3
	c0,29.6,1.3,59.3,0,88.9c-0.8,18.8-0.2,35.5-18.8,45.5c-19.1,10.3-38.8,19.2-58.5,28.3l-3.1,1.5L77.9,209.4L77.9,209.4z"/>
<path class="st1" d="M8.1,46.6c0,29.8-1.3,59.5,0,88.6c0.9,21.6,1.1,31.9,14.8,39.3c18.6,10,37.4,18.6,58.1,28.1
	c20.7-9.5,39.5-18.1,58.1-28.1c13.7-7.4,13.9-17.7,14.8-39.3c1.3-29.1,0-58.7,0-88.6C83.3,21,76,20.8,8.1,46.6L8.1,46.6z"/>
<path class="st0" d="M81,152.7c24.7,0,47.8,5.1,67.3,14c-2.1,3-5,5.6-9.2,7.8c-18.6,10-37.4,18.6-58.1,28.1
	c-20.7-9.5-39.5-18.1-58.1-28.1c-4.2-2.3-7.1-4.8-9.2-7.8C33.2,157.8,56.3,152.7,81,152.7L81,152.7z"/>
<path class="st2" d="M81,159.5c22.8,0,44.1,4.5,62.3,12.3c-1.2,0.9-2.6,1.8-4.2,2.7c-18.6,10-37.4,18.6-58.1,28.1
	c-20.7-9.5-39.5-18.1-58.1-28.1c-1.6-0.8-3-1.7-4.2-2.7C36.9,164,58.2,159.5,81,159.5L81,159.5z"/>
<polygon class="st0" points="17,59.5 18.1,62.1 20.8,63.3 18.2,64.4 17,67.1 15.9,64.5 13.2,63.3 15.8,62.2 17,59.5 "/>
<polygon class="st0" points="19.7,126.9 20.8,129.5 23.5,130.7 20.9,131.8 19.7,134.4 18.6,131.8 15.9,130.7 18.5,129.6 19.7,126.9 
	"/>
<polygon class="st0" points="135.9,92.9 137,95.5 139.7,96.7 137.1,97.8 135.9,100.4 134.8,97.8 132.1,96.7 134.7,95.6 135.9,92.9 
	"/>
<polygon class="st0" points="143.1,58.2 143.8,59.8 145.4,60.5 143.8,61.2 143.1,62.8 142.4,61.2 140.8,60.5 142.4,59.8 143.1,58.2 
	"/>
<polygon class="st0" points="145,133.8 146.1,136.4 148.8,137.6 146.2,138.7 145,141.3 143.9,138.7 141.2,137.6 143.8,136.5 
	145,133.8 "/>
<polygon class="st0" points="48.2,106.7 48.9,108.3 50.5,109 48.9,109.7 48.2,111.3 47.6,109.7 45.9,109 47.5,108.4 48.2,106.7 "/>
<g>
	<g>
		
			<rect x="119.2" y="35.8" transform="matrix(0.9837 -0.1798 0.1798 0.9837 -10.7703 22.8555)" class="st3" width="3" height="70.1"/>
		<polygon class="st3" points="49.1,36.6 48.9,37.8 48.8,38 48.8,38.1 36.6,104.7 36.5,105.6 35.2,105.4 33.6,105.1 33.6,104.6 
			33.8,103.9 45.9,37.2 46.2,36.1 48.6,36.5 		"/>
		<path class="st4" d="M36.6,104.7c0.8,0.7,1.4,1.7,1.4,2.9c0,2.1-1.7,3.7-3.7,3.7c-2.1,0-3.7-1.7-3.7-3.7c0-1.9,1.4-3.4,3.2-3.7
			c0.2,0,0.3,0,0.5,0C35.2,103.8,36,104.2,36.6,104.7z"/>
		<path class="st4" d="M131.4,107.6c0,2-1.7,3.7-3.7,3.7c-2,0-3.7-1.7-3.7-3.7c0-2,1.7-3.7,3.7-3.7
			C129.8,103.8,131.4,105.5,131.4,107.6z"/>
		<path class="st5" d="M35.8,106.8c0,1.2-1,2.2-2.2,2.2c-1.2,0-2.2-1-2.2-2.2c0-1.2,1-2.2,2.2-2.2C34.8,104.6,35.8,105.6,35.8,106.8
			z"/>
		<path class="st5" d="M129.2,106.8c0,1.2-1,2.2-2.2,2.2c-1.2,0-2.2-1-2.2-2.2c0-1.2,1-2.2,2.2-2.2
			C128.2,104.6,129.2,105.6,129.2,106.8z"/>
	</g>
	<g>
		<path class="st6" d="M104.1,9.6c5,5,8.1,11.3,9.2,17.9c0,0.2,0.1,0.5,0.1,0.7c0.1,0.7,0.2,1.4,0.2,2.1c0.1,0.9,0.1,1.9,0.1,2.8
			c0,0.4,0,0.7,0,1.1c0,0,0,0.1,0,0.1c0,0.5-0.1,1-0.1,1.5c0,0.2,0,0.4-0.1,0.5c0,0.1,0,0.1,0,0.2c0,0,0,0,0,0c0,0.3-0.1,0.7-0.1,1
			c0,0.1,0,0.2,0,0.3c0,0.1,0,0.2,0,0.2c0,0.3-0.1,0.5-0.2,0.8c-0.1,0.5-0.2,1.1-0.4,1.6c-0.1,0.2-0.1,0.4-0.2,0.6c0,0,0,0,0,0
			c-0.1,0.4-0.2,0.7-0.3,1.1c0,0,0,0.1,0,0.1c-0.1,0.5-0.3,0.9-0.5,1.4c0,0.1-0.1,0.2-0.1,0.2c-0.2,0.5-0.3,0.9-0.5,1.3
			c-1.6,3.8-3.9,7.4-7,10.5c-0.3,0.3-0.5,0.5-0.8,0.8c-0.1,0.1-0.3,0.2-0.4,0.4l-0.1,0.1c-0.3,0.2-0.5,0.5-0.8,0.7
			c-0.4,0.3-0.7,0.6-1.1,0.9c-0.4,0.3-0.8,0.6-1.2,0.9c-0.3,0.2-0.5,0.4-0.8,0.5c-0.1,0.1-0.3,0.2-0.4,0.3c-0.3,0.2-0.6,0.4-0.9,0.6
			c-0.5,0.3-0.9,0.5-1.4,0.8c-0.3,0.2-0.7,0.4-1,0.5c-0.4,0.2-0.8,0.4-1.2,0.6c-0.4,0.2-0.8,0.3-1.1,0.5c-0.5,0.2-0.9,0.4-1.4,0.5
			c-0.4,0.1-0.7,0.2-1,0.3c-0.1,0-0.2,0.1-0.3,0.1c-0.4,0.1-0.7,0.2-1.1,0.3c0,0-0.1,0-0.1,0c-0.4,0.1-0.8,0.2-1.2,0.3
			c-0.4,0.1-0.9,0.2-1.3,0.2C85.8,64.9,85.4,65,85,65c0,0,0,0-0.1,0c-0.4,0-0.8,0.1-1.2,0.1c-0.4,0-0.8,0.1-1.2,0.1
			c-0.1,0-0.1,0-0.1,0c-0.4,0-0.9,0-1.3,0c-0.5,0-1,0-1.5,0c-0.4,0-0.8,0-1.1-0.1c-0.4,0-0.9-0.1-1.3-0.1c0,0,0,0,0,0
			c-0.4-0.1-0.9-0.1-1.3-0.2c-0.4-0.1-0.9-0.2-1.3-0.2c-0.4-0.1-0.8-0.2-1.2-0.3c-1.1-0.3-2.1-0.6-3.2-0.9c-0.4-0.1-0.7-0.3-1.1-0.4
			c-0.7-0.3-1.4-0.6-2.1-0.9c-0.3-0.1-0.5-0.3-0.8-0.4c-0.1,0-0.2-0.1-0.2-0.1c-0.2-0.1-0.4-0.2-0.6-0.3c-0.1,0-0.1-0.1-0.2-0.1
			c-0.2-0.1-0.3-0.2-0.5-0.3h0c-2.4-1.4-4.6-3.1-6.6-5.1c-3.1-3.1-5.4-6.7-7-10.5c-0.2-0.4-0.4-0.9-0.5-1.3c0-0.1-0.1-0.2-0.1-0.2
			c-0.2-0.5-0.3-0.9-0.5-1.4c0,0,0-0.1,0-0.1c-0.1-0.4-0.2-0.7-0.3-1.1c0,0,0,0,0,0c-0.1-0.2-0.1-0.4-0.2-0.6
			c-0.1-0.5-0.3-1.1-0.4-1.6c-0.1-0.3-0.1-0.5-0.2-0.8c0-0.1,0-0.2,0-0.2c0-0.1,0-0.2,0-0.3c-0.1-0.3-0.1-0.7-0.1-1c0,0,0,0,0,0
			c0-0.1,0-0.1,0-0.2c0-0.2,0-0.4-0.1-0.5c0-0.5-0.1-1-0.1-1.5c0,0,0-0.1,0-0.1c0-0.4,0-0.7,0-1.1c0-0.2,0-0.3,0-0.5
			c0-0.8,0-1.6,0.1-2.3c0.1-0.7,0.1-1.4,0.2-2.1c0-0.2,0.1-0.5,0.1-0.7c1.1-6.6,4.1-12.8,9.1-17.9c2-2,4.2-3.7,6.6-5.1
			c0.4-0.2,0.8-0.4,1.1-0.6c0,0,0.1-0.1,0.2-0.1c0.3-0.2,0.7-0.3,1-0.5c0.4-0.2,0.9-0.4,1.3-0.6C69,2.3,69.8,2,70.6,1.7
			c0.5-0.2,1-0.3,1.5-0.5c0.4-0.1,0.7-0.2,1.1-0.3c0,0,0,0,0,0c0,0,0,0,0.1,0c0.4-0.1,0.8-0.2,1.2-0.3c0.5-0.1,0.9-0.2,1.4-0.3
			c0.4-0.1,0.7-0.1,1.1-0.2l0.2,0c0.4-0.1,0.8-0.1,1.2-0.1c0.3,0,0.7-0.1,1-0.1c1,0,1.9,0,2.9,0c0.4,0,0.9,0,1.3,0.1
			c0.4,0,0.8,0.1,1.2,0.1c0,0,0.1,0,0.1,0c0.4,0,0.8,0.1,1.1,0.2c0.9,0.1,1.8,0.3,2.6,0.5l0,0C88.9,1,89,1,89.1,1
			c0.3,0.1,0.7,0.2,1,0.3c2.8,0.8,5.6,2,8.1,3.6c0.2,0.1,0.4,0.3,0.7,0.4c0.7,0.4,1.3,0.9,2,1.4c0.4,0.3,0.7,0.6,1.1,0.9
			c0.3,0.2,0.5,0.5,0.8,0.7l0.1,0.1c0.1,0.1,0.3,0.2,0.4,0.4C103.5,9,103.8,9.3,104.1,9.6z"/>
		<path class="st7" d="M113.3,28.2c0.1,0.7,0.2,1.4,0.2,2.1c0.1,0.9,0.1,1.9,0.1,2.8c0,0.4,0,0.7,0,1.1c0,0,0,0.1,0,0.1
			c0,0.5-0.1,1-0.1,1.5c0,0.2,0,0.4-0.1,0.5c0,0.1,0,0.1,0,0.2c0,0,0,0,0,0c0,0.3-0.1,0.7-0.1,1c0,0.1,0,0.2,0,0.3
			c0,0.1,0,0.2,0,0.2c0,0.3-0.1,0.6-0.1,0.8c-0.1,0.5-0.2,1.1-0.4,1.6c-0.1,0.2-0.1,0.4-0.2,0.6c0,0,0,0,0,0
			c-0.1,0.4-0.2,0.7-0.3,1.1c0,0,0,0.1,0,0.1c-0.1,0.5-0.3,0.9-0.5,1.4c0,0.1-0.1,0.2-0.1,0.2c-0.2,0.5-0.3,0.9-0.5,1.3H89.4l-7,0
			l-3,0l-8.8,0l-19.8,0c-0.2-0.4-0.4-0.9-0.5-1.3c0-0.1-0.1-0.2-0.1-0.2c-0.2-0.5-0.3-0.9-0.5-1.4c0,0,0-0.1,0-0.1
			c-0.1-0.4-0.2-0.7-0.3-1.1c0,0,0,0,0,0c-0.1-0.2-0.1-0.4-0.2-0.6c-0.1-0.5-0.3-1.1-0.4-1.6c-0.1-0.3-0.1-0.5-0.1-0.8
			c0-0.1,0-0.2,0-0.2c0-0.1,0-0.2,0-0.3c-0.1-0.3-0.1-0.7-0.1-1c0,0,0,0,0,0c0-0.1,0-0.1,0-0.2c0-0.2,0-0.4-0.1-0.5
			c0-0.5-0.1-1-0.1-1.5c0,0,0-0.1,0-0.1c0-0.4,0-0.7,0-1.1c0-0.2,0-0.3,0-0.5c0-0.8,0-1.6,0.1-2.3c0.1-0.7,0.1-1.4,0.2-2.1l5.1,0
			l25.2,0l13.1,0l1.8,0L113.3,28.2z"/>
		<path class="st8" d="M75.8,23.2c5.2,5.2,5.2,13.7,0,18.9c-5.2,5.2-13.7,5.2-18.9,0c-5.2-5.2-5.2-13.7,0-18.9
			C62.1,18,70.5,18,75.8,23.2z"/>
		<path class="st7" d="M104.1,9.6c5,5,8.1,11.3,9.2,17.9c0,0.2,0.1,0.5,0.1,0.7c0.1,0.7,0.2,1.4,0.2,2.1c0.1,0.9,0.1,1.9,0.1,2.8
			c0,0.4,0,0.7,0,1.1c0,0,0,0.1,0,0.1c0,0.5-0.1,1-0.1,1.5c0,0.2,0,0.4-0.1,0.5c0,0.1,0,0.1,0,0.2c0,0,0,0,0,0c0,0.3-0.1,0.7-0.1,1
			c0,0.1,0,0.2,0,0.3c0,0.1,0,0.2,0,0.2c0,0.3-0.1,0.5-0.2,0.8c-0.1,0.5-0.2,1.1-0.4,1.6c-0.1,0.2-0.1,0.4-0.2,0.6c0,0,0,0,0,0
			c-0.1,0.4-0.2,0.7-0.3,1.1c0,0,0,0.1,0,0.1c-0.1,0.5-0.3,0.9-0.5,1.4c0,0.1-0.1,0.2-0.1,0.2c-0.2,0.5-0.3,0.9-0.5,1.3
			c-1.6,3.8-3.9,7.4-7,10.5c-0.3,0.3-0.5,0.5-0.8,0.8c-0.1,0.1-0.3,0.2-0.4,0.4l-0.1,0.1c-0.3,0.2-0.5,0.5-0.8,0.7
			c-0.4,0.3-0.7,0.6-1.1,0.9c-0.4,0.3-0.8,0.6-1.2,0.9c-0.3,0.2-0.5,0.4-0.8,0.5c-0.1,0.1-0.3,0.2-0.4,0.3c-0.3,0.2-0.6,0.4-0.9,0.6
			c-0.5,0.3-0.9,0.5-1.4,0.8c-0.3,0.2-0.7,0.4-1,0.5c-0.4,0.2-0.8,0.4-1.2,0.6c-0.4,0.2-0.8,0.3-1.1,0.5c-0.5,0.2-0.9,0.4-1.4,0.5
			c-0.4,0.1-0.7,0.2-1,0.3c-0.1,0-0.2,0.1-0.3,0.1c-0.4,0.1-0.7,0.2-1.1,0.3c0,0-0.1,0-0.1,0c-0.4,0.1-0.8,0.2-1.2,0.3
			c-0.4,0.1-0.9,0.2-1.3,0.2C85.8,64.9,85.4,65,85,65c0,0,0,0-0.1,0c-0.4,0-0.8,0.1-1.2,0.1c-0.4,0-0.8,0.1-1.2,0.1c0,0-0.1,0-0.1,0
			c-0.4,0-0.9,0-1.3,0c-0.5,0-1,0-1.5,0c-0.4,0-0.8,0-1.1-0.1c-0.4,0-0.9-0.1-1.3-0.1c0,0,0,0,0,0c-0.4-0.1-0.9-0.1-1.3-0.2
			c-0.4-0.1-0.9-0.2-1.3-0.2c-0.4-0.1-0.8-0.2-1.2-0.3c-1.1-0.3-2.1-0.6-3.2-0.9c-0.4-0.1-0.7-0.3-1.1-0.4c-0.7-0.3-1.4-0.6-2.1-0.9
			c-0.3-0.1-0.5-0.3-0.8-0.4c-0.1,0-0.2-0.1-0.2-0.1c-0.2-0.1-0.4-0.2-0.6-0.3c-0.1,0-0.1-0.1-0.2-0.1c-0.2-0.1-0.3-0.2-0.5-0.3h0
			c5.2-0.1,10.4-1.6,15-4.5c1-0.7,2-1.4,3-2.2c0.6-0.5,1.1-1,1.7-1.5c2.2-2.2,4-4.7,5.3-7.3c1.2-2.4,2-4.9,2.5-7.4l0,0c0,0,0,0,0,0
			c0.3-1.5,0.4-3.1,0.5-4.7c0-1.6-0.1-3.3-0.4-4.9c0-0.2-0.1-0.5-0.1-0.7c0,0,0,0,0-0.1c-1-5.4-3.6-10.6-7.8-14.7
			c-5.4-5.4-12.5-8.2-19.6-8.3c0.4-0.2,0.8-0.4,1.1-0.6c0,0,0.1-0.1,0.2-0.1c0.3-0.2,0.7-0.3,1-0.5c0.4-0.2,0.9-0.4,1.3-0.6
			C69,2.3,69.8,2,70.6,1.7c0.5-0.2,1-0.3,1.5-0.5c0.4-0.1,0.7-0.2,1.1-0.3c0,0,0,0,0,0c0,0,0,0,0.1,0c0.4-0.1,0.8-0.2,1.2-0.3
			c0.5-0.1,0.9-0.2,1.4-0.3c0.4-0.1,0.7-0.1,1.1-0.2l0.2,0c0.4-0.1,0.8-0.1,1.2-0.1c0.3,0,0.7-0.1,1-0.1c1,0,1.9,0,2.9,0
			c0.4,0,0.9,0,1.3,0.1c0.4,0,0.8,0.1,1.2,0.1c0,0,0.1,0,0.1,0c0.4,0,0.8,0.1,1.1,0.2c0.9,0.1,1.8,0.3,2.6,0.5l0,0
			C88.9,1,89,1,89.1,1c0.3,0.1,0.7,0.2,1,0.3c2.8,0.8,5.6,2,8.1,3.6c0.2,0.1,0.4,0.3,0.7,0.4c0.7,0.4,1.3,0.9,2,1.4
			c0.4,0.3,0.7,0.6,1.1,0.9c0.3,0.2,0.5,0.5,0.8,0.7l0.1,0.1c0.1,0.1,0.3,0.2,0.4,0.4C103.5,9,103.8,9.3,104.1,9.6z"/>
	</g>
	<g>
		<polygon class="st3" points="82.5,34.9 82.5,37.8 82.5,45.2 82.5,54.1 82.5,65.2 82.5,124.2 82.5,126.8 79.5,126.8 79.5,65.2 
			79.5,65.2 79.5,56.3 79.5,37.8 79.5,34.9 		"/>
		<g>
			<path class="st4" d="M84.7,127.6c0,0.3,0,0.6-0.1,0.9c-0.4,1.6-1.9,2.8-3.6,2.8c-1.7,0-3.2-1.2-3.6-2.8c-0.1-0.3-0.1-0.6-0.1-0.9
				c0-1.5,0.9-2.8,2.2-3.4c0.5-0.2,0.9-0.3,1.5-0.3s1,0.1,1.5,0.3C83.8,124.7,84.7,126.1,84.7,127.6z"/>
			<path class="st5" d="M82.5,126.8c0,1.2-1,2.2-2.2,2.2c-1.2,0-2.2-1-2.2-2.2c0-1.2,1-2.2,2.2-2.2
				C81.5,124.6,82.5,125.6,82.5,126.8z"/>
		</g>
	</g>
	<g>
		<path class="st9" d="M118.3,30.3c0.1,0.2,0.2,0.3,0.2,0.5c0,0,0,0,0,0c0.1,0.1,0.1,0.3,0.1,0.4c0,0.1,0,0.2,0.1,0.3
			c0,0.1,0,0.1,0,0.2c0,0.1,0.1,0.2,0.1,0.4c0,0.2,0,0.4,0,0.5c0,2-1.1,3.7-2.8,4.6c-0.7,0.4-1.5,0.6-2.4,0.6H91.9l0,0l-0.6,0H78.6
			l-24.6,0h-5.7c-0.9,0-1.7-0.2-2.4-0.6c-1.7-0.9-2.8-2.6-2.8-4.6c0-0.2,0-0.4,0-0.6c0,0,0-0.1,0-0.1c0-0.2,0-0.3,0.1-0.5
			c0,0,0-0.1,0-0.1c0-0.2,0.1-0.3,0.2-0.5c0.1-0.2,0.1-0.3,0.2-0.5c0,0,0-0.1,0-0.1l0,0c0.9-1.7,2.6-2.8,4.6-2.8l5.7,0l24.6,0
			l12.6,0l0.7,0l21.3,0l0.4,0C115.7,27.4,117.4,28.6,118.3,30.3z"/>
		<path class="st9" d="M118.3,30.3c0.1,0.2,0.2,0.3,0.2,0.5c0,0,0,0,0,0c0.1,0.1,0.1,0.3,0.1,0.4c0,0.1,0,0.2,0.1,0.3
			c0,0.1,0,0.1,0,0.2c0,0.1,0.1,0.2,0.1,0.4c0,0.2,0,0.4,0,0.5c0,2-1.1,3.7-2.8,4.6c-0.7,0.4-1.5,0.6-2.4,0.6H91.9l0,0l-0.6,0
			c0.2,0,0.4,0,0.6,0c2.4-0.3,4.2-2.3,4.4-4.7c0-0.2,0-0.3,0-0.5c0-1.9-1-3.5-2.5-4.5c-0.6-0.4-1.2-0.6-2-0.7
			c-0.2,0-0.5-0.1-0.7-0.1l0.7,0l21.3,0l0.4,0C115.7,27.4,117.4,28.6,118.3,30.3z"/>
		<path class="st9" d="M118.3,30.3c0.1,0.2,0.2,0.3,0.2,0.5c0,0,0,0,0,0c0.1,0.1,0.1,0.3,0.1,0.4c0,0.1,0,0.2,0.1,0.3
			c0,0.1,0,0.1,0,0.2c0,0.1,0.1,0.2,0.1,0.4c0,0.2,0,0.4,0,0.5c0,2-1.1,3.7-2.8,4.6c-0.7,0.4-1.5,0.6-2.4,0.6H91.9l0,0l-0.6,0H78.6
			l-24.6,0h-5.7c-0.9,0-1.7-0.2-2.4-0.6c-1.7-0.9-2.8-2.6-2.8-4.6c0-0.2,0-0.4,0-0.6c0,0,0-0.1,0-0.1c0-0.2,0-0.3,0.1-0.5
			c0,0,0-0.1,0-0.1c0-0.2,0.1-0.3,0.2-0.5c0.1-0.2,0.1-0.3,0.2-0.5c0,0,0-0.1,0-0.1l0,0c0.9,1.7,2.6,2.8,4.6,2.8h0l4.6,0l39.4,0h4
			h17.2l0,0C115.7,33.1,117.4,32,118.3,30.3z"/>
	</g>
</g>
</svg>
