<?xml version="1.0" encoding="utf-8"?>
<!-- Generator: Adobe Illustrator 22.1.0, SVG Export Plug-In . SVG Version: 6.00 Build 0)  -->
<svg version="1.1" id="Capa_1" xmlns="http://www.w3.org/2000/svg" xmlns:xlink="http://www.w3.org/1999/xlink" x="0px" y="0px"
	 viewBox="0 0 512 512" style="enable-background:new 0 0 512 512;" xml:space="preserve">
<g>
	<g>
		<path d="M50,66c-5.5,0-10,4.5-10,10s4.5,10,10,10s10-4.5,10-10S55.5,66,50,66z"/>
	</g>
</g>
<g>
	<g>
		<path d="M502,0H10C4.5,0,0,4.5,0,10v66c0,2.2,0.7,4.3,2.1,6.1L46,139.4V222c0,115.8,94.2,210,210,210s210-94.2,210-210v-82.6
			l43.9-57.3c1.3-1.7,2.1-3.9,2.1-6.1V10C512,4.5,507.5,0,502,0z M256,412c-101.4,0-184.5-79.9-189.7-180h100.4
			c2.8,0,5.6-1.2,7.4-3.3C195,205.4,224.8,192,256,192c31.2,0,61,13.4,81.9,36.7c1.9,2.1,4.6,3.2,7.4,3.2h100.4
			C440.5,332,357.4,412,256,412z M446,212h-96.3c-24.5-25.5-58.4-40-93.7-40c-35.4,0-69.3,14.5-93.7,40H66v-66h380V212z M492,66H90
			c-5.5,0-10,4.5-10,10s4.5,10,10,10h391.7l-30.7,40H60.9L20,72.6V20h472V66z"/>
	</g>
</g>
<g>
	<g>
		<path d="M256,212c-49.6,0-90,40.4-90,90s40.4,90,90,90s90-40.4,90-90S305.6,212,256,212z M256,372c-38.6,0-70-31.4-70-70
			s31.4-70,70-70s70,31.4,70,70S294.6,372,256,372z"/>
	</g>
</g>
<g>
	<g>
		<path d="M256,252c-27.6,0-50,22.4-50,50s22.4,50,50,50s50-22.4,50-50S283.6,252,256,252z M256,332c-16.5,0-30-13.5-30-30
			s13.5-30,30-30s30,13.5,30,30S272.5,332,256,332z"/>
	</g>
</g>
<g>
	<g>
		<path d="M256,452c-5.5,0-10,4.5-10,10v40c0,5.5,4.5,10,10,10c5.5,0,10-4.5,10-10v-40C266,456.5,261.5,452,256,452z"/>
	</g>
</g>
<g>
	<g>
		<path d="M413.1,464.9l-30-30c-3.9-3.9-10.2-3.9-14.1,0c-3.9,3.9-3.9,10.2,0,14.1l30,30c3.9,3.9,10.2,3.9,14.1,0
			C417,475.2,417,468.8,413.1,464.9z"/>
	</g>
</g>
<g>
	<g>
		<path d="M143.1,434.9c-3.9-3.9-10.2-3.9-14.1,0l-30,30c-3.9,3.9-3.9,10.2,0,14.1c3.9,3.9,10.2,3.9,14.1,0l30-30
			C147,445.2,147,438.8,143.1,434.9z"/>
	</g>
</g>
</svg>
