<svg xmlns="http://www.w3.org/2000/svg" viewBox="0 0 480 480" width="480" height="480">
	<defs>
		<clipPath clipPathUnits="userSpaceOnUse" id="cp1">
			<path d="M0 0L480 0L480 480L0 480Z" />
		</clipPath>
	</defs>
	<style>
		tspan { white-space:pre }
		.shp0 { fill: #fff } 
	</style>
	<g id="Page 1" clip-path="url(#cp1)">
		<path id="Path 1" class="shp0" d="M480,464v16h-480v-16h48v-104c0,-66.17 53.83,-120 120,-120h8.72c-16.2,-14.26 -27.53,-33.83 -31.27,-56h-5.45c-19.85,0 -36,-16.15 -36,-36c0,-12.5 6.41,-23.5 16.1,-29.96c1.06,-65.26 54.39,-118.04 119.9,-118.04c65.51,0 118.84,52.78 119.9,118.04c9.69,6.46 16.1,17.46 16.1,29.96c0,12.45 -6.36,23.44 -16,29.9v14.1c0,22.06 -17.94,40 -40,40h-8.65c-2.54,2.82 -5.22,5.5 -8.06,8h8.71c66.17,0 120,53.83 120,120v104zM376,360c0,-13.23 -10.77,-24 -24,-24h-224c-13.23,0 -24,10.77 -24,24v104h272zM128,320h67.06l-31.88,-63.75c-55.1,2.54 -99.18,48.03 -99.18,103.75v104h24v-104c0,-22.06 17.94,-40 40,-40zM252.94,320h14.11l32,-64h-14.11zM195.06,256h-14.11l32,64h14.11zM240,310.11l24.73,-49.46c-7.9,2.11 -16.17,3.34 -24.73,3.34c-8.56,0 -16.82,-1.23 -24.73,-3.34zM207.02,240.8c21,9.54 44.96,9.54 65.95,0c5.28,-2.4 10.23,-5.36 14.82,-8.8h-47.79v-16h63.85c10.09,-13.39 16.15,-29.98 16.15,-48v-24.16c-47.38,-1.59 -86.5,-17.2 -103.23,-39.38c-10.58,16.87 -31.78,28.92 -56.77,31.09v32.45c0,32.35 19.34,60.21 47.02,72.8zM240,48c-41.23,0 -75.27,31.37 -79.54,71.5c26.86,-2.94 47.54,-19.5 47.54,-39.5c0,-4.42 3.58,-8 8,-8c4.42,0 8,3.58 8,8c0,22.16 38.26,45.77 95.99,47.8c-0.11,-44.02 -35.95,-79.8 -79.99,-79.8zM145.45,112c7.65,-45.33 47.08,-80 94.55,-80c47.47,0 86.9,34.67 94.55,80h5.45c1.24,0 2.41,0.24 3.62,0.37c-3.94,-53.78 -48.85,-96.37 -103.62,-96.37c-54.77,0 -99.68,42.58 -103.62,96.37c1.21,-0.13 2.38,-0.37 3.62,-0.37zM144,128h-4c-11.03,0 -20,8.98 -20,20c0,11.02 8.97,20 20,20h4zM340,128h-4v40h4c11.03,0 20,-8.98 20,-20c0,-11.02 -8.97,-20 -20,-20zM344,183.59c-1.33,0.15 -2.63,0.41 -4,0.41h-5.45c-1.91,11.35 -5.8,22.03 -11.34,31.67c11.7,-1.58 20.79,-11.54 20.79,-23.67zM416,360c0,-55.72 -44.08,-101.21 -99.18,-103.75l-31.88,63.75h67.06c22.06,0 40,17.94 40,40v104h24zM344,392h16v56h-16zM344,360h16v16h-16zM416,72h16v16h-16zM416,104h16v16h-16zM416,136h16v16h-16zM48,168h16v16h-16zM48,200h16v16h-16zM48,232h16v16h-16z" />
	</g>
</svg>