<svg xmlns="http://www.w3.org/2000/svg" viewBox="0 0 512 513" width="512" height="513">
	<defs>
		<clipPath clipPathUnits="userSpaceOnUse" id="cp1">
			<path d="M0 0L512 0L512 512L0 512Z" />
		</clipPath>
	</defs>
	<style>
		tspan { white-space:pre }
		.shp0 { fill: #fff } 
	</style>
	<g id="Page 1" clip-path="url(#cp1)">
		<path id="Path 1" class="shp0" d="M511.97,416.77v85.23c0,5.52 -4.48,10 -10,10h-419.94c-5.52,0 -10,-4.48 -10,-10v-171.18c0,-15.3 12.45,-27.74 27.74,-27.74h118.51c7.13,-1.88 12.23,-8.39 12.23,-15.84c0,-5.52 4.48,-10 10,-10c5.52,0 10,4.48 10,10c0,5.62 -1.32,11.01 -3.67,15.84h85.02c-2.36,-4.83 -3.67,-10.22 -3.67,-15.85c0,-5.52 4.48,-10 10,-10c5.52,0 10,4.48 10,10c0,7.73 5.49,14.48 13.06,16.05l70.13,14.52c22.7,4.7 43.25,17.18 57.89,35.16c14.63,17.97 22.69,40.64 22.69,63.81zM355.94,492v-161.18c0,-4.27 -3.47,-7.74 -7.74,-7.74h-248.42c-4.27,0 -7.75,3.48 -7.75,7.74v161.18h27.96v-46c0,-5.52 4.48,-10 10,-10c5.52,0 10,4.48 10,10v46zM491.97,416.77c0,-38.24 -27.18,-71.63 -64.63,-79.39l-51.71,-10.71c0.2,1.35 0.31,2.74 0.31,4.15v161.18h116.03zM371.35,124.35v80.83c0,45.21 -36.78,82 -82,82c-45.21,0 -82,-36.78 -81.99,-82v-80.83c0,-0.35 0.02,-0.7 0.05,-1.04c0.66,-25.39 12.92,-47.94 31.67,-62.54c-1.95,-1.83 -3.17,-4.41 -3.17,-7.29c0,-29.47 23.97,-53.44 53.44,-53.44c29.47,0 53.44,23.97 53.44,53.44c0,2.88 -1.22,5.46 -3.17,7.29c18.75,14.6 31,37.15 31.67,62.54c0.04,0.34 0.05,0.69 0.06,1.04zM351.35,178.69c0,-2.56 -2.09,-4.65 -4.65,-4.65h-42.7c-2.56,0 -4.65,2.09 -4.65,4.65v22.13c0,2.56 2.09,4.65 4.65,4.65h42.7c2.56,0 4.65,-2.09 4.65,-4.65zM347.94,225.43c-0.41,0.02 -0.82,0.03 -1.23,0.03h-42.7c-5.48,0 -10.55,-1.8 -14.65,-4.84c-4.1,3.04 -9.16,4.84 -14.65,4.84h-42.7c-0.41,0 -0.83,-0.01 -1.24,-0.03c8.41,24.27 31.49,41.74 58.58,41.74c27.09,0 50.17,-17.48 58.58,-41.74zM232.01,205.46h42.7c2.56,0 4.65,-2.09 4.65,-4.65v-22.13c0,-2.56 -2.09,-4.65 -4.65,-4.65h-42.7c-2.57,0 -4.65,2.09 -4.65,4.65v22.13c0,2.56 2.09,4.65 4.65,4.65zM256.05,50.57c10.19,-4.55 21.45,-7.1 33.31,-7.1c11.86,0 23.12,2.55 33.31,7.1c-1.48,-17.09 -15.85,-30.54 -33.31,-30.54c-17.46,0 -31.83,13.45 -33.31,30.54zM351.35,131.17v-5.7c0,-34.18 -27.81,-62 -61.99,-62c-34.19,0 -62,27.81 -62,62v5.71c0,12.61 10.26,22.86 22.86,22.86h9.42c20.77,0 38.8,-14.07 43.86,-34.21c1.34,-5.36 6.77,-8.61 12.13,-7.27c5.36,1.34 8.61,6.77 7.27,12.13c-2.85,11.35 -8.56,21.36 -16.25,29.35h21.84c12.61,0 22.86,-10.26 22.86,-22.86zM258.83,407.54c0,19.21 -15.63,34.84 -34.84,34.84c-19.21,0 -34.84,-15.63 -34.84,-34.84c0,-19.21 15.63,-34.84 34.84,-34.84c19.21,0 34.84,15.63 34.84,34.84zM238.83,407.54c0,-8.18 -6.66,-14.84 -14.84,-14.84c-8.18,0 -14.84,6.66 -14.84,14.84c0,8.18 6.66,14.84 14.84,14.84c8.18,0 14.84,-6.66 14.84,-14.84zM127.99,122.26v-27.17h-107.99v135.99h107.99v-22.06c0,-5.52 4.48,-10 10,-10c5.52,0 10,4.48 10,10v22.06c0,11.03 -8.97,20 -20,20h-107.99c-11.03,0 -20,-8.97 -20,-20v-135.99c0,-11.03 8.97,-20 20,-20h107.99c11.03,0 20,8.97 20,20v27.17c0,5.52 -4.48,10 -10,10c-5.52,0 -10,-4.48 -10,-10zM147.99,163.08c0,2.63 -1.07,5.21 -2.93,7.07c-1.86,1.86 -4.44,2.93 -7.07,2.93c-2.63,0 -5.21,-1.07 -7.07,-2.93c-1.86,-1.86 -2.93,-4.44 -2.93,-7.07c0,-2.63 1.07,-5.21 2.93,-7.07c1.86,-1.87 4.44,-2.93 7.07,-2.93c2.63,0 5.21,1.06 7.07,2.93c1.86,1.86 2.93,4.44 2.93,7.07zM512,22.17v170.6c0,1.41 -0.3,2.8 -0.87,4.08l-28,62.56c-1.61,3.6 -5.19,5.92 -9.13,5.92c-3.94,0 -7.52,-2.32 -9.13,-5.92l-28,-62.56c-0.58,-1.29 -0.87,-2.68 -0.87,-4.08v-170.6c0,-12.21 9.93,-22.14 22.14,-22.14h31.71c12.21,0 22.14,9.93 22.14,22.14zM492,74.03h-36v108.75h36zM486.57,202.77h-25.14l12.57,28.08zM492,22.17c0,-1.18 -0.96,-2.14 -2.14,-2.14h-31.71c-1.18,0 -2.14,0.96 -2.14,2.14v31.86h36zM139.99,407.54c0,2.63 -1.07,5.21 -2.93,7.07c-1.86,1.87 -4.44,2.93 -7.07,2.93c-2.63,0 -5.21,-1.06 -7.07,-2.93c-1.86,-1.86 -2.93,-4.43 -2.93,-7.07c0,-2.63 1.07,-5.21 2.93,-7.07c1.86,-1.86 4.44,-2.93 7.07,-2.93c2.63,0 5.21,1.07 7.07,2.93c1.86,1.86 2.93,4.44 2.93,7.07z" />
	</g>
</svg>