<svg xmlns="http://www.w3.org/2000/svg" viewBox="0 0 513 404" width="513" height="404">
	<defs>
		<clipPath clipPathUnits="userSpaceOnUse" id="cp1">
			<path d="M0 1L512 1L512 403L0 403Z" />
		</clipPath>
	</defs>
	<style>
		tspan { white-space:pre }
		.shp0 { fill: #fff } 
	</style>
	<g id="Page 1" clip-path="url(#cp1)">
		<path id="Path 1" class="shp0" d="M400.28,174.1v13.31c0,33.16 -26.98,60.13 -60.13,60.13h-11.72v113.66c0,2.78 -1.5,5.35 -3.92,6.72c-1.18,0.66 -2.48,0.99 -3.79,0.99c-1.38,0 -2.77,-0.37 -4,-1.11l-110.62,-66.99c-12.41,-7.52 -26.56,-11.65 -41.04,-12.02c-0.68,0.2 -1.4,0.31 -2.15,0.31c-0.8,0 -1.57,-0.12 -2.29,-0.35h-22.05v76.44c0,20.85 -16.96,37.81 -37.81,37.81h-18.57c-13.42,0 -24.33,-10.92 -24.33,-24.34v-68.05c0,-4.26 3.45,-7.71 7.71,-7.71c4.26,0 7.71,3.45 7.71,7.71v68.05c0,4.91 4,8.91 8.91,8.91h18.57c12.35,0 22.39,-10.04 22.39,-22.39v-76.44h-3.59c-0.72,0.22 -1.49,0.35 -2.29,0.35c-0.8,0 -1.57,-0.12 -2.29,-0.35h-49.56c-36.07,0 -65.41,-29.34 -65.41,-65.41v-77.12c0,-17.66 6.99,-34.23 19.68,-46.67c3.04,-2.98 7.92,-2.93 10.9,0.11c2.98,3.04 2.93,7.92 -0.11,10.9c-9.71,9.51 -15.05,22.18 -15.05,35.66v77.12c0,27.56 22.42,49.99 49.99,49.99h44.14v-177.1h-44.14c-4.26,0 -7.71,-3.45 -7.71,-7.71c0,-4.26 3.45,-7.71 7.71,-7.71h97.5c15.23,0 30.16,-4.17 43.19,-12.06l110.62,-66.99c2.38,-1.44 5.36,-1.49 7.78,-0.12c2.43,1.37 3.93,3.94 3.93,6.72v105.61h11.72c33.15,0 60.13,26.97 60.13,60.13zM313,22.04l-98.92,59.9c-13.23,8.01 -28.12,12.77 -43.46,13.97v177.72c15.34,1.2 30.24,5.96 43.46,13.97l98.92,59.9zM155.2,96.22h-30.22v177.1h30.22zM384.86,187.4h0v-13.31c0,-24.65 -20.05,-44.71 -44.71,-44.71h-11.72v102.72h11.72c24.65,0 44.7,-20.05 44.71,-44.71zM512,180.75c0,4.26 -3.45,7.71 -7.71,7.71h-74.24c-4.26,0 -7.71,-3.45 -7.71,-7.71c0,-4.26 3.45,-7.71 7.71,-7.71h74.24c4.26,0 7.71,3.45 7.71,7.71zM501.54,112l-62.04,29.86c-1.08,0.52 -2.22,0.77 -3.34,0.77c-2.87,0 -5.63,-1.61 -6.95,-4.37c-1.85,-3.84 -0.23,-8.45 3.6,-10.29l62.04,-29.86c3.84,-1.85 8.44,-0.23 10.29,3.6c1.85,3.84 0.23,8.45 -3.6,10.29zM505.14,259.1c-1.33,2.76 -4.08,4.37 -6.95,4.37c-1.12,0 -2.26,-0.25 -3.34,-0.76l-62.04,-29.86c-3.84,-1.85 -5.45,-6.46 -3.6,-10.29c1.85,-3.84 6.46,-5.45 10.29,-3.6l62.04,29.86c3.84,1.85 5.45,6.45 3.6,10.29z" />
	</g>
</svg>