<?xml version="1.0" encoding="UTF-8"?>
<svg width="18px" height="45px" viewBox="0 0 18 45" version="1.1" xmlns="http://www.w3.org/2000/svg" xmlns:xlink="http://www.w3.org/1999/xlink">
    <!-- Generator: Sketch 50.2 (55047) - http://www.bohemiancoding.com/sketch -->
    <title>myshka (1)</title>
    <desc>Created with Sketch.</desc>
    <defs></defs>
    <g id="Page-1" stroke="none" stroke-width="1" fill="none" fill-rule="evenodd">
        <g id="myshka-(1)" fill-rule="nonzero">
            <g id="chevron-right" transform="translate(3.000000, 37.000000)" fill="#aaabb4">
                <polygon id="Shape" points="12 1.6 10.6 0.2 6 4.8 1.4 0.2 0 1.6 6 7.6"></polygon>
            </g>
            <path d="M9,0 C4.1,0 0,4.5 0,10 L0,19.4 C0,24.9 4.1,29.4 9,29.4 C13.9,29.4 18,24.9 18,19.4 L18,10 C18,4.5 13.9,0 9,0 Z M16.8,18.9 C16.8,23.9 13.3,28 9,28 C4.7,28 1.2,23.9 1.2,18.9 L1.2,10.4 C1.2,5.4 4.7,1.3 9,1.3 C13.3,1.3 16.8,5.4 16.8,10.4 L16.8,18.9 Z" id="Shape" fill="#aaabb4"></path>
            <rect id="Rectangle-path" fill="#aaabb4" x="8" y="7.8" width="2" height="6.9"></rect>
        </g>
    </g>
</svg>