<svg xmlns="http://www.w3.org/2000/svg" viewBox="0 0 308 512" width="308" height="512">
	<defs>
		<clipPath clipPathUnits="userSpaceOnUse" id="cp1">
			<path d="M0 0L307 0L307 512L0 512Z" />
		</clipPath>
	</defs>
	<style>
		tspan { white-space:pre }
		.shp0 { fill: #fff } 
	</style>
	<g id="Page 1" clip-path="url(#cp1)">
		<path id="Path 1" class="shp0" d="M307.2,25.6v460.8c0,14.14 -11.46,25.6 -25.6,25.6h-256c-14.14,0 -25.6,-11.46 -25.6,-25.6v-460.8c0,-14.14 11.46,-25.6 25.6,-25.6h256c14.14,0 25.6,11.46 25.6,25.6zM290.13,25.6c0,-4.71 -3.82,-8.53 -8.53,-8.53h-256c-4.71,0 -8.53,3.82 -8.53,8.53v42.67h25.6c4.71,0 8.53,3.82 8.53,8.53c0,4.71 -3.82,8.53 -8.53,8.53h-25.6v332.8h196.27c4.71,0 8.53,3.82 8.53,8.53c0,4.71 -3.82,8.53 -8.53,8.53h-196.27v51.2c0,4.71 3.82,8.53 8.53,8.53h256c4.71,0 8.53,-3.82 8.53,-8.53v-51.2h-25.6c-4.71,0 -8.53,-3.82 -8.53,-8.53c0,-4.71 3.82,-8.53 8.53,-8.53h25.6v-332.8h-196.27c-4.71,0 -8.53,-3.82 -8.53,-8.53c0,-4.71 3.82,-8.53 8.53,-8.53h196.27zM170.67,469.33c0,4.71 -3.82,8.53 -8.53,8.53h-17.07c-4.71,0 -8.53,-3.82 -8.53,-8.53c0,-4.71 3.82,-8.53 8.53,-8.53h17.07c4.71,0 8.53,3.82 8.53,8.53zM95.22,144.64l30.98,46.47c5.25,7.95 3.53,18.6 -3.97,24.48l-17.4,13.53c-0.45,0.32 -0.59,0.92 -0.33,1.41l1.43,2.61c8.08,14.8 18.58,28.14 31.05,39.48c11.34,12.48 24.69,22.97 39.48,31.05l2.56,1.42c0.49,0.26 1.09,0.12 1.42,-0.33l13.53,-17.39c5.89,-7.49 16.53,-9.23 24.49,-3.98l46.54,30.98c8.11,5.39 10.54,16.2 5.51,24.53l-11.69,19.43c-4.21,7.15 -11.02,12.39 -19.01,14.62c-6.25,1.69 -12.69,2.53 -19.17,2.5c-27.49,0 -67.12,-14.21 -119.71,-66.78c-66.41,-66.41 -71.62,-112.17 -64.3,-138.87c2.23,-7.99 7.47,-14.82 14.62,-19.03l19.44,-11.65c8.34,-5.01 19.14,-2.59 24.53,5.5zM80.06,153.6c-0.21,0 -0.42,0.06 -0.6,0.17l-19.42,11.65c-3.38,1.96 -5.87,5.14 -6.95,8.89c-5.02,18.29 -3.91,58.49 59.9,122.29c63.8,63.81 103.98,64.91 122.29,59.87c3.75,-1.08 6.94,-3.57 8.89,-6.95l11.65,-19.42c0.32,-0.53 0.17,-1.22 -0.35,-1.56l-46.45,-30.97c-0.51,-0.33 -1.18,-0.22 -1.55,0.26l-13.53,17.39c-5.47,7.13 -15.35,9.16 -23.19,4.76l-2.47,-1.35c-16.25,-8.83 -30.91,-20.31 -43.38,-33.97c-13.66,-12.47 -25.14,-27.13 -33.97,-43.38l-1.35,-2.48c-4.4,-7.84 -2.37,-17.72 4.76,-23.18l17.4,-13.52c0.47,-0.38 0.58,-1.05 0.25,-1.56l-14.13,-21.15l-16.85,-25.28c-0.21,-0.32 -0.57,-0.51 -0.96,-0.51z" />
	</g>
</svg>