<?xml version="1.0" encoding="utf-8"?>
<!-- Generator: Adobe Illustrator 22.1.0, SVG Export Plug-In . SVG Version: 6.00 Build 0)  -->
<svg version="1.1" id="Layer_1" xmlns="http://www.w3.org/2000/svg" xmlns:xlink="http://www.w3.org/1999/xlink" x="0px" y="0px"
	 viewBox="0 0 311.1 103.9" style="enable-background:new 0 0 311.1 103.9;" xml:space="preserve">
<style type="text/css">
	.st0{fill:#0496FF;}
	.st1{fill:#00487C;}
</style>
<path class="st0" d="M178.2,37.8c0,0.4-0.1,1-0.2,1.9c-0.1,0.9-0.5,1.7-1.1,2.6c-0.6,0.9-1.6,1.6-2.8,2.3c-1.3,0.7-3,1-5.3,1
	c-0.8,0-1.7,0-2.5-0.1s-1.7-0.3-2.5-0.6s-1.6-0.7-2.4-1.3c-0.8-0.6-1.5-1.4-2.2-2.3L143.5,19c-0.2-0.2-0.4-0.4-0.6-0.7
	c-0.2-0.2-0.4-0.4-0.6-0.4c-0.1,0-0.2,0.1-0.5,0.2c-0.2,0.1-0.4,0.5-0.4,1.1v25.9h-10.9V8.7c0-1.4,0.3-2.6,0.8-3.6s1.3-1.8,2.2-2.4
	s2-1.1,3.2-1.3c1.2-0.3,2.4-0.4,3.7-0.4c0.6,0,1.3,0,2.1,0.1s1.6,0.2,2.4,0.5c0.8,0.3,1.7,0.7,2.5,1.2s1.6,1.3,2.2,2.2l15.9,22.5
	c0.2,0.2,0.3,0.4,0.5,0.7c0.2,0.2,0.4,0.4,0.7,0.4s0.5-0.1,0.6-0.4s0.1-0.5,0.1-0.7v-26h10.9L178.2,37.8L178.2,37.8z"/>
<path class="st0" d="M191.7,45.1c-0.9,0-1.8-0.1-2.7-0.2c-0.9-0.1-1.8-0.6-2.6-1.3c-1-0.8-1.6-1.7-1.7-2.6c-0.2-0.9-0.2-1.9-0.2-2.9
	v-30c0-0.8,0.1-1.7,0.3-2.6s0.7-1.7,1.6-2.4c0.8-0.7,1.7-1.2,2.7-1.4s1.8-0.3,2.6-0.3H223V12h-21.6c-0.4,0-0.8,0.1-1.2,0.2
	c-0.4,0.1-0.7,0.3-1,0.5c-0.3,0.3-0.5,0.6-0.6,1.1c-0.1,0.4-0.1,0.8-0.1,1.1v3.3h23.8v9.5h-23.8v4.7c0,0.5,0.1,0.8,0.2,1.1
	c0.1,0.2,0.3,0.4,0.4,0.6c0.3,0.3,0.7,0.5,1.2,0.5s1,0,1.4,0H223v10.6L191.7,45.1L191.7,45.1z"/>
<path class="st0" d="M245.2,45.1c-1.7,0-3.3-0.1-4.7-0.2c-1.4-0.1-2.8-0.4-4-0.8c-1.2-0.4-2.3-0.9-3.4-1.6c-1-0.7-2-1.6-2.9-2.7
	c-0.7-0.8-1.2-1.7-1.7-2.7s-0.9-2.1-1.2-3.4c-0.3-1.3-0.6-2.7-0.7-4.3c-0.2-1.6-0.2-3.5-0.2-5.6c0-3.7,0.2-6.9,0.7-9.6
	s1.5-5.1,3.1-7.1c1-1.3,2.1-2.3,3.4-3.1c1.2-0.7,2.5-1.3,3.9-1.7s2.7-0.6,4.1-0.7c1.4-0.1,2.7-0.2,3.9-0.2H264v10.9h-11.7
	c-1.2,0-2.2,0-3.2,0s-1.9,0.1-2.7,0.4c-0.8,0.2-1.6,0.6-2.2,1c-0.7,0.5-1.2,1.1-1.7,2c-0.3,0.5-0.6,1.2-0.8,1.8
	c-0.2,0.7-0.3,1.4-0.4,2.1c-0.1,0.7-0.1,1.4-0.2,2.1c0,0.7-0.1,1.3-0.1,1.8c0,1.2,0,2.2,0.1,3.1c0.1,0.8,0.2,1.5,0.3,2.1
	s0.2,1,0.3,1.3s0.2,0.6,0.3,0.7c0.5,0.9,1.1,1.5,1.8,2s1.5,0.8,2.5,1c0.9,0.2,1.9,0.3,3,0.4c1.1,0,2.2,0.1,3.4,0.1h12.1v10.9H245.2
	L245.2,45.1z"/>
<path class="st1" d="M129.1,92.6h24.2c1,0,1.7-0.1,2-0.4s0.4-0.6,0.4-0.9c0-0.7-0.3-1.2-0.9-1.5c-0.6-0.3-1.2-0.5-1.9-0.7L136,84.3
	c-1.3-0.3-2.3-0.8-3.1-1.5c-0.8-0.6-1.4-1.3-1.9-1.8c-1-1.4-1.7-2.9-2-4.7c-0.3-1.7-0.4-3.4-0.4-5.1c0-1.4,0.1-2.8,0.4-4.4
	c0.3-1.6,1.1-3,2.3-4.3c0.7-0.7,1.7-1.3,2.9-1.9c1.2-0.6,2.7-0.8,4.6-0.8h28.8v10.9h-22.2c-0.8,0-1.4,0-1.7,0.1
	c-0.3,0-0.5,0.1-0.6,0.2c-0.5,0.2-0.7,0.6-0.7,1.2c0,0.7,0.4,1.2,1.2,1.6c0.8,0.3,1.6,0.6,2.5,0.8l14.7,3.9c1,0.2,2,0.6,3.2,1.1
	c1.1,0.5,2.1,1.1,2.9,1.9c0.7,0.7,1.2,1.4,1.6,2.3c0.4,0.9,0.7,1.7,0.9,2.6s0.3,1.8,0.4,2.7c0.1,0.9,0.1,1.7,0.1,2.4
	c0,1.3-0.1,2.7-0.3,4.3c-0.2,1.6-0.8,3-1.8,4.4c-0.6,0.8-1.3,1.5-2,1.9c-0.7,0.5-1.4,0.8-2.2,1s-1.5,0.3-2.3,0.4
	c-0.8,0-1.5,0.1-2.3,0.1h-30v-11H129.1z"/>
<path class="st1" d="M226.1,103.5V67.2c0-0.9,0.1-1.9,0.4-2.8c0.2-1,0.8-1.9,1.6-2.7c0.9-0.9,1.9-1.4,2.9-1.6c1-0.2,2-0.3,2.7-0.3
	h32.5v10.6h-23.4c-0.3,0-0.7,0-1,0.1c-0.4,0.1-0.7,0.2-1,0.5c-0.2,0.2-0.4,0.6-0.5,1s-0.2,0.9-0.2,1.3v3.1h19v9.9h-19v17.2H226.1
	L226.1,103.5z"/>
<polygon class="st1" points="281.4,103.5 281.4,70.7 265.8,70.7 265.8,59.8 311.1,59.8 311.1,70.7 295.5,70.7 295.5,103.5 "/>
<path class="st1" d="M0,59.3v36.1c0,4.3,3.5,7.7,7.7,7.7h36.1c4.3,0,7.7-3.5,7.7-7.7V85.1c0-4.3-3.5-7.7-7.7-7.7H33.5
	c-4.3,0-7.7-3.5-7.7-7.7V59.3c0-4.3,3.5-7.7,7.7-7.7h10.3c4.3,0,7.7-3.5,7.7-7.7V33.5c0-4.3-3.5-7.7-7.7-7.7H33.5
	c-4.3,0-7.7,3.5-7.7,7.7v10.3c0,4.3-3.5,7.7-7.7,7.7H7.8C3.5,51.6,0,55.1,0,59.3L0,59.3z"/>
<path class="st0" d="M103.2,43.9V7.7c0-4.3-3.5-7.7-7.7-7.7H59.3c-4.3,0-7.7,3.5-7.7,7.7V18c0,4.3,3.5,7.7,7.7,7.7h10.3
	c4.3,0,7.7,3.5,7.7,7.7v10.3c0,4.3-3.5,7.7-7.7,7.7H59.3c-4.3,0-7.7,3.5-7.7,7.7v10.3c0,4.3,3.5,7.7,7.7,7.7h10.3
	c4.3,0,7.7-3.5,7.7-7.7V59.3c0-4.3,3.5-7.7,7.7-7.7h10.3C99.7,51.6,103.2,48.1,103.2,43.9L103.2,43.9z"/>
<path class="st1" d="M85.2,77.7h10.4c4.1,0,7.5,3.4,7.5,7.5v10.4c0,4.1-3.4,7.5-7.5,7.5H85.2c-4.1,0-7.5-3.4-7.5-7.5V85.2
	C77.7,81.1,81.1,77.7,85.2,77.7L85.2,77.7z"/>
<path class="st1" d="M221,77c-0.1-1.6-0.3-3.3-0.6-4.8c-0.3-1.6-0.8-3.1-1.5-4.6s-1.6-2.7-2.7-3.8c-1.2-1.1-2.5-1.9-4-2.5
	s-3.1-1.1-4.8-1.3c-1.7-0.3-3.4-0.5-5.1-0.5c-1.7-0.1-3.5-0.1-5.1-0.1c-1.7,0-3.4,0-5.1,0.1c-1.7,0.1-3.5,0.2-5.1,0.5
	c-1.7,0.3-3.3,0.7-4.8,1.3s-2.9,1.4-4,2.5c-1.2,1.1-2.1,2.4-2.8,3.8c-0.6,1.5-1.1,3-1.5,4.6c-0.3,1.6-0.5,3.2-0.6,4.8
	c-0.1,1.6-0.1,3.2-0.1,4.6c0,1.5,0,3,0.1,4.6s0.3,3.2,0.6,4.8c0.3,1.6,0.8,3.1,1.5,4.6c0.6,1.5,1.6,2.7,2.8,3.9
	c1.2,1.1,2.5,1.9,4,2.5s3.1,1.1,4.8,1.3c1.7,0.3,3.4,0.5,5.2,0.5c1.8,0.1,3.5,0.1,5.1,0.1s3.3,0,5.1-0.1s3.5-0.2,5.2-0.5
	s3.3-0.7,4.8-1.3c1.5-0.6,2.9-1.4,4-2.5c1.2-1.1,2.1-2.4,2.7-3.9c0.7-1.5,1.2-3,1.5-4.6s0.5-3.2,0.6-4.8c0.1-1.6,0.1-3.2,0.1-4.6
	C221.1,80.2,221.1,78.6,221,77z M206.4,86.2c-0.1,1.3-0.6,2.5-1.4,3.7c-0.5,0.7-1,1.3-1.6,1.7s-1.1,0.8-1.7,1
	c-0.6,0.2-1.3,0.3-2.1,0.4s-1.6,0.1-2.5,0.1s-1.7,0-2.5-0.1s-1.5-0.2-2.1-0.4c-0.6-0.2-1.2-0.5-1.8-1c-0.6-0.4-1.1-1-1.5-1.7
	c-0.7-1.1-1.2-2.3-1.3-3.7c-0.2-1.4-0.3-2.9-0.3-4.6c0-1.8,0.1-3.4,0.2-4.6c0.1-1.3,0.6-2.5,1.4-3.7c0.5-0.7,1-1.3,1.5-1.7
	c0.5-0.4,1.1-0.7,1.8-1c0.7-0.2,1.4-0.4,2.1-0.4c0.7-0.1,1.6-0.1,2.5-0.1c1.8,0,3.4,0.2,4.6,0.5c1.2,0.4,2.4,1.2,3.3,2.7
	c0.4,0.6,0.7,1.2,1,1.8c0.2,0.6,0.4,1.2,0.5,1.8c0.1,0.6,0.1,1.3,0.2,2.1c0,0.7,0,1.6,0,2.6C206.7,83.4,206.6,84.9,206.4,86.2z"/>
</svg>
