<?xml version="1.0" encoding="utf-8"?><svg xmlns="http://www.w3.org/2000/svg" xmlns:xlink="http://www.w3.org/1999/xlink"><symbol viewBox="0 0 341.5 483.5" id="form-clip" xmlns="http://www.w3.org/2000/svg"><path d="M59.2 478.1c-46.6-17-70.8-68.7-53.8-115.4L108.7 79c22.6-62.2 91.6-94.4 153.8-71.7s94.4 91.6 71.7 153.8L231 444.8l-28.2-10.3 103.3-283.8c17-46.6-7.2-98.4-53.8-115.4s-98.4 7.2-115.4 53.8L33.6 373c-11.3 31.1 4.8 65.6 35.9 76.9s65.6-4.8 76.9-35.9l82.8-227.4c5.6-15.5-2.4-32.8-17.9-38.5-15.5-5.6-32.8 2.4-38.5 17.9L90 393.5l-28.2-10.3 82.8-227.4c11.3-31.1 45.8-47.2 76.9-35.9s47.2 45.8 35.9 76.9l-82.8 227.4c-17 46.7-68.8 70.9-115.4 53.9z" fill="#666"/></symbol><symbol viewBox="0 0 24 18" id="form-mail" xmlns="http://www.w3.org/2000/svg"><path d="M24 18H0V0h24v18zM1 1.5V17h22V1.5l-11 10-11-10zM22.1 1H1.9L12 10.2 22.1 1z"/></symbol><symbol viewBox="0 0 639.4 588.2" id="form-msg" xmlns="http://www.w3.org/2000/svg"><path d="M551.5 0H87.9C39.4 0 0 39.4 0 87.9v283.7c0 48.4 39.3 87.7 87.6 87.9v128.7l185-128.7h278.9c48.5 0 87.9-39.4 87.9-87.9V87.9c0-48.5-39.5-87.9-87.9-87.9zm50.4 371.6c0 27.8-22.6 50.4-50.4 50.4H260.8L125 516.5V422H87.9c-27.8 0-50.4-22.6-50.4-50.4V87.9c0-27.8 22.6-50.4 50.4-50.4h463.6c27.8 0 50.4 22.6 50.4 50.4v283.7z"/><path d="M171.1 132.4h297.1v37.5H171.1v-37.5zm0 79.9h297.1v37.5H171.1v-37.5zm0 79.9h297.1v37.5H171.1v-37.5z"/></symbol><symbol viewBox="0 0 32 32" id="form-phone" xmlns="http://www.w3.org/2000/svg"><path d="M5.4-1.1l-1 .7C3.1.6 2.2 2 1.9 3.9c-.8 4.7 1.4 11.6 5.9 17.9 6.4 9.2 15.1 13.9 19.6 10.8l1-.7c.8-.5 1.3-1.4 1.5-2.3.2-.9 0-1.9-.6-2.7l-2.9-4.2c-1.1-1.6-3.3-2-4.9-.9l-1 .7c-1.1.8-3.5-.1-6.8-4.9-2.8-4.1-3-6.1-2.8-7 .1-.5.3-.8.6-1l1-.7c1.6-1.1 2-3.4.9-4.9L10.5-.2C9.8-1 9-1.5 8.1-1.6c-1-.2-1.9 0-2.7.5zM8.7 1l2.9 4.2c.5.7.3 1.7-.4 2.1l-1 .7c-.8.5-1.3 1.4-1.5 2.3-.4 2.1.7 5 3.2 8.5 5.1 7.3 8.4 6.2 9.6 5.3l1-.7c.7-.5 1.6-.3 2.1.4l2.9 4.2c.5.7.3 1.7-.4 2.1l-1 .7C22.7 33.4 15 28.7 9.4 20.6 5.3 14.8 3.2 8.4 3.9 4.3c.2-1.4.8-2.4 1.6-3l1-.7c.3-.2.7-.3 1.1-.3.5.1.9.3 1.1.7z"/></symbol><symbol viewBox="0 0 57 57" id="form-search" xmlns="http://www.w3.org/2000/svg"><path d="M55.1 51.9L41.6 37.8C45.1 33.6 47 28.4 47 23 47 10.3 36.7 0 24 0S1 10.3 1 23s10.3 23 23 23c4.8 0 9.3-1.4 13.2-4.2L50.8 56c.6.6 1.3.9 2.2.9.8 0 1.5-.3 2.1-.8 1.2-1.1 1.2-3 0-4.2zM24 6c9.4 0 17 7.6 17 17s-7.6 17-17 17S7 32.4 7 23 14.6 6 24 6z"/></symbol><symbol viewBox="0 0 32 32" id="form-user" xmlns="http://www.w3.org/2000/svg"><path d="M16 22c5 0 9-4.9 9-11S21 0 16 0c-2.4 0-4.7 1.2-6.4 3.3C7.9 5.4 7 8.1 7 11c0 6.1 4 11 9 11zm0-20c3.9 0 7 4 7 9s-3.1 9-7 9-7-4-7-9 3.1-9 7-9zm7 18c-.6 0-1 .4-1 1s.4 1 1 1c3.9 0 7 3.1 7 7 0 .6-.4 1-1 1H3c-.6 0-1-.4-1-1 0-3.9 3.1-7 7-7 .6 0 1-.4 1-1s-.4-1-1-1c-5 0-9 4-9 9 0 1.7 1.3 3 3 3h26c1.7 0 3-1.3 3-3 0-5-4-9-9-9z"/></symbol><symbol viewBox="0 0 420 512" id="icon-calc" xmlns="http://www.w3.org/2000/svg"><path d="M332.4 469.2h18c16.5 0 30-13.5 30-30V222.5c0-16.5-13.5-30-30-30H69.6c-16.5 0-30 13.5-30 30v216.7c0 16.5 13.5 30 30 30h193.9c5.5 0 10-4.5 10-10V212.5h77c5.5 0 10 4.5 10 10v216.7c0 5.5-4.5 10-10 10h-18c-5.5 0-10 4.5-10 10-.1 5.5 4.4 10 9.9 10zM166.5 340.9h87v108.3h-87V340.9zM69.6 212.5h77v108.4h-87v-98.4c0-5.5 4.5-10 10-10zm-10 226.7v-98.3h87v108.3h-77c-5.5 0-10-4.5-10-10zm193.9-118.3h-87V212.5h87v108.4zM380.4 72.8c0-16.5-13.5-30-30-30H69.6c-16.5 0-30 13.5-30 30v67c0 16.5 13.5 30 30 30h280.9c16.5 0 30-13.5 30-30v-67zm-20 66.9c0 5.5-4.5 10-10 10H69.6c-5.5 0-10-4.5-10-10v-67c0-5.5 4.5-10 10-10h280.9c5.5 0 10 4.5 10 10v67z"/><path d="M87.9 276.7H93v5.1c0 5.5 4.5 10 10 10s10-4.5 10-10v-5.1h5.1c5.5 0 10-4.5 10-10s-4.5-10-10-10H113v-5.1c0-5.5-4.5-10-10-10s-10 4.5-10 10v5.1h-5.1c-5.5 0-10 4.5-10 10s4.5 10 10 10zm107 0h30.3c5.5 0 10-4.5 10-10s-4.5-10-10-10h-30.3c-5.5 0-10 4.5-10 10s4.5 10 10 10zM224.1 395l8.1-8.1c3.9-3.9 3.9-10.2 0-14.1-3.9-3.9-10.2-3.9-14.1 0l-8.1 8.1-8.1-8.1c-3.9-3.9-10.2-3.9-14.1 0s-3.9 10.2 0 14.1l8.1 8.1-8.1 8.1c-3.9 3.9-3.9 10.2 0 14.1 2 2 4.5 2.9 7.1 2.9s5.1-1 7.1-2.9l8.1-8.1 8.1 8.1c2 2 4.5 2.9 7.1 2.9 2.6 0 5.1-1 7.1-2.9 3.9-3.9 3.9-10.2 0-14.1l-8.3-8.1zm-98.9-22.2c-3.9-3.9-10.2-3.9-14.1 0l-30.3 30.3c-3.9 3.9-3.9 10.2 0 14.1 2 2 4.5 2.9 7.1 2.9s5.1-1 7.1-2.9l30.3-30.3c3.8-3.8 3.8-10.1-.1-14.1zM302 324.7h30c5.5 0 10-4.5 10-10s-4.5-10-10-10h-30c-5.5 0-10 4.5-10 10s4.4 10 10 10zm40 22.4c0-5.5-4.5-10-10-10h-30c-5.5 0-10 4.5-10 10s4.5 10 10 10h30c5.5 0 10-4.5 10-10z"/><path d="M390 0H130c-5.5 0-10 4.5-10 10s4.5 10 10 10h260c5.5 0 10 4.5 10 10v452c0 5.5-4.5 10-10 10H30c-5.5 0-10-4.5-10-10V30c0-5.5 4.5-10 10-10h31c5.5 0 10-4.5 10-10S66.6 0 61 0H30C13.5 0 0 13.5 0 30v452c0 16.5 13.5 30 30 30h360c16.5 0 30-13.5 30-30V30c0-16.5-13.5-30-30-30z"/><path d="M89.8 20h.2c5.5 0 10-4.5 10-10S95.6 0 90 0h-.3c-5.5 0-10 4.5-10 10s4.5 10 10.1 10zm35 99.7H87.9c-5.5 0-10 4.5-10 10s4.5 10 10 10h36.9c5.5 0 10-4.5 10-10s-4.5-10-10-10zm69.1 0H157c-5.5 0-10 4.5-10 10s4.5 10 10 10h36.9c5.5 0 10-4.5 10-10s-4.5-10-10-10zm69.1 0h-36.9c-5.5 0-10 4.5-10 10s4.5 10 10 10H263c5.5 0 10-4.5 10-10s-4.5-10-10-10zm69.1 0h-36.9c-5.5 0-10 4.5-10 10s4.5 10 10 10h36.9c5.5 0 10-4.5 10-10s-4.5-10-10-10zm-28.7 329.5c-5.5 0-10 4.5-10 10s4.5 10 10 10h.3c5.5 0 10-4.5 10-10s-4.5-10-10-10h-.3z"/></symbol><symbol viewBox="0 0 512 460" id="icon-msg" xmlns="http://www.w3.org/2000/svg"><path d="M256 100c-5.5 0-10 4.5-10 10s4.5 10 10 10 10-4.5 10-10-4.5-10-10-10zM90 280c5.5 0 10-4.5 10-10s-4.5-10-10-10-10 4.5-10 10 4.5 10 10 10z"/><path d="M336 0c-90 0-163.9 62.1-169.6 140.3C80.6 144.6 0 206.4 0 290c0 34.9 13.8 68.8 39 95.6 5 20.5-1.1 42.3-16.1 57.3-2.9 2.9-3.7 7.2-2.2 10.9s5.2 6.2 9.2 6.2c28.5 0 56-11.2 76.4-30.9 19.9 6.8 45.9 10.9 69.6 10.9 90 0 163.9-62.1 169.6-140.2 20.9-.9 42.7-4.8 59.9-10.7C426 308.8 453.5 320 482 320c4 0 7.7-2.4 9.2-6.2 1.5-3.7.7-8-2.2-10.9-15-15-21.1-36.8-16.1-57.3 25.2-26.8 39-60.7 39-95.6C512 63.1 425.2 0 336 0zM176 420c-23.6 0-50.5-4.6-68.5-11.8-3.9-1.5-8.3-.5-11.1 2.5a90.141 90.141 0 01-44.9 26.6c9.4-18.1 11.8-39.3 6.1-59.5-.5-1.6-1.3-3-2.4-4.2C32.5 350.3 20 320.6 20 290c0-70.5 71.4-130 156-130 79.9 0 150 55.5 150 130 0 71.7-67.3 130-150 130zm280.8-186.4c-1.2 1.2-2 2.6-2.4 4.2-5.7 20.2-3.3 41.5 6.1 59.5-17.1-4.2-32.8-13.4-44.9-26.6-2.8-3.1-7.2-4.1-11.1-2.5-15.6 6.2-37.9 10.5-58.9 11.6-2.9-37.8-21.8-73.4-54-99.8H422c5.5 0 10-4.5 10-10s-4.5-10-10-10H260.8c-22.7-11.6-48.2-18.3-74.4-19.7C192.2 73.1 257.1 20 336 20c84.6 0 156 59.5 156 130 0 30.6-12.5 60.3-35.2 83.6z"/><path d="M256 260H130c-5.5 0-10 4.5-10 10s4.5 10 10 10h126c5.5 0 10-4.5 10-10s-4.5-10-10-10zm0 60H90c-5.5 0-10 4.5-10 10s4.5 10 10 10h166c5.5 0 10-4.5 10-10s-4.5-10-10-10zm166-220H296c-5.5 0-10 4.5-10 10s4.5 10 10 10h126c5.5 0 10-4.5 10-10s-4.5-10-10-10z"/></symbol><symbol viewBox="0 0 270.4 98.1" id="iconSheer"><path d="M175.1 51.8c.2 1.2.3 2.1.5 3 2 8.4 8.6 14 17.2 14.7 7.6.6 13.6-2.3 18-8.5 2.2-3 5.7-3.5 8.5-1.1 1.6 1.4 1.8 3.2.5 4.9-.7.9-1.4 1.8-2.1 2.8-2.9 4-6.7 6.7-11.4 8.3-7.6 2.6-15.2 3-22.7.2-10.1-3.7-16.1-11.1-17.8-21.7-1-6.5-.4-13 2.6-18.9 4.3-8.4 11.1-13.6 20.5-15.1 6.2-1 12.4-.4 18.2 2.4 8.2 3.9 13.2 10.5 15.1 19.3.5 2.4.7 4.9.9 7.3.2 1.5-.5 2.2-2.1 2.3h-44.1c-.4.1-.9.1-1.8.1zm38.3-9.2c-1.2-7.9-10.7-14.7-19.4-14.2-9.1.5-18.2 7.5-18.5 14.2h37.9zm-101 9c.1.8.2 1.4.3 2 1.7 9.3 9.3 15.7 18.7 15.9 7.1.1 12.7-2.8 16.8-8.6 2.2-3.1 6.1-3.4 8.8-.7 1.3 1.4 1.5 3 .3 4.6-.5.8-1.1 1.5-1.7 2.2-3.1 4.5-7.3 7.4-12.5 9.1-7.6 2.5-15.2 2.7-22.5-.2-10.6-4.1-16.4-12.1-17.6-23.3-.6-5.4-.1-10.7 2.2-15.6 4.3-9.4 11.4-15.2 21.8-16.6 5.5-.7 11-.3 16.1 1.8 9.2 3.8 14.6 10.9 16.6 20.6.4 2.2.6 4.5.7 6.7.1 1.8-.3 2.2-2.2 2.2h-43.5c-.7-.1-1.4-.1-2.3-.1zm38.4-9.1c-1.2-7.8-10.4-14.4-19.4-14.2-8.8.2-17.9 7.2-18.6 14.2h38zm101 13.5c.7.6 1.1 1 1.5 1.4 4.9 4.2 9.8 8.3 14.6 12.5.3.3.7.6 1 .9 1.8 1.8 2 4.4.3 6.2-1.6 1.8-4.2 2.1-6.1.5-3.4-2.8-6.7-5.7-10-8.5-4.8-4.1-9.5-8.1-14.3-12.2-.4-.4-.9-.7-1.6-1.3 0 1-.1 1.6-.1 2.3v36.1c-.2 2.5-2.1 4.3-4.6 4.2-2.4-.1-4.1-1.9-4.2-4.4V21.9c0-1.6.2-1.9 1.7-1.9 2.1-.1 4.2-.1 6.2-.1 5 0 10.1.2 15.1-.1 8.4-.4 17.8 6.4 18.7 16.3.8 8.9-5.2 17.3-14.3 19.1-1.1.2-2.3.5-3.9.8zm-15.3-6.9c.5.1.9.1 1.2.1h12.6c1.2 0 2.4-.1 3.6-.5 3.9-1.2 7-3.5 8-7.7 1.7-7.1-3.6-13.7-10.9-13.7h-13c-.5 0-1 .1-1.5.1v21.7zM88.5 52H63.9c0 .7-.1 1.4-.1 2v18.9c0 .8 0 1.6-.2 2.3-.6 1.9-2.6 3.1-4.5 3-2.1-.2-3.8-1.8-4.1-3.9-.1-.5 0-1 0-1.5V5.4c0-.9.1-1.8.4-2.6.6-2 2.6-3 4.7-2.8 1.9.3 3.5 2 3.7 3.9.1.6 0 1.2 0 1.8v34.7c0 .7.1 1.4.1 2 1.5.4 22.9.4 24.5 0 0-.5.1-1.1.1-1.7V23.9c.2-2.3 1.9-4 4.2-4.1 2.3-.1 4.3 1.6 4.6 3.9.1.5 0 1 0 1.5v48.9c-.3 2.3-2.3 4.1-4.5 4-2.3-.1-4.1-1.9-4.3-4.2V52zM25 78.3c-5.9-.1-11.4-1.4-16.5-4.4-2.2-1.3-4.2-2.9-5.8-4.8-.8-1-1.6-2.1-2.2-3.3-1-1.9-.6-3.4.9-4.9 1.7-1.6 4.1-2.3 6.4-.7C9 61 10 62 10.9 63c.9.9 1.6 1.9 2.5 2.8 2.7 2.7 6 4.2 9.8 4.6 3.5.4 7 .3 10.4-.9 1.4-.5 2.8-1.2 4-2.1 2.9-2.2 3-5.9.2-8.2-1.3-1.1-2.9-1.9-4.5-2.6-4-1.7-8.1-2.9-12.3-4-3.4-.8-6.7-1.9-10.1-2.9-1.3-.4-2.5-1.1-3.7-1.7-3.2-1.7-5-4.4-5.5-7.9-1-7.1 1.7-12.8 8.1-15.9 9.8-4.8 19.7-5.2 29.4.4 1.8 1 3.5 2.5 5.1 3.9 1.2 1 2 2.5 2.5 4 .8 2.6-.5 3.9-2.8 4.4-2 .4-3.8-.2-5.2-1.7-.3-.3-.5-.6-.7-.9-2.3-3.4-5.6-5.3-9.6-6.1-4-.7-8-.6-11.8.9-1.4.5-2.8 1.3-3.9 2.3-2.7 2.3-2.7 5.4-.1 7.8 1.7 1.6 3.7 2.5 5.9 3 4.8 1.2 9.7 2.4 14.5 3.6 3.1.8 6.1 1.8 8.9 3.4 3.6 1.9 6.2 4.7 7.1 8.8 1.1 5 0 9.4-3.9 13-4.4 4-9.5 6.3-15.4 7-1.7.1-3.3.2-4.8.3z"/></symbol></svg>