<?xml version="1.0" encoding="utf-8"?>
<!-- Generator: Adobe Illustrator 22.1.0, SVG Export Plug-In . SVG Version: 6.00 Build 0)  -->
<svg version="1.1" id="Capa_1" xmlns="http://www.w3.org/2000/svg" xmlns:xlink="http://www.w3.org/1999/xlink" x="0px" y="0px"
	 viewBox="0 0 55.7019997 55.7019997" style="enable-background:new 0 0 55.7019997 55.7019997;" xml:space="preserve">
<style type="text/css">
	.st0{fill:#00487C;}
	.st1{fill:#0496FF;}
</style>
<path class="st0" d="M27.8509998-0.0000067C12.4940004-0.0000067,0,12.4939938,0,27.8509922
	S12.4940004,55.701992,27.8509998,55.701992s27.8509998-12.4939995,27.8509998-27.8509998
	C55.7010002,12.4939938,43.2080002-0.0000067,27.8509998-0.0000067z M27.8509998,51.2129936
	c-12.882,0-23.3619995-10.4799995-23.3619995-23.3630009c0-12.881999,10.4799995-23.3619995,23.3619995-23.3619995
	s23.3619976,10.4809999,23.3619976,23.362999S40.7330017,51.2129936,27.8509998,51.2129936z"/>
<path class="st1" d="M36.7290001,18.9699917l-13,13.0010014l-4.757-4.757c-0.8759995-0.8770008-2.2970009-0.8770008-3.1730003,0
	c-0.8769999,0.8759995-0.8769999,2.2970009,0,3.1730003l6.3439999,6.3440018
	c0.4379997,0.4379997,1.0130005,0.6580009,1.5869999,0.6580009s1.1480007-0.2190018,1.5860004-0.6580009l14.5869999-14.5869999
	c0.8759995-0.8770008,0.8759995-2.296999,0-3.1739998C39.026001,18.0939922,37.605999,18.0939922,36.7290001,18.9699917z"/>
</svg>
