<?xml version="1.0" encoding="utf-8"?>
<!-- Generator: Adobe Illustrator 22.0.1, SVG Export Plug-In . SVG Version: 6.00 Build 0)  -->
<svg version="1.1" id="Layer_1" xmlns="http://www.w3.org/2000/svg" xmlns:xlink="http://www.w3.org/1999/xlink" x="0px" y="0px"
	 viewBox="0 0 164 164" style="enable-background:new 0 0 164 164;" xml:space="preserve">
<style type="text/css">
	.st0{fill:url(#SVGID_1_);}
	.st1{fill:#D6D0B8;}
	.st2{fill:#EF4C51;}
	.st3{fill:#2D1705;}
	.st4{fill:#3B2314;}
	.st5{fill:#A02F33;}
	.st6{fill:#F16C6A;}
	.st7{fill:#B33D16;}
	.st8{fill:#A83912;}
	.st9{fill:#D5815C;}
</style>
<g>
	<radialGradient id="SVGID_1_" cx="82" cy="82" r="82" gradientUnits="userSpaceOnUse">
		<stop  offset="0.6154" style="stop-color:#FFFFFF"/>
		<stop  offset="0.727" style="stop-color:#FFFBFA"/>
		<stop  offset="0.8576" style="stop-color:#FDEFEC"/>
		<stop  offset="0.9973" style="stop-color:#FBDAD5"/>
		<stop  offset="1" style="stop-color:#FBDAD4"/>
	</radialGradient>
	<circle class="st0" cx="82" cy="82" r="82"/>
	<g>
		<path class="st1" d="M121.8,41.7c0.5-0.8-0.1-1.8-4.4-4.9c-2.7-1.9-6.4-4.3-10.5-6.7c-4.1-2.4-8-4.6-10.9-6
			c-4.8-2.3-5.9-2.3-6.4-1.5L56,79.2l1.2,0.7c0,0,0,0,0,0.1c0.9-0.5,7.1,1.8,16.5,7.3c9.4,5.6,13.6,9.5,13.5,10.4c0,0,0,0,0,0
			l1.2,0.7L121.8,41.7z"/>
		<path class="st2" d="M83.3,93.1l-10.8-7.3l-0.1-0.1l-11.6-6c0.1,4.8-3.8,22.4-15.2,32.4c-3.1,2.8-15.6,15.7-3.2,24l0,0
			c0,0,0,0,0.1,0c0,0,0,0,0.1,0l0,0c13.2,6.9,18.6-10.2,19.6-14.3C65.5,107.2,79.1,95.3,83.3,93.1z"/>
		<g>
			<path class="st3" d="M57.1,79.9C57.1,79.9,57.1,79.9,57.1,79.9L56,79.2l33.6-56.6c0.5-0.8,1.6-0.8,6.4,1.5c3,1.4,6.9,3.6,10.9,6
				c4.1,2.4,7.8,4.8,10.5,6.7c4.3,3.1,4.9,4.1,4.4,4.9L88.2,98.3L87,97.6c0,0,0,0,0,0c0.1-0.9-4.1-4.8-13.5-10.4
				C64.1,81.7,57.9,79.4,57.1,79.9z M90.6,23.4L57.9,78.6c1,0.1,2.6,0.6,4.9,1.6c3.1,1.4,7.3,3.5,11.4,6c4,2.4,7.6,4.8,10.1,6.8
				c1.7,1.4,2.9,2.5,3.5,3.3l32.7-55.1c-0.6-1.1-6-5-14.3-10C98,26.3,91.9,23.5,90.6,23.4z"/>
		</g>
		<g>
			
				<rect x="43.4" y="51.3" transform="matrix(0.5107 -0.8597 0.8597 0.5107 -7.5915 90.3529)" class="st3" width="64.4" height="1.2"/>
			
				<rect x="46.5" y="52.1" transform="matrix(0.5107 -0.8598 0.8598 0.5107 -7.1059 92.9764)" class="st3" width="63.3" height="1.2"/>
			
				<rect x="48.7" y="53.5" transform="matrix(0.5106 -0.8598 0.8598 0.5106 -7.1496 95.595)" class="st3" width="63.3" height="1.2"/>
			<rect x="51" y="54.8" transform="matrix(0.5107 -0.8598 0.8598 0.5107 -7.201 98.196)" class="st3" width="63.3" height="1.2"/>
			
				<rect x="53.3" y="56.2" transform="matrix(0.5106 -0.8598 0.8598 0.5106 -7.2466 100.8112)" class="st3" width="63.3" height="1.2"/>
			
				<rect x="55.5" y="57.5" transform="matrix(0.5108 -0.8597 0.8597 0.5108 -7.3039 103.3997)" class="st3" width="63.3" height="1.2"/>
			
				<rect x="57.8" y="58.9" transform="matrix(0.5105 -0.8599 0.8599 0.5105 -7.3371 106.0394)" class="st3" width="63.3" height="1.2"/>
			
				<rect x="60.1" y="60.2" transform="matrix(0.5107 -0.8598 0.8598 0.5107 -7.3934 108.6318)" class="st3" width="63.3" height="1.2"/>
			<rect x="62.3" y="61.6" transform="matrix(0.5103 -0.86 0.86 0.5103 -7.4221 111.2798)" class="st3" width="63.3" height="1.2"/>
			
				<rect x="64.6" y="62.9" transform="matrix(0.5104 -0.8599 0.8599 0.5104 -7.4773 113.875)" class="st3" width="63.3" height="1.2"/>
			
				<rect x="66.9" y="64.3" transform="matrix(0.5108 -0.8597 0.8597 0.5108 -7.5471 116.4379)" class="st3" width="63.3" height="1.2"/>
			
				<rect x="69.1" y="65.6" transform="matrix(0.5104 -0.8599 0.8599 0.5104 -7.5705 119.0986)" class="st3" width="63.3" height="1.2"/>
			
				<rect x="70.9" y="67.2" transform="matrix(0.5106 -0.8598 0.8598 0.5106 -7.9475 121.6802)" class="st3" width="64" height="1.2"/>
		</g>
		<g>
			<polygon class="st4" points="123,44.7 104.4,34.3 86.4,23 84.9,25.5 103.6,35.7 121.5,47.2 			"/>
			<polygon class="st4" points="120.7,48.4 102.2,38.1 84.2,26.7 82.7,29.2 101.3,39.5 119.3,50.9 			"/>
			<polygon class="st4" points="118.5,52.2 100,41.8 82,30.5 80.5,33 99.1,43.2 117,54.7 			"/>
			<polygon class="st4" points="116.3,55.9 97.7,45.6 79.7,34.2 78.3,36.7 96.9,47 114.8,58.4 			"/>
			<polygon class="st4" points="114.1,59.7 95.5,49.3 77.5,38 76,40.5 94.7,50.7 112.6,62.2 			"/>
			<polygon class="st4" points="111.8,63.4 93.3,53.1 75.3,41.7 73.8,44.2 92.4,54.5 110.4,65.9 			"/>
			<polygon class="st4" points="109.6,67.2 91,56.8 73.1,45.5 71.6,48 90.2,58.2 108.1,69.7 			"/>
			<polygon class="st4" points="107.4,70.9 88.8,60.6 70.8,49.2 69.4,51.7 88,62 105.9,73.4 			"/>
			<polygon class="st4" points="105.2,74.7 86.6,64.3 68.6,53 67.1,55.5 85.8,65.7 103.7,77.2 			"/>
			<polygon class="st4" points="102.9,78.4 84.4,68.1 66.4,56.7 64.9,59.2 83.5,69.5 101.5,80.9 			"/>
			<polygon class="st4" points="100.7,82.2 82.1,71.8 64.1,60.5 62.7,63 81.3,73.2 99.2,84.7 			"/>
			<polygon class="st4" points="98.5,85.9 79.9,75.6 61.9,64.2 60.4,66.7 79.1,77 97,88.4 			"/>
			<polygon class="st4" points="96.2,89.7 77.7,79.3 59.7,68 58.2,70.5 76.8,80.7 94.8,92.2 			"/>
			<polygon class="st4" points="94,93.4 75.5,83.1 57.5,71.7 56,74.2 74.6,84.5 92.5,95.9 			"/>
			<polygon class="st4" points="91.8,97.2 73.2,86.8 55.2,75.5 53.8,78 72.4,88.2 90.3,99.7 			"/>
		</g>
		<path class="st2" d="M121.4,43.3l1.8-3.1c1.3-2.1-31.8-21.7-33-19.6l-1.8,3.1C94.5,25.4,117,38.7,121.4,43.3z"/>
		<path class="st5" d="M89,22.7l-0.5,0.9c6.1,1.8,28.5,15.1,33,19.6l0.5-0.9C117.5,37.8,95.1,24.4,89,22.7z"/>
		<path class="st5" d="M90.2,20.6l-0.7,1.1c1.3-2.1,34.3,17.5,33,19.6l0.7-1.1C124.5,38.1,91.5,18.5,90.2,20.6z"/>
		<path class="st6" d="M62.4,85.1c0,0-2.1,17.1-11.8,25.7s-15.1,18.4-7.2,23.1c8,4.7,18.3-10.2,19.4-23.3
			C63.9,97.6,62.9,90,62.4,85.1z"/>
	</g>
	<path class="st7" d="M108.4,83.1c4.7,14.2,16.3,25.7,32.4,20.7c-5.3,0-10.6-1.4-15.2-4.1c-7.8-4.6-8.2-8.9-12-17.1
		c-4.4-9.6-6.9-19.6-12.5-28.7C98,48.7,94,44,88.9,40.7c5.1,3.3,7.7,10.8,9.9,16.2C102.2,65.5,105.5,74.2,108.4,83.1z"/>
	<path class="st8" d="M113.6,66.7c2,9,1.2,13.8,1.1,23c-0.1,9.4-2.2,21.4-2.5,30.8c-0.3,7.9,0.7,16.1,4.4,23.1
		c-2.3-1.2-3.4-3.8-4.2-6.2c-6.4-18.8-1.6-38.7-1.7-58.1c0-8.9-1.3-17.9-4.6-26.3c-3.2-8.1-6.9-16.1-13.3-22.3
		C104.5,38.7,110.6,53.4,113.6,66.7z"/>
	<path class="st9" d="M86.6,91.4c2.4-7.7,2.6-15.9,1.8-23.7c-0.8-8.2-2.2-20.7-8-27.1c5.1,2,9,6,11.8,10.5
		c7.8,12.5,10.3,27.8,8.6,42.4c-1.4,11.7-6.2,21.6-12.2,31.9c3.1-9.2,5.6-18.8,5.9-28.3c0.2-5.2,0.7-10.3,0.4-15.4
		c-0.3-4.9-1.7-9.7-1.8-14.6C93.4,76,92.1,83.8,86.6,91.4z"/>
</g>
</svg>
