<?xml version="1.0" encoding="utf-8"?>
<!-- Generator: Adobe Illustrator 22.0.1, SVG Export Plug-In . SVG Version: 6.00 Build 0)  -->
<svg version="1.1" id="Layer_1" xmlns="http://www.w3.org/2000/svg" xmlns:xlink="http://www.w3.org/1999/xlink" x="0px" y="0px"
	 viewBox="0 0 164 164" style="enable-background:new 0 0 164 164;" xml:space="preserve">
<style type="text/css">
	.st0{clip-path:url(#SVGID_2_);}
	.st1{fill:url(#SVGID_3_);}
	.st2{fill:#8E3A04;}
	.st3{fill:#7E3100;}
	.st4{fill:#FDD4B2;}
	.st5{fill:#FAB47F;}
	.st6{fill:#EE5290;}
	.st7{fill:#A3440E;}
	.st8{fill:#B86839;}
	.st9{fill:#FCCFA9;}
	.st10{fill:#FDE2CC;}
	.st11{fill:#FCCDA6;}
	.st12{fill:#FCD2B0;}
	.st13{fill:#F6A49B;}
	.st14{fill:#CD0260;}
	.st15{fill:#F497A6;}
	.st16{fill:#973F09;}
	.st17{fill:#722A00;}
	.st18{fill:#FFFFFF;}
</style>
<g>
	<defs>
		<circle id="SVGID_1_" cx="82" cy="82" r="82"/>
	</defs>
	<clipPath id="SVGID_2_">
		<use xlink:href="#SVGID_1_"  style="overflow:visible;"/>
	</clipPath>
	<g class="st0">
		<radialGradient id="SVGID_3_" cx="82" cy="82" r="82" gradientUnits="userSpaceOnUse">
			<stop  offset="0.6154" style="stop-color:#FFFFFF"/>
			<stop  offset="0.727" style="stop-color:#FFFBFA"/>
			<stop  offset="0.8576" style="stop-color:#FDEFEC"/>
			<stop  offset="0.9973" style="stop-color:#FBDAD5"/>
			<stop  offset="1" style="stop-color:#FBDAD4"/>
		</radialGradient>
		<circle class="st1" cx="82" cy="82" r="82"/>
		<g>
			<path class="st2" d="M117.3,34.8c0,0,16.1,8.7,7.3,20.1S103,66,103,66l-14.6-9.8C88.4,56.2,93.4,19.2,117.3,34.8z"/>
			<path class="st3" d="M124.6,54.8c1.2-1.5,1.9-2.9,2.3-4.3c-2.2,1.9-5.5,2.7-10.5-0.1c-12.1-6.9-10.6-17.3-10.6-17.3L89.1,56.7
				L103,66C103,66,115.7,66.3,124.6,54.8z"/>
			<g>
				<path class="st4" d="M105.5,160.4c-0.2-15.6-6.4-14.2-6.4-14.2s-9.9,0.9-12.9,0.2c-2.4-0.6-1.6-5.3-1.1-7.2H74.4
					c0.4,1.9,1.2,6.7-1.1,7.2c-3,0.7-12.9-0.2-12.9-0.2s0,0,0,0.1c0,0,0-0.1,0-0.1s-6.2-1.4-6.4,14.2c0,1.2,0,2.4-0.1,3.6h51.7
					C105.6,162.8,105.5,161.6,105.5,160.4z"/>
			</g>
			<path class="st5" d="M74.4,139.2c0.3,1.1,0.6,3.2,0.4,4.9c1.4,0.2,2.9,0.3,4.5,0.2c1.9-0.1,3.6-0.3,5.3-0.6
				c-0.1-1.6,0.2-3.5,0.5-4.5H74.4z"/>
			<g>
				<path class="st6" d="M79.9,160.2c-14.8,0-17.2-12.1-17.4-14.5l-2,0c0,0,2.6,9.9,2.6,18.4H97c0,0,0.6-13.5,2.5-18.4l-1.9,0
					C96.6,149.1,95.2,160.2,79.9,160.2z"/>
			</g>
			<path class="st7" d="M47.6,114.8c0,0-6.1-24.7-4.6-37c1.4-12.2,8.1-32,44.5-29.5c36.5,2.5,29,49.2,22.9,66.8L47.6,114.8z"/>
			<path class="st8" d="M52.9,66.9c0,0,11.9-11.4,30.7-10.6c0,0,1.3,0.1,1.5-0.9c0.2-1-0.3-2.1-2.8-2.1
				C79.9,53.3,61.7,54.2,52.9,66.9z"/>
			<path class="st2" d="M86.3,48.2c2,3.6,9.7,15.6,26.3,18.2c-3.6-9.8-11.2-17.2-25.1-18.1C87,48.2,86.7,48.2,86.3,48.2z"/>
			<path class="st2" d="M84.2,70.3c0,0-29.8,23-49.7,14.4C34.5,84.7,50.5,89,84.2,70.3z"/>
			<path class="st2" d="M95.1,73.6c-20.2,16.3-43.1,18-51.8,18c1.3,11.3,4.2,23.2,4.2,23.2l62.8,0.3c1.9-5.4,3.8-13.4,4.7-22.1
				C101.8,88.9,95.1,73.6,95.1,73.6z"/>
			<path class="st9" d="M51.6,113.7c0,0-1-1.8-3.7-1.1c-2.7,0.7-2.2,6.4-0.3,8.9c1.9,2.5,5.2,3.7,7.4,3.1L51.6,113.7z"/>
			<path class="st9" d="M106.1,113.7c0,0,1-1.8,3.7-1.1c2.7,0.7,2.2,6.4,0.3,8.9c-1.9,2.5-5.2,3.7-7.4,3.1L106.1,113.7z"/>
			<path class="st10" d="M110.1,96c-1.2,18.2-7.1,45.3-30.9,46c-23.3,0.6-29.7-25.3-31.3-43.6c0,0,32.1-6.4,47.1-19.9
				C95,78.6,98.3,88.1,110.1,96L110.1,96z"/>
			<g>
				<path class="st11" d="M60.3,131.5c-3.5-2-4.5-4.6-5.4-7.9c-0.6-2.2-1.6-2.5-2.3-2.5c2.9,7.8,7.5,14.7,14.4,18.3
					C66.9,136.1,63.5,133.4,60.3,131.5z"/>
				<path class="st11" d="M105.1,121.1c-0.6-0.1-1.9-0.1-2.6,2.5c-0.9,3.3-1.9,5.9-5.4,7.9c-3.2,1.8-6.6,4.5-6.7,7.8
					C97.5,135.7,102.1,128.9,105.1,121.1z"/>
			</g>
			<g>
				<path class="st12" d="M62.4,119.4c0.2-0.1,0.5-0.1,0.7-0.1c1.3-0.1,2.5,0.5,3.7,0.9c1.2,0.4,2.4,0.5,3.7,0.5
					c0.9,0,1.9-0.3,2.7,0.1c1.4,0.7,3.5,5,1.2,5.7c-0.5,0.1-1,0.1-1.4,0.3c-0.9,0.4-1.1,1.5-1.6,2.3c-0.8,1.3-2.3,1.9-3.8,2
					c-1.5,0.1-3-0.3-4.4-0.6c-2.2-0.6-4.5-1.2-6.1-2.8c-1.2-1.3-1.8-3.5-0.5-4.7c0.7-0.6,1.6-0.8,2.5-1.2
					C60.6,121.2,60.8,119.8,62.4,119.4z"/>
				<path class="st12" d="M95.5,119.4c-0.2-0.1-0.5-0.1-0.7-0.1c-1.3-0.1-2.5,0.5-3.7,0.9c-1.2,0.4-2.4,0.5-3.7,0.5
					c-0.9,0-1.9-0.3-2.7,0.1c-1.4,0.7-3.5,5-1.2,5.7c0.5,0.1,1,0.1,1.4,0.3c0.9,0.4,1.1,1.5,1.6,2.3c0.8,1.3,2.3,1.9,3.8,2
					c1.5,0.1,3-0.3,4.4-0.6c2.2-0.6,4.5-1.2,6.1-2.8c1.2-1.3,1.8-3.5,0.5-4.7c-0.7-0.6-1.6-0.8-2.5-1.2
					C97.4,121.2,97.2,119.8,95.5,119.4z"/>
				<path class="st13" d="M59.6,126.4C59.6,126.4,59.6,126.4,59.6,126.4c0.1,0.2,0.2,0.5,0,0.7c-0.1,0.2-0.4,0.2-0.6,0.1
					c-0.5-0.2-0.7-0.8-1.1-1.1c-0.2-0.1-0.3-0.1-0.4-0.3c-0.1-0.3,0.1-0.5,0.3-0.6c0.1-0.1,0.3-0.3,0.3-0.4c0.1-0.2,0-0.5,0.1-0.7
					c0.2-0.3,0.6-0.3,0.9-0.4c0.3-0.1,0.5-0.4,0.8-0.6c0.2-0.2,0.5-0.5,0.9-0.5c0.3,0,0.7,0.2,0.7,0.6c0,0.3-0.3,0.4-0.6,0.6
					s-0.5,0.3-0.5,0.6c0,0.2,0.1,0.4,0.2,0.6c0.1,0.3-0.1,0.7-0.4,0.8c-0.2,0.1-0.5,0.1-0.6,0.2C59.5,125.9,59.6,126.2,59.6,126.4z"
					/>
				<path class="st13" d="M66,129.4c-0.4,0.2-0.9,0.4-1.3,0.2c-0.4-0.2-0.6-0.6-0.9-0.8c-0.4-0.3-0.9-0.3-0.8-0.9
					c0.1-0.3,0.3-0.5,0.5-0.6c0.2-0.1,0.5,0,0.7,0c0.2,0,0.5,0,0.7-0.1c0.1-0.1,0.2-0.3,0.3-0.4c0.2-0.5,1.5-0.5,1.9-0.1
					c0.3,0.3,0.2,0.9,0.6,1.2c0.2,0.1,0.5,0.2,0.7,0.3c0.2,0.2,0.1,0.5,0,0.7c-0.2,0.2-0.4,0.3-0.7,0.3c-0.3,0-0.4-0.1-0.7-0.1
					C66.7,129.1,66.3,129.3,66,129.4C66.1,129.4,66,129.4,66,129.4z"/>
				<path class="st13" d="M71.3,124.9c-0.2,0-0.4,0-0.5-0.1c-0.2-0.1-0.3-0.4-0.4-0.5c-0.2-0.2-0.6-0.3-0.9-0.3
					c-0.3-0.1-0.7-0.3-0.7-0.6c0-0.3,0.3-0.6,0.6-0.6c0.4-0.1,0.8,0.3,1.2,0.2c0.4-0.1,0.5-0.6,0.8-0.8c0.4-0.3,1.1-0.1,1.2,0.4
					c0.1,0.2,0.1,0.4,0.2,0.6c0.3,0.7,1.2,0.5,1.2,1.5c0,0.2-0.2,0.5-0.4,0.4c-0.3-0.1-0.3-0.4-0.5-0.6c-0.5-0.4-1.1,0.3-1.5,0.4
					C71.4,124.9,71.3,124.9,71.3,124.9z"/>
				<path class="st13" d="M65.6,121.7c0.1-0.1,0.2-0.2,0.3-0.2c0.2,0,0.3,0.1,0.5,0.2c0.2,0.2,1.3,0.5,0.5,0.9
					c-0.2,0.1-0.4,0.1-0.6,0c-0.2,0-0.4-0.1-0.6-0.1c-0.3,0-0.7,0.2-0.9,0c-0.2-0.1-0.2-0.4-0.1-0.5
					C64.8,121.8,65.3,121.9,65.6,121.7C65.6,121.7,65.6,121.7,65.6,121.7z"/>
				<path class="st12" d="M76,93.3c0.2-0.1,0.5-0.1,0.7-0.1c1.3-0.1,2.5,0.5,3.7,0.9c1.2,0.4,2.4,0.5,3.7,0.5c0.9,0,1.9-0.3,2.7,0.1
					c1.4,0.7,3.5,5,1.2,5.7c-0.5,0.1-1,0.1-1.4,0.3c-0.9,0.4-1.1,1.5-1.6,2.3c-0.8,1.3-2.3,1.9-3.8,2c-1.5,0.1-3-0.3-4.4-0.6
					c-2.2-0.6-4.5-1.2-6.1-2.8c-1.2-1.3-1.8-3.5-0.5-4.7c0.7-0.6,1.6-0.8,2.5-1.2C74.1,95.1,74.3,93.7,76,93.3z"/>
				<path class="st13" d="M73.2,100.3C73.2,100.3,73.2,100.3,73.2,100.3c0.1,0.2,0.2,0.5,0,0.7c-0.1,0.2-0.4,0.2-0.6,0.1
					c-0.5-0.2-0.7-0.8-1.1-1.1c-0.2-0.1-0.3-0.1-0.4-0.3c-0.1-0.3,0.1-0.5,0.3-0.6c0.1-0.1,0.3-0.3,0.3-0.4c0.1-0.2,0-0.5,0.1-0.7
					c0.2-0.3,0.6-0.3,0.9-0.4c0.3-0.1,0.5-0.4,0.8-0.6c0.2-0.2,0.5-0.5,0.9-0.5c0.3,0,0.7,0.2,0.7,0.6c0,0.3-0.3,0.4-0.6,0.6
					C74.3,97.6,74,97.8,74,98c0,0.2,0.1,0.4,0.2,0.6c0.1,0.3-0.1,0.7-0.4,0.8c-0.2,0.1-0.5,0.1-0.6,0.2C73,99.8,73.1,100,73.2,100.3
					z"/>
				<path class="st13" d="M79.5,103.3c-0.4,0.2-0.9,0.4-1.3,0.2c-0.4-0.2-0.6-0.6-0.9-0.8c-0.4-0.3-0.9-0.3-0.8-0.9
					c0.1-0.3,0.3-0.5,0.5-0.6c0.2-0.1,0.5,0,0.7,0c0.2,0,0.5,0,0.7-0.1c0.1-0.1,0.2-0.3,0.3-0.4c0.2-0.5,1.5-0.5,1.9-0.1
					c0.3,0.3,0.2,0.9,0.6,1.2c0.2,0.1,0.5,0.2,0.7,0.3c0.2,0.2,0.1,0.5,0,0.7c-0.2,0.2-0.4,0.3-0.7,0.3c-0.3,0-0.4-0.1-0.7-0.1
					C80.2,103,79.9,103.2,79.5,103.3C79.6,103.3,79.6,103.3,79.5,103.3z"/>
				<path class="st13" d="M84.8,98.8c-0.2,0-0.4,0-0.5-0.1c-0.2-0.1-0.3-0.4-0.4-0.5c-0.2-0.2-0.6-0.3-0.9-0.3
					c-0.3-0.1-0.7-0.3-0.7-0.6c0-0.3,0.3-0.6,0.6-0.6c0.4-0.1,0.8,0.3,1.2,0.2c0.4-0.1,0.5-0.6,0.8-0.8c0.4-0.3,1.1-0.1,1.2,0.4
					c0.1,0.2,0.1,0.4,0.2,0.6c0.3,0.7,1.2,0.5,1.2,1.5c0,0.2-0.2,0.5-0.4,0.4c-0.3-0.1-0.3-0.4-0.5-0.6c-0.5-0.4-1.1,0.3-1.5,0.4
					C84.9,98.8,84.8,98.8,84.8,98.8z"/>
				<path class="st13" d="M79.1,95.6c0.1-0.1,0.2-0.2,0.3-0.2c0.2,0,0.3,0.1,0.5,0.2c0.2,0.2,1.3,0.5,0.5,0.9
					c-0.2,0.1-0.4,0.1-0.6,0c-0.2,0-0.4-0.1-0.6-0.1c-0.3,0-0.7,0.2-0.9,0c-0.2-0.1-0.2-0.4-0.1-0.5C78.3,95.7,78.8,95.8,79.1,95.6
					C79.1,95.6,79.1,95.6,79.1,95.6z"/>
				<path class="st13" d="M98.5,126.4C98.5,126.4,98.5,126.4,98.5,126.4c-0.1,0.2-0.2,0.5,0,0.7c0.1,0.2,0.4,0.2,0.6,0.1
					c0.5-0.2,0.7-0.8,1.1-1.1c0.2-0.1,0.3-0.1,0.4-0.3c0.1-0.3-0.1-0.5-0.3-0.6c-0.1-0.1-0.3-0.3-0.3-0.4c-0.1-0.2,0-0.5-0.1-0.7
					c-0.2-0.3-0.6-0.3-0.9-0.4c-0.3-0.1-0.5-0.4-0.8-0.6c-0.2-0.2-0.5-0.5-0.9-0.5c-0.3,0-0.7,0.2-0.7,0.6c0,0.3,0.3,0.4,0.6,0.6
					c0.2,0.1,0.5,0.3,0.5,0.6c0,0.2-0.1,0.4-0.2,0.6c-0.1,0.3,0.1,0.7,0.4,0.8c0.2,0.1,0.5,0.1,0.6,0.2
					C98.6,125.9,98.6,126.2,98.5,126.4z"/>
				<path class="st13" d="M92.1,129.4c0.4,0.2,0.9,0.4,1.3,0.2c0.4-0.2,0.6-0.6,0.9-0.8c0.4-0.3,0.9-0.3,0.8-0.9
					c-0.1-0.3-0.3-0.5-0.5-0.6c-0.2-0.1-0.5,0-0.7,0c-0.2,0-0.5,0-0.7-0.1c-0.1-0.1-0.2-0.3-0.3-0.4c-0.2-0.5-1.5-0.5-1.9-0.1
					c-0.3,0.3-0.2,0.9-0.6,1.2c-0.2,0.1-0.5,0.2-0.7,0.3c-0.2,0.2-0.1,0.5,0,0.7c0.2,0.2,0.4,0.3,0.7,0.3c0.3,0,0.4-0.1,0.7-0.1
					C91.4,129.1,91.8,129.3,92.1,129.4C92.1,129.4,92.1,129.4,92.1,129.4z"/>
				<path class="st13" d="M86.9,124.9c0.2,0,0.4,0,0.5-0.1c0.2-0.1,0.3-0.4,0.4-0.5c0.2-0.2,0.6-0.3,0.9-0.3
					c0.3-0.1,0.7-0.3,0.7-0.6c0-0.3-0.3-0.6-0.6-0.6c-0.4-0.1-0.8,0.3-1.2,0.2c-0.4-0.1-0.5-0.6-0.8-0.8c-0.4-0.3-1.1-0.1-1.2,0.4
					c-0.1,0.2-0.1,0.4-0.2,0.6c-0.3,0.7-1.2,0.5-1.2,1.5c0,0.2,0.2,0.5,0.4,0.4c0.3-0.1,0.3-0.4,0.5-0.6c0.5-0.4,1.1,0.3,1.5,0.4
					C86.8,124.9,86.8,124.9,86.9,124.9z"/>
				<path class="st13" d="M92.5,121.7c-0.1-0.1-0.2-0.2-0.3-0.2c-0.2,0-0.3,0.1-0.5,0.2c-0.2,0.2-1.3,0.5-0.5,0.9
					c0.2,0.1,0.4,0.1,0.6,0c0.2,0,0.4-0.1,0.6-0.1c0.3,0,0.7,0.2,0.9,0c0.2-0.1,0.2-0.4,0.1-0.5C93.3,121.8,92.8,121.9,92.5,121.7
					C92.5,121.7,92.5,121.7,92.5,121.7z"/>
			</g>
			<g>
				<path class="st14" d="M75.4,131.3c0,0,5-3.1,8.9,0C88.2,134.5,71.8,134.7,75.4,131.3z"/>
				<path class="st15" d="M76.4,133.4c2,0.5,5.3,0.5,7.2-0.1C80.5,131.5,77.8,132.6,76.4,133.4z"/>
			</g>
			<path class="st16" d="M66.2,97.6c0,0-3.9-0.9-8.4,0.9C57.9,98.5,62.7,94.2,66.2,97.6z"/>
			<path class="st16" d="M91,97.6c0,0,3.8-0.7,8.4,0.9C99.4,98.5,94.6,94.2,91,97.6z"/>
			<g>
				<path class="st2" d="M64.5,107.9c0.9-0.7,1.3-1.2,1.3-1.2l-8.4,4.6c0.6-0.2,1.1-0.4,1.7-0.6c-0.1,0.5-0.1,1.1-0.1,1.7
					c0,3,1.3,5.4,3.5,5.4c2.3,0,3.5-2.4,3.5-5.4C66,110.5,65.5,108.9,64.5,107.9z"/>
				<path class="st17" d="M63.2,109.3c-1.5,0-2.3,1.4-2.3,3.1c0,1.7,0.8,3.1,2.3,3.1c1.5,0,2.3-1.4,2.3-3.1
					C65.5,110.7,64.7,109.3,63.2,109.3z"/>
				<path class="st18" d="M61.5,113.5c-0.7,0-1,0.5-1,1.1c0,0.6,0.4,1.1,1,1.1c0.7,0,1-0.5,1-1.1C62.5,113.9,62.1,113.5,61.5,113.5z
					"/>
			</g>
			<g>
				<path class="st2" d="M100.4,111.3l-8.4-4.6c0,0,0.3,0.4,1.2,1.1c-1.1,0.9-1.6,2.7-1.6,4.7c0,3,1.2,5.4,3.5,5.4
					c2.2,0,3.5-2.4,3.5-5.4c0-0.6-0.1-1.3-0.2-1.8C99,110.9,99.7,111.1,100.4,111.3z"/>
				<path class="st17" d="M94.3,109.3c1.5,0,2.3,1.4,2.3,3.1c0,1.7-0.8,3.1-2.3,3.1c-1.5,0-2.3-1.4-2.3-3.1
					C92,110.7,92.7,109.3,94.3,109.3z"/>
				<path class="st18" d="M96.3,113.5c0.7,0,1,0.5,1,1.1c0,0.6-0.4,1.1-1,1.1c-0.7,0-1-0.5-1-1.1C95.3,113.9,95.6,113.5,96.3,113.5z
					"/>
			</g>
			<path class="st7" d="M100.1,28.6c3.2-0.9,6.8-0.5,10,0.5c3,1,5.8,2.8,7.2,5.7c-4.3-2.7-11.7-4.8-12,1.9
				c-0.3,6.6,6.2,13.3,10.7,17.2c3.7,3.2,8.8,5.9,13.4,4.2c-2.1,1-4.5,1.6-6.8,1.7c1.5,0.1,3.1,0.3,4.6,0.4
				c-4.4,3.8-10.8,4.7-16.5,3.4c-5.7-1.3-10.7-4.5-15.3-8.2c-3.4-2.7-6.8-6.1-7.2-10.4c-0.3-3.3,1.2-6.5,3.1-9.3
				c1.9-2.9,4.3-5.5,7.6-6.8C99.4,28.8,99.8,28.7,100.1,28.6z"/>
			<path class="st10" d="M66.2,140.2c-0.1-1.3-0.9-2.9-1.7-4c-0.8-1.2-2-2.1-3.2-2.9c-1.7-1.1-4.4-3.3-5.4-5.1
				c-1.2-2.2-1.2-3.5-1.9-5.5c-0.2-0.5-0.5-1-1.1-0.9c-0.5,0-0.9,0.6-0.9,1.1c-0.1,6.3,2.2,7.8,3.9,11.3c1.2,2.5,3.2,4.6,4.3,7.2
				c-0.4,1.7-3.2,13.6-4.6,22.6h9.6l0.4-21.5C66.1,141.8,66.3,141,66.2,140.2z"/>
			<path class="st10" d="M91.2,140.2c0.1-1.3,0.9-2.9,1.7-4c0.8-1.2,2-2.1,3.2-2.9c1.7-1.1,4.4-3.3,5.4-5.1c1.2-2.2,1.2-3.5,1.9-5.5
				c0.2-0.5,0.5-1,1-0.9c0.5,0,0.9,0.6,0.9,1.1c0.1,6.3-2.2,7.8-3.9,11.3c-1.2,2.5-3.2,4.6-4.3,7.2c0.4,1.7,3.2,13.6,4.6,22.6h-9.6
				l-0.4-21.5C91.3,141.8,91.1,141,91.2,140.2z"/>
		</g>
	</g>
</g>
</svg>
