<?xml version="1.0" encoding="utf-8"?>
<!-- Generator: Adobe Illustrator 22.0.1, SVG Export Plug-In . SVG Version: 6.00 Build 0)  -->
<svg version="1.1" id="Layer_1" xmlns="http://www.w3.org/2000/svg" xmlns:xlink="http://www.w3.org/1999/xlink" x="0px" y="0px"
	 viewBox="0 0 164 164" style="enable-background:new 0 0 164 164;" xml:space="preserve">
<style type="text/css">
	.st0{clip-path:url(#SVGID_2_);}
	.st1{fill:url(#SVGID_3_);}
	.st2{fill:#8E3A04;}
	.st3{fill:#7E3100;}
	.st4{fill:#FDD4B2;}
	.st5{fill:#FAB47F;}
	.st6{fill:#EE5290;}
	.st7{fill:#A3440E;}
	.st8{fill:#B86839;}
	.st9{fill:#FCCFA9;}
	.st10{fill:#FDE2CC;}
	.st11{fill:#973F09;}
	.st12{fill:#CD0260;}
	.st13{fill:#E2E3E4;}
	.st14{fill:#D4D6D7;}
	.st15{fill:#EEEFEF;}
	.st16{opacity:0.42;fill:#FFFFFF;}
	.st17{opacity:0.23;fill:#797B7D;}
	.st18{opacity:0.27;fill:#989A9D;}
	.st19{fill:#E56796;}
	.st20{fill:#E34588;}
	.st21{fill:#F28BAF;}
	.st22{fill:#F6B2C8;}
	.st23{fill:#FFD140;}
	.st24{fill:#F181A9;}
	.st25{opacity:0.27;fill:#FFFFFF;}
	.st26{fill:#F06D9E;}
	.st27{fill:#F17BA5;}
	.st28{opacity:0.29;}
	.st29{fill:#FFFFFF;}
	.st30{opacity:0.33;}
	.st31{fill:#EDEDEE;}
	.st32{fill:#F2F3F3;}
	.st33{fill:#E8E8E9;}
	.st34{opacity:0.24;fill:#B2B4B7;}
	.st35{fill:#CCCECF;}
	.st36{opacity:0.38;fill:#B2B4B7;}
	.st37{fill:#DDDFE0;}
</style>
<g>
	<defs>
		<circle id="SVGID_1_" cx="82" cy="82" r="82"/>
	</defs>
	<clipPath id="SVGID_2_">
		<use xlink:href="#SVGID_1_"  style="overflow:visible;"/>
	</clipPath>
	<g class="st0">
		<radialGradient id="SVGID_3_" cx="82" cy="82" r="82" gradientUnits="userSpaceOnUse">
			<stop  offset="0.6154" style="stop-color:#FFFFFF"/>
			<stop  offset="0.727" style="stop-color:#FFFBFA"/>
			<stop  offset="0.8576" style="stop-color:#FDEFEC"/>
			<stop  offset="0.9973" style="stop-color:#FBDAD5"/>
			<stop  offset="1" style="stop-color:#FBDAD4"/>
		</radialGradient>
		<circle class="st1" cx="82" cy="82" r="82"/>
		<g>
			<path class="st2" d="M94.7,29.1c0,0,17.6,4.8,11.6,17.9c-6.1,13.1-18.5,15.7-18.5,15.7l-16.4-6.3C71.3,56.5,68,19.2,94.7,29.1z"
				/>
			<path class="st3" d="M106.3,47c0.8-1.7,1.2-3.3,1.3-4.7c-1.7,2.4-4.8,3.9-10.2,2.2c-13.4-4-14.2-14.5-14.2-14.5l-11,26.7l15.7,6
				C87.8,62.8,100.2,60.1,106.3,47z"/>
			<g>
				<path class="st4" d="M107.9,160c-0.2-15.6-6.4-14.2-6.4-14.2s-9.9,0.9-12.9,0.2c-2.4-0.6-1.6-5.3-1.1-7.2H76.8
					c0.4,1.9,1.2,6.7-1.1,7.2c-3,0.7-12.9-0.2-12.9-0.2s0,0,0,0.1c0,0,0-0.1,0-0.1s-6.2-1.4-6.4,14.2c0,1.2,0,2.4-0.1,3.6H108
					C107.9,162.4,107.9,161.2,107.9,160z"/>
			</g>
			<path class="st5" d="M87,141.8c0.1-1.2,0.3-2.3,0.5-3H76.8c0.3,1.2,0.7,3.3,0.4,5C78.8,143.7,83.6,143.5,87,141.8z"/>
			<g>
				<path class="st6" d="M82.2,159.7c-14.8,0-17.2-12.1-17.4-14.5l-2,0c0,0,2.6,9.9,2.6,18.4h33.9c0,0,0.6-13.5,2.5-18.4l-1.9,0
					C99,148.7,97.5,159.7,82.2,159.7z"/>
			</g>
			<path class="st7" d="M44.7,122.6c0,0-11.5-22.7-12.8-35c-1.3-12.2,0.7-33,36.8-38.7S108,90.3,106,108.8L44.7,122.6z"/>
			<path class="st8" d="M39.2,75c0,0,9-13.8,27.6-17.2c0,0,1.3-0.2,1.3-1.2c0-1.1-0.8-2-3.2-1.4C62.4,55.7,44.8,60.7,39.2,75z"/>
			<path class="st2" d="M67.5,49.1c2.7,3.1,13,13,29.7,11.9c-5.7-8.7-14.7-14.2-28.5-12C68.3,48.9,67.9,49,67.5,49.1z"/>
			<path class="st2" d="M70.4,71c0,0-23.9,29.1-45.2,25.2C25.2,96.2,41.8,96.8,70.4,71z"/>
			<path class="st2" d="M81.8,71.9C65.8,92.3,43.9,99,35.4,101c3.8,10.8,9.3,21.6,9.3,21.6l61.3-13.8c0.6-5.6,0.7-13.9-0.4-22.6
				C91.7,85.2,81.8,71.9,81.8,71.9z"/>
			<path class="st9" d="M48.4,120.6c0,0-1.3-1.5-3.8-0.2c-2.5,1.3-0.7,6.8,1.7,8.7c2.4,2,5.9,2.4,7.9,1.4L48.4,120.6z"/>
			<path class="st9" d="M101.5,108.4c0,0,0.5-1.9,3.4-1.9c2.8,0.1,3.6,5.8,2.3,8.6c-1.3,2.8-4.2,4.8-6.5,4.7L101.5,108.4z"/>
			<path class="st10" d="M101.4,90.3c2.9,18,3.3,45.8-19.8,51.7c-22.6,5.8-34.6-18-40.3-35.5c0,0,29.8-13.4,41.4-29.9
				C82.8,76.7,88.1,85.2,101.4,90.3L101.4,90.3z"/>
			<path class="st11" d="M59,101.7c0,0-4,0-7.9,2.7C51.1,104.4,54.8,99.2,59,101.7z"/>
			<path class="st11" d="M83.2,96.2c0,0,3.6-1.6,8.3-1C91.6,95.1,85.9,92,83.2,96.2z"/>
			<g>
				<path class="st2" d="M62.7,115.8c0.7,3-0.2,5.7-2.8,6.3c-2.6,0.6-4.6-1.5-5.3-4.4c0,0,1.9,3.5,5,2.8
					C62.7,119.7,62.7,115.8,62.7,115.8z"/>
			</g>
			<g>
				<path class="st2" d="M87,110.2c0.7,3,2.7,5,5.3,4.4c2.6-0.6,3.5-3.3,2.8-6.3c0,0-0.2,4-3.3,4.7C88.7,113.7,87,110.2,87,110.2z"
					/>
			</g>
			<path class="st7" d="M76.6,26.9c2.9-1.6,6.5-2,9.8-1.7c3.1,0.3,6.3,1.5,8.3,3.9c-4.8-1.7-12.5-2-11.3,4.5
				c1.2,6.5,9.1,11.6,14.3,14.4c4.4,2.3,9.9,3.8,14,1c-1.9,1.4-4,2.5-6.2,3.2c1.5-0.2,3-0.4,4.6-0.7c-3.4,4.7-9.4,7-15.3,7
				c-5.8,0-11.5-2-16.7-4.5c-3.9-1.9-8-4.4-9.4-8.6c-1-3.2-0.3-6.6,1-9.7c1.3-3.2,3-6.3,5.9-8.3C75.9,27.3,76.3,27.1,76.6,26.9z"/>
			<path class="st12" d="M78.3,129.9c-0.8,0.2-1,1.7-0.5,3.3c0.5,1.6,1.5,2.7,2.3,2.5c0.8-0.2,1-1.7,0.5-3.3
				C80.1,130.8,79.1,129.7,78.3,129.9z"/>
			<g>
				<g>
					<path class="st13" d="M131.4,118.6l-12-8l-18.9,28.5l0,0l0,0l0,0c0,0-0.9,1.6-0.3,2.7l0,0l0,0l0,0c0,0,1,1.3,4.7,3.8
						c3.4,2.3,5.3,2.8,5.3,2.8l0,0l0,0l0,0l0,0c1.3,0.2,2.3-1.3,2.3-1.3l0,0l0,0l0,0L131.4,118.6z"/>
					<g>
						<path class="st14" d="M131.4,118.6l-1.1-0.7l-18.6,28.1l0,0l0,0l0,0c0,0-1,1.5-2.2,1.4l0,0l0,0c0,0-1.6-0.4-4.4-2.2
							c-3-2-3.8-3.2-3.8-3.2l0,0l0,0l0,0c-0.6-1.1,0.4-2.5,0.5-2.5l0,0l0,0l0,0l18.6-28.1l-1.1-0.7l-18.9,28.5l0,0l0,0l0,0
							c0,0-0.9,1.6-0.3,2.7l0,0l0,0l0,0c0,0,1,1.3,4.7,3.8c3.4,2.3,5.3,2.8,5.3,2.8l0,0l0,0l0,0l0,0c1.3,0.2,2.3-1.3,2.3-1.3l0,0
							l0,0l0,0L131.4,118.6z"/>
					</g>
					<path class="st15" d="M119.3,110.7c0,0,2,1.7,5.8,4.2c3.8,2.5,6.2,3.7,6.2,3.7c0.5-1.6-0.8-3.3-0.8-3.3l-7.8-5.2
						C122.7,110.1,120.7,109.6,119.3,110.7z"/>
					<path class="st16" d="M120.4,111.5l-18.5,28l0,0l0,0l0,0c0,0-1.1,1.5-0.5,2.5l0,0l0,0l0,0c0,0,0.3,0.4,1.1,1.1
						c-0.7-1.1,0-2.3,0-2.3l19-28.7c0.9-1,2.8-1.1,2.8-1.1c-0.3-0.2-0.5-0.4-0.7-0.5C121.3,110.5,120.4,111.5,120.4,111.5z"/>
					<path class="st16" d="M111.7,146.1L111.7,146.1L111.7,146.1L111.7,146.1l18.5-28c0,0,0.4-0.9-0.4-3.1c-0.2-0.1-0.5-0.3-0.8-0.5
						l0,0c0,0,0.6,1.8,0.1,3l-19,28.7c0,0-0.9,1.1-2.1,0.9c1,0.5,1.5,0.6,1.5,0.6l0,0l0,0l0,0C110.8,147.6,111.7,146.1,111.7,146.1z
						"/>
					<path class="st17" d="M126.6,124.6c0-0.7-0.1-1.5-0.3-2.2c-0.4-1.2-1.3-2.2-2.2-3.1c-0.9-0.9-1.8-1.8-2.9-2.4
						c-1.6-0.9-3.4-1.3-5.2-1.2l-9.1,13.7c0,0.2,0,0.5,0,0.7c0.1,0.9,0.6,1.7,1.3,2.1c0.8,0.4,1.7,0.4,2.6,0.4
						c1.6,0,3.3,0.1,4.4,1.1c1.3,1.2,1.6,3.2,1.6,4.9c0,0.5,0,1.1,0.2,1.6l9.6-14.5C126.7,125.3,126.6,125,126.6,124.6z"/>
					<path class="st18" d="M100.2,141.9L100.2,141.9L100.2,141.9L100.2,141.9c0,0,1,1.3,4.7,3.8c3.4,2.3,5.3,2.8,5.3,2.8l0,0l0,0
						l0,0l0,0c1.3,0.2,2.3-1.3,2.3-1.3c-8.1-4-12-7.9-12-8C100.5,139.2,99.5,140.8,100.2,141.9z"/>
				</g>
				<g>
					<path class="st19" d="M134.9,102.3L133,101c-0.1,0-0.2,0-0.2,0l-3.4,5.1c0,0.1,0,0.2,0,0.2l1.9,1.3c0.1,0,0.2,0,0.2,0l3.4-5.1
						C135,102.5,135,102.4,134.9,102.3z"/>
					<path class="st20" d="M134.9,102.3L133,101c-0.1,0-0.2,0-0.2,0l-3.2,4.8l0.5,0.3l2.8-4.2c0.2,0.3,0.7,0.8,1,1l-2.7,4.1l0.5,0.3
						l3.3-4.9C135,102.5,135,102.4,134.9,102.3z"/>
					<g>
						<path class="st21" d="M127.2,97.3c0,0,2.2-1.4,4.6,0.5c2.5,1.9,3.4,4.6,6.8,5.3c0,0,0.3,0.2,0,0.6l-0.8,1.2c0,0-0.3,0.5-1.1,0
							c0,0-2-1.2-5.2-5.1c0,0-1.8-2.2-4.4-1.6L127.2,97.3z"/>
						<path class="st22" d="M138.6,103.1c-3.4-0.6-4.4-3.4-6.8-5.3c-2.5-1.9-4.6-0.5-4.6-0.5l0,0.2c0.5-0.2,2.3-0.8,3.9,0.4
							c1.5,1.1,2.6,3.1,4.4,4.5c1.3,1,2.3,1.4,3.1,1.4l0.1-0.1C139,103.2,138.6,103.1,138.6,103.1z"/>
					</g>
					<g>
						<path class="st23" d="M127.8,104.8l-0.4,0.1c0,0,1.2,1,3,2.2c1.8,1.2,3.2,1.9,3.2,1.9l-0.1-0.3L127.8,104.8z"/>
						<path class="st22" d="M133.4,108l-5.1-3.4c-0.5-0.4-0.9,0.2-0.9,0.2l6.1,4.1C133.6,108.9,133.9,108.4,133.4,108z"/>
						<path class="st24" d="M133.6,108.9l-6.1-4.1l-1.6,2.5l0,0l0,0c0,0,1.2,1,3,2.2s3.1,1.9,3.1,1.9l0,0l0,0L133.6,108.9z"/>
						<path class="st25" d="M129.3,105.3l-0.5-0.4c-0.4-0.3-0.8,0.2-0.8,0.2l-1.7,2.5c0,0,0,0-0.1,0c0.2,0.1,0.4,0.3,0.6,0.5
							l1.7-2.6C128.9,105.1,129.3,105.3,129.3,105.3z"/>
						<path class="st25" d="M131.4,111.1l1.7-2.5c0,0,0.3-0.5-0.1-0.8l-0.5-0.4c0,0,0.3,0.2,0,0.8l-1.7,2.6
							C131,110.9,131.2,111,131.4,111.1C131.4,111.1,131.4,111.1,131.4,111.1z"/>
						<g>
							<path class="st21" d="M133,108.6L133,108.6l0.5,0.4c0,0,0.4-0.5-0.2-0.9l-0.4-0.3C133.4,108,133,108.6,133,108.6z"/>
							<path class="st21" d="M128.8,105l-0.5-0.3c-0.5-0.4-0.9,0.2-0.9,0.2l0.6,0.4l0,0C128,105.2,128.4,104.7,128.8,105z"/>
						</g>
						<g>
							<path class="st26" d="M131.4,111.1L131.4,111.1L131.4,111.1c0.4,0.2,0.6,0.3,0.6,0.3l0,0l0,0l1.6-2.5l-0.5-0.4L131.4,111.1
								L131.4,111.1z"/>
							<path class="st26" d="M126.3,107.8L126.3,107.8L126.3,107.8l1.7-2.5l-0.6-0.4l-1.6,2.5l0,0l0,0
								C125.8,107.4,125.9,107.5,126.3,107.8C126.3,107.7,126.3,107.7,126.3,107.8L126.3,107.8z"/>
						</g>
					</g>
					<g>
						<path class="st23" d="M125.3,106.8l-0.5,0.1c0,0,1.5,1.3,3.8,2.8c2.3,1.5,4,2.4,4,2.4l-0.1-0.3L125.3,106.8z"/>
						<path class="st22" d="M132.5,111l-6.5-4.3c-0.7-0.5-1.1,0.2-1.1,0.2l7.8,5.2C132.7,112.1,133.1,111.4,132.5,111z"/>
						<path class="st21" d="M132.7,112.1l-7.8-5.2l-2.1,3.2l0,0l0,0c0,0,1.6,1.2,3.9,2.8c2.3,1.5,4,2.4,4,2.4l0,0l0,0L132.7,112.1z"
							/>
						<path class="st25" d="M127.3,107.5l-0.7-0.4c-0.5-0.3-1,0.3-1,0.3l-2.1,3.2c0,0-0.1,0-0.1-0.1c0.2,0.2,0.5,0.4,0.8,0.6
							l2.2-3.3C126.8,107.2,127.2,107.5,127.3,107.5z"/>
						<path class="st25" d="M129.9,114.9l2.1-3.2c0,0,0.4-0.7-0.1-1l-0.7-0.4c0,0,0.4,0.3,0,1l-2.2,3.3
							C129.4,114.6,129.7,114.8,129.9,114.9C129.9,114.9,129.9,114.9,129.9,114.9z"/>
						<g>
							<path class="st21" d="M132,111.7L132,111.7l0.7,0.5c0,0,0.5-0.7-0.2-1.1l-0.6-0.4C132.4,111,132,111.7,132,111.7z"/>
							<path class="st21" d="M126.6,107.1l-0.6-0.4c-0.7-0.5-1.1,0.2-1.1,0.2l0.7,0.5l0,0C125.6,107.4,126,106.7,126.6,107.1z"/>
						</g>
						<g>
							<path class="st27" d="M129.9,114.9L129.9,114.9L129.9,114.9c0.5,0.3,0.7,0.4,0.7,0.4l0,0l0,0l2.1-3.2l-0.7-0.5L129.9,114.9
								L129.9,114.9z"/>
							<path class="st27" d="M123.4,110.6L123.4,110.6L123.4,110.6l2.1-3.2l-0.7-0.5l-2.1,3.2l0,0l0,0
								C122.7,110.1,123,110.3,123.4,110.6C123.3,110.6,123.4,110.6,123.4,110.6L123.4,110.6z"/>
						</g>
					</g>
				</g>
			</g>
			<g>
				<path class="st10" d="M46.3,149.1h-6.9c1.2,3.1,3.5,9.2,5.5,14.3h9.9C52.1,158.9,48.6,153,46.3,149.1z"/>
			</g>
			<path class="st10" d="M119.6,132.3c0.4,1.8-0.8,3.4-1.2,5.1c-0.2,0.9-0.3,2-0.1,2.9c0.1,0.2,0.3,0.6,0.3,0.9
				c0,0.1-6.3,18.7-7.5,22.3h9.5c1.3-7.4,3.5-21.1,3.6-21.4c0.4-0.9,1-1.5,1.8-2.3c1.1-1,2-2.1,2.8-3.3c0.7-1.1,1.5-2.2,1.6-3.5
				c0.1-1.5-0.3-3-0.8-4.4c-0.3-1-1.6-3.6-2-4.5c-0.2-0.5-0.7-1.2-1.2-1.1c-0.4,0.1-0.6,0.4-0.7,0.8c-0.1,0.4,0,0.7,0.1,1.1
				c0.3,1.5,1.6,4.7,2,6.2c-1.5-3.2-2.9-5.9-4-8.1c-0.2-0.4-0.3-0.7-0.7-1c-0.3-0.2-0.8-0.3-1.1-0.1c-0.4,0.3-0.3,0.9-0.2,1.4
				c0.5,1.9,2,5.7,2.8,7.6c-1.1-2-2.3-4.4-3.4-6.5c-0.2-0.3-0.4-0.7-0.7-0.9c-0.3-0.2-0.7-0.3-1.1-0.1c-0.6,0.3-0.4,1.1-0.2,1.8
				c0.7,2,1.6,4.1,2.6,6c-0.9-1.3-1.7-2.4-2.6-3.7c-0.3-0.4-0.9-1.3-1.4-1.2c-0.6,0.1-0.7,0.9-0.6,1.5
				C117.6,129.5,119.2,130.7,119.6,132.3z"/>
			<g>
				<g>
					<g>
						<path class="st21" d="M35.3,124.3l-0.5,4l10.4,0l-0.5-4.1c-0.9-0.2-2.6-0.5-4.6-0.6C37.9,123.6,36.1,124,35.3,124.3z"/>
					</g>
					<g class="st28">
						<path class="st29" d="M36.1,128l1.4-0.2l0.2-4c-0.4,0.1-0.8,0.1-1.2,0.2L36.1,128z"/>
					</g>
					<g class="st28">
						<path class="st29" d="M42.4,127.8l1.4,0.2l-0.4-4c-0.4-0.1-0.8-0.1-1.2-0.2L42.4,127.8z"/>
					</g>
					<g>
						<path class="st27" d="M34.8,128.3l1.2,0l0-0.3l0.4-4c-0.5,0.1-0.9,0.2-1.2,0.3L34.8,128.3z"/>
					</g>
					<g>
						<path class="st27" d="M43.8,128l0,0.3l1.4,0l-0.5-4.1c-0.3-0.1-0.8-0.2-1.3-0.2L43.8,128z"/>
					</g>
					<g>
						<path class="st20" d="M38.3,123.9l0,0.5c1.7,1,3.3,0,3.3,0l0-0.5c1.5,0.1,2.6,0.4,3.2,0.5l0-0.3c-1.3-0.3-5.2-1.2-9.3,0l0,0.3
							C36.3,124.1,37.3,124,38.3,123.9z"/>
					</g>
					<g class="st30">
						<path class="st20" d="M45.1,127.4c-0.3-0.1-1.5-0.6-5.1-0.6c-3.4,0-4.8,0.5-5.1,0.7l-0.1,0.9l10.4,0L45.1,127.4z"/>
					</g>
				</g>
				<g>
					<g>
						
							<rect x="31.2" y="160.6" transform="matrix(1 -1.336141e-03 1.336141e-03 1 -0.2168 5.365523e-02)" class="st31" width="17.7" height="3.4"/>
					</g>
					<path class="st32" d="M48.9,160.6c0,0-1-1.1-1-1.8l-1.8-29.5c0,0-0.1-1-1-1.4c0,0-1-0.7-5.1-0.6c-3.9,0-5.2,0.7-5.2,0.7l0,0
						c-0.8,0.4-0.9,1.4-0.9,1.4l-1.7,29.6c0,0.6-1,1.8-1,1.8L48.9,160.6z"/>
					<g>
						<path class="st33" d="M37.5,127.8c-0.1,0-0.7,0.1-0.7,0.1c-1.2,0.1-1.3,1.5-1.3,1.5c0.1,4.4-2,26.1-2,26.1
							c-0.5,3-1.6,4.7-1.6,4.7c-0.1,0.1-0.2,0.3-0.4,0.4l-0.3,0c0,0,0.9-1.1,1-1.8l1.7-29.6c0,0,0.1-0.9,0.9-1.4l0,0
							c0,0,1.3-0.7,5.2-0.7c4.1,0,5.1,0.6,5.1,0.6c0.9,0.4,1,1.4,1,1.4l1.8,29.5c0,0.6,1,1.8,1,1.8l-0.4,0c-0.2-0.2-0.3-0.4-0.3-0.4
							s-1.1-1.7-1.6-4.7c0,0-2.1-21.8-2-26.1c0,0-0.1-1.4-1.3-1.5c0,0-0.5-0.1-0.7-0.1C42.5,127.8,40.5,127.5,37.5,127.8z"/>
					</g>
					<path class="st31" d="M48.2,160.3c0,0-1.9-1.2-2.5-2l-11.2,0c0,0-1.3,1.4-2.6,2L48.2,160.3z"/>
					<path class="st29" d="M48.2,160.2c0,0-1.1-1.7-1.6-4.7c0,0-2.1-21.8-2-26.1c0,0-0.1-1.4-1.3-1.5c0,0-0.5-0.1-0.7-0.1
						c0,0,1.4,23.6,2.6,28.7C45.1,156.5,46.8,159.2,48.2,160.2z"/>
					<path class="st34" d="M39.1,149.4c-0.1,0.4-0.2,0.9-0.4,1.3c-0.3,0.6-0.9,1.1-1.2,1.7c-0.4,0.9-0.1,1.9,0.2,2.8
						c0.7,1.7,1.6,3.3,3,4.4c0.5,0.4,1.1,0.8,1.8,1l6.4,0c0,0-1-1.1-1-1.8l-1.1-17.6c-0.2,0.1-0.3,0.3-0.5,0.4
						c-0.8,0.8-1.4,1.7-2,2.6c-0.3-0.8-1.3-1-2.1-0.6c-0.7,0.4-1.2,1.1-1.6,1.8C40,146.7,39.4,148,39.1,149.4z"/>
					<path class="st29" d="M31.9,160.2c0,0,1.1-1.7,1.6-4.7c0,0,2.1-21.8,2-26.1c0,0,0.1-1.4,1.3-1.5c0,0,0.5-0.1,0.7-0.1
						c0,0-1.5,23.4-2.5,28.7C35,156.5,33.3,159.2,31.9,160.2z"/>
					<g>
						
							<rect x="48.2" y="160.8" transform="matrix(1 -1.324337e-03 1.324337e-03 1 -0.2149 6.410994e-02)" class="st35" width="0.2" height="2.9"/>
						
							<rect x="47.5" y="160.8" transform="matrix(1 -1.327737e-03 1.327737e-03 1 -0.2154 6.336185e-02)" class="st35" width="0.2" height="2.9"/>
						
							<rect x="46.8" y="160.8" transform="matrix(1 -1.301727e-03 1.301727e-03 1 -0.2112 6.122197e-02)" class="st35" width="0.2" height="2.9"/>
						
							<rect x="46.1" y="160.8" transform="matrix(1 -1.364877e-03 1.364877e-03 1 -0.2215 6.326038e-02)" class="st35" width="0.2" height="2.9"/>
						
							<rect x="45.4" y="160.8" transform="matrix(1 -1.301727e-03 1.301727e-03 1 -0.2112 5.943167e-02)" class="st35" width="0.2" height="2.9"/>
						
							<rect x="44.7" y="160.8" transform="matrix(1 -1.364877e-03 1.364877e-03 1 -0.2215 6.138321e-02)" class="st35" width="0.2" height="2.9"/>
						
							<rect x="44.1" y="160.8" transform="matrix(1 -1.301727e-03 1.301727e-03 1 -0.2112 5.764135e-02)" class="st35" width="0.2" height="2.9"/>
						
							<rect x="43.4" y="160.8" transform="matrix(1 -1.364877e-03 1.364877e-03 1 -0.2215 5.950608e-02)" class="st35" width="0.2" height="2.9"/>
						
							<rect x="42.7" y="160.8" transform="matrix(1 -1.289424e-03 1.289424e-03 1 -0.2092 5.532258e-02)" class="st35" width="0.2" height="2.9"/>
						
							<rect x="42" y="160.8" transform="matrix(1 -1.355667e-03 1.355667e-03 1 -0.22 5.723978e-02)" class="st35" width="0.2" height="2.9"/>
						
							<rect x="41.3" y="160.8" transform="matrix(1 -1.301715e-03 1.301715e-03 1 -0.2112 5.406021e-02)" class="st35" width="0.2" height="2.9"/>
						
							<rect x="40.6" y="160.8" transform="matrix(1 -1.364864e-03 1.364864e-03 1 -0.2215 5.575125e-02)" class="st35" width="0.2" height="2.9"/>
						
							<rect x="39.9" y="160.8" transform="matrix(1 -1.374154e-03 1.374154e-03 1 -0.223 5.518753e-02)" class="st35" width="0.2" height="2.9"/>
						
							<rect x="39.2" y="160.9" transform="matrix(1 -1.315246e-03 1.315246e-03 1 -0.2134 5.191025e-02)" class="st35" width="0.2" height="2.9"/>
						
							<rect x="38.5" y="160.9" transform="matrix(1 -1.252087e-03 1.252087e-03 1 -0.2032 4.855002e-02)" class="st35" width="0.2" height="2.9"/>
						
							<rect x="37.9" y="160.9" transform="matrix(1 -1.405033e-03 1.405033e-03 1 -0.228 5.353257e-02)" class="st35" width="0.2" height="2.9"/>
						
							<rect x="37.2" y="160.9" transform="matrix(1 -1.292777e-03 1.292777e-03 1 -0.2098 4.835331e-02)" class="st35" width="0.2" height="2.9"/>
						
							<rect x="36.5" y="160.9" transform="matrix(1 -1.361475e-03 1.361475e-03 1 -0.2209 4.999490e-02)" class="st35" width="0.2" height="2.9"/>
						
							<rect x="35.8" y="160.9" transform="matrix(1 -1.303432e-03 1.303432e-03 1 -0.2115 4.696101e-02)" class="st35" width="0.2" height="2.9"/>
						
							<rect x="35.1" y="160.9" transform="matrix(1 -1.364864e-03 1.364864e-03 1 -0.2215 4.824259e-02)" class="st35" width="0.2" height="2.9"/>
						
							<rect x="34.4" y="160.9" transform="matrix(1 -1.299940e-03 1.299940e-03 1 -0.2109 4.504699e-02)" class="st35" width="0.2" height="2.9"/>
						
							<rect x="33.7" y="160.9" transform="matrix(1 -1.366686e-03 1.366686e-03 1 -0.2218 4.642755e-02)" class="st35" width="0.2" height="2.9"/>
						
							<rect x="33" y="160.9" transform="matrix(1 -1.301715e-03 1.301715e-03 1 -0.2112 4.331838e-02)" class="st35" width="0.2" height="2.9"/>
						
							<rect x="32.4" y="160.9" transform="matrix(1 -1.364864e-03 1.364864e-03 1 -0.2215 4.448831e-02)" class="st35" width="0.2" height="2.9"/>
						
							<rect x="31.7" y="160.9" transform="matrix(1 -1.339177e-03 1.339177e-03 1 -0.2173 4.272731e-02)" class="st35" width="0.2" height="2.9"/>
					</g>
					<path class="st36" d="M46.1,129.3c0,0-0.1-1-1-1.4c0,0-1-0.7-5.1-0.6c-3.9,0-5.2,0.7-5.2,0.7l0,0c-0.8,0.4-0.9,1.4-0.9,1.4
						s2.1-0.8,6-0.8C43.8,128.5,46.1,129.3,46.1,129.3z"/>
					<path class="st37" d="M48.7,160.3l-17.2,0c-0.1,0.2-0.2,0.3-0.2,0.3l17.7,0C48.9,160.6,48.8,160.5,48.7,160.3z"/>
				</g>
			</g>
			<path class="st10" d="M48.7,137.2c0,0,1.7,1.5-2.3,11.1v-11L48.7,137.2z"/>
			<path class="st10" d="M46,139.2c-0.4-0.4-0.9-0.7-1.2-1.1c-0.4-0.4-0.7-1-0.7-1.7c0-0.7,0.3-1.4,0.8-1.5c0.3,0,0.5,0.1,0.7,0.2
				c0.7,0.3,1.3,0.6,2,0.9c0.4,0.2,0.8,0.4,1.1,0.8c0.9,1.4-0.3,3.5-0.8,4.7C47.2,140.8,46.7,139.8,46,139.2z"/>
		</g>
	</g>
</g>
</svg>
