<?xml version="1.0" encoding="utf-8"?>
<!-- Generator: Adobe Illustrator 22.0.1, SVG Export Plug-In . SVG Version: 6.00 Build 0)  -->
<svg version="1.1" id="Layer_1" xmlns="http://www.w3.org/2000/svg" xmlns:xlink="http://www.w3.org/1999/xlink" x="0px" y="0px"
	 viewBox="0 0 164 164" style="enable-background:new 0 0 164 164;" xml:space="preserve">
<style type="text/css">
	.st0{clip-path:url(#SVGID_2_);}
	.st1{fill:url(#SVGID_3_);}
	.st2{fill:#8E3A04;}
	.st3{fill:#7E3100;}
	.st4{fill:#FDD4B2;}
	.st5{fill:#FAB47F;}
	.st6{fill:#EE5290;}
	.st7{fill:#A3440E;}
	.st8{fill:#B86839;}
	.st9{fill:#FCCFA9;}
	.st10{fill:#FBC091;}
	.st11{fill:#FDE2CC;}
	.st12{fill:#CD0260;}
	.st13{fill:#F497A6;}
	.st14{fill:#973F09;}
	.st15{fill:#722A00;}
	.st16{fill:#FFFFFF;}
	.st17{fill:#FFC849;}
</style>
<g>
	<defs>
		<circle id="SVGID_1_" cx="82" cy="82" r="82"/>
	</defs>
	<clipPath id="SVGID_2_">
		<use xlink:href="#SVGID_1_"  style="overflow:visible;"/>
	</clipPath>
	<g class="st0">
		<radialGradient id="SVGID_3_" cx="82" cy="82" r="82" gradientUnits="userSpaceOnUse">
			<stop  offset="0.6154" style="stop-color:#FFFFFF"/>
			<stop  offset="0.727" style="stop-color:#FFFBFA"/>
			<stop  offset="0.8576" style="stop-color:#FDEFEC"/>
			<stop  offset="0.9973" style="stop-color:#FBDAD5"/>
			<stop  offset="1" style="stop-color:#FBDAD4"/>
		</radialGradient>
		<circle class="st1" cx="82" cy="82" r="82"/>
		<g>
			<path class="st2" d="M117.1,34.8c0,0,16.1,8.7,7.3,20.1s-21.6,11.2-21.6,11.2l-14.6-9.8C88.1,56.3,93.2,19.2,117.1,34.8z"/>
			<path class="st3" d="M124.3,54.9c1.2-1.5,1.9-2.9,2.3-4.3c-2.2,1.9-5.5,2.7-10.5-0.1c-12.1-6.9-10.6-17.3-10.6-17.3L88.8,56.8
				l13.9,9.3C102.7,66.1,115.5,66.3,124.3,54.9z"/>
			<g>
				<path class="st4" d="M103.8,160.4c-0.2-15.6-6.4-14.2-6.4-14.2s-9.9,0.9-12.9,0.2c-2.4-0.6-1.6-5.3-1.1-7.2H72.8
					c0.4,1.9,1.2,6.7-1.1,7.2c-3,0.7-12.9-0.2-12.9-0.2s0,0,0,0.1c0,0,0-0.1,0-0.1s-5.9-1.4-6.1,14.2c0,1.2,0,2.4-0.1,3.6h51.4
					C103.9,162.8,103.9,161.6,103.8,160.4z"/>
			</g>
			<path class="st5" d="M72.8,139.2c0.3,1.1,0.6,3.2,0.4,4.9c1.4,0.2,2.9,0.3,4.5,0.2c1.9-0.1,3.6-0.3,5.3-0.6
				c-0.1-1.6,0.2-3.5,0.5-4.5H72.8z"/>
			<g>
				<path class="st6" d="M78.2,160.2c-14.8,0-17.2-12.1-17.4-14.5l-2,0c0,0,2.6,9.9,2.6,18.4h33.9c0,0,0.6-13.5,2.5-18.4l-1.9,0
					C94.9,149.1,93.5,160.2,78.2,160.2z"/>
			</g>
			<path class="st7" d="M47.3,114.8c0,0-6.1-24.7-4.6-37c1.4-12.2,8.1-32,44.5-29.5c36.5,2.5,29,49.2,22.9,66.8L47.3,114.8z"/>
			<path class="st8" d="M51.9,67.1c0,0,11.9-11.4,30.7-10.6c0,0,1.3,0.1,1.5-0.9c0.2-1-0.3-2.1-2.8-2.1S60.6,54.4,51.9,67.1z"/>
			<path class="st2" d="M86.1,48.2c2,3.6,9.7,15.6,26.3,18.2c-3.6-9.8-11.2-17.2-25.1-18.1C86.8,48.2,86.4,48.2,86.1,48.2z"/>
			<path class="st2" d="M84,70.3c0,0-29.8,23-49.7,14.4C34.3,84.7,50.3,89,84,70.3z"/>
			<path class="st2" d="M94.9,73.6c-20.2,16.3-43.1,18-51.8,18c1.3,11.3,4.2,23.2,4.2,23.2l62.8,0.3c1.9-5.4,3.8-13.4,4.7-22.1
				C101.6,88.9,94.9,73.6,94.9,73.6z"/>
			<path class="st9" d="M51.4,113.7c0,0-1-1.8-3.7-1.1c-2.7,0.7-2.2,6.4-0.3,8.9c1.9,2.5,5.2,3.7,7.4,3.1L51.4,113.7z"/>
			<path class="st10" d="M47.9,122.1c1.9,2,4.8,3,6.8,2.5l-0.9-3l-1.2,0l-0.6,0.6c0.1-0.2,0.3-0.7,0.3-0.7c0.2-2.1-1.6-1.8-2.1-1.5
				C49.8,120.2,48.5,121.6,47.9,122.1z"/>
			<path class="st9" d="M105.8,113.7c0,0,1-1.8,3.7-1.1c2.7,0.7,2.2,6.4,0.3,8.9c-1.9,2.5-5.2,3.7-7.4,3.1L105.8,113.7z"/>
			<path class="st10" d="M108.8,122.6c-0.5-0.6-2.3-2.7-3.4-2.9c-0.4-0.1-0.9,0-1.5,0.2l-1.5,4.7
				C104.3,125.1,106.9,124.3,108.8,122.6z"/>
			<path class="st11" d="M109.9,96c-1.2,18.2-7.1,45.3-30.9,46c-23.3,0.6-29.7-25.3-31.3-43.6c0,0,32.1-6.4,47.1-19.9
				C94.8,78.6,98,88.1,109.9,96L109.9,96z"/>
			<path class="st9" d="M52.6,121.6c1.2,3,2.6,5.9,4.3,8.5l1.8-1.4l-4.1-9L52.6,121.6z"/>
			<path class="st9" d="M102.1,119.7l-4.1,9l2.1,1.6c1.7-2.5,3.2-5.3,4.4-8.3L102.1,119.7z"/>
			<path class="st9" d="M104.3,120.1c-0.7,0.7-0.2,1.8,0,2.3c0.4-0.9,0.7-1.8,1-2.7C105.1,119.7,104.7,119.8,104.3,120.1z"/>
			<g>
				<path class="st12" d="M74.7,127.7c0,0,3.6,1.8,9,0c0,0-0.5,7-4.6,7C75,134.7,74.7,127.7,74.7,127.7z"/>
				<path class="st13" d="M76.8,133.7c0.6,0.6,1.4,1,2.4,1c1,0,1.8-0.4,2.4-1C79.5,132.5,77.9,133.1,76.8,133.7z"/>
			</g>
			<path class="st14" d="M66,97.6c0,0-3.9-0.9-8.4,0.9C57.7,98.5,62.4,94.2,66,97.6z"/>
			<path class="st14" d="M90.8,97.6c0,0,3.8-0.7,8.4,0.9C99.2,98.5,94.4,94.2,90.8,97.6z"/>
			<g>
				<path class="st2" d="M62.2,107c-1,0-1.8,0.4-2.3,1.2c-1.5-0.3-2.3-1.7-2.3-1.7c0.3,1.8,0.9,2.7,1.5,3.1
					c-0.3,0.8-0.4,1.8-0.4,2.9c0,3,1.3,5.4,3.5,5.4c2.3,0,3.5-2.4,3.5-5.4C65.8,109.5,64.6,107,62.2,107z"/>
				<path class="st15" d="M63,109.3c-1.5,0-2.3,1.4-2.3,3.1s0.8,3.1,2.3,3.1c1.5,0,2.3-1.4,2.3-3.1S64.5,109.3,63,109.3z"/>
				<path class="st16" d="M61.3,113.5c-0.7,0-1,0.5-1,1.1c0,0.6,0.4,1.1,1,1.1c0.7,0,1-0.5,1-1.1C62.3,114,61.9,113.5,61.3,113.5z"
					/>
			</g>
			<g>
				<path class="st2" d="M94.9,107c1,0,1.8,0.4,2.3,1.2c1.5-0.3,2.3-1.7,2.3-1.7c-0.3,1.8-0.9,2.7-1.5,3.1c0.3,0.8,0.4,1.8,0.4,2.9
					c0,3-1.3,5.4-3.5,5.4c-2.3,0-3.5-2.4-3.5-5.4C91.3,109.5,92.5,107,94.9,107z"/>
				<path class="st15" d="M94.1,109.3c1.5,0,2.3,1.4,2.3,3.1s-0.8,3.1-2.3,3.1c-1.5,0-2.3-1.4-2.3-3.1S92.5,109.3,94.1,109.3z"/>
				<path class="st16" d="M93.1,113.5c0.7,0,1,0.5,1,1.1c0,0.6-0.4,1.1-1,1.1c-0.7,0-1-0.5-1-1.1C92.1,114,92.4,113.5,93.1,113.5z"
					/>
			</g>
			<path class="st7" d="M99.9,28.6c3.2-0.9,6.8-0.5,10,0.5c3,1,5.8,2.8,7.2,5.7c-4.3-2.7-11.7-4.8-12,1.9
				c-0.3,6.6,6.2,13.3,10.7,17.2c3.7,3.2,8.8,5.9,13.4,4.2c-2.1,1-4.5,1.6-6.8,1.7c1.5,0.1,3.1,0.3,4.6,0.4
				c-4.4,3.8-10.8,4.7-16.5,3.4c-5.7-1.3-10.7-4.5-15.3-8.2c-3.4-2.7-6.8-6.1-7.2-10.4c-0.3-3.3,1.2-6.5,3.1-9.3
				c1.9-2.9,4.3-5.5,7.6-6.8C99.2,28.9,99.5,28.7,99.9,28.6z"/>
			<path class="st11" d="M47,138.8c0,0.4-3.8,20.9-4.4,25.2h9.6c0,0,0.5-24.1,0.5-24.2c0-0.3,0.4-0.5,0.5-0.7
				c0.5-0.8,0.8-1.9,0.9-2.8c0.1-1.7-0.4-3.7,0.6-5.2c0.9-1.5,2.8-2,3.8-3.4c0.4-0.5,0.5-1.3,0-1.6c-0.4-0.3-1.3,0.4-1.7,0.7
				c-1.3,0.9-2.4,1.7-3.7,2.6c1.5-1.4,3.1-3.1,4.5-4.7c0.4-0.5,0.8-1.2,0.4-1.7c-0.2-0.3-0.7-0.3-1.1-0.2s-0.7,0.4-1,0.6
				c-1.7,1.5-3.7,3.4-5.4,4.9c1.3-1.5,4-4.5,5.2-6.2c0.3-0.4,0.6-0.9,0.3-1.4c-0.2-0.3-0.7-0.4-1-0.3c-0.4,0.1-0.7,0.4-0.9,0.7
				c-1.7,1.7-4,3.8-6.5,6.3c0.8-1.3,3.1-3.9,4-5.2c0.2-0.3,0.4-0.6,0.5-1c0.1-0.4-0.1-0.8-0.4-1c-0.5-0.3-1.1,0.2-1.5,0.6
				c-0.7,0.7-2.8,2.7-3.4,3.5c-0.9,1.2-1.8,2.4-2.2,3.9c-0.4,1.2,0,2.6,0.3,3.8c0.4,1.4,0.9,2.7,1.5,4C46.6,137,47,137.8,47,138.8z"
				/>
			<path class="st11" d="M109.3,138.8c0,0.4,3.8,20.9,4.4,25.2h-9.6c0,0-0.5-24.1-0.5-24.2c0-0.3-0.4-0.5-0.5-0.7
				c-0.5-0.8-0.8-1.9-0.9-2.8c-0.1-1.7,0.4-3.7-0.6-5.2c-0.9-1.5-2.8-2-3.8-3.4c-0.4-0.5-0.5-1.3,0-1.6c0.4-0.3,1.3,0.4,1.7,0.7
				c1.3,0.9,2.4,1.7,3.7,2.6c-1.5-1.4-3.1-3.1-4.5-4.7c-0.4-0.5-0.8-1.2-0.4-1.7c0.2-0.3,0.7-0.3,1.1-0.2c0.4,0.1,0.7,0.4,1,0.6
				c1.7,1.5,3.7,3.4,5.4,4.9c-1.3-1.5-4-4.5-5.2-6.2c-0.3-0.4-0.6-0.9-0.3-1.4c0.2-0.3,0.7-0.4,1-0.3c0.4,0.1,0.7,0.4,0.9,0.7
				c1.7,1.7,4,3.8,6.5,6.3c-0.8-1.3-3.1-3.9-4-5.2c-0.2-0.3-0.4-0.6-0.5-1c-0.1-0.4,0.1-0.8,0.4-1c0.5-0.3,1.1,0.2,1.5,0.6
				c0.7,0.7,2.8,2.7,3.4,3.5c0.9,1.2,1.8,2.4,2.2,3.9c0.4,1.2,0,2.6-0.3,3.8c-0.4,1.4-0.9,2.7-1.5,4
				C109.7,137,109.4,137.8,109.3,138.8z"/>
			<g>
				<path class="st17" d="M116.3,105.7c0,0,7.3-0.6,7.3-8.4c0,0,0.2,8.4,7,8.4c0,0-7.1,1.5-7.1,7.9
					C123.5,113.6,122.2,105.7,116.3,105.7z"/>
				<polygon class="st17" points="115.7,106 112.3,106 112.3,105.4 115.7,105.4 115.7,106 				"/>
				<polygon class="st17" points="134.8,106 131.5,106 131.5,105.4 134.8,105.4 134.8,106 				"/>
				<polygon class="st17" points="123.8,96.5 123.3,96.5 123.3,93.1 123.8,93.1 123.8,96.5 				"/>
				<polygon class="st17" points="123.8,117.5 123.3,117.5 123.3,114.2 123.8,114.2 123.8,117.5 				"/>
			</g>
			<g>
				<path class="st17" d="M33.6,111.7c0,0,8.2-0.6,8.2-9.4c0,0,0.2,9.4,7.8,9.4c0,0-7.9,1.6-7.9,8.8
					C41.7,120.5,40.2,111.7,33.6,111.7z"/>
				<polygon class="st17" points="32.9,112 29.2,112 29.2,111.4 32.9,111.4 32.9,112 				"/>
				<polygon class="st17" points="54.3,112 50.5,112 50.5,111.4 54.3,111.4 54.3,112 				"/>
				<polygon class="st17" points="42,101.5 41.4,101.5 41.4,97.7 42,97.7 42,101.5 				"/>
				<polygon class="st17" points="42,124.9 41.4,124.9 41.4,121.1 42,121.1 42,124.9 				"/>
			</g>
			<g>
				<path class="st17" d="M112.2,132.2c0,0,3.7-0.3,3.7-4.3c0,0,0.1,4.3,3.6,4.3c0,0-3.6,0.7-3.6,4
					C115.9,136.2,115.2,132.2,112.2,132.2z"/>
				<polygon class="st17" points="111.9,132.4 110.1,132.4 110.1,132.1 111.9,132.1 111.9,132.4 				"/>
				<polygon class="st17" points="121.7,132.4 119.9,132.4 119.9,132.1 121.7,132.1 121.7,132.4 				"/>
				<polygon class="st17" points="116,127.5 115.8,127.5 115.8,125.8 116,125.8 116,127.5 				"/>
				<polygon class="st17" points="116,138.3 115.8,138.3 115.8,136.5 116,136.5 116,138.3 				"/>
			</g>
			<g>
				<path class="st17" d="M48.2,87.8c0,0,4.3-0.3,4.3-5c0,0,0.1,5,4.1,5c0,0-4.2,0.9-4.2,4.7C52.5,92.4,51.6,87.8,48.2,87.8z"/>
				<polygon class="st17" points="47.8,88 45.8,88 45.8,87.6 47.8,87.6 47.8,88 				"/>
				<polygon class="st17" points="59.1,88 57.1,88 57.1,87.6 59.1,87.6 59.1,88 				"/>
				<polygon class="st17" points="52.6,82.4 52.3,82.4 52.3,80.4 52.6,80.4 52.6,82.4 				"/>
				<polygon class="st17" points="52.6,94.8 52.3,94.8 52.3,92.8 52.6,92.8 52.6,94.8 				"/>
			</g>
		</g>
	</g>
</g>
</svg>
