<?xml version="1.0" encoding="utf-8"?>
<!-- Generator: Adobe Illustrator 22.0.1, SVG Export Plug-In . SVG Version: 6.00 Build 0)  -->
<svg version="1.1" id="Layer_1" xmlns="http://www.w3.org/2000/svg" xmlns:xlink="http://www.w3.org/1999/xlink" x="0px" y="0px"
	 viewBox="0 0 164 164" style="enable-background:new 0 0 164 164;" xml:space="preserve">
<style type="text/css">
	.st0{clip-path:url(#SVGID_2_);}
	.st1{fill:url(#SVGID_3_);}
	.st2{fill:#FDD4B2;}
	.st3{fill:#FAB47F;}
	.st4{fill:#8E3A04;}
	.st5{fill:#7E3100;}
	.st6{fill:#A3440E;}
	.st7{fill:#B86839;}
	.st8{fill:#FCCFA9;}
	.st9{fill:#FDE2CC;}
	.st10{fill:#FCCDA6;}
	.st11{fill:#973F09;}
	.st12{fill:#606161;}
	.st13{fill:#722A00;}
	.st14{fill:#FFFFFF;}
	.st15{fill:#CD0260;}
	.st16{fill:#F497A6;}
	.st17{fill:#EE5290;}
</style>
<g>
	<defs>
		<circle id="SVGID_1_" cx="82" cy="82" r="82"/>
	</defs>
	<clipPath id="SVGID_2_">
		<use xlink:href="#SVGID_1_"  style="overflow:visible;"/>
	</clipPath>
	<g class="st0">
		<radialGradient id="SVGID_3_" cx="82" cy="82" r="82" gradientUnits="userSpaceOnUse">
			<stop  offset="0.6154" style="stop-color:#FFFFFF"/>
			<stop  offset="0.727" style="stop-color:#FFFBFA"/>
			<stop  offset="0.8576" style="stop-color:#FDEFEC"/>
			<stop  offset="0.9973" style="stop-color:#FBDAD5"/>
			<stop  offset="1" style="stop-color:#FBDAD4"/>
		</radialGradient>
		<circle class="st1" cx="82" cy="82" r="82"/>
		<g>
			<g>
				<path class="st2" d="M105.5,160.4c-0.2-15.6-6.4-14.2-6.4-14.2s-9.9,0.9-12.9,0.2c-2.4-0.6-1.6-5.3-1.1-7.2H74.4
					c0.4,1.9,1.2,6.7-1.1,7.2c-3,0.7-12.9-0.2-12.9-0.2s0,0,0,0.1c0,0,0-0.1,0-0.1s-6.2-1.4-6.4,14.2c0,1.2,0,2.4-0.1,3.6h51.7
					C105.5,162.8,105.5,161.6,105.5,160.4z"/>
			</g>
			<path class="st3" d="M74.4,139.2c0.3,1.1,0.6,3.2,0.4,4.9c1.4,0.2,2.9,0.3,4.5,0.2c1.9-0.1,3.6-0.3,5.3-0.6
				c-0.1-1.6,0.2-3.5,0.5-4.5H74.4z"/>
			<path class="st4" d="M117.1,34.8c0,0,16.1,8.7,7.3,20.1c-8.8,11.4-21.6,11.2-21.6,11.2l-14.6-9.8C88.2,56.3,93.3,19.2,117.1,34.8
				z"/>
			<path class="st5" d="M124.4,54.9c1.2-1.5,1.9-2.9,2.3-4.3c-2.2,1.9-5.5,2.7-10.5-0.1c-12.1-6.9-10.6-17.3-10.6-17.3L88.9,56.8
				l13.9,9.3C102.8,66.1,115.5,66.3,124.4,54.9z"/>
			<path class="st6" d="M47.7,114.8c0,0-6.1-24.7-4.6-37s8.1-32,44.5-29.5c36.5,2.5,29,49.2,22.9,66.8L47.7,114.8z"/>
			<path class="st7" d="M52.9,67c0,0,11.9-11.4,30.7-10.6c0,0,1.3,0.1,1.5-0.9c0.2-1-0.3-2.1-2.8-2.1C79.9,53.4,61.6,54.3,52.9,67z"
				/>
			<path class="st4" d="M87.6,48.3c-0.5,0-1-0.1-1.5-0.1c2,3.6,9.9,15.6,26.7,18.6C109.2,56.9,101.7,49.2,87.6,48.3z"/>
			<path class="st4" d="M84.4,70.3c0,0-29.8,23-49.7,14.4C34.7,84.7,50.7,89,84.4,70.3z"/>
			<path class="st4" d="M95.3,73.6c-20.2,16.3-43.1,18-51.8,18c1.3,11.3,4.2,23.2,4.2,23.2l62.8,0.3c1.9-5.4,3.8-13.4,4.7-22.1
				C101.9,88.9,95.3,73.6,95.3,73.6z"/>
			<path class="st8" d="M51.7,113.7c0,0-1-1.8-3.7-1.1c-2.7,0.7-2.2,6.4-0.3,8.9c1.9,2.5,5.2,3.7,7.4,3.1L51.7,113.7z"/>
			<path class="st8" d="M106.2,113.7c0,0,1-1.8,3.7-1.1c2.7,0.7,2.2,6.4,0.3,8.9c-1.9,2.5-5.2,3.7-7.4,3.1L106.2,113.7z"/>
			<path class="st9" d="M110.2,96c-1.2,18.2-7.1,45.3-30.9,46C56,142.6,49.6,116.7,48,98.4c0,0,32.1-6.4,47.1-19.9
				C95.1,78.6,98.4,88.1,110.2,96L110.2,96z"/>
			<g>
				<path class="st10" d="M96,130.7c0,0-0.1,1.2,1,1.7c0.4,0.2,0.8,0.5,1.1,0.9c2.1-2.4,3.9-5.2,5.3-8.2
					C100.9,125.5,96.7,126.7,96,130.7z"/>
			</g>
			<path class="st10" d="M62.3,132.4c1.1-0.5,1-1.7,1-1.7c-0.9-4.9-6.9-5.6-8.9-5.7c1.7,3.6,3.7,6.8,6.3,9.5
				C60.9,133.5,61.5,132.7,62.3,132.4z"/>
			<path class="st11" d="M69.5,95.8c0,0-0.1,2.7-2.9,2.8c-2.8,0.1-7.3-0.6-7.3-0.6s6-0.3,7.5-0.7C68.6,96.8,69.5,95.8,69.5,95.8z"/>
			<path class="st11" d="M89.9,95.8c0,0,0.1,2.7,2.9,2.8c2.8,0.1,7.3-0.6,7.3-0.6s-6-0.3-7.5-0.7C90.8,96.8,89.9,95.8,89.9,95.8z"/>
			<g>
				<path class="st12" d="M63.7,120c-0.2,0-0.4,0.2-0.4,0.4c0,0.2,0.2,0.4,0.4,0.4c0.2,0,0.4-0.2,0.4-0.4
					C64.1,120.2,63.9,120,63.7,120z"/>
				<circle class="st12" cx="56.6" cy="119.9" r="0.4"/>
				<path class="st12" d="M62.2,122.9c-0.3,0-0.5,0.2-0.5,0.5s0.2,0.5,0.5,0.5c0.3,0,0.5-0.2,0.5-0.5S62.5,122.9,62.2,122.9z"/>
				<path class="st12" d="M70.3,119.2c-0.2,0-0.4,0.2-0.4,0.4c0,0.2,0.2,0.4,0.4,0.4c0.2,0,0.4-0.2,0.4-0.4
					C70.7,119.3,70.6,119.2,70.3,119.2z"/>
				<circle class="st12" cx="69.3" cy="126.9" r="0.4"/>
				<path class="st12" d="M63.5,127.8c-0.3,0-0.6,0.3-0.6,0.6s0.3,0.6,0.6,0.6c0.3,0,0.6-0.3,0.6-0.6S63.8,127.8,63.5,127.8z"/>
				<path class="st12" d="M57.2,124.2c-0.3,0-0.6,0.3-0.6,0.6c0,0.3,0.3,0.6,0.6,0.6c0.3,0,0.6-0.3,0.6-0.6
					C57.8,124.5,57.5,124.2,57.2,124.2z"/>
				<path class="st12" d="M67.8,121.7c-0.3,0-0.6,0.3-0.6,0.6c0,0.3,0.3,0.6,0.6,0.6c0.3,0,0.6-0.3,0.6-0.6
					C68.4,122,68.1,121.7,67.8,121.7z"/>
			</g>
			<g>
				<circle class="st12" cx="94.3" cy="120.4" r="0.4"/>
				<circle class="st12" cx="101.3" cy="119.9" r="0.4"/>
				<path class="st12" d="M95.7,122.9c0.3,0,0.5,0.2,0.5,0.5s-0.2,0.5-0.5,0.5c-0.3,0-0.5-0.2-0.5-0.5S95.4,122.9,95.7,122.9z"/>
				<path class="st12" d="M87.6,119.2c0.2,0,0.4,0.2,0.4,0.4c0,0.2-0.2,0.4-0.4,0.4c-0.2,0-0.4-0.2-0.4-0.4
					C87.2,119.3,87.4,119.2,87.6,119.2z"/>
				<circle class="st12" cx="88.6" cy="126.9" r="0.4"/>
				<path class="st12" d="M94.5,127.8c0.3,0,0.6,0.3,0.6,0.6s-0.3,0.6-0.6,0.6c-0.3,0-0.6-0.3-0.6-0.6S94.1,127.8,94.5,127.8z"/>
				<path class="st12" d="M100.8,124.2c0.3,0,0.6,0.3,0.6,0.6c0,0.3-0.3,0.6-0.6,0.6c-0.3,0-0.6-0.3-0.6-0.6
					C100.2,124.5,100.4,124.2,100.8,124.2z"/>
				<path class="st12" d="M90.2,121.7c0.3,0,0.6,0.3,0.6,0.6c0,0.3-0.3,0.6-0.6,0.6c-0.3,0-0.6-0.3-0.6-0.6
					C89.6,122,89.8,121.7,90.2,121.7z"/>
			</g>
			<path class="st6" d="M100,28.6c3.2-0.9,6.8-0.5,10,0.5c3,1,5.8,2.8,7.2,5.7c-4.3-2.7-11.7-4.8-12,1.9
				c-0.3,6.6,6.2,13.3,10.7,17.2c3.7,3.2,8.8,5.9,13.4,4.2c-2.1,1-4.5,1.6-6.8,1.7c1.5,0.1,3.1,0.3,4.6,0.4
				c-4.4,3.8-10.8,4.7-16.5,3.4c-5.7-1.3-10.7-4.5-15.3-8.2c-3.4-2.7-6.8-6.1-7.2-10.4c-0.3-3.3,1.2-6.5,3.1-9.3
				c1.9-2.9,4.3-5.5,7.6-6.8C99.2,28.9,99.6,28.7,100,28.6z"/>
			<g>
				<path class="st4" d="M63,107c-1,0-1.8,0.4-2.3,1.2c-1.5-0.3-2.3-1.7-2.3-1.7c0.3,1.8,0.9,2.7,1.5,3.1c-0.3,0.8-0.4,1.8-0.4,2.9
					c0,3,1.3,5.4,3.5,5.4c2.3,0,3.5-2.4,3.5-5.4C66.5,109.5,65.3,107,63,107z"/>
				<path class="st13" d="M63.7,109.3c-1.5,0-2.3,1.4-2.3,3.1s0.8,3.1,2.3,3.1c1.5,0,2.3-1.4,2.3-3.1S65.2,109.3,63.7,109.3z"/>
				<path class="st14" d="M62,109c-0.7,0-1,0.5-1,1.1s0.4,1.1,1,1.1c0.7,0,1-0.5,1-1.1S62.6,109,62,109z"/>
			</g>
			<g>
				<path class="st4" d="M95.6,107c1,0,1.8,0.4,2.3,1.2c1.5-0.3,2.3-1.7,2.3-1.7c-0.3,1.8-0.9,2.7-1.5,3.1c0.3,0.8,0.4,1.8,0.4,2.9
					c0,3-1.3,5.4-3.5,5.4c-2.3,0-3.5-2.4-3.5-5.4C92,109.5,93.2,107,95.6,107z"/>
				<path class="st13" d="M94.8,109.3c1.5,0,2.3,1.4,2.3,3.1s-0.8,3.1-2.3,3.1c-1.5,0-2.3-1.4-2.3-3.1S93.2,109.3,94.8,109.3z"/>
				<path class="st14" d="M96.8,109c0.7,0,1,0.5,1,1.1s-0.4,1.1-1,1.1c-0.7,0-1-0.5-1-1.1S96.1,109,96.8,109z"/>
			</g>
			<path class="st15" d="M74.1,130.2c0-1.6,0.7-2.9,2.3-3.1c1.6-0.2,2.9,0.9,4.5,0.7c0.8-0.1,1.7-0.3,2.5,0.1
				c0.8,0.4,1.3,1.3,1.4,2.2c0.2,2.4-2.1,5.1-4.4,5.7c-1.5,0.4-2.9,0.1-4.1-0.8C75.2,134.1,74.1,132,74.1,130.2z"/>
			<path class="st16" d="M76,134.7c0.1,0.1,0.2,0.2,0.3,0.2c1.3,0.9,2.6,1.2,4.1,0.8c0.8-0.2,1.6-0.7,2.3-1.3
				C80.3,133.3,77.4,133.8,76,134.7z"/>
			<g>
				<path class="st17" d="M79.8,160.2c-14.8,0-17.2-12.1-17.4-14.5l-2,0c0,0,2.6,9.9,2.6,18.4H97c0,0,0.6-13.5,2.5-18.4l-1.9,0
					C96.6,149.1,95.1,160.2,79.8,160.2z"/>
			</g>
			<path class="st9" d="M53.6,138.8c0,0-3.1,15.6-4.6,25.2h9.6l0.5-24.2c0,0,1.7-1,0.9-4.9c-0.8-3.9,3.5-2.3,1.7-5.7
				s-10.2-5.6-10.6,0.3C50.8,134.4,53.6,138.8,53.6,138.8z"/>
			<path class="st9" d="M105.8,138.8c0,0,3.1,15.6,4.6,25.2h-9.6l-0.5-24.2c0,0-1.7-1-0.9-4.9c0.8-3.9-3.5-2.3-1.7-5.7
				c1.8-3.4,10.2-5.6,10.6,0.3C108.6,134.4,105.8,138.8,105.8,138.8z"/>
		</g>
	</g>
</g>
</svg>
