<?xml version="1.0" encoding="utf-8"?>
<!-- Generator: Adobe Illustrator 22.0.1, SVG Export Plug-In . SVG Version: 6.00 Build 0)  -->
<svg version="1.1" id="Layer_1" xmlns="http://www.w3.org/2000/svg" xmlns:xlink="http://www.w3.org/1999/xlink" x="0px" y="0px"
	 viewBox="0 0 164 164" style="enable-background:new 0 0 164 164;" xml:space="preserve">
<style type="text/css">
	.st0{clip-path:url(#SVGID_2_);}
	.st1{fill:none;}
	.st2{fill:url(#SVGID_3_);}
	.st3{fill:#8E3A04;}
	.st4{fill:#7E3100;}
	.st5{fill:#FDD4B2;}
	.st6{fill:#FAB47F;}
	.st7{fill:#EE5290;}
	.st8{fill:#A3440E;}
	.st9{fill:#B86839;}
	.st10{fill:#FAB682;}
	.st11{fill:#FCCFA9;}
	.st12{fill:#FDE2CC;}
	.st13{fill:#CD0260;}
	.st14{fill:#F497A6;}
	.st15{fill:#973F09;}
	.st16{fill:#722A00;}
	.st17{fill:#FFFFFF;}
	.st18{fill:#EE3A24;}
</style>
<g>
	<defs>
		<circle id="SVGID_1_" cx="82.2" cy="82.1" r="82"/>
	</defs>
	<clipPath id="SVGID_2_">
		<use xlink:href="#SVGID_1_"  style="overflow:visible;"/>
	</clipPath>
	<g class="st0">
		<circle class="st1" cx="82.2" cy="82.1" r="82"/>
		<radialGradient id="SVGID_3_" cx="82.2478" cy="82.106" r="82" gradientUnits="userSpaceOnUse">
			<stop  offset="0.6154" style="stop-color:#FFFFFF"/>
			<stop  offset="0.727" style="stop-color:#FFFBFA"/>
			<stop  offset="0.8576" style="stop-color:#FDEFEC"/>
			<stop  offset="0.9973" style="stop-color:#FBDAD5"/>
			<stop  offset="1" style="stop-color:#FBDAD4"/>
		</radialGradient>
		<circle class="st2" cx="82.2" cy="82.1" r="82"/>
		<g>
			<path class="st3" d="M117.5,34.9c0,0,16.1,8.7,7.3,20.1s-21.6,11.2-21.6,11.2l-14.6-9.8C88.6,56.4,93.7,19.4,117.5,34.9z"/>
			<path class="st4" d="M124.8,55c1.2-1.5,1.9-2.9,2.3-4.3c-2.2,1.9-5.5,2.7-10.5-0.1C104.4,43.7,106,33.3,106,33.3L89.3,56.9
				l13.9,9.3C103.2,66.2,115.9,66.4,124.8,55z"/>
			<g>
				<path class="st5" d="M105.8,160.5c-0.2-15.6-6.4-14.2-6.4-14.2s-9.9,0.9-12.9,0.2c-2.4-0.6-1.6-5.3-1.1-7.2H74.7
					c0.4,1.9,1.2,6.7-1.1,7.2c-3,0.7-12.9-0.2-12.9-0.2s0,0,0,0.1c0,0,0-0.1,0-0.1s-6.2-1.4-6.4,14.2c0,1.2,0,2.4-0.1,3.6h51.7
					C105.8,162.9,105.8,161.7,105.8,160.5z"/>
			</g>
			<path class="st6" d="M74.7,139.3c0.3,1.1,0.6,3.2,0.4,4.9c1.4,0.2,2.9,0.3,4.5,0.2c1.9-0.1,3.6-0.3,5.3-0.6
				c-0.1-1.6,0.2-3.5,0.5-4.5H74.7z"/>
			<g>
				<path class="st7" d="M80.1,160.3c-14.8,0-17.2-12.1-17.4-14.5l-2,0c0,0,2.6,9.9,2.6,18.4h33.9c0,0,0.6-13.5,2.5-18.4l-1.9,0
					C96.9,149.2,95.4,160.3,80.1,160.3z"/>
			</g>
			<path class="st8" d="M47.8,114.9c0,0-6.1-24.7-4.6-37s8.1-32,44.5-29.5s29,49.2,22.9,66.8L47.8,114.9z"/>
			<path class="st9" d="M52.7,67.1c0,0,11.9-11.4,30.7-10.6c0,0,1.3,0.1,1.5-0.9c0.2-1-0.3-2.1-2.8-2.1
				C79.7,53.5,61.4,54.4,52.7,67.1z"/>
			<path class="st3" d="M86.5,48.3c2,3.6,9.7,15.6,26.3,18.2c-3.6-9.8-11.2-17.2-25.1-18.1C87.3,48.4,86.9,48.3,86.5,48.3z"/>
			<path class="st3" d="M84.5,70.4c0,0-29.8,23-49.7,14.4C34.8,84.8,50.8,89.1,84.5,70.4z"/>
			<path class="st3" d="M95.4,73.7c-20.2,16.3-43.1,18-51.8,18c1.3,11.3,4.2,23.2,4.2,23.2l62.8,0.3c1.9-5.4,3.8-13.4,4.7-22.1
				C102,89,95.4,73.7,95.4,73.7z"/>
			<path class="st10" d="M51.8,113.8c0,0-1-1.8-3.7-1.1c-2.7,0.7-2.2,6.4-0.3,8.9c1.9,2.5,5.2,3.7,7.4,3.1L51.8,113.8z"/>
			<path class="st11" d="M106.3,113.8c0,0,1-1.8,3.7-1.1c2.7,0.7,2.2,6.4,0.3,8.9c-1.9,2.5-5.2,3.7-7.4,3.1L106.3,113.8z"/>
			<path class="st12" d="M110.4,96.1c-1.2,18.2-7.1,45.3-30.9,46c-23.3,0.6-29.7-25.3-31.3-43.6c0,0,32.1-6.4,47.1-19.9
				C95.2,78.7,98.5,88.2,110.4,96.1L110.4,96.1z"/>
			<path class="st12" d="M95.2,78.7c-4.2,3.8-9.7,7-15.4,9.6v53.8c23.5-0.9,29.3-27.9,30.6-46l-0.1,0C98.5,88.2,95.2,78.7,95.2,78.7
				z"/>
			<g>
				<path class="st13" d="M79.8,126.6c-1.8,0-3.3,2-3.3,4.5c0,2.5,1.5,4.5,3.3,4.5s3.3-2,3.3-4.5C83.1,128.7,81.6,126.6,79.8,126.6z
					"/>
				<path class="st14" d="M77.5,134.3c0.6,0.8,1.4,1.3,2.3,1.3c1,0,1.8-0.6,2.4-1.5C80.2,132.9,78.4,133.7,77.5,134.3z"/>
			</g>
			<path class="st15" d="M66.5,97.7c0,0-3.9-0.9-8.4,0.9C58.1,98.6,62.9,94.3,66.5,97.7z"/>
			<path class="st15" d="M91.3,97.7c0,0,3.8-0.7,8.4,0.9C99.7,98.6,94.9,94.3,91.3,97.7z"/>
			<g>
				<path class="st3" d="M62.7,107.2c-1,0-1.8,0.4-2.3,1.2c-1.5-0.3-2.3-1.7-2.3-1.7c0.3,1.8,0.9,2.7,1.5,3.1
					c-0.3,0.8-0.4,1.8-0.4,2.9c0,3,1.3,5.4,3.5,5.4c2.3,0,3.5-2.4,3.5-5.4S65.1,107.2,62.7,107.2z"/>
				<path class="st16" d="M63.5,109.4c-1.5,0-2.3,1.4-2.3,3.1c0,1.7,0.8,3.1,2.3,3.1c1.5,0,2.3-1.4,2.3-3.1
					C65.8,110.8,65,109.4,63.5,109.4z"/>
				<path class="st17" d="M61.7,113.6c-0.7,0-1,0.5-1,1.1c0,0.6,0.4,1.1,1,1.1c0.7,0,1-0.5,1-1.1C62.7,114.1,62.4,113.6,61.7,113.6z
					"/>
			</g>
			<g>
				<path class="st3" d="M95.3,107.2c1,0,1.8,0.4,2.3,1.2c1.5-0.3,2.3-1.7,2.3-1.7c-0.3,1.8-0.9,2.7-1.5,3.1
					c0.3,0.8,0.4,1.8,0.4,2.9c0,3-1.3,5.4-3.5,5.4c-2.3,0-3.5-2.4-3.5-5.4S93,107.2,95.3,107.2z"/>
				<path class="st16" d="M94.5,109.4c1.5,0,2.3,1.4,2.3,3.1c0,1.7-0.8,3.1-2.3,3.1c-1.5,0-2.3-1.4-2.3-3.1
					C92.2,110.8,93,109.4,94.5,109.4z"/>
				<path class="st17" d="M93.5,113.6c0.7,0,1,0.5,1,1.1c0,0.6-0.4,1.1-1,1.1c-0.7,0-1-0.5-1-1.1C92.5,114.1,92.9,113.6,93.5,113.6z
					"/>
			</g>
			<path class="st8" d="M100.4,28.7c3.2-0.9,6.8-0.5,10,0.5c3,1,5.8,2.8,7.2,5.7c-4.3-2.7-11.7-4.8-12,1.9
				c-0.3,6.6,6.2,13.3,10.7,17.2c3.7,3.2,8.8,5.9,13.4,4.2c-2.1,1-4.5,1.6-6.8,1.7c1.5,0.1,3.1,0.3,4.6,0.4
				c-4.4,3.8-10.8,4.7-16.5,3.4c-5.7-1.3-10.7-4.5-15.3-8.2c-3.4-2.7-6.8-6.1-7.2-10.4c-0.3-3.3,1.2-6.5,3.1-9.3
				c1.9-2.9,4.3-5.5,7.6-6.8C99.7,29,100,28.8,100.4,28.7z"/>
			<g>
				<path class="st18" d="M63.8,121.4c-0.2,0-0.4,0.2-0.4,0.4c0,0.2,0.2,0.4,0.4,0.4c0.2,0,0.4-0.2,0.4-0.4
					C64.2,121.5,64,121.4,63.8,121.4z"/>
				<circle class="st18" cx="56.7" cy="121.2" r="0.4"/>
				<path class="st18" d="M62.3,124.2c-0.3,0-0.5,0.2-0.5,0.5s0.2,0.5,0.5,0.5c0.3,0,0.5-0.2,0.5-0.5S62.6,124.2,62.3,124.2z"/>
				<path class="st18" d="M70.5,120.5c-0.2,0-0.4,0.2-0.4,0.4c0,0.2,0.2,0.4,0.4,0.4c0.2,0,0.4-0.2,0.4-0.4
					C70.8,120.6,70.7,120.5,70.5,120.5z"/>
				<circle class="st18" cx="69.4" cy="128.2" r="0.4"/>
				<path class="st18" d="M63.6,129.2c-0.3,0-0.6,0.3-0.6,0.6c0,0.3,0.3,0.6,0.6,0.6c0.3,0,0.6-0.3,0.6-0.6
					C64.2,129.4,63.9,129.2,63.6,129.2z"/>
				<path class="st18" d="M57.3,125.5c-0.3,0-0.6,0.3-0.6,0.6c0,0.3,0.3,0.6,0.6,0.6c0.3,0,0.6-0.3,0.6-0.6
					C57.9,125.8,57.6,125.5,57.3,125.5z"/>
				<path class="st18" d="M67.9,123c-0.3,0-0.6,0.3-0.6,0.6c0,0.3,0.3,0.6,0.6,0.6c0.3,0,0.6-0.3,0.6-0.6
					C68.5,123.3,68.2,123,67.9,123z"/>
			</g>
			<g>
				<circle class="st18" cx="94.4" cy="121.7" r="0.4"/>
				<circle class="st18" cx="101.4" cy="121.2" r="0.4"/>
				<path class="st18" d="M95.8,124.2c0.3,0,0.5,0.2,0.5,0.5s-0.2,0.5-0.5,0.5c-0.3,0-0.5-0.2-0.5-0.5S95.6,124.2,95.8,124.2z"/>
				<path class="st18" d="M87.7,120.5c0.2,0,0.4,0.2,0.4,0.4c0,0.2-0.2,0.4-0.4,0.4c-0.2,0-0.4-0.2-0.4-0.4
					C87.3,120.6,87.5,120.5,87.7,120.5z"/>
				<circle class="st18" cx="88.7" cy="128.2" r="0.4"/>
				<path class="st18" d="M94.6,129.2c0.3,0,0.6,0.3,0.6,0.6c0,0.3-0.3,0.6-0.6,0.6c-0.3,0-0.6-0.3-0.6-0.6
					C94,129.4,94.2,129.2,94.6,129.2z"/>
				<path class="st18" d="M100.9,125.5c0.3,0,0.6,0.3,0.6,0.6c0,0.3-0.3,0.6-0.6,0.6c-0.3,0-0.6-0.3-0.6-0.6
					C100.3,125.8,100.5,125.5,100.9,125.5z"/>
				<path class="st18" d="M90.3,123c0.3,0,0.6,0.3,0.6,0.6c0,0.3-0.3,0.6-0.6,0.6c-0.3,0-0.6-0.3-0.6-0.6
					C89.7,123.3,90,123,90.3,123z"/>
			</g>
			<path class="st5" d="M53.2,138.9c0,0.4-3.8,20.9-4.4,25.2h9.6c0,0,0.5-24.1,0.5-24.2c0-0.3,0.4-0.5,0.5-0.7
				c0.5-0.8,0.8-1.9,0.9-2.8c0.1-1.7-0.4-3.7,0.6-5.2c0.9-1.5,2.8-2,3.8-3.4c0.4-0.5,0.5-1.3,0-1.6c-0.4-0.3-1.3,0.4-1.7,0.7
				c-1.3,0.9-2.4,1.7-3.7,2.6c1.5-1.4,3.1-3.1,4.5-4.7c0.4-0.5,0.8-1.2,0.4-1.7c-0.2-0.3-0.7-0.3-1.1-0.2s-0.7,0.4-1,0.6
				c-1.7,1.5-3.7,3.4-5.4,4.9c1.3-1.5,4-4.5,5.2-6.2c0.3-0.4,0.6-0.9,0.3-1.4c-0.2-0.3-0.7-0.4-1-0.3c-0.4,0.1-0.7,0.4-0.9,0.7
				c-1.7,1.7-4,3.8-6.5,6.3c0.8-1.3,3.1-3.9,4-5.2c0.2-0.3,0.4-0.6,0.5-1c0.1-0.4-0.1-0.8-0.4-1c-0.5-0.3-1.1,0.2-1.5,0.6
				c-0.7,0.7-2.8,2.7-3.4,3.5c-0.9,1.2-1.8,2.4-2.2,3.9c-0.4,1.2,0,2.6,0.3,3.8c0.4,1.4,0.9,2.7,1.5,4
				C52.8,137.1,53.1,138,53.2,138.9z"/>
		</g>
	</g>
</g>
</svg>
