<?xml version="1.0" encoding="utf-8"?>
<!-- Generator: Adobe Illustrator 22.0.1, SVG Export Plug-In . SVG Version: 6.00 Build 0)  -->
<svg version="1.1" id="Layer_1" xmlns="http://www.w3.org/2000/svg" xmlns:xlink="http://www.w3.org/1999/xlink" x="0px" y="0px"
	 viewBox="0 0 316.5 580.7" style="enable-background:new 0 0 316.5 580.7;" xml:space="preserve">
<style type="text/css">
	.st0{fill:#C75B2E;}
	.st1{fill:#A83F16;}
	.st2{fill:#D5815C;}
	.st3{fill:#B33D16;}
	.st4{fill:#FCD6C1;}
	.st5{fill:#F1716C;}
	.st6{fill:#FCD8C3;}
	.st7{fill:#FBCAB0;}
	.st8{fill:#F9B795;}
	.st9{fill:#F5988E;}
	.st10{fill:#F4877F;}
	.st11{fill:#F9B897;}
	.st12{fill:#FDE6D8;}
	.st13{fill:#FBCDB4;}
	.st14{fill:#FABC9C;}
	.st15{fill:#FFFFFF;}
	.st16{fill:#CC7953;}
	.st17{fill:#822800;}
	.st18{fill:#A83912;}
	.st19{fill:#FDE4D5;}
	.st20{fill:#FABE9F;}
</style>
<g>
	<path class="st0" d="M285,317.7c2.6-5,3-10.8,2.3-17.5c-1-9.7,8.4-16.9,7.8-26.4c-0.3-4.9-2.6-9.6-2.7-14.5
		c-0.4-9.9,7.2-17.7,10.8-26.4c4-9.5,2.4-21.6,1.1-31.6c-2.1-16.9-5.4-33.8-10.2-50.1c-3.8-12.7-8.3-25.2-12.4-37.8
		c-3.8-11.6-5.9-24-10.5-35.4c-7.6-18.7-16.7-37.8-34.9-48.7c-4.6-2.8-6.5-7.2-10.3-11c-4.2-4.2-9.3-7.6-14.4-10.4
		c-7.7-4.2-16.6-6.1-25.2-7.1c-17.1-1.9-35.2-0.3-51.8,4.3C114.4,10.6,96,21.6,81.1,36.3C64.9,52.1,54.9,75.4,45.9,96
		c-3.6,8.4-7.6,16.5-10.8,24.9c-7.9,20.6-16.4,40.7-23.4,61.6c-1.2,3.6-2.4,7.3-2.6,11.2c-0.2,4.4,1.2,9.2,1.9,13.6
		c0.8,5.3,4.3,9.6,5.2,14.9c1.1,6.1,0.2,12.3-2.6,17.9c-6.6,13.2-3.2,23.1,3.3,35c3.8,6.9,5.4,12.2,4,20.2c-1,5.6-2.3,11.6-0.2,16.9
		c3.2,7.8,12.7,10.9,18,17.5c4.7,5.8,7.6,15.3,15.2,18.3c8.8,3.6,20.6-1.7,29.4-3c8.6-1.3,17.8,0,26.6-0.4
		c5.9-0.3,11.8-0.5,17.7-0.6c15.8-0.3,31.7,0.3,47.4,2.8c13.9,2.2,27.6,5.9,41.7,7.4c11.2,1.1,23,1.7,34-1c4.6-1.1,11.4-3,14.8-6.7
		c3.6-4,2.4-10,5.1-14.4c1.5-2.4,4-3.9,6.4-5.5C280.7,323.8,283.3,321,285,317.7z"/>
	<path class="st1" d="M261.5,172.9c-1-3.4-2.3-6.8-3.2-10.1c-3.8-14-10.9-26.7-18.6-38.9c-9.6-15.1-20.4-29.7-27.8-46
		c-12.1,4.2-23.1,11.5-34.3,17.7c-11.5,6.4-23.2,12.7-34.7,19.1c-11.3,6.2-22.6,12.5-34,18.6c-9.4,5-15.9,14.1-22.6,22
		c-9.1,10.7-21.8,19.5-27.9,32.4c-5.6,11.7-6.3,25.8-1.2,37.8c1.6,3.8,3.8,7.5,4.4,11.6c1,7.3-5.2,12.9-7.3,19.8
		c-2.3,7.6-2.2,15.8,3.4,22c2.8,3.1,6.9,4.9,9.7,7.9c5.6,5.9,5.6,15,5.5,23.2c0,7.9,0.4,17.3,7.6,21.8c4.8,3,17.2,12.6,22.5,12.7
		c2.3,0,4.6,0.1,6.9-0.1c5.9-0.3,11.8-0.5,17.7-0.6c15.8-0.3,31.7,0.3,47.4,2.8c13.9,2.2,27.6,5.9,41.7,7.4c2.9,0.3,5.8,0.5,8.8,0.7
		c1.3-0.9,2.5-1.9,3.7-3c5.3-5,9.7-12.8,8-20.2c-1.8-7.7-2.7-11.1,2.9-18.4c3.6-4.7,7.9-9.1,9.4-14.8c2.4-9-4.7-16.9-0.9-26.2
		c3-7.4,10.8-13.9,15.6-20.2c5.6-7.3,8.1-16.8,6.8-25.9c-1.2-8.4-5.4-16.2-6.6-24.6c-1-6.8,0.1-13.7-0.8-20.5
		C263.1,178.2,262.3,175.5,261.5,172.9z"/>
	<path class="st2" d="M36.1,169.3c0,0-22.9,26.7-3.4,54C32.7,223.3,23.5,199.9,36.1,169.3z"/>
	<path class="st2" d="M279.8,191.1c0,0,22.9,26.7,3.4,54C283.1,245.1,292.3,221.7,279.8,191.1z"/>
	<path class="st3" d="M272.6,260.3c0,0-10.6,50.1,27.8,57.9C300.4,318.2,273.7,304.9,272.6,260.3z"/>
	<path class="st3" d="M33.9,249.8c0,0,10.6,50.1-27.8,57.9C6.1,307.7,32.8,294.4,33.9,249.8z"/>
</g>
<path class="st4" d="M246.9,327.1l6.4-3c0,0,31.4,3.7,35.1,47.9c3.7,44.2-8.9,162.6-6.7,177.8c2.2,15.2,3.7,30.8,3.7,30.8h-39.8
	c0,0-2.6-24.1-2.6-34.9c0-10.8-0.2-108-1.7-120.6C239.9,412.5,246.9,327.1,246.9,327.1z"/>
<path class="st5" d="M92.5,509.5c0.4,2.9,0.6,5.9,0.8,8.8c20.1-0.2,28.3-28.9,28.3-28.9s8.4-24.7,15.5-75.2
	c-14.4-1.9-26.3-5.6-31.1-11.5c-3.1-3.8-6-9.7-8.6-16.6c-9.2,28.4-18.1,55.5-20.7,66.8c-1.4,21.8,13.5,44.8,15,54.2
	C91.9,508.3,92.2,509.1,92.5,509.5z"/>
<g>
	<g>
		<path class="st6" d="M228.6,496.4H96c-22.3-80.7-27.5-175.2-27.5-175.2c16.2-3.4,35.1-3.9,49.6-12.2c21.2-12.1,19-38.9,15.7-59.7
			h54.6c-3.3,20.8-5.5,47.6,15.7,59.7c14.5,8.3,33,11.7,49.2,15.1C253.4,324.1,248.6,431.8,228.6,496.4z"/>
	</g>
	<path class="st7" d="M244.5,322.3c-13.8-2.9-28.4-6.5-40.4-13.3c-21.2-12.1-19-38.9-15.7-59.7h-54.6c3.3,20.8,5.5,47.6-15.7,59.7
		c-12.1,6.9-30.9,8.8-41.8,10.9c1.8,3.5,5.9,11.5,11.1,14.4c8.2,4.5,59.5,14.1,67.3,21.3c5.2,4.8,9,3.7,13.2,0c0,0,5.1-7.6,20.6-8.2
		c15.4-0.6,41.3-9.9,46.7-13.1C239.5,331.8,243.3,328,244.5,322.3z"/>
	<path class="st8" d="M87.5,334.4c0,0,22,13.5,52.6,15.7c0,0,7.4,0.4,14.7,5.6c0,0-2.6-7.5-14.8-9.3
		C127.7,344.6,99.2,339.7,87.5,334.4z"/>
	<path class="st8" d="M235.2,334.4c0,0-22,13.5-52.6,15.7c0,0-7.4,0.4-14.7,5.6c0,0,2.6-7.5,14.8-9.3
		C195,344.6,223.5,339.7,235.2,334.4z"/>
	<path class="st8" d="M96,496.4H119c1.8-4,2.7-7,2.7-7s20.9-61.3,24.4-188.5c0.2-0.3,8.2-21.2-6.1-37.4c-1.8-2.1-3.5-4-5-5.8
		c2.1,18.1,1.6,38.4-13.9,49.5c-4.6,23.4-27.7,90.1-39,126.7C85.8,454.4,90.4,475.8,96,496.4z"/>
	<path class="st8" d="M133.9,249.3c1.1,7.1,2.1,14.9,2.1,22.6c8.8,5.4,17.7,8.8,25.5,8.8h0c7.7,0,16.3-3.2,24.9-8.4
		c-0.1-7.8,0.9-15.8,2.1-23H133.9z"/>
</g>
<g>
	<path class="st9" d="M253.4,324.1c-4.7-1-9.5-1.9-14.4-3c-1.3,15.9-6.4,68.7-15.8,81.6c-11.1,15.2-101.5,19.3-117.1,0
		c-12.8-15.8-22.3-66.8-23.3-83.9c-4.6,0.5-9.7,1.5-14.2,2.5c-1.1,0.2,3.1,39.4,3.3,41.6c2,22.1,4.5,44.1,7.2,66.1
		c-0.7,7.2-1.5,15.4-2.2,22.6c-2.2,22.3,13.4,46,14.8,55.7c0.2,1.2,0.5,1.9,0.8,2.3c1.3,9.6,1.3,19.6,0.7,28.9
		c-0.6,9.6-1.9,15.2-4,26.5c-0.6,3.3-3.5,9.7-5.4,15.8H244c-1.6-3.3-4.6-10.6-5-12.3c-0.4-1.5-0.7-3.1-1.1-4.6
		c-4.6-20.8-4.2-40.1-4.4-61.4c4.1-11.4,17.6-31.7,15.7-50.9c-1.1-11.1-2.4-24.7-3.3-33.3c2.7-25.6,4.9-51.3,6.5-77
		C252.5,340.3,253.8,324.2,253.4,324.1z"/>
	<path class="st10" d="M154.4,441.4c-4.2,0-8.8-0.7-11.7-3.7c-1.3-1.3-2.2-3.3-1.5-5.1c0.6-1.7,2.5-2.6,4.2-3c4.5-1,9.1,0,13.7,0.4
		c11.4,1.1,25.8-1.4,34.2-9.8c-4.1,6.6-10.1,11.8-16.9,15.5C169.6,439.3,162.1,441.4,154.4,441.4z"/>
	<path class="st10" d="M76.6,457.8c0.7,20,12.9,38.6,14.2,47.3c0.2,1.2,1.1,2.7,1.7,4.3c1.3,9.6,1.3,19.6,0.7,28.9
		c-0.6,9.6-1.9,15.2-4,26.5c-0.6,3.3-3.5,9.7-5.4,15.8H244c-1.6-3.3-4.6-10.6-5-12.3c-0.4-1.5-0.7-3.1-1.1-4.6
		c-4.6-20.8-4.2-40.1-4.4-61.4c3.2-8.8,11.8-22.7,14.9-37.4c-4.4,10.5-11.7,19.9-20.1,27.1c-5.7,4.9-11,2.8-17.6,1.8
		c-7.5-1.2-15-2.2-22.6-2.8c-14.1-1.1-28.2-1-42.2,0.3c-7,0.6-14,1.6-21,2.8c-6.5,1.1-13.1,3.1-19.8,2.3c-5-0.6-9.6-3.4-13.2-6.8
		c-5.8-5.4-8.3-13.1-11.2-20.3C79.1,465.6,77.7,461.7,76.6,457.8z"/>
	<path class="st5" d="M199.2,501.6c0,0-29.7-13.7-62.7,0C136.5,501.6,173.6,501.2,199.2,501.6z"/>
</g>
<g>
	<path class="st11" d="M90.6,186c0,0-1.3-5.1-9.8-4.3s-8.7,19.5-3.8,26.9c4.9,7.4,12.6,13.8,19.7,12C102.4,219.2,90.6,186,90.6,186z
		"/>
	<path class="st11" d="M233.5,186c0,0,1.3-5.1,9.8-4.3c8.5,0.8,8.7,19.5,3.8,26.9c-4.9,7.4-12.6,13.8-19.7,12
		C221.8,219.2,233.5,186,233.5,186z"/>
	<path class="st12" d="M161.5,48.6c-101.9,0-84.6,56.6-84.6,56.6s6.1,94.7,18.9,117c12.8,22.3,43.4,49,65.7,49h0
		c22.3,0,52.9-26.7,65.7-49c12.8-22.3,18.9-117,18.9-117S257.6,48.6,161.5,48.6z"/>
	<path class="st0" d="M192.2,132.7c0,0,16.1-1.8,29.7,3.7c0,0-4.9-7.9-28.6-6.9c0,0-2.4,0.1-2.4,1.7
		C190.9,132.8,192.2,132.7,192.2,132.7z"/>
	<path class="st13" d="M143.1,266.3c-1.6-2.8-3.6-5.4-5.7-7.9c-4-4.7-8.3-9.1-11.6-14.2c-6.7-10.5-4-22.9-5.4-34.7
		c-0.3-2.2-0.7-4.5-2.4-5.9c-1.4-1.2-3.6-1.3-5.3-0.6c-1.7,0.7-3,2.2-3.7,3.9c0-3.6,0-7.4-1.9-10.4c-1.1-1.8-3.2-3.3-5.3-3.6
		c-0.9-0.1-2.2-0.1-2.9,0.6c-0.9,0.8-1.5,2.4-1.7,3.6c-1.2,0.1-2.3,0.7-3.1,1.6c-0.8,0.9-1.3,2-1.6,3.2c-0.1,0.6-0.2,1.3-0.7,1.7
		c-0.2,0.2-0.5,0.3-0.8,0.4c-0.4,0.2-0.7,0.4-1,0.6c1.8,7.4,3.9,13.6,6.1,17.5C105.3,238.7,124.7,257.6,143.1,266.3z"/>
	<path class="st13" d="M246.1,105.2c0,0,11.4-56.6-84.6-56.6c-101.9,0-84.6,56.6-84.6,56.6s3,45.8,9.1,81.1c3.4-5.6,16.3-26,26.9-32
		c0,0,33.3-4.2,56.1-17.5c22.8-13.2,37.6-33.4,37.6-33.4s21.3,36.6,34.5,55.6C244.5,131.1,246.1,105.2,246.1,105.2z"/>
	<path class="st14" d="M160.4,190c0,0-1.9,5.5-5.8,6.7c-3.9,1.2-2.6,3.8-2.1,4.9c0.6,1.1,5.2,7.7,11.7,7.5c5.9-0.2,3.9-5.5,1.6-6.9
		c-2.3-1.4-8.8-2.9-8.8-2.9S161.1,195.2,160.4,190z"/>
	<g>
		<g>
			<path class="st15" d="M117.3,158.8c-10.5,0.3-14.4,11.4-14.4,11.4c-0.1,0.8-0.1,1.6-0.1,2.5c0,9.6,6.1,17.3,13.7,17.3
				c7.6,0,13.7-7.8,13.7-17.3c0-0.7,0-1.5-0.1-2.2C128.8,166.3,125.2,158.6,117.3,158.8z"/>
			<path class="st16" d="M107.4,185.7c0,0,6.7,6.2,16.2,1.7c0,0-5.4,5.8-16.1,0.2c0,0-1.6-0.1-2.7,1.4
				C104.7,189.1,104.7,187.6,107.4,185.7z"/>
			<path class="st1" d="M118.2,161.7c-5.8,0-10.5,5.4-10.5,12.1c0,6.7,4.7,12.1,10.5,12.1c5.8,0,10.5-5.4,10.5-12.1
				C128.7,167.1,124,161.7,118.2,161.7z"/>
			<path class="st17" d="M120.2,166.4c-3.7,0-6.8,3.5-6.8,7.8c0,4.3,3,7.8,6.8,7.8c3.7,0,6.8-3.5,6.8-7.8
				C126.9,169.9,123.9,166.4,120.2,166.4z"/>
			<path class="st15" d="M109.2,164.8c-1.9,0-3.5,1.8-3.5,4c0,2.2,1.6,4,3.5,4c1.9,0,3.5-1.8,3.5-4
				C112.7,166.6,111.1,164.8,109.2,164.8z"/>
			<path class="st1" d="M116.4,155.3c0,0-6.1-0.6-12.1,6.5c-3.8,4.5-8.9-0.3-8.9-0.3s0.7,5.9,7.5,8.7c0,0,3.9-11,14.4-11.4
				c8-0.2,11.6,7.5,12.7,11.7C129.1,161.9,123.4,155.3,116.4,155.3z"/>
			<path class="st1" d="M103.7,164.1c0,0-3.5-0.5-4.4-4.2c0,0,2.6,2.8,6,1.9L103.7,164.1z"/>
		</g>
	</g>
	<g>
		<g>
			<path class="st15" d="M206.8,158.8c10.5,0.3,14.4,11.4,14.4,11.4c0.1,0.8,0.1,1.6,0.1,2.5c0,9.6-6.1,17.3-13.7,17.3
				s-13.7-7.8-13.7-17.3c0-0.7,0-1.5,0.1-2.2C195.3,166.3,198.9,158.6,206.8,158.8z"/>
			<path class="st16" d="M216.8,185.7c0,0-6.7,6.2-16.2,1.7c0,0,5.4,5.8,16.1,0.2c0,0,1.6-0.1,2.7,1.4
				C219.4,189.1,219.4,187.6,216.8,185.7z"/>
			<path class="st1" d="M205.9,161.7c5.8,0,10.5,5.4,10.5,12.1c0,6.7-4.7,12.1-10.5,12.1c-5.8,0-10.5-5.4-10.5-12.1
				C195.4,167.1,200.1,161.7,205.9,161.7z"/>
			<path class="st17" d="M203.9,166.4c3.7,0,6.8,3.5,6.8,7.8c0,4.3-3,7.8-6.8,7.8c-3.7,0-6.8-3.5-6.8-7.8
				C197.2,169.9,200.2,166.4,203.9,166.4z"/>
			<path class="st15" d="M214.7,164.8c1.9,0,3.5,1.8,3.5,4c0,2.2-1.6,4-3.5,4c-1.9,0-3.5-1.8-3.5-4
				C211.2,166.6,212.7,164.8,214.7,164.8z"/>
			<path class="st1" d="M207.7,155.3c0,0,6.1-0.6,12.1,6.5c3.8,4.5,8.9-0.3,8.9-0.3s-0.7,5.9-7.5,8.7c0,0-3.9-11-14.4-11.4
				c-8-0.2-11.6,7.5-12.7,11.7C195,161.9,200.8,155.3,207.7,155.3z"/>
			<path class="st1" d="M220.4,164.1c0,0,3.5-0.5,4.4-4.2c0,0-2.6,2.8-6,1.9L220.4,164.1z"/>
		</g>
	</g>
	<path class="st9" d="M170.5,235c0,7.1-3.9,10.5-8.7,10.5s-8.7-3.3-8.7-10.5c0-7.1,3.9-15.3,8.7-15.3S170.5,227.9,170.5,235z"/>
	<path class="st14" d="M154.9,247.8c0,0,6.1,7.1,14,0C168.9,247.8,162.3,258.8,154.9,247.8z"/>
</g>
<path class="st4" d="M68.5,321.2c0,0-43.8-1.7-35.2,48.5c9.3,53.9,29.4,130.3,36.5,137.3c7.1,7.1,29.8,18.2,32-13.4
	S68.5,321.2,68.5,321.2z"/>
<g>
	<path class="st0" d="M265.8,230.9c0.8,12.5-8.9,20.3-17.5,27.8c-4.2,3.7-8.5,7.8-10.9,13c-1.3,2.9-1.7,5.9-2,9
		c-0.4,4.6,1.8,8.8,1.6,13.5c-0.2,5.9-4.2,11.6-9.8,13.7c3.2-3.6,4.7-8.7,4-13.4c-0.8-5.1-4.1-9.5-5.1-14.6
		c-1.3-6.6,1.4-13.4,5.3-18.8c3.9-5.5,8.9-10,13.2-15.2c10-12-1.5-23.1,2.2-36.3c1.6-5.5,6.2-11.1,8.5-16.3c2.7-6.1,1-12.9-0.7-19.4
		c-2.3-8.9-7.8-15.6-11.6-23.6c-4.2-8.9-10-16.9-15-25.4c-2-3.4-20.8-33.1-19-34.9c-6.6,6.4-15.8,10.9-23.9,15.3
		c-9,5-18.4,9.2-27.8,13.3c-22.6,9.6-43.6,21.9-60.5,40.1c-7.4,7.9-14,16.8-18.1,26.8c-3.6,8.9-3.9,18.4-1.9,27.7
		c1.6,7.5,3.5,14.4,3.7,22c0.1,6.9-4.2,11.5-5.3,18c-1,6.4,2.9,12.5,6.8,17.7c3.9,5.2,8.1,11,7.7,17.4c-0.4,6.4-5.2,11.5-9.8,16
		c2.1-4.4,3.6-9.3,2.7-14.1c-2.5-13.5-19.4-18.9-19.4-33.8c0-4.8,2.4-9.3,2.9-14.1c1-8.2-3.2-17.9-6.8-25.2
		c-3.8-7.6-8.3-15.1-10-23.6c-1.1-5.6-0.4-11.6,2.2-16.7c3.1-6.2,9.9-13.1,10.3-20.3c0.5-7.8-3.8-15.5-4-23.4
		c-0.6-16.8,1.9-31.1,10.3-45.7c8.2-14.3,19.3-26.9,32.5-36.7c26.3-19.5,60.4-25.5,92.1-17c10.9,2.9,21.3,7.8,30.5,14.4
		c13.1,9.4,22,23.2,28.2,37.8c6.5,15.3,9.9,31.1,12.2,47.5c1.9,14.3,9.5,28.7,8.5,43.3c-0.5,7.3-4.3,13.3-8.3,19.2
		c-3.1,4.4-4.6,9.4-3.6,14.8c0.8,3.9,2.5,7.5,3.6,11.2C265.1,224.9,265.7,227.9,265.8,230.9z"/>
	<path class="st2" d="M137.5,37.9c9.4-6.7,20.6-10.6,31.7-13c11.6-2.5,29.4-6.1,40.7-1.1c-5-6.1-12.2-9.7-19.6-11.5
		c-20.6-5.2-42.7-1.8-62,7c-15.5,7.1-26.9,18.1-38.4,30.9c11.2-8.3,23.3-16,36.2-20.6c7-2.5,13.8-5.4,21-7.4
		c6.8-1.8,14.1-2,20.8-3.9C155.7,21.7,145.5,27,137.5,37.9z"/>
	<path class="st3" d="M18.6,165.1C2,178.7-7.6,200.3,7.6,219.4c-2.8-7.1-3.6-15-2.3-22.5c2.2-12.8,7.7-15.6,16.7-25
		c10.6-10.9,22.8-19.4,32.1-31.7c5.3-6.9,9.5-14.8,11.3-23.3c-1.7,8.6-10.6,15.9-16.6,21.6C39,147.7,29,156.6,18.6,165.1z"/>
	<path class="st3" d="M297.9,165.1c16.6,13.6,26.2,35.2,11,54.3c2.8-7.1,3.6-15,2.3-22.5c-2.2-12.8-7.7-15.6-16.7-25
		c-10.6-10.9-22.8-19.4-32.1-31.7c-5.3-6.9-9.5-14.8-11.3-23.3c1.7,8.6,10.6,15.9,16.6,21.6C277.5,147.7,287.6,156.6,297.9,165.1z"
		/>
	<path class="st18" d="M171.4,125.2c-11,7.4-17.9,8.8-30.3,13.4c-12.7,4.7-29.8,8.2-42.7,12.6c-10.8,3.7-21.3,9.3-28.8,17.9
		c0.5-3.7,3.3-6.5,6.2-8.9c22-18.3,51.1-22.2,77.2-32.4c12-4.7,23.4-11.1,32.9-19.8c9.3-8.6,18.1-17.6,23.1-29.5
		C204.2,98.4,187.7,114.2,171.4,125.2z"/>
	<path class="st3" d="M213.2,58.8c0,0-68.3-1.5-107.6,51.2C105.5,110,145.2,70.7,213.2,58.8z"/>
</g>
<g>
	<path class="st19" d="M134.5,260.7c-14.5-16.5-16.7-21.4-16.9-29.2c-0.2-7.8,2.3-25.9-3.1-26.8c0,0-3.6,0-4.1,8.1
		c-0.4,8.1-3.8,15.3-1.1,31.3c0,0-4.3-6.2-3.6-28c0.7-21.9-5.3-20.5-5.3-20.5s-1.7,0-2.2,5.4c0,0-2.1-1.8-4,0.9c0,0-0.8,1.8-1.4,4.6
		c0,0-2.3-1.5-3.6,2.5c-1.3,4-4.2,13.4-4.7,19.1c-0.5,5.7,0.4,19.2,1,21.8c0,0,1.7,8.8,3.3,11.7c1.6,2.8,12.4,10.8,27.4,35.2
		c3.1,10.5-41,132.5-45.5,155.4c0,0-16.1,49.3,3.9,59.9c29.7,15.7,41.5-25.3,41.5-25.3s20.9-61.3,24.4-188.5
		C140.8,297.8,148.8,277,134.5,260.7z"/>
	<path class="st20" d="M98.3,201c0,0-1.1-1-2.4-0.5c0.6,0.4,1.1,1.4,0.9,3.9c-0.3,5.7-2.3,27.5-0.7,40.7c0,0,0.1,3.1-0.9,4.6
		c0,0,2.4-1.1,2.1-6.4c-0.4-5.3-0.9-23.9,0.8-38.4L98.3,201z"/>
	<path class="st20" d="M91.3,206.3c0.4,0.4,0.6,1.1,0.3,2.4c-0.8,3.3-2.6,13.1-2.6,23.3c-0.1,10.2,1.4,16,0.8,18.3
		c-0.6,2.3-0.8,2.8-0.8,2.8s2.7-1.8,2.1-5.8c-0.6-4.1-2.8-24,1.9-40.8C92.9,206.5,92.2,206,91.3,206.3z"/>
</g>
</svg>
