<?xml version="1.0" encoding="utf-8"?>
<!-- Generator: Adobe Illustrator 22.0.1, SVG Export Plug-In . SVG Version: 6.00 Build 0)  -->
<svg version="1.1" id="Layer_1" xmlns="http://www.w3.org/2000/svg" xmlns:xlink="http://www.w3.org/1999/xlink" x="0px" y="0px"
	 viewBox="0 0 164 164" style="enable-background:new 0 0 164 164;" xml:space="preserve">
<style type="text/css">
	.st0{clip-path:url(#SVGID_2_);}
	.st1{fill:none;}
	.st2{fill:url(#SVGID_3_);}
	.st3{fill:#FDD4B2;}
	.st4{fill:#FAB47F;}
	.st5{fill:#EE5290;}
	.st6{fill:#8E3A04;}
	.st7{fill:#7E3100;}
	.st8{fill:#A3440E;}
	.st9{fill:#B86839;}
	.st10{fill:#943D07;}
	.st11{fill:#FCCFA9;}
	.st12{fill:#FDE2CC;}
	.st13{fill:#CD0260;}
	.st14{fill:#F497A6;}
	.st15{fill:#FAB884;}
	.st16{fill:#722A00;}
	.st17{fill:#FFFFFF;}
	.st18{fill:#973F09;}
</style>
<g>
	<defs>
		<circle id="SVGID_1_" cx="82" cy="82" r="82"/>
	</defs>
	<clipPath id="SVGID_2_">
		<use xlink:href="#SVGID_1_"  style="overflow:visible;"/>
	</clipPath>
	<g class="st0">
		<circle class="st1" cx="82" cy="82" r="82"/>
		<radialGradient id="SVGID_3_" cx="82" cy="82" r="82" gradientUnits="userSpaceOnUse">
			<stop  offset="0.6154" style="stop-color:#FFFFFF"/>
			<stop  offset="0.727" style="stop-color:#FFFBFA"/>
			<stop  offset="0.8576" style="stop-color:#FDEFEC"/>
			<stop  offset="0.9973" style="stop-color:#FBDAD5"/>
			<stop  offset="1" style="stop-color:#FBDAD4"/>
		</radialGradient>
		<circle class="st2" cx="82" cy="82" r="82"/>
		<circle class="st1" cx="82" cy="82" r="82"/>
		<g>
			<g>
				<path class="st3" d="M105.4,160.4c-0.2-15.6-6.4-14.2-6.4-14.2s-9.9,0.9-12.9,0.2c-2.4-0.6-1.6-5.3-1.1-7.2H74.3
					c0.4,1.9,1.2,6.7-1.1,7.2c-3,0.7-12.9-0.2-12.9-0.2s0,0,0,0.1c0,0,0-0.1,0-0.1s-6.2-1.4-6.4,14.2c0,1.2,0,2.4-0.1,3.6h51.7
					C105.4,162.8,105.4,161.6,105.4,160.4z"/>
			</g>
			<path class="st4" d="M74.3,139.2c0.3,1.1,0.6,3.2,0.4,4.9c1.4,0.2,2.9,0.3,4.5,0.2c1.9-0.1,3.6-0.3,5.3-0.6
				c-0.1-1.6,0.2-3.5,0.5-4.5H74.3z"/>
			<g>
				<path class="st5" d="M79.7,160.2c-14.8,0-17.2-12.1-17.4-14.5l-2,0c0,0,2.6,9.9,2.6,18.4h33.9c0,0,0.6-13.5,2.5-18.4l-1.9,0
					C96.5,149.1,95,160.2,79.7,160.2z"/>
			</g>
			<path class="st6" d="M117.3,34.8c0,0,16.1,8.7,7.3,20.1c-8.8,11.4-21.6,11.2-21.6,11.2l-14.6-9.8C88.3,56.3,93.4,19.2,117.3,34.8
				z"/>
			<path class="st7" d="M124.5,54.9c1.2-1.5,1.9-2.9,2.3-4.3c-2.2,1.9-5.5,2.7-10.5-0.1c-12.1-6.9-10.6-17.3-10.6-17.3L89,56.8
				l13.9,9.3C102.9,66.1,115.7,66.3,124.5,54.9z"/>
			<path class="st8" d="M47.6,114.8c0,0-6.1-24.7-4.6-37c1.4-12.2,8.1-32,44.5-29.5c36.5,2.5,29,49.2,22.9,66.8L47.6,114.8z"/>
			<path class="st9" d="M52.2,67c0,0,11.9-11.4,30.7-10.6c0,0,1.3,0.1,1.5-0.9c0.2-1-0.3-2.1-2.8-2.1C79.1,53.4,60.9,54.3,52.2,67z"
				/>
			<path class="st10" d="M112.5,66.2c-3.7-9.6-11.2-16.9-25-17.9c-0.4,0-0.7,0-1.1-0.1C88.9,52.9,96.1,63.6,112.5,66.2z"/>
			<path class="st6" d="M84.3,70.3c0,0-29.8,23-49.7,14.4C34.5,84.7,50.5,89,84.3,70.3z"/>
			<path class="st6" d="M95.2,73.6c-20.2,16.3-43.1,18-51.8,18c1.3,11.3,4.2,23.2,4.2,23.2l62.8,0.3c1.9-5.4,3.8-13.4,4.7-22.1
				C101.8,88.9,95.2,73.6,95.2,73.6z"/>
			<path class="st11" d="M51.6,113.7c0,0-1-1.8-3.7-1.1c-2.7,0.7-2.2,6.4-0.3,8.9c1.9,2.5,5.2,3.7,7.4,3.1L51.6,113.7z"/>
			<path class="st11" d="M106.1,113.7c0,0,1-1.8,3.7-1.1c2.7,0.7,2.2,6.4,0.3,8.9c-1.9,2.5-5.2,3.7-7.4,3.1L106.1,113.7z"/>
			<path class="st12" d="M110.2,96c-1.2,18.2-7.1,45.3-30.9,46c-23.3,0.6-29.7-25.3-31.3-43.6c0,0,32.1-6.4,47.1-19.9
				C95,78.6,98.3,88.1,110.2,96L110.2,96z"/>
			<g>
				<path class="st13" d="M77.4,134.8c-1.1,0.1-2.2,0.1-2.9-0.8c-1.4-1.6-1.5-4.9,0.1-6.3c0.7-0.6,1.7-0.9,2.6-0.8
					c0.6,0.1,1.1,0.3,1.7,0.5c1,0.3,1.8,0,2.7-0.2c1-0.3,2.1-0.4,3,0.1c0.5,0.3,0.9,0.9,1.2,1.4c0.2,0.6,0.3,1.2,0.4,1.8
					c0.1,1.2-0.3,2.6-1.1,3.5c-0.8,0.9-2.2,0.7-3.2,0.5c-0.9-0.1-1.9-0.2-2.8,0C78.5,134.6,78,134.7,77.4,134.8z"/>
				<path class="st14" d="M75.8,134.7c0.5,0.1,1.1,0.1,1.6,0c0.5-0.1,1-0.2,1.5-0.3c0.9-0.2,1.9-0.1,2.8,0c0.6,0.1,1.3,0.2,2,0.1
					C80.4,131.7,77.2,133.4,75.8,134.7z"/>
			</g>
			<path class="st15" d="M71.9,95.7c0,0,6.1-1.7,15.2,0C87.1,95.7,79.7,91.8,71.9,95.7z"/>
			<path class="st15" d="M71.9,98.7c0,0,6.1-0.9,15.2,0C87.1,98.7,79.7,95.8,71.9,98.7z"/>
			<path class="st15" d="M59.3,116.8c0,0-1.2,0.5-2.1,1.4c0,0,0.4-0.9,1.7-1.9C59,116.3,59.2,116.3,59.3,116.8z"/>
			<path class="st15" d="M69.7,127.6c0,0-1.9,4,0.8,7.1C70.5,134.7,66,131.8,69.7,127.6z"/>
			<path class="st15" d="M90.1,127.6c0,0,1.9,4-0.8,7.1C89.3,134.7,93.8,131.8,90.1,127.6z"/>
			<path class="st15" d="M66.2,112.5c0,0,0.5,6.5-3.6,7.4c0,0-1.5,0.2-2.6-1.2c0,0-0.9,0.3-1.4,0.9c0,0,0.9-1.5,1.4-1.5
				c0,0,1.2,1.4,2.6,1.1C64.1,118.9,65.7,117.7,66.2,112.5z"/>
			<path class="st15" d="M98.8,116.8c0,0,1.2,0.5,2.1,1.4c0,0-0.4-0.9-1.7-1.9C99.2,116.3,98.9,116.3,98.8,116.8z"/>
			<path class="st15" d="M91.9,112.5c0,0-0.5,6.5,3.6,7.4c0,0,1.5,0.2,2.6-1.2c0,0,0.9,0.3,1.4,0.9c0,0-0.9-1.5-1.4-1.5
				c0,0-1.2,1.4-2.6,1.1C94.1,118.9,92.4,117.7,91.9,112.5z"/>
			<g>
				<path class="st6" d="M64.9,108c0.9-0.7,1.3-1.2,1.3-1.2l-8.4,4.6c0.6-0.2,1.1-0.4,1.7-0.6c-0.1,0.5-0.1,1.1-0.1,1.7
					c0,3,1.3,5.4,3.5,5.4c2.3,0,3.5-2.4,3.5-5.4C66.3,110.6,65.8,108.9,64.9,108z"/>
				<path class="st16" d="M63.5,109.3c-1.5,0-2.3,1.4-2.3,3.1s0.8,3.1,2.3,3.1c1.5,0,2.3-1.4,2.3-3.1S65.1,109.3,63.5,109.3z"/>
				<path class="st17" d="M61.8,113.5c-0.7,0-1,0.5-1,1.1c0,0.6,0.4,1.1,1,1.1c0.7,0,1-0.5,1-1.1C62.8,114,62.5,113.5,61.8,113.5z"
					/>
			</g>
			<g>
				<path class="st6" d="M100.7,111.4l-8.4-4.6c0,0,0.3,0.4,1.2,1.1c-1.1,0.9-1.6,2.7-1.6,4.7c0,3,1.2,5.4,3.5,5.4
					c2.2,0,3.5-2.4,3.5-5.4c0-0.6-0.1-1.3-0.2-1.8C99.4,110.9,100,111.2,100.7,111.4z"/>
				<path class="st16" d="M94.6,109.3c1.5,0,2.3,1.4,2.3,3.1s-0.8,3.1-2.3,3.1c-1.5,0-2.3-1.4-2.3-3.1S93.1,109.3,94.6,109.3z"/>
				<path class="st17" d="M96.6,113.5c0.7,0,1,0.5,1,1.1c0,0.6-0.4,1.1-1,1.1c-0.7,0-1-0.5-1-1.1C95.6,114,95.9,113.5,96.6,113.5z"
					/>
			</g>
			<path class="st8" d="M100.1,28.6c3.2-0.9,6.8-0.5,10,0.5c3,1,5.8,2.8,7.2,5.7c-4.3-2.7-11.7-4.8-12,1.9
				C105,43.3,111.5,50.1,116,54c3.7,3.2,8.8,5.9,13.4,4.2c-2.1,1-4.5,1.6-6.8,1.7c1.5,0.1,3.1,0.3,4.6,0.4
				c-4.4,3.8-10.8,4.7-16.5,3.4c-5.7-1.3-10.7-4.5-15.3-8.2c-3.4-2.7-6.8-6.1-7.2-10.4c-0.3-3.3,1.2-6.5,3.1-9.3
				c1.9-2.9,4.3-5.5,7.6-6.8C99.4,28.9,99.7,28.7,100.1,28.6z"/>
			<path class="st18" d="M69.4,95.8c0,0-0.1,2.7-2.9,2.8c-2.8,0.1-7.3-0.6-7.3-0.6s6-0.3,7.5-0.7C68.5,96.8,69.4,95.8,69.4,95.8z"/>
			<path class="st18" d="M89.8,95.8c0,0,0.1,2.7,2.9,2.8c2.8,0.1,7.3-0.6,7.3-0.6s-6-0.3-7.5-0.7C90.7,96.8,89.8,95.8,89.8,95.8z"/>
		</g>
	</g>
</g>
</svg>
