<?xml version="1.0" encoding="utf-8"?>
<!-- Generator: Adobe Illustrator 22.0.1, SVG Export Plug-In . SVG Version: 6.00 Build 0)  -->
<svg version="1.1" id="Layer_1" xmlns="http://www.w3.org/2000/svg" xmlns:xlink="http://www.w3.org/1999/xlink" x="0px" y="0px"
	 viewBox="0 0 164 164" style="enable-background:new 0 0 164 164;" xml:space="preserve">
<style type="text/css">
	.st0{clip-path:url(#SVGID_2_);}
	.st1{fill:#94C8EC;}
	.st2{fill:#C75B2E;}
	.st3{fill:#A83F16;}
	.st4{fill:#D5815C;}
	.st5{fill:#B33D16;}
	.st6{fill:#FCD8C3;}
	.st7{fill:#FCD6C1;}
	.st8{fill:#FBC4A8;}
	.st9{fill:#FBCAB0;}
	.st10{fill:#F9B795;}
	.st11{fill:#EE5290;}
	.st12{fill:#D74582;}
	.st13{fill:#F9B897;}
	.st14{fill:#FDE6D8;}
	.st15{fill:#FABC9C;}
	.st16{fill:#F5988E;}
	.st17{fill:#FBCDB4;}
	.st18{fill:#FFFFFF;}
	.st19{fill:#CC7953;}
	.st20{fill:#822800;}
	.st21{fill:#FDE4D5;}
	.st22{fill:#FCD4BE;}
	.st23{fill:#F7A47E;}
	.st24{fill:#FBC7AB;}
	.st25{fill:#FCD1AE;}
	.st26{fill:#FBC8AD;}
	.st27{fill:#A83912;}
	.st28{fill:#FFC849;}
</style>
<g>
	<defs>
		<circle id="SVGID_1_" cx="82" cy="82" r="82"/>
	</defs>
	<clipPath id="SVGID_2_">
		<use xlink:href="#SVGID_1_"  style="overflow:visible;"/>
	</clipPath>
	<g class="st0">
		<circle class="st1" cx="82" cy="82" r="82"/>
		<g>
			<g>
				<path class="st2" d="M123.5,97.5c0.4-1.5,0.2-3-0.4-4.8c-0.8-2.5,1.2-5,0.5-7.5c-0.4-1.3-1.2-2.4-1.6-3.7
					c-0.7-2.6,0.9-5.1,1.3-7.7c0.5-2.8-0.6-5.9-1.6-8.5c-1.6-4.4-3.4-8.7-5.7-12.7c-1.7-3.2-3.7-6.2-5.5-9.3c-1.7-2.9-3-6-4.9-8.8
					c-3.1-4.5-6.7-9.1-12.1-10.9c-1.4-0.5-2.2-1.5-3.4-2.3c-1.4-0.9-2.9-1.5-4.5-1.9c-2.3-0.7-4.8-0.7-7.1-0.4
					c-4.6,0.5-9.4,2-13.5,4.2c-5,2.7-9.3,6.7-12.4,11.4c-3.4,5.2-4.7,11.9-5.8,18c-0.5,2.4-1.1,4.8-1.4,7.3
					c-0.9,5.9-2,11.8-2.6,17.7c-0.1,1-0.2,2.1,0,3.1c0.2,1.2,0.9,2.4,1.3,3.5c0.5,1.4,1.7,2.3,2.3,3.6c0.7,1.6,0.8,3.3,0.4,4.9
					c-1,3.9,0.5,6.3,2.9,9.1c1.4,1.6,2.2,2.9,2.3,5.1c0.1,1.6,0.1,3.2,0.9,4.5c1.3,1.9,4,2.2,5.8,3.6c1.6,1.3,2.9,3.6,5.1,4
					c2.6,0.4,5.4-1.7,7.6-2.5c2.2-0.8,4.7-1.1,7-1.7c1.6-0.4,3.1-0.8,4.7-1.2c4.2-1,8.4-1.8,12.8-2.1c3.8-0.2,7.7,0,11.5-0.5
					c3.1-0.4,6.2-0.9,9-2.3c1.2-0.6,2.9-1.5,3.5-2.7c0.7-1.3,0.1-2.8,0.5-4.1c0.2-0.7,0.8-1.3,1.4-1.8
					C122.7,99.4,123.2,98.4,123.5,97.5z"/>
				<path class="st3" d="M108.8,60.4c-0.5-0.8-1-1.7-1.4-2.5c-1.8-3.5-4.5-6.5-7.2-9.2C96.6,45.2,92.9,41.9,90,38
					c-3,1.8-5.5,4.4-8.1,6.7c-2.7,2.4-5.4,4.7-8.1,7.1c-2.6,2.3-5.3,4.7-7.9,6.9c-2.2,1.9-3.4,4.7-4.7,7.2
					c-1.8,3.4-4.7,6.5-5.5,10.2c-0.8,3.4-0.2,7.2,1.9,10.1c0.7,0.9,1.5,1.8,1.8,2.8c0.7,1.9-0.6,3.7-0.8,5.7
					c-0.2,2.2,0.3,4.3,2.2,5.6c0.9,0.7,2.1,0.9,3.1,1.5c1.8,1.2,2.4,3.7,2.8,5.8c0.5,2.1,1.1,4.6,3.3,5.4c1.5,0.5,5.3,2.3,6.7,2
					c0.6-0.1,1.2-0.3,1.8-0.4c1.6-0.4,3.1-0.8,4.7-1.2c4.2-1,8.4-1.8,12.8-2.1c3.8-0.2,7.7,0,11.5-0.5c0.8-0.1,1.6-0.2,2.4-0.3
					c0.3-0.3,0.6-0.7,0.8-1c1.1-1.6,1.8-4,0.9-5.8c-0.9-1.9-1.4-2.8-0.3-5.1c0.7-1.5,1.6-2.9,1.6-4.5c0.1-2.5-2.2-4.2-1.8-6.9
					c0.4-2.1,2-4.3,3-6.3c1.1-2.3,1.2-4.9,0.3-7.3c-0.8-2.2-2.4-4-3.2-6.1c-0.7-1.8-0.8-3.7-1.4-5.4C109.5,61.7,109.1,61,108.8,60.4
					z"/>
				<path class="st4" d="M48.6,72.6c0,0-4.5,8.5,2.3,14.6C50.9,87.2,47.1,81.5,48.6,72.6z"/>
				<path class="st4" d="M114.7,64.1c0,0,7.7,5.8,4.1,14.2C118.7,78.3,119.8,71.5,114.7,64.1z"/>
				<path class="st5" d="M116.8,82.9c0,0,0.1,13.9,10.8,13.8C127.6,96.7,119.7,94.7,116.8,82.9z"/>
				<path class="st5" d="M52.8,94.2c0,0,5.8,12.7-4,17C48.8,111.2,55.1,106.1,52.8,94.2z"/>
			</g>
			<g>
				<g>
					<path class="st6" d="M106.2,153.5H70.1c-6.1-22-7.4-46.9-7.4-46.9c4.4-0.9,9.5-1.9,13.4-4.1c5.8-3.3,5.2-10.6,4.3-16.3h14.9
						c-0.9,5.7-1.5,13,4.3,16.3c3.9,2.3,9,3.2,13.4,4.1C112.9,106.6,111.6,135.9,106.2,153.5z"/>
				</g>
				<path class="st7" d="M111.2,107.4l1.8-0.8c0,0,8.6,1,9.6,13s-2.4,44.3-1.8,48.4c0.6,4.1,1,8.4,1,8.4h-10.8c0,0-0.7-6.6-0.7-9.5
					c0-2.9-0.1-29.4-0.5-32.8C109.3,130.7,111.2,107.4,111.2,107.4z"/>
				<g>
					<path class="st7" d="M52.3,167.7c0.3-6.1,0.2-35.8,0.8-46.5c0.7-12.1,9.7-14.7,9.7-14.7l1.8,0.7c0,0,5.6,29.1,3.3,26.5
						c-3.2-3.7-3.3,28.1-4.4,37.1c0,0-1.4,3.5-5.9,3.4C53.2,174.1,52.3,167.7,52.3,167.7z"/>
				</g>
				<path class="st8" d="M52.3,167.7c0,0,0.2,1.3,0.8,2.7c5-0.7,9.1-2.3,9.1-6c0-8.2-7.5-27.2-9.4-31.9
					C52.6,145.6,52.6,163.2,52.3,167.7z"/>
				<path class="st9" d="M99.5,102.5c-5.8-3.3-5.2-10.6-4.3-16.3H80.4c0.9,5.7,1.5,13-4.3,16.3c-3.2,1.9-7.3,2.8-11,3.6
					c0.6,1.1,1.5,2.6,2.7,3.3c2.2,1.2,17.7,4.2,18.3,5.8c0.5,1.3,2.8,1.1,3.6,0c0,0,1.4-2.1,5.6-2.2c4.2-0.2,11.3-2.7,12.7-3.6
					c1-0.6,2-1.9,2.5-3.3C106.7,105.3,102.8,104.3,99.5,102.5z"/>
				<path class="st10" d="M94.8,90.6c0.1-1.5,0.3-3,0.5-4.4H80.4c0.4,2.5,0.7,5.3,0.5,8c2.6,0.8,5,1.1,7,0.7l0,0
					C90.2,94.4,92.6,92.8,94.8,90.6z"/>
				<path class="st10" d="M67.8,109.4c0,0,6,3.7,14.3,4.3c0,0,2,0.1,4,1.5c0,0-0.7-2-4-2.5C78.7,112.2,71,110.8,67.8,109.4z"/>
				<path class="st10" d="M108,109.4c0,0-6,3.7-14.3,4.3c0,0-2,0.1-4,1.5c0,0,0.7-2,4-2.5C97.1,112.2,104.8,110.8,108,109.4z"/>
			</g>
			<path class="st11" d="M112.9,106.6c-1.3-0.3-2.6-0.5-3.9-0.8c-0.4,4.3-1.7,18.7-4.3,22.2c-3,4.1-29.3,5.5-33.2,0
				c-2.3-3.2-4.6-17.6-4.9-22.2c-1.3,0.1-2.7,0.6-3.9,0.9c-0.3,0.1,0.8,9.9,0.8,10.5c0.6,6,1.2,12,2,18c-0.2,2-0.4,4.2-0.6,6.1
				c-0.6,6.1,3.6,12.5,4,15.2c0,0.3,0.1,0.5,0.2,0.6c0.3,2.6,0.4,5.3,0.2,7.9c-0.2,2.6-0.5,4.1-1.1,7.2c-0.2,0.9-1,2.6-1.5,4.3h43.6
				c-0.4-0.9-1.3-2.9-1.4-3.3c-0.1-0.4-0.2-0.8-0.3-1.3c-1.3-5.7-1.1-10.9-1.2-16.7c1.1-3.1,4.8-8.6,4.3-13.9
				c-0.3-3-0.7-6.7-0.9-9.1c0.7-7,1.3-14,1.8-21C112.7,111,113.1,106.6,112.9,106.6z"/>
			<path class="st12" d="M86.3,138.9c-1.1,0-2.4-0.2-3.2-1c-0.4-0.4-0.6-0.9-0.4-1.4c0.2-0.5,0.7-0.7,1.2-0.8c1.2-0.3,2.5,0,3.7,0.1
				c3.1,0.3,7-0.4,9.3-2.7c-1.1,1.8-2.7,3.2-4.6,4.2C90.4,138.3,88.4,138.9,86.3,138.9z"/>
			<path class="st12" d="M64.8,143c0.2,5.4,3.5,10.5,3.9,12.9c0,0.3,0.3,0.7,0.5,1.2c0.3,2.6,0.4,5.3,0.2,7.9
				c-0.2,2.6-0.5,4.1-1.1,7.2c-0.2,0.9-1,2.6-1.5,4.3h43.6c-0.4-0.9-1.3-2.9-1.4-3.3c-0.1-0.4-0.2-0.8-0.3-1.3
				c-1.3-5.7-1.1-10.9-1.2-16.7c0.9-2.4,3.2-6.2,4-10.2c-1.2,2.8-3.2,5.4-5.5,7.4c-1.6,1.3-3,0.8-4.8,0.5c-2-0.3-4.1-0.6-6.2-0.8
				c-3.8-0.3-7.7-0.3-11.5,0.1c-1.9,0.2-3.8,0.4-5.7,0.8c-1.8,0.3-3.6,0.8-5.4,0.6c-1.4-0.2-2.6-0.9-3.6-1.8
				c-1.6-1.5-2.3-3.6-3.1-5.5C65.5,145.1,65.1,144.1,64.8,143z"/>
			<path class="st11" d="M98.2,154.9c0,0-8.1-3.7-17.1,0C81.1,154.9,91.2,154.8,98.2,154.9z"/>
			<g>
				<g>
					<path class="st13" d="M64.1,73.9c0,0-0.6-1.3-2.9-0.6C59,74,60.1,79,61.8,80.7c1.7,1.7,4.2,2.9,5.9,2
						C69.2,82,64.1,73.9,64.1,73.9z"/>
					<path class="st13" d="M102.1,65.5c0,0,0-1.4,2.4-1.7c2.3-0.3,3.5,4.7,2.6,6.9c-0.9,2.3-2.5,4.4-4.5,4.4
						C100.9,75,102.1,65.5,102.1,65.5z"/>
					<path class="st14" d="M74.9,33.2c-27.1,6-19.2,20-19.2,20s7.2,24.8,11.9,30c4.7,5.2,14.4,10.5,20.3,9.2l0,0
						c5.9-1.3,12.5-10.2,14.6-16.9c2.1-6.7-1.8-32.2-1.8-32.2S100.4,27.5,74.9,33.2z"/>
					<path class="st15" d="M84.2,85.9c0,0,2.4,1.5,4.7-1C88.9,84.9,87.3,88.3,84.2,85.9z"/>
					<path class="st16" d="M80.3,80.5c0,0,4-0.6,9.8-2.1c0,0,0,5.5-3.5,6.3C82.5,85.7,80.3,80.5,80.3,80.5z"/>
					<path class="st17" d="M100.7,43.3c0,0-0.3-15.7-25.8-10.1c-27.1,6-19.2,20-19.2,20s3.5,12,7.2,21c0.6-1.7,2.8-7.9,5.3-10.1
						c0,0,8.6-3.1,13.9-7.9c5.3-4.9,8-11.1,8-11.1s7.8,8.5,12.5,12.8C101.8,50.3,100.7,43.3,100.7,43.3z"/>
					<path class="st2" d="M88,53.7c0,0,4.2-1.4,8.1-0.7c0,0-1.8-1.8-8-0.1c0,0-0.6,0.2-0.5,0.6C87.6,53.9,88,53.7,88,53.7z"/>
					<path class="st15" d="M82.9,70.9c0,0-0.2,1.6-1.1,2.1c-1,0.6-0.5,1.2-0.3,1.4c0.2,0.3,1.8,1.8,3.6,1.3c1.6-0.4,0.7-1.7,0-1.9
						c-0.7-0.2-2.5-0.3-2.5-0.3S83.4,72.2,82.9,70.9z"/>
					<g>
						<g>
							<path class="st18" d="M69.6,65.1c-2.8,0.7-3.2,3.9-3.2,3.9c0,0.2,0.1,0.4,0.1,0.7c0.6,2.5,2.6,4.2,4.7,3.8
								c2-0.4,3.2-2.9,2.6-5.4c0-0.2-0.1-0.4-0.2-0.6C73.1,66.4,71.7,64.6,69.6,65.1z"/>
							<path class="st19" d="M68.5,72.8c0,0,2.2,1.3,4.4-0.5c0,0-1.1,1.9-4.3,1c0,0-0.4,0.1-0.6,0.5C68,73.9,67.9,73.5,68.5,72.8z"
								/>
							<path class="st3" d="M70,65.8c-1.5,0.3-2.5,2.1-2.1,3.8c0.4,1.8,2,2.9,3.5,2.6c1.5-0.3,2.5-2.1,2.1-3.8
								C73.1,66.6,71.5,65.5,70,65.8z"/>
							<path class="st20" d="M70.8,66.9c-1,0.2-1.6,1.3-1.3,2.5c0.3,1.1,1.3,1.9,2.3,1.7c1-0.2,1.6-1.3,1.3-2.5
								C72.8,67.5,71.8,66.7,70.8,66.9z"/>
							<path class="st18" d="M67.8,67.2c-0.5,0.1-0.8,0.7-0.7,1.3c0.1,0.6,0.6,1,1.2,0.9c0.5-0.1,0.8-0.7,0.7-1.3
								C68.8,67.4,68.3,67,67.8,67.2z"/>
							<path class="st3" d="M69.1,64.2c0,0-1.7,0.2-2.8,2.5c-0.7,1.4-2.4,0.4-2.4,0.4s0.5,1.5,2.5,1.9c0,0,0.4-3.2,3.2-3.9
								c2.1-0.5,3.5,1.3,4.1,2.4C72.9,65.2,71,63.8,69.1,64.2z"/>
							<path class="st3" d="M66.3,67.3c0,0-1,0.1-1.4-0.9c0,0,0.9,0.6,1.7,0.2L66.3,67.3z"/>
						</g>
					</g>
					<g>
						<g>
							<path class="st18" d="M93.4,59.8c2.8-0.5,4.5,2.2,4.5,2.2c0.1,0.2,0.1,0.4,0.2,0.6c0.6,2.5-0.6,5-2.6,5.4
								c-2,0.4-4.1-1.3-4.7-3.8c0-0.2-0.1-0.4-0.1-0.6C90.8,62.5,91.3,60.2,93.4,59.8z"/>
							<path class="st19" d="M97.6,66.4c0,0-1.4,2.1-4.2,1.4c0,0,1.8,1.2,4.3-0.9c0,0,0.4-0.1,0.8,0.2
								C98.5,67.1,98.4,66.7,97.6,66.4z"/>
							<path class="st3" d="M93.3,60.7c1.5-0.3,3.1,0.8,3.5,2.6c0.4,1.8-0.5,3.5-2.1,3.8c-1.5,0.3-3.1-0.8-3.5-2.6
								C90.8,62.7,91.8,61,93.3,60.7z"/>
							<path class="st20" d="M93.1,62c1-0.2,2,0.5,2.3,1.7c0.3,1.1-0.3,2.3-1.3,2.5c-1,0.2-2-0.5-2.3-1.7
								C91.5,63.3,92.1,62.2,93.1,62z"/>
							<path class="st18" d="M95.8,61c0.5-0.1,1,0.3,1.2,0.9c0.1,0.6-0.2,1.2-0.7,1.3c-0.5,0.1-1-0.3-1.2-0.9
								C95,61.6,95.3,61.1,95.8,61z"/>
							<path class="st3" d="M93.4,58.8c0,0,1.6-0.5,3.6,1c1.3,1,2.4-0.6,2.4-0.6s0.2,1.6-1.5,2.7c0,0-1.7-2.7-4.5-2.2
								c-2.1,0.4-2.6,2.7-2.7,3.8C90.4,61.4,91.6,59.3,93.4,58.8z"/>
							<path class="st3" d="M97.3,60.4c0,0,0.9-0.3,0.9-1.4c0,0-0.5,0.9-1.5,0.9L97.3,60.4z"/>
						</g>
					</g>
				</g>
			</g>
			<g>
				<path class="st21" d="M40,112.8c3.7-1,4.5,2.3,4.5,2.3c0,3.8,18,42.9,19.2,52.1C65,177.4,53,180.6,48.3,169
					c-4.5-11.2-8.5-33.4-12.2-51.9C36.1,117,36,113.9,40,112.8z"/>
				<g>
					<path class="st21" d="M43.8,118.2c-0.1-0.8-0.2-2.2,0.2-3.2c0.4-0.8,0.7-1.9,0.8-2.8c0.2-1.1,0-2.2-0.5-3.2
						c-0.9-2-2.4-3.8-3.2-5.9c-0.1-0.3-0.2-0.5-0.3-0.8c0.1-1,0.1-2.2,0.8-2.4c0.5-0.2,1.6,0.4,2.1,0.6c0.6,0.3,1.2,0.6,1.9,0.8
						c0.7,0.2,1.7,0.3,2.2-0.3c0.1-0.1,0.2-0.3,0.2-0.4c0-0.3-0.3-0.5-0.5-0.7c-1.2-0.8-2.3-1.6-3.5-2.4c-0.5-0.3-1-0.7-1.5-0.9
						c-2-0.7-2.9,0.5-3.7,2c-0.5,0.8-0.9,1.6-1.2,2.2c0,0-0.1,0-0.1,0c-0.2,0-0.4,0-0.6,0.1c-0.2-0.5-0.4-0.9-0.5-1.2
						c-0.5-1.3-1.5-3.7-2-5.4c-0.5-1.7-1.1-3.5-2-5c-0.3-0.6-0.8-1.7-1.6-1.5c-1,0.2-1,1.4-0.8,2.1c0.6,2.5,1.3,5,2.1,7.5
						c0.4,1.2,0.8,2.5,1.2,3.7c0.1,0.3,0.2,0.6,0.2,0.9c-0.2,0.1-0.4,0.2-0.6,0.2c0-0.1-0.1-0.2-0.1-0.3c-0.6-1.3-1.7-3.6-2.4-5.3
						c-0.7-1.6-1.3-3.4-2.3-4.9c-0.4-0.5-0.9-1.6-1.7-1.4c-1,0.3-0.9,1.5-0.7,2.2c0.8,2.5,1.7,4.9,2.7,7.3c0.5,1.2,1,2.4,1.5,3.6
						c0,0.1,0.1,0.2,0.1,0.3c-0.2,0.1-0.3,0.2-0.4,0.3c-0.6-1-1.7-2.7-2.4-4c-0.7-1.3-1.4-2.6-2.4-3.8c-0.3-0.4-0.9-1.2-1.5-1
						c-0.8,0.3-0.6,1.3-0.3,1.8c0.9,1.9,1.9,3.8,2.9,5.7c0.5,0.9,1,1.9,1.6,2.8c0.2,0.3,0.6,1.2,0.8,1.6c0.9,2,2.3,4.5,2.9,5.6
						c2.1,3.5,4.4,4.9,6.1,7.1L43.8,118.2z"/>
					<path class="st22" d="M40.8,102.2c0,0.1,0.1,0.1,0.1,0.2c0.1,0.3,0.2,0.5,0.2,0.7c0.2,0.6,0.5,1.2,0.9,1.8
						c-0.1,0.1-0.2,0.2-0.3,0.4c0,0.2,0,0.4,0.1,0.5c0,0.3-0.1,0.7-0.2,1c-0.3,1-0.5,2-0.6,3c0,0.5,0,1.1-0.1,1.6
						c0,0.2,0,0.2-0.3,0.2c-0.2-0.1-0.4-0.1-0.6-0.2c-0.6-0.3-1.5-0.7-2.1-0.5c-0.3,0.1-0.3,0.4-0.2,0.7c0.1,0.4,0.2,0.8,0.4,1.2
						c0.1,0.3,0.2,0.6,0.3,0.8c-0.3-0.4-0.5-0.8-0.8-1.2c-0.4-0.6-1-1.1-1.5-1.6c-0.3-0.3-0.7-0.6-1-0.9c-0.5-0.4-1-0.9-1.5-1.4
						c-0.4-0.4-0.7-0.8-1-1.3c-0.4-0.5-0.8-1.1-1.2-1.6c-0.4-0.4-0.8-0.9-1.3-1c-0.2,0-0.4,0-0.5-0.1c-0.3-0.1-0.4-0.5-0.3-0.7
						c0-0.1,0-0.2,0.1-0.2c0.2,0.3,0.3,0.5,0.5,0.7c0.1-0.1,0.3-0.2,0.4-0.3c0-0.1-0.1-0.2-0.1-0.2l3-1.5c0,0,0,0.1,0.1,0.2
						c0.2-0.1,0.4-0.2,0.6-0.2c0-0.1,0-0.1,0-0.2l3.3-1c0,0,0,0.1,0.1,0.1c0.2,0,0.4-0.1,0.6-0.1c0,0,0.1,0,0.1,0c0,0,0-0.1,0-0.1
						c0,0,0.3,1.3,1.5,1.7C40.4,103,40.8,102.2,40.8,102.2z"/>
					<path class="st13" d="M41.2,103.1c-0.1-0.3-0.2-0.5-0.3-0.8c0.1-0.7,0.1-1.4,0.3-1.9c-0.2,0.1-0.5,0.2-0.7,0.4
						c-0.2,0.2-0.4,0.4-0.6,0.7c-0.1,0.3,0,0.6-0.3,0.8c-0.1,0.1-0.2,0.1-0.3,0.1c-0.4,0.1-0.7,0-1-0.2c0.2,0.3,0.5,0.5,0.9,0.6
						c0.3,0.1,0.7,0.1,1.1,0.1c0.2,0,0.4,0,0.5,0.2c0.1,0.2,0.1,0.5,0,0.7c-0.1,0.4-0.6,0.5-1,0.7c-0.5,0.2-0.9,0.4-1.4,0.6
						c-0.9,0.4-1.8,0.8-2.5,1.4c-0.2,0.2-0.5,0.4-0.6,0.7c0.9-0.6,1.9-1.1,2.9-1.6c0.5-0.2,1-0.4,1.5-0.6c0.4-0.1,0.9-0.4,1.3-0.1
						c0.5,0.4,0.7,0.9,0.4,1.5c-0.3,0.6-0.5,1.2-0.6,1.8c-0.3,1.2-0.3,2.4-0.1,3.6c0.1,0.4,0.2,0.8,0.4,1.1c0-0.9,0.1-1.7,0.4-2.6
						c0.3-0.8,0.8-1.5,1.5-2c0.2-0.1,0.3-0.2,0.4-0.3c0.4-0.4,0-0.7-0.3-1.1c-0.2-0.4-0.5-0.8-0.7-1.2C42,104.9,41.5,104,41.2,103.1
						z"/>
					<path class="st23" d="M42.8,106.2c-0.6,0.1-0.8,0.9-0.8,0.9l1-0.6C42.9,106.5,42.8,106.3,42.8,106.2z"/>
					<path class="st22" d="M40.9,101.9c0.1-0.8,0.1-1.5,0.6-1.8c0,0,0-0.1-0.1-0.1c-0.1-0.2-0.3-0.3-0.4-0.4
						c-0.1-0.1-0.2-0.2-0.3-0.4c-0.3-0.5-0.3-1.2-0.2-1.8c0-0.2,0.1-0.4,0.2-0.6c0-0.1,0.1-0.1,0.1-0.2c-0.8,0.3-1.4,1.1-2,2.1
						c-0.4,0.7-0.9,1.5-1.1,2.1c0,0.1,0.1,0.2,0.1,0.3c0.2,0.5,0.5,1,1.1,1.3c0.1,0,0.2,0.1,0.3,0.1c0.4,0.1,0.9-0.1,1.2-0.3
						C40.6,102.2,40.8,102,40.9,101.9z"/>
					<path class="st24" d="M45.4,99.1c-0.8,0-0.9,0.9-1,1.3c-0.6-0.3-1.2-0.6-1.9-0.8c-0.1,0-0.2-0.1-0.3-0.1c-0.1,0-0.3,0-0.4,0
						c-0.5,0-0.9-0.3-1.1-0.7c-0.1-0.2-0.2-0.4-0.3-0.7c0,0.2,0,0.4,0,0.5c0,0.1,0,0.3,0,0.4c0,0.1-0.1,0.3-0.1,0.4
						c-0.4,0.8-0.8,1.6-1.2,2.3c0,0.1-0.1,0.2-0.2,0.2c-0.3,0.2-0.6-0.2-0.7-0.4c-0.2-0.3-0.4-0.6-0.5-1c0,0.1-0.1,0.1-0.1,0.2
						c0,0,0.2,1.3,1.1,1.7c0.8,0.3,1.6,0.2,2.1-0.2c0,0,0-0.1,0-0.1c0.1-1,0.1-2.2,0.8-2.4c0.5-0.2,1.6,0.4,2.1,0.6
						c0.6,0.3,1.2,0.6,1.9,0.8c0.7,0.2,1.7,0.3,2.2-0.3c0,0,0.1-0.1,0.1-0.1l0,0c0-0.1,0.1-0.1,0.1-0.2
						C47.5,99.9,46.3,99.1,45.4,99.1z"/>
					<path class="st21" d="M42.8,116.6c0.1,0.2,0.2,0.4,0.3,0.6c0.1,0.2,0.5,0.8,0.7,0.8c0.1,0,0.2-0.2,0.2-0.3
						c0.2-0.3,0.3-0.6,0.5-0.9c0.8-1.6,2-4.3,2.4-5.1c0.5-1.2,1.5-3.9,1.8-5.2c0.3-0.9,0.8-2.4,0.4-3.4c-0.3-0.8-1.1-2.3-1.8-2.8
						c-0.8-0.6-2.4-1.9-2.5,0c0,0.5,0.2,0.9,0.4,1.4c0.3,0.5,0.5,1,0.8,1.5c0.3,0.6,0.1,1.3-0.3,1.8c-0.3,0.4-0.8,0.7-1.2,1
						c-0.4,0.3-1,0.4-1.5,0.4c-0.2,0-0.5,0-0.7,0.1c-0.3,0.2-0.5,0.7-0.7,1c-0.2,0.4-0.4,0.9-0.5,1.3c-0.3,0.9-0.4,1.9-0.3,2.8
						c0.1,0.9,0.2,1.8,0.6,2.6C41.8,115.1,42.3,115.8,42.8,116.6z"/>
					<path class="st25" d="M46.4,104.8c0.3,0.4,0.6,0.7,1.1,0.9c0.1,0,0.1,0,0.2,0c-0.1,0.1-0.9-1.1-1-1.3c-0.2-0.3-0.3-0.6-0.5-0.8
						c0,0.5-0.1,1-0.4,1.3c-0.3,0.4-0.8,0.7-1.2,1c-0.4,0.3-1,0.4-1.5,0.4c-0.2,0-0.5,0-0.7,0.1c-0.3,0.2-0.5,0.7-0.7,1
						c-0.2,0.3-0.3,0.6-0.4,1c0.2-0.3,0.5-0.5,0.8-0.7c0.7-0.3,1.4-0.5,2.1-0.9c0.3-0.2,0.7-0.4,1-0.6c0.3-0.2,0.6-0.6,0.8-0.9
						C46.2,105.3,46.4,105.1,46.4,104.8z"/>
					<path class="st26" d="M30.6,104.5c0,0-0.4-0.3-0.7-0.3c0,0,0,0,0,0c0,0,0,0,0,0c-0.2-0.1-0.3-0.3-0.4-0.5
						c-0.1-0.2-0.3-0.4-0.4-0.6c-0.5-0.8-1-1.6-1.5-2.5c-0.7-1.2-1.4-2.6-2.3-3.7c-0.3-0.4-1.2-1.8-1.9-1.5c0.3,0.3,1.7,1.6,3,3.9
						c1.7,3,2.7,4.7,2.8,4.9c0,0.3-0.2,0.5-0.4,1c0,0,0.1-0.2,0.4-0.5c0.2-0.1,0.5-0.2,0.9,0c0.7,0.3,2.6,2.7,3.9,4.1
						C34,108.9,32.2,105.9,30.6,104.5z"/>
					<path class="st26" d="M37,101L37,101c-0.1-0.1-0.1-0.3-0.2-0.4c-0.3,0.1-0.7,0.2-1.2,0.4c-0.7,0.3-1.3,0.6-1.6,0.2
						c-0.3-0.4-2.8-8-3.3-10.7c-0.3-1.4-0.2-2.2-0.1-2.6c-0.6,0.4-0.6,1.4-0.5,2c0.6,2.5,1.3,5,2.1,7.5c0.4,1.2,0.8,2.5,1.2,3.7
						c0.1,0.3,0.2,0.6,0.2,0.9C35.1,101.5,36.2,101.2,37,101z"/>
					<path class="st26" d="M33.2,102.3C33.1,102.3,33.1,102.3,33.2,102.3c-0.1-0.1-0.1-0.2-0.1-0.3c-0.6-1.3-1.7-3.6-2.4-5.3
						c-0.7-1.6-1.3-3.4-2.3-4.9c-0.3-0.4-0.7-1.3-1.3-1.4c0.7,0.7,1.8,2.8,3.4,6.3c1.7,3.8,2.6,5.4,2.3,5.4
						c-0.5,0.1-1.5,0.7-1.8,0.9c-0.3,0.2-0.4-0.1-0.4-0.1c-0.5-0.7-3.4-8.5-4-10.2c-0.5-1.4-0.2-1.8-0.1-2.2c-0.6,0.4-0.5,1.4-0.3,2
						c0.8,2.5,1.7,4.9,2.7,7.3c0.5,1.2,1,2.4,1.5,3.6c0,0.1,0.1,0.2,0.1,0.3c0.4-0.3,0.9-0.6,1.5-0.9
						C32.2,102.7,32.7,102.5,33.2,102.3z"/>
					<path class="st23" d="M41.7,99.9c-0.2-0.1-0.8-0.4-1.1-1.2c0,0,0,0.9,0.9,1.4C41.6,100,41.6,100,41.7,99.9z"/>
					<path class="st26" d="M38.6,118.4c-1.1,0.2-2-0.3-2-0.3c-1.9-1-4.5-4.3-6.9-8c0.6,1.2,1.2,2.3,1.6,2.9c1.6,2.6,3.8,4.6,5.2,6.1
						C38.3,119.7,39.8,118.2,38.6,118.4z"/>
					<path class="st26" d="M43.6,116.7c-0.7,0.5-1.3,0.8-1.8,0.7c0,0-0.4-0.1,0.2,0.3c0.4,0.4,1.9-0.1,2.7-1.3c0,0,0,0,0,0
						c0.8-1.6,1.9-4,2.2-4.8c0.2-0.5,0.5-1.2,0.8-1.9C47.8,109.3,44.8,115.8,43.6,116.7z"/>
				</g>
			</g>
			<path class="st2" d="M113.3,75.5c0.9,3.3-1.2,5.9-3,8.4c-0.9,1.2-1.8,2.6-2.1,4.1c-0.2,0.8-0.1,1.7,0,2.5c0.2,1.3,1,2.2,1.2,3.5
				c0.3,1.6-0.4,3.3-1.8,4.2c0.7-1.1,0.8-2.6,0.3-3.8c-0.5-1.3-1.6-2.3-2.2-3.6c-0.7-1.7-0.4-3.6,0.3-5.3c0.7-1.7,1.8-3.2,2.6-4.8
				c1.9-3.8-1.8-6.1-1.5-9.8c0.1-1.6,1-3.3,1.3-4.8c0.4-1.8-0.5-3.5-1.3-5.1c-1.1-2.2-3-3.7-4.5-5.6c-1.7-2.1-3.7-3.9-5.5-5.9
				c-0.7-0.8-7.5-7.6-7.1-8.2c-1.4,2.1-3.6,3.8-5.4,5.5c-2.1,1.9-4.3,3.5-6.6,5.2c-5.4,3.9-10.3,8.4-13.7,14.2
				c-1.5,2.5-2.7,5.3-3.2,8.2c-0.4,2.6,0.1,5.1,1.1,7.5c0.9,1.9,1.8,3.6,2.3,5.6c0.4,1.8-0.4,3.3-0.3,5.1c0.1,1.8,1.5,3.1,2.8,4.3
				c1.3,1.2,2.8,2.4,3.1,4.2c0.3,1.7-0.7,3.4-1.7,4.8c0.3-1.3,0.4-2.7-0.1-3.9c-1.4-3.4-6.3-3.9-7.1-7.8c-0.3-1.3,0.1-2.6-0.1-3.9
				c-0.2-2.2-1.9-4.6-3.3-6.3c-1.5-1.8-3.1-3.5-4-5.7c-0.6-1.4-0.8-3.1-0.4-4.6c0.5-1.8,1.9-4.1,1.6-6c-0.3-2.1-1.9-3.9-2.4-6
				c-1.1-4.4-1.3-8.4,0-12.8c1.3-4.3,3.5-8.3,6.5-11.7c5.8-6.7,14.6-10.3,23.5-9.9c3.1,0.1,6.1,0.8,9,2c4,1.7,7.2,4.9,9.7,8.4
				c2.6,3.7,4.5,7.7,6,11.9c1.4,3.7,4.2,7.1,4.8,11c0.3,2-0.4,3.8-1.1,5.6c-0.6,1.4-0.7,2.8-0.1,4.1c0.4,1,1.1,1.8,1.6,2.8
				C112.8,74,113.1,74.7,113.3,75.5z"/>
			<path class="st5" d="M43.7,72.6c-3.6,4.6-4.9,10.9,0.3,15.1c-1.2-1.7-1.8-3.8-1.9-5.9c-0.2-3.5,1.1-4.6,3-7.6
				c2.2-3.5,4.9-6.5,6.7-10.3c1-2.2,1.7-4.5,1.6-6.9c0,2.4-1.9,4.9-3.1,6.7C48.1,66.7,46,69.7,43.7,72.6z"/>
			<path class="st5" d="M118,56.1c5.2,2.6,9,7.8,6.1,13.8c0.3-2.1,0.1-4.2-0.7-6.1c-1.3-3.3-3-3.7-5.9-5.6
				c-3.5-2.3-7.2-3.8-10.4-6.5c-1.8-1.5-3.4-3.4-4.4-5.5c1,2.2,3.7,3.6,5.7,4.8C111.5,52.7,114.7,54.5,118,56.1z"/>
			<path class="st27" d="M82,53c-2.5,2.6-4.2,3.4-7.3,5.3c-3.1,2-7.4,3.9-10.6,5.8c-2.7,1.6-5.1,3.7-6.6,6.5c-0.1-1,0.5-1.9,1.1-2.7
				c4.8-6.2,12.3-8.9,18.6-13.2c2.9-2,5.6-4.3,7.6-7.2c2-2.8,3.8-5.7,4.4-9.2C89.1,43.9,85.7,49.1,82,53z"/>
			<path class="st4" d="M67.9,31.8c2.1-2.3,4.9-4,7.7-5.3c2.9-1.3,7.5-3.4,10.8-2.7c-1.7-1.3-3.8-1.8-5.9-1.9
				c-5.8-0.2-11.5,2-16.1,5.5c-3.7,2.8-6.1,6.4-8.4,10.5c2.5-2.9,5.3-5.6,8.4-7.6c1.7-1.1,3.3-2.3,5.1-3.2c1.7-0.9,3.6-1.4,5.3-2.3
				C71.7,26.4,69.3,28.4,67.9,31.8z"/>
			<path class="st5" d="M89.2,32.9c0,0-18.2,3.6-25.6,19.9C63.6,52.8,71.8,40,89.2,32.9z"/>
			<g>
				<path class="st28" d="M126.6,82c0,0,5.8-0.4,5.8-6.6c0,0,0.1,6.6,5.5,6.6c0,0-5.6,1.2-5.6,6.2C132.3,88.2,131.2,82,126.6,82z"/>
				<polygon class="st28" points="126.1,82.3 123.4,82.3 123.4,81.8 126.1,81.8 126.1,82.3 				"/>
				<polygon class="st28" points="141.2,82.3 138.5,82.3 138.5,81.8 141.2,81.8 141.2,82.3 				"/>
				<polygon class="st28" points="132.5,74.8 132.1,74.8 132.1,72.1 132.5,72.1 132.5,74.8 				"/>
				<polygon class="st28" points="132.5,91.4 132.1,91.4 132.1,88.7 132.5,88.7 132.5,91.4 				"/>
			</g>
			<g>
				<path class="st28" d="M27.1,63.2c0,0,6.4-0.5,6.4-7.4c0,0,0.2,7.4,6.1,7.4c0,0-6.2,1.3-6.2,6.9C33.5,70.1,32.3,63.2,27.1,63.2z"
					/>
				<polygon class="st28" points="26.6,63.4 23.6,63.4 23.6,62.9 26.6,62.9 26.6,63.4 				"/>
				<polygon class="st28" points="43.4,63.4 40.4,63.4 40.4,62.9 43.4,62.9 43.4,63.4 				"/>
				<polygon class="st28" points="33.7,55.1 33.2,55.1 33.2,52.1 33.7,52.1 33.7,55.1 				"/>
				<polygon class="st28" points="33.7,73.5 33.2,73.5 33.2,70.6 33.7,70.6 33.7,73.5 				"/>
			</g>
			<g>
				<path class="st28" d="M123.3,102.9c0,0,2.9-0.2,2.9-3.4c0,0,0.1,3.4,2.8,3.4c0,0-2.8,0.6-2.8,3.2
					C126.2,106.1,125.7,102.9,123.3,102.9z"/>
				<polygon class="st28" points="123.1,103 121.7,103 121.7,102.8 123.1,102.8 123.1,103 				"/>
				<polygon class="st28" points="130.8,103 129.4,103 129.4,102.8 130.8,102.8 130.8,103 				"/>
				<polygon class="st28" points="126.4,99.2 126.1,99.2 126.1,97.9 126.4,97.9 126.4,99.2 				"/>
				<polygon class="st28" points="126.4,107.7 126.1,107.7 126.1,106.3 126.4,106.3 126.4,107.7 				"/>
			</g>
			<g>
				<path class="st28" d="M38.6,44.3c0,0,3.4-0.3,3.4-3.9c0,0,0.1,3.9,3.2,3.9c0,0-3.3,0.7-3.3,3.7C41.9,48,41.3,44.3,38.6,44.3z"/>
				<polygon class="st28" points="38.3,44.5 36.7,44.5 36.7,44.2 38.3,44.2 38.3,44.5 				"/>
				<polygon class="st28" points="47.2,44.5 45.6,44.5 45.6,44.2 47.2,44.2 47.2,44.5 				"/>
				<polygon class="st28" points="42.1,40.1 41.8,40.1 41.8,38.5 42.1,38.5 42.1,40.1 				"/>
				<polygon class="st28" points="42.1,49.9 41.8,49.9 41.8,48.3 42.1,48.3 42.1,49.9 				"/>
			</g>
		</g>
	</g>
</g>
</svg>
