<?xml version="1.0" encoding="utf-8"?>
<!-- Generator: Adobe Illustrator 22.0.1, SVG Export Plug-In . SVG Version: 6.00 Build 0)  -->
<svg version="1.1" id="Layer_1" xmlns="http://www.w3.org/2000/svg" xmlns:xlink="http://www.w3.org/1999/xlink" x="0px" y="0px"
	 viewBox="0 0 103.5 137.9" style="enable-background:new 0 0 103.5 137.9;" xml:space="preserve">
<style type="text/css">
	.st0{fill:#F8C4D4;}
	.st1{fill:#F28BAF;}
</style>
<circle class="st0" cx="51.9" cy="53.1" r="43.8"/>
<g>
	<path class="st1" d="M61.6,92.3c-0.4,0-0.7-0.3-0.8-0.6c-0.2-0.7-0.4-1.4-0.6-2.1c-0.2-0.4,0.1-0.9,0.5-1.1
		c0.4-0.2,0.9,0.1,1.1,0.5c0.3,0.7,0.5,1.5,0.7,2.2c0.1,0.5-0.2,0.9-0.6,1C61.8,92.3,61.7,92.3,61.6,92.3z"/>
	<path class="st1" d="M44.3,129.1c-0.3,0-0.6-0.2-0.7-0.4c-0.2-0.4-0.1-0.9,0.3-1.1c1.2-0.7,2.4-1.5,3.4-2.5c0.3-0.3,0.9-0.3,1.2,0
		c0.3,0.3,0.3,0.9,0,1.2c-1.1,1-2.3,2-3.7,2.7C44.6,129.1,44.4,129.1,44.3,129.1z M50.6,123.1c-0.2,0-0.3,0-0.5-0.1
		c-0.4-0.3-0.5-0.8-0.3-1.2c0.7-1.2,1.4-2.4,1.8-3.8c0.2-0.4,0.6-0.7,1.1-0.5c0.4,0.2,0.7,0.6,0.5,1.1c-0.5,1.5-1.2,2.8-2,4.1
		C51.2,123,50.9,123.1,50.6,123.1z M46.8,116.7c-1.1,0-2.2-0.2-3.2-0.5c-0.4-0.2-0.7-0.6-0.5-1.1c0.2-0.4,0.6-0.7,1.1-0.5
		c1.2,0.4,2.6,0.6,3.9,0.4c0.4-0.1,0.9,0.2,1,0.7c0.1,0.5-0.2,0.9-0.7,1C47.8,116.6,47.3,116.7,46.8,116.7z M52.3,115.1
		c-0.3,0-0.6-0.2-0.7-0.4c-0.2-0.4-0.1-0.9,0.3-1.1c0.3-0.1,0.5-0.3,0.8-0.5c0-0.2,0-0.5,0-0.7c0-0.6,0-1.2-0.1-1.8
		c0-0.2-0.1-0.4-0.1-0.7c-0.1-0.5,0.2-0.9,0.7-1c0.4-0.1,0.9,0.2,1,0.7c0,0.2,0.1,0.5,0.1,0.7c0.1,0.5,0.1,1,0.1,1.5
		c0,0,0.1,0,0.1-0.1c0.3-0.2,0.5-0.5,0.8-0.7c0.3-0.3,0.9-0.3,1.2,0c0.3,0.3,0.3,0.9,0,1.2c-0.3,0.3-0.5,0.5-0.8,0.8
		c-0.4,0.4-0.8,0.7-1.2,1c0,0.1,0,0.1,0,0.2c0,0.5-0.5,0.8-0.9,0.8c-0.1,0-0.2-0.1-0.3-0.1c-0.1,0.1-0.2,0.1-0.3,0.2
		C52.6,115.1,52.5,115.1,52.3,115.1z M40.4,113.6c-0.3,0-0.5-0.1-0.7-0.4c-0.8-1.2-1.3-2.8-1.3-4.4l0-0.3c0-0.5,0.4-0.9,0.9-0.8
		c0.5,0,0.8,0.4,0.8,0.9l0,0.2c0,1.3,0.4,2.5,1,3.4c0.3,0.4,0.2,0.9-0.2,1.2C40.8,113.5,40.6,113.6,40.4,113.6z M58.6,109.1
		c-0.2,0-0.3,0-0.5-0.1c-0.4-0.3-0.5-0.8-0.2-1.2c0.8-1.2,1.4-2.4,1.9-3.7c0.2-0.4,0.7-0.6,1.1-0.5c0.4,0.2,0.6,0.7,0.5,1.1
		c-0.6,1.4-1.3,2.8-2.1,4C59.2,109,58.9,109.1,58.6,109.1z M51.9,106.4c-0.3,0-0.6-0.1-0.7-0.4c-0.4-0.7-0.9-1.3-1.5-1.8
		c-0.4-0.3-0.8-0.6-1.3-0.7c-0.4-0.2-0.6-0.7-0.4-1.1c0.2-0.4,0.7-0.6,1.1-0.4c0.6,0.3,1.2,0.6,1.7,1c0.8,0.6,1.4,1.4,1.9,2.3
		c0.2,0.4,0.1,0.9-0.3,1.2C52.2,106.4,52.1,106.4,51.9,106.4z M40.7,105.4c-0.2,0-0.4-0.1-0.5-0.2c-0.4-0.3-0.4-0.8-0.1-1.2
		c0.1-0.1,0.1-0.2,0.2-0.3c1-1.1,2.4-1.9,4-2.2c0.5-0.1,0.9,0.2,1,0.6c0.1,0.5-0.2,0.9-0.6,1c-1.2,0.3-2.3,0.9-3.1,1.7l-0.2,0.2
		C41.2,105.3,41,105.4,40.7,105.4z M61.9,101c0,0-0.1,0-0.2,0c-0.5-0.1-0.8-0.5-0.7-1c0.2-1.2,0.3-2.5,0.3-3.8l0-0.4
		c0-0.5,0.4-0.9,0.8-0.9c0,0,0,0,0,0c0.5,0,0.8,0.4,0.8,0.8l0,0.5c0,1.3-0.1,2.7-0.4,4.1C62.6,100.7,62.3,101,61.9,101z"/>
	<path class="st1" d="M37.9,131.3c-0.4,0-0.8-0.3-0.8-0.7c-0.1-0.5,0.2-0.9,0.7-1c0.7-0.1,1.4-0.3,2.1-0.4c0.4-0.1,0.9,0.1,1,0.6
		c0.1,0.4-0.1,0.9-0.6,1c-0.8,0.2-1.5,0.4-2.3,0.5C38,131.3,38,131.3,37.9,131.3z"/>
</g>
</svg>
