<?xml version="1.0" encoding="utf-8"?>
<!-- Generator: Adobe Illustrator 22.1.0, SVG Export Plug-In . SVG Version: 6.00 Build 0)  -->
<svg version="1.1" id="Capa_1" xmlns="http://www.w3.org/2000/svg" xmlns:xlink="http://www.w3.org/1999/xlink" x="0px" y="0px"
	 viewBox="0 0 511.9989319 480.0059204" style="enable-background:new 0 0 511.9989319 480.0059204;" xml:space="preserve" fill="#666666">
		<path d="M436.9968872,209.9918976c-10.5090027,0-224.7030029,0-234.7590027,0
			c28.4859924-33.947998,95.5599976-113.8850021,117.2879944-139.779007
			c2.5580139-3.0469971,3.7999878-6.9860001,3.4530029-10.9499969s-2.2539978-7.6259995-5.302002-10.1849976l-45.9639893-38.5690002
			c-19.0090027-15.9500008-47.451004-13.4619999-63.401001,5.5470009l-34.1170044,40.6579895
			c-3.4730072-9.6020012-9.423996-18.4459991-17.7929993-25.4680004
			c-25.3450012-21.2670002-63.2669983-17.9489994-84.5339966,7.395998
			C60.3628883,52.3518906,56.0678902,69.7408905,58.5468903,86.1848907
			c-17.5309982,0.4410019-33.4609985,8.2070007-44.5349998,21.4059982
			c-21.2670002,25.3449936-17.9489994,63.2670059,7.3960009,84.5329971
			c8.2000008,6.8800049,17.8619976,11.352005,28.1319981,13.147995L15.463891,245.8818817
			c-15.9870005,19.0520172-13.5089998,47.411026,5.5460005,63.4010162l38.9659996,32.696991v93.0240173
			c0,24.8139954,20.1880035,45.0020142,45.0019989,45.0020142c12.3639984,0,286.9849854,0,302.0159912,0
			c24.8139954,0,45.0020142-20.1879883,45.0020142-45.0020142V224.9928894
			C451.9978638,216.7078857,445.2818909,209.9918976,436.9968872,209.9918976z M163.799881,115.7788849l67.4929962-80.435997
			c5.3339996-6.3569965,14.7940063-7.1679974,21.1340027-1.848999l34.4729919,28.927002l-77.1380005,91.9309921
			l-45.9640045-38.5690002C163.7978821,115.7808838,163.7988739,115.779892,163.799881,115.7788849z M190.4758759,177.3328857
			l-19.2839966,22.9819946l-45.9649963-38.5690002c6.7429962-8.0359955,12.5410004-14.9459991,19.2850037-22.9819946
			L190.4758759,177.3328857z M94.8478775,57.9268875c10.5999985-12.6329994,29.5559998-14.3639984,42.2669907-3.697998
			c12.6690063,10.6299973,14.3300018,29.5820007,3.7079926,42.2540054
			c-6.5139923,7.7630005-19.1500015,22.8209991-19.2949982,22.9949951l-22.981987-19.2839966
			C85.8738785,89.5608902,84.2158813,70.5998917,94.8478775,57.9268875z M40.6918793,169.1408844
			c-12.6729984-10.6340027-14.3319988-29.5950012-3.6969986-42.2669983
			c10.6490021-12.6900024,29.564003-14.3560028,42.2669983-3.6970062l22.9820023,19.2839966
			c-6.9059982,8.2299957-12.3850021,14.7599945-19.2919998,22.9909973
			C72.2948761,178.1428986,53.3958778,179.7998962,40.6918793,169.1408844z M40.2958794,286.3009033
			c-6.3520012-5.32901-7.1800003-14.7820129-1.8499985-21.1340027l67.4970093-80.4380188l45.9649963,38.5690002
			l-77.1380081,91.9310303L40.2958794,286.3009033z M209.9838715,450.0049133H104.9788742
			c-8.2710037,0-15.0009995-6.7290039-15.0009995-15.0010071v-91.2279968l87.0839996-103.7830048h32.9230042v210.0120087
			H209.9838715z M269.9868774,450.0049133h-30.0019989V239.9938965h30.0019989V450.0049133z M421.994873,435.0039063
			c0,8.2709961-6.7290039,15.0010071-15.0010071,15.0010071H299.9888916V239.9938965H421.994873V435.0039063z"/>
		<path d="M459.7848816,29.982893c-14.4890137,0-27.2350159,5.8939991-37.2130127,17.1259975
			c-9.9779968-11.2319984-22.7250061-17.1259975-37.2139893-17.1259975c-29.2789917,0-52.2139893,24.3329945-52.2139893,55.3969955
			c0,32.6080093,25.3519897,54.0060043,60.4410095,83.6210098c6.1210022,5.1669922,12.4519958,10.5099945,19.1610107,16.3249969
			c2.8190002,2.4429932,6.3210144,3.6649933,9.8250122,3.6649933s7.0050049-1.2220001,9.8250122-3.6649933
			c6.7109985-5.8159943,13.0440063-11.1620026,19.1669922-16.3300018
			c31.7609863-26.8049927,60.4360046-49.5509949,60.4360046-83.6159973
			C511.9998779,54.3158875,489.0638733,29.982893,459.7848816,29.982893z M432.2138672,146.0698853
			c-3.1480103,2.6569977-6.3519897,5.3610077-9.6409912,8.1569977c-3.2869873-2.7940063-6.4880066-5.4960022-9.6350098-8.1520081
			c-33.6270142-28.3809967-49.7910156-42.8180008-49.7910156-60.6949997c0-12.6200027,7.6289978-25.3949966,22.2120056-25.3949966
			c16.1090088,0,22.3370056,19.8519974,22.7690125,21.2969971c1.7330017,6.5360031,7.6029968,11.0070038,14.368988,11.0540009
			c0.0339966,0,0.0669861,0,0.1019897,0c6.7380066,0,12.631012-4.5940018,14.4320068-11.0970001
			c0.0589905-0.211998,6.3450012-21.2539978,22.756012-21.2539978c14.5830078,0,22.2130127,12.776001,22.2130127,25.3950043
			C481.9988708,104.0058899,463.0838928,120.0138855,432.2138672,146.0698853z"/>
</svg>
