<?xml version="1.0" encoding="utf-8"?>
<!-- Generator: Adobe Illustrator 22.1.0, SVG Export Plug-In . SVG Version: 6.00 Build 0)  -->
<svg version="1.1" id="Capa_1" xmlns="http://www.w3.org/2000/svg" xmlns:xlink="http://www.w3.org/1999/xlink" x="0px" y="0px"
	 viewBox="0 0 254.21698 196.5920105" style="enable-background:new 0 0 254.21698 196.5920105;" xml:space="preserve" fill="#666666">
	<path d="M253.5209961,91.5419922l-19.7089996-42.5769997c-1.2290039-2.6520004-3.8849945-4.3499985-6.8070068-4.3499985H165.022995
		V7.5c0-4.1420021-3.3569946-7.5-7.5-7.5H7.5C3.3569999,0,0,3.3580017,0,7.5v126.2210083c0,4.1419983,3.3570001,7.5,7.5,7.5h14.691
		c-1.2560005,2.75-2.2049999,5.6670074-2.7989998,8.7120056H7.5c-4.1430001,0-7.5,3.3580017-7.5,7.5s3.3570001,7.5,7.5,7.5
		h11.8929996c3.5100002,18.0160065,19.4060001,31.6589966,38.4360046,31.6589966
		c19.0270004,0,34.9220047-13.6439972,38.4319992-31.6589966h62.595993
		c3.5099945,18.0160065,19.4049988,31.6589966,38.4339905,31.6589966c19.026001,0,34.9199982-13.6439972,38.4299927-31.6589966
		H246.71698c4.1430054,0,7.5-3.3580017,7.5-7.5V94.6930084C254.2149963,93.6040039,253.9790039,92.529007,253.5209961,91.5419922z
		 M158.8549957,149.9320068H96.2600021c-0.5930023-3.0449982-1.5429993-5.9620056-2.7990036-8.7120056h64.0630035
		c1.9880066,0,3.7910004-0.779007,5.1329956-2.0420074C160.8930054,142.5090027,159.5980072,146.1220093,158.8549957,149.9320068z
		 M15,15h135.022995v111.2210083H81.4469986c-6.5709991-4.9850006-14.7539978-7.9499969-23.6189995-7.9499969
		s-17.0499992,2.9649963-23.6209984,7.9499969H15V15z M57.8279991,181.5910034
		c-13.3240013,0-24.1639977-10.8379974-24.1639977-24.1589966c0-13.322998,10.8400002-24.1620026,24.1640015-24.1620026
		c13.3219986,0,24.1600037,10.8390045,24.1600037,24.1620026C81.987999,170.753006,71.1500015,181.5910034,57.8279991,181.5910034z
		 M197.2890015,181.5910034c-13.322998,0-24.1620026-10.8379974-24.1620026-24.1589966
		c0-13.322998,10.8390045-24.1620026,24.1620026-24.1620026c13.3209991,0,24.1580048,10.8390045,24.1580048,24.1620026
		C221.4470062,170.753006,210.6100006,181.5910034,197.2890015,181.5910034z M239.2149963,149.9320068h-3.4960022
		c-3.5099945-18.0180054-19.4020081-31.6620026-38.4299927-31.6620026c-13.5350037,0-25.4859924,6.904007-32.522995,17.3739929
		c0.1620026-0.6150055,0.2579956-1.2570038,0.2579956-1.9230042V59.6150017h57.1889954l17.0019989,36.7290077V149.9320068z"/>
	<path d="M211.0659943,66.4900055h-31.5370026c-4.1430054,0-7.5,3.3580017-7.5,7.5v20.8499908
		c0,4.1419983,3.3569946,7.5000153,7.5,7.5000153h41.428009c0.0110016,0,0.0149994,0,0.0200043,0c4.1430054,0,7.5-3.3580017,7.5-7.5
		c0-1.3430023-0.3529968-2.6029968-0.970993-3.6930084l-9.6629944-20.3710022
		C216.6009979,68.1579971,213.9629974,66.4900055,211.0659943,66.4900055z M187.029007,87.3390045v-5.8500061h19.2940063
		l2.7740021,5.8500061H187.029007z"/>
</svg>
