<?xml version="1.0" encoding="utf-8"?>
<!-- Generator: Adobe Illustrator 22.1.0, SVG Export Plug-In . SVG Version: 6.00 Build 0)  -->
<svg version="1.1" id="Capa_1" xmlns="http://www.w3.org/2000/svg" xmlns:xlink="http://www.w3.org/1999/xlink" x="0px" y="0px"
	 viewBox="0 0 512 360" style="enable-background:new 0 0 512 360;" xml:space="preserve" fill="#666666">
		<path class="st0" d="M467,0H45C20.1870003,0,0,20.1869965,0,45v270c0,24.8129883,20.1870003,45,45,45h422
			c24.8129883,0,45-20.1870117,45-45V45C512,20.1869965,491.8129883,0,467,0z M150,330H45c-8.2709999,0-15-6.7290039-15-15V150
			h32.4550018c7.4840012,22.3460083,30.4280014,35.8059998,53.6839981,31.25l-23.6200027,35.4299927
			c-4.5950012,6.8930054-2.7320023,16.2059937,4.1610031,20.8009949c6.8919983,4.5939941,16.2060013,2.7319946,20.8010025-4.1610107
			L150,184.5419922V330z M90,134.9790039c0-13.6560059,15.1880035-21.8280029,26.5849991-14.2279968L137.9579926,135
			l-21.3730011,14.2489929C105.2269974,156.8209991,90,148.7380066,90,134.9790039z M150,106.9720001l-16.7740021-11.1829987
			c-25.8970032-17.2649994-60.9629974-5.0659943-70.7659988,24.2099915H30v-75C30,36.7289963,36.7290001,30,45,30h105V106.9720001z
			 M482,315.0010071C482,323.2709961,475.2709961,330,467,330H180V184.5419922l32.5189972,48.7789917
			c4.6009979,6.901001,13.9170074,8.7510071,20.8009949,4.1610107c6.8930054-4.5960083,8.7559967-13.9089966,4.1609955-20.8009949
			l-23.6199951-35.4299927c23.1499939,4.5339966,46.1610107-8.7980042,53.6789856-31.25H482V315.0010071z M192.0420074,135
			l21.3730011-14.2489929C224.7740021,113.1779938,240,121.2619934,240,135.0200043
			c0,13.6790009-15.2089996,21.8139954-26.5849915,14.2279968L192.0420074,135z M482,120H267.5450134
			c-9.8049927-29.272995-44.8710022-41.477005-70.7709961-24.2099915L180,106.9720001V30h287c8.2709961,0,15,6.7290039,15,15V120z"
			/>
    <path class="st0" d="M437,210H315c-8.2839966,0-15,6.7160034-15,15s6.7160034,15,15,15h122c8.2839966,0,15-6.7160034,15-15
			S445.2839966,210,437,210z"/>
		<path class="st0" d="M437,270H315c-8.2839966,0-15,6.7160034-15,15s6.7160034,15,15,15h122c8.2839966,0,15-6.7160034,15-15
			S445.2839966,270,437,270z"/>
</svg>
