<?xml version="1.0" encoding="utf-8"?>
<!-- Generator: Adobe Illustrator 22.1.0, SVG Export Plug-In . SVG Version: 6.00 Build 0)  -->
<svg version="1.1" id="Layer_1" xmlns="http://www.w3.org/2000/svg" xmlns:xlink="http://www.w3.org/1999/xlink" x="0px" y="0px"
	 viewBox="0 0 757.7 624.9" style="enable-background:new 0 0 757.7 624.9;" xml:space="preserve">
<style type="text/css">
	.st0{fill:#f3f9f3;}
	.st1{fill:#f3f9f3;stroke:#E4F1FB;stroke-width:2.0001;stroke-miterlimit:10;}
	.st2{fill:#f3f9f3;stroke:#f3f9f3;stroke-width:1.0001;stroke-miterlimit:10;}
	.st3{fill:#f3f9f3;}
</style>
<path class="st0" d="M124,572.2c0,2-1.7,3.7-3.7,3.7c-2,0-3.7-1.7-3.7-3.7c0-2,1.7-3.7,3.7-3.7C122.3,568.4,124,570.1,124,572.2
	L124,572.2z"/>
<path class="st0" d="M108.7,507.2c0,2.2-1.8,4-4,4c-2.2,0-4-1.8-4-4c0-2.2,1.8-4,4-4C106.9,503.2,108.7,505,108.7,507.2L108.7,507.2
	z"/>
<path class="st0" d="M6.4,562.3c0,1.8-1.4,3.2-3.2,3.2c-1.8,0-3.2-1.4-3.2-3.2c0-1.8,1.4-3.2,3.2-3.2C5,559.1,6.4,560.5,6.4,562.3
	L6.4,562.3z"/>
<path class="st0" d="M215.4,513.6c0,1.9-1.5,3.5-3.5,3.5c-1.9,0-3.5-1.5-3.5-3.5c0-1.9,1.5-3.5,3.5-3.5
	C213.8,510.2,215.4,511.7,215.4,513.6L215.4,513.6z"/>
<path class="st0" d="M218.3,452.9c0,1.6-1.3,3-3,3c-1.6,0-3-1.3-3-3c0-1.6,1.3-3,3-3C217,449.9,218.3,451.2,218.3,452.9L218.3,452.9
	z"/>
<path class="st0" d="M311.6,556.4c0,2.2-1.8,3.9-3.9,3.9c-2.2,0-3.9-1.8-3.9-3.9c0-2.2,1.8-3.9,3.9-3.9
	C309.9,552.4,311.6,554.2,311.6,556.4L311.6,556.4z"/>
<path class="st1" d="M276,572.8c0,2.2-1.8,3.9-3.9,3.9c-2.2,0-3.9-1.8-3.9-3.9c0-2.2,1.8-3.9,3.9-3.9
	C274.2,568.8,276,570.6,276,572.8L276,572.8z"/>
<path class="st0" d="M288.5,584.2c0,1.6-1.3,3-3,3c-1.6,0-3-1.3-3-3c0-1.6,1.3-3,3-3C287.2,581.3,288.5,582.6,288.5,584.2
	L288.5,584.2z"/>
<path class="st0" d="M198.6,566.5c0,2-1.6,3.6-3.6,3.6c-2,0-3.6-1.6-3.6-3.6c0-2,1.6-3.6,3.6-3.6
	C196.9,562.9,198.6,564.5,198.6,566.5L198.6,566.5z"/>
<path class="st0" d="M210.4,474.3c0,1.8-1.5,3.3-3.3,3.3c-1.8,0-3.3-1.5-3.3-3.3c0-1.8,1.5-3.3,3.3-3.3
	C208.9,471,210.4,472.5,210.4,474.3L210.4,474.3z"/>
<path class="st0" d="M131.7,542.2c0,3.6-3,6.6-6.6,6.6c-3.6,0-6.6-3-6.6-6.6c0-3.6,3-6.6,6.6-6.6
	C128.7,535.6,131.7,538.6,131.7,542.2L131.7,542.2z"/>
<path class="st0" d="M158,570c0,1.8-1.5,3.3-3.3,3.3s-3.3-1.5-3.3-3.3c0-1.8,1.5-3.3,3.3-3.3S158,568.2,158,570L158,570z"/>
<path class="st0" d="M52.7,574.3c0,3.3-2.6,5.9-5.9,5.9c-3.3,0-5.9-2.6-5.9-5.9c0-3.3,2.6-5.9,5.9-5.9C50,568.4,52.7,571,52.7,574.3
	L52.7,574.3z"/>
<path class="st0" d="M196.3,533c0,2.7-2.2,4.9-4.9,4.9c-2.7,0-4.9-2.2-4.9-4.9c0-2.7,2.2-4.9,4.9-4.9
	C194.1,528.1,196.3,530.3,196.3,533L196.3,533z"/>
<path class="st0" d="M245.5,467.1c0,3.4-2.7,6.1-6.1,6.1c-3.4,0-6.1-2.7-6.1-6.1c0-3.4,2.7-6.1,6.1-6.1
	C242.8,461,245.5,463.7,245.5,467.1L245.5,467.1z"/>
<path class="st2" d="M336.7,548.9c0,1.8-1.5,3.3-3.3,3.3c-1.8,0-3.2-1.5-3.2-3.3c0-1.8,1.5-3.3,3.2-3.3
	C335.2,545.6,336.7,547.1,336.7,548.9L336.7,548.9z"/>
<path class="st0" d="M334.2,581c0,2.7-2.2,4.9-4.9,4.9c-2.7,0-4.9-2.2-4.9-4.9c0-2.7,2.2-4.9,4.9-4.9
	C332,576.1,334.2,578.3,334.2,581L334.2,581z"/>
<path class="st0" d="M285.4,561.3c0,1.6-1.3,2.9-2.9,2.9c-1.6,0-2.9-1.3-2.9-2.9c0-1.6,1.3-2.9,2.9-2.9
	C284.1,558.5,285.4,559.8,285.4,561.3L285.4,561.3z"/>
<path class="st0" d="M269.4,543.2c0,2.5-2.1,4.6-4.6,4.6c-2.5,0-4.6-2.1-4.6-4.6c0-2.5,2.1-4.6,4.6-4.6
	C267.4,538.6,269.4,540.7,269.4,543.2L269.4,543.2z"/>
<path class="st0" d="M300.8,398.5c0,2.8-2.3,5.1-5.1,5.1c-2.8,0-5.1-2.3-5.1-5.1c0-2.8,2.3-5.1,5.1-5.1
	C298.6,393.4,300.8,395.7,300.8,398.5L300.8,398.5z"/>
<path class="st0" d="M324,448.4c0,1.6-1.3,2.8-2.8,2.8c-1.6,0-2.8-1.3-2.8-2.8c0-1.6,1.3-2.8,2.8-2.8
	C322.8,445.5,324,446.8,324,448.4L324,448.4z"/>
<path class="st0" d="M313.1,492.1c0,1-0.8,1.8-1.8,1.8c-1,0-1.8-0.8-1.8-1.8c0-1,0.8-1.8,1.8-1.8
	C312.2,490.3,313.1,491.1,313.1,492.1L313.1,492.1z"/>
<path class="st2" d="M372.5,351c0,1.1-0.9,2.1-2,2.1c-1.1,0-2-0.9-2-2.1c0-1.1,0.9-2.1,2-2.1C371.6,349,372.5,349.9,372.5,351
	L372.5,351z"/>
<path class="st0" d="M417.6,272.4c0,2.1-1.7,3.9-3.9,3.9c-2.1,0-3.9-1.7-3.9-3.9c0-2.1,1.7-3.9,3.9-3.9
	C415.9,268.5,417.6,270.3,417.6,272.4L417.6,272.4z"/>
<path class="st0" d="M432.7,181.9c0,1.8-1.5,3.3-3.3,3.3c-1.8,0-3.2-1.5-3.2-3.3c0-1.8,1.5-3.3,3.2-3.3
	C431.2,178.6,432.7,180.1,432.7,181.9L432.7,181.9z"/>
<path class="st0" d="M457.9,228.9c0,1.7-1.4,3.1-3,3.1c-1.7,0-3.1-1.4-3.1-3.1c0-1.7,1.4-3.1,3.1-3.1
	C456.5,225.8,457.9,227.2,457.9,228.9L457.9,228.9z"/>
<path class="st0" d="M549.4,153c0,2.2-1.8,4.1-4.1,4.1c-2.2,0-4.1-1.8-4.1-4.1c0-2.2,1.8-4.1,4.1-4.1
	C547.6,148.9,549.4,150.7,549.4,153L549.4,153z"/>
<path class="st2" d="M617.4,152.6c0,2-1.6,3.7-3.7,3.7c-2,0-3.7-1.6-3.7-3.7c0-2,1.6-3.7,3.7-3.7
	C615.8,148.9,617.4,150.6,617.4,152.6L617.4,152.6z"/>
<path class="st0" d="M577.9,234c0,2.2-1.8,4.1-4.1,4.1c-2.2,0-4.1-1.8-4.1-4.1s1.8-4.1,4.1-4.1C576.1,229.9,577.9,231.7,577.9,234
	L577.9,234z"/>
<path class="st2" d="M643,223.2c0,2.4-1.9,4.3-4.3,4.3s-4.3-1.9-4.3-4.3c0-2.4,1.9-4.3,4.3-4.3S643,220.8,643,223.2L643,223.2z"/>
<path class="st0" d="M602.7,270.8c0,2.1-1.7,3.9-3.9,3.9c-2.1,0-3.9-1.7-3.9-3.9c0-2.1,1.7-3.9,3.9-3.9
	C601,266.9,602.7,268.6,602.7,270.8L602.7,270.8z"/>
<path class="st2" d="M575.1,360.9c0,2-1.6,3.7-3.7,3.7c-2,0-3.7-1.6-3.7-3.7c0-2,1.6-3.7,3.7-3.7
	C573.4,357.2,575.1,358.9,575.1,360.9L575.1,360.9z"/>
<path class="st0" d="M584.7,377.8c0,2-1.6,3.7-3.7,3.7c-2,0-3.7-1.6-3.7-3.7c0-2,1.6-3.7,3.7-3.7C583,374.1,584.7,375.8,584.7,377.8
	L584.7,377.8z"/>
<path class="st2" d="M540.7,415.8c0,1.4-1.2,2.6-2.6,2.6c-1.4,0-2.6-1.2-2.6-2.6c0-1.4,1.2-2.6,2.6-2.6
	C539.5,413.2,540.7,414.4,540.7,415.8L540.7,415.8z"/>
<path class="st0" d="M644.2,296.6c0,2.2-1.8,4.1-4.1,4.1s-4.1-1.8-4.1-4.1c0-2.2,1.8-4.1,4.1-4.1S644.2,294.4,644.2,296.6
	L644.2,296.6z"/>
<path class="st0" d="M683.7,296.6c0,3.6-2.9,6.5-6.5,6.5c-3.6,0-6.5-2.9-6.5-6.5c0-3.6,2.9-6.5,6.5-6.5
	C680.8,290.1,683.7,293,683.7,296.6L683.7,296.6z"/>
<path class="st0" d="M684.1,251.5c0,3.1-2.6,5.7-5.7,5.7c-3.1,0-5.7-2.6-5.7-5.7c0-3.1,2.6-5.7,5.7-5.7
	C681.6,245.8,684.1,248.3,684.1,251.5L684.1,251.5z"/>
<path class="st0" d="M652,157.3c0,1.7-1.4,3.1-3.1,3.1c-1.7,0-3.1-1.4-3.1-3.1c0-1.7,1.4-3.1,3.1-3.1
	C650.6,154.2,652,155.6,652,157.3L652,157.3z"/>
<path class="st0" d="M555.1,189c0,1.5-1.2,2.6-2.7,2.6c-1.5,0-2.6-1.2-2.6-2.6c0-1.5,1.2-2.6,2.6-2.6
	C554,186.4,555.1,187.5,555.1,189L555.1,189z"/>
<path class="st0" d="M487.6,235c0,2.1-1.7,3.9-3.9,3.9c-2.1,0-3.9-1.7-3.9-3.9c0-2.1,1.7-3.9,3.9-3.9
	C485.9,231.1,487.6,232.8,487.6,235L487.6,235z"/>
<path class="st0" d="M519.7,302.1c0,1.9-1.6,3.5-3.5,3.5c-1.9,0-3.5-1.5-3.5-3.5c0-1.9,1.5-3.5,3.5-3.5
	C518.2,298.6,519.7,300.2,519.7,302.1L519.7,302.1z"/>
<path class="st0" d="M536.8,358.1c0,1.8-1.5,3.3-3.3,3.3c-1.8,0-3.3-1.5-3.3-3.3s1.5-3.3,3.3-3.3
	C535.4,354.8,536.8,356.3,536.8,358.1L536.8,358.1z"/>
<path class="st2" d="M488.5,486.8c0,1.7-1.4,3.1-3,3.1c-1.7,0-3.1-1.4-3.1-3.1c0-1.7,1.4-3.1,3.1-3.1
	C487.1,483.7,488.5,485.1,488.5,486.8L488.5,486.8z"/>
<path class="st2" d="M439.5,480c0,1.9-1.5,3.4-3.4,3.4c-1.9,0-3.4-1.5-3.4-3.4c0-1.9,1.5-3.4,3.4-3.4
	C438,476.7,439.5,478.2,439.5,480L439.5,480z"/>
<path class="st0" d="M393.6,515.9c0,2.2-1.8,4.1-4.1,4.1c-2.3,0-4.1-1.8-4.1-4.1c0-2.2,1.8-4.1,4.1-4.1
	C391.8,511.8,393.6,513.7,393.6,515.9L393.6,515.9z"/>
<path class="st0" d="M509.4,25.2c0,3.3-2.6,5.9-5.9,5.9c-3.3,0-5.9-2.6-5.9-5.9c0-3.3,2.6-5.9,5.9-5.9
	C506.7,19.3,509.4,22,509.4,25.2L509.4,25.2z"/>
<path class="st0" d="M570.2,555.6c0,1.9-1.5,3.5-3.5,3.5c-1.9,0-3.5-1.5-3.5-3.5c0-1.9,1.6-3.5,3.5-3.5
	C568.6,552.1,570.2,553.7,570.2,555.6L570.2,555.6z"/>
<path class="st2" d="M461.3,121.9c0,1.6-1.3,2.8-2.8,2.8c-1.6,0-2.8-1.3-2.8-2.8s1.3-2.8,2.8-2.8C460,119.1,461.3,120.4,461.3,121.9
	L461.3,121.9z"/>
<path class="st2" d="M672.3,408.7c0,1.7-1.4,3.1-3.1,3.1c-1.7,0-3.1-1.4-3.1-3.1c0-1.7,1.4-3.1,3.1-3.1
	C671,405.7,672.3,407,672.3,408.7L672.3,408.7z"/>
<path class="st0" d="M533.1,28.3c0,1.2-1,2.2-2.2,2.2c-1.2,0-2.2-1-2.2-2.2s1-2.2,2.2-2.2C532.1,26,533.1,27,533.1,28.3L533.1,28.3z
	"/>
<path class="st0" d="M576.3,465.7c0,2.6-2.1,4.7-4.7,4.7c-2.6,0-4.7-2.1-4.7-4.7c0-2.6,2.1-4.7,4.7-4.7
	C574.2,461,576.3,463.1,576.3,465.7L576.3,465.7z"/>
<path class="st0" d="M535.2,480.1c0,1.3-1.1,2.4-2.4,2.4c-1.3,0-2.4-1.1-2.4-2.4c0-1.3,1.1-2.4,2.4-2.4
	C534.1,477.7,535.2,478.8,535.2,480.1L535.2,480.1z"/>
<path class="st0" d="M539.3,512.7c0,2.7-2.2,4.9-4.9,4.9c-2.7,0-4.9-2.2-4.9-4.9c0-2.7,2.2-4.9,4.9-4.9
	C537.1,507.8,539.3,510,539.3,512.7L539.3,512.7z"/>
<path class="st0" d="M460.1,414.4c0,1.8-1.5,3.3-3.3,3.3c-1.8,0-3.3-1.5-3.3-3.3c0-1.8,1.5-3.3,3.3-3.3
	C458.6,411.2,460.1,412.6,460.1,414.4L460.1,414.4z"/>
<path class="st0" d="M423.1,406.1c0,2.2-1.8,4-4,4c-2.2,0-4-1.8-4-4c0-2.2,1.8-4,4-4C421.3,402.1,423.1,403.9,423.1,406.1
	L423.1,406.1z"/>
<path class="st0" d="M61,546.1h3.1c0-4.7,2.2-9.2,8.1-9.2c4.3,0,7.3,2.8,7.3,6.8c0,2.3-1,4.3-3.2,6.6c-4.5,4.5-5.8,5.5-5.8,11.9h3.1
	c0-4,0.2-5.5,3.2-8.3c3.2-3,6.1-5.5,6.1-10.4c0-5.6-4.3-9.4-10.6-9.4C64.7,534,61,539.5,61,546.1L61,546.1z M74,566h-3.8v5.1H74V566
	L74,566z"/>
<path class="st0" d="M135.9,501.6h5.5c0-8.4,3.9-16.3,14.3-16.3c7.7,0,12.9,4.9,12.9,12c0,4.1-1.7,7.7-5.7,11.6
	c-8,8-10.3,9.6-10.3,21h5.4c0-7,0.3-9.6,5.7-14.7c5.7-5.3,10.8-9.6,10.8-18.3c0-9.9-7.6-16.6-18.7-16.6
	C142.3,480.4,135.9,489.9,135.9,501.6L135.9,501.6z M158.7,536.8h-6.8v9h6.8V536.8L158.7,536.8z"/>
<path class="st0" d="M215.5,552.2h3.1c0-4.7,2.2-9.2,8.1-9.2c4.3,0,7.3,2.8,7.3,6.8c0,2.3-1,4.3-3.2,6.6c-4.5,4.5-5.8,5.5-5.8,11.9
	h3.1c0-4,0.2-5.5,3.2-8.3c3.2-3,6.1-5.5,6.1-10.4c0-5.6-4.3-9.4-10.6-9.4C219.1,540.1,215.5,545.5,215.5,552.2L215.5,552.2z
	 M228.4,572.1h-3.8v5.1h3.8V572.1L228.4,572.1z"/>
<path class="st0" d="M318.3,387.5h6.6c0-10.1,4.6-19.6,17.2-19.6c9.2,0,15.5,5.8,15.5,14.4c0,5-2.1,9.2-6.8,13.9
	c-9.6,9.6-12.3,11.6-12.3,25.2h6.5c0-8.4,0.3-11.6,6.8-17.6c6.8-6.4,13-11.6,13-21.9c0-11.9-9.1-19.9-22.5-19.9
	C326,362,318.3,373.5,318.3,387.5L318.3,387.5z M345.6,429.7h-8.1v10.8h8.1V429.7L345.6,429.7z"/>
<path class="st0" d="M285.2,525.9h3.1c0,4.7,2.2,9.2,8.1,9.2c4.3,0,7.3-2.8,7.3-6.8c0-2.3-1-4.3-3.2-6.6c-4.5-4.5-5.8-5.5-5.8-11.9
	h3.1c0,4,0.2,5.5,3.2,8.3c3.2,3,6.1,5.5,6.1,10.4c0,5.6-4.3,9.4-10.6,9.4C288.8,538,285.2,532.6,285.2,525.9L285.2,525.9z
	 M298.1,506h-3.8v-5.1h3.8V506L298.1,506z"/>
<path class="st0" d="M271.7,502.3h-3.9c0,6-2.8,11.6-10.2,11.6c-5.5,0-9.2-3.5-9.2-8.5c0-3,1.2-5.5,4-8.3c5.7-5.7,7.3-6.9,7.3-15
	h-3.9c0,5-0.2,6.9-4,10.5c-4,3.8-7.7,6.9-7.7,13c0,7.1,5.4,11.8,13.3,11.8C267.1,517.4,271.7,510.6,271.7,502.3L271.7,502.3z
	 M255.5,477.3h4.8v-6.4h-4.8V477.3L255.5,477.3z"/>
<path class="st0" d="M277.6,464.5h4.9c0,7.4,3.4,14.4,12.7,14.4c6.8,0,11.4-4.3,11.4-10.6c0-3.7-1.5-6.8-5-10.3
	c-7.1-7.1-9.1-8.5-9.1-18.6h4.8c0,6.2,0.2,8.5,5,13c5,4.7,9.6,8.5,9.6,16.2c0,8.8-6.7,14.7-16.6,14.7
	C283.3,483.3,277.6,474.8,277.6,464.5L277.6,464.5z M297.8,433.4h-6v-8h6V433.4L297.8,433.4z"/>
<path class="st0" d="M243.4,408.6h3.9c0-6,2.8-11.6,10.2-11.6c5.5,0,9.2,3.5,9.2,8.5c0,3-1.2,5.5-4,8.3c-5.7,5.7-7.3,6.9-7.3,15h3.9
	c0-5,0.2-6.9,4-10.5c4-3.8,7.7-6.9,7.7-13c0-7.1-5.4-11.8-13.3-11.8C247.9,393.5,243.4,400.3,243.4,408.6L243.4,408.6z M259.6,433.7
	h-4.8v6.4h4.8V433.7L259.6,433.7z"/>
<path class="st0" d="M284.9,366.5h3.1c0,4.7,2.2,9.2,8.1,9.2c4.3,0,7.3-2.8,7.3-6.8c0-2.3-1-4.3-3.2-6.6c-4.5-4.5-5.8-5.5-5.8-11.9
	h3.1c0,4,0.2,5.5,3.2,8.3c3.2,3,6.1,5.5,6.1,10.4c0,5.6-4.3,9.4-10.6,9.4C288.6,378.6,284.9,373.2,284.9,366.5L284.9,366.5z
	 M297.9,346.6H294v-5.1h3.8V346.6L297.9,346.6z"/>
<path class="st0" d="M324.5,510.8h6c0,9.2,4.2,17.8,15.7,17.8c8.4,0,14.1-5.3,14.1-13.1c0-4.5-1.9-8.4-6.2-12.7
	c-8.8-8.8-11.2-10.5-11.2-23h5.9c0,7.7,0.3,10.5,6.2,16.1c6.2,5.8,11.8,10.5,11.8,20c0,10.8-8.3,18.1-20.5,18.1
	C331.5,534,324.5,523.6,324.5,510.8L324.5,510.8z M349.4,472.3H342v-9.9h7.4V472.3L349.4,472.3z"/>
<path class="st0" d="M368.2,479.1h3.1c0-4.7,2.2-9.2,8.1-9.2c4.3,0,7.3,2.8,7.3,6.8c0,2.3-1,4.3-3.2,6.6c-4.5,4.5-5.8,5.5-5.8,11.9
	h3.1c0-4,0.2-5.5,3.2-8.3c3.2-3,6.1-5.5,6.1-10.4c0-5.6-4.3-9.4-10.6-9.4C371.8,467.1,368.2,472.5,368.2,479.1L368.2,479.1z
	 M381.1,499h-3.8v5.1h3.8V499L381.1,499z"/>
<path class="st0" d="M364.7,550.5h4.1c0-6.2,2.9-12,10.6-12c5.7,0,9.5,3.6,9.5,8.8c0,3.1-1.3,5.7-4.2,8.6c-5.9,5.9-7.6,7.1-7.6,15.5
	h4c0-5.2,0.2-7.1,4.2-10.8c4.2-3.9,8-7.1,8-13.5c0-7.3-5.6-12.2-13.8-12.2C369.5,534.8,364.7,541.8,364.7,550.5L364.7,550.5z
	 M381.6,576.4h-5v6.7h5V576.4L381.6,576.4z"/>
<path class="st0" d="M446.2,555.3h-3.1c0,4.7-2.2,9.2-8.1,9.2c-4.3,0-7.3-2.8-7.3-6.8c0-2.3,1-4.3,3.2-6.6c4.5-4.5,5.8-5.5,5.8-11.9
	h-3.1c0,4-0.2,5.5-3.2,8.3c-3.2,3-6.1,5.5-6.1,10.4c0,5.6,4.3,9.4,10.6,9.4C442.6,567.3,446.2,561.9,446.2,555.3L446.2,555.3z
	 M433.3,535.4h3.8v-5.1h-3.8V535.4L433.3,535.4z"/>
<path class="st0" d="M403.1,506.1h3.1c0,4.7,2.2,9.2,8,9.2c4.3,0,7.2-2.7,7.2-6.7c0-2.3-1-4.3-3.2-6.5c-4.5-4.5-5.8-5.4-5.8-11.8h3
	c0,3.9,0.2,5.4,3.2,8.3c3.2,3,6.1,5.4,6.1,10.3c0,5.6-4.3,9.3-10.5,9.3C406.7,518,403.1,512.6,403.1,506.1L403.1,506.1z
	 M415.9,486.3h-3.8v-5.1h3.8V486.3L415.9,486.3z"/>
<path class="st0" d="M441.2,526.1h6.6c0-10.1,4.6-19.6,17.2-19.6c9.2,0,15.5,5.8,15.5,14.4c0,5-2.1,9.2-6.8,13.9
	c-9.6,9.6-12.3,11.6-12.3,25.2h6.5c0-8.4,0.3-11.6,6.8-17.6c6.8-6.4,13-11.6,13-21.9c0-11.9-9.1-19.9-22.5-19.9
	C448.9,500.6,441.2,512.1,441.2,526.1L441.2,526.1z M468.5,568.3h-8.1v10.8h8.1V568.3L468.5,568.3z"/>
<path class="st0" d="M510.6,530.8h3.1c0-4.7,2.2-9.2,8.1-9.2c4.3,0,7.3,2.8,7.3,6.8c0,2.3-1,4.3-3.2,6.6c-4.5,4.5-5.8,5.5-5.8,11.9
	h3.1c0-4,0.2-5.5,3.2-8.3c3.2-3,6.1-5.5,6.1-10.4c0-5.6-4.3-9.4-10.6-9.4C514.2,518.8,510.6,524.2,510.6,530.8L510.6,530.8z
	 M523.5,550.8h-3.8v5.1h3.8V550.8L523.5,550.8z"/>
<path class="st0" d="M525.4,470h-3.9c0-6-2.8-11.6-10.2-11.6c-5.5,0-9.2,3.5-9.2,8.5c0,3,1.2,5.5,4,8.3c5.7,5.7,7.3,6.9,7.3,15h-3.9
	c0-5-0.2-6.9-4-10.5c-4-3.8-7.7-6.9-7.7-13c0-7.1,5.4-11.8,13.3-11.8C520.8,454.8,525.4,461.6,525.4,470L525.4,470z M509.1,495h4.8
	v6.4h-4.8V495L509.1,495z"/>
<path class="st0" d="M446,448.1h4.9c0-7.4,3.4-14.4,12.7-14.4c6.8,0,11.4,4.3,11.4,10.6c0,3.7-1.5,6.8-5,10.3
	c-7.1,7.1-9.1,8.5-9.1,18.6h4.8c0-6.2,0.2-8.5,5-13c5-4.7,9.6-8.5,9.6-16.2c0-8.8-6.7-14.7-16.6-14.7
	C451.7,429.3,446,437.7,446,448.1L446,448.1z M466.2,479.1h-6v8h6V479.1L466.2,479.1z"/>
<path class="st0" d="M367,443.5h3.8c0,5.8,2.7,11.2,9.9,11.2c5.3,0,8.9-3.3,8.9-8.2c0-2.9-1.2-5.3-3.9-8c-5.5-5.5-7.1-6.6-7.1-14.4
	h3.7c0,4.8,0.2,6.6,3.9,10.1c3.9,3.7,7.4,6.6,7.4,12.6c0,6.8-5.2,11.4-12.9,11.4C371.4,458.2,367,451.6,367,443.5L367,443.5z
	 M382.7,419.4h-4.7v-6.2h4.7V419.4L382.7,419.4z"/>
<path class="st0" d="M436.6,435.7h-3.9c0-6-2.8-11.6-10.2-11.6c-5.5,0-9.2,3.5-9.2,8.5c0,3,1.2,5.5,4,8.3c5.7,5.7,7.3,6.9,7.3,15
	h-3.9c0-5-0.2-6.9-4-10.5c-4-3.8-7.7-6.9-7.7-13c0-7.1,5.4-11.8,13.3-11.8C432,420.6,436.6,427.4,436.6,435.7L436.6,435.7z
	 M420.4,460.7h4.8v6.4h-4.8V460.7L420.4,460.7z"/>
<path class="st0" d="M386.9,389.3h3c0-4.6,2.1-8.9,7.8-8.9c4.2,0,7,2.7,7,6.5c0,2.3-0.9,4.2-3.1,6.3c-4.4,4.4-5.6,5.3-5.6,11.4h2.9
	c0-3.8,0.1-5.3,3.1-8c3.1-2.9,5.9-5.3,5.9-10c0-5.4-4.1-9-10.2-9C390.4,377.7,386.9,382.9,386.9,389.3L386.9,389.3z M399.4,408.5
	h-3.7v4.9h3.7V408.5L399.4,408.5z"/>
<path class="st0" d="M413.5,333.3h-4.1c0-6.2-2.9-12-10.6-12c-5.6,0-9.5,3.6-9.5,8.8c0,3.1,1.3,5.6,4.2,8.6
	c5.9,5.9,7.6,7.1,7.6,15.5h-4c0-5.2-0.2-7.1-4.2-10.8c-4.2-3.9-8-7.1-8-13.5c0-7.3,5.6-12.2,13.8-12.2
	C408.8,317.6,413.5,324.7,413.5,333.3L413.5,333.3z M396.7,359.2h5v6.6h-5V359.2L396.7,359.2z"/>
<path class="st0" d="M342.3,313.6h3.1c0-4.7,2.2-9.2,8.1-9.2c4.3,0,7.3,2.8,7.3,6.8c0,2.3-1,4.3-3.2,6.6c-4.5,4.5-5.8,5.5-5.8,11.9
	h3.1c0-4,0.2-5.5,3.2-8.3c3.2-3,6.1-5.5,6.1-10.4c0-5.6-4.3-9.4-10.6-9.4C345.9,301.6,342.3,307,342.3,313.6L342.3,313.6z
	 M355.2,333.5h-3.8v5.1h3.8V333.5L355.2,333.5z"/>
<path class="st0" d="M334.7,251.9h5c0-7.6,3.5-14.9,13.1-14.9c7,0,11.7,4.4,11.7,10.9c0,3.8-1.6,7-5.2,10.6
	c-7.3,7.3-9.4,8.8-9.4,19.1h4.9c0-6.4,0.2-8.8,5.2-13.4c5.2-4.8,9.9-8.8,9.9-16.7c0-9-6.9-15.1-17.1-15.1
	C340.5,232.5,334.7,241.2,334.7,251.9L334.7,251.9z M355.5,283.9h-6.2v8.2h6.2V283.9L355.5,283.9z"/>
<path class="st0" d="M407.3,287.3h-3.9c0,6-2.8,11.6-10.2,11.6c-5.5,0-9.2-3.5-9.2-8.5c0-3,1.2-5.5,4-8.3c5.7-5.7,7.3-6.9,7.3-15
	h-3.9c0,5-0.2,6.9-4,10.5c-4,3.8-7.7,6.9-7.7,13c0,7.1,5.4,11.8,13.3,11.8C402.8,302.5,407.3,295.7,407.3,287.3L407.3,287.3z
	 M391.1,262.3h4.8v-6.4h-4.8V262.3L391.1,262.3z"/>
<path class="st0" d="M418.8,304.9h2.6c0,4,1.9,7.8,6.9,7.8c3.7,0,6.2-2.3,6.2-5.7c0-2-0.8-3.7-2.7-5.6c-3.8-3.8-4.9-4.6-4.9-10h2.6
	c0,3.4,0.1,4.6,2.7,7c2.7,2.5,5.2,4.6,5.2,8.7c0,4.7-3.6,7.9-9,7.9C421.9,315.1,418.8,310.5,418.8,304.9L418.8,304.9z M429.7,288.1
	h-3.2v-4.3h3.2V288.1L429.7,288.1z"/>
<path class="st0" d="M441.9,324.4h2.2c0-3.3,1.5-6.4,5.6-6.4c3,0,5.1,1.9,5.1,4.7c0,1.6-0.7,3-2.2,4.6c-3.2,3.2-4,3.8-4,8.3h2.1
	c0-2.8,0.1-3.8,2.2-5.8c2.2-2.1,4.3-3.8,4.3-7.2c0-3.9-3-6.5-7.4-6.5C444.4,316.1,441.9,319.8,441.9,324.4L441.9,324.4z
	 M450.9,338.3h-2.7v3.5h2.7V338.3L450.9,338.3z"/>
<path class="st0" d="M469.1,348.2h2.2c0-3.3,1.5-6.4,5.6-6.4c3,0,5.1,1.9,5.1,4.7c0,1.6-0.7,3-2.2,4.6c-3.2,3.2-4,3.8-4,8.3h2.1
	c0-2.8,0.1-3.8,2.2-5.8c2.2-2.1,4.3-3.8,4.3-7.2c0-3.9-3-6.5-7.4-6.5C471.6,339.8,469.1,343.6,469.1,348.2L469.1,348.2z M478.1,362
	h-2.7v3.5h2.7V362L478.1,362z"/>
<path class="st0" d="M423.8,372.8h4.9c0-7.4,3.4-14.4,12.7-14.4c6.8,0,11.4,4.3,11.4,10.6c0,3.7-1.5,6.8-5,10.3
	c-7.1,7.1-9.1,8.5-9.1,18.6h4.8c0-6.2,0.2-8.5,5-13c5-4.7,9.6-8.5,9.6-16.2c0-8.8-6.7-14.7-16.6-14.7
	C429.5,354,423.8,362.4,423.8,372.8L423.8,372.8z M444,403.9h-6v8h6V403.9L444,403.9z"/>
<path class="st0" d="M319.2,411.9H317c0,3.3-1.5,6.4-5.6,6.4c-3,0-5.1-1.9-5.1-4.7c0-1.6,0.7-3,2.2-4.6c3.2-3.2,4-3.8,4-8.3h-2.1
	c0,2.8-0.1,3.8-2.2,5.8c-2.2,2.1-4.3,3.8-4.3,7.2c0,3.9,3,6.5,7.4,6.5C316.7,420.3,319.2,416.5,319.2,411.9L319.2,411.9z
	 M310.2,398.1h2.7v-3.5h-2.7V398.1L310.2,398.1z"/>
<path class="st0" d="M487.2,395.9H485c0-3.3-1.5-6.4-5.6-6.4c-3,0-5.1,1.9-5.1,4.7c0,1.6,0.7,3,2.2,4.6c3.2,3.2,4,3.8,4,8.3h-2.1
	c0-2.8-0.1-3.8-2.2-5.8c-2.2-2.1-4.3-3.8-4.3-7.2c0-3.9,3-6.5,7.4-6.5C484.7,387.5,487.2,391.3,487.2,395.9L487.2,395.9z
	 M478.2,409.7h2.7v3.5h-2.7V409.7L478.2,409.7z"/>
<path class="st0" d="M521.4,426.9h-3.9c0,6-2.8,11.6-10.2,11.6c-5.5,0-9.2-3.5-9.2-8.5c0-3,1.2-5.5,4-8.3c5.7-5.7,7.3-6.9,7.3-15
	h-3.9c0,5-0.2,6.9-4,10.5c-4,3.8-7.7,6.9-7.7,13c0,7.1,5.4,11.8,13.3,11.8C516.8,442,521.4,435.2,521.4,426.9L521.4,426.9z
	 M505.1,401.9h4.8v-6.4h-4.8V401.9L505.1,401.9z"/>
<path class="st0" d="M534.6,451.6h3.1c0,4.7,2.2,9.2,8.1,9.2c4.3,0,7.3-2.8,7.3-6.8c0-2.3-1-4.3-3.2-6.6c-4.5-4.5-5.8-5.5-5.8-11.9
	h3.1c0,4,0.2,5.5,3.2,8.3c3.2,3,6.1,5.5,6.1,10.4c0,5.6-4.3,9.4-10.6,9.4C538.3,463.6,534.6,458.2,534.6,451.6L534.6,451.6z
	 M547.6,431.7h-3.8v-5.1h3.8V431.7L547.6,431.7z"/>
<path class="st0" d="M548.4,495.2h4.9c0-7.4,3.4-14.4,12.7-14.4c6.8,0,11.4,4.3,11.4,10.6c0,3.7-1.5,6.8-5,10.3
	c-7.1,7.1-9.1,8.5-9.1,18.6h4.8c0-6.2,0.2-8.5,5-13c5-4.7,9.6-8.5,9.6-16.2c0-8.8-6.7-14.7-16.6-14.7
	C554,476.4,548.4,484.8,548.4,495.2L548.4,495.2z M568.5,526.2h-6v8h6V526.2L568.5,526.2z"/>
<path class="st0" d="M450.7,58.2h-3.9c0-6-2.8-11.6-10.2-11.6c-5.5,0-9.2,3.5-9.2,8.5c0,3,1.2,5.5,4,8.3c5.7,5.7,7.3,6.9,7.3,15
	h-3.9c0-5-0.2-6.9-4-10.5c-4-3.8-7.7-6.9-7.7-13c0-7.1,5.4-11.8,13.3-11.8C446.1,43.1,450.7,49.9,450.7,58.2L450.7,58.2z
	 M434.4,83.3h4.8v6.4h-4.8V83.3L434.4,83.3z"/>
<path class="st3" d="M464.2,78.1h6.6c0-10.1,4.6-19.6,17.2-19.6c9.2,0,15.5,5.8,15.5,14.4c0,5-2.1,9.2-6.8,13.9
	c-9.6,9.6-12.3,11.6-12.3,25.2h6.5c0-8.4,0.3-11.6,6.8-17.6c6.8-6.4,13-11.6,13-21.9c0-11.9-9.1-19.9-22.5-19.9
	C471.9,52.6,464.2,64.1,464.2,78.1L464.2,78.1z M491.6,120.3h-8.1v10.8h8.1V120.3L491.6,120.3z"/>
<path class="st0" d="M552.3,51.4h-3.9c0-6-2.8-11.6-10.2-11.6c-5.5,0-9.2,3.5-9.2,8.5c0,3,1.2,5.5,4,8.3c5.7,5.7,7.3,6.9,7.3,15
	h-3.9c0-5-0.2-6.9-4-10.5c-4-3.8-7.7-6.9-7.7-13c0-7.1,5.4-11.8,13.3-11.8C547.8,36.2,552.3,43,552.3,51.4L552.3,51.4z M536.1,76.4
	h4.8v6.4h-4.8V76.4L536.1,76.4z"/>
<path class="st0" d="M552.4,21.8h5.3c0-8.1,3.7-15.7,13.8-15.7c7.4,0,12.4,4.7,12.4,11.6c0,4-1.7,7.4-5.5,11.2
	c-7.7,7.7-9.9,9.3-9.9,20.3h5.2c0-6.8,0.3-9.3,5.5-14.2c5.5-5.1,10.4-9.3,10.4-17.7c0-9.6-7.3-16-18.1-16
	C558.6,1.3,552.4,10.5,552.4,21.8L552.4,21.8z M574.4,55.8h-6.5v8.7h6.5V55.8L574.4,55.8z"/>
<path class="st0" d="M577,434.5h5.3c0,8.1,3.7,15.7,13.8,15.7c7.4,0,12.4-4.7,12.4-11.6c0-4-1.7-7.4-5.5-11.2
	c-7.7-7.7-9.9-9.3-9.9-20.3h5.2c0,6.8,0.3,9.3,5.5,14.2c5.5,5.1,10.4,9.3,10.4,17.7c0,9.6-7.3,16-18.1,16
	C583.2,455.1,577,445.9,577,434.5L577,434.5z M599,400.6h-6.5v-8.7h6.5V400.6L599,400.6z"/>
<path class="st0" d="M534.9,388.1h4.9c0,7.4,3.4,14.4,12.7,14.4c6.8,0,11.4-4.3,11.4-10.6c0-3.7-1.5-6.8-5-10.3
	c-7.1-7.1-9.1-8.5-9.1-18.6h4.8c0,6.2,0.2,8.5,5,13c5,4.7,9.6,8.5,9.6,16.2c0,8.8-6.7,14.7-16.6,14.7
	C540.5,406.9,534.9,398.5,534.9,388.1L534.9,388.1z M555,357.1h-6v-8h6V357.1L555,357.1z"/>
<path class="st0" d="M572.8,312.3h6.6c0-10.1,4.6-19.6,17.2-19.6c9.2,0,15.5,5.8,15.5,14.4c0,5-2.1,9.2-6.8,13.9
	c-9.6,9.6-12.3,11.6-12.3,25.2h6.5c0-8.4,0.3-11.6,6.8-17.6c6.8-6.4,13-11.6,13-21.9c0-11.9-9.1-19.9-22.5-19.9
	C580.4,286.8,572.8,298.2,572.8,312.3L572.8,312.3z M600.1,354.4H592v10.8h8.1V354.4L600.1,354.4z"/>
<path class="st0" d="M494.9,334h4.9c0-7.4,3.4-14.4,12.7-14.4c6.8,0,11.4,4.3,11.4,10.6c0,3.7-1.5,6.8-5,10.3
	c-7.1,7.1-9.1,8.5-9.1,18.6h4.8c0-6.2,0.2-8.5,5-13c5-4.7,9.6-8.5,9.6-16.2c0-8.8-6.7-14.7-16.6-14.7
	C500.6,315.2,494.9,323.7,494.9,334L494.9,334z M515.1,365.1h-6v8h6V365.1L515.1,365.1z"/>
<path class="st0" d="M460,292.3h5.3c0,8.1,3.7,15.7,13.8,15.7c7.4,0,12.4-4.7,12.4-11.6c0-4-1.7-7.4-5.5-11.2
	c-7.7-7.7-9.9-9.3-9.9-20.3h5.2c0,6.8,0.3,9.3,5.5,14.2c5.5,5.1,10.4,9.3,10.4,17.7c0,9.6-7.3,16-18.1,16
	C466.2,312.8,460,303.6,460,292.3L460,292.3z M482.1,258.3h-6.5v-8.7h6.5V258.3L482.1,258.3z"/>
<path class="st0" d="M417.3,248.9h3.9c0,6,2.8,11.6,10.2,11.6c5.5,0,9.2-3.5,9.2-8.5c0-3-1.2-5.5-4-8.3c-5.7-5.7-7.3-6.9-7.3-15h3.9
	c0,5,0.2,6.9,4,10.5c4,3.8,7.7,6.9,7.7,13c0,7.1-5.4,11.8-13.3,11.8C421.8,264,417.3,257.2,417.3,248.9L417.3,248.9z M433.5,223.8
	h-4.8v-6.4h4.8V223.8L433.5,223.8z"/>
<path class="st0" d="M375.3,190.5h4.9c0-7.4,3.4-14.4,12.7-14.4c6.8,0,11.4,4.3,11.4,10.6c0,3.7-1.5,6.8-5,10.3
	c-7.1,7.1-9.1,8.5-9.1,18.6h4.8c0-6.2,0.2-8.5,5-13c5-4.7,9.6-8.5,9.6-16.2c0-8.8-6.7-14.7-16.6-14.7
	C380.9,171.8,375.3,180.2,375.3,190.5L375.3,190.5z M395.4,221.6h-6v8h6V221.6L395.4,221.6z"/>
<path class="st0" d="M622.3,402.5h2.9c0-4.4,2.1-8.7,7.6-8.7c4.1,0,6.8,2.6,6.8,6.4c0,2.2-0.9,4.1-3,6.2c-4.3,4.3-5.5,5.1-5.5,11.1
	h2.9c0-3.7,0.1-5.1,3-7.8c3-2.8,5.7-5.1,5.7-9.7c0-5.3-4-8.8-9.9-8.8C625.7,391.2,622.3,396.2,622.3,402.5L622.3,402.5z
	 M634.4,421.1h-3.6v4.8h3.6V421.1L634.4,421.1z"/>
<path class="st0" d="M690.5,360.8h-3.9c0-6-2.8-11.6-10.2-11.6c-5.5,0-9.2,3.5-9.2,8.5c0,3,1.2,5.5,4,8.3c5.7,5.7,7.3,6.9,7.3,15
	h-3.9c0-5-0.2-6.9-4-10.5c-4-3.8-7.7-6.9-7.7-13c0-7.1,5.4-11.8,13.3-11.8C686,345.7,690.5,352.5,690.5,360.8L690.5,360.8z
	 M674.3,385.8h4.8v6.4h-4.8V385.8L674.3,385.8z"/>
<path class="st0" d="M620.7,366.9h3.9c0,6,2.8,11.6,10.2,11.6c5.5,0,9.2-3.5,9.2-8.5c0-3-1.2-5.5-4-8.3c-5.7-5.7-7.3-6.9-7.3-15h3.9
	c0,5,0.2,6.9,4,10.5c4,3.8,7.7,6.9,7.7,13c0,7.1-5.4,11.8-13.3,11.8C625.2,382.1,620.7,375.3,620.7,366.9L620.7,366.9z M636.9,341.9
	h-4.8v-6.4h4.8V341.9L636.9,341.9z"/>
<path class="st0" d="M639.9,315.3h2.9c0-4.4,2.1-8.7,7.6-8.7c4.1,0,6.8,2.6,6.8,6.4c0,2.2-0.9,4.1-3,6.2c-4.3,4.3-5.5,5.1-5.5,11.1
	h2.9c0-3.7,0.1-5.1,3-7.8c3-2.8,5.7-5.1,5.7-9.7c0-5.3-4-8.8-9.9-8.8C643.3,304.1,639.9,309.1,639.9,315.3L639.9,315.3z M652,334
	h-3.6v4.8h3.6V334L652,334z"/>
<path class="st0" d="M660.6,253.3h-3.9c0-6-2.8-11.6-10.2-11.6c-5.5,0-9.2,3.5-9.2,8.5c0,3,1.2,5.5,4,8.3c5.7,5.7,7.3,6.9,7.3,15
	h-3.9c0-5-0.2-6.9-4-10.5c-4-3.8-7.7-6.9-7.7-13c0-7.1,5.4-11.8,13.3-11.8C656.1,238.2,660.6,245,660.6,253.3L660.6,253.3z
	 M644.4,278.4h4.8v6.4h-4.8V278.4L644.4,278.4z"/>
<path class="st0" d="M502,262.4h3.1c0-4.7,2.2-9.2,8.1-9.2c4.3,0,7.3,2.8,7.3,6.8c0,2.3-1,4.3-3.2,6.6c-4.5,4.5-5.8,5.5-5.8,11.9
	h3.1c0-4,0.2-5.5,3.2-8.3c3.2-3,6.1-5.5,6.1-10.4c0-5.6-4.3-9.4-10.6-9.4C505.6,250.3,502,255.7,502,262.4L502,262.4z M514.9,282.3
	H511v5.1h3.8V282.3L514.9,282.3z"/>
<path class="st0" d="M581.7,263.8h-2.1c0-3.2-1.5-6.3-5.5-6.3c-3,0-5,1.9-5,4.6c0,1.6,0.7,3,2.2,4.5c3.1,3.1,4,3.7,4,8.1h-2.1
	c0-2.7-0.1-3.7-2.2-5.7c-2.2-2.1-4.2-3.7-4.2-7.1c0-3.8,2.9-6.4,7.2-6.4C579.2,255.6,581.7,259.3,581.7,263.8L581.7,263.8z
	 M572.9,277.3h2.6v3.5h-2.6V277.3L572.9,277.3z"/>
<path class="st0" d="M534.7,291.4h3.3c0,5.1,2.3,9.9,8.7,9.9c4.6,0,7.8-2.9,7.8-7.2c0-2.5-1-4.6-3.4-7c-4.8-4.8-6.2-5.8-6.2-12.7
	h3.3c0,4.2,0.2,5.8,3.4,8.9c3.4,3.2,6.5,5.8,6.5,11c0,6-4.6,10-11.3,10C538.6,304.3,534.7,298.5,534.7,291.4L534.7,291.4z
	 M548.5,270.2h-4.1v-5.4h4.1V270.2L548.5,270.2z"/>
<path class="st0" d="M578.1,339.1H575c0,4.7-2.2,9.2-8.1,9.2c-4.3,0-7.3-2.8-7.3-6.8c0-2.3,1-4.3,3.2-6.6c4.5-4.5,5.8-5.5,5.8-11.9
	h-3.1c0,4-0.2,5.5-3.2,8.3c-3.2,3-6.1,5.5-6.1,10.4c0,5.6,4.3,9.4,10.6,9.4C574.5,351.2,578.1,345.7,578.1,339.1L578.1,339.1z
	 M565.2,319.2h3.8v-5.1h-3.8V319.2L565.2,319.2z"/>
<path class="st0" d="M568.6,194.5h7.9c0-12,5.6-23.4,20.6-23.4c11,0,18.5,7,18.5,17.2c0,6-2.5,11-8.2,16.7
	c-11.5,11.5-14.8,13.8-14.8,30.2h7.8c0-10.1,0.4-13.8,8.2-21.1c8.2-7.6,15.5-13.8,15.5-26.3c0-14.2-10.9-23.8-26.9-23.8
	C577.8,164,568.6,177.7,568.6,194.5L568.6,194.5z M601.4,245h-9.7V258h9.7V245L601.4,245z"/>
<path class="st0" d="M346,201.3h2.2c0-3.3,1.5-6.4,5.6-6.4c3,0,5.1,1.9,5.1,4.7c0,1.6-0.7,3-2.2,4.6c-3.2,3.2-4,3.8-4,8.3h2.1
	c0-2.8,0.1-3.8,2.2-5.8c2.2-2.1,4.3-3.8,4.3-7.2c0-3.9-3-6.5-7.4-6.5C348.5,192.9,346,196.7,346,201.3L346,201.3z M354.9,215.1h-2.7
	v3.5h2.7V215.1L354.9,215.1z"/>
<path class="st0" d="M324.5,169.1h2.2c0-3.3,1.5-6.4,5.6-6.4c3,0,5.1,1.9,5.1,4.7c0,1.6-0.7,3-2.2,4.6c-3.2,3.2-4,3.8-4,8.3h2.1
	c0-2.8,0.1-3.8,2.2-5.8c2.2-2.1,4.3-3.8,4.3-7.2c0-3.9-3-6.5-7.4-6.5C327,160.7,324.5,164.5,324.5,169.1L324.5,169.1z M333.5,182.9
	h-2.7v3.5h2.7V182.9L333.5,182.9z"/>
<path class="st0" d="M342.3,140.7h4.9c0-7.4,3.4-14.4,12.7-14.4c6.8,0,11.4,4.3,11.4,10.6c0,3.7-1.5,6.8-5,10.3
	c-7.1,7.1-9.1,8.5-9.1,18.6h4.8c0-6.2,0.2-8.5,5-13c5-4.7,9.6-8.5,9.6-16.2c0-8.8-6.7-14.7-16.6-14.7
	C347.9,121.9,342.3,130.4,342.3,140.7L342.3,140.7z M362.4,171.8h-6v8h6V171.8L362.4,171.8z"/>
<path class="st0" d="M390,139.5h2.5c0-3.8,1.8-7.4,6.5-7.4c3.5,0,5.8,2.2,5.8,5.4c0,1.9-0.8,3.5-2.6,5.3c-3.6,3.6-4.7,4.4-4.7,9.5
	h2.5c0-3.2,0.1-4.4,2.6-6.7c2.6-2.4,4.9-4.4,4.9-8.3c0-4.5-3.4-7.5-8.5-7.5C392.9,129.8,390,134.2,390,139.5L390,139.5z
	 M400.3,155.4h-3.1v4.1h3.1V155.4L400.3,155.4z"/>
<path class="st0" d="M455.3,172h6.6c0-10.1,4.6-19.6,17.2-19.6c9.2,0,15.5,5.8,15.5,14.4c0,5-2.1,9.2-6.8,13.9
	c-9.6,9.6-12.3,11.6-12.3,25.2h6.5c0-8.4,0.3-11.6,6.8-17.6c6.8-6.4,13-11.6,13-21.9c0-11.9-9.1-19.9-22.5-19.9
	C463,146.5,455.3,158,455.3,172L455.3,172z M482.6,214.2h-8.1V225h8.1V214.2L482.6,214.2z"/>
<path class="st0" d="M458.2,197.5h-2.8c0,4.3-2,8.4-7.4,8.4c-3.9,0-6.6-2.5-6.6-6.2c0-2.1,0.9-3.9,2.9-6c4.1-4.1,5.3-5,5.3-10.8
	h-2.8c0,3.6-0.1,5-2.9,7.6c-2.9,2.7-5.6,5-5.6,9.4c0,5.1,3.9,8.5,9.6,8.5C454.9,208.5,458.2,203.6,458.2,197.5L458.2,197.5z
	 M446.5,179.5h3.5v-4.6h-3.5V179.5L446.5,179.5z"/>
<path class="st0" d="M570.2,216.6h-3.9c0-6-2.8-11.6-10.2-11.6c-5.5,0-9.2,3.5-9.2,8.5c0,3,1.2,5.5,4,8.3c5.7,5.7,7.3,6.9,7.3,15
	h-3.9c0-5-0.2-6.9-4-10.5c-4-3.8-7.7-6.9-7.7-13c0-7.1,5.4-11.8,13.3-11.8C565.6,201.5,570.2,208.3,570.2,216.6L570.2,216.6z
	 M553.9,241.6h4.8v6.4h-4.8V241.6L553.9,241.6z"/>
<path class="st0" d="M498.5,223h3.9c0,6,2.8,11.6,10.2,11.6c5.5,0,9.2-3.5,9.2-8.5c0-3-1.2-5.5-4-8.3c-5.7-5.7-7.3-6.9-7.3-15h3.9
	c0,5,0.2,6.9,4,10.5c4,3.8,7.7,6.9,7.7,13c0,7.1-5.4,11.8-13.3,11.8C503.1,238.2,498.5,231.4,498.5,223L498.5,223z M514.8,198h-4.8
	v-6.4h4.8V198L514.8,198z"/>
<path class="st0" d="M523.8,173.9h3c0-4.6,2.1-8.9,7.8-8.9c4.2,0,7,2.7,7,6.5c0,2.3-0.9,4.2-3.1,6.3c-4.4,4.4-5.6,5.3-5.6,11.4h2.9
	c0-3.8,0.1-5.3,3.1-8c3.1-2.9,5.9-5.3,5.9-10c0-5.4-4.1-9-10.2-9C527.3,162.3,523.8,167.5,523.8,173.9L523.8,173.9z M536.2,193.1
	h-3.7v4.9h3.7V193.1L536.2,193.1z"/>
<path class="st0" d="M567.5,140.4h-2.2c0-3.3-1.5-6.4-5.6-6.4c-3,0-5.1,1.9-5.1,4.7c0,1.6,0.7,3,2.2,4.6c3.2,3.2,4,3.8,4,8.3h-2.1
	c0-2.8-0.1-3.8-2.2-5.8c-2.2-2.1-4.3-3.8-4.3-7.2c0-3.9,3-6.5,7.4-6.5C565,132,567.5,135.8,567.5,140.4L567.5,140.4z M558.5,154.2
	h2.7v3.5h-2.7V154.2L558.5,154.2z"/>
<path class="st0" d="M587,125.7h2.2c0-3.3,1.5-6.4,5.6-6.4c3,0,5.1,1.9,5.1,4.7c0,1.6-0.7,3-2.2,4.6c-3.2,3.2-4,3.8-4,8.3h2.1
	c0-2.8,0.1-3.8,2.2-5.8c2.2-2.1,4.3-3.8,4.3-7.2c0-3.9-3-6.5-7.4-6.5C589.5,117.3,587,121.1,587,125.7L587,125.7z M596,139.5h-2.7
	v3.5h2.7V139.5L596,139.5z"/>
<path class="st0" d="M536.2,113.6h-3.9c0-6-2.8-11.6-10.2-11.6c-5.5,0-9.2,3.5-9.2,8.5c0,3,1.2,5.5,4,8.3c5.7,5.7,7.3,6.9,7.3,15
	h-3.9c0-5-0.2-6.9-4-10.5c-4-3.8-7.7-6.9-7.7-13c0-7.1,5.4-11.8,13.3-11.8C531.6,98.4,536.2,105.2,536.2,113.6L536.2,113.6z
	 M520,138.6h4.8v6.4H520V138.6L520,138.6z"/>
<path class="st0" d="M648.4,118.2h4.5c0-6.8,3.2-13.3,11.7-13.3c6.2,0,10.5,4,10.5,9.8c0,3.4-1.4,6.2-4.6,9.5
	c-6.5,6.5-8.4,7.9-8.4,17.1h4.4c0-5.7,0.2-7.8,4.6-12c4.6-4.3,8.8-7.9,8.8-14.9c0-8.1-6.2-13.5-15.3-13.5
	C653.6,100.9,648.4,108.7,648.4,118.2L648.4,118.2z M666.9,146.9h-5.5v7.3h5.5V146.9L666.9,146.9z"/>
<path class="st0" d="M638.7,137.4h-2.2c0-3.3-1.5-6.4-5.6-6.4c-3,0-5.1,1.9-5.1,4.7c0,1.6,0.7,3,2.2,4.6c3.2,3.2,4,3.8,4,8.3H630
	c0-2.8-0.1-3.8-2.2-5.8c-2.2-2.1-4.3-3.8-4.3-7.2c0-3.9,3-6.5,7.4-6.5C636.2,129,638.7,132.7,638.7,137.4L638.7,137.4z M629.7,151.2
	h2.7v3.5h-2.7V151.2L629.7,151.2z"/>
<path class="st0" d="M643,183.9h4.2c0-6.4,2.9-12.4,10.9-12.4c5.8,0,9.8,3.7,9.8,9.1c0,3.1-1.3,5.8-4.3,8.8
	c-6.1,6.1-7.8,7.3-7.8,15.9h4.1c0-5.3,0.2-7.3,4.3-11.1c4.3-4,8.2-7.3,8.2-13.9c0-7.5-5.7-12.6-14.2-12.6
	C647.9,167.7,643,175,643,183.9L643,183.9z M660.3,210.5h-5.1v6.8h5.1V210.5L660.3,210.5z"/>
<path class="st0" d="M682.3,284.4h7.9c0-12,5.6-23.4,20.6-23.4c11,0,18.5,7,18.5,17.2c0,6-2.5,11-8.2,16.7
	c-11.5,11.5-14.8,13.8-14.8,30.2h7.8c0-10.1,0.4-13.8,8.2-21.1c8.2-7.6,15.5-13.8,15.5-26.3c0-14.2-10.9-23.8-26.9-23.8
	C691.5,253.9,682.3,267.6,682.3,284.4L682.3,284.4z M715.1,334.9h-9.7v12.9h9.7V334.9L715.1,334.9z"/>
<path class="st0" d="M683.8,155.8h6.6c0-10.1,4.6-19.6,17.2-19.6c9.2,0,15.5,5.8,15.5,14.4c0,5-2.1,9.2-6.8,13.9
	c-9.6,9.6-12.3,11.6-12.3,25.2h6.5c0-8.4,0.3-11.6,6.8-17.6c6.8-6.4,13-11.6,13-21.9c0-11.9-9.1-19.9-22.5-19.9
	C691.4,130.3,683.8,141.7,683.8,155.8L683.8,155.8z M711.1,197.9H703v10.8h8.1V197.9L711.1,197.9z"/>
<path class="st0" d="M637.5,80.5h-3.9c0-6-2.8-11.6-10.2-11.6c-5.5,0-9.2,3.5-9.2,8.5c0,3,1.2,5.5,4,8.3c5.7,5.7,7.3,6.9,7.3,15
	h-3.9c0-5-0.2-6.9-4-10.5c-4-3.8-7.7-6.9-7.7-13c0-7.1,5.4-11.8,13.3-11.8C632.9,65.4,637.5,72.2,637.5,80.5L637.5,80.5z
	 M621.2,105.6h4.8v6.4h-4.8V105.6L621.2,105.6z"/>
<path class="st0" d="M551.4,94.5h2.2c0-3.3,1.5-6.4,5.6-6.4c3,0,5.1,1.9,5.1,4.7c0,1.6-0.7,3-2.2,4.6c-3.2,3.2-4,3.8-4,8.3h2.1
	c0-2.8,0.1-3.8,2.2-5.8c2.2-2.1,4.3-3.8,4.3-7.2c0-3.9-3-6.5-7.4-6.5C553.9,86.1,551.4,89.9,551.4,94.5L551.4,94.5z M560.4,108.3
	h-2.7v3.5h2.7V108.3L560.4,108.3z"/>
<path class="st0" d="M368.2,78.1h5c0-7.6,3.5-14.9,13.1-14.9c7,0,11.7,4.4,11.7,10.9c0,3.8-1.6,7-5.2,10.6
	c-7.3,7.3-9.4,8.8-9.4,19.1h4.9c0-6.4,0.2-8.8,5.2-13.4c5.2-4.8,9.9-8.8,9.9-16.7c0-9-6.9-15.1-17.1-15.1
	C374.1,58.7,368.2,67.4,368.2,78.1L368.2,78.1z M389,110.1h-6.2v8.2h6.2V110.1L389,110.1z"/>
<path class="st0" d="M415.8,118.2h3.9c0-6,2.8-11.6,10.2-11.6c5.5,0,9.2,3.5,9.2,8.5c0,3-1.2,5.5-4,8.3c-5.7,5.7-7.3,6.9-7.3,15h3.9
	c0-5,0.2-6.9,4-10.5c4-3.8,7.7-6.9,7.7-13c0-7.1-5.4-11.8-13.3-11.8C420.3,103,415.8,109.8,415.8,118.2L415.8,118.2z M432,143.2
	h-4.8v6.4h4.8V143.2L432,143.2z"/>
<path class="st0" d="M484.6,583.5h3.9c0,6,2.8,11.6,10.2,11.6c5.5,0,9.2-3.5,9.2-8.5c0-3-1.2-5.5-4-8.3c-5.7-5.7-7.3-6.9-7.3-15h3.9
	c0,5,0.2,6.9,4,10.5c4,3.8,7.7,6.9,7.7,13c0,7.1-5.4,11.8-13.3,11.8C489.2,598.6,484.6,591.8,484.6,583.5L484.6,583.5z M500.9,558.5
	h-4.8V552h4.8V558.5L500.9,558.5z"/>
<path class="st0" d="M397.2,606.1h4.9c0,7.4,3.4,14.4,12.7,14.4c6.8,0,11.4-4.3,11.4-10.6c0-3.7-1.5-6.8-5-10.3
	c-7.1-7.1-9.1-8.5-9.1-18.6h4.8c0,6.2,0.2,8.5,5,13c5,4.7,9.6,8.5,9.6,16.2c0,8.8-6.7,14.7-16.6,14.7
	C402.9,624.9,397.2,616.4,397.2,606.1L397.2,606.1z M417.3,575h-6v-8h6V575L417.3,575z"/>
<path class="st0" d="M483.2,15.1h-3.9c0-6-2.8-11.6-10.2-11.6c-5.5,0-9.2,3.5-9.2,8.5c0,3,1.2,5.5,4,8.3c5.7,5.7,7.3,6.9,7.3,15
	h-3.9c0-5-0.2-6.9-4-10.5c-4-3.8-7.7-6.9-7.7-13C455.7,4.7,461,0,469,0C478.6,0,483.2,6.8,483.2,15.1L483.2,15.1z M466.9,40.2h4.8
	v6.4h-4.8V40.2L466.9,40.2z"/>
<path class="st0" d="M745.4,259.5c0,1.9-1.5,3.5-3.5,3.5c-1.9,0-3.5-1.5-3.5-3.5c0-1.9,1.6-3.5,3.5-3.5
	C743.8,256,745.4,257.6,745.4,259.5L745.4,259.5z"/>
<path class="st0" d="M723.6,199.1h4.9c0-7.4,3.4-14.4,12.7-14.4c6.8,0,11.4,4.3,11.4,10.6c0,3.7-1.5,6.8-5,10.3
	c-7.1,7.1-9.1,8.5-9.1,18.6h4.8c0-6.2,0.2-8.5,5-13c5-4.7,9.6-8.5,9.6-16.2c0-8.8-6.7-14.7-16.6-14.7
	C729.2,180.3,723.6,188.7,723.6,199.1L723.6,199.1z M743.7,230.1h-6v8h6V230.1L743.7,230.1z"/>
<path class="st0" d="M688.7,194.8c0,1.6-1.3,3-3,3c-1.6,0-3-1.3-3-3c0-1.6,1.3-3,3-3C687.3,191.8,688.7,193.1,688.7,194.8
	L688.7,194.8z"/>
<path class="st0" d="M680,224.1c0,1.8-1.5,3.3-3.3,3.3c-1.8,0-3.3-1.5-3.3-3.3c0-1.8,1.5-3.3,3.3-3.3
	C678.5,220.8,680,222.2,680,224.1L680,224.1z"/>
<path class="st0" d="M712.7,233.7c0,3.4-2.7,6.1-6.1,6.1c-3.4,0-6.1-2.7-6.1-6.1c0-3.4,2.7-6.1,6.1-6.1
	C710,227.6,712.7,230.4,712.7,233.7L712.7,233.7z"/>
</svg>
