<?xml version="1.0" encoding="utf-8"?>
<!-- Generator: Adobe Illustrator 22.1.0, SVG Export Plug-In . SVG Version: 6.00 Build 0)  -->
<svg version="1.1" id="Layer_1" xmlns="http://www.w3.org/2000/svg" xmlns:xlink="http://www.w3.org/1999/xlink" x="0px" y="0px"
	 viewBox="0 0 737.9 566.2" style="enable-background:new 0 0 737.9 566.2;" xml:space="preserve">
<style type="text/css">
	.st0{fill:#f3f9f3;}
	.st1{fill:#f3f9f3;stroke:#E4F1FB;stroke-width:2.0001;stroke-miterlimit:10;}
	.st2{fill:#f3f9f3;stroke:#f3f9f3;stroke-width:1.0001;stroke-miterlimit:10;}
	.st3{fill:#f3f9f3;}
</style>
<g>
	<path class="st0" d="M124,513.4c0,2-1.7,3.7-3.7,3.7c-2,0-3.7-1.7-3.7-3.7c0-2,1.7-3.7,3.7-3.7C122.3,509.7,124,511.4,124,513.4
		L124,513.4z"/>
	<path class="st0" d="M108.7,448.5c0,2.2-1.8,4-4,4c-2.2,0-4-1.8-4-4c0-2.2,1.8-4,4-4C106.9,444.5,108.7,446.3,108.7,448.5
		L108.7,448.5z"/>
	<path class="st0" d="M6.4,503.6c0,1.8-1.4,3.2-3.2,3.2c-1.8,0-3.2-1.4-3.2-3.2c0-1.8,1.4-3.2,3.2-3.2C5,500.3,6.4,501.8,6.4,503.6
		L6.4,503.6z"/>
	<path class="st0" d="M215.4,454.9c0,1.9-1.5,3.5-3.5,3.5c-1.9,0-3.5-1.5-3.5-3.5c0-1.9,1.5-3.5,3.5-3.5
		C213.8,451.4,215.4,453,215.4,454.9L215.4,454.9z"/>
	<path class="st0" d="M218.3,394.1c0,1.6-1.3,3-3,3c-1.6,0-3-1.3-3-3c0-1.6,1.3-3,3-3C217,391.2,218.3,392.5,218.3,394.1
		L218.3,394.1z"/>
	<path class="st0" d="M311.6,497.6c0,2.2-1.8,3.9-3.9,3.9c-2.2,0-3.9-1.8-3.9-3.9c0-2.2,1.8-3.9,3.9-3.9
		C309.9,493.7,311.6,495.5,311.6,497.6L311.6,497.6z"/>
	<path class="st1" d="M276,514.1c0,2.2-1.8,3.9-3.9,3.9c-2.2,0-3.9-1.8-3.9-3.9c0-2.2,1.8-3.9,3.9-3.9
		C274.2,510.1,276,511.9,276,514.1L276,514.1z"/>
	<path class="st0" d="M288.5,525.5c0,1.6-1.3,3-3,3c-1.6,0-3-1.3-3-3c0-1.6,1.3-3,3-3C287.2,522.6,288.5,523.9,288.5,525.5
		L288.5,525.5z"/>
	<path class="st0" d="M198.6,507.8c0,2-1.6,3.6-3.6,3.6c-2,0-3.6-1.6-3.6-3.6c0-2,1.6-3.6,3.6-3.6
		C196.9,504.2,198.6,505.8,198.6,507.8L198.6,507.8z"/>
	<path class="st0" d="M210.4,415.6c0,1.8-1.5,3.3-3.3,3.3c-1.8,0-3.3-1.5-3.3-3.3c0-1.8,1.5-3.3,3.3-3.3
		C208.9,412.3,210.4,413.8,210.4,415.6L210.4,415.6z"/>
	<path class="st0" d="M131.7,483.5c0,3.6-3,6.6-6.6,6.6c-3.6,0-6.6-3-6.6-6.6c0-3.6,3-6.6,6.6-6.6
		C128.7,476.9,131.7,479.9,131.7,483.5L131.7,483.5z"/>
	<path class="st0" d="M158,511.3c0,1.8-1.5,3.3-3.3,3.3s-3.3-1.5-3.3-3.3c0-1.8,1.5-3.3,3.3-3.3S158,509.5,158,511.3L158,511.3z"/>
	<path class="st0" d="M52.7,515.6c0,3.3-2.6,5.9-5.9,5.9c-3.3,0-5.9-2.6-5.9-5.9c0-3.3,2.6-5.9,5.9-5.9
		C50,509.7,52.7,512.3,52.7,515.6L52.7,515.6z"/>
	<path class="st0" d="M196.3,474.3c0,2.7-2.2,4.9-4.9,4.9c-2.7,0-4.9-2.2-4.9-4.9c0-2.7,2.2-4.9,4.9-4.9
		C194.1,469.4,196.3,471.6,196.3,474.3L196.3,474.3z"/>
	<path class="st0" d="M245.5,408.4c0,3.4-2.7,6.1-6.1,6.1c-3.4,0-6.1-2.7-6.1-6.1c0-3.4,2.7-6.1,6.1-6.1
		C242.8,402.3,245.5,405,245.5,408.4L245.5,408.4z"/>
	<path class="st2" d="M336.7,490.2c0,1.8-1.5,3.3-3.3,3.3c-1.8,0-3.2-1.5-3.2-3.3c0-1.8,1.5-3.3,3.2-3.3
		C335.2,486.9,336.7,488.4,336.7,490.2L336.7,490.2z"/>
	<path class="st0" d="M334.2,522.3c0,2.7-2.2,4.9-4.9,4.9c-2.7,0-4.9-2.2-4.9-4.9c0-2.7,2.2-4.9,4.9-4.9
		C332,517.4,334.2,519.6,334.2,522.3L334.2,522.3z"/>
	<path class="st0" d="M285.4,502.6c0,1.6-1.3,2.9-2.9,2.9c-1.6,0-2.9-1.3-2.9-2.9c0-1.6,1.3-2.9,2.9-2.9
		C284.1,499.8,285.4,501,285.4,502.6L285.4,502.6z"/>
	<path class="st0" d="M269.4,484.5c0,2.5-2.1,4.6-4.6,4.6c-2.5,0-4.6-2.1-4.6-4.6c0-2.5,2.1-4.6,4.6-4.6
		C267.4,479.9,269.4,482,269.4,484.5L269.4,484.5z"/>
	<path class="st0" d="M300.8,339.8c0,2.8-2.3,5.1-5.1,5.1c-2.8,0-5.1-2.3-5.1-5.1c0-2.8,2.3-5.1,5.1-5.1
		C298.6,334.7,300.8,337,300.8,339.8L300.8,339.8z"/>
	<path class="st0" d="M324,389.7c0,1.6-1.3,2.8-2.8,2.8c-1.6,0-2.8-1.3-2.8-2.8c0-1.6,1.3-2.8,2.8-2.8
		C322.8,386.8,324,388.1,324,389.7L324,389.7z"/>
	<path class="st0" d="M313.1,433.4c0,1-0.8,1.8-1.8,1.8c-1,0-1.8-0.8-1.8-1.8c0-1,0.8-1.8,1.8-1.8
		C312.2,431.6,313.1,432.4,313.1,433.4L313.1,433.4z"/>
	<path class="st2" d="M372.5,292.3c0,1.1-0.9,2.1-2,2.1c-1.1,0-2-0.9-2-2.1c0-1.1,0.9-2.1,2-2.1
		C371.6,290.3,372.5,291.2,372.5,292.3L372.5,292.3z"/>
	<path class="st0" d="M417.6,213.7c0,2.1-1.7,3.9-3.9,3.9c-2.1,0-3.9-1.7-3.9-3.9c0-2.1,1.7-3.9,3.9-3.9
		C415.9,209.8,417.6,211.6,417.6,213.7L417.6,213.7z"/>
	<path class="st0" d="M432.7,123.2c0,1.8-1.5,3.3-3.3,3.3c-1.8,0-3.2-1.5-3.2-3.3c0-1.8,1.5-3.3,3.2-3.3
		C431.2,119.9,432.7,121.4,432.7,123.2L432.7,123.2z"/>
	<path class="st0" d="M457.9,170.2c0,1.7-1.4,3.1-3,3.1c-1.7,0-3.1-1.4-3.1-3.1c0-1.7,1.4-3.1,3.1-3.1
		C456.5,167.1,457.9,168.5,457.9,170.2L457.9,170.2z"/>
	<path class="st0" d="M549.4,94.3c0,2.2-1.8,4.1-4.1,4.1c-2.2,0-4.1-1.8-4.1-4.1c0-2.2,1.8-4.1,4.1-4.1
		C547.6,90.2,549.4,92,549.4,94.3L549.4,94.3z"/>
	<path class="st2" d="M617.4,93.9c0,2-1.6,3.7-3.7,3.7c-2,0-3.7-1.6-3.7-3.7c0-2,1.6-3.7,3.7-3.7C615.8,90.2,617.4,91.8,617.4,93.9
		L617.4,93.9z"/>
	<path class="st0" d="M577.9,175.2c0,2.2-1.8,4.1-4.1,4.1c-2.2,0-4.1-1.8-4.1-4.1s1.8-4.1,4.1-4.1
		C576.1,171.2,577.9,173,577.9,175.2L577.9,175.2z"/>
	<path class="st2" d="M643,164.5c0,2.4-1.9,4.3-4.3,4.3s-4.3-1.9-4.3-4.3c0-2.4,1.9-4.3,4.3-4.3S643,162.1,643,164.5L643,164.5z"/>
	<path class="st0" d="M602.7,212.1c0,2.1-1.7,3.9-3.9,3.9c-2.1,0-3.9-1.7-3.9-3.9c0-2.1,1.7-3.9,3.9-3.9
		C601,208.2,602.7,209.9,602.7,212.1L602.7,212.1z"/>
	<path class="st2" d="M575.1,302.2c0,2-1.6,3.7-3.7,3.7c-2,0-3.7-1.6-3.7-3.7c0-2,1.6-3.7,3.7-3.7
		C573.4,298.5,575.1,300.2,575.1,302.2L575.1,302.2z"/>
	<path class="st0" d="M584.7,319.1c0,2-1.6,3.7-3.7,3.7c-2,0-3.7-1.6-3.7-3.7c0-2,1.6-3.7,3.7-3.7
		C583,315.4,584.7,317.1,584.7,319.1L584.7,319.1z"/>
	<path class="st2" d="M540.7,357.1c0,1.4-1.2,2.6-2.6,2.6c-1.4,0-2.6-1.2-2.6-2.6c0-1.4,1.2-2.6,2.6-2.6
		C539.5,354.5,540.7,355.7,540.7,357.1L540.7,357.1z"/>
	<path class="st0" d="M644.2,237.9c0,2.2-1.8,4.1-4.1,4.1s-4.1-1.8-4.1-4.1c0-2.2,1.8-4.1,4.1-4.1S644.2,235.7,644.2,237.9
		L644.2,237.9z"/>
	<path class="st0" d="M683.7,237.9c0,3.6-2.9,6.5-6.5,6.5c-3.6,0-6.5-2.9-6.5-6.5c0-3.6,2.9-6.5,6.5-6.5
		C680.8,231.4,683.7,234.3,683.7,237.9L683.7,237.9z"/>
	<path class="st0" d="M684.1,192.7c0,3.1-2.6,5.7-5.7,5.7c-3.1,0-5.7-2.6-5.7-5.7c0-3.1,2.6-5.7,5.7-5.7
		C681.6,187,684.1,189.6,684.1,192.7L684.1,192.7z"/>
	<path class="st0" d="M652,98.6c0,1.7-1.4,3.1-3.1,3.1c-1.7,0-3.1-1.4-3.1-3.1c0-1.7,1.4-3.1,3.1-3.1C650.6,95.5,652,96.9,652,98.6
		L652,98.6z"/>
	<path class="st0" d="M555.1,130.3c0,1.5-1.2,2.6-2.7,2.6c-1.5,0-2.6-1.2-2.6-2.6c0-1.5,1.2-2.6,2.6-2.6
		C554,127.6,555.1,128.8,555.1,130.3L555.1,130.3z"/>
	<path class="st0" d="M487.6,176.3c0,2.1-1.7,3.9-3.9,3.9c-2.1,0-3.9-1.7-3.9-3.9c0-2.1,1.7-3.9,3.9-3.9
		C485.9,172.4,487.6,174.1,487.6,176.3L487.6,176.3z"/>
	<path class="st0" d="M519.7,243.4c0,1.9-1.6,3.5-3.5,3.5c-1.9,0-3.5-1.5-3.5-3.5c0-1.9,1.5-3.5,3.5-3.5
		C518.2,239.9,519.7,241.5,519.7,243.4L519.7,243.4z"/>
	<path class="st0" d="M536.8,299.3c0,1.8-1.5,3.3-3.3,3.3c-1.8,0-3.3-1.5-3.3-3.3s1.5-3.3,3.3-3.3
		C535.4,296.1,536.8,297.5,536.8,299.3L536.8,299.3z"/>
	<path class="st2" d="M488.5,428.1c0,1.7-1.4,3.1-3,3.1c-1.7,0-3.1-1.4-3.1-3.1c0-1.7,1.4-3.1,3.1-3.1
		C487.1,425,488.5,426.4,488.5,428.1L488.5,428.1z"/>
	<path class="st2" d="M439.5,421.3c0,1.9-1.5,3.4-3.4,3.4c-1.9,0-3.4-1.5-3.4-3.4c0-1.9,1.5-3.4,3.4-3.4
		C438,418,439.5,419.5,439.5,421.3L439.5,421.3z"/>
	<path class="st0" d="M393.6,457.2c0,2.2-1.8,4.1-4.1,4.1c-2.3,0-4.1-1.8-4.1-4.1c0-2.2,1.8-4.1,4.1-4.1
		C391.8,453.1,393.6,455,393.6,457.2L393.6,457.2z"/>
	<path class="st0" d="M593,511.9c0,3.3-2.6,5.9-5.9,5.9c-3.3,0-5.9-2.6-5.9-5.9c0-3.3,2.6-5.9,5.9-5.9
		C590.3,506,593,508.7,593,511.9L593,511.9z"/>
	<path class="st0" d="M570.2,496.9c0,1.9-1.5,3.5-3.5,3.5c-1.9,0-3.5-1.5-3.5-3.5c0-1.9,1.6-3.5,3.5-3.5
		C568.6,493.4,570.2,495,570.2,496.9L570.2,496.9z"/>
	<path class="st2" d="M601.1,419.4c0,1.6-1.3,2.8-2.8,2.8c-1.6,0-2.8-1.3-2.8-2.8s1.3-2.8,2.8-2.8
		C599.8,416.5,601.1,417.8,601.1,419.4L601.1,419.4z"/>
	<path class="st2" d="M672.3,350c0,1.7-1.4,3.1-3.1,3.1c-1.7,0-3.1-1.4-3.1-3.1c0-1.7,1.4-3.1,3.1-3.1
		C671,346.9,672.3,348.3,672.3,350L672.3,350z"/>
	<path class="st0" d="M625.9,394.3c0,1.2-1,2.2-2.2,2.2c-1.2,0-2.2-1-2.2-2.2s1-2.2,2.2-2.2C624.9,392.1,625.9,393.1,625.9,394.3
		L625.9,394.3z"/>
	<path class="st0" d="M576.3,407c0,2.6-2.1,4.7-4.7,4.7c-2.6,0-4.7-2.1-4.7-4.7c0-2.6,2.1-4.7,4.7-4.7
		C574.2,402.3,576.3,404.4,576.3,407L576.3,407z"/>
	<path class="st0" d="M535.2,421.4c0,1.3-1.1,2.4-2.4,2.4c-1.3,0-2.4-1.1-2.4-2.4c0-1.3,1.1-2.4,2.4-2.4
		C534.1,419,535.2,420.1,535.2,421.4L535.2,421.4z"/>
	<path class="st0" d="M539.3,453.9c0,2.7-2.2,4.9-4.9,4.9c-2.7,0-4.9-2.2-4.9-4.9c0-2.7,2.2-4.9,4.9-4.9
		C537.1,449.1,539.3,451.3,539.3,453.9L539.3,453.9z"/>
	<path class="st0" d="M460.1,355.7c0,1.8-1.5,3.3-3.3,3.3c-1.8,0-3.3-1.5-3.3-3.3c0-1.8,1.5-3.3,3.3-3.3
		C458.6,352.4,460.1,353.9,460.1,355.7L460.1,355.7z"/>
	<path class="st0" d="M423.1,347.4c0,2.2-1.8,4-4,4c-2.2,0-4-1.8-4-4c0-2.2,1.8-4,4-4C421.3,343.4,423.1,345.2,423.1,347.4
		L423.1,347.4z"/>
	<path class="st0" d="M61,487.4h3.1c0-4.7,2.2-9.2,8.1-9.2c4.3,0,7.3,2.8,7.3,6.8c0,2.3-1,4.3-3.2,6.6c-4.5,4.5-5.8,5.5-5.8,11.9
		h3.1c0-4,0.2-5.5,3.2-8.3c3.2-3,6.1-5.5,6.1-10.4c0-5.6-4.3-9.4-10.6-9.4C64.7,475.3,61,480.7,61,487.4L61,487.4z M74,507.3h-3.8
		v5.1H74V507.3L74,507.3z"/>
	<path class="st0" d="M135.9,442.9h5.5c0-8.4,3.9-16.3,14.3-16.3c7.7,0,12.9,4.9,12.9,12c0,4.1-1.7,7.7-5.7,11.6
		c-8,8-10.3,9.6-10.3,21h5.4c0-7,0.3-9.6,5.7-14.7c5.7-5.3,10.8-9.6,10.8-18.3c0-9.9-7.6-16.6-18.7-16.6
		C142.3,421.7,135.9,431.2,135.9,442.9L135.9,442.9z M158.7,478h-6.8v9h6.8V478L158.7,478z"/>
	<path class="st0" d="M215.5,493.4h3.1c0-4.7,2.2-9.2,8.1-9.2c4.3,0,7.3,2.8,7.3,6.8c0,2.3-1,4.3-3.2,6.6c-4.5,4.5-5.8,5.5-5.8,11.9
		h3.1c0-4,0.2-5.5,3.2-8.3c3.2-3,6.1-5.5,6.1-10.4c0-5.6-4.3-9.4-10.6-9.4C219.1,481.4,215.5,486.8,215.5,493.4L215.5,493.4z
		 M228.4,513.4h-3.8v5.1h3.8V513.4L228.4,513.4z"/>
	<path class="st0" d="M318.3,328.8h6.6c0-10.1,4.6-19.6,17.2-19.6c9.2,0,15.5,5.8,15.5,14.4c0,5-2.1,9.2-6.8,13.9
		c-9.6,9.6-12.3,11.6-12.3,25.2h6.5c0-8.4,0.3-11.6,6.8-17.6c6.8-6.4,13-11.6,13-21.9c0-11.9-9.1-19.9-22.5-19.9
		C326,303.3,318.3,314.8,318.3,328.8L318.3,328.8z M345.6,371h-8.1v10.8h8.1V371L345.6,371z"/>
	<path class="st0" d="M285.2,467.2h3.1c0,4.7,2.2,9.2,8.1,9.2c4.3,0,7.3-2.8,7.3-6.8c0-2.3-1-4.3-3.2-6.6c-4.5-4.5-5.8-5.5-5.8-11.9
		h3.1c0,4,0.2,5.5,3.2,8.3c3.2,3,6.1,5.5,6.1,10.4c0,5.6-4.3,9.4-10.6,9.4C288.8,479.3,285.2,473.8,285.2,467.2L285.2,467.2z
		 M298.1,447.3h-3.8v-5.1h3.8V447.3L298.1,447.3z"/>
	<path class="st0" d="M271.7,443.6h-3.9c0,6-2.8,11.6-10.2,11.6c-5.5,0-9.2-3.5-9.2-8.5c0-3,1.2-5.5,4-8.3c5.7-5.7,7.3-6.9,7.3-15
		h-3.9c0,5-0.2,6.9-4,10.5c-4,3.8-7.7,6.9-7.7,13c0,7.1,5.4,11.8,13.3,11.8C267.1,458.7,271.7,451.9,271.7,443.6L271.7,443.6z
		 M255.5,418.5h4.8v-6.4h-4.8V418.5L255.5,418.5z"/>
	<path class="st0" d="M277.6,405.8h4.9c0,7.4,3.4,14.4,12.7,14.4c6.8,0,11.4-4.3,11.4-10.6c0-3.7-1.5-6.8-5-10.3
		c-7.1-7.1-9.1-8.5-9.1-18.6h4.8c0,6.2,0.2,8.5,5,13c5,4.7,9.6,8.5,9.6,16.2c0,8.8-6.7,14.7-16.6,14.7
		C283.3,424.6,277.6,416.1,277.6,405.8L277.6,405.8z M297.8,374.7h-6v-8h6V374.7L297.8,374.7z"/>
	<path class="st0" d="M243.4,349.9h3.9c0-6,2.8-11.6,10.2-11.6c5.5,0,9.2,3.5,9.2,8.5c0,3-1.2,5.5-4,8.3c-5.7,5.7-7.3,6.9-7.3,15
		h3.9c0-5,0.2-6.9,4-10.5c4-3.8,7.7-6.9,7.7-13c0-7.1-5.4-11.8-13.3-11.8C247.9,334.8,243.4,341.6,243.4,349.9L243.4,349.9z
		 M259.6,374.9h-4.8v6.4h4.8V374.9L259.6,374.9z"/>
	<path class="st0" d="M284.9,307.8h3.1c0,4.7,2.2,9.2,8.1,9.2c4.3,0,7.3-2.8,7.3-6.8c0-2.3-1-4.3-3.2-6.6c-4.5-4.5-5.8-5.5-5.8-11.9
		h3.1c0,4,0.2,5.5,3.2,8.3c3.2,3,6.1,5.5,6.1,10.4c0,5.6-4.3,9.4-10.6,9.4C288.6,319.9,284.9,314.5,284.9,307.8L284.9,307.8z
		 M297.9,287.9H294v-5.1h3.8V287.9L297.9,287.9z"/>
	<path class="st0" d="M324.5,452h6c0,9.2,4.2,17.8,15.7,17.8c8.4,0,14.1-5.3,14.1-13.1c0-4.5-1.9-8.4-6.2-12.7
		c-8.8-8.8-11.2-10.5-11.2-23h5.9c0,7.7,0.3,10.5,6.2,16.1c6.2,5.8,11.8,10.5,11.8,20c0,10.8-8.3,18.1-20.5,18.1
		C331.5,475.3,324.5,464.9,324.5,452L324.5,452z M349.4,413.6H342v-9.9h7.4V413.6L349.4,413.6z"/>
	<path class="st0" d="M368.2,420.4h3.1c0-4.7,2.2-9.2,8.1-9.2c4.3,0,7.3,2.8,7.3,6.8c0,2.3-1,4.3-3.2,6.6c-4.5,4.5-5.8,5.5-5.8,11.9
		h3.1c0-4,0.2-5.5,3.2-8.3c3.2-3,6.1-5.5,6.1-10.4c0-5.6-4.3-9.4-10.6-9.4C371.8,408.4,368.2,413.8,368.2,420.4L368.2,420.4z
		 M381.1,440.3h-3.8v5.1h3.8V440.3L381.1,440.3z"/>
	<path class="st0" d="M364.7,491.8h4.1c0-6.2,2.9-12,10.6-12c5.7,0,9.5,3.6,9.5,8.8c0,3.1-1.3,5.7-4.2,8.6
		c-5.9,5.9-7.6,7.1-7.6,15.5h4c0-5.2,0.2-7.1,4.2-10.8c4.2-3.9,8-7.1,8-13.5c0-7.3-5.6-12.2-13.8-12.2
		C369.5,476.1,364.7,483.1,364.7,491.8L364.7,491.8z M381.6,517.7h-5v6.7h5V517.7L381.6,517.7z"/>
	<path class="st0" d="M446.2,496.6h-3.1c0,4.7-2.2,9.2-8.1,9.2c-4.3,0-7.3-2.8-7.3-6.8c0-2.3,1-4.3,3.2-6.6
		c4.5-4.5,5.8-5.5,5.8-11.9h-3.1c0,4-0.2,5.5-3.2,8.3c-3.2,3-6.1,5.5-6.1,10.4c0,5.6,4.3,9.4,10.6,9.4
		C442.6,508.6,446.2,503.2,446.2,496.6L446.2,496.6z M433.3,476.6h3.8v-5.1h-3.8V476.6L433.3,476.6z"/>
	<path class="st0" d="M403.1,447.3h3.1c0,4.7,2.2,9.2,8,9.2c4.3,0,7.2-2.7,7.2-6.7c0-2.3-1-4.3-3.2-6.5c-4.5-4.5-5.8-5.4-5.8-11.8h3
		c0,3.9,0.2,5.4,3.2,8.3c3.2,3,6.1,5.4,6.1,10.3c0,5.6-4.3,9.3-10.5,9.3C406.7,459.3,403.1,453.9,403.1,447.3L403.1,447.3z
		 M415.9,427.6h-3.8v-5.1h3.8V427.6L415.9,427.6z"/>
	<path class="st0" d="M441.2,467.4h6.6c0-10.1,4.6-19.6,17.2-19.6c9.2,0,15.5,5.8,15.5,14.4c0,5-2.1,9.2-6.8,13.9
		c-9.6,9.6-12.3,11.6-12.3,25.2h6.5c0-8.4,0.3-11.6,6.8-17.6c6.8-6.4,13-11.6,13-21.9c0-11.9-9.1-19.9-22.5-19.9
		C448.9,441.9,441.2,453.4,441.2,467.4L441.2,467.4z M468.5,509.6h-8.1v10.8h8.1V509.6L468.5,509.6z"/>
	<path class="st0" d="M510.6,472.1h3.1c0-4.7,2.2-9.2,8.1-9.2c4.3,0,7.3,2.8,7.3,6.8c0,2.3-1,4.3-3.2,6.6c-4.5,4.5-5.8,5.5-5.8,11.9
		h3.1c0-4,0.2-5.5,3.2-8.3c3.2-3,6.1-5.5,6.1-10.4c0-5.6-4.3-9.4-10.6-9.4C514.2,460.1,510.6,465.5,510.6,472.1L510.6,472.1z
		 M523.5,492h-3.8v5.1h3.8V492L523.5,492z"/>
	<path class="st0" d="M525.4,411.3h-3.9c0-6-2.8-11.6-10.2-11.6c-5.5,0-9.2,3.5-9.2,8.5c0,3,1.2,5.5,4,8.3c5.7,5.7,7.3,6.9,7.3,15
		h-3.9c0-5-0.2-6.9-4-10.5c-4-3.8-7.7-6.9-7.7-13c0-7.1,5.4-11.8,13.3-11.8C520.8,396.1,525.4,402.9,525.4,411.3L525.4,411.3z
		 M509.1,436.3h4.8v6.4h-4.8V436.3L509.1,436.3z"/>
	<path class="st0" d="M446,389.3h4.9c0-7.4,3.4-14.4,12.7-14.4c6.8,0,11.4,4.3,11.4,10.6c0,3.7-1.5,6.8-5,10.3
		c-7.1,7.1-9.1,8.5-9.1,18.6h4.8c0-6.2,0.2-8.5,5-13c5-4.7,9.6-8.5,9.6-16.2c0-8.8-6.7-14.7-16.6-14.7
		C451.7,370.6,446,379,446,389.3L446,389.3z M466.2,420.4h-6v8h6V420.4L466.2,420.4z"/>
	<path class="st0" d="M367,384.8h3.8c0,5.8,2.7,11.2,9.9,11.2c5.3,0,8.9-3.3,8.9-8.2c0-2.9-1.2-5.3-3.9-8c-5.5-5.5-7.1-6.6-7.1-14.4
		h3.7c0,4.8,0.2,6.6,3.9,10.1c3.9,3.7,7.4,6.6,7.4,12.6c0,6.8-5.2,11.4-12.9,11.4C371.4,399.5,367,392.9,367,384.8L367,384.8z
		 M382.7,360.6h-4.7v-6.2h4.7V360.6L382.7,360.6z"/>
	<path class="st0" d="M436.6,377h-3.9c0-6-2.8-11.6-10.2-11.6c-5.5,0-9.2,3.5-9.2,8.5c0,3,1.2,5.5,4,8.3c5.7,5.7,7.3,6.9,7.3,15
		h-3.9c0-5-0.2-6.9-4-10.5c-4-3.8-7.7-6.9-7.7-13c0-7.1,5.4-11.8,13.3-11.8C432,361.8,436.6,368.6,436.6,377L436.6,377z M420.4,402
		h4.8v6.4h-4.8V402L420.4,402z"/>
	<path class="st0" d="M386.9,330.6h3c0-4.6,2.1-8.9,7.8-8.9c4.2,0,7,2.7,7,6.5c0,2.3-0.9,4.2-3.1,6.3c-4.4,4.4-5.6,5.3-5.6,11.4h2.9
		c0-3.8,0.1-5.3,3.1-8c3.1-2.9,5.9-5.3,5.9-10c0-5.4-4.1-9-10.2-9C390.4,319,386.9,324.2,386.9,330.6L386.9,330.6z M399.4,349.8
		h-3.7v4.9h3.7V349.8L399.4,349.8z"/>
	<path class="st0" d="M413.5,274.6h-4.1c0-6.2-2.9-12-10.6-12c-5.6,0-9.5,3.6-9.5,8.8c0,3.1,1.3,5.6,4.2,8.6
		c5.9,5.9,7.6,7.1,7.6,15.5h-4c0-5.2-0.2-7.1-4.2-10.8c-4.2-3.9-8-7.1-8-13.5c0-7.3,5.6-12.2,13.8-12.2
		C408.8,258.9,413.5,266,413.5,274.6L413.5,274.6z M396.7,300.5h5v6.6h-5V300.5L396.7,300.5z"/>
	<path class="st0" d="M342.3,254.9h3.1c0-4.7,2.2-9.2,8.1-9.2c4.3,0,7.3,2.8,7.3,6.8c0,2.3-1,4.3-3.2,6.6c-4.5,4.5-5.8,5.5-5.8,11.9
		h3.1c0-4,0.2-5.5,3.2-8.3c3.2-3,6.1-5.5,6.1-10.4c0-5.6-4.3-9.4-10.6-9.4C345.9,242.9,342.3,248.3,342.3,254.9L342.3,254.9z
		 M355.2,274.8h-3.8v5.1h3.8V274.8L355.2,274.8z"/>
	<path class="st0" d="M334.7,193.2h5c0-7.6,3.5-14.9,13.1-14.9c7,0,11.7,4.4,11.7,10.9c0,3.8-1.6,7-5.2,10.6
		c-7.3,7.3-9.4,8.8-9.4,19.1h4.9c0-6.4,0.2-8.8,5.2-13.4c5.2-4.8,9.9-8.8,9.9-16.7c0-9-6.9-15.1-17.1-15.1
		C340.5,173.8,334.7,182.5,334.7,193.2L334.7,193.2z M355.5,225.2h-6.2v8.2h6.2V225.2L355.5,225.2z"/>
	<path class="st0" d="M407.3,228.6h-3.9c0,6-2.8,11.6-10.2,11.6c-5.5,0-9.2-3.5-9.2-8.5c0-3,1.2-5.5,4-8.3c5.7-5.7,7.3-6.9,7.3-15
		h-3.9c0,5-0.2,6.9-4,10.5c-4,3.8-7.7,6.9-7.7,13c0,7.1,5.4,11.8,13.3,11.8C402.8,243.8,407.3,237,407.3,228.6L407.3,228.6z
		 M391.1,203.6h4.8v-6.4h-4.8V203.6L391.1,203.6z"/>
	<path class="st0" d="M418.8,246.2h2.6c0,4,1.9,7.8,6.9,7.8c3.7,0,6.2-2.3,6.2-5.7c0-2-0.8-3.7-2.7-5.6c-3.8-3.8-4.9-4.6-4.9-10h2.6
		c0,3.4,0.1,4.6,2.7,7c2.7,2.5,5.2,4.6,5.2,8.7c0,4.7-3.6,7.9-9,7.9C421.9,256.3,418.8,251.8,418.8,246.2L418.8,246.2z M429.7,229.4
		h-3.2v-4.3h3.2V229.4L429.7,229.4z"/>
	<path class="st0" d="M441.9,265.7h2.2c0-3.3,1.5-6.4,5.6-6.4c3,0,5.1,1.9,5.1,4.7c0,1.6-0.7,3-2.2,4.6c-3.2,3.2-4,3.8-4,8.3h2.1
		c0-2.8,0.1-3.8,2.2-5.8c2.2-2.1,4.3-3.8,4.3-7.2c0-3.9-3-6.5-7.4-6.5C444.4,257.3,441.9,261.1,441.9,265.7L441.9,265.7z
		 M450.9,279.5h-2.7v3.5h2.7V279.5L450.9,279.5z"/>
	<path class="st0" d="M469.1,289.5h2.2c0-3.3,1.5-6.4,5.6-6.4c3,0,5.1,1.9,5.1,4.7c0,1.6-0.7,3-2.2,4.6c-3.2,3.2-4,3.8-4,8.3h2.1
		c0-2.8,0.1-3.8,2.2-5.8c2.2-2.1,4.3-3.8,4.3-7.2c0-3.9-3-6.5-7.4-6.5C471.6,281.1,469.1,284.9,469.1,289.5L469.1,289.5z
		 M478.1,303.3h-2.7v3.5h2.7V303.3L478.1,303.3z"/>
	<path class="st0" d="M423.8,314.1h4.9c0-7.4,3.4-14.4,12.7-14.4c6.8,0,11.4,4.3,11.4,10.6c0,3.7-1.5,6.8-5,10.3
		c-7.1,7.1-9.1,8.5-9.1,18.6h4.8c0-6.2,0.2-8.5,5-13c5-4.7,9.6-8.5,9.6-16.2c0-8.8-6.7-14.7-16.6-14.7
		C429.5,295.3,423.8,303.7,423.8,314.1L423.8,314.1z M444,345.1h-6v8h6V345.1L444,345.1z"/>
	<path class="st0" d="M319.2,353.2H317c0,3.3-1.5,6.4-5.6,6.4c-3,0-5.1-1.9-5.1-4.7c0-1.6,0.7-3,2.2-4.6c3.2-3.2,4-3.8,4-8.3h-2.1
		c0,2.8-0.1,3.8-2.2,5.8c-2.2,2.1-4.3,3.8-4.3,7.2c0,3.9,3,6.5,7.4,6.5C316.7,361.6,319.2,357.8,319.2,353.2L319.2,353.2z
		 M310.2,339.4h2.7v-3.5h-2.7V339.4L310.2,339.4z"/>
	<path class="st0" d="M487.2,337.2H485c0-3.3-1.5-6.4-5.6-6.4c-3,0-5.1,1.9-5.1,4.7c0,1.6,0.7,3,2.2,4.6c3.2,3.2,4,3.8,4,8.3h-2.1
		c0-2.8-0.1-3.8-2.2-5.8c-2.2-2.1-4.3-3.8-4.3-7.2c0-3.9,3-6.5,7.4-6.5C484.7,328.8,487.2,332.6,487.2,337.2L487.2,337.2z
		 M478.2,351h2.7v3.5h-2.7V351L478.2,351z"/>
	<path class="st0" d="M521.4,368.2h-3.9c0,6-2.8,11.6-10.2,11.6c-5.5,0-9.2-3.5-9.2-8.5c0-3,1.2-5.5,4-8.3c5.7-5.7,7.3-6.9,7.3-15
		h-3.9c0,5-0.2,6.9-4,10.5c-4,3.8-7.7,6.9-7.7,13c0,7.1,5.4,11.8,13.3,11.8C516.8,383.3,521.4,376.5,521.4,368.2L521.4,368.2z
		 M505.1,343.2h4.8v-6.4h-4.8V343.2L505.1,343.2z"/>
	<path class="st0" d="M534.6,392.9h3.1c0,4.7,2.2,9.2,8.1,9.2c4.3,0,7.3-2.8,7.3-6.8c0-2.3-1-4.3-3.2-6.6c-4.5-4.5-5.8-5.5-5.8-11.9
		h3.1c0,4,0.2,5.5,3.2,8.3c3.2,3,6.1,5.5,6.1,10.4c0,5.6-4.3,9.4-10.6,9.4C538.3,404.9,534.6,399.5,534.6,392.9L534.6,392.9z
		 M547.6,373h-3.8v-5.1h3.8V373L547.6,373z"/>
	<path class="st0" d="M548.4,436.4h4.9c0-7.4,3.4-14.4,12.7-14.4c6.8,0,11.4,4.3,11.4,10.6c0,3.7-1.5,6.8-5,10.3
		c-7.1,7.1-9.1,8.5-9.1,18.6h4.8c0-6.2,0.2-8.5,5-13c5-4.7,9.6-8.5,9.6-16.2c0-8.8-6.7-14.7-16.6-14.7
		C554,417.7,548.4,426.1,548.4,436.4L548.4,436.4z M568.5,467.5h-6v8h6V467.5L568.5,467.5z"/>
	<path class="st0" d="M621.5,464.3h-3.9c0-6-2.8-11.6-10.2-11.6c-5.5,0-9.2,3.5-9.2,8.5c0,3,1.2,5.5,4,8.3c5.7,5.7,7.3,6.9,7.3,15
		h-3.9c0-5-0.2-6.9-4-10.5c-4-3.8-7.7-6.9-7.7-13c0-7.1,5.4-11.8,13.3-11.8C616.9,449.2,621.5,456,621.5,464.3L621.5,464.3z
		 M605.2,489.3h4.8v6.4h-4.8V489.3L605.2,489.3z"/>
	<path class="st3" d="M635,484.2h6.6c0-10.1,4.6-19.6,17.2-19.6c9.2,0,15.5,5.8,15.5,14.4c0,5-2.1,9.2-6.8,13.9
		c-9.6,9.6-12.3,11.6-12.3,25.2h6.5c0-8.4,0.3-11.6,6.8-17.6c6.8-6.4,13-11.6,13-21.9c0-11.9-9.1-19.9-22.5-19.9
		C642.7,458.7,635,470.1,635,484.2L635,484.2z M662.4,526.3h-8.1v10.8h8.1V526.3L662.4,526.3z"/>
	<path class="st0" d="M645.1,417.5h-3.9c0-6-2.8-11.6-10.2-11.6c-5.5,0-9.2,3.5-9.2,8.5c0,3,1.2,5.5,4,8.3c5.7,5.7,7.3,6.9,7.3,15
		h-3.9c0-5-0.2-6.9-4-10.5c-4-3.8-7.7-6.9-7.7-13c0-7.1,5.4-11.8,13.3-11.8C640.6,402.3,645.1,409.1,645.1,417.5L645.1,417.5z
		 M628.9,442.5h4.8v6.4h-4.8V442.5L628.9,442.5z"/>
	<path class="st0" d="M645.2,387.9h5.3c0-8.1,3.7-15.7,13.8-15.7c7.4,0,12.4,4.7,12.4,11.6c0,4-1.7,7.4-5.5,11.2
		c-7.7,7.7-9.9,9.3-9.9,20.3h5.2c0-6.8,0.3-9.3,5.5-14.2c5.5-5.1,10.4-9.3,10.4-17.7c0-9.6-7.3-16-18.1-16
		C651.4,367.4,645.2,376.6,645.2,387.9L645.2,387.9z M667.2,421.9h-6.5v8.7h6.5V421.9L667.2,421.9z"/>
	<path class="st0" d="M579.2,374.8h5.3c0,8.1,3.7,15.7,13.8,15.7c7.4,0,12.4-4.7,12.4-11.6c0-4-1.7-7.4-5.5-11.2
		c-7.7-7.7-9.9-9.3-9.9-20.3h5.2c0,6.8,0.3,9.3,5.5,14.2c5.5,5.1,10.4,9.3,10.4,17.7c0,9.6-7.3,16-18.1,16
		C585.3,395.4,579.2,386.2,579.2,374.8L579.2,374.8z M601.2,340.9h-6.5v-8.7h6.5V340.9L601.2,340.9z"/>
	<path class="st0" d="M534.9,329.4h4.9c0,7.4,3.4,14.4,12.7,14.4c6.8,0,11.4-4.3,11.4-10.6c0-3.7-1.5-6.8-5-10.3
		c-7.1-7.1-9.1-8.5-9.1-18.6h4.8c0,6.2,0.2,8.5,5,13c5,4.7,9.6,8.5,9.6,16.2c0,8.8-6.7,14.7-16.6,14.7
		C540.5,348.2,534.9,339.7,534.9,329.4L534.9,329.4z M555,298.3h-6v-8h6V298.3L555,298.3z"/>
	<path class="st0" d="M572.8,253.6h6.6c0-10.1,4.6-19.6,17.2-19.6c9.2,0,15.5,5.8,15.5,14.4c0,5-2.1,9.2-6.8,13.9
		c-9.6,9.6-12.3,11.6-12.3,25.2h6.5c0-8.4,0.3-11.6,6.8-17.6c6.8-6.4,13-11.6,13-21.9c0-11.9-9.1-19.9-22.5-19.9
		C580.4,228,572.8,239.5,572.8,253.6L572.8,253.6z M600.1,295.7H592v10.8h8.1V295.7L600.1,295.7z"/>
	<path class="st0" d="M494.9,275.3h4.9c0-7.4,3.4-14.4,12.7-14.4c6.8,0,11.4,4.3,11.4,10.6c0,3.7-1.5,6.8-5,10.3
		c-7.1,7.1-9.1,8.5-9.1,18.6h4.8c0-6.2,0.2-8.5,5-13c5-4.7,9.6-8.5,9.6-16.2c0-8.8-6.7-14.7-16.6-14.7
		C500.6,256.5,494.9,265,494.9,275.3L494.9,275.3z M515.1,306.4h-6v8h6V306.4L515.1,306.4z"/>
	<path class="st0" d="M460,233.5h5.3c0,8.1,3.7,15.7,13.8,15.7c7.4,0,12.4-4.7,12.4-11.6c0-4-1.7-7.4-5.5-11.2
		c-7.7-7.7-9.9-9.3-9.9-20.3h5.2c0,6.8,0.3,9.3,5.5,14.2c5.5,5.1,10.4,9.3,10.4,17.7c0,9.6-7.3,16-18.1,16
		C466.2,254.1,460,244.8,460,233.5L460,233.5z M482.1,199.6h-6.5v-8.7h6.5V199.6L482.1,199.6z"/>
	<path class="st0" d="M417.3,190.1h3.9c0,6,2.8,11.6,10.2,11.6c5.5,0,9.2-3.5,9.2-8.5c0-3-1.2-5.5-4-8.3c-5.7-5.7-7.3-6.9-7.3-15
		h3.9c0,5,0.2,6.9,4,10.5c4,3.8,7.7,6.9,7.7,13c0,7.1-5.4,11.8-13.3,11.8C421.8,205.3,417.3,198.5,417.3,190.1L417.3,190.1z
		 M433.5,165.1h-4.8v-6.4h4.8V165.1L433.5,165.1z"/>
	<path class="st0" d="M375.3,131.8h4.9c0-7.4,3.4-14.4,12.7-14.4c6.8,0,11.4,4.3,11.4,10.6c0,3.7-1.5,6.8-5,10.3
		c-7.1,7.1-9.1,8.5-9.1,18.6h4.8c0-6.2,0.2-8.5,5-13c5-4.7,9.6-8.5,9.6-16.2c0-8.8-6.7-14.7-16.6-14.7
		C380.9,113,375.3,121.5,375.3,131.8L375.3,131.8z M395.4,162.9h-6v8h6V162.9L395.4,162.9z"/>
	<path class="st0" d="M622.3,343.7h2.9c0-4.4,2.1-8.7,7.6-8.7c4.1,0,6.8,2.6,6.8,6.4c0,2.2-0.9,4.1-3,6.2c-4.3,4.3-5.5,5.1-5.5,11.1
		h2.9c0-3.7,0.1-5.1,3-7.8c3-2.8,5.7-5.1,5.7-9.7c0-5.3-4-8.8-9.9-8.8C625.7,332.5,622.3,337.5,622.3,343.7L622.3,343.7z
		 M634.4,362.4h-3.6v4.8h3.6V362.4L634.4,362.4z"/>
	<path class="st0" d="M690.5,302.1h-3.9c0-6-2.8-11.6-10.2-11.6c-5.5,0-9.2,3.5-9.2,8.5c0,3,1.2,5.5,4,8.3c5.7,5.7,7.3,6.9,7.3,15
		h-3.9c0-5-0.2-6.9-4-10.5c-4-3.8-7.7-6.9-7.7-13c0-7.1,5.4-11.8,13.3-11.8C686,287,690.5,293.8,690.5,302.1L690.5,302.1z
		 M674.3,327.1h4.8v6.4h-4.8V327.1L674.3,327.1z"/>
	<path class="st0" d="M620.7,308.2h3.9c0,6,2.8,11.6,10.2,11.6c5.5,0,9.2-3.5,9.2-8.5c0-3-1.2-5.5-4-8.3c-5.7-5.7-7.3-6.9-7.3-15
		h3.9c0,5,0.2,6.9,4,10.5c4,3.8,7.7,6.9,7.7,13c0,7.1-5.4,11.8-13.3,11.8C625.2,323.3,620.7,316.5,620.7,308.2L620.7,308.2z
		 M636.9,283.2h-4.8v-6.4h4.8V283.2L636.9,283.2z"/>
	<path class="st0" d="M639.9,256.6h2.9c0-4.4,2.1-8.7,7.6-8.7c4.1,0,6.8,2.6,6.8,6.4c0,2.2-0.9,4.1-3,6.2c-4.3,4.3-5.5,5.1-5.5,11.1
		h2.9c0-3.7,0.1-5.1,3-7.8c3-2.8,5.7-5.1,5.7-9.7c0-5.3-4-8.8-9.9-8.8C643.3,245.3,639.9,250.4,639.9,256.6L639.9,256.6z M652,275.3
		h-3.6v4.8h3.6V275.3L652,275.3z"/>
	<path class="st0" d="M660.6,194.6h-3.9c0-6-2.8-11.6-10.2-11.6c-5.5,0-9.2,3.5-9.2,8.5c0,3,1.2,5.5,4,8.3c5.7,5.7,7.3,6.9,7.3,15
		h-3.9c0-5-0.2-6.9-4-10.5c-4-3.8-7.7-6.9-7.7-13c0-7.1,5.4-11.8,13.3-11.8C656.1,179.5,660.6,186.3,660.6,194.6L660.6,194.6z
		 M644.4,219.7h4.8v6.4h-4.8V219.7L644.4,219.7z"/>
	<path class="st0" d="M502,203.7h3.1c0-4.7,2.2-9.2,8.1-9.2c4.3,0,7.3,2.8,7.3,6.8c0,2.3-1,4.3-3.2,6.6c-4.5,4.5-5.8,5.5-5.8,11.9
		h3.1c0-4,0.2-5.5,3.2-8.3c3.2-3,6.1-5.5,6.1-10.4c0-5.6-4.3-9.4-10.6-9.4C505.6,191.6,502,197,502,203.7L502,203.7z M514.9,223.6
		H511v5.1h3.8V223.6L514.9,223.6z"/>
	<path class="st0" d="M581.7,205.1h-2.1c0-3.2-1.5-6.3-5.5-6.3c-3,0-5,1.9-5,4.6c0,1.6,0.7,3,2.2,4.5c3.1,3.1,4,3.7,4,8.1h-2.1
		c0-2.7-0.1-3.7-2.2-5.7c-2.2-2.1-4.2-3.7-4.2-7.1c0-3.8,2.9-6.4,7.2-6.4C579.2,196.9,581.7,200.5,581.7,205.1L581.7,205.1z
		 M572.9,218.6h2.6v3.5h-2.6V218.6L572.9,218.6z"/>
	<path class="st0" d="M534.7,232.7h3.3c0,5.1,2.3,9.9,8.7,9.9c4.6,0,7.8-2.9,7.8-7.2c0-2.5-1-4.6-3.4-7c-4.8-4.8-6.2-5.8-6.2-12.7
		h3.3c0,4.2,0.2,5.8,3.4,8.9c3.4,3.2,6.5,5.8,6.5,11c0,6-4.6,10-11.3,10C538.6,245.6,534.7,239.8,534.7,232.7L534.7,232.7z
		 M548.5,211.5h-4.1v-5.4h4.1V211.5L548.5,211.5z"/>
	<path class="st0" d="M578.1,280.4H575c0,4.7-2.2,9.2-8.1,9.2c-4.3,0-7.3-2.8-7.3-6.8c0-2.3,1-4.3,3.2-6.6c4.5-4.5,5.8-5.5,5.8-11.9
		h-3.1c0,4-0.2,5.5-3.2,8.3c-3.2,3-6.1,5.5-6.1,10.4c0,5.6,4.3,9.4,10.6,9.4C574.5,292.4,578.1,287,578.1,280.4L578.1,280.4z
		 M565.2,260.5h3.8v-5.1h-3.8V260.5L565.2,260.5z"/>
	<path class="st0" d="M568.6,135.8h7.9c0-12,5.6-23.4,20.6-23.4c11,0,18.5,7,18.5,17.2c0,6-2.5,11-8.2,16.7
		c-11.5,11.5-14.8,13.8-14.8,30.2h7.8c0-10.1,0.4-13.8,8.2-21.1c8.2-7.6,15.5-13.8,15.5-26.3c0-14.2-10.9-23.8-26.9-23.8
		C577.8,105.3,568.6,119,568.6,135.8L568.6,135.8z M601.4,186.3h-9.7v12.9h9.7V186.3L601.4,186.3z"/>
	<path class="st0" d="M346,142.6h2.2c0-3.3,1.5-6.4,5.6-6.4c3,0,5.1,1.9,5.1,4.7c0,1.6-0.7,3-2.2,4.6c-3.2,3.2-4,3.8-4,8.3h2.1
		c0-2.8,0.1-3.8,2.2-5.8c2.2-2.1,4.3-3.8,4.3-7.2c0-3.9-3-6.5-7.4-6.5C348.5,134.2,346,138,346,142.6L346,142.6z M354.9,156.4h-2.7
		v3.5h2.7V156.4L354.9,156.4z"/>
	<path class="st0" d="M324.5,110.4h2.2c0-3.3,1.5-6.4,5.6-6.4c3,0,5.1,1.9,5.1,4.7c0,1.6-0.7,3-2.2,4.6c-3.2,3.2-4,3.8-4,8.3h2.1
		c0-2.8,0.1-3.8,2.2-5.8c2.2-2.1,4.3-3.8,4.3-7.2c0-3.9-3-6.5-7.4-6.5C327,102,324.5,105.7,324.5,110.4L324.5,110.4z M333.5,124.2
		h-2.7v3.5h2.7V124.2L333.5,124.2z"/>
	<path class="st0" d="M342.3,82h4.9c0-7.4,3.4-14.4,12.7-14.4c6.8,0,11.4,4.3,11.4,10.6c0,3.7-1.5,6.8-5,10.3
		c-7.1,7.1-9.1,8.5-9.1,18.6h4.8c0-6.2,0.2-8.5,5-13c5-4.7,9.6-8.5,9.6-16.2c0-8.8-6.7-14.7-16.6-14.7
		C347.9,63.2,342.3,71.7,342.3,82L342.3,82z M362.4,113.1h-6v8h6V113.1L362.4,113.1z"/>
	<path class="st0" d="M390,80.8h2.5c0-3.8,1.8-7.4,6.5-7.4c3.5,0,5.8,2.2,5.8,5.4c0,1.9-0.8,3.5-2.6,5.3c-3.6,3.6-4.7,4.4-4.7,9.5
		h2.5c0-3.2,0.1-4.4,2.6-6.7c2.6-2.4,4.9-4.4,4.9-8.3c0-4.5-3.4-7.5-8.5-7.5C392.9,71.1,390,75.4,390,80.8L390,80.8z M400.3,96.7
		h-3.1v4.1h3.1V96.7L400.3,96.7z"/>
	<path class="st0" d="M455.3,113.3h6.6c0-10.1,4.6-19.6,17.2-19.6c9.2,0,15.5,5.8,15.5,14.4c0,5-2.1,9.2-6.8,13.9
		c-9.6,9.6-12.3,11.6-12.3,25.2h6.5c0-8.4,0.3-11.6,6.8-17.6c6.8-6.4,13-11.6,13-21.9c0-11.9-9.1-19.9-22.5-19.9
		C463,87.8,455.3,99.3,455.3,113.3L455.3,113.3z M482.6,155.5h-8.1v10.8h8.1V155.5L482.6,155.5z"/>
	<path class="st0" d="M458.2,138.8h-2.8c0,4.3-2,8.4-7.4,8.4c-3.9,0-6.6-2.5-6.6-6.2c0-2.1,0.9-3.9,2.9-6c4.1-4.1,5.3-5,5.3-10.8
		h-2.8c0,3.6-0.1,5-2.9,7.6c-2.9,2.7-5.6,5-5.6,9.4c0,5.1,3.9,8.5,9.6,8.5C454.9,149.8,458.2,144.8,458.2,138.8L458.2,138.8z
		 M446.5,120.7h3.5v-4.6h-3.5V120.7L446.5,120.7z"/>
	<path class="st0" d="M570.2,157.9h-3.9c0-6-2.8-11.6-10.2-11.6c-5.5,0-9.2,3.5-9.2,8.5c0,3,1.2,5.5,4,8.3c5.7,5.7,7.3,6.9,7.3,15
		h-3.9c0-5-0.2-6.9-4-10.5c-4-3.8-7.7-6.9-7.7-13c0-7.1,5.4-11.8,13.3-11.8C565.6,142.7,570.2,149.5,570.2,157.9L570.2,157.9z
		 M553.9,182.9h4.8v6.4h-4.8V182.9L553.9,182.9z"/>
	<path class="st0" d="M498.5,164.3h3.9c0,6,2.8,11.6,10.2,11.6c5.5,0,9.2-3.5,9.2-8.5c0-3-1.2-5.5-4-8.3c-5.7-5.7-7.3-6.9-7.3-15
		h3.9c0,5,0.2,6.9,4,10.5c4,3.8,7.7,6.9,7.7,13c0,7.1-5.4,11.8-13.3,11.8C503.1,179.5,498.5,172.6,498.5,164.3L498.5,164.3z
		 M514.8,139.3h-4.8v-6.4h4.8V139.3L514.8,139.3z"/>
	<path class="st0" d="M523.8,115.2h3c0-4.6,2.1-8.9,7.8-8.9c4.2,0,7,2.7,7,6.5c0,2.3-0.9,4.2-3.1,6.3c-4.4,4.4-5.6,5.3-5.6,11.4h2.9
		c0-3.8,0.1-5.3,3.1-8c3.1-2.9,5.9-5.3,5.9-10c0-5.4-4.1-9-10.2-9C527.3,103.6,523.8,108.8,523.8,115.2L523.8,115.2z M536.2,134.4
		h-3.7v4.9h3.7V134.4L536.2,134.4z"/>
	<path class="st0" d="M567.5,81.7h-2.2c0-3.3-1.5-6.4-5.6-6.4c-3,0-5.1,1.9-5.1,4.7c0,1.6,0.7,3,2.2,4.6c3.2,3.2,4,3.8,4,8.3h-2.1
		c0-2.8-0.1-3.8-2.2-5.8c-2.2-2.1-4.3-3.8-4.3-7.2c0-3.9,3-6.5,7.4-6.5C565,73.3,567.5,77.1,567.5,81.7L567.5,81.7z M558.5,95.5h2.7
		v3.5h-2.7V95.5L558.5,95.5z"/>
	<path class="st0" d="M587,67h2.2c0-3.3,1.5-6.4,5.6-6.4c3,0,5.1,1.9,5.1,4.7c0,1.6-0.7,3-2.2,4.6c-3.2,3.2-4,3.8-4,8.3h2.1
		c0-2.8,0.1-3.8,2.2-5.8c2.2-2.1,4.3-3.8,4.3-7.2c0-3.9-3-6.5-7.4-6.5C589.5,58.6,587,62.4,587,67L587,67z M596,80.8h-2.7v3.5h2.7
		V80.8L596,80.8z"/>
	<path class="st0" d="M536.2,54.9h-3.9c0-6-2.8-11.6-10.2-11.6c-5.5,0-9.2,3.5-9.2,8.5c0,3,1.2,5.5,4,8.3c5.7,5.7,7.3,6.9,7.3,15
		h-3.9c0-5-0.2-6.9-4-10.5c-4-3.8-7.7-6.9-7.7-13c0-7.1,5.4-11.8,13.3-11.8C531.6,39.7,536.2,46.5,536.2,54.9L536.2,54.9z M520,79.9
		h4.8v6.4H520V79.9L520,79.9z"/>
	<path class="st0" d="M648.4,59.5h4.5c0-6.8,3.2-13.3,11.7-13.3c6.2,0,10.5,4,10.5,9.8c0,3.4-1.4,6.2-4.6,9.5
		c-6.5,6.5-8.4,7.9-8.4,17.1h4.4c0-5.7,0.2-7.8,4.6-12c4.6-4.3,8.8-7.9,8.8-14.9c0-8.1-6.2-13.5-15.3-13.5
		C653.6,42.2,648.4,50,648.4,59.5L648.4,59.5z M666.9,88.1h-5.5v7.3h5.5V88.1L666.9,88.1z"/>
	<path class="st0" d="M638.7,78.6h-2.2c0-3.3-1.5-6.4-5.6-6.4c-3,0-5.1,1.9-5.1,4.7c0,1.6,0.7,3,2.2,4.6c3.2,3.2,4,3.8,4,8.3H630
		c0-2.8-0.1-3.8-2.2-5.8c-2.2-2.1-4.3-3.8-4.3-7.2c0-3.9,3-6.5,7.4-6.5C636.2,70.3,638.7,74,638.7,78.6L638.7,78.6z M629.7,92.5h2.7
		V96h-2.7V92.5L629.7,92.5z"/>
	<path class="st0" d="M643,125.1h4.2c0-6.4,2.9-12.4,10.9-12.4c5.8,0,9.8,3.7,9.8,9.1c0,3.1-1.3,5.8-4.3,8.8
		c-6.1,6.1-7.8,7.3-7.8,15.9h4.1c0-5.3,0.2-7.3,4.3-11.1c4.3-4,8.2-7.3,8.2-13.9c0-7.5-5.7-12.6-14.2-12.6
		C647.9,109,643,116.3,643,125.1L643,125.1z M660.3,151.8h-5.1v6.8h5.1V151.8L660.3,151.8z"/>
	<path class="st0" d="M682.3,225.7h7.9c0-12,5.6-23.4,20.6-23.4c11,0,18.5,7,18.5,17.2c0,6-2.5,11-8.2,16.7
		c-11.5,11.5-14.8,13.8-14.8,30.2h7.8c0-10.1,0.4-13.8,8.2-21.1c8.2-7.6,15.5-13.8,15.5-26.3c0-14.2-10.9-23.8-26.9-23.8
		C691.5,195.2,682.3,208.9,682.3,225.7L682.3,225.7z M715.1,276.2h-9.7v12.9h9.7V276.2L715.1,276.2z"/>
	<path class="st0" d="M683.8,97.1h6.6c0-10.1,4.6-19.6,17.2-19.6c9.2,0,15.5,5.8,15.5,14.4c0,5-2.1,9.2-6.8,13.9
		c-9.6,9.6-12.3,11.6-12.3,25.2h6.5c0-8.4,0.3-11.6,6.8-17.6c6.8-6.4,13-11.6,13-21.9c0-11.9-9.1-19.9-22.5-19.9
		C691.4,71.6,683.8,83,683.8,97.1L683.8,97.1z M711.1,139.2H703V150h8.1V139.2L711.1,139.2z"/>
	<path class="st0" d="M637.5,21.8h-3.9c0-6-2.8-11.6-10.2-11.6c-5.5,0-9.2,3.5-9.2,8.5c0,3,1.2,5.5,4,8.3c5.7,5.7,7.3,6.9,7.3,15
		h-3.9c0-5-0.2-6.9-4-10.5c-4-3.8-7.7-6.9-7.7-13c0-7.1,5.4-11.8,13.3-11.8C632.9,6.7,637.5,13.5,637.5,21.8L637.5,21.8z
		 M621.2,46.8h4.8v6.4h-4.8V46.8L621.2,46.8z"/>
	<path class="st0" d="M551.4,35.8h2.2c0-3.3,1.5-6.4,5.6-6.4c3,0,5.1,1.9,5.1,4.7c0,1.6-0.7,3-2.2,4.6c-3.2,3.2-4,3.8-4,8.3h2.1
		c0-2.8,0.1-3.8,2.2-5.8c2.2-2.1,4.3-3.8,4.3-7.2c0-3.9-3-6.5-7.4-6.5C553.9,27.4,551.4,31.2,551.4,35.8L551.4,35.8z M560.4,49.6
		h-2.7v3.5h2.7V49.6L560.4,49.6z"/>
	<path class="st0" d="M368.2,19.4h5c0-7.6,3.5-14.9,13.1-14.9c7,0,11.7,4.4,11.7,10.9c0,3.8-1.6,7-5.2,10.6
		c-7.3,7.3-9.4,8.8-9.4,19.1h4.9c0-6.4,0.2-8.8,5.2-13.4c5.2-4.8,9.9-8.8,9.9-16.7c0-9-6.9-15.1-17.1-15.1
		C374.1,0,368.2,8.7,368.2,19.4L368.2,19.4z M389,51.4h-6.2v8.2h6.2V51.4L389,51.4z"/>
	<path class="st0" d="M415.8,59.5h3.9c0-6,2.8-11.6,10.2-11.6c5.5,0,9.2,3.5,9.2,8.5c0,3-1.2,5.5-4,8.3c-5.7,5.7-7.3,6.9-7.3,15h3.9
		c0-5,0.2-6.9,4-10.5c4-3.8,7.7-6.9,7.7-13c0-7.1-5.4-11.8-13.3-11.8C420.3,44.3,415.8,51.1,415.8,59.5L415.8,59.5z M432,84.5h-4.8
		v6.4h4.8V84.5L432,84.5z"/>
	<path class="st0" d="M484.6,524.8h3.9c0,6,2.8,11.6,10.2,11.6c5.5,0,9.2-3.5,9.2-8.5c0-3-1.2-5.5-4-8.3c-5.7-5.7-7.3-6.9-7.3-15
		h3.9c0,5,0.2,6.9,4,10.5c4,3.8,7.7,6.9,7.7,13c0,7.1-5.4,11.8-13.3,11.8C489.2,539.9,484.6,533.1,484.6,524.8L484.6,524.8z
		 M500.9,499.7h-4.8v-6.4h4.8V499.7L500.9,499.7z"/>
	<path class="st0" d="M397.2,547.4h4.9c0,7.4,3.4,14.4,12.7,14.4c6.8,0,11.4-4.3,11.4-10.6c0-3.7-1.5-6.8-5-10.3
		c-7.1-7.1-9.1-8.5-9.1-18.6h4.8c0,6.2,0.2,8.5,5,13c5,4.7,9.6,8.5,9.6,16.2c0,8.8-6.7,14.7-16.6,14.7
		C402.9,566.2,397.2,557.7,397.2,547.4L397.2,547.4z M417.3,516.3h-6v-8h6V516.3L417.3,516.3z"/>
	<path class="st0" d="M566.8,532.9h-3.9c0-6-2.8-11.6-10.2-11.6c-5.5,0-9.2,3.5-9.2,8.5c0,3,1.2,5.5,4,8.3c5.7,5.7,7.3,6.9,7.3,15
		H551c0-5-0.2-6.9-4-10.5c-4-3.8-7.7-6.9-7.7-13c0-7.1,5.4-11.8,13.3-11.8C562.2,517.8,566.8,524.6,566.8,532.9L566.8,532.9z
		 M550.6,558h4.8v6.4h-4.8V558L550.6,558z"/>
</g>
</svg>
