<?xml version="1.0" encoding="utf-8"?>
<!-- Generator: Adobe Illustrator 22.1.0, SVG Export Plug-In . SVG Version: 6.00 Build 0)  -->
<svg version="1.1" id="Layer_1" xmlns="http://www.w3.org/2000/svg" xmlns:xlink="http://www.w3.org/1999/xlink" x="0px" y="0px"
	 viewBox="0 0 423.1 124.6" style="enable-background:new 0 0 423.1 124.6;" xml:space="preserve">
<style type="text/css">
	.st0{fill:#3B9E3E;}
	.st1{fill-rule:evenodd;clip-rule:evenodd;fill:#3B9E3E;}
</style>
<path class="st0" d="M225.5,7.3h-15.8c-1.7,0-2.3,0.6-2.3,2.3v33.8c0,1.7,0.6,2.3,2.3,2.3h16c7.6,0,13.3-3.7,13.3-10.7
	c0-4.7-2-7.8-5.5-9.3v-0.2c2.8-1.9,3.9-4.3,3.9-7.9C237.4,11,232.9,7.3,225.5,7.3L225.5,7.3z M226.6,19c0,2.1-1.1,2.9-3.3,2.9H218
	V16h5.2C225.4,16,226.6,16.9,226.6,19L226.6,19z M227.7,33.8c0,2.3-1.1,3.2-3.5,3.2H218v-6.3h6.3C226.6,30.6,227.7,31.6,227.7,33.8
	L227.7,33.8z M275,43.5L262.5,9.1c-0.5-1.4-1.2-1.8-2.8-1.8h-6.1c-1.6,0-2.3,0.3-2.8,1.9l-12.4,34.2c-0.5,1.5-0.2,2.2,1.4,2.2h5.7
	c2.7,0,3.4-0.6,3.9-2.3l1.2-3.9h11.6l1.2,3.9c0.4,1.7,1.2,2.3,4,2.3h5.8C275,45.7,275.5,44.9,275,43.5L275,43.5z M257.9,24.7l2,6.3
	h-6.7l2-6.4c1.1-3.6,1-7.5,1-7.5h0.5C256.7,17.2,256.8,21.1,257.9,24.7L257.9,24.7z M285.8,32.1V9.6c0-1.7-0.6-2.3-2.3-2.3h-6.1
	c-1.7,0-2.3,0.6-2.3,2.3v22c0,9.1,5.6,14.9,16.2,14.9c10.7,0,16.3-5.8,16.3-14.9v-22c0-1.7-0.6-2.3-2.3-2.3h-6.1
	c-1.7,0-2.3,0.6-2.3,2.3v22.5c0,3.2-1.9,5-5.6,5C287.7,37.1,285.8,35.3,285.8,32.1L285.8,32.1z M348.3,7.3H343c-1.8,0-2.3,0.3-3,1.7
	L331,26.5L322.1,9c-0.8-1.3-1.3-1.7-3.2-1.7h-5.1c-1.7,0-2.3,0.5-2.3,2.3v33.9c0,1.7,0.6,2.2,2.3,2.2h5.5c1.7,0,2.3-0.5,2.3-2.2
	v-7.7c0-3.7-0.3-6.4-2.2-14.2h0.5c0.5,1.9,2.2,6.9,3.3,8.9l3.2,6.1c0.6,1.2,1.1,1.6,2.6,1.6h3.6c1.5,0,2-0.5,2.6-1.6l3-6.1
	c1.1-2.2,3.1-7.1,3.6-8.9h0.6c-2.1,7.2-2.4,10.6-2.4,14.1v7.7c0,1.7,0.5,2.2,2.3,2.2h5.9c1.7,0,2.3-0.5,2.3-2.2V9.6
	C350.7,7.9,350.1,7.3,348.3,7.3L348.3,7.3z M389.1,43.5L376.6,9.1c-0.5-1.4-1.2-1.8-2.8-1.8h-6.1c-1.6,0-2.3,0.3-2.8,1.9l-12.4,34.2
	c-0.5,1.5-0.2,2.2,1.4,2.2h5.7c2.7,0,3.4-0.6,3.9-2.3l1.2-3.9h11.6l1.2,3.9c0.4,1.7,1.2,2.3,4,2.3h5.8
	C389.1,45.7,389.6,44.9,389.1,43.5L389.1,43.5z M372,24.7l2,6.3h-6.7l2-6.4c1.1-3.6,1-7.5,1-7.5h0.5C370.8,17.2,370.9,21.1,372,24.7
	L372,24.7z M420.9,7.4h-5.5c-1.7,0-2.3,0.6-2.3,2.3v8.9c0,5.5,0.7,8.1,2.4,13.7h-0.4c-1.7-4.1-2.2-6.2-4.5-9.9l-8.9-13.8
	c-0.5-0.8-1-1.1-2.3-1.1h-6.4c-1.7,0-2.3,0.6-2.3,2.3v33.8c0,1.7,0.6,2.3,2.3,2.3h5.5c1.7,0,2.3-0.6,2.3-2.3v-8.8
	c0-6-0.6-8.7-1.8-13.9h0.4c1.5,4.9,2.4,7.4,4.7,11.1l8.3,12.8c0.5,0.8,1.1,1.1,2.2,1.1h6.1c1.7,0,2.3-0.6,2.3-2.3V9.6
	C423.1,8,422.5,7.4,420.9,7.4L420.9,7.4z M206.4,71.3V81c0,9.3,6,15.1,16.6,15.1c8.3,0,13.5-3.4,15.8-9.4c0.5-1.6,0.2-2.4-1.5-2.9
	l-5.8-2.1c-1.6-0.6-2.3-0.2-2.9,1.5c-0.9,2.3-2.6,3.5-5.6,3.5c-4.3,0-5.9-1.8-5.9-5.6v-9.8c0-3.8,1.7-5.6,5.9-5.6
	c3,0,4.6,1.1,5.6,3.5c0.6,1.7,1.2,1.9,2.9,1.5l5.8-2.1c1.6-0.5,2-1.3,1.5-2.9c-2.3-6-7.4-9.4-15.8-9.4
	C212.4,56.2,206.4,62,206.4,71.3L206.4,71.3z M274.9,93.1l-12.5-34.3c-0.5-1.4-1.2-1.8-2.8-1.8h-6.1c-1.6,0-2.3,0.3-2.8,1.9
	l-12.4,34.2c-0.5,1.5-0.2,2.2,1.4,2.2h5.7c2.7,0,3.4-0.6,3.9-2.3l1.2-3.9h11.6l1.2,3.9c0.4,1.7,1.2,2.3,4,2.3h5.8
	C274.9,95.3,275.4,94.6,274.9,93.1L274.9,93.1z M257.8,74.4l2,6.3H253l2-6.4c1.1-3.6,1-7.5,1-7.5h0.5
	C256.6,66.8,256.7,70.7,257.8,74.4L257.8,74.4z M274.5,68.3c0,10.5,8.9,11.6,15.2,12.5c3.6,0.5,6.3,1.1,6.3,3.2
	c0,2.3-2.2,3.1-5.8,3.1c-3,0-5.1-1-6.1-2.9c-0.8-1.6-1.6-1.7-3.2-1.2l-5.1,1.8c-1.6,0.6-2.1,1.3-1.5,3c2.1,5.6,7.7,8.4,15.7,8.4
	c9.6,0,16.7-4.4,16.7-12.3c0-10.2-8.1-11.7-14.4-12.6c-3.9-0.5-7.1-1-7.1-3.3c0-1.9,1.5-2.8,5.1-2.8c2.5,0,4.4,0.8,5.5,2.8
	c0.9,1.6,1.5,1.8,2.9,1.1l5.4-2.3c1.6-0.6,2.1-1.5,1.3-3c-2.5-5.2-7.1-7.6-15.1-7.6C280.2,56.2,274.5,61.2,274.5,68.3L274.5,68.3z
	 M339,56.9h-6.2c-1.7,0-2.3,0.6-2.3,2.3v11.9h-10.5V59.3c0-1.7-0.5-2.3-2.3-2.3h-6.1c-1.7,0-2.3,0.6-2.3,2.3v33.8
	c0,1.7,0.6,2.3,2.3,2.3h6.1c1.7,0,2.3-0.6,2.3-2.3V80.6h10.5v12.4c0,1.7,0.6,2.3,2.3,2.3h6.2c1.7,0,2.3-0.6,2.3-2.3V59.3
	C341.2,57.5,340.6,56.9,339,56.9L339,56.9z"/>
<path class="st1" d="M117.9,115.7c-0.3,0-5.9-3.3-6.5-3.6l-6.5-3.7c-0.3-0.2-0.4-0.2-0.7-0.4l-3.3-1.9c-0.3-0.1-0.4-0.2-0.7-0.4
	c-0.2-0.1-0.4-0.2-0.7-0.4c-0.7-0.4-2.2-1-2.5-1.6c0.9-0.3,2.5-1.4,3.4-1.9l2.3-1.3c0.5-0.3,0.7-0.4,1.2-0.7c4-2,8.5-5,12.5-7.1
	c0.4-0.2,0.8-0.5,1.2-0.7c0.4-0.2,0.7-0.4,1.1-0.6l3.9-2.2c0.3-0.2,0.3-0.2,0.6-0.3c0.3-0.2,0.2-0.2,0.6-0.3c1.8-0.9,3.4-2,5.1-2.9
	l18.2-10.3c2.7-1.5,1.9-0.7,1.9-5.3c0-9.5,0-19.1,0-28.6l4-2.3c0.5-0.3,0.9-0.6,1.4-0.8l9.6-5.4c0,0,0.1,0,0.1,0l5-2.9
	c0.5-0.3,1.1-0.7,1.6-0.9v56.5c-0.2,0.2-0.6,0.3-0.8,0.5l-0.8,0.4c-0.1,0.1-0.2,0.2-0.4,0.2c-0.2,0.1-0.3,0.2-0.4,0.2
	c-0.2,0.1-0.1,0.1-0.4,0.3l-6.2,3.5c-0.2,0.1-0.2,0.1-0.4,0.2c-0.2,0.1-0.3,0.2-0.4,0.3l-3.3,1.9c-0.3,0.2-0.5,0.3-0.8,0.5l-5.8,3.3
	c-0.3,0.2-0.5,0.3-0.8,0.5l-5,2.8c-0.3,0.2-0.6,0.3-0.9,0.5c-0.3,0.2-0.5,0.3-0.8,0.5l-24,13.6C119.3,114.9,118.3,115.7,117.9,115.7
	L117.9,115.7z M29.3,41.6v32.7c0.3,0.2,0.5,0.3,0.8,0.4c1.5,0.7,5.4,3.1,7.2,4.1l2.4,1.4c0.3,0.2,0.5,0.3,0.8,0.5l8.9,5.1
	c0.3,0.2,0.5,0.3,0.8,0.4c0.3,0.2,0.5,0.3,0.8,0.5l5.7,3.2c0.1,0.1,0.2,0.1,0.4,0.2l1.1,0.8c0.5,0.5,1.3,0.8,2,1.1l4.4,2.5
	c0.5,0.3,1.1,0.5,1.6,0.9c1.9,1.2,6,3.4,8.2,4.6l5.7,3.2c0.3,0.2,0.5,0.4,0.9,0.5c-0.3,0.5-3,1.9-3.8,2.3l-6.6,3.7
	c-0.5,0.3-0.8,0.4-1.3,0.7c-2.1,1.1-4.4,2.7-6.6,3.7l-0.9,0.5c-2.2,1.3-1.3,1.2-4.3-0.5l-4.3-2.4c-0.3-0.2-0.5-0.3-0.8-0.5
	c-1.2-0.7-2.5-1.3-3.7-2.1c0,0,0,0-0.1,0l-0.7-0.4c-0.2-0.1-0.3-0.1-0.4-0.2l-3-1.7c0,0-0.1,0-0.1,0c0,0-0.1-0.1-0.1-0.1l-2-1.1
	c-0.2-0.1-0.2-0.1-0.4-0.3c-0.3-0.2-0.6-0.3-0.9-0.5l-0.9-0.5c-0.3-0.2-0.5-0.3-0.9-0.5c-1.2-0.7-2.2-1.3-3.4-1.9l-8.7-4.9
	c-0.3-0.2-0.6-0.3-0.9-0.5c-0.4-0.2-0.6-0.3-0.9-0.5l-1.7-0.9c-3.5-1.9-6.9-4-10.5-5.9c-0.3-0.2-0.6-0.3-0.9-0.5l-3.4-2
	c-2.4-1.2-1.9-0.8-1.9-5V32.9c0-0.9,0-1.8,0-2.8c0-0.5-0.1-1,0.4-0.8l3.9,2.2c0.2,0.1,0.3,0.1,0.4,0.2l3.5,2
	c2.1,1.3,4.4,2.4,6.5,3.7l0.8,0.5c0.1,0.1,0.3,0.2,0.4,0.3c0.3,0.2,0.5,0.3,0.9,0.5C24.6,39.1,28.9,41.5,29.3,41.6L29.3,41.6z
	 M36.3,12.8l9,5.1c0.2,0.1,0.2,0.1,0.4,0.2l0.8,0.5c0.2,0.1,0.3,0.2,0.4,0.2l8.7,4.9c1.2,0.7,2.5,1.3,3.7,2.1
	c0.3,0.2,0.5,0.3,0.8,0.5c0.3,0.2,0.6,0.3,0.9,0.5l9.1,5.2c0.3,0.1,0.5,0.3,0.8,0.4l4.2,2.4c0.1,0,0.1,0.1,0.2,0.1c0,0,0.1,0,0.1,0
	l6.1,3.4c0,0,0.1,0,0.1,0l1.7,0.9c0.1,0,0.1,0,0.1,0.1l1.6,0.9c0.3,0.2,0.5,0.3,0.9,0.5l1.7,0.9c0.3,0.2,0.5,0.3,0.8,0.4
	c1.5,0.8,0.8,0.4,3.3-0.9c0.3-0.2,0.5-0.2,0.8-0.4c0.6-0.3,1-0.6,1.6-0.9l2.8-1.6c0.2-0.1,0.3-0.1,0.4-0.2l17.3-9.8
	c0.2-0.1,0.3-0.1,0.5-0.2l2.4-1.4c0,0,0.1-0.1,0.2-0.1c2-1.2,4.3-2.2,6.2-3.5l1.8-1c0,0,0,0,0.1,0l0.3-0.2c0,0,0.2-0.1,0.2-0.1
	l7.5-4.3c0.1-0.1,0.1-0.1,0.2-0.1c0.2-0.1,0.2-0.1,0.5-0.2l7-4c0.4-0.2-0.1-0.1,0.6-0.2c-0.3,0.8-0.1,25.2-0.1,28.2
	c0,9.4,0,18.9,0,28.3c-0.7,0.2-3.6,2-4.5,2.5l-21.9,12.4c-0.2,0.1-0.2,0.1-0.4,0.2l-10.7,6c-0.2,0.1-0.3,0.2-0.4,0.3l-14.1,7.9
	c-0.4,0.2-0.7,0.5-1.1,0.3l-13.8-7.9c-0.3-0.1-0.6-0.3-0.8-0.4l-1.7-1c0,0,0,0-0.1,0L67.7,87c-0.6-0.4-1.1-0.6-1.7-0.9l-1.2-0.7
	c-0.2-0.1,0,0-0.2-0.1c-0.1-0.1-0.1,0-0.2-0.1c-0.3-0.2-0.5-0.3-0.8-0.5l-16.4-9.3c-0.2-0.1-0.3-0.2-0.4-0.3l-10.4-5.9V12.8
	L36.3,12.8z M0.3,16.3c-0.5,1-0.2,3.6-0.2,5v58c0,1.9-0.3,9.9,0.1,11.1c0.1,0.5,0.7,0.7,1.1,0.9c0.3,0.2,0.5,0.3,0.8,0.4
	C2.5,92,2.6,92.1,3,92.3l7.1,4c0.2,0.1,0.3,0.1,0.4,0.2c0.2,0.1,0.3,0.2,0.4,0.3c0.2,0.1,0.2,0.1,0.4,0.2c0.3,0.2,0.5,0.3,0.8,0.5
	c0.3,0.2,0.6,0.3,0.9,0.5l6.7,3.8c0.1,0.1,0.3,0.1,0.4,0.2c0.1,0.1,0.3,0.2,0.4,0.3l22.3,12.6c0.2,0.1,0.3,0.2,0.4,0.3
	c0.2,0.1,0.2,0.1,0.4,0.2c3.5,2,7,4.1,10.5,6c0.3,0.2,0.5,0.3,0.9,0.5l3.4,1.9c0.3,0.2,0.5,0.3,0.8,0.5c1,0.5,0.9,0.6,1.9,0
	c0,0,0.1,0,0.1,0c0,0,0.1,0,0.1,0l14.2-8c0.3-0.2,0.6-0.3,0.9-0.5l4.4-2.5c0.2-0.1,0.3-0.1,0.4-0.2l7.2-4.1c1-0.6,1.1,0,2.4,0.7
	c0.4,0.2,0.6,0.3,0.9,0.5l2,1.2c0.1,0.1,0.1,0.1,0.2,0.1c0.1,0.1,0.3,0.2,0.4,0.3l14.8,8.3c0.2,0.1,0,0,0.2,0.1l1.2,0.7
	c0.3,0.2,0.5,0.3,0.9,0.5c0.3,0.2,0.5,0.3,0.9,0.5l3.6,2c1.8,1.1,1.7,1.2,2.9,0.5c0.3-0.2,0.6-0.3,1-0.5l4.8-2.7
	c0.3-0.2,0.6-0.3,1-0.5l12.2-6.9c0.4-0.2,0.6-0.3,1-0.5l7.6-4.3c0.2-0.1,0.3-0.2,0.4-0.3l3.3-1.8c0.4-0.2,0.6-0.4,0.9-0.6l1.9-1.1
	c0.2-0.1,0.3-0.1,0.5-0.2c0.2-0.1,0.3-0.2,0.5-0.3l1.9-1.1c0.4-0.2,0.5-0.3,0.9-0.5l7.6-4.2c0.2-0.1,0.3-0.2,0.4-0.3l11-6.2
	c0.3-0.2,0.6-0.4,0.9-0.5c0.6-0.3,1.6-0.6,1.6-1.4V16.9c0-0.3-0.1-0.3-0.1-0.6c-0.7,0.2-1.2,0.6-1.8,0.9l-7.6,4.3
	c-0.2,0.1-0.3,0.2-0.4,0.2c-0.4,0.2-0.6,0.3-0.9,0.5c-0.3,0.2-0.6,0.3-0.9,0.5l-9.9,5.6c-0.3,0.2-0.5,0.3-0.9,0.5
	c-0.3,0.2-0.6,0.3-0.9,0.5c-1.2,0.7-4.8,3-5.6,3c0-10.5-0.1-21.1,0-31.5c0-1.5-0.6-0.8-2.1,0.1l-2.4,1.4c-0.4,0.2-0.9,0.4-1.3,0.7
	c-2.1,1.3-4.4,2.5-6.5,3.8c-0.1,0.1-0.2,0.1-0.3,0.2l-5.7,3.2c-0.5,0.3-0.9,0.5-1.3,0.7l-3.7,2.1c-0.3,0.1-0.3,0.2-0.6,0.3
	c-0.2,0.1-0.4,0.2-0.6,0.4c-0.3,0.1-0.3,0.2-0.6,0.3L99.3,28.1c-0.5,0.3-0.8,0.4-1.2,0.7c-1.3,0.8-2.8,1.5-4.1,2.3l-2.2,1.2
	c-0.4,0.3-0.8,0.5-1.2,0.7c-0.4,0.2-1,0.5-1.3,0.8L74,25.1c-0.6-0.4-1.2-0.6-1.8-1c-0.3-0.2-0.5-0.3-0.8-0.5l-7.8-4.4
	c-1.7-0.9-3.3-2-5.1-2.9c-0.7-0.3-1-0.6-1.7-1c-0.1-0.1-0.3-0.2-0.4-0.2l-4.1-2.3c0,0-0.1,0-0.1,0c0,0-0.1-0.1-0.1-0.1l-15-8.5
	c-0.3-0.2-0.6-0.3-0.9-0.5L32,1.3c-3.2-1.9-2.7-2.1-2.7,1.2c0,2.7,0.1,28.5,0,29.6c-0.1,0.8-0.7,0.2-2.3-0.8
	c-0.2-0.1-0.3-0.1-0.4-0.2c0,0-0.1,0-0.1,0l-2.8-1.6c-0.3-0.2-0.5-0.3-0.9-0.5c-1.5-0.8-2.8-1.7-4.3-2.4c-0.4-0.2-0.5-0.3-0.9-0.5
	c-0.3-0.2-0.5-0.3-0.8-0.4L5.5,19.3C4,18.5,1.6,17.2,0.3,16.3L0.3,16.3z"/>
</svg>
