<?xml version="1.0" encoding="utf-8"?>
<!-- Generator: Adobe Illustrator 22.1.0, SVG Export Plug-In . SVG Version: 6.00 Build 0)  -->
<svg version="1.1" id="Capa_1" xmlns="http://www.w3.org/2000/svg" xmlns:xlink="http://www.w3.org/1999/xlink" x="0px" y="0px"
	 viewBox="0 0 382.6 477" style="enable-background:new 0 0 382.6 477;" xml:space="preserve">
<style type="text/css">
	.st0{fill:#3B9E3E;}
	.st1{fill:#FFFFFF;}
	.st2{fill-rule:evenodd;clip-rule:evenodd;fill:#3B9E3E;}
</style>
<path class="st0" d="M191.2,0C85.8,0,0,85.8,0,191.2c0,12,1.1,24.1,3.4,35.9c0.1,0.7,0.5,2.8,1.3,6.4c2.9,12.9,7.2,25.6,12.8,37.7
	c20.6,48.5,65.9,123,165.3,202.8c2.5,2,5.5,3,8.5,3s6-1,8.5-3c99.3-79.8,144.7-154.3,165.3-202.8c5.6-12.1,9.9-24.7,12.8-37.7
	c0.8-3.6,1.2-5.7,1.3-6.4c2.2-11.8,3.4-23.9,3.4-35.9C382.4,85.8,296.6,0,191.2,0z M191.3,294.5c-57.4,0-103.9-46.5-103.9-103.9
	S133.9,86.7,191.3,86.7c57.4,0,103.9,46.5,103.9,103.9S248.7,294.5,191.3,294.5z"/>
<circle class="st1" cx="191.3" cy="191" r="130"/>
<path class="st2" d="M225,252.4c-0.3,0-6.9-3.8-7.6-4.2l-7.5-4.3c-0.3-0.2-0.5-0.2-0.8-0.4l-3.8-2.2c-0.3-0.2-0.5-0.3-0.8-0.4
	c-0.3-0.2-0.5-0.3-0.8-0.4c-0.8-0.4-2.5-1.2-3-1.8c1.1-0.3,2.9-1.6,4-2.2l2.6-1.5c0.6-0.3,0.8-0.5,1.4-0.8c4.7-2.4,9.9-5.8,14.6-8.2
	c0.5-0.3,0.9-0.5,1.4-0.8c0.5-0.2,0.9-0.4,1.3-0.7l4.6-2.6c0.3-0.2,0.4-0.2,0.7-0.4c0.4-0.2,0.2-0.2,0.7-0.4c2-1,4-2.3,6-3.4
	l21.2-12c3.1-1.8,2.3-0.8,2.3-6.1c0-11.1,0-22.2,0-33.3l4.7-2.7c0.5-0.3,1.1-0.6,1.6-0.9l11.2-6.3c0,0,0.1,0,0.1,0l5.9-3.3
	c0.6-0.4,1.2-0.8,1.9-1v65.8c-0.3,0.2-0.7,0.4-0.9,0.5l-0.9,0.5c-0.1,0.1-0.3,0.2-0.4,0.3c-0.2,0.1-0.3,0.2-0.5,0.3
	c-0.3,0.2-0.2,0.1-0.5,0.3l-7.2,4c-0.2,0.1-0.3,0.1-0.5,0.3c-0.2,0.1-0.3,0.2-0.5,0.3l-3.8,2.2c-0.3,0.2-0.6,0.3-0.9,0.5l-6.7,3.8
	c-0.4,0.2-0.5,0.3-0.9,0.5l-5.8,3.3c-0.3,0.2-0.7,0.3-1,0.6c-0.4,0.2-0.5,0.4-0.9,0.6l-27.9,15.8C226.5,251.5,225.3,252.4,225,252.4
	L225,252.4z M121.8,166.2v38c0.3,0.2,0.6,0.3,1,0.5c1.7,0.8,6.3,3.6,8.4,4.8l2.8,1.6c0.4,0.2,0.5,0.4,0.9,0.6l10.4,5.9
	c0.4,0.2,0.6,0.3,0.9,0.5c0.4,0.2,0.5,0.3,0.9,0.5l6.7,3.7c0.1,0.1,0.2,0.1,0.4,0.3l1.3,1c0.6,0.6,1.6,0.9,2.3,1.3l5.2,3
	c0.6,0.4,1.3,0.6,1.9,1c2.2,1.4,7,4,9.5,5.4l6.6,3.7c0.4,0.2,0.6,0.4,1,0.6c-0.4,0.5-3.5,2.2-4.4,2.6l-7.6,4.4
	c-0.5,0.3-0.9,0.5-1.5,0.8c-2.4,1.3-5.2,3.1-7.6,4.4l-1.1,0.6c-2.6,1.5-1.5,1.4-5-0.6l-5-2.8c-0.4-0.2-0.6-0.3-0.9-0.5
	c-1.4-0.8-2.9-1.5-4.3-2.4c0,0-0.1,0-0.1-0.1l-0.8-0.4c-0.2-0.1-0.3-0.2-0.5-0.3l-3.5-2c0,0-0.1,0-0.1,0c0,0-0.1-0.1-0.2-0.1
	l-2.3-1.3c-0.2-0.1-0.3-0.2-0.5-0.3c-0.4-0.2-0.7-0.3-1-0.6l-1-0.6c-0.4-0.2-0.6-0.4-1-0.6c-1.4-0.8-2.6-1.5-4-2.3l-10.1-5.7
	c-0.4-0.2-0.6-0.4-1-0.6c-0.4-0.2-0.7-0.4-1-0.6l-2-1.1c-4.1-2.2-8.1-4.7-12.2-6.9c-0.4-0.2-0.6-0.4-1-0.6l-4-2.3
	c-2.8-1.4-2.2-0.9-2.2-5.8v-56.8c0-1.1,0-2.1,0-3.2c0-0.5-0.1-1.2,0.4-1l4.5,2.6c0.2,0.1,0.3,0.2,0.5,0.3l4.1,2.3
	c2.5,1.5,5.1,2.8,7.6,4.3l0.9,0.5c0.2,0.1,0.3,0.2,0.5,0.3c0.4,0.2,0.6,0.3,1,0.6C116.3,163.2,121.3,166.1,121.8,166.2L121.8,166.2z
	 M129.9,132.6l10.5,5.9c0.2,0.1,0.3,0.1,0.5,0.3l0.9,0.5c0.2,0.1,0.3,0.2,0.5,0.3l10.1,5.7c1.4,0.9,2.9,1.6,4.3,2.5
	c0.3,0.2,0.6,0.4,0.9,0.6c0.4,0.2,0.7,0.3,1.1,0.5l10.5,6c0.3,0.2,0.6,0.3,1,0.5l4.9,2.7c0.1,0.1,0.2,0.1,0.3,0.1c0,0,0.1,0,0.1,0.1
	l7.1,4c0,0,0.1,0,0.1,0l2,1.1c0.1,0,0.1,0.1,0.2,0.1l1.9,1c0.3,0.2,0.6,0.4,1,0.6l2,1.1c0.3,0.2,0.6,0.3,0.9,0.5
	c1.7,0.9,0.9,0.5,3.9-1c0.4-0.2,0.6-0.3,1-0.5c0.6-0.4,1.2-0.7,1.9-1.1l3.3-1.9c0.2-0.1,0.3-0.2,0.5-0.3l20.1-11.4
	c0.2-0.1,0.3-0.2,0.5-0.3l2.8-1.6c0,0,0.2-0.1,0.3-0.1c2.3-1.4,5-2.6,7.2-4l2-1.2c0,0,0.1,0,0.1-0.1l0.3-0.2c0,0,0.2-0.1,0.3-0.1
	l8.8-5c0.1-0.1,0.1-0.1,0.2-0.2c0.3-0.1,0.3-0.1,0.5-0.3l8.1-4.6c0.5-0.3-0.1-0.2,0.7-0.2c-0.4,0.9-0.1,29.3-0.1,32.8
	c0,11,0,22,0,32.9c-0.8,0.2-4.2,2.3-5.3,2.9l-25.5,14.4c-0.2,0.1-0.2,0.1-0.4,0.2l-12.4,7c-0.2,0.1-0.3,0.2-0.5,0.3l-16.4,9.2
	c-0.4,0.2-0.8,0.6-1.3,0.4l-16.1-9.2c-0.3-0.2-0.7-0.3-1-0.5l-2-1.2c0,0-0.1,0-0.1-0.1l-5.5-3.2c-0.7-0.4-1.3-0.7-2-1.1l-1.5-0.8
	c-0.2-0.1,0,0-0.2-0.2c-0.1-0.1-0.1-0.1-0.3-0.1c-0.3-0.2-0.5-0.3-0.9-0.5l-19.1-10.9c-0.2-0.1-0.3-0.2-0.5-0.3l-12.1-6.8V132.6
	L129.9,132.6z M88,136.7c-0.6,1.2-0.3,4.2-0.3,5.9v67.5c0,2.2-0.3,11.5,0.1,12.9c0.2,0.6,0.8,0.8,1.3,1.1c0.4,0.2,0.6,0.3,1,0.5
	c0.4,0.2,0.6,0.4,1,0.6l8.3,4.7c0.2,0.1,0.3,0.2,0.5,0.3c0.2,0.1,0.3,0.2,0.5,0.3c0.2,0.1,0.3,0.1,0.5,0.3c0.4,0.2,0.5,0.3,0.9,0.5
	c0.4,0.2,0.7,0.4,1,0.6l7.8,4.4c0.1,0.1,0.3,0.1,0.4,0.2c0.2,0.1,0.3,0.2,0.5,0.3l26,14.7c0.2,0.1,0.3,0.2,0.5,0.3
	c0.2,0.1,0.3,0.1,0.4,0.2c4.1,2.3,8.1,4.7,12.3,6.9c0.4,0.2,0.6,0.4,1,0.6l3.9,2.2c0.3,0.2,0.5,0.3,0.9,0.5c1.1,0.6,1.1,0.7,2.2,0
	c0,0,0.1,0,0.1-0.1c0,0,0.1,0,0.1-0.1l16.5-9.4c0.4-0.2,0.7-0.3,1.1-0.5l5.2-3c0.2-0.1,0.3-0.2,0.5-0.3l8.3-4.7
	c1.2-0.7,1.3,0,2.8,0.8c0.4,0.2,0.7,0.3,1.1,0.5l2.4,1.4c0.1,0.1,0.2,0.1,0.3,0.1c0.2,0.1,0.3,0.2,0.5,0.3l17.2,9.7
	c0.2,0.1,0,0,0.2,0.2l1.4,0.8c0.4,0.2,0.6,0.4,1,0.6c0.4,0.2,0.6,0.3,1,0.6l4.2,2.4c2.1,1.3,2,1.4,3.4,0.6c0.4-0.2,0.7-0.4,1.1-0.6
	l5.5-3.1c0.4-0.2,0.7-0.4,1.1-0.6l14.2-8.1c0.4-0.2,0.7-0.4,1.1-0.6l8.9-5c0.2-0.1,0.3-0.2,0.5-0.3l3.9-2.1c0.4-0.2,0.7-0.4,1.1-0.7
	l2.2-1.2c0.2-0.1,0.3-0.2,0.5-0.3c0.2-0.1,0.4-0.2,0.6-0.3l2.2-1.3c0.5-0.2,0.6-0.3,1-0.6l8.8-4.9c0.3-0.2,0.3-0.2,0.5-0.3l12.8-7.2
	c0.4-0.2,0.7-0.4,1.1-0.6c0.6-0.4,1.8-0.7,1.8-1.6v-85.2c0-0.4-0.1-0.4-0.1-0.7c-0.8,0.2-1.4,0.7-2.1,1.1l-8.8,5
	c-0.2,0.1-0.3,0.2-0.5,0.3c-0.4,0.2-0.7,0.4-1.1,0.6c-0.4,0.2-0.7,0.4-1,0.6l-11.5,6.5c-0.4,0.2-0.6,0.4-1,0.6
	c-0.4,0.2-0.6,0.3-1.1,0.5c-1.4,0.8-5.6,3.5-6.5,3.5c0-12.2-0.2-24.5,0-36.7c0-1.8-0.7-0.9-2.4,0.1l-2.8,1.6c-0.5,0.3-1,0.5-1.5,0.8
	c-2.4,1.6-5.1,2.9-7.6,4.4c-0.1,0.1-0.2,0.1-0.3,0.2l-6.7,3.7c-0.5,0.3-1,0.6-1.5,0.9l-4.3,2.5c-0.3,0.2-0.4,0.2-0.7,0.4
	c-0.3,0.1-0.4,0.3-0.8,0.4c-0.3,0.2-0.4,0.2-0.7,0.4l-28.6,16.2c-0.5,0.3-1,0.5-1.5,0.8c-1.5,1-3.2,1.8-4.8,2.7l-2.6,1.4
	c-0.5,0.3-1,0.6-1.4,0.8c-0.4,0.2-1.2,0.6-1.5,0.9L173.8,147c-0.7-0.4-1.4-0.7-2.1-1.1c-0.3-0.2-0.6-0.4-0.9-0.6l-9-5.1
	c-2-1.1-3.9-2.3-6-3.4c-0.8-0.4-1.2-0.7-2-1.1c-0.2-0.1-0.4-0.2-0.5-0.3l-4.8-2.7c0,0-0.1,0-0.1,0c0,0-0.1-0.1-0.2-0.1l-17.4-9.9
	c-0.4-0.2-0.7-0.4-1-0.6l-5-2.8c-3.7-2.2-3.2-2.4-3.2,1.4c0,3.1,0.1,33.2,0,34.4c-0.1,1-0.8,0.2-2.7-0.9c-0.2-0.1-0.3-0.2-0.5-0.3
	c0,0-0.1,0-0.1,0l-3.3-1.9c-0.4-0.3-0.6-0.3-1-0.6c-1.7-0.9-3.3-1.9-5-2.8c-0.4-0.2-0.6-0.4-1-0.6c-0.4-0.2-0.6-0.3-1-0.5l-13-7.4
	C92.4,139.2,89.5,137.7,88,136.7L88,136.7z"/>
</svg>
