<?xml version="1.0" encoding="utf-8"?><svg xmlns="http://www.w3.org/2000/svg" xmlns:xlink="http://www.w3.org/1999/xlink"><symbol viewBox="0 0 483.3 483.3" id="form-email" xmlns="http://www.w3.org/2000/svg"><path d="M424.3 57.8H59.1C26.5 57.8 0 84.3 0 116.8v249.6c0 32.6 26.5 59.1 59.1 59.1h365.1c32.6 0 59.1-26.5 59.1-59.1V117c.1-32.7-26.4-59.2-59-59.2zm32.1 308.7c0 17.7-14.4 32.1-32.1 32.1H59.1c-17.7 0-32.1-14.4-32.1-32.1V117c0-17.7 14.4-32.1 32.1-32.1h365.1c17.7 0 32.1 14.4 32.1 32.1l.1 249.5z"/><path d="M304.8 238.6l118.2-106c5.5-5 6-13.5 1-19.1-5-5.5-13.5-6-19.1-1l-163 146.3-31.8-28.4c-.1-.1-.2-.2-.2-.3-.7-.7-1.4-1.3-2.2-1.9L78.3 112.3c-5.6-5-14.1-4.5-19.1 1.1s-4.5 14.1 1.1 19.1l119.6 106.9L60.8 351c-5.4 5.1-5.7 13.6-.6 19.1 2.7 2.8 6.3 4.3 9.9 4.3 3.3 0 6.6-1.2 9.2-3.6l120.9-113.1L233 287c2.6 2.3 5.8 3.4 9 3.4s6.5-1.2 9-3.5l33.7-30.2 120.2 114.2c2.6 2.5 6 3.7 9.3 3.7 3.6 0 7.1-1.4 9.8-4.2 5.1-5.4 4.9-14-.5-19.1L304.8 238.6z"/></symbol><symbol viewBox="0 0 27 36" id="form-phone" xmlns="http://www.w3.org/2000/svg"><path d="M26.9 32.3c.2-.9.1-1.9-.5-2.7l-2.7-4.3c-1-1.6-3.3-2.1-4.9-1.1l-1.1.7c-.3.2-.7.3-1.2.2-.9-.2-2.7-1.2-5.4-5.4-3.1-4.9-3-7.4-1.8-8.2l1.1-.7c1.7-1 2.2-3.2 1.1-4.9L8.9 1.7C8.4.9 7.7.3 6.7.1S4.9 0 4.1.5L3 1.2C-1.7 4.1-.7 13.9 5.2 23.4c4.1 6.6 9.5 11.3 14.2 12.4 1.9.4 3.6.2 4.9-.6l1.1-.7c.8-.5 1.3-1.2 1.5-2.2zm-1.9-.4c-.1.4-.3.7-.7 1l-1.1.7c-.9.5-2 .7-3.4.4-4.1-.9-9.1-5.4-12.9-11.5C1.7 14.1.4 5.2 4 2.9l1.1-.7c.7-.4 1.7-.2 2.1.5L9.9 7c.4.7.2 1.7-.5 2.1l-1 .7c-1.2.8-3.6 3.4 1.2 10.9 2.3 3.7 4.5 5.8 6.6 6.3 1 .2 1.9.1 2.7-.4l1.1-.7c.7-.4 1.7-.2 2.1.5l2.7 4.3c.2.4.3.8.2 1.2z"/></symbol><symbol viewBox="0 0 32 32" id="form-user" xmlns="http://www.w3.org/2000/svg"><path d="M16 22c5 0 9-4.9 9-11S21 0 16 0c-2.4 0-4.7 1.2-6.4 3.3C7.9 5.4 7 8.1 7 11c0 6.1 4 11 9 11zm0-20c3.9 0 7 4 7 9s-3.1 9-7 9-7-4-7-9 3.1-9 7-9zm7 18c-.6 0-1 .4-1 1s.4 1 1 1c3.9 0 7 3.1 7 7 0 .6-.4 1-1 1H3c-.6 0-1-.4-1-1 0-3.9 3.1-7 7-7 .6 0 1-.4 1-1s-.4-1-1-1c-5 0-9 4-9 9 0 1.7 1.3 3 3 3h26c1.7 0 3-1.3 3-3 0-5-4-9-9-9z"/></symbol><symbol viewBox="0 0 512 512" id="icon-calc-1" xmlns="http://www.w3.org/2000/svg"><path d="M437 62.2L377.3 2.5C375.7.9 373.5 0 371.2 0H166.4c-18.9 0-34.1 15.3-34.1 34.1v34.1h-25.6c-18.9 0-34.1 15.3-34.1 34.1v375.5c0 18.9 15.3 34.1 34.1 34.1h238.9c18.9 0 34.1-15.3 34.1-34.1v-34.1h25.6c18.9 0 34.1-15.3 34.1-34.1V68.3c.1-2.3-.8-4.5-2.4-6.1zm-65.8-41.6L419 68.3h-47.8V20.6zm-8.5 457.3c0 9.4-7.6 17.1-17.1 17.1H106.7c-9.4 0-17.1-7.6-17.1-17.1V102.4c0-9.4 7.6-17.1 17.1-17.1h25.6v324.3c0 18.9 15.3 34.1 34.1 34.1h196.3v34.2zm59.7-68.3c0 9.4-7.6 17.1-17.1 17.1H166.4c-9.4 0-17.1-7.6-17.1-17.1V34.1c0-9.4 7.6-17.1 17.1-17.1h187.7v59.7c0 4.7 3.8 8.5 8.5 8.5h59.7v324.4z"/><path d="M183.5 170.7c0 4.7 3.8 8.5 8.5 8.5h187.7c4.7 0 8.5-3.8 8.5-8.5s-3.8-8.5-8.5-8.5H192c-4.7-.1-8.5 3.8-8.5 8.5zm196.2 93.8H192c-4.7 0-8.5 3.8-8.5 8.5s3.8 8.5 8.5 8.5h187.7c4.7 0 8.5-3.8 8.5-8.5.1-4.6-3.8-8.5-8.5-8.5zM192 213.3h93.9c4.7 0 8.5-3.8 8.5-8.5s-3.8-8.5-8.5-8.5H192c-4.7 0-8.5 3.8-8.5 8.5s3.8 8.5 8.5 8.5zm187.7-17h-51.2c-4.7 0-8.5 3.8-8.5 8.5s3.8 8.5 8.5 8.5h51.2c4.7 0 8.5-3.8 8.5-8.5s-3.8-8.5-8.5-8.5zm0 34.1h-93.9c-4.7 0-8.5 3.8-8.5 8.5s3.8 8.5 8.5 8.5h93.9c4.7 0 8.5-3.8 8.5-8.5s-3.8-8.5-8.5-8.5zM192 247.5h51.2c4.7 0 8.5-3.8 8.5-8.5s-3.8-8.5-8.5-8.5H192c-4.7 0-8.5 3.8-8.5 8.5s3.8 8.5 8.5 8.5z"/></symbol><symbol viewBox="0 0 512 512" id="icon-calc-2" xmlns="http://www.w3.org/2000/svg"><path d="M401.1 287.8c-23.5 0-42.7 19.1-42.7 42.7 0 23.5 19.1 42.7 42.7 42.7 23.5 0 42.7-19.1 42.7-42.7-.1-23.5-19.2-42.7-42.7-42.7zm0 68.3c-14.1 0-25.6-11.5-25.6-25.6s11.5-25.6 25.6-25.6 25.6 11.5 25.6 25.6-11.5 25.6-25.6 25.6zm-290.2-68.3c-23.5 0-42.7 19.1-42.7 42.7 0 23.5 19.1 42.7 42.7 42.7 23.5 0 42.7-19.1 42.7-42.7 0-23.5-19.1-42.7-42.7-42.7zm0 68.3c-14.1 0-25.6-11.5-25.6-25.6s11.5-25.6 25.6-25.6 25.6 11.5 25.6 25.6-11.5 25.6-25.6 25.6z"/><path d="M503.5 287.8v-51.2c0-3.7-2.3-6.9-5.8-8.1l-48.2-16.1c-18.1-30.7-43.1-59.9-98.1-69.6-.1 0-.2 0-.3-.1-101.7-14.1-178.1 8.9-227.1 68.2-56.8 1-115.5 18.9-115.5 51.3v25.6c-4.7 0-8.5 3.8-8.5 8.5v34.1c0 4.7 3.8 8.5 8.5 8.5h34.1c4.7 0 8.5-3.8 8.5-8.5 0-32.9 26.8-59.7 59.7-59.7s59.7 26.8 59.7 59.7c0 4.7 3.8 8.5 8.5 8.5h153.6c4.7 0 8.5-3.8 8.5-8.5 0-32.9 26.8-59.7 59.7-59.7 32.9 0 59.7 26.8 59.7 59.7 0 4.7 3.8 8.5 8.5 8.5h34.1c4.7 0 8.5-3.8 8.5-8.5v-34.1c.4-4.6-3.4-8.5-8.1-8.5zM393 175.7c14.8 9.1 25.9 21.1 35.4 35.4h-35.8l.4-35.4zm-102.9-19.8c18.3-.2 37.7 1 58.4 3.8 10.3 1.8 19.3 4.4 27.4 7.6l-.4 43.7h-85.4v-55.1zm-17 .7V211H147c31.6-32.6 73.3-50.6 126.1-54.4zM494.9 322h-17.5c-4.3-38.3-36.9-68.3-76.3-68.3S329 283.6 324.7 322H187.3c-4.3-38.3-36.9-68.3-76.3-68.3S38.9 283.6 34.6 322H17.1v-17.1c4.7 0 8.5-3.8 8.5-8.5v-25.6h8.5c4.7 0 8.5-3.8 8.5-8.5s-3.8-8.5-8.5-8.5h-4.4c11.5-12.5 46.9-25.6 98.3-25.6h314.3l44.1 14.7v10.9h-8.5c-4.7 0-8.5 3.8-8.5 8.5s3.8 8.5 8.5 8.5h8.5v25.6c0 4.7 3.8 8.5 8.5 8.5V322z"/></symbol><symbol viewBox="0 0 512 512" id="icon-calc-3" xmlns="http://www.w3.org/2000/svg"><path d="M486.4 459.5V190l23.1-23.1c3.3-3.3 3.3-8.7 0-12.1-.5-.5-1-.9-1.6-1.3L260.4 2.5c-2.7-1.7-6.2-1.7-8.9 0L4.1 153.6c-4 2.4-5.3 7.7-2.8 11.7.4.6.8 1.1 1.3 1.6l23 23.1v269.5C11.5 459.5 0 471 0 485.1v17.1c0 4.7 3.8 8.5 8.5 8.5h494.9c4.7 0 8.5-3.8 8.5-8.5v-17.1c.1-14.1-11.4-25.6-25.5-25.6zm-464.2-297L256 19.8l233.8 142.6-13.2 13.2-216.1-133c-2.7-1.7-6.2-1.7-8.9 0l-216.1 133-13.3-13.1zm46.1 331.1H17.1v-8.5c0-4.7 3.8-8.5 8.5-8.5h42.7v17zm145 0h-128V468c0-4.7 3.8-8.5 8.5-8.5h110.9c4.7 0 8.5 3.8 8.5 8.5l.1 25.6zm-102.4-51.2V280.3h76.8v162.1h-76.8zm93.9 0V271.8c0-4.7-3.8-8.5-8.5-8.5h-93.9c-4.7 0-8.5 3.8-8.5 8.5v170.7c-10.8 0-20.4 6.9-24 17.1H42.7V191.2L256 59.9l213.3 131.3v268.3H228.8c-3.6-10.2-13.2-17-24-17.1zm290.1 51.2H230.4v-17.1h256c4.7 0 8.5 3.8 8.5 8.5v8.6z"/><path d="M426.7 246.2H273.1c-4.7 0-8.5 3.8-8.5 8.5v136.5c0 14.1 11.5 25.6 25.6 25.6h119.5c14.1 0 25.6-11.5 25.6-25.6V254.7c-.1-4.7-3.9-8.5-8.6-8.5zm-145.1 17h59.7v42.7h-59.7v-42.7zm0 59.8h59.7v42.7h-59.7V323zm136.5 68.2c0 4.7-3.8 8.5-8.5 8.5H290.1c-4.7 0-8.5-3.8-8.5-8.5v-8.5h136.5v8.5zm0-25.6h-59.7V323h59.7v42.6zm0-59.7h-59.7v-42.7h59.7v42.7zm-281.6 42.7c-4.7 0-8.5 3.8-8.5 8.5v17.1c0 4.7 3.8 8.5 8.5 8.5s8.5-3.8 8.5-8.5v-17.1c.1-4.7-3.8-8.5-8.5-8.5z"/></symbol><symbol viewBox="0 0 512 512" id="icon-calc-4" xmlns="http://www.w3.org/2000/svg"><path d="M401.1 221.9c-61.2 0-110.9 49.8-110.9 110.9S340 443.7 401.1 443.7 512 394 512 332.8s-49.8-110.9-110.9-110.9zm0 204.8c-51.8 0-93.9-42.1-93.9-93.9s42.1-93.9 93.9-93.9S495 281 495 332.8c-.1 51.8-42.2 93.9-93.9 93.9z"/><path d="M401.1 281.6c-28.2 0-51.2 23-51.2 51.2s23 51.2 51.2 51.2 51.2-23 51.2-51.2c0-28.2-23-51.2-51.2-51.2zm0 85.3c-18.8 0-34.1-15.3-34.1-34.1s15.3-34.1 34.1-34.1 34.1 15.3 34.1 34.1-15.3 34.1-34.1 34.1zM93.9 315.7c-18.8 0-34.1 15.3-34.1 34.1S75 384 93.9 384c18.8 0 34.1-15.3 34.1-34.1 0-18.9-15.3-34.2-34.1-34.2zm0 51.2c-9.4 0-17.1-7.7-17.1-17.1 0-9.4 7.7-17.1 17.1-17.1 9.4 0 17.1 7.7 17.1 17.1-.1 9.5-7.7 17.1-17.1 17.1z"/><path d="M460.8 162.1h-32.3l-8.5-42.7h6.7c4.7 0 8.5-3.8 8.5-8.5V76.8c0-4.7-3.8-8.5-8.5-8.5H247.5c-23.5 0-42.7 19.1-42.7 42.7 0 4.7 3.8 8.5 8.5 8.5h16.2l-7.3 76.9c-.1 0-.2-.1-.4-.1H128c-32.4 0-57.1 32.5-59.5 63.3C29 270.7 0 306.9 0 349.9c0 51.8 42.1 93.9 93.9 93.9 45.9 0 84.2-33.2 92.2-76.8h80.8c2.5 0 4.9-1.1 6.6-3.1 1.6-2 2.3-4.5 1.8-7-1.5-7.9-2.2-15.9-2.2-24 0-70.6 57.4-128 128-128 36.7 0 71.7 15.8 96 43.3 2.3 2.7 6.1 3.6 9.4 2.3 3.3-1.2 5.5-4.4 5.5-8v-29.1c0-28.3-23-51.3-51.2-51.3zM93.9 426.7c-42.3 0-76.8-34.4-76.8-76.8s34.5-76.8 76.8-76.8 76.8 34.4 76.8 76.8c0 42.3-34.5 76.8-76.8 76.8zM257 349.9h-69.3c0-51.8-42.1-93.9-93.9-93.9-2.6 0-5.2.2-7.8.4 1.1-6 3.2-12.1 6.3-17.8.5.1 1 .3 1.5.3h17.1c4.7 0 8.5-3.8 8.5-8.5s-3.8-8.5-8.5-8.5H106c6.4-5.2 13.9-8.5 22-8.5h92.6l-7.2 76c-.2 2.4.6 4.8 2.2 6.6 1.6 1.8 3.9 2.8 6.3 2.8h38.4c-2.7 11-4.2 22.4-4.2 34.1-.1 5.6.2 11.3.9 17zm144.1-162.2c-62 0-114.9 39.2-135.6 94-.3 0-.6-.2-.9-.2h-33.3l15.4-162.1h155.9l13.8 69.2c-5.1-.5-10.2-.9-15.3-.9zm17-85.3H223.3c3.5-9.9 13-17.1 24.1-17.1h170.7v17.1zm76.8 119.8c-17.5-14.8-38.3-25.2-60.5-30.4l-2.5-12.6h28.8c18.8 0 34.1 15.3 34.1 34.1l.1 8.9z"/></symbol><symbol id="icon-feat-1" viewBox="0 0 26 26.7" xml:space="preserve" xmlns="http://www.w3.org/2000/svg"><style>.hst0{fill:#fff}</style><path class="hst0" d="M5.2 13.8C2.3 13.8 0 11 0 7.5s2.3-6.3 5.2-6.3c2.9 0 5.2 2.8 5.2 6.3s-2.3 6.3-5.2 6.3zm0-11.3c-2.2 0-3.9 2.2-3.9 5s1.8 5 3.9 5c2.2 0 3.9-2.2 3.9-5 0-2.7-1.7-5-3.9-5z"/><path class="hst0" d="M5.2 11.2c-1.7 0-3.1-1.6-3.1-3.7s1.4-3.7 3.1-3.7c1.7 0 3.1 1.6 3.1 3.7s-1.4 3.7-3.1 3.7zm0-6.1c-1 0-1.8 1.1-1.8 2.4s.8 2.4 1.8 2.4S7 8.8 7 7.5s-.8-2.4-1.8-2.4zm15.6 20.3c-2.9 0-5.2-2.8-5.2-6.3s2.3-6.3 5.2-6.3c2.9 0 5.2 2.8 5.2 6.3s-2.3 6.3-5.2 6.3zm0-11.2c-2.2 0-3.9 2.2-3.9 5s1.8 5 3.9 5c2.2 0 3.9-2.2 3.9-5s-1.8-5-3.9-5zM7.6 26.7h-4c-.2 0-.4-.1-.6-.3-.1-.2-.1-.4 0-.6L17.8.3c.1-.2.3-.3.5-.3h4c.2 0 .4.1.6.3.1.2.1.5 0 .7L8.1 26.4c-.1.2-.3.3-.5.3zm-2.9-1.3h2.5l14-24.1h-2.5l-14 24.1z"/><path class="hst0" d="M20.8 22.8c-1.7 0-3.1-1.6-3.1-3.7s1.4-3.7 3.1-3.7c1.7 0 3.1 1.6 3.1 3.7s-1.4 3.7-3.1 3.7zm0-6c-1 0-1.8 1.1-1.8 2.4s.8 2.4 1.8 2.4 1.8-1.1 1.8-2.4-.8-2.4-1.8-2.4z"/></symbol><symbol id="icon-feat-2" viewBox="0 0 26 26" xml:space="preserve" xmlns="http://www.w3.org/2000/svg"><style>.ist0{fill:#fff}</style><path class="ist0" d="M8.4 7.2H7.2c-.2 0-.4.2-.4.4s.2.4.4.4H8c0 .2.2.3.4.3s.4-.2.4-.4v-.3c0-.2-.2-.4-.4-.4zm4 0h-1.1c-.2 0-.4.2-.4.4v.3c0 .2.2.4.4.4s.3-.1.4-.3h.7c.2 0 .4-.2.4-.4s-.2-.4-.4-.4zm-1.7 2.5H8.9c-.2 0-.4.2-.4.4s.2.4.4.4h1.8c.2 0 .4-.2.4-.4s-.1-.4-.4-.4z"/><path class="ist0" d="M15.5 5.8c-.1-.2-.2-.3-.4-.3h-1c-1.5 0-2.9-.7-3.9-1.8-.1-.1-.2-.1-.3-.1-.1 0-.2.1-.3.1-1 1.2-2.4 1.8-3.9 1.8h-1c-.2 0-.3.1-.4.3-.3.6-.4 1.2-.4 1.8V9c0 3.3 2.7 5.9 5.9 5.9s5.9-2.7 5.9-5.9V7.6c.1-.6 0-1.2-.2-1.8zM14.9 9c0 2.8-2.3 5.1-5.1 5.1S4.7 11.8 4.7 9V7.6c0-.4.1-.8.2-1.2h.7c1.6 0 3.1-.6 4.2-1.8 1.1 1.1 2.6 1.8 4.2 1.8h.7c.1.4.2.8.2 1.2V9z"/><path class="ist0" d="M24.6 12.2c-.2 0-.4 0-.6.1v-.9c0-.8-.6-1.4-1.4-1.4-.2 0-.4 0-.6.1V10c0-.8-.6-1.4-1.4-1.4S19 9.2 19 10v.1c-.1-.1-.2-.1-.3-.1-.2-.6-.7-1.1-1.3-1.4v-1C17.4 3.4 14 0 9.8 0S2.2 3.4 2.2 7.6v1C1.3 9.1.8 10 .8 11c0 .5.1.9.4 1.4-.4.7-.6 1.4-.6 2.2 0 1.7 1 3.2 2.5 3.9C1.2 20.2 0 22.8 0 25.6c0 .2.2.4.4.4s.4-.2.4-.4c0-3.4 1.9-6.4 4.8-7.9.1.5.3 1.1.6 1.6v.1c1.1 1.9 3.2 3.3 3.3 3.4.1.1.2.1.2.1s.2 0 .2-.1c.2-.1 3.5-2.5 4-5.1.3.2.6.3.9.5v2.3c0 3 2.5 5.5 5.6 5.5 1.5 0 2.9-.6 3.9-1.6s1.6-2.4 1.6-3.9v-6.8c.1-.8-.5-1.5-1.3-1.5zm-2.7-.7c0-.3.3-.6.6-.6s.6.3.6.6V17h-1.2v-5.5zm-2-1.5c0-.3.3-.6.6-.6s.6.3.6.6v7h-1.2v-7zm-1.5.8c.4 0 .6.3.6.6V17h-1.2v-5.5c0-.4.3-.6.6-.7zM9.8 21.9c-.5-.4-1.6-1.3-2.4-2.4h4.8c-.8 1.1-1.9 2-2.4 2.4zm3-3.3h-6c-.2-.4-.4-.9-.5-1.4 1.1-.4 2.2-.7 3.4-.7 1.2 0 2.4.2 3.4.7.1.5-.1 1-.3 1.4zm2.1-3.2v1.8c-1.5-.9-3.3-1.4-5.1-1.4-1.4 0-2.8.3-4 .9h-.1c-.7.3-1.3.7-1.9 1.1-1.4-.4-2.4-1.8-2.4-3.3 0-.7.2-1.4.6-2 .1-.1.1-.3 0-.5-.2-.3-.4-.7-.4-1.1 0-.7.5-1.4 1.2-1.7.1 0 .2-.1.2-.3V7.6C3 3.9 6 .8 9.8.8s6.8 3 6.8 6.8v1.3c0 .2.1.3.3.4.4.2.8.5 1 .8-.5.2-.8.7-.8 1.3V14c-.2-.1-.4-.1-.6-.1-.9 0-1.6.7-1.6 1.5zm10.3 5.1c0 2.6-2.1 4.7-4.7 4.7s-4.7-2.1-4.7-4.7v-5.2c0-.3.3-.6.6-.6s.6.3.6.7V19c0 .2.2.4.4.4 1.5 0 2.7 1.2 2.7 2.7 0 .2.2.4.4.4s.4-.2.4-.4c0-.9-.4-1.8-1-2.5-.6-.6-1.3-.9-2.1-1v-.9h6.1c.2 0 .4-.2.4-.4s-.2-.4-.4-.4v-3.4c.1-.3.3-.5.6-.5s.6.3.6.6l.1 6.9z"/></symbol><symbol id="icon-feat-3" viewBox="0 0 26 25.4" xml:space="preserve" xmlns="http://www.w3.org/2000/svg"><style>.jst0{fill:#fff}</style><path class="jst0" d="M12.8 10.7c-.2 0-.3-.1-.5-.2L6.1 3.4c-.2-.3-.2-.7 0-.9C7.4 1.3 9 .5 10.8.2c1.7-.4 3.5-.2 5.2.4.3.1.5.4.4.8l-3 9c-.1.2-.2.4-.5.4l-.1-.1zM7.4 3l5.1 5.9L15 1.5c-1.3-.4-2.7-.4-4-.1-1.3.2-2.5.8-3.6 1.6z"/><path class="jst0" d="M13.2 25.4C7.1 25.4 1.7 21.1.3 15.3-.7 11 .7 6.7 4 3.9c.2-.2.6-.2.8.1l8 8.9 10.3 6.4c.1.1.2.2.3.4 0 .2 0 .3-.1.5-1.8 2.8-4.6 4.6-8 5.2h-2.1zM4.4 5.2C1.7 7.7.7 11.4 1.5 15c1.2 5.3 6.1 9.2 11.7 9.2.6 0 1.3-.1 1.9-.2 2.8-.5 5.2-1.9 6.8-4.2L12 13.7l-.1-.1-7.5-8.4z"/><path class="jst0" d="M23.7 18.2c-.1 0-.2 0-.3-.1l-9.3-5.8c-.2-.1-.3-.4-.3-.7v-.2l3.6-10.1c.1-.3.5-.5.8-.4 3.8 1.4 6.7 4.6 7.6 8.6.6 2.9.1 5.8-1.5 8.3-.2.3-.4.4-.6.4zm-8.6-6.7l8.4 5.3c1.2-2.1 1.5-4.5 1-6.9-.7-3.3-3.1-6.1-6.2-7.5l-3.2 9.1z"/></symbol><symbol id="icon-feat-4" viewBox="0 0 33 27.5" xml:space="preserve" xmlns="http://www.w3.org/2000/svg"><style>.kst0{fill:#fff}</style><path class="kst0" d="M22.1 27.5H2c-1.1 0-2-.9-2-2V14.3c0-1.1.9-2 2-2h11.2c.4 0 .7.3.7.7 0 .4-.3.7-.7.7H2c-.3 0-.6.3-.6.6v11.2c0 .3.3.6.6.6h20.1c.3 0 .6-.3.6-.6v-8.8c0-.4.3-.7.7-.7.4 0 .7.3.7.7v8.8c0 1.1-.9 2-2 2zm2.2-14.2c-.1 0-.3 0-.4-.1l-5.7-4.1c-.3-.2-.4-.6-.1-.9l4.8-6.7C23.6.6 24.6 0 25.8 0c.8 0 1.5.2 2.1.7l1 .7c1.6 1.2 2 3.4.8 5l-4.8 6.7c-.1.1-.3.2-.4.3-.1-.1-.2-.1-.2-.1zm-4.8-4.9l4.6 3.3 4.4-6.1c.7-1 .5-2.4-.5-3.2l-1-.7c-.4-.3-.8-.4-1.3-.4-.7 0-1.4.3-1.8.9l-4.4 6.2z"/><path class="kst0" d="M12.3 23.6c-.1 0-.3 0-.4-.1-.2-.2-.3-.4-.2-.7l1.7-7.2c0-.1.1-.2.1-.2l5-6.8c.2-.3.6-.4.9-.1.3.2.4.6.1.9l-4.9 6.7-1.3 5.6 5.1-2.9 4.9-6.7c.2-.3.6-.4.9-.1.3.2.4.6.1.9l-5 6.8-.2.2-6.5 3.7h-.3z"/><path class="kst0" d="M18.7 19.9c-.1 0-.3 0-.4-.1l-4.6-3.3c-.3-.2-.4-.6-.1-.9.2-.3.6-.4.9-.1l4.6 3.3c.3.2.4.6.1.9-.1.1-.3.2-.5.2zm8.8-3.8c-.5 0-1-.2-1.4-.5-.5-.4-.9-.9-1-1.5-.1-.6 0-1.3.4-1.8.4-.6 1.2-1 1.9-1 .5 0 1 .2 1.4.5.5.4.9.9 1 1.5.1.6 0 1.3-.4 1.8-.4.6-1.1 1-1.9 1zm0-3.4c-.3 0-.6.2-.8.4-.2.2-.2.5-.2.8 0 .3.2.5.4.7.2.1.4.2.6.2.3 0 .6-.2.8-.4.2-.2.2-.5.2-.8 0-.3-.2-.5-.4-.7-.2-.2-.4-.2-.6-.2z"/><path class="kst0" d="M28.4 12.6c-.2 0-.4-.1-.5-.2-.2-.3-.2-.7.1-.9.6-.5 1-.9 1.9-1.9l.7-.7c.9-.9 1.1-1.4 1.1-1.6 0-.1 0-.2-.4-.5l-1.5-1.1c-.3-.2-.4-.6-.1-.9.2-.3.6-.4.9-.1l1.4.8c.6.4.9.9 1 1.5.1.8-.4 1.6-1.4 2.7l-.7.7c-1 1-1.4 1.4-2 1.9-.2.2-.4.3-.5.3zM10.2 18.4H4.4c-.4 0-.7-.3-.7-.7 0-.4.3-.7.7-.7h5.8c.4 0 .7.3.7.7 0 .4-.3.7-.7.7zM10 21.6H4.4c-.4 0-.7-.3-.7-.7 0-.4.3-.7.7-.7H10c.4 0 .7.3.7.7 0 .4-.3.7-.7.7z"/></symbol><symbol id="icon-feat-5" viewBox="0 0 32 32" xml:space="preserve" xmlns="http://www.w3.org/2000/svg"><style>.lst0{fill:#fff;stroke:#fff;stroke-width:4;stroke-miterlimit:10}</style><path class="lst0" d="M27.7 3.9h-2.3v-.5c0-.8-.6-1.4-1.4-1.4h-1c-.8 0-1.4.6-1.4 1.4v.5H10.4v-.5C10.4 2.6 9.8 2 9 2h-.9c-.8 0-1.4.6-1.4 1.4v.5H4.3C3 3.9 2 4.9 2 6.2v21.5C2 29 3 30 4.3 30h23.3c1.3 0 2.3-1 2.3-2.3V6.2c.1-1.3-.9-2.3-2.2-2.3zm-5.2-.5c0-.3.2-.5.5-.5h.9c.3 0 .5.2.5.5v2.8c0 .3-.2.5-.5.5H23c-.3 0-.5-.2-.5-.5V3.4zm-14.9 0c0-.3.2-.5.5-.5H9c.3 0 .5.2.5.5v2.8c0 .3-.2.5-.5.5h-.9c-.3 0-.5-.2-.5-.5V3.4zM2.9 6.2c0-.8.6-1.4 1.4-1.4h2.3v1.4c0 .8.6 1.4 1.4 1.4h1c.8 0 1.4-.6 1.4-1.4V4.8h11.2v1.4c0 .8.6 1.4 1.4 1.4h.9c.8 0 1.4-.6 1.4-1.4V4.8h2.3c.8 0 1.4.6 1.4 1.4v3.3H2.9V6.2zm26.2 21.5c0 .8-.6 1.4-1.4 1.4H4.3c-.8 0-1.4-.6-1.4-1.4V10.4H29v17.3z"/><path class="lst0" d="M15.1 14.6h-3.7v3.7h3.7v-3.7zm-1 2.8h-1.9v-1.9h1.9v1.9zm6.6-2.8H17v3.7h3.7v-3.7zm-1 2.8h-1.9v-1.9h1.9v1.9zm6.6-2.8h-3.7v3.7h3.7v-3.7zm-1 2.8h-1.9v-1.9h1.9v1.9zM9.5 14.6H5.7v3.7h3.7v-3.7zm-1 2.8H6.7v-1.9h1.9v1.9zm1 3.4H5.7v3.7h3.7v-3.7zm-1 2.8H6.7v-1.9h1.9v1.9zm6.6-2.8h-3.7v3.7h3.7v-3.7zm-1 2.8h-1.9v-1.9h1.9v1.9zm6.6-2.8H17v3.7h3.7v-3.7zm-1 2.8h-1.9v-1.9h1.9v1.9z"/></symbol><symbol id="icon-feat-6" viewBox="0 0 29 26.7" xml:space="preserve" xmlns="http://www.w3.org/2000/svg"><style>.mst0{fill:#fff}</style><path class="mst0" d="M25.2 26.7H3.8c-1.3 0-2.4-1.2-2.4-2.6V13.7c0-.3.3-.6.6-.6s.6.3.6.6V24c0 .7.5 1.3 1.1 1.3h21.5c.6 0 1.1-.6 1.1-1.3V13.9c0-.3.3-.6.6-.6s.6.3.6.6v10.2c.1 1.4-.9 2.6-2.3 2.6z"/><path class="mst0" d="M11.9 16.4c-4.2-.3-8.2-1.2-11.5-2.6-.3-.1-.4-.4-.4-.6V7.1c0-1.4 1.2-2.6 2.6-2.6h23.8c1.4 0 2.6 1.2 2.6 2.6v6.1c0 .3-.1.5-.4.6-3.3 1.4-7.2 2.3-11.3 2.6-.4 0-.6-.2-.7-.6 0-.3.2-.6.6-.7 3.8-.3 7.5-1.1 10.5-2.3V7.1c0-.7-.6-1.3-1.3-1.3H2.6c-.7 0-1.3.6-1.3 1.3v5.7c3.1 1.3 6.8 2.1 10.7 2.3.3 0 .6.3.6.7-.1.3-.4.6-.7.6z"/><path class="mst0" d="M16.9 19.6h-4.8c-.4 0-.8-.4-.8-.8v-4.4c0-.5.3-.8.8-.8h4.8c.4 0 .8.4.8.8v4.4c0 .4-.4.8-.8.8zm-4.4-1.2h4v-3.6h-4v3.6zM19 5.1c-.3 0-.6-.3-.6-.6V3.3c0-1.1-.9-2.1-2.1-2.1h-3.5c-1.1 0-2.1.9-2.1 2.1v1.2c0 .3-.3.6-.6.6s-.7-.3-.7-.6V3.3c0-1.8 1.5-3.3 3.3-3.3h3.5c1.8 0 3.3 1.5 3.3 3.3v1.2c.1.3-.2.6-.5.6z"/></symbol><symbol viewBox="0 0 270.4 98.1" id="iconSheer"><path d="M175.1 51.8c.2 1.2.3 2.1.5 3 2 8.4 8.6 14 17.2 14.7 7.6.6 13.6-2.3 18-8.5 2.2-3 5.7-3.5 8.5-1.1 1.6 1.4 1.8 3.2.5 4.9-.7.9-1.4 1.8-2.1 2.8-2.9 4-6.7 6.7-11.4 8.3-7.6 2.6-15.2 3-22.7.2-10.1-3.7-16.1-11.1-17.8-21.7-1-6.5-.4-13 2.6-18.9 4.3-8.4 11.1-13.6 20.5-15.1 6.2-1 12.4-.4 18.2 2.4 8.2 3.9 13.2 10.5 15.1 19.3.5 2.4.7 4.9.9 7.3.2 1.5-.5 2.2-2.1 2.3h-44.1c-.4.1-.9.1-1.8.1zm38.3-9.2c-1.2-7.9-10.7-14.7-19.4-14.2-9.1.5-18.2 7.5-18.5 14.2h37.9zm-101 9c.1.8.2 1.4.3 2 1.7 9.3 9.3 15.7 18.7 15.9 7.1.1 12.7-2.8 16.8-8.6 2.2-3.1 6.1-3.4 8.8-.7 1.3 1.4 1.5 3 .3 4.6-.5.8-1.1 1.5-1.7 2.2-3.1 4.5-7.3 7.4-12.5 9.1-7.6 2.5-15.2 2.7-22.5-.2-10.6-4.1-16.4-12.1-17.6-23.3-.6-5.4-.1-10.7 2.2-15.6 4.3-9.4 11.4-15.2 21.8-16.6 5.5-.7 11-.3 16.1 1.8 9.2 3.8 14.6 10.9 16.6 20.6.4 2.2.6 4.5.7 6.7.1 1.8-.3 2.2-2.2 2.2h-43.5c-.7-.1-1.4-.1-2.3-.1zm38.4-9.1c-1.2-7.8-10.4-14.4-19.4-14.2-8.8.2-17.9 7.2-18.6 14.2h38zm101 13.5c.7.6 1.1 1 1.5 1.4 4.9 4.2 9.8 8.3 14.6 12.5.3.3.7.6 1 .9 1.8 1.8 2 4.4.3 6.2-1.6 1.8-4.2 2.1-6.1.5-3.4-2.8-6.7-5.7-10-8.5-4.8-4.1-9.5-8.1-14.3-12.2-.4-.4-.9-.7-1.6-1.3 0 1-.1 1.6-.1 2.3v36.1c-.2 2.5-2.1 4.3-4.6 4.2-2.4-.1-4.1-1.9-4.2-4.4V21.9c0-1.6.2-1.9 1.7-1.9 2.1-.1 4.2-.1 6.2-.1 5 0 10.1.2 15.1-.1 8.4-.4 17.8 6.4 18.7 16.3.8 8.9-5.2 17.3-14.3 19.1-1.1.2-2.3.5-3.9.8zm-15.3-6.9c.5.1.9.1 1.2.1h12.6c1.2 0 2.4-.1 3.6-.5 3.9-1.2 7-3.5 8-7.7 1.7-7.1-3.6-13.7-10.9-13.7h-13c-.5 0-1 .1-1.5.1v21.7zM88.5 52H63.9c0 .7-.1 1.4-.1 2v18.9c0 .8 0 1.6-.2 2.3-.6 1.9-2.6 3.1-4.5 3-2.1-.2-3.8-1.8-4.1-3.9-.1-.5 0-1 0-1.5V5.4c0-.9.1-1.8.4-2.6.6-2 2.6-3 4.7-2.8 1.9.3 3.5 2 3.7 3.9.1.6 0 1.2 0 1.8v34.7c0 .7.1 1.4.1 2 1.5.4 22.9.4 24.5 0 0-.5.1-1.1.1-1.7V23.9c.2-2.3 1.9-4 4.2-4.1 2.3-.1 4.3 1.6 4.6 3.9.1.5 0 1 0 1.5v48.9c-.3 2.3-2.3 4.1-4.5 4-2.3-.1-4.1-1.9-4.3-4.2V52zM25 78.3c-5.9-.1-11.4-1.4-16.5-4.4-2.2-1.3-4.2-2.9-5.8-4.8-.8-1-1.6-2.1-2.2-3.3-1-1.9-.6-3.4.9-4.9 1.7-1.6 4.1-2.3 6.4-.7C9 61 10 62 10.9 63c.9.9 1.6 1.9 2.5 2.8 2.7 2.7 6 4.2 9.8 4.6 3.5.4 7 .3 10.4-.9 1.4-.5 2.8-1.2 4-2.1 2.9-2.2 3-5.9.2-8.2-1.3-1.1-2.9-1.9-4.5-2.6-4-1.7-8.1-2.9-12.3-4-3.4-.8-6.7-1.9-10.1-2.9-1.3-.4-2.5-1.1-3.7-1.7-3.2-1.7-5-4.4-5.5-7.9-1-7.1 1.7-12.8 8.1-15.9 9.8-4.8 19.7-5.2 29.4.4 1.8 1 3.5 2.5 5.1 3.9 1.2 1 2 2.5 2.5 4 .8 2.6-.5 3.9-2.8 4.4-2 .4-3.8-.2-5.2-1.7-.3-.3-.5-.6-.7-.9-2.3-3.4-5.6-5.3-9.6-6.1-4-.7-8-.6-11.8.9-1.4.5-2.8 1.3-3.9 2.3-2.7 2.3-2.7 5.4-.1 7.8 1.7 1.6 3.7 2.5 5.9 3 4.8 1.2 9.7 2.4 14.5 3.6 3.1.8 6.1 1.8 8.9 3.4 3.6 1.9 6.2 4.7 7.1 8.8 1.1 5 0 9.4-3.9 13-4.4 4-9.5 6.3-15.4 7-1.7.1-3.3.2-4.8.3z"/></symbol><symbol viewBox="0 0 178.1 124.6" id="logo-big" xmlns="http://www.w3.org/2000/svg"><path d="M117.9 115.7c-.3 0-5.9-3.3-6.5-3.6l-6.5-3.7c-.3-.2-.4-.2-.7-.4l-3.3-1.9c-.3-.1-.4-.2-.7-.4-.2-.1-.4-.2-.7-.4-.7-.4-2.2-1-2.5-1.6.9-.3 2.5-1.4 3.4-1.9l2.3-1.3c.5-.3.7-.4 1.2-.7 4-2 8.5-5 12.5-7.1.4-.2.8-.5 1.2-.7.4-.2.7-.4 1.1-.6l3.9-2.2c.3-.2.3-.2.6-.3.3-.2.2-.2.6-.3 1.8-.9 3.4-2 5.1-2.9l18.2-10.3c2.7-1.5 1.9-.7 1.9-5.3V41.5l4-2.3c.5-.3.9-.6 1.4-.8L164 33h.1l5-2.9c.5-.3 1.1-.7 1.6-.9v56.5c-.2.2-.6.3-.8.5l-.8.4c-.1.1-.2.2-.4.2-.2.1-.3.2-.4.2-.2.1-.1.1-.4.3l-6.2 3.5-.4.2c-.2.1-.3.2-.4.3l-3.3 1.9c-.3.2-.5.3-.8.5L151 97c-.3.2-.5.3-.8.5l-5 2.8c-.3.2-.6.3-.9.5-.3.2-.5.3-.8.5l-24 13.6c-.2 0-1.2.8-1.6.8zM29.3 41.6v32.7c.3.2.5.3.8.4 1.5.7 5.4 3.1 7.2 4.1l2.4 1.4c.3.2.5.3.8.5l8.9 5.1c.3.2.5.3.8.4.3.2.5.3.8.5l5.7 3.2c.1.1.2.1.4.2l1.1.8c.5.5 1.3.8 2 1.1l4.4 2.5c.5.3 1.1.5 1.6.9 1.9 1.2 6 3.4 8.2 4.6l5.7 3.2c.3.2.5.4.9.5-.3.5-3 1.9-3.8 2.3l-6.6 3.7c-.5.3-.8.4-1.3.7-2.1 1.1-4.4 2.7-6.6 3.7l-.9.5c-2.2 1.3-1.3 1.2-4.3-.5l-4.3-2.4c-.3-.2-.5-.3-.8-.5-1.2-.7-2.5-1.3-3.7-2.1h-.1l-.7-.4c-.2-.1-.3-.1-.4-.2l-3-1.7h-.1l-.1-.1-2-1.1c-.2-.1-.2-.1-.4-.3-.3-.2-.6-.3-.9-.5l-.9-.5c-.3-.2-.5-.3-.9-.5-1.2-.7-2.2-1.3-3.4-1.9L27.1 97c-.3-.2-.6-.3-.9-.5-.4-.2-.6-.3-.9-.5l-1.7-.9c-3.5-1.9-6.9-4-10.5-5.9-.3-.2-.6-.3-.9-.5l-3.4-2c-2.4-1.2-1.9-.8-1.9-5V30.1c0-.5-.1-1 .4-.8l3.9 2.2c.2.1.3.1.4.2l3.5 2c2.1 1.3 4.4 2.4 6.5 3.7l.8.5c.1.1.3.2.4.3.3.2.5.3.9.5.9.4 5.2 2.8 5.6 2.9zm7-28.8l9 5.1.4.2.8.5c.2.1.3.2.4.2l8.7 4.9c1.2.7 2.5 1.3 3.7 2.1.3.2.5.3.8.5.3.2.6.3.9.5l9.1 5.2c.3.1.5.3.8.4l4.2 2.4c.1 0 .1.1.2.1h.1l6.1 3.4h.1l1.7.9c.1 0 .1 0 .1.1l1.6.9c.3.2.5.3.9.5l1.7.9c.3.2.5.3.8.4 1.5.8.8.4 3.3-.9.3-.2.5-.2.8-.4.6-.3 1-.6 1.6-.9l2.8-1.6c.2-.1.3-.1.4-.2l17.3-9.8c.2-.1.3-.1.5-.2l2.4-1.4s.1-.1.2-.1c2-1.2 4.3-2.2 6.2-3.5l1.8-1h.1l.3-.2.2-.1 7.5-4.3c.1-.1.1-.1.2-.1.2-.1.2-.1.5-.2l7-4c.4-.2-.1-.1.6-.2-.3.8-.1 25.2-.1 28.2v28.3c-.7.2-3.6 2-4.5 2.5l-21.9 12.4-.4.2-10.7 6c-.2.1-.3.2-.4.3L90 98.7c-.4.2-.7.5-1.1.3l-13.8-7.9c-.3-.1-.6-.3-.8-.4l-1.7-1h-.1L67.7 87c-.6-.4-1.1-.6-1.7-.9l-1.2-.7-.2-.1c-.1-.1-.1 0-.2-.1-.3-.2-.5-.3-.8-.5l-16.4-9.3c-.2-.1-.3-.2-.4-.3l-10.4-5.9V12.8h-.1zm-36 3.5c-.5 1-.2 3.6-.2 5v58c0 1.9-.3 9.9.1 11.1.1.5.7.7 1.1.9.3.2.5.3.8.4.4.3.5.4.9.6l7.1 4c.2.1.3.1.4.2.2.1.3.2.4.3l.4.2c.3.2.5.3.8.5.3.2.6.3.9.5l6.7 3.8c.1.1.3.1.4.2.1.1.3.2.4.3l22.3 12.6c.2.1.3.2.4.3l.4.2c3.5 2 7 4.1 10.5 6 .3.2.5.3.9.5l3.4 1.9c.3.2.5.3.8.5 1 .5.9.6 1.9 0h.2l14.2-8c.3-.2.6-.3.9-.5l4.4-2.5c.2-.1.3-.1.4-.2l7.2-4.1c1-.6 1.1 0 2.4.7.4.2.6.3.9.5l2 1.2c.1.1.1.1.2.1.1.1.3.2.4.3l14.8 8.3.2.1 1.2.7c.3.2.5.3.9.5.3.2.5.3.9.5l3.6 2c1.8 1.1 1.7 1.2 2.9.5.3-.2.6-.3 1-.5l4.8-2.7c.3-.2.6-.3 1-.5l12.2-6.9 1-.5 7.6-4.3c.2-.1.3-.2.4-.3l3.3-1.8c.4-.2.6-.4.9-.6l1.9-1.1c.2-.1.3-.1.5-.2s.3-.2.5-.3l1.9-1.1c.4-.2.5-.3.9-.5l7.6-4.2c.2-.1.3-.2.4-.3l11-6.2c.3-.2.6-.4.9-.5.6-.3 1.6-.6 1.6-1.4V16.9c0-.3-.1-.3-.1-.6-.7.2-1.2.6-1.8.9l-7.6 4.3c-.2.1-.3.2-.4.2-.4.2-.6.3-.9.5-.3.2-.6.3-.9.5l-9.9 5.6c-.3.2-.5.3-.9.5-.3.2-.6.3-.9.5-1.2.7-4.8 3-5.6 3 0-10.5-.1-21.1 0-31.5 0-1.5-.6-.8-2.1.1l-2.4 1.4c-.4.2-.9.4-1.3.7-2.1 1.3-4.4 2.5-6.5 3.8-.1.1-.2.1-.3.2l-5.7 3.2c-.5.3-.9.5-1.3.7l-3.7 2.1c-.3.1-.3.2-.6.3-.2.1-.4.2-.6.4-.3.1-.3.2-.6.3L99.3 28.1c-.5.3-.8.4-1.2.7-1.3.8-2.8 1.5-4.1 2.3l-2.2 1.2c-.4.3-.8.5-1.2.7-.4.2-1 .5-1.3.8L74 25.1c-.6-.4-1.2-.6-1.8-1-.3-.2-.5-.3-.8-.5l-7.8-4.4c-1.7-.9-3.3-2-5.1-2.9-.7-.3-1-.6-1.7-1-.1-.1-.3-.2-.4-.2l-4.1-2.3h-.1l-.1-.1-15-8.5c-.3-.2-.6-.3-.9-.5L32 1.3c-3.2-1.9-2.7-2.1-2.7 1.2 0 2.7.1 28.5 0 29.6-.1.8-.7.2-2.3-.8-.2-.1-.3-.1-.4-.2h-.1l-2.8-1.6c-.3-.2-.5-.3-.9-.5-1.5-.8-2.8-1.7-4.3-2.4-.4-.2-.5-.3-.9-.5-.3-.2-.5-.3-.8-.4L5.5 19.3c-1.5-.8-3.9-2.1-5.2-3z" fill-rule="evenodd" clip-rule="evenodd" fill="#3b9e3e"/></symbol></svg>