<?xml version="1.0" encoding="utf-8"?><svg xmlns="http://www.w3.org/2000/svg" xmlns:xlink="http://www.w3.org/1999/xlink"><symbol viewBox="0 0 483.3 483.3" id="form-email" xmlns="http://www.w3.org/2000/svg"><path d="M424.3 57.8H59.1C26.5 57.8 0 84.3 0 116.8v249.6c0 32.6 26.5 59.1 59.1 59.1h365.1c32.6 0 59.1-26.5 59.1-59.1V117c.1-32.7-26.4-59.2-59-59.2zm32.1 308.7c0 17.7-14.4 32.1-32.1 32.1H59.1c-17.7 0-32.1-14.4-32.1-32.1V117c0-17.7 14.4-32.1 32.1-32.1h365.1c17.7 0 32.1 14.4 32.1 32.1l.1 249.5z"/><path d="M304.8 238.6l118.2-106c5.5-5 6-13.5 1-19.1-5-5.5-13.5-6-19.1-1l-163 146.3-31.8-28.4c-.1-.1-.2-.2-.2-.3-.7-.7-1.4-1.3-2.2-1.9L78.3 112.3c-5.6-5-14.1-4.5-19.1 1.1s-4.5 14.1 1.1 19.1l119.6 106.9L60.8 351c-5.4 5.1-5.7 13.6-.6 19.1 2.7 2.8 6.3 4.3 9.9 4.3 3.3 0 6.6-1.2 9.2-3.6l120.9-113.1L233 287c2.6 2.3 5.8 3.4 9 3.4s6.5-1.2 9-3.5l33.7-30.2 120.2 114.2c2.6 2.5 6 3.7 9.3 3.7 3.6 0 7.1-1.4 9.8-4.2 5.1-5.4 4.9-14-.5-19.1L304.8 238.6z"/></symbol><symbol viewBox="0 0 27 36" id="form-phone" xmlns="http://www.w3.org/2000/svg"><path d="M26.9 32.3c.2-.9.1-1.9-.5-2.7l-2.7-4.3c-1-1.6-3.3-2.1-4.9-1.1l-1.1.7c-.3.2-.7.3-1.2.2-.9-.2-2.7-1.2-5.4-5.4-3.1-4.9-3-7.4-1.8-8.2l1.1-.7c1.7-1 2.2-3.2 1.1-4.9L8.9 1.7C8.4.9 7.7.3 6.7.1S4.9 0 4.1.5L3 1.2C-1.7 4.1-.7 13.9 5.2 23.4c4.1 6.6 9.5 11.3 14.2 12.4 1.9.4 3.6.2 4.9-.6l1.1-.7c.8-.5 1.3-1.2 1.5-2.2zm-1.9-.4c-.1.4-.3.7-.7 1l-1.1.7c-.9.5-2 .7-3.4.4-4.1-.9-9.1-5.4-12.9-11.5C1.7 14.1.4 5.2 4 2.9l1.1-.7c.7-.4 1.7-.2 2.1.5L9.9 7c.4.7.2 1.7-.5 2.1l-1 .7c-1.2.8-3.6 3.4 1.2 10.9 2.3 3.7 4.5 5.8 6.6 6.3 1 .2 1.9.1 2.7-.4l1.1-.7c.7-.4 1.7-.2 2.1.5l2.7 4.3c.2.4.3.8.2 1.2z"/></symbol><symbol viewBox="0 0 32 32" id="form-user" xmlns="http://www.w3.org/2000/svg"><path d="M16 22c5 0 9-4.9 9-11S21 0 16 0c-2.4 0-4.7 1.2-6.4 3.3C7.9 5.4 7 8.1 7 11c0 6.1 4 11 9 11zm0-20c3.9 0 7 4 7 9s-3.1 9-7 9-7-4-7-9 3.1-9 7-9zm7 18c-.6 0-1 .4-1 1s.4 1 1 1c3.9 0 7 3.1 7 7 0 .6-.4 1-1 1H3c-.6 0-1-.4-1-1 0-3.9 3.1-7 7-7 .6 0 1-.4 1-1s-.4-1-1-1c-5 0-9 4-9 9 0 1.7 1.3 3 3 3h26c1.7 0 3-1.3 3-3 0-5-4-9-9-9z"/></symbol><symbol viewBox="0 0 512 512" id="icon-calc-1" xmlns="http://www.w3.org/2000/svg"><path d="M437 62.2L377.3 2.5C375.7.9 373.5 0 371.2 0H166.4c-18.9 0-34.1 15.3-34.1 34.1v34.1h-25.6c-18.9 0-34.1 15.3-34.1 34.1v375.5c0 18.9 15.3 34.1 34.1 34.1h238.9c18.9 0 34.1-15.3 34.1-34.1v-34.1h25.6c18.9 0 34.1-15.3 34.1-34.1V68.3c.1-2.3-.8-4.5-2.4-6.1zm-65.8-41.6L419 68.3h-47.8V20.6zm-8.5 457.3c0 9.4-7.6 17.1-17.1 17.1H106.7c-9.4 0-17.1-7.6-17.1-17.1V102.4c0-9.4 7.6-17.1 17.1-17.1h25.6v324.3c0 18.9 15.3 34.1 34.1 34.1h196.3v34.2zm59.7-68.3c0 9.4-7.6 17.1-17.1 17.1H166.4c-9.4 0-17.1-7.6-17.1-17.1V34.1c0-9.4 7.6-17.1 17.1-17.1h187.7v59.7c0 4.7 3.8 8.5 8.5 8.5h59.7v324.4z"/><path d="M183.5 170.7c0 4.7 3.8 8.5 8.5 8.5h187.7c4.7 0 8.5-3.8 8.5-8.5s-3.8-8.5-8.5-8.5H192c-4.7-.1-8.5 3.8-8.5 8.5zm196.2 93.8H192c-4.7 0-8.5 3.8-8.5 8.5s3.8 8.5 8.5 8.5h187.7c4.7 0 8.5-3.8 8.5-8.5.1-4.6-3.8-8.5-8.5-8.5zM192 213.3h93.9c4.7 0 8.5-3.8 8.5-8.5s-3.8-8.5-8.5-8.5H192c-4.7 0-8.5 3.8-8.5 8.5s3.8 8.5 8.5 8.5zm187.7-17h-51.2c-4.7 0-8.5 3.8-8.5 8.5s3.8 8.5 8.5 8.5h51.2c4.7 0 8.5-3.8 8.5-8.5s-3.8-8.5-8.5-8.5zm0 34.1h-93.9c-4.7 0-8.5 3.8-8.5 8.5s3.8 8.5 8.5 8.5h93.9c4.7 0 8.5-3.8 8.5-8.5s-3.8-8.5-8.5-8.5zM192 247.5h51.2c4.7 0 8.5-3.8 8.5-8.5s-3.8-8.5-8.5-8.5H192c-4.7 0-8.5 3.8-8.5 8.5s3.8 8.5 8.5 8.5z"/></symbol><symbol viewBox="0 0 512 512" id="icon-calc-2" xmlns="http://www.w3.org/2000/svg"><path d="M401.1 287.8c-23.5 0-42.7 19.1-42.7 42.7 0 23.5 19.1 42.7 42.7 42.7 23.5 0 42.7-19.1 42.7-42.7-.1-23.5-19.2-42.7-42.7-42.7zm0 68.3c-14.1 0-25.6-11.5-25.6-25.6s11.5-25.6 25.6-25.6 25.6 11.5 25.6 25.6-11.5 25.6-25.6 25.6zm-290.2-68.3c-23.5 0-42.7 19.1-42.7 42.7 0 23.5 19.1 42.7 42.7 42.7 23.5 0 42.7-19.1 42.7-42.7 0-23.5-19.1-42.7-42.7-42.7zm0 68.3c-14.1 0-25.6-11.5-25.6-25.6s11.5-25.6 25.6-25.6 25.6 11.5 25.6 25.6-11.5 25.6-25.6 25.6z"/><path d="M503.5 287.8v-51.2c0-3.7-2.3-6.9-5.8-8.1l-48.2-16.1c-18.1-30.7-43.1-59.9-98.1-69.6-.1 0-.2 0-.3-.1-101.7-14.1-178.1 8.9-227.1 68.2-56.8 1-115.5 18.9-115.5 51.3v25.6c-4.7 0-8.5 3.8-8.5 8.5v34.1c0 4.7 3.8 8.5 8.5 8.5h34.1c4.7 0 8.5-3.8 8.5-8.5 0-32.9 26.8-59.7 59.7-59.7s59.7 26.8 59.7 59.7c0 4.7 3.8 8.5 8.5 8.5h153.6c4.7 0 8.5-3.8 8.5-8.5 0-32.9 26.8-59.7 59.7-59.7 32.9 0 59.7 26.8 59.7 59.7 0 4.7 3.8 8.5 8.5 8.5h34.1c4.7 0 8.5-3.8 8.5-8.5v-34.1c.4-4.6-3.4-8.5-8.1-8.5zM393 175.7c14.8 9.1 25.9 21.1 35.4 35.4h-35.8l.4-35.4zm-102.9-19.8c18.3-.2 37.7 1 58.4 3.8 10.3 1.8 19.3 4.4 27.4 7.6l-.4 43.7h-85.4v-55.1zm-17 .7V211H147c31.6-32.6 73.3-50.6 126.1-54.4zM494.9 322h-17.5c-4.3-38.3-36.9-68.3-76.3-68.3S329 283.6 324.7 322H187.3c-4.3-38.3-36.9-68.3-76.3-68.3S38.9 283.6 34.6 322H17.1v-17.1c4.7 0 8.5-3.8 8.5-8.5v-25.6h8.5c4.7 0 8.5-3.8 8.5-8.5s-3.8-8.5-8.5-8.5h-4.4c11.5-12.5 46.9-25.6 98.3-25.6h314.3l44.1 14.7v10.9h-8.5c-4.7 0-8.5 3.8-8.5 8.5s3.8 8.5 8.5 8.5h8.5v25.6c0 4.7 3.8 8.5 8.5 8.5V322z"/></symbol><symbol viewBox="0 0 512 512" id="icon-calc-3" xmlns="http://www.w3.org/2000/svg"><path d="M486.4 459.5V190l23.1-23.1c3.3-3.3 3.3-8.7 0-12.1-.5-.5-1-.9-1.6-1.3L260.4 2.5c-2.7-1.7-6.2-1.7-8.9 0L4.1 153.6c-4 2.4-5.3 7.7-2.8 11.7.4.6.8 1.1 1.3 1.6l23 23.1v269.5C11.5 459.5 0 471 0 485.1v17.1c0 4.7 3.8 8.5 8.5 8.5h494.9c4.7 0 8.5-3.8 8.5-8.5v-17.1c.1-14.1-11.4-25.6-25.5-25.6zm-464.2-297L256 19.8l233.8 142.6-13.2 13.2-216.1-133c-2.7-1.7-6.2-1.7-8.9 0l-216.1 133-13.3-13.1zm46.1 331.1H17.1v-8.5c0-4.7 3.8-8.5 8.5-8.5h42.7v17zm145 0h-128V468c0-4.7 3.8-8.5 8.5-8.5h110.9c4.7 0 8.5 3.8 8.5 8.5l.1 25.6zm-102.4-51.2V280.3h76.8v162.1h-76.8zm93.9 0V271.8c0-4.7-3.8-8.5-8.5-8.5h-93.9c-4.7 0-8.5 3.8-8.5 8.5v170.7c-10.8 0-20.4 6.9-24 17.1H42.7V191.2L256 59.9l213.3 131.3v268.3H228.8c-3.6-10.2-13.2-17-24-17.1zm290.1 51.2H230.4v-17.1h256c4.7 0 8.5 3.8 8.5 8.5v8.6z"/><path d="M426.7 246.2H273.1c-4.7 0-8.5 3.8-8.5 8.5v136.5c0 14.1 11.5 25.6 25.6 25.6h119.5c14.1 0 25.6-11.5 25.6-25.6V254.7c-.1-4.7-3.9-8.5-8.6-8.5zm-145.1 17h59.7v42.7h-59.7v-42.7zm0 59.8h59.7v42.7h-59.7V323zm136.5 68.2c0 4.7-3.8 8.5-8.5 8.5H290.1c-4.7 0-8.5-3.8-8.5-8.5v-8.5h136.5v8.5zm0-25.6h-59.7V323h59.7v42.6zm0-59.7h-59.7v-42.7h59.7v42.7zm-281.6 42.7c-4.7 0-8.5 3.8-8.5 8.5v17.1c0 4.7 3.8 8.5 8.5 8.5s8.5-3.8 8.5-8.5v-17.1c.1-4.7-3.8-8.5-8.5-8.5z"/></symbol><symbol viewBox="0 0 512 512" id="icon-calc-4" xmlns="http://www.w3.org/2000/svg"><path d="M401.1 221.9c-61.2 0-110.9 49.8-110.9 110.9S340 443.7 401.1 443.7 512 394 512 332.8s-49.8-110.9-110.9-110.9zm0 204.8c-51.8 0-93.9-42.1-93.9-93.9s42.1-93.9 93.9-93.9S495 281 495 332.8c-.1 51.8-42.2 93.9-93.9 93.9z"/><path d="M401.1 281.6c-28.2 0-51.2 23-51.2 51.2s23 51.2 51.2 51.2 51.2-23 51.2-51.2c0-28.2-23-51.2-51.2-51.2zm0 85.3c-18.8 0-34.1-15.3-34.1-34.1s15.3-34.1 34.1-34.1 34.1 15.3 34.1 34.1-15.3 34.1-34.1 34.1zM93.9 315.7c-18.8 0-34.1 15.3-34.1 34.1S75 384 93.9 384c18.8 0 34.1-15.3 34.1-34.1 0-18.9-15.3-34.2-34.1-34.2zm0 51.2c-9.4 0-17.1-7.7-17.1-17.1 0-9.4 7.7-17.1 17.1-17.1 9.4 0 17.1 7.7 17.1 17.1-.1 9.5-7.7 17.1-17.1 17.1z"/><path d="M460.8 162.1h-32.3l-8.5-42.7h6.7c4.7 0 8.5-3.8 8.5-8.5V76.8c0-4.7-3.8-8.5-8.5-8.5H247.5c-23.5 0-42.7 19.1-42.7 42.7 0 4.7 3.8 8.5 8.5 8.5h16.2l-7.3 76.9c-.1 0-.2-.1-.4-.1H128c-32.4 0-57.1 32.5-59.5 63.3C29 270.7 0 306.9 0 349.9c0 51.8 42.1 93.9 93.9 93.9 45.9 0 84.2-33.2 92.2-76.8h80.8c2.5 0 4.9-1.1 6.6-3.1 1.6-2 2.3-4.5 1.8-7-1.5-7.9-2.2-15.9-2.2-24 0-70.6 57.4-128 128-128 36.7 0 71.7 15.8 96 43.3 2.3 2.7 6.1 3.6 9.4 2.3 3.3-1.2 5.5-4.4 5.5-8v-29.1c0-28.3-23-51.3-51.2-51.3zM93.9 426.7c-42.3 0-76.8-34.4-76.8-76.8s34.5-76.8 76.8-76.8 76.8 34.4 76.8 76.8c0 42.3-34.5 76.8-76.8 76.8zM257 349.9h-69.3c0-51.8-42.1-93.9-93.9-93.9-2.6 0-5.2.2-7.8.4 1.1-6 3.2-12.1 6.3-17.8.5.1 1 .3 1.5.3h17.1c4.7 0 8.5-3.8 8.5-8.5s-3.8-8.5-8.5-8.5H106c6.4-5.2 13.9-8.5 22-8.5h92.6l-7.2 76c-.2 2.4.6 4.8 2.2 6.6 1.6 1.8 3.9 2.8 6.3 2.8h38.4c-2.7 11-4.2 22.4-4.2 34.1-.1 5.6.2 11.3.9 17zm144.1-162.2c-62 0-114.9 39.2-135.6 94-.3 0-.6-.2-.9-.2h-33.3l15.4-162.1h155.9l13.8 69.2c-5.1-.5-10.2-.9-15.3-.9zm17-85.3H223.3c3.5-9.9 13-17.1 24.1-17.1h170.7v17.1zm76.8 119.8c-17.5-14.8-38.3-25.2-60.5-30.4l-2.5-12.6h28.8c18.8 0 34.1 15.3 34.1 34.1l.1 8.9z"/></symbol><symbol viewBox="0 0 417.8 362.4" id="icon-cond-1" xmlns="http://www.w3.org/2000/svg"><path d="M410.8 55.4h-47.4V7c0-3.9-3.1-7-7-7h-295c-3.9 0-7 3.1-7 7v48.4H28.3C12.7 55.4 0 68.1 0 83.8v245.8c0 18.2 14.7 32.9 32.9 32.9h377.9c3.9 0 7-3.1 7-7v-293c0-3.9-3.1-7.1-7-7.1zm-7 219.1h-82.3c-21.8 0-39.5-17.7-39.5-39.5s17.7-39.5 39.5-39.5h82.3v79zM68.4 14h281v64.6h-16.3V54.5c0-3.9-3.1-7-7-7-7.7 0-14-6.2-14-14 0-3.9-3.1-7-7-7H112.7c-3.9 0-7 3.1-7 7 0 7.7-6.3 13.9-14 14-3.9 0-7 3.1-7 7v24.1H68.4V14zm250.7 64.6H98.7v-18c9.8-2.6 17.5-10.2 20.1-20.1H299c2.6 9.8 10.2 17.5 20.1 20.1v18zM14 83.8c0-7.9 6.4-14.3 14.3-14.3h26.1v9.2H41.6c-3.9 0-7 3.1-7 7s3.1 7 7 7h334.7c3.9 0 7-3.1 7-7s-3.1-7-7-7h-12.8v-9.2h40.4v32.4H28.3c-7.9 0-14.3-6.4-14.3-14.3v-3.8zm18.9 264.6c-10.4 0-18.9-8.5-18.9-18.9V111.9c4.3 2.6 9.3 3.9 14.3 3.9h375.5v65.7h-82.3c-29.5 0-53.5 23.9-53.5 53.5s23.9 53.5 53.5 53.5h82.3v59.9H32.9z"/><path d="M300.1 235.3c0 13.3 10.8 24.1 24.1 24.1s24.1-10.8 24.1-24.1-10.8-24.1-24.1-24.1-24.1 10.8-24.1 24.1zm24.1-10.1c5.6 0 10.1 4.5 10.1 10.1s-4.5 10.1-10.1 10.1-10.1-4.5-10.1-10.1 4.5-10.1 10.1-10.1z"/></symbol><symbol viewBox="0 0 133.6 165.7" id="icon-cond-2" xmlns="http://www.w3.org/2000/svg"><path d="M29 68.8c16 0 29-13 29-29s-13-29-29-29-29 13-29 29 13 28.9 29 29zm0-44c8.3 0 15 6.7 15 15s-6.7 15-15 15-15-6.7-15-15 6.7-15 15-15zm46.6 102.9c0 16 13 29 29 29s29-13 29-29-13-29-29-29c-16 .1-28.9 13-29 29zm44 0c0 8.3-6.7 15-15 15s-15-6.7-15-15 6.7-15 15-15c8.3.1 15 6.8 15 15zM14.4 164.6c3.2 2.1 7.6 1.2 9.7-2l99-151.7c1.4-2.1 1.5-4.8.4-7S120.1.2 117.6.1s-4.9 1.1-6.2 3.2L12.4 155c-2.2 3.2-1.3 7.5 2 9.6z"/></symbol><symbol viewBox="0 0 512 512" id="icon-cond-bonus-1" xmlns="http://www.w3.org/2000/svg"><path d="M511 279.7c-4.6-46.2-25.3-89.8-58.2-122.7-28.1-28.1-62.6-46.2-98.8-54.2V77.3c14.8-3.7 25.8-17.1 25.8-33 0-18.7-15.3-34-34-34h-72c-18.7 0-34 15.3-34 34 0 15.9 11 29.3 25.8 33v25.5c-36.1 8.1-70.4 26.1-98.5 54.2-6.1 6.1-11.8 12.6-17 19.3H78.2c-5.5 0-10 4.5-10 10s4.5 10 10 10h58.4c-7.3 12.3-13.2 25.2-17.7 38.4H10c-5.5 0-10 4.5-10 10s4.5 10 10 10h103.2c-2.9 12.7-4.5 25.5-5 38.4H64c-5.5 0-10 4.5-10 10s4.5 10 10 10h44.5c.8 12.9 2.9 25.8 6.2 38.4H50c-5.5 0-10 4.5-10 10s4.5 10 10 10h71.2c9.8 26 25.1 50.3 46 71.1 32.9 32.9 76.6 53.6 122.9 58.2 6.6.7 13.2 1 19.8 1 39 0 77.5-11.3 110.2-32.6 4.6-3 5.9-9.2 2.9-13.8-3-4.6-9.2-5.9-13.8-2.9-71.6 46.6-167.4 36.5-227.9-24-71-71-71-186.4 0-257.4 71-71 186.4-71 257.4 0 60.4 60.4 70.5 156.2 24.1 227.7-3 4.6-1.7 10.8 2.9 13.8s10.8 1.7 13.8-2.9c24.9-38.3 36-84.5 31.5-130zM334.1 99.3a206.2 206.2 0 00-48.4 0v-21h48.4v21zm10-41h-70.2c-7.7 0-14-6.3-14-14s6.3-14 14-14h72c7.7 0 14 6.3 14 14s-6.3 14-14 14h-1.8z"/><path d="M310 144.6c-85.5 0-155.1 69.6-155.1 155.1S224.5 454.9 310 454.9s155.1-69.6 155.1-155.1S395.5 144.6 310 144.6zm0 290.3c-74.5 0-135.1-60.6-135.1-135.1S235.5 164.6 310 164.6s135.1 60.6 135.1 135.1S384.5 434.9 310 434.9z"/><path d="M373.3 222.3l-49.5 49.5c-4.1-2-8.8-3.2-13.7-3.2-4.9 0-9.6 1.2-13.7 3.2l-22.2-22.2c-3.9-3.9-10.2-3.9-14.1 0-3.9 3.9-3.9 10.2 0 14.1l22.2 22.2c-2 4.1-3.2 8.8-3.2 13.7 0 17.1 13.9 31.1 31.1 31.1 17.1 0 31.1-13.9 31.1-31.1 0-4.9-1.2-9.6-3.2-13.7l48.1-48.1 1.5-1.5c3.9-3.9 3.9-10.2 0-14.1s-10.5-3.8-14.4.1zM310 310.8c-6.1 0-11.1-5-11.1-11.1s5-11.1 11.1-11.1 11.1 5 11.1 11.1-5 11.1-11.1 11.1zm106.9-20.9h-9.3c-5.5 0-10 4.5-10 10s4.5 10 10 10h9.3c5.5 0 10-4.5 10-10 0-5.6-4.5-10-10-10zm-204.6-.3H203c-5.5 0-10 4.5-10 10s4.5 10 10 10h9.3c5.5 0 10-4.5 10-10s-4.4-10-10-10zm97.8-77.5c5.5 0 10-4.5 10-10v-9.3c0-5.5-4.5-10-10-10s-10 4.5-10 10v9.3c0 5.5 4.5 10 10 10zm-.2 175.3c-5.5 0-10 4.5-10 10v9.3c0 5.5 4.5 10 10 10s10-4.5 10-10v-9.3c0-5.5-4.5-10-10-10z"/><path d="M310.5 97.9C199.2 97.9 109 188.1 109 299.4s90.2 201.5 201.5 201.5S512 410.7 512 299.4 421.8 97.9 310.5 97.9zm0 382.6c-100.1 0-181.2-81.1-181.2-181.2s81.1-181.2 181.2-181.2 181.2 81.1 181.2 181.2-81.1 181.2-181.2 181.2z"/></symbol><symbol viewBox="0 0 512 512" id="icon-cond-bonus-2" xmlns="http://www.w3.org/2000/svg"><path d="M346 0c-5.5 0-10 4.5-10 10v46c0 5.5 4.5 10 10 10s10-4.5 10-10V10c0-5.5-4.5-10-10-10zM116 312c-5.5 0-10 4.5-10 10s4.5 10 10 10 10-4.5 10-10-4.5-10-10-10z"/><path d="M486 292c0-22.1-17.9-40-40-40h-74.7c11.6-29.6 16.2-64.4 15.3-95.5-.2-5.9-.4-9.3-.7-11.5-.5-21.6-18.3-39-40-39-22.1 0-40 17.9-40 40v10c0 63.2-81.2 98.8-142.5 114-4.6-10.6-15.2-18-27.5-18H36c-5.5 0-10 4.5-10 10v240c0 5.5 4.5 10 10 10h100c12.2 0 22.7-7.3 27.4-17.8 5.1 1.3 9.8 2.5 14.1 3.7 34.9 9.1 54.1 14.1 100.9 14.1H386c22.1 0 40-17.9 40-40 0-8.2-2.5-15.9-6.8-22.2 15.4-5.4 26.8-20.2 26.8-37.8 0-8.2-2.4-15.9-6.7-22.3 15.4-5.4 26.7-20.1 26.7-37.7 0-8.2-2.5-15.9-6.8-22.2 15.5-5.4 26.8-20.2 26.8-37.8zM146 482c0 5.5-4.5 10-10 10H46V272h90c5.5 0 10 4.5 10 10v200zm300-170h-50c-5.5 0-10 4.5-10 10s4.5 10 10 10h30c11 0 20 9 20 20s-9 20-20 20h-50c-5.5 0-10 4.5-10 10s4.5 10 10 10h30c10.9 0 20 8.7 20 20 0 11-9 20-20 20h-50c-5.5 0-10 4.5-10 10s4.5 10 10 10h30c11 0 20 9 20 20s-9 20-20 20H278.5c-44.2 0-61.5-4.5-95.9-13.5-5-1.3-10.6-2.8-16.6-4.3V290c72.4-17.2 160-59.3 160-134v-10c0-11 9-20 20-20s20 9 20 20c0 4.3 5.4 57.7-16.3 106H316c-5.5 0-10 4.5-10 10s4.5 10 10 10h130c11 0 20 9 20 20s-9 20-20 20z"/><path d="M116 352c-5.5 0-10 4.5-10 10v80c0 5.5 4.5 10 10 10s10-4.5 10-10v-80c0-5.5-4.5-10-10-10zm150-226h-40c-5.5 0-10 4.5-10 10s4.5 10 10 10h40c5.5 0 10-4.5 10-10s-4.5-10-10-10zm200 0h-40c-5.5 0-10 4.5-10 10s4.5 10 10 10h40c5.5 0 10-4.5 10-10s-4.5-10-10-10zm-28.1-81.9c-3.9-3.9-10.2-3.9-14.1 0l-28.3 28.3c-3.9 3.9-3.9 10.2 0 14.1 3.9 3.9 10.2 3.9 14.1 0l28.3-28.3c3.9-3.9 3.9-10.2 0-14.1zM296.5 72.4l-28.3-28.3c-3.9-3.9-10.2-3.9-14.1 0-3.9 3.9-3.9 10.2 0 14.1l28.3 28.3c3.9 3.9 10.2 3.9 14.1 0 3.9-3.9 3.9-10.2 0-14.1z"/></symbol><symbol viewBox="0 0 512 512" id="icon-cond-bonus-3" xmlns="http://www.w3.org/2000/svg"><path d="M150.4 312c7.5-3.8 16.4-1 20.4 6.4l28.2 52.3c2.2 4 6.8 6.1 11.3 4.9 4.4-1.1 7.5-5.1 7.5-9.7v-158c0-5.5-4.5-10-10-10s-10 4.5-10 10v118.5l-9.4-17.5c-9.2-17-29.8-23.5-47-14.8-14.7 7.4-22.3 23.8-18.4 39.9l18.3 75.9c4.3 17.7 11.9 34.2 22.7 48.9l35.9 49.1c2 2.7 5 4.1 8.1 4.1 2 0 4.1-.6 5.9-1.9 4.5-3.3 5.4-9.5 2.2-14l-36-49.1c-9.2-12.6-15.7-26.7-19.4-41.8l-18.3-75.9c-1.6-7 1.7-14.1 8-17.3z"/><path d="M376.2 269.4c-5.9 0-11.5 1.5-16.3 4.2-4.9-12.8-17.3-21.9-31.8-21.9-6.2 0-12.1 1.7-17.1 4.6-5.4-11.7-17.2-19.9-30.9-19.9-5 0-9.8 1.1-14 3v-47.8c0-18.8-15.3-34-34-34s-34 15.3-34 34V209c0 5.5 4.5 10 10 10s10-4.5 10-10v-17.3c0-7.7 6.3-14 14-14s14 6.3 14 14v141.1c0 5.5 4.5 10 10 10s10-4.5 10-10v-62.3c0-7.7 6.3-14 14-14s14 6.3 14 14v62.3c0 5.5 4.5 10 10 10s10-4.5 10-10v-47.1c0-7.7 6.3-14 14-14s14 6.3 14 14v47.1c0 5.5 4.5 10 10 10s10-4.5 10-10v-29.3c0-7.7 6.3-14 14-14s14 6.3 14 14v84.4c0 22.5-3.4 44.8-10.1 66.2L366 499c-1.7 5.3 1.3 10.9 6.5 12.5 1 .3 2 .5 3 .5 4.3 0 8.2-2.7 9.5-7l14.1-45c7.3-23.4 11.1-47.7 11.1-72.2v-84.4c.1-18.7-15.2-34-34-34zM511.2 53c-2-6.1-7.2-10.5-13.6-11.5L467 37.1 453.2 9.4c-2.9-5.8-8.6-9.4-15.1-9.4S425.9 3.6 423 9.4l-13.7 27.8-30.6 4.5c-6.4.9-11.6 5.3-13.6 11.5-2 6.1-.4 12.8 4.3 17.3l22.2 21.6-5.2 30.5c-1.1 6.4 1.5 12.7 6.7 16.5 3 2.1 6.4 3.2 9.9 3.2 2.7 0 5.4-.6 7.9-2l27.4-14.4 27.4 14.4c5.7 3 12.5 2.5 17.7-1.3 5.2-3.8 7.8-10.1 6.7-16.5L484.9 92l22.2-21.6c4.4-4.6 6.1-11.2 4.1-17.4zm-41.6 25.7c-4 3.9-5.8 9.4-4.8 14.9l4.4 25.8-23.2-12.1c-4.9-2.6-10.8-2.6-15.7 0l-23.2 12.2 4.4-25.8c.9-5.5-.9-11-4.8-14.9l-18.8-18.3 25.9-3.8c5.5-.8 10.2-4.2 12.7-9.2L438.1 24l11.6 23.5c2.5 5 7.2 8.4 12.7 9.2l25.9 3.8-18.7 18.2zM329 53c-2-6.1-7.2-10.5-13.6-11.5l-30.6-4.4-13.7-27.7C268.2 3.6 262.4 0 256 0c-6.5 0-12.2 3.6-15.1 9.4l-13.7 27.8-30.6 4.5c-6.4.9-11.6 5.3-13.6 11.5-2 6.1-.4 12.8 4.3 17.3l22.2 21.6-5.2 30.5c-1.1 6.4 1.5 12.7 6.7 16.5 2.9 2.1 6.4 3.2 9.9 3.2 2.7 0 5.4-.6 7.9-2l27.4-14.4 27.4 14.4c5.7 3 12.5 2.5 17.7-1.3 5.2-3.8 7.8-10.1 6.7-16.5L302.8 92 325 70.4c4.4-4.6 6-11.2 4-17.4zm-41.6 25.7c-4 3.9-5.8 9.4-4.8 14.9l4.4 25.8-23.2-12.2c-4.9-2.6-10.8-2.6-15.7 0L225 119.5l4.4-25.8c.9-5.5-.9-11-4.8-14.9l-18.8-18.3 25.9-3.8c5.5-.8 10.2-4.2 12.7-9.2L256 24l11.6 23.5c2.5 5 7.2 8.4 12.7 9.2l25.9 3.8-18.8 18.2zM146.9 53c-2-6.1-7.2-10.5-13.6-11.5l-30.6-4.4L88.9 9.4C86.1 3.6 80.3 0 73.8 0S61.6 3.6 58.7 9.4L45 37.1l-30.6 4.5C8 42.5 2.8 46.9.8 53.1S.5 65.8 5.1 70.3l22.2 21.6-5.3 30.5c-1.1 6.4 1.5 12.7 6.7 16.5 3 2.1 6.4 3.2 9.9 3.2 2.7 0 5.4-.6 7.9-2l27.4-14.4 27.4 14.4c5.7 3 12.5 2.5 17.7-1.3 5.2-3.8 7.8-10.1 6.7-16.5l-5.2-30.5 22.2-21.6c4.5-4.4 6.2-11 4.2-17.2zm-41.6 25.7c-4 3.9-5.8 9.4-4.8 14.9l4.4 25.8-23.2-12.2c-4.9-2.6-10.8-2.6-15.7 0l-23.2 12.2 4.4-25.8c.9-5.5-.9-11-4.8-14.9L23.6 60.5l25.9-3.8c5.5-.8 10.2-4.2 12.7-9.2L73.8 24l11.6 23.5c2.5 5 7.2 8.4 12.7 9.2l25.9 3.8-18.7 18.2z"/></symbol><symbol viewBox="0 0 512 512" id="icon-cond-bonus-4" xmlns="http://www.w3.org/2000/svg"><path d="M123.9 71.6h-18.2c2.7-20.3 13.9-21.3 19.1-21.8 5.2-.5 9.1-4.8 9.1-10V10c0-2.7-1.1-5.4-3.1-7.3S126-.1 123.3 0C91.7 1.8 54 17.8 54 83.7v52c0 8.7 7.1 15.8 15.8 15.8h54.1c8.7 0 15.8-7.1 15.8-15.8V87.4c-.1-8.7-7.2-15.8-15.8-15.8zm-4.3 59.9H74V83.7c0-46 20.5-58.9 39.9-62.5v10.5C100.5 35.8 85 47.8 85 81.6c0 5.5 4.5 10 10 10h24.6v39.9zm106.5-59.9h-18.2c2.7-20.3 13.9-21.3 19.1-21.8 5.2-.5 9.1-4.8 9.1-10V10c0-2.7-1.1-5.4-3.1-7.3s-4.7-2.9-7.4-2.7c-31.6 1.8-69.3 17.7-69.3 83.7v52c0 8.7 7.1 15.8 15.8 15.8h54.1c8.7 0 15.8-7.1 15.8-15.8V87.4c-.2-8.7-7.2-15.8-15.9-15.8zm-4.3 59.9h-45.6V83.7c0-46 20.5-58.9 39.9-62.5v10.5c-13.4 4.1-28.8 16.1-28.8 49.9 0 5.5 4.5 10 10 10h24.6l-.1 39.9zm63.3-50.7c-1.9-1.9-4.4-2.9-7.1-2.9s-5.2 1.1-7.1 2.9-2.9 4.4-2.9 7.1 1.1 5.2 2.9 7.1 4.4 2.9 7.1 2.9 5.2-1.1 7.1-2.9 2.9-4.4 2.9-7.1-1.1-5.2-2.9-7.1z"/><path d="M334.3 77.9h-12.6c-5.5 0-10 4.5-10 10s4.5 10 10 10h12.6c87 0 157.7 70.8 157.7 157.7 0 74.2-52.6 139.2-125.2 154.4-4.6 1-7.9 5.1-7.9 9.8v58.1l-61.6-61.6c-1.9-1.9-4.4-2.9-7.1-2.9H177.7c-87 0-157.7-70.8-157.7-157.7 0-26.8 6.8-53.3 19.8-76.5 2.7-4.8.9-10.9-3.9-13.6-4.8-2.7-10.9-.9-13.6 3.9C7.7 195.6 0 225.4 0 255.6c0 98 79.7 177.7 177.7 177.7H286l75.7 75.7c1.9 1.9 4.5 2.9 7.1 2.9 1.3 0 2.6-.2 3.8-.8 3.7-1.5 6.2-5.2 6.2-9.2v-74.3c36.2-9.4 68.9-30.2 92.8-59.3 26-31.7 40.3-71.7 40.3-112.7.1-98-79.6-177.7-177.6-177.7z"/><path d="M379.1 177.5H132.9c-5.5 0-10 4.5-10 10s4.5 10 10 10H379c5.5 0 10-4.5 10-10s-4.4-10-9.9-10zm0 53.3H132.9c-5.5 0-10 4.5-10 10s4.5 10 10 10H379c5.5 0 10-4.5 10-10s-4.4-10-9.9-10zm0 53.4H132.9c-5.5 0-10 4.5-10 10s4.5 10 10 10H379c5.5 0 10-4.5 10-10s-4.4-10-9.9-10zm0 53.3H247.9c-5.5 0-10 4.5-10 10s4.5 10 10 10h131.2c5.5 0 10-4.5 10-10s-4.5-10-10-10zm-187.5 0h-.2c-5.5 0-10 4.5-10 10s4.5 10 10 10h.2c5.5 0 10-4.5 10-10s-4.5-10-10-10z"/></symbol><symbol viewBox="0 0 512 512" id="icon-cond-cond-2" xmlns="http://www.w3.org/2000/svg"><path d="M401.1 221.9c-61.2 0-110.9 49.8-110.9 110.9S340 443.7 401.1 443.7 512 394 512 332.8s-49.8-110.9-110.9-110.9zm0 204.8c-51.8 0-93.9-42.1-93.9-93.9s42.1-93.9 93.9-93.9S495 281 495 332.8c-.1 51.8-42.2 93.9-93.9 93.9z"/><path d="M401.1 281.6c-28.2 0-51.2 23-51.2 51.2s23 51.2 51.2 51.2 51.2-23 51.2-51.2c0-28.2-23-51.2-51.2-51.2zm0 85.3c-18.8 0-34.1-15.3-34.1-34.1s15.3-34.1 34.1-34.1 34.1 15.3 34.1 34.1-15.3 34.1-34.1 34.1zM93.9 315.7c-18.8 0-34.1 15.3-34.1 34.1S75 384 93.9 384c18.8 0 34.1-15.3 34.1-34.1 0-18.9-15.3-34.2-34.1-34.2zm0 51.2c-9.4 0-17.1-7.7-17.1-17.1 0-9.4 7.7-17.1 17.1-17.1 9.4 0 17.1 7.7 17.1 17.1-.1 9.5-7.7 17.1-17.1 17.1z"/><path d="M460.8 162.1h-32.3l-8.5-42.7h6.7c4.7 0 8.5-3.8 8.5-8.5V76.8c0-4.7-3.8-8.5-8.5-8.5H247.5c-23.5 0-42.7 19.1-42.7 42.7 0 4.7 3.8 8.5 8.5 8.5h16.2l-7.3 76.9c-.1 0-.2-.1-.4-.1H128c-32.4 0-57.1 32.5-59.5 63.3C29 270.7 0 306.9 0 349.9c0 51.8 42.1 93.9 93.9 93.9 45.9 0 84.2-33.2 92.2-76.8h80.8c2.5 0 4.9-1.1 6.6-3.1 1.6-2 2.3-4.5 1.8-7-1.5-7.9-2.2-15.9-2.2-24 0-70.6 57.4-128 128-128 36.7 0 71.7 15.8 96 43.3 2.3 2.7 6.1 3.6 9.4 2.3 3.3-1.2 5.5-4.4 5.5-8v-29.1c0-28.3-23-51.3-51.2-51.3zM93.9 426.7c-42.3 0-76.8-34.4-76.8-76.8s34.5-76.8 76.8-76.8 76.8 34.4 76.8 76.8c0 42.3-34.5 76.8-76.8 76.8zM257 349.9h-69.3c0-51.8-42.1-93.9-93.9-93.9-2.6 0-5.2.2-7.8.4 1.1-6 3.2-12.1 6.3-17.8.5.1 1 .3 1.5.3h17.1c4.7 0 8.5-3.8 8.5-8.5s-3.8-8.5-8.5-8.5H106c6.4-5.2 13.9-8.5 22-8.5h92.6l-7.2 76c-.2 2.4.6 4.8 2.2 6.6 1.6 1.8 3.9 2.8 6.3 2.8h38.4c-2.7 11-4.2 22.4-4.2 34.1-.1 5.6.2 11.3.9 17zm144.1-162.2c-62 0-114.9 39.2-135.6 94-.3 0-.6-.2-.9-.2h-33.3l15.4-162.1h155.9l13.8 69.2c-5.1-.5-10.2-.9-15.3-.9zm17-85.3H223.3c3.5-9.9 13-17.1 24.1-17.1h170.7v17.1zm76.8 119.8c-17.5-14.8-38.3-25.2-60.5-30.4l-2.5-12.6h28.8c18.8 0 34.1 15.3 34.1 34.1l.1 8.9z"/></symbol><symbol viewBox="0 0 512 512" id="icon-cond-cond-3" xmlns="http://www.w3.org/2000/svg"><path d="M486.4 459.5V190l23.1-23.1c3.3-3.3 3.3-8.7 0-12.1-.5-.5-1-.9-1.6-1.3L260.4 2.5c-2.7-1.7-6.2-1.7-8.9 0L4.1 153.6c-4 2.4-5.3 7.7-2.8 11.7.4.6.8 1.1 1.3 1.6l23 23.1v269.5C11.5 459.5 0 471 0 485.1v17.1c0 4.7 3.8 8.5 8.5 8.5h494.9c4.7 0 8.5-3.8 8.5-8.5v-17.1c.1-14.1-11.4-25.6-25.5-25.6zm-464.2-297L256 19.8l233.8 142.6-13.2 13.2-216.1-133c-2.7-1.7-6.2-1.7-8.9 0l-216.1 133-13.3-13.1zm46.1 331.1H17.1v-8.5c0-4.7 3.8-8.5 8.5-8.5h42.7v17zm145 0h-128V468c0-4.7 3.8-8.5 8.5-8.5h110.9c4.7 0 8.5 3.8 8.5 8.5l.1 25.6zm-102.4-51.2V280.3h76.8v162.1h-76.8zm93.9 0V271.8c0-4.7-3.8-8.5-8.5-8.5h-93.9c-4.7 0-8.5 3.8-8.5 8.5v170.7c-10.8 0-20.4 6.9-24 17.1H42.7V191.2L256 59.9l213.3 131.3v268.3H228.8c-3.6-10.2-13.2-17-24-17.1zm290.1 51.2H230.4v-17.1h256c4.7 0 8.5 3.8 8.5 8.5v8.6z"/><path d="M426.7 246.2H273.1c-4.7 0-8.5 3.8-8.5 8.5v136.5c0 14.1 11.5 25.6 25.6 25.6h119.5c14.1 0 25.6-11.5 25.6-25.6V254.7c-.1-4.7-3.9-8.5-8.6-8.5zm-145.1 17h59.7v42.7h-59.7v-42.7zm0 59.8h59.7v42.7h-59.7V323zm136.5 68.2c0 4.7-3.8 8.5-8.5 8.5H290.1c-4.7 0-8.5-3.8-8.5-8.5v-8.5h136.5v8.5zm0-25.6h-59.7V323h59.7v42.6zm0-59.7h-59.7v-42.7h59.7v42.7zm-281.6 42.7c-4.7 0-8.5 3.8-8.5 8.5v17.1c0 4.7 3.8 8.5 8.5 8.5s8.5-3.8 8.5-8.5v-17.1c.1-4.7-3.8-8.5-8.5-8.5z"/></symbol><symbol id="icon-feat-1" viewBox="0 0 26 26.7" xml:space="preserve" xmlns="http://www.w3.org/2000/svg"><style>.apst0{fill:#fff}</style><path class="apst0" d="M5.2 13.8C2.3 13.8 0 11 0 7.5s2.3-6.3 5.2-6.3c2.9 0 5.2 2.8 5.2 6.3s-2.3 6.3-5.2 6.3zm0-11.3c-2.2 0-3.9 2.2-3.9 5s1.8 5 3.9 5c2.2 0 3.9-2.2 3.9-5 0-2.7-1.7-5-3.9-5z"/><path class="apst0" d="M5.2 11.2c-1.7 0-3.1-1.6-3.1-3.7s1.4-3.7 3.1-3.7c1.7 0 3.1 1.6 3.1 3.7s-1.4 3.7-3.1 3.7zm0-6.1c-1 0-1.8 1.1-1.8 2.4s.8 2.4 1.8 2.4S7 8.8 7 7.5s-.8-2.4-1.8-2.4zm15.6 20.3c-2.9 0-5.2-2.8-5.2-6.3s2.3-6.3 5.2-6.3c2.9 0 5.2 2.8 5.2 6.3s-2.3 6.3-5.2 6.3zm0-11.2c-2.2 0-3.9 2.2-3.9 5s1.8 5 3.9 5c2.2 0 3.9-2.2 3.9-5s-1.8-5-3.9-5zM7.6 26.7h-4c-.2 0-.4-.1-.6-.3-.1-.2-.1-.4 0-.6L17.8.3c.1-.2.3-.3.5-.3h4c.2 0 .4.1.6.3.1.2.1.5 0 .7L8.1 26.4c-.1.2-.3.3-.5.3zm-2.9-1.3h2.5l14-24.1h-2.5l-14 24.1z"/><path class="apst0" d="M20.8 22.8c-1.7 0-3.1-1.6-3.1-3.7s1.4-3.7 3.1-3.7c1.7 0 3.1 1.6 3.1 3.7s-1.4 3.7-3.1 3.7zm0-6c-1 0-1.8 1.1-1.8 2.4s.8 2.4 1.8 2.4 1.8-1.1 1.8-2.4-.8-2.4-1.8-2.4z"/></symbol><symbol id="icon-feat-2" viewBox="0 0 26 26" xml:space="preserve" xmlns="http://www.w3.org/2000/svg"><style>.aqst0{fill:#fff}</style><path class="aqst0" d="M8.4 7.2H7.2c-.2 0-.4.2-.4.4s.2.4.4.4H8c0 .2.2.3.4.3s.4-.2.4-.4v-.3c0-.2-.2-.4-.4-.4zm4 0h-1.1c-.2 0-.4.2-.4.4v.3c0 .2.2.4.4.4s.3-.1.4-.3h.7c.2 0 .4-.2.4-.4s-.2-.4-.4-.4zm-1.7 2.5H8.9c-.2 0-.4.2-.4.4s.2.4.4.4h1.8c.2 0 .4-.2.4-.4s-.1-.4-.4-.4z"/><path class="aqst0" d="M15.5 5.8c-.1-.2-.2-.3-.4-.3h-1c-1.5 0-2.9-.7-3.9-1.8-.1-.1-.2-.1-.3-.1-.1 0-.2.1-.3.1-1 1.2-2.4 1.8-3.9 1.8h-1c-.2 0-.3.1-.4.3-.3.6-.4 1.2-.4 1.8V9c0 3.3 2.7 5.9 5.9 5.9s5.9-2.7 5.9-5.9V7.6c.1-.6 0-1.2-.2-1.8zM14.9 9c0 2.8-2.3 5.1-5.1 5.1S4.7 11.8 4.7 9V7.6c0-.4.1-.8.2-1.2h.7c1.6 0 3.1-.6 4.2-1.8 1.1 1.1 2.6 1.8 4.2 1.8h.7c.1.4.2.8.2 1.2V9z"/><path class="aqst0" d="M24.6 12.2c-.2 0-.4 0-.6.1v-.9c0-.8-.6-1.4-1.4-1.4-.2 0-.4 0-.6.1V10c0-.8-.6-1.4-1.4-1.4S19 9.2 19 10v.1c-.1-.1-.2-.1-.3-.1-.2-.6-.7-1.1-1.3-1.4v-1C17.4 3.4 14 0 9.8 0S2.2 3.4 2.2 7.6v1C1.3 9.1.8 10 .8 11c0 .5.1.9.4 1.4-.4.7-.6 1.4-.6 2.2 0 1.7 1 3.2 2.5 3.9C1.2 20.2 0 22.8 0 25.6c0 .2.2.4.4.4s.4-.2.4-.4c0-3.4 1.9-6.4 4.8-7.9.1.5.3 1.1.6 1.6v.1c1.1 1.9 3.2 3.3 3.3 3.4.1.1.2.1.2.1s.2 0 .2-.1c.2-.1 3.5-2.5 4-5.1.3.2.6.3.9.5v2.3c0 3 2.5 5.5 5.6 5.5 1.5 0 2.9-.6 3.9-1.6s1.6-2.4 1.6-3.9v-6.8c.1-.8-.5-1.5-1.3-1.5zm-2.7-.7c0-.3.3-.6.6-.6s.6.3.6.6V17h-1.2v-5.5zm-2-1.5c0-.3.3-.6.6-.6s.6.3.6.6v7h-1.2v-7zm-1.5.8c.4 0 .6.3.6.6V17h-1.2v-5.5c0-.4.3-.6.6-.7zM9.8 21.9c-.5-.4-1.6-1.3-2.4-2.4h4.8c-.8 1.1-1.9 2-2.4 2.4zm3-3.3h-6c-.2-.4-.4-.9-.5-1.4 1.1-.4 2.2-.7 3.4-.7 1.2 0 2.4.2 3.4.7.1.5-.1 1-.3 1.4zm2.1-3.2v1.8c-1.5-.9-3.3-1.4-5.1-1.4-1.4 0-2.8.3-4 .9h-.1c-.7.3-1.3.7-1.9 1.1-1.4-.4-2.4-1.8-2.4-3.3 0-.7.2-1.4.6-2 .1-.1.1-.3 0-.5-.2-.3-.4-.7-.4-1.1 0-.7.5-1.4 1.2-1.7.1 0 .2-.1.2-.3V7.6C3 3.9 6 .8 9.8.8s6.8 3 6.8 6.8v1.3c0 .2.1.3.3.4.4.2.8.5 1 .8-.5.2-.8.7-.8 1.3V14c-.2-.1-.4-.1-.6-.1-.9 0-1.6.7-1.6 1.5zm10.3 5.1c0 2.6-2.1 4.7-4.7 4.7s-4.7-2.1-4.7-4.7v-5.2c0-.3.3-.6.6-.6s.6.3.6.7V19c0 .2.2.4.4.4 1.5 0 2.7 1.2 2.7 2.7 0 .2.2.4.4.4s.4-.2.4-.4c0-.9-.4-1.8-1-2.5-.6-.6-1.3-.9-2.1-1v-.9h6.1c.2 0 .4-.2.4-.4s-.2-.4-.4-.4v-3.4c.1-.3.3-.5.6-.5s.6.3.6.6l.1 6.9z"/></symbol><symbol id="icon-feat-3" viewBox="0 0 26 25.4" xml:space="preserve" xmlns="http://www.w3.org/2000/svg"><style>.arst0{fill:#fff}</style><path class="arst0" d="M12.8 10.7c-.2 0-.3-.1-.5-.2L6.1 3.4c-.2-.3-.2-.7 0-.9C7.4 1.3 9 .5 10.8.2c1.7-.4 3.5-.2 5.2.4.3.1.5.4.4.8l-3 9c-.1.2-.2.4-.5.4l-.1-.1zM7.4 3l5.1 5.9L15 1.5c-1.3-.4-2.7-.4-4-.1-1.3.2-2.5.8-3.6 1.6z"/><path class="arst0" d="M13.2 25.4C7.1 25.4 1.7 21.1.3 15.3-.7 11 .7 6.7 4 3.9c.2-.2.6-.2.8.1l8 8.9 10.3 6.4c.1.1.2.2.3.4 0 .2 0 .3-.1.5-1.8 2.8-4.6 4.6-8 5.2h-2.1zM4.4 5.2C1.7 7.7.7 11.4 1.5 15c1.2 5.3 6.1 9.2 11.7 9.2.6 0 1.3-.1 1.9-.2 2.8-.5 5.2-1.9 6.8-4.2L12 13.7l-.1-.1-7.5-8.4z"/><path class="arst0" d="M23.7 18.2c-.1 0-.2 0-.3-.1l-9.3-5.8c-.2-.1-.3-.4-.3-.7v-.2l3.6-10.1c.1-.3.5-.5.8-.4 3.8 1.4 6.7 4.6 7.6 8.6.6 2.9.1 5.8-1.5 8.3-.2.3-.4.4-.6.4zm-8.6-6.7l8.4 5.3c1.2-2.1 1.5-4.5 1-6.9-.7-3.3-3.1-6.1-6.2-7.5l-3.2 9.1z"/></symbol><symbol id="icon-feat-4" viewBox="0 0 33 27.5" xml:space="preserve" xmlns="http://www.w3.org/2000/svg"><style>.asst0{fill:#fff}</style><path class="asst0" d="M22.1 27.5H2c-1.1 0-2-.9-2-2V14.3c0-1.1.9-2 2-2h11.2c.4 0 .7.3.7.7 0 .4-.3.7-.7.7H2c-.3 0-.6.3-.6.6v11.2c0 .3.3.6.6.6h20.1c.3 0 .6-.3.6-.6v-8.8c0-.4.3-.7.7-.7.4 0 .7.3.7.7v8.8c0 1.1-.9 2-2 2zm2.2-14.2c-.1 0-.3 0-.4-.1l-5.7-4.1c-.3-.2-.4-.6-.1-.9l4.8-6.7C23.6.6 24.6 0 25.8 0c.8 0 1.5.2 2.1.7l1 .7c1.6 1.2 2 3.4.8 5l-4.8 6.7c-.1.1-.3.2-.4.3-.1-.1-.2-.1-.2-.1zm-4.8-4.9l4.6 3.3 4.4-6.1c.7-1 .5-2.4-.5-3.2l-1-.7c-.4-.3-.8-.4-1.3-.4-.7 0-1.4.3-1.8.9l-4.4 6.2z"/><path class="asst0" d="M12.3 23.6c-.1 0-.3 0-.4-.1-.2-.2-.3-.4-.2-.7l1.7-7.2c0-.1.1-.2.1-.2l5-6.8c.2-.3.6-.4.9-.1.3.2.4.6.1.9l-4.9 6.7-1.3 5.6 5.1-2.9 4.9-6.7c.2-.3.6-.4.9-.1.3.2.4.6.1.9l-5 6.8-.2.2-6.5 3.7h-.3z"/><path class="asst0" d="M18.7 19.9c-.1 0-.3 0-.4-.1l-4.6-3.3c-.3-.2-.4-.6-.1-.9.2-.3.6-.4.9-.1l4.6 3.3c.3.2.4.6.1.9-.1.1-.3.2-.5.2zm8.8-3.8c-.5 0-1-.2-1.4-.5-.5-.4-.9-.9-1-1.5-.1-.6 0-1.3.4-1.8.4-.6 1.2-1 1.9-1 .5 0 1 .2 1.4.5.5.4.9.9 1 1.5.1.6 0 1.3-.4 1.8-.4.6-1.1 1-1.9 1zm0-3.4c-.3 0-.6.2-.8.4-.2.2-.2.5-.2.8 0 .3.2.5.4.7.2.1.4.2.6.2.3 0 .6-.2.8-.4.2-.2.2-.5.2-.8 0-.3-.2-.5-.4-.7-.2-.2-.4-.2-.6-.2z"/><path class="asst0" d="M28.4 12.6c-.2 0-.4-.1-.5-.2-.2-.3-.2-.7.1-.9.6-.5 1-.9 1.9-1.9l.7-.7c.9-.9 1.1-1.4 1.1-1.6 0-.1 0-.2-.4-.5l-1.5-1.1c-.3-.2-.4-.6-.1-.9.2-.3.6-.4.9-.1l1.4.8c.6.4.9.9 1 1.5.1.8-.4 1.6-1.4 2.7l-.7.7c-1 1-1.4 1.4-2 1.9-.2.2-.4.3-.5.3zM10.2 18.4H4.4c-.4 0-.7-.3-.7-.7 0-.4.3-.7.7-.7h5.8c.4 0 .7.3.7.7 0 .4-.3.7-.7.7zM10 21.6H4.4c-.4 0-.7-.3-.7-.7 0-.4.3-.7.7-.7H10c.4 0 .7.3.7.7 0 .4-.3.7-.7.7z"/></symbol><symbol id="icon-feat-5" viewBox="0 0 32 32" xml:space="preserve" xmlns="http://www.w3.org/2000/svg"><style>.atst0{fill:#fff;stroke:#fff;stroke-width:4;stroke-miterlimit:10}</style><path class="atst0" d="M27.7 3.9h-2.3v-.5c0-.8-.6-1.4-1.4-1.4h-1c-.8 0-1.4.6-1.4 1.4v.5H10.4v-.5C10.4 2.6 9.8 2 9 2h-.9c-.8 0-1.4.6-1.4 1.4v.5H4.3C3 3.9 2 4.9 2 6.2v21.5C2 29 3 30 4.3 30h23.3c1.3 0 2.3-1 2.3-2.3V6.2c.1-1.3-.9-2.3-2.2-2.3zm-5.2-.5c0-.3.2-.5.5-.5h.9c.3 0 .5.2.5.5v2.8c0 .3-.2.5-.5.5H23c-.3 0-.5-.2-.5-.5V3.4zm-14.9 0c0-.3.2-.5.5-.5H9c.3 0 .5.2.5.5v2.8c0 .3-.2.5-.5.5h-.9c-.3 0-.5-.2-.5-.5V3.4zM2.9 6.2c0-.8.6-1.4 1.4-1.4h2.3v1.4c0 .8.6 1.4 1.4 1.4h1c.8 0 1.4-.6 1.4-1.4V4.8h11.2v1.4c0 .8.6 1.4 1.4 1.4h.9c.8 0 1.4-.6 1.4-1.4V4.8h2.3c.8 0 1.4.6 1.4 1.4v3.3H2.9V6.2zm26.2 21.5c0 .8-.6 1.4-1.4 1.4H4.3c-.8 0-1.4-.6-1.4-1.4V10.4H29v17.3z"/><path class="atst0" d="M15.1 14.6h-3.7v3.7h3.7v-3.7zm-1 2.8h-1.9v-1.9h1.9v1.9zm6.6-2.8H17v3.7h3.7v-3.7zm-1 2.8h-1.9v-1.9h1.9v1.9zm6.6-2.8h-3.7v3.7h3.7v-3.7zm-1 2.8h-1.9v-1.9h1.9v1.9zM9.5 14.6H5.7v3.7h3.7v-3.7zm-1 2.8H6.7v-1.9h1.9v1.9zm1 3.4H5.7v3.7h3.7v-3.7zm-1 2.8H6.7v-1.9h1.9v1.9zm6.6-2.8h-3.7v3.7h3.7v-3.7zm-1 2.8h-1.9v-1.9h1.9v1.9zm6.6-2.8H17v3.7h3.7v-3.7zm-1 2.8h-1.9v-1.9h1.9v1.9z"/></symbol><symbol id="icon-feat-6" viewBox="0 0 29 26.7" xml:space="preserve" xmlns="http://www.w3.org/2000/svg"><style>.aust0{fill:#fff}</style><path class="aust0" d="M25.2 26.7H3.8c-1.3 0-2.4-1.2-2.4-2.6V13.7c0-.3.3-.6.6-.6s.6.3.6.6V24c0 .7.5 1.3 1.1 1.3h21.5c.6 0 1.1-.6 1.1-1.3V13.9c0-.3.3-.6.6-.6s.6.3.6.6v10.2c.1 1.4-.9 2.6-2.3 2.6z"/><path class="aust0" d="M11.9 16.4c-4.2-.3-8.2-1.2-11.5-2.6-.3-.1-.4-.4-.4-.6V7.1c0-1.4 1.2-2.6 2.6-2.6h23.8c1.4 0 2.6 1.2 2.6 2.6v6.1c0 .3-.1.5-.4.6-3.3 1.4-7.2 2.3-11.3 2.6-.4 0-.6-.2-.7-.6 0-.3.2-.6.6-.7 3.8-.3 7.5-1.1 10.5-2.3V7.1c0-.7-.6-1.3-1.3-1.3H2.6c-.7 0-1.3.6-1.3 1.3v5.7c3.1 1.3 6.8 2.1 10.7 2.3.3 0 .6.3.6.7-.1.3-.4.6-.7.6z"/><path class="aust0" d="M16.9 19.6h-4.8c-.4 0-.8-.4-.8-.8v-4.4c0-.5.3-.8.8-.8h4.8c.4 0 .8.4.8.8v4.4c0 .4-.4.8-.8.8zm-4.4-1.2h4v-3.6h-4v3.6zM19 5.1c-.3 0-.6-.3-.6-.6V3.3c0-1.1-.9-2.1-2.1-2.1h-3.5c-1.1 0-2.1.9-2.1 2.1v1.2c0 .3-.3.6-.6.6s-.7-.3-.7-.6V3.3c0-1.8 1.5-3.3 3.3-3.3h3.5c1.8 0 3.3 1.5 3.3 3.3v1.2c.1.3-.2.6-.5.6z"/></symbol><symbol viewBox="0 0 415.9 498.8" id="icon-feat-7" xmlns="http://www.w3.org/2000/svg"><path d="M71.9 379.4c34.6 41.6 77.7 75.4 126.5 99 18 8.6 42 18.7 68.1 20.3 1.5.1 3 .1 4.3.1 14.9 0 26.9-5.1 36.7-15.6.1-.1.2-.2.2-.3 5-5.7 10.2-11.2 15.8-16.3l1.9-1.9c3-2.9 5.8-5.6 8.6-8.6 11.2-11.7 11.1-24.8-.2-36.1l-46.3-46.3-.1-.1c-2.9-3.2-8.9-8.3-17.2-8.3-6.1 0-12.2 2.9-17.6 8.4l-28.8 28.8c-1.1 1.1-3.8 3.8-7.8 3.8-1.8 0-3.5-.5-5.1-1.3-.2-.1-.5-.3-.7-.4-2.7-1.6-5.6-3.1-8.7-4.7-3.3-1.6-6.6-3.4-9.7-5.3-26.3-16.7-50.2-38.4-73-66.4-.1-.1-.1-.2-.2-.3-12.3-15.6-20.3-28.7-25.9-42.2l-.2-.5c-1.4-4.5-1.4-7.9 2.7-12l.2-.2c7.2-6.5 13.7-13 21.3-20.7 1.7-1.6 3.3-3.3 4.9-4.8l2.4-2.4c11.6-11.6 11.6-24.4 0-36l-23-22.9c-1.3-1.4-2.7-2.7-4-4.1-1.3-1.4-2.7-2.7-4-4-5.6-5.8-10.3-10.6-15.3-15.2l-.2-.2c-5.2-5.2-11.2-7.9-17.2-7.9s-12.1 2.7-17.6 7.9l-.2.2-28.7 28.7C5.8 199.4 1 209.8.2 221c-1.4 16.6 1.7 33.8 9.8 55.6 13.1 34.9 32.7 67.6 61.9 102.8zm190.6 4.3c1.6-1.6 4.7-4.3 7.7-4.3 3.1 0 5.9 2.7 6.9 3.9l.3.3L324 430c5.8 5.8 5.9 10.2.2 16.2-.3.2-.5.5-.7.8-.2.3-.5.5-.8.8l-62.2-62.2 2-1.9zM52.4 172.8c2.8-2.6 5.5-4 7.9-4 2.9 0 5.6 2.1 7.3 3.8l.3.3.2.2c4.8 4.5 9.4 9.2 14.9 14.8 1.3 1.4 2.7 2.7 4 4.1 1.3 1.3 2.6 2.7 4 4l.1.1 23 23c6.2 6.2 6.2 10 0 16.2l-2 2-62-62 2.3-2.5zM14.3 222c.5-7.8 3.9-15.2 9.6-20.6l16.3-16.3 62 62c-5.6 5.6-10.7 10.6-16.2 15.6-.4.3-.7.6-1 1-10.5 10.8-6.9 22.1-5.8 25.8v.1l.3.8c.1.2.1.3.2.5 6.2 14.9 14.8 29.1 28.1 46 .1.1.2.3.3.4 23.7 29.1 48.6 51.8 76.2 69.2 3.5 2.2 7.2 4.2 11 6 2.9 1.4 5.6 2.8 7.8 4.1.1.1.3.2.4.2h.1c.4.2.7.4 1.1.6 3.5 1.8 7.5 2.8 11.5 2.8 6.6 0 12.5-2.6 17.7-7.9l16.9-16.9 62.1 62.1c-5.4 5.1-10.6 10.5-15.5 16.1-7.2 7.6-15.3 11-26.4 11-1.2 0-2.4 0-3.4-.1-23.8-1.5-46.2-11-63-19-47.1-22.5-88.6-55-122-95.1-28.1-33.9-47-65.3-59.4-98.8-7.3-19.9-10.1-35.2-8.9-49.6z"/><path d="M198 261.1l-12.5 46.2c-1 3.7 1.2 7.6 4.9 8.6 2 .5 4.1.2 5.8-1l49.1-34.4c9.5 1.9 19.1 2.9 28.8 2.9 78.1 0 141.7-63.6 141.7-141.7S352.3 0 274.2 0 132.5 63.6 132.5 141.7c0 48.4 24.7 93.4 65.5 119.4zM274.2 14c70.5.1 127.6 57.3 127.5 127.8s-57.3 127.6-127.8 127.5c-9.6 0-19.1-1.1-28.4-3.2-1.9-.4-4 0-5.6 1.1l-35.8 25.1 8.8-32.6c.8-3-.5-6.3-3.2-7.9C148.8 216.2 128.4 138 164 77.1 187 38 228.9 14 274.2 14z"/><circle cx="224.5" cy="140.5" r="16.8"/><circle cx="275.5" cy="140.5" r="16.8"/><circle cx="326.5" cy="140.5" r="16.8"/></symbol><symbol viewBox="0 0 512 268" id="icon-feat-8" xmlns="http://www.w3.org/2000/svg"><path d="M215.4 19.5c-5.6 0-10.2 3.4-10.2 7.6s4.5 7.6 10.2 7.6h38.9c5.6 0 10.2-3.4 10.2-7.6s-4.5-7.6-10.2-7.6h-38.9zm-19.7 30h-13.2c-8 0-11.6 2.6-15.8 5.7-.5.3-1 .7-1.5 1.1l-23.7 17.1c-7.9 5.7-7.9 13.1-7.9 16.3v7.6c0 5.1 4.5 9.3 10.3 9.4h.1l47.2.1h.4c5.4 0 9.8-1.6 12.9-4.6 4.9-4.8 4.9-11.3 4.9-14.8V61.5c-.3-7.4-5.6-12-13.7-12zm-1.3 37.8c0 1 0 3.2-.4 4-.2.1-.9.3-2.5.3h-.1l-42.6-.1v-1.8c0-2.2 0-2.9 1.6-4l23.7-17.1c.6-.4 1.1-.8 1.6-1.2 3.3-2.4 3.7-2.7 6.8-2.7h11.8l.1 22.6zM99 187.3c-13.2 0-24 10.8-24 24s10.8 24 24 24c13.3 0 24.1-10.8 24.1-24s-10.8-24-24.1-24zm0 33c-4.9 0-8.9-4-8.9-8.9s4-8.9 8.9-8.9 8.9 4 8.9 8.9c.1 4.9-4 8.9-8.9 8.9zm303.7-33.8c-13.3 0-24.1 10.8-24.1 24 0 13.3 10.8 24 24.1 24s24.1-10.8 24.1-24c0-13.3-10.8-24-24.1-24zm0 32.9c-4.9 0-8.9-4-8.9-8.9s4-8.9 8.9-8.9 8.9 4 8.9 8.9-4 8.9-8.9 8.9z"/><path d="M449.4 98.3l-47.2-9.1c-5.3-1-7-1.4-8.7-2.3-2.1-1.2-5.1-3.7-10.4-8.4-1.9-1.7-4.1-3.6-6.7-5.8l-47.9-41.4c-13.3-11.5-18-11.9-36.2-11.8h-10.9l-28.9-.3h-.1c-4.1 0-7.5 3.3-7.6 7.5 0 4.2 3.3 7.6 7.5 7.6l28.9.3c4.3.1 8 0 11.2 0 16.1-.1 16.8-.1 26.2 8.1l47.9 41.4c2.6 2.2 4.7 4.1 6.6 5.7 12.5 10.9 13.7 11.8 26.2 14.2l47.2 9.1c46.1 8.9 50.4 10.9 50.4 23.3v4.3h-22.3c-9.9 0-18 8.1-18 18v7.9c0 9.9 8.1 18 18 18h22.3v34c0 3-.9 3.9-1.2 4.2-.7.7-3 2.2-9.9 2h-28.3c1.2-4.6 1.9-9.4 1.9-14.4 0-31.2-25.4-56.6-56.7-56.6-25.4 0-46.9 16.8-54.1 39.8h-84.4c-4.2 0-7.6 3.4-7.6 7.6s3.4 7.6 7.6 7.6h81.9v1.7c0 5 .7 9.8 1.9 14.4H154c1.1-4.3 1.7-8.9 1.7-13.6 0-.9 0-1.8-.1-2.6h77.2c4.2 0 7.6-3.4 7.6-7.6s-3.4-7.6-7.6-7.6h-80c-7.5-22.6-28.8-38.9-53.8-38.9-31.2 0-56.6 25.4-56.6 56.7 0 1.4.1 2.8.2 4.1l-24.5-6.7c-1.9-.5-3-1.2-2.9-7V158l15.8-3.5c1.5-.3 3-.6 4.3-.9 9.6-1.9 15.9-3.6 23.9-15.1l8.4-12.1c3.3-4.8 3.8-10.3 1.3-15-2.5-4.7-7.6-8-12.5-8H15.1c0-6.4 1.6-11.5 4.7-14.6 3-3.1 6.9-3.7 9.5-3.7h55.8c6.1.1 11.4.2 19.6-6l49-37c6.6-5 13.7-7.6 20.5-7.6h42.5c4.2 0 7.6-3.4 7.6-7.6s-3.4-7.6-7.6-7.6h-42.4c-10.1 0-20.4 3.7-29.7 10.7l-49 37c-4 3-5.1 3-10.2 2.9h-3.8V54.6h3c7 0 12.7-5.7 12.7-12.7v-22c0-6.5-5-11.8-11.9-12.6L20.2.1c-3.3-.4-6.7.7-9.2 3C8.3 5.5 6.7 9 6.7 12.7v29.2c0 7 5.7 12.7 12.7 12.7h11.9v15.6h-1.9c-7.8 0-15.1 2.9-20.3 8.3-4.2 4.3-9.2 12.3-9 26.1v97.1c-.1 11.8 4.6 19 14 21.6l32.3 8.9c8.3 21 28.8 35.8 52.6 35.8 20.8 0 39-11.3 48.8-28h206.5c10 16.3 27.9 27.1 48.3 27.1s38.4-10.9 48.3-27.1h35.9c8.6 0 15-2.1 19.3-6.3 3.8-3.7 5.7-8.8 5.7-15v-82.2c.2-26.1-18.1-29.6-62.4-38.2zM21.8 15.5l60.3 6.7v17.3H21.8v-24zm24.6 39.1h20v15.6h-20V54.6zm.3 75.4c-4.9 7-7.1 7.5-14.4 8.9-1.4.3-3 .6-4.6 1l-12.5 2.8v-24h39.5l-8 11.3zM99 252.9c-22.9 0-41.5-18.6-41.5-41.5s18.6-41.6 41.5-41.6 41.6 18.6 41.6 41.6c0 22.9-18.7 41.5-41.6 41.5zm303.7-.9c-22.9 0-41.6-18.6-41.6-41.6 0-22.9 18.6-41.5 41.6-41.5s41.6 18.6 41.6 41.5c0 23-18.7 41.6-41.6 41.6zm71.8-82.4c-1.6 0-2.9-1.3-2.9-2.9v-7.9c0-1.6 1.3-2.9 2.9-2.9h22.3v13.7h-22.3z"/><path d="M222 62.4v29.7c0 3-.1 7.6 3.5 11.1 3.4 3.4 8.1 3.7 10.3 3.7h97.6c5.8-.2 10.1-4.2 10.1-9.4v-6.2c0-4.5-2.1-8.6-5.7-11.2L306 56.7c-.6-.4-1.1-.8-1.6-1.1-4-2.9-7.7-5.7-15.7-5.7h-52.9c-8.1 0-13.4 4.6-13.7 12-.1.1-.1.3-.1.5zm15.1 28.8V64.9h51.6c3.1 0 3.5.3 6.7 2.7.5.4 1.1.8 1.7 1.2l31.1 22.9h-91.1v-.5zm-10 102.4c-5.6 0-10.2 3.4-10.2 7.6s4.5 7.6 10.2 7.6H266c5.6 0 10.2-3.4 10.2-7.6s-4.5-7.6-10.2-7.6h-38.9z"/></symbol><symbol id="icon-feat-cond1" viewBox="0 0 133 78.3" xml:space="preserve" xmlns="http://www.w3.org/2000/svg"><style>.axst0{fill:#565f73}</style><path class="axst0" d="M126.2 78.3H6.8C3 78.3 0 75.1 0 71.2V7.1C0 3.2 3 0 6.8 0h119.5c3.7 0 6.8 3.2 6.8 7.1v64.1c-.1 3.9-3.1 7.1-6.9 7.1zM6.8 6c-.4 0-.8.4-.8 1.1v64.1c0 .6.4 1.1.8 1.1h119.5c.4 0 .8-.4.8-1.1V7.1c0-.6-.4-1.1-.8-1.1H6.8z"/><path class="axst0" d="M66.5 66.7c-12 0-21.8-12.4-21.8-27.6 0-15.2 9.8-27.6 21.8-27.6s21.8 12.4 21.8 27.6c0 15.3-9.8 27.6-21.8 27.6zm0-49.2c-8.7 0-15.8 9.7-15.8 21.6s7.1 21.6 15.8 21.6c8.7 0 15.8-9.7 15.8-21.6s-7.1-21.6-15.8-21.6z"/><path class="axst0" d="M104.9 69.2H84.3c-1.7 0-3-1.3-3-3s1.3-3 3-3h17.5c.5-9.1 7-16.5 15.2-17.4V30.5c-7.5-.9-13.6-7-15-15H84.3c-1.7 0-3-1.3-3-3s1.3-3 3-3h20.5c1.6 0 2.9 1.3 3 2.9.2 6.8 5.1 12.2 11.1 12.2h.9c.8-.1 1.7.2 2.3.8.6.6 1 1.4 1 2.2v21.2c0 .8-.4 1.6-1 2.2-.6.6-1.5.8-2.3.8h-.9c-6.1 0-11.1 5.7-11.1 12.7 0 .5 0 1 .1 1.6.1.8-.2 1.7-.8 2.3-.5.5-1.3.8-2.2.8zm-55.7 0H28.3c-.9 0-1.7-.4-2.2-1-.6-.6-.8-1.5-.7-2.3.1-.5.1-1 .1-1.5 0-7-5.1-12.7-11.3-12.7h-.9c-.8.1-1.7-.2-2.3-.8-.6-.6-1-1.4-1-2.2V27.6c0-.8.4-1.6 1-2.2.6-.6 1.5-.9 2.3-.8h.9c6.1 0 11.1-5.4 11.3-12.2.1-1.6 1.4-2.9 3-2.9h20.8c1.7 0 3 1.3 3 3s-1.3 3-3 3H31.1c-1.4 8-7.5 14.2-15.2 15v15.3c8.3.9 14.9 8.3 15.4 17.4h17.8c1.7 0 3 1.3 3 3 .1 1.7-1.3 3-2.9 3z"/></symbol><symbol id="icon-feat-cond2" viewBox="0 0 340.6 340.6" xml:space="preserve" xmlns="http://www.w3.org/2000/svg"><style>.ayst0{stroke:#000;stroke-width:4;stroke-miterlimit:10}</style><path class="ayst0" d="M311.6 21.7h-28.4V16c0-9.4-7.6-17.1-17.1-17.1h-11.4c-9.4 0-17.1 7.6-17.1 17.1v5.7H101.3V16c0-9.4-7.6-17-17-17H72.9c-9.4 0-17.1 7.6-17.1 17.1v5.7H27.4C11.7 21.8-1 34.5-1 50.1v261.4c0 15.7 12.7 28.4 28.4 28.4h284.2c15.7 0 28.4-12.7 28.4-28.4V50.1c0-15.6-12.7-28.3-28.4-28.4zm-62.5-5.6c0-3.1 2.5-5.7 5.7-5.7h11.4c3.1 0 5.7 2.5 5.7 5.7v34.1c0 3.1-2.5 5.7-5.7 5.7h-11.4c-3.1 0-5.7-2.5-5.7-5.7V16.1zm-181.9 0c0-3.1 2.5-5.7 5.7-5.7h11.4c3.1 0 5.7 2.5 5.7 5.7v34.1c0 3.1-2.5 5.7-5.7 5.7H72.9c-3.1 0-5.7-2.5-5.7-5.7V16.1zm-56.8 34c0-9.4 7.6-17 17.1-17h28.4v17c0 9.4 7.6 17.1 17.1 17.1h11.4c9.4 0 17.1-7.6 17.1-17.1v-17h136.4v17c0 9.4 7.6 17.1 17.1 17.1h11.4c9.4 0 17-7.6 17-17.1v-17h28.4c9.4 0 17.1 7.6 17.1 17v39.8H10.4V50.1zm318.2 261.5c0 9.4-7.6 17.1-17.1 17.1H27.4c-9.4 0-17.1-7.6-17.1-17.1V101.3h318.3v210.3z"/><path class="ayst0" d="M158.1 152.8h-45.5v45.5h45.5v-45.5zm-11.3 34.1H124v-22.7h22.7v22.7zm79.5-34.1h-45.5v45.5h45.5v-45.5zM215 186.9h-22.7v-22.7H215v22.7zm79.5-34.1H249v45.5h45.5v-45.5zm-11.3 34.1h-22.7v-22.7h22.7v22.7zM89.9 152.8H44.5v45.5H90v-45.5zm-11.3 34.1H55.8v-22.7h22.7v22.7zm11.3 40.9H44.5v45.5H90v-45.5zm-11.3 34.1H55.8v-22.7h22.7v22.7zm79.5-34.1h-45.5v45.5h45.5v-45.5zm-11.3 34.1H124v-22.7h22.7v22.7zm79.5-34.1h-45.5v45.5h45.5v-45.5zM215 261.9h-22.7v-22.7H215v22.7z"/></symbol><symbol id="icon-feat-cond3" viewBox="0 0 129 126.2" xml:space="preserve" xmlns="http://www.w3.org/2000/svg"><style>.azst0{fill:#565f73}</style><path class="azst0" d="M63.4 53.2c-.9 0-1.7-.4-2.3-1L30.2 16.7c-1.1-1.2-1-3.1.3-4.2C37 6.6 45 2.7 53.6.9 62.2-.8 71.1-.2 79.4 2.7c1.5.5 2.4 2.2 1.9 3.8l-15 44.6c-.3 1-1.2 1.8-2.3 2-.2 0-.4.1-.6.1zM36.8 15.1l25.5 29.2L74.6 7.5c-6.4-1.8-13.2-2-19.8-.7-6.6 1.3-12.8 4.2-18 8.3z"/><path class="azst0" d="M65.3 126.2C35 126.2 8.2 105.1 1.5 76c-4.8-21.2 2.2-43 18.4-56.8 1.2-1.1 3.1-.9 4.2.3l39.5 43.9 51.2 32c.7.4 1.2 1.1 1.3 1.9.2.8 0 1.6-.4 2.3-8.9 13.8-23 23-39.8 25.9-3.5.4-7 .7-10.6.7zM21.6 25.7C8.7 38.1 3.2 56.6 7.4 74.6c6.1 26.4 30.4 45.6 58 45.6 3.2 0 6.4-.3 9.6-.8 14-2.4 26-9.7 34-20.7L60 68.2c-.2-.1-.5-.3-.6-.5l-37.8-42z"/><path class="azst0" d="M117.8 90.5c-.5 0-1.1-.1-1.6-.5L69.8 61c-1.1-.7-1.6-2-1.3-3.2l.1-.3c0-.1.1-.2.1-.3l17.8-50c.6-1.6 2.3-2.4 3.8-1.8 19.1 6.7 33.4 23 37.6 42.5 3 14.4.4 29-7.5 41.3-.6.8-1.6 1.3-2.6 1.3zM75 57.1l41.8 26.1c5.8-10.4 7.6-22.4 5.1-34.3-3.5-16.5-15.2-30.5-30.9-37L75 57.1z"/></symbol><symbol viewBox="0 0 512 512" id="icon-feat-inv-1" xmlns="http://www.w3.org/2000/svg"><path d="M68.7 233.9c4.5 5.6 6.5 12.8 5.6 20l-1.6 12.6c-2.3 20.2 9.3 39.5 28.2 47l12.3 5c6.9 2.7 12.5 8.1 15.6 14.8l5.3 11.7c5.2 11.4 14.8 20.1 26.6 24.3L133 467.1c-1.6 5.7-.1 11.8 3.9 16.1 4 4.3 10 6.3 15.8 5.2l38.5-7.3 29 26.3c3.1 2.9 7.2 4.5 11.5 4.5 1.6 0 3.2-.2 4.7-.7 5.7-1.6 10.2-6.1 11.8-11.8l18.5-65.6 41.2 46.7c3.9 4.4 9.9 6.5 15.7 5.5 5.8-1 10.7-5 12.9-10.4l14.7-36.3 37.9-10.1c5.7-1.5 10.2-5.9 11.9-11.6 1.7-5.7.4-11.8-3.5-16.2l-34-38.6c6.4-4.6 11.5-10.8 14.7-17.9l5.3-11.7c3.1-6.8 8.7-12.1 15.6-14.8l12.3-5c18.9-7.5 30.5-26.8 28.2-47l-1.6-12.6c-.9-7.2 1.1-14.4 5.6-20l8-10.2c12.6-16 12.6-38.5 0-54.4l-8-10.2c-4.5-5.6-6.5-12.9-5.6-20l1.6-12.6c2.3-20.2-9.3-39.5-28.2-47l-12.3-5c-6.9-2.7-12.5-8.1-15.6-14.8L378 47.9c-8.7-18.5-28.3-29.3-48.6-26.9l-13.2 1.5c-7.6.9-15.4-1.1-21.6-5.5l-10.7-7.6c-16.7-12-39.2-12-55.9 0L217.4 17c-6.3 4.5-14 6.4-21.6 5.5L182.6 21c-20.3-2.5-39.9 8.4-48.6 26.9l-5.3 11.7c-3.1 6.8-8.7 12.1-15.6 14.8l-12.3 5c-18.9 7.5-30.5 26.8-28.2 47l1.6 12.6c.9 7.2-1.1 14.4-5.6 20l-8 10.2c-12.6 16-12.6 38.5 0 54.5l8.1 10.2zm162.9 261l-28.9-26.2c-4-3.8-9.5-5.4-14.8-4.3l-38.5 7.4 28.1-99.6c1.7 0 3.3 0 5-.2l13.2-1.5c6-.7 12.1.4 17.4 3.1l39.9 45.2-21.4 76.1zm152.9-82L346.6 423c-5.2 1.4-9.4 5.1-11.4 10.1l-14.7 36.3-67.9-77c1.1.1 2.3.3 3.4.3 10 0 19.8-3.1 28-9l10.7-7.6c6.3-4.5 14-6.4 21.6-5.5l13.2 1.5c6 .6 12 .2 17.8-1.4l37.2 42.2zM74.1 179.8l8-10.2c7.3-9.2 10.6-21 9.1-32.7l-1.6-12.6c-1.3-12.6 5.9-24.5 17.7-29.1l12.3-5c11-4.4 19.8-12.9 24.7-23.6l5.3-11.7c5.6-11.8 18.1-18.6 31-16.9l13.2 1.5c11.9 1.4 23.8-1.6 33.5-8.6l10.7-7.6c10.8-7.6 25.2-7.6 36 0l10.7 7.6c9.7 7 21.7 10 33.5 8.6l13.2-1.5c12.9-1.6 25.4 5.2 31 16.9l5.3 11.7c4.9 10.8 13.7 19.2 24.7 23.6l12.3 5c11.8 4.6 19 16.5 17.7 29.1l-1.6 12.6c-1.5 11.7 1.8 23.5 9.1 32.7l8 10.2c7.8 9.7 7.8 23.6 0 33.4l-8 10.2c-7.3 9.2-10.6 21-9.1 32.7l1.6 12.6c1.3 12.6-5.9 24.5-17.7 29.1l-12.3 5c-11 4.4-19.8 12.9-24.7 23.6l-5.3 11.7c-5.6 11.7-18.1 18.6-31 16.9l-13.2-1.5c-11.9-1.4-23.8 1.6-33.5 8.6l-10.7 7.6c-10.8 7.6-25.2 7.6-36 0l-10.7-7.7c-1.6-1.1-3.2-2-4.8-2.9-.1-.1-.2-.2-.4-.2-7-3.8-14.8-5.8-22.7-5.8-1.9 0-3.8.1-5.6.3l-13.2 1.5c-12.9 1.6-25.4-5.2-31-16.9l-5.3-11.7c-4.9-10.8-13.7-19.2-24.7-23.6l-12.3-5c-11.8-4.6-19-16.5-17.7-29.1l1.6-12.6c1.5-11.7-1.8-23.5-9.1-32.7l-8-10.2c-7.8-9.7-7.8-23.6 0-33.3z"/><path d="M256 324.7c70.7 0 128-57.3 128-128s-57.3-128-128-128-128 57.3-128 128c.1 70.6 57.3 127.9 128 128zm0-239c61.3 0 110.9 49.7 110.9 110.9s-49.6 111-110.9 111-110.9-49.7-110.9-110.9c0-61.3 49.7-110.9 110.9-111z"/><path d="M316.9 165.5l-31.4-4.9-14.4-28.3c-2.9-5.7-8.8-9.3-15.2-9.3s-12.3 3.6-15.2 9.3l-14.4 28.3-31.4 4.9c-6.4 1-11.7 5.5-13.6 11.6-2 6.1-.3 12.9 4.2 17.4l22.5 22.4-5 31.3c-1.1 6.4 1.6 12.8 6.7 16.6 5.2 3.8 12.1 4.4 17.8 1.4l28.3-14.6c30.6 15.7 30.6 16.4 36.1 16.4 5 .1 9.9-2.1 13.1-5.9 3.3-3.8 4.7-8.9 3.9-13.9l-5-31.3 22.5-22.4c4.6-4.6 6.2-11.3 4.2-17.5-1.9-6.1-7.3-10.6-13.7-11.5zm-25.2 39.2c-3.9 3.9-5.7 9.4-4.8 14.8l5 31.3c-27.6-13.9-30.1-16.4-36.1-16.4s-6.7 1.4-36.1 16.4l5-31.3c.9-5.4-.9-11-4.8-14.8l-22.5-22.4 31.4-4.9c5.4-.9 10.1-4.3 12.5-9.1l14.4-28.3 14.3 28.3c2.5 4.9 7.2 8.3 12.6 9.1l31.4 4.9-22.3 22.4z"/></symbol><symbol viewBox="0 0 512 512" id="icon-feat-inv-2" xmlns="http://www.w3.org/2000/svg"><path d="M488.4 492h-21.9V173.5c0-14.8-12.1-26.9-26.9-26.9h-49c-14.8 0-26.9 12.1-26.9 26.9V492H308V317.8c0-14.8-12.1-26.9-26.9-26.9h-49c-14.8 0-26.9 12.1-26.9 26.9V492h-55.7v-90.2c0-14.8-12.1-26.9-26.9-26.9h-49c-14.8 0-26.9 12.1-26.9 26.9V492H23.6c-5.5 0-10 4.5-10 10s4.5 10 10 10h464.8c5.5 0 10-4.5 10-10s-4.5-10-10-10zm-358.9 0H66.7v-90.2c0-3.8 3.1-6.9 6.9-6.9h49c3.8 0 6.9 3.1 6.9 6.9V492zm158.5 0h-62.8V317.8c0-3.8 3.1-6.9 6.9-6.9h49c3.8 0 6.9 3.1 6.9 6.9V492zm158.5 0h-62.8V173.5c0-3.8 3.1-6.9 6.9-6.9h49c3.8 0 6.9 3.1 6.9 6.9V492zm19.9-481.5c.1-2.7-.8-5.5-2.9-7.6-2.1-2.1-4.9-3-7.6-2.9H395c-5.5 0-10 4.5-10 10s4.5 10 10 10h37.4l-98.9 98.9-37.3-37.3c-1.9-1.9-4.4-2.9-7.1-2.9s-5.2 1.1-7.1 2.9L102.3 261.3c-3.9 3.9-3.9 10.2 0 14.1 2 2 4.5 2.9 7.1 2.9s5.1-1 7.1-2.9l172.7-172.7 37.3 37.3c3.9 3.9 10.2 3.9 14.1 0L446.5 34.1V68c0 5.5 4.5 10 10 10s10-4.5 10-10V11c0-.2-.1-.3-.1-.5z"/><circle cx="75.6" cy="303.3" r="10"/></symbol><symbol viewBox="0 0 512 512" id="icon-feat-inv-3" xmlns="http://www.w3.org/2000/svg"><path d="M481.6 317.8c-29.8-29.8-73.7-37-110.4-21.7V119.5c0-7.3-2.8-14.2-8-19.3L271.1 8c-2.2-2.2-4.7-3.9-7.4-5.2-.1-.1-.3-.1-.4-.2-.2-.1-.5-.2-.7-.3C259.2.8 255.5 0 251.8 0h-222c-16 0-29 13-29 28.9v454.2c0 15.9 13 28.9 28.9 28.9h312.6c15.3 0 27.9-11.9 28.9-27.2v-2.7c12.5 5.2 25.7 7.8 39 7.8 25.8 0 51.7-9.8 71.3-29.5 19.1-19.1 29.6-44.4 29.6-71.3.1-26.9-10.4-52.3-29.5-71.3zM337.2 102.3h-66c-1.2 0-2.2-1-2.2-2.2v-66l68.2 68.2zm14.1 381.6c-.4 4.6-4.3 8.1-8.9 8.1H29.7c-4.9 0-8.9-4-8.9-8.9V28.9c0-4.9 4-8.9 8.9-8.9H249v80.1c0 12.2 10 22.2 22.2 22.2h80.1v185c-4.3 3.1-8.5 6.6-12.4 10.5-19.1 19.1-29.6 44.4-29.6 71.3s10.5 52.3 29.6 71.3c3.9 3.9 8 7.4 12.3 10.5l.1 13zm116.2-37.6c-31.5 31.5-82.9 31.5-114.4 0-15.3-15.3-23.7-35.6-23.7-57.2s8.4-41.9 23.7-57.2c15.8-15.8 36.5-23.7 57.2-23.7s41.4 7.9 57.2 23.7c15.3 15.3 23.7 35.6 23.7 57.2s-8.4 42-23.7 57.2z"/><path d="M445.8 360.3l-46.9 39.8-23.9-25c-3.8-4-10.1-4.1-14.1-.3s-4.1 10.1-.3 14.1l30.4 31.8c2 2 4.6 3.1 7.2 3.1 2.3 0 4.6-.8 6.5-2.4l54-46c4.2-3.6 4.7-9.9 1.1-14.1-3.5-4-9.8-4.5-14-1zM71.2 159.2h139.3c5.5 0 10-4.5 10-10s-4.5-10-10-10H71.2c-5.5 0-10 4.5-10 10s4.5 10 10 10zm174 159.8h-174c-5.5 0-10 4.5-10 10s4.5 10 10 10h174c5.5 0 10-4.5 10-10s-4.5-10-10-10zm0 59.9h-174c-5.5 0-10 4.5-10 10s4.5 10 10 10h174c5.5 0 10-4.5 10-10 0-5.6-4.5-10-10-10zm56.2-119.8H71.2c-5.5 0-10 4.5-10 10s4.5 10 10 10h230.2c5.5 0 10-4.5 10-10 0-5.6-4.5-10-10-10zM70.2 219.8h180.2c5.5 0 10-4.5 10-10s-4.5-10-10-10H70.2c-5.5 0-10 4.5-10 10s4.5 10 10 10z"/><circle cx="300.2" cy="209.8" r="10"/></symbol><symbol viewBox="0 0 512 512" id="icon-feat-inv-4" xmlns="http://www.w3.org/2000/svg"><path d="M387.4 56.7l-128-56c-2.2-.9-4.7-.9-6.8 0l-128 56c-3.1 1.4-5.1 4.4-5.1 7.8v134c0 30.1 14.5 58.4 38.9 76l88.5 63.8c5.5 4 12.8 4 18.3 0l88.5-63.8c24.4-17.6 38.9-45.9 38.9-76v-134c-.1-3.3-2.1-6.4-5.2-7.8zm-11.9 141.8c0 24.6-11.9 47.7-31.8 62.2L256 323.9l-87.6-63.2c-20-14.4-31.8-37.5-31.8-62.2V70.1L256 17.9l119.5 52.3v128.3z"/><path d="M252.6 38l-93.9 41.1c-3.1 1.4-5.1 4.4-5.1 7.8v111.7c0 19.1 9.2 37.1 24.7 48.3l72.7 52.4c3 2.1 7 2.1 10 0l72.7-52.4c15.5-11.2 24.7-29.2 24.7-48.3V86.9c0-3.4-2-6.5-5.1-7.8L259.4 38c-2.2-1-4.6-1-6.8 0zm88.7 54.5v106.1c0 13.7-6.6 26.5-17.7 34.5L256 281.8 188.3 233c-11.1-8-17.6-20.8-17.7-34.5v-106L256 55.1l85.3 37.4zM70.7 283.3l-18.5-43.1c-3.9-8.9-12.3-15-22-16.1-9.7-1-19.1 3.1-24.9 11s-6.9 18.2-2.9 27l33.4 73.6c4.5 10 10.8 19 18.5 26.7l52.6 52.6c-3 3.1-4.6 7.3-4.6 11.6v68.3c0 9.4 7.6 17.1 17.1 17.1h93.9c9.4 0 17.1-7.6 17.1-17.1v-68.3c0-9.4-7.6-17.1-17.1-17.1v-15.9c.3-20.2-6.3-39.9-18.7-55.9-7.3-9.5-17.1-16.8-28.4-20.7-18-7.6-34.5-18.2-48.9-31.4-13.3-10.8-32.2-11.8-46.6-2.3zm142.6 211.6h-93.9v-68.3h93.9v68.3zm-32-146.4c9.9 13 15.2 28.9 15 45.2v15.9h-70.6l-59.2-59.2c-6.3-6.3-11.4-13.6-15.1-21.7L18 255.1c-1.4-3.1-1.2-6.8.7-9.7 1.9-2.9 5.1-4.7 8.5-4.7 4.1 0 7.7 2.4 9.3 6.2l19.1 44.5c5.1 11.9 12.4 22.7 21.5 31.8l39 39c2.1 2.2 5.3 3.1 8.3 2.3 3-.8 5.3-3.1 6.1-6.1.8-3-.1-6.2-2.3-8.3l-39-39c-3.9-3.9-7.4-8.2-10.5-12.8 8.2-6.3 19.7-6.1 27.6.5 16 14.6 34.4 26.3 54.4 34.5 8.3 2.9 15.4 8.2 20.6 15.2z"/><path d="M187.7 452.3h-8.5c-4.7 0-8.5 3.8-8.5 8.5s3.8 8.5 8.5 8.5h8.5c4.7 0 8.5-3.8 8.5-8.5s-3.8-8.5-8.5-8.5zm288.4-116.6l33.4-73.6c4.1-8.9 3.1-19.4-2.7-27.3-5.8-8-15.4-12.2-25.1-11.1-9.8 1.1-18.2 7.4-22 16.4l-18.4 43c-14.4-9.5-33.4-8.4-46.7 2.6-14.4 13.2-30.9 23.8-48.9 31.4-11.3 4-21.2 11.2-28.4 20.7-12.4 16-19 35.7-18.7 55.9v15.9c-9.4 0-17.1 7.6-17.1 17.1V495c0 9.4 7.6 17.1 17.1 17.1h93.9c9.4 0 17.1-7.6 17.1-17.1v-68.3c0-4.3-1.7-8.5-4.6-11.6l52.6-52.6c7.7-7.8 14-16.8 18.5-26.8zm-83.6 159.2h-93.9v-68.3h93.9v68.3zm-6.2-85.3h-70.6v-15.9c-.3-16.3 5-32.3 15-45.2 5.2-6.9 12.3-12.2 20.5-15.2 20.1-8.2 38.5-19.8 54.5-34.5 8-6.6 19.5-6.8 27.7-.5-3.1 4.6-6.6 9-10.6 12.9l-39 39c-3.2 3.3-3.2 8.7.1 12 3.3 3.3 8.6 3.3 12 .1l39-39c9.1-9.1 16.5-19.9 21.5-31.8l19.1-44.5c1.6-3.7 5.3-6.1 9.3-6.1 3.4 0 6.7 1.8 8.5 4.7s2.1 6.6.7 9.7l-33.4 73.6c-3.7 8.1-8.8 15.5-15.1 21.7l-59.2 59z"/><path d="M332.8 452.3h-8.5c-4.7 0-8.5 3.8-8.5 8.5s3.8 8.5 8.5 8.5h8.5c4.7 0 8.5-3.8 8.5-8.5s-3.8-8.5-8.5-8.5zM209.9 180.9c-3.8-2.8-9.1-2.1-11.9 1.7s-2.1 9.1 1.7 11.9l34.1 25.6c1.5 1.1 3.3 1.7 5.1 1.7.5 0 1 0 1.4-.1 2.3-.4 4.4-1.7 5.7-3.7l68.3-102.4c1.7-2.5 1.9-5.8.6-8.5-1.4-2.7-4.1-4.5-7.1-4.7-3-.2-6 1.2-7.7 3.8l-63.3 94.9-26.9-20.2z"/></symbol><symbol viewBox="0 0 48 48" id="icon-pdf" xmlns="http://www.w3.org/2000/svg"><path d="M48 21.9c0-.1 0-.2-.1-.3v-.1c0-.1-.1-.2-.2-.3L42 15.6V9.9c0-.1 0-.2-.1-.3v-.1c0-.1-.1-.2-.2-.3l-9-9c-.1-.1-.2-.1-.3-.2h-.1c-.1 0-.2 0-.3-.1H7C6.4 0 6 .4 6 1v14.6L.3 21.3c-.1.1-.1.2-.2.3v.1c0 .1 0 .2-.1.3v19.1c0 .6.4 1 1 1h5v5c0 .6.4 1 1 1h34c.6 0 1-.4 1-1v-5h5c.6 0 1-.4 1-1V21.9c0 .1 0 .1 0 0zm-3.4-.9H42v-2.6l2.6 2.6zm-6-12H33V3.4L38.6 9zM8 2h23v8c0 .6.4 1 1 1h8v10H8V2zM6 18.4V21H3.4L6 18.4zM40 46H8v-4h32v4zm6-6H2V23h44v17z"/><path d="M18.3 26.7c-.3-.3-.7-.5-1.1-.6-.5-.1-.8-.1-1.2-.1h-3.3v12h2v-4.8h1.4c.4 0 .8-.1 1.2-.2.4-.1.7-.4 1.1-.7.3-.3.6-.7.7-1.1.2-.5.3-1 .3-1.6 0-.7-.1-1.2-.3-1.7-.3-.5-.5-.9-.8-1.2zM17 31c-.3.3-.7.5-1.2.5h-1.2v-3.8h1.2c.5 0 .9.1 1.2.4s.5.8.5 1.4c-.1.7-.2 1.2-.5 1.5zm13.7 7h2.1v-5.2h3.1v-1.7h-3.1v-3.3h3.3V26h-5.4zm-6.6-12h-3v12h3c1.6 0 2.7-.5 3.5-1.6.8-1 1.2-2.5 1.2-4.4 0-1.9-.4-3.4-1.2-4.4-.8-1.1-2-1.6-3.5-1.6zm2.4 7.8c-.1.5-.3 1-.6 1.3-.2.4-.5.6-.9.8-.3.2-.7.3-1.1.3h-1v-8.5h1c.4 0 .7.1 1.1.3.3.2.6.4.9.8.2.4.4.8.6 1.3s.2 1.2.2 1.9 0 1.3-.2 1.8z"/></symbol><symbol viewBox="0 0 512 362.9" id="icon-req-1" xmlns="http://www.w3.org/2000/svg"><path d="M199 188.6c11.4-9.7 18.7-24.1 18.7-40.2 0-29.1-23.6-52.7-52.7-52.7s-52.7 23.6-52.7 52.7c0 16.1 7.3 30.5 18.7 40.2-31.2 13.3-53.1 44.2-53.1 80.2 0 2.6 1 5.1 2.8 6.9 1.8 1.8 4.3 2.8 6.9 2.8h154.9c2.6 0 5.1-1 6.9-2.8 1.8-1.8 2.8-4.3 2.8-6.9-.1-36.1-22-67-53.2-80.2zm-57.6-63.8c6.1-6 14.3-9.7 23.5-9.8 9.2 0 17.5 3.7 23.5 9.8 6 6.1 9.7 14.3 9.7 23.5s-3.7 17.5-9.7 23.5c-6.1 6-14.3 9.7-23.5 9.8-9.2 0-17.5-3.7-23.5-9.8-6.1-6.1-9.7-14.3-9.8-23.5 0-9.2 3.7-17.4 9.8-23.5zM98 259.1c2.1-14.8 9-28 19.1-38.2 12.3-12.3 29.1-19.8 47.9-19.8 18.7 0 35.6 7.6 47.9 19.8 10.1 10.1 16.9 23.4 19 38.2H98zM411.5 175H294.9c-5.4 0-9.7 4.4-9.7 9.7s4.4 9.7 9.7 9.7h116.7c5.4 0 9.7-4.4 9.7-9.7s-4.4-9.7-9.8-9.7zm1.7-58.3H296.6c-5.4 0-9.7 4.4-9.7 9.7s4.4 9.7 9.7 9.7h116.7c5.4 0 9.7-4.4 9.7-9.7s-4.4-9.7-9.8-9.7zm-19.6 116.6h-98.7c-5.4 0-9.7 4.4-9.7 9.7s4.4 9.7 9.7 9.7h98.7c5.4 0 9.7-4.4 9.7-9.7s-4.3-9.7-9.7-9.7z"/><path d="M486.1 0H289.9l1.9 19.4h194.3c3.5 0 6.5 3 6.5 6.5V337c0 3.5-3 6.5-6.5 6.5H25.9c-3.5 0-6.5-3-6.5-6.5V25.9c0-3.5 3-6.5 6.5-6.5h194.3L222.1 0H25.9C11.7 0 0 11.7 0 25.9V337c0 14.3 11.7 25.9 25.9 25.9h460.2c14.3 0 25.9-11.7 25.9-25.9V25.9C512 11.7 500.3 0 486.1 0z"/><path d="M316.2 0H199.6c-5.4 0-9.7 4.4-9.7 9.7s4.4 9.7 9.7 9.7h116.7c5.4 0 9.7-4.4 9.7-9.7S321.6 0 316.2 0z"/></symbol><symbol viewBox="0 0 512 234.3" id="icon-req-2" xmlns="http://www.w3.org/2000/svg"><path d="M68.3 191.7c0 23.5 19.1 42.7 42.7 42.7 23.5 0 42.7-19.1 42.7-42.7 0-23.5-19.1-42.7-42.7-42.7s-42.7 19.1-42.7 42.7zm17 0c0-14.1 11.5-25.6 25.6-25.6s25.6 11.5 25.6 25.6-11.5 25.6-25.6 25.6-25.6-11.5-25.6-25.6zm273.1 0c0 23.5 19.1 42.7 42.7 42.7 23.5 0 42.7-19.1 42.7-42.7 0-23.5-19.1-42.7-42.7-42.7s-42.7 19.1-42.7 42.7zm17.1 0c0-14.1 11.5-25.6 25.6-25.6 14.1 0 25.6 11.5 25.6 25.6s-11.5 25.6-25.6 25.6c-14.2 0-25.6-11.5-25.6-25.6z"/><path d="M0 157.5v34.1c0 4.7 3.8 8.5 8.5 8.5h34.1c4.7 0 8.5-3.8 8.5-8.5 0-32.9 26.8-59.7 59.7-59.7 32.9 0 59.7 26.8 59.7 59.7 0 4.7 3.8 8.5 8.5 8.5h153.6c4.7 0 8.5-3.8 8.5-8.5 0-32.9 26.8-59.7 59.7-59.7s59.7 26.8 59.7 59.7c0 4.7 3.8 8.5 8.5 8.5h34.1c4.7 0 8.5-3.8 8.5-8.5v-34.1c0-4.7-3.8-8.5-8.5-8.5v-25.6c0-32.5-58.7-50.3-115.4-51.2C339.1 12.9 262.7-10.1 161 4c-.1 0-.2 0-.3.1-55.1 9.7-80 38.9-98.1 69.6l-48.2 16c-3.5 1.2-5.8 4.4-5.8 8.1V149c-4.8 0-8.6 3.8-8.6 8.5zm119.4-85.3H83.6c9.6-14.3 20.6-26.3 35.4-35.4l.4 35.4zm102.5 0h-85.4l-.5-43.7c8.1-3.2 17.2-5.8 27.4-7.6 20.7-2.9 40.2-4.1 58.4-3.8v55.1zm143.1 0H238.9V17.8c52.8 3.7 94.5 21.8 126.1 54.4zM17.1 166.1c4.7 0 8.5-3.8 8.5-8.5V132h8.5c4.7 0 8.5-3.8 8.5-8.5s-3.8-8.5-8.5-8.5h-8.5v-11l44.1-14.7H384c51.4 0 86.7 13.1 98.3 25.6h-4.4c-4.7 0-8.5 3.8-8.5 8.5s3.8 8.5 8.5 8.5h8.5v25.6c0 4.7 3.8 8.5 8.5 8.5v17.1h-17.5c-4.3-38.3-36.9-68.3-76.3-68.3s-72.1 29.9-76.3 68.3H187.3c-4.3-38.3-36.9-68.3-76.3-68.3s-72.1 29.9-76.3 68.3H17.1v-17z"/></symbol><symbol viewBox="0 0 512 512" id="icon-star" xmlns="http://www.w3.org/2000/svg"><path d="M472.2 201.7c9.3-9 12.5-22.3 8.5-34.6s-14.4-21.1-27.3-23l-112-16.3c-2.2-.3-4.1-1.7-5.1-3.7l-50-101.5C280.6 11 268.9 3.8 256 3.8c-12.9 0-24.5 7.2-30.3 18.8l-50.1 101.5c-1 2-2.9 3.4-5.1 3.7l-112 16.3c-12.8 1.9-23.3 10.7-27.3 23s-.7 25.6 8.5 34.6l81.1 79c1.6 1.6 2.3 3.8 1.9 6l-19.1 111.6c-2.2 12.8 3 25.4 13.4 33 10.5 7.6 24.1 8.6 35.6 2.6l100.2-52.7c2-1 4.3-1 6.3 0l100.2 52.7c5 2.6 10.4 3.9 15.7 3.9 7 0 13.9-2.2 19.8-6.5 10.5-7.6 15.6-20.3 13.4-33l-19.1-111.6c-.4-2.2.4-4.4 1.9-6l81.2-79zm-109.6 89.6l19.1 111.6c.6 3.7-1.7 5.9-2.7 6.6-1 .7-3.8 2.3-7.1.5l-100.2-52.7c-4.9-2.6-10.3-3.9-15.7-3.9s-10.8 1.3-15.7 3.9L140.1 410c-3.4 1.8-6.1.2-7.1-.5s-3.3-2.9-2.7-6.6l19.1-111.6c1.9-11-1.8-22.1-9.7-29.9l-81.1-79c-2.7-2.6-2.1-5.7-1.7-6.9.4-1.2 1.7-4.1 5.5-4.6l112-16.3c11-1.6 20.5-8.5 25.4-18.5l50.1-101.5c1.7-3.4 4.8-3.8 6.1-3.8 1.3 0 4.4.4 6.1 3.8l50.1 101.5c4.9 10 14.4 16.9 25.4 18.5l112 16.3c3.7.5 5.1 3.4 5.5 4.6.4 1.2 1 4.3-1.7 6.9l-81.1 79c-8 7.7-11.6 18.9-9.7 29.9zm51.2-268.7c-6-4.4-14.5-3-18.9 3l-14.3 19.7c-4.4 6-3 14.5 3 18.9 2.4 1.7 5.2 2.6 7.9 2.6 4.2 0 8.3-1.9 10.9-5.6l14.3-19.7c4.5-6 3.1-14.5-2.9-18.9zM131.4 45.3L117 25.5c-4.4-6-12.8-7.4-18.9-3-6 4.4-7.4 12.8-3 18.9l14.3 19.7c2.6 3.6 6.8 5.6 10.9 5.6 2.8 0 5.5-.8 7.9-2.6 6.2-4.4 7.5-12.8 3.2-18.8zM49.6 306.8c-2.3-7.1-9.9-11-17-8.7l-23.2 7.5c-7.1 2.3-11 9.9-8.7 17 1.9 5.7 7.1 9.3 12.8 9.3 1.4 0 2.8-.2 4.2-.7l23.2-7.5c7.1-2.2 11-9.8 8.7-16.9zm206.4 150c-7.5 0-13.5 6-13.5 13.5v24.4c0 7.5 6 13.5 13.5 13.5s13.5-6 13.5-13.5v-24.4c0-7.5-6-13.5-13.5-13.5zm246.7-151.1l-23.2-7.5c-7.1-2.3-14.7 1.6-17 8.7-2.3 7.1 1.6 14.7 8.7 17l23.2 7.5c1.4.5 2.8.7 4.2.7 5.7 0 11-3.6 12.8-9.3 2.2-7.2-1.6-14.8-8.7-17.1z"/></symbol><symbol viewBox="0 0 270.4 98.1" id="iconSheer"><path d="M175.1 51.8c.2 1.2.3 2.1.5 3 2 8.4 8.6 14 17.2 14.7 7.6.6 13.6-2.3 18-8.5 2.2-3 5.7-3.5 8.5-1.1 1.6 1.4 1.8 3.2.5 4.9-.7.9-1.4 1.8-2.1 2.8-2.9 4-6.7 6.7-11.4 8.3-7.6 2.6-15.2 3-22.7.2-10.1-3.7-16.1-11.1-17.8-21.7-1-6.5-.4-13 2.6-18.9 4.3-8.4 11.1-13.6 20.5-15.1 6.2-1 12.4-.4 18.2 2.4 8.2 3.9 13.2 10.5 15.1 19.3.5 2.4.7 4.9.9 7.3.2 1.5-.5 2.2-2.1 2.3h-44.1c-.4.1-.9.1-1.8.1zm38.3-9.2c-1.2-7.9-10.7-14.7-19.4-14.2-9.1.5-18.2 7.5-18.5 14.2h37.9zm-101 9c.1.8.2 1.4.3 2 1.7 9.3 9.3 15.7 18.7 15.9 7.1.1 12.7-2.8 16.8-8.6 2.2-3.1 6.1-3.4 8.8-.7 1.3 1.4 1.5 3 .3 4.6-.5.8-1.1 1.5-1.7 2.2-3.1 4.5-7.3 7.4-12.5 9.1-7.6 2.5-15.2 2.7-22.5-.2-10.6-4.1-16.4-12.1-17.6-23.3-.6-5.4-.1-10.7 2.2-15.6 4.3-9.4 11.4-15.2 21.8-16.6 5.5-.7 11-.3 16.1 1.8 9.2 3.8 14.6 10.9 16.6 20.6.4 2.2.6 4.5.7 6.7.1 1.8-.3 2.2-2.2 2.2h-43.5c-.7-.1-1.4-.1-2.3-.1zm38.4-9.1c-1.2-7.8-10.4-14.4-19.4-14.2-8.8.2-17.9 7.2-18.6 14.2h38zm101 13.5c.7.6 1.1 1 1.5 1.4 4.9 4.2 9.8 8.3 14.6 12.5.3.3.7.6 1 .9 1.8 1.8 2 4.4.3 6.2-1.6 1.8-4.2 2.1-6.1.5-3.4-2.8-6.7-5.7-10-8.5-4.8-4.1-9.5-8.1-14.3-12.2-.4-.4-.9-.7-1.6-1.3 0 1-.1 1.6-.1 2.3v36.1c-.2 2.5-2.1 4.3-4.6 4.2-2.4-.1-4.1-1.9-4.2-4.4V21.9c0-1.6.2-1.9 1.7-1.9 2.1-.1 4.2-.1 6.2-.1 5 0 10.1.2 15.1-.1 8.4-.4 17.8 6.4 18.7 16.3.8 8.9-5.2 17.3-14.3 19.1-1.1.2-2.3.5-3.9.8zm-15.3-6.9c.5.1.9.1 1.2.1h12.6c1.2 0 2.4-.1 3.6-.5 3.9-1.2 7-3.5 8-7.7 1.7-7.1-3.6-13.7-10.9-13.7h-13c-.5 0-1 .1-1.5.1v21.7zM88.5 52H63.9c0 .7-.1 1.4-.1 2v18.9c0 .8 0 1.6-.2 2.3-.6 1.9-2.6 3.1-4.5 3-2.1-.2-3.8-1.8-4.1-3.9-.1-.5 0-1 0-1.5V5.4c0-.9.1-1.8.4-2.6.6-2 2.6-3 4.7-2.8 1.9.3 3.5 2 3.7 3.9.1.6 0 1.2 0 1.8v34.7c0 .7.1 1.4.1 2 1.5.4 22.9.4 24.5 0 0-.5.1-1.1.1-1.7V23.9c.2-2.3 1.9-4 4.2-4.1 2.3-.1 4.3 1.6 4.6 3.9.1.5 0 1 0 1.5v48.9c-.3 2.3-2.3 4.1-4.5 4-2.3-.1-4.1-1.9-4.3-4.2V52zM25 78.3c-5.9-.1-11.4-1.4-16.5-4.4-2.2-1.3-4.2-2.9-5.8-4.8-.8-1-1.6-2.1-2.2-3.3-1-1.9-.6-3.4.9-4.9 1.7-1.6 4.1-2.3 6.4-.7C9 61 10 62 10.9 63c.9.9 1.6 1.9 2.5 2.8 2.7 2.7 6 4.2 9.8 4.6 3.5.4 7 .3 10.4-.9 1.4-.5 2.8-1.2 4-2.1 2.9-2.2 3-5.9.2-8.2-1.3-1.1-2.9-1.9-4.5-2.6-4-1.7-8.1-2.9-12.3-4-3.4-.8-6.7-1.9-10.1-2.9-1.3-.4-2.5-1.1-3.7-1.7-3.2-1.7-5-4.4-5.5-7.9-1-7.1 1.7-12.8 8.1-15.9 9.8-4.8 19.7-5.2 29.4.4 1.8 1 3.5 2.5 5.1 3.9 1.2 1 2 2.5 2.5 4 .8 2.6-.5 3.9-2.8 4.4-2 .4-3.8-.2-5.2-1.7-.3-.3-.5-.6-.7-.9-2.3-3.4-5.6-5.3-9.6-6.1-4-.7-8-.6-11.8.9-1.4.5-2.8 1.3-3.9 2.3-2.7 2.3-2.7 5.4-.1 7.8 1.7 1.6 3.7 2.5 5.9 3 4.8 1.2 9.7 2.4 14.5 3.6 3.1.8 6.1 1.8 8.9 3.4 3.6 1.9 6.2 4.7 7.1 8.8 1.1 5 0 9.4-3.9 13-4.4 4-9.5 6.3-15.4 7-1.7.1-3.3.2-4.8.3z"/></symbol><symbol viewBox="0 0 178.1 124.6" id="logo-big" xmlns="http://www.w3.org/2000/svg"><path d="M117.9 115.7c-.3 0-5.9-3.3-6.5-3.6l-6.5-3.7c-.3-.2-.4-.2-.7-.4l-3.3-1.9c-.3-.1-.4-.2-.7-.4-.2-.1-.4-.2-.7-.4-.7-.4-2.2-1-2.5-1.6.9-.3 2.5-1.4 3.4-1.9l2.3-1.3c.5-.3.7-.4 1.2-.7 4-2 8.5-5 12.5-7.1.4-.2.8-.5 1.2-.7.4-.2.7-.4 1.1-.6l3.9-2.2c.3-.2.3-.2.6-.3.3-.2.2-.2.6-.3 1.8-.9 3.4-2 5.1-2.9l18.2-10.3c2.7-1.5 1.9-.7 1.9-5.3V41.5l4-2.3c.5-.3.9-.6 1.4-.8L164 33h.1l5-2.9c.5-.3 1.1-.7 1.6-.9v56.5c-.2.2-.6.3-.8.5l-.8.4c-.1.1-.2.2-.4.2-.2.1-.3.2-.4.2-.2.1-.1.1-.4.3l-6.2 3.5-.4.2c-.2.1-.3.2-.4.3l-3.3 1.9c-.3.2-.5.3-.8.5L151 97c-.3.2-.5.3-.8.5l-5 2.8c-.3.2-.6.3-.9.5-.3.2-.5.3-.8.5l-24 13.6c-.2 0-1.2.8-1.6.8zM29.3 41.6v32.7c.3.2.5.3.8.4 1.5.7 5.4 3.1 7.2 4.1l2.4 1.4c.3.2.5.3.8.5l8.9 5.1c.3.2.5.3.8.4.3.2.5.3.8.5l5.7 3.2c.1.1.2.1.4.2l1.1.8c.5.5 1.3.8 2 1.1l4.4 2.5c.5.3 1.1.5 1.6.9 1.9 1.2 6 3.4 8.2 4.6l5.7 3.2c.3.2.5.4.9.5-.3.5-3 1.9-3.8 2.3l-6.6 3.7c-.5.3-.8.4-1.3.7-2.1 1.1-4.4 2.7-6.6 3.7l-.9.5c-2.2 1.3-1.3 1.2-4.3-.5l-4.3-2.4c-.3-.2-.5-.3-.8-.5-1.2-.7-2.5-1.3-3.7-2.1h-.1l-.7-.4c-.2-.1-.3-.1-.4-.2l-3-1.7h-.1l-.1-.1-2-1.1c-.2-.1-.2-.1-.4-.3-.3-.2-.6-.3-.9-.5l-.9-.5c-.3-.2-.5-.3-.9-.5-1.2-.7-2.2-1.3-3.4-1.9L27.1 97c-.3-.2-.6-.3-.9-.5-.4-.2-.6-.3-.9-.5l-1.7-.9c-3.5-1.9-6.9-4-10.5-5.9-.3-.2-.6-.3-.9-.5l-3.4-2c-2.4-1.2-1.9-.8-1.9-5V30.1c0-.5-.1-1 .4-.8l3.9 2.2c.2.1.3.1.4.2l3.5 2c2.1 1.3 4.4 2.4 6.5 3.7l.8.5c.1.1.3.2.4.3.3.2.5.3.9.5.9.4 5.2 2.8 5.6 2.9zm7-28.8l9 5.1.4.2.8.5c.2.1.3.2.4.2l8.7 4.9c1.2.7 2.5 1.3 3.7 2.1.3.2.5.3.8.5.3.2.6.3.9.5l9.1 5.2c.3.1.5.3.8.4l4.2 2.4c.1 0 .1.1.2.1h.1l6.1 3.4h.1l1.7.9c.1 0 .1 0 .1.1l1.6.9c.3.2.5.3.9.5l1.7.9c.3.2.5.3.8.4 1.5.8.8.4 3.3-.9.3-.2.5-.2.8-.4.6-.3 1-.6 1.6-.9l2.8-1.6c.2-.1.3-.1.4-.2l17.3-9.8c.2-.1.3-.1.5-.2l2.4-1.4s.1-.1.2-.1c2-1.2 4.3-2.2 6.2-3.5l1.8-1h.1l.3-.2.2-.1 7.5-4.3c.1-.1.1-.1.2-.1.2-.1.2-.1.5-.2l7-4c.4-.2-.1-.1.6-.2-.3.8-.1 25.2-.1 28.2v28.3c-.7.2-3.6 2-4.5 2.5l-21.9 12.4-.4.2-10.7 6c-.2.1-.3.2-.4.3L90 98.7c-.4.2-.7.5-1.1.3l-13.8-7.9c-.3-.1-.6-.3-.8-.4l-1.7-1h-.1L67.7 87c-.6-.4-1.1-.6-1.7-.9l-1.2-.7-.2-.1c-.1-.1-.1 0-.2-.1-.3-.2-.5-.3-.8-.5l-16.4-9.3c-.2-.1-.3-.2-.4-.3l-10.4-5.9V12.8h-.1zm-36 3.5c-.5 1-.2 3.6-.2 5v58c0 1.9-.3 9.9.1 11.1.1.5.7.7 1.1.9.3.2.5.3.8.4.4.3.5.4.9.6l7.1 4c.2.1.3.1.4.2.2.1.3.2.4.3l.4.2c.3.2.5.3.8.5.3.2.6.3.9.5l6.7 3.8c.1.1.3.1.4.2.1.1.3.2.4.3l22.3 12.6c.2.1.3.2.4.3l.4.2c3.5 2 7 4.1 10.5 6 .3.2.5.3.9.5l3.4 1.9c.3.2.5.3.8.5 1 .5.9.6 1.9 0h.2l14.2-8c.3-.2.6-.3.9-.5l4.4-2.5c.2-.1.3-.1.4-.2l7.2-4.1c1-.6 1.1 0 2.4.7.4.2.6.3.9.5l2 1.2c.1.1.1.1.2.1.1.1.3.2.4.3l14.8 8.3.2.1 1.2.7c.3.2.5.3.9.5.3.2.5.3.9.5l3.6 2c1.8 1.1 1.7 1.2 2.9.5.3-.2.6-.3 1-.5l4.8-2.7c.3-.2.6-.3 1-.5l12.2-6.9 1-.5 7.6-4.3c.2-.1.3-.2.4-.3l3.3-1.8c.4-.2.6-.4.9-.6l1.9-1.1c.2-.1.3-.1.5-.2s.3-.2.5-.3l1.9-1.1c.4-.2.5-.3.9-.5l7.6-4.2c.2-.1.3-.2.4-.3l11-6.2c.3-.2.6-.4.9-.5.6-.3 1.6-.6 1.6-1.4V16.9c0-.3-.1-.3-.1-.6-.7.2-1.2.6-1.8.9l-7.6 4.3c-.2.1-.3.2-.4.2-.4.2-.6.3-.9.5-.3.2-.6.3-.9.5l-9.9 5.6c-.3.2-.5.3-.9.5-.3.2-.6.3-.9.5-1.2.7-4.8 3-5.6 3 0-10.5-.1-21.1 0-31.5 0-1.5-.6-.8-2.1.1l-2.4 1.4c-.4.2-.9.4-1.3.7-2.1 1.3-4.4 2.5-6.5 3.8-.1.1-.2.1-.3.2l-5.7 3.2c-.5.3-.9.5-1.3.7l-3.7 2.1c-.3.1-.3.2-.6.3-.2.1-.4.2-.6.4-.3.1-.3.2-.6.3L99.3 28.1c-.5.3-.8.4-1.2.7-1.3.8-2.8 1.5-4.1 2.3l-2.2 1.2c-.4.3-.8.5-1.2.7-.4.2-1 .5-1.3.8L74 25.1c-.6-.4-1.2-.6-1.8-1-.3-.2-.5-.3-.8-.5l-7.8-4.4c-1.7-.9-3.3-2-5.1-2.9-.7-.3-1-.6-1.7-1-.1-.1-.3-.2-.4-.2l-4.1-2.3h-.1l-.1-.1-15-8.5c-.3-.2-.6-.3-.9-.5L32 1.3c-3.2-1.9-2.7-2.1-2.7 1.2 0 2.7.1 28.5 0 29.6-.1.8-.7.2-2.3-.8-.2-.1-.3-.1-.4-.2h-.1l-2.8-1.6c-.3-.2-.5-.3-.9-.5-1.5-.8-2.8-1.7-4.3-2.4-.4-.2-.5-.3-.9-.5-.3-.2-.5-.3-.8-.4L5.5 19.3c-1.5-.8-3.9-2.1-5.2-3z" fill-rule="evenodd" clip-rule="evenodd" fill="#3b9e3e"/></symbol><symbol viewBox="0 0 512 512" id="tick" xmlns="http://www.w3.org/2000/svg"><path d="M369.2 174.8c7.8 7.8 7.8 20.5 0 28.3L235 337.2c-7.8 7.8-20.5 7.8-28.3 0l-63.9-63.9c-7.8-7.8-7.8-20.5 0-28.3 7.8-7.8 20.5-7.8 28.3 0l49.7 49.7 120-120c7.9-7.7 20.6-7.7 28.4.1zM512 256c0 141.5-114.5 256-256 256S0 397.5 0 256 114.5 0 256 0s256 114.5 256 256zm-40 0c0-119.4-96.6-216-216-216S40 136.6 40 256s96.6 216 216 216 216-96.6 216-216z"/></symbol></svg>