<?xml version="1.0" encoding="utf-8"?>
<!-- Generator: Adobe Illustrator 22.1.0, SVG Export Plug-In . SVG Version: 6.00 Build 0)  -->
<svg version="1.1" id="Layer_1" xmlns="http://www.w3.org/2000/svg" xmlns:xlink="http://www.w3.org/1999/xlink" x="0px" y="0px"
	 viewBox="0 0 512 512" style="enable-background:new 0 0 512 512;" xml:space="preserve" fill="#fff">
<path d="M504.5,332.2H480c-4.1,0-7.5,3.4-7.5,7.5c0,4.1,3.4,7.5,7.5,7.5h17v138.3H380.8v-48.7h61.7c4.1,0,7.5-3.4,7.5-7.5
	s-3.4-7.5-7.5-7.5h-61.7v-74.6h67.1c4.1,0,7.5-3.4,7.5-7.5c0-4.1-3.4-7.5-7.5-7.5h-67.1c-0.9-8.5-8.1-15.2-16.8-15.2h-65.2
	c-9.3,0-16.9,7.6-16.9,16.9v1c-0.5-0.7-0.8-1.5-1.1-2.4c-4.4-12.3-13.8-35.9-26.9-55.2c-5.9-8.7-9-19.2-9-30.1v-19.1
	c0-8.8-7.2-16-16-16h-9.3c-15.4,0-33.4,11.9-33.4,45.3v46.1c0,9.6-15.2,18.9-26.5,18.9l-66.2,0.1c-15.1,0-27.3,12.3-27.3,27.3
	c0,6.9,2.6,13.2,6.8,18.1c-6.4,5-10.6,12.8-10.6,21.6c0,9.3,4.7,17.6,11.9,22.5c-3.8,4.7-6,10.6-6,17.1c0,15.1,12.3,27.3,27.3,27.3
	h1.9c-1.2,2.9-1.8,6-1.8,9.2c0,16.2,12.8,22.8,19.5,24.1c0.5,0.1,0.9,0.1,1.4,0.1h43.4c4.1,0,7.5-3.4,7.5-7.5c0-4.1-3.4-7.5-7.5-7.5
	h-42.6c-1.8-0.5-6.7-2.4-6.7-9.2c0-3.5,2-6.7,5.1-8.3c0.5-0.3,1-0.6,1.5-1H128c4.1,0,7.5-3.4,7.5-7.5c0-4.1-3.4-7.5-7.5-7.5H95.4
	c-6.8,0-12.3-5.5-12.3-12.3c0-6.8,5.5-12.3,12.3-12.3H125c4.1,0,7.5-3.4,7.5-7.5c0-4.1-3.4-7.5-7.5-7.5H89.5
	c-6.8,0-12.3-5.5-12.3-12.3c0-6.8,5.5-12.3,12.3-12.3H118c4.1,0,7.5-3.4,7.5-7.5s-3.4-7.5-7.5-7.5H93.3c-6.8,0-12.3-5.5-12.3-12.3
	c0-6.8,5.5-12.3,12.3-12.3l66.2-0.1c18.8,0,41.5-15.1,41.5-33.9v-46.1c0-22.4,9.5-30.3,18.4-30.3h9.3c0.6,0,1,0.4,1,1v19.1
	c0,14,4,27.3,11.6,38.5c12.6,18.7,21.8,42.5,25.2,51.9c1.8,5,5,9.4,9.2,12.6c3.6,2.8,5.9,7.1,6,11.6v103.4
	c-0.3,5.4-4.8,9.7-10.3,9.7h-79.6c-4.1,0-7.5,3.4-7.5,7.5s3.4,7.5,7.5,7.5h79.6c3.7,0,7.2-0.8,10.3-2.2v7.4
	c0,9.3,7.6,16.9,16.9,16.9h65.2c7.5,0,13.8-4.9,16-11.6h124.6c4.1,0,7.5-3.4,7.5-7.5V339.7C512,335.5,508.6,332.2,504.5,332.2z
	 M365.8,495.1c0,1.1-0.9,1.9-1.9,1.9h-65.2c-1.1,0-1.9-0.9-1.9-1.9V333.9c0-1.1,0.9-1.9,1.9-1.9h65.2c1,0,1.9,0.9,1.9,1.9V495.1z"/>
<path d="M331,355.5c-12.4,0-22.5,10.1-22.5,22.5s10.1,22.5,22.5,22.5s22.5-10.1,22.5-22.5S343.4,355.5,331,355.5z M331,385.5
	c-4.1,0-7.5-3.4-7.5-7.5s3.4-7.5,7.5-7.5s7.5,3.4,7.5,7.5S335.1,385.5,331,385.5z"/>
<path d="M108,250.7c9.5,7.2,20.4,9.2,29.7,9.2c5.8,0,11-0.8,14.8-1.6c4-0.9,6.9-4.5,6.8-8.6s-3.1-7.6-7.1-8.3
	c-4.6-0.8-7.7-2.8-9.8-6.2c-4.5-7.2-3.5-19.2-2.1-27h46.3c28.3,0,51.4-23,51.4-51.3V51.3C238,23,215,0,186.6,0H96.2
	c-4.1,0-7.5,3.4-7.5,7.5S92,15,96.2,15h90.5c20.1,0,36.4,16.3,36.4,36.3v105.6c0,20-16.3,36.3-36.4,36.3h-52.3
	c-3.3,0-6.3,2.2-7.2,5.4c-0.8,2.8-7.8,27.8,2.5,44.5c0.3,0.4,0.6,0.9,0.9,1.3c-4.6-0.8-9.3-2.5-13.4-5.6
	c-9.1-6.9-14.4-19.9-15.5-38.5c-0.2-4-3.5-7.1-7.5-7.1H51.4C31.3,193.3,15,177,15,156.9V51.3C15,31.3,31.3,15,51.4,15H64
	c4.1,0,7.5-3.4,7.5-7.5S68.1,0,64,0H51.4C23,0,0,23,0,51.3v105.6c0,28.3,23,51.3,51.4,51.3h35.9C89.6,227.8,96.6,242.1,108,250.7z"
	/>
<path d="M48.5,88.4c0,15.8,8.2,46.5,63,75.5c2,1.1,4.3,1.6,6.5,1.6s4.5-0.5,6.5-1.6c54.8-29,63-59.7,63-75.5
	c0-24.1-16.9-42.9-38.5-42.9c-14.9,0-25.3,7-31,12.2c-5.7-5.2-16.1-12.2-31-12.2C65.4,45.5,48.5,64.3,48.5,88.4z M87,60.5
	c10.6,0,17.9,5.2,22.1,9.5c2.3,2.4,5.6,3.7,8.9,3.7s6.6-1.4,8.9-3.7c4.2-4.3,11.5-9.5,22.1-9.5c15.3,0,23.5,14.4,23.5,27.9
	c0,21-19.9,43.5-54.5,62c-34.6-18.4-54.5-41-54.5-62C63.5,74.9,71.7,60.5,87,60.5z"/>
</svg>
