<svg xmlns="http://www.w3.org/2000/svg" viewBox="0 0 504 513" width="45" height="46">
	<defs>
		<clipPath clipPathUnits="userSpaceOnUse" id="cp1">
			<path d="M1 1L503 1L503 513L1 513Z" />
		</clipPath>
	</defs>
	<style>
		tspan { white-space:pre }
		.shp0 { fill: #fff } 
		.txt1 { font-size: 112px;fill: #fff;font-family: "Averta Demo PE" } 
	</style>
	<g id="Page 1" clip-path="url(#cp1)">
		<path id="Path 1" class="shp0" d="M133.25,219.32v29.32c0,10.75 -8.75,19.5 -19.5,19.5h-29.31c-10.75,0 -19.5,-8.75 -19.5,-19.5v-29.32c0,-10.75 8.75,-19.5 19.5,-19.5h29.31c10.75,0 19.5,8.75 19.5,19.5zM118.25,219.32c0,-2.44 -2.06,-4.5 -4.5,-4.5h-29.31c-2.44,0 -4.5,2.06 -4.5,4.5v29.32c0,2.44 2.06,4.5 4.5,4.5h29.31c2.44,0 4.5,-2.06 4.5,-4.5zM137.12,342.93c0,10.75 -8.75,19.5 -19.5,19.5h-29.31c-10.75,0 -19.5,-8.75 -19.5,-19.5v-29.32c0,-10.75 8.75,-19.5 19.5,-19.5h29.31c10.75,0 19.5,8.75 19.5,19.5zM122.12,313.61c0,-2.44 -2.06,-4.5 -4.5,-4.5h-29.31c-2.44,0 -4.5,2.06 -4.5,4.5v29.32c0,2.44 2.06,4.5 4.5,4.5h29.31c2.44,0 4.5,-2.06 4.5,-4.5zM135.92,407.68v29.31c0,10.75 -8.75,19.5 -19.5,19.5h-29.31c-10.75,0 -19.5,-8.75 -19.5,-19.5v-29.31c0,-10.75 8.75,-19.5 19.5,-19.5h29.31c10.75,0 19.5,8.75 19.5,19.5zM120.92,407.68c0,-2.44 -2.06,-4.5 -4.5,-4.5h-29.31c-2.44,0 -4.5,2.06 -4.5,4.5v29.31c0,2.44 2.06,4.5 4.5,4.5h29.31c2.44,0 4.5,-2.06 4.5,-4.5zM226.38,219.32v29.32c0,10.75 -8.75,19.5 -19.5,19.5h-29.31c-10.75,0 -19.5,-8.75 -19.5,-19.5v-29.32c0,-10.75 8.75,-19.5 19.5,-19.5h29.31c10.75,0 19.5,8.75 19.5,19.5zM211.37,219.32c0,-2.44 -2.06,-4.5 -4.5,-4.5h-29.31c-2.44,0 -4.5,2.06 -4.5,4.5v29.32c0,2.44 2.06,4.5 4.5,4.5h29.31c2.44,0 4.5,-2.06 4.5,-4.5zM228.31,313.61v29.32c0,10.75 -8.75,19.5 -19.5,19.5h-29.31c-10.75,0 -19.5,-8.75 -19.5,-19.5v-29.32c0,-10.75 8.75,-19.5 19.5,-19.5h29.31c10.75,0 19.5,8.75 19.5,19.5zM213.31,313.61c0,-2.44 -2.06,-4.5 -4.5,-4.5h-29.31c-2.44,0 -4.5,2.06 -4.5,4.5v29.32c0,2.44 2.06,4.5 4.5,4.5h29.31c2.44,0 4.5,-2.06 4.5,-4.5zM227.71,407.68v29.31c0,10.75 -8.75,19.5 -19.5,19.5h-29.31c-10.75,0 -19.5,-8.75 -19.5,-19.5v-29.31c0,-10.75 8.75,-19.5 19.5,-19.5h29.31c10.75,0 19.5,8.75 19.5,19.5zM212.71,407.68c0,-2.44 -2.06,-4.5 -4.5,-4.5h-29.31c-2.44,0 -4.5,2.06 -4.5,4.5v29.31c0,2.44 2.06,4.5 4.5,4.5h29.31c2.44,0 4.5,-2.06 4.5,-4.5zM319.5,219.32v29.32c0,10.75 -8.75,19.5 -19.5,19.5h-29.31c-10.75,0 -19.5,-8.75 -19.5,-19.5v-29.32c0,-10.75 8.75,-19.5 19.5,-19.5h29.31c10.75,0 19.5,8.75 19.5,19.5zM304.5,219.32c0,-2.44 -2.06,-4.5 -4.5,-4.5h-29.31c-2.44,0 -4.5,2.06 -4.5,4.5v29.32c0,2.44 2.06,4.5 4.5,4.5h29.31c2.44,0 4.5,-2.06 4.5,-4.5zM292.84,112.95c0,4.14 -3.36,7.5 -7.5,7.5h-182.38c-4.14,0 -7.5,-3.36 -7.5,-7.5c0,-4.14 3.36,-7.5 7.5,-7.5h182.38c4.14,0 7.5,3.36 7.5,7.5zM503.24,408.81c0,57.45 -46.74,104.18 -104.19,104.18c-9,0 -17.73,-1.15 -26.06,-3.3c-3.44,2.14 -7.4,3.3 -11.51,3.3h-151.76c-4.14,0 -7.5,-3.36 -7.5,-7.5c0,-4.14 3.36,-7.5 7.5,-7.5h135.53c-16.35,-9.9 -30.46,-24.58 -39.63,-43.05c-2.54,1.01 -5.26,1.55 -8.07,1.55h-24.41c-12.1,0 -21.95,-9.85 -21.95,-21.95v-118.48c0,-12.1 9.85,-21.95 21.95,-21.95h24.41c12.1,0 21.95,9.85 21.95,21.95v25.39c13.27,-15.67 30.51,-26.6 48.93,-32.23v-286.27c0,-3.83 -3.12,-6.95 -6.95,-6.95h-338.53c-3.83,0 -6.95,3.12 -6.95,6.95v468.1c0,3.83 3.12,6.95 6.95,6.95h151.76c4.14,0 7.5,3.36 7.5,7.5c0,4.14 -3.36,7.5 -7.5,7.5h-151.76c-12.1,0 -21.95,-9.85 -21.95,-21.95v-468.1c0,-12.1 9.85,-21.95 21.95,-21.95h338.53c12.1,0 21.95,9.85 21.95,21.95v282.85c5.1,-0.77 10.32,-1.17 15.62,-1.17c57.45,0 104.19,46.74 104.19,104.18zM304.5,364.96v-48.9c0,-3.83 -3.12,-6.95 -6.95,-6.95h-24.41c-3.83,0 -6.95,3.12 -6.95,6.95v118.48c0,3.83 3.12,6.95 6.95,6.95h24.41c0.83,0 1.64,-0.15 2.4,-0.43c-3.37,-10.39 -5.08,-21.38 -5.08,-32.24c0,-15.42 3.4,-30.39 9.63,-43.86zM488.24,408.81c0,-49.18 -40.01,-89.18 -89.19,-89.18c-49.07,0 -89.18,39.9 -89.18,89.18c0,47.77 38.9,89.18 89.18,89.18c49.18,0 89.19,-40.01 89.19,-89.18zM322.63,95.45v-23.91c0,-2.44 -2.06,-4.5 -4.5,-4.5h-251.84c-2.44,0 -4.5,2.06 -4.5,4.5v82.83c0,2.44 2.06,4.5 4.5,4.5h251.84c2.44,0 4.5,-2.06 4.5,-4.5v-23.91c0,-4.14 3.36,-7.5 7.5,-7.5c4.14,0 7.5,3.36 7.5,7.5v23.91c0,10.75 -8.75,19.5 -19.5,19.5h-251.84c-10.75,0 -19.5,-8.75 -19.5,-19.5v-82.83c0,-10.75 8.75,-19.5 19.5,-19.5h251.84c10.75,0 19.5,8.75 19.5,19.5v23.91c0,4.14 -3.36,7.5 -7.5,7.5c-4.14,0 -7.5,-3.36 -7.5,-7.5z" />
		<text id="ла " style="transform: matrix(1,0,0,1,369.122,448.441)" >
			<tspan x="0" y="0" class="txt1">ла</tspan>
		</text>
		<path id="Path 3" class="shp0" d="M417.09,424.9h-47.97v7.85h47.97z" />
	</g>
</svg>