<?xml version="1.0" encoding="utf-8"?><svg xmlns="http://www.w3.org/2000/svg" xmlns:xlink="http://www.w3.org/1999/xlink"><symbol viewBox="0 0 289 492" id="arrow" xmlns="http://www.w3.org/2000/svg"><path d="M281.2 226.8L62.3 7.9C57.2 2.8 50.4 0 43.2 0s-14 2.8-19 7.9L8.1 24c-10.5 10.5-10.5 27.6 0 38L192 245.9 7.9 430C2.8 435 0 441.8 0 449c0 7.2 2.8 14 7.9 19L24 484.1c5.1 5.1 11.8 7.9 19 7.9s14-2.8 19-7.9L281.2 265c5.1-5.1 7.9-11.9 7.8-19.1.1-7.2-2.7-14-7.8-19.1z"/></symbol><symbol viewBox="0 0 270.4 98.1" id="iconSheer"><path d="M175.1 51.8c.2 1.2.3 2.1.5 3 2 8.4 8.6 14 17.2 14.7 7.6.6 13.6-2.3 18-8.5 2.2-3 5.7-3.5 8.5-1.1 1.6 1.4 1.8 3.2.5 4.9-.7.9-1.4 1.8-2.1 2.8-2.9 4-6.7 6.7-11.4 8.3-7.6 2.6-15.2 3-22.7.2-10.1-3.7-16.1-11.1-17.8-21.7-1-6.5-.4-13 2.6-18.9 4.3-8.4 11.1-13.6 20.5-15.1 6.2-1 12.4-.4 18.2 2.4 8.2 3.9 13.2 10.5 15.1 19.3.5 2.4.7 4.9.9 7.3.2 1.5-.5 2.2-2.1 2.3h-44.1c-.4.1-.9.1-1.8.1zm38.3-9.2c-1.2-7.9-10.7-14.7-19.4-14.2-9.1.5-18.2 7.5-18.5 14.2h37.9zm-101 9c.1.8.2 1.4.3 2 1.7 9.3 9.3 15.7 18.7 15.9 7.1.1 12.7-2.8 16.8-8.6 2.2-3.1 6.1-3.4 8.8-.7 1.3 1.4 1.5 3 .3 4.6-.5.8-1.1 1.5-1.7 2.2-3.1 4.5-7.3 7.4-12.5 9.1-7.6 2.5-15.2 2.7-22.5-.2-10.6-4.1-16.4-12.1-17.6-23.3-.6-5.4-.1-10.7 2.2-15.6 4.3-9.4 11.4-15.2 21.8-16.6 5.5-.7 11-.3 16.1 1.8 9.2 3.8 14.6 10.9 16.6 20.6.4 2.2.6 4.5.7 6.7.1 1.8-.3 2.2-2.2 2.2h-43.5c-.7-.1-1.4-.1-2.3-.1zm38.4-9.1c-1.2-7.8-10.4-14.4-19.4-14.2-8.8.2-17.9 7.2-18.6 14.2h38zm101 13.5c.7.6 1.1 1 1.5 1.4 4.9 4.2 9.8 8.3 14.6 12.5.3.3.7.6 1 .9 1.8 1.8 2 4.4.3 6.2-1.6 1.8-4.2 2.1-6.1.5-3.4-2.8-6.7-5.7-10-8.5-4.8-4.1-9.5-8.1-14.3-12.2-.4-.4-.9-.7-1.6-1.3 0 1-.1 1.6-.1 2.3v36.1c-.2 2.5-2.1 4.3-4.6 4.2-2.4-.1-4.1-1.9-4.2-4.4V21.9c0-1.6.2-1.9 1.7-1.9 2.1-.1 4.2-.1 6.2-.1 5 0 10.1.2 15.1-.1 8.4-.4 17.8 6.4 18.7 16.3.8 8.9-5.2 17.3-14.3 19.1-1.1.2-2.3.5-3.9.8zm-15.3-6.9c.5.1.9.1 1.2.1h12.6c1.2 0 2.4-.1 3.6-.5 3.9-1.2 7-3.5 8-7.7 1.7-7.1-3.6-13.7-10.9-13.7h-13c-.5 0-1 .1-1.5.1v21.7zM88.5 52H63.9c0 .7-.1 1.4-.1 2v18.9c0 .8 0 1.6-.2 2.3-.6 1.9-2.6 3.1-4.5 3-2.1-.2-3.8-1.8-4.1-3.9-.1-.5 0-1 0-1.5V5.4c0-.9.1-1.8.4-2.6.6-2 2.6-3 4.7-2.8 1.9.3 3.5 2 3.7 3.9.1.6 0 1.2 0 1.8v34.7c0 .7.1 1.4.1 2 1.5.4 22.9.4 24.5 0 0-.5.1-1.1.1-1.7V23.9c.2-2.3 1.9-4 4.2-4.1 2.3-.1 4.3 1.6 4.6 3.9.1.5 0 1 0 1.5v48.9c-.3 2.3-2.3 4.1-4.5 4-2.3-.1-4.1-1.9-4.3-4.2V52zM25 78.3c-5.9-.1-11.4-1.4-16.5-4.4-2.2-1.3-4.2-2.9-5.8-4.8-.8-1-1.6-2.1-2.2-3.3-1-1.9-.6-3.4.9-4.9 1.7-1.6 4.1-2.3 6.4-.7C9 61 10 62 10.9 63c.9.9 1.6 1.9 2.5 2.8 2.7 2.7 6 4.2 9.8 4.6 3.5.4 7 .3 10.4-.9 1.4-.5 2.8-1.2 4-2.1 2.9-2.2 3-5.9.2-8.2-1.3-1.1-2.9-1.9-4.5-2.6-4-1.7-8.1-2.9-12.3-4-3.4-.8-6.7-1.9-10.1-2.9-1.3-.4-2.5-1.1-3.7-1.7-3.2-1.7-5-4.4-5.5-7.9-1-7.1 1.7-12.8 8.1-15.9 9.8-4.8 19.7-5.2 29.4.4 1.8 1 3.5 2.5 5.1 3.9 1.2 1 2 2.5 2.5 4 .8 2.6-.5 3.9-2.8 4.4-2 .4-3.8-.2-5.2-1.7-.3-.3-.5-.6-.7-.9-2.3-3.4-5.6-5.3-9.6-6.1-4-.7-8-.6-11.8.9-1.4.5-2.8 1.3-3.9 2.3-2.7 2.3-2.7 5.4-.1 7.8 1.7 1.6 3.7 2.5 5.9 3 4.8 1.2 9.7 2.4 14.5 3.6 3.1.8 6.1 1.8 8.9 3.4 3.6 1.9 6.2 4.7 7.1 8.8 1.1 5 0 9.4-3.9 13-4.4 4-9.5 6.3-15.4 7-1.7.1-3.3.2-4.8.3z"/></symbol><symbol viewBox="0 0 440.8 440.8" id="insta" xmlns="http://www.w3.org/2000/svg"><path d="M309.5 0H131.3C58.9 0 0 58.9 0 131.3v178.2c0 72.4 58.9 131.3 131.3 131.3h178.2c72.4 0 131.3-58.9 131.3-131.3V131.3C440.8 58.9 381.9 0 309.5 0zm87 309.5c0 48-38.9 87-87 87H131.3c-48 0-87-38.9-87-87V131.3c0-48 38.9-87 87-87h178.2c48 0 87 38.9 87 87v178.2z"/><path class="cst0" d="M220.4 106.4c-62.9 0-114 51.1-114 114s51.1 114 114 114 114-51.1 114-114-51.1-114-114-114zm0 183.7c-38.5 0-69.7-31.2-69.7-69.7s31.2-69.7 69.7-69.7 69.7 31.2 69.7 69.7-31.2 69.7-69.7 69.7zM362 107.3c0 15.1-12.2 27.3-27.3 27.3-15.1 0-27.3-12.2-27.3-27.3S319.6 80 334.7 80c15-.1 27.3 12.2 27.3 27.3z"/></symbol><symbol viewBox="0 0 513.64 513.64" id="phone-call" xmlns="http://www.w3.org/2000/svg"><path d="M499.66 376.96l-71.68-71.68c-25.6-25.6-69.12-15.359-79.36 17.92-7.68 23.041-33.28 35.841-56.32 30.72-51.2-12.8-120.32-79.36-133.12-133.12-7.68-23.041 7.68-48.641 30.72-56.32 33.28-10.24 43.52-53.76 17.92-79.36l-71.68-71.68c-20.48-17.92-51.2-17.92-69.12 0L18.38 62.08c-48.64 51.2 5.12 186.88 125.44 307.2s256 176.641 307.2 125.44l48.64-48.64c17.921-20.48 17.921-51.2 0-69.12z"/></symbol><symbol viewBox="0 0 301.4 260.4" id="tg" xmlns="http://www.w3.org/2000/svg"><path class="est0" d="M279.5 2.9l-267.7 105S-.9 112.2.1 120.2s11.3 11.7 11.3 11.7l67.3 22.7.1.1v-.1L240.4 51.9s9.3-5.7 9 0c0 0 1.7 1-3.3 5.7s-127 114.3-127 114.3l-.2 2.1 109.8 84.2c18.3 8 25-8.7 25-8.7L301.4 9.2c0-16-22-6.3-21.9-6.3z"/><path class="est0" d="M160.9 206.2l-43.5 39.7s-3.4 2.6-7.1 1l8.3-73.7"/></symbol><symbol viewBox="0 0 100 108" id="viber" xmlns="http://www.w3.org/2000/svg"><path class="fst0" d="M91.6 60.5C89 82.4 73.3 83.8 70.4 84.8c-1.2.4-12.7 3.3-27 2.4l-15.6 17.3V84.6h-.1c-20.9-6-20.2-28.3-20-40 .2-11.7 2.4-21.3 8.8-27.8 11.5-10.6 35.1-9 35.1-9 20 .1 29.5 6.2 31.7 8.3 7.3 6.4 11.1 21.8 8.3 44.4m-2.9-50C86.1 8.1 75.5.2 51.9.1c0 0-27.8-1.7-41.4 11C3 18.8.3 30.1.1 44.1c-.3 14-.6 40.3 24.1 47.4v10.9s-.2 4.4 2.7 5.3c3.4 1.1 5.4-2.3 8.7-5.9 1.8-2 4.3-4.9 6.1-7.1 16.9 1.5 29.9-1.9 31.4-2.4 3.4-1.1 22.7-3.7 25.9-29.9 3.2-27-1.6-44.2-10.3-51.9"/><path class="fst0" d="M73.6 63.8s-3.2-2.7-4.7-3.9c-1.5-1.1-3.8-2.6-5.1-3.3-2.3-1.3-4.7-.5-5.7.8l-2 2.6c-1 1.3-2.7 1.1-3.1 1-3-.8-6.2-2.6-9.5-5.8s-5.3-6.6-6-10l-.1-.2c-.2-1.4 0-2.1.6-3.1l.1-.1c1.4-1.3 3.9-2.8 4.3-4.3 1-2.6-3.4-8-4-8.9 0 0-3.2-4.2-4.3-5-1.2-1-3.1-1.6-5-.4H29c-5.5 3.7-7.4 5.8-6.9 9l.3 1.3c2.8 8.7 8.1 18.1 16.1 26.4 7.9 8.1 16.5 13 24.9 16.4 2.2.7 4.5.1 6.8-1.9 1.8-1.7 3.2-3.5 4.2-5.4 1.1-2 .7-3.9-.8-5.2M60.5 44.6c-.3 0-.6-.3-.6-.6-.1-2.3-.7-4-1.8-5.2s-2.7-1.8-4.8-1.9c-.3 0-.6-.3-.6-.7s.3-.6.7-.6c2.5.1 4.4.9 5.7 2.3 1.3 1.4 2 3.4 2.2 6-.1.4-.4.7-.8.7"/><path class="fst0" d="M66.7 46.8c-.4 0-.6-.3-.6-.7.1-4.3-1.2-8-3.8-10.9-1.3-1.5-2.9-2.6-4.7-3.4-1.8-.8-3.9-1.3-6.3-1.5-.3 0-.6-.3-.6-.7 0-.4.3-.6.7-.6 5 .4 9 2.2 11.8 5.3 2.8 3.2 4.2 7.1 4.1 11.8.1.4-.2.7-.6.7"/><path class="fst0" d="M73.1 49.3c-.3 0-.6-.3-.6-.6 0-3.8-.6-7.3-1.7-10.3s-2.8-5.6-5-7.8-4.7-3.9-7.4-5-5.8-1.7-9.1-1.7c-.3 0-.6-.3-.6-.6 0-.4.3-.6.6-.6 6.9.1 12.7 2.4 17.4 7.1 2.3 2.3 4.1 5.1 5.3 8.3 1.2 3.2 1.8 6.8 1.8 10.8 0 .1-.3.4-.7.4z"/></symbol><symbol viewBox="0 0 428.1 245.9" id="vk" xmlns="http://www.w3.org/2000/svg"><path d="M4.1 37.2C.5 27.8-4.1 18 6.8 12.7l66.4-.9c9.6.3 14 7.4 19.1 17.3 14.9 28.7 30.4 57.3 49.1 83.6 6.1 8.6 16.4 11.9 24.5-1.8l2.7-55.5c-3-21.5-10.5-34.2-23.6-35.5-7.5-7.3-2.1-13.3 14.7-16.5 26.7-5.7 50-3.1 70.5-.5C247.5 4 250 15.7 249.7 29.1c-.6 24.5-1.1 49.1-1.1 73.6 5.1 24.9 18.7 14.9 27.7 4.1 16.1-22.9 30.1-45.2 41.8-70.3 12.1-25.8 15.4-23.9 23.9-24 20.3-.1 42.7-1.1 58.9-.5 33.8-2 29.9 13 20.4 28.9-16.4 27.7-37.5 52.7-56.3 79.1-11.4 15.5-11.2 25.2.9 33.6 17.9 19.7 37.3 38.1 53.6 59.1 17.7 22.9 4.7 29.2-11.8 30.9h-59.1c-16.8.3-32-3.9-42.7-21.8-24.7-32.7-43.1-41.7-50.5-23.3-3.2 8.1-5.9 19-5.8 29.6.1 14.8-8.8 16-20.9 16.4-13 0-26.5 3.2-39.1 0-44.6-11.3-87.4-32.1-129.1-103.6C41.7 110 22.9 76.2 4.1 37.2z"/></symbol><symbol viewBox="0 0 100 100.5" id="wa" xmlns="http://www.w3.org/2000/svg"><path class="hst0" d="M85.4 14.6C76 5.2 63.5 0 50.2 0 22.8 0 .4 22.3.4 49.8c0 8.8 2.3 17.3 6.6 24.9l-7 25.8 26.4-6.9c7.3 4 15.5 6.1 23.8 6.1 27.4 0 49.8-22.3 49.8-49.8 0-13.4-5.2-25.9-14.6-35.3zM50.2 91.2c-7.4 0-14.7-2-21.1-5.8l-1.5-.9L12 88.7l4.2-15.3-1-1.6c-4.1-6.6-6.3-14.2-6.3-22C8.8 27 27.4 8.4 50.2 8.4c11.1 0 21.4 4.3 29.3 12.1 7.8 7.8 12.1 18.2 12.1 29.3 0 22.8-18.6 41.4-41.4 41.4zm22.7-31c-1.2-.6-7.4-3.6-8.5-4s-2-.6-2.8.6c-.8 1.2-3.2 4-3.9 4.9-.7.8-1.5.9-2.7.3s-5.3-1.9-10-6.2c-3.7-3.3-6.2-7.4-6.9-8.6s-.1-1.9.5-2.5 1.2-1.5 1.9-2.2c.6-.7.8-1.2 1.2-2.1.4-.8.2-1.6-.1-2.2-.3-.6-2.8-6.7-3.8-9.2-1-2.4-2-2.1-2.8-2.1h-2.4c-.8 0-2.2.3-3.3 1.6-1.1 1.2-4.4 4.3-4.4 10.4s4.5 12 5.1 12.9c.6.8 8.8 13.4 21.3 18.8 3 1.3 5.3 2 7.1 2.6 3 .9 5.7.8 7.8.5 2.4-.4 7.4-3 8.4-5.9s1-5.4.7-5.9c-.3-.8-1.1-1.1-2.4-1.7z"/></symbol><symbol viewBox="0 0 428.1 245.9" id="yt" xmlns="http://www.w3.org/2000/svg"><path d="M376.8 41.9c-3.9-14.5-15.3-25.9-30-29.8-26.6-6.9-132.9-6.9-132.9-6.9S109.6 4.8 83 11.7c-14.7 3.9-28.7 15.8-32.6 30.2-7.1 26.4-6.5 81-6.5 81s-.6 54.7 6.5 81c3.9 14.5 18.1 26.4 32.6 30.2 26.6 7.1 130.9 6.5 130.9 6.5s104.3.4 130.9-6.5c14.7-3.9 28.3-15.8 32.2-30.2 7.1-26.1 7.1-81 7.1-81s-.1-54.6-7.3-81zM181.3 175.2V70.7l84.9 52.3-84.9 52.2z"/></symbol></svg>