<?xml version="1.0" encoding="utf-8"?>
<!-- Generator: Adobe Illustrator 22.1.0, SVG Export Plug-In . SVG Version: 6.00 Build 0)  -->
<svg version="1.1" id="Layer_1" xmlns="http://www.w3.org/2000/svg" xmlns:xlink="http://www.w3.org/1999/xlink" x="0px" y="0px"
	 viewBox="0 0 158.5 80.6" style="enable-background:new 0 0 158.5 80.6;" xml:space="preserve">
<style type="text/css">
	.st0{fill:#00BCE4;}
	.st1{fill:#009DDC;}
	.st2{fill:#FFFFFF;}
</style>
<g id="Layer_2_1_">
	<g id="Слой_1">
		<path class="st0" d="M158.5,11.6c0,6.4-5.5,11.6-14.8,11.6c-10.4,0-64.5-11.6-64.5-11.6S25.1,0,14.8,0C6.3,0,0,5.2,0,11.6v50.8
			c0,7.5,6.1,10.2,14.4,12.4c10,2.6,36.4,5.9,64.9,5.9s55-3.3,64.9-5.9c8.2-2.2,14.4-4.9,14.4-12.4V11.6z"/>
		<path class="st1" d="M79.3,11.6c0,0,54.1,11.6,64.5,11.6c9.3,0,14.8-5.2,14.8-11.6S153,0,143.8,0C133.4,0,79.3,11.6,79.3,11.6z"/>
		<path class="st2" d="M102,56.6c-1.2-0.2-2.1-1.2-2.1-2.4V32.9c0-0.6-0.4-1-1-1.1h-2.2c-0.6,0-1,0.5-1,1.1v20.3
			c-0.2,3,2.1,5.7,5.1,5.9c0.3,0,0.6,0,0.9,0c0.6,0,1.2-0.4,1.3-1.1C103,57.3,102.9,56.9,102,56.6z"/>
		<path class="st2" d="M134,55.8c-0.6,0.3-1.3,0.5-2,0.5c-1.1,0.1-2.1-0.7-2.2-1.8c0-0.2,0-0.4,0-0.5V43.4h3.4c0.5,0,1-0.3,1-0.8
			c0,0,0,0,0-0.1v-1c0-0.5-0.4-0.9-0.9-0.9c0,0,0,0-0.1,0h-3.4v-3.7c0-0.6-0.4-1-1-1.1h-2.3c-0.6,0-1,0.4-1,1c0,0,0,0,0,0.1v3.7
			h-2.1c-0.5,0-0.9,0.3-1,0.8c0,0,0,0,0,0.1v1c0,0.5,0.4,0.9,0.9,0.9c0,0,0,0,0.1,0h2.1V54c0,4.1,2.4,5.1,5,5.1s4.2-1.2,4.2-1.6
			C134.8,56.5,134.4,55.8,134,55.8z"/>
		<path class="st2" d="M43.4,32.6h-2.2c-0.6,0-1,0.5-1,1.1v15.7c0,1.2-0.1,6.5-6.2,6.5s-6.2-5.3-6.2-6.5V33.6c0-0.6-0.4-1-1-1.1
			h-2.2c-0.6,0-1,0.5-1,1.1v16.1c0,5.4,3.3,9.5,10.4,9.5s10.4-4.2,10.4-9.5V33.6C44.4,33.1,44,32.6,43.4,32.6z"/>
		<path class="st2" d="M68.3,40.2c-2.4,0.1-4.6,1.3-5.9,3.3c-0.8-2.1-2.8-3.4-5.1-3.3c-2.2,0-4.2,1.1-5.4,2.9V42
			c0.1-0.7-0.5-1.4-1.2-1.4c-0.1,0-0.2,0-0.2,0h-1.8c-0.6,0-1,0.4-1,1v16.1c0,0.6,0.4,1,1,1.1H51c0.6,0,1-0.5,1-1.1V46.5
			c0.7-1.4,1.9-3.1,4-3.1s2.9,1.4,2.9,3.4v10.9c0,0.6,0.4,1,1,1.1h2.3c0.6,0,1-0.5,1-1.1V46.9c0-0.2,0-0.4,0-0.6
			c0.6-1.6,2.1-2.7,3.9-2.9c2,0,2.9,1.4,2.9,3.4v10.9c0,0.6,0.4,1,1,1.1H73c0.6,0,1-0.5,1-1.1V46.9C74,44.6,73,40.2,68.3,40.2z"/>
		<path class="st2" d="M85.5,40.2c-4.8,0-7.5,3.2-7.5,3.8s0.5,1.7,1.5,1.7c1.2,0,2.1-2.3,5.3-2.3c2.6,0,3.6,1.5,3.6,3.5v0.7
			c-0.9-0.1-1.8-0.1-2.7-0.1c-2.8,0-8.9,0.8-8.9,6.1c0,3.8,2.8,5.7,6.1,5.7c2.2,0,4.2-1.1,5.5-2.8v1.3c0,0.6,0.4,1,1,1.1h2.2
			c0.6,0,1-0.5,1-1.1V46.2C92.7,43.4,90.6,40.2,85.5,40.2z M84.5,56.3c-1.6,0-3.3-0.5-3.3-2.8s1.6-3.5,4.3-3.5c1.5,0,2.4,0,2.9,0.1
			v3C87.7,54.7,86.5,56.3,84.5,56.3L84.5,56.3z"/>
		<path class="st2" d="M113.7,40.2c-4.8,0-7.5,3.2-7.5,3.8s0.5,1.7,1.5,1.7c1.2,0,2.1-2.3,5.3-2.3c2.6,0,3.6,1.5,3.6,3.5v0.7
			c-0.8-0.1-1.8-0.1-2.7-0.1c-2.8,0-9,0.8-9,6.1c0,3.8,2.8,5.7,6.1,5.7c2.2,0,4.2-1.1,5.5-2.8v1.3c0,0.6,0.4,1,1,1.1h2.2
			c0.6,0,1-0.5,1-1.1V46.2C120.8,43.4,118.8,40.2,113.7,40.2z M112.7,56.3c-1.6,0-3.3-0.5-3.3-2.8s1.6-3.5,4.3-3.5
			c1.5,0,2.4,0,2.9,0.1v3C115.9,54.7,114.7,56.3,112.7,56.3L112.7,56.3z"/>
		<path class="st2" d="M137.4,38.7c-1.9,0-3.5-1.6-3.5-3.5c0-1.9,1.6-3.5,3.5-3.5c1.9,0,3.5,1.6,3.5,3.5c0,0,0,0,0,0
			C140.8,37.2,139.3,38.7,137.4,38.7C137.4,38.7,137.4,38.7,137.4,38.7z M137.4,32.2c-1.7,0-3.1,1.4-3.1,3.1s1.4,3.1,3.1,3.1
			s3.1-1.4,3.1-3.1C140.4,33.6,139.1,32.2,137.4,32.2C137.4,32.2,137.4,32.2,137.4,32.2z"/>
		<path class="st2" d="M138.6,36.9c0,0,0,0.1-0.1,0.1c0,0-0.1,0-0.1,0c-0.1,0-0.2,0-0.2-0.1l-1.4-1.5v1.4c0,0.1,0,0.1-0.1,0.2
			c0,0-0.1,0.1-0.2,0.1c-0.1,0-0.1,0-0.2-0.1c0-0.1-0.1-0.1-0.1-0.2v-3.2c0-0.1,0-0.1,0.1-0.2c0-0.1,0.1-0.1,0.2-0.1h0.8
			c0.1,0,0.3,0,0.4,0.1c0.1,0,0.3,0.1,0.4,0.2c0.2,0.2,0.3,0.4,0.3,0.7c0,0.2,0,0.3-0.1,0.5c0,0.1-0.1,0.2-0.2,0.3
			c-0.1,0.1-0.2,0.1-0.3,0.2c-0.1,0-0.3,0.1-0.4,0.1h-0.2l1.2,1.3C138.6,36.7,138.6,36.8,138.6,36.9z M138.1,34.4
			c0-0.2-0.1-0.3-0.2-0.5c-0.1-0.1-0.3-0.2-0.5-0.2h-0.6v1.3h0.6c0.2,0,0.4,0,0.5-0.2C138,34.8,138.1,34.6,138.1,34.4L138.1,34.4z"
			/>
	</g>
</g>
</svg>
