<?xml version="1.0" encoding="utf-8"?>
<!-- Generator: Adobe Illustrator 22.0.1, SVG Export Plug-In . SVG Version: 6.00 Build 0)  -->
<svg version="1.1" id="Layer_1" xmlns="http://www.w3.org/2000/svg" xmlns:xlink="http://www.w3.org/1999/xlink" x="0px" y="0px"
	 viewBox="0 0 43.5 43.5" style="enable-background:new 0 0 43.5 43.5;" xml:space="preserve">
<style type="text/css">
	.st0{fill-rule:evenodd;clip-rule:evenodd;fill:#63B951;stroke:#FFFFFF;stroke-width:2;stroke-miterlimit:10;}
	.st1{fill-rule:evenodd;clip-rule:evenodd;fill:#FFFFFF;}
</style>
<circle class="st0" cx="21.8" cy="21.8" r="20.8"/>
<path class="st1" d="M17.8,21c-1.6,0-3.1-0.3-3.4,1.2c-0.2,0.7,0,1.4,0.4,1.8c0.5,0.5,1.1,0.5,1.9,0.5c-0.3,3.9-3.1,9.1,1.1,9.3
	c1.4,0,2.9,0,4.3,0c2.5,0,6.4,0.7,6.4-2.1c0-1.2-1.3-5.6-1.4-7.1c1.6,0,2.5-0.7,2.1-2.3c-0.4-1.5-1.9-1.1-3.5-1.2
	c0.6-2.9-0.7-2.3,0.1-3.6c0.2-0.3,0.4-0.6,0.6-1c0.9-1.6,1.1-2.8,1.2-4.9c0.1-0.8,0-1.9-1.2-1.8c-0.8,0.1-1.1,1-1.5,1.6
	c-0.9,1.4-1.5,2.4-1.7,4.5c-0.4,0-0.9-0.1-1.3-0.2c-0.5,0-0.9,0.2-1.3,0.1c-0.2-2.1-0.8-2.9-1.7-4.4c-0.3-0.6-0.8-1.5-1.4-1.7
	c-2.7-0.6-0.9,5.3-0.3,6.5c0.5,0.9,1.1,1.5,0.9,2C17.6,19.6,17.6,19.6,17.8,21L17.8,21z M22.9,17.8c0.5,0,0.9,0.4,0.9,0.9
	c0,0.5-0.4,0.9-0.9,0.9c-0.5,0-0.9-0.4-0.9-0.9C22,18.2,22.4,17.8,22.9,17.8L22.9,17.8z M22.9,18.3c0.3,0,0.5,0.2,0.5,0.5
	c0,0.3-0.2,0.5-0.5,0.5c-0.3,0-0.5-0.2-0.5-0.5C22.5,18.5,22.7,18.3,22.9,18.3L22.9,18.3z M20.3,17.8c0.5,0,0.9,0.4,0.9,0.9
	c0,0.5-0.4,0.9-0.9,0.9c-0.5,0-0.9-0.4-0.9-0.9C19.4,18.2,19.8,17.8,20.3,17.8L20.3,17.8z M20.3,18.3c0.3,0,0.5,0.2,0.5,0.5
	c0,0.3-0.2,0.5-0.5,0.5c-0.3,0-0.5-0.2-0.5-0.5C19.8,18.5,20,18.3,20.3,18.3L20.3,18.3z M18.6,20.8l6.4,0l0.2-1.1
	c0.1-1.2-0.8-1.3-0.2-2.3c0.4-0.5,0.9-1.3,1.2-1.9c0.5-1,1.2-4,0.7-5c-0.8-0.1-1,0.6-1.3,1.1c-1.2,2-1.5,2.3-1.9,5.3
	c-0.7-0.2-1-0.5-1.8-0.5c-0.7,0-1.5,0.4-1.9,0.4c-0.4-3.1-0.6-3-1.8-5.2c-0.4-0.6-0.5-1.3-1.3-1.1c-0.5,0.9,0.2,4.1,0.9,5.4
	c0.3,0.5,1.2,1.8,1.1,2.1C18.7,18.4,18,19.7,18.6,20.8L18.6,20.8z M17.5,23.8c-0.3,2.2-0.9,4.7-1.3,6.9c-0.3,1.4,0.1,2.3,1.5,2.3
	l8.2,0c1.5,0,1.9-0.9,1.6-2.3c-0.5-2.2-1-4.7-1.4-6.9c0.8,0,1.9,0.2,2.3-0.5c0.5-0.9-0.1-1.6-1-1.6H16.1c-0.9,0-1.4,0.7-1,1.6
	C15.5,24,16.7,23.7,17.5,23.8L17.5,23.8z"/>
</svg>
