<?xml version="1.0" encoding="utf-8"?>
<!-- Generator: Adobe Illustrator 22.0.1, SVG Export Plug-In . SVG Version: 6.00 Build 0)  -->
<svg version="1.1" id="Layer_1" xmlns="http://www.w3.org/2000/svg" xmlns:xlink="http://www.w3.org/1999/xlink" x="0px" y="0px"
	 viewBox="0 0 43.5 43.5" style="enable-background:new 0 0 43.5 43.5;" xml:space="preserve">
<style type="text/css">
	.st0{fill-rule:evenodd;clip-rule:evenodd;fill:#9AD56A;stroke:#FFFFFF;stroke-width:2;stroke-miterlimit:10;}
	.st1{fill-rule:evenodd;clip-rule:evenodd;fill:#FFFFFF;}
</style>
<circle class="st0" cx="21.8" cy="21.8" r="20.8"/>
<g>
	<path class="st1" d="M21.8,15.1c0.9,0,1.7-0.7,1.7-1.7c0-0.9-0.7-1.7-1.7-1.7c-0.9,0-1.7,0.7-1.7,1.7
		C20.1,14.4,20.8,15.1,21.8,15.1L21.8,15.1z M21.8,12.9c0.3,0,0.6,0.2,0.6,0.6c0,0.3-0.2,0.6-0.6,0.6c-0.3,0-0.6-0.2-0.6-0.6
		C21.2,13.1,21.5,12.9,21.8,12.9L21.8,12.9z"/>
	<path class="st1" d="M21.8,4.6c-9.5,0-17.2,7.7-17.2,17.2s7.7,17.2,17.2,17.2c9.5,0,17.2-7.7,17.2-17.2S31.2,4.6,21.8,4.6L21.8,4.6
		z M37.8,21.8c0,3.7-1.2,7.1-3.3,9.8v-4.2h0.9l-4.2-8.4l-2.3,4.6h-1.7l-0.8-3.3c0.2,0.1,0.3,0.1,0.5,0.1c0.4,0,0.9-0.2,1.2-0.5
		c0.6-0.6,0.6-1.4,0.2-2.1c0.5-0.8,0.9-1.7,1.1-2.6c0.7-0.2,1.3-0.8,1.3-1.6c0-0.8-0.6-1.4-1.3-1.6c-0.2-0.9-0.6-1.8-1.1-2.6
		c0.4-0.6,0.3-1.5-0.2-2.1c-0.6-0.6-1.4-0.6-2.1-0.2c-0.8-0.5-1.7-0.9-2.6-1.1c0,0,0-0.1,0-0.1C31.5,6.6,37.8,13.4,37.8,21.8
		L37.8,21.8z M26.2,35.6v-3.3c0-2.4-2-4.4-4.4-4.4c-2.4,0-4.4,2-4.4,4.4v3.3h-1.7v-8.3l0.9,0l-1.4-2.8h2.2v2.2h3.3v-2.2h2.2v2.2h3.3
		v-2.2h2.2L27,27.3h0.9v8.3H26.2L26.2,35.6z M21.2,33.4v2.2h-2.8v-3.3c0-1.6,1.2-3,2.8-3.3v3.3h1.1V29c1.6,0.3,2.8,1.6,2.8,3.3v3.3
		h-2.8v-2.2H21.2L21.2,33.4z M14.8,26.2H9.9l2.4-4.9L14.8,26.2L14.8,26.2z M10.1,32.3v-1.1h2.8v-1.1h-2.8v-2.8h4.4v8.3h-0.9
		c-1.1-0.6-2-1.4-2.9-2.2h1.1v-1.1H10.1L10.1,32.3z M20.3,7c0.2,0.4,0.5,0.7,0.9,0.8v1.8c-0.7,0.1-1.3,0.4-1.8,0.7l-1.3-1.3
		c0.2-0.4,0.2-0.8,0.1-1.2C18.9,7.4,19.5,7.1,20.3,7L20.3,7z M25.3,7.8c-0.1,0.4-0.1,0.9,0.1,1.2l-1.3,1.3C23.6,10,23,9.7,22.3,9.6
		V7.8c0.4-0.1,0.7-0.4,0.9-0.8C24,7.1,24.7,7.4,25.3,7.8L25.3,7.8z M23.2,19.9c-0.2-0.4-0.5-0.7-0.9-0.8v-1.8
		c0.7-0.1,1.3-0.4,1.8-0.7l1.3,1.3c-0.2,0.4-0.2,0.8-0.1,1.2C24.7,19.5,24,19.7,23.2,19.9L23.2,19.9z M20.3,19.9
		c-0.7-0.2-1.4-0.5-2-0.8c0.1-0.4,0.1-0.9-0.1-1.2l1.3-1.3c0.5,0.4,1.1,0.6,1.8,0.7v1.8C20.8,19.2,20.5,19.5,20.3,19.9L20.3,19.9z
		 M21.8,10.7c1.5,0,2.8,1.2,2.8,2.8c0,1.5-1.2,2.8-2.8,2.8c-1.5,0-2.8-1.2-2.8-2.8C19,11.9,20.2,10.7,21.8,10.7L21.8,10.7z
		 M22.3,20.6c0,0.3-0.2,0.6-0.6,0.6c-0.3,0-0.6-0.2-0.6-0.6c0-0.3,0.2-0.6,0.6-0.6C22.1,20.1,22.3,20.3,22.3,20.6L22.3,20.6z
		 M26.5,18.1c0.1-0.1,0.3-0.2,0.4-0.2c0.1,0,0.3,0.1,0.4,0.2c0.2,0.2,0.2,0.6,0,0.8c-0.2,0.2-0.6,0.2-0.8,0
		C26.2,18.7,26.2,18.4,26.5,18.1L26.5,18.1z M27.4,17c-0.4-0.1-0.9-0.1-1.2,0.1l-1.3-1.3c0.4-0.5,0.6-1.1,0.7-1.8h1.8
		c0.1,0.4,0.4,0.7,0.8,0.9C28.1,15.7,27.8,16.3,27.4,17L27.4,17z M29,14c-0.3,0-0.6-0.2-0.6-0.6c0-0.3,0.2-0.6,0.6-0.6
		c0.3,0,0.6,0.2,0.6,0.6C29.5,13.7,29.3,14,29,14L29,14z M27.4,12.9h-1.8c-0.1-0.7-0.4-1.3-0.7-1.8l1.3-1.3c0.2,0.1,0.5,0.2,0.7,0.2
		c0.2,0,0.4,0,0.5-0.1c0.4,0.6,0.7,1.3,0.8,2C27.8,12.1,27.6,12.5,27.4,12.9L27.4,12.9z M27.2,8.7C27,9,26.7,9,26.5,8.7
		c-0.2-0.2-0.2-0.6,0-0.8c0.1-0.1,0.3-0.2,0.4-0.2c0.1,0,0.3,0.1,0.4,0.2C27.5,8.2,27.5,8.5,27.2,8.7L27.2,8.7z M22.3,6.2
		c0,0.3-0.2,0.6-0.6,0.6c-0.3,0-0.6-0.2-0.6-0.6c0-0.3,0.2-0.6,0.6-0.6C22.1,5.7,22.3,5.9,22.3,6.2L22.3,6.2z M17.1,8.7
		c-0.2,0.2-0.6,0.2-0.8,0c-0.2-0.2-0.2-0.6,0-0.8c0.1-0.1,0.2-0.2,0.4-0.2c0.1,0,0.3,0.1,0.4,0.2C17.3,8.2,17.3,8.5,17.1,8.7
		L17.1,8.7z M16.1,9.9c0.2,0.1,0.3,0.1,0.5,0.1c0.2,0,0.5-0.1,0.7-0.2l1.3,1.3c-0.4,0.5-0.6,1.1-0.7,1.8h-1.8
		c-0.1-0.4-0.4-0.7-0.8-0.9C15.4,11.2,15.7,10.5,16.1,9.9L16.1,9.9z M14.6,12.9c0.3,0,0.6,0.2,0.6,0.6c0,0.3-0.2,0.6-0.6,0.6
		c-0.3,0-0.6-0.2-0.6-0.6C14,13.1,14.2,12.9,14.6,12.9L14.6,12.9z M16.1,14h1.8c0.1,0.7,0.4,1.3,0.7,1.8L17.4,17
		c-0.4-0.2-0.8-0.2-1.2-0.1c-0.4-0.6-0.7-1.3-0.8-2C15.7,14.7,16,14.4,16.1,14L16.1,14L16.1,14z M16.3,18.1c0.1-0.1,0.2-0.2,0.4-0.2
		c0.1,0,0.3,0.1,0.4,0.2c0.2,0.2,0.2,0.6,0,0.8c-0.2,0.2-0.6,0.2-0.8,0C16.1,18.7,16.1,18.4,16.3,18.1L16.3,18.1z M20.1,21
		c0.2,0.7,0.8,1.3,1.6,1.3c0.8,0,1.4-0.6,1.6-1.3c0.7-0.1,1.3-0.4,1.9-0.7l0.8,3.1h-1v2.2H24v-2.2h-4.4v2.2h-1.1v-2.2h-1l0.8-3.1
		C18.8,20.7,19.5,20.9,20.1,21L20.1,21z M28.8,26.2l2.4-4.9l2.4,4.9H28.8L28.8,26.2z M20.2,5.8c0,0,0,0.1,0,0.1
		c-0.9,0.2-1.8,0.6-2.6,1.1c-0.6-0.4-1.5-0.3-2.1,0.2c-0.6,0.6-0.6,1.4-0.2,2c-0.5,0.8-0.9,1.7-1.1,2.6c-0.7,0.2-1.3,0.8-1.3,1.6
		c0,0.8,0.6,1.4,1.3,1.6c0.2,0.9,0.6,1.8,1.1,2.6c-0.4,0.6-0.3,1.5,0.2,2.1c0.3,0.3,0.8,0.5,1.2,0.5c0.2,0,0.3,0,0.5-0.1l-0.8,3.3
		h-1.7l-2.3-4.6l-4.2,8.4H9v4.2c-2.1-2.7-3.3-6.1-3.3-9.8C5.7,13.4,12,6.6,20.2,5.8L20.2,5.8z M15.9,36.7h11.7
		c-1.8,0.7-3.8,1.1-5.9,1.1C19.7,37.8,17.7,37.4,15.9,36.7L15.9,36.7z M29.9,35.6H29v-8.3l4.4,0v1.1h-2.8v1.1h2.8v1.1h-1.7v1.1h1.7
		v1.1C32.4,33.9,31.2,34.9,29.9,35.6L29.9,35.6z"/>
</g>
</svg>
