<?xml version="1.0" encoding="utf-8"?>
<!-- Generator: Adobe Illustrator 22.0.1, SVG Export Plug-In . SVG Version: 6.00 Build 0)  -->
<svg version="1.1" id="Layer_1" xmlns="http://www.w3.org/2000/svg" xmlns:xlink="http://www.w3.org/1999/xlink" x="0px" y="0px"
	 viewBox="0 0 43.5 43.5" style="enable-background:new 0 0 43.5 43.5;" xml:space="preserve">
<style type="text/css">
	.st0{fill-rule:evenodd;clip-rule:evenodd;fill:#7D90EF;stroke:#FFFFFF;stroke-width:2;stroke-miterlimit:10;}
	.st1{fill-rule:evenodd;clip-rule:evenodd;fill:#FFFFFF;}
</style>
<circle class="st0" cx="21.8" cy="21.8" r="20.8"/>
<g>
	<path class="st1" d="M32.9,8.8c-0.4,0.3-0.9,0.4-1.3,0.4c-0.5,0-0.9-0.1-1.3-0.4c-0.5-0.4-1.2-0.6-1.8-0.6c-0.7,0-1.4,0.2-2,0.5
		c-0.5,0.3-1,0.4-1.6,0.4c-0.5,0-0.9-0.1-1.3-0.4c-0.5-0.4-1.2-0.6-1.8-0.6c-0.7,0-1.3,0.2-1.8,0.6c-0.4,0.3-0.9,0.4-1.3,0.4
		c-0.5,0-0.9-0.1-1.3-0.4c-0.5-0.4-1.2-0.6-1.8-0.6c-0.7,0-1.4,0.2-2,0.5c-0.5,0.3-1,0.4-1.6,0.4c-0.5,0-0.9-0.1-1.3-0.4
		c-0.3-0.2-0.7-0.4-1.1-0.5v0.9c0.2,0.1,0.4,0.2,0.6,0.3c0.5,0.4,1.2,0.6,1.8,0.6c0.7,0,1.4-0.2,2-0.5c0.5-0.3,1-0.4,1.6-0.4
		c0.5,0,0.9,0.1,1.3,0.4c0.5,0.4,1.2,0.6,1.8,0.6c0.7,0,1.3-0.2,1.8-0.6c0.4-0.3,0.9-0.4,1.3-0.4c0.5,0,1,0.1,1.3,0.4
		c0.5,0.4,1.2,0.6,1.8,0.6c0.7,0,1.4-0.2,2-0.5c0.5-0.3,1-0.4,1.6-0.4c0.5,0,1,0.1,1.3,0.4c0.5,0.4,1.2,0.6,1.8,0.6
		c0.7,0,1.3-0.2,1.8-0.6c0.2-0.2,0.5-0.3,0.8-0.4V8.3C33.7,8.4,33.2,8.5,32.9,8.8L32.9,8.8z M9.3,35.3h24.8v-0.9H9.3V35.3L9.3,35.3z
		 M9.3,33.5h24.8v-0.9h-3.4c0.2-0.3,0.3-0.6,0.3-0.9c0-1-1-1.8-2.2-1.8c-0.5,0-0.9,0.1-1.4,0.4v-1l2-0.8l-0.3-0.8l-1.6,0.7v-0.9
		l2-1.2c0.1,0,0.1-0.1,0.1-0.1l0.9-1.3l-0.7-0.5L29,25.5l-0.5,0.3l-1.6-1.6l-0.6,0.6l1.4,1.4l-0.9,0.5c-0.1,0.1-0.2,0.2-0.2,0.4v5.4
		h-0.2c0.1-0.3,0.2-0.6,0.2-0.9c0-0.9,0-2.7-1.8-2.7c-1.4,0-3.6,1.2-3.6,2.7c0,0.3,0.1,0.6,0.2,0.9H18v-1.3c0-0.1-0.1-0.3-0.2-0.4
		l-1.3-0.9c-0.1,0-0.2-0.1-0.2-0.1h-0.3l-0.8-0.4c0,0,0,0-0.1,0L13.7,29c-0.1,0-0.2,0-0.3,0L12,29.4c-0.2,0.1-0.3,0.2-0.3,0.4v1.1
		l-0.7,0.3c-0.2,0.1-0.2,0.2-0.2,0.4v0.9H9.3V33.5L9.3,33.5z M31.5,21.3l2.7-0.3V20l-3.1,0.4l-5-0.8v-0.1h1.4c0.2,0,0.4-0.2,0.4-0.4
		v-1.8c0-0.7-0.6-1.4-1.3-1.4h-5.4c-0.7,0-1.4,0.6-1.4,1.4v0.2c-1.2-1.4-3.2-1.9-4.8-1.1c-1.7,0.8-2.6,2.6-2.3,4.4
		c0.3,1.8,1.9,3.2,3.7,3.3c0.2,0,0.4,0,0.6,0c1.1-0.1,2.2-0.6,2.9-1.5v2.4h-2.2c-0.2,0-0.5,0.2-0.5,0.4v1.8c0,0.2,0.2,0.4,0.5,0.4
		h4.5c0.2,0,0.4-0.2,0.4-0.4v-4h11.7v-0.9h-2.7V21.3L31.5,21.3z M12.2,31.7l1.6,0.4l0.2-0.9l-1.5-0.4v-0.7l0.9-0.3l1.2,0.4l0.5,0.3
		l-0.3,1l0.9,0.3l0.3-1l1,0.7v1.1h-5.4v-0.6L12.2,31.7L12.2,31.7z M22.1,31.7c0-0.9,1.6-1.8,2.7-1.8c0.1,0,0.2,0,0.2,0l-1,1l0.6,0.6
		l1-1c0.1,0.4,0.1,0.7,0.1,1.1c0,0.6-0.3,0.9-1.8,0.9C22.3,32.6,22.1,32.3,22.1,31.7L22.1,31.7z M28.8,32.6c-0.7,0-1.3-0.4-1.3-0.9
		c0-0.5,0.6-0.9,1.3-0.9c0.7,0,1.4,0.4,1.4,0.9C30.2,32.1,29.6,32.6,28.8,32.6L28.8,32.6z M22.5,22.2v-0.4c0-0.7-0.6-1.3-1.3-1.3
		h-0.5v-0.9h2.7v2.7H22.5L22.5,22.2z M20.7,25.4v-4h0.5c0.2,0,0.4,0.2,0.4,0.5v4.9H18v-0.9h2.3C20.5,25.8,20.7,25.6,20.7,25.4
		L20.7,25.4z M16.4,23.1l1-1l-0.6-0.6l-1.3,1.3c-0.6-0.5-0.8-1.3-0.6-2c0.3-0.7,0.9-1.2,1.7-1.2c0.1,0,0.2,0,0.2,0l-0.6,0.6l0.6,0.6
		l0.8-0.8c0.6,0.5,0.8,1.3,0.6,2c-0.3,0.7-0.9,1.2-1.7,1.2C16.6,23.1,16.5,23.1,16.4,23.1L16.4,23.1z M16.7,18.6
		c-0.8,0-1.5,0.3-2,0.9c-0.5,0.6-0.8,1.3-0.7,2.1c-0.8-1.3-0.5-3,0.6-4c1.2-1,2.9-1,4.1,0c1.2,1,1.4,2.7,0.6,4
		c0.1-0.8-0.2-1.5-0.7-2.1C18.2,18.9,17.4,18.6,16.7,18.6L16.7,18.6z M25.7,18.6v-1.8h0.9c0.2,0,0.4,0.2,0.4,0.4v1.3H25.7L25.7,18.6
		z M24.8,18.6H23v-1.8h1.8V18.6L24.8,18.6z M22.1,18.6h-1.4v-1.3c0-0.2,0.2-0.4,0.5-0.4h0.9V18.6L22.1,18.6z M24.3,19.5h0.9v2.7
		h-0.9V19.5L24.3,19.5z M26.1,20.5l4.5,0.7v1h-4.5V20.5L26.1,20.5z"/>
	<path class="st1" d="M15.8,24.9c-0.7,0-1.4,0.6-1.4,1.3c0,0.7,0.6,1.4,1.4,1.4c0.7,0,1.4-0.6,1.4-1.4
		C17.1,25.5,16.5,24.9,15.8,24.9L15.8,24.9z M15.8,26.7c-0.2,0-0.4-0.2-0.4-0.5c0-0.2,0.2-0.4,0.4-0.4c0.2,0,0.5,0.2,0.5,0.4
		C16.2,26.5,16,26.7,15.8,26.7L15.8,26.7z"/>
	<path class="st1" d="M11.3,15c-0.7,0-1.4,0.6-1.4,1.3c0,0.7,0.6,1.4,1.4,1.4c0.7,0,1.4-0.6,1.4-1.4C12.6,15.6,12,15,11.3,15
		L11.3,15z M11.3,16.8c-0.2,0-0.5-0.2-0.5-0.5c0-0.2,0.2-0.4,0.5-0.4c0.2,0,0.4,0.2,0.4,0.4C11.7,16.6,11.5,16.8,11.3,16.8
		L11.3,16.8z"/>
	<path class="st1" d="M14.9,15c0.7,0,1.4-0.6,1.4-1.3c0-0.7-0.6-1.4-1.4-1.4c-0.7,0-1.4,0.6-1.4,1.4C13.5,14.4,14.1,15,14.9,15
		L14.9,15z M14.9,13.2c0.2,0,0.4,0.2,0.4,0.4c0,0.2-0.2,0.5-0.4,0.5c-0.2,0-0.5-0.2-0.5-0.5C14.4,13.4,14.6,13.2,14.9,13.2
		L14.9,13.2z"/>
	<path class="st1" d="M30.2,15.5c0.7,0,1.4-0.6,1.4-1.3c0-0.7-0.6-1.4-1.4-1.4c-0.7,0-1.4,0.6-1.4,1.4
		C28.8,14.9,29.4,15.5,30.2,15.5L30.2,15.5z M30.2,13.7c0.2,0,0.4,0.2,0.4,0.5c0,0.2-0.2,0.4-0.4,0.4c-0.2,0-0.5-0.2-0.5-0.4
		C29.7,13.9,29.9,13.7,30.2,13.7L30.2,13.7z"/>
	<polygon class="st1" points="10.8,20.4 11.7,20.4 11.7,21.3 10.8,21.3 10.8,20.4 	"/>
	<polygon class="st1" points="18,14.1 18.9,14.1 18.9,15 18,15 18,14.1 	"/>
	<polygon class="st1" points="23.9,24.9 24.8,24.9 24.8,25.8 23.9,25.8 23.9,24.9 	"/>
	<polygon class="st1" points="32.4,15 33.3,15 33.3,15.9 32.4,15.9 32.4,15 	"/>
	<polygon class="st1" points="26.1,13.2 27,13.2 27,14.1 26.1,14.1 26.1,13.2 	"/>
</g>
</svg>
