<?xml version="1.0" encoding="utf-8"?>
<!-- Generator: Adobe Illustrator 22.1.0, SVG Export Plug-In . SVG Version: 6.00 Build 0)  -->
<svg version="1.1" id="Layer_1" xmlns="http://www.w3.org/2000/svg" xmlns:xlink="http://www.w3.org/1999/xlink" x="0px" y="0px"
	 viewBox="0 0 43.6 43.6" style="enable-background:new 0 0 43.6 43.6;" xml:space="preserve">
<style type="text/css">
	.st0{fill:#00A595;stroke:#FFFFFF;stroke-width:2;stroke-miterlimit:10;}
	.st1{fill:#FFFFFF;}
</style>
<circle class="st0" cx="21.8" cy="21.8" r="20.8"/>
<g>
	<path class="st1" d="M13,16.4L13,16.4v1c0,0.3,0.3,0.7,0.5,0.7v1.3c0,0.4,0.3,0.7,0.7,0.7v7.1c-0.4,0-0.7,0.4-0.7,0.7v1.3
		C13.3,29.4,13,29.7,13,30v0.8c0,0.1,0.1,0.3,0.3,0.3h17.2c0.1,0,0.3-0.1,0.3-0.3V30c0-0.3-0.3-0.7-0.5-0.8v-1.3
		c0-0.4-0.3-0.7-0.7-0.7v-7.1c0.4,0,0.7-0.4,0.7-0.7v-1.3c0.3-0.1,0.5-0.4,0.5-0.7v-0.8v-0.1c0.1,0,0.3,0,0.4-0.1
		c0-0.1,0-0.3-0.1-0.4l-9-5.1c-0.1,0-0.1,0-0.3,0l-9,5.1c-0.1,0.1-0.1,0.3-0.1,0.4C12.7,16.4,12.9,16.4,13,16.4L13,16.4z M23.3,22.9
		c-0.4-0.3-0.9-0.4-1.3-0.7c-0.3-0.1-0.5-0.3-0.8-0.4c-0.4-0.4-0.4-1,0.1-1.3c0.1,0,0.3-0.1,0.4-0.1c0.5,0,1.2,0.1,1.7,0.4
		c0.3,0.1,0.4,0.1,0.4-0.1c0.1-0.3,0.1-0.6,0.3-1c0-0.3,0-0.3-0.3-0.4c-0.4-0.1-0.7-0.3-1-0.3c-0.5-0.1-0.5-0.1-0.5-0.6v-0.1H23h0.5
		h1.6H26v1.1c0,0.4,0.3,0.7,0.7,0.7l0,0v7.1c-0.4,0-0.7,0.4-0.7,0.7V29h-0.9h-1.6H23h-0.9c0,0,0.1-0.1,0.1-0.3c0-0.3,0-0.6,0-0.7
		c0-0.3,0.1-0.4,0.3-0.4c0.5-0.1,0.9-0.4,1.3-0.8C25.1,25.6,24.7,23.7,23.3,22.9L23.3,22.9z M21.2,18.1c0,0.1,0,0.3,0,0.3
		c0,0.4,0,0.4-0.4,0.6c-1,0.4-1.6,1.1-1.7,2.3c0,1,0.4,1.7,1.2,2.3c0.5,0.3,1,0.4,1.6,0.7c0.3,0.1,0.4,0.1,0.5,0.3
		c0.5,0.4,0.4,1.1-0.1,1.4C22,26,21.6,26,21.3,26c-0.5,0-1-0.3-1.4-0.4c-0.3-0.1-0.4-0.1-0.4,0.1c-0.1,0.3-0.1,0.6-0.3,0.8
		c-0.1,0.4,0,0.4,0.3,0.7c0.4,0.3,0.9,0.3,1.3,0.4c0.4,0,0.4,0.1,0.4,0.4c0,0.1,0,0.4,0,0.6c0,0.1,0,0.1,0.1,0.3h-0.8H20h-1.8h-0.8
		v-1.1c0-0.4-0.3-0.7-0.7-0.7v-7.1c0.4,0,0.7-0.4,0.7-0.7v-1.1h0.8h1.7h0.5h0.8V18.1z M14,18.5v-0.4h2.9v0.4H14L14,18.5z M26.8,18.5
		v-0.4h3v0.4H26.8L26.8,18.5z M29.6,28.7v0.4h-3v-0.4H29.6L29.6,28.7z M16.9,28.7v0.4h-3v-0.4H16.9L16.9,28.7z M14,19.4v-0.1h2.9
		v0.1c0,0.1-0.1,0.3-0.3,0.3h-2.5C14,19.5,14,19.5,14,19.4L14,19.4L14,19.4z M16.3,20.1v7.1h-1.6v-7.1H16.3L16.3,20.1z M14,28
		c0-0.1,0.1-0.3,0.3-0.3h2.5c0.1,0,0.3,0.1,0.3,0.3v0.1h-3V28L14,28z M30.2,30v0.6H13.5V30c0-0.1,0.1-0.3,0.3-0.3h16.1
		C30,29.7,30.2,29.8,30.2,30L30.2,30L30.2,30z M29.6,28v0.1h-3V28c0-0.1,0.1-0.3,0.3-0.3h2.5C29.6,27.8,29.6,27.8,29.6,28L29.6,28
		L29.6,28z M27.4,27.3v-7.1H29v7.1H27.4L27.4,27.3z M29.6,19.4c0,0.1-0.1,0.3-0.3,0.3h-2.5c-0.1,0-0.3-0.1-0.3-0.3v-0.1h3L29.6,19.4
		L29.6,19.4z M21.8,11.3l7.5,4.4H14.3L21.8,11.3L21.8,11.3z M13.5,16.5c0-0.1,0.1-0.3,0.3-0.3h16.1c0.1,0,0.3,0.1,0.3,0.3v0.8
		c0,0.1-0.1,0.3-0.3,0.3H13.8c-0.1,0-0.3-0.1-0.3-0.3L13.5,16.5L13.5,16.5z"/>
</g>
</svg>
