<?xml version="1.0" encoding="utf-8"?>
<!-- Generator: Adobe Illustrator 22.0.1, SVG Export Plug-In . SVG Version: 6.00 Build 0)  -->
<svg version="1.1" id="Layer_1" xmlns="http://www.w3.org/2000/svg" xmlns:xlink="http://www.w3.org/1999/xlink" x="0px" y="0px"
	 viewBox="0 0 43.5 43.5" style="enable-background:new 0 0 43.5 43.5;" xml:space="preserve">
<style type="text/css">
	.st0{fill-rule:evenodd;clip-rule:evenodd;fill:#AEC905;stroke:#FFFFFF;stroke-width:2;stroke-miterlimit:10;}
	.st1{fill-rule:evenodd;clip-rule:evenodd;fill:#FFFFFF;}
</style>
<circle class="st0" cx="21.8" cy="21.8" r="20.8"/>
<path class="st1" d="M36.1,12.5c0-1.3-1-2.3-2.3-2.3c0,0,0,0,0,0c-0.2-1.6-1.6-2.8-3.2-2.8c-1.1,0-2.1,0.5-2.6,1.4
	c-2.3-1.1-5-1.6-7.6-1.3c-0.3,0-0.5-0.1-0.8-0.1c-2,0-3.7,1.3-4.4,3.1c-0.6-0.5-1.3-0.8-2.1-0.8c-1.6,0-3,1.2-3.2,2.8c0,0,0,0,0,0
	c-1.3,0-2.3,1-2.3,2.3c0,0.8,0.4,1.4,0.9,1.8c-0.6,1.6-0.9,3.3-0.9,5.1c0,4.3,1.9,8.1,4.9,10.7c0.2,0.2,0.4,0.4,0.7,0.6
	c2.4,1.9,5.4,3,8.7,3c3.3,0,6.3-1.1,8.7-3c0.2-0.2,0.5-0.4,0.7-0.6c3-2.6,4.9-6.5,4.9-10.7c0-2.5-0.6-4.8-1.8-7
	C35.3,14.6,36.1,13.6,36.1,12.5L36.1,12.5z M30.5,8.4c1.2,0,2.2,0.9,2.3,2.1c-0.6,0.3-1.1,0.8-1.3,1.5l0.9,0.2c0.2-0.6,0.7-1,1.3-1
	c0.8,0,1.4,0.6,1.4,1.4c0,0.8-0.6,1.4-1.4,1.4h-6.5c-0.8,0-1.4-0.6-1.4-1.4c0-0.8,0.6-1.4,1.4-1.4c0.6,0,1.2,0.4,1.3,1l0.9-0.2
	c-0.2-0.7-0.7-1.2-1.3-1.5C28.4,9.3,29.3,8.4,30.5,8.4L30.5,8.4z M19.5,8.4c2,0,3.7,1.7,3.7,3.7c0,2-1.7,3.7-3.7,3.7
	c-0.4,0-0.7-0.1-1.1-0.2c0.1-0.2,0.1-0.5,0.1-0.8c0-1.3-1-2.3-2.3-2.3c0,0,0,0,0,0c-0.1-0.4-0.2-0.8-0.4-1.1
	C16.1,9.7,17.6,8.4,19.5,8.4L19.5,8.4z M9.8,13.5c0.6,0,1.2,0.4,1.3,1l0.9-0.2c-0.2-0.7-0.7-1.2-1.3-1.5c0.1-1.2,1.1-2.1,2.3-2.1
	c1.2,0,2.2,0.9,2.3,2.1c-0.6,0.3-1.1,0.8-1.3,1.5l0.9,0.2c0.2-0.6,0.7-1,1.3-1c0.8,0,1.4,0.6,1.4,1.4c0,0.8-0.6,1.4-1.4,1.4H9.8
	c-0.8,0-1.4-0.6-1.4-1.4C8.4,14.1,9,13.5,9.8,13.5L9.8,13.5z M15.5,21.1c-0.1-0.3-0.1-0.5-0.1-0.8c0-0.5,0.4-0.9,0.8-0.9
	c0.5,0,0.8,0.4,0.8,0.9c0,0.3,0,0.5-0.1,0.8l-0.2,0.8c-0.2-0.1-0.4-0.1-0.6-0.1c-0.2,0-0.4,0-0.6,0.1L15.5,21.1L15.5,21.1z
	 M16.2,22.7c0.5,0,0.9,0.4,0.9,0.9c0,0.5-0.4,0.9-0.9,0.9c-0.5,0-0.9-0.4-0.9-0.9C15.3,23.1,15.7,22.7,16.2,22.7L16.2,22.7z
	 M17.8,24.6l0.4,0.3c0.2,0.2,0.4,0.4,0.5,0.6c0.3,0.4,0.2,0.9-0.2,1.2c-0.2,0.1-0.4,0.2-0.6,0.2c-0.2,0-0.4-0.2-0.5-0.3
	c-0.1-0.2-0.3-0.4-0.4-0.7l-0.2-0.5C17.2,25.2,17.6,24.9,17.8,24.6L17.8,24.6z M18.6,23.5l-0.6,0c0-0.4-0.2-0.8-0.5-1.1l0.6-0.4
	c0.2-0.1,0.4-0.2,0.7-0.3c0.2-0.1,0.4-0.1,0.6,0c0.2,0.1,0.4,0.3,0.4,0.5c0.1,0.5-0.1,1-0.5,1.1C19.1,23.4,18.9,23.4,18.6,23.5
	L18.6,23.5z M17.2,22L17.2,22L17.2,22C17.2,22,17.2,22,17.2,22L17.2,22z M14.4,23.5l-0.6,0c-0.2,0-0.5-0.1-0.7-0.1
	c-0.4-0.1-0.7-0.6-0.5-1.1c0.1-0.2,0.2-0.4,0.4-0.5c0.2-0.1,0.4-0.1,0.6,0c0.2,0.1,0.5,0.2,0.7,0.3l0.6,0.4
	C14.6,22.7,14.4,23.1,14.4,23.5L14.4,23.5z M13.8,25.4c0.1-0.2,0.3-0.4,0.5-0.6l0.4-0.3c0.2,0.4,0.6,0.6,1,0.8l-0.2,0.5
	c-0.1,0.2-0.2,0.5-0.4,0.7c-0.1,0.2-0.3,0.3-0.5,0.3c-0.2,0-0.4,0-0.6-0.2C13.6,26.4,13.5,25.8,13.8,25.4L13.8,25.4z M15.2,22.1
	L15.2,22.1L15.2,22.1C15.3,22,15.2,22,15.2,22.1L15.2,22.1z M15.3,32.8c-0.6,0-1.2-0.2-1.8-0.5c-0.2-0.2-0.4-0.3-0.6-0.5
	c-0.5-0.5-0.8-1.1-0.9-1.8h0.4c1.6,0,3,1.2,3.2,2.8H15.3L15.3,32.8z M26.6,21.1c-0.1-0.3-0.1-0.5-0.1-0.8c0-0.5,0.4-0.9,0.8-0.9
	c0.5,0,0.8,0.4,0.8,0.9c0,0.3,0,0.5-0.1,0.8l-0.2,0.8c-0.2-0.1-0.4-0.1-0.6-0.1c-0.2,0-0.4,0-0.6,0.1L26.6,21.1L26.6,21.1z
	 M27.3,22.7c0.5,0,0.9,0.4,0.9,0.9c0,0.5-0.4,0.9-0.9,0.9c-0.5,0-0.9-0.4-0.9-0.9C26.4,23.1,26.8,22.7,27.3,22.7L27.3,22.7z
	 M28.9,24.6l0.4,0.3c0.2,0.2,0.4,0.4,0.5,0.6c0.3,0.4,0.2,0.9-0.2,1.2c-0.2,0.1-0.4,0.2-0.6,0.2c-0.2,0-0.4-0.2-0.5-0.3
	c-0.1-0.2-0.3-0.4-0.4-0.7l-0.2-0.5C28.3,25.2,28.6,24.9,28.9,24.6L28.9,24.6z M29.7,23.5l-0.6,0c0-0.4-0.2-0.8-0.5-1.1l0.6-0.4
	c0.2-0.1,0.4-0.2,0.7-0.3c0.2-0.1,0.4-0.1,0.6,0c0.2,0.1,0.4,0.3,0.4,0.5c0.1,0.5-0.1,1-0.5,1.1C30.2,23.4,29.9,23.4,29.7,23.5
	L29.7,23.5z M28.2,22L28.2,22L28.2,22C28.3,22,28.3,22,28.2,22L28.2,22z M25.5,23.5l-0.6,0c-0.2,0-0.5-0.1-0.7-0.1
	c-0.4-0.1-0.7-0.6-0.5-1.1c0.1-0.2,0.2-0.4,0.4-0.5c0.2-0.1,0.4-0.1,0.6,0c0.2,0.1,0.5,0.2,0.7,0.3l0.6,0.4
	C25.7,22.7,25.5,23.1,25.5,23.5L25.5,23.5z M24.9,25.4c0.1-0.2,0.3-0.4,0.5-0.6l0.4-0.3c0.2,0.4,0.6,0.6,1,0.8l-0.2,0.5
	c-0.1,0.2-0.2,0.5-0.4,0.7c-0.1,0.2-0.3,0.3-0.5,0.3c-0.2,0-0.4,0-0.6-0.2C24.7,26.4,24.6,25.8,24.9,25.4L24.9,25.4z M26.3,22.1
	L26.3,22.1L26.3,22.1C26.3,22,26.3,22,26.3,22.1L26.3,22.1z M28.2,32.8h-0.4c0.2-1.6,1.6-2.8,3.2-2.8h0.4c-0.1,0.7-0.4,1.3-0.9,1.8
	c-0.2,0.2-0.4,0.3-0.6,0.5C29.5,32.6,28.9,32.8,28.2,32.8L28.2,32.8z M32.3,29.9c0-0.1,0-0.2,0-0.3v-0.5H31c-1.3,0-2.5,0.6-3.2,1.5
	v-3.5c0.3,0.3,0.6,0.5,1,0.6c0.1,0,0.2,0,0.3,0c0.4,0,0.7-0.1,1-0.3c0.8-0.6,0.9-1.7,0.4-2.5c-0.1-0.2-0.3-0.4-0.5-0.6
	c0.2,0,0.5-0.1,0.7-0.2c0.9-0.3,1.4-1.3,1.1-2.3c-0.1-0.5-0.5-0.8-0.9-1.1c-0.4-0.2-0.9-0.2-1.3-0.1c-0.2,0.1-0.4,0.2-0.6,0.3
	c0-0.2,0.1-0.5,0.1-0.7c0-1-0.8-1.8-1.8-1.8c-1,0-1.8,0.8-1.8,1.8c0,0.2,0,0.5,0.1,0.7c-0.2-0.1-0.4-0.2-0.6-0.3
	c-0.4-0.1-0.9-0.1-1.3,0.1c-0.4,0.2-0.7,0.6-0.9,1.1c-0.3,0.9,0.2,1.9,1.1,2.3c0.2,0.1,0.5,0.1,0.7,0.2c-0.2,0.2-0.3,0.4-0.5,0.6
	c-0.6,0.8-0.4,1.9,0.4,2.5c0.4,0.3,0.8,0.4,1.3,0.3c0.4-0.1,0.8-0.3,1-0.6v3.5c-0.8-0.9-1.9-1.5-3.2-1.5h-1.4v0.5
	c0,2.3,1.9,4.2,4.2,4.2h1.3c-1.8,0.9-3.8,1.4-5.9,1.4c-2.1,0-4.1-0.5-5.9-1.4h1.3c2.3,0,4.2-1.9,4.2-4.2v-0.5h-1.4
	c-1.3,0-2.5,0.6-3.2,1.5v-3.5c0.3,0.3,0.6,0.5,1,0.6c0.1,0,0.2,0,0.3,0c0.4,0,0.7-0.1,1-0.3c0.8-0.6,0.9-1.7,0.4-2.5
	c-0.1-0.2-0.3-0.4-0.5-0.6c0.2,0,0.5-0.1,0.7-0.2c0.9-0.3,1.4-1.3,1.1-2.3c-0.1-0.5-0.5-0.8-0.9-1.1c-0.4-0.2-0.9-0.2-1.3-0.1
	c-0.2,0.1-0.4,0.2-0.6,0.3c0-0.2,0.1-0.5,0.1-0.7c0-1-0.8-1.8-1.8-1.8c-1,0-1.8,0.8-1.8,1.8c0,0.2,0,0.5,0.1,0.7
	c-0.2-0.1-0.4-0.2-0.6-0.3c-0.4-0.1-0.9-0.1-1.3,0.1c-0.4,0.2-0.7,0.6-0.9,1.1c-0.3,0.9,0.2,1.9,1.1,2.3c0.2,0.1,0.5,0.1,0.7,0.2
	c-0.2,0.2-0.3,0.4-0.5,0.6c-0.6,0.8-0.4,1.9,0.4,2.5c0.4,0.3,0.8,0.4,1.3,0.3c0.4-0.1,0.8-0.3,1-0.6v3.5c-0.8-0.9-1.9-1.5-3.2-1.5
	h-1.4v0.5c0,0.1,0,0.2,0,0.3c-1.7-2.3-2.8-5.1-2.8-8.2c0-1.6,0.3-3.2,0.8-4.7c0.2,0,0.4,0.1,0.5,0.1h6.5c0.7,0,1.3-0.3,1.7-0.7
	c0.5,0.2,1,0.3,1.6,0.3c2.5,0,4.6-2.1,4.6-4.6c0-1.5-0.7-2.8-1.8-3.7c1.8,0.1,3.6,0.5,5.2,1.3c-0.1,0.2-0.1,0.4-0.1,0.6c0,0,0,0,0,0
	c-1.3,0-2.3,1-2.3,2.3c0,1.3,1,2.3,2.3,2.3h5.9c1.3,2.1,1.9,4.5,1.9,6.9C35.1,24.8,34.1,27.7,32.3,29.9L32.3,29.9z M26.8,32.8h-0.4
	c-1.6,0-3-1.2-3.2-2.8h0.4C25.2,30.1,26.6,31.3,26.8,32.8L26.8,32.8z M16.7,32.8c0.2-1.6,1.6-2.8,3.2-2.8h0.4
	c-0.2,1.6-1.6,2.8-3.2,2.8H16.7L16.7,32.8z"/>
</svg>
