<svg version="1.1" id="Layer_1" xmlns="http://www.w3.org/2000/svg" xmlns:xlink="http://www.w3.org/1999/xlink" x="0px" y="0px"
	 viewBox="0 0 43.5 43.5" style="enable-background:new 0 0 43.5 43.5;" xml:space="preserve">
<style type="text/css">
	.st0{fill-rule:evenodd;clip-rule:evenodd;fill:#D6ADEF;stroke:#FFFFFF;stroke-width:2;stroke-miterlimit:10;}
	.st1{fill-rule:evenodd;clip-rule:evenodd;fill:#FFFFFF;}
</style>
<circle class="st0" cx="21.8" cy="21.8" r="20.8"/>
<path class="st1" d="M32.9,21.9c0-0.1-0.1-0.3-0.2-0.3C31.4,21,30,21.1,29,21.9c-1.3,0.9-1.6,1.9-1.4,2.7C25,26.1,23,28.4,22,31
	v-6.4c0.5,0,1.1-0.2,1.8-0.4c3.1-1.1,4.9-3.9,4.5-7L28.1,15c0-0.4-0.1-0.8-0.1-1.1c-0.3-2-0.3-2.3,1.3-4.3c0.1-0.1,0.1-0.3,0.1-0.5
	c-0.1-0.2-0.3-0.2-0.4-0.2c-0.1,0-0.8,0.2-2,0.4c-0.1,0-0.1,0-0.2,0c0-1.2-0.8-2.3-2.1-2.7c-0.1,0-0.3,0-0.4,0.1
	C24,6.8,24,7.2,24,7.2c-0.1,1-1.1,2-2.2,2.2c-1.4-0.5-2.5-1.3-3.4-1.9c-1-0.7-1.6-1.1-2.2-0.8c-0.5,0.3-0.6,0.9-0.4,2.5
	c-0.3-0.1-0.7-0.1-1-0.2C14.4,9,14,8.9,13.8,9.2c-0.2,0.3,0,0.6,0.2,0.9c0.4,0.6,1.3,1.9,1.1,4.2l-0.3,2.9c-0.2,2.1,0.5,4.2,2.1,5.6
	c1,0.9,2.9,1.6,4.2,1.8v3.8c-0.7-1.3-1.8-2.3-3.2-3c-2-1-4.4-1.3-6.9-0.9c-0.2,0-0.3,0.2-0.4,0.4c0,0.2,0.1,0.4,0.3,0.5
	c5.3,2.3,9.2,6.7,10.2,11.4c0,0.2,0.2,0.3,0.4,0.3c0,0,0,0,0,0c0.2,0,0.4-0.2,0.4-0.4v-0.9c0-4.2,2.3-8.1,5.9-10.2
	c0.3,0.4,0.8,0.6,1.5,0.6c0.6,0,1.3-0.2,2-0.7C32.5,24.5,33,23.2,32.9,21.9L32.9,21.9z M27.8,10c-1.1,1.4-1,2.2-0.8,4
	c0,0.3,0.1,0.7,0.1,1.1l0.3,2.2c0.3,2.7-1.3,5.1-3.9,6c-0.8,0.3-1.4,0.4-2,0.4c2.5-1.5,4.4-4.1,4.8-6.8c0-0.1-0.1-0.3-0.2-0.3
	c-0.1,0-0.3,0.1-0.3,0.2c-0.4,2.8-2.4,5.3-5,6.7c-0.4-0.2-0.8-0.6-1.1-1.2c-0.4-0.8-0.7-1.9-0.8-2.8c0.8-2.7,3-5.1,5.6-6.1
	c0.1-0.1,0.2-0.2,0.2-0.3c-0.1-0.1-0.2-0.2-0.3-0.1c-1.5,0.6-2.8,1.5-3.9,2.8c-0.6,0.7-1.1,1.5-1.5,2.3c0.4-3.6,3.6-7.1,7.5-7.8
	C26.6,10.2,27.5,10,27.8,10L27.8,10z M24.8,7.7c0.7,0.4,1,1.1,1,1.8c-0.3,0.1-0.6,0.2-0.8,0.3c-0.6,0.1-1.2,0-1.7,0
	C24,9.2,24.6,8.5,24.8,7.7L24.8,7.7z M16.7,7.4c0.2,0.1,0.8,0.4,1.2,0.7c0.9,0.6,2.1,1.5,3.7,2c0,0,0.1,0,0.1,0
	c0.5,0.1,0.9,0.3,1.4,0.3c-1,0.6-1.9,1.3-2.6,2.2c-0.2,0.2-0.4,0.5-0.6,0.7L19.9,13c-0.2-1.9-1.3-3.2-3.2-3.6l0-0.2
	C16.6,8,16.7,7.6,16.7,7.4L16.7,7.4z M15.7,17.3l0.3-2.9c0.3-2.3-0.5-3.7-1-4.5c0.7,0.1,1.4,0.2,1.5,0.3c1.5,0.3,2.4,1.3,2.6,2.9
	l0.2,1.5c-0.7,1.3-1.1,2.7-1.1,4.1c0,1,0.2,2.7,0.9,4c0.1,0.2,0.2,0.3,0.3,0.5c-0.7-0.3-1.3-0.6-1.8-1
	C16.1,20.9,15.4,19.2,15.7,17.3L15.7,17.3z M12.7,25.1c3.8-0.1,7.7,1.6,8.4,5.9v0.6c-0.6-1.8-1.7-3.5-3.8-4.8
	c-0.1-0.1-0.3,0-0.4,0.1c-0.1,0.1,0,0.3,0.1,0.4c2.6,1.5,3.5,4,4,6.2v0.3C19.6,30.3,16.5,27.1,12.7,25.1L12.7,25.1z M30.9,24.6
	c-1.1,0.8-2,0.7-2.4,0.2c-0.4-0.5-0.1-1.4,1-2.2c0.3-0.2,0.5-0.3,0.8-0.4c-0.1,0.6-0.2,1.2-0.5,1.7c-0.1,0.1,0,0.3,0.1,0.4
	c0,0,0.1,0,0.1,0c0.1,0,0.2,0,0.2-0.1c0.4-0.6,0.6-1.3,0.6-2.1c0.1,0,0.1,0,0.2,0c0.3,0,0.7,0.1,1,0.2
	C32.1,23.2,31.6,24.1,30.9,24.6L30.9,24.6z"/>
</svg>
