<?xml version="1.0" encoding="utf-8"?>
<!-- Generator: Adobe Illustrator 22.0.1, SVG Export Plug-In . SVG Version: 6.00 Build 0)  -->
<svg version="1.1" id="Layer_1" xmlns="http://www.w3.org/2000/svg" xmlns:xlink="http://www.w3.org/1999/xlink" x="0px" y="0px"
	 viewBox="0 0 43.5 43.5" style="enable-background:new 0 0 43.5 43.5;" xml:space="preserve">
<style type="text/css">
	.st0{fill-rule:evenodd;clip-rule:evenodd;fill:#CB9800;stroke:#FFFFFF;stroke-width:2;stroke-miterlimit:10;}
	.st1{fill-rule:evenodd;clip-rule:evenodd;fill:#FFFFFF;}
</style>
<circle class="st0" cx="21.8" cy="21.8" r="20.8"/>
<g>
	<path class="st1" d="M22.5,22c0.4,0.1,0.9-0.2,1-0.6c0-0.2,0-0.4-0.1-0.6l0.4-1.6l0.5,0.1c0.1,0,0.2,0,0.3-0.1
		c0.1-0.1,0.1-0.2,0.1-0.3l-0.2-3.3c0-0.1-0.1-0.1-0.1-0.2c-0.1,0-0.2,0-0.2,0.1l-1.7,2.8c-0.1,0.1-0.1,0.2,0,0.3
		c0,0.1,0.1,0.2,0.2,0.2l0.5,0.1l-0.3,1.3L21.1,20l-1.9-2.8c-0.2-0.3-0.6-0.4-1-0.4v6.3h1v7.2h-1.9v-5.1h-0.7v5.1h-1.9v-7.2h1v-6.3
		c-0.5,0-0.9,0.1-1,0.5l-2.7,5.9c-0.2,0.4,0,0.9,0.4,1.1c0.4,0.2,0.9,0,1.1-0.4l1.3-2.9v1.5h0c-0.4,0-0.7,0.3-0.7,0.7v7.2
		c0,0.4,0.3,0.7,0.7,0.7c0,0.5,0.4,1,1,1c0.5,0,1-0.4,1-1c0.1,0,0.2,0,0.4-0.1c0.1,0.1,0.2,0.1,0.4,0.1c0,0.5,0.4,1,1,1
		c0.5,0,1-0.4,1-1c0.4,0,0.7-0.3,0.7-0.7v-7.2c0-0.4-0.3-0.7-0.7-0.7h0v-2.5l0.8,1.1c0.1,0.2,0.3,0.3,0.5,0.3L22.5,22L22.5,22z"/>
	<polygon class="st1" points="16.2,19.6 17.5,19.6 17.5,16.9 16.2,16.9 16.2,19.6 	"/>
	<path class="st1" d="M15,14.6c0,1,0.9,1.9,1.9,1.9c1,0,1.9-0.8,1.9-1.9c0.4,0,0.7-0.3,0.7-0.7c0-1.4-1.1-2.5-2.5-2.5
		c-1.4,0-2.5,1.1-2.5,2.5C14.3,14.3,14.6,14.6,15,14.6L15,14.6z M15.5,12.7v0.2c0,0.2,0.2,0.3,0.3,0.3c0.2,0,0.3-0.2,0.3-0.3v-0.6
		c0.1,0,0.2-0.1,0.3-0.1v0.7c0,0.2,0.2,0.3,0.3,0.3c0.2,0,0.3-0.2,0.3-0.3v-0.7c0.1,0,0.2,0.1,0.3,0.1v0.6c0,0.2,0.2,0.3,0.3,0.3
		c0.2,0,0.3-0.2,0.3-0.3v-0.2c0.3,0.3,0.5,0.8,0.5,1.3H15C15,13.5,15.2,13,15.5,12.7L15.5,12.7z"/>
	<path class="st1" d="M26,29.8h-4.2c-0.2,0-0.3,0.2-0.3,0.3v1.5c0,0.2,0.2,0.3,0.3,0.3H26c0.2,0,0.3-0.2,0.3-0.3v-1.5
		C26.3,30,26.2,29.8,26,29.8L26,29.8z"/>
	<path class="st1" d="M31.4,29.8h-4.2c-0.2,0-0.3,0.2-0.3,0.3v1.5c0,0.2,0.2,0.3,0.3,0.3h4.2c0.2,0,0.3-0.2,0.3-0.3v-1.5
		C31.8,30,31.6,29.8,31.4,29.8L31.4,29.8z"/>
	<path class="st1" d="M31.4,24.4h-4.2c-0.2,0-0.3,0.2-0.3,0.3v1.5c0,0.2,0.2,0.3,0.3,0.3h4.2c0.2,0,0.3-0.2,0.3-0.3v-1.5
		C31.8,24.5,31.6,24.4,31.4,24.4L31.4,24.4z"/>
	<path class="st1" d="M26,24.4h-4.2c-0.2,0-0.3,0.2-0.3,0.3v1.5c0,0.2,0.2,0.3,0.3,0.3H26c0.2,0,0.3-0.2,0.3-0.3v-1.5
		C26.3,24.5,26.2,24.4,26,24.4L26,24.4z"/>
	<path class="st1" d="M24.2,27.4V29c0,0.2,0.2,0.3,0.3,0.3h4.2c0.2,0,0.3-0.2,0.3-0.3v-1.5c0-0.2-0.2-0.3-0.3-0.3h-4.2
		C24.3,27.1,24.2,27.3,24.2,27.4L24.2,27.4z"/>
	<path class="st1" d="M24.2,22v1.5c0,0.2,0.2,0.3,0.3,0.3h4.2c0.2,0,0.3-0.2,0.3-0.3V22c0-0.2-0.2-0.3-0.3-0.3h-4.2
		C24.3,21.7,24.2,21.8,24.2,22L24.2,22z"/>
	<path class="st1" d="M31.4,27.1h-1.6c-0.2,0-0.3,0.2-0.3,0.3V29c0,0.2,0.2,0.3,0.3,0.3h1.6c0.2,0,0.3-0.2,0.3-0.3v-1.5
		C31.8,27.3,31.6,27.1,31.4,27.1L31.4,27.1z"/>
	<path class="st1" d="M31.4,21.7h-1.6c-0.2,0-0.3,0.2-0.3,0.3v1.5c0,0.2,0.2,0.3,0.3,0.3h1.6c0.2,0,0.3-0.2,0.3-0.3V22
		C31.8,21.8,31.6,21.7,31.4,21.7L31.4,21.7z"/>
</g>
</svg>
