<?xml version="1.0" encoding="utf-8"?>
<!-- Generator: Adobe Illustrator 22.0.1, SVG Export Plug-In . SVG Version: 6.00 Build 0)  -->
<svg version="1.1" id="Layer_1" xmlns="http://www.w3.org/2000/svg" xmlns:xlink="http://www.w3.org/1999/xlink" x="0px" y="0px"
	 viewBox="0 0 43.5 43.5" style="enable-background:new 0 0 43.5 43.5;" xml:space="preserve">
<style type="text/css">
	.st0{fill-rule:evenodd;clip-rule:evenodd;fill:#373020;stroke:#FFFFFF;stroke-width:2;stroke-miterlimit:10;}
	.st1{fill-rule:evenodd;clip-rule:evenodd;fill:#FFFFFF;}
</style>
<circle class="st0" cx="21.8" cy="21.8" r="20.8"/>
<g>
	<path class="st1" d="M11.8,20.2c0.2,0,0.4-0.2,0.4-0.4v-6.3c0-0.4,0.3-0.8,0.8-0.8h17.7c0.4,0,0.8,0.3,0.8,0.8v1.2
		c0,0.2,0.2,0.4,0.4,0.4c0.2,0,0.4-0.2,0.4-0.4v-1.2c0-0.9-0.7-1.6-1.6-1.6H12.9c-0.9,0-1.6,0.7-1.6,1.6v6.3
		C11.3,20,11.5,20.2,11.8,20.2L11.8,20.2z"/>
	<path class="st1" d="M31.8,17.6c-0.2,0-0.4,0.2-0.4,0.4v6.3c0,0.4-0.3,0.8-0.8,0.8H12.9c-0.4,0-0.8-0.3-0.8-0.8v-1.2
		c0-0.2-0.2-0.4-0.4-0.4c-0.2,0-0.4,0.2-0.4,0.4v1.2c0,0.9,0.7,1.6,1.6,1.6h17.7c0.9,0,1.6-0.7,1.6-1.6V18
		C32.2,17.8,32,17.6,31.8,17.6L31.8,17.6z"/>
	<path class="st1" d="M19.2,15.3c-0.1-0.1-0.3-0.1-0.4,0c-0.1,0.1-0.2,0.2-0.2,0.4v6.5c0,0.1,0.1,0.3,0.2,0.4c0.1,0,0.1,0.1,0.2,0.1
		c0.1,0,0.1,0,0.2-0.1l5.6-3.2c0.1-0.1,0.2-0.2,0.2-0.4c0-0.1-0.1-0.3-0.2-0.4L19.2,15.3L19.2,15.3z M19.4,21.5v-5.1l4.4,2.5
		L19.4,21.5L19.4,21.5z"/>
	<path class="st1" d="M31.8,28.9H18.5v-0.4c0-0.8-0.7-1.5-1.5-1.5c-0.8,0-1.5,0.7-1.5,1.5v0.4h-3.7c-0.2,0-0.4,0.2-0.4,0.4
		c0,0.2,0.2,0.4,0.4,0.4h3.7v0.4c0,0.8,0.7,1.5,1.5,1.5c0.8,0,1.5-0.7,1.5-1.5v-0.4h13.3c0.2,0,0.4-0.2,0.4-0.4
		C32.2,29.1,32,28.9,31.8,28.9L31.8,28.9z M17.6,30.1c0,0.4-0.3,0.7-0.7,0.7c-0.4,0-0.7-0.3-0.7-0.7v-1.6c0-0.4,0.3-0.7,0.7-0.7
		c0.4,0,0.7,0.3,0.7,0.7V30.1L17.6,30.1z"/>
	<path class="st1" d="M11.8,21.9c0.2,0,0.4-0.2,0.4-0.4c0-0.2-0.2-0.4-0.4-0.4s-0.4,0.2-0.4,0.4C11.3,21.7,11.5,21.9,11.8,21.9
		L11.8,21.9z"/>
	<path class="st1" d="M31.8,16c-0.2,0-0.4,0.2-0.4,0.4c0,0.2,0.2,0.4,0.4,0.4c0.2,0,0.4-0.2,0.4-0.4C32.2,16.2,32,16,31.8,16
		L31.8,16z"/>
</g>
</svg>
