<?xml version="1.0" encoding="utf-8"?>
<!-- Generator: Adobe Illustrator 22.0.1, SVG Export Plug-In . SVG Version: 6.00 Build 0)  -->
<svg version="1.1" id="Layer_1" xmlns="http://www.w3.org/2000/svg" xmlns:xlink="http://www.w3.org/1999/xlink" x="0px" y="0px"
	 viewBox="0 0 43.5 43.5" style="enable-background:new 0 0 43.5 43.5;" xml:space="preserve">
<style type="text/css">
	.st0{fill-rule:evenodd;clip-rule:evenodd;fill:#15305D;stroke:#FFFFFF;stroke-width:2;stroke-miterlimit:10;}
	.st1{fill-rule:evenodd;clip-rule:evenodd;fill:#FFFFFF;}
</style>
<circle class="st0" cx="21.8" cy="21.8" r="20.8"/>
<g>
	<path class="st1" d="M21.7,22.7L21.7,22.7h0.1c2.3,0,4.2-1.9,4.2-4.2c0-1-0.6-2.3-1.9-4.1c-0.9-1.2-1.8-2.2-1.9-2.3l-0.4-0.5
		l-0.4,0.5c0,0-0.9,1-1.9,2.3c-1.3,1.8-1.9,3.1-1.9,4.1C17.5,20.8,19.4,22.7,21.7,22.7L21.7,22.7z M21.8,21.5
		C21.7,21.5,21.7,21.5,21.8,21.5c-0.7,0-1.2-0.6-1.2-1.2c0-0.4,0.6-1.3,1.2-2.1c0.7,0.8,1.2,1.7,1.2,2.1C23,21,22.5,21.5,21.8,21.5
		C21.8,21.5,21.8,21.5,21.8,21.5L21.8,21.5z M21.8,13.4c1.3,1.5,3.1,3.9,3.1,5.1c0,0.7-0.2,1.4-0.7,1.9c0,0,0,0,0-0.1
		c0-0.5-0.3-1.3-1-2.2c-0.5-0.6-0.9-1.1-1-1.2l-0.4-0.5l-0.4,0.5c0,0-0.5,0.5-1,1.2c-0.7,0.9-1,1.7-1,2.2c0,0,0,0,0,0.1
		c-0.4-0.5-0.7-1.2-0.7-1.9C18.7,17.3,20.4,14.9,21.8,13.4L21.8,13.4z"/>
	<path class="st1" d="M28.7,27.3C28.7,27.3,28.7,27.3,28.7,27.3l-1.1-0.5l1.1-0.5c1-0.5,1.6-1.6,1.4-2.7l0-0.1
		c0-0.1-0.1-0.3-0.1-0.4c-0.3-0.6-0.7-1-1.3-1.3c-0.6-0.2-1.2-0.2-1.8,0l-5,2.2l-5-2.2c-0.6-0.3-1.2-0.3-1.8,0
		c-0.6,0.2-1.1,0.7-1.3,1.3c-0.1,0.1-0.1,0.3-0.1,0.4c-0.3,1.1,0.3,2.3,1.3,2.7l1.1,0.5l-1.1,0.5c0,0,0,0,0,0
		c-0.9,0.4-1.4,1.3-1.4,2.2c0,0.3,0.1,0.7,0.2,1c0.4,0.9,1.3,1.4,2.2,1.4c0.3,0,0.7-0.1,1-0.2c0,0,0,0,0,0l5-2.2l5,2.2v0
		c0.3,0.1,0.6,0.2,1,0.2c0.5,0,0.9-0.1,1.3-0.4c0.4-0.2,0.7-0.6,0.9-1C30.4,29.2,29.9,27.8,28.7,27.3L28.7,27.3z M27.2,23
		c0.3-0.1,0.6-0.1,0.9,0c0.3,0.1,0.5,0.3,0.7,0.6c0,0.1,0.1,0.1,0.1,0.2l0,0c0.1,0.6-0.2,1.2-0.7,1.4l-2.1,0.9l-3-1.3L27.2,23
		L27.2,23z M14.6,23.8c0-0.1,0-0.1,0.1-0.2c0.1-0.3,0.4-0.5,0.7-0.6c0.3-0.1,0.6-0.1,0.9,0l10.1,4.5c-0.3,0.2-0.6,0.6-0.8,1
		c-0.2,0.4-0.2,0.8-0.2,1.3l-10.1-4.5C14.7,25,14.5,24.4,14.6,23.8L14.6,23.8z M14.7,29.9c-0.3-0.6,0-1.3,0.6-1.6h0c0,0,0,0,0,0
		c0.6-0.3,1.3,0,1.6,0.6c0.3,0.6,0,1.3-0.6,1.6C15.7,30.8,14.9,30.6,14.7,29.9L14.7,29.9z M18.1,29.7L18.1,29.7c0-0.4,0-0.8-0.2-1.3
		c-0.2-0.4-0.5-0.7-0.8-1l0.2-0.1l3,1.3L18.1,29.7L18.1,29.7z M28.8,29.9c-0.3,0.6-1,0.9-1.6,0.6c-0.6-0.3-0.9-1-0.6-1.6
		c0.2-0.5,0.6-0.7,1.1-0.7c0.2,0,0.3,0,0.5,0.1l0,0v0v0c0.5,0.2,0.7,0.6,0.7,1.1C29,29.6,28.9,29.8,28.8,29.9L28.8,29.9z"/>
</g>
</svg>
