<?xml version="1.0" encoding="utf-8"?>
<!-- Generator: Adobe Illustrator 22.0.1, SVG Export Plug-In . SVG Version: 6.00 Build 0)  -->
<svg version="1.1" id="Layer_1" xmlns="http://www.w3.org/2000/svg" xmlns:xlink="http://www.w3.org/1999/xlink" x="0px" y="0px"
	 viewBox="0 0 43.5 43.5" style="enable-background:new 0 0 43.5 43.5;" xml:space="preserve">
<style type="text/css">
	.st0{fill-rule:evenodd;clip-rule:evenodd;fill:#FFA148;stroke:#FFFFFF;stroke-width:2;stroke-miterlimit:10;}
	.st1{fill-rule:evenodd;clip-rule:evenodd;fill:#FFFFFF;}
</style>
<circle class="st0" cx="21.8" cy="21.8" r="20.8"/>
<g>
	<path class="st1" d="M18.4,32.3c0,1.1-0.1,1.8,0.7,2.3c0.6,0.3,2,0.2,2.7,0.2c0.8,0,2.1,0.1,2.7-0.2c0.8-0.5,0.6-1.2,0.7-2.3
		c0.9-0.4,1.8-1.4,2.3-2.1c1.4-2,1.8-4.6,0.9-6.9c-0.5-1.2-1.2-1.8-1.7-2.7c-1.2-1.9-1.9-4.4-1.7-7.2c0-0.7,0.1-1.3,0.2-2
		c0.3-1.4,1-2.7-1-2.7h-4.4c-2.6,0-1.1,1.4-1,4.6c0.2,2.8-0.4,5.3-1.6,7.2c-0.6,1-1.3,1.6-1.7,2.7C13.7,26.7,15.6,30.9,18.4,32.3
		L18.4,32.3z M24.3,32.8c-0.4,0.1-0.7,0.3-1.2,0.3c-0.9,0.2-1.9,0.2-2.8,0c-0.4-0.1-0.9-0.3-1.2-0.3c0,1.5,0.1,1.3,2.6,1.3
		C24.2,34,24.3,34.3,24.3,32.8L24.3,32.8z M24.3,9.5h-4.9c-0.8,0-0.5,0.1-0.3,1.4c0.7,3.5,0.4,7.5-1.7,10.5
		c-0.3,0.5-0.6,0.8-0.9,1.2c-2.8,4,0.2,9.9,5.1,9.9c2.7,0,4.5-1.5,5.4-3.1c1.3-2.3,1.3-4.5-0.1-6.7c-0.3-0.4-0.6-0.8-0.9-1.2
		c-1-1.6-1.5-2.5-1.9-4.6c-0.4-1.9-0.3-3.9,0.1-5.9c0.1-0.3,0.1-0.6,0.2-0.9C24.7,9.7,24.8,9.5,24.3,9.5L24.3,9.5z"/>
	<path class="st1" d="M24.1,25c0-0.4,0-1.1-0.1-1.5c-0.2-0.6-0.8-0.2-1,0c-1.1,0.9-2.3,2.1-2.8,3.6c-0.3,0.8-0.4,1.8-0.6,2.6
		c-0.1,0.3-0.3,1.1-0.2,1.3c0.2,0.4,0.8,0.1,1.1-0.1C22.9,30,24.1,27.7,24.1,25L24.1,25z M20.4,30.1c0.8-0.2,1.8-1.3,2.3-2.1
		c0.6-1.1,0.7-2.3,0.7-3.7c-0.2,0.1-1,0.9-1.1,1c-0.3,0.3-0.6,0.8-0.9,1.3c-0.3,0.5-0.5,1-0.6,1.6C20.6,28.8,20.4,29.7,20.4,30.1
		L20.4,30.1z"/>
	<path class="st1" d="M21.7,25c-0.3,0.1-0.7,0.8-0.8,1.2c-0.2,0.5-0.4,1-0.4,1.6c-0.1,1.3,0.6,2.1,1.5,2.5c0.6,0.4,0.8-0.4,0.9-0.9
		c0.2-0.6,0.3-1.2,0.2-1.8C23,26.6,22.4,24.9,21.7,25L21.7,25z M22,29.4c0.2-0.4,0.3-1.2,0.3-1.7c0-0.4-0.2-1.3-0.5-1.5
		c-0.3,0.3-0.6,1.2-0.6,1.7C21.2,28.5,21.6,29.2,22,29.4L22,29.4z"/>
	<path class="st1" d="M21.5,23.7c-0.9,0.4-0.3,1.6,0.6,1.3C22.9,24.6,22.4,23.2,21.5,23.7L21.5,23.7z"/>
	<path class="st1" d="M21.6,21.3c-0.9,0.3-0.5,1.6,0.4,1.3C22.8,22.4,22.5,21,21.6,21.3L21.6,21.3z"/>
</g>
</svg>
