<?xml version="1.0" encoding="utf-8"?>
<!-- Generator: Adobe Illustrator 22.0.1, SVG Export Plug-In . SVG Version: 6.00 Build 0)  -->
<svg version="1.1" id="Layer_1" xmlns="http://www.w3.org/2000/svg" xmlns:xlink="http://www.w3.org/1999/xlink" x="0px" y="0px"
	 viewBox="0 0 43.5 43.5" style="enable-background:new 0 0 43.5 43.5;" xml:space="preserve">
<style type="text/css">
	.st0{fill-rule:evenodd;clip-rule:evenodd;fill:#AD2F28;stroke:#FFFFFF;stroke-width:2;stroke-miterlimit:10;}
	.st1{fill-rule:evenodd;clip-rule:evenodd;fill:#FFFFFF;stroke:#FFFFFF;stroke-width:0.5;stroke-miterlimit:10;}
</style>
<circle class="st0" cx="21.8" cy="21.8" r="20.8"/>
<path class="st1" d="M18,10.5h7.6l0.3,1.2c0.1,0.4,0.1,0.8,0.2,1.2c0.1,0.3,0.2,0.5,0.4,0.7c0.6,0.5,1.8,1,2.6,1.2l1,0.3l0,1.1
	c0.2,6.4-1.2,13.8-7.8,16.5L21.8,33l-0.6-0.2c-6.6-2.7-8-10.1-7.8-16.5l0-1.1l1-0.3c0.8-0.3,2-0.7,2.6-1.2c0.2-0.2,0.3-0.4,0.4-0.7
	c0.1-0.4,0.1-0.8,0.2-1.2L18,10.5L18,10.5z M21.8,28.7L21,22.5l-2.5,1.3l1.3-2.5l-4-0.7l4.1-0.9l-1.2-2.3l2.4,1
	c-0.8,0.3-1.3,1.1-1.3,1.9c0,1.2,1,2.1,2.1,2.1c1.2,0,2.1-1,2.1-2.1c0-0.9-0.5-1.6-1.3-1.9l2.4-1l-1.2,2.3l4.1,0.9l-4,0.7l1.3,2.5
	l-2.5-1.3L21.8,28.7L21.8,28.7z M20.9,18.5l0.8-4.7l0.8,4.7c-0.3-0.1-0.5-0.2-0.8-0.2C21.5,18.3,21.2,18.4,20.9,18.5L20.9,18.5z
	 M21.8,18.9l0.7,1.3l0.7,1.3h-1.5h-1.5l0.7-1.3L21.8,18.9L21.8,18.9z M21.8,12.1h-2.6c-0.4,1.5,0.1,2.7-4.3,4.1
	c-0.2,5.7,0.9,12.6,6.9,15c5.9-2.4,7-9.4,6.9-15c-4.4-1.4-3.9-2.6-4.3-4.1H21.8L21.8,12.1z"/>
</svg>
