<?xml version="1.0" encoding="utf-8"?>
<!-- Generator: Adobe Illustrator 22.0.1, SVG Export Plug-In . SVG Version: 6.00 Build 0)  -->
<svg version="1.1" id="Layer_1" xmlns="http://www.w3.org/2000/svg" xmlns:xlink="http://www.w3.org/1999/xlink" x="0px" y="0px"
	 viewBox="0 0 43.5 43.5" style="enable-background:new 0 0 43.5 43.5;" xml:space="preserve">
<style type="text/css">
	.st0{fill-rule:evenodd;clip-rule:evenodd;fill:#008AD1;stroke:#FFFFFF;stroke-width:2;stroke-miterlimit:10;}
	.st1{fill-rule:evenodd;clip-rule:evenodd;fill:#FFFFFF;}
</style>
<circle class="st0" cx="21.8" cy="21.8" r="20.8"/>
<g>
	<path class="st1" d="M25.8,21.1h-8.1c-0.4,0-0.7,0.3-0.7,0.7v5.5c0,0.4,0.3,0.7,0.7,0.7h8.1c0.4,0,0.7-0.3,0.7-0.7v-5.5
		C26.4,21.4,26.1,21.1,25.8,21.1L25.8,21.1z M23.5,22.4l-1.8,1.2l-1.8-1.2H23.5L23.5,22.4z M25.1,26.6h-6.8V23l3,2
		c0.1,0.1,0.2,0.1,0.4,0.1c0.1,0,0.3,0,0.4-0.1l3-2V26.6L25.1,26.6z"/>
	<path class="st1" d="M24.5,10.2h-5.4c-3.4,0-6.1,2.7-6.1,6.1v16.3c0,0.4,0.3,0.7,0.7,0.7h4c0.4,0,0.7-0.3,0.7-0.7v-2h6.7v2
		c0,0.4,0.3,0.7,0.7,0.7h4c0.4,0,0.7-0.3,0.7-0.7V16.3C30.5,13,27.8,10.2,24.5,10.2L24.5,10.2z M17,31.9h-2.7v-1.3H17V31.9L17,31.9z
		 M29.2,31.9h-2.7v-1.3h2.7V31.9L29.2,31.9z M29.2,29.2H14.3v-9.5h14.8V29.2L29.2,29.2z M29.2,18.3H14.3v-2c0-2.6,2.1-4.7,4.7-4.7
		h5.4c2.6,0,4.7,2.1,4.7,4.7V18.3L29.2,18.3z"/>
	<path class="st1" d="M24.5,12.9h-5.4c-1.1,0-2,0.9-2,2v1.3c0,0.4,0.3,0.7,0.7,0.7h8.1c0.4,0,0.7-0.3,0.7-0.7V15
		C26.5,13.8,25.6,12.9,24.5,12.9L24.5,12.9z M25.1,15.6h-6.7V15c0-0.4,0.3-0.7,0.7-0.7h5.4c0.4,0,0.7,0.3,0.7,0.7V15.6L25.1,15.6z"
		/>
</g>
</svg>
