<?xml version="1.0" encoding="utf-8"?>
<!-- Generator: Adobe Illustrator 22.0.1, SVG Export Plug-In . SVG Version: 6.00 Build 0)  -->
<svg version="1.1" id="Layer_1" xmlns="http://www.w3.org/2000/svg" xmlns:xlink="http://www.w3.org/1999/xlink" x="0px" y="0px"
	 viewBox="0 0 43.5 43.5" style="enable-background:new 0 0 43.5 43.5;" xml:space="preserve">
<style type="text/css">
	.st0{fill-rule:evenodd;clip-rule:evenodd;fill:#E2000F;stroke:#FFFFFF;stroke-width:2;stroke-miterlimit:10;}
	.st1{fill-rule:evenodd;clip-rule:evenodd;fill:#FCFCFC;}
</style>
<circle class="st0" cx="21.8" cy="21.8" r="20.8"/>
<g>
	<path class="st1" d="M35,29.3c0,0-0.8,0.3-1.6,0.3c-1.3,0-1.9-0.6-2-1.8c0-1.2,0.7-1.8,2-1.8c0.8,0,1.6,0.3,1.6,0.3c0,0,0,0,0,0
		c0.1,0,0.2-0.1,0.2-0.2c0,0,0-0.1,0-0.1c0-0.1-0.3-0.6-0.7-1.1c-0.5-0.5-1.3-1.1-2.7-1.1c-2.1,0-3,1.8-3.3,2.4h-5.8v-2.8h2.9
		c0.2,0,0.3-0.1,0.3-0.3v-3.6c0-0.2-0.1-0.3-0.3-0.3h-7.8c-0.2,0-0.3,0.1-0.3,0.3v3.6c0,0.2,0.1,0.3,0.3,0.3h3v2.8h-6
		c-0.3-0.7-1.2-2.4-3.3-2.4c-1.3,0-2.2,0.6-2.7,1.1C8.5,25.5,8.3,26,8.3,26c0,0.1,0,0.1,0,0.2c0,0,0.1,0.1,0.2,0
		c0,0,0.8-0.3,1.6-0.3c1.3,0,1.9,0.6,2,1.8c0,1.2-0.7,1.8-2,1.8c-0.8,0-1.6-0.3-1.6-0.3c-0.1,0-0.1,0-0.2,0c0,0-0.1,0.1,0,0.2
		c0,0,0.2,0.5,0.7,1.1c0.5,0.5,1.3,1.1,2.7,1.1c2.1,0,3-1.8,3.3-2.4h6v3.9c0,0.1,0.1,0.2,0.2,0.2h1.5c0.1,0,0.2-0.1,0.2-0.2v-3.9
		h5.8c0.3,0.7,1.2,2.4,3.3,2.4c1.3,0,2.2-0.6,2.7-1.1c0.5-0.5,0.7-1.1,0.7-1.1c0-0.1,0-0.1,0-0.2C35.2,29.3,35.1,29.3,35,29.3
		L35,29.3z"/>
	<path class="st1" d="M9,23.6c0.2,0.1,0.4,0,0.5-0.1c0,0,1.1-0.7,2.4-0.7c1,0,1.9,0.4,2.6,1.5c0.1,0.1,0.3,0.2,0.4,0.2c0,0,0,0,0,0
		c0.3,0,0.5-0.2,0.5-0.5c0,0,0,0,0-0.1c-0.1-1.6,0.3-3.9,1.7-5.4c1.1-1.1,2.6-1.7,4.6-1.7h0l0,0c2,0,3.6,0.6,4.6,1.7
		c1.7,1.8,1.7,4.5,1.7,5.3c0,0.2,0.1,0.4,0.3,0.5c0.2,0.1,0.4,0,0.6-0.2c0.7-1,1.5-1.4,2.5-1.4c1.3,0,2.5,0.8,2.5,0.8
		c0.1,0.1,0.3,0.1,0.5,0.1c0.2-0.1,0.3-0.2,0.3-0.4c0-0.1,0.3-2.8-0.7-4.9c-0.1-0.2-0.4-0.4-0.6-0.3l-0.2,0.1
		c-0.6,0.2-1.9,0.8-2.7,1.1c-0.1-0.2-0.3-0.5-0.5-0.9c-0.1-0.2-0.3-0.4-0.4-0.6c0.5-0.5,1.4-1.3,2-2c0.2-0.2,0.2-0.4,0.1-0.6
		c-1.6-2.5-3.6-3.7-5-4.2c-1.5-0.6-2.7-0.6-2.8-0.6c-0.2,0-0.5,0.2-0.5,0.4l-0.4,2.7h-2.9l-0.4-2.7c0-0.2-0.2-0.4-0.5-0.4
		c0,0-1.2,0-2.8,0.6c-1.4,0.6-3.4,1.7-5,4.2c-0.1,0.2-0.1,0.5,0.1,0.6c0.6,0.6,1.6,1.5,2,2c-0.1,0.2-0.3,0.4-0.4,0.6
		c-0.3,0.4-0.4,0.7-0.5,0.9c-0.8-0.3-2.2-0.9-2.7-1.1l-0.1,0c-0.2-0.1-0.5,0-0.6,0.3c-0.9,2.1-0.7,4.8-0.7,4.9
		C8.7,23.4,8.8,23.6,9,23.6L9,23.6z M10.1,19.2c0.9,0.4,2.5,1,2.8,1.1c0.2,0.1,0.4,0.1,0.7-0.4c0.2-0.6,0.7-1.2,1.2-1.9
		c0.2-0.2,0.1-0.5-0.1-0.7c0,0-1.2-1.1-2-2c1.1-1.6,2.5-2.8,4.2-3.5c0.8-0.3,1.6-0.5,2-0.5l0.4,2.7c0,0.2,0.2,0.4,0.5,0.4h3.7
		c0.2,0,0.5-0.2,0.5-0.4l0.4-2.7c1.1,0.1,4.1,0.8,6.3,4c-0.9,0.9-2,2-2,2c-0.2,0.2-0.2,0.5-0.1,0.7c0.5,0.7,1,1.4,1.2,1.9
		c0.2,0.5,0.5,0.5,0.7,0.4c0.4-0.1,2-0.8,2.8-1.1c0.4,1.1,0.5,2.3,0.4,3.1c-0.6-0.3-1.4-0.5-2.3-0.5c-0.7,0-1.6,0-2.4,0.8
		c-0.1-1.3-0.5-3.2-1.9-4.7c-1.3-1.4-3.1-2-5.4-2h0h0c-2.3,0-4,0.7-5.3,2c-1.4,1.5-1.8,3.5-2,4.8c-0.9-0.8-1.8-0.9-2.5-0.9
		c-0.9,0-1.7,0.2-2.2,0.5C9.7,21.5,9.7,20.3,10.1,19.2L10.1,19.2z"/>
</g>
</svg>
