<?xml version="1.0" encoding="utf-8"?>
<!-- Generator: Adobe Illustrator 22.0.1, SVG Export Plug-In . SVG Version: 6.00 Build 0)  -->
<svg version="1.1" id="Layer_1" xmlns="http://www.w3.org/2000/svg" xmlns:xlink="http://www.w3.org/1999/xlink" x="0px" y="0px"
	 viewBox="0 0 43.5 43.5" style="enable-background:new 0 0 43.5 43.5;" xml:space="preserve">
<style type="text/css">
	.st0{fill-rule:evenodd;clip-rule:evenodd;fill:#F47781;stroke:#FFFFFF;stroke-width:2;stroke-miterlimit:10;}
	.st1{fill-rule:evenodd;clip-rule:evenodd;fill:#FFFFFF;}
	.st2{fill:#FFFFFF;}
</style>
<circle class="st0" cx="21.8" cy="21.8" r="20.8"/>
<path class="st1" d="M23.6,25.3c2.2-1.1,3.6-3.4,3.6-6.3c0-4-2.8-7.3-6.2-7.3c-3.4,0-6.2,3.3-6.2,7.3c0,2.9,1.4,5.3,3.6,6.3
	c-1.6,0.6-3.7,2-4.3,3.8c0.3,0.3,0.6,0.5,0.9,0.8c0.2-1.5,2.1-2.8,3.6-3.4l0.8,0.8l-0.6,1c-0.1,0.2-0.1,0.4,0,0.6l0.8,1.3l-0.5,1.5
	c0.4,0.1,0.7,0.1,1.1,0.1l0.4-1.2h0.7l0.4,1.2c0.4,0,0.7-0.1,1.1-0.1L22.4,30l0.7-1.3c0.1-0.2,0.1-0.4,0-0.6l-0.6-1l0.8-0.8
	c1.5,0.6,3.3,1.9,3.6,3.4c0.3-0.2,0.6-0.5,0.9-0.8C27.3,27.3,25.2,26,23.6,25.3L23.6,25.3z M21,21.5c0.3,0,0.6-0.2,0.6-0.5v-0.8
	c0-0.3-0.2-0.5-0.6-0.5c-0.3,0-0.6,0.2-0.6,0.5v0.8C20.5,21.2,20.7,21.5,21,21.5L21,21.5z M24.6,19.1c0-0.4-0.2-0.6-0.5-0.6
	c-0.3,0-0.5,0.3-0.5,0.6c0,0.4,0.2,0.6,0.5,0.6C24.3,19.7,24.6,19.4,24.6,19.1L24.6,19.1z M18.5,19.1c0-0.4-0.2-0.6-0.5-0.6
	c-0.3,0-0.5,0.3-0.5,0.6c0,0.4,0.2,0.6,0.5,0.6C18.3,19.7,18.5,19.4,18.5,19.1L18.5,19.1z M22.8,22.5h-1.1c0,0.3-0.3,0.5-0.7,0.5
	s-0.7-0.2-0.7-0.5h-1.1c0,0.9,0.8,1.6,1.8,1.6C22,24.1,22.8,23.4,22.8,22.5L22.8,22.5z M21.5,29.3h-1L20,28.5l0.5-0.9h1l0.5,0.9
	L21.5,29.3L21.5,29.3z M21.7,26.5h-1.3l-0.8-0.8c0.5,0.1,0.9,0.2,1.4,0.2c0.5,0,1-0.1,1.4-0.2L21.7,26.5L21.7,26.5z M21,12.8
	c2.1,0,3.9,1.6,4.7,3.8c-1.4,0.1-2.8-1.7-2.8-1.8c-0.1-0.1-0.3-0.2-0.4-0.2c-0.2,0-0.3,0.1-0.4,0.2c-1.1,1.3-2.4,1.7-3.3,1.8
	c-1,0.1-1.8-0.2-2.3-0.4C17.3,14.2,19.1,12.8,21,12.8L21,12.8z M16,19c0-0.6,0.1-1.2,0.2-1.7c0.6,0.3,1.4,0.5,2.3,0.5
	c0.2,0,0.3,0,0.5,0c1-0.1,2.3-0.5,3.6-1.7c0.7,0.7,2,1.9,3.5,1.7c0.1,0.4,0.1,0.8,0.1,1.3c0,3.3-2.2,5.8-5.1,5.8
	C18.1,24.8,16,22.3,16,19L16,19z"/>
<path class="st2" d="M21,10c3.2,0,6.1,1.3,8.2,3.4c2.1,2.1,3.4,5,3.4,8.2c0,3.2-1.3,6.1-3.4,8.2c-2.1,2.1-5,3.4-8.2,3.4
	c-3.2,0-6.1-1.3-8.2-3.4c-2.1-2.1-3.4-5-3.4-8.2c0-3.2,1.3-6.1,3.4-8.2C14.9,11.3,17.8,10,21,10L21,10z M28.4,14.1
	c-1.9-1.9-4.5-3.1-7.4-3.1c-2.9,0-5.5,1.2-7.4,3.1c-1.9,1.9-3.1,4.5-3.1,7.4c0,2.9,1.2,5.5,3.1,7.4c1.9,1.9,4.5,3.1,7.4,3.1
	c2.9,0,5.5-1.2,7.4-3.1c1.9-1.9,3.1-4.5,3.1-7.4C31.5,18.6,30.3,16,28.4,14.1L28.4,14.1z"/>
<path class="st1" d="M35.3,36.9l0.9-0.9c0.4-0.4,0.4-1.1,0-1.6l-5.2-5.2c-0.4-0.4-1.1-0.4-1.6,0l-0.9,0.9c-0.4,0.4-0.4,1.1,0,1.6
	l5.2,5.2C34.2,37.4,34.9,37.4,35.3,36.9L35.3,36.9z"/>
</svg>
