<?xml version="1.0" encoding="utf-8"?>
<!-- Generator: Adobe Illustrator 22.0.1, SVG Export Plug-In . SVG Version: 6.00 Build 0)  -->
<svg version="1.1" id="Layer_1" xmlns="http://www.w3.org/2000/svg" xmlns:xlink="http://www.w3.org/1999/xlink" x="0px" y="0px"
	 viewBox="0 0 43.5 43.5" style="enable-background:new 0 0 43.5 43.5;" xml:space="preserve">
<style type="text/css">
	.st0{fill-rule:evenodd;clip-rule:evenodd;fill:#305495;stroke:#FFFFFF;stroke-width:2;stroke-miterlimit:10;}
	.st1{fill-rule:evenodd;clip-rule:evenodd;fill:#FFFFFF;}
</style>
<circle class="st0" cx="21.8" cy="21.8" r="20.8"/>
<path class="st1" d="M12.7,21.2l3.7,1.6l0,6.8c0,2.8,1.7,2.6,1.7,0v-3.8h1.7l0,4.2c0,2.1,1.6,2.3,1.6,0l0-5c0.4,0.1,3.1,1.2,3.8,1.5
	c1,0.4,0.9,2.8,4.5,4.3c1.1-0.7,2.5-3.3,2.5-5.2c-2.9,0-5.1,0.3-7.4-1c0-1.4,0.2-3.8-0.3-5c-0.5-1.2-1.6-2-3.3-2
	c-4.4,0-3.6-0.4-7,0.9c-0.7,0.3-1.2,0.4-1.4,0.6C12.2,19.3,12,20.9,12.7,21.2L12.7,21.2z M30.6,21.6l0.5,0.1
	C31.8,20.7,30.3,20.4,30.6,21.6L30.6,21.6z M32.1,24c0.2-0.6-0.2-1-0.6-0.6C31.1,23.7,31.4,24.2,32.1,24L32.1,24z M28.5,22.6
	c-1,0.6-0.2,1.9,0.7,1.5C30.1,23.6,29.5,22,28.5,22.6L28.5,22.6z M18.4,11c-3.2,0.7-2.2,5.5,1.1,4.8c1.2-0.3,2.2-1.5,1.9-3
	C21.1,11.7,19.9,10.7,18.4,11L18.4,11z M18.6,12.7c-1,0.6-0.2,1.9,0.7,1.5C20.2,13.7,19.6,12.1,18.6,12.7L18.6,12.7z M18.2,21.7
	l1.4,0.6c0,0,0,0,0.1,0.1c0,0,0.1,0,0.1,0c0.5,0.1-0.2,0.1,0.2,0l0-3.2c-0.4-0.2-1.3-0.2-1.7,0C18,19.5,18,21.4,18.2,21.7L18.2,21.7
	z M14.4,20.2l2,0.8l0-1.7C16,19.4,14.7,20,14.4,20.2L14.4,20.2z M21.4,23.1l1.6,0.7c0-2,0.4-4.6-1.6-4.6L21.4,23.1L21.4,23.1z"/>
</svg>
