<?xml version="1.0" encoding="utf-8"?>
<!-- Generator: Adobe Illustrator 22.1.0, SVG Export Plug-In . SVG Version: 6.00 Build 0)  -->
<svg version="1.1" id="Layer_1" xmlns="http://www.w3.org/2000/svg" xmlns:xlink="http://www.w3.org/1999/xlink" x="0px" y="0px"
	 viewBox="0 0 114.5 98.8" style="enable-background:new 0 0 114.5 98.8;" xml:space="preserve">
<style type="text/css">
	.st0{fill:url(#SVGID_1_);}
</style>
<linearGradient id="SVGID_1_" gradientUnits="userSpaceOnUse" x1="0" y1="49.402" x2="114.5179" y2="49.402">
	<stop  offset="0" style="stop-color:#976F34"/>
	<stop  offset="0.9325" style="stop-color:#ECD490"/>
</linearGradient>
<path class="st0" d="M78.5,46.4c2.1-1.3,5-2.2,12.3-1.5c9.4,0.9,19.3-4,23.8-13.3c-9,0.1-19.4-1.7-26,6.4c-3.2,3.9-6.1,5.5-7.8,6.1
	c3.3-3.4,6.2-6.8,8.5-10.1c1.4-1.8,3-3.4,9.7-7.2c9.1-5.2,12.9-16.2,10.6-26.9C107,5.3,92.2,6.7,90.9,21.4c-0.7,8-2.8,11.8-2.9,11.9
	c-2.6,3.6-5.9,7.4-9.7,11.1c0.1-1.2,0.6-4.2,3.9-8.9c7.8-10.9,2.3-20.9-0.8-27.2c-2,6-9.7,17-7.1,26.1c2.1,7.6,3,9.4,1.8,12.1
	c-3.2,3-6.7,5.8-10.5,8.6c0.2-0.6,0.3-1.4,0.1-2.7c-0.3-1.7,0.7-4,2.5-6.9c5.9-9.3,1.8-20.1-1.6-25.8c-2.4,8.4-9.4,17.6-5.4,25.7
	c3.1,6.2,3.3,9.4,2.4,11c-4,2.8-8.2,5.3-12.7,7.5c-0.1-0.3-0.2-0.7,0-1.5c0.3-1.5,1.2-3.3,3-6.2c5.3-8.3,3.4-16.1-0.4-23.4
	c-1.7,6.4-8.9,15-6.2,22.6c2.4,6.7,2.1,7.6,1,9.8c-4,1.9-8.2,3.5-12.5,4.7c0.1-0.6,0.7-2,4.1-4.5c4.2-3.2,5.5-11.2,1.5-18.8
	c-4.4,7.1-8.7,10.8-7.4,17.1c0.8,4.1,0.9,5.7-0.1,6.9c-1.6,0.4-3.2,0.9-4.7,1.5c0.6-1,1.1-2.3,1.2-4.1c0.9-0.3,1.5-1.2,1.3-2.2
	c-0.2-1-1.2-1.7-2.3-1.5c-1,0.2-1.7,1.2-1.5,2.3c0.2,0.8,0.8,1.3,1.5,1.5c-0.1,2.4-1.2,3.9-2.1,4.7c-3.1,1.2-6.1,2.6-8.9,4.3
	c-3.9,2.3-7.4,5-10.5,8c-5.3,5.1-6.8,8.3-7.5,9.5c-1.2,2-0.3,3.2,1.1,3.8c1.5,0.6,3.6,1,3.8,0.2c0.3-0.8,1.9-6.4,6.7-10.9
	c2.4-2.3,5.6-5.7,11.3-8.9c1.1-0.2,2.9-0.1,4.8,1.2c-0.3,0.7-0.2,1.5,0.3,2.1c0.7,0.9,2.1,1.1,3,0.4c0.9-0.7,1.1-2.1,0.4-3
	c-0.7-0.9-2.1-1.1-3-0.4c0,0,0,0-0.1,0.1c-1.3-0.9-2.5-1.3-3.5-1.4c2.6-1.4,5.7-2.7,9.3-3.9c1.9,0,4.4,0.7,8.3,3.7
	c9.6,7.4,15.9-0.6,20.9-0.1c-4.2-2.7-10.7-8.6-19.9-5.4c-3.3,1.2-5.7,1.2-7.1,1c4.5-1.7,9.5-4.1,14-6.5c1.6,0.2,3.4,0.8,8.2,3.3
	c10.3,5.5,18.8-3.2,24-3.6c-7.8-2.7-14.7-6.6-23.7-2.9c-2.7,1.1-4.5,1.5-5.8,1.7c0.1,0,0.1-0.1,0.2-0.1c3.8-2,7.2-4.3,10.6-6.8
	c4.1-2,6.7-1.3,13.3,1.4c8.3,3.3,18.2,0.8,24.7-7.3c-3.6,1-11.8-8.7-25.2-0.1c-3.1,2-5.4,2.5-7.2,3c-1,0.2-1.5,0.2-1.9,0.2
	c0.1-0.1,0.2-0.2,0.4-0.3C72,52.4,75.3,49.5,78.5,46.4z"/>
</svg>
