<?xml version="1.0" encoding="utf-8"?>
<!-- Generator: Adobe Illustrator 22.1.0, SVG Export Plug-In . SVG Version: 6.00 Build 0)  -->
<svg version="1.1" id="Layer_1" xmlns="http://www.w3.org/2000/svg" xmlns:xlink="http://www.w3.org/1999/xlink" x="0px" y="0px"
	 viewBox="0 0 383.6 142.4" style="enable-background:new 0 0 383.6 142.4;" xml:space="preserve">
<style type="text/css">
	.st0{fill:#B61F24;}
	.st1{fill:url(#SVGID_1_);}
</style>
<path class="st0" d="M140.2,91.8c2.8-3.5,5.9-7.5,9.2-12.1c1.5-2.2,3.2-4.7,5.1-7.4c1.2-1.7,2.8-4.1,4.9-7.2l1.5-2.2l1.5-2.2
	c1.2-1.8,2.2-3.2,3-4.4c0.5-0.7,1-1.5,1.6-2.5l1.5-2.4c0.1-0.4,0.2-0.8,0.2-1.1c0-0.5,0.4-0.7,1.3-0.5c0.7,0.2,1.6,0.6,2.6,1.1
	c1.1,0.6,1.9,1.3,2.5,2c0.8,0.8,1.1,1.6,1,2.2c-0.2,1.6-1.8,5.3-4.7,11h0.1c-0.1,0.3-0.3,0.6-0.5,0.9c-0.8,1.7-2.2,4.3-4.2,7.7
	c-0.4,0.7-0.7,1.3-1.1,2c-0.2,0.4-0.4,0.8-0.7,1.2h-0.1l-1.7,3l-1.7,3c-1.3,2.2-2.3,4.1-3.2,5.8l-0.7,1.3l-0.6,1.3
	c-0.4,0.9-0.8,1.7-1,2.3c-0.6,1.6-0.5,2.5,0.3,2.8c0.8-0.2,1.5-0.7,2.2-1.5l0.9-1.1l0.9-1.1c3.2-3.8,6.7-8.5,10.7-13.9
	c1.5-2.2,3.2-4.7,5.1-7.4c1.2-1.7,2.8-4.1,4.9-7.2l1.5-2.2l1.5-2.2c1.2-1.8,2.2-3.2,3-4.4c0.5-0.7,1-1.5,1.6-2.5l1.5-2.4
	c0.1-0.4,0.2-0.8,0.2-1.1c0-0.5,0.4-0.7,1.3-0.5c0.7,0.2,1.6,0.6,2.6,1.1c1.1,0.6,1.9,1.3,2.5,2c0.8,0.8,1.1,1.6,1,2.2
	c-0.3,2.4-3.8,9.6-10.4,21.6c-3.2,5.9-5.5,10.3-7,13.1c-2.2,4.5-3.4,7.8-3.7,9.9c0,1.1-1,1.1-3.2,0c-2.2-1.1-3.4-2.1-3.4-3.2
	c0.2-1.9,1.5-5.4,4-10.6c0.9-2,2.1-4.4,3.6-7.4l1.9-3.8l2-3.9c-3.8,5.4-7.3,10.4-10.5,14.9l-0.5,0.7l-0.5,0.7
	c-0.5,0.7-1,1.2-1.3,1.7c-1,1.4-1.9,2.6-2.7,3.6c-2.2,2.9-4,5-5.3,6.3c-1,1-2.1,1.7-3.5,2c-1.4,0.4-2.8,0.2-4-0.3
	c-1.8-0.8-2.9-2.3-3.2-4.2c-0.3-1.6,0-3.6,0.7-5.8c0.7-2.4,1.6-4.8,2.7-7c0.6-1.1,1.2-2.4,2-3.8l2.1-3.9c0.8-1.5,1.5-2.9,2.1-4
	c-3.6,5.2-6.9,9.9-10.1,14.2l-0.5,0.7l-0.5,0.7c-0.5,0.7-1,1.2-1.3,1.7c-0.9,1.1-1.7,2.2-2.4,3.1h0.1c-4,5.4-6.5,8.3-7.5,8.8
	c-0.3,0.1-0.7,0.1-1.3,0c-0.4-0.1-0.9-0.3-1.3-0.5c-0.4-0.3-0.8-0.5-0.9-0.7c-0.2-0.3-0.1-0.5,0.1-0.5c0.9-0.4,2.4-2.1,4.6-4.8
	C138.9,93.4,139.4,92.7,140.2,91.8L140.2,91.8L140.2,91.8z M199.1,90.1c0.4,1.9,1.4,2.9,3.2,2.9c1.1,0,2.6-0.7,4.6-2.1
	c2-1.4,3.6-2.8,4.8-4.3c0,0,0.2-0.3,0.6-0.7c0.1-0.1,0.3-0.4,0.6-0.7l0.6-0.7c1.1-1.3,1.7-1.9,1.7-1.9c0.3-0.4,0.6-0.7,1.1-0.7
	c0.4,0,0.9,0.1,1.3,0.4c0.8,0.6,0.9,1.4,0.2,2.3c-0.2,0.2-0.4,0.5-0.7,0.9l-0.4,0.5l-0.4,0.6c-3.4,4.6-7,7.8-10.9,9.5
	c-3.6,1.6-6.8,1.7-9.5,0.3c-2.8-1.3-4.4-3.7-4.8-7.2c-0.5-3.9,0.6-8.3,3.2-13.3c1.7-3.2,3.7-5.9,6.2-8.1c2-1.8,4-3,6-3.6
	c1.6-0.5,3.2-0.5,4.8,0.1c1.3,0.4,2.4,1.1,3.2,2c0.9-1.7,1.5-2.7,1.6-3.2c0.1-0.7,0.6-0.7,1.5,0c0.9,0.7,1.4,1.5,1.7,2.5
	c0,0.4-0.6,1.7-1.9,3.9c-1.4,2.3-3,4.8-4.9,7.4C207.1,83.9,202.7,88.3,199.1,90.1L199.1,90.1z M213.2,68.4
	c-3.7,0.6-7.5,4.7-11.5,12.2c-1.1,2-1.9,3.9-2.3,5.6c2.1-1.5,4.5-4.2,7.4-8C209.1,75.1,211.2,71.9,213.2,68.4L213.2,68.4z
	 M232.9,57.1c-0.1,0.5-0.5,1.5-1.3,2.9l-0.5,0.9l-0.5,1l-1.1,2.1c-0.1,0.2-0.1,0.3-0.1,0.3l0.7,0.3l0.7,0.3c0.6,0.3,1.1,0.5,1.6,0.8
	c1.2,0.7,2.3,1.4,3.2,2.1c2.3,1.9,3.2,3.8,2.5,5.6c-0.3,0.7-1,2.2-2.2,4.4l-0.8,1.5l-0.9,1.6c-0.8,1.3-1.3,2.4-1.8,3.2
	c-2.9,5.5-4,8.4-3.4,8.8c0.7,0.3,2.3-1.1,5-4.2c0.9-1,1.9-2.2,2.9-3.6c0.4-0.5,0.8-1,1.2-1.5c0.1-0.2,0.3-0.4,0.4-0.6
	c0.1-0.1,0.2-0.3,0.3-0.4l0.1-0.1l0.1-0.1c0.7-0.5,1.4-0.5,2.2,0.1c0.9,0.7,1,1.5,0.2,2.3c-0.1,0.2-0.4,0.4-0.7,0.8l-0.7,0.9
	c-0.6,0.8-1.2,1.5-1.7,2.1c-1.5,1.8-2.8,3.3-4.1,4.5c-3.5,3.4-6.4,4.7-8.6,3.8c-2.4-1-3.9-2.4-4.4-4.1c-0.9-2.5,0.3-6.8,3.5-12.8
	c0.4-0.7,0.8-1.6,1.5-2.7l0.8-1.5l0.8-1.5c1.4-2.5,2.3-4.4,2.9-5.5c-1-0.6-1.9-1.1-2.7-1.5c-3,6.8-6.8,13.2-11.5,19.2
	c-0.6,0.9-1.4,1-2.3,0.3c-0.9-0.7-1-1.5-0.3-2.4c4.6-6,8.4-12.3,11.3-19c0,0-0.1,0-0.1-0.1c-0.7-0.4-1.3-0.9-1.9-1.4
	c-0.6-0.4-1-0.8-1.1-1c-0.4-1.1,0-2.9,1.2-5.6l0.7-1.6l0.7-1.6c0.5-1.2,0.8-2.2,0.9-2.9c0-0.3,0.4-0.3,1.2-0.1
	c0.8,0.2,1.7,0.6,2.7,1.3c1.1,0.7,1.9,1.4,2.5,2.2C232.7,55.5,233,56.4,232.9,57.1L232.9,57.1z M253.3,71.7l-0.3,0.4l-0.2,0.4
	c2.7-3.5,4.9-5.8,6.6-7c1.9-1.3,3.6-1.8,4.9-1.3c0.8,0.2,1.5,0.4,2,0.8c1.3,0.6,2.4,1.5,3.2,2.7c1,1.4,1.2,2.7,0.8,3.9
	c-0.1,0.3-0.3,0.8-0.7,1.6c3.1-3.9,5.4-6.5,7-7.6c1.9-1.3,3.6-1.8,4.9-1.3c0.8,0.2,1.5,0.4,2,0.8c1.3,0.6,2.4,1.5,3.2,2.7
	c1,1.4,1.2,2.7,0.8,3.9c-0.3,0.7-1,2.3-2.3,4.6l-0.9,1.7l-0.9,1.7c-0.8,1.5-1.4,2.7-1.9,3.6c-3.2,6.1-4.4,9.3-3.8,9.7
	c0.6,0.3,2.3-1.1,4.9-4.2c0.9-1.1,1.9-2.3,3-3.6c0.4-0.5,0.8-1,1.2-1.5c0.1-0.2,0.3-0.4,0.4-0.6c0.1-0.1,0.2-0.3,0.3-0.4l0.3-0.2
	c0.3-0.2,0.6-0.3,1.1-0.3c0.4,0,0.8,0.2,1.1,0.4c0.8,0.7,0.9,1.4,0.3,2.3c-0.2,0.2-0.4,0.5-0.7,0.8l-0.7,0.9
	c-0.7,0.8-1.2,1.6-1.7,2.2c-1.5,1.8-2.8,3.3-4,4.4c-3.5,3.4-6.4,4.7-8.6,3.8c-2.5-1.1-4-2.4-4.5-4.1c-0.8-2.6,0.3-6.8,3.5-12.8
	c1.8-3.1,3.6-6.6,5.6-10.5c0.4-2.1-1.1-1.3-4.4,2.4c-2,2.2-4.9,6.2-8.7,12.1l-2.3,3.5l-1.1,1.7l-1.1,1.7c-1.6,2.5-2.9,4.4-3.8,5.6
	l-0.1,0.2c-0.2,0.5-0.7,0.7-1.5,0.5l-0.4-0.1c-1.3-0.4-2.4-1.3-3.4-2.6c-1.1-1.5-1.5-2.9-1.1-4.2c0.1-0.4,0.8-1.7,1.9-4
	c0.8-1.8,1.8-3.8,3.1-6.2l5.6-10.5c0.4-2.1-1.1-1.3-4.4,2.4c-2,2.3-4.9,6.3-8.7,12.1l-2.3,3.5l-1.1,1.7l-1.1,1.7
	c-1.6,2.6-2.9,4.4-3.7,5.6l-0.1,0.2c-0.3,0.5-0.8,0.7-1.5,0.5l-0.4-0.1c-1.3-0.4-2.5-1.3-3.5-2.6c-1.1-1.5-1.5-2.9-1-4.2
	c0.2-0.7,1.6-3.5,4.2-8.5l0.9-1.8l0.4-0.8l0.5-0.9c0.4-0.8,0.8-1.5,1.1-2.1c0.9-1.7,1.7-3.2,2.5-4.4c1.9-3.7,3.2-6.1,3.6-7.3
	c0.3-0.5,0.8-0.7,1.7-0.4c0.9,0.2,1.8,0.7,2.7,1.4c1,0.8,1.7,1.7,2.1,2.6c0.5,1,0.5,2,0,2.9L253.3,71.7L253.3,71.7z M311.6,68.3
	c-2.2,0.1-4.9,2-8.2,5.5c-2.7,3-5.3,6.5-7.7,10.6c-2.3,3.8-3.4,6.5-3.4,7.8c0,1.5,1.4,0.5,4.4-2.9c2.1-2.4,4.5-5.4,7.2-9
	c1-1.3,2.2-2.9,3.4-4.7l1.7-2.3l1.6-2.3l0.5-0.9c0.1-0.2,0.2-0.5,0.3-0.8c0.2-0.5,0.8-0.7,1.7-0.5c0.8,0.2,1.6,0.6,2.5,1.3
	c2.2,1.8,3,3.6,2.3,5.5c-0.4,1-1,2.4-2,4.2c-0.4,0.7-0.8,1.5-1.4,2.5l-1.4,2.5c-2.8,4.9-3.9,7.6-3.1,8c0.7,0.3,2.3-1.1,5-4.2
	c0.9-1.1,1.9-2.3,2.9-3.6c0.4-0.5,0.8-1,1.2-1.5c0.1-0.2,0.3-0.4,0.4-0.6l0.2-0.2l0.1-0.2l0.3-0.3c0.7-0.5,1.4-0.4,2.2,0.1
	c0.8,0.7,0.9,1.5,0.2,2.3c-0.1,0.2-0.4,0.4-0.7,0.8l-0.7,0.9c-0.6,0.8-1.2,1.5-1.7,2.1c-1.5,1.8-2.8,3.3-4.1,4.5
	c-3.5,3.4-6.4,4.7-8.6,3.8c-2.4-1-3.9-2.4-4.4-4.1c-0.4-1.2-0.4-2.7,0-4.6c-2.8,3.6-5.3,6.1-7.4,7.6c-1.9,1.3-3.6,1.7-4.9,1.3
	c-7.5-2.3-7.3-9.3,0.7-21c4.3-6.4,8.7-10.3,13-11.6c2.5-0.8,4.8-0.4,7,1.1c0.8,0.5,1.4,1.1,1.7,1.7c0.4,0.6,0.4,0.9,0.1,1.1
	C312.2,68.4,312,68.4,311.6,68.3L311.6,68.3z"/>
<path d="M154.5,140.1c6.4,0,9.4-4.2,9.4-8.7c0-4.1-2.6-7.3-6.1-7.8c3.1-0.7,5.4-3.3,5.4-7.3c0-3.7-2.9-8.1-9.5-8.1h-19.4v31.9H154.5
	L154.5,140.1z M151.6,119.9h-7.5v-3.7h7.5c1,0,1.9,0.7,1.9,1.8C153.5,119.2,152.6,119.9,151.6,119.9L151.6,119.9z M151.9,132h-7.7
	V128h7.7c1.4,0,2.2,0.9,2.2,2.1C154.2,131.2,153.3,132,151.9,132L151.9,132z M192,140.1v-8.4h-14.5v-3.5h14.2v-8.4h-14.2v-3.2H192
	v-8.4h-24.2v31.9H192L192,140.1z M212.8,140.1v-23.5h8.5v-8.4h-26.7v8.4h8.6v23.5H212.8L212.8,140.1z M248.9,140.1v-8.4h-14.5v-3.5
	h14.2v-8.4h-14.2v-3.2h14.5v-8.4h-24.2v31.9H248.9L248.9,140.1z M262.9,140.1v-10h7.4c7.5,0,11.5-5,11.5-10.9c0-6-4-10.9-11.5-10.9
	h-17v31.9H262.9L262.9,140.1z M269,121.6h-6.1v-5h6.1c1.6,0,2.9,0.8,2.9,2.5C271.9,120.8,270.6,121.6,269,121.6L269,121.6z
	 M313.7,140.1L302,108.2h-12.1l-11.8,31.9H289l1.1-3.7h11.5l1.1,3.7H313.7L313.7,140.1z M299.1,127.9h-6.3l3.2-10.3L299.1,127.9
	L299.1,127.9z M346.2,140.1v-31.9h-9.7v11.3h-11.4v-11.3h-9.7v31.9h9.7v-12.2h11.4v12.2H346.2L346.2,140.1z M383.6,140.1l-11.8-31.9
	h-12.1l-11.8,31.9h10.9l1.1-3.7h11.5l1.1,3.7H383.6L383.6,140.1z M368.9,127.9h-6.3l3.2-10.3L368.9,127.9L368.9,127.9z"/>
<linearGradient id="SVGID_1_" gradientUnits="userSpaceOnUse" x1="10.2941" y1="82.289" x2="124.812" y2="82.289">
	<stop  offset="0" style="stop-color:#976F34"/>
	<stop  offset="0.9325" style="stop-color:#ECD490"/>
</linearGradient>
<path class="st1" d="M88.8,79.3c2.1-1.3,5-2.2,12.3-1.5c9.4,0.9,19.3-4,23.8-13.3c-9,0.1-19.4-1.7-26,6.4c-3.2,3.9-6.1,5.5-7.8,6.1
	c3.3-3.4,6.2-6.8,8.5-10.1c1.4-1.8,3-3.4,9.7-7.2c9.1-5.2,12.9-16.2,10.6-26.9c-2.5,5.3-17.3,6.7-18.6,21.4
	c-0.7,8-2.8,11.8-2.9,11.9c-2.6,3.6-5.9,7.4-9.7,11.1c0.1-1.2,0.6-4.2,3.9-8.9c7.8-10.9,2.3-20.9-0.8-27.2c-2,6-9.7,17-7.1,26.1
	c2.1,7.6,3,9.4,1.8,12.1c-3.2,3-6.7,5.8-10.5,8.6c0.2-0.6,0.3-1.4,0.1-2.7c-0.3-1.7,0.7-4,2.5-6.9c5.9-9.3,1.8-20.1-1.6-25.8
	c-2.4,8.4-9.4,17.6-5.4,25.7c3.1,6.2,3.3,9.4,2.4,11c-4,2.8-8.2,5.3-12.7,7.5c-0.1-0.3-0.2-0.7,0-1.5c0.3-1.5,1.2-3.3,3-6.2
	c5.3-8.3,3.4-16.1-0.4-23.4c-1.7,6.4-8.9,15-6.2,22.6c2.4,6.7,2.1,7.6,1,9.8c-4,1.9-8.2,3.5-12.5,4.7c0.1-0.6,0.7-2,4.1-4.5
	c4.2-3.2,5.5-11.2,1.5-18.8c-4.4,7.1-8.7,10.8-7.4,17.1c0.8,4.1,0.9,5.7-0.1,6.9c-1.6,0.4-3.2,0.9-4.7,1.5c0.6-1,1.1-2.3,1.2-4.1
	c0.9-0.3,1.5-1.2,1.3-2.2c-0.2-1-1.2-1.7-2.3-1.5c-1,0.2-1.7,1.2-1.5,2.3c0.2,0.8,0.8,1.3,1.5,1.5c-0.1,2.4-1.2,3.9-2.1,4.7
	c-3.1,1.2-6.1,2.6-8.9,4.3c-3.9,2.3-7.4,5-10.5,8c-5.3,5.1-6.8,8.3-7.5,9.5c-1.2,2-0.3,3.2,1.1,3.8c1.5,0.6,3.6,1,3.8,0.2
	c0.3-0.8,1.9-6.4,6.7-10.9c2.4-2.3,5.6-5.7,11.3-8.9c1.1-0.2,2.9-0.1,4.8,1.2c-0.3,0.7-0.2,1.5,0.3,2.1c0.7,0.9,2.1,1.1,3,0.4
	c0.9-0.7,1.1-2.1,0.4-3c-0.7-0.9-2.1-1.1-3-0.4c0,0,0,0-0.1,0.1c-1.3-0.9-2.5-1.3-3.5-1.4c2.6-1.4,5.7-2.7,9.3-3.9
	c1.9,0,4.4,0.7,8.3,3.7c9.6,7.4,15.9-0.6,20.9-0.1c-4.2-2.7-10.7-8.6-19.9-5.4c-3.3,1.2-5.7,1.2-7.1,1c4.5-1.7,9.5-4.1,14-6.5
	c1.6,0.2,3.4,0.8,8.2,3.3c10.3,5.5,18.8-3.2,24-3.6c-7.8-2.7-14.7-6.6-23.7-2.9c-2.7,1.1-4.5,1.5-5.8,1.7c0.1,0,0.1-0.1,0.2-0.1
	c3.8-2,7.2-4.3,10.6-6.8c4.1-2,6.7-1.3,13.3,1.4c8.3,3.3,18.2,0.8,24.7-7.3c-3.6,1-11.8-8.7-25.2-0.1c-3.1,2-5.4,2.5-7.2,3
	c-1,0.2-1.5,0.2-1.9,0.2c0.1-0.1,0.2-0.2,0.4-0.3C82.3,85.3,85.6,82.4,88.8,79.3z"/>
<path class="st0" d="M54.9,114.7l-13,9.5l1.9-6c0,0-5,1.7-6.7-1.9c-0.3,1-1.8,5.7-1.8,5.7l-6.6,20.4l17.3-12.6l18.9-13.7
	C59.2,117.3,56.1,115.6,54.9,114.7L54.9,114.7z"/>
<path class="st0" d="M88.3,41.4l-6.8-21.1L74.9,0l-6.6,20.4l-11,34H0L17.3,67l26.6,19.3c0.8-1.6,2.1-3.5,3.9-5.7L21.4,61.4h40.8
	l12.6-38.8L84,50.7C85.1,48.1,86.6,44.9,88.3,41.4L88.3,41.4z"/>
<path class="st0" d="M105.5,94.4c-1,0.6-3.1,1.5-6.7,1.9l9.1,27.9l-24.6-17.9c-1.9,0.8-3.6,1-8,1c1.4,0.4,1.8,2,1.8,3.1l26.7,19.4
	l17.3,12.6l-6.6-20.4L105.5,94.4L105.5,94.4z"/>
<path class="st0" d="M119.1,54.4c-1.5,2.1-3.6,4.5-6.8,7h16c0,0,1.8,4.1-4.8,12.1l8.9-6.4l17.3-12.6H119.1L119.1,54.4z"/>
</svg>
