<?xml version="1.0" encoding="utf-8"?>
<!-- Generator: Adobe Illustrator 22.1.0, SVG Export Plug-In . SVG Version: 6.00 Build 0)  -->
<svg version="1.1" id="Layer_1" xmlns="http://www.w3.org/2000/svg" xmlns:xlink="http://www.w3.org/1999/xlink" x="0px" y="0px"
	 viewBox="0 0 4.193 3.502" style="enable-background:new 0 0 4.193 3.502;" xml:space="preserve">
<style type="text/css">
	.st0{fill:#c7ccce;}
</style>
<path class="st0" d="M0.942,3.364c0.013,0.019,0.035,0.031,0.044,0.052c0.019,0.043-0.019,0.068-0.058,0.071
	C0.929,3.491,0.93,3.496,0.931,3.501c-0.146,0.009-0.28-0.09-0.404-0.158C0.373,3.26,0.225,3.17,0.075,3.079
	c-0.097-0.059-0.109-0.222,0.016-0.26C0.345,2.741,0.587,2.647,0.83,2.541c0.035-0.015,0.067-0.01,0.095,0.005
	c0.01-0.003,0.019-0.009,0.027-0.009c0.001,0,0.001,0,0.002,0c0,0,0.001,0,0.001,0c0.031,0.001,0.028,0,0.057,0.011
	c0.007,0.003,0.008,0.005,0.017,0.01C1.043,2.565,1.054,2.576,1.063,2.59c0.01,0.013,0.015,0.028,0.017,0.044
	c0.005,0.016,0.005,0.032,0.001,0.048c-0.003,0.01-0.007,0.021-0.01,0.031C1.065,2.728,1.055,2.74,1.042,2.75
	c-0.011,0.012-0.024,0.02-0.04,0.024C1,2.775,0.997,2.774,0.995,2.775C0.988,2.782,0.981,2.789,0.971,2.793
	C0.958,2.801,0.944,2.805,0.928,2.806c-0.002,0-0.005,0-0.007,0C0.894,2.837,0.859,2.863,0.825,2.89
	c0.247-0.007,0.492-0.026,0.734-0.078C1.988,2.72,2.401,2.538,2.758,2.285c0.723-0.513,1.245-1.373,1.358-2.254
	c0.007-0.051,0.08-0.034,0.077,0.015c-0.059,0.974-0.504,1.861-1.29,2.453C2.335,2.926,1.556,3.196,0.825,3.14
	C0.881,3.209,0.926,3.285,0.942,3.364z"/>
</svg>
