<?xml version="1.0" encoding="iso-8859-1"?>
<!-- Generator: Adobe Illustrator 19.0.0, SVG Export Plug-In . SVG Version: 6.00 Build 0)  -->
<svg version="1.1" id="Capa_1" xmlns="http://www.w3.org/2000/svg" xmlns:xlink="http://www.w3.org/1999/xlink" x="0px" y="0px"
     viewBox="0 0 512 512" style="enable-background:new 0 0 512 512;" xml:space="preserve" fill="#ff383f">
<g>
    <g>
        <path d="M405.015,36H204.839c-5.523,0-10,4.477-10,10s4.477,10,10,10h200.176c5.523,0,10-4.477,10-10S410.538,36,405.015,36z"/>
    </g>
</g>
<g>
    <g>
        <path d="M103.445,38.93c-1.86-1.86-4.44-2.93-7.07-2.93c-2.64,0-5.21,1.07-7.07,2.93s-2.93,4.44-2.93,7.07s1.07,5.21,2.93,7.07
            s4.43,2.93,7.07,2.93c2.63,0,5.21-1.07,7.07-2.93s2.93-4.44,2.93-7.07S105.305,40.79,103.445,38.93z"/>
    </g>
</g>
<g>
    <g>
        <path d="M66.695,38.93c-1.86-1.86-4.44-2.93-7.07-2.93s-5.21,1.07-7.07,2.93s-2.93,4.44-2.93,7.07s1.07,5.21,2.93,7.07
            s4.44,2.93,7.07,2.93s5.21-1.07,7.07-2.93s2.93-4.44,2.93-7.07S68.555,40.79,66.695,38.93z"/>
    </g>
</g>
<g>
    <g>
        <path d="M140.195,38.93c-1.86-1.86-4.44-2.93-7.07-2.93c-2.64,0-5.21,1.07-7.08,2.93c-1.86,1.86-2.92,4.44-2.92,7.07
            s1.06,5.21,2.92,7.07c1.87,1.86,4.44,2.93,7.08,2.93c2.63,0,5.21-1.07,7.07-2.93s2.93-4.44,2.93-7.07S142.055,40.79,140.195,38.93
            z"/>
    </g>
</g>
<g>
    <g>
        <path d="M160.893,157.819c-4.977-2.392-10.952-0.293-13.343,4.685l-16.295,33.929l-17.702-34.197
            c-1.744-3.367-5.22-5.435-9.031-5.402c-3.791,0.057-7.223,2.252-8.864,5.67l-16.295,33.929L61.66,162.236
            c-2.539-4.904-8.571-6.822-13.478-4.284c-4.905,2.539-6.822,8.573-4.284,13.478l26.918,52c1.721,3.323,5.148,5.403,8.881,5.403
            c0.05,0,0.101,0,0.151-0.001c3.791-0.057,7.223-2.252,8.864-5.67l16.295-33.929l17.702,34.197
            c1.743,3.366,5.205,5.428,9.031,5.402c3.791-0.057,7.223-2.252,8.864-5.67l24.974-52
            C167.969,166.183,165.871,160.209,160.893,157.819z"/>
    </g>
</g>
<g>
    <g>
        <path d="M292.237,157.819c-4.978-2.392-10.953-0.294-13.343,4.685l-16.295,33.929l-17.702-34.197
            c-1.743-3.367-5.261-5.43-9.031-5.402c-3.791,0.057-7.223,2.252-8.864,5.67l-16.295,33.929l-17.702-34.197
            c-2.539-4.904-8.572-6.822-13.478-4.284c-4.905,2.539-6.822,8.573-4.284,13.478l26.918,52c1.743,3.367,5.267,5.431,9.031,5.402
            c3.791-0.057,7.223-2.252,8.864-5.67l16.295-33.929l17.702,34.197c1.72,3.323,5.147,5.403,8.88,5.403c0.05,0,0.101,0,0.151-0.001
            c3.791-0.057,7.223-2.252,8.864-5.67l24.974-52C299.313,166.183,297.215,160.209,292.237,157.819z"/>
    </g>
</g>
<g>
    <g>
        <path d="M423.58,157.819c-4.977-2.392-10.952-0.294-13.343,4.685l-16.295,33.929l-17.702-34.197
            c-1.743-3.367-5.238-5.43-9.031-5.402c-3.791,0.057-7.223,2.252-8.864,5.67l-16.295,33.929l-17.702-34.197
            c-2.539-4.904-8.571-6.822-13.478-4.284c-4.905,2.539-6.822,8.573-4.284,13.478l26.918,52c1.743,3.367,5.252,5.431,9.031,5.402
            c3.791-0.057,7.223-2.252,8.864-5.67l16.295-33.929l17.702,34.197c1.72,3.322,5.147,5.403,8.88,5.403c0.05,0,0.101,0,0.151-0.001
            c3.791-0.057,7.223-2.252,8.864-5.67l24.974-52C430.656,166.183,428.558,160.209,423.58,157.819z"/>
    </g>
</g>
<g>
    <g>
        <path d="M469.085,227.93c-1.86-1.86-4.44-2.93-7.07-2.93s-5.21,1.07-7.07,2.93c-1.86,1.86-2.93,4.44-2.93,7.07
            s1.07,5.21,2.93,7.07s4.44,2.93,7.07,2.93s5.21-1.07,7.07-2.93c1.86-1.86,2.93-4.44,2.93-7.07S470.945,229.79,469.085,227.93z"/>
    </g>
</g>
<g>
    <g>
        <path d="M430.015,0h-388c-23.159,0-42,18.841-42,42v310c0,23.159,18.841,42,42,42H238.57c5.523,0,10-4.477,10-10s-4.477-10-10-10
            H42.015c-12.131,0-22-9.869-22-22V91.995c0.037,0,0.073,0.005,0.109,0.005h431.891v100.833c0,5.523,4.477,10,10,10s10-4.477,10-10
            V42C472.015,18.841,453.174,0,430.015,0z M452.015,72H20.125c-0.037,0-0.073,0.005-0.109,0.005V42
            c-0.001-12.131,9.868-22,21.999-22h388c12.131,0,22,9.869,22,22V72z"/>
    </g>
</g>
<g>
    <g>
        <path d="M169.956,314.011H52.779c-5.523,0-10,4.477-10,10s4.477,10,10,10h117.177c5.523,0,10-4.477,10-10
            S175.479,314.011,169.956,314.011z"/>
    </g>
</g>
<g>
    <g>
        <path d="M232.017,266.012l-138.333-0.025c-0.001,0-0.001,0-0.001,0c-5.522,0-10,4.476-10,9.998
            c-0.001,5.523,4.475,10.001,9.998,10.002l138.333,0.025h0.001c5.522,0,9.999-4.476,10-9.998
            C242.016,270.491,237.539,266.013,232.017,266.012z"/>
    </g>
</g>
<g>
    <g>
        <path d="M59.855,268.94c-1.87-1.86-4.44-2.93-7.08-2.93c-2.63,0-5.21,1.07-7.07,2.93s-2.93,4.44-2.93,7.07
            c0,2.64,1.07,5.21,2.93,7.07c1.87,1.87,4.44,2.93,7.07,2.93s5.21-1.06,7.08-2.93c1.86-1.86,2.93-4.44,2.93-7.07
            S61.715,270.8,59.855,268.94z"/>
    </g>
</g>
<g>
    <g>
        <path d="M381.475,313.667c-36.025,0-65.333,29.309-65.333,65.333c0,36.024,29.309,65.333,65.333,65.333
            c36.024,0,65.333-29.309,65.333-65.333C446.808,342.976,417.5,313.667,381.475,313.667z M381.475,424.333
            c-24.997,0-45.333-20.336-45.333-45.333s20.336-45.333,45.333-45.333s45.333,20.336,45.333,45.333
            S406.472,424.333,381.475,424.333z"/>
    </g>
</g>
<g>
    <g>
        <path d="M508.688,408.871l-15.343-13.859c0.753-5.3,1.134-10.664,1.134-16.012c0-5.348-0.381-10.712-1.134-16.012l15.343-13.859
            c3.501-3.163,4.315-8.343,1.953-12.427l-28-48.414c-2.36-4.08-7.248-5.958-11.731-4.509l-19.635,6.346
            c-8.47-6.668-17.761-12.041-27.735-16.036l-4.324-20.184c-0.988-4.611-5.063-7.905-9.778-7.905h-55.923
            c-4.716,0-8.791,3.294-9.778,7.905l-4.323,20.184c-9.974,3.995-19.266,9.367-27.735,16.035l-19.636-6.345
            c-4.485-1.449-9.372,0.43-11.731,4.509l-28,48.414c-2.362,4.084-1.548,9.264,1.953,12.427l15.343,13.859
            c-0.753,5.301-1.134,10.665-1.134,16.012s0.381,10.711,1.134,16.012l-15.343,13.859c-3.501,3.163-4.315,8.343-1.953,12.427
            l28,48.414c2.36,4.08,7.246,5.959,11.731,4.509l19.636-6.345c8.469,6.668,17.761,12.04,27.735,16.035l4.323,20.184
            c0.988,4.611,5.063,7.905,9.778,7.905h55.923c4.715,0,8.791-3.294,9.778-7.905l4.324-20.184
            c9.974-3.995,19.265-9.367,27.735-16.036l19.635,6.346c4.485,1.45,9.372-0.429,11.731-4.509l28-48.414
            C513.003,417.213,512.189,412.034,508.688,408.871z M472.761,361.146c1.14,5.864,1.718,11.871,1.718,17.854
            c0,5.983-0.578,11.989-1.718,17.854c-0.668,3.44,0.513,6.979,3.113,9.329l13.403,12.106l-19.905,34.417l-17.171-5.549
            c-3.34-1.08-7-0.329-9.646,1.978c-9.118,7.947-19.51,13.956-30.89,17.859c-3.319,1.138-5.798,3.933-6.534,7.364L401.352,492
            h-39.753l-3.779-17.643c-0.735-3.431-3.215-6.226-6.534-7.364c-11.38-3.903-21.773-9.912-30.89-17.859
            c-2.645-2.307-6.307-3.058-9.646-1.978l-17.172,5.549l-19.905-34.417l13.403-12.107c2.601-2.349,3.782-5.889,3.113-9.329
            c-1.14-5.866-1.718-11.873-1.718-17.854s0.578-11.987,1.718-17.854c0.668-3.44-0.513-6.979-3.113-9.329l-13.403-12.107
            l19.905-34.417l17.172,5.549c3.338,1.08,7,0.328,9.646-1.978c9.117-7.947,19.509-13.956,30.89-17.859
            c3.319-1.139,5.798-3.933,6.534-7.364L361.599,266h39.753l3.779,17.643c0.735,3.431,3.215,6.226,6.534,7.364
            c11.379,3.903,21.772,9.912,30.89,17.859c2.646,2.306,6.306,3.058,9.646,1.978l17.171-5.549l19.905,34.417l-13.403,12.106
            C473.274,354.167,472.093,357.707,472.761,361.146z"/>
    </g>
</g>
<g>
</g>
<g>
</g>
<g>
</g>
<g>
</g>
<g>
</g>
<g>
</g>
<g>
</g>
<g>
</g>
<g>
</g>
<g>
</g>
<g>
</g>
<g>
</g>
<g>
</g>
<g>
</g>
<g>
</g>
</svg>
