<svg height="512pt" viewBox="0 -20 512 511" width="512pt" xmlns="http://www.w3.org/2000/svg" fill="#ff383f"><path d="m482 310.4375c-2.640625 0-5.210938 1.070312-7.070312 2.929688-1.859376 1.863281-2.929688 4.441406-2.929688 7.070312 0 2.632812 1.070312 5.210938 2.929688 7.070312 1.859374 1.859376 4.441406 2.929688 7.070312 2.929688s5.210938-1.070312 7.070312-2.929688c1.859376-1.859374 2.929688-4.4375 2.929688-7.070312 0-2.628906-1.070312-5.207031-2.929688-7.070312-1.859374-1.859376-4.441406-2.929688-7.070312-2.929688zm0 0"/><path d="m502 388.4375h-10v-28.5c0-5.523438-4.476562-10-10-10s-10 4.476562-10 10v28.5h-432v-27.96875h94.949219c5.523437 0 10-4.476562 10-10s-4.476563-10-10-10h-94.949219v-206.03125c0-12.128906 9.867188-22 22-22h57.265625c-.824219 5.90625-1.261719 11.933594-1.261719 18.0625 0 71.683594 58.316406 130 130 130 23.558594 0 45.667969-6.296875 64.742188-17.296875l79.367187 79.367187c6.40625 6.40625 14.921875 9.933594 23.980469 9.933594 9.054688 0 17.570312-3.527344 23.976562-9.933594 6.402344-6.40625 9.933594-14.921874 9.933594-23.976562 0-9.058594-3.527344-17.574219-9.933594-23.980469l-79.367187-79.363281c11.003906-19.078125 17.304687-41.191406 17.304687-64.75 0-6.128906-.4375-12.15625-1.261718-18.0625h73.253906c12.132812 0 22 9.871094 22 22v144c0 5.523438 4.476562 10 10 10s10-4.476562 10-10v-144c0-23.160156-18.839844-42-42-42h-77.683594c-16.3125-53.167969-65.867187-91.9375-124.3125-91.9375-58.441406 0-107.996094 38.769531-124.308594 91.9375h-61.695312c-23.160156 0-42 18.839844-42 42v254h-10c-5.523438 0-10 4.476562-10 10v22c0 28.671875 23.328125 52 52 52h408c28.671875 0 52-23.328125 52-52v-22c0-5.523438-4.476562-10-10-10zm-76.074219-99.679688c2.628907 2.625 4.074219 6.117188 4.074219 9.832032s-1.445312 7.210937-4.074219 9.835937c-2.625 2.628907-6.117187 4.074219-9.835937 4.074219-3.714844 0-7.207032-1.445312-9.832032-4.074219l-76.738281-76.738281c7.234375-5.835938 13.832031-12.433594 19.667969-19.667969zm-177.921875-268.257812c60.65625 0 110 49.347656 110 110s-49.34375 110-110 110c-60.652344 0-110-49.347656-110-110s49.347656-110 110-110zm243.996094 399.9375c0 17.644531-14.355469 32-32 32h-408c-17.644531 0-32-14.355469-32-32v-12h472zm0 0"/><path d="m289.667969 420.4375h-67.332031c-5.523438 0-10 4.476562-10 10s4.476562 10 10 10h67.332031c5.519531 0 10-4.476562 10-10s-4.480469-10-10-10zm0 0"/><path d="m248.003906 218.5c48.523438 0 88-39.476562 88-88s-39.476562-88-88-88c-48.523437 0-88 39.476562-88 88s39.476563 88 88 88zm0-156c37.496094 0 68 30.503906 68 68s-30.503906 68-68 68c-37.492187 0-68-30.503906-68-68s30.507813-68 68-68zm0 0"/><path d="m248.003906 105.503906c13.78125 0 24.996094 11.214844 24.996094 24.996094 0 5.523438 4.476562 10 10 10s10-4.476562 10-10c0-24.808594-20.183594-44.996094-44.996094-44.996094-5.519531 0-10 4.476563-10 10 0 5.523438 4.476563 10 10 10zm0 0"/><path d="m176.949219 340.46875c-5.519531 0-10 4.476562-10 10s4.480469 10 10 10h.226562c5.519531 0 10-4.476562 10-10s-4.480469-10-10-10zm0 0"/></svg>
