<?xml version="1.0" encoding="utf-8"?>
<!-- Generator: Adobe Illustrator 22.1.0, SVG Export Plug-In . SVG Version: 6.00 Build 0)  -->
<svg version="1.1" id="Layer_1" xmlns="http://www.w3.org/2000/svg" xmlns:xlink="http://www.w3.org/1999/xlink" x="0px" y="0px"
	 viewBox="0 0 449 449" style="enable-background:new 0 0 449 449;" xml:space="preserve">
<path d="M350.3,211.4H99.4c-5.5,0-10,4.5-10,10v156.9c0,5.5,4.5,10,10,10h250.9c5.5,0,10-4.5,10-10V221.4
	C360.3,215.9,355.8,211.4,350.3,211.4z M340.3,289.8h-65.5v-58.4h65.5V289.8z M189.2,289.8v-58.4h65.5v58.4L189.2,289.8z
	 M254.8,309.8v58.4h-65.5v-58.4H254.8z M169.2,231.4v58.4h-59.8v-58.4H169.2z M109.4,309.8h59.8v58.4h-59.8V309.8z M274.8,368.3
	v-58.4h65.5v58.4L274.8,368.3z"/>
<path d="M398.7,38.3h-19.8V10c0-5.5-4.5-10-10-10s-10,4.5-10,10v28.3H96.5V10c0-5.5-4.5-10-10-10c-5.5,0-10,4.5-10,10v28.3H51
	c-27.6,0-50,22.4-50,50V399c0,27.6,22.4,50,50,50h347.7c27.6,0,50-22.4,50-50V88.3C448.7,60.7,426.3,38.4,398.7,38.3z M51,58.3h35
	c0.2,0,0.4,0,0.5,0c0.2,0,0.4,0,0.5,0h281.2c0.2,0,0.4,0,0.5,0c0.2,0,0.4,0,0.5,0h29.3c16.6,0,30,13.4,30,30v58.4H21V88.3
	C21,71.8,34.4,58.3,51,58.3L51,58.3z M398.7,429H51c-16.6,0-30-13.4-30-30V166.7h407.7V399C428.7,415.6,415.3,429,398.7,429z"/>
</svg>
