<svg 
 xmlns="http://www.w3.org/2000/svg"
 xmlns:xlink="http://www.w3.org/1999/xlink"
 width="16px" height="12px">

<path fill-rule="evenodd" 
 d="M0.000,11.999 L0.000,0.005 L16.003,0.005 L16.003,11.999 L0.000,11.999 ZM0.775,10.684 L5.369,6.002 L0.775,1.320 L0.775,10.684 ZM1.291,0.794 L7.124,6.738 C7.770,7.396 8.234,7.396 8.879,6.738 L14.713,0.794 L1.291,0.794 ZM14.713,11.210 L10.118,6.528 C9.215,7.449 8.622,8.080 8.002,8.080 C7.383,8.080 6.789,7.449 5.885,6.528 L1.291,11.210 L14.713,11.210 ZM10.635,6.002 L15.229,10.684 L15.229,1.320 L10.635,6.002 Z"/>
</svg>