<?xml version="1.0" encoding="utf-8"?>
<!-- Generator: Adobe Illustrator 22.0.1, SVG Export Plug-In . SVG Version: 6.00 Build 0)  -->
<svg version="1.1" id="Layer_1" xmlns="http://www.w3.org/2000/svg" xmlns:xlink="http://www.w3.org/1999/xlink" x="0px" y="0px"
	 viewBox="0 0 512 512" style="enable-background:new 0 0 512 512;" xml:space="preserve">
<style type="text/css">
	.st0{fill:#FFFFFF;}
</style>
<g id="_09-screen">
	<g id="Glyph">
		<path class="st0" d="M256,213.3c-82.5,0-149.3,66.9-149.3,149.3S173.5,512,256,512s149.3-66.9,149.3-149.3
			C405.2,280.2,338.4,213.4,256,213.3z M331,381l-106.7,64c-10.1,6.1-23.2,2.8-29.3-7.3c-2-3.3-3-7.1-3-11v-128
			c0-11.8,9.6-21.3,21.3-21.3c3.9,0,7.7,1.1,11,3l106.7,64c10.1,6.1,13.4,19.2,7.3,29.3C336.5,376.6,334,379.2,331,381z"/>
		<path class="st0" d="M512,128c-0.4,36.3-30.7,69.1-79.1,92.3c-3.7,1.8-6.1,5.5-6.2,9.6v125.4c0,5.9,4.8,10.7,10.7,10.7
			c1.8,0,3.5-0.5,5.1-1.3c42.8-22.9,69.1-53.6,69.5-87.4h0L512,128L512,128z"/>
		<path class="st0" d="M0,128L0,128l0,149.3h0c0.4,33.8,26.7,64.6,69.5,87.4c5.2,2.8,11.7,0.9,14.5-4.3c0.9-1.6,1.3-3.3,1.3-5.1V230
			c0-4.1-2.4-7.9-6.2-9.6C30.7,197.1,0.4,164.3,0,128z"/>
		<path class="st0" d="M68.3,192c42.8-25.9,110.9-42.7,187.7-42.7s144.9,16.8,187.7,42.7c29.5-17.8,46.9-40,46.9-64
			c0-58.9-105.1-106.7-234.7-106.7S21.3,69.1,21.3,128C21.3,152,38.8,174.2,68.3,192z"/>
	</g>
</g>
</svg>
