<?xml version="1.0" encoding="utf-8"?>
<!-- Generator: Adobe Illustrator 22.1.0, SVG Export Plug-In . SVG Version: 6.00 Build 0)  -->
<svg version="1.1" id="Layer_1" xmlns="http://www.w3.org/2000/svg" xmlns:xlink="http://www.w3.org/1999/xlink" x="0px" y="0px"
	 viewBox="0 0 512 512" style="enable-background:new 0 0 512 512;" xml:space="preserve">
<linearGradient id="gradient" x1="0.7" y1="0" x2="0" y2="0.7">
  <stop offset="0" stop-color="#ffd439"></stop>
  <stop offset="12%" stop-color="#ffd439"></stop>
  <stop offset="20%" stop-color="rgba(241,199,47,0.99)"></stop>
  <stop offset="87%" stop-color="#a58239"></stop>
  <stop offset="100%" stop-color="#a58239"></stop>
</linearGradient>

<path fill="url(#gradient)" d="M512,412c-20.5,0-40.5-11.5-59.4-34.2c-0.9-1.1-2.7-1.8-4.6-1.8s-3.6,0.7-4.6,1.8c-19,22.7-38.9,34.2-59.4,34.2
	s-40.5-11.5-59.4-34.2c-0.9-1.1-2.7-1.8-4.6-1.8s-3.6,0.7-4.6,1.8c-19,22.7-38.9,34.2-59.4,34.2s-40.5-11.5-59.4-34.2
	c-0.9-1.1-2.7-1.8-4.6-1.8s-3.6,0.7-4.6,1.8c-19,22.7-38.9,34.2-59.4,34.2s-40.5-11.5-59.4-34.2c-0.9-1.1-2.7-1.8-4.6-1.8
	s-3.7,0.7-4.6,1.8C40.5,400.5,20.5,412,0,412v-40c7.7,0,18.2-7.2,28.7-19.8C37.3,341.9,50.1,336,64,336s26.7,5.9,35.3,16.2
	c10.5,12.6,21,19.8,28.7,19.8s18.2-7.2,28.7-19.8c8.6-10.3,21.4-16.2,35.3-16.2s26.7,5.9,35.3,16.2c10.5,12.6,21,19.8,28.7,19.8
	s18.2-7.2,28.7-19.8c8.6-10.3,21.4-16.2,35.3-16.2s26.7,5.9,35.3,16.2c10.5,12.6,21,19.8,28.7,19.8s18.2-7.2,28.7-19.8
	c8.6-10.3,21.4-16.2,35.3-16.2s26.7,5.9,35.3,16.2c10.5,12.6,21,19.8,28.7,19.8V412z M512,472c-7.7,0-18.2-7.2-28.7-19.8
	c-8.6-10.3-21.4-16.2-35.3-16.2s-26.7,5.9-35.3,16.2c-10.5,12.6-21,19.8-28.7,19.8s-18.2-7.2-28.7-19.8
	c-8.6-10.3-21.4-16.2-35.3-16.2s-26.7,5.9-35.3,16.2c-10.5,12.6-21,19.8-28.7,19.8s-18.2-7.2-28.7-19.8
	c-8.6-10.3-21.4-16.2-35.3-16.2s-26.7,5.9-35.3,16.2c-10.5,12.6-21,19.8-28.7,19.8s-18.2-7.2-28.7-19.8C90.7,441.9,77.9,436,64,436
	s-26.7,5.9-35.3,16.2C18.2,464.8,7.7,472,0,472v40c20.5,0,40.5-11.5,59.4-34.2c0.9-1.1,2.7-1.8,4.6-1.8s3.7,0.7,4.6,1.8
	c19,22.7,38.9,34.2,59.4,34.2s40.5-11.5,59.4-34.2c0.9-1.1,2.7-1.8,4.6-1.8s3.6,0.7,4.6,1.8c19,22.7,38.9,34.2,59.4,34.2
	s40.5-11.5,59.4-34.2c0.9-1.1,2.7-1.8,4.6-1.8s3.6,0.7,4.6,1.8c19,22.7,38.9,34.2,59.4,34.2s40.5-11.5,59.4-34.2
	c0.9-1.1,2.7-1.8,4.6-1.8s3.6,0.7,4.6,1.8c19,22.7,38.9,34.2,59.4,34.2V472z M162.7,156.8c5.7-2,10.2-6.6,12.2-12.4
	c0.2-0.7,23.6-67.9,67.8-109.9c8-7.6,8.3-20.3,0.7-28.3c-7.6-8-20.3-8.3-28.3-0.7c-35,33.2-58,78-69.5,104.3
	C119.8,97.2,72.5,78.5,20.2,78c-0.1,0-0.1,0-0.2,0C9,78,0.1,86.8,0,97.8c-0.1,11,8.8,20.1,19.8,20.2c65.9,0.6,125.1,36.6,125.6,37
	c3.2,2,6.9,3,10.5,3C158.3,158,160.5,157.6,162.7,156.8L162.7,156.8z M390.2,207.7c5.9-2.2,10.3-7.1,12.1-13.1
	c0.1-0.5,14.5-49,45.6-75.3c8.4-7.1,9.5-19.8,2.3-28.2c-7.1-8.4-19.8-9.5-28.2-2.3c-25.1,21.3-41.2,51.7-50,72.3
	c-19.9-8.8-52.1-19.7-90.4-21c-11-0.4-20.3,8.3-20.7,19.3c-0.4,11,8.3,20.3,19.3,20.7c52.3,1.8,91.8,25.8,92.2,26
	c3.2,2,6.9,3,10.6,3C385.5,209,387.9,208.6,390.2,207.7L390.2,207.7z"/>
</svg>
