<?xml version="1.0" encoding="utf-8"?>
<!-- Generator: Adobe Illustrator 22.1.0, SVG Export Plug-In . SVG Version: 6.00 Build 0)  -->
<svg version="1.1" id="Capa_1" xmlns="http://www.w3.org/2000/svg" xmlns:xlink="http://www.w3.org/1999/xlink" x="0px" y="0px"
	 viewBox="0 0 43.9 93.6" style="enable-background:new 0 0 43.9 93.6;" xml:space="preserve" fill="#efebe2">
<g>
	<path d="M43.1,49.8l-9.4-10.3c-0.6-0.6-1.1-2-1.1-2.8l-0.3-10.7v-0.3c0-1.7-1.3-3-3-3H20h-3.6c-1.5,0-3.1,1-3.8,2.4L0.3,51.2
		c-0.3,0.7-0.4,1.5-0.1,2.3c0.3,0.8,0.8,1.3,1.6,1.7l1.8,0.8c0.4,0.2,0.8,0.3,1.2,0.3l0,0c1.2,0,2.3-0.7,2.8-1.7L13.4,43v11.6
		c0,0.1-0.1,0.1-0.1,0.2L3.5,85.4c-0.4,1.3-0.3,2.6,0.4,3.8s1.7,2,3,2.3l0.7,0.2c0.4,0.1,0.9,0.2,1.3,0.2c2.3,0,4.3-1.5,5-3.6
		L23,59.6l3.2,7.9c0.8,1.9,1.6,5.3,1.9,7.4l1.6,14.6c0.2,2.3,2.1,4,4.4,4c0.4,0,0.8,0,1.1-0.1l0.7-0.2c2.6-0.6,4.5-3.3,4.1-6
		l-2.3-17.8c-0.3-2.3-1.3-5.8-2.2-7.9l-3.1-7.1c0-0.1-0.1-0.2-0.1-0.3v-4.8l5.6,5.8c0.6,0.6,1.3,0.9,2.1,0.9c0.8,0,1.6-0.3,2.1-0.9
		l1-1.1C44.2,52.9,44.2,51,43.1,49.8z"/>
	<path d="M23.6,20c5.5,0,10-4.5,10-10c0-5.5-4.5-10-10-10c-5.5,0-10,4.5-10,10C13.6,15.5,18.1,20,23.6,20z"/>
</g>
</svg>
