<?xml version="1.0" encoding="utf-8"?>
<!-- Generator: Adobe Illustrator 22.1.0, SVG Export Plug-In . SVG Version: 6.00 Build 0)  -->
<svg version="1.1" id="Capa_1" xmlns="http://www.w3.org/2000/svg" xmlns:xlink="http://www.w3.org/1999/xlink" x="0px" y="0px"
	 viewBox="0 0 335.3 512" style="enable-background:new 0 0 335.3 512;" xml:space="preserve" fill="#f1c72f">
<g>
	<g>
		<path d="M303.1,0H32.2C14.5,0,0,14.5,0,32.2v460.4c0,7,3.8,13.5,9.9,16.9c2.9,1.6,6.2,2.5,9.4,2.5c3.5,0,7.1-1,10.2-2.9
			l138.2-85.3l138.2,84.7c6,3.7,13.5,3.8,19.6,0.4c6.1-3.4,9.9-9.9,9.9-16.9V32.2C335.3,14.5,320.9,0,303.1,0z M296.6,457.5
			l-118.8-72.9c-6.2-3.8-14.1-3.8-20.3,0L38.7,458V38.7h257.9V457.5z"/>
	</g>
</g>
</svg>
