<?xml version="1.0" encoding="utf-8"?>
<!-- Generator: Adobe Illustrator 22.1.0, SVG Export Plug-In . SVG Version: 6.00 Build 0)  -->
<svg version="1.1" id="Layer_1" xmlns="http://www.w3.org/2000/svg" xmlns:xlink="http://www.w3.org/1999/xlink" x="0px" y="0px"
	 viewBox="0 0 512 448" style="enable-background:new 0 0 512 448;" xml:space="preserve" fill="#efebe2">
<path d="M473.4,165.3L437.5,45.6C429.3,18.3,404.7,0,376.2,0H135.8c-28.5,0-53.1,18.3-61.3,45.6L38.6,165.3
	C15.9,175.2,0,197.7,0,224v128c0,17.7,14.3,32,32,32h0l0,32c0,17.7,14.3,32,32,32h32c17.7,0,32-14.3,32-32l0-32h256l0,32
	c0,17.7,14.3,32,32,32h32c17.7,0,32-14.3,32-32v-32l0,0h0c17.7,0,32-14.3,32-32V224C512,197.7,496.1,175.2,473.4,165.3L473.4,165.3z
	 M135.8,64h240.4l28.8,96H107L135.8,64L135.8,64z M128,304c-17.7,0-32-14.3-32-32c0-17.7,14.3-32,32-32s32,14.3,32,32
	C160,289.7,145.7,304,128,304z M384,304c-17.7,0-32-14.3-32-32c0-17.7,14.3-32,32-32s32,14.3,32,32C416,289.7,401.7,304,384,304z"/>
</svg>
