<svg xmlns="http://www.w3.org/2000/svg" viewBox="0 0 48.22 27.7">
  <style type="text/css">
    .st0{fill:#013d74;}
  </style>
  <path class="st0" d="M0.46,4.19C0.06,3.13 -0.46,2.02 0.76,1.42C3.26,1.39 5.75,1.36 8.24,1.32C9.32,1.36 9.82,2.16 10.39,3.27C12.07,6.5 13.81,9.72 15.92,12.69C16.61,13.66 17.77,14.03 18.69,12.49C18.79,10.4 18.89,8.32 19,6.24C18.66,3.81 17.82,2.39 16.33,2.24C15.49,1.42 16.09,0.75 17.99,0.38C21,-0.25 23.63,0.03 25.94,0.32C27.88,0.45 28.17,1.77 28.13,3.27C28.06,6.03 28.01,8.8 28.01,11.57C28.58,14.37 30.12,13.25 31.13,12.03C32.95,9.45 34.52,6.93 35.84,4.1C37.2,1.2 37.58,1.41 38.54,1.41C40.83,1.39 43.35,1.28 45.17,1.34C48.98,1.12 48.54,2.81 47.47,4.6C45.61,7.72 43.24,10.54 41.12,13.51C39.83,15.26 39.86,16.35 41.22,17.3C43.24,19.52 45.43,21.59 47.27,23.96C49.26,26.53 47.79,27.25 45.93,27.44L39.28,27.44C37.39,27.48 35.67,27 34.46,24.98C31.68,21.3 29.6,20.28 28.77,22.36C28.4,23.27 28.11,24.5 28.11,25.7C28.12,27.37 27.12,27.5 25.76,27.54C24.29,27.54 22.77,27.9 21.35,27.54C16.32,26.28 11.51,23.93 6.81,15.87C4.69,12.39 2.57,8.58 0.46,4.19"/>
</svg>