<svg height="512" width="512" xmlns="http://www.w3.org/2000/svg"><path d="M276.051 472.992l-15.1-15.1a6.999 6.999 0 00-9.899 0l-15.1 15.1c-4.41 4.41-11.95 1.287-11.95-4.95v-79.57h64v79.57c-.001 6.237-7.541 9.36-11.951 4.95z" fill="#fe646f"/><path d="M505 36.944H7.002a7 7 0 00-7 7v337.999a7 7 0 007 7H505a7 7 0 007-7V43.944a7 7 0 00-7-7z" fill="#ffe177"/><path d="M31.998 36.947v351.994H7a7 7 0 01-7-7V43.947a7 7 0 017-7z" fill="#ffd15b"/><path d="M448 93.943v-18a7 7 0 00-7-7H71.002a7 7 0 00-7 7v18a7 7 0 01-7 7h-18a7 7 0 00-7 7v209.999a7 7 0 007 7h18a7 7 0 017 7v18a7 7 0 007 7H441a7 7 0 007-7v-18a7 7 0 017-7h18a7 7 0 007-7V107.943a7 7 0 00-7-7h-18a7 7 0 01-7-7z" fill="#eaf6ff"/><circle cx="256.001" cy="340.942" fill="#f7ba4d" r="80.02"/><path d="M281.756 416.725a80.04 80.04 0 01-25.755 4.234c-44.195 0-80.025-35.82-80.025-80.015s35.83-80.025 80.025-80.025a80.04 80.04 0 0125.755 4.234c-16.236 5.512-30.123 16.102-39.786 29.865-9.127 13.011-14.484 28.835-14.484 45.926 0 16.823 5.192 32.42 14.052 45.297 9.683 14.073 23.745 24.89 40.218 30.484z" fill="#ffab15"/><circle cx="256.001" cy="340.697" fill="#ffe177" r="47.775"/><path d="M227.486 340.945c0 16.823 5.192 32.42 14.052 45.297-19.316-6.13-33.316-24.199-33.316-45.544 0-21.5 14.206-39.693 33.749-45.678-9.129 13.01-14.485 28.834-14.485 45.925z" fill="#ffd15b"/><path d="M377.001 164.816H135.002a7 7 0 01-7-7v-18a7 7 0 017-7h241.999a7 7 0 017 7v18a7 7 0 01-7 7z" fill="#8ac9fe"/><path d="M224.001 204.669h-128a7.726 7.726 0 110-15.452H224c4.268 0 7.726 3.459 7.726 7.726s-3.457 7.726-7.725 7.726zm192 .124h-128a7.725 7.725 0 01-7.726-7.726 7.725 7.725 0 017.726-7.726h128a7.726 7.726 0 110 15.452zM320 236.669H192.002a7.726 7.726 0 110-15.452H320c4.268 0 7.726 3.459 7.726 7.726s-3.458 7.726-7.726 7.726zm-63.999-32a7.726 7.726 0 110-15.452 7.726 7.726 0 010 15.452zM32.002 76.67a7.726 7.726 0 110-15.452 7.726 7.726 0 010 15.452zm447.998 0a7.726 7.726 0 110-15.452 7.726 7.726 0 010 15.452zM32.002 364.669a7.726 7.726 0 110-15.452 7.726 7.726 0 010 15.452zm447.998 0a7.726 7.726 0 110-15.452 7.726 7.726 0 010 15.452z" fill="#68748f"/></svg>