<svg xmlns="http://www.w3.org/2000/svg" viewBox="0 0 507.967 507.967"><path d="M185.883 419.867c-20.6-6.7-25.1-45.2-42.2-57.7-11.1-8.1-30.7-7.9-46.7-11.3l-6.1 10.3-48.1 80.9 86.7-19.7 24.3 85.5 45.3-76.3 8.7-14.7c-7.7 3.4-15.2 5.2-21.9 3zm225.1-68.9c-16 3.4-35.6 3.2-46.8 11.3-17.1 12.5-21.6 51-42.2 57.7-6.7 2.2-14.1.4-21.8-3l8.7 14.7 45.3 76.3 24.2-85.5 86.7 19.7-48-80.9-6.1-10.3z" fill="#41596b"/><path d="M417.083 361.167c-6.5 1.7-13.3 2.6-19.8 3.5-10.3 1.4-21 2.8-26.4 6.7-5.3 3.9-9.9 13.5-14.3 22.8-7 14.7-15 31.3-31 36.6-3.1 1-6.4 1.5-9.8 1.5-2.3 0-4.6-.2-6.9-.6l-54.9-92.5-54.9 92.5c-2.3.4-4.6.6-6.9.6-3.4 0-6.7-.5-9.8-1.5-16-5.2-24-21.9-31-36.6-4.4-9.3-9-18.9-14.3-22.7-5.4-3.9-16.1-5.3-26.4-6.8-6.5-.8-13.3-1.7-19.7-3.4l63-106.3 100 59.3 100-59.3 63.1 106.2z" fill="#334a5e"/><path d="M432.483 152.467c-6.7-20.6 12.2-54.3-.3-71.5-12.6-17.3-50.6-9.7-67.9-22.3-17.1-12.5-21.6-51-42.2-57.7-19.9-6.5-46.1 21.9-68.1 21.9s-48.2-28.3-68.1-21.9c-20.6 6.7-25.1 45.2-42.2 57.7-17.3 12.6-55.3 5-67.9 22.3-12.5 17.1 6.4 50.9-.3 71.5-6.4 19.8-41.8 36-41.8 58s35.3 38.1 41.8 58c6.7 20.6-12.2 54.3.3 71.5 12.6 17.3 50.6 9.7 67.9 22.3 17.1 12.5 21.6 51 42.2 57.7 19.9 6.4 46.1-22 68.1-22s48.2 28.3 68.1 21.9c20.6-6.7 25.1-45.2 42.2-57.7 17.3-12.6 55.3-5 67.9-22.3 12.5-17.1-6.4-50.9.3-71.5 6.4-19.8 41.8-36 41.8-58s-35.4-38.1-41.8-57.9z" fill="#f2705b"/><path d="M253.983 78.567c-72.8 0-131.9 59-131.9 131.8 0 .8 0 1.6.1 2.4v.6c1.6 71.5 60 128.8 131.8 128.8 2 0 4.1-.1 6.1-.2 69.9-3.2 125.7-60.9 125.7-131.6 0-72.8-59-131.8-131.8-131.8z" fill="#ffd05c"/><path fill="#fff" d="M253.983 108.067l23.3 71.7h75.4l-61 44.4 23.3 71.7-61-44.3-61.1 44.3 23.3-71.7-61-44.4h75.4z"/></svg>