<svg xmlns="http://www.w3.org/2000/svg" viewBox="0 0 512 512"><path d="M477.952 209.419c-6.037-19.648-24.181-33.045-44.715-33.045H313.099v193.92H512v-50.155l-34.048-110.72z" fill="#ff7058"/><path d="M482.496 313.739l-29.707-96.576c-2.656-8.651-10.517-14.453-19.563-14.453h-93.824v111.029h143.094z" fill="#84dbff"/><path d="M482.496 313.739l-29.707-96.576c-2.656-8.651-10.517-14.453-19.563-14.453h-93.824l143.094 111.029z" fill="#54c0eb"/><g fill="#ff7058"><path d="M168.416 104.811h-57.888c-25.237 0-45.013-14.827-45.013-33.749 0-18.912 19.776-33.749 45.013-33.749 24.853 0 57.888 41.109 57.888 59.893v7.605zm-57.888-52.288c-16.16 0-29.813 8.501-29.813 18.539 0 10.059 13.653 18.549 29.813 18.549h40.288c-6.88-13.963-27.008-37.088-40.288-37.088"/><path d="M211.104 104.811h-57.888v-7.605c0-18.795 33.035-59.893 57.888-59.893 25.248 0 45.024 14.837 45.024 33.749 0 18.933-19.776 33.749-45.024 33.749m-40.288-15.2h40.288c16.171 0 29.813-8.491 29.813-18.549 0-10.037-13.643-18.539-29.813-18.539-13.269 0-33.408 23.125-40.288 37.088"/></g><path fill="#f2f2f2" d="M8.523 141.12H313.11v245.205H8.523z"/><path d="M300.789 101.269H20.832C9.333 101.269 0 110.603 0 122.112v35.285h321.643v-35.285c0-11.509-9.334-20.843-20.854-20.843" fill="#e8eaea"/><path fill="#ff7058" d="M142.187 97.216h37.259v291.221h-37.259z"/><path d="M6.731 366.208v35.189c0 11.776 9.547 21.333 21.333 21.333h462.56c11.776 0 21.333-9.557 21.333-21.333v-35.189H6.731z" fill="#40596b"/><path d="M126.752 348.192c-41.163 0-74.539 33.376-74.539 74.539h149.088c-.01-41.174-33.386-74.539-74.549-74.539m282.635 0c-41.152 0-74.528 33.376-74.528 74.539h149.077c-.011-41.174-33.387-74.539-74.549-74.539" fill="#334a5e"/><path d="M178.709 422.731c0 28.683-23.264 51.957-51.957 51.957-28.704 0-51.957-23.275-51.957-51.957 0-28.683 23.253-51.968 51.957-51.968 28.693 0 51.957 23.274 51.957 51.968" fill="#40596b"/><path d="M151.989 422.731c0 13.941-11.307 25.227-25.237 25.227s-25.237-11.296-25.237-25.227c0-13.931 11.307-25.237 25.237-25.237s25.237 11.295 25.237 25.237" fill="#e8eaea"/><path d="M461.355 422.731c0 28.683-23.275 51.957-51.979 51.957-28.683 0-51.947-23.275-51.947-51.957 0-28.683 23.264-51.968 51.947-51.968 28.704 0 51.979 23.274 51.979 51.968" fill="#40596b"/><path d="M434.624 422.731c0 13.941-11.296 25.227-25.227 25.227-13.952 0-25.248-11.296-25.248-25.227 0-13.931 11.307-25.237 25.248-25.237 13.942-.001 25.227 11.295 25.227 25.237" fill="#e8eaea"/></svg>