<svg xmlns="http://www.w3.org/2000/svg" viewBox="0 0 508 508"><path d="M397.1 57h-375C10.4 57 .8 66.6.8 78.4v408.3c0 11.8 9.5 21.3 21.3 21.3h375c11.8 0 21.3-9.5 21.3-21.3V78.4c0-11.8-9.5-21.4-21.3-21.4z" fill="#ffd15c"/><path fill="#fff" d="M34.7 90.9h349.9v383.2H34.7z"/><path d="M303 36.6h-56.7c0-20.2-16.4-36.6-36.6-36.6S173 16.4 173 36.6h-56.7c-11.8 0-21.3 9.5-21.3 21.3V108h229.3V57.9c0-11.7-9.6-21.3-21.3-21.3zm-79.8 14.3c-20.2 15-42.8-7.6-27.9-27.9l.6-.6c20.2-14.9 42.8 7.6 27.9 27.9-.1.2-.3.4-.6.6z" fill="#4cdbc4"/><path d="M183.8 249.2H70V135.4h113.8v113.8zm-91.3-22.5h68.7V158H92.5v68.7z" fill="#ff7058"/><path d="M183.8 408.5H70V294.7h113.8v113.8zm-91.3-22.6h68.7v-68.7H92.5v68.7z" fill="#84dbff"/><path fill="#40596b" d="M117.3 214.9l-18.1-18.2 7.8-7.8 10.3 10.4 29.5-29.5 7.8 7.8z"/><path d="M399.3 312.8c-3.7-3.7-3.7-9.7 0-13.4l73.2-73.2-30.6-30.6a9.476 9.476 0 0113.4-13.4l37.3 37.3c3.7 3.7 3.7 9.7 0 13.4l-79.9 79.9c-3.7 3.7-9.7 3.7-13.4 0z" fill="#334a5e"/><path d="M498.1 142.7c-12-12-31.6-12-43.7 0L223.8 373.3l-12.4 56.1 56.1-12.4 230.6-230.6c6-6 9-13.9 9.1-21.8-.1-8-3.1-15.9-9.1-21.9z" fill="#cdd6e0"/><path d="M486.684 197.817l-86.266 86.265-43.698-43.698 86.266-86.265zM267.5 417l-56.1 12.4 12.4-56.1z" fill="#40596b"/></svg>