<svg xmlns="http://www.w3.org/2000/svg" viewBox="0 0 508 508"><path d="M441.6 453.5l-79.3-24-26 78.5-52.5-101.3-13.7-26.5 30.2 25.7 24.6-55.6 58.8 15.3-.7-25.3 12 23.2zm-203.9-73.2l-13.8 26.6L171.6 508l-26-78.5-79.3 24 46.7-90.3 12-23.1-.8 25.5 58.8-15.3 24.7 55.6z" fill="#ff7058"/><path d="M207.7 405.9l30-25.6-13.8 26.6-20.4 17.4-26.9-60.6-64.1 16.7.5-17.2 12-23.1-.8 25.5 58.8-15.3zm187.8-25.5l-64.1-16.7-26.9 60.6-20.7-17.6-13.7-26.5 30.2 25.7 24.6-55.6 58.8 15.3-.7-25.3 12 23.2z" fill="#f1543f"/><g fill="#ffd15c"><path d="M413.5 239.4l48.6-36.5-48.6-36.4 28-53.9-59.6-11.6 1.9-60.8L325 55.6 300.3 0 254 39.4 207.7 0 183 55.6l-58.8-15.4 1.9 60.8-59.6 11.6 28 53.9-48.6 36.4 48.6 36.5-28 53.9 59.6 11.6-1.9 60.8 58.8-15.4 24.7 55.6 46.3-39.4 46.3 39.4 24.7-55.6 58.8 15.4-1.9-60.8 59.6-11.6z"/><path d="M270.1 380.2L254 366.4l-16.3 13.9 16.2-31.4z"/></g><path d="M172.9 164.5c0-13 2.9-22.7 8.6-28.9 5.7-6.3 13.5-9.4 23.2-9.4 10.1 0 18 3.1 23.7 9.4 5.7 6.2 8.6 15.9 8.6 29 0 13-2.9 22.7-8.6 29-5.7 6.3-13.5 9.4-23.2 9.4-10.1 0-18-3.1-23.7-9.4-5.7-6.4-8.6-16-8.6-29.1zm21.7-.2c0 9.5 1.1 15.8 3.3 19 1.7 2.4 3.9 3.6 6.8 3.6 3 0 5.3-1.2 6.9-3.6 2.1-3.2 3.2-9.6 3.2-19s-1.1-15.8-3.2-18.9c-1.7-2.4-4-3.7-6.9-3.7s-5.2 1.2-6.8 3.6c-2.2 3.2-3.3 9.5-3.3 19zm31.3 115.2h-20.6l77.4-153.4h20l-76.8 153.4zm45.1-38.2c0-13 2.9-22.7 8.6-28.9 5.7-6.3 13.5-9.4 23.4-9.4 10 0 17.8 3.1 23.5 9.4 5.7 6.3 8.6 15.9 8.6 28.9 0 13.1-2.9 22.8-8.6 29-5.7 6.3-13.5 9.4-23.2 9.4-10.1 0-18-3.1-23.7-9.4-5.8-6.2-8.6-15.9-8.6-29zm21.7-.1c0 9.5 1.1 15.8 3.3 18.9 1.7 2.4 3.9 3.7 6.8 3.7 3 0 5.3-1.2 6.8-3.6 2.2-3.2 3.3-9.6 3.3-19s-1.1-15.8-3.2-19c-1.7-2.4-4-3.6-6.9-3.6-3 0-5.3 1.2-6.8 3.6-2.2 3.2-3.3 9.6-3.3 19z" fill="#fff"/></svg>