<?xml version="1.0" encoding="utf-8"?>
<!-- Generator: Adobe Illustrator 22.1.0, SVG Export Plug-In . SVG Version: 6.00 Build 0)  -->
<svg version="1.1" id="Layer_1" xmlns="http://www.w3.org/2000/svg" xmlns:xlink="http://www.w3.org/1999/xlink" x="0px" y="0px"
	 viewBox="0 0 512 512" style="enable-background:new 0 0 512 512;" xml:space="preserve" fill="#00477b">
<g>
	<g>
		<path d="M384.0006104,394.666626v-64c0-5.8959961-4.519989-10.6669922-10.4199829-10.6669922h-64.0420227
			c-5.8999939,0-10.6739807,4.7709961-10.6739807,10.6669922v10.6669922h-7.848999
			c-7.4530029,0-14.4680176-3.9689941-18.3040161-10.3649902l-32.2050018-53.6350098h165.0950165v32
			c0,3.875,2.1059875,7.447998,5.5039978,9.3330078c3.3880005,1.875,7.5360107,1.7709961,10.8299866-0.2919922
			l85.3900146-53.3330078c6.2329712-3.8959961,6.2329712-14.1880035,0-18.0830078l-85.3900146-53.3330078
			c-3.2939758-2.0630035-7.4419861-2.1670074-10.8299866-0.2920074c-3.3980103,1.8849945-5.5039978,5.4579926-5.5039978,9.3329926
			v32H175.0426178l23.5580139-42.3649597c3.7520142-6.7709961,10.9029846-10.9689941,18.6480103-10.9689941h22.0979919
			c8.2590027,18.802002,27.016983,32,48.844986,32c29.4259949,0,53.1430054-23.927002,53.1430054-53.3330078
			s-23.71698-53.3330078-53.1430054-53.3330078c-21.8280029,0-40.5849762,13.197998-48.844986,32H217.248642
			c-23.2550049,0-44.7070007,12.6150055-55.973999,32.9169922l-35.0740128,63.0830078h-23.9859924
			c-8.2590027-18.802002-27.0169983-32-48.8450012-32c-29.4260254,0.0000153-53.3690186,23.927002-53.3690186,53.3330078
			s23.9429932,53.3330078,53.368988,53.3330078c21.8280029,0,40.5849915-13.197998,48.8450012-32h88.5010147l45.3890076,75.5830078
			c11.4970093,19.1779785,32.5419769,31.0839844,54.9109955,31.0839844h7.848999v10.6669922
			c0,5.8959961,4.7739868,10.6669922,10.6739807,10.6669922h64.0420227
			C379.4806213,405.3326416,384.0006104,400.5616455,384.0006104,394.666626z"/>
	</g>
</g>
</svg>
