<?xml version="1.0" encoding="utf-8"?>
<!-- Generator: Adobe Illustrator 22.1.0, SVG Export Plug-In . SVG Version: 6.00 Build 0)  -->
<svg version="1.1" id="Layer_1" xmlns="http://www.w3.org/2000/svg" xmlns:xlink="http://www.w3.org/1999/xlink" x="0px" y="0px"
	 viewBox="0 0 512 512" style="enable-background:new 0 0 512 512;" xml:space="preserve" fill="#00477b">
<g>
	<g>
		<path d="M469.3330078,21.3329926H42.6669998C19.1459999,21.3329926,0,40.4689941,0,63.9999924v298.6669922
			c0,23.5310059,19.1459999,42.6669922,42.6669998,42.6669922h149.381012
			c-0.447998,17.0180054-3.697998,44.2399902-15.9020081,57.0939941c-4.4790039,4.7080078-9.6040039,6.9060059-16.1459961,6.9060059
			c-5.8959961,0-10.6669922,4.7709961-10.6669922,10.6669922S154.1040039,490.6679688,160,490.6679688h192
			c5.8959961,0,10.6669922-4.7709961,10.6669922-10.6669922S357.8959961,469.3339844,352,469.3339844
			c-6.5419922,0-11.6669922-2.1879883-16.125-6.8959961c-12.1740112-12.7900085-15.4450073-40.0509949-15.9100037-57.1040039
			h149.368988c23.5209961,0,42.6669922-19.1350098,42.6669922-42.6669922V63.9999924
			C512,40.4689941,492.8540039,21.3329926,469.3330078,21.3329926z M256,384.0620117
			c-11.7919922,0-21.3959961-9.6040039-21.3959961-21.3959961S244.2080078,341.2700195,256,341.2700195
			s21.3959961,9.6040039,21.3959961,21.3959961S267.7919922,384.0620117,256,384.0620117z M42.6669998,320v-256h426.6669922
			l0.0180054,256H42.6669998z"/>
	</g>
</g>
</svg>
