<?xml version="1.0" encoding="utf-8"?>
<!-- Generator: Adobe Illustrator 22.1.0, SVG Export Plug-In . SVG Version: 6.00 Build 0)  -->
<svg version="1.1" id="Capa_1" xmlns="http://www.w3.org/2000/svg" xmlns:xlink="http://www.w3.org/1999/xlink" x="0px" y="0px"
	 viewBox="0 0 512 512" style="enable-background:new 0 0 512 512;" xml:space="preserve">
<style type="text/css">
	.st0{fill:#00487C;}
</style>
<g>
	<g>
		<path class="st0" d="M392.25,332.0010071h-19.5320129c-6.3540039-17.7829895-5.1220093-14.8099976-13.0369873-31.2449951
			l13.881012-13.8900146c5.3670044-5.3699951,5.3670044-14.0750122-0.0020142-19.4440002l-22.9830017-22.9819946
			c-5.368988-5.3690033-14.071991-5.3699951-19.4419861-0.0039978l-13.8900146,13.8829956
			c-16.5-7.9470062-13.6279907-6.7420044-31.2449951-13.0370026V225.75c0-7.5930023-6.1560059-13.7489929-13.75-13.7489929h-32.5
			c-7.5939941,0-13.75,6.1560059-13.75,13.7489929v19.5319977c-17.7830048,6.3540039-14.8099976,5.1199951-31.2449951,13.0370026
			l-13.8899994-13.8829956c-5.3699951-5.3670044-14.072998-5.3650055-19.4420013,0.0039978l-22.9830017,22.9819946
			c-5.3690033,5.368988-5.3690033,14.072998-0.0019989,19.4440002l13.8809967,13.8900146
			c-7.9470062,16.4979858-6.7420044,13.6289978-13.0370026,31.2449951H119.75c-7.5940018,0-13.75,6.1560059-13.75,13.7489929
			v32.4989929C106,385.8439941,112.1559982,392,119.75,392h19.5319977
			c6.2949982,17.6170044,5.0899963,14.7449951,13.0370026,31.2449951l-13.8809967,13.8900146
			c-5.3670044,5.3699951-5.3670044,14.072998,0.0019989,19.4419861l22.9830017,22.9819946
			c5.3690033,5.368988,14.0720062,5.3699951,19.4420013,0.0039978l13.8899994-13.881012
			c16.4360046,7.9159851,13.4620056,6.6820068,31.2449951,13.0369873v19.5299988c0,7.5950012,6.1560059,13.7510071,13.75,13.7510071
			h32.5010071c7.5939941,0,13.75-6.1560059,13.75-13.7510071v-19.5299988
			c17.7829895-6.3559875,14.8099976-5.1210022,31.2449951-13.0369873l13.8900146,13.881012
			c5.3699951,5.3670044,14.072998,5.3649902,19.4419861-0.0039978l22.9830017-22.9819946
			c5.368988-5.368988,5.368988-14.071991,0.0020142-19.4419861l-13.881012-13.8900146
			c7.946991-16.5,6.7420044-13.6289978,13.0369873-31.2449951H392.25c7.5939941,0,13.75-6.1560059,13.75-13.7510071V345.75
			C406,338.1570129,399.8439941,332.0010071,392.25,332.0010071z M256,437c-41.3529968,0-75-33.6470032-75-75s33.6470032-75,75-75
			s75,33.6470032,75,75S297.3529968,437,256,437z"/>
	</g>
</g>
<g>
	<g>
		<path class="st0" d="M256,317c-24.8139954,0-45,20.1860046-45,45s20.1860046,45,45,45s45-20.1860046,45-45
			S280.8139954,317,256,317z"/>
	</g>
</g>
<g>
	<g>
		<path class="st0" d="M0,150v256.7319946C0,431.1369934,19.7900009,451,44.1209984,451h60.8959999
			c-1.2580032-10.605011,1.0749969-21.5410156,7.5459976-30.5859985C91.8499985,416.9719849,76,398.9249878,76,377.2449951
			v-32.4899902c0-21.6799927,15.8499985-39.7269897,36.5630035-43.1690063
			c-12.2170029-17.0950012-10.6490021-41.0599976,4.6729965-56.3820038l22.9690018-22.9689941
			c8.2619934-8.276001,19.2630005-12.8170013,30.9380035-12.8170013c9.2579956,0,18.076004,2.8419952,25.4440002,8.1450043
			C200.0279999,196.8500061,218.0749969,181,239.7550049,181h32.4899902c21.6799927,0,39.7269897,15.8500061,43.1690063,36.5630035
			c7.3829956-5.3029938,16.1870117-8.1450043,25.4440002-8.1450043c11.6749878,0,22.6759949,4.5410004,30.9379883,12.8170013
			l22.9689941,22.9689941c15.321991,15.3220062,16.8899841,39.3019867,4.6730042,56.3820038
			C420.1499939,305.0280151,436,323.0750122,436,344.7550049v32.4899902c0,21.6799927-15.8500061,39.7269897-36.5629883,43.1690063
			c6.4689941,9.053009,8.8039856,19.9840088,7.5480042,30.5859985H467c24.8139954,0,45-20.1860046,45-45V150H0z"/>
	</g>
</g>
<g>
	<g>
		<path class="st0" d="M467,59.9999924H244.5449982c-5.7279968,0-10.8690033-3.1790009-13.4179993-8.2910004l-13.4179993-26.8360004
			c-7.6759949-15.336998-23.1009979-24.8729992-40.2539978-24.8729992H45c-24.8139992,0-45,20.1860008-45,45v75h512v-15
			C512,80.1859894,491.8139954,59.9999924,467,59.9999924z"/>
	</g>
</g>
</svg>
