<?xml version="1.0" encoding="utf-8"?>
<!-- Generator: Adobe Illustrator 22.1.0, SVG Export Plug-In . SVG Version: 6.00 Build 0)  -->
<svg version="1.1" id="Capa_1" xmlns="http://www.w3.org/2000/svg" xmlns:xlink="http://www.w3.org/1999/xlink" x="0px" y="0px"
	 viewBox="0 0 511.9989929 511.9989929" style="enable-background:new 0 0 511.9989929 511.9989929;" xml:space="preserve">
<style type="text/css">
	.st0{fill:#00487C;}
</style>
<g>
	<g>
		<path class="st0" d="M438.0899963,273.3200073H398.493988c4.0360107,11.0499878,6.2409973,22.9750061,6.2409973,35.4039917
			v149.6499939c0,5.1820068-0.9020081,10.1560059-2.5429993,14.7820129h65.4609985
			c24.4530029,0,44.3460083-19.8940125,44.3460083-44.3460083v-81.5809937
			C512,306.4760132,478.8439941,273.3200073,438.0899963,273.3200073z"/>
	</g>
</g>
<g>
	<g>
		<path class="st0" d="M107.2649994,308.7250061c0-12.4299927,2.2050018-24.3540039,6.2409973-35.4039917h-39.595993
			C33.156002,273.3210144,0,306.4770203,0,347.2310181v81.5809937C0,453.2640076,19.8929996,473.15802,44.3460007,473.15802
			h65.461998c-1.6409988-4.6279907-2.5429993-9.6010132-2.5429993-14.7829895V308.7250061z"/>
	</g>
</g>
<g>
	<g>
		<path class="st0" d="M301.2609863,234.8150024h-90.5220032c-40.7539978,0-73.9100037,33.1560059-73.9100037,73.9100037V458.375
			c0,8.1629944,6.6179962,14.7820129,14.7819977,14.7820129h208.7779999c8.1640015,0,14.7820129-6.6180115,14.7820129-14.7820129
			V308.7250061C375.17099,267.9710083,342.0150146,234.8150024,301.2609863,234.8150024z"/>
	</g>
</g>
<g>
	<g>
		<path class="st0" d="M256,38.8399925c-49.0119934,0-88.8860016,39.8740044-88.8860016,88.8870087
			c0,33.2450027,18.348999,62.2800064,45.4470062,77.5240097C225.4140015,212.4810028,240.2320099,216.6130066,256,216.6130066
			s30.5859985-4.1320038,43.4389954-11.3619995c27.098999-15.2440033,45.446991-44.2799988,45.446991-77.5240097
			C344.8859863,78.7149887,305.0119934,38.8399925,256,38.8399925z"/>
	</g>
</g>
<g>
	<g>
		<path class="st0" d="M99.9179993,121.6889954c-36.6549988,0-66.4749985,29.8200073-66.4749985,66.4750061
			s29.8199997,66.4750061,66.4749985,66.4750061c9.2980042,0,18.1520004-1.9259949,26.1949997-5.3880005
			c13.9059982-5.9869995,25.3720016-16.5849915,32.4670029-29.8600006
			c4.9799957-9.3170013,7.8130035-19.9459991,7.8130035-31.227005
			C166.3930054,151.5099945,136.572998,121.6889954,99.9179993,121.6889954z"/>
	</g>
</g>
<g>
	<g>
		<path class="st0" d="M412.0820007,121.6889954c-36.6549988,0-66.4750061,29.8200073-66.4750061,66.4750061
			c0,11.2819977,2.8330078,21.9109955,7.8129883,31.227005c7.0950012,13.276001,18.5610046,23.8740082,32.4670105,29.8600006
			c8.0429993,3.4620056,16.8970032,5.3880005,26.1950073,5.3880005c36.6549988,0,66.4750061-29.8200073,66.4750061-66.4750061
			S448.7369995,121.6889954,412.0820007,121.6889954z"/>
	</g>
</g>
</svg>
