<?xml version="1.0" encoding="utf-8"?>
<!-- Generator: Adobe Illustrator 22.1.0, SVG Export Plug-In . SVG Version: 6.00 Build 0)  -->
<svg version="1.1" id="Layer_1" xmlns="http://www.w3.org/2000/svg" xmlns:xlink="http://www.w3.org/1999/xlink" x="0px" y="0px"
	 viewBox="0 0 512 512" style="enable-background:new 0 0 512 512;" xml:space="preserve">
<style type="text/css">
	.st0{fill:#00487C;}
</style>
<path class="st0" d="M211,271h90v30h-90V271z"/>
<path class="st0" d="M415.3789063,301H331v15c0,8.2890625-6.7109375,15-15,15H196c-8.2890625,0-15-6.7109375-15-15v-15H96.6210938
	c-19.3945313,0-36.546875-12.3632813-42.6875-30.7617188L0,108.4101486V436c0,24.8125,20.1875,45,45,45h422
	c24.8125,0,45-20.1875,45-45v-327.578125l-53.9375,161.8164063C451.9257813,288.6367188,434.7734375,301,415.3789063,301z"/>
<path class="st0" d="M316,30.9999924H196c-24.8125,0-45,20.1875-45,45v15H25.8085938l56.5742188,169.7460938
	C84.4335938,266.8828125,90.1601563,271,96.6210938,271H181v-15c0-8.2890625,6.7109375-15,15-15h120c8.2890625,0,15,6.7109375,15,15
	v15h84.3789063c6.4609375,0,12.1875-4.1171875,14.2382813-10.2539063l56.578125-169.7460938H361v-15
	C361,51.1874924,340.8125,30.9999924,316,30.9999924z M181,90.9999924v-15c0-8.2773438,6.7226563-15,15-15h120
	c8.2773438,0,15,6.7226563,15,15v15H181z"/>
</svg>
