<?xml version="1.0" encoding="utf-8"?>
<!-- Generator: Adobe Illustrator 22.1.0, SVG Export Plug-In . SVG Version: 6.00 Build 0)  -->
<svg version="1.1" id="Layer_1" xmlns="http://www.w3.org/2000/svg" xmlns:xlink="http://www.w3.org/1999/xlink" x="0px" y="0px"
	 viewBox="0 0 469.3330078 469.3330078" style="enable-background:new 0 0 469.3330078 469.3330078;" xml:space="preserve" fill="#00477b">
<g>
	<g>
		<g>
			<path d="M458.6669922,181.3329926c5.8959961,0,10.6669922-4.7709961,10.6669922-10.6670074S464.5629883,160,458.6669922,160h-32
				v-42.6670074h32c5.8959961,0,10.6669922-4.7710037,10.6669922-10.6669998s-4.7709961-10.6660004-10.6669922-10.6660004h-32
				V85.3329926c0-23.5309982-19.1350098-42.6669998-42.6669922-42.6669998h-10.6669922v-32
				c0-5.8950005-4.7700195-10.6660004-10.6660156-10.6660004S352,4.7709932,352,10.6669931v32h-42.6669922v-32
				c0-5.8959999-4.7709961-10.6669998-10.6660156-10.6669998S288,4.7709932,288,10.6669931v32h-42.6669922v-32
				c-0.0000153-5.8959999-4.7710114-10.6669998-10.6660004-10.6669998S224,4.7709932,224,10.6669931v32h-42.6669922v-32
				c-0.0000153-5.8959999-4.7710114-10.6669998-10.6660004-10.6669998S160,4.7709932,160,10.6669931v32h-42.6669998v-32
				c0-5.8959999-4.7710037-10.6669998-10.6660004-10.6669998S96,4.7709932,96,10.6669931v32H85.3330002
				c-23.5309982,0-42.6669998,19.1350021-42.6669998,42.6669998v10.6660004h-32C4.7709999,95.9999924,0,100.7709961,0,106.6669922
				s4.7709999,10.6669998,10.6669998,10.6669998h32V160h-32C4.7709999,160,0,164.7709961,0,170.6670074
				s4.7709999,10.6670074,10.6669998,10.6670074h32V224h-32C4.7709999,224,0,228.7709961,0,234.6670074
				s4.7709999,10.6670074,10.6669998,10.6670074h32V288h-32C4.7709999,288,0,292.7709961,0,298.6669922
				s4.7709999,10.6669922,10.6669998,10.6669922h32V352h-32C4.7709999,352,0,356.7709961,0,362.6669922
				s4.7709999,10.6669922,10.6669998,10.6669922h32V384c0,23.5310059,19.1350021,42.6669922,42.6669998,42.6669922H96v32
				c0,5.8959961,4.7709961,10.6669922,10.6669998,10.6669922s10.6669998-4.7709961,10.6669998-10.6669922v-32H160v32
				c0,5.8959961,4.7709961,10.6669922,10.6669922,10.6669922s10.6669922-4.7709961,10.6669922-10.6669922v-32H224v32
				c0,5.8959961,4.7709961,10.6669922,10.6669922,10.6669922s10.6669922-4.7709961,10.6669922-10.6669922v-32H288v32
				c0,5.8959961,4.7709961,10.6669922,10.6669922,10.6669922s10.6669922-4.7709961,10.6669922-10.6669922v-32H352v32
				c0,5.8959961,4.7709961,10.6669922,10.6669922,10.6669922s10.6669922-4.7709961,10.6669922-10.6669922v-32H384
				c23.5310059,0,42.6669922-19.1350098,42.6669922-42.6669922v-10.6669922h32
				c5.8959961,0,10.6669922-4.7709961,10.6669922-10.6669922s-4.7709961-10.6669922-10.6669922-10.6669922h-32v-42.6669922h32
				c5.8959961,0,10.6669922-4.7709961,10.6669922-10.6669922S464.5629883,288,458.6669922,288h-32v-42.6669922h32
				c5.8959961,0,10.6669922-4.7709961,10.6669922-10.6669922S464.5629883,224,458.6669922,224h-32v-42.6669922h32V181.3329926z
				 M384,373.3330078C384,379.2290039,379.2290039,384,373.3330078,384H96c-5.8959961,0-10.6669998-4.7709961-10.6669998-10.6669922
				V95.9999924c0-5.8959961,4.7710037-10.6669998,10.6669998-10.6669998h277.3330078
				C379.2290039,85.3329926,384,90.1039886,384,95.9999924V373.3330078z"/>
			<rect x="106.6669998" y="106.6669922" width="255.9999847" height="256"/>
		</g>
	</g>
</g>
</svg>
