<?xml version="1.0" encoding="utf-8"?>
<!-- Generator: Adobe Illustrator 22.1.0, SVG Export Plug-In . SVG Version: 6.00 Build 0)  -->
<svg version="1.1" id="Layer_1" xmlns="http://www.w3.org/2000/svg" xmlns:xlink="http://www.w3.org/1999/xlink" x="0px" y="0px"
	 viewBox="0 0 490 490" style="enable-background:new 0 0 490 490;" xml:space="preserve">
<style type="text/css">
	.st0{fill:#0496FF;}
	.st1{fill:#00487C;}
</style>
<path class="st0" d="M350,420l-70,60v-60V282c10.8,28.1,38.1,48,70,48s59.2-19.9,70-48v138v60L350,420z"/>
<path class="st0" d="M420,282c-10.8,28.1-38.1,48-70,48s-59.2-19.9-70-48c-3.2-8.4-5-17.5-5-27c0-41.4,33.6-75,75-75s75,33.6,75,75
	C425,264.5,423.2,273.6,420,282z"/>
<g>
	<path class="st1" d="M480,0H10C4.5,0,0,4.5,0,10v410c0,5.5,4.5,10,10,10h260v50c0,3.9,2.3,7.5,5.8,9.1c3.5,1.6,7.7,1,10.7-1.5
		l63.5-54.4l63.5,54.4c1.8,1.6,4.2,2.4,6.5,2.4c1.4,0,2.8-0.3,4.2-0.9c3.5-1.6,5.8-5.2,5.8-9.1v-50h50c5.5,0,10-4.5,10-10V10
		C490,4.5,485.5,0,480,0z M289.3,278.4c-2.9-7.4-4.3-15.3-4.3-23.4c0-35.8,29.2-65,65-65s65,29.2,65,65c0,8.1-1.5,15.9-4.3,23.4
		c-0.2,0.5-0.4,1.1-0.7,1.6h0v0c-10,24-33.9,40-60,40c-26.1,0-50-16-60-40v0h0C289.8,279.5,289.5,278.9,289.3,278.4z M360,415.4V360
		h-20v55.4l-50,42.9v-143c3.5,3.5,7.3,6.7,11.4,9.5c14.3,10,31.1,15.3,48.6,15.3s34.3-5.3,48.6-15.3c4.1-2.9,7.9-6,11.4-9.5v143
		L360,415.4z M470,410h-40V283.7c3.3-9.2,5-18.8,5-28.7c0-46.9-38.1-85-85-85s-85,38.1-85,85c0,9.9,1.7,19.5,5,28.7V410H20V20h450
		V410z"/>
	<rect x="45" y="210" class="st1" width="190" height="20"/>
	<rect x="45" y="160" class="st1" width="40" height="20"/>
	<rect x="155" y="60" class="st1" width="180" height="20"/>
	<rect x="205" y="100" class="st1" width="80" height="20"/>
	<rect x="45" y="260" class="st1" width="190" height="20"/>
	<rect x="45" y="310" class="st1" width="190" height="20"/>
	<rect x="45" y="360" class="st1" width="130" height="20"/>
</g>
</svg>
