<?xml version="1.0" encoding="utf-8"?>
<!-- Generator: Adobe Illustrator 22.1.0, SVG Export Plug-In . SVG Version: 6.00 Build 0)  -->
<svg version="1.1" id="Layer_1" xmlns="http://www.w3.org/2000/svg" xmlns:xlink="http://www.w3.org/1999/xlink" x="0px" y="0px"
	 viewBox="0 0 490 490" style="enable-background:new 0 0 490 490;" xml:space="preserve">
<style type="text/css">
	.st0{fill:#0496FF;}
	.st1{fill:#FFFFFF;}
	.st2{fill:#00487C;}
</style>
<polygon class="st0" points="425,10 425,440 375,440 375,60 110,60 110,10 "/>
<polygon class="st1" points="375,440 375,480 65,480 65,60 110,60 375,60 "/>
<path class="st2" d="M425,0H110c-5.5,0-10,4.5-10,10v40H65c-5.5,0-10,4.5-10,10v420c0,5.5,4.5,10,10,10h310c5.5,0,10-4.5,10-10v-30
	h40c5.5,0,10-4.5,10-10V10C435,4.5,430.5,0,425,0z M365,470H75V70h50v190c0,7.3,5.3,15,15,15h75c0.4,0,0.8,0,1.2-0.1
	c6.8-0.9,13.8-6.3,13.8-14.9V105c0-0.2,0-0.4,0-0.6c-0.4-7-5.8-14.4-15-14.4c0,0-40.8,0-41.2,0.1c-6.8,0.9-13.8,6.3-13.8,14.9v135
	h20V110h30v145h-65V70h220V470z M415,430h-30V60c0-5.5-4.5-10-10-10H120V20h295V430z"/>
<g>
	<rect x="270" y="125" class="st2" width="70" height="20"/>
</g>
<g>
	<rect x="250" y="165" class="st2" width="90" height="20"/>
</g>
<g>
	<rect x="250" y="205" class="st2" width="90" height="20"/>
</g>
<g>
	<rect x="250" y="245" class="st2" width="90" height="20"/>
</g>
<g>
	<rect x="100" y="295" class="st2" width="240" height="20"/>
</g>
<g>
	<rect x="100" y="335" class="st2" width="240" height="20"/>
</g>
<g>
	<rect x="100" y="375" class="st2" width="240" height="20"/>
</g>
<g>
	<rect x="100" y="415" class="st2" width="200" height="20"/>
</g>
<g>
	<rect x="320" y="415" class="st2" width="20" height="20"/>
</g>
</svg>
