<?xml version="1.0" encoding="utf-8"?>
<!-- Generator: Adobe Illustrator 22.1.0, SVG Export Plug-In . SVG Version: 6.00 Build 0)  -->
<svg version="1.1" id="Capa_1" xmlns="http://www.w3.org/2000/svg" xmlns:xlink="http://www.w3.org/1999/xlink" x="0px" y="0px"
	 viewBox="0 0 512 512" style="enable-background:new 0 0 512 512;" xml:space="preserve">
<style type="text/css">
	.st0{fill:#00487C;}
</style>
<g>
	<g>
		<path class="st0" d="M15,119.9999924c-8.2840004,0-15-6.7160034-15-15v-90c0-8.2840004,6.7160001-15,15-15h90
			c8.2839966,0,15,6.7160001,15,15s-6.7160034,14.999999-15,14.999999H30v75C30,113.283989,23.2840004,119.9999924,15,119.9999924z"
			/>
	</g>
	<g>
		<path class="st0" d="M497,119.9999924c-8.2839966,0-15-6.7160034-15-15v-75h-75c-8.2839966,0-15-6.7159996-15-14.999999
			s6.7160034-15,15-15h90c8.2839966,0,15,6.7160001,15,15v90C512,113.283989,505.2839966,119.9999924,497,119.9999924z"/>
	</g>
	<g>
		<path class="st0" d="M105,512H15c-8.2840004,0-15-6.7160034-15-15v-90c0-8.2839966,6.7160001-15,15-15s15,6.7160034,15,15v75h75
			c8.2839966,0,15,6.7160034,15,15S113.2839966,512,105,512z"/>
	</g>
	<g>
		<path class="st0" d="M497,512h-90c-8.2839966,0-15-6.7160034-15-15s6.7160034-15,15-15h75v-75c0-8.2839966,6.7160034-15,15-15
			s15,6.7160034,15,15v90C512,505.2839966,505.2839966,512,497,512z"/>
	</g>
</g>
<g>
	<path class="st0" d="M228.6328125,95.4630051v25.7783203h-51.9692383l-2.887207,20.6230545
		c3.8476563-0.2739258,6.7348633-0.4125977,8.6616211-0.4125977c14.7099609,0,26.4648438,3.2319336,35.2651367,9.6928711
		c10.8588867,7.2885742,16.2915039,18.4926758,16.2915039,33.6152344c0,13.0625-5.2265625,24.1640625-15.6728516,33.3056641
		c-10.4501953,9.1445313-24.4057617,13.7138672-41.8642578,13.7138672c-15.2607422,0-27.7055664-2.5419922-37.3271484-7.6308594
		l5.7744141-23.5097656c8.796875,4.4023438,18.8339844,6.5996094,30.1088867,6.5996094
		c7.2856445,0,13.5756836-1.7529297,18.8701172-5.2587891c5.2910156-3.5058594,7.9394531-8.5585938,7.9394531-15.1582031
		c0-14.8481445-12.5795898-22.2719727-37.7392578-22.2719727c-6.5996094,0-12.5800781,0.4121094-17.9418945,1.2373047
		l8.6616211-70.3237381H228.6328125z"/>
	<path class="st0" d="M338.7568359,229.5108643h-29.6962891v-31.9648438h-59.394043v-20.4169922l50.5258789-81.6660233h38.5644531
		v78.5732498h15.8798828v23.5097656h-15.8798828V229.5108643z M278.7441406,174.0362549h30.3164063v-29.6972656
		c0-5.0849609,0.2734375-13.4047852,0.8242188-24.9536209h-0.6191406
		c-7.4238281,14.7133865-11.6191406,23.0297928-12.5791016,24.9536209l-17.7353516,29.2841797L278.7441406,174.0362549z"/>
	<path class="st0" d="M173.1586914,262.3546143h29.2841797v12.1669922
		c7.8364258,0.5507813,15.1577148,2.1337891,21.9628906,4.7431641c6.8056641,2.6132813,13.0957031,6.3251953,18.8701172,11.1367188
		c5.7744141,4.8134766,10.3110352,11.2392578,13.6108398,19.2822266s4.9492188,17.2910156,4.9492188,27.7373047
		c0,10.3115234-1.6494141,19.4560547-4.9492188,27.4287109c-3.2998047,7.9746094-7.8041992,14.4033203-13.5078125,19.2822266
		c-5.706543,4.8818359-11.996582,8.6289063-18.8696289,11.2392578c-6.8764648,2.6132813-14.3686523,4.3300781-22.4790039,5.1552734
		v12.5800781h-29.2841797v-12.5800781c-7.8369141-0.5478516-15.1577148-2.1298828-21.9633789-4.7431641
		c-6.8051758-2.6103516-13.0629883-6.2900391-18.7666016-11.0332031
		c-5.706543-4.7431641-10.2080078-11.0654297-13.5078125-18.9726563c-3.2998047-7.9042969-4.949707-17.0136719-4.949707-27.3251953
		c0-10.5849609,1.8208008-19.96875,5.465332-28.1503906c3.6411133-8.1777344,8.4550781-14.7089844,14.4355469-19.5908203
		c5.980957-4.8789063,12.3032227-8.6621094,18.9731445-11.3427734c6.6669922-2.6806641,13.5756836-4.2958984,20.7260742-4.8466797
		V262.3546143z M172.9521484,378.6661377v-82.4902344c-7.4243164,0.9628906-13.9204102,4.8134766-19.4882813,11.5488281
		c-5.5683594,6.7373047-8.3525391,16.7753906-8.3525391,30.1083984c0,12.5126953,2.8520508,22.2412109,8.5585938,29.1816406
		C159.3735352,373.9591064,165.8017578,377.8419189,172.9521484,378.6661377z M202.2363281,296.1759033v82.4902344
		c7.4243164-0.8242188,13.9526367-4.5683594,19.5917969-11.2392578c5.6357422-6.6669922,8.4550781-16.6689453,8.4550781-30.0058594
		c0-13.3339844-2.7514648-23.3037109-8.2490234-29.9033203
		C216.5336914,300.9190674,209.9345703,297.1387939,202.2363281,296.1759033z"/>
	<path class="st0" d="M276.8876953,400.3204346l6.3935547-23.7158203c9.8984375,5.5,20.2773438,8.2490234,31.140625,8.2490234
		c7.8359375,0,13.8847656-1.6503906,18.1474609-4.9501953c4.2597656-3.2988281,6.3935547-7.5585938,6.3935547-12.7851563
		c0-6.3222656-2.6132813-11.1367188-7.8378906-14.4365234c-5.2265625-3.2998047-11.5478516-4.9492188-18.9726563-4.9492188
		h-12.7851563v-22.4785156h12.1669922c6.1865234,0,11.6845703-1.2695313,16.4980469-3.8154297
		C332.84375,318.8956299,335.25,315.0128174,335.25,309.7862549c0-4.2597656-1.6855469-7.6621094-5.0527344-10.2080078
		c-3.3701172-2.5419922-8.2841797-3.8154297-14.7441406-3.8154297c-9.8994141,0-19.1796875,2.6816406-27.8417969,8.0429688
		l-6.3925781-22.6845703c4.3984375-2.7490234,10.34375-5.1201172,17.8378906-7.1152344
		c7.4921875-1.9912109,15.3652344-2.9902344,23.6132813-2.9902344c13.7460938,0,24.5742188,3.1640625,32.4814453,9.4863281
		c7.9042969,6.3261719,11.8583984,14.3007813,11.8583984,23.9228516c0,15.2607422-8.1816406,25.6425781-24.5410156,31.1396484
		v0.4130859c8.3837891,1.5146484,15.328125,5.2265625,20.828125,11.1357422c5.4980469,5.9130859,8.25,13.1308594,8.25,21.6542969
		c0,11.9609375-4.9501953,21.7568359-14.8496094,29.3876953c-9.8984375,7.6298828-23.2353516,11.4453125-40.0078125,11.4453125
		C300.3271484,409.600708,287.0605469,406.506958,276.8876953,400.3204346z"/>
</g>
</svg>
