<?xml version="1.0" encoding="utf-8"?>
<!-- Generator: Adobe Illustrator 22.1.0, SVG Export Plug-In . SVG Version: 6.00 Build 0)  -->
<svg version="1.1" id="Capa_1" xmlns="http://www.w3.org/2000/svg" xmlns:xlink="http://www.w3.org/1999/xlink" x="0px" y="0px"
	 viewBox="0 0 512 512" style="enable-background:new 0 0 512 512;" xml:space="preserve">
<style type="text/css">
	.st0{fill:#00487C;}
</style>
<path class="st0" d="M91,421h90v-90H91V421z M136,361c8.2839966,0,15,6.7160034,15,15s-6.7160034,15-15,15s-15-6.7160034-15-15
	S127.7160034,361,136,361z"/>
<path class="st0" d="M91,181h90V90.9999924H91V181z M136,120.9999924c8.2839966,0,15,6.7160034,15,15.0000076s-6.7160034,15-15,15
	s-15-6.7160034-15-15S127.7160034,120.9999924,136,120.9999924z"/>
<path class="st0" d="M331,181h90V90.9999924h-90V181z M376,120.9999924c8.2839966,0,15,6.7160034,15,15.0000076s-6.7160034,15-15,15
	s-15-6.7160034-15-15S367.7160034,120.9999924,376,120.9999924z"/>
<path class="st0" d="M0,14.9999933v482c0,8.2839966,6.7160001,15,15,15h482c8.2839966,0,15-6.7160034,15-15v-482
	c0-8.2840004-6.7160034-15-15-15H15C6.7159996-0.0000067,0,6.7159934,0,14.9999933z M241,75.9999924c0-8.2839966,6.7160034-15,15-15
	s15,6.7160034,15,15V196c0,8.2839966-6.7160034,15-15,15s-15-6.7160034-15-15V75.9999924z M211,436c0,8.2839966-6.7160034,15-15,15
	H76c-8.2839966,0-15-6.7160034-15-15V316c0-8.2839966,6.7160034-15,15-15h120c8.2839966,0,15,6.7160034,15,15V436z M61,256
	c0-8.2839966,6.7160034-15,15-15h30c8.2839966,0,15,6.7160034,15,15s-6.7160034,15-15,15H76C67.7160034,271,61,264.2839966,61,256z
	 M196,271h-30c-8.2839966,0-15-6.7160034-15-15s6.7160034-15,15-15h30c8.2839966,0,15,6.7160034,15,15S204.2839966,271,196,271z
	 M211,196c0,8.2839966-6.7160034,15-15,15H76c-8.2839966,0-15-6.7160034-15-15V75.9999924c0-8.2839966,6.7160034-15,15-15h120
	c8.2839966,0,15,6.7160034,15,15V196z M271,436c0,8.2839966-6.7160034,15-15,15s-15-6.7160034-15-15V256
	c0-8.2839966,6.7160034-15,15-15h90c8.2839966,0,15,6.7160034,15,15s-6.7160034,15-15,15h-75V436z M376,301
	c8.2839966,0,15,6.7160034,15,15v60c0,8.2839966-6.7160034,15-15,15s-15-6.7160034-15-15v-60
	C361,307.7160034,367.7160034,301,376,301z M331,316v60c0,8.2839966-6.7160034,15-15,15s-15-6.7160034-15-15v-60
	c0-8.2839966,6.7160034-15,15-15S331,307.7160034,331,316z M451,436c0,8.2839966-6.7160034,15-15,15H316
	c-8.2839966,0-15-6.7160034-15-15s6.7160034-15,15-15h105V316c0-8.2839966,6.7160034-15,15-15s15,6.7160034,15,15V436z M436,271h-30
	c-8.2839966,0-15-6.7160034-15-15s6.7160034-15,15-15h30c8.2839966,0,15,6.7160034,15,15S444.2839966,271,436,271z M451,196
	c0,8.2839966-6.7160034,15-15,15H316c-8.2839966,0-15-6.7160034-15-15V75.9999924c0-8.2839966,6.7160034-15,15-15h120
	c8.2839966,0,15,6.7160034,15,15V196z"/>
</svg>
