<?xml version="1.0" encoding="utf-8"?>
<!-- Generator: Adobe Illustrator 22.1.0, SVG Export Plug-In . SVG Version: 6.00 Build 0)  -->
<svg version="1.1" id="Capa_1" xmlns="http://www.w3.org/2000/svg" xmlns:xlink="http://www.w3.org/1999/xlink" x="0px" y="0px"
	 viewBox="0 0 512 512" style="enable-background:new 0 0 512 512;" xml:space="preserve">
<style type="text/css">
	.st0{fill:#00487C;}
</style>
<g>
	<g>
		<path class="st0" d="M75-0.0000067H15c-8.2910004,0-15,6.7090001-15,15v61c0,8.2910004,6.7090001,16,15,16s15-7.7089996,15-16v-46
			h45c8.2910004,0,15-6.7089996,15-14.999999S83.2910004-0.0000067,75-0.0000067z"/>
	</g>
</g>
<g>
	<g>
		<path class="st0" d="M497-0.0000067h-60c-8.2910156,0-15,6.7090001-15,15s6.7090149,14.999999,15,14.999999h45v46
			c0,8.2910004,6.7090149,16,15,16c8.2910156,0,15-7.7089996,15-16v-61C512,6.7089934,505.2909851-0.0000067,497-0.0000067z"/>
	</g>
</g>
<g>
	<g>
		<path class="st0" d="M75,482H30v-45c0-8.2910156-6.7089996-15-15-15s-15,6.7090149-15,15v60c0,8.2910156,6.7090001,15,15,15h60
			c8.2910004,0,15-6.7090149,15-15S83.2910004,482,75,482z"/>
	</g>
</g>
<g>
	<g>
		<path class="st0" d="M497,422c-8.2910156,0-15,6.7090149-15,15v45h-45c-8.2910156,0-15,6.7090149-15,15
			c0,8.2910156,6.7090149,15,15,15h60c8.2910156,0,15-6.7090149,15-15v-60C512,428.7090149,505.2909851,422,497,422z"/>
	</g>
</g>
<g>
	<g>
		<path class="st0" d="M32.0950012,149.397995v224.2949982L188.5,278.723999
			c7.1340027-4.1459961,16.3179932-1.7139893,20.4929962,5.4930115c4.1459961,7.178009,1.6849976,16.3470154-5.4929962,20.4930115
			L51.5149994,396.9790039L241,505.8089905V265.730011L32.0950012,149.397995z"/>
	</g>
</g>
<g>
	<g>
		<path class="st0" d="M324.5,278.723999l155.4049988,94.9689941V149.397995L271,265.730011v240.07901l189.4849854-108.8309937
			L309.5,304.7099915c-7.178009-4.1459961-9.6390076-13.3150024-5.4930115-20.4930115
			C308.1669922,277.0390015,317.3080139,274.5780029,324.5,278.723999z"/>
	</g>
</g>
<g>
	<g>
		<path class="st0" d="M263.5,2.0069933c-4.6289978-2.6659999-10.3710022-2.6659999-15,0L43.8320007,121.5899887L256,239.7590027
			l212.1679993-118.169014L263.5,2.0069933z"/>
	</g>
</g>
</svg>
