<?xml version="1.0" encoding="utf-8"?>
<!-- Generator: Adobe Illustrator 22.1.0, SVG Export Plug-In . SVG Version: 6.00 Build 0)  -->
<svg version="1.1" id="Capa_1" xmlns="http://www.w3.org/2000/svg" xmlns:xlink="http://www.w3.org/1999/xlink" x="0px" y="0px"
	 viewBox="0 0 511.9979858 511.9979858" style="enable-background:new 0 0 511.9979858 511.9979858;" xml:space="preserve">
<style type="text/css">
	.st0{fill:#00487C;}
</style>
<path class="st0" d="M421,120.0048218v-30h0.0009766V15.0057983c0-6.0639648-3.6480103-11.5429688-9.2579956-13.8569946
	c-4.1915283-1.7479248-8.928833-1.4613037-12.8629761,0.6613159c-0.0525513,0.0281372-0.1027832,0.0604858-0.1550293,0.0892944
	c-0.2546387,0.1413574-0.5079956,0.2853394-0.7553711,0.4422607c-0.1951294,0.1230469-0.3831787,0.2572632-0.5726318,0.3893433
	c-0.1005859,0.0705566-0.2041016,0.1353149-0.3032837,0.2085571c-0.6061401,0.4453735-1.1815186,0.9356079-1.7166748,1.4724121
	l-19.3760376,19.3759766L356.736145,4.5291138l-0.1281738-0.1282349c-0.0001831-0.0001831-0.0004272-0.0003662-0.0006104-0.0005493
	l-0.0063477-0.0063477c-5.8590088-5.8590088-15.3519897-5.8590088-21.2109985,0l-19.3948975,19.3949585l-1.1751709-1.1751709
	L296.6019897,4.3939819c-5.8590088-5.8590088-15.3519897-5.8590088-21.2109985,0l-19.3950195,19.3950195L236.6019897,4.3939819
	c-5.8589478-5.8590088-15.3519897-5.8590088-21.2109985,0l-19.3949585,19.3950195L176.6030273,4.3939819
	c-5.8590088-5.8590088-15.3520508-5.8590088-21.2109985,0l-19.3950195,19.3950195l-19.375-19.3770142
	c-0.2719116-0.2727051-0.5550537-0.5323486-0.8461304-0.7817993c-0.026123-0.022583-0.0541382-0.0421143-0.0804443-0.0645142
	c-0.2416992-0.2042236-0.4868774-0.4039307-0.7404785-0.5917969c-4.1948853-3.1333618-9.7800293-3.8721924-14.6989746-1.8250122
	c-5.2949219,2.1836548-8.8371582,7.1865234-9.2198486,12.8390503c-0.0230103,0.3354492-0.038147,0.6723022-0.038147,1.0110474
	v0.006897v74.9989624v30v271.9891357v30v74.9990234v0.0068359c0,0.3357544,0.0151978,0.6696167,0.0377808,1.0021362
	c0.3795166,5.6561279,3.9224854,10.663208,9.2202148,12.8480225c4.9189453,2.0471802,10.5040894,1.3083496,14.6989746-1.8250122
	c0.2536011-0.1878662,0.4987793-0.3875732,0.7404785-0.5917969c0.0263062-0.0223999,0.0543213-0.0419312,0.0804443-0.0645142
	c0.2910767-0.2494507,0.5742188-0.5090942,0.8461304-0.7817993l19.375-19.3770142l19.3950195,19.3950195
	c5.8589478,5.8589478,15.3519897,5.8589478,21.2109985,0l19.3930054-19.3950195l19.3949585,19.3950195
	c5.8590088,5.8589478,15.3520508,5.8589478,21.2109985,0l19.3939819-19.3950195l19.3950195,19.3950195
	c5.8590088,5.8589478,15.3519897,5.8589478,21.2109985,0l18.7870483-18.7889404l0.6060181-0.6060181l19.3949585,19.3949585
	c5.8590088,5.8589478,15.3519897,5.8589478,21.2109985,0l0.0063477-0.0063477
	c0.0001831-0.0001831,0.0004272-0.0003662,0.0006104-0.0005493l0.1291504-0.1291504l19.263855-19.2579956l19.3760376,19.3760376
	c0.5351563,0.5368042,1.1105347,1.0270386,1.7166748,1.4724121c0.0983276,0.0726318,0.2011108,0.1369019,0.3009033,0.2069092
	c0.1904297,0.1328735,0.3793945,0.2677002,0.5755615,0.3913574c0.246521,0.1563721,0.4990845,0.2998657,0.7529297,0.4407959
	c0.0529175,0.0291748,0.1037598,0.0618896,0.1569824,0.0904541c3.934082,2.1226196,8.6714478,2.4091797,12.862915,0.6611938
	c5.6099854-2.3139648,9.2579956-7.7929688,9.2579956-13.8569946v-74.9989624H421v-30.000061V120.0048218z M165.5004883,228.1524658
	c8.5239258,4.2651367,18.25,6.3945313,29.175293,6.3945313c7.0595703,0,13.1542969-1.6987305,18.2841797-5.0957031
	c5.1269531-3.3974609,7.6938477-8.2929688,7.6938477-14.6875c0-14.3881836-12.1899414-21.5820313-36.5693359-21.5820313
	c-6.3945313,0-12.1894531,0.3999023-17.3852539,1.1992188l8.3930664-68.1425781h71.5395508v24.9790039h-50.3574219
	l-2.7978516,19.9829102c3.7280273-0.2651367,6.5258789-0.3994141,8.3930664-0.3994141
	c14.253418,0,25.6435547,3.1318359,34.1708984,9.3920898c10.5224609,7.0625,15.7866211,17.9189453,15.7866211,32.5722656
	c0,12.6582031-5.0644531,23.4145508-15.1870117,32.2724609c-10.1259766,8.8613281-23.6489258,13.2895508-40.565918,13.2895508
	c-14.7871094,0-26.8457031-2.4643555-36.1689453-7.3945313L165.5004883,228.1524658z M241.6689453,379.3897705
	l-1.8261719-38.3457031c-0.1113281-2.4326172-0.3320313-6.9433594-0.6640625-13.5283203
	c-0.3320313-6.5830078-0.5546875-11.6455078-0.6640625-15.1884766h-0.4975586
	c-1.328125,4.3154297-4.315918,13.0048828-8.9638672,26.0615234l-15.4379883,40.5029297h-10.4580078l-14.2753906-39.8388672
	c-2.7675781-7.8564453-5.4780273-16.7089844-8.1342773-26.5595703h-0.6635742
	c-0.5551758,14.6074219-0.9418945,24.2353516-1.1621094,28.8828125l-2.1582031,38.0136719h-13.4458008l6.1420898-80.3427734
	h17.9277344l14.4418945,40.5039063c3.0966797,8.5224609,5.5322266,15.8808594,7.3037109,22.0771484h0.3320313
	c2.2124023-7.1923828,5.4208984-16.3769531,9.6279297-27.5556641L231.875,299.0469971h18.09375l5.644043,80.3427734H241.6689453z
	 M347.7392578,379.3897705l-1.8251953-38.3457031c-0.1123047-2.4326172-0.3320313-6.9433594-0.6640625-13.5283203
	c-0.3320313-6.5830078-0.5556641-11.6455078-0.6640625-15.1884766h-0.4980469
	c-1.328125,4.3154297-4.3164063,13.0048828-8.9638672,26.0615234l-15.4375,40.5029297h-10.4580078l-14.2763672-39.8388672
	c-2.7675781-7.8564453-5.4775391-16.7089844-8.1337891-26.5595703h-0.6640625
	c-0.5546875,14.6074219-0.9414063,24.2353516-1.1621094,28.8828125l-2.1572266,38.0136719h-13.4462891l6.1425781-80.3427734
	h17.9267578l14.4423828,40.5039063c3.0966797,8.5224609,5.5322266,15.8808594,7.3037109,22.0771484h0.3320313
	c2.2128906-7.1923828,5.4208984-16.3769531,9.6279297-27.5556641l12.78125-35.0253906h18.09375l5.6445313,80.3427734H347.7392578z
	 M363.9306641,145.22229l-53.5546875,110.90625h-32.171875l53.5537109-104.5112305v-0.3999023h-59.5488281v-24.9790039h91.7216797
	V145.22229z"/>
</svg>
