<?xml version="1.0" encoding="utf-8"?>
<!-- Generator: Adobe Illustrator 22.1.0, SVG Export Plug-In . SVG Version: 6.00 Build 0)  -->
<svg version="1.1" id="Capa_1" xmlns="http://www.w3.org/2000/svg" xmlns:xlink="http://www.w3.org/1999/xlink" x="0px" y="0px"
	 viewBox="0 0 511.9989929 511.9989929" style="enable-background:new 0 0 511.9989929 511.9989929;" xml:space="preserve">
<style type="text/css">
	.st0{fill:#00487C;}
</style>
<g>
	<g>
		<path class="st0" d="M57.0149994,175.0999908H26.1119995C11.7150002,175.0999908,0,186.8130035,0,201.2119904v283.5750122
			c0,14.3980103,11.7150002,26.1119995,26.1119995,26.1119995h30.9020004c14.3980026,0,26.1110001-11.7139893,26.1110001-26.1119995
			V201.2119904C83.1259995,186.8130035,71.413002,175.0999908,57.0149994,175.0999908z"/>
	</g>
</g>
<g>
	<g>
		<path class="st0" d="M162.7940063,175.0999908h-30.9020081c-14.3980026,0-26.1119995,11.7140045-26.1119995,26.1119995V368.098999
			c0,14.3980103,11.7149963,26.1119995,26.1119995,26.1119995h30.9020081
			c14.397995-0.0010071,26.1109924-11.7149963,26.1109924-26.1130066V201.2119904
			C188.9049988,186.8139954,177.1909943,175.0999908,162.7940063,175.0999908z"/>
	</g>
</g>
<g>
	<g>
		<path class="st0" d="M268.571991,175.0999908H237.67099c-14.397995,0-26.1119995,11.7140045-26.1119995,26.1119995V368.098999
			c-0.0010071,14.3980103,11.7140045,26.1109924,26.1119995,26.1109924h30.901001
			c14.3980103,0,26.1119995-11.7139893,26.1119995-26.1119995V201.2119904
			C294.6839905,186.8139954,282.9689941,175.0999908,268.571991,175.0999908z"/>
	</g>
</g>
<g>
	<g>
		<path class="st0" d="M376.9890137,175.0999908h-30.9020081c-14.3980103,0-26.1119995,11.7140045-26.1119995,26.1119995V368.098999
			c0,14.3980103,11.7149963,26.1119995,26.1119995,26.1119995h30.9020081c14.3980103,0,26.1109924-11.7139893,26.1109924-26.1119995
			V201.2119904C403.1000061,186.8130035,391.3869934,175.0999908,376.9890137,175.0999908z"/>
	</g>
</g>
<g>
	<g>
		<path class="st0" d="M485.8880005,175.0999908h-30.9020081c-14.3980103,0-26.1109924,11.7140045-26.1109924,26.1119995
			v283.5750122c0,14.3980103,11.7139893,26.1119995,26.1109924,26.1119995h30.9020081
			c14.3980103,0,26.1109924-11.7139893,26.1109924-26.1119995V201.2119904
			C512,186.8130035,500.2860107,175.0999908,485.8880005,175.0999908z"/>
	</g>
</g>
<g>
	<path class="st0" d="M146.3813477,452.7403564v17.9814453H125.730957v21.3525391h23.1791992v18.8242188H103.956543v-94.6826172
		h43.4082031v18.8242188H125.730957v17.7001953H146.3813477z"/>
	<path class="st0" d="M161.8320313,416.2159424h46.4985352v18.8242188h-24.7241211v75.8583984h-21.7744141V416.2159424z"/>
	<path class="st0" d="M244.0126953,492.2149658h-15.3120117l-3.230957,18.6835938h-21.0722656l20.0888672-94.6826172h26.4101563
		l17.2792969,94.6826172h-21.0722656L244.0126953,492.2149658z M230.8076172,475.4981689h11.5195313l-2.3881836-17.9814453
		l-1.1240234-8.9912109c-0.7504883-5.9921875-1.3125-10.1601563-1.6855469-12.5019531h-0.28125
		c-0.375,2.0605469-0.9370117,5.7587891-1.6855469,11.0976563c-0.7504883,5.3378906-1.2641602,8.8037109-1.5454102,10.3955078
		L230.8076172,475.4981689z"/>
	<path class="st0" d="M277.8662109,416.2159424h19.1054688v15.3115234c0,11.1464844-0.65625,25.7080078-1.9667969,43.6894531
		h0.28125c0.9355469-3.0908203,4.0253906-11.6601563,9.2714844-25.7080078l12.6435547-33.2929688h19.5263672v94.6826172h-18.9648438
		v-16.2958984c0-11.5185547,0.421875-25.4267578,1.2646484-41.7216797h-0.28125
		c-1.4990234,6.1806641-4.4033203,14.890625-8.7099609,26.1289063l-12.2216797,31.8886719h-19.9482422V416.2159424z"/>
	<path class="st0" d="M398.1162109,491.3721924l1.8271484,18.2617188
		c-3.1855469,1.4052734-8.0078125,2.1074219-14.4697266,2.1074219c-8.5234375,0-15.6875-2.2236328-21.4931641-6.6728516
		c-5.8085938-4.4472656-9.9277344-10.0664063-12.3623047-16.8574219
		c-2.4365234-6.7890625-3.6523438-14.4912109-3.6523438-23.1083984c0-16.2958984,3.9550781-28.6582031,11.8701172-37.0869141
		c7.9130859-8.4287109,17.3496094-12.6435547,28.3066406-12.6435547c6.1806641,0,10.6279297,0.84375,13.3457031,2.5292969
		l-3.3720703,18.2617188c-2.6230469-1.2158203-5.3378906-1.8261719-8.1474609-1.8261719
		c-5.7138672,0-10.3027344,2.4589844-13.7666016,7.375c-3.4658203,4.9169922-5.1982422,12.3867188-5.1982422,22.4072266
		c0,9.5527344,1.6855469,16.6708984,5.0576172,21.3525391c3.3710938,4.6845703,7.9130859,7.0244141,13.6259766,7.0244141
		C392.3085938,492.4962158,395.1181641,492.1221924,398.1162109,491.3721924z"/>
</g>
</svg>
