<?xml version="1.0" encoding="utf-8"?>
<!-- Generator: Adobe Illustrator 22.1.0, SVG Export Plug-In . SVG Version: 6.00 Build 0)  -->
<svg version="1.1" id="Capa_1" xmlns="http://www.w3.org/2000/svg" xmlns:xlink="http://www.w3.org/1999/xlink" x="0px" y="0px"
	 viewBox="0 0 512 512" style="enable-background:new 0 0 512 512;" xml:space="preserve">
<style type="text/css">
	.st0{fill:#00487C;}
</style>
<g>
	<g>
		<polygon class="st0" points="271,292.2139893 271,364.3869934 307.0870056,328.3009949 		"/>
	</g>
</g>
<g>
	<g>
		<polygon class="st0" points="271,147.6130066 271,219.7870026 307.0870056,183.6999969 		"/>
	</g>
</g>
<g>
	<g>
		<path class="st0" d="M416.6659851-0.0000067H95.3330002C42.7669983-0.0000067,0,42.7669907,0,95.333992v321.3320313
			C0,469.2330017,42.7669983,512,95.3330002,512h321.3330078C469.2330017,512,512,469.2330017,512,416.6659851V95.333992
			C512,42.7669907,469.2330017-0.0000067,416.6659851-0.0000067z M338.9070129,317.6940002
			c2.8129883,2.8129883,4.3930054,6.6279907,4.3930054,10.6069946c0,3.9779968-1.5799866,7.7940063-4.3940125,10.6059875
			l-72.2999878,72.2990112c-2.868988,2.8699951-6.7059937,4.3940125-10.6089935,4.3940125
			c-1.9329987,0-3.8809967-0.3729858-5.7369995-1.1419983c-5.6049957-2.321991-9.2599945-7.7919922-9.2599945-13.8580017
			V292.2130127l-46.6940002,46.6940002c-5.8569946,5.8569946-15.3549957,5.8569946-21.2129974,0
			c-5.8569946-5.8569946-5.8569946-15.355011,0-21.2130127L234.7859955,256l-61.6930084-61.6929932
			c-5.8569946-5.8569946-5.8569946-15.3549957,0-21.2129974c5.8569946-5.8569946,15.3549957-5.8569946,21.2129974,0L241,219.7870026
			V111.3999939c0-6.0670013,3.6549988-11.5360031,9.2599945-13.8580017
			c5.6049957-2.3239975,12.0579987-1.0390015,16.3470001,3.2519989l72.2999878,72.3000031
			c5.8580017,5.8569946,5.8580017,15.3549957,0,21.2129974L277.2130127,256L338.9070129,317.6940002z"/>
	</g>
</g>
</svg>
