<?xml version="1.0" encoding="utf-8"?>
<!-- Generator: Adobe Illustrator 22.1.0, SVG Export Plug-In . SVG Version: 6.00 Build 0)  -->
<svg version="1.1" id="Capa_1" xmlns="http://www.w3.org/2000/svg" xmlns:xlink="http://www.w3.org/1999/xlink" x="0px" y="0px"
	 viewBox="0 0 744.5126343 434.3000183" style="enable-background:new 0 0 744.5126343 434.3000183;" xml:space="preserve">
<style type="text/css">
	.st0{fill:#00487C;}
</style>
<g>
	<g>
		<path class="st0" d="M553.8500366,234.4999847H514.25c4,11,6.2000122,23.0000153,6.2000122,35.4000092V419.5
			c0,5.2000122-0.8999634,10.2000122-2.5,14.7999878h65.5c24.5,0,44.2999878-19.8999939,44.2999878-44.2999878v-81.6000061
			C627.75,267.7000122,594.5499878,234.4999847,553.8500366,234.4999847z"/>
	</g>
</g>
<g>
	<g>
		<path class="st0" d="M223.0500031,269.9000244c0-12.3999939,2.1999969-24.4000092,6.1999969-35.4000092h-39.5999908
			C148.9499969,234.4999847,115.75,267.7000122,115.75,308.4000244v81.6000061c0,24.5,19.8999939,44.2999878,44.3000031,44.2999878
			h65.5c-1.5999908-4.6000061-2.5-9.6000061-2.5-14.7999878V269.9000244z"/>
	</g>
</g>
<g>
	<g>
		<path class="st0" d="M417.0499878,196h-90.5c-40.7999878,0-73.8999939,33.1999969-73.8999939,73.9000244v149.6000061
			c0,8.2000122,6.6000061,14.7999878,14.8000183,14.7999878H476.25c8.2000122,0,14.7999878-6.6000061,14.7999878-14.7999878
			V269.9000244C490.9500122,229.1999969,457.75,196,417.0499878,196z"/>
	</g>
</g>
<g>
	<g>
		<path class="st0" d="M371.75,0c-49,0-88.8999939,39.8999977-88.8999939,88.8999939
			c0,33.1999969,18.3000183,62.3000031,45.3999939,77.5c12.8999939,7.1999969,27.7000122,11.3999939,43.3999939,11.3999939
			s30.6000061-4.1000061,43.3999939-11.3999939c27.1000061-15.1999969,45.3999939-44.3000031,45.3999939-77.5
			C460.6499939,39.8999977,420.75,0,371.75,0z"/>
	</g>
</g>
<g>
	<g>
		<path class="st0" d="M215.6500092,82.8999939c-36.7000122,0-66.5,29.8000031-66.5,66.5s29.7999878,66.5,66.5,66.5
			c9.3000031,0,18.1999969-1.8999939,26.1999969-5.3999939c13.8999939-6,25.3999939-16.6000061,32.5-29.8999939
			c5-9.3000031,7.8000183-19.8999939,7.8000183-31.1999969C282.1499939,112.6999969,252.3500061,82.8999939,215.6500092,82.8999939z
			"/>
	</g>
</g>
<g>
	<g>
		<path class="st0" d="M527.8500366,82.8999939c-36.7000427,0-66.5000305,29.8000031-66.5000305,66.5
			c0,11.3000031,2.7999878,21.8999939,7.7999878,31.1999969c7.1000061,13.3000031,18.6000061,23.8999939,32.5,29.8999939
			c8,3.5,16.8999939,5.3999939,26.2000427,5.3999939c36.7000122,0,66.5-29.8000031,66.5-66.5
			S564.4500122,82.8999939,527.8500366,82.8999939z"/>
	</g>
</g>
<g>
	<g>
		<path class="st0" d="M685.4459229,270.5706482h-31.6514893C656.9915771,279.3627319,658.75,288.954071,658.75,298.8651428
			v119.572113c0,4.15625-0.7193604,8.1526489-1.9981689,11.8293152h52.3527222
			c19.5823364,0,35.4080811-15.9056396,35.4080811-35.4080505v-65.2211609
			C744.5126343,297.10672,717.9765625,270.5706482,685.4459229,270.5706482z"/>
	</g>
</g>
<g>
	<g>
		<path class="st0" d="M664.6646729,149.3999939c-29.3335571,0-53.1520386,23.818512-53.1520386,53.1520386
			c0,9.0318604,2.2379761,17.5042114,6.234375,24.9375c5.6748657,10.6304169,14.8665771,19.1027679,25.9765625,23.8984375
			c6.3942261,2.7974701,13.5077515,4.3161011,20.9411011,4.3161011c29.3335571,0,53.1520386-23.818512,53.1520386-53.1520538
			S693.9182739,149.3999939,664.6646729,149.3999939z"/>
	</g>
</g>
<g>
	<g>
		<path class="st0" d="M0,333.6707764l0,65.2211609c0,19.5023804,15.8257122,35.4080505,35.4080429,35.4080505h52.3527679
			c-1.2788544-3.6766663-1.9981995-7.6730652-1.9981995-11.8293152V302.8985291
			c0-9.9110413,1.7584229-19.5023804,4.9555435-28.2944641H59.0667038C26.536068,274.6040649,0,301.1401367,0,333.6707764z"/>
	</g>
</g>
<g>
	<g>
		<path class="st0" d="M26.6959095,206.585434c0,29.3335266,23.8185024,53.1520538,53.1520462,53.1520538
			c7.4333115,0,14.5468826-1.5186462,20.9411163-4.3161163c11.1099701-4.7956696,20.3016815-13.2680206,25.9765625-23.8984375
			C130.7620239,224.0896454,133,215.6172943,133,206.5854492c0-29.3335419-23.8185043-53.1520538-53.1520462-53.1520538
			C50.5943413,153.4333954,26.6959095,177.2518921,26.6959095,206.585434z"/>
	</g>
</g>
</svg>
