<?xml version="1.0" encoding="utf-8"?>
<!-- Generator: Adobe Illustrator 22.1.0, SVG Export Plug-In . SVG Version: 6.00 Build 0)  -->
<svg version="1.1" id="Layer_1" xmlns="http://www.w3.org/2000/svg" xmlns:xlink="http://www.w3.org/1999/xlink" x="0px" y="0px"
	 viewBox="0 0 666.9664917 284.9570007" style="enable-background:new 0 0 666.9664917 284.9570007;" xml:space="preserve">
<style type="text/css">
	.st0{fill:#00487C;}
	.st1{fill:#C2D1DC;}
</style>
<g id="XMLID_90_">
	<path id="XMLID_91_" class="st0" d="M104.9830017,89.9830017c60.0859985,0,104.9830017-23.7529984,104.9830017-44.9920006
		C209.9660034,23.7540016,165.0680084,0,104.9829941,0S0.0010004,23.7540016,0.0010004,44.9910011
		C0.0010004,66.2300034,44.8969994,89.9830017,104.9830017,89.9830017z"/>
	<path id="XMLID_92_" class="st0" d="M104.9830017,269.9570007c8.7699966,0,17.2109985-0.5100098,25.2400055-1.4389954
		c-6.7680054-8.697998-12.3650055-18.3500061-16.5580063-28.7160034c-2.8809967,0.0970001-5.7720032,0.1640015-8.6829987,0.1640015
		c-34.3330002,0-66.8470001-6.8029938-91.5500031-19.1549988C8.5680008,218.3789978,4.0920005,215.7660065,0.0010004,213v11.9660034
		C0.0010004,246.2030029,44.8969994,269.9570007,104.9830017,269.9570007z"/>
	<path id="XMLID_93_" class="st0" d="M104.9830017,209.9660034c0.3079987,0,0.6110001-0.0050049,0.9179993-0.0059967
		c-0.6149979-4.9160004-0.935997-9.9230042-0.935997-15.003006c0-5.0780029,0.3199997-10.0820007,0.935997-14.9940033
		c-0.3069992,0-0.6110001,0.0110016-0.9179993,0.0110016c-34.3330002,0-66.8460007-6.8029938-91.5500031-19.1549988
		c-4.8649998-2.4320068-9.342-5.0449982-13.4329996-7.8099976v11.9649963
		C0.0010004,186.2120056,44.8969994,209.9660034,104.9830017,209.9660034z"/>
	<path id="XMLID_102_" class="st0" d="M104.9830017,149.9730072c2.9759979,0,5.9120026-0.0599976,8.810997-0.173996
		c4.6559982-11.4230042,11.0189972-21.973999,18.7770157-31.3309937
		c-8.9820099,0.9900055-18.2130051,1.5149994-27.5880051,1.5149994c-34.3330002,0-66.8460007-6.8029938-91.5500031-19.1549988
		c-4.8649998-2.4329987-9.342-5.0449982-13.4329996-7.810997v11.9659958
		C0.0010004,126.2210083,44.8969994,149.9730072,104.9830017,149.9730072z"/>
	<path id="XMLID_103_" class="st0" d="M149.9830017,145.2400055c-6.4900055,9.7570038-11.1269989,20.845993-13.4080048,32.7620087
		c-1.0529938,5.4929962-1.6089935,11.1600037-1.6089935,16.9550018c0,4.3569946,0.3179932,8.6410065,0.9190063,12.8339996
		c1.477005,10.3009949,4.7039948,20.0410004,9.3699951,28.9140015c4.8959961,9.3110046,11.3730011,17.6659851,19.076004,24.7009888
		c16.0079956,14.6210022,37.2980042,23.5509949,60.6349945,23.5509949c49.6260071,0,90-40.3739929,90-90
		c0-49.6269989-40.3739929-90-90-90c-5.1289978,0-10.1580048,0.4380035-15.0559998,1.2659988
		C184.9620056,110.4420013,163.4740143,124.9609985,149.9830017,145.2400055z"/>
</g>
<g id="XMLID_1_">
	<path id="XMLID_6_" class="st1" d="M456.98349,89.9830093c60.0860291,0,104.9830017-23.7529984,104.9830017-44.9920006
		c0-21.2369995-44.8980103-44.9910011-104.9830017-44.9910011S352.0014954,23.7540092,352.0014954,44.9910088
		C352.0014954,66.230011,396.8974915,89.9830093,456.98349,89.9830093z"/>
	<path id="XMLID_5_" class="st1" d="M456.98349,269.9570007c8.7700195,0,17.2109985-0.5100098,25.2400208-1.4389954
		c-6.7680054-8.697998-12.3650208-18.3500061-16.5580139-28.7160034c-2.8809814,0.0970001-5.7720032,0.1640015-8.6829834,0.1640015
		c-34.3330078,0-66.8470154-6.8029938-91.5500183-19.1549988c-4.8639832-2.4320068-9.3399963-5.0449982-13.4309998-7.8110046
		v11.9660034C352.0014954,246.2030029,396.8974915,269.9570007,456.98349,269.9570007z"/>
	<path id="XMLID_4_" class="st1" d="M456.98349,209.9660034c0.3080139,0,0.6110229-0.0050049,0.9179993-0.0059967
		c-0.6149902-4.9160004-0.9359741-9.9230042-0.9359741-15.003006c0-5.0780029,0.3199768-10.0820007,0.9359741-14.9940033
		c-0.3069763,0-0.6109924,0.0110016-0.9179993,0.0110016c-34.3329773,0-66.8459778-6.8029938-91.5499878-19.1549988
		c-4.8649902-2.4320068-9.3420105-5.0449982-13.4330139-7.8099976v11.9649963
		C352.0014954,186.2120056,396.8974915,209.9660034,456.98349,209.9660034z"/>
	<path id="XMLID_3_" class="st1" d="M456.98349,149.9730072c2.9760132,0,5.9120178-0.0599976,8.8110046-0.173996
		c4.6560059-11.4230042,11.0190125-21.9739914,18.7770081-31.330986
		c-8.9819946,0.9900055-18.2129822,1.5149994-27.5879822,1.5149994c-34.3330078,0-66.8460083-6.8029938-91.5500183-19.1549988
		c-4.8649902-2.4329987-9.34198-5.0449982-13.4329834-7.810997v11.9659958
		C352.0014954,126.2210159,396.8974915,149.9730072,456.98349,149.9730072z"/>
	<path id="XMLID_2_" class="st1" d="M501.98349,145.2400055c-6.4899902,9.7570038-11.1269836,20.845993-13.4079895,32.7620087
		c-1.053009,5.4929962-1.6090088,11.1600037-1.6090088,16.9550018c0,4.3569946,0.3179932,8.6410065,0.9190063,12.8339996
		c1.4770203,10.3009949,4.70401,20.0410004,9.3699951,28.9140015c4.8959961,9.3110046,11.3730164,17.6659851,19.0759888,24.7009888
		c16.0079956,14.6210022,37.2980347,23.5509949,60.6350098,23.5509949c49.6260376,0,90-40.3739929,90-90
		c0-49.6269989-40.3739624-89.9999924-90-89.9999924c-5.1289673,0-10.15802,0.4380035-15.0559692,1.2659988
		C536.9625244,110.442009,515.4744873,124.9610062,501.98349,145.2400055z"/>
</g>
</svg>
