<?xml version="1.0" encoding="utf-8"?>
<!-- Generator: Adobe Illustrator 22.1.0, SVG Export Plug-In . SVG Version: 6.00 Build 0)  -->
<svg version="1.1" id="Capa_1" xmlns="http://www.w3.org/2000/svg" xmlns:xlink="http://www.w3.org/1999/xlink" x="0px" y="0px"
	 viewBox="0 0 512 512" style="enable-background:new 0 0 512 512;" xml:space="preserve">
<style type="text/css">
	.st0{fill:#00487C;}
</style>
<path class="st0" d="M209.3390045,203.8840027L172.223999,241h-66.2099991c-8.2799988,0-15,6.7200012-15,15s6.7200012,15,15,15
	h66.2099991l34.3999939,34.3900146c2.8099976,2.8200073,4.3899994,6.6300049,4.3899994,10.6099854v181
	c0,8.2799988-6.7200012,15-15,15h-181c-8.2799997,0-15-6.7200012-15-15V271h46c8.2799988,0,15-6.7200012,15-15s-6.7200012-15-15-15
	h-46v-226c0-8.2799997,6.7199998-15,15-15h181c8.2799988,0,15,6.7199998,15,15v30.1500015
	c-23.7799988-9.9700012-50.7700043-9.1500015-73.6999969,1.8800011
	c-27.9000015,13.3999977-34.2299957,50.4300041-12.3600006,72.3500061
	c23.4600067,23.5000076,84.3849945,84.5040054,84.3849945,84.5040054"/>
<path class="st0" d="M462.6239929,117.609993l-42.4299927,42.4200058c-5.8599854,5.8600006-15.3599854,5.8600006-21.2099915,0
	c-5.8599854-5.8500061-5.8599854-15.3500061,0-21.2099915l42.4199829-42.4300079
	c5.8599854-5.8499985,15.3599854-5.8499985,21.2200012,0C468.473999,102.25,468.473999,111.75,462.6239929,117.609993z
	 M494.4440002,64.5699921c-11.3099976-11.3100014-26.3800049-17.5299988-42.4299927-17.5299988
	s-31.1199951,6.2200012-42.4299927,17.5299988l-39.9200134,39.9300003
	c-14.6300049,14.6299973-19.6499939,35.9100113-13.1099854,55.5300064
	C366.8940125,191.0659943,346.052002,212.8999939,346.0040283,213l42.4299927,42.4299927l106.0100098-106
	c23.3900146-23.4000092,23.3900146-61.4600067,0-84.8600082L494.4440002,64.5699921z M241.0140076,318v84.8500061
	L367.223999,276.6500244l-42.4299927-42.4299927L241.0140076,318z"/>
<path class="st0" d="M218.6640015,85.7899933l105.9700012,105.9700165c-0.230011,0.3099976-0.4700012,0.6100006-0.7099915,0.8999939
	l-41.6900024,41.6900024c-37.9499969-37.9499969-88.1000061-88.1199951-136.0500031-136.1600037
	c-7.2660065-7.288002-5.1970062-19.6529999,4.1199951-24.1200027
	C172.1340027,63.5639915,199.8349915,66.9439926,218.6640015,85.7899933z"/>
<path class="st0" d="M494.4440002,361.5599976l-84.8600159-84.8500061l-50.6499939,50.6499939
	c0.9400024,7.8299866,0.1900024,15.8999939-2.3800049,23.5899963c-6.5400085,19.6300049-1.519989,40.9100037,13.1099854,55.5400085
	l39.9200134,39.9199829c23.4060059,23.4070129,61.4559937,23.4039917,84.8599854,0
	c23.3900146-23.3900146,23.3900146-61.4599915,0-84.8500061L494.4440002,361.5599976z M462.6239929,414.5899963
	c-5.8599854,5.8599854-15.3599854,5.8599854-21.2200012,0l-42.4199829-42.4200134
	c-5.8599854-5.8599854-5.8599854-15.3599854,0-21.2200012c5.8500061-5.8599854,15.3500061-5.8599854,21.2099915,0
	l42.4299927,42.4299927c5.8500061,5.8599854,5.8500061,15.3500061,0,21.2099915V414.5899963z"/>
</svg>
