<?xml version="1.0" encoding="utf-8"?>
<!-- Generator: Adobe Illustrator 22.1.0, SVG Export Plug-In . SVG Version: 6.00 Build 0)  -->
<svg version="1.1" id="Capa_1" xmlns="http://www.w3.org/2000/svg" xmlns:xlink="http://www.w3.org/1999/xlink" x="0px" y="0px"
	 viewBox="0 0 512 512" style="enable-background:new 0 0 512 512;" xml:space="preserve">
<style type="text/css">
	.st0{fill:#00487C;}
</style>
<path class="st0" d="M454.7347107,312.6309814c-3.8389893,0-7.678009-1.4649963-10.6069946-4.3939819
	c-50.25-50.2510071-117.0620117-77.9250183-188.1270142-77.9250183s-137.8769989,27.6739807-188.128006,77.9250183
	c-2.8130035,2.8129883-6.6279984,4.3939819-10.6070023,4.3939819s-7.7939987-1.5800171-10.605999-4.3939819L4.3946958,265.9719849
	c-2.813-2.8129883-4.3940001-6.6279907-4.3940001-10.6069946c0-3.9789886,1.58-7.7940063,4.3940001-10.6060028
	c33.9620018-33.9620056,73.5670013-60.2599945,117.7169952-78.1630096
	c42.6340027-17.2890015,87.6820068-26.0559998,133.8890076-26.0559998s91.2550049,8.7669983,133.8900146,26.0559998
	c44.1499939,17.9030151,83.7550049,44.201004,117.7170105,78.1630096
	c5.8580322,5.8569946,5.8580322,15.3539886,0.0010071,21.2129974l-42.2669983,42.2659912
	c-2.9289856,2.9279785-6.7680054,4.3930054-10.6069946,4.3930054H454.7347107z"/>
<path class="st0" d="M367.1787109,399.8699951c-3.9790039,0-7.7940063-1.5799866-10.6059875-4.3930054
	c-26.8649902-26.8640137-62.5820007-41.6589966-100.571991-41.6589966c-37.9909973,0-73.7080078,14.7950134-100.5709991,41.6579895
	c-2.8130035,2.8129883-6.628006,4.3930054-10.6060028,4.3930054s-7.7940063-1.5799866-10.6060028-4.3930054l-42.2669983-42.2680054
	c-5.8570023-5.8569946-5.8560028-15.3540039,0.0009995-21.2120056
	c43.8189926-43.8190002,102.0800095-67.9519958,164.0500183-67.9519958s120.230011,24.1329956,164.0499878,67.9519958
	c5.8569946,5.8569946,5.8580017,15.355011,0.0010071,21.2130127l-42.2659912,42.2669983
	c-2.8139954,2.8129883-6.6300049,4.3940125-10.6080017,4.3940125H367.1787109z"/>
<path class="st0" d="M256.0007019,512c-34.2830048,0-62.173996-27.6130066-62.173996-61.5559998
	c0-33.9420166,27.8910065-61.5559998,62.173996-61.5559998s62.1740112,27.6130066,62.1740112,61.5559998
	S290.2837219,512,256.0007019,512z"/>
</svg>
