<?xml version="1.0" encoding="utf-8"?>
<!-- Generator: Adobe Illustrator 22.0.1, SVG Export Plug-In . SVG Version: 6.00 Build 0)  -->
<svg version="1.1" id="Capa_1" xmlns="http://www.w3.org/2000/svg" xmlns:xlink="http://www.w3.org/1999/xlink" x="0px" y="0px"
	 viewBox="0 0 496 496" style="enable-background:new 0 0 496 496;" xml:space="preserve">
<style type="text/css">
	.st0{fill:#0496FF;}
	.st1{fill:#00487C;}
</style>
<path class="st0" d="M368,448H128V304h240V448z"/>
<g>
	<path class="st1" d="M32,240h128v-48H32V240z M48,208h96v16H48V208z"/>
	<path class="st1" d="M452.2,135.8l-27.8-6.2C438.7,117.9,448,100,448,80V64c0-32.6-24.5-59.5-56-63.4V0H164.7L80,84.7V160H24
		c-13.2,0-24,10.8-24,24v288c0,13.2,10.8,24,24,24h448c13.2,0,24-10.8,24-24V240v-8v-41.5C496,164.1,478,141.6,452.2,135.8z
		 M480,190.5v19c-2.5-0.9-5.2-1.5-8-1.5h-80v-36.7l26.6-26.6l30.1,6.7C467.1,155.6,480,171.6,480,190.5z M376,208h-88v-17.5
		c0-18.9,12.9-35,31.3-39l30.1-6.7l26.6,26.6V208z M384,156.7l-14.4-14.4c4.6,1.1,9.4,1.7,14.4,1.7s9.7-0.6,14.4-1.7L384,156.7z
		 M432,64v16c0,26.5-21.5,48-48,48s-48-21.5-48-48V64c0-26.5,21.5-48,48-48S432,37.5,432,64z M160,27.3V80h-52.7L160,27.3z M96,96
		h80V16h165.8C328.5,27.7,320,44.9,320,64v16c0,20,9.3,37.9,23.7,49.6l-27.8,6.2c-25.8,5.7-43.9,28.2-43.9,54.7V208h-21.8l-80-48H96
		V96z M472,480H24c-4.4,0-8-3.6-8-8V272h464v200C480,476.4,476.4,480,472,480z M480,256H16v-72c0-4.4,3.6-8,8-8h141.8l80,48H472
		c4.4,0,8,3.6,8,8v8V256z"/>
	<rect x="192" y="32" class="st1" width="16" height="16"/>
	<rect x="224" y="32" class="st1" width="80" height="16"/>
	<rect x="192" y="64" class="st1" width="112" height="16"/>
	<rect x="192" y="96" class="st1" width="112" height="16"/>
	<rect x="112" y="128" class="st1" width="128" height="16"/>
	<rect x="256" y="128" class="st1" width="16" height="16"/>
	<rect x="160" y="336" class="st1" width="16" height="16"/>
	<rect x="192" y="336" class="st1" width="144" height="16"/>
	<rect x="320" y="400" class="st1" width="16" height="16"/>
	<rect x="160" y="400" class="st1" width="144" height="16"/>
	<rect x="160" y="368" class="st1" width="176" height="16"/>
</g>
</svg>
