<?xml version="1.0" encoding="utf-8"?>
<!-- Generator: Adobe Illustrator 22.1.0, SVG Export Plug-In . SVG Version: 6.00 Build 0)  -->
<svg version="1.1" id="Layer_1" xmlns="http://www.w3.org/2000/svg" xmlns:xlink="http://www.w3.org/1999/xlink" x="0px" y="0px"
	 viewBox="0 0 467.7 512" style="enable-background:new 0 0 467.7 512;" xml:space="preserve">
<style type="text/css">
	.st0{fill:#00487C;}
	.st1{fill:#0496FF;}
</style>
<path class="st0" d="M233.8,512c-4.9,0-9.4-2.4-12.3-6.4L112.3,350.7c-3.2-4.6-3.6-10.6-1.1-15.5c2.6-5,7.7-8.1,13.3-8.1h49.3V225.8
	c0-8.3,6.7-15,15-15h90.1c8.3,0,15,6.7,15,15v101.3h49.3c5.6,0,10.7,3.1,13.3,8.1c2.6,5,2.2,11-1.1,15.5L322.7,397
	c-4.8,6.8-14.1,8.4-20.9,3.6c-6.8-4.8-8.4-14.1-3.6-20.9l16-22.7h-35.3c-8.3,0-15-6.7-15-15V240.8h-60.1v101.3c0,8.3-6.7,15-15,15
	h-35.3L233.8,471l22-31.2c4.8-6.8,14.1-8.4,20.9-3.6c6.8,4.8,8.4,14.1,3.6,20.9l-34.3,48.6C243.3,509.6,238.7,512,233.8,512z"/>
<path class="st1" d="M374.9,160.4c0.5-4.9,0.9-9.8,0.9-14.8C375.8,73.5,317.3,15,245.2,15c-65.2,0-119.2,47.8-129,110.2
	C59.7,129,15,176,15,233.4c0,58.8,46.8,106.7,105.2,108.4v0.1h3.2c0,0,0,0,0,0c0,0,0,0,0,0h65.3V225.8h90.1v30.6v85.4h82.6
	c50.4,0,91.2-40.8,91.2-91.2C452.7,204.8,418.9,166.9,374.9,160.4z"/>
<path class="st0" d="M361.4,356.9h-82.6c-8.3,0-15-6.7-15-15V240.8h-60.1v101.1c0,8.3-6.7,15-15,15h-68.6c-0.7,0-1.4,0-2.1-0.1
	c-31.6-1.3-61-14.5-83.2-37.3c-22.5-23.2-35-53.7-35-86.1c0-60.8,44.6-112.3,103.6-121.8c7.1-29.5,23.3-56.2,46.5-76.2
	C176.5,12.5,210.3,0,245.2,0c80.3,0,145.6,65.3,145.6,145.6c0,1,0,1.9,0,2.9c19.6,5.6,37.3,16.8,50.9,32.4
	c16.8,19.3,26.1,44.1,26.1,69.7C467.7,309.2,420,356.9,361.4,356.9z M293.9,326.9h67.6c42,0,76.2-34.2,76.2-76.2
	c0-37.5-27.9-69.9-65-75.4c-8-1.2-13.6-8.5-12.7-16.5c0.5-4.5,0.8-8.9,0.8-13.1C360.8,81.9,308.9,30,245.2,30
	c-57.3,0-105.3,41-114.2,97.5c-1.1,6.9-6.8,12.2-13.8,12.6C68.3,143.4,30,184.4,30,233.4c0,50.9,39.8,91.9,90.7,93.4
	c0.4,0,0.7,0,1.1,0.1h52V225.8c0-8.3,6.7-15,15-15h90.1c8.3,0,15,6.7,15,15L293.9,326.9L293.9,326.9z"/>
</svg>
