<?xml version="1.0" encoding="utf-8"?>
<!-- Generator: Adobe Illustrator 22.1.0, SVG Export Plug-In . SVG Version: 6.00 Build 0)  -->
<svg version="1.1" id="Layer_1" xmlns="http://www.w3.org/2000/svg" xmlns:xlink="http://www.w3.org/1999/xlink" x="0px" y="0px"
	 viewBox="0 0 512 512" style="enable-background:new 0 0 512 512;" xml:space="preserve">
<style type="text/css">
	.st0{fill:#FFFFFF;}
	.st1{fill:#0496FF;}
</style>
<path class="st0" d="M175.6000061,503.1000061h-55.1999969c-7.1999969,0-13.3000031-5.2000122-14.4000015-12.2999878l-3.5-22
	C90.0999985,464,78.5999985,457.2999878,68.3000031,449l-20.9000015,8
	c-6.7000008,2.6000061-14.2999992-0.1000061-17.8999996-6.2999878L2,402.7999878
	c-3.5999999-6.2000122-2.0999999-14.1000061,3.4000001-18.7000122l17.2999992-14.1000061c-1-6.5-1.5-13.1000061-1.5-19.7000122
	s0.5-13.2000122,1.5-19.7000122l-17.2999992-13.999939c-5.5999999-4.5-7-12.3999939-3.4000001-18.7000122l27.6000004-47.8000031
	c3.6000004-6.1999969,11.1999989-8.8999939,17.8999996-6.3000031l20.9000015,8
	c10.3000031-8.3000031,21.7999954-15,34.0999985-19.6999969l3.5-22c1.0999985-7.1000061,7.3000031-12.3000031,14.4000015-12.3000031
	h55.2000046c7.1999969,0,13.3000031,5.1999969,14.3999939,12.3000031l4.8999939,30.6999969
	c1.3000031,8-4.1999969,15.5-12.1000061,16.7999878c-8,1.2999878-15.5-4.1999969-16.8000031-12.1000061l-2.8999939-18.3999939
	h-30.3000031l-2.8999939,18.3999939c-0.8999939,5.5-4.8000031,10.1000061-10.1999969,11.7000122
	c-14.1999969,4.2999878-27.5,12-38.4000015,22.2000122c-4.0999985,3.7999878-10,5-15.1999969,3l-17.4000015-6.6000061
	L33.5999985,302L48,313.5c4.2999992,3.5,6.2999992,9.2000122,5,14.7000122c-1.7000008,7.2999878-2.5,14.7000122-2.5,22.2000122
	s0.9000015,15,2.5,22.2000122c1.2999992,5.3999939-0.7000008,11.1000061-5,14.7000122L33.5,399l15.0999985,26.2000122
	L66,418.6000061c5.1999969-2,11.0999985-0.7999878,15.1999969,3C92.0999985,431.8000183,105.3999939,439.5,119.5999985,443.8000183
	c5.4000015,1.6000061,9.2999954,6.2000122,10.2000046,11.7000122l2.8999939,18.3999939H163l2.8999939-18.3999939
	c0.8999939-5.5,4.8000031-10.1000061,10.1999969-11.7000122c14.1999969-4.2999878,27.5-12,38.4000092-22.2000122
	c4.1000061-3.7999878,10-5,15.1999969-3l17.3999939,6.6000061L262.1999817,399L248,387.2999878
	c-4.3000031-3.5-6.3000031-9.2000122-5-14.7000122c1.6999969-7.2000122,2.5-14.7000122,2.5-22.2000122s-0.8999939-15-2.5-22.2000122
	c-1.8000031-7.8999939,3.1000061-15.7000122,10.8999939-17.6000061c7.8999939-1.7999878,15.7000122,3.1000061,17.6000061,10.8999939
	c2.2000122,9.3999939,3.2999878,19.1000061,3.2999878,28.7999878c0,6.6000061-0.5,13.2000122-1.5,19.7000122l17.2999878,14.1000061
	c5.6000061,4.5,7,12.3999939,3.3999939,18.7000122l-27.6000061,47.7999878
	c-3.6000061,6.2000122-11.1999969,8.8999939-17.8999939,6.2999878l-20.8999939-8
	c-10.3000031,8.2999878-21.8000031,15-34.1000061,19.7000122l-3.5,22
	C188.8999939,497.7999878,182.8000031,503.1000061,175.6000061,503.1000061z"/>
<circle class="st1" cx="148" cy="350.3999939" r="43.2000046"/>
<path class="st0" d="M148,408.2000122c-31.9000015,0-57.8000031-25.8999939-57.8000031-57.7999878
	S116.0999985,292.6000366,148,292.6000366s57.8000031,25.8999939,57.8000031,57.7999878S179.8000031,408.2000122,148,408.2000122z
	 M148,321.7999878c-15.6999969,0-28.5,12.7999878-28.5,28.5s12.8000031,28.5,28.5,28.5s28.5-12.7999878,28.5-28.5
	C176.5,334.6000061,163.6999969,321.7999878,148,321.7999878z"/>
<path class="st1" d="M476.2000122,161.6000061c0-8.8000031-1-17.3000031-2.8999939-25.5L497.4000244,116.5l-27.6000061-47.7999954
	l-29.1000061,11.0999985c-12.3999939-11.5999985-27.5-20.5-44.2000122-25.5l-4.8999939-30.7000008h-55.2000122L331.5,54.3000031
	c-16.7000122,5.0999985-31.7999878,13.9000015-44.2000122,25.5l-29-11.0999985l-27.6000061,47.8000031l24.1000061,19.6000137
	c-1.8999939,8.1999969-2.8999939,16.6999969-2.8999939,25.5s1,17.3000031,2.8999939,25.5l-24.1000061,19.6000061
	l27.6000061,47.8000031l29-11.1000061c12.3999939,11.6000061,27.5,20.5,44.2000122,25.5l4.8999939,30.7000122h55.2000122
	L396.5,268.9000244c16.7000122-5.1000061,31.7999878-13.8999939,44.2000122-25.5l29.1000061,11.1000061l27.6000061-47.8000031
	l-24.1000061-19.6000061C475.2000122,179,476.2000122,170.3999939,476.2000122,161.6000061z M364,204.8000031
	c-23.7999878,0-43.2000122-19.3000031-43.2000122-43.1999969S340.0999756,118.4000015,364,118.4000015
	s43.2000122,19.3000107,43.2000122,43.2000046S387.8999939,204.8000031,364,204.8000031z"/>
<path class="st0" d="M391.6000061,314.2999878h-55.2000122c-7.2000122,0-13.2999878-5.2000122-14.3999939-12.2999878l-3.5-22
	c-12.2999878-4.7000122-23.7999878-11.3999939-34.1000061-19.7000122l-20.8999939,8
	c-6.7000122,2.6000061-14.3000031-0.1000061-17.8999939-6.2999878L218,214.1000061
	c-3.6000061-6.1999969-2.1000061-14.1000061,3.3999939-18.6999969l17.3000031-14.1000061c-1-6.5-1.5-13.1000061-1.5-19.6999969
	s0.5-13.1999969,1.5-19.6999969l-17.3000031-14.1000061c-5.6000061-4.5-7-12.4000015-3.3999939-18.7000046l27.6000061-47.7999992
	C249.2000122,55.0999985,256.8000183,52.4000015,263.5,55l20.8999939,8C294.6999817,54.7000008,306.1999817,48,318.5,43.2999992
	l3.5-22C323.1000061,14.1999998,329.2999878,9,336.3999939,9h55.2000122C398.8000183,9,404.8999939,14.1999998,406,21.2999992
	l3.5,22C421.7999878,48,433.2999878,54.6999969,443.6000061,63L464.5,55
	c6.7000122-2.5999985,14.2999878,0.0999985,17.8999939,6.2999992L510,109.0999985
	c3.5999756,6.1999969,2.0999756,14.0999985-3.3999939,18.6999969l-17.2999878,14.1000137c1,6.5,1.5,13.1000061,1.5,19.6999969
	s-0.5,13.1999969-1.5,19.6999969l17.2999878,14.1000061c5.6000061,4.5,6.9999695,12.3999939,3.3999939,18.6999969
	l-27.6000061,47.7999878c-3.6000061,6.2000122-11.2000122,8.8999939-17.8999939,6.2999878l-20.8999939-8
	c-10.2999878,8.2999878-21.7999878,15-34.1000061,19.7000122l-3.5,22
	C404.8999939,309.1000061,398.7999878,314.2999878,391.6000061,314.2999878z M348.8999939,285h30.2999878l2.8999939-18.3999939
	c0.8999939-5.5,4.7999878-10.1000061,10.2000122-11.6999969c14.2000122-4.3000031,27.5-12,38.3999939-22.1999969
	c4.1000061-3.8000031,10-5,15.2000122-3l17.3999939,6.6000061l15.1000061-26.1999969L464,198.5
	c-4.2999878-3.5-6.2999878-9.1999969-5-14.6999969c1.7000122-7.1999969,2.5-14.6999969,2.5-22.1999969s-0.8999939-15-2.5-22.1999969
	c-1.2999878-5.3999939,0.7000122-11.1000061,5-14.7000046l14.3999939-11.6999969l-15.1000061-26.1999969l-17.3999939,6.6999969
	c-5.2000122,2-11.1000061,0.8000031-15.2000122-3c-10.8999939-10.1999969-24.2000122-17.9000015-38.3999939-22.1999969
	C386.8999939,66.7000122,383,62.1000099,382.0999756,56.6000099l-2.8999939-18.3999977h-30.2999878L346,56.6000137
	c-0.8999939,5.5-4.7999878,10.0999985-10.2000122,11.6999969c-14.2000122,4.3000031-27.5,12-38.3999939,22.1999969
	c-4.1000061,3.8000031-10,5-15.2000122,3l-17.3999939-6.6999969l-15.1999817,26.1999817L264,124.6999893
	c4.2999878,3.5000076,6.2999878,9.2000046,5,14.7000046c-1.7000122,7.3000031-2.5,14.6999969-2.5,22.1999969
	s0.8999939,15,2.5,22.1999969c1.2999878,5.3999939-0.7000122,11.1000061-5,14.6999969l-14.3999939,11.6999969l15.1000061,26.1999969
	l17.3999939-6.6000061c5.2000122-2,11.1000061-0.8000031,15.2000122,3
	c10.8999939,10.1999969,24.2000122,17.8999939,38.3999939,22.1999969
	c5.3999939,1.6000061,9.2999878,6.2000122,10.2000122,11.7000122L348.8999939,285z M364,219.3999939
	c-31.8999939,0-57.7999878-25.8999939-57.7999878-57.8000031S332.1000061,103.7999802,364,103.7999802
	s57.7999878,25.9000015,57.7999878,57.8000107S395.8999939,219.3999939,364,219.3999939z M364,133.1000061
	c-15.7000122,0-28.5,12.8000031-28.5,28.5s12.7999878,28.5,28.5,28.5s28.5-12.8000031,28.5-28.5
	S379.7999878,133.1000061,364,133.1000061z"/>
</svg>
