<?xml version="1.0" encoding="utf-8"?>
<!-- Generator: Adobe Illustrator 22.1.0, SVG Export Plug-In . SVG Version: 6.00 Build 0)  -->
<svg version="1.1" id="Layer_1" xmlns="http://www.w3.org/2000/svg" xmlns:xlink="http://www.w3.org/1999/xlink" x="0px" y="0px"
	 viewBox="0 0 479.2 512" style="enable-background:new 0 0 479.2 512;" xml:space="preserve">
<style type="text/css">
	.st0{fill:#00487C;}
	.st1{fill:#0496FF;}
</style>
<path class="st0" d="M14.4,275.3c-7.9,0-14.4-6.4-14.4-14.4v-67.1c0-53.1,43.2-96.3,96.3-96.3h299.5c7.9,0,14.4,6.4,14.4,14.4
	s-6.4,14.4-14.4,14.4H96.3c-37.3,0-67.6,30.3-67.6,67.6v67.1C28.8,268.8,22.3,275.3,14.4,275.3z"/>
<path class="st1" d="M325.3,173.6c26.1-39.9,21.6-94-13.4-129.1c-40.2-40.2-105.4-40.2-145.6,0c-35.1,35.1-39.5,89.1-13.4,129.1
	H325.3z"/>
<path class="st0" d="M325.3,188H152.8c-4.9,0-9.4-2.4-12-6.5c-30.2-46.2-23.8-108,15.3-147.1C178.2,12.2,207.7,0,239,0
	s60.8,12.2,83,34.4c39.1,39.1,45.5,100.9,15.3,147.1C334.6,185.5,330.1,188,325.3,188z M160.9,159.2h156.1
	c18.2-34,12.2-76.8-15.4-104.5c-16.7-16.7-39-25.9-62.6-25.9s-45.9,9.2-62.6,25.9C148.7,82.4,142.7,125.2,160.9,159.2z"/>
<path class="st0" d="M399.1,512H96.3C43.2,512,0,468.8,0,415.7V256c0-53.1,43.2-96.3,96.3-96.3h302.8c27.8,0,50.4,22.6,50.4,50.4
	v83.6c0,7.9-6.4,14.4-14.4,14.4s-14.4-6.4-14.4-14.4v-83.6c0-11.9-9.7-21.6-21.6-21.6H96.3c-37.3,0-67.6,30.3-67.6,67.6v159.7
	c0,37.3,30.3,67.6,67.6,67.6h302.8c11.9,0,21.6-9.7,21.6-21.6V448c0-7.9,6.4-14.4,14.4-14.4s14.4,6.4,14.4,14.4v13.7
	C449.5,489.4,426.9,512,399.1,512z"/>
<path class="st1" d="M464.8,387.1H350.3c-30.2,0-54.8-24.5-54.8-54.8l0,0c0-30.2,24.5-54.8,54.8-54.8h114.5V387.1z"/>
<path class="st0" d="M464.8,401.5H350.3c-38.1,0-69.1-31-69.1-69.1s31-69.1,69.1-69.1h114.5c7.9,0,14.4,6.4,14.4,14.4v109.5
	C479.2,395,472.8,401.5,464.8,401.5z M350.3,291.9c-22.3,0-40.4,18.1-40.4,40.4s18.1,40.4,40.4,40.4h100.1v-80.8L350.3,291.9
	L350.3,291.9z"/>
</svg>
