<?xml version="1.0" encoding="utf-8"?>
<!-- Generator: Adobe Illustrator 22.1.0, SVG Export Plug-In . SVG Version: 6.00 Build 0)  -->
<svg version="1.1" id="Layer_1" xmlns="http://www.w3.org/2000/svg" xmlns:xlink="http://www.w3.org/1999/xlink" x="0px" y="0px"
	 viewBox="0 0 512 512" style="enable-background:new 0 0 512 512;" xml:space="preserve">
<style type="text/css">
	.st0{fill:#0496FF;}
	.st1{fill:#FFFFFF;}
</style>
<path class="st0" d="M404.8999939,437.8999939c0-10.5-4.3999939-20.3999939-12.6000061-28.7000122
	c-5.1000061-5.6000061-10.6000061-11-16-16.1000061c-2.7000122-2.6000061-5.5-5.2999878-8.1000061-8l-23.3999939-23.3999939
	c-18-18-41.2999878-18-59.3999939,0C283,364.0999756,280.5,366.4999695,278.1000061,368.8999939
	C271.7000122,375.1999817,265,381.7999878,258.5,388.7999878c-11.6000061-5.2000122-23-12.3999939-36.5-23.2000122
	c-13.3999939-10.8999939-62.1999969-59.7000122-73.1999969-73.2000122c-10.6999969-13.6000061-17.8999939-25-23.1999969-36.5
	c7-6.3999939,13.6000061-13.1000061,19.8999939-19.6000061c2.3999939-2.3999939,4.8000031-4.8999939,7.1999969-7.3000031
	c18-18,18-41.3000031,0-59.4000092l-23.3999939-23.3999939c-2.6999969-2.6999969-5.4000015-5.3999939-8-8.1000061
	c-5.0999985-5.3000031-10.5999985-10.8000107-16.0999985-16.0000076C97,113.9999924,87,109.5999908,76.5,109.5999908
	s-20.5999985,4.4000015-29.2000008,12.5999985l-0.2000008,0.1999969L35.7999992,134
	c-11,11-17.2000008,24.3999939-18.6000004,39.8999939c-2.1000004,25,5.3000011,48.3999939,11,63.6000061
	C42.0999985,275,62.9000015,309.7000122,93.8000031,347c11.3000031,13.5,23.3000031,26.1000061,35.9000092,37.7999878
	c11.6999969,12.6000061,24.3000031,24.6000061,37.8000031,35.8999939c37.1999969,31,72,51.7000122,109.4000092,65.6000061
	c15.2999878,5.7000122,38.6000061,13,63.6000061,11c15.5-1.3999939,28.8999939-7.6000061,39.8999939-18.6000061
	l11.6000061-11.3999939l0.2000122-0.2000122C400.5,458.5,404.8999939,448.3999939,404.8999939,437.8999939z"/>
<g>
	<path class="st1" d="M509.5,237.1000061c0-130.7000122-106.2999878-237.1000061-237.1000061-237.1000061
		c-54.8000031,0-108.3000031,19.2000008-150.6000061,54c-6.0999985,5.0999985-7,14.0999985-2,20.3000031
		c5.0999985,6.0999985,14.1000061,7,20.3000031,2c37.0999908-30.5999985,84.0999908-47.4000015,132.3000031-47.4000015
		c114.8999939,0,208.3000183,93.4000015,208.3000183,208.3000183c0,63.2000122-28.8999939,123-77.7999878,162.3999939
		C402.8000183,399.5,402.8000183,399.5,402.7000122,399.3999939c-5.3999939-5.7999878-11.1000061-11.3999939-16.3999939-16.5
		c-0.1000061-0.1000061-0.1000061-0.1000061-0.2000122-0.2000122c-2.3999939-2.2999878-5-4.7999878-7.3999939-7.2999878L355,351.5
		c-11.6000061-11.6000061-25.3999939-17.7000122-39.8999939-17.7000122S286.8000183,339.8999939,275.2000122,351.5
		c-1.1000061,1.1000061-2.2999878,2.2999878-3.3999939,3.3999939c-1.2999878,1.2999878-2.6000061,2.5-3.7999878,3.7000122
		l-1.7999878,1.7000122c-3.5,3.5-7.1000061,7-10.8000031,10.7000122c-7.6000061-4.2000122-15.5-9.6000061-24.3999939-16.7000122
		c-12.8999939-10.5-60.4000092-58.1000061-71-71c-7.1000061-9-12.5-16.7999878-16.6999969-24.3999939
		c3.6999969-3.6000061,7.1999969-7.1999969,10.6999969-10.6999969l1.6999969-1.6999969
		c1.3000031-1.3000031,2.6000061-2.6000061,3.8000031-3.8999939c1.1000061-1.1000061,2.3000031-2.3000031,3.3999939-3.3999939
		c23.5-23.5,23.5-56.1999969,0-79.6999969l-11.3000031-11.3000031c4.5-6.1000061,9.3999939-11.8000031,14.6999969-17.1000061
		c58.5-58.5000076,153.5999908-58.5000076,212.0000153,0c44.8999939,44.8999939,56.7000122,113.5,29.2999878,170.7999878
		c-3.3999939,7.2000122-0.3999939,15.7999878,6.7999878,19.2000122c2,1,4.1000061,1.3999939,6.2000122,1.3999939
		c5.3999939,0,10.5-3,13-8.2000122c32.7000122-68.1999969,18.6000061-150-34.8999939-203.5
		c-69.6999817-69.6999969-183.1000061-69.6999969-252.8000031,0c-5.3000031,5.3000031-10.3000031,11-14.8999939,16.9000015
		c-5-5.1999969-10.4000015-10.5999985-16-15.8000031c-11.0999985-10.8000031-24.4000015-16.5999985-38.6999969-16.5999985
		s-27.7999992,5.6999969-39.0999985,16.5999985c-0.0999985,0.0999985-0.0999985,0.0999985-0.2000008,0.1999969l-0.2000008,0.1999969
		l-0.0999985,0.0999985L25.4000511,124c-13.3999996,13.4000092-21,29.8000031-22.7000008,48.8000031
		c-2.3,27.8000031,5.6999998,53.1999969,11.8000002,69.8000031c14.499999,39.2000122,36.0999985,75.3000183,68.0999985,113.6999817
		C94.0000534,370,106.4000549,383,119.3000488,395.0999756c12.1000061,12.8999939,25.1000061,25.2999878,38.8000031,36.7999878
		c38.4000092,31.8999939,74.5,53.5,113.5999908,68c14.2000122,5.2000122,35.7999878,12.2000122,59.8999939,12.2000122l0,0
		c3.2999878,0,6.7000122-0.1000061,10-0.3999939c18.8999939-1.7000122,35.2999878-9.2999878,48.7000122-22.7000122
		l11.6000061-11.2999878l0.1000061-0.1000061l0.2000122-0.2000122c0.1000061-0.1000061,0.1000061-0.1000061,0.2000122-0.2000122
		c10.8999939-11.2999878,16.6000061-24.8999939,16.6000061-39.1000061c0-4.6000061-0.6000061-9-1.7999878-13.3999939
		C475.2999878,379.7999878,509.5,310.5,509.5,237.1000061z M382,457l-11.6000061,11.2999878l-0.1000061,0.1000061
		C361.6999817,477,351.5,481.7999878,339.3999939,482.7999878c-2.5,0.2000122-5,0.2999878-7.5,0.2999878l0,0
		c-19.5,0-37.7999878-6-49.8999939-10.3999939c-36-13.3999939-69.5-33.3999939-105.1999969-63.2000122
		c-12.8999939-10.7999878-25.1999969-22.3999939-36.5-34.7000122c-0.1999969-0.2999878-0.5-0.5-0.6999969-0.7000122
		c-12.1999969-11.3999939-23.9000015-23.6000061-34.5999985-36.5C75.0999985,302,55.0999985,268.5,41.7000008,232.5
		C36.5,218.3999939,29.8000011,197.1999969,31.6000004,175.1000061c1.1000004-12.1999969,5.8000011-22.3000031,14.4999981-31
		L46.1999969,144l11.2999992-11.6000061c5.7999992-5.6000061,12.3999977-8.5000076,19.1000023-8.5000076
		c6.5999985,0,13,2.9000015,18.5999985,8.4000015c0.0999985,0.1000061,0.1999969,0.1999969,0.4000015,0.3000031
		c5.3000031,4.8999939,10.5999985,10.3000031,15.5,15.3000031c2.5999985,2.6999969,5.1999969,5.3999939,7.8000031,8
		l23.7999954,23.8000031c12.3999939,12.3999939,12.3999939,26.6000061,0,39
		c-1.1999969,1.1999969-2.3999939,2.3999939-3.6000061,3.6000061c-1.1999969,1.1999969-2.3999939,2.5-3.6999969,3.8000031
		l-1.8000031,1.8000031c-5.5999985,5.6999969-11.5,11.6000061-17.5,17.1999969c-4.5999985,4.1999969-6,10.8999939-3.4000015,16.5
		c5.6999969,12.7000122,13.6999969,25.2000122,24.9999924,39.5c0,0.1000061,0.1000061,0.1000061,0.1000061,0.2000122
		c11.6999969,14.2999878,60.8999939,63.6000061,75.3000031,75.3000183c0.1000061,0,0.1000061,0.1000061,0.1999969,0.1000061
		c14.3000031,11.2999878,26.8999939,19.2999878,39.5,25c5.7000122,2.6000061,12.3999939,1.2000122,16.6000061-3.3999939
		c5.6000061-6.1000061,11.5-12,17.2999878-17.6000061l1.8999939-1.7999878
		c1.2000122-1.2000122,2.3999939-2.3999939,3.7000122-3.6000061c1.2000122-1.2000122,2.3999939-2.3999939,3.6000061-3.6000061
		c6.1000061-6.1000061,12.7999878-9.2999878,19.5-9.2999878s13.3999939,3.2000122,19.5,9.2999878l23.7999878,23.7999878
		c2.6000061,2.6000061,5.2999878,5.2999878,8,7.7999878c5,4.8999939,10.3999939,10.1000061,15.2999878,15.5
		c0.1000061,0.1000061,0.2000122,0.2000122,0.2999878,0.3999939c3.8999939,3.8999939,8.3999939,10.2999878,8.3999939,18.6000061
		C390.5,444.6000061,387.6000061,451.2000122,382,457z"/>
	<path class="st1" d="M277.2999878,258.3999939h-36.5c0.1000061-4.3999939,6.8999939-9,14.6999969-14.3000031
		C268.8999939,234.8999939,285.5,223.4999847,285.5,203.6999817c0-20.3999939-18.1000061-31.3999939-35.1000061-31.3999939
		c-16.5,0-34.1000061,10.1999969-34.1000061,29.1999969c0,8.6999969,3.8999939,13.1999969,11.6000061,13.1999969
		c8.6000061,0,13.3000031-5,13.3000031-9.6999969c0-7.8000031,5.1000061-9.3999939,9.3999939-9.3999939
		c6.9999847,0,9.5999908,4.8000031,9.5999908,8.8000031c0,8-9.8999939,15.1999969-20.3999939,22.8999939
		c-12.3999939,9.1000061-25.1999969,18.5-25.1999969,31.2000122v14c0,5.2000122,6.6000061,8.3999939,11.3000031,8.3999939h51.5
		c4.3999939,0,8.2000122-5.2999878,8.2000122-11.3999939C285.5,263.5,281.7999878,258.3999939,277.2999878,258.3999939z"/>
	<path class="st1" d="M354.3999939,234.8999939h-4.7999878v-8.6999969c0-5-5-8.1999969-12.7000122-8.1999969
		s-12.7000122,3.1999969-12.7000122,8.1999969v8.6999969h-8.7000122l24.6000061-49.3000031
		c0.3999939-1,0.7999878-2.1000061,0.7999878-3.3000031c0-6.1999969-8.2000122-10-12.7000122-10
		c-4.7000122,0-8.5,2.3000031-10.7000122,6.6000061l-33.3999939,65.5c-1.2000122,2.1000061-1.2999878,4.1000061-1.2999878,5
		c0,5.5,3.6000061,9.2999878,9,9.2999878h32.3999939v13.8999939c0,5.7999878,6.6000061,8.3999939,12.7000122,8.3999939
		s12.7000122-2.6000061,12.7000122-8.3999939v-13.8999939h4.7999878c4.2999878,0,8.3999939-5.8000031,8.3999939-11.8999939
		C362.7999878,241.1000061,360.2000122,234.8999939,354.3999939,234.8999939z"/>
</g>
</svg>
