<?xml version="1.0" encoding="utf-8"?>
<!-- Generator: Adobe Illustrator 22.1.0, SVG Export Plug-In . SVG Version: 6.00 Build 0)  -->
<svg version="1.1" id="Layer_1" xmlns="http://www.w3.org/2000/svg" xmlns:xlink="http://www.w3.org/1999/xlink" x="0px" y="0px"
	 viewBox="0 0 512 380.6" style="enable-background:new 0 0 512 380.6;" xml:space="preserve">
<style type="text/css">
	.st0{fill:#0496FF;}
	.st1{fill:#00487C;}
</style>
<polygon class="st0" points="411.9,65.4 411.9,208.8 369.7,183 327.5,208.8 327.5,65.4 "/>
<g>
	<path class="st1" d="M411.9,222.8c-2.5,0-5.1-0.7-7.3-2.1l-34.8-21.2l-34.8,21.2c-4.3,2.7-9.8,2.7-14.2,0.3
		c-4.4-2.5-7.2-7.2-7.2-12.3V65.4c0-7.8,6.3-14.1,14.1-14.1h84.4c7.8,0,14.1,6.3,14.1,14.1v143.4c0,5.1-2.8,9.8-7.2,12.3
		C416.6,222.2,414.3,222.8,411.9,222.8z M369.7,168.9c2.5,0,5.1,0.7,7.3,2.1l20.8,12.7V79.5h-56.2v104.2l20.8-12.7
		C364.6,169.6,367.2,168.9,369.7,168.9z"/>
	<path class="st1" d="M142.3,195.4H14.1c-7.8,0-14.1-6.3-14.1-14.1s6.3-14.1,14.1-14.1h128.2c7.8,0,14.1,6.3,14.1,14.1
		C156.4,189.1,150.1,195.4,142.3,195.4z"/>
	<path class="st1" d="M142.3,259.5H56.4c-7.8,0-14.1-6.3-14.1-14.1s6.3-14.1,14.1-14.1h85.9c7.8,0,14.1,6.3,14.1,14.1
		S150.1,259.5,142.3,259.5z"/>
	<path class="st1" d="M142.3,323.6H98.6c-7.8,0-14.1-6.3-14.1-14.1s6.3-14.1,14.1-14.1h43.7c7.8,0,14.1,6.3,14.1,14.1
		S150.1,323.6,142.3,323.6z"/>
	<path class="st1" d="M421.8,380.6H187.9c-32.4,0-58.8-26.4-58.8-58.8V181.6c0-7.8,6.3-14.1,14.1-14.1s14.1,6.3,14.1,14.1v140.3
		c0,16.9,13.7,30.6,30.6,30.6h233.9c16.9,0,30.6-13.7,30.6-30.6V53.2c0-7.8,6.3-14.1,14.1-14.1s14.1,6.3,14.1,14.1v268.6
		C480.6,354.3,454.2,380.6,421.8,380.6z"/>
</g>
<rect x="111.8" y="14.1" class="st0" width="386.1" height="90.7"/>
<path class="st1" d="M497.9,118.8H111.8c-7.8,0-14.1-6.3-14.1-14.1V14.1C97.7,6.3,104,0,111.8,0h386.1c7.8,0,14.1,6.3,14.1,14.1
	v90.7C512,112.5,505.7,118.8,497.9,118.8z M125.9,90.7h357.9V28.2H125.9V90.7z"/>
</svg>
