<?xml version="1.0" encoding="utf-8"?>
<!-- Generator: Adobe Illustrator 22.1.0, SVG Export Plug-In . SVG Version: 6.00 Build 0)  -->
<svg version="1.1" id="Layer_1" xmlns="http://www.w3.org/2000/svg" xmlns:xlink="http://www.w3.org/1999/xlink" x="0px" y="0px"
	 viewBox="0 0 512 512" style="enable-background:new 0 0 512 512;" xml:space="preserve">
<style type="text/css">
	.st0{fill:#00487C;}
	.st1{fill:#0496FF;}
</style>
<path class="st0" d="M156.7,476.9c-9.8,0-24.2-4.8-56.2-40.6c-16.2-18.2-29.5-36-30.1-36.8c-0.4-0.5-0.7-1-1-1.6
	c-6.1-10.9-9.3-23.3-9.3-35.8v-90.9c0-7.9,6.4-14.4,14.3-14.4h116.1c16.6,0,32.3,6.4,44.2,18.1l59.4,58.5
	c17.2,17.2,17.2,45.1,0.1,62.2c0,0-0.1,0.1-0.2,0.2c-8.2,8.2-19.3,12.8-31,12.8c-11.7,0-22.8-4.6-31.1-12.9l-59.4-59.4
	c-5.8,0-15.3-0.1-22.8-0.1l-11.1-0.1c-7.9,0-14.3-6.5-14.3-14.4c0-7.9,6.5-14.3,14.3-14.3c0,0,0.1,0,0.1,0l11.1,0.1
	c6.8,0,13.9,0.1,19.5,0.1c2.8,0,5.1,0,6.8,0.1c4,0,8.5,0.1,12.7,4.3l63.5,63.5c2.9,2.9,6.7,4.5,10.8,4.5c4.1,0,7.9-1.6,10.8-4.5
	c0,0,0.1-0.1,0.2-0.2c5.9-5.9,5.9-15.5-0.1-21.5l-59.4-58.4c-6.4-6.3-15-9.8-24-9.8H88.9v76.5c0,7.3,1.8,14.6,5.2,21.1
	c2.6,3.5,13.6,17.9,26.5,32.4c25.5,28.8,35.2,32.2,36.5,32.6l155.1,0c10.6,0,22.9-5.5,34.6-11.2c9.9-4.8,83.3-54.6,127.3-84.9
	c0.2-0.2,0.5-0.3,0.7-0.5c8.2-4.9,10.9-15.6,5.9-23.8c-2.4-4-6.2-6.8-10.7-7.9c-4.4-1.1-9-0.4-12.9,1.8L350,392.8
	c-6.6,4.4-15.5,2.6-19.9-4c-4.4-6.6-2.6-15.5,4-19.9l107.5-71.3c0.2-0.1,0.3-0.2,0.5-0.3c10.5-6.3,22.9-8.2,34.9-5.2
	c11.9,3,22,10.4,28.4,20.9c13,21.6,6.1,49.8-15.3,63c-13.3,9.2-115.8,79.6-130.7,86.8c-14.7,7.1-30.5,14.1-47.1,14.1L156.7,476.9
	C156.8,476.9,156.7,476.9,156.7,476.9z"/>
<rect x="14.4" y="253.6" class="st1" width="84.1" height="189.6"/>
<path class="st0" d="M98.5,457.5H14.4c-7.9,0-14.4-6.4-14.4-14.4V253.6c0-7.9,6.4-14.4,14.4-14.4h84.1c7.9,0,14.3,6.4,14.3,14.4
	v189.6C112.8,451.1,106.4,457.5,98.5,457.5z M28.7,428.8h55.4V268H28.7V428.8z"/>
<path class="st1" d="M431.5,111c-0.7-2.1-1.4-4.2-2.3-6.3c-1.1-2.7-2.4-5.4-3.8-8c-0.7-1.3-1.4-2.6-2.2-3.9c-1.5-2.5-3.2-5-5-7.4
	c-3.1-4.1-6.7-8-10.6-11.6c-17.4-15.7-41-24.4-66.4-24.4s-49,8.7-66.4,24.4c-18,16.3-28,39.1-28,64.1c0,39.2,16.3,55,29.3,67.8
	c9,8.8,16.3,14.9,18.1,29h46.9h46.9c1.8-14.3,9.1-20.3,18.2-29.2c3.3-3.2,6.7-6.5,10.1-10.4c1.7-1.9,3.3-4,4.9-6.2
	c0.4-0.6,0.8-1.1,1.2-1.7c1.2-1.7,2.3-3.6,3.4-5.5c0.4-0.6,0.7-1.3,1-2c5.1-10.2,8.7-23.4,8.7-41.7
	C435.6,128.6,434.2,119.5,431.5,111z"/>
<g>
	<path class="st0" d="M388.1,249h-93.8c-7.2,0-13.3-5.3-14.2-12.5c-1-7.7-3.9-10.8-12.1-18.8l-1.8-1.8c-13.4-13.1-33.7-32.8-33.7-78
		c0-29.1,11.6-55.7,32.7-74.7c20-18.1,47-28.1,76.1-28.1c29,0,56,10,76.1,28.1c4.6,4.1,8.8,8.7,12.4,13.5c2.1,2.7,4.1,5.6,5.9,8.6
		c0.9,1.4,1.7,3,2.6,4.5c1.6,3,3.1,6.2,4.4,9.4c1,2.4,1.9,4.9,2.6,7.4c3.2,10,4.8,20.5,4.8,31.3c0,18.8-3.4,34.5-10.2,48.2
		c-0.4,0.8-0.8,1.6-1.3,2.4c-1.2,2.2-2.6,4.5-4,6.6c-0.5,0.7-0.9,1.4-1.4,2c-1.8,2.5-3.7,4.9-5.8,7.3c-3.8,4.3-7.6,8-10.9,11.3
		l-1.9,1.9c-8.2,7.8-11,11-12,18.8C401.4,243.7,395.3,249,388.1,249z M305.3,220.3h71.6c4-10.4,10.8-16.9,17.5-23.3l1.9-1.8
		c3.1-3,6.3-6.1,9.2-9.5c1.5-1.7,2.8-3.4,4.1-5.2c0.3-0.4,0.6-0.9,0.9-1.4c1-1.4,1.9-2.9,2.7-4.4c0.3-0.5,0.6-1,0.8-1.6
		c4.8-9.5,7.2-21.1,7.2-35.2c0-7.8-1.2-15.5-3.4-22.6c-0.6-1.8-1.2-3.5-1.9-5.2c-0.9-2.3-2-4.5-3.1-6.7c-0.6-1.1-1.2-2.2-1.8-3.2
		c-1.3-2.1-2.7-4.2-4.1-6.1c-2.6-3.5-5.6-6.7-8.9-9.6c-14.7-13.3-34.9-20.7-56.8-20.7c-21.9,0-42.1,7.3-56.8,20.7
		c-15,13.6-23.2,32.6-23.2,53.5c0,33.1,12.7,45.5,25,57.5l1.8,1.7C294.5,203.5,301.3,210.1,305.3,220.3z"/>
	<path class="st0" d="M341.2,249c-7.9,0-14.4-6.4-14.4-14.4v-50.6c0-7.9,6.4-14.4,14.4-14.4s14.4,6.4,14.4,14.4v50.6
		C355.5,242.6,349.1,249,341.2,249z"/>
	<path class="st0" d="M341.2,201.2c-3.7,0-7.3-1.4-10.1-4.2l-33.2-33.2c-5.6-5.6-5.6-14.7,0-20.3c5.6-5.6,14.7-5.6,20.3,0l23.1,23.1
		l23.1-23.1c5.6-5.6,14.7-5.6,20.3,0s5.6,14.7,0,20.3L351.3,197C348.5,199.8,344.8,201.2,341.2,201.2z"/>
	<path class="st0" d="M359.7,302.1h-37c-24.2,0-43.9-19.7-43.9-43.9v-26.6c0-7.9,6.4-14.4,14.4-14.4h95.4c7.9,0,14.4,6.4,14.4,14.4
		c0,7.9-6.4,14.4-14.4,14.4h-81.1v12.3c0,8.4,6.8,15.2,15.2,15.2h37c7.9,0,14.4,6.4,14.4,14.4C374,295.7,367.6,302.1,359.7,302.1z"
		/>
</g>
</svg>
