<?xml version="1.0" encoding="utf-8"?>
<!-- Generator: Adobe Illustrator 22.1.0, SVG Export Plug-In . SVG Version: 6.00 Build 0)  -->
<svg version="1.1" id="Layer_1" xmlns="http://www.w3.org/2000/svg" xmlns:xlink="http://www.w3.org/1999/xlink" x="0px" y="0px"
	 viewBox="0 0 512 512" style="enable-background:new 0 0 512 512;" xml:space="preserve">
<style type="text/css">
	.st0{fill:#00487C;}
	.st1{fill:#0496FF;}
</style>
<g>
	<path class="st0" d="M254.8,494.8c-130.9,0-237.3-106.5-237.3-237.3c0-130.9,106.5-237.3,237.3-237.3
		c130.9,0,237.3,106.5,237.3,237.3c0,8.2-6.6,14.8-14.8,14.8c-8.2,0-14.8-6.6-14.8-14.8c0-114.5-93.2-207.7-207.7-207.7
		C140.3,49.8,47.1,143,47.1,257.5c0,114.5,93.2,207.7,207.7,207.7c8.2,0,14.8,6.6,14.8,14.8C269.6,488.2,263,494.8,254.8,494.8z"/>
	<path class="st0" d="M254.8,423.1c-91.4,0-165.7-74.3-165.7-165.7S163.4,91.8,254.8,91.8c8.2,0,14.8,6.6,14.8,14.8
		s-6.6,14.8-14.8,14.8c-75,0-136,61-136,136s61,136,136,136s136-61,136-136c0-8.2,6.6-14.8,14.8-14.8c8.2,0,14.8,6.6,14.8,14.8
		C420.4,348.8,346.1,423.1,254.8,423.1z"/>
</g>
<circle class="st1" cx="254.8" cy="257.5" r="79.2"/>
<g>
	<path class="st0" d="M254.8,351.5c-51.8,0-94-42.2-94-94c0-51.8,42.2-94,94-94s94,42.2,94,94S306.6,351.5,254.8,351.5z
		 M254.8,193.1c-35.5,0-64.3,28.9-64.3,64.3s28.9,64.3,64.3,64.3c35.5,0,64.3-28.9,64.3-64.3S290.2,193.1,254.8,193.1z"/>
	<path class="st0" d="M254.8,66.5c-8.2,0-14.8-6.6-14.8-14.8V17.3c0-8.2,6.6-14.8,14.8-14.8c8.2,0,14.8,6.6,14.8,14.8v34.4
		C269.6,59.9,263,66.5,254.8,66.5z"/>
	<path class="st0" d="M254.8,512c-8.2,0-14.8-6.6-14.8-14.8v-34.4c0-8.2,6.6-14.8,14.8-14.8c8.2,0,14.8,6.6,14.8,14.8v34.4
		C269.6,505.4,263,512,254.8,512z"/>
	<path class="st0" d="M494.7,272.1h-34.4c-8.2,0-14.8-6.6-14.8-14.8c0-8.2,6.6-14.8,14.8-14.8h34.4c8.2,0,14.8,6.6,14.8,14.8
		C509.5,265.4,502.9,272.1,494.7,272.1z"/>
	<path class="st0" d="M49.2,272.1H14.8c-8.2,0-14.8-6.6-14.8-14.8c0-8.2,6.6-14.8,14.8-14.8h34.4c8.2,0,14.8,6.6,14.8,14.8
		C64.1,265.4,57.4,272.1,49.2,272.1z"/>
	<path class="st0" d="M249.7,277.1c-3.8,0-7.6-1.4-10.5-4.3c-5.8-5.8-5.8-15.2,0-21l134.3-134.3c5.8-5.8,15.2-5.8,21,0
		c5.8,5.8,5.8,15.2,0,21L260.2,272.8C257.3,275.7,253.5,277.1,249.7,277.1z"/>
</g>
<polygon class="st1" points="431.6,154.9 371.8,140.2 357.1,80.4 422.7,14.8 446.8,65.2 497.2,89.3 "/>
<path class="st0" d="M431.6,169.7c-1.2,0-2.4-0.1-3.5-0.4l-59.8-14.7c-5.4-1.3-9.6-5.5-10.9-10.9l-14.7-59.8c-1.2-5,0.2-10.4,3.9-14
	l65.6-65.6c3.4-3.4,8.2-5,13-4.1c4.7,0.8,8.8,3.9,10.9,8.2l21.8,45.7l45.7,21.8c4.3,2.1,7.4,6.1,8.2,10.9c0.8,4.7-0.7,9.6-4.1,13
	l-65.6,65.6C439.3,168.2,435.5,169.7,431.6,169.7z M384.1,127.9l43,10.5l44.8-44.8l-31.5-15.1c-3.1-1.5-5.5-3.9-7-7l-15.1-31.5
	L373.5,85L384.1,127.9z"/>
</svg>
