<?xml version="1.0" encoding="utf-8"?>
<!-- Generator: Adobe Illustrator 22.1.0, SVG Export Plug-In . SVG Version: 6.00 Build 0)  -->
<svg version="1.1" id="Layer_1" xmlns="http://www.w3.org/2000/svg" xmlns:xlink="http://www.w3.org/1999/xlink" x="0px" y="0px"
	 viewBox="0 0 512 512" style="enable-background:new 0 0 512 512;" xml:space="preserve">
<style type="text/css">
	.st0{fill:#00487C;}
	.st1{fill:#0496FF;}
</style>
<g>
	<path class="st0" d="M336,512C336,512,336,512,336,512H176c-4.8,0-9.3-2.4-11.9-6.5c-2.6-4-3-9.1-1.1-13.5l42.8-97
		c2.3-5.2,7.4-8.5,13.1-8.5h74.3c5.7,0,10.8,3.3,13,8.5l42.4,96.2c1,2,1.6,4.2,1.6,6.6C350.3,505.6,343.9,512,336,512z M197.9,483.5
		h116.2L283.9,415h-55.7L197.9,483.5z"/>
	<path class="st0" d="M23.3,362.3C15.4,362.3,9,355.9,9,348V92.7c0-7.9,6.4-14.3,14.3-14.3h465.5c7.9,0,14.3,6.4,14.3,14.3v166.2
		c0,7.9-6.4,14.3-14.3,14.3s-14.3-6.4-14.3-14.3V107H37.5v241C37.5,355.9,31.1,362.3,23.3,362.3z"/>
</g>
<path class="st1" d="M71.7,426.5h368.6c26.7,0,48.4-21.7,48.4-48.4v-30H23.3v30C23.3,404.8,45,426.5,71.7,426.5z"/>
<path class="st0" d="M440.3,440.7H71.7C37.1,440.7,9,412.6,9,378v-30c0-7.9,6.4-14.3,14.3-14.3h465.5c7.9,0,14.3,6.4,14.3,14.3v30
	C503,412.6,474.9,440.7,440.3,440.7z M37.5,362.3V378c0,18.8,15.3,34.2,34.2,34.2h368.6c18.8,0,34.2-15.3,34.2-34.2v-15.8H37.5
	L37.5,362.3z"/>
<path class="st0" d="M488.7,107H23.3C15.4,107,9,100.6,9,92.7v-30C9,28.1,37.1,0,71.7,0h368.6C474.9,0,503,28.1,503,62.7v30
	C503,100.6,496.6,107,488.7,107z M37.5,78.4h436.9V62.7c0-18.8-15.3-34.2-34.2-34.2H71.7c-18.8,0-34.2,15.3-34.2,34.2L37.5,78.4z"/>
<path class="st0" d="M264.3,278.1l25.6-34l-23.1-30.8c-0.9-1.1-2.3-3.4-2.3-5.7c0-7.9,14.7-17.7,23.8-17.7c1.4,0,5.4,0.2,7.5,3.6
	l18.1,29.7l18.3-29.4c1.8-2.9,5.4-3.8,7.9-3.8c8.1,0,23.3,9.7,23.3,17.7c0,1.8-0.7,3.4-2.3,5.7l-23.3,31l25.8,33.7
	c0.9,1.1,2,3.6,2,5.9c0,7.5-13.8,17.4-23.1,17.4c-2.7,0-6.1-0.9-7.9-3.6l-20.8-31.2l-20.6,31.2c-1.8,2.5-5.9,3.6-8.4,3.6
	c-7.2,0-22.6-9.3-22.6-17.4C262.3,281.9,263.2,279.6,264.3,278.1z"/>
<path class="st0" d="M207,305.2c-8.7,0-16.1-5.5-18.7-13.9l-22.7-74.9h-34.5c-7.9,0-14.3-6.4-14.3-14.3s6.4-14.3,14.3-14.3h41.2
	c8.7,0,16.2,5.6,18.7,13.9l14.9,49.2l23.7-101.4c2.1-8.9,9.9-15.1,19-15.1h132.2c7.9,0,14.3,6.4,14.3,14.3s-6.4,14.3-14.3,14.3
	H255.8L226.1,290c-2,8.7-9.4,14.8-18.4,15.1C207.5,305.1,207.3,305.2,207,305.2z"/>
</svg>
