<?xml version="1.0" encoding="utf-8"?>
<!-- Generator: Adobe Illustrator 22.1.0, SVG Export Plug-In . SVG Version: 6.00 Build 0)  -->
<svg version="1.1" id="Layer_1" xmlns="http://www.w3.org/2000/svg" xmlns:xlink="http://www.w3.org/1999/xlink" x="0px" y="0px"
	 viewBox="0 0 512 512" style="enable-background:new 0 0 512 512;" xml:space="preserve">
<style type="text/css">
	.st0{fill:#00487C;}
	.st1{fill:#0496FF;}
</style>
<path class="st0" d="M415.7,394.8H66.2C29.7,394.8,0,365.1,0,328.6V88.9c0-33.7,27.4-61.1,61.1-61.1h389.8
	c33.7,0,61.1,27.4,61.1,61.1v226c0,8.3-6.7,15-15,15c-8.3,0-15-6.7-15-15v-226c0-17.1-13.9-31-31-31H61.1c-17.1,0-31,13.9-31,31
	v239.7c0,19.9,16.2,36.1,36.1,36.1h349.5c8.3,0,15,6.7,15,15C430.7,388.1,424,394.8,415.7,394.8z"/>
<path class="st1" d="M256,237L497,88.9c0-25.4-20.6-46.1-46.1-46.1H61.1C35.7,42.9,15,63.5,15,88.9L256,237L256,237z"/>
<g>
	<path class="st0" d="M256,252c-2.7,0-5.5-0.7-7.9-2.2L7.2,101.7C2.7,99,0,94.2,0,88.9c0-33.7,27.4-61.1,61.1-61.1h389.8
		c33.7,0,61.1,27.4,61.1,61.1c0,5.2-2.7,10.1-7.2,12.8l-241,148.1C261.5,251.3,258.7,252,256,252z M31.1,81.1L256,219.4L480.9,81.1
		c-3.5-13.4-15.6-23.2-30-23.2H61.1C46.7,57.9,34.5,67.8,31.1,81.1z"/>
	<path class="st0" d="M396.1,445.1H122.7c-8.3,0-15-6.7-15-15c0-8.3,6.7-15,15-15h273.4c8.3,0,15,6.7,15,15
		C411.1,438.4,404.4,445.1,396.1,445.1z"/>
</g>
<polygon class="st1" points="392.9,342.2 488.2,405.6 392.9,469.1 "/>
<path class="st0" d="M392.9,484.2c-2.4,0-4.9-0.6-7.1-1.8c-4.9-2.6-7.9-7.7-7.9-13.3v-127c0-5.5,3.1-10.6,7.9-13.3
	c4.9-2.6,10.8-2.3,15.4,0.7l95.3,63.5c4.2,2.8,6.7,7.5,6.7,12.5s-2.5,9.7-6.7,12.5l-95.3,63.5C398.7,483.3,395.8,484.2,392.9,484.2z
	 M408,370.2v70.8l53.2-35.4L408,370.2z"/>
</svg>
