<?xml version="1.0" encoding="utf-8"?>
<!-- Generator: Adobe Illustrator 22.1.0, SVG Export Plug-In . SVG Version: 6.00 Build 0)  -->
<svg version="1.1" id="Layer_1" xmlns="http://www.w3.org/2000/svg" xmlns:xlink="http://www.w3.org/1999/xlink" x="0px" y="0px"
	 viewBox="0 0 512 512" style="enable-background:new 0 0 512 512;" xml:space="preserve">
<style type="text/css">
	.st0{fill:#FFFFFF;}
	.st1{fill:#0496FF;}
</style>
<path class="st0" d="M256,512c-4.9,0-9.4-2.4-12.3-6.4L134.5,350.7c-3.2-4.6-3.6-10.6-1.1-15.5c2.6-5,7.7-8.1,13.3-8.1H196V225.8
	c0-8.3,6.7-15,15-15H301c8.3,0,15,6.7,15,15v101.3h49.3c5.6,0,10.7,3.1,13.3,8.1c2.6,5,2.2,11-1.1,15.5L344.9,397
	c-4.8,6.8-14.1,8.4-20.9,3.6c-6.8-4.8-8.4-14.1-3.6-20.9l16-22.7H301c-8.3,0-15-6.7-15-15V240.8H226v101.3c0,8.3-6.7,15-15,15h-35.3
	L256,471l22-31.2c4.8-6.8,14.1-8.4,20.9-3.6c6.8,4.8,8.4,14.1,3.6,20.9l-34.3,48.6C265.4,509.6,260.9,512,256,512z"/>
<path class="st1" d="M397.1,160.4c0.5-4.9,0.9-9.8,0.9-14.8C397.9,73.5,339.5,15,267.3,15c-65.2,0-119.2,47.8-129,110.2
	C81.8,129,37.2,176,37.2,233.4c0,58.8,46.8,106.7,105.2,108.4v0.1h3.2c0,0,0,0,0,0c0,0,0,0,0,0H211V225.8H301v30.6v85.4h82.6
	c50.4,0,91.2-40.8,91.2-91.2C474.8,204.8,441.1,166.9,397.1,160.4z"/>
<path class="st0" d="M383.6,356.9H301c-8.3,0-15-6.7-15-15V240.8H226v101.1c0,8.3-6.7,15-15,15h-68.6c-0.7,0-1.4,0-2.1-0.1
	c-31.6-1.3-61-14.5-83.2-37.3c-22.5-23.2-35-53.7-35-86.1c0-60.8,44.6-112.3,103.6-121.8c7.1-29.5,23.3-56.2,46.5-76.2
	C198.7,12.5,232.4,0,267.3,0c80.3,0,145.6,65.3,145.6,145.6c0,1,0,1.9,0,2.9c19.6,5.6,37.3,16.8,50.9,32.4
	c16.8,19.3,26.1,44.1,26.1,69.7C489.8,309.2,442.2,356.9,383.6,356.9z M316,326.9h67.6c42,0,76.2-34.2,76.2-76.2
	c0-37.5-27.9-69.9-65-75.4c-8-1.2-13.6-8.5-12.7-16.5c0.5-4.5,0.8-8.9,0.8-13.1C382.9,81.9,331.1,30,267.3,30
	C210,30,162,71,153.1,127.5c-1.1,6.9-6.8,12.2-13.8,12.6c-48.9,3.3-87.2,44.2-87.2,93.2c0,50.9,39.8,91.9,90.7,93.4
	c0.4,0,0.7,0,1.1,0.1h52V225.8c0-8.3,6.7-15,15-15H301c8.3,0,15,6.7,15,15L316,326.9L316,326.9z"/>
</svg>
