<?xml version="1.0" encoding="utf-8"?>
<!-- Generator: Adobe Illustrator 22.1.0, SVG Export Plug-In . SVG Version: 6.00 Build 0)  -->
<svg version="1.1" id="Layer_1" xmlns="http://www.w3.org/2000/svg" xmlns:xlink="http://www.w3.org/1999/xlink" x="0px" y="0px"
	 viewBox="0 0 512 512" style="enable-background:new 0 0 512 512;" xml:space="preserve">
<style type="text/css">
	.st0{fill:#0496FF;}
	.st1{fill:#00487C;}
</style>
<path class="st0" d="M334.7,213.5l0.1-10.7c0-3,73.7,82.5,73.7,82.5c12.3,13.9,19.1,31.8,19.1,50.3v88.2c0,6-4.8,10.8-10.8,10.8
	c-6,0-10.8-4.8-10.8-10.8v-28.4l-68.5-66.5c-1.8-2.1-2.6-4.6-2.6-7.2h-0.1L334.7,213.5L334.7,213.5L334.7,213.5z"/>
<path class="st1" d="M416.7,448.5c-13.6,0-24.7-11.1-24.7-24.7v-22.5l-64.3-62.4c-0.2-0.2-0.5-0.5-0.7-0.7c-3.4-3.8-5.5-8.7-6-13.9
	c-0.1-0.8-0.2-1.6-0.2-2.5V213.9c0-0.2,0-0.4,0-0.6l0.1-10.7c0.1-7.6,6.3-13.9,14-13.9c7,0,9.7,3,22.8,17.5
	c6.3,6.9,14.8,16.5,25.3,28.6c17.4,19.8,34.7,39.9,35.9,41.3c14.6,16.4,22.6,37.5,22.6,59.5v88.2
	C441.5,437.4,430.4,448.5,416.7,448.5z M348.6,320.4l65,63.1v-47.9c0-15.2-5.5-29.8-15.6-41.1c0-0.1-0.1-0.1-0.1-0.2
	c-15.1-17.5-34.5-39.8-49.3-56.5V320C348.6,320.1,348.6,320.3,348.6,320.4z"/>
<path class="st0" d="M177.3,213.5l-0.1-10.7c0-3-73.7,82.5-73.7,82.5c-12.3,13.9-19.1,31.8-19.1,50.3v88.2c0,6,4.8,10.8,10.8,10.8
	c6,0,10.8-4.8,10.8-10.8v-28.4l68.5-66.5c1.8-2.1,2.6-4.6,2.6-7.2h0.1L177.3,213.5L177.3,213.5L177.3,213.5L177.3,213.5z"/>
<g>
	<path class="st1" d="M95.3,448.5c-13.6,0-24.7-11.1-24.7-24.7v-88.2c0-22,8-43.1,22.6-59.5c1.2-1.4,18.5-21.5,35.9-41.3
		c10.6-12,19.1-21.6,25.3-28.6c13.1-14.5,15.8-17.5,22.8-17.5c7.7,0,14,6.3,14,14l0.1,10.6c0,0.2,0,0.4,0,0.5v107.8
		c0,0.8-0.1,1.7-0.2,2.5c-0.5,5.2-2.6,10.1-6,14c-0.2,0.3-0.5,0.5-0.7,0.7L120,401.3v22.5C120,437.4,108.9,448.5,95.3,448.5z
		 M163.4,237.8c-14.8,16.8-34.2,39-49.3,56.5c0,0.1-0.1,0.1-0.1,0.2c-10.1,11.3-15.6,25.9-15.6,41.1v47.9l65-63.1c0-0.1,0-0.3,0-0.4
		L163.4,237.8L163.4,237.8L163.4,237.8z"/>
	<path class="st1" d="M308.4,396.4H203.6c-22.1,0-40.1-16.7-40.1-37.2V139.1c0-10.6,3.1-21,8.8-30.1l61-96.7
		C238.1,4.6,246.6,0,256,0c0,0,0,0,0,0c9.4,0,17.9,4.6,22.7,12.2l61,96.7c5.8,9.1,8.8,19.6,8.8,30.1c0,7.7-6.2,13.9-13.9,13.9
		s-13.9-6.2-13.9-13.9c0-5.3-1.6-10.6-4.5-15.3L256,28.4l-60.2,95.4c-3,4.7-4.5,10-4.5,15.3v220.1c0,5.1,5.6,9.3,12.3,9.3h104.9
		c6.7,0,12.3-4.3,12.3-9.3V203.1c0-7.7,6.2-13.9,13.9-13.9c7.7,0,13.9,6.2,13.9,13.9v156.1C348.6,379.7,330.6,396.4,308.4,396.4z"/>
</g>
<path class="st0" d="M299.5,436.7c0,24-43.5,61.4-43.5,61.4s-43.5-37.3-43.5-61.4c0-24,19.5-43.5,43.5-43.5S299.5,412.7,299.5,436.7
	z"/>
<g>
	<path class="st1" d="M256,512c-3.2,0-6.5-1.1-9.1-3.4c-8.1-6.9-48.4-43-48.4-71.9c0-31.7,25.8-57.4,57.4-57.4s57.4,25.8,57.4,57.4
		c0,29-40.3,65-48.4,71.9C262.5,510.9,259.2,512,256,512z M256,407.1c-16.3,0-29.6,13.3-29.6,29.6c0,9.4,15.2,28.3,29.6,42.4
		c14.4-14.2,29.6-33,29.6-42.4C285.6,420.4,272.3,407.1,256,407.1z"/>
	<path class="st1" d="M256,221.2c-26.9,0-48.7-21.8-48.7-48.7s21.8-48.7,48.7-48.7c7.7,0,13.9,6.2,13.9,13.9s-6.2,13.9-13.9,13.9
		c-11.5,0-20.9,9.4-20.9,20.9s9.4,20.9,20.9,20.9s20.9-9.4,20.9-20.9c0-7.7,6.2-13.9,13.9-13.9c7.7,0,13.9,6.2,13.9,13.9
		C304.7,199.4,282.9,221.2,256,221.2z"/>
</g>
<path class="st0" d="M177.3,303.8v55.4c0,12.8,11.7,23.2,26.2,23.2h104.9c14.5,0,26.2-10.4,26.2-23.2v-55.4H177.3z"/>
<path class="st1" d="M308.4,396.4H203.6c-22.1,0-40.1-16.7-40.1-37.2v-55.4c0-7.7,6.2-13.9,13.9-13.9h157.3
	c7.7,0,13.9,6.2,13.9,13.9v55.4C348.6,379.7,330.6,396.4,308.4,396.4z M191.3,317.7v41.5c0,5.1,5.6,9.3,12.3,9.3h104.9
	c6.7,0,12.3-4.3,12.3-9.3v-41.5L191.3,317.7L191.3,317.7z"/>
</svg>
