<?xml version="1.0" encoding="utf-8"?>
<!-- Generator: Adobe Illustrator 22.1.0, SVG Export Plug-In . SVG Version: 6.00 Build 0)  -->
<svg version="1.1" id="Capa_1" xmlns="http://www.w3.org/2000/svg" xmlns:xlink="http://www.w3.org/1999/xlink" x="0px" y="0px"
	 viewBox="0 0 368 368" style="enable-background:new 0 0 368 368;" xml:space="preserve">
<style type="text/css">
	.st0{fill:#0496FF;}
	.st1{fill:#FFFFFF;}
</style>
<path class="st0" d="M184,7.9999933c97.2000122,0,176,78.8000031,176,176s-78.7999878,176-176,176S8,281.2000122,8,184
	S86.8000031,7.9999933,184,7.9999933z M294.8800049,248C305.7600098,229.1999969,312,207.3600006,312,184
	c0-70.7200089-57.2799988-128-128-128S56,113.2799911,56,184c0,23.3600006,6.2399979,45.1999969,17.1200027,64
	C95.2000046,286.2399902,136.6399994,312,184,312S272.7999878,286.2399902,294.8800049,248z"/>
<g>
	<path class="st1" d="M184-0.0000067c-101.4560013,0-184,82.5439987-184,184s82.5439987,184,184,184s184-82.5440063,184-184
		S285.4559937-0.0000067,184-0.0000067z M184,352c-92.6399994,0-168-75.3599854-168-168s75.3600006-168,168-168
		S352,91.359993,352,184S276.6400146,352,184,352z"/>
	<path class="st1" d="M280.1359863,87.8639908c-0.0320129-0.0319977-0.0799866-0.0400009-0.1119995-0.0719986
		C255.4080048,63.215992,221.447998,47.9999924,184,47.9999924S112.5920029,63.215992,87.9759979,87.783989
		c-0.0319977,0.0319977-0.0800018,0.0400009-0.1119995,0.0719986s-0.0400009,0.0800018-0.0719986,0.1119995
		C63.2159996,112.5919952,48,146.552002,48,184c0,23.9199982,6.288002,47.423996,18.1839981,67.9840088
		c0,0.0079956,0,0.0160065,0.0080032,0.0160065C90.4080048,293.9440308,135.552002,320,184,320
		s93.5920105-26.0559998,117.8079834-68c0-0.0079956,0-0.0160065,0.0079956-0.0160065
		C313.7120056,231.423996,320,207.9199982,320,184c0-37.447998-15.2160034-71.4080048-39.7839966-96.0240097
		C280.1759949,87.9439926,280.1679993,87.8959961,280.1359863,87.8639908z M264,192h39.5119934
		c-1.1199951,16.7919922-5.5279846,33.1920013-13.3519897,48H77.8320007c-7.8239975-14.8079987-12.2320023-31.2080078-13.3519974-48
		H104c4.4160004,0,8-3.5839996,8-8s-3.5839996-8-8-8H64.4079971c1.8000031-27.0639954,12.552002-51.6560059,29.3919983-70.8880081
		l27.9840012,27.9840012c1.5599976,1.5599976,3.6080017,2.3439941,5.6559982,2.3439941s4.0960007-0.7839966,5.6559982-2.3439941
		c3.128006-3.128006,3.128006-8.1840057,0-11.3120041l-27.9839935-27.9839935
		C124.3440018,76.9599915,148.9360046,66.1999893,176,64.4079895v39.5920029c0,4.4160004,3.5839996,8,8,8s8-3.5839996,8-8
		V64.4079895c27.0639954,1.8000031,51.6560059,12.552002,70.8880005,29.3919983l-68.6000061,68.6000061
		C191.1199951,160.8799896,187.647995,160,184,160c-13.2319946,0-24,10.7680054-24,24s10.7680054,24,24,24s24-10.7680054,24-24
		c0-3.6640015-0.8880005-7.1439972-2.3919983-10.2960052l68.5920105-68.5920105
		C291.0400085,124.3439865,301.8000183,148.9359894,303.5920105,176H264c-4.4159851,0-8,3.5839996-8,8S259.5840149,192,264,192z
		 M178.0879974,189.2720032c-0.5919952-0.6640015-1.1199951-1.3760071-1.4640045-2.2079926
		C176.9519958,187.8639984,177.4799957,188.5919952,178.0879974,189.2720032z M176.6159973,180.9360046
		c0.3439941-0.8320007,0.8800049-1.5440063,1.4640045-2.2079926
		C177.4799957,179.4080048,176.9519958,180.1360016,176.6159973,180.9360046z M180.9360046,191.3840027
		c-0.8320007-0.3439941-1.5440063-0.8800049-2.2079926-1.4640045
		C179.4080048,190.5200043,180.1360016,191.0480042,180.9360046,191.3840027z M189.2720032,189.9120026
		c-0.6640015,0.5919952-1.3760071,1.1199951-2.2079926,1.4640045
		C187.8639984,191.0480042,188.5919952,190.5200043,189.2720032,189.9120026z M184,304
		c-37.9039917,0-73.487999-18.1040039-95.9680023-48h191.9360199C257.4880066,285.8959961,221.904007,304,184,304z"/>
</g>
</svg>
