<?xml version="1.0" encoding="utf-8"?>
<!-- Generator: Adobe Illustrator 22.1.0, SVG Export Plug-In . SVG Version: 6.00 Build 0)  -->
<svg version="1.1" id="Layer_1" xmlns="http://www.w3.org/2000/svg" xmlns:xlink="http://www.w3.org/1999/xlink" x="0px" y="0px"
	 viewBox="0 0 512 512" style="enable-background:new 0 0 512 512;" xml:space="preserve">
<style type="text/css">
	.st0{fill:#00487C;}
	.st1{fill:#0496FF;}
</style>
<path class="st0" d="M242.1,403c-0.2,0-0.3,0-0.5,0c-17.5-0.6-32.8-12.1-38.2-28.8c0,0,0-0.1,0-0.1l-30.7-99.6
	c-6.9-21.7,5.2-45,26.9-52c10.5-3.4,21.8-2.4,31.6,2.6c2,1,3.9,2.2,5.7,3.5V113c0-22.8,18.6-41.4,41.4-41.4
	c22.8,0,41.4,18.6,41.4,41.4v36.5c0,7.8-6.4,14.2-14.2,14.2s-14.2-6.4-14.2-14.2V113c0-7.2-5.8-13-13-13s-13,5.8-13,13V294
	c0,7-5.1,12.9-12,14c-6.9,1.1-13.6-3-15.7-9.7l-13-40.3c-2.2-6.9-9.5-10.7-16.4-8.5c-6.8,2.2-10.6,9.5-8.4,16.4c0,0,0,0.1,0,0.1
	l30.7,99.6c1.7,5.2,6.5,8.8,12,9c7.8,0.2,14,6.8,13.7,14.6C256,397,249.7,403,242.1,403z"/>
<path class="st1" d="M247.7,225.4c1.1,0.6,2.3,0.9,3.5,1.1V113c0-15,12.2-27.2,27.2-27.2c9.8,0,18.3,5.2,23.1,12.9
	c0.4-5.2-3.1-10.4-9-11.3l-64-9.3l-28.6-58c-3.9-7.8-15.1-7.8-18.9,0l-28.6,58l-64,9.3c-8.7,1.3-12.1,11.9-5.8,18l46.3,45.1
	l-10.9,63.7c-1.5,8.6,7.6,15.2,15.3,11.1l57.2-30.1L247.7,225.4z"/>
<g>
	<path class="st0" d="M128.3,240.8c-7.3,0-14.2-3.2-19-8.9c-4.7-5.6-6.7-12.9-5.4-20.1l9.7-56.4l-41-39.9
		c-6.8-6.6-9.2-16.3-6.3-25.4c2.9-9,10.6-15.5,20-16.8l56.6-8.2l25.3-51.3C172.4,5.3,181,0,190.4,0c9.5,0,18,5.3,22.2,13.8L238,65.1
		l56.6,8.2c12.8,1.9,22.1,13.5,21.1,26.4c-0.5,6.1-4.8,11.3-10.8,12.7c-6,1.5-12.2-1.1-15.4-6.3c-2.4-3.9-6.5-6.2-11.1-6.2
		c-7.2,0-13,5.8-13,13v113.5c0,4.1-1.8,8-4.9,10.7s-7.2,3.9-11.3,3.3c-2.9-0.4-5.6-1.3-8.1-2.6l-50.6-26.6l-50.6,26.6
		C136.3,239.8,132.3,240.8,128.3,240.8z M97.7,100.4l41,40c3.3,3.3,4.9,8,4.1,12.6l-9.7,56.4l50.7-26.7c4.1-2.2,9.1-2.2,13.2,0
		l39.9,21V113c0-6.7,1.6-13.1,4.4-18.7l-14.9-2.2c-4.6-0.7-8.6-3.6-10.7-7.8L190.4,33l-25.3,51.4c-2.1,4.2-6.1,7.1-10.7,7.8
		L97.7,100.4z"/>
	<path class="st0" d="M408.5,398.3c-7,0-13.1-5.2-14.1-12.3c-1-7.8,4.4-14.9,12.2-15.9c6.8-0.9,11.9-6.7,11.9-13.6v-76
		c0-7.6-6.2-13.7-13.7-13.7c-2.4,0-4.7,0.6-6.9,1.8c-4.4,2.5-9.8,2.5-14.2,0c-4.4-2.5-7.1-7.2-7.1-12.3v-0.8
		c0-7.6-6.2-13.7-13.7-13.7c-2.4,0-4.7,0.6-6.8,1.8c-4.4,2.5-9.8,2.6-14.2,0c-4.4-2.5-7.1-7.2-7.1-12.3v-3.1
		c0-7.6-6.2-13.7-13.7-13.7c-2.7,0-5.3,0.8-7.5,2.3c-6.5,4.3-15.4,2.5-19.7-4c-4.3-6.5-2.5-15.4,4-19.7c6.9-4.6,14.9-7,23.2-7
		c18,0,33.5,11.4,39.5,27.4c0.8,0,1.6-0.1,2.4-0.1c17.2,0,32,10.3,38.5,25.1c1.1-0.1,2.2-0.1,3.4-0.1c23.2,0,42.1,18.9,42.1,42.1v76
		c0,21-15.7,39-36.5,41.7C409.7,398.3,409.1,398.3,408.5,398.3z"/>
</g>
<path class="st1" d="M392,497.8H252.9c-13.4,0-24.2-10.8-24.2-24.2V437h187.6v36.6C416.2,487,405.4,497.8,392,497.8z"/>
<path class="st0" d="M392,512H252.9c-21.2,0-38.4-17.2-38.4-38.4V437c0-7.8,6.4-14.2,14.2-14.2h187.6c7.8,0,14.2,6.4,14.2,14.2v36.6
	C430.4,494.8,413.2,512,392,512z M242.9,451.2v22.4c0,5.5,4.5,10,10,10H392c5.5,0,10-4.5,10-10v-22.4H242.9z"/>
</svg>
