<?xml version="1.0" encoding="utf-8"?>
<!-- Generator: Adobe Illustrator 22.1.0, SVG Export Plug-In . SVG Version: 6.00 Build 0)  -->
<svg version="1.1" id="Layer_1" xmlns="http://www.w3.org/2000/svg" xmlns:xlink="http://www.w3.org/1999/xlink" x="0px" y="0px"
	 viewBox="0 0 512 512" style="enable-background:new 0 0 512 512;" xml:space="preserve">
<style type="text/css">
	.st0{fill:#FFFFFF;}
	.st1{fill:#0496FF;}
</style>
<g>
	<path class="st0" d="M336,512L336,512H176c-4.8000031,0-9.3000031-2.3999939-11.8999939-6.5
		c-2.6000061-4-3-9.1000061-1.1000061-13.5l42.8000031-97c2.3000031-5.2000122,7.3999939-8.5,13.1000061-8.5h74.3000031
		c5.7000122,0,10.7999878,3.2999878,13,8.5l42.3999939,96.2000122c1,2,1.6000061,4.2000122,1.6000061,6.6000061
		C350.2999878,505.6000061,343.8999939,512,336,512z M197.8999939,483.5h116.1999817L283.8999939,415h-55.6999969L197.8999939,483.5
		z"/>
	<path class="st0" d="M23.2999992,362.2999878C15.3999996,362.2999878,9,355.8999939,9,348V92.6999893
		c0-7.9000015,6.3999996-14.3000031,14.2999992-14.3000031h465.5c7.8999939,0,14.2999878,6.4000015,14.2999878,14.3000031
		v166.2000122c0,7.8999939-6.3999939,14.2999878-14.2999878,14.2999878S474.5,266.7999878,474.5,258.8999939V106.9999924h-437v241
		C37.5,355.8999939,31.1000004,362.2999878,23.2999992,362.2999878z"/>
</g>
<path class="st1" d="M71.6999969,426.5h368.5999756c26.7000122,0,48.3999939-21.7000122,48.3999939-48.3999939v-30H23.2999992v30
	C23.2999992,404.7999878,45,426.5,71.6999969,426.5z"/>
<path class="st0" d="M440.2999878,440.7000122H71.6999969C37.0999985,440.7000122,9,412.6000061,9,378v-30
	c0-7.8999939,6.3999996-14.2999878,14.2999992-14.2999878h465.5c7.8999939,0,14.2999878,6.3999939,14.2999878,14.2999878v30
	C503,412.6000061,474.8999939,440.7000122,440.2999878,440.7000122z M37.5,362.2999878V378
	c0,18.7999878,15.2999992,34.2000122,34.1999969,34.2000122h368.5999756C459.0999756,412.2000122,474.5,396.9000244,474.5,378
	v-15.7999878h-437V362.2999878z"/>
<path class="st0" d="M488.7000122,106.9999924H23.2999992C15.3999996,106.9999924,9,100.5999908,9,92.6999893v-30
	C9,28.0999928,37.0999985-0.0000067,71.6999969-0.0000067h368.5999756C474.8999939-0.0000067,503,28.0999928,503,62.6999931
	v29.9999962C503,100.5999908,496.6000061,106.9999924,488.7000122,106.9999924z M37.5,78.3999939h436.8999939V62.6999931
	c0-18.7999992-15.2999878-34.2000008-34.2000122-34.2000008h-368.5c-18.7999992,0-34.2000008,15.2999992-34.2000008,34.2000008
	L37.5,78.3999939z"/>
<g>
	<g>
		<g>
			<path class="st0" d="M176.8491211,227.7608643c-5.7612305,0-10.4487305-4.6875-10.4487305-10.4487305
				c-0.0424805-24.472168,9.2988281-47.6210938,26.3022461-65.1762695
				c17.7773438-18.3623047,41.6411133-28.4755936,67.1948242-28.4755936c21.7255859,0,42.4111328,7.4184647,59.0488281,21.0351639
				v-17.5127029c0-5.7612305,4.6875-10.4487305,10.4492188-10.4487305c5.7607422,0,10.4482422,4.6875,10.4482422,10.4487305
				v41.6108475c0,4.5180664-2.8779297,8.4995117-7.1601563,9.9077148l-41.5576172,13.8520508
				c-1.0556641,0.355957-2.1660156,0.5385742-3.2880859,0.5385742c0,0,0,0-0.0009766,0
				c-4.4912109,0-8.4746094-2.8652344-9.9111328-7.1298828c-0.8896484-2.6386719-0.6953125-5.4667969,0.5478516-7.9628906
				c1.2460938-2.5019531,3.3945313-4.3671875,6.0507813-5.2524414l25.3955078-8.4648438
				c-13.3994141-12.6074219-31.2607422-19.7426758-49.8085938-19.7426758
				c-40.1494141,0-72.8134766,32.6459961-72.8134766,72.7729492
				C187.2978516,223.0733643,182.6103516,227.7608643,176.8491211,227.7608643z"/>
			<path class="st0" d="M329.3952637,120.2339172c3.8197327,0,6.9486389,3.0883179,6.9486389,6.9487v41.6108093
				c0,2.9664001-1.9098816,5.6483459-4.7543945,6.5829163l-41.5701294,13.856781
				c-0.7224731,0.2435303-1.4573975,0.3588867-2.1815186,0.3588867c-2.9006958,0-5.6202698-1.8534241-6.5957947-4.7475281
				c-1.2190552-3.6165771,0.7314453-7.5582275,4.3886414-8.7772827l30.72052-10.2402039
				c-14.4256592-15.8072205-34.824707-24.7876282-56.2396545-24.7876282c-42.1390839,0-76.3135834,34.1338196-76.3135834,76.2729187
				c0,3.8603821-3.0883179,6.9486694-6.9487,6.9486694s-6.9486542-3.1289368-6.9486542-6.9486694
				c-0.0406494-23.4060974,9.0210724-45.9182129,25.3159637-62.7413025
				c17.6618958-18.243042,41.1575928-27.412384,64.6808319-27.4105835
				c22.5337524,0.001709,45.0933533,8.4191895,62.5491028,25.3381348v-25.315918
				C322.4465332,123.3222351,325.57547,120.2339172,329.3952637,120.2339172 M329.3952637,113.2339172
				c-7.6913452,0-13.9487305,6.2573547-13.9487305,13.9487v10.4664001
				c-16.1775208-11.3581848-35.4324951-17.4871216-55.5485535-17.4886169
				c-26.5120697-0.0007629-51.2665405,10.4906006-69.7105713,29.5415649
				c-17.6398468,18.2116699-27.3308868,42.2275391-27.2867737,67.622467c0,7.6791992,6.2573547,13.9365234,13.9486542,13.9365234
				c7.6913452,0,13.9487-6.2573242,13.9487-13.9486694c0-38.1972351,31.0939178-69.2729187,69.3135834-69.2729187
				c15.6292725,0,30.7467957,5.3228149,42.8583069,14.8694458l-19.5527954,6.5176086
				c-3.5450134,1.1816711-6.4134521,3.6722107-8.0767517,7.0128174c-1.6605835,3.3351135-1.9203796,7.1142273-0.7315674,10.6411133
				c1.9176941,5.6892395,7.2340698,9.5116577,13.2290955,9.5116577c1.5029297,0,2.9891968-0.2441406,4.4175415-0.7256165
				l41.5477295-13.8492737c5.6951294-1.8710632,9.5407715-7.1890869,9.5407715-13.2236938v-41.6108093
				C343.3439026,119.491272,337.0865479,113.2339172,329.3952637,113.2339172L329.3952637,113.2339172z"/>
		</g>
	</g>
</g>
<g>
	<g>
		<g>
			<path class="st0" d="M190.7060547,317.9317627c-5.7612305,0-10.4487305-4.6875-10.4487305-10.4492188v-41.6103516
				c0-4.5185547,2.878418-8.5009766,7.1621094-9.9082031l41.5556641-13.8520508
				c1.0639648-0.3588867,2.1811523-0.5424805,3.3100586-0.5424805c4.4936523,0,8.4697266,2.8710938,9.8945313,7.1445313
				c0.8857422,2.6279297,0.690918,5.4560547-0.5522461,7.9526367c-1.2456055,2.5014648-3.3945313,4.3666992-6.050293,5.2514648
				l-25.3959961,8.4658203c13.3999023,12.6074219,31.2612305,19.7421875,49.8081055,19.7421875
				c40.1503906,0,72.8144531-32.6455078,72.8144531-72.7729492c0-5.7612305,4.6875-10.4487305,10.4482422-10.4487305
				s10.4482422,4.6689453,10.4482422,10.4077148c0.0859375,24.4536133-9.2548828,47.6186523-26.3017578,65.2172852
				c-17.7548828,18.3613281-41.6074219,28.4746094-67.1572266,28.4755859c-0.0039063,0-0.0039063,0-0.0078125,0
				c-21.7304688-0.0019531-42.4248047-7.4199219-59.0786133-21.0400391v17.5175781
				C201.1547852,313.2442627,196.4672852,317.9317627,190.7060547,317.9317627z"/>
			<path class="st0" d="M343.2519836,210.4042358c3.8603821,0,6.9486389,3.0883179,6.9486389,6.9080505
				c0.0812683,23.4467773-9.0210876,45.9588318-25.3159485,62.7819519
				c-17.6411438,18.243042-41.1266785,27.410614-64.6503906,27.410614c-22.5341644,0-45.1039276-8.41922-62.5795898-25.3381653
				v25.3159485c0,3.8603821-3.0883026,6.9487-6.9486542,6.9487c-3.8603821,0-6.9486847-3.1289673-6.9486847-6.9487v-41.6108704
				c0-2.9663696,1.9098816-5.6483154,4.7543488-6.5829468l41.5701904-13.85672
				c0.729538-0.2459106,1.4720001-0.362854,2.2029724-0.3628235c2.892746,0.0001526,5.6011658,1.8320007,6.574295,4.7514648
				c1.2190704,3.6165771-0.7314301,7.5582275-4.3886108,8.7772827l-30.7205048,10.2401733
				c14.4256134,15.807251,34.8246918,24.7877197,56.2396393,24.7877197c42.1390381,0,76.3135986-34.1339111,76.3135986-76.2729797
				C336.3032837,213.4925537,339.432251,210.4042358,343.2519836,210.4042358 M343.2519836,203.4042358
				c-7.6913757,0-13.9487,6.2573547-13.9487,13.9487c0,38.1972351-31.0939331,69.2729797-69.3135986,69.2729797
				c-15.6292725,0-30.7467957-5.322876-42.8583221-14.8695068l19.5527954-6.5176392
				c3.5450745-1.1816406,6.4134674-3.6722412,8.076767-7.0128174c1.6605835-3.3351746,1.9203949-7.1142578,0.7315369-10.6411743
				c-1.8939972-5.682251-7.2046051-9.5152588-13.2073059-9.5155029c-1.5093384-0.000061-3.0029907,0.2453918-4.4393005,0.7295532
				l-41.5477295,13.8492126c-5.6951904,1.8712158-9.5407715,7.189209-9.5407715,13.2237244v41.6108704
				c0,7.6913452,6.2573395,13.9487,13.9486847,13.9487c7.6913147,0,13.9486542-6.2573547,13.9486542-13.9487v-10.4737854
				c16.1936035,11.364624,35.4594879,17.4960022,55.5796204,17.4960022c26.5118713,0,51.2589111-10.4924622,69.6824341-29.5445862
				c17.6807861-18.2539673,27.3717957-42.2885742,27.283844-67.6722412
				C357.2006226,209.6433716,350.9432678,203.4042358,343.2519836,203.4042358L343.2519836,203.4042358z"/>
		</g>
	</g>
</g>
</svg>
