<?xml version="1.0" encoding="utf-8"?>
<!-- Generator: Adobe Illustrator 22.1.0, SVG Export Plug-In . SVG Version: 6.00 Build 0)  -->
<svg version="1.1" id="_x3C_Layer_x3E_" xmlns="http://www.w3.org/2000/svg" xmlns:xlink="http://www.w3.org/1999/xlink" x="0px"
	 y="0px" viewBox="0 0 96 96" style="enable-background:new 0 0 96 96;" xml:space="preserve">
<style type="text/css">
	.st0{fill:#009245;}
	.st1{fill:#FFFFFF;}
</style>
<rect class="st0" width="96" height="96"/>
<g>
	<path class="st1" d="M75.2441025,57.517601C74.8262024,42.9110985,62.8223,31.1553001,48.1161995,31.1553001
		c-14.9692001,0-27.1478996,12.1777-27.1478996,27.1464996c0,14.9696999,12.1786995,27.1484032,27.1478996,27.1484032
		c4.794899,0,9.5078011-1.2666016,13.6278992-3.6631012c0.955101-0.5547028,1.2793007-1.7793045,0.7237015-2.7333984
		c-0.5546989-0.955101-1.7812996-1.2822037-2.7333984-0.7236023c-3.5117035,2.0410004-7.5283012,3.1201019-11.6182022,3.1201019
		c-12.7636986,0-23.1478996-10.3848038-23.1478996-23.1484032c0-12.7631989,10.384201-23.1464996,23.1478996-23.1464996
		c12.6660004,0,22.9824028,10.2260017,23.139698,22.8544998c-0.0790939,7.8593025-3.2402954,11.4071999-5.4960938,11.4071999
		c-1.8252029,0-3.0996056-2.2412033-3.0996056-5.4511986V46.2588005c0-1.1044998-0.8955994-2-2-2c-1.1044998,0-2,0.8955002-2,2
		v2.669899c-2.6581993-2.8642006-6.4413986-4.669899-10.6474991-4.669899c-8.0195007,0-14.5438995,6.5233994-14.5438995,14.5419998
		c0,8.0184975,6.5243988,14.5430031,14.5438995,14.5430031c4.5186005,0,8.5625-2.0723038,11.2313995-5.3165054
		c1.170002,3.6739044,3.9160995,5.3897018,6.5157051,5.3897018c4.4569931,0,9.2313995-4.6757965,9.4803925-14.8798981
		c0.0088043-0.0781021,0.0235062-0.1543007,0.0235062-0.235302c0-0.1044998-0.0069046-0.2080002-0.0078049-0.3125
		c0.0009003-0.0937996,0.0078049-0.1796989,0.0078049-0.274498C75.2637024,57.6474991,75.25,57.5830002,75.2441025,57.517601z
		 M48.0126991,69.3438034c-5.8139992,0-10.5438995-4.7294998-10.5438995-10.5430031
		c0-5.8125,4.7299004-10.5419998,10.5438995-10.5419998c5.8134995,0,10.5429993,4.7294998,10.5429993,10.5419998
		C58.5556984,64.6143036,53.8261986,69.3438034,48.0126991,69.3438034z"/>
	<path class="st1" d="M84.4188995,24.6597004c-0.0731964-2.6884995-0.6747971-8.8570004-4.5771027-10.3452005
		c-6.594696-2.5206003-22.0487976-4.2774-31.8515968-4.2774c-9.7543983,0.0073004-25.2324009,1.7837-31.8476009,4.3203001
		c-3.9023991,1.4970999-4.4946995,7.6664991-4.5634995,10.3550005c-0.0629997,0.5991001-0.0429993,1.1709003,0.0615005,1.7080002
		l0.5746994,2.8745003c0.4483004,2.3041992,2.4742002,3.976099,4.8169003,3.976099
		c0.3150005,0,0.6319008-0.0307999,0.9424-0.0908012l13.2700005-2.5810986
		c1.2890987-0.2490005,2.4032993-0.9853001,3.137701-2.0732002c0.7338982-1.0874004,1.0004997-2.3955002,0.7504997-3.6830997
		l-0.3456993-1.7823009c2.7118988-0.6201,8.1596985-1.6063995,13.3705978-1.6092987
		c5.278801,0,10.4790001,0.9940987,13.0513,1.5931988l-0.3428001,1.7784004
		c-0.2480011,1.2889996,0.0195007,2.5971012,0.7549019,3.6835003c0.7343979,1.0869999,1.8495979,1.8218002,3.1366959,2.0699005
		l13.2793045,2.5629978c0.3067017,0.0586014,0.6201019,0.0888023,0.9317017,0.0888023
		c2.3456955,0,4.3729935-1.6743011,4.8192978-3.9712009l0.577095-2.9004002
		C84.4657974,25.8295994,84.4833984,25.2593002,84.4188995,24.6597004z M80.4384995,25.5918007l-0.5752029,2.8935986
		c-0.094696,0.4882011-0.5859985,0.8222008-1.0702972,0.7255001l-13.2783966-2.5625
		c-0.3212051-0.0620003-0.5018997-0.2665997-0.5810013-0.3832989c-0.0791016-0.1167011-0.2022018-0.3613014-0.1397018-0.6860008
		l0.569397-2.9589996c0.1660004-0.2900009,0.260704-0.6240005,0.260704-0.9790001c0-1.7689991-1.0643997-2.1177006-6.5-3.1107998
		c-2.6943016-0.4922009-6.785099-1.0790997-10.9975014-1.0790997c-4.2631989,0.0023994-8.4291992,0.5942001-11.1734009,1.0902996
		c-5.5170975,0.9971008-6.5985985,1.3472004-6.597599,3.1221008c0,0.3739986,0.1040001,0.7245998,0.2846012,1.0243988
		l0.566,2.9169998c0.0625,0.3222008-0.0601006,0.5659008-0.1392002,0.6826c-0.0785999,0.1167011-0.2593002,0.3223-0.5839996,0.3848
		l-13.272501,2.5810013c-0.4941006,0.101099-0.9730988-0.2334003-1.0702991-0.7324009l-0.5752001-2.8754997
		c-0.0160999-0.0830002-0.0380001-0.2660999-0.0029001-0.5561008c0.0078001-0.0655003,0.0127001-0.1313992,0.0141993-0.1973
		c0.0742006-3.4116001,0.9525995-6.3988991,1.9989996-6.8002987c5.5132008-2.113801,20.0116997-4.0469007,30.472702-4.0547009
		c10.3964005,0,24.8700981,1.9131002,30.3670998,4.0142002c1.0458984,0.3988991,1.9277954,3.3833008,2.0078964,6.7943993
		c0.0009003,0.0659008,0.005806,0.1314011,0.0136032,0.1968002C80.472702,25.3388996,80.4521027,25.5244007,80.4384995,25.5918007z"
		/>
</g>
</svg>
