<?xml version="1.0" encoding="utf-8"?>
<!-- Generator: Adobe Illustrator 22.1.0, SVG Export Plug-In . SVG Version: 6.00 Build 0)  -->
<svg version="1.1" id="_x3C_Layer_x3E_" xmlns="http://www.w3.org/2000/svg" xmlns:xlink="http://www.w3.org/1999/xlink" x="0px"
	 y="0px" viewBox="0 0 96 96" style="enable-background:new 0 0 96 96;" xml:space="preserve">
<style type="text/css">
	.st0{fill:#C1272D;}
	.st1{fill:#FFFFFF;}
</style>
<rect class="st0" width="96" height="96"/>
<g>
	<path class="st1" d="M66.2978973,60.75c-1.1044998,0-2,0.8955002-2,2v22.8144989H17.6396008V39.1576996
		c0.6245995-0.097599,1.2598-0.1636009,1.9111996-0.1636009h3.7792988l-3.0756989,3.0762024
		c-0.7807999,0.7812996-0.7807999,2.0473976,0.0004997,2.828598c0.3906002,0.3902016,0.9022999,0.5855026,1.4139996,0.5855026
		c0.5118008,0,1.0240002-0.1953011,1.4146004-0.5860023l6.4892998-6.4902
		c0.7807007-0.7812004,0.7807007-2.0473976-0.0004997-2.8280983l-6.4892998-6.4893017
		c-0.7803001-0.7811985-2.0478001-0.7811985-2.8281002,0c-0.7812996,0.7807999-0.7812996,2.0474014,0,2.8281002l3.0751991,3.0751991
		h-3.7792988c-0.647501,0-1.2832012,0.0479012-1.9111996,0.1216011v-9.0189991h46.6582947V46c0,1.1044998,0.8955002,2,2,2
		c1.1044006,0,2-0.8955002,2-2V24.0967007c0-1.1044998-0.8955994-2-2-2H15.6395998c-1.1043997,0-2,0.8955002-2,2v12.0214977
		C7.5497999,38.4936981,3.2168,44.4081993,3.2168,51.3280983c0,4.2022018,1.59179,8.1934013,4.48242,11.2412033
		c0.3935494,0.4140968,0.9218698,0.6231003,1.4516597,0.6231003c0.4941397,0,0.9892197-0.1817017,1.3760204-0.5488014
		c0.8011999-0.7607994,0.8344002-2.0264015,0.0746994-2.8282013c-2.1826496-2.2998009-3.3847995-5.3143997-3.3847995-8.4873009
		c0-4.660099,2.5991197-8.7230988,6.4227996-10.820797v47.0571976c0,1.1044006,0.8956003,2,2,2h50.6582985
		c1.1044006,0,2-0.8955994,2-2V62.75C68.2978973,61.6455002,67.402298,60.75,66.2978973,60.75z"/>
	<path class="st1" d="M58.0283012,32.4726982H41.7001991c-1.1044998,0-2,0.8955002-2,2c0,1.1044006,0.8955002,2,2,2h16.3281021
		c1.1044998,0,2-0.8955994,2-2C60.0283012,33.3681984,59.1328011,32.4726982,58.0283012,32.4726982z"/>
	<path class="st1" d="M58.0283012,40.6474991H41.7001991c-1.1044998,0-2,0.8955002-2,2s0.8955002,2,2,2h16.3281021
		c1.1044998,0,2-0.8955002,2-2S59.1328011,40.6474991,58.0283012,40.6474991z"/>
	<path class="st1" d="M58.0283012,48.8223H23.3974991c-1.1044998,0-2,0.8955002-2,2s0.8955002,2,2,2h34.6308022
		c1.1044998,0,2-0.8955002,2-2S59.1328011,48.8223,58.0283012,48.8223z"/>
	<path class="st1" d="M58.0283012,56.9971008H23.3974991c-1.1044998,0-2,0.8955002-2,2s0.8955002,2,2,2h34.6308022
		c1.1044998,0,2-0.8955002,2-2S59.1328011,56.9971008,58.0283012,56.9971008z"/>
	<path class="st1" d="M58.0283012,65.1718979H23.3437996c-1.1044998,0-2,0.8955002-2,2s0.8955002,2,2,2h34.6845016
		c1.1044998,0,2-0.8955002,2-2S59.1328011,65.1718979,58.0283012,65.1718979z"/>
	<path class="st1" d="M58.0283012,73.3486023H23.3437996c-1.1044998,0-2,0.8955002-2,2s0.8955002,2,2,2h34.6845016
		c1.1044998,0,2-0.8955002,2-2S59.1328011,73.3486023,58.0283012,73.3486023z"/>
	<path class="st1" d="M92.7842026,40.3690987c0-4.2030983-1.5918045-8.1947975-4.4834061-11.2411995
		c-0.7607956-0.8021984-2.0273972-0.8339996-2.8271942-0.0737c-0.800705,0.7603016-0.8339996,2.0264015-0.073204,2.8276005
		c2.1816025,2.2993984,3.3838043,5.3135014,3.3838043,8.487299c0,4.4600029-2.3877029,8.3623009-5.9444046,10.5293007V9.5556602
		c0-1.1044903-0.8955002-2.0000005-2-2.0000005H30.1816006c-1.1044998,0-2,0.8955102-2,2.0000005V17c0,1.1044998,0.8955002,2,2,2
		s1.9999981-0.8955002,1.9999981-2v-5.4442997H78.839798v40.9091034c-0.7733994,0.1533966-1.572197,0.2372971-2.389595,0.2372971
		h-3.7793045l3.0752029-3.0750999c0.7811966-0.7807999,0.7811966-2.0473976,0-2.8281975
		c-0.7813034-0.7812004-2.0468979-0.7812004-2.8281021,0l-6.489296,6.4892998c-0.7812042,0.7812004-0.7812042,2.0468979,0,2.8280983
		l6.489296,6.4902c0.3906021,0.3907013,0.902298,0.5860023,1.4140015,0.5860023
		c0.5118027,0,1.0234985-0.1953011,1.4141006-0.5860023c0.7811966-0.780201,0.7811966-2.0467987,0-2.8280983l-3.0752029-3.0762024
		h3.7793045c0.8134995,0,1.607399-0.0790977,2.389595-0.1952972v14.5165977h-5.4725952c-1.1044998,0-2,0.8955002-2,2
		s0.8955002,2,2,2h7.4725952c1.1044998,0,2-0.8955002,2-2v-17.625
		C88.6797028,52.9062996,92.7842026,47.1083984,92.7842026,40.3690987z"/>
</g>
</svg>
