<?xml version="1.0" encoding="utf-8"?>
<!-- Generator: Adobe Illustrator 22.1.0, SVG Export Plug-In . SVG Version: 6.00 Build 0)  -->
<svg version="1.1" id="Layer_1" xmlns="http://www.w3.org/2000/svg" xmlns:xlink="http://www.w3.org/1999/xlink" x="0px" y="0px"
	 viewBox="0 0 96 96" style="enable-background:new 0 0 96 96;" xml:space="preserve">
<style type="text/css">
	.st0{fill:#2B427E;}
	.st1{fill:#FFFFFF;}
</style>
<g>
	<rect class="st0" width="96" height="96"/>
	<path class="st1" d="M81.4003983,22.5956993h-1H63.2333984v-4.5770988
		c0.7627029-0.2818012,1.3096008-1.0093002,1.3096008-1.8702011c0-1.1044998-0.8955002-1.999999-2-1.999999h-1.3096008h-26.464798
		h-1.3096008c-1.1044998,0-2,0.8954992-2,1.999999c0,0.8609009,0.5469017,1.5883999,1.3096008,1.8702011v4.5770988H15.5995998
		h-0.9980001c-2.7568998,0-5.0000401,2.2432003-5.0000401,5v0.961401c0,0.0131989-0.0019493,0.0254002-0.0019493,0.038599
		v47.2559013c0,3.3086014,2.69139,6,5.9999895,6h64.8007965c3.3086014,0,6-2.6913986,6-6V45.0136986V28.5956993v-1
		C86.4003983,24.8388996,84.1572037,22.5956993,81.4003983,22.5956993z M36.7686005,18.1483994h22.464798v4.4473h-22.464798
		V18.1483994z M80.4003983,26.5956993c1.1025009,0,2,0.8970013,2,2v16.4179993c0,0.7148018-0.660202,1.5351028-1.3583984,1.6879997
		c-0.0986023,0.0214005-9.6288986,2.0688019-24.9696999,2.7680016V49.125c0-3.1641006-2.2598-5.7383003-5.0371017-5.7383003h-6.0723
		c-2.7763977,0-5.0351982,2.5741997-5.0351982,5.7383003v0.3466988c-15.3500996-0.6973-24.8685989-2.7465973-24.9658012-2.7675972
		c-0.6991997-0.153801-1.3603001-0.9756012-1.3603001-1.690403V28.5762005
		c0.0107002-1.0937996,0.9013004-1.9805012,1.9980001-1.9805012H80.4003983z M43.9277,52.982399V49.125
		c0-1.0610008,0.6133003-1.7383003,1.0351982-1.7383003h6.0723c0.422802,0,1.0371017,0.6772995,1.0371017,1.7383003v3.857399
		h-0.2979012h-7.5487976H43.9277z M45.2256012,56.982399h5.5487976V60.2598
		c-0.3925972,0.1366997-1.3241997,0.3945007-2.7782974,0.3945007c-1.4707031,0-2.403801-0.2637024-2.7705002-0.3916016V56.982399z
		 M80.4003983,77.8516006H15.5995998c-1.1029997,0-2-0.8974991-2-2v-25.402401
		c0.1675005,0.0557022,0.3305998,0.1231003,0.5039005,0.1612015c0.4159994,0.0916977,10.0126991,2.1639977,25.8241997,2.8670998
		v1.5048981c0,0.8565025,0.5410995,1.5811005,1.2979012,1.8661995V60.4902c0,1.2949982,0.7982979,2.6259995,1.9418983,3.2354012
		c0.2910004,0.1553001,1.8906021,0.9286957,4.8286018,0.9286957c2.9393997,0,4.5429993-0.7733955,4.8368988-0.9296951
		c1.142601-0.6094017,1.9413986-1.9394035,1.9413986-3.2344017v-3.6416016
		c0.7569008-0.285099,1.2979012-1.009697,1.2979012-1.8661995v-1.5077972
		c15.8007011-0.7041016,25.4090996-2.7744026,25.8241997-2.8652c0.1727982-0.0381012,0.3358994-0.1055031,0.5038986-0.1612015
		v25.4034004C82.4003983,76.9541016,81.5028992,77.8516006,80.4003983,77.8516006z"/>
</g>
</svg>
