<?xml version="1.0" encoding="utf-8"?>
<!-- Generator: Adobe Illustrator 22.1.0, SVG Export Plug-In . SVG Version: 6.00 Build 0)  -->
<svg version="1.1" id="_x3C_Layer_x3E_" xmlns="http://www.w3.org/2000/svg" xmlns:xlink="http://www.w3.org/1999/xlink" x="0px"
	 y="0px" viewBox="0 0 96 96" style="enable-background:new 0 0 96 96;" xml:space="preserve">
<style type="text/css">
	.st0{fill:#0071BC;}
	.st1{fill:#FFFFFF;}
</style>
<rect x="0.001465" y="-0.000977" class="st0" width="96.0005341" height="95.9999771"/>
<path class="st1" d="M75.9150009,21.7212009c-0.0175018-0.022501-0.0282974-0.0474014-0.0467987-0.0693016
	c-0.0899048-0.1089001-0.1894989-0.2045994-0.2958984-0.2895985C68.5917969,14.1400995,58.8163986,9.6357403,48.0028992,9.6357403
	c-10.8387985,0-20.6346989,4.5248594-27.6185989,11.7763596c-0.0254002,0.0219994-0.0542011,0.0370998-0.0785999,0.0606003
	c-0.0781994,0.0737-0.1431007,0.1562004-0.2070999,0.238699C13.6205997,28.5834999,9.6377001,37.8320007,9.6377001,47.9990005
	c0,21.1542969,17.2103996,38.365303,38.3652,38.365303c21.1534042,0,38.3633041-17.2110062,38.3633041-38.365303
	C86.3662033,37.8368988,82.3867035,28.5923004,75.9150009,21.7212009z M74.1151962,70.3007965
	c-3.219696-2.5097961-6.3671951-4.4648972-9.4208984-5.9589996c2-4.7089958,3.1202011-9.4960976,3.3672028-14.3427963h14.2422028
	C81.857399,57.7235985,78.847702,64.7686005,74.1151962,70.3007965z M13.7002001,49.9990005h14.2207003
	c0.2432003,4.764698,1.3227997,9.4716988,3.2598,14.1026001c-4.3642998,2.1025009-7.5928001,4.5712967-9.3754997,6.1025009
	C17.1205997,64.6855011,14.1436005,57.6786995,13.7002001,49.9990005z M21.8232002,25.7744007
	c1.7719994,1.5194988,4.9594994,3.9511986,9.2519989,6.033699c-1.7069988,4.2505016-2.9179993,9.0160999-3.1688995,14.1909008
	H13.7002001C14.1440001,38.3105011,17.1284008,31.2959003,21.8232002,25.7744007z M46.0028992,31.8003006
	c-3.5512009-0.1606998-6.7807007-0.9043007-9.6200981-1.9273014c3.0186005-6.0150986,6.908699-10.7093983,9.6200981-13.5658989
	V31.8003006z M46.0028992,35.7108994v10.2881012H31.9130993c0.2470989-4.5555992,1.3397999-8.7933998,2.8765011-12.6068993
	C38.0884018,34.6128006,41.8549995,35.5166016,46.0028992,35.7108994z M46.0028992,49.9990005v10.2538986
	c-4.1133003,0.1924019-7.8544998,1.0811005-11.1333008,2.285202c-1.7269974-4.1357994-2.7001991-8.3203011-2.9423981-12.5391006
	H46.0028992z M37.5346985,65.767601c2.8198013-0.910202,5.644001-1.4248047,8.4682007-1.5702972v14.8993988
	c-3.9847984-4.2588043-7.1333008-8.5947037-9.4379997-12.9893036C36.8866997,65.9922028,37.2036018,65.875,37.5346985,65.767601z
	 M50.0028992,64.2548981c3.1016006,0.2373047,6.2001991,0.930603,9.2910004,2.0889053
	c-2.2879982,4.3055954-5.3885994,8.5536957-9.2910004,12.7274933V64.2548981z M50.0028992,60.2929993V49.9990005h14.0518036
	c-0.2461014,4.2901001-1.2481041,8.5439987-3.0293045,12.7481003
	C57.1631012,61.2753983,53.4735985,60.5214996,50.0028992,60.2929993z M50.0028992,45.9990005V35.6665001
	c3.4971008-0.2299995,7.2139015-0.9888,11.1084023-2.482399c1.5800972,3.8666992,2.7061005,8.1772003,2.9579964,12.8148994
	H50.0028992z M50.0028992,31.7271004V16.3311005c2.6631012,2.8094997,6.4522018,7.3827991,9.4375,13.2304001
	C56.1309013,30.8169003,52.9746017,31.4862995,50.0028992,31.7271004z M53.4003983,14.0629997
	c6.8486023,1.0854006,13.0283051,4.201601,17.9043045,8.7098999c-2.7919998,2.1445999-5.5156021,3.8443012-8.1543045,5.1592007
	C60.1094017,21.8838005,56.2753983,17.1376991,53.4003983,14.0629997z M32.6557999,28.2847004
	c-3.7535-1.8530998-6.5268993-4.011301-8.0923004-5.3824005c4.8915997-4.5708008,11.1113014-7.7348003,18.0135994-8.8344002
	C39.6469994,17.2021008,35.721199,22.0708008,32.6557999,28.2847004z M32.8554993,67.6542969
	c2.5223999,4.8877029,5.9975014,9.6865005,10.4169998,14.3770065C36.0898018,81.0371017,29.6117992,77.8173981,24.5562,73.089798
	C26.1392002,71.722702,28.9906998,69.5292969,32.8554993,67.6542969z M62.9756012,67.9481964
	c2.7929993,1.3799057,5.577095,3.1299057,8.3467026,5.2618027c-5.0430069,4.6688995-11.482502,7.8426971-18.615303,8.8242035
	C57.0391006,77.4365005,60.4658012,72.7353973,62.9756012,67.9481964z M68.0762024,45.9990005
	c-0.2559052-5.2754021-1.5127029-10.1225014-3.2714996-14.4350014c3.0116959-1.4839001,6.1141968-3.4208984,9.2870941-5.8925991
	c4.7451019,5.5370998,7.7656021,12.5907993,8.2119064,20.3276005H68.0762024z"/>
</svg>
