<?xml version="1.0" encoding="utf-8"?>
<!-- Generator: Adobe Illustrator 22.1.0, SVG Export Plug-In . SVG Version: 6.00 Build 0)  -->
<svg version="1.1" id="_x3C_Layer_x3E_" xmlns="http://www.w3.org/2000/svg" xmlns:xlink="http://www.w3.org/1999/xlink" x="0px"
	 y="0px" viewBox="0 0 96 96" style="enable-background:new 0 0 96 96;" xml:space="preserve">
<style type="text/css">
	.st0{fill:#B06FBE;}
	.st1{fill:#FFFFFF;}
</style>
<rect class="st0" width="95.9990005" height="96"/>
<g>
	<g>
		<path class="st1" d="M65.1151962,18.125c-0.514595,0-1.0292969-0.1977997-1.4208946-0.5923004
			c-8.6543007-8.7348499-20.3169022-5.2690001-20.8100014-5.1171999c-1.0522995,0.3252001-2.1743011-0.2635994-2.5014992-1.3163996
			c-0.3276024-1.0527,0.2563972-2.1713705,1.3085976-2.50144c0.5855026-0.1836004,14.4463005-4.3754902,24.8447037,6.1196404
			c0.7773972,0.7846994,0.7714996,2.0513-0.0136032,2.8285999C66.1327972,17.9321003,65.6240005,18.125,65.1151962,18.125z"/>
	</g>
	<g>
		<path class="st1" d="M72.1103973,32.8158989c-0.5546951,0-1.1064987-0.2290001-1.5009995-0.6777
			c-17.8173981-20.2113991-41.2543983-8.1313992-42.2436981-7.607399c-0.9745998,0.5200005-2.1849995,0.1469002-2.7035999-0.8271999
			c-0.5181007-0.9741001-0.1504002-2.1835995,0.8232994-2.7031002C26.7553997,20.8574009,53.6767998,6.8764601,73.6093979,29.4937
			c0.7304001,0.8285999,0.6512985,2.0921993-0.1777954,2.8226986C73.0518036,32.6514015,72.580101,32.8158989,72.1103973,32.8158989
			z"/>
	</g>
	<g>
		<path class="st1" d="M76.2558975,57.6386986c-0.3535995,0-0.711998-0.0937996-1.0361938-0.2901001
			c-3.7148056-2.2557983-4.3213043-5.3652-4.8564072-8.1083984c-0.631897-3.2451019-1.5380936-6.7425995-5.0009995-10.6836014
			c-4.8905983-5.5643997-11.8710976-8.8529987-18.6420975-8.8270988
			c-11.0858994,0.0615005-25.3031998,11.7103996-25.4452991,11.8280983
			c-0.8520012,0.7022018-2.1123009,0.5835037-2.8154011-0.266098c-0.7040997-0.8511009-0.5854988-2.1113014,0.2651005-2.8153992
			c0.625-0.517601,15.4545994-12.6768017,27.9731998-12.7466011c0.044899,0,0.091301-0.0004997,0.1362-0.0004997
			c7.8808022,0,15.919899,3.8013,21.5332031,10.1875c4.1221008,4.6913986,5.2177963,8.9423981,5.9218979,12.5586014
			c0.5127029,2.6283989,0.9051971,4.1781998,3.0067978,5.453598c0.9442978,0.5732994,1.2451019,1.8036995,0.6718979,2.7481003
			C77.5907974,57.2958984,76.9316025,57.6386986,76.2558975,57.6386986z"/>
	</g>
	<g>
		<path class="st1" d="M73.419899,67.9912033c-0.2313995,0-0.4667969-0.0410004-0.6962967-0.1260071
			C62.7266006,64.1503983,62.1621017,57.3223,61.7089996,51.8349991
			c-0.3593979-4.3246994-4.4785004-11.0136986-11.2901001-12.4654007
			c-7.1054001-1.5131989-14.9520988,3.5708008-18.4667988,6.8145027
			c-4.2875004,3.9525986-10.4917011,8.6058998-10.7534008,8.8022003c-0.8838005,0.6611977-2.1366997,0.4824982-2.7998009-0.4033012
			c-0.6620998-0.8838005-0.4818993-2.1376991,0.402401-2.7988014c0.0625-0.0468979,6.3041992-4.7285004,10.4389-8.5401001
			c5.0668983-4.6752968,13.8681984-9.5194969,22.0126991-7.7865982c8.3544998,1.7803001,13.9013977,9.5293007,14.4375,15.9926987
			c0.4384995,5.3036995,0.8125,9.8358994,8.4258041,12.6649971C75.152298,64.5,75.6797028,65.6513977,75.294899,66.6865005
			C74.9951019,67.4922028,74.2313995,67.9912033,73.419899,67.9912033z"/>
	</g>
	<g>
		<path class="st1" d="M24.0386009,71.152298c-1.0181007,0-1.8887005-0.7743988-1.9883003-1.8084946
			C21.9442997,68.2441025,22.75,67.267601,23.8495998,67.1611023c4.8500996-0.4658051,10.6117992-4.3515015,17.1244984-11.5488014
			c0.2871017-0.3174019,0.5044022-0.5566025,0.6441002-0.6991997c0.8081017-0.8281021,2.9575005-3.0361023,5.3754997-2.4746017
			c0.9667015,0.222599,2.2778015,0.9658012,3.0336037,3.2421989c0.2861977,0.8632011,0.6728973,1.3798027,1.1503983,1.5351028
			c0.8828011,0.2891006,2.219799-0.3768997,2.5195999-0.5908012c0.2871017-0.2304993,0.6571999-0.8320007,0.7509003-1.7626991
			c0.0918007-0.9209023-0.0321999-2.7988014-1.9002991-5.0321999c-1.2422028-1.4859009-3.5312996-2.3866997-5.8969994-2.3618011
			c-3.5943031,0.0433998-7.1494026,2.0483017-10.0117035,5.644001
			c-7.1093979,8.9356003-13.1694984,10.5351982-13.4238987,10.5995979
			c-1.0713005,0.2637024-2.1571999-0.3827972-2.4256992-1.4540977c-0.2671013-1.0664024,0.3754005-2.1464996,1.4370003-2.4219017
			c0.1259003-0.0360985,5.1590996-1.5184975,11.2826996-9.2137985c3.625-4.5546989,8.2748985-7.0951996,13.0932007-7.1533012
			c3.594799-0.0429993,6.9902992,1.3745003,9.0136986,3.7953987c2.080101,2.4868011,3.0791016,5.3266029,2.8115005,7.9965019
			c-0.1865005,1.8662987-1.0107002,3.5098-2.2607002,4.5098c-0.7344017,0.5868988-3.4238014,2.0830002-6.0946999,1.2900009
			c-1.2519989-0.3710022-2.9351006-1.3875999-3.8418007-4.1201019c-0.078598-0.2383003-0.1529007-0.4012985-0.2109985-0.5097008
			c-0.2518997,0.1289024-0.7378006,0.4550018-1.5390015,1.2763023c-0.1181984,0.1210976-0.2993011,0.3232994-0.5405998,0.5888977
			c-2.6849976,2.9668007-10.8549004,11.9961014-19.7074986,12.847702
			C24.1674995,71.1493988,24.1025009,71.152298,24.0386009,71.152298z"/>
	</g>
	<g>
		<path class="st1" d="M27.4242992,77.8612976c-1.0087986,0-1.8759995-0.7606964-1.9862995-1.7870941
			c-0.1171989-1.0957031,0.6737995-2.080101,1.769001-2.2012024l0,0c0.0580997-0.0057983,5.8984985-0.7197037,13.1987991-5.6142044
			c8.4897003-5.6913948,19.0083008-3.5273972,23.884201,1.7402039c2.7881012,3.0147018,5.4580002,2.5811005,5.5712967,2.5606003
			c1.065506-0.1875,2.1211014,0.5087967,2.3320999,1.5791016c0.2098999,1.0692978-0.4540939,2.1063995-1.5195999,2.3378983
			c-0.1991959,0.0429001-4.9169998,1-9.3202972-3.7608032c-3.1504021-3.4052963-11.2803001-6.1230011-18.7206993-1.134697
			c-8.1807022,5.4852982-14.7182007,6.2391968-14.9927006,6.2685013C27.5674,77.857399,27.4955997,77.8612976,27.4242992,77.8612976
			z"/>
	</g>
	<g>
		<path class="st1" d="M35.8671989,84.1016006c-0.9218979,0-1.75-0.6407013-1.9525986-1.5782013
			c-0.232502-1.0791016,0.4540977-2.1435013,1.5326996-2.3768997c0.0586014-0.0127029,5.9043007-1.2997971,10.153801-4.1278992
			c6.2640991-4.1669998,9.9623985-1.5762024,13.5384979,0.9316025c1.2383003,0.8671951,2.517601,1.764595,4.0009995,2.4745941
			c0.9961052,0.4766006,1.4180031,1.6699066,0.9405022,2.6669998c-0.4766006,0.9971008-1.6729012,1.4180069-2.6669998,0.9404068
			c-1.782299-0.8525009-3.2637024-1.8906021-4.5703011-2.8066025c-3.3535995-2.3526001-5.0362015-3.5313034-9.0269012-0.8769989
			c-4.8935966,3.256897-11.2587967,4.6503983-11.527298,4.7080002
			C36.1478996,84.0868988,36.0063019,84.1016006,35.8671989,84.1016006z"/>
	</g>
	<g>
		<path class="st1" d="M46.1328011,88.3740005c-0.6893997,0-1.3608017-0.357399-1.7318993-0.9961014
			c-0.5537033-0.9541016-0.2324028-2.1747971,0.7206993-2.7304001c0.7173004-0.4179993,7.1195984-3.989296,11.0503006-0.6641006
			c0.8426971,0.7139053,0.947197,1.9766006,0.2333984,2.8192978c-0.714901,0.8418045-1.9776001,0.9463043-2.8194008,0.2334061
			c-1.3955002-1.1845016-5.0165977,0.2382965-6.4525986,1.0683975
			C46.8179016,88.2871017,46.4730988,88.3740005,46.1328011,88.3740005z"/>
	</g>
</g>
</svg>
