<?xml version="1.0" encoding="utf-8"?>
<!-- Generator: Adobe Illustrator 22.1.0, SVG Export Plug-In . SVG Version: 6.00 Build 0)  -->
<svg version="1.1" id="Layer_1" xmlns="http://www.w3.org/2000/svg" xmlns:xlink="http://www.w3.org/1999/xlink" x="0px" y="0px"
	 viewBox="0 0 96 96" style="enable-background:new 0 0 96 96;" xml:space="preserve">
<style type="text/css">
	.st0{fill:#ED2D24;}
	.st1{fill:#FFFFFF;}
</style>
<rect class="st0" width="96" height="96"/>
<g>
	<g>
		<path class="st1" d="M25,26.3910007c0,1.1215-0.9099007,2.0342999-2.0305996,2.0342999
			c-1.1247997,0-2.0324001-0.9127998-2.0324001-2.0342999c0-1.1228008,0.9076004-2.0330009,2.0324001-2.0330009
			C24.0900993,24.3579998,25,25.2681999,25,26.3910007z"/>
	</g>
	<g>
		<path class="st1" d="M25,40.4631996c0,1.1215019-0.9099007,2.0343018-2.0305996,2.0343018
			c-1.1247997,0-2.0324001-0.9127998-2.0324001-2.0343018c0-1.1227989,0.9076004-2.0330009,2.0324001-2.0330009
			C24.0900993,38.4301987,25,39.3404007,25,40.4631996z"/>
	</g>
	<g>
		<path class="st1" d="M25,54.5354996c0,1.1215019-0.9099007,2.0343018-2.0305996,2.0343018
			c-1.1247997,0-2.0324001-0.9127998-2.0324001-2.0343018c0-1.1227989,0.9076004-2.0330009,2.0324001-2.0330009
			C24.0900993,52.5024986,25,53.4127007,25,54.5354996z"/>
	</g>
	<g>
		<path class="st1" d="M25,68.6076965c0,1.1215057-0.9099007,2.0343018-2.0305996,2.0343018
			c-1.1247997,0-2.0324001-0.912796-2.0324001-2.0343018c0-1.1227951,0.9076004-2.0329971,2.0324001-2.0329971
			C24.0900993,66.5746994,25,67.4849014,25,68.6076965z"/>
	</g>
	<g>
		<path class="st1" d="M74.0966949,28.3915997H32.8432999c-1.1044998,0-2-0.8955002-2-2s0.8955002-2,2-2h41.2533951
			c1.1044998,0,2,0.8955002,2,2S75.2011948,28.3915997,74.0966949,28.3915997z"/>
	</g>
	<g>
		<path class="st1" d="M74.0966949,42.4639015H32.8432999c-1.1044998,0-2-0.8955002-2-2s0.8955002-2,2-2h41.2533951
			c1.1044998,0,2,0.8955002,2,2S75.2011948,42.4639015,74.0966949,42.4639015z"/>
	</g>
	<g>
		<path class="st1" d="M74.0966949,56.5360985H32.8432999c-1.1044998,0-2-0.8955002-2-2s0.8955002-2,2-2h41.2533951
			c1.1044998,0,2,0.8955002,2,2S75.2011948,56.5360985,74.0966949,56.5360985z"/>
	</g>
	<g>
		<path class="st1" d="M74.0966949,70.6083984H32.8432999c-1.1044998,0-2-0.8955002-2-2s0.8955002-2,2-2h41.2533951
			c1.1044998,0,2,0.8955002,2,2S75.2011948,70.6083984,74.0966949,70.6083984z"/>
	</g>
</g>
</svg>
