<?xml version="1.0" encoding="utf-8"?>
<!-- Generator: Adobe Illustrator 22.0.1, SVG Export Plug-In . SVG Version: 6.00 Build 0)  -->
<svg version="1.1" id="Capa_1" xmlns="http://www.w3.org/2000/svg" xmlns:xlink="http://www.w3.org/1999/xlink" x="0px" y="0px"
	 viewBox="0 0 496 496" style="enable-background:new 0 0 496 496;" xml:space="preserve">
<style type="text/css">
	.st0{fill:#0496FF;}
	.st1{fill:#00487C;}
</style>
<path class="st0" d="M416,496H80V256h264l72,72V496z"/>
<g>
	<path class="st1" d="M456,56h-80V24c0-13.2-10.8-24-24-24H144c-13.2,0-24,10.8-24,24v32H40C17.9,56,0,73.9,0,96v272
		c0,22.1,17.9,40,40,40h40v-16H64v-16H48v16h-8c-13.2,0-24-10.8-24-24V96c0-13.2,10.8-24,24-24h8v89.5c-9.3,3.3-16,12.1-16,22.5v32
		c0,10.4,6.7,19.2,16,22.5V360h16V240h32v16h16v-17.5c9.3-3.3,16-12.1,16-22.5v-32c0-10.4-6.7-19.2-16-22.5V72h272v89.5
		c-9.3,3.3-16,12.1-16,22.5v32c0,10.4,6.7,19.2,16,22.5V296l16,16v-72h32v152h-16v16h40c22.1,0,40-17.9,40-40V96
		C496,73.9,478.1,56,456,56z M136,24c0-4.4,3.6-8,8-8h208c4.4,0,8,3.6,8,8v32H136V24z M56,176h48c4.4,0,8,3.6,8,8v8H48v-8
		C48,179.6,51.6,176,56,176z M104,224H56c-4.4,0-8-3.6-8-8v-8h64v8C112,220.4,108.4,224,104,224z M96,160H64V72h32V160z M392,176h48
		c4.4,0,8,3.6,8,8v8h-64v-8C384,179.6,387.6,176,392,176z M440,224h-48c-4.4,0-8-3.6-8-8v-8h64v8C448,220.4,444.4,224,440,224z
		 M480,368c0,13.2-10.8,24-24,24h-8V238.5c9.3-3.3,16-12.1,16-22.5v-32c0-10.4-6.7-19.2-16-22.5V104h-16v56h-32V72h32v16h16V72h8
		c13.2,0,24,10.8,24,24V368z"/>
	<path class="st1" d="M320,88c-17.6,0-32,14.4-32,32s14.4,32,32,32s32-14.4,32-32S337.6,88,320,88z M320,136c-8.8,0-16-7.2-16-16
		s7.2-16,16-16s16,7.2,16,16C336,128.8,328.8,136,320,136z"/>
	<path class="st1" d="M184,297.5c0-29.9,11.2-58.4,31.4-80.4l48.6-52.6V200h16v-64h-64v16h37.7l-50,54.2
		c-23,24.9-35.7,57.3-35.7,91.3c0,74.2,60.3,134.5,134.5,134.5H368v-16h-65.5C237.2,416,184,362.8,184,297.5z"/>
	<polygon class="st1" points="269.7,322.3 258.3,333.7 276.7,352 258.3,370.3 269.7,381.7 288,363.3 306.3,381.7 317.7,370.3 
		299.3,352 317.7,333.7 306.3,322.3 288,340.7 	"/>
	<polygon class="st1" points="162.3,402.3 144,420.7 125.7,402.3 114.3,413.7 132.7,432 114.3,450.3 125.7,461.7 144,443.3 
		162.3,461.7 173.7,450.3 155.3,432 173.7,413.7 	"/>
	<polygon class="st1" points="328,256 328,344 416,344 416,328 344,328 344,256 	"/>
</g>
</svg>
