<?xml version="1.0" encoding="utf-8"?>
<!-- Generator: Adobe Illustrator 22.0.1, SVG Export Plug-In . SVG Version: 6.00 Build 0)  -->
<svg version="1.1" id="Capa_1" xmlns="http://www.w3.org/2000/svg" xmlns:xlink="http://www.w3.org/1999/xlink" x="0px" y="0px"
	 viewBox="0 0 496 496" style="enable-background:new 0 0 496 496;" xml:space="preserve">
<style type="text/css">
	.st0{fill:#0496FF;}
	.st1{fill:#00487C;}
</style>
<polygon class="st0" points="352,16 144,16 144,32 224,32 224,48 272,48 272,32 352,32 "/>
<g>
	<path class="st1" d="M471.8,120.3L440,106.7v-4.8C454.5,91.8,464,75,464,56c0-30.9-25.1-56-56-56s-56,25.1-56,56
		c0,19,9.5,35.8,24,45.9v4.8l-31.8,13.6c-14.7,6.3-24.2,20.8-24.2,36.8v40.1c-2.5-1.9-5.2-3.6-8.2-4.9L280,178.7v-4.8
		c14.5-10.1,24-26.9,24-45.9c0-30.9-25.1-56-56-56s-56,25.1-56,56c0,19,9.5,35.8,24,45.9v4.8l-31.8,13.6c-3,1.3-5.7,3-8.2,4.9v-40.1
		c0-16-9.5-30.5-24.2-36.8L120,106.7v-4.8C134.5,91.8,144,75,144,56c0-30.9-25.1-56-56-56S32,25.1,32,56c0,19,9.5,35.8,24,45.9v4.8
		l-31.8,13.6C9.5,126.6,0,141.1,0,157.1V252c0,15.4,12.6,28,28,28c4.3,0,8.4-1.1,12-2.8V424h96V277.2c3.6,1.7,7.7,2.8,12,2.8
		s8.4-1.1,12-2.8V324c0,15.4,12.6,28,28,28c4.3,0,8.4-1.1,12-2.8V496h96V349.2c3.6,1.7,7.7,2.8,12,2.8c15.4,0,28-12.6,28-28v-46.8
		c3.6,1.7,7.7,2.8,12,2.8s8.4-1.1,12-2.8V424h96V277.2c3.6,1.7,7.7,2.8,12,2.8c15.4,0,28-12.6,28-28v-94.9
		C496,141.1,486.5,126.6,471.8,120.3z M392,109.6c5.1,1.5,10.4,2.4,16,2.4s10.9-0.8,16-2.4v0.1l-16,26.7l-16-26.7V109.6z
		 M382.8,125.6l18.7,31.2l-24.1-9.6L382.8,125.6z M433.2,125.6l5.4,21.5l-24.1,9.6L433.2,125.6z M368,56c0-22.1,17.9-40,40-40
		s40,17.9,40,40s-17.9,40-40,40S368,78.1,368,56z M336,157.1c0-9.6,5.7-18.3,14.5-22.1l15.1-6.5l-7.1,28.2l49.5,19.8l49.5-19.8
		l-7.1-28.2l15.1,6.5c8.8,3.8,14.5,12.5,14.5,22.1V232h-24v-32h-16v48h-64v-48h-16v32h-24v-2.9V157.1z M400,280v96h-24V264h64v112
		h-24v-96H400z M232,181.6c5.1,1.5,10.4,2.4,16,2.4s10.9-0.8,16-2.4v0.1l-16,26.7l-16-26.7V181.6z M222.8,197.6l18.7,31.2l-24.1-9.6
		L222.8,197.6z M273.2,197.6l5.4,21.5l-24.1,9.6L273.2,197.6z M208,128c0-22.1,17.9-40,40-40s40,17.9,40,40s-17.9,40-40,40
		S208,150.1,208,128z M190.5,207l15.1-6.5l-7.1,28.2l49.5,19.8l49.5-19.8l-7.1-28.2l15.1,6.5c8.8,3.8,14.5,12.5,14.5,22.1V252v52
		h-24v-32h-16v48h-64v-48h-16v32h-24v-52v-22.9C176,219.5,181.7,210.8,190.5,207z M240,352v96h-24V336h64v112h-24v-96H240z
		 M72,109.6c5.1,1.5,10.4,2.4,16,2.4s10.9-0.8,16-2.4v0.1l-16,26.7l-16-26.7V109.6z M62.8,125.6l18.7,31.2l-24.1-9.6L62.8,125.6z
		 M113.2,125.6l5.4,21.5l-24.1,9.6L113.2,125.6z M48,56c0-22.1,17.9-40,40-40s40,17.9,40,40s-17.9,40-40,40S48,78.1,48,56z
		 M30.5,135l15.1-6.5l-7.1,28.2L88,176.6l49.5-19.8l-7.1-28.2l15.1,6.5c8.8,3.8,14.5,12.5,14.5,22.1v72v2.9h-24v-32h-16v48H56v-48
		H40v32H16v-74.9C16,147.5,21.7,138.8,30.5,135z M80,280v96H56V264h64v112H96v-96H80z M28,264c-6.6,0-12-5.4-12-12v-4h24v4
		C40,258.6,34.6,264,28,264z M56,392h24v16H56V392z M96,408v-16h24v16H96z M148,264c-6.6,0-12-5.4-12-12v-4h24v4
		C160,258.6,154.6,264,148,264z M188,336c-6.6,0-12-5.4-12-12v-4h24v4C200,330.6,194.6,336,188,336z M216,464h24v16h-24V464z
		 M256,480v-16h24v16H256z M308,336c-6.6,0-12-5.4-12-12v-4h24v4C320,330.6,314.6,336,308,336z M348,264c-6.6,0-12-5.4-12-12v-4h24
		v4C360,258.6,354.6,264,348,264z M376,392h24v16h-24V392z M416,408v-16h24v16H416z M468,264c-6.6,0-12-5.4-12-12v-4h24v4
		C480,258.6,474.6,264,468,264z"/>
	<rect x="240" y="0" class="st1" width="16" height="16"/>
	<rect x="272" y="0" class="st1" width="16" height="16"/>
	<rect x="304" y="0" class="st1" width="16" height="16"/>
	<rect x="144" y="0" class="st1" width="16" height="16"/>
	<rect x="176" y="0" class="st1" width="16" height="16"/>
	<rect x="208" y="0" class="st1" width="16" height="16"/>
	<rect x="336" y="0" class="st1" width="16" height="16"/>
	<rect x="240" y="32" class="st1" width="16" height="16"/>
</g>
<g>
	<circle class="st0" cx="248" cy="128" r="24"/>
	<circle class="st0" cx="88" cy="56" r="24"/>
	<circle class="st0" cx="408" cy="56" r="24"/>
</g>
</svg>
