<?xml version="1.0" encoding="utf-8"?>
<!-- Generator: Adobe Illustrator 22.1.0, SVG Export Plug-In . SVG Version: 6.00 Build 0)  -->
<svg version="1.1" id="Layer_1" xmlns="http://www.w3.org/2000/svg" xmlns:xlink="http://www.w3.org/1999/xlink" x="0px" y="0px"
	 viewBox="0 0 25 25" style="enable-background:new 0 0 25 25;" xml:space="preserve">
<style type="text/css">
	.st0{clip-path:url(#SVGID_10_);}
	.st1{fill:#FBFBFB;}
	.st2{fill:#FEFEFE;}
	.st3{fill:#F8F8F8;}
	.st4{fill:#FDFDFD;}
	.st5{fill:#F7F7F7;}
	.st6{fill:#FCFCFC;}
	.st7{fill:#F3F3F3;}
	.st8{fill:#F9F9F9;}
	.st9{fill:#F6F6F6;}
	.st10{fill:#E7E7E7;}
	.st11{fill:#F1F1F1;}
	.st12{fill:#F2F2F2;}
	.st13{fill:#C1C1C1;}
	.st14{fill:#E4E4E4;}
	.st15{fill:#F0F0F0;}
	.st16{fill:#F5F5F5;}
	.st17{fill:#FAFAFA;}
	.st18{fill:#D1D1D1;}
	.st19{fill:#DEDEDE;}
	.st20{fill:#DCDCDC;}
	.st21{fill:#EAEAEA;}
	.st22{fill:#DFDFDF;}
	.st23{fill:#EEEEEE;}
	.st24{fill:#D6D6D6;}
	.st25{fill:#EDEDED;}
	.st26{fill:#ECECEC;}
	.st27{fill:#CECECE;}
	.st28{fill:#DADADA;}
	.st29{fill:#C3C3C3;}
	.st30{fill:#BABABA;}
	.st31{fill:#E0E0E0;}
	.st32{fill:#D2D2D2;}
	.st33{fill:#E3E3E3;}
	.st34{fill:#EFEFEF;}
	.st35{fill:#CFCFCF;}
	.st36{fill:#D7D7D7;}
	.st37{fill:#CDCDCD;}
	.st38{fill:#E2E2E2;}
	.st39{fill:#EBEBEB;}
	.st40{fill:#D3D3D3;}
	.st41{fill:#D8D8D8;}
	.st42{fill:#D0D0D0;}
	.st43{fill:#D9D9D9;}
	.st44{fill:#DBDBDB;}
	.st45{fill:#E1E1E1;}
	.st46{fill:#E5E5E5;}
	.st47{fill:#E9E9E9;}
</style>
<g>
	<g>
		<g>
			<defs>
				<rect id="SVGID_1_" width="25" height="25"/>
			</defs>
			<clipPath id="SVGID_2_">
				<use xlink:href="#SVGID_1_"  style="overflow:visible;"/>
			</clipPath>
		</g>
		<g>
			<defs>
				<rect id="SVGID_3_" width="25" height="25"/>
			</defs>
			<clipPath id="SVGID_4_">
				<use xlink:href="#SVGID_3_"  style="overflow:visible;"/>
			</clipPath>
		</g>
		<g>
			<defs>
				<rect id="SVGID_5_" width="25" height="25"/>
			</defs>
			<clipPath id="SVGID_6_">
				<use xlink:href="#SVGID_5_"  style="overflow:visible;"/>
			</clipPath>
		</g>
	</g>
	<g>
		<g>
			<defs>
				<rect id="SVGID_7_" width="25" height="25"/>
			</defs>
			<clipPath id="SVGID_8_">
				<use xlink:href="#SVGID_7_"  style="overflow:visible;"/>
			</clipPath>
		</g>
		<g>
			<defs>
				<rect id="SVGID_9_" width="25" height="25"/>
			</defs>
			<clipPath id="SVGID_10_">
				<use xlink:href="#SVGID_9_"  style="overflow:visible;"/>
			</clipPath>
			<g class="st0">
				
					<rect x="14.6" y="-1.7" transform="matrix(0.7071 -0.7071 0.7071 0.7071 5.181 10.5765)" class="st1" width="1.4" height="1.4"/>
				
					<rect x="15.6" y="-0.7" transform="matrix(0.7071 -0.7071 0.7071 0.7071 4.7811 11.5391)" class="st2" width="1.4" height="1.4"/>
				
					<rect x="12.7" y="-1.7" transform="matrix(0.7075 -0.7068 0.7068 0.7075 4.6114 9.2091)" class="st3" width="1.4" height="1.4"/>
				
					<rect x="13.7" y="-0.7" transform="matrix(0.7071 -0.7071 0.7071 0.7071 4.2173 10.177)" class="st1" width="1.4" height="1.4"/>
				
					<rect x="14.6" y="0.2" transform="matrix(0.7068 -0.7074 0.7074 0.7068 3.8226 11.1461)" class="st1" width="1.4" height="1.4"/>
				
					<rect x="15.6" y="1.2" transform="matrix(0.7075 -0.7068 0.7068 0.7075 3.4139 12.0977)" class="st4" width="1.4" height="1.4"/>
				<rect x="16.6" y="2.2" transform="matrix(0.707 -0.7072 0.7072 0.707 3.0214 13.0705)" class="st2" width="1.4" height="1.4"/>
				<rect x="10.8" y="-1.7" transform="matrix(0.7071 -0.7071 0.7071 0.7071 4.052 7.8509)" class="st3" width="1.4" height="1.4"/>
				<polygon class="st5" points="11.5,0 12.5,1 13.5,0 12.5,-1 				"/>
				<rect x="12.7" y="0.2" transform="matrix(0.7071 -0.7071 0.7071 0.7071 3.253 9.7775)" class="st3" width="1.4" height="1.4"/>
				
					<rect x="13.7" y="1.2" transform="matrix(0.7074 -0.7068 0.7068 0.7074 2.8506 10.7363)" class="st6" width="1.4" height="1.4"/>
				
					<rect x="14.6" y="2.2" transform="matrix(0.7068 -0.7074 0.7074 0.7068 2.4591 11.7113)" class="st6" width="1.4" height="1.4"/>
				
					<rect x="15.6" y="3.1" transform="matrix(0.7071 -0.7071 0.7071 0.7071 2.0556 12.6679)" class="st4" width="1.4" height="1.4"/>
				<rect x="8.9" y="-1.7" transform="matrix(0.7071 -0.7071 0.7071 0.7071 3.4877 6.4883)" class="st7" width="1.4" height="1.4"/>
				<rect x="9.8" y="-0.7" transform="matrix(0.7068 -0.7074 0.7074 0.7068 3.0919 7.4555)" class="st3" width="1.4" height="1.4"/>
				<rect x="10.8" y="0.2" transform="matrix(0.7068 -0.7074 0.7074 0.7068 2.6924 8.4194)" class="st3" width="1.4" height="1.4"/>
				<rect x="11.8" y="1.2" transform="matrix(0.7078 -0.7064 0.7064 0.7078 2.2829 9.3691)" class="st1" width="1.4" height="1.4"/>
				<rect x="12.7" y="2.2" transform="matrix(0.7071 -0.7071 0.7071 0.7071 1.8902 10.342)" class="st6" width="1.4" height="1.4"/>
				<rect x="13.7" y="3.1" transform="matrix(0.7071 -0.7071 0.7071 0.7071 1.4916 11.306)" class="st6" width="1.4" height="1.4"/>
				<rect x="14.6" y="4.1" transform="matrix(0.7071 -0.7071 0.7071 0.7071 1.0924 12.27)" class="st6" width="1.4" height="1.4"/>
				
					<rect x="15.6" y="5.1" transform="matrix(0.7068 -0.7075 0.7075 0.7068 0.6969 13.2409)" class="st4" width="1.4" height="1.4"/>
				<rect x="6.9" y="-1.7" transform="matrix(0.7071 -0.7071 0.7071 0.7071 2.9231 5.1254)" class="st7" width="1.4" height="1.4"/>
				<rect x="7.9" y="-0.7" transform="matrix(0.7071 -0.7071 0.7071 0.7071 2.5238 6.0889)" class="st7" width="1.4" height="1.4"/>
				<rect x="8.9" y="0.2" transform="matrix(0.7068 -0.7074 0.7074 0.7068 2.1274 7.0562)" class="st7" width="1.4" height="1.4"/>
				<rect x="9.8" y="1.2" transform="matrix(0.7071 -0.7071 0.7071 0.7071 1.7258 8.0166)" class="st8" width="1.4" height="1.4"/>
				<rect x="10.8" y="2.2" transform="matrix(0.7068 -0.7074 0.7074 0.7068 1.3289 8.9845)" class="st9" width="1.4" height="1.4"/>
				<rect x="11.8" y="3.1" transform="matrix(0.7075 -0.7067 0.7067 0.7075 0.924 9.9375)" class="st9" width="1.4" height="1.4"/>
				
					<rect x="12.7" y="4.1" transform="matrix(0.7075 -0.7068 0.7068 0.7075 0.5248 10.9006)" class="st6" width="1.4" height="1.4"/>
				
					<rect x="13.7" y="5.1" transform="matrix(0.7067 -0.7075 0.7075 0.7067 0.1321 11.8782)" class="st6" width="1.4" height="1.4"/>
				<rect x="14.6" y="6" transform="matrix(0.7071 -0.7071 0.7071 0.7071 -0.2695 12.8341)" class="st6" width="1.4" height="1.4"/>
				<rect x="15.6" y="7" transform="matrix(0.7075 -0.7068 0.7068 0.7075 -0.672 13.789)" class="st6" width="1.4" height="1.4"/>
				<rect x="16.6" y="8" transform="matrix(0.7076 -0.7066 0.7066 0.7076 -1.0729 14.7473)" class="st2" width="1.4" height="1.4"/>
				<rect x="5" y="-1.7" transform="matrix(0.7071 -0.7071 0.7071 0.7071 2.3584 3.7622)" class="st10" width="1.4" height="1.4"/>
				<rect x="6" y="-0.7" transform="matrix(0.7071 -0.7071 0.7071 0.7071 1.9593 4.726)" class="st11" width="1.4" height="1.4"/>
				<rect x="6.9" y="0.2" transform="matrix(0.7068 -0.7074 0.7074 0.7068 1.5623 5.6926)" class="st7" width="1.4" height="1.4"/>
				<rect x="7.9" y="1.2" transform="matrix(0.7075 -0.7068 0.7068 0.7075 1.1589 6.65)" class="st7" width="1.4" height="1.4"/>
				<rect x="8.9" y="2.2" transform="matrix(0.7068 -0.7074 0.7074 0.7068 0.7639 7.6213)" class="st7" width="1.4" height="1.4"/>
				<rect x="9.8" y="3.1" transform="matrix(0.7068 -0.7074 0.7074 0.7068 0.365 8.5857)" class="st12" width="1.4" height="1.4"/>
				
					<rect x="10.8" y="4.1" transform="matrix(0.7071 -0.7071 0.7071 0.7071 -3.658419e-02 9.5445)" class="st12" width="1.4" height="1.4"/>
				
					<rect x="11.8" y="5.1" transform="matrix(0.7071 -0.7071 0.7071 0.7071 -0.4355 10.5082)" class="st8" width="1.4" height="1.4"/>
				<rect x="12.7" y="6" transform="matrix(0.7075 -0.7068 0.7068 0.7075 -0.8364 11.4641)" class="st6" width="1.4" height="1.4"/>
				<rect x="13.7" y="7" transform="matrix(0.7074 -0.7068 0.7068 0.7074 -1.2355 12.4278)" class="st6" width="1.4" height="1.4"/>
				<rect x="14.6" y="8" transform="matrix(0.7075 -0.7068 0.7068 0.7075 -1.635 13.3904)" class="st8" width="1.4" height="1.4"/>
				
					<rect x="15.6" y="8.9" transform="matrix(0.7071 -0.7071 0.7071 0.7071 -2.032 14.3619)" class="st6" width="1.4" height="1.4"/>
				<rect x="3.1" y="-1.7" transform="matrix(0.7071 -0.7071 0.7071 0.7071 1.7943 2.4)" class="st13" width="1.4" height="1.4"/>
				<rect x="4" y="-0.7" transform="matrix(0.7071 -0.7071 0.7071 0.7071 1.3949 3.3634)" class="st10" width="1.4" height="1.4"/>
				<rect x="5" y="0.2" transform="matrix(0.7068 -0.7074 0.7074 0.7068 0.997 4.3289)" class="st10" width="1.4" height="1.4"/>
				<rect x="6" y="1.2" transform="matrix(0.7075 -0.7068 0.7068 0.7075 0.5951 5.2877)" class="st10" width="1.4" height="1.4"/>
				<rect x="6.9" y="2.2" transform="matrix(0.7068 -0.7074 0.7074 0.7068 0.1987 6.2578)" class="st11" width="1.4" height="1.4"/>
				
					<rect x="7.9" y="3.1" transform="matrix(0.7071 -0.7071 0.7071 0.7071 -0.2018 7.2178)" class="st14" width="1.4" height="1.4"/>
				<rect x="8.9" y="4.1" transform="matrix(0.7071 -0.7071 0.7071 0.7071 -0.601 8.1819)" class="st15" width="1.4" height="1.4"/>
				
					<rect x="9.8" y="5.1" transform="matrix(0.7064 -0.7078 0.7078 0.7064 -0.9966 9.1571)" class="st16" width="1.4" height="1.4"/>
				
					<rect x="10.8" y="6" transform="matrix(0.7071 -0.7071 0.7071 0.7071 -1.3985 10.1086)" class="st12" width="1.4" height="1.4"/>
				<rect x="11.8" y="7" transform="matrix(0.7078 -0.7064 0.7064 0.7078 -1.801 11.0584)" class="st5" width="1.4" height="1.4"/>
				
					<rect x="12.7" y="8" transform="matrix(0.7078 -0.7064 0.7064 0.7078 -2.2005 12.0203)" class="st17" width="1.4" height="1.4"/>
				
					<rect x="13.7" y="8.9" transform="matrix(0.7071 -0.7071 0.7071 0.7071 -2.5963 13.0001)" class="st3" width="1.4" height="1.4"/>
				
					<rect x="14.6" y="9.9" transform="matrix(0.7068 -0.7075 0.7075 0.7068 -2.9938 13.9723)" class="st3" width="1.4" height="1.4"/>
				
					<rect x="15.6" y="10.8" transform="matrix(0.7075 -0.7068 0.7068 0.7075 -3.3962 14.9166)" class="st4" width="1.4" height="1.4"/>
				
					<rect x="16.6" y="11.8" transform="matrix(0.7073 -0.7069 0.7069 0.7073 -3.7946 15.8846)" class="st2" width="1.4" height="1.4"/>
				
					<rect x="1.2" y="-1.7" transform="matrix(0.7071 -0.7071 0.7071 0.7071 1.2298 1.0374)" class="st14" width="1.4" height="1.4"/>
				
					<rect x="2.1" y="-0.7" transform="matrix(0.7075 -0.7068 0.7068 0.7075 0.8296 1.9997)" class="st18" width="1.4" height="1.4"/>
				<rect x="3.1" y="0.2" transform="matrix(0.7068 -0.7075 0.7075 0.7068 0.4322 2.9661)" class="st13" width="1.4" height="1.4"/>
				
					<rect x="4" y="1.2" transform="matrix(0.7075 -0.7068 0.7068 0.7075 3.131884e-02 3.9258)" class="st19" width="1.4" height="1.4"/>
				<rect x="5" y="2.2" transform="matrix(0.7068 -0.7074 0.7074 0.7068 -0.3665 4.894)" class="st20" width="1.4" height="1.4"/>
				<rect x="6" y="3.1" transform="matrix(0.7071 -0.7071 0.7071 0.7071 -0.7663 5.8549)" class="st21" width="1.4" height="1.4"/>
				
					<rect x="6.9" y="4.1" transform="matrix(0.7071 -0.7071 0.7071 0.7071 -1.1655 6.8189)" class="st14" width="1.4" height="1.4"/>
				
					<rect x="7.9" y="5.1" transform="matrix(0.7068 -0.7075 0.7075 0.7068 -1.5635 7.7877)" class="st22" width="1.4" height="1.4"/>
				<rect x="8.9" y="6" transform="matrix(0.7071 -0.7071 0.7071 0.7071 -1.9629 8.746)" class="st10" width="1.4" height="1.4"/>
				<rect x="9.8" y="7" transform="matrix(0.7071 -0.7071 0.7071 0.7071 -2.3621 9.7099)" class="st12" width="1.4" height="1.4"/>
				
					<rect x="10.8" y="8" transform="matrix(0.7075 -0.7068 0.7068 0.7075 -2.7626 10.6662)" class="st23" width="1.4" height="1.4"/>
				
					<rect x="11.8" y="8.9" transform="matrix(0.7075 -0.7068 0.7068 0.7075 -3.1617 11.6293)" class="st5" width="1.4" height="1.4"/>
				<rect x="12.7" y="9.9" transform="matrix(0.7071 -0.7071 0.7071 0.7071 -3.56 12.6002)" class="st5" width="1.4" height="1.4"/>
				
					<rect x="13.7" y="10.8" transform="matrix(0.7074 -0.7068 0.7068 0.7074 -3.9599 13.5555)" class="st6" width="1.4" height="1.4"/>
				
					<rect x="14.6" y="11.8" transform="matrix(0.7071 -0.7071 0.7071 0.7071 -4.358 14.5276)" class="st6" width="1.4" height="1.4"/>
				
					<rect x="15.6" y="12.8" transform="matrix(0.7071 -0.7071 0.7071 0.7071 -4.7575 15.4909)" class="st2" width="1.4" height="1.4"/>
				
					<rect x="-0.8" y="-1.7" transform="matrix(0.7074 -0.7068 0.7068 0.7074 0.665 -0.3252)" class="st14" width="1.4" height="1.4"/>
				
					<rect x="0.2" y="-0.7" transform="matrix(0.7071 -0.7071 0.7071 0.7071 0.2661 0.6381)" class="st14" width="1.4" height="1.4"/>
				
					<rect x="1.2" y="0.2" transform="matrix(0.7068 -0.7074 0.7074 0.7068 -0.1328 1.6029)" class="st14" width="1.4" height="1.4"/>
				<rect x="2.1" y="1.2" transform="matrix(0.7078 -0.7064 0.7064 0.7078 -0.5328 2.562)" class="st24" width="1.4" height="1.4"/>
				
					<rect x="3.1" y="2.2" transform="matrix(0.7068 -0.7075 0.7075 0.7068 -0.9314 3.5313)" class="st19" width="1.4" height="1.4"/>
				<rect x="4" y="3.1" transform="matrix(0.7071 -0.7071 0.7071 0.7071 -1.3307 4.4923)" class="st19" width="1.4" height="1.4"/>
				<rect x="5" y="4.1" transform="matrix(0.7071 -0.7071 0.7071 0.7071 -1.7302 5.4558)" class="st19" width="1.4" height="1.4"/>
				<rect x="6" y="5.1" transform="matrix(0.7068 -0.7075 0.7075 0.7068 -2.1287 6.4241)" class="st10" width="1.4" height="1.4"/>
				<rect x="6.9" y="6" transform="matrix(0.7071 -0.7071 0.7071 0.7071 -2.5274 7.3831)" class="st25" width="1.4" height="1.4"/>
				<rect x="7.9" y="7" transform="matrix(0.7075 -0.7068 0.7068 0.7075 -2.927 8.3412)" class="st25" width="1.4" height="1.4"/>
				<rect x="8.9" y="8" transform="matrix(0.7075 -0.7068 0.7068 0.7075 -3.3263 9.3043)" class="st26" width="1.4" height="1.4"/>
				
					<rect x="9.8" y="8.9" transform="matrix(0.7068 -0.7075 0.7075 0.7068 -3.7248 10.2815)" class="st9" width="1.4" height="1.4"/>
				
					<rect x="10.8" y="9.9" transform="matrix(0.7068 -0.7075 0.7075 0.7068 -4.1241 11.2454)" class="st9" width="1.4" height="1.4"/>
				
					<rect x="11.8" y="10.8" transform="matrix(0.7078 -0.7064 0.7064 0.7078 -4.5239 12.1846)" class="st7" width="1.4" height="1.4"/>
				
					<rect x="12.7" y="11.8" transform="matrix(0.7075 -0.7068 0.7068 0.7075 -4.9229 13.1555)" class="st25" width="1.4" height="1.4"/>
				
					<rect x="13.7" y="12.8" transform="matrix(0.7071 -0.7071 0.7071 0.7071 -5.3219 14.1292)" class="st9" width="1.4" height="1.4"/>
				
					<rect x="14.6" y="13.7" transform="matrix(0.7071 -0.7071 0.7071 0.7071 -5.7211 15.0912)" class="st9" width="1.4" height="1.4"/>
				
					<rect x="15.6" y="14.7" transform="matrix(0.7075 -0.7068 0.7068 0.7075 -6.1204 16.0442)" class="st2" width="1.4" height="1.4"/>
				
					<rect x="-0.8" y="0.2" transform="matrix(0.7071 -0.7071 0.7071 0.7071 -0.6977 0.239)" class="st14" width="1.4" height="1.4"/>
				
					<rect x="0.2" y="1.2" transform="matrix(0.7075 -0.7068 0.7068 0.7075 -1.0963 1.2016)" class="st27" width="1.4" height="1.4"/>
				<rect x="1.2" y="2.2" transform="matrix(0.7068 -0.7074 0.7074 0.7068 -1.4964 2.168)" class="st28" width="1.4" height="1.4"/>
				
					<rect x="2.1" y="3.1" transform="matrix(0.7075 -0.7068 0.7068 0.7075 -1.8948 3.1274)" class="st29" width="1.4" height="1.4"/>
				
					<rect x="3.1" y="4.1" transform="matrix(0.7071 -0.7071 0.7071 0.7071 -2.2945 4.0938)" class="st30" width="1.4" height="1.4"/>
				<rect x="4" y="5.1" transform="matrix(0.7068 -0.7075 0.7075 0.7068 -2.6938 5.0608)" class="st31" width="1.4" height="1.4"/>
				<rect x="5" y="6" transform="matrix(0.7071 -0.7071 0.7071 0.7071 -3.0921 6.0199)" class="st19" width="1.4" height="1.4"/>
				<rect x="6" y="7" transform="matrix(0.7075 -0.7068 0.7068 0.7075 -3.4908 6.979)" class="st19" width="1.4" height="1.4"/>
				<rect x="6.9" y="8" transform="matrix(0.7075 -0.7068 0.7068 0.7075 -3.8902 7.942)" class="st25" width="1.4" height="1.4"/>
				
					<rect x="7.9" y="8.9" transform="matrix(0.7071 -0.7071 0.7071 0.7071 -4.2896 8.9115)" class="st26" width="1.4" height="1.4"/>
				
					<rect x="8.9" y="9.9" transform="matrix(0.7068 -0.7075 0.7075 0.7068 -4.6891 9.8822)" class="st15" width="1.4" height="1.4"/>
				
					<rect x="9.8" y="10.8" transform="matrix(0.7071 -0.7071 0.7071 0.7071 -5.0876 10.8389)" class="st16" width="1.4" height="1.4"/>
				
					<rect x="10.8" y="11.8" transform="matrix(0.7071 -0.7071 0.7071 0.7071 -5.487 11.8021)" class="st26" width="1.4" height="1.4"/>
				
					<rect x="11.8" y="12.8" transform="matrix(0.7075 -0.7068 0.7068 0.7075 -5.8859 12.7569)" class="st25" width="1.4" height="1.4"/>
				
					<rect x="12.7" y="13.7" transform="matrix(0.7075 -0.7067 0.7067 0.7075 -6.2853 13.7185)" class="st26" width="1.4" height="1.4"/>
				
					<rect x="13.7" y="14.7" transform="matrix(0.7074 -0.7068 0.7068 0.7074 -6.6842 14.6833)" class="st8" width="1.4" height="1.4"/>
				
					<rect x="14.6" y="15.7" transform="matrix(0.7068 -0.7075 0.7075 0.7068 -7.0843 15.6678)" class="st1" width="1.4" height="1.4"/>
				
					<rect x="-0.8" y="2.2" transform="matrix(0.7071 -0.7071 0.7071 0.7071 -2.0606 0.8036)" class="st28" width="1.4" height="1.4"/>
				<rect x="0.2" y="3.1" transform="matrix(0.7071 -0.7071 0.7071 0.7071 -2.4595 1.767)" class="st32" width="1.4" height="1.4"/>
				<rect x="1.2" y="4.1" transform="matrix(0.7071 -0.7071 0.7071 0.7071 -2.8588 2.731)" class="st32" width="1.4" height="1.4"/>
				
					<rect x="2.1" y="5.1" transform="matrix(0.7071 -0.7071 0.7071 0.7071 -3.2581 3.6945)" class="st13" width="1.4" height="1.4"/>
				<rect x="3.1" y="6" transform="matrix(0.7071 -0.7071 0.7071 0.7071 -3.6565 4.658)" class="st24" width="1.4" height="1.4"/>
				<rect x="4" y="7" transform="matrix(0.7075 -0.7068 0.7068 0.7075 -4.0546 5.617)" class="st19" width="1.4" height="1.4"/>
				<rect x="5" y="8" transform="matrix(0.7075 -0.7068 0.7068 0.7075 -4.4541 6.5795)" class="st33" width="1.4" height="1.4"/>
				<rect x="6" y="8.9" transform="matrix(0.7071 -0.7071 0.7071 0.7071 -4.8542 7.5486)" class="st33" width="1.4" height="1.4"/>
				
					<rect x="6.9" y="9.9" transform="matrix(0.7068 -0.7075 0.7075 0.7068 -5.2544 8.5185)" class="st26" width="1.4" height="1.4"/>
				
					<rect x="7.9" y="10.8" transform="matrix(0.7075 -0.7068 0.7068 0.7075 -5.6512 9.4688)" class="st34" width="1.4" height="1.4"/>
				
					<rect x="8.9" y="11.8" transform="matrix(0.7071 -0.7071 0.7071 0.7071 -6.0514 10.4395)" class="st23" width="1.4" height="1.4"/>
				
					<rect x="9.8" y="12.8" transform="matrix(0.7068 -0.7075 0.7075 0.7068 -6.4516 11.4118)" class="st12" width="1.4" height="1.4"/>
				
					<rect x="10.8" y="13.7" transform="matrix(0.7071 -0.7071 0.7071 0.7071 -6.85 12.3658)" class="st12" width="1.4" height="1.4"/>
				
					<rect x="11.8" y="14.7" transform="matrix(0.7078 -0.7064 0.7064 0.7078 -7.2467 13.3109)" class="st25" width="1.4" height="1.4"/>
				
					<rect x="12.7" y="15.7" transform="matrix(0.7071 -0.7071 0.7071 0.7071 -7.6484 14.2937)" class="st34" width="1.4" height="1.4"/>
				
					<rect x="13.7" y="16.6" transform="matrix(0.7067 -0.7075 0.7075 0.7067 -8.0486 15.2694)" class="st1" width="1.4" height="1.4"/>
				
					<rect x="14.6" y="17.6" transform="matrix(0.7078 -0.7064 0.7064 0.7078 -8.4439 16.1974)" class="st2" width="1.4" height="1.4"/>
				
					<rect x="-0.8" y="4.1" transform="matrix(0.7074 -0.7068 0.7068 0.7074 -3.4218 1.3666)" class="st32" width="1.4" height="1.4"/>
				
					<rect x="0.2" y="5.1" transform="matrix(0.7068 -0.7075 0.7075 0.7068 -3.8241 2.3339)" class="st35" width="1.4" height="1.4"/>
				<rect x="1.2" y="6" transform="matrix(0.7071 -0.7071 0.7071 0.7071 -4.2207 3.2951)" class="st36" width="1.4" height="1.4"/>
				<rect x="2.1" y="7" transform="matrix(0.7078 -0.7064 0.7064 0.7078 -4.6169 4.2514)" class="st37" width="1.4" height="1.4"/>
				<rect x="3.1" y="8" transform="matrix(0.7074 -0.7068 0.7068 0.7074 -5.018 5.2183)" class="st31" width="1.4" height="1.4"/>
				<rect x="4" y="8.9" transform="matrix(0.7071 -0.7071 0.7071 0.7071 -5.4186 6.1859)" class="st38" width="1.4" height="1.4"/>
				<rect x="5" y="9.9" transform="matrix(0.7068 -0.7075 0.7075 0.7068 -5.8196 7.1547)" class="st38" width="1.4" height="1.4"/>
				<rect x="6" y="10.8" transform="matrix(0.7075 -0.7068 0.7068 0.7075 -6.215 8.1066)" class="st26" width="1.4" height="1.4"/>
				
					<rect x="6.9" y="11.8" transform="matrix(0.7071 -0.7071 0.7071 0.7071 -6.6159 9.0766)" class="st12" width="1.4" height="1.4"/>
				
					<rect x="7.9" y="12.8" transform="matrix(0.7071 -0.7071 0.7071 0.7071 -7.0152 10.0404)" class="st25" width="1.4" height="1.4"/>
				
					<rect x="8.9" y="13.7" transform="matrix(0.7071 -0.7071 0.7071 0.7071 -7.4143 11.0033)" class="st39" width="1.4" height="1.4"/>
				
					<rect x="9.8" y="14.7" transform="matrix(0.7071 -0.7071 0.7071 0.7071 -7.8132 11.9678)" class="st26" width="1.4" height="1.4"/>
				
					<rect x="10.8" y="15.7" transform="matrix(0.7068 -0.7075 0.7075 0.7068 -8.2146 12.941)" class="st23" width="1.4" height="1.4"/>
				
					<rect x="11.8" y="16.6" transform="matrix(0.7071 -0.7071 0.7071 0.7071 -8.6117 13.8949)" class="st12" width="1.4" height="1.4"/>
				
					<rect x="12.7" y="17.6" transform="matrix(0.7082 -0.7061 0.7061 0.7082 -9.0054 14.8246)" class="st3" width="1.4" height="1.4"/>
				<rect x="-0.8" y="6" transform="matrix(0.7074 -0.7068 0.7068 0.7074 -4.7831 1.9301)" class="st36" width="1.4" height="1.4"/>
				<rect x="0.2" y="7" transform="matrix(0.7075 -0.7068 0.7068 0.7075 -5.1822 2.8928)" class="st36" width="1.4" height="1.4"/>
				<rect x="1.2" y="8" transform="matrix(0.7075 -0.7068 0.7068 0.7075 -5.5815 3.856)" class="st28" width="1.4" height="1.4"/>
				<rect x="2.1" y="8.9" transform="matrix(0.7074 -0.7068 0.7068 0.7074 -5.981 4.8191)" class="st38" width="1.4" height="1.4"/>
				
					<rect x="3.1" y="9.9" transform="matrix(0.7067 -0.7075 0.7075 0.7067 -6.3849 5.7923)" class="st20" width="1.4" height="1.4"/>
				<rect x="4" y="10.8" transform="matrix(0.7075 -0.7068 0.7068 0.7075 -6.7788 6.7446)" class="st40" width="1.4" height="1.4"/>
				<rect x="5" y="11.8" transform="matrix(0.7071 -0.7071 0.7071 0.7071 -7.1805 7.7134)" class="st32" width="1.4" height="1.4"/>
				<rect x="6" y="12.8" transform="matrix(0.7071 -0.7071 0.7071 0.7071 -7.5797 8.6775)" class="st41" width="1.4" height="1.4"/>
				
					<rect x="6.9" y="13.7" transform="matrix(0.7071 -0.7071 0.7071 0.7071 -7.9788 9.6404)" class="st25" width="1.4" height="1.4"/>
				
					<rect x="7.9" y="14.7" transform="matrix(0.7075 -0.7068 0.7068 0.7075 -8.3754 10.5964)" class="st34" width="1.4" height="1.4"/>
				
					<rect x="8.9" y="15.7" transform="matrix(0.7068 -0.7075 0.7075 0.7068 -8.7796 11.5777)" class="st42" width="1.4" height="1.4"/>
				
					<rect x="9.8" y="16.6" transform="matrix(0.7064 -0.7078 0.7078 0.7064 -9.1809 12.5519)" class="st23" width="1.4" height="1.4"/>
				
					<rect x="10.8" y="17.6" transform="matrix(0.7078 -0.7064 0.7064 0.7078 -9.5702 13.4746)" class="st15" width="1.4" height="1.4"/>
				
					<rect x="11.8" y="18.6" transform="matrix(0.7075 -0.7068 0.7068 0.7075 -9.9718 14.4482)" class="st3" width="1.4" height="1.4"/>
				<rect x="-0.8" y="8" transform="matrix(0.7078 -0.7064 0.7064 0.7078 -6.1426 2.4911)" class="st28" width="1.4" height="1.4"/>
				
					<rect x="0.2" y="8.9" transform="matrix(0.7071 -0.7071 0.7071 0.7071 -6.5476 3.4604)" class="st22" width="1.4" height="1.4"/>
				
					<rect x="1.2" y="9.9" transform="matrix(0.7068 -0.7075 0.7075 0.7068 -6.9497 4.4286)" class="st22" width="1.4" height="1.4"/>
				
					<rect x="2.1" y="10.8" transform="matrix(0.7078 -0.7064 0.7064 0.7078 -7.3399 5.3778)" class="st43" width="1.4" height="1.4"/>
				
					<rect x="3.1" y="11.8" transform="matrix(0.7071 -0.7071 0.7071 0.7071 -7.7452 6.3517)" class="st44" width="1.4" height="1.4"/>
				<rect x="4" y="12.8" transform="matrix(0.7071 -0.7071 0.7071 0.7071 -8.1441 7.3149)" class="st20" width="1.4" height="1.4"/>
				<rect x="5" y="13.7" transform="matrix(0.7071 -0.7071 0.7071 0.7071 -8.5433 8.2773)" class="st20" width="1.4" height="1.4"/>
				<rect x="6" y="14.7" transform="matrix(0.7075 -0.7068 0.7068 0.7075 -8.9392 9.2342)" class="st21" width="1.4" height="1.4"/>
				
					<rect x="6.9" y="15.7" transform="matrix(0.7068 -0.7075 0.7075 0.7068 -9.3449 10.2141)" class="st11" width="1.4" height="1.4"/>
				
					<rect x="7.9" y="16.6" transform="matrix(0.7068 -0.7075 0.7075 0.7068 -9.7438 11.1785)" class="st11" width="1.4" height="1.4"/>
				
					<rect x="8.9" y="17.6" transform="matrix(0.7078 -0.7064 0.7064 0.7078 -10.1332 12.1134)" class="st38" width="1.4" height="1.4"/>
				
					<rect x="9.8" y="18.6" transform="matrix(0.7068 -0.7075 0.7075 0.7068 -10.5416 13.1071)" class="st9" width="1.4" height="1.4"/>
				
					<rect x="10.8" y="19.5" transform="matrix(0.7071 -0.7071 0.7071 0.7071 -10.9377 14.0599)" class="st6" width="1.4" height="1.4"/>
				
					<rect x="11.8" y="20.5" transform="matrix(0.7078 -0.7064 0.7064 0.7078 -11.3308 15.0002)" class="st2" width="1.4" height="1.4"/>
				
					<rect x="-0.8" y="9.9" transform="matrix(0.7071 -0.7071 0.7071 0.7071 -7.5115 3.0617)" class="st22" width="1.4" height="1.4"/>
				
					<rect x="0.2" y="10.8" transform="matrix(0.7075 -0.7068 0.7068 0.7075 -7.9064 4.0205)" class="st38" width="1.4" height="1.4"/>
				
					<rect x="1.2" y="11.8" transform="matrix(0.7071 -0.7071 0.7071 0.7071 -8.3092 4.9886)" class="st38" width="1.4" height="1.4"/>
				
					<rect x="2.1" y="12.8" transform="matrix(0.7074 -0.7068 0.7068 0.7074 -8.7053 5.9468)" class="st45" width="1.4" height="1.4"/>
				
					<rect x="3.1" y="13.7" transform="matrix(0.7071 -0.7071 0.7071 0.7071 -9.108 6.9158)" class="st20" width="1.4" height="1.4"/>
				<rect x="4" y="14.7" transform="matrix(0.7075 -0.7068 0.7068 0.7075 -9.503 7.8722)" class="st38" width="1.4" height="1.4"/>
				<rect x="5" y="15.7" transform="matrix(0.7068 -0.7075 0.7075 0.7068 -9.9101 8.8502)" class="st38" width="1.4" height="1.4"/>
				<rect x="6" y="16.6" transform="matrix(0.7068 -0.7075 0.7075 0.7068 -10.309 9.8149)" class="st25" width="1.4" height="1.4"/>
				
					<rect x="6.9" y="17.6" transform="matrix(0.7078 -0.7064 0.7064 0.7078 -10.6964 10.7517)" class="st43" width="1.4" height="1.4"/>
				
					<rect x="7.9" y="18.6" transform="matrix(0.7071 -0.7071 0.7071 0.7071 -11.1031 11.7337)" class="st25" width="1.4" height="1.4"/>
				
					<rect x="8.9" y="19.5" transform="matrix(0.7071 -0.7071 0.7071 0.7071 -11.5021 12.6973)" class="st17" width="1.4" height="1.4"/>
				
					<rect x="9.8" y="20.5" transform="matrix(0.7071 -0.7071 0.7071 0.7071 -11.9013 13.6612)" class="st6" width="1.4" height="1.4"/>
				
					<rect x="10.8" y="21.4" transform="matrix(0.7068 -0.7074 0.7074 0.7068 -12.3042 14.6351)" class="st4" width="1.4" height="1.4"/>
				
					<rect x="-0.8" y="11.8" transform="matrix(0.7074 -0.7068 0.7068 0.7074 -8.8698 3.6218)" class="st38" width="1.4" height="1.4"/>
				
					<rect x="0.2" y="12.8" transform="matrix(0.7071 -0.7071 0.7071 0.7071 -9.2731 4.5894)" class="st25" width="1.4" height="1.4"/>
				
					<rect x="1.2" y="13.7" transform="matrix(0.7071 -0.7071 0.7071 0.7071 -9.6719 5.5527)" class="st25" width="1.4" height="1.4"/>
				
					<rect x="2.1" y="14.7" transform="matrix(0.7078 -0.7064 0.7064 0.7078 -10.0629 6.5042)" class="st46" width="1.4" height="1.4"/>
				
					<rect x="3.1" y="15.7" transform="matrix(0.7067 -0.7075 0.7075 0.7067 -10.4757 7.488)" class="st31" width="1.4" height="1.4"/>
				
					<rect x="4" y="16.6" transform="matrix(0.7068 -0.7075 0.7075 0.7068 -10.8741 8.4516)" class="st38" width="1.4" height="1.4"/>
				
					<rect x="5" y="17.6" transform="matrix(0.7078 -0.7064 0.7064 0.7078 -11.2597 9.3899)" class="st11" width="1.4" height="1.4"/>
				
					<rect x="6" y="18.6" transform="matrix(0.7071 -0.7071 0.7071 0.7071 -11.6677 10.3708)" class="st12" width="1.4" height="1.4"/>
				
					<rect x="6.9" y="19.5" transform="matrix(0.7071 -0.7071 0.7071 0.7071 -12.0667 11.3343)" class="st5" width="1.4" height="1.4"/>
				
					<rect x="7.9" y="20.5" transform="matrix(0.7075 -0.7068 0.7068 0.7075 -12.4615 12.2878)" class="st5" width="1.4" height="1.4"/>
				
					<rect x="8.9" y="21.4" transform="matrix(0.7068 -0.7074 0.7074 0.7068 -12.8692 13.2719)" class="st1" width="1.4" height="1.4"/>
				
					<rect x="-0.8" y="13.7" transform="matrix(0.7075 -0.7068 0.7068 0.7075 -10.2318 4.1853)" class="st25" width="1.4" height="1.4"/>
				
					<rect x="0.2" y="14.7" transform="matrix(0.7075 -0.7068 0.7068 0.7075 -10.6306 5.1481)" class="st15" width="1.4" height="1.4"/>
				
					<rect x="1.2" y="15.7" transform="matrix(0.7068 -0.7075 0.7075 0.7068 -11.0402 6.1241)" class="st6" width="1.4" height="1.4"/>
				
					<rect x="2.1" y="16.6" transform="matrix(0.7071 -0.7071 0.7071 0.7071 -11.4347 7.0816)" class="st47" width="1.4" height="1.4"/>
				
					<rect x="3.1" y="17.6" transform="matrix(0.7078 -0.7064 0.7064 0.7078 -11.8233 8.0298)" class="st8" width="1.4" height="1.4"/>
				<rect x="4" y="18.6" transform="matrix(0.7071 -0.7071 0.7071 0.7071 -12.2321 9.0082)" class="st6" width="1.4" height="1.4"/>
				<rect x="5" y="19.5" transform="matrix(0.7071 -0.7071 0.7071 0.7071 -12.6312 9.9711)" class="st4" width="1.4" height="1.4"/>
				
					<rect x="6" y="20.5" transform="matrix(0.7075 -0.7068 0.7068 0.7075 -13.0254 10.9255)" class="st6" width="1.4" height="1.4"/>
				
					<rect x="6.9" y="21.4" transform="matrix(0.7068 -0.7074 0.7074 0.7068 -13.4343 11.9083)" class="st6" width="1.4" height="1.4"/>
				
					<rect x="-0.8" y="15.7" transform="matrix(0.7071 -0.7071 0.7071 0.7071 -11.6002 4.7554)" class="st6" width="1.4" height="1.4"/>
				
					<rect x="0.2" y="16.6" transform="matrix(0.7068 -0.7075 0.7075 0.7068 -12.0044 5.7247)" class="st6" width="1.4" height="1.4"/>
				<rect x="4" y="20.5" transform="matrix(0.7075 -0.7068 0.7068 0.7075 -13.5891 9.5636)" class="st4" width="1.4" height="1.4"/>
			</g>
		</g>
		<g>
			<defs>
				<rect id="SVGID_11_" width="25" height="25"/>
			</defs>
			<clipPath id="SVGID_12_">
				<use xlink:href="#SVGID_11_"  style="overflow:visible;"/>
			</clipPath>
		</g>
	</g>
	<g>
		<g>
			<defs>
				<rect id="SVGID_13_" width="25" height="25"/>
			</defs>
			<clipPath id="SVGID_14_">
				<use xlink:href="#SVGID_13_"  style="overflow:visible;"/>
			</clipPath>
		</g>
		<g>
			<defs>
				<rect id="SVGID_15_" width="25" height="25"/>
			</defs>
			<clipPath id="SVGID_16_">
				<use xlink:href="#SVGID_15_"  style="overflow:visible;"/>
			</clipPath>
		</g>
		<g>
			<defs>
				<rect id="SVGID_17_" width="25" height="25"/>
			</defs>
			<clipPath id="SVGID_18_">
				<use xlink:href="#SVGID_17_"  style="overflow:visible;"/>
			</clipPath>
		</g>
	</g>
</g>
<g>
	<g>
		<g>
			<g>
				<g>
					<defs>
						<rect id="SVGID_19_" x="0" y="0" width="25" height="25"/>
					</defs>
					<clipPath id="SVGID_20_">
						<use xlink:href="#SVGID_19_"  style="overflow:visible;"/>
					</clipPath>
				</g>
				<g>
					<defs>
						<rect id="SVGID_21_" x="0" y="0" width="25" height="25"/>
					</defs>
					<clipPath id="SVGID_22_">
						<use xlink:href="#SVGID_21_"  style="overflow:visible;"/>
					</clipPath>
				</g>
				<g>
					<defs>
						<rect id="SVGID_23_" x="0" y="0" width="25" height="25"/>
					</defs>
					<clipPath id="SVGID_24_">
						<use xlink:href="#SVGID_23_"  style="overflow:visible;"/>
					</clipPath>
				</g>
			</g>
			<g>
				<g>
					<defs>
						<rect id="SVGID_25_" x="0" y="0" width="25" height="25"/>
					</defs>
					<clipPath id="SVGID_26_">
						<use xlink:href="#SVGID_25_"  style="overflow:visible;"/>
					</clipPath>
				</g>
				<g>
					<defs>
						<rect id="SVGID_27_" x="0" y="0" width="25" height="25"/>
					</defs>
					<clipPath id="SVGID_28_">
						<use xlink:href="#SVGID_27_"  style="overflow:visible;"/>
					</clipPath>
				</g>
				<g>
					<defs>
						<rect id="SVGID_29_" x="0" y="0" width="25" height="25"/>
					</defs>
					<clipPath id="SVGID_30_">
						<use xlink:href="#SVGID_29_"  style="overflow:visible;"/>
					</clipPath>
				</g>
			</g>
			<g>
				<g>
					<defs>
						<rect id="SVGID_31_" x="0" y="0" width="25" height="25"/>
					</defs>
					<clipPath id="SVGID_32_">
						<use xlink:href="#SVGID_31_"  style="overflow:visible;"/>
					</clipPath>
				</g>
				<g>
					<defs>
						<rect id="SVGID_33_" x="0" y="0" width="25" height="25"/>
					</defs>
					<clipPath id="SVGID_34_">
						<use xlink:href="#SVGID_33_"  style="overflow:visible;"/>
					</clipPath>
				</g>
				<g>
					<defs>
						<rect id="SVGID_35_" x="0" y="0" width="25" height="25"/>
					</defs>
					<clipPath id="SVGID_36_">
						<use xlink:href="#SVGID_35_"  style="overflow:visible;"/>
					</clipPath>
				</g>
			</g>
		</g>
		<g>
			<g>
				<defs>
					<rect id="SVGID_37_" x="0" y="0" width="25" height="25"/>
				</defs>
				<clipPath id="SVGID_38_">
					<use xlink:href="#SVGID_37_"  style="overflow:visible;"/>
				</clipPath>
			</g>
			<g>
				<defs>
					<rect id="SVGID_39_" x="0" y="0" width="25" height="25"/>
				</defs>
				<clipPath id="SVGID_40_">
					<use xlink:href="#SVGID_39_"  style="overflow:visible;"/>
				</clipPath>
			</g>
			<g>
				<defs>
					<rect id="SVGID_41_" x="0" y="0" width="25" height="25"/>
				</defs>
				<clipPath id="SVGID_42_">
					<use xlink:href="#SVGID_41_"  style="overflow:visible;"/>
				</clipPath>
			</g>
		</g>
	</g>
	<g>
		<g>
			<g>
				<g>
					<defs>
						<rect id="SVGID_43_" x="0" y="0" width="25" height="25"/>
					</defs>
					<clipPath id="SVGID_44_">
						<use xlink:href="#SVGID_43_"  style="overflow:visible;"/>
					</clipPath>
				</g>
				<g>
					<defs>
						<rect id="SVGID_45_" x="0" y="0" width="25" height="25"/>
					</defs>
					<clipPath id="SVGID_46_">
						<use xlink:href="#SVGID_45_"  style="overflow:visible;"/>
					</clipPath>
				</g>
				<g>
					<defs>
						<rect id="SVGID_47_" x="0" y="0" width="25" height="25"/>
					</defs>
					<clipPath id="SVGID_48_">
						<use xlink:href="#SVGID_47_"  style="overflow:visible;"/>
					</clipPath>
				</g>
			</g>
			<g>
				<g>
					<defs>
						<rect id="SVGID_49_" x="0" y="0" width="25" height="25"/>
					</defs>
					<clipPath id="SVGID_50_">
						<use xlink:href="#SVGID_49_"  style="overflow:visible;"/>
					</clipPath>
				</g>
				<g>
					<defs>
						<rect id="SVGID_51_" x="0" y="0" width="25" height="25"/>
					</defs>
					<clipPath id="SVGID_52_">
						<use xlink:href="#SVGID_51_"  style="overflow:visible;"/>
					</clipPath>
				</g>
				<g>
					<defs>
						<rect id="SVGID_53_" x="0" y="0" width="25" height="25"/>
					</defs>
					<clipPath id="SVGID_54_">
						<use xlink:href="#SVGID_53_"  style="overflow:visible;"/>
					</clipPath>
				</g>
			</g>
			<g>
				<g>
					<defs>
						<rect id="SVGID_55_" x="0" y="0" width="25" height="25"/>
					</defs>
					<clipPath id="SVGID_56_">
						<use xlink:href="#SVGID_55_"  style="overflow:visible;"/>
					</clipPath>
				</g>
				<g>
					<defs>
						<rect id="SVGID_57_" x="0" y="0" width="25" height="25"/>
					</defs>
					<clipPath id="SVGID_58_">
						<use xlink:href="#SVGID_57_"  style="overflow:visible;"/>
					</clipPath>
				</g>
				<g>
					<defs>
						<rect id="SVGID_59_" x="0" y="0" width="25" height="25"/>
					</defs>
					<clipPath id="SVGID_60_">
						<use xlink:href="#SVGID_59_"  style="overflow:visible;"/>
					</clipPath>
				</g>
			</g>
		</g>
		<g>
			<g>
				<defs>
					<rect id="SVGID_61_" x="0" y="0" width="25" height="25"/>
				</defs>
				<clipPath id="SVGID_62_">
					<use xlink:href="#SVGID_61_"  style="overflow:visible;"/>
				</clipPath>
			</g>
			<g>
				<defs>
					<rect id="SVGID_63_" x="0" y="0" width="25" height="25"/>
				</defs>
				<clipPath id="SVGID_64_">
					<use xlink:href="#SVGID_63_"  style="overflow:visible;"/>
				</clipPath>
			</g>
			<g>
				<defs>
					<rect id="SVGID_65_" x="0" y="0" width="25" height="25"/>
				</defs>
				<clipPath id="SVGID_66_">
					<use xlink:href="#SVGID_65_"  style="overflow:visible;"/>
				</clipPath>
			</g>
		</g>
	</g>
	<g>
		<g>
			<g>
				<g>
					<defs>
						<rect id="SVGID_67_" x="0" y="0" width="25" height="25"/>
					</defs>
					<clipPath id="SVGID_68_">
						<use xlink:href="#SVGID_67_"  style="overflow:visible;"/>
					</clipPath>
				</g>
				<g>
					<defs>
						<rect id="SVGID_69_" x="0" y="0" width="25" height="25"/>
					</defs>
					<clipPath id="SVGID_70_">
						<use xlink:href="#SVGID_69_"  style="overflow:visible;"/>
					</clipPath>
				</g>
				<g>
					<defs>
						<rect id="SVGID_71_" x="0" y="0" width="25" height="25"/>
					</defs>
					<clipPath id="SVGID_72_">
						<use xlink:href="#SVGID_71_"  style="overflow:visible;"/>
					</clipPath>
				</g>
			</g>
			<g>
				<g>
					<defs>
						<rect id="SVGID_73_" x="0" y="0" width="25" height="25"/>
					</defs>
					<clipPath id="SVGID_74_">
						<use xlink:href="#SVGID_73_"  style="overflow:visible;"/>
					</clipPath>
				</g>
				<g>
					<defs>
						<rect id="SVGID_75_" x="0" y="0" width="25" height="25"/>
					</defs>
					<clipPath id="SVGID_76_">
						<use xlink:href="#SVGID_75_"  style="overflow:visible;"/>
					</clipPath>
				</g>
				<g>
					<defs>
						<rect id="SVGID_77_" x="0" y="0" width="25" height="25"/>
					</defs>
					<clipPath id="SVGID_78_">
						<use xlink:href="#SVGID_77_"  style="overflow:visible;"/>
					</clipPath>
				</g>
			</g>
			<g>
				<g>
					<defs>
						<rect id="SVGID_79_" x="0" y="0" width="25" height="25"/>
					</defs>
					<clipPath id="SVGID_80_">
						<use xlink:href="#SVGID_79_"  style="overflow:visible;"/>
					</clipPath>
				</g>
				<g>
					<defs>
						<rect id="SVGID_81_" x="0" y="0" width="25" height="25"/>
					</defs>
					<clipPath id="SVGID_82_">
						<use xlink:href="#SVGID_81_"  style="overflow:visible;"/>
					</clipPath>
				</g>
				<g>
					<defs>
						<rect id="SVGID_83_" x="0" y="0" width="25" height="25"/>
					</defs>
					<clipPath id="SVGID_84_">
						<use xlink:href="#SVGID_83_"  style="overflow:visible;"/>
					</clipPath>
				</g>
			</g>
		</g>
		<g>
			<g>
				<defs>
					<rect id="SVGID_85_" x="0" y="0" width="25" height="25"/>
				</defs>
				<clipPath id="SVGID_86_">
					<use xlink:href="#SVGID_85_"  style="overflow:visible;"/>
				</clipPath>
			</g>
			<g>
				<defs>
					<rect id="SVGID_87_" x="0" y="0" width="25" height="25"/>
				</defs>
				<clipPath id="SVGID_88_">
					<use xlink:href="#SVGID_87_"  style="overflow:visible;"/>
				</clipPath>
			</g>
			<g>
				<defs>
					<rect id="SVGID_89_" x="0" y="0" width="25" height="25"/>
				</defs>
				<clipPath id="SVGID_90_">
					<use xlink:href="#SVGID_89_"  style="overflow:visible;"/>
				</clipPath>
			</g>
		</g>
	</g>
</g>
<g>
	<g>
		<g>
			<g>
				<g>
					<defs>
						<rect id="SVGID_91_" x="0" y="0" width="25" height="25"/>
					</defs>
					<clipPath id="SVGID_92_">
						<use xlink:href="#SVGID_91_"  style="overflow:visible;"/>
					</clipPath>
				</g>
				<g>
					<defs>
						<rect id="SVGID_93_" x="0" y="0" width="25" height="25"/>
					</defs>
					<clipPath id="SVGID_94_">
						<use xlink:href="#SVGID_93_"  style="overflow:visible;"/>
					</clipPath>
				</g>
				<g>
					<defs>
						<rect id="SVGID_95_" x="0" y="0" width="25" height="25"/>
					</defs>
					<clipPath id="SVGID_96_">
						<use xlink:href="#SVGID_95_"  style="overflow:visible;"/>
					</clipPath>
				</g>
			</g>
			<g>
				<g>
					<defs>
						<rect id="SVGID_97_" x="0" y="0" width="25" height="25"/>
					</defs>
					<clipPath id="SVGID_98_">
						<use xlink:href="#SVGID_97_"  style="overflow:visible;"/>
					</clipPath>
				</g>
				<g>
					<defs>
						<rect id="SVGID_99_" x="0" y="0" width="25" height="25"/>
					</defs>
					<clipPath id="SVGID_100_">
						<use xlink:href="#SVGID_99_"  style="overflow:visible;"/>
					</clipPath>
				</g>
				<g>
					<defs>
						<rect id="SVGID_101_" x="0" y="0" width="25" height="25"/>
					</defs>
					<clipPath id="SVGID_102_">
						<use xlink:href="#SVGID_101_"  style="overflow:visible;"/>
					</clipPath>
				</g>
			</g>
			<g>
				<g>
					<defs>
						<rect id="SVGID_103_" x="0" y="0" width="25" height="25"/>
					</defs>
					<clipPath id="SVGID_104_">
						<use xlink:href="#SVGID_103_"  style="overflow:visible;"/>
					</clipPath>
				</g>
				<g>
					<defs>
						<rect id="SVGID_105_" x="0" y="0" width="25" height="25"/>
					</defs>
					<clipPath id="SVGID_106_">
						<use xlink:href="#SVGID_105_"  style="overflow:visible;"/>
					</clipPath>
				</g>
				<g>
					<defs>
						<rect id="SVGID_107_" x="0" y="0" width="25" height="25"/>
					</defs>
					<clipPath id="SVGID_108_">
						<use xlink:href="#SVGID_107_"  style="overflow:visible;"/>
					</clipPath>
				</g>
			</g>
		</g>
		<g>
			<g>
				<defs>
					<rect id="SVGID_109_" x="0" y="0" width="25" height="25"/>
				</defs>
				<clipPath id="SVGID_110_">
					<use xlink:href="#SVGID_109_"  style="overflow:visible;"/>
				</clipPath>
			</g>
			<g>
				<defs>
					<rect id="SVGID_111_" x="0" y="0" width="25" height="25"/>
				</defs>
				<clipPath id="SVGID_112_">
					<use xlink:href="#SVGID_111_"  style="overflow:visible;"/>
				</clipPath>
			</g>
			<g>
				<defs>
					<rect id="SVGID_113_" x="0" y="0" width="25" height="25"/>
				</defs>
				<clipPath id="SVGID_114_">
					<use xlink:href="#SVGID_113_"  style="overflow:visible;"/>
				</clipPath>
			</g>
		</g>
	</g>
	<g>
		<g>
			<g>
				<g>
					<defs>
						<rect id="SVGID_115_" x="0" y="0" width="25" height="25"/>
					</defs>
					<clipPath id="SVGID_116_">
						<use xlink:href="#SVGID_115_"  style="overflow:visible;"/>
					</clipPath>
				</g>
				<g>
					<defs>
						<rect id="SVGID_117_" x="0" y="0" width="25" height="25"/>
					</defs>
					<clipPath id="SVGID_118_">
						<use xlink:href="#SVGID_117_"  style="overflow:visible;"/>
					</clipPath>
				</g>
				<g>
					<defs>
						<rect id="SVGID_119_" x="0" y="0" width="25" height="25"/>
					</defs>
					<clipPath id="SVGID_120_">
						<use xlink:href="#SVGID_119_"  style="overflow:visible;"/>
					</clipPath>
				</g>
			</g>
			<g>
				<g>
					<defs>
						<rect id="SVGID_121_" x="0" y="0" width="25" height="25"/>
					</defs>
					<clipPath id="SVGID_122_">
						<use xlink:href="#SVGID_121_"  style="overflow:visible;"/>
					</clipPath>
				</g>
				<g>
					<defs>
						<rect id="SVGID_123_" x="0" y="0" width="25" height="25"/>
					</defs>
					<clipPath id="SVGID_124_">
						<use xlink:href="#SVGID_123_"  style="overflow:visible;"/>
					</clipPath>
				</g>
				<g>
					<defs>
						<rect id="SVGID_125_" x="0" y="0" width="25" height="25"/>
					</defs>
					<clipPath id="SVGID_126_">
						<use xlink:href="#SVGID_125_"  style="overflow:visible;"/>
					</clipPath>
				</g>
			</g>
			<g>
				<g>
					<defs>
						<rect id="SVGID_127_" x="0" y="0" width="25" height="25"/>
					</defs>
					<clipPath id="SVGID_128_">
						<use xlink:href="#SVGID_127_"  style="overflow:visible;"/>
					</clipPath>
				</g>
				<g>
					<defs>
						<rect id="SVGID_129_" x="0" y="0" width="25" height="25"/>
					</defs>
					<clipPath id="SVGID_130_">
						<use xlink:href="#SVGID_129_"  style="overflow:visible;"/>
					</clipPath>
				</g>
				<g>
					<defs>
						<rect id="SVGID_131_" x="0" y="0" width="25" height="25"/>
					</defs>
					<clipPath id="SVGID_132_">
						<use xlink:href="#SVGID_131_"  style="overflow:visible;"/>
					</clipPath>
				</g>
			</g>
		</g>
		<g>
			<g>
				<defs>
					<rect id="SVGID_133_" x="0" y="0" width="25" height="25"/>
				</defs>
				<clipPath id="SVGID_134_">
					<use xlink:href="#SVGID_133_"  style="overflow:visible;"/>
				</clipPath>
			</g>
			<g>
				<defs>
					<rect id="SVGID_135_" x="0" y="0" width="25" height="25"/>
				</defs>
				<clipPath id="SVGID_136_">
					<use xlink:href="#SVGID_135_"  style="overflow:visible;"/>
				</clipPath>
			</g>
			<g>
				<defs>
					<rect id="SVGID_137_" x="0" y="0" width="25" height="25"/>
				</defs>
				<clipPath id="SVGID_138_">
					<use xlink:href="#SVGID_137_"  style="overflow:visible;"/>
				</clipPath>
			</g>
		</g>
	</g>
	<g>
		<g>
			<g>
				<g>
					<defs>
						<rect id="SVGID_139_" x="0" y="0" width="25" height="25"/>
					</defs>
					<clipPath id="SVGID_140_">
						<use xlink:href="#SVGID_139_"  style="overflow:visible;"/>
					</clipPath>
				</g>
				<g>
					<defs>
						<rect id="SVGID_141_" x="0" y="0" width="25" height="25"/>
					</defs>
					<clipPath id="SVGID_142_">
						<use xlink:href="#SVGID_141_"  style="overflow:visible;"/>
					</clipPath>
				</g>
				<g>
					<defs>
						<rect id="SVGID_143_" x="0" y="0" width="25" height="25"/>
					</defs>
					<clipPath id="SVGID_144_">
						<use xlink:href="#SVGID_143_"  style="overflow:visible;"/>
					</clipPath>
				</g>
			</g>
			<g>
				<g>
					<defs>
						<rect id="SVGID_145_" x="0" y="0" width="25" height="25"/>
					</defs>
					<clipPath id="SVGID_146_">
						<use xlink:href="#SVGID_145_"  style="overflow:visible;"/>
					</clipPath>
				</g>
				<g>
					<defs>
						<rect id="SVGID_147_" x="0" y="0" width="25" height="25"/>
					</defs>
					<clipPath id="SVGID_148_">
						<use xlink:href="#SVGID_147_"  style="overflow:visible;"/>
					</clipPath>
				</g>
				<g>
					<defs>
						<rect id="SVGID_149_" x="0" y="0" width="25" height="25"/>
					</defs>
					<clipPath id="SVGID_150_">
						<use xlink:href="#SVGID_149_"  style="overflow:visible;"/>
					</clipPath>
				</g>
			</g>
			<g>
				<g>
					<defs>
						<rect id="SVGID_151_" x="0" y="0" width="25" height="25"/>
					</defs>
					<clipPath id="SVGID_152_">
						<use xlink:href="#SVGID_151_"  style="overflow:visible;"/>
					</clipPath>
				</g>
				<g>
					<defs>
						<rect id="SVGID_153_" x="0" y="0" width="25" height="25"/>
					</defs>
					<clipPath id="SVGID_154_">
						<use xlink:href="#SVGID_153_"  style="overflow:visible;"/>
					</clipPath>
				</g>
				<g>
					<defs>
						<rect id="SVGID_155_" x="0" y="0" width="25" height="25"/>
					</defs>
					<clipPath id="SVGID_156_">
						<use xlink:href="#SVGID_155_"  style="overflow:visible;"/>
					</clipPath>
				</g>
			</g>
		</g>
		<g>
			<g>
				<defs>
					<rect id="SVGID_157_" x="0" y="0" width="25" height="25"/>
				</defs>
				<clipPath id="SVGID_158_">
					<use xlink:href="#SVGID_157_"  style="overflow:visible;"/>
				</clipPath>
			</g>
			<g>
				<defs>
					<rect id="SVGID_159_" x="0" y="0" width="25" height="25"/>
				</defs>
				<clipPath id="SVGID_160_">
					<use xlink:href="#SVGID_159_"  style="overflow:visible;"/>
				</clipPath>
			</g>
			<g>
				<defs>
					<rect id="SVGID_161_" x="0" y="0" width="25" height="25"/>
				</defs>
				<clipPath id="SVGID_162_">
					<use xlink:href="#SVGID_161_"  style="overflow:visible;"/>
				</clipPath>
			</g>
		</g>
	</g>
</g>
</svg>
