<?xml version="1.0" encoding="utf-8"?><svg xmlns="http://www.w3.org/2000/svg" xmlns:xlink="http://www.w3.org/1999/xlink"><symbol viewBox="0 0 24 18" id="form-email" xmlns="http://www.w3.org/2000/svg"><path d="M24 18H0V0h24v18zM1 1.5V17h22V1.5l-11 10-11-10zM22.1 1H1.9L12 10.2 22.1 1z"/></symbol><symbol viewBox="0 0 355 261.7" id="form-message" xmlns="http://www.w3.org/2000/svg"><path d="M317.1 0H37.9C17 0 0 17 0 37.9v153.3C0 212 17 229 37.9 229h17.4l-5.9 23.3c-.7 2.8.3 5.8 2.5 7.6 1.4 1.1 3.1 1.7 4.8 1.7 1.1 0 2.1-.2 3.2-.7l69-32h188.3c20.9 0 37.9-17 37.9-37.9V37.9C355 17 338 0 317.1 0zM340 191.1c0 12.6-10.3 22.9-22.9 22.9h-190c-1.1 0-2.2.2-3.2.7l-56.2 26 4.4-17.4c.6-2.2.1-4.6-1.3-6.5S67.3 214 65 214H37.9C25.3 214 15 203.7 15 191.1V37.9C15 25.3 25.3 15 37.9 15h279.3c12.6 0 22.9 10.3 22.9 22.9v153.2h-.1z"/><path d="M281.6 57.3H76c-3.5 0-6.4 3.4-6.4 7.5s2.9 7.5 6.4 7.5h205.6c3.5 0 6.4-3.4 6.4-7.5s-2.9-7.5-6.4-7.5zm0 50.9H76c-3.5 0-6.4 3.4-6.4 7.5s2.9 7.5 6.4 7.5h205.6c3.5 0 6.4-3.4 6.4-7.5s-2.9-7.5-6.4-7.5zm0 50.8H76c-3.5 0-6.4 3.4-6.4 7.5s2.9 7.5 6.4 7.5h205.6c3.5 0 6.4-3.4 6.4-7.5s-2.9-7.5-6.4-7.5z"/></symbol><symbol viewBox="0 0 29 34.7" id="form-phone" xmlns="http://www.w3.org/2000/svg"><path d="M3.4.7l-1 .8C1.2 2.4.4 3.9.1 5.8c-.7 4.7 1.8 11.5 6.5 17.7 6.8 9 15.5 13.4 20 10.1l1-.8c.8-.6 1.2-1.4 1.4-2.3.1-.9-.1-1.9-.7-2.6l-3.1-4.1c-1.2-1.6-3.4-1.9-5-.7l-1 .8c-1.1.8-3.5 0-7-4.6-3-4-3.2-6-3.1-6.9.1-.5.3-.8.6-1.1l1-.8c1.5-1.1 1.8-3.5.7-5l-3-4.1C7.8.7 7 .2 6.1 0c-1-.1-1.9.1-2.7.7zm3.4 1.9l3.1 4.1c.5.7.4 1.7-.3 2.1l-1 .8c-.8.6-1.3 1.4-1.4 2.4-.3 2.1.9 5 3.5 8.4 5.4 7.1 8.6 5.9 9.8 5l1-.8c.7-.5 1.6-.4 2.1.3l3.1 4.1c.5.7.4 1.7-.3 2.1l-1 .8C22 34.5 14.1 30 8.3 22.2 4 16.5 1.6 10.2 2.2 6c.2-1.4.7-2.4 1.5-3l1-.8c.3-.1.7-.2 1.1-.2.4.1.7.3 1 .6z"/></symbol><symbol viewBox="0 0 32 32" id="form-user" xmlns="http://www.w3.org/2000/svg"><path d="M16 22c5 0 9-4.9 9-11S21 0 16 0c-2.4 0-4.7 1.2-6.4 3.3C7.9 5.4 7 8.1 7 11c0 6.1 4 11 9 11zm0-20c3.9 0 7 4 7 9s-3.1 9-7 9-7-4-7-9 3.1-9 7-9zm7 18c-.6 0-1 .4-1 1s.4 1 1 1c3.9 0 7 3.1 7 7 0 .6-.4 1-1 1H3c-.6 0-1-.4-1-1 0-3.9 3.1-7 7-7 .6 0 1-.4 1-1s-.4-1-1-1c-5 0-9 4-9 9 0 1.7 1.3 3 3 3h26c1.7 0 3-1.3 3-3 0-5-4-9-9-9z"/></symbol><symbol viewBox="0 0 270.4 98.1" id="iconSheer"><path d="M175.1 51.8c.2 1.2.3 2.1.5 3 2 8.4 8.6 14 17.2 14.7 7.6.6 13.6-2.3 18-8.5 2.2-3 5.7-3.5 8.5-1.1 1.6 1.4 1.8 3.2.5 4.9-.7.9-1.4 1.8-2.1 2.8-2.9 4-6.7 6.7-11.4 8.3-7.6 2.6-15.2 3-22.7.2-10.1-3.7-16.1-11.1-17.8-21.7-1-6.5-.4-13 2.6-18.9 4.3-8.4 11.1-13.6 20.5-15.1 6.2-1 12.4-.4 18.2 2.4 8.2 3.9 13.2 10.5 15.1 19.3.5 2.4.7 4.9.9 7.3.2 1.5-.5 2.2-2.1 2.3h-44.1c-.4.1-.9.1-1.8.1zm38.3-9.2c-1.2-7.9-10.7-14.7-19.4-14.2-9.1.5-18.2 7.5-18.5 14.2h37.9zm-101 9c.1.8.2 1.4.3 2 1.7 9.3 9.3 15.7 18.7 15.9 7.1.1 12.7-2.8 16.8-8.6 2.2-3.1 6.1-3.4 8.8-.7 1.3 1.4 1.5 3 .3 4.6-.5.8-1.1 1.5-1.7 2.2-3.1 4.5-7.3 7.4-12.5 9.1-7.6 2.5-15.2 2.7-22.5-.2-10.6-4.1-16.4-12.1-17.6-23.3-.6-5.4-.1-10.7 2.2-15.6 4.3-9.4 11.4-15.2 21.8-16.6 5.5-.7 11-.3 16.1 1.8 9.2 3.8 14.6 10.9 16.6 20.6.4 2.2.6 4.5.7 6.7.1 1.8-.3 2.2-2.2 2.2h-43.5c-.7-.1-1.4-.1-2.3-.1zm38.4-9.1c-1.2-7.8-10.4-14.4-19.4-14.2-8.8.2-17.9 7.2-18.6 14.2h38zm101 13.5c.7.6 1.1 1 1.5 1.4 4.9 4.2 9.8 8.3 14.6 12.5.3.3.7.6 1 .9 1.8 1.8 2 4.4.3 6.2-1.6 1.8-4.2 2.1-6.1.5-3.4-2.8-6.7-5.7-10-8.5-4.8-4.1-9.5-8.1-14.3-12.2-.4-.4-.9-.7-1.6-1.3 0 1-.1 1.6-.1 2.3v36.1c-.2 2.5-2.1 4.3-4.6 4.2-2.4-.1-4.1-1.9-4.2-4.4V21.9c0-1.6.2-1.9 1.7-1.9 2.1-.1 4.2-.1 6.2-.1 5 0 10.1.2 15.1-.1 8.4-.4 17.8 6.4 18.7 16.3.8 8.9-5.2 17.3-14.3 19.1-1.1.2-2.3.5-3.9.8zm-15.3-6.9c.5.1.9.1 1.2.1h12.6c1.2 0 2.4-.1 3.6-.5 3.9-1.2 7-3.5 8-7.7 1.7-7.1-3.6-13.7-10.9-13.7h-13c-.5 0-1 .1-1.5.1v21.7zM88.5 52H63.9c0 .7-.1 1.4-.1 2v18.9c0 .8 0 1.6-.2 2.3-.6 1.9-2.6 3.1-4.5 3-2.1-.2-3.8-1.8-4.1-3.9-.1-.5 0-1 0-1.5V5.4c0-.9.1-1.8.4-2.6.6-2 2.6-3 4.7-2.8 1.9.3 3.5 2 3.7 3.9.1.6 0 1.2 0 1.8v34.7c0 .7.1 1.4.1 2 1.5.4 22.9.4 24.5 0 0-.5.1-1.1.1-1.7V23.9c.2-2.3 1.9-4 4.2-4.1 2.3-.1 4.3 1.6 4.6 3.9.1.5 0 1 0 1.5v48.9c-.3 2.3-2.3 4.1-4.5 4-2.3-.1-4.1-1.9-4.3-4.2V52zM25 78.3c-5.9-.1-11.4-1.4-16.5-4.4-2.2-1.3-4.2-2.9-5.8-4.8-.8-1-1.6-2.1-2.2-3.3-1-1.9-.6-3.4.9-4.9 1.7-1.6 4.1-2.3 6.4-.7C9 61 10 62 10.9 63c.9.9 1.6 1.9 2.5 2.8 2.7 2.7 6 4.2 9.8 4.6 3.5.4 7 .3 10.4-.9 1.4-.5 2.8-1.2 4-2.1 2.9-2.2 3-5.9.2-8.2-1.3-1.1-2.9-1.9-4.5-2.6-4-1.7-8.1-2.9-12.3-4-3.4-.8-6.7-1.9-10.1-2.9-1.3-.4-2.5-1.1-3.7-1.7-3.2-1.7-5-4.4-5.5-7.9-1-7.1 1.7-12.8 8.1-15.9 9.8-4.8 19.7-5.2 29.4.4 1.8 1 3.5 2.5 5.1 3.9 1.2 1 2 2.5 2.5 4 .8 2.6-.5 3.9-2.8 4.4-2 .4-3.8-.2-5.2-1.7-.3-.3-.5-.6-.7-.9-2.3-3.4-5.6-5.3-9.6-6.1-4-.7-8-.6-11.8.9-1.4.5-2.8 1.3-3.9 2.3-2.7 2.3-2.7 5.4-.1 7.8 1.7 1.6 3.7 2.5 5.9 3 4.8 1.2 9.7 2.4 14.5 3.6 3.1.8 6.1 1.8 8.9 3.4 3.6 1.9 6.2 4.7 7.1 8.8 1.1 5 0 9.4-3.9 13-4.4 4-9.5 6.3-15.4 7-1.7.1-3.3.2-4.8.3z"/></symbol><symbol preserveAspectRatio="none" viewBox="0 0 131 36" id="lines" xmlns="http://www.w3.org/2000/svg"><path fill-rule="evenodd" fill="#fff" d="M0 34.999v-1.001h95v1.001H0z"/><path fill-rule="evenodd" fill="#fff" d="M95.348 35.358l-.696-.718 35-34 .696.717-35 34.001z"/></symbol><symbol viewBox="0 0 404.8 511" id="nav-link-1" xmlns="http://www.w3.org/2000/svg"><path d="M275.4 3.9C273 1.5 269.8 0 266.5 0H67.1C30.4 0 0 30.2 0 67v377c0 36.8 30.4 67 67.1 67h270.6c36.8 0 67.1-30.2 67.1-67V144.7c0-3.2-1.5-6.3-3.6-8.6L275.4 3.9zm3.6 39.7l84.3 88.5h-54.8c-16.3 0-29.5-13.1-29.5-29.4V43.6zm58.7 442.7H67.1c-23.1 0-42.5-19.1-42.5-42.3V67c0-23.1 19.3-42.3 42.5-42.3h187.1v78c0 30 24.2 54.1 54.2 54.1h71.7V444c.1 23.2-19.2 42.3-42.4 42.3z"/><path d="M304 401.1H100.8c-6.8 0-12.3 5.6-12.3 12.3 0 6.8 5.6 12.3 12.3 12.3h203.3c6.8 0 12.3-5.6 12.3-12.3.1-6.7-5.5-12.3-12.4-12.3zm-110.6-44.3c2.3 2.5 5.6 3.9 9 3.9 3.5 0 6.7-1.5 9-3.9l72.3-77.6c4.7-4.9 4.3-12.8-.6-17.4-4.9-4.7-12.8-4.3-17.4.6l-51 54.7V182.3c0-6.8-5.6-12.3-12.3-12.3-6.8 0-12.3 5.6-12.3 12.3v134.8l-50.9-54.7c-4.7-4.9-12.5-5.3-17.4-.6-4.9 4.7-5.3 12.5-.6 17.4l72.2 77.6z"/></symbol><symbol viewBox="0 0 447.4 512" id="nav-link-2" xmlns="http://www.w3.org/2000/svg"><path d="M417.1 0H30.3C13.6 0 0 13.6 0 30.3v451.4C0 498.4 13.6 512 30.3 512h386.8c16.7 0 30.3-13.6 30.3-30.3V30.3c0-16.7-13.6-30.3-30.3-30.3zM24.2 30.3c0-3.3 2.7-6.1 6.1-6.1h386.8c3.3 0 6.1 2.7 6.1 6.1v105.1h-399V30.3zm116.9 457.5H30.3c-3.3 0-6.1-2.7-6.1-6.1V335.8H141v152zm0-176.3H24.2V159.7H141v151.8zm141 176.3H165.3v-152h116.8v152zm0-176.3H165.3V159.7h116.8v151.8zm141.1 170.2c0 3.3-2.7 6.1-6.1 6.1H306.4V159.7h116.8v322z"/><path d="M112.6 223.5H94.8v-17.9c0-6.7-5.4-12.1-12.1-12.1s-12.1 5.4-12.1 12.1v17.9H52.7c-6.7 0-12.1 5.4-12.1 12.1s5.4 12.1 12.1 12.1h17.9v17.9c0 6.7 5.4 12.1 12.1 12.1s12.1-5.4 12.1-12.1v-17.9h17.8c6.7 0 12.1-5.4 12.1-12.1s-5.4-12.1-12.1-12.1zm141.7 0h-61.1c-6.7 0-12.1 5.4-12.1 12.1s5.4 12.1 12.1 12.1h61.1c6.7 0 12.1-5.4 12.1-12.1s-5.4-12.1-12.1-12.1zM99.8 411.8l14.6-14.6c4.7-4.7 4.7-12.4 0-17.1-4.7-4.7-12.4-4.7-17.1 0l-14.6 14.6L68 380c-4.7-4.7-12.4-4.7-17.1 0-4.7 4.7-4.7 12.4 0 17.1l14.6 14.6-14.6 14.6c-4.7 4.7-4.7 12.4 0 17.1 2.4 2.4 5.5 3.6 8.6 3.6 3.1 0 6.2-1.2 8.6-3.6L82.6 429l14.6 14.6c2.4 2.4 5.5 3.6 8.6 3.6s6.2-1.2 8.6-3.6c4.7-4.7 4.7-12.4 0-17.1l-14.6-14.7zM255.5 380c-4.7-4.7-12.4-4.7-17.1 0L192 426.4c-4.7 4.7-4.7 12.4 0 17.1 2.4 2.4 5.5 3.6 8.6 3.6s6.2-1.2 8.6-3.6l46.4-46.4c4.6-4.7 4.6-12.3-.1-17.1z"/><circle cx="200.5" cy="388.6" r="10.3"/><circle cx="246.9" cy="435" r="10.3"/><path d="M395.4 290.4h-62c-6.7 0-12.1 5.4-12.1 12.1 0 6.7 5.4 12.1 12.1 12.1h62c6.7 0 12.1-5.4 12.1-12.1 0-6.6-5.4-12.1-12.1-12.1zm0 42.3h-62c-6.7 0-12.1 5.4-12.1 12.1s5.4 12.1 12.1 12.1h62c6.7 0 12.1-5.4 12.1-12.1 0-6.6-5.4-12.1-12.1-12.1z"/></symbol><symbol viewBox="0 0 512 512" id="nav-link-3" xmlns="http://www.w3.org/2000/svg"><path d="M39.6 127.3h96.2c4.1 0 7.5-3.4 7.5-7.5V39.6c0-4.2-3.4-7.5-7.5-7.5H39.6c-4.2 0-7.5 3.4-7.5 7.5v80.2c0 4.1 3.3 7.5 7.5 7.5zm7.5-80.2h81.2v65.1H47.1V47.1zm-7.5 192.4h96.2c4.1 0 7.5-3.4 7.5-7.5v-80.2c0-4.2-3.4-7.5-7.5-7.5H39.6c-4.2 0-7.5 3.4-7.5 7.5V232c0 4.1 3.3 7.5 7.5 7.5zm7.5-80.2h81.2v65.1H47.1v-65.1zm284.6 89c2.9 2.9 7.7 2.9 10.6 0l56.7-56.7c2.9-2.9 2.9-7.7 0-10.6l-68-68c-2.9-2.9-7.7-2.9-10.6 0l-56.7 56.7c-2.9 2.9-2.9 7.7 0 10.6l68 68zm-6-119.4l57.4 57.4-46.1 46.1-57.4-57.4 46.1-46.1zm-73.3 198.7c2.9 2.9 7.7 2.9 10.6 0l56.7-56.7c2.9-2.9 2.9-7.7 0-10.6l-68-68c-2.9-2.9-7.7-2.9-10.6 0L184.4 249c-2.9 2.9-2.9 7.7 0 10.6l68 68zm-6-119.4l57.4 57.4-46.1 46.1-57.4-57.4 46.1-46.1z"/><path d="M87.7 512h416.8c4.2 0 7.5-3.4 7.5-7.5V344.2c0-4.1-3.4-7.5-7.5-7.5h-56.1c-4.1 0-7.5 3.4-7.5 7.5 0 4.2 3.4 7.5 7.5 7.5H497V497H87.7C47.6 497 15 464.4 15 424.3s32.6-72.6 72.6-72.6h325.1c4.2 0 7.5-3.4 7.5-7.5s-3.4-7.5-7.5-7.5H299.3l145.1-145.1c2.9-2.9 2.9-7.7 0-10.6L331 67.6c-2.9-2.9-7.7-2.9-10.6 0L175.3 212.7V7.5c0-4.2-3.4-7.5-7.5-7.5H7.5C3.4 0 0 3.4 0 7.5v416.8C0 472.7 39.3 512 87.7 512zM51.5 336.5l-.1.1h-4.3v-65.1h69.4l-65 65zm70.9-1.5l-1.4-1.4 46.1-46.1 49.1 49.1h-92.5c-.4-.5-.8-1.1-1.3-1.6zM325.7 83.5l102.7 102.7-150.3 150.5h-41.2c-.3-.6-64.6-65-64.6-65-2.9-2.9-7.7-2.9-10.6 0L105 328.3c-2.3 2.3-2.8 5.6-1.6 8.3H87.7c-5.7 0-11.3.6-16.7 1.6L325.7 83.5zM15 15h145.3v212.6l-28.9 28.9c-.4-.1-.8-.1-1.2-.1H39.6c-4.2 0-7.5 3.4-7.5 7.5v80.2c0 3.9 2.9 7 6.7 7.5-9.3 6.3-17.4 14.3-23.7 23.7V15z"/><path d="M384.8 376.2v96.2c0 4.2 3.4 7.5 7.5 7.5h80.2c4.2 0 7.5-3.4 7.5-7.5v-96.2c0-4.1-3.4-7.5-7.5-7.5h-80.2c-4.2 0-7.5 3.4-7.5 7.5zm15 7.6h65.1V465h-65.1v-81.2zM280 368.7c-4.1 0-7.5 3.4-7.5 7.5v96.2c0 4.2 3.4 7.5 7.5 7.5h80.2c4.2 0 7.5-3.4 7.5-7.5v-96.2c0-4.1-3.4-7.5-7.5-7.5H280zm72.7 96.2h-65.1v-81.2h65.1v81.2zm-184.9-96.2c-4.2 0-7.5 3.4-7.5 7.5v96.2c0 4.2 3.4 7.5 7.5 7.5H248c4.1 0 7.5-3.4 7.5-7.5v-96.2c0-4.1-3.4-7.5-7.5-7.5h-80.2zm72.7 96.2h-65.1v-81.2h65.1v81.2zM48.1 424.3c0 21.8 17.8 39.6 39.6 39.6s39.6-17.8 39.6-39.6-17.8-39.6-39.6-39.6c-21.9.1-39.6 17.8-39.6 39.6zm64.1 0c0 13.5-11 24.5-24.5 24.5s-24.5-11-24.5-24.5 11-24.5 24.5-24.5 24.5 11 24.5 24.5z"/></symbol></svg>