<?xml version="1.0" encoding="utf-8"?><svg xmlns="http://www.w3.org/2000/svg" xmlns:xlink="http://www.w3.org/1999/xlink"><symbol viewBox="0 0 24 18" id="form-email" xmlns="http://www.w3.org/2000/svg"><path d="M24 18H0V0h24v18zM1 1.5V17h22V1.5l-11 10-11-10zM22.1 1H1.9L12 10.2 22.1 1z"/></symbol><symbol viewBox="0 0 355 261.7" id="form-message" xmlns="http://www.w3.org/2000/svg"><path d="M317.1 0H37.9C17 0 0 17 0 37.9v153.3C0 212 17 229 37.9 229h17.4l-5.9 23.3c-.7 2.8.3 5.8 2.5 7.6 1.4 1.1 3.1 1.7 4.8 1.7 1.1 0 2.1-.2 3.2-.7l69-32h188.3c20.9 0 37.9-17 37.9-37.9V37.9C355 17 338 0 317.1 0zM340 191.1c0 12.6-10.3 22.9-22.9 22.9h-190c-1.1 0-2.2.2-3.2.7l-56.2 26 4.4-17.4c.6-2.2.1-4.6-1.3-6.5S67.3 214 65 214H37.9C25.3 214 15 203.7 15 191.1V37.9C15 25.3 25.3 15 37.9 15h279.3c12.6 0 22.9 10.3 22.9 22.9v153.2h-.1z"/><path d="M281.6 57.3H76c-3.5 0-6.4 3.4-6.4 7.5s2.9 7.5 6.4 7.5h205.6c3.5 0 6.4-3.4 6.4-7.5s-2.9-7.5-6.4-7.5zm0 50.9H76c-3.5 0-6.4 3.4-6.4 7.5s2.9 7.5 6.4 7.5h205.6c3.5 0 6.4-3.4 6.4-7.5s-2.9-7.5-6.4-7.5zm0 50.8H76c-3.5 0-6.4 3.4-6.4 7.5s2.9 7.5 6.4 7.5h205.6c3.5 0 6.4-3.4 6.4-7.5s-2.9-7.5-6.4-7.5z"/></symbol><symbol viewBox="0 0 29 34.7" id="form-phone" xmlns="http://www.w3.org/2000/svg"><path d="M3.4.7l-1 .8C1.2 2.4.4 3.9.1 5.8c-.7 4.7 1.8 11.5 6.5 17.7 6.8 9 15.5 13.4 20 10.1l1-.8c.8-.6 1.2-1.4 1.4-2.3.1-.9-.1-1.9-.7-2.6l-3.1-4.1c-1.2-1.6-3.4-1.9-5-.7l-1 .8c-1.1.8-3.5 0-7-4.6-3-4-3.2-6-3.1-6.9.1-.5.3-.8.6-1.1l1-.8c1.5-1.1 1.8-3.5.7-5l-3-4.1C7.8.7 7 .2 6.1 0c-1-.1-1.9.1-2.7.7zm3.4 1.9l3.1 4.1c.5.7.4 1.7-.3 2.1l-1 .8c-.8.6-1.3 1.4-1.4 2.4-.3 2.1.9 5 3.5 8.4 5.4 7.1 8.6 5.9 9.8 5l1-.8c.7-.5 1.6-.4 2.1.3l3.1 4.1c.5.7.4 1.7-.3 2.1l-1 .8C22 34.5 14.1 30 8.3 22.2 4 16.5 1.6 10.2 2.2 6c.2-1.4.7-2.4 1.5-3l1-.8c.3-.1.7-.2 1.1-.2.4.1.7.3 1 .6z"/></symbol><symbol viewBox="0 0 32 32" id="form-user" xmlns="http://www.w3.org/2000/svg"><path d="M16 22c5 0 9-4.9 9-11S21 0 16 0c-2.4 0-4.7 1.2-6.4 3.3C7.9 5.4 7 8.1 7 11c0 6.1 4 11 9 11zm0-20c3.9 0 7 4 7 9s-3.1 9-7 9-7-4-7-9 3.1-9 7-9zm7 18c-.6 0-1 .4-1 1s.4 1 1 1c3.9 0 7 3.1 7 7 0 .6-.4 1-1 1H3c-.6 0-1-.4-1-1 0-3.9 3.1-7 7-7 .6 0 1-.4 1-1s-.4-1-1-1c-5 0-9 4-9 9 0 1.7 1.3 3 3 3h26c1.7 0 3-1.3 3-3 0-5-4-9-9-9z"/></symbol><symbol viewBox="0 0 496 496" id="icon-design-1" xmlns="http://www.w3.org/2000/svg"><path d="M485.4 434.1L467.3 416h28.3V64.3H79.9V.3H40c-22 0-40 17.9-40 40v335.8c0 22 17.9 40 40 40h324.8l69.3 69.3c6.8 6.8 16 10.6 25.6 10.6 20 0 36.3-16.3 36.3-36.3 0-9.6-3.8-18.7-10.6-25.6zM275.5 275.8l29.3 8.3-20.8 20.8-8.5-29.1zm44.6 15.7l130.1 130.1-28.7 28.7-130-130.2 28.6-28.6zM16 40.3c0-13.2 10.8-24 24-24h24v319.8H40c-9 0-17.3 3-24 8V40.3zm24 359.8c-13.2 0-24-10.8-24-24s10.8-24 24-24h40V80.3h399.7v319.8h-28.3l-127-127-72.2-20.5 20.9 71.8 75.7 75.7H40zM459.7 480c-5.4 0-10.5-2.1-14.3-5.9l-12.5-12.5 28.7-28.7 12.5 12.5c3.8 3.8 5.9 8.9 5.9 14.3 0 11.2-9.1 20.3-20.3 20.3z"/><path d="M127.9 128.2v157.9l157.9-157.9H127.9zm16 16h103.4L143.9 247.6V144.2z"/><path d="M271.8 240.2h127.9v-32.6c2.6.4 5.3.6 8 .6 30.9 0 56-25.1 56-56s-25.1-56-56-56c-15.2 0-29 6.1-39.1 16H347l16-16H95.9v267.1l175.9-175.9v52.8zm135.9-127.9c22 0 40 17.9 40 40s-17.9 40-40 40-40-17.9-40-40 18-40 40-40zm-50.5 15.9c-3.5 7.3-5.5 15.4-5.5 24 0 22.3 13.1 41.5 32 50.5v21.5h-95.9v-52.7l43.3-43.3h26.1zm-245.3-15.9h212.5L111.9 324.8V112.3zm8 255.8h16v16h-16v-16zm32 0h111.9v16H151.9v-16z"/></symbol><symbol viewBox="0 0 496 496" id="icon-design-2" xmlns="http://www.w3.org/2000/svg"><path d="M496 336V210.7c0-19.3-13.8-35.9-32.8-39.4l-55.2-10v-15.4c14.6-11.7 24-29.7 24-49.9V80h16V64h-16v-8c0-30.9-25.1-56-56-56h-16c-30.9 0-56 25.1-56 56v8h-16v16h16v16c0 19.1 8.5 36.3 21.8 48h-68.7l-8.4-14.7c.8-1.8 1.6-3.6 2.3-5.5l21-5.7V73.9l-21-5.7c-.7-1.8-1.5-3.7-2.3-5.5l10.8-18.9-31.3-31.3-18.9 10.8c-1.8-.8-3.6-1.6-5.5-2.3l-5.7-21h-44.2l-5.7 21c-1.8.7-3.7 1.4-5.5 2.3l-18.9-10.8-31.3 31.3 10.8 18.9c-.8 1.8-1.6 3.6-2.3 5.5l-21 5.7v44.2l21 5.7c.7 1.8 1.5 3.7 2.3 5.5L94.9 144H40c-22.1 0-40 17.9-40 40v272c0 22.1 17.9 40 40 40h56v-64h86.1l32 16H456c22.1 0 40-17.9 40-40s-17.9-40-40-40h-24v-32h64zm-16-125.3V320h-32v-80h-16v80H304v-80h-16v80h-32V210.7c0-11.6 8.3-21.5 19.7-23.6l31.4-5.7 16.2 64.6 44.7-35.8 44.7 35.8 16.2-64.6 31.4 5.7c11.4 2.1 19.7 12 19.7 23.6zm-146.7-34.1l22.7 22.7-23.3 18.7-9.9-39.4 10.5-2zm79.8 1.9l-9.9 39.4-23.2-18.6 22.7-22.7 10.4 1.9zM392 164.7l-24 24-24-24v-9.4c7.4 3 15.5 4.7 24 4.7s16.6-1.7 24-4.7v9.4zM416 56v8h-22.9l5.2-41.2C408.9 30 416 42.2 416 56zm-40-40c2.3 0 4.6.3 6.8.7L376.9 64H359l-5.9-47.3c2.2-.4 4.5-.7 6.8-.7H376zm-56 40c0-13.8 7.1-26 17.8-33.2L343 64h-23v-8zm0 40V80h96v16c0 26.5-21.5 48-48 48s-48-21.5-48-48zm-200.6 29.8c-1.9-3.6-3.4-7.2-4.6-11l-1.3-4.2-17.5-4.7V86.1l17.5-4.8 1.3-4.2c1.2-3.7 2.7-7.4 4.6-11l2.1-3.9-9-15.8 14-14 15.8 9 3.9-2.1c3.6-1.9 7.3-3.4 11-4.6l4.2-1.3 4.8-17.5H186l4.8 17.5 4.2 1.3c3.7 1.1 7.4 2.7 11 4.6l3.9 2.1 15.8-9 14 14-9 15.8 2.1 3.9c1.9 3.6 3.4 7.2 4.6 11l1.3 4.2 17.5 4.8v19.8l-17.5 4.8-1.3 4.2c-1.2 3.7-2.7 7.4-4.6 11l-2.1 3.9 8.1 14.3H113.3l8.1-14.3-2-4zM80 480H40c-13.2 0-24-10.8-24-24s10.8-24 24-24h40v48zm144-96h176v48H224v-48zm-16 43.1L169.9 408l38.1-19.1v38.2zM480 408c0 13.2-10.8 24-24 24h-40v-48h40c13.2 0 24 10.8 24 24zm-64-40H214.1l-80 40 16 8H40c-9 0-17.3 3.1-24 8.2V184c0-13.2 10.8-24 24-24h288v1.3l-55.2 10c-19 3.5-32.8 20-32.8 39.4V336h176v32z"/><path d="M224 96c0-26.5-21.5-48-48-48s-48 21.5-48 48 21.5 48 48 48 48-21.5 48-48zm-48 32c-17.6 0-32-14.4-32-32s14.4-32 32-32 32 14.4 32 32-14.4 32-32 32zM32 384h96v16H32v-16zm112-208c-35.8 0-66.3 23.3-76.4 56.3L32 196.7V368h171.3l-35.6-35.6c33-10.1 56.3-40.7 56.3-76.4 0-44.1-35.9-80-80-80zM48 352V235.3L164.7 352H48zm106.4-32.9l-73.5-73.5c5-30.8 31.4-53.6 63.1-53.6 35.3 0 64 28.7 64 64 0 31.6-22.8 58.1-53.6 63.1z"/></symbol><symbol viewBox="0 0 498 498" id="icon-design-3" xmlns="http://www.w3.org/2000/svg"><path d="M482 130.3h14.1l-57.6-95.9h-171L226.2 0l-118 98.3h22.1v79.9h-48v-63.9h-40c-22 0-40 17.9-40 40V458c0 22 17.9 40 40 40H418V290.2h64V130.3zm-52.5-79.9l38.4 63.9H322.1v-16h22.1l-57.6-48h142.9zM226.2 20.8L300 82.3H152.4l73.8-61.5zm-79.9 77.5h159.9v79.9h-32v-24c0-22-17.9-40-40-40h-16c-22 0-40 17.9-40 40v24h-32V98.3zm71.9 80h-24v-24c0-13.2 10.8-24 24-24v48zm16-48c13.2 0 24 10.8 24 24v24h-24v-48zm-215.8 24c0-13.2 10.8-24 24-24h24v287.8h-24c-9 0-17.3 3-24 8V154.3zM402.1 482H42.4c-13.2 0-24-10.8-24-24s10.8-24 24-24h40V194.3h319.7V482zm16-207.8v-95.9h-95.9v-48H466v143.9h-47.9z"/><path d="M138.3 466h207.8c22 0 40-17.9 40-40V250.2c0-22-17.9-40-40-40H138.3c-22 0-40 17.9-40 40v175.9c0 22 18 39.9 40 39.9zm-24-39.9v-56h95.9V450h-71.9c-13.2 0-24-10.7-24-23.9zm159.9-199.9h32v95.9h63.9v32H258.2V450h-32v-95.9H114.3v-32h159.9v-95.9zM346.1 450h-71.9v-79.9h95.9v56c0 13.2-10.8 23.9-24 23.9zm24-199.8v56h-48v-79.9h24c13.2-.1 24 10.7 24 23.9zm-231.8-24h119.9v79.9H114.3v-56c0-13.1 10.8-23.9 24-23.9z"/></symbol><symbol viewBox="0 0 496 496" id="icon-design-4" xmlns="http://www.w3.org/2000/svg"><path d="M120 32h80v16h-80V32zm24 64h-16v88h-16v-64H96v64H80v-40H64v40H48v16h112v-16h-16V96zM48 216h16v16H48v-16zm32 0h80v16H80v-16z"/><path d="M472 328c13.2 0 24-10.8 24-24V180.8c0-15.8-11.8-29.4-27.5-31.7L440 145v-13.4c9.8-8.8 16-21.5 16-35.7V80c0-26.5-21.5-48-48-48s-48 21.5-48 48v16c0 14.2 6.2 26.9 16 35.7v13.4l-44.8 6.4-27.6-31.5h.4V80h16V32h-84.7l-32-32h-86.6l-32 32H0v48h16v192H0v48h80v22.5L26.5 480H0v16h496v-16h-32V326.5c2.5.9 5.2 1.5 8 1.5zm-56.4-98.9l-7.6 7.6-7.6-7.6 6.6-53.2c.3 0 .6.1.9.1s.6 0 .9-.1l6.8 53.2zM376 80c0-17.6 14.4-32 32-32s32 14.4 32 32v16c0 17.6-14.4 32-32 32s-32-14.4-32-32V80zm32 64c5.6 0 11-1 16-2.8v8.6c-2 3.1-7.5 10.2-16 10.2s-14-7.2-16-10.2v-8.6c5 1.8 10.4 2.8 16 2.8zm-27.9 16.6c2.4 3.3 6.2 7.5 11.5 10.7l-7.9 63.6 24.4 24.4 24.4-24.4-7.9-63.6c5.2-3.2 9-7.4 11.5-10.7l30.3 4.3c7.8 1.1 13.7 7.9 13.7 15.8V304c0 4.4-3.6 8-8 8s-8-3.6-8-8V192h-16v80h-80v-80h-48.3c-2.4 0-4.7-1.1-6.2-3L258 119.5c-1.2-1.5-1.9-3.4-1.9-5.3v-1.7c0-4.7 3.8-8.5 8.5-8.5 2.5 0 4.8 1.1 6.4 2.9l53.9 61.6 55.2-7.9zM136 352v128H75.7l49.8-128H136zm16 0h16v128h-16V352zm32 0h10.5l49.8 128H184V352zm27.7 0h14.8l49.8 128h-14.8l-49.8-128zm28.3-9.5V320h80v-48h-16v-70c4.3 3.8 9.8 6 15.7 6H352v272h-58.5L240 342.5zM368 288h32v192h-32V288zM16 48h75.3l32-32h73.4l32 32H304v16H16V48zm16 32h256v22.1l-5-5.8c-4.7-5.3-11.4-8.4-18.4-8.4C251 88 240 99 240 112.5v1.7c0 5.5 1.9 11 5.4 15.3l42.6 53.3V272H32V80zM16 288h288v16H16v-16zm208 32v16H96v-16h128zM93.5 352h14.8L58.5 480H43.7l49.8-128zM416 480V288h32v192h-32z"/><path d="M224 160c-26.5 0-48 21.5-48 48s21.5 48 48 48 48-21.5 48-48-21.5-48-48-48zm-8 17.1V200h-22.9c2.9-11.2 11.7-20 22.9-22.9zM193.1 216H216v22.9c-11.2-2.9-20-11.7-22.9-22.9zm38.9 22.9v-61.7c13.8 3.6 24 16 24 30.9s-10.2 27.2-24 30.8z"/></symbol><symbol viewBox="0 0 496 496" id="icon-design-5" xmlns="http://www.w3.org/2000/svg"><path d="M462 240.8V128c17.6 0 32-14.4 32-32s-14.4-32-32-32V0H186.7L110 76.7v33.7l-100.4 67 8.9 13.3L46 172.3V304h64v160h208.8c3.7 18.2 19.9 32 39.2 32h96c22.1 0 40-17.9 40-40V280c0-19.3-13.8-35.5-32-39.2zM262 107.1L239.9 96 262 84.9v22.2zM278 80h152v32H278V80zm200 16c0 8.8-7.2 16-16 16h-16V80h16c8.8 0 16 7.2 16 16zM182 27.3V72h-44.7L182 27.3zM62 161.6l72-48 72 48V288h-32v-40c0-22.1-17.9-40-40-40s-40 17.9-40 40v40H62V161.6zM158 288h-48v-40c0-13.2 10.8-24 24-24s24 10.8 24 24v40zm160-8v168H126V304h96V172.3l27.6 18.4 8.9-13.3-124.5-83-8 5.3V88h72V16h248v48H268.1l-64 32 64 32H446v112h-88c-22.1 0-40 17.9-40 40zm160 176c0 13.2-10.8 24-24 24h-96c-13.2 0-24-10.8-24-24V280c0-13.2 10.8-24 24-24h96c13.2 0 24 10.8 24 24v176z"/><path d="M350 336h112v-64H350v64zm16-48h80v32h-80v-32zm-16 160c0 8.8 7.2 16 16 16h80c8.8 0 16-7.2 16-16v-96H350v96zm16-16h16v16h-16v-16zm48-32v16h-16v-16h16zm-16-16v-16h16v16h-16zm32 16h16v16h-16v-16zm-16 32v16h-16v-16h16zm-32-16h-16v-16h16v16zm48 32v-16h16v16h-16zm16-64h-16v-16h16v16zm-64-16v16h-16v-16h16zM118 192h32c8.8 0 16-7.2 16-16v-16c0-8.8-7.2-16-16-16h-32c-8.8 0-16 7.2-16 16v16c0 8.8 7.2 16 16 16zm0-32h32v16h-32v-16zM91 94.2L81 81.8l-35 28-35-28L1 94.2l45 36 45-36zM38 64h16v16H38V64zm104 256h160v16H142v-16zm32 32h128v16H174v-16zm-32 0h16v16h-16v-16zm0 32h160v16H142v-16zm144 32h16v16h-16v-16zm-144 0h128v16H142v-16zm136-272h152v16H278v-16zm0 32h16v16h-16v-16zm32 0h120v16H310v-16zm-32 32h120v16H278v-16zm136 0h16v16h-16v-16zM38 32h16v16H38V32zm0-32h16v16H38V0zM1 361.8l10 12.5 35-28 35 28 10-12.5-45-36-45 36zM38 376h16v16H38v-16zm0 32h16v16H38v-16zm0 32h16v16H38v-16z"/></symbol><symbol viewBox="0 0 496 496" id="icon-design-6" xmlns="http://www.w3.org/2000/svg"><path d="M472 136c13.2 0 24-10.8 24-24 0-10.9-7.4-20-17.4-23l.9-42.4c9.6-3.1 16.5-12 16.5-22.6 0-13.2-10.8-24-24-24-12.3 0-22.3 9.3-23.7 21.2l-99.7 22.7C344.4 36.8 336.8 32 328 32c-5.1 0-9.7 1.6-13.6 4.3C294.6 23 271.8 16 248 16c-13.5 0-26.7 2.4-39.4 6.8-4.3-4.2-10.2-6.8-16.6-6.8-9.1 0-17 5.2-21 12.7l-59.4-9.1C109.4 8.4 99.7 0 88 0 74.8 0 64 10.8 64 24c0 5 1.6 9.7 4.2 13.6L30.8 89.1c-2.2-.7-4.4-1.1-6.8-1.1-13.2 0-24 10.8-24 24 0 12.5 9.7 22.8 22 23.8l28.5 108.4C44.2 248.5 40 255.8 40 264c0 2.1.4 4.2.9 6.1C14.9 293 0 325.3 0 360c0 66.2 53.8 120 120 120 41.3 0 79.6-21.4 101.5-56.2.7.1 1.3.2 2 .2l9.7 29.2c-5.6 4.4-9.3 11.2-9.3 18.8 0 13.2 10.8 24 24 24 10.4 0 19.2-6.7 22.5-16h83c3.3 9.3 12.1 16 22.5 16 11.3 0 20.8-7.9 23.3-18.5 55.5-11 96.7-60.3 96.7-117.5 0-27.8-9.7-54.4-27.4-75.9 2.1-3.6 3.4-7.7 3.4-12.1 0-13.2-10.8-24-24-24-.7 0-1.4.2-2.2.2l-29.1-63.1c4.5-4.4 7.3-10.4 7.3-17.2 0-2.6-.5-5.1-1.3-7.5l36.4-28.3c3.8 2.5 8.2 3.9 13 3.9zm-8.5-89.6l-.9 43.5c-3.4 1.4-6.3 3.7-8.7 6.5l-97.4-37.9 95.2-21.7c2.8 4.4 6.9 7.7 11.8 9.6zM472 120c-4.4 0-8-3.6-8-8s3.6-8 8-8 8 3.6 8 8-3.6 8-8 8zm0-104c4.4 0 8 3.6 8 8s-3.6 8-8 8-8-3.6-8-8 3.6-8 8-8zM328 48c4.4 0 8 3.6 8 8s-3.6 8-8 8-8-3.6-8-8 3.6-8 8-8zm-22.9 1.3c-.6 2.1-1.1 4.4-1.1 6.7 0 13.2 10.8 24 24 24 2.4 0 4.6-.4 6.7-1.1C346 96 352 115.5 352 136c0 25.2-9 48.3-24 66.4v-16.3c0-14.2-9.5-26.9-23.2-30.8L272 146v-10.2c9.7-7.3 16-18.8 16-31.8V88c0-22.1-17.9-40-40-40s-40 17.9-40 40v16c0 13 6.3 24.5 16 31.8V146l-32.8 9.4c-13.7 3.9-23.2 16.6-23.2 30.8v16c-9-10.8-15.9-23.5-19.9-37.5 7.1-4.2 11.9-11.8 11.9-20.6 0-10-6.1-18.5-14.8-22.1 3.3-23.9 14.9-46.1 32.8-62.5 4 2.9 8.8 4.6 14 4.6 13.2 0 24-10.8 24-24 0-1-.2-1.9-.3-2.8 10.4-3.4 21.2-5.2 32.3-5.2 20.5-.1 40 5.9 57.1 17.2zM248 128c-13.2 0-24-10.8-24-24V88c0-13.2 10.8-24 24-24s24 10.8 24 24v16c0 13.2-10.8 24-24 24zm0 16c2.7 0 5.4-.3 8-.8v5.5l-8 8-8-8v-5.5c2.6.5 5.3.8 8 .8zm-18.3 17l18.3 18.3 18.3-18.3 34.1 9.7c6.8 2 11.6 8.3 11.6 15.4v31.7c-17.7 13.8-39.9 22.2-64 22.2-23.8 0-46.1-8.3-64-22.3v-31.6c0-7.1 4.8-13.4 11.6-15.4l34.1-9.7zM64 256c4.4 0 8 3.6 8 8s-3.6 8-8 8-8-3.6-8-8 3.6-8 8-8zm2-15.8L37.5 131.8c2.3-1.6 4.4-3.6 6-5.9l68.7 19.6c.3 5.2 2.3 9.9 5.4 13.7l-48.8 81.3c-.9-.2-1.9-.2-2.8-.3zM88 48c.3 0 .6-.1.9-.1l31.3 78.2c-1.4 1.2-2.6 2.5-3.7 4l-68.7-19.6c-.3-4.4-1.7-8.6-4.1-12.1l37.5-51.5c2.2.7 4.4 1.1 6.8 1.1zm21-12.7l59.4 9.1c.1.6.3 1.1.4 1.6-19.1 16.9-32.3 39.4-37.8 64.1l-27.3-68.3c2.2-1.7 4-4 5.3-6.5zM136 136c4.4 0 8 3.6 8 8s-3.6 8-8 8-8-3.6-8-8 3.6-8 8-8zm56-104c4.4 0 8 3.6 8 8s-3.6 8-8 8-8-3.6-8-8 3.6-8 8-8zM88 16c4.4 0 8 3.6 8 8s-3.6 8-8 8-8-3.6-8-8 3.6-8 8-8zm-72 96c0-4.4 3.6-8 8-8s8 3.6 8 8-3.6 8-8 8-8-3.6-8-8zm40 329.8v-31.7c0-7.1 4.8-13.4 11.6-15.4l34.1-9.7 18.3 18.3 18.3-18.3 34.1 9.7c6.8 2 11.6 8.3 11.6 15.4v31.8C166 456 143.5 464 120 464c-24.1 0-46.3-8.3-64-22.2zm64-89.8c-13.2 0-24-10.8-24-24v-16c0-13.2 10.8-24 24-24s24 10.8 24 24v16c0 13.2-10.8 24-24 24zm0 16c2.7 0 5.4-.3 8-.8v5.5l-8 8-8-8v-5.5c2.6.5 5.3.8 8 .8zm80 58.3v-16.2c0-14.2-9.5-26.9-23.2-30.8L144 370v-10.2c9.7-7.3 16-18.8 16-31.8v-16c0-22.1-17.9-40-40-40s-40 17.9-40 40v16c0 13 6.3 24.5 16 31.8V370l-32.8 9.4C49.5 383.2 40 395.9 40 410.1v16.3c-15-18-24-41.2-24-66.4 0-29.4 12.4-56.9 34-76.6 4 2.9 8.8 4.6 14 4.6 13.2 0 24-10.8 24-24 0-.9-.2-1.8-.3-2.7 10.4-3.4 21.3-5.3 32.3-5.3 57.3 0 104 46.7 104 104 0 5.3-.6 10.7-1.5 16.2-12.5.7-22.5 11.1-22.5 23.8 0 6.6 2.7 12.6 7 16.9-2.2 3.3-4.5 6.4-7 9.4zm24-34.3c4.4 0 8 3.6 8 8s-3.6 8-8 8-8-3.6-8-8 3.6-8 8-8zm24 88c-4.4 0-8-3.6-8-8s3.6-8 8-8 8 3.6 8 8-3.6 8-8 8zm128-128c-13.2 0-24-10.8-24-24v-16c0-13.2 10.8-24 24-24s24 10.8 24 24v16c0 13.2-10.8 24-24 24zm0 16c2.7 0 5.4-.3 8-.8v5.5l-8 8-8-8v-5.5c2.6.5 5.3.8 8 .8zm-18.3 17l18.3 18.3 18.3-18.3 34.1 9.7c6.8 2 11.6 8.3 11.6 15.4v31.6c-12.2 9.6-26.7 16.5-42.5 19.9-3.9-8-12-13.5-21.5-13.5s-17.6 5.6-21.5 13.5c-15.8-3.3-30.3-10.3-42.5-19.9v-31.6c0-7.1 4.8-13.4 11.6-15.4l34.1-9.7zm18.3 95c-4.4 0-8-3.6-8-8s3.6-8 8-8 8 3.6 8 8-3.6 8-8 8zm80-54v-15.9c0-14.2-9.5-26.9-23.2-30.8L400 370v-10.2c9.7-7.3 16-18.8 16-31.8v-16c0-22.1-17.9-40-40-40s-40 17.9-40 40v16c0 13 6.3 24.5 16 31.8V370l-32.8 9.4c-13.7 3.9-23.2 16.6-23.2 30.8V426c-15-18.1-24-41.2-24-66 0-57.3 46.7-104 104-104 16.8 0 33.4 4.2 48.4 12.1-.2 1.3-.4 2.6-.4 3.9 0 13.2 10.8 24 24 24 3 0 5.8-.6 8.4-1.6C471.6 313 480 336 480 360c0 24.8-9 47.9-24 66zm0-154c0 4.4-3.6 8-8 8s-8-3.6-8-8 3.6-8 8-8 8 3.6 8 8zm-25.5-18.8c-16.9-8.7-35.6-13.2-54.5-13.2-66.2 0-120 53.8-120 120 0 43.8 24.2 83.1 60.6 104h-46.1c-3.3-9.2-11.9-15.8-22.1-16l-9.7-29.2c5.6-4.4 9.3-11.2 9.3-18.8 0-8-4-15.1-10-19.4 1.2-6.9 2-13.8 2-20.6 0-66.2-53.8-120-120-120-12.1 0-24 1.9-35.6 5.5l46.8-78c.4.1.8.1 1.2.1C146.5 219.2 194.1 256 248 256c66.2 0 120-53.8 120-120 0-22.4-6.2-43.9-17.9-62.8l98 38.1c0 .2-.1.5-.1.7 0 2.6.5 5.1 1.3 7.5l-36.4 28.3c-3.7-2.4-8.1-3.8-12.9-3.8-13.2 0-24 10.8-24 24s10.8 24 24 24c.7 0 1.4-.2 2.2-.2l28.3 61.4zM400 176c-4.4 0-8-3.6-8-8s3.6-8 8-8 8 3.6 8 8-3.6 8-8 8z"/></symbol><symbol viewBox="0 0 496 496" id="icon-design-7" xmlns="http://www.w3.org/2000/svg"><path d="M496 213.9v-26.2c0-19.8-14.8-36.8-34.3-39.6L440 145v-11.2c14.5-10.1 24-26.9 24-45.9v-8h16V64h-16v-8c0-22.1-17.9-40-40-40h-32c-22.1 0-40 17.9-40 40v8h-16v16h16v8c0 15.7 6.5 29.8 16.9 40H320V24c0-13.2-10.8-24-24-24H136c-13.2 0-24 10.8-24 24v152H0v48h16v211.1L6.1 440l80 40h273.1l1.4 16h94.6L472 312v-.1c13.3-.5 24-11.4 24-24.9 0-6.6-2.7-13-7.3-17.7L475.3 256l13.4-19.2c4.8-6.7 7.3-14.6 7.3-22.9zm-61.2-53.4l3.3.5-9.2 24.6-9.6-9.6 15.5-15.5zM424 148.7l-16 16-16-16v-7c5.1 1.5 10.4 2.4 16 2.4s10.9-.8 16-2.4v7zM96 448h224v16H96v-16zm224-16H96v-16h224v16zm-144-96H64v-80h112v80zm144-80h-32v-32h32v32zm0-68.2V208h-32v-32h33.9c-1.1 3.8-1.9 7.7-1.9 11.8zM272 208h-48v-32h48v32zm-48 16h48v32h-48v-32zm0 48h48v32h-48v-32zm0 48h48v32h-48v-32zm0 48h48v32h-48v-32zm64 32v-32h61.2l2.9 32H288zm59.8-48H288v-32h56c.3 0 .6-.1.9-.1l2.9 32.1zM288 304v-32h32v24c0 2.8.6 5.5 1.5 8H288zm43.4-143.9L208 160v240h-16V144h184v1.1l-21.7 3.1c-9 1.2-16.9 5.6-22.9 11.9zm49.8.4l15.5 15.5-9.6 9.6-9.2-24.6 3.3-.5zM448 56v8h-22.6l5.2-31c10 2.9 17.4 12.1 17.4 23zm-46.6-24h13.1l-5.3 32h-2.4l-5.4-32zM368 56c0-10.9 7.4-20.1 17.4-23l5.2 31H368v-8zm0 32v-8h80v8c0 22.1-17.9 40-40 40s-40-17.9-40-40zM128 24c0-4.4 3.6-8 8-8h160c4.4 0 8 3.6 8 8v104H176v48h-48V24zM16 192h160v16H16v-16zm16 32h144v16H48v112h128v48H86.1L32 427.1V224zm48 196.9V459l-38.1-19L80 420.9zM336 464v-48h17.5l4.3 48H336zm24.2-150.4c.6-.5 1.1-1.1 1.6-1.6H400v168h-24.7l-15.1-166.4zM440.7 480H416V312h7.8c7.8 0 15-3.8 19.5-10.2l3-4.3 7.1 7.1c.8.8 1.7 1.5 2.6 2.2v4.4L440.7 480zm36.7-199.3c1.7 1.7 2.6 4 2.6 6.3 0 4.9-4 9-9 9-2.4 0-4.6-.9-6.3-2.6l-9.1-9.1 10.4-14.9 11.4 11.3zm2.6-66.8c0 4.9-1.5 9.7-4.3 13.8l-45.5 65c-1.5 2.1-3.8 3.3-6.4 3.3-4.3 0-7.8-3.5-7.8-7.8v-3c0-1.7.6-3.3 1.6-4.7l43.2-57.6c2.1-2.8 3.2-6.2 3.2-9.6V200h-16v13.3l-6.7 8.9c-4.5-4-10.3-6.2-16.4-6.2-13.8 0-25 11.2-25 25 0 6.6 2.7 13 7.3 17.7l3.8 3.8-6.4 8.5c-3.1 4.1-4.8 9.2-4.8 14.3v3c0 2.7.6 5.3 1.4 7.8H368v-96h-16v96c0 4.4-3.6 8-8 8s-8-3.6-8-8V187.8c0-11.9 8.9-22.1 20.6-23.8l5.1-.7 19.2 51.2 27.1-27.1 27.1 27.1 19.2-51.2 5.1.7c11.7 1.7 20.6 11.9 20.6 23.8v26.1zm-61.4 33.4c-1.7-1.7-2.6-4-2.6-6.3 0-4.9 4-9 9-9 2.4 0 4.6.9 6.3 2.6l.4.4-10.9 14.5-2.2-2.2z"/><path d="M288 48H144v64h144V48zm-64 16h16v32h-16V64zm-16 32h-16V64h16v32zm-48-32h16v32h-16V64zm112 32h-16V64h16v32z"/></symbol><symbol viewBox="0 0 57 57" id="icon-search" xmlns="http://www.w3.org/2000/svg"><path d="M55.1 51.9L41.6 37.8C45.1 33.6 47 28.4 47 23 47 10.3 36.7 0 24 0S1 10.3 1 23s10.3 23 23 23c4.8 0 9.3-1.4 13.2-4.2L50.8 56c.6.6 1.3.9 2.2.9.8 0 1.5-.3 2.1-.8 1.2-1.1 1.2-3 0-4.2zM24 6c9.4 0 17 7.6 17 17s-7.6 17-17 17S7 32.4 7 23 14.6 6 24 6z"/></symbol><symbol viewBox="0 0 270.4 98.1" id="iconSheer"><path d="M175.1 51.8c.2 1.2.3 2.1.5 3 2 8.4 8.6 14 17.2 14.7 7.6.6 13.6-2.3 18-8.5 2.2-3 5.7-3.5 8.5-1.1 1.6 1.4 1.8 3.2.5 4.9-.7.9-1.4 1.8-2.1 2.8-2.9 4-6.7 6.7-11.4 8.3-7.6 2.6-15.2 3-22.7.2-10.1-3.7-16.1-11.1-17.8-21.7-1-6.5-.4-13 2.6-18.9 4.3-8.4 11.1-13.6 20.5-15.1 6.2-1 12.4-.4 18.2 2.4 8.2 3.9 13.2 10.5 15.1 19.3.5 2.4.7 4.9.9 7.3.2 1.5-.5 2.2-2.1 2.3h-44.1c-.4.1-.9.1-1.8.1zm38.3-9.2c-1.2-7.9-10.7-14.7-19.4-14.2-9.1.5-18.2 7.5-18.5 14.2h37.9zm-101 9c.1.8.2 1.4.3 2 1.7 9.3 9.3 15.7 18.7 15.9 7.1.1 12.7-2.8 16.8-8.6 2.2-3.1 6.1-3.4 8.8-.7 1.3 1.4 1.5 3 .3 4.6-.5.8-1.1 1.5-1.7 2.2-3.1 4.5-7.3 7.4-12.5 9.1-7.6 2.5-15.2 2.7-22.5-.2-10.6-4.1-16.4-12.1-17.6-23.3-.6-5.4-.1-10.7 2.2-15.6 4.3-9.4 11.4-15.2 21.8-16.6 5.5-.7 11-.3 16.1 1.8 9.2 3.8 14.6 10.9 16.6 20.6.4 2.2.6 4.5.7 6.7.1 1.8-.3 2.2-2.2 2.2h-43.5c-.7-.1-1.4-.1-2.3-.1zm38.4-9.1c-1.2-7.8-10.4-14.4-19.4-14.2-8.8.2-17.9 7.2-18.6 14.2h38zm101 13.5c.7.6 1.1 1 1.5 1.4 4.9 4.2 9.8 8.3 14.6 12.5.3.3.7.6 1 .9 1.8 1.8 2 4.4.3 6.2-1.6 1.8-4.2 2.1-6.1.5-3.4-2.8-6.7-5.7-10-8.5-4.8-4.1-9.5-8.1-14.3-12.2-.4-.4-.9-.7-1.6-1.3 0 1-.1 1.6-.1 2.3v36.1c-.2 2.5-2.1 4.3-4.6 4.2-2.4-.1-4.1-1.9-4.2-4.4V21.9c0-1.6.2-1.9 1.7-1.9 2.1-.1 4.2-.1 6.2-.1 5 0 10.1.2 15.1-.1 8.4-.4 17.8 6.4 18.7 16.3.8 8.9-5.2 17.3-14.3 19.1-1.1.2-2.3.5-3.9.8zm-15.3-6.9c.5.1.9.1 1.2.1h12.6c1.2 0 2.4-.1 3.6-.5 3.9-1.2 7-3.5 8-7.7 1.7-7.1-3.6-13.7-10.9-13.7h-13c-.5 0-1 .1-1.5.1v21.7zM88.5 52H63.9c0 .7-.1 1.4-.1 2v18.9c0 .8 0 1.6-.2 2.3-.6 1.9-2.6 3.1-4.5 3-2.1-.2-3.8-1.8-4.1-3.9-.1-.5 0-1 0-1.5V5.4c0-.9.1-1.8.4-2.6.6-2 2.6-3 4.7-2.8 1.9.3 3.5 2 3.7 3.9.1.6 0 1.2 0 1.8v34.7c0 .7.1 1.4.1 2 1.5.4 22.9.4 24.5 0 0-.5.1-1.1.1-1.7V23.9c.2-2.3 1.9-4 4.2-4.1 2.3-.1 4.3 1.6 4.6 3.9.1.5 0 1 0 1.5v48.9c-.3 2.3-2.3 4.1-4.5 4-2.3-.1-4.1-1.9-4.3-4.2V52zM25 78.3c-5.9-.1-11.4-1.4-16.5-4.4-2.2-1.3-4.2-2.9-5.8-4.8-.8-1-1.6-2.1-2.2-3.3-1-1.9-.6-3.4.9-4.9 1.7-1.6 4.1-2.3 6.4-.7C9 61 10 62 10.9 63c.9.9 1.6 1.9 2.5 2.8 2.7 2.7 6 4.2 9.8 4.6 3.5.4 7 .3 10.4-.9 1.4-.5 2.8-1.2 4-2.1 2.9-2.2 3-5.9.2-8.2-1.3-1.1-2.9-1.9-4.5-2.6-4-1.7-8.1-2.9-12.3-4-3.4-.8-6.7-1.9-10.1-2.9-1.3-.4-2.5-1.1-3.7-1.7-3.2-1.7-5-4.4-5.5-7.9-1-7.1 1.7-12.8 8.1-15.9 9.8-4.8 19.7-5.2 29.4.4 1.8 1 3.5 2.5 5.1 3.9 1.2 1 2 2.5 2.5 4 .8 2.6-.5 3.9-2.8 4.4-2 .4-3.8-.2-5.2-1.7-.3-.3-.5-.6-.7-.9-2.3-3.4-5.6-5.3-9.6-6.1-4-.7-8-.6-11.8.9-1.4.5-2.8 1.3-3.9 2.3-2.7 2.3-2.7 5.4-.1 7.8 1.7 1.6 3.7 2.5 5.9 3 4.8 1.2 9.7 2.4 14.5 3.6 3.1.8 6.1 1.8 8.9 3.4 3.6 1.9 6.2 4.7 7.1 8.8 1.1 5 0 9.4-3.9 13-4.4 4-9.5 6.3-15.4 7-1.7.1-3.3.2-4.8.3z"/></symbol><symbol preserveAspectRatio="none" viewBox="0 0 131 36" id="lines" xmlns="http://www.w3.org/2000/svg"><path fill-rule="evenodd" fill="#fff" d="M0 34.999v-1.001h95v1.001H0z"/><path fill-rule="evenodd" fill="#fff" d="M95.348 35.358l-.696-.718 35-34 .696.717-35 34.001z"/></symbol><symbol viewBox="0 0 404.8 511" id="nav-link-1" xmlns="http://www.w3.org/2000/svg"><path d="M275.4 3.9C273 1.5 269.8 0 266.5 0H67.1C30.4 0 0 30.2 0 67v377c0 36.8 30.4 67 67.1 67h270.6c36.8 0 67.1-30.2 67.1-67V144.7c0-3.2-1.5-6.3-3.6-8.6L275.4 3.9zm3.6 39.7l84.3 88.5h-54.8c-16.3 0-29.5-13.1-29.5-29.4V43.6zm58.7 442.7H67.1c-23.1 0-42.5-19.1-42.5-42.3V67c0-23.1 19.3-42.3 42.5-42.3h187.1v78c0 30 24.2 54.1 54.2 54.1h71.7V444c.1 23.2-19.2 42.3-42.4 42.3z"/><path d="M304 401.1H100.8c-6.8 0-12.3 5.6-12.3 12.3 0 6.8 5.6 12.3 12.3 12.3h203.3c6.8 0 12.3-5.6 12.3-12.3.1-6.7-5.5-12.3-12.4-12.3zm-110.6-44.3c2.3 2.5 5.6 3.9 9 3.9 3.5 0 6.7-1.5 9-3.9l72.3-77.6c4.7-4.9 4.3-12.8-.6-17.4-4.9-4.7-12.8-4.3-17.4.6l-51 54.7V182.3c0-6.8-5.6-12.3-12.3-12.3-6.8 0-12.3 5.6-12.3 12.3v134.8l-50.9-54.7c-4.7-4.9-12.5-5.3-17.4-.6-4.9 4.7-5.3 12.5-.6 17.4l72.2 77.6z"/></symbol><symbol viewBox="0 0 447.4 512" id="nav-link-2" xmlns="http://www.w3.org/2000/svg"><path d="M417.1 0H30.3C13.6 0 0 13.6 0 30.3v451.4C0 498.4 13.6 512 30.3 512h386.8c16.7 0 30.3-13.6 30.3-30.3V30.3c0-16.7-13.6-30.3-30.3-30.3zM24.2 30.3c0-3.3 2.7-6.1 6.1-6.1h386.8c3.3 0 6.1 2.7 6.1 6.1v105.1h-399V30.3zm116.9 457.5H30.3c-3.3 0-6.1-2.7-6.1-6.1V335.8H141v152zm0-176.3H24.2V159.7H141v151.8zm141 176.3H165.3v-152h116.8v152zm0-176.3H165.3V159.7h116.8v151.8zm141.1 170.2c0 3.3-2.7 6.1-6.1 6.1H306.4V159.7h116.8v322z"/><path d="M112.6 223.5H94.8v-17.9c0-6.7-5.4-12.1-12.1-12.1s-12.1 5.4-12.1 12.1v17.9H52.7c-6.7 0-12.1 5.4-12.1 12.1s5.4 12.1 12.1 12.1h17.9v17.9c0 6.7 5.4 12.1 12.1 12.1s12.1-5.4 12.1-12.1v-17.9h17.8c6.7 0 12.1-5.4 12.1-12.1s-5.4-12.1-12.1-12.1zm141.7 0h-61.1c-6.7 0-12.1 5.4-12.1 12.1s5.4 12.1 12.1 12.1h61.1c6.7 0 12.1-5.4 12.1-12.1s-5.4-12.1-12.1-12.1zM99.8 411.8l14.6-14.6c4.7-4.7 4.7-12.4 0-17.1-4.7-4.7-12.4-4.7-17.1 0l-14.6 14.6L68 380c-4.7-4.7-12.4-4.7-17.1 0-4.7 4.7-4.7 12.4 0 17.1l14.6 14.6-14.6 14.6c-4.7 4.7-4.7 12.4 0 17.1 2.4 2.4 5.5 3.6 8.6 3.6 3.1 0 6.2-1.2 8.6-3.6L82.6 429l14.6 14.6c2.4 2.4 5.5 3.6 8.6 3.6s6.2-1.2 8.6-3.6c4.7-4.7 4.7-12.4 0-17.1l-14.6-14.7zM255.5 380c-4.7-4.7-12.4-4.7-17.1 0L192 426.4c-4.7 4.7-4.7 12.4 0 17.1 2.4 2.4 5.5 3.6 8.6 3.6s6.2-1.2 8.6-3.6l46.4-46.4c4.6-4.7 4.6-12.3-.1-17.1z"/><circle cx="200.5" cy="388.6" r="10.3"/><circle cx="246.9" cy="435" r="10.3"/><path d="M395.4 290.4h-62c-6.7 0-12.1 5.4-12.1 12.1 0 6.7 5.4 12.1 12.1 12.1h62c6.7 0 12.1-5.4 12.1-12.1 0-6.6-5.4-12.1-12.1-12.1zm0 42.3h-62c-6.7 0-12.1 5.4-12.1 12.1s5.4 12.1 12.1 12.1h62c6.7 0 12.1-5.4 12.1-12.1 0-6.6-5.4-12.1-12.1-12.1z"/></symbol><symbol viewBox="0 0 512 512" id="nav-link-3" xmlns="http://www.w3.org/2000/svg"><path d="M39.6 127.3h96.2c4.1 0 7.5-3.4 7.5-7.5V39.6c0-4.2-3.4-7.5-7.5-7.5H39.6c-4.2 0-7.5 3.4-7.5 7.5v80.2c0 4.1 3.3 7.5 7.5 7.5zm7.5-80.2h81.2v65.1H47.1V47.1zm-7.5 192.4h96.2c4.1 0 7.5-3.4 7.5-7.5v-80.2c0-4.2-3.4-7.5-7.5-7.5H39.6c-4.2 0-7.5 3.4-7.5 7.5V232c0 4.1 3.3 7.5 7.5 7.5zm7.5-80.2h81.2v65.1H47.1v-65.1zm284.6 89c2.9 2.9 7.7 2.9 10.6 0l56.7-56.7c2.9-2.9 2.9-7.7 0-10.6l-68-68c-2.9-2.9-7.7-2.9-10.6 0l-56.7 56.7c-2.9 2.9-2.9 7.7 0 10.6l68 68zm-6-119.4l57.4 57.4-46.1 46.1-57.4-57.4 46.1-46.1zm-73.3 198.7c2.9 2.9 7.7 2.9 10.6 0l56.7-56.7c2.9-2.9 2.9-7.7 0-10.6l-68-68c-2.9-2.9-7.7-2.9-10.6 0L184.4 249c-2.9 2.9-2.9 7.7 0 10.6l68 68zm-6-119.4l57.4 57.4-46.1 46.1-57.4-57.4 46.1-46.1z"/><path d="M87.7 512h416.8c4.2 0 7.5-3.4 7.5-7.5V344.2c0-4.1-3.4-7.5-7.5-7.5h-56.1c-4.1 0-7.5 3.4-7.5 7.5 0 4.2 3.4 7.5 7.5 7.5H497V497H87.7C47.6 497 15 464.4 15 424.3s32.6-72.6 72.6-72.6h325.1c4.2 0 7.5-3.4 7.5-7.5s-3.4-7.5-7.5-7.5H299.3l145.1-145.1c2.9-2.9 2.9-7.7 0-10.6L331 67.6c-2.9-2.9-7.7-2.9-10.6 0L175.3 212.7V7.5c0-4.2-3.4-7.5-7.5-7.5H7.5C3.4 0 0 3.4 0 7.5v416.8C0 472.7 39.3 512 87.7 512zM51.5 336.5l-.1.1h-4.3v-65.1h69.4l-65 65zm70.9-1.5l-1.4-1.4 46.1-46.1 49.1 49.1h-92.5c-.4-.5-.8-1.1-1.3-1.6zM325.7 83.5l102.7 102.7-150.3 150.5h-41.2c-.3-.6-64.6-65-64.6-65-2.9-2.9-7.7-2.9-10.6 0L105 328.3c-2.3 2.3-2.8 5.6-1.6 8.3H87.7c-5.7 0-11.3.6-16.7 1.6L325.7 83.5zM15 15h145.3v212.6l-28.9 28.9c-.4-.1-.8-.1-1.2-.1H39.6c-4.2 0-7.5 3.4-7.5 7.5v80.2c0 3.9 2.9 7 6.7 7.5-9.3 6.3-17.4 14.3-23.7 23.7V15z"/><path d="M384.8 376.2v96.2c0 4.2 3.4 7.5 7.5 7.5h80.2c4.2 0 7.5-3.4 7.5-7.5v-96.2c0-4.1-3.4-7.5-7.5-7.5h-80.2c-4.2 0-7.5 3.4-7.5 7.5zm15 7.6h65.1V465h-65.1v-81.2zM280 368.7c-4.1 0-7.5 3.4-7.5 7.5v96.2c0 4.2 3.4 7.5 7.5 7.5h80.2c4.2 0 7.5-3.4 7.5-7.5v-96.2c0-4.1-3.4-7.5-7.5-7.5H280zm72.7 96.2h-65.1v-81.2h65.1v81.2zm-184.9-96.2c-4.2 0-7.5 3.4-7.5 7.5v96.2c0 4.2 3.4 7.5 7.5 7.5H248c4.1 0 7.5-3.4 7.5-7.5v-96.2c0-4.1-3.4-7.5-7.5-7.5h-80.2zm72.7 96.2h-65.1v-81.2h65.1v81.2zM48.1 424.3c0 21.8 17.8 39.6 39.6 39.6s39.6-17.8 39.6-39.6-17.8-39.6-39.6-39.6c-21.9.1-39.6 17.8-39.6 39.6zm64.1 0c0 13.5-11 24.5-24.5 24.5s-24.5-11-24.5-24.5 11-24.5 24.5-24.5 24.5 11 24.5 24.5z"/></symbol></svg>