<?xml version="1.0" encoding="utf-8"?>
<!-- Generator: Adobe Illustrator 22.1.0, SVG Export Plug-In . SVG Version: 6.00 Build 0)  -->
<svg version="1.1" id="Layer_1" xmlns="http://www.w3.org/2000/svg" xmlns:xlink="http://www.w3.org/1999/xlink" x="0px" y="0px"
	 viewBox="0 0 270.3887939 98.1311722" style="enable-background:new 0 0 270.3887939 98.1311722;" xml:space="preserve">
<style type="text/css">
	.st0{fill:#FFFFFF;}
</style>
<path class="st0" d="M175.0925598,51.8371124c0.1938934,1.1611977,0.2900848,2.0780983,0.5033875,2.9667969
	c2.0269012,8.4434013,8.5541992,14.0498047,17.2368927,14.7149048c7.5781097,0.5799942,13.5537109-2.3487015,17.9638062-8.5010033
	c2.1791992-3.0401001,5.6972961-3.4931984,8.5370941-1.0556984c1.6289063,1.3984985,1.8213043,3.2089996,0.5220032,4.944397
	c-0.6898956,0.9217987-1.4033051,1.8261032-2.0741882,2.7617035c-2.8779144,4.0136948-6.7148132,6.669899-11.3599091,8.2968979
	c-7.5599976,2.6483994-15.2133026,2.9785004-22.7167969,0.2490005
	c-10.1079102-3.677803-16.1284027-11.0654984-17.8408051-21.7139015
	c-1.0487976-6.5214996-0.4409027-12.9506989,2.6327972-18.9052963c4.3227997-8.3719997,11.1079102-13.5986004,20.5034027-15.0576
	c6.2436981-0.9697018,12.4024048-0.3721027,18.156311,2.3691998c8.2113953,3.9120998,13.1991882,10.4916992,15.1264954,19.3402977
	c0.5223999,2.3969994,0.6903992,4.8764992,0.9349976,7.3266983c0.1523895,1.5273018-0.543396,2.2314034-2.0874023,2.2919006
	c-0.710907,0.0284004-1.4248047-0.0262985-2.1376953-0.027298c-13.983902-0.0020027-27.967804-0.0009995-41.9511108-0.0009995
	C176.5007477,51.8371124,175.9592438,51.8371124,175.0925598,51.8371124z M213.4045563,42.6467094
	c-1.1904144-7.8505974-10.6943054-14.7201958-19.444809-14.2299957c-9.058609,0.5077991-18.2191925,7.4843979-18.5420074,14.2299957
	C188.0461426,42.6467094,200.6692505,42.6467094,213.4045563,42.6467094z"/>
<path class="st0" d="M112.429451,51.6438103c0.1211014,0.8388023,0.1875,1.4188995,0.2895966,1.9930992
	c1.6542969,9.2725029,9.2715073,15.7481003,18.6753006,15.8593979c7.1162109,0.0850067,12.6943054-2.844696,16.7846985-8.6425972
	c2.1914063-3.107399,6.1000977-3.4453011,8.7910004-0.7479973c1.3480988,1.3514977,1.4653015,3.0165977,0.3125153,4.5936966
	c-0.5498199,0.7519989-1.1426086,1.4737015-1.6719208,2.2393036c-3.1059875,4.4971008-7.3036957,7.4481964-12.4911957,9.1445007
	c-7.5541992,2.4687958-15.153801,2.7266006-22.5439987-0.1631012
	c-10.5365982-4.1191025-16.3753967-12.0722008-17.5970993-23.3379021c-0.5824966-5.375-0.0541992-10.6688995,2.1909027-15.6092987
	c4.2748947-9.4068012,11.4335938-15.1958008,21.8324966-16.6025982c5.5233994-0.7469997,10.982399-0.3188,16.1444931,1.8311005
	c9.2017059,3.8330002,14.6446075,10.8534985,16.6255035,20.5551968c0.4468079,2.1879005,0.5659027,4.4505997,0.722702,6.6879005
	c0.1278992,1.8242989-0.3096008,2.2178001-2.1846008,2.2226982c-3.3437042,0.0078011-6.6875-0.0205002-10.0316925-0.0224991
	c-11.1826019-0.0028992-22.3657074-0.0009003-33.5488052-0.0009003
	C114.0325546,51.6438103,113.3357468,51.6438103,112.429451,51.6438103z M150.7512512,42.4602127
	c-1.2470093-7.7901001-10.4179077-14.4296989-19.3628082-14.1913986c-8.7523956,0.2334003-17.918396,7.1660004-18.646492,14.1913986
	C125.3796463,42.4602127,138.0085602,42.4602127,150.7512512,42.4602127z"/>
<path class="st0" d="M251.7683411,56.0393105c0.6651001,0.6171989,1.0772095,1.0273018,1.5176086,1.4033012
	c4.8808899,4.1641006,9.7655945,8.3241959,14.648407,12.4852982c0.3339844,0.2842026,0.6786804,0.5577011,0.9931946,0.8633041
	c1.8143921,1.7646942,1.9530945,4.3788986,0.3378906,6.2148972c-1.5606079,1.7733994-4.1532898,2.0547028-6.0635071,0.4842987
	c-3.3876953-2.7861023-6.6972961-5.6669006-10.0370941-8.5116959c-4.7597961-4.0527039-9.5155945-8.1093025-14.2763977-12.1621017
	c-0.4403992-0.375-0.8983917-0.7324028-1.6483917-1.3418007c-0.0322113,1.0059013-0.0703125,1.6338005-0.0703125,2.2616997
	c-0.003891,11.5166016-0.0019989,23.0323029-0.0028992,34.5488968c0,0.5488052,0.0175018,1.0986023-0.0205994,1.6445007
	c-0.1747894,2.5078049-2.1210938,4.285202-4.5751953,4.198204c-2.4033051-0.0848999-4.1376038-1.8711014-4.2225952-4.3602982
	c-0.0195007-0.547905-0.0058899-1.0967026-0.0058899-1.6445007c-0.0009155-22.7041016,0-45.4082031-0.0009155-68.1119003
	c0-0.7128983-0.006897-1.4256973-0.0126953-2.1385975c-0.0118103-1.5889034,0.2157898-1.8824005,1.7265015-1.9242992
	c2.0821075-0.0577011,4.1651001-0.0669003,6.2481079-0.0718002c5.0448914-0.0108013,10.0995789,0.2015991,15.1298828-0.0562
	c8.4140015-0.4311008,17.8388062,6.4238987,18.7304077,16.2841988c0.8075867,8.926796-5.2187195,17.309597-14.2695007,19.089798
	C254.6296387,55.4426117,253.3689423,55.7111092,251.7683411,56.0393105z M236.4978485,49.0695114
	c0.4971008,0.0586014,0.8710938,0.1415977,1.2460938,0.1415977c4.214798,0.0079002,8.4306946,0.0372009,12.6455078-0.0223999
	c1.191391-0.0175972,2.4286957-0.1454964,3.5585938-0.5009995c3.9228973-1.232399,6.9766083-3.5175972,7.9550934-7.7328987
	c1.6562195-7.1352959-3.577179-13.6567001-10.9130859-13.7079964c-4.3242035-0.0308037-8.6494141-0.0137043-12.9746094-0.0083046
	c-0.476593,0.0005035-0.9530945,0.0644035-1.5175934,0.1055031
	C236.4978485,34.5988121,236.4978485,41.7468109,236.4978485,49.0695114z"/>
<path class="st0" d="M88.480751,51.966011c-8.345192,0-16.385704,0-24.5908012,0
	c-0.0326996,0.7216988-0.0858994,1.3623009-0.0863953,2.0029984c-0.0064049,6.3045998,0.0038948,12.6092987-0.0142059,18.913002
	c-0.0023994,0.7597961-0.0228996,1.5567017-0.2445984,2.2705994c-0.5816002,1.875-2.5718002,3.1445007-4.4517021,2.9608994
	c-2.1303978-0.2070007-3.7998009-1.7802963-4.0790977-3.8788986c-0.0648994-0.4853973-0.0459023-0.9843979-0.0459023-1.4776001
	c-0.0018997-22.4765015-0.0057983-44.953598,0.0137024-67.4300995c0.0004997-0.8614035,0.0830002-1.773,0.3705978-2.5738034
	c0.6903992-1.9232965,2.6796989-2.9926,4.75-2.7075c1.8936005,0.2608,3.4696999,1.9198999,3.6572075,3.8906035
	c0.056694,0.5987,0.0385933,1.2051001,0.0385933,1.8076963c0.0019989,11.5673037,0,23.1347046,0.0054054,34.7020988
	c0.0004959,0.6987,0.0570946,1.3974991,0.0853958,2.0498009c1.4662971,0.3814011,22.8759956,0.4019012,24.5024986,0.0248985
	c0.0282974-0.5419998,0.0843964-1.1273994,0.0853958-1.7137985c0.0068054-5.0981979,0.0034027-10.1968002,0.0049057-15.2950001
	c0-0.4930973-0.017601-0.9886971,0.0199966-1.4794979c0.1718979-2.2635994,1.9400024-3.9692001,4.194809-4.0664024
	c2.2983932-0.0995979,4.2660904,1.5537033,4.5624924,3.8599033c0.0625076,0.4862957,0.0454025,0.9848995,0.0454025,1.4779987
	c0.0019989,15.7885971,0.0019989,31.577198,0,47.3661995c0,0.4921951,0.0165939,0.9902954-0.038002,1.4776001
	c-0.2578964,2.2938995-2.256897,4.0625-4.4830017,3.9901962c-2.2923965-0.0731964-4.1292953-1.8622971-4.2835999-4.1865005
	c-0.0322952-0.4911957-0.0180969-0.9862976-0.0180969-1.4794998c-0.0009995-6.1396942-0.0009995-12.2802963-0.0009995-18.419899
	C88.480751,53.4065094,88.480751,52.7610092,88.480751,51.966011z"/>
<path class="st0" d="M24.9583492,78.3488083c-5.8779984-0.1102982-11.4164991-1.3866959-16.4829979-4.4375
	c-2.1752-1.309494-4.1689-2.8612976-5.7719002-4.8377991c-0.8223001-1.0136948-1.5713-2.1202011-2.1592-3.2832947
	c-0.9701999-1.9179039-0.6353-3.4433022,0.9409-4.8886032c1.7466-1.6016006,4.1322999-2.3203011,6.4442997-0.6826019
	c1.1031055,0.7812004,2.0566998,1.788002,3.0123005,2.7578011c0.8822994,0.8955002,1.6328049,1.9209023,2.5174999,2.8144035
	c2.6928988,2.7197952,6.019599,4.1679993,9.7832003,4.5683975c3.5121994,0.3730011,7.0317993,0.3241959,10.3886986-0.9317017
	c1.4174995-0.5301971,2.8384056-1.2265015,4.0357018-2.1385956c2.8867035-2.1983032,2.9945984-5.850605,0.1913986-8.1807022
	c-1.3208008-1.0976028-2.9306946-1.9258003-4.5259018-2.6006012c-3.987299-1.6875-8.1264973-2.9258003-12.3373985-3.9637985
	c-3.3959999-0.8370018-6.7465992-1.875-10.083499-2.9317017c-1.2945004-0.4091988-2.5191002-1.0663986-3.7354002-1.6903992
	c-3.2264948-1.6553001-4.9559999-4.3676987-5.4764948-7.9131012c-1.042505-7.1029968,1.6708949-12.7504959,8.1088943-15.9228992
	c9.8109999-4.8338966,19.7041054-5.1655006,29.4145012,0.3555031c1.8354988,1.0440006,3.4794998,2.4662991,5.0830002,3.862299
	c1.2056046,1.0493011,1.9971008,2.4590015,2.4678001,4.0181007c0.783699,2.5942001-0.5298004,3.9330978-2.7826996,4.4325981
	c-2.0024948,0.4439011-3.7979012-0.1699028-5.1963005-1.7411995c-0.2549019-0.286602-0.5033989-0.5820007-0.7206993-0.8969994
	c-2.3364029-3.3896027-5.5791016-5.3094997-9.5987015-6.0536995c-4.0267944-0.7460995-7.987299-0.5571003-11.8071003,0.9081974
	c-1.4052992,0.5391026-2.7841988,1.346199-3.9305992,2.3192997c-2.6992998,2.2906036-2.6796999,5.4239006-0.1035995,7.8414001
	c1.6821995,1.5786018,3.7455997,2.4808998,5.9365997,3.0438995c4.8211994,1.2392998,9.6665001,2.3838005,14.4946003,3.596199
	c3.0913048,0.7754021,6.0903053,1.8389015,8.8900986,3.3642998c3.5591011,1.9394035,6.230999,4.6757011,7.094799,8.7910004
	c1.0545998,5.0254021,0.0268021,9.4160004-3.9067993,13.0078049c-4.4067001,4.0233994-9.5415001,6.3368988-15.4403992,7.0057983
	C28.1262493,78.1194077,26.54035,78.2151108,24.9583492,78.3488083z"/>
</svg>
