<?xml version="1.0" encoding="utf-8"?>
<!-- Generator: Adobe Illustrator 22.0.1, SVG Export Plug-In . SVG Version: 6.00 Build 0)  -->
<svg version="1.1" id="Capa_1" xmlns="http://www.w3.org/2000/svg" xmlns:xlink="http://www.w3.org/1999/xlink" x="0px" y="0px"
	 viewBox="0 0 59 64" style="enable-background:new 0 0 59 64;" xml:space="preserve">
<style type="text/css">
	.st0{fill:url(#SVGID_1_);}
</style>
<linearGradient id="SVGID_1_" gradientUnits="userSpaceOnUse" x1="29.5" y1="0" x2="29.5" y2="64.0106">
	<stop  offset="0" style="stop-color:#1FAF79"/>
	<stop  offset="1" style="stop-color:#057BB2"/>
</linearGradient>
<path class="st0" d="M8.9,40.1H7c-3.8,0-7,3.1-7,7v16C0,63.6,0.4,64,0.9,64s0.9-0.4,0.9-0.9V47C1.9,44.2,4.2,42,7,42h1.9
	c0.5,0,0.9-0.4,0.9-0.9C9.8,40.5,9.4,40.1,8.9,40.1z M25,55.1c0.5,0,0.9,0.4,0.9,0.9S25.5,57,25,57s-0.9-0.4-0.9-0.9
	S24.5,55.1,25,55.1z M25,59.1c0.5,0,0.9,0.4,0.9,0.9s-0.4,0.9-0.9,0.9s-0.9-0.4-0.9-0.9S24.5,59.1,25,59.1z M43,18.6V11
	c0-6-4.9-11-11-11H4.9C4.2,0,3.7,0.9,4.2,1.5L7,5.3v13.3c-1.2,0.7-2,2-2,3.4c0,2.2,1.8,3.9,3.9,3.9c0.4,0,0.7-0.1,1.1-0.2
	C10.5,33.7,17,40,25,40c8,0,14.5-6.3,14.9-14.2c0.4,0.1,0.7,0.2,1.1,0.2c2.2,0,3.9-1.8,3.9-3.9C45,20.5,44.2,19.2,43,18.6z M10,23.8
	c-0.3,0.2-0.7,0.3-1.1,0.3c-1.1,0-2.1-0.9-2.1-2.1c0-1.1,0.9-2.1,2.1-2.1c0.4,0,0.7,0.1,1.1,0.3V23.8z M38.1,25
	c0,7.2-5.9,13.1-13.1,13.1c-7.2,0-13.1-5.9-13.1-13.1v-6.1H13V24c0,1.1,0.9,1.9,1.9,1.9h5c2.2,0,3.9-1.8,3.9-3.9v-0.1h2.1V22
	c0,2.2,1.8,3.9,3.9,3.9h5c1.1,0,1.9-0.9,1.9-1.9v-5.1h1.1V25z M12.4,17l2.2-5.1h20.8l2.2,5.1H12.4z M35.1,18.9V24c0,0,0,0.1-0.1,0.1
	h-5c-1.1,0-2.1-0.9-2.1-2.1v-3.1H35.1z M26.1,18.9V20h-2.1v-1.1H26.1z M22,18.9V22c0,1.1-0.9,2.1-2.1,2.1h-5c0,0-0.1,0-0.1-0.1v-5.1
	H22z M39.9,17.6l-3-7C36.7,10.2,36.4,10,36,10H14c-0.4,0-0.7,0.2-0.9,0.6l-3,7c0,0.1-0.1,0.2-0.1,0.4v0.2C9.7,18.1,9.3,18,9,18
	c0,0,0,0-0.1,0V4.9c0-0.2-0.1-0.4-0.2-0.6L6.8,1.9H32c5,0,9.1,4.1,9.1,9.1V18c0,0,0,0-0.1,0c-0.4,0-0.7,0-1.1,0.1V18
	C40,17.8,39.9,17.7,39.9,17.6z M41,24.1c-0.3,0-0.7-0.1-1-0.3c0,0,0,0-0.1,0v-3.6c0,0,0.1,0,0.1-0.1c0.3-0.1,0.6-0.2,0.9-0.2
	c1.1,0,2.1,0.9,2.1,2.1C43.1,23.1,42.2,24.1,41,24.1z M29,28.1h-8c-0.5,0-0.9,0.4-0.9,0.9c0,2.7,2.2,4.9,4.9,4.9s4.9-2.2,4.9-4.9
	C29.9,28.5,29.5,28.1,29,28.1z M25,32.1c-1.4,0-2.5-0.9-2.9-2.1h5.8C27.5,31.2,26.4,32.1,25,32.1z M18.9,21c0.5,0,0.9,0.4,0.9,0.9
	s-0.4,0.9-0.9,0.9S18,22.4,18,21.9S18.4,21,18.9,21z M31.1,21c0.5,0,0.9,0.4,0.9,0.9s-0.4,0.9-0.9,0.9s-0.9-0.4-0.9-0.9
	S30.5,21,31.1,21z M56,48.2V44c0-0.2-0.1-0.5-0.3-0.7l-2-2c-0.2-0.2-0.4-0.3-0.7-0.3H53v-6.3c1.7-0.4,3-2,3-3.8
	c0-2.2-1.8-3.9-3.9-3.9c-2.2,0-3.9,1.8-3.9,3.9c0,1.9,1.3,3.4,3,3.8v6.3H51c-0.2,0-0.5,0.1-0.7,0.3l-2,2c-1.9-1.9-4.4-3.1-7.2-3.2
	c-0.1,0-0.1,0-0.2,0H13.5c-0.5,0-0.9,0.4-0.9,0.9S13,42,13.5,42h3l7.7,10.6c0.4,0.5,1.2,0.5,1.5,0L33.5,42h7.4c0,0,0.1,0,0.1,0
	c2.7,0.1,5.1,1.4,6.8,3.5c0.1,0.1,0.2,0.2,0.3,0.3v2.5c-1.2,0.4-2,1.5-2,2.8v10c0,1.6,1.3,2.9,2.9,2.9h6c2.2,0,3.9-1.8,3.9-3.9v-8
	C59,50.2,57.7,48.6,56,48.2z M25,50.5L18.8,42h12.3L25,50.5z M50,31c0-1.1,0.9-2.1,2.1-2.1c1.1,0,2.1,0.9,2.1,2.1
	c0,1.1-0.9,2.1-2.1,2.1C50.9,33.1,50,32.1,50,31z M50,44.4l1.5-1.5h1.2l1.5,1.5v3.7H50V44.4z M57.1,60.1c0,1.1-0.9,2.1-2.1,2.1h-6
	c-0.6,0-1.1-0.5-1.1-1.1V60H51c0.5,0,0.9-0.4,0.9-0.9c0-0.5-0.4-0.9-0.9-0.9H48V57c0,0,0,0,0.1,0h3c0.5,0,0.9-0.4,0.9-0.9
	s-0.4-0.9-0.9-0.9h-3c0,0,0,0-0.1,0V54H51c0.5,0,0.9-0.4,0.9-0.9c0-0.5-0.4-0.9-0.9-0.9H48V51c0-0.6,0.5-1.1,1.1-1.1h6
	c1.1,0,2.1,0.9,2.1,2.1V60.1z"/>
</svg>
