<?xml version="1.0" encoding="utf-8"?>
<!-- Generator: Adobe Illustrator 22.0.1, SVG Export Plug-In . SVG Version: 6.00 Build 0)  -->
<svg version="1.1" id="Layer_1" xmlns="http://www.w3.org/2000/svg" xmlns:xlink="http://www.w3.org/1999/xlink" x="0px" y="0px"
	 viewBox="0 0 33 43.9" style="enable-background:new 0 0 33 43.9;" xml:space="preserve">
<style type="text/css">
	.st0{fill:url(#SVGID_1_);}
</style>
<linearGradient id="SVGID_1_" gradientUnits="userSpaceOnUse" x1="16.5" y1="0" x2="16.5" y2="43.8822">
	<stop  offset="0" style="stop-color:#1FAF79"/>
	<stop  offset="1" style="stop-color:#057BB2"/>
</linearGradient>
<path class="st0" d="M25.4,18.6H9.5c-0.4,0-0.6,0.3-0.6,0.6c0,0.4,0.3,0.6,0.6,0.6h15.9c0.4,0,0.6-0.3,0.6-0.6
	C26,18.9,25.7,18.6,25.4,18.6z M25.4,14.6H9.5c-0.4,0-0.6,0.3-0.6,0.6c0,0.4,0.3,0.6,0.6,0.6h15.9c0.4,0,0.6-0.3,0.6-0.6
	C26,14.9,25.7,14.6,25.4,14.6z M32.4,23.2c0.4,0,0.6-0.3,0.6-0.6V11.8c0-0.2,0-0.4,0-0.6c0,0,0,0,0,0c0,0,0,0,0,0
	c0-1.5-0.2-2.2-1.6-3.6l-1-1.1v-4C30.4,1.1,29.3,0,28,0H2.5C1.1,0,0,1.1,0,2.5v15.9C0,18.7,0.3,19,0.6,19c0.4,0,0.6-0.3,0.6-0.6V2.5
	c0-0.6,0.5-1.2,1.2-1.2H28c0.6,0,1.2,0.5,1.2,1.2V5c-0.1-0.1-0.2-0.2-0.3-0.3c-1-1.1-1.4-1.4-3.1-1.4H6.1c-1.3,0-2.4,1.1-2.4,2.4
	v29.8H2.5c-0.6,0-1.2-0.5-1.2-1.2v-13c0-0.4-0.3-0.6-0.6-0.6C0.3,20.7,0,21,0,21.3v13c0,1.4,1.1,2.5,2.5,2.5h1.2
	c0.2,1.1,1.2,2,2.4,2h6.6l2.8,3.6c0,0,0,0,0,0c0.8,0.9,1.8,1.5,2.9,1.5c0,0,0.1,0,0.1,0c1.1,0,2.1-0.6,2.7-1.5l2.8-3.6h6.6
	c1.3,0,2.4-1.1,2.4-2.4V25.8c0-0.4-0.3-0.6-0.6-0.6c-0.4,0-0.6,0.3-0.6,0.6v10.6c0,0.6-0.5,1.1-1.1,1.1H25l0.4-0.5
	c0.9-1.1,1.1-2.4,0.7-3.5c-0.3-0.6-1-1.5-2.9-1.6c0,0,0,0,0,0h-0.6v-5.7c0-0.8-0.7-1.5-1.6-1.5h-5.3c-0.9,0-1.6,0.7-1.6,1.5v5.7
	h-0.6c0,0,0,0,0,0c-1.9,0.1-2.7,1.1-2.9,1.6c-0.5,1-0.2,2.3,0.7,3.5l0.4,0.5H6.1C5.5,37.5,5,37,5,36.4v-0.3c0,0,0,0,0,0c0,0,0,0,0,0
	V5.6C5,5,5.5,4.5,6.1,4.5h19l0,4.9c0,1.3,1.1,2.4,2.4,2.4h4.2v10.8C31.7,22.9,32,23.2,32.4,23.2z M12.3,36.2
	c-0.6-0.7-0.8-1.6-0.5-2.1c0.3-0.6,1.1-0.8,1.8-0.9h1.2c0.4,0,0.6-0.3,0.6-0.6v-6.3c0-0.1,0.1-0.2,0.3-0.2H21c0.2,0,0.3,0.1,0.3,0.2
	v6.3c0,0.4,0.3,0.6,0.6,0.6h1.2c0.7,0,1.5,0.2,1.8,0.9c0.3,0.6,0.1,1.4-0.5,2.1l-1,1.3l-1,1.3l-2.2,2.8c0,0,0,0,0,0
	c-0.4,0.6-1,0.9-1.7,1c-0.7,0-1.5-0.3-2-1l-2.2-2.8l-1-1.3L12.3,36.2z M26.4,9.4l0-4.9c0.6,0.1,0.8,0.3,1.5,1
	c0.1,0.1,0.2,0.3,0.4,0.4l2.3,2.5c0.9,0.9,1.1,1.3,1.2,2.1h-4.2C26.9,10.5,26.4,10,26.4,9.4z M9.5,11.9h10.1c0.4,0,0.6-0.3,0.6-0.6
	s-0.3-0.6-0.6-0.6H9.5c-0.4,0-0.6,0.3-0.6,0.6C8.9,11.6,9.2,11.9,9.5,11.9z"/>
</svg>
