<?xml version="1.0" encoding="utf-8"?>
<!-- Generator: Adobe Illustrator 22.0.1, SVG Export Plug-In . SVG Version: 6.00 Build 0)  -->
<svg version="1.1" id="Capa_1" xmlns="http://www.w3.org/2000/svg" xmlns:xlink="http://www.w3.org/1999/xlink" x="0px" y="0px"
	 viewBox="0 0 59 62.9" style="enable-background:new 0 0 59 62.9;" xml:space="preserve">
<style type="text/css">
	.st0{fill:url(#SVGID_1_);}
</style>
<linearGradient id="SVGID_1_" gradientUnits="userSpaceOnUse" x1="29.5" y1="0" x2="29.5" y2="62.8758">
	<stop  offset="0" style="stop-color:#1FAF79"/>
	<stop  offset="1" style="stop-color:#057BB2"/>
</linearGradient>
<path class="st0" d="M58.3,14.8l-7.2-1.5c-0.1-3.6-1.7-6.9-4.5-9.3C43.7,1.4,39.7,0,35.4,0c-3.6,0-7.1,1.6-9.8,4.5
	C22.9,1.6,19.3,0,15.7,0C11.3,0,7.3,1.4,4.4,4C1.6,6.5,0,10,0,13.7c0,8.8,3.2,12.4,5.5,15C7.4,30.9,8.3,32,7,35
	c-4,8.8-1.7,20.6,1.4,25.4c1.1,1.7,2.2,2.5,3.4,2.5c2.2,0,3-3.2,4.1-7.6c0.8-3.2,1.7-6.7,3.3-9.5c1.7-3,3.8-4.5,6.4-4.5
	s4.7,1.5,6.4,4.5c1.5,2.8,2.4,6.4,3.3,9.5c1.1,4.4,1.9,7.6,4.1,7.6c2.4,0,4.1-3.4,4.9-5.5c1.2-3.2,2-7.2,2.1-11.1
	c3.9-2,12.8-7.7,12.8-14.9V15.7C59,15.3,58.7,14.9,58.3,14.8z M51.3,40.8c-2.8,2.3-5.8,3.9-7,4.4c-1.2-0.5-4.2-2.1-7-4.4
	c-2.7-2.2-5.9-5.6-5.9-9.4V24c0-0.5-0.4-0.9-0.9-0.9c-0.5,0-0.9,0.4-0.9,0.9v7.4c0,8.5,12.5,15,14.4,15.6c0.1,0,0.2,0.1,0.3,0.1
	c0,0,0,0,0.1,0c-0.1,3.4-0.8,6.8-1.9,9.6C41.3,59.7,40,61,39.3,61c0,0-0.4,0-1-1.4c-0.5-1.2-0.9-2.9-1.4-4.8
	c-1.7-6.5-4-15.5-11.4-15.5s-9.8,8.9-11.4,15.5c-0.5,1.8-0.9,3.6-1.4,4.8c-0.6,1.4-1,1.4-1,1.4c-0.4,0-1-0.4-1.8-1.7
	C8.4,57,7.2,53.1,6.8,49C6.4,44.1,7,39.4,8.7,35.8c1.9-4.1,0.2-6-1.8-8.2c-2.2-2.5-5-5.7-5-13.8c0-6.9,5.8-11.9,13.8-11.9
	c3.1,0,6.3,1.5,8.7,4c0,0.1-0.1,0.1-0.1,0.2c-1.6,2.3-2.6,3.8-6.6,3.8c-0.5,0-0.9,0.4-0.9,0.9s0.4,0.9,0.9,0.9
	c4.9,0,6.4-2.1,8.1-4.6c0.1-0.2,0.3-0.4,0.4-0.6c0,0,0.1-0.1,0.1-0.1c2.4-2.9,5.7-4.6,9.1-4.6c7.6,0,13.3,4.6,13.8,11l-4.7-1
	c-0.1,0-0.3,0-0.4,0l-13.8,3c-0.4,0.1-0.7,0.5-0.7,0.9v4c0,0.5,0.4,0.9,0.9,0.9s0.9-0.4,0.9-0.9v-3.3l12.9-2.8l12.9,2.8v15h0
	C57.2,35.2,54,38.6,51.3,40.8z M54.3,18l-9.8-2.1c-0.1,0-0.3,0-0.4,0L34.3,18c-0.4,0.1-0.7,0.5-0.7,0.9v12.6c0,2.3,1.7,5,5,7.7
	c2.1,1.7,4.2,2.9,5.3,3.5c0.3,0.1,0.6,0.1,0.9,0c1.1-0.6,3.2-1.8,5.3-3.5c3.3-2.7,5-5.4,5-7.7V18.9C55.1,18.4,54.8,18.1,54.3,18z
	 M53.2,31.4c0,1.7-1.6,4-4.4,6.3c-1.7,1.4-3.5,2.5-4.6,3.1c-1.1-0.6-2.8-1.7-4.6-3.1c-2.8-2.3-4.4-4.6-4.4-6.3V19.6l8.9-1.9l8.9,1.9
	V31.4z M51.3,25.1l-3-2.6c-0.4-0.3-1-0.3-1.3,0.1l-3.9,4.5l-1.7-1.7c-0.4-0.4-0.9-0.4-1.3,0l-2.8,2.8c-0.4,0.4-0.4,0.9,0,1.3
	l3.9,3.9c1.2,1.2,3.2,1.1,4.2-0.2l5.9-6.9C51.7,26,51.7,25.5,51.3,25.1z M44.1,32.1c-0.4,0.4-1.1,0.5-1.5,0.1l-3.3-3.3l1.5-1.5
	l1.8,1.8c0.4,0.4,1,0.4,1.4-0.1l3.9-4.6l1.6,1.4L44.1,32.1z"/>
</svg>
