<?xml version="1.0" encoding="utf-8"?>
<!-- Generator: Adobe Illustrator 22.0.1, SVG Export Plug-In . SVG Version: 6.00 Build 0)  -->
<svg version="1.1" id="Capa_1" xmlns="http://www.w3.org/2000/svg" xmlns:xlink="http://www.w3.org/1999/xlink" x="0px" y="0px"
	 viewBox="0 0 45 35.2" style="enable-background:new 0 0 45 35.2;" xml:space="preserve">
<style type="text/css">
	.st0{fill:url(#SVGID_1_);}
</style>
<linearGradient id="SVGID_1_" gradientUnits="userSpaceOnUse" x1="22.5" y1="9.094947e-13" x2="22.5" y2="35.2165">
	<stop  offset="0" style="stop-color:#1FAF79"/>
	<stop  offset="1" style="stop-color:#057BB2"/>
</linearGradient>
<path class="st0" d="M44.1,21.6c-0.6-0.3-1.3-0.2-1.9,0.2l-12.5,7.8c-0.3,0.2-0.5,0.7-0.2,1c0.2,0.3,0.7,0.5,1,0.2L43,23
	c0.3-0.2,0.4-0.2,0.4-0.1c0,0,0.1,0.1,0.1,0.4c0,0.8-0.6,2-1.3,2.4l-12.1,7.6c-0.6,0.4-1.2,0.5-1.6,0.3c-0.4-0.2-0.6-0.8-0.6-1.5
	c0-1.9,1.4-4.4,3-5.4L44.7,18c0.2-0.1,0.3-0.4,0.3-0.6c0-0.3-0.1-0.5-0.3-0.6L18.2,0.1C18,0,17.7,0,17.4,0.1L3.5,8.9
	c-2,1.2-3.5,4.1-3.5,6.4v0.4C0,18,1.5,20.8,3.5,22l20.7,13c0.3,0.2,0.8,0.1,1-0.2c0.2-0.3,0.1-0.8-0.2-1l-20.7-13
	c-1.5-1-2.8-3.3-2.8-5.1v-0.4c0-1.8,1.3-4.2,2.8-5.1l13.5-8.5l25,15.8l-12.8,8c-2.1,1.3-3.7,4.2-3.7,6.7c0,1.3,0.5,2.3,1.4,2.8
	c0.4,0.2,0.7,0.3,1.2,0.3c0.6,0,1.3-0.2,2-0.6L43,27c1.1-0.7,2-2.3,2-3.7C45,22.5,44.7,21.9,44.1,21.6z M35,18.1
	c0.2,0,0.5-0.1,0.6-0.3c0.2-0.3,0.1-0.8-0.2-1L18.2,6c-0.3-0.2-0.8-0.1-1,0.2c-0.2,0.3-0.1,0.8,0.2,1L34.6,18
	C34.7,18.1,34.8,18.1,35,18.1z M32,20.1c0.2,0,0.5-0.1,0.6-0.3c0.2-0.3,0.1-0.8-0.2-1l-7.2-4.5c-0.3-0.2-0.8-0.1-1,0.2
	c-0.2,0.3-0.1,0.8,0.2,1l7.2,4.5C31.7,20.1,31.9,20.1,32,20.1z M22.1,16.1c-0.3-0.2-0.8-0.1-1,0.2c-0.2,0.3-0.1,0.8,0.2,1l7.3,4.6
	c0.1,0.1,0.3,0.1,0.4,0.1c0.2,0,0.5-0.1,0.6-0.3c0.2-0.3,0.1-0.8-0.2-1L22.1,16.1z M14.4,7.9l-6.2,3.9c-0.2,0.1-0.3,0.4-0.3,0.6
	c0,0.3,0.1,0.5,0.4,0.6l7.4,4.6c0.1,0.1,0.3,0.1,0.4,0.1c0.1,0,0.3,0,0.4-0.1l1.6-1.1c0.3-0.2,0.4-0.7,0.2-1c-0.2-0.3-0.7-0.4-1-0.2
	l-1.2,0.8L10,12.4l4.8-3l5.9,3.7l-0.7,0.4c-0.3,0.2-0.4,0.7-0.2,1c0.2,0.3,0.7,0.4,1,0.2l1.7-1.1c0.2-0.1,0.3-0.4,0.3-0.6
	c0-0.3-0.1-0.5-0.3-0.6l-7.2-4.5C14.9,7.7,14.6,7.7,14.4,7.9z M26.7,23.7c0.2-0.3,0.1-0.8-0.2-1l-7.4-4.6c-0.3-0.2-0.8-0.1-1,0.2
	c-0.2,0.3-0.1,0.8,0.2,1l7.4,4.6c0.1,0.1,0.3,0.1,0.4,0.1C26.3,24,26.6,23.9,26.7,23.7z M5.3,14.2c-0.2,0.3-0.1,0.8,0.2,1l18.1,11.3
	c0.1,0.1,0.3,0.1,0.4,0.1c0.2,0,0.5-0.1,0.6-0.4c0.2-0.3,0.1-0.8-0.2-1L6.3,13.9C6,13.7,5.5,13.8,5.3,14.2z"/>
</svg>
