<?xml version="1.0" encoding="utf-8"?>
<!-- Generator: Adobe Illustrator 22.0.1, SVG Export Plug-In . SVG Version: 6.00 Build 0)  -->
<svg version="1.1" id="Capa_1" xmlns="http://www.w3.org/2000/svg" xmlns:xlink="http://www.w3.org/1999/xlink" x="0px" y="0px"
	 viewBox="0 0 59 72.6" style="enable-background:new 0 0 59 72.6;" xml:space="preserve">
<style type="text/css">
	.st0{fill:url(#SVGID_1_);}
</style>
<linearGradient id="SVGID_1_" gradientUnits="userSpaceOnUse" x1="29.5" y1="0" x2="29.5" y2="72.6481">
	<stop  offset="0" style="stop-color:#1FAF79"/>
	<stop  offset="1" style="stop-color:#057BB2"/>
</linearGradient>
<path class="st0" d="M57.9,3.4H35.4C34.2,1.3,31.9,0,29.5,0c-2.4,0-4.7,1.3-5.9,3.4H1.1C0.5,3.4,0,3.9,0,4.5v67.1
	c0,0.6,0.5,1.1,1.1,1.1h56.9c0.6,0,1.1-0.5,1.1-1.1V4.5C59,3.9,58.5,3.4,57.9,3.4z M21.5,5.5H24c0.2,0,0.4,0,0.6,0
	c0.3-0.1,0.6-0.3,0.7-0.6c0.7-1.7,2.4-2.8,4.2-2.8c1.8,0,3.5,1.1,4.2,2.8c0.1,0.3,0.5,0.6,0.8,0.6c0.2,0,0.4,0,0.6,0h2.4v7H21.5V5.5
	z M56.9,70.5H2.1v-65h17.2v1.3H6.8c-0.6,0-1.1,0.5-1.1,1.1v14.8c0,0.6,0.5,1.1,1.1,1.1s1.1-0.5,1.1-1.1V9h11.5v4.6
	c0,0.6,0.5,1.1,1.1,1.1h18.2c0.6,0,1.1-0.5,1.1-1.1V9h11.5v50.2h-6.9c-0.6,0-1.1,0.5-1.1,1.1v6.9H7.8V27.7c0-0.6-0.5-1.1-1.1-1.1
	s-1.1,0.5-1.1,1.1v40.4c0,0.6,0.5,1.1,1.1,1.1h37.5c0.3,0,0.6-0.1,0.8-0.3l8-8c0.2-0.2,0.3-0.5,0.3-0.8V7.9c0-0.6-0.5-1.1-1.1-1.1
	l-12.6,0V5.5h17.2V70.5z M49.7,61.3l-4.3,4.3v-4.3H49.7z M39.7,59.1c0,0.6-0.5,1.1-1.1,1.1H20.4c-0.6,0-1.1-0.5-1.1-1.1
	s0.5-1.1,1.1-1.1h18.2C39.2,58,39.7,58.5,39.7,59.1z M26,63.6c0,0.6-0.5,1.1-1.1,1.1h-4.5c-0.6,0-1.1-0.5-1.1-1.1
	c0-0.6,0.5-1.1,1.1-1.1H25C25.5,62.6,26,63,26,63.6z M39.7,63.6c0,0.6-0.5,1.1-1.1,1.1h-9.1c-0.6,0-1.1-0.5-1.1-1.1
	c0-0.6,0.5-1.1,1.1-1.1h9.1C39.2,62.6,39.7,63,39.7,63.6z M29.5,4.5c-1.8,0-3.3,1.5-3.3,3.3s1.5,3.3,3.3,3.3c1.8,0,3.3-1.5,3.3-3.3
	C32.8,6,31.3,4.5,29.5,4.5z M29.5,9.1c-0.7,0-1.2-0.5-1.2-1.2c0-0.7,0.5-1.2,1.2-1.2c0.7,0,1.2,0.5,1.2,1.2
	C30.7,8.6,30.2,9.1,29.5,9.1z M41.7,34.8c1.3-1.5,3.4-3.8,3.4-9.2c0-2.4-1-4.5-2.8-6.1c-1.8-1.6-4.3-2.5-7-2.5
	c-2.1,0-4.2,0.9-5.8,2.4c-1.6-1.5-3.7-2.4-5.8-2.4c-2.7,0-5.2,0.9-7,2.5c-1.8,1.6-2.8,3.8-2.8,6.1c0,5.4,2,7.7,3.4,9.2
	c1.1,1.2,1.5,1.7,0.8,3.1c-1.4,3.1-1.4,6.4-1.2,8.6c0.3,2.7,1,5.3,2.1,6.9c0.7,1.1,1.6,1.7,2.4,1.7c1.3,0,1.9-1.4,2.1-1.9
	c0.3-0.8,0.6-1.8,0.9-3c1.1-4.3,2.3-7.9,5.2-7.9s4.1,3.6,5.2,7.9c0.3,1.2,0.6,2.2,0.9,3c0.2,0.5,0.7,1.9,2.1,1.9
	c0.9,0,1.7-0.6,2.4-1.7c1-1.6,1.8-4.2,2.1-6.9c0.2-2.2,0.2-5.5-1.2-8.6C40.3,36.5,40.6,36,41.7,34.8z M39,38.8
	c1.8,3.9,1.2,9.4-0.2,12.5c-0.4,0.9-0.8,1.4-1,1.6c-0.3-0.5-0.7-2-1-3.2c-0.5-2-1.1-4.2-2.1-6c-1.3-2.3-3-3.5-5.2-3.5
	c-2.2,0-3.9,1.2-5.2,3.5c-1,1.8-1.6,4-2.1,6c-0.3,1.1-0.7,2.6-1,3.2c-0.2-0.2-0.6-0.6-1-1.6c-1.4-3.1-2-8.6-0.2-12.5
	c1.2-2.7,0-4.1-1.1-5.4C17.6,32,16,30.2,16,25.6c0-3.8,3.2-6.5,7.6-6.5c1.6,0,3.2,0.7,4.4,1.9c-0.8,1.2-1.3,1.8-3.3,1.8
	c-0.6,0-1.1,0.5-1.1,1.1c0,0.6,0.5,1.1,1.1,1.1c3.2,0,4.2-1.5,5.2-2.9c0.1-0.1,0.1-0.2,0.2-0.3c0,0,0,0,0.1-0.1
	c1.3-1.6,3.1-2.5,5-2.5c4.4,0,7.6,2.7,7.6,6.5c0,4.6-1.6,6.4-2.8,7.8C39,34.7,37.7,36.1,39,38.8z"/>
</svg>
