<?xml version="1.0" encoding="utf-8"?>
<!-- Generator: Adobe Illustrator 22.0.1, SVG Export Plug-In . SVG Version: 6.00 Build 0)  -->
<svg version="1.1" id="Capa_1" xmlns="http://www.w3.org/2000/svg" xmlns:xlink="http://www.w3.org/1999/xlink" x="0px" y="0px"
	 viewBox="0 0 33 33" style="enable-background:new 0 0 33 33;" xml:space="preserve">
<style type="text/css">
	.st0{fill:url(#SVGID_1_);}
</style>
<linearGradient id="SVGID_1_" gradientUnits="userSpaceOnUse" x1="16.5" y1="-9.094947e-13" x2="16.5" y2="32.9994">
	<stop  offset="0" style="stop-color:#1FAF79"/>
	<stop  offset="1" style="stop-color:#057BB2"/>
</linearGradient>
<path class="st0" d="M8,4.6H6.8C7,3.3,7.7,3.2,8,3.2c0.3,0,0.6-0.3,0.6-0.6V0.6c0-0.2-0.1-0.3-0.2-0.5C8.3,0.1,8.1,0,7.9,0
	c-2,0.1-4.5,1.1-4.5,5.4v3.4c0,0.6,0.5,1,1,1H8c0.6,0,1-0.5,1-1V5.6C9,5.1,8.5,4.6,8,4.6z M7.7,8.5H4.8V5.4c0-3,1.3-3.8,2.6-4V2
	c-0.9,0.3-1.9,1-1.9,3.2c0,0.4,0.3,0.6,0.6,0.6h1.6C7.7,5.9,7.7,8.5,7.7,8.5z M14.6,4.6h-1.2c0.2-1.3,0.9-1.4,1.2-1.4
	c0.3,0,0.6-0.3,0.6-0.6V0.6c0-0.2-0.1-0.3-0.2-0.5S14.7,0,14.5,0c-2,0.1-4.5,1.1-4.5,5.4v3.4c0,0.6,0.5,1,1,1h3.5c0.6,0,1-0.5,1-1
	V5.6C15.6,5.1,15.1,4.6,14.6,4.6z M14.3,8.5h-2.9V5.4c0-3,1.3-3.8,2.6-4V2c-0.9,0.3-1.9,1-1.9,3.2c0,0.4,0.3,0.6,0.6,0.6h1.6
	L14.3,8.5L14.3,8.5z M18.4,5.2C18.3,5.1,18.1,5,17.9,5s-0.3,0.1-0.5,0.2c-0.1,0.1-0.2,0.3-0.2,0.5c0,0.2,0.1,0.3,0.2,0.5
	c0.1,0.1,0.3,0.2,0.5,0.2s0.3-0.1,0.5-0.2c0.1-0.1,0.2-0.3,0.2-0.5C18.6,5.5,18.5,5.3,18.4,5.2z M21.5,5h-0.8
	c-0.4,0-0.6,0.3-0.6,0.6s0.3,0.6,0.6,0.6h0.8c5.6,0,10.2,4.6,10.2,10.2c0,4.8-3.4,9-8.1,9.9c-0.3,0.1-0.5,0.3-0.5,0.6v3.7l-4-4
	c-0.1-0.1-0.3-0.2-0.5-0.2h-7.2c-5.6,0-10.2-4.6-10.2-10.2c0-1.7,0.4-3.4,1.3-4.9c0.2-0.3,0.1-0.7-0.2-0.9c-0.3-0.2-0.7-0.1-0.9,0.2
	C0.5,12.6,0,14.5,0,16.5c0,6.3,5.1,11.5,11.5,11.5h7l4.9,4.9c0.1,0.1,0.3,0.2,0.5,0.2c0.1,0,0.2,0,0.2,0c0.2-0.1,0.4-0.3,0.4-0.6
	v-4.8c2.3-0.6,4.4-1.9,6-3.8c1.7-2,2.6-4.6,2.6-7.3C33,10.2,27.9,5,21.5,5z M24.4,11.4H8.6c-0.4,0-0.6,0.3-0.6,0.6s0.3,0.6,0.6,0.6
	h15.9c0.4,0,0.6-0.3,0.6-0.6S24.8,11.4,24.4,11.4z M24.4,14.9H8.6c-0.4,0-0.6,0.3-0.6,0.6s0.3,0.6,0.6,0.6h15.9
	c0.4,0,0.6-0.3,0.6-0.6S24.8,14.9,24.4,14.9z M24.4,18.3H8.6c-0.4,0-0.6,0.3-0.6,0.6c0,0.4,0.3,0.6,0.6,0.6h15.9
	c0.4,0,0.6-0.3,0.6-0.6C25.1,18.6,24.8,18.3,24.4,18.3z M24.4,21.8H16c-0.4,0-0.6,0.3-0.6,0.6c0,0.4,0.3,0.6,0.6,0.6h8.5
	c0.4,0,0.6-0.3,0.6-0.6C25.1,22,24.8,21.8,24.4,21.8z M12.3,21.8L12.3,21.8c-0.4,0-0.7,0.3-0.7,0.6c0,0.4,0.3,0.6,0.6,0.6h0
	c0.4,0,0.6-0.3,0.6-0.6C13,22,12.7,21.8,12.3,21.8z"/>
</svg>
