<?xml version="1.0" encoding="utf-8"?>
<!-- Generator: Adobe Illustrator 22.0.1, SVG Export Plug-In . SVG Version: 6.00 Build 0)  -->
<svg version="1.1" id="Capa_1" xmlns="http://www.w3.org/2000/svg" xmlns:xlink="http://www.w3.org/1999/xlink" x="0px" y="0px"
	 viewBox="0 0 59 65.1" style="enable-background:new 0 0 59 65.1;" xml:space="preserve">
<style type="text/css">
	.st0{fill:url(#SVGID_1_);}
</style>
<g>
	<g>
		<linearGradient id="SVGID_1_" gradientUnits="userSpaceOnUse" x1="29.5" y1="0" x2="29.5" y2="65.1164">
			<stop  offset="0" style="stop-color:#1FAF79"/>
			<stop  offset="1" style="stop-color:#057BB2"/>
		</linearGradient>
		<path class="st0" d="M59,16l-2-9.2c-0.2-0.7-1-1-1.6-0.5L52,9.3C49.7,3.6,43.8,0,36.6,0c-3.7,0-7.4,1.7-10.2,4.6
			C23.7,1.7,19.9,0,16.2,0C11.7,0,7.5,1.5,4.5,4.1C1.6,6.7,0,10.3,0,14.2c0,9.1,3.3,12.9,5.7,15.6c2,2.2,3,3.4,1.6,6.5
			c-4.1,9.1-1.8,21.3,1.4,26.3c1.1,1.7,2.3,2.6,3.5,2.6c2.3,0,3.1-3.3,4.3-7.9c0.8-3.3,1.8-7,3.4-9.9c1.7-3.2,3.9-4.7,6.6-4.7
			c2.7,0,4.9,1.5,6.6,4.7c1.6,2.9,2.5,6.6,3.4,9.9c1.2,4.6,2,7.9,4.3,7.9c1.7,0,3.4-1.8,4.8-5c1.3-3,2.1-6.9,2.3-10.7
			c0-0.5-0.4-1-0.9-1c-0.5,0-1,0.4-1,0.9c-0.2,3.6-1,7.3-2.2,10.1c-1.1,2.7-2.4,3.9-3,3.9c0,0-0.4,0-1-1.5c-0.5-1.2-1-3-1.4-4.9
			c-1.7-6.8-4.1-16-11.8-16s-10.1,9.3-11.8,16c-0.5,1.9-0.9,3.7-1.4,4.9c-0.6,1.5-1,1.5-1,1.5c-0.4,0-1.1-0.5-1.9-1.7
			c-1.6-2.4-2.8-6.5-3.2-10.8C6.6,45.6,7.3,40.8,9,37c1.9-4.2,0.2-6.2-1.9-8.5c-2.3-2.6-5.2-5.9-5.2-14.3c0-7.1,6-12.3,14.3-12.3
			c3.2,0,6.6,1.6,9,4.2c0,0.1-0.1,0.1-0.1,0.2c-1.6,2.3-2.7,3.9-6.8,3.9c-0.5,0-1,0.4-1,1s0.4,1,1,1c5.1,0,6.6-2.2,8.4-4.7
			C26.8,7.2,27,7,27.1,6.8c0,0,0.1-0.1,0.1-0.1c2.5-3,5.9-4.8,9.4-4.8c6.7,0,12,3.4,13.8,8.7L35.8,23l-4.5-6.3
			c-0.3-0.4-1-0.5-1.4-0.2l-5.1,4.1c-0.4,0.3-0.5,0.9-0.2,1.3l9.2,12.2c0.3,0.4,0.9,0.5,1.3,0.2l13.8-10.2c-1,1.8-2.1,3.1-3.1,4.3
			c-2,2.3-3.8,4.3-1.9,8.5c1,2.3,1.7,4.9,1.9,7.9c0,0.5,0.5,0.9,1,0.9c0,0,0.1,0,0.1,0c0.5,0,0.9-0.5,0.9-1c-0.3-3.1-1-6-2.1-8.5
			c-1.4-3.1-0.4-4.2,1.6-6.5c1.5-1.7,3.3-3.8,4.5-7.4c0-0.1,0-0.2,0-0.3l6.8-5C58.9,16.8,59.1,16.4,59,16z M34.8,32.2l-8-10.7
			l3.6-2.9l4.5,6.3c0.2,0.2,0.4,0.4,0.7,0.4c0.3,0,0.5,0,0.7-0.2L55.4,8.8l1.6,7L34.8,32.2z"/>
	</g>
</g>
</svg>
