<svg xmlns="http://www.w3.org/2000/svg" viewBox="0 0 475 403" width="475" height="403">
	<defs>
		<clipPath clipPathUnits="userSpaceOnUse" id="cp1">
			<path d="M0 0L475 0L475 402L0 402Z" />
		</clipPath>
	</defs>
	<style>
		tspan { white-space:pre }
		.shp0 { fill: #ffd443 } 
	</style>
	<g id="Page 1" clip-path="url(#cp1)">
		<path id="Path 1" class="shp0" d="M396.28,220.7c-1.14,-0.57 -2.28,-0.86 -3.43,-0.86c-2.48,0 -4.66,0.95 -6.56,2.86l-18.27,18.27c-1.71,1.71 -2.57,3.8 -2.57,6.28v72.51c0,12.56 -4.46,23.31 -13.42,32.26c-8.94,8.94 -19.7,13.42 -32.26,13.42h-237.54c-12.56,0 -23.32,-4.47 -32.26,-13.42c-8.95,-8.95 -13.42,-19.7 -13.42,-32.26v-237.54c0,-12.56 4.47,-23.32 13.42,-32.26c8.94,-8.95 19.7,-13.42 32.26,-13.42h237.54c4.19,0 8.47,0.57 12.85,1.71c1.14,0.38 2,0.57 2.56,0.57c2.48,0 4.67,-0.95 6.57,-2.85l13.99,-13.99c2.28,-2.28 3.14,-5.04 2.56,-8.28c-0.57,-3.05 -2.29,-5.24 -5.14,-6.57c-10.27,-4.75 -21.41,-7.14 -33.4,-7.14h-237.54c-22.65,0 -42.02,8.04 -58.1,24.13c-16.08,16.09 -24.12,35.45 -24.12,58.1v237.54c0,22.65 8.04,42.01 24.13,58.1c16.08,16.09 35.45,24.13 58.1,24.13h237.54c22.65,0 42.02,-8.04 58.1,-24.13c16.08,-16.08 24.13,-35.45 24.13,-58.1v-90.8c0,-3.99 -1.92,-6.75 -5.72,-8.28zM467.95,56.82l-31.41,-31.41c-4.57,-4.57 -10,-6.85 -16.28,-6.85c-6.27,0 -11.71,2.28 -16.27,6.85l-184.73,184.72l-75.08,-75.09c-4.57,-4.57 -10,-6.85 -16.27,-6.85c-6.28,0 -11.7,2.28 -16.27,6.85l-31.41,31.41c-4.57,4.57 -6.85,9.99 -6.85,16.28c0,6.28 2.29,11.7 6.85,16.27l122.77,122.77c4.57,4.57 9.99,6.85 16.27,6.85c6.28,0 11.7,-2.28 16.27,-6.85l232.4,-232.4c4.57,-4.57 6.85,-9.99 6.85,-16.27c0,-6.28 -2.28,-11.71 -6.85,-16.27z" />
	</g>
</svg>