<svg xmlns="http://www.w3.org/2000/svg" viewBox="0 0 513 508" width="48" height="48">
	<defs>
		<clipPath clipPathUnits="userSpaceOnUse" id="cp1">
			<path d="M0 0L512 0L512 508L0 508Z" />
		</clipPath>
	</defs>
	<style>
		tspan { white-space:pre }
		.shp0 { fill: #fff } 
	</style>
	<g id="Page 1" clip-path="url(#cp1)">
		<path id="Path 1" class="shp0" d="M512,30.22v447.93c0,16.46 -13.39,29.85 -29.86,29.85h-452.29c-16.46,0 -29.86,-13.39 -29.86,-29.85v-255.97c0,-4.19 3.4,-7.59 7.59,-7.59c4.19,0 7.59,3.4 7.59,7.59v255.96c0,8.09 6.58,14.68 14.68,14.68h452.29c8.09,0 14.68,-6.58 14.68,-14.68v-312.03h-481.64v18.28c0,4.19 -3.4,7.59 -7.59,7.59c-4.19,0 -7.59,-3.4 -7.59,-7.59v-154.18c0,-16.46 13.39,-29.86 29.86,-29.86h452.29c16.46,0 29.86,13.39 29.86,29.86zM496.82,101.47h-481.09v49.46h481.09zM496.82,86.29v-56.07c0,-8.09 -6.58,-14.67 -14.67,-14.67h-452.29c-8.09,0 -14.67,6.58 -14.67,14.67v56.07zM476.78,50.71c0,12.44 -10.12,22.56 -22.56,22.56c-12.44,0 -22.56,-10.12 -22.56,-22.56c0,-12.44 10.12,-22.56 22.56,-22.56c12.44,0 22.56,10.12 22.56,22.56zM461.6,50.71c0,-4.07 -3.31,-7.38 -7.38,-7.38c-4.07,0 -7.38,3.31 -7.38,7.38c0,4.07 3.31,7.38 7.38,7.38c4.07,0 7.38,-3.31 7.38,-7.38zM415.65,50.71c0,12.44 -10.12,22.56 -22.56,22.56c-12.44,0 -22.56,-10.12 -22.56,-22.56c0,-12.44 10.12,-22.56 22.56,-22.56c12.44,0 22.56,10.12 22.56,22.56zM400.47,50.71c0,-4.07 -3.31,-7.38 -7.38,-7.38c-4.07,0 -7.38,3.31 -7.38,7.38c0,4.07 3.31,7.38 7.38,7.38c4.07,0 7.38,-3.31 7.38,-7.38zM354.52,50.71c0,12.44 -10.12,22.56 -22.56,22.56c-12.44,0 -22.56,-10.12 -22.56,-22.56c0,-12.44 10.12,-22.56 22.56,-22.56c12.44,0 22.56,10.12 22.56,22.56zM339.34,50.71c0,-4.07 -3.31,-7.38 -7.38,-7.38c-4.07,0 -7.38,3.31 -7.38,7.38c0,4.07 3.31,7.38 7.38,7.38c4.07,0 7.38,-3.31 7.38,-7.38zM281.16,50.71c0,12.44 -10.12,22.56 -22.56,22.56h-192.9c-12.44,0 -22.56,-10.12 -22.56,-22.56c0,-12.44 10.12,-22.56 22.56,-22.56h192.9c12.44,0 22.56,10.12 22.56,22.56zM265.98,50.71c0,-4.07 -3.31,-7.38 -7.38,-7.38h-192.9c-4.07,0 -7.38,3.31 -7.38,7.38c0,4.07 3.31,7.38 7.38,7.38h192.9c4.07,0 7.38,-3.31 7.38,-7.38zM198.01,272.47c0,4.93 -4.24,9.31 -9.17,9.31c-5.34,0 -9.31,-4.38 -9.31,-9.31c0,-5.06 3.97,-9.3 9.31,-9.3c4.93,0 9.17,4.24 9.17,9.3zM258.77,270.97c0,5.48 -9.72,11.22 -22.58,11.22c-20.67,0 -29.7,-12.04 -29.7,-28.06v-10.95c0,-15.74 8.9,-28.06 29.56,-28.06c12.86,0 21.9,5.34 21.9,10.67c0,3.29 -2.74,8.62 -6.98,8.62c-3.01,0 -5.48,-3.83 -13.55,-3.83c-9.31,0 -13.27,4.65 -13.28,12.59v10.95c0,7.94 3.97,12.59 13.41,12.59c8.21,0 10.26,-4.11 13.69,-4.11c4.79,0 7.53,4.93 7.53,8.35zM324.46,242.91v11.22c0,14.65 -13.82,28.06 -29.7,28.06c-16.01,0 -29.7,-13.28 -29.7,-28.06v-11.22c0,-14.78 13.41,-27.78 29.7,-27.78c15.88,0 29.7,12.59 29.7,27.78zM306.8,242.91c0,-6.16 -5.47,-12.32 -12.04,-12.32c-6.71,0 -12.04,6.16 -12.04,12.32v11.22c0,6.43 5.34,12.59 12.04,12.59c6.57,0 12.04,-6.16 12.04,-12.59zM432.43,242.91v32.44c0,2.74 -4.11,5.61 -8.9,5.61c-4.65,0 -8.76,-2.87 -8.76,-5.61v-32.44c0,-8.21 -5.61,-12.45 -11.08,-12.45c-5.48,0 -10.81,4.38 -10.81,12.32v32.71c0,3.83 -4.52,5.47 -8.9,5.47c-4.11,0 -8.76,-1.64 -8.76,-5.47v-32.57c0,-7.66 -5.47,-12.32 -11.22,-12.32c-5.34,0 -10.68,4.24 -10.68,12.32v32.44c0,2.74 -4.11,5.61 -8.9,5.61c-5.2,0 -8.76,-2.87 -8.76,-5.61v-53.92c0,-3.28 3.56,-5.47 8.76,-5.47c4.24,0 7.8,2.19 7.8,5.47v4.11c3.01,-5.34 9.03,-10.4 18.07,-10.4c7.8,0 14.23,5.61 17.1,13.69c4.79,-9.31 12.73,-13.69 20.67,-13.69c12.45,0 24.36,9.99 24.36,27.78zM198.01,426.57c0,4.93 -4.24,9.31 -9.17,9.31c-5.34,0 -9.31,-4.38 -9.31,-9.31c0,-5.07 3.97,-9.31 9.31,-9.31c4.93,0 9.17,4.24 9.17,9.31zM267.12,397.01v32.44c0,3.69 -4.52,5.61 -8.89,5.61c-4.11,0 -8.76,-1.92 -8.76,-5.61v-32.44c0,-6.16 -5.34,-12.32 -11.91,-12.32c-5.61,0 -11.22,4.65 -11.22,12.32v32.44c0,2.74 -4.11,5.61 -8.9,5.61c-5.2,0 -8.76,-2.87 -8.76,-5.61v-53.92c0,-3.29 3.56,-5.48 8.76,-5.48c4.24,0 7.8,2.19 7.8,5.48v4.11c2.6,-5.34 9.17,-10.4 18.34,-10.4c12.59,0 23.54,12.59 23.54,27.78zM335,424.93c0,4.65 -9.44,11.36 -24.09,11.36c-19.43,0 -33.12,-11.22 -33.12,-28.06v-11.63c0,-14.78 13.28,-27.37 29.97,-27.37c15.06,0 28.2,10.54 28.2,25.73c0,11.63 -6.57,12.18 -12.73,12.18h-27.78v2.05c0,7.94 6.43,13.14 16.01,13.14c9.03,0 12.73,-5.2 16.83,-5.2c4.11,0 6.71,5.06 6.71,7.8zM295.44,396.74h19.98c2.88,0 3.97,-0.68 3.97,-3.69c0,-6.43 -5.48,-10.81 -12.04,-10.81c-6.16,0 -11.91,4.11 -11.91,10.68zM384.53,427.53c0,3.83 -2.46,7.53 -7.53,7.53h-5.34c-16.42,0 -25.32,-6.71 -25.32,-22.17v-66.37c0,-3.29 4.65,-5.48 8.76,-5.48c4.52,0 8.9,2.19 8.9,5.48v23.54h16.15c2.88,0 4.52,3.29 4.52,6.43c0,3.28 -1.64,6.43 -4.52,6.43v0h-16.15v29.97c0,5.34 1.92,7.25 7.66,7.25h5.34c5.07,0 7.53,3.69 7.53,7.39zM141.22,213.68v68.73c0,4.19 -3.4,7.59 -7.59,7.59h-68.73c-4.19,0 -7.59,-3.4 -7.59,-7.59v-68.73c0,-4.19 3.4,-7.59 7.59,-7.59h68.73c4.19,0 7.59,3.4 7.59,7.59zM126.04,221.27h-53.55v53.55h53.55zM141.22,365.49v68.73c0,4.19 -3.4,7.59 -7.59,7.59h-68.73c-4.19,0 -7.59,-3.4 -7.59,-7.59v-68.73c0,-4.19 3.4,-7.59 7.59,-7.59h68.73c4.19,0 7.59,3.4 7.59,7.59zM126.04,373.08h-53.55v53.55h53.55z" />
	</g>
</svg>