<svg xmlns="http://www.w3.org/2000/svg" xmlns:xlink="http://www.w3.org/1999/xlink" width="19.439" height="21.09" viewBox="0 0 19.439 21.09">
  <metadata><?xpacket begin="﻿" id="W5M0MpCehiHzreSzNTczkc9d"?>
<x:xmpmeta xmlns:x="adobe:ns:meta/" x:xmptk="Adobe XMP Core 5.6-c138 79.159824, 2016/09/14-01:09:01        ">
   <rdf:RDF xmlns:rdf="http://www.w3.org/1999/02/22-rdf-syntax-ns#">
      <rdf:Description rdf:about=""/>
   </rdf:RDF>
</x:xmpmeta>
                                                                                                    
                                                                                                    
                                                                                                    
                                                                                                    
                                                                                                    
                                                                                                    
                                                                                                    
                                                                                                    
                                                                                                    
                                                                                                    
                                                                                                    
                                                                                                    
                                                                                                    
                                                                                                    
                                                                                                    
                                                                                                    
                                                                                                    
                                                                                                    
                                                                                                    
                                                                                                    
                           
<?xpacket end="w"?></metadata>
<defs>
    <style>
      .cls-1 {
        fill: #f1f1f0;
        fill-rule: evenodd;
        mix-blend-mode: multiply;
        filter: url(#filter);
      }
    </style>
    <filter id="filter" x="994.781" y="1103.97" width="19.439" height="21.09" filterUnits="userSpaceOnUse">
      <feFlood result="flood" flood-color="#571a01"/>
      <feComposite result="composite" operator="in" in2="SourceGraphic"/>
      <feBlend result="blend" in2="SourceGraphic"/>
    </filter>
  </defs>
  <path id="Address_Book" data-name="Address Book" class="cls-1" d="M998.053,1104.02a0.762,0.762,0,0,0-.835.78v19.42a0.814,0.814,0,0,0,.835.83H1010.2a1.5,1.5,0,0,0,1.6-1.57v-18.65a0.849,0.849,0,0,0-.84-0.84Zm15.387-.05a0.8,0.8,0,0,0-.81.83v4.05a1.564,1.564,0,0,0,1.6-1.59v-2.48A0.748,0.748,0,0,0,1013.44,1103.97Zm-8.25,9.02a4.018,4.018,0,0,1-.38,1.41,1.235,1.235,0,0,1-.97.95,0.619,0.619,0,0,1-.53-0.25,1.232,1.232,0,0,1-.18-0.7,2.834,2.834,0,0,1,.41-1.39,1.187,1.187,0,0,1,.99-0.72,0.625,0.625,0,0,1,.48.2,0.731,0.731,0,0,1,.18.5h0Zm-1.71,3.17a1.676,1.676,0,0,0,1.13-.47,2.169,2.169,0,0,0,.47-0.64,0.308,0.308,0,0,1-.01.1v0.09a0.836,0.836,0,0,0,.28.59,1.055,1.055,0,0,0,.78.34,2.31,2.31,0,0,0,1.74-.95,3.191,3.191,0,0,0,.72-2.16,3.069,3.069,0,0,0-1.16-2.55,4.462,4.462,0,0,0-2.89-.87,4.818,4.818,0,0,0-3.52,1.29,4.17,4.17,0,0,0-1.378,3.07,4.51,4.51,0,0,0,1.1,2.96,4.657,4.657,0,0,0,3.58,1.63,5.88,5.88,0,0,0,1.91-.31,6.412,6.412,0,0,0,1.7-.93l-0.41-.62-0.13.09a5.051,5.051,0,0,1-2.99.97,4.237,4.237,0,0,1-2.61-1.04,3.411,3.411,0,0,1-1.28-2.71,3.48,3.48,0,0,1,1.1-2.5,4.023,4.023,0,0,1,3.02-1.1,3.981,3.981,0,0,1,1.85.37,2.25,2.25,0,0,1,1.28,2.19,2.708,2.708,0,0,1-.45,1.65,1.394,1.394,0,0,1-.96.67,0.454,0.454,0,0,1-.35-0.19,0.51,0.51,0,0,1-.12-0.32,1.2,1.2,0,0,1,.04-0.24c0.02-.1.06-0.24,0.12-0.44l0.71-2.4h-1.05l-0.2.7a1.16,1.16,0,0,0-.32-0.57,1.22,1.22,0,0,0-.91-0.32,2.059,2.059,0,0,0-1.67.87,3.019,3.019,0,0,0-.68,1.88,1.889,1.889,0,0,0,.45,1.34,1.493,1.493,0,0,0,1.11.53h0Zm10.75-5.74a0.8,0.8,0,0,0-.81-0.78,0.788,0.788,0,0,0-.79.78v4.1a1.573,1.573,0,0,0,1.6-1.62v-2.48Zm0,5.72a0.834,0.834,0,0,0-.81-0.83,0.788,0.788,0,0,0-.79.78v4.1s1.6-.53,1.6-1.64v-2.41Zm-17.847-11.39a0.733,0.733,0,0,0-.785-0.76,0.793,0.793,0,0,0-.81.81v19.49a0.76,0.76,0,0,0,.81.79,0.777,0.777,0,0,0,.81-0.81Z" transform="translate(-994.781 -1103.97)"/>
</svg>
