<svg xmlns="http://www.w3.org/2000/svg" xmlns:xlink="http://www.w3.org/1999/xlink" width="20.25" height="20.31" viewBox="0 0 20.25 20.31">
  <metadata><?xpacket begin="﻿" id="W5M0MpCehiHzreSzNTczkc9d"?>
<x:xmpmeta xmlns:x="adobe:ns:meta/" x:xmptk="Adobe XMP Core 5.6-c138 79.159824, 2016/09/14-01:09:01        ">
   <rdf:RDF xmlns:rdf="http://www.w3.org/1999/02/22-rdf-syntax-ns#">
      <rdf:Description rdf:about=""/>
   </rdf:RDF>
</x:xmpmeta>
                                                                                                    
                                                                                                    
                                                                                                    
                                                                                                    
                                                                                                    
                                                                                                    
                                                                                                    
                                                                                                    
                                                                                                    
                                                                                                    
                                                                                                    
                                                                                                    
                                                                                                    
                                                                                                    
                                                                                                    
                                                                                                    
                                                                                                    
                                                                                                    
                                                                                                    
                                                                                                    
                           
<?xpacket end="w"?></metadata>
<defs>
    <style>
      .cls-1 {
        fill: #f9f9f6;
        fill-rule: evenodd;
        mix-blend-mode: multiply;
        filter: url(#filter);
      }
    </style>
    <filter id="filter" x="1024.75" y="1103.97" width="20.25" height="20.31" filterUnits="userSpaceOnUse">
      <feFlood result="flood" flood-color="#571a01"/>
      <feComposite result="composite" operator="in" in2="SourceGraphic"/>
      <feBlend result="blend" in2="SourceGraphic"/>
    </filter>
  </defs>
  <path id="Clock" class="cls-1" d="M1034.88,1103.97a10.15,10.15,0,1,1-10.13,10.12A10.119,10.119,0,0,1,1034.88,1103.97Zm0,2.02a8.125,8.125,0,1,1-8.1,8.1A8.1,8.1,0,0,1,1034.88,1105.99Zm-0.41,2.03a0.811,0.811,0,0,1,.81.83v6.48l-0.81.03a1.3,1.3,0,0,1-.81-0.79v-5.72A0.811,0.811,0,0,1,1034.47,1108.02Zm0.81,5.69h4.05a0.8,0.8,0,0,1,.84.79,0.837,0.837,0,0,1-.84.83h-4.05v-1.62Z" transform="translate(-1024.75 -1103.97)"/>
</svg>
