<svg xmlns="http://www.w3.org/2000/svg" width="11.187" height="107.97" viewBox="0 0 11.187 107.97">
  <metadata><?xpacket begin="﻿" id="W5M0MpCehiHzreSzNTczkc9d"?>
<x:xmpmeta xmlns:x="adobe:ns:meta/" x:xmptk="Adobe XMP Core 5.6-c138 79.159824, 2016/09/14-01:09:01        ">
   <rdf:RDF xmlns:rdf="http://www.w3.org/1999/02/22-rdf-syntax-ns#">
      <rdf:Description rdf:about=""/>
   </rdf:RDF>
</x:xmpmeta>
                                                                                                    
                                                                                                    
                                                                                                    
                                                                                                    
                                                                                                    
                                                                                                    
                                                                                                    
                                                                                                    
                                                                                                    
                                                                                                    
                                                                                                    
                                                                                                    
                                                                                                    
                                                                                                    
                                                                                                    
                                                                                                    
                                                                                                    
                                                                                                    
                                                                                                    
                                                                                                    
                           
<?xpacket end="w"?></metadata>
<defs>
    <style>
      .cls-1 {
        fill: #080300;
        fill-rule: evenodd;
      }
    </style>
  </defs>
  <path id="decor" class="cls-1" d="M275.052,995.305c0-4.525,1.248-9.16,2.779-9.16,0.582,0,1.206.519,1.589,1.965,0.212,0.7.523,0.7,0.864-.112a10.486,10.486,0,0,0,.709-3.783c0-1.706-.61-3.967-1.786-3.967-0.653,0-2.056,1.112-3.332,5.563a49.2,49.2,0,0,0-1.928,13.276,78.051,78.051,0,0,0-3.5,23.283,99.2,99.2,0,0,0,1.191,14.61c0.368,2.53,1.928,12.32,3.09,19.25a125.927,125.927,0,0,1,1.844,17.84c0,3.45-.469,8.42-2.084,8.42-0.6,0-1.007-.64-1.248-1.49a1.137,1.137,0,0,0-.581-0.85c-0.6,0-1.5,1.41-1.5,3.85,0,2.75,1.05,4.23,1.843,4.23,2.155,0,3.615-6.15,4.268-10.31a60.183,60.183,0,0,0,4.352-22.84,126.2,126.2,0,0,0-1.531-17.72c-0.738-5.27-3.318-21.81-4.126-28.45a105.163,105.163,0,0,1-.908-13.533v-0.072Zm-3.43,21.325c0-5.08.978-9.9,2.424-12.28a109.56,109.56,0,0,0,1.262,14.5c0.936,7.23,3.119,20.58,3.729,25.25a121.714,121.714,0,0,1,1.19,15.1c0,5.52-.694,10.45-2.48,13.05a82.829,82.829,0,0,0-1.121-17.17c-0.807-5.49-3.459-20.62-4.125-25.74a98.459,98.459,0,0,1-.879-12.64v-0.07Z" transform="translate(-270.438 -980.25)"/>
</svg>
