<svg xmlns="http://www.w3.org/2000/svg" xmlns:xlink="http://www.w3.org/1999/xlink" width="21.875" height="15.37" viewBox="0 0 21.875 15.37">
  <metadata><?xpacket begin="﻿" id="W5M0MpCehiHzreSzNTczkc9d"?>
<x:xmpmeta xmlns:x="adobe:ns:meta/" x:xmptk="Adobe XMP Core 5.6-c138 79.159824, 2016/09/14-01:09:01        ">
   <rdf:RDF xmlns:rdf="http://www.w3.org/1999/02/22-rdf-syntax-ns#">
      <rdf:Description rdf:about=""/>
   </rdf:RDF>
</x:xmpmeta>
                                                                                                    
                                                                                                    
                                                                                                    
                                                                                                    
                                                                                                    
                                                                                                    
                                                                                                    
                                                                                                    
                                                                                                    
                                                                                                    
                                                                                                    
                                                                                                    
                                                                                                    
                                                                                                    
                                                                                                    
                                                                                                    
                                                                                                    
                                                                                                    
                                                                                                    
                                                                                                    
                           
<?xpacket end="w"?></metadata>
<defs>
    <style>
      .cls-1 {
        fill: #fff;
        fill-rule: evenodd;
        mix-blend-mode: multiply;
        filter: url(#filter);
      }
    </style>
    <filter id="filter" x="940.531" y="1106.44" width="21.875" height="15.37" filterUnits="userSpaceOnUse">
      <feFlood result="flood" flood-color="#571a01"/>
      <feComposite result="composite" operator="in" in2="SourceGraphic"/>
      <feBlend result="blend" in2="SourceGraphic"/>
    </filter>
  </defs>
  <path id="Message" class="cls-1" d="M942.306,1121.83h18.383s1.724,0-.027-1.73l-5.225-5.77s-0.41-.82-1.751.85l-1.778,1.75a0.589,0.589,0,0,1-.875,0l-1.751-1.75s-1.259-1.75-1.751-.9l-5.253,5.77S940.555,1121.83,942.306,1121.83Zm-1.779-2.25,0.026-10.74s-0.24-1.29,1.114.07l4.52,3.7s1.023,0.67.529,1.16l-4.438,4.88S940.527,1121.28,940.527,1119.58Zm1.682-13.16s-1.671,0-.823.87l9.68,7.85a0.493,0.493,0,0,0,.837-0.01l9.607-7.89s0.845-.82-0.818-0.82H942.209Zm20.21,13.16-0.025-10.74s0.24-1.29-1.114.07l-4.52,3.7s-1.023.67-.53,1.16l4.438,4.88S962.419,1121.28,962.419,1119.58Z" transform="translate(-940.531 -1106.44)"/>
</svg>
