<?xml version="1.0" encoding="utf-8"?>
<!-- Generator: Adobe Illustrator 22.1.0, SVG Export Plug-In . SVG Version: 6.00 Build 0)  -->
<svg version="1.1" id="Capa_1" xmlns="http://www.w3.org/2000/svg" xmlns:xlink="http://www.w3.org/1999/xlink" x="0px" y="0px"
	 viewBox="0 153.1 595.3 535.8" style="enable-background:new 0 153.1 595.3 535.8;" xml:space="preserve" fill="#fff">
<g>
	<path d="M575.4,491.4V163c0-5.5-4.4-9.9-9.9-9.9H9.9c-5.5,0-9.9,4.4-9.9,9.9v436.5c0,5.5,4.4,9.9,9.9,9.9h337.4
		c19.5,46.6,65.5,79.4,119,79.4c71.1,0,129-57.9,129-129C595.3,534.7,587.9,511.3,575.4,491.4z M340.9,589.6h-321V172.9h535.8v293.9
		c-1.7-1.6-3.5-3.1-5.3-4.6c-0.9-0.7-1.7-1.5-2.6-2.3c-2.3-1.9-4.8-3.7-7.2-5.4c-0.9-0.6-1.8-1.3-2.7-2c-2.4-1.6-4.9-3.1-7.5-4.5
		c-1.1-0.6-2.1-1.3-3.2-1.9c-0.8-0.4-1.5-0.8-2.3-1.2c1.8-3.8,1.1-8.5-2.2-11.4L403.6,324.3c-1.9-1.8-4.5-2.7-7.1-2.6
		c-2.6,0.1-5.1,1.3-6.9,3.2l-97.2,106.4l-47.1-47.1c-3.7-3.7-9.6-3.9-13.6-0.4L62.9,532.6c-4.1,3.6-4.5,9.9-0.9,14
		c2,2.2,4.7,3.4,7.5,3.4c2.3,0,4.7-0.8,6.5-2.5L237.8,405l102.2,102.2c2,2,4.7,2.9,7.3,2.8c-6.4,15.3-10,32.2-10,49.8
		c0,4.9,0.3,9.7,0.9,14.4c0.1,0.7,0.2,1.5,0.3,2.2c0.6,4.2,1.3,8.4,2.3,12.5C340.8,589.2,340.8,589.4,340.9,589.6z M484,432.2
		c-1.6-0.2-3.2-0.5-4.8-0.7c-4.2-0.4-8.5-0.6-12.8-0.6c-47.4,0-88.7,25.7-111.1,63.9c-0.4-0.5-0.6-1.1-1.1-1.6l-47.7-47.7l91.1-99.7
		l96.2,88.2c-0.7-0.1-1.3-0.3-2-0.4C489.1,432.9,486.5,432.6,484,432.2z M466.3,669c-47.5,0-87.9-30.6-102.9-73
		c-0.9-2.7-1.7-5.3-2.5-8c-0.1-0.6-0.3-1.1-0.4-1.7c-0.6-2.4-1.1-4.7-1.5-7.1c-0.2-1.3-0.4-2.7-0.6-4c-0.3-1.8-0.5-3.6-0.7-5.4
		c-0.3-3.3-0.5-6.6-0.5-10c0-60.2,49-109.1,109.1-109.1c4.2,0,8.4,0.3,12.5,0.8c1.3,0.1,2.5,0.4,3.7,0.6c2.9,0.4,5.7,1,8.6,1.6
		c1.4,0.3,2.8,0.7,4.2,1.1c2.7,0.7,5.3,1.6,7.9,2.5c1.3,0.5,2.7,0.9,4,1.5c2.9,1.2,5.8,2.5,8.6,4c0.8,0.4,1.7,0.8,2.5,1.2
		c3.4,1.8,6.7,3.9,9.8,6.1c1.3,0.9,2.5,1.9,3.8,2.8c2,1.5,3.9,3,5.8,4.7c1.3,1.1,2.5,2.2,3.7,3.4c1.9,1.8,3.8,3.7,5.5,5.7
		c0.9,1,1.9,2,2.8,3.1c2.6,3.1,5.1,6.3,7.3,9.7c11.6,17.4,18.4,38.2,18.4,60.6C575.4,620,526.5,669,466.3,669z"/>
	<path d="M525.8,549.9h-49.6v-49.6c0-5.5-4.4-9.9-9.9-9.9c-5.5,0-9.9,4.4-9.9,9.9v49.6h-49.6c-5.5,0-9.9,4.4-9.9,9.9
		c0,5.5,4.4,9.9,9.9,9.9h49.6v49.6c0,5.5,4.4,9.9,9.9,9.9c5.5,0,9.9-4.4,9.9-9.9v-49.6h49.6c5.5,0,9.9-4.4,9.9-9.9
		C535.8,554.4,531.3,549.9,525.8,549.9z"/>
	<path d="M158.7,372.7c30.5,0,55.3-24.8,55.3-55.2c0-30.5-24.8-55.3-55.3-55.3c-30.5,0-55.3,24.8-55.3,55.3
		C103.5,347.9,128.3,372.7,158.7,372.7z M158.7,282c19.5,0,35.4,15.9,35.4,35.4c0,19.5-15.9,35.4-35.4,35.4s-35.4-15.9-35.4-35.4
		C123.3,298,139.2,282,158.7,282z"/>
</g>
</svg>
