<?xml version="1.0" encoding="utf-8"?>
<!-- Generator: Adobe Illustrator 22.1.0, SVG Export Plug-In . SVG Version: 6.00 Build 0)  -->
<svg version="1.1" id="Layer" xmlns="http://www.w3.org/2000/svg" xmlns:xlink="http://www.w3.org/1999/xlink" x="0px" y="0px"
	 viewBox="0 0 144 576" style="enable-background:new 0 0 144 576;" xml:space="preserve">
<path d="M83.3,4.7c-6.2-6.2-16.4-6.2-22.6,0l-56,56c-6.2,6.2-6.2,16.4,0,22.6c6.2,6.2,16.4,6.2,22.6,0L56,54.6L56,368
	c0,8.8,7.2,16,16,16s16-7.2,16-16V54.6l28.7,28.7c6.2,6.2,16.4,6.2,22.6,0c3.1-3.1,4.7-7.2,4.7-11.3s-1.6-8.2-4.7-11.3L83.3,4.7z"/>
<path d="M139.3,515.3c3.1-3.1,4.7-7.2,4.7-11.3c0-4.1-1.6-8.2-4.7-11.3c-6.2-6.2-16.4-6.2-22.6,0L88,521.4L88,58c0-8.8-7.2-16-16-16
	s-16,7.2-16,16v463.4l-28.7-28.7c-6.2-6.2-16.4-6.2-22.6,0c-6.2,6.2-6.2,16.4,0,22.6l56,56c6.2,6.2,16.4,6.2,22.6,0L139.3,515.3z"/>
</svg>
