<?xml version="1.0" encoding="utf-8"?>
<!-- Generator: Adobe Illustrator 22.1.0, SVG Export Plug-In . SVG Version: 6.00 Build 0)  -->
<svg version="1.1" id="Layer" xmlns="http://www.w3.org/2000/svg" xmlns:xlink="http://www.w3.org/1999/xlink" x="0px" y="0px"
	 viewBox="0 0 576 144" style="enable-background:new 0 0 576 144;" xml:space="preserve">
<path d="M571.3,83.3c6.2-6.2,6.2-16.4,0-22.6l-56-56c-6.2-6.2-16.4-6.2-22.6,0c-6.2,6.2-6.2,16.4,0,22.6L521.4,56L208,56
	c-8.8,0-16,7.2-16,16s7.2,16,16,16h313.4l-28.7,28.7c-6.2,6.2-6.2,16.4,0,22.6c3.1,3.1,7.2,4.7,11.3,4.7c4.1,0,8.2-1.6,11.3-4.7
	L571.3,83.3z"/>
<path d="M60.7,139.3c3.1,3.1,7.2,4.7,11.3,4.7s8.2-1.6,11.3-4.7c6.2-6.2,6.2-16.4,0-22.6L54.6,88H518c8.8,0,16-7.2,16-16
	s-7.2-16-16-16H54.6l28.7-28.7c6.2-6.2,6.2-16.4,0-22.6c-6.2-6.2-16.4-6.2-22.6,0l-56,56c-6.2,6.2-6.2,16.4,0,22.6L60.7,139.3z"/>
</svg>
