<?xml version="1.0" encoding="utf-8"?>
<!-- Generator: Adobe Illustrator 22.1.0, SVG Export Plug-In . SVG Version: 6.00 Build 0)  -->
<svg version="1.1" id="Layer_1" xmlns="http://www.w3.org/2000/svg" xmlns:xlink="http://www.w3.org/1999/xlink" x="0px" y="0px"
	 viewBox="0 0 352.3 114.8" style="enable-background:new 0 0 352.3 114.8;" xml:space="preserve" fill="#fff">
<g>
	<path d="M60,107.5v3.9c0,0.7,0,1.2,0.1,1.5c0.1,0.3,0.2,0.6,0.4,0.8c0.2,0.2,0.4,0.3,0.6,0.4c0.2,0.1,0.5,0.1,0.9,0.2v0.2h-6.2
		v-0.2c0.3,0,0.6-0.1,0.9-0.2c0.3-0.1,0.5-0.2,0.7-0.4c0.2-0.2,0.3-0.5,0.4-0.8c0.1-0.4,0.1-0.8,0.1-1.5v-7.2c0-0.4,0-0.9-0.1-1.3
		c-0.1-0.6-0.3-1-0.8-1.3c-0.3-0.2-0.7-0.2-1.1-0.3v-0.2H66l0.3,3.2l-0.2,0.1c-0.2-0.5-0.3-0.9-0.5-1.1c-0.3-0.6-0.7-1-1.3-1.3
		c-0.3-0.2-0.7-0.3-1.1-0.4c-0.4-0.1-1-0.1-1.7-0.1H60v5.8h0.4c1.2,0,2-0.3,2.5-0.8c0.2-0.2,0.4-0.5,0.5-0.8
		c0.1-0.3,0.2-0.7,0.2-1.2l0.2,0l-0.1,5.9h-0.2c-0.1-0.7-0.2-1.2-0.4-1.5c-0.2-0.4-0.4-0.7-0.8-0.9c-0.3-0.2-0.6-0.3-1-0.4
		C61.1,107.6,60.6,107.5,60,107.5L60,107.5z M69.2,114.5v-0.2c0.7,0,1.2-0.2,1.5-0.6c0.2-0.2,0.3-0.5,0.4-0.8
		c0.1-0.3,0.1-0.8,0.1-1.5v-7.2c0-0.7,0-1.2-0.1-1.5c-0.1-0.3-0.2-0.6-0.5-0.8c-0.2-0.2-0.4-0.3-0.6-0.4c-0.2-0.1-0.5-0.1-0.9-0.1
		v-0.2h6.2v0.2c-0.4,0-0.7,0.1-0.9,0.1c-0.2,0.1-0.4,0.2-0.6,0.4c-0.2,0.2-0.4,0.5-0.5,0.8c-0.1,0.3-0.1,0.8-0.1,1.5v5.6
		c0,0.9,0,1.5,0.1,1.9c0,0.4,0.1,0.8,0.3,1c0.2,0.5,0.6,0.8,1,1c0.5,0.2,1,0.3,1.8,0.3c0.8,0,1.4-0.1,2-0.3c0.5-0.2,1-0.5,1.3-1
		c0.2-0.3,0.4-0.6,0.6-1c0.1-0.4,0.3-0.9,0.4-1.5l0.2,0l-0.1,4H69.2L69.2,114.5z M84.3,107.9c0-1.1,0.2-2.1,0.7-3
		c0.5-0.9,1.2-1.8,2.1-2.4c0.7-0.5,1.4-0.9,2.2-1.2c0.8-0.3,1.6-0.4,2.3-0.4c1,0,2,0.2,2.9,0.7c0.9,0.4,1.8,1.1,2.5,1.9
		c1.1,1.3,1.7,2.8,1.7,4.4c0,0.8-0.1,1.6-0.5,2.4c-0.3,0.8-0.7,1.5-1.3,2.1c-0.7,0.8-1.5,1.4-2.5,1.8c-1,0.4-2,0.7-3,0.7
		c-1,0-2-0.2-3-0.6c-0.9-0.4-1.8-1-2.4-1.8c-0.5-0.6-1-1.3-1.2-2.1C84.5,109.6,84.3,108.8,84.3,107.9L84.3,107.9z M86.7,108.1
		c0,1.9,0.5,3.5,1.5,4.8c0.5,0.6,1,1,1.5,1.3c0.5,0.3,1.1,0.4,1.8,0.4c0.7,0,1.3-0.1,1.8-0.4c0.5-0.3,1-0.7,1.5-1.3
		c1-1.3,1.5-2.9,1.5-4.8c0-1.1-0.1-2-0.4-3c-0.3-0.9-0.7-1.7-1.2-2.4c-0.4-0.5-0.9-0.9-1.4-1.2c-0.5-0.2-1.1-0.4-1.8-0.4
		c-0.7,0-1.3,0.1-1.8,0.4c-0.5,0.2-1,0.6-1.4,1.2c-0.5,0.6-0.9,1.4-1.2,2.4C86.8,106,86.7,107,86.7,108.1L86.7,108.1z M101.8,101.2
		h6.1v0.2c-0.6,0-1,0-1.2,0.1c-0.2,0.1-0.3,0.2-0.4,0.4c-0.1,0.2-0.2,0.4-0.2,0.6c0,0.3,0.1,0.7,0.3,1.1l0.3,0.6l3.1,7.4l2.1-6.4
		c0.3-0.8,0.4-1.4,0.4-1.8c0-0.3-0.1-0.6-0.2-0.9c-0.1-0.3-0.3-0.5-0.4-0.7c-0.2-0.2-0.4-0.3-0.6-0.4c-0.2-0.1-0.5-0.1-0.8-0.1v-0.2
		h6.3v0.2c-0.4,0-0.7,0-0.8,0c-0.2,0-0.3,0.1-0.5,0.2c-0.2,0.1-0.4,0.3-0.5,0.5c-0.1,0.2-0.2,0.5-0.2,0.7c0,0.2,0.1,0.6,0.3,1.2
		l2.4,7.8l2.7-6.6c0.4-1,0.6-1.8,0.6-2.3c0-0.6-0.2-1-0.6-1.2c-0.2-0.1-0.6-0.2-1.1-0.2v-0.2h4.5v0.2c-0.4,0-0.8,0.1-1,0.3
		c-0.2,0.1-0.4,0.3-0.7,0.7c-0.3,0.5-0.7,1.3-1.2,2.5l-4,9.7h-0.4l-3.5-10.4l-3.5,10.4h-0.4l-4.4-10.5l-0.3-0.7
		c-0.2-0.5-0.4-0.8-0.5-1c-0.1-0.2-0.3-0.4-0.5-0.5c-0.2-0.1-0.3-0.2-0.5-0.2c-0.2,0-0.4-0.1-0.8-0.1V101.2L101.8,101.2z
		 M136.6,101.2l0.2,3.2l-0.2,0c-0.1-0.6-0.2-1-0.4-1.4c-0.2-0.4-0.5-0.7-0.9-1c-0.3-0.2-0.7-0.4-1.1-0.5c-0.4-0.1-1-0.1-1.7-0.1
		h-2.2v5.9h0.6c0.6,0,1,0,1.3-0.1c0.3-0.1,0.5-0.2,0.7-0.4c0.2-0.2,0.3-0.4,0.4-0.7c0.1-0.3,0.2-0.6,0.2-1.1l0.2,0l0,5.2h-0.2
		c-0.1-0.5-0.1-0.9-0.3-1.2c-0.1-0.3-0.3-0.6-0.5-0.8c-0.2-0.2-0.5-0.4-0.8-0.5c-0.3-0.1-0.7-0.1-1.2-0.1h-0.6v2.2
		c0,0.9,0,1.5,0.1,1.9c0,0.4,0.1,0.7,0.3,1c0.2,0.5,0.6,0.8,1,1c0.5,0.2,1.1,0.3,1.8,0.3c0.8,0,1.4-0.1,2-0.3c0.5-0.2,1-0.5,1.3-0.9
		c0.2-0.3,0.4-0.6,0.6-1c0.1-0.4,0.3-0.8,0.4-1.4l0.2,0l-0.1,3.9h-11.7v-0.2c0.4,0,0.7-0.1,0.9-0.2c0.2-0.1,0.4-0.2,0.6-0.4
		c0.2-0.2,0.3-0.5,0.4-0.8c0.1-0.3,0.1-0.8,0.1-1.5v-7.2c0-0.7,0-1.2-0.1-1.5c-0.1-0.3-0.2-0.6-0.4-0.8c-0.2-0.2-0.4-0.3-0.6-0.4
		c-0.2-0.1-0.5-0.1-0.9-0.2v-0.2H136.6L136.6,101.2z M145.2,108v3.5c0,0.7,0,1.2,0.1,1.5c0.1,0.3,0.2,0.6,0.4,0.8
		c0.2,0.2,0.4,0.3,0.6,0.4c0.2,0.1,0.5,0.1,0.9,0.2v0.2h-6.2v-0.2c0.4,0,0.7-0.1,0.9-0.2c0.2-0.1,0.4-0.2,0.6-0.4
		c0.2-0.2,0.3-0.5,0.4-0.8c0.1-0.3,0.1-0.8,0.1-1.5v-7.2c0-0.7,0-1.2-0.1-1.5c-0.1-0.3-0.2-0.6-0.4-0.8c-0.2-0.2-0.4-0.3-0.6-0.4
		c-0.2-0.1-0.5-0.1-0.9-0.2v-0.2h4.7c0.8,0,1.3,0,1.6,0c1,0,1.8,0.2,2.4,0.4c0.6,0.3,1.1,0.7,1.5,1.2c0.4,0.5,0.5,1.1,0.5,1.8
		c0,1-0.4,1.8-1.2,2.4c-0.2,0.2-0.5,0.3-0.8,0.5c-0.3,0.1-0.7,0.2-1.1,0.3c0.4,0.2,0.7,0.3,0.9,0.5c0.2,0.1,0.3,0.3,0.4,0.5
		c0.1,0.2,0.3,0.6,0.5,1.1c0.6,1.2,1,2.1,1.3,2.6c0.3,0.6,0.5,1,0.7,1.2c0.2,0.2,0.3,0.3,0.5,0.4c0.2,0.1,0.4,0.1,0.6,0.2v0.2h-3.2
		c-0.2-0.4-0.3-0.6-0.3-0.7l-0.7-1.6c-0.4-0.9-0.8-1.8-1.2-2.5c-0.4-0.7-0.8-1.2-1.1-1.5c-0.2-0.1-0.4-0.2-0.6-0.3
		c-0.2-0.1-0.5-0.1-0.7-0.1H145.2L145.2,108z M145.2,107.8h0.4c0.8,0,1.4,0,1.7-0.1c0.4-0.1,0.7-0.3,1-0.6c0.7-0.7,1-1.5,1-2.4
		c0-0.5-0.1-1-0.3-1.5c-0.2-0.5-0.5-0.8-0.8-1.1c-0.3-0.2-0.6-0.4-1-0.5c-0.4-0.1-0.9-0.1-1.6-0.1h-0.4V107.8L145.2,107.8z
		 M156.9,114.4l0-4l0.2,0c0.3,1,0.6,1.8,1,2.4c0.7,1.1,1.6,1.6,2.7,1.6c0.8,0,1.4-0.3,1.9-0.8c0.5-0.5,0.7-1.1,0.7-1.9
		c0-0.3-0.1-0.7-0.2-1c-0.1-0.3-0.3-0.6-0.4-0.9c-0.2-0.3-0.5-0.5-0.8-0.7c-0.3-0.2-0.9-0.5-1.6-0.9c-0.6-0.3-1.1-0.6-1.4-0.8
		c-0.3-0.2-0.6-0.4-0.8-0.7c-0.6-0.6-0.8-1.4-0.8-2.2c0-0.5,0.1-1.1,0.3-1.6c0.2-0.5,0.5-0.9,0.9-1.3c0.7-0.6,1.5-1,2.5-1
		c0.3,0,0.6,0,0.9,0.1c0.3,0.1,0.6,0.2,1.1,0.4c0.3,0.1,0.6,0.2,0.7,0.2c0.1,0,0.2,0.1,0.3,0.1c0.2,0,0.4-0.2,0.5-0.5h0.2l0.1,3.9
		h-0.2c-0.2-0.6-0.3-1.1-0.5-1.4c-0.1-0.3-0.3-0.6-0.5-0.9c-0.3-0.5-0.7-0.9-1.1-1.1c-0.4-0.2-0.8-0.4-1.3-0.4
		c-0.7,0-1.3,0.2-1.7,0.7c-0.2,0.2-0.3,0.4-0.4,0.7c-0.1,0.3-0.2,0.5-0.2,0.8c0,1.1,0.7,2,2.1,2.6l1.4,0.7c1.1,0.5,1.8,1.1,2.3,1.7
		c0.5,0.7,0.8,1.5,0.8,2.4c0,0.6-0.1,1.2-0.4,1.7c-0.3,0.8-0.9,1.3-1.5,1.8c-0.7,0.4-1.5,0.6-2.4,0.6c-0.8,0-1.7-0.2-2.4-0.5
		c-0.4-0.2-0.6-0.3-0.7-0.3c-0.1,0-0.2,0-0.3,0c-0.3,0-0.5,0.2-0.6,0.5H156.9L156.9,114.4z M180.6,101.2v0.2c-0.4,0-0.7,0.1-0.9,0.2
		c-0.2,0.1-0.4,0.2-0.6,0.4c-0.3,0.3-0.4,0.6-0.5,1.1c0,0.3-0.1,0.7-0.1,1.2v7.2c0,0.5,0,1,0.1,1.3c0.1,0.3,0.1,0.6,0.3,0.8
		c0.2,0.3,0.4,0.5,0.7,0.6c0.3,0.1,0.6,0.2,1.1,0.2v0.2h-6.2v-0.2c0.4,0,0.7-0.1,0.9-0.2c0.2-0.1,0.4-0.2,0.6-0.4
		c0.2-0.2,0.3-0.5,0.4-0.8c0.1-0.3,0.1-0.8,0.1-1.5v-7.2c0-0.7,0-1.2-0.1-1.5c-0.1-0.3-0.2-0.6-0.4-0.8c-0.2-0.2-0.4-0.3-0.6-0.4
		c-0.2-0.1-0.5-0.1-0.9-0.2v-0.2H180.6L180.6,101.2z M186.4,102.9v8.5c0,0.7,0,1.2,0.1,1.5c0.1,0.3,0.2,0.6,0.4,0.8
		c0.2,0.2,0.4,0.3,0.6,0.4c0.2,0.1,0.5,0.1,0.9,0.2v0.2H184v-0.2c0.4,0,0.7-0.1,0.9-0.2c0.2-0.1,0.4-0.2,0.6-0.4
		c0.2-0.2,0.3-0.5,0.4-0.8c0.1-0.3,0.1-0.8,0.1-1.5v-7.2c0-0.7,0-1.2-0.1-1.5c-0.1-0.3-0.2-0.6-0.4-0.8c-0.2-0.2-0.4-0.3-0.6-0.4
		c-0.2-0.1-0.5-0.1-0.9-0.2v-0.2h3.8l7.9,10.1v-7.1c0-0.7,0-1.2-0.1-1.5c-0.1-0.3-0.2-0.6-0.4-0.8c-0.2-0.2-0.4-0.3-0.6-0.4
		c-0.2-0.1-0.5-0.1-0.9-0.2v-0.2h4.5v0.2c-0.7,0-1.2,0.2-1.5,0.6c-0.2,0.2-0.3,0.5-0.4,0.8c-0.1,0.3-0.1,0.8-0.1,1.5v10.3h-0.4
		L186.4,102.9L186.4,102.9z M218.6,101.2l0.1,4.3h-0.2c-0.1-0.2-0.1-0.3-0.2-0.4c-0.2-0.6-0.4-1.1-0.6-1.4c-0.3-0.6-0.6-1.1-1.1-1.5
		c-0.4-0.3-0.7-0.6-1.1-0.8c-0.4-0.2-0.8-0.2-1.3-0.2c-0.7,0-1.4,0.2-1.9,0.5c-0.5,0.3-0.9,0.7-1.3,1.2c-0.4,0.5-0.7,1.1-1,1.8
		c-0.4,0.9-0.6,2-0.6,3.2c0,1,0.1,1.9,0.4,2.8c0.3,0.8,0.6,1.5,1.1,2.1c0.9,1,2.1,1.5,3.6,1.5c0.7,0,1.4-0.1,2-0.4
		c0.6-0.3,1.1-0.6,1.4-1.1c0.4-0.5,0.7-1.3,0.8-2.2l0.2,0c-0.1,1-0.4,1.8-0.8,2.5c-0.4,0.6-1,1-1.7,1.3c-0.7,0.3-1.6,0.5-2.5,0.5
		c-0.9,0-1.8-0.1-2.6-0.4c-1.3-0.4-2.3-1.2-3.1-2.3c-0.7-1.1-1.1-2.5-1.1-4c0-1.2,0.2-2.3,0.6-3.3c0.4-1,1-1.8,1.8-2.4
		c0.6-0.5,1.3-0.8,2.1-1.1c0.8-0.3,1.7-0.4,2.5-0.4c0.8,0,1.6,0.1,2.5,0.5l0.8,0.3c0.2,0.1,0.3,0.1,0.4,0.1c0.2,0,0.3-0.1,0.4-0.2
		c0-0.1,0.1-0.2,0.2-0.3L218.6,101.2L218.6,101.2z M226.7,108v3.5c0,0.7,0,1.2,0.1,1.5c0.1,0.3,0.2,0.6,0.4,0.8
		c0.2,0.2,0.4,0.3,0.6,0.4c0.2,0.1,0.5,0.1,0.9,0.2v0.2h-6.2v-0.2c0.4,0,0.7-0.1,0.9-0.2c0.2-0.1,0.4-0.2,0.6-0.4
		c0.2-0.2,0.3-0.5,0.4-0.8c0.1-0.3,0.1-0.8,0.1-1.5v-7.2c0-0.7,0-1.2-0.1-1.5c-0.1-0.3-0.2-0.6-0.4-0.8c-0.2-0.2-0.4-0.3-0.6-0.4
		c-0.2-0.1-0.5-0.1-0.9-0.2v-0.2h4.7c0.8,0,1.3,0,1.6,0c1,0,1.8,0.2,2.4,0.4c0.6,0.3,1.1,0.7,1.5,1.2c0.4,0.5,0.5,1.1,0.5,1.8
		c0,1-0.4,1.8-1.2,2.4c-0.2,0.2-0.5,0.3-0.8,0.5c-0.3,0.1-0.7,0.2-1.1,0.3c0.4,0.2,0.7,0.3,0.9,0.5c0.2,0.1,0.3,0.3,0.4,0.5
		c0.1,0.2,0.3,0.6,0.5,1.1c0.6,1.2,1,2.1,1.3,2.6c0.3,0.6,0.5,1,0.7,1.2c0.2,0.2,0.3,0.3,0.5,0.4c0.2,0.1,0.4,0.1,0.6,0.2v0.2h-3.2
		c-0.2-0.4-0.3-0.6-0.3-0.7l-0.7-1.6c-0.4-0.9-0.8-1.8-1.2-2.5c-0.4-0.7-0.8-1.2-1.1-1.5c-0.2-0.1-0.4-0.2-0.6-0.3
		c-0.2-0.1-0.5-0.1-0.7-0.1H226.7L226.7,108z M226.7,107.8h0.4c0.8,0,1.4,0,1.7-0.1c0.4-0.1,0.7-0.3,1-0.6c0.7-0.7,1-1.5,1-2.4
		c0-0.5-0.1-1-0.3-1.5c-0.2-0.5-0.5-0.8-0.8-1.1c-0.3-0.2-0.6-0.4-1-0.5c-0.4-0.1-0.9-0.1-1.6-0.1h-0.4V107.8L226.7,107.8z
		 M244.2,101.2v0.2c-0.4,0-0.7,0.1-0.9,0.2c-0.2,0.1-0.4,0.2-0.6,0.4c-0.3,0.3-0.4,0.6-0.5,1.1c0,0.3-0.1,0.7-0.1,1.2v7.2
		c0,0.5,0,1,0.1,1.3c0.1,0.3,0.1,0.6,0.3,0.8c0.2,0.3,0.4,0.5,0.7,0.6c0.3,0.1,0.6,0.2,1.1,0.2v0.2h-6.2v-0.2c0.4,0,0.7-0.1,0.9-0.2
		c0.2-0.1,0.4-0.2,0.6-0.4c0.2-0.2,0.3-0.5,0.4-0.8c0.1-0.3,0.1-0.8,0.1-1.5v-7.2c0-0.7,0-1.2-0.1-1.5c-0.1-0.3-0.2-0.6-0.4-0.8
		c-0.2-0.2-0.4-0.3-0.6-0.4c-0.2-0.1-0.5-0.1-0.9-0.2v-0.2H244.2L244.2,101.2z M264.5,101.4c-0.4,0-0.7,0.1-0.9,0.2
		c-0.2,0.1-0.4,0.2-0.6,0.4c-0.1,0.1-0.3,0.3-0.3,0.5c-0.1,0.2-0.1,0.4-0.1,0.6c0,0.3-0.1,0.7-0.1,1.2v7.2c0,0.7,0,1.2,0.1,1.5
		c0.1,0.3,0.2,0.6,0.4,0.8c0.4,0.3,0.9,0.5,1.5,0.6v0.2h-6.2v-0.2c0.4,0,0.7-0.1,0.9-0.2c0.2-0.1,0.4-0.2,0.6-0.4
		c0.2-0.2,0.3-0.5,0.4-0.8c0.1-0.3,0.1-0.8,0.1-1.5v-8.7l-5,11.8H255l-5-11.6v8.6c0,0.7,0,1.2,0.1,1.5c0.1,0.3,0.2,0.6,0.4,0.8
		c0.2,0.2,0.4,0.3,0.6,0.4c0.2,0.1,0.5,0.1,0.9,0.2v0.2h-4.5v-0.2c0.4,0,0.7-0.1,0.9-0.2c0.2-0.1,0.4-0.2,0.6-0.4
		c0.2-0.2,0.3-0.5,0.4-0.8c0.1-0.3,0.1-0.8,0.1-1.5v-7.2c0-0.3,0-0.6,0-0.9c0-0.5-0.1-0.8-0.2-1.1c-0.2-0.3-0.4-0.5-0.7-0.7
		c-0.3-0.1-0.7-0.2-1.1-0.3v-0.2h4.2l4.2,10.5l4.4-10.5h4V101.4L264.5,101.4z M278.4,101.2l0.2,3.2l-0.2,0c-0.1-0.6-0.2-1-0.4-1.4
		c-0.2-0.4-0.5-0.7-0.9-1c-0.3-0.2-0.7-0.4-1.1-0.5c-0.4-0.1-1-0.1-1.7-0.1h-2.2v5.9h0.6c0.6,0,1,0,1.3-0.1c0.3-0.1,0.5-0.2,0.7-0.4
		c0.2-0.2,0.3-0.4,0.4-0.7c0.1-0.3,0.2-0.6,0.2-1.1l0.2,0l0,5.2h-0.2c-0.1-0.5-0.1-0.9-0.3-1.2c-0.1-0.3-0.3-0.6-0.5-0.8
		c-0.2-0.2-0.5-0.4-0.8-0.5c-0.3-0.1-0.7-0.1-1.2-0.1h-0.6v2.2c0,0.9,0,1.5,0.1,1.9c0,0.4,0.1,0.7,0.3,1c0.2,0.5,0.6,0.8,1,1
		c0.5,0.2,1.1,0.3,1.8,0.3c0.8,0,1.4-0.1,2-0.3c0.5-0.2,1-0.5,1.3-0.9c0.2-0.3,0.4-0.6,0.6-1c0.1-0.4,0.3-0.8,0.4-1.4l0.2,0
		l-0.1,3.9h-11.7v-0.2c0.4,0,0.7-0.1,0.9-0.2c0.2-0.1,0.4-0.2,0.6-0.4c0.2-0.2,0.3-0.5,0.4-0.8c0.1-0.3,0.1-0.8,0.1-1.5v-7.2
		c0-0.7,0-1.2-0.1-1.5c-0.1-0.3-0.2-0.6-0.4-0.8c-0.2-0.2-0.4-0.3-0.6-0.4c-0.2-0.1-0.5-0.1-0.9-0.2v-0.2H278.4L278.4,101.2z
		 M296.5,114.5h-6.4v-0.2c0.6-0.1,1-0.2,1.2-0.3c0.4-0.3,0.6-0.6,0.6-1.1c0-0.3-0.1-0.6-0.3-1.1l-0.2-0.4l-0.9-2.3h-4.3l-0.5,1.4
		l-0.2,0.6c-0.3,0.7-0.4,1.3-0.4,1.7c0,0.2,0.1,0.5,0.2,0.7c0.1,0.2,0.3,0.4,0.4,0.5c0.3,0.2,0.6,0.3,1,0.3v0.2h-4.4v-0.2
		c0.3,0,0.6-0.1,0.9-0.3c0.3-0.2,0.5-0.4,0.8-0.7c0.2-0.3,0.4-0.6,0.6-1c0.2-0.4,0.5-1.1,0.8-1.9l3.6-9.2h0.6l4.3,10.3
		c0.3,0.8,0.6,1.3,0.8,1.7c0.2,0.3,0.4,0.6,0.6,0.8c0.2,0.1,0.3,0.2,0.5,0.3c0.2,0.1,0.5,0.1,0.9,0.2V114.5L296.5,114.5z
		 M290.3,108.7l-2.1-5.1l-1.9,5.1H290.3L290.3,108.7z"/>
	<path d="M0,72.1V71c3.4,0,6.1-1,8-2.9c1-1.1,1.8-2.5,2.2-4.2c0.4-1.7,0.6-4.3,0.6-7.8V18c0-3.6-0.2-6.3-0.6-8.1
		C9.7,8.2,8.9,6.7,7.7,5.6c-1-0.9-2-1.5-3.2-2C3.3,3.3,1.8,3,0,3V1.8h32.5V3c-1.9,0.1-3.4,0.4-4.6,0.8c-1.2,0.4-2.2,1.1-3.2,2
		c-1.2,1.1-1.9,2.6-2.4,4.3c-0.4,1.7-0.6,4.4-0.6,8v29.7c0,4.6,0.1,8,0.3,10.2c0.2,2.2,0.7,4.1,1.4,5.5c1.2,2.5,2.9,4.3,5.3,5.4
		c2.4,1.1,5.5,1.7,9.3,1.7c4,0,7.5-0.5,10.2-1.6c2.8-1.1,5.1-2.8,6.8-5c1.2-1.5,2.2-3.3,2.9-5.3c0.7-2,1.5-4.5,2.1-7.7l1.3,0.1
		l-0.7,21.1H0L0,72.1z M66.1,37.4c0-5.8,1.2-11.1,3.7-16c2.5-4.9,6-9.2,10.7-12.9c3.5-2.7,7.3-4.8,11.3-6.3C95.9,0.7,100,0,104.1,0
		c5.2,0,10.3,1.2,15.2,3.5c4.9,2.3,9.2,5.6,12.9,9.8c6,6.9,9,14.7,9,23.4c0,4.4-0.8,8.6-2.4,12.7c-1.6,4.1-3.9,7.8-6.8,11.2
		c-3.7,4.2-8,7.4-13,9.7c-5,2.3-10.3,3.4-15.8,3.4c-5.4,0-10.6-1.1-15.5-3.4c-4.9-2.2-9.2-5.4-12.8-9.5c-2.8-3.2-5-6.8-6.5-10.9
		C66.9,46,66.1,41.8,66.1,37.4L66.1,37.4z M78.4,38.1c0,10,2.7,18.4,8.1,25.2c2.4,3.1,5,5.3,7.7,6.7c2.7,1.4,5.8,2.1,9.4,2.1
		c3.6,0,6.7-0.7,9.4-2.1c2.7-1.4,5.3-3.6,7.8-6.7c5.4-6.9,8.1-15.3,8.1-25.4c0-5.5-0.7-10.8-2.2-15.7c-1.5-4.9-3.6-9.1-6.3-12.5
		c-2.2-2.8-4.6-4.9-7.3-6.2c-2.7-1.3-5.8-1.9-9.5-1.9c-3.6,0-6.7,0.6-9.4,1.9c-2.6,1.3-5.1,3.3-7.3,6.2c-2.7,3.4-4.8,7.6-6.2,12.5
		C79.2,27.2,78.4,32.5,78.4,38.1L78.4,38.1z M176.1,3.4c-2.1,0-4.4,0.1-6.9,0.2c-5.3,0.3-9.2,0.9-11.7,2c-2.6,1.1-4.7,2.9-6.4,5.5
		c-1.6,2.4-2.7,5.7-3.5,9.8l-1.2-0.1l0.9-19h69l0.9,19l-1.2,0.1c-0.9-4.8-2.4-8.4-4.3-10.8c-2-2.5-4.8-4.2-8.6-5.3
		c-3.2-0.9-8.5-1.4-16.1-1.4V56c0,3.5,0.2,6.1,0.6,7.8c0.4,1.7,1.1,3.1,2.2,4.2c1,1,2,1.7,3.3,2.2c1.2,0.4,2.8,0.7,4.7,0.8v1.2
		h-32.6V71c2-0.1,3.6-0.4,4.8-0.8c1.2-0.4,2.3-1.2,3.2-2.2c1-1.1,1.8-2.5,2.2-4.2c0.4-1.7,0.6-4.3,0.6-7.8V3.4L176.1,3.4z
		 M222.7,37.4c0-5.8,1.2-11.1,3.7-16c2.5-4.9,6-9.2,10.7-12.9c3.5-2.7,7.3-4.8,11.3-6.3c4.1-1.5,8.1-2.2,12.2-2.2
		c5.2,0,10.3,1.2,15.2,3.5c4.9,2.3,9.2,5.6,12.9,9.8c6,6.9,9,14.7,9,23.4c0,4.4-0.8,8.6-2.4,12.7c-1.6,4.1-3.9,7.8-6.8,11.2
		c-3.7,4.2-8,7.4-13,9.7c-5,2.3-10.3,3.4-15.8,3.4c-5.4,0-10.6-1.1-15.5-3.4c-4.9-2.2-9.2-5.4-12.8-9.5c-2.8-3.2-5-6.8-6.5-10.9
		C223.4,46,222.7,41.8,222.7,37.4L222.7,37.4z M235,38.1c0,10,2.7,18.4,8.1,25.2c2.4,3.1,5,5.3,7.7,6.7c2.7,1.4,5.8,2.1,9.4,2.1
		c3.6,0,6.7-0.7,9.4-2.1c2.7-1.4,5.3-3.6,7.8-6.7c5.4-6.9,8.1-15.3,8.1-25.4c0-5.5-0.7-10.8-2.2-15.7c-1.5-4.9-3.6-9.1-6.3-12.5
		c-2.2-2.8-4.6-4.9-7.3-6.2c-2.7-1.3-5.8-1.9-9.5-1.9c-3.6,0-6.7,0.6-9.4,1.9c-2.6,1.3-5.1,3.3-7.3,6.2c-2.7,3.4-4.8,7.6-6.2,12.5
		C235.7,27.2,235,32.5,235,38.1L235,38.1z M307.5,71.8l0.2-21.3l1.2,0.2c1.4,5.4,3.1,9.7,5.1,12.8c3.7,5.7,8.4,8.6,14,8.6
		c3.9,0,7.2-1.3,9.7-4c2.6-2.6,3.8-6,3.8-10c0-1.8-0.3-3.5-0.9-5.4c-0.6-1.8-1.3-3.4-2.3-4.7c-1-1.3-2.4-2.6-4.2-3.9
		c-1.8-1.2-4.5-2.8-8.2-4.7c-3.3-1.6-5.7-3-7.5-4.2c-1.7-1.1-3.1-2.3-4.2-3.4c-2.9-3.2-4.4-7.2-4.4-11.8c0-2.8,0.6-5.6,1.7-8.2
		c1.1-2.6,2.7-4.9,4.8-6.8c3.6-3.4,7.9-5,12.9-5c1.6,0,3.1,0.2,4.5,0.5c1.4,0.3,3.2,1,5.5,1.9c1.7,0.7,2.9,1.1,3.5,1.3
		c0.6,0.2,1.2,0.3,1.7,0.3c1.2,0,2-0.9,2.4-2.6h1.2l0.3,20.5h-1.2c-0.9-3.3-1.7-5.8-2.4-7.5c-0.7-1.7-1.4-3.3-2.4-4.8
		c-1.7-2.7-3.5-4.7-5.5-6c-2-1.3-4.3-1.9-7-1.9c-3.8,0-6.8,1.3-9.1,3.9c-0.9,1.1-1.6,2.3-2.2,3.8c-0.5,1.4-0.8,2.9-0.8,4.3
		c0,5.7,3.7,10.4,11,13.9l7.2,3.5c5.6,2.7,9.6,5.6,12,8.8c2.8,3.6,4.2,7.7,4.2,12.5c0,3.1-0.6,6.2-1.9,9c-1.8,4-4.4,7.1-8,9.2
		c-3.6,2.2-7.7,3.3-12.6,3.3c-4.4,0-8.6-0.9-12.7-2.7c-2.1-0.9-3.4-1.5-3.8-1.6c-0.4-0.1-0.9-0.2-1.4-0.2c-1.6,0-2.8,0.8-3.4,2.5
		H307.5L307.5,71.8z"/>
</g>
</svg>
