<?xml version="1.0" encoding="utf-8"?><svg xmlns="http://www.w3.org/2000/svg" xmlns:xlink="http://www.w3.org/1999/xlink"><symbol viewBox="0 0 489.7 490" id="cart" xmlns="http://www.w3.org/2000/svg"><path d="M469.4 168.6h-54C414.3 75.4 338.2 0 244.8 0S75.3 75.4 74.3 168.6h-54C1.2 170.1-.8 186.5.2 192.4L47.8 473c1.7 9.8 10.2 17 20.1 17h353.8c10 0 18.5-7.2 20.1-17l47.7-280.6c1-5.9-1.4-22.4-20.1-23.8zM244.8 40.8c70.9 0 128.6 57.1 129.7 127.7H115.1c1.1-70.6 58.8-127.7 129.7-127.7zm159.7 408.4H85.2L44.4 209.4h400.8l-40.7 239.8z"/><path d="M159.7 298.7h170.1c11.3 0 20.4-9.1 20.4-20.4s-9.1-20.4-20.4-20.4H159.7c-11.3 0-20.4 9.1-20.4 20.4s9.2 20.4 20.4 20.4zm0 102h170.1c11.3 0 20.4-9.1 20.4-20.4s-9.1-20.4-20.4-20.4H159.7c-11.3 0-20.4 9.1-20.4 20.4s9.2 20.4 20.4 20.4z"/></symbol><symbol viewBox="0 0 360.5 722.8" id="mouse" xmlns="http://www.w3.org/2000/svg"><path d="M180.3 0C80.9 0 0 82.1 0 183.1v145.8C0 429.9 80.9 512 180.3 512s180.3-81.9 180.3-182.5V183.1C360.5 82.1 279.7 0 180.3 0zm146.3 329.5c0 82-65.7 148.6-146.4 148.6S33.8 411.2 33.8 328.9V183.1c0-82.3 65.7-149.2 146.4-149.2s146.4 66.9 146.4 149.2v146.4z"/><path d="M180.3 140.1c-9.4 0-17 7.6-17 17v59.3c0 9.4 7.6 17 17 17s17-7.6 17-17v-59.3c-.1-9.4-7.7-17-17-17zm96.4 486.3l-22.5-22.5-73.9 74-73.9-74-22.5 22.5 96.4 96.4z"/></symbol></svg>