<?xml version="1.0" encoding="utf-8"?>
<!-- Generator: Adobe Illustrator 22.1.0, SVG Export Plug-In . SVG Version: 6.00 Build 0)  -->
<svg version="1.1" id="Capa_1" xmlns="http://www.w3.org/2000/svg" xmlns:xlink="http://www.w3.org/1999/xlink" x="0px" y="0px"
	 viewBox="0 0 345 512" style="enable-background:new 0 0 345 512;" xml:space="preserve">
<g>
	<g>
		<path d="M247.5,377c-12.4,0-22.5,10.1-22.5,22.5s10.1,22.5,22.5,22.5c12.4,0,22.5-10.1,22.5-22.5S259.9,377,247.5,377z M247.5,407
			c-4.1,0-7.5-3.4-7.5-7.5s3.4-7.5,7.5-7.5s7.5,3.4,7.5,7.5S251.6,407,247.5,407z"/>
	</g>
</g>
<g>
	<g>
		<path d="M97.5,377C85.1,377,75,387.1,75,399.5S85.1,422,97.5,422s22.5-10.1,22.5-22.5S109.9,377,97.5,377z M97.5,407
			c-4.1,0-7.5-3.4-7.5-7.5s3.4-7.5,7.5-7.5s7.5,3.4,7.5,7.5S101.6,407,97.5,407z"/>
	</g>
</g>
<g>
	<g>
		<path d="M202.5,377h-60c-4.1,0-7.5,3.4-7.5,7.5v30c0,4.1,3.4,7.5,7.5,7.5h60c4.1,0,7.5-3.4,7.5-7.5v-30
			C210,380.4,206.6,377,202.5,377z M195,407h-45v-15h45V407z"/>
	</g>
</g>
<g>
	<g>
		<path d="M345,6.8c0-0.1,0-0.2,0-0.3c0-0.1,0-0.3-0.1-0.4c0-0.1-0.1-0.2-0.1-0.4c0-0.1-0.1-0.2-0.1-0.4c0-0.1-0.1-0.2-0.1-0.3
			c0-0.1-0.1-0.2-0.1-0.3c0-0.1-0.1-0.2-0.1-0.3c-0.1-0.1-0.1-0.2-0.2-0.3c-0.1-0.1-0.1-0.2-0.2-0.3c-0.1-0.1-0.1-0.2-0.2-0.3
			c-0.1-0.1-0.1-0.2-0.2-0.3c-0.1-0.1-0.1-0.2-0.2-0.3c-0.1-0.2-0.3-0.3-0.4-0.5c0,0-0.1-0.1-0.1-0.1c0,0-0.1,0-0.1-0.1
			c-0.2-0.1-0.3-0.3-0.5-0.4c-0.1-0.1-0.2-0.1-0.3-0.2c-0.1-0.1-0.2-0.2-0.3-0.2c-0.1-0.1-0.2-0.1-0.3-0.2c-0.1-0.1-0.2-0.1-0.3-0.2
			c-0.1-0.1-0.2-0.1-0.3-0.2c-0.1-0.1-0.2-0.1-0.3-0.2c-0.1,0-0.2-0.1-0.3-0.1c-0.1,0-0.3-0.1-0.4-0.1c-0.1,0-0.2-0.1-0.3-0.1
			c-0.1,0-0.3-0.1-0.4-0.1c-0.1,0-0.2,0-0.3-0.1c-0.1,0-0.3,0-0.4-0.1c-0.2,0-0.4,0-0.6,0c-0.1,0-0.1,0-0.2,0H7.5C7.4,0,7.4,0,7.3,0
			C7.1,0,7,0,6.8,0c-0.1,0-0.3,0-0.4,0.1c-0.1,0-0.2,0-0.3,0.1c-0.1,0-0.3,0.1-0.4,0.1c-0.1,0-0.2,0-0.3,0.1c-0.1,0-0.3,0.1-0.4,0.1
			c-0.1,0-0.2,0.1-0.3,0.1c-0.1,0-0.2,0.1-0.3,0.2C4.2,0.8,4.1,0.8,4,0.9C3.9,0.9,3.8,1,3.7,1.1C3.5,1.1,3.4,1.2,3.3,1.3
			C3.2,1.3,3.1,1.4,3,1.5C2.9,1.6,2.8,1.6,2.7,1.7C2.6,1.8,2.4,2,2.3,2.1c0,0-0.1,0-0.1,0.1c0,0-0.1,0.1-0.1,0.1
			C2,2.4,1.8,2.6,1.7,2.7C1.6,2.8,1.6,2.9,1.5,3C1.4,3.1,1.3,3.2,1.3,3.3C1.2,3.4,1.1,3.6,1.1,3.7C1,3.8,0.9,3.9,0.9,4
			C0.8,4.1,0.8,4.2,0.7,4.3c0,0.1-0.1,0.2-0.1,0.3c0,0.1-0.1,0.2-0.1,0.3c0,0.1-0.1,0.2-0.1,0.3c0,0.1-0.1,0.2-0.1,0.4
			c0,0.1-0.1,0.2-0.1,0.4c0,0.1,0,0.3-0.1,0.4c0,0.1,0,0.2,0,0.3C0,7,0,7.3,0,7.5v452c0,4.1,3.4,7.5,7.5,7.5H75v22.5
			c0,12.4,10.1,22.5,22.5,22.5s22.5-10.1,22.5-22.5V467h105v22.5c0,12.4,10.1,22.5,22.5,22.5c12.4,0,22.5-10.1,22.5-22.5V467h67.5
			c4.1,0,7.5-3.4,7.5-7.5V7.5C345,7.3,345,7,345,6.8z M15,26.9C44.1,62.1,60,106,60,152.4c0,4.1,3.4,7.5,7.5,7.5s7.5-3.4,7.5-7.5
			c0-50.9-17.8-99-50.4-137.4h295.8C287.8,53.3,270,101.5,270,152.4V332H75V182.4c0-4.1-3.4-7.5-7.5-7.5s-7.5,3.4-7.5,7.5V332H15
			V26.9z M105,489.5c0,4.1-3.4,7.5-7.5,7.5s-7.5-3.4-7.5-7.5V467h15V489.5z M255,489.5c0,4.1-3.4,7.5-7.5,7.5s-7.5-3.4-7.5-7.5V467
			h15V489.5z M330,452H15V347h315V452z M330,332h-45V152.4c0-46.3,15.9-90.2,45-125.5V332z"/>
	</g>
</g>
</svg>
