<?xml version="1.0" encoding="utf-8"?>
<!-- Generator: Adobe Illustrator 22.1.0, SVG Export Plug-In . SVG Version: 6.00 Build 0)  -->
<svg version="1.1" id="Capa_1" xmlns="http://www.w3.org/2000/svg" xmlns:xlink="http://www.w3.org/1999/xlink" x="0px" y="0px"
	 viewBox="0 0 512 512" style="enable-background:new 0 0 512 512;" xml:space="preserve">
		<path d="M462.5,271.9c-2.3-1-5-0.8-7.1,0.6c-2.1,1.4-3.4,3.7-3.4,6.3V340h-45v-61.2c0-2.5-1.3-4.9-3.4-6.3
			c-2.1-1.4-4.8-1.6-7.1-0.6c-27.8,12.1-46.4,38.4-49.1,68.1H112.5C50.5,340,0,390.5,0,452.5v52c0,4.1,3.4,7.5,7.5,7.5h452
			c4.1,0,7.5-3.4,7.5-7.5V421c27.5-14,45-42.4,45-73.5C512,314.7,492.6,285,462.5,271.9z M105,497H15v-44.5
			c0-51.2,39.7-93.4,90-97.2V497z M180,355h107v23.7H180V355z M180,393.7h107v15H180V393.7z M120,355h45v53.7h-45V355z M347,497H120
			v-73.3h45v50.8c0,4.1,3.4,7.5,7.5,7.5s7.5-3.4,7.5-7.5v-50.8h107v50.8c0,4.1,3.4,7.5,7.5,7.5s7.5-3.4,7.5-7.5v-50.8h45V497z
			 M347,408.7h-45V355h45V408.7z M467,291.4c16.5,11,27.4,28.8,29.6,48.6H467V291.4z M392,497h-30V394.9c7.6,10.8,17.8,19.9,30,26.1
			V497z M456.5,409.4c-2.7,1.2-4.5,3.9-4.5,6.9V497h-45v-80.8c0-3-1.8-5.7-4.5-6.9c-24.6-10.8-40.5-35-40.5-61.9
			c0-22.8,11.5-43.7,30-56.1v56.1c0,4.1,3.4,7.5,7.5,7.5h97.1C493.9,378.8,478.8,399.6,456.5,409.4z"/>
		<path d="M368.5,125h-2.7c-2.3-40.5-22.8-76.2-53.5-98.9c-0.4-0.4-0.9-0.8-1.5-1.1C289.1,9.3,262.4,0,233.5,0
			C205,0,177.9,8.9,155,25.8c-31.8,23.4-51.5,60.1-53.8,99.2h-2.7C77.8,125,61,141.8,61,162.5S77.8,200,98.5,200h2.7
			c4.1,69.4,61.9,124.6,132.3,124.6S361.6,269.4,365.8,200h2.7c20.7,0,37.5-16.8,37.5-37.5S389.2,125,368.5,125z M101,185h-2.5
			C86.1,185,76,174.9,76,162.5S86.1,140,98.5,140h2.5V185z M233.5,15c24.1,0,46.6,7.3,65.3,19.8C291,64.2,264.3,85,233.5,85
			c-30.7,0-57.5-20.9-65.3-50.2C187.6,21.8,210,15,233.5,15z M351,192.1c0,64.8-52.7,117.5-117.5,117.5S116,256.9,116,192.1v-59.6
			c0-33.6,14.6-65.8,39.6-87.9c11.4,32.7,42.6,55.4,78,55.4c35.5,0,66.6-22.7,77.9-55.3c24.3,21.5,39.6,52.9,39.6,87.8V192.1z
			 M368.5,185H366v-45h2.5c12.4,0,22.5,10.1,22.5,22.5S380.9,185,368.5,185z"/>
		<path d="M283.5,185h-100c-4.1,0-7.5,3.4-7.5,7.5c0,31.7,25.8,57.5,57.5,57.5s57.5-25.8,57.5-57.5C291,188.4,287.6,185,283.5,185z
			 M233.5,235c-20.9,0-38.3-15.1-41.8-35h83.7C271.8,219.9,254.4,235,233.5,235z"/>
</svg>
