<?xml version="1.0" encoding="utf-8"?>
<!-- Generator: Adobe Illustrator 22.1.0, SVG Export Plug-In . SVG Version: 6.00 Build 0)  -->
<svg version="1.1" id="Capa_1" xmlns="http://www.w3.org/2000/svg" xmlns:xlink="http://www.w3.org/1999/xlink" x="0px" y="0px"
	 viewBox="0 0 512 512" style="enable-background:new 0 0 512 512;" xml:space="preserve">
		<path d="M400.6,175.5L337,111.8c-2.9-2.9-7.7-2.9-10.6,0L305.2,133c-1.4,1.4-2.2,3.3-2.2,5.3s0.8,3.9,2.2,5.3l63.6,63.6
			c1.5,1.5,3.4,2.2,5.3,2.2s3.8-0.7,5.3-2.2l21.2-21.2c1.4-1.4,2.2-3.3,2.2-5.3S402,176.9,400.6,175.5z M321.1,138.3l10.6-10.6
			l10.6,10.6L331.7,149L321.1,138.3z M342.3,159.6l10.6-10.6l10.6,10.6l-10.6,10.6L342.3,159.6z M374.1,191.4l-10.6-10.6l10.6-10.6
			l10.6,10.6L374.1,191.4z"/>
		<path d="M502,78.1c-1-2.3-3-4-5.5-4.5c-2.5-0.5-5,0.3-6.7,2.1l-73.5,73.5l-53-53L437,22.5c1.8-1.8,2.5-4.3,2.1-6.7
			c-0.5-2.4-2.1-4.5-4.4-5.5c-23.1-9.9-48.4-12.7-73.2-8.1c-25.4,4.6-48.5,16.7-66.9,35c-0.1,0.1-0.2,0.2-0.3,0.4
			c0,0-0.1,0.1-0.1,0.1c-0.1,0.1-0.1,0.1-0.1,0.2c-23.7,24-36.7,55.8-36.7,89.5l0,53.3L15.4,422.4C5.5,432.3,0,445.5,0,459.5
			s5.5,27.2,15.4,37.1C25.6,506.9,39.1,512,52.5,512s26.9-5.1,37.1-15.4L331,255.2l53.3,0c34.1,0,66.1-13.3,90.1-37.3
			c18.4-18.3,30.6-41.3,35.4-66.7C514.4,126.5,511.8,101.2,502,78.1z M418.1,20.1l-65.4,65.4l-42.5-42.5
			C339.9,16.9,380.6,8.3,418.1,20.1z M384.3,240.2c0,0-56.4,0-56.4,0c-2,0-3.9,0.8-5.3,2.2L79,486c-14.6,14.6-38.4,14.6-53,0
			c-7.1-7.1-11-16.5-11-26.5c0-10,3.9-19.4,11-26.5l244-244c1.4-1.4,2.2-3.3,2.2-5.3l0-56.4c0-27.3,9.7-53.2,27.4-73.6l158.7,158.7
			C437.8,230.4,411.8,240.2,384.3,240.2z M469,201.8l-42-42l65.2-65.2C503.6,131.9,494.9,172.4,469,201.8z"/>
		<path d="M68.4,443.6c-4.3-4.3-9.9-6.6-15.9-6.6c-6,0-11.7,2.3-15.9,6.6c-8.8,8.8-8.8,23,0,31.8c4.3,4.3,9.9,6.6,15.9,6.6
			c6,0,11.7-2.3,15.9-6.6C77.2,466.7,77.2,452.4,68.4,443.6z M57.8,464.8c-1.4,1.4-3.3,2.2-5.3,2.2s-3.9-0.8-5.3-2.2
			c-2.9-2.9-2.9-7.7,0-10.6c1.4-1.4,3.3-2.2,5.3-2.2s3.9,0.8,5.3,2.2C60.7,457.1,60.7,461.9,57.8,464.8z"/>
		<path d="M290,222.2c-8.8-8.8-23-8.8-31.8,0l-85.1,85.1c-2.9,2.9-2.9,7.7,0,10.6c2.9,2.9,7.7,2.9,10.6,0l85.1-85.1
			c2.9-2.9,7.7-2.9,10.6,0c2.9,2.9,2.9,7.7,0,10.6L94.6,428.2c-1.5-2.1-3.2-4-5-5.8c-1.7-1.7-3.6-3.3-5.5-4.8l78.4-78.4
			c2.9-2.9,2.9-7.7,0-10.6c-2.9-2.9-7.7-2.9-10.6,0l-85.1,85.1c-1.7,1.7-2.5,4.2-2.1,6.6s1.9,4.4,4.1,5.5c3.8,1.8,7.2,4.3,10.2,7.3
			c3.1,3.1,5.6,6.6,7.4,10.5c1,2.2,3.1,3.8,5.5,4.2c0.4,0.1,0.9,0.1,1.3,0.1c2,0,3.9-0.8,5.3-2.2L290,254
			C298.8,245.3,298.8,231,290,222.2z"/>
</svg>
