<?xml version="1.0" encoding="utf-8"?>
<!-- Generator: Adobe Illustrator 22.1.0, SVG Export Plug-In . SVG Version: 6.00 Build 0)  -->
<svg version="1.1" id="Layer_1" xmlns="http://www.w3.org/2000/svg" xmlns:xlink="http://www.w3.org/1999/xlink" x="0px" y="0px"
	 viewBox="0 0 512 449.4" style="enable-background:new 0 0 512 449.4;" xml:space="preserve">
<path d="M504.8,217.4l-42.1-30.7c-3-2.2-6.6-3.4-10.3-3.4h-23.2v-57.5c8.5-6.4,13.9-16.5,13.9-27.9c0-19.2-15.6-34.9-34.9-34.9
	H258.7c-4.1,0-7.5,3.4-7.5,7.5c0,4.1,3.4,7.5,7.5,7.5h149.6c10.9,0,19.9,8.9,19.9,19.9s-8.9,19.9-19.9,19.9H209.8
	c-6-9.5-8.9-20.7-8.1-32.2c0.2-2.5,0.2-5,0.2-7.5h26.6c4.1,0,7.5-3.4,7.5-7.5c0-4.1-3.4-7.5-7.5-7.5h-28.1
	c-2.9-15-9.7-28.8-19.9-39.5c-2.8-3-7.6-3.1-10.6-0.3c-3,2.8-3.1,7.6-0.3,10.6c12.2,12.9,18.5,31.4,17.2,50.7
	c-1.3,19.8,5.9,39.1,19.8,52.9l152.1,152.1c7.6,7.6,18.3,11.2,28.8,9.8c21.1-2.8,41.8,4.2,56.8,19.2c13.1,13.1,20.2,30.6,19.8,49.2
	c-0.4,18.6-8.1,35.8-21.8,48.5c-25.6,23.7-65.8,23.9-91.6,0.4c-16.3-14.9-24.4-36.9-21.6-58.8c1.4-10.9-2.2-21.5-9.8-29.1
	L169.9,179.5c-14.3-14.3-34.2-21.5-54.4-19.7c-15.1,1.4-29.3-2.3-41.2-10.6c-13.8-9.6-22.8-24.3-25.7-41.7l35.6,16
	c6.3,2.9,13.4,3.1,19.9,0.6s11.7-7.3,14.5-13.7L136,71.8c2.9-6.3,3.1-13.4,0.6-19.9c-2.5-6.5-7.3-11.7-13.6-14.5L91.7,23.3
	c17.7-9.2,37.4-10.9,54.7-4.6c3.9,1.4,8.2-0.6,9.6-4.5c1.4-3.9-0.6-8.2-4.5-9.6c-23.1-8.5-49.4-5.4-72.2,8.4
	c-3.9,2.4-6.2,6.7-5.9,11.3c0.3,4.6,3.1,8.6,7.3,10.5l36,16.2c2.7,1.2,4.7,3.4,5.8,6.1c0.7,1.9,0.9,3.9,0.5,5.9h-19.4c0,0,0,0,0,0
	c-19.2,0-34.8,15.6-34.8,34.9c0,0.8,0,1.6,0.1,2.3l-18.6-8.4c-4-1.8-8.7-1.3-12.3,1.3c-3.6,2.6-5.5,6.8-5.1,11.2
	c2.4,23.5,14.3,44.4,32.7,57.2c5.4,3.7,11.1,6.7,17.2,8.9v12.9H59.6c-3.7,0-7.3,1.2-10.3,3.4L7.2,217.4C2.7,220.7,0,226,0,231.6
	v155.4c0,15.2,12.3,27.5,27.5,27.5h301.2c3.4,4.9,7.4,9.4,11.9,13.5c15.7,14.3,35.7,21.4,55.7,21.4c20.2,0,40.5-7.3,56.2-21.9
	c4.3-4,8.2-8.4,11.5-13.1h20.5c15.2,0,27.5-12.3,27.5-27.5V231.6C512,226,509.3,220.7,504.8,217.4z M83.9,98
	c0-10.9,8.9-19.9,19.9-19.9c4.1,0,8.1,1.3,11.4,3.6l-10.2,22.7c-1.2,2.7-3.4,4.7-6.1,5.8c-2.8,1-5.7,0.9-8.4-0.3l-3.5-1.6
	C84.9,105.2,83.9,101.7,83.9,98z M124.6,174.7c9.4,0.5,18.5,3.5,26.3,8.7h-26.3V174.7z M97.8,174.3c3.9,0.6,7.8,0.9,11.8,0.8v8.2
	H97.8V174.3z M228.4,399.4c1.9-3.8,3-8,3-12.5v-26c0-4.1-3.4-7.5-7.5-7.5s-7.5,3.4-7.5,7.5v26c0,6.9-5.6,12.5-12.5,12.5H27.5
	c-6.9,0-12.5-5.6-12.5-12.5V231.6c0-0.8,0.4-1.6,1-2l42.1-30.7c0.4-0.3,0.9-0.5,1.5-0.5h107.9l49,49v83.2c0,4.1,3.4,7.5,7.5,7.5
	s7.5-3.4,7.5-7.5v-68.2l77.2,77.2c4.3,4.3,6.3,10.4,5.5,16.6c-1.9,14.9,0.3,29.8,6.1,43.3H228.4z M453.9,198.9l27.6,20.1H335.1
	l27.6-20.1c0.4-0.3,0.9-0.5,1.5-0.5h88.3C452.9,198.4,453.4,198.5,453.9,198.9z M364.1,183.4c-3.7,0-7.3,1.2-10.3,3.4L309.6,219
	c-0.2,0-0.3,0-0.5,0l-86.2-86.2h164.4v50.5H364.1z M414.2,132.3v51.1h-11.8v-50.5h5.9C410.3,132.8,412.3,132.7,414.2,132.3z
	 M497,386.9c0,6.9-5.6,12.5-12.5,12.5h-12.1c4.2-9.7,6.5-20.2,6.7-31.1c0.4-22.7-8.2-44.1-24.2-60.1c-18.4-18.4-43.6-26.9-69.4-23.5
	c-5.9,0.8-12-1.3-16.3-5.6L324,234h170.5c1.4,0,2.5,1.1,2.5,2.5V386.9z"/>
<path d="M473.8,247.4h-20.3c-4.1,0-7.5,3.4-7.5,7.5c0,4.1,3.4,7.5,7.5,7.5h20.3c4.1,0,7.5-3.4,7.5-7.5
	C481.3,250.7,477.9,247.4,473.8,247.4z"/>
<path d="M473.8,266.2h-20.3c-4.1,0-7.5,3.4-7.5,7.5s3.4,7.5,7.5,7.5h20.3c4.1,0,7.5-3.4,7.5-7.5S477.9,266.2,473.8,266.2z"/>
<path d="M159.1,251.5h-84c-4.1,0-7.5,3.4-7.5,7.5v38.8c0,4.1,3.4,7.5,7.5,7.5h84c4.1,0,7.5-3.4,7.5-7.5V259
	C166.6,254.9,163.3,251.5,159.1,251.5z M151.6,290.3h-69v-23.8h69V290.3z"/>
<path d="M440.1,350.2l-6.3-6.3l-2.3-8.6c-0.7-2.6-2.7-4.6-5.3-5.3l-8.6-2.3l-6.3-6.3c-1.9-1.9-4.6-2.6-7.2-1.9l-8.6,2.3l-8.6-2.3
	c-2.6-0.7-5.4,0-7.2,1.9l-6.3,6.3l-8.6,2.3c-2.6,0.7-4.6,2.7-5.3,5.3l-2.3,8.6l-6.3,6.3c-1.9,1.9-2.6,4.7-1.9,7.2l2.3,8.6l-2.3,8.6
	c-0.7,2.6,0.1,5.3,1.9,7.2l6.3,6.3l2.3,8.6c0.7,2.6,2.7,4.6,5.3,5.3l8.6,2.3l6.3,6.3c1.9,1.9,4.7,2.6,7.2,1.9l8.6-2.3l8.6,2.3
	c0.6,0.2,1.3,0.3,1.9,0.3c2,0,3.9-0.8,5.3-2.2l6.3-6.3l8.6-2.3c2.6-0.7,4.6-2.7,5.3-5.3l2.3-8.6l6.3-6.3c1.9-1.9,2.6-4.7,1.9-7.2
	l-2.3-8.6l2.3-8.6C442.7,354.8,442,352.1,440.1,350.2z M421.8,378.9c-0.9,0.9-1.6,2.1-1.9,3.4l-1.7,6.3l-6.3,1.7
	c-1.3,0.3-2.4,1-3.4,1.9l-4.6,4.6l-6.3-1.7c-0.6-0.2-1.3-0.3-1.9-0.3s-1.3,0.1-1.9,0.3l-6.3,1.7l-4.6-4.6c-0.9-0.9-2.1-1.6-3.4-1.9
	l-6.3-1.7l-1.7-6.3c-0.3-1.3-1-2.4-1.9-3.4l-4.6-4.6l1.7-6.3c0.3-1.3,0.3-2.6,0-3.9l-1.7-6.3l4.6-4.6c0.9-0.9,1.6-2.1,1.9-3.4
	l1.7-6.3l6.3-1.7c1.3-0.3,2.4-1,3.4-1.9l4.6-4.6l6.3,1.7c1.3,0.3,2.6,0.3,3.9,0l6.3-1.7l4.6,4.6c0.9,0.9,2.1,1.6,3.4,1.9l6.3,1.7
	l1.7,6.3c0.3,1.3,1,2.4,1.9,3.4l4.6,4.6l-1.7,6.3c-0.3,1.3-0.3,2.6,0,3.9l1.7,6.3L421.8,378.9z"/>
<path d="M304,291.1c4.9,0,9.5-1.9,13-5.4c3.5-3.5,5.4-8.1,5.4-13c0-4.9-1.9-9.5-5.4-13L221,163.7c-3.5-3.5-8.1-5.4-13-5.4
	s-9.5,1.9-13,5.4c-3.5,3.5-5.4,8.1-5.4,13s1.9,9.5,5.4,13l95.9,95.9C294.4,289.2,299.1,291.1,304,291.1z M204.6,176.8
	c0-0.5,0.1-1.5,1-2.4s1.9-1,2.4-1c0.5,0,1.5,0.1,2.4,1l95.9,95.9c0.9,0.9,1,1.9,1,2.4c0,0.5-0.1,1.5-1,2.4s-1.9,1-2.4,1
	c-0.5,0-1.5-0.1-2.4-1l-95.9-95.9C204.8,178.3,204.6,177.3,204.6,176.8z"/>
</svg>
