<?xml version="1.0" encoding="utf-8"?><svg xmlns="http://www.w3.org/2000/svg" xmlns:xlink="http://www.w3.org/1999/xlink"><symbol viewBox="0 0 18 10.6" id="arrow" xmlns="http://www.w3.org/2000/svg"><path d="M9.7 10.3l8-8c.2-.2.3-.5.3-.7 0-.3-.1-.5-.3-.7l-.6-.6c-.4-.4-1-.4-1.4 0L9 7 2.3.3C2.1.1 1.8 0 1.6 0c-.3 0-.5.1-.7.3L.3.9c-.2.2-.3.4-.3.7 0 .3.1.5.3.7l8 8c.2.2.4.3.7.3.3 0 .5-.1.7-.3z"/></symbol><symbol viewBox="0 0 384 384" id="call" xmlns="http://www.w3.org/2000/svg"><path d="M353.188 252.052c-23.51 0-46.594-3.677-68.469-10.906-10.719-3.656-23.896-.302-30.438 6.417l-43.177 32.594c-50.073-26.729-80.917-57.563-107.281-107.26l31.635-42.052c8.219-8.208 11.167-20.198 7.635-31.448-7.26-21.99-10.948-45.063-10.948-68.583C132.146 13.823 118.323 0 101.333 0h-70.52C13.823 0 0 13.823 0 30.813 0 225.563 158.438 384 353.188 384c16.99 0 30.813-13.823 30.813-30.813v-70.323c-.001-16.989-13.824-30.812-30.813-30.812z"/></symbol><symbol viewBox="0 0 46 42" id="heart" xmlns="http://www.w3.org/2000/svg"><path d="M33.781.695c-2.496 0-4.784.791-6.802 2.351-1.933 1.496-3.221 3.4-3.979 4.786-.758-1.385-2.046-3.29-3.98-4.786-2.017-1.56-4.305-2.35-6.801-2.35C5.253.695 0 6.392 0 13.947 0 22.11 6.553 27.695 16.475 36.15a571.533 571.533 0 015.579 4.798 1.435 1.435 0 001.892 0c1.985-1.735 3.895-3.363 5.58-4.8C39.447 27.697 46 22.112 46 13.95 46 6.392 40.747.694 33.781.694z"/></symbol></svg>