<?xml version="1.0" encoding="utf-8"?>
<!-- Generator: Adobe Illustrator 22.0.1, SVG Export Plug-In . SVG Version: 6.00 Build 0)  -->
<svg version="1.1" id="Layer_1" xmlns="http://www.w3.org/2000/svg" xmlns:xlink="http://www.w3.org/1999/xlink" x="0px" y="0px"
	 viewBox="0 0 682 682" style="enable-background:new 0 0 682 682;" xml:space="preserve">
<path class="st0" d="M553.3,370.3V414c0,19.8-16.1,36-36,36h-56.6c-19.8,0-36-16.1-36-36v-43.7H254.1V414c0,19.8-16.1,36-36,36
	h-56.6c-19.8,0-36-16.1-36-36v-43.7H21v218c0,24.6,20,44.5,44.5,44.5h550.3c24.6,0,44.5-20,44.5-44.5v-218H553.3z M515.9,315.5
	h-53.7v97h53.7V315.5z M615.8,159.7H65.5c-24.6,0-44.5,20-44.5,44.5v128.7h104.5V314c0-19.8,16.1-36,36-36h56.6
	c19.8,0,36,16.1,36,36v18.8h170.6V314c0-19.8,16.1-36,36-36h56.6c19.8,0,36,16.1,36,36v18.8h107V204.2
	C660.4,179.6,640.4,159.7,615.8,159.7z M163,315.5v97h53.7v-97H163z"/>
<path class="st0" d="M219.7,122.2V93.4c0-5.5,4.6-10,10.2-10H449c5.6,0,10.2,4.5,10.2,10v28.8h37.5V93.4c0-26.2-21.4-47.5-47.6-47.5
	H229.8c-26.3,0-47.6,21.3-47.6,47.5v28.8H219.7z"/>
</svg>
