<?xml version="1.0" encoding="utf-8"?>
<!-- Generator: Adobe Illustrator 22.0.1, SVG Export Plug-In . SVG Version: 6.00 Build 0)  -->
<svg version="1.1" id="Capa_1" xmlns="http://www.w3.org/2000/svg" xmlns:xlink="http://www.w3.org/1999/xlink" x="0px" y="0px"
	 viewBox="0 0 512 512" style="enable-background:new 0 0 512 512;" xml:space="preserve">
		<path class="st0" d="M511.4,251.8l-52.6-180C456.9,65.4,451,61,444.4,61H195.3V30c8.3,0,15-6.7,15-15s-6.7-15-15-15
			c-9.1,0-75.3,0-90,0c-8.3,0-15,6.7-15,15s6.7,15,15,15v31H67.6c-6.7,0-12.5,4.4-14.4,10.8l-52.6,180c-1.3,4.5-0.4,9.4,2.4,13.2
			c2.8,3.8,7.3,6,12,6h482c4.7,0,9.2-2.2,12-6C511.8,261.2,512.7,256.3,511.4,251.8z M165.3,61h-30V30h30V61z"/>
		<path class="st0" d="M497,431h-26V301H41v130H15c-8.3,0-15,6.7-15,15v51c0,8.3,6.7,15,15,15h482c8.3,0,15-6.7,15-15v-51
			C512,437.7,505.3,431,497,431z M211,431H91v-85c0-8.3,6.7-15,15-15h90c8.3,0,15,6.7,15,15V431z M421,431H241v-85
			c0-8.3,6.7-15,15-15h150c8.3,0,15,6.7,15,15V431z"/>
		<rect x="271" y="351" class="st0" width="45" height="60"/>
		<rect x="346" y="351" class="st0" width="45" height="60"/>
</svg>
