<?xml version="1.0" encoding="utf-8"?>
<!-- Generator: Adobe Illustrator 22.0.1, SVG Export Plug-In . SVG Version: 6.00 Build 0)  -->
<svg version="1.1" id="Layer_1" xmlns="http://www.w3.org/2000/svg" xmlns:xlink="http://www.w3.org/1999/xlink" x="0px" y="0px"
	 viewBox="0 0 512 512" style="enable-background:new 0 0 512 512;" xml:space="preserve">
		<path class="st0" d="M501.5,450.1l-33.4-33.4c-6.5-6.5-17.1-6.5-23.6,0c-6.5,6.5-6.5,17.1,0,23.6l4.9,4.9H129.3l4.9-4.9
			c6.5-6.5,6.5-17.1,0-23.6c-6.5-6.5-17.1-6.5-23.6,0l-33.4,33.4c-3.3,3.3-4.9,7.7-4.9,11.8c0,4.2,1.7,8.6,4.9,11.8l33.4,33.4
			c6.5,6.5,17.1,6.5,23.6,0c6.5-6.5,6.5-17.1,0-23.6l-4.9-4.9h320.1l-4.9,4.9c-6.5,6.5-6.5,17.1,0,23.6c6.5,6.5,17.1,6.5,23.6,0
			l33.4-33.4c3.3-3.3,4.9-7.7,4.9-11.8C506.4,457.6,504.7,453.3,501.5,450.1z"/>
		<path class="st0" d="M77.2,349.9l-4.9,4.9V57l4.9,4.9c6.5,6.5,17.1,6.5,23.6,0c6.5-6.5,6.5-17.1,0-23.6L67.5,4.9
			c-6.5-6.5-17.1-6.5-23.6,0L10.5,38.3c-6.5,6.5-6.5,17.1,0,23.6c6.5,6.5,17.1,6.5,23.6,0L39,57v297.8l-4.9-4.9
			c-6.5-6.5-17.1-6.5-23.6,0c-6.5,6.5-6.5,17.1,0,23.6l33.4,33.4c6.5,6.5,17.1,6.5,23.6,0l33.4-33.4c6.5-6.5,6.5-17.1,0-23.6
			C94.3,343.4,83.8,343.4,77.2,349.9z"/>
		<path class="st0" d="M423,133.6h83.5V16.7C506.4,7.5,499,0,489.7,0H261.6v133.6H345c9.2,0,16.7,7.5,16.7,16.7
			c0,9.2-7.5,16.7-16.7,16.7h-83.5V217c0,9.2-7.5,16.7-16.7,16.7s-16.7-7.5-16.7-16.7V0h-72.3c-9.2,0-16.7,7.5-16.7,16.7v345
			c0,9.2,7.5,16.7,16.7,16.7h72.3V295c0-9.2,7.5-16.7,16.7-16.7s16.7,7.5,16.7,16.7v83.5h228.2c9.2,0,16.7-7.5,16.7-16.7V167H423
			c-9.2,0-16.7-7.5-16.7-16.7S413.7,133.6,423,133.6z"/>
</svg>
