<?xml version="1.0" encoding="utf-8"?>
<!-- Generator: Adobe Illustrator 22.0.1, SVG Export Plug-In . SVG Version: 6.00 Build 0)  -->
<svg version="1.1" id="Layer_1" xmlns="http://www.w3.org/2000/svg" xmlns:xlink="http://www.w3.org/1999/xlink" x="0px" y="0px"
	 viewBox="0 0 512 512" style="enable-background:new 0 0 512 512;" xml:space="preserve">
		<path id="Shape" class="st0" d="M384,477.9H128c-4.7,0-8.5,3.8-8.5,8.5v8.5c0,9.4,7.6,17.1,17.1,17.1h238.9
			c9.4,0,17.1-7.6,17.1-17.1v-8.5C392.5,481.7,388.7,477.9,384,477.9z"/>
		<path id="Shape_1_" class="st0" d="M162.1,460.8h187.7c0-28.3-22.9-51.2-51.2-51.2h-85.3C185.1,409.6,162.1,432.5,162.1,460.8z"/>
		<path id="Shape_2_" class="st0" d="M273.1,85.3V17.1c0-4.5-1.8-8.9-5-12c-3.2-3.2-7.5-5.1-12-5c-9.4,0-17,7.7-17.1,17.1v375.5
			h34.1L273.1,85.3z"/>
		<path id="Shape_3_" class="st0" d="M25.6,85.3h35.2c6.1,6,13.6,10.5,21.7,13.2L20.1,238.9h18.7l55.1-124.1L149,238.9h18.7
			L105.5,99c8.4-2.5,15.9-7.2,21.8-13.7h94.5V51.2H119.5c-5.4,0-10.4,2.5-13.7,6.8c-2.3,3.1-6.8,8.3-10.9,8.4h-0.1
			c-5.2-1.2-9.7-4.1-12.9-8.4c-3.2-4.3-8.3-6.8-13.7-6.8H25.6c-9.4,0-17.1,7.6-17.1,17.1S16.2,85.3,25.6,85.3z"/>
		<path id="Shape_4_" class="st0" d="M406.5,99l-62.2,139.9H363l55.1-124.1l55.1,124.1h18.7L429.6,98.5c8.1-2.7,15.5-7.2,21.7-13.2
			h35.2c9.4,0,17.1-7.6,17.1-17.1s-7.6-17.1-17.1-17.1h-42.7c-5.4,0-10.4,2.5-13.7,6.8c-3.2,4.2-7.7,7.2-12.9,8.4h-0.1
			c-4.1-0.1-8.6-5.3-10.9-8.4c-3.2-4.3-8.3-6.8-13.7-6.8H290.1v34.1h94.5C390.6,91.8,398.1,96.5,406.5,99z"/>
		<path id="Shape_5_" class="st0" d="M179.2,298.7v-34.1c0-4.7-3.8-8.5-8.5-8.5H17.1c-4.7,0-8.5,3.8-8.5,8.5v34.1
			c0,11.3,4.5,22.2,12.5,30.2s18.9,12.5,30.2,12.5h85.3C160.1,341.3,179.2,322.2,179.2,298.7z"/>
		<path id="Shape_6_" class="st0" d="M494.9,256H341.3c-4.7,0-8.5,3.8-8.5,8.5v34.1c0,23.6,19.1,42.7,42.7,42.7h85.3
			c23.6,0,42.7-19.1,42.7-42.7v-34.1C503.5,259.8,499.6,256,494.9,256z"/>
</svg>
