<?xml version="1.0" encoding="utf-8"?>
<!-- Generator: Adobe Illustrator 22.0.1, SVG Export Plug-In . SVG Version: 6.00 Build 0)  -->
<svg version="1.1" id="Capa_1" xmlns="http://www.w3.org/2000/svg" xmlns:xlink="http://www.w3.org/1999/xlink" x="0px" y="0px"
	 viewBox="0 0 512 512" style="enable-background:new 0 0 512 512;" xml:space="preserve">
<path class="st0" d="M499.8,63.8l-160.7-30c-2.4-0.4-4.9-0.3-7.2,0.4L175.2,82.9l-156.6-39c-4.5-1.1-9.2-0.1-12.9,2.7
	C2.1,49.5,0,53.9,0,58.5v365c0,6.9,4.7,12.9,11.4,14.6l160.7,40c1.2,0.3,2.4,0.4,3.6,0.4c1.5,0,3-0.2,4.5-0.7l157.1-48.9l157,29.3
	c4.4,0.8,8.9-0.4,12.3-3.2c3.4-2.9,5.4-7.1,5.4-11.5v-365C512,71.3,506.9,65.1,499.8,63.8z M422,236.9v106.6c0,4.3-1.9,8.5-5.2,11.3
	c-3.3,2.8-7.6,4.1-11.9,3.5l-67.4-9.5l-157.9,48.7c-0.1,0-0.2,0.1-0.4,0.1c-0.2,0.1-0.4,0.1-0.6,0.2c-0.2,0-0.3,0.1-0.5,0.1
	c-0.2,0-0.4,0.1-0.6,0.1c-0.2,0-0.4,0-0.6,0.1c-0.2,0-0.4,0-0.5,0.1c-0.3,0-0.7,0-1,0c0,0-0.1,0-0.1,0c0,0,0,0,0,0s0,0,0,0
	c0,0-0.1,0-0.1,0c-0.3,0-0.7,0-1,0c-0.2,0-0.3,0-0.5-0.1c-0.2,0-0.4,0-0.6-0.1c-0.2,0-0.4-0.1-0.6-0.1c-0.2,0-0.4-0.1-0.5-0.1
	c-0.2,0-0.4-0.1-0.6-0.1c-0.1,0-0.2,0-0.3-0.1l-4.5-1.3c-8-2.3-12.5-10.6-10.2-18.6c2.3-8,10.6-12.5,18.6-10.2l0.2,0.1l100.3-31
	v-94.7c0-6.6,4.3-12.4,10.6-14.3l25-7.6c7.9-2.4,16.3,2.1,18.7,10s-2.1,16.3-10,18.7l-14.4,4.4v74.3l26.5-8.2c0.3-0.1,0.7-0.2,1-0.2
	c0.2,0,0.4-0.1,0.6-0.2c0.3,0,0.5-0.1,0.8-0.1c0.3,0,0.6-0.1,0.9-0.1c0.4,0,0.9,0,1.3,0c0.1,0,0.2,0,0.3,0c0.5,0,1.1,0.1,1.6,0.1
	l53.6,7.6v-76l-16.6-1.9c-8.2-0.9-14.1-8.4-13.2-16.6c0.9-8.2,8.4-14.1,16.6-13.2l13.2,1.5V153l-54.5-7.7L236,176.8v21.7
	c0,8.3-6.7,15-15,15s-15-6.7-15-15v-12.3l-26.6,8.1c-0.2,0.1-0.3,0.1-0.5,0.1c-0.2,0-0.3,0.1-0.5,0.1c-0.2,0-0.4,0.1-0.6,0.1
	c-0.2,0-0.3,0.1-0.5,0.1c-0.2,0-0.4,0-0.6,0.1c-0.2,0-0.3,0-0.5,0.1c-0.2,0-0.4,0-0.6,0c-0.2,0-0.3,0-0.5,0c-0.2,0-0.4,0-0.6,0
	c-0.1,0-0.3,0-0.4,0c-0.2,0-0.4,0-0.7-0.1c-0.1,0-0.3,0-0.4,0c-0.3,0-0.5-0.1-0.8-0.1c-0.1,0-0.2,0-0.3-0.1
	c-0.4-0.1-0.7-0.2-1.1-0.3L120,179.9v84.8l55.5,15.7l30.5-9.4v-12.4c0-8.3,6.7-15,15-15s15,6.7,15,15V282c0,6.6-4.3,12.4-10.6,14.3
	l-45.3,14c-1.4,0.4-2.9,0.7-4.4,0.7c-1.4,0-2.7-0.2-4.1-0.6L120,295.8v56.4l4.3,1.2c8,2.3,12.5,10.6,10.2,18.6
	c-2.3,8-10.6,12.5-18.6,10.2l-15.1-4.4C94.4,376,90,370.2,90,363.5V276V160c0-4.7,2.2-9.1,6-12c3.8-2.8,8.6-3.7,13.2-2.4l65.7,18.8
	l157.1-48.7c2.1-0.7,4.4-0.8,6.5-0.5l70.7,10c7.4,1,12.9,7.4,12.9,14.9L422,236.9L422,236.9z"/>
</svg>
