<?xml version="1.0" encoding="utf-8"?>
<!-- Generator: Adobe Illustrator 22.1.0, SVG Export Plug-In . SVG Version: 6.00 Build 0)  -->
<svg version="1.1" id="Layer_1" xmlns="http://www.w3.org/2000/svg" xmlns:xlink="http://www.w3.org/1999/xlink" x="0px" y="0px"
	 viewBox="0 0 167 108.9" style="enable-background:new 0 0 167 108.9;" xml:space="preserve">
<style type="text/css">
	.st0{fill-rule:evenodd;clip-rule:evenodd;fill:#EC6907;}
	.st1{fill-rule:evenodd;clip-rule:evenodd;fill:#E2000F;}
	.st2{fill-rule:evenodd;clip-rule:evenodd;fill:#FFFFFF;}
	.st3{fill-rule:evenodd;clip-rule:evenodd;fill:#FFCB00;}
	.st4{fill-rule:evenodd;clip-rule:evenodd;fill:#F6A840;}
	.st5{fill-rule:evenodd;clip-rule:evenodd;fill:#BC93BC;}
	.st6{fill-rule:evenodd;clip-rule:evenodd;fill:#56AF2F;}
	.st7{fill-rule:evenodd;clip-rule:evenodd;fill:#9B6CA5;}
	.st8{fill-rule:evenodd;clip-rule:evenodd;fill:#0080C6;}
	.st9{fill-rule:evenodd;clip-rule:evenodd;fill:#D2D700;}
</style>
<path class="st0" d="M62.3,77.3c7.8,3.7,14.7,0.7,19.4-6.2c0.8-1.1,1.6-2.7,2.3-4.4c-6.3,13-17.6-16.2-29.7-17.3
	C30.8,47,0.2,106.3,0,108.9C11.6,97,49.9,45.5,62.3,77.3L62.3,77.3z"/>
<path class="st1" d="M86.8,59.7c-1.3,3.2-3.4,8.6-5.2,11.3c-4.7,6.9-11.5,9.9-19.4,6.2c2.3,5.8,6,23.9,15.9,24.7
	c9.9,0.8,23.9-39,29.4-47.7c6.9-10.9,12-5.6,16.9,1.6c7.9,11.7,23.7,28.6,38.6,16.1c2.5-2.1,4.1-5.2,3.9-9.2
	c-4.9,5.3-10.7,5.5-16.5,1.3c-11.6-8.4-19.3-27.3-26-40c-8.8-16.6-13.1-12.6-21.2,1.3c-1.8,3.3-3.5,6.6-5.3,10
	c-4,7.8-7.7,16-10.9,23.9C87,59.3,86.9,59.5,86.8,59.7L86.8,59.7z"/>
<path class="st2" d="M70.5,37.3l0,0.3l-0.1,0.1c-0.3,1.5-1.4,2.5-2.6,3.4c-0.1,0.1-0.2,0.1-0.2,0.2c0,0-0.1,0.1-0.1,0.1c0,0,0,0,0,0
	l-0.1,0.2l-0.3,0c-0.5,0.1-0.7,0-1.1-0.2c-0.2-0.2-0.4-0.4-0.7-0.5c-0.2-0.2-0.4-0.4-0.6-0.5c-0.3-0.3-0.5-0.5-0.7-0.8
	c-0.2-0.3-0.5-0.7-0.6-1.1c-0.2-0.5-0.2-0.9-0.2-1.5c0-0.9-0.1-1.8-0.1-2.8c0-0.4-0.1-0.8,0.2-1.1c0.3-0.3,0.7-0.3,1.1-0.4l0,0l0,0
	c0.6,0,0.8-0.2,1.3-0.6c0.3-0.2,0.5-0.4,0.8-0.4c0.3,0,0.6,0,0.9,0.2c0.4,0.3,0.9,0.6,1.4,0.7c0.4,0.1,0.9,0.1,1.3,0.4
	c0.4,0.3,0.4,0.6,0.5,1c0.1,0.6,0,1.2,0,1.9c0,0.3,0,0.6,0,0.8c0,0.1,0,0.3,0,0.4C70.5,37.1,70.5,37.2,70.5,37.3L70.5,37.3z"/>
<path class="st3" d="M91.9,34.9h4.5c-0.1,0.2-0.2,0.3-0.3,0.5l0,0l0,0c-1.4,3.1-2.8,6.1-4.2,9.2V34.9L91.9,34.9z"/>
<path class="st4" d="M84.7,35.7h3.2l0.1,0.5c0,0.2,0.1,0.3,0.1,0.5c0,0.1,0.1,0.2,0.2,0.3c0.3,0.2,0.8,0.4,1.1,0.5l0.4,0.1l0,0.5
	c0.1,2.7-0.5,5.9-3.3,7l-0.3,0.1L86,45.1c-2.8-1.2-3.4-4.3-3.3-7l0-0.5l0.4-0.1c0.3-0.1,0.8-0.3,1.1-0.5c0.1-0.1,0.1-0.2,0.2-0.3
	c0-0.2,0.1-0.3,0.1-0.5L84.7,35.7L84.7,35.7z"/>
<path class="st4" d="M77.4,30.1c-0.2-0.2-0.4-0.3-0.6-0.3c-0.1,0-0.1,0-0.1,0c-0.1,0.1-0.2,0.1-0.3,0.2c-0.1,0-0.1,0.1-0.2,0.1h0.7
	H77.4L77.4,30.1z"/>
<path class="st4" d="M74.3,31.9C74.3,31.9,74.2,31.8,74.3,31.9c-0.2-0.2-0.3-0.3-0.5-0.5c-0.1-0.2-0.4-0.5-0.4-0.8l-0.1-0.5l0.5,0
	l0.8-0.4l0,0c0,0,0.1,0,0.1,0c0-0.1,0-0.1,0-0.2c0-0.2,0-0.4,0.1-0.5c0.2-0.7,0.6-1,1.4-1c0.8-0.1,1.6,0.1,2.2,0.6
	c0.1,0.1,0.2,0.2,0.3,0.3c0,0.1,0.1,0.1,0.1,0.2l0,0l0,0c0,0.1,0.1,0.1,0.1,0.2c0.1,0.1,0.1,0.2,0.2,0.4c0.5,1.2,0.1,2.7-1.1,3.2
	c-0.4,0.2-1,0.3-1.5,0.3c0,0,0,0,0,0c0.2,0.1,0.3,0.2,0.4,0.3c0.5,0.5,0.5,1.3,0,1.7c-0.1,0.1-0.2,0.1-0.3,0.2c0,0,0.1,0,0.1,0.1
	c0.3,0.1,0.6,0.3,0.8,0.5c0.1,0.2,0.2,0.3,0.3,0.6c0,0.2,0,0.6-0.1,0.8l0.2,0.3h-0.5l-0.2,0.2l-0.1-0.2l-3.7,0l0.7-0.8
	c0.1-0.1,0.5-0.3,0.6-0.4c0,0,0.1,0,0.1-0.1c-0.1,0-0.2-0.1-0.3-0.1l-0.1,0l-0.1-0.1c0,0-0.1-0.1-0.1-0.1c-0.1-0.1-0.2-0.2-0.3-0.4
	c-0.1-0.3-0.1-0.6,0.1-0.8c0.1-0.3,0.4-0.5,0.8-0.6v0c-0.2-0.1-0.4-0.1-0.6-0.2c-0.1,0-0.1,0-0.2-0.1c0,0,0,0,0,0l-0.1,0l-0.1-0.1
	c-0.1-0.1-0.1-0.1-0.2-0.2c-0.4-0.4-0.4-1-0.2-1.4C73.9,32.1,74.1,32,74.3,31.9L74.3,31.9z"/>
<path class="st5" d="M71,61.1V56h-1.1l0-2.4l-0.7,0c0.6-0.4,1.2-0.8,1.9-1.2V24.1h0h-1.5h-1.1H67h-1.1h-1.5h-1.1h-1.1h-0.3v15.6
	l3.1,1.6l1.1,0.5h-1.2h-1.8v0.9v0.3h-0.3h-0.5l0.2,8.6C65.6,54.2,68.4,57.8,71,61.1L71,61.1z M70.2,23.8c-0.1-0.1-0.2-0.1-0.3-0.2
	c-0.2-0.1-0.3-0.2-0.5-0.2l-1.9-1c-0.1-0.1-0.9-0.5-1-0.5L63,23.7c-0.1,0-0.1,0.1-0.2,0.1h-1.3c0.1,0,0.2-0.1,0.2-0.1
	c0.1-0.1,0.2-0.1,0.3-0.2c1.2-0.6,2.6-1.3,3.8-1.9c0.2-0.1,0.4-0.2,0.6-0.3c0.1,0,0.5,0.3,0.6,0.3l1.9,1c0.4,0.2,0.8,0.4,1.3,0.6
	c0.1,0,0.9,0.4,1.2,0.6H70.2L70.2,23.8z M63.4,23.8c0.2-0.1,0.6-0.3,0.7-0.3c0.3-0.2,2.4-1.2,2.4-1.2c0,0,0.7,0.3,0.8,0.4
	c0.1,0.1,1.8,0.9,2.3,1.2H63.4L63.4,23.8z"/>
<path class="st2" d="M66.7,33.7c-0.1,0-0.1,0.1-0.2,0.1c-0.4,0.3-0.9,0.6-1.4,0.6c-0.2,0-0.2,0-0.1,0.4c0,0.2,0,0.4,0,0.6
	c0,0.4,0,0.8,0,1.1c0,0.9,0.1,1.2,0.5,1.8c0.1,0.2,0.4,0.5,0.6,0.6l0.3,0.3c0.3,0.3,0.3,0.3,0.7-0.1c0.5-0.4,1.1-0.9,1.3-1.6
	c0.1-0.4,0.1-0.6,0.1-1.1c0-0.5,0-1.2,0-1.7c0-0.6,0-0.1-1.1-0.6c-0.1-0.1-0.4-0.2-0.5-0.3C66.9,33.8,66.8,33.7,66.7,33.7L66.7,33.7
	z M64.5,33.4c-0.7,0.1-0.7,0-0.7,0.7c0,0.9,0.1,1.8,0.1,2.8c0,0.5,0.1,0.8,0.2,1.2c0.1,0.3,0.3,0.7,0.5,0.9c0.2,0.3,0.4,0.5,0.7,0.8
	c0.2,0.2,0.9,0.8,1.1,1c0.3,0.2,0.3,0.1,0.5,0.1c0,0,0.1-0.1,0.1-0.1c0,0,0.1-0.1,0.1-0.1c0.1-0.1,0.1-0.1,0.2-0.2
	c1-0.8,2-1.7,2.3-2.9c0-0.1,0-0.1,0-0.2c0-0.1,0-0.3,0-0.4c0-0.1,0-0.3,0-0.4c0-0.3,0-0.5,0-0.8c0-0.7,0-1.1,0-1.8
	c0-0.2,0-0.4-0.1-0.5c-0.1-0.1-0.8-0.2-1-0.2c-0.6-0.2-1.1-0.5-1.6-0.8c-0.3-0.2-0.5-0.1-0.8,0.2C65.7,33,65.3,33.3,64.5,33.4
	L64.5,33.4z M66.7,33.2c-0.2,0-0.5,0.4-0.8,0.6c-0.4,0.2-0.7,0.2-1.1,0.3c-0.3,0.1-0.2,0.2-0.2,0.5c0,0.2,0,0.5,0,0.7
	c0,0.5,0,0.9,0,1.4c0,0.9,0.1,1.4,0.7,2.1c0.1,0.1,0.1,0.1,0.2,0.2c0.1,0.1,0.1,0.1,0.2,0.2c0.2,0.2,0.6,0.5,0.7,0.7
	c0.4,0.3,0.4,0.3,0.9-0.1c0.6-0.5,1.3-1.1,1.6-1.9C69,37.3,69,37,69,36.5c0-0.5,0-0.9,0-1.4c0-0.2,0-0.5,0-0.7
	c0-0.3-0.1-0.3-0.4-0.3c-0.4-0.1-0.7-0.1-1.1-0.3C67.2,33.5,66.9,33.2,66.7,33.2L66.7,33.2z M65.7,35.7c0.1,0.1,0.3,0.1,0.5,0.3
	c0.1,0.2,0,0.4-0.1,0.6c0,0.2,0,0.2,0.1,0.1c0.2-0.1,0.4-0.3,0.6-0.3c0.2,0,0.5,0.3,0.6,0.4c0.1,0,0.1,0,0.1-0.1
	c0-0.2-0.3-0.5-0.1-0.7c0.1-0.1,0.2-0.2,0.3-0.2c0.1,0,0.1-0.1,0.2-0.1c0.2-0.1,0.2-0.2,0-0.2c-0.1,0-0.2,0-0.3,0
	c-0.4,0-0.4-0.1-0.5-0.3c-0.1-0.1-0.2-0.7-0.3-0.3c-0.1,0.2-0.1,0.5-0.3,0.6c-0.1,0.1-0.4,0-0.6,0C65.7,35.5,65.5,35.5,65.7,35.7
	L65.7,35.7z"/>
<path class="st6" d="M79.2,68.4h1.1c0.2,0,0.4-0.1,0.6-0.1c0.4-0.1,0.9-0.8,1.4-1.7h-0.1l-0.2,0h-0.3l-5.8,0
	C77,67.5,78.1,68.2,79.2,68.4L79.2,68.4z M78.1,56h-0.4v0.6l0.4,0l0,0.2h-0.4v0.6h0.4l0,1.3l0.6,0v-1.3l2.1,0l0-0.6l-2.1,0l0-0.2
	c0.1,0,0.2,0,0.3,0H80c0.7,0,1.4-0.1,1.7-0.8c0.1-0.3,0.2-0.7,0.2-1.1c-0.1-0.7-0.6-1.1-1.3-1.2c-0.4-0.1-0.8,0-1.2,0h-0.9
	c-0.1,0-0.2,0-0.3,0L78.1,56L78.1,56z M78.8,56c0.3,0,0.6,0,0.9,0c0.3,0,0.6,0,0.8,0c0.5-0.1,0.8-0.4,0.8-0.9c0-0.6-0.3-0.9-0.8-0.9
	c-0.3,0-0.5,0-0.8,0c-0.3,0-0.6,0-0.9,0L78.8,56L78.8,56z M82.6,66h-7.3c-1.3-1.2-2.6-2.8-3.9-4.5l0-4.6l0,0v-0.7h0.6v-0.6h-1.6
	l0-1.8h0.2v-0.6h0c0.1-0.1,2.3-1.4,2.4-1.5c0.8-0.5,1.6-1,2.5-1.5l4.9-3.1c0.4,0.2,0.8,0.5,1.2,0.8c2.2,1.4,4.7,2.9,6.9,4.3
	c-1,2.3-2,4.6-3,7C85.1,60.2,83.8,63.6,82.6,66L82.6,66z M73.3,53h1.1c0.9-0.6,4.1-2.6,4.4-2.7c0.2-0.1,1.4-0.9,1.5-0.9
	c0.1,0,4,2.5,4.6,2.9c0.2,0.1,0.9,0.5,1.3,0.8h1.1c-0.1-0.1-0.2-0.1-0.3-0.2l-6.7-4.2c-0.2,0-1.6,1-1.9,1.2l-3.7,2.3
	c-0.3,0.2-0.6,0.4-0.9,0.6C73.7,52.7,73.5,52.9,73.3,53L73.3,53z"/>
<path class="st7" d="M81.3,30.1h10v-3.6l-10,1.7L81.3,30.1L81.3,30.1z M91,46.6V30.4h-0.4h-1.2h-1.1h-1.6h-1.1h-1.6h-1.1h-1.6v2.9v2
	v2.9v2v2.9v2v2.2l7.1,4.4C89.4,50,90.2,48.3,91,46.6L91,46.6z"/>
<path class="st8" d="M79.4,13.9c-0.1-0.2-0.2-0.4-0.3-0.5c-0.1-0.3-0.3-0.5-0.4-0.7l-1.6-2.9c-0.1-0.2-0.8-1.4-0.8-1.4l-3,5.3
	c0,0.1-0.1,0.2-0.1,0.3H72c0.1-0.1,0.1-0.2,0.2-0.3c0.1-0.2,0.2-0.3,0.3-0.5c1.1-1.9,2.2-3.8,3.3-5.8c0.2-0.3,0.4-0.7,0.6-1
	c0.1,0.1,0.5,0.8,0.6,0.9l1.6,2.9c0.4,0.6,0.7,1.3,1.1,1.9c0.1,0.1,0.7,1.3,1,1.7H79.4L79.4,13.9z M80.6,14.6h-8.8v37.3
	c0.3-0.2,0.6-0.4,0.9-0.5l7.6-4.7l0.3,0.2V14.6L80.6,14.6z M76.4,0.4C78,0,76.6,2.2,76.5,2.7c1-0.3,0.7-0.6,2.1-0.3
	c0.4,0.1,1.9,0.3,2.2,0.4c-0.6-1.2-0.4-1.3-0.1-2.6c-0.9,0.3-1.5,0.2-2.4,0C77.6,0.1,76.8-0.3,76.4,0.4L76.4,0.4z M78.5,9.4L77.1,7
	c-0.1-0.2-0.8-1.4-0.8-1.4l-2.2,3.9v-2c0.6-1,1.1-1.9,1.6-2.9c0.1-0.3,0.3-0.5,0.4-0.8V0.4h0.2v3.4c0.1,0.2,0.4,0.7,0.5,0.8l1.6,2.9
	V9.4L78.5,9.4z M73.6,13.9c0.2-0.3,0.5-0.9,0.6-1c0.3-0.5,2-3.6,2.1-3.6c0,0,0.6,1,0.7,1.2c0.1,0.2,1.6,2.7,2,3.4H73.6L73.6,13.9z"
	/>
<path class="st2" d="M86.3,43.4L86,40.8l-1.1,0.5l0.5-1.1L83.7,40l1.7-0.4l-0.5-1l1,0.4c-0.3,0.1-0.5,0.5-0.5,0.8
	c0,0.5,0.4,0.9,0.9,0.9c0.5,0,0.9-0.4,0.9-0.9c0-0.4-0.2-0.7-0.5-0.8l1-0.4l-0.5,1l1.7,0.4l-1.7,0.3l0.5,1.1l-1.1-0.5L86.3,43.4
	L86.3,43.4z M85.9,39.1l0.3-2l0.3,2c-0.1,0-0.2-0.1-0.3-0.1C86.2,39,86.1,39,85.9,39.1L85.9,39.1z M86.3,39.2l0.3,0.5l0.3,0.5h-0.6
	h-0.6l0.3-0.5L86.3,39.2L86.3,39.2z M86.3,36.4h-1.1c-0.2,0.6,0,1.2-1.8,1.8c-0.1,2.4,0.4,5.3,2.9,6.4c2.5-1,3-4,2.9-6.4
	c-1.9-0.6-1.7-1.1-1.8-1.8H86.3L86.3,36.4z"/>
<path class="st2" d="M74.9,30.3c0.2,0,0.2,0.1,0.4-0.1c0.1,0.1,0.2,0.2,0.3,0.2c-0.1-0.1-0.2-0.3-0.1-0.6c0.3,0,0.5-0.2,0.7-0.3
	c0.2-0.1,0.3-0.3,0.7-0.3c0.5,0.1,1,0.5,1.2,0.9c0.3,0.5,0.1,1.2-0.3,1.5c-0.3,0.3-0.7,0.4-1.1,0.4c-0.2,0-0.3,0-0.5,0l0,0.7
	c0.1,0,0.3,0,0.4,0c0.4,0,1-0.1,1.3-0.3c1-0.4,1.3-1.6,0.9-2.6c-0.1-0.3-0.2-0.3-0.3-0.5c-0.2-0.2-0.1-0.2-0.4-0.4
	c-0.5-0.4-1.2-0.6-1.9-0.5c-0.6,0-0.8,0.2-0.9,0.7c-0.1,0.4,0,0.6-0.1,0.7C75.1,30.1,75,30.1,74.9,30.3L74.9,30.3L74.9,30.3
	L74.9,30.3z M75.6,35.4c0,0,0.4,0.1,0.4,0.1l0-1.2c-0.1,0-0.4-0.1-0.4-0.2L75.6,35.4L75.6,35.4z M77,37.2c-0.1,0-0.7-0.4-0.9-0.4
	l0-0.2l-0.4-0.1l0,0.3c-0.1,0.1-0.9,0.5-1,0.5l2.4,0C77,37.2,77,37.3,77,37.2L77,37.2z M75,35.9c0.3,0.1,0.3,0.2,0.6,0.3
	c0.4,0.1,1,0.2,1.4,0.4c0.3,0.2,0.3,0.4,0.4,0.5c0.1-0.1,0.1-0.3,0-0.4c0-0.1-0.1-0.2-0.2-0.3c-0.1-0.2-0.4-0.3-0.6-0.4
	c-0.2-0.1-0.5-0.2-0.8-0.2c-0.1,0-0.3-0.1-0.4-0.1c-0.3-0.1-0.2-0.2-0.1-0.2l0-0.6c-0.2,0-0.5,0.2-0.6,0.4c-0.1,0.1-0.1,0.3-0.1,0.4
	C74.8,35.8,74.9,35.9,75,35.9L75,35.9z M74.5,33.6c0,0,0.1,0,0.1,0.1c0,0,0.1,0,0.1,0.1c0.3,0.1,1.4,0.4,1.6,0.6
	c0.1,0.1,0,0.2-0.1,0.2l0,0.6c0.1,0,0.4-0.1,0.5-0.2c0.3-0.3,0.2-0.8,0-1c-0.3-0.3-1.1-0.5-1.6-0.7c-0.4-0.2-0.6-0.3-0.1-0.4
	c0.1,0,0.3,0,0.3,0l0-0.7h-0.2c0,0-0.3,0-0.3,0.1c-0.3,0.1-0.6,0.2-0.8,0.4c-0.2,0.3-0.1,0.6,0.1,0.9C74.4,33.5,74.5,33.6,74.5,33.6
	L74.5,33.6z M74.7,31.6c0.1,0.1,0.2,0.1,0.4,0.2c0.1,0,0.2,0.1,0.3,0.1c0.1,0,0.2,0,0.3,0.1l0,1.2l0.4,0.2c0-0.2,0-1.3,0-1.4
	c0,0,0.3-0.1,0.3-0.1c0.7-0.2,1.2-0.7,1.5-1.3c0,0-0.1,0-0.1,0l-0.9,0h-1c-0.7,0-1.3,0-2,0c0,0.2,0.2,0.5,0.3,0.6
	c0.1,0.1,0.2,0.2,0.3,0.3C74.6,31.5,74.6,31.5,74.7,31.6L74.7,31.6z M75.7,29c-0.2,0.1-0.1,0.4,0.1,0.3C76,29.2,75.9,28.9,75.7,29
	L75.7,29z"/>
<path class="st9" d="M55.5,37.1l8.6,4.4h-1.9v1h-0.7l0.2,8.4c-4.1-3.2-7.7-3.7-12.6-2.4l0.1-6h-0.5v-1h-1.9L55.5,37.1L55.5,37.1z
	 M57.3,46.5c0.2-0.1,0.5-0.3,0.6-0.4c0.1-0.1,0.3-0.3,0.4-0.4c0.4-0.6,0.7-1,1-1.7c0.1-0.2,0.2-0.4-0.1-0.5
	c-0.2-0.1-0.7-0.1-0.9-0.1c-0.4,0-0.8-0.1-1.1-0.3c-0.1-0.1-0.4-0.2-0.5-0.3l-0.1-0.1c-0.4-0.4-0.6-0.7-0.8,0.1
	c-0.2,0.7-0.4,1.5-0.3,2.4c0.1,0.5,0.2,0.9,0.5,1.2l0.1,0.1c0,0,0.1,0,0.1,0.1C56.5,46.6,57,46.6,57.3,46.5L57.3,46.5z M54.9,40.2
	c-0.2,0.1-0.5,0.3-0.7,0.4c-0.3,0.1-0.6,0.2-1,0.1c-0.2,0-0.6-0.1-0.8-0.1c-0.2,0-0.2,0.2-0.1,0.3c0,0.3,0.3,0.9,0.4,1.1
	c0.1,0.2,0.2,0.4,0.3,0.5c0.1,0.2,0.2,0.3,0.3,0.5c0.3,0.4,0.9,0.9,1.4,0.9c0.2,0,0.5-0.1,0.6-0.1c0-0.4,0.3-1.3,0.5-1.7
	c0.1-0.2,0.3-0.2,0.4-0.1c0,0,0,0,0-0.1c0-0.6-0.2-1.2-0.3-1.8C55.8,39.5,55.5,39.9,54.9,40.2L54.9,40.2z M53.1,42.1
	c0.1,0,0.2-0.2,0.5-0.2c0.3-0.1,0.5,0.1,0.6,0.1c-0.1-0.1-0.3-0.3-0.6-0.3c-0.1,0-0.3,0.1-0.3,0.2C53.1,41.9,53.1,42,53.1,42.1
	L53.1,42.1z M54.8,41.7c0,0,0.1-0.1,0.2-0.2c0.1-0.1,0.3-0.2,0.5-0.2c0.1,0,0.3,0,0.1-0.1c-0.3-0.1-0.6-0.1-0.8,0.2
	C54.8,41.5,54.7,41.6,54.8,41.7L54.8,41.7z M55.4,42.4c-0.2,0.1-0.4,0.2-0.8,0.3c-0.1,0-0.4,0-0.5,0.1c-0.2,0.1,0.1,0.2,0.2,0.3
	c0.3,0.1,0.6,0.2,0.8,0C55.4,42.9,55.6,42.4,55.4,42.4L55.4,42.4z M56.9,43.8c-0.1,0-0.3,0.1-0.6,0c-0.2-0.1-0.4-0.2-0.4-0.2
	c0,0.1,0.2,0.4,0.4,0.4C56.6,44.1,56.9,43.9,56.9,43.8L56.9,43.8z M57.6,44.1c0,0.1,0,0.6,0.5,0.6c0.1,0,0.3,0,0.3-0.1
	c-0.1-0.1-0.3,0-0.5-0.2c-0.1-0.1-0.1-0.1-0.2-0.2C57.7,44.2,57.6,44.1,57.6,44.1L57.6,44.1z M57.3,45.9c0.1-0.2-0.2-0.6-0.4-0.7
	c-0.2-0.2-0.6-0.1-0.9,0c-0.2,0.1-0.2,0.2,0,0.2c0.3,0.1,0.5,0.1,0.8,0.3C57,45.7,57.2,45.9,57.3,45.9L57.3,45.9z M56,39.2
	c0.4,0.1,0.5,0.5,0.6,1c0.1,0.6,0.3,1.2,0.3,1.8c0.2,0.2,0.4,0.3,0.6,0.5c0.2,0.1,0.6,0.2,0.8,0.2c0.3,0,0.7,0,1,0.1
	c0.3,0.1,0.4,0.2,0.6,0.5c0.1,0.2,0.2,0.5,0,0.7c0,0.1-0.1,0.2-0.1,0.2c-0.3,0.6-0.6,1.2-1,1.8c-0.1,0.2-0.3,0.4-0.5,0.5
	c-1.4,1.3-3.3,0.7-3.6-1.4c0-0.1,0-0.3,0-0.4c0,0,0,0-0.1,0c-0.8,0-1.5-0.6-1.9-1.2c-0.1-0.2-0.3-0.3-0.4-0.5
	c-0.1-0.2-0.2-0.4-0.3-0.6c-0.2-0.4-0.5-1.1-0.5-1.5v0c0-0.2,0-0.4,0.1-0.5c0.3-0.4,0.7-0.4,1.2-0.3c0.1,0,0.2,0,0.3,0
	c0.3,0,0.5,0,0.7-0.1c0.2-0.1,0.4-0.2,0.6-0.3C55.1,39.4,55.4,39.1,56,39.2L56,39.2z"/>
</svg>
