<?xml version="1.0" encoding="utf-8"?>
<!-- Generator: Adobe Illustrator 22.1.0, SVG Export Plug-In . SVG Version: 6.00 Build 0)  -->
<svg version="1.1" id="Layer_1" xmlns="http://www.w3.org/2000/svg" xmlns:xlink="http://www.w3.org/1999/xlink" x="0px" y="0px"
	 viewBox="0 0 114 76" style="enable-background:new 0 0 114 76;" xml:space="preserve">
<style type="text/css">
	.st0{fill-rule:evenodd;clip-rule:evenodd;fill:#F1D0B2;}
	.st1{fill-rule:evenodd;clip-rule:evenodd;fill:#A55A44;}
	.st2{fill-rule:evenodd;clip-rule:evenodd;fill:#FCFCFC;}
	.st3{fill-rule:evenodd;clip-rule:evenodd;fill:#B4C6C6;}
	.st4{fill-rule:evenodd;clip-rule:evenodd;fill:#69898C;}
	.st5{fill-rule:evenodd;clip-rule:evenodd;fill:#B6C5C5;}
	.st6{fill-rule:evenodd;clip-rule:evenodd;fill:#6E8C8D;}
	.st7{fill-rule:evenodd;clip-rule:evenodd;fill:#FAFAFA;}
	.st8{fill-rule:evenodd;clip-rule:evenodd;fill:#B5C7C7;}
	.st9{fill-rule:evenodd;clip-rule:evenodd;fill:#C0CBCC;}
	.st10{fill-rule:evenodd;clip-rule:evenodd;fill:#B9C9C9;}
	.st11{fill-rule:evenodd;clip-rule:evenodd;fill:#F2F4F8;}
	.st12{fill-rule:evenodd;clip-rule:evenodd;fill:#F8F8F8;}
	.st13{fill:#ECAA96;}
	.st14{fill:#FFFFFF;}
	.st15{fill:#14120F;}
	.st16{fill:#E95256;}
	.st17{fill:#F8F6F4;}
	.st18{fill:#D80F13;}
	.st19{fill:#F5F0EC;}
	.st20{fill:#A55A44;}
</style>
<path class="st0" d="M60.5,65.2c17.6,0,31.9-14.3,31.9-31.9c0-17.6-14.3-31.9-31.9-31.9c-17.6,0-31.9,14.3-31.9,31.9
	C28.6,50.9,42.9,65.2,60.5,65.2L60.5,65.2z"/>
<path class="st1" d="M45.5,5.1C41.4-3.4,88.3,1,87.9,2.5c-1.8,7.7,2.9,12.9-1.8,15.1c-5.6,2.6-19.2,4.7-30.5,1.2
	C49.8,16.9,48.6,9.3,45.5,5.1L45.5,5.1z"/>
<path class="st1" d="M44.6,5.6c-6.6,3.8-11.8,10-14.3,17.3c10.1,0.6,13.9-3.5,15.8-7.2C47.7,12.8,48.9,10.9,44.6,5.6L44.6,5.6z"/>
<path class="st2" d="M17.4,29.9c0.2,1,0.9,2,1,3c0.1,1.6-0.8,1.7-1.7,2.4l-0.3,0c-2,0.1-2-0.4-3-1.4c0,1.7,0.3,2.5-0.3,4l-1,1.2
	c-2.2,1.7-2.8-0.1-3.7-1.5c0.1,2,0.8,3.5-0.9,4.4c-0.7,0.1-1.5-0.9-1.9-1.3c0,0-0.1-0.1-0.1-0.1c0,0-0.1-0.1-0.1-0.1
	c0,0-0.1-0.1-0.1-0.1l-0.1-0.7c-0.4-1.3-0.4-0.2-1-1.4c-0.3-0.6-0.5-1.4-0.7-2.2c0-1.4,0.3-2.8,1.6-3c2.7,0.1,1.7,0.4,2.7,1.9l0-3.2
	c0.1-1.5,1.1-1.9,2.8-1.6c1.9,0.3,1.9,0.8,2.8,1.8c0.1-1.6-0.2-2.5,1.3-2.9C16.1,28.7,16.8,29.2,17.4,29.9L17.4,29.9z"/>
<path class="st3" d="M20.9,34.2c0.3,0.1,0.5-0.6,0.2,0.4c0,1.1,0.9,1.8,1.4,2.6c0.7,1.3,1.1,0.5,2,1.6c1.1,1.5-0.3,4.9-0.8,6.5
	c-0.9,3.1-4.2,2.5-7.3,4.7c-2,1.4-2,1-2.7,1.6c2.3,0.2,2.7-1.6,4.5-2.2c2.1-0.7,3.4-0.8,4.9-2.1c0.1,0.5,0.1,0.8,0.4,1.2
	c0.4,0.5,0.6,0.5,1.2,0.7c-0.3,1.2-0.7,2.4-1.7,2.9c0.3-0.8,0.4-0.6,0-1.3c-1,0.4-0.1,1.4-1.5,1.4c-0.9,0.2-0.8,0.5-1.5,0.9
	c-0.4,0.3-1.3,0.7-1.9,0.9l-0.3-0.2c-0.1-0.1-0.3-0.2-0.4-0.3c-0.3-0.2-0.3-0.3-0.6-0.5c-0.8-0.7-0.4-0.5-1.4-0.4
	c-0.6-0.3-3.2-0.4-4.3-0.8c-1.3-0.4-2.5-1.1-3.2-2c3.9,2.4,6,1.6,8.7-0.8c1.3-1.2,2.7-0.4,4.4-1.6c1.1-0.8,2.4-2.1,2-4.1
	c-1.4-0.4-0.8,0.1-1.9,0.1c-1.1,0-0.8-0.3-1.5-0.6c-0.3-0.2,0.1-0.1-0.4-0.1c-0.2,0-0.4,0.1-0.6,0.1c-0.4,0.1-0.9,0.3-1.4,0.4
	l-0.5-0.3c-0.9-0.4-1.5-0.1-2.3-0.8c2.3,0.3,3.5,0.2,5.4-0.8c2.4-1.4,1.9-2.8,0.8-4.3c-0.1-0.3,0-0.1-0.2-0.4l-1.2-0.8
	c-0.9-0.5-1.2-0.5-2.3-0.5c0.8-0.7,1.8-0.8,1.7-2.4c-0.1-1-0.8-2-1-3c1.2,0.6,1.9,2.8,2.9,3.8C20.9,34.4,20.3,34,20.9,34.2
	L20.9,34.2z"/>
<path class="st2" d="M7.9,49.8c-1.3-0.7-2-1.9-2.8-3.4c2,0.3,2.2,1.6,5,0.9c0.7,0.1,1.6-1.2,3.7-1.3c0.3-0.6,0.4-1.5,0.8-2.3
	c2.7,0.2,3-0.4,4.9-0.9c0.7,0.3,0.4,0.6,1.5,0.6c1.2,0,0.5-0.5,1.9-0.1c0.5,2-0.8,3.3-2,4.1c-1.7,1.2-3.1,0.5-4.4,1.6
	C13.9,51.4,11.9,52.2,7.9,49.8L7.9,49.8z"/>
<path class="st4" d="M20.9,34.2c-0.6-0.2,0,0.2-0.7-0.5c-0.9-1-1.7-3.1-2.9-3.8c-0.7-0.7-1.3-1.2-2.8-0.9c-1.5,0.4-1.2,1.3-1.3,2.9
	c-0.9-1-0.8-1.5-2.8-1.8c-1.7-0.2-2.7,0.1-2.8,1.6l-0.4,1.3C7,32.5,7,32.7,6.2,32.8c-0.6,0.1-0.7,0.1-1.2,0.4
	c-1.3,0.2-1.6,1.5-1.6,3L3,36.7c-0.3,0.3-0.1,0.1-0.4,0.3l-1,0.6c-1.1,0.6-1.1,0.9-0.8,2.4c0.1,0.8,0.4,1.7,0.8,2.3
	c0.6,1.1,2.1,2.7,3.4,3l0.6,0.4c1.1,0.7,3.5,1.4,4.7,1c0.1,0.2,0.5-0.4,0,0.5c-2.8,0.8-3-0.5-5-0.9c0.8,1.5,1.5,2.7,2.8,3.4
	c0.7,0.9,1.9,1.5,3.2,2c1.1,0.4,3.7,0.5,4.3,0.8l-1.7,0.1c3.5,1.7,2.7,1.4,2.8,2.4c0.2,0.8-0.4,0.3,0.4,0.8c1.4,0.8,6-2,6.1-3.7
	c0.9-0.5,1.3-1.7,1.7-2.9l-0.2-0.8c-1.2-0.7-0.6-0.7-1.5-1c-1.5,1.4-2.7,1.4-4.9,2.1c-1.8,0.6-2.2,2.4-4.5,2.2
	c0.7-0.5,0.7-0.2,2.7-1.6c3.1-2.3,6.5-1.6,7.3-4.7c0.5-1.6,1.9-5,0.8-6.5c-0.9-1.2-1.2-0.3-2-1.6c-0.5-0.9-1.3-1.5-1.4-2.6
	c0.7,0.9,1,2,2.1,2.6c1.4,0.8,1.8,0.3,2.2,2.5c0.7,3.7-1.6,5.5-1.7,7.6c1.1,0.8,1.2,0.5,1.5,1.2c0.5,1.2-0.3,1.3,0.2,2.3
	c-1.2,0.4-0.4,0.9-2.3,3c-0.4,0.5-0.8,0.8-1.3,1.2c-0.7,0.6-1,0.5-1.4,1.3c-2,0.1-4.7,2-4.4-1.6c-0.7-0.4-1.5-1-2.5-1.5
	c-1.9-1-4.9-0.8-7.8-4.5C5,47.6,4.8,46.9,4.2,46c-0.5-0.7-1.5-1.2-2.1-1.9c-1.1-1.3-2.5-3.7-2-6.3C1,37,0.8,37.2,2,36.6
	c2.8-1.2-1.2-4,5.1-4.6c0.3-3.4,3-2.3,5.6-2.3c1.3-2.2,3.8-1.5,5.3-0.5C18.8,29.7,20.5,32.9,20.9,34.2L20.9,34.2z"/>
<path class="st2" d="M20.5,37c1.1,1.6,1.6,3-0.8,4.3c-1.8,1-3.1,1.1-5.4,0.8c0.9,0.7,1.4,0.5,2.3,0.8l0.5,0.3
	c-5.6,0.1-5.8-2.9-3.5-4.8c1-0.8,1.8-2,2.9-2.5C18.2,35.4,19.4,36.4,20.5,37L20.5,37z"/>
<path class="st2" d="M4.7,39.8c0.1,0.7,0.2,1.7,0.4,2.3C5.6,43.1,6,43,6.5,43.6l0.1,1.2c-0.7,0.4-0.8,0.4-1.7,0.5
	c-1.2-0.3-2.8-2-3.4-3c-0.4-0.7-0.7-1.5-0.8-2.3c-0.3-1.5-0.3-1.9,0.8-2.4C4.3,37.4,4.3,39.3,4.7,39.8L4.7,39.8z"/>
<path class="st5" d="M12.1,39.2c-0.9,3.1,0.4,3,1.9,4.4c-1.5,2.8-8.2,0.4-8.8-3.2c0,0,0.1,0.1,0.1,0.1c0,0,0.1,0.1,0.1,0.1
	c0,0,0.1,0.1,0.1,0.1c0.4,0.4,1.2,1.4,1.9,1.3c1.7-0.9,1.1-2.4,0.9-4.4C9.3,39.1,9.9,40.9,12.1,39.2L12.1,39.2z"/>
<path class="st6" d="M20.5,37c-1.2-0.5-2.3-1.6-3.9-1c-1.1,0.4-1.9,1.7-2.9,2.5c-2.3,1.8-2.1,4.9,3.5,4.8c0.5-0.1,1-0.3,1.4-0.4
	c0.2-0.1,0.4-0.1,0.6-0.1c0.5,0,0.1-0.1,0.4,0.1c-2,0.5-2.3,1.1-4.9,0.9c-0.3,0.7-0.5,1.7-0.8,2.3l-0.1-1c-0.8,0.3-1.6,0.5-2.7,0.4
	l-0.4,1c0,0-0.1,0.1-0.1,0.2c0.2-1.7,0-1.4-1.5-1.9c-0.9-0.3-1.7-0.8-2.6-1.1C6,43,5.6,43.1,5.2,42.1c-0.2-0.6-0.3-1.6-0.4-2.3
	l0.3-0.1l0.1,0.7c0.7,3.5,7.3,5.9,8.8,3.2c-1.5-1.3-2.8-1.3-1.9-4.4l1-1.2c0.7-0.4,1.2-0.8,1.7-1.3c0.6-0.5,1-0.8,1.6-1.4l0.3,0
	c1.1-0.1,1.4-0.1,2.3,0.5l1.2,0.8C20.5,36.9,20.4,36.7,20.5,37L20.5,37z"/>
<path class="st7" d="M23.1,52.1c-0.2,1.7-4.7,4.6-6.1,3.7c-0.8-0.5-0.2,0-0.4-0.8c-0.2-1,0.6-0.7-2.8-2.4l1.7-0.1
	c1.1-0.1,0.6-0.2,1.4,0.4c0.3,0.2,0.4,0.3,0.6,0.5c0.1,0.1,0.3,0.2,0.4,0.3l0.3,0.2l-0.9,0.5c0.4,0.2-0.6,0.3,0.6,0.1
	c0.5-0.1,3.2-1.6,3.8-2.5c1.4,0,0.5-1,1.5-1.4C23.5,51.5,23.4,51.2,23.1,52.1L23.1,52.1z"/>
<path class="st3" d="M13.8,45.9c-2.1,0.1-3,1.4-3.7,1.3c0.5-0.8,0.2-0.3,0-0.5c-1.1,0.5-3.5-0.3-4.7-1l-0.6-0.4
	c0.9-0.1,1.1-0.2,1.7-0.5l-0.1-1.2c0.8,0.3,1.6,0.8,2.6,1.1c1.5,0.5,1.7,0.2,1.5,1.9c0-0.1,0.1-0.1,0.1-0.2l0.4-1
	c1.1,0.1,1.9-0.1,2.7-0.4L13.8,45.9L13.8,45.9z"/>
<path class="st8" d="M16.5,35.4c-0.6,0.5-1,0.9-1.6,1.4c-0.5,0.5-1.1,0.9-1.7,1.3c0.6-1.6,0.3-2.3,0.3-4
	C14.4,35,14.5,35.4,16.5,35.4L16.5,35.4z"/>
<path class="st9" d="M5.1,39.7l-0.3,0.1c-0.4-0.5-0.5-2.5-3.2-2.3l1-0.6c0.3-0.2,0.1,0,0.4-0.3l0.5-0.5c0.2,0.8,0.4,1.5,0.7,2.2
	C4.6,39.6,4.6,38.4,5.1,39.7L5.1,39.7z"/>
<path class="st10" d="M5,33.2c0.4-0.3,0.5-0.3,1.2-0.4C7,32.7,7,32.5,7.3,33.1l0.4-1.3l0,3.2C6.7,33.5,7.7,33.2,5,33.2L5,33.2z"/>
<path class="st6" d="M18.2,54c0.6-0.2,1.4-0.7,1.9-0.9c0.7-0.4,0.6-0.7,1.5-0.9c-0.6,0.9-3.2,2.4-3.8,2.5c-1.2,0.2-0.2,0.1-0.6-0.1
	L18.2,54L18.2,54z"/>
<path class="st11" d="M24.8,49.2c-0.6-0.1-0.8-0.1-1.2-0.7c-0.3-0.4-0.4-0.6-0.4-1.2c0.8,0.4,0.3,0.4,1.5,1L24.8,49.2L24.8,49.2z"/>
<path class="st4" d="M112.5,72.1c-0.4,1.1-0.6,1.7-1.4,2.5c-1.4,1.3-4.1,1.8-2.7-3.3c0.9,0.6,1.8,0.5,2.8,0.2c1.2-1.7,1-3.1,1.4-5.6
	C113.5,67.3,113.6,70.7,112.5,72.1L112.5,72.1z M111.6,68.4c-0.2,1.3-0.4,1.9-1.1,2.6c-2,0.1-2.3-0.9-2.6-2.8
	c0.4-0.6,0.1-0.3,0.8-0.6c1.8-4.2,0.5-4.5,0.1-8.7C111.2,61.2,112,63.9,111.6,68.4L111.6,68.4z M108.3,66c-0.3,1.1-1.1,2-2.5,1.2
	c-0.8-0.5-1-1.5-1.6-2.5c0.3-0.7,0.8-1.7,1.2-2.5c-0.1-2.8-0.1-3.7-0.9-6c2.3,0.7,2.9,1.3,3.6,3.6C108.6,61.4,109.2,64.4,108.3,66
	L108.3,66z M104.5,61.1c-0.2,6.1-4.8,2.1-4.6-1.5c0-1.6,0.5-1.7,0-2.3l-0.5,1.3c-0.2,3,0.9,5.5,2.8,6.2c2.2,0.8,0.8-0.4,2.2,2
	c0.7,1.2,1.1,1.4,2.9,1.6c0.4,1.6,0.7,1.6,0.4,3.3c-1.1,0.4-3.1,1-4,0.2c-1.2,0.1-1.8-0.1-2.4-0.9c-1.1-1.3-0.2-1.5-0.3-1.9
	c-1.8-0.7-4-1.2-4.1-3.2c-0.2-0.3-0.2,0-0.3-0.7c-0.2-1.1,0.3-1.4,0.7-1.7c0,0,0.1-0.1,0.2-0.1c-2.2-0.2-2.6,0.2-4.7,0.6
	c-1,0.2-2.7,0.5-3.6,0c-1.1-0.6-0.3-0.1-0.7-0.7c-1.6-0.4-2.5-2.7-0.1-2.8c2.1-0.1,0.1,0.6,4.4-0.3c0.1-0.1,0.2-0.2,0.2-0.2l1.5-1.1
	c-1.4,0.3-2.6,1-4.1,0.8c-0.3-2.1,1.2-3.1,2.4-3.8c0.7-1.1,5.3-3.7,6.6-2.2c0.7,1.2,0.3,1-0.8,1.7c-0.7,0.4-0.3,0.1-1,0.6l-0.8,1
	c1.8-0.5,3.8-2.5,5.7-1.6C104.1,56.2,104.5,58.7,104.5,61.1L104.5,61.1z M89.7,59.9c-1.6-0.2-1.6-0.6-3.2,0
	c-0.9,2.3,0.5,4.2,2.5,4.8c2.2,0.7,4.7-0.5,6.9-0.8c-0.2,1.9-0.2,3.2,1,4.1c1.9,1.6,2.3,0.2,3.3,2.2c0.8,1.5,0.8,1.9,2.8,2.4
	c1.5,0.4,3.1,0.3,4.4-0.2c0.2,2.1-0.4,1.9,0.9,3.3c3.2,0.7,4.7-2,5.4-4.4c1.3-4.7-0.9-6.4-1.4-8.3c-1-3.8-4.4-6.5-7.8-7.7
	c-1.6-0.5-1.9-1.3-4.1-1c-0.1-1-0.3-1.2-0.7-1.7C96.5,51.1,89.5,55.2,89.7,59.9L89.7,59.9z"/>
<path class="st7" d="M92.8,56c-0.4,1.1-0.6,0.2,0,1.4c0.5,1.1,2,0.6,3.1,1.5c-0.7,0.5-2,1.1-3.1,1.3c-4.2,0.9-2.3,0.2-4.4,0.3
	c-2.4,0.1-1.5,2.3,0.1,2.8c2.7,0.7,3.6-0.4,5.6-0.9c2.2-0.5,4.1,0.3,4.2,2.4l-1.2,0L96.8,66c0.1,2,2.3,2.5,4.1,3.2
	c0.1,0.4-0.7,0.6,0.3,1.9c0.6,0.8,1.3,0.9,2.4,0.9c0.6-1.6-0.4-2.3-1.5-2.9c-0.8-0.4-1.7-1.1-2.5-2.2c-1.3-1.9-2.2-6.2-0.5-8.3
	l0.5-1.3c0.5-0.7-1.1-0.6,1.1-0.6c-0.5,1.6-0.4,2.2,0.6,3.6c0.7,1.1,1.5,1.6,3,0.8c0-2.4-0.4-4.9-2.1-5.6c-1.9-0.8-3.9,1.1-5.7,1.6
	l0.8-1c0.6-0.6,0.3-0.2,1-0.6c1.1-0.7,1.5-0.5,0.8-1.7C98.1,52.3,93.5,54.9,92.8,56L92.8,56z"/>
<path class="st5" d="M103.7,71.9c0.9,0.8,2.9,0.2,4-0.2c0.3-1.7-0.1-1.7-0.4-3.3c-1.8-0.2-2.2-0.4-2.9-1.6c-1.4-2.4,0-1.2-2.2-2
	c-2-0.7-3-3.3-2.8-6.2c-1.7,2.1-0.9,6.4,0.5,8.3c0.8,1.1,1.7,1.8,2.5,2.2C103.3,69.6,104.3,70.3,103.7,71.9L103.7,71.9z"/>
<path class="st7" d="M105.4,62.2c0.2,1,0.4,1.9,0.9,2.6c1,1.5,0.9,0.6,2,1.2c0.9-1.6,0.3-4.6-0.2-6.2c-0.7-2.2-1.3-2.8-3.6-3.6
	C105.3,58.6,105.3,59.4,105.4,62.2L105.4,62.2z"/>
<path class="st12" d="M108.7,67.6c1.2,1.3,1.1,0.6,3,0.8c0.3-4.5-0.4-7.2-2.9-9.5C109.2,63.1,110.4,63.4,108.7,67.6L108.7,67.6z"/>
<path class="st5" d="M104.5,61.1c-1.5,0.8-2.2,0.2-3-0.8c-1-1.4-1.1-2-0.6-3.6c-2.2,0-0.6-0.1-1.1,0.6c0.6,0.6,0.1,0.7,0,2.3
	C99.7,63.2,104.3,67.1,104.5,61.1L104.5,61.1z"/>
<path class="st5" d="M112.5,72.1l-0.8,0.1c-0.1-0.1-0.4-0.6-0.5-0.8c-1,0.4-1.9,0.4-2.8-0.2c-1.4,5.1,1.2,4.6,2.7,3.3
	C111.9,73.8,112.1,73.2,112.5,72.1L112.5,72.1z"/>
<path class="st5" d="M88.5,63.2c0.4,0.6-0.4,0.1,0.7,0.7c0.9,0.5,2.7,0.2,3.6,0c2-0.4,2.4-0.8,4.7-0.6c-0.1,0-0.2,0.1-0.2,0.1
	c-0.5,0.4-0.9,0.6-0.7,1.7c0.1,0.7,0.1,0.4,0.3,0.7l0.2-1.3l1.2,0c-0.1-2-2-2.9-4.2-2.4C92.1,62.8,91.2,63.9,88.5,63.2L88.5,63.2z"
	/>
<path class="st5" d="M92.7,60.2c1.1-0.2,2.4-0.7,3.1-1.3c-1.1-0.9-2.6-0.4-3.1-1.5c-0.6-1.2-0.4-0.3,0-1.4c-1.2,0.7-2.7,1.7-2.4,3.8
	c1.5,0.2,2.7-0.6,4.1-0.8L93,60C92.9,59.9,92.8,60.1,92.7,60.2L92.7,60.2z"/>
<path class="st5" d="M108.3,66c-1.1-0.6-1,0.3-2-1.2c-0.5-0.8-0.8-1.6-0.9-2.6c-0.4,0.8-0.9,1.8-1.2,2.5c0.6,1,0.8,2,1.6,2.5
	C107.2,68,108,67.1,108.3,66L108.3,66z"/>
<path class="st5" d="M111.6,68.4c-1.9-0.2-1.8,0.5-3-0.8c-0.7,0.3-0.3,0-0.8,0.6c0.3,1.9,0.6,2.9,2.6,2.8
	C111.2,70.3,111.4,69.7,111.6,68.4L111.6,68.4z"/>
<path class="st12" d="M111.2,71.4c0.1,0.2,0.4,0.7,0.5,0.8l0.8-0.1c1.1-1.4,1-4.8,0.1-6.3C112.3,68.3,112.4,69.7,111.2,71.4
	L111.2,71.4z"/>
<path class="st13" d="M47.6,52.3c-1.7,0-3.1-1.4-3.1-3.1c0-1.7,1.4-3.1,3.1-3.1c1.7,0,3.1,1.4,3.1,3.1C50.6,51,49.3,52.3,47.6,52.3
	L47.6,52.3z"/>
<path class="st13" d="M74.1,52.3c-1.7,0-3.1-1.4-3.1-3.1c0-1.7,1.4-3.1,3.1-3.1c1.7,0,3.1,1.4,3.1,3.1C77.2,51,75.8,52.3,74.1,52.3
	L74.1,52.3z"/>
<path class="st14" d="M56.7,40.2c-0.8,5.8-4.2,3.3-8,3.6c-3.3,0.2-3,1.3-5.8,0.9c-1.5-0.2-2.5-2.3-2.1-4.5c0.3-1.8,1.4-3.8,3.9-5
	c0.4-0.2,0.8-0.3,1.2-0.5C52.9,32.6,57.5,34.4,56.7,40.2L56.7,40.2z"/>
<path class="st15" d="M47.1,38.5c0,1.9-1.5,3.4-3.4,3.4c-1.3,0-2.4-0.7-3-1.7c0.3-1.8,1.4-3.8,3.9-5C46.1,35.7,47.1,37,47.1,38.5
	L47.1,38.5z"/>
<path class="st14" d="M81.6,40.2c-0.8,5.8-4.7,2.5-8.6,2.8c-3.3,0.2-3,1.3-5.8,0.9c-1.5-0.2-2.5-2.3-2.1-4.5c0.3-1.8,1.4-3.8,3.9-5
	c0.4-0.2,0.8-0.3,1.2-0.5C77.2,31.7,82.4,34.4,81.6,40.2L81.6,40.2z"/>
<path class="st15" d="M71.5,37.7c0,1.9-1.5,3.4-3.4,3.4c-1.3,0-2.4-0.7-3-1.7c0.3-1.8,1.4-3.8,3.9-5C70.4,34.9,71.5,36.2,71.5,37.7
	L71.5,37.7z"/>
<path class="st16" d="M65.3,45c0,0,0,4.4-0.9,7.9c-0.6,2.3-1.7,4.3-3.4,4.2c-1.4-0.1-2.4-1.4-3-3.1c-1.3-3.6-1.3-8.9-1.3-8.9
	L65.3,45L65.3,45z"/>
<path class="st17" d="M56.7,45c0,0-0.1,1,0.4,1.3c0.5,0.3,7.4,0.1,7.8,0c0.4-0.1,0.4-1.3,0.4-1.3L56.7,45L56.7,45z"/>
<path class="st18" d="M64.4,52.9c-0.6,2.3-1.7,4.3-3.4,4.2c-1.4-0.1-2.4-1.4-3-3.1C57.9,54,62,52.5,64.4,52.9L64.4,52.9z"/>
<path class="st19" d="M45.6,37.3c0,0.6-0.5,1.1-1.1,1.1c-0.6,0-1.1-0.5-1.1-1.1c0-0.6,0.5-1.1,1.1-1.1
	C45.1,36.3,45.6,36.7,45.6,37.3L45.6,37.3z"/>
<path class="st19" d="M70.1,36.3c0,0.6-0.5,1.1-1.1,1.1c-0.6,0-1.1-0.5-1.1-1.1c0-0.6,0.5-1.1,1.1-1.1
	C69.6,35.2,70.1,35.7,70.1,36.3L70.1,36.3z"/>
<path class="st20" d="M82.9,39.1c-0.1,2.4-1.8,3.7-2.4,4c-3,1.6-9.7,0.8-11.5,0.3c-1.8-0.5-2.8-2-3.9-3.9c-1.3-2.5-0.4-3.4,0.3-4.1
	c0.7-0.7,4.1-1.2,8-1.4c3.4-0.1,7.7,0.7,7.7,0.7C83.3,35.4,83,36.7,82.9,39.1L82.9,39.1z M56.8,39.8c-0.8,2-1.6,3.5-3.3,4.2
	c-1.7,0.6-8.3,1.9-11.5,0.5c-0.6-0.3-2.5-1.5-3-3.9c-0.5-2.4-1-3.7,1.1-4.4c0,0,4.2-1.1,7.6-1.2c3.9-0.1,7.3,0.2,8.1,0.9
	C56.7,36.5,57.7,37.3,56.8,39.8L56.8,39.8z M81.6,33.1c-3.1,0-9.9,0.1-12.8,0.4c-3,0.3-3.6,0.4-4,0.7c-0.4,0.3-0.6,0.6-1.5,0.7
	c-0.8,0.1-2.3,0.2-2.6,0.3c-0.3,0-1.9-0.1-2.6-0.1c-0.9-0.1-1.1-0.4-1.6-0.6c-0.5-0.2-1.1-0.3-4.1-0.4c-3-0.1-9.7,0.2-12.8,0.4
	c-3.1,0.2-5.3,0.9-5.3,0.9l0.4,2.5c0,0,0.4,0.1,1,0.2c0.6,0.1,2.2,3.3,3.3,5c1.1,1.6,2.5,2.2,4.8,2.6c4.5,0.4,8.7-0.4,10-0.8
	c1.3-0.4,2.1-1.3,2.9-2.4c0.8-1.1,2.2-3.8,2.6-4.5c0.3-0.5,1.2-0.7,1.6-0.8c0.4,0,1.3,0.2,1.7,0.7c0.6,0.7,2.3,3.3,3.3,4.3
	c0.9,1,1.9,1.9,3.2,2.2c1.3,0.3,5.7,0.9,10.1,0.2c2.2-0.5,3.6-1.2,4.4-2.9c0.8-1.7,1.9-5,2.5-5.1c0.6-0.1,2-0.1,2-0.1l-1-2.7
	C86.9,33.6,84.7,33.1,81.6,33.1L81.6,33.1z"/>
</svg>
