<?xml version="1.0" encoding="utf-8"?>
<!-- Generator: Adobe Illustrator 22.1.0, SVG Export Plug-In . SVG Version: 6.00 Build 0)  -->
<svg version="1.1" id="Layer_1" xmlns="http://www.w3.org/2000/svg" xmlns:xlink="http://www.w3.org/1999/xlink" x="0px" y="0px"
	 viewBox="0 0 120.3 87.7" style="enable-background:new 0 0 120.3 87.7;" xml:space="preserve">
<style type="text/css">
	.st0{fill-rule:evenodd;clip-rule:evenodd;fill:#F2D1B3;}
	.st1{fill-rule:evenodd;clip-rule:evenodd;fill:#FFCB00;}
	.st2{fill-rule:evenodd;clip-rule:evenodd;fill:#69898C;}
	.st3{fill-rule:evenodd;clip-rule:evenodd;fill:#FAFAFA;}
	.st4{fill-rule:evenodd;clip-rule:evenodd;fill:#B6C5C5;}
	.st5{fill-rule:evenodd;clip-rule:evenodd;fill:#F8F8F8;}
	.st6{fill-rule:evenodd;clip-rule:evenodd;fill:#FCFCFC;}
	.st7{fill-rule:evenodd;clip-rule:evenodd;fill:#66888A;}
	.st8{fill-rule:evenodd;clip-rule:evenodd;fill:#B4C6C6;}
	.st9{fill-rule:evenodd;clip-rule:evenodd;fill:#B5C5C5;}
	.st10{fill-rule:evenodd;clip-rule:evenodd;fill:#B9C9C9;}
	.st11{fill-rule:evenodd;clip-rule:evenodd;fill:#6C8A89;}
	.st12{fill-rule:evenodd;clip-rule:evenodd;fill:#B5C7C7;}
	.st13{fill-rule:evenodd;clip-rule:evenodd;fill:#7B9393;}
	.st14{fill:#EBC29A;}
	.st15{fill:#D04141;}
	.st16{fill:#1E1A1B;}
	.st17{fill:#221D1A;}
	.st18{fill:#FAFAF6;}
	.st19{fill:#EEB49C;}
	.st20{fill:#E31F27;}
</style>
<path class="st0" d="M56.6,69.2c17.6,0,31.9-14.3,31.9-31.9c0-17.6-14.3-31.9-31.9-31.9c-17.6,0-31.9,14.3-31.9,31.9
	C24.7,54.9,38.9,69.2,56.6,69.2L56.6,69.2z"/>
<path class="st1" d="M93.3,0c5.1,3.1,9.8,7.6,13.9,13.9c4.4,6.7,6.1,14.9,2.9,24.1c-6.9-13.8-18.3-18.9-32.2-15.8l-0.1,0
	c0.2-1.7,0.5-3.5,1-5.2C81.1,9.2,86.5,3.2,93.3,0L93.3,0z"/>
<path class="st1" d="M18.5,0.3C13.4,3.4,8.7,7.9,4.6,14.2c-4.4,6.7-6.1,14.9-2.9,24.1C8.5,24.5,20,19.4,33.8,22.5l0.1,0
	c-0.2-1.7-0.5-3.5-1-5.2C30.7,9.5,25.3,3.5,18.5,0.3L18.5,0.3z"/>
<path class="st1" d="M88.2,31.7c-20.1,6.7-37.6-2-49.9-20.1c4.6-3.2,12.9-5.8,18.4-5.8C72.3,5.8,85.3,17,88.2,31.7L88.2,31.7z"/>
<path class="st1" d="M70.3,8.4c-4.2-2-8.8-3.1-13.8-3.1c-14,0-25.9,9-30.2,21.5C43.8,31,59,23.5,70.3,8.4L70.3,8.4z"/>
<path class="st2" d="M10.5,83.8c0.4,1.1,0.6,1.7,1.4,2.5c1.4,1.3,4.1,1.8,2.7-3.3c-0.9,0.6-1.8,0.5-2.8,0.2c-1.2-1.7-1-3.1-1.4-5.6
	C9.6,79,9.5,82.4,10.5,83.8L10.5,83.8z M11.4,80.1c0.2,1.3,0.4,1.9,1.1,2.6c2,0.1,2.3-0.9,2.6-2.8c-0.4-0.6-0.1-0.3-0.8-0.6
	c-1.8-4.2-0.5-4.5-0.1-8.7C11.8,72.8,11.1,75.6,11.4,80.1L11.4,80.1z M14.7,77.7c0.3,1.1,1.1,2,2.5,1.2c0.8-0.5,1-1.5,1.6-2.5
	c-0.3-0.7-0.8-1.7-1.2-2.5c0.1-2.8,0.1-3.7,0.9-6c-2.3,0.7-2.9,1.3-3.6,3.6C14.4,73.1,13.8,76.1,14.7,77.7L14.7,77.7z M18.5,72.7
	c0.2,6.1,4.8,2.1,4.6-1.5c0-1.6-0.5-1.7,0-2.3l0.5,1.3c0.2,3-0.9,5.5-2.8,6.2c-2.2,0.8-0.8-0.4-2.2,2c-0.7,1.2-1.1,1.4-2.9,1.6
	c-0.4,1.6-0.7,1.6-0.4,3.3c1.1,0.4,3.1,1,4,0.2c1.2,0.1,1.8-0.1,2.4-0.9c1.1-1.3,0.2-1.5,0.3-1.9c1.8-0.7,4-1.2,4.1-3.2
	c0.2-0.3,0.2,0,0.3-0.7c0.2-1.1-0.3-1.4-0.7-1.7c0,0-0.2-0.1-0.2-0.1c2.2-0.2,2.6,0.2,4.7,0.6c1,0.2,2.7,0.5,3.6,0
	c1.1-0.6,0.3-0.1,0.7-0.7c1.6-0.4,2.5-2.7,0.1-2.7c-2.1-0.1-0.1,0.6-4.4-0.3c-0.1-0.1-0.2-0.2-0.2-0.2l-1.5-1.1
	c1.4,0.3,2.6,1,4.1,0.8c0.3-2.1-1.2-3.1-2.4-3.8c-0.7-1.1-5.3-3.7-6.6-2.2c-0.7,1.2-0.3,1,0.8,1.7c0.7,0.4,0.3,0.1,1,0.6l0.8,1
	c-1.8-0.5-3.8-2.5-5.7-1.6C19,67.9,18.5,70.3,18.5,72.7L18.5,72.7z M33.3,71.5c1.6-0.2,1.6-0.6,3.2,0c0.9,2.3-0.5,4.2-2.5,4.8
	c-2.2,0.7-4.7-0.5-6.9-0.8c0.2,1.9,0.2,3.2-1,4.1c-1.9,1.6-2.3,0.2-3.3,2.2c-0.8,1.5-0.8,1.9-2.8,2.4c-1.5,0.4-3.1,0.3-4.4-0.2
	c-0.2,2.1,0.4,1.9-0.9,3.3c-3.2,0.7-4.7-2-5.4-4.4c-1.3-4.7,0.9-6.4,1.4-8.3c1-3.8,4.4-6.5,7.8-7.7c1.6-0.5,1.9-1.3,4.1-1
	c0.1-1,0.3-1.2,0.7-1.7C26.5,62.8,33.6,66.9,33.3,71.5L33.3,71.5z"/>
<path class="st3" d="M30.2,67.6c0.4,1.1,0.6,0.2,0,1.4c-0.5,1.1-2,0.6-3.1,1.5c0.7,0.5,2,1.1,3.1,1.3c4.2,0.9,2.3,0.2,4.4,0.3
	c2.4,0.1,1.5,2.3-0.1,2.8c-2.7,0.7-3.6-0.4-5.6-0.9c-2.2-0.5-4.1,0.3-4.2,2.4l1.2,0l0.2,1.3c-0.1,2-2.3,2.5-4.1,3.2
	c-0.1,0.4,0.7,0.6-0.3,1.9c-0.6,0.8-1.3,0.9-2.4,0.9c-0.6-1.6,0.4-2.3,1.5-2.9c0.8-0.4,1.7-1.1,2.5-2.2c1.3-1.9,2.2-6.2,0.5-8.3
	l-0.5-1.3c-0.5-0.7,1.1-0.6-1.1-0.6c0.5,1.6,0.4,2.2-0.6,3.6c-0.7,1.1-1.5,1.6-3,0.8c0-2.4,0.4-4.9,2.1-5.6c1.9-0.8,3.9,1.1,5.7,1.6
	l-0.8-1c-0.6-0.6-0.3-0.2-1-0.6c-1.1-0.7-1.5-0.5-0.8-1.7C25,64,29.5,66.6,30.2,67.6L30.2,67.6z"/>
<path class="st4" d="M19.4,83.6c-0.9,0.8-2.9,0.2-4-0.2c-0.3-1.7,0.1-1.7,0.4-3.3c1.8-0.2,2.2-0.4,2.9-1.6c1.4-2.4,0-1.2,2.2-2
	c2-0.7,3-3.3,2.8-6.2c1.7,2.1,0.9,6.4-0.5,8.3c-0.8,1.1-1.7,1.8-2.5,2.2C19.7,81.3,18.7,82,19.4,83.6L19.4,83.6z"/>
<path class="st3" d="M17.6,73.9c-0.2,1-0.4,1.9-0.9,2.6c-1,1.5-0.9,0.6-2,1.2c-0.9-1.6-0.2-4.6,0.2-6.2c0.7-2.2,1.3-2.8,3.6-3.6
	C17.7,70.3,17.7,71.1,17.6,73.9L17.6,73.9z"/>
<path class="st5" d="M14.4,79.3c-1.2,1.3-1.1,0.6-3,0.8c-0.3-4.5,0.4-7.2,2.9-9.5C13.8,74.8,12.6,75.1,14.4,79.3L14.4,79.3z"/>
<path class="st4" d="M18.5,72.7c1.5,0.8,2.2,0.2,3-0.8c1-1.4,1.1-2,0.6-3.6c2.2,0,0.6-0.1,1.1,0.6c-0.6,0.6-0.1,0.7,0,2.3
	C23.3,74.8,18.7,78.8,18.5,72.7L18.5,72.7z"/>
<path class="st4" d="M10.5,83.8l0.8,0.1c0.1-0.1,0.4-0.6,0.5-0.8c1,0.4,1.9,0.4,2.8-0.2c1.4,5.1-1.2,4.6-2.7,3.3
	C11.1,85.5,10.9,84.9,10.5,83.8L10.5,83.8z"/>
<path class="st4" d="M34.6,74.9c-0.4,0.6,0.4,0.1-0.7,0.7c-0.9,0.5-2.7,0.2-3.6,0c-2-0.4-2.4-0.8-4.7-0.6c0.1,0,0.2,0.1,0.2,0.1
	c0.5,0.4,0.9,0.6,0.7,1.7c-0.1,0.7-0.1,0.4-0.3,0.7L26,76.4l-1.2,0c0.1-2,2-2.9,4.2-2.4C30.9,74.5,31.8,75.6,34.6,74.9L34.6,74.9z"
	/>
<path class="st4" d="M30.3,71.8c-1.1-0.2-2.4-0.7-3.1-1.3c1.1-0.9,2.6-0.4,3.1-1.5c0.6-1.2,0.4-0.3,0-1.4c1.2,0.7,2.7,1.7,2.4,3.8
	c-1.5,0.2-2.7-0.6-4.1-0.8l1.5,1.1C30.1,71.6,30.2,71.8,30.3,71.8L30.3,71.8z"/>
<path class="st4" d="M14.7,77.7c1.1-0.6,1,0.3,2-1.2c0.5-0.8,0.8-1.6,0.9-2.6c0.4,0.8,0.9,1.8,1.2,2.5c-0.6,1-0.8,2-1.6,2.5
	C15.8,79.7,15,78.8,14.7,77.7L14.7,77.7z"/>
<path class="st4" d="M11.4,80.1c1.9-0.2,1.7,0.5,3-0.8c0.7,0.3,0.3,0,0.8,0.6c-0.3,1.9-0.6,2.9-2.6,2.8C11.8,82,11.6,81.4,11.4,80.1
	L11.4,80.1z"/>
<path class="st5" d="M11.8,83.1c-0.1,0.2-0.4,0.7-0.5,0.8l-0.8-0.1c-1.1-1.4-1-4.8-0.1-6.3C10.8,79.9,10.6,81.3,11.8,83.1L11.8,83.1
	z"/>
<path class="st6" d="M95.9,66.1l2.5,2.7c-0.7-0.4-1.9-1.4-2.3-2.1C95.9,66.2,96,66.6,95.9,66.1L95.9,66.1z M93.8,65
	c0,0.8,0.4,1.4,0.8,2c0.3-0.2,0.2,0.1,0.3-0.5c-0.1-0.8-1.1-3.4-0.4-4.1c0.3,1.5,0.2,2.1,0.9,3.6c0.9,2,1.7,2.4,1.9,3.1
	c0.7,0.4,1.3,1.1,2.1,0.8c-0.1-0.7-0.2-0.5-0.6-1.1c2.1,0.3,3.1,0.2,4-1.2c0-0.4,4.1-6.3,3-9.9c-1.1,0.3-1.2,0.8-2.2,0.9
	c0.6-0.7,2.3-2,2.6-2.6c3.3-3.4,4-5.2,5.1-10.4c0.5-3.9-4.5-5.6-4.9-1.5c-0.3,2.8,0.4,4-3.9,7.8c-2,1.8-4.3,2.8-6.3,4.8
	C93.4,59.1,93.5,61.5,93.8,65L93.8,65z"/>
<path class="st7" d="M114.6,73.9c-0.9,1-2.1,1.1-3.6,0.9c-0.8-0.1-1.6-0.2-2.4-0.5c-0.7-0.3-1.4-0.7-1.7-1.3c-0.5-0.1-4.5-2.8-1-4.3
	c0.2,0.2,0.1,0.1,0.3,0.4l1.1,1.4c3.2,2.8,7,1.7,7.6,2.2L114.6,73.9L114.6,73.9z M107.6,66c1.4,1.1,1.9,1.9,4.2,2.5
	c1.7,0.5,2.5,0.4,4,0.3l0.9,0.1c0,0,0.1,0,0.1,0.1c0.4,4.6-7.3,3.1-9.7,0.5C105.9,68.2,106.6,67.2,107.6,66L107.6,66z M116.6,62.6
	c1-0.2,2.3,1.1,2.4,1.9c0.2,1.2-0.4,2.7-1.4,3.1c-1.9,0.8-5.1,0.5-7.3-0.5c-3.5-1.6-2.8-4.8-1.2-5C110.6,62,111.1,63.6,116.6,62.6
	L116.6,62.6z M111.2,45.5c0.3,0.9,0.1,2.2-0.1,3.2c-0.5,3-3,6.7-5,7.3c-0.3,0.6-2,1.9-2.6,2.6c1-0.1,1.1-0.6,2.2-0.9
	c1.1,3.6-3,9.6-3,9.9c0.5-0.1,0.3,0.5,1.5-1.3c1.4-2.1,2.1-4.4,2.2-6.9c0.1-2.7-0.6-1.6,1.4-3.2c1.3-1,1.4-2.2,3.2-2.1
	c2.3,0.5,3.7,0.5,6.1,1.7c3.8,2,3.1,6.2-2.6,6.6c-7.6,0.5-6.6-5.6-0.6-4c0.4-0.4-0.1-0.6,0.9-0.8c0,0,1.3,0,1.1-0.2
	c-2-0.6-1.3,0.2-2.6,0.2c-0.3,0-3.3-0.8-4.6,1.6c-0.5,0.8-0.5,1.4-0.1,2.2l0.3,0.6c-2,0.3-2.2,2.2-1.5,4c-0.6,0.7-1.2,1.2-1.6,2.5
	c-2.8,0.5-1.8,3.1-0.2,4.8c0.4,0.5,1.2,0.9,1.6,1.5c-1.6,0.5-4.2,0-6.1-0.7c-2.7-0.9-3.2-1.7-5-3.1c0.5,1.5,1.6,1.5,2.4,2.6
	c-1.2,0.1-4.7,1-5.2,1c0.8-3.4-0.4-7-1.7-9.8c0.7,0,1.1-0.3,1.5-0.4l0.6,0.9c-0.3-3.5-0.4-5.8,2.2-8.5c2-2,4.3-3.1,6.3-4.8
	c4.3-3.8,3.6-5,3.9-7.8C106.7,39.9,111.6,41.6,111.2,45.5L111.2,45.5z M88.7,66.7c0.1,0,0.3,0,0.4,0c0.3-0.1,0.3-0.1,0.5-0.2
	c-0.3-0.3-0.8,0.4-0.2-1c0.1-0.1,0.6-0.6,0.7-0.6c1-0.4,1,0.2,1.1,0.8c0.9,1.3,2,4.5,1.3,6.8c0.4,0.1-0.3,1.9-0.4,2.4
	c-0.9-0.5-1.4-1-2-1.7l-0.2,0c0.1,1.2,0.9,2.8,2.1,3.1c1.4-0.5,0.4-1.1,2.3-1.6c7.6-2.1,7.2,1.6,13.6,0.8c3.1-0.4,7.6,1.8,7.7-3.3
	c1.3-0.5,2-1.1,1.5-3.4c1.4-0.5,2.3-0.8,2.4-3c0.1-1.4-0.3-1.9-1.1-2.6l-0.9-0.9c4.7-1,4.3-8.4-7.3-8.7c0.6-2.2,1.5-2.8,1.8-5.7
	c0.6-7.6-4.3-7.2-5.6-6c-1.6,1.5-0.5,3.4-1.6,5.7c-3.2,6.3-12.7,6.8-11.7,15.9C90.8,65.2,89.6,62,88.7,66.7L88.7,66.7z"/>
<path class="st8" d="M102.7,67.5c-0.9,1.4-1.9,1.5-4,1.2c0.4,0.6,0.5,0.4,0.6,1.1c-0.8,0.3-1.4-0.4-2.1-0.8c-0.6,0.3-2-2.2-2.3-2.6
	c-0.1,0.6,0,0.3-0.3,0.5c-0.4-0.5-0.8-1.2-0.8-2l-0.6-0.9c-0.4,0.2-0.9,0.4-1.5,0.4c1.3,2.8,2.4,6.4,1.7,9.8c0.5,0,4-0.9,5.2-1
	c-0.8-1.1-1.9-1.1-2.4-2.6c1.9,1.3,2.4,2.2,5,3.1c1.9,0.6,4.5,1.2,6.1,0.7c-0.4-0.5-1.2-1-1.6-1.5c-1.6-1.7-2.7-4.3,0.2-4.8
	c0.4-1.4,0.9-1.8,1.6-2.5c-0.8-1.8-0.6-3.7,1.5-4l-0.3-0.6c-0.4-0.8-0.4-1.4,0.1-2.2c1.3-2.4,4.3-1.6,4.6-1.6c1.3,0,0.6-0.9,2.6-0.2
	c-1.2-1.5-5.3-1.4-6.8-1.4c0.6-0.9,1.2-0.9,1.9-1.9c-1.8,0-1.9,1.1-3.2,2.1c-2,1.6-1.4,0.5-1.4,3.2c-0.1,2.5-0.8,4.8-2.2,6.9
	C103,68,103.2,67.5,102.7,67.5L102.7,67.5z"/>
<path class="st6" d="M111,53.9c-0.7,1-1.3,1.1-1.9,1.9c1.6-0.1,5.6-0.2,6.8,1.4c0.2,0.2-1.1,0.2-1.1,0.2c-1,0.2-0.5,0.4-1,0.8
	c-5.9-1.5-7,4.6,0.6,4c5.7-0.4,6.4-4.6,2.6-6.6C114.7,54.4,113.3,54.4,111,53.9L111,53.9z"/>
<path class="st6" d="M116.6,62.6c-5.4,1-6-0.7-7.4-0.5c-1.6,0.2-2.3,3.5,1.2,5c2.2,1,5.4,1.3,7.3,0.5c0.9-0.4,1.5-2,1.4-3.1
	C118.9,63.7,117.6,62.4,116.6,62.6L116.6,62.6z"/>
<path class="st6" d="M116.8,69c0,0-0.1,0-0.1-0.1l-0.9-0.1c-1.5,0.1-2.3,0.2-4-0.3c-2.3-0.6-2.8-1.4-4.2-2.5c-1,1.2-1.7,2.2-0.5,3.4
	C109.5,72,117.2,73.6,116.8,69L116.8,69z"/>
<path class="st6" d="M106.9,72.9c4.4,1.5,3.6,1.5,7.7,1l0.3-1.3c-0.6-0.5-4.4,0.6-7.6-2.2l-1.1-1.4c-0.2-0.3,0-0.1-0.3-0.4
	C102.4,70.1,106.4,72.8,106.9,72.9L106.9,72.9z"/>
<path class="st9" d="M106.1,55.9c2-0.6,4.6-4.2,5-7.3c0.1-1,0.4-2.3,0.1-3.2C110.1,50.7,109.4,52.6,106.1,55.9L106.1,55.9z"/>
<path class="st10" d="M106.9,72.9c0.3,0.7,1,1,1.7,1.3c0.7,0.3,1.6,0.5,2.4,0.5c1.5,0.2,2.7,0.1,3.6-0.9
	C110.4,74.4,111.3,74.4,106.9,72.9L106.9,72.9z"/>
<path class="st8" d="M90.1,73.1c0.5,0.7,1,1.2,2,1.7c0.1-0.4,0.8-2.2,0.4-2.4C91.9,72.3,90.6,72.9,90.1,73.1L90.1,73.1z"/>
<path class="st11" d="M94.9,66.5c0.3,0.4,1.7,2.9,2.3,2.6c-0.2-0.7-0.9-1-1.9-3.1c-0.7-1.6-0.6-2.1-0.9-3.6
	C93.7,63.1,94.8,65.7,94.9,66.5L94.9,66.5z"/>
<path class="st12" d="M89.6,66.4c0.7-0.5,0.9-0.5,1.6-0.8c0-0.6-0.1-1.2-1.1-0.8c0,0-0.6,0.4-0.7,0.6C88.7,66.8,89.3,66.2,89.6,66.4
	L89.6,66.4z"/>
<path class="st13" d="M95.9,66.1c0.1,0.5,0,0.1,0.2,0.6c0.4,0.8,1.5,1.7,2.3,2.1L95.9,66.1L95.9,66.1z"/>
<path class="st14" d="M82.9,43.6C82.9,43.6,82.9,43.5,82.9,43.6c0-0.3,0.1-0.4,0.1-0.5C83,43.2,83,43.4,82.9,43.6L82.9,43.6z"/>
<path class="st15" d="M45.4,52.4c0,0,0,0.1,0.1,0.2c0.1,0.1,0.3,0.2,0.5,0.4c0.2,0.1,0.5,0.3,0.9,0.4c0.4,0.1,0.8,0.2,1.3,0.2
	c0.2,0,0.5,0,0.7,0c0.3,0,0.5,0,0.8-0.1c0.3,0,0.5-0.1,0.8-0.1c0.3,0,0.6-0.1,0.9-0.2c0.3,0,0.6-0.1,0.9-0.2c0.1,0,0.3-0.1,0.4-0.1
	c0.2,0,0.3-0.1,0.5-0.1c0.2,0,0.3-0.1,0.5-0.1l0.2-0.1l0.2-0.1c0.3-0.1,0.6-0.2,0.9-0.3c0.3-0.1,0.6-0.3,0.9-0.4
	c0.3-0.1,0.6-0.3,0.8-0.4c0.3-0.1,0.5-0.3,0.8-0.4c0.1-0.1,0.3-0.1,0.4-0.2c0.1-0.1,0.3-0.1,0.4-0.2c0.5-0.3,1-0.6,1.5-0.8
	c0.5-0.3,0.9-0.5,1.3-0.8c0.8-0.5,1.5-0.9,2-1.2c0.3-0.1,0.4-0.3,0.6-0.3c0.1-0.1,0.2-0.1,0.2-0.1l0.1,0.1c0,0,0,0.1-0.1,0.2
	c-0.1,0.1-0.2,0.3-0.4,0.6c-0.4,0.5-0.9,1.1-1.6,1.8c-0.2,0.2-0.4,0.3-0.6,0.5c-0.2,0.2-0.4,0.3-0.7,0.5c-0.5,0.3-1,0.7-1.5,1
	c-0.1,0.1-0.3,0.1-0.4,0.2c-0.1,0.1-0.3,0.1-0.4,0.2c-0.3,0.1-0.6,0.3-0.9,0.4c-0.3,0.1-0.6,0.2-0.9,0.3c-0.3,0.1-0.6,0.2-1,0.3
	c-0.3,0.1-0.7,0.2-1,0.3l-0.2,0.1l-0.2,0c-0.2,0-0.3,0.1-0.5,0.1c-0.2,0-0.3,0.1-0.5,0.1l0,0l0,0l0,0l0,0l-0.1,0l-0.1,0l-0.2,0
	c-0.3,0-0.6,0.1-0.9,0.1c-0.3,0-0.6,0.1-0.9,0.1c-0.3,0-0.6,0-0.9,0c-0.3,0-0.6,0-0.8,0c-0.3,0-0.5-0.1-0.8-0.1
	c-0.5-0.1-0.9-0.2-1.3-0.4c-0.4-0.1-0.7-0.3-0.9-0.5c-0.2-0.2-0.4-0.4-0.5-0.5c-0.1-0.1-0.1-0.2-0.1-0.2L45.4,52.4L45.4,52.4z"/>
<path class="st16" d="M44.4,40.1c0,1.9-1.1,3.5-2.3,3.5c-1.3,0-2.3-1.6-2.3-3.5c0-1.9,1.1-3.5,2.3-3.5
	C43.3,36.6,44.4,38.2,44.4,40.1L44.4,40.1z"/>
<path class="st17" d="M66.4,36.6c-1,0-1.9,0.1-2.8,0.3c-0.5,0.1-0.9,0.2-1.4,0.3c-0.2,0.1-0.5,0.1-0.7,0.2c-0.2,0.1-0.5,0.1-0.7,0.2
	c-0.2,0.1-0.4,0.2-0.7,0.3c-0.2,0.1-0.4,0.2-0.6,0.3l-0.3,0.2l-0.3,0.2c-0.2,0.1-0.4,0.2-0.6,0.4c-0.2,0.1-0.4,0.3-0.5,0.4l-0.2,0.2
	c-0.1,0.1-0.1,0.2-0.2,0.3c-0.1,0.1-0.1,0.2-0.2,0.3c-0.1,0.1-0.1,0.2-0.2,0.3c-0.1,0.2-0.2,0.4-0.3,0.6l-0.3-0.4
	c0.4-0.1,0.8-0.2,1.3-0.3c0.4-0.1,0.8-0.2,1.3-0.2c0.4-0.1,0.9-0.1,1.3-0.2c0.2,0,0.4,0,0.6,0c0.2,0,0.4,0,0.6,0
	c0.9,0,1.7,0,2.6,0.1c0.2,0,0.4,0.1,0.6,0.1c0.2,0,0.4,0.1,0.6,0.2c0.2,0.1,0.4,0.1,0.6,0.2l0.3,0.1l0.3,0.2l0,0.1l-0.3-0.1
	l-0.3-0.1c-0.2-0.1-0.4-0.1-0.6-0.1c-0.2,0-0.4-0.1-0.6-0.1c-0.2,0-0.4,0-0.6,0c-0.8,0-1.7,0-2.5,0.1c-0.4,0-0.8,0.1-1.3,0.1
	l-0.6,0.1l-0.6,0.1c-0.4,0.1-0.8,0.1-1.3,0.2c-0.4,0.1-0.8,0.1-1.2,0.2l-0.5,0.1l0.2-0.5c0.1-0.2,0.2-0.5,0.4-0.7
	c0.1-0.1,0.1-0.2,0.2-0.3c0.1-0.1,0.2-0.2,0.2-0.3c0.1-0.1,0.2-0.2,0.3-0.3l0.3-0.3c0.2-0.2,0.4-0.3,0.6-0.5
	c0.2-0.1,0.4-0.3,0.6-0.4L59,38l0.3-0.2c0.2-0.1,0.4-0.2,0.7-0.3c0.2-0.1,0.5-0.2,0.7-0.2c0.5-0.1,0.9-0.3,1.4-0.4
	c0.5-0.1,1-0.2,1.4-0.2C64.5,36.6,65.4,36.5,66.4,36.6L66.4,36.6L66.4,36.6z"/>
<path class="st18" d="M43.7,38.8c0,0.6-0.4,1.1-0.9,1.1c-0.5,0-0.9-0.5-0.9-1.1c0-0.6,0.4-1.1,0.9-1.1
	C43.3,37.6,43.7,38.1,43.7,38.8L43.7,38.8z"/>
<path class="st19" d="M40,54.9c-2.4,0-4.4-2-4.4-4.4c0-2.4,2-4.4,4.4-4.4c2.4,0,4.4,2,4.4,4.4C44.4,53,42.4,54.9,40,54.9L40,54.9z"
	/>
<path class="st19" d="M70.5,54.7c-3.1,0-5.5-2.5-5.5-5.5c0-3.1,2.5-5.5,5.5-5.5c3.1,0,5.5,2.5,5.5,5.5C76,52.2,73.5,54.7,70.5,54.7
	L70.5,54.7z"/>
<path class="st20" d="M71.3,46.3c-0.3,0.1-0.7-0.1-0.9-0.3c0,0-3-4-0.7-4.5c2.3-0.5,2.4,0.9,2.4,0.9c0,0.3,0.3,0.5,0.6,0.3
	c0,0,1.5-0.8,2.4,0.8C75.9,45.1,71.3,46.3,71.3,46.3L71.3,46.3z"/>
</svg>
