<?xml version="1.0" encoding="utf-8"?>
<!-- Generator: Adobe Illustrator 22.1.0, SVG Export Plug-In . SVG Version: 6.00 Build 0)  -->
<svg version="1.1" id="Layer_1" xmlns="http://www.w3.org/2000/svg" xmlns:xlink="http://www.w3.org/1999/xlink" x="0px" y="0px"
	 viewBox="0 0 86.2 99.1" style="enable-background:new 0 0 86.2 99.1;" xml:space="preserve">
<style type="text/css">
	.st0{fill-rule:evenodd;clip-rule:evenodd;fill:#A55A44;}
	.st1{fill-rule:evenodd;clip-rule:evenodd;fill:#F1D0B2;}
	.st2{fill-rule:evenodd;clip-rule:evenodd;fill:#FCFCFC;}
	.st3{fill-rule:evenodd;clip-rule:evenodd;fill:#69898C;}
	.st4{fill-rule:evenodd;clip-rule:evenodd;fill:#B6C5C5;}
	.st5{fill-rule:evenodd;clip-rule:evenodd;fill:#F9F9F9;}
	.st6{fill-rule:evenodd;clip-rule:evenodd;fill:#F8F8F8;}
	.st7{fill-rule:evenodd;clip-rule:evenodd;fill:#F4F4F4;}
	.st8{fill:#EBC29A;}
	.st9{fill:#EEB49C;}
	.st10{fill:#1E1A17;}
	.st11{fill:#FFFFFF;}
	.st12{fill:#1E1A1B;}
	.st13{fill:#E26465;}
</style>
<path class="st0" d="M67.7,0c5.1,3.1,9.8,7.6,13.9,13.9c4.4,6.7,6.1,14.9,2.9,24.1c-6.9-13.8-18.3-18.9-32.2-15.8l-0.1,0
	c0.2-1.7,0.5-3.5,1-5.2C55.5,9.2,60.9,3.2,67.7,0L67.7,0z"/>
<path class="st0" d="M84.1,46.8c-20.1,6.7-37.6-2-49.9-20.1c4.6-3.2,12.9-5.8,18.4-5.8C68.2,21,81.2,32.1,84.1,46.8L84.1,46.8z"/>
<path class="st1" d="M34.2,26.8C46.5,44.8,64,53.5,84.1,46.8c0.4,2,0.6,4.1,0.6,6.2c0,17.7-14.4,32.1-32.1,32.1
	c-17.7,0-32.1-14.4-32.1-32.1C20.5,42.2,25.9,32.6,34.2,26.8L34.2,26.8z"/>
<path class="st0" d="M34.2,26.8c4.6,6.8,10,12.3,16,16.1c-9.8-4.2-19.9-2.5-29.4,5.8C22,39.6,27,31.8,34.2,26.8L34.2,26.8z
	 M55.7,45.9c0.2,0.1,0.3,0.1,0.5,0.2l0,0.1l0,0C55.9,46,55.8,45.9,55.7,45.9L55.7,45.9z"/>
<path class="st2" d="M54.4,96.2c4.5-0.2,7.8-3.3,12-2.9c2,0.2,3.7,1.3,5.9,1.4c2.4,0,3.7-1.6,5-2.5c0.1,0.1,0.1,0.2,0.1,0.2
	c0,0,0.1,0.1,0.1,0.2c0.1,0.1,0.2,0.3,0.3,0.4c2.3,3.2,4.5,2.1,4.5-0.1c0.1-1.3,0-2.4,0.1-3.6c0.2-1.7,1-1.6,1.4-2.1
	c-1.5-4.3-5.8-3.8-6.4,1.6c-0.9-2.2,0.9-2-3.1-2.7c-9-1.6-15.3,1.5-14.8,1.6c0.1,0-0.1,0.1-0.2,0.1l5-0.5c-3,1.4-9.8,1.2-9.8,5.4
	c1.8-1.5,4.7-2.8,8.1-2.3c-3.2,0.3-8.9,2.3-9,4.8C53.6,96.7,53.7,96.2,54.4,96.2L54.4,96.2z"/>
<path class="st3" d="M54.4,96.2c-0.7,0-0.8,0.5-0.8-1c0.1-2.5,5.8-4.5,9-4.8c-3.3-0.5-6.3,0.8-8.1,2.3c0.1-4.2,6.8-4,9.8-5.4l-5,0.5
	c0.1,0,0.3-0.1,0.2-0.1c-0.5-0.2,5.9-3.3,14.8-1.6c4,0.7,2.2,0.5,3.1,2.7c0.6-5.4,4.9-6,6.4-1.6c-0.4,0.5-1.1,0.3-1.4,2.1
	c-0.2,1.3,0,2.3-0.1,3.6c0.9,0.8,0.2,0.7,0.8,1.4c0.6,0.8,1,0.5,1.5,0.9c-1,4.9-5.1,3.9-6.2,0.1c-0.6,1.2,0.1,0.5-0.9,1.2
	c-0.9,0.6-3.6,1.1-4.8,1.2c-4.2,0.2-5.3-2.1-7-2.2C59.3,94.8,56,97.6,54.4,96.2L54.4,96.2z M78.2,96.7c1.1,0.9,4.7,6.1,7.2-2
	c-0.5-0.5-1.4-0.7-1.7-1.1c-1.1-1.5-1.1-3.6,0-5.3c0.3-0.4,0.9-0.1,1.3-0.6c-0.3-0.3-3.3-8-7.5-1.4c-4.9-1.3-11.4-1.9-16.6,0.1
	c-1.4,0.5-2.2,1-3.2,1.7c-4.1,3.1-3.1,1.8-4,5c-0.3,1-1.3,2-0.5,3.4c2,2.4,8.9-1.8,13.2-0.2c1.9,0.7,2.2,1.9,5.6,1.9
	C74.4,98.2,76.5,97.4,78.2,96.7L78.2,96.7z"/>
<path class="st4" d="M82.4,92.8c0.1,2.2-2.2,3.3-4.5,0.1c-0.1-0.1-0.2-0.3-0.3-0.4c0-0.1-0.1-0.2-0.1-0.2c0,0-0.1-0.1-0.1-0.2
	c-1.3,0.9-2.6,2.5-5,2.5c-2.2,0-3.9-1.2-5.9-1.4c-4.2-0.4-7.5,2.7-12,2.9c1.6,1.4,4.9-1.4,11.4-0.9c1.6,0.1,2.8,2.4,7,2.2
	c1.2-0.1,3.9-0.6,4.8-1.2c1-0.7,0.4,0,0.9-1.2c1.1,3.8,5.3,4.8,6.2-0.1c-0.5-0.3-0.9-0.1-1.5-0.9C82.6,93.5,83.2,93.6,82.4,92.8
	L82.4,92.8z"/>
<path class="st5" d="M3.6,49.8l3.1-0.8c2-0.2,0.6-0.2,1.3,0.3C6.2,49.8,5.6,50,3.6,49.8L3.6,49.8z M6.7,39c1,0.8,1.3,2.2,1.4,3.6
	c0.1,1.4,0,3.2-0.6,4.2C7.4,42.9,7.4,42.6,6.7,39L6.7,39z M8.9,33.3c-1.8,1.2-2.3,0.7-2.7,2.3L7.8,35c0,0.1-0.1,0.1-0.2,0.3
	l-1.3,1.1C5.6,36.9,5.5,37,5,37.7c1,3.3,0.4,8.6-1.3,10.9c-1.3-3.2-1.5-6.4-0.5-10c1-3.5,1.4-6.8,1.3-10.6c0.1-1.5-1.1-3.3-2.8-2.2
	c-0.8,1.7-0.1,4.4,0.2,6.3c0.6,4.9-1.3,9.4-1.3,12.3c0,1.2,0.5,1.9,0.7,2.8c0.1,1,0.1,0.4-0.2,1.1c-0.2,0.4-0.3,0.3-0.5,1.3
	c1.3,3,5.1,2.6,7.9,1.3c1.1-0.5,2.3-1.5,2.7-2.8c0.9-2.9-1.5-2.5-1.8-2.7c2.4-3.3,1.1-5.3,0.9-9.3c-0.2-4.3,3.1-8-0.3-8.3L8.9,33.3
	L8.9,33.3z"/>
<path class="st3" d="M9,29.7l-0.2,3.6l1.1-5.5c3.4,0.4,0.1,4,0.3,8.3c0.2,4,1.5,6-0.9,9.3c0.3,0.2,2.6-0.2,1.8,2.7
	c-0.4,1.3-1.6,2.3-2.7,2.8c-2.8,1.3-6.7,1.6-7.9-1.3c0.2-1.1,0.3-0.9,0.5-1.3c0.3-0.7,0.3-0.1,0.2-1.1c-0.1-0.8-0.6-1.5-0.7-2.8
	c-0.1-2.9,1.8-7.4,1.3-12.3c-0.2-2-1-4.6-0.2-6.3c1.7-1.1,2.9,0.7,2.8,2.2c1.4,1.9,0.1,5.5,0.5,7.6c1.2-2.4,0.9-6.3,0.1-8.8
	c-1.8-2.8-1.2-1.3-2.2-2.3C2.3,24,2.2,22.9,2.4,22c0.5-2,2.9-1.5,3.8,3l0.2,7.7c1.2-2.3,0.6-7.4,0.1-9.8c-0.5-0.6-0.7-1.4-1.1-1.8
	c-1-0.9-1.6-0.1-1.3-1.5c0.3-0.4,0-0.8,1.3-0.5C6,19.2,6,19.5,6.3,19.9c0.5,0.7,0.8,1.4,0.7,2.4l0.3,0.5c0.5,1.2,0.1-0.7,0.4,1.6
	c0.5,3.4-0.2,6.2,0.2,8.2l0.5-2.1c0.6-11.7-2-9.5-1.8-11.8C9.8,18.7,9.4,27.3,9,29.7L9,29.7z M10,50.7c1.2-1.2,3-3.4,1-5.6
	c0,0-0.2-0.1-0.2-0.2c0-0.1-0.1-0.1-0.2-0.2c2.1-4.8,0-5.7,0.4-10c0.2-2.4,1.8-5.6,0.8-7c-0.5-0.6-1.6-0.9-1.6-1
	c0-0.1-0.2-0.1-0.2-0.1c0-2.4-0.2-5.1-0.9-7.1c-0.4-1.1-0.8-1.9-2.2-1.8l-3.1,0.8c-1.1,2.7-0.9,0.9-1.8,2.3c-0.7,1-0.3,2.5,0,3.6
	c-2.2,2.3-1.4,3.1-0.9,7.7c0.7,7.1-2.1,9-0.6,14.5c0.5,1.8,0.2,0.4-0.2,1.5C-1.5,53.6,7.6,53.1,10,50.7L10,50.7z"/>
<path class="st4" d="M6.5,22.9c0.5,2.4,1.1,7.5-0.1,9.8L6.2,25l-0.9,1.6c0-0.1-0.1,0.1-0.2,0.2c0.8,2.5,1.1,6.4-0.1,8.8
	c-0.4-2.1,0.9-5.7-0.5-7.6c0.1,3.9-0.3,7.1-1.3,10.6c-1,3.6-0.8,6.8,0.5,10C5.4,46.3,6,41,5,37.7c0.1-1.4,0.4-0.8,1.2-2.2
	c0.3-1.7,0.8-1.1,2.7-2.3L9,29.7c-0.5,0.4-0.4-0.1-0.6,0.7l-0.5,2.1c-0.4-2,0.3-4.8-0.2-8.2c-0.3-2.2,0.1-0.4-0.4-1.6L7,22.2
	L6.5,22.9L6.5,22.9z"/>
<path class="st6" d="M5.1,26.8c0.1-0.1,0.2-0.3,0.2-0.2L6.2,25c-0.9-4.5-3.3-5-3.8-3c-0.2,0.9,0,2,0.5,2.5
	C3.8,25.5,3.3,24.1,5.1,26.8L5.1,26.8z"/>
<path class="st7" d="M8.4,30.3c0.2-0.8,0.1-0.3,0.6-0.7c0.3-2.4,0.8-10.9-2.4-11.1C6.4,20.9,9.1,18.6,8.4,30.3L8.4,30.3z"/>
<path class="st6" d="M6.5,22.9L7,22.2c0.1-0.9-0.2-1.7-0.7-2.4C6,19.5,6,19.2,5.4,19.1c-1.3-0.3-1,0.1-1.3,0.5
	c-0.4,1.3,0.3,0.5,1.3,1.5C5.9,21.5,6,22.3,6.5,22.9L6.5,22.9z"/>
<path class="st3" d="M8,42.6c-0.1-1.4-0.4-2.8-1.4-3.6c0.8,3.6,0.8,3.9,0.8,7.8C8.1,45.7,8.2,43.9,8,42.6L8,42.6z"/>
<path class="st3" d="M6.2,35.6c-0.8,1.3-1.1,0.7-1.2,2.2c0.5-0.7,0.6-0.8,1.3-1.4l1.3-1.1c0-0.1,0.1-0.1,0.2-0.3L6.2,35.6L6.2,35.6z
	"/>
<path class="st3" d="M3.6,49.8c2,0.1,2.7-0.1,4.4-0.5c-0.7-0.4,0.7-0.5-1.3-0.3L3.6,49.8L3.6,49.8z"/>
<path class="st8" d="M28,58.8l0.1-0.3c0.3-0.1,0.4-0.1,0.4-0.1l0,0C28.2,58.7,28,58.8,28,58.8L28,58.8z"/>
<path class="st9" d="M40.7,78.4c-0.6,0-1.2-0.1-1.7-0.3c-0.7-0.4-1.3-0.8-1.9-1.2c-0.9-0.9-1.5-2.2-1.5-3.6c0-2.8,2.3-5.1,5.1-5.1
	c2.8,0,5.1,2.3,5.1,5.1C45.9,76.1,43.6,78.4,40.7,78.4L40.7,78.4z"/>
<path class="st9" d="M64.3,77.2c-1.8-0.8-3.1-2.6-3.1-4.7c0-2.8,2.3-5.1,5.1-5.1c2.8,0,5,2.2,5.1,4.9c0,0.1,0,0.2,0,0.2
	c0,2.8-2.3,5.1-5.1,5.1C65.6,77.6,64.9,77.4,64.3,77.2L64.3,77.2z"/>
<path class="st10" d="M75,60.3c-0.1,3.7-1.8,5.6-2.4,6.1c-3,2.5-9.7,1.2-11.5,0.4c-1.8-0.8-2.8-3-3.9-5.9c-1.3-3.7-0.4-5.1,0.3-6.1
	c0.7-1.1,4.1-1.9,8-2.1c3.4-0.2,7.7,1.1,7.7,1.1C75.5,54.7,75.2,56.7,75,60.3L75,60.3z M49,61.3c-0.8,3-1.6,5.3-3.3,6.3
	c-1.7,1-8.3,2.8-11.5,0.7c-0.6-0.4-2.5-2.2-3-5.8c-0.5-3.6-1-5.5,1.1-6.7c0,0,4.2-1.7,7.6-1.8c3.9-0.2,7.3,0.3,8.1,1.3
	C48.9,56.2,49.9,57.5,49,61.3L49,61.3z M73.7,51.2c-3.1,0-9.9,0.2-12.8,0.6c-3,0.4-3.6,0.7-4,1c-0.4,0.4-0.6,0.9-1.5,1.1
	c-0.8,0.2-2.3,0.4-2.6,0.4c-0.3,0-1.9-0.1-2.6-0.2c-0.9-0.1-1.1-0.6-1.6-1c-0.5-0.3-1.1-0.5-4.1-0.6c-3-0.1-9.7,0.3-12.8,0.7
	c-3.1,0.3-5.3,1.3-5.3,1.3l0.4,3.8c0,0,0.4,0.1,1,0.3c0.6,0.1,2.2,5,3.3,7.5c1.1,2.5,2.5,3.4,4.8,3.9c4.5,0.6,8.7-0.7,10-1.2
	c1.3-0.6,2.1-2,2.9-3.6c0.8-1.6,2.2-5.7,2.6-6.8c0.3-0.8,1.2-1.1,1.6-1.2c0.4,0.1,1.3,0.3,1.7,1c0.6,1,2.4,5,3.3,6.5
	c0.9,1.5,1.9,2.8,3.2,3.3c1.3,0.4,5.7,1.3,10.1,0.3c2.2-0.8,3.6-1.8,4.4-4.4c0.8-2.6,1.9-7.6,2.5-7.8c0.6-0.2,2-0.2,2-0.2l-1-4
	C79.1,52,76.8,51.2,73.7,51.2L73.7,51.2z"/>
<path class="st11" d="M48.4,61.2c-0.2,1.5-0.6,3.6-1.6,4.7c-2.9,3.2-8.5,3.8-11.8,2.2c-2-1-2.9-3.7-2.5-6.8c0.3-1.8,1.4-3.8,3.9-4.9
	c0.4-0.2,0.8-0.3,1.2-0.5C44.6,53.6,49.2,55.4,48.4,61.2L48.4,61.2z"/>
<path class="st11" d="M74.5,61.9c-1.1,7.9-17.7,7.7-16.4-0.8c0.3-1.8,1.4-3.8,3.9-4.9c0.4-0.2,0.8-0.3,1.2-0.5
	C70.2,53.5,75.3,56.1,74.5,61.9L74.5,61.9z"/>
<path class="st12" d="M44.7,63.3c0.2,4.7-7.1,5.6-7.3,0c0-2,1.6-3.6,3.6-3.6C43.1,59.7,44.7,61.3,44.7,63.3L44.7,63.3z"/>
<path class="st12" d="M70.6,63.3c0,2.4-2.3,4-4.2,3.7c-1.7-0.2-3.1-1.7-3.1-3.7c0-2,1.6-3.6,3.6-3.6C68.9,59.7,70.6,61.3,70.6,63.3
	L70.6,63.3z"/>
<path class="st11" d="M43.8,63.5c0,0.5-0.4,0.9-0.9,0.9c-0.5,0-0.9-0.4-0.9-0.9c0-0.5,0.4-0.9,0.9-0.9C43.4,62.6,43.8,63,43.8,63.5
	L43.8,63.5z"/>
<path class="st11" d="M69.8,63.5c0,0.5-0.4,0.9-0.9,0.9c-0.5,0-0.9-0.4-0.9-0.9c0-0.5,0.4-0.9,0.9-0.9C69.4,62.6,69.8,63,69.8,63.5
	L69.8,63.5z"/>
<path class="st13" d="M56.5,71.1c-1.3-0.4-4.8-0.5-6.5,0c-1.7,0.5,0.6,2.8,3.5,2.8C56.3,73.9,57.5,71.5,56.5,71.1L56.5,71.1z"/>
</svg>
