<?xml version="1.0" encoding="utf-8"?>
<!-- Generator: Adobe Illustrator 22.1.0, SVG Export Plug-In . SVG Version: 6.00 Build 0)  -->
<svg version="1.1" id="Layer_1" xmlns="http://www.w3.org/2000/svg" xmlns:xlink="http://www.w3.org/1999/xlink" x="0px" y="0px"
	 viewBox="0 0 122.4 90.9" style="enable-background:new 0 0 122.4 90.9;" xml:space="preserve">
<style type="text/css">
	.st0{fill-rule:evenodd;clip-rule:evenodd;fill:#F1D0B2;}
	.st1{fill-rule:evenodd;clip-rule:evenodd;fill:#A55A44;}
	.st2{fill-rule:evenodd;clip-rule:evenodd;fill:#66888A;}
	.st3{fill-rule:evenodd;clip-rule:evenodd;fill:#FCFCFC;}
	.st4{fill-rule:evenodd;clip-rule:evenodd;fill:#B5C7C7;}
	.st5{fill-rule:evenodd;clip-rule:evenodd;fill:#FBFBFB;}
	.st6{fill-rule:evenodd;clip-rule:evenodd;fill:#B6C5C5;}
	.st7{fill-rule:evenodd;clip-rule:evenodd;fill:#F9F9F9;}
	.st8{fill-rule:evenodd;clip-rule:evenodd;fill:#DBE4E8;}
	.st9{fill-rule:evenodd;clip-rule:evenodd;fill:#69898C;}
	.st10{fill-rule:evenodd;clip-rule:evenodd;fill:#FAFAFA;}
	.st11{fill-rule:evenodd;clip-rule:evenodd;fill:#F8F8F8;}
	.st12{fill:#FAFAF6;}
	.st13{fill:#1E1A1B;}
	.st14{fill:#201D19;}
	.st15{fill:#E26465;}
	.st16{fill:#E31F27;}
</style>
<path class="st0" d="M52.4,68.3C70,68.3,84.3,54,84.3,36.4C84.3,18.7,70,4.5,52.4,4.5c-17.6,0-31.9,14.3-31.9,31.9
	C20.4,54,34.7,68.3,52.4,68.3L52.4,68.3z"/>
<path class="st1" d="M78.8,6.5C77,5.6,65,7.9,67.1,4.5c1.9-3.2-1.2-2-6.8-1.1c-1.9,0.3-4.9,0.9-6.1,0.5c-0.7-0.2-0.9,0.5-0.1-2
	c2.3-8-30.8,11.2-31.9,24.1c2.2,0.5,5.3-10.5,9-8.5c14.8,7.7,38.1,6.9,47.6,4.3c0.9-0.3,2.9,4,3.6,3.8C85.2,24.6,74.5,12.2,78.8,6.5
	L78.8,6.5z"/>
<path class="st2" d="M105.3,65.6c1.5-0.2,2.5,0.3,4.3-0.3c2.6-0.8,1.9-1.5,3.6-1.8c0.3,1.3,0.8,1.6-0.3,3.1
	C110.6,69.6,104.1,69.4,105.3,65.6L105.3,65.6z M111.4,63.2c-1,1-4.3,2.9-6.5,1.1c-0.6-0.8-0.3-1.6-0.1-2.8l2.1-0.1
	c1.1-0.2,1.8-0.6,2.6-1c1-0.5,1.4-1.1,2.3-1.6C114.4,59.5,113,62.7,111.4,63.2L111.4,63.2z M108.2,53.1c1.4,1.3,3.9,2.3,3.1,4.3
	c-0.5,1.3-3.2,2.7-4.3,3c-3.4,1-5-0.5-4.3-2c0.6-1.2,1.5-1,2.4-1.2c1.1-0.3,0.8-1.1,2-1.5c-0.1-0.8,0.3-0.3-0.3-0.7
	c-0.7,0.8-0.9,0.6-1.5,2c-1.3-0.2-1.9,0.2-2.6,0.6c-0.6,1-0.9,2-0.3,2.9c1.1,1.4,1.9,0.1,1.3,2.3c0.3,0.9,0,1.3-0.3,2.3l0.6-0.9
	l1,1.1c-2,2.3,0.5,3.7,2.8,4.2c-1,0.9-4.4,2.2-6.3,2.5c-2.5,0.4-5,0.7-7.6,0.4c1.3-1.8,1.4-4,0.6-5.8c-0.2-0.5-0.2-0.3-0.4-0.5
	c0.4,1.7,0.9,3.7-0.3,5.5l0-2.3c-0.8,0.8-0.2,2.2-2.3,2.3c0.1-1.8,0.3-2.5,0.1-4.3c-0.2-1.9-0.8-2.5-1-3.8c-1.4-1.3-2.1-2.8-4.5-2.1
	c0.4-1.1,1.1-1.9,2.3-1.6c1.4,0.3,1.8,1.3,2.3,2c1.1,0.2-0.8-1.9-1.3-2.3C86.2,57,89.8,50,91,49.2c0.4-1.4,1.2-2.8,1.7-4.2
	c0.6-1.8,0.5-3.2,2-4c2.3,0.1,3,3.3,3.1,5.2c0.1,3.9-1.1,4.3-2.1,7.2c2.8,3.5,5.1,7.6,4.6,12.7c0.8-0.5,0.6-2.2,0.6-3.3
	c0.2-2.1-1.4-5.2-1.9-6.8c-0.6-0.8-0.7-1.3-1.5-2c1.4-1.6,6.5-3.7,9.5-4c3.5-0.4,5.7-1.5,8-3.4c0.9-0.8,2.5-2.1,3.9-2.1
	c2,0.1,3.1,1.7,2.4,3.5c-0.9,2-4.3,3.4-5.8,4.2c-0.7,0.4-2.3,1-3.4,1.2C110.6,53.6,108.6,52.9,108.2,53.1L108.2,53.1z M85.5,63.2
	c0.8-0.3,1.2-0.9,1.9-1.3c2.8,1.4,4.1,5.5,3,9c0.4,0.9-0.2,0.5-0.3,0.5L90,70.8c-0.2,0.2-0.4,0.3-0.7,0.4l-0.7,0.3
	c1.7,1.7,1.3,1.2,3.6,1.2c0.8,0,3.1,0.8,4.4,0.9c7.5,0.4,10.7-3,14.4-4.7c3.1-1.4,4.7-4.4,2.6-6.1c1-2.5,1.1-4.1-1.2-5.1
	c0.1-1.7-0.4-2-0.9-3.2c2.5-0.3,8-3.3,9.4-4.5c2.8-2.5,1.1-6.6-2.4-6.2c-1.4,0.2-1.4,0.4-2.3,1.4c-1.9,1.8-7.2,3.3-9.8,3.8
	c-2.7,0.6-5,1.5-7.3,2.9c-0.7,0.5-1.6,1.3-2.2,1.3c0.7-2.4,2.6-4.7,1.5-9c-0.2-1-0.9-2.6-2.1-3.3c-3.7-2.2-3.9,2.9-4.1,3.4
	c-0.3,0.8-0.8,1.5-1.1,2.1c-3.8,6.1-4.8,6.4-4.1,12.6C84.6,61,85.4,60.8,85.5,63.2L85.5,63.2z"/>
<path class="st3" d="M90.9,49.2c-0.9,2.3-3.4,7.5-1.2,9.7c1.9,1.9,2.4-1.9,5.4,6.3c0.6,1.6,1.2,4.5,3.7,4.3c1.3-0.3,1.9-2.1,1.5-3.3
	c0.5-5.1-1.8-9.2-4.6-12.7c0.9-2.9,2.2-3.3,2.1-7.2c-0.1-1.9-0.8-5.1-3.1-5.2c-1.5,0.8-1.4,2.2-2,4C92.2,46.4,91.3,47.8,90.9,49.2
	L90.9,49.2z"/>
<path class="st3" d="M107,50c-0.1,0-0.1,0.1-0.2,0.1c0,0-0.1,0.1-0.2,0.1c-0.1,0-0.1,0.1-0.2,0.1l-1.9,0.9c-1.5,1-5.1,3.1-5.6,4.9
	c0.5,1.5,2.1,4.6,1.9,6.8c0.5,0.8,0.3,0.7,0.6,1.7c0.2,0.8,0.4,1.1,1.2,1.5c0.5-1.2,0.8-1.8,1-3.2c0.6-2.2-0.3-0.9-1.3-2.3
	c-0.6-0.8-0.3-1.9,0.3-2.9c0.5-1,1.1-1.9,1.7-2.5c0.4-0.3,2-1.1,2.4-0.1c0.6,0.4,0.3-0.1,0.3,0.7c-1.2,0.4-0.9,1.2-2,1.5
	c-0.9,0.3-1.8,0.1-2.4,1.2c-0.7,1.5,0.9,3.1,4.3,2c1.1-0.3,3.8-1.7,4.3-3c0.7-2-1.7-3-3.1-4.3c-0.2-0.5-0.4,0.3-0.1-0.7
	c3.4,0,4.6,0.2,7.3-1.1l4.4-2.5c0.7-0.4,0.7-0.6,1.5-1c0.6-1.8-0.4-3.4-2.4-3.5c-1.4-0.1-3,1.3-3.9,2.1
	C112.7,48.5,110.5,49.6,107,50L107,50z"/>
<path class="st4" d="M90.7,61.8c0.5,0.9,0.5,0.5,0.5,1.8c-0.4,0.2,0.4,0.7-0.6-0.1c0.2,1.3,0.9,2,1,3.8c0.2,1.8,0,2.5-0.1,4.3
	c2,0,1.4-1.5,2.3-2.3c-0.5-1-1.6-3.2-0.6-4.2c0.7,0.5,0.5,0.3,0.9,1c0.2,0.2,0.1,0,0.4,0.5c0.8,1.7,0.8,4-0.6,5.8
	c2.7,0.2,5.1,0,7.6-0.4c1.9-0.3,5.3-1.6,6.3-2.5c-2.4-0.5-4.9-1.9-2.8-4.2l-1-1.1l-0.6,0.9c0.2-1,0.6-1.4,0.3-2.3
	c-0.2,1.4-0.5,2-1,3.2c-0.8-0.4-1-0.7-1.2-1.5c-0.3-1,0-0.9-0.6-1.7c0,1.2,0.2,2.8-0.6,3.3c0.4,1.2-0.2,3-1.5,3.3
	c-2.5,0.3-3.1-2.7-3.7-4.3c-3-8.1-3.5-4.3-5.4-6.3c-2.2-2.2,0.2-7.4,1.2-9.7c-1.1,0.8-4.8,7.8-1.5,10.3C90,59.9,91.9,62,90.7,61.8
	L90.7,61.8z"/>
<path class="st5" d="M105.3,65.6c-1.3,3.8,5.3,4,7.6,1c1.1-1.4,0.6-1.7,0.3-3.1c-1.7,0.3-0.9,0.9-3.6,1.8
	C107.8,65.9,106.8,65.4,105.3,65.6L105.3,65.6z"/>
<path class="st5" d="M107,61.5c-1.7,3.5,3,2.3,4.5,1.7c1.6-0.5,2.9-3.7,0.4-4.3c-0.9,0.6-1.3,1.1-2.3,1.6
	C108.8,60.9,108,61.3,107,61.5L107,61.5z"/>
<path class="st6" d="M99,56c0.5-1.8,4.1-3.9,5.6-4.8l1.9-0.9c0.1,0,0.1-0.1,0.2-0.1c0.1,0,0.1-0.1,0.2-0.1c0,0,0.1-0.1,0.2-0.1
	c-3,0.3-8.2,2.3-9.5,4C98.3,54.7,98.4,55.2,99,56L99,56z"/>
<path class="st6" d="M108.2,53.1c0.4-0.2,2.5,0.5,3.9,0.2c1.1-0.2,2.7-0.8,3.4-1.2c1.5-0.8,5-2.2,5.8-4.2c-0.8,0.3-0.8,0.5-1.5,1
	l-4.4,2.5c-2.7,1.3-3.9,1-7.3,1.1C107.8,53.4,107.9,52.6,108.2,53.1L108.2,53.1z"/>
<path class="st4" d="M111.4,63.2c-1.5,0.6-6.2,1.8-4.5-1.7l-2.1,0.1c-0.2,1.1-0.4,1.9,0.1,2.8C107.2,66.1,110.4,64.2,111.4,63.2
	L111.4,63.2z"/>
<path class="st5" d="M90.7,63.5c0.9,0.8,0.2,0.3,0.6,0.1c0-1.3,0-0.9-0.5-1.8c-0.5-0.7-0.9-1.7-2.3-2c-1.2-0.2-1.9,0.5-2.3,1.6
	C88.5,60.7,89.3,62.2,90.7,63.5L90.7,63.5z"/>
<path class="st7" d="M93.8,69.4l0,2.3c1.2-1.8,0.7-3.8,0.3-5.5c-0.4-0.7-0.2-0.6-0.9-1C92.2,66.2,93.3,68.4,93.8,69.4L93.8,69.4z"/>
<path class="st4" d="M102.6,57.6c0.7-0.4,1.4-0.8,2.6-0.6c0.7-1.4,0.9-1.2,1.5-2c-0.4-1-2-0.1-2.4,0.1
	C103.7,55.6,103.1,56.6,102.6,57.6L102.6,57.6z"/>
<path class="st8" d="M90,70.8l0.1,0.7c0.1,0,0.7,0.3,0.3-0.5L90,70.8L90,70.8z"/>
<path class="st9" d="M1.7,86.3c0.4,1.3,0.6,2,1.6,2.9c1.7,1.5,4.8,2.1,3.2-3.9c-1.1,0.7-2.1,0.6-3.3,0.2c-1.4-2-1.2-3.7-1.6-6.6
	C0.6,80.7,0.5,84.7,1.7,86.3L1.7,86.3z M2.7,82c0.3,1.5,0.5,2.2,1.3,3c2.3,0.1,2.7-1,3-3.3c-0.5-0.7-0.1-0.3-0.9-0.7
	c-2.1-5-0.6-5.3-0.1-10.2C3.2,73.5,2.3,76.7,2.7,82L2.7,82z M6.6,79.2c0.3,1.3,1.3,2.3,2.9,1.4c1-0.6,1.2-1.8,1.9-2.9
	c-0.3-0.9-0.9-2-1.4-2.9c0.1-3.3,0.1-4.3,1.1-7.1c-2.7,0.9-3.4,1.6-4.2,4.2C6.3,73.8,5.6,77.3,6.6,79.2L6.6,79.2z M11.1,73.4
	c0.2,7.1,5.6,2.5,5.5-1.8c-0.1-1.9-0.6-2,0-2.7l0.6,1.6c0.2,3.5-1,6.4-3.3,7.3c-2.6,1-1-0.5-2.6,2.4c-0.8,1.4-1.3,1.7-3.4,1.8
	c-0.4,1.9-0.9,1.9-0.5,3.9c1.3,0.5,3.6,1.2,4.7,0.3c1.4,0.1,2.1-0.1,2.8-1c1.2-1.5,0.3-1.7,0.4-2.2c2.1-0.8,4.7-1.4,4.8-3.8
	c0.3-0.4,0.3-0.1,0.4-0.8c0.2-1.3-0.3-1.6-0.9-2c-0.1,0-0.2-0.1-0.3-0.2c2.6-0.3,3.1,0.2,5.5,0.7c1.2,0.2,3.2,0.6,4.3,0
	c1.3-0.7,0.3-0.1,0.8-0.9c1.9-0.5,2.9-3.1,0.1-3.2c-2.5-0.1-0.2,0.7-5.1-0.4c-0.1-0.1-0.2-0.3-0.3-0.2l-1.8-1.3c1.6,0.3,3,1.2,4.8,1
	c0.4-2.4-1.4-3.6-2.8-4.5c-0.8-1.3-6.2-4.3-7.7-2.6c-0.8,1.4-0.3,1.2,1,2c0.8,0.5,0.4,0.1,1.2,0.7l1,1.2c-2.1-0.6-4.4-2.9-6.7-1.9
	C11.6,67.7,11.1,70.6,11.1,73.4L11.1,73.4z M28.5,72c1.9-0.2,1.9-0.7,3.8,0c1.1,2.8-0.5,4.9-2.9,5.7c-2.6,0.9-5.5-0.6-8.1-0.9
	c0.3,2.3,0.2,3.8-1.1,4.9c-2.3,1.9-2.7,0.2-3.9,2.6c-0.9,1.8-0.9,2.2-3.2,2.9c-1.8,0.5-3.6,0.3-5.1-0.2c-0.3,2.5,0.4,2.3-1,3.9
	c-3.8,0.9-5.5-2.3-6.3-5.1c-1.6-5.6,1-7.5,1.6-9.8c1.2-4.4,5.1-7.7,9.1-9c1.9-0.6,2.2-1.5,4.8-1.1c0.2-1.2,0.3-1.4,0.8-2
	C20.5,61.7,28.7,66.5,28.5,72L28.5,72z"/>
<path class="st10" d="M24.9,67.4c0.5,1.3,0.7,0.2,0,1.7c-0.6,1.3-2.4,0.8-3.6,1.8c0.9,0.6,2.4,1.3,3.6,1.5c5,1.1,2.6,0.3,5.1,0.4
	c2.8,0.1,1.8,2.7-0.1,3.2c-3.2,0.8-4.3-0.5-6.6-1c-2.6-0.6-4.8,0.4-5,2.8l1.5,0l0.3,1.5c-0.1,2.4-2.7,2.9-4.8,3.8
	c-0.1,0.5,0.9,0.7-0.4,2.2c-0.7,0.9-1.5,1.1-2.8,1c-0.7-1.9,0.4-2.7,1.7-3.4c0.9-0.5,2-1.3,2.9-2.6c1.5-2.2,2.6-7.3,0.5-9.7
	l-0.6-1.6c-0.6-0.8,1.3-0.7-1.3-0.7c0.6,1.9,0.4,2.6-0.7,4.3c-0.9,1.2-1.7,1.9-3.5,1c0-2.8,0.5-5.7,2.5-6.6c2.3-1,4.5,1.3,6.7,1.9
	l-1-1.2c-0.8-0.7-0.3-0.2-1.2-0.7c-1.3-0.8-1.8-0.6-1-2C18.7,63.1,24,66.1,24.9,67.4L24.9,67.4z"/>
<path class="st6" d="M12.1,86.2c-1.1,0.9-3.4,0.2-4.7-0.3c-0.3-2,0.1-2,0.5-3.9c2.1-0.2,2.6-0.4,3.4-1.8c1.6-2.9,0-1.4,2.6-2.4
	c2.3-0.9,3.5-3.8,3.3-7.3c2,2.5,1,7.5-0.5,9.7c-0.9,1.3-2,2.1-2.9,2.6C12.5,83.4,11.3,84.3,12.1,86.2L12.1,86.2z"/>
<path class="st10" d="M10.1,74.8C9.9,76,9.6,76.9,9,77.8c-1.2,1.8-1.1,0.7-2.4,1.4c-1-1.9-0.3-5.4,0.3-7.3c0.8-2.6,1.6-3.3,4.2-4.2
	C10.1,70.5,10.1,71.5,10.1,74.8L10.1,74.8z"/>
<path class="st11" d="M6.2,81.1C4.8,82.6,5,81.8,2.7,82c-0.4-5.3,0.5-8.5,3.4-11.1C5.6,75.8,4.1,76.1,6.2,81.1L6.2,81.1z"/>
<path class="st6" d="M11.1,73.4c1.8,0.9,2.6,0.3,3.5-1c1.1-1.6,1.3-2.3,0.7-4.3c2.6,0,0.8-0.2,1.3,0.7c-0.6,0.7-0.1,0.9,0,2.7
	C16.7,75.9,11.4,80.5,11.1,73.4L11.1,73.4z"/>
<path class="st6" d="M1.7,86.3l0.9,0.1c0.1-0.1,0.4-0.7,0.5-0.9c1.2,0.4,2.2,0.5,3.3-0.2c1.7,6-1.5,5.4-3.2,3.9
	C2.4,88.4,2.1,87.6,1.7,86.3L1.7,86.3z"/>
<path class="st6" d="M29.9,75.9c-0.5,0.7,0.5,0.2-0.8,0.9c-1.1,0.6-3.1,0.3-4.3,0c-2.4-0.5-2.9-0.9-5.5-0.7c0.1,0.1,0.2,0.1,0.3,0.2
	c0.5,0.4,1.1,0.7,0.9,2c-0.1,0.8-0.1,0.4-0.4,0.8l-0.3-1.5l-1.5,0c0.2-2.4,2.4-3.4,5-2.8C25.7,75.4,26.7,76.7,29.9,75.9L29.9,75.9z"
	/>
<path class="st6" d="M24.9,72.3c-1.3-0.2-2.8-0.9-3.6-1.5c1.2-1,3-0.4,3.6-1.8c0.7-1.4,0.5-0.4,0-1.7c1.4,0.8,3.2,2,2.8,4.5
	c-1.7,0.2-3.2-0.7-4.8-1l1.8,1.3C24.7,72.1,24.8,72.3,24.9,72.3L24.9,72.3z"/>
<path class="st6" d="M6.6,79.2c1.3-0.7,1.2,0.4,2.4-1.4c0.6-0.9,0.9-1.9,1.1-3.1c0.5,0.9,1.1,2.1,1.4,2.9c-0.7,1.1-0.9,2.4-1.9,2.9
	C7.9,81.5,7,80.5,6.6,79.2L6.6,79.2z"/>
<path class="st6" d="M2.7,82c2.2-0.2,2.1,0.6,3.5-0.9c0.8,0.4,0.4,0,0.9,0.7c-0.4,2.2-0.7,3.4-3,3.3C3.3,84.2,3,83.5,2.7,82L2.7,82z
	"/>
<path class="st11" d="M3.2,85.5c-0.1,0.2-0.5,0.8-0.5,0.9l-0.9-0.1c-1.3-1.6-1.1-5.6-0.2-7.4C2,81.9,1.8,83.5,3.2,85.5L3.2,85.5z"/>
<path class="st12" d="M39.3,48.5c-9.5,0.1-11.7-4.5-11.5-8.2L40,38.8l5.9,0.9l2.3-0.1C48.1,39.7,48.9,48.5,39.3,48.5L39.3,48.5z"/>
<path class="st12" d="M68.6,48c-9.5,0.1-11.7-4.5-11.5-8.2l11.9-1l5.7,1.1l2.1,0C76.8,39.9,78.1,47.9,68.6,48L68.6,48z"/>
<path class="st13" d="M45.9,39.8c0,1.6-1.3,2.9-2.9,2.9c-1.5,0-2.8-1.2-2.9-2.7l0.2-1.1L45.9,39.8L45.9,39.8z"/>
<path class="st13" d="M74.7,39.9c0,1.6-1.3,2.8-2.9,2.8c-1.6,0-2.9-1.3-2.9-2.9l0.1-1L74.7,39.9L74.7,39.9z"/>
<path class="st14" d="M27.9,33.8c0,0,0.3,0.2,0.7,0.5c0.5,0.3,1.2,0.8,2.1,1.2c0.9,0.5,2,0.9,3.1,1.3c0.6,0.2,1.2,0.4,1.8,0.5
	c0.3,0.1,0.6,0.2,1,0.2c0.3,0.1,0.6,0.1,1,0.2c0.7,0.1,1.3,0.2,2,0.2c0.3,0,0.6,0,1,0c0.2,0,0.3,0,0.5,0c0.2,0,0.3,0,0.5,0
	c0.2,0,0.3,0,0.5,0c0.2,0,0.3,0,0.4,0c0.3,0,0.6,0,0.9,0c0.6,0,1.1-0.1,1.6-0.1c0.5-0.1,0.9-0.1,1.3-0.2c0.4-0.1,0.8-0.1,1-0.2
	c0.6-0.1,0.9-0.2,0.9-0.2l0,0.1c0,0-0.3,0.1-0.9,0.3c-0.3,0.1-0.6,0.2-1,0.3c-0.2,0.1-0.4,0.1-0.6,0.2c-0.2,0.1-0.5,0.1-0.7,0.2
	c-0.3,0-0.5,0.1-0.8,0.1c-0.3,0-0.6,0.1-0.8,0.1c-0.3,0-0.6,0.1-0.9,0.1c-0.3,0-0.6,0-0.9,0c-0.2,0-0.3,0-0.5,0c-0.2,0-0.3,0-0.5,0
	c-0.3,0-0.7,0-1-0.1c-0.7-0.1-1.3-0.2-2-0.3c-0.3-0.1-0.7-0.1-1-0.2c-0.3-0.1-0.6-0.2-1-0.3c-0.6-0.2-1.3-0.4-1.8-0.6
	c-0.6-0.2-1.2-0.5-1.7-0.7c-0.5-0.3-1-0.5-1.4-0.8C28.8,34.8,27.8,33.9,27.9,33.8L27.9,33.8L27.9,33.8z"/>
<path class="st14" d="M56.8,33.8c0,0,0.3,0.2,0.7,0.5c0.5,0.3,1.2,0.8,2.1,1.2c0.9,0.5,2,0.9,3.1,1.3c0.6,0.2,1.2,0.4,1.8,0.5
	c0.3,0.1,0.6,0.2,1,0.2c0.3,0.1,0.6,0.1,1,0.2c0.7,0.1,1.3,0.2,2,0.2c0.3,0,0.6,0,1,0c0.2,0,0.3,0,0.5,0c0.2,0,0.3,0,0.5,0
	c0.2,0,0.3,0,0.5,0c0.1,0,0.3,0,0.4,0c0.3,0,0.6,0,0.9,0c0.6,0,1.1-0.1,1.6-0.1c0.5-0.1,0.9-0.1,1.3-0.2c0.4-0.1,0.8-0.1,1-0.2
	c0.6-0.1,0.9-0.2,0.9-0.2l0,0.1c0,0-0.3,0.1-0.9,0.3c-0.3,0.1-0.6,0.2-1,0.3c-0.2,0.1-0.4,0.1-0.6,0.2c-0.2,0.1-0.5,0.1-0.7,0.2
	c-0.3,0-0.5,0.1-0.8,0.1c-0.3,0-0.6,0.1-0.8,0.1c-0.3,0-0.6,0.1-0.9,0.1c-0.3,0-0.6,0-0.9,0c-0.2,0-0.3,0-0.5,0c-0.2,0-0.3,0-0.5,0
	c-0.3,0-0.7,0-1-0.1c-0.7-0.1-1.3-0.2-2-0.3c-0.3-0.1-0.7-0.1-1-0.2c-0.3-0.1-0.7-0.2-1-0.3c-0.6-0.2-1.3-0.4-1.8-0.6
	c-0.6-0.2-1.1-0.5-1.7-0.7c-0.5-0.3-1-0.5-1.4-0.8C57.8,34.8,56.8,33.9,56.8,33.8L56.8,33.8L56.8,33.8z"/>
<path class="st15" d="M45.2,58.6c1.2,1,3.1,1.8,6.6,1.8c2.7,0,4.8-0.2,6.4-0.7c3.9-1.1,5.7-3.3,5.1-6.2l-3.2,1.5l-13.6,0.2L43,53.7
	C43,53.7,43.5,57.1,45.2,58.6L45.2,58.6z"/>
<path class="st12" d="M60.2,54.9c0,0,1,1.4-0.3,1.7c-1.3,0.3-12.3,0.8-13.3,0.1c-0.9-0.6,0.1-1.6,0.1-1.6L60.2,54.9L60.2,54.9z"/>
<path class="st16" d="M45.2,58.6c1.2,1,3.1,1.8,6.6,1.8c2.7,0,4.8-0.2,6.4-0.7c-0.6-0.6-1.8-1.5-4.2-1.7
	C50.8,57.7,48.1,57.7,45.2,58.6L45.2,58.6z"/>
</svg>
