<?xml version="1.0" encoding="UTF-8" standalone="no"?>
<svg xmlns = "http://www.w3.org/2000/svg"
xmlns:xlink = "http://www.w3.org/1999/xlink"
xmlns:ev = "http://www.w3.org/2001/xml-events" class="svg-map" viewbox="0 0 1188 739"><a class="part-wrap" href="#p-bouquet">
    <path class="part" d="m 944.44723,13.507664 -40.52299,15.032725 -8.2789,9.150353 -0.43573,21.350826 -0.43573,2.832252 -2.61439,1.96079 -2.17865,15.032724 0,6.535967 34.64063,25.925999 48.36615,-20.479359 5.0109,-40.740862 -3.92157,-10.239681 z"> </path>
  </a><a class="part-wrap" href="#p-models">
    <path class="part" d="m 846.84346,52.941332 21.13295,19.390035 3.92159,-1.742924 7.84316,13.071933 -1.96079,2.614387 0.21786,13.2898 -6.75383,4.139437 -1.30719,15.03273 -42.91952,26.5796 -38.34434,9.58608 -11.76474,-10.67541 0.21786,-4.13944 -1.52505,-2.39652 5.44664,-39.215805 3.05011,-8.932488 -8.49675,-8.714623 z"> </path>
  </a><a class="part-wrap" href="#p-dance">
    <path class="part" d="m 661.65772,147.93072 3.70372,-51.198409 89.76061,-34.204894 26.79746,25.926002 -6.31809,49.237621 1.52505,2.39652 -0.21786,5.88236 -17.86498,10.23969 -18.08284,6.75383 -7.18956,-7.84316 -5.66451,2.39652 -26.5796,-24.40094 z"> </path>
  </a><a class="part-wrap" href="#p-craft">
    <path class="part" d="m 686.05867,182.78921 c 11.6195,12.05523 24.76405,24.98192 36.38355,36.16568 l 30.28331,-12.41834 3.92158,-0.65359 16.12205,-5.22877 9.36822,1.08932 -10.89327,-18.9543 -6.31811,-5.88237 -8.49675,3.48585 -6.53597,-10.02182 c -4.92248,-4.63199 -10.67425,-10.09328 -16.12205,-15.25059 -10.53017,4.06683 -29.69156,10.05274 -32.02624,10.02182 -4.21207,2.59728 -7.55267,6.13163 -12.85407,10.23968 z"> </path>
  </a><a class="part-wrap" href="#p-stock">
    <path class="part" d="m 720.91716,217.6477 48.80188,-18.08284 12.41834,2.17865 18.30071,18.30071 -1.52506,11.98261 -5.0109,3.05012 -1.52507,24.18307 -69.49911,29.84758 -15.46846,-15.46845 3.05012,-37.03715 15.03273,-11.32901 z"> </path>
  </a><a class="part-wrap" href="#p-garderobe">
    <path class="part" d="m 1069.0663,288.88974 0.4357,9.58609 14.1613,20.47936 1.9608,1.30719 15.2506,-5.44664 63.6168,-28.97612 2.8322,-1.96079 5.0109,-34.85849 -6.9717,-3.70371 -6.1002,2.39652 -19.6079,-15.90419 -68.4098,27.88679 z"> </path>
  </a><a class="part-wrap" href="#p-multimed">
    <path class="part" d="m 936.16834,234.20548 c 15.73042,11.58451 32.57996,26.2936 47.27683,35.29422 l 8.49675,-2.83225 17.86498,13.9434 10.8933,17.86498 14.8148,-22.00443 v 0 c 5.81,0.0973 11.1739,-0.8462 15.2506,-4.79304 l -1.7429,-1.08933 10.0218,-61.87382 -29.194,-21.35082 -18.7364,10.23968 c -3.5415,-0.14717 -6.3932,-0.47608 -10.4576,0.43573 -16.95305,4.50255 -29.77491,9.44084 -43.57306,13.94339 -7.17673,3.88749 -14.10126,8.53155 -20.69724,14.16127 l -0.21786,8.06102 1.74292,0.87147 z"> </path>
  </a><a class="part-wrap" href="#p-shop">
    <path class="part" d="m 834.86085,354.46728 52.5056,50.10908 35.72995,-15.25059 1.3072,-11.11115 0.21786,-2.39652 0.43573,-3.26798 -50.98054,-48.36616 -37.69074,16.12206 c 0.50528,4.93767 0.73509,9.77667 -1.52506,14.16126 z"> </path>
  </a><a class="part-wrap" href="#p-bank">
    <path class="part" d="m 727.0174,380.39327 -0.43574,-13.28979 65.35967,-28.97613 18.73644,17.21139 16.77565,-6.75383 10.89328,8.93248 5.6645,26.5796 -12.41833,6.75384 -5.22878,34.85849 -19.39003,8.27889 -1.74293,-1.52506 -50.76267,22.22229 1.52505,-16.12206 7.84317,-3.70371 2.61438,-18.51857 3.92158,-1.08933 v -3.92158 l -16.55778,-18.08284 -5.22877,2.61438 -14.81486,-17.21138 z"> </path>
  </a><a class="part-wrap" href="#p-zhkh">
    <path class="part" d="m 733.77123,378.65035 14.81486,17.21138 5.22877,-2.61438 16.55778,18.08284 v 3.92158 l -3.92158,1.08933 -2.61438,18.51857 -7.84317,3.70371 -1.52505,16.12206 -41.39446,18.08284 3.92158,-37.90861 -29.84758,-28.75826 31.15477,-22.65801 z"> </path>
  </a><a class="part-wrap" href="#p-police">
    <path class="part" d="m 660.13267,494.55483 4.57517,-42.70165 -25.49027,-25.05454 -1.96079,-1.52506 25.05454,-19.82576 24.83668,0.65359 29.84758,28.75826 -3.92158,37.90861 0.43573,2.17865 -50.76268,22.44016 z"> </path>
  </a><a class="part-wrap" href="#p-bio">
    <path class="part" d="m 598.25884,520.6987 -13.50766,-11.9826 0.43573,-16.77565 13.07193,-4.57518 -20.69722,-22.00442 0.21786,-11.76474 61.43809,-26.79747 25.49027,25.05454 -4.57517,42.70165 2.61438,2.83226 -61.00236,26.14386 z"> </path>
  </a><a class="part-wrap" href="#p-alice">
    <path class="part" d="m 547.06044,543.79245 42.48378,-19.39003 -4.35731,-12.63621 -0.43573,-3.05011 0.43573,-16.77565 13.07193,-4.57518 -27.01533,-29.84758 -10.45754,0.21786 -40.523,16.55779 -0.87146,5.22877 9.15035,7.6253 -2.39652,7.40742 14.81486,13.72554 -2.61439,27.88679 z"> </path>
  </a><a class="part-wrap" href="#p-carlson">
    <path class="part" d="m 492.15831,567.97553 46.62323,-20.91509 -0.43573,-10.89328 2.61439,-27.88679 -14.81486,-13.72554 -10.02181,-11.329 -2.83226,1.30719 -2.61438,-3.70372 h -3.70372 l -5.44664,-6.10023 c -3.64081,0.85712 -6.94895,-0.28172 -11.11114,3.70372 l -3.48585,5.88236 c -0.95948,1.54046 -2.83225,4.57518 -2.83225,4.57518 l -6.9717,6.75383 -2.39652,4.13945 -5.22877,2.17865 -1.08933,6.9717 28.10466,28.75826 0.65359,3.70371 -5.88237,3.92158 -1.74292,1.08933 -2.17866,16.12205 z"> </path>
  </a><a class="part-wrap" href="#p-hawaii">
    <path class="part" d="m 441.17777,587.36557 46.62323,-19.39004 -0.43573,-5.44664 2.17866,-16.12205 7.62529,-5.01091 -0.65359,-3.70371 -32.67984,-33.11557 h -5.01091 v 0 l -19.6079,7.18956 -15.46845,9.80395 -16.77565,6.9717 -0.43573,4.79305 6.53596,6.53596 -1.30719,15.90419 z"> </path>
  </a><a class="part-wrap" href="#p-farm">
    <path class="part" d="m 337.03803,648.80366 -49.67335,-53.59493 0.43573,-8.06103 44.88031,-18.9543 -2.61439,-22.00443 22.65802,-10.67541 h 8.93249 l 4.35731,12.85407 -0.43573,6.75383 34.42276,-14.59699 11.76474,15.25059 37.03715,37.25501 -0.21787,7.84316 z"> </path>
  </a><a class="part-wrap" href="#p-sport">
    <path class="part" d="m 130.93721,645.53567 c 1.52505,3.92158 59.69516,66.88473 59.69516,66.88473 l 146.40566,-63.61674 -60.78449,-67.97406 -88.45342,37.90861 1.74292,3.26798 z"> </path>
  </a><a class="part-wrap" href="#p-building">
    <path class="part" d="m 107.83795,544.27547 19.10273,17.87029 v 2.46486 l 21.56759,-9.24325 19.10272,-8.62704 27.72976,32.6595 27.11354,-10.47569 -1.84865,-22.80002 -28.9622,-36.97302 -0.61621,-16.02163 -6.16217,-8.62704 -4.31351,-0.61621 -70.86495,28.34597 z"> </path>
  </a><a class="part-wrap" href="#p-cave">
    <path class="part" d="m 75.794676,501.7565 v -30.19462 l 27.729764,-9.24326 26.49732,-1.23243 14.7892,12.94055 13.55677,1.84865 10.47569,8.01082 1.23244,3.08109 -60.38926,25.26489 0,25.88111 z"> </path>
  </a><a class="part-wrap" href="#p-cafe">
    <path class="part" d="m 1049.4173,155.44262 12.3244,10.47568 61.0054,-33.27571 16.6379,11.70812 12.9406,8.62704 3.6973,-17.25407 -9.8595,-17.25407 -46.8325,-41.286535 -27.7298,9.243253 -13.5567,15.405422 z"> </path>
  </a><a class="part-wrap" href="#p-nursery">
    <path class="part" d="m 555.82762,411.17262 35.74058,-10.47569 c 24.59944,-9.43158 41.25826,-25.19787 57.30818,-38.82166 l -1e-5,-21.56759 -54.8433,-51.146 -72.71359,26.49733 15.40542,1.84865 c 11.7579,11.9073 17.17769,7.92859 30.19463,36.35679 0.66283,7.50896 1.42897,15.04375 -4.31352,20.95138 v 9.85947 l -5.54595,11.0919 z"> </path>
  </a><a class="part-wrap" href="#p-theatre">
    <path class="part" d="m 462.16266,441.36725 c 18.98686,4.59266 34.10248,2.36345 39.43788,0.61622 27.51052,-4.059 51.23674,-22.20554 54.22708,-30.81085 v 0 l 1.23244,-15.40542 5.54595,-11.0919 v -9.85947 l 1.84865,-14.78921 0.61622,-13.55677 -10.47569,-15.40542 -17.87029,-13.55677 -15.40542,-1.84865 -94.8974,38.20544 -10.47568,7.3946 5.54594,3.69731 6.77839,-6.16217 37.58923,44.98383 z"> </path>
  </a><a class="part-wrap" href="#p-cartoon">
    <path class="part" d="m 354.3247,395.15098 44.36762,46.21627 -9.24325,5.54595 -2.46487,33.89193 8.01082,6.16217 c 18.32465,-4.25502 30.51273,-10.96466 40.67031,-18.48651 l -1.23243,-6.77838 c 0,0 30.19463,-14.17299 27.72976,-20.33516 2.46487,3.08108 3.6973,-37.58923 3.6973,-37.58923 2.46487,-1.23243 -37.58923,-44.98383 -37.58923,-44.98383 l -10.47569,4.31352 -54.22708,22.1838 z"> </path>
  </a><a class="part-wrap" href="#p-typo">
    <path class="part" d="m 282.84355,464.78349 30.81084,35.74058 27.72976,4.31352 45.60005,-24.03246 2.46487,-33.89193 9.24325,-5.54595 -44.36762,-46.21627 -5.54594,-4.31352 -56.07574,24.03246 -9.85947,11.09191 z"> </path>
  </a><a class="part-wrap" href="#p-post">
    <path class="part" d="m 245.87053,429.65913 36.97302,35.12436 v -38.82166 l 9.85947,-11.09191 56.07574,-24.03246 5.54594,4.31352 v 0 l -24.03245,-35.12436 -6.77839,-3.6973 -43.13518,17.25407 -9.85947,-3.6973 -28.96219,15.40542 8.62703,9.24326 z"> </path>
  </a><a class="part-wrap" href="#p-hydro">
    <path class="part" d="m 154.36233,361.25905 c 8.65609,14.09865 16.18827,14.7897 20.33516,23.10814 l -0.30811,9.24325 5.85406,5.85406 c 4.3586,1.05258 6.96381,3.50787 15.09731,1.54054 9.35096,-2.63763 11.89868,-5.8533 16.02164,-8.93514 l 2.77297,-2.46487 18.1784,-6.16217 8.31893,7.3946 4.92974,-2.46486 -4.00541,-4.31352 32.35138,-13.55677 4.92974,5.54595 6.77838,-2.15675 7.3946,-24.03247 3.6973,-34.81626 5.54595,-13.24866 -43.75139,-46.21626 -61.9298,23.72435 -16.63785,7.70271 0,3.08109 11.70812,13.24866 h -0.92433 v 0 l -4.62162,3.6973 4.62162,5.85406 -21.8757,8.93515 -5.54595,6.77838 -6.47027,1.84865 -0.61622,4.92974 c 0,9.96217 -1.84865,15.91893 -1.84865,25.8811 z"> </path>
  </a><a class="part-wrap" href="#p-hospital">
    <path class="part" d="m 274.83273,275.60491 28.34597,27.11354 -4.31351,11.70812 22.80002,27.72976 40.67031,6.77839 81.95685,-30.81085 35.12436,-19.71894 c 2.84935,-13.11541 2.49415,-27.51264 12.94055,-37.58923 l 3.08109,-17.87029 -8.62704,-11.70812 -12.32433,-1.84865 -44.98383,-45.60005 -157.13531,60.38926 -2.46487,6.77839 7.3946,8.01081 z"> </path>
  </a><a class="part-wrap" href="#p-mchs">
    <path class="part" d="m 476.33565,231.85351 c 3.08109,1.84865 10.47568,-0.61622 10.47568,-0.61622 l 8.62704,11.70812 -1.23243,8.01082 20.33515,20.95138 45.60005,-16.63786 6.77839,8.62704 35.74058,-12.94056 4.92973,-42.51896 6.77839,-3.6973 -54.22709,-52.99465 -81.95684,30.81084 0.61621,17.25407 1.23244,8.01082 c 0,0 1.84865,21.56759 -3.6973,24.03246 z"> </path>
  </a><a class="part-wrap" href="#p-amusement">
    <path class="part" d="m 427.01651,208.27948 52.28774,-17.42924 40.95872,41.83018 -3.48585,34.8585 8.71463,11.329 -42.70166,13.9434 z"> </path>
  </a><a class="part-wrap" href="#p-sto">
    <path class="part" d="m 332.1409,366.80501 22.1838,28.34597 9.24326,-9.85947 52.37844,-24.03246 10.47568,-7.3946 94.8974,-38.20544 -24.64868,-24.03246 -33.27571,13.55677 -11.0919,9.85947 -2.46487,5.54595 z"> </path>
  </a>
</svg>

            