<?xml version="1.0" encoding="utf-8"?>
<!-- Generator: Adobe Illustrator 22.0.1, SVG Export Plug-In . SVG Version: 6.00 Build 0)  -->
<svg version="1.1" id="Layer_1" xmlns="http://www.w3.org/2000/svg" xmlns:xlink="http://www.w3.org/1999/xlink" x="0px" y="0px"
	 viewBox="0 0 188.4 390.9" style="enable-background:new 0 0 188.4 390.9;" xml:space="preserve">
<style type="text/css">
	.st0{fill:#42A4F5;}
</style>
<circle class="st0" cx="94.2" cy="255.4" r="26.7"/>
<path d="M94.2,0C59.2,0,0,7.3,0,34.6v246.8c0,8.8,6.2,15.5,15.7,20.6v27.6c0,17.6,27.6,25.6,53.7,28.5v23.9c0,5,4,9,9,9c5,0,9-4,9-9
	v-22.6c2.3,0.1,4.6,0.1,6.8,0.1c2.1,0,4.4,0,6.7-0.1v22.6c0,5,4,9,9,9c5,0,9-4,9-9V358c26.1-2.9,53.7-10.8,53.7-28.5v-27.6
	c9.5-5.1,15.7-11.8,15.7-20.6V34.6C188.4,7.3,129.2,0,94.2,0z M18,56.3c20.3,9.7,53.4,12.8,76.2,12.8c20.5,0,39.8-2.1,55.8-6
	c4.8-1.2,7.8-6,6.6-10.9c-1.2-4.8-6-7.8-10.9-6.6c-14.4,3.5-32.7,5.5-51.6,5.5c-48.6,0-73.6-11.6-76.1-16.6
	c2.5-5,27.5-16.6,76.1-16.6c49.1,0,74.2,11.9,76.2,16.8v246.4c-2,4.9-27.1,16.8-76.2,16.8C45.1,297.9,20,286,18,281.2V56.3z
	 M154.6,328.9c-2.9,3.9-23.3,12.5-60.4,12.5c-37.2,0-57.5-8.6-60.4-12.5v-20.1c19.2,5.3,42.9,7.1,60.4,7.1c17.6,0,41.2-1.8,60.4-7.1
	V328.9z"/>
</svg>
