<?xml version="1.0" encoding="utf-8"?>
<!-- Generator: Adobe Illustrator 22.0.1, SVG Export Plug-In . SVG Version: 6.00 Build 0)  -->
<svg version="1.1" id="Layer_1" xmlns="http://www.w3.org/2000/svg" xmlns:xlink="http://www.w3.org/1999/xlink" x="0px" y="0px"
	 viewBox="0 0 390.9 232.9" style="enable-background:new 0 0 390.9 232.9;" xml:space="preserve">
<style type="text/css">
	.st0{fill:#42A4F5;}
</style>
<path class="st0" d="M72,49.5H40.5c-5,0-9-4-9-9s4-9,9-9H72c5,0,9,4,9,9S77,49.5,72,49.5z"/>
<path d="M354.9,0H36C16.1,0,0,16.1,0,36v90.4c0,2.1,0.7,4.2,2.1,5.8l28.8,34.5c1.7,2,4.2,3.2,6.9,3.2h315.3c2.7,0,5.2-1.2,6.9-3.2
	l28.8-34.5c1.4-1.6,2.1-3.7,2.1-5.8V36C390.9,16.1,374.8,0,354.9,0z M84.5,151.9l-6.9-16.5h235.7l-6.9,16.5H84.5z M372.9,123.1
	l-24,28.8h-23l6.9-16.5h8.1c5,0,9-4,9-9s-4-9-9-9H50c-5,0-9,4-9,9s4,9,9,9h8.1l6.9,16.5H42l-24-28.8V36c0-9.9,8.1-18,18-18h318.9
	c9.9,0,18,8.1,18,18V123.1z"/>
<path class="st0" d="M195.5,232.9c-5,0-9-4-9-9v-31.5c0-5,4-9,9-9s9,4,9,9v31.5C204.5,228.8,200.4,232.9,195.5,232.9z"/>
<path class="st0" d="M256.6,232.4c-4.3,0-8.1-3.1-8.9-7.4l-5.5-31c-0.9-4.9,2.4-9.6,7.3-10.4c4.9-0.9,9.6,2.4,10.4,7.3l5.5,31
	c0.9,4.9-2.4,9.6-7.3,10.4C257.7,232.3,257.2,232.4,256.6,232.4z"/>
<path class="st0" d="M323.2,231c-3.7,0-7.1-2.3-8.5-5.9l-10.8-29.6c-1.7-4.7,0.7-9.8,5.4-11.5c4.7-1.7,9.8,0.7,11.5,5.4l10.8,29.6
	c1.7,4.7-0.7,9.8-5.4,11.5C325.2,230.8,324.2,231,323.2,231z"/>
<path class="st0" d="M134.3,232.4c-0.5,0-1,0-1.6-0.1c-4.9-0.9-8.2-5.5-7.3-10.4l5.5-31c0.9-4.9,5.5-8.2,10.4-7.3
	c4.9,0.9,8.2,5.5,7.3,10.4l-5.5,31C142.3,229.3,138.6,232.4,134.3,232.4z"/>
<path class="st0" d="M67.8,231c-1,0-2.1-0.2-3.1-0.5c-4.7-1.7-7.1-6.9-5.4-11.5l10.8-29.6c1.7-4.7,6.9-7.1,11.5-5.4
	c4.7,1.7,7.1,6.9,5.4,11.5L76.2,225C74.9,228.7,71.4,231,67.8,231z"/>
<circle class="st0" cx="350.4" cy="40.5" r="9"/>
<circle class="st0" cx="318.9" cy="40.5" r="9"/>
</svg>
