<?xml version="1.0" encoding="utf-8"?>
<!-- Generator: Adobe Illustrator 22.0.1, SVG Export Plug-In . SVG Version: 6.00 Build 0)  -->
<svg version="1.1" id="Layer_1" xmlns="http://www.w3.org/2000/svg" xmlns:xlink="http://www.w3.org/1999/xlink" x="0px" y="0px"
	 viewBox="0 0 298.3 403.5" style="enable-background:new 0 0 298.3 403.5;" xml:space="preserve">
<style type="text/css">
	.st0{fill:#42A4F5;}
</style>
<circle class="st0" cx="80" cy="26.7" r="26.7"/>
<circle class="st0" cx="220" cy="26.7" r="26.7"/>
<path d="M226.3,156.6H72c-5,0-9-4-9-9s4-9,9-9h154.3c5,0,9,4,9,9S231.3,156.6,226.3,156.6z"/>
<path d="M284.8,44.1h-20.2l-7.1-25c-1.1-3.9-4.6-6.5-8.7-6.5h-13.1c-5,0-9,4-9,9s4,9,9,9h6.4l3.9,13.5h-51.9l3.9-13.5h6.4
	c5,0,9-4,9-9s-4-9-9-9H191c-4,0-7.5,2.7-8.7,6.5l-7.1,25h-52.2l-7.1-25c-1.1-3.9-4.6-6.5-8.7-6.5H94.1c-5,0-9,4-9,9s4,9,9,9h6.4
	l3.9,13.5H52.4l3.9-13.5h6.4c5,0,9-4,9-9s-4-9-9-9H49.5c-4,0-7.5,2.7-8.7,6.5l-7.1,25H13.5C6.1,44.1,0,50.1,0,57.6V390
	c0,7.4,6.1,13.5,13.5,13.5h271.3c7.4,0,13.5-6.1,13.5-13.5V57.6C298.3,50.1,292.2,44.1,284.8,44.1z M280.3,62.1v260.4H18V62.1H280.3
	z M18,385.5v-45h262.3v45H18z"/>
<circle cx="81" cy="84.6" r="9"/>
<circle cx="49.5" cy="84.6" r="9"/>
<circle cx="144" cy="84.6" r="9"/>
<circle cx="112.5" cy="84.6" r="9"/>
<path d="M120.1,261.8c-2.3,0-4.6-0.9-6.4-2.6c-3.5-3.5-3.5-9.2,0-12.7l58-58c3.5-3.5,9.2-3.5,12.7,0c3.5,3.5,3.5,9.2,0,12.7l-58,58
	C124.7,260.9,122.4,261.8,120.1,261.8z"/>
<path d="M161.6,264.9c-2.3,0-4.6-0.9-6.4-2.6c-3.5-3.5-3.5-9.2,0-12.7l19.7-19.7c3.5-3.5,9.2-3.5,12.7,0c3.5,3.5,3.5,9.2,0,12.7
	l-19.7,19.7C166.2,264,163.9,264.9,161.6,264.9z"/>
<path d="M120.1,217.2c-2.3,0-4.6-0.9-6.4-2.6c-3.5-3.5-3.5-9.2,0-12.7l13.5-13.5c3.5-3.5,9.2-3.5,12.7,0c3.5,3.5,3.5,9.2,0,12.7
	l-13.5,13.5C124.7,216.4,122.4,217.2,120.1,217.2z"/>
<path d="M248.8,93.6H191c-5,0-9-4-9-9s4-9,9-9h57.8c5,0,9,4,9,9S253.8,93.6,248.8,93.6z"/>
<path d="M257.8,309H40.5c-5,0-9-4-9-9V116.1c0-5,4-9,9-9h217.3c5,0,9,4,9,9V300C266.8,304.9,262.8,309,257.8,309z M49.5,291h199.3
	V125.1H49.5V291z"/>
</svg>
