<?xml version="1.0" encoding="utf-8"?>
<!-- Generator: Adobe Illustrator 22.0.1, SVG Export Plug-In . SVG Version: 6.00 Build 0)  -->
<svg version="1.1" id="Layer_1" xmlns="http://www.w3.org/2000/svg" xmlns:xlink="http://www.w3.org/1999/xlink" x="0px" y="0px"
	 viewBox="0 0 189.9 390.9" style="enable-background:new 0 0 189.9 390.9;" xml:space="preserve">
<style type="text/css">
	.st0{fill:#42A4F5;}
</style>
<rect x="12.6" y="14.1" class="st0" width="164" height="100"/>
<path d="M162.9,0H27C12.1,0,0,12.1,0,27v327.9c0,11.7,7.5,21.7,18,25.4v1.6c0,5,4,9,9,9s9-4,9-9h117.9c0,5,4,9,9,9s9-4,9-9v-1.6
	c10.5-3.7,18-13.7,18-25.4V27C189.9,12.1,177.8,0,162.9,0z M27,18h135.9c5,0,9,4,9,9v78.5c-40.6,5.8-81.6,7-122.4,3.6V85.6
	c0-5-4-9-9-9s-9,4-9,9v21.6c-4.5-0.5-9-1.1-13.5-1.8V27C18,22,22,18,27,18z M162.9,363.9H27c-5,0-9-4-9-9V123.7
	c4.5,0.6,9,1.2,13.5,1.7v23.6c0,5,4,9,9,9s9-4,9-9v-21.8c15.1,1.2,30.3,1.9,45.4,1.9c25.7,0,51.4-1.8,76.9-5.3v231.2
	C171.9,359.9,167.9,363.9,162.9,363.9z"/>
</svg>
