<?xml version="1.0" encoding="utf-8"?>
<!-- Generator: Adobe Illustrator 22.0.1, SVG Export Plug-In . SVG Version: 6.00 Build 0)  -->
<svg version="1.1" id="Layer_1" xmlns="http://www.w3.org/2000/svg" xmlns:xlink="http://www.w3.org/1999/xlink" x="0px" y="0px"
	 viewBox="0 0 307.1 55.7" style="enable-background:new 0 0 307.1 55.7;" xml:space="preserve">
<style type="text/css">
	.st0{fill:#29B6F6;}
	.st1{fill-rule:evenodd;clip-rule:evenodd;fill:#29B6F6;}
	.st2{fill-rule:evenodd;clip-rule:evenodd;fill:#42A5F5;}
	.st3{fill-rule:evenodd;clip-rule:evenodd;fill:#FFFFFF;}
	.st4{fill-rule:evenodd;clip-rule:evenodd;fill:#26C6DA;}
	.st5{fill-rule:evenodd;clip-rule:evenodd;fill:#5C6BC0;}
</style>
<path class="st0" d="M68.5,6v17.3H78v-3.1h-6.1v-4.3H78v-3.1h-6.1V9.1H78V6H68.5L68.5,6z M85.4,6l-5.3,14.2h-1v3.1h15.8v-3.1h-1
	L88.6,6H85.4L85.4,6z M87,10.3l3.5,9.9h-7L87,10.3L87,10.3z M96.7,23.3h3.7l7.2-11.6v11.6h3.4V6h-3.7l-7.2,11.8V6h-3.4V23.3
	L96.7,23.3z M113.6,6v17.3h3.4v-7.4h6.2v7.4h3.4V6h-3.4v6.8H117V6H113.6L113.6,6z M144.9,23.3L137.6,6h-2.5l-7.2,17.3h3.6l1.7-4.3
	h6.5l1.7,4.3H144.9L144.9,23.3z M138.4,15.9h-4.1l2.1-5.3L138.4,15.9L138.4,15.9z M157.7,23.3V6h-6c-3.3,0-6,2.4-6,5.5
	c0,2.5,1.6,4.8,4.9,5.4l-4.9,6.4h4.2l4.5-6.4v6.4H157.7L157.7,23.3z M154.3,14.3H152c-1.7,0-3-1.1-3-2.5c0-1.5,1.3-2.6,3-2.6h2.3
	V14.3L154.3,14.3z M168.2,6v17.3h3.4V9.1h5.4V6H168.2L168.2,6z M187,5.7c-5.1,0-9.2,4.1-9.2,9.1c0,4.9,4.1,8.9,9.2,8.9
	c5.1,0,9.2-4,9.2-8.9C196.1,9.7,192,5.7,187,5.7L187,5.7z M187,8.8c3.2,0,5.7,2.7,5.7,6c0,3.2-2.5,5.8-5.7,5.8
	c-3.2,0-5.7-2.6-5.7-5.8C181.3,11.4,183.8,8.8,187,8.8L187,8.8z M198.2,23.3h3.3V17h1.9c3.1,0,5.7-2.5,5.7-5.5c0-3-2.6-5.5-5.7-5.5
	h-5.3V23.3L198.2,23.3z M201.6,9.1h1.5c1.5,0,2.7,1.1,2.7,2.4c0,1.3-1.2,2.4-2.7,2.4h-1.5V9.1L201.6,9.1z M219.9,5.7
	c-5.1,0-9.2,4.1-9.2,9.1c0,4.9,4.1,8.9,9.2,8.9c5.1,0,9.2-4,9.2-8.9C229.1,9.7,225,5.7,219.9,5.7L219.9,5.7z M219.9,8.8
	c3.2,0,5.7,2.7,5.7,6c0,3.2-2.5,5.8-5.7,5.8c-3.2,0-5.7-2.6-5.7-5.8C214.2,11.4,216.7,8.8,219.9,8.8L219.9,8.8z M235,6l-5.3,14.2h-1
	v3.1h15.8v-3.1h-1L238.2,6H235L235,6z M236.6,10.3l3.5,9.9h-7L236.6,10.3L236.6,10.3z M254.1,20.6c-3.1,0-5.7-2.6-5.7-5.8
	c0-3.3,2.5-6,5.7-6c1.7,0,3.8,0.8,4.4,2.4h3.9c-0.7-3-4.4-5.4-8.3-5.4c-5,0-9.2,4.1-9.2,9.1c0,4.9,4.1,8.9,9.2,8.9
	c3.6,0,7.3-2.4,8.3-5.5h-3.8C257.7,19.7,255.8,20.6,254.1,20.6L254.1,20.6z M264.5,6v17.3h3.4v-7.4l5.1,7.4h4.1l-6.5-8.9l6.5-8.4
	h-3.9l-5.3,7.1V6H264.5L264.5,6z M294.3,23.3L287,6h-2.5l-7.2,17.3h3.6l1.7-4.3h6.5l1.7,4.3H294.3L294.3,23.3z M287.8,15.9h-4.1
	l2.1-5.3L287.8,15.9L287.8,15.9z M307.1,23.3V6h-6c-3.3,0-6,2.4-6,5.5c0,2.5,1.6,4.8,4.9,5.4l-4.9,6.4h4.2l4.5-6.4v6.4H307.1
	L307.1,23.3z M303.7,14.3h-2.3c-1.7,0-3-1.1-3-2.5c0-1.5,1.3-2.6,3-2.6h2.3V14.3L303.7,14.3z M77,47c-3.1,0-5.7-2.6-5.7-5.8
	c0-3.3,2.5-6,5.7-6c1.7,0,3.8,0.8,4.4,2.4h3.9c-0.7-3-4.4-5.4-8.3-5.4c-5,0-9.2,4.1-9.2,9.1c0,4.9,4.1,8.9,9.2,8.9
	c3.6,0,7.3-2.4,8.3-5.5h-3.8C80.6,46.1,78.7,47,77,47L77,47z M92.4,32.4l-6.9,17.3H89l5-12.6l5,12.6h3.6l-6.9-17.3H92.4L92.4,32.4z
	 M108.6,40.6l-3.8-8.1h-3.9l6,12l-2.3,5.3h3.6l7.2-17.3h-3.5L108.6,40.6L108.6,40.6z M124.5,32.4v6.8l-4.9-6.8h-3.9l6.4,8.3
	l-6.6,8.9h4.1l5-7.4v7.4h3.4v-7.4l5,7.4h4.1l-6.6-8.9l6.3-8.3h-3.9l-4.9,6.8v-6.8H124.5L124.5,32.4z M138.6,49.7h5.3
	c3.3,0,5.9-2.4,5.9-5.3c0-2.9-2.6-5.2-5.9-5.2h-2v-3.7h6.6v-3.1h-9.9V49.7L138.6,49.7z M141.9,42.3h2c1.3,0,2.4,1,2.4,2.2
	c0,1.2-1,2.2-2.4,2.2h-2V42.3L141.9,42.3z M167.5,49.7l-7.2-17.3h-2.5l-7.2,17.3h3.6l1.7-4.3h6.5l1.7,4.3H167.5L167.5,49.7z
	 M161.1,42.3H157L159,37L161.1,42.3L161.1,42.3z M185.1,47c-3.1,0-5.7-2.6-5.7-5.8c0-3.3,2.5-6,5.7-6c1.7,0,3.8,0.8,4.4,2.4h3.9
	c-0.7-3-4.4-5.4-8.3-5.4c-5,0-9.2,4.1-9.2,9.1c0,4.9,4.1,8.9,9.2,8.9c3.6,0,7.3-2.4,8.3-5.5h-3.8C188.7,46.1,186.8,47,185.1,47
	L185.1,47z M195.5,32.4v17.3h9.5v-3.1h-6.1v-4.3h6.1v-3.1h-6.1v-3.7h6.1v-3.1H195.5L195.5,32.4z M207.3,49.7h3.3v-6.3h1.9
	c3.1,0,5.7-2.5,5.7-5.5c0-3-2.6-5.5-5.7-5.5h-5.3V49.7L207.3,49.7z M210.6,35.5h1.5c1.5,0,2.7,1.1,2.7,2.4c0,1.3-1.2,2.4-2.7,2.4
	h-1.5V35.5L210.6,35.5z M220.5,49.7h4.9c3.6,0,6.4-2.4,6.4-5.3c0-2.5-1.6-3.5-3.1-4.1c1.2-0.4,2.1-1.9,2.1-3.5
	c0-2.4-2.3-4.4-5.1-4.4h-5.3V49.7L220.5,49.7z M223.9,42.3h1.9c1.5,0,2.6,1,2.6,2.2c0,1.2-1.2,2.2-2.6,2.2h-1.9V42.3L223.9,42.3z
	 M223.9,35.5h1.6c1.2,0,2.1,0.8,2.1,1.8c0,1.1-0.9,1.9-2,1.9h-1.6V35.5L223.9,35.5z M234,49.7h3.7l7.2-11.6v11.6h3.4V32.4h-3.7
	l-7.2,11.8V32.4H234V49.7L234,49.7z M259.3,47c-3.1,0-5.7-2.6-5.7-5.8c0-3.3,2.5-6,5.7-6c1.7,0,3.8,0.8,4.4,2.4h3.9
	c-0.7-3-4.4-5.4-8.3-5.4c-5,0-9.2,4.1-9.2,9.1c0,4.9,4.1,8.9,9.2,8.9c3.6,0,7.3-2.4,8.3-5.5h-3.8C263,46.1,261.1,47,259.3,47
	L259.3,47z M285.4,49.7l-7.2-17.3h-2.5l-7.2,17.3h3.6l1.7-4.3h6.5l1.7,4.3H285.4L285.4,49.7z M278.9,42.3h-4.1l2.1-5.3L278.9,42.3
	L278.9,42.3z"/>
<path class="st1" d="M4.7,0h16.9c2.6,0,4.7,2.1,4.7,4.7v16.9c0,2.6-2.1,4.7-4.7,4.7H4.7c-2.6,0-4.7-2.1-4.7-4.7V4.7
	C0,2.1,2.1,0,4.7,0L4.7,0z"/>
<path class="st2" d="M4.7,29.4h16.9c2.6,0,4.7,2.1,4.7,4.7V51c0,2.6-2.1,4.7-4.7,4.7H4.7C2.1,55.7,0,53.6,0,51V34.1
	C0,31.5,2.1,29.4,4.7,29.4L4.7,29.4z"/>
<path class="st3" d="M15.4,55.7l-4.9,0v-7.6c0.7,0.3,1.5,0.4,2.3,0.4c0.9,0,1.8-0.2,2.6-0.5c0,0,0,0,0,0V55.7L15.4,55.7z"/>
<path class="st3" d="M12.9,48c0.9,0,1.8-0.2,2.6-0.6c0.6-0.3,1.2-0.7,1.7-1.2c0.6-0.6,1.1-1.3,1.4-2.2c0.1-0.4-0.1-0.8-0.5-0.8h-5.3
	c-0.6,0-1.2-0.5-1.2-1.2v-5.3c0-0.4-0.4-0.7-0.8-0.5c-0.8,0.3-1.5,0.8-2.1,1.4c-1.1,1.1-1.8,2.6-1.8,4.3c0,2.5,1.5,4.7,3.7,5.6
	C11.2,47.8,12,48,12.9,48L12.9,48z M11.7,46.2c-0.1,0.1-0.1,0.1-0.2,0.1c-0.2,0-0.3-0.1-0.3-0.3l0-1c0-0.2,0.1-0.3,0.3-0.3
	c0.2,0,0.3,0.1,0.3,0.3v1C11.8,46.1,11.8,46.1,11.7,46.2L11.7,46.2z M13,46.2c-0.1,0.1-0.1,0.1-0.2,0.1c-0.2,0-0.3-0.1-0.3-0.3v-1
	c0-0.2,0.1-0.3,0.3-0.3c0.2,0,0.3,0.1,0.3,0.3v1C13.1,46.1,13.1,46.1,13,46.2L13,46.2z M14.1,46.3c-0.2,0-0.3-0.2-0.3-0.3v-1
	c0-0.2,0.1-0.3,0.3-0.3c0.2,0,0.3,0.1,0.3,0.3v1c0,0.1,0,0.2-0.1,0.2C14.2,46.3,14.2,46.3,14.1,46.3L14.1,46.3z"/>
<path class="st3" d="M14.7,42.1h3.4c0.4,0,0.7-0.3,0.6-0.7c-0.3-2.3-1.8-4.1-3.8-4.9c-0.4-0.2-0.9,0.1-0.9,0.6v4.4
	C14.1,41.8,14.3,42.1,14.7,42.1L14.7,42.1z"/>
<path class="st4" d="M34.5,0h16.9c2.6,0,4.7,2.1,4.7,4.7v16.9c0,2.6-2.1,4.7-4.7,4.7H34.5c-2.6,0-4.7-2.1-4.7-4.7V4.7
	C29.8,2.1,31.9,0,34.5,0L34.5,0z"/>
<path class="st3" d="M49.7,26.3h-4.1c-0.3-1.3-0.6-2.7-1-3.9c-0.2-0.7-0.5-1.4-0.9-2c-0.3-0.6-0.8-1.2-1.2-1.8
	c-0.5-0.6-1-1.1-1.6-1.5c-0.3-0.2-0.5-0.3-0.8-0.5c-0.2-0.1-0.3-0.2-0.4-0.4c-0.1-0.1-0.1-0.3-0.1-0.4l0,0c0,0,0-9,2.9-11.9
	c0.1-0.1,0.3-0.3,0.4-0.4v4.3c-0.3,0.5-0.6,1.3-0.6,2.1c0,0.8,0.3,1.6,0.6,2.1v1.4c0.2,0,0.3-0.1,0.5-0.1c0,0,0.1,0,0.1,0
	c0.1,0,0.3,0,0.4,0.1v-1.4c0.3-0.5,0.6-1.3,0.6-2.1c0-0.8-0.3-1.6-0.6-2.1V3.6c2.5,2.3,3.3,6.6,3.4,12.2c0,0.2,0,0.3-0.1,0.5
	c-0.1,0.2-0.3,0.3-0.4,0.4c0,0-0.1,0-0.1,0.1c-0.4-0.4-0.8-0.8-1.2-1.1c0,0.2-0.1,0.4-0.2,0.6c0.5,0.4,0.9,0.8,1.3,1.3h2.3v0.6
	l-1.6,0.4c0.4,0.6,0.7,1.3,1,1.9C49,22.3,49.5,24.3,49.7,26.3L49.7,26.3z M44,15.4c0,0.2-0.1,0.3-0.2,0.5C43.7,16,43.5,16,43.4,16
	c-0.2,0-0.3-0.1-0.5-0.2c-0.1-0.1-0.2-0.3-0.2-0.5c0-0.2,0.1-0.3,0.2-0.5c0.1-0.1,0.3-0.2,0.5-0.2c0.2,0,0.3,0.1,0.5,0.2
	C43.9,15.1,44,15.2,44,15.4L44,15.4z"/>
<path class="st3" d="M41.2,26.3h-4.1c0.2-1.3,0.4-2.6,0.8-3.9c0.4-1.3,0.9-2.6,1.6-3.8l-2.2-0.6v-0.6l3,0c0,0,0,0,0,0
	c0.1,0,0.1,0.1,0.2,0.1c0.5,0.4,1,0.8,1.5,1.4c0.4,0.5,0.8,1,1,1.5c-0.7,1.3-1.1,2.7-1.5,4.1C41.4,25.2,41.3,25.8,41.2,26.3
	L41.2,26.3z"/>
<path class="st5" d="M34.5,29.4h16.9c2.6,0,4.7,2.1,4.7,4.7V51c0,2.6-2.1,4.7-4.7,4.7H34.5c-2.6,0-4.7-2.1-4.7-4.7V34.1
	C29.8,31.5,31.9,29.4,34.5,29.4L34.5,29.4z"/>
<polygon class="st3" points="52.2,41.4 49.2,41.4 50.7,39.9 49.1,38.3 45.9,41.4 44.1,41.4 44.1,39.6 47.2,36.5 45.6,34.8 
	44.1,36.3 44.1,33.3 41.8,33.3 41.8,36.3 40.3,34.8 38.7,36.5 41.8,39.6 41.8,41.4 40,41.4 36.9,38.3 35.3,39.9 36.7,41.4 
	33.8,41.4 33.8,43.7 36.7,43.7 35.3,45.2 36.9,46.8 40,43.7 41.8,43.7 41.8,45.5 38.7,48.6 40.3,50.3 41.8,48.8 41.8,51.7 
	44.1,51.7 44.1,48.8 45.6,50.3 47.2,48.6 44.1,45.5 44.1,43.7 45.9,43.7 49.1,46.8 50.7,45.2 49.2,43.7 52.2,43.7 52.2,41.4 "/>
<path class="st3" d="M10.3,15.6C9.7,15,8.7,15,8,15.6c-0.6,0.6-0.6,1.6,0,2.2c0.6,0.6,1.6,0.6,2.2,0C10.9,17.2,10.9,16.2,10.3,15.6
	L10.3,15.6z"/>
<path class="st3" d="M12.5,12.4l-0.2,0.1c-0.4,0.3-0.9,0.4-1.4,0.2c-0.1,0-0.2-0.1-0.2-0.1c-0.5-0.2-0.8-0.6-0.9-1.1l0-0.2
	c0-0.2-0.2-0.3-0.3-0.3H8.8c-0.2,0-0.3,0.1-0.3,0.3l0,0.2c-0.1,0.5-0.4,1-0.9,1.1c-0.1,0-0.2,0.1-0.2,0.1c-0.4,0.2-1,0.1-1.4-0.2
	l-0.2-0.1c-0.1-0.1-0.3-0.1-0.4,0l-0.5,0.5c-0.1,0.1-0.1,0.3,0,0.4L5,13.5c0.3,0.4,0.4,0.9,0.2,1.4c0,0.1-0.1,0.2-0.1,0.2
	c-0.2,0.5-0.6,0.8-1.1,0.9l-0.2,0c-0.2,0-0.3,0.2-0.3,0.3l0,0.7c0,0.2,0.1,0.3,0.3,0.3l0.2,0c0.5,0.1,1,0.4,1.1,0.9
	c0,0.1,0.1,0.2,0.1,0.2c0.2,0.4,0.1,1-0.2,1.4L4.9,20c-0.1,0.1-0.1,0.3,0,0.4L5.4,21c0.1,0.1,0.3,0.1,0.4,0L6,20.9
	c0.4-0.3,0.9-0.4,1.4-0.2c0.1,0,0.2,0.1,0.2,0.1c0.5,0.2,0.8,0.6,0.9,1.1l0,0.2c0,0.2,0.2,0.3,0.3,0.3h0.7c0.2,0,0.3-0.1,0.3-0.3
	l0-0.2c0.1-0.5,0.4-1,0.9-1.1c0.1,0,0.2-0.1,0.2-0.1c0.4-0.2,1-0.1,1.4,0.2l0.2,0.1c0.1,0.1,0.3,0.1,0.4,0l0.5-0.5
	c0.1-0.1,0.1-0.3,0-0.4l-0.1-0.2c-0.3-0.4-0.4-0.9-0.2-1.4c0-0.1,0.1-0.2,0.1-0.2c0.2-0.5,0.6-0.8,1.1-0.9l0.2,0
	c0.2,0,0.3-0.2,0.3-0.3v-0.7c0-0.2-0.1-0.3-0.3-0.3l-0.2,0c-0.5-0.1-1-0.4-1.1-0.9c0-0.1-0.1-0.2-0.1-0.2c-0.2-0.4-0.1-1,0.2-1.4
	l0.1-0.2c0.1-0.1,0.1-0.3,0-0.4l-0.5-0.5C12.8,12.3,12.6,12.3,12.5,12.4L12.5,12.4z M10.7,18.2c-0.9,0.9-2.3,0.9-3.1,0
	c-0.9-0.9-0.9-2.3,0-3.1c0.9-0.9,2.3-0.9,3.1,0C11.6,16,11.6,17.4,10.7,18.2L10.7,18.2z"/>
<path class="st3" d="M20.3,14c-0.5-0.5-1.3-0.5-1.8,0c-0.5,0.5-0.5,1.3,0,1.8c0.5,0.5,1.3,0.5,1.8,0C20.8,15.3,20.8,14.5,20.3,14
	L20.3,14z"/>
<path class="st3" d="M22.1,11.3L22,11.4c-0.3,0.2-0.7,0.3-1.1,0.1c-0.1,0-0.1-0.1-0.2-0.1c-0.4-0.1-0.6-0.5-0.7-0.9l0-0.1
	c0-0.2-0.2-0.3-0.3-0.3l-0.6,0c-0.2,0-0.3,0.1-0.3,0.3l0,0.1c-0.1,0.4-0.3,0.8-0.7,0.9c-0.1,0-0.1,0.1-0.2,0.1
	c-0.3,0.2-0.8,0.1-1.1-0.1l-0.1-0.1c-0.1-0.1-0.3-0.1-0.4,0l-0.4,0.4c-0.1,0.1-0.1,0.3,0,0.4l0.1,0.1c0.2,0.3,0.3,0.7,0.1,1.1
	c0,0.1-0.1,0.1-0.1,0.2c-0.1,0.4-0.5,0.6-0.9,0.7l-0.1,0c-0.2,0-0.3,0.2-0.3,0.3v0.6c0,0.2,0.1,0.3,0.3,0.3l0.1,0
	c0.4,0.1,0.8,0.3,0.9,0.7c0,0.1,0.1,0.1,0.1,0.2c0.2,0.3,0.1,0.8-0.1,1.1l-0.1,0.1c-0.1,0.1-0.1,0.3,0,0.4l0.4,0.4
	c0.1,0.1,0.3,0.1,0.4,0l0.1-0.1c0.3-0.2,0.7-0.3,1.1-0.1c0.1,0,0.1,0.1,0.2,0.1c0.4,0.1,0.6,0.5,0.7,0.9l0,0.1
	c0,0.2,0.2,0.3,0.3,0.3h0.6c0.2,0,0.3-0.1,0.3-0.3l0-0.1c0.1-0.4,0.3-0.8,0.7-0.9c0.1,0,0.1-0.1,0.2-0.1c0.3-0.2,0.8-0.1,1.1,0.1
	l0.1,0.1c0.1,0.1,0.3,0.1,0.4,0L23,18c0.1-0.1,0.1-0.3,0-0.4l-0.1-0.1c-0.2-0.3-0.3-0.7-0.1-1.1c0-0.1,0.1-0.1,0.1-0.2
	c0.1-0.4,0.5-0.6,0.9-0.7l0.1,0c0.2,0,0.3-0.2,0.3-0.3l0-0.6c0-0.2-0.1-0.3-0.3-0.3l-0.1,0c-0.4-0.1-0.8-0.3-0.9-0.7
	c0-0.1-0.1-0.1-0.1-0.2c-0.2-0.3-0.1-0.8,0.1-1.1l0.1-0.1c0.1-0.1,0.1-0.3,0-0.4l-0.4-0.4C22.4,11.2,22.2,11.2,22.1,11.3L22.1,11.3z
	 M20.7,16.2c-0.7,0.7-1.9,0.7-2.7,0c-0.7-0.7-0.7-1.9,0-2.7c0.7-0.7,1.9-0.7,2.7,0C21.5,14.3,21.5,15.5,20.7,16.2L20.7,16.2z"/>
<path class="st3" d="M13.2,6.9c-0.2-0.2-0.6-0.2-0.9,0c-0.2,0.2-0.2,0.6,0,0.9c0.2,0.2,0.6,0.2,0.9,0C13.4,7.5,13.4,7.1,13.2,6.9
	L13.2,6.9z"/>
<path class="st3" d="M15,4.2l-0.1,0.1c-0.3,0.2-0.6,0.2-0.9,0.1c-0.1,0-0.1,0-0.2-0.1c-0.3-0.1-0.5-0.4-0.6-0.7l0-0.1
	c0-0.2-0.2-0.3-0.3-0.3h-0.5c-0.2,0-0.3,0.1-0.3,0.3l0,0.1c0,0.3-0.3,0.6-0.6,0.7c-0.1,0-0.1,0-0.2,0.1c-0.3,0.1-0.6,0.1-0.9-0.1
	l-0.1-0.1c-0.1-0.1-0.3-0.1-0.4,0L9.6,4.6C9.5,4.7,9.5,4.9,9.6,5l0.1,0.1C9.9,5.4,9.9,5.7,9.8,6c0,0.1,0,0.1-0.1,0.2
	C9.6,6.5,9.4,6.7,9,6.7l-0.1,0c-0.2,0-0.3,0.2-0.3,0.3v0.5c0,0.2,0.1,0.3,0.3,0.3l0.1,0c0.3,0,0.6,0.3,0.7,0.6c0,0.1,0,0.1,0.1,0.2
	c0.1,0.3,0.1,0.6-0.1,0.9L9.6,9.6c-0.1,0.1-0.1,0.3,0,0.4l0.4,0.4c0.1,0.1,0.3,0.1,0.4,0l0.1-0.1c0.3-0.2,0.6-0.2,0.9-0.1
	c0.1,0,0.1,0,0.2,0.1c0.3,0.1,0.5,0.4,0.6,0.7l0,0.1c0,0.2,0.2,0.3,0.3,0.3H13c0.2,0,0.3-0.1,0.3-0.3l0-0.1c0-0.3,0.3-0.6,0.6-0.7
	c0.1,0,0.1,0,0.2-0.1c0.3-0.1,0.6-0.1,0.9,0.1l0.1,0.1c0.1,0.1,0.3,0.1,0.4,0l0.4-0.4c0.1-0.1,0.1-0.3,0-0.4l-0.1-0.1
	c-0.2-0.3-0.2-0.6-0.1-0.9c0-0.1,0-0.1,0.1-0.2c0.1-0.3,0.4-0.5,0.7-0.6l0.1,0c0.2,0,0.3-0.2,0.3-0.3V7.1c0-0.2-0.1-0.3-0.3-0.3
	l-0.1,0c-0.3,0-0.6-0.3-0.7-0.6c0-0.1,0-0.1-0.1-0.2c-0.1-0.3-0.1-0.6,0.1-0.9L15.8,5c0.1-0.1,0.1-0.3,0-0.4l-0.4-0.4
	C15.3,4.1,15.1,4.1,15,4.2L15,4.2z M13.6,8.2c-0.5,0.5-1.3,0.5-1.8,0c-0.5-0.5-0.5-1.3,0-1.8c0.5-0.5,1.3-0.5,1.8,0
	C14.1,6.9,14.1,7.7,13.6,8.2L13.6,8.2z"/>
</svg>
