<?xml version="1.0" encoding="utf-8"?>
<!-- Generator: Adobe Illustrator 22.0.1, SVG Export Plug-In . SVG Version: 6.00 Build 0)  -->
<svg version="1.1" id="Layer_1" xmlns="http://www.w3.org/2000/svg" xmlns:xlink="http://www.w3.org/1999/xlink" x="0px" y="0px"
	 viewBox="0 0 390.9 246.6" style="enable-background:new 0 0 390.9 246.6;" xml:space="preserve">
<style type="text/css">
	.st0{fill:#42A4F5;}
</style>
<path d="M287.4,206.1H40.5c-5,0-9-4-9-9V40.5c0-5,4-9,9-9h246.9c5,0,9,4,9,9v156.6C296.4,202.1,292.4,206.1,287.4,206.1z
	 M49.5,188.1h228.9V49.5H49.5V188.1z"/>
<path d="M255.9,174.6c-5,0-9-4-9-9V72c0-5,4-9,9-9c5,0,9,4,9,9v93.6C264.9,170.6,260.9,174.6,255.9,174.6z"/>
<circle class="st0" cx="318.9" cy="181.4" r="9"/>
<circle class="st0" cx="350.4" cy="181.4" r="9"/>
<circle class="st0" cx="318.9" cy="149.9" r="9"/>
<circle class="st0" cx="350.4" cy="149.9" r="9"/>
<circle class="st0" cx="318.9" cy="118.4" r="9"/>
<circle class="st0" cx="350.4" cy="118.4" r="9"/>
<path class="st0" d="M334.7,95.8c-13.6,0-24.8-11.1-24.8-24.8V56.3c0-13.6,11.1-24.8,24.8-24.8c13.6,0,24.8,11.1,24.8,24.8v14.8
	C359.4,84.7,348.3,95.8,334.7,95.8z M334.7,49.5c-3.7,0-6.8,3-6.8,6.8v14.8c0,3.7,3,6.8,6.8,6.8c3.7,0,6.8-3,6.8-6.8V56.3
	C341.4,52.5,338.4,49.5,334.7,49.5z"/>
<path d="M363.9,0H27C12.1,0,0,12.1,0,27v183.6c0,14.9,12.1,27,27,27h20.3c0,5,4,9,9,9s9-4,9-9h260.4c0,5,4,9,9,9s9-4,9-9h20.3
	c14.9,0,27-12.1,27-27V27C390.9,12.1,378.8,0,363.9,0z M372.9,210.6c0,5-4,9-9,9H27c-5,0-9-4-9-9V27c0-5,4-9,9-9h336.9c5,0,9,4,9,9
	V210.6z"/>
</svg>
