<?xml version="1.0" encoding="utf-8"?>
<!-- Generator: Adobe Illustrator 22.0.1, SVG Export Plug-In . SVG Version: 6.00 Build 0)  -->
<svg version="1.1" id="Layer_1" xmlns="http://www.w3.org/2000/svg" xmlns:xlink="http://www.w3.org/1999/xlink" x="0px" y="0px"
	 viewBox="0 0 326.7 278.6" style="enable-background:new 0 0 326.7 278.6;" xml:space="preserve">
<style type="text/css">
	.st0{fill:#42A4F5;}
</style>
<path d="M295.1,0L295.1,0L31.6,0C14.2,0,0,14.2,0,31.6v183.1c0,17.4,14.2,31.6,31.6,31.6h6.1l-6.8,18c-2,5.5,0.7,11.5,6.2,13.6
	c5.5,2,11.5-0.7,13.6-6.2l9.5-25.4h206.3l9.5,25.4c1.6,4.2,5.6,6.8,9.9,6.8c7.3,0,12.5-7.3,9.9-14.2l-6.8-18h6.1
	c17.4,0,31.6-14.2,31.6-31.6V31.6C326.7,14.2,312.5,0,295.1,0z M305.6,214.7c0,5.8-4.7,10.5-10.5,10.5H31.6
	c-5.8,0-10.5-4.7-10.5-10.5v-4h264.8c5.8,0,10.5-4.7,10.5-10.5c0-5.8-4.7-10.5-10.5-10.5H21.1V31.6c0-5.8,4.7-10.5,10.5-10.5h263.5
	c5.8,0,10.5,4.7,10.5,10.5V214.7z"/>
<path class="st0" d="M100.6,101.6c-4.1-4.1-4.1-10.8,0-14.9l28.3-28.3c4.1-4.1,10.8-4.1,14.9,0c4.1,4.1,4.1,10.8,0,14.9l-28.3,28.3
	C111.4,105.8,104.7,105.8,100.6,101.6z"/>
<path class="st0" d="M205.4,74.3l-62.9,62.9c-4.1,4.1-10.8,4.1-14.9,0c-4.1-4.1-4.1-10.8,0-14.9l62.9-62.9c4.1-4.1,10.8-4.1,14.9,0
	C209.5,63.5,209.5,70.2,205.4,74.3z"/>
<path class="st0" d="M114,163.2c-5.5,1.1-11.1-2.2-12.4-8.3c-1.1-5.5,2.2-11.1,8.3-12.4c5.5-1.1,11.1,2.2,12.4,8.3
	C123.4,156.2,120.1,161.8,114,163.2L114,163.2z"/>
<path class="st0" d="M230.4,104.2c4.1,4.1,4.1,10.8,0,14.9l-37.2,37.2c-2.1,2.1-4.8,3.1-7.5,3.1c-9.3,0-14.1-11.3-7.5-18l37.2-37.2
	C219.6,100.1,226.3,100.1,230.4,104.2L230.4,104.2z"/>
</svg>
