<?xml version="1.0" encoding="utf-8"?>
<!-- Generator: Adobe Illustrator 22.0.1, SVG Export Plug-In . SVG Version: 6.00 Build 0)  -->
<svg version="1.1" id="Layer_1" xmlns="http://www.w3.org/2000/svg" xmlns:xlink="http://www.w3.org/1999/xlink" x="0px" y="0px"
	 viewBox="0 0 310.3 390.9" style="enable-background:new 0 0 310.3 390.9;" xml:space="preserve">
<style type="text/css">
	.st0{fill:#42A4F5;}
</style>
<path d="M94.3,81H40.5c-5,0-9-4-9-9c0-5,4-9,9-9h53.8c5,0,9,4,9,9C103.3,77,99.3,81,94.3,81z"/>
<circle cx="260.8" cy="56.3" r="9"/>
<circle cx="166.3" cy="56.3" r="9"/>
<path d="M236.1,46.1c2.2-3.5,1.8-8.1-1.2-11.2c-3-3-7.7-3.4-11.2-1.2c-3.1-1.4-6.5-2.2-10.1-2.2c-13.6,0-24.8,11.1-24.8,24.8
	c0,13.6,11.1,24.8,24.8,24.8c13.6,0,24.8-11.1,24.8-24.8C238.3,52.6,237.5,49.2,236.1,46.1z M213.5,63c-3.7,0-6.8-3-6.8-6.8
	c0-3.7,2.9-6.6,6.5-6.7c0.3,1.6,1.1,3.2,2.4,4.5c1.3,1.3,2.9,2.1,4.5,2.4C220.2,60.1,217.2,63,213.5,63z"/>
<path d="M155.1,348.3c-58.3,0-105.6-47.4-105.6-105.6s47.4-105.6,105.6-105.6s105.6,47.4,105.6,105.6S213.4,348.3,155.1,348.3z
	 M155.1,155.1c-48.3,0-87.6,39.3-87.6,87.6c0,48.3,39.3,87.6,87.6,87.6c48.3,0,87.6-39.3,87.6-87.6
	C242.8,194.4,203.5,155.1,155.1,155.1z"/>
<path class="st0" d="M213.7,271.3c-10.6,21.6-32.9,36.6-58.5,36.6c-31.1,0-57.2-21.9-63.6-51.1c47.5,25,84.2-13.3,113.4-7.1
	C206,259.3,209.3,267.2,213.7,271.3z"/>
<path d="M283.3,0H27C12.1,0,0,12.1,0,27v336.9c0,14.9,12.1,27,27,27h256.3c14.9,0,27-12.1,27-27V27C310.3,12.1,298.2,0,283.3,0z
	 M292.3,27v67.5H134.8V18h148.5C288.2,18,292.3,22,292.3,27z M27,18h89.8v76.5H18V27C18,22,22,18,27,18z M283.3,372.9H27
	c-5,0-9-4-9-9V112.5h274.3v251.4C292.3,368.9,288.2,372.9,283.3,372.9z"/>
<path d="M155.1,316.9c-40.9,0-74.1-33.3-74.1-74.1c0-40.9,33.3-74.1,74.1-74.1c28.5,0,54,15.9,66.6,41.6c1.8,3.6,0.9,7.9-2,10.6
	c-3.1,2.9-6.2,11.3-6.2,22c0,10.6,3.1,19.1,6.2,22c2.9,2.7,3.7,7,2,10.6C209.2,300.9,183.6,316.9,155.1,316.9z M155.1,186.6
	c-31,0-56.1,25.2-56.1,56.1c0,31,25.2,56.1,56.1,56.1c19.7,0,37.5-10.1,47.8-26.6c-4.7-7.4-7.4-17.9-7.4-29.5
	c0-11.6,2.7-22.1,7.4-29.5C192.7,196.6,174.9,186.6,155.1,186.6z"/>
</svg>
