<?xml version="1.0" encoding="utf-8"?>
<!-- Generator: Adobe Illustrator 22.1.0, SVG Export Plug-In . SVG Version: 6.00 Build 0)  -->
<svg version="1.1" id="Layer_1" xmlns="http://www.w3.org/2000/svg" xmlns:xlink="http://www.w3.org/1999/xlink" x="0px" y="0px"
	 viewBox="0 0 4.72705 2.36888" style="enable-background:new 0 0 4.72705 2.36888;" xml:space="preserve">
<style type="text/css">
	.st0{fill:#ff383f;}
</style>
<path class="st0" d="M3.56569,1.62794c0.2615,0.22081,0.51268,0.45202,0.74239,0.70602
	c0.05735,0.06332,0.17396,0.03638,0.19509-0.04743c0.04307-0.1714,0.09186-0.34138,0.13245-0.51323
	c0.03636-0.15392,0.09729-0.32468,0.09097-0.48323C4.72346,1.211,4.61913,1.17377,4.57466,1.24582
	C4.49141,1.38074,4.46024,1.55676,4.4166,1.70835c-0.00825,0.02865-0.01517,0.05762-0.023,0.08637
	C4.37995,1.69213,4.36081,1.58924,4.33643,1.49635C4.27425,1.2598,4.17894,1.02661,4.04692,0.82031
	C3.77037,0.38817,3.31931,0.10778,2.81525,0.02699C2.28401-0.05832,1.74403,0.06444,1.27183,0.31283
	C1.02678,0.4417,0.7993,0.60363,0.58712,0.78115c-0.1097,0.09179-0.21363,0.1902-0.31461,0.29146
	c-0.0917,0.09184-0.20242,0.18481-0.26209,0.30138C-0.02846,1.45004,0.0481,1.54554,0.13043,1.49863
	c0.10002-0.05697,0.176-0.14802,0.26003-0.226c0.09187-0.08534,0.18648-0.16752,0.28305-0.24746
	C0.87112,0.86137,1.07837,0.71106,1.304,0.58791c0.42508-0.2321,0.90837-0.35576,1.39352-0.29454
	C3.16765,0.35258,3.55805,0.6092,3.8197,1.00024c0.12482,0.18645,0.21312,0.3917,0.27809,0.6059
	c0.0242,0.07988,0.04144,0.16243,0.05978,0.2447C4.02586,1.71337,3.9044,1.56569,3.75632,1.4445
	C3.62667,1.33837,3.43472,1.51738,3.56569,1.62794z"/>
</svg>
