<?xml version="1.0" encoding="utf-8"?>
<!-- Generator: Adobe Illustrator 22.1.0, SVG Export Plug-In . SVG Version: 6.00 Build 0)  -->
<svg version="1.1" id="Layer_1" xmlns="http://www.w3.org/2000/svg" xmlns:xlink="http://www.w3.org/1999/xlink" x="0px" y="0px"
	 viewBox="0 0 304 416" style="enable-background:new 0 0 304 416;" xml:space="preserve">
<path d="M0,104v304c0,4.4,3.6,8,8,8h64c4.4,0,8-3.6,8-8V104c0-4.4-3.6-8-8-8H8C3.6,96,0,99.6,0,104z M16,112h48v288H16V112z"/>
<path d="M120,416h64c4.4,0,8-3.6,8-8V8c0-4.4-3.6-8-8-8h-64c-4.4,0-8,3.6-8,8v400C112,412.4,115.6,416,120,416z M128,16h48v384h-48
	V16z"/>
<path d="M232,416h64c4.4,0,8-3.6,8-8V216c0-4.4-3.6-8-8-8h-64c-4.4,0-8,3.6-8,8v192C224,412.4,227.6,416,232,416z M240,224h48v176
	h-48V224z"/>
</svg>
