<?xml version="1.0" encoding="utf-8"?>
<!-- Generator: Adobe Illustrator 22.1.0, SVG Export Plug-In . SVG Version: 6.00 Build 0)  -->
<svg version="1.1" id="Ñëîé_1" xmlns="http://www.w3.org/2000/svg" xmlns:xlink="http://www.w3.org/1999/xlink" x="0px" y="0px"
	 viewBox="0 0 48 48" style="enable-background:new 0 0 48 48;" xml:space="preserve">
<style type="text/css">
	.st0{fill:none;stroke:#454545;stroke-width:2;stroke-linecap:round;stroke-linejoin:round;stroke-miterlimit:10;}
</style>
<g>
	<path class="st0" d="M4,30.3V37c0,1.5,3.5,2.8,8,3"/>
	<path class="st0" d="M46,25.2c0.6,0.6,1,1.2,1,1.8v15c0,2.8-6.7,5-15,5c-8.3,0-15-2.2-15-5V27c0-0.6,0.4-1.2,1-1.8"/>
	<path class="st0" d="M12,31c-2.4,0-4.8-0.2-7.2-0.5c-1-0.1-1.7-1-1.7-2C3.1,17.8,2.6,15.2,1,4.9V5V1h24v4H6.1"/>
	<path class="st0" d="M25,4.9c-0.7,4.4-1.2,7.3-1.5,10.1"/>
	<path class="st0" d="M18,19v8c0,2.8,6.3,5,14,5s14-2.2,14-5v-8"/>
	<path class="st0" d="M18,19c0-2.8,6.3-5,14-5s14,2.2,14,5s-6.3,5-14,5c-3.4,0-6.6-0.4-9-1.2"/>
</g>
</svg>
