<?xml version="1.0" encoding="utf-8"?>
<!-- Generator: Adobe Illustrator 22.1.0, SVG Export Plug-In . SVG Version: 6.00 Build 0)  -->
<svg version="1.1" id="Ñëîé_1" xmlns="http://www.w3.org/2000/svg" xmlns:xlink="http://www.w3.org/1999/xlink" x="0px" y="0px"
	 viewBox="0 0 44 48" style="enable-background:new 0 0 44 48;" xml:space="preserve">
<g>
	<path class="st0" d="M29.6,38.7C34,42,43,40.5,43,45.7V47"/>
	<path class="st0" d="M12,45.8c0.5,0.5,1.5,0.7,2.5,0.8c1,0.1,2,0.1,2.8,0.4"/>
	<path class="st0" d="M32,45.8c-0.5,0.5-1.5,0.7-2.5,0.8c-1,0.1-2,0.1-2.8,0.4"/>
	<path class="st0" d="M32,16.9c-2.4-2.3-6-3.7-8.9-5.4l-1-0.7"/>
	<path class="st0" d="M29.5,2.6C27.3,1,24.8,1,22.1,1C13.9,1,7.5,8.8,6.6,18.5L5.3,36.4"/>
	<path class="st0" d="M16.7,34.5C15.7,42.8,1,39,1,45.7V47"/>
	<path class="st0" d="M22.1,36c4.3,0,8.6-3.6,10.8-8.3l0.1,0c2.5-2.2,4-5.8,4-9.1c0-3.8-0.7-8.9-3.7-11.4"/>
	<path class="st0" d="M29.6,2.7C29.4,9.4,9.9,13.2,9.9,22.1l0,0c0.4,7,6.3,13.8,12.2,13.8"/>
	<line class="st0" x1="36.1" y1="23" x2="39.4" y2="41.9"/>
</g>
</svg>
