<?xml version="1.0" encoding="utf-8"?>
<!-- Generator: Adobe Illustrator 22.1.0, SVG Export Plug-In . SVG Version: 6.00 Build 0)  -->
<svg version="1.1" id="Capa_1" xmlns="http://www.w3.org/2000/svg" xmlns:xlink="http://www.w3.org/1999/xlink" x="0px" y="0px"
	 viewBox="0 0 471.7 414.7" style="enable-background:new 0 0 471.7 414.7;" xml:space="preserve">
<g>
	<path class="st0" d="M433.6,38.5c-24.7-24.7-57.4-38.2-92.3-38.2s-67.7,13.6-92.4,38.3L236,51.5l-13.1-13.1
		C198.2,13.7,165.3,0,130.4,0C95.6,0,62.8,13.6,38.2,38.2C13.5,62.9-0.1,95.7,0,130.6c0,34.9,13.7,67.6,38.4,92.3l187.8,187.8
		c2.6,2.6,6.1,4,9.5,4s6.9-1.3,9.5-3.9l188.2-187.5c24.7-24.7,38.3-57.5,38.3-92.4C471.8,96,458.3,63.2,433.6,38.5z"/>
</g>
</svg>
