<?xml version="1.0" encoding="utf-8"?>
<!-- Generator: Adobe Illustrator 22.1.0, SVG Export Plug-In . SVG Version: 6.00 Build 0)  -->
<svg version="1.1" id="Layer_1" xmlns="http://www.w3.org/2000/svg" xmlns:xlink="http://www.w3.org/1999/xlink" x="0px" y="0px"
	 viewBox="0 0 384 480" style="enable-background:new 0 0 384 480;" xml:space="preserve">
<path d="M192,480c106.4,0,192-157.6,192-288C384,71.8,312.2,0,192,0S0,71.8,0,192C0,322.4,85.6,480,192,480z M33.3,105.6l27.2,13.6
	c4,2,8.8,0.4,10.7-3.6c2-4,0.4-8.8-3.6-10.7L40.7,91.4C69.2,43.1,121.4,16,192,16s122.8,27.1,151.3,75.4l-26.9,13.4
	c-4,2-5.6,6.8-3.6,10.7c2,4,6.8,5.6,10.7,3.6l27.2-13.6c11.9,27.2,17.8,56.7,17.2,86.4c0.2,61.6-16.1,122.2-47.2,175.4l-29.2-14.6
	c-4-2-8.8-0.4-10.7,3.6c-2,4-0.4,8.8,3.6,10.7l27.8,13.9c-34.4,51.2-79.4,83-120.2,83s-85.8-31.8-120.2-83l27.8-13.8
	c4-2,5.6-6.8,3.6-10.7c-2-4-6.8-5.6-10.7-3.6l-29.2,14.6C32.1,314.2,15.8,253.6,16,192C15.4,162.3,21.3,132.8,33.3,105.6z"/>
<path d="M120,216c31.4,0,56-17.6,56-40s-24.6-40-56-40s-56,17.6-56,40S88.6,216,120,216z M120,152c21.7,0,40,11,40,24
	s-18.3,24-40,24s-40-11-40-24S98.3,152,120,152z"/>
<path d="M264,216c31.4,0,56-17.6,56-40s-24.6-40-56-40s-56,17.6-56,40S232.6,216,264,216z M264,152c21.7,0,40,11,40,24
	s-18.3,24-40,24s-40-11-40-24S242.3,152,264,152z"/>
<path d="M168,256c0-4.4-3.6-8-8-8s-8,3.6-8,8c0,13.7,17.2,24,40,24s40-10.3,40-24c0-4.4-3.6-8-8-8s-8,3.6-8,8c0,2-8.5,8-24,8
	S168,258,168,256z"/>
<path d="M192,296c-35.9,0-64,17.6-64,40s28.1,40,64,40s64-17.6,64-40S227.9,296,192,296z M192,360c-28.3,0-48-12.6-48-24
	s19.7-24,48-24s48,12.6,48,24S220.3,360,192,360z"/>
</svg>
