<?xml version="1.0" encoding="utf-8"?>
<!-- Generator: Adobe Illustrator 22.1.0, SVG Export Plug-In . SVG Version: 6.00 Build 0)  -->
<svg version="1.1" id="Ñëîé_1" xmlns="http://www.w3.org/2000/svg" xmlns:xlink="http://www.w3.org/1999/xlink" x="0px" y="0px"
	 viewBox="0 0 48 46.4" style="enable-background:new 0 0 48 46.4;" xml:space="preserve">
<style type="text/css">
	.st0{fill:none;stroke:#454545;stroke-width:2;stroke-linecap:round;stroke-linejoin:round;stroke-miterlimit:10;}
</style>
<g>
	<path class="st0" d="M4.6,2.4c25.7,0.7,7,43,22.6,43c9.4,0,19.8-6.3,19.8-10.1c0-4-3-3.4-3-6.1c0-1.2-1.8-1.2-1.8-1.2s0.3-3-0.6-3
		c-0.9,0-1.7,0.1-1.7-1c0-1.6,0.9-4.7-1.6-4.7c-1.9,0-7.8-0.4-7.8-3.8c0-3-7.9-7.1-10.6-7.1"/>
	<path class="st0" d="M1,1c20.8,5.4,2.2,39.5,13.2,44.4"/>
	<path class="st0" d="M28.3,18.3c-1.5,0-3,0.6-4,2c-0.7,0.9-1,2-0.9,3.1"/>
	<path class="st0" d="M29.9,22.5c-0.3,0.5-0.9,1.1-1.5,1.6c-0.6,0.5-1.4,1-1.9,1.1"/>
	<g>
		<path class="st0" d="M42.1,28c-0.7,0.9-1.4,1.8-2.2,2.5"/>
	</g>
</g>
</svg>
