<?xml version="1.0" encoding="utf-8"?>
<!-- Generator: Adobe Illustrator 22.1.0, SVG Export Plug-In . SVG Version: 6.00 Build 0)  -->
<svg version="1.1" id="Layer_1" xmlns="http://www.w3.org/2000/svg" xmlns:xlink="http://www.w3.org/1999/xlink" x="0px" y="0px"
	 viewBox="0 0 416 480" style="enable-background:new 0 0 416 480;" xml:space="preserve">
<path d="M16,456c0,13.3,10.7,24,24,24h352c13.3,0,24-10.7,24-24V24c0-13.3-10.7-24-24-24H280c-13.3,0-24,10.7-24,24v216h-87.6
	L176,88.4c0.1-2.2-0.7-4.3-2.2-5.9c-1.5-1.6-3.6-2.5-5.8-2.5H8c-2.2,0-4.3,0.9-5.8,2.5c-1.5,1.6-2.3,3.7-2.2,5.9l16,319.8V456z
	 M32,456v-40h72v40c0,2.7,0.5,5.4,1.5,8H40C35.6,464,32,460.4,32,456z M320,256c4.4,0,8,3.6,8,8v48H120v-48c0-4.4,3.6-8,8-8H320z
	 M120,328h208v104H120V328z M128,464c-4.4,0-8-3.6-8-8v-8h208v8c0,4.4-3.6,8-8,8H128z M272,24c0-4.4,3.6-8,8-8h112c4.4,0,8,3.6,8,8
	v88H272V24z M272,128h128v328c0,4.4-3.6,8-8,8h-49.5c0.9-2.6,1.4-5.3,1.5-8V264c0-13.3-10.7-24-24-24h-48V128z M159.6,96l-7.2,144
	H128c-13.3,0-24,10.7-24,24v136H31.6L16.4,96H159.6z"/>
</svg>
