<?xml version="1.0" encoding="utf-8"?>
<!-- Generator: Adobe Illustrator 22.1.0, SVG Export Plug-In . SVG Version: 6.00 Build 0)  -->
<svg version="1.1" id="Layer_1" xmlns="http://www.w3.org/2000/svg" xmlns:xlink="http://www.w3.org/1999/xlink" x="0px" y="0px"
	 viewBox="0 0 314 314" style="enable-background:new 0 0 314 314;" xml:space="preserve">
<path d="M157,314c86.6,0,157-70.4,157-157S243.6,0,157,0S0,70.4,0,157S70.4,314,157,314z M157,14c78.9,0,143,64.1,143,143
	s-64.1,143-143,143S14,235.9,14,157S78.1,14,157,14z"/>
<path d="M118.3,142.9c16,0,29-13,29-29c0-16-13-29-29-29s-29,13-29,29C89.3,129.9,102.3,142.9,118.3,142.9z M118.3,98.9
	c8.3,0,15,6.7,15,15c0,8.3-6.7,15-15,15c-8.3,0-15-6.7-15-15C103.3,105.6,110,98.9,118.3,98.9z"/>
<path d="M165,201.9c0,16,13,29,29,29c16,0,29-13,29-29s-13-29-29-29C177.9,172.9,165,185.9,165,201.9z M208.9,201.9
	c0,8.3-6.7,15-15,15c-8.3,0-15-6.7-15-15s6.7-15,15-15C202.2,186.9,208.9,193.6,208.9,201.9z"/>
<path d="M103.7,238.7c3.2,2.1,7.6,1.2,9.7-2l99-151.7c1.4-2.1,1.5-4.8,0.4-7c-1.1-2.2-3.4-3.7-5.9-3.8s-4.9,1.1-6.2,3.2l-99,151.7
	C99.5,232.3,100.5,236.6,103.7,238.7z"/>
</svg>
