<?xml version="1.0" encoding="utf-8"?>
<!-- Generator: Adobe Illustrator 22.1.0, SVG Export Plug-In . SVG Version: 6.00 Build 0)  -->
<svg version="1.1" id="Ñëîé_1" xmlns="http://www.w3.org/2000/svg" xmlns:xlink="http://www.w3.org/1999/xlink" x="0px" y="0px"
	 viewBox="0 0 48 48" style="enable-background:new 0 0 48 48;" xml:space="preserve">
<style type="text/css">
	.st0{fill:none;stroke:#454545;stroke-width:2;stroke-linecap:round;stroke-linejoin:round;stroke-miterlimit:10;}
</style>
<g>
	<circle class="st0" cx="42" cy="6" r="5"/>
	<circle class="st0" cx="28" cy="6" r="5"/>
	<path class="st0" d="M12,1C9.2,1,7,3.2,7,6l1,14c0,2.2,1.8,4,4,4s4-1.8,4-4l1-14C17,3.2,14.8,1,12,1z"/>
	<path class="st0" d="M35,47c-2.8,0-5-2.2-5-5l1-14c0-2.2,1.8-4,4-4s4,1.8,4,4l1,14C40,44.8,37.8,47,35,47z"/>
	<line class="st0" x1="35" y1="24" x2="35" y2="19"/>
	<path class="st0" d="M42,11v4c0,2.2-1.8,4-4,4h-6c-2.2,0-4-1.8-4-4v-4"/>
	<path class="st0" d="M1,41v-7c0-2.2,1.8-4,4-4h14c2.2,0,4,1.8,4,4v7"/>
	<line class="st0" x1="12" y1="24" x2="12" y2="30"/>
	<path class="st0" d="M4,46.1c2.3,0.6,5.1,0.9,8,0.9s5.7-0.3,8-0.9V35.9c-2.3-0.6-5.1-0.9-8-0.9s-5.7,0.3-8,0.9V46.1z"/>
</g>
</svg>
