<svg
 xmlns="http://www.w3.org/2000/svg"
 xmlns:xlink="http://www.w3.org/1999/xlink">

<path fill-rule="evenodd"  fill="rgb(84, 65, 79)"
 d="M14.705,11.000 L0.295,11.000 C0.132,11.000 -0.001,10.857 -0.001,10.680 L-0.001,0.319 C-0.001,0.143 0.132,0.000 0.295,0.000 L14.705,0.000 C14.868,0.000 15.001,0.143 15.001,0.319 L15.001,10.680 C15.001,10.857 14.868,11.000 14.705,11.000 ZM14.148,10.361 L9.789,4.255 L7.510,5.901 L5.195,4.233 L0.827,10.361 L14.148,10.361 ZM0.591,9.643 L4.701,3.877 L0.591,0.917 L0.591,9.643 ZM1.272,0.639 L7.501,5.127 L13.728,0.639 L1.272,0.639 ZM10.282,3.899 L14.408,9.679 L14.408,0.918 L10.282,3.899 Z"/>

</svg>
