<?xml version="1.0" encoding="utf-8"?>
<!-- Generator: Adobe Illustrator 22.1.0, SVG Export Plug-In . SVG Version: 6.00 Build 0)  -->
<svg version="1.1" id="Capa_1" xmlns="http://www.w3.org/2000/svg" xmlns:xlink="http://www.w3.org/1999/xlink" x="0px" y="0px"
	 viewBox="0 0 27 36.1" style="enable-background:new 0 0 27 36.1;" xml:space="preserve">
<g>
	<g id="Phone_x5F_2">
		<g>
			<path d="M4.1,0.5L3,1.2C1.7,2,0.7,3.5,0.3,5.3C-0.8,10,1.1,16.9,5.2,23.5c6,9.5,14.3,14.7,19,11.8l1.1-0.7
				c0.8-0.5,1.4-1.3,1.6-2.2c0.2-0.9,0.1-1.9-0.4-2.7l-2.7-4.3c-1-1.7-3.2-2.2-4.9-1.1l-1.1,0.7c-1.1,0.7-3.5-0.3-6.5-5.2
				c-2.6-4.2-2.7-6.3-2.5-7.2c0.1-0.5,0.3-0.8,0.7-1l1.1-0.7c1.6-1,2.1-3.3,1.1-4.9L8.9,1.7C8.4,0.9,7.7,0.3,6.7,0.1
				C5.8-0.1,4.9,0,4.1,0.5z M7.2,2.7l2.7,4.3c0.4,0.7,0.2,1.7-0.5,2.1L8.4,9.8c-0.8,0.5-1.3,1.3-1.6,2.3c-0.5,2.1,0.4,5,2.7,8.7
				c4.7,7.6,8.1,6.6,9.3,5.8l1.1-0.7c0.7-0.4,1.7-0.2,2.1,0.5l2.7,4.3c0.4,0.7,0.2,1.7-0.5,2.1l-1.1,0.7
				c-3.6,2.3-11.1-2.8-16.2-11.1c-3.8-6-5.6-12.6-4.7-16.6c0.3-1.4,0.9-2.3,1.8-2.9l1.1-0.7C5.5,2,5.9,2,6.3,2.1
				C6.7,2.2,7,2.4,7.2,2.7z"/>
		</g>
	</g>
</g>
</svg>
