<?xml version="1.0" encoding="utf-8"?>
<!-- Generator: Adobe Illustrator 22.1.0, SVG Export Plug-In . SVG Version: 6.00 Build 0)  -->
<svg version="1.1" id="Layer_1" xmlns="http://www.w3.org/2000/svg" xmlns:xlink="http://www.w3.org/1999/xlink" x="0px" y="0px"
	 viewBox="0 0 21 26" style="enable-background:new 0 0 21 26;" xml:space="preserve">
<path d="M18.6,1.2c-0.4-0.3-1.1-0.2-1.4,0.2l-16,22c-0.3,0.4-0.2,1.1,0.2,1.4C1.6,24.9,1.8,25,2,25c0.3,0,0.6-0.1,0.8-0.4l16-22
	C19.1,2.1,19,1.5,18.6,1.2z"/>
<path d="M5,10c2.8,0,5-2.2,5-5S7.8,0,5,0C2.2,0,0,2.2,0,5S2.2,10,5,10z M5,2c1.7,0,3,1.3,3,3S6.7,8,5,8S2,6.7,2,5S3.3,2,5,2z"/>
<path d="M16,16c-2.8,0-5,2.2-5,5s2.2,5,5,5c2.8,0,5-2.2,5-5S18.8,16,16,16z M16,24c-1.7,0-3-1.3-3-3s1.3-3,3-3s3,1.3,3,3
	S17.7,24,16,24z"/>
</svg>
