<?xml version="1.0" encoding="utf-8"?>
<!-- Generator: Adobe Illustrator 22.1.0, SVG Export Plug-In . SVG Version: 6.00 Build 0)  -->
<svg version="1.1" id="Ñëîé_1" xmlns="http://www.w3.org/2000/svg" xmlns:xlink="http://www.w3.org/1999/xlink" x="0px" y="0px"
	 viewBox="0 0 39.8 48.4" style="enable-background:new 0 0 39.8 48.4;" xml:space="preserve">
<style type="text/css">
	.st0{fill:none;stroke:#454545;stroke-width:2;stroke-linecap:round;stroke-linejoin:round;stroke-miterlimit:10;}
</style>
<path class="st0" d="M35.4,1c0,3.7-3,6.8-6.7,6.8C25,7.8,22,4.7,22,1"/>
<line class="st0" x1="19.7" y1="24.8" x2="19.7" y2="23.8"/>
<path class="st0" d="M32,13.4c0.5,11.3,7.5,19,6.8,26.8c-0.3,2.7-0.9,5-1.4,7.2"/>
<path class="st0" d="M33,6.3c-0.3,0.9-0.6,1.9-0.8,2.8c-0.3,1.3-0.4,2.6-0.2,3.9"/>
<path class="st0" d="M6.5,6.3c0.7,2,1.2,4,1.4,6.1l0,0.6"/>
<path class="st0" d="M37.7,37.6C33,39.1,26.9,40,20.3,40c-7.2,0-13.7-1.1-18.5-2.8"/>
<path class="st0" d="M17.5,1c0,3.7-3,6.8-6.7,6.8c-3.7,0-6.7-3-6.7-6.8"/>
<path class="st0" d="M1.8,43.1c1.1,0.1,2.2,0.2,3.3,0.3c6.8,0.7,12.2,2.2,14.6,3.7c2.4-1.5,7.8-3,14.6-3.7c1.1-0.1,2.3-0.2,3.3-0.3"
	/>
<path class="st0" d="M7.8,13.4c-0.5,11.3-7.5,19-6.8,26.8c0.3,2.7,0.9,5,1.4,7.2"/>
</svg>
