<svg xmlns="http://www.w3.org/2000/svg" width="490.99" height="511" viewBox="0 0 490.99 511">
  <style type="text/css">
    .st0{fill:rgba(255,255,255,0.4);}
  </style>
  <path class="st0" d="M147.8,309.83C154.07,315.75 162.93,318.06 171.29,315.95C179.81,313.82 186.65,307.49 189.43,299.16C192.96,287.79 194.64,275.92 194.39,264.01L194.39,102.19C194.39,92.79 202.02,85.16 211.43,85.16C220.83,85.16 228.46,92.79 228.46,102.19L228.46,246.98C228.46,251.68 232.27,255.5 236.98,255.5C241.68,255.5 245.49,251.68 245.49,246.98L245.49,68.13C245.49,58.72 253.12,51.09 262.53,51.09C271.93,51.09 279.56,58.72 279.56,68.13L279.56,246.98C279.56,251.68 283.37,255.5 288.08,255.5C292.78,255.5 296.6,251.68 296.6,246.98L296.6,195.88C296.6,186.47 304.22,178.84 313.63,178.84C323.04,178.84 330.66,186.47 330.66,195.88L330.66,255.5C330.66,260.2 334.47,264.01 339.18,264.01C343.88,264.01 347.7,260.2 347.7,255.5L347.7,238.46C347.68,233.94 349.48,229.61 352.69,226.43C356.19,222.92 361.05,221.11 365.99,221.47C375.18,222.68 381.99,230.63 381.76,239.9L381.76,374.73C381.76,375.14 381.32,417.31 355.5,440.92C350.45,445.68 347.61,452.34 347.7,459.28L347.7,485.44C347.7,490.15 343.88,493.96 339.18,493.96L202.91,493.96C198.21,493.96 194.39,490.15 194.39,485.44L194.39,482.33C194.4,466.36 187.99,451.07 176.6,439.88C162.17,425.87 136.37,398.36 125.66,371.56C108.93,329.78 72.85,268.17 54.17,249.47C50.12,245.42 48.77,241.67 50.15,238.33C53.23,232.98 59.01,229.75 65.19,229.94C77,229.94 110.33,259.68 127.69,285.77C133.47,294.53 140.22,302.6 147.82,309.83ZM65.19,212.91C52.11,212.63 40.08,220.03 34.42,231.82C30.47,242.35 33.55,254.23 42.13,261.51C57.68,277.06 92.67,334.97 109.83,377.9C121.13,406.13 145.93,433.83 164.74,452.1C172.83,460.08 177.38,470.96 177.36,482.33L177.36,485.44C177.36,499.55 188.8,511 202.91,511L339.18,511C353.29,511 364.73,499.55 364.73,485.44L364.73,459.28C364.65,457.12 365.47,455.01 367,453.48C398.44,424.74 398.79,376.75 398.79,374.73L398.79,239.9C399.11,221.67 385.36,206.25 367.22,204.48C360.39,204.04 353.59,205.65 347.7,209.12L347.7,195.88C347.7,177.06 332.44,161.81 313.63,161.81C307.63,161.85 301.75,163.48 296.6,166.54L296.6,68.13C296.6,49.31 281.34,34.06 262.53,34.06C243.71,34.06 228.46,49.31 228.46,68.13L228.46,72.86C223.31,69.79 217.43,68.16 211.43,68.13C192.61,68.13 177.36,83.38 177.36,102.19L177.36,264.01C177.61,274.06 176.24,284.09 173.31,293.71C172.39,296.55 170.07,298.72 167.16,299.43C164.44,300.12 161.54,299.36 159.5,297.42C152.85,291.08 146.94,284 141.89,276.32C126.69,253.56 88.1,212.91 65.19,212.91"/>
  <path class="st0" d="M488.5,28.04L462.95,2.49C459.6,-0.73 454.29,-0.68 451.01,2.59C447.73,5.88 447.68,11.19 450.91,14.53L461.92,25.54L380.27,25.54C375.57,25.54 371.76,29.35 371.76,34.06C371.76,38.76 375.57,42.58 380.27,42.58L461.92,42.58L450.91,53.59C448.69,55.73 447.8,58.89 448.58,61.87C449.36,64.85 451.69,67.18 454.67,67.95C457.64,68.73 460.81,67.85 462.95,65.63L488.5,40.08C491.82,36.75 491.82,31.36 488.5,28.04"/>
  <path class="st0" d="M40.08,2.49C36.75,-0.83 31.36,-0.83 28.04,2.49L2.49,28.04C-0.83,31.36 -0.83,36.75 2.49,40.08L28.04,65.63C31.38,68.86 36.69,68.81 39.98,65.53C43.26,62.24 43.31,56.93 40.08,53.59L29.07,42.57L110.71,42.57C115.41,42.57 119.23,38.76 119.23,34.06C119.23,29.35 115.41,25.54 110.71,25.54L29.07,25.54L40.08,14.53C43.41,11.2 43.41,5.81 40.08,2.49"/>
</svg>