<?xml version="1.0" encoding="utf-8"?>
<!-- Generator: Adobe Illustrator 22.1.0, SVG Export Plug-In . SVG Version: 6.00 Build 0)  -->
<svg version="1.1" id="Layer_1" xmlns="http://www.w3.org/2000/svg" xmlns:xlink="http://www.w3.org/1999/xlink" x="0px" y="0px"
	 viewBox="0 0 43.5 43.5" style="enable-background:new 0 0 43.5 43.5;" xml:space="preserve">
<style type="text/css">
	.st0{fill:#C5579F;stroke:#FFFFFF;stroke-width:2;stroke-miterlimit:10;}
	.st1{fill:#FFFFFF;}
</style>
<circle class="st0" cx="21.8" cy="21.8" r="20.8"/>
<path class="st1" d="M29,21.3h-1.1l0.1-1.5c0-0.1,0-0.3-0.1-0.4c-0.1-0.1-0.2-0.1-0.3-0.1h-11c-0.1,0-0.2,0-0.3,0.1
	C16,19.6,16,19.7,16,19.8l0.2,5.4c0,1.3,0.8,2.5,1.7,2.9h-2.2c-0.2,0-0.5,0.3-0.5,0.5c0,0.3,0.2,0.5,0.5,0.5h12.4
	c0.2,0,0.5-0.3,0.5-0.5c0-0.3-0.2-0.5-0.5-0.5H26c0.8-0.4,1.4-1.2,1.6-2.3H29c1.1,0,2-1.1,2-2.4C31,22.4,30.1,21.3,29,21.3L29,21.3z
	 M24.9,27.4h-5.7c-1,0-1.9-0.9-1.9-2.1L17,20.5h9.9l-0.2,4.8C26.7,26.5,25.9,27.4,24.9,27.4L24.9,27.4z M29,24.9h-1.3l0.1-2.4l0,0
	H29c0.6,0,1,0.5,1,1.2C30.1,24.3,29.5,24.9,29,24.9L29,24.9z"/>
<path class="st1" d="M20.3,18.6c0.1,0,0.1,0.1,0.3,0.1c0.3,0,0.4-0.1,0.5-0.3c0.1-0.3,0.1-0.7-0.3-0.8c-0.3-0.1-0.5-0.5-0.7-0.9
	c-0.1-0.4,0-0.9,0.3-1.2l0,0c0-0.1,0.1-0.1,0.1-0.3c0.5-0.7,1.1-1.2,1.2-2.2c0-0.3-0.1-0.7-0.5-0.7c-0.3,0-0.7,0.1-0.7,0.5
	c-0.1,0.7-0.5,1.1-1,1.6c0,0.1-0.1,0.1-0.1,0.3c-0.5,0.5-0.7,1.3-0.5,2.2C19.2,17.5,19.6,18.2,20.3,18.6L20.3,18.6z"/>
<path class="st1" d="M23.1,18.6c0.1,0,0.1,0.1,0.3,0.1c0.3,0,0.4-0.1,0.5-0.3c0.1-0.3,0.1-0.7-0.3-0.8c-0.3-0.1-0.5-0.5-0.7-0.9
	c-0.1-0.4,0-0.9,0.3-1.2l0,0c0-0.1,0.1-0.1,0.1-0.3c0.5-0.7,1.1-1.2,1.2-2.2c0-0.3-0.1-0.7-0.5-0.7c-0.3,0-0.7,0.1-0.7,0.5
	c-0.1,0.7-0.5,1.1-1,1.6c0,0.1-0.1,0.1-0.1,0.3c-0.5,0.5-0.7,1.3-0.5,2.2C22,17.5,22.4,18.2,23.1,18.6L23.1,18.6z"/>
</svg>
