<?xml version="1.0" encoding="utf-8"?>
<!-- Generator: Adobe Illustrator 22.0.1, SVG Export Plug-In . SVG Version: 6.00 Build 0)  -->
<svg version="1.1" id="Layer_1" xmlns="http://www.w3.org/2000/svg" xmlns:xlink="http://www.w3.org/1999/xlink" x="0px" y="0px"
	 viewBox="0 0 43.5 43.5" style="enable-background:new 0 0 43.5 43.5;" xml:space="preserve">
<style type="text/css">
	.st0{fill-rule:evenodd;clip-rule:evenodd;fill:#FBBB05;stroke:#FFFFFF;stroke-width:2;stroke-miterlimit:10;}
	.st1{fill-rule:evenodd;clip-rule:evenodd;fill:#FFFFFF;stroke:#FFFFFF;stroke-width:0.5;stroke-miterlimit:10;}
</style>
<circle class="st0" cx="21.8" cy="21.8" r="20.8"/>
<path class="st1" d="M16,29.5l12,0c0,0.7,0.1,1.3-0.3,1.9c-0.3,0.4-0.7,0.7-1.4,0.7h-8.6c-0.8,0-1.2-0.3-1.5-0.7
	C15.9,30.8,16,30.2,16,29.5L16,29.5z M20.8,23.5L20.8,23.5l0.5,0c0.8,0.1,1.4,0.5,1.6,1.3c0.1,0.3,0.1,0.6,0,0.9
	C22.7,26.5,22,27,21.2,27c-0.6,0-1.2-0.4-1.4-0.9l-0.1-0.4c-0.4,0-0.8-0.1-1-0.4c-0.6-0.7-0.4-2,0.6-2.3c0.5-0.2,1-0.1,1.4,0.3
	C20.6,23.3,20.7,23.4,20.8,23.5L20.8,23.5z M20.2,25.9c0.1,0.3,0.5,0.6,1,0.7c1.6,0.1,1.9-2.4,0.1-2.5C21.4,25,20.9,25.6,20.2,25.9
	L20.2,25.9z M19.3,23.4c-1.1,0.3-0.7,2.1,0.5,1.8C21,24.9,20.6,23,19.3,23.4L19.3,23.4z M27.8,21.1c0.3,0,0.1,0,0.1,0.1l0,7.5
	c-0.1,0.1,0.1,0.1-0.1,0.1H16c-0.1-0.2-0.1-7.3,0-7.7C19.9,21.1,23.9,21.1,27.8,21.1L27.8,21.1z M24.4,18.1l-0.4,0
	c-0.6-0.1-0.7-0.5-1.2-0.7c-0.4-0.2-1.2-0.2-1.6,0c-0.4,0.2-0.6,0.7-1.2,0.7c-0.7,0-0.9-0.4-1.3-0.6c-0.5-0.3-1-0.3-1.5,0
	c-0.4,0.3-0.5,0.7-1.2,0.7c-0.5,0-1.1-0.3-1.2-0.7c-0.2-0.5,0.2-1.1,0.5-1.3l13.6,0c0.2,0.3,0.5,0.6,0.5,1c0,0.4-0.4,0.7-0.7,0.9
	c-1.4,0.6-1.7-1.2-3-0.7C25,17.6,25,18,24.4,18.1L24.4,18.1z M24,18.9c1.4,0,1.7-1.4,2.5-0.7c0.2,0.1,0.2,0.2,0.4,0.3
	c0.3,0.2,0.6,0.3,1.1,0.4l0,1.4l-12,0l0-1.4c0.5-0.1,0.7-0.1,1-0.3c0.3-0.2,0.4-0.5,0.8-0.5c0.7-0.1,0.7,0.7,1.8,0.8
	c1.1,0.2,1.5-0.5,1.9-0.7c0.2-0.2,0.8-0.2,1.1,0C23.3,18.7,23.1,18.9,24,18.9L24,18.9z M13.8,19.6c-0.2,0-0.5-0.2-0.7-0.3
	c-0.2-0.1-0.5-0.2-0.7-0.4c0.1-0.8,1-2,1.5-2.2c0,0.3-0.1,0.5,0,0.8c0.1,0.4,0.2,0.3,0.1,0.6C13.8,18.6,13.8,19,13.8,19.6L13.8,19.6
	z M15.3,14.9c-0.1-0.8,0.8-0.7,1.1-0.7h10.9c0.6,0,1.3-0.1,1.3,0.5c0.1,0.7-0.5,0.7-1.1,0.7c-1.2,0-11.6,0-11.8,0
	C15.5,15.4,15.3,15.2,15.3,14.9L15.3,14.9z M27.9,13.5l-11.9,0c0.1-1,1-1.9,2-2c0.5-0.1,1.4,0,1.9,0c0.9,0,5.5,0,6,0
	C26.9,11.6,27.8,12.5,27.9,13.5L27.9,13.5z M12.4,13.1l1.3-0.6c0.1,1.8,0.7,1.9,0.8,2.3c0,0.2,0,0.3,0.1,0.5
	c0.1,0.2,0.1,0.2,0.1,0.4C13.8,15.7,12.5,14,12.4,13.1L12.4,13.1z M14.8,13.9c-0.2-0.5-0.3-0.6-0.3-1.3c0-0.5-0.2-0.9-0.7-0.9
	c-0.3,0-0.8,0.3-1.1,0.5c-0.2,0.1-1,0.4-1.1,0.5c0.3,1.4,0.9,2.5,2.1,3.3c-0.2,0.2-0.8,0.4-1.4,1.3c-0.2,0.3-0.8,1.6-0.7,2
	c0.4,0.2,0.7,0.3,1,0.4c0.2,0.1,0.7,0.4,1,0.5c0.5,0.1,0.8-0.2,0.9-0.5c0.1-0.3,0.1-0.9,0.2-1.3l0.6,0.3c0.1,1.7,0,3.5,0,5.1v5.2
	c0,1.3-0.2,3,1.6,3.6c0.7,0.2,4.1,0.1,5.1,0.1c1,0,4.4,0.1,5.1-0.1c0.7-0.2,1.1-0.6,1.4-1.2c0.3-0.6,0.3-1.6,0.3-2.4v-7.8
	c0-0.8,0-1.8,0-2.6c0.6-0.3,1.2-0.6,1.3-1.4c0.1-0.8-0.4-1.5-0.8-1.8c0.1-0.4,0.3-0.6,0.1-1.2c-0.2-0.5-0.5-0.6-0.6-0.8
	c0-0.1-0.1-0.4-0.1-0.6c0-0.2-0.1-0.4-0.2-0.5c-0.2-0.4-0.4-0.6-0.6-0.8c-1.2-1.2-2.7-0.9-4.7-0.9c-1.1,0-4.8-0.1-5.5,0.1
	c-1.1,0.3-1.8,1.2-2.1,2.2C15.3,13.3,15.4,13.7,14.8,13.9L14.8,13.9z"/>
</svg>
