<?xml version="1.0" encoding="utf-8"?>
<!-- Generator: Adobe Illustrator 22.0.1, SVG Export Plug-In . SVG Version: 6.00 Build 0)  -->
<svg version="1.1" id="Layer_1" xmlns="http://www.w3.org/2000/svg" xmlns:xlink="http://www.w3.org/1999/xlink" x="0px" y="0px"
	 viewBox="0 0 43.5 43.5" style="enable-background:new 0 0 43.5 43.5;" xml:space="preserve">
<style type="text/css">
	.st0{fill-rule:evenodd;clip-rule:evenodd;fill:#EE2B6B;stroke:#FFFFFF;stroke-width:2;stroke-miterlimit:10;}
	.st1{fill-rule:evenodd;clip-rule:evenodd;fill:#FFFFFF;}
</style>
<circle class="st0" cx="21.8" cy="21.8" r="20.8"/>
<g>
	<path class="st1" d="M26.9,10.4c-0.3-0.1-0.7,0-1,0.2L22.9,14l-2.6,1.9h-2.5c-0.6,0-1.2,0.2-1.6,0.7l-2.8,2.8
		c-0.4,0.4-0.3,1,0.1,1.3l2.7,2.1v1.2l-1,2.7l-2.8,4.8c-0.3,0.5-0.1,1.1,0.4,1.4c0.5,0.3,1.1,0.1,1.4-0.4l2.8-4.9
		c0,0,0.1-0.1,0.1-0.2l1.3-3.5l1,0l1.2,2.8l-0.3,5.1c0,0.6,0.4,1.1,1.1,1.1c0.6,0,1-0.4,1-1l0.3-5.4c0-0.2,0-0.3-0.1-0.5l-1.4-3.1
		v-5.8l2.8-2c0,0,0.1-0.1,0.1-0.1l0.7-0.8c0,0,0,0,0,0c0-1.1,0.8-2,1.8-2.2l0,0C26.3,11.6,26.4,10.8,26.9,10.4L26.9,10.4z
		 M15.4,19.9l0.8-0.8v1.4L15.4,19.9L15.4,19.9z"/>
	<path class="st1" d="M25.5,14.4c0,0.9,0.7,1.7,1.6,1.7c0.7,0,1.3-0.5,1.5-1.1l-1.5-2.2C26.2,12.7,25.5,13.5,25.5,14.4L25.5,14.4z"
		/>
	<path class="st1" d="M31,15.6c0.2-0.3,0.2-0.7,0-1l-2.6-3.7c-0.3-0.4-0.7-0.5-1.1-0.2c-0.4,0.2-0.5,0.7-0.2,1.1l2.2,3.2L28.7,16
		c-0.3,0.3-0.7,0.6-1.1,0.7c0,0,0,0-0.1,0c-0.1,0-0.7,0-1.7,0c-0.8,0-1.5,0.6-1.8,1.6c-0.6,1.7-1.8,5.3-1.8,5.4
		c-0.1,0.4,0.1,0.9,0.5,1c0.4,0.1,0.9-0.1,1-0.5c0,0,0.7-2,1.3-3.8L24,25.8c-0.1,0.3,0.2,0.5,0.4,0.5H25v5.9c0,0.5,0.4,1,0.9,1
		c0.5,0,1-0.4,1-1v-5.9h0.7l1.3,6.1c0.1,0.5,0.6,0.8,1.1,0.7c0.5-0.1,0.8-0.6,0.7-1.1l-1.2-5.7h0.2c0.3,0,0.5-0.3,0.4-0.5l-1.3-7.7
		C29,18,31,15.6,31,15.6L31,15.6z"/>
	<circle class="st1" cx="18.8" cy="13.3" r="1.8"/>
</g>
</svg>
