<?xml version="1.0" encoding="utf-8"?>
<!-- Generator: Adobe Illustrator 22.0.1, SVG Export Plug-In . SVG Version: 6.00 Build 0)  -->
<svg version="1.1" id="Layer_1" xmlns="http://www.w3.org/2000/svg" xmlns:xlink="http://www.w3.org/1999/xlink" x="0px" y="0px"
	 viewBox="0 0 43.5 43.5" style="enable-background:new 0 0 43.5 43.5;" xml:space="preserve">
<style type="text/css">
	.st0{fill-rule:evenodd;clip-rule:evenodd;fill:#EC8355;stroke:#FFFFFF;stroke-width:2;stroke-miterlimit:10;}
	.st1{fill-rule:evenodd;clip-rule:evenodd;fill:#FFFFFF;}
</style>
<circle class="st0" cx="21.8" cy="21.8" r="20.8"/>
<g>
	<path class="st1" d="M23.6,20.7h-3.2c-0.3,0-0.5,0.2-0.5,0.5v1.6c0,0.9,0.7,1.6,1.6,1.6h1.1c0.9,0,1.6-0.7,1.6-1.6v-1.6
		C24.2,20.9,23.9,20.7,23.6,20.7L23.6,20.7z M23.1,22.8c0,0.3-0.2,0.5-0.5,0.5h-1.1c-0.3,0-0.5-0.2-0.5-0.5v-1.1h2.2V22.8L23.1,22.8
		z"/>
	<path class="st1" d="M37.2,17.2c-0.4-0.5-1-0.9-1.7-0.9H35c0.1-0.8,0.2-1.5,0.4-1.8c0.4-0.6,1.1-0.8,1.3-0.9l-0.3-1
		c-0.4,0.1-1.3,0.4-1.9,1.3c0,0.1-0.1,0.1-0.1,0.2c0-0.1-0.1-0.1-0.1-0.2c-0.6-0.9-1.5-1.2-1.9-1.3l-0.3,1c0.2,0.1,0.9,0.3,1.3,0.9
		c0.2,0.3,0.4,1.1,0.4,1.8h-0.5c-0.7,0-1.3,0.3-1.7,0.9c-0.3,0.4-0.4,0.8-0.4,1.3h-1.7c-0.4,0-0.7-0.2-0.9-0.5l-1.1-1.8
		c-0.5-0.9-1.4-1.5-2.4-1.5h-0.3c0.7-0.7,1.1-1.6,1.1-2.7c0-0.4-0.1-0.7-0.2-1.1h1.8V9.9h-1.8l-1.5-4c-0.1-0.2-0.3-0.3-0.5-0.3h-3.2
		c-0.2,0-0.4,0.1-0.5,0.3l-1.5,4h-1.8V11h1.8c-0.1,0.4-0.2,0.7-0.2,1.1c0,1.1,0.4,2,1.1,2.7H19c-1,0-1.9,0.6-2.4,1.5l-0.8,1.7
		c-0.2,0.4-0.6,0.6-1,0.6h-4.7v-1.1c1.8-0.3,3.2-1.8,3.2-3.7V9.9h-1.1v3.8c0,1.3-0.9,2.4-2.2,2.6V9.9H9.1v6.4
		c-1.2-0.3-2.2-1.3-2.2-2.6V9.9H5.8v3.8c0,1.9,1.4,3.5,3.2,3.7v1.7v2.7v16.2h1.1V22.3h6.5c0.4,0,0.7-0.1,1.1-0.2v10.4v1.7
		c-1.2,0.3-2.2,1.3-2.2,2.6v0.5c0,0.3,0.2,0.5,0.5,0.5H22h5.9c0.3,0,0.5-0.2,0.5-0.5v-0.5c0-1.3-0.9-2.4-2.2-2.6v-1.7V22.1
		c0.3,0.1,0.7,0.2,1.1,0.2h4.7l1.2,4.5c0.1,0.5,0.6,0.9,1.2,0.9c0.6,0,1.1-0.4,1.2-0.9l2-7.7C37.8,18.4,37.6,17.8,37.2,17.2
		L37.2,17.2z M20.8,6.7h2.5l1.2,3.2h-4.9L20.8,6.7L20.8,6.7z M19.3,12.1c0-0.4,0.1-0.7,0.2-1.1h4.9c0.1,0.3,0.2,0.7,0.2,1.1
		c0,1.5-1.2,2.7-2.7,2.7C20.5,14.8,19.3,13.5,19.3,12.1L19.3,12.1z M23.6,18h-3.2v-2.2h3.2V18L23.6,18z M16.6,21.2h-6.5v-1.6h4.7
		c0.8,0,1.6-0.5,1.9-1.2l0.8-1.7c0.3-0.6,0.8-0.9,1.4-0.9h0.3v2.5l-1.5,2.4C17.5,21.1,17.1,21.2,16.6,21.2L16.6,21.2z M21.5,36.8
		h-4.9c0-0.9,0.7-1.6,1.6-1.6c0.3,0,0.5-0.2,0.5-0.5v-1.6h2.7V36.8L21.5,36.8z M21.5,27.1V32h-2.7V21.4l1.4-2.3h3.7l1.4,2.3V32h-2.7
		v-4.9H21.5L21.5,27.1z M27.4,36.8h-4.9v-3.8h2.7v1.6c0,0.3,0.2,0.5,0.5,0.5C26.7,35.2,27.4,36,27.4,36.8L27.4,36.8z M27.4,21.2
		c-0.4,0-0.9-0.1-1.2-0.4l-1.5-2.4v-2.5H25c0.6,0,1.2,0.3,1.5,0.9l1.1,1.8c0.4,0.6,1.1,1,1.8,1h1.9l0.4,1.6H27.4L27.4,21.2z
		 M36.5,18.8l-2,7.7c0,0.1-0.3,0.1-0.3,0L33,21.6l0,0l-0.7-2.7c0,0,0,0,0,0l0-0.1c-0.1-0.3,0-0.7,0.2-0.9c0.2-0.3,0.5-0.4,0.9-0.4
		h2.2c0.3,0,0.7,0.2,0.9,0.4C36.6,18.1,36.6,18.5,36.5,18.8L36.5,18.8z"/>
</g>
</svg>
