<?xml version="1.0" encoding="utf-8"?>
<!-- Generator: Adobe Illustrator 22.0.1, SVG Export Plug-In . SVG Version: 6.00 Build 0)  -->
<svg version="1.1" id="Layer_1" xmlns="http://www.w3.org/2000/svg" xmlns:xlink="http://www.w3.org/1999/xlink" x="0px" y="0px"
	 viewBox="0 0 43.5 43.5" style="enable-background:new 0 0 43.5 43.5;" xml:space="preserve">
<style type="text/css">
	.st0{fill-rule:evenodd;clip-rule:evenodd;fill:#A55E7F;stroke:#FFFFFF;stroke-width:2;stroke-miterlimit:10;}
	.st1{fill-rule:evenodd;clip-rule:evenodd;fill:#FFFFFF;}
</style>
<circle class="st0" cx="21.8" cy="21.8" r="20.8"/>
<path class="st1" d="M22.8,17.5c-0.1-1.4,0.1-2.2-0.9-3c-0.8-0.6-1.9-0.7-1.6-2.4c0.2-1,1.4-1.7,2.5-1.2c1.3,0.6,0.5,2.1,1.6,2.4
	c1.4,0.4,1.6-1.1,1.2-2.2c-1.3-3.2-5.8-3.4-7.1-0.1c-1.5,3.7,2.1,4.4,2.4,5.6c0.2,0.9-0.2,0.9-1.4,1.6C17.2,19.5,7.6,25,7.1,25.6
	c-1.4,2-0.2,4.5,2.1,4.7c1.8,0.2,20.6,0,23.5,0c1.3,0,2.3,0.1,3.2-0.7c0.7-0.6,1.2-1.6,1-2.9c-0.2-1.2-0.8-1.7-1.7-2.2
	c-0.8-0.4-1.7-1-2.5-1.5C29.4,21.3,26.2,19.5,22.8,17.5L22.8,17.5z M21.4,19.6c-3.7,2.1-7.4,4.2-11.1,6.4C10,26.2,9.2,26.6,9,26.8
	c-0.4,0.3-0.4,0.9,0,1.3c0.6,0.4,19.5,0.2,21.7,0.2c1,0,3.6,0.4,3.9-0.5c0.4-1.1-1.5-1.8-2.1-2.1c-1.9-1.1-3.7-2.2-5.5-3.2L22.9,20
	C22.4,19.7,22,19.3,21.4,19.6L21.4,19.6z"/>
</svg>
