<?xml version="1.0" encoding="utf-8"?>
<!-- Generator: Adobe Illustrator 22.0.1, SVG Export Plug-In . SVG Version: 6.00 Build 0)  -->
<svg version="1.1" id="Layer_1" xmlns="http://www.w3.org/2000/svg" xmlns:xlink="http://www.w3.org/1999/xlink" x="0px" y="0px"
	 viewBox="0 0 43.5 43.5" style="enable-background:new 0 0 43.5 43.5;" xml:space="preserve">
<style type="text/css">
	.st0{fill-rule:evenodd;clip-rule:evenodd;fill:#EB6502;stroke:#FFFFFF;stroke-width:2;stroke-miterlimit:10;}
	.st1{fill-rule:evenodd;clip-rule:evenodd;fill:#FFFFFF;stroke:#FFFFFF;stroke-width:0.5;stroke-miterlimit:10;}
</style>
<circle class="st0" cx="21.8" cy="21.8" r="20.8"/>
<path class="st1" d="M28.4,31.9c-0.2-2.5-2.4-4.7-5.6-5.4c0.1-1.7,0.4-3.3,1-4.9c0.3,1,0.2,2.2-0.3,3.1l-0.4,0.8l0.8-0.3
	c1.3-0.4,2.3-1.4,2.9-2.6c0.9,0.7,1.6,1.7,2,2.7l0.3,0.7l0.4-0.7c0.6-1.2,0.5-2.6-0.3-3.7l2.9,0.9L32,22c-0.5-1.6-1.7-3-3.3-3.6
	c0.9,0,1.7,0.1,2.5,0.3l1.5,0.4l-0.3-0.7c-0.7-1.4-2-2.5-3.5-3l-0.6-0.2c0.3-0.2,0.5-0.4,0.8-0.5l-0.4-0.6c-0.5,0.3-1,0.6-1.5,1
	l-0.5,0.4l1.9,0.6c1.1,0.3,2,1,2.7,1.9c-1.4-0.3-2.8-0.4-4.3-0.2l-1.3,0.2l2.7,1c1.2,0.4,2.2,1.3,2.7,2.5l-4.2-1.3l1.4,1.4
	c0.7,0.7,1,1.7,0.8,2.6c-0.5-0.9-1.1-1.7-1.9-2.3l-0.7-0.5L26.4,22c-0.3,1-1,1.8-1.8,2.3c0.3-1.1,0.3-2.2-0.1-3.3
	c0.5-0.2,0.9-0.7,0.9-1.3c0-0.3-0.1-0.7-0.3-0.9c0.4-0.2,0.7-0.7,0.7-1.2c0-0.8-0.6-1.4-1.4-1.4c-0.6,0-1.1,0.4-1.3,0.9
	c-0.2-0.2-0.5-0.2-0.8-0.2c-0.8,0-1.4,0.6-1.4,1.4h-0.5c-1.3,0-2.6-0.2-3.9-0.5l2.7-1.7l-4-2l0.7-0.2c1-0.3,2.1-0.3,3,0.2l2,1
	l-0.7-2.1c1.3,0.7,2.2,1.9,2.6,3.3l0.3-0.1h0.4v-0.3c0-1.4,0.7-2.7,1.8-3.6v1.6l1.7-0.6c1.3-0.5,2.8-0.5,4,0
	c-0.4,0.2-0.9,0.3-1.3,0.5l0.3,0.6c0.6-0.3,1.2-0.5,1.8-0.7l1.1-0.3l-0.7-0.4c-1.7-0.9-3.6-1.1-5.4-0.5l-0.7,0.3v-1.9l-0.5,0.3
	c-1.3,0.7-2.2,2-2.5,3.5c-0.6-1.1-1.5-1.9-2.6-2.5l-1.3-0.6l0.7,2.1l-0.5-0.2c-1.1-0.6-2.4-0.6-3.5-0.3l-2.3,0.8l1.3,0.6
	c-2,0.6-3.5,2.5-3.5,4.7c0,2.7,2.2,4.9,4.9,4.9c2.7,0,4.9-2.2,4.9-4.9c0-0.1,0-0.2,0-0.4h0.2c0.1,0.2,0.4,0.4,0.6,0.6
	c-1.5,2-2.4,4.5-2.5,7c-3.4,0.6-5.8,2.8-6,5.5h-2.1v0.7h21.9v-0.7H28.4L28.4,31.9z M15.8,23.5c-2.3,0-4.2-1.9-4.2-4.2
	c0-2.2,1.7-4,3.8-4.2l2.1,1.1l-3,1.8l1,0.3c1.4,0.4,2.9,0.6,4.4,0.6c0,0.1,0,0.2,0,0.4C20,21.6,18.1,23.5,15.8,23.5L15.8,23.5z
	 M24.2,16.8c0.4,0,0.7,0.3,0.7,0.7c0,0.4-0.3,0.7-0.7,0.7c-0.4,0-0.7-0.3-0.7-0.7C23.5,17.1,23.8,16.8,24.2,16.8L24.2,16.8z
	 M23.9,18.9c0.4,0,0.7,0.3,0.7,0.7c0,0.4-0.3,0.7-0.7,0.7c-0.4,0-0.7-0.3-0.7-0.7C23.2,19.2,23.5,18.9,23.9,18.9L23.9,18.9z
	 M21.4,18.2c0-0.4,0.3-0.7,0.7-0.7c0.4,0,0.7,0.3,0.7,0.7c0,0.4-0.3,0.7-0.7,0.7C21.7,18.9,21.4,18.6,21.4,18.2L21.4,18.2z
	 M22.3,19.6c0.1,0,0.1,0,0.2,0c0,0,0,0,0,0.1c0,0.6,0.4,1.1,0.9,1.3c-0.2,0.5-0.4,1-0.5,1.5c-0.7-0.1-1.3-0.4-1.7-1l-0.1-0.1
	C21.5,20.7,21.9,20.1,22.3,19.6L22.3,19.6z M20.8,22c0.5,0.5,1.1,0.9,1.9,1c-0.2,0.6-0.3,1.2-0.4,1.8c-0.8,0-1.4-0.3-2-0.9l-0.2-0.2
	C20.3,23.2,20.5,22.6,20.8,22L20.8,22z M13.7,31.9c0.2-2.3,2.3-4.2,5.3-4.8c0,0,0,0.1,0,0.1v1.8h0.7v-1.8c0-0.1,0-0.2,0-0.3
	c0.3,0.2,0.6,0.3,0.9,0.4l0.2-0.7c-0.4-0.1-0.8-0.3-1.1-0.6c0-0.5,0.1-1,0.2-1.5c0.6,0.6,1.4,0.9,2.3,1c0,0.5-0.1,0.9-0.1,1.4
	c-0.2,0-0.4,0-0.6-0.1l-0.1,0.7c0.3,0.1,0.5,0.1,0.8,0.1v1.4h0.7v-1.8c0,0,0,0,0-0.1c2.8,0.7,4.7,2.5,4.9,4.7H13.7L13.7,31.9z"/>
</svg>
