<?xml version="1.0" encoding="utf-8"?>
<!-- Generator: Adobe Illustrator 22.0.1, SVG Export Plug-In . SVG Version: 6.00 Build 0)  -->
<svg version="1.1" id="Layer_1" xmlns="http://www.w3.org/2000/svg" xmlns:xlink="http://www.w3.org/1999/xlink" x="0px" y="0px"
	 viewBox="0 0 43.5 43.5" style="enable-background:new 0 0 43.5 43.5;" xml:space="preserve">
<style type="text/css">
	.st0{fill-rule:evenodd;clip-rule:evenodd;fill:#E4007D;stroke:#FFFFFF;stroke-width:2;stroke-miterlimit:10;}
	.st1{fill-rule:evenodd;clip-rule:evenodd;fill:#FFFFFF;}
</style>
<circle class="st0" cx="21.8" cy="21.8" r="20.8"/>
<path class="st1" d="M22,21.5c-0.1-0.1-0.2-0.1-0.3-0.1c-0.1,0-0.2,0-0.3,0.1c-0.1,0.1-0.1,0.2-0.1,0.3c0,0.1,0,0.2,0.1,0.3
	c0.1,0.1,0.2,0.1,0.3,0.1c0.1,0,0.2,0,0.3-0.1c0.1-0.1,0.1-0.2,0.1-0.3C22.2,21.7,22.1,21.5,22,21.5L22,21.5z"/>
<g>
	<path class="st1" d="M21.6,23.3c-0.2-0.1-0.4,0-0.5,0.2L21,23.6c-0.1,0.2,0,0.4,0.2,0.5c0.1,0,0.1,0,0.2,0c0.1,0,0.3-0.1,0.4-0.2
		l0.1-0.1C21.9,23.6,21.8,23.4,21.6,23.3L21.6,23.3z"/>
	<path class="st1" d="M17.2,21c-0.2-0.2-0.4-0.2-0.6,0c-0.3,0.3-0.9,0.3-1.2,0c-0.2-0.2-0.4-0.2-0.6,0c-0.2,0.2-0.2,0.4,0,0.6
		c0.3,0.3,0.7,0.5,1.2,0.5c0.4,0,0.8-0.2,1.2-0.5C17.3,21.4,17.3,21.1,17.2,21L17.2,21z"/>
	<path class="st1" d="M30.5,12.6c-1.4-1.4-3.7-1.4-5.1,0c-0.4-0.2-0.9-0.4-1.4-0.6c-1.6-0.5-2.9-0.5-3-0.5c-2.2,0-4,0.9-4.9,2.4
		c-0.1,0.2-0.2,0.4-0.3,0.6c-0.4,0.4-2.3,2.3-2.3,5c0,1.8-0.9,2.8-1.4,3.2c-0.2,0.2-0.3,0.4-0.3,0.6c0,0.2,0.2,0.5,0.4,0.6
		c0.2,0.1,0.4,0.2,0.6,0.3c0.2,0.1,0.5,0.2,0.6,0.3v0.7c0,0.1,0,0.2-0.1,0.3l-0.1,0.2c-0.1,0.3-0.1,0.7,0.1,1v0.1
		c0,0.3,0.1,0.5,0.3,0.7V28c0,1,0.8,1.8,1.8,1.8h1.2c0.2,0,0.4-0.2,0.4-0.4c0-0.2-0.2-0.4-0.4-0.4h-1.2c-0.6,0-1-0.5-1-1v-0.7
		c0-0.2-0.1-0.3-0.2-0.4l0,0c0,0,0,0,0-0.1v-0.2c0-0.1,0-0.2-0.1-0.2l-0.1-0.1c0-0.1-0.1-0.2,0-0.2l0.1-0.2c0.1-0.2,0.1-0.4,0.1-0.6
		v-0.8c0-0.4-0.4-0.6-1-0.9c-0.2-0.1-0.3-0.2-0.5-0.2c0.6-0.5,1.6-1.7,1.6-3.7c0-1.5,0.7-2.7,1.2-3.5c0,0.7,0.2,1.4,0.6,2.1
		c1,1.9,2.8,2.7,4.2,3.3c1.4,0.6,2.1,1,2.1,1.8c0,0.6-0.1,1-0.4,1.3c-0.3,0.3-0.7,0.3-0.7,0.3c-0.1,0-0.3,0-0.3,0.2
		c-0.1,0.1-0.1,0.2-0.1,0.4c0,0,0.3,0.8,0.9,1.6c0.8,1,1.8,1.5,3,1.5l1.1,3.1c0.1,0.2,0.2,0.3,0.4,0.3c0,0,0.1,0,0.1,0
		c0.2-0.1,0.3-0.3,0.2-0.5l-1.1-3.1c2-1.1,3.4-2.7,4-4.8c0.5-1.7,0.6-3.5,0.1-5.3c0.2-0.1,0.5-0.3,0.7-0.5
		C32,16.3,32,14.1,30.5,12.6L30.5,12.6z M29,23.3c-0.6,1.9-2,3.5-3.9,4.4c-1,0-1.8-0.4-2.5-1.2c-0.3-0.3-0.5-0.7-0.6-0.9
		c0.2-0.1,0.5-0.2,0.7-0.4c0.4-0.4,0.7-1.1,0.7-1.9c0-1.3-1.3-1.9-2.6-2.5c-1.4-0.6-3-1.3-3.8-3c-0.6-1-0.7-2-0.4-2.9c0,0,0,0,0,0
		c0.1-0.2,0.1-0.4,0.3-0.5c0.7-1.2,2.3-2,4.2-2c0,0,0,0,0,0c0,0,1.3,0,2.8,0.4c2,0.6,3.5,1.8,4.4,3.5C29.4,18.5,29.7,21.1,29,23.3
		L29,23.3z M29.6,17.5c-0.2-0.5-0.4-1-0.7-1.5c-0.7-1.2-1.6-2.2-2.8-2.9c1.1-0.9,2.7-0.9,3.8,0.2c1.1,1.1,1.1,2.9,0,4
		C29.9,17.3,29.8,17.4,29.6,17.5L29.6,17.5z"/>
	<path class="st1" d="M22.1,30.2L20.9,28l0-1.5c0-1.2-1-2.2-2.2-2.3c-0.9-0.1-1.8,0.4-2.2,1.2l0,0c-0.5,1.1-0.1,2.4,0.9,3.1l1.2,0.8
		l1.4,2.3c0.1,0.1,0.2,0.2,0.3,0.2c0.1,0,0.1,0,0.2-0.1c0.2-0.1,0.3-0.4,0.1-0.5l-1.2-2.1l0.5-0.3l0.5-0.3l1.1,1.9
		c0.1,0.2,0.4,0.3,0.5,0.1C22.1,30.6,22.2,30.4,22.1,30.2L22.1,30.2z M18.8,28.6l-1.1-0.7c-0.7-0.4-0.9-1.3-0.6-2l0,0
		c0.2-0.5,0.7-0.8,1.3-0.8c0,0,0.1,0,0.1,0c0.8,0.1,1.5,0.7,1.5,1.6l0,1.3L18.8,28.6L18.8,28.6z"/>
	<path class="st1" d="M19.4,13.9c-0.1-0.2-0.3-0.3-0.5-0.2c-0.7,0.3-1.2,0.8-1.4,1.4c-0.2,0.6-0.1,1.3,0.2,2
		c0.1,0.1,0.2,0.2,0.4,0.2c0.1,0,0.1,0,0.2,0c0.2-0.1,0.3-0.3,0.2-0.5c-0.3-0.5-0.3-1-0.2-1.4c0.1-0.4,0.5-0.7,1-1
		C19.4,14.4,19.5,14.1,19.4,13.9L19.4,13.9z"/>
	<path class="st1" d="M20.4,13.4L20.4,13.4c-0.2,0-0.4,0.2-0.4,0.4c0,0.2,0.2,0.4,0.4,0.4h0h0c0.2,0,0.4-0.2,0.4-0.4
		C20.8,13.6,20.6,13.4,20.4,13.4L20.4,13.4z"/>
</g>
</svg>
