<?xml version="1.0" encoding="utf-8"?>
<!-- Generator: Adobe Illustrator 22.0.1, SVG Export Plug-In . SVG Version: 6.00 Build 0)  -->
<svg version="1.1" id="Layer_1" xmlns="http://www.w3.org/2000/svg" xmlns:xlink="http://www.w3.org/1999/xlink" x="0px" y="0px"
	 viewBox="0 0 43.5 43.5" style="enable-background:new 0 0 43.5 43.5;" xml:space="preserve">
<style type="text/css">
	.st0{fill-rule:evenodd;clip-rule:evenodd;fill:#4872E1;stroke:#FFFFFF;stroke-width:2;stroke-miterlimit:10;}
	.st1{fill-rule:evenodd;clip-rule:evenodd;fill:#FFFFFF;}
</style>
<circle class="st0" cx="21.8" cy="21.8" r="20.8"/>
<path class="st1" d="M22.2,11h-0.9c-0.3,0.2-2.2,0.2-3.3,2.4c-0.4,0.7-0.4,1.5-0.4,2.4v2.9c0,2.7-0.5,5.1,1.9,6.6
	c2,1.3,4.5,0.7,5.8-1.4c0.8-1.3,0.5-3.5,0.5-5.1v-2.8c0-1.7-0.2-3-1.7-4.1c-0.3-0.2-0.6-0.4-0.9-0.5C22.8,11.1,22.3,11,22.2,11
	L22.2,11z M20.1,29l0,1.8c-0.4,0-2.3-0.1-2.5,0c-0.8,0-0.8,0.9-0.8,1.6h10c0-0.3,0-0.9-0.1-1.2c-0.1-0.2-0.4-0.5-0.7-0.5
	c-0.2-0.1-2.1,0-2.5,0l0-1.8c0.9-0.3,1.6-0.5,2.6-1.1c0.8-0.6,1.3-1,1.9-1.8c0.5-0.7,0.9-1.6,1.2-2.6c0.2-0.8,0.5-2.7-0.1-3.2
	c-0.4-0.4-1-0.2-1.2,0.3c-0.2,0.4-0.1,1.2-0.1,1.7c-0.1,1.1-0.5,2-1,2.7c-2.3,3.4-7.4,3.4-9.6,0c-1.5-2.2-0.7-3.8-1.1-4.4
	c-0.2-0.4-0.8-0.6-1.2-0.2c-0.5,0.5-0.3,2.4-0.1,3.2c0.5,1.9,1.5,3.3,3,4.4C18.5,28.6,19.1,28.7,20.1,29L20.1,29z M19.4,14.3
	c0.5,0,1.6-0.1,1.5,0.9C20.9,16,20,16,19.3,16l0,0.8c0.5,0,1.6-0.2,1.7,0.8c0,1-1.1,0.9-1.6,0.9l0,0.8h5l0-0.8
	c-0.6,0-1.6,0.2-1.6-0.8c0-0.4,0.2-0.6,0.5-0.8c0.3-0.1,0.8-0.1,1.2-0.1l0-0.8c-0.7,0-1.6,0.1-1.6-0.7c0-0.4,0.2-0.7,0.4-0.8
	c0.3-0.2,0.7-0.1,1.1-0.1c-0.2-1-2.1-2.4-3.8-1.2C20,13.3,19.5,13.8,19.4,14.3L19.4,14.3z"/>
</svg>
