<?xml version="1.0" encoding="utf-8"?>
<!-- Generator: Adobe Illustrator 22.0.1, SVG Export Plug-In . SVG Version: 6.00 Build 0)  -->
<svg version="1.1" id="Layer_1" xmlns="http://www.w3.org/2000/svg" xmlns:xlink="http://www.w3.org/1999/xlink" x="0px" y="0px"
	 viewBox="0 0 43.5 43.5" style="enable-background:new 0 0 43.5 43.5;" xml:space="preserve">
<style type="text/css">
	.st0{fill-rule:evenodd;clip-rule:evenodd;fill:#F4B3D1;stroke:#FFFFFF;stroke-width:2;stroke-miterlimit:10;}
	.st1{fill:#FFFFFF;}
</style>
<circle class="st0" cx="21.8" cy="21.8" r="20.8"/>
<g>
	<path class="st1" d="M28.1,18.9c-0.1,0-0.2,0.2-0.2,0.3c0.3,1.6,0.7,3.9,0.7,5.8c0,0.1-0.1,3.3-0.8,4.9c-0.1,0.2-0.3,0.4-0.6,0.4
		h-1.8c-0.3,0-0.6-0.2-0.6-0.5L24.4,28c-0.2-0.9-1-1.6-2-1.6h-1.2c-1,0-1.8,0.7-2,1.6l-0.4,1.7c-0.1,0.3-0.3,0.5-0.6,0.5h-1.8
		c-0.2,0-0.5-0.1-0.6-0.4c-0.3-0.6-0.5-1.7-0.7-3c0-0.2-0.2-0.3-0.3-0.2c-0.1,0-0.3,0.2-0.2,0.3c0.2,1.4,0.4,2.5,0.7,3.2
		c0.2,0.4,0.6,0.7,1.1,0.7h1.8c0.6,0,1-0.4,1.2-0.9l0.4-1.7c0.2-0.7,0.8-1.2,1.5-1.2h1.2c0.7,0,1.3,0.5,1.5,1.2l0.4,1.7
		c0.1,0.5,0.6,0.9,1.2,0.9h1.8c0.5,0,0.9-0.3,1.1-0.7c0.3-0.7,0.6-1.8,0.7-3.2c0.1-1,0.1-1.9,0.1-1.9v0c0-1.9-0.4-4.3-0.7-5.9
		C28.4,18.9,28.2,18.8,28.1,18.9L28.1,18.9z"/>
	<path class="st1" d="M27.4,13.3c-1,1.8-2.7,3.1-4.7,3.5c-1.8,0.3-3.6-0.2-5-1.4c-0.4-0.4-0.8-0.8-1.1-1.2c-0.2-0.3-0.4-0.6-0.5-0.9
		h1c0,0,0.1,0,0.1,0c0,0,0.1,0.1,0.1,0.1c0.4,0.8,1.1,1.5,1.9,1.9c0.4,0.2,0.8,0.4,1.3,0.5c1.1,0.3,2.2,0.2,3.2-0.2
		c0.8-0.3,1.5-0.8,2-1.4c0.2-0.3,0.4-0.5,0.5-0.8c0-0.1,0.1-0.1,0.2-0.1L27.4,13.3C27.4,13.3,27.4,13.3,27.4,13.3L27.4,13.3z
		 M30.3,12.7h-2.4h-1.4c-0.3,0-0.6,0.2-0.7,0.4c-0.3,0.7-1.4,2.2-4,2.3h0c-0.6,0-1.1-0.1-1.6-0.3c0,0,0,0,0,0c-1-0.4-1.9-1.1-2.4-2
		c-0.1-0.1-0.1-0.2-0.3-0.3c-0.1-0.1-0.3-0.1-0.4-0.1h-1.4h-2.4c-0.4,0-0.8,0.4-0.8,0.8v2.5c0,0.4,0.3,0.7,0.6,0.8c0,0,0.1,0,0.1,0
		l2.3-0.1c0.1,0,0.1,0.1,0.2,0.2c-0.1,0.5-1.2,4.9-1.2,8.1v0c0,0,0,0.3,0,0.6c0,0.1,0.1,0.3,0.3,0.3c0,0,0,0,0,0
		c0.2,0,0.3-0.1,0.3-0.3c0-0.4,0-0.6,0-0.6c0-3.3,1.1-7.9,1.1-8c0,0,0,0,0-0.1c0-0.4-0.3-0.7-0.6-0.8c0,0,0,0-0.1,0l-2.3,0.1
		c-0.1,0-0.2-0.1-0.2-0.2v-2.5c0-0.1,0.1-0.2,0.2-0.2h2.3c0,0.1,0.1,0.1,0.1,0.2c0.2,0.3,0.4,0.7,0.6,1c0.3,0.5,0.7,0.9,1.2,1.3
		c1.2,1.1,2.7,1.7,4.3,1.7c0.4,0,0.8,0,1.2-0.1c2.1-0.4,4-1.8,5.1-3.8c0-0.1,0.1-0.2,0.1-0.3h2.3c0.1,0,0.2,0.1,0.2,0.2v2.5
		c0,0.1-0.1,0.2-0.2,0.2l-2.3-0.1c0,0-0.1,0-0.1,0c-0.4,0.1-0.6,0.4-0.6,0.8c0,0,0,0,0,0.1c0,0,0.1,0.4,0.2,0.9
		c0,0.1,0.2,0.2,0.3,0.2c0.1,0,0.2-0.2,0.2-0.3C28,17.4,28,17,27.9,16.9c0-0.1,0.1-0.2,0.2-0.2l2.3,0.1c0,0,0,0,0.1,0
		c0.4-0.1,0.6-0.4,0.6-0.8v-2.5C31.1,13.1,30.7,12.7,30.3,12.7L30.3,12.7z"/>
	<path class="st1" d="M24.9,22.6c-0.1,0.7-0.4,1.2-1,1.5c-0.3,0.1-0.6,0.2-1,0.3c-0.7,0.1-1.5,0.1-2.2,0c-0.4-0.1-0.7-0.2-1-0.3
		c-0.6-0.3-1-0.8-1-1.5c0-0.2,0-0.5,0-0.8c0.1-0.5,0.3-1,0.5-1.4c0.4-0.6,1.1-1,1.8-1.1c0.3,0,0.6-0.1,0.9-0.1s0.6,0,0.9,0.1
		c0.7,0.1,1.4,0.5,1.8,1.1c0.3,0.4,0.5,0.9,0.5,1.4l0,0C24.9,22.1,24.9,22.3,24.9,22.6L24.9,22.6z M19.4,18.4c0.3,0,0.6,0.2,0.8,0.4
		c-0.7,0.2-1.2,0.6-1.6,1.2c-0.1-0.2-0.2-0.4-0.2-0.6C18.4,18.9,18.9,18.4,19.4,18.4L19.4,18.4z M24.1,18.4c0.6,0,1,0.4,1,1
		c0,0.3-0.1,0.5-0.3,0.7c0,0,0,0,0,0c-0.4-0.6-0.9-1-1.5-1.2C23.4,18.6,23.7,18.4,24.1,18.4L24.1,18.4z M25.4,21.7
		c-0.1-0.4-0.2-0.7-0.3-1.1c0.3-0.3,0.6-0.7,0.6-1.2c0-0.9-0.7-1.5-1.5-1.5c-0.6,0-1.1,0.4-1.4,0.9c0,0-0.1,0-0.1,0
		c-0.6-0.1-1.2-0.1-1.8,0c-0.3-0.5-0.8-0.8-1.4-0.8c-0.9,0-1.5,0.7-1.5,1.5c0,0.4,0.2,0.8,0.5,1.1c-0.2,0.4-0.3,0.8-0.4,1.2
		c0,0.3,0,0.6,0,0.9c0.1,0.9,0.5,1.6,1.3,2c0.3,0.2,0.8,0.3,1.2,0.3c0.4,0.1,0.8,0.1,1.2,0.1c0.4,0,0.8,0,1.2-0.1
		c0.5-0.1,0.9-0.2,1.2-0.3c0.8-0.4,1.2-1.1,1.3-2C25.4,22.3,25.4,22,25.4,21.7L25.4,21.7z"/>
	<path class="st1" d="M20.5,21.3v-0.2c0-0.2-0.1-0.3-0.3-0.3c-0.2,0-0.3,0.1-0.3,0.3v0.2c0,0.2,0.1,0.3,0.3,0.3
		C20.4,21.6,20.5,21.5,20.5,21.3L20.5,21.3z"/>
	<path class="st1" d="M23.1,20.8c-0.2,0-0.3,0.1-0.3,0.3v0.2c0,0.1,0.1,0.3,0.3,0.3c0.2,0,0.3-0.1,0.3-0.3v-0.2
		C23.4,21,23.3,20.8,23.1,20.8L23.1,20.8z"/>
	<path class="st1" d="M22.4,23.3c-0.2,0.2-0.4,0.3-0.7,0.3c-0.3,0-0.5-0.1-0.7-0.3c-0.1-0.1-0.2-0.2-0.2-0.4c0-0.1,0-0.3,0.1-0.4
		c0.1-0.1,0.1-0.2,0.3-0.3c0.2,0.1,0.3,0.2,0.6,0.2c0,0,0,0,0,0c0,0,0,0,0,0c0.2,0,0.4-0.1,0.5-0.2c0.2,0.1,0.3,0.3,0.3,0.5
		C22.6,23,22.6,23.2,22.4,23.3L22.4,23.3z M21.3,21.6c0.2,0,0.4,0,0.4,0c0,0,0,0,0,0c0,0,0.2,0,0.4,0c0,0,0,0,0,0
		c-0.1,0.1-0.2,0.3-0.4,0.3C21.5,21.9,21.4,21.8,21.3,21.6C21.3,21.6,21.3,21.6,21.3,21.6L21.3,21.6z M22.6,21.8
		c0.1-0.1,0.1-0.3,0-0.4c-0.1-0.2-0.2-0.3-0.4-0.3c-0.2,0-0.5,0-0.5,0c-0.1,0-0.3,0-0.5,0c-0.2,0-0.3,0.1-0.4,0.3
		c-0.1,0.1-0.1,0.3,0,0.4c-0.2,0.2-0.3,0.3-0.4,0.5c-0.1,0.2-0.2,0.5-0.1,0.7c0,0.3,0.2,0.5,0.4,0.7c0.3,0.3,0.7,0.4,1.1,0.4
		c0,0,0,0,0,0c0.4,0,0.8-0.2,1.1-0.5c0.3-0.3,0.4-0.7,0.3-1.1C23,22.3,22.8,22.1,22.6,21.8L22.6,21.8z"/>
	<path class="st1" d="M22.2,22.7c-0.1-0.1-0.3-0.1-0.4,0c0,0-0.1,0.1-0.1,0.1c-0.1,0-0.1,0-0.1-0.1c-0.1-0.1-0.3-0.1-0.4,0
		c-0.1,0.1-0.1,0.3,0,0.4c0.1,0.2,0.3,0.3,0.6,0.3c0.2,0,0.4-0.1,0.6-0.3C22.4,23,22.3,22.8,22.2,22.7L22.2,22.7z"/>
</g>
</svg>
