<?xml version="1.0" encoding="utf-8"?>
<!-- Generator: Adobe Illustrator 22.0.1, SVG Export Plug-In . SVG Version: 6.00 Build 0)  -->
<svg version="1.1" id="Layer_1" xmlns="http://www.w3.org/2000/svg" xmlns:xlink="http://www.w3.org/1999/xlink" x="0px" y="0px"
	 viewBox="0 0 43.5 43.5" style="enable-background:new 0 0 43.5 43.5;" xml:space="preserve">
<style type="text/css">
	.st0{fill-rule:evenodd;clip-rule:evenodd;fill:#7D90EF;stroke:#FFFFFF;stroke-width:2;stroke-miterlimit:10;}
	.st1{fill-rule:evenodd;clip-rule:evenodd;fill:#FFFFFF;}
</style>
<circle class="st0" cx="21.8" cy="21.8" r="20.8"/>
<path class="st1" d="M21.6,12.7c-0.2,0.1-0.4,0.3-0.5,0.4c-1.2,1-2.9,1.8-4.5,2c-0.6,0-0.5,0.2-0.4,1.3c0,0.6,0.1,1.2,0.1,1.8
	c0,1.2,0.1,2.4,0.1,3.6c0,2.8,0.3,3.8,1.7,5.7c0.5,0.6,1.2,1.4,1.8,1.9l1,0.9c1,0.9,0.8,0.9,2.2-0.2c1.6-1.3,3.5-3,4.1-5.1
	c0.3-1.2,0.3-2,0.4-3.4c0-1.7,0.1-3.7,0.1-5.4c0-1.8,0-0.2-3.6-2c-0.4-0.2-1.3-0.8-1.7-1.1C22,12.8,21.8,12.6,21.6,12.7L21.6,12.7z
	 M14.4,11.5c-2.3,0.2-2.1,0-2.1,2.3c0.1,2.9,0.2,5.8,0.3,8.7c0,1.5,0.2,2.5,0.6,3.9c0.3,1,1,2.2,1.6,2.9c0.7,1,1.3,1.6,2.1,2.4
	c0.6,0.7,2.9,2.6,3.6,3.1c1.1,0.8,0.9,0.5,1.6,0.4c0.1-0.1,0.2-0.2,0.3-0.3c0.1-0.1,0.2-0.2,0.3-0.3c0.2-0.2,0.5-0.4,0.7-0.6
	c3-2.4,6.4-5.3,7.3-9.3c0.1-0.4,0-0.4,0.1-0.5c0-0.3,0.1-0.9,0.1-1.2c0-0.4,0-0.9,0-1.3c0-0.9,0.1-1.7,0.1-2.6
	c0-2.2,0.1-3.4-0.1-5.7c0-0.5,0-1.2-0.4-1.5c-0.4-0.3-2.5-0.6-3.1-0.7c-2-0.5-3.4-1.5-5.1-2.6c-1.1-0.7-1.5-0.2-2.5,0.6
	C18.2,10.4,17.1,11.3,14.4,11.5L14.4,11.5z M21.4,11c-0.6,0.2-1.5,1.2-2.6,1.8c-1.4,0.7-2.3,0.6-3.5,0.9c-0.8,0.2-0.6,0.7-0.6,1.6
	c0,0.7,0,1.4,0.1,2.1c0.1,1.4,0.1,2.9,0.1,4.3c0.1,2.8,0.3,4.5,2.2,6.7c0.2,0.2,0.3,0.4,0.5,0.6c0.2,0.2,0.4,0.4,0.6,0.6
	c0.5,0.5,1.7,1.6,2.3,2.1c1.2,1,1.3,0.8,2.8-0.3c2-1.7,4.2-3.4,5.1-6c0.4-1.3,0.4-2.5,0.5-4c0-1.4,0-2.9,0.1-4.4c0-0.7,0-1.5,0-2.2
	c0-1-0.3-0.9-1.1-1.1c-1.4-0.3-2.3-0.4-3.4-1C23.1,12,22.1,10.9,21.4,11L21.4,11z M18.3,18.7c0.4,0.3,1,0.5,1.5,1
	c0.4,0.5-0.1,1.4-0.3,2c-0.2,0.5-0.1,0.6,0.4,0.4c0.6-0.3,1.4-1.1,1.9-1.1c0.6,0,1.4,0.9,2,1.1c0.3,0.2,0.4,0.1,0.4-0.3
	c-0.1-0.6-0.9-1.6-0.4-2.2c0.2-0.3,0.6-0.5,0.9-0.7c0.2-0.1,0.3-0.2,0.5-0.3c0.5-0.3,0.6-0.5-0.1-0.6c-0.3,0-0.7,0-1.1,0
	c-1.1,0-1.3-0.2-1.6-1.1c-0.2-0.4-0.5-2.1-0.9-0.9c-0.2,0.6-0.4,1.6-0.9,1.8c-0.5,0.2-1.3,0.1-2,0.1C18.2,18.2,17.8,18.3,18.3,18.7
	L18.3,18.7z"/>
</svg>
