<?xml version="1.0" encoding="utf-8"?>
<!-- Generator: Adobe Illustrator 22.0.1, SVG Export Plug-In . SVG Version: 6.00 Build 0)  -->
<svg version="1.1" id="Layer_1" xmlns="http://www.w3.org/2000/svg" xmlns:xlink="http://www.w3.org/1999/xlink" x="0px" y="0px"
	 viewBox="0 0 43.5 43.5" style="enable-background:new 0 0 43.5 43.5;" xml:space="preserve">
<style type="text/css">
	.st0{fill-rule:evenodd;clip-rule:evenodd;fill:#0080C6;stroke:#FFFFFF;stroke-width:2;stroke-miterlimit:10;}
	.st1{fill-rule:evenodd;clip-rule:evenodd;fill:#FFFFFF;}
</style>
<circle class="st0" cx="21.8" cy="21.8" r="20.8"/>
<path class="st1" d="M28.9,16.5c-0.3-0.4-0.8-0.6-1.3-0.6H17.2c-0.3,0-0.6,0.1-0.8,0.2l-0.5-1.9c-0.1-0.3-0.4-0.5-0.7-0.5h-0.8h-1.5
	c-0.3,0-0.5,0.2-0.5,0.5v0.1c0,0.3,0.2,0.5,0.5,0.5h2l1,3.7l1.4,5.1c-0.8,0.2-1.4,0.9-1.4,1.8c0,1,0.8,1.8,1.7,1.9
	c-0.1,0.2-0.1,0.5-0.1,0.8c0.1,0.9,0.8,1.6,1.7,1.7c1.1,0.1,2-0.8,2-1.8c0-0.2,0-0.4-0.1-0.6h2.1c-0.1,0.2-0.1,0.5-0.1,0.8
	c0.1,0.9,0.8,1.5,1.7,1.6c1.1,0.1,2-0.8,2-1.8c0-1-0.8-1.8-1.9-1.8h-7.1c-0.3,0-0.6-0.3-0.7-0.6c0-0.4,0.3-0.7,0.6-0.7h1.1h5.8h1.6
	c0.7,0,1.4-0.5,1.5-1.2l1.4-5.7C29.3,17.4,29.2,16.9,28.9,16.5L28.9,16.5z M24.9,27.3c0.3,0,0.6,0.3,0.6,0.6c0,0.3-0.3,0.6-0.6,0.6
	c-0.3,0-0.6-0.3-0.6-0.6C24.3,27.6,24.6,27.3,24.9,27.3L24.9,27.3z M19.3,27.3c0.3,0,0.6,0.3,0.6,0.6c0,0.3-0.3,0.6-0.6,0.6
	c-0.3,0-0.6-0.3-0.6-0.6C18.7,27.6,19,27.3,19.3,27.3L19.3,27.3z M17.1,18.6l-0.3-1c0-0.1,0-0.3,0.1-0.3c0-0.1,0.1-0.1,0.3-0.1h1.1
	l0.3,1.4L17.1,18.6L17.1,18.6L17.1,18.6z M17.5,19.8h1.4l0.3,1.3h-1.4L17.5,19.8L17.5,19.8z M18.8,23.6c-0.2,0-0.3-0.1-0.3-0.3
	l-0.3-1h1.3l0.3,1.2L18.8,23.6L18.8,23.6L18.8,23.6z M21.9,23.6H21l-0.3-1.2h1.1L21.9,23.6L21.9,23.6L21.9,23.6z M21.9,21.1h-1.4
	l-0.3-1.3h1.7V21.1L21.9,21.1z M21.9,18.6h-2l-0.3-1.4h2.3V18.6L21.9,18.6z M24.1,23.6h-1v-1.2h1.2L24.1,23.6L24.1,23.6z M24.6,21.1
	h-1.5v-1.3h1.8L24.6,21.1L24.6,21.1z M23.1,18.6v-1.4h2.3l-0.3,1.4H23.1L23.1,18.6z M26.6,23.3c0,0.2-0.2,0.3-0.3,0.3h-0.9l0.3-1.2
	h1.3L26.6,23.3L26.6,23.3z M27.2,21.1h-1.3l0.3-1.3h1.4L27.2,21.1L27.2,21.1z M28,17.6l-0.2,1h-1.4l0.3-1.4h1c0.2,0,0.2,0.1,0.3,0.1
	C28,17.3,28.1,17.4,28,17.6L28,17.6z"/>
</svg>
