<?xml version="1.0" encoding="utf-8"?>
<!-- Generator: Adobe Illustrator 22.0.1, SVG Export Plug-In . SVG Version: 6.00 Build 0)  -->
<svg version="1.1" id="Layer_1" xmlns="http://www.w3.org/2000/svg" xmlns:xlink="http://www.w3.org/1999/xlink" x="0px" y="0px"
	 viewBox="0 0 43.5 43.5" style="enable-background:new 0 0 43.5 43.5;" xml:space="preserve">
<style type="text/css">
	.st0{fill-rule:evenodd;clip-rule:evenodd;fill:#485155;stroke:#FFFFFF;stroke-width:2;stroke-miterlimit:10;}
	.st1{fill-rule:evenodd;clip-rule:evenodd;fill:#FCFCFC;}
</style>
<circle class="st0" cx="21.8" cy="21.8" r="20.8"/>
<g>
	<path class="st1" d="M28.7,28.2c-0.7-1.7-1.3-3.3-1.8-5c0-0.1,0-0.2-0.1-0.3c-0.5-1.8-1-3.7-1.5-5.5c1.3-0.6,2.5-1.5,3.5-2.5
		c0.4-0.4,0.5-1,0.2-1.4c-0.7-1.1-1.4-2.3-2.1-3.4c-0.8-1.3-2.8-0.1-2,1.2c0.5,0.9,1.1,1.8,1.6,2.6c-0.9,0.8-1.9,1.4-3,1.7
		c-0.1,0-0.1,0-0.2,0.1c-0.3,0-0.6,0-0.8,0.1c-0.2,0.1-0.3,0.1-0.4,0.2c0,0,0,0,0,0c-2,0-3.8-0.7-5.4-1.8c-1.3-0.8-2.5,1.2-1.2,2
		c1.8,1.2,3.7,1.9,5.8,2c0,0,0,0.1,0,0.1c0.5,2,1.1,4,1.6,6v0c-1.4,1.1-2.8,2.4-4.4,3.3c-1.3,0.8-0.1,2.8,1.2,2
		c1.8-1.1,3.3-2.6,5-3.8c0.1-0.1,0.2-0.1,0.2-0.2c0.1,0,0.2,0,0.3,0c0.3,1,0.7,1.9,1.1,2.8c-1.1,1.2-2,2.4-2.8,3.8
		c-0.8,1.3,1.3,2.5,2,1.2c0.9-1.4,1.9-2.7,3-3.9c0.4-0.4,0.4-0.8,0.2-1.2C28.8,28.3,28.8,28.3,28.7,28.2L28.7,28.2z"/>
	<path class="st1" d="M24.2,12.7c0-1.2-1-2.1-2.1-2.1s-2.1,1-2.1,2.1c0,1.2,1,2.1,2.1,2.1S24.2,13.9,24.2,12.7L24.2,12.7z"/>
	<path class="st1" d="M18,12c0-1-0.8-1.8-1.8-1.8c-1,0-1.8,0.8-1.8,1.8c0,1,0.8,1.8,1.8,1.8C17.2,13.9,18,13.1,18,12L18,12z"/>
</g>
</svg>
