<?xml version="1.0" encoding="utf-8"?>
<!-- Generator: Adobe Illustrator 22.0.1, SVG Export Plug-In . SVG Version: 6.00 Build 0)  -->
<svg version="1.1" id="Layer_1" xmlns="http://www.w3.org/2000/svg" xmlns:xlink="http://www.w3.org/1999/xlink" x="0px" y="0px"
	 viewBox="0 0 43.5 43.5" style="enable-background:new 0 0 43.5 43.5;" xml:space="preserve">
<style type="text/css">
	.st0{fill-rule:evenodd;clip-rule:evenodd;fill:#9AD56A;stroke:#FFFFFF;stroke-width:2;stroke-miterlimit:10;}
	.st1{fill-rule:evenodd;clip-rule:evenodd;fill:#FFFFFF;}
</style>
<circle class="st0" cx="21.8" cy="21.8" r="20.8"/>
<g>
	<path class="st1" d="M22.3,12c1,0.3,1.2,1.2,1.4,2.4c0.3,1.5,0.7,2.9,0.7,4.4c0.5,0.5,0.9,0.9,1.4,1.2c0.6,0.3,1.4,0.5,2,0.6
		c0.8,0.1,1.7,0.1,2.5,0.3c0.7,0.2,1.1,0.5,1.4,1.1c0.3,0.5,0.4,1.3,0.1,1.8c-0.1,0.2-0.1,0.4-0.3,0.6c-0.8,1.6-1.5,2.9-2.6,4.3
		c-0.3,0.4-0.7,0.9-1.1,1.2c-3.4,3.3-8.1,1.7-8.8-3.4c0-0.4-0.1-0.7-0.1-1c0,0-0.1,0-0.1,0c-1.9-0.1-3.6-1.5-4.7-2.9
		c-0.3-0.4-0.6-0.8-0.9-1.3c-0.3-0.5-0.5-0.9-0.8-1.4c-0.4-0.9-1.2-2.7-1.1-3.7l0-0.1c0-0.4,0.1-0.9,0.3-1.2c0.7-1,1.8-0.9,2.8-0.8
		c0.3,0,0.5,0.1,0.8,0.1c0.7,0,1.1,0,1.7-0.2c0.5-0.2,1-0.5,1.5-0.8C19.9,12.4,20.8,11.6,22.3,12L22.3,12z M15,18.9
		c0.3-0.1,0.5-0.4,1.1-0.5c0.6-0.1,1.2,0.2,1.3,0.1c-0.1-0.3-0.8-0.8-1.4-0.7c-0.3,0.1-0.6,0.3-0.8,0.5C15.2,18.5,15,18.7,15,18.9
		L15,18.9z M19.2,18c0.1,0,0.3-0.3,0.5-0.4c0.4-0.4,0.7-0.5,1.3-0.6c0.2,0,0.8,0,0.3-0.2c-0.7-0.4-1.5-0.2-1.9,0.5
		C19.3,17.5,19.1,17.9,19.2,18L19.2,18z M20.6,19.8c-0.5,0.1-1,0.6-1.9,0.7c-0.3,0-1,0.1-1.2,0.2c-0.4,0.2,0.2,0.5,0.4,0.6
		c0.7,0.3,1.4,0.4,2-0.1C20.6,20.9,21.2,19.7,20.6,19.8L20.6,19.8z M24.4,23.2c-0.2-0.1-0.7,0.2-1.4,0c-0.5-0.2-0.9-0.6-1-0.6
		c0,0.4,0.5,1,1,1.1C23.6,23.9,24.3,23.5,24.4,23.2L24.4,23.2z M26.1,23.9c-0.1,0.2,0.1,1.5,1.3,1.5c0.3,0,0.7-0.1,0.8-0.3
		c-0.2-0.1-0.8,0-1.3-0.4c-0.2-0.1-0.3-0.2-0.4-0.4C26.4,24.2,26.2,23.9,26.1,23.9L26.1,23.9z M25.3,28.1c0.2-0.4-0.4-1.3-0.9-1.7
		c-0.6-0.4-1.5-0.3-2.1,0c-0.4,0.2-0.5,0.4,0.1,0.6c0.8,0.2,1.2,0.2,2,0.7C24.6,27.9,25.1,28.2,25.3,28.1L25.3,28.1z M19.5,14.5
		c-0.6,0.3-1.1,0.7-1.8,0.9c-0.8,0.3-1.5,0.4-2.4,0.3c-0.5,0-1.4-0.2-1.9-0.1c-0.4,0.1-0.4,0.5-0.3,0.8c0.1,0.7,0.7,2.2,1,2.7
		c0.2,0.5,0.4,0.9,0.7,1.3c0.2,0.4,0.5,0.8,0.8,1.1c0.8,1,2.1,2.2,3.5,2.3c0.4,0,1.2-0.2,1.5-0.3c0.1-1,0.7-3.2,1.2-4.1
		c0.4-0.6,0.7-0.5,1.1-0.3c0-0.1,0-0.1,0-0.2c0-1.4-0.4-2.9-0.7-4.3C21.7,12.7,20.9,13.7,19.5,14.5L19.5,14.5z M25.4,29.7
		c0.6-0.3,1.2-0.7,1.4-0.9c0.3-0.3,0.7-0.8,1-1.1c1.1-1.4,1.6-2.4,2.4-4.1c0.2-0.4,0.5-1-0.2-1.3c-0.6-0.2-1.6-0.2-2.3-0.2
		c-0.9-0.1-1.9-0.3-2.6-0.8c-0.3-0.2-0.9-0.6-1.1-0.8l-0.3-0.3c-1-1-1.4-1.6-2,0.2c-0.6,1.7-1.1,3.8-0.8,5.8c0.2,1.2,0.5,2.2,1.3,3
		l0.2,0.2c0.1,0.1,0.2,0.1,0.3,0.2C23.3,30,24.6,30.1,25.4,29.7L25.4,29.7z"/>
</g>
</svg>
