<?xml version="1.0" encoding="utf-8"?>
<!-- Generator: Adobe Illustrator 22.0.1, SVG Export Plug-In . SVG Version: 6.00 Build 0)  -->
<svg version="1.1" id="Layer_1" xmlns="http://www.w3.org/2000/svg" xmlns:xlink="http://www.w3.org/1999/xlink" x="0px" y="0px"
	 viewBox="0 0 43.5 43.5" style="enable-background:new 0 0 43.5 43.5;" xml:space="preserve">
<style type="text/css">
	.st0{fill-rule:evenodd;clip-rule:evenodd;fill:#FFA148;stroke:#FFFFFF;stroke-width:2;stroke-miterlimit:10;}
	.st1{fill-rule:evenodd;clip-rule:evenodd;fill:#FFFFFF;}
</style>
<circle class="st0" cx="21.8" cy="21.8" r="20.8"/>
<g>
	<path class="st1" d="M27.9,13.4h-4.4v-1.1h-3.3v1.1h-4.5v-1.1h-3.3v3.3h1.1v4.4h-1.1v3.3h1.1v4.5h-1.1v3.3h3.3v-1.1h4.5v1.1h3.3
		v-1.1h4.4v1.1h3.3v-3.3h-1.1v-4.5h1.1v-3.3h-1.1v-4.4h1.1v-3.3h-3.3V13.4L27.9,13.4z M29,20.1h-1.1v3.3H29v4.5h-1.1V29h-4.4v-1.1
		h-3.3V29h-4.5v-1.1h-1.1v-4.5h1.1v-3.3h-1.1v-4.4h1.1v-1.1h4.5v1.1h3.3v-1.1h4.4v1.1H29V20.1L29,20.1z"/>
	<polygon class="st1" points="16.8,21.2 17.9,21.2 17.9,20.1 20.1,20.1 20.1,25.7 19,25.7 19,26.8 24.5,26.8 24.5,25.7 23.4,25.7 
		23.4,20.1 25.7,20.1 25.7,21.2 26.8,21.2 26.8,16.8 16.8,16.8 16.8,21.2 	"/>
</g>
</svg>
