<?xml version="1.0" encoding="utf-8"?>
<!-- Generator: Adobe Illustrator 22.0.1, SVG Export Plug-In . SVG Version: 6.00 Build 0)  -->
<svg version="1.1" id="Layer_1" xmlns="http://www.w3.org/2000/svg" xmlns:xlink="http://www.w3.org/1999/xlink" x="0px" y="0px"
	 viewBox="0 0 58 47.4" style="enable-background:new 0 0 58 47.4;" xml:space="preserve">
<style type="text/css">
	.st0{fill:#71BF44;}
</style>
<path id="Shape" class="st0" d="M57,45.4h-2.9c0.6-0.8,1-1.9,1-2.9V7.7c0-2.7-2.2-4.8-4.8-4.8H27.5c0.3-0.6,0.3-1.3,0-1.9
	s-1-1-1.7-1H19c-0.5,0-1,0.2-1.4,0.6l-2.3,2.3H7.7c-2.7,0-4.8,2.2-4.8,4.8v7.6l-2.3,2.3C0.2,18,0,18.5,0,19v6.8c0,0.7,0.4,1.3,1,1.7
	c0.6,0.3,1.3,0.3,1.9,0v15c0,1,0.3,2.1,1,2.9H1c-0.5,0-1,0.4-1,1s0.4,1,1,1H57c0.5,0,1-0.4,1-1S57.6,45.4,57,45.4z M4.8,7.7
	c0-1.6,1.3-2.9,2.9-2.9h5.7l-8.6,8.6V7.7z M1.9,25.9V19L19,1.9h6.8C25.8,2,25.4,2.4,1.9,25.9z M21.3,45.4v-1c0-0.5-0.4-1-1-1
	s-1,0.4-1,1v1H7.7c-1.6,0-2.9-1.3-2.9-2.9V25.7l14.5-14.5v0.4c0,0.5,0.4,1,1,1s1-0.4,1-1c0-2.2,0-2-0.1-2.3l4.5-4.5h24.6
	c1.6,0,2.9,1.3,2.9,2.9v34.8c0,1.6-1.3,2.9-2.9,2.9H21.3z"/>
<path id="Shape_1_" class="st0" d="M20.3,14.5c-0.5,0-1,0.4-1,1v1.9c0,0.5,0.4,1,1,1s1-0.4,1-1v-1.9C21.3,14.9,20.8,14.5,20.3,14.5z
	"/>
<path id="Shape_2_" class="st0" d="M20.3,26.1c-0.5,0-1,0.4-1,1V29c0,0.5,0.4,1,1,1s1-0.4,1-1v-1.9C21.3,26.5,20.8,26.1,20.3,26.1z"
	/>
<path id="Shape_3_" class="st0" d="M20.3,31.9c-0.5,0-1,0.4-1,1v1.9c0,0.5,0.4,1,1,1s1-0.4,1-1v-1.9C21.3,32.3,20.8,31.9,20.3,31.9z
	"/>
<path id="Shape_4_" class="st0" d="M20.3,37.7c-0.5,0-1,0.4-1,1v1.9c0,0.5,0.4,1,1,1s1-0.4,1-1v-1.9C21.3,38.1,20.8,37.7,20.3,37.7z
	"/>
<path id="Shape_5_" class="st0" d="M20.3,20.3c-0.5,0-1,0.4-1,1v1.9c0,0.5,0.4,1,1,1s1-0.4,1-1v-1.9C21.3,20.7,20.8,20.3,20.3,20.3z
	"/>
<path id="Shape_6_" class="st0" d="M30.7,22c2,0,3.6-1.6,3.6-3.6s-1.6-3.6-3.6-3.6s-3.6,1.6-3.6,3.6S28.7,22,30.7,22z M30.7,16.7
	c0.9,0,1.7,0.8,1.7,1.7c0,0.9-0.8,1.7-1.7,1.7c-0.9,0-1.7-0.8-1.7-1.7C29,17.5,29.8,16.7,30.7,16.7z"/>
<path id="Shape_7_" class="st0" d="M44,30.7c-1.9,0-3.4,1.5-3.4,3.4s1.5,3.4,3.4,3.4s3.4-1.5,3.4-3.4S45.9,30.7,44,30.7z M44,35.5
	c-0.8,0-1.5-0.6-1.5-1.5s0.6-1.5,1.5-1.5s1.5,0.6,1.5,1.5S44.8,35.5,44,35.5z"/>
<path id="Shape_8_" class="st0" d="M28.1,36.8c0.6,0.5,1.4,0.7,2.1,0.7c0.8-0.1,1.5-0.4,2-1L46.7,19c0.8-0.9,0.9-2.2,0.4-3.2
	s-1.7-1.7-2.8-1.5c-0.8,0.1-1.5,0.4-1.9,1L27.8,32.7c-0.5,0.6-0.7,1.4-0.7,2.1S27.5,36.3,28.1,36.8L28.1,36.8z M29.2,33.9l14.5-17.4
	c0.2-0.3,0.6-0.4,0.9-0.3c0.3,0.1,0.6,0.3,0.7,0.6c0.1,0.3,0.1,0.7-0.2,1L30.7,35.2c-0.2,0.3-0.6,0.4-0.9,0.3
	c-0.3-0.1-0.6-0.3-0.7-0.6C28.9,34.5,29,34.2,29.2,33.9L29.2,33.9z"/>
</svg>
