<?xml version="1.0" encoding="utf-8"?>
<!-- Generator: Adobe Illustrator 22.0.1, SVG Export Plug-In . SVG Version: 6.00 Build 0)  -->
<svg version="1.1" id="Ñëîé_1" xmlns="http://www.w3.org/2000/svg" xmlns:xlink="http://www.w3.org/1999/xlink" x="0px" y="0px"
	 viewBox="0 0 74 88.7" style="enable-background:new 0 0 74 88.7;" xml:space="preserve">
<style type="text/css">
	.st0{fill:none;stroke:#FFFFFF;stroke-width:2;stroke-linecap:round;stroke-linejoin:round;stroke-miterlimit:10;}
</style>
<g>
	<path class="st0" d="M25,32.5L25,32.5L25,32.5L25,32.5L25,32.5z"/>
	<polygon class="st0" points="34,79.9 34,79.9 34,79.9 34,79.9 	"/>
	<path class="st0" d="M69.1,5.3h-7.6V2.9c0-1-0.8-1.9-1.9-1.9h-8.8c-1,0-1.9,0.8-1.9,1.9v2.4h-7.6c-2.2,0-3.9,1.8-3.9,3.9v38
		c0,2.2,1.8,3.9,3.9,3.9h27.8c2.2,0,3.9-1.8,3.9-3.9v-38C73,7,71.2,5.3,69.1,5.3z"/>
	<rect x="42.3" y="38.6" class="st0" width="25.7" height="7.4"/>
	<rect x="42.3" y="27.1" class="st0" width="25.7" height="7.4"/>
	<rect x="42.3" y="15.6" class="st0" width="25.7" height="7.4"/>
	<path class="st0" d="M33.3,21.7C15.4,22,1,36.7,1,54.7c0,18.2,14.8,33,33,33c17.9,0,32.4-14.2,33-32c-0.5,17.8-15.1,32-33,32
		c-18.2,0-33-14.8-33-33C1,36.7,15.4,22,33.3,21.7z"/>
	<path class="st0" d="M33.3,35.5c-2.3-0.3-4.1-2.1-4.5-4.3c-0.1-0.3-0.1-0.6-0.1-1c0-1.6-1.6-2.8-3.2-2.3
		C14.2,31.4,5.9,42.1,5.9,54.7c0,12.9,8.8,23.9,20.7,27.1c1.5,0.4,2.8-0.8,2.8-2.3v0c0-2.5,2.1-4.6,4.7-4.5c2.2,0.1,4.1,1.8,4.3,4
		c0,0.2,0,0.4,0,0.6c0,1.5,1.4,2.6,2.8,2.2C53,78.6,61.6,68.2,62.1,55.7C61.6,68.2,53,78.6,41.3,81.7c-1.4,0.4-2.9-0.7-2.8-2.2
		c0-0.2,0-0.4,0-0.6c-0.2-2.2-2.1-3.9-4.3-4c-2.6-0.1-4.7,2-4.7,4.5v0c0,1.5-1.4,2.7-2.8,2.3C14.7,78.5,5.9,67.6,5.9,54.7
		c0-12.6,8.3-23.2,19.7-26.8c1.6-0.5,3.2,0.7,3.2,2.3c0,0.3,0,0.6,0.1,1C29.2,33.4,31.1,35.2,33.3,35.5z"/>
	<path class="st0" d="M33.3,42.6C27,43,22,48.2,22,54.7c0,6.6,5.4,12,12,12c6.3,0,11.5-4.8,12-11c-0.5,6.2-5.7,11-12,11
		c-6.6,0-12-5.4-12-12C22,48.2,27,43,33.3,42.6z"/>
	<path class="st0" d="M33.3,46.8c-4,0.4-7.2,3.7-7.2,7.9c0,4.4,3.5,7.9,7.9,7.9c4,0,7.3-3,7.8-6.9c-0.5,3.9-3.8,6.9-7.8,6.9
		c-4.4,0-7.9-3.5-7.9-7.9C26.1,50.5,29.3,47.1,33.3,46.8z"/>
</g>
</svg>
