<?xml version="1.0" encoding="utf-8"?>
<!-- Generator: Adobe Illustrator 22.0.1, SVG Export Plug-In . SVG Version: 6.00 Build 0)  -->
<svg version="1.1" id="Ñëîé_1" xmlns="http://www.w3.org/2000/svg" xmlns:xlink="http://www.w3.org/1999/xlink" x="0px" y="0px"
	 viewBox="0 0 90 91" style="enable-background:new 0 0 90 91;" xml:space="preserve">
<style type="text/css">
	.st0{fill:none;stroke:#FFFFFF;stroke-width:2;stroke-linecap:round;stroke-linejoin:round;stroke-miterlimit:10;}
</style>
<g>
	<path class="st0" d="M29.6,37h4.3H29.6z M21.7,37H26H21.7z M35.1,79.9c-3,0-5.4-2.4-5.4-5.4c0-3,2.4-5.4,5.4-5.4
		c3,0,5.4,2.4,5.4,5.4C40.5,77.5,38.1,79.9,35.1,79.9z"/>
	<circle class="st0" cx="35.1" cy="74.5" r="0"/>
	<path class="st0" d="M67.9,1.1C67.9,1.1,67.9,1.1,67.9,1.1C67.9,1.1,67.9,1.1,67.9,1.1C67.9,1.1,67.9,1.1,67.9,1.1
		C67.9,1.1,67.9,1.1,67.9,1.1z"/>
	<path class="st0" d="M75.7,3.7C75.7,3.7,75.7,3.7,75.7,3.7C75.7,3.7,75.7,3.7,75.7,3.7C75.7,3.7,75.7,3.7,75.7,3.7
		C75.7,3.7,75.7,3.7,75.7,3.7z"/>
	<path class="st0" d="M82.2,9.1C82.2,9.1,82.2,9.1,82.2,9.1C82.2,9.1,82.2,9.1,82.2,9.1C82.2,9.1,82.2,9.1,82.2,9.1
		C82.2,9.1,82.2,9.1,82.2,9.1z"/>
	<path class="st0" d="M86.7,16C86.7,16,86.7,16,86.7,16C86.7,16,86.7,16,86.7,16C86.7,15.9,86.7,15.9,86.7,16
		C86.7,15.9,86.7,15.9,86.7,16z"/>
	<path class="st0" d="M88.3,22.8C88.3,22.8,88.3,22.8,88.3,22.8C88.3,22.8,88.3,22.8,88.3,22.8C88.2,22.8,88.3,22.8,88.3,22.8
		C88.3,22.8,88.3,22.8,88.3,22.8z"/>
	<path class="st0" d="M69.2,55c0,0.3,0,0.6,0,0.8C69.3,74.7,54,90,35.1,90C16.3,90,1,74.7,1,55.9c0-18.8,15.2-34.1,34-34.1
		C16.2,21.8,1,37.1,1,55.9C1,74.7,16.3,90,35.1,90C54,90,69.3,74.7,69.3,55.9C69.3,55.6,69.2,55.3,69.2,55z"/>
	<path class="st0" d="M35,41.6H22.7c-1.2,0-2.1,1-2.1,2.1v9.1c0,1.2,1,2.1,2.1,2.1h41.4c0,0.3,0,0.6,0,0.8c0,16-13,29-29,29
		s-29-13-29-29c0-16,13-29,28.9-29c-16,0.1-28.9,13-28.9,29c0,16,13,29,29,29s29-13,29-29c0-0.3,0-0.6,0-0.8H22.7
		c-1.2,0-2.1-1-2.1-2.1v-9.1c0-1.2,1-2.1,2.1-2.1H35z"/>
	<path class="st0" d="M62.1,1C49,2.1,38.7,13.4,39.4,27C40,39.7,50.3,50,63,50.6c13.5,0.7,24.8-9.5,26-22.5
		c-1.2,13.1-12.5,23.2-26,22.5C50.3,50,40,39.7,39.4,27C38.7,13.4,49,2.1,62.1,1z"/>
	<polygon class="st0" points="73.8,27.1 62.7,27.1 62.7,10.3 62.7,27.1 	"/>
</g>
</svg>
