<?xml version="1.0" encoding="utf-8"?>
<!-- Generator: Adobe Illustrator 22.0.1, SVG Export Plug-In . SVG Version: 6.00 Build 0)  -->
<svg version="1.1" id="Capa_1" xmlns="http://www.w3.org/2000/svg" xmlns:xlink="http://www.w3.org/1999/xlink" x="0px" y="0px"
	 viewBox="0 0 46 60" style="enable-background:new 0 0 46 60;" xml:space="preserve">
<style type="text/css">
	.st0{fill:#71BF44;}
</style>
<g>
	<path class="st0" d="M45,8C30.4,8,23.9,0.4,23.8,0.3c-0.4-0.5-1.2-0.5-1.5,0C22.2,0.4,15.7,8,1,8C0.4,8,0,8.4,0,9v19.1
		c0,10.4,4.7,20.3,12.5,26.5c3.2,2.5,6.6,4.3,10.2,5.4c0.1,0,0.2,0,0.3,0s0.2,0,0.3,0c3.6-1.1,7-2.9,10.2-5.4
		C41.3,48.4,46,38.5,46,28.1V9C46,8.4,45.6,8,45,8z M44,28.1c0,9.8-4.4,19.2-11.8,24.9c-2.9,2.3-6,3.9-9.2,4.9
		c-3.2-1-6.3-2.7-9.2-4.9C6.4,47.2,2,37.9,2,28.1V10c12.2-0.3,18.9-5.5,21-7.5c2.1,2,8.8,7.3,21,7.5V28.1z"/>
	<path class="st0" d="M22.4,8c-3,2-8.2,4.7-15.6,5.6c-0.5,0.1-0.9,0.5-0.9,1v13.5c0,8.6,3.8,16.8,10.3,21.8c2,1.6,4.2,2.8,6.4,3.7
		c0.1,0,0.2,0.1,0.4,0.1s0.2,0,0.4-0.1c2.2-0.9,4.4-2.1,6.4-3.7c6.4-5,10.3-13.2,10.3-21.8V14.6c0-0.5-0.4-0.9-0.9-1
		C31.7,12.7,26.6,10,23.6,8C23.2,7.8,22.8,7.8,22.4,8z M38,15.5v12.6c0,8-3.5,15.6-9.5,20.2c-1.8,1.4-3.6,2.5-5.5,3.3
		c-1.9-0.8-3.8-1.9-5.5-3.3C11.5,43.6,8,36.1,8,28.1V15.5c6.9-1,11.9-3.4,15-5.5C26.1,12,31.1,14.5,38,15.5z"/>
	<path class="st0" d="M13.7,29.3c-0.4-0.4-1-0.4-1.4,0s-0.4,1,0,1.4l8,8c0.2,0.2,0.4,0.3,0.7,0.3c0,0,0,0,0,0c0.3,0,0.5-0.1,0.7-0.3
		l14-16c0.4-0.4,0.3-1-0.1-1.4c-0.4-0.4-1-0.3-1.4,0.1L21,36.5L13.7,29.3z"/>
</g>
</svg>
