<?xml version="1.0" encoding="utf-8"?>
<!-- Generator: Adobe Illustrator 22.0.1, SVG Export Plug-In . SVG Version: 6.00 Build 0)  -->
<svg version="1.1" id="Ñëîé_1" xmlns="http://www.w3.org/2000/svg" xmlns:xlink="http://www.w3.org/1999/xlink" x="0px" y="0px"
	 viewBox="0 0 103 92.1" style="enable-background:new 0 0 103 92.1;" xml:space="preserve">
<style type="text/css">
	.st0{fill:none;stroke:#FFFFFF;stroke-width:2;stroke-linecap:round;stroke-linejoin:round;stroke-miterlimit:10;}
</style>
<g>
	<path class="st0" d="M51.4,23.8c-18.6,0-33.6,15.1-33.6,33.6c0,18.6,15.1,33.6,33.6,33.6C70,91.1,85.1,76,85.1,57.5
		C85.1,38.9,70,23.8,51.4,23.8z"/>
	<path class="st0" d="M59.6,31.3c-1.6-0.5-3.1,0.7-3.1,2.3v0c0,3-2.6,5.4-5.7,5.1c-2.3-0.3-4.1-2-4.4-4.3c-0.1-0.3-0.1-0.6-0.1-0.9
		c0-1.6-1.6-2.7-3.1-2.3C32.1,34.8,24,45.2,24,57.5c0,12.7,8.6,23.3,20.3,26.5c1.4,0.4,2.8-0.7,2.8-2.2v0c0-2.5,2.1-4.5,4.6-4.4
		c2.2,0.1,4,1.8,4.2,3.9c0,0.2,0,0.4,0,0.6c0,1.4,1.4,2.5,2.8,2.1c11.7-3.2,20.3-13.8,20.3-26.5C78.8,45.2,70.7,34.8,59.6,31.3z
		 M42.2,36.5L42.2,36.5L42.2,36.5L42.2,36.5L42.2,36.5z M60.6,36.5L60.6,36.5L60.6,36.5L60.6,36.5L60.6,36.5z M51.4,69.2
		c-6.5,0-11.8-5.3-11.8-11.8s5.3-11.8,11.8-11.8S63.2,51,63.2,57.5S57.9,69.2,51.4,69.2z"/>
	<polygon class="st0" points="51.9,82.5 51.9,82.5 51.9,82.5 51.9,82.5 	"/>
	<polygon class="st0" points="85.5,19.2 85.5,19.2 97.4,10.7 97.4,10.7 	"/>
	<polygon class="st0" points="87.4,26.2 87.4,26.2 102,27.4 102,27.4 	"/>
	<polygon class="st0" points="72.4,15.7 72.4,15.7 66.3,2.4 66.3,2.4 	"/>
	<polygon class="st0" points="79.7,15.1 79.7,15.1 83.6,1 83.6,1 	"/>
	<path class="st0" d="M69.7,22.7c2.2-3.2,6.6-4,9.8-1.8c3.2,2.2,4,6.6,1.8,9.8c2.2-3.2,1.4-7.6-1.8-9.8
		C76.3,18.7,71.9,19.5,69.7,22.7z"/>
	<path class="st0" d="M21.7,30.7c-2.2-3.2-1.4-7.6,1.8-9.8c3.2-2.2,7.6-1.4,9.8,1.8c-2.2-3.2-6.6-4-9.8-1.8
		C20.3,23.1,19.5,27.5,21.7,30.7z"/>
	<polygon class="st0" points="17.5,19.2 17.5,19.2 5.6,10.7 5.6,10.7 	"/>
	<polygon class="st0" points="15.6,26.2 15.6,26.2 1,27.4 1,27.4 	"/>
	<polygon class="st0" points="30.6,15.7 30.6,15.7 36.7,2.4 36.7,2.4 	"/>
	<polygon class="st0" points="23.3,15.1 23.3,15.1 19.4,1 19.4,1 	"/>
</g>
</svg>
