<?xml version="1.0" encoding="utf-8"?>
<!-- Generator: Adobe Illustrator 22.0.1, SVG Export Plug-In . SVG Version: 6.00 Build 0)  -->
<svg version="1.1" id="Layer_1" xmlns="http://www.w3.org/2000/svg" xmlns:xlink="http://www.w3.org/1999/xlink" x="0px" y="0px"
	 viewBox="0 0 93 78.4" style="enable-background:new 0 0 93 78.4;" xml:space="preserve">
<style type="text/css">
	.st0{fill:none;stroke:#71BF44;stroke-width:2.0001;stroke-linecap:round;stroke-linejoin:round;stroke-miterlimit:10;}
	.st1{fill-rule:evenodd;clip-rule:evenodd;fill:#71BF44;}
</style>
<path class="st0" d="M48.3,6.7c-3.5-1.1-7.2-1.7-11.1-1.7C17.2,4.9,1,21.1,1,41.1s16.2,36.2,36.2,36.2c18.5,0,33.7-13.8,35.9-31.6
	 M52.7,38c0,1.3-1,2.3-2.3,2.3 M50.4,40.2H24c-1.3,0-2.3-1-2.3-2.3v-9.7c0-1.3,1-2.3,2.3-2.3h17.3 M52.7,36.4V38 M37.2,67.9
	c-4.4,0-8-3.6-8-8c0-4.4,3.6-8,8-8c4.4,0,8,3.6,8,8C45.2,64.4,41.6,67.9,37.2,67.9L37.2,67.9z M22.7,21.1h3.9H22.7L22.7,21.1z
	 M31.1,21.1H35H31.1L31.1,21.1z M39.5,21.1h1.8H39.5L39.5,21.1z M41.1,10.6c-1.3-0.2-2.6-0.2-3.9-0.2c-17,0-30.8,13.8-30.8,30.8
	c0,17,13.8,30.8,30.8,30.8C53,71.9,66,60,67.8,44.7 M39.5,59.9c0,1.2-1,2.3-2.3,2.3c-1.2,0-2.3-1-2.3-2.3c0-1.2,1-2.3,2.3-2.3
	C38.5,57.7,39.5,58.7,39.5,59.9L39.5,59.9z"/>
<path class="st1" d="M48.1,10c-1.6,0-2.9,1.3-2.9,2.9v14.2c0,1.6,1.3,2.9,2.9,2.9h4.8V10H48.1L48.1,10z M50.9,28.1h-2.8
	c-0.5,0-1-0.4-1-1V12.9c0-0.5,0.4-1,1-1h2.8L50.9,28.1L50.9,28.1L50.9,28.1z"/>
<path class="st1" d="M72.8,0.3c-0.9-0.5-2.1-0.4-2.9,0.2l-14.6,10v19.1l14.6,9.9c0.5,0.4,1.1,0.5,1.6,0.5c0.4,0,0.9-0.1,1.3-0.3
	c0.9-0.5,1.5-1.4,1.5-2.5V2.8C74.3,1.7,73.8,0.8,72.8,0.3L72.8,0.3z M72.4,37.2c0,0.5-0.3,0.7-0.5,0.8c-0.1,0.1-0.5,0.2-0.9-0.1
	l-13.8-9.4v-17L71,2.1c0.4-0.3,0.8-0.1,0.9-0.1c0.1,0.1,0.5,0.3,0.5,0.8V37.2L72.4,37.2z"/>
<polygon class="st1" points="93,13.8 91.6,12.4 85.4,18.7 79.2,12.4 77.8,13.8 84,20 77.8,26.3 79.2,27.6 85.4,21.4 91.6,27.6 
	93,26.3 86.8,20 93,13.8 "/>
</svg>
