<?xml version="1.0" encoding="utf-8"?>
<!-- Generator: Adobe Illustrator 22.0.1, SVG Export Plug-In . SVG Version: 6.00 Build 0)  -->
<svg version="1.1" id="Capa_1" xmlns="http://www.w3.org/2000/svg" xmlns:xlink="http://www.w3.org/1999/xlink" x="0px" y="0px"
	 viewBox="0 0 48 54.2" style="enable-background:new 0 0 48 54.2;" xml:space="preserve">
<style type="text/css">
	.st0{fill:none;stroke:#71BF44;stroke-width:2;stroke-linecap:round;stroke-linejoin:round;stroke-miterlimit:10;}
</style>
<g>
	<path class="st0" d="M28.4,23.1c-1.2-1.2-2.8-1.9-4.5-1.8c-3.6,0.1-6.5,3.4-6.5,7.4v8.6c0,0.2,0.1,0.3,0.2,0.3h12.8
		c0.1,0,0.2-0.1,0.2-0.3v-8.7C30.6,26.5,29.8,24.5,28.4,23.1z"/>
	<path class="st0" d="M32,14.5c0,0.4-0.3,0.8-0.8,0.8H16.8c-0.4,0-0.8-0.3-0.8-0.8v-3.8c0-0.4,0.3-0.8,0.8-0.8h14.4
		c0.4,0,0.8,0.3,0.8,0.8V14.5z"/>
	<path class="st0" d="M26,26.8c0,1.1-0.9,2-2,2c-1.1,0-2-0.9-2-2s0.9-2,2-2C25.1,24.8,26,25.7,26,26.8z"/>
	<path class="st0" d="M1,44.5v8.7h46v-8.7H1z"/>
	<path class="st0" d="M15.4,33.9H6.3V19C6.3,9.2,14,1.1,23.8,1c9.9-0.1,17.9,7.8,17.9,17.7v15.2h-9.1h9.1V18.7
		c0-9.9-8-17.8-17.9-17.7C14,1.1,6.3,9.2,6.3,19v14.9H15.4z"/>
	<path class="st0" d="M14.1,9c2.2-3,5.8-5,9.7-5c3.3,0,6.5,1.2,8.9,3.6c0.5,0.5,0.9,1,1.3,1.5c-0.4-0.5-0.8-1-1.3-1.5
		c-2.4-2.3-5.5-3.6-8.9-3.6C19.8,4,16.3,6,14.1,9z"/>
	<path class="st0" d="M15.4,36.6H6.3v2.9c0,1.2,1,2.1,2.1,2.1h31.1c1.2,0,2.1-1,2.1-2.1v-2.9h-9.1h9.1v2.9c0,1.2-1,2.1-2.1,2.1H8.4
		c-1.2,0-2.1-1-2.1-2.1v-2.9H15.4z"/>
	<polygon class="st0" points="23,51.5 25.4,49 22.6,49 24.8,46.3 22.6,49 25.4,49 	"/>
</g>
</svg>
