<?xml version="1.0" encoding="utf-8"?>
<!-- Generator: Adobe Illustrator 22.0.1, SVG Export Plug-In . SVG Version: 6.00 Build 0)  -->
<svg version="1.1" id="Ñëîé_1" xmlns="http://www.w3.org/2000/svg" xmlns:xlink="http://www.w3.org/1999/xlink" x="0px" y="0px"
	 viewBox="0 0 88 88" style="enable-background:new 0 0 88 88;" xml:space="preserve">
<style type="text/css">
	.st0{fill:none;stroke:#71BF44;stroke-width:2;stroke-linecap:round;stroke-linejoin:round;stroke-miterlimit:10;}
</style>
<path class="st0" d="M49.3,38.5C38.9,28,21.9,28,11.5,38.5C1,48.9,1,65.9,11.5,76.3s27.4,10.5,37.9,0C59.8,65.9,59.8,48.9,49.3,38.5
	z"/>
<path class="st0" d="M46.5,41.3c-8.9-8.9-23.3-8.9-32.2,0c-8.9,8.9-8.9,23.3,0,32.2s23.3,8.9,32.2,0S55.4,50.2,46.5,41.3z
	 M42.2,48.2L44,50L42.2,48.2z M37.8,43.8l1.8,1.8L37.8,43.8z M33.4,39.4l1.8,1.8L33.4,39.4z M16.9,70.9c-1.8-1.8-1.8-4.7,0-6.4
	c1.8-1.8,4.7-1.8,6.4,0c1.8,1.8,1.8,4.7,0,6.4C21.5,72.7,18.6,72.7,16.9,70.9z M40.1,63.8c-0.7,0.7-1.7,0.7-2.4,0L24,50
	c-0.7-0.7-0.7-1.7,0-2.4l5.1-5.1c0.7-0.7,1.7-0.7,2.4,0l13.8,13.8c0.7,0.7,0.7,1.7,0,2.4L40.1,63.8z M46.5,52.6l1.8,1.8L46.5,52.6z"
	/>
<path class="st0" d="M20.8,67.1C20.8,67.1,20.8,67.1,20.8,67.1C20.7,67,20.7,67,20.8,67.1C20.8,66.9,20.8,66.9,20.8,67.1
	C20.9,67,20.9,67,20.8,67.1z"/>
<polygon class="st0" points="62.8,61.6 70.3,61.6 70.3,66.2 81.2,57.9 70.3,49.6 70.3,54.3 62.8,54.3 70.3,54.3 70.3,49.6 
	81.2,57.9 70.3,66.2 70.3,61.6 "/>
<polygon class="st0" points="26.4,25.2 26.4,17.7 21.7,17.7 30,6.9 38.3,17.7 33.7,17.7 33.7,25.2 33.7,17.7 38.3,17.7 30,6.9 
	21.7,17.7 26.4,17.7 "/>
<polyline class="st0" points="0.5,0.7 87.5,0.7 87.5,87 "/>
</svg>
