<?xml version="1.0" encoding="utf-8"?>
<!-- Generator: Adobe Illustrator 22.0.1, SVG Export Plug-In . SVG Version: 6.00 Build 0)  -->
<svg version="1.1" id="Ñëîé_1" xmlns="http://www.w3.org/2000/svg" xmlns:xlink="http://www.w3.org/1999/xlink" x="0px" y="0px"
	 viewBox="0 0 90 93.6" style="enable-background:new 0 0 90 93.6;" xml:space="preserve">
<style type="text/css">
	.st0{fill:none;stroke:#71BF44;stroke-width:2;stroke-linecap:round;stroke-linejoin:round;stroke-miterlimit:10;}
</style>
<g>
	<path class="st0" d="M28,38.6c-14.9,0-27,12.1-27,27c0,14.9,12.1,27,27,27s27-12.1,27-27C55.1,50.7,43,38.6,28,38.6z"/>
	<path class="st0" d="M34.6,44.6c-1.3-0.4-2.5,0.6-2.5,1.9v0c0,2.4-2.1,4.3-4.6,4.1c-1.8-0.2-3.3-1.6-3.6-3.4c0-0.3-0.1-0.5,0-0.8
		c0-1.3-1.3-2.2-2.5-1.8C12.5,47.4,6,55.7,6,65.6c0,10.2,6.9,18.7,16.3,21.3c1.1,0.3,2.2-0.6,2.2-1.8v0c0-2,1.7-3.6,3.7-3.5
		c1.7,0.1,3.2,1.4,3.4,3.2c0,0.2,0,0.3,0,0.5c0,1.2,1.1,2,2.2,1.7c9.4-2.5,16.3-11.1,16.3-21.3C50.1,55.7,43.6,47.4,34.6,44.6z
		 M20.7,48.8L20.7,48.8L20.7,48.8L20.7,48.8L20.7,48.8z M35.4,48.8L35.4,48.8L35.4,48.8L35.4,48.8L35.4,48.8z M28,75.1
		c-5.2,0-9.4-4.2-9.4-9.4s4.2-9.4,9.4-9.4s9.4,4.2,9.4,9.4S33.3,75.1,28,75.1z"/>
	<polygon class="st0" points="28,85.8 28,85.8 28,85.8 28,85.8 	"/>
	<polygon class="st0" points="23.3,34.9 23.3,15 17.3,15 28,1 38.8,15 32.8,15 32.8,34.9 32.8,15 38.8,15 28,1 17.3,15 23.3,15 	"/>
	<polygon class="st0" points="45.6,1 83,1 83,44.8 89,44.8 78.3,58.8 67.5,44.8 73.5,44.8 73.5,10.4 45.6,10.4 73.5,10.4 73.5,44.8 
		67.5,44.8 78.3,58.8 89,44.8 83,44.8 83,1 	"/>
</g>
</svg>
