<?xml version="1.0" encoding="utf-8"?>
<!-- Generator: Adobe Illustrator 22.0.1, SVG Export Plug-In . SVG Version: 6.00 Build 0)  -->
<svg version="1.1" id="Layer_1" xmlns="http://www.w3.org/2000/svg" xmlns:xlink="http://www.w3.org/1999/xlink" x="0px" y="0px"
	 viewBox="0 0 56 44.7" style="enable-background:new 0 0 56 44.7;" xml:space="preserve">
<style type="text/css">
	.st0{fill:#71BF44;}
</style>
<g transform="translate(1 1)">
	<g>
		<g>
			<path class="st0" d="M54.2,14.6l-8.1-8.9c-0.7-0.7-1.5-1-2.3-1h-9.3v-2c0-2-1.6-3.6-3.5-3.6H2.6C0.6-1-1,0.6-1,2.6v22.5V27v7.9
				c0,1.8,1.5,3.3,3.3,3.3h1.5c0.4,3.2,3.1,5.6,6.5,5.6s6-2.4,6.5-5.6h15.9h1.9h2.9c0.4,3.2,3.1,5.6,6.5,5.6s6-2.4,6.5-5.6h4.7H55
				V16.7C55,15.9,54.7,15.1,54.2,14.6z M52.7,15.8C53,16,53,16.3,53,16.6v2.9h-14v-9.3h8.5L52.7,15.8z M0.9,18.6h13
				c0.6,0,0.9-0.4,0.9-0.9c0-0.6-0.4-0.9-0.9-0.9h-13v-2.8h9.3c0.6,0,0.9-0.4,0.9-0.9c0-0.6-0.4-0.9-0.9-0.9H0.9V2.6
				c0-1,0.7-1.8,1.8-1.8h28.1c1,0,1.8,0.8,1.8,1.8v2v20.5H0.9V18.6z M10.2,41.9c-2.6,0-4.7-2-4.7-4.7c0-2.6,2-4.7,4.7-4.7
				c2.6,0,4.7,2,4.7,4.7C14.8,39.8,12.8,41.9,10.2,41.9z M32.5,36.3H16.6c-0.4-3-2.8-5.3-5.8-5.6c0,0,0,0-0.1,0c-0.1,0-0.2,0-0.2,0
				c-0.1,0-0.2,0-0.3,0s-0.2,0-0.3,0c-0.1,0-0.2,0-0.2,0c0,0,0,0-0.1,0c-3,0.3-5.4,2.6-5.8,5.6H2.3c-0.7,0-1.4-0.7-1.4-1.4V27h31.7
				V36.3z M43.7,41.9c-2.6,0-4.7-2-4.7-4.7c0-2.6,2-4.7,4.7-4.7c2.6,0,4.7,2,4.7,4.7C48.4,39.8,46.3,41.9,43.7,41.9z M50.2,36.3
				c-0.4-3-2.8-5.3-5.8-5.6c0,0,0,0-0.1,0c-0.1,0-0.2,0-0.2,0c-0.1,0-0.2,0-0.3,0s-0.2,0-0.3,0c-0.1,0-0.2,0-0.2,0c0,0,0,0-0.1,0
				c-3,0.3-5.4,2.6-5.8,5.6h-2.9V27v-1.9V6.5h9.3c0.3,0,0.7,0.2,0.9,0.4L46,8.3h-7.2c-0.8,0-1.6,0.7-1.6,1.6v9.9
				c0,0.8,0.7,1.6,1.6,1.6H53V26h-4.7c-0.6,0-0.9,0.4-0.9,0.9s0.4,0.9,0.9,0.9H53v8.4L50.2,36.3L50.2,36.3z"/>
			<path class="st0" d="M10.2,35.3c-1,0-1.9,0.8-1.9,1.9c0,1,0.8,1.9,1.9,1.9s1.9-0.8,1.9-1.9C12,36.2,11.2,35.3,10.2,35.3z"/>
			<path class="st0" d="M43.7,35.3c-1,0-1.9,0.8-1.9,1.9c0,1,0.8,1.9,1.9,1.9s1.9-0.8,1.9-1.9C45.6,36.2,44.8,35.3,43.7,35.3z"/>
		</g>
	</g>
</g>
</svg>
