<?xml version="1.0" encoding="utf-8"?>
<!-- Generator: Adobe Illustrator 22.1.0, SVG Export Plug-In . SVG Version: 6.00 Build 0)  -->
<svg version="1.1" id="Capa_1" xmlns="http://www.w3.org/2000/svg" xmlns:xlink="http://www.w3.org/1999/xlink" x="0px" y="0px"
	 viewBox="0 0 378.2 512" style="enable-background:new 0 0 378.2 512;" xml:space="preserve">
<g>
	<g>
		<path d="M360.7,151.3H17.5c-9.6,0-17.5,7.8-17.5,17.5v290.9C0,488.5,23.5,512,52.4,512h273.5c28.9,0,52.4-23.5,52.4-52.4V168.7
			C378.2,159.1,370.4,151.3,360.7,151.3z M343.3,459.6c0,9.6-7.8,17.5-17.5,17.5H52.4c-9.6,0-17.5-7.8-17.5-17.5V186.2h308.4V459.6z
			"/>
	</g>
</g>
<g>
	<g>
		<path d="M192,0C134.3,0,87.3,47,87.3,104.7v145.5c0,9.6,7.8,17.5,17.5,17.5s17.5-7.8,17.5-17.5V104.7c0-38.5,31.3-69.8,69.8-69.8
			s69.8,31.3,69.8,69.8v145.5c0,9.6,7.8,17.5,17.5,17.5s17.5-7.8,17.5-17.5V104.7C296.7,47,249.7,0,192,0z"/>
	</g>
</g>
</svg>
