<?xml version="1.0" encoding="utf-8"?>
<!-- Generator: Adobe Illustrator 22.1.0, SVG Export Plug-In . SVG Version: 6.00 Build 0)  -->
<svg version="1.1" xmlns="http://www.w3.org/2000/svg" xmlns:xlink="http://www.w3.org/1999/xlink" x="0px" y="0px"
	 viewBox="0 0 400 248.2" style="enable-background:new 0 0 400 248.2;" xml:space="preserve" fill="#fff">
	<path d="M17.3,141.4h323.6l-77.2,77.2c-6.8,6.8-6.8,17.7,0,24.5c6.8,6.8,17.7,6.8,24.5,0l106.8-106.8c6.8-6.8,6.8-17.7,0-24.5
		L288.2,5.1c-3.4-3.4-7.8-5.1-12.2-5.1c-4.4,0-8.9,1.7-12.2,5.1c-6.8,6.8-6.8,17.7,0,24.5l77.2,77.2H17.3c-9.6,0-17.3,7.8-17.3,17.3
		C0,133.7,7.8,141.4,17.3,141.4z"/>
</svg>
