<?xml version="1.0" encoding="utf-8"?>
<!-- Generator: Adobe Illustrator 22.1.0, SVG Export Plug-In . SVG Version: 6.00 Build 0)  -->
<svg version="1.1" id="Capa_1" xmlns="http://www.w3.org/2000/svg" xmlns:xlink="http://www.w3.org/1999/xlink" x="0px" y="0px"
	 viewBox="0 0 180 214.3" style="enable-background:new 0 0 180 214.3;" xml:space="preserve">
   <linearGradient id="gradient" x1="0%" y1="0%" x2="0%" y2="100%">
      <stop offset="0" stop-color="#f10001"></stop>
      <stop offset="100%" stop-color="#8a0303"></stop>
    </linearGradient>
  <g fill="url(#gradient)">
  	<path d="M179.8,55.2c-0.1-5.8-0.2-11.3-0.2-16.5c0-4.1-3.4-7.5-7.5-7.5c-32.1,0-56.5-9.2-76.9-29c-2.9-2.8-7.5-2.8-10.5,0
  		c-20.4,19.8-44.8,29-76.8,29c-4.1,0-7.5,3.4-7.5,7.5c0,5.3-0.1,10.8-0.2,16.5c-1,53.8-2.4,127.6,87.3,158.7
  		c0.8,0.3,1.6,0.4,2.5,0.4s1.7-0.1,2.5-0.4C182.2,182.7,180.8,109,179.8,55.2z M90,198.8c-77-28-75.8-89.2-74.8-143.4
  		c0.1-3.2,0.1-6.4,0.2-9.5c30-1.3,54.1-10.4,74.6-28.3c20.6,17.9,44.6,27,74.6,28.3c0,3.1,0.1,6.2,0.2,9.5
  		C165.8,109.6,167,170.8,90,198.8z"/>
  	<path d="M115.8,81.1l-36.2,36.2l-15.4-15.4c-2.9-2.9-7.7-2.9-10.6,0c-2.9,2.9-2.9,7.7,0,10.6l20.8,20.7c1.5,1.5,3.4,2.2,5.3,2.2
  		s3.8-0.7,5.3-2.2l41.5-41.5c2.9-2.9,2.9-7.7,0-10.6C123.5,78.2,118.8,78.2,115.8,81.1z"/>
  </g>
</svg>
