<?xml version="1.0" encoding="utf-8"?><svg xmlns="http://www.w3.org/2000/svg" xmlns:xlink="http://www.w3.org/1999/xlink"><symbol viewBox="0 0 20 13.4" id="form-mail" xmlns="http://www.w3.org/2000/svg"><path d="M20 1c0-.3-.1-.5-.3-.7-.1-.2-.4-.3-.6-.3H.9C.7 0 .4.1.3.3.1.5 0 .8 0 1v11.4c0 .5.4 1 .9 1h18.2c.2 0 .5-.1.6-.3.2-.2.3-.4.3-.7V1zm-1.9 0L10 7.2 1.9 1h16.2zm-4.7 7.2l4.8 4.1H1.8l4.9-4.2c.2-.2.2-.5.1-.7-.2-.1-.5-.1-.7 0L.9 11.8V1.4l8.8 6.8c.1.1.2.1.3.1s.2 0 .3-.1l8.8-6.8v10.4l-5.2-4.4c-.2-.2-.5-.1-.6.1-.2.3-.1.6.1.7z"/></symbol><symbol viewBox="0 0 355 261.7" id="form-msg" xmlns="http://www.w3.org/2000/svg"><path d="M317.1 0H37.9C17 0 0 17 0 37.9v153.3C0 212 17 229 37.9 229h17.4l-5.9 23.3c-.7 2.8.3 5.8 2.5 7.6 1.4 1.1 3.1 1.7 4.8 1.7 1.1 0 2.1-.2 3.2-.7l69-32h188.3c20.9 0 37.9-17 37.9-37.9V37.9C355 17 338 0 317.1 0zM340 191.1c0 12.6-10.3 22.9-22.9 22.9h-190c-1.1 0-2.2.2-3.2.7l-56.2 26 4.4-17.4c.6-2.2.1-4.6-1.3-6.5S67.3 214 65 214H37.9C25.3 214 15 203.7 15 191.1V37.9C15 25.3 25.3 15 37.9 15h279.3c12.6 0 22.9 10.3 22.9 22.9v153.2h-.1z"/><path d="M281.6 57.3H76c-3.5 0-6.4 3.4-6.4 7.5s2.9 7.5 6.4 7.5h205.6c3.5 0 6.4-3.4 6.4-7.5s-2.9-7.5-6.4-7.5zm0 50.9H76c-3.5 0-6.4 3.4-6.4 7.5s2.9 7.5 6.4 7.5h205.6c3.5 0 6.4-3.4 6.4-7.5s-2.9-7.5-6.4-7.5zm0 50.8H76c-3.5 0-6.4 3.4-6.4 7.5s2.9 7.5 6.4 7.5h205.6c3.5 0 6.4-3.4 6.4-7.5s-2.9-7.5-6.4-7.5z"/></symbol><symbol viewBox="0 0 25.7 36.9" id="form-phone" xmlns="http://www.w3.org/2000/svg"><path d="M4.5.4l-1.1.7C2 1.8 1 3.2.5 5.1c-1.3 4.6.2 11.6 4 18.4C9.9 33.3 18 38.9 22.9 36.2l1.1-.6c.8-.5 1.4-1.2 1.7-2.1.3-.9.2-1.9-.3-2.7l-2.5-4.4c-.9-1.7-3.1-2.3-4.8-1.4l-1.1.6c-1.2.7-3.5-.5-6.3-5.5-2.4-4.3-2.3-6.4-2.1-7.3.1-.5.4-.8.7-1l1.1-.6c1.7-.9 2.3-3.2 1.4-4.8L9.3 1.8C8.8 1 8.1.4 7.2.1 6.3-.1 5.3 0 4.5.4zm3 2.4L10 7.3c.4.7.1 1.7-.6 2.1l-1.1.6c-.8.5-1.4 1.2-1.7 2.2-.6 2.1.2 5 2.3 8.8 4.3 7.8 7.7 7 9 6.3l1.1-.6c.7-.4 1.7-.1 2.1.6l2.5 4.4c.4.7.1 1.7-.6 2.1l-1.1.6C18.2 36.5 11 31 6.3 22.4c-3.6-6.2-5-12.8-3.9-16.8.4-1.3 1-2.3 1.9-2.8l1.1-.6c.4-.2.8-.2 1.2-.1.4.1.7.4.9.7z"/></symbol><symbol viewBox="0 0 612 612" id="form-user" xmlns="http://www.w3.org/2000/svg"><path d="M612 306C612 137.4 474.6 0 306 0S0 137.4 0 306c0 92.9 42.1 176.4 107.7 232.6.8.8 1.6 1.6 3.1 2.3 53.1 44.5 121 71.1 196 71.1 73.4 0 141.3-26.5 194.4-69.5 3.1-.8 5.5-3.1 7-5.5C571.5 480.1 612 398.1 612 306zm-583.9 0C28.1 153 153 28.1 306 28.1S584 153 584 306c0 75-29.6 142.8-78.1 192.8-7.8-36.7-31.2-99.2-103.1-139.7 16.4-20.3 25.7-46.8 25.7-75 0-67.1-54.6-121.8-121.8-121.8S185 217.1 185 284.2c0 28.1 10.1 53.8 25.7 75-72.5 40.5-95.9 103-102.9 139.7C58.5 449.7 28.1 381 28.1 306zm184.3-21.1c0-51.5 42.1-93.7 93.7-93.7s93.7 42.1 93.7 93.7-42.1 93.7-93.7 93.7-93.7-42.1-93.7-93.7zM132.7 523c1.6-22.6 14-99.2 98.4-142.1 21.1 16.4 46.8 25.7 75 25.7s54.6-10.1 75.8-26.5c83.6 42.9 96.8 117.9 99.2 142.1-47.6 38.2-108.5 61.7-174.1 61.7-66.5.1-126.7-22.6-174.3-60.9z"/></symbol><symbol viewBox="0 0 344.1 471.9" id="icon-contact-1" xmlns="http://www.w3.org/2000/svg"><path d="M172.1 0C77.2 0 0 77.2 0 172.1c0 37 11.5 72.2 33.4 101.9l130.4 193.5c1.9 2.8 5 4.4 8.3 4.4 3.3 0 6.5-1.7 8.3-4.4L310.8 274c21.8-29.7 33.4-64.9 33.4-101.9C344.1 77.2 266.9 0 172.1 0zm122.3 262.3c-.1.2-.2.3-.4.5L172 443.9 50 262.8c-.1-.2-.3-.4-.4-.6C30.2 235.9 20 204.8 20 172 20 88.2 88.2 20 172 20s152 68.2 152 152c.1 32.8-10.2 64-29.6 90.3z"/><path d="M242.3 161c-5.5 0-10 4.5-10 10 0 33.2-27 60.2-60.2 60.2s-60.2-27-60.2-60.2 27-60.2 60.2-60.2c12.1 0 23.7 3.6 33.6 10.3a9.99 9.99 0 0013.9-2.7 9.99 9.99 0 00-2.7-13.9c-13.3-9-28.8-13.7-44.9-13.7-44.2 0-80.2 36-80.2 80.2s36 80.2 80.2 80.2 80.2-36 80.2-80.2c.1-5.5-4.4-10-9.9-10z"/><path d="M234.2 128h-.2c-5.5 0-10 4.5-10 10s4.5 10 10 10h.2c5.5 0 10-4.5 10-10 .1-5.5-4.4-10-10-10z"/></symbol><symbol viewBox="0 0 20 13.4" id="icon-contact-2" xmlns="http://www.w3.org/2000/svg"><path d="M20 1c0-.3-.1-.5-.3-.7-.1-.2-.4-.3-.6-.3H.9C.7 0 .4.1.3.3.1.5 0 .8 0 1v11.4c0 .5.4 1 .9 1h18.2c.2 0 .5-.1.6-.3.2-.2.3-.4.3-.7V1zm-1.9 0L10 7.2 1.9 1h16.2zm-4.7 7.2l4.8 4.1H1.8l4.9-4.2c.2-.2.2-.5.1-.7-.2-.1-.5-.1-.7 0L.9 11.8V1.4l8.8 6.8c.1.1.2.1.3.1s.2 0 .3-.1l8.8-6.8v10.4l-5.2-4.4c-.2-.2-.5-.1-.6.1-.2.3-.1.6.1.7z"/></symbol><symbol viewBox="0 0 48.2 27.7" id="icon-contact-3" xmlns="http://www.w3.org/2000/svg"><path class="gst0" d="M.5 4.2C.1 3.1-.5 2 .8 1.4c2.5 0 5-.1 7.5-.1 1.1 0 1.6.8 2.2 1.9 1.7 3.2 3.4 6.5 5.5 9.4.7 1 1.8 1.3 2.8-.2.1-2.1.2-4.2.3-6.2-.3-2.4-1.2-3.9-2.7-4-.8-.8-.2-1.5 1.7-1.9 3-.6 5.6-.4 7.9-.1 1.9.1 2.2 1.4 2.2 2.9-.1 2.9-.2 5.7-.2 8.5.6 2.8 2.1 1.7 3.1.5 1.8-2.6 3.4-5.1 4.7-7.9 1.4-2.9 1.7-2.7 2.7-2.7 2.3 0 4.8-.1 6.6-.1 3.8-.2 3.4 1.5 2.3 3.3-1.9 3.1-4.2 5.9-6.4 8.9-1.3 1.7-1.3 2.8.1 3.8 2 2.2 4.2 4.3 6 6.7 2 2.6.5 3.3-1.3 3.5h-6.7c-1.9 0-3.6-.4-4.8-2.5-2.8-3.7-4.9-4.7-5.7-2.6-.4.9-.7 2.1-.7 3.3 0 1.7-1 1.8-2.4 1.8-1.5 0-3 .4-4.4 0-5-1.3-9.8-3.6-14.5-11.7-1.9-3.5-4-7.3-6.1-11.7z"/></symbol><symbol viewBox="0 0 318.2 512" id="icon-contact-4" xmlns="http://www.w3.org/2000/svg"><path d="M268.1 0h-218C22.5 0 0 22.5 0 50.1v411.7C0 489.5 22.5 512 50.1 512H268c27.6 0 50.1-22.5 50.1-50.1V50.1c.1-27.6-22.4-50.1-50-50.1zm29.7 461.9c0 16.4-13.3 29.7-29.7 29.7h-218c-16.4 0-29.7-13.3-29.7-29.7V409h277.4v52.9zm0-73.3H20.4V87.7h277.4v300.9zm0-321.3H20.4V50.1c0-16.4 13.3-29.7 29.7-29.7H268c16.4 0 29.7 13.3 29.7 29.7l.1 17.2z"/><path d="M159.1 416.1c-18.6 0-33.7 15.1-33.7 33.7s15.1 33.7 33.7 33.7 33.7-15.1 33.7-33.7-15.1-33.7-33.7-33.7zm0 46.9c-7.3 0-13.3-5.9-13.3-13.3s5.9-13.3 13.3-13.3 13.3 5.9 13.3 13.3-6 13.3-13.3 13.3zm33.7-429.3h-67.3c-5.6 0-10.2 4.6-10.2 10.2s4.6 10.2 10.2 10.2h67.3c5.6 0 10.2-4.6 10.2-10.2s-4.6-10.2-10.2-10.2zm73.4 0h-5.1c-5.6 0-10.2 4.6-10.2 10.2s4.6 10.2 10.2 10.2h5.1c5.6 0 10.2-4.6 10.2-10.2s-4.6-10.2-10.2-10.2z"/></symbol><symbol id="icon-contact-5" viewBox="0 0 464.8 516" xml:space="preserve" xmlns="http://www.w3.org/2000/svg"><style>.ist0{stroke:#000;stroke-width:4;stroke-miterlimit:10}</style><path class="ist0" d="M411.6 55.7c-3.1-3.2-8.2-3.2-11.3-.1-3.2 3.1-3.2 8.2-.1 11.3 30 30.7 46.6 71.2 46.6 114.1v77c0 89.9-73.1 163-163 163h-94.1c-2.1 0-4.2.8-5.7 2.3l-63.3 63.3v-71.9c0-3.2-1.9-6.1-4.8-7.3C56.4 381.5 18 322.9 18 258v-77C18 91.1 91.1 18 181 18h102.6c32 0 63 9.3 89.7 26.8 3.7 2.4 8.7 1.4 11.1-2.3 2.4-3.7 1.4-8.7-2.3-11.1C352.9 12.2 318.9 2 283.7 2H181.1C82.3 2 2 82.3 2 181.1v77c0 69.4 40.1 132.4 102.6 162V506c0 7 8.7 10.6 13.7 5.7l74.6-74.6h90.8c98.7 0 179.1-80.3 179.1-179.1v-77c0-47.1-18.2-91.6-51.2-125.3z"/><path class="ist0" d="M361 320.3l-7.7-41.7c-.6-3.2-3.1-5.8-6.3-6.4l-60.5-12.1c-2.6-.5-5.3.3-7.2 2.2l-24.8 24.8c-41.8-18.7-65-41.9-85.3-85.5l24.8-24.8c1.9-1.9 2.7-4.6 2.2-7.2l-12.1-60.5c-.6-3.2-3.2-5.7-6.4-6.3L136 95.1c-1.1-.2-2.2-.2-3.2.1-10.9 2.5-20.8 8-28.8 15.9-13.7 13.7-18.9 33.7-15.1 57.9 1.7 11 4.3 22.4 7.7 33.9 1.2 4.3 5.7 6.7 9.9 5.5 4.3-1.2 6.7-5.7 5.5-9.9-3.2-10.8-5.6-21.6-7.2-31.9-3-19.2.6-34 10.6-44.1 5.4-5.4 12.1-9.3 19.4-11.2l34.6 6.4 10.2 50.9-25.7 25.7c-2.3 2.4-3 5.9-1.7 8.9 23.3 52.2 50.7 79.6 101 100.9 3 1.3 6.5.6 8.8-1.7l25.7-25.7 50.9 10.2 6.4 34.6c-2 7.3-5.8 14-11.2 19.4-10.1 10.1-24.9 13.6-44.1 10.6-38.3-6-91.5-24.6-125.8-58.8l-.5-.5c-15.8-15.8-29.8-37.6-40.6-63.1-1.7-4.1-6.4-6-10.5-4.2-4.1 1.7-6 6.4-4.2 10.5 11.6 27.3 26.8 50.9 44.1 68.2l.5.5c37 36.8 93.8 56.8 134.6 63.3 5.1.8 10.1 1.2 14.8 1.2 17.6 0 32.3-5.5 43.1-16.3 7.9-7.9 13.4-17.9 15.9-28.8 0-1 .1-2.1-.1-3.2zM249.5 147.4c-4.4 0-8 3.6-8 8s3.6 8 8 8c19.2 0 34.7 15.6 34.7 34.7 0 4.4 3.6 8 8 8s8-3.6 8-8c.1-27.9-22.7-50.7-50.7-50.7z"/><path class="ist0" d="M249.5 113.2c-3.1 0-6.3.2-9.4.5-4.4.5-7.6 4.4-7.1 8.8s4.4 7.6 8.8 7.1c2.5-.3 5.1-.4 7.7-.4 38 0 69 30.9 69 69 0 2.6-.1 5.1-.4 7.7-.5 4.4 2.7 8.4 7.1 8.9 4.3.5 8.4-2.7 8.8-7.1.3-3.1.5-6.3.5-9.4 0-47-38.2-85.1-85-85.1z"/><path class="ist0" d="M249.5 79c-3 0-6.1.1-9.2.3-4.4.3-7.7 4.2-7.4 8.6s4.2 7.7 8.6 7.4c2.6-.2 5.3-.3 7.9-.3 56.9 0 103.2 46.3 103.2 103.2 0 8-.9 16.1-2.8 23.8-1 4.2 1.6 8.5 5.8 9.6 4.3 1.1 8.8-1.6 9.8-5.9 2.1-9 3.2-18.2 3.2-27.5.1-65.8-53.4-119.2-119.1-119.2z"/></symbol><symbol viewBox="0 0 320.8 320.8" id="icon-contact-6" xmlns="http://www.w3.org/2000/svg"><path d="M207.2 113.6c-4.4-4.4-11.6-4.4-16 0l-21.3 21.3c-2.9-1.1-6.1-1.7-9.4-1.7-3.3 0-6.5.6-9.4 1.7l-43.8-43.8c-4.4-4.4-11.6-4.4-16 0s-4.4 11.6 0 16l43.8 43.8c-1.1 2.9-1.7 6.1-1.7 9.4 0 15 12.2 27.2 27.2 27.2s27.2-12.2 27.2-27.2c0-3.3-.6-6.5-1.7-9.4l21.3-21.3c4.2-4.3 4.2-11.5-.2-16zm-46.8 53.6a6.7 6.7 0 116.7-6.7c.1 3.6-3 6.7-6.7 6.7z"/><path d="M160.4 0C72 0 0 72 0 160.4s72 160.4 160.4 160.4 160.4-72 160.4-160.4S248.9 0 160.4 0zm106.7 251l-7.7-7.7c-4.4-4.4-11.6-4.4-16 0s-4.4 11.6 0 16l7.7 7.7c-21.7 18.5-49.2 30.5-79.2 32.9V289c0-6.3-5.1-11.3-11.3-11.3s-11.3 5.1-11.3 11.3v11c-30.1-2.4-57.5-14.4-79.2-32.9l7.7-7.7c4.4-4.4 4.4-11.6 0-16s-11.6-4.4-16 0l-7.7 7.7c-18.5-21.7-30.5-49.2-32.9-79.2h10.9c6.3 0 11.3-5.1 11.3-11.3s-5.1-11.3-11.3-11.3H20.9c2.4-30.1 14.4-57.5 32.9-79.2l7.7 7.7c2.2 2.2 5.1 3.3 8 3.3s5.8-1.1 8-3.3c4.4-4.4 4.4-11.6 0-16l-7.7-7.7C91.5 35.6 119 23.6 149 21.2v10.9c0 6.3 5.1 11.3 11.3 11.3 6.3 0 11.3-5.1 11.3-11.3V20.9c30.1 2.4 57.5 14.4 79.2 32.9l-7.7 7.7c-4.4 4.4-4.4 11.6 0 16 2.2 2.2 5.1 3.3 8 3.3s5.8-1.1 8-3.3l7.7-7.7c18.5 21.7 30.5 49.2 32.9 79.2H289c-6.3 0-11.3 5.1-11.3 11.3s5.1 11.3 11.3 11.3h11c-2.5 30.3-14.5 57.7-32.9 79.4z"/></symbol><symbol viewBox="0 0 270.4 98.1" id="iconSheer"><path d="M175.1 51.8c.2 1.2.3 2.1.5 3 2 8.4 8.6 14 17.2 14.7 7.6.6 13.6-2.3 18-8.5 2.2-3 5.7-3.5 8.5-1.1 1.6 1.4 1.8 3.2.5 4.9-.7.9-1.4 1.8-2.1 2.8-2.9 4-6.7 6.7-11.4 8.3-7.6 2.6-15.2 3-22.7.2-10.1-3.7-16.1-11.1-17.8-21.7-1-6.5-.4-13 2.6-18.9 4.3-8.4 11.1-13.6 20.5-15.1 6.2-1 12.4-.4 18.2 2.4 8.2 3.9 13.2 10.5 15.1 19.3.5 2.4.7 4.9.9 7.3.2 1.5-.5 2.2-2.1 2.3h-44.1c-.4.1-.9.1-1.8.1zm38.3-9.2c-1.2-7.9-10.7-14.7-19.4-14.2-9.1.5-18.2 7.5-18.5 14.2h37.9zm-101 9c.1.8.2 1.4.3 2 1.7 9.3 9.3 15.7 18.7 15.9 7.1.1 12.7-2.8 16.8-8.6 2.2-3.1 6.1-3.4 8.8-.7 1.3 1.4 1.5 3 .3 4.6-.5.8-1.1 1.5-1.7 2.2-3.1 4.5-7.3 7.4-12.5 9.1-7.6 2.5-15.2 2.7-22.5-.2-10.6-4.1-16.4-12.1-17.6-23.3-.6-5.4-.1-10.7 2.2-15.6 4.3-9.4 11.4-15.2 21.8-16.6 5.5-.7 11-.3 16.1 1.8 9.2 3.8 14.6 10.9 16.6 20.6.4 2.2.6 4.5.7 6.7.1 1.8-.3 2.2-2.2 2.2h-43.5c-.7-.1-1.4-.1-2.3-.1zm38.4-9.1c-1.2-7.8-10.4-14.4-19.4-14.2-8.8.2-17.9 7.2-18.6 14.2h38zm101 13.5c.7.6 1.1 1 1.5 1.4 4.9 4.2 9.8 8.3 14.6 12.5.3.3.7.6 1 .9 1.8 1.8 2 4.4.3 6.2-1.6 1.8-4.2 2.1-6.1.5-3.4-2.8-6.7-5.7-10-8.5-4.8-4.1-9.5-8.1-14.3-12.2-.4-.4-.9-.7-1.6-1.3 0 1-.1 1.6-.1 2.3v36.1c-.2 2.5-2.1 4.3-4.6 4.2-2.4-.1-4.1-1.9-4.2-4.4V21.9c0-1.6.2-1.9 1.7-1.9 2.1-.1 4.2-.1 6.2-.1 5 0 10.1.2 15.1-.1 8.4-.4 17.8 6.4 18.7 16.3.8 8.9-5.2 17.3-14.3 19.1-1.1.2-2.3.5-3.9.8zm-15.3-6.9c.5.1.9.1 1.2.1h12.6c1.2 0 2.4-.1 3.6-.5 3.9-1.2 7-3.5 8-7.7 1.7-7.1-3.6-13.7-10.9-13.7h-13c-.5 0-1 .1-1.5.1v21.7zM88.5 52H63.9c0 .7-.1 1.4-.1 2v18.9c0 .8 0 1.6-.2 2.3-.6 1.9-2.6 3.1-4.5 3-2.1-.2-3.8-1.8-4.1-3.9-.1-.5 0-1 0-1.5V5.4c0-.9.1-1.8.4-2.6.6-2 2.6-3 4.7-2.8 1.9.3 3.5 2 3.7 3.9.1.6 0 1.2 0 1.8v34.7c0 .7.1 1.4.1 2 1.5.4 22.9.4 24.5 0 0-.5.1-1.1.1-1.7V23.9c.2-2.3 1.9-4 4.2-4.1 2.3-.1 4.3 1.6 4.6 3.9.1.5 0 1 0 1.5v48.9c-.3 2.3-2.3 4.1-4.5 4-2.3-.1-4.1-1.9-4.3-4.2V52zM25 78.3c-5.9-.1-11.4-1.4-16.5-4.4-2.2-1.3-4.2-2.9-5.8-4.8-.8-1-1.6-2.1-2.2-3.3-1-1.9-.6-3.4.9-4.9 1.7-1.6 4.1-2.3 6.4-.7C9 61 10 62 10.9 63c.9.9 1.6 1.9 2.5 2.8 2.7 2.7 6 4.2 9.8 4.6 3.5.4 7 .3 10.4-.9 1.4-.5 2.8-1.2 4-2.1 2.9-2.2 3-5.9.2-8.2-1.3-1.1-2.9-1.9-4.5-2.6-4-1.7-8.1-2.9-12.3-4-3.4-.8-6.7-1.9-10.1-2.9-1.3-.4-2.5-1.1-3.7-1.7-3.2-1.7-5-4.4-5.5-7.9-1-7.1 1.7-12.8 8.1-15.9 9.8-4.8 19.7-5.2 29.4.4 1.8 1 3.5 2.5 5.1 3.9 1.2 1 2 2.5 2.5 4 .8 2.6-.5 3.9-2.8 4.4-2 .4-3.8-.2-5.2-1.7-.3-.3-.5-.6-.7-.9-2.3-3.4-5.6-5.3-9.6-6.1-4-.7-8-.6-11.8.9-1.4.5-2.8 1.3-3.9 2.3-2.7 2.3-2.7 5.4-.1 7.8 1.7 1.6 3.7 2.5 5.9 3 4.8 1.2 9.7 2.4 14.5 3.6 3.1.8 6.1 1.8 8.9 3.4 3.6 1.9 6.2 4.7 7.1 8.8 1.1 5 0 9.4-3.9 13-4.4 4-9.5 6.3-15.4 7-1.7.1-3.3.2-4.8.3z"/></symbol><symbol id="viber" viewBox="0 0 100 108" xml:space="preserve" xmlns="http://www.w3.org/2000/svg"><style>.lst0{fill:#834995}</style><path class="lst0" d="M91.6 60.5C89 82.4 73.3 83.8 70.4 84.8c-1.2.4-12.7 3.3-27 2.4l-15.6 17.3V84.6h-.1c-20.9-6-20.2-28.3-20-40 .2-11.7 2.4-21.3 8.8-27.8 11.5-10.6 35.1-9 35.1-9 20 .1 29.5 6.2 31.7 8.3 7.3 6.4 11.1 21.8 8.3 44.4m-2.9-50C86.1 8.1 75.5.2 51.9.1c0 0-27.8-1.7-41.4 11C3 18.8.3 30.1.1 44.1c-.3 14-.6 40.3 24.1 47.4v10.9s-.2 4.4 2.7 5.3c3.4 1.1 5.4-2.3 8.7-5.9 1.8-2 4.3-4.9 6.1-7.1 16.9 1.5 29.9-1.9 31.4-2.4 3.4-1.1 22.7-3.7 25.9-29.9 3.2-27-1.6-44.2-10.3-51.9"/><path class="lst0" d="M73.6 63.8s-3.2-2.7-4.7-3.9c-1.5-1.1-3.8-2.6-5.1-3.3-2.3-1.3-4.7-.5-5.7.8l-2 2.6c-1 1.3-2.7 1.1-3.1 1-3-.8-6.2-2.6-9.5-5.8s-5.3-6.6-6-10l-.1-.2c-.2-1.4 0-2.1.6-3.1l.1-.1c1.4-1.3 3.9-2.8 4.3-4.3 1-2.6-3.4-8-4-8.9 0 0-3.2-4.2-4.3-5-1.2-1-3.1-1.6-5-.4H29c-5.5 3.7-7.4 5.8-6.9 9l.3 1.3c2.8 8.7 8.1 18.1 16.1 26.4 7.9 8.1 16.5 13 24.9 16.4 2.2.7 4.5.1 6.8-1.9 1.8-1.7 3.2-3.5 4.2-5.4 1.1-2 .7-3.9-.8-5.2M60.5 44.6c-.3 0-.6-.3-.6-.6-.1-2.3-.7-4-1.8-5.2s-2.7-1.8-4.8-1.9c-.3 0-.6-.3-.6-.7s.3-.6.7-.6c2.5.1 4.4.9 5.7 2.3 1.3 1.4 2 3.4 2.2 6-.1.4-.4.7-.8.7"/><path class="lst0" d="M66.7 46.8c-.4 0-.6-.3-.6-.7.1-4.3-1.2-8-3.8-10.9-1.3-1.5-2.9-2.6-4.7-3.4-1.8-.8-3.9-1.3-6.3-1.5-.3 0-.6-.3-.6-.7 0-.4.3-.6.7-.6 5 .4 9 2.2 11.8 5.3 2.8 3.2 4.2 7.1 4.1 11.8.1.4-.2.7-.6.7"/><path class="lst0" d="M73.1 49.3c-.3 0-.6-.3-.6-.6 0-3.8-.6-7.3-1.7-10.3s-2.8-5.6-5-7.8-4.7-3.9-7.4-5-5.8-1.7-9.1-1.7c-.3 0-.6-.3-.6-.6 0-.4.3-.6.6-.6 6.9.1 12.7 2.4 17.4 7.1 2.3 2.3 4.1 5.1 5.3 8.3 1.2 3.2 1.8 6.8 1.8 10.8 0 .1-.3.4-.7.4z"/></symbol></svg>