<?xml version="1.0" encoding="utf-8"?><svg xmlns="http://www.w3.org/2000/svg" xmlns:xlink="http://www.w3.org/1999/xlink"><symbol viewBox="0 0 289 492" id="arrow" xmlns="http://www.w3.org/2000/svg"><path d="M281.2 226.8L62.3 7.9C57.2 2.8 50.4 0 43.2 0s-14 2.8-19 7.9L8.1 24c-10.5 10.5-10.5 27.6 0 38L192 245.9 7.9 430C2.8 435 0 441.8 0 449c0 7.2 2.8 14 7.9 19L24 484.1c5.1 5.1 11.8 7.9 19 7.9s14-2.8 19-7.9L281.2 265c5.1-5.1 7.9-11.9 7.8-19.1.1-7.2-2.7-14-7.8-19.1z"/></symbol><symbol viewBox="0 0 512 512" id="calculator" xmlns="http://www.w3.org/2000/svg"><path d="M467 0H45C20.187 0 0 20.187 0 45v422c0 24.813 20.187 45 45 45h422c24.813 0 45-20.187 45-45V45c0-24.813-20.187-45-45-45zm15 45v196H271V30h196c8.271 0 15 6.729 15 15zM45 30h196v211H30V45c0-8.271 6.729-15 15-15zM30 467V271h211v211H45c-8.271 0-15-6.729-15-15zm437 15H271V271h211v196c0 8.271-6.729 15-15 15z"/><path d="M91 151h30v30c0 8.284 6.716 15 15 15s15-6.716 15-15v-30h30c8.284 0 15-6.716 15-15s-6.716-15-15-15h-30V91c0-8.284-6.716-15-15-15s-15 6.716-15 15v30H91c-8.284 0-15 6.716-15 15s6.716 15 15 15zm66.213 225l21.213-21.213c5.858-5.858 5.858-15.355 0-21.213-5.857-5.857-15.355-5.857-21.213 0L136 354.787l-21.213-21.213c-5.857-5.857-15.355-5.857-21.213 0-5.858 5.858-5.858 15.355 0 21.213L114.787 376l-21.213 21.213c-5.858 5.858-5.858 15.355 0 21.213s15.355 5.858 21.213 0L136 397.213l21.213 21.213c5.858 5.858 15.355 5.858 21.213 0s5.858-15.355 0-21.213zM421 331h-90c-8.284 0-15 6.716-15 15s6.716 15 15 15h90c8.284 0 15-6.716 15-15s-6.716-15-15-15zm0 60h-90c-8.284 0-15 6.716-15 15s6.716 15 15 15h90c8.284 0 15-6.716 15-15s-6.716-15-15-15zm-90-240h90c8.284 0 15-6.716 15-15s-6.716-15-15-15h-90c-8.284 0-15 6.716-15 15s6.716 15 15 15z"/></symbol><symbol viewBox="0 0 512 448" id="cart" xmlns="http://www.w3.org/2000/svg"><path d="M508.4 85.9c-3-3.8-7.6-5.9-12.4-5.9H101.6L96 14.6C95.3 6.3 88.3 0 80 0H16C7.2 0 0 7.2 0 16s7.2 16 16 16h49.3L96 385.4c.7 8.3 7.7 14.7 16 14.6 0 26.5 21.5 48 48 48s48-21.5 48-48h96c0 26.5 21.5 48 48 48s48-21.5 48-48h16c8.8 0 16-7.2 16-16s-7.2-16-16-16h-28.6c-17.2-19.5-47-21.5-66.5-4.3-1.5 1.3-2.9 2.8-4.3 4.3H195.4c-17.4-19.7-47.4-21.5-67.1-4.1-.7.6-1.3 1.2-1.9 1.8l-2.5-29.7H448c7.5 0 14.1-5.3 15.6-12.7l48-224c1.1-4.7-.1-9.6-3.2-13.4zM352 384c8.8 0 16 7.2 16 16s-7.2 16-16 16-16-7.2-16-16c0-2.8.7-5.6 2.1-8 2.9-5 8.2-8 13.9-8zm-192 0c8.8 0 16 7.2 16 16s-7.2 16-16 16-16-7.2-16-16c0-2.8.7-5.6 2.1-8 2.9-5 8.2-8 13.9-8zm275.1-80h-314l-16.7-192h371.8l-41.1 192z"/></symbol><symbol viewBox="0 0 22 20.1" id="heart" xmlns="http://www.w3.org/2000/svg"><path d="M12.1.7c1.1-.5 2-.7 3.5-.7C19.3 0 22 3.1 22 7.1c0 3-1.7 6-4.8 8.8-1.7 1.5-3.8 3-5.3 3.7l-.9.5-.9-.4c-1.5-.8-3.6-2.3-5.3-3.7C1.7 13.1 0 10.2 0 7.1 0 3.1 2.7 0 6.5 0c1.4 0 2.4.2 3.5.7.4.2.7.4 1.1.7.2-.3.6-.5 1-.7zm3.7 13.7c2.8-2.5 4.2-4.9 4.2-7.3C20 4.2 18.1 2 15.5 2c-1.2 0-1.8.1-2.6.5-.5.2-.9.5-1.3.9l-.6.8-.7-.8c-.4-.3-.8-.6-1.3-.9-.8-.4-1.4-.5-2.5-.5C3.9 2 2 4.1 2 7.1c0 2.4 1.4 4.8 4.2 7.3 1.5 1.4 3.5 2.7 4.8 3.4 1.4-.6 3.3-2 4.8-3.4z"/></symbol><symbol viewBox="0 0 57 57" id="icon-search" xmlns="http://www.w3.org/2000/svg"><path d="M55.1 51.9L41.6 37.8C45.1 33.6 47 28.4 47 23 47 10.3 36.7 0 24 0S1 10.3 1 23s10.3 23 23 23c4.8 0 9.3-1.4 13.2-4.2L50.8 56c.6.6 1.3.9 2.2.9.8 0 1.5-.3 2.1-.8 1.2-1.1 1.2-3 0-4.2zM24 6c9.4 0 17 7.6 17 17s-7.6 17-17 17S7 32.4 7 23 14.6 6 24 6z"/></symbol><symbol viewBox="0 0 270.4 98.1" id="iconSheer"><path d="M175.1 51.8c.2 1.2.3 2.1.5 3 2 8.4 8.6 14 17.2 14.7 7.6.6 13.6-2.3 18-8.5 2.2-3 5.7-3.5 8.5-1.1 1.6 1.4 1.8 3.2.5 4.9-.7.9-1.4 1.8-2.1 2.8-2.9 4-6.7 6.7-11.4 8.3-7.6 2.6-15.2 3-22.7.2-10.1-3.7-16.1-11.1-17.8-21.7-1-6.5-.4-13 2.6-18.9 4.3-8.4 11.1-13.6 20.5-15.1 6.2-1 12.4-.4 18.2 2.4 8.2 3.9 13.2 10.5 15.1 19.3.5 2.4.7 4.9.9 7.3.2 1.5-.5 2.2-2.1 2.3h-44.1c-.4.1-.9.1-1.8.1zm38.3-9.2c-1.2-7.9-10.7-14.7-19.4-14.2-9.1.5-18.2 7.5-18.5 14.2h37.9zm-101 9c.1.8.2 1.4.3 2 1.7 9.3 9.3 15.7 18.7 15.9 7.1.1 12.7-2.8 16.8-8.6 2.2-3.1 6.1-3.4 8.8-.7 1.3 1.4 1.5 3 .3 4.6-.5.8-1.1 1.5-1.7 2.2-3.1 4.5-7.3 7.4-12.5 9.1-7.6 2.5-15.2 2.7-22.5-.2-10.6-4.1-16.4-12.1-17.6-23.3-.6-5.4-.1-10.7 2.2-15.6 4.3-9.4 11.4-15.2 21.8-16.6 5.5-.7 11-.3 16.1 1.8 9.2 3.8 14.6 10.9 16.6 20.6.4 2.2.6 4.5.7 6.7.1 1.8-.3 2.2-2.2 2.2h-43.5c-.7-.1-1.4-.1-2.3-.1zm38.4-9.1c-1.2-7.8-10.4-14.4-19.4-14.2-8.8.2-17.9 7.2-18.6 14.2h38zm101 13.5c.7.6 1.1 1 1.5 1.4 4.9 4.2 9.8 8.3 14.6 12.5.3.3.7.6 1 .9 1.8 1.8 2 4.4.3 6.2-1.6 1.8-4.2 2.1-6.1.5-3.4-2.8-6.7-5.7-10-8.5-4.8-4.1-9.5-8.1-14.3-12.2-.4-.4-.9-.7-1.6-1.3 0 1-.1 1.6-.1 2.3v36.1c-.2 2.5-2.1 4.3-4.6 4.2-2.4-.1-4.1-1.9-4.2-4.4V21.9c0-1.6.2-1.9 1.7-1.9 2.1-.1 4.2-.1 6.2-.1 5 0 10.1.2 15.1-.1 8.4-.4 17.8 6.4 18.7 16.3.8 8.9-5.2 17.3-14.3 19.1-1.1.2-2.3.5-3.9.8zm-15.3-6.9c.5.1.9.1 1.2.1h12.6c1.2 0 2.4-.1 3.6-.5 3.9-1.2 7-3.5 8-7.7 1.7-7.1-3.6-13.7-10.9-13.7h-13c-.5 0-1 .1-1.5.1v21.7zM88.5 52H63.9c0 .7-.1 1.4-.1 2v18.9c0 .8 0 1.6-.2 2.3-.6 1.9-2.6 3.1-4.5 3-2.1-.2-3.8-1.8-4.1-3.9-.1-.5 0-1 0-1.5V5.4c0-.9.1-1.8.4-2.6.6-2 2.6-3 4.7-2.8 1.9.3 3.5 2 3.7 3.9.1.6 0 1.2 0 1.8v34.7c0 .7.1 1.4.1 2 1.5.4 22.9.4 24.5 0 0-.5.1-1.1.1-1.7V23.9c.2-2.3 1.9-4 4.2-4.1 2.3-.1 4.3 1.6 4.6 3.9.1.5 0 1 0 1.5v48.9c-.3 2.3-2.3 4.1-4.5 4-2.3-.1-4.1-1.9-4.3-4.2V52zM25 78.3c-5.9-.1-11.4-1.4-16.5-4.4-2.2-1.3-4.2-2.9-5.8-4.8-.8-1-1.6-2.1-2.2-3.3-1-1.9-.6-3.4.9-4.9 1.7-1.6 4.1-2.3 6.4-.7C9 61 10 62 10.9 63c.9.9 1.6 1.9 2.5 2.8 2.7 2.7 6 4.2 9.8 4.6 3.5.4 7 .3 10.4-.9 1.4-.5 2.8-1.2 4-2.1 2.9-2.2 3-5.9.2-8.2-1.3-1.1-2.9-1.9-4.5-2.6-4-1.7-8.1-2.9-12.3-4-3.4-.8-6.7-1.9-10.1-2.9-1.3-.4-2.5-1.1-3.7-1.7-3.2-1.7-5-4.4-5.5-7.9-1-7.1 1.7-12.8 8.1-15.9 9.8-4.8 19.7-5.2 29.4.4 1.8 1 3.5 2.5 5.1 3.9 1.2 1 2 2.5 2.5 4 .8 2.6-.5 3.9-2.8 4.4-2 .4-3.8-.2-5.2-1.7-.3-.3-.5-.6-.7-.9-2.3-3.4-5.6-5.3-9.6-6.1-4-.7-8-.6-11.8.9-1.4.5-2.8 1.3-3.9 2.3-2.7 2.3-2.7 5.4-.1 7.8 1.7 1.6 3.7 2.5 5.9 3 4.8 1.2 9.7 2.4 14.5 3.6 3.1.8 6.1 1.8 8.9 3.4 3.6 1.9 6.2 4.7 7.1 8.8 1.1 5 0 9.4-3.9 13-4.4 4-9.5 6.3-15.4 7-1.7.1-3.3.2-4.8.3z"/></symbol><symbol id="insta" viewBox="0 0 440.8 440.8" xml:space="preserve" xmlns="http://www.w3.org/2000/svg"><style>.gst0{fill:#fff}</style><path class="gst0" d="M309.5 0H131.3C58.9 0 0 58.9 0 131.3v178.2c0 72.4 58.9 131.3 131.3 131.3h178.2c72.4 0 131.3-58.9 131.3-131.3V131.3C440.8 58.9 381.9 0 309.5 0zm87 309.5c0 48-38.9 87-87 87H131.3c-48 0-87-38.9-87-87V131.3c0-48 38.9-87 87-87h178.2c48 0 87 38.9 87 87v178.2z"/><path class="gst0" d="M220.4 106.4c-62.9 0-114 51.1-114 114s51.1 114 114 114 114-51.1 114-114-51.1-114-114-114zm0 183.7c-38.5 0-69.7-31.2-69.7-69.7s31.2-69.7 69.7-69.7 69.7 31.2 69.7 69.7-31.2 69.7-69.7 69.7zM362 107.3c0 15.1-12.2 27.3-27.3 27.3-15.1 0-27.3-12.2-27.3-27.3S319.6 80 334.7 80c15-.1 27.3 12.2 27.3 27.3z"/></symbol><symbol viewBox="0 0 478.024 478.024" id="user" xmlns="http://www.w3.org/2000/svg"><path d="M411.703 73.561A238.64 238.64 0 00238.943.011C107.145-.155.166 106.554 0 238.353a238.647 238.647 0 0073.55 172.623c.137.136.188.341.324.461 1.382 1.331 2.884 2.458 4.284 3.738 3.84 3.413 7.68 6.946 11.725 10.24a163.172 163.172 0 006.639 4.983c3.823 2.85 7.646 5.7 11.639 8.329 2.714 1.707 5.513 3.413 8.294 5.12 3.686 2.219 7.356 4.454 11.162 6.485 3.226 1.707 6.519 3.174 9.796 4.727 3.584 1.707 7.117 3.413 10.786 4.949 3.669 1.536 7.356 2.731 11.076 4.062s6.929 2.56 10.496 3.652c4.028 1.212 8.158 2.15 12.254 3.157 3.413.836 6.724 1.792 10.24 2.475 4.71.939 9.489 1.536 14.268 2.185 2.953.41 5.837.99 8.823 1.28 7.817.768 15.701 1.195 23.654 1.195s15.838-.427 23.654-1.195c2.987-.29 5.871-.87 8.823-1.28 4.779-.649 9.557-1.246 14.268-2.185 3.413-.683 6.827-1.707 10.24-2.475 4.096-1.007 8.226-1.946 12.254-3.157 3.567-1.092 7.014-2.423 10.496-3.652s7.441-2.56 11.076-4.062 7.202-3.26 10.786-4.949c3.277-1.553 6.571-3.021 9.796-4.727 3.806-2.031 7.475-4.267 11.162-6.485 2.782-1.707 5.581-3.26 8.294-5.12 3.994-2.628 7.817-5.478 11.639-8.329 2.219-1.707 4.471-3.243 6.639-4.983 4.045-3.243 7.885-6.69 11.725-10.24 1.399-1.28 2.901-2.406 4.284-3.738.136-.119.188-.324.324-.461 95.174-91.178 98.411-242.244 7.233-337.415zm-38.359 319.546c-3.106 2.731-6.315 5.325-9.557 7.834-1.911 1.468-3.823 2.918-5.786 4.318a189.792 189.792 0 01-9.421 6.383 211.443 211.443 0 01-7.083 4.318 882.43 882.43 0 01-9.148 5.12c-2.731 1.399-5.513 2.714-8.311 4.011s-5.888 2.679-8.909 3.891c-3.021 1.212-6.229 2.355-9.387 3.413-2.884.99-5.768 2.014-8.687 2.884-3.413 1.024-6.98 1.86-10.513 2.714-2.765.648-5.495 1.382-8.294 1.929-4.045.785-8.175 1.331-12.322 1.894-2.355.307-4.693.734-7.066.973-6.554.631-13.193 1.007-19.9 1.007s-13.346-.375-19.9-1.007c-2.372-.239-4.71-.666-7.066-.973-4.147-.563-8.277-1.109-12.322-1.894-2.799-.546-5.53-1.28-8.294-1.929-3.533-.853-7.049-1.707-10.513-2.714-2.918-.87-5.803-1.894-8.687-2.884-3.157-1.092-6.315-2.202-9.387-3.413-3.072-1.212-5.973-2.543-8.909-3.891s-5.581-2.611-8.311-4.011a155.774 155.774 0 01-9.148-5.12 210.796 210.796 0 01-7.083-4.318 190.261 190.261 0 01-9.421-6.383c-1.963-1.399-3.874-2.85-5.786-4.318a207.479 207.479 0 01-9.557-7.834c-.751-.563-1.434-1.28-2.167-1.929.763-58.057 38.06-109.321 93.065-127.915a101.192 101.192 0 0086.938 0c55.004 18.594 92.301 69.857 93.065 127.915-.717.649-1.4 1.298-2.133 1.929zM179.43 136.849c18.479-32.864 60.1-44.525 92.964-26.046s44.525 60.1 26.046 92.964a68.267 68.267 0 01-26.046 26.046c-.085 0-.188 0-.29.102a72.308 72.308 0 01-14.268 6.042c-.887.256-1.707.597-2.645.819-1.707.444-3.499.751-5.257 1.058a69.13 69.13 0 01-10.018 1.007h-1.946a69.13 69.13 0 01-10.018-1.007c-1.707-.307-3.516-.614-5.256-1.058-.905-.222-1.707-.563-2.645-.819a72.249 72.249 0 01-14.268-6.042l-.307-.102c-32.864-18.479-44.525-60.1-26.046-92.964zm226.323 220.487a171.517 171.517 0 00-91.375-117.64c38.245-41.661 35.475-106.438-6.186-144.683-41.661-38.245-106.438-35.475-144.683 6.186-35.954 39.166-35.954 99.332 0 138.497a171.52 171.52 0 00-91.375 117.64C6.69 265.153 28.366 137.371 120.549 71.927s219.965-43.768 285.409 48.415a204.707 204.707 0 0137.786 118.602 203.471 203.471 0 01-37.991 118.392z"/></symbol><symbol viewBox="0 0 100 108" id="viber" xmlns="http://www.w3.org/2000/svg"><path class="ist0" d="M91.6 60.5C89 82.4 73.3 83.8 70.4 84.8c-1.2.4-12.7 3.3-27 2.4l-15.6 17.3V84.6h-.1c-20.9-6-20.2-28.3-20-40 .2-11.7 2.4-21.3 8.8-27.8 11.5-10.6 35.1-9 35.1-9 20 .1 29.5 6.2 31.7 8.3 7.3 6.4 11.1 21.8 8.3 44.4m-2.9-50C86.1 8.1 75.5.2 51.9.1c0 0-27.8-1.7-41.4 11C3 18.8.3 30.1.1 44.1c-.3 14-.6 40.3 24.1 47.4v10.9s-.2 4.4 2.7 5.3c3.4 1.1 5.4-2.3 8.7-5.9 1.8-2 4.3-4.9 6.1-7.1 16.9 1.5 29.9-1.9 31.4-2.4 3.4-1.1 22.7-3.7 25.9-29.9 3.2-27-1.6-44.2-10.3-51.9"/><path class="ist0" d="M73.6 63.8s-3.2-2.7-4.7-3.9c-1.5-1.1-3.8-2.6-5.1-3.3-2.3-1.3-4.7-.5-5.7.8l-2 2.6c-1 1.3-2.7 1.1-3.1 1-3-.8-6.2-2.6-9.5-5.8s-5.3-6.6-6-10l-.1-.2c-.2-1.4 0-2.1.6-3.1l.1-.1c1.4-1.3 3.9-2.8 4.3-4.3 1-2.6-3.4-8-4-8.9 0 0-3.2-4.2-4.3-5-1.2-1-3.1-1.6-5-.4H29c-5.5 3.7-7.4 5.8-6.9 9l.3 1.3c2.8 8.7 8.1 18.1 16.1 26.4 7.9 8.1 16.5 13 24.9 16.4 2.2.7 4.5.1 6.8-1.9 1.8-1.7 3.2-3.5 4.2-5.4 1.1-2 .7-3.9-.8-5.2M60.5 44.6c-.3 0-.6-.3-.6-.6-.1-2.3-.7-4-1.8-5.2s-2.7-1.8-4.8-1.9c-.3 0-.6-.3-.6-.7s.3-.6.7-.6c2.5.1 4.4.9 5.7 2.3 1.3 1.4 2 3.4 2.2 6-.1.4-.4.7-.8.7"/><path class="ist0" d="M66.7 46.8c-.4 0-.6-.3-.6-.7.1-4.3-1.2-8-3.8-10.9-1.3-1.5-2.9-2.6-4.7-3.4-1.8-.8-3.9-1.3-6.3-1.5-.3 0-.6-.3-.6-.7 0-.4.3-.6.7-.6 5 .4 9 2.2 11.8 5.3 2.8 3.2 4.2 7.1 4.1 11.8.1.4-.2.7-.6.7"/><path class="ist0" d="M73.1 49.3c-.3 0-.6-.3-.6-.6 0-3.8-.6-7.3-1.7-10.3s-2.8-5.6-5-7.8-4.7-3.9-7.4-5-5.8-1.7-9.1-1.7c-.3 0-.6-.3-.6-.6 0-.4.3-.6.6-.6 6.9.1 12.7 2.4 17.4 7.1 2.3 2.3 4.1 5.1 5.3 8.3 1.2 3.2 1.8 6.8 1.8 10.8 0 .1-.3.4-.7.4z"/></symbol><symbol viewBox="0 0 428.1 245.9" id="vk" xmlns="http://www.w3.org/2000/svg"><path d="M4.1 37.2C.5 27.8-4.1 18 6.8 12.7l66.4-.9c9.6.3 14 7.4 19.1 17.3 14.9 28.7 30.4 57.3 49.1 83.6 6.1 8.6 16.4 11.9 24.5-1.8l2.7-55.5c-3-21.5-10.5-34.2-23.6-35.5-7.5-7.3-2.1-13.3 14.7-16.5 26.7-5.7 50-3.1 70.5-.5C247.5 4 250 15.7 249.7 29.1c-.6 24.5-1.1 49.1-1.1 73.6 5.1 24.9 18.7 14.9 27.7 4.1 16.1-22.9 30.1-45.2 41.8-70.3 12.1-25.8 15.4-23.9 23.9-24 20.3-.1 42.7-1.1 58.9-.5 33.8-2 29.9 13 20.4 28.9-16.4 27.7-37.5 52.7-56.3 79.1-11.4 15.5-11.2 25.2.9 33.6 17.9 19.7 37.3 38.1 53.6 59.1 17.7 22.9 4.7 29.2-11.8 30.9h-59.1c-16.8.3-32-3.9-42.7-21.8-24.7-32.7-43.1-41.7-50.5-23.3-3.2 8.1-5.9 19-5.8 29.6.1 14.8-8.8 16-20.9 16.4-13 0-26.5 3.2-39.1 0-44.6-11.3-87.4-32.1-129.1-103.6C41.7 110 22.9 76.2 4.1 37.2z"/></symbol><symbol viewBox="0 0 100 100.5" id="wa" xmlns="http://www.w3.org/2000/svg"><path d="M85.4 14.6C76 5.2 63.5 0 50.2 0 22.8 0 .4 22.3.4 49.8c0 8.8 2.3 17.3 6.6 24.9l-7 25.8 26.4-6.9c7.3 4 15.5 6.1 23.8 6.1 27.4 0 49.8-22.3 49.8-49.8 0-13.4-5.2-25.9-14.6-35.3zM50.2 91.2c-7.4 0-14.7-2-21.1-5.8l-1.5-.9L12 88.7l4.2-15.3-1-1.6c-4.1-6.6-6.3-14.2-6.3-22C8.8 27 27.4 8.4 50.2 8.4c11.1 0 21.4 4.3 29.3 12.1 7.8 7.8 12.1 18.2 12.1 29.3 0 22.8-18.6 41.4-41.4 41.4zm22.7-31c-1.2-.6-7.4-3.6-8.5-4s-2-.6-2.8.6c-.8 1.2-3.2 4-3.9 4.9-.7.8-1.5.9-2.7.3s-5.3-1.9-10-6.2c-3.7-3.3-6.2-7.4-6.9-8.6s-.1-1.9.5-2.5 1.2-1.5 1.9-2.2c.6-.7.8-1.2 1.2-2.1.4-.8.2-1.6-.1-2.2-.3-.6-2.8-6.7-3.8-9.2-1-2.4-2-2.1-2.8-2.1h-2.4c-.8 0-2.2.3-3.3 1.6-1.1 1.2-4.4 4.3-4.4 10.4s4.5 12 5.1 12.9c.6.8 8.8 13.4 21.3 18.8 3 1.3 5.3 2 7.1 2.6 3 .9 5.7.8 7.8.5 2.4-.4 7.4-3 8.4-5.9s1-5.4.7-5.9c-.3-.8-1.1-1.1-2.4-1.7z"/></symbol></svg>