<svg xmlns="http://www.w3.org/2000/svg" viewBox="0 0 308 512" width="308" height="512">
	<defs>
		<clipPath clipPathUnits="userSpaceOnUse" id="cp1">
			<path d="M1 0L307 0L307 512L1 512Z" />
		</clipPath>
	</defs>
	<style>
		tspan { white-space:pre }
		.shp0 { fill: #fff } 
	</style>
	<g id="Page 1" clip-path="url(#cp1)">
		<path id="Path 1" class="shp0" d="M307.24,358.4v39.25c0,17.54 -14.27,31.8 -31.8,31.8h-31.46c-3.53,15.74 -12.4,29.46 -24.61,39.18h65.57c4.17,0 7.55,3.38 7.55,7.55v28.26c0,4.17 -3.38,7.55 -7.55,7.55h-276.39c-4.17,0 -7.55,-3.38 -7.55,-7.55v-28.26c0,-4.17 3.38,-7.55 7.55,-7.55h51.97c-16.01,-12.74 -26.3,-32.37 -26.3,-54.37v-94.14c0,-4.17 3.38,-7.55 7.55,-7.55h21.3c4.17,0 7.55,3.38 7.55,7.55c0,4.17 -3.38,7.55 -7.55,7.55h-13.75v86.59c0,29.98 24.39,54.37 54.37,54.37h72.49c29.98,0 54.37,-24.39 54.37,-54.37v-86.59h-130.22c-4.17,0 -7.55,-3.38 -7.55,-7.55c0,-4.17 3.38,-7.55 7.55,-7.55h137.77c4.17,0 7.55,3.38 7.55,7.55v6.47h29.77c17.53,0 31.8,14.27 31.8,31.8zM16.1,483.74v13.16h261.28v-13.16zM292.14,358.4c0,-9.21 -7.49,-16.7 -16.7,-16.7h-29.77v72.56c0,0.03 0,0.06 0,0.08h29.77c9.21,0 16.7,-7.49 16.7,-16.7zM248.81,105.72c0,28.29 -11.03,54.87 -31.06,74.85c-8.61,8.59 -13.36,19.98 -13.36,32.08v30.12c0,0.15 -0.01,0.29 -0.02,0.44v2.3c0,33.8 -27.5,61.29 -61.29,61.29c-33.8,0 -61.29,-27.49 -61.29,-61.29v-32.3c0,-12.3 -4.83,-24.16 -13.25,-32.53c-20.63,-20.51 -31.69,-47.84 -31.15,-76.95c0.38,-20.76 6.86,-40.79 18.72,-57.92c2.37,-3.43 7.08,-4.29 10.51,-1.91c3.43,2.37 4.29,7.08 1.91,10.51c-10.16,14.68 -15.71,31.83 -16.03,49.61c-0.46,24.95 9.02,48.38 26.7,65.96c11.25,11.19 17.7,26.95 17.7,43.24v22h92.4v-22.57c0,-16.14 6.32,-31.33 17.79,-42.77c17.17,-17.12 26.63,-39.91 26.63,-64.15c0,-24.44 -9.59,-47.36 -26.99,-64.52c-17.4,-17.16 -40.49,-26.42 -64.92,-26.08c-17.19,0.24 -33.89,5.38 -48.3,14.88c-3.48,2.3 -8.17,1.33 -10.46,-2.15c-2.3,-3.48 -1.33,-8.17 2.15,-10.46c16.82,-11.08 36.33,-17.09 56.41,-17.37c28.55,-0.39 55.43,10.41 75.74,30.43c20.31,20.03 31.49,46.76 31.49,75.28zM189.02,250.31h-91.88c2.41,23.22 22.1,41.38 45.94,41.38c23.84,0 43.53,-18.16 45.94,-41.38zM200.39,113.16c-1.47,1.47 -3.41,2.21 -5.34,2.21c-1.93,0 -3.86,-0.74 -5.34,-2.21l-11.98,-11.98l-11.98,11.98c-2.95,2.95 -7.73,2.95 -10.68,0l-11.98,-11.98l-11.98,11.98c-2.95,2.95 -7.73,2.95 -10.68,0l-11.98,-11.98l-11.98,11.98c-2.95,2.95 -7.73,2.95 -10.68,0c-2.95,-2.95 -2.95,-7.73 0,-10.68l17.32,-17.32c2.95,-2.95 7.73,-2.95 10.68,0l11.98,11.98l11.98,-11.98c2.95,-2.95 7.73,-2.95 10.68,0l11.98,11.98l11.98,-11.98c2.95,-2.95 7.73,-2.95 10.68,0l17.32,17.32c2.95,2.95 2.95,7.73 0,10.68zM186.32,154.93l-36.91,56.39c-0.07,0.11 -0.15,0.2 -0.23,0.31c-0.03,0.04 -0.07,0.09 -0.1,0.13c-0.21,0.28 -0.44,0.54 -0.69,0.78c-0.02,0.02 -0.04,0.04 -0.06,0.07c-0.57,0.55 -1.2,0.99 -1.89,1.33c-0.05,0.02 -0.1,0.04 -0.15,0.07c-0.3,0.14 -0.6,0.26 -0.91,0.36c-0.05,0.01 -0.09,0.04 -0.13,0.05c-0.04,0.01 -0.07,0.01 -0.11,0.02c-0.26,0.07 -0.52,0.13 -0.78,0.17c-0.08,0.01 -0.16,0.03 -0.25,0.05c-0.34,0.05 -0.68,0.07 -1.02,0.07h0c-0.34,0 -0.67,-0.03 -1,-0.07c-0.1,-0.01 -0.19,-0.04 -0.28,-0.05c-0.24,-0.04 -0.48,-0.09 -0.72,-0.16c-0.1,-0.03 -0.2,-0.07 -0.31,-0.1c-0.24,-0.08 -0.47,-0.16 -0.69,-0.26c-0.09,-0.04 -0.17,-0.08 -0.26,-0.12c-0.26,-0.13 -0.51,-0.27 -0.76,-0.42c-0.04,-0.02 -0.07,-0.04 -0.11,-0.06c-0.02,-0.01 -0.04,-0.03 -0.06,-0.04c-0.15,-0.1 -0.29,-0.2 -0.43,-0.31c-0.08,-0.06 -0.16,-0.13 -0.24,-0.19c-0.13,-0.11 -0.26,-0.23 -0.39,-0.35c-0.08,-0.08 -0.15,-0.15 -0.23,-0.23c-0.12,-0.12 -0.24,-0.25 -0.35,-0.38c-0.04,-0.05 -0.07,-0.1 -0.11,-0.15c-0.14,-0.17 -0.27,-0.34 -0.39,-0.53l-36.92,-56.39c-2.29,-3.49 -1.31,-8.17 2.18,-10.45c3.49,-2.28 8.17,-1.31 10.45,2.18l23.04,35.2v-48.52c0,-4.17 3.38,-7.55 7.55,-7.55c4.17,0 7.55,3.38 7.55,7.55v48.54l23.05,-35.22c2.28,-3.49 6.97,-4.47 10.45,-2.18c3.49,2.29 4.47,6.97 2.19,10.46zM85.94,348.65v49.5c0,4.17 -3.38,7.55 -7.55,7.55c-4.17,0 -7.55,-3.38 -7.55,-7.55v-49.5c0,-4.17 3.38,-7.55 7.55,-7.55c4.17,0 7.55,3.38 7.55,7.55z" />
	</g>
</svg>