<svg xmlns="http://www.w3.org/2000/svg" viewBox="0 0 338 440" width="338" height="440">
	<defs>
		<clipPath clipPathUnits="userSpaceOnUse" id="cp1">
			<path d="M0 0L337 0L337 439L0 439Z" />
		</clipPath>
	</defs>
	<style>
		tspan { white-space:pre }
		.shp0 { fill: #ffffff } 
		.shp1 { fill: #00223a } 
		.shp2 { fill: #00afd9 } 
		.shp3 { opacity: 0.349;mix-blend-mode: multiply;fill: #3498db } 
		.shp4 { opacity: 0.502;mix-blend-mode: overlay;fill: #c4c4c4 } 
		.shp5 { fill: #c2d8ed } 
		.shp6 { fill: #ec644b } 
		.shp7 { opacity: 0.502;mix-blend-mode: soft-light;fill: #ffffff } 
		.shp8 { opacity: 0.749;mix-blend-mode: multiply;fill: #bdc3c7 } 
		.shp9 { fill: #f4f4f4 } 
		.shp10 { fill: #dadfe1 } 
		.shp11 { fill: #f4d03f } 
		.shp12 { opacity: 0.251;mix-blend-mode: multiply;fill: #ec644b } 
		.shp13 { fill: #6c7a89 } 
		.shp14 { opacity: 0.302;mix-blend-mode: multiply;fill: #3498db } 
	</style>
	<g id="Page 1" clip-path="url(#cp1)">
		<path id="Path 1" class="shp0" d="M168.51,439l6.54,-3.02c40.92,-18.89 82.03,-37.48 121.71,-58.9c38.66,-20.86 37.34,-55.71 39.06,-94.72c2.71,-61.61 0.02,-123.33 0.02,-184.97v-10.93l-10.27,-3.73c-30.17,-10.95 -61.04,-22.35 -92.01,-30.79c-22.84,-6.22 -45.65,-10.52 -69.41,-10.27c-22.81,0.24 -44.69,4.67 -66.55,10.93c-29.11,8.34 -58.05,19.45 -86.35,30.21l-10.05,3.82v10.75c0,61.64 -2.69,123.36 0.01,184.97c1.72,39.01 0.4,73.86 39.06,94.72c39.68,21.42 80.79,40 121.71,58.9z" />
		<path id="Path 2" class="shp1" d="M16.78,97.4c0,62.09 -2.66,123.81 0,184.28c1.97,44.9 2.34,66.29 30.88,81.69c38.71,20.89 77.82,38.6 120.84,58.46c43.02,-19.86 82.13,-37.57 120.84,-58.46c28.55,-15.4 28.91,-36.79 30.89,-81.69c2.66,-60.47 0,-122.19 0,-184.28c-146.86,-53.34 -162.22,-53.69 -303.45,0z" />
		<path id="Path 3" class="shp0" d="M28.54,347.06c4.31,6.33 10.4,11.6 19.13,16.31c38.71,20.89 77.82,38.6 120.84,58.46c43.02,-19.86 82.13,-37.57 120.84,-58.46c8.73,-4.71 14.82,-9.98 19.13,-16.31c-40.61,-18.43 -88.58,-29.09 -139.97,-29.09c-51.4,0 -99.36,10.66 -139.97,29.09z" />
		<path id="Path 4" class="shp2" d="M38.93,357.81c2.58,1.95 5.47,3.79 8.74,5.56c38.71,20.89 77.82,38.6 120.84,58.46c43.02,-19.86 82.13,-37.57 120.84,-58.46c3.27,-1.77 6.17,-3.61 8.74,-5.56c-37.81,-16.29 -82.16,-25.67 -129.58,-25.67c-47.43,0 -91.78,9.38 -129.59,25.67z" />
		<path id="Path 5" class="shp0" d="M32.91,129.78l-5.38,2.3l5.54,2.45l2.3,5.38l2.45,-5.54l5.38,-2.3l-5.54,-2.45l-2.3,-5.38zM38.55,269.92l-5.38,2.3l5.54,2.45l2.3,5.38l2.45,-5.54l5.38,-2.3l-5.54,-2.45l-2.3,-5.38zM280.26,199.19l-5.38,2.3l5.54,2.45l2.3,5.38l2.45,-5.54l5.38,-2.3l-5.54,-2.45l-2.3,-5.38zM296.2,124.82l-3.26,1.39l3.35,1.48l1.39,3.26l1.48,-3.35l3.26,-1.39l-3.35,-1.49l-1.39,-3.26zM299.17,284.28l-5.38,2.3l5.54,2.45l2.3,5.39l2.45,-5.54l5.39,-2.3l-5.54,-2.45l-2.3,-5.38z" />
		<path id="Path 6" class="shp3" d="M165.28,122.82h23.69l4.74,-4.74h-28.43zM197.27,118.07h-57.52l-21.48,173.03l-0.3,2.39h101.07z" />
		<path id="Path 7" class="shp4" d="M189.04,126.31h-21.32h-18.95l-11.85,167.2h31.59h31.59z" />
		<path id="Path 8" class="shp3" d="M193.71,118.08h-48.96l4.74,4.74h39.48z" />
		<path id="Path 9" class="shp5" d="M87.17,92.78l-3.52,4.77l-20.6,27.97l-0.85,1.14l0.52,0.37l4.11,3.01l1.13,0.84l2.43,-3.31l20.94,-28.44l1.58,-2.14z" />
		<path id="Path 10" class="shp6" d="M70.39,127.59c-1.31,-1.45 -3.21,-2.37 -5.32,-2.37c-0.71,0 -1.39,0.1 -2.02,0.31c-2.95,0.86 -5.11,3.6 -5.11,6.82c0,0.47 0.05,0.93 0.13,1.37c0.56,2.84 2.79,5.06 5.63,5.63c0.44,0.08 0.9,0.13 1.37,0.13c3.95,0 7.14,-3.19 7.14,-7.13c0,-1.82 -0.68,-3.5 -1.82,-4.76z" />
		<path id="Path 11" class="shp7" d="M63.3,126.99c-1.97,0 -3.57,1.6 -3.57,3.57c0,1.97 1.6,3.57 3.57,3.57c1.97,0 3.57,-1.6 3.57,-3.57c0,-1.97 -1.6,-3.57 -3.57,-3.57z" />
		<path id="Path 12" class="shp5" d="M274.82,126.66l-24.97,-33.88l-5.74,4.23l24.97,33.88z" />
		<path id="Path 13" class="shp6" d="M266.59,132.34c0,3.94 3.19,7.13 7.13,7.13c3.94,0 7.13,-3.19 7.13,-7.13c0,-3.94 -3.19,-7.13 -7.13,-7.13c-3.94,0 -7.13,3.19 -7.13,7.13z" />
		<path id="Path 14" class="shp7" d="M270.16,130.56c0,1.97 1.6,3.57 3.57,3.57c1.97,0 3.57,-1.6 3.57,-3.57c0,-1.97 -1.6,-3.57 -3.57,-3.57c-1.97,0 -3.57,1.6 -3.57,3.57z" />
		<path id="Path 15" class="shp8" d="M229.18,49.25c0,-3.77 -3.77,-3.77 -3.77,-3.77h-6.69h-6.69c0,0 -3.77,0 -3.77,3.77c0,3.68 -0.41,6.55 -6.28,6.68c-5.86,-0.13 -6.28,-3.01 -6.28,-6.68c0,-3.77 -3.77,-3.77 -3.77,-3.77h-6.69h-6.69c0,0 -3.77,0 -3.77,3.77c0,3.68 -0.41,6.55 -6.28,6.68c-5.86,-0.13 -6.28,-3.01 -6.28,-6.68c0,-3.77 -3.77,-3.77 -3.77,-3.77h-6.69h-6.69c0,0 -3.77,0 -3.77,3.77c0,3.68 -0.41,6.55 -6.28,6.68c-5.86,-0.13 -6.28,-3.01 -6.28,-6.68c0,-3.77 -3.77,-3.77 -3.77,-3.77h-6.69h-6.7c0,0 -3.77,0 -3.77,3.77c0,3.77 -0.42,6.69 -6.69,6.69l3.77,5.44l13.39,-1.91l13.39,1.91l3.35,-4.83l3.35,4.83l13.39,-1.91l13.39,1.91l3.35,-4.83l3.35,4.83l13.39,-1.91l13.39,1.91l3.35,-4.83l3.35,4.83l13.39,-1.91l13.39,1.91l3.77,-5.44c-6.28,0 -6.69,-2.93 -6.69,-6.69z" />
		<path id="Path 16" class="shp9" d="M236.61,55.81c0,-0.02 0,-0.02 -0.02,-0.03c-6.53,-31.63 -34.52,-55.4 -68.08,-55.4c-0.76,0 -1.53,0.02 -2.29,0.03c-0.53,0.02 -1.08,0.05 -1.61,0.08c-1.61,0.08 -3.19,0.23 -4.76,0.42c-0.66,0.08 -1.31,0.18 -1.95,0.27c-0.69,0.11 -1.37,0.23 -2.06,0.36c-0.68,0.13 -1.35,0.26 -2.03,0.4c-0.68,0.14 -1.32,0.29 -1.98,0.45c-0.02,0.02 -0.03,0.02 -0.05,0.02c-25.83,6.38 -45.96,27.2 -51.36,53.4c-0.03,0.13 -0.05,0.24 -0.08,0.37c0.29,-0.03 0.6,-0.08 0.9,-0.11c0.66,-0.08 1.32,-0.18 2,-0.26c8.17,-1 16.94,-1.82 26.15,-2.45c3.77,-0.26 7.64,-0.47 11.56,-0.65c4.06,-0.19 8.21,-0.34 12.41,-0.44c1.61,-0.05 3.24,-0.08 4.87,-0.11c0.53,-0.02 1.06,-0.02 1.6,-0.02c0.45,-0.02 0.89,-0.02 1.34,-0.02c0.15,0 0.31,-0.02 0.47,-0.02h1.21c1.89,-0.03 3.77,-0.03 5.67,-0.03h0.56c0.97,0 1.93,0 2.89,0.02c0.42,-0.02 0.82,0 1.23,0h0.57c0.15,0 0.29,0.02 0.43,0.02h1.21c0.61,0.02 1.21,0.02 1.81,0.03h0.63c0.32,0 0.65,0 0.97,0.02c5.89,0.1 11.66,0.28 17.28,0.55c2.18,0.1 4.32,0.21 6.45,0.32c1.53,0.1 3.05,0.19 4.55,0.29c0.19,0.02 0.37,0.03 0.56,0.03c1.31,0.1 2.61,0.18 3.9,0.29c1.52,0.11 3,0.23 4.48,0.34c1.43,0.13 2.84,0.24 4.24,0.39c1.43,0.13 2.84,0.26 4.24,0.4c1.4,0.14 2.79,0.29 4.16,0.44c1.73,0.19 3.45,0.39 5.13,0.6c0.68,0.08 1.34,0.18 2,0.26c0.31,0.03 0.61,0.08 0.9,0.11c-0.03,-0.13 -0.05,-0.24 -0.08,-0.37z" />
		<path id="Path 17" class="shp8" d="M236.61,55.81c0,-0.02 0,-0.02 -0.02,-0.03c-6.53,-31.63 -34.52,-55.4 -68.08,-55.4c-0.76,0 -1.53,0.02 -2.29,0.03c-0.53,0.02 -1.08,0.05 -1.61,0.08c-1.61,0.08 -3.19,0.23 -4.76,0.42c-0.66,0.08 -1.31,0.18 -1.95,0.27c-0.69,0.11 -1.37,0.23 -2.06,0.36c-0.68,0.13 -1.35,0.26 -2.03,0.4c-0.68,0.14 -1.32,0.29 -1.98,0.45c-0.02,0.02 -0.03,0.02 -0.05,0.02c24.89,6.14 44.48,25.68 50.72,50.53v0.02c0.02,0.03 0.02,0.05 0.03,0.08v0.02c1.53,0.08 3.05,0.18 4.55,0.27c0.19,0.02 0.37,0.03 0.56,0.03v0.02c1.31,0.08 2.61,0.18 3.9,0.27c1.52,0.11 3,0.23 4.48,0.34c1.42,0.13 2.84,0.26 4.24,0.39c1.42,0.13 2.84,0.26 4.24,0.4c1.4,0.14 2.79,0.29 4.16,0.44c1.73,0.19 3.45,0.39 5.13,0.6c0.68,0.08 1.34,0.18 2,0.26c0.31,0.03 0.61,0.08 0.9,0.11c-0.03,-0.13 -0.05,-0.24 -0.08,-0.37z" />
		<path id="Path 18" class="shp0" d="M139.98,14.64c-7.88,0 -14.27,6.39 -14.27,14.27c0,7.88 6.39,14.27 14.27,14.27c7.88,0 14.27,-6.39 14.27,-14.27c0,-7.88 -6.39,-14.27 -14.27,-14.27z" />
		<path id="Path 19" class="shp10" d="M301.57,76.11c-0.21,-0.43 -0.48,-0.85 -0.82,-1.29v-0.02c-0.34,-0.45 -0.74,-0.9 -1.19,-1.36c-0.45,-0.43 -0.95,-0.87 -1.5,-1.29c-0.55,-0.42 -1.15,-0.84 -1.79,-1.27h-0.02c-0.42,-0.27 -0.87,-0.55 -1.34,-0.81c-1.31,-0.76 -2.79,-1.5 -4.43,-2.22c0,-0.02 -0.02,-0.02 -0.03,-0.02c-11.37,-5.03 -30.26,-9.24 -53.83,-12.03c-1.58,-0.19 -3.19,-0.37 -4.82,-0.55c-7.61,-0.82 -15.69,-1.5 -24.1,-2c-1.71,-0.11 -3.43,-0.21 -5.19,-0.31c-2.11,-0.11 -4.27,-0.21 -6.43,-0.29c-5.63,-0.24 -11.4,-0.42 -17.27,-0.5c-0.32,-0.02 -0.64,-0.02 -0.97,-0.02h-0.63c-0.42,-0.02 -0.84,-0.02 -1.27,-0.03h-1.74c-0.32,-0.02 -0.66,-0.02 -1,-0.02c-0.4,0 -0.81,-0.02 -1.22,0c-0.95,-0.02 -1.92,-0.02 -2.89,-0.02h-0.56c-1.9,0 -3.79,0.02 -5.67,0.03h-1.21c-0.6,0.02 -1.21,0.02 -1.81,0.03c-0.53,0 -1.06,0 -1.6,0.02c-5.87,0.08 -11.64,0.26 -17.27,0.5c-3.95,0.16 -7.82,0.35 -11.62,0.6c-8.42,0.5 -16.49,1.18 -24.1,2c-1.63,0.18 -3.24,0.35 -4.82,0.55c-26.99,3.19 -47.87,8.24 -58.3,14.27c-2.64,1.52 -4.61,3.11 -5.84,4.74c-1,1.32 -1.52,2.66 -1.52,4.03c0,0.16 0,0.31 0.03,0.47c0.45,2.89 4.97,5.71 12.14,8.45c8.98,3.43 22.15,6.72 36.73,9.79c2.52,0.55 5.08,1.06 7.67,1.6c11.45,2.29 23.46,4.45 34.76,6.45h84.84c11.3,-2 23.31,-4.16 34.76,-6.45c2.6,-0.53 5.16,-1.05 7.68,-1.6c14.57,-3.06 27.75,-6.35 36.73,-9.79c2.89,-1.1 5.34,-2.21 7.27,-3.34c1.84,-1.06 3.19,-2.14 4.01,-3.24c0.23,-0.31 0.42,-0.61 0.56,-0.94c0.1,-0.23 0.18,-0.45 0.24,-0.69l0.05,-0.24c0.03,-0.16 0.03,-0.31 0.03,-0.47c0,-0.92 -0.23,-1.84 -0.69,-2.74z" />
		<path id="Path 20" class="shp8" d="M301.57,76.11c-0.21,-0.43 -0.48,-0.87 -0.82,-1.3c-0.34,-0.45 -0.74,-0.9 -1.19,-1.36c-0.45,-0.43 -0.95,-0.87 -1.5,-1.29c-0.55,-0.44 -1.15,-0.86 -1.79,-1.27h-0.02c-0.4,-0.27 -0.84,-0.53 -1.29,-0.81c-1.34,-0.77 -2.85,-1.53 -4.53,-2.27c-11.37,-5.03 -30.28,-9.24 -53.83,-12.03c-1.6,-0.19 -3.22,-0.37 -4.87,-0.55c-7.59,-0.82 -15.64,-1.48 -24.02,-2c-1.72,-0.11 -3.45,-0.21 -5.21,-0.29c-2.13,-0.11 -4.27,-0.21 -6.43,-0.31c-5.64,-0.23 -11.4,-0.39 -17.27,-0.47c-0.32,-0.02 -0.64,-0.02 -0.97,-0.02c-0.63,-0.02 -1.27,-0.02 -1.9,-0.03h-1.35c-0.27,-0.02 -0.55,-0.02 -0.82,-0.02h-0.57c-0.4,0 -0.81,-0.02 -1.22,0c-0.95,-0.02 -1.92,-0.02 -2.89,-0.02h-0.56c-1.9,0 -3.79,0.02 -5.67,0.03c-0.13,0 -0.26,0 -0.39,0.02h-1.29c-2.63,0.03 -5.22,0.1 -7.8,0.14c3.09,0.08 6.17,0.18 9.21,0.29c3.97,0.14 7.87,0.34 11.7,0.55c8.21,0.48 16.07,1.1 23.55,1.87c2.18,0.21 4.3,0.45 6.42,0.69c10.58,1.23 20.23,2.74 28.71,4.48c13.35,2.76 23.78,6.08 30.28,9.77c4.9,2.79 7.58,5.79 7.58,8.92c0,3 -4.34,6 -11.5,8.92c-16.12,6.58 -46.5,12.77 -73.58,17.83h25.59c11.19,-2 23.06,-4.14 34.39,-6.42c2.6,-0.52 5.16,-1.05 7.69,-1.6c14.57,-3.08 27.76,-6.37 36.74,-9.82c2.87,-1.1 5.3,-2.21 7.22,-3.34c1.84,-1.06 3.19,-2.14 4.01,-3.24c0.23,-0.31 0.42,-0.61 0.56,-0.94c0.1,-0.23 0.18,-0.45 0.24,-0.69l0.05,-0.24c0.03,-0.16 0.03,-0.31 0.03,-0.47c0,-0.92 -0.23,-1.84 -0.69,-2.74z" />
		<path id="Path 21" class="shp6" d="M302.21,77.94v-0.03c-0.02,-0.16 -0.03,-0.32 -0.06,-0.48c-0.05,-0.32 -0.11,-0.63 -0.21,-0.94c-0.89,-3.27 -3.61,-5.8 -6.98,-6.42h-0.05c-0.52,-0.1 -1.03,-0.14 -1.56,-0.14h-249.67c-0.53,0 -1.05,0.05 -1.56,0.14c-3.4,0.6 -6.14,3.13 -7.03,6.42c-0.08,0.31 -0.15,0.61 -0.21,0.94c-0.03,0.16 -0.05,0.32 -0.07,0.48v0.03c-0.03,0.31 -0.05,0.6 -0.05,0.9c0,0.16 0,0.31 0.03,0.47c0.23,4.71 4.13,8.45 8.88,8.45h249.67c4.66,0 8.5,-3.6 8.88,-8.16c0.02,-0.1 0.02,-0.19 0,-0.29c0.03,-0.16 0.03,-0.31 0.03,-0.47c0,-0.31 -0.02,-0.6 -0.05,-0.9z" />
		<path id="Path 22" class="shp11" d="M287.99,78.84c0,2.95 -2.39,5.35 -5.35,5.35c-2.95,0 -5.35,-2.4 -5.35,-5.35c0,-2.95 2.4,-5.35 5.35,-5.35c2.96,0 5.35,2.4 5.35,5.35zM259.46,78.84c0,2.95 -2.4,5.35 -5.35,5.35c-2.95,0 -5.35,-2.4 -5.35,-5.35c0,-2.95 2.4,-5.35 5.35,-5.35c2.95,0 5.35,2.4 5.35,5.35zM230.93,78.84c0,2.95 -2.39,5.35 -5.35,5.35c-2.95,0 -5.35,-2.4 -5.35,-5.35c0,-2.95 2.4,-5.35 5.35,-5.35c2.96,0 5.35,2.4 5.35,5.35zM202.39,78.84c0,2.95 -2.4,5.35 -5.35,5.35c-2.95,0 -5.35,-2.4 -5.35,-5.35c0,-2.95 2.4,-5.35 5.35,-5.35c2.95,0 5.35,2.4 5.35,5.35zM173.86,78.84c0,2.95 -2.4,5.35 -5.35,5.35c-2.95,0 -5.35,-2.4 -5.35,-5.35c0,-2.95 2.4,-5.35 5.35,-5.35c2.96,0 5.35,2.4 5.35,5.35zM145.33,78.84c0,2.95 -2.4,5.35 -5.35,5.35c-2.95,0 -5.35,-2.4 -5.35,-5.35c0,-2.95 2.4,-5.35 5.35,-5.35c2.95,0 5.35,2.4 5.35,5.35zM116.79,78.84c0,2.95 -2.39,5.35 -5.35,5.35c-2.95,0 -5.35,-2.4 -5.35,-5.35c0,-2.95 2.4,-5.35 5.35,-5.35c2.96,0 5.35,2.4 5.35,5.35zM88.26,78.84c0,2.95 -2.4,5.35 -5.35,5.35c-2.95,0 -5.35,-2.4 -5.35,-5.35c0,-2.95 2.4,-5.35 5.35,-5.35c2.95,0 5.35,2.4 5.35,5.35zM59.73,78.84c0,2.95 -2.39,5.35 -5.35,5.35c-2.95,0 -5.35,-2.4 -5.35,-5.35c0,-2.95 2.4,-5.35 5.35,-5.35c2.96,0 5.35,2.4 5.35,5.35z" />
		<path id="Path 23" class="shp12" d="M302.21,77.94v-0.03c-0.02,-0.16 -0.03,-0.32 -0.06,-0.48c-0.07,-0.32 -0.13,-0.63 -0.21,-0.94c-0.23,-0.74 -0.53,-1.45 -0.92,-2.11c-0.08,0.14 -0.18,0.29 -0.27,0.42v0.02c-0.43,0.66 -0.95,1.26 -1.53,1.77c-1.56,1.4 -3.61,2.26 -5.87,2.26h-249.67c-3.11,0 -5.8,-1.61 -7.4,-4.03c-0.1,-0.15 -0.19,-0.29 -0.27,-0.44c-0.39,0.66 -0.69,1.37 -0.92,2.11c-0.08,0.31 -0.15,0.61 -0.21,0.94c-0.03,0.16 -0.05,0.32 -0.07,0.48v0.03c-0.03,0.31 -0.05,0.6 -0.05,0.9c0,0.16 0,0.31 0.03,0.47c0.23,4.71 4.13,8.45 8.88,8.45h249.67c4.66,0 8.5,-3.6 8.88,-8.16c0.02,-0.1 0.02,-0.19 0,-0.29c0.03,-0.16 0.03,-0.31 0.03,-0.47c0,-0.31 -0.02,-0.6 -0.05,-0.9zM293.34,69.93h-57.07c4.92,0 8.92,3.99 8.92,8.92c0,4.92 -3.99,8.92 -8.92,8.92h57.07c4.92,0 8.92,-3.99 8.92,-8.92c0,-4.92 -3.99,-8.92 -8.92,-8.92z" />
		<path id="Path 24" class="shp13" d="M211.31,105.59h-85.6l8.92,12.48h67.77z" />
		<path id="Path 25" class="shp14" d="M184.56,105.59l-8.92,12.48h26.75l8.92,-12.48z" />
		<path id="Path 26" class="shp5" d="M172.08,96.67h-7.13v57.07h7.13z" />
		<path id="Path 27" class="shp6" d="M168.51,148.39c-3.94,0 -7.13,3.19 -7.13,7.13c0,3.94 3.19,7.13 7.13,7.13c3.94,0 7.13,-3.19 7.13,-7.13c0,-3.94 -3.19,-7.13 -7.13,-7.13z" />
		<path id="Path 28" class="shp7" d="M166.73,150.17c-1.97,0 -3.57,1.6 -3.57,3.57c0,1.97 1.6,3.57 3.57,3.57c1.97,0 3.57,-1.6 3.57,-3.57c0,-1.97 -1.6,-3.57 -3.57,-3.57zM98.85,225.82l-3.26,1.39l3.35,1.48l1.39,3.26l1.48,-3.35l3.26,-1.39l-3.35,-1.48l-1.39,-3.26z" />
	</g>
</svg>