<svg width="40" height="40" xmlns="http://www.w3.org/2000/svg"><circle cx="20.5" cy="20.5" r="17.5" fill="#fff"/><path d="M20 0c11.023 0 20 8.973 20 20.012C40 31.027 31.023 40 20 40S0 31.027 0 20.012C0 8.972 8.977 0 20 0zm-2.278 12.06c-.425 0-.83.096-1.216.29-.483.27-.869.694-1.081 1.196-.135.347-.348 1.389-.348 1.408-.212 1.139-.328 2.991-.328 5.036 0 1.951.116 3.724.29 4.882.019.02.231 1.312.463 1.756a2.43 2.43 0 002.143 1.312h.077c.58-.02 1.795-.52 1.795-.54 2.047-.85 6.082-3.493 7.703-5.248l.116-.116c.212-.213.483-.54.54-.618.31-.405.464-.907.464-1.406 0-.562-.174-1.083-.502-1.507-.077-.078-.367-.406-.637-.676-1.583-1.698-5.715-4.476-7.877-5.325-.328-.133-1.158-.425-1.602-.444z"/></svg>