<?xml version="1.0" encoding="utf-8"?>
<!-- Generator: Adobe Illustrator 22.1.0, SVG Export Plug-In . SVG Version: 6.00 Build 0)  -->
<svg version="1.1" id="Capa_1" xmlns="http://www.w3.org/2000/svg" xmlns:xlink="http://www.w3.org/1999/xlink" x="0px" y="0px"
	 viewBox="0 0 270.4 303.3" style="enable-background:new 0 0 270.4 303.3;" xml:space="preserve">
<style type="text/css">
	.st0{fill:#222220;}
</style>
<g>
	<path class="st0" d="M268.2,117l-32.4-32.4c-2.9-2.9-7.7-2.9-10.6,0l-28.8,28.8c0,0,0,0,0,0s0,0,0,0l-73.9,73.9
		c-1.1,1.1-1.8,2.5-2.1,4.1l-6.4,38.8c-0.4,2.4,0.4,4.8,2.1,6.5c1.4,1.4,3.3,2.2,5.3,2.2c0.4,0,0.8,0,1.2-0.1l38.8-6.4
		c1.6-0.3,3-1,4.1-2.1l102.8-102.8c1.4-1.4,2.2-3.3,2.2-5.3S269.6,118.4,268.2,117z M156.5,218.1l-26.1,4.3l4.3-26.1l66.9-66.9
		l21.8,21.8L156.5,218.1z M234,140.5l-21.8-21.8l18.2-18.2l21.8,21.8L234,140.5z"/>
	<path class="st0" d="M231.6,192.9c-4.1,0-7.5,3.4-7.5,7.5v88H15V15h209.1v48.9c0,4.1,3.4,7.5,7.5,7.5s7.5-3.4,7.5-7.5V7.5
		c0-4.1-3.4-7.5-7.5-7.5H7.5C3.4,0,0,3.4,0,7.5v288.3c0,4.1,3.4,7.5,7.5,7.5h224.1c4.1,0,7.5-3.4,7.5-7.5v-95.5
		C239.1,196.2,235.8,192.9,231.6,192.9z"/>
	<path class="st0" d="M98.2,42.1c-2.9-2.9-7.7-2.9-10.6,0L59,70.7L47.7,59.4c-2.9-2.9-7.7-2.9-10.6,0c-2.9,2.9-2.9,7.7,0,10.6
		l16.6,16.6c1.5,1.5,3.4,2.2,5.3,2.2s3.8-0.7,5.3-2.2l33.9-33.9C101.1,49.8,101.1,45,98.2,42.1z"/>
	<path class="st0" d="M98.2,130.5c-2.9-2.9-7.7-2.9-10.6,0L59,159l-11.3-11.3c-2.9-2.9-7.7-2.9-10.6,0c-2.9,2.9-2.9,7.7,0,10.6
		l16.6,16.6c1.5,1.5,3.4,2.2,5.3,2.2s3.8-0.7,5.3-2.2l33.9-33.9C101.1,138.1,101.1,133.4,98.2,130.5z"/>
	<path class="st0" d="M87.6,218.8L59,247.4l-11.3-11.3c-2.9-2.9-7.7-2.9-10.6,0c-2.9,2.9-2.9,7.7,0,10.6l16.6,16.6
		c1.4,1.4,3.3,2.2,5.3,2.2s3.9-0.8,5.3-2.2l33.9-33.9c2.9-2.9,2.9-7.7,0-10.6C95.2,215.9,90.5,215.9,87.6,218.8z"/>
</g>
</svg>
