<?xml version="1.0" encoding="utf-8"?>
<!-- Generator: Adobe Illustrator 22.1.0, SVG Export Plug-In . SVG Version: 6.00 Build 0)  -->
<svg version="1.1" id="Capa_1" xmlns="http://www.w3.org/2000/svg" xmlns:xlink="http://www.w3.org/1999/xlink" x="0px" y="0px"
	 viewBox="0 0 512 512" style="enable-background:new 0 0 512 512;" xml:space="preserve">
<g>
	<g>
		<path d="M165.5,335.4c-53.5,0-97.1,43.6-97.1,97.1V512h17.7v-79.4c0-43.8,35.6-79.4,79.4-79.4h44.1v-17.7L165.5,335.4L165.5,335.4
			z"/>
	</g>
</g>
<g>
	<g>
		<path d="M289.1,291.3v51.8l-35.3,127.1l-35.3-127.1v-51.8h-17.7v53c0,0.8,0.1,1.6,0.3,2.4l44.1,158.9c1.1,3.8,4.5,6.5,8.5,6.5
			c4,0,7.4-2.6,8.5-6.5l44.1-158.9c0.2-0.8,0.3-1.6,0.3-2.4v-53H289.1z"/>
	</g>
</g>
<g>
	<g>
		<circle cx="200.8" cy="167.7" r="17.7"/>
	</g>
</g>
<g>
	<g>
		<circle cx="306.8" cy="167.7" r="17.7"/>
	</g>
</g>
<g>
	<g>
		<path d="M282.9,223.3c-9.7,9.7-22.7,15.1-36.4,15.1h-10.3V256h10.3c18.5,0,35.8-7.2,48.9-20.2L282.9,223.3z"/>
	</g>
</g>
<g>
	<g>
		<path d="M246.3,203l7.4-51.7l-17.5-2.5l-8.8,61.8c-0.4,2.5,0.4,5.1,2.1,7c1.7,1.9,4.1,3,6.7,3h26.5V203L246.3,203L246.3,203z"/>
	</g>
</g>
<g>
	<g>
		<path d="M342.1,132.4V203c0,48.7-39.6,88.3-88.3,88.3s-88.3-39.6-88.3-88.3h-17.7c0,58.4,47.5,105.9,105.9,105.9
			S359.7,261.4,359.7,203v-70.6H342.1z"/>
	</g>
</g>
<g>
	<g>
		<path d="M342.1,335.4h-44.1v17.7h44.1c43.8,0,79.4,35.6,79.4,79.4V512h17.7v-79.4C439.2,379,395.6,335.4,342.1,335.4z"/>
	</g>
</g>
<g>
	<g>
		<path d="M386.2,432.6h-70.6c-4.9,0-8.8,3.9-8.8,8.8v35.3c0,4.9,3.9,8.8,8.8,8.8h70.6c4.9,0,8.8-3.9,8.8-8.8v-35.3
			C395,436.5,391.1,432.6,386.2,432.6z M377.4,467.9h-53v-17.7h53V467.9z"/>
	</g>
</g>
<g>
	<g>
		<path d="M253.8,26.5c-58.4,0-105.9,47.5-105.9,105.9v79.4h17.7v-79.4c0-48.7,39.6-88.3,88.3-88.3s88.3,39.6,88.3,88.3v53h17.7v-53
			C359.7,74,312.2,26.5,253.8,26.5z"/>
	</g>
</g>
<g>
	<g>
		<path d="M297.2,75.9c-1.1-2.4-3.2-4.2-5.7-4.9c-2.5-0.7-5.3-0.2-7.4,1.3c-84,58.8-127,60.2-127.4,60.2l0.1,17.7
			c1.8,0,45-0.7,129-57.6c13.7,25.2,35.2,45.1,61.6,56.8l7.2-16.1C328.9,121.8,308.5,101.5,297.2,75.9z"/>
	</g>
</g>
<g>
	<g>
		<path d="M420,48.1c-10.6-15.9-23.8-24.4-39.2-25.3c-32.6-2-61.9,31.8-63.1,33.3l13.4,11.5c6.8-8,29.1-28.3,48.6-27.1
			c9.8,0.6,18.1,6.3,25.6,17.5c26.6,39.9,21.1,158.5,17.8,204.9l-6.1-6.1c-14.2-14.2-22-33-22-53v-97.1c0.3-2.8,0.3-5.7-0.1-8.5
			c-1.2-8.5-5.7-16.1-12.6-21.2c-6.7-5-14.9-7.2-23.2-6.2h-25.9v17.7h26.5c0.4,0,0.8,0,1.3-0.1c3.8-0.5,7.7,0.4,10.8,2.8
			c3.1,2.3,5.1,5.7,5.7,9.6c0.2,1.4,0.2,2.8,0,4.1c-0.1,0.4-0.1,0.8-0.1,1.3v97.7c0,24.7,9.6,48,27.1,65.5l19.6,19.6
			c1.7,1.7,3.9,2.6,6.2,2.6c1,0,2-0.2,3-0.5c3.2-1.1,5.5-4,5.8-7.4C439.8,276,456.7,103,420,48.1z"/>
	</g>
</g>
<g>
	<g>
		<path d="M162.1,134.3c-2.1-1.7-5-2.3-7.6-1.6l-35.3,8.8c-3.9,1-6.7,4.5-6.7,8.6v61.8c0,3.3,1.9,6.4,4.9,7.9l35.3,17.7
			c1.2,0.6,2.6,0.9,3.9,0.9c1.6,0,3.2-0.4,4.6-1.3c2.6-1.6,4.2-4.4,4.2-7.5v-88.3C165.5,138.5,164.3,136,162.1,134.3z M147.9,215.2
			l-17.7-8.8V157l17.7-4.4V215.2z"/>
	</g>
</g>
<g>
	<g>
		<path d="M147.8,278.1v-57.4h-17.7v61.8c0,2.8,1.3,5.4,3.5,7.1L169,316l10.6-14.1L147.8,278.1z"/>
	</g>
</g>
<g>
	<g>
		<path d="M253.8,0C253.8,0,253.8,0,253.8,0c-73,0-132.4,59.4-132.4,132.4v17.7H139v-17.7c0-63.3,51.5-114.8,114.8-114.8
			c0,0,0,0,0,0c30.6,0,60.5,12.5,82,34.4l12.6-12.4C323.6,14.5,289.2,0,253.8,0z"/>
	</g>
</g>
<g>
	<g>
		<path d="M388.3,141.5l-35.3-8.8c-2.6-0.6-5.4-0.1-7.6,1.6c-2.1,1.7-3.4,4.2-3.4,7v88.3c0,3.1,1.6,5.9,4.2,7.5
			c1.4,0.9,3,1.3,4.6,1.3c1.4,0,2.7-0.3,3.9-0.9l35.3-17.7c3-1.5,4.9-4.6,4.9-7.9v-61.8C395,146,392.3,142.5,388.3,141.5z
			 M377.4,206.4l-17.7,8.8v-62.7l17.7,4.4V206.4z"/>
	</g>
</g>
</svg>
