<?xml version="1.0" encoding="utf-8"?>
<!-- Generator: Adobe Illustrator 22.1.0, SVG Export Plug-In . SVG Version: 6.00 Build 0)  -->
<svg version="1.1" id="Capa_1" xmlns="http://www.w3.org/2000/svg" xmlns:xlink="http://www.w3.org/1999/xlink" x="0px" y="0px"
	 viewBox="0 0 512 512" style="enable-background:new 0 0 512 512;" xml:space="preserve">
<g>
	<g>
		<rect x="68.3" y="68.3" width="358.4" height="17.1"/>
	</g>
</g>
<g>
	<g>
		<path d="M435.2,0H76.8c-4.7,0-8.5,3.8-8.5,8.5v315.7c0,4.7,3.8,8.5,8.5,8.5h358.4c4.7,0,8.5-3.8,8.5-8.5V8.5
			C443.7,3.8,439.9,0,435.2,0z M426.7,315.7H85.3V17.1h341.3L426.7,315.7L426.7,315.7z"/>
	</g>
</g>
<g>
	<g>
		<path d="M298.7,0h-85.3c-4.7,0-8.5,3.8-8.5,8.5V128c0,4.7,3.8,8.5,8.5,8.5h85.3c4.7,0,8.5-3.8,8.5-8.5V8.5
			C307.2,3.8,303.4,0,298.7,0z M290.1,119.5h-68.3V17.1h68.3V119.5z"/>
	</g>
</g>
<g>
	<g>
		<path d="M59.7,384H0v17.1h51.2v93.9H0V512h59.7c4.7,0,8.5-3.8,8.5-8.5V392.5C68.3,387.8,64.4,384,59.7,384z"/>
	</g>
</g>
<g>
	<g>
		<path d="M483.1,375.5c-4.8,0-9.6,1.2-13.9,3.5l-104.4,56.2H226.1c-7.1,0-12.8-5.7-12.8-12.8s5.7-12.8,12.8-12.8h72.5
			c28.2,0,51.2-23,51.2-51.2c0-4.7-3.8-8.5-8.5-8.5H128.7c-7.2,0-14.9,1.9-21.3,5.7l-51.9,29.6L64,400l51.9-29.6
			c3.9-2.2,8.2-3.3,12.8-3.4h203c-3.8,14.7-17.2,25.6-33,25.6h-72.5c-16.5,0-29.9,13.4-29.9,29.9s13.4,29.9,29.9,29.9h140.8
			c1.4,0,2.8-0.4,4-1L477.3,394c1.8-1,3.8-1.5,5.8-1.5c6.5,0,11.9,5.3,11.9,11.9v2.4c0,4-2.1,7.7-5.6,9.9l-124.9,78.2H59.7V512
			h307.2c1.6,0,3.2-0.5,4.5-1.3l126.9-79.5c8.4-5.2,13.5-14.3,13.6-24.3v-2.5C512,388.4,499,375.5,483.1,375.5z"/>
	</g>
</g>
<g>
	<g>
		<rect x="392.5" y="281.6" width="17.1" height="17.1"/>
	</g>
</g>
<g>
	<g>
		<rect x="358.4" y="281.6" width="17.1" height="17.1"/>
	</g>
</g>
<g>
	<g>
		<rect x="324.3" y="281.6" width="17.1" height="17.1"/>
	</g>
</g>
</svg>
