<?xml version="1.0" encoding="utf-8"?>
<!-- Generator: Adobe Illustrator 22.1.0, SVG Export Plug-In . SVG Version: 6.00 Build 0)  -->
<svg version="1.1" id="Capa_1" xmlns="http://www.w3.org/2000/svg" xmlns:xlink="http://www.w3.org/1999/xlink" x="0px" y="0px"
	 viewBox="0 0 512 512" style="enable-background:new 0 0 512 512;" xml:space="preserve">
<g>
	<g>
		<path d="M290.1,366.9v110.9c0,9.4-7.7,17.1-17.1,17.1H34.1c-9.4,0-17.1-7.7-17.1-17.1V162.1c0-9.4,7.7-17.1,17.1-17.1H128V128
			H34.1C15.3,128,0,143.3,0,162.1v315.7C0,496.7,15.3,512,34.1,512h238.9c18.8,0,34.1-15.3,34.1-34.1V366.9H290.1z"/>
	</g>
</g>
<g>
	<g>
		<path d="M273.1,128h-93.9v17.1h93.9c9.4,0,17.1,7.7,17.1,17.1v153.6h17.1V162.1C307.2,143.3,291.9,128,273.1,128z"/>
	</g>
</g>
<g>
	<g>
		<path d="M256,401.1v59.7H51.2V179.2h34.1v-17.1H42.7c-4.7,0-8.5,3.8-8.5,8.5v298.7c0,4.7,3.8,8.5,8.5,8.5h221.9
			c4.7,0,8.5-3.8,8.5-8.5v-68.3L256,401.1L256,401.1z"/>
	</g>
</g>
<g>
	<g>
		<path d="M264.5,162.1h-42.7v17.1H256v170.7h17.1V170.7C273.1,166,269.3,162.1,264.5,162.1z"/>
	</g>
</g>
<g>
	<g>
		<path d="M238.6,193.9l-17.1-59.7c-1-3.7-4.4-6.2-8.2-6.2h-25.6v-8.5c0-18.8-15.3-34.1-34.1-34.1c-18.8,0-34.1,15.3-34.1,34.1v8.5
			H93.9c-3.8,0-7.2,2.5-8.2,6.2l-17.1,59.7c-0.7,2.6-0.2,5.3,1.4,7.5s4.1,3.4,6.8,3.4h153.6c2.7,0,5.2-1.3,6.8-3.4
			C238.8,199.3,239.3,196.5,238.6,193.9z M88.1,187.7l12.2-42.7H128c4.7,0,8.5-3.8,8.5-8.5v-17.1c0-9.4,7.7-17.1,17.1-17.1
			c9.4,0,17.1,7.7,17.1,17.1v17.1c0,4.7,3.8,8.5,8.5,8.5h27.7l12.2,42.7H88.1z"/>
	</g>
</g>
<g>
	<g>
		<rect x="119.5" y="247.5" width="110.9" height="17.1"/>
	</g>
</g>
<g>
	<g>
		<rect x="68.3" y="239" transform="matrix(0.5998 -0.8001 0.8001 0.5998 -162.1709 170.7294)" width="42.7" height="17.1"/>
	</g>
</g>
<g>
	<g>
		<rect x="119.5" y="298.7" width="110.9" height="17.1"/>
	</g>
</g>
<g>
	<g>
		<rect x="68.2" y="290.1" transform="matrix(0.5998 -0.8001 0.8001 0.5998 -203.1122 191.1884)" width="42.7" height="17.1"/>
	</g>
</g>
<g>
	<g>
		<rect x="119.5" y="349.9" width="110.9" height="17.1"/>
	</g>
</g>
<g>
	<g>
		<rect x="119.5" y="401.1" width="85.3" height="17.1"/>
	</g>
</g>
<g>
	<g>
		<rect x="68.2" y="341.3" transform="matrix(0.5998 -0.8001 0.8001 0.5998 -244.0784 211.6729)" width="42.7" height="17.1"/>
	</g>
</g>
<g>
	<g>
		<rect x="68.2" y="392.5" transform="matrix(0.5998 -0.8001 0.8001 0.5998 -285.0527 232.1598)" width="42.7" height="17.1"/>
	</g>
</g>
<g>
	<g>
		<path d="M503.5,0H230.4c-4.7,0-8.5,3.8-8.5,8.5v128h17.1V17.1h256v290.1H349.9v17.1h153.6c4.7,0,8.5-3.8,8.5-8.5V8.5
			C512,3.8,508.2,0,503.5,0z"/>
	</g>
</g>
<g>
	<g>
		<rect x="230.4" y="93.9" width="273.1" height="17.1"/>
	</g>
</g>
<g>
	<g>
		<path d="M401.1,0h-68.3c-4.7,0-8.5,3.8-8.5,8.5v145.1c0,4.7,3.8,8.5,8.5,8.5h68.3c4.7,0,8.5-3.8,8.5-8.5V8.5
			C409.6,3.8,405.8,0,401.1,0z M392.5,145.1h-51.2v-128h51.2V145.1z"/>
	</g>
</g>
<g>
	<g>
		<rect x="460.8" y="273.1" width="17.1" height="17.1"/>
	</g>
</g>
<g>
	<g>
		<rect x="426.7" y="273.1" width="17.1" height="17.1"/>
	</g>
</g>
<g>
	<g>
		<path d="M390,275.6L364.4,250c-3.3-3.3-8.7-3.3-12.1,0L198.8,403.6c-1.6,1.6-2.5,3.8-2.5,6v25.6c0,4.7,3.8,8.5,8.5,8.5h25.6
			c2.3,0,4.4-0.9,6-2.5L390,287.6C393.4,284.3,393.4,278.9,390,275.6z M226.9,426.7h-13.5v-13.5l145.1-145.1l13.5,13.5L226.9,426.7z
			"/>
	</g>
</g>
<g>
	<g>
		<rect x="337.1" y="276.3" transform="matrix(0.7071 -0.7071 0.7071 0.7071 -106.9542 330.6014)" width="17.1" height="36.2"/>
	</g>
</g>
</svg>
