<?xml version="1.0" encoding="utf-8"?>
<!-- Generator: Adobe Illustrator 22.1.0, SVG Export Plug-In . SVG Version: 6.00 Build 0)  -->
<svg version="1.1" id="Layer" xmlns="http://www.w3.org/2000/svg" xmlns:xlink="http://www.w3.org/1999/xlink" x="0px" y="0px"
	 viewBox="0 0 384 384" style="enable-background:new 0 0 384 384;" xml:space="preserve">
<path d="M170.3,33.5c14.1-2,29.4-2,43.5,0c0.8,0.1,1.5,0.2,2.3,0.2c7.8,0,14.7-5.8,15.8-13.7c1.2-8.8-4.8-16.9-13.6-18.1
	c-17.1-2.4-35.4-2.4-52.5,0c-8.7,1.2-14.8,9.4-13.6,18.1C153.4,28.7,161.5,34.8,170.3,33.5L170.3,33.5z"/>
<path d="M279.3,20.9c-7.9-4-17.5-0.9-21.5,7c-4,7.9-0.9,17.5,7,21.5C318.6,76.9,352,131.6,352,192c0,88.2-71.8,160-160,160
	S32,280.2,32,192c0-60.4,33.4-115,87.3-142.6c7.9-4,11-13.7,7-21.5c-4-7.9-13.7-11-21.5-7C40.1,54,0,119.5,0,192
	c0,105.9,86.1,192,192,192c105.9,0,192-86.1,192-192C384,119.5,343.9,54,279.3,20.9z"/>
<path d="M116.7,228.7c-6.2,6.2-6.2,16.4,0,22.6l64,64c3.1,3.1,7.2,4.7,11.3,4.7c4.1,0,8.2-1.6,11.3-4.7l64-64
	c6.2-6.2,6.2-16.4,0-22.6s-16.4-6.2-22.6,0L208,265.4V80c0-8.8-7.2-16-16-16s-16,7.2-16,16v185.4l-36.7-36.7
	C133.1,222.4,122.9,222.4,116.7,228.7L116.7,228.7z"/>
</svg>
