<?xml version="1.0" encoding="utf-8"?>
<!-- Generator: Adobe Illustrator 22.1.0, SVG Export Plug-In . SVG Version: 6.00 Build 0)  -->
<svg version="1.1" id="Capa_1" xmlns="http://www.w3.org/2000/svg" xmlns:xlink="http://www.w3.org/1999/xlink" x="0px" y="0px"
	 viewBox="0 0 512 512" style="enable-background:new 0 0 512 512;" xml:space="preserve">
<path d="M395.5,324.1c5.5,0,10-4.5,10-10V190.1c0-5.5-4.5-10-10-10s-10,4.5-10,10v124.1C385.5,319.6,390,324.1,395.5,324.1z"/>
<g>
	<path d="M5.4,253.6v84.2c0,5.5,4.5,10,10,10s10-4.5,10-10v-74.2h66v50.5c0,5.5,4.5,10,10,10H196c5.5,0,10-4.5,10-10v-50.5h22.8v7.4
		c0,24.3,16.4,44.8,38.7,51.2c1.5,0.4,3,0.8,4.5,1.1V492H25.4v-74.2c0-5.5-4.5-10-10-10s-10,4.5-10,10V502c0,5.5,4.5,10,10,10H282
		h113.5c5.5,0,10-4.5,10-10V324.1h91c5.5,0,10-4.5,10-10V190.1c0-5.5-4.5-10-10-10h-47.8v-22.6c0-29.3-23.9-53.2-53.2-53.2h-16.4
		c9.1-11.1,14.6-25.9,14.6-42.1c0-34.3-24.7-62.1-55.1-62.1c-30.4,0-55.1,27.9-55.1,62.1c0,16.2,5.6,31,14.6,42.1H282
		c-29.3,0-53.2,23.9-53.2,53.2v86.1H196h-94.5h-86C9.9,243.6,5.4,248,5.4,253.6z M338.8,104.3L338.8,104.3
		c-19.4,0-35.1-18.9-35.1-42.1c0-23.2,15.7-42.1,35.1-42.1c19.3,0,35.1,18.9,35.1,42.1C373.8,85.3,358.1,104.2,338.8,104.3z
		 M486.6,304.1h-49.5c0.1-0.2,0.2-0.3,0.4-0.5c3.1-3.9,5.6-8.2,7.4-12.8c0.6-1.4,1.1-2.8,1.5-4.3c1.6-5.1,2.3-10.3,2.3-15.6v-70.9
		h37.8V304.1L486.6,304.1z M248.8,270.9v-17.3v-96.1c0-18.3,14.9-33.2,33.2-33.2h56.7c0,0,0,0,0.1,0s0,0,0.1,0h56.7
		c18.3,0,33.2,14.9,33.2,33.2v32.6v80.9c0,14.8-9.8,27.4-23.2,31.6V190.1c0-5.5-4.5-10-10-10h-56.8c-5.5,0-10,4.5-10,10v124.1
		c0,5.5,4.5,10,10,10h46.8V492h-36.8V346.5c0-5.5-4.5-10-10-10c-5.5,0-10,4.5-10,10V492H292V314.1V190.1c0-5.5-4.5-10-10-10
		c-5.5,0-10,4.5-10,10v112.5C258.6,298.3,248.8,285.7,248.8,270.9z M348.7,304.1V200.1h36.8v104.1H348.7z M111.5,304.1v-40.5H186
		v40.5H111.5L111.5,304.1z"/>
	<path d="M154.8,445.8c5.5,0,10,4.5,10,10s-4.5,10-10,10h-27.7c-5.5,0-10-4.5-10-10s4.5-10,10-10H154.8z"/>
	<path d="M89.3,445.8c5.5,0,10,4.5,10,10s-4.5,10-10,10H61.6c-5.5,0-10-4.5-10-10s4.5-10,10-10H89.3z"/>
	<path d="M15.4,367.8c5.5,0,10,4.5,10,10s-4.5,10-10,10c-5.5,0-10-4.5-10-10S9.9,367.8,15.4,367.8z"/>
</g>
</svg>
