<?xml version="1.0" encoding="utf-8"?>
<!-- Generator: Adobe Illustrator 22.1.0, SVG Export Plug-In . SVG Version: 6.00 Build 0)  -->
<svg version="1.1" id="Capa_1" xmlns="http://www.w3.org/2000/svg" xmlns:xlink="http://www.w3.org/1999/xlink" x="0px" y="0px"
	 viewBox="0 0 185.5 185.5" style="enable-background:new 0 0 185.5 185.5;" xml:space="preserve">
<style type="text/css">
	.st0{fill:#E7391E;}
</style>
<g transform="matrix(0.362372 0 0 0.362372 153.033 153.033)">
	<g>
		<g>
			<rect x="-379.6" y="-371.1" class="st0" width="110.9" height="17.1"/>
		</g>
	</g>
	<g>
		<g>
			<rect x="-379.6" y="-337" class="st0" width="110.9" height="17.1"/>
		</g>
	</g>
	<g>
		<g>
			<rect x="-379.6" y="-302.8" class="st0" width="76.8" height="17.1"/>
		</g>
	</g>
	<g>
		<g>
			<rect x="-379.6" y="-268.7" class="st0" width="76.8" height="17.1"/>
		</g>
	</g>
	<g>
		<g>
			<rect x="-422.3" y="72.6" class="st0" width="512" height="17.1"/>
		</g>
	</g>
	<g>
		<g>
			<path class="st0" d="M71.7-349.3l-34.1-68.3c-2.1-4.2-7.2-5.9-11.4-3.8c0,0,0,0,0,0l-68.3,34.1c-4.2,2.1-5.9,7.2-3.8,11.5
				c2.1,4.2,7.2,5.9,11.5,3.8l49.4-24.7L1.5-358.2c-59.3,168.9-212,287.4-390.4,302.8l1.5,17.1c185-16,343.5-139,405-314.2
				l13.8-39.4l25.1,50.2c2.1,4.2,7.2,5.9,11.5,3.8C72.1-340,73.8-345.1,71.7-349.3z"/>
		</g>
	</g>
	<g>
		<g>
			<path class="st0" d="M-319.9-12.7h-59.7c-4.7,0-8.5,3.8-8.5,8.5V47c0,4.7,3.8,8.5,8.5,8.5h59.7c4.7,0,8.5-3.8,8.5-8.5V-4.2
				C-311.4-8.9-315.2-12.7-319.9-12.7z M-328.4,38.5h-42.7V4.4h42.7V38.5z"/>
		</g>
	</g>
	<g>
		<g>
			<path class="st0" d="M-226-38.3h-59.7c-4.7,0-8.5,3.8-8.5,8.5V47c0,4.7,3.8,8.5,8.5,8.5h59.7c4.7,0,8.5-3.8,8.5-8.5v-76.8
				C-217.5-34.5-221.3-38.3-226-38.3z M-234.6,38.5h-42.7v-59.7h42.7V38.5z"/>
		</g>
	</g>
	<g>
		<g>
			<path class="st0" d="M-132.2-81h-59.7c-4.7,0-8.5,3.8-8.5,8.5V47c0,4.7,3.8,8.5,8.5,8.5h59.7c4.7,0,8.5-3.8,8.5-8.5V-72.4
				C-123.6-77.2-127.5-81-132.2-81z M-140.7,38.5h-42.7V-63.9h42.7V38.5z"/>
		</g>
	</g>
	<g>
		<g>
			<path class="st0" d="M-38.3-140.7H-98c-4.7,0-8.5,3.8-8.5,8.5V47c0,4.7,3.8,8.5,8.5,8.5h59.7c4.7,0,8.5-3.8,8.5-8.5v-179.2
				C-29.8-136.9-33.6-140.7-38.3-140.7z M-46.8,38.5h-42.7v-162.1h42.7V38.5z"/>
		</g>
	</g>
	<g>
		<g>
			<path class="st0" d="M55.6-260.2H-4.2c-4.7,0-8.5,3.8-8.5,8.5V47c0,4.7,3.8,8.5,8.5,8.5h59.7c4.7,0,8.5-3.8,8.5-8.5v-298.7
				C64.1-256.4,60.3-260.2,55.6-260.2z M47,38.5H4.4v-281.6H47V38.5z"/>
		</g>
	</g>
</g>
</svg>
