<?xml version="1.0" encoding="utf-8"?>
<!-- Generator: Adobe Illustrator 22.0.1, SVG Export Plug-In . SVG Version: 6.00 Build 0)  -->
<svg version="1.1" id="Layer_1" xmlns="http://www.w3.org/2000/svg" xmlns:xlink="http://www.w3.org/1999/xlink" x="0px" y="0px"
	 viewBox="0 0 47 47" style="enable-background:new 0 0 47 47;" xml:space="preserve">
<style type="text/css">
	.st0{fill:#E63C23;}
</style>
<path class="st0" d="M32,34c0,0.5-0.4,0.9-0.9,0.9s-0.9-0.4-0.9-0.9s0.4-0.9,0.9-0.9S32,33.5,32,34z"/>
<path class="st0" d="M16.8,34c0,0.5-0.4,0.9-0.9,0.9S15,34.5,15,34s0.4-0.9,0.9-0.9S16.8,33.5,16.8,34z"/>
<path class="st0" d="M16.2,22h14.7c0.5,0,0.9-0.4,0.9-0.9v-1.8c0-4.5-3.7-8.3-8.3-8.3c-4.6,0-8.3,3.7-8.3,8.3v1.8
	C15.2,21.6,15.6,22,16.2,22z M17.1,19.3c0-3.5,2.9-6.4,6.4-6.4c3.5,0,6.4,2.9,6.4,6.4v0.9H17.1V19.3z"/>
<path class="st0" d="M29,5.5c0-3-2.5-5.5-5.5-5.5c-3,0-5.5,2.5-5.5,5.5s2.5,5.5,5.5,5.5C26.5,11,29,8.5,29,5.5z M23.5,9.2
	c-2,0-3.7-1.6-3.7-3.7s1.6-3.7,3.7-3.7c2,0,3.7,1.6,3.7,3.7S25.5,9.2,23.5,9.2z"/>
<path class="st0" d="M1.1,28.2l8.2,9.5c0.1,0.2,0.2,0.4,0.2,0.6v7.8c0,0.5,0.4,0.9,0.9,0.9h11.3c0.5,0,0.9-0.4,0.9-0.9V33.7
	c0-1.2-0.5-2.4-1.3-3.2c0,0,0,0,0,0l-6.5-6.3c-1.9-1.9-4.8-2.3-7.1-1.1v-7.4c0-3.6-3.2-6.4-6.7-6.4C0.4,9.2,0,9.6,0,10.1v15.2
	C0,26.4,0.4,27.4,1.1,28.2C1.1,28.2,1.1,28.2,1.1,28.2z M1.8,11.1c2.2,0.4,3.9,2.3,3.9,4.5v9.2v0c0,0.2,0.1,0.5,0.3,0.6l6.6,6.6
	c0.4,0.4,0.9,0.4,1.3,0s0.4-0.9,0-1.3l-5.9-5.9c1.7-1.1,3.9-0.9,5.3,0.6c0,0,6.5,6.3,6.5,6.3c0.5,0.5,0.8,1.2,0.8,1.9v11.5h-9.5
	v-6.9c0-0.6-0.2-1.3-0.6-1.8c0,0,0,0,0,0L2.5,27c-0.4-0.5-0.6-1.1-0.6-1.8V11.1z"/>
<path class="st0" d="M46.1,9.2c-3.6,0-6.7,2.9-6.7,6.4V23c-0.8-0.4-1.8-0.7-2.8-0.7c-1.6,0-3.2,0.6-4.3,1.8c0,0-6.5,6.3-6.6,6.3
	c-0.9,0.9-1.3,2-1.3,3.2v12.4c0,0.5,0.4,0.9,0.9,0.9h11.3c0.5,0,0.9-0.4,0.9-0.9v-7.8c0-0.2,0.1-0.4,0.2-0.6c0,0,8.2-9.5,8.2-9.5
	c0.7-0.8,1.1-1.9,1.1-2.9V10.1C47,9.6,46.6,9.2,46.1,9.2z M45.2,25.3c0,0.6-0.2,1.3-0.6,1.8c0,0-8.2,9.5-8.2,9.5
	c-0.4,0.5-0.6,1.1-0.6,1.8v6.9h-9.5V33.7c0-0.7,0.3-1.4,0.8-1.9c0,0,6.5-6.3,6.5-6.3c1.4-1.4,3.7-1.6,5.3-0.6l-5.9,5.9
	c-0.4,0.4-0.4,0.9,0,1.3s0.9,0.4,1.3,0l6.6-6.6c0.2-0.2,0.3-0.4,0.3-0.6c0,0,0,0,0,0v-9.2c0-2.2,1.8-4.1,3.9-4.5V25.3z"/>
</svg>
