<?xml version="1.0" encoding="utf-8"?>
<!-- Generator: Adobe Illustrator 22.0.1, SVG Export Plug-In . SVG Version: 6.00 Build 0)  -->
<svg version="1.1" id="Layer_1" xmlns="http://www.w3.org/2000/svg" xmlns:xlink="http://www.w3.org/1999/xlink" x="0px" y="0px"
	 viewBox="0 0 43.2 47" style="enable-background:new 0 0 43.2 47;" xml:space="preserve">
<style type="text/css">
	.st0{fill:#E63C23;}
</style>
<g>
	<g>
		<g>
			<circle class="st0" cx="21.6" cy="21.3" r="1"/>
			<circle class="st0" cx="21.6" cy="24.6" r="1"/>
			<path class="st0" d="M37,10.3c0.5-0.8,0.9-1.7,0.9-2.7v-3c0-2.6-2.1-4.6-4.6-4.6h-0.6c-2.6,0-4.6,2.1-4.6,4.6v3
				c0,1,0.3,1.9,0.9,2.7h-3.1c0.5-0.8,0.9-1.7,0.9-2.7v-3c0-2.6-2.1-4.6-4.6-4.6h-0.6c-2.6,0-4.6,2.1-4.6,4.6v3c0,1,0.3,1.9,0.9,2.7
				h-3.1c0.5-0.8,0.9-1.7,0.9-2.7v-3c0-2.6-2.1-4.6-4.6-4.6H10C7.4,0,5.3,2.1,5.3,4.6v3c0,1,0.3,1.9,0.9,2.7c-3.4,0.1-6.2,3-6.2,6.4
				v9.6c0,2,1.6,3.6,3.6,3.6c0,0,0,0,0.1,0v13.8C3.7,45.5,5.1,47,7,47H8c0.9,0,1.7-0.4,2.3-0.9c0.6,0.6,1.4,0.9,2.3,0.9h1.1
				c0.9,0,1.7-0.4,2.3-0.9c0.6,0.6,1.4,0.9,2.3,0.9h1.1c0.9,0,1.7-0.4,2.3-0.9c0.6,0.6,1.4,0.9,2.3,0.9h1.1c0.9,0,1.7-0.4,2.3-0.9
				c0.6,0.6,1.4,0.9,2.3,0.9h1.1c0.9,0,1.7-0.4,2.3-0.9c0.6,0.6,1.4,0.9,2.3,0.9h1.1c1.8,0,3.3-1.5,3.3-3.3V29.9c0,0,0,0,0.1,0
				c2,0,3.6-1.6,3.6-3.6v-9.6C43.2,13.3,40.4,10.5,37,10.3z M29.9,4.6c0-1.5,1.2-2.7,2.7-2.7h0.6c1.5,0,2.7,1.2,2.7,2.7v3
				c0,1.5-1.2,2.7-2.7,2.7h-0.6c-1.5,0-2.7-1.2-2.7-2.7V4.6z M18.6,4.6c0-1.5,1.2-2.7,2.7-2.7h0.6c1.5,0,2.7,1.2,2.7,2.7v3
				c0,1.5-1.2,2.7-2.7,2.7h-0.6c-1.5,0-2.7-1.2-2.7-2.7L18.6,4.6L18.6,4.6z M23.9,12.3L21.6,16l-2.3-3.7H23.9z M7.3,4.6
				C7.3,3.2,8.5,2,10,2h0.6c1.5,0,2.7,1.2,2.7,2.7v3c0,1.5-1.2,2.7-2.7,2.7H10c-1.5,0-2.7-1.2-2.7-2.7C7.3,7.6,7.3,4.6,7.3,4.6z
				 M4.7,19.1c-0.5,0-1,0.4-1,1v0V28c0,0,0,0-0.1,0C2.7,28,2,27.2,2,26.3v-9.6c0-2.5,2-4.5,4.5-4.5h6.6c-1.1,1.2-1.8,2.7-1.8,4.5
				v9.6c0,0.3,0,0.6,0.1,0.9l-1.1,0.6l-4.7-2.4v-5.4v0C5.6,19.5,5.2,19.1,4.7,19.1z M15,43.7c0,0.7-0.6,1.3-1.3,1.3h-1.1
				c-0.7,0-1.3-0.6-1.3-1.3V32.9c0-0.5-0.4-1-1-1c-0.5,0-1,0.4-1,1v10.8C9.3,44.5,8.7,45,8,45H7c-0.7,0-1.3-0.6-1.3-1.3V27.6
				l4.2,2.1c0.1,0.1,0.3,0.1,0.4,0.1c0.2,0,0.3,0,0.4-0.1l1.7-0.8c0.6,0.6,1.5,1,2.5,1c0,0,0,0,0.1,0L15,43.7L15,43.7z M26.2,43.7
				c0,0.7-0.6,1.3-1.3,1.3h-1.1c-0.7,0-1.3-0.6-1.3-1.3V32.9c0-0.5-0.4-1-1-1c-0.5,0-1,0.4-1,1v10.8c0,0.7-0.6,1.3-1.3,1.3h-1.1
				c-0.7,0-1.3-0.6-1.3-1.3V27.6l4.2,2.1c0.1,0.1,0.3,0.1,0.4,0.1c0.2,0,0.3,0,0.4-0.1l4.2-2.1L26.2,43.7L26.2,43.7z M27.2,19.1
				c-0.5,0-1,0.4-1,1v0v5.4l-4.7,2.4l-4.7-2.4v-5.4v0c0-0.5-0.4-1-1-1s-1,0.4-1,1v0V28c0,0,0,0-0.1,0c-0.9,0-1.7-0.7-1.7-1.6v-9.6
				c0-2.2,1.7-4.1,3.8-4.4l3.7,6.1c0.2,0.3,0.5,0.5,0.8,0.5c0.3,0,0.7-0.2,0.8-0.5l3.7-6.1c2.2,0.3,3.8,2.2,3.8,4.4v9.6
				c0,0.9-0.7,1.6-1.7,1.6c0,0,0,0-0.1,0v-7.9v0C28.2,19.5,27.8,19.1,27.2,19.1z M37.5,43.7c0,0.7-0.6,1.3-1.3,1.3h-1.1
				c-0.7,0-1.3-0.6-1.3-1.3V32.9c0-0.5-0.4-1-1-1c-0.5,0-1,0.4-1,1v10.8c0,0.7-0.6,1.3-1.3,1.3h-1.1c-0.7,0-1.3-0.6-1.3-1.3V29.9
				c0,0,0,0,0.1,0c1,0,1.8-0.4,2.5-1l1.7,0.8c0.1,0.1,0.3,0.1,0.4,0.1c0.2,0,0.3,0,0.4-0.1l4.2-2.1L37.5,43.7L37.5,43.7z M39.6,28
				C39.5,28,39.5,28,39.6,28l-0.1-7.9v0c0-0.5-0.4-1-1-1c-0.5,0-1,0.4-1,1v0v5.4l-4.7,2.4l-1.1-0.6c0.1-0.3,0.1-0.6,0.1-0.9v-9.6
				c0-1.7-0.7-3.3-1.8-4.5h6.6c2.5,0,4.5,2,4.5,4.5v9.6h0C41.2,27.2,40.5,28,39.6,28z"/>
		</g>
	</g>
</g>
</svg>
