<?xml version="1.0" encoding="utf-8"?>
<!-- Generator: Adobe Illustrator 22.1.0, SVG Export Plug-In . SVG Version: 6.00 Build 0)  -->
<svg version="1.1" id="Layer_1" xmlns="http://www.w3.org/2000/svg" xmlns:xlink="http://www.w3.org/1999/xlink" x="0px" y="0px"
	 viewBox="0 0 103 17" style="enable-background:new 0 0 103 17;" xml:space="preserve">
<style type="text/css">
	.st0{fill:#21A038;}
	.st1{fill:url(#SVGID_1_);}
	.st2{fill:url(#SVGID_2_);}
	.st3{fill:url(#SVGID_3_);}
	.st4{fill:url(#SVGID_4_);}
	.st5{fill:url(#SVGID_5_);}
	.st6{fill:url(#SVGID_6_);}
</style>
<g id="Page-1">
	<g id="SB_RUS_RGB">
		<polygon id="Path" class="st0" points="46.0543823,4.8621359 48.2015114,3.2776699 41.0132942,3.2776699 41.0132942,12.7689323 
			48.2015114,12.7689323 48.2015114,11.1844664 43.06707,11.1844664 43.06707,8.7611647 47.4546814,8.7611647 47.4546814,7.1766992 
			43.06707,7.1766992 43.06707,4.8621359 		"/>
		<path id="Shape" class="st0" d="M35.5832329,6.9747572h-2.4894257V4.8621359h3.9830818l2.1471291-1.584466h-8.1839886v9.4912624
			h4.2786999c2.3960724,0,3.7808189-1.0873785,3.7808189-2.9825249C39.0995483,7.9689322,37.8548355,6.9747572,35.5832329,6.9747572
			z M35.2409363,11.1844664h-2.1471291V8.5592232h2.1471291c1.3069496,0,1.9137459,0.4349518,1.9137459,1.3203888
			C37.1546822,10.765048,36.5012093,11.1844664,35.2409363,11.1844664z"/>
		<path id="Shape_1_" class="st0" d="M54.0205421,3.2776699h-3.9052849v9.4912624h2.0537758v-2.6873789h1.8670692
			c2.4894257,0,4.0453186-1.3048544,4.0453186-3.4019418S56.525528,3.2776699,54.0205421,3.2776699z M53.9738655,8.4970875
			h-1.8203926V4.8621359h1.8203926c1.3225098,0,2.0382195,0.6524272,2.0382195,1.8174758S55.2963753,8.4970875,53.9738655,8.4970875
			z"/>
		<path id="Path_1_" class="st0" d="M27.523716,10.7184467c-0.5445614,0.295145-1.1513596,0.4504852-1.773716,0.4504852
			c-1.851511,0-3.1895771-1.3203878-3.1895771-3.1378641S23.898489,4.8932037,25.75,4.8932037
			c0.6690331-0.0155339,1.3225079,0.201942,1.8670692,0.5902915l1.478096-1.0873785l0,0l-0.0933533-0.093204
			c-0.8557396-0.7611651-2.0070992-1.1495147-3.3140469-1.1495147c-1.4158611,0-2.7072506,0.4815533-3.6407871,1.3514562
			c-0.9335346,0.9009709-1.4625378,2.1592236-1.4314194,3.4640779c-0.0155582,1.3203878,0.4978848,2.5941744,1.4314194,3.5262136
			c0.9802132,0.9165049,2.2871609,1.4291258,3.625227,1.3980579c1.4780979,0,2.7694874-0.5126209,3.6407852-1.4446602
			l-1.322506-0.9786406L27.523716,10.7184467z"/>
		<path id="Shape_2_" class="st0" d="M82.7734146,3.2932038v9.4912624h2.053772V8.9009705h4.3720551v3.8834953h2.0537796V3.2932038
			h-2.0537796v3.8990293h-4.3720551V3.2932038H82.7734146z M79.241539,12.7844658h2.1626892l-4.0141983-9.4912624h-2.0848923
			l-4.0919952,9.4912624h2.0693359l0.8246231-1.9106798h4.3564911L79.241539,12.7844658z M74.729454,9.28932l1.5870132-3.8058248
			L77.8101196,9.28932H74.729454z M95.8584595,8.9475727h1.2758331l3.1428986,3.8213596h2.6450119l-4.2009048-4.9087381
			l3.6719055-4.5825243h-2.3493958l-3.0495453,4.0699029h-1.1358032V3.2776699h-2.0537796v9.4912624h2.0537796V8.9475727z
			 M64.4294586,6.9902911V4.8776698h5.3678207v-1.584466H62.375679v9.4912624h4.2787018
			c2.3960724,0,3.7808151-1.0873785,3.7808151-2.9825239c0-1.8174758-1.2447128-2.8116508-3.5163116-2.8116508H64.4294586
			L64.4294586,6.9902911z M64.4294586,11.1999998V8.5747576h2.1471252c1.3069534,0,1.9137497,0.4349508,1.9137497,1.3203878
			s-0.6379166,1.3203888-1.9137497,1.3203888h-2.1471252V11.1999998z"/>
		<g id="Group">
			<path id="Path_2_" class="st0" d="M14.1897278,3.215534c0.373414,0.4815533,0.6845922,1.0097086,0.9490938,1.5689318
				l-7.1882172,5.2970877L4.9321752,8.186408V5.9184465L7.9350452,7.798058L14.1897278,3.215534z"/>
			<g id="Path_3_" transform="translate(0.000000, 0.155340)">
				
					<linearGradient id="SVGID_1_" gradientUnits="userSpaceOnUse" x1="-65.9093933" y1="129.2527161" x2="-66.1116104" y2="130.2171021" gradientTransform="matrix(3.6096678 0 0 -5.9650488 240.1361084 784.1976929)">
					<stop  offset="0.1444" style="stop-color:#F2E913"/>
					<stop  offset="0.3037" style="stop-color:#E7E518"/>
					<stop  offset="0.5823" style="stop-color:#CADB26"/>
					<stop  offset="0.891" style="stop-color:#A3CD39"/>
				</linearGradient>
				<path class="st1" d="M1.8670695,7.8757281c0-0.1087379,0-0.2019415,0.015559-0.3106794l-1.8203928-0.093204
					c0,0.1242719-0.0155589,0.2640777-0.0155589,0.3883495c0,2.174757,0.886858,4.1475725,2.3182781,5.5766993l1.2913897-1.2893209
					C2.5516617,11.060194,1.8670695,9.5533981,1.8670695,7.8757281z"/>
				
					<linearGradient id="SVGID_2_" gradientUnits="userSpaceOnUse" x1="-76.5107956" y1="114.7843628" x2="-75.6514969" y2="114.9815674" gradientTransform="matrix(5.9746218 0 0 -3.6038835 460.0301514 415.8343506)">
					<stop  offset="0.0592" style="stop-color:#0FA8E0"/>
					<stop  offset="0.5385" style="stop-color:#0099F9"/>
					<stop  offset="0.9234" style="stop-color:#0291EB"/>
				</linearGradient>
				<path class="st2" d="M7.9350452,1.8174757c0.1089125,0,0.2022657,0,0.3111782,0.015534L8.3395767,0.015534
					C8.215106,0.015534,8.0750751,0,7.9506044,0C5.7723565,0,3.7963746,0.8854369,2.3649547,2.314563l1.2913897,1.2893205
					C4.7454681,2.5009708,6.2702417,1.8174757,7.9350452,1.8174757z"/>
				
					<linearGradient id="SVGID_3_" gradientUnits="userSpaceOnUse" x1="-76.6202087" y1="114.821022" x2="-75.6484909" y2="114.9532852" gradientTransform="matrix(5.9746218 0 0 -3.6038837 465.1957092 427.9819641)">
					<stop  offset="0.1226" style="stop-color:#A3CD39"/>
					<stop  offset="0.2846" style="stop-color:#86C339"/>
					<stop  offset="0.8693" style="stop-color:#21A038"/>
				</linearGradient>
				<path class="st3" d="M7.9350452,13.9339809c-0.1089125,0-0.2022657,0-0.3111782-0.0155344l-0.0933533,1.8174753
					c0.1244712,0,0.2645016,0.0155344,0.3889728,0.0155344c2.1782479,0,4.1542296-0.885437,5.585649-2.3145628l-1.2913895-1.2893209
					C11.1246223,13.2660198,9.6154079,13.9339809,7.9350452,13.9339809z"/>
			</g>
			<g id="Path_4_">
				
					<linearGradient id="SVGID_4_" gradientUnits="userSpaceOnUse" x1="-73.5418396" y1="105.8594666" x2="-72.5417557" y2="105.6801224" gradientTransform="matrix(4.9632931 0 0 -2.8893204 372.5580139 307.2058105)">
					<stop  offset="0.0566" style="stop-color:#0291EB"/>
					<stop  offset="0.79" style="stop-color:#0C8ACB"/>
				</linearGradient>
				<path class="st4" d="M11.3580055,3.0291262l1.5403328-1.1339805C11.544713,0.807767,9.8176737,0.1398058,7.9350452,0.1398058
					l0,0v1.8174758C9.2108765,1.9728155,10.3933535,2.361165,11.3580055,3.0291262z"/>
				<path class="st0" d="M15.838973,8.0310678c0-0.4815531-0.0466766-0.9475727-0.1244717-1.4135923l-1.6959209,1.2582526
					c0,0.0466018,0,0.1087379,0,0.1553397c0,1.7864075-0.7779465,3.3864079-2.0071001,4.4893208l1.2291536,1.3514557
					C14.8276434,12.4427185,15.838973,10.3456306,15.838973,8.0310678z"/>
				
					<linearGradient id="SVGID_5_" gradientUnits="userSpaceOnUse" x1="-76.191124" y1="117.2889023" x2="-75.2675552" y2="117.063858" gradientTransform="matrix(5.8501511 0 0 -3.8213596 448.2987976 461.7534485)">
					<stop  offset="0.1324" style="stop-color:#F2E913"/>
					<stop  offset="0.2977" style="stop-color:#EBE716"/>
					<stop  offset="0.5306" style="stop-color:#D9E01F"/>
					<stop  offset="0.8023" style="stop-color:#BBD62D"/>
					<stop  offset="0.9828999" style="stop-color:#A3CD39"/>
				</linearGradient>
				<path class="st5" d="M7.9350452,14.0893202c-1.7892747,0-3.3918428-0.7766991-4.4965258-2.0038834l-1.3536255,1.2271843
					c1.446979,1.6000004,3.5318732,2.5941753,5.8501511,2.5941753V14.0893202L7.9350452,14.0893202z"/>
				
					<linearGradient id="SVGID_6_" gradientUnits="userSpaceOnUse" x1="-67.585022" y1="128.8448944" x2="-67.3416901" y2="129.8092957" gradientTransform="matrix(3.8274925 0 0 -5.8407764 260.1759949 760.8291016)">
					<stop  offset="0.0698" style="stop-color:#A3CD39"/>
					<stop  offset="0.2599" style="stop-color:#81C55F"/>
					<stop  offset="0.9216" style="stop-color:#0FA8E0"/>
				</linearGradient>
				<path class="st6" d="M3.8741691,3.5417476L2.645015,2.1902912C1.0424471,3.6349514,0.0466767,5.7165051,0.0466767,8.0310678
					h1.8203927C1.8670695,6.2601943,2.645015,4.64466,3.8741691,3.5417476z"/>
			</g>
		</g>
	</g>
</g>
</svg>
