<?xml version="1.0" encoding="utf-8"?>
<!-- Generator: Adobe Illustrator 22.1.0, SVG Export Plug-In . SVG Version: 6.00 Build 0)  -->
<svg version="1.1" id="Capa_1" xmlns="http://www.w3.org/2000/svg" xmlns:xlink="http://www.w3.org/1999/xlink" x="0px" y="0px"
	 viewBox="0 0 28.6 35" style="enable-background:new 0 0 28.6 35;" xml:space="preserve">
<g>
	<g id="Phone_x5F_2">
		<g>
			<path d="M3.6,0.7l-1,0.7C1.3,2.4,0.4,3.8,0.1,5.7c-0.7,4.7,1.6,11.5,6.2,17.8c6.6,9.1,15.3,13.7,19.8,10.4l1-0.7
				c0.8-0.6,1.3-1.4,1.4-2.3c0.1-0.9-0.1-1.9-0.6-2.6l-3-4.1c-1.1-1.6-3.4-1.9-5-0.8l-1,0.7c-1.1,0.8-3.5,0-6.9-4.7
				c-2.9-4-3.1-6.1-3-7c0.1-0.5,0.3-0.8,0.6-1.1l1-0.7c1.5-1.1,1.9-3.4,0.8-5l-3-4.1C8,0.7,7.1,0.2,6.2,0C5.3-0.1,4.3,0.1,3.6,0.7z
				 M6.9,2.7l3,4.1c0.5,0.7,0.3,1.7-0.3,2.1l-1,0.7C7.7,10.2,7.2,11,7.1,12c-0.3,2.1,0.8,5,3.3,8.5c5.2,7.2,8.5,6,9.7,5.2l1-0.7
				c0.7-0.5,1.6-0.3,2.1,0.3l3,4.1c0.5,0.7,0.3,1.7-0.3,2.1l-1,0.7c-3.5,2.5-11.2-2.1-17-10C3.8,16.5,1.5,10.2,2.1,6.1
				c0.2-1.4,0.8-2.4,1.6-3l1-0.7C5.1,2.1,5.5,2,5.9,2C6.3,2.1,6.6,2.3,6.9,2.7z"/>
		</g>
	</g>
</g>
</svg>
