<?xml version="1.0" standalone="no"?>
<!DOCTYPE svg PUBLIC "-//W3C//DTD SVG 20010904//EN"
 "http://www.w3.org/TR/2001/REC-SVG-20010904/DTD/svg10.dtd">
<svg version="1.0" xmlns="http://www.w3.org/2000/svg"
 width="256.000000pt" height="256.000000pt" viewBox="0 0 256.000000 256.000000"
 preserveAspectRatio="xMidYMid meet">
<metadata>
Created by potrace 1.11, written by Peter Selinger 2001-2013
</metadata>
<g transform="translate(0.000000,256.000000) scale(0.100000,-0.100000)"
fill="#000000" stroke="none">
<path d="M0 1280 l0 -1280 1280 0 1280 0 0 1280 0 1280 -1280 0 -1280 0 0
-1280z m2460 0 l0 -1180 -1180 0 -1180 0 0 1180 0 1180 1180 0 1180 0 0 -1180z"/>
<path d="M1310 2288 c-61 -103 -78 -137 -99 -193 -13 -33 -24 -68 -26 -78 -2
-9 -7 -22 -10 -27 -8 -12 -8 -174 -1 -205 8 -37 38 -120 57 -157 10 -20 59
-76 107 -125 49 -48 99 -102 111 -120 20 -30 47 -106 58 -163 6 -35 8 -35 33
5 30 48 34 131 10 201 -17 49 -65 130 -97 162 -52 53 -79 112 -52 112 6 0 37
-14 69 -31 115 -61 207 -185 230 -309 14 -75 11 -240 -7 -314 -8 -34 -16 -68
-18 -76 -2 -8 -19 -58 -39 -111 -40 -111 -50 -170 -32 -195 11 -14 20 -4 73
77 90 140 135 234 169 354 25 86 29 126 28 260 -1 148 -13 205 -74 324 -51
102 -107 176 -236 312 -123 130 -164 189 -190 269 0 3 -5 20 -9 38 -10 43 -25
40 -55 -10z"/>
<path d="M898 1888 c-51 -67 -139 -225 -169 -302 -45 -116 -67 -232 -67 -346
0 -123 8 -158 61 -267 93 -188 104 -203 329 -442 75 -80 101 -122 133 -221
l22 -65 35 55 c125 199 160 388 103 555 -37 105 -56 134 -159 233 -93 90 -114
122 -141 225 -17 64 -19 66 -35 50 -73 -79 -38 -238 85 -385 85 -102 69 -128
-41 -62 -82 49 -140 114 -182 203 -36 75 -36 78 -38 216 -2 154 12 228 74 395
36 96 44 134 36 167 -8 31 -17 29 -46 -9z"/>
</g>
</svg>
