<?xml version="1.0" encoding="utf-8"?>
<!-- Generator: Adobe Illustrator 22.1.0, SVG Export Plug-In . SVG Version: 6.00 Build 0)  -->
<svg version="1.1" id="Layer_1" xmlns="http://www.w3.org/2000/svg" xmlns:xlink="http://www.w3.org/1999/xlink" x="0px" y="0px"
	 viewBox="0 0 384 512" style="enable-background:new 0 0 384 512;" xml:space="preserve">
<style type="text/css">
	.st0{fill:url(#SVGID_1_);}
</style>
<linearGradient id="SVGID_1_" gradientUnits="userSpaceOnUse" x1="-488.3906" y1="640.752" x2="-488.3906" y2="639.752" gradientTransform="matrix(384 0 0 -512 187734 328065)">
	<stop  offset="0" style="stop-color:#02D1D1"/>
	<stop  offset="1" style="stop-color:#24BA79"/>
</linearGradient>
<path class="st0" d="M192,0C86.1,0,0,86.1,0,192c0,141.6,177.1,310,184.7,317.1c2.1,1.9,4.7,2.9,7.3,2.9s5.3-1,7.3-2.9
	C206.9,502,384,333.6,384,192C384,86.1,297.9,0,192,0z M192,298.7c-58.8,0-106.7-47.9-106.7-106.7S133.2,85.3,192,85.3
	S298.7,133.2,298.7,192S250.8,298.7,192,298.7z"/>
</svg>
