<?xml version="1.0" encoding="utf-8"?><svg xmlns="http://www.w3.org/2000/svg" xmlns:xlink="http://www.w3.org/1999/xlink"><symbol viewBox="0 0 289 492" id="arrow" xmlns="http://www.w3.org/2000/svg"><path d="M281.2 226.8L62.3 7.9C57.2 2.8 50.4 0 43.2 0s-14 2.8-19 7.9L8.1 24c-10.5 10.5-10.5 27.6 0 38L192 245.9 7.9 430C2.8 435 0 441.8 0 449c0 7.2 2.8 14 7.9 19L24 484.1c5.1 5.1 11.8 7.9 19 7.9s14-2.8 19-7.9L281.2 265c5.1-5.1 7.9-11.9 7.8-19.1.1-7.2-2.7-14-7.8-19.1z"/></symbol><symbol id="iconSheer" viewBox="0 0 270.389 98.131" xml:space="preserve" xmlns="http://www.w3.org/2000/svg"><style>.bst0{fill:#fff}</style><path class="bst0" d="M175.093 51.837c.193 1.161.29 2.078.503 2.967 2.027 8.443 8.554 14.05 17.237 14.715 7.578.58 13.554-2.349 17.964-8.501 2.179-3.04 5.697-3.493 8.537-1.056 1.629 1.399 1.821 3.21.522 4.945-.69.921-1.404 1.826-2.074 2.761-2.878 4.014-6.715 6.67-11.36 8.297-7.56 2.649-15.214 2.979-22.717.25-10.108-3.679-16.129-11.066-17.841-21.715-1.049-6.521-.44-12.95 2.633-18.905 4.323-8.372 11.108-13.599 20.503-15.058 6.244-.97 12.403-.372 18.157 2.37 8.211 3.912 13.199 10.491 15.126 19.34.522 2.397.69 4.876.935 7.327.152 1.527-.543 2.23-2.087 2.291-.711.029-1.425-.026-2.138-.027-13.984-.002-27.968 0-41.951 0h-1.95zm38.312-9.19c-1.19-7.85-10.695-14.72-19.445-14.23-9.059.508-18.22 7.484-18.542 14.23h37.987zM112.43 51.644c.12.839.187 1.419.289 1.993 1.654 9.272 9.272 15.748 18.675 15.86 7.117.084 12.695-2.845 16.785-8.643 2.191-3.108 6.1-3.446 8.791-.748 1.348 1.351 1.465 3.016.313 4.593-.55.752-1.143 1.474-1.672 2.24-3.106 4.497-7.304 7.448-12.492 9.144-7.554 2.469-15.153 2.727-22.544-.163-10.536-4.119-16.375-12.072-17.597-23.338-.582-5.375-.054-10.669 2.191-15.61 4.275-9.406 11.434-15.195 21.833-16.602 5.523-.747 10.982-.318 16.144 1.831 9.202 3.833 14.645 10.854 16.626 20.556.447 2.188.566 4.45.722 6.688.128 1.824-.31 2.217-2.184 2.222-3.344.008-6.688-.02-10.032-.022-11.182-.003-22.366-.001-33.549-.001h-2.3zm38.321-9.184c-1.247-7.79-10.418-14.43-19.363-14.191-8.752.233-17.918 7.166-18.646 14.191h38.01zm101.017 13.58c.665.617 1.078 1.027 1.518 1.403 4.88 4.164 9.766 8.324 14.648 12.485.334.284.679.558.994.863 1.814 1.765 1.953 4.38.337 6.215-1.56 1.774-4.153 2.055-6.063.484-3.388-2.786-6.697-5.666-10.037-8.511-4.76-4.053-9.516-8.11-14.277-12.162-.44-.375-.898-.733-1.648-1.342-.032 1.006-.07 1.634-.07 2.262-.004 11.516-.002 23.032-.003 34.548 0 .55.017 1.099-.02 1.645-.176 2.508-2.122 4.285-4.576 4.198-2.403-.085-4.138-1.871-4.223-4.36-.02-.548-.005-1.097-.005-1.645l-.001-68.112c0-.712-.007-1.425-.013-2.138-.012-1.59.216-1.883 1.726-1.924 2.083-.058 4.166-.067 6.249-.072 5.044-.011 10.1.201 15.13-.056 8.413-.432 17.838 6.423 18.73 16.284.807 8.927-5.219 17.31-14.27 19.09-1.264.248-2.525.516-4.126.844zm-15.27-6.97c.497.058.87.141 1.246.141 4.215.008 8.43.037 12.645-.022 1.192-.018 2.43-.146 3.559-.501 3.923-1.233 6.977-3.518 7.955-7.733 1.656-7.135-3.577-13.657-10.913-13.708-4.324-.031-8.65-.014-12.975-.008-.476 0-.953.064-1.517.105V49.07zM88.48 51.966H63.89c-.033.722-.086 1.362-.086 2.003-.007 6.305.003 12.61-.015 18.913-.002.76-.023 1.557-.244 2.27-.582 1.876-2.572 3.145-4.452 2.962-2.13-.207-3.8-1.78-4.079-3.88-.065-.485-.046-.984-.046-1.477-.002-22.476-.006-44.954.014-67.43 0-.861.083-1.773.37-2.574.69-1.923 2.68-2.992 4.75-2.707 1.894.26 3.47 1.92 3.658 3.89.056.599.038 1.205.038 1.808.002 11.567 0 23.135.006 34.702 0 .699.057 1.398.085 2.05 1.466.381 22.876.402 24.502.025.029-.542.085-1.128.086-1.714.007-5.098.003-10.197.005-15.295 0-.493-.018-.989.02-1.48.172-2.263 1.94-3.969 4.195-4.066a4.39 4.39 0 014.562 3.86c.063.486.045.985.045 1.478.002 15.789.002 31.577 0 47.366 0 .492.017.99-.038 1.478-.257 2.294-2.256 4.062-4.483 3.99-2.292-.073-4.129-1.862-4.283-4.187-.032-.49-.018-.986-.018-1.48l-.001-18.419v-2.086zM24.958 78.349c-5.878-.11-11.416-1.387-16.483-4.438-2.175-1.31-4.169-2.861-5.772-4.837-.822-1.014-1.57-2.12-2.159-3.284-.97-1.918-.635-3.443.941-4.888 1.747-1.602 4.132-2.32 6.444-.683 1.104.781 2.057 1.788 3.013 2.758.882.895 1.633 1.92 2.517 2.814 2.693 2.72 6.02 4.168 9.783 4.569 3.513.373 7.032.324 10.39-.932 1.417-.53 2.838-1.227 4.035-2.139 2.887-2.198 2.994-5.85.191-8.18-1.32-1.098-2.93-1.926-4.526-2.601-3.987-1.687-8.126-2.926-12.337-3.964-3.396-.837-6.747-1.875-10.084-2.931-1.294-.41-2.519-1.067-3.735-1.69-3.226-1.657-4.956-4.37-5.476-7.915-1.043-7.103 1.67-12.75 8.108-15.923 9.811-4.834 19.705-5.165 29.415.356 1.835 1.044 3.48 2.466 5.083 3.862 1.206 1.05 1.997 2.459 2.468 4.018.783 2.594-.53 3.933-2.783 4.433-2.002.444-3.798-.17-5.196-1.742a9.38 9.38 0 01-.72-.897c-2.337-3.39-5.58-5.31-9.6-6.053-4.026-.746-7.987-.557-11.807.908a13.834 13.834 0 00-3.93 2.32c-2.7 2.29-2.68 5.423-.104 7.84 1.682 1.58 3.746 2.482 5.937 3.045 4.82 1.239 9.666 2.383 14.494 3.596 3.092.775 6.09 1.839 8.89 3.364 3.56 1.94 6.231 4.676 7.095 8.791 1.055 5.025.027 9.416-3.907 13.008-4.406 4.023-9.541 6.337-15.44 7.006-1.577.178-3.163.274-4.745.408z"/></symbol></svg>