<?xml version="1.0" encoding="utf-8"?>
<!-- Generator: Adobe Illustrator 22.1.0, SVG Export Plug-In . SVG Version: 6.00 Build 0)  -->
<svg version="1.1" id="Layer_1" xmlns="http://www.w3.org/2000/svg" xmlns:xlink="http://www.w3.org/1999/xlink" x="0px" y="0px"
	 viewBox="0 0 577.2 401.4" style="enable-background:new 0 0 577.2 401.4;" xml:space="preserve">
<style type="text/css">
	.st0{fill-rule:evenodd;clip-rule:evenodd;fill:#3B4F62;}
	.st1{fill-rule:evenodd;clip-rule:evenodd;fill:#FFFFFF;}
	.st2{fill:#3B4F62;}
	.st3{fill:#FFFFFF;}
</style>
<path class="st0" d="M59.2,156.7c-0.5-2.1-0.9-4.3-1.2-6.4c-4.5-32,8.8-53.9,28.3-65.3c2.1-1.2,4.3-2.3,6.5-3.3
	c-1.9-34.1,13.6-57.6,35.5-70.4c11-6.5,23.7-10.1,36.5-11c12.8-0.9,25.9,1,37.7,5.8c25.6,10.3,45.4,33.7,45.3,70.6c0,1,0,2,0,2.9
	c4.9,1.4,6.8,1.5,13.4,13.4c3.5,0,5.7-1.1,8.9-1.1c-0.3,2.2-0.3,2.2,0.9,11.7c7.6-1.4,9-13.6,11.5-16.9c2.2,1.6,5.7-0.3,9.6,3.6
	c-0.3,0.3-0.5,0.6-0.6,1.1c0.3,0.3,0.6,0.6,1.1,0.9c-2.1,4.6-4,9.2-5.9,13.8c-4,3.2-9,5.5-9.8,10.6c0.8,0.6,1.6,1.3,2.4,2.1
	c10-9,14.4-15.3,28-18.7c0,0.8,0.2,1.6,0.3,2.4c-5.2,2.7-15.3,5.2-10.9,12.6c4.4-0.9,14.9-4,14.9,5.8c-4.6,3.3-4.3,4.9-10,6.3
	c-0.2,2.2-0.3,4.4-0.3,6.8c0.8,0.5,1.6,0.9,2.4,1.6c7-2.7,13.6-7,21-7.9c0,0.6,0,1.3,0,2.1c-4.7,2.4-4.7,2.4-5.2,3.2
	c2.5,5.1,5.9,1.1,9.5,6c3,0,6.3-0.6,10.3,0.9c0.2,0.8,0.3,1.6,0.5,2.5c9.2,5.4,8.7-0.2,9.3,13.3c7,3.8,10.3,13.3,9.6,22.6
	c-5.1,1.8-11.9,8.6-14,14.8h1.4h4.3v4.3v1.2c9.5,2.2,26.8,5.2,32.4,6.1c0.2,2.1,0.2,2.1,0.9,3.6c4,0,7.4,1.6,12.8,2.8
	c0,2.2-0.3,2.5,2.1,5.5c10.3,0,17.7-7.1,5.5-11.1c-14.9-21.3-53.9-49.8-59.8-73.2c-0.8,0-1.6,0-2.2,0c-5.2-9.3-9.2-25.9-17.9-28.3
	c-1.6,1.9-1.6,1.9-3.2,2.5c-0.6-8.4,0.6-34.9-11.1-37.8c-1.3,0.8-2.5,0.9-3.5,0.8c-0.6-3.8-2.7-5.1-4.4-5.2
	c-0.5,0.8-0.8,1.7-1.1,2.7c-2.4-3.8-2.4-3.8-2.5-5.4c-2.2-0.3-2.2-0.3-3.2-1.1c3.6-0.6,7.3-1.3,11.1-1.7c0.6,1.1,1.3,2.4,2.1,3.6
	c1.6,0,3.2,0.2,4.7,0.3c-0.2-3.8-0.3-7.4-0.5-11.1c0.5-0.2,0.9-0.3,1.6-0.3c7.3,21.2,12.6,42.1,22.6,65.3c0.5,0,0.9,0.2,1.6,0.3
	c5.1,16.9,42.5,65.9,55.3,69.1c0,5.4,16.3,17.7,24.2,19.8c11.9,0,35.6-6.2,35.6-21.3c2.1-5.8,2.5-5.7,7.4-9c0-4.9,1.1-7.3,6.6-5.7
	c-0.5,1.9-0.9,3.8-1.4,5.7c0.9,0.9,2.7,4,6.2,4.7c0,0.5,0,0.9,0,1.6c8.4,2.1,8.2,4.9,19.9,2.2c0.8-5.5,5.8-11.1,9-15.3
	c10.9-0.5,19.8-6.2,30.5-7.1c7.4,5.2,27,7.3,37.5,6.3c1.4,5.5,4.3,7.6,4.7,15c-5.8,1.3-5.8,1.3-15.3,2.4c-3.6,5.4-6.5,9.4-8.6,13
	c1.4,0,2.5-0.3,3.1-0.8c0.5-0.4,0.8-1.2,1-2.3l0.4-3.8h3.8h7.9h4.3v4.3c0,2.8-0.5,5.4-1.6,7.8c-1,2.3-2.5,4.4-4.4,6.3h8.6h4.3v4.3
	v53.6v4.3H573h-14.6h-4.3v-4.3v-17.9l-13.3,20.2l-1.3,1.9h-2.3h-10.9h-4.3v-4.3v-15.5c-1.6,0.2-3.4,0.3-5.3,0.3v15.2v4.3h-4.3h-14.6
	h-4.3v-4.3v-13.3c-1.4,0.6-2.8,1.1-4.2,1.7l-9.1,13.9l-1.3,1.9h-2.3h-10.9h-0.4h-3.8h-2.5H443H440l-1-2.8l-9.4-25l-10.3,25.1
	l-1.1,2.6h-2.8h-11.8c-0.1,0.7-0.3,1.4-0.4,2.1c-14.5,0-10.8,1.6-20.6,6.5c-0.2,1.1-0.3,2.4-0.3,3.6c-12.6,6.3-8.9,6.8-12.6,21.7
	c-9,2.5-14.7-2.5-21.3-3c-27.4,8.7-82.4,17.7-78.4,57.2c-0.9,0.3-1.9,0.8-2.7,1.3c-0.5,1.4-0.8,3-1.1,4.6c-1.3,0-2.5,0-3.6,0
	c0,0.5,0,0.9,0,1.6c-3.2,0.6-5.2,1.1-5.9,4.1c-13,3.2-16.4,5.4-20.2,18c-1.3,0.3-2.4,0.6-3.5,0.9c0,0.5,0,0.9,0,1.6
	c-5.1,0.5-11.9,3.8-15.3,6.3c0,0.8,0,1.7,0.2,2.7c-0.8,0-1.6,0-2.2,0.2c-0.6-0.6-1.1-1.1-1.6-1.6c-0.8,0.2-1.4,0.3-2.1,0.6
	c-0.2-0.6-0.3-1.3-0.5-1.9c-21.2,1.3-37.8,7.4-47.4-15.8c-14.9-1.3-27.5-5.8-33.8-18.5c1.4,0,2.8,0,4.3,0.2c0-6,9.8-6.2,14.2-13.3
	c2.2-10.6,0.6-17.1-1.1-26.9c4.1-2.5,5.2-12.2,6.3-16.3c0.8,0.3,1.7,0.6,2.7,1.1c0.1-10.2-0.7-24.8-4.8-37.1h-25.1h-4.3v-4.3v-18.1
	c-0.8,0.3-1.6,0.4-2.3,0.6c-0.7,4.3-2,8.2-3.9,11.6c-2,3.7-4.6,6.5-7.6,8.4c-3.1,2-6.7,2.9-10.7,2.9c-4,0-7.6-0.8-10.8-2.5
	c-0.1-0.1-0.3-0.1-0.4-0.2v13.3v4.3h-4.3H67.5h-4.3v-4.3V272h-2.1H44.1h-2.4l-1.2-2.1l-14.4-25l-1.1,1.3v21.5v4.3h-4.3H4.7H0.5v-4.3
	v-55c-0.7-1.6-0.6-3.4,0-5.3v-10.1v-4.3h4.3h8.5c8.9-6.8,20.1-12.7,25.3-14.4c0,0.8,0,1.7,0,2.7c4.7-0.9,7-5.8,6-10
	C48.2,164.1,53.5,159.9,59.2,156.7L59.2,156.7z M49.7,214.9L41.5,225l21.8,37.9v-43.5C57.6,217,53.3,215.6,49.7,214.9L49.7,214.9z
	 M79.1,210h2h3c0.4-0.6,0.7-1.3,0.9-2.1C84.1,208,81.8,208.9,79.1,210L79.1,210z M86.4,239.5c0,0.6,0,1.3,0,2c0,2.4,0.1,4.4,0.3,6.1
	c0.2,1.5,0.4,2.7,0.7,3.6c0.4,1.1,0.9,1.9,1.6,2.4c0.6,0.4,1.4,0.6,2.5,0.6c1.3,0,2.2-0.2,2.9-0.7c0.6-0.4,1.2-1.2,1.5-2.3
	c0.3-0.8,0.5-1.9,0.6-3.4l0-0.2C93.1,245.3,89.6,242.4,86.4,239.5L86.4,239.5z M454.9,245.9l6.7,16.7v-11.9c-0.6-0.7-1.3-1.4-2-2
	C458.1,247.7,456.5,246.8,454.9,245.9L454.9,245.9z M556.6,214.8c-2.2,0.7-4.4,1.1-6.8,1.1c-1.2,0-2.4-0.1-3.6-0.3
	c0.4,3.1,1.3,6.6,2.6,10.9L556.6,214.8L556.6,214.8z M454.9,195.9c-0.6-0.5-1.1-0.9-1.6-1.3c2.1-1.9,6.6-8.7,10-9.8
	c1.4,1.4,2.4,2.4,4.3,6.2C462.3,191,459.2,195.9,454.9,195.9L454.9,195.9L454.9,195.9z"/>
<path class="st1" d="M170.2,181.4c-1.2,3.1-2.6,6.1-4,8.9c-5.8,11.6-13,21.1-20.4,27.6v-3.8V210h-4.3h-14.9h-4.3v4.3v4.7
	c-14.1-6.4-26-14.8-35.4-24.3c-13-13.2-21.1-28.8-23.4-45c-4.1-29.3,7.9-49.3,25.6-59.6c1.4-0.8,2.8-1.5,4.2-2.2
	c0.1,1.1,0.3,2.2,0.4,3.3c3,21.3,13.6,41.7,30.5,59C136.5,162.4,151.9,173.2,170.2,181.4L170.2,181.4z"/>
<path class="st1" d="M128.3,146c15.4,15.7,36.3,28.7,61.6,37.1c12.8-6.7,26.7-22,36.9-42.4c9-18.1,15.2-40.1,15.3-64
	c0.1-34.2-18.2-55.9-41.8-65.4c-11-4.4-23.2-6.2-35.2-5.4c-12,0.8-23.8,4.3-34,10.3c-22,12.9-36.9,37.6-31.8,74.1
	C102.2,110.3,112.3,129.6,128.3,146L128.3,146z"/>
<path class="st2" d="M161.6,120.3c-0.4-1.2-3.3-9.6-4.1-11.9c-0.2-0.6-0.4-1.2-0.6-1.8c3.6-1.4,7.3-2.7,11-4.1
	c0.4,1.3,0.8,2.6,1.1,3.9c0.3,1,2.5,9.4,2.9,11.1c3.2-0.8,6.5-1.7,9.8-2.6c-0.2-0.5-1-4-1.8-7.5c-0.8-3.5-1.7-6.9-1.7-7.2
	c-0.4-1.7-0.8-3.5-1.3-5.2c-0.2-0.6-1.1-4.5-2-8.4c-1-3.9-1.9-7.8-2.1-8.4c-3.9,1-7.7,2.1-11.5,3.1c0.4,1.1,3.1,9.6,3.4,10.4
	c0.2,0.7,0.4,1.4,0.6,2.1c-3.9,1.4-7.8,2.8-11.6,4.2c-0.3-0.7-0.5-1.3-0.7-2c-0.3-0.9-3.7-10.5-3.9-11.5c-3.7,1-7.5,2.1-11.1,3.1
	c0.3,0.6,1.8,4.1,3.3,7.5c1.5,3.4,3,6.8,3.2,7.2c0.8,1.8,1.5,3.6,2.3,5.4c0.3,0.7,1.6,3.9,2.8,7.3c1.2,3.4,2.3,6.9,2.6,8
	C155.3,122.2,158.5,121.2,161.6,120.3L161.6,120.3z M208.4,99.5c-2,0.8-8.6,2.6-9.7,2.9c-0.2-1.6-0.4-3.2-0.7-4.9
	c1-0.3,6.9-1.8,8-2.1c-0.3-2.5-0.7-5-1.1-7.5c-2,0.8-7.1,2.4-8,2.7c-0.3-1.8-0.6-3.6-1-5.4c0.8-0.2,7.9-2.5,9.6-2.9
	c-0.6-2.6-1.2-5.1-1.8-7.7c-0.9,0.3-5.2,1.8-9.6,3.2c-4.4,1.4-8.9,2.8-10.3,3.2c0.2,0.7,0.9,3.6,1.5,6.5c0.7,2.9,1.3,5.8,1.3,6.2
	c0.4,2,0.8,4,1.1,5.9c0.1,0.5,0.6,3.2,1.1,6c0.5,2.8,1,5.8,1.2,7c1.2-0.3,5.4-1.4,9.6-2.5c4.3-1.1,8.5-2.3,9.4-2.6
	C209,104.9,208.7,102.2,208.4,99.5L208.4,99.5z"/>
<polygon class="st3" points="61.2,267.8 44.1,267.8 26.5,237.4 20.6,244.8 20.6,267.8 4.7,267.8 4.7,197.4 20.6,197.4 20.6,227.1 
	42.7,197.4 58.3,197.4 36.3,224.6 61.2,267.8 "/>
<path class="st3" d="M116.5,241.6c0,7.2-1.3,13.3-4,18.2c-3.3,6.1-8.2,9.1-14.6,9.1c-6.7,0-11.8-2.7-15.5-8.1v22.9H67.5v-69.5h13.6
	l0.9,7.1c1.5-2.3,3.7-4.2,6.4-5.7c2.7-1.5,5.5-2.2,8.4-2.2C109.9,213.5,116.5,222.8,116.5,241.6L116.5,241.6z M101,241.4
	c0-5.3-0.4-9-1.1-11.2c-1.4-3.9-4.2-5.8-8.4-5.8c-4,0-6.7,2-8.1,5.9c-0.8,2.4-1.2,6-1.2,11.1c0,5,0.4,8.7,1.2,11.1
	c1.4,3.9,4.1,5.9,8.1,5.9c4.2,0,7.1-1.9,8.4-5.8C100.6,250.4,101,246.7,101,241.4L101,241.4z"/>
<path class="st3" d="M192.3,267.8h-14.9v-53.6h14.9V267.8L192.3,267.8z M171.4,250.2c0,5.8-1.9,10.2-5.6,13.3
	c-3.4,2.8-8.1,4.3-14,4.3h-25.1v-53.6h14.9v19.2H152C164.9,233.4,171.4,239,171.4,250.2L171.4,250.2z M155.8,250.2
	c0-5-2.7-7.4-8.2-7.4h-6.1v15.6h6.6C153.2,258.4,155.8,255.7,155.8,250.2L155.8,250.2z"/>
<polygon class="st3" points="267.8,267.8 253.3,267.8 253.3,238.9 237.3,267.8 230.1,267.8 215.1,238.9 215.1,267.8 205.3,267.8 
	205.3,214.2 215.9,214.2 235.9,252.3 256.3,214.2 267.8,214.2 267.8,267.8 "/>
<polygon class="st3" points="346,207.9 320.5,207.9 320.5,267.8 304.6,267.8 304.6,197.4 346,197.4 346,207.9 "/>
<path class="st3" d="M399.8,243.8H365c0,10.5,4.7,15.8,14.1,15.8c4.9,0,10.1-1.3,15.7-3.8l2.3,8.1c-6.1,3.4-12.9,5.1-20.6,5.1
	c-8.6,0-15.2-2.5-19.8-7.5c-4.4-4.8-6.6-11.6-6.6-20.3c0-8.5,2.1-15.2,6.3-20.3c4.5-5.4,11-8.1,19.3-8.1c8.1,0,14.2,2.4,18.3,7.1
	c3.9,4.5,5.8,10.8,5.8,19V243.8L399.8,243.8z M386.1,236.2c-0.5-9.9-4-14.8-10.3-14.8c-6.6,0-10.1,4.9-10.6,14.8H386.1L386.1,236.2z
	"/>
<polygon class="st3" points="459.2,267.8 443,267.8 429.8,232.7 415.4,267.8 403.6,267.8 426.8,214.2 437.5,214.2 459.2,267.8 "/>
<polygon class="st3" points="512.6,267.8 497.9,267.8 497.9,236.2 497.6,236.2 476.8,267.8 465.9,267.8 465.9,214.2 480.6,214.2 
	480.6,245.8 480.9,245.8 501.7,214.2 512.6,214.2 512.6,267.8 "/>
<path class="st3" d="M566.2,195.8c0,4.4-1.6,8.1-4.9,11.2c-3.3,3.1-7.1,4.6-11.5,4.6c-4.7,0-8.7-1.5-11.8-4.4
	c-3.1-2.9-4.7-6.8-4.7-11.5h7.6c0.4,4.6,3.3,6.8,8.7,6.8c5.2,0,8.1-2.3,8.6-6.8H566.2L566.2,195.8z M573,267.8h-14.6v-31.6H558
	l-20.8,31.6h-10.9v-53.6H541v31.6h0.3l20.8-31.6H573V267.8L573,267.8z"/>
<path class="st3" d="M232,126.9c10,0,19,4,25.6,10.6c6.5,6.5,10.6,15.6,10.6,25.6c0,10-4,19-10.6,25.6c-6.5,6.5-15.6,10.6-25.6,10.6
	c-10,0-19-4-25.6-10.6c-6.5-6.5-10.6-15.6-10.6-25.6c0-10,4-19,10.6-25.6S222,126.9,232,126.9L232,126.9z"/>
<path class="st0" d="M216.5,151.8l12,9.9c-0.6,1.5-0.1,3.3,1.3,4.4c1.3,0.9,3,0.9,4.3,0.1l2.6,3.4c1.8-1.4,2.1-1.9,2.9-4l-4-1.5
	c0.4-1.5-0.1-3.1-1.4-4c-1.4-1-3.3-0.9-4.5,0.1L216.5,151.8L216.5,151.8z M206.3,169.5l3.3-0.9l0.1,0.5l-3.3,0.9L206.3,169.5
	L206.3,169.5z M208.9,175.9l2.9-1.7l0.3,0.5l-2.9,1.7L208.9,175.9L208.9,175.9z M254.7,176.6l-2.9-1.7l0.3-0.5l2.9,1.7L254.7,176.6
	L254.7,176.6z M257.4,170.3l-3.3-0.9l0.1-0.5l3.3,0.9L257.4,170.3L257.4,170.3z M257.6,156.6l-3.3,0.9l-0.1-0.5l3.3-0.9L257.6,156.6
	L257.6,156.6z M255.1,150.2l-2.9,1.7l-0.3-0.5l2.9-1.7L255.1,150.2L255.1,150.2z M245.5,140.4l-1.7,2.9l-0.5-0.3l1.7-2.9
	L245.5,140.4L245.5,140.4z M239.2,137.6l-0.9,3.3l-0.5-0.1l0.9-3.3L239.2,137.6L239.2,137.6z M225.5,137.4l0.9,3.3l-0.5,0.1
	l-0.9-3.2L225.5,137.4L225.5,137.4z M219.1,139.9l1.7,2.9l-0.5,0.3l-1.7-2.9L219.1,139.9L219.1,139.9z M209.3,149.5l2.9,1.7
	l-0.3,0.5l-2.9-1.7L209.3,149.5L209.3,149.5z M206.6,155.8l3.2,0.9l-0.1,0.5l-3.3-0.9L206.6,155.8L206.6,155.8z M214.5,179.3
	l3.1-3.1l1,1l-3.1,3.1l-0.3-0.3l-1.8,1.8l-0.4-0.4l1.8-1.8L214.5,179.3L214.5,179.3z M248.3,180.5l-3.1-3.1l1-1l3.1,3.1l-0.3,0.3
	l1.8,1.8l-0.4,0.4l-1.8-1.8L248.3,180.5L248.3,180.5z M255.9,163.9h-4.3v-1.4h4.3v0.4h2.5v0.5h-2.5V163.9L255.9,163.9z M249.5,146.7
	l-3.1,3.1l-1-1l3.1-3.1l0.3,0.3l1.8-1.8l0.4,0.4l-1.8,1.8L249.5,146.7L249.5,146.7z M232.8,139.1v4.3h-1.4v-4.3h0.4v-2.5h0.5v2.5
	H232.8L232.8,139.1z M215.7,145.5l3.1,3.1l-1,1l-3.1-3.1l0.3-0.3l-1.8-1.8l0.4-0.4l1.8,1.8L215.7,145.5L215.7,145.5z M232,132.9
	c16.6,0,30.1,13.5,30.1,30.1c0,16.6-13.5,30.1-30.1,30.1c-16.6,0-30.1-13.5-30.1-30.1C201.9,146.4,215.3,132.9,232,132.9L232,132.9z
	 M232,129.7c18.4,0,33.3,14.9,33.3,33.3c0,18.4-14.9,33.3-33.3,33.3c-18.4,0-33.3-14.9-33.3-33.3C198.7,144.6,213.6,129.7,232,129.7
	L232,129.7z M208.1,162.2h4.3v1.4h-4.3v-0.4h-2.5v-0.5h2.5V162.2L208.1,162.2z M224.7,180.8c1.3,0,2.3,1,2.3,2.3
	c0,1.3-1,2.3-2.3,2.3c-1.3,0-2.3-1-2.3-2.3C222.4,181.8,223.4,180.8,224.7,180.8L224.7,180.8z M239.2,180.8c1.3,0,2.3,1,2.3,2.3
	c0,1.3-1,2.3-2.3,2.3c-1.3,0-2.3-1-2.3-2.3C236.9,181.8,238,180.8,239.2,180.8L239.2,180.8z M230.3,161.8c0.7-0.9,2-1.1,2.9-0.5
	c0.9,0.7,1.1,2,0.5,2.9c-0.7,0.9-2,1.1-2.9,0.5C229.8,164.1,229.6,162.7,230.3,161.8L230.3,161.8z"/>
</svg>
