<?xml version="1.0" encoding="utf-8"?><svg xmlns="http://www.w3.org/2000/svg" xmlns:xlink="http://www.w3.org/1999/xlink"><symbol viewBox="0 0 270.4 98.1" id="iconSheer"><path d="M175.1 51.8c.2 1.2.3 2.1.5 3 2 8.4 8.6 14 17.2 14.7 7.6.6 13.6-2.3 18-8.5 2.2-3 5.7-3.5 8.5-1.1 1.6 1.4 1.8 3.2.5 4.9-.7.9-1.4 1.8-2.1 2.8-2.9 4-6.7 6.7-11.4 8.3-7.6 2.6-15.2 3-22.7.2-10.1-3.7-16.1-11.1-17.8-21.7-1-6.5-.4-13 2.6-18.9 4.3-8.4 11.1-13.6 20.5-15.1 6.2-1 12.4-.4 18.2 2.4 8.2 3.9 13.2 10.5 15.1 19.3.5 2.4.7 4.9.9 7.3.2 1.5-.5 2.2-2.1 2.3h-44.1c-.4.1-.9.1-1.8.1zm38.3-9.2c-1.2-7.9-10.7-14.7-19.4-14.2-9.1.5-18.2 7.5-18.5 14.2h37.9zm-101 9c.1.8.2 1.4.3 2 1.7 9.3 9.3 15.7 18.7 15.9 7.1.1 12.7-2.8 16.8-8.6 2.2-3.1 6.1-3.4 8.8-.7 1.3 1.4 1.5 3 .3 4.6-.5.8-1.1 1.5-1.7 2.2-3.1 4.5-7.3 7.4-12.5 9.1-7.6 2.5-15.2 2.7-22.5-.2-10.6-4.1-16.4-12.1-17.6-23.3-.6-5.4-.1-10.7 2.2-15.6 4.3-9.4 11.4-15.2 21.8-16.6 5.5-.7 11-.3 16.1 1.8 9.2 3.8 14.6 10.9 16.6 20.6.4 2.2.6 4.5.7 6.7.1 1.8-.3 2.2-2.2 2.2h-43.5c-.7-.1-1.4-.1-2.3-.1zm38.4-9.1c-1.2-7.8-10.4-14.4-19.4-14.2-8.8.2-17.9 7.2-18.6 14.2h38zm101 13.5c.7.6 1.1 1 1.5 1.4 4.9 4.2 9.8 8.3 14.6 12.5.3.3.7.6 1 .9 1.8 1.8 2 4.4.3 6.2-1.6 1.8-4.2 2.1-6.1.5-3.4-2.8-6.7-5.7-10-8.5-4.8-4.1-9.5-8.1-14.3-12.2-.4-.4-.9-.7-1.6-1.3 0 1-.1 1.6-.1 2.3v36.1c-.2 2.5-2.1 4.3-4.6 4.2-2.4-.1-4.1-1.9-4.2-4.4V21.9c0-1.6.2-1.9 1.7-1.9 2.1-.1 4.2-.1 6.2-.1 5 0 10.1.2 15.1-.1 8.4-.4 17.8 6.4 18.7 16.3.8 8.9-5.2 17.3-14.3 19.1-1.1.2-2.3.5-3.9.8zm-15.3-6.9c.5.1.9.1 1.2.1h12.6c1.2 0 2.4-.1 3.6-.5 3.9-1.2 7-3.5 8-7.7 1.7-7.1-3.6-13.7-10.9-13.7h-13c-.5 0-1 .1-1.5.1v21.7zM88.5 52H63.9c0 .7-.1 1.4-.1 2v18.9c0 .8 0 1.6-.2 2.3-.6 1.9-2.6 3.1-4.5 3-2.1-.2-3.8-1.8-4.1-3.9-.1-.5 0-1 0-1.5V5.4c0-.9.1-1.8.4-2.6.6-2 2.6-3 4.7-2.8 1.9.3 3.5 2 3.7 3.9.1.6 0 1.2 0 1.8v34.7c0 .7.1 1.4.1 2 1.5.4 22.9.4 24.5 0 0-.5.1-1.1.1-1.7V23.9c.2-2.3 1.9-4 4.2-4.1 2.3-.1 4.3 1.6 4.6 3.9.1.5 0 1 0 1.5v48.9c-.3 2.3-2.3 4.1-4.5 4-2.3-.1-4.1-1.9-4.3-4.2V52zM25 78.3c-5.9-.1-11.4-1.4-16.5-4.4-2.2-1.3-4.2-2.9-5.8-4.8-.8-1-1.6-2.1-2.2-3.3-1-1.9-.6-3.4.9-4.9 1.7-1.6 4.1-2.3 6.4-.7C9 61 10 62 10.9 63c.9.9 1.6 1.9 2.5 2.8 2.7 2.7 6 4.2 9.8 4.6 3.5.4 7 .3 10.4-.9 1.4-.5 2.8-1.2 4-2.1 2.9-2.2 3-5.9.2-8.2-1.3-1.1-2.9-1.9-4.5-2.6-4-1.7-8.1-2.9-12.3-4-3.4-.8-6.7-1.9-10.1-2.9-1.3-.4-2.5-1.1-3.7-1.7-3.2-1.7-5-4.4-5.5-7.9-1-7.1 1.7-12.8 8.1-15.9 9.8-4.8 19.7-5.2 29.4.4 1.8 1 3.5 2.5 5.1 3.9 1.2 1 2 2.5 2.5 4 .8 2.6-.5 3.9-2.8 4.4-2 .4-3.8-.2-5.2-1.7-.3-.3-.5-.6-.7-.9-2.3-3.4-5.6-5.3-9.6-6.1-4-.7-8-.6-11.8.9-1.4.5-2.8 1.3-3.9 2.3-2.7 2.3-2.7 5.4-.1 7.8 1.7 1.6 3.7 2.5 5.9 3 4.8 1.2 9.7 2.4 14.5 3.6 3.1.8 6.1 1.8 8.9 3.4 3.6 1.9 6.2 4.7 7.1 8.8 1.1 5 0 9.4-3.9 13-4.4 4-9.5 6.3-15.4 7-1.7.1-3.3.2-4.8.3z"/></symbol><symbol id="logo" viewBox="0 0 145.9 84" xml:space="preserve" xmlns="http://www.w3.org/2000/svg"><style>.bst0{fill-rule:evenodd;clip-rule:evenodd}.bst0,.bst1{fill:#fff}</style><path class="bst0" d="M0 64.6v-3.9h145.9v3.9H0zm0-41.8h3.9v12.7H0V22.8zm142 0h3.9v12.7H142V22.8z"/><path class="bst0" d="M1.2 26.6L.1 22.9 73 0l6.4 2L1.2 26.6z"/><path class="bst0" d="M144.7 26.6l1.2-3.7L73.2.1l-6.5 2 78 24.5z"/><path class="bst1" d="M25.4 40.3v-2.5h11.3c-.2-2.5-1-4.5-2.5-6.1-1.4-1.6-3.4-2.4-5.8-2.4-1.6 0-3.3.4-5.2 1.2l-.8-2.4c2.1-.9 4.1-1.4 6.2-1.4 3.7 0 6.5 1.2 8.5 3.5 2 2.4 3 5.4 3 9.1 0 3.9-1.1 7-3.3 9.2-2.2 2.3-5 3.4-8.4 3.4-2.4 0-4.5-.4-6.4-1.2l.7-2.5c1.6.7 3.4 1.1 5.3 1.1 2.6 0 4.7-.8 6.3-2.5 1.6-1.7 2.4-3.8 2.5-6.4H25.4v-.1zM45.1 34h12.2v17.5h-3.2v-15h-6V41c0 2.7-.2 4.8-.6 6.4-.4 1.5-1.1 2.6-2.2 3.3-.9.7-2.1 1.1-3.5 1.1l-.3-2.5c.7-.1 1.3-.4 1.7-.7.7-.6 1.2-1.4 1.5-2.6.2-1.1.3-2.8.3-5v-7h.1zm20.5-6.9h13.6v21.8l2.1.1-.2 8.4h-2.5l-.2-5.9H63.1l-.2 5.9h-2.5l-.2-8.4 1.8-.1c1.2-2.1 2-3.9 2.4-5.4.8-2.6 1.2-6 1.2-10.2v-6.2zm2.9 2.6v4.6c0 4-.4 7.3-1.2 10-.4 1.3-1 2.9-2 4.6H76V29.7h-7.5zm23.7 22.2c-2.4 0-4.5-.8-6-2.5-1.6-1.7-2.4-3.8-2.4-6.5 0-2.8.8-5.1 2.5-6.8 1.7-1.7 3.7-2.5 6.2-2.5s4.5.8 6.1 2.5c1.6 1.7 2.3 3.8 2.3 6.5 0 3-.9 5.4-2.6 6.9-1.8 1.6-3.8 2.4-6.1 2.4zm.1-2.4c1.6 0 2.8-.6 3.8-1.9 1-1.3 1.5-2.9 1.5-4.9 0-1.7-.4-3.3-1.3-4.6-.9-1.4-2.2-2.1-3.9-2.1-1.7 0-3.1.7-4 2-.9 1.4-1.4 2.9-1.4 4.8s.5 3.5 1.5 4.8c1 1.2 2.3 1.9 3.8 1.9zm11.5 2l1.3-17.5h3.9l3.1 8.8c.7 1.9 1.2 3.5 1.6 4.8h.1c.5-1.6 1.2-3.6 2.1-6l2.8-7.6h3.9l1.2 17.5h-3l-.4-8.4c0-.5-.1-1.5-.1-2.9-.1-1.4-.1-2.5-.1-3.3h-.1c-.3.9-.9 2.8-2 5.7l-3.4 8.8h-2.3l-3.1-8.7c-.6-1.7-1.2-3.6-1.8-5.8h-.1c-.1 3.2-.2 5.3-.3 6.3l-.5 8.3h-2.8zm-95 27.4l.3 1.2c-.7.3-1.5.5-2.5.5-1.3 0-2.4-.4-3.2-1.2-.8-.8-1.2-1.9-1.2-3.2 0-1.4.4-2.5 1.3-3.3.9-.9 2-1.3 3.4-1.3.9 0 1.6.2 2.2.5l-.4 1.2c-.5-.3-1.1-.4-1.8-.4-1 0-1.7.3-2.3.9-.5.6-.8 1.4-.8 2.3 0 1 .3 1.8.9 2.4.6.5 1.3.8 2.2.8.7 0 1.3-.1 1.9-.4zm8.3-3.8v3.3c0 .8 0 1.5.1 2.1h-1.4l-.1-1.1h-.1c-.3.4-.6.7-1.1.9s-1 .4-1.6.4c-.8 0-1.5-.2-2-.7-.5-.5-.7-1.1-.7-1.8 0-1.1.5-1.9 1.4-2.4.9-.6 2.2-.8 3.9-.8v-.2c0-.2 0-.4-.1-.6 0-.2-.1-.4-.3-.6-.1-.2-.3-.4-.6-.5-.3-.1-.6-.2-1.1-.2-.9 0-1.7.2-2.3.6l-.4-1.1c.8-.5 1.8-.8 2.9-.8 2.4-.1 3.5 1.1 3.5 3.5zm-1.5 2.4V76c-2.5 0-3.7.6-3.7 2 0 .5.1.9.4 1.1.3.3.6.4 1.1.4.5 0 1-.1 1.4-.4.4-.3.6-.6.8-1-.1-.2 0-.4 0-.6zm4.6-5.8h6.1v8.7h-1.6V73h-3v2.2c0 1.3-.1 2.4-.3 3.2-.2.8-.6 1.3-1.1 1.7-.5.4-1 .5-1.7.5l-.2-1.2c.4-.1.6-.2.9-.4.4-.3.6-.7.7-1.3.1-.6.2-1.4.2-2.5v-3.5zm12.2 8.9c-1.2 0-2.2-.4-3-1.2-.8-.8-1.2-1.9-1.2-3.2 0-1.4.4-2.5 1.2-3.4.8-.8 1.9-1.3 3.1-1.3 1.2 0 2.3.4 3 1.2.8.8 1.2 1.9 1.2 3.2 0 1.5-.4 2.7-1.3 3.5-.8.8-1.8 1.2-3 1.2zm.1-1.2c.8 0 1.4-.3 1.9-1 .5-.6.8-1.5.8-2.4 0-.9-.2-1.6-.7-2.3-.4-.7-1.1-1-2-1-.9 0-1.5.3-2 1s-.7 1.5-.7 2.4c0 1 .2 1.8.7 2.4.6.6 1.2.9 2 .9zm6.2-7.7h1.6v3.5h4.1v-3.5H46v8.7h-1.6v-3.9h-4.1v3.9h-1.6v-8.7zm13.7 0h1.5v3.7c0 1.1 0 2.3-.1 3.5h.1c.8-1.5 1.2-2.4 1.4-2.7l2.7-4.5h1.9v8.7h-1.5v-3.7c0-1 0-2.2.1-3.6-.6 1.1-1 2-1.5 2.7-.3.5-.8 1.3-1.4 2.4-.7 1.1-1.1 1.8-1.3 2.1h-1.8v-8.6h-.1zm9.9 0h1.6v3.5H68v-3.5h1.6v8.7H68v-3.9h-4.1v3.9h-1.6v-8.7zm8.8 0h7V73h-2.7v7.5h-1.6V73h-2.7v-1.3zm15.2 4.7h-6.1c0 1 .3 1.8.9 2.3.6.5 1.3.7 2.1.7.9 0 1.7-.1 2.4-.5l.3 1.1c-.8.4-1.8.6-2.9.6-1.3 0-2.4-.4-3.1-1.2s-1.2-1.9-1.2-3.2c0-1.3.4-2.5 1.1-3.4.8-.9 1.7-1.3 3-1.3.7 0 1.3.1 1.7.4.5.3.9.6 1.1 1.1.3.4.4.9.5 1.3.1.4.2.9.2 1.3v.8zm-6.1-1.2h4.6c0-.3 0-.6-.1-.8-.1-.3-.2-.6-.3-.8-.2-.3-.4-.5-.7-.7-.3-.2-.7-.3-1.1-.3-.7 0-1.3.3-1.7.8-.4.6-.7 1.2-.7 1.8zm8.1 8.8v-9.4c0-1.2 0-2.1-.1-2.8h1.4l.1 1.5c.7-1.1 1.7-1.7 3.1-1.7 1.1 0 2 .4 2.7 1.2.7.8 1.1 1.9 1.1 3.2 0 1.5-.4 2.6-1.2 3.5s-1.7 1.2-2.8 1.2c-1.2 0-2.1-.5-2.7-1.4V84h-1.6zm1.6-8.6v1.5c0 .3 0 .5.1.6.1.6.4 1 .9 1.3.4.3.9.5 1.5.5.8 0 1.5-.3 1.9-.9.5-.6.7-1.4.7-2.4 0-.9-.2-1.7-.7-2.3-.5-.6-1.1-.9-1.9-.9-.6 0-1.1.2-1.5.5-.5.4-.8.8-.9 1.4-.1.4-.1.6-.1.7zm8.6-3.7h1.6v2.9c.4-.1.9-.1 1.4-.1.7 0 1.4.1 1.9.2.6.2 1.1.5 1.5.9.4.5.6 1.1.6 1.8 0 .8-.3 1.5-.9 2-.8.7-2.1 1-3.8 1-.5 0-1.3 0-2.3-.1v-8.6zm1.5 4.1v3.5c.4 0 .8.1 1.2.1.7 0 1.4-.1 1.9-.4.5-.3.8-.8.8-1.4 0-.5-.2-.8-.5-1.1-.3-.3-.7-.5-1-.6-.4-.1-.8-.1-1.3-.1-.3-.1-.7-.1-1.1 0zm14.5.6h-6.1c0 1 .3 1.8.9 2.3.6.5 1.3.7 2.1.7.9 0 1.7-.1 2.4-.5l.3 1.1c-.8.4-1.8.6-2.9.6-1.3 0-2.4-.4-3.1-1.2s-1.2-1.9-1.2-3.2c0-1.3.4-2.5 1.1-3.4.8-.9 1.7-1.3 3-1.3.7 0 1.3.1 1.7.4.5.3.9.6 1.1 1.1.3.4.4.9.5 1.3.1.4.2.9.2 1.3v.8zm-6.1-1.2h4.6c0-.3 0-.6-.1-.8-.1-.3-.2-.6-.3-.8-.2-.3-.4-.5-.7-.7-.3-.2-.7-.3-1.1-.3-.7 0-1.3.3-1.7.8-.4.6-.6 1.2-.7 1.8zm8.1 8.8v-9.4c0-1.2 0-2.1-.1-2.8h1.4l.1 1.5c.7-1.1 1.7-1.7 3.1-1.7 1.1 0 2 .4 2.7 1.2.7.8 1.1 1.9 1.1 3.2 0 1.5-.4 2.6-1.2 3.5s-1.7 1.2-2.8 1.2c-1.2 0-2.1-.5-2.7-1.4V84h-1.6zm1.6-8.6v1.5c0 .3 0 .5.1.6.1.6.4 1 .9 1.3.4.3.9.5 1.5.5.8 0 1.5-.3 1.9-.9.5-.6.7-1.4.7-2.4 0-.9-.2-1.7-.7-2.3-.5-.6-1.1-.9-1.9-.9-.6 0-1.1.2-1.5.5-.5.4-.8.8-.9 1.4-.1.4-.1.6-.1.7zm12.2 5.2c-1.2 0-2.2-.4-3-1.2-.8-.8-1.2-1.9-1.2-3.2 0-1.4.4-2.5 1.2-3.4.8-.8 1.9-1.3 3.1-1.3 1.2 0 2.3.4 3 1.2.8.8 1.2 1.9 1.2 3.2 0 1.5-.4 2.7-1.3 3.5-.8.8-1.8 1.2-3 1.2zm0-1.2c.8 0 1.4-.3 1.9-1 .5-.6.8-1.5.8-2.4 0-.9-.2-1.6-.7-2.3-.4-.7-1.1-1-2-1-.9 0-1.5.3-2 1s-.7 1.5-.7 2.4c0 1 .2 1.8.7 2.4.7.6 1.3.9 2 .9zm6.3 1v-8.6c.8-.1 1.7-.2 2.8-.2 2.6 0 3.9.7 3.9 2.2 0 .5-.2.9-.5 1.3-.3.3-.8.6-1.3.7.7.1 1.2.3 1.6.7.4.4.6.8.6 1.5 0 1.7-1.5 2.6-4.6 2.6-.8-.1-1.6-.1-2.5-.2zm1.5-7.6v2.6h1.2c.7 0 1.2-.1 1.7-.3.5-.2.7-.6.7-1.1 0-.9-.8-1.3-2.3-1.3-.4 0-.8 0-1.3.1zm0 3.6v3c.4 0 .9.1 1.3.1.7 0 1.3-.1 1.9-.3.5-.2.8-.6.8-1.2s-.2-1-.7-1.2c-.5-.2-1.2-.3-2-.3h-1.3v-.1z"/></symbol></svg>