<?xml version="1.0" encoding="utf-8"?>
<!-- Generator: Adobe Illustrator 22.1.0, SVG Export Plug-In . SVG Version: 6.00 Build 0)  -->
<svg version="1.1" id="Layer_1" xmlns="http://www.w3.org/2000/svg" xmlns:xlink="http://www.w3.org/1999/xlink" x="0px" y="0px"
	 viewBox="0 0 20 20.1" style="enable-background:new 0 0 20 20.1;" xml:space="preserve">
<path class="st0" d="M9,4.3c0.6,0.6,0.4,1.4-0.1,2.1C8.8,6.6,8.6,6.7,8.5,6.9C8.4,7,8.4,7.1,8.2,7.2C7.8,7.4,7.6,7.7,7.4,7.9
	C7.3,8,8,9.4,9.3,10.7s2.7,2,2.8,1.9l0.8-0.8c0.4-0.4,0.6-0.6,1-0.8c0.6-0.4,1.3-0.5,1.9,0c1.9,1.4,3,2.2,3.5,2.8
	c1,1.1,0.9,2.7,0,3.7c-0.3,0.3-0.7,0.7-1.2,1.2c-2.8,2.8-8.7,1.1-13.3-3.5C0.3,10.6-1.4,4.7,1.4,1.9C1.9,1.4,2,1.2,2.5,0.7
	c0.9-0.9,2.6-1,3.7,0C6.8,1.3,7.7,2.4,9,4.3z M14.3,13.3L13.5,14c-1.3,1.3-3.5,0.2-5.6-1.9S4.7,7.8,6,6.5C6.2,6.3,6.4,6,6.7,5.7
	C6.9,5.6,6.9,5.5,7,5.5c0.1-0.1,0.2-0.2,0.2-0.3c-1.2-1.6-2-2.6-2.4-3C4.6,1.9,4.1,2,3.9,2.2C3.4,2.6,3.3,2.8,2.8,3.3
	C1,5.1,2.4,9.9,6.2,13.8c3.9,3.9,8.7,5.3,10.5,3.4c0.5-0.4,0.8-0.8,1.1-1.1c0.2-0.2,0.2-0.7,0-0.9c-0.4-0.4-1.4-1.2-3-2.4
	C14.7,12.9,14.5,13,14.3,13.3z M11.7,0.1c4.3,0.5,7.8,4,8.3,8.3l-2,0.3c-0.4-3.5-3.1-6.2-6.6-6.6L11.7,0.1z M11,4
	c2.6,0.2,4.7,2.3,5,5l-2,0.3c-0.1-1.8-1.5-3.2-3.3-3.3L11,4z"/>
</svg>
