<?xml version="1.0" encoding="utf-8"?>
<!-- Generator: Adobe Illustrator 22.1.0, SVG Export Plug-In . SVG Version: 6.00 Build 0)  -->
<svg version="1.1" id="Слой_1" xmlns="http://www.w3.org/2000/svg" xmlns:xlink="http://www.w3.org/1999/xlink" x="0px" y="0px"
	 viewBox="0 0 22 22" style="enable-background:new 0 0 22 22;" xml:space="preserve">
<path d="M11,22C4.9,22,0,17.1,0,11S4.9,0,11,0s11,4.9,11,11S17.1,22,11,22z M11,20c5,0,9-4,9-9s-4-9-9-9s-9,4-9,9S6,20,11,20z
	 M11,12.4l-3.3,3.3l-1.4-1.4L9.6,11L6.3,7.7l1.4-1.4L11,9.6l3.3-3.3l1.4,1.4L12.4,11l3.3,3.3l-1.4,1.4L11,12.4z"/>
</svg>
