<?xml version="1.0" encoding="utf-8"?>
<!-- Generator: Adobe Illustrator 22.1.0, SVG Export Plug-In . SVG Version: 6.00 Build 0)  -->
<svg version="1.1" id="Layer_1" xmlns="http://www.w3.org/2000/svg" xmlns:xlink="http://www.w3.org/1999/xlink" x="0px" y="0px"
	 viewBox="0 0 22 20.1" style="enable-background:new 0 0 22 20.1;" xml:space="preserve">
<path d="M12.1,0.7c1.1-0.5,2-0.7,3.5-0.7C19.3,0,22,3.1,22,7.1c0,3-1.7,6-4.8,8.8c-1.7,1.5-3.8,3-5.3,3.7L11,20.1l-0.9-0.4
	c-1.5-0.8-3.6-2.3-5.3-3.7C1.7,13.1,0,10.2,0,7.1C0,3.1,2.7,0,6.5,0C7.9,0,8.9,0.2,10,0.7c0.4,0.2,0.7,0.4,1.1,0.7
	C11.3,1.1,11.7,0.9,12.1,0.7z M15.8,14.4c2.8-2.5,4.2-4.9,4.2-7.3C20,4.2,18.1,2,15.5,2c-1.2,0-1.8,0.1-2.6,0.5
	C12.4,2.7,12,3,11.6,3.4L11,4.2l-0.7-0.8C9.9,3,9.5,2.7,9.1,2.5C8.2,2.1,7.6,2,6.5,2C3.9,2,2,4.1,2,7.1c0,2.4,1.4,4.8,4.2,7.3
	c1.5,1.4,3.5,2.7,4.8,3.4C12.4,17.2,14.3,15.8,15.8,14.4z"/>
</svg>
