<?xml version="1.0" encoding="utf-8"?>
<!-- Generator: Adobe Illustrator 22.1.0, SVG Export Plug-In . SVG Version: 6.00 Build 0)  -->
<svg version="1.1" id="Layer_1" xmlns="http://www.w3.org/2000/svg" xmlns:xlink="http://www.w3.org/1999/xlink" x="0px" y="0px"
	 viewBox="0 0 18 22.3" style="enable-background:new 0 0 18 22.3;" xml:space="preserve">
<path class="st0" d="M9.7,21.8L9,22.3l-0.7-0.6C2.8,16.9,0,12.7,0,9c0-5.2,4.1-9,9-9s9,3.8,9,9C18,12.7,15.2,16.9,9.7,21.8z M2,9
	c0,2.8,2.3,6.4,7,10.7c4.7-4.2,7-7.8,7-10.7c0-4.1-3.2-7-7-7S2,4.9,2,9z M9,4c2.8,0,5,2.2,5,5s-2.2,5-5,5s-5-2.2-5-5S6.2,4,9,4z
	 M9,6C7.3,6,6,7.3,6,9s1.3,3,3,3s3-1.3,3-3S10.7,6,9,6z"/>
</svg>
