<svg xmlns="http://www.w3.org/2000/svg" viewBox="0 0 338 495" width="338" height="495">
	<defs>
		<clipPath clipPathUnits="userSpaceOnUse" id="cp1">
			<path d="M0 1L337 1L337 494L0 494Z" />
		</clipPath>
	</defs>
	<style>
		tspan { white-space:pre }
		.shp0 { fill: #ffffff } 
		.shp1 { fill: #00223a } 
		.shp2 { fill: #00afd9 } 
		.shp3 { opacity: 0.251;mix-blend-mode: multiply;fill: #3498db } 
		.shp4 { fill: #d35400 } 
		.shp5 { fill: #f4d03f } 
		.shp6 { fill: #6c7a89 } 
		.shp7 { fill: #f4f4f4 } 
	</style>
	<g id="Page 1" clip-path="url(#cp1)">
		<path id="Path 1" class="shp0" d="M168.51,494l6.53,-3.02c40.92,-18.89 82.03,-37.48 121.71,-58.9c38.66,-20.86 37.34,-55.71 39.06,-94.72c2.71,-61.61 0.02,-123.33 0.02,-184.97v-10.92l-10.27,-3.73c-30.17,-10.96 -61.04,-22.35 -92.01,-30.79c-22.84,-6.22 -45.65,-10.53 -69.41,-10.27c-22.81,0.24 -44.69,4.67 -66.55,10.93c-29.11,8.34 -58.05,19.45 -86.35,30.21l-10.05,3.82v10.75c0,61.64 -2.69,123.36 0.01,184.97c1.72,39.01 0.4,73.86 39.06,94.72c39.69,21.42 80.79,40 121.71,58.9z" />
		<path id="Path 2" class="shp1" d="M16.78,152.4c0,62.09 -2.66,123.81 0,184.28c1.97,44.9 2.34,66.29 30.88,81.69c38.71,20.89 77.82,38.6 120.84,58.46c43.02,-19.86 82.13,-37.57 120.84,-58.46c28.55,-15.4 28.91,-36.79 30.89,-81.69c2.66,-60.47 0,-122.19 0,-184.28c-146.86,-53.34 -162.22,-53.69 -303.45,0z" />
		<path id="Path 3" class="shp0" d="M28.54,402.06c4.31,6.33 10.4,11.6 19.13,16.31c38.71,20.89 77.83,38.6 120.84,58.46c43.02,-19.86 82.13,-37.57 120.84,-58.46c8.73,-4.71 14.82,-9.98 19.13,-16.31c-40.61,-18.43 -88.58,-29.09 -139.97,-29.09c-51.4,0 -99.36,10.66 -139.97,29.09z" />
		<path id="Path 4" class="shp2" d="M38.93,412.81c2.58,1.95 5.47,3.79 8.74,5.56c38.71,20.89 77.83,38.6 120.84,58.46c43.02,-19.86 82.13,-37.57 120.84,-58.46c3.27,-1.77 6.17,-3.61 8.74,-5.56c-37.81,-16.29 -82.16,-25.67 -129.58,-25.67c-47.43,0 -91.78,9.38 -129.59,25.67z" />
		<path id="Path 5" class="shp0" d="M32.91,184.78l-5.38,2.3l5.54,2.45l2.3,5.38l2.45,-5.54l5.38,-2.3l-5.54,-2.45l-2.3,-5.38zM38.55,324.92l-5.38,2.3l5.54,2.45l2.3,5.38l2.45,-5.54l5.38,-2.3l-5.54,-2.45l-2.3,-5.38zM280.26,254.19l-5.38,2.3l5.54,2.45l2.3,5.38l2.45,-5.54l5.38,-2.3l-5.54,-2.45l-2.3,-5.38zM296.2,179.82l-3.26,1.39l3.35,1.48l1.39,3.26l1.48,-3.35l3.26,-1.39l-3.35,-1.48l-1.39,-3.26zM299.17,339.28l-5.38,2.3l5.54,2.45l2.3,5.38l2.45,-5.54l5.39,-2.3l-5.54,-2.45l-2.3,-5.38zM246.43,319.68c-1.49,0 -2.93,0.2 -4.3,0.58c0.04,-0.56 0.08,-1.1 0.08,-1.63c0,-13.4 -10.87,-24.28 -24.28,-24.28c-0.36,0 -0.7,0.04 -1.05,0.06v-0.04c0,0 -15.73,0.36 -17.84,-10.2l-3.41,-6.25l-1.39,-2.57l-2.31,-4.22l-8.19,-0.28l-6.85,-0.22l-1.93,-0.06l-6.25,-0.22v-0.02l-0.18,0.02l-0.2,-0.02v0.02l-5.9,0.2l-1.91,0.06l-10.79,0.38l-4.24,0.14l-2.43,4.22l-1.33,2.33l-3.72,6.49c-2.11,10.56 -17.84,10.2 -17.84,10.2v0.04c-0.36,-0.02 -0.7,-0.06 -1.05,-0.06c-13.4,0 -24.28,10.87 -24.28,24.28c0,0.54 0.04,1.08 0.08,1.63c-1.37,-0.38 -2.81,-0.58 -4.3,-0.58c-9.32,0 -16.89,7.55 -16.89,16.89v0.36c0.2,9.04 7.49,16.33 16.53,16.53h156.19c9.32,0 16.89,-7.57 16.89,-16.89c0,-9.34 -7.57,-16.89 -16.89,-16.89z" />
		<path id="Path 6" class="shp3" d="M223.58,323.9c-1.08,0 -2.14,0.12 -3.16,0.35c0.67,-1.75 1.05,-3.64 1.05,-5.62c0,-8.75 -7.09,-15.83 -15.83,-15.83c0,0 -11.61,-2.11 -11.61,-10.56v-16.89h-25.33h-25.33v16.89c0,8.44 -11.61,10.56 -11.61,10.56c-8.74,0 -15.83,7.09 -15.83,15.83c0,1.98 0.38,3.87 1.05,5.62c-1.02,-0.22 -2.07,-0.35 -3.16,-0.35c-8.16,0 -14.78,6.61 -14.78,14.78c0,8.16 6.62,14.78 14.78,14.78h54.88h54.88c8.16,0 14.78,-6.61 14.78,-14.78c0,-8.16 -6.61,-14.78 -14.78,-14.78z" />
		<path id="Path 7" class="shp4" d="M194.03,275.35h-25.33h-25.33c0,0 -0.9,18.96 6.15,37.98c0.79,2.12 2.29,-4.21 2.29,-4.21c0,0 9.37,25.87 16.85,31.63v0.03c0.01,0 0.01,-0.01 0.02,-0.02c0.01,0 0.01,0.01 0.02,0.02c0.01,0 0.01,-0.01 0.02,-0.02c0.01,0 0.01,0.01 0.02,0.02v-0.03c7.47,-5.76 16.85,-31.63 16.85,-31.63c0,0 1.51,6.33 2.29,4.21c7.05,-19.02 6.15,-37.98 6.15,-37.98z" />
		<path id="Path 8" class="shp5" d="M168.7,275.35h-25.33c0,0 2.11,25.33 10.55,33.77l4.22,-6.33c0,0 2.11,19 10.55,33.77c8.44,-14.78 10.55,-33.77 10.55,-33.77l4.22,6.33c8.44,-8.44 10.55,-33.77 10.55,-33.77zM168.7,279.57h-19c0,0 4.75,16.89 19,31.66c14.25,-14.78 19,-31.66 19,-31.66z" />
		<path id="Path 9" class="shp6" d="M196.14,275.35l-0.52,2.57l-1.59,7.99h-16.89l-1.27,-6.33l-0.24,-1.14l1.26,-7.91l-0.01,0.1l-0.76,4.72l7.24,0v0h12.77l0,0zM175.63,278.44l-0.18,1.14l0,0l0,0h0l0.18,-1.14zM175.45,279.58h-13.5l0,0h-0.01l-0.09,-0.55l-0.1,-0.61l-1.27,6.34l-0.23,1.14h-16.89l-1.65,-8.23l-0.46,-2.33l8.33,0v0h11.68l-1.01,-6.33h16.89l0,0h-8.44v10.55l6.75,0zM177.14,269.02l0,0l0,0l0,0zM177.14,269.02l-0.08,0.46l0.07,-0.46zM177.06,269.52l-0.16,1l0,0.01l0.17,-1.05z" />
		<path id="Path 10" class="shp7" d="M170.43,0.95h-4.22v34.57h4.22zM170.43,35.22l-2.11,-1.81l-2.11,1.81l-12.84,11.07v224.04h29.93v-224.04z" />
		<path id="Path 11" class="shp3" d="M168.33,33.42l-3.85,12.89v224.04h3.85h14.96v-224.04zM159.04,162.97c-1.83,-4.18 -3.84,0.3 -5.68,7.69c-3.17,12.86 -5.77,34.53 -5.77,34.53c0,0 -6.45,56.56 -6.45,70.16h21.23c0,0 0.02,-1.19 0.04,-3.32c0,-0.44 0.02,-0.94 0.02,-1.47v-0.22c0.02,-0.42 0.02,-0.86 0.02,-1.31c0.28,-22.29 0.86,-96.33 -3.4,-106.05zM160.93,174.52c-2.77,12.91 -4.9,30.68 -4.9,30.68c0,0 -6.44,56.55 -6.44,70.15h12.77c0,0 1.06,-71.28 -1.43,-100.83zM196.14,275.35c0,-13.6 -6.44,-70.15 -6.44,-70.15c0,0 -6.44,-53.69 -11.45,-42.23c-5.01,11.45 -3.21,112.39 -3.21,112.39zM184.8,174.53c-2.49,29.56 -0.97,100.82 -0.97,100.82h12.32c0,-13.6 -6.44,-70.15 -6.44,-70.15c0,0 -2.13,-17.76 -4.9,-30.67zM185.43,64.2h-34.21v11.45h34.21zM185.44,64.2h-21.55v11.45h21.55z" />
	</g>
</svg>