<?xml version="1.0" encoding="utf-8"?>
<!-- Generator: Adobe Illustrator 22.1.0, SVG Export Plug-In . SVG Version: 6.00 Build 0)  -->
<svg version="1.1" id="Layer_1" xmlns="http://www.w3.org/2000/svg" xmlns:xlink="http://www.w3.org/1999/xlink" x="0px" y="0px"
	 viewBox="0 0 512 512" style="enable-background:new 0 0 512 512;" xml:space="preserve">
<style type="text/css">
	.st0{fill:#2DCADD;}
</style>
<path class="st0" d="M512,50v412c0,27.6-22.4,50-50,50h-48.7c-11,0-20-9-20-20s9-20,20-20H462c5.5,0,10-4.5,10-10V277H295.3
	c-11,0-20-9-20-20s9-20,20-20H472V50c0-5.5-4.5-10-10-10H236.1v58.7c0,11-9,20-20,20c-11,0-20-9-20-20V40H50c-5.5,0-10,4.5-10,10
	v186h156.1v-58.7c0-11,9-20,20-20c11,0,20,9,20,20v157.3c0,11-9,20-20,20c-11,0-20-9-20-20V276H40v186c0,5.5,4.5,10,10,10h146.1
	v-58.7c0-11,9-20,20-20c11,0,20,9,20,20V472h98.6c11,0,20,9,20,20s-9,20-20,20H50c-27.6,0-50-22.4-50-50V50C0,22.4,22.4,0,50,0h412
	C489.6,0,512,22.4,512,50z"/>
</svg>
