<?xml version="1.0" encoding="utf-8"?>
<!-- Generator: Adobe Illustrator 22.0.1, SVG Export Plug-In . SVG Version: 6.00 Build 0)  -->
<svg version="1.1" id="Capa_1" xmlns="http://www.w3.org/2000/svg" xmlns:xlink="http://www.w3.org/1999/xlink" x="0px" y="0px"
	 viewBox="0 0 612 612" style="enable-background:new 0 0 612 612;" xml:space="preserve">
<style type="text/css">
	.st0{fill:#FFFFFF;}
	.st1{fill:#DBB877;}
</style>
<g>
	<g id="_x31_0_3_">
		<g>
			<g>
				<path class="st0" d="M197.9,509.6v-0.3l-6.9-0.1c-3.3,0-6.3-1.3-8.6-3.5L10.6,315.5l-0.1-0.1c-2.4-2.4-3.6-5.7-3.4-9.3l0-0.4
					l0-0.4c-0.2-3.6,1-6.9,3.4-9.3l0.1-0.1l171.8-190.3c2.8-2.7,6.2-3.3,8.6-3.3c0.3,0,0.6,0,0.9,0l0.2,0h343.4
					c18.6,0,36.1,7.2,49.2,20.4C597.8,136,605,153.5,605,172v268c0,38.4-31.2,69.6-69.6,69.6H197.9z"/>
				<path class="st1" d="M191,109.4c0.2,0,0.3,0,0.5,0l0.4,0h0.4h343.2c16.7,0,32.4,6.5,44.2,18.3c11.8,11.8,18.3,27.5,18.3,44.3
					v268c0,34.5-28.1,62.6-62.6,62.6H204.9v-0.2l-13.8-0.2c-0.8,0-2.4-0.2-3.6-1.4L15.9,310.9l-0.2-0.3l-0.3-0.3
					c-1.3-1.2-1.4-2.8-1.4-4l0-0.7l0-0.7c-0.1-1.1,0.1-2.7,1.4-3.9l0.3-0.3l0.3-0.3l171.5-189.9C188.3,109.8,189.5,109.4,191,109.4
					L191,109.4 M191,95.4c-4.9,0-9.8,1.7-13.6,5.5L5.5,291.1c-4,4-5.8,9.3-5.5,14.6c-0.3,5.2,1.5,10.6,5.5,14.6l171.8,190.3
					c3.7,3.7,8.6,5.6,13.5,5.6v0.4h344.6c42.3,0,76.6-34.3,76.6-76.6V172c0-42.3-34.3-76.6-76.6-76.6H192.3
					C191.8,95.4,191.4,95.4,191,95.4L191,95.4z"/>
			</g>
		</g>
	</g>
</g>
</svg>
