<?xml version="1.0" encoding="utf-8"?>
<!-- Generator: Adobe Illustrator 22.0.1, SVG Export Plug-In . SVG Version: 6.00 Build 0)  -->
<svg version="1.1" id="Layer_1" xmlns="http://www.w3.org/2000/svg" xmlns:xlink="http://www.w3.org/1999/xlink" x="0px" y="0px"
	 viewBox="0 0 346.9 367" style="enable-background:new 0 0 346.9 367;" xml:space="preserve">
<style type="text/css">
	.st0{fill:#2FCDE0;}
	.st1{fill:#094B53;}
</style>
<path class="st0" d="M287.4,123.7c0.3-0.1,0.3-0.1,0.8,0.1c4.6,1.6,10,1.6,14.8,1.1c1.3-0.1,4.2-0.7,4.9-1.2
	c-1.8,0.2-2.8,0.3-4.9,0.3c-6,0.2-12.9-1.2-18-4.5c-1.8-1.1-5.1-3.8-6.2-5.3l0.8-0.8c1.2,1.1,2.3,2.4,3.6,3.5
	c1.5,1.3,2.6,2.1,4.5,2.9c0.4-0.7,0.5-1.6,0.9-2.4c1.9-3.8,4.8-5.6,8.9-6.6c2-0.5,4.1-0.2,6,0.2c-0.7,0.6-2.2,1.1-2.7,2.1
	c1.2-1,4.4-1,6-0.9c1.9,0.2,4.8,0.8,6.8,1.7c-0.6,0.4-1.4,0.5-2.6,1.6c0.3,0.1,1.7-0.1,2.7,0c0.8,0.1,1.9,0.3,2.9,0.6
	c2.2,0.7,4,1.7,6.1,3c-0.5,0.5-2.2,0-3,1.5c1.2,0,2.6,0.1,4,0.7c2.1,0.8,2.5,1.3,4.1,2.5c-1.6,2.2-4,3.5-6.4,4.1
	c-0.6,0.2-2,0.2-2.3,0.5c0.4,0.2,0.8,0.4,1.2,0.5c0.5,0.1,0.9,0.1,1.3,0.4c-2.7,1.4-8.6,3.2-11.6,2.4c-1.8,0.1-0.5,0.8-0.4,0.8
	l2.4,0.6c-0.7,0.8-2.9,1.2-3.9,1.4c-1.7,0.2-3,0.2-3.8,0.2c-0.5,0-1.1-0.1-1.6-0.2c-1.1-0.1-2.2-0.4-3.2-0.7
	c0.6,0.8,1.5,1.4,2.5,1.9c-1,0.5-3.7,0-4.9-0.5c-3.5-1.2-6.9-3.7-8.4-7.1C288.1,127,287.4,124.9,287.4,123.7L287.4,123.7z"/>
<path class="st0" d="M173.3,131c-0.2-0.6-0.7-0.8-0.5-1.1c6.3-2.1,14.3-4.3,20.1-7.3c2.4-1.3,4.8-2.8,6.9-4.5l1.7-1.7
	c-3.2,1.7-4.7,3.2-9,5.1c-1.4,0.6-2.9,1.2-4.3,1.6c-1.4,0.4-2.8,0.7-4.1,1.1c-1.1-1.6-1.7-5.2-1.7-6.9c0.1-7.1,7.1-13,13.8-15.3
	c6.5-2.2,13.4-2.4,19.9-1.1c0.8,0.2,5.3,1.3,6.2,1.9c-0.2,0.4-0.3,1-0.4,1.4l-0.4,1.5c-0.1,0.5-0.2,0.9-0.4,1.5
	c-2,7-4.5,12.9-10.1,18.3c-3.7,3.6-9,6.2-13.5,6.5c-4.4,0.3-8.6-1.6-11.7-4.9C181.4,128.8,173.2,131.1,173.3,131L173.3,131z"/>
<path class="st0" d="M120.9,104c-0.1-0.5,0.1-1-0.2-1c-5.6,1.7-12.4,4.2-18.1,5c-2.4,0.3-4.8,0.5-7.2,0.3l-2.1-0.4
	c3.2-0.4,5-0.1,9-0.9c1.3-0.3,2.7-0.6,3.9-1c1.2-0.4,2.4-0.9,3.5-1.4c0-1.7-1.5-4.6-2.3-5.7c-3.7-5-11.7-5.7-17.6-3.9
	c-5.7,1.7-10.8,5.1-14.8,9.3c-0.5,0.5-3.1,3.6-3.4,4.5c0.4,0.2,0.7,0.5,1,0.8l1.1,0.9c0.3,0.3,0.6,0.6,1.1,0.9c5,4,9.7,6.9,16.5,8
	c4.4,0.7,9.5-0.2,12.9-2.2c3.3-2,5.3-5.5,5.9-9.4C114.1,106.6,121.1,104,120.9,104L120.9,104z"/>
<path class="st0" d="M214.7,101.9c0.5,0.2,0.7,0.7,1,0.4c2-5.5,4.1-12.4,7-17.4c1.2-2.1,2.6-4.1,4.2-5.9l1.6-1.4
	c-1.6,2.8-2.9,4-4.7,7.7c-0.6,1.2-1.1,2.5-1.5,3.7s-0.7,2.4-1,3.6c1.4,1,4.5,1.6,6,1.6c6.2,0.1,11.6-5.9,13.8-11.6
	c2.1-5.6,2.5-11.6,1.5-17.4c-0.1-0.7-1-4.6-1.5-5.4c-0.4,0.2-0.9,0.2-1.3,0.3l-1.3,0.3c-0.4,0.1-0.8,0.2-1.4,0.3
	c-6.2,1.6-11.4,3.6-16.3,8.3c-3.2,3.1-5.6,7.7-6.1,11.6c-0.4,3.8,1.2,7.6,4,10.4C216.8,94.9,214.6,102,214.7,101.9L214.7,101.9z"/>
<path class="st0" d="M181.2,79.9c0-0.3,0-0.3-0.4-0.8c-3.2-4.3-4.8-9.8-5.8-15c-0.3-1.4-0.6-4.6-0.3-5.4c0.4,1.9,0.6,2.9,1.2,5.2
	c1.7,6.2,5.4,13,10.3,17.2c1.7,1.5,5.5,4.1,7.4,4.8l0.5-1.1c-1.5-0.9-3.2-1.6-4.8-2.6c-1.8-1.2-3-2-4.4-3.7c0.6-0.6,1.5-1,2.2-1.7
	c3.3-3.2,4.3-6.7,4-11.3c-0.2-2.2-1.1-4.3-2.1-6.1c-0.4,1-0.4,2.6-1.4,3.4c0.7-1.5-0.3-4.9-1-6.5c-0.8-1.9-2.4-4.7-3.9-6.5
	c-0.3,0.8,0,1.6-0.8,3.2c-0.2-0.3-0.5-1.7-0.9-2.7c-0.3-0.9-0.9-1.9-1.5-2.8c-1.4-2-3-3.6-5.1-5.3c-0.4,0.7,0.7,2.3-0.6,3.6
	c-0.4-1.2-0.9-2.6-2-4c-1.5-1.9-2.1-2.2-3.9-3.5c-1.7,2.4-2.3,5.2-2.2,7.9c0,0.7,0.4,2.1,0.3,2.5c-0.3-0.4-0.6-0.7-0.9-1.1
	c-0.3-0.4-0.4-0.9-0.8-1.2c-0.6,3.2-0.6,9.9,1.2,12.7c0.5,1.9-0.7,0.7-0.7,0.7l-1.4-2.3c-0.6,1-0.4,3.4-0.2,4.4c0.4,1.8,0.7,3.2,1,4
	c0.2,0.6,0.4,1.1,0.7,1.6c0.5,1.1,1.1,2.1,1.8,3.1c-1-0.4-1.9-1.1-2.7-2c-0.2,1.1,1.2,3.8,2,5c2.4,3.2,6,5.9,10,6.5
	C177.5,80.2,179.9,80.3,181.2,79.9L181.2,79.9z"/>
<path class="st0" d="M23.9,136.3c1-1,1.6-1.8,2.8-2.6c1.1-0.7,2-1.1,3.2-1.4c2-0.6,4.5-0.8,7.1-0.9c1.6-0.2,5.6,0,7.3,0.1
	c1.3,0.1,2.5,0.2,3.8,0.3c6.4,0.5,14.6-2.7,14.4-12c0-1,0.1-1.2-0.3-1.5c-1.9,2.6-3.8,4.2-6.9,5.1c-3.3,0.9-5,1-8.6,1.2l-5.8,0.3
	c0.5-0.3,2.8-0.5,3.5-0.6c1.2-0.2,2.3-0.3,3.6-0.5c2.4-0.3,4.9-0.6,7-1.4c4.7-1.8,8.2-5.7,10.7-11.6c-0.6-0.2-0.8,0.1-1.4,0.1
	c-0.7,1.5-1.6,3.2-2.6,4.6l-0.2,0.3l-0.3,0.3c-2.3-2.4-3.7-3.9-7.2-5.4c-1.6-0.7-3-1-4.6-1.2c-1-0.1-3.3-0.1-4,0.3
	c0.8,1,1.6,4.3,1.2,5.8c-0.4-1-0.3-1.9-1.6-3.7c-1.6-2.2-1.8-1.9-4.4-1c-0.3,0.1-0.6,0.3-0.9,0.4c-0.7,0.3-1.2,0.6-1.8,0.9
	c-0.8,0.4-2.7,1.8-3.3,2.6c2.1,1,3.4,2.5,3.7,4.7c0.1,0.4,0.1,0.5,0.1,0.8c-0.2-0.2-0.3-0.4-0.5-0.8c-1-1.6-2.9-2.7-4.8-3
	c-0.9-0.2-1.2,0.3-1.8,0.9c-2.1,1.9-4.1,4.8-5.2,7.8c0.7,0,1.4-0.2,2.5,0c1.2,0.2,1.8,0.6,2.8,1.1c-0.3,0.1,0,0.1-0.5,0.1
	c-1,0-1.4-0.2-3.2,0.2c-0.6,0.1-1.1,0.3-1.7,0.5c-0.9,0.3-1,0.3-1.5,1.3c-0.6,1.5-1.1,2.9-1.2,4.3c-0.1,0.7-0.3,3.4,0,3.8
	L23.9,136.3L23.9,136.3z"/>
<path class="st0" d="M28.9,143.6c0.7-0.7,3.6-2.1,5.1-5.2c0.2-0.5,0.3-1.8,0-2.4l-0.9,1.5c-0.7,1.1-3.2,4.1-4.1,4.4
	c-1-1-1.2-1.6-2.9-2.8c-5.8-4.1-15.3-1.2-19.9,3.5c-0.9,0.9-1.8,2.1-2.2,3.2c-0.1,0.2-0.1,0.2-0.2,0.4c-0.4,0.8-0.5,1.4-0.7,2.3
	c0,0.3-0.1,0.8-0.1,1c0.9-1.1,1.9-1.7,3.6-1.8c2.7-0.2,4.4,0.7,6.8,1.6c2,0.7,5.7,2.5,8.8,1.7c2.4-0.5,4.5-1.8,5.9-3.8
	c0.5-0.7,1.2-1.9,1.3-2.8c-1.5,1.3-3.1,1.9-5.1,2.2c-1.6,0.2-3.6,0.2-4.9-0.2c2.1-0.2,2.3-0.1,4.7-0.7
	C26.1,145.3,27.2,144.6,28.9,143.6L28.9,143.6z"/>
<path class="st0" d="M38.9,101.3c1-0.1,4.1,0.8,7.2-0.5c0.5-0.2,1.5-1.2,1.6-1.8L46,99.5c-1.3,0.4-5.1,1-6,0.6c-0.1-1.4,0.2-2-0.3-4
	C38.1,89.2,29.1,85,22.5,85.5c-1.2,0.1-2.7,0.4-3.8,0.9c-0.2,0.1-0.2,0.1-0.4,0.2c-0.8,0.4-1.3,0.7-2.1,1.3
	c-0.2,0.2-0.6,0.5-0.7,0.7c1.4-0.2,2.5,0,3.9,1c2.1,1.6,2.9,3.4,4,5.7c1,1.9,2.6,5.7,5.5,7.1c2.1,1.2,4.6,1.6,6.9,1.1
	c0.8-0.2,2.2-0.7,2.8-1.2c-2,0-3.5-0.7-5.3-1.8c-1.3-0.9-2.8-2.2-3.5-3.4c1.7,1.2,1.8,1.5,4,2.6C35.7,100.6,37,100.8,38.9,101.3
	L38.9,101.3z"/>
<path class="st0" d="M50.8,94.8c0.6,0.6,0.7,0.1,1.1,0.6l-1.7,0.3c1.2,0.8,2.8,1.4,4.2,1.7c0.8,0.2,1.3,0.1,1.7,0.3l-1.9,0.6
	c0.3,0.2,1.7,0.7,2.4,0.8c0.4,0.1,0.9,0.2,1.3,0.2c0.5,0,1.1,0,1.5,0v0.1c0,0-0.1,0.3-0.5,0.5c-0.3,0.2-0.6,0.3-0.9,0.5
	c0,0,0.1,0.1,0.1,0h0.1c0.6,0.2-0.1,0,0.2,0l1.2,0.1c0.5,0,1.2,0,1.7,0c1.3-0.1,2.4-0.3,3.7-0.7c0,0.4-0.7,1.1-0.8,1.3
	c2.6-0.3,6.6-3.1,8.3-5.3c0.4-0.5,1.4-1.9,1.3-2.6c-0.7-0.1-1.5-0.1-2.3-0.3c-1.5-0.2-3.1-0.7-4.4-1.1c-2.3-0.8-4-1.4-6.2-2.5
	c-0.5-0.2-3.5-1.8-3.7-2.4l3.6,1.5c7.4,2.8,10.7,2.4,11.7,2.7c1.8-0.1,4.9,0.1,6.8-0.5c0.7-0.2,1.4-0.3,2.1-0.5
	c0.4-0.1,0.7-0.2,1.1-0.3c0.3-0.1,0.5-0.2,0.8-0.3c0.9-0.7-0.1,0.3-0.4-0.2c-0.1-0.2-6.4,1.1-7.7,0.9c0-0.5,0.5-1.1,0.5-2.7
	c0-0.9,0-2.1-0.2-3.1c-0.4-1.6-1.8-5-2.9-5.6c0,0.3,0.1,0.7,0.2,1.1l-0.2,0.9c-0.3-1-1.3-3-2.5-3.2l0.4,0.9c-0.2,0-1.3-1.4-2-2.1
	c-0.4-0.3-0.7-0.5-1.1-0.8s-0.8-0.5-1.3-0.6l0.3,0.9c-0.4,0-0.1,0-0.9-0.7c-0.3-0.2-0.6-0.5-0.9-0.7c-0.6-0.4-1.5-0.8-2.3-0.8
	l0.6,0.9c-0.3-0.1-0.7-0.4-1.1-0.6c-0.3-0.2-0.7-0.4-1.1-0.5c-0.9-0.3-1.6-0.3-2.5-0.2v0.4c-1.1-0.4-2.2-0.5-3.4-0.3l0.6,0.7
	c-1-0.1-2.5-0.8-4.6-0.4c0.3,0.4,0.5,0.3,0.8,0.9c-0.7-0.1-1.2-0.3-2-0.4c-0.6,0-1.6,0-2.2,0.2c0.5,0.2,0.6,0.4,1,0.8
	c-0.6,0.1-2.2-0.3-3.8-0.2l0.1,0.1c0,0,0.9,0.6,1,1.1c-0.7-0.5-2.6-0.8-3.6-0.5l1,0.6c0.5,0.6,0.2,0.3,0,0.4c-0.8,0-2.4,0.3-5.1,1.1
	c0.3,0.2,0.8,0.3,1.2,0.6c1,0.8,1.8,2.4,2.9,2.9c-0.5,0.2-1.1,0-1.4-0.1c0.4,1.3,2.6,2.8,3.4,3.5c-0.7,0.3-1.1,0-1.7,0.1
	c0.5,0.5,0.8,0.9,1.4,1.3c0.3,0.2,0.5,0.4,0.8,0.5l0.9,0.5l-1.3,0.2c1.2,1.5,2.2,1.9,3.1,2.8c-0.5,0.1-1,0.1-1.4,0
	c0.4,0.7,2.2,1.8,3.1,2.1c0.2,0.1,0.4,0.1,0.6,0.2c0.4,0.1,0.5,0,0.7,0.2C49.7,93,49,92.8,48.4,93C48.3,93.6,50.3,94.8,50.8,94.8
	L50.8,94.8z"/>
<path class="st0" d="M86.6,133.9c-0.1-0.8-0.4-1.3-0.7-1.9c-0.2,0.1-2.2,3.9-3.8,5.3c-0.7,0.6-0.7,0.7-1.6,1.4
	c-0.7,0.5-3.1,1.9-3.9,2c1.7-1,2.3-1.1,3.8-2.5c0.6-0.6,1.4-1.3,1.9-2.1c0.1-0.2,0.2-0.3,0.3-0.5c1.3-1.9,2.1-3.9,2.2-6.2
	c0-1.1-0.1-3.1-0.5-4c-0.2-0.1-0.7-0.3-0.9-0.3c0.1,0.4,0.3,0.7,0.4,1.1c0.5,1.6,0.4,2.4,0.2,4c-0.8-0.1-3.4-1.4-6.4,0.2
	c-1,0.5-1.5,1.1-2.2,1.7c-0.3,0.3-0.6,0.7-0.9,1c-0.8,1-1.8,2.3-2.7,3.2c-0.6,0.6-1.4,1.3-2.2,1.7c-0.9,0.4-2,0.8-3.2,0.8
	c-0.9,0-1.5-0.2-2.2-0.7l-0.4-0.3c-0.1-0.1,0,0-0.1-0.1c0.8,4.8,8.2,7.5,12.2,7.5c1.6,0,2.9-0.3,4.2-0.8c1.2-0.5,2.2-1.1,3-1.8
	C85.6,140.6,87.1,137.1,86.6,133.9L86.6,133.9z"/>
<path class="st0" d="M208.4,74.8c1.2,4.1-0.4,7.4-3.4,9.9c-0.6,0.5-2.5,2-3.3,2.3c1-1.1,1.7-1.8,2.3-3.2c0.6-1.2,0.9-2.3,1.3-3.6
	c0.6-2,0.9-6.2-0.1-8.6v0.2c0,0,0,0,0,0.1c0.1,1.1,0.3,1.2,0.3,3c0,5.4-3,11.8-7.3,15c-0.5,0.3-1.7,1.2-2.3,1.1
	c-0.4-0.1-0.5-0.1-0.6-0.2c0.5-0.3,1-0.5,1.5-0.8c0.4-0.3,0.9-0.6,1.3-0.9c0.8-0.6,1.5-1.4,2-2.1c0.7-1,0.9-1.2,0.7-2.6
	c-0.5-3.8-3-6.3-3.6-10c-0.2-1-0.1-2.1,0-3c0.2-1.4,0.4-1.6,0.8-2.6c0.5-0.8,0.5-1,1.5-2.2c0.7-0.8,1.4-1.4,2.2-2
	c1.7-1.2,4-2.5,6.2-2.4l-0.2,0.3c-0.1,0.1-0.1,0.1-0.2,0.3c-0.1,0.2-0.2,0.4-0.4,0.6c-0.2,0.4-0.4,0.8-0.5,1.4
	C205.8,68.1,207.8,71.8,208.4,74.8L208.4,74.8z"/>
<path class="st0" d="M129.1,125.8c-0.1-0.5-0.3-0.3-0.3-0.7l0.9,0.4c-0.3-0.8-0.8-1.6-1.4-2.2c-0.3-0.3-0.6-0.4-0.7-0.7l1.1,0.4
	c-0.1-0.2-0.6-0.9-0.9-1.2c-0.2-0.2-0.4-0.4-0.6-0.5c-0.2-0.2-0.5-0.3-0.7-0.5l0,0c0,0,0.2-0.1,0.4-0.1c0.2,0,0.4,0,0.6,0.1
	c0,0,0-0.1,0,0l0,0c-0.2-0.3,0.1,0.1-0.1-0.1l-0.5-0.4c-0.2-0.2-0.5-0.4-0.8-0.5c-0.6-0.4-1.2-0.7-2-0.9c0.1-0.2,0.7-0.3,0.8-0.4
	c-1.3-0.7-4.1-0.7-5.6-0.2c-0.4,0.1-1.3,0.5-1.5,0.8c0.3,0.3,0.7,0.6,1,0.9c0.6,0.6,1.2,1.3,1.7,2c0.8,1.1,1.4,2,2.1,3.2
	c0.2,0.3,1.1,2,1,2.4l-1.2-1.9c-2.6-3.7-4.2-4.6-4.6-5.1c-0.9-0.6-2.3-1.7-3.3-2c-0.4-0.1-0.7-0.3-1.1-0.5c-0.2-0.1-0.4-0.1-0.6-0.2
	s-0.3-0.1-0.5-0.1c-0.7,0,0.1-0.1,0.1,0.2c0,0.1,3.4,1.6,4,2.1c-0.2,0.2-0.6,0.4-1.1,1.1c-0.3,0.4-0.7,1-0.9,1.5
	c-0.4,0.9-0.8,3-0.5,3.6c0.1-0.1,0.2-0.4,0.3-0.5l0.4-0.4c-0.2,0.6-0.4,1.9,0.1,2.3l0.1-0.6c0.1,0.1,0.2,1.1,0.3,1.6
	c0.1,0.3,0.1,0.5,0.2,0.7c0.1,0.3,0.2,0.5,0.4,0.7l0.1-0.5c0.2,0.1,0,0.1,0.2,0.6c0,0.2,0.1,0.4,0.2,0.6c0.2,0.4,0.4,0.9,0.8,1.1
	v-0.6c0.1,0.2,0.2,0.4,0.3,0.6c0.1,0.2,0.2,0.4,0.3,0.6c0.3,0.4,0.7,0.7,1.1,0.9l0.1-0.2c0.4,0.6,0.8,1,1.5,1.3l-0.1-0.5
	c0.5,0.4,0.9,1.2,2.1,1.7c0-0.3-0.1-0.3-0.1-0.7c0.3,0.3,0.5,0.5,0.8,0.8c0.3,0.2,0.7,0.5,1.1,0.6c-0.2-0.2-0.2-0.4-0.2-0.7
	c0.3,0.1,0.9,0.9,1.7,1.3v-0.1c0,0-0.2-0.6-0.1-0.8c0.2,0.5,1,1.2,1.5,1.4l-0.3-0.6c-0.1-0.5,0-0.2,0.1-0.2c0.4,0.3,1.2,0.7,2.8,1.1
	c-0.1-0.2-0.3-0.4-0.4-0.7c-0.2-0.7-0.1-1.7-0.4-2.3c0.3,0.1,0.5,0.4,0.6,0.5c0.2-0.7-0.3-2.2-0.5-2.8c0.4,0.1,0.5,0.4,0.8,0.5
	c-0.1-0.4-0.1-0.7-0.2-1.1c-0.1-0.2-0.1-0.3-0.2-0.5l-0.3-0.5l0.7,0.3c-0.1-1.1-0.4-1.6-0.5-2.4c0.3,0.1,0.5,0.3,0.7,0.5
	c0-0.5-0.5-1.6-0.8-2c-0.1-0.1-0.1-0.2-0.2-0.3c-0.1-0.1-0.2-0.1-0.3-0.3c0.4,0,0.7,0.3,1,0.4C129.9,127.2,129.3,126,129.1,125.8
	L129.1,125.8z"/>
<path class="st0" d="M92.6,130c0.2,0.1,0.2,0.1,0.3,0.5c1.1,3.2,3.5,6,5.8,8.4c0.6,0.6,2.2,1.9,2.8,2.1c-0.9-0.9-1.3-1.4-2.3-2.5
	c-2.7-3.1-4.9-7.5-5.4-11.6c-0.2-1.4-0.2-4.4,0.1-5.6l0.8,0.1c0,1.1-0.3,2.3-0.3,3.5c0,1.4,0,2.3,0.4,3.6c0.5-0.1,1.1-0.4,1.7-0.5
	c2.9-0.6,5.1,0.1,7.4,1.9c1.1,0.9,1.9,2.1,2.5,3.3c-0.7-0.1-1.5-0.7-2.3-0.5c1.1,0.2,2.5,1.9,3.1,2.8c0.7,1.1,1.6,2.9,2,4.3
	c-0.5-0.1-0.8-0.5-2-0.7c0.1,0.2,0.7,0.9,1.1,1.4c0.3,0.5,0.7,1.2,0.9,1.8c0.6,1.5,0.8,2.9,1,4.6c-0.5-0.1-1-1.2-2.1-1
	c0.5,0.6,1,1.4,1.4,2.5c0.5,1.5,0.4,1.9,0.5,3.3c-1.9,0.1-3.6-0.6-5-1.7c-0.3-0.3-1-1-1.2-1c0.1,0.3,0.2,0.6,0.3,0.9
	c0.1,0.3,0.3,0.5,0.4,0.9c-1.9-0.8-5.4-3.2-6.3-5.2c-0.8-0.9-0.6,0.1-0.6,0.1l0.7,1.6c-0.7-0.1-1.9-1-2.4-1.5
	c-0.8-0.8-1.4-1.5-1.8-2c-0.2-0.3-0.4-0.6-0.6-0.9c-0.4-0.6-0.7-1.3-1-2c-0.2,0.7-0.1,1.4,0.1,2.1c-0.7-0.3-1.6-2-1.9-2.8
	c-0.9-2.4-1-5.3,0.2-7.6C91.1,131.8,91.9,130.5,92.6,130L92.6,130z"/>
<path class="st0" d="M136.6,98c0.3-0.4,0.9-0.4,0.7-0.8c-4.5-3.8-10.3-8.1-14-12.5c-1.6-1.8-3-3.8-4.1-5.9l-0.8-2
	c2.1,2.5,2.8,4.1,5.6,7.1c0.9,0.9,2,1.9,3,2.7c1,0.8,2.1,1.5,3,2.2c1.4-0.9,3.1-3.7,3.6-5c2.3-5.8-1.5-12.9-6.2-16.9
	c-4.6-3.9-10.1-6.3-15.8-7.4c-0.7-0.1-4.7-0.7-5.6-0.5c0.1,0.4-0.1,0.9-0.1,1.3l-0.2,1.4c-0.1,0.4-0.1,0.8-0.2,1.4
	c-0.6,6.4-0.5,11.9,2.2,18.2c1.8,4.1,5.3,7.9,8.9,9.7c3.4,1.7,7.5,1.5,11.1-0.2C130.8,93.7,136.7,98.2,136.6,98L136.6,98z"/>
<path class="st0" d="M174.5,110.8c0.7,0.8,1.8,3.8,4.7,5.5c0.5,0.3,1.8,0.5,2.4,0.2l-1.5-1c-1-0.8-3.8-3.5-4.1-4.5
	c1.1-1,1.7-1.1,3.1-2.6c4.6-5.4,2.6-15.1-1.7-20.2c-0.8-0.9-1.9-1.9-2.9-2.5c-0.1-0.1-0.2-0.1-0.4-0.2c-0.8-0.4-1.3-0.7-2.3-0.9
	c-0.3-0.1-0.8-0.2-1-0.2c1,1,1.5,2,1.5,3.7c0,2.7-1.1,4.3-2.2,6.6c-0.9,1.9-3,5.5-2.5,8.6c0.3,2.4,1.4,4.7,3.3,6.2
	c0.6,0.5,1.8,1.4,2.6,1.5c-1.2-1.6-1.6-3.2-1.7-5.3c-0.1-1.6,0.1-3.6,0.6-4.9c0,2.1-0.1,2.3,0.3,4.7
	C173.1,107.8,173.7,109,174.5,110.8L174.5,110.8z"/>
<path class="st0" d="M134.7,122.2c0.6,0.8,0.9,0.4,1.1,1.1l-2.1-0.1c1.2,1.3,2.9,2.5,4.6,3.2c0.9,0.4,1.5,0.4,1.9,0.8l-2.4,0.2
	c0.3,0.4,1.8,1.2,2.7,1.6c0.5,0.2,1,0.4,1.5,0.6c0.6,0.2,1.3,0.2,1.8,0.5l-0.1,0.1c0,0-0.2,0.3-0.8,0.5c-0.4,0.2-0.8,0.2-1.2,0.3
	l0.1,0.1l0.1,0.1c0.7,0.4-0.2-0.1,0.2,0.1l1.4,0.4c0.6,0.2,1.4,0.3,2,0.4c1.6,0.2,3,0.3,4.7,0.2c-0.1,0.5-1.1,1.2-1.4,1.4
	c3.2,0.3,8.7-1.9,11.4-4.1c0.6-0.5,2.2-1.9,2.3-2.7c-0.8-0.3-1.8-0.6-2.7-0.9c-1.7-0.7-3.5-1.7-5-2.6c-2.5-1.5-4.4-2.8-6.8-4.7
	c-0.5-0.4-3.7-3.1-3.8-3.9l3.9,2.8c8.2,5.3,12.1,5.8,13.2,6.5c2.2,0.4,5.8,1.5,8.2,1.3c0.9,0,1.8,0.1,2.6,0c0.5,0,0.9,0,1.3-0.1
	c0.4,0,0.7-0.1,1-0.2c1.3-0.6-0.2,0.3-0.4-0.4c-0.1-0.2-8-0.5-9.5-1c0.2-0.6,0.9-1.2,1.4-3.1c0.3-1.1,0.6-2.6,0.6-3.8
	c0-2.1-0.8-6.5-1.9-7.6c-0.1,0.3,0,0.9-0.1,1.3l-0.5,1.1c-0.1-1.3-0.7-4-2.1-4.5l0.2,1.2c-0.2-0.1-1.2-2.1-1.9-3
	c-0.4-0.5-0.6-0.8-1.1-1.2c-0.5-0.5-0.9-0.8-1.4-1.1l0.2,1.1c-0.5-0.1-0.1-0.1-0.9-1.1c-0.3-0.4-0.6-0.8-0.9-1.1
	c-0.7-0.7-1.6-1.4-2.6-1.6l0.5,1.3c-0.4-0.2-0.7-0.7-1.1-1c-0.3-0.3-0.7-0.6-1.1-0.9c-1-0.6-1.8-0.8-3-0.9l-0.1,0.4
	c-1.3-0.8-2.4-1.2-4-1.4l0.6,1c-1.2-0.3-2.7-1.6-5.4-1.7c0.2,0.5,0.5,0.5,0.7,1.3c-0.8-0.3-1.4-0.7-2.3-1c-0.7-0.2-1.9-0.5-2.7-0.4
	c0.5,0.3,0.7,0.6,1,1.3c-0.7,0-2.6-1-4.5-1.3l0.1,0.1c0,0,0.9,1,1,1.6c-0.8-0.8-2.9-1.6-4.2-1.6l1,1c0.5,0.9,0.2,0.4-0.1,0.5
	c-1-0.3-2.9-0.4-6.4,0c0.3,0.4,0.9,0.6,1.3,1.1c1,1.2,1.5,3.4,2.6,4.3c-0.6,0.1-1.3-0.3-1.7-0.5c0.1,1.7,2.3,4.1,3.2,5.1
	c-1,0.1-1.3-0.3-2-0.4c0.4,0.7,0.8,1.3,1.3,1.9c0.3,0.3,0.5,0.6,0.8,0.8l0.9,0.8l-1.6-0.1c1,2.1,2.1,2.9,3,4.2
	c-0.7,0-1.2-0.2-1.7-0.4c0.3,1,2.2,2.7,3.2,3.3c0.2,0.1,0.4,0.2,0.7,0.4c0.4,0.2,0.6,0.1,0.8,0.4c-0.8,0.3-1.6-0.1-2.4-0.1
	C132,120.2,134.1,122.2,134.7,122.2L134.7,122.2z"/>
<path class="st0" d="M100.7,29.3c1.3,0.6,2.3,0.8,3.4,1.7c1.1,0.8,1.7,1.4,2.5,2.4c1.3,1.7,2.4,3.9,3.4,6.3c0.7,1.4,2,5.2,2.5,6.9
	c0.4,1.2,0.7,2.4,1.1,3.7c1.9,6.1,7.8,12.6,16.4,9.1c0.9-0.4,1.2-0.3,1.3-0.8c-3.1-0.8-5.3-2.1-7.2-4.5c-2.1-2.7-2.7-4.3-4.2-7.6
	l-2.4-5.3c0.4,0.4,1.5,2.4,1.8,3c0.6,1,1.1,2,1.8,3.2c1.2,2.1,2.4,4.3,3.9,6c3.4,3.7,8.3,5.5,14.6,5.8c-0.1-0.7-0.4-0.7-0.6-1.2
	c-1.7-0.1-3.6-0.3-5.2-0.8l-0.3-0.1l-0.3-0.2c1.4-3,2.3-4.9,2.4-8.7c0-1.7-0.2-3.2-0.6-4.7c-0.3-0.9-1.1-3.1-1.7-3.6
	c-0.6,1.1-3.4,3.1-5,3.2c0.8-0.8,1.7-0.9,2.9-2.8c1.4-2.3,1.1-2.4-0.7-4.5c-0.2-0.3-0.5-0.5-0.7-0.7c-0.5-0.5-1-0.9-1.5-1.3
	c-0.7-0.6-2.6-1.9-3.7-2.1c-0.2,2.3-1.1,4-3,5.2c-0.3,0.2-0.4,0.2-0.7,0.4c0.1-0.3,0.3-0.4,0.5-0.7c1.1-1.6,1.4-3.7,1-5.6
	c-0.2-0.9-0.7-1-1.5-1.3c-2.6-1.3-6-2.1-9.2-2c0.2,0.7,0.7,1.3,0.9,2.3c0.2,1.2,0.1,1.9,0,3.1c-0.2-0.2-0.1,0-0.3-0.4
	c-0.4-0.9-0.3-1.4-1.4-2.9c-0.3-0.5-0.7-0.9-1.1-1.4c-0.6-0.7-0.6-0.8-1.8-0.9c-1.6-0.1-3.1,0.1-4.5,0.4c-0.7,0.2-3.3,1-3.6,1.4
	L100.7,29.3L100.7,29.3z"/>
<path class="st0" d="M91.2,82.4c0-0.3,0-0.3-0.4-0.8c-3.2-4.3-4.8-9.8-5.8-15c-0.3-1.4-0.6-4.6-0.3-5.4c0.4,1.9,0.6,2.9,1.2,5.2
	c1.7,6.2,5.4,13,10.3,17.2c1.7,1.5,5.5,4.1,7.4,4.8l0.5-1.1c-1.5-0.9-3.2-1.6-4.8-2.6c-1.8-1.2-3-2-4.4-3.7c0.6-0.6,1.5-1,2.2-1.7
	c3.3-3.2,4.3-6.7,4-11.3c-0.2-2.2-1.1-4.3-2.1-6.1c-0.4,1-0.4,2.6-1.4,3.4c0.7-1.5-0.3-4.9-1-6.5c-0.8-1.9-2.4-4.7-3.9-6.5
	c-0.3,0.8,0,1.6-0.8,3.2c-0.2-0.3-0.5-1.7-0.9-2.7c-0.3-0.9-0.9-1.9-1.5-2.8c-1.4-2-3-3.6-5.1-5.3c-0.4,0.7,0.7,2.3-0.6,3.6
	c-0.4-1.2-0.9-2.6-2-4c-1.5-1.9-2.1-2.2-3.9-3.5c-1.7,2.4-2.3,5.2-2.2,7.9c0,0.7,0.4,2.1,0.3,2.5c-0.3-0.4-0.6-0.7-0.9-1.1
	c-0.3-0.4-0.4-0.9-0.8-1.2c-0.6,3.2-0.6,9.9,1.2,12.7c0.5,1.9-0.7,0.7-0.7,0.7L73.4,60c-0.6,1-0.4,3.4-0.2,4.4c0.4,1.8,0.7,3.2,1,4
	c0.2,0.6,0.4,1.1,0.7,1.6c0.5,1.1,1.1,2.1,1.8,3.1c-1-0.4-1.9-1.1-2.7-2c-0.2,1.1,1.2,3.8,2,5c2.4,3.2,6,5.9,10,6.5
	C87.6,82.7,90,82.7,91.2,82.4L91.2,82.4z"/>
<path class="st0" d="M62.9,67c0.7-0.5,1.1-1,1.6-1.5c-0.2-0.1-4.9-0.5-6.9-1.4c-0.9-0.4-0.9-0.4-2.1-1c-0.8-0.4-3.3-2.2-3.7-3
	c1.7,1.3,2,1.8,4.1,2.7c0.9,0.4,1.9,0.7,2.9,1c0.2,0.1,0.4,0.1,0.6,0.1c2.4,0.4,4.8,0.3,7.1-0.6c1.1-0.4,3-1.5,3.8-2.2
	c0-0.2,0-0.8-0.1-1c-0.3,0.3-0.6,0.6-0.9,0.9c-1.4,1.2-2.2,1.5-3.9,1.9c-0.3-0.8-0.1-4-3-6.2c-0.9-0.7-1.8-1-2.7-1.4
	c-0.4-0.2-0.9-0.3-1.4-0.4c-1.4-0.4-3.1-0.8-4.3-1.2c-0.9-0.3-1.9-0.8-2.6-1.4c-0.8-0.6-1.7-1.6-2.1-2.8c-0.4-0.9-0.4-1.6-0.3-2.5
	l0.1-0.6c0-0.1,0,0,0-0.2c-4.4,2.9-3.8,11.4-2,15.3c0.8,1.6,1.6,2.7,2.7,3.8c1,1,2.1,1.6,3.2,2.2C55.9,69,60,69,62.9,67L62.9,67z"/>
<path class="st0" d="M94.4,43.8c0.9,0.5,2.9,3,6.3,3.6c0.5,0.1,1.9-0.1,2.3-0.6l-1.7-0.5c-1.2-0.4-4.8-2.1-5.3-2.8
	c0.7-1.3,1.3-1.6,2-3.5c2.5-6.6-2.6-15.1-8.3-18.4c-1.1-0.6-2.4-1.2-3.6-1.4c-0.2,0-0.3,0-0.4,0c-0.9-0.1-1.5-0.2-2.4-0.1
	c-0.3,0-0.8,0.1-1,0.2c1.3,0.6,2.1,1.4,2.6,3c0.9,2.5,0.4,4.4,0.2,7c-0.2,2.1-1,6.2,0.6,9c1.1,2.2,2.9,3.9,5.1,4.8
	c0.8,0.3,2.2,0.7,3,0.5c-1.6-1.2-2.6-2.5-3.4-4.4c-0.6-1.5-1.1-3.4-1-4.8c0.8,2,0.7,2.2,1.8,4.4C92.1,41.5,93,42.3,94.4,43.8
	L94.4,43.8z"/>
<path class="st0" d="M151,97.1c0.4-0.1,0.7,0.1,0.7-0.2c-1.2-4-3-8.9-3.6-13c-0.2-1.7-0.3-3.5-0.2-5.2l0.3-1.5
	c0.3,2.3,0.1,3.6,0.6,6.5c0.2,0.9,0.5,1.9,0.7,2.8c0.3,0.9,0.7,1.7,1,2.5c1.2,0,3.3-1.1,4.1-1.6c3.6-2.6,4.1-8.4,2.8-12.6
	c-1.2-4.1-3.6-7.7-6.7-10.6c-0.4-0.4-2.6-2.2-3.2-2.5c-0.1,0.3-0.4,0.5-0.6,0.7l-0.6,0.8c-0.2,0.2-0.4,0.4-0.6,0.8
	c-2.9,3.6-5,7-5.7,11.8c-0.5,3.2,0.1,6.8,1.6,9.3c1.4,2.4,4,3.8,6.8,4.2C149.1,92.2,151,97.2,151,97.1L151,97.1z"/>
<path class="st0" d="M317.9,143.6c-0.7-0.7-3.6-2.1-5.1-5.2c-0.2-0.5-0.3-1.8,0-2.4l0.9,1.5c0.7,1.1,3.2,4.1,4.1,4.4
	c1-1,1.2-1.6,2.9-2.8c5.8-4.1,15.3-1.2,19.9,3.5c0.9,0.9,1.8,2.1,2.2,3.2c0.1,0.2,0.1,0.2,0.2,0.4c0.4,0.8,0.5,1.4,0.7,2.3
	c0,0.3,0.1,0.8,0.1,1c-0.9-1.1-1.9-1.7-3.6-1.8c-2.7-0.2-4.4,0.7-6.8,1.6c-2,0.7-5.7,2.5-8.8,1.7c-2.4-0.5-4.5-1.8-5.9-3.8
	c-0.5-0.7-1.2-1.9-1.3-2.8c1.5,1.3,3.1,1.9,5.1,2.2c1.6,0.2,3.6,0.2,4.9-0.2c-2.1-0.2-2.3-0.1-4.7-0.7
	C320.8,145.3,319.7,144.6,317.9,143.6L317.9,143.6z"/>
<path class="st0" d="M270.7,136.5c-0.5-0.1-0.3-0.3-0.7-0.3l0.5,0.9c-0.8-0.2-1.6-0.8-2.3-1.3c-0.3-0.3-0.5-0.5-0.7-0.6l0.4,1.1
	c-0.2-0.1-0.9-0.5-1.2-0.8c-0.2-0.2-0.4-0.3-0.6-0.5s-0.4-0.5-0.5-0.7l0,0c0,0-0.1,0.2,0,0.4c0,0.2,0.1,0.4,0.1,0.6h-0.1l0,0
	c-0.3-0.2,0.1,0.1-0.1-0.1l-0.5-0.5c-0.2-0.2-0.4-0.5-0.6-0.8c-0.4-0.6-0.7-1.2-1-1.9c-0.2,0.1-0.3,0.7-0.3,0.9
	c-0.8-1.3-1-4-0.5-5.6c0.1-0.4,0.4-1.3,0.7-1.5c0.3,0.3,0.6,0.7,1,1c0.6,0.6,1.4,1.1,2.1,1.6c1.2,0.8,2.1,1.3,3.3,1.9
	c0.3,0.1,2,0.9,2.4,0.8l-2-1.1c-3.9-2.4-4.9-3.9-5.4-4.3c-0.6-0.8-1.8-2.2-2.2-3.2c-0.2-0.4-0.4-0.7-0.5-1.1
	c-0.1-0.2-0.2-0.4-0.2-0.6c-0.1-0.2-0.1-0.3-0.1-0.5c0-0.7-0.1,0.1,0.2,0.1c0.1,0,1.8,3.3,2.3,3.8c0.2-0.2,0.3-0.6,1-1.2
	c0.4-0.3,1-0.8,1.5-1c0.9-0.4,2.9-1,3.6-0.7c-0.1,0.1-0.4,0.2-0.5,0.3l-0.4,0.4c0.6-0.2,1.8-0.5,2.3,0l-0.6,0.1
	c0.1,0.1,1.1,0.1,1.7,0.2c0.3,0.1,0.5,0.1,0.7,0.2c0.3,0.1,0.5,0.2,0.8,0.4l-0.5,0.2c0.2,0.2,0.1,0,0.7,0.2c0.2,0,0.5,0.1,0.7,0.2
	c0.4,0.1,0.9,0.4,1.2,0.8h-0.6c0.2,0.1,0.4,0.2,0.7,0.3c0.2,0.1,0.4,0.2,0.6,0.3c0.4,0.3,0.7,0.6,1,1.1l-0.2,0.1
	c0.6,0.4,1,0.8,1.4,1.4h-0.5c0.4,0.4,1.2,0.8,1.8,1.9c-0.3,0-0.3-0.1-0.7-0.1c0.3,0.3,0.6,0.4,0.9,0.8c0.2,0.3,0.6,0.7,0.7,1.1
	c-0.2-0.1-0.4-0.2-0.7-0.1c0.1,0.3,0.9,0.9,1.4,1.6h-0.1c0,0-0.6-0.2-0.8-0.1c0.5,0.2,1.3,0.9,1.5,1.4l-0.6-0.2
	c-0.5,0-0.2,0-0.2,0.1c0.3,0.4,0.7,1.2,1.3,2.7c-0.2,0-0.4-0.3-0.7-0.3c-0.7-0.2-1.7,0-2.3-0.2c0.1,0.3,0.4,0.5,0.5,0.6
	c-0.7,0.3-2.2-0.1-2.8-0.3c0.1,0.4,0.4,0.5,0.6,0.8c-0.4,0-0.7-0.1-1.1-0.1c-0.2-0.1-0.3-0.1-0.5-0.2l-0.5-0.2l0.4,0.7
	c-1.1,0-1.6-0.3-2.4-0.4c0.1,0.3,0.3,0.5,0.5,0.7c-0.5,0.1-1.6-0.4-2.1-0.7c-0.1-0.1-0.2-0.1-0.3-0.2c-0.2-0.1-0.2-0.2-0.3-0.2
	c0,0.4,0.4,0.7,0.5,1C272.1,137.3,270.8,136.8,270.7,136.5L270.7,136.5z"/>
<path class="st0" d="M289.1,69.5c-0.9-0.1-1.4-0.3-2.1-0.6c0.1-0.2,4-2.7,5.4-4.5c0.6-0.8,0.6-0.8,1.3-1.8c0.5-0.7,1.8-3.4,1.7-4.3
	c-0.9,1.9-0.9,2.5-2.3,4.3c-0.6,0.7-1.3,1.6-2,2.2c-0.2,0.1-0.3,0.3-0.5,0.4c-1.9,1.5-4,2.5-6.4,2.8c-1.2,0.1-3.3,0.1-4.3-0.2
	c-0.1-0.2-0.3-0.7-0.4-0.9c0.4,0.1,0.8,0.2,1.2,0.3c1.7,0.4,2.6,0.3,4.3-0.2c-0.1-0.8-1.8-3.5-0.3-6.8c0.5-1.1,1.1-1.7,1.7-2.4
	c0.3-0.4,0.7-0.7,1-1c1-1,2.3-2.1,3.2-3.1c0.6-0.7,1.3-1.6,1.6-2.5c0.4-0.9,0.7-2.2,0.5-3.4c-0.1-1-0.4-1.6-0.9-2.3l-0.3-0.4
	c-0.1-0.1,0,0-0.1-0.1c5.2,0.4,8.7,8.1,9,12.3c0.1,1.7-0.1,3.1-0.5,4.5c-0.4,1.3-1,2.4-1.7,3.4C296.1,67.9,292.6,69.8,289.1,69.5
	L289.1,69.5z"/>
<path class="st0" d="M308.7,105.2c-1-0.1-4.1,0.8-7.2-0.5c-0.5-0.2-1.5-1.2-1.6-1.8l1.7,0.5c1.3,0.4,5.1,1,6,0.6
	c0.1-1.4-0.2-2,0.3-4c1.6-6.9,10.6-11.1,17.2-10.6c1.2,0.1,2.7,0.4,3.8,0.9c0.2,0.1,0.2,0.1,0.4,0.2c0.8,0.4,1.3,0.7,2.1,1.3
	c0.2,0.2,0.6,0.5,0.7,0.7c-1.4-0.2-2.5,0-3.9,1c-2.1,1.6-2.9,3.4-4,5.7c-1,1.9-2.6,5.7-5.5,7.1c-2.1,1.2-4.6,1.6-6.9,1.1
	c-0.8-0.2-2.2-0.7-2.8-1.2c2,0,3.5-0.7,5.3-1.8c1.3-0.9,2.8-2.2,3.5-3.4c-1.7,1.2-1.8,1.5-4,2.6
	C311.9,104.6,310.7,104.8,308.7,105.2L308.7,105.2z"/>
<path class="st0" d="M297.3,96.3c-0.6,0.6-0.7,0.1-1.1,0.6l1.7,0.3c-1.2,0.8-2.8,1.4-4.2,1.7c-0.8,0.2-1.3,0.1-1.7,0.3l1.9,0.6
	c-0.3,0.2-1.7,0.7-2.4,0.8c-0.4,0.1-0.9,0.2-1.3,0.2c-0.5,0-1.1,0-1.5,0v0.1c0,0,0.1,0.3,0.5,0.5c0.3,0.2,0.6,0.3,0.9,0.5
	c0,0-0.1,0.1-0.1,0h-0.1c-0.6,0.2,0.1,0-0.2,0l-1.2,0.1c-0.5,0-1.2,0-1.7,0c-1.3-0.1-2.4-0.3-3.7-0.7c0,0.4,0.7,1.1,0.8,1.3
	c-2.6-0.3-6.6-3.1-8.3-5.3c-0.4-0.5-1.4-1.9-1.3-2.6c0.7-0.1,1.5-0.1,2.3-0.3c1.5-0.2,3.1-0.7,4.4-1.1c2.3-0.8,4-1.4,6.2-2.5
	c0.5-0.2,3.5-1.8,3.7-2.4l-3.6,1.5c-7.4,2.8-10.7,2.4-11.7,2.7c-1.8-0.1-4.9,0.1-6.8-0.5c-0.7-0.2-1.4-0.3-2.1-0.5
	c-0.4-0.1-0.7-0.2-1.1-0.3c-0.3-0.1-0.5-0.2-0.8-0.3c-0.9-0.7,0.1,0.3,0.4-0.2c0.1-0.2,6.4,1.1,7.7,0.9c0-0.5-0.5-1.1-0.5-2.7
	c0-0.9,0-2.1,0.2-3.1c0.4-1.6,1.8-5,2.9-5.6c0,0.3-0.1,0.7-0.2,1.1l0.2,0.9c0.3-1,1.3-3,2.5-3.2l-0.4,0.9c0.2,0,1.3-1.4,2-2.1
	c0.4-0.3,0.7-0.5,1.1-0.8s0.8-0.5,1.3-0.6l-0.3,0.9c0.4,0,0.1,0,0.9-0.7c0.3-0.2,0.6-0.5,0.9-0.7c0.6-0.4,1.5-0.8,2.3-0.8l-0.6,0.9
	c0.3-0.1,0.7-0.4,1.1-0.6c0.3-0.2,0.7-0.4,1.1-0.5c0.9-0.3,1.6-0.3,2.5-0.2v0.4c1.1-0.4,2.2-0.5,3.4-0.3l-0.6,0.7
	c1-0.1,2.5-0.8,4.6-0.4c-0.3,0.4-0.5,0.3-0.8,0.9c0.7-0.1,1.2-0.3,2-0.4c0.6,0,1.6,0,2.2,0.2c-0.5,0.2-0.6,0.4-1,0.8
	c0.6,0.1,2.2-0.3,3.8-0.2l-0.1,0.1c0,0-0.9,0.6-1,1.1c0.7-0.5,2.6-0.8,3.6-0.5l-1,0.6c-0.5,0.6-0.2,0.3,0,0.4c0.8,0,2.4,0.3,5.1,1.1
	c-0.3,0.2-0.8,0.3-1.2,0.6c-1,0.8-1.8,2.4-2.9,2.9c0.5,0.2,1.1,0,1.4-0.1c-0.4,1.3-2.6,2.8-3.4,3.5c0.7,0.3,1.1,0,1.7,0.1
	c-0.5,0.5-0.8,0.9-1.4,1.3c-0.3,0.2-0.5,0.4-0.8,0.5l-0.9,0.5l1.3,0.2c-1.2,1.5-2.2,1.9-3.1,2.8c0.5,0.1,1,0.1,1.4,0
	c-0.4,0.7-2.2,1.8-3.1,2.1c-0.2,0.1-0.4,0.1-0.6,0.2c-0.4,0.1-0.5,0-0.7,0.2c0.6,0.4,1.3,0.2,1.9,0.4
	C299.8,95.1,297.8,96.3,297.3,96.3L297.3,96.3z"/>
<path class="st0" d="M273.3,112.3c-1.3-0.6-2.2-1.1-3.6-1.3c-1.3-0.2-2.2-0.3-3.5-0.2c-2.1,0.2-4.5,0.9-6.9,1.8
	c-1.6,0.4-5.2,2.1-6.8,2.8c-1.2,0.6-2.2,1.2-3.4,1.7c-5.7,2.8-14.5,2.9-17.9-5.8c-0.4-0.9-0.5-1.1-0.3-1.5c2.7,1.7,5.1,2.5,8.3,2.2
	c3.4-0.4,5-1,8.4-2.1l5.5-1.9c-0.6,0-2.8,0.6-3.5,0.7c-1.1,0.3-2.2,0.6-3.6,0.9c-2.3,0.6-4.8,1.2-7.1,1.3c-5,0.1-9.7-2.3-14.2-6.8
	c0.5-0.4,0.8-0.2,1.3-0.4c1.2,1.2,2.7,2.4,4.1,3.3l0.3,0.2l0.4,0.1c1.2-3.1,2-5.1,4.7-7.7c1.2-1.2,2.5-2.1,3.8-2.8
	c0.8-0.4,3-1.3,3.8-1.2c-0.4,1.2,0.1,4.6,1.1,5.8c0-1.1-0.5-1.9,0.1-4c0.7-2.6,1-2.5,3.8-2.5c0.3,0,0.7,0,1,0c0.7,0,1.3,0.1,2,0.2
	c0.9,0.1,3.2,0.6,4.1,1.2c-1.6,1.7-2.2,3.6-1.7,5.8c0.1,0.4,0.1,0.5,0.2,0.8c0.1-0.3,0.1-0.5,0.2-0.9c0.4-1.9,1.7-3.6,3.4-4.6
	c0.8-0.5,1.2-0.1,2,0.2c2.7,1,5.6,2.9,7.7,5.4c-0.7,0.3-1.4,0.4-2.3,0.9c-1.1,0.7-1.5,1.2-2.2,2.1c0.3,0,0.1,0.1,0.5-0.1
	c0.9-0.3,1.2-0.7,3.1-0.9c0.6-0.1,1.2-0.1,1.7-0.1c1,0,1-0.1,1.8,0.7c1.1,1.1,2,2.3,2.8,3.6c0.3,0.6,1.5,3.1,1.4,3.5L273.3,112.3
	L273.3,112.3z"/>
<path class="st0" d="M174.8,141.4c0.6-0.7,3.2-1.9,4.5-4.6c0.2-0.5,0.3-1.6,0-2.1l-0.8,1.4c-0.6,1-2.8,3.6-3.6,4
	c-0.9-0.9-1.1-1.5-2.6-2.5c-5.2-3.6-13.6-1.1-17.7,3.1c-0.8,0.8-1.6,1.8-2,2.8c-0.1,0.1-0.1,0.2-0.1,0.4c-0.3,0.8-0.5,1.2-0.6,2.1
	c0,0.3-0.1,0.7-0.1,0.9c0.8-1,1.7-1.5,3.2-1.6c2.4-0.2,3.9,0.6,6,1.4c1.8,0.7,5.1,2.2,7.9,1.5c2.1-0.4,4-1.6,5.2-3.4
	c0.4-0.6,1.1-1.7,1.1-2.5c-1.4,1.2-2.7,1.7-4.6,1.9c-1.4,0.2-3.2,0.2-4.4-0.2c1.9-0.2,2.1-0.1,4.2-0.6
	C172.3,142.9,173.3,142.2,174.8,141.4L174.8,141.4z"/>
<path class="st0" d="M174.4,24.9c-0.9,0.1-1.4,0-2.2-0.1c0-0.2,3.3-3.6,4.3-5.6c0.4-0.9,0.5-0.9,0.9-2.1c0.3-0.8,1-3.8,0.8-4.7
	c-0.4,2.1-0.4,2.7-1.3,4.8c-0.4,0.8-0.9,1.8-1.5,2.6c-0.1,0.2-0.3,0.3-0.4,0.5c-1.5,1.9-3.4,3.4-5.7,4.2c-1.1,0.4-3.2,0.9-4.3,0.8
	c-0.2-0.2-0.5-0.6-0.6-0.8c0.4,0,0.8,0.1,1.3,0.1c1.8,0,2.6-0.3,4.2-1.1c-0.3-0.8-2.5-3.1-1.8-6.7c0.2-1.2,0.7-2,1.1-2.8
	c0.2-0.4,0.5-0.8,0.8-1.2c0.8-1.2,1.8-2.6,2.4-3.8c0.4-0.8,0.9-1.9,1.1-2.8c0.2-1,0.2-2.3-0.2-3.5c-0.3-0.9-0.7-1.5-1.4-2.1
	l-0.4-0.3c-0.1-0.1-0.1,0-0.1-0.1c5.2-0.8,10.4,6.1,11.6,10.2c0.5,1.7,0.6,3,0.5,4.6c-0.1,1.4-0.5,2.6-0.9,3.7
	C181,21.7,177.9,24.4,174.4,24.9L174.4,24.9z"/>
<path class="st0" d="M251.6,41.7c-0.9,0.5-2.9,3-6.3,3.6c-0.5,0.1-1.9-0.1-2.3-0.6l1.7-0.5c1.2-0.4,4.8-2.1,5.3-2.8
	c-0.7-1.3-1.3-1.6-2-3.5c-2.5-6.6,2.6-15.1,8.3-18.4c1.1-0.6,2.4-1.2,3.6-1.4c0.2,0,0.3,0,0.4,0c0.9-0.1,1.5-0.2,2.4-0.1
	c0.3,0,0.8,0.1,1,0.2c-1.3,0.6-2.1,1.4-2.6,3c-0.9,2.5-0.4,4.4-0.2,7c0.2,2.1,1,6.2-0.6,9c-1.1,2.2-2.9,3.9-5.1,4.8
	c-0.8,0.3-2.2,0.7-3,0.5c1.6-1.2,2.6-2.5,3.4-4.4c0.6-1.5,1.1-3.4,1-4.8c-0.8,2-0.7,2.2-1.8,4.4C253.9,39.3,252.9,40.2,251.6,41.7
	L251.6,41.7z"/>
<path class="st0" d="M236.9,137.8c-0.6,0.1-0.5-0.2-1,0l1,0.9c-1.1,0.1-2.4-0.2-3.5-0.6c-0.6-0.2-0.9-0.5-1.2-0.5l1,1.2
	c-0.3,0-1.4-0.2-1.9-0.4c-0.3-0.1-0.7-0.3-1-0.4c-0.3-0.2-0.7-0.5-1-0.6v0.1c0,0,0,0.2,0.1,0.6c0.1,0.2,0.3,0.5,0.4,0.7h-0.1h-0.1
	c-0.5-0.1,0.1,0-0.1,0l-0.8-0.4c-0.3-0.2-0.8-0.5-1.1-0.7c-0.8-0.6-1.5-1.2-2.2-1.9c-0.2,0.3,0,1,0,1.2c-1.6-1.3-3.2-4.7-3.4-6.9
	c-0.1-0.5-0.2-1.8,0.1-2.2c0.5,0.2,1.1,0.5,1.7,0.8c1.1,0.4,2.3,0.8,3.4,1c1.8,0.4,3.3,0.7,5.2,0.8c0.4,0,3,0.2,3.4-0.1l-3-0.4
	c-6.1-1.1-8.1-2.7-8.9-2.8c-1.2-0.8-3.3-1.9-4.3-3c-0.4-0.4-0.8-0.7-1.2-1.2c-0.2-0.2-0.4-0.4-0.6-0.6c-0.2-0.2-0.3-0.3-0.4-0.5
	c-0.3-0.8,0,0.2,0.3,0c0.1-0.1,3.9,3.3,4.8,3.7c0.2-0.4,0.1-0.9,0.7-2c0.3-0.6,0.9-1.4,1.4-2c0.9-1,3.2-2.6,4.2-2.6
	c-0.1,0.2-0.4,0.4-0.5,0.6l-0.3,0.7c0.6-0.5,2.1-1.5,2.9-1.1l-0.6,0.4c0.1,0.1,1.5-0.4,2.2-0.6c0.4-0.1,0.6-0.1,1-0.1s0.8,0,1.1,0.1
	l-0.6,0.4c0.3,0.2,0.1,0,0.9-0.1c0.3-0.1,0.6-0.1,0.9-0.1c0.6,0,1.3,0.1,1.9,0.4l-0.8,0.4c0.3,0.1,0.6,0,1,0c0.3,0,0.6,0,0.9,0.1
	c0.7,0.2,1.2,0.4,1.8,0.9l-0.1,0.2c0.9,0.2,1.7,0.5,2.4,1.1l-0.7,0.2c0.7,0.4,2,0.5,3.2,1.6c-0.3,0.1-0.4,0-0.9,0.3
	c0.5,0.2,0.9,0.3,1.5,0.6c0.4,0.2,1.1,0.6,1.4,1c-0.4-0.1-0.6,0-1,0.2c0.3,0.3,1.6,0.7,2.6,1.4h-0.1c0,0-0.8,0-1.1,0.3
	c0.7,0,2,0.5,2.6,1.1h-0.9c-0.6,0.2-0.3,0.1-0.2,0.3c0.6,0.3,1.5,1.1,2.9,2.8c-0.3,0-0.7-0.1-1.1-0.1c-1,0.1-2.2,0.9-3.1,0.8
	c0.2,0.3,0.7,0.4,1,0.5c-0.8,0.7-2.8,0.9-3.7,0.9c0.4,0.5,0.7,0.5,1.1,0.7c-0.5,0.1-0.9,0.3-1.4,0.3c-0.3,0-0.5,0-0.7,0h-0.8
	l0.8,0.7c-1.4,0.5-2.2,0.4-3.2,0.6c0.3,0.3,0.6,0.5,0.9,0.6c-0.6,0.3-2.2,0.3-2.9,0.1c-0.2,0-0.3-0.1-0.5-0.1
	c-0.3-0.1-0.3-0.2-0.5-0.1c0.2,0.5,0.8,0.6,1.1,1C239,138.1,237.2,138,236.9,137.8L236.9,137.8z"/>
<path class="st0" d="M251.4,143c0.1,0,0.2,0,0.4,0.1c2.2,1.1,4.8,1.3,7.3,1.4c0.6,0,2.1-0.1,2.5-0.3c-0.9,0-1.4,0-2.4-0.1
	c-3-0.2-6.3-1.3-8.6-3.2c-0.8-0.7-2.3-2.1-2.8-2.9l0.5-0.3c0.5,0.6,1,1.3,1.6,1.9c0.7,0.7,1.2,1.2,2,1.7c0.2-0.3,0.3-0.7,0.6-1.1
	c1.2-1.8,2.7-2.5,4.8-2.7c1-0.1,2,0.1,2.9,0.4c-0.4,0.3-1.1,0.4-1.4,0.9c0.6-0.4,2.2-0.3,3-0.1c0.9,0.2,2.3,0.7,3.2,1.2
	c-0.3,0.2-0.7,0.1-1.4,0.6c0.1,0.1,0.8,0.1,1.3,0.2c0.4,0.1,0.9,0.3,1.4,0.5c1,0.5,1.9,1,2.8,1.8c-0.3,0.2-1.1-0.1-1.6,0.6
	c0.6,0.1,1.3,0.2,2,0.6c1,0.5,1.2,0.8,1.9,1.5c-0.9,1-2.1,1.5-3.4,1.7c-0.3,0-1,0-1.2,0.1c0.2,0.1,0.4,0.2,0.6,0.3s0.4,0.1,0.6,0.3
	c-1.4,0.5-4.4,1.1-5.9,0.5c-0.9,0-0.3,0.4-0.2,0.4l1.2,0.4c-0.4,0.3-1.5,0.5-2,0.5c-0.8,0-1.5-0.1-1.9-0.1c-0.3,0-0.5-0.1-0.8-0.2
	c-0.5-0.1-1-0.3-1.6-0.5c0.3,0.4,0.7,0.8,1.1,1.1c-0.5,0.2-1.8-0.2-2.4-0.5c-1.7-0.8-3.2-2.2-3.8-4
	C251.6,144.7,251.3,143.6,251.4,143L251.4,143z"/>
<path class="st0" d="M209.8,27.1c0.3,1,0.3,4.2,2.4,6.8c0.3,0.4,1.5,1.1,2.2,1.1l-1-1.5c-0.7-1.1-2.3-4.7-2.2-5.6
	c1.4-0.5,2-0.4,3.8-1.3c6.2-3.4,7.9-13.2,5.7-19.4c-0.4-1.1-1.1-2.5-1.8-3.4c-0.1-0.1-0.2-0.2-0.3-0.3c-0.6-0.7-1-1.1-1.8-1.6
	c-0.2-0.2-0.6-0.5-0.9-0.5c0.6,1.3,0.7,2.4,0,4c-1,2.5-2.5,3.7-4.4,5.4c-1.6,1.5-4.8,4-5.4,7.2c-0.6,2.3-0.4,4.9,0.8,7
	c0.4,0.7,1.2,1.9,1.9,2.4c-0.5-1.9-0.3-3.6,0.3-5.6c0.5-1.5,1.4-3.3,2.3-4.3c-0.7,2-0.9,2.1-1.5,4.5
	C209.6,23.8,209.7,25.1,209.8,27.1L209.8,27.1z"/>
<path class="st0" d="M144.8,48.9c0.6,1.5,0.7,6.5,4.2,10.5c0.6,0.7,2.4,1.7,3.5,1.5l-1.6-2.3c-1.1-1.7-3.8-7.1-3.8-8.6
	c2.1-0.9,3.1-0.7,5.9-2.3c9.5-5.7,11.5-21.1,7.7-30.7c-0.7-1.8-1.8-3.8-3.1-5.2c-0.2-0.2-0.3-0.3-0.5-0.5c-1-1.1-1.6-1.6-2.9-2.5
	c-0.4-0.3-1-0.7-1.4-0.7c1,2,1.2,3.7,0.3,6.3c-1.4,3.9-3.8,5.9-6.5,8.7c-2.3,2.4-7.2,6.6-8,11.5c-0.8,3.7-0.3,7.6,1.7,10.8
	c0.7,1.1,2,2.9,3.1,3.6c-0.9-3-0.7-5.6,0.2-8.7c0.7-2.4,1.9-5.2,3.4-6.9c-1,3.2-1.3,3.4-2,7.1C144.3,43.8,144.6,45.8,144.8,48.9
	L144.8,48.9z"/>
<path class="st0" d="M241.7,23.9c-1.1,0.9-1.9,1.4-2.8,2.6c-0.8,1.1-1.2,1.9-1.7,3.1c-0.8,2-1.2,4.4-1.5,7c-0.3,1.6-0.5,5.5-0.5,7.3
	c0,1.3,0,2.5,0,3.8c-0.1,6.4-4,14.3-13.2,13.4c-1-0.1-1.2,0-1.5-0.4c2.8-1.7,4.6-3.5,5.7-6.4c1.2-3.2,1.4-4.9,1.9-8.4l0.8-5.8
	c-0.3,0.5-0.7,2.7-0.9,3.4c-0.3,1.1-0.5,2.2-0.8,3.6c-0.5,2.3-1,4.8-2,6.9c-2.2,4.5-6.4,7.7-12.4,9.7c-0.1-0.6,0.1-0.8,0.2-1.4
	c1.6-0.6,3.4-1.3,4.8-2.2l0.3-0.2l0.3-0.3c-2.2-2.5-3.6-4.1-4.8-7.7c-0.5-1.6-0.8-3.1-0.8-4.7c0-1,0.2-3.3,0.6-3.9
	c0.9,0.9,4.2,2,5.7,1.6c-1-0.5-1.9-0.4-3.5-1.9c-2-1.8-1.8-2-0.6-4.5c0.1-0.3,0.3-0.6,0.5-0.9c0.3-0.6,0.7-1.1,1.1-1.7
	c0.5-0.7,2-2.6,2.9-3.1c0.8,2.2,2.2,3.6,4.4,4.1c0.4,0.1,0.5,0.1,0.8,0.1c-0.2-0.2-0.4-0.3-0.7-0.5c-1.5-1.2-2.4-3.1-2.6-5.1
	c-0.1-1,0.4-1.1,1.1-1.7c2.1-1.9,5.1-3.7,8.3-4.5c0,0.7-0.3,1.4-0.2,2.4c0.1,1.2,0.4,1.8,0.9,2.9c0.2-0.3,0.1,0,0.2-0.5
	c0.1-1-0.1-1.4,0.5-3.2c0.2-0.5,0.4-1.1,0.7-1.6c0.4-0.9,0.3-1,1.4-1.3c1.5-0.5,2.9-0.8,4.4-0.9c0.7,0,3.4,0,3.8,0.3L241.7,23.9
	L241.7,23.9z"/>
<path class="st0" d="M274.4,67.2c-0.1,1-0.5,0.7-0.4,1.4l1.7-1.1c-0.3,1.6-1.2,3.4-2.2,4.7c-0.5,0.7-1,1.1-1.2,1.5l2-1
	c-0.1,0.4-0.9,1.9-1.4,2.6c-0.3,0.4-0.6,0.8-1,1.2c-0.4,0.4-0.9,0.8-1.2,1.2h0.1c0,0,0.3,0.1,0.8,0c0.4-0.1,0.8-0.2,1.1-0.3
	c0,0,0,0.1-0.1,0.1c0,0,0,0.1-0.1,0.1c-0.4,0.6,0.1-0.1-0.1,0.2l-0.9,1c-0.4,0.4-1,0.9-1.4,1.3c-1.1,0.9-2.2,1.7-3.6,2.4
	c0.3,0.4,1.4,0.4,1.8,0.5c-2.5,1.8-7.9,2.6-11.1,2.1c-0.8-0.1-2.7-0.5-3.1-1.1c0.5-0.7,1.2-1.3,1.8-2.1c1.1-1.4,2-3,2.8-4.4
	c1.3-2.4,2.2-4.4,3.2-7c0.2-0.6,1.5-4.2,1.2-4.9l-1.8,4.1c-4,8.2-7,10.4-7.6,11.5c-1.6,1.4-4,4-6,4.9c-0.7,0.4-1.4,0.9-2.1,1.3
	c-0.4,0.2-0.7,0.4-1.1,0.6c-0.3,0.2-0.6,0.3-0.9,0.4c-1.3,0.1,0.3,0.1,0.1-0.5c-0.1-0.2,6.2-4.2,7.2-5.3c-0.4-0.4-1.3-0.6-2.6-1.8
	c-0.8-0.7-1.7-1.8-2.2-2.8c-1-1.7-2.5-5.6-2-7c0.2,0.2,0.4,0.7,0.7,1l0.9,0.7c-0.5-1.1-1.3-3.6-0.5-4.6l0.4,1.1
	c0.2-0.2,0-2.3,0.1-3.3c0.1-0.5,0.1-1,0.3-1.5c0.1-0.6,0.3-1.1,0.6-1.6l0.4,1c0.3-0.3,0.1-0.1,0.2-1.3c0-0.4,0.1-0.9,0.2-1.3
	c0.2-0.9,0.6-1.8,1.3-2.5l0.2,1.3c0.2-0.4,0.2-0.9,0.4-1.4c0.1-0.4,0.3-0.8,0.5-1.2c0.5-0.9,1.1-1.5,2-2.1l0.3,0.3
	c0.6-1.2,1.4-2.1,2.6-3v1.1c0.8-0.8,1.4-2.6,3.6-3.9c0.1,0.5-0.2,0.6,0,1.3c0.5-0.6,0.8-1.2,1.4-1.9c0.5-0.5,1.3-1.3,2-1.6
	c-0.2,0.5-0.2,0.8-0.2,1.5c0.6-0.3,1.6-2,3-3.2V46c0,0-0.3,1.2,0,1.7c0.2-1,1.5-2.7,2.6-3.3l-0.3,1.3c0,0.9,0,0.4,0.3,0.4
	c0.6-0.7,2.2-1.7,5.1-3.1c-0.1,0.4-0.4,0.9-0.5,1.5c-0.3,1.4,0.4,3.5-0.1,4.7c0.5-0.2,0.9-0.9,1.1-1.2c0.7,1.4,0.1,4.4-0.1,5.6
	c0.8-0.4,0.9-0.9,1.4-1.3c0,0.8,0,1.4-0.1,2.2c-0.1,0.4-0.1,0.7-0.2,1l-0.3,1.1l1.2-0.9c0.2,2.2-0.3,3.3-0.4,4.8
	c0.5-0.3,0.9-0.7,1.2-1.1c0.2,0.9-0.5,3.2-1,4.2c-0.1,0.2-0.2,0.4-0.4,0.6c-0.2,0.3-0.4,0.4-0.4,0.7c0.8-0.1,1.2-0.9,1.9-1.2
	C275.6,64.3,274.8,66.9,274.4,67.2L274.4,67.2z"/>
<path class="st0" d="M193.1,51.8c0.1-0.3,0.1-0.3-0.1-0.8c-1.7-4.6-1.7-9.9-1.3-14.7c0.1-1.3,0.7-4.2,1.1-4.8
	c-0.1,1.8-0.2,2.7-0.3,4.9c-0.1,5.9,1.4,12.8,4.6,17.8c1.1,1.7,3.8,5,5.3,6.1l0.7-0.8c-1.1-1.2-2.4-2.3-3.6-3.6
	c-1.3-1.5-2.1-2.6-2.9-4.4c0.7-0.4,1.5-0.5,2.4-0.9c3.7-1.9,5.5-4.8,6.4-8.9c0.4-2,0.2-4.1-0.2-5.9c-0.6,0.7-1,2.2-2.1,2.7
	c1-1.2,1-4.4,0.8-6c-0.2-1.9-0.9-4.7-1.7-6.7c-0.4,0.6-0.4,1.4-1.5,2.6c-0.1-0.3,0-1.6-0.1-2.6c-0.1-0.8-0.3-1.9-0.6-2.8
	c-0.7-2.2-1.7-4-3.1-6c-0.5,0.5,0,2.2-1.4,3c0-1.2-0.2-2.5-0.7-4c-0.8-2.1-1.3-2.4-2.5-4.1c-2.1,1.7-3.4,4-4,6.4
	c-0.1,0.6-0.2,1.9-0.4,2.3c-0.2-0.4-0.4-0.8-0.5-1.2c-0.1-0.5-0.2-0.9-0.4-1.3c-1.4,2.7-3.1,8.6-2.2,11.5c-0.1,1.8-0.8,0.5-0.8,0.4
	l-0.6-2.4c-0.7,0.7-1.2,2.9-1.4,3.9c-0.2,1.7-0.2,3-0.1,3.8c0,0.5,0.1,1,0.2,1.6c0.1,1,0.4,2.1,0.7,3.2c-0.8-0.6-1.4-1.5-1.9-2.4
	c-0.4,1,0.1,3.7,0.5,4.9c1.2,3.5,3.8,6.8,7.1,8.3C189.8,51.1,191.9,51.8,193.1,51.8L193.1,51.8z"/>
<path class="st0" d="M193.9,147.3c5.1-0.4,8.2-3.7,9.7-8.1c0.3-0.9,1.1-3.7,1.1-4.6c-0.8,1.6-1.3,2.6-2.6,4c-1.1,1.2-2.2,2-3.5,3
	c-2,1.5-6.6,3.7-9.7,3.5l0.2-0.1c0,0,0,0,0.1,0c1.2-0.4,1.5-0.2,3.4-1c6-2.3,12-8.4,13.8-14.6c0.2-0.7,0.6-2.4,0.3-3
	c-0.3-0.4-0.3-0.5-0.5-0.6c-0.1,0.7-0.1,1.3-0.2,2.1c-0.1,0.6-0.3,1.2-0.5,1.8c-0.4,1.2-0.9,2.3-1.5,3.1c-0.8,1.3-1,1.5-2.7,1.9
	c-4.5,1.1-8.3-0.6-12.8,0.2c-1.2,0.2-2.5,0.8-3.3,1.3c-1.5,0.9-1.6,1.2-2.6,2c-0.7,0.9-1,1-1.8,2.6c-0.6,1.1-1,2.1-1.3,3.3
	c-0.6,2.4-1.1,5.6,0,8l0.3-0.3c0.1-0.2,0.1-0.2,0.2-0.3c0.2-0.3,0.3-0.4,0.6-0.7c0.4-0.4,0.8-0.8,1.3-1.1
	C185.3,147.2,190.2,147.9,193.9,147.3L193.9,147.3z"/>
<path class="st0" d="M211.4,143c-0.7-0.7-3.2-1.9-4.5-4.7c-0.2-0.5-0.3-1.7,0-2.2l0.8,1.4c0.6,1,2.9,3.7,3.7,4
	c0.9-0.9,1.1-1.5,2.6-2.5c5.2-3.7,13.8-1.1,17.9,3.1c0.8,0.8,1.6,1.9,2,2.8c0.1,0.1,0.1,0.2,0.1,0.4c0.3,0.8,0.5,1.2,0.6,2.1
	c0,0.3,0.1,0.7,0.1,0.9c-0.9-1-1.7-1.5-3.2-1.6c-2.4-0.2-4,0.6-6.1,1.4c-1.8,0.7-5.1,2.2-7.9,1.5c-2.1-0.4-4.1-1.6-5.3-3.4
	c-0.4-0.6-1.1-1.7-1.1-2.5c1.4,1.2,2.8,1.7,4.6,1.9c1.4,0.2,3.2,0.2,4.4-0.2c-1.9-0.2-2.1-0.1-4.2-0.6
	C214,144.5,213,143.8,211.4,143L211.4,143z"/>
<path class="st0" d="M129.5,27.4c0.9,0.1,1.4,0,2.2-0.1c0-0.2-3.3-3.6-4.3-5.6c-0.4-0.9-0.5-0.9-0.9-2.1c-0.3-0.8-1-3.8-0.7-4.7
	c0.4,2.1,0.4,2.7,1.3,4.8c0.4,0.8,0.9,1.8,1.5,2.6c0.1,0.2,0.3,0.3,0.4,0.5c1.5,1.9,3.4,3.4,5.7,4.2c1.1,0.4,3.2,0.9,4.3,0.8
	c0.2-0.2,0.5-0.6,0.6-0.8c-0.4,0-0.8,0.1-1.3,0c-1.8,0-2.6-0.3-4.2-1.1c0.3-0.8,2.5-3.1,1.9-6.7c-0.2-1.2-0.6-2-1.1-2.8
	c-0.2-0.4-0.5-0.8-0.8-1.3c-0.8-1.2-1.8-2.6-2.4-3.8c-0.4-0.8-0.9-1.9-1-2.8c-0.2-1-0.2-2.3,0.2-3.5c0.3-0.9,0.7-1.5,1.4-2.1
	l0.4-0.3c0.1-0.1,0.1,0,0.1-0.1c-5.2-0.8-10.4,6-11.7,10.1c-0.5,1.7-0.6,3-0.5,4.6c0.1,1.4,0.5,2.6,0.9,3.7
	C123,24.2,126.1,26.9,129.5,27.4L129.5,27.4z"/>
<path class="st0" d="M42.5,140.8c0.3-0.4,0.4-0.2,0.5-0.5l-1,0.1c0.5-0.6,1.3-1.2,2-1.6c0.4-0.2,0.7-0.3,0.9-0.4h-1.1
	c0.1-0.2,0.8-0.6,1.2-0.9c0.2-0.1,0.5-0.2,0.7-0.3c0.3-0.1,0.6-0.2,0.8-0.3l0,0c0,0-0.1-0.1-0.4-0.2c-0.2-0.1-0.4-0.1-0.6-0.1
	c0,0,0-0.1,0,0l0,0c0.3-0.2-0.1,0,0.1-0.1l0.6-0.3c0.3-0.1,0.6-0.2,0.9-0.3c0.7-0.2,1.4-0.3,2.2-0.3c0-0.2-0.6-0.5-0.7-0.6
	c1.5-0.3,4.1,0.6,5.4,1.5c0.3,0.2,1.1,0.8,1.2,1.2c-0.4,0.2-0.8,0.3-1.2,0.5c-0.8,0.4-1.6,0.9-2.2,1.4c-1.1,0.8-2,1.5-3,2.4
	c-0.2,0.2-1.6,1.6-1.6,2l1.7-1.4c3.6-2.8,5.4-3.1,5.9-3.5c1-0.3,2.7-0.9,3.8-0.9c0.4,0,0.8-0.1,1.2-0.1c0.2,0,0.4,0,0.6,0
	c0.2,0,0.3,0,0.5,0c0.6,0.2-0.1-0.1-0.2,0.2c0,0.1-3.7,0.5-4.4,0.8c0.1,0.3,0.4,0.5,0.8,1.4c0.2,0.5,0.4,1.2,0.4,1.7
	c0.1,1-0.1,3.1-0.6,3.6c-0.1-0.1,0-0.4-0.1-0.6l-0.3-0.5c0,0.6-0.2,1.9-0.8,2.2l0.1-0.6c-0.1,0-0.5,1-0.8,1.5
	c-0.1,0.2-0.3,0.4-0.5,0.6c-0.2,0.2-0.4,0.4-0.6,0.6v-0.5c-0.2,0.1-0.1,0-0.4,0.6c-0.1,0.2-0.3,0.4-0.4,0.5
	c-0.3,0.3-0.7,0.7-1.1,0.8l0.2-0.6c-0.2,0.1-0.3,0.3-0.5,0.5c-0.1,0.1-0.3,0.3-0.5,0.4c-0.4,0.3-0.8,0.4-1.4,0.5l-0.1-0.2
	c-0.6,0.4-1.1,0.7-1.8,0.8l0.2-0.5c-0.5,0.2-1.2,0.8-2.5,1c0.1-0.3,0.2-0.3,0.3-0.6c-0.4,0.2-0.6,0.4-1.1,0.5
	c-0.3,0.1-0.9,0.3-1.3,0.3c0.2-0.2,0.3-0.3,0.4-0.6c-0.3,0-1.2,0.5-2,0.8c0,0,0-0.1,0,0c0,0,0.4-0.5,0.4-0.8
	c-0.3,0.4-1.3,0.9-1.9,0.9l0.4-0.5c0.2-0.4,0.1-0.2-0.1-0.2c-0.4,0.2-1.4,0.3-3,0.2c0.1-0.2,0.4-0.3,0.6-0.5
	c0.4-0.6,0.6-1.6,1.1-2.1c-0.3,0-0.6,0.2-0.8,0.3c0-0.8,0.9-2,1.3-2.5c-0.5,0-0.6,0.2-0.9,0.2c0.2-0.3,0.3-0.6,0.5-0.9
	c0.1-0.2,0.2-0.3,0.3-0.4l0.4-0.4l-0.7,0.1c0.4-1,0.9-1.4,1.2-2.1c-0.3,0-0.6,0.1-0.8,0.2c0.1-0.5,0.9-1.3,1.4-1.7
	c0.1-0.1,0.2-0.1,0.3-0.2c0.2-0.1,0.3-0.1,0.3-0.2c-0.4-0.1-0.7,0.1-1.1,0.1C41.4,141.9,42.3,140.9,42.5,140.8L42.5,140.8z"/>
<path class="st0" d="M296.8,139.7c-0.4-0.3-0.4-0.1-0.6-0.4l1-0.2c-0.7-0.4-1.6-0.8-2.4-0.9c-0.4-0.1-0.7,0-1-0.1l1.1-0.3
	c-0.2-0.1-1-0.4-1.4-0.4c-0.2,0-0.5-0.1-0.8-0.1s-0.6,0-0.8,0c0,0,0-0.1,0,0c0,0,0.1-0.2,0.3-0.3c0.2-0.1,0.3-0.2,0.5-0.3h-0.1
	c0,0,0,0-0.1,0c-0.4-0.1,0.1,0-0.1,0h-0.7c-0.3,0-0.7,0-1,0c-0.7,0.1-1.4,0.2-2.1,0.4c0-0.2,0.4-0.7,0.5-0.8
	c-1.5,0.2-3.7,1.8-4.7,3.1c-0.2,0.3-0.8,1.1-0.7,1.5c0.4,0.1,0.9,0.1,1.4,0.1c0.9,0.1,1.8,0.4,2.5,0.6c1.3,0.4,2.3,0.8,3.6,1.4
	c0.3,0.1,2,1,2.2,1.4l-2.1-0.8c-4.3-1.5-6.1-1.3-6.7-1.5c-1.1,0.1-2.8,0-3.9,0.3c-0.4,0.1-0.8,0.2-1.2,0.3c-0.2,0.1-0.4,0.1-0.6,0.2
	c-0.2,0.1-0.3,0.1-0.5,0.2c-0.5,0.4,0.1-0.1,0.2,0.1c0.1,0.1,3.7-0.7,4.4-0.6c0,0.3-0.3,0.6-0.3,1.6c0,0.5,0,1.2,0.2,1.8
	c0.2,0.9,1.1,2.9,1.7,3.2c0-0.2-0.1-0.4-0.1-0.6l0.1-0.5c0.2,0.6,0.8,1.7,1.4,1.8l-0.2-0.5c0.1,0,0.8,0.8,1.2,1.2
	c0.2,0.2,0.4,0.3,0.6,0.4c0.3,0.2,0.5,0.3,0.8,0.3l-0.2-0.5c0.2,0,0.1,0,0.5,0.4c0.2,0.1,0.4,0.3,0.6,0.4c0.4,0.2,0.9,0.4,1.3,0.4
	l-0.4-0.5c0.2,0.1,0.4,0.2,0.6,0.3s0.4,0.2,0.6,0.3c0.5,0.2,0.9,0.2,1.5,0.1V152c0.7,0.2,1.2,0.3,2,0.2l-0.4-0.4
	c0.6,0,1.4,0.4,2.7,0.2c-0.2-0.2-0.3-0.2-0.5-0.5c0.4,0,0.7,0.2,1.2,0.2c0.3,0,0.9,0,1.3-0.1c-0.3-0.1-0.4-0.2-0.6-0.5
	c0.3-0.1,1.3,0.2,2.2,0.1l0,0c0,0-0.5-0.3-0.6-0.6c0.4,0.3,1.5,0.4,2.1,0.3l-0.6-0.3c-0.3-0.4-0.1-0.2,0-0.2c0.5,0,1.4-0.2,2.9-0.7
	c-0.2-0.1-0.5-0.2-0.7-0.3c-0.6-0.4-1.1-1.4-1.7-1.7c0.3-0.1,0.6,0,0.8,0c-0.2-0.7-1.5-1.6-2-2c0.4-0.2,0.6,0,1-0.1
	c-0.3-0.3-0.5-0.5-0.8-0.7c-0.2-0.1-0.3-0.2-0.5-0.3l-0.5-0.3l0.7-0.1c-0.7-0.9-1.3-1.1-1.8-1.6c0.3-0.1,0.6-0.1,0.8,0
	c-0.3-0.4-1.3-1-1.8-1.2c-0.1,0-0.2-0.1-0.4-0.1c-0.2,0-0.3,0-0.4-0.1c0.3-0.2,0.7-0.1,1.1-0.2C298.2,140.3,297.1,139.6,296.8,139.7
	L296.8,139.7z"/>
<path class="st0" d="M130.5,150.9c-4.1,1-7.4-0.8-9.7-3.9c-0.5-0.7-1.8-2.6-2.1-3.4c1,1,1.7,1.8,3.1,2.5c1.2,0.6,2.2,1.1,3.5,1.5
	c2,0.7,6.2,1.2,8.6,0.3h-0.2c0,0,0,0-0.1,0c-1.1,0-1.2,0.2-3,0.1c-5.4-0.3-11.7-3.6-14.6-8c-0.3-0.5-1.1-1.7-1-2.3
	c0.1-0.4,0.1-0.5,0.3-0.6c0.3,0.5,0.4,1,0.7,1.6c0.3,0.5,0.5,0.9,0.8,1.3c0.6,0.8,1.3,1.5,2,2.1c1,0.8,1.2,0.9,2.6,0.8
	c3.8-0.3,6.4-2.7,10.1-3.1c1-0.1,2.1,0,3,0.1c1.4,0.3,1.5,0.5,2.5,0.9c0.8,0.6,1,0.5,2.1,1.6c0.7,0.7,1.3,1.4,1.9,2.3
	c1.1,1.8,2.3,4.2,2.1,6.3l-0.3-0.2c-0.1-0.1-0.1-0.1-0.3-0.2c-0.2-0.2-0.4-0.3-0.6-0.4c-0.4-0.2-0.8-0.4-1.3-0.6
	C137.3,148.6,133.6,150.5,130.5,150.9L130.5,150.9z"/>
<path class="st0" d="M59.5,243.3c-0.3,0.1-0.3,0.1-0.8-0.1c-4.6-1.6-10-1.6-14.8-1.1c-1.3,0.1-4.2,0.7-4.9,1.2
	c1.8-0.2,2.8-0.3,4.9-0.3c6-0.2,12.9,1.2,18,4.5c1.8,1.1,5.1,3.8,6.2,5.3l-0.8,0.8c-1.2-1.1-2.3-2.4-3.6-3.5
	c-1.5-1.3-2.6-2.1-4.5-2.9c-0.4,0.7-0.5,1.6-0.9,2.4c-1.9,3.8-4.8,5.6-8.9,6.6c-2,0.5-4.1,0.2-6-0.2c0.7-0.6,2.2-1.1,2.7-2.1
	c-1.2,1-4.4,1-6,0.9c-1.9-0.2-4.8-0.8-6.8-1.7c0.6-0.4,1.4-0.5,2.6-1.6c-0.3-0.1-1.7,0.1-2.7,0c-0.8-0.1-1.9-0.3-2.9-0.6
	c-2.2-0.7-4-1.7-6.1-3c0.5-0.5,2.2,0,3-1.5c-1.2,0-2.6-0.1-4-0.7c-2.1-0.8-2.5-1.3-4.1-2.5c1.6-2.2,4-3.5,6.4-4.1
	c0.6-0.2,2-0.2,2.3-0.5c-0.4-0.2-0.8-0.4-1.2-0.5c-0.5-0.1-0.9-0.1-1.3-0.4c2.7-1.4,8.6-3.2,11.6-2.4c1.8-0.1,0.5-0.8,0.4-0.8
	l-2.4-0.6c0.7-0.8,2.9-1.2,3.9-1.4c1.7-0.2,3-0.2,3.8-0.2c0.5,0,1.1,0.1,1.6,0.2c1.1,0.1,2.2,0.4,3.2,0.7c-0.6-0.8-1.5-1.4-2.5-1.9
	c1-0.5,3.7,0,4.9,0.5c3.5,1.2,6.9,3.7,8.4,7.1C58.8,240,59.5,242.1,59.5,243.3L59.5,243.3z"/>
<path class="st0" d="M173.6,236c0.2,0.6,0.7,0.8,0.5,1.1c-6.3,2.1-14.3,4.3-20.1,7.3c-2.4,1.3-4.8,2.8-6.9,4.5l-1.7,1.7
	c3.2-1.7,4.7-3.2,9-5.1c1.4-0.6,2.9-1.2,4.3-1.6c1.4-0.4,2.8-0.7,4.1-1.1c1.1,1.6,1.7,5.2,1.7,6.9c-0.1,7.1-7.1,13-13.8,15.3
	c-6.5,2.2-13.4,2.4-19.9,1.1c-0.8-0.2-5.3-1.3-6.2-1.9c0.2-0.4,0.3-1,0.4-1.4l0.4-1.5c0.1-0.5,0.2-0.9,0.4-1.5
	c2-7,4.5-12.9,10.1-18.3c3.7-3.6,9-6.2,13.5-6.5c4.4-0.3,8.6,1.6,11.7,4.9C165.5,238.1,173.7,235.9,173.6,236L173.6,236z"/>
<path class="st0" d="M225.9,263c0.1,0.5-0.1,1,0.2,1c5.6-1.7,12.4-4.2,18.1-5c2.4-0.3,4.8-0.5,7.2-0.3l2.1,0.4c-3.2,0.4-5,0.1-9,0.9
	c-1.3,0.3-2.7,0.7-3.9,1c-1.2,0.4-2.4,0.9-3.5,1.4c0,1.7,1.5,4.6,2.3,5.7c3.7,5,11.7,5.7,17.6,3.9c5.7-1.7,10.8-5.1,14.8-9.3
	c0.5-0.5,3.1-3.6,3.4-4.5c-0.4-0.2-0.7-0.5-1-0.8l-1.1-0.9c-0.3-0.3-0.6-0.6-1.1-0.9c-5-4-9.7-6.9-16.5-8c-4.4-0.7-9.5,0.2-12.9,2.2
	c-3.3,2-5.3,5.5-5.9,9.4C232.7,260.4,225.8,263,225.9,263L225.9,263z"/>
<path class="st0" d="M132.2,265c-0.5-0.2-0.7-0.7-1-0.4c-2,5.5-4.1,12.4-7,17.4c-1.2,2.1-2.6,4.1-4.2,5.9l-1.6,1.4
	c1.6-2.8,2.9-4,4.7-7.7c0.6-1.2,1.1-2.5,1.5-3.7s0.7-2.4,1-3.6c-1.4-1-4.5-1.6-6-1.6c-6.2-0.1-11.6,5.9-13.8,11.6
	c-2.1,5.6-2.5,11.6-1.5,17.4c0.1,0.7,1,4.6,1.5,5.4c0.4-0.2,0.9-0.2,1.3-0.3l1.3-0.3c0.4-0.1,0.8-0.2,1.4-0.3
	c6.2-1.6,11.4-3.6,16.3-8.3c3.2-3.1,5.6-7.7,6.1-11.6c0.4-3.8-1.2-7.6-4-10.4C130.1,272,132.2,264.9,132.2,265L132.2,265z"/>
<path class="st0" d="M165.7,287.1c0,0.3,0,0.3,0.4,0.8c3.2,4.3,4.8,9.8,5.8,15c0.3,1.4,0.6,4.6,0.3,5.4c-0.4-1.9-0.6-2.9-1.2-5.2
	c-1.7-6.2-5.4-13-10.3-17.2c-1.7-1.5-5.5-4.1-7.4-4.8l-0.5,1.1c1.5,0.9,3.2,1.6,4.8,2.6c1.8,1.2,3,2,4.4,3.7c-0.6,0.6-1.5,1-2.2,1.7
	c-3.3,3.2-4.3,6.7-4,11.3c0.2,2.2,1.1,4.3,2.1,6.1c0.4-1,0.4-2.6,1.4-3.4c-0.7,1.5,0.3,4.9,1,6.5c0.8,1.9,2.4,4.7,3.9,6.5
	c0.3-0.8,0-1.6,0.8-3.2c0.2,0.3,0.5,1.7,0.9,2.7c0.3,0.9,0.9,1.9,1.5,2.8c1.4,2,3,3.6,5.1,5.3c0.4-0.7-0.7-2.3,0.6-3.6
	c0.4,1.2,0.9,2.6,2,4c1.5,1.9,2.1,2.2,3.9,3.5c1.7-2.4,2.3-5.2,2.2-7.9c0-0.7-0.4-2.1-0.3-2.5c0.3,0.4,0.6,0.7,0.9,1.1
	c0.3,0.4,0.4,0.9,0.8,1.2c0.6-3.2,0.6-9.9-1.2-12.7c-0.5-1.9,0.7-0.7,0.7-0.7l1.4,2.3c0.6-1,0.4-3.4,0.2-4.4c-0.4-1.8-0.7-3.2-1-4
	c-0.2-0.6-0.4-1.1-0.7-1.6c-0.5-1.1-1.1-2.1-1.8-3.1c1,0.4,1.9,1.1,2.7,2c0.2-1.1-1.2-3.8-2-5c-2.4-3.2-6-5.9-10-6.5
	C169.3,286.7,166.9,286.7,165.7,287.1L165.7,287.1z"/>
<path class="st0" d="M322.9,230.7c-1,1-1.6,1.8-2.8,2.6c-1.1,0.7-2,1.1-3.2,1.4c-2,0.6-4.5,0.8-7.1,0.9c-1.6,0.2-5.6,0-7.3-0.1
	c-1.3-0.1-2.5-0.2-3.8-0.3c-6.4-0.5-14.6,2.7-14.4,12c0,1-0.1,1.2,0.3,1.5c1.9-2.6,3.8-4.2,6.9-5.1c3.3-0.9,5-1,8.6-1.2l5.8-0.3
	c-0.5,0.3-2.8,0.5-3.5,0.6c-1.2,0.2-2.3,0.3-3.6,0.5c-2.4,0.3-4.9,0.6-7,1.4c-4.7,1.8-8.2,5.7-10.7,11.6c0.6,0.2,0.8-0.1,1.4-0.1
	c0.7-1.5,1.6-3.2,2.6-4.6l0.2-0.3l0.3-0.3c2.3,2.4,3.7,3.9,7.2,5.4c1.6,0.7,3,1,4.6,1.2c1,0.1,3.3,0.1,4-0.3c-0.8-1-1.6-4.3-1.2-5.8
	c0.4,1,0.3,1.9,1.6,3.7c1.6,2.2,1.8,1.9,4.4,1c0.3-0.1,0.6-0.3,0.9-0.4c0.7-0.3,1.2-0.6,1.8-0.9c0.8-0.4,2.7-1.8,3.3-2.6
	c-2.1-1-3.4-2.5-3.7-4.7c-0.1-0.4-0.1-0.5-0.1-0.8c0.2,0.2,0.3,0.4,0.5,0.8c1,1.6,2.9,2.7,4.8,3c0.9,0.2,1.2-0.3,1.8-0.9
	c2.1-1.9,4.1-4.8,5.2-7.8c-0.7,0-1.4,0.2-2.5,0c-1.2-0.2-1.8-0.6-2.8-1.1c0.3-0.1,0-0.1,0.5-0.1c1,0,1.4,0.2,3.2-0.3
	c0.6-0.1,1.1-0.3,1.7-0.5c0.9-0.3,1-0.3,1.5-1.3c0.6-1.5,1.1-2.9,1.2-4.3c0.1-0.7,0.3-3.4,0-3.8L322.9,230.7L322.9,230.7z"/>
<path class="st0" d="M317.9,223.3c-0.7,0.7-3.6,2.1-5.1,5.2c-0.2,0.5-0.3,1.8,0,2.4l0.9-1.5c0.7-1.1,3.2-4.1,4.1-4.4
	c1,1,1.2,1.6,2.9,2.8c5.8,4.1,15.3,1.2,19.9-3.5c0.9-0.9,1.8-2.1,2.2-3.2c0.1-0.2,0.1-0.2,0.2-0.4c0.4-0.8,0.5-1.4,0.7-2.3
	c0-0.3,0.1-0.8,0.1-1c-0.9,1.1-1.9,1.7-3.6,1.8c-2.7,0.2-4.4-0.7-6.8-1.6c-2-0.7-5.7-2.5-8.8-1.7c-2.4,0.5-4.5,1.8-5.9,3.8
	c-0.5,0.7-1.2,1.9-1.3,2.8c1.5-1.3,3.1-1.9,5.1-2.2c1.6-0.2,3.6-0.2,4.9,0.2c-2.1,0.2-2.3,0.1-4.7,0.7
	C320.8,221.7,319.7,222.4,317.9,223.3L317.9,223.3z"/>
<path class="st0" d="M308,265.7c-1,0.1-4.1-0.8-7.2,0.5c-0.5,0.2-1.5,1.2-1.6,1.8l1.7-0.5c1.3-0.4,5.1-1,6-0.6c0.1,1.4-0.2,2,0.3,4
	c1.6,6.9,10.6,11.1,17.2,10.6c1.2-0.1,2.7-0.4,3.8-0.9c0.2-0.1,0.2-0.1,0.4-0.2c0.8-0.4,1.3-0.7,2.1-1.3c0.2-0.2,0.6-0.5,0.7-0.7
	c-1.4,0.2-2.5,0-3.9-1c-2.1-1.6-2.9-3.4-4-5.7c-1-1.9-2.6-5.7-5.5-7.1c-2.1-1.2-4.6-1.6-6.9-1.1c-0.8,0.2-2.2,0.7-2.8,1.2
	c2,0,3.5,0.7,5.3,1.8c1.3,0.9,2.8,2.2,3.5,3.4c-1.7-1.2-1.8-1.5-4-2.6C311.2,266.4,309.9,266.2,308,265.7L308,265.7z"/>
<path class="st0" d="M296.1,272.2c-0.6-0.6-0.7-0.1-1.1-0.6l1.7-0.3c-1.2-0.8-2.8-1.4-4.2-1.7c-0.8-0.2-1.3-0.1-1.7-0.3l1.9-0.6
	c-0.3-0.2-1.7-0.7-2.4-0.8c-0.4-0.1-0.9-0.2-1.3-0.2c-0.5,0-1.1,0-1.5,0v-0.1c0,0,0.1-0.3,0.5-0.5c0.3-0.2,0.6-0.3,0.9-0.5
	c0,0-0.1-0.1-0.1,0h-0.1c-0.6-0.2,0.1,0-0.2,0l-1.2-0.1c-0.5,0-1.2,0-1.7,0c-1.3,0.1-2.4,0.3-3.7,0.7c0-0.4,0.7-1.1,0.8-1.3
	c-2.6,0.3-6.6,3.1-8.3,5.3c-0.4,0.5-1.4,1.9-1.3,2.6c0.7,0.1,1.5,0.1,2.3,0.3c1.5,0.2,3.1,0.7,4.4,1.1c2.3,0.8,4,1.4,6.2,2.5
	c0.5,0.2,3.5,1.8,3.7,2.4l-3.6-1.5c-7.4-2.8-10.7-2.4-11.7-2.7c-1.8,0.1-4.9-0.1-6.8,0.5c-0.7,0.2-1.4,0.3-2.1,0.5
	c-0.4,0.1-0.7,0.2-1.1,0.3c-0.3,0.1-0.5,0.2-0.8,0.3c-0.9,0.7,0.1-0.3,0.4,0.2c0.1,0.2,6.4-1.1,7.7-0.9c0,0.5-0.5,1.1-0.5,2.7
	c0,0.9,0,2.1,0.2,3.1c0.4,1.6,1.8,5,2.9,5.6c0-0.3-0.1-0.7-0.2-1.1l0.2-0.9c0.3,1,1.3,3,2.5,3.2l-0.4-0.9c0.2,0,1.3,1.4,2,2.1
	c0.4,0.3,0.7,0.5,1.1,0.8s0.8,0.5,1.3,0.6l-0.3-0.9c0.4,0,0.1,0,0.9,0.7c0.3,0.2,0.6,0.5,0.9,0.7c0.6,0.4,1.5,0.8,2.3,0.8l-0.6-0.9
	c0.3,0.1,0.7,0.4,1.1,0.6c0.3,0.2,0.7,0.4,1.1,0.5c0.9,0.3,1.6,0.3,2.5,0.2v-0.4c1.1,0.4,2.2,0.5,3.4,0.3l-0.6-0.7
	c1,0.1,2.5,0.8,4.6,0.4c-0.3-0.4-0.5-0.3-0.8-0.9c0.7,0.1,1.2,0.3,2,0.4c0.6,0,1.6,0,2.2-0.2c-0.5-0.2-0.6-0.4-1-0.8
	c0.6-0.1,2.2,0.3,3.8,0.2l-0.1-0.1c0,0-0.9-0.6-1-1.1c0.7,0.5,2.6,0.8,3.6,0.5l-1-0.6c-0.5-0.6-0.2-0.3,0-0.4c0.8,0,2.4-0.3,5.1-1.1
	c-0.3-0.2-0.8-0.3-1.2-0.6c-1-0.8-1.8-2.4-2.9-2.9c0.5-0.2,1.1,0,1.4,0.1c-0.4-1.3-2.6-2.8-3.4-3.5c0.7-0.3,1.1,0,1.7-0.1
	c-0.5-0.5-0.8-0.9-1.4-1.3c-0.3-0.2-0.5-0.4-0.8-0.5l-0.9-0.5l1.3-0.2c-1.2-1.5-2.2-1.9-3.1-2.8c0.5-0.1,1-0.1,1.4,0
	c-0.4-0.7-2.2-1.8-3.1-2.1c-0.2-0.1-0.4-0.1-0.6-0.2c-0.4-0.1-0.5,0-0.7-0.2c0.6-0.4,1.3-0.2,1.9-0.4
	C298.6,273.4,296.6,272.2,296.1,272.2L296.1,272.2z"/>
<path class="st0" d="M260.3,233.1c0.1,0.8,0.4,1.3,0.7,1.9c0.2-0.1,2.2-3.9,3.8-5.3c0.7-0.6,0.7-0.7,1.6-1.4c0.7-0.5,3.1-1.9,3.9-2
	c-1.7,1-2.3,1.1-3.8,2.5c-0.6,0.6-1.4,1.3-1.9,2.1c-0.1,0.2-0.2,0.3-0.3,0.5c-1.3,1.9-2.1,3.9-2.2,6.2c0,1.1,0.1,3.1,0.5,4
	c0.2,0.1,0.7,0.3,0.9,0.3c-0.1-0.4-0.3-0.7-0.4-1.1c-0.5-1.6-0.4-2.4-0.2-4c0.8,0.1,3.4,1.4,6.4-0.2c1-0.5,1.5-1.1,2.2-1.7
	c0.3-0.3,0.6-0.7,0.9-1c0.8-1,1.8-2.3,2.7-3.2c0.6-0.6,1.4-1.3,2.2-1.7c0.9-0.4,2-0.8,3.2-0.8c0.9,0,1.5,0.2,2.2,0.7l0.4,0.3
	c0.1,0.1,0,0,0.1,0.1c-0.8-4.8-8.2-7.5-12.2-7.5c-1.6,0-2.9,0.3-4.2,0.8c-1.2,0.4-2.2,1.1-3,1.8
	C261.3,226.4,259.7,229.9,260.3,233.1L260.3,233.1z"/>
<path class="st0" d="M138.4,292.1c-1.2-4.1,0.4-7.4,3.4-9.9c0.6-0.5,2.5-2,3.3-2.3c-1,1.1-1.7,1.8-2.3,3.2c-0.6,1.2-0.9,2.3-1.3,3.6
	c-0.6,2-0.9,6.2,0.1,8.6v-0.2c0,0,0,0,0-0.1c-0.1-1.1-0.3-1.2-0.3-3c0-5.4,3-11.8,7.3-15c0.5-0.3,1.7-1.2,2.3-1.1
	c0.4,0.1,0.5,0.1,0.6,0.2c-0.5,0.3-1,0.5-1.5,0.8c-0.4,0.3-0.9,0.6-1.3,0.9c-0.8,0.6-1.5,1.4-2,2.1c-0.7,1-0.9,1.2-0.7,2.6
	c0.5,3.8,3,6.3,3.6,10c0.2,1,0.1,2.1,0,3c-0.2,1.4-0.4,1.6-0.8,2.6c-0.5,0.8-0.5,1-1.5,2.2c-0.7,0.8-1.4,1.4-2.2,2
	c-1.7,1.2-4,2.5-6.2,2.4l0.2-0.3c0.1-0.1,0.1-0.2,0.2-0.3c0.1-0.2,0.2-0.4,0.4-0.6c0.2-0.4,0.4-0.8,0.5-1.4
	C141.1,298.8,139,295.2,138.4,292.1L138.4,292.1z"/>
<path class="st0" d="M217.8,241.2c0.1,0.5,0.3,0.3,0.3,0.7l-0.9-0.4c0.3,0.8,0.8,1.6,1.4,2.2c0.3,0.3,0.6,0.4,0.7,0.7l-1.1-0.4
	c0.1,0.2,0.6,0.9,0.9,1.2c0.2,0.2,0.4,0.4,0.6,0.5c0.2,0.2,0.5,0.3,0.7,0.5l0,0c0,0-0.2,0.1-0.4,0.1s-0.4,0-0.6-0.1c0,0,0,0.1,0,0
	l0,0c0.2,0.3-0.1-0.1,0.1,0.1l0.5,0.4c0.2,0.2,0.5,0.4,0.8,0.5c0.6,0.4,1.2,0.7,2,0.9c-0.1,0.2-0.7,0.3-0.8,0.4
	c1.3,0.7,4.1,0.7,5.6,0.2c0.4-0.1,1.3-0.5,1.5-0.8c-0.3-0.3-0.7-0.6-1-0.9c-0.6-0.6-1.2-1.3-1.7-2c-0.8-1.1-1.4-2-2.1-3.2
	c-0.2-0.3-1.1-2-1-2.4l1.2,1.9c2.6,3.7,4.2,4.6,4.6,5.1c0.9,0.6,2.3,1.7,3.3,2c0.4,0.1,0.7,0.3,1.1,0.5c0.2,0.1,0.4,0.1,0.6,0.2
	c0.2,0.1,0.3,0.1,0.5,0.1c0.7,0-0.1,0.1-0.1-0.2c0-0.1-3.4-1.6-4-2.1c0.2-0.2,0.6-0.4,1.1-1.1c0.3-0.4,0.7-1,0.9-1.5
	c0.4-0.9,0.8-3,0.5-3.6c-0.1,0.1-0.2,0.4-0.3,0.5l-0.4,0.4c0.2-0.6,0.4-1.9-0.1-2.3l-0.1,0.6c-0.1-0.1-0.2-1.1-0.3-1.6
	c-0.1-0.3-0.1-0.5-0.2-0.7c-0.1-0.3-0.2-0.5-0.4-0.7l-0.1,0.5c-0.2-0.1,0-0.1-0.2-0.6c0-0.2-0.1-0.4-0.2-0.6
	c-0.2-0.4-0.4-0.9-0.8-1.1v0.6c-0.1-0.2-0.2-0.4-0.3-0.6c-0.1-0.2-0.2-0.4-0.3-0.6c-0.3-0.4-0.7-0.7-1.1-0.9l-0.1,0.2
	c-0.4-0.6-0.8-1-1.5-1.3l0.1,0.5c-0.5-0.4-0.9-1.2-2.1-1.7c0,0.3,0.1,0.3,0.1,0.7c-0.3-0.3-0.5-0.5-0.8-0.8
	c-0.3-0.2-0.7-0.5-1.1-0.6c0.2,0.2,0.2,0.4,0.2,0.7c-0.3-0.1-0.9-0.9-1.7-1.3v0.1c0,0,0.2,0.6,0.1,0.8c-0.2-0.5-1-1.2-1.5-1.4
	l0.3,0.6c0.1,0.5,0,0.2-0.1,0.2c-0.4-0.3-1.2-0.7-2.8-1.1c0.1,0.2,0.3,0.4,0.4,0.7c0.2,0.7,0.1,1.7,0.4,2.3
	c-0.3-0.1-0.5-0.4-0.6-0.5c-0.2,0.7,0.3,2.2,0.5,2.8c-0.4-0.1-0.5-0.4-0.8-0.5c0.1,0.4,0.1,0.7,0.2,1.1c0.1,0.2,0.1,0.3,0.2,0.5
	l0.3,0.5l-0.7-0.3c0.1,1.1,0.4,1.6,0.5,2.4c-0.3-0.1-0.5-0.3-0.7-0.5c0,0.5,0.5,1.6,0.8,2c0.1,0.1,0.1,0.2,0.2,0.3
	c0.1,0.1,0.2,0.1,0.3,0.3c-0.4,0-0.7-0.3-1-0.4C217,239.8,217.5,241,217.8,241.2L217.8,241.2z"/>
<path class="st0" d="M254.3,237c-0.2-0.1-0.2-0.1-0.3-0.5c-1.1-3.2-3.5-6-5.8-8.4c-0.6-0.6-2.2-1.9-2.8-2.1c0.9,0.9,1.3,1.4,2.3,2.5
	c2.7,3.1,4.9,7.5,5.4,11.6c0.2,1.4,0.2,4.4-0.1,5.6l-0.8-0.1c0-1.1,0.3-2.3,0.3-3.5c0-1.4,0-2.3-0.4-3.6c-0.5,0.1-1.1,0.4-1.7,0.5
	c-2.9,0.6-5.1-0.1-7.4-1.9c-1.1-0.9-1.9-2.1-2.5-3.3c0.7,0.1,1.5,0.7,2.3,0.5c-1.1-0.2-2.5-1.9-3.1-2.8c-0.7-1.1-1.6-2.9-2-4.3
	c0.5,0.1,0.8,0.5,2,0.7c-0.1-0.2-0.7-0.9-1.1-1.4c-0.3-0.5-0.7-1.2-0.9-1.8c-0.6-1.5-0.8-2.9-1-4.6c0.5,0.1,1,1.2,2.1,1
	c-0.5-0.6-1-1.4-1.4-2.5c-0.5-1.5-0.4-1.9-0.5-3.3c1.9-0.1,3.6,0.6,5,1.7c0.3,0.3,1,1,1.2,1c-0.1-0.3-0.2-0.6-0.3-0.9
	c-0.1-0.3-0.3-0.5-0.4-0.9c1.9,0.8,5.4,3.2,6.3,5.2c0.8,0.9,0.6-0.1,0.6-0.1l-0.7-1.6c0.7,0.1,1.9,1,2.4,1.5c0.8,0.8,1.4,1.5,1.8,2
	c0.2,0.3,0.4,0.6,0.6,0.9c0.4,0.6,0.7,1.3,1,2c0.2-0.7,0.1-1.4-0.1-2.1c0.7,0.3,1.6,2,1.9,2.8c0.9,2.4,1,5.3-0.2,7.6
	C255.8,235.2,255,236.4,254.3,237L254.3,237z"/>
<path class="st0" d="M210.2,268.9c-0.3,0.4-0.9,0.4-0.7,0.8c4.5,3.8,10.3,8.1,14,12.5c1.6,1.8,3,3.8,4.1,5.9l0.8,2
	c-2.1-2.5-2.8-4.1-5.6-7.1c-0.9-0.9-2-1.9-3-2.7c-1-0.8-2.1-1.5-3-2.2c-1.4,0.9-3.1,3.7-3.6,5c-2.3,5.8,1.5,12.9,6.2,16.9
	c4.6,3.9,10.1,6.3,15.8,7.4c0.7,0.1,4.7,0.7,5.6,0.5c-0.1-0.4,0.1-0.9,0.1-1.3l0.2-1.4c0.1-0.4,0.1-0.8,0.2-1.4
	c0.6-6.4,0.5-11.9-2.2-18.2c-1.8-4.1-5.3-7.9-8.9-9.7c-3.4-1.7-7.5-1.5-11.1,0.2C216.1,273.3,210.2,268.8,210.2,268.9L210.2,268.9z"
	/>
<path class="st0" d="M172.4,256.2c-0.7-0.8-1.8-3.8-4.7-5.5c-0.5-0.3-1.8-0.5-2.4-0.2l1.5,1c1,0.8,3.8,3.5,4.1,4.5
	c-1.1,1-1.7,1.1-3.1,2.6c-4.6,5.4-2.6,15.1,1.7,20.2c0.8,0.9,1.9,1.9,2.9,2.5c0.1,0.1,0.2,0.1,0.4,0.2c0.8,0.4,1.3,0.7,2.3,0.9
	c0.3,0.1,0.8,0.2,1,0.2c-1-1-1.5-2-1.5-3.7c0-2.7,1.1-4.3,2.2-6.6c0.9-1.9,3-5.5,2.5-8.6c-0.3-2.4-1.4-4.7-3.3-6.2
	c-0.6-0.5-1.8-1.4-2.6-1.5c1.2,1.6,1.6,3.2,1.7,5.3c0.1,1.6-0.1,3.6-0.6,4.9c0-2.1,0.1-2.3-0.3-4.7
	C173.7,259.2,173.1,258,172.4,256.2L172.4,256.2z"/>
<path class="st0" d="M212.2,244.8c-0.6-0.8-0.9-0.4-1.1-1l2.1,0.1c-1.2-1.3-2.9-2.5-4.6-3.2c-0.9-0.4-1.5-0.4-1.9-0.8l2.4-0.2
	c-0.3-0.4-1.8-1.2-2.7-1.6c-0.5-0.2-1-0.4-1.5-0.6c-0.6-0.2-1.3-0.2-1.8-0.5l0.1-0.1c0,0,0.2-0.3,0.8-0.5c0.4-0.2,0.8-0.2,1.2-0.3
	l-0.1-0.1l-0.1-0.1c-0.7-0.4,0.2,0.1-0.2-0.1l-1.4-0.4c-0.6-0.2-1.4-0.3-2-0.4c-1.6-0.2-3-0.3-4.7-0.2c0.1-0.5,1.1-1.2,1.4-1.4
	c-3.2-0.3-8.7,1.9-11.4,4.1c-0.6,0.5-2.2,1.9-2.3,2.7c0.8,0.3,1.8,0.6,2.7,0.9c1.7,0.7,3.5,1.6,5,2.6c2.5,1.5,4.4,2.8,6.8,4.7
	c0.5,0.4,3.7,3.1,3.8,3.9l-3.9-2.8c-8.2-5.3-12.1-5.8-13.2-6.5c-2.2-0.4-5.8-1.5-8.2-1.3c-0.9,0-1.8-0.1-2.6,0c-0.5,0-0.9,0-1.3,0.1
	c-0.4,0-0.7,0.1-1,0.2c-1.3,0.6,0.2-0.3,0.4,0.4c0.1,0.2,8,0.5,9.5,1c-0.2,0.6-0.9,1.2-1.4,3.1c-0.3,1.1-0.6,2.6-0.6,3.8
	c0,2.1,0.8,6.5,1.9,7.6c0.1-0.3,0-0.9,0.1-1.3l0.5-1.1c0.1,1.3,0.7,4,2.1,4.5l-0.2-1.2c0.2,0.1,1.2,2.1,1.9,3
	c0.4,0.5,0.6,0.8,1.1,1.2c0.5,0.5,0.9,0.8,1.4,1.1L189,263c0.5,0.1,0.1,0.1,0.9,1.1c0.3,0.4,0.6,0.8,0.9,1.1
	c0.7,0.7,1.6,1.4,2.6,1.6l-0.5-1.3c0.4,0.2,0.7,0.7,1.1,1c0.3,0.3,0.7,0.6,1.1,0.9c1,0.6,1.8,0.8,3,0.9l0.1-0.4
	c1.3,0.8,2.4,1.2,4,1.4l-0.6-1c1.2,0.3,2.7,1.6,5.4,1.7c-0.2-0.5-0.5-0.5-0.7-1.3c0.8,0.3,1.4,0.7,2.3,1c0.7,0.2,1.9,0.5,2.7,0.4
	c-0.5-0.3-0.7-0.6-1-1.3c0.7,0,2.6,1,4.5,1.3l-0.1-0.1c0,0-0.9-1-1-1.6c0.8,0.8,2.9,1.6,4.2,1.6l-1-1c-0.5-0.9-0.2-0.4,0.1-0.5
	c1,0.3,2.9,0.4,6.4,0c-0.3-0.4-0.9-0.6-1.3-1.1c-1-1.2-1.5-3.4-2.6-4.3c0.6-0.1,1.3,0.3,1.7,0.5c-0.1-1.7-2.3-4.1-3.2-5.1
	c1-0.1,1.3,0.3,2,0.4c-0.4-0.7-0.8-1.3-1.3-1.9c-0.3-0.3-0.5-0.6-0.8-0.8l-0.9-0.8l1.6,0.1c-1-2.1-2.1-2.9-3-4.2
	c0.7,0,1.2,0.2,1.7,0.4c-0.3-1-2.2-2.7-3.2-3.3c-0.2-0.1-0.4-0.2-0.7-0.4c-0.4-0.2-0.6-0.1-0.8-0.4c0.8-0.3,1.6,0.1,2.4,0.1
	C214.9,246.8,212.8,244.8,212.2,244.8L212.2,244.8z"/>
<path class="st0" d="M246.2,337.7c-1.3-0.6-2.3-0.8-3.4-1.7c-1.1-0.8-1.7-1.4-2.5-2.4c-1.3-1.7-2.4-3.9-3.4-6.3
	c-0.7-1.4-2-5.2-2.5-6.9c-0.4-1.2-0.7-2.4-1.1-3.7c-1.9-6.1-7.8-12.6-16.4-9.1c-0.9,0.4-1.2,0.3-1.3,0.8c3.1,0.8,5.3,2.1,7.2,4.5
	c2.1,2.7,2.7,4.3,4.2,7.6l2.4,5.3c-0.4-0.4-1.5-2.4-1.8-3c-0.6-1-1.1-2-1.8-3.2c-1.2-2.1-2.4-4.3-3.9-6c-3.4-3.7-8.3-5.5-14.6-5.8
	c0.1,0.7,0.4,0.7,0.6,1.2c1.7,0.1,3.6,0.3,5.2,0.8l0.3,0.1l0.3,0.2c-1.4,3-2.3,4.9-2.4,8.7c0,1.7,0.2,3.2,0.6,4.7
	c0.3,0.9,1.1,3.1,1.7,3.6c0.6-1.1,3.4-3.1,5-3.2c-0.8,0.8-1.7,0.9-2.9,2.8c-1.4,2.3-1.1,2.4,0.7,4.5c0.2,0.3,0.5,0.5,0.7,0.7
	c0.5,0.5,1,0.9,1.5,1.3c0.7,0.6,2.6,1.9,3.7,2.1c0.2-2.3,1.1-4,3-5.2c0.3-0.2,0.4-0.2,0.7-0.4c-0.1,0.3-0.3,0.4-0.5,0.7
	c-1.1,1.6-1.4,3.7-1,5.6c0.2,0.9,0.7,1,1.5,1.3c2.6,1.3,6,2.1,9.2,2c-0.2-0.7-0.7-1.3-0.9-2.3c-0.2-1.2-0.1-1.9,0-3.1
	c0.2,0.2,0.1,0,0.3,0.4c0.4,0.9,0.3,1.4,1.4,2.9c0.3,0.5,0.7,0.9,1.1,1.4c0.6,0.7,0.6,0.8,1.8,0.9c1.6,0.1,3.1-0.1,4.5-0.4
	c0.7-0.2,3.3-1,3.6-1.4H246.2L246.2,337.7z"/>
<path class="st0" d="M255.6,284.6c0,0.3,0,0.3,0.4,0.8c3.2,4.3,4.8,9.8,5.8,15c0.3,1.4,0.6,4.6,0.3,5.4c-0.4-1.9-0.6-2.9-1.2-5.2
	c-1.7-6.2-5.4-13-10.3-17.2c-1.7-1.5-5.5-4.1-7.4-4.8l-0.5,1.1c1.5,0.9,3.2,1.6,4.8,2.6c1.8,1.2,3,2,4.4,3.7c-0.6,0.6-1.5,1-2.2,1.7
	c-3.3,3.2-4.3,6.7-4,11.3c0.2,2.2,1.1,4.3,2.1,6.1c0.4-1,0.4-2.6,1.4-3.4c-0.7,1.5,0.3,4.9,1,6.5c0.8,1.9,2.4,4.7,3.9,6.5
	c0.3-0.8,0-1.6,0.8-3.2c0.2,0.3,0.5,1.7,0.9,2.7c0.3,0.9,0.9,1.9,1.5,2.8c1.4,2,3,3.6,5.1,5.3c0.4-0.7-0.7-2.3,0.6-3.6
	c0.4,1.2,0.9,2.6,2,4c1.5,1.9,2.1,2.2,3.9,3.5c1.7-2.4,2.3-5.2,2.2-7.9c0-0.7-0.4-2.1-0.3-2.5c0.3,0.4,0.6,0.7,0.9,1.1
	s0.4,0.9,0.8,1.2c0.6-3.2,0.6-9.9-1.2-12.7c-0.5-1.9,0.7-0.7,0.7-0.7l1.4,2.3c0.6-1,0.4-3.4,0.2-4.4c-0.4-1.8-0.7-3.2-1-4
	c-0.2-0.6-0.4-1.1-0.7-1.6c-0.5-1.1-1.1-2.1-1.8-3.1c1,0.4,1.9,1.1,2.7,2c0.2-1.1-1.2-3.8-2-5c-2.4-3.2-6-5.9-10-6.5
	C259.3,284.3,256.9,284.2,255.6,284.6L255.6,284.6z"/>
<path class="st0" d="M283.9,300c-0.7,0.5-1.1,1-1.6,1.5c0.2,0.1,4.9,0.5,6.9,1.4c0.9,0.4,0.9,0.4,2.1,1c0.8,0.4,3.3,2.2,3.7,3
	c-1.7-1.3-2-1.8-4.1-2.7c-0.9-0.4-1.9-0.7-2.9-1c-0.2-0.1-0.4-0.1-0.6-0.1c-2.4-0.4-4.8-0.3-7.1,0.6c-1.1,0.4-3,1.5-3.8,2.2
	c0,0.2,0,0.8,0.1,1c0.3-0.3,0.6-0.6,0.9-0.9c1.4-1.2,2.2-1.5,3.9-1.9c0.3,0.8,0.1,4,3,6.2c0.9,0.7,1.8,1,2.7,1.4
	c0.4,0.2,0.9,0.3,1.4,0.4c1.4,0.4,3.1,0.8,4.3,1.2c0.9,0.3,1.9,0.8,2.6,1.4c0.8,0.6,1.7,1.6,2.1,2.8c0.4,0.9,0.4,1.6,0.3,2.5
	l-0.1,0.6c0,0.1,0,0,0,0.2c4.4-2.9,3.8-11.4,2-15.3c-0.8-1.6-1.6-2.7-2.7-3.8c-1-1-2.1-1.6-3.2-2.2C291,298,286.8,298,283.9,300
	L283.9,300z"/>
<path class="st0" d="M252.5,323.2c-0.9-0.5-2.9-3-6.3-3.6c-0.5-0.1-1.9,0.1-2.3,0.6l1.7,0.5c1.2,0.4,4.8,2.1,5.3,2.8
	c-0.7,1.3-1.3,1.6-2,3.5c-2.5,6.6,2.6,15.1,8.3,18.4c1.1,0.6,2.4,1.2,3.6,1.4c0.2,0,0.3,0,0.4,0c0.9,0.1,1.5,0.2,2.4,0.1
	c0.3,0,0.8-0.1,1-0.2c-1.3-0.6-2.1-1.4-2.6-3c-0.9-2.5-0.4-4.4-0.2-7c0.2-2.1,1-6.2-0.6-9c-1.1-2.2-2.9-3.9-5.1-4.8
	c-0.8-0.3-2.2-0.7-3-0.5c1.6,1.2,2.6,2.5,3.4,4.4c0.6,1.5,1.1,3.4,1,4.8c-0.8-2-0.7-2.2-1.8-4.4
	C254.8,325.5,253.9,324.6,252.5,323.2L252.5,323.2z"/>
<path class="st0" d="M195.9,269.8c-0.4,0.1-0.7-0.1-0.7,0.2c1.2,4,3,8.9,3.6,13c0.2,1.7,0.3,3.5,0.2,5.2l-0.3,1.5
	c-0.3-2.3-0.1-3.6-0.6-6.5c-0.2-0.9-0.5-1.9-0.7-2.8c-0.3-0.9-0.7-1.7-1-2.5c-1.2,0-3.3,1.1-4.1,1.6c-3.6,2.6-4.1,8.4-2.8,12.6
	c1.2,4.1,3.6,7.7,6.7,10.6c0.4,0.4,2.6,2.2,3.2,2.5c0.1-0.3,0.4-0.5,0.6-0.7l0.6-0.8c0.2-0.2,0.4-0.4,0.6-0.8c2.9-3.6,5-7,5.7-11.8
	c0.5-3.2-0.1-6.8-1.6-9.3c-1.4-2.4-4-3.8-6.8-4.2C197.7,274.7,195.9,269.8,195.9,269.8L195.9,269.8z"/>
<path class="st0" d="M28.9,223.3c0.7,0.7,3.6,2.1,5.1,5.2c0.2,0.5,0.3,1.8,0,2.4l-0.9-1.5c-0.7-1.1-3.2-4.1-4.1-4.4
	c-1,1-1.2,1.6-2.9,2.8c-5.8,4.1-15.3,1.2-19.9-3.5c-0.9-0.9-1.8-2.1-2.2-3.2c-0.1-0.2-0.1-0.2-0.2-0.4c-0.4-0.8-0.5-1.4-0.7-2.3
	c0-0.3-0.1-0.8-0.1-1c0.9,1.1,1.9,1.7,3.6,1.8c2.7,0.2,4.4-0.7,6.8-1.6c2-0.7,5.7-2.5,8.8-1.7c2.4,0.5,4.5,1.8,5.9,3.8
	c0.5,0.7,1.2,1.9,1.3,2.8c-1.5-1.3-3.1-1.9-5.1-2.2c-1.6-0.2-3.6-0.2-4.9,0.2c2.1,0.2,2.3,0.1,4.7,0.7
	C26.1,221.7,27.2,222.4,28.9,223.3L28.9,223.3z"/>
<path class="st0" d="M76.2,230.4c0.5,0.1,0.3,0.3,0.7,0.3l-0.5-0.9c0.8,0.2,1.6,0.8,2.3,1.3c0.3,0.3,0.5,0.5,0.7,0.6l-0.4-1.1
	c0.2,0.1,0.9,0.5,1.2,0.8c0.2,0.2,0.4,0.3,0.6,0.5s0.4,0.5,0.5,0.7l0,0c0,0,0.1-0.2,0-0.4c0-0.2-0.1-0.4-0.1-0.6h0.1l0,0
	c0.3,0.2-0.1-0.1,0.1,0.1l0.5,0.5c0.2,0.2,0.4,0.5,0.6,0.8c0.4,0.6,0.7,1.2,1,1.9c0.2-0.1,0.3-0.7,0.3-0.9c0.8,1.3,1,4,0.5,5.6
	c-0.1,0.4-0.4,1.3-0.7,1.5c-0.3-0.3-0.6-0.7-1-1c-0.6-0.6-1.4-1.1-2.1-1.6c-1.2-0.8-2.1-1.3-3.3-1.9c-0.3-0.1-2-0.9-2.4-0.8l2,1.1
	c3.9,2.4,4.9,3.9,5.4,4.3c0.6,0.8,1.8,2.2,2.2,3.2c0.2,0.4,0.4,0.7,0.5,1.1c0.1,0.2,0.2,0.4,0.2,0.6c0.1,0.2,0.1,0.3,0.1,0.5
	c0,0.7,0.1-0.1-0.2-0.1c-0.1,0-1.8-3.3-2.3-3.8c-0.2,0.2-0.3,0.6-1,1.2c-0.4,0.3-1,0.8-1.5,1c-0.9,0.4-2.9,1-3.6,0.7
	c0.1-0.1,0.4-0.2,0.5-0.3l0.4-0.4c-0.6,0.2-1.8,0.5-2.3,0l0.6-0.1c-0.1-0.1-1.1-0.1-1.7-0.2c-0.3-0.1-0.5-0.1-0.7-0.2
	c-0.3-0.1-0.5-0.2-0.8-0.4l0.5-0.2c-0.2-0.2-0.1,0-0.7-0.2c-0.2,0-0.5-0.1-0.7-0.2c-0.4-0.1-0.9-0.4-1.2-0.8h0.6
	c-0.2-0.1-0.4-0.2-0.7-0.3c-0.2-0.1-0.4-0.2-0.6-0.3c-0.4-0.3-0.7-0.6-1-1.1l0.2-0.1c-0.6-0.4-1-0.8-1.4-1.4h0.5
	c-0.4-0.4-1.2-0.8-1.8-1.9c0.3,0,0.3,0.1,0.7,0.1c-0.3-0.3-0.6-0.4-0.9-0.8c-0.2-0.3-0.6-0.7-0.7-1.1c0.2,0.1,0.4,0.2,0.7,0.1
	c-0.1-0.3-0.9-0.9-1.4-1.6h0.1c0,0,0.6,0.2,0.8,0.1c-0.5-0.2-1.3-0.9-1.5-1.4l0.6,0.2c0.5,0,0.2,0,0.2-0.1c-0.3-0.4-0.7-1.2-1.3-2.7
	c0.2,0,0.4,0.3,0.7,0.3c0.7,0.2,1.7,0,2.3,0.2c-0.1-0.3-0.4-0.5-0.5-0.6c0.7-0.3,2.2,0.1,2.8,0.3c-0.1-0.4-0.4-0.5-0.6-0.8
	c0.4,0,0.7,0.1,1.1,0.1c0.2,0.1,0.3,0.1,0.5,0.2l0.5,0.2l-0.4-0.7c1.1,0,1.6,0.3,2.4,0.4c-0.1-0.3-0.3-0.5-0.5-0.7
	c0.5-0.1,1.6,0.4,2.1,0.7c0.1,0.1,0.2,0.1,0.3,0.2c0.2,0.1,0.2,0.2,0.3,0.2c0-0.4-0.4-0.7-0.5-1C74.8,229.7,76,230.2,76.2,230.4
	L76.2,230.4z"/>
<path class="st0" d="M57.8,297.5c0.9,0.1,1.4,0.3,2.1,0.6c-0.1,0.2-4,2.7-5.4,4.5c-0.6,0.8-0.6,0.8-1.3,1.8
	c-0.5,0.7-1.8,3.4-1.7,4.3c0.9-1.9,0.9-2.5,2.3-4.3c0.6-0.7,1.3-1.6,2-2.2c0.2-0.1,0.3-0.3,0.5-0.4c1.9-1.5,4-2.5,6.4-2.8
	c1.2-0.1,3.3-0.1,4.3,0.2c0.1,0.2,0.3,0.7,0.4,0.9c-0.4-0.1-0.8-0.2-1.2-0.3c-1.7-0.4-2.6-0.3-4.3,0.2c0.1,0.8,1.8,3.5,0.3,6.8
	c-0.5,1.1-1.1,1.7-1.7,2.4c-0.3,0.4-0.7,0.7-1,1c-1,1-2.3,2.1-3.2,3.1c-0.6,0.7-1.3,1.6-1.6,2.5c-0.4,0.9-0.7,2.2-0.5,3.4
	c0.1,1,0.4,1.6,0.9,2.3l0.3,0.4c0.1,0.1,0,0,0.1,0.1c-5.2-0.4-8.7-8.1-9-12.3c-0.1-1.7,0.1-3.1,0.5-4.5c0.4-1.3,1-2.4,1.7-3.4
	C50.7,299.1,54.3,297.2,57.8,297.5L57.8,297.5z"/>
<path class="st0" d="M38.1,261.7c1,0.1,4.1-0.8,7.2,0.5c0.5,0.2,1.5,1.2,1.6,1.8l-1.7-0.5c-1.3-0.4-5.1-1-6-0.6
	c-0.1,1.4,0.2,2-0.3,4c-1.6,6.9-10.6,11.1-17.2,10.6c-1.2-0.1-2.7-0.4-3.8-0.9c-0.2-0.1-0.2-0.1-0.4-0.2c-0.8-0.4-1.3-0.7-2.1-1.3
	c-0.2-0.2-0.6-0.5-0.7-0.7c1.4,0.2,2.5,0,3.9-1c2.1-1.6,2.9-3.4,4-5.7c1-1.9,2.6-5.7,5.5-7.1c2.1-1.2,4.6-1.6,6.9-1.1
	c0.8,0.2,2.2,0.7,2.8,1.2c-2,0-3.5,0.7-5.3,1.8c-1.3,0.9-2.8,2.2-3.5,3.4c1.7-1.2,1.8-1.5,4-2.6C34.9,262.4,36.2,262.2,38.1,261.7
	L38.1,261.7z"/>
<path class="st0" d="M49.6,270.7c0.6-0.6,0.7-0.1,1.1-0.6l-1.7-0.3c1.2-0.8,2.8-1.4,4.2-1.7c0.8-0.2,1.3-0.1,1.7-0.3l-1.9-0.6
	c0.3-0.2,1.7-0.7,2.4-0.8c0.4-0.1,0.9-0.2,1.3-0.2c0.5,0,1.1,0,1.5,0v-0.1c0,0-0.1-0.3-0.5-0.5c-0.3-0.2-0.6-0.3-0.9-0.5
	c0,0,0.1-0.1,0.1,0H57c0.6-0.2-0.1,0,0.2,0l1.2-0.1c0.5,0,1.2,0,1.7,0c1.3,0.1,2.4,0.3,3.7,0.7c0-0.4-0.7-1.1-0.8-1.3
	c2.6,0.3,6.6,3.1,8.3,5.3c0.4,0.5,1.4,1.9,1.3,2.6c-0.7,0.1-1.5,0.1-2.3,0.3c-1.5,0.2-3.1,0.7-4.4,1.1c-2.3,0.8-4,1.4-6.2,2.5
	c-0.5,0.2-3.5,1.8-3.7,2.4l3.6-1.5c7.4-2.8,10.7-2.4,11.7-2.7c1.8,0.1,4.9-0.1,6.8,0.5c0.7,0.2,1.4,0.3,2.1,0.5
	c0.4,0.1,0.7,0.2,1.1,0.3c0.3,0.1,0.5,0.2,0.8,0.3c0.9,0.7-0.1-0.3-0.4,0.2c-0.1,0.2-6.4-1.1-7.7-0.9c0,0.5,0.5,1.1,0.5,2.7
	c0,0.9,0,2.1-0.2,3.1c-0.4,1.6-1.8,5-2.9,5.6c0-0.3,0.1-0.7,0.2-1.1l-0.2-0.9c-0.3,1-1.3,3-2.5,3.2l0.4-0.9c-0.2,0-1.3,1.4-2,2.1
	c-0.4,0.3-0.7,0.5-1.1,0.8s-0.8,0.5-1.3,0.6l0.3-0.9c-0.4,0-0.1,0-0.9,0.7c-0.3,0.2-0.6,0.5-0.9,0.7c-0.6,0.4-1.5,0.8-2.3,0.8
	l0.6-0.9c-0.3,0.1-0.7,0.4-1.1,0.6c-0.3,0.2-0.7,0.4-1.1,0.5c-0.9,0.3-1.6,0.3-2.5,0.2v-0.4c-1.1,0.4-2.2,0.5-3.4,0.3l0.6-0.7
	c-1,0.1-2.5,0.8-4.6,0.4c0.3-0.4,0.5-0.3,0.8-0.9c-0.7,0.1-1.2,0.3-2,0.4c-0.6,0-1.6,0-2.2-0.2c0.5-0.2,0.6-0.4,1-0.8
	c-0.6-0.1-2.2,0.3-3.8,0.2l0.1-0.1c0,0,0.9-0.6,1-1.1c-0.7,0.5-2.6,0.8-3.6,0.5l1-0.6c0.5-0.6,0.2-0.3,0-0.4c-0.8,0-2.4-0.3-5.1-1.1
	c0.3-0.2,0.8-0.3,1.2-0.6c1-0.8,1.8-2.4,2.9-2.9c-0.5-0.2-1.1,0-1.4,0.1c0.4-1.3,2.6-2.8,3.4-3.5c-0.7-0.3-1.1,0-1.7-0.1
	c0.5-0.5,0.8-0.9,1.4-1.3c0.3-0.2,0.5-0.4,0.8-0.5l0.9-0.5l-1.3-0.2c1.2-1.5,2.2-1.9,3.1-2.8c-0.5-0.1-1-0.1-1.4,0
	c0.4-0.7,2.2-1.8,3.1-2.1c0.2-0.1,0.4-0.1,0.6-0.2c0.4-0.1,0.5,0,0.7-0.2c-0.6-0.4-1.3-0.2-1.9-0.4
	C47.1,271.9,49.1,270.7,49.6,270.7L49.6,270.7z"/>
<path class="st0" d="M73.6,254.7c1.3,0.6,2.2,1.1,3.6,1.3c1.3,0.2,2.2,0.3,3.5,0.2c2.1-0.2,4.5-0.9,6.9-1.8c1.6-0.4,5.2-2.1,6.8-2.8
	c1.2-0.6,2.2-1.2,3.4-1.7c5.7-2.8,14.5-2.9,17.9,5.8c0.4,0.9,0.5,1.1,0.3,1.5c-2.7-1.7-5.1-2.5-8.3-2.2c-3.4,0.4-5,1-8.4,2.1
	l-5.5,1.9c0.6,0,2.8-0.6,3.5-0.7c1.1-0.3,2.2-0.6,3.6-0.9c2.3-0.6,4.8-1.2,7.1-1.3c5-0.1,9.7,2.3,14.2,6.8c-0.5,0.4-0.8,0.2-1.3,0.4
	c-1.2-1.2-2.7-2.4-4.1-3.3l-0.3-0.2l-0.4-0.1c-1.2,3.1-2,5.1-4.7,7.7c-1.2,1.2-2.5,2.1-3.8,2.8c-0.8,0.4-3,1.3-3.8,1.2
	c0.4-1.2-0.1-4.6-1.1-5.8c0,1.1,0.5,1.9-0.1,4c-0.7,2.6-1,2.5-3.8,2.5c-0.3,0-0.7,0-1,0c-0.7,0-1.3-0.1-2-0.2
	c-0.9-0.1-3.2-0.6-4.1-1.2c1.6-1.7,2.2-3.6,1.7-5.8c-0.1-0.4-0.1-0.5-0.2-0.8c-0.1,0.3-0.1,0.5-0.2,0.9c-0.4,1.9-1.7,3.6-3.4,4.6
	c-0.8,0.5-1.2,0.1-2-0.2c-2.7-1-5.6-2.9-7.7-5.4c0.7-0.3,1.4-0.4,2.3-0.9c1.1-0.7,1.5-1.2,2.2-2.1c-0.3,0-0.1-0.1-0.5,0.1
	c-0.9,0.3-1.2,0.7-3.1,0.9c-0.6,0.1-1.2,0.1-1.7,0.1c-1,0-1,0.1-1.8-0.7c-1.1-1.1-2-2.3-2.8-3.6c-0.3-0.6-1.5-3.1-1.4-3.5
	L73.6,254.7L73.6,254.7z"/>
<path class="st0" d="M172,225.6c-0.6,0.7-3.2,1.9-4.5,4.6c-0.2,0.5-0.3,1.6,0,2.1l0.8-1.4c0.6-1,2.8-3.6,3.6-4
	c0.9,0.9,1.1,1.5,2.6,2.5c5.2,3.6,13.6,1.1,17.7-3.1c0.8-0.8,1.6-1.8,2-2.8c0.1-0.1,0.1-0.2,0.1-0.4c0.3-0.8,0.5-1.2,0.6-2.1
	c0-0.3,0.1-0.7,0.1-0.9c-0.8,1-1.7,1.5-3.2,1.6c-2.4,0.2-3.9-0.6-6-1.4c-1.8-0.7-5.1-2.2-7.9-1.5c-2.1,0.4-4,1.6-5.2,3.4
	c-0.4,0.6-1.1,1.7-1.1,2.5c1.4-1.2,2.7-1.7,4.6-1.9c1.4-0.2,3.2-0.2,4.4,0.2c-1.9,0.2-2.1,0.1-4.2,0.6
	C174.6,224.1,173.6,224.7,172,225.6L172,225.6z"/>
<path class="st0" d="M172.5,342.1c0.9-0.1,1.4,0,2.2,0.1c0,0.2-3.3,3.6-4.3,5.6c-0.4,0.9-0.5,0.9-0.9,2.1c-0.3,0.8-1,3.8-0.8,4.7
	c0.4-2.1,0.4-2.7,1.3-4.8c0.4-0.8,0.9-1.8,1.5-2.6c0.1-0.2,0.3-0.3,0.4-0.5c1.5-1.9,3.4-3.4,5.7-4.2c1.1-0.4,3.2-0.9,4.3-0.8
	c0.2,0.2,0.5,0.6,0.6,0.8c-0.4,0-0.8-0.1-1.3-0.1c-1.8,0-2.6,0.3-4.2,1.1c0.3,0.8,2.5,3.1,1.8,6.7c-0.2,1.2-0.7,2-1.1,2.8
	c-0.2,0.4-0.5,0.8-0.8,1.2c-0.8,1.2-1.8,2.6-2.4,3.8c-0.4,0.8-0.9,1.9-1.1,2.8c-0.2,1-0.2,2.3,0.2,3.5c0.3,0.9,0.7,1.5,1.4,2.1
	l0.4,0.3c0.1,0.1,0.1,0,0.1,0.1c-5.2,0.8-10.4-6.1-11.6-10.2c-0.5-1.7-0.6-3-0.5-4.6c0.1-1.4,0.5-2.6,0.9-3.7
	C165.9,345.2,169,342.6,172.5,342.1L172.5,342.1z"/>
<path class="st0" d="M95.3,325.3c0.9-0.5,2.9-3,6.3-3.6c0.5-0.1,1.9,0.1,2.3,0.6l-1.7,0.5c-1.2,0.4-4.8,2.1-5.3,2.8
	c0.7,1.3,1.3,1.6,2,3.5c2.5,6.6-2.6,15.1-8.3,18.4c-1.1,0.6-2.4,1.2-3.6,1.4c-0.2,0-0.3,0-0.4,0c-0.9,0.1-1.5,0.2-2.4,0.1
	c-0.3,0-0.8-0.1-1-0.2c1.3-0.6,2.1-1.4,2.6-3c0.9-2.5,0.4-4.4,0.2-7c-0.2-2.1-1-6.2,0.6-9c1.1-2.2,2.9-3.9,5.1-4.8
	c0.8-0.3,2.2-0.7,3-0.5c-1.6,1.2-2.6,2.5-3.4,4.4c-0.6,1.5-1.1,3.4-1,4.8c0.8-2,0.7-2.2,1.8-4.4C93,327.7,93.9,326.8,95.3,325.3
	L95.3,325.3z"/>
<path class="st0" d="M110,229.2c0.6-0.1,0.5,0.2,1,0l-1-0.9c1.1-0.1,2.4,0.2,3.5,0.6c0.6,0.2,0.9,0.5,1.2,0.5l-1-1.2
	c0.3,0,1.4,0.2,1.9,0.4c0.3,0.1,0.7,0.3,1,0.4c0.3,0.2,0.7,0.5,1,0.6v-0.1c0,0,0-0.2-0.1-0.6c-0.1-0.2-0.3-0.5-0.4-0.7h0.1h0.1
	c0.5,0.1-0.1,0,0.1,0l0.8,0.4c0.3,0.2,0.8,0.5,1.1,0.7c0.8,0.6,1.5,1.2,2.2,1.9c0.2-0.3,0-1,0-1.2c1.6,1.3,3.2,4.7,3.4,6.9
	c0.1,0.5,0.2,1.8-0.1,2.2c-0.5-0.2-1.1-0.5-1.7-0.8c-1.1-0.4-2.3-0.8-3.4-1c-1.8-0.4-3.3-0.7-5.2-0.8c-0.4,0-3-0.2-3.4,0.1l3,0.4
	c6.1,1.1,8.1,2.7,8.9,2.8c1.2,0.8,3.3,1.9,4.3,3c0.4,0.4,0.8,0.7,1.2,1.2c0.2,0.2,0.4,0.4,0.6,0.6c0.2,0.2,0.3,0.3,0.4,0.5
	c0.3,0.8,0-0.2-0.3,0c-0.1,0.1-3.9-3.3-4.8-3.7c-0.2,0.4-0.1,0.9-0.7,2c-0.3,0.6-0.9,1.4-1.4,2c-0.9,1-3.2,2.6-4.2,2.6
	c0.1-0.2,0.4-0.4,0.5-0.6l0.3-0.7c-0.6,0.5-2.1,1.5-2.9,1.1l0.6-0.4c-0.1-0.1-1.5,0.4-2.2,0.6c-0.4,0.1-0.6,0.1-1,0.1
	s-0.8,0-1.1-0.1l0.6-0.4c-0.3-0.2-0.1,0-0.9,0.1c-0.3,0.1-0.6,0.1-0.9,0.1c-0.6,0-1.3-0.1-1.9-0.4l0.8-0.4c-0.3-0.1-0.6,0-1,0
	c-0.3,0-0.6,0-0.9-0.1c-0.7-0.2-1.2-0.4-1.8-0.9l0.1-0.2c-0.9-0.2-1.7-0.5-2.4-1.1l0.7-0.2c-0.7-0.4-2-0.5-3.2-1.6
	c0.3-0.1,0.4,0,0.9-0.3c-0.5-0.2-0.9-0.3-1.5-0.6c-0.4-0.2-1.1-0.6-1.4-1c0.4,0.1,0.6,0,1-0.2c-0.3-0.3-1.6-0.7-2.6-1.4H98
	c0,0,0.8,0,1.1-0.3c-0.7,0-2-0.5-2.6-1.1h0.9c0.6-0.2,0.3-0.1,0.2-0.3c-0.6-0.3-1.5-1.1-2.9-2.8c0.3,0,0.7,0.1,1.1,0.1
	c1-0.1,2.2-0.9,3.1-0.8c-0.2-0.3-0.7-0.4-1-0.5c0.8-0.7,2.8-0.9,3.7-0.9c-0.4-0.5-0.7-0.5-1.1-0.7c0.5-0.1,0.9-0.3,1.4-0.3
	c0.3,0,0.5,0,0.7,0h0.8l-0.8-0.7c1.4-0.5,2.2-0.4,3.2-0.6c-0.3-0.3-0.6-0.5-0.9-0.6c0.6-0.3,2.2-0.3,2.9-0.1c0.2,0,0.3,0.1,0.5,0.1
	c0.3,0.1,0.3,0.2,0.5,0.1c-0.2-0.5-0.8-0.6-1.1-1C107.8,228.9,109.7,228.9,110,229.2L110,229.2z"/>
<path class="st0" d="M95.5,224c-0.1,0-0.2,0-0.4-0.1c-2.2-1.1-4.8-1.3-7.3-1.4c-0.6,0-2.1,0.1-2.5,0.3c0.9,0,1.4,0,2.4,0.1
	c3,0.2,6.3,1.3,8.6,3.2c0.8,0.7,2.3,2.1,2.8,2.9l-0.5,0.3c-0.5-0.6-1-1.3-1.6-1.9c-0.7-0.7-1.2-1.2-2-1.7c-0.2,0.3-0.3,0.7-0.6,1.1
	c-1.2,1.8-2.7,2.5-4.8,2.7c-1,0.1-2-0.1-2.9-0.4c0.4-0.3,1.1-0.4,1.4-0.9c-0.6,0.4-2.2,0.3-3,0.1c-0.9-0.2-2.3-0.7-3.2-1.2
	c0.3-0.2,0.7-0.1,1.4-0.6c-0.1-0.1-0.8-0.1-1.3-0.2c-0.4-0.1-0.9-0.3-1.4-0.5c-1-0.5-1.9-1-2.8-1.8c0.3-0.2,1.1,0.1,1.6-0.6
	c-0.6-0.1-1.3-0.2-2-0.6c-1-0.5-1.2-0.8-1.9-1.5c0.9-1,2.1-1.5,3.4-1.7c0.3,0,1,0,1.2-0.1c-0.2-0.1-0.4-0.2-0.6-0.3
	s-0.4-0.1-0.6-0.3c1.4-0.5,4.4-1.1,5.9-0.5c0.9,0,0.3-0.4,0.2-0.4l-1.2-0.4c0.4-0.3,1.5-0.5,2-0.5c0.8,0,1.5,0.1,1.9,0.1
	c0.3,0,0.5,0.1,0.8,0.2c0.5,0.1,1,0.3,1.6,0.5c-0.3-0.4-0.7-0.8-1.1-1.1c0.5-0.2,1.8,0.2,2.4,0.5c1.7,0.8,3.2,2.2,3.8,4
	C95.3,222.3,95.5,223.4,95.5,224L95.5,224z"/>
<path class="st0" d="M137.1,339.9c-0.3-1-0.3-4.2-2.4-6.8c-0.3-0.4-1.5-1.1-2.2-1.1l1,1.5c0.7,1.1,2.3,4.7,2.2,5.6
	c-1.4,0.5-2,0.4-3.8,1.3c-6.2,3.4-7.9,13.2-5.7,19.4c0.4,1.1,1.1,2.5,1.8,3.4c0.1,0.1,0.2,0.2,0.3,0.3c0.6,0.7,1,1.1,1.8,1.6
	c0.2,0.2,0.6,0.5,0.9,0.5c-0.6-1.3-0.7-2.4,0-4c1-2.5,2.5-3.7,4.4-5.4c1.6-1.5,4.8-4,5.4-7.2c0.6-2.3,0.4-4.9-0.8-7
	c-0.4-0.7-1.2-1.9-1.9-2.4c0.5,1.9,0.3,3.6-0.3,5.6c-0.5,1.5-1.4,3.3-2.3,4.3c0.7-2,0.9-2.1,1.5-4.5
	C137.3,343.2,137.1,341.9,137.1,339.9L137.1,339.9z"/>
<path class="st0" d="M202.1,318.1c-0.6-1.5-0.7-6.5-4.2-10.5c-0.6-0.7-2.4-1.7-3.5-1.5l1.6,2.3c1.1,1.7,3.8,7.1,3.8,8.6
	c-2.1,0.9-3.1,0.7-5.9,2.3c-9.5,5.7-11.5,21.1-7.7,30.7c0.7,1.8,1.8,3.8,3.1,5.2c0.2,0.2,0.3,0.3,0.5,0.5c1,1.1,1.6,1.6,2.9,2.5
	c0.4,0.3,1,0.7,1.4,0.7c-1-2-1.2-3.7-0.3-6.3c1.4-3.9,3.8-5.9,6.5-8.7c2.3-2.4,7.2-6.6,8-11.5c0.8-3.7,0.3-7.6-1.7-10.8
	c-0.7-1.1-2-2.9-3.1-3.6c0.9,3,0.7,5.6-0.2,8.7c-0.7,2.4-1.9,5.2-3.4,6.9c1-3.2,1.3-3.4,2-7.1C202.6,323.2,202.3,321.2,202.1,318.1
	L202.1,318.1z"/>
<path class="st0" d="M105.2,343.1c1.1-0.9,1.9-1.4,2.8-2.6c0.8-1.1,1.2-1.9,1.7-3.1c0.8-2,1.2-4.4,1.5-7c0.3-1.6,0.5-5.5,0.5-7.3
	c0-1.3,0-2.5,0-3.8c0.1-6.4,4-14.3,13.2-13.4c1,0.1,1.2,0,1.5,0.4c-2.8,1.7-4.6,3.5-5.7,6.4c-1.2,3.2-1.4,4.9-1.9,8.4L118,327
	c0.3-0.5,0.7-2.7,0.9-3.4c0.3-1.1,0.5-2.2,0.8-3.6c0.5-2.3,1-4.8,2-6.9c2.2-4.5,6.4-7.7,12.4-9.7c0.1,0.6-0.1,0.8-0.2,1.4
	c-1.6,0.6-3.4,1.3-4.8,2.2l-0.3,0.2l-0.3,0.3c2.2,2.5,3.6,4.1,4.8,7.7c0.5,1.6,0.8,3.1,0.8,4.7c0,1-0.2,3.3-0.6,3.9
	c-0.9-0.9-4.2-2-5.7-1.6c1,0.5,1.9,0.4,3.5,1.9c2,1.8,1.8,2,0.6,4.5c-0.1,0.3-0.3,0.6-0.5,0.9c-0.3,0.6-0.7,1.1-1.1,1.7
	c-0.5,0.7-2,2.6-2.9,3.1c-0.8-2.2-2.2-3.6-4.4-4.1c-0.4-0.1-0.5-0.1-0.8-0.1c0.2,0.2,0.4,0.3,0.7,0.5c1.5,1.2,2.4,3.1,2.6,5.1
	c0.1,1-0.4,1.1-1.1,1.7c-2.1,1.9-5.1,3.7-8.3,4.5c0-0.7,0.3-1.4,0.2-2.4c-0.1-1.2-0.4-1.8-0.9-2.9c-0.2,0.3-0.1,0-0.2,0.5
	c-0.1,1,0.1,1.4-0.5,3.2c-0.2,0.5-0.4,1.1-0.7,1.6c-0.4,0.9-0.3,1-1.4,1.3c-1.5,0.5-2.9,0.8-4.4,0.9c-0.7,0-3.4,0-3.8-0.3
	L105.2,343.1L105.2,343.1z"/>
<path class="st0" d="M72.5,299.7c0.1-1,0.5-0.7,0.4-1.4l-1.7,1.1c0.3-1.6,1.2-3.4,2.2-4.7c0.5-0.7,1-1.1,1.2-1.5l-2,1
	c0.1-0.4,0.9-1.9,1.4-2.6c0.3-0.4,0.6-0.8,1-1.2c0.4-0.4,0.9-0.8,1.2-1.2h-0.1c0,0-0.3-0.1-0.8,0c-0.4,0.1-0.8,0.2-1.1,0.3
	c0,0,0-0.1,0.1-0.1c0,0,0-0.1,0.1-0.1c0.4-0.6-0.1,0.1,0.1-0.2l0.9-1c0.4-0.4,1-0.9,1.4-1.3c1.1-0.9,2.2-1.7,3.6-2.4
	c-0.3-0.4-1.4-0.4-1.8-0.5c2.5-1.8,7.9-2.6,11.1-2.1c0.8,0.1,2.7,0.5,3.1,1.1c-0.5,0.7-1.2,1.3-1.8,2.1c-1.1,1.4-2,3-2.8,4.4
	c-1.3,2.4-2.2,4.4-3.2,7c-0.2,0.6-1.5,4.2-1.2,4.9l1.8-4.1c4-8.2,7-10.4,7.6-11.5c1.6-1.4,4-4,6-4.9c0.7-0.4,1.4-0.9,2.1-1.3
	c0.4-0.2,0.7-0.4,1.1-0.6c0.3-0.2,0.6-0.3,0.9-0.4c1.3-0.1-0.3-0.1-0.1,0.5c0.1,0.2-6.2,4.2-7.2,5.3c0.4,0.4,1.3,0.6,2.6,1.8
	c0.8,0.7,1.7,1.8,2.2,2.8c1,1.7,2.5,5.6,2,7c-0.2-0.2-0.4-0.7-0.7-1l-0.9-0.7c0.5,1.1,1.3,3.6,0.5,4.6l-0.4-1.1
	c-0.2,0.2,0,2.3-0.1,3.3c-0.1,0.5-0.1,1-0.3,1.5c-0.1,0.6-0.3,1.1-0.6,1.6l-0.4-1c-0.3,0.3-0.1,0.1-0.2,1.3c0,0.4-0.1,0.9-0.2,1.3
	c-0.2,0.9-0.6,1.8-1.3,2.5l-0.2-1.3c-0.2,0.4-0.2,0.9-0.4,1.4c-0.1,0.4-0.3,0.8-0.5,1.2c-0.5,0.9-1.1,1.5-2,2.1l-0.3-0.3
	c-0.6,1.2-1.4,2.2-2.6,3v-1.1c-0.8,0.8-1.4,2.6-3.6,3.9c-0.1-0.5,0.2-0.6,0-1.3c-0.5,0.6-0.8,1.2-1.4,1.9c-0.5,0.5-1.3,1.3-2,1.6
	c0.2-0.5,0.2-0.8,0.2-1.5c-0.6,0.3-1.6,2-3,3.2v-0.1c0,0,0.3-1.2,0-1.7c-0.2,1-1.5,2.7-2.6,3.3l0.3-1.3c0-0.9,0-0.4-0.3-0.4
	c-0.6,0.7-2.2,1.7-5.1,3.1c0.1-0.4,0.4-0.9,0.5-1.5c0.3-1.4-0.4-3.5,0.1-4.7c-0.5,0.2-0.9,0.9-1.1,1.2c-0.7-1.4-0.1-4.4,0.1-5.6
	c-0.8,0.4-0.9,0.9-1.4,1.3c0-0.8,0-1.4,0.1-2.2c0.1-0.4,0.1-0.7,0.2-1l0.4-1.1l-1.2,0.9c-0.2-2.2,0.3-3.3,0.4-4.8
	c-0.5,0.3-0.9,0.7-1.2,1.1c-0.2-0.9,0.5-3.2,1-4.2c0.1-0.2,0.2-0.4,0.4-0.6c0.2-0.3,0.4-0.4,0.4-0.7c-0.8,0.1-1.2,0.9-1.9,1.2
	C71.3,302.7,72,300.1,72.5,299.7L72.5,299.7z"/>
<path class="st0" d="M153.7,315.2c-0.1,0.3-0.1,0.3,0.1,0.8c1.7,4.6,1.7,9.9,1.3,14.7c-0.1,1.3-0.7,4.2-1.1,4.8
	c0.1-1.8,0.2-2.7,0.3-4.9c0.1-5.9-1.4-12.8-4.6-17.8c-1.1-1.7-3.8-5-5.3-6.1l-0.7,0.8c1.1,1.2,2.4,2.3,3.6,3.6
	c1.3,1.5,2.1,2.6,2.9,4.4c-0.7,0.4-1.5,0.5-2.4,0.9c-3.7,1.9-5.5,4.8-6.4,8.9c-0.4,2-0.2,4.1,0.2,5.9c0.6-0.7,1-2.2,2.1-2.7
	c-1,1.2-1,4.4-0.8,6c0.2,1.9,0.9,4.7,1.7,6.7c0.4-0.6,0.4-1.4,1.5-2.6c0.1,0.3,0,1.6,0.1,2.6c0.1,0.8,0.3,1.9,0.6,2.8
	c0.7,2.2,1.7,4,3.1,6c0.5-0.5,0-2.2,1.4-3c0,1.2,0.2,2.5,0.7,4c0.8,2.1,1.3,2.4,2.5,4.1c2.1-1.7,3.4-4,4-6.4
	c0.1-0.6,0.2-1.9,0.4-2.3c0.2,0.4,0.4,0.8,0.5,1.2c0.1,0.5,0.2,0.9,0.4,1.3c1.4-2.7,3.1-8.6,2.2-11.5c0.1-1.8,0.8-0.5,0.8-0.4
	l0.6,2.4c0.7-0.7,1.2-2.9,1.4-3.9c0.2-1.7,0.2-3,0.1-3.8c0-0.5-0.1-1-0.2-1.6c-0.1-1-0.4-2.1-0.7-3.2c0.8,0.6,1.4,1.5,1.9,2.4
	c0.4-1-0.1-3.7-0.5-4.9c-1.2-3.5-3.8-6.8-7.1-8.3C157.1,315.9,155,315.2,153.7,315.2L153.7,315.2z"/>
<path class="st0" d="M152.9,219.7c-5.1,0.4-8.2,3.7-9.7,8.1c-0.3,0.9-1.1,3.7-1.1,4.6c0.8-1.6,1.3-2.6,2.6-4c1.1-1.2,2.2-2,3.5-3
	c2-1.5,6.6-3.7,9.7-3.5l-0.2,0.1c0,0,0,0-0.1,0c-1.2,0.4-1.5,0.2-3.4,1c-6,2.3-12,8.4-13.8,14.6c-0.2,0.7-0.6,2.4-0.3,3
	c0.3,0.4,0.3,0.5,0.5,0.6c0.1-0.7,0.1-1.3,0.2-2.1c0.1-0.6,0.3-1.2,0.5-1.8c0.4-1.2,0.9-2.3,1.5-3.1c0.8-1.3,1-1.5,2.7-1.9
	c4.5-1.1,8.3,0.6,12.8-0.2c1.2-0.2,2.5-0.8,3.3-1.3c1.5-0.9,1.6-1.2,2.6-2c0.7-0.9,1-1,1.8-2.6c0.6-1.1,1-2.1,1.3-3.3
	c0.6-2.4,1.1-5.6,0-8l-0.3,0.3c-0.1,0.2-0.1,0.2-0.2,0.3c-0.2,0.3-0.3,0.4-0.6,0.7c-0.4,0.4-0.8,0.8-1.3,1.1
	C161.6,219.8,156.6,219,152.9,219.7L152.9,219.7z"/>
<path class="st0" d="M135.5,224c0.7,0.7,3.2,1.9,4.5,4.7c0.2,0.5,0.3,1.7,0,2.2l-0.8-1.4c-0.6-1-2.9-3.7-3.7-4
	c-0.9,0.9-1.1,1.5-2.6,2.5c-5.2,3.7-13.8,1.1-17.9-3.1c-0.8-0.8-1.6-1.9-2-2.8c-0.1-0.1-0.1-0.2-0.1-0.4c-0.3-0.8-0.5-1.2-0.6-2.1
	c0-0.3-0.1-0.7-0.1-0.9c0.9,1,1.7,1.5,3.2,1.6c2.4,0.2,4-0.6,6.1-1.4c1.8-0.7,5.1-2.2,7.9-1.5c2.1,0.4,4.1,1.6,5.3,3.4
	c0.4,0.6,1.1,1.7,1.1,2.5c-1.4-1.2-2.8-1.7-4.6-1.9c-1.4-0.2-3.2-0.2-4.4,0.2c1.9,0.2,2.1,0.1,4.2,0.6
	C132.9,222.5,133.9,223.1,135.5,224L135.5,224z"/>
<path class="st0" d="M217.3,339.6c-0.9-0.1-1.4,0-2.2,0.1c0,0.2,3.3,3.6,4.3,5.6c0.4,0.9,0.5,0.9,0.9,2.1c0.3,0.8,1,3.8,0.7,4.7
	c-0.4-2.1-0.4-2.7-1.3-4.8c-0.4-0.8-0.9-1.8-1.5-2.6c-0.1-0.2-0.3-0.3-0.4-0.5c-1.5-1.9-3.4-3.4-5.7-4.2c-1.1-0.4-3.2-0.9-4.3-0.8
	c-0.2,0.2-0.5,0.6-0.6,0.8c0.4,0,0.8-0.1,1.3,0c1.8,0,2.6,0.3,4.2,1.1c-0.3,0.8-2.5,3.1-1.9,6.7c0.2,1.2,0.6,2,1.1,2.8
	c0.2,0.4,0.5,0.8,0.8,1.3c0.8,1.2,1.8,2.6,2.4,3.8c0.4,0.8,0.9,1.9,1,2.8c0.2,1,0.2,2.3-0.2,3.5c-0.3,0.9-0.7,1.5-1.4,2.1l-0.4,0.3
	c-0.1,0.1-0.1,0-0.1,0.1c5.2,0.8,10.4-6,11.7-10.1c0.5-1.7,0.6-3,0.5-4.6c-0.1-1.4-0.5-2.6-0.9-3.7
	C223.9,342.7,220.8,340,217.3,339.6L217.3,339.6z"/>
<path class="st0" d="M304.3,226.1c-0.3,0.4-0.4,0.2-0.5,0.5l1-0.1c-0.5,0.6-1.3,1.2-2,1.6c-0.4,0.2-0.7,0.3-0.9,0.4h1.1
	c-0.1,0.2-0.8,0.6-1.2,0.9c-0.2,0.1-0.5,0.2-0.7,0.3c-0.3,0.1-0.6,0.2-0.8,0.3l0,0c0,0,0.1,0.1,0.4,0.2c0.2,0.1,0.4,0.1,0.6,0.1
	c0,0,0,0.1,0,0l0,0c-0.3,0.2,0.1,0-0.1,0.1l-0.6,0.3c-0.3,0.1-0.6,0.2-0.9,0.3c-0.7,0.2-1.4,0.3-2.2,0.3c0,0.2,0.6,0.5,0.7,0.6
	c-1.5,0.3-4.1-0.6-5.4-1.5c-0.3-0.2-1.1-0.8-1.2-1.2c0.4-0.2,0.8-0.3,1.2-0.5c0.8-0.4,1.6-0.9,2.2-1.4c1.1-0.8,2-1.5,3-2.4
	c0.2-0.2,1.6-1.6,1.6-2l-1.7,1.4c-3.6,2.8-5.4,3.1-5.9,3.5c-1,0.3-2.7,0.9-3.8,0.9c-0.4,0-0.8,0.1-1.2,0.1c-0.2,0-0.4,0-0.6,0
	s-0.3,0-0.5,0c-0.6-0.2,0.1,0.1,0.2-0.2c0-0.1,3.7-0.5,4.4-0.8c-0.1-0.3-0.4-0.5-0.8-1.4c-0.2-0.5-0.4-1.2-0.4-1.7
	c-0.1-1,0.1-3.1,0.6-3.6c0.1,0.1,0,0.4,0.1,0.6l0.3,0.5c0-0.6,0.2-1.9,0.8-2.2l-0.1,0.6c0.1,0,0.5-1,0.8-1.5
	c0.2-0.2,0.3-0.4,0.5-0.6c0.2-0.2,0.4-0.4,0.6-0.6v0.5c0.2-0.1,0.1,0,0.4-0.6c0.1-0.2,0.3-0.4,0.4-0.5c0.3-0.3,0.7-0.7,1.1-0.8
	l-0.2,0.6c0.2-0.1,0.3-0.3,0.5-0.5c0.1-0.1,0.3-0.3,0.5-0.4c0.4-0.3,0.8-0.4,1.4-0.5l0.1,0.2c0.6-0.4,1.1-0.7,1.8-0.8l-0.2,0.5
	c0.5-0.2,1.2-0.8,2.5-1c-0.1,0.3-0.2,0.3-0.3,0.6c0.4-0.2,0.6-0.4,1.1-0.5c0.3-0.1,0.9-0.3,1.3-0.3c-0.2,0.2-0.3,0.3-0.4,0.6
	c0.3,0,1.2-0.5,2-0.8c0,0,0,0.1,0,0c0,0-0.4,0.5-0.4,0.8c0.3-0.4,1.3-0.9,1.9-0.9l-0.4,0.5c-0.2,0.4-0.1,0.2,0.1,0.2
	c0.4-0.2,1.4-0.3,3-0.2c-0.1,0.2-0.4,0.3-0.6,0.5c-0.4,0.6-0.6,1.6-1.1,2.1c0.3,0,0.6-0.2,0.8-0.3c0,0.8-0.9,2-1.3,2.5
	c0.5,0,0.6-0.2,0.9-0.2c-0.2,0.3-0.3,0.6-0.5,0.9c-0.1,0.2-0.2,0.3-0.3,0.4l-0.4,0.4l0.7-0.1c-0.4,1-0.9,1.4-1.2,2.1
	c0.3,0,0.6-0.1,0.8-0.2c-0.1,0.5-0.9,1.3-1.4,1.7c-0.1,0.1-0.2,0.1-0.3,0.2c-0.2,0.1-0.3,0.1-0.3,0.2c0.4,0.1,0.7-0.1,1.1-0.1
	C305.5,225.1,304.6,226.1,304.3,226.1L304.3,226.1z"/>
<path class="st0" d="M50.1,227.3c0.4,0.3,0.4,0.1,0.6,0.4l-1,0.2c0.7,0.4,1.6,0.8,2.4,0.9c0.5,0.1,0.7,0,1,0.1l-1.1,0.3
	c0.2,0.1,1,0.4,1.4,0.4c0.2,0,0.5,0.1,0.8,0.1s0.6,0,0.8,0c0,0,0,0.1,0,0c0,0-0.1,0.2-0.3,0.3s-0.3,0.2-0.5,0.3h0.1c0,0,0,0,0.1,0
	c0.4,0.1-0.1,0,0.1,0h0.7c0.3,0,0.7,0,1,0c0.7-0.1,1.4-0.2,2.1-0.4c0,0.2-0.4,0.7-0.5,0.8c1.5-0.2,3.7-1.8,4.7-3.1
	c0.2-0.3,0.8-1.1,0.7-1.5c-0.4-0.1-0.9-0.1-1.4-0.1c-0.9-0.1-1.8-0.4-2.5-0.6c-1.3-0.4-2.3-0.8-3.6-1.4c-0.3-0.1-2-1-2.2-1.4
	l2.1,0.8c4.3,1.5,6.1,1.3,6.7,1.5c1.1-0.1,2.8,0,3.9-0.3c0.4-0.1,0.8-0.2,1.2-0.3c0.2-0.1,0.4-0.1,0.6-0.2c0.2-0.1,0.3-0.1,0.5-0.2
	c0.5-0.4-0.1,0.1-0.2-0.1c-0.1-0.1-3.7,0.7-4.4,0.6c0-0.3,0.3-0.6,0.3-1.6c0-0.5,0-1.2-0.2-1.8c-0.2-0.9-1.1-2.9-1.7-3.2
	c0,0.2,0.1,0.4,0.1,0.6l-0.1,0.5c-0.2-0.6-0.8-1.7-1.4-1.8L61,218c-0.1,0-0.8-0.8-1.2-1.2c-0.2-0.2-0.4-0.3-0.6-0.4
	c-0.3-0.2-0.5-0.3-0.8-0.3l0.2,0.5c-0.2,0-0.1,0-0.5-0.4c-0.2-0.1-0.4-0.3-0.6-0.4c-0.4-0.2-0.9-0.4-1.3-0.4l0.4,0.5
	c-0.2-0.1-0.4-0.2-0.6-0.4c-0.2-0.1-0.4-0.2-0.6-0.3c-0.5-0.2-0.9-0.2-1.5-0.1v0.2c-0.7-0.2-1.2-0.3-2-0.2l0.4,0.4
	c-0.6,0-1.4-0.4-2.7-0.2c0.2,0.2,0.3,0.2,0.5,0.5c-0.4,0-0.7-0.2-1.2-0.2c-0.3,0-0.9,0-1.3,0.1c0.3,0.1,0.4,0.2,0.6,0.5
	c-0.3,0.1-1.3-0.2-2.2-0.1l0,0c0,0,0.5,0.3,0.6,0.6c-0.4-0.3-1.5-0.4-2.1-0.3l0.6,0.3c0.3,0.4,0.1,0.2,0,0.2c-0.5,0-1.4,0.2-2.9,0.7
	c0.2,0.1,0.5,0.2,0.7,0.3c0.6,0.4,1.1,1.4,1.7,1.7c-0.3,0.1-0.6,0-0.8,0c0.2,0.7,1.5,1.6,2,2c-0.4,0.2-0.6,0-1,0.1
	c0.3,0.3,0.5,0.5,0.8,0.7c0.2,0.1,0.3,0.2,0.5,0.3l0.5,0.3l-0.7,0.1c0.7,0.9,1.3,1.1,1.8,1.6c-0.3,0.1-0.6,0.1-0.8,0
	c0.3,0.4,1.3,1,1.8,1.2c0.1,0,0.2,0.1,0.4,0.1s0.3,0,0.4,0.1c-0.3,0.2-0.7,0.1-1.1,0.2C48.6,226.7,49.8,227.3,50.1,227.3L50.1,227.3
	z"/>
<path class="st0" d="M216.4,216.1c4.1-1,7.4,0.8,9.7,3.9c0.5,0.7,1.8,2.6,2.1,3.4c-1-1-1.7-1.8-3.1-2.5c-1.2-0.6-2.2-1.1-3.5-1.5
	c-2-0.7-6.2-1.2-8.6-0.3h0.2c0,0,0,0,0.1,0c1.1,0,1.2-0.2,3-0.1c5.4,0.3,11.7,3.6,14.6,8c0.3,0.5,1.1,1.7,1,2.3
	c-0.1,0.4-0.1,0.5-0.3,0.6c-0.3-0.5-0.4-1-0.7-1.6c-0.3-0.5-0.5-0.9-0.8-1.3c-0.6-0.8-1.3-1.5-2-2.1c-1-0.8-1.2-0.9-2.6-0.8
	c-3.8,0.3-6.4,2.7-10.1,3.1c-1,0.1-2.1,0-3-0.1c-1.4-0.3-1.5-0.5-2.5-0.9c-0.8-0.6-1-0.5-2.1-1.6c-0.7-0.7-1.3-1.4-1.9-2.3
	c-1.1-1.8-2.3-4.2-2.1-6.3l0.3,0.2c0.1,0.1,0.1,0.1,0.3,0.2c0.2,0.2,0.4,0.3,0.6,0.4c0.4,0.2,0.8,0.4,1.3,0.6
	C209.6,218.3,213.3,216.5,216.4,216.1L216.4,216.1z"/>
<path class="st1" d="M0,183.5c0,14.9,10.7,20.7,21.8,20.7c4.4,0,8.9-1,12.7-2.7V182h-6.3v15.1c-1.6,0.7-3.8,1.1-6,1.1
	c-7.3,0-15.5-3.4-15.5-14.8c0-10.5,7.9-14.7,15.7-14.7c4.1,0,8.2,1,11.2,3v-6.3c-3.6-1.7-7.8-2.6-12.1-2.6
	C10.7,162.7,0,169.4,0,183.5L0,183.5z M49.2,203.5v-15h8.1l12,15h7.8l-12.8-15.7c5.3-1.3,9.7-4.7,9.7-11.8c0-9.5-7.9-12.5-15.4-12.5
	h-16v40H49.2L49.2,203.5z M49.2,169.4H59c4.3,0,8.5,1.5,8.5,6.7c0,5.1-4.2,6.6-8.5,6.6h-9.8V169.4L49.2,169.4z M82.7,163.5v40h27.9
	v-5.9H89.3v-11.3h19.3v-5.9H89.3v-10.9h21v-5.9H82.7V163.5z M118.2,163.5v40h27.9v-5.9h-21.4v-11.3H144v-5.9h-19.3v-10.9h21v-5.9
	h-27.5V163.5z M160.1,203.5v-24.9c0-1.4,0-3-0.1-4.3l21.5,29.3h6.1v-40h-6.5v24.9c0,1.5,0,3,0.1,4.4l-21.5-29.3h-6.1v40L160.1,203.5
	L160.1,203.5z M219.7,163.5v14.2h-10.9v-14.2h-13.2v40h13.2v-14.2h10.9v14.2h13.1v-40H219.7L219.7,163.5z M249,203.5l1.8-5.3h13.8
	l1.7,5.3h13.4l-14.9-40h-14.2l-15,40H249L249,203.5z M256.6,180.1c0.4-1.5,0.8-3.1,1.1-5.1c0.3,2.1,0.7,3.7,1.1,5.1l2.8,8.5h-7.8
	L256.6,180.1L256.6,180.1z M282.6,163.5v40h30.3V192h-17.1v-28.5H282.6L282.6,163.5z M316.6,163.5v40h30.3V192h-17.1v-28.5H316.6
	L316.6,163.5z"/>
</svg>
