<?xml version="1.0" encoding="utf-8"?>
<!-- Generator: Adobe Illustrator 22.1.0, SVG Export Plug-In . SVG Version: 6.00 Build 0)  -->
<svg version="1.1" id="Layer_1" xmlns="http://www.w3.org/2000/svg" xmlns:xlink="http://www.w3.org/1999/xlink" x="0px" y="0px"
	 viewBox="0 0 346.9 41.4" style="enable-background:new 0 0 346.9 41.4;" xml:space="preserve">
<style type="text/css">
	.st0{fill:#094B53;}
</style>
<path class="st0" d="M0,20.7c0,14.9,10.7,20.7,21.8,20.7c4.4,0,8.9-1,12.7-2.7V19.2h-6.3v15.1c-1.6,0.7-3.8,1.1-6,1.1
	c-7.3,0-15.5-3.4-15.5-14.8c0-10.5,7.9-14.7,15.7-14.7c4.1,0,8.2,1,11.2,3V2.6C30,0.9,25.8,0,21.5,0C10.7-0.1,0,6.6,0,20.7L0,20.7z
	 M49.2,40.7v-15h8.1l12,15h7.8L64.3,25c5.3-1.3,9.7-4.7,9.7-11.8c0-9.5-7.9-12.5-15.4-12.5h-16v40H49.2L49.2,40.7z M49.2,6.6H59
	c4.3,0,8.5,1.5,8.5,6.7c0,5.1-4.2,6.6-8.5,6.6h-9.8V6.6L49.2,6.6z M82.7,0.7v40h27.9v-5.9H89.3V23.5h19.3v-5.9H89.3V6.7h21V0.8H82.7
	V0.7z M118.2,0.7v40h27.9v-5.9h-21.4V23.5H144v-5.9h-19.3V6.7h21V0.8h-27.5V0.7z M160.1,40.7V15.8c0-1.4,0-3-0.1-4.3l21.5,29.3h6.1
	v-40h-6.5v24.9c0,1.5,0,3,0.1,4.4L159.7,0.8h-6.1v40L160.1,40.7L160.1,40.7z M219.7,0.7v14.2h-10.9V0.7h-13.2v40h13.2V26.5h10.9
	v14.2h13.1v-40H219.7L219.7,0.7z M249,40.7l1.8-5.3h13.8l1.7,5.3h13.4l-14.9-40h-14.2l-15,40H249L249,40.7z M256.6,17.3
	c0.4-1.5,0.8-3.1,1.1-5.1c0.3,2.1,0.7,3.7,1.1,5.1l2.8,8.5h-7.8L256.6,17.3L256.6,17.3z M282.6,0.7v40h30.3V29.2h-17.1V0.7H282.6
	L282.6,0.7z M316.6,0.7v40h30.3V29.2h-17.1V0.7H316.6L316.6,0.7z"/>
</svg>
