<?xml version="1.0" encoding="utf-8"?>
<!-- Generator: Adobe Illustrator 22.0.1, SVG Export Plug-In . SVG Version: 6.00 Build 0)  -->
<svg version="1.1" id="Layer_1" xmlns="http://www.w3.org/2000/svg" xmlns:xlink="http://www.w3.org/1999/xlink" x="0px" y="0px"
	 viewBox="0 0 512 512" style="enable-background:new 0 0 512 512;" xml:space="preserve">
<style type="text/css">
	.st0{fill:#FFFFFF;}
</style>
<g>
	<path class="st0" d="M481.6,336.2v-261h-65L386.5,0H200.7l-30.1,75.2h-50V45.1H90.5v30.1H30.4v150.4v110.5
		c-20,13.1-30.1,28.1-30.1,44.9c0,56,114.9,86.7,234.7,90l-19.7,19.7l21.3,21.3l55.8-55.8l-55.8-55.8l-21.3,21.3l19.1,19.1
		c-54.6-1.5-105.2-8.9-144.1-21C48.9,406.9,30.4,391,30.4,381c0-5.8,6.3-13.1,17-20.1h417.2c10.8,7,17,14.3,17,20.1
		c0,16.5-48.3,45.9-151.9,56.5l3.1,29.9c49.2-5.1,91.8-14.8,123.1-28.1c46.2-19.6,55.9-42.6,55.9-58.4
		C511.7,364.3,501.6,349.2,481.6,336.2L481.6,336.2z M221.1,30.1h145.1l18,45.1H203L221.1,30.1z M60.5,165.5h60.2
		c8.3,0,15,6.7,15,15s-6.7,15-15,15H60.5V165.5z M225.9,248.2c0-45.6,37.1-82.7,82.7-82.7s82.7,37.1,82.7,82.7s-37.1,82.7-82.7,82.7
		S225.9,293.8,225.9,248.2z M451.5,330.9h-66.3c22.2-20.6,36.2-50.1,36.2-82.7c0-62.2-50.6-112.8-112.8-112.8S195.8,186,195.8,248.2
		c0,32.7,14,62.1,36.2,82.7H60.5V225.6h60.2c24.9,0,45.1-20.2,45.1-45.1s-20.2-45.1-45.1-45.1H60.5v-30.1h391.1V330.9z"/>
	<path class="st0" d="M308.6,195.5c-29,0-52.6,23.6-52.6,52.6s23.6,52.6,52.6,52.6c29,0,52.6-23.6,52.6-52.6
		S337.7,195.5,308.6,195.5z M308.6,270.7c-12.4,0-22.6-10.1-22.6-22.6c0-12.4,10.1-22.6,22.6-22.6s22.6,10.1,22.6,22.6
		C331.2,260.6,321.1,270.7,308.6,270.7z"/>
</g>
</svg>
