<?xml version="1.0" encoding="utf-8"?>
<!-- Generator: Adobe Illustrator 22.0.1, SVG Export Plug-In . SVG Version: 6.00 Build 0)  -->
<svg version="1.1" id="Capa_1" xmlns="http://www.w3.org/2000/svg" xmlns:xlink="http://www.w3.org/1999/xlink" x="0px" y="0px"
	 viewBox="0 0 512 512" style="enable-background:new 0 0 512 512;" xml:space="preserve">
<style type="text/css">
	.st0{fill:#8AC64B;}
</style>
<g>
	<g>
		<path class="st0" d="M497,482H331v-91h37.9c61.8,0,112.1-50.3,112.1-112.1c0-17.3-4.1-34.6-11.8-50.1l-36.3-72.7
			c-7.7-15.5-11.8-32.8-11.8-50.1C421,47.6,373.9,0,316,0c-15.7,0-31.1,3.5-45.1,10.2C257.3,3.7,242,0,226,0
			c-57.9,0-105,47.6-105,106c0,17.3-4.1,34.6-11.8,50.1l-36.3,72.7C65.1,244.3,61,261.6,61,278.9C61,340.7,111.3,391,173.1,391H211
			c0,10,0,81,0,91h-61v-15c0-24.8-20.2-45-45-45H90v-15c0-24.8-20.2-45-45-45S0,382.2,0,407v90c0,8.3,6.7,15,15,15h482
			c8.3,0,15-6.7,15-15S505.3,482,497,482z M120,482H30v-75c0-8.3,6.7-15,15-15s15,6.7,15,15v30c0,8.3,6.7,15,15,15h30
			c8.3,0,15,6.7,15,15V482z M316,30c41.4,0,75,34.1,75,76c0,21.9,5.2,43.9,15,63.5l36.3,72.7c5.7,11.3,8.7,24,8.7,36.7
			c0,45.3-36.8,82.1-82.1,82.1h-13.8c22-20.5,35.8-49.7,35.8-82.1c0-17.3-4.1-34.6-11.8-50.1l-36.3-72.7
			c-7.7-15.5-11.8-32.8-11.8-50.1c0-29-11.6-55.3-30.3-74.4C305.7,30.5,310.8,30,316,30z M226,91c-8.3,0-15,6.7-15,15v83.8
			l-34.4-34.4c-5.9-5.9-15.4-5.9-21.2,0s-5.9,15.4,0,21.2l55.6,55.6v77.6l-34.4-34.4c-5.9-5.9-15.4-5.9-21.2,0s-5.9,15.4,0,21.2
			l55.6,55.6v8.8h-37.9c-45.3,0-82.1-36.8-82.1-82.1c0-12.7,3-25.4,8.7-36.7l36.3-72.7c9.8-19.6,15-41.6,15-63.5
			c0-41.9,33.6-76,75-76s75,34.1,75,76c0,21.9,5.2,43.9,15,63.5l36.3,72.7c5.7,11.3,8.7,24,8.7,36.7c0,45.3-36.8,82.1-82.1,82.1
			c-13.2,0-24.8,0-37.9,0v-68.8l55.6-55.6c5.9-5.9,5.9-15.4,0-21.2c-5.9-5.9-15.4-5.9-21.2,0L241,249.8V106
			C241,97.7,234.3,91,226,91z M301,482h-60c0-10,0-81,0-91c11.9,0,48.2,0,60,0V482z"/>
	</g>
</g>
</svg>
