<?xml version="1.0" encoding="utf-8"?>
<!-- Generator: Adobe Illustrator 22.0.1, SVG Export Plug-In . SVG Version: 6.00 Build 0)  -->
<svg version="1.1" id="Layer_1" xmlns="http://www.w3.org/2000/svg" xmlns:xlink="http://www.w3.org/1999/xlink" x="0px" y="0px"
	 viewBox="0 0 512 512" style="enable-background:new 0 0 512 512;" xml:space="preserve">
<style type="text/css">
	.st0{fill:#77A8DB;}
</style>
<path class="st0" d="M409.6,355.4c-30.3,0-46,11-59.8,20.7c-12.1,8.5-21.7,15.3-42.6,15.3c-20.9,0-30.4-6.7-42.6-15.3
	c-13.8-9.7-29.5-20.7-59.8-20.7c-30.3,0-46,11-59.8,20.7c-12.1,8.5-21.7,15.3-42.6,15.3s-30.4-6.7-42.6-15.3
	C46,366.5,30.3,355.4,0,355.4v30c20.9,0,30.4,6.7,42.6,15.3c13.8,9.7,29.5,20.7,59.8,20.7c30.3,0,46-11,59.8-20.7
	c12.1-8.5,21.7-15.3,42.6-15.3c20.9,0,30.4,6.7,42.6,15.3c13.8,9.7,29.5,20.7,59.8,20.7c30.3,0,46-11,59.8-20.7
	c12.1-8.5,21.7-15.3,42.6-15.3s30.4,6.7,42.6,15.3c13.8,9.7,29.5,20.7,59.8,20.7v-30c-20.9,0-30.4-6.7-42.6-15.3
	C455.6,366.5,439.9,355.4,409.6,355.4z"/>
<path class="st0" d="M409.6,178.5c-30.3,0-46,11-59.8,20.7c-12.1,8.5-21.7,15.3-42.6,15.3c-20.9,0-30.4-6.7-42.6-15.3
	c-13.8-9.7-29.5-20.7-59.8-20.7c-30.3,0-46,11-59.8,20.7c-12.1,8.5-21.7,15.3-42.6,15.3s-30.4-6.7-42.6-15.3
	C46,189.5,30.3,178.5,0,178.5v30c20.9,0,30.4,6.7,42.6,15.3c13.8,9.7,29.5,20.7,59.8,20.7c30.3,0,46-11,59.8-20.7
	c12.1-8.5,21.7-15.3,42.6-15.3c20.9,0,30.4,6.7,42.6,15.3c13.8,9.7,29.5,20.7,59.8,20.7c30.3,0,46-11,59.8-20.7
	c12.1-8.5,21.7-15.3,42.6-15.3s30.4,6.7,42.6,15.3c13.8,9.7,29.5,20.7,59.8,20.7v-30c-20.9,0-30.4-6.7-42.6-15.3
	C455.6,189.5,439.9,178.5,409.6,178.5z"/>
<path class="st0" d="M409.6,267c-30.3,0-46,11-59.8,20.7c-12.1,8.5-21.7,15.3-42.6,15.3c-20.9,0-30.4-6.7-42.6-15.3
	c-13.8-9.7-29.5-20.7-59.8-20.7c-30.3,0-46,11-59.8,20.7c-12.1,8.5-21.7,15.3-42.6,15.3s-30.4-6.7-42.6-15.3C46,278,30.3,267,0,267
	v30c20.9,0,30.4,6.7,42.6,15.3C56.4,322,72.1,333,102.4,333c30.3,0,46-11,59.8-20.7c12.1-8.5,21.7-15.3,42.6-15.3
	c20.9,0,30.4,6.7,42.6,15.3c13.8,9.7,29.5,20.7,59.8,20.7c30.3,0,46-11,59.8-20.7c12.1-8.5,21.7-15.3,42.6-15.3s30.4,6.7,42.6,15.3
	C466,322,481.7,333,512,333v-30c-20.9,0-30.4-6.7-42.6-15.3C455.6,278,439.9,267,409.6,267z"/>
<path class="st0" d="M469.4,110.7C455.6,101,439.9,90,409.6,90c-30.3,0-46,11-59.8,20.7c-12.1,8.5-21.7,15.3-42.6,15.3
	c-20.9,0-30.4-6.7-42.6-15.3C250.8,101,235.1,90,204.8,90c-30.3,0-46,11-59.8,20.7c-12.1,8.5-21.7,15.3-42.6,15.3
	s-30.4-6.7-42.6-15.3C46,101,30.3,90,0,90v30c20.9,0,30.4,6.7,42.6,15.3C56.4,145,72.1,156,102.4,156c30.3,0,46-11,59.8-20.7
	c12.1-8.5,21.7-15.3,42.6-15.3c20.9,0,30.4,6.7,42.6,15.3c13.8,9.7,29.5,20.7,59.8,20.7c30.3,0,46-11,59.8-20.7
	c12.1-8.5,21.7-15.3,42.6-15.3s30.4,6.7,42.6,15.3C466,145,481.7,156,512,156v-30C491.1,126,481.6,119.3,469.4,110.7z"/>
</svg>
