<svg id="Layer_1" xmlns="http://www.w3.org/2000/svg" viewBox="0 0 512 512"><style>.st1{fill:#d89d6c}.st2{fill:#c48353}.st3{fill:#515a5e}</style><path d="M411.2 351.1s-8.1 8.2-21.6 9.9c-5.4.7-11.6.4-18.5-1.9L331.6 211l-.7-2.5v.7l15 203.8s-39.4 10.7-84.6 11.5h-10.2c-21.7-.4-42.1-3-57.4-5.7-16.3-2.8-26.8-5.7-27.2-5.8l14.9-204.5-40.2 150.6c-8.8 2.9-16.5 2.7-22.7 1.1-11-2.6-17.4-9.2-17.4-9.2 0-8.9.2-17.5.6-25.8l1.7-24.1c9.3-99.1 43.9-145 43.9-145 3.3-3.3 7-6.4 10.7-9.3 16.1-12.2 35.9-18.6 56.1-18.6h84.2c20.3 0 40.2 6.5 56.3 18.8 3 2.3 5.9 4.7 8.6 7.3.6.6 1.3 1.2 1.9 1.8 0 0 1.6 2.1 4.2 6.5 9.5 15.8 32.4 60.8 39.6 138.5l1.7 24.1c.4 8.4.6 17 .6 25.9z" fill="#f0c398"/><path class="st1" d="M389.6 361c-5.4.7-11.6.4-18.5-1.9l-40.2-150.6c0-13.1 4.8-23.7 10.8-31.9L389.6 361zM197.8 229.4c0 42.6-4.2 188.1-4.2 189.4-16.3-2.8-26.8-5.7-27.2-5.8l14.9-204.5c0-8.7-2.1-16.4-5.3-22.9 0 0 21.8 1 21.8 43.8zM261.2 125.8v298.7H251V125.8c0-2.8 2.3-5.1 5.1-5.1 2.9 0 5.1 2.3 5.1 5.1z"/><path class="st1" d="M214 128.3l-2.9 12.9c-27.4 11.5-91.5 24.7-92.7 219.1-11-2.6-17.4-9.2-17.4-9.2 0-8.9.2-17.5.6-25.8l1.7-24.1c9.3-99.1 43.9-145 43.9-145 3.3-3.3 7-6.4 10.7-9.3 16.1-12.2 35.9-18.6 56.1-18.6z"/><path class="st2" d="M124.2 304.7l-24.4-4.1c-3.1-.5-6.1 1.6-6.6 4.7l-2.1 12.5c-.5 3.1 1.6 6.1 4.7 6.6l24.4 4.1c3.1.5 6.1-1.6 6.6-4.7l2.1-12.5c.5-3.1-1.6-6.1-4.7-6.6zM388 304.7l24.4-4.1c3.1-.5 6.1 1.6 6.6 4.7l2.1 12.5c.5 3.1-1.6 6.1-4.7 6.6l-24.4 4.1c-3.1.5-6.1-1.6-6.6-4.7l-2.1-12.5c-.5-3.1 1.6-6.1 4.7-6.6z"/><path class="st3" d="M322.5 115c0 11.3-12.7 30-23.2 43.6-6.8 8.8-20.1 8.7-26.8-.1L256.1 137l-16.4 21.5c-6.7 8.8-20 8.9-26.8.1-10.5-13.6-23.2-32.3-23.2-43.6 0-19.4 28.3-25.5 66.4-25.5 38.1-.1 66.4 6.1 66.4 25.5z"/><path d="M291.8 121.5c-7.3 9.3-35.7 15.5-35.7 15.5l-16.4 21.5c-6.7 8.8-20 8.9-26.8.1-10.5-13.6-23.2-32.3-23.2-43.6 0-19.4 28.3-25.5 66.4-25.5 33.4 1.9 35.7 32 35.7 32z" fill="#343c3f"/><path class="st1" d="M369.3 162.7c-8 5.1-28.1 20.6-28.1 45.8 0 2.8-2.3 5.1-5.1 5.1-1.9 0-3.6-1-4.5-2.6-.3-.6-.5-1.2-.6-1.9v-.7c0-29.9 22.3-47.6 32.2-54.1.6.6 1.3 1.2 1.9 1.8-.1.1 1.5 2.3 4.2 6.6zM153.2 162.7c8 5.1 28.1 20.6 28.1 45.8 0 2.8 2.3 5.1 5.1 5.1 1.9 0 3.6-1 4.5-2.6.3-.6.5-1.2.6-1.9v-.7c0-29.9-22.3-47.6-32.2-54.1-.6.6-1.3 1.2-1.9 1.8.1.1-1.5 2.3-4.2 6.6z"/><path class="st2" d="M276.5 202.1h-40.9c-2.8 0-5.1-2.3-5.1-5.1s2.3-5.1 5.1-5.1h40.9c2.8 0 5.1 2.3 5.1 5.1.1 2.8-2.2 5.1-5.1 5.1zM276.5 262.6h-40.9c-2.8 0-5.1-2.3-5.1-5.1s2.3-5.1 5.1-5.1h40.9c2.8 0 5.1 2.3 5.1 5.1.1 2.8-2.2 5.1-5.1 5.1zM276.5 323.1h-40.9c-2.8 0-5.1-2.3-5.1-5.1s2.3-5.1 5.1-5.1h40.9c2.8 0 5.1 2.3 5.1 5.1.1 2.8-2.2 5.1-5.1 5.1z"/><path d="M256.1 108.6s37.2 0 37.2 12.3-37.2 16.1-37.2 16.1-37.2-3.8-37.2-16.1 37.2-12.3 37.2-12.3z" fill="#1e2628"/><path class="st3" d="M235.7 197c0 7.2-5.8 13-13 13s-13-5.8-13-13 5.8-13 13-13 13 5.8 13 13zM302.6 197c0 7.2-5.8 13-13 13s-13-5.8-13-13 5.8-13 13-13 13 5.8 13 13zM235.7 257.5c0 7.2-5.8 13-13 13s-13-5.8-13-13 5.8-13 13-13 13 5.8 13 13zM302.6 257.5c0 7.2-5.8 13-13 13s-13-5.8-13-13 5.8-13 13-13 13 5.8 13 13zM235.7 318c0 7.2-5.8 13-13 13s-13-5.8-13-13 5.8-13 13-13c7.2-.1 13 5.8 13 13zM302.6 318c0 7.2-5.8 13-13 13s-13-5.8-13-13 5.8-13 13-13c7.2-.1 13 5.8 13 13z"/><path d="M256 0C114.6 0 0 114.6 0 256s114.6 256 256 256 256-114.6 256-256S397.4 0 256 0zM46 256c0-71.2 35.4-134 89.6-172L336 450.1c-24.7 10.2-51.7 15.8-80 15.8C140 466 46 372 46 256zm330.4 172L176 61.9C200.6 51.7 227.7 46 256 46c116 0 209.9 94 209.9 210 0 71.2-35.4 134-89.5 172z" fill="#ff5a73"/></svg>