<?xml version="1.0" encoding="utf-8"?>
<!-- Generator: Adobe Illustrator 22.1.0, SVG Export Plug-In . SVG Version: 6.00 Build 0)  -->
<svg version="1.1" id="Layer_1" xmlns="http://www.w3.org/2000/svg" xmlns:xlink="http://www.w3.org/1999/xlink" x="0px" y="0px"
	 viewBox="0 0 512 512" style="enable-background:new 0 0 512 512;" xml:space="preserve">
<path d="M248.5,99v29c0,4.1,3.4,7.5,7.5,7.5c4.1,0,7.5-3.4,7.5-7.5V99c0-4.1-3.4-7.5-7.5-7.5C251.9,91.5,248.5,94.9,248.5,99z"/>
<path d="M263.5,413v-29c0-4.1-3.4-7.5-7.5-7.5c-4.1,0-7.5,3.4-7.5,7.5v29c0,4.1,3.4,7.5,7.5,7.5C260.1,420.5,263.5,417.1,263.5,413z
	"/>
<path d="M135.5,256c0-4.1-3.4-7.5-7.5-7.5H99c-4.1,0-7.5,3.4-7.5,7.5s3.4,7.5,7.5,7.5h29C132.1,263.5,135.5,260.1,135.5,256z"/>
<path d="M193.5,132.7l-9.5-16.5c-2.1-3.6-6.7-4.8-10.2-2.7s-4.8,6.7-2.7,10.2l9.5,16.5c1.4,2.4,3.9,3.8,6.5,3.8c1.3,0,2.6-0.3,3.7-1
	C194.3,140.9,195.6,136.3,193.5,132.7z"/>
<path d="M334.5,399.5c1.3,0,2.6-0.3,3.7-1c3.6-2.1,4.8-6.7,2.7-10.2l-9.5-16.5c-2.1-3.6-6.7-4.8-10.2-2.7c-3.6,2.1-4.8,6.7-2.7,10.2
	l9.5,16.5C329.4,398.1,331.9,399.5,334.5,399.5z"/>
<path d="M375.5,194.5c1.3,0,2.6-0.3,3.7-1l16.5-9.5c3.6-2.1,4.8-6.7,2.7-10.2s-6.7-4.8-10.2-2.7l-16.5,9.5
	c-3.6,2.1-4.8,6.7-2.7,10.2C370.4,193.2,372.9,194.5,375.5,194.5z"/>
<path d="M120,342c1.3,0,2.6-0.3,3.7-1l16.5-9.5c3.6-2.1,4.8-6.7,2.7-10.2c-2.1-3.6-6.7-4.8-10.2-2.7l-16.5,9.5
	c-3.6,2.1-4.8,6.7-2.7,10.2C114.9,340.7,117.4,342,120,342z"/>
<path d="M140.2,180.5l-16.5-9.5c-3.6-2.1-8.2-0.8-10.2,2.7c-2.1,3.6-0.8,8.2,2.7,10.2l16.5,9.5c1.2,0.7,2.5,1,3.7,1
	c2.6,0,5.1-1.3,6.5-3.8C145.1,187.2,143.8,182.6,140.2,180.5z"/>
<path d="M392,342c2.6,0,5.1-1.3,6.5-3.8c2.1-3.6,0.8-8.2-2.7-10.2l-16.5-9.5c-3.6-2.1-8.2-0.8-10.2,2.7c-2.1,3.6-0.8,8.2,2.7,10.2
	l16.5,9.5C389.4,341.7,390.7,342,392,342z"/>
<path d="M190.8,369c-3.6-2.1-8.2-0.8-10.2,2.7l-9.5,16.5c-2.1,3.6-0.8,8.2,2.7,10.2c1.2,0.7,2.5,1,3.7,1c2.6,0,5.1-1.3,6.5-3.8
	l9.5-16.5C195.6,375.7,194.3,371.1,190.8,369z"/>
<path d="M420.5,256c0-4.1-3.4-7.5-7.5-7.5H282.5c-0.6-2.1-1.4-4.1-2.4-5.9l32.4-32.4c2.9-2.9,2.9-7.7,0-10.6
	c-2.9-2.9-7.7-2.9-10.6,0L269.4,232c-4-2.2-8.5-3.5-13.4-3.5c-15.2,0-27.5,12.3-27.5,27.5c0,15.2,12.3,27.5,27.5,27.5
	c12.6,0,23.2-8.5,26.5-20H413C417.1,263.5,420.5,260.1,420.5,256z M256,268.5c-6.9,0-12.5-5.6-12.5-12.5s5.6-12.5,12.5-12.5
	s12.5,5.6,12.5,12.5S262.9,268.5,256,268.5z"/>
<path d="M328.5,68.4l-0.1-0.1c0,0,0,0,0-0.1l0,0c-0.4-0.9-1-1.7-1.7-2.4c0,0,0,0-0.1-0.1l0,0c-0.8-0.7-1.6-1.2-2.6-1.6
	c-21.8-7.8-44.7-11.7-68-11.7h0c-13.8,0-27.6,1.4-41,4.1c-13.1,2.7-25.9,6.7-38.2,11.9c-12.1,5.1-23.7,11.4-34.6,18.8
	c-10.8,7.3-20.9,15.6-30.1,24.9c-9.2,9.2-17.6,19.4-24.9,30.1c-7.4,10.9-13.7,22.5-18.8,34.6c-5.2,12.3-9.2,25.1-11.9,38.2
	c-2.8,13.4-4.1,27.2-4.1,41v0.5c0.3,111.6,91.4,202.7,203,203h0.1h0.4h0c22.8,0,45.3-3.8,66.7-11.2c20.7-7.2,40-17.7,57.5-31.2
	c3.3-2.5,3.9-7.3,1.3-10.5c-1.4-1.9-3.6-2.9-5.9-2.9c-1.7,0-3.3,0.5-4.6,1.6c-33.2,25.7-73,39.3-115,39.3h-0.3c-0.1,0-0.1,0-0.2,0
	c-103.4-0.3-187.7-84.6-187.9-188V256c0-50.3,19.6-97.6,55.3-133.2c35.7-35.6,83-55.3,133.2-55.3c21.5,0,42.7,3.6,62.8,10.8
	c1.8,0.7,3.8,0.7,5.6-0.1h0c1-0.4,1.9-1.1,2.7-1.9c0,0,0,0,0,0l0,0c0.6-0.7,1.1-1.6,1.5-2.5c0.6-1.6,0.6-3.3,0-4.9l0-0.1l-0.1,0l0,0
	l0-0.1c0,0,0,0,0-0.1c0,0,0,0,0,0l0,0C328.5,68.5,328.5,68.5,328.5,68.4L328.5,68.4C328.5,68.4,328.5,68.4,328.5,68.4z"/>
<path d="M506.5,203c-3.6-16.9-8.9-33.4-15.7-49.2c-5.4-12.4-17.6-20.4-31-20.4h-0.1c-5.9,0-11.8,1.6-16.9,4.6
	c-5.2,3-9.5,7.4-12.4,12.5c-2.9,5.1-4.4,10.8-4.4,16.7c0,4.7,0.9,9.2,2.8,13.5c10.4,23.8,15.7,49.1,15.7,75.3
	c0,46.8-17.3,91.7-48.8,126.4c-1.3,1.4-1.9,3.2-1.9,5.1c0,2.1,0.9,4.1,2.5,5.5c1.4,1.3,3.2,1.9,5,1.9c2.1,0,4.1-0.9,5.6-2.5
	c8.2-9,15.6-18.9,22-29.2c6.5-10.4,12.1-21.5,16.6-32.9c9.3-23.7,14.1-48.7,14.1-74.4c0-14.2-1.5-28.4-4.4-42.1
	c-2.8-13.4-7.1-26.6-12.6-39.2c-1.1-2.4-1.6-4.9-1.6-7.5c0-6.7,3.6-12.9,9.3-16.2c2.9-1.7,6.1-2.6,9.4-2.6c7.5,0,14.3,4.5,17.3,11.3
	c13.3,30.4,20,62.8,20,96.2c0,64.4-25.1,124.9-70.6,170.4C380.9,471.9,320.4,497,256,497s-124.9-25.1-170.4-70.6
	c-1.1-1.1-2.2-2.3-3.4-3.4c0,0-0.1-0.1-0.1-0.1C38.8,377.8,15,318.5,15,256c0-64.4,25.1-124.9,70.6-170.4S191.6,15,256,15
	c37,0,72.6,8.2,105.6,24.3c2.1,1,4.6,1,6.7-0.1c2.1-1.1,3.6-3.1,4-5.4c1.8-10.9,11.1-18.8,22.2-18.8h0c5.9,0,11.5,2.4,15.8,6.9
	c4.3,4.4,6.7,10.3,6.7,16.3V99c0,12.4-10.1,22.5-22.5,22.5h-60.9c-6,0-11.9-2.4-16.3-6.7c-4.4-4.3-6.9-9.9-6.9-15.8v-0.3
	c0-2-0.7-3.9-2.1-5.3c-1.4-1.4-3.3-2.2-5.3-2.3c0,0-0.1,0-0.1,0c-4.1,0-7.5,3.3-7.5,7.4v0.2V99c0,5.1,1,10,3.1,14.7
	c2,4.5,4.8,8.5,8.3,11.9c3.5,3.4,7.6,6.1,12.1,8c4.7,1.9,9.6,2.9,14.6,2.9h60.9c10,0,19.4-3.9,26.5-11c7.1-7.1,11-16.5,11-26.5V38.1
	c0-5.1-1-10-3-14.6c-1.9-4.5-4.6-8.6-8-12.1c-3.4-3.5-7.4-6.3-11.9-8.3C404.5,1,399.5,0,394.5,0c-7.4,0-14.5,2.1-20.6,6.2
	c-5.9,3.9-10.6,9.5-13.6,15.9C344.2,15,327.3,9.4,310.1,5.7C292.4,1.9,274.2,0,256,0h0c-17.4,0-34.7,1.8-51.6,5.2
	c-16.4,3.4-32.6,8.4-48,14.9c-15.2,6.4-29.8,14.4-43.5,23.6C99.3,52.9,86.6,63.4,75,75c-11.6,11.6-22.1,24.3-31.3,37.9
	c-9.2,13.7-17.2,28.3-23.6,43.5C13.6,171.8,8.6,188,5.2,204.4C1.7,221.3,0,238.6,0,256c0,16.9,1.7,33.8,4.9,50.3
	c3.2,16.1,8,31.9,14.2,47c6.1,14.9,13.7,29.2,22.5,42.7c8.7,13.3,18.8,25.9,29.8,37.4c1.3,1.3,2.4,2.5,3.6,3.6
	c11.6,11.6,24.3,22.1,37.9,31.3c13.7,9.3,28.3,17.2,43.5,23.6c15.4,6.5,31.6,11.6,48,14.9c16.9,3.4,34.2,5.2,51.6,5.2h0
	c17.4,0,34.7-1.8,51.6-5.2c16.4-3.4,32.6-8.4,48-14.9c15.2-6.4,29.8-14.4,43.5-23.6c13.6-9.2,26.3-19.7,37.9-31.3
	c11.6-11.6,22.1-24.3,31.3-37.9c9.3-13.7,17.2-28.3,23.6-43.5c6.5-15.5,11.6-31.6,14.9-48.1c3.4-16.9,5.2-34.2,5.2-51.6
	C512,238.2,510.1,220.3,506.5,203z"/>
</svg>
