<?xml version="1.0" encoding="utf-8"?>
<!-- Generator: Adobe Illustrator 22.1.0, SVG Export Plug-In . SVG Version: 6.00 Build 0)  -->
<svg version="1.1" id="Capa_1" xmlns="http://www.w3.org/2000/svg" xmlns:xlink="http://www.w3.org/1999/xlink" x="0px" y="0px"
	 viewBox="0 0 512 512" style="enable-background:new 0 0 512 512;" xml:space="preserve">
<path d="M449,355.5c-10.7-17.9-25.8-30.4-43.5-36.1l-50.1-16c-1.6-0.5-3.3-0.5-4.9,0l-7.9-11.9c-2.4-3.6-7.1-4.6-10.8-2.4l-3.9,2.3
	v-11.5c0-1.2-0.3-2.4-0.8-3.4c24.9-22,40.9-55.4,40.9-92.6V156c11-30.4,14.9-59.7,11.2-84.9c-4.2-28.3-17.8-49.2-39.4-60.5
	c0,0,0,0-0.1,0c0,0-0.1,0-0.1-0.1c-0.1,0-0.1-0.1-0.2-0.1c-0.1-0.1-0.3-0.1-0.4-0.2c-0.1,0-0.2-0.1-0.3-0.1c-0.1,0-0.3-0.1-0.4-0.1
	c-0.1,0-0.2-0.1-0.4-0.1c-0.1,0-0.3-0.1-0.4-0.1c-0.1,0-0.3,0-0.4-0.1c-0.1,0-0.2,0-0.4,0c-0.1,0-0.3,0-0.4,0c-0.1,0-0.2,0-0.3,0
	c-0.2,0-0.3,0-0.5,0c-0.1,0-0.2,0-0.3,0c-0.2,0-0.3,0-0.5,0.1c-0.1,0-0.1,0-0.2,0c-18.7,3.6-36.3-0.4-53.3-4.3
	c-27.1-6.2-55-12.5-84.4,12.2c-1.6-0.1-3.2-0.2-4.8-0.2c-34.7,0-63,27.4-64,61.4c0,0.3,0,0.6,0,0.9c0,0.2,0,0.5,0,0.7
	c0,0.1,0,0.2,0,0.3c0,0.1,0,0.2,0,0.3c0.3,37.4,13.6,80,16.2,88v14.7c0,37.2,15.8,70.4,40.7,92.5c-0.5,1.1-0.8,2.3-0.8,3.5v11.5
	l-3.9-2.3c-3.7-2.2-8.4-1.1-10.8,2.4l-7.9,11.9c-1.5-0.5-3.2-0.5-4.9,0l-50.1,16C88.7,325,73.7,337.5,63,355.5
	c-9.7,16.2-15,35.8-15,55.1V480c0,17.6,14.4,32,32,32h152c0,0,0,0,0,0c0,0,0,0,0,0H280c0,0,0,0,0,0c0,0,0,0,0,0h152
	c17.6,0,32-14.4,32-32v-69.5C464.1,391.3,458.7,371.7,449,355.5z M375.3,386c0.2,1.4-0.4,2.8-1.6,3.6l-26.5,19.9
	c-1.9,1.4-3,3.5-3.2,5.8c-0.2,2.3,0.7,4.6,2.3,6.2l16.7,16.7c1.4,1.4,1.5,3.6,0.4,5.2L324,496h-32.3l67.8-173.1
	c0.2-0.4,0.3-0.9,0.4-1.3l8.6,2.8L375.3,386z M237.5,496l-5.6-14.4c0,0,0,0,0,0l14.7-73.7c0.5,0,0.9,0,1.4,0h16c0.5,0,0.9,0,1.4,0
	l14.7,73.7c0,0,0,0,0,0l-5.6,14.4H237.5z M188,496l-39.4-52.5c-1.2-1.6-1-3.8,0.4-5.2l16.7-16.7c1.6-1.6,2.5-3.9,2.3-6.2
	c-0.2-2.3-1.3-4.4-3.2-5.8l-26.5-19.9c-1.1-0.8-1.7-2.2-1.6-3.6l6.9-61.7l8.6-2.8c0.1,0.4,0.2,0.9,0.4,1.3L220.3,496L188,496
	L188,496z M248,359.9h16c4.4,0,8,3.6,8,8v16c0,4.4-3.6,8-8,8h-16c-4.4,0-8-3.6-8-8v-16C240,363.4,243.6,359.9,248,359.9z M291,454
	l-10.5-52.7c0.3-0.3,0.6-0.6,0.9-0.9l0.2,0.3c3.3,4.9,8.5,8,14.3,8.6c0.6,0.1,1.3,0.1,1.9,0.1c4.5,0,8.9-1.6,12.3-4.4L291,454z
	 M230.4,400.8l0.2-0.3c0.3,0.3,0.6,0.6,0.9,0.9L221,454l-19.2-49c3.5,2.9,7.8,4.4,12.3,4.4c0.6,0,1.3,0,1.9-0.1
	C222,408.8,227.2,405.6,230.4,400.8z M333.6,306.7l9.5,14.2l-18.8,48c-0.7,0.4-1.3,0.8-1.9,1.4l-22.1,22.1c-1,1-2.2,1.1-2.8,1
	c-0.6-0.1-1.8-0.3-2.6-1.5l-6.9-10.3v-13.7c0-11.1-7.5-20.4-17.7-23.2L333.6,306.7z M144,80.7c0.1-26,21.6-47.1,48-47.1
	c6.4,0,12.7,1.2,18.5,3.6c4.1,1.7,8.8-0.3,10.4-4.3c1.6-3.8,0-8.2-3.6-10.1c19.3-10.9,37.8-6.7,60.3-1.7c17,3.9,36.1,8.2,57,4.9
	c19.6,11.4,26.5,31.9,28.8,47.4c2.7,18,0.8,39.2-5.3,61.3L343,108c-1.6-2.9-4.8-4.5-8.1-4c-0.9,0.1-89.4,12-155.9-15.5
	c-4.1-1.7-8.8,0.3-10.4,4.3c-1.7,4.1,0.3,8.8,4.3,10.4c61.5,25.4,137.8,19.5,158.8,17.2l20.4,36.3v3.1c0,0-0.1,0-0.1,0h-24h-48
	c-4.7,0-9.2,2.1-12.2,5.7c-0.6,0.7-1.2,1.5-1.6,2.3h-20.3c-0.5-0.8-1-1.6-1.6-2.3c-3-3.6-7.5-5.7-12.2-5.7h-48h-21.7
	c5.2-20.2,18.2-34.4,18.3-34.5c3-3.2,2.9-8.3-0.3-11.3c-3.2-3-8.3-2.9-11.3,0.3c-0.6,0.6-9.5,10.2-16.4,25.3
	C148.4,123,144.1,100.7,144,80.7z M327.7,175.9l-6.8,15.4c0,0,0,0.1-0.1,0.1c-2.4,5.6-6.7,8.5-13,8.5h-15.8c-3.9,0-7.3-2.8-7.9-6.7
	c0-0.2-0.1-0.4-0.1-0.6l-4.1-16.7L327.7,175.9z M232,175.9l-4.1,16.7c0,0.2-0.1,0.4-0.1,0.6c-0.6,3.9-4,6.7-7.9,6.7h-15.8
	c-6.3,0-10.6-2.9-13-8.5c0,0,0-0.1-0.1-0.1l-6.8-15.4L232,175.9z M160.1,183.9v-8v0h7.9c0,0.9,0,1.8,0.2,2.6
	c0.1,0.7,0.3,1.3,0.6,1.9l7.6,17.3c4.9,11.6,15,18.2,27.7,18.2h15.8c11.7,0,21.6-8.3,23.6-19.7l3-12.3h19l3,12.3
	c2.1,11.5,11.9,19.7,23.6,19.7h15.8c12.7,0,22.8-6.6,27.7-18.2l7.6-17.3c0.3-0.6,0.5-1.3,0.6-1.9c0.1-0.9,0.2-1.8,0.2-2.6h8
	c0,0,0.1,0,0.1,0v8c0,57.4-43.1,104-96,104S160.1,241.3,160.1,183.9z M200,287.7c16.5,10.3,35.7,16.2,56.1,16.2
	c20.3,0,39.4-5.8,55.9-16.1V301l-56,33.6L200,301V287.7z M178.4,306.7l63.3,38c-10.2,2.8-17.7,12.1-17.7,23.2v13.7l-6.9,10.3
	c-0.8,1.2-1.9,1.5-2.6,1.5c-0.6,0.1-1.8,0-2.8-1l-22.1-22.1c-0.6-0.6-1.2-1.1-1.9-1.4l-18.8-48L178.4,306.7z M63.9,480v-69.5
	c0-39.9,23.9-68.4,47.4-75.9l15.5-5l-6.1,54.6c-0.8,7,2.2,14,7.9,18.2l19.2,14.4L137.6,427c-7,7-7.8,18.2-1.9,26.1L168,496h-88
	C71.1,496,63.9,488.8,63.9,480z M448.1,480c0,8.8-7.2,16-16,16h-88l32.2-42.9c5.9-7.9,5.1-19.1-1.9-26.1l-10.1-10.1l19.2-14.4
	c5.6-4.2,8.6-11.2,7.9-18.2l-6.1-54.6l15.5,5c23.6,7.5,47.4,36,47.4,75.9V480z"/>
</svg>
