<?xml version="1.0" encoding="utf-8"?>
<!-- Generator: Adobe Illustrator 22.1.0, SVG Export Plug-In . SVG Version: 6.00 Build 0)  -->
<svg version="1.1" id="Layer_2" xmlns="http://www.w3.org/2000/svg" xmlns:xlink="http://www.w3.org/1999/xlink" x="0px" y="0px"
	 viewBox="0 0 224 201.1" style="enable-background:new 0 0 224 201.1;" xml:space="preserve">
<path class="st0" d="M221.3,80.3l-27.2-12l27.2-12c1.6-0.7,2.7-2.3,2.7-4.1c0-1.8-1-3.4-2.7-4.1L113.8,0.4c-1.2-0.5-2.5-0.5-3.6,0
	L2.7,48C1,48.7,0,50.3,0,52.1c0,1.8,1,3.4,2.7,4.1l27.2,12l-27.2,12C1,81,0,82.6,0,84.4v32.3c0,1.8,1,3.4,2.7,4.1l27.2,12l-27.2,12
	C1,145.6,0,147.2,0,149c0,1.8,1,3.4,2.7,4.1l107.5,47.6c0.6,0.3,1.2,0.4,1.8,0.4c0.6,0,1.2-0.1,1.8-0.4l107.5-47.6
	c1.6-0.7,2.7-2.3,2.7-4.1c0-1.8-1-3.4-2.7-4.1l-27.2-12l27.2-12c1.6-0.7,2.7-2.3,2.7-4.1V84.4C224,82.6,223,81,221.3,80.3z M112,9.4
	l96.4,42.7L112,94.8L15.6,52.1L112,9.4z M41,73.2l69.2,30.6c0.6,0.3,1.2,0.4,1.8,0.4c0.6,0,1.2-0.1,1.8-0.4L183,73.2l25.4,11.2
	L112,127.1L15.6,84.4L41,73.2z M44.8,129.6v-22.5l26.8,11.9v22.5L44.8,129.6z M80.7,123l26.8,11.9v22.5l-26.8-11.9V123z
	 M116.5,134.9l26.8-11.9v22.5l-26.8,11.9V134.9z M152.3,119.1l26.8-11.9v22.5l-26.8,11.9V119.1z M9,91.3l26.8,11.9v22.5L9,113.8
	V91.3z M112,191.7L15.6,149L41,137.8l69.2,30.6c0.6,0.3,1.2,0.4,1.8,0.4c0.6,0,1.2-0.1,1.8-0.4l69.2-30.6l25.4,11.2L112,191.7z
	 M188.2,125.7v-22.5L215,91.3v22.5L188.2,125.7z"/>
</svg>
