<?xml version="1.0" encoding="utf-8"?>
<!-- Generator: Adobe Illustrator 22.1.0, SVG Export Plug-In . SVG Version: 6.00 Build 0)  -->
<svg version="1.1" xmlns="http://www.w3.org/2000/svg" xmlns:xlink="http://www.w3.org/1999/xlink" x="0px" y="0px"
	 viewBox="0 0 473 289.7" style="enable-background:new 0 0 473 289.7;" xml:space="preserve">

<g id="Guides_For_Artboard">
</g>
<g id="Layer_3">
	<g>
		<path class="st0" d="M68,289.5H7.5c-4.1,0-7.5-3.4-7.5-7.5V7.5C0,3.4,3.4,0,7.5,0H68c4.1,0,7.5,3.4,7.5,7.5V282
			C75.5,286.2,72.2,289.5,68,289.5z M15,274.5h45.5V15H15V274.5z"/>
		<path class="st0" d="M266.8,289.5h-60.5c-4.1,0-7.5-3.4-7.5-7.5V7.5c0-4.1,3.4-7.5,7.5-7.5h60.5c4.1,0,7.5,3.4,7.5,7.5V282
			C274.3,286.2,270.9,289.5,266.8,289.5z M213.7,274.5h45.5V15h-45.5V274.5z"/>
		<path class="st0" d="M465.5,289.5H405c-4.1,0-7.5-3.4-7.5-7.5V7.5c0-4.1,3.4-7.5,7.5-7.5h60.5c4.1,0,7.5,3.4,7.5,7.5V282
			C473,286.2,469.7,289.5,465.5,289.5z M412.5,274.5H458V15h-45.5V274.5z"/>
		<path class="st0" d="M204.5,43.7h-135c-4.1,0-7.5-3.4-7.5-7.5s3.4-7.5,7.5-7.5h135c4.1,0,7.5,3.4,7.5,7.5S208.6,43.7,204.5,43.7z"
			/>
		<path class="st0" d="M465.5,289.7H7.5c-4.1,0-7.5-3.4-7.5-7.5s3.4-7.5,7.5-7.5h458c4.1,0,7.5,3.4,7.5,7.5S469.6,289.7,465.5,289.7
			z"/>
		<path class="st0" d="M403.5,43.7h-135c-4.1,0-7.5-3.4-7.5-7.5s3.4-7.5,7.5-7.5h135c4.1,0,7.5,3.4,7.5,7.5S407.6,43.7,403.5,43.7z"
			/>
	</g>
</g>
</svg>
