<?xml version="1.0" encoding="utf-8"?>
<!-- Generator: Adobe Illustrator 22.1.0, SVG Export Plug-In . SVG Version: 6.00 Build 0)  -->
<svg version="1.1" id="Layer_1" xmlns="http://www.w3.org/2000/svg" xmlns:xlink="http://www.w3.org/1999/xlink" x="0px" y="0px"
	 viewBox="0 0 324.3 512" style="enable-background:new 0 0 324.3 512;" xml:space="preserve">
<g transform="translate(1 1)">
	<g>
		<g>
			<path d="M135.5,415.1V127V75.8V45.1c0-20.5-17.1-37.5-37.5-37.5H36.5C16.1,7.5-1,24.6-1,45.1v30.7V127v290.1c0,2.7,1,4.9,2.6,6.4
				l58.8,84c1.7,1.7,4.3,3.4,6.8,3.4s5.1-1.7,6.8-4.3l57.6-82.3c2.4-1.4,3.9-4,3.9-7.3v0C135.6,416.5,135.6,415.8,135.5,415.1z
				 M16.1,408.6V135.5h42.7v273.1H16.1z M118.5,118.5H67.3H16.1V84.3h102.4L118.5,118.5L118.5,118.5z M75.8,135.5h42.7v273.1H75.8
				L75.8,135.5L75.8,135.5z M16.1,45.1c0-11.1,9.4-20.5,20.5-20.5H98c11.1,0,20.5,9.4,20.5,20.5v22.2H16.1
				C16.1,67.3,16.1,45.1,16.1,45.1z M67.3,488l-43.5-62.3h43.5h43.5L67.3,488z"/>
			<path d="M297.7-1h-85.3c-14.5,0-25.6,11.1-25.6,25.6v465.9c0,11.1,9.4,20.5,20.5,20.5h96.4c11.1,0,19.6-9.4,19.6-20.5V24.6
				C323.3,10.1,312.2-1,297.7-1z M307.1,490.5c0,1.7-1.7,3.4-3.4,3.4h-96.4c-1.7,0-3.4-1.7-3.4-3.4V383h25.6c5.1,0,8.5-3.4,8.5-8.5
				s-3.4-8.5-8.5-8.5h-25.6v-17.1h42.7c5.1,0,8.5-3.4,8.5-8.5s-3.4-8.5-8.5-8.5h-42.7v-17.1h25.6c5.1,0,8.5-3.4,8.5-8.5
				s-3.4-8.5-8.5-8.5h-25.6v-17.1h42.7c5.1,0,8.5-3.4,8.5-8.5s-3.4-8.5-8.5-8.5h-42.7v-17.1h25.6c5.1,0,8.5-3.4,8.5-8.5
				s-3.4-8.5-8.5-8.5h-25.6v-17.1h42.7c5.1,0,8.5-3.4,8.5-8.5c0-5.1-3.4-8.5-8.5-8.5h-42.7v-17.1h25.6c5.1,0,8.5-3.4,8.5-8.5
				s-3.4-8.5-8.5-8.5h-25.6v-17.1h42.7c5.1,0,8.5-3.4,8.5-8.5s-3.4-8.5-8.5-8.5h-42.7v-17.1h25.6c5.1,0,8.5-3.4,8.5-8.5
				s-3.4-8.5-8.5-8.5h-25.6V75.8h42.7c5.1,0,8.5-3.4,8.5-8.5s-3.4-8.5-8.5-8.5h-42.7V24.6c0-5.1,3.4-8.5,8.5-8.5h86.2
				c5.1,0,8.5,3.4,8.5,8.5L307.1,490.5L307.1,490.5z"/>
			<path d="M255,408.6c-18.8,0-34.1,15.4-34.1,34.1s15.4,34.1,34.1,34.1s34.1-15.4,34.1-34.1S273.8,408.6,255,408.6z M255,459.8
				c-9.4,0-17.1-7.7-17.1-17.1s7.7-17.1,17.1-17.1s17.1,7.7,17.1,17.1S264.4,459.8,255,459.8z"/>
		</g>
	</g>
</g>
</svg>
