<?xml version="1.0" encoding="utf-8"?>
<!-- Generator: Adobe Illustrator 22.1.0, SVG Export Plug-In . SVG Version: 6.00 Build 0)  -->
<svg version="1.1" xmlns="http://www.w3.org/2000/svg" xmlns:xlink="http://www.w3.org/1999/xlink" x="0px" y="0px"
	 viewBox="0 0 436.5 436.9" style="enable-background:new 0 0 436.5 436.9;" xml:space="preserve">

<g id="Guides_For_Artboard">
</g>
<g id="Layer_3">
	<g>
		<path class="st0" d="M429,436.5H7.5c-4.1,0-7.5-3.4-7.5-7.5V7.5C0,3.4,3.4,0,7.5,0H429c4.1,0,7.5,3.4,7.5,7.5V429
			C436.5,433.2,433.2,436.5,429,436.5z M15,421.5h406.5V15H15V421.5z"/>
		<path class="st0" d="M147.9,436.9c-4.1,0-7.5-3.4-7.5-7.5v-415c0-4.1,3.4-7.5,7.5-7.5c4.1,0,7.5,3.4,7.5,7.5v415
			C155.4,433.5,152,436.9,147.9,436.9z"/>
		<path class="st0" d="M288.9,436.9c-4.1,0-7.5-3.4-7.5-7.5v-415c0-4.1,3.4-7.5,7.5-7.5s7.5,3.4,7.5,7.5v415
			C296.4,433.5,293,436.9,288.9,436.9z"/>
		<path class="st0" d="M425.4,300.4h-415c-4.1,0-7.5-3.4-7.5-7.5c0-4.1,3.4-7.5,7.5-7.5h415c4.1,0,7.5,3.4,7.5,7.5
			C432.9,297,429.5,300.4,425.4,300.4z"/>
		<path class="st0" d="M426.4,159.4h-415c-4.1,0-7.5-3.4-7.5-7.5c0-4.1,3.4-7.5,7.5-7.5h415c4.1,0,7.5,3.4,7.5,7.5
			C433.9,156,430.5,159.4,426.4,159.4z"/>
	</g>
</g>
</svg>
