<?xml version="1.0" encoding="utf-8"?>
<!-- Generator: Adobe Illustrator 22.1.0, SVG Export Plug-In . SVG Version: 6.00 Build 0)  -->
<svg version="1.1" id="Layer_2" xmlns="http://www.w3.org/2000/svg" xmlns:xlink="http://www.w3.org/1999/xlink" x="0px" y="0px"
	 viewBox="0 0 199 203" style="enable-background:new 0 0 199 203;" xml:space="preserve">
<g>
	<path class="st0" d="M194.5,194H4.5C2,194,0,196,0,198.5c0,2.5,2,4.5,4.5,4.5h190c2.5,0,4.5-2,4.5-4.5C199,196,197,194,194.5,194z"
		/>
	<path class="st0" d="M194.5,78.8h-74.3V60.1h74.3c2.5,0,4.5-2,4.5-4.5c0-2.5-2-4.5-4.5-4.5h-42.7v-5.2c0-9.1-7.4-16.6-16.6-16.6
		h-2.1C130.8,12.8,116.6,0,99.5,0C82.4,0,68.2,12.8,65.9,29.4h-2.1c-9.1,0-16.6,7.4-16.6,16.6v5.2H4.5c-2.5,0-4.5,2-4.5,4.5
		c0,2.5,2,4.5,4.5,4.5h74.3v18.8H4.5c-2.5,0-4.5,2-4.5,4.5c0,2.5,2,4.5,4.5,4.5h74.3v66.4c0,0.9,0.3,1.8,0.8,2.6l16.2,23.1
		c0.8,1.2,2.2,1.9,3.7,1.9c1.5,0,2.8-0.7,3.7-1.9l16.2-23.1c0.5-0.8,0.8-1.7,0.8-2.6V87.8h74.3c2.5,0,4.5-2,4.5-4.5
		C199,80.8,197,78.8,194.5,78.8z M95,9.4v6.2c0,2.5,2,4.5,4.5,4.5c2.5,0,4.5-2,4.5-4.5V9.4c10.1,1.9,18.1,9.8,20,20H75
		C76.9,19.3,84.9,11.3,95,9.4z M56.2,45.9c0-4.2,3.4-7.6,7.6-7.6h71.4c4.2,0,7.6,3.4,7.6,7.6v5.2H56.2V45.9z M111.2,152.8
		l-11.7,16.7l-11.7-16.7V60.1h23.4V152.8z"/>
	<path class="st0" d="M26.7,102.1H18c-2.5,0-4.5,2-4.5,4.5s2,4.5,4.5,4.5h8.7c2.5,0,4.5-2,4.5-4.5S29.2,102.1,26.7,102.1z"/>
	<path class="st0" d="M59.5,102.1h-8.7c-2.5,0-4.5,2-4.5,4.5s2,4.5,4.5,4.5h8.7c2.5,0,4.5-2,4.5-4.5S62,102.1,59.5,102.1z"/>
	<path class="st0" d="M34.3,119.3c-2.5,0-4.5,2-4.5,4.5c0,2.5,2,4.5,4.5,4.5h8.7c2.5,0,4.5-2,4.5-4.5c0-2.5-2-4.5-4.5-4.5H34.3z"/>
	<path class="st0" d="M18,145.4h8.7c2.5,0,4.5-2,4.5-4.5c0-2.5-2-4.5-4.5-4.5H18c-2.5,0-4.5,2-4.5,4.5
		C13.5,143.4,15.5,145.4,18,145.4z"/>
	<path class="st0" d="M59.5,136.4h-8.7c-2.5,0-4.5,2-4.5,4.5c0,2.5,2,4.5,4.5,4.5h8.7c2.5,0,4.5-2,4.5-4.5
		C64,138.4,62,136.4,59.5,136.4z"/>
	<path class="st0" d="M43.1,153.6h-8.7c-2.5,0-4.5,2-4.5,4.5c0,2.5,2,4.5,4.5,4.5h8.7c2.5,0,4.5-2,4.5-4.5
		C47.6,155.6,45.6,153.6,43.1,153.6z"/>
	<path class="st0" d="M18,179.8h8.7c2.5,0,4.5-2,4.5-4.5c0-2.5-2-4.5-4.5-4.5H18c-2.5,0-4.5,2-4.5,4.5
		C13.5,177.8,15.5,179.8,18,179.8z"/>
	<path class="st0" d="M50.7,179.8h8.7c2.5,0,4.5-2,4.5-4.5c0-2.5-2-4.5-4.5-4.5h-8.7c-2.5,0-4.5,2-4.5,4.5
		C46.2,177.8,48.2,179.8,50.7,179.8z"/>
	<path class="st0" d="M148.3,102.1h-8.7c-2.5,0-4.5,2-4.5,4.5s2,4.5,4.5,4.5h8.7c2.5,0,4.5-2,4.5-4.5S150.8,102.1,148.3,102.1z"/>
	<path class="st0" d="M181,102.1h-8.7c-2.5,0-4.5,2-4.5,4.5s2,4.5,4.5,4.5h8.7c2.5,0,4.5-2,4.5-4.5S183.5,102.1,181,102.1z"/>
	<path class="st0" d="M155.9,119.3c-2.5,0-4.5,2-4.5,4.5c0,2.5,2,4.5,4.5,4.5h8.7c2.5,0,4.5-2,4.5-4.5c0-2.5-2-4.5-4.5-4.5H155.9z"
		/>
	<path class="st0" d="M139.5,145.4h8.7c2.5,0,4.5-2,4.5-4.5c0-2.5-2-4.5-4.5-4.5h-8.7c-2.5,0-4.5,2-4.5,4.5
		C135,143.4,137,145.4,139.5,145.4z"/>
	<path class="st0" d="M181,136.4h-8.7c-2.5,0-4.5,2-4.5,4.5c0,2.5,2,4.5,4.5,4.5h8.7c2.5,0,4.5-2,4.5-4.5
		C185.5,138.4,183.5,136.4,181,136.4z"/>
	<path class="st0" d="M164.7,153.6h-8.7c-2.5,0-4.5,2-4.5,4.5c0,2.5,2,4.5,4.5,4.5h8.7c2.5,0,4.5-2,4.5-4.5
		C169.2,155.6,167.1,153.6,164.7,153.6z"/>
	<path class="st0" d="M139.5,179.8h8.7c2.5,0,4.5-2,4.5-4.5c0-2.5-2-4.5-4.5-4.5h-8.7c-2.5,0-4.5,2-4.5,4.5
		C135,177.8,137,179.8,139.5,179.8z"/>
	<path class="st0" d="M172.3,179.8h8.7c2.5,0,4.5-2,4.5-4.5c0-2.5-2-4.5-4.5-4.5h-8.7c-2.5,0-4.5,2-4.5,4.5
		C167.8,177.8,169.8,179.8,172.3,179.8z"/>
</g>
</svg>
