<?xml version="1.0" encoding="utf-8"?>
<!-- Generator: Adobe Illustrator 22.1.0, SVG Export Plug-In . SVG Version: 6.00 Build 0)  -->
<svg version="1.1" id="Layer_3" xmlns="http://www.w3.org/2000/svg" xmlns:xlink="http://www.w3.org/1999/xlink" x="0px" y="0px"
	 viewBox="0 0 344.7 381.3" style="enable-background:new 0 0 344.7 381.3;" xml:space="preserve">
<path class="st0" d="M58.5,381.3c-4.1,0-7.5-3.4-7.5-7.5V18.3c0-1.8-1.5-3.3-3.3-3.3H18.3c-1.8,0-3.3,1.5-3.3,3.3v355.5
	c0,4.1-3.4,7.5-7.5,7.5c-4.1,0-7.5-3.4-7.5-7.5V18.3C0,8.2,8.2,0,18.3,0h29.3C57.8,0,66,8.2,66,18.3v355.5
	C66,378,62.6,381.3,58.5,381.3z"/>
<path class="st0" d="M337.2,381.3c-4.1,0-7.5-3.4-7.5-7.5V18.3c0-1.8-1.5-3.3-3.3-3.3H297c-1.8,0-3.3,1.5-3.3,3.3v355.5
	c0,4.1-3.4,7.5-7.5,7.5c-4.1,0-7.5-3.4-7.5-7.5V18.3C278.7,8.2,286.9,0,297,0h29.3c10.1,0,18.3,8.2,18.3,18.3v355.5
	C344.7,378,341.3,381.3,337.2,381.3z"/>
<path class="st0" d="M285.4,78.6h-227c-4.1,0-7.5-3.4-7.5-7.5s3.4-7.5,7.5-7.5h227c4.1,0,7.5,3.4,7.5,7.5S289.6,78.6,285.4,78.6z"/>
<path class="st0" d="M285.4,123.6h-227c-4.1,0-7.5-3.4-7.5-7.5s3.4-7.5,7.5-7.5h227c4.1,0,7.5,3.4,7.5,7.5S289.6,123.6,285.4,123.6z
	"/>
<path class="st0" d="M285.4,185.6h-227c-4.1,0-7.5-3.4-7.5-7.5c0-4.1,3.4-7.5,7.5-7.5h227c4.1,0,7.5,3.4,7.5,7.5
	C292.9,182.2,289.6,185.6,285.4,185.6z"/>
<path class="st0" d="M285.4,230.6h-227c-4.1,0-7.5-3.4-7.5-7.5c0-4.1,3.4-7.5,7.5-7.5h227c4.1,0,7.5,3.4,7.5,7.5
	C292.9,227.2,289.6,230.6,285.4,230.6z"/>
<path class="st0" d="M285.4,292.6h-227c-4.1,0-7.5-3.4-7.5-7.5c0-4.1,3.4-7.5,7.5-7.5h227c4.1,0,7.5,3.4,7.5,7.5
	C292.9,289.2,289.6,292.6,285.4,292.6z"/>
<path class="st0" d="M285.4,337.6h-227c-4.1,0-7.5-3.4-7.5-7.5c0-4.1,3.4-7.5,7.5-7.5h227c4.1,0,7.5,3.4,7.5,7.5
	C292.9,334.2,289.6,337.6,285.4,337.6z"/>
</svg>
