<?xml version="1.0" encoding="utf-8"?>
<!-- Generator: Adobe Illustrator 22.1.0, SVG Export Plug-In . SVG Version: 6.00 Build 0)  -->
<svg version="1.1" id="Layer_1" xmlns="http://www.w3.org/2000/svg" xmlns:xlink="http://www.w3.org/1999/xlink" x="0px" y="0px"
	 viewBox="0 0 512 324.3" style="enable-background:new 0 0 512 324.3;" xml:space="preserve">
<g transform="translate(1 1)">
	<g>
		<g>
			<path d="M415.1,186.7H127H75.8H45.1c-20.5,0-37.5,17.1-37.5,37.5v61.4c0,20.5,17.1,37.5,37.5,37.5h30.7H127h290.1
				c2.7,0,4.9-1,6.4-2.6l84-58.8c1.7-1.7,3.4-4.3,3.4-6.8s-1.7-5.1-4.3-6.8l-82.3-57.6c-1.4-2.4-4-3.9-7.3-3.9h0
				C416.5,186.6,415.8,186.6,415.1,186.7z M408.6,306.2H135.5v-42.7h273.1V306.2z M118.5,203.8V255v51.2H84.3V203.8L118.5,203.8
				L118.5,203.8z M135.5,246.5v-42.7h273.1v42.7L135.5,246.5L135.5,246.5z M45.1,306.2c-11.1,0-20.5-9.4-20.5-20.5v-61.4
				c0-11.1,9.4-20.5,20.5-20.5h22.2v102.4C67.3,306.2,45.1,306.2,45.1,306.2z M488,255l-62.3,43.5V255v-43.5L488,255z"/>
			<path d="M-1,24.6v85.3c0,14.5,11.1,25.6,25.6,25.6h465.9c11.1,0,20.5-9.4,20.5-20.5V18.6C511,7.5,501.6-1,490.5-1H24.6
				C10.1-1-1,10.1-1,24.6z M490.5,15.2c1.7,0,3.4,1.7,3.4,3.4v96.4c0,1.7-1.7,3.4-3.4,3.4H383V92.9c0-5.1-3.4-8.5-8.5-8.5
				s-8.5,3.4-8.5,8.5v25.6h-17.1V75.8c0-5.1-3.4-8.5-8.5-8.5s-8.5,3.4-8.5,8.5v42.7h-17.1V92.9c0-5.1-3.4-8.5-8.5-8.5
				s-8.5,3.4-8.5,8.5v25.6h-17.1V75.8c0-5.1-3.4-8.5-8.5-8.5s-8.5,3.4-8.5,8.5v42.7h-17.1V92.9c0-5.1-3.4-8.5-8.5-8.5
				s-8.5,3.4-8.5,8.5v25.6h-17.1V75.8c0-5.1-3.4-8.5-8.5-8.5c-5.1,0-8.5,3.4-8.5,8.5v42.7h-17.1V92.9c0-5.1-3.4-8.5-8.5-8.5
				s-8.5,3.4-8.5,8.5v25.6h-17.1V75.8c0-5.1-3.4-8.5-8.5-8.5s-8.5,3.4-8.5,8.5v42.7h-17.1V92.9c0-5.1-3.4-8.5-8.5-8.5
				s-8.5,3.4-8.5,8.5v25.6H75.8V75.8c0-5.1-3.4-8.5-8.5-8.5s-8.5,3.4-8.5,8.5v42.7H24.6c-5.1,0-8.5-3.4-8.5-8.5V23.7
				c0-5.1,3.4-8.5,8.5-8.5L490.5,15.2L490.5,15.2z"/>
			<path d="M408.6,67.3c0,18.8,15.4,34.1,34.1,34.1s34.1-15.4,34.1-34.1s-15.4-34.1-34.1-34.1S408.6,48.5,408.6,67.3z M459.8,67.3
				c0,9.4-7.7,17.1-17.1,17.1s-17.1-7.7-17.1-17.1s7.7-17.1,17.1-17.1S459.8,57.9,459.8,67.3z"/>
		</g>
	</g>
</g>
</svg>
