<?xml version="1.0" encoding="utf-8"?>
<!-- Generator: Adobe Illustrator 22.1.0, SVG Export Plug-In . SVG Version: 6.00 Build 0)  -->
<svg version="1.1" id="Layer_1" xmlns="http://www.w3.org/2000/svg" xmlns:xlink="http://www.w3.org/1999/xlink" x="0px" y="0px"
	 viewBox="0 0 512 347.7" style="enable-background:new 0 0 512 347.7;" xml:space="preserve">
<path d="M373.5,99.2v105.9c0,4.1,3.4,7.5,7.5,7.5c4.1,0,7.5-3.4,7.5-7.5v-35H467c2.3,0,4.4-1,5.9-2.8c1.4-1.8,2-4.1,1.5-6.3
	l-14.3-63.4c-0.8-3.4-3.8-5.9-7.3-5.9H381C376.8,91.8,373.5,95.1,373.5,99.2z M388.5,106.8h58.3l10.9,48.4h-69.2V106.8z"/>
<path d="M0,22.5l0,167.7c0,6,2.3,11.7,6.6,15.9c4.3,4.3,9.9,6.6,15.9,6.6h6v60c0,11.7,9,21.4,20.5,22.4c3.7,29.6,29,52.6,59.5,52.6
	c30.5,0,55.8-22.9,59.5-52.5h175.9c3.7,29.6,29,52.5,59.5,52.5c30.5,0,55.8-22.9,59.5-52.5h34c8.3,0,15-6.7,15-15v-15
	c0-5.9-3.5-11.1-8.5-13.5v-69c0-13.8-1.5-27.7-4.6-41.2L487.6,91c-3.9-17.2-18.9-29.3-36.6-29.3h-92.5V22.5c0-6-2.4-11.7-6.6-15.9
	C347.6,2.4,342,0,335.9,0L22.5,0c-6,0-11.7,2.4-15.9,6.6C2.3,10.8,0,16.5,0,22.5z M459.1,265.2H497v15h-34
	C462.3,275,461,270,459.1,265.2z M358.5,287.7c0-24.8,20.2-45,45-45c24.6,0,45,20,45,45c0,24.8-20.2,45-45,45
	C378.6,332.7,358.5,312.5,358.5,287.7z M358.5,76.8H451c10.6,0,19.6,7.2,22,17.6l11.4,50.5c2.8,12.4,4.2,25.1,4.2,37.9v67.5h-38.3
	c-11.4-14.2-28.6-22.5-46.8-22.5c-17.9,0-34,7.9-45,20.4L358.5,76.8z M63.5,287.7c0-24.8,20.2-45,45-45s45,20.2,45,45
	s-20.2,45-45,45S63.5,312.5,63.5,287.7z M15,22.5c0-4.1,3.4-7.5,7.5-7.5h313.4c4.1,0,7.5,3.4,7.5,7.5l0,257.7H168
	c-3.7-29.6-29-52.5-59.5-52.5c-30.4,0-55.7,22.8-59.5,52.2c-3.2-0.9-5.5-3.8-5.5-7.2v-60h277.4c4.1,0,7.5-3.4,7.5-7.5
	c0-4.1-3.4-7.5-7.5-7.5H22.5c-4.1,0-7.5-3.4-7.5-7.5V22.5z"/>
<path d="M383.4,275.1c4,1,6.5,5,5.5,9.1c-0.3,1.2-0.4,2.4-0.4,3.6c0,8.3,6.8,15,15,15c8.3,0,15-6.8,15-15c0-8.3-6.8-15-15-15
	c-4.1,0-7.5-3.4-7.5-7.5s3.3-7.5,7.5-7.5c0,0,0,0,0,0c16.6,0,30,13.4,30,30c0,16.6-13.4,30-30,30c-16.6,0-30-13.4-30-30
	c0-2.4,0.3-4.8,0.8-7.1C375.3,276.6,379.3,274.1,383.4,275.1z"/>
<path d="M88.4,275.1c4,1,6.5,5,5.5,9.1c-0.3,1.1-0.4,2.3-0.4,3.6c0,8.3,6.8,15,15,15c8.3,0,15-6.8,15-15c0-8.3-6.7-15-15-15
	c-4.1,0-7.5-3.4-7.5-7.5s3.4-7.5,7.5-7.5c0,0,0,0,0,0c16.6,0,30,13.4,30,30c0,8-3.1,15.5-8.8,21.2c-5.7,5.7-13.2,8.8-21.2,8.8
	c-8,0-15.6-3.1-21.2-8.8c-5.7-5.7-8.8-13.2-8.8-21.2c0-2.4,0.3-4.8,0.8-7.1C80.3,276.5,84.4,274.1,88.4,275.1z"/>
</svg>
