<?xml version="1.0" encoding="utf-8"?>
<!-- Generator: Adobe Illustrator 22.1.0, SVG Export Plug-In . SVG Version: 6.00 Build 0)  -->
<svg version="1.1" id="Layer_1" xmlns="http://www.w3.org/2000/svg" xmlns:xlink="http://www.w3.org/1999/xlink" x="0px" y="0px"
	 viewBox="0 0 200.8 91.8" style="enable-background:new 0 0 200.8 91.8;" xml:space="preserve" fill="#fff">
<g>
	<path class="st0" d="M177.4,27.9c-0.1,0-0.2-0.1-0.2-0.1l-0.2-0.1l0.1,0.1l0,0l0,0L177.4,27.9C177.5,27.9,177.5,27.9,177.4,27.9
		c0.1,0.1,0.2,0.1,0.2,0.1l0,0C177.6,28,177.5,27.9,177.4,27.9L177.4,27.9z"/>
	<path class="st0" d="M176.2,27.3l-0.3-0.2c0.1,0,0.1,0.1,0.2,0.1C176.1,27.2,176.2,27.2,176.2,27.3c0.1,0,0.2,0.1,0.3,0.2
		C176.4,27.4,176.3,27.3,176.2,27.3L176.2,27.3z"/>
	<path class="st0" d="M175.6,26.9l-0.2-0.1l-0.2-0.1c-0.2-0.1-0.3-0.1-0.5-0.2c0,0-0.1,0-0.1-0.1c0.1,0.1,0.3,0.1,0.3,0.1l-0.1,0
		c0.1,0,0.1,0.1,0.2,0.1l0.1,0c0,0,0.1,0,0.1,0.1l0,0C175.3,26.8,175.4,26.9,175.6,26.9L175.6,26.9l0.3,0.2
		C175.8,27,175.7,27,175.6,26.9L175.6,26.9z"/>
	<path class="st0" d="M193.4,48.3c0-0.2-0.1-0.3-0.1-0.5L193.4,48.3C193.5,48.3,193.5,48.3,193.4,48.3
		C193.5,48.3,193.5,48.4,193.4,48.3L193.4,48.3L193.4,48.3z"/>
	<path class="st0" d="M193.1,47.2l-0.2-0.6c-0.1-0.3-0.2-0.7-0.4-1.1l-0.1-0.3l-0.3-0.8c0.4,0.8,0.5,1.2,0.8,2.2l0.2,0.8L193.1,47.2
		L193.1,47.2z"/>
	<path class="st0" d="M180.9,30c-0.4-0.3-0.8-0.6-1.3-0.9l0,0C180,29.4,180.4,29.7,180.9,30C180.9,30,180.9,30,180.9,30L180.9,30z"
		/>
	<path class="st0" d="M179.3,29C179.3,29,179.3,29,179.3,29L179.3,29C179.2,28.9,179.2,28.9,179.3,29L179.3,29c0,0,0.1,0,0.2,0.1
		l0.1,0.1C179.5,29.1,179.4,29,179.3,29L179.3,29z"/>
	<polygon class="st0" points="179.4,29.1 179.4,29.1 179.4,29.1 179.4,29.1 	"/>
	<path class="st0" d="M179.3,29c0.5,0.3,1,0.7,1.5,1C180.4,29.7,179.8,29.3,179.3,29L179.3,29z"/>
	<polygon class="st0" points="194.4,53.8 194.4,53.8 194.4,53.8 194.4,53.8 	"/>
	<path class="st0" d="M194.5,54.5L194.5,54.5L194.5,54.5C194.5,54.5,194.5,54.5,194.5,54.5L194.5,54.5z"/>
	<path class="st0" d="M194.5,54.5L194.5,54.5c0,0,0-0.1,0-0.1v0C194.5,54.4,194.5,54.4,194.5,54.5L194.5,54.5L194.5,54.5z"/>
	<path class="st0" d="M194.4,54.2C194.4,54.2,194.4,54.2,194.4,54.2c0-0.1,0-0.1,0-0.2C194.4,54.1,194.4,54.1,194.4,54.2L194.4,54.2
		L194.4,54.2z"/>
	<path class="st0" d="M194.4,53.9C194.4,53.9,194.4,54,194.4,53.9C194.4,54,194.4,53.9,194.4,53.9L194.4,53.9z"/>
	<path class="st0" d="M194.2,52l0-0.3l0.1,0.5v0c0,0.1,0,0.2,0,0.3c0,0,0,0,0,0C194.2,52.3,194.2,52.1,194.2,52L194.2,52z"/>
	<path class="st0" d="M193.4,48.4C193.5,48.3,193.5,48.3,193.4,48.4c0,0.1,0.1,0.2,0.1,0.3L193.4,48.4L193.4,48.4z"/>
	<path class="st0" d="M139.9,32c-0.2,0.2-0.5,0.4-0.7,0.6C139.4,32.4,139.6,32.2,139.9,32L139.9,32z"/>
	<path class="st0" d="M149.1,31.2c0,0,0.1-0.1,0.1-0.1c0-0.1,0.1-0.2,0.1-0.2l-0.2,0l-0.3,0.1l-0.2,0.3c0.1,0,0.2,0,0.3,0
		L149.1,31.2L149.1,31.2z"/>
	<path class="st0" d="M148.5,30.8L148.5,30.8l0.1-0.1C148.6,30.7,148.5,30.7,148.5,30.8c-0.1,0-0.1,0-0.2,0c0,0-0.1,0-0.3,0.1
		c0,0-0.1,0-0.1,0.1c0,0,0,0.1,0,0.1c0,0,0.1,0,0.1,0C148.3,31,148.5,30.8,148.5,30.8L148.5,30.8z"/>
	<path class="st0" d="M154.2,26.2l0.3-0.1l0-0.1l-0.3,0c-0.1,0-0.1,0-0.2,0l-0.2,0.2l-0.2,0.1l0.3,0L154.2,26.2L154.2,26.2z"/>
	<path class="st0" d="M178.6,28.6c-0.1-0.1-0.2-0.1-0.3-0.2l-0.1,0c0.1,0,0.1,0.1,0.2,0.1c0.1,0.1,0.3,0.2,0.4,0.3l0,0
		c0,0-0.1-0.1-0.1-0.1l0,0C178.6,28.6,178.6,28.6,178.6,28.6L178.6,28.6z"/>
	<path class="st0" d="M177.1,27.7c-0.1-0.1-0.2-0.1-0.3-0.2c0.1,0,0.1,0.1,0.2,0.1c-0.1,0-0.1-0.1-0.2-0.1l0,0c0,0,0.1,0,0.1,0.1
		l0,0c-0.3-0.1-0.5-0.3-0.7-0.4l0,0c-0.2-0.1-0.4-0.2-0.6-0.3l1.4,0.7L177.1,27.7L177.1,27.7L177.1,27.7z"/>
	<path class="st0" d="M177.5,27.9C177.4,27.9,177.4,27.8,177.5,27.9l-0.1-0.1l-0.2-0.1L177.5,27.9L177.5,27.9L177.5,27.9z"/>
	<path class="st0" d="M167.6,24.4c-0.1,0-0.2-0.1-0.3-0.1l0,0l0,0c-0.3-0.1-0.4-0.1-0.4-0.1c0.1,0,0.2,0,0.3,0.1l-0.1,0l-0.2,0l0,0
		c0,0-0.1,0-0.1,0c0,0,0.1,0,0.1,0l0,0l-0.1,0l0,0c0.3,0.1,0.4,0.1,0.5,0.1c-0.2,0-0.4-0.1-0.6-0.1c0,0,0.2,0.1,0.4,0.1l0,0
		c0,0,0.1,0,0.1,0l0,0c0,0,0.2,0,0.2,0c0,0-0.1,0-0.1,0C167.4,24.5,167.5,24.5,167.6,24.4c0,0.1,0.1,0.1,0.1,0.1l0.1,0
		c0.1,0,0.2,0.1,0.3,0c-0.1,0-0.1,0-0.2,0c0,0,0.1,0,0.1,0C167.9,24.5,167.8,24.5,167.6,24.4L167.6,24.4L167.6,24.4L167.6,24.4z"/>
	<polygon class="st0" points="167.6,24.5 167.6,24.5 167.6,24.5 167.6,24.5 	"/>
	<path class="st0" d="M169.7,25L169.7,25c-0.3-0.1-0.5-0.1-0.6-0.2c0,0-0.1,0-0.1,0c-0.2-0.1-0.4-0.1-0.6-0.2c0,0-0.3-0.1-0.4-0.1
		l0.1,0c0,0,0,0-0.2,0c-0.1,0-0.1,0-0.2-0.1c-0.2,0-0.4-0.1-0.7-0.1l0,0c0.1,0,0.2,0,0.2,0.1c0,0,0.1,0,0.1,0
		c0.3,0.1,0.3,0.1,0.4,0.1c0,0,0,0-0.3-0.1c0,0-0.1,0-0.1,0c0,0-0.1,0-0.1,0c0,0-0.1,0-0.1,0c-0.1,0-0.1,0-0.2,0
		c0.1,0,0.1,0,0.2,0.1h0c0,0-0.1,0-0.1,0c-0.1,0-0.1,0-0.2-0.1c0,0,0.1,0,0.1,0c0,0-0.1,0-0.1,0l0,0c0.4,0.1,0.7,0.2,1.1,0.3
		c-0.2,0-0.3-0.1-0.4-0.1c0.2,0.1,0.4,0.1,0.6,0.2c0,0,0,0-0.2-0.1c0.1,0,0.3,0.1,0.4,0.1l0,0l0,0c0,0-0.2-0.1-0.3-0.1
		c0,0-0.1,0-0.1,0l0,0c0.1,0,0.1,0,0.3,0.1l0.1,0l-0.1,0l0.1,0c0.1,0,0.1,0,0.2,0.1l0.1,0c0,0,0,0,0,0l0,0l-0.1,0l0,0c0,0,0,0,0,0
		c0,0,0,0,0.1,0c0.1,0,0.1,0,0.2,0.1l0,0l0,0c0.1,0,0.1,0,0.1,0c0,0,0,0-0.1-0.1l0,0c0.1,0,0.1,0,0.3,0.1l0,0c-0.1,0-0.1,0-0.1,0
		c0,0,0.3,0.1,0.4,0.1c0.1,0,0.2,0,0.6,0.2l0,0c0,0-0.6-0.2-0.6-0.3l0,0c-0.1,0-0.3-0.1-0.4-0.1l0,0c0,0,0,0-0.5-0.2
		c0,0,0.1,0,0.1,0c0.6,0.2,0.6,0.2,1.1,0.3l0,0c0,0-0.1,0-0.1-0.1C169.5,25,169.5,25,169.7,25l0.1,0.1
		C169.8,25.1,169.8,25.1,169.7,25C169.7,25,169.7,25,169.7,25L169.7,25L169.7,25z"/>
	<path class="st0" d="M194.1,51.5c-0.2-1.1-0.4-2.2-0.7-3.3c-0.1-0.1-0.3-0.2-0.6-0.2c-0.4-0.1-1.1-0.2-1.9-0.3c0,0,0.1,0.5,0,0.6
		l0,0.1l0,0l0,0c0,0-0.1,0-0.1,0l0,0l0,0l0,0l0,0l0-0.1l0-0.1c0,0-0.1,0-0.1,0c0,0-0.2,0-0.2-0.1l0,0l0,0l0,0.1
		c0.1,0.1,0.1,0.1,0.2,0.1c0.1,0.1,0.1,0.1,0.1,0.1l0,0.1c0,0,0.1,0.1,0.1,0.1c0,0,0,0.1,0,0.2l0,0.1l0,0.1c0,0.3,0.2,0.5,0.3,0.7
		c0.1,0.3,0.1,0.3,0.2,0.4c0,0,0,0,0.1,0l0.1,0c0-0.1,0-0.2,0-0.2l0,0.1c0.6,1.5,0.6,1.5,0.6,1.7c0,0,0,0.1,0,0.1
		c0,0.6,0.4,1.1,0.5,1.7c0.1,0.3-0.1,0.7,0.1,1c0.1,0.3,0.2,0.5,0.3,0.7l0,0.1l0.3,2.2c0,0.4,0,0.7-0.1,1c0,0.2,0.1,0.4,0.1,0.5
		c0,0,0.1,0,0.1,0c0.1-0.1,0.1-0.3,0.1-0.4c0.1,0,0.1,0,0.2,0l0,0l0,0.1c0-0.1,0-0.1,0.1-0.2c0-0.2,0.1-0.4,0.3-0.5
		c0-0.1,0-0.1,0-0.2c0-0.1,0.2-0.7,0.2-0.7l0.1,0.1c0-0.4,0-0.6,0-0.6l0,0c0-0.2,0-0.3,0-0.5c0-1-0.1-2-0.2-3l0,0.1
		c0-0.2,0-0.3-0.1-0.5c0-0.2,0-0.4-0.1-0.6c0-0.1,0-0.1,0-0.2c0,0.2,0,0.2,0.1,0.9l0,0l0,0c0,0,0-0.1,0-0.1l0,0c0,0.1,0,0.2,0,0.3
		c-0.1-0.1-0.1-0.5-0.1-0.5l0-0.1c0,0,0,0,0,0c0,0,0,0.1,0.1,0.1c0-0.1,0-0.1,0-0.2l0,0l0,0c0-0.1,0-0.1-0.1-0.2c0,0,0,0,0,0
		c0-0.2-0.1-0.4-0.1-0.5c-0.2-0.7-0.5-1.3-0.5-2c0,0,0.2,0,0.4,1c0.2,0.6,0.3,0.9,0.3,1l0,0l0,0l0-0.1c0,0,0,0,0,0
		C194.1,51.4,194.1,51.4,194.1,51.5L194.1,51.5L194.1,51.5z"/>
	<path class="st0" d="M193.4,48.3c-1.1-4.4-3.2-8.4-5.9-11.8l0.8,1c1,1.4,1,1.4,2.6,4.3c0.8,1.5,0.8,1.5,2,4.7L193.4,48.3
		L193.4,48.3L193.4,48.3z"/>
	<path class="st0" d="M181.2,33.2c0.1,0,0.2,0,0.2,0l-0.1,0l0,0l0,0C181.3,33.2,181.3,33.2,181.2,33.2l0-0.1l0,0l0,0l0,0l0,0l0,0
		L181.2,33.2L181.2,33.2L181.2,33.2L181.2,33.2z"/>
	<path class="st0" d="M175.6,27.7c-0.1-0.1-0.2-0.1-0.4-0.2l0,0l0,0l0,0h0l-0.1,0l0,0C175.3,27.6,175.4,27.7,175.6,27.7
		C175.5,27.7,175.6,27.7,175.6,27.7L175.6,27.7z"/>
	<path class="st0" d="M181.4,33.2c1.6,0.1,2.8,0.3,3.4,0.4c0.2,0.1,0.4,0.1,0.4,0.2l-0.2-0.2c-2.5-2.3-2.5-2.3-3.8-3.3l-1.8-1.3l0,0
		c-0.1-0.1-0.4-0.3-0.6-0.4c0.1,0.1,0.1,0.1,0.3,0.2v0l0.1,0.1l0,0c0.3,0.2,0.6,0.3,0.8,0.6l0,0c-0.2-0.1-0.4-0.3-0.7-0.4l0,0
		c-0.1-0.1-0.2-0.1-0.3-0.2c-0.1-0.1-0.1-0.1-0.1-0.1c-0.1-0.1-0.2-0.1-0.3-0.2l0,0c-0.1-0.1-0.1-0.1-0.2-0.1c0,0,0,0,0,0
		c0,0,0.1,0.1,0.2,0.1c0,0,0.1,0,0.1,0c0.2,0.1,0.3,0.2,0.5,0.3c0.3,0.2,0.3,0.2,0.3,0.2c0.1,0,0.1,0.1,0.3,0.2c0,0,0,0,0.1,0
		c0.1,0.1,0.3,0.2,0.4,0.3c0,0-0.1,0-0.1,0c-0.1,0-0.1-0.1-0.1-0.1c0,0-0.1,0-0.1-0.1l0,0c0.1,0.1,0.2,0.2,0.3,0.3v0
		c0.2,0.2,0.4,0.3,0.7,0.5l0,0c-0.1,0-0.1,0-0.2-0.1l0,0c-0.1,0-0.3-0.1-0.5-0.3c0.2,0.2,0.2,0.2,0.4,0.3c0.1,0.1,0.1,0.1,0.1,0.1
		c0,0,0,0,0.1,0c0.1,0,0.2,0.1,0.3,0.2c0,0,0,0-0.1,0l0,0c-0.2,0-0.7-0.4-0.9-0.6c-0.1,0-0.1,0-0.1,0l-0.3-0.2
		c-0.4-0.3-0.9-0.6-1.4-0.9c0.2,0.1,0.8,0.4,0.8,0.4c0.1,0,0.1,0,0.2,0c0.1,0,0.2,0.1,0.3,0.1c0,0,0,0,0,0l0,0c0,0,0-0.1,0-0.1
		c-0.6-0.6-1.6-1-1.8-1.1c-0.1-0.1-0.1-0.1-0.2-0.1c-0.1-0.1-0.1-0.1-0.2-0.1c0,0,0,0,0,0c-0.1-0.1-0.2-0.1-0.3-0.2l-0.1,0
		c0.1,0.1,0.1,0.1,0.2,0.1c0,0,0,0,0,0c-0.1,0-0.1,0-0.3-0.2c0,0,0,0-0.1,0c-0.1-0.1-0.1-0.1-0.3-0.2l-0.1,0l0,0c0,0,0,0-0.3-0.1
		c-0.1,0-0.1-0.1-0.1-0.1l0.1,0c0,0-0.1-0.1-0.1-0.1c-0.4-0.2-0.6-0.2-0.6-0.2c0.1,0,0.2,0.1,0.2,0.1c-0.1,0-0.2-0.1-0.2-0.1
		c0,0-0.1,0-0.1-0.1c-0.1,0-0.1-0.1-0.1-0.1c-0.1,0-0.1,0-0.2,0c0.2,0.1,0.2,0.1,0.3,0.2c0,0,0.1,0,0.1,0.1l0.1,0l0,0
		c-0.2-0.1-0.2-0.1-0.4-0.2c-0.1,0-0.1,0-0.1,0l-0.2-0.1l-0.1,0l0,0l0,0l0,0c0.1,0.1,0.1,0.1,0.2,0.1l0,0c0,0-0.1,0-0.2-0.1
		c-0.1,0-0.1,0-0.1,0l0,0c0.1,0.1,0.2,0.2,0.4,0.2c0.1,0,0.1,0.1,0.2,0.1l-0.1,0c-0.1,0-0.2,0-0.3-0.1c0,0,0,0-0.1,0
		c0.3,0.2,0.3,0.2,0.3,0.2c-0.2-0.1-0.5-0.2-0.7-0.3c0,0,0,0.1,0.1,0.1c0,0,0.4,0.2,0.4,0.3c-0.1,0-0.1,0-0.3-0.1l0,0.1l0,0
		c0,0,0.1,0.1,0.1,0.1c0.1,0.1,0.2,0.1,0.2,0.1c0,0,0.1,0.1,0.1,0.1l0,0c-0.1,0-0.5-0.3-0.6-0.3c0,0.1,0.1,0.1,0.2,0.2
		c0,0-0.1,0-0.1,0c0,0,0,0,0.2,0.1c0,0-0.1,0-0.1,0c0,0,0,0.1,0,0.1l0,0c0,0,0.1,0.1,0.1,0.1l0,0l0,0c0,0,0.1,0,0.1,0
		c0,0,0-0.1,0-0.1l0.1,0l0-0.1c0,0,0.1-0.1,0.1-0.1c0.2,0,0.2,0,0.3,0.1c0,0-0.1,0-0.1,0l0,0l-0.1,0c0,0.1,0.3,0.4,0.3,0.4l-0.1,0
		c0,0,0.4,0.7,0.5,0.8l-0.1-0.1c0,0.1,0,0.1,0,0.2c0,0-0.1,0-0.1,0.1c0,0,0.1,0.1,0.1,0.1l0.1,0c0.1,0,0.1,0,0.1,0
		c0.1,0.1,0.1,0.1,0.1,0.1c0,0,0,0.1,0,0.1l-0.1,0c0,0.1,0,0.1,0,0.1c0,0.1,0,0.1,0.1,0.2l0,0c0,0-0.1,0-0.1-0.1c-0.1,0-0.1,0-0.1,0
		l0.1,0.1c0,0,0.1,0.1,0.1,0.1l0,0.1l-0.1,0c0,0,0,0,0,0h0l0,0h0l0,0c0,0.1,0,0.1-0.1,0.1H176l0,0.1c0.1,0.1,0.2,0.2,0,0.2
		c0,0,0,0.1,0,0.1c0.1,0.1,0.1,0.1,0.2,0.2l0,0c0.1,0.1,0.2,0.2,0.3,0.3c0,0,0,0,0,0l0,0.1c0,0.1,0.1,0.1,0.1,0.2c0,0,0.1,0,0.1,0
		c0.2,0,0.2,0.1,0.2,0.1l0,0.1c0,0,0.1,0.1,0.1,0.1l0,0c0.1,0.1,0.1,0.1,0.3,0.2c0.1,0.1,0.1,0.1,0.1,0.2l0,0.1c0.3,0,0.7,0,1,0.1
		c0-0.1,0-0.1,0-0.2l0,0l0.1,0c0-0.1,0-0.1-0.1-0.2c0.2,0,0.4,0.4,0.4,0.4c0.6,0,1.1,0.1,1.6,0.1l0-0.1l0.1,0c0-0.1-0.1-0.4-0.1-0.4
		c0,0-0.1-0.1-0.1-0.1c-0.1-0.1-0.1-0.1-0.3-0.1c-0.1-0.2-0.4-0.2-0.5-0.4c-0.2-0.2-0.3-0.4-0.5-0.6c0-0.2-0.2-0.3-0.2-0.5l0.1,0
		c0-0.1,0-0.1-0.1-0.2c0,0,0.1,0,0.1,0c-0.1-0.1-0.1-0.1-0.1-0.2l0-0.1l0.1,0c0-0.3-0.4-0.3-0.6-0.5l0-0.1c-0.1-0.1-0.2-0.2-0.2-0.2
		c0,0,0.1,0,0.1,0c0,0,0,0,0,0h0l0,0h0c0.1,0,0.2,0.1,0.3,0.2l0-0.1c0.1,0,0.1,0,0.3,0.2c0.1,0.1,0.2,0.2,0.2,0.2c0,0-0.1,0-0.1,0
		c0.4,0.3,0.4,0.3,0.4,0.5c0,0-0.1,0-0.1,0l0,0c0.4,0.7,0.4,0.7,0.9,1.1c0.1,0.1,0.1,0.1,0.1,0.1c0,0,0.7,0.5,1.1,0.7l0,0
		c0,0,0-0.1,0-0.1c0.1,0,0.2,0,0.2,0c0,0,0-0.1,0-0.1c0.1,0,0.2,0,0.3,0l0-0.1c0,0,0,0,0,0c0.1,0.1,0.2,0.1,0.2,0.2
		c0.1,0,0.1,0,0.2,0l0.1,0.1l0,0c0,0,0,0-0.2,0c0,0.1,0,0.1,0.1,0.4c-0.1,0-0.2-0.1-0.4-0.2l0,0c-0.1,0-0.1,0-0.2,0l0,0l0,0.1
		c0,0-0.1,0-0.1,0l0,0C181.4,33.1,181.4,33.2,181.4,33.2L181.4,33.2L181.4,33.2z"/>
	<path class="st0" d="M178.2,33c-0.3,0-0.6,0-1-0.1l0,0c0,0,0,0,0,0.1c0,0,0.1,0,0.1,0.1l0,0.1c0.2,0,0.2,0,0.2,0l0,0
		c0,0,0,0,0.2,0.1l0.1,0c0.1,0,0.1,0.1,0.2,0.1c0,0,0.1,0,0.1-0.1l0,0c0.1,0,0.1,0,0.1,0l0-0.1C178.2,33.1,178.2,33.1,178.2,33
		L178.2,33L178.2,33z"/>
	<path class="st0" d="M180.2,33.1c-0.5,0-1-0.1-1.5-0.1c0.1,0.1,0.2,0.2,0.3,0.3l0,0l0,0.1c0,0,0.1,0.2,0.2,0.2
		c0.2,0.1,0.2,0.1,0.3,0.2l0.1,0.1l0.1,0.1c0.1,0.2,0.3,0.3,0.4,0.3c0,0,0.1,0,0.1,0.1c0,0.1,0,0.1,0.1,0.2l0,0
		c0,0.1,0.1,0.1,0.1,0.2c0.1,0,0.3,0,0.4,0c-0.2-0.3-0.2-0.3-0.1-0.3c0,0,0,0,0.1,0l0.1,0c0.1,0,0.1,0.1,0.2,0.1c0,0,0-0.1,0-0.1
		c0,0,0,0,0.1,0c0-0.1-0.1-0.2-0.2-0.2c0.1,0,0.1,0,0.2,0c-0.1-0.1-0.1-0.1-0.1-0.2c0,0-0.1,0-0.1,0c-0.1,0-0.1-0.1-0.2-0.1
		c0,0,0-0.1,0-0.1c-0.1-0.2-0.2-0.3-0.3-0.5L180.2,33.1L180.2,33.1L180.2,33.1L180.2,33.1z"/>
	<path class="st0" d="M193.4,48.3c-1.1-4.4-3.2-8.4-5.9-11.8c-0.7-0.8-1.6-1.9-2.3-2.6c-0.1-0.1-0.2-0.1-0.4-0.2
		c-0.6-0.1-1.8-0.3-3.4-0.4c-0.1,0-0.2,0-0.2,0c0.1,0,0.1,0,0.1,0h0l0,0h0l0.1,0.1c-0.1,0-0.1,0-0.2,0.1c0.1,0.2,0.2,0.2,0.4,0.2
		c0-0.1,0-0.1,0-0.2c0.3,0,0.7,0.5,0.7,0.5c-0.1,0.1-0.1,0.1,0.1,0.3c0,0.1,0,0.1,0,0.1c0,0,0,0-0.4-0.3l0,0c0,0-0.1-0.1-0.1-0.2
		c0,0-0.1,0-0.1,0c0.3,0.7,0.4,1,0.8,1.3l0,0.1c-0.4-0.1-0.4-0.1-0.5-0.1c0,0.2,0.2,0.3,0.3,0.4l0,0c-0.2-0.1-0.3-0.3-0.5-0.4
		c0,0,0,0-0.2,0.4c-0.1,0-0.1,0-0.2,0c-0.2,0.3-0.4-0.1-0.5-0.3c0,0-0.1,0-0.1,0c0,0,0,0.1,0,0.1c0,0-0.1,0-0.1,0
		c-0.1,0-0.1,0-0.2,0c0,0-0.1,0-0.1,0c0,0.1,0.1,0.1,0.1,0.2c0,0.1,0,0.1-0.1,0.1c-0.2,0-0.2,0-0.3-0.2l-0.1,0c0,0-0.1,0-0.1,0
		c0,0-0.1-0.1-0.1-0.1l-0.1-0.1c0.1-0.1,0.1-0.1,0.2-0.1c0.1,0,0.2,0.1,0.4,0.2l0.1-0.1c-0.1-0.2-0.3-0.6-0.3-0.6
		c-0.1-0.1-0.1-0.1-0.1-0.1c-0.1,0-0.1,0-0.2,0.1c0,0,0,0.1,0,0.1c0,0.1,0,0.1,0,0.1c-0.1,0-0.2-0.1-0.2-0.3c0-0.1-0.1-0.1-0.1-0.1
		c-0.4,0.1-0.3-0.5-0.6-0.6c0,0,0,0,0,0.3c0,0-0.1,0.1-0.2,0.1c0,0,0.1,0.1,0.1,0.1c0,0,0,0,0,0.1c0,0,0,0.1,0,0.1l-0.1,0.1
		c0,0.1,0,0.1,0.6,0.7c0,0,0,0.1,0,0.1c0,0.1,0.1,0.1,0.1,0.2c0.1,0.1,0.2,0.2,0.3,0.3c0,0.1,0.1,0.1,0.1,0.2c0,0-0.1,0-0.1,0
		c-0.1,0-0.1,0-0.2,0l-0.1,0c-0.1,0-0.1,0-0.4,0c0,0,0,0.1,0,0.1c-0.1,0-0.1,0.1-0.2,0.1c0,0.2,0,0.2-0.1,0.3l-0.1-0.1
		c0,0-0.1,0-0.1,0l-0.1,0c0,0-0.1,0-0.1,0c0,0,0,0.1,0,0.2l0.2,0.1c0,0.1,0.1,0.2,0.1,0.3c-0.2,0-0.2,0-0.4,0.4c0,0-0.1,0-0.1,0
		c-0.1,0-0.1,0-0.2,0c0,0.2,0.1,0.3,0.2,0.5c-0.2,0-0.2,0-0.4,0c0,0.1,0.1,0.2,0.1,0.3c-0.1,0-0.2,0-0.3,0c-0.1,0-0.1,0-0.3-0.1
		c-0.1,0-0.1-0.1-0.1-0.1c0,0-0.1-0.1-0.2-0.1c0,0.1,0,0.2,0,0.3l0.1,0c0,0.1,0.1,0.1,0.1,0.2l0.1,0.1c0,0,0,0.1,0,0.1
		c-0.5,0-0.7-0.2-0.7-0.2c-0.4,0.1-0.4,0.1-0.4,0.2c0,0,0,0.1,0,0.1c0.1,0.1,0.1,0.1,0.1,0.1c0.2,0.2,0.3,0.2,0.4,0.2
		c0.1,0,0.1,0,0.1,0c0.2,0.1,0.4,0.3,0.6,0.4c0.1,0.2,0.1,0.3,0.2,0.5c0.4,0.4,0.9,1.1,0.6,1.5c0,0,0,0.1,0,0.1
		c-0.2,0.1-0.2,0.1-0.3,0.2c0,0-0.1,0-0.1,0c-0.3-0.1-0.5-0.1-0.8-0.3c-0.3,0-0.5,0-0.8,0c-0.3,0-0.3,0-0.4-0.1c-0.1,0-0.1,0-0.1,0
		l-0.1,0.1c0,0,0,0.1,0,0.1c-0.2,0.1-0.3,0.1-0.4,0.1l0,0.1c0.3,0.3,0.2,0.7,0.4,1c0,0.2,0.1,0.4,0.1,0.6c0,0,0,0.1,0,0.1
		c-0.3,0.3-0.1,0.5,0,0.8l0.1,0.1c0,0.1,0,0.1,0,0.1c0,0,0,0.1,0,0.1c-0.1,0.1-0.1,0.2,0,0.5c0.1,0,0.2,0,0.3,0
		c0.3-0.1,0.5,0.1,0.7,0.1c0,0,0,0,0.4,0.2c0.1,0.1,0.2,0.3,0.3,0.4c0,0,0-0.1,0-0.1l-0.1,0c1.1-0.7,2-1,2-1c0-0.1,0-0.2-0.1-0.3
		c-0.3-0.4-0.3-0.4-0.2-0.8c0-0.1,0-0.1,0-0.2c0.1,0,0.1,0,0.2,0c0,0,0.1-0.1,0.1-0.2c0,0,0.1,0,0.2-0.1l0-0.1c0.2,0,0.5,0,0.5,0
		c0-0.1,0-0.2,0-0.3l0-0.1c-0.2-0.4-0.2-0.6-0.2-0.6c0.1-0.1,0.1-0.1,0.5,0h0l0,0h0l0,0h0c0.3,0.2,0.3,0.2,0.4,0.2
		c0.1,0,0.1,0,0.2,0c0,0,0.1,0,0.1,0c0-0.3,0-0.3,0-0.4c0.1,0,0.1,0,0.2,0c0.1,0,0.2,0,0.3-0.3c0.5,0.1,0.6,0.7,1,1
		c0.1,0.1,0.1,0.1,0.2,0.2c0.7,0.5,1.9,1.4,2.1,2.1c-0.3,0.1-0.3,0.1-0.3,0.2c-0.3,0.1-0.5,0-0.8,0c0,0,0,0.1,0,0.1
		c0.3,0.1,0.4,0.4,0.7,0.5c0.1,0,0.3,0,0.4,0c0-0.1-0.1-0.3-0.1-0.4c0.1-0.1,0.1-0.2,0.3-0.3c0-0.1,0-0.3-0.1-0.4
		c0,0,0.1-0.1,0.2-0.1c0,0,0-0.1,0-0.2c0-0.1-0.1-0.1-0.1-0.2c-0.1,0-0.2,0-0.2,0c-0.1-0.1-0.1-0.1-0.1-0.1c0,0,0-0.1,0-0.1
		c0.1-0.1,0.1,0,0.2,0c0.2,0.1,0.2,0.1,0.3,0.2c0-0.2-0.1-0.4-0.2-0.5c-0.4-0.1-0.8-0.6-0.8-0.6c-0.3,0-0.4-0.3-0.6-0.3
		c-0.1-0.3-0.4-0.4-0.5-0.7c0,0-0.1,0-0.1,0c-0.2-0.3-0.2-0.3-0.4-0.3c0-0.1-0.1-0.2-0.1-0.2l0-0.1c0-0.1,0-0.1,0-0.1
		c-0.2-0.3-0.2-0.3-0.2-0.3c0.3,0,1.5,1.2,1.5,1.2c0.1,0.2,0.1,0.2,0.3,0.2c0,0,0,0.1,0.1,0.1c0.2,0.3,0.6,0.3,0.8,0.6
		c0.3,0.4,0.4,1,0.7,1.4c0.1,0,0.1,0,0.2,0c0.1,0.2,0.2,0.3,0.2,0.4c0,0-0.1,0-0.1,0c0,0,0-0.1,0-0.1c0,0-0.1,0-0.1,0
		c0,0.2,0.1,0.3,0.4,0.6c0,0,0-0.1,0.1-0.1c0.3,0.1,0.3,0.5,0.4,0.7c0.1,0,0.1,0,0.2,0c0,0,0.1,0,0.1,0c0-0.2,0-0.2,0-0.3
		c0,0,0-0.1,0-0.1c0,0-0.1-0.1-0.1-0.2l0.1-0.1c0,0,0.1,0.1,0.1,0.1c0.1,0,0.1,0,0.1,0c0-0.1,0-0.1-0.1-0.4c0,0,0.1,0,0.1,0l0-0.1
		c-0.1-0.2-0.2-0.2-0.3-0.2c0.1,0.2,0.1,0.2,0.1,0.3c-0.1,0-0.2,0-0.8-0.9c0-0.1,0-0.1-0.1-0.2c0,0,0-0.1,0-0.1l0.1,0.1
		c0.1,0.1,0.1,0.1,0.2,0.2c0.1,0,0.1,0,0.1,0l0.1,0c0-0.1,0-0.1-0.1-0.2c0,0,0-0.1,0-0.1c0.2-0.1,0.4,0.1,0.6,0.2
		c0.1,0.2,0.1,0.2,0.2,0.2c0,0,0.1,0.1,0.1,0.2l-0.1,0.1c0.1,0.3,0.4,0.4,0.4,0.7c0,0.1,0,0.1,0.1,0.2c0,0,0,0.1,0,0.1
		c0,0.1,0,0.1,0.2,0.3l0,0.1l0,0l0,0.1l0,0.1l0,0c0,0.1,0.1,0.1,0.1,0.2l0,0.1l0,0.1c0.1,0.2,0.1,0.2,0.1,0.3l0,0.1l0,0
		c0,0,0-0.1,0-0.2l0-0.1c0-0.1,0-0.1-0.1-0.2c0,0,0-0.1,0-0.1c0-0.1,0-0.1,0-0.1l0,0l0,0l0,0l0,0c0,0,0.1,0.1,0.1,0.2l0,0.1l0,0.1
		l0,0l0,0c0,0,0.1,0,0.1,0.1c0.1,0,0.1,0,0.1,0l0,0l0,0l0,0l0-0.1c-0.1-0.2-0.1-0.2-0.1-0.3l0-0.1l0,0c0.1,0,0.1,0,0.2,0.1
		c0,0,0.1,0.1,0.1,0.1c0,0,0.1,0.1,0.1,0.1l0,0.1l0,0l0,0l0,0c0.1,0,0.2,0,0.3,0c0-0.1,0-0.1-0.1-0.2l0-0.1c0-0.1,0-0.1-0.1-0.2
		l0.1,0l0,0l0,0c0,0,0,0,0.2,0.2c0.1,0,0.1,0,0.1,0l0,0l0,0l0,0l0,0c0,0,0,0.1,0.1,0.1l0,0c0.1,0.2,0.1,0.2,0.1,0.3
		c0,0.3,0.1,0.5,0.1,0.6l0,0.1c0.1,0.1,0.1,0.1,0.1,0.3l0,0l0,0.1c0,0.1,0,0.1,0,0.2v0.1c0,0.3,0,0.3,0,0.3l0,0l0,0.1l0,0.1
		c0.8,0.2,1.5,0.3,1.9,0.4C193.2,48.1,193.4,48.2,193.4,48.3L193.4,48.3z"/>
	<path class="st0" d="M194.5,54.5l0-0.6v0c0,0,0-0.1,0-0.1l0,0c-0.1-0.6-0.1-1.1-0.1-1.1l0,0c0,0.2,0,0.3,0,0.3c0.1,1,0.2,2,0.2,3
		l0,0v-0.2c0-0.2,0-0.3,0-0.5l0,0c0,0,0,0.1,0,0.1C194.5,55.4,194.5,55,194.5,54.5L194.5,54.5z"/>
	<path class="st0" d="M194.2,52.1l-0.1-0.5c-0.2-1-0.4-2.3-0.7-3.3l0,0c0.3,1.1,0.5,2.2,0.7,3.3C194.2,51.7,194.2,51.9,194.2,52.1
		L194.2,52.1L194.2,52.1L194.2,52.1z"/>
	<path class="st0" d="M173.8,33L173.8,33l-0.1,0c0,0,0,0.1-0.1,0.1l-0.1,0l0,0l0,0.1c0,0,0,0.1-0.1,0.1c0,0,0,0.1,0,0.1l0.1,0l0.1,0
		c0,0,0,0,0,0l0,0v0l0,0c0.1,0,0.1,0,0.1,0l0,0l0,0l0-0.1l0,0C173.8,33,173.8,33,173.8,33L173.8,33z"/>
	<path class="st0" d="M178,36.4c0-0.1-0.1-0.1-0.1-0.2c-0.2-0.1-0.3-0.3-0.4-0.4l-0.1,0c0,0,0,0,0,0.2c-0.1,0-0.1,0-0.4-0.5
		c-0.1,0-0.1,0-0.2,0c-0.1-0.2-0.1-0.3-0.1-0.3c-0.1-0.1-0.2-0.1-0.3-0.2l-0.1,0c-0.1-0.1-0.2-0.1-0.3-0.3c0-0.1-0.3-0.3-0.4-0.3
		c-0.2,0-0.4-0.1-0.3-0.3c0-0.1,0-0.1,0-0.1c0.1,0,0.1,0,0.1,0c0,0,0-0.1,0-0.1c-0.1-0.1,0.1-0.2,0-0.2c-0.1-0.1-0.1-0.2-0.2-0.3
		c-0.2,0-0.4,0-0.6,0c0-0.1,0-0.1,0-0.1c0-0.1-0.1-0.1-0.1-0.2c0,0,0.1-0.1,0.1-0.2c-0.1-0.1-0.1-0.1-0.1-0.1l-0.1,0
		c0,0-0.1,0-0.1,0c0,0-0.1,0-0.3,0l0,0c0,0.1,0,0.2,0.1,0.3c0,0.1,0.1,0.2,0.1,0.3c-0.1,0-0.2-0.1-0.3-0.1c-0.2,0,0,0.2,0,0.3
		c0.1,0.1,0.2,0,0.3,0.1v0.1c0,0,0,0.1,0,0.1c0,0.1,0.1,0.1,0.1,0.2c-0.2,0-0.2,0-0.1,0.2c0,0,0.1,0,0.2,0c0,0,0,0,0.2,0.1
		c0,0,0.1,0,0.1,0c0-0.1,0-0.1,0-0.2c0,0,0.3,0.3,0.3,0.4c-0.2,0-0.1,0.1,0,0.2c0.1,0,0.2,0,0.3,0l0-0.1c0.2,0.1,0.3,0.4,0.5,0.5
		c0,0.2,0,0.2,0.1,0.2c0.1,0.1,0.1,0.2,0.1,0.2l-0.2,0c-0.1,0-0.1-0.1-0.2-0.1l0,0l-0.1,0c0,0,0,0,0,0.1l0,0.1c0,0-0.1,0-0.1,0
		l0,0.1c0.1,0.1,0.4,0,0.4,0.2c0,0,0,0-0.1,0c0,0.1,0,0.1,0,0.1c0,0,0,0-0.1,0l0,0h0l0,0h0c0.1,0.3,0.2,0.2,0.3,0.2
		c0,0,0.6,0.1,0.6,0.1c0,0,0.1,0.1,0,0.2c-0.1,0.1-0.2,0-0.3,0.1c0,0,0,0.1,0,0.1c-0.1,0-0.1,0-0.2,0c0.1,0.2,0.1,0.2,0.1,0.3
		c-0.1,0.1-0.1,0.1-0.2,0.1c0.1,0.1,0.1,0.1,0.3,0l0.1-0.1l0-0.1c0.1,0,0.1,0,0.2,0.1c0.1,0,0.1,0,0.2,0c-0.1-0.2-0.1-0.2,0-0.2
		c0.6,0.1,0.6,0,0.5-0.1l0,0c0.1,0,0.2,0.1,0.3,0.2l0,0c0.1,0,0.2,0,0.3,0c0,0,0-0.1,0-0.1c0.1,0,0.1,0,0.2,0c0-0.1-0.1-0.2-0.2-0.3
		l0-0.1c0,0,0,0,0-0.1c0,0,0.1,0,0.1,0c0,0,0-0.1,0-0.2C177.9,36.4,178,36.4,178,36.4L178,36.4z"/>
	<polygon class="st0" points="174,35.1 174,35.1 173.9,35.1 174,35.1 	"/>
	<path class="st0" d="M175,35.2c0-0.1-0.1-0.1-0.2-0.2c0,0,0-0.1-0.1-0.2c0,0,0,0-0.1-0.1c0,0-0.1,0-0.1,0c0,0-0.1,0-0.1-0.1l0,0
		c-0.1,0-0.1,0-0.1,0.1l0,0.1l-0.1,0c-0.1-0.1-0.1-0.1-0.2-0.2c0,0-0.1,0-0.2,0c0.1,0.1,0.1,0.3,0.1,0.4l0,0l0,0l-0.1,0
		c0,0-0.1,0-0.1,0l0,0c0,0-0.1,0-0.1,0c-0.1-0.1-0.1-0.1-0.1,0c0.1,0.2,0.1,0.4,0.2,0.6c0.1,0,0.1,0,0.3,0c0,0.1,0.1,0.2,0.1,0.3
		c-0.1,0-0.1,0-0.2,0c-0.1,0.1,0.1,0.2,0,0.3c-0.1,0-0.1,0,0,0.2c0,0.1,0.2,0.1,0.2,0.1c0.1,0,0.1,0,0.2-0.1c0,0,0.1,0,0.2,0.1
		c0.1,0,0.1-0.1,0.1-0.1c0,0,0,0,0-0.1c0,0,0,0,0-0.1c0.2,0,0.4,0,0.6,0c0,0,0-0.1,0-0.1c0-0.1-0.1-0.1-0.1-0.2
		c0.1-0.1,0.1-0.1,0.1-0.1c0-0.1-0.1-0.2-0.2-0.5c0-0.1,0-0.1-0.1-0.2C175,35.3,175,35.2,175,35.2L175,35.2z"/>
	<path class="st0" d="M189.6,73.2C189.6,73.2,189.7,73.2,189.6,73.2c0.7-1.3,0.7-1.3,0.7-1.5c-0.1,0.2-0.1,0.2-0.8,1.2
		c-0.2,0-0.2,0.3-0.3,0.4c-0.2-0.1-0.2-0.1-0.8,0.8c-0.3,0.4-0.3,0.8-0.7,1.1l0,0c-0.2,0.3-0.5,0.6-0.7,0.8c0,0,0,0.1-0.1,0.1
		c-0.1,0.1-0.2,0.3-0.3,0.4c0,0.1-0.1,0.1-0.1,0.2c-0.1,0.2-0.2,0.3-0.4,0.5l0,0c0,0,0.1,0,0.1,0c-0.1,0.1-0.1,0.1-0.1,0.1l0,0v0
		c0.6-0.1,2.9-3.4,2.9-3.5c0-0.1,0.1-0.1,0.1-0.2c0-0.1,0.1-0.1,0.1-0.2c0,0,0-0.1,0.1-0.1C189.5,73.4,189.6,73.3,189.6,73.2
		L189.6,73.2z"/>
	<path class="st0" d="M194,60.3c0-0.1,0-0.3-0.1-0.4c0,0.1-0.1,0.1-0.1,0.2c-0.1,0-0.1,0-0.2,0.1c0,0,0,0-0.2,0c0,0-0.1-0.1-0.1-0.1
		c0-0.7,0-0.7-0.1-0.8c0-1.4-0.9-2.6-0.8-4c0-0.1,0-0.2,0-0.3c0,0-0.5-4.2-2.2-6.5c0,0,0,0-0.1,0c0,0-0.1,0.1-0.1,0.1l0,0
		c-0.9-0.4-1.6-1.1-2.6-1.2c0.1,0.4,0.2,0.8,0.3,1.3c-0.1,0-0.1,0-0.2,0c0,0-0.1,0-0.2,0c-0.2-0.2-0.3-0.4-0.5-0.5
		c-0.2,0-0.4,0-0.7-0.1c-0.1-0.1-0.1-0.3-0.2-0.4c-0.4-0.5-1-0.5-1.5-0.8c-0.5-0.4-0.2-1.1-0.6-1.5c0-0.1,0-0.1,0-0.2
		c0.1,0,0.2-0.2,0.2-0.3c-0.3-0.2-0.3-0.2-0.5-0.3c-0.4,0.1-0.4,0.1-1.1,0.1c-0.1,0.1-0.2,0.2-0.3,0.2c-0.4-0.4-0.4-0.4-1.2-0.2
		c0,0.1-0.1,0.1-0.1,0.2c-0.3,0-0.5,0-0.8,0.1c0,0.1,0,0.3-0.1,0.4c-0.2,0.1-0.5,0-0.7,0.1c0,0-0.1,0-0.2,0c-0.1,0-0.1,0-0.2,0
		c0,0,0,0-0.1,0c-0.4,0-0.5-0.1-0.7-0.2c-0.1,0-0.1-0.1-0.2-0.1c-0.2,0.3,0,0.6-0.1,0.9c-0.3,0-0.3,0-0.6,0c0,0.3,0.1,0.6,0.1,0.8
		c-0.2,0-0.5,0-0.7,0.1c0,0.5-0.1,0.9,0,1.4c0,0.1,0,0.2,0,0.4c-0.2,0-0.4,0-0.6,0.1c0,0.6-0.5,0.8-0.8,0.8c-0.2,0-1,2-1,2
		c-0.1,0-0.1,0-0.2,0c0,0,0,0-0.2,0c-0.1,0-0.1,0.1-0.2,0.1c0.1,1.1-0.1,1.2-0.5,1.3c0,0.1,0,0.1-0.1,0.2c0,0.1,0,0.3,0.1,0.4
		c0.8,0.1,0.8,0.1,0.8,0.3c-0.2,0.4-0.2,0.4-0.2,1.8c0,0.1,0,0.1,0,0.2c0,0.2,0,0.2-0.4,0.6c0,0.3,0.1,0.5,0.2,0.8
		c0,0.1,0,0.1,0,0.4c0,0,0.8,1.4,1.5,1.7c0,0.3-0.1,1.2,1,1.3c0.8,1.5,0.8,1.6,1.6,1.5c0.1-0.1,0.1-0.3,0.2-0.4c0.2-0.1,0.5,0,0.7,0
		c0,0,0.1,0,0.1,0c0.2,0,0.2,0,0.6,0c0.2,0.2,0.2,0.2,1.2,0.2c0.3-0.6,0.6-0.6,1.2-0.4c0,0,0.1,0,0.1,0c0,0,0.5-0.5,0.9-0.2
		c0.1,0.9,0.1,0.9,0.4,1c0.5,0,0.9,0,1.3,0.1c0,0.2-0.1,0.4-0.1,0.7c-0.2,0.4-0.2,0.4-0.6,2c-0.1,0-0.2,0.1-0.3,0.2
		c0.1,0.1,0.2,0.2,0.3,0.2c0.1,0.3,0,0.7,0.3,0.9c-0.1,0.9,0.4,1.8-0.1,2.7c0,0.1,0,0.1-0.1,0.4c0,0.1,0,0.3,0.1,0.4l-1.4,2.3
		c-0.9,0.6-0.7,2.5-0.7,2.5c-0.3,0.5-0.3,0.8-0.3,0.9c-0.2,0.3-0.3,0.6-0.5,0.9c0,0-1,2.6-1.1,2.9c0,0,0,0.1-0.1,0.1
		c-0.3,0.2-0.3,0.2-0.4,0.4c0,0,0.1,0,0,0.1c0,0-0.1,0.1-0.1,0.1c0,0.1,0,0.1,0,0.2c0.1,0,0.3,0,0.5,0c0.1,0,0.3-0.1,0.4-0.1
		c0.2,0,0.3,0,0.6,0c1.5-1.4,3.4-2.4,5-3.8l3.5-4.3c0.1-0.1,0.1-0.2,0.2-0.4c0-0.1,0.1-0.2,0.1-0.3c0.2-0.4,0.4-0.8,0.5-1.2
		c0.1-0.7,0.5-1.3,0.6-2c0,0,0-0.1,0.1-0.1c0.6-1.3,1.5-2.4,2.1-3.7C193.7,62,193.7,62,194,60.3L194,60.3z"/>
	<path class="st0" d="M164.2,68c0,0,0-1.1-0.6-1.3c-0.2,0-0.3,0-0.5,0c-0.8-0.2-0.8-0.2-0.9-0.7c-0.5-0.3-0.5-0.3-0.8-0.2
		c-0.2,0-0.4,0-0.7,0c-0.7-0.3-0.7-0.3-0.9-0.2c0,0.1,0,0.1,0,0.2c-0.1,0.1-0.2,0.1-0.6,0c0,0,0-0.1,0-0.2c0.1,0,0.2-0.1,0.3-0.2
		c-0.2-0.2-0.6-0.5-1.2-0.6c0,0-0.1,0-0.2-0.1c-0.3-0.1-0.3-0.1-0.6-0.1c0,0.2,0,0.3,0,0.5c-0.1,0-0.3,0-0.4,0c0-0.1,0-0.1,0-0.3
		c0.1-0.1,0.1-0.2,0.2-0.2c0,0,0.1-0.1,0.1-0.1c0,0-0.1-0.1-0.1-0.1c0,0-0.3-0.1-0.6-0.2h-0.1c0,0-0.1,0-0.2,0c0,0.4,0,0.5-0.4,0.4
		c0-0.1,0-0.1,0-0.3l0-0.2c0.2,0,0.2,0,0.5-0.1c0.1-0.6,0-0.8,0-0.9c-0.1,0-0.2,0-0.3,0c0-0.2,0-0.4-0.1-0.7c0-0.2-0.2-0.4-0.2-0.5
		c-0.6-0.1-0.6-0.3-0.7-0.4c-0.8-0.3-0.8-0.3-0.9-0.3c-0.3-0.1-0.5,0-0.8,0c-0.1,0-0.1,0-0.2,0c-1.3-0.3-1.3-0.8-1.3-1
		c-0.5-0.3-0.5-0.3-0.7-0.4c0,0,0-0.1-0.1-0.1c-0.3-0.2-0.3-0.2-0.2-0.5c0,0-0.1,0-0.2,0c-0.2,0-0.3,0.1-0.5,0.1
		c-0.1-0.1-0.1-0.1-0.2-0.4c0,0,0.1,0,0.2,0c0,0,0-0.1,0-0.1c-0.2-0.1-0.2-0.1-0.4-0.2l-0.2,0.2c0,0,0,0-0.1,0
		c-0.1,0-0.2-0.1-0.3-0.1c-0.1,0.2-0.2,0.4-0.3,0.5c0,0-0.1,0-0.2,0c-0.2-0.4-0.2-0.4-0.6-0.4c-0.2,0-0.3,0-0.6,0
		c-0.1,0-0.2-0.1-0.3-0.1c0-0.1,0-0.2-0.1-0.3c-0.2-0.1-0.4-0.2-0.7-0.3c0,0-0.1,0.1-0.1,0.1c0,0,0,0-0.6,0.6
		c0.1,0.6,0.1,0.6,0.1,0.8c0,0-0.1,0.1-0.1,0.1c-0.2-0.3-0.6-1.2,0.1-1.8l0-0.1c-0.1,0-0.1,0-0.3,0c-0.3,0.1-0.3,0.1-0.2,0.5
		c-0.2,0-0.4,0-0.5,0c-0.6,0.4-0.6,0.4-1,0.4c0,0.2,0,0.4,0,0.7c-0.1,0.1-0.1,0.1-0.4,0.2c0,0.4-0.6,0.7-0.4,1.2c0,0,0.1,0,0.1,0
		c0,0.4,0.6,0.9,0.1,1.3c-0.1,0.8-0.1,0.8-0.3,0.9c0,0.1,0.1,0.3,0.1,0.4c-0.1,0.1-0.2,0.1-0.2,0.2c0,0.1,0,0.2,0,0.2
		c-0.3,0.1-0.3,0.3-0.3,0.6c-0.1,0-0.2,0-0.3,0.1c0.1,0.3,0.1,0.6,0.2,0.9c0.1,0,0.3,0,0.4,0c0,0.1,0,0.1,0,0.2c0,0,0,0.1-0.1,0.1
		c-0.1,0-0.2,0.1-0.3,0.2c0,0.3-0.2,0.6,0.1,1c0,0,0,0.1,0,0.1c0.2,0.9,1.3,1.1,1.5,2c0,0.1,0,0.1,0.1,0.2c0.2,0.3,0.3,0.7,0.6,1
		c0.6,0.5,0.5,1.7,1.6,1.6c1-0.1,1,1.2,1.9,1.2c0.1,0.3,0.2,0.6,0.3,1c0,0.1,0,0.2,0.1,0.3l0,0c0,0,0,0.1,0.1,0.2c0,0,0,0.1,0.1,0.1
		c0,0,0,0,0,0.2c0,0.1,0,0.2,0.1,0.3l0,0c0,0,0,0.1,0.1,0.2c0,0,0,0.1,0.1,0.1l0,0.1c0,0,0,0.1,0,0.2c0,0.1,0.1,0.2,0.2,0.3
		c0,0,0,0.1,0,0.1c0,0,0,0.1,0,0.1c0,0.3,0,0.6,0.1,0.9c0.1,0.3,0.1,0.3,0.2,1.2c0,0,0,0,0.1,0.1c0.6,1,0.8,1.4,0.7,1.9
		c0,0,0,0.1,0.1,0.2c0,0,0,0.1,0.1,0.1c0.1,0.1,0.1,0.1,0.1,0.7c0.4,0.4,0.4,0.9,0.8,1.3c0.3,0.2,0.2,0.7,0.6,0.8c0.1,0,0.1,0,0.2,0
		l-0.4-0.6c0.1,0,0.1,0,0.2,0c0,0.1,0.1,0.1,0.1,0.2c0,0,0,0.1,0,0.2c0.1,0.1,0.2,0.2,0.2,0.3c0,0,0,0,0.4,0.6
		c-0.1,0-0.2-0.1-0.3-0.2l0-0.1c0,0-0.1-0.1-0.1-0.1c0,0,0,0,0,0c0,0.1,0.1,0.1,0.2,0.2c0.3,0.2,0.3,0.2,0.4,0.4
		c-0.1,0-0.3-0.1-0.4-0.2c0,0.1,0.1,0.1,0.1,0.2c0,0,0,0.1,0,0.1c0.3,0.2,0.7,0.3,0.9,0.5c-0.1,0-0.2,0.1-0.2,0.1c0,0,0,0,0.1,0.1
		c0.1,0.1,0.2,0.1,0.2,0.2c0,0,0,0,0.1,0.1c0.2,0.1,0.3,0.2,0.5,0.3l0,0l0.1,0c0,0,0,0,0.1,0c0.1,0.1,0.2,0.1,0.2,0.2l0,0l1.1,0.6
		c0,0,0,0,0.1,0.1c0.2,0.1,0.2,0.1,0.4,0.1c0,0,0,0,0.2,0c0.1,0,0.2,0,0.3,0c0,0,0.1-0.1,0.1-0.1c-0.2-0.1-0.2-0.1-0.4-0.1
		c0,0-0.1-0.1-0.2-0.1c0,0-0.2-0.2-0.5-0.4c0,0,0,0-0.1-0.1c-0.1-0.1-0.2-0.2-0.3-0.3c0,0,0,0-0.1-0.1c0-0.1-0.1-0.1-0.1-0.2
		c0,0-0.1-0.1-0.1-0.1c0.1,0,0.1,0,0.2,0c-0.1-0.1-0.1-0.2-0.2-0.2c0,0,0.1-0.1,0.1-0.1c0-0.1-0.1-0.2-0.1-0.3c0,0,0.1-0.1,0.1-0.1
		c0,0-0.1-0.1-0.2-0.1c0,0-0.1,0-0.1,0c-0.5-0.3-0.5-0.3-0.5-0.4c0,0,0,0,0-0.2c0,0,0.1-0.1,0.1-0.1c0.1,0,0.2,0,0.3,0
		c-0.1-0.1-0.1-0.2-0.2-0.4c0-0.1-0.1-0.3-0.1-0.4c0,0,0.1,0,0.2,0c0,0,0-0.1,0-0.1c0,0,0,0-0.1-0.1h0l0,0h0l0,0
		c0,0-0.1,0.1-0.1,0.1c-0.1-0.1-0.1-0.1-0.3-0.3c0-0.1-0.1-0.1-0.1-0.2c0,0,0.1,0,0.1,0c0.1,0,0.2,0.1,0.3,0.1c0.1,0,0.2,0,0.4,0
		c0,0-0.1-0.1-0.1-0.1c0,0,0,0-0.1-0.2c0-0.2,0-0.2-0.2-0.4c0-0.1,0-0.1-0.1-0.2c0.1,0,0.2,0,0.4,0c0,0,0.1,0,0.2,0
		c0,0,0.1,0,0.1-0.1c0.1,0,0.2,0,0.4,0c0,0,0.1,0,0.1,0c0-0.3,0.2-0.4,0.3-0.7l0-0.1c0-0.1,0-0.1-0.1-0.2c0,0,0,0-0.1,0
		c0,0,0-0.1-0.1-0.2c-0.2-0.2-0.5-0.3-0.6-0.5c0.1,0,0.2,0,0.3,0c1,0.2,1.3,0.3,1.3-0.1c0.3-1.3,0.5-1.4,0.6-1.4c0,0.1,0,0.2,0,0.3
		c0,0,0.1,0,0.1,0c0.1-0.2,0.3-0.7,0.3-0.7c0-0.3,0.4-0.3,0.4-0.5c0.1-0.4-0.4-0.7-0.2-1.1c0,0,0.6-0.7,0.8-0.9c0.1,0,0.3,0,0.5,0
		c0.1-0.1,0.1-0.1,0.3-0.3c0.4,0,0.7,0,1.1,0c0-0.1,0.1-0.2,0.1-0.3c0.2-0.1,0.4-0.4,0.4-0.6c0.1,0,0.2-0.1,0.3-0.2
		c0-0.4,0-0.4,0.2-0.6c0.1-0.1,0.1-0.1,0.2-0.8c0,0,0-0.1,0.1-0.2c0.2-0.3,0.2-0.5,0.2-0.6c0,0,0-0.1,0-0.2c0,0,0-0.1,0-0.1
		c0-0.1,0-0.1,0-0.3c0-0.2,0-0.4,0.1-0.6c0.1,0,0.1,0,0.7-0.8c0.2,0,0.3-0.1,0.4-0.2l0.7-1C164.1,68.2,164.1,68.2,164.2,68L164.2,68
		z"/>
	<path class="st0" d="M148.6,54.5L148.6,54.5c0-0.1-0.1,0-0.2-0.1c0-0.1,0-0.2,0-0.3c-0.4,0.1-0.4,0.1-0.6,0.1c-0.1,0-0.1,0-0.2,0
		c-0.1,0-0.2-0.1-0.3-0.1c0,0-0.1,0-0.1,0c-0.1,0-0.1,0.1-0.2,0.2l-0.3,0c-0.1,0-0.2-0.2-0.3-0.2c-0.2,0-0.2-0.2-0.4-0.2l-0.7,0
		c-0.1,0-0.1,0-0.4,0.1c0,0.2,0,0.5,0,0.7c0.2,0.2,0.3,0.4,0.4,0.4c0.1,0,0.1,0,0.2,0c0.2,0,0.2,0,0.3-0.2c0.1-0.1,0.3-0.1,0.3-0.1
		c0.1,0,0.2,0.1,0.3,0.1c0.1,0,0.2-0.1,0.3-0.1c0.3,0,0.7-0.1,0.8-0.1c0.1,0,0.1,0,0.2,0c0.1,0,0.4,0.1,0.5,0.1c0.1,0,0.1,0,0.2,0
		C148.5,54.6,148.5,54.6,148.6,54.5L148.6,54.5z"/>
	<path class="st0" d="M143.5,54.9L143.5,54.9c0-0.1,0-0.2,0-0.3c0,0-0.1,0-0.2,0c-0.1,0-0.1-0.1-0.2-0.1l-0.1,0c-0.2,0-0.3,0-0.5,0
		c0,0.1,0.1,0.1,0.1,0.2l0,0.1c0,0,0,0,0.1,0c0.1,0,0.2,0.1,0.2,0.1c0,0,0,0.1,0,0.1c0,0,0,0.1,0,0.1c0.1,0,0.1,0,0.2,0
		C143.3,55.1,143.3,55.1,143.5,54.9L143.5,54.9z"/>
	<path class="st0" d="M142.9,53.6c0.5,0,0.9,0,1.4,0c-0.1-0.2-0.4-0.6-0.7-0.7c-0.1,0-0.1,0-0.2,0c-0.2,0-0.4,0.1-0.6,0
		c-0.1-0.1-0.2-0.2-0.3-0.3c-0.1-0.1-0.3-0.2-0.5-0.3c-0.2-0.1-0.2-0.1-0.2-0.2c0-0.1,0-0.1-0.2-0.1c-0.1,0-0.3,0-0.4,0
		c-0.1,0-0.1,0-0.2,0.1c-0.1,0.1-0.2,0-0.2,0c-0.1,0-0.2,0-0.4,0c-0.3,0-0.3,0-0.4,0c-0.4,0.4,0.2,1,0.6,0.7
		c0.1-0.1,0.2-0.2,0.3-0.3c0,0,0.2,0,0.3,0c0,0,0.4,0.1,0.4,0.4c0,0.1,0,0.1,0.1,0.1c0.3,0.2,0.3,0.2,0.4,0.1c0.1,0,0.2,0,0.2,0.1
		C142.5,53.3,142.7,53.6,142.9,53.6L142.9,53.6z"/>
	<path class="st0" d="M169.9,29.9c0-0.1-0.1-0.2-0.1-0.2c0,0-0.1-0.1-0.1-0.1c-0.1,0-0.1,0-0.3-0.1c-0.1-0.2-0.1-0.2-0.2-0.4
		c-0.1,0-0.2,0-0.3,0c-0.1,0-0.1,0-0.3,0.2c-0.1,0-0.3-0.1-0.4-0.1c-0.2,0-0.3,0.1-0.3,0.1c0,0-0.1,0-0.1,0c-0.1,0-0.2,0-0.2,0
		c0,0,0-0.1,0-0.1c0,0,0-0.1,0-0.1c0-0.1-0.1-0.1-0.1-0.1l-0.1,0c0,0,0,0.1,0,0.1c-0.1,0-0.1,0-0.5,0c0,0-0.3,0.1-0.1,0.3
		c0.1,0,0.2-0.1,0.4,0l0.3,0.1c0,0,0,0.1,0.1,0.1c-0.1,0-0.4-0.1-0.6,0c0,0.1,0.1,0.1,0.1,0.2c0.1,0,0.1,0,0.1,0c0.1,0,0.2,0,0.3,0
		l0,0c0,0.1,0.1,0.2,0.1,0.2l0.1,0.1c0,0,0.1,0,0.1,0c0.1,0,0.2,0,0.4,0c0,0,0.1,0,0.1,0c0.2,0,0.3,0.2,0.4,0.2c0,0,0.5,0.1,0.5-0.1
		c0-0.1,0-0.1,0.1-0.2c0,0,0.1,0,0.2,0c0.1-0.1,0.1-0.1,0.1-0.1C169.4,29.9,169.4,29.9,169.9,29.9L169.9,29.9z"/>
	<path class="st0" d="M155.8,38L155.8,38c0-0.1,0-0.2,0-0.2c-0.2,0-0.2,0-0.3,0c0,0-0.2-0.1-0.3-0.2c0-0.1,0-0.1-0.1-0.1
		c-0.1,0-0.2,0-0.4,0c-0.1,0-0.1-0.1-0.2-0.1c0.2-0.3,0.2-0.3,0.4-0.4c0,0,0.2-0.2,0.1-0.3c0,0,0,0,0-0.1c0,0-0.1,0-0.1,0
		c0,0-0.2,0-0.2,0.1c-0.1,0.1,0,0.2-0.1,0.2c-0.1,0.2-0.1,0.2-0.2,0.3c0,0-0.9,0.8-1,0.9c0,0-0.1,0.1-0.1,0.3c0,0.1,0,0.1,0,0.2
		c0.4,0,0.9,0,1.3,0c0.1,0,0.2,0,0.3,0.2c0.2,0.3,0.3,0.3,0.4,0.4c0,0,0,0,0.1-0.1c0,0,0.2-0.1,0.1-0.4
		C155.6,38.2,155.6,38.2,155.8,38L155.8,38z"/>
	<path class="st0" d="M152.2,37.4L152.2,37.4c0,0-0.1-0.1-0.1-0.1c0,0-0.1,0-0.1,0c-0.1,0-0.1,0-0.1,0c-0.1-0.1-0.2-0.1-0.2-0.2
		c0-0.1-0.1-0.1-0.1-0.1c0,0-0.1,0-0.1,0c-0.1,0-0.1,0.1-0.2,0.1c0,0,0.1,0,0.1,0.1c0,0,0,0.1,0.1,0.2l0,0c0,0,0.1,0.1,0.1,0.1
		c0,0,0.1,0.1,0.1,0.1c0,0,0,0,0.1,0.1C151.9,37.7,152,37.7,152.2,37.4L152.2,37.4z"/>
	<path class="st0" d="M163.8,24c-0.1,0-0.2,0-0.3,0c0,0-0.1,0-0.1,0h0h0h0l0,0l0,0c0,0,0.1,0,0.1,0c-0.1,0-0.1,0-0.1,0l0,0h0l0,0
		c0,0,0,0,0,0l0,0c-0.1-0.1-0.1-0.1-0.1-0.1c0,0,0,0-0.1,0c-0.1,0-0.1,0-0.1,0c0,0,0,0,0,0l0,0l0,0c0,0-0.1,0-0.1,0l0,0h0l0,0
		c-0.1,0-0.1,0-0.2,0c0,0-0.1,0-0.1,0c0,0-0.1,0-0.1,0h0h0h0l0,0h0h0v0h0l0,0l0,0l0,0c0.1,0,0.1,0,0.2,0c0.1,0,0.1,0,0.2,0l0,0
		l-0.1,0h0c0,0,0,0,0,0c-0.1,0-0.1,0-0.2,0l0,0c0,0,0,0-0.1,0l-0.1,0h-0.1l0,0l0,0l-0.1,0l0,0l0,0c0.1,0,0.2,0,0.2,0
		c0,0-0.1,0-0.1,0l0,0c0,0-0.1,0-0.1,0h0c0,0-0.1,0-0.1,0l0,0l0,0c0,0,0,0-0.1,0l0,0c0,0,0,0-0.1,0c0,0-0.1,0-0.1,0c0,0,0,0,0,0
		h-0.1l0,0h0l0,0v0l0,0l0,0v0l0,0l0,0l0,0v0h0l0,0l0,0h0l0,0h0l0,0h0l0,0l0,0l0,0v0l0,0l0,0l0,0h0l0,0l0,0l0,0l0,0v0l0,0l0,0l0,0
		l0,0l0,0l0,0l0,0h0l0,0l0,0l0,0l0,0l0,0l0,0l0,0l0,0h0l0,0l0,0l0,0h0c0,0-0.1,0-0.1,0l0,0h0l0,0l0,0v0l0,0l0,0l0,0l0,0l0,0l0,0l0,0
		l0,0l0,0l0,0l0,0l0,0v0l0,0v0l0,0l0,0l0,0l0,0l0,0l0,0l0,0l0,0h0c0,0,0,0-0.1,0l0,0l0,0l0,0l0,0l-0.1,0l0,0l0,0c0,0,0,0,0,0l0.1,0
		l0,0l0,0l0,0l0,0l0,0l0,0l0,0l0,0l0,0l0,0l0,0l0,0l0,0l0,0l0,0l0,0l0,0h0l0,0l0,0l0,0l0,0h0l0,0l0,0l0,0h-0.1l0,0l0,0l0,0l0,0l0,0
		l0,0l0,0h0h0h0l0,0l0,0l0,0l0,0l0,0l0,0l0,0l0,0h0h0h0v0l0,0v0l0,0l0,0l0,0l0,0h0l0,0l0,0l0,0l0,0l0,0l0,0h0l0,0l0,0l0,0l0,0l0,0
		l0,0c0,0,0,0,0,0l0,0l0,0l0,0h0l-0.1,0c0,0-0.1,0-0.1,0l0,0l0,0l0,0c0,0-0.1,0-0.2,0l-0.1,0l0,0l0,0l-0.1,0l-0.1,0
		c-0.1,0-0.1,0-0.2,0c0,0-0.1,0-0.1,0l0,0l0,0l0,0h0l0,0l0,0l0,0l0,0l0,0l0,0h0l0,0c0,0-0.1,0-0.1,0l0,0c0,0-0.1,0-0.1,0l0,0l0,0
		l0,0h0c0,0,0.1,0,0.1,0l0,0l0,0c0,0-0.1,0-0.1,0l0,0l0,0l0,0c0,0-0.1,0-0.1,0.1c0,0-0.1,0-0.1,0l0,0l-0.1,0h0c0,0-0.1,0-0.1,0
		l-0.1,0c0,0,0,0-0.1,0c0,0-0.1,0-0.1,0l0,0c0,0,0,0-0.1,0l0,0l0,0c0,0,0,0-0.1,0l0,0c-0.1,0-0.1,0-0.2,0l0,0l0,0l0,0l0,0l0,0l0,0
		l0,0l0,0l-0.1,0c-0.2,0.1-0.2,0.1-0.2,0.1l0,0l0,0c0,0,0.1,0,0.1,0l0,0l0,0l0,0l0,0c0,0,0,0,0,0l0.1,0l0,0c0,0,0.1,0,0.1,0l0,0
		c0,0,0,0,0,0l0,0c0,0-0.1,0-0.1,0.1l0,0l0,0c0,0-0.1,0-0.1,0h0l0,0l0,0h0l0,0l0,0h0h0l0,0c0,0,0,0,0,0c0,0-0.1,0-0.1,0h0l-0.1,0
		l0,0l-0.1,0c0,0-0.1,0-0.1,0c-0.1,0-0.1,0-0.1,0.1l0,0c0,0,0.1,0,0.1,0.1l0,0l0,0l0,0l0,0l0,0l0,0l0,0l0,0l0,0l0,0l0,0l0,0l0,0l0,0
		l0,0l0.1,0h0l0,0l0,0l0,0l0.1-0.1c0,0,0,0,0,0c0,0,0.1,0,0.1,0l0,0l0,0l0,0l0,0l0,0h0.1l0,0c0,0,0.1,0,0.1,0l0,0l0,0l0,0l0,0h0h0h0
		h0h0h0l0,0l0,0l0.1,0l0,0l0,0h0l0,0h0l0,0l0,0l0,0l0,0c0,0,0.1,0,0.1,0l0,0l0,0l0,0l0,0l0,0h0v0l0,0c0,0,0,0,0,0l0,0
		c0,0-0.1,0.1-0.1,0.1v0l0,0l0,0h0l0,0l0,0l0,0l0,0.1l0,0l0,0.1l0,0l0,0l0,0l0,0.1l0,0.1l0,0l0,0.1l0,0c0,0-0.1,0,0,0.1
		c0,0,0,0.1-0.1,0.1c-0.1,0.1-0.1,0.1-0.1,0.1c0,0,0.1,0,0.1,0c0,0,0,0.1-0.1,0.1c0,0-0.1,0-0.1,0c0,0.1,0,0.1-0.1,0.2
		c0,0-0.1,0-0.1,0c0,0,0,0.1,0,0.1l0,0.1c0,0,0.1,0,0.1,0c0,0,0,0,0.1,0l0,0c0.1,0,0.2,0,0.3,0c0,0,0,0,0.3-0.1
		c0,0.1-0.1,0.2,0.1,0.2h0c0.1,0,0.1,0.1,0.1,0.1l0,0l0,0c0,0-0.1,0-0.1,0l0,0h-0.1c-0.1,0-0.2,0-0.2-0.1c-0.4,0-0.4,0-0.4,0.1
		l0.1,0.1c-0.1,0.1-0.3,0.1-0.3,0.2l0,0c0.2,0,0.2,0,0.3,0.1l0.1,0c0.2-0.1,0.2-0.1,0.4-0.1c0-0.1,0-0.1,0.1-0.2c-0.1,0-0.1,0-0.2,0
		l0,0c0,0-0.1,0-0.1,0l0,0c0,0,0.1,0,0.1,0c0.1,0.1,0.1,0.1,0.2,0.1h0.2c0,0,0.1,0,0.1,0l0,0.1l0,0c-0.1,0-0.1,0.1-0.2,0.1
		c0,0,0,0,0,0.1c0.1,0.1,0.1,0.1,0.1,0.1c0,0,0,0.1,0,0.2c-0.1,0-0.1,0-0.2,0c-0.1,0-0.1,0.1-0.2,0.1h0c0,0,0,0-0.1,0
		c0,0-0.1,0-0.1,0c0,0.1-0.1,0.2-0.1,0.2c0,0-0.1,0-0.1,0c-0.3,0.2-0.3,0.2-0.3,0.2c0,0,0,0,0,0.1c0,0,0,0.1,0,0.1
		c0.2,0,0.2,0.1,0.2,0.1c0,0.1-0.2,0.1-0.2,0.3l0,0c0,0,0,0.1,0.1,0.2c0.1,0,0.2-0.1,0.3-0.1c0,0,0,0,0.1,0l0,0c0,0,0,0.1,0,0.1
		c0,0,0,0-0.1,0l0,0c-0.2,0.4-0.2,0.4-0.1,0.5c0.2,0,0.3-0.2,0.5-0.2c0,0.1,0,0.2-0.1,0.3c-0.1,0.1-0.2,0.1-0.3,0.1
		c-0.1,0,0.3,1,0.3,1c0.3,0.4,0.5,0.6,0.7,0.6c0,0,0.1,0,0.1,0c0.1,0,0.1,0,0.2,0l0,0c0.1,0,0.1,0,0.1,0c0,0.3,0.3,0.2,0.5,0.4
		c0.1,0.1,0.6,0.1,0.6-0.2c0,0,0,0,0-0.1c0-0.3,0.6-0.6,0.2-0.9c0,0-0.2-0.2,0.1-0.2c0,0,0,0,0.1,0c0.1,0,0.1,0,0.2,0
		c0.1-0.2,0.1-0.2,0.3-0.3c0-0.1,0-0.2,0-0.3l0,0c0-0.2-0.1-0.2-0.1-0.3l0,0c0.1-0.1,0.2,0,0.3-0.1c0.1-0.1,0-0.1,0-0.2
		c0.1,0,0.3,0,0.4,0c0-0.1,0-0.1,0-0.2c0.1,0,0.1,0,0.2,0c0,0.2,0,0.2,0,0.2c0.2,0,0.3-0.2,0.5-0.2c0,0,0,0,0.1,0c0.1,0,0.1,0,0.2,0
		l0-0.1c0.1-0.1,0.2-0.2,0.3-0.3c0.1,0,0.1,0,0.1-0.2c0,0,0.1,0,0.1,0c0,0,0,0,0-0.1c0.1-0.1,0.1-0.1,0.1-0.2v0l0,0l0.1,0l0,0l0,0
		l0,0l0,0l0,0l0,0c0.1,0,0.1,0,0.2,0c0.1,0,0.3,0.1,0.4,0.1c0.2,0,0.2-0.3,0.4-0.3c0.1,0,0.2-0.1,0.4-0.1c0.2,0,0.1-0.3,0.3-0.3
		c0.1,0,0.2,0,0.3,0c0.1,0,0.1,0,0.1-0.1l0,0l-0.1,0l-0.1,0.1l0,0.1l-0.1,0c0,0,0,0-0.1,0c-0.1,0-0.2-0.1-0.3-0.1c0,0,0,0-0.1,0
		c-0.3,0-0.4-0.1-0.4-0.2c0,0,0-0.1,0-0.1c0.4-0.1,0.4-0.1,0.4-0.1c0.2,0.1,0.2,0.3,0.4,0.3l0,0l0-0.1c0.1,0,0.2,0,0.3,0
		c-0.1-0.2-0.3-0.2-0.5-0.4c-0.1-0.1-0.3-0.1-0.4-0.3l0,0c0.2,0.1,0.2,0.1,0.2,0.1c0,0,0,0,0.1,0l0,0c0-0.1,0-0.1-0.1-0.2
		c0,0,0,0,0-0.1c0-0.1-0.2-0.2-0.3-0.1c0,0-0.1,0-0.1,0l0.1-0.1c0,0,0,0-0.2-0.1l0,0c0.1,0,0.1,0,0.2,0c0,0,0,0.1,0.1,0.1
		c0.1,0,0.1,0,0.2,0l0,0h0c0,0,0,0,0.1,0c0.1,0,0.1,0,0.2,0c0-0.3-0.3-0.1-0.5-0.3l0,0c0.2,0,0.3,0,0.3,0l0-0.1l0,0l0.1,0
		c0,0,0.1,0,0.1,0c-0.1-0.1-0.4-0.2-0.5-0.3c0,0,0,0,0.1,0c0,0-0.1-0.1-0.1-0.1c-0.1,0-0.1,0-0.1-0.1c0,0,0,0,0,0
		c-0.1-0.1-0.3,0-0.4-0.1l0,0c0,0,0,0,0.1,0c0,0,0,0,0.1,0c0,0,0.1,0,0.2,0.1c0,0,0,0,0,0c0,0.1,0,0.1,0.2,0.2l0,0
		c-0.1-0.1-0.2-0.2-0.3-0.2l0,0l0,0c-0.1,0-0.1,0-0.2,0c0,0,0,0-0.1,0l0,0c0,0-0.1-0.1-0.1-0.1l0,0l0,0l0,0c-0.1,0-0.3-0.1-0.4-0.1
		l0,0c0,0-0.1,0-0.2-0.1l0,0c-0.1-0.1-0.1-0.1-0.2-0.1l0.1,0l0,0l0,0c0,0,0,0,0,0c-0.1-0.1-0.1-0.1-0.1-0.1l0,0l0,0l0,0l-0.1,0
		c-0.1,0-0.1,0-0.2,0L163.8,24c0,0.1,0.1,0.1,0.1,0.1l0,0L163.8,24L163.8,24C163.9,24,163.8,24,163.8,24L163.8,24z"/>
	<path class="st0" d="M160.7,23.9C160.7,23.9,160.7,23.9,160.7,23.9L160.7,23.9L160.7,23.9L160.7,23.9l0.1,0L160.7,23.9L160.7,23.9
		l-0.1,0L160.7,23.9L160.7,23.9L160.7,23.9L160.7,23.9L160.7,23.9c-0.1,0-0.1,0-0.2,0l0.1,0l-0.1,0c0,0-0.1,0-0.1,0l0,0l-0.2,0
		c0,0-0.1,0-0.1,0l0,0l0.1,0c-0.1,0-0.3,0-0.4,0l-0.2,0l0.1,0c-0.1,0-0.2,0-0.3,0c0,0,0.1,0,0.1,0l0,0c0.1,0,0.1,0,0.2,0l-0.1,0
		l0.1,0l-0.1,0c-0.1,0-0.2,0-0.3,0l0,0l0.1,0l0,0c-0.1,0-0.2,0-0.3,0l0,0h0l-0.2,0l0,0l-0.2,0l0,0l0,0l-0.2,0c-0.1,0-0.1,0-0.2,0
		l0,0l0,0l0.3,0l0.1,0l0.1,0l-0.2,0l-0.3,0l-0.2,0c0.1,0,0.1,0,0.5-0.1l0,0c0,0,0.1,0,0.1,0l0.2,0l0.2,0c0.1,0,0.2,0,0.3,0l0,0
		l-0.1,0c-0.1,0-0.3,0-0.4,0.1l0.1,0l0,0l0,0l-0.1,0c0,0-0.1,0-0.1,0l-0.1,0l-0.1,0c-0.1,0-0.2,0-0.2,0l0,0l-0.1,0
		c-0.1,0-0.1,0-0.2,0l0,0l-0.1,0l-0.1,0l0.1,0l-0.1,0l-0.1,0c0.2-0.1,0.2-0.1,0.2-0.1l0,0l-0.1,0l-0.2,0l-0.1,0l-0.2,0.1l-0.2,0.1
		l0,0l0.1,0c-0.1,0-0.2,0-0.2,0.1c-0.1,0-0.1,0-0.2,0.1l0.2-0.1l0,0l-0.1,0l-0.1,0l-0.2,0c-0.1,0-0.1,0-0.2,0.1l-0.1,0l0,0
		c0,0,0.1,0,0.1,0l0.1,0l-0.2,0.1l-0.2,0.1c0.1,0,0.1,0,0.5-0.1l-0.2,0.1l-0.3,0.1l-0.1,0l0-0.1l0-0.1c0,0-0.1,0-0.1,0
		c-0.4,0.2-0.4,0.2-0.6,0.2l-0.2,0.1l-0.2,0.1l0,0c0.1,0,0.2,0,0.3-0.1c0,0,0,0,0.3,0l0,0c0.1,0,0.1,0,0.2,0c0,0,0.1,0,0.1,0
		c-0.1,0.1-0.1,0.1-0.2,0.1c0,0,0.1,0,0.1,0c0,0,0.1,0,0.1,0C156,25,156,25,156.2,25l0.1-0.1l-0.2,0.1l0.2-0.1l0.2,0l0.2-0.1
		l0.2-0.1l0.1,0c0.2,0,0.3-0.1,0.5-0.2c0,0,0.1,0,0.1,0c0,0,0.1,0,0.2-0.1l0,0h0l-0.2,0l-0.1,0l0.1-0.1c0.1,0,0.3-0.1,0.4-0.1l0.1,0
		l-0.1,0c0.1,0,0.1,0,0.4-0.1l0.1-0.1l0.1,0l-0.1,0l0.1,0l0.2,0l0.1-0.1l0,0c0,0,0.1,0,0.1,0l0.1,0l0.1,0l0.1,0
		c0.2,0,0.4-0.1,0.6-0.1l0.1,0l0.1,0l0.1,0c-0.1,0-0.1,0-0.3,0l0.1,0l0.1,0h0.1c0,0,0,0,0.1,0c0.1,0,0.2,0,0.2,0
		C160.5,23.9,160.5,23.9,160.7,23.9L160.7,23.9z"/>
	<path class="st0" d="M157,24.4c0.1,0,0.2,0,0.3-0.1c0,0,0,0,0,0l0.2,0c0,0,0.1,0,0.1,0l0.1,0c-0.1,0-0.1,0-0.2,0
		c0,0,0.3-0.1,0.5-0.1c0.1,0,0.2,0,0.3-0.1c-0.1,0-0.2,0-0.2,0l0,0c-0.2,0-0.2,0-0.2,0l-0.1,0c-0.1,0-0.3,0-0.4,0.1l0,0l-0.1,0
		l-0.3,0.1l-0.2,0c-0.1,0-0.2,0-0.3,0.1l0,0c-0.1,0-0.2,0-0.3,0.1l-0.1,0l0.1,0l0.1,0l0.1,0c-0.2,0.1-0.2,0.1-0.3,0.1l-0.1,0l-0.2,0
		l-0.1,0l-0.2,0.1l0,0l0.2,0l0,0l0.2,0l0,0c0,0,0,0,0.2-0.1l0.2-0.1l0,0c0.2-0.1,0.2-0.1,0.2-0.1l0,0
		C156.8,24.5,156.8,24.5,157,24.4L157,24.4z"/>
	<path class="st0" d="M155,24.9c0.1,0,0.4-0.1,0.4-0.1l-0.2,0L155,24.9L155,24.9L155,24.9z"/>
	<path class="st0" d="M154.9,25.5L154.9,25.5l0.2-0.1l-0.1-0.1l-0.1,0l-0.3,0.1l-0.3,0.1l-0.2,0l-0.1,0l-0.2,0l0.2-0.1l0.3-0.1
		l0.2-0.1c0,0-0.1,0-0.1,0c-0.1,0-0.2,0-0.8,0.3l-0.4,0.1l-0.1,0.1l-0.1,0.1l0.2,0c0.1,0,0.2-0.1,0.2-0.1c0,0-0.1,0.1-0.1,0.1l0,0
		c0,0,0,0,0.2,0c0.1,0,0.2,0,0.2,0l0.2,0l0.2-0.1l0,0.1c0.4,0,0.4,0,0.6-0.1C154.7,25.6,154.8,25.5,154.9,25.5L154.9,25.5z"/>
	<path class="st0" d="M152.1,25.8C152.1,25.8,152.1,25.8,152.1,25.8l0.2-0.1L152.1,25.8L152.1,25.8z"/>
	<path class="st0" d="M152.8,25.7l0.3-0.1l0.1-0.1l0.2-0.1l-0.1,0l-0.3,0.1l-0.2,0.1l-0.2,0.1c0,0,0.1,0,0.1,0l0,0L152.8,25.7
		L152.8,25.7z"/>
	<path class="st0" d="M153.9,25.2l0.3-0.1l0.2-0.1l0.1-0.1c0,0-0.1,0-0.1,0l0,0l-0.1,0l-0.3,0.1L153.9,25.2L153.9,25.2L153.9,25.2
		L153.9,25.2z"/>
	<path class="st0" d="M155,24.8c0.1,0,0.1,0,0.2-0.1C155.2,24.8,155.1,24.8,155,24.8C155.1,24.8,155,24.8,155,24.8l-0.2,0
		c-0.1,0-0.1,0-0.2,0.1l0.1,0l0.1,0L155,24.8L155,24.8z"/>
	<polygon class="st0" points="155.3,24.7 155.5,24.7 155.6,24.6 155.6,24.6 155.7,24.5 155.6,24.6 155.4,24.6 155,24.7 155,24.7 
		155.1,24.7 155.3,24.7 155.3,24.7 	"/>
	<path class="st0" d="M156.4,24.4l0.1,0l0.3-0.1l0.1,0l0,0c-0.1,0-0.2,0-0.3,0.1l0,0L156.4,24.4L156.4,24.4z"/>
	<polygon class="st0" points="154.6,24.8 154.8,24.8 155.1,24.7 155.2,24.6 155.4,24.6 155.5,24.5 155.6,24.5 155.5,24.5 
		155.7,24.5 155.8,24.4 155.7,24.4 155.5,24.5 155.3,24.5 155.4,24.5 155.3,24.6 155,24.6 154.9,24.6 154.7,24.7 154.8,24.7 
		154.7,24.7 154.8,24.7 154.8,24.7 154.9,24.7 154.6,24.8 154.6,24.8 	"/>
	<polygon class="st0" points="154.3,24.9 154.4,24.8 154.5,24.8 154.5,24.8 154.2,24.9 154.3,24.9 154.3,24.9 	"/>
	<path class="st0" d="M153.4,25.3c0,0,0.3-0.1,0.3-0.1C153.7,25.1,153.6,25.1,153.4,25.3l0.2-0.2l-0.1,0c-0.5,0.2-0.5,0.2-0.5,0.2
		l0,0l0,0L153.4,25.3l-0.2-0.1l-0.2,0.1l-0.3,0.1l0.1-0.1l0.4-0.2l0.1-0.1l-0.4,0.1c-0.2,0.1-0.3,0.1-0.5,0.2l0,0.1l0.1,0l0.1,0
		l-0.1,0.1l-0.3,0.2l0.2,0l0.1,0l0.1,0l0.2-0.1c0.1,0,0.2-0.1,0.3-0.1C153.3,25.3,153.4,25.3,153.4,25.3L153.4,25.3z"/>
	<path class="st0" d="M152.1,25.6C152.2,25.5,152.2,25.5,152.1,25.6L152.1,25.6C152.1,25.5,152.1,25.6,152.1,25.6l-0.3,0.1
		C151.9,25.6,151.9,25.6,152.1,25.6L152.1,25.6z"/>
	<path class="st0" d="M153.6,25l0.2,0l0.3-0.1l0.1-0.1C154,24.9,153.8,24.9,153.6,25L153.6,25z"/>
	<path class="st0" d="M152,28.5l0.3-0.2l0.1-0.2c-0.4,0-0.4,0-0.4,0c0,0-0.1,0.1-0.4,0.2l-0.1,0.2l0.2,0L152,28.5L152,28.5z"/>
	<path class="st0" d="M152.2,26.1c0.4-0.2,0.4-0.2,0.4-0.2l0,0c0,0-0.1,0-0.1,0l0-0.1c-0.2,0-0.2,0-0.3,0c-0.3,0.2-0.3,0.2-0.5,0.2
		c-0.2,0.1-0.3,0.2-0.5,0.3c-0.1,0.1-0.3,0.2-0.4,0.3l0.2,0l0.3-0.1l0.3-0.1l0.1,0l0.3-0.1L152.2,26.1L152.2,26.1z"/>
	<path class="st0" d="M150.3,26.8l0.4-0.2l0.2-0.1l0.1-0.1l0.1-0.1c0.4-0.1,0.4-0.1,0.6-0.3l0.1-0.1l-0.1,0l-0.2,0.1l0,0l0,0l-0.2,0
		l-0.2,0.1l-0.2,0.1c-0.4,0.2-0.4,0.2-0.5,0.2c0,0,0,0,0.1-0.1l-0.1,0l-0.2,0.1l-0.1,0.1l-0.1,0.1l0,0c-0.3,0.2-0.3,0.2-0.3,0.3
		c0,0,0.1,0,0.3-0.1L150.3,26.8L150.3,26.8z"/>
	<path class="st0" d="M150.3,26.3l0.3-0.2l0.1-0.1l-0.1,0c-0.1,0-0.2,0.1-0.2,0.1L150.3,26.3c0-0.1,0,0-0.2,0.1L150.3,26.3
		L150.3,26.3z"/>
	<polygon class="st0" points="150.3,26.2 150.5,26.1 150.4,26.1 150.2,26.2 150.3,26.2 150.3,26.2 	"/>
	<path class="st0" d="M154.5,24.7c0.2,0,0.2,0,0.3-0.1l-0.1,0l-0.1,0l-0.3,0.1l0,0l0.1,0C154.4,24.7,154.4,24.7,154.5,24.7
		L154.5,24.7L154.5,24.7z"/>
	<polygon class="st0" points="153.9,24.8 154.2,24.8 154.1,24.8 154,24.8 153.9,24.8 153.7,24.9 153.3,25 153.3,25 153.4,25 
		153.5,25 153.7,24.9 153.9,24.8 153.9,24.8 	"/>
	<polygon class="st0" points="153.6,24.9 153.6,24.9 153.9,24.8 154,24.8 153.9,24.8 153.7,24.8 153.6,24.9 153.6,24.9 	"/>
	<path class="st0" d="M151.9,25.6l0.5-0.2l0.1-0.1l0,0l-0.2,0.1l0.1,0l0.2-0.1c0.1,0,0.2-0.1,0.2-0.1l0.2-0.1l-0.1,0l-0.2,0.1
		l-0.1,0l-0.2,0.1c-0.1,0.1-0.1,0.1-0.5,0.2l0,0c-0.2,0.1-0.2,0.1-0.2,0.1c0,0-0.1,0-0.1,0l0.1-0.1l0.3-0.1l0.1,0l0,0l0.1,0l0,0
		l-0.2,0.1l-0.4,0.1l-0.3,0.1l-0.3,0.1l-0.3,0.1l0.1,0l0,0l0.1,0l0.2,0l0,0l0.1,0c-0.1,0-0.1,0-0.2,0.1l-0.1,0l-0.2,0.1l-0.2,0.1
		l-0.1,0c0,0,0.1,0,0.1,0l0.3-0.1l0.3-0.1l0.1,0c0,0,0.1,0,0.1,0c0,0,0.1,0,0.1,0L151.9,25.6L151.9,25.6z"/>
	<path class="st0" d="M152.6,25.2L152.6,25.2l0.3-0.1c-0.1,0-0.1,0-0.1,0l0,0L152.6,25.2L152.6,25.2z"/>
	<polygon class="st0" points="151.2,25.6 151.7,25.4 151.5,25.5 151.2,25.6 151.2,25.6 151.2,25.6 	"/>
	<path class="st0" d="M152.9,25.1l0.3-0.1l0.1,0L153,25L152.9,25.1c0,0-0.9,0.2-0.9,0.2l0,0l-0.2,0.1l-0.3,0.1l-0.1,0.1l0.3-0.1
		l-0.2,0.1l0.2-0.1l0.2-0.1l0.1,0l0.3-0.1l0.2-0.1l-0.3,0.1l0.1,0l0.2-0.1L152.9,25.1L152.9,25.1z"/>
	<path class="st0" d="M148.3,27.7l0.2-0.1l0.1-0.1l0-0.1l0.2-0.2l0.4-0.2l0.1-0.1l0.5-0.2l0.2-0.2l0.1-0.1c0,0-0.1,0-0.1,0
		c-0.1,0.1-0.2,0.1-0.4,0.2l-0.2,0.1l-0.3,0.2l-0.2,0.1l0,0l0.1-0.1l0.2-0.1l0.2-0.1l0.3-0.2l-0.1,0l-0.2,0.1l-0.2,0.1
		c0,0-0.1,0-0.1,0l-0.2,0.1l-0.1,0l0.2-0.1l0.3-0.1l0,0l0,0l-0.1,0l-0.3,0.1l0,0l0.2-0.1l0.3-0.1l0,0l-0.1,0l-0.3,0.1l-0.2,0.1
		l-0.2,0l-0.3,0.1l-0.3,0.2l-0.3,0.1l-0.2,0.1l0,0l-0.1,0.1l0.2-0.1l0.1,0l-0.1,0.1l-0.2,0.1l-0.2,0.1l-0.2,0.1l-0.1,0.1
		c0,0,0.1,0,0.1,0l0.2,0c0,0,0.1,0,0.1,0c-0.1,0.1-0.1,0.1-0.3,0.2l-0.2,0c-0.1,0-0.1,0-0.2,0l-0.3,0.1l-0.4,0.2l0.1,0
		c0,0,0.1,0,0.1,0l-0.3,0.2l-0.1,0.1c0.1,0,0.1,0,0.2,0l0.2,0l0.3-0.1l0.2-0.1l0.3-0.1l0.2-0.1l-0.1,0.1l0.1,0l-0.1,0.2l0.1,0l0.2,0
		l0.3-0.2l0.1-0.1l0.1,0L148.3,27.7L148.3,27.7z"/>
	<polygon class="st0" points="146.9,28.2 147.1,28.1 146.8,28.2 146.4,28.3 146.4,28.4 146.7,28.3 146.9,28.2 146.9,28.2 	"/>
	<path class="st0" d="M149.3,26.4l0.2-0.1l0.3-0.1l0.3-0.1l0,0l-0.3,0.1L150,26l0.1-0.1l0,0l-0.2,0c-0.1,0-0.2,0.1-0.2,0.1
		L149.3,26.4l-0.7,0.2l-0.9,0.4l-0.1,0.1l-0.5,0.3l0.4-0.2l0.1,0l0.3-0.1c0.4-0.2,1.1-0.5,1.1-0.5L149.3,26.4L149.3,26.4z"/>
	<path class="st0" d="M154.9,36.1l0.2-0.2l-0.2-0.2l0.2-0.2l0.1-0.3l-0.4-0.1l0-0.2c-0.2,0-0.3,0-0.5,0l-0.4,0.2l-0.3,0.2l-0.2-0.1
		l0.2-0.2l0.5-0.1l0.6-0.1l0.3-0.2l-0.3,0l-0.3-0.2l-0.4-0.1l-0.2-0.2l-0.2-0.2l0-0.2l0.2,0l0.1-0.2l-0.2-0.3l-0.2-0.4l-0.2-0.7
		l0-0.3l-0.5,0.4c0,0.1-0.1,0.2-0.1,0.3l-0.4,0.1l-0.3,0.2l-0.3,0l0-0.2l-0.1-0.2l-0.3,0.1l0.3-0.4c0.1-0.2,0.2-0.3,0.3-0.5l0.1-0.3
		l-0.3,0l-0.2-0.2L151,31l-0.2-0.3l-0.2,0.1l-0.3,0l-0.1-0.1c-0.1,0-0.3,0-0.4,0l-0.3,0.2l0,0.3l-0.3,0.4l-0.1,0.2l-0.1,0.3
		c-0.1,0-0.1,0-0.2,0l-0.2,0.3l-0.2,0.2l0.1,0.1l0.1,0.2l-0.2,0.4c-0.1,0.2-0.2,0.3-0.3,0.5l-0.4,0.3l-0.4,0.3l-0.4,0.1l0,0.4
		c-0.1,0.2-0.2,0.4-0.3,0.6l0,0.3l-0.2,0.3l-0.3,0.3l-0.5,0.1l0-0.5l-0.1-0.4c0.1-0.1,0.1-0.2,0.2-0.3l0.2-0.5l0.3-0.4l-0.4-0.1
		l-0.3,0l-0.1-0.1l-0.4-0.1l0-0.2l-0.2-0.2l-0.2-0.2l-0.6,0.2l0.1-0.2l0.2-0.5l-0.1-0.1l0-0.2l0.6-0.7l0.6-0.5l0.6-0.4l0.4-0.2
		l0.4-0.2l0.1-0.2l-0.2-0.1l-0.2-0.1l0.3,0.1l0.2,0.1l0.2-0.1l0.3-0.2l0.2,0.1l0.2-0.1l0.2-0.2l0.2-0.1l0.3-0.2l-0.2,0l-0.2,0l0-0.1
		l-0.1-0.1l0.2,0l0.2,0.1l0.1,0.1l0.3-0.1l0.4-0.2l0-0.2c0.1,0,0.1,0,0.2,0l0,0.2l-0.3,0.2l-0.4,0.3c-0.1,0.1-0.3,0.3-0.4,0.4
		l-0.3,0.1l-0.1,0.2l0.2,0c-0.1,0.1-0.1,0.1,0,0.2c0.1,0,0.1,0,0.2-0.1l0.3-0.2l0.3,0l0.1,0l0.1,0.1c0.1,0,0.2,0,0.3,0l0.2-0.2
		l-0.2-0.1l0.1-0.3l-0.3,0l0-0.2l-0.2-0.1c0.1-0.1,0.1-0.1,0.2-0.2l0.1,0l0.2-0.1l0.1-0.1c0.1,0,0.1,0,0.2,0l0.3-0.2l0.4-0.2
		l0.2-0.2l0.1-0.2l0.2-0.3l0.2,0l0.3-0.2l0.1-0.2l-0.1-0.1l-0.1-0.1c0.1,0,0.2,0,0.3,0l0.1-0.1l0.2,0l0,0.1l0.2,0l0.3-0.1l0-0.2
		l0.2,0l-0.1,0.2l0.2,0l-0.1,0.2l0.1,0l-0.1,0.1l0.1,0.1l-0.1,0.2l0.1,0.1l0,0.2l-0.2,0.2l-0.5,0.3l-0.4,0.3l-0.1,0.3l-0.5,0.1
		l-0.2-0.1c-0.1,0-0.2,0-0.2,0l-0.5,0.2c-0.1,0.1-0.1,0.2-0.2,0.2l0.3,0.1l0.3,0l0.2-0.1l0.2-0.1l0.1,0l0.3,0.1l0.1,0.3l0,0.2
		l0.1,0.2c0.1,0,0.2,0,0.3,0l0.1,0.3l0.5,0l0.3,0.1l0.1-0.2l-0.3-0.4l-0.1-0.2l0-0.2l0.2,0.2l0.4,0.3l0.2,0.2c0-0.1,0.1-0.2,0.1-0.3
		l0.3-0.3l-0.2-0.2l0.1-0.4l-0.3-0.1l-0.1-0.5l0.2-0.1l0.2-0.1l0.3,0.4l0.1,0.3l0.2,0l0.3-0.3l0.4-0.1l0.1-0.1c0.1,0,0.1,0,0.2,0
		l0.2-0.1l0.1-0.2c-0.1,0-0.3,0-0.4,0c0,0,0-0.1,0.1-0.1l-0.1-0.2l-0.2,0l-0.2-0.1c-0.1,0-0.1,0-0.2,0l0-0.1l0-0.1
		c-0.1,0-0.2,0-0.3,0l-0.1,0c0.1-0.1,0.1-0.1,0.2-0.2c0.1,0,0.1,0,0.2,0l0.2-0.1l-0.2-0.1l0.1-0.1l0.2,0l0-0.1l-0.2-0.1l0.2-0.1
		l-0.1-0.1l-0.3,0l0.1-0.1l-0.2,0l-0.1,0l0.3-0.1l-0.1-0.1l-0.3,0.1l0-0.2l0.1-0.1l-0.1,0l0.1-0.1l-0.1-0.1c-0.1,0-0.2,0-0.3,0
		l-0.2,0.1l-0.2,0l-0.1,0l-0.2,0.1l-0.2,0l0.2-0.1l0.3-0.1l0.1-0.2l0.2-0.2c-0.1,0-0.2,0-0.2,0l-0.3,0.1l-0.2,0l-0.2,0.1l-0.3,0.2
		l-0.2,0.2l-0.2,0.1l-0.2,0.2l-0.2,0l0.1-0.2l0.3-0.3l0.2-0.2l0.4-0.2l0.4-0.1c-0.1,0-0.1,0-0.2,0l-0.3,0l-0.5,0.2l-0.6,0.3
		l-0.6,0.4l0.1,0l0.1,0l-0.2,0.1l-0.1,0l-0.3,0.1l-0.1,0.2c0.1,0,0.1,0,0.2,0l0.2-0.1l0,0.1l0.1,0.1l-0.2,0.1l-0.2,0.2l0,0.1
		l-0.6,0.4l-0.4,0.3l-0.4,0.2l0-0.1l0.3-0.3l0.3-0.2l0.1-0.3l-0.5,0.2l0.3-0.4l0,0l0.3-0.2l0.3-0.2l-0.1,0l0.3-0.2l0.1-0.2l-0.2,0
		l-0.2,0.1l-0.1,0l-0.4,0.2l-0.2,0.2l-0.2,0.1l-0.1,0.2l0,0.1l-0.3,0.2l-0.1,0l-0.3,0.2l0.2,0l0.4-0.2c-0.1,0.1-0.2,0.2-0.3,0.2
		l-0.6,0.3l-0.4,0.4l0-0.2l0.4-0.2c0,0-0.1,0-0.1,0l0.3-0.2c0,0,0.1,0,0.1,0l0.4-0.3l0-0.2l-0.4,0.2l-0.3,0.1l-0.1,0.2l-0.3,0.2
		l-0.3,0.2l-0.5,0.1l0-0.1l-0.1,0l0.1-0.2l-0.3,0.2l-0.4,0.2l-0.3,0.2l-0.5,0.4l0.5-0.4l0.1-0.1l-0.3,0.1l-0.3,0l0.2-0.1l0.3-0.1
		l0.2-0.2l-0.1,0L146,28l0.2-0.2l0,0l-0.1,0l-0.3,0.1l-0.1,0l0.5-0.3l-0.5,0.3l0,0l0.6-0.4l0.1,0l-0.5,0.2l-0.3,0.2l-0.1,0.1
		l-0.3,0.1l-0.3,0.2l0.5-0.3l0.2-0.1l0.2-0.1l0.2-0.1l0,0l-0.3,0.1l-0.3,0.2l0,0l0,0c-0.9,0.5-2.1,1.3-3,1.9c-1.4,1-1.4,1-3.9,3.3
		l-0.4,0.4l0.1-0.1l-0.1,0.2l-0.2,0.3l-0.1,0.1l-0.2,0.3l-0.1,0.2l-0.2,0.2l-0.1,0.1l0,0l-0.2,0.3l-0.2,0.3l-0.3,0.3l-0.2,0.3l0,0
		l-0.3,0.4l-0.2,0.4l-0.2,0.3l-0.1,0.2l0,0.1l0,0.1l-0.1,0.2l-0.1,0.3l-0.1,0.2l-0.3,0.5c-0.1,0.1-0.2,0.3-0.3,0.4l0.1-0.3l0.1-0.3
		l0.1-0.2l0.1-0.2v-0.1l0.2-0.3l-0.1,0l0.1-0.2l0-0.1v-0.1l-0.1,0.1l-0.2,0.3l-0.1,0.2l-0.1,0.2l-0.1,0.4l-0.2,0.4l-0.3,0.5
		l-0.3,0.4l-0.3,0.6c-0.1,0.2-0.2,0.4-0.4,0.7l-0.1,0.2c-0.1,0.1-0.1,0.3-0.2,0.5l-0.2,0.5l-0.2,0.5l-0.1,0.4l-0.1,0.3l-0.2,0.5
		l-0.1,0.4l0,0.3l-0.2,0.7l0,0.3l-0.1,0.4l0,0.4v0c0,0,0.1,0,0.1,0l0,0.3l0.1,0.2l0,0.3l-0.1,0.4l0,0.4l-0.1,0.7l0.1,0.3l0.1,0.4
		l0,0.3l-0.2,0.3l0,0.3l0.1,0.3l0.1,0.3L132,51l-0.1,0.3l0,0.2l0.1,0.1l0.1,0.3l0.1,0.3l0,0.3l0.1-0.1l0.1-0.4l0-0.4l-0.1-0.2l0-0.4
		l-0.1-0.3v-0.5l0-0.4l-0.1-0.3l0-0.4l-0.1-0.1l0-0.5l-0.1-0.4l0.1-0.6l0.1,0l0.1,0.2l0,0.3l-0.1,0.5l0.1,0.6l0.1,0.5l0.1,0.4
		l0.1,0.4l0,0.4l0.2,0.3l0.1,0.4l0.1,0.4l0.2,0.6l0.1,0.5l0.1,0.2l-0.2,0.2l-0.1,0.3l0.3,0.5l0.3,0.4l0.3,0.2l0.3,0.4l0.4,0.3
		l0.5,0.4l0.4,0.2l0.3,0l0.1-0.2l0.3-0.1l0.3,0.3l0.4,0.5l0.2,0.4c0.1,0,0.2,0,0.3,0c0,0,0.1,0,0.1,0l0.2,0.1l0.2,0.4l0.4,0.2l0-0.3
		l0.2,0.2c0.8,1.3,0.8,1.3,0.7,1.6l0.2,0.2l0.2-0.1l0.3,0.2c0.5,0.6,0.5,0.6,0.8,0.6l0.7,0.4l0.4,0.2l-0.1-0.4l0.1-0.3l0.6,0
		l0.1,0.3l0.2,0l0.1-0.4l-0.2-0.3c-0.2,0-0.4,0-0.6,0l-0.4,0l-0.6,0l-0.3-0.2l-0.4-0.5l0-0.4c0-0.2,0-0.4,0-0.6l0.1-0.7
		c0-0.2,0-0.3,0-0.5l-0.2-0.4l-0.4-0.2l-0.5,0.1l-0.4-0.1l-0.4,0.2l-0.3-0.2l0.2-0.3c0-0.1,0-0.2,0-0.2c0-0.1,0-0.2,0-0.3l0.1-0.3
		l0.1-0.5c0-0.2,0-0.4,0-0.6l0.2-0.2l0.1-0.4l-0.2-0.2l-0.6,0.1l-0.4,0.1l-0.2,0.4l-0.2,0.6l-0.2,0.5l-0.3,0.1l-0.4,0.2l-0.4,0.1
		l-0.2-0.4l-0.3-0.3l-0.1-0.4l-0.2-0.6l-0.1-1l0-0.7l0.2-0.6l0.2-0.6l-0.1-0.6l0.4-0.6l0.3,0l0.3-0.3l0.3-0.4l0.3,0.1l0.2,0.1
		l0.2-0.1l0.1,0.3c0.1,0,0.2,0,0.3,0l0.3,0l0-0.3l0.2-0.4l0.4,0l0.3-0.1l0.5,0.1l0.2,0.4c0.1,0,0.1,0,0.2,0l0.2-0.2l0.2-0.1l0.2,0.3
		l0.2,0.4c0,0.2,0,0.3-0.1,0.5l0.1,0.3l0,0.3l0.2,0.2l0.1,0.3l0.2,0.2l0,0.4l0.2,0.1l0.2-0.2l0.1-0.4l-0.1-0.5l0-0.7l-0.2-0.6
		c0-0.3,0.1-0.5,0.2-0.9c0.1-0.1,0.1-0.3,0.2-0.4l0.3-0.6l0.4-0.2l0.5-0.4l0.5-0.3l0.4-0.2l0.1-0.3l0.3-0.2l-0.1-0.5l-0.1-0.2
		l0.1-0.3l-0.1-0.3l0.3-0.2l0.2,0.4l0.2-0.4l0.2-0.3l0.2-0.2l0.4-0.7c0.2,0,0.4,0,0.6,0l0.4-0.2l0.4-0.1l0-0.3l0.1-0.6l0.4-0.4
		c0.1,0,0.2,0,0.3,0l0.2-0.3l0.5,0l0.5-0.3l0.3-0.3c0.8,0,0.8,0,1,0.1c0,0-0.1,0.1-0.2,0.1c-0.2,0-0.4,0-0.6,0
		c-0.4,0.3-0.4,0.3-0.4,0.6l0.2,0.1l0.3-0.2l0.2-0.1l0.4-0.1l0.5-0.2l0.4-0.1l0.4-0.4l0.4-0.3l0.1-0.3l-0.5,0.1l-0.4,0.5l-0.5,0
		l-0.4-0.2l-0.3-0.3l-0.1-0.6L151,38l0.1-0.5l-0.5,0l-0.6,0.2l-0.7,0.4l-0.8,0.6l-0.6,0.4l0.3-0.3l0.4-0.4l0.2-0.2l-0.4-0.1
		c0.2,0,0.4,0,0.6,0l0.2-0.3l0.4-0.3l0.4,0l0.3-0.3l0.4-0.1c0.2,0,0.3,0,0.5,0l1,0l0.5,0.1l0.4,0l0.5-0.3l0.4-0.4l0.7-0.1
		L154.9,36.1L154.9,36.1z"/>
	<path class="st1" d="M7.2,51.6c0.7,0.3,1.2,0.6,1.6,1.1c0.4,0.5,0.7,1.2,0.9,2.1l1.3,6.7H7.2l-1-5.5c-0.1-0.4-0.1-0.7-0.2-1
		c-0.1-0.3-0.2-0.6-0.3-0.8c-0.1-0.2-0.3-0.4-0.5-0.5c-0.2-0.1-0.5-0.2-0.8-0.2H3.8v8.1H0V42.2h3.8v8h0.4c0.4,0,0.8-0.2,1.2-0.7
		c0.3-0.4,0.6-1.1,0.7-1.9l1-5.4h3.6l-1.2,5.9c-0.2,0.9-0.5,1.6-0.9,2.2c-0.4,0.5-0.9,0.9-1.4,1.2V51.6L7.2,51.6z M17.3,42.2
		c0.8,0,1.6,0.1,2.2,0.3c0.7,0.2,1.2,0.5,1.7,1c0.5,0.5,0.8,1.1,1.1,1.8c0.3,0.8,0.4,1.7,0.4,2.9c0,2-0.4,3.5-1.3,4.6
		c-0.8,1.1-2.2,1.7-4.1,1.7h-0.9v7.1h-3.8V42.2H17.3L17.3,42.2z M16.5,45.8v5h0.6c0.2,0,0.5,0,0.7-0.1c0.2-0.1,0.4-0.2,0.6-0.4
		c0.2-0.2,0.3-0.5,0.4-0.8c0.1-0.4,0.2-0.8,0.2-1.4c0-0.9-0.2-1.5-0.5-1.8c-0.3-0.4-0.8-0.5-1.4-0.5H16.5L16.5,45.8z M30.5,46.8
		c0-0.4-0.1-0.7-0.3-0.9c-0.2-0.2-0.5-0.3-0.8-0.3c-0.3,0-0.6,0.1-0.8,0.3c-0.2,0.2-0.3,0.5-0.3,0.9V57c0,0.4,0.1,0.8,0.3,0.9
		c0.2,0.2,0.5,0.3,0.8,0.3c0.3,0,0.6-0.1,0.8-0.3c0.2-0.2,0.3-0.5,0.3-0.9V46.8L30.5,46.8z M34.3,56.8c0,1.7-0.4,2.9-1.3,3.7
		c-0.8,0.8-2.1,1.2-3.7,1.2c-3.3,0-4.9-1.6-4.9-4.9v-9.9c0-1.7,0.4-2.9,1.3-3.7c0.9-0.8,2.1-1.2,3.6-1.2c1.7,0,2.9,0.4,3.7,1.2
		c0.8,0.8,1.2,2,1.2,3.7V56.8L34.3,56.8z M42.9,47.7c0-0.8-0.1-1.3-0.4-1.5c-0.3-0.3-0.7-0.4-1.3-0.4h-0.4v3.8h0.5
		C42.3,49.7,42.9,49,42.9,47.7L42.9,47.7z M43.1,55.3c0-0.8-0.1-1.3-0.4-1.7c-0.3-0.3-0.7-0.5-1.2-0.5h-0.7V58h0.7
		c0.4,0,0.6-0.1,0.8-0.2c0.2-0.1,0.4-0.3,0.5-0.6c0.1-0.2,0.2-0.5,0.2-0.8C43,56,43.1,55.7,43.1,55.3L43.1,55.3z M44.4,51.4
		c0.4,0.1,0.8,0.4,1.1,0.6c0.3,0.3,0.5,0.6,0.7,1c0.2,0.4,0.3,0.8,0.4,1.2c0.1,0.4,0.1,0.9,0.1,1.3c0,2.1-0.5,3.6-1.4,4.6
		c-0.9,1-2.3,1.5-4.1,1.5H37V42.2h4.4c1.7,0,3,0.5,3.9,1.4c0.9,0.9,1.3,2.3,1.3,4c0,0.4,0,0.8-0.1,1.2c-0.1,0.4-0.2,0.7-0.4,1.1
		c-0.2,0.3-0.4,0.6-0.7,0.9c-0.3,0.3-0.6,0.5-1,0.6V51.4L44.4,51.4z M49.4,61.6V42.2h8.9v3.6h-5.1v4.1h4.5v3.6h-4.5V58h5.1v3.6H49.4
		L49.4,61.6z M70.6,42.2v19.4h-3.7V45.8h-2v7.3c0,1.3-0.1,2.5-0.2,3.5c-0.1,1-0.3,1.8-0.7,2.5c-0.3,0.7-0.8,1.3-1.4,1.7
		c-0.6,0.5-1.4,0.9-2.3,1.2l-1.3-2.9c0.6-0.3,1.1-0.7,1.4-1c0.3-0.4,0.6-0.8,0.7-1.2c0.2-0.5,0.3-1,0.3-1.6c0-0.6,0-1.3,0-2.2V42.2
		H70.6L70.6,42.2z M73.6,61.6V42.2h3.8v7.1h1c1.9,0,3.2,0.5,4.1,1.5c0.8,1,1.2,2.5,1.2,4.5c0,1.1-0.1,2-0.4,2.8
		c-0.3,0.8-0.6,1.4-1.1,1.9c-0.5,0.5-1.1,0.9-1.7,1.1c-0.7,0.2-1.4,0.3-2.1,0.3H73.6L73.6,61.6z M78,58c0.6,0,1-0.2,1.4-0.6
		c0.3-0.4,0.5-1.1,0.5-1.9c0-0.6-0.1-1-0.2-1.3c-0.1-0.3-0.3-0.6-0.4-0.7c-0.2-0.2-0.4-0.3-0.6-0.3C78.5,53,78.2,53,78,53h-0.6v5H78
		L78,58z M91.7,61.6v-8h-2.4v8h-3.8V42.2h3.8v7.7h2.4v-7.7h3.8v19.4H91.7L91.7,61.6z M98.3,61.6V42.2h3.8v7.1h1
		c1.9,0,3.2,0.5,4.1,1.5c0.8,1,1.2,2.5,1.2,4.5c0,1.1-0.1,2-0.4,2.8c-0.3,0.8-0.6,1.4-1.1,1.9c-0.5,0.5-1.1,0.9-1.7,1.1
		c-0.7,0.2-1.4,0.3-2.1,0.3H98.3L98.3,61.6z M102.7,58c0.6,0,1-0.2,1.4-0.6c0.3-0.4,0.5-1.1,0.5-1.9c0-0.6-0.1-1-0.2-1.3
		c-0.1-0.3-0.3-0.6-0.4-0.7c-0.2-0.2-0.4-0.3-0.6-0.3c-0.2,0-0.5-0.1-0.7-0.1H102v5H102.7L102.7,58z M109.8,61.6V42.2h3.8v19.4
		H109.8L109.8,61.6z M120.1,37.4c0,0.2,0.1,0.4,0.2,0.7c0.1,0.2,0.2,0.4,0.4,0.6c0.2,0.2,0.3,0.4,0.5,0.5c0.2,0.1,0.4,0.2,0.6,0.2
		c0.3,0,0.5-0.1,0.7-0.2c0.2-0.1,0.4-0.3,0.5-0.5c0.1-0.2,0.2-0.4,0.3-0.6c0.1-0.2,0.1-0.4,0.1-0.7h2.6c0,0.4-0.1,0.9-0.3,1.4
		c-0.2,0.5-0.4,1-0.8,1.4c-0.3,0.4-0.8,0.8-1.3,1.1c-0.5,0.3-1.1,0.4-1.9,0.4c-0.8,0-1.4-0.1-2-0.4c-0.5-0.3-1-0.6-1.3-1.1
		c-0.3-0.4-0.6-0.9-0.8-1.4c-0.2-0.5-0.3-1-0.3-1.4H120.1L120.1,37.4z M123,51.4l-3,10.1h-3.7V42.2h3.7v10.3h0.1l3-10.3h3.8v19.4
		h-3.8L123,51.4L123,51.4L123,51.4z M93.8,80.9L93,78.5l-0.9-2.9h-0.1v9.1h-3.8V65.4h3.5l1.9,5.2l1.3,3.8h0.2l1.3-3.9l1.9-5.1h3.5
		v19.4h-3.8v-9H98l-0.9,3l-0.7,2.3H93.8L93.8,80.9z M111.1,74.6l-3,10.1h-3.7V65.4h3.7v10.3h0.1l3-10.3h3.8v19.4h-3.8L111.1,74.6
		L111.1,74.6L111.1,74.6z M122.2,65.4c0.8,0,1.6,0.1,2.2,0.3c0.7,0.2,1.2,0.5,1.7,1c0.5,0.5,0.8,1.1,1.1,1.8
		c0.3,0.8,0.4,1.7,0.4,2.9c0,2-0.4,3.5-1.3,4.6c-0.8,1.1-2.2,1.7-4.1,1.7h-0.9v7.1h-3.8V65.4H122.2L122.2,65.4z M121.4,69v5h0.6
		c0.2,0,0.5,0,0.7-0.1c0.2-0.1,0.4-0.2,0.6-0.4c0.2-0.2,0.3-0.5,0.4-0.8c0.1-0.4,0.2-0.8,0.2-1.4c0-0.9-0.2-1.5-0.5-1.8
		c-0.3-0.4-0.8-0.5-1.4-0.5H121.4L121.4,69z"/>
	<path class="st2" d="M152.5,0c7.2,5.7,18.8,14.2,26.5,20l-0.5-0.1c-4.4-2.2-9.4-3.5-14.6-3.7l-11.2-8.6l-44.2,27.9H56.8l56.9-21.2
		v6.1h3.1V5.2h5.4v6.1L152.5,0L152.5,0z"/>
	<path class="st2" d="M164.8,91.8c19.9,0,36-16.1,36-35.9c0-19.8-16.1-35.9-36-35.9c-12.6,0-23.8,6.5-30.2,16.3
		c6.1-8.6,16.1-14.2,27.3-14.2c18.5,0,33.5,15.1,33.5,33.8s-15,33.8-33.5,33.8c-11.3,0-21.3-5.6-27.3-14.2
		C141.1,85.3,152.2,91.8,164.8,91.8L164.8,91.8z"/>
	<path class="st0" d="M156.5,63.5c0.9-5.9,2.4-11.4,4.5-16.5c-0.9,1.8-1.6,3.6-2.3,5.5c-2.1-0.7-4-1.5-5.6-2.5c2-3.9,4.3-7.5,7-11
		c-2.8,3.4-5.3,6.9-7.3,10.7c-1.5-1-2.9-2.1-3.9-3.4c2.3-2.9,4.7-5.7,7.1-8.5c-2.8,2.7-5.2,5.5-7.1,8.5c-0.9-1-1.5-2.2-2-3.4
		c3.4-4.1,0.2-0.6-0.1-0.3l0-0.1l0,0.1c-0.7,0.9-1.3,1.8-1.9,2.8c0.7-0.8,1.3-1.7,2-2.5c0.9,3.1,3,5.3,5.9,7
		c-1.7,3.2-3,6.6-3.9,10.3c-0.8-0.6-1.4-1.3-2.1-2.1c0.6,0.9,1.2,1.7,2,2.4c-0.2,1.1-0.5,2.2-0.6,3.3c0.3-1.1,0.5-2.1,0.8-3.1
		c1.9,1.6,4.3,2.5,7,2.9c-0.1,0.4-0.1,0.7-0.2,1.1l0.7-0.2c0-0.3,0.1-0.6,0.1-0.9c0.6,0.1,1.1,0.2,1.4,0.2l0.4-0.2
		C157.7,63.7,157.1,63.6,156.5,63.5L156.5,63.5z M155.2,78.9c0.1,1,0.1,1.9,0.2,2.9c-0.4-0.3-0.9-0.6-1.3-1c0.4,0.5,0.8,0.9,1.3,1.2
		c0.1,1.2,0.3,2.4,0.5,3.6c-0.1-1.2-0.2-2.3-0.2-3.5c2.6,2,5.8,2.6,9.6,2.3c0.1,0.7,0.2,1.5,0.2,2.2c0-0.7-0.1-1.5-0.1-2.2
		c1.4-0.1,2.9-0.3,4.5-0.7c-1.6,0.3-3.1,0.4-4.5,0.5c0-0.7-0.1-1.5-0.1-2.2l-0.2,0c0.1,0.8,0.1,1.5,0.2,2.3
		c-3.7,0.1-6.9-0.6-9.6-2.4c0-0.9-0.1-1.8-0.1-2.6L155.2,78.9L155.2,78.9z M155.9,63.4c-2.7-0.5-5.1-1.5-7-2.9c1.1-3.6,2.4-7,4-10.2
		c1.7,0.9,3.6,1.7,5.7,2.3C157.4,56,156.5,59.6,155.9,63.4L155.9,63.4z"/>
</g>
</svg>
