<svg xmlns="http://www.w3.org/2000/svg" xmlns:xlink="http://www.w3.org/1999/xlink" viewBox="0 0 775.6 505.4" style="enable-background:new 0 0 775.6 505.4;" xml:space="preserve">
<style type="text/css">
	.st0{fill-rule:evenodd;clip-rule:evenodd;fill:rgba(255,255,255,0.06);}
</style>
<path class="st0" d="M289.2,358.7c36.4,17,68.2,3.1,89.9-28.9c3.5-5.2,7.3-12.6,10.9-20.6c-29.2,60.5-81.8-75.1-138-80.4
	C143,218.4,1,493.7,0,505.4C54,450.3,231.7,211.5,289.2,358.7L289.2,358.7z"/>
<path class="st0" d="M403.2,277.3c-6,14.9-15.7,40.1-24,52.4c-21.7,32-53.6,45.9-89.9,28.9c10.8,27.1,28,110.9,73.8,114.6
	c45.8,3.6,111-181.3,136.6-221.5c32.2-50.6,55.9-25.9,78.5,7.4c36.8,54.2,110.2,132.8,179.2,74.5c11.7-9.9,19.1-24.1,18.2-42.7
	c-22.5,24.4-49.8,25.5-76.6,6c-53.8-39-89.6-126.6-120.9-185.9c-40.6-77-60.8-58.4-98.6,6c-8.3,15.1-16.5,30.7-24.5,46.5
	c-18.4,36.4-35.6,74.1-50.5,110.8C404,275.4,403.6,276.4,403.2,277.3L403.2,277.3z"/>
<path class="st0" d="M426.9,161.9h21.1c-0.4,0.7-0.8,1.5-1.2,2.2l-0.1,0.2l-0.1,0.2c-6.4,14.2-13.1,28.4-19.7,42.5V161.9
	L426.9,161.9z"/>
<path class="st0" d="M359.6,139.6c-0.7-0.8-1.7-1.5-2.7-1.6c-0.3,0-0.4-0.1-0.7,0.1c-0.5,0.3-0.8,0.7-1.3,0.9
	c-0.3,0.2-0.6,0.4-1,0.6c1.1,0,2.1,0,3.2,0H359.6L359.6,139.6z"/>
<path class="st0" d="M329.6,283.5V260h-5.3l0-11.3l-3.5,0c2.9-1.8,5.8-3.6,8.7-5.4V112h0h-6.9h-4.9h-6.9H306h-6.9h-4.9h-5.3h-1.6
	v72.3l14.5,7.3l4.9,2.5h-5.5H293v4v1.3h-1.3h-2.4l1,39.9C304.8,251.5,317.7,268.5,329.6,283.5L329.6,283.5z M309.9,156.6
	c-0.2,0.1-0.6,0.4-0.8,0.6c-1.8,1.4-4.3,2.7-6.6,2.9c-0.9,0.1-0.7,0.2-0.7,1.9c0,0.9,0.1,1.8,0.1,2.6c0.1,1.8,0.1,3.5,0.1,5.3
	c0.1,4.2,0.5,5.6,2.5,8.3c0.7,0.9,1.8,2.1,2.7,2.8l1.4,1.3c1.5,1.3,1.2,1.3,3.2-0.3c2.4-2,5.1-4.4,6-7.5c0.5-1.7,0.5-3,0.5-5
	c0-2.6,0.1-5.4,0.1-7.9c0-2.7,0-0.2-5.3-2.9c-0.6-0.3-1.9-1.1-2.5-1.6C310.5,156.9,310.2,156.5,309.9,156.6L309.9,156.6z
	 M299.3,154.9c-3.3,0.3-3.1,0-3,3.3c0.1,4.3,0.3,8.5,0.4,12.9c0,2.3,0.3,3.7,0.9,5.7c0.5,1.5,1.5,3.2,2.3,4.3c1,1.4,1.9,2.3,3.1,3.5
	c1,1,4.3,3.8,5.3,4.6c1.6,1.1,1.4,0.7,2.4,0.6c0.1-0.2,0.3-0.2,0.5-0.4c0.2-0.2,0.3-0.3,0.5-0.4c0.4-0.3,0.7-0.5,1-0.8
	c4.5-3.6,9.4-7.8,10.7-13.7c0.1-0.6,0.1-0.6,0.2-0.8c-0.1-0.4,0.1-1.3,0.1-1.8c0-0.6,0-1.3,0.1-2c0-1.3,0.1-2.5,0.1-3.8
	c0-3.2,0.1-5-0.1-8.3c-0.1-0.8-0.1-1.8-0.6-2.2c-0.6-0.4-3.7-0.8-4.6-1.1c-3-0.7-5-2.2-7.5-3.8c-1.6-1-2.2-0.3-3.8,0.9
	C304.9,153.4,303.2,154.7,299.3,154.9L299.3,154.9z M309.7,154.3c-0.9,0.2-2.2,1.8-3.9,2.6c-2.1,1-3.3,0.9-5.2,1.4
	c-1.2,0.3-0.9,1-0.9,2.3c0,1.1,0,2.1,0.1,3.1c0.1,2.1,0.2,4.3,0.2,6.4c0.1,4.1,0.5,6.6,3.2,9.9c0.3,0.3,0.5,0.6,0.8,0.9
	c0.3,0.3,0.6,0.5,0.8,0.8c0.8,0.8,2.6,2.4,3.5,3.1c1.8,1.4,2,1.3,4.1-0.5c3-2.4,6.1-5,7.4-8.9c0.7-1.9,0.6-3.7,0.7-5.9
	c0-2.1,0.1-4.3,0.1-6.4c0-1.1,0-2.2,0-3.3c-0.1-1.4-0.4-1.4-1.7-1.6c-2.1-0.4-3.4-0.6-5.1-1.5C312.1,155.8,310.6,154,309.7,154.3
	L309.7,154.3z M305,165.6c0.5,0.4,1.5,0.7,2.2,1.5c0.6,0.7-0.2,2-0.5,3c-0.2,0.7-0.2,0.9,0.6,0.6c0.8-0.4,2-1.5,2.8-1.6
	c0.9,0,2.1,1.3,3,1.7c0.5,0.2,0.6,0.1,0.5-0.4c-0.2-0.9-1.3-2.3-0.6-3.2c0.3-0.4,0.8-0.7,1.3-1c0.2-0.1,0.5-0.3,0.7-0.4
	c0.8-0.5,0.8-0.8-0.2-0.9c-0.5,0-1.1,0-1.6,0c-1.7,0-1.9-0.2-2.4-1.6c-0.2-0.6-0.8-3-1.4-1.3c-0.3,0.8-0.6,2.4-1.3,2.7
	c-0.7,0.3-2,0.1-2.9,0.1C304.8,164.8,304.2,165,305,165.6L305,165.6z M325.7,110.4c-0.5-0.3-1.1-0.6-1.4-0.7
	c-0.7-0.4-1.5-0.7-2.2-1.1l-8.9-4.5c-0.6-0.3-4.1-2.1-4.5-2.2l-16.2,8.2c-0.2,0.1-0.5,0.3-0.8,0.4h-6.1c0.3-0.2,0.7-0.4,0.9-0.5
	c0.5-0.2,1-0.5,1.5-0.7c5.7-3,12-6,17.7-8.9c1-0.5,2-1.1,3-1.5c0.3,0.1,2.5,1.2,3,1.5l8.9,4.5c2,1,3.9,2,5.9,3c0.4,0.2,4,2,5.3,2.7
	H325.7L325.7,110.4z M294.5,110.4c0.9-0.5,2.7-1.4,3.1-1.6c1.5-0.8,10.9-5.6,11.1-5.6c0.2,0,3.3,1.6,3.7,1.8
	c0.7,0.3,8.4,4.2,10.6,5.3H294.5L294.5,110.4z"/>
<path class="st0" d="M367.9,317.5h4.9c0.9-0.1,1.8-0.4,2.7-0.7c1.8-0.6,4-3.6,6.4-7.7h-0.5l-0.8,0l-1.3,0l-26.8,0
	C357.7,313.6,362.8,316.7,367.9,317.5L367.9,317.5z M362.8,260.1l-2,0l0,2.7l2,0l0,1.1l-2,0l0,2.7l2,0l0,6.3l2.9,0l0-6.3l9.8,0
	l0-2.7l-9.8,0l0-1.1c0.4,0,1,0,1.5,0h4.4c3.2,0,6.5-0.5,8-3.6c0.7-1.4,0.9-3.2,0.8-5c-0.4-3.5-2.6-5.2-6-5.7
	c-1.7-0.2-3.9-0.1-5.7-0.1h-4.4c-0.5,0-1,0-1.5,0L362.8,260.1L362.8,260.1z M365.7,260.1c1.3,0,2.7,0,4,0c1.3,0,2.7,0.1,3.9-0.2
	c2.2-0.5,3.7-1.8,3.8-4.3c0.1-2.7-1.4-4-3.7-4.4c-1.3-0.2-2.6-0.2-3.9-0.2c-1.3,0-2.7,0-4,0L365.7,260.1L365.7,260.1z M383.4,306.2
	l-34.1,0c-5.9-5.6-11.9-12.9-18.2-20.9l0-21.3l0,0l0-3.1l2.6,0v-2.8h-7.6l0-8.4h0.9v-2.8l0.1,0c0.5-0.5,10.5-6.7,11.3-7.2
	c3.9-2.4,7.6-4.8,11.4-7.2l22.9-14.3c1.9,1.1,3.9,2.4,5.8,3.6c10.3,6.7,21.7,13.4,32.2,20.2c-4.8,10.8-9.4,21.6-13.8,32.5
	C395.1,279.5,389.1,295.4,383.4,306.2L383.4,306.2z M340.1,246.2h5.3c4.2-2.7,19-12,20.3-12.8c0.8-0.5,6.7-4.4,7.1-4.3
	c0.4,0,18.5,11.6,21.4,13.4c0.8,0.5,4.2,2.5,6,3.7h5.3c-0.5-0.3-1-0.6-1.4-0.9l-31.2-19.6c-0.7,0.2-7.4,4.6-8.6,5.3l-17.1,10.8
	c-1.4,0.9-2.9,1.8-4.3,2.7C342.3,244.8,341.2,245.6,340.1,246.2L340.1,246.2z"/>
<path class="st0" d="M377.5,139.8l46.2,0l0-16.5l-46.2,8.1L377.5,139.8L377.5,139.8z M400.7,201.7l-1.6-12.2l-5,2.5l2.5-4.9
	l-7.9-1.4l8-1.8l-2.4-4.4l4.8,2c-1.5,0.6-2.5,2.1-2.5,3.8c0,2.3,1.9,4.2,4.2,4.2c2.3,0,4.2-1.9,4.2-4.2c0-1.7-1-3.2-2.5-3.8l4.8-2
	l-2.4,4.4l8,1.8l-7.9,1.4l2.5,4.9l-5-2.5L400.7,201.7L400.7,201.7z M399.1,181.4l1.6-9.3l1.6,9.3c-0.5-0.2-1-0.3-1.6-0.3
	C400.1,181.1,399.6,181.2,399.1,181.4L399.1,181.4z M400.7,182.2l1.5,2.6l1.5,2.6h-2.9h-2.9l1.5-2.6L400.7,182.2L400.7,182.2z
	 M400.7,168.9h-5.1c-0.7,3,0.1,5.4-8.5,8.2c-0.4,11.2,1.9,24.8,13.5,29.6c11.7-4.8,13.9-18.5,13.5-29.6c-8.6-2.8-7.7-5.2-8.5-8.2
	H400.7L400.7,168.9z M422.7,216.2v-74.8H421h-5.5h-5.1h-7.2h-5.1h-7.2h-5.1h-7.2v13.4v9.4v13.4v9.4v13.4v9.4V220l33,20.6
	C415.2,232.4,419,224.2,422.7,216.2L422.7,216.2z"/>
<path class="st0" d="M368.8,64.7c-0.5-0.8-1-1.8-1.2-2.2c-0.6-1.2-1.3-2.2-1.9-3.4L358,45.6c-0.5-1-3.5-6.4-3.8-6.7l-13.9,24.5
	c-0.2,0.4-0.4,0.8-0.7,1.2h-5.3c0.3-0.5,0.6-1.1,0.8-1.4c0.4-0.7,0.8-1.5,1.3-2.2c4.9-9,10.3-17.9,15.2-26.8
	c0.8-1.5,1.7-3.2,2.6-4.5c0.3,0.3,2.2,3.7,2.6,4.4l7.6,13.5c1.7,3,3.4,6,5.1,8.9c0.3,0.6,3.4,5.9,4.6,8.1H368.8L368.8,64.7z
	 M347.6,140.5c1,0,0.7,0.3,1.8-0.3c0.2,0.5,0.7,1,1.4,1.1c-0.3-0.7-0.9-1.6-0.4-2.7c1.2,0,2.5-0.9,3.3-1.4c1.1-0.7,1.5-1.6,3.4-1.3
	c2.5,0.3,4.4,2.3,5.4,4.1c1.3,2.5,0.5,5.5-1.2,6.9c-1.4,1.2-3.1,1.8-5.1,2c-0.7,0.1-1.5,0.1-2.2,0.2l0,3.2c0.4,0.1,1.4,0,1.8,0
	c1.7,0,4.5-0.6,5.9-1.2c4.7-2.1,6-7.6,4.1-12.2c-0.5-1.3-0.7-1.4-1.3-2.4c-0.9-0.9-0.6-0.9-1.8-1.9c-2.3-1.9-5.6-2.6-8.7-2.4
	c-2.7,0.2-3.7,0.8-4.4,3.1c-0.6,2-0.1,2.9-0.3,3.3c-0.5,1.2-1.3,1.3-2,1.5l-0.2,0.1L347.6,140.5L347.6,140.5z M351.2,164.6
	c0.2,0.1,1.8,0.6,2.1,0.6l0-5.4c-0.3-0.2-1.7-0.7-2.1-0.7L351.2,164.6L351.2,164.6z M357.3,172.7c-0.3,0-3.5-1.8-4-2.1l0-1l-2.1-0.5
	l0,1.5c-0.6,0.3-4.4,2.3-4.5,2.4l11.1,0C357.7,172.9,357.5,173,357.3,172.7L357.3,172.7z M348.4,166.9c1.3,0.7,1.3,0.8,2.9,1.3
	c2,0.6,4.8,0.9,6.5,2c1.6,1,1.5,1.9,1.9,2.4c0.3-0.3,0.3-1.6,0.2-2c-0.1-0.6-0.4-1.1-0.8-1.6c-0.6-0.8-1.7-1.4-2.8-1.9
	c-1.1-0.5-2.3-0.8-3.6-1.1c-0.6-0.2-1.2-0.3-1.7-0.6c-1.4-0.6-0.8-1.1-0.5-1.1l0-2.7c-1,0.1-2.4,1-3,2c-0.3,0.6-0.5,1.3-0.2,2
	C347.5,166.3,347.9,166.5,348.4,166.9L348.4,166.9z M346,156.1c0.2,0,0.4,0.2,0.5,0.3c0.2,0.1,0.4,0.2,0.6,0.3
	c1.6,0.7,6.5,1.8,7.3,2.9c0.4,0.5-0.1,0.8-0.4,1l0,2.7c0.7,0,2-0.7,2.4-1c1.6-1.4,1.1-3.6-0.1-4.8c-1.6-1.6-5.1-2.4-7.2-3.2
	c-2-0.7-2.8-1.5-0.3-1.9c0.4-0.1,1.3,0,1.6-0.1l0.1-3.2l-0.9,0c-0.2,0.1-1.2,0.2-1.5,0.2c-1.3,0.2-2.8,0.8-3.5,1.9
	c-0.8,1.3-0.6,2.9,0.5,4.1C345.4,155.7,345.9,155.9,346,156.1L346,156.1z M346.6,146.5c0.6,0.3,0.9,0.6,2,1.1
	c0.4,0.2,0.8,0.3,1.2,0.4c0.3,0.1,1.2,0.2,1.4,0.3l0,5.6l2.1,0.7c0.1-1.1-0.1-5.8,0.1-6.3c0.1-0.1,1.2-0.2,1.5-0.3
	c3-0.7,5.6-3.1,6.7-6.1c0-0.2-0.3-0.1-0.4-0.1l-4.1,0h-4.6c-3.1,0-6.2-0.1-9.3,0c0.1,0.7,1,2.2,1.4,2.6c0.5,0.6,0.9,1.1,1.5,1.6
	C346.2,146.2,346.5,146.4,346.6,146.5L346.6,146.5z M351.4,134.5c-1.1,0.4-0.5,2,0.6,1.6C353,135.7,352.4,134.1,351.4,134.5
	L351.4,134.5z M374.4,67.6h-40.7v173.1c1.3-0.8,2.6-1.7,4-2.5l35.2-21.8l1.6,1V67.6L374.4,67.6z M354.8,1.6
	c7.6-1.7,1.1,8.5,0.3,11.1c4.5-1.5,3.4-2.6,9.5-1.6c1.9,0.3,9,1.5,10.4,1.9c-2.9-5.6-1.9-5.9-0.4-11.9c-4.1,1.4-6.9,1-11.2,0
	C360.5,0.5,356.4-1.3,354.8,1.6L354.8,1.6z M364.4,43.8L358,32.6c-0.5-1-3.5-6.4-3.8-6.7L344,43.9v-9.2c2.6-4.5,5.1-8.9,7.6-13.4
	c0.6-1.2,1.3-2.4,2-3.6V1.6h1v15.8c0.7,1.1,1.8,3.2,2.1,3.7l7.6,13.5V43.8L364.4,43.8z M341.9,64.7c0.8-1.5,2.3-4.1,2.7-4.7
	c1.3-2.3,9.4-16.7,9.5-16.7c0.2,0,2.8,4.8,3.2,5.4c0.6,1,7.2,12.6,9.1,16H341.9L341.9,64.7z"/>
<path class="st0" d="M257.5,172.2l40.1,20.2H289v4.7h-3.4l0.8,39c-19.1-14.8-35.9-17.1-58.6-11.3l0.3-27.7H226v-4.7h-8.6
	L257.5,172.2L257.5,172.2z M266.2,215.8c1.1-0.5,2.2-1.4,2.7-1.8c0.5-0.5,1.4-1.5,1.8-2c2.1-2.7,3.1-4.7,4.6-7.7
	c0.4-0.8,1-2-0.4-2.4c-1.1-0.3-3-0.3-4.3-0.5c-1.8-0.2-3.6-0.6-5-1.4c-0.6-0.3-1.7-1.1-2.2-1.5l-0.6-0.6c-1.9-1.8-2.6-3.1-3.9,0.5
	c-1.2,3.3-2.1,7.2-1.6,11.1c0.3,2.3,1,4.2,2.4,5.6l0.4,0.4c0.1,0.1,0.3,0.2,0.5,0.3C262.1,216.4,264.6,216.6,266.2,215.8
	L266.2,215.8z M254.9,186.9c-1.1,0.6-2.1,1.3-3.4,1.8c-1.5,0.5-2.8,0.7-4.5,0.6c-1-0.1-2.6-0.4-3.5-0.3c-0.7,0.1-0.7,1-0.6,1.6
	c0.2,1.3,1.4,4.1,1.8,5.1c0.4,0.9,0.8,1.6,1.3,2.4c0.5,0.8,1,1.5,1.5,2.2c1.5,2,4.1,4.2,6.7,4.4c0.8,0,2.2-0.3,2.8-0.6
	c0.2-1.9,1.4-6.1,2.3-7.8c0.7-1.1,1.3-0.9,2-0.5c0-0.2,0-0.2,0-0.3c-0.1-2.7-0.8-5.5-1.4-8.2C259,183.5,257.6,185.2,254.9,186.9
	L254.9,186.9z M246.3,195.3c0.5-0.2,1-0.7,2.1-1c1.2-0.3,2.2,0.4,2.6,0.3c-0.2-0.6-1.6-1.5-2.6-1.3c-0.6,0.1-1.2,0.5-1.5,1
	C246.7,194.5,246.4,194.8,246.3,195.3L246.3,195.3z M254.3,193.6c0.2,0,0.6-0.5,0.9-0.8c0.7-0.7,1.4-1,2.4-1.1
	c0.5,0,1.5,0.1,0.6-0.4c-1.3-0.7-2.8-0.5-3.6,1C254.5,192.6,254.2,193.3,254.3,193.6L254.3,193.6z M257.1,197
	c-1,0.3-1.9,1.1-3.6,1.4c-0.5,0.1-1.8,0.2-2.2,0.3c-0.8,0.3,0.4,1,0.7,1.2c1.4,0.7,2.6,0.7,3.9-0.1C257,199,258.1,196.8,257.1,197
	L257.1,197z M264.3,203.5c-0.3-0.2-1.4,0.4-2.7,0c-1-0.3-1.6-1.1-2-1.1c0,0.7,1,1.8,1.8,2.1C262.7,204.9,264.1,204,264.3,203.5
	L264.3,203.5z M267.5,204.7c-0.2,0.4,0.2,2.9,2.5,2.9c0.6,0,1.3-0.2,1.6-0.5c-0.3-0.3-1.4,0-2.5-0.7c-0.4-0.3-0.6-0.5-0.8-0.8
	C268.1,205.4,267.6,204.7,267.5,204.7L267.5,204.7z M266,212.9c0.4-0.8-0.8-2.6-1.7-3.2c-1.1-0.8-2.8-0.6-4,0
	c-0.8,0.4-0.9,0.9,0.2,1.1c1.6,0.3,2.3,0.4,3.7,1.3C264.6,212.4,265.5,213,266,212.9L266,212.9z M260.2,182.1c2,0.6,2.2,2.3,2.7,4.5
	c0.6,2.8,1.3,5.5,1.4,8.4c0.9,0.9,1.6,1.6,2.8,2.3c1.1,0.6,2.6,0.9,3.8,1.1c1.6,0.2,3.2,0.1,4.8,0.6c1.3,0.4,2,1,2.7,2.1
	c0.6,1,0.7,2.4,0.1,3.5c-0.1,0.4-0.3,0.7-0.5,1.1c-1.5,3-2.8,5.5-4.9,8.2c-0.6,0.8-1.4,1.7-2.2,2.4c-6.5,6.3-15.4,3.2-16.7-6.5
	c-0.1-0.7-0.1-1.3-0.2-2c-0.1,0-0.2,0-0.3,0c-3.6-0.2-6.9-2.8-9-5.6c-0.6-0.8-1.2-1.6-1.7-2.5c-0.5-0.9-1-1.8-1.4-2.7
	c-0.8-1.8-2.3-5.2-2.1-7.1l0-0.1c0-0.8,0.2-1.6,0.7-2.3c1.3-1.8,3.4-1.8,5.4-1.5c0.5,0.1,1,0.2,1.5,0.2c1.3,0.1,2.1,0,3.3-0.4
	c1-0.4,1.9-0.9,2.9-1.5C255.7,182.8,257.5,181.4,260.2,182.1L260.2,182.1z"/>
</svg>
