<?xml version="1.0" encoding="utf-8"?>
<!-- Generator: Adobe Illustrator 22.1.0, SVG Export Plug-In . SVG Version: 6.00 Build 0)  -->
<svg version="1.1" id="Layer_1" xmlns="http://www.w3.org/2000/svg" xmlns:xlink="http://www.w3.org/1999/xlink" x="0px" y="0px"
	 viewBox="0 0 137.6 264.8" style="enable-background:new 0 0 137.6 264.8;" xml:space="preserve">
<style type="text/css">
	.st0{fill:#EEFCFF;}
	.st1{fill:#C2EDF6;}
	.st2{fill:#BC135A;}
	.st3{fill:url(#Path_1_);}
	.st4{fill:#FFAA83;}
	.st5{fill:#ED9870;}
	.st6{fill:#00558C;}
	.st7{fill:#003151;}
	.st8{fill:#05102E;}
	.st9{fill:#17388E;}
	.st10{fill:#1FBCBF;}
	.st11{fill:#0D8E90;}
	.st12{fill:#A20D71;}
	.st13{fill:#CB2069;}
	.st14{fill:#0D69A5;}
	.st15{fill:#E19586;}
</style>
<path class="st0" d="M51.2,60.5c-0.8,0.2-1.5,0.5-2.2,0.9c-1.4,0.8-2.6,1.8-3.5,3c-2.4-2.1-4.6-4.3-6.6-6.7
	c-0.2-0.2-0.4-0.3-0.5-0.5L38.1,57c-0.3-0.2-0.6-0.5-0.9-0.7c0-0.1-0.1-0.1-0.2-0.1c-0.2-0.2-0.4-0.4-0.7-0.5l-0.6-0.4L32,53.5h-0.1
	l-0.2-0.1l-1-0.2c0.3-1.4,1.1-2.6,2.4-3.4c1.2-1.1,2.9-1.8,4.6-1.7c0.8,1.7,2.8,3.6,6.2,5.7c2.4,1.5,4.7,3.1,6.8,4.9
	C50.8,59.3,51,59.9,51.2,60.5L51.2,60.5z"/>
<path class="st0" d="M26.3,53.9c-1.5,3.2,2.2,7.9,11,14.1l1.5,1c5.1,3.4,10.4,6.6,15.8,9.4c-0.1,0.2-0.2,0.4-0.3,0.6
	c-0.3,0.4-0.5,0.9-0.5,1.3c-0.2,0.6-0.3,1.2-0.3,1.9c0.1,1.3,0.7,2.5,1.8,3.3l-5.2-2.9l-7.2-4.1c-2.4-1.4-4.7-2.6-6.7-3.6
	s-4.2-2-6-2.7c-3.1-1.4-6.1-3.3-8.7-5.5c-2-1.7-2.9-3.3-2.8-4.7c0.1-0.6,0.1-1.2,0.2-1.9v-0.3c0-0.2,0.1-0.4,0.2-0.6
	c0,0,0.1,0,0.1-0.1c1-2.4,3.1-4.2,5.6-4.9C25.3,54.1,25.8,54,26.3,53.9L26.3,53.9z"/>
<circle class="st1" cx="114.8" cy="60.1" r="19.5"/>
<path id="Shape_33_" class="st2" d="M135.2,59.4v9.1c0,3.2-1.7,6.2-4.6,7.8L96.5,95.7c-0.9,0.7-2.1,0.9-3.2,0.6L92.8,96
	c-0.4-0.3-0.7-1.3-0.7-3V79.5l0.1-26.1c0-3.2,1.8-6.2,4.6-7.7L131,26.3c0.8-0.6,1.7-0.9,2.7-0.9c0.1,0,0.2,0.1,0.3,0.1
	c0.2,0.1,0.3,0.2,0.4,0.4c0.6,0.4,0.9,1.5,0.9,3L135.2,59.4z M108.6,62.3c0.7-1.1,1-2.3,1-3.5c-0.3-1.7-1.7-2.9-3.3-3.1
	c-0.5-0.1-1,0.1-1.4,0.3c-0.5,0.4-1,0.9-1.4,1.4c-0.7,1-1.3,2.1-1.9,3.2c-0.6,1-0.9,2.1-0.8,3.2c0,1.7,0.5,3.5,1.4,5
	c0.7,1.3,1.6,2.5,2.7,3.5c4.2,3.8,8.8,5.2,13.8,4.3c0.9-0.2,1.9-0.6,2.7-1c1.1-0.6,1.9-1.4,2.5-2.5c0.8-1.4,1.4-2.4,1.7-3
	c0.5-0.9,0.6-2,0.5-3c-0.9-1.4-2.6-2.2-4.2-1.8c-1,0.4-1.9,1.1-2.4,2c-1.4,1.8-2,2.7-2.2,2.9c-0.8,0.3-1.6,0.3-2.4,0.1
	c-0.7-0.2-1.4-0.4-2.1-0.7c-1.5-0.8-2.4-1.4-2.8-1.6c-0.9-0.7-1.7-1.5-2.3-2.5C107.5,65,107.8,63.9,108.6,62.3L108.6,62.3z
	 M119.7,57.7c0.2,0.3,0.6,1.2,1.2,2.7c0.1,0.4,0.4,0.5,0.8,0.3c0.2-0.1,0.6-0.3,1.2-0.5l0.8-2c-0.7-2.6-1.7-4.3-3-4.9
	c-1.3-0.6-3.1-0.8-5.8-0.1l-1.4,1.7c-0.1,1.2,0.4,1.8,1.4,1.8l2.7-0.2C118.5,56.5,119.3,57,119.7,57.7z M124.5,46.7
	c-1.6-1-3.5-1.3-5.3-1c-2.3,0.3-4.5,1.2-6.3,2.7l-0.7,2l0.6,1.2c3.6-2.5,6.8-2.9,9.7-1.3c2.9,1.6,4.1,4.6,3.7,9h1.4l1.4-1.6
	c0.4-2.3,0.2-4.6-0.7-6.8C127.4,49,126.1,47.6,124.5,46.7L124.5,46.7z"/>
<linearGradient id="Path_1_" gradientUnits="userSpaceOnUse" x1="-802.9185" y1="592.6471" x2="-802.4706" y2="593.7878" gradientTransform="matrix(41.7921 0 0 -62.4432 33650.457 37094.582)">
	<stop  offset="0.34" style="stop-color:#DA1066"/>
	<stop  offset="0.57" style="stop-color:#FF65AB"/>
</linearGradient>
<path id="Path_8_" class="st3" d="M92.7,96L84,90.9c-0.7-0.4-1.1-1.5-1.2-3.1v-3L83.2,48c-0.2-3.2,1.6-6.2,4.4-7.6l31.1-17.7
	l3.4-1.9c1.6-0.9,2.7-0.9,3.3-0.1l8.2,4.8c-1,0-1.9,0.3-2.7,0.9L96.7,45.7c-2.8,1.5-4.6,4.5-4.6,7.7L92,79.5V93
	C92,94.7,92.2,95.7,92.7,96z"/>
<path class="st4" d="M130.3,69.4c0,0-0.1-0.1-0.1-0.1c-0.1-0.5-0.1-0.8-0.1-0.8c0-1.7,1.3-4.1,3.8-7.3c1.9-2.4,3.1-2.9,3.5-1.5
	c0.2,0.6,0.2,1.3,0.2,2c0,0.7-0.8,2.3-2.3,4.7c-1.6,2.4-2.8,3.6-3.6,3.6C131,69.9,130.5,69.7,130.3,69.4z"/>
<path class="st4" d="M102.5,81.7c0.5-0.1,1.1-0.1,1.6,0.1c0.2,1-0.8,1.8-2.9,2.1c-1.6,0.3-2.4,0.4-2.5,0.4c-0.9,0.2-1.5,0.5-1.7,0.9
	c0.9,0.3,1.8,0.3,2.7,0.1c0.3-0.1,1.3-0.2,3-0.5l0.5-0.1c2.2-0.4,3.9-0.2,4.8,0.8c-1.2,0.6-2.5,1-3.8,1.2c-1.9,0.3-3.1,0.8-3.5,1.5
	s-2,1.2-4.8,1.6c-3.2,0.3-6.3,0.4-9.5,0.3c-3.2-0.3-6.3-0.5-9.3-0.7l-4.1-0.3c-2.4-0.1-3.6-0.2-3.8-0.3c-3.6-0.3-7.2-1-10.6-2.2
	c-1.5-0.5-2.9-1.2-4.3-2c0.3-0.5,0.5-1,0.7-1.6c0-0.1,0.1-0.2,0.1-0.3c1-2.2,1.9-3.5,2.7-3.7c1.5,0.1,2.9,0.4,4.3,0.8
	c1.8,0.4,4.2,1,7.2,1.7c0.3,0.1,0.5,0.1,0.8,0.2c5.6,1.4,9.7,2,12.2,1.7c0.2,0.1,0.5,0.2,0.7,0.3c0.5,0,0.9,0,1.3-0.1
	c0.7-0.2,1.4-0.6,1.8-1.2c1.6-1.7,3.7-3,6-3.7h0.1c2.3-0.8,4.8-0.8,7.1-0.1c-0.1,0.6-0.4,1.1-1,1.4c-0.6,0.3-1.3,0.5-2,0.5
	c-1.2,0-2.3,0.4-3.4,1c-0.2,0-0.3,0.1-0.5,0.1l-0.2,0.1c-0.3,0.1-0.5,0.4-0.4,0.7l0.3,0.4c0,0.1,0,0.1,0.1,0.2
	c0.2,0.3,0.6,0.5,1.3,0.5c0.7,0.1,1.4,0.1,2.1,0l6.8-1.7L102.5,81.7z"/>
<path class="st4" d="M50.5,51.9L49,51.3c-2.1-1-4.1-2.3-5.9-3.9c-0.8-0.7-1.6-1.6-2.1-2.6c0.7-0.2,1.5-0.5,2.5-0.9
	c3.5-1.2,6.3-1.7,8.4-1.4c1.8,0.3,3.5,1.1,4.9,2.2l1.6,1.3l-0.7,0.9C55.8,49.3,53.3,51.1,50.5,51.9L50.5,51.9z"/>
<path class="st4" d="M73.8,246.9c-1.1,0.6-2.1,1.2-3.1,2c-1,0.8-1.8,1.3-2.4,1.7l-1.3-2c-3-4.9-4.4-8-4.2-9.4c0.2-1.7,1.7-3,4.4-3.8
	l2-0.6c0.4,1.1,1.2,2.8,2.1,5C72.3,242.1,73.1,244.5,73.8,246.9z"/>
<path class="st4" d="M75.6,254.1c-0.9,0.3-1.9,0.4-2.8,0.2c-1-0.2-2-0.6-2.9-1.2c1.4-1.5,3.1-2.5,5-3c0.9,0.6,1.6,1.5,1.9,2.6
	C76.8,253.4,76.3,254,75.6,254.1L75.6,254.1z"/>
<path class="st5" d="M58.3,46.1l-1.6-1.3c-1.4-1.2-3.1-1.9-4.9-2.2c-2.1-0.3-4.9,0.2-8.4,1.4c-0.9,0.4-1.8,0.7-2.5,0.9
	c-0.6-0.9-1-1.8-1.2-2.9c-0.1-0.2-0.1-0.4-0.2-0.6c1.2-3,2.7-5.9,4.6-8.6c1.6-2.1,2.9-4.3,4-6.7c0.1-0.1,0.1-0.3,0.2-0.4
	c0.3-0.7,0.5-1.1,0.6-1.5c1.1,1.1,2.3,2.1,3.6,2.9c0,0.1,0.1,0.1,0.2,0.2c1.3,1.4,2.8,2.7,4.4,3.8c1.6,1.1,2.8,2.5,3.7,4.2
	c0.9,1.8,0.9,4-0.1,5.8c0.1-0.1,0.1-0.1,0.2-0.1c-0.1,0.1-0.2,0.3-0.2,0.4c-0.2,0.3-0.3,0.6-0.4,1l-0.6,1.2
	C59.4,44.3,58.8,45.2,58.3,46.1L58.3,46.1z"/>
<path class="st5" d="M54.1,84.5c-1-0.8-1.6-1.9-1.7-3.2c0-0.6,0.1-1.2,0.2-1.8c0.1-0.5,0.2-0.9,0.5-1.3c0.9-1.2,2-2.2,3.3-2.9
	c1.8,0.7,3.5,1.3,5.3,2c2.6,0.9,5.1,1.8,7.6,2.6c3.6,1.1,7.2,2.1,10.8,3.1c0.7,0.2,1.5,0.4,2.2,0.5c-2.5,0.2-6.6-0.4-12.2-1.7
	c-0.3,0-0.5-0.1-0.8-0.2c-3-0.7-5.4-1.3-7.2-1.7c-1.4-0.4-2.9-0.7-4.3-0.8c-0.8,0.2-1.7,1.5-2.7,3.7c0,0.1-0.1,0.2-0.1,0.3
	c-0.2,0.5-0.4,1.1-0.7,1.6C54.3,84.7,54.1,84.6,54.1,84.5L54.1,84.5z"/>
<path class="st5" d="M93,81.5c-0.1,0-0.2,0.1-0.3,0.2l-0.3,0.4c1.9,0.5,3.9,0.6,5.9,0.2c1.4-0.3,2.8-0.5,4.2-0.6l-0.1,0.1l-6.8,1.7
	c-0.7,0.1-1.4,0.1-2.1,0c-0.7,0-1.1-0.2-1.3-0.5c0-0.1-0.1-0.1-0.1-0.2l-0.3-0.4c-0.1-0.3,0.1-0.6,0.4-0.7l0.2-0.1
	C92.7,81.5,92.8,81.5,93,81.5L93,81.5z"/>
<path class="st5" d="M68.3,250.5c-0.2,0.1-0.4,0.3-0.6,0.4c-2-1.8-4-3.7-5.8-5.8c-2.1-2.5-2.7-5-2-7.3l-0.4-0.9l-0.6-0.7l2.6-1.8
	c0.3-0.2,0.6-0.4,0.9-0.5c0.3-0.1,0.6-0.3,1-0.4c1.6-0.6,3.3-0.8,5-0.6c0.1,0.3,0.4,0.9,0.8,1.9l-2,0.6c-2.7,0.8-4.2,2-4.4,3.8
	c-0.2,1.4,1.2,4.5,4.2,9.4L68.3,250.5z"/>
<path class="st5" d="M32.1,197.7c-1-0.4-1.9-1-2.7-1.7c1-3,2.2-5.9,3.6-8.7c1.3-2.5,3.1-4.8,5.3-6.6c0.1,0.6,0.1,1.5,0.2,2.7
	c0.2,1.8,0.3,3.7,0.1,5.5C38.5,190.5,36.3,193.3,32.1,197.7L32.1,197.7z"/>
<path class="st5" d="M30.5,202.1c-1.2,1.1-1.9,1.2-2.2,0.2c-0.3-1.1-0.3-2.2,0.2-3.2c0.4,0.2,1,0.5,1.7,0.8c0.6,0.3,1.1,0.6,1.7,0.9
	C31.3,201.2,30.9,201.6,30.5,202.1L30.5,202.1z"/>
<path class="st6" d="M80.4,145c1.5,1.5,3,3.1,4.3,4.9l0.2,0.3c2.2,3.1,2.7,7.1,1.3,10.6c-1.1,3.6-3.9,6.5-7.5,7.7
	c-1.3,0.5-2.5,1-3.7,1.6c0.2-0.1,0.5-0.3,0.7-0.4c-5.1,0.2-10.3,0-15.4-0.7c-2.7-0.5-5.3-1.3-7.7-2.6h-0.1l0.9-1.1
	c1.5-2,2.6-3.3,3.3-4.1c0.8-0.9,1.6-1.7,2.5-2.5l0,0c8.9-4.3,13.6-7.1,14.2-8.4c-0.8-0.5-1.5-1-2.2-1.5c-4.7-3-9-6.8-12.6-11.1
	c-3.8-4.7-5.4-9.1-4.8-13.2c0.1-0.5,0.2-1.1,0.4-1.6v0.1c-0.2,1.4,0.4,2.8,2,4.1c6.8,4.5,11.9,7.9,15.2,10.4
	C74.7,139.8,77.6,142.3,80.4,145L80.4,145z"/>
<path class="st6" d="M68.4,232.8c-1.7-0.2-3.4,0-5,0.6c-0.4,0.1-0.7,0.3-1,0.4c-0.7-1-1.4-2-2.1-3.1c-4.9-7.1-8.2-15.1-9.8-23.5
	c-0.1-0.7-0.4-6.1-0.9-16.1c-0.2-5.7-1.7-11.2-4.4-16.1c-0.6-1.1-1.2-2.1-1.8-3.1c-1.2-2.1-2.4-4.1-3.5-5.9c-1.9-3.1-3.5-5.7-5-7.8
	c-4.5-6.4-9.6-12.3-15.4-17.7c-4.2-4-6.6-9.3-7.1-16.1c-0.1-2.5-0.1-4.5-0.2-6.1l-0.7,0.9c0.6-1,1.3-1.9,2.1-2.6
	c3.8-4.1,7.9-4.3,12.1-0.8c1.1,1,2.2,2.1,3.1,3.3c1.7,2.1,3,4.5,4.1,7c0.8,1.9,1.8,3.7,3.1,5.3c1.6,2.1,3,4.4,4.2,6.7
	c0.5,1,1.7,3.3,3.7,6.7c1.3,2.2,2.5,4.4,3.6,6.7c1,2.4,1.9,4.9,2.6,7.4c0.1,0.2,0.1,0.5,0.2,0.7c1,3.1,1.6,5.3,2,6.5
	c0.1,0.2,0.1,0.4,0.2,0.5c0.5,1.6,1.4,4,2.5,7.4c0.8,2.5,1.2,5.1,1.3,7.7c-0.4,7.6,0.7,16.4,3.6,26.3
	C61.7,213.4,64.5,221.8,68.4,232.8z"/>
<path class="st7" d="M57.5,155.4c-0.9-0.4-1.9-0.8-2.9-1.2c-3.8-1.7-6.2-2.7-7-3c-1.1-2.3-2.3-4.6-3.6-6.7c-2-3.4-3.2-5.7-3.7-6.7
	c0.5-2,1.3-3.9,2.4-5.6c1.2-1.7,2.5-3.2,4-4.7c2.1-2.3,3.5-3.8,4.1-4.6c1.4-1.7,2.7-3.6,3.7-5.5c0.1,0.8,0.1,1.6,0.1,2.5
	c-0.1,0.8-0.3,1.9-0.4,3.2c-0.2,0.5-0.3,1-0.4,1.6c-0.6,4.1,1,8.5,4.8,13.2c3.6,4.3,7.9,8,12.6,11.1c0.7,0.5,1.5,1,2.2,1.5
	c-0.6,1.3-5.3,4.1-14.2,8.4c0.8-0.7,1.6-1.3,2.4-1.8C60.3,156.5,58.9,156,57.5,155.4L57.5,155.4z"/>
<path class="st7" d="M31.8,200.7c-0.6-0.2-1.2-0.5-1.7-0.9c-0.8-0.3-1.3-0.6-1.7-0.8c-0.4,1-0.5,2.1-0.2,3.2c0.3,1,1,1,2.2-0.2
	c-0.2,1.3-0.6,2.5-1.2,3.6c-0.7,1.3-1.6,2.4-2.6,3.4c-2.5,2.2-4.8,2.1-6.7-0.3c-0.3-2.9,0.4-6.3,2.1-10.3c1.6-3.2,3-6.5,4.2-9.9
	c0.3-1,0.6-1.9,0.8-2.7c0.4-1.1,0.7-2.1,0.9-2.8c0.6-1.9,1.6-3.6,3-5.1c1.3-0.6,2.7-0.6,4-0.1c0.2,0.1,0.4,0.1,0.6,0.2
	c0.6,0.3,1.7,0.8,3.2,1.5c-0.4-1-0.9-2-1.4-3c-1-2-2.2-4.1-3.5-6.2c-1.9-3.1-4.2-6.5-6.9-10c-6.2-8-10.8-14-13.6-18.1
	c-2.4-4-3.8-8.6-4-13.2c-0.1-0.7-0.1-1.5,0-2.2c0.1-2.8,0.9-5.5,2.4-7.8l0.7-0.9c0.1,1.6,0.1,3.6,0.2,6.1c0.5,6.8,2.8,12.2,7.1,16.1
	c5.7,5.4,10.9,11.3,15.4,17.8c1.5,2.1,3.2,4.8,5,7.8c1.1,1.8,2.2,3.8,3.5,5.9c0.6,1,1.2,2,1.8,3.1c2.8,4.9,4.3,10.5,4.4,16.1
	c0.5,10,0.8,15.4,0.9,16.1c1.6,8.4,4.9,16.5,9.8,23.5c0.7,1.1,1.4,2.1,2.1,3.1c-0.3,0.2-0.6,0.3-0.9,0.5l-2.6,1.8
	c-4-8.1-8.5-16-13.4-23.6c-1.6-3.1-2.7-6.5-3.1-10c-0.5-3.4-0.8-6.9-0.6-10.4v-0.1l0.2-0.4c0.3-1.9,0.2-3.9-0.4-5.8
	c-0.6-2-1.4-3.9-2.5-5.7l-0.1,0.1c0,0-0.1,0.1-0.1,0.2c-0.2,0.1-0.3,0.2-0.5,0.3c-2.2,1.8-4,4-5.3,6.6c-1.4,2.8-2.6,5.7-3.6,8.7
	c0.8,0.7,1.7,1.3,2.7,1.7l0.4,0.1l2.1,0.6c-0.2,0.6-0.6,1.1-1.1,1.6C33,200.4,32.4,200.6,31.8,200.7L31.8,200.7z"/>
<path class="st7" d="M56.5,181.4c-0.1-2.6-0.5-5.2-1.3-7.7c-1.1-3.4-1.9-5.8-2.5-7.4h0.1c2.4,1.2,5,2.1,7.7,2.6
	c5.1,0.7,10.2,1,15.4,0.7c-0.3,0.1-0.5,0.3-0.7,0.4l-7.7,4.2C64.9,175.9,61.3,178.3,56.5,181.4L56.5,181.4z"/>
<path class="st7" d="M59.9,237.8c-0.7,2.4,0,4.8,2,7.3c1.8,2,3.7,4,5.8,5.8c0.2-0.2,0.4-0.3,0.6-0.4c0.6-0.4,1.4-0.9,2.4-1.7
	c1-0.7,2-1.3,3.1-1.9c1.1,0.6,2.2,2.2,3.4,4.8c1.3,2.8,2.5,4.6,3.6,5.4c0.8,0.5,1.4,1.3,1.7,2.1c0.3,0.8,0.4,1.7,0.3,2.6
	c-0.1,0.9-0.5,1.7-1.2,2.3s-1.6,0.8-2.5,0.7c-4.1-0.1-8-2.1-11.8-5.8c-1-1-2.6-2.7-4.7-5.1c-1.4-1.7-2.9-3.3-4.5-4.9
	c-1-1.7-1.2-3.8-0.5-5.7c0.3-1,0.7-1.9,1.2-2.8C59.4,238.8,59.8,237.9,59.9,237.8z"/>
<path class="st7" d="M75.6,254.1c0.7-0.2,1.2-0.7,1.3-1.5c-0.3-1.1-1-2-1.9-2.6c-1.9,0.5-3.7,1.5-5,3c0.8,0.6,1.8,1,2.9,1.2
	C73.7,254.5,74.7,254.5,75.6,254.1z"/>
<path class="st8" d="M62.3,18.3L62.3,18.3c1.1,1.5,1.9,3.1,2.4,4.9c-0.4-0.2-0.8-0.4-1.2-0.6c-1.2-0.6-2.6-1.4-4.1-2.4
	c-0.1-0.1-0.2-0.1-0.3-0.2c-1.9-1.2-3.5-2.3-4.8-3.2c-1.1-0.7-1.9-1.3-2.6-1.8c-0.4-0.3-0.8-0.7-1.2-1c0.4,0,0.8,0,1.2,0
	c1,0.1,2.1,0.3,3.1,0.6c1.3,0.4,2.5,0.9,3.7,1.5C59.8,16.7,61.1,17.5,62.3,18.3L62.3,18.3z"/>
<path class="st8" d="M44.1,12.9c0.3,0.2,0.6,0.5,1,0.8c0.5,0.5,1.1,1.1,1.7,1.8l1.9,2.2c0.7,0.9,1.4,1.6,2,2.2l0.8,0.9
	c0.8,1.1,1.7,2,2.7,2.9c3.4,2.4,6.7,5,9.6,8c0.6,0.7,1.1,1.4,1.5,2.1c0.3,0.5,0.4,1,0.6,1.5c-0.8,2.4-2.5,4.3-4.8,5.3
	c-0.1,0-0.2,0-0.2,0.1c0.9-1.8,1-4,0.1-5.8c-0.9-1.7-2.1-3.1-3.7-4.2c-1.6-1.1-3.1-2.4-4.4-3.8c-0.1,0-0.2-0.1-0.2-0.2
	C51.2,26.1,50,25.1,49,24c-0.1,0.3-0.4,0.8-0.6,1.5c-0.1,0.1-0.1,0.3-0.2,0.4c-1.1,2.4-2.4,4.6-4,6.7c-1.8,2.7-3.4,5.6-4.6,8.6
	c-0.8,0.3-1.6,0.7-2.2,1.2c-1.2,0.3-2.4,0.2-3.6-0.2c0-0.5-0.1-1.2-0.2-2s-0.1-1.8-0.1-2.6s0-1.5-0.1-1.8h0.2l0,0
	c0.3-0.1,0.6-0.2,0.9-0.2c3.4-1.3,5.6-2.6,6.5-4c1.2-1.7,2.2-3.1,2.9-4.1c1.1-1.3,1.8-2.8,2.2-4.5c-0.1-0.7-0.3-1.3-0.6-1.9
	c-0.4-0.9-0.9-2.2-1.7-3.9c-0.6-1.2-1-2.2-1.3-3c-0.1-0.3-0.2-0.5-0.3-0.7l-0.2-0.2c0.6-0.2,1.2-0.4,1.7-0.5
	C43.7,12.9,43.9,12.9,44.1,12.9L44.1,12.9z"/>
<path class="st8" d="M37.2,16c-0.2,0.2-0.5,0.4-0.7,0.6c0.1,0.3,0.3,0.7,0.4,1c0.6,1.2,1.2,2.2,1.7,3.3c0.8,1.4,1.6,2.8,2.6,4.1
	l-0.3,0.1c-1.6-0.4-3-1.2-4.1-2.4c-0.8-0.8-1.6-1.6-2.2-2.5c-0.1-0.1-0.2-0.2-0.2-0.3c-0.6,1.2-1.1,2.4-1.4,3.7
	c-0.2,1.1-0.3,2.2-0.4,3.3c0,0.3,0,0.6,0,0.9h-0.1c-1.2,1.3-2.5,2.5-3.9,3.6c-1.6,1.1-3.4,1.7-5.3,2c-2.3,0.3-4.6,0.4-6.8,0.3
	c-3.3-0.2-6.5-0.9-9.5-2l-3.1-1.6c2.1,0.1,4.2-0.2,6.2-0.8c7.1-1.8,13.1-6.2,17.8-13.5c1.4-2.3,3.1-4.5,5-6.4c2-2,4.6-3.3,7.5-3.7
	c6.2-0.4,9.8,1.8,10.9,6.6c0,0.1,0.1,0.3,0.1,0.4c-1.2-0.2-2.4-0.2-3.5-0.1c-0.3-0.4-0.6-0.7-0.9-1c-2.5-2.1-6.2-1.8-8.4,0.6
	C37.6,13.1,37.1,14.5,37.2,16L37.2,16z"/>
<path class="st9" d="M32.6,27.6c0-0.3,0-0.6,0-0.9c0.1-1,0.2-2.1,0.4-3.3c0.3-1.3,0.8-2.5,1.4-3.7c0,0.1,0.1,0.2,0.2,0.3
	c0.7,0.9,1.4,1.7,2.2,2.5c1.1,1.2,2.5,2,4.1,2.4l0.3-0.1c-1-1.3-1.8-2.7-2.6-4.1c-0.5-1-1.1-2-1.7-3.3c-0.1-0.3-0.3-0.6-0.4-1
	c0.2-0.2,0.5-0.4,0.7-0.6c1.4-1,2.9-1.8,4.6-2.4l0.2,0.2c0.1,0.2,0.2,0.5,0.3,0.7c0.3,0.8,0.8,1.8,1.3,3c0.7,1.6,1.3,2.9,1.7,3.9
	c0.3,0.6,0.5,1.2,0.6,1.9c-0.4,1.6-1.2,3.2-2.2,4.5c-0.7,1-1.7,2.4-2.9,4.1c-0.9,1.4-3.1,2.7-6.5,4c-0.3,0.1-0.6,0.1-0.9,0.2l0,0
	h-0.2c-0.2-2.5-0.3-4-0.4-4.7C32.8,30.1,32.7,28.8,32.6,27.6L32.6,27.6z"/>
<path class="st9" d="M44.1,12.9c1.2-0.3,2.5-0.5,3.7-0.6c1.2-0.1,2.4,0,3.5,0.1c0-0.1-0.1-0.3-0.1-0.4c-1-4.9-4.7-7.1-10.9-6.6
	c-2.8,0.4-5.5,1.7-7.5,3.7c-1.9,1.9-3.6,4.1-5,6.4C23.2,22.8,17.3,27.3,10.2,29c-2,0.6-4.1,0.8-6.2,0.8c-0.2-0.2-0.4-0.4-0.7-0.6
	C1,27.5-0.2,24.8,0,22c0-1.4,0.5-2.8,1.4-3.9c0.5-0.5,1.1-1,1.8-1.3c1.3-0.6,2.9-0.3,4,0.7c1.3,1.1,1.6,2.2,0.9,3.4
	c-0.2-0.4-0.5-0.8-0.8-1.1c-1.4-1.1-2.4-1.3-3-0.6C4,19.3,4,19.9,4.1,20.9c0,0.8,0.1,1.5,0.4,2.2c0.1,0.4,0.4,0.8,0.7,1.1
	c0.6,0.5,1.3,0.9,2,1.1c1,0.4,2.7-0.1,5-1.6c1.5-0.9,2.8-2,4-3.3c0.5-0.7,1.8-2.5,3.8-5.3s3.6-5.1,4.6-6.4c4.3-4.9,8.7-7.8,13.3-8.5
	c7.5-1.3,14.7,3.4,16.5,10.7c0.2,0.7,0.3,1.5,0.3,2.2c1.9,0.6,3.7,1.5,5.2,2.8c0.9,0.6,1.7,1.4,2.4,2.3c-1.2-0.8-2.5-1.6-3.9-2.2
	c-1.2-0.6-2.4-1.1-3.7-1.5c-1-0.3-2-0.5-3.1-0.6c-0.4,0-0.8,0-1.2,0c0.4,0.4,0.8,0.7,1.2,1c0.7,0.5,1.5,1.1,2.6,1.8
	c1.3,0.9,2.9,1.9,4.8,3.2c0.1,0,0.2,0.1,0.3,0.2c1.5,1,2.9,1.8,4.1,2.4c0.4,0.2,0.8,0.4,1.2,0.6c0.3,0.3,0.5,0.7,0.6,1.1
	c1.3,2.7,1.7,5.8,1.2,8.7c-0.1,0.8-0.3,1.5-0.6,2.2c-0.1-0.5-0.3-1-0.6-1.5c-0.4-0.8-1-1.5-1.5-2.1c-3-2.9-6.2-5.6-9.6-8
	c-1-0.9-1.9-1.8-2.7-2.8L50.7,20c-0.6-0.7-1.2-1.4-2-2.2l-1.9-2.2c-0.6-0.7-1.1-1.3-1.7-1.8C44.8,13.4,44.4,13.2,44.1,12.9
	L44.1,12.9z"/>
<path class="st10" d="M53.7,113.3c-1.7,2.9-4.8,4.6-8.1,4.5c-3.3,0-6.6-0.8-9.5-2.3c-1.6-0.6-4.2-1.6-7.6-2.9h-0.1
	c0.5-1.6,1.2-3.2,1.9-4.7c4.5-9,11-13,19.5-11.8c1.3,0.3,2.6,0.7,3.9,1.3c-0.4,0.9-0.6,1.7-0.8,2.6
	C51.4,105.2,51.7,109.6,53.7,113.3z"/>
<path class="st10" d="M59.2,67.2l0.3,3.6V71l0.2,0.1c0.8,2,1.5,4.1,2,6.1c-1.8-0.7-3.5-1.3-5.3-2C55.1,76,54,77,53.1,78.2
	c0.1-0.2,0.2-0.4,0.3-0.6c0.7-1,1.6-1.9,2.7-2.5c-9.1-5.5-16.3-10.1-21.5-13.6c-0.7-1.6-1.7-3.4-2.9-5.3c-1.1-1.5-2.4-2.7-4-3.7
	c1.1,0.1,2.2,0.1,3.4,0l0.8,0.2c-0.2,0-0.3-0.1-0.5-0.1c1.3,1.3,3.2,3,5.5,5.3c6.1,5.9,10.3,8.9,12.4,9.2c1.2,0.2,2.4-0.1,3.4-0.9
	c0.7-0.7,1.2-1.6,1.3-2.6c0-0.1,0.1-0.3,0.1-0.4l0.1,0.1c-0.1-0.1-0.1-0.2-0.1-0.3l0,0c0-0.9-0.2-1.7-0.4-2.5
	c-0.1-0.1-0.1-0.2-0.2-0.3c-0.3-1.3-0.6-2.7-1-4.3c0.8,0,1.7,0,2.5,0.2l0.4,0.8l0.6,1.1c0.8,1.6,1.5,3.4,2.1,5.1
	C58.6,64.6,59,65.9,59.2,67.2z"/>
<path class="st10" d="M35.6,74.2c2,1,4.1,2.2,6.5,3.5l7,3.9c-0.8,0.4-1.5,0.8-2.2,1.3c-1.5,1.1-3.4,1.6-5.2,1.5
	c-2.1-0.3-4-1.2-5.4-2.7c-1.3-1.3-1.9-2.6-1.7-3.8C34.9,76.6,35.3,75.3,35.6,74.2z"/>
<path class="st11" d="M35.6,74.2c-0.3,1.1-0.7,2.3-1.1,3.7c-0.2,1.1,0.4,2.4,1.7,3.8c1.4,1.5,3.3,2.5,5.4,2.7
	c1.9,0.1,3.7-0.4,5.2-1.5c0.7-0.5,1.5-0.9,2.2-1.3l5,2.8c0.1,0.1,0.2,0.1,0.3,0.2c1.4,0.8,2.8,1.5,4.3,2l-0.4,0.2
	c-0.2,0.1-0.3,0.2-0.5,0.3c-0.1,0-0.1,0-0.2,0l0,0v0.1c-0.4,1.3-1.2,3.3-2.4,6.2c-0.6,1.5-1,2.7-1.4,3.9c-1.2-0.6-2.5-1-3.9-1.3
	c-8.5-1.2-15.1,2.7-19.5,11.8c-0.7,1.5-1.4,3.1-1.9,4.7c-2.2-1-4.4-2.1-6.5-3.3l-0.4-0.3c2.7-1.4,4.6-3.8,5.4-6.7
	c0.9-2.9,0.8-6-0.2-8.9c-0.3-0.9-0.5-1.9-0.7-2.9c-1.7-6.8-3.6-13.9-5.8-21.2c-3.6-10-1.4-15.6,6.4-16.8l1.1,0.1
	c1.6,1,2.9,2.3,4,3.8c1.2,2,2.1,3.7,2.9,5.3l-0.1-0.1c-1.8-1.2-3.3-2.9-4.3-4.8c-1-1.9-2.2-2.8-3.5-2.7c-0.2,0-0.4,0-0.7,0
	c-0.5,0.1-1,0.2-1.5,0.3c-2.4,0.7-4.4,2.4-5.4,4.7c0,0.1-0.1,0.1-0.1,0.1c-0.1,0.2-0.1,0.4-0.2,0.6V60c0,0.6-0.1,1.2-0.2,1.8
	c-0.1,1.3,0.8,2.9,2.7,4.5c2.6,2.1,5.4,3.9,8.4,5.3C31.6,72.3,33.5,73.2,35.6,74.2z"/>
<path class="st11" d="M32,52.8l0.2,0.1h0.1l3.2,1.6l0.5,0.4c0.2,0.1,0.5,0.2,0.6,0.4c0.1,0,0.1,0,0.2,0.1c0.2,0.2,0.5,0.4,0.7,0.7
	l0.2,0.2c0.1,0.1,0.3,0.3,0.4,0.4c1.7,2.2,3.6,4.2,5.6,6.2c0.8-1.1,1.8-2,3-2.7c0.6-0.4,1.2-0.6,1.8-0.8c0.6-0.2,1.3-0.3,2-0.2
	c0.7,0.6,1.4,1.3,2,2.1c0.5,0.8,1.1,1.5,1.7,2.1c0,0.2,0,0.3-0.1,0.4c-0.1,1-0.6,1.9-1.3,2.6c-0.9,0.8-2.2,1.1-3.4,0.9
	c-2.1-0.3-6.3-3.4-12.4-9.2c-2.4-2.2-4.2-4.1-5.5-5.3C31.7,52.7,31.8,52.7,32,52.8L32,52.8z"/>
<path class="st12" d="M54.2,63.1c-0.1-0.3-0.1-0.7-0.2-1.1l-0.2-1.1c0-0.1-0.1-0.2-0.1-0.3c0-0.1,0-0.2-0.1-0.2l0,0
	c0,0.1,0.1,0.2,0.2,0.3C54,61.4,54.2,62.2,54.2,63.1L54.2,63.1z"/>
<path id="Path_2_" class="st13" d="M47.8,12.4c-1.2,0.1-2.5,0.3-3.7,0.6c-0.2,0-0.5,0-0.7,0.1c-0.5,0.1-1.1,0.3-1.7,0.5
	c-1.6,0.6-3.2,1.4-4.6,2.4c-0.1-1.4,0.4-2.8,1.4-3.9c2.2-2.4,5.9-2.7,8.4-0.6C47.3,11.7,47.6,12,47.8,12.4z"/>
<path id="Path_3_" class="st14" d="M54.7,117.3c-1,2-2.3,3.8-3.7,5.5c-0.6,0.8-2,2.2-4.1,4.6c-1.5,1.5-2.8,3-4,4.7
	c-1.1,1.7-2,3.6-2.4,5.6c-1.2-2.3-2.6-4.6-4.2-6.7c-1.3-1.6-2.4-3.4-3.1-5.3c-1.1-2.5-2.5-4.8-4.1-7c-0.9-1.2-1.9-2.3-3.1-3.3
	c-4.2-3.5-8.3-3.3-12.1,0.8c1.2-1.5,2.5-3,3.9-4.3c1.1-1,2.4-2,3.9-3.1l0.4,0.3c2.1,1.2,4.3,2.3,6.5,3.3h0.1
	c3.4,1.3,5.9,2.2,7.6,2.9c2.9,1.5,6.2,2.3,9.5,2.3c3.3,0.1,6.4-1.6,8.1-4.5C54.2,114.5,54.5,115.9,54.7,117.3z"/>
<path id="Shape_30_" class="st1" d="M26.1,54c0.2,0,0.4,0,0.7,0c1.3-0.1,2.4,0.8,3.5,2.7c1,2,2.4,3.6,4.3,4.8l0.1,0.1
	c5.2,3.5,12.4,8,21.5,13.6c-1.1,0.6-2,1.4-2.7,2.5c-5.2-2.8-10.3-5.8-15.2-9.1l-1.5-1C28.2,61.6,24.7,57.1,26.1,54z M48.5,59.2
	c-0.1-0.6-0.3-1.1-0.4-1.6c0.2,0.2,0.4,0.3,0.6,0.5c0.6-0.2,1-0.7,1.2-1.3c0.2-0.6,0.2-1.2-0.1-1.8c-0.5-1.2-0.7-1.9-0.7-1.9
	c-0.3-0.6-0.3-1.3,0-1.9l1.5,0.7c0.2,0.2,0.4,0.3,0.5,0.6l0.6,1.1c0.3,0.6,0.5,1.2,0.8,1.8c0,0.2,0,0.4,0.1,0.6c0.4,1.6,0.8,3,1,4.3
	l0,0c0,0.1,0.1,0.1,0.1,0.2c0,0.1,0.1,0.2,0.1,0.3l0.2,1.1c0.1,0.4,0.1,0.7,0.2,1.1l0,0c0,0.1,0,0.2,0.1,0.3l-0.1-0.1
	c-0.6-0.7-1.2-1.4-1.7-2.1c-0.6-0.8-1.3-1.4-2-2.1C49.7,58.9,49,59,48.5,59.2L48.5,59.2z M82.9,67.9l-0.1,10.4
	c-2.3-0.6-4.8-1.3-7.4-2.1c-4.7-1.5-9.9-3.3-15.6-5.3l-0.2-0.1l-0.3-3.6c-0.2-1.4-0.5-2.8-1-4.1c-0.6-1.7-1.3-3.4-2.1-5L55.6,57
	l-0.4-0.8c3.3,0.2,6.6,1.2,9.4,3c1.9,1.2,3.3,2.1,4.3,2.6c1.4,0.8,2.9,1.6,4.4,2.2c0,0,0.8,0.3,2.2,0.8l4.6,1.8
	C81,67.1,81.9,67.5,82.9,67.9L82.9,67.9z"/>
<path id="Shape_31_" class="st15" d="M37.2,42.7c0.7-0.5,1.4-0.9,2.2-1.2c0,0.2,0.1,0.4,0.2,0.6c0.3,1,0.7,2,1.2,2.9
	c0.6,1,1.3,1.8,2.1,2.6c1.8,1.5,3.8,2.8,5.9,3.9c-0.3,0.6-0.3,1.3,0,1.9c0,0,0.2,0.7,0.7,1.9c0.3,0.5,0.3,1.2,0.1,1.8
	c-0.2,0.6-0.7,1-1.2,1.3c-0.2-0.2-0.4-0.3-0.6-0.5c-1.8-1.6-3.7-3.1-5.8-4.5c-2.8-1.9-4.5-3.7-5.2-5.3
	C37.4,46.2,37.5,44.4,37.2,42.7L37.2,42.7z M41.7,192.1l-0.8,0.7l-2.6,2.1l-0.2,0.2c-1.3,0.9-2.5,2.1-3.5,3.3l-2.1-0.6l-0.4-0.1
	c4.2-4.3,6.4-7.2,6.6-8.7c0.1-1.8,0.1-3.7-0.1-5.5c-0.1-1.2-0.1-2.1-0.2-2.7c0.2-0.1,0.3-0.2,0.5-0.3c0-0.1,0.1-0.1,0.1-0.2l0.1-0.1
	c1,1.8,1.9,3.7,2.5,5.7c0.6,1.9,0.7,3.9,0.4,5.8l-0.2,0.4V192.1z"/>
</svg>
