<?xml version="1.0" encoding="UTF-8"?>
<!DOCTYPE svg PUBLIC "-//W3C//DTD SVG 1.1//EN" "http://www.w3.org/Graphics/SVG/1.1/DTD/svg11.dtd">
<!-- Creator: CorelDRAW 2018 (64-Bit) -->
<svg xmlns="http://www.w3.org/2000/svg" xml:space="preserve" width="54.2184mm" height="10.951mm" version="1.1" style="shape-rendering:geometricPrecision; text-rendering:geometricPrecision; image-rendering:optimizeQuality; fill-rule:evenodd; clip-rule:evenodd"
viewBox="0 0 3222.39 650.86"
 xmlns:xlink="http://www.w3.org/1999/xlink">
 <defs>
  <style type="text/css">
   <![CDATA[
    .fil0 {fill:#1DA5A5}
    .fil1 {fill:#69B548}
    .fil4 {fill:#5B5B5B;fill-rule:nonzero}
    .fil2 {fill:#1DA5A5;fill-rule:nonzero}
    .fil3 {fill:#69B548;fill-rule:nonzero}
   ]]>
  </style>
 </defs>
 <g id="Layer_x0020_1">
  <metadata id="CorelCorpID_0Corel-Layer"/>
  <path class="fil0" d="M161.67 69.77c-3.39,6.25 -69.47,41.45 -78.32,46.69 -28.87,17.11 -56.8,32.18 -82.37,47.67l-0.97 327.96c22.22,10.05 52.9,34.93 71.62,39.54l1.38 -186.01c2.09,-10.54 159.41,-91.61 172.1,-104.8l-61.31 -37.52c-21.48,-13.12 -20.98,-7.02 -65.42,19.8 -10.37,6.26 -35.23,22.73 -45.52,23.17l0.14 -38.36c23.13,-10.72 86.93,-57.51 100.55,-51.04l101.73 59.9c12.48,7.57 58.11,36.45 69.71,37.1l0.48 -89.73c-8.12,-5.16 -14.22,-8.17 -21,-11.95l-134.61 -77.59c-14.96,-8.83 -10.1,-10.38 -28.18,-4.83z"/>
  <path class="fil1" d="M391.54 590.18c4.01,-0.37 8.76,-3.94 21.25,-11.17l151.15 -86.64 -0.02 -328.84c-24.99,-11.38 -49.22,-30.6 -73.09,-40.17l0.31 191.58 -84.05 48.48c-27.92,15.8 -57.34,33.47 -84.35,48.08 5.4,8.26 10.02,9.04 19.15,14.51 7.15,4.28 13.48,8.11 20.67,12.67 46.85,29.76 32.68,25.72 84.5,-4.58 7.24,-4.24 36.08,-22.25 43.2,-23.58l0.78 37.34 -64.13 37.88c-10.62,6.41 -22.53,16.93 -35.43,11.04 -4.21,-1.93 -11.88,-6.81 -16.31,-9.27 -49.67,-27.96 -98.38,-53.3 -148.36,-80.12l-0.26 89.03c15.12,9.32 159.94,94.22 165.01,93.76z"/>
  <path class="fil0" d="M207.68 48.78c15.04,4.85 65.44,34.89 85.07,45.45 14.35,7.72 27.03,15.29 41.13,22.93 11.7,6.34 30.67,16.43 41.28,23.98l0.49 200.49 79.09 -44.57 1.25 -194.26 -162.11 -93.73c-5.33,-3.05 -0.71,0.31 -4.92,-2.98 -5.24,-4.11 -2.06,-0.75 -5.78,-6.08 -14.8,15.2 -70.15,35.04 -75.5,48.78z"/>
  <path class="fil1" d="M355.67 602.07c-15.03,-4.85 -65.44,-34.88 -85.06,-45.44 -14.35,-7.73 -27.03,-15.29 -41.13,-22.93 -11.7,-6.34 -30.67,-16.43 -41.28,-23.98l-0.49 -200.49 -79.09 44.57 -1.25 194.26 162.11 93.73c5.33,3.04 0.71,-0.31 4.92,2.98 5.24,4.11 2.06,0.74 5.78,6.08 14.8,-15.21 70.15,-35.04 75.5,-48.78z"/>
  <g id="_1761956672944">
   <path class="fil2" d="M691.09 156.73l0 205.69 146.63 0 0 -38.79 -102.56 0 0 -45.84 91.98 0 0 -38.5 -91.98 0 0 -43.78 100.79 0 0 -38.79 -144.87 0zm249.37 85.8l0 -21.16 -36.14 0 0 141.05 40.85 0 0 -82.87c8.52,-16.75 29.97,-25.27 52.3,-21.45l0 -39.67c-26.45,-2.64 -47.02,8.52 -57.01,24.1zm698.45 19.39c0,71.7 56.12,104.61 111.08,104.61 21.75,0 42.02,-4.7 59.65,-13.22l0 -43.2c-12.34,11.17 -31.74,17.05 -52.9,17.05 -35.85,0 -72.87,-19.98 -72.58,-65.23 0,-49.66 36.44,-70.23 72.58,-70.23 19.1,0 38.2,5.88 51.43,16.17l0 -42.03c-17.63,-8.81 -38.2,-13.22 -58.77,-13.22 -54.95,0 -110.2,34.09 -110.49,109.32zm228.21 -2.35c0,55.83 36.44,106.96 109.31,106.96 72.88,0 109.32,-51.13 109.32,-106.96 0,-55.83 -36.44,-106.96 -109.32,-106.96 -72.87,0 -109.31,51.13 -109.31,106.96zm173.37 0c0,36.15 -21.46,66.12 -64.06,66.12 -42.9,0 -64.35,-29.97 -64.35,-66.12 0,-36.14 21.45,-66.11 64.35,-66.11 42.61,0 64.06,29.97 64.06,66.11zm160.33 102.85l0 -106.08c0,-9.4 -0.29,-19.68 -0.88,-28.21l95.8 134.29 41.44 0 0 -205.69 -44.08 0 0 106.08c0,9.4 0.3,19.69 0.89,28.21l-95.8 -134.29 -41.43 0 0 205.69 44.08 0zm209.7 -151.34c0,72.88 112.55,58.48 112.55,96.97 0,14.69 -14.69,19.69 -38.5,19.69 -23.51,0 -49.37,-6.17 -72.88,-21.75l0 42.02c21.16,11.76 47.61,18.51 76.11,18.51 43.2,0 80.22,-14.39 80.22,-60.53 0,-73.17 -112.54,-59.94 -112.54,-95.5 0,-12.64 11.17,-18.8 33.5,-19.1 22.92,-0.3 46.14,5.88 63.48,18.22l0 -41.14c-17.63,-9.99 -42.32,-15.87 -66.7,-15.87 -40.55,0 -75.23,18.81 -75.23,58.48zm360.16 -54.36l0 126.06c0,32.62 -18.81,44.08 -46.43,44.08 -27.33,0 -46.14,-11.46 -46.14,-44.08l0 -126.06 -44.08 0 0 128.41c0,60.82 44.66,81.39 90.21,81.39 45.54,0 90.21,-20.57 90.21,-81.39l0 -128.41 -43.78 0zm124.19 0l0 205.69 144.87 0 0 -39.67 -100.79 0 0 -166.02 -44.08 0zm157.39 0l0 39.67 63.18 0 0 166.03 43.78 0 0 -166.03 63.18 0 0 -39.67 -170.14 0z"/>
   <path class="fil3" d="M1051.13 259.57c0,75.52 55.54,106.96 113.14,106.96 22.92,0 46.42,-4.99 66.99,-13.81l0 -101.96 -42.02 0 0 73.47c-6.17,2.35 -13.81,3.82 -22.63,3.82 -30.26,0 -70.52,-13.81 -70.52,-68.47 0,-48.19 36.14,-67.58 72.88,-67.58 20.86,0 41.72,5.58 57.3,15.87l0 -42.03c-19.1,-8.52 -41.14,-13.22 -63.18,-13.22 -56.42,0 -111.96,32.33 -111.96,106.96zm244.37 0c0,55.83 36.44,106.96 109.31,106.96 72.88,0 109.32,-51.13 109.32,-106.96 0,-55.83 -36.44,-106.96 -109.32,-106.96 -72.87,0 -109.31,51.13 -109.31,106.96zm173.37 0c0,36.15 -21.46,66.12 -64.06,66.12 -42.9,0 -64.35,-29.97 -64.35,-66.12 0,-36.14 21.45,-66.11 64.35,-66.11 42.61,0 64.06,29.97 64.06,66.11z"/>
  </g>
  <path class="fil4" d="M680.07 524.86c5.62,2.51 14.94,4.14 21.3,4.14 23.22,0 36.09,-9.16 36.09,-39.78 0,-30.47 -13.02,-39.05 -36.09,-39.05 -6.21,0 -15.97,1.63 -21.3,3.7l3.11 9.02c5.33,-2.51 11.98,-3.55 18.19,-3.55 15.53,0 23.67,3.85 25.15,22.48l-34.31 0 0 8.87 34.61 0c-0.3,23.37 -8.29,29.14 -25.44,29.14 -6.36,0 -12.86,-1.48 -18.19,-3.85l-3.11 8.87zm108.12 4.14c23.21,0 33.87,-9.16 33.87,-39.78 0,-30.47 -10.8,-39.05 -33.87,-39.05 -9.02,0 -22.04,2.22 -30.17,5.92l0 99.24 9.62 0 0 -32.54c3.7,2.96 9.91,6.21 20.56,6.21zm0 -69.66c17.45,0 23.21,4.73 23.21,30.17 0,24.25 -5.77,30.32 -23.21,30.32 -11.1,0 -20.56,-3.7 -20.56,-10.65l0 -46.73c5.77,-2.07 13.31,-3.11 20.56,-3.11zm54.42 -7.1l0 74.68 9.62 0 0 -65.81 37.86 0 0 -8.87 -47.48 0zm91.11 76.75c23.37,0 34.01,-9.16 34.01,-39.78 0,-30.47 -10.79,-39.05 -34.01,-39.05 -23.07,0 -33.87,8.58 -33.87,39.05 0,30.61 10.64,39.78 33.87,39.78zm0 -69.66c17.6,0 23.37,4.73 23.37,30.17 0,24.25 -5.77,30.32 -23.37,30.32 -17.45,0 -23.22,-6.07 -23.22,-30.32 0,-25.44 5.77,-30.17 23.22,-30.17zm104.56 31.21l0 36.38 9.61 0 0 -74.68 -9.61 0 0 29.87 -40.37 0 0 -29.87 -9.62 0 0 74.68 9.62 0 0 -36.38 40.37 0zm64.04 38.45c23.37,0 34.01,-9.16 34.01,-39.78 0,-30.47 -10.79,-39.05 -34.01,-39.05 -23.07,0 -33.87,8.58 -33.87,39.05 0,30.61 10.64,39.78 33.87,39.78zm0 -69.66c17.6,0 23.37,4.73 23.37,30.17 0,24.25 -5.77,30.32 -23.37,30.32 -17.45,0 -23.22,-6.07 -23.22,-30.32 0,-25.44 5.77,-30.17 23.22,-30.17zm94.51 48.36c-7.39,-18.63 -15.38,-36.83 -23.81,-55.46l-16.12 0 0 74.68 9.62 0 0 -66.11c8.72,19.23 17.6,41.41 25.14,60.78l9.02 0c6.95,-18.93 16.27,-41.12 25.44,-60.78l0 66.11 9.61 0 0 -74.68 -15.52 0c-8.58,18.48 -16.27,36.38 -23.37,55.46zm111.37 19.23l9.61 0 0 -74.68 -9.61 0c-12.87,21.59 -26.32,42.44 -40.37,60.78l0 -60.78 -9.62 0 0 74.68 9.62 0c13.9,-17.9 28.84,-38.6 40.37,-58.71l0 58.71zm56.05 -24.55c9.47,0 18.04,-3.1 21.74,-6.06l0 30.61 9.62 0 0 -74.68 -9.62 0 0 30.47c0,6.8 -10.06,10.5 -20.7,10.5 -14.94,0 -19.67,-4.58 -19.67,-27.36l0 -13.6 -9.61 0 0 15.52c0,27.21 7.98,34.61 28.24,34.61zm103.82 -11.83l0 36.38 9.61 0 0 -74.68 -9.61 0 0 29.87 -40.37 0 0 -29.87 -9.62 0 0 74.68 9.62 0 0 -36.38 40.37 0zm70.55 27.51l-28.84 0 0 -27.51 28.84 0c8.43,0 12.27,3.25 12.27,13.31 0,10.65 -3.55,14.2 -12.27,14.2zm-28.84 -35.94l0 -29.87 -9.62 0 0 74.68 38.45 0c16.27,0 22.92,-7.1 22.92,-23.22 0,-14.64 -6.66,-21.59 -22.92,-21.59l-28.84 0zm71.58 -29.87l-9.62 0 0 74.68 9.62 0 0 -74.68zm54.13 -2.07c-22.18,0 -33.57,9.76 -33.57,39.05 0,30.61 12.27,39.78 34.9,39.78 6.21,0 16.86,-1.77 24.55,-4.14l-2.22 -8.87c-6.36,2.37 -16.12,3.99 -21.44,3.99 -17.31,0 -25,-5.17 -25.15,-29.43l53.39 0c0,-31.8 -9.31,-40.38 -30.47,-40.38zm0 9.02c13.76,0 18.64,3.99 19.52,22.63l-42.3 0c1.18,-17.6 7.1,-22.63 22.77,-22.63zm121.58 69.8c23.21,0 33.87,-9.16 33.87,-39.78 0,-30.47 -10.8,-39.05 -33.87,-39.05 -9.02,0 -22.04,2.22 -30.17,5.92l0 99.24 9.62 0 0 -32.54c3.7,2.96 9.91,6.21 20.56,6.21zm0 -69.66c17.45,0 23.21,4.73 23.21,30.17 0,24.25 -5.77,30.32 -23.21,30.32 -11.1,0 -20.56,-3.7 -20.56,-10.65l0 -46.73c5.77,-2.07 13.31,-3.11 20.56,-3.11zm86.07 -9.17c-22.18,0 -33.57,9.76 -33.57,39.05 0,30.61 12.27,39.78 34.9,39.78 6.21,0 16.86,-1.77 24.55,-4.14l-2.22 -8.87c-6.36,2.37 -16.12,3.99 -21.44,3.99 -17.31,0 -25,-5.17 -25.15,-29.43l53.39 0c0,-31.8 -9.31,-40.38 -30.47,-40.38zm0 9.02c13.76,0 18.64,3.99 19.52,22.63l-42.3 0c1.18,-17.6 7.1,-22.63 22.77,-22.63zm133.4 58.86l-32.53 0 0 -65.81 -9.62 0 0 65.81 -32.53 0 0 -65.81 -9.62 0 0 74.68 93.92 0 0 -74.68 -9.62 0 0 65.81zm63.74 -67.89c-22.18,0 -33.57,9.76 -33.57,39.05 0,30.61 12.27,39.78 34.9,39.78 6.21,0 16.86,-1.77 24.55,-4.14l-2.22 -8.87c-6.36,2.37 -16.12,3.99 -21.44,3.99 -17.31,0 -25,-5.17 -25.15,-29.43l53.39 0c0,-31.8 -9.31,-40.38 -30.47,-40.38zm0 9.02c13.76,0 18.64,3.99 19.52,22.63l-42.3 0c1.18,-17.6 7.1,-22.63 22.77,-22.63zm99.09 31.36l0 36.38 9.61 0 0 -74.68 -9.61 0 0 29.87 -40.37 0 0 -29.87 -9.62 0 0 74.68 9.62 0 0 -36.38 40.37 0zm82.08 36.38l9.61 0 0 -74.68 -9.61 0c-12.87,21.59 -26.32,42.44 -40.37,60.78l0 -60.78 -9.62 0 0 74.68 9.62 0c13.9,-17.9 28.84,-38.6 40.37,-58.71l0 58.71zm54.13 -74.68c-18.19,0 -23.37,10.2 -23.37,21.74 0,10.5 5.62,19.22 21.74,19.22 -7.39,1.19 -13.02,5.77 -26.32,33.72l10.94 0c12.13,-27.36 18.64,-31.5 30.32,-31.5l13.91 0 0 31.5 9.61 0 0 -74.68 -36.83 0zm0.59 34.9c-9.61,0 -13.6,-4.43 -13.6,-13.31 0,-9.76 4.14,-12.72 13.02,-12.72l27.21 0 0 26.03 -26.63 0zm90.96 30.91l2.51 27.8 7.24 0 0 -18.93 63.74 0 0 18.93 7.25 0 2.51 -27.8 -13.61 0 0 -65.81 -45.4 0c-1.18,24.69 -6.06,47.03 -11.98,65.81l-12.27 0zm60.05 -56.94l0 56.94 -37.71 0c5.03,-17.9 9.46,-39.19 11.09,-56.94l26.62 0zm81.49 0l0 65.81 9.62 0 0 -74.68 -45.4 0c-1.33,28.84 -7.69,53.83 -15.09,74.68l10.5 0c6.21,-19.38 11.83,-44.96 13.75,-65.81l26.62 0zm54.13 -8.87c-18.19,0 -23.37,10.2 -23.37,21.74 0,10.5 5.62,19.22 21.74,19.22 -7.39,1.19 -13.02,5.77 -26.32,33.72l10.94 0c12.13,-27.36 18.64,-31.5 30.32,-31.5l13.91 0 0 31.5 9.61 0 0 -74.68 -36.83 0zm0.59 34.9c-9.61,0 -13.6,-4.43 -13.6,-13.31 0,-9.76 4.14,-12.72 13.02,-12.72l27.21 0 0 26.03 -26.63 0zm159.28 -66.41c-8.13,3.85 -17.15,5.18 -26.32,6.07 -23.66,2.22 -33.87,10.64 -33.87,58.71 0,32.54 10.35,43.48 30.91,43.48 23.07,0 33.87,-8.58 33.87,-37.56 0,-29.13 -10.65,-38.3 -31.21,-38.3 -12.42,0 -19.37,4.29 -23.51,10.5 2.37,-18.34 4.88,-25.88 23.81,-27.66 10.35,-1.03 19.38,-2.51 26.32,-5.91l0 -9.32zm-49.84 70.4c0,-22.04 4.43,-28.84 22.92,-28.84 15.08,0 20.85,6.06 20.85,28.84 0,23.96 -5.77,28.69 -23.22,28.69 -13.46,0 -20.55,-8.58 -20.55,-28.69zm124.97 35.79l9.61 0 0 -74.68 -9.61 0c-12.87,21.59 -26.32,42.44 -40.37,60.78l0 -60.78 -9.62 0 0 74.68 9.62 0c13.9,-17.9 28.84,-38.6 40.37,-58.71l0 58.71zm65.07 -40.08c14.94,-1.18 18.19,-9.31 18.19,-18.34 0,-12.13 -9.32,-18.34 -32.09,-18.34 -7.24,0 -17.45,1.18 -23.51,2.96l2.66 8.87c5.62,-2.07 12.86,-2.96 20.85,-2.96 17.01,0 22.19,3.26 22.19,11.39 0,9.17 -6.06,11.68 -20.86,11.68l-11.09 0 0 8.43 11.09 0c16.27,0 22.77,3.99 22.77,14.49 0,11.24 -5.33,15.08 -24.11,15.08 -8.13,0 -15.38,-0.74 -21.59,-2.95l-2.81 8.72c6.36,2.07 15.83,3.1 24.4,3.1 22.48,0 34.31,-5.47 34.31,-22.33 0,-10.2 -4.43,-19.08 -20.41,-19.82zm90.96 3.7l0 36.38 9.61 0 0 -74.68 -9.61 0 0 29.87 -40.37 0 0 -29.87 -9.62 0 0 74.68 9.62 0 0 -36.38 40.37 0zm63.74 -40.38c-22.18,0 -33.57,9.76 -33.57,39.05 0,30.61 12.27,39.78 34.9,39.78 6.21,0 16.86,-1.77 24.55,-4.14l-2.22 -8.87c-6.36,2.37 -16.12,3.99 -21.44,3.99 -17.31,0 -25,-5.17 -25.15,-29.43l53.39 0c0,-31.8 -9.31,-40.38 -30.47,-40.38zm0 9.02c13.76,0 18.64,3.99 19.52,22.63l-42.3 0c1.18,-17.6 7.1,-22.63 22.77,-22.63zm101.46 56.79c-5.33,2.37 -11.83,3.85 -18.19,3.85 -17.45,0 -25.44,-6.07 -25.44,-30.32 0,-25.44 7.99,-30.17 25.44,-30.17 6.22,0 12.87,1.03 18.19,3.55l3.11 -9.02c-5.33,-2.07 -15.08,-3.7 -21.3,-3.7 -23.07,0 -36.08,8.58 -36.08,39.05 0,30.61 12.87,39.78 36.08,39.78 6.36,0 15.68,-1.62 21.3,-4.14l-3.11 -8.87zm74.24 -36.83c0,-22.63 -9.32,-28.99 -31.06,-28.99 -10.06,0 -19.08,2.07 -24.84,3.7l2.81 9.02c5.91,-2.51 14.34,-3.55 21.44,-3.55 17.3,0 22.03,3.85 22.03,22.19 -7.68,-1.63 -13.46,-2.37 -21.3,-2.37 -16.71,0 -29.58,3.41 -29.58,24.7 0,19.38 8.87,25.14 30.32,25.14 9.46,0 22.03,-2.22 30.17,-5.91l0 -43.93zm-9.62 37.72c-5.77,2.07 -12.86,3.4 -20.11,3.4 -15.67,0 -19.96,-2.22 -19.96,-17.15 0,-13.76 5.03,-15.38 19.96,-15.38 7.39,0 14.64,0.59 20.11,1.92l0 27.21z"/>
 </g>
</svg>
