<?xml version="1.0" encoding="utf-8"?>
<!-- Generator: Adobe Illustrator 22.1.0, SVG Export Plug-In . SVG Version: 6.00 Build 0)  -->
<svg version="1.1" id="Layer_1" xmlns="http://www.w3.org/2000/svg" xmlns:xlink="http://www.w3.org/1999/xlink" x="0px" y="0px"
	 viewBox="0 0 209.5 44" style="enable-background:new 0 0 209.5 44;" xml:space="preserve">
<style type="text/css">
	.st0{fill-rule:evenodd;clip-rule:evenodd;fill:#1DA5A5;}
	.st1{fill-rule:evenodd;clip-rule:evenodd;fill:#69B548;}
	.st2{fill:#1DA5A5;}
	.st3{fill:#6D6E70;}
</style>
<g>
	<path class="st0" d="M10.9,4.7c-0.2,0.4-4.7,2.8-5.3,3.2C3.7,9,1.8,10,0.1,11.1L0,33.3c1.5,0.7,3.6,2.4,4.8,2.7l0.1-12.6
		c0.1-0.7,10.8-6.2,11.6-7.1l-4.1-2.5C11,12.9,11,13.3,8,15.1c-0.7,0.4-2.4,1.5-3.1,1.6l0-2.6c1.6-0.7,5.9-3.9,6.8-3.5l6.9,4.1
		c0.8,0.5,3.9,2.5,4.7,2.5l0-6.1c-0.5-0.3-1-0.6-1.4-0.8L12.8,5C11.8,4.4,12.2,4.3,10.9,4.7L10.9,4.7z"/>
	<path class="st1" d="M26.5,39.9c0.3,0,0.6-0.3,1.4-0.8l10.2-5.9l0-22.2c-1.7-0.8-3.3-2.1-4.9-2.7l0,13l-5.7,3.3
		c-1.9,1.1-3.9,2.3-5.7,3.3c0.4,0.6,0.7,0.6,1.3,1c0.5,0.3,0.9,0.5,1.4,0.9c3.2,2,2.2,1.7,5.7-0.3c0.5-0.3,2.4-1.5,2.9-1.6l0.1,2.5
		l-4.3,2.6c-0.7,0.4-1.5,1.1-2.4,0.7c-0.3-0.1-0.8-0.5-1.1-0.6c-3.4-1.9-6.7-3.6-10-5.4l0,6C16.3,34.2,26.1,39.9,26.5,39.9
		L26.5,39.9z"/>
	<path class="st0" d="M14,3.3c1,0.3,4.4,2.4,5.8,3.1c1,0.5,1.8,1,2.8,1.6c0.8,0.4,2.1,1.1,2.8,1.6l0,13.6l5.3-3L30.8,7l-11-6.3
		c-0.4-0.2,0,0-0.3-0.2c-0.4-0.3-0.1-0.1-0.4-0.4C18.1,1,14.4,2.4,14,3.3L14,3.3z"/>
	<path class="st1" d="M24,40.7c-1-0.3-4.4-2.4-5.8-3.1c-1-0.5-1.8-1-2.8-1.6c-0.8-0.4-2.1-1.1-2.8-1.6l0-13.6l-5.3,3L7.3,37.1
		l11,6.3c0.4,0.2,0,0,0.3,0.2c0.4,0.3,0.1,0.1,0.4,0.4C19.9,43,23.7,41.6,24,40.7L24,40.7z"/>
	<path class="st2" d="M49,15.2v-2h5.8v-2.1h-8.1v11h4.8c2.2,0,4.2-0.7,4.2-3.5c0-2.7-2.1-3.5-4.2-3.5H49L49,15.2z M49,20.1v-2.8h2.4
		c0.9,0,1.8,0.2,1.8,1.4c0,1.2-0.9,1.4-1.8,1.4H49L49,20.1z M67,22.2v-11h-2.2l-5.1,7.2c0-0.5,0-1,0-1.5v-5.7h-2.4v11h2.2l5.1-7.2
		c0,0.5,0,1,0,1.5v5.7H67L67,22.2z M77.5,19.2c0-1.7-1.1-2.5-2.2-2.8c1.1-0.4,1.8-1.2,1.8-2.4c0-2-1.8-3-4.4-3
		c-1.2,0-2.4,0.2-3.7,0.7v2.3c1.3-0.6,2.5-0.9,3.5-0.9c1.4,0,2.2,0.4,2.2,1.3c0,0.8-0.7,1.2-1.7,1.2h-2.3l0,2.1h2.5
		c1.1,0,2,0.3,2,1.3c0,1.1-1.2,1.4-2.4,1.4c-1.2,0-2.5-0.1-3.9-0.9v2.3c1.5,0.5,2.8,0.7,4.1,0.7C75.1,22.4,77.5,21.6,77.5,19.2
		L77.5,19.2z M86.6,11.1v4.4h-5v-4.4h-2.4v11h2.4v-4.4h5v4.4h2.4v-11H86.6L86.6,11.1z M91.3,11.1v11h7.9v-2.1h-5.5v-2.5h4.9v-2.1
		h-4.9v-2.4h5.4v-2.1H91.3L91.3,11.1z M100.3,16.8c0,3.8,3,5.6,6,5.6c1.2,0,2.3-0.3,3.2-0.7v-2.3c-0.7,0.6-1.7,0.9-2.8,0.9
		c-1.9,0-3.9-1.1-3.9-3.5c0-2.7,2-3.8,3.9-3.8c1,0,2.1,0.3,2.8,0.9v-2.3c-0.9-0.5-2.1-0.7-3.2-0.7C103.2,10.9,100.3,12.7,100.3,16.8
		L100.3,16.8z M120.1,22.2l0.8-2.1h5l0.8,2.1h2.4l-4.5-11h-2.6l-4.5,11H120.1L120.1,22.2z M123.2,14.2c0.1-0.2,0.2-0.4,0.3-0.9
		c0.1,0.4,0.2,0.6,0.2,0.9l1.5,4h-3.6L123.2,14.2L123.2,14.2z M137.8,11.1v4.4h-5v-4.4h-2.4v11h2.4v-4.4h5v4.4h2.4v-11H137.8
		L137.8,11.1z M143.8,22.2l0.8-2.1h5l0.8,2.1h2.4l-4.5-11h-2.6l-4.5,11H143.8L143.8,22.2z M146.9,14.2c0.1-0.2,0.2-0.4,0.3-0.9
		c0.1,0.4,0.2,0.6,0.2,0.9l1.5,4h-3.6L146.9,14.2L146.9,14.2z M156.1,11.1c-0.3,3.9-0.4,8.9-2.2,9c-0.3,0-0.6,0-0.8-0.1v2.1
		c0.4,0.2,0.9,0.2,1.2,0.2c3.1,0,3.6-4.4,3.9-9.1h3v8.9h2.4v-11H156.1L156.1,11.1z M175.8,22.2v-11h-2.2l-5.1,7.2c0-0.5,0-1,0-1.5
		v-5.7h-2.4v11h2.2l5.1-7.2c0,0.5,0,1,0,1.5v5.7H175.8L175.8,22.2z M177.2,11.1v2.1h3.4v8.9h2.4v-8.9h3.4v-2.1H177.2L177.2,11.1z
		 M197.4,22.2v-11h-2.2l-5.1,7.2c0-0.5,0-1,0-1.5v-5.7h-2.4v11h2.2L195,15c0,0.5,0,1,0,1.5v5.7H197.4L197.4,22.2z M202.1,22.2v-4.5
		h1.8l3,4.5h2.6l-3.8-5.7l3.6-5.4h-2.6l-2.8,4.4h-1.8v-4.4h-2.4v11H202.1L202.1,22.2z M110.9,17.4v1.8h5.9v-1.8H110.9L110.9,17.4z"
		/>
	<path class="st3" d="M52.1,33.9c-1.8-3.1-2.5-3.4-3.2-3.7c0.4-0.3,1.4-1.3,3-3.1h-1.1c-1.4,1.5-2.6,2.8-3.2,3.3v-3.3h-0.9v6.8h0.9
		v-3.3c0.9,0.1,2,0.6,3.5,3.3H52.1L52.1,33.9z M56,34.1c2.1,0,3.1-0.8,3.1-3.6c0-2.8-1-3.6-3.1-3.6c-2.1,0-3.1,0.8-3.1,3.6
		C52.9,33.2,53.9,34.1,56,34.1L56,34.1z M56,27.7c1.6,0,2.1,0.4,2.1,2.8c0,2.2-0.5,2.8-2.1,2.8c-1.6,0-2.1-0.6-2.1-2.8
		C53.9,28.2,54.4,27.7,56,27.7L56,27.7z M65.6,30.6v3.3h0.9v-6.8h-0.9v2.7h-3.7v-2.7H61v6.8h0.9v-3.3H65.6L65.6,30.6z M73.3,32.9
		c-0.5,0.2-1.1,0.4-1.7,0.4c-1.6,0-2.3-0.6-2.3-2.8c0-2.3,0.7-2.8,2.3-2.8c0.6,0,1.2,0.1,1.7,0.3l0.3-0.8c-0.5-0.2-1.4-0.3-1.9-0.3
		c-2.1,0-3.3,0.8-3.3,3.6c0,2.8,1.2,3.6,3.3,3.6c0.6,0,1.4-0.1,1.9-0.4L73.3,32.9L73.3,32.9z M80,29.5c0-2.1-0.8-2.6-2.8-2.6
		c-0.9,0-1.7,0.2-2.3,0.3l0.3,0.8c0.5-0.2,1.3-0.3,2-0.3c1.6,0,2,0.4,2,2c-0.7-0.1-1.2-0.2-1.9-0.2c-1.5,0-2.7,0.3-2.7,2.3
		c0,1.8,0.8,2.3,2.8,2.3c0.9,0,2-0.2,2.8-0.5V29.5L80,29.5z M79.2,33c-0.5,0.2-1.2,0.3-1.8,0.3c-1.4,0-1.8-0.2-1.8-1.6
		c0-1.3,0.5-1.4,1.8-1.4c0.7,0,1.3,0.1,1.8,0.2V33L79.2,33z M86.2,27.9v6h0.9v-6.8H83c-0.1,2.6-0.7,4.9-1.4,6.8h1
		c0.6-1.8,1.1-4.1,1.3-6H86.2L86.2,27.9z M91.8,27.9h2.7v-0.8h-6.2v0.8H91v6h0.9V27.9L91.8,27.9z M100.2,33.9h0.9v-6.8h-0.9
		c-1.2,2-2.4,3.9-3.7,5.5v-5.5h-0.9v6.8h0.9c1.3-1.6,2.6-3.5,3.7-5.4V33.9L100.2,33.9z M107.7,30.6v3.3h0.9v-6.8h-0.9v2.7H104v-2.7
		h-0.9v6.8h0.9v-3.3H107.7L107.7,30.6z M110.6,27.1v6.8h0.9v-6h3.5v-0.8H110.6L110.6,27.1z M118.9,34.1c2.1,0,3.1-0.8,3.1-3.6
		c0-2.8-1-3.6-3.1-3.6c-2.1,0-3.1,0.8-3.1,3.6C115.8,33.2,116.8,34.1,118.9,34.1L118.9,34.1z M118.9,27.7c1.6,0,2.1,0.4,2.1,2.8
		c0,2.2-0.5,2.8-2.1,2.8c-1.6,0-2.1-0.6-2.1-2.8C116.8,28.2,117.3,27.7,118.9,27.7L118.9,27.7z M127.5,33.1h-2.7v-2.5h2.7
		c0.8,0,1.1,0.5,1.1,1.3C128.5,32.7,128.3,33.1,127.5,33.1L127.5,33.1L127.5,33.1z M127.4,29.8h-2.6v-2h2.6c0.8,0,1,0.2,1,0.9
		C128.4,29.4,128.2,29.8,127.4,29.8L127.4,29.8z M128,30.2c1.2-0.1,1.3-0.7,1.3-1.5c0-0.8-0.3-1.6-1.8-1.6h-3.6v6.8h3.7
		c1.2,0,1.9-0.6,1.9-1.9C129.5,31,129.2,30.3,128,30.2L128,30.2L128,30.2z M136.6,29.5c0-2.1-0.8-2.6-2.8-2.6
		c-0.9,0-1.7,0.2-2.3,0.3l0.3,0.8c0.5-0.2,1.3-0.3,2-0.3c1.6,0,2,0.4,2,2c-0.7-0.1-1.2-0.2-1.9-0.2c-1.5,0-2.7,0.3-2.7,2.3
		c0,1.8,0.8,2.3,2.8,2.3c0.9,0,2-0.2,2.8-0.5V29.5L136.6,29.5z M135.7,33c-0.5,0.2-1.2,0.3-1.8,0.3c-1.4,0-1.8-0.2-1.8-1.6
		c0-1.3,0.5-1.4,1.8-1.4c0.7,0,1.3,0.1,1.8,0.2V33L135.7,33z M140.7,27.1c-1.7,0-2.1,0.9-2.1,2c0,1,0.5,1.8,2,1.8
		c-0.7,0.1-1.2,0.5-2.4,3.1h1c1.1-2.5,1.7-2.9,2.8-2.9h1.3v2.9h0.9v-6.8H140.7L140.7,27.1z M140.7,30.3c-0.9,0-1.2-0.4-1.2-1.2
		c0-0.9,0.4-1.2,1.2-1.2h2.5v2.4H140.7L140.7,30.3z M155.3,33.9c-1.8-3.1-2.5-3.4-3.2-3.7c0.4-0.3,1.4-1.3,3-3.1H154
		c-1.4,1.5-2.6,2.8-3.2,3.3v-3.3h-0.9v6.8h0.9v-3.3c0.9,0.1,2,0.6,3.5,3.3H155.3L155.3,33.9z M159.3,34.1c2.1,0,3.1-0.8,3.1-3.6
		c0-2.8-1-3.6-3.1-3.6c-2.1,0-3.1,0.8-3.1,3.6C156.2,33.2,157.2,34.1,159.3,34.1L159.3,34.1z M159.3,27.7c1.6,0,2.1,0.4,2.1,2.8
		c0,2.2-0.5,2.8-2.1,2.8c-1.6,0-2.1-0.6-2.1-2.8C157.2,28.2,157.7,27.7,159.3,27.7L159.3,27.7z M167.9,32.1
		c-0.7-1.7-1.4-3.4-2.2-5.1h-1.5v6.8h0.9v-6c0.8,1.8,1.6,3.8,2.3,5.5h0.8c0.6-1.7,1.5-3.7,2.3-5.5v6h0.9v-6.8H170
		C169.2,28.8,168.5,30.4,167.9,32.1L167.9,32.1z M178.1,27.9v6h0.9v-6.8h-5.4v6.8h0.9v-6H178.1L178.1,27.9z M186.2,29.5
		c0-2.1-0.8-2.6-2.8-2.6c-0.9,0-1.7,0.2-2.3,0.3l0.3,0.8c0.5-0.2,1.3-0.3,2-0.3c1.6,0,2,0.4,2,2c-0.7-0.1-1.2-0.2-1.9-0.2
		c-1.5,0-2.7,0.3-2.7,2.3c0,1.8,0.8,2.3,2.8,2.3c0.9,0,2-0.2,2.8-0.5V29.5L186.2,29.5z M185.4,33c-0.5,0.2-1.2,0.3-1.8,0.3
		c-1.4,0-1.8-0.2-1.8-1.6c0-1.3,0.5-1.4,1.8-1.4c0.7,0,1.3,0.1,1.8,0.2V33L185.4,33z M192.8,30.6v3.3h0.9v-6.8h-0.9v2.7h-3.7v-2.7
		h-0.9v6.8h0.9v-3.3H192.8L192.8,30.6z M200.3,33.9h0.9v-6.8h-0.9c-1.2,2-2.4,3.9-3.7,5.5v-5.5h-0.9v6.8h0.9
		c1.3-1.6,2.6-3.5,3.7-5.4V33.9L200.3,33.9z M205.3,27.1c-1.7,0-2.1,0.9-2.1,2c0,1,0.5,1.8,2,1.8c-0.7,0.1-1.2,0.5-2.4,3.1h1
		c1.1-2.5,1.7-2.9,2.8-2.9h1.3v2.9h0.9v-6.8H205.3L205.3,27.1z M205.3,30.3c-0.9,0-1.2-0.4-1.2-1.2c0-0.9,0.4-1.2,1.2-1.2h2.5v2.4
		H205.3L205.3,30.3z"/>
</g>
</svg>
