<?xml version="1.0" encoding="utf-8"?>
<!-- Generator: Adobe Illustrator 22.0.1, SVG Export Plug-In . SVG Version: 6.00 Build 0)  -->
<svg version="1.1" id="Layer_1" xmlns="http://www.w3.org/2000/svg" xmlns:xlink="http://www.w3.org/1999/xlink" x="0px" y="0px"
	 viewBox="0 0 208.6 44" style="enable-background:new 0 0 208.6 44;" xml:space="preserve">
<style type="text/css">
	.st0{fill-rule:evenodd;clip-rule:evenodd;fill:#1DA5A5;}
	.st1{fill-rule:evenodd;clip-rule:evenodd;fill:#69B548;}
	.st2{fill:#1DA5A5;}
	.st3{fill:#6D6E70;}
</style>
<g>
	<path class="st0" d="M10.9,4.7c-0.2,0.4-4.7,2.8-5.3,3.2C3.7,9,1.8,10,0.1,11.1L0,33.3c1.5,0.7,3.6,2.4,4.8,2.7l0.1-12.6
		c0.1-0.7,10.8-6.2,11.6-7.1l-4.1-2.5C11,12.9,11,13.3,8,15.1c-0.7,0.4-2.4,1.5-3.1,1.6l0-2.6c1.6-0.7,5.9-3.9,6.8-3.5l6.9,4.1
		c0.8,0.5,3.9,2.5,4.7,2.5l0-6.1c-0.5-0.3-1-0.6-1.4-0.8L12.8,5C11.8,4.4,12.2,4.3,10.9,4.7L10.9,4.7z"/>
	<path class="st1" d="M26.5,39.9c0.3,0,0.6-0.3,1.4-0.8l10.2-5.9l0-22.2c-1.7-0.8-3.3-2.1-4.9-2.7l0,13l-5.7,3.3
		c-1.9,1.1-3.9,2.3-5.7,3.3c0.4,0.6,0.7,0.6,1.3,1c0.5,0.3,0.9,0.5,1.4,0.9c3.2,2,2.2,1.7,5.7-0.3c0.5-0.3,2.4-1.5,2.9-1.6l0.1,2.5
		l-4.3,2.6c-0.7,0.4-1.5,1.1-2.4,0.7c-0.3-0.1-0.8-0.5-1.1-0.6c-3.4-1.9-6.7-3.6-10-5.4l0,6C16.3,34.2,26.1,39.9,26.5,39.9
		L26.5,39.9z"/>
	<path class="st0" d="M14,3.3c1,0.3,4.4,2.4,5.8,3.1c1,0.5,1.8,1,2.8,1.6c0.8,0.4,2.1,1.1,2.8,1.6l0,13.6l5.3-3L30.8,7l-11-6.3
		c-0.4-0.2,0,0-0.3-0.2c-0.4-0.3-0.1-0.1-0.4-0.4C18.1,1,14.4,2.4,14,3.3L14,3.3z"/>
	<path class="st1" d="M24,40.7c-1-0.3-4.4-2.4-5.8-3.1c-1-0.5-1.8-1-2.8-1.6c-0.8-0.4-2.1-1.1-2.8-1.6l0-13.6l-5.3,3L7.3,37.1
		l11,6.3c0.4,0.2,0,0,0.3,0.2c0.4,0.3,0.1,0.1,0.4,0.4C19.9,43,23.7,41.6,24,40.7L24,40.7z"/>
	<path class="st2" d="M48.3,22.8l2.7-4.7h1.4v4.7h2.5v-4.7h1.4l2.7,4.7h2.8l-3.5-5.9l3.2-5.6h-2.8l-2.5,4.6h-1.4v-4.6h-2.5v4.6H51
		l-2.5-4.6h-2.8l3.2,5.6l-3.4,5.9H48.3L48.3,22.8z M75.3,22.8V11.3H73l-5.4,7.5c0-0.5,0-1.1,0-1.6v-6h-2.5v11.5h2.3l5.4-7.5
		c0,0.5,0,1.1,0,1.6v6H75.3L75.3,22.8z M79.9,11.3v11.5h5c2,0,4.5-0.6,4.5-3.2c0-1.7-1.1-2.5-2.2-2.9c1-0.3,1.7-1.2,1.7-2.5
		c0-2-1.5-2.9-4-2.9H79.9L79.9,11.3z M86.9,19.3c0,1.3-1,1.5-2.1,1.5h-2.5v-3H85C86,17.8,86.9,18.1,86.9,19.3L86.9,19.3z M86.5,14.6
		c0,0.9-0.7,1.3-1.6,1.3h-2.5v-2.6h2.4C85.8,13.3,86.5,13.7,86.5,14.6L86.5,14.6z M92.7,17c0,3.1,2,6,6.1,6c4.1,0,6.1-2.9,6.1-6
		s-2-6-6.1-6C94.8,11,92.7,13.9,92.7,17L92.7,17z M102.5,17c0,2-1.2,3.7-3.6,3.7c-2.4,0-3.6-1.7-3.6-3.7c0-2,1.2-3.7,3.6-3.7
		C101.3,13.3,102.5,15,102.5,17L102.5,17z M116.6,22.8v-6c0-0.5,0-1.1,0-1.6l-5.4,7.5H109V11.3h2.5v6c0,0.5,0,1.1,0,1.6l5.4-7.5h2.3
		v11.5H116.6L116.6,22.8z M116.6,9.7V7.9c-0.9,0.5-1.7,0.7-2.6,0.7c-0.9,0-1.7-0.2-2.6-0.7v1.8c0.7,0.5,1.5,0.7,2.6,0.7
		C115.1,10.5,115.9,10.2,116.6,9.7L116.6,9.7z M133.5,15.6v-2.1h6v-2.2h-8.5v11.5h5c2.3,0,4.4-0.8,4.4-3.6c0-2.9-2.1-3.6-4.4-3.6
		H133.5L133.5,15.6z M133.5,20.6v-2.9h2.6c1,0,1.9,0.2,1.9,1.5s-0.9,1.5-1.9,1.5H133.5L133.5,20.6z M154.5,22.8V11.3h-2.3l-5.4,7.5
		c0-0.5,0-1.1,0-1.6v-6h-2.5v11.5h2.3l5.4-7.5c0,0.5,0,1.1,0,1.6v6H154.5L154.5,22.8z M167.5,19.7c0-1.7-1.1-2.6-2.3-3
		c1.1-0.4,1.8-1.3,1.8-2.5c0-2.1-1.8-3.1-4.6-3.1c-1.2,0-2.5,0.2-3.8,0.8v2.4c1.4-0.7,2.6-0.9,3.6-0.9c1.5,0,2.3,0.4,2.3,1.3
		c0,0.8-0.7,1.2-1.8,1.2h-2.4l0,2.2h2.6c1.1,0,2.1,0.3,2.1,1.4c0,1.2-1.2,1.5-2.5,1.5c-1.2,0-2.6-0.1-4.1-0.9v2.4
		c1.5,0.5,2.9,0.7,4.3,0.7C165.1,23,167.5,22.3,167.5,19.7L167.5,19.7z M179.2,11.3v4.6H174v-4.6h-2.5v11.5h2.5v-4.6h5.2v4.6h2.5
		V11.3H179.2L179.2,11.3z M186.3,11.3v11.5h8.2v-2.2h-5.8v-2.6h5.2v-2.2h-5.2v-2.5h5.7v-2.2H186.3L186.3,11.3z M197.8,17.2
		c0,4,3.1,5.9,6.2,5.9c1.2,0,2.4-0.3,3.3-0.7v-2.4c-0.7,0.6-1.8,1-3,1c-2,0-4.1-1.1-4.1-3.7c0-2.8,2-3.9,4.1-3.9
		c1.1,0,2.1,0.3,2.9,0.9v-2.4c-1-0.5-2.1-0.7-3.3-0.7C200.9,11,197.8,13,197.8,17.2L197.8,17.2z"/>
	<path class="st3" d="M52.1,33.9c-1.8-3.1-2.5-3.4-3.2-3.7c0.4-0.3,1.4-1.3,3-3.1h-1.1c-1.4,1.5-2.6,2.8-3.2,3.3v-3.3h-0.9v6.8h0.9
		v-3.3c0.9,0.1,2,0.6,3.5,3.3H52.1L52.1,33.9z M56,34.1c2.1,0,3.1-0.8,3.1-3.6c0-2.8-1-3.6-3.1-3.6c-2.1,0-3.1,0.8-3.1,3.6
		C52.9,33.2,53.9,34.1,56,34.1L56,34.1z M56,27.7c1.6,0,2.1,0.4,2.1,2.8c0,2.2-0.5,2.8-2.1,2.8c-1.6,0-2.1-0.6-2.1-2.8
		C53.9,28.2,54.4,27.7,56,27.7L56,27.7z M65.6,30.6v3.3h0.9v-6.8h-0.9v2.7h-3.7v-2.7H61v6.8h0.9v-3.3H65.6L65.6,30.6z M73.3,32.9
		c-0.5,0.2-1.1,0.4-1.7,0.4c-1.6,0-2.3-0.6-2.3-2.8c0-2.3,0.7-2.8,2.3-2.8c0.6,0,1.2,0.1,1.7,0.3l0.3-0.8c-0.5-0.2-1.4-0.3-1.9-0.3
		c-2.1,0-3.3,0.8-3.3,3.6c0,2.8,1.2,3.6,3.3,3.6c0.6,0,1.4-0.1,1.9-0.4L73.3,32.9L73.3,32.9z M80,29.5c0-2.1-0.8-2.6-2.8-2.6
		c-0.9,0-1.7,0.2-2.3,0.3l0.3,0.8c0.5-0.2,1.3-0.3,2-0.3c1.6,0,2,0.4,2,2c-0.7-0.1-1.2-0.2-1.9-0.2c-1.5,0-2.7,0.3-2.7,2.3
		c0,1.8,0.8,2.3,2.8,2.3c0.9,0,2-0.2,2.8-0.5V29.5L80,29.5z M79.2,33c-0.5,0.2-1.2,0.3-1.8,0.3c-1.4,0-1.8-0.2-1.8-1.6
		c0-1.3,0.5-1.4,1.8-1.4c0.7,0,1.3,0.1,1.8,0.2V33L79.2,33z M86.2,27.9v6h0.9v-6.8H83c-0.1,2.6-0.7,4.9-1.4,6.8h1
		c0.6-1.8,1.1-4.1,1.3-6H86.2L86.2,27.9z M91.8,27.9h2.7v-0.8h-6.2v0.8H91v6h0.9V27.9L91.8,27.9z M100.2,33.9h0.9v-6.8h-0.9
		c-1.2,2-2.4,3.9-3.7,5.5v-5.5h-0.9v6.8h0.9c1.3-1.6,2.6-3.5,3.7-5.4V33.9L100.2,33.9z M107.7,30.6v3.3h0.9v-6.8h-0.9v2.7H104v-2.7
		h-0.9v6.8h0.9v-3.3H107.7L107.7,30.6z M110.6,27.1v6.8h0.9v-6h3.5v-0.8H110.6L110.6,27.1z M118.9,34.1c2.1,0,3.1-0.8,3.1-3.6
		c0-2.8-1-3.6-3.1-3.6c-2.1,0-3.1,0.8-3.1,3.6C115.8,33.2,116.8,34.1,118.9,34.1L118.9,34.1z M118.9,27.7c1.6,0,2.1,0.4,2.1,2.8
		c0,2.2-0.5,2.8-2.1,2.8c-1.6,0-2.1-0.6-2.1-2.8C116.8,28.2,117.3,27.7,118.9,27.7L118.9,27.7z M127.5,33.1h-2.7v-2.5h2.7
		c0.8,0,1.1,0.5,1.1,1.3C128.5,32.7,128.3,33.1,127.5,33.1L127.5,33.1L127.5,33.1z M127.4,29.8h-2.6v-2h2.6c0.8,0,1,0.2,1,0.9
		C128.4,29.4,128.2,29.8,127.4,29.8L127.4,29.8z M128,30.2c1.2-0.1,1.3-0.7,1.3-1.5c0-0.8-0.3-1.6-1.8-1.6h-3.6v6.8h3.7
		c1.2,0,1.9-0.6,1.9-1.9C129.5,31,129.2,30.3,128,30.2L128,30.2L128,30.2z M136.6,29.5c0-2.1-0.8-2.6-2.8-2.6
		c-0.9,0-1.7,0.2-2.3,0.3l0.3,0.8c0.5-0.2,1.3-0.3,2-0.3c1.6,0,2,0.4,2,2c-0.7-0.1-1.2-0.2-1.9-0.2c-1.5,0-2.7,0.3-2.7,2.3
		c0,1.8,0.8,2.3,2.8,2.3c0.9,0,2-0.2,2.8-0.5V29.5L136.6,29.5z M135.7,33c-0.5,0.2-1.2,0.3-1.8,0.3c-1.4,0-1.8-0.2-1.8-1.6
		c0-1.3,0.5-1.4,1.8-1.4c0.7,0,1.3,0.1,1.8,0.2V33L135.7,33z M140.7,27.1c-1.7,0-2.1,0.9-2.1,2c0,1,0.5,1.8,2,1.8
		c-0.7,0.1-1.2,0.5-2.4,3.1h1c1.1-2.5,1.7-2.9,2.8-2.9h1.3v2.9h0.9v-6.8H140.7L140.7,27.1z M140.7,30.3c-0.9,0-1.2-0.4-1.2-1.2
		c0-0.9,0.4-1.2,1.2-1.2h2.5v2.4H140.7L140.7,30.3z M155.3,33.9c-1.8-3.1-2.5-3.4-3.2-3.7c0.4-0.3,1.4-1.3,3-3.1H154
		c-1.4,1.5-2.6,2.8-3.2,3.3v-3.3h-0.9v6.8h0.9v-3.3c0.9,0.1,2,0.6,3.5,3.3H155.3L155.3,33.9z M159.3,34.1c2.1,0,3.1-0.8,3.1-3.6
		c0-2.8-1-3.6-3.1-3.6c-2.1,0-3.1,0.8-3.1,3.6C156.2,33.2,157.2,34.1,159.3,34.1L159.3,34.1z M159.3,27.7c1.6,0,2.1,0.4,2.1,2.8
		c0,2.2-0.5,2.8-2.1,2.8c-1.6,0-2.1-0.6-2.1-2.8C157.2,28.2,157.7,27.7,159.3,27.7L159.3,27.7z M167.9,32.1
		c-0.7-1.7-1.4-3.4-2.2-5.1h-1.5v6.8h0.9v-6c0.8,1.8,1.6,3.8,2.3,5.5h0.8c0.6-1.7,1.5-3.7,2.3-5.5v6h0.9v-6.8H170
		C169.2,28.8,168.5,30.4,167.9,32.1L167.9,32.1z M178.1,27.9v6h0.9v-6.8h-5.4v6.8h0.9v-6H178.1L178.1,27.9z M186.2,29.5
		c0-2.1-0.8-2.6-2.8-2.6c-0.9,0-1.7,0.2-2.3,0.3l0.3,0.8c0.5-0.2,1.3-0.3,2-0.3c1.6,0,2,0.4,2,2c-0.7-0.1-1.2-0.2-1.9-0.2
		c-1.5,0-2.7,0.3-2.7,2.3c0,1.8,0.8,2.3,2.8,2.3c0.9,0,2-0.2,2.8-0.5V29.5L186.2,29.5z M185.4,33c-0.5,0.2-1.2,0.3-1.8,0.3
		c-1.4,0-1.8-0.2-1.8-1.6c0-1.3,0.5-1.4,1.8-1.4c0.7,0,1.3,0.1,1.8,0.2V33L185.4,33z M192.8,30.6v3.3h0.9v-6.8h-0.9v2.7h-3.7v-2.7
		h-0.9v6.8h0.9v-3.3H192.8L192.8,30.6z M200.3,33.9h0.9v-6.8h-0.9c-1.2,2-2.4,3.9-3.7,5.5v-5.5h-0.9v6.8h0.9
		c1.3-1.6,2.6-3.5,3.7-5.4V33.9L200.3,33.9z M205.3,27.1c-1.7,0-2.1,0.9-2.1,2c0,1,0.5,1.8,2,1.8c-0.7,0.1-1.2,0.5-2.4,3.1h1
		c1.1-2.5,1.7-2.9,2.8-2.9h1.3v2.9h0.9v-6.8H205.3L205.3,27.1z M205.3,30.3c-0.9,0-1.2-0.4-1.2-1.2c0-0.9,0.4-1.2,1.2-1.2h2.5v2.4
		H205.3L205.3,30.3z"/>
</g>
</svg>
