<?xml version="1.0" encoding="utf-8"?><svg xmlns="http://www.w3.org/2000/svg" xmlns:xlink="http://www.w3.org/1999/xlink"><symbol viewBox="0 0 512 512" id="icon-adv-1" xmlns="http://www.w3.org/2000/svg"><path d="M502 208.7h-64c-5.5 0-10 4.5-10 10v50.5c0 5.5 4.5 10 10 10s10-4.5 10-10v-40.5h44V492h-44V344.2c0-5.5-4.5-10-10-10s-10 4.5-10 10V492h-20V285c0-5.5-4.5-10-10-10h-64c-5.5 0-10 4.5-10 10v207h-20V355c0-5.5-4.5-10-10-10h-64c-5.5 0-10 4.5-10 10v137h-20v-79.6c0-5.5-4.5-10-10-10h-64c-5.5 0-10 4.5-10 10V492H30c-5.5 0-10-4.5-10-10V30c0-5.5 4.5-10 10-10h258v66c0 16.5 13.5 30 30 30h66v123c0 5.5 4.5 10 10 10s10-4.5 10-10V106c0-2.7-1.1-5.2-2.9-7.1l-96-96C303.2 1.1 300.6 0 298 0H30C13.5 0 0 13.5 0 30v452c0 16.5 13.5 30 30 30h472c5.5 0 10-4.5 10-10V218.7c0-5.5-4.5-10-10-10zM308 34.1L369.8 96H318c-5.5 0-10-4.5-10-10V34.1zM180 492h-44v-69.6h44V492zm104 0h-44V365h44v127zm104 0h-44V295h44v197z"/><path d="M445.1 297.8c-1.9-1.9-4.4-2.9-7.1-2.9s-5.2 1.1-7.1 2.9c-1.9 1.9-2.9 4.4-2.9 7.1s1.1 5.2 2.9 7.1c1.9 1.9 4.4 2.9 7.1 2.9s5.2-1.1 7.1-2.9 2.9-4.4 2.9-7.1-1.1-5.2-2.9-7.1zM145.6 54.7c-5.5 0-10 4.5-10 10v18c-46 5-82 44.1-82 91.4 0 50.7 41.3 92 92 92 47.3 0 86.4-35.9 91.4-82h18c5.5 0 10-4.5 10-10 0-65.8-53.6-119.4-119.4-119.4zm0 191.4c-39.7 0-72-32.3-72-72 0-36.3 27-66.4 62-71.3v71.3c0 5.5 4.5 10 10 10h71.3c-4.9 35-35 62-71.3 62zm10-81.9v-89c46.9 4.7 84.2 42.1 88.9 88.9h-88.9zM255 294.3H64c-5.5 0-10 4.5-10 10s4.5 10 10 10h191c5.5 0 10-4.5 10-10s-4.5-10-10-10zm-127 48.2H64c-5.5 0-10 4.5-10 10s4.5 10 10 10h64c5.5 0 10-4.5 10-10s-4.5-10-10-10zm57.1 2.9c-1.9-1.9-4.4-2.9-7.1-2.9-2.6 0-5.2 1.1-7.1 2.9-1.9 1.9-2.9 4.4-2.9 7.1s1.1 5.2 2.9 7.1c1.9 1.9 4.4 2.9 7.1 2.9 2.6 0 5.2-1.1 7.1-2.9 1.9-1.9 2.9-4.4 2.9-7.1s-1-5.2-2.9-7.1z"/></symbol><symbol viewBox="0 0 460 512" id="icon-adv-2" xmlns="http://www.w3.org/2000/svg"><path d="M250 243c-5.5 0-10 4.5-10 10s4.5 10 10 10 10-4.5 10-10-4.5-10-10-10zm0 86h-40c-5.5 0-10 4.5-10 10v40c0 5.5 4.5 10 10 10h40c5.5 0 10-4.5 10-10v-40c0-5.5-4.5-10-10-10zm-10 40h-20v-20h20v20zm90-40h-40c-5.5 0-10 4.5-10 10v40c0 5.5 4.5 10 10 10h40c5.5 0 10-4.5 10-10v-40c0-5.5-4.5-10-10-10zm-10 40h-20v-20h20v20zm-70 40h-40c-5.5 0-10 4.5-10 10v40c0 5.5 4.5 10 10 10h40c5.5 0 10-4.5 10-10v-40c0-5.5-4.5-10-10-10zm-10 40h-20v-20h20v20zm90-40h-40c-5.5 0-10 4.5-10 10v40c0 5.5 4.5 10 10 10h40c5.5 0 10-4.5 10-10v-40c0-5.5-4.5-10-10-10zm-10 40h-20v-20h20v20zm90-120h-40c-5.5 0-10 4.5-10 10v120c0 5.5 4.5 10 10 10h40c5.5 0 10-4.5 10-10V339c0-5.5-4.5-10-10-10zm-10 120h-20V349h20v100z"/><path d="M410 203H210c-5.5 0-10 4.5-10 10v86c0 5.5 4.5 10 10 10h200c5.5 0 10-4.5 10-10v-86c0-5.5-4.5-10-10-10zm-10 86H220v-66h180v66z"/><path d="M430 160h-90V99.6c0-7.8-3-15.2-8.4-20.8L264.3 9.1c-2.9-3-6.4-5.4-10.3-6.9-.1-.1-.3-.1-.4-.2-3.5-1.4-7.1-2-10.9-2H30C13.5 0 0 13.5 0 30v389c0 16.5 13.5 30 30 30h130v33c0 16.5 13.5 30 30 30h240c16.5 0 30-13.5 30-30V190c0-16.5-13.5-30-30-30zM260 33.4l57.2 59.2c1.8 1.9 2.8 4.3 2.8 6.9v.4h-50c-5.5 0-10-4.5-10-10V33.4zM160 190v239H30c-5.5 0-10-4.5-10-10V30c0-5.5 4.5-10 10-10h210v70c0 16.5 13.5 30 30 30h50v40H190c-16.5 0-30 13.5-30 30zm280 292c0 5.5-4.5 10-10 10H190c-5.5 0-10-4.5-10-10V190c0-5.5 4.5-10 10-10h240c5.5 0 10 4.5 10 10v292z"/><path d="M370 243h-80c-5.5 0-10 4.5-10 10s4.5 10 10 10h80c5.5 0 10-4.5 10-10s-4.5-10-10-10zM210 120H45c-5.5 0-10 4.5-10 10s4.5 10 10 10h165c5.5 0 10-4.5 10-10s-4.5-10-10-10zm0-40H45c-5.5 0-10 4.5-10 10s4.5 10 10 10h165c5.5 0 10-4.5 10-10s-4.5-10-10-10zm-80 123H50c-5.5 0-10 4.5-10 10s4.5 10 10 10h80c5.5 0 10-4.5 10-10s-4.5-10-10-10zm-60 40H50c-5.5 0-10 4.5-10 10s4.5 10 10 10h20c5.5 0 10-4.5 10-10s-4.5-10-10-10zm60 0h-20c-5.5 0-10 4.5-10 10s4.5 10 10 10h20c5.5 0 10-4.5 10-10s-4.5-10-10-10zm-60 46H50c-5.5 0-10 4.5-10 10s4.5 10 10 10h20c5.5 0 10-4.5 10-10s-4.5-10-10-10zm60 0h-20c-5.5 0-10 4.5-10 10s4.5 10 10 10h20c5.5 0 10-4.5 10-10s-4.5-10-10-10zm-60 40H50c-5.5 0-10 4.5-10 10s4.5 10 10 10h20c5.5 0 10-4.5 10-10s-4.5-10-10-10zm60 0h-20c-5.5 0-10 4.5-10 10s4.5 10 10 10h20c5.5 0 10-4.5 10-10s-4.5-10-10-10zm-60 40H50c-5.5 0-10 4.5-10 10s4.5 10 10 10h20c5.5 0 10-4.5 10-10s-4.5-10-10-10zm60 0h-20c-5.5 0-10 4.5-10 10s4.5 10 10 10h20c5.5 0 10-4.5 10-10s-4.5-10-10-10z"/></symbol><symbol viewBox="0 0 512 404" id="icon-adv-3" xmlns="http://www.w3.org/2000/svg"><path d="M37.1 255.6c-1.9-1.9-4.4-2.9-7.1-2.9s-5.2 1.1-7.1 2.9-2.9 4.4-2.9 7.1c0 2.6 1.1 5.2 2.9 7.1 1.9 1.9 4.4 2.9 7.1 2.9s5.2-1.1 7.1-2.9c1.9-1.9 2.9-4.4 2.9-7.1s-1.1-5.2-2.9-7.1zm20-232.7l-20-20C33.2-1 26.8-1 22.9 2.9l-20 20C-1 26.8-1 33.2 2.9 37.1 6.8 41 13.1 41 17 37.1l2.9-2.9v188.2c0 5.5 4.5 10 10 10s10-4.5 10-10V34.1l2.9 2.9c2 2 4.5 2.9 7.1 2.9s5.1-1 7.1-2.9c4-3.8 4-10.2.1-14.1zm452 344l-20-20c-3.9-3.9-10.2-3.9-14.1 0-3.9 3.9-3.9 10.2 0 14.1l2.9 2.9H442V223.7c0-5.5-4.5-10-10-10s-10 4.5-10 10V364H313.6v-64c0-5.5-4.5-10-10-10s-10 4.5-10 10v64h-83.1V203.5c0-5.5-4.5-10-10-10s-10 4.5-10 10V364h-80.3v-62.5c0-5.5-4.5-10-10-10s-10 4.5-10 10V364H40v-57.6c0-5.5-4.5-10-10-10s-10 4.5-10 10V374c0 5.5 4.5 10 10 10h447.9l-2.9 2.9c-3.9 3.9-3.9 10.2 0 14.1 2 2 4.5 2.9 7.1 2.9s5.1-1 7.1-2.9l20-20c3.8-3.8 3.8-10.2-.1-14.1z"/><path d="M432 77.5c-19.9 0-36.1 16.2-36.1 36.1 0 5.7 1.3 11.1 3.7 15.9l-78.3 78.3c-5.2-2.9-11.2-4.6-17.7-4.6-6.3 0-12.2 1.6-17.3 4.4l-53-53c2.1-4.6 3.3-9.6 3.3-15 0-19.9-16.2-36.1-36.1-36.1s-36.1 16.2-36.1 36.1c0 6.1 1.5 11.9 4.3 17l-51 51c-5.2-2.9-11.1-4.5-17.4-4.5-19.9 0-36.1 16.2-36.1 36.1s16.2 36.1 36.1 36.1 36.1-16.2 36.1-36.1c0-6.3-1.6-12.3-4.5-17.5l50.8-50.8c5.3 3 11.4 4.8 17.9 4.8 7.3 0 14.1-2.2 19.8-5.9l51.8 51.8c-2.9 5.2-4.6 11.2-4.6 17.6 0 19.9 16.2 36.1 36.1 36.1s36.1-16.2 36.1-36.1c0-6.2-1.6-12.1-4.4-17.2l77.7-77.7c5.5 3.4 12 5.4 18.9 5.4 19.9 0 36.1-16.2 36.1-36.1 0-19.9-16.2-36.1-36.1-36.1zM100.2 255.4c-8.9 0-16.1-7.2-16.1-16.1s7.2-16.1 16.1-16.1c4.4 0 8.3 1.7 11.2 4.6 0 .1.1.1.1.2l.2.2c2.8 2.9 4.6 6.9 4.6 11.2 0 8.8-7.2 16-16.1 16zm100.3-99.6c-8.9 0-16.1-7.2-16.1-16.1s7.2-16.1 16.1-16.1 16.1 7.2 16.1 16.1-7.2 16.1-16.1 16.1zm103.1 99.6c-8.9 0-16.1-7.2-16.1-16.1s7.2-16.1 16.1-16.1 16.1 7.2 16.1 16.1c0 8.9-7.2 16.1-16.1 16.1zM432 129.7c-8.9 0-16.1-7.2-16.1-16.1s7.2-16.1 16.1-16.1 16.1 7.2 16.1 16.1-7.2 16.1-16.1 16.1z"/><path d="M439 174.9c-1.9-1.9-4.4-2.9-7.1-2.9s-5.2 1.1-7.1 2.9c-1.9 1.9-2.9 4.4-2.9 7.1s1.1 5.2 2.9 7.1c1.9 1.9 4.4 2.9 7.1 2.9s5.2-1.1 7.1-2.9c1.9-1.9 2.9-4.4 2.9-7.1s-1-5.2-2.9-7.1z"/></symbol><symbol viewBox="0 0 512 512" id="icon-adv-4" xmlns="http://www.w3.org/2000/svg"><path d="M128.3 290.1c-1.9 1.9-2.9 4.4-2.9 7.1 0 2.6 1.1 5.2 2.9 7.1 1.9 1.9 4.4 2.9 7.1 2.9s5.2-1.1 7.1-2.9c1.9-1.9 2.9-4.4 2.9-7.1 0-2.6-1.1-5.2-2.9-7.1-1.9-1.9-4.4-2.9-7.1-2.9-2.7-.1-5.2 1-7.1 2.9z"/><path d="M10 307.1h85.4c5.5 0 10-4.5 10-10s-4.5-10-10-10H20V20h380v87.4c0 5.5 4.5 10 10 10s10-4.5 10-10V10c0-5.5-4.5-10-10-10H10C4.5 0 0 4.5 0 10v287.1c0 5.5 4.5 10 10 10zm400-169.7c-2.6 0-5.2 1.1-7.1 2.9-1.9 1.9-2.9 4.4-2.9 7.1s1.1 5.2 2.9 7.1 4.4 2.9 7.1 2.9 5.2-1.1 7.1-2.9c1.9-1.9 2.9-4.4 2.9-7.1s-1.1-5.2-2.9-7.1-4.5-2.9-7.1-2.9zm74.5 115.5c6.2-7.7 9.9-17.4 9.9-27.9v-10.6c0-24.7-20.1-44.7-44.7-44.7H444c-24.7 0-44.7 20.1-44.7 44.7V225c0 7.8 2 15 5.5 21.4l-3.6-.9c-23-5.8-43.4-18.3-58.9-36.3-5.1-5.9-12.3-9.5-20.1-9.9-7.8-.4-15.3 2.3-21.1 7.7-10.3 9.6-12 25.6-4 37.2l10.2 14.7c7.4 10.7 16.4 20.2 26.5 28.3H175.4c-5.5 0-10 4.5-10 10s4.5 10 10 10h192l20.8 9.9V502c0 5.5 4.5 10 10 10H502c5.5 0 10-4.5 10-10V293.7c0-18.4-11.4-34.3-27.5-40.8zm-65.2-38.6c0-13.6 11.1-24.7 24.7-24.7h5.6c13.6 0 24.7 11.1 24.7 24.7v10.6c0 13.4-10.8 24.4-24.2 24.7h-6.7c-13.4-.3-24.2-11.3-24.2-24.7l.1-10.6zM492 492h-31.9v-41.3c0-5.5-4.5-10-10-10s-10 4.5-10 10V492h-31.9v-82.7H492V492zm0-102.7h-83.8v-78.6c0-3.9-2.2-7.4-5.7-9l-33.7-16c-18.1-8.6-33.7-21.8-45.1-38.2l-10.2-14.7c-2.4-3.5-1.9-8.3 1.2-11.2 1.7-1.6 4-2.4 6.3-2.3 2.4.1 4.5 1.2 6.1 3 18.2 21.1 42.1 35.8 69.2 42.6l17.9 4.5c.8.2 1.6.3 2.4.3h51.1c13.3 0 24.1 10.8 24.1 24.1l.2 95.5z"/><path d="M294.1 409.2c5.2-7.5 8.3-16.6 8.3-26.5v-9.1c0-25.6-20.8-46.4-46.4-46.4s-46.4 20.8-46.4 46.4v9.1c0 9.8 3.1 19 8.3 26.5-18.1.5-34.1 9.8-43.9 23.8-9.8-14-25.7-23.2-43.9-23.8 5.2-7.5 8.3-16.6 8.3-26.5v-9.1c0-25.6-20.8-46.4-46.4-46.4S45.6 348 45.6 373.6v9.1c0 9.8 3.1 19 8.3 26.5C24 410.1 0 434.6 0 464.7V502c0 5.5 4.5 10 10 10h328c5.5 0 10-4.5 10-10v-37.3c0-30.1-24-54.6-53.9-55.5zM65.6 373.6c0-14.6 11.9-26.4 26.4-26.4s26.4 11.9 26.4 26.4v9.1c0 14.6-11.9 26.4-26.4 26.4s-26.4-11.9-26.4-26.4v-9.1zM164 492H20v-27.3c0-19.6 16-35.6 35.6-35.6h72.9c19.6 0 35.6 16 35.6 35.6L164 492zm65.6-118.4c0-14.6 11.9-26.4 26.4-26.4s26.4 11.9 26.4 26.4v9.1c0 14.6-11.9 26.4-26.4 26.4s-26.4-11.9-26.4-26.4v-9.1zM328 492H184v-27.3c0-19.6 15.9-35.6 35.6-35.6h72.9c19.6 0 35.6 16 35.6 35.6L328 492zm26.3-416.6h-29.6c-5.5 0-10 4.5-10 10s4.5 10 10 10h29.6c5.5 0 10-4.5 10-10s-4.4-10-10-10zm0 40h-73c-5.5 0-10 4.5-10 10s4.5 10 10 10h73c5.5 0 10-4.5 10-10s-4.4-10-10-10zm-126.9 55.1h7.1c5.5 0 10-4.5 10-10 0-59.4-48.3-107.8-107.8-107.8-5.5 0-10 4.5-10 10v7.1c-45.6 5-81.2 43.7-81.2 90.7 0 50.3 40.9 91.2 91.2 91.2 47 0 85.7-35.6 90.7-81.2zm-80.6-97.3c40.4 4.6 72.6 36.8 77.2 77.2h-77.2V73.2zm-20 63.1L94 103.5c9.4-7.1 20.6-11.9 32.8-13.6v46.4zm10 95.4c-39.3 0-71.2-31.9-71.2-71.2 0-16 5.3-30.8 14.3-42.8l49.8 49.8c1.8 1.8 4.3 2.9 7.1 2.9h70.5c-4.9 34.6-34.7 61.3-70.5 61.3z"/></symbol><symbol viewBox="0 0 31.5 22.1" id="icon-arrow" xmlns="http://www.w3.org/2000/svg"><path class="est0" d="M21.2.3c-.4-.4-1.1-.4-1.6 0-.4.4-.4 1.1 0 1.6l8 8H1.1c-.6.1-1.1.5-1.1 1.2s.5 1.1 1.1 1.1h26.6l-8 8c-.4.4-.4 1.2 0 1.6.4.4 1.2.4 1.6 0l10-10c.4-.4.4-1.1 0-1.6L21.2.3z"/></symbol><symbol viewBox="0 0 512 512" id="icon-steps-1" xmlns="http://www.w3.org/2000/svg"><path d="M132 188.6c-2.6 0-5.2 1.1-7.1 2.9-1.9 1.9-2.9 4.4-2.9 7.1 0 2.6 1.1 5.2 2.9 7.1 1.9 1.9 4.4 2.9 7.1 2.9s5.2-1.1 7.1-2.9c1.9-1.9 2.9-4.4 2.9-7.1 0-2.6-1.1-5.2-2.9-7.1-1.9-1.8-4.5-2.9-7.1-2.9zm280.9 103c-1.9 1.9-2.9 4.4-2.9 7.1 0 2.6 1.1 5.2 2.9 7.1s4.4 2.9 7.1 2.9 5.2-1.1 7.1-2.9c1.9-1.9 2.9-4.4 2.9-7.1s-1.1-5.2-2.9-7.1c-1.9-1.9-4.4-2.9-7.1-2.9s-5.2 1-7.1 2.9zM246 470c0 5.5 4.5 10 10 10h.1c5.5 0 10-4.5 10-10s-4.5-10-10-10-10.1 4.5-10.1 10z"/><path d="M488.8 102H430V40c0-22.1-17.9-40-40-40H122C99.9 0 82 17.9 82 40v188.6H24.7C11.1 228.6 0 239.7 0 253.3v114.6c0 13.6 11.1 24.7 24.7 24.7H82V472c0 22.1 17.9 40 40 40h268c22.1 0 40-17.9 40-40V338.7c0-5.5-4.5-10-10-10s-10 4.5-10 10V472c0 11-9 20-20 20H122c-11 0-20-9-20-20v-79.4h20V438c0 5.5 4.5 10 10 10h248c5.5 0 10-4.5 10-10V268.6h98.8c12.8 0 23.2-10.4 23.2-23.2V125.2c0-12.8-10.4-23.2-23.2-23.2zM45.2 372.6l44-44c6.4 3.8 13.6 5.7 20.8 5.7 7.2 0 14.4-1.9 20.8-5.7l44 44H45.2zm29-57.3l-54 54c-.1-.4-.2-.9-.2-1.4V261.1l54.2 54.2zM200 367.9c0 .5-.1 1-.2 1.4l-54-54 54.2-54.2v106.8zm-75.4-59.6c-8.1 8.1-21.2 8.1-29.2 0l-59.7-59.7h148.5l-59.6 59.7zM370 428H142v-35.4h53.3c13.6 0 24.7-11.1 24.7-24.7V253.3c0-13.6-11.1-24.7-24.7-24.7H102V40c0-11 9-20 20-20h268c11 0 20 9 20 20v62h-20V64c0-5.5-4.5-10-10-10H132c-5.5 0-10 4.5-10 10v94.6c0 5.5 4.5 10 10 10s10-4.5 10-10V74h228v28h-54.8c-12.8 0-23.2 10.4-23.2 23.2V278c0 3.4 1.8 6.6 4.6 8.4 1.6 1 3.5 1.6 5.4 1.6 1.4 0 2.9-.3 4.3-.9l39.3-18.5H370V428zm122-182.6c0 1.8-1.4 3.2-3.2 3.2H343.3c-1.5 0-2.9.3-4.3.9l-27 12.7v-137c0-1.8 1.4-3.2 3.2-3.2h173.6c1.8 0 3.2 1.4 3.2 3.2v120.2z"/><path d="M422.8 194h-75.7c-5.5 0-10 4.5-10 10s4.5 10 10 10h75.7c5.5 0 10-4.5 10-10s-4.5-10-10-10zm34-40H347.2c-5.5 0-10 4.5-10 10s4.5 10 10 10h109.7c5.5 0 10-4.5 10-10s-4.5-10-10.1-10z"/></symbol><symbol viewBox="0 0 512 512" id="icon-steps-2" xmlns="http://www.w3.org/2000/svg"><path d="M181.7 366.8c-.7-.2-1.5-.3-2.2-.4 11-11.5 17.7-27.1 17.7-44.2v-52.6c0-.5 0-1-.1-1.4.1-1 .1-1.9.1-2.9V232c0-5.5-4.5-10-10-10h-67.1c-28.2 0-51.2 23-51.2 51.2v49c0 17.1 6.7 32.7 17.7 44.2-.7 0-1.5.2-2.2.4C37.2 371.1 0 410.9 0 459.3V502c0 5.5 4.5 10 10 10h246.1c5.5 0 10-4.5 10-10v-42.7c0-48.4-37.1-88.2-84.4-92.5zM88.9 286v-12.7c0-17.2 14-31.2 31.2-31.2h57.1v23.3c0 11.7-9.5 21.3-21.3 21.3h-67v-.7zm0 20.6h67c7.8 0 15-2.2 21.3-5.9v21.5c0 24.3-19.8 44.1-44.1 44.1S89 346.5 89 322.2v-15.6zm65.9 79.8L133 408.2l-21.8-21.8h43.6zM246.1 492H20v-20h41.5c5.5 0 10-4.5 10-10s-4.5-10-10-10H20.4c3.4-33.7 29.8-60.7 63.3-65l42.4 42.4c1.9 1.9 4.4 2.9 7.1 2.9 2.7 0 5.2-1.1 7.1-2.9l42.4-42.4c35.8 4.6 63.6 35.2 63.6 72.2V492zm181.5-347.3c-.7-.2-1.5-.3-2.2-.4 11-11.5 17.7-27.1 17.7-44.2V47.6c0-.5 0-1-.1-1.4.1-1 .1-1.9.1-2.9V10c0-5.5-4.5-10-10-10H366c-28.2 0-51.2 23-51.2 51.2v49c0 17.1 6.7 32.7 17.7 44.2-.7 0-1.5.2-2.2.4-47.3 4.3-84.4 44.1-84.4 92.5V280c0 5.5 4.5 10 10 10h80.5c5.5 0 10-4.5 10-10s-4.5-10-10-10h-70.5v-32.7c0-37 27.8-67.7 63.6-72.2l42.4 42.4c2 2 4.5 2.9 7.1 2.9s5.1-1 7.1-2.9l42.4-42.4c35.8 4.6 63.6 35.2 63.6 72.2V270h-73.7c-5.5 0-10 4.5-10 10s4.5 10 10 10H502c5.5 0 10-4.5 10-10v-42.7c0-48.5-37.2-88.3-84.4-92.6zm-48.7 41.4l-21.8-21.8h43.5l-21.7 21.8zm44.2-85.9c0 24.3-19.8 44.1-44.1 44.1s-44.1-19.8-44.1-44.1V84.5h67c7.8 0 15-2.2 21.3-5.9v21.6zm0-56.9c0 11.7-9.5 21.3-21.3 21.3h-67V51.2c0-17.2 14-31.2 31.2-31.2h57.1v23.3z"/><path d="M386 272.8c-1.9-1.9-4.4-2.9-7.1-2.9-2.6 0-5.2 1.1-7.1 2.9-1.9 1.9-2.9 4.4-2.9 7.1 0 2.6 1.1 5.2 2.9 7.1 1.9 1.9 4.4 2.9 7.1 2.9 2.6 0 5.2-1.1 7.1-2.9 1.9-1.9 2.9-4.4 2.9-7.1 0-2.6-1-5.2-2.9-7.1zM267.4 139.9l-41.8-41.8V50c0-27.6-22.4-50-50-50H50C22.4 0 0 22.4 0 50v88c0 27.6 22.4 50 50 50h125.6c20.7 0 38.7-12.4 46.3-31h38.5c4 0 7.7-2.4 9.2-6.2 1.5-3.7.7-8-2.2-10.9zm-52.8-2.9c-4.7 0-8.7 3.2-9.7 7.8-3.1 13.7-15.2 23.2-29.2 23.2H50c-16.5 0-30-13.5-30-30V50c0-16.5 13.5-30 30-30h125.6c16.5 0 30 13.5 30 30v52.3c0 2.7 1.1 5.2 2.9 7.1l27.7 27.7h-21.6zM462 324H336.4c-20.7 0-38.7 12.4-46.3 31h-38.5c-4 0-7.7 2.4-9.2 6.2s-.7 8 2.2 10.9l41.8 41.8V462c0 27.6 22.4 50 50 50H462c27.6 0 50-22.4 50-50v-88c0-27.6-22.4-50-50-50zm30 138c0 16.5-13.5 30-30 30H336.4c-16.5 0-30-13.5-30-30v-52.3c0-2.7-1.1-5.2-2.9-7.1L275.8 375h21.6c4.7 0 8.7-3.2 9.7-7.8 3.1-13.7 15.2-23.2 29.2-23.2H462c16.5 0 30 13.5 30 30v88z"/><path d="M444.2 391.4c-3.9-3.9-10.2-3.9-14.1 0L403.4 418 391 405.6c-3.9-3.9-10.2-3.9-14.1 0-3.9 3.9-3.9 10.2 0 14.1l19.4 19.4c2 2 4.5 2.9 7.1 2.9s5.1-1 7.1-2.9l33.7-33.7c3.9-3.8 3.9-10.1 0-14zM158.3 66.3c-1.2-17.1-15-31-32.2-32.2-9.7-.7-19 2.6-26.1 9.2-7 6.5-11 15.8-11 25.3 0 5.5 4.5 10 10 10s10-4.5 10-10c0-4.1 1.7-7.9 4.7-10.7 3-2.8 6.9-4.2 11.1-3.9 7.2.5 13.1 6.3 13.6 13.6S134.1 81.4 127 83c-7.8 1.7-13.2 8.5-13.2 16.5v5.3c0 5.5 4.5 10 10 10s10-4.5 10-10v-2.9c15.4-4.6 25.6-19.2 24.5-35.6zM130.7 136c-1.9-1.9-4.4-2.9-7.1-2.9-2.6 0-5.2 1.1-7.1 2.9-1.9 1.9-2.9 4.4-2.9 7.1s1.1 5.2 2.9 7.1c1.9 1.9 4.4 2.9 7.1 2.9 2.6 0 5.2-1.1 7.1-2.9 1.9-1.9 2.9-4.4 2.9-7.1s-1-5.2-2.9-7.1zm-22.1 318.9c-1.9-1.9-4.4-2.9-7.1-2.9s-5.2 1.1-7.1 2.9-2.9 4.4-2.9 7.1 1.1 5.2 2.9 7.1c1.9 1.9 4.4 2.9 7.1 2.9s5.2-1.1 7.1-2.9 2.9-4.4 2.9-7.1-1.1-5.2-2.9-7.1z"/></symbol><symbol viewBox="0 0 512 349.6" id="icon-steps-3" xmlns="http://www.w3.org/2000/svg"><path d="M502 83.9c5.5 0 10-4.5 10-10V10c0-5.5-4.5-10-10-10H335.9c-20.2 0-39.8 8.2-54 22.6l-15.6 15.8-24-24C233 5.1 220.6 0 207.5 0H10C7.3 0 4.8 1.1 2.9 2.9 1.1 4.8 0 7.3 0 10v198.2c0 5.5 4.5 10 10 10h89.2c1.6 5.6 4.5 10.9 8.9 15.3 6.8 6.8 15.8 10.2 24.7 10.2h.3v.4c0 9.3 3.6 18.1 10.2 24.7S158.7 279 168 279h.3v.3c0 9.3 3.6 18.1 10.2 24.7s15.4 10.2 24.7 10.2h.3v.3c0 9.3 3.6 18.1 10.2 24.7s15.4 10.2 24.7 10.2c7.8 0 15.2-2.6 21.3-7.3 6.2 4.8 13.7 7.2 21.2 7.2 8.9 0 17.9-3.4 24.7-10.2 6.9-6.9 10.3-16 10.2-25.1h.4c9.3 0 18.1-3.6 24.7-10.2 6.9-6.9 10.3-16 10.2-25.1h.4c9.3 0 18.1-3.6 24.7-10.2 6.9-6.9 10.3-16 10.2-25.1h.4c9.3 0 18.1-3.6 24.7-10.2 4.3-4.3 7.4-9.6 8.9-15.3H502c5.5 0 10-4.5 10-10v-57.6c0-5.5-4.5-10-10-10s-10 4.5-10 10v47.6h-34V22.6c0-.9-.1-1.7-.3-2.6H492v53.9c0 5.5 4.4 10 10 10zM132.8 223.7c-4 0-7.8-1.6-10.6-4.4-2.8-2.8-4.4-6.6-4.4-10.6s1.6-7.8 4.4-10.6l21.2-21.2c2.9-2.9 6.7-4.4 10.6-4.4 3.8 0 7.7 1.5 10.6 4.4 5.8 5.8 5.8 15.3 0 21.2l-21.2 21.2c-2.8 2.9-6.6 4.4-10.6 4.4zm35.3 35.3c-4 0-7.8-1.6-10.6-4.4-2.8-2.8-4.4-6.6-4.4-10.6s1.6-7.8 4.4-10.6l21.2-21.2c2.8-2.8 6.6-4.4 10.6-4.4s7.8 1.6 10.6 4.4c5.8 5.8 5.8 15.3 0 21.2l-21.2 21.2c-2.8 2.9-6.6 4.4-10.6 4.4zm24.7 30.9c-5.8-5.8-5.8-15.3 0-21.2l21.2-21.2c2.8-2.8 6.6-4.4 10.6-4.4s7.8 1.6 10.6 4.4c5.8 5.8 5.8 15.3 0 21.2L214 289.9c-5.9 5.9-15.3 5.9-21.2 0zm60.1 31.7l-3.7 3.7c-2.8 2.8-6.6 4.4-10.6 4.4s-7.8-1.6-10.6-4.4c-2.8-2.8-4.4-6.6-4.4-10.6s1.6-7.8 4.4-10.6l21.2-21.2c2.8-2.8 6.6-4.4 10.6-4.4s7.8 1.6 10.6 4.4c2.8 2.8 4.4 6.6 4.4 10.6s-1.6 7.8-4.4 10.6l-17.5 17.5zm38.9 3.6c-4.6 4.6-11.5 5.6-17.1 2.9l9.9-9.8c3.8-3.7 6.5-8.2 8.3-13.1 4.7 5.8 4.4 14.5-1.1 20zm105.9-105.9c-2.8 2.8-6.6 4.4-10.6 4.4s-7.8-1.6-10.6-4.4l-63.2-63.2c-3.9-3.9-10.2-3.9-14.1 0-2 2-2.9 4.5-2.9 7.1 0 2.6 1 5.1 2.9 7.1l63.2 63.2c5.8 5.8 5.8 15.3 0 21.2-2.8 2.8-6.6 4.4-10.6 4.4s-7.8-1.6-10.6-4.4L278 191.4c-3.9-3.9-10.2-3.9-14.1 0-3.9 3.9-3.9 10.2 0 14.1l63.2 63.2c5.8 5.8 5.8 15.3 0 21.2-2.8 2.8-6.6 4.4-10.6 4.4s-7.8-1.6-10.6-4.4l-20.1-20.1c-.5-.5-1-.9-1.5-1.3-6.6-6.4-15.2-10-24.5-10h-.4c.1-9.1-3.3-18.2-10.2-25.1-6.6-6.6-15.4-10.2-24.7-10.2h-.4c.1-9.1-3.3-18.2-10.2-25.1-6.6-6.6-15.4-10.2-24.7-10.2h-.4c.1-9.1-3.3-18.2-10.2-25.1-13.6-13.6-35.8-13.6-49.4 0L108.1 184c-4.1 4.1-7 9-8.6 14.1H74v-112c0-5.5-4.5-10-10-10s-10 4.5-10 10v112.1H20V20h187.5c7.8 0 15.1 3 20.6 8.5l24 24L232 73c-14 14.2-13.9 37.2.3 51.2 7 6.9 16.2 10.5 25.5 10.5 6.4 0 12.8-1.7 18.6-5.1l32.9-19.7 88.4 88.4c2.4 2.4 3.9 5.5 4.3 8.9 0 .4-.1.7-.1 1.1 0 .5 0 1 .1 1.5-.2 3.5-1.7 6.9-4.3 9.5zM438 22.6v175.6h-17.5c-1.7-5.3-4.6-10.1-8.6-14.2L327 99.2l12.9-7.7h64.5c5.5 0 10-4.5 10-10s-4.5-10-10-10h-67.3c-1.8 0-3.6.5-5.1 1.4l-65.9 39.5c-6.3 3.8-14.5 2.8-19.7-2.4-6.3-6.3-6.4-16.6-.1-22.9l49.8-50.4C306.5 26.1 321 20 335.8 20h102.5c-.2.8-.3 1.7-.3 2.6z"/><path d="M509 102c-1.9-1.9-4.4-2.9-7.1-2.9-2.6 0-5.2 1.1-7.1 2.9-1.9 1.9-2.9 4.4-2.9 7.1 0 2.6 1.1 5.2 2.9 7.1 1.9 1.9 4.4 2.9 7.1 2.9 2.6 0 5.2-1.1 7.1-2.9 1.9-1.9 2.9-4.4 2.9-7.1.1-2.6-1-5.2-2.9-7.1zM71.1 41.5c-1.9-1.9-4.4-2.9-7.1-2.9-2.6 0-5.2 1.1-7.1 2.9-1.8 1.9-2.9 4.5-2.9 7.1s1.1 5.2 2.9 7.1c1.9 1.9 4.4 2.9 7.1 2.9 2.6 0 5.2-1.1 7.1-2.9 1.9-1.9 2.9-4.4 2.9-7.1s-1.1-5.2-2.9-7.1z"/></symbol><symbol viewBox="0 0 404 512" id="icon-steps-4" xmlns="http://www.w3.org/2000/svg"><path d="M394 258.1c5.5 0 10-4.5 10-10V90c0-27.6-22.4-50-50-50h-67.8c-5-6.4-12.8-10.5-21.5-10.5h-16.3C240.5 11.8 222.7 0 202.9 0h-1.8c-19.9 0-37.6 11.8-45.6 29.5h-16.3c-8.7 0-16.5 4.1-21.5 10.5H50C22.4 40 0 62.4 0 90v372c0 27.6 22.4 50 50 50h304c27.6 0 50-22.4 50-50V331.9c0-5.5-4.5-10-10-10s-10 4.5-10 10V462c0 16.5-13.5 30-30 30H50c-16.5 0-30-13.5-30-30V90c0-16.5 13.5-30 30-30h62v20H60c-11 0-20 9-20 20v352c0 11 9 20 20 20h284c11 0 20-9 20-20V100c0-11-9-20-20-20h-52V60h62c16.5 0 30 13.5 30 30v158.1c0 5.5 4.5 10 10 10zM132 56.8c0-4 3.3-7.3 7.3-7.3h23.3c4.5 0 8.5-3 9.7-7.4 3.5-13 15.4-22.1 28.9-22.1h1.8c13.5 0 25.4 9.1 28.9 22.1 1.2 4.4 5.1 7.4 9.7 7.4h23.3c4 0 7.3 3.3 7.3 7.3V80H132V56.8zM344 100v352H60V100h284z"/><path d="M401.1 283.8c-1.9-1.9-4.4-2.9-7.1-2.9s-5.2 1.1-7.1 2.9c-1.9 1.9-2.9 4.4-2.9 7.1 0 2.6 1.1 5.2 2.9 7.1 1.9 1.9 4.4 2.9 7.1 2.9s5.2-1.1 7.1-2.9c1.9-1.9 2.9-4.4 2.9-7.1 0-2.6-1.1-5.2-2.9-7.1zm-185-104.9c-1.9-1.9-4.4-2.9-7.1-2.9s-5.2 1.1-7.1 2.9c-1.9 1.9-2.9 4.4-2.9 7.1s1.1 5.2 2.9 7.1 4.4 2.9 7.1 2.9 5.2-1.1 7.1-2.9c1.9-1.9 2.9-4.4 2.9-7.1s-1.1-5.2-2.9-7.1zm96.4-2.9H253c-5.5 0-10 4.5-10 10s4.5 10 10 10h59.5c5.5 0 10-4.5 10-10s-4.5-10-10-10zm0 108H209c-5.5 0-10 4.5-10 10s4.5 10 10 10h103.5c5.5 0 10-4.5 10-10s-4.5-10-10-10zm0 108H209c-5.5 0-10 4.5-10 10s4.5 10 10 10h103.5c5.5 0 10-4.5 10-10s-4.5-10-10-10zM146 176h-38v-38c0-5.5-4.5-10-10-10s-10 4.5-10 10v48c0 5.5 4.5 10 10 10h48c5.5 0 10-4.5 10-10s-4.5-10-10-10z"/><path d="M167 127.7c-3.9-3.9-10.2-3.9-14.1 0l-13.8 13.8-1.2-1.2c-3.9-3.9-10.2-3.9-14.1 0s-3.9 10.2 0 14.1l8.2 8.2c2 2 4.5 2.9 7.1 2.9s5.1-1 7.1-2.9l20.9-20.9c3.8-3.7 3.8-10.1-.1-14zm-21 156h-38v-38c0-5.5-4.5-10-10-10s-10 4.5-10 10v48c0 5.5 4.5 10 10 10h48c5.5 0 10-4.5 10-10s-4.5-10-10-10z"/><path d="M167 235.4c-3.9-3.9-10.2-3.9-14.1 0l-13.8 13.8-1.2-1.2c-3.9-3.9-10.2-3.9-14.1 0s-3.9 10.2 0 14.1l8.2 8.2c2 2 4.5 2.9 7.1 2.9s5.1-1 7.1-2.9l20.9-20.9c3.8-3.7 3.8-10.1-.1-14zM146 392h-38v-38c0-5.5-4.5-10-10-10s-10 4.5-10 10v48c0 5.5 4.5 10 10 10h48c5.5 0 10-4.5 10-10s-4.5-10-10-10z"/><path d="M167 343.7c-3.9-3.9-10.2-3.9-14.1 0l-13.8 13.8-1.2-1.2c-3.9-3.9-10.2-3.9-14.1 0s-3.9 10.2 0 14.1l8.2 8.2c2 2 4.5 2.9 7.1 2.9s5.1-1 7.1-2.9l20.9-20.9c3.8-3.7 3.8-10.1-.1-14z"/></symbol><symbol viewBox="0 0 512 512" id="icon-steps-5" xmlns="http://www.w3.org/2000/svg"><path d="M458.1 409.1c5.2-7.5 8.3-16.6 8.3-26.5v-9.1c0-25.6-20.8-46.4-46.4-46.4s-46.4 20.8-46.4 46.4v9.1c0 9.8 3.1 19 8.3 26.5-18.1.5-34.1 9.8-43.9 23.8-9.7-13.9-25.7-23.2-43.9-23.8 5.2-7.5 8.3-16.6 8.3-26.5v-9.1c0-25.6-20.8-46.4-46.4-46.4s-46.4 20.8-46.4 46.4v9.1c0 9.8 3.1 19 8.3 26.5-18.2.5-34.2 9.9-43.9 23.9-9.7-14-25.8-23.3-43.9-23.9 5.2-7.5 8.3-16.6 8.3-26.5v-9.1c0-25.6-20.8-46.4-46.4-46.4s-46.4 20.8-46.4 46.4v9.1c0 9.8 3.1 19 8.3 26.5C24 410 0 434.6 0 464.6v37.3c0 5.5 4.5 10 10 10h492c5.5 0 10-4.5 10-10v-37.3c0-30-24-54.6-53.9-55.5zm-64.5-35.6c0-14.6 11.9-26.4 26.4-26.4 14.6 0 26.4 11.9 26.4 26.4v9.1c0 14.6-11.9 26.4-26.4 26.4-14.6 0-26.4-11.9-26.4-26.4v-9.1zm-164 0c0-14.6 11.9-26.4 26.4-26.4 14.6 0 26.4 11.9 26.4 26.4v9.1c0 14.6-11.9 26.4-26.4 26.4-14.6 0-26.4-11.9-26.4-26.4v-9.1zm-164.1 0c0-14.6 11.9-26.4 26.4-26.4s26.4 11.9 26.4 26.4v9.1c0 14.6-11.9 26.4-26.4 26.4s-26.4-11.9-26.4-26.4v-9.1zM164 491.9H20v-27.3c0-19.6 15.9-35.5 35.5-35.5h72.9c19.6 0 35.5 15.9 35.5 35.5l.1 27.3zm20.1-27.3c0-19.6 15.9-35.5 35.5-35.5h72.9c19.6 0 35.5 15.9 35.5 35.5v27.3H184l.1-27.3zM492 491.9H348v-27.3c0-19.6 15.9-35.5 35.5-35.5h72.9c19.6 0 35.5 15.9 35.5 35.5l.1 27.3zM187 268.8c-2.6 0-5.2 1.1-7.1 2.9-1.9 1.9-2.9 4.4-2.9 7.1 0 2.6 1.1 5.2 2.9 7.1 1.9 1.9 4.4 2.9 7.1 2.9 2.6 0 5.2-1.1 7.1-2.9 1.9-1.9 2.9-4.4 2.9-7.1 0-2.6-1.1-5.2-2.9-7.1-1.9-1.9-4.5-2.9-7.1-2.9z"/><path d="M64 288.8h83c5.5 0 10-4.5 10-10s-4.5-10-10-10H74V198c0-18.6 15.1-33.7 33.7-33.7h16.5V211c0 4 2.4 7.6 6.1 9.2 3.7 1.6 8 .8 10.8-2l35.8-34.4v30.1c0 5.5 4.5 10 10 10s10-4.5 10-10v-30.1l35.8 34.4c1.9 1.8 4.4 2.8 6.9 2.8 1.3 0 2.7-.3 3.9-.8 3.7-1.6 6.1-5.2 6.1-9.2v-46.7h16.5c18.6 0 33.7 15.1 33.7 33.7v70.8h-73c-5.5 0-10 4.5-10 10s4.5 10 10 10h83c5.5 0 10-4.5 10-10V198c0-29.6-24.1-53.7-53.7-53.7h-32.8c10.9-11.5 17.7-27 17.7-44.1v-36C251 28.9 222.2.1 186.9.1s-64.1 28.8-64.1 64.1v36c0 17.1 6.7 32.6 17.7 44.1h-32.8C78.1 144.3 54 168.4 54 198v80.8c0 5.5 4.5 10 10 10zm80.2-124.5h24.2l-24.2 23.3v-23.3zm85.5 23.2l-24.2-23.3h24.2v23.3zM142.8 64.2c0-24.3 19.8-44.1 44.1-44.1 22.8 0 41.6 17.3 43.9 39.5l-20.9-12.3c-4.2-2.5-9.6-1.5-12.7 2.2-9.4 11.2-23.2 17.7-37.9 17.7h-16.5v-3zm0 36v-13h16.5c17.7 0 34.6-6.7 47.3-18.6L231 83v17.3c0 24.3-19.8 44.1-44.1 44.1s-44.1-19.9-44.1-44.2zm179.9 62.5c1.6 1 3.5 1.6 5.4 1.6 1.4 0 2.9-.3 4.2-.9l33.9-15.9h124.2c11.8 0 21.5-9.6 21.5-21.5V21.5c0-11.8-9.6-21.5-21.5-21.5H339.6c-11.8 0-21.5 9.6-21.5 21.5v132.8c0 3.4 1.8 6.6 4.6 8.4zm15.4-141.2c0-.8.7-1.5 1.5-1.5h150.9c.8 0 1.5.7 1.5 1.5V126c0 .8-.7 1.5-1.5 1.5H364c-1.5 0-2.9.3-4.2.9l-21.7 10.2V21.5z"/><path d="M367.3 62.6h95.3c5.5 0 10-4.5 10-10s-4.5-10-10-10h-95.3c-5.5 0-10 4.5-10 10s4.5 10 10 10zm0 40H433c5.5 0 10-4.5 10-10s-4.5-10-10-10h-65.7c-5.5 0-10 4.5-10 10s4.5 10 10 10z"/></symbol><symbol id="icon-viber" viewBox="0 0 100 108" xml:space="preserve" xmlns="http://www.w3.org/2000/svg"><style>.kst0{fill:#834995}</style><path class="kst0" d="M91.6 60.5C89 82.4 73.3 83.8 70.4 84.8c-1.2.4-12.7 3.3-27 2.4l-15.6 17.3V84.6h-.1c-20.9-6-20.2-28.3-20-40 .2-11.7 2.4-21.3 8.8-27.8 11.5-10.6 35.1-9 35.1-9 20 .1 29.5 6.2 31.7 8.3 7.3 6.4 11.1 21.8 8.3 44.4m-2.9-50C86.1 8.1 75.5.2 51.9.1c0 0-27.8-1.7-41.4 11C3 18.8.3 30.1.1 44.1c-.3 14-.6 40.3 24.1 47.4v10.9s-.2 4.4 2.7 5.3c3.4 1.1 5.4-2.3 8.7-5.9 1.8-2 4.3-4.9 6.1-7.1 16.9 1.5 29.9-1.9 31.4-2.4 3.4-1.1 22.7-3.7 25.9-29.9 3.2-27-1.6-44.2-10.3-51.9"/><path class="kst0" d="M73.6 63.8s-3.2-2.7-4.7-3.9c-1.5-1.1-3.8-2.6-5.1-3.3-2.3-1.3-4.7-.5-5.7.8l-2 2.6c-1 1.3-2.7 1.1-3.1 1-3-.8-6.2-2.6-9.5-5.8s-5.3-6.6-6-10l-.1-.2c-.2-1.4 0-2.1.6-3.1l.1-.1c1.4-1.3 3.9-2.8 4.3-4.3 1-2.6-3.4-8-4-8.9 0 0-3.2-4.2-4.3-5-1.2-1-3.1-1.6-5-.4H29c-5.5 3.7-7.4 5.8-6.9 9l.3 1.3c2.8 8.7 8.1 18.1 16.1 26.4 7.9 8.1 16.5 13 24.9 16.4 2.2.7 4.5.1 6.8-1.9 1.8-1.7 3.2-3.5 4.2-5.4 1.1-2 .7-3.9-.8-5.2M60.5 44.6c-.3 0-.6-.3-.6-.6-.1-2.3-.7-4-1.8-5.2s-2.7-1.8-4.8-1.9c-.3 0-.6-.3-.6-.7s.3-.6.7-.6c2.5.1 4.4.9 5.7 2.3 1.3 1.4 2 3.4 2.2 6-.1.4-.4.7-.8.7"/><path class="kst0" d="M66.7 46.8c-.4 0-.6-.3-.6-.7.1-4.3-1.2-8-3.8-10.9-1.3-1.5-2.9-2.6-4.7-3.4-1.8-.8-3.9-1.3-6.3-1.5-.3 0-.6-.3-.6-.7 0-.4.3-.6.7-.6 5 .4 9 2.2 11.8 5.3 2.8 3.2 4.2 7.1 4.1 11.8.1.4-.2.7-.6.7"/><path class="kst0" d="M73.1 49.3c-.3 0-.6-.3-.6-.6 0-3.8-.6-7.3-1.7-10.3s-2.8-5.6-5-7.8-4.7-3.9-7.4-5-5.8-1.7-9.1-1.7c-.3 0-.6-.3-.6-.6 0-.4.3-.6.6-.6 6.9.1 12.7 2.4 17.4 7.1 2.3 2.3 4.1 5.1 5.3 8.3 1.2 3.2 1.8 6.8 1.8 10.8 0 .1-.3.4-.7.4z"/></symbol><symbol viewBox="0 0 100 100.5" id="icon-wa" xmlns="http://www.w3.org/2000/svg"><path d="M85.4 14.6C76 5.2 63.5 0 50.2 0 22.8 0 .4 22.3.4 49.8c0 8.8 2.3 17.3 6.6 24.9l-7 25.8 26.4-6.9c7.3 4 15.5 6.1 23.8 6.1 27.4 0 49.8-22.3 49.8-49.8 0-13.4-5.2-25.9-14.6-35.3zM50.2 91.2c-7.4 0-14.7-2-21.1-5.8l-1.5-.9L12 88.7l4.2-15.3-1-1.6c-4.1-6.6-6.3-14.2-6.3-22C8.8 27 27.4 8.4 50.2 8.4c11.1 0 21.4 4.3 29.3 12.1 7.8 7.8 12.1 18.2 12.1 29.3 0 22.8-18.6 41.4-41.4 41.4zm22.7-31c-1.2-.6-7.4-3.6-8.5-4s-2-.6-2.8.6c-.8 1.2-3.2 4-3.9 4.9-.7.8-1.5.9-2.7.3s-5.3-1.9-10-6.2c-3.7-3.3-6.2-7.4-6.9-8.6s-.1-1.9.5-2.5 1.2-1.5 1.9-2.2c.6-.7.8-1.2 1.2-2.1.4-.8.2-1.6-.1-2.2-.3-.6-2.8-6.7-3.8-9.2-1-2.4-2-2.1-2.8-2.1h-2.4c-.8 0-2.2.3-3.3 1.6-1.1 1.2-4.4 4.3-4.4 10.4s4.5 12 5.1 12.9c.6.8 8.8 13.4 21.3 18.8 3 1.3 5.3 2 7.1 2.6 3 .9 5.7.8 7.8.5 2.4-.4 7.4-3 8.4-5.9s1-5.4.7-5.9c-.3-.8-1.1-1.1-2.4-1.7z" fill="#25d366"/></symbol><symbol viewBox="0 0 270.4 98.1" id="iconSheer"><path d="M175.1 51.8c.2 1.2.3 2.1.5 3 2 8.4 8.6 14 17.2 14.7 7.6.6 13.6-2.3 18-8.5 2.2-3 5.7-3.5 8.5-1.1 1.6 1.4 1.8 3.2.5 4.9-.7.9-1.4 1.8-2.1 2.8-2.9 4-6.7 6.7-11.4 8.3-7.6 2.6-15.2 3-22.7.2-10.1-3.7-16.1-11.1-17.8-21.7-1-6.5-.4-13 2.6-18.9 4.3-8.4 11.1-13.6 20.5-15.1 6.2-1 12.4-.4 18.2 2.4 8.2 3.9 13.2 10.5 15.1 19.3.5 2.4.7 4.9.9 7.3.2 1.5-.5 2.2-2.1 2.3h-44.1c-.4.1-.9.1-1.8.1zm38.3-9.2c-1.2-7.9-10.7-14.7-19.4-14.2-9.1.5-18.2 7.5-18.5 14.2h37.9zm-101 9c.1.8.2 1.4.3 2 1.7 9.3 9.3 15.7 18.7 15.9 7.1.1 12.7-2.8 16.8-8.6 2.2-3.1 6.1-3.4 8.8-.7 1.3 1.4 1.5 3 .3 4.6-.5.8-1.1 1.5-1.7 2.2-3.1 4.5-7.3 7.4-12.5 9.1-7.6 2.5-15.2 2.7-22.5-.2-10.6-4.1-16.4-12.1-17.6-23.3-.6-5.4-.1-10.7 2.2-15.6 4.3-9.4 11.4-15.2 21.8-16.6 5.5-.7 11-.3 16.1 1.8 9.2 3.8 14.6 10.9 16.6 20.6.4 2.2.6 4.5.7 6.7.1 1.8-.3 2.2-2.2 2.2h-43.5c-.7-.1-1.4-.1-2.3-.1zm38.4-9.1c-1.2-7.8-10.4-14.4-19.4-14.2-8.8.2-17.9 7.2-18.6 14.2h38zm101 13.5c.7.6 1.1 1 1.5 1.4 4.9 4.2 9.8 8.3 14.6 12.5.3.3.7.6 1 .9 1.8 1.8 2 4.4.3 6.2-1.6 1.8-4.2 2.1-6.1.5-3.4-2.8-6.7-5.7-10-8.5-4.8-4.1-9.5-8.1-14.3-12.2-.4-.4-.9-.7-1.6-1.3 0 1-.1 1.6-.1 2.3v36.1c-.2 2.5-2.1 4.3-4.6 4.2-2.4-.1-4.1-1.9-4.2-4.4V21.9c0-1.6.2-1.9 1.7-1.9 2.1-.1 4.2-.1 6.2-.1 5 0 10.1.2 15.1-.1 8.4-.4 17.8 6.4 18.7 16.3.8 8.9-5.2 17.3-14.3 19.1-1.1.2-2.3.5-3.9.8zm-15.3-6.9c.5.1.9.1 1.2.1h12.6c1.2 0 2.4-.1 3.6-.5 3.9-1.2 7-3.5 8-7.7 1.7-7.1-3.6-13.7-10.9-13.7h-13c-.5 0-1 .1-1.5.1v21.7zM88.5 52H63.9c0 .7-.1 1.4-.1 2v18.9c0 .8 0 1.6-.2 2.3-.6 1.9-2.6 3.1-4.5 3-2.1-.2-3.8-1.8-4.1-3.9-.1-.5 0-1 0-1.5V5.4c0-.9.1-1.8.4-2.6.6-2 2.6-3 4.7-2.8 1.9.3 3.5 2 3.7 3.9.1.6 0 1.2 0 1.8v34.7c0 .7.1 1.4.1 2 1.5.4 22.9.4 24.5 0 0-.5.1-1.1.1-1.7V23.9c.2-2.3 1.9-4 4.2-4.1 2.3-.1 4.3 1.6 4.6 3.9.1.5 0 1 0 1.5v48.9c-.3 2.3-2.3 4.1-4.5 4-2.3-.1-4.1-1.9-4.3-4.2V52zM25 78.3c-5.9-.1-11.4-1.4-16.5-4.4-2.2-1.3-4.2-2.9-5.8-4.8-.8-1-1.6-2.1-2.2-3.3-1-1.9-.6-3.4.9-4.9 1.7-1.6 4.1-2.3 6.4-.7C9 61 10 62 10.9 63c.9.9 1.6 1.9 2.5 2.8 2.7 2.7 6 4.2 9.8 4.6 3.5.4 7 .3 10.4-.9 1.4-.5 2.8-1.2 4-2.1 2.9-2.2 3-5.9.2-8.2-1.3-1.1-2.9-1.9-4.5-2.6-4-1.7-8.1-2.9-12.3-4-3.4-.8-6.7-1.9-10.1-2.9-1.3-.4-2.5-1.1-3.7-1.7-3.2-1.7-5-4.4-5.5-7.9-1-7.1 1.7-12.8 8.1-15.9 9.8-4.8 19.7-5.2 29.4.4 1.8 1 3.5 2.5 5.1 3.9 1.2 1 2 2.5 2.5 4 .8 2.6-.5 3.9-2.8 4.4-2 .4-3.8-.2-5.2-1.7-.3-.3-.5-.6-.7-.9-2.3-3.4-5.6-5.3-9.6-6.1-4-.7-8-.6-11.8.9-1.4.5-2.8 1.3-3.9 2.3-2.7 2.3-2.7 5.4-.1 7.8 1.7 1.6 3.7 2.5 5.9 3 4.8 1.2 9.7 2.4 14.5 3.6 3.1.8 6.1 1.8 8.9 3.4 3.6 1.9 6.2 4.7 7.1 8.8 1.1 5 0 9.4-3.9 13-4.4 4-9.5 6.3-15.4 7-1.7.1-3.3.2-4.8.3z"/></symbol></svg>