<svg xmlns="http://www.w3.org/2000/svg" viewBox="0 0 176.5 171"><path class="st0" d="M152.9 83.1L93 33.7c-2.8-2.3-6.8-2.3-9.5 0L23.6 83.1c-1.7 1.4-2.7 3.5-2.7 5.8v74.5c0 4.1 3.4 7.5 7.5 7.5h119.8c4.1 0 7.5-3.4 7.5-7.5V88.9c0-2.2-1-4.4-2.8-5.8zM96.2 156H80.3v-41.5h15.9V156zm44.5 0h-29.5v-49c0-4.1-3.4-7.5-7.5-7.5H72.8c-4.1 0-7.5 3.4-7.5 7.5v49H35.9V92.4l52.4-43.2 52.4 43.2V156z"/><path class="st0" d="M173.7 68.1c-16.7-13.4-32.5-26.2-49.6-40.3-5.1-4.6-10.5-8.9-15.7-13.1-5.1-4.1-10.3-8.4-15.2-12.7-2.9-2.6-7.2-2.6-10 0-4.8 4.3-10.1 8.6-15.2 12.7-5.2 4.2-10.6 8.6-15.7 13.1-17 14.1-32.8 26.9-49.5 40.3-3.2 2.6-3.8 7.3-1.2 10.5 2.6 3.2 7.3 3.8 10.5 1.2C29 66.3 44.8 53.5 62 39.3c.1-.1.2-.1.3-.2 4.9-4.4 10.1-8.6 15.2-12.7 3.6-2.9 7.2-5.8 10.8-8.9 3.6 3 7.2 6 10.8 8.9 5.1 4.1 10.3 8.4 15.2 12.7.1.1.2.1.3.2 17.2 14.2 33 27 49.8 40.5 1.4 1.1 3 1.6 4.7 1.6 2.2 0 4.4-1 5.9-2.8 2.5-3.2 2-7.9-1.3-10.5z"/></svg>