<svg xmlns="http://www.w3.org/2000/svg" viewBox="0 0 512 512"><path d="M256 0C114.842 0 0 114.842 0 256c0 141.147 114.882 256 256 256 141.397 0 256-115.142 256-256C512 114.842 397.158 0 256 0zm0 478.609c-52.132 0-100.129-18.02-138.109-48.149 23.515-54.854 77.66-90.981 138.109-90.981 60.458 0 114.613 36.119 138.132 90.962-37.983 30.14-85.989 48.168-138.132 48.168zm-83.478-256c0-46.03 37.448-83.478 83.478-83.478s83.478 37.448 83.478 83.478S302.03 306.087 256 306.087s-83.478-37.448-83.478-83.478zm247.297 183.947c-20.636-40.667-55.522-71.771-97.195-87.984 30.345-21.132 50.246-56.264 50.246-95.963 0-64.442-52.428-116.87-116.87-116.87s-116.87 52.428-116.87 116.87c0 39.701 19.903 74.835 50.252 95.967-41.668 16.217-76.547 47.328-97.18 88.003C55.71 366.915 33.391 314.017 33.391 256c0-122.746 99.862-222.609 222.609-222.609S478.609 133.254 478.609 256c0 58.007-22.31 110.895-58.79 150.556z"/></svg>