<?xml version="1.0" encoding="utf-8"?>
<!-- Generator: Adobe Illustrator 22.1.0, SVG Export Plug-In . SVG Version: 6.00 Build 0)  -->
<svg version="1.1" id="Layer_1" xmlns="http://www.w3.org/2000/svg" xmlns:xlink="http://www.w3.org/1999/xlink" x="0px" y="0px"
	 viewBox="0 0 330.0004883 179.9997406" style="enable-background:new 0 0 330.0004883 179.9997406;" xml:space="preserve">
<path id="XMLID_28_" d="M15,105h263.7869873l-49.3929901,49.3939972c-5.8580017,5.8570099-5.8580017,15.3549957,0,21.2129974
	c5.8569946,5.8570099,15.3549957,5.8570099,21.2129974,0l75-75c5.8580017-5.8569946,5.8580017-15.3549957,0-21.2129974l-75-75
	C247.677002,1.4649963,243.8390045,0,240,0c-3.8389893,0-7.6779938,1.4649963-10.6060028,4.3939972
	c-5.8580017,5.8569946-5.8580017,15.3549957,0,21.2129974L278.7869873,75H15C6.7160034,75,0,81.7160034,0,90S6.7160034,105,15,105z"
	/>
</svg>
