<?xml version="1.0" encoding="utf-8"?>
<!-- Generator: Adobe Illustrator 22.0.1, SVG Export Plug-In . SVG Version: 6.00 Build 0)  -->
<svg version="1.1" id="Layer_1" xmlns="http://www.w3.org/2000/svg" xmlns:xlink="http://www.w3.org/1999/xlink" x="0px" y="0px"
	 viewBox="0 0 512 512" style="enable-background:new 0 0 512 512;" xml:space="preserve">
<style type="text/css">
	.st0{fill:#00487C;}
</style>
<g>
	<g>
		<path class="st0" d="M222.6,272.7c9.2,0,16.7-7.5,16.7-16.7v-66.8c0-9.2-7.5-16.7-16.7-16.7h-66.8c-9.2,0-16.7,7.5-16.7,16.7
			s7.5,16.7,16.7,16.7h50.1v33.4h-50.1c-9.2,0-16.7,7.5-16.7,16.7v66.8c0,9.2,7.5,16.7,16.7,16.7h66.8c9.2,0,16.7-7.5,16.7-16.7
			s-7.5-16.7-16.7-16.7h-50.1v-33.4L222.6,272.7L222.6,272.7z"/>
	</g>
</g>
<g>
	<g>
		<circle class="st0" cx="89" cy="256" r="16.7"/>
	</g>
</g>
<g>
	<g>
		<circle class="st0" cx="423" cy="256" r="16.7"/>
	</g>
</g>
<g>
	<g>
		
			<ellipse transform="matrix(7.088907e-02 -0.9975 0.9975 7.088907e-02 -184.0405 648.3299)" class="st0" cx="256" cy="423" rx="16.7" ry="16.7"/>
	</g>
</g>
<g>
	<g>
		<ellipse transform="matrix(0.1602 -0.9871 0.9871 0.1602 127.0991 327.4751)" class="st0" cx="256" cy="89" rx="16.7" ry="16.7"/>
	</g>
</g>
<g>
	<g>
		<path class="st0" d="M356.2,172.5c-9.2,0-16.7,7.5-16.7,16.7v50.1h-33.4v-50.1c0-9.2-7.5-16.7-16.7-16.7s-16.7,7.5-16.7,16.7V256
			c0,9.2,7.5,16.7,16.7,16.7h50.1v50.1c0,9.2,7.5,16.7,16.7,16.7c9.2,0,16.7-7.5,16.7-16.7V189.2C372.9,180,365.4,172.5,356.2,172.5
			z"/>
	</g>
</g>
<g>
	<g>
		<path class="st0" d="M495.3,239.3c-9.2,0-16.7,7.5-16.7,16.7c0,122.7-99.9,222.6-222.6,222.6S33.4,378.7,33.4,256
			S133.3,33.4,256,33.4c34.3,0,67.8,7.8,98.3,22.8l-15.5,15.5c-8.8,8.8-5.2,23.7,6.5,27.6l100.2,33.4c13.1,4.4,25.4-8.1,21.1-21.1
			L433.2,11.4c-3.9-11.7-18.9-15.3-27.6-6.5L379,31.4C341.5,10.8,299.2,0,256,0C114.5,0,0,114.5,0,256c0,141.5,114.5,256,256,256
			c141.5,0,256-114.5,256-256C512,246.8,504.5,239.3,495.3,239.3z M410.1,47.6l14.3,42.9l-42.9-14.3L410.1,47.6z"/>
	</g>
</g>
</svg>
