<?xml version="1.0" encoding="utf-8"?>
<!-- Generator: Adobe Illustrator 22.0.1, SVG Export Plug-In . SVG Version: 6.00 Build 0)  -->
<svg version="1.1" id="Layer_1" xmlns="http://www.w3.org/2000/svg" xmlns:xlink="http://www.w3.org/1999/xlink" x="0px" y="0px"
	 viewBox="0 0 480 480" style="enable-background:new 0 0 480 480;" xml:space="preserve">
<style type="text/css">
	.st0{fill:#0496FF;}
	.st1{fill:#00487C;}
</style>
<path class="st0" d="M8,88h464V8H8V88z M432,40c4.4,0,8,3.6,8,8s-3.6,8-8,8s-8-3.6-8-8S427.6,40,432,40z M384,40c4.4,0,8,3.6,8,8
	s-3.6,8-8,8s-8-3.6-8-8S379.6,40,384,40z M336,40c4.4,0,8,3.6,8,8s-3.6,8-8,8s-8-3.6-8-8S331.6,40,336,40z"/>
<path class="st1" d="M392,48c0,4.4-3.6,8-8,8s-8-3.6-8-8s3.6-8,8-8S392,43.6,392,48z"/>
<path class="st1" d="M440,48c0,4.4-3.6,8-8,8s-8-3.6-8-8s3.6-8,8-8S440,43.6,440,48z"/>
<path class="st1" d="M344,48c0,4.4-3.6,8-8,8s-8-3.6-8-8s3.6-8,8-8S344,43.6,344,48z"/>
<path class="st0" d="M440,440v-80h-45c-3.7-14.5-9.5-28.4-17.2-41.2l31.9-31.9l-56.6-56.6l-31.9,31.9c-12.8-7.7-26.7-13.5-41.2-17.2
	v-45h-80v45c-14.5,3.7-28.4,9.5-41.2,17.2l-31.9-31.9l-56.6,56.6l31.9,31.9C94.6,331.6,88.8,345.5,85,360H40v80h45
	c2.8,11.1,6.9,21.8,12.2,32h79.3c-29.9-26.4-40.4-68.6-26.3-105.9c14.1-37.3,49.9-62,89.8-62s75.7,24.7,89.8,62
	c14.1,37.3,3.7,79.5-26.3,105.9h79.3c5.2-10.2,9.3-20.9,12.2-32H440z"/>
<path class="st1" d="M472,0H8C3.6,0,0,3.6,0,8v464c0,4.4,3.6,8,8,8h464c4.4,0,8-3.6,8-8V8C480,3.6,476.4,0,472,0z M16,16h448v64H16
	V16z M179.6,464c-26.2-24.8-34.7-63-21.3-96.5S203.9,312,240,312s68.5,22,81.8,55.5s4.9,71.7-21.3,96.5H179.6z M321.8,464
	c33.5-42.7,28.5-103.8-11.3-140.6c-39.8-36.8-101.2-36.8-141.1,0c-39.8,36.8-44.8,98-11.3,140.6h-56c-3.9-8.3-7.1-17.1-9.4-26
	c-0.9-3.5-4.1-6-7.8-6H48v-64h37c3.7,0,6.8-2.5,7.8-6c3.5-13.7,9-26.9,16.3-39.1c1.9-3.1,1.4-7.2-1.2-9.8l-26.3-26.3l45.3-45.3
	l26.3,26.3c2.6,2.6,6.6,3.1,9.8,1.2c12.2-7.3,25.4-12.7,39.1-16.3c3.5-0.9,6-4.1,6-7.8v-37h64v37c0,3.7,2.5,6.8,6,7.8
	c13.7,3.5,26.9,9,39.1,16.3c3.1,1.9,7.2,1.4,9.8-1.2l26.3-26.3l45.3,45.3l-26.3,26.3c-2.6,2.6-3.1,6.6-1.2,9.8
	c7.3,12.2,12.8,25.3,16.3,39.1c0.9,3.5,4.1,6,7.7,6h37v64h-37c-3.7,0-6.8,2.5-7.8,6c-2.3,8.9-5.4,17.7-9.4,26H321.8z M464,464h-68.8
	c2.2-5.2,4.1-10.6,5.8-16h39c4.4,0,8-3.6,8-8v-80c0-4.4-3.6-8-8-8h-39c-3.3-11.1-7.8-21.7-13.3-31.9l27.6-27.6
	c3.1-3.1,3.1-8.2,0-11.3l-56.6-56.6c-3.2-3-8.1-3-11.3,0l-27.6,27.6c-10.1-5.5-20.8-10-31.9-13.3v-39c0-4.4-3.6-8-8-8h-80
	c-4.4,0-8,3.6-8,8v39c-11.1,3.3-21.7,7.8-31.9,13.3l-27.6-27.6c-3.1-3.1-8.2-3.1-11.3,0l-56.6,56.6c-3.1,3.1-3.1,8.2,0,11.3
	l27.6,27.6c-5.6,10.1-10,20.8-13.3,31.9H40c-4.4,0-8,3.6-8,8v80c0,4.4,3.6,8,8,8h39c1.6,5.4,3.6,10.8,5.8,16H16V96h448V464z"/>
<path class="st1" d="M400,48c0,8.8-7.2,16-16,16s-16-7.2-16-16s7.2-16,16-16S400,39.2,400,48z"/>
<path class="st1" d="M448,48c0,8.8-7.2,16-16,16s-16-7.2-16-16s7.2-16,16-16S448,39.2,448,48z"/>
<path class="st1" d="M352,48c0,8.8-7.2,16-16,16s-16-7.2-16-16s7.2-16,16-16S352,39.2,352,48z"/>
</svg>
