<?xml version="1.0" encoding="utf-8"?>
<!-- Generator: Adobe Illustrator 22.0.1, SVG Export Plug-In . SVG Version: 6.00 Build 0)  -->
<svg version="1.1" id="Layer_1" xmlns="http://www.w3.org/2000/svg" xmlns:xlink="http://www.w3.org/1999/xlink" x="0px" y="0px"
	 viewBox="0 0 480 480" style="enable-background:new 0 0 480 480;" xml:space="preserve">
<style type="text/css">
	.st0{fill:#0496FF;}
	.st1{fill:#00487C;}
</style>
<path class="st0" d="M264,424h-48c-8.8,0-16,7.2-16,16v16c0,8.8,7.2,16,16,16h48c8.8,0,16-7.2,16-16v-16
	C280,431.2,272.8,424,264,424z"/>
<path class="st0" d="M457.8,160C424.3,68.7,337.3,8,240,8S55.7,68.7,22.2,160h34.6C88.6,87.1,160.5,40,240,40s151.4,47.1,183.2,120
	H457.8z"/>
<path class="st0" d="M8,176v112c0,17.7,14.3,32,32,32h48V160H24C15.2,160,8,167.2,8,176z"/>
<path class="st0" d="M456,160h-56v160h40c17.7,0,32-14.3,32-32V176C472,167.2,464.8,160,456,160z"/>
<path class="st1" d="M463.8,153.4C428,61,339.1,0,240,0S52,61,16.2,153.4C6.6,156.7,0.1,165.8,0,176v112c0,22.1,17.9,40,40,40h48
	c4.4,0,8-3.6,8-8V160c0-4.4-3.6-8-8-8H69.5C102.4,88.1,168.2,48,240,48s137.6,40.1,170.5,104H400c-4.4,0-8,3.6-8,8v160
	c0,4.4,3.6,8,8,8h28.4c-27.1,57.4-78.7,99.5-140.4,114.4V440c0-13.3-10.7-24-24-24h-48c-13.3,0-24,10.7-24,24v16
	c0,13.3,10.7,24,24,24h48c12.1,0,22.3-9.1,23.7-21.2c70.9-15.8,129.8-64.7,158.4-131.4c19.4-3,33.8-19.7,33.9-39.4V176
	C480,165.8,473.4,156.7,463.8,153.4z M272,456c0,4.4-3.6,8-8,8h-48c-4.4,0-8-3.6-8-8v-16c0-4.4,3.6-8,8-8h48c4.4,0,8,3.6,8,8V456z
	 M80,312H40c-13.3,0-24-10.7-24-24V176c0-4.4,3.6-8,8-8h56V312z M240,32C159.2,32,85.8,78.8,51.6,152H33.9
	C69.2,69.5,150.3,16,240,16s170.8,53.5,206.1,136h-17.7C394.2,78.8,320.8,32,240,32z M464,288c0,13.3-10.7,24-24,24h-32V168h48
	c4.4,0,8,3.6,8,8V288z"/>
</svg>
