<?xml version="1.0" encoding="utf-8"?>
<!-- Generator: Adobe Illustrator 22.0.1, SVG Export Plug-In . SVG Version: 6.00 Build 0)  -->
<svg version="1.1" id="Layer_1" xmlns="http://www.w3.org/2000/svg" xmlns:xlink="http://www.w3.org/1999/xlink" x="0px" y="0px"
	 viewBox="0 0 512 512" style="enable-background:new 0 0 512 512;" xml:space="preserve">
<style type="text/css">
	.st0{fill:#0496FF;}
	.st1{fill:#9BC9FF;}
	.st2{fill:#00487C;}
</style>
<path class="st0" d="M346.1,398.7l-101-49c-7.3-3.5-16.2-1-20.6,5.8l-23.1,36.7c-4.4,7-13.3,9.5-20.6,5.9
	c-14.4-7.2-27.7-16.5-39.4-27.5c-11-11.8-20.3-25-27.5-39.4c-3.6-7.4-1-16.3,5.9-20.6l36.7-23.1c6.9-4.4,9.4-13.2,5.8-20.6l-49-101
	c-3.9-7.9-13.4-11.3-21.4-7.4c-0.1,0.1-0.2,0.1-0.4,0.2c-4.3,2.1-9.1,4.8-14.2,7.9c-24,14.6-53.4,39-53.4,65.4v8
	c2.4,136,112,245.6,248,248h8c26.4,0,50.9-29.4,65.4-53.4c3.1-5.1,5.7-9.9,7.9-14.2c4.1-7.8,1-17.5-6.8-21.6
	C346.3,398.8,346.2,398.8,346.1,398.7z"/>
<path class="st1" d="M0,0"/>
<g>
	<path class="st2" d="M349.6,391.5l-101-49.1c-11-5.2-24.2-1.5-30.8,8.8L194.7,388c-2.2,3.5-6.6,4.8-10.3,3
		c-13.6-6.8-26.1-15.5-37.2-25.8c-10.5-11.2-19.3-23.8-26.2-37.5c-1.8-3.7-0.5-8.2,3-10.4l36.8-23.2c10.3-6.6,14-19.8,8.7-30.8
		l-49.1-101c-2.8-5.8-7.8-10.2-13.8-12.2c-6.2-2.1-12.9-1.6-18.7,1.3c-7.4,3.7-72,37.1-72,80.5v8c2.4,140.4,115.6,253.6,256,256h8
		c43.3,0,76.8-64.6,80.4-71.9c3-5.8,3.5-12.5,1.4-18.7C359.8,399.3,355.4,394.3,349.6,391.5L349.6,391.5z M241.6,356.9l101,49
		c1.9,0.9,3.4,2.6,4,4.6c0.7,2.1,0.5,4.4-0.5,6.4c-1.1,2.3-2.5,4.7-3.9,7.3l-115.7-56.7l4.8-7.6
		C233.5,356.4,237.9,355.2,241.6,356.9L241.6,356.9z M95.1,165.9c1.2-0.6,2.5-0.9,3.8-0.9c0.9,0,1.8,0.1,2.6,0.4
		c2,0.7,3.7,2.1,4.6,4l49,100.9c1.8,3.7,0.5,8.1-2.9,10.3l-7.6,4.8L87.8,169.7C90.4,168.3,92.8,167,95.1,165.9L95.1,165.9z M280,480
		h-8C140.5,477.6,34.4,371.5,32,240v-8c0-20.1,21.4-40.1,42.1-53.9l56.8,115.9l-15.5,9.7c-10.4,6.6-14.2,19.9-8.8,31
		c7.7,15.2,17.5,29.3,29.2,41.7c12.3,11.6,26.3,21.3,41.4,28.9c11.1,5.4,24.4,1.6,30.9-8.8l9.7-15.4l115.9,56.8
		C320.1,458.6,300.1,480,280,480z"/>
	<path class="st2" d="M344,16c-83.9-0.1-151.9,67.9-152,151.8c0,27.8,7.6,55.1,22.1,78.9l-13.8,55.3c-1.1,4.3,1.5,8.6,5.8,9.7
		c1.3,0.3,2.6,0.3,3.9,0l55.3-13.8c71.8,43.6,165.2,20.7,208.8-51.1S494.8,81.6,423,38.1C399.2,23.6,371.9,16,344,16z M344,304
		c-25.9,0-51.2-7.4-73-21.4c-1.9-1.2-4.1-1.6-6.3-1L219,293l11.4-45.7c0.5-2.1,0.2-4.4-1-6.3c-40.3-63.3-21.6-147.4,41.7-187.7
		s147.4-21.6,187.7,41.7s21.6,147.4-41.7,187.7C395.2,296.6,369.9,304,344,304L344,304z"/>
	<path class="st2" d="M278.4,171.2c10.6-8,12.8-23,4.8-33.6c-8-10.6-23-12.8-33.6-4.8c-6,4.5-9.6,11.6-9.6,19.2c0,4.4,3.6,8,8,8
		s8-3.6,8-8c0-4.4,3.6-8,8-8c4.4,0,8,3.6,8,8c0,2.5-1.2,4.9-3.2,6.4l-19.2,14.4c-6,4.5-9.6,11.7-9.6,19.2v8c0,4.4,3.6,8,8,8h32
		c4.4,0,8-3.6,8-8s-3.6-8-8-8h-24c0-2.5,1.2-4.9,3.2-6.4L278.4,171.2z"/>
	<path class="st2" d="M446.6,131.4c-1.5-2.2-4-3.4-6.6-3.4h-32c-4.4,0-8,3.6-8,8s3.6,8,8,8h20.5l-20,53.2c-1.6,4.1,0.5,8.7,4.7,10.3
		c0,0,0,0,0,0c0.9,0.3,1.9,0.5,2.8,0.5c3.3,0,6.3-2.1,7.5-5.2l24-64C448.4,136.3,448.1,133.6,446.6,131.4z"/>
	<path class="st2" d="M394.2,104.3c-4.2-1.2-8.7,1.2-9.9,5.5l-32,112c-1.2,4.2,1.3,8.7,5.5,9.9c0,0,0,0,0,0c0.7,0.2,1.5,0.3,2.2,0.3
		c3.6,0,6.7-2.4,7.7-5.8l32-112C400.9,110,398.4,105.5,394.2,104.3L394.2,104.3z"/>
	<path class="st2" d="M344,176h-8v-40c0-4.4-3.6-8-8-8c-2.7,0-5.2,1.3-6.7,3.6l-32,48c-2.5,3.7-1.5,8.6,2.2,11.1
		c1.3,0.9,2.9,1.3,4.4,1.3h24v8c0,4.4,3.6,8,8,8s8-3.6,8-8v-8h8c4.4,0,8-3.6,8-8S348.4,176,344,176z M320,176h-9.1l9.1-13.6V176z"/>
</g>
</svg>
