<?xml version="1.0" encoding="utf-8"?>
<!-- Generator: Adobe Illustrator 22.0.1, SVG Export Plug-In . SVG Version: 6.00 Build 0)  -->
<svg version="1.1" id="Layer_1" xmlns="http://www.w3.org/2000/svg" xmlns:xlink="http://www.w3.org/1999/xlink" x="0px" y="0px"
	 viewBox="0 0 56 50" style="enable-background:new 0 0 56 50;" xml:space="preserve">
<style type="text/css">
	.st0{fill:#FFFFFF;stroke:#00487C;stroke-width:2;stroke-miterlimit:10;}
	.st1{fill:#0496FF;stroke:#00487C;stroke-width:2;stroke-miterlimit:10;}
	.st2{fill:none;stroke:#2A5082;stroke-width:2;stroke-miterlimit:10;}
</style>
<path class="st0" d="M55,39.7V27.6c0-2-1.6-3.6-3.6-3.6H49c-0.5,0-1.1,0.2-1.4,0.6l-3.8,4L40,23H16l-3.7,5.6l-3.8-4
	C8.1,24.2,7.6,24,7,24H4.6c-2,0-3.6,1.6-3.6,3.6v12.2c0,1.4,0.7,2.7,1.7,3.6L1,46v3h54v-3l-1.7-2.7C54.3,42.4,55,41.1,55,39.7z"/>
<path class="st1" d="M36,23v-4.2c0-3.2-5.6-4.8-8.5-4.8S19,15.7,19,18.8V23"/>
<path class="st0" d="M52.6,43.9C54,43,55,41.5,55,39.7V27.6c0-2-1.6-3.6-3.6-3.6H49c-0.5,0-1.1,0.2-1.4,0.6L42.3,30h-5.8
	c0,0-0.5,4,3.3,4c2.2,0,5.8,0,5.8,0l4.9-5"/>
<path class="st0" d="M49,21c2.2,0,4-1.9,4-4.3v-1.4c0-2.4-1.8-4.3-4-4.3c-2.2,0-4,1.9-4,4.3v1.4C45,19.1,46.8,21,49,21z"/>
<path class="st0" d="M3.4,43.9C2,43,1,41.5,1,39.7V27.6c0-2,1.6-3.6,3.6-3.6H7c0.5,0,1.1,0.2,1.4,0.6l5.2,5.4h5.8c0,0,0.5,4-3.3,4
	c-2.2,0-5.8,0-5.8,0l-4.9-5"/>
<polyline class="st0" points="7.9,35 1,46 1,49 55,49 55,46 48.1,35 "/>
<polyline class="st2" points="12,29 16,23 40,23 44,29 "/>
<path class="st0" d="M7,21c-2.2,0-4-1.9-4-4.3v-1.4C3,12.9,4.8,11,7,11c2.2,0,4,1.9,4,4.3v1.4C11,19.1,9.2,21,7,21z"/>
<path class="st0" d="M28,11c2.2,0,4-1.9,4-4.3V5.3C32,2.9,30.2,1,28,1c-2.2,0-4,1.9-4,4.3v1.4C24,9.1,25.8,11,28,11z"/>
</svg>
