<?xml version="1.0" encoding="utf-8"?>
<!-- Generator: Adobe Illustrator 22.0.1, SVG Export Plug-In . SVG Version: 6.00 Build 0)  -->
<svg version="1.1" id="_x3C_Layer_x3E_" xmlns="http://www.w3.org/2000/svg" xmlns:xlink="http://www.w3.org/1999/xlink" x="0px"
	 y="0px" viewBox="0 0 96 96" style="enable-background:new 0 0 96 96;" xml:space="preserve">
<style type="text/css">
	.st0{fill:#662D91;}
	.st1{fill:#FFFFFF;}
</style>
<rect class="st0" width="96" height="96"/>
<g>
	<path class="st1" d="M92.4,44.8c0-7-5.3-12.7-12-13.6V9.6c0-1.1-0.9-2-2-2H26.1c-1.1,0-2,0.9-2,2s0.9,2,2,2h50.3v19.6h-5.2V18.5
		c0-1.1-0.9-2-2-2H17.4c-1.1,0-2,0.9-2,2v8C8.7,27.4,3.6,33.1,3.6,40c0,6.9,5.1,12.6,11.8,13.5v29.8c0,1.1,0.9,2,2,2h20.3
		c1.1,0,2-0.9,2-2s-0.9-2-2-2H19.4V53.7h31L47,57.1c-0.8,0.8-0.8,2,0,2.8c0.4,0.4,0.9,0.6,1.4,0.6c0.5,0,1-0.2,1.4-0.6l6.8-6.8
		c0.8-0.8,0.8-2,0-2.8l-6.8-6.8c-0.8-0.8-2-0.8-2.8,0c-0.8,0.8-0.8,2,0,2.8l3.5,3.5H19.4V20.5h47.8v10.7H35.6l3.4-3.4
		c0.8-0.8,0.8-2,0-2.8c-0.8-0.8-2-0.8-2.8,0l-6.8,6.8c-0.8,0.8-0.8,2,0,2.8l6.8,6.8c0.4,0.4,0.9,0.6,1.4,0.6c0.5,0,1-0.2,1.4-0.6
		c0.8-0.8,0.8-2,0-2.8l-3.5-3.5h31.6v46.2h-1.3c-1.1,0-2,0.9-2,2s0.9,2,2,2h3.3c1.1,0,2-0.9,2-2V35.1h5.2v41.2c0,1.1,0.9,2,2,2
		s2-0.9,2-2V58.4C87.1,57.6,92.4,51.8,92.4,44.8z M7.6,40c0-4.7,3.3-8.6,7.8-9.5v19C11,48.6,7.6,44.7,7.6,40z M80.4,54.4V35.3
		c4.5,0.8,8,4.8,8,9.5C88.4,49.6,84.9,53.6,80.4,54.4z"/>
	<path class="st1" d="M62.1,75.1c0-5.6-4.6-10.2-10.2-10.2c-5.6,0-10.2,4.6-10.2,10.2c0,3.6,1.9,6.7,4.6,8.5l-2,5
		c-0.4,1,0.1,2.2,1.1,2.6c0.2,0.1,0.5,0.1,0.7,0.1c0.8,0,1.5-0.5,1.9-1.3l2-5c0.6,0.1,1.2,0.2,1.8,0.2c0.6,0,1.2-0.1,1.7-0.2l2,5
		c0.3,0.8,1.1,1.3,1.9,1.3c0.2,0,0.5,0,0.7-0.1c1-0.4,1.5-1.6,1.1-2.6l-2-4.9C60.2,81.8,62.1,78.7,62.1,75.1z M51.9,81.2
		c-3.4,0-6.2-2.8-6.2-6.2c0-3.4,2.8-6.2,6.2-6.2c3.4,0,6.2,2.8,6.2,6.2C58.1,78.5,55.3,81.2,51.9,81.2z"/>
</g>
</svg>
