<svg xmlns="http://www.w3.org/2000/svg" viewBox="0 0 32 32" id="form-phone"><path d="M5.4-1.1l-1 .7C3.1.6 2.2 2 1.9 3.9c-.8 4.7 1.4 11.6 5.9 17.9 6.4 9.2 15.1 13.9 19.6 10.8l1-.7c.8-.5 1.3-1.4 1.5-2.3.2-.9 0-1.9-.6-2.7l-2.9-4.2c-1.1-1.6-3.3-2-4.9-.9l-1 .7c-1.1.8-3.5-.1-6.8-4.9-2.8-4.1-3-6.1-2.8-7 .1-.5.3-.8.6-1l1-.7c1.6-1.1 2-3.4.9-4.9L10.5-.2C9.8-1 9-1.5 8.1-1.6c-1-.2-1.9 0-2.7.5zM8.7 1l2.9 4.2c.5.7.3 1.7-.4 2.1l-1 .7c-.8.5-1.3 1.4-1.5 2.3-.4 2.1.7 5 3.2 8.5 5.1 7.3 8.4 6.2 9.6 5.3l1-.7c.7-.5 1.6-.3 2.1.4l2.9 4.2c.5.7.3 1.7-.4 2.1l-1 .7C22.7 33.4 15 28.7 9.4 20.6 5.3 14.8 3.2 8.4 3.9 4.3c.2-1.4.8-2.4 1.6-3l1-.7c.3-.2.7-.3 1.1-.3.5.1.9.3 1.1.7z"></path></svg>