<?xml version="1.0" encoding="utf-8"?>
<!-- Generator: Adobe Illustrator 22.0.1, SVG Export Plug-In . SVG Version: 6.00 Build 0)  -->
<svg version="1.1" id="Layer_1" xmlns="http://www.w3.org/2000/svg" xmlns:xlink="http://www.w3.org/1999/xlink" x="0px" y="0px"
	 viewBox="0 0 512 512" style="enable-background:new 0 0 512 512;" xml:space="preserve">
<style type="text/css">
	.st0{fill:#0496FF;}
	.st1{fill:#FFFFFF;}
	.st2{fill:#00487C;}
</style>
<path class="st0" d="M318.3,280c21.8,0,43-7.4,60-21l13.7-11v-48c0-8.8-7.2-16-16-16H40c-8.8,0-16,7.2-16,16v64c0,8.8,7.2,16,16,16
	H318.3z M72,248c-8.8,0-16-7.2-16-16s7.2-16,16-16s16,7.2,16,16S80.8,248,72,248z M136,248c-8.8,0-16-7.2-16-16s7.2-16,16-16
	s16,7.2,16,16S144.8,248,136,248z M200,232c0-8.8,7.2-16,16-16h128c8.8,0,16,7.2,16,16s-7.2,16-16,16H216
	C207.2,248,200,240.8,200,232z"/>
<path class="st0" d="M298.5,376H216c-8.8,0-16-7.2-16-16c0.1-8.8,7.2-15.9,16-16h80v-32H40c-8.8,0-16,7.2-16,16v64
	c0,8.8,7.2,16,16,16h268.6C304,397.8,300.6,387,298.5,376z M72,376c-8.8,0-16-7.2-16-16s7.2-16,16-16s16,7.2,16,16S80.8,376,72,376z
	 M136,376c-8.8,0-16-7.2-16-16s7.2-16,16-16s16,7.2,16,16S144.8,376,136,376z"/>
<path class="st0" d="M328.3,440H40c-8.8,0-16,7.2-16,16v16h340.8C350.9,463.5,338.5,452.7,328.3,440L328.3,440z"/>
<path class="st0" d="M376,152c8.8,0,16-7.2,16-16V72c0-8.8-7.2-16-16-16H40c-8.8,0-16,7.2-16,16v64c0,8.8,7.2,16,16,16H376z M72,120
	c-8.8,0-16-7.2-16-16s7.2-16,16-16s16,7.2,16,16S80.8,120,72,120z M136,120c-8.8,0-16-7.2-16-16s7.2-16,16-16s16,7.2,16,16
	S144.8,120,136,120z M344,120H216c-8.8,0-16-7.2-16-16s7.2-16,16-16h128c8.8,0,16,7.2,16,16S352.8,120,344,120z"/>
<path class="st1" d="M405.7,259L392,248l-13.7,11c-17,13.6-38.2,21-60,21H296v69.3c0,9,0.9,17.9,2.5,26.7c2.1,11,5.5,21.8,10,32
	c5.1,11.5,11.7,22.2,19.7,32c10.3,12.7,22.6,23.5,36.5,32c0.9,0.6,1.8,1.1,2.7,1.7L392,488l24.6-14.3
	c44.2-25.8,71.4-73.2,71.4-124.4V280h-22.3C443.9,280,422.7,272.6,405.7,259L405.7,259z M454.4,374.2c-7.8,34.5-42.1,56.1-76.6,48.3
	s-56.1-42.1-48.3-76.6c7.8-34.5,42.1-56.1,76.6-48.3C440.6,305.4,462.2,339.7,454.4,374.2L454.4,374.2z"/>
<g>
	<path class="st2" d="M72,80c-13.3,0-24,10.7-24,24s10.7,24,24,24s24-10.7,24-24S85.3,80,72,80z M72,112c-4.4,0-8-3.6-8-8s3.6-8,8-8
		s8,3.6,8,8S76.4,112,72,112z"/>
	<path class="st2" d="M136,80c-13.3,0-24,10.7-24,24s10.7,24,24,24s24-10.7,24-24S149.3,80,136,80z M136,112c-4.4,0-8-3.6-8-8
		s3.6-8,8-8s8,3.6,8,8S140.4,112,136,112z"/>
	<path class="st2" d="M344,80H216c-13.3,0-24,10.7-24,24s10.7,24,24,24h128c13.3,0,24-10.7,24-24S357.3,80,344,80z M344,112H216
		c-4.4,0-8-3.6-8-8s3.6-8,8-8h128c4.4,0,8,3.6,8,8S348.4,112,344,112z"/>
	<path class="st2" d="M72,208c-13.3,0-24,10.7-24,24s10.7,24,24,24s24-10.7,24-24l0,0C96,218.7,85.3,208,72,208z M72,240
		c-4.4,0-8-3.6-8-8s3.6-8,8-8s8,3.6,8,8S76.4,240,72,240z"/>
	<path class="st2" d="M136,208c-13.3,0-24,10.7-24,24s10.7,24,24,24s24-10.7,24-24l0,0C160,218.7,149.3,208,136,208z M136,240
		c-4.4,0-8-3.6-8-8s3.6-8,8-8s8,3.6,8,8S140.4,240,136,240z"/>
	<path class="st2" d="M368,232c0-13.3-10.7-24-24-24H216c-13.3,0-24,10.7-24,24s10.7,24,24,24h128C357.3,256,368,245.3,368,232
		L368,232z M208,232c0-4.4,3.6-8,8-8h128c4.4,0,8,3.6,8,8s-3.6,8-8,8H216C211.6,240,208,236.4,208,232z"/>
	<path class="st2" d="M72,336c-13.3,0-24,10.7-24,24s10.7,24,24,24s24-10.7,24-24S85.3,336,72,336z M72,368c-4.4,0-8-3.6-8-8
		s3.6-8,8-8s8,3.6,8,8S76.4,368,72,368z"/>
	<path class="st2" d="M136,336c-13.3,0-24,10.7-24,24s10.7,24,24,24s24-10.7,24-24S149.3,336,136,336z M136,368c-4.4,0-8-3.6-8-8
		s3.6-8,8-8s8,3.6,8,8S140.4,368,136,368z"/>
	<path class="st2" d="M465.7,272c-20,0-39.4-6.8-55-19.3l-10.7-8.6V200c0-13.3-10.7-24-24-24h-8v-16h8c13.3,0,24-10.7,24-24V72
		c0-13.3-10.7-24-24-24H40c-13.3,0-24,10.7-24,24v64c0,13.3,10.7,24,24,24h8v16h-8c-13.3,0-24,10.7-24,24v64c0,13.3,10.7,24,24,24h8
		v16h-8c-13.3,0-24,10.7-24,24v64c0,13.3,10.7,24,24,24h8v16h-8c-13.3,0-24,10.7-24,24v24h346.5c0.3,0.2,0.6,0.4,0.9,0.6l28.6,16.7
		l28.6-16.7c46.6-27.3,75.3-77.3,75.4-131.3V272L465.7,272z M40,144c-4.4,0-8-3.6-8-8V72c0-4.4,3.6-8,8-8h336c4.4,0,8,3.6,8,8v64
		c0,4.4-3.6,8-8,8H40z M64,160h288v16H64V160z M40,272c-4.4,0-8-3.6-8-8v-64c0-4.4,3.6-8,8-8h336c4.4,0,8,3.6,8,8v44.2l-10.7,8.6
		c-15.6,12.5-35,19.3-55,19.3H40z M288.1,352c0.1,5.3,0.5,10.7,1.1,16H216c-4.4,0-8-3.6-8-8c0-2.2,0.9-4.2,2.4-5.7
		c1.5-1.5,3.5-2.3,5.6-2.3H288.1z M64,288h224v16H64L64,288z M40,400c-4.4,0-8-3.6-8-8v-64c0-4.4,3.6-8,8-8h248v16h-72
		c-13.2,0.1-23.9,10.8-24,24c0,13.3,10.7,24,24,24h76.1c1.3,5.4,2.8,10.8,4.7,16H40z M64,416h239.5c2.7,5.5,5.7,10.9,9.1,16H64
		L64,416z M32,464v-8c0-4.4,3.6-8,8-8h284.5c4.9,5.7,10.2,11.1,15.8,16H32z M480,349.3c-0.1,48.3-25.8,93-67.5,117.5l-20.5,12
		l-20.5-12c-41.7-24.4-67.4-69.1-67.5-117.4V288h14.3c23.6,0,46.5-8.1,65-22.8l8.7-7l8.7,7c18.5,14.7,41.4,22.8,65,22.8H480
		L480,349.3z"/>
	<path class="st2" d="M407.9,289.8c-38.8-8.8-77.3,15.5-86.1,54.3c-8.8,38.8,15.5,77.3,54.3,86.1c38.8,8.8,77.3-15.5,86.1-54.3
		c0,0,0,0,0,0C471,337.1,446.7,298.6,407.9,289.8z M446.6,372.4c-6.8,30.2-36.8,49.1-67,42.2c-30.2-6.8-49.1-36.8-42.2-67
		c6.8-30.2,36.8-49.1,67-42.2c0,0,0,0,0,0C434.5,312.2,453.4,342.2,446.6,372.4z"/>
	<path class="st2" d="M384,372.7l-17-17L355.7,367l28.3,28.3l50.9-50.9l-11.3-11.3L384,372.7z"/>
</g>
</svg>
