<?xml version="1.0" encoding="utf-8"?>
<!-- Generator: Adobe Illustrator 22.0.1, SVG Export Plug-In . SVG Version: 6.00 Build 0)  -->
<svg version="1.1" id="Layer_1" xmlns="http://www.w3.org/2000/svg" xmlns:xlink="http://www.w3.org/1999/xlink" x="0px" y="0px"
	 viewBox="0 0 61.8 48" style="enable-background:new 0 0 61.8 48;" xml:space="preserve">
<style type="text/css">
	.st0{fill:#FFFFFF;stroke:#00487C;stroke-width:2;stroke-miterlimit:10;}
	.st1{fill:#0496FF;stroke:#00487C;stroke-width:2;stroke-miterlimit:10;}
</style>
<path class="st0" d="M55,1h-5.3v7h11C60.8,4,58.2,1,55,1z"/>
<path class="st0" d="M52.8,8h8c0-4-2.6-7-5.7-7h-9.3"/>
<path class="st0" d="M55.4,1c-3.2,0-5.6,2.7-5.6,5.9v34c0,3.2-3,6.1-6.2,6.1H19.8V33.2V6.7c0-3.2,2.8-5.7,6-5.7H55.4L55.4,1z"/>
<path class="st1" d="M38,41H12.5c0.9,3,3.8,6,6.5,6h24.5C40.8,47,38.6,44,38,41z"/>
<line class="st1" x1="25.8" y1="11" x2="43.8" y2="11"/>
<line class="st1" x1="25.8" y1="15" x2="43.8" y2="15"/>
<line class="st1" x1="25.8" y1="19" x2="43.8" y2="19"/>
<line class="st1" x1="37.8" y1="35" x2="43.8" y2="35"/>
<g>
	<path class="st1" d="M29.9,33.6c0,0-0.6-4.8-3-7.2S7.6,7,7.6,7C6.3,5.8,4.5,5.7,3.2,6.9C2,8.2,2.1,10.1,3.3,11.3
		c0,0,16.9,16.9,19.3,19.3C25.1,33,29.9,33.6,29.9,33.6z"/>
	<line class="st1" x1="9.9" y1="23.5" x2="0.7" y2="14.3"/>
	<line class="st1" x1="3.5" y1="17.1" x2="5.7" y2="15"/>
	<line class="st1" x1="29.7" y1="33.4" x2="31.1" y2="34.8"/>
	<line class="st1" x1="22.6" y1="30.6" x2="26.9" y2="26.3"/>
	<line class="st1" x1="6.4" y1="14.3" x2="10.6" y2="10.1"/>
</g>
<line class="st1" x1="33.8" y1="35" x2="35.8" y2="35"/>
</svg>
