<?xml version="1.0" encoding="utf-8"?>
<!-- Generator: Adobe Illustrator 22.0.1, SVG Export Plug-In . SVG Version: 6.00 Build 0)  -->
<svg version="1.1" id="Layer_1" xmlns="http://www.w3.org/2000/svg" xmlns:xlink="http://www.w3.org/1999/xlink" x="0px" y="0px"
	 viewBox="0 0 60 52" style="enable-background:new 0 0 60 52;" xml:space="preserve">
<style type="text/css">
	.st0{fill:#FFFFFF;stroke:#00487C;stroke-width:2;stroke-miterlimit:10;}
	.st1{fill:none;stroke:#2A5082;stroke-width:2;stroke-miterlimit:10;}
	.st2{fill:#0496FF;stroke:#00487C;stroke-width:2;stroke-miterlimit:10;}
	.st3{fill:none;stroke:#00487C;stroke-width:2;stroke-miterlimit:10;}
</style>
<path class="st0" d="M53,14H8c-1.1,0-2,0.9-2,2v31h49V16C55,14.9,54.1,14,53,14z"/>
<path class="st1" d="M6,46V16c0-1.1,0.9-2,2-2h45c1.1,0,2,0.9,2,2v30"/>
<path class="st2" d="M59,4v24.1c0,1.6-1.3,2.9-2.9,2.9H37.9l-8.1,7.7c-0.6,0.7-1.8,0.3-1.8-0.6V31h-5c-1.7,0-3-1.4-3-3V4
	c0-1.7,1.3-3,3-3h33C57.7,1,59,2.3,59,4z"/>
<polyline class="st3" points="35,16 39,20 48,9 "/>
<polyline class="st3" points="47,16 47,24 30.9,24 30.9,8 44,8 "/>
<path class="st0" d="M59,46H37l-1,1H24l-1-1H1v2c0,1.7,1.3,3,3,3h52c1.7,0,3-1.3,3-3V46z"/>
</svg>
