<?xml version="1.0" encoding="utf-8"?>
<!-- Generator: Adobe Illustrator 22.0.1, SVG Export Plug-In . SVG Version: 6.00 Build 0)  -->
<svg version="1.1" id="Layer_1" xmlns="http://www.w3.org/2000/svg" xmlns:xlink="http://www.w3.org/1999/xlink" x="0px" y="0px"
	 viewBox="0 0 61.8 48" style="enable-background:new 0 0 61.8 48;" xml:space="preserve">
<style type="text/css">
	.st0{fill:#FFFFFF;stroke:#00487C;stroke-width:2;stroke-miterlimit:10;}
	.st1{fill:#0496FF;stroke:#00487C;stroke-width:2;stroke-miterlimit:10;}
</style>
<path class="st0" d="M56.9,10.9c0.2,3-2,5.6-5,5.8c-3,0.2-5.6-2-5.8-5s2-5.6,5-5.8C54.1,5.7,56.7,8,56.9,10.9z"/>
<path class="st0" d="M46.9,23.4l-5.4-11.8c0,0-5.2-4.9-7.5-5.7H19c0.6,2.2,2.5,3.8,5.2,4.2l7.3,0.9l3.1,4.2l-6.5,6.7l-0.4,0.5
	c-3.3,4.1-1.2,7.6,2.1,11.2l3.7,3.8l-10,5.8l1.5,2.6l14.9-4.8c1.7-0.6,2.3-2.6,1.3-4.1l-5.7-8.5l4.6-4.7c0,0,2.6,4.1,3.9,5h7.2
	c3.9,0,5.8-4,5.8-4L46.9,23.4z"/>
<path class="st1" d="M25.1,46l14.9-4.8c1.7-0.6,2.3-2.6,1.3-4.1l-5.7-8.5l4.6-4.7c0,0,2.6,4.1,3.9,5h7.2c3.9,0,5.8-4,5.8-4
	l-10.1-1.6l-5.4-11.8c0,0-5.2-4.9-7.5-5.7H19c0.6,2.2,2.5,3.8,5.2,4.2l7.3,0.9l3.1,4.2l-6.5,6.7l-0.4,0.5c-3.3,4.1-1.2,7.6,2.1,11.2
	l3.7,3.8l-10,5.8"/>
<line class="st0" x1="5.7" y1="44.6" x2="25.1" y2="35.3"/>
<line class="st0" x1="23.3" y1="28.8" x2="4.1" y2="42.4"/>
<rect x="9" y="5.3" transform="matrix(0.4843 0.8749 -0.8749 0.4843 17.9321 -8.8364)" class="st0" width="15" height="11"/>
</svg>
