<?xml version="1.0" encoding="utf-8"?>
<!-- Generator: Adobe Illustrator 22.0.1, SVG Export Plug-In . SVG Version: 6.00 Build 0)  -->
<svg version="1.1" id="Layer_1" xmlns="http://www.w3.org/2000/svg" xmlns:xlink="http://www.w3.org/1999/xlink" x="0px" y="0px"
	 viewBox="0 0 58 50.3" style="enable-background:new 0 0 58 50.3;" xml:space="preserve">
<style type="text/css">
	.st0{fill:#FFFFFF;}
	.st1{fill:#0496FF;}
	.st2{fill:none;stroke:#00487C;stroke-width:2;stroke-miterlimit:10;}
</style>
<path class="st0" d="M55,21.3v4h-9v17h-4v-14c0-1.7-1.3-3-3-3l0,0c-1.7,0-3,1.3-3,3v14h-4v-14c0-1.7-1.3-3-3-3l0,0c-1.7,0-3,1.3-3,3
	v14h-4v-14c0-1.7-1.3-3-3-3l0,0c-1.7,0-3,1.3-3,3v14h-4v-17H3v-4H55z"/>
<polygon class="st1" points="46,16.3 46,14.4 29,1.3 12,14.4 12,16.3 1,16.3 1,21.3 29,21.3 57,21.3 57,16.3 "/>
<polyline class="st2" points="20,8.3 1,8.3 1,13.3 2,14.3 2,16.3 12,16.3 12,14.4 29,1.3 46,14.4 46,16.3 56,16.3 56,14.3 57,13.3 
	57,8.3 38,8.3 "/>
<polyline class="st2" points="56,18.3 56,21.3 2,21.3 2,18.3 "/>
<path class="st2" d="M36,42.3v-14c0-1.7,1.3-3,3-3l0,0c1.7,0,3,1.3,3,3v14"/>
<path class="st2" d="M26,42.3v-14c0-1.7,1.3-3,3-3l0,0c1.7,0,3,1.3,3,3v14"/>
<path class="st2" d="M16,42.3v-14c0-1.7,1.3-3,3-3l0,0c1.7,0,3,1.3,3,3v14"/>
<polyline class="st2" points="4,50.3 4,25.3 12,25.3 12,42.3 "/>
<polyline class="st2" points="54,50.3 54,25.3 46,25.3 46,42.3 "/>
<g>
	<line class="st2" x1="10" y1="45.3" x2="48" y2="45.3"/>
	<line class="st2" x1="7" y1="49.3" x2="51" y2="49.3"/>
</g>
<circle class="st2" cx="29" cy="12.3" r="4"/>
<g>
	<line class="st2" x1="4" y1="31.3" x2="7" y2="31.3"/>
	<line class="st2" x1="4" y1="37.3" x2="7" y2="37.3"/>
	<line class="st2" x1="4" y1="43.3" x2="7" y2="43.3"/>
	<line class="st2" x1="51" y1="31.3" x2="54" y2="31.3"/>
	<line class="st2" x1="51" y1="37.3" x2="54" y2="37.3"/>
	<line class="st2" x1="51" y1="43.3" x2="54" y2="43.3"/>
</g>
</svg>
