<?xml version="1.0" encoding="utf-8"?>
<!-- Generator: Adobe Illustrator 22.0.1, SVG Export Plug-In . SVG Version: 6.00 Build 0)  -->
<svg version="1.1" id="Layer_1" xmlns="http://www.w3.org/2000/svg" xmlns:xlink="http://www.w3.org/1999/xlink" x="0px" y="0px"
	 viewBox="0 0 512 512" style="enable-background:new 0 0 512 512;" xml:space="preserve">
<style type="text/css">
	.st0{fill:#00487C;}
</style>
<g>
	<path class="st0" d="M256,0C114.8,0,0,114.8,0,256s114.8,256,256,256s256-114.8,256-256S397.2,0,256,0z M256,482
		C131.4,482,30,380.6,30,256S131.4,30,256,30s226,101.4,226,226S380.6,482,256,482z"/>
	<path class="st0" d="M256,96.4c-26,0-47.1,21.1-47.1,47.1s21.1,47.1,47.1,47.1s47.1-21.1,47.1-47.1S282,96.4,256,96.4z M256,160.7
		c-9.4,0-17.1-7.7-17.1-17.1s7.7-17.1,17.1-17.1s17.1,7.7,17.1,17.1S265.4,160.7,256,160.7z"/>
	<path class="st0" d="M256,224.9c-26,0-47.1,21.1-47.1,47.1v96.4c0,26.6,21.6,47.1,47.1,47.1c26,0,47.1-21.1,47.1-47.1v-96.4
		C303.1,245.5,281.5,224.9,256,224.9L256,224.9z M273.1,368.5c0,9.4-7.7,17.1-17.1,17.1c-9.4,0-17.1-7.5-17.1-17.1v-96.4
		c0-9.4,7.7-17.1,17.1-17.1c9.4,0,17.1,7.5,17.1,17.1V368.5z"/>
</g>
</svg>
