<?xml version="1.0" encoding="utf-8"?>
<!-- Generator: Adobe Illustrator 22.0.1, SVG Export Plug-In . SVG Version: 6.00 Build 0)  -->
<svg version="1.1" id="Layer_1" xmlns="http://www.w3.org/2000/svg" xmlns:xlink="http://www.w3.org/1999/xlink" x="0px" y="0px"
	 viewBox="0 0 512 512" style="enable-background:new 0 0 512 512;" xml:space="preserve">
<style type="text/css">
	.st0{fill:#FFFFFF;}
	.st1{fill:#0496FF;}
</style>
<g>
	<path class="st0" d="M336,512L336,512H176c-4.8,0-9.3-2.4-11.9-6.5c-2.6-4-3-9.1-1.1-13.5l42.8-97c2.3-5.2,7.4-8.5,13.1-8.5h74.3
		c5.7,0,10.8,3.3,13,8.5l42.4,96.2c1,2,1.6,4.2,1.6,6.6C350.3,505.6,343.9,512,336,512z M197.9,483.5h116.2L283.9,415h-55.7
		L197.9,483.5z"/>
	<path class="st0" d="M23.3,362.3C15.4,362.3,9,355.9,9,348V92.7c0-7.9,6.4-14.3,14.3-14.3h465.5c7.9,0,14.3,6.4,14.3,14.3v166.2
		c0,7.9-6.4,14.3-14.3,14.3s-14.3-6.4-14.3-14.3V107h-437v241C37.5,355.9,31.1,362.3,23.3,362.3z"/>
</g>
<path class="st1" d="M71.7,426.5h368.6c26.7,0,48.4-21.7,48.4-48.4v-30H23.3v30C23.3,404.8,45,426.5,71.7,426.5z"/>
<path class="st0" d="M440.3,440.7H71.7C37.1,440.7,9,412.6,9,378v-30c0-7.9,6.4-14.3,14.3-14.3h465.5c7.9,0,14.3,6.4,14.3,14.3v30
	C503,412.6,474.9,440.7,440.3,440.7z M37.5,362.3V378c0,18.8,15.3,34.2,34.2,34.2h368.6c18.8,0,34.2-15.3,34.2-34.2v-15.8
	L37.5,362.3L37.5,362.3z"/>
<path class="st0" d="M488.7,107H23.3C15.4,107,9,100.6,9,92.7v-30C9,28.1,37.1,0,71.7,0h368.6C474.9,0,503,28.1,503,62.7v30
	C503,100.6,496.6,107,488.7,107z M37.5,78.4h436.9V62.7c0-18.8-15.3-34.2-34.2-34.2H71.7c-18.8,0-34.2,15.3-34.2,34.2
	C37.5,62.7,37.5,78.4,37.5,78.4z"/>
<g>
	<g>
		<g>
			<path class="st0" d="M176.8,227.8c-5.8,0-10.4-4.7-10.4-10.4c0-24.5,9.3-47.6,26.3-65.2c17.8-18.4,41.6-28.5,67.2-28.5
				c21.7,0,42.4,7.4,59,21v-17.5c0-5.8,4.7-10.4,10.4-10.4c5.8,0,10.4,4.7,10.4,10.4v41.6c0,4.5-2.9,8.5-7.2,9.9l-41.6,13.9
				c-1.1,0.4-2.2,0.5-3.3,0.5c0,0,0,0,0,0c-4.5,0-8.5-2.9-9.9-7.1c-0.9-2.6-0.7-5.5,0.5-8c1.2-2.5,3.4-4.4,6.1-5.3l25.4-8.5
				c-13.4-12.6-31.3-19.7-49.8-19.7c-40.1,0-72.8,32.6-72.8,72.8C187.3,223.1,182.6,227.8,176.8,227.8z"/>
			<path class="st0" d="M329.4,120.2c3.8,0,6.9,3.1,6.9,6.9v41.6c0,3-1.9,5.6-4.8,6.6L290,189.2c-0.7,0.2-1.5,0.4-2.2,0.4
				c-2.9,0-5.6-1.9-6.6-4.7c-1.2-3.6,0.7-7.6,4.4-8.8l30.7-10.2C301.9,150,281.5,141,260.1,141c-42.1,0-76.3,34.1-76.3,76.3
				c0,3.9-3.1,6.9-6.9,6.9s-6.9-3.1-6.9-6.9c0-23.4,9-45.9,25.3-62.7c17.7-18.2,41.2-27.4,64.7-27.4c22.5,0,45.1,8.4,62.5,25.3
				v-25.3C322.4,123.3,325.6,120.2,329.4,120.2 M329.4,113.2c-7.7,0-13.9,6.3-13.9,13.9v10.5c-16.2-11.4-35.4-17.5-55.5-17.5
				c-26.5,0-51.3,10.5-69.7,29.5c-17.6,18.2-27.3,42.2-27.3,67.6c0,7.7,6.3,13.9,13.9,13.9c7.7,0,13.9-6.3,13.9-13.9
				c0-38.2,31.1-69.3,69.3-69.3c15.6,0,30.7,5.3,42.9,14.9l-19.6,6.5c-3.5,1.2-6.4,3.7-8.1,7c-1.7,3.3-1.9,7.1-0.7,10.6
				c1.9,5.7,7.2,9.5,13.2,9.5c1.5,0,3-0.2,4.4-0.7l41.5-13.8c5.7-1.9,9.5-7.2,9.5-13.2v-41.6C343.3,119.5,337.1,113.2,329.4,113.2
				L329.4,113.2z"/>
		</g>
	</g>
</g>
<g>
	<g>
		<g>
			<path class="st0" d="M190.7,317.9c-5.8,0-10.4-4.7-10.4-10.4v-41.6c0-4.5,2.9-8.5,7.2-9.9l41.6-13.9c1.1-0.4,2.2-0.5,3.3-0.5
				c4.5,0,8.5,2.9,9.9,7.1c0.9,2.6,0.7,5.5-0.6,8c-1.2,2.5-3.4,4.4-6.1,5.3l-25.4,8.5c13.4,12.6,31.3,19.7,49.8,19.7
				c40.2,0,72.8-32.6,72.8-72.8c0-5.8,4.7-10.4,10.4-10.4s10.4,4.7,10.4,10.4c0.1,24.5-9.3,47.6-26.3,65.2
				c-17.8,18.4-41.6,28.5-67.2,28.5c0,0,0,0,0,0c-21.7,0-42.4-7.4-59.1-21v17.5C201.2,313.2,196.5,317.9,190.7,317.9z"/>
			<path class="st0" d="M343.3,210.4c3.9,0,6.9,3.1,6.9,6.9c0.1,23.4-9,46-25.3,62.8c-17.6,18.2-41.1,27.4-64.7,27.4
				c-22.5,0-45.1-8.4-62.6-25.3v25.3c0,3.9-3.1,6.9-6.9,6.9c-3.9,0-6.9-3.1-6.9-6.9v-41.6c0-3,1.9-5.6,4.8-6.6l41.6-13.9
				c0.7-0.2,1.5-0.4,2.2-0.4c2.9,0,5.6,1.8,6.6,4.8c1.2,3.6-0.7,7.6-4.4,8.8l-30.7,10.2c14.4,15.8,34.8,24.8,56.2,24.8
				c42.1,0,76.3-34.1,76.3-76.3C336.3,213.5,339.4,210.4,343.3,210.4 M343.3,203.4c-7.7,0-13.9,6.3-13.9,13.9
				c0,38.2-31.1,69.3-69.3,69.3c-15.6,0-30.7-5.3-42.9-14.9l19.6-6.5c3.5-1.2,6.4-3.7,8.1-7c1.7-3.3,1.9-7.1,0.7-10.6
				c-1.9-5.7-7.2-9.5-13.2-9.5c-1.5,0-3,0.2-4.4,0.7l-41.5,13.8c-5.7,1.9-9.5,7.2-9.5,13.2v41.6c0,7.7,6.3,13.9,13.9,13.9
				c7.7,0,13.9-6.3,13.9-13.9V297c16.2,11.4,35.5,17.5,55.6,17.5c26.5,0,51.3-10.5,69.7-29.5c17.7-18.3,27.4-42.3,27.3-67.7
				C357.2,209.6,350.9,203.4,343.3,203.4L343.3,203.4z"/>
		</g>
	</g>
</g>
</svg>
