<?xml version="1.0" encoding="utf-8"?>
<!-- Generator: Adobe Illustrator 22.0.1, SVG Export Plug-In . SVG Version: 6.00 Build 0)  -->
<svg version="1.1" id="Capa_1" xmlns="http://www.w3.org/2000/svg" xmlns:xlink="http://www.w3.org/1999/xlink" x="0px" y="0px"
	 viewBox="0 0 368 368" style="enable-background:new 0 0 368 368;" xml:space="preserve">
<style type="text/css">
	.st0{fill:#0496FF;}
	.st1{fill:#FFFFFF;}
</style>
<path class="st0" d="M184,8c97.2,0,176,78.8,176,176s-78.8,176-176,176S8,281.2,8,184S86.8,8,184,8z M294.9,248
	c10.9-18.8,17.1-40.6,17.1-64c0-70.7-57.3-128-128-128S56,113.3,56,184c0,23.4,6.2,45.2,17.1,64c22.1,38.2,63.5,64,110.9,64
	S272.8,286.2,294.9,248z"/>
<g>
	<path class="st1" d="M184,0C82.5,0,0,82.5,0,184s82.5,184,184,184s184-82.5,184-184S285.5,0,184,0z M184,352
		c-92.6,0-168-75.4-168-168S91.4,16,184,16s168,75.4,168,168S276.6,352,184,352z"/>
	<path class="st1" d="M280.1,87.9c0,0-0.1,0-0.1-0.1C255.4,63.2,221.4,48,184,48s-71.4,15.2-96,39.8c0,0-0.1,0-0.1,0.1
		s0,0.1-0.1,0.1C63.2,112.6,48,146.6,48,184c0,23.9,6.3,47.4,18.2,68c0,0,0,0,0,0c24.2,41.9,69.4,68,117.8,68s93.6-26.1,117.8-68
		c0,0,0,0,0,0c11.9-20.6,18.2-44.1,18.2-68c0-37.4-15.2-71.4-39.8-96C280.2,87.9,280.2,87.9,280.1,87.9z M264,192h39.5
		c-1.1,16.8-5.5,33.2-13.4,48H77.8c-7.8-14.8-12.2-31.2-13.4-48H104c4.4,0,8-3.6,8-8s-3.6-8-8-8H64.4c1.8-27.1,12.6-51.7,29.4-70.9
		l28,28c1.6,1.6,3.6,2.3,5.7,2.3s4.1-0.8,5.7-2.3c3.1-3.1,3.1-8.2,0-11.3l-28-28C124.3,77,148.9,66.2,176,64.4V104c0,4.4,3.6,8,8,8
		s8-3.6,8-8V64.4c27.1,1.8,51.7,12.6,70.9,29.4l-68.6,68.6c-3.2-1.5-6.6-2.4-10.3-2.4c-13.2,0-24,10.8-24,24s10.8,24,24,24
		s24-10.8,24-24c0-3.7-0.9-7.1-2.4-10.3l68.6-68.6c16.8,19.2,27.6,43.8,29.4,70.9H264c-4.4,0-8,3.6-8,8S259.6,192,264,192z
		 M178.1,189.3c-0.6-0.7-1.1-1.4-1.5-2.2C177,187.9,177.5,188.6,178.1,189.3z M176.6,180.9c0.3-0.8,0.9-1.5,1.5-2.2
		C177.5,179.4,177,180.1,176.6,180.9z M180.9,191.4c-0.8-0.3-1.5-0.9-2.2-1.5C179.4,190.5,180.1,191,180.9,191.4z M189.3,189.9
		c-0.7,0.6-1.4,1.1-2.2,1.5C187.9,191,188.6,190.5,189.3,189.9z M184,304c-37.9,0-73.5-18.1-96-48H280
		C257.5,285.9,221.9,304,184,304z"/>
</g>
</svg>
