<?xml version="1.0" encoding="utf-8"?>
<!-- Generator: Adobe Illustrator 22.0.1, SVG Export Plug-In . SVG Version: 6.00 Build 0)  -->
<svg version="1.1" id="_x31__x2C_5" xmlns="http://www.w3.org/2000/svg" xmlns:xlink="http://www.w3.org/1999/xlink" x="0px"
	 y="0px" viewBox="0 0 512 512" style="enable-background:new 0 0 512 512;" xml:space="preserve">
<style type="text/css">
	.st0{fill:#00487C;}
</style>
<path class="st0" d="M474.7,384H37.3C16.7,384,0,367.3,0,346.7V80c0-20.6,16.7-37.3,37.3-37.3h437.3c20.6,0,37.3,16.7,37.3,37.3
	v266.7C512,367.3,495.3,384,474.7,384z M37.3,74.7c-2.9,0-5.3,2.4-5.3,5.3v266.7c0,2.9,2.4,5.3,5.3,5.3h437.3c2.9,0,5.3-2.4,5.3-5.3
	V80c0-2.9-2.4-5.3-5.3-5.3H37.3z"/>
<path class="st0" d="M346.7,469.3H165.3c-8.8,0-16-7.2-16-16s7.2-16,16-16h181.3c8.8,0,16,7.2,16,16S355.5,469.3,346.7,469.3z"/>
<path class="st0" d="M256,469.3c-8.8,0-16-7.2-16-16V368c0-8.8,7.2-16,16-16c8.8,0,16,7.2,16,16v85.3
	C272,462.2,264.8,469.3,256,469.3z"/>
<path class="st0" d="M144,298.7c-4.1,0-8.2-1.6-11.3-4.7c-6.3-6.3-6.3-16.4,0-22.6l58-58l-58-58c-6.3-6.3-6.3-16.4,0-22.6
	c6.3-6.3,16.4-6.3,22.6,0l69.3,69.3c6.3,6.3,6.3,16.4,0,22.6L155.3,294C152.2,297.1,148.1,298.7,144,298.7z"/>
<path class="st0" d="M368,298.7h-96c-8.8,0-16-7.2-16-16c0-8.8,7.2-16,16-16h96c8.8,0,16,7.2,16,16C384,291.5,376.8,298.7,368,298.7
	z"/>
</svg>
