<?xml version="1.0" encoding="utf-8"?>
<!-- Generator: Adobe Illustrator 22.0.1, SVG Export Plug-In . SVG Version: 6.00 Build 0)  -->
<svg version="1.1" id="Layer_1" xmlns="http://www.w3.org/2000/svg" xmlns:xlink="http://www.w3.org/1999/xlink" x="0px" y="0px"
	 viewBox="0 0 512 512" style="enable-background:new 0 0 512 512;" xml:space="preserve">
<style type="text/css">
	.st0{fill:#FFFFFF;}
	.st1{fill:#C42333;}
</style>
<path class="st0" d="M437,75C388.7,26.6,324.4,0,256,0S123.3,26.6,75,75C26.6,123.3,0,187.6,0,256s26.6,132.7,75,181
	c48.4,48.4,112.6,75,181,75s132.7-26.6,181-75s75-112.6,75-181S485.4,123.3,437,75z M408.7,408.7c-84.2,84.2-221.3,84.2-305.5,0
	s-84.2-221.3,0-305.5s221.3-84.2,305.5,0S493,324.5,408.7,408.7z"/>
<polygon class="st1" points="284.3,256 347.9,319.6 319.7,347.9 256,284.3 192.4,347.9 164.1,319.6 227.7,256 164.1,192.3 
	192.4,164.1 256,227.7 319.7,164.1 347.9,192.3 "/>
</svg>
