<?xml version="1.0" encoding="utf-8"?>
<!-- Generator: Adobe Illustrator 22.0.1, SVG Export Plug-In . SVG Version: 6.00 Build 0)  -->
<svg version="1.1" id="_x31__x2C_5" xmlns="http://www.w3.org/2000/svg" xmlns:xlink="http://www.w3.org/1999/xlink" x="0px"
	 y="0px" viewBox="0 0 512 512" style="enable-background:new 0 0 512 512;" xml:space="preserve">
<style type="text/css">
	.st0{fill:#00487C;}
</style>
<path class="st0" d="M389.3,426.7H122.7c-8.8,0-16-7.2-16-16v-224c0-8.8,7.2-16,16-16h266.7c8.8,0,16,7.2,16,16v224
	C405.3,419.5,398.2,426.7,389.3,426.7z M138.7,394.7h234.7v-192H138.7V394.7z"/>
<path class="st0" d="M208,426.7c-8.8,0-16-7.2-16-16v-224c0-8.8,7.2-16,16-16c8.8,0,16,7.2,16,16v224
	C224,419.5,216.8,426.7,208,426.7z"/>
<path class="st0" d="M389.3,314.7H122.7c-8.8,0-16-7.2-16-16c0-8.8,7.2-16,16-16h266.7c8.8,0,16,7.2,16,16
	C405.3,307.5,398.2,314.7,389.3,314.7z"/>
<path class="st0" d="M453.3,490.7H58.7C26.3,490.7,0,464.4,0,432V80c0-32.4,26.3-58.7,58.7-58.7h394.7c32.4,0,58.7,26.3,58.7,58.7
	v352C512,464.4,485.7,490.7,453.3,490.7z M58.7,53.3C44,53.3,32,65.3,32,80v352c0,14.7,12,26.7,26.7,26.7h394.7
	c14.7,0,26.7-12,26.7-26.7V80c0-14.7-12-26.7-26.7-26.7H58.7z"/>
<path class="st0" d="M496,128H16c-8.8,0-16-7.2-16-16s7.2-16,16-16h480c8.8,0,16,7.2,16,16S504.8,128,496,128z"/>
</svg>
