<?xml version="1.0" encoding="utf-8"?>
<!-- Generator: Adobe Illustrator 22.1.0, SVG Export Plug-In . SVG Version: 6.00 Build 0)  -->
<svg version="1.1" id="Слой_1" xmlns="http://www.w3.org/2000/svg" xmlns:xlink="http://www.w3.org/1999/xlink" x="0px" y="0px"
	 viewBox="0 0 642.7 145.1" style="enable-background:new 0 0 642.7 145.1;" xml:space="preserve">
<style type="text/css">
	.st0{fill:#4CC6E2;}
	.st1{fill:#FFFFFF;}
</style>
<g>
	<path class="st0" d="M72.6,5.5c9.5,0,17.5,6.2,20.2,14.8V0H52.4v20.3C55.1,11.7,63.1,5.5,72.6,5.5z"/>
	<path class="st0" d="M52.4,42.7c3,0.7,5.8,1.3,8.2,1.8c0.3,0.1,0.7,0.1,1,0.2c-4.4-2.6-7.7-6.8-9.2-11.8V42.7z"/>
	<path class="st0" d="M83.5,44.7c0.3-0.1,0.7-0.1,1-0.2c2.4-0.5,5.2-1.1,8.2-1.8v-9.8C91.2,37.8,87.9,42,83.5,44.7z"/>
	<path class="st0" d="M90.2,134.4c-9.7-19.2-15.2-25.7-17.6-27.8c-2.4,2.1-7.9,8.6-17.6,27.8c-0.6,1.3-1.5,2.3-2.5,3.1v7.5h40.3
		v-7.5C91.7,136.8,90.8,135.7,90.2,134.4z"/>
	<path class="st0" d="M125.4,52.4c-1.9,1.8-3.9,3.5-5.7,5.1c-10.5,8.9-16.4,22-16.3,35.3h41.8V52.4H125.4z"/>
	<path class="st0" d="M25.5,57.4c-1.9-1.6-3.8-3.3-5.7-5H0v40.3h41.8C41.8,79.4,35.9,66.3,25.5,57.4z"/>
</g>
<g>
	<path class="st1" d="M124.5,38.5c-14.8,6.2-29.1,9.8-38.9,11.7C77,52,68.1,52,59.5,50.2c-9.8-1.9-24.1-5.5-38.9-11.7
		c-2.5-1.1-4.7,2.2-2.7,4.1c3.3,3.2,7.2,6.8,11.4,10.4C43.2,64.8,50,83.1,46.9,101.1c-0.1,0.5-0.2,1.1-0.3,1.7l-3.7,26.9
		c-0.6,4,4.9,5.7,6.8,2.1c7.1-14.1,16.5-30.3,22.9-31.8c6.3,1.5,15.7,17.7,22.9,31.8c1.8,3.6,7.3,1.9,6.8-2.1l-3.7-26.9
		c-0.1-0.7-0.2-1.4-0.4-2c-3-17.9,3.9-36,17.7-47.8c4.2-3.6,8.1-7.2,11.4-10.4C129.2,40.7,127.1,37.5,124.5,38.5z"/>
	<circle class="st1" cx="72.6" cy="26.6" r="15.3"/>
</g>
<g>
	<path class="st0" d="M192.3,57.9c-5.5-0.1-9.6-4.6-9.6-10.6c0-6.4,3.9-10.7,9.6-10.7c4.1,0,6.9,1.8,8.3,5.3h8
		c-1.7-9.3-9.8-12.6-16.3-12.6c-8.6,0-18,5.6-18,18c0.1,12.3,9.3,17.9,17.9,17.9h0.1c7,0,14.9-3.5,16.5-13.1h-8
		C199.8,55.7,196.6,57.9,192.3,57.9z"/>
	<polygon class="st0" points="224.3,29.7 216,29.7 216,64.8 218.5,64.8 237.6,46.1 237.6,64.8 246,64.8 246,29.5 243.5,29.5 
		224.3,48.3 	"/>
	<path class="st0" d="M304.8,47.3c0-12.6-9.4-18.3-18-18.3c-6.6,0-15.2,3.5-17.4,13.4l-0.1,0.5h-5.8V29.7h-8.3v35.1h8.3V50.2h5.6
		l0.1,0.5c1.6,10.2,10,14.8,17.7,14.8C295.4,65.5,304.8,59.8,304.8,47.3z M286.8,57.7c-4.7,0-9.7-3.3-9.7-10.5
		c0-7.1,5-10.4,9.7-10.4s9.7,3.2,9.7,10.4C296.5,54.5,291.4,57.7,286.8,57.7z"/>
	<polygon class="st0" points="338.7,30.3 338.7,29.7 330.1,29.7 324.3,39.1 323.3,39.1 323.3,39 317.6,29.7 308.9,29.7 308.9,30.3 
		319.5,46.1 319.4,46.3 307.6,64.1 307.6,64.8 316.7,64.8 323.3,53.4 324.3,53.4 331,64.8 340,64.8 340,64.1 328.1,46.1 	"/>
	<path class="st0" d="M379,47.3c0-12.5-9.3-18.2-18-18.2c-8.7,0-18,5.7-18,18.2c0,12.5,9.3,18.3,18,18.3
		C369.7,65.5,379,59.8,379,47.3z M361,57.7c-4.7,0-9.7-3.3-9.7-10.5c0-7.1,5-10.4,9.7-10.4c4.7,0,9.7,3.2,9.7,10.4
		C370.7,54.5,365.7,57.7,361,57.7z"/>
	<path class="st0" d="M413,53.9c0-3.2-1.4-5.5-4-6.9l-0.8-0.4l0.7-0.6c1.6-1.3,2.6-3.7,2.6-5.8c0-5.9-4.7-10.5-10.7-10.5h-14.9v35.1
		h16.4C408.7,64.8,412.9,60.5,413,53.9z M393.7,36.8h6.4c2.2,0,3.4,1.8,3.4,3.5c0,0.9-0.3,1.7-0.8,2.4c-0.6,0.7-1.5,1.1-2.5,1.1
		h-6.4V36.8z M401.7,57.7h-8v-7.4h7.9c2.2,0,3.4,1.9,3.4,3.7C405,55.8,404,57.7,401.7,57.7z"/>
	<path class="st0" d="M448.4,29.7h-15.4v35.1h8.1v-9.3h7.3c8.5,0,12.4-6.7,12.4-12.9C460.9,36.4,457,29.7,448.4,29.7z M448.4,48.3
		h-7.2V36.8h0.6c0.5,0,1,0,1.6,0l0.6,0c1.5,0,3,0,4.5,0c3.1,0,4.5,3,4.5,5.7C452.9,45.4,451.3,48.3,448.4,48.3z"/>
	<polygon class="st0" points="479.7,43.1 479.6,42.9 472.8,29.7 463.4,29.7 463.4,30.3 475.7,52.7 475.7,52.8 470,64.5 470,64.8 
		479,64.8 496,30.4 496,29.7 486.9,29.7 480.7,43.1 	"/>
	<path class="st0" d="M516.7,57.9c-5.5-0.1-9.6-4.6-9.6-10.6c0-6.4,3.9-10.7,9.6-10.7c4.1,0,6.9,1.8,8.3,5.3h8
		c-1.7-9.3-9.8-12.6-16.3-12.6c-8.6,0-18,5.6-18,18c0.1,12.3,9.3,17.9,17.9,17.9h0.1c7,0,14.9-3.5,16.5-13.1h-8
		C524.1,55.7,520.9,57.9,516.7,57.9z"/>
	<polygon class="st0" points="551.9,29.2 535.8,64.1 535.8,64.8 543.8,64.8 553.4,42.6 563.2,64.8 571.2,64.8 571.2,64.1 
		555.1,29.2 	"/>
	<path class="st0" d="M589.6,29.2l-16.1,34.9v0.6h8.1l2.1-4.6h15.1l2.1,4.6h8.1v-0.6l-16.2-34.9H589.6z M586.2,53.5l5-11.6l5.1,11.6
		H586.2z"/>
	<polygon class="st0" points="634.4,42.8 622,42.8 622,29.7 613.7,29.7 613.7,64.8 622,64.8 622,50.2 634.4,50.2 634.4,64.8 
		642.7,64.8 642.7,29.7 634.4,29.7 	"/>
</g>
<g>
	<polygon class="st0" points="200.9,80.3 192.6,80.3 192.6,108 182.6,108 182.6,80.3 174.3,80.3 174.3,115.4 219.1,115.4 
		219.1,80.3 210.8,80.3 210.8,108 200.9,108 	"/>
	<polygon class="st0" points="240.2,93.7 240.1,93.5 233.3,80.3 223.9,80.3 223.9,81 236.2,103.3 236.2,103.4 230.4,115.1 
		230.4,115.4 239.5,115.4 256.5,81 256.5,80.3 247.4,80.3 241.2,93.7 	"/>
	<polygon class="st0" points="278.2,96 263.9,80.2 261.3,80.2 261.3,115.4 269.6,115.4 269.6,98.3 278.1,107.3 278.7,107.3 
		287.2,98.3 287.2,115.4 295.5,115.4 295.5,80.2 293.1,80.2 278.3,96.3 	"/>
	<path class="st0" d="M316.2,79.9l-16.1,34.9v0.6h8.1l2.1-4.6h15.1l2.1,4.6h8.1v-0.6l-16.2-34.9H316.2z M312.8,104.1l5-11.6
		l5.1,11.6H312.8z"/>
	<path class="st0" d="M379.8,97.8c0-9.3-5.5-14.2-16.5-14.6l-0.6,0v-3H355v3l-0.6,0c-10.9,0.4-16.5,5.3-16.5,14.6
		c0,9.4,5.6,14.3,16.5,14.7l0.6,0v3h7.6v-3l0.6,0C374.3,112.1,379.8,107.2,379.8,97.8z M355.2,105.2l-0.6,0
		c-5.5-0.3-8.3-2.8-8.3-7.3c0-4.6,2.8-7.1,8.3-7.3l0.6,0V105.2z M362.6,105.2V90.5l0.6,0c5.5,0.2,8.3,2.7,8.3,7.3
		c0,4.6-2.8,7-8.3,7.3L362.6,105.2z"/>
	<path class="st0" d="M420.5,97.9c0-12.5-9.3-18.2-18-18.2s-18,5.7-18,18.2c0,12.5,9.3,18.3,18,18.3S420.5,110.5,420.5,97.9z
		 M402.5,108.4c-4.7,0-9.7-3.3-9.7-10.5c0-7.1,5-10.4,9.7-10.4c4.7,0,9.7,3.2,9.7,10.4C412.2,105.1,407.2,108.4,402.5,108.4z"/>
	<path class="st0" d="M450.4,97.7l-0.8-0.4l0.7-0.6c1.5-1.3,2.6-3.7,2.6-5.8c0-5.9-4.7-10.5-10.7-10.5h-14.9v35.1h16.4
		c6.4,0,10.6-4.3,10.7-10.9C454.5,101.4,453.1,99,450.4,97.7z M435.1,87.4h6.4c2.2,0,3.4,1.8,3.4,3.5c0,0.9-0.3,1.7-0.8,2.4
		c-0.6,0.7-1.5,1.1-2.5,1.1h-6.4V87.4z M443.2,108.3h-8V101h7.9c2.2,0,3.4,1.9,3.4,3.7C446.5,106.5,445.5,108.3,443.2,108.3z"/>
	<polygon class="st0" points="470,80.3 461.7,80.3 461.7,115.5 464.2,115.5 483.3,96.8 483.3,115.4 491.7,115.4 491.7,80.2 
		489.1,80.2 470,98.9 	"/>
	<path class="st0" d="M518.3,95.1h-2.4c-7.7,0-8.3-4.7-8.3-11v-3.9h-8.3v3.9c0,13,5,18.6,16.6,18.6h2.5v12.6h8.2V80.3h-8.2V95.1z"/>
</g>
</svg>
