<svg xmlns="http://www.w3.org/2000/svg" viewBox="0 0 338 440" width="338" height="440">
	<defs>
		<clipPath clipPathUnits="userSpaceOnUse" id="cp1">
			<path d="M0 0L337 0L337 439L0 439Z" />
		</clipPath>
	</defs>
	<style>
		tspan { white-space:pre }
		.shp0 { fill: #ffffff } 
		.shp1 { fill: #00223a } 
		.shp2 { fill: #00afd9 } 
		.shp3 { fill: #6c7a89 } 
		.shp4 { fill: #ec644b } 
		.shp5 { opacity: 0.502;mix-blend-mode: soft-light;fill: #ffffff } 
		.shp6 { fill: #dadfe1 } 
		.shp7 { mix-blend-mode: soft-light;fill: #ffffff } 
		.shp8 { opacity: 0.502;mix-blend-mode: multiply;fill: #dadfe1 } 
		.shp9 { fill: #bdc3c7 } 
	</style>
	<g id="Page 1" clip-path="url(#cp1)">
		<path id="Path 1" class="shp0" d="M168.51,439l6.54,-3.02c40.92,-18.89 82.03,-37.48 121.71,-58.9c38.66,-20.86 37.34,-55.71 39.06,-94.72c2.71,-61.61 0.02,-123.33 0.02,-184.97v-10.93l-10.27,-3.73c-30.17,-10.95 -61.04,-22.35 -92.01,-30.79c-22.84,-6.22 -45.65,-10.52 -69.41,-10.27c-22.81,0.24 -44.69,4.67 -66.55,10.93c-29.11,8.34 -58.05,19.45 -86.35,30.21l-10.05,3.82v10.75c0,61.64 -2.69,123.36 0.01,184.97c1.72,39.01 0.4,73.86 39.06,94.72c39.68,21.42 80.79,40 121.71,58.9z" />
		<path id="Path 2" class="shp1" d="M16.78,97.4c0,62.09 -2.66,123.81 0,184.28c1.97,44.9 2.34,66.29 30.88,81.69c38.71,20.89 77.82,38.6 120.84,58.46c43.02,-19.86 82.13,-37.57 120.84,-58.46c28.55,-15.4 28.91,-36.79 30.89,-81.69c2.66,-60.47 0,-122.19 0,-184.28c-146.86,-53.34 -162.22,-53.69 -303.45,0z" />
		<path id="Path 3" class="shp0" d="M28.54,347.06c4.31,6.33 10.4,11.6 19.13,16.31c38.71,20.89 77.82,38.6 120.84,58.46c43.02,-19.86 82.13,-37.57 120.84,-58.46c8.73,-4.71 14.82,-9.98 19.13,-16.31c-40.61,-18.43 -88.57,-29.09 -139.97,-29.09c-51.4,0 -99.36,10.66 -139.97,29.09z" />
		<path id="Path 4" class="shp2" d="M38.93,357.81c2.58,1.95 5.47,3.79 8.74,5.56c38.71,20.89 77.82,38.6 120.84,58.46c43.02,-19.86 82.13,-37.57 120.84,-58.46c3.27,-1.77 6.17,-3.61 8.74,-5.56c-37.81,-16.29 -82.16,-25.67 -129.58,-25.67c-47.43,0 -91.78,9.38 -129.58,25.67z" />
		<path id="Path 5" class="shp0" d="M32.91,129.78l-5.38,2.3l5.54,2.45l2.3,5.38l2.45,-5.54l5.38,-2.3l-5.54,-2.45l-2.3,-5.38zM38.55,269.92l-5.38,2.3l5.54,2.45l2.3,5.38l2.45,-5.54l5.38,-2.3l-5.54,-2.45l-2.3,-5.38zM280.26,199.19l-5.38,2.3l5.54,2.45l2.3,5.38l2.45,-5.54l5.38,-2.3l-5.54,-2.45l-2.3,-5.38zM296.2,124.82l-3.26,1.39l3.36,1.48l1.39,3.26l1.48,-3.35l3.26,-1.39l-3.35,-1.49l-1.39,-3.26zM299.17,284.28l-5.38,2.3l5.54,2.45l2.3,5.39l2.45,-5.54l5.38,-2.3l-5.54,-2.45l-2.3,-5.38zM98.85,225.82l-3.26,1.39l3.35,1.48l1.39,3.26l1.48,-3.35l3.26,-1.39l-3.35,-1.48l-1.39,-3.26z" />
		<path id="Path 6" class="shp3" d="M267.23,218.95l-26.23,-143.52l-6.07,1.11l26.23,143.52zM101.09,76.35l-5.07,-0.91l-0.43,2.39l-25.34,138.65l-0.27,1.49l-0.18,0.96l3.46,0.64l2.6,0.48l0.34,-1.89l25.34,-138.6l0.01,-0.04l0.08,-0.46l0.46,-2.53z" />
		<path id="Path 7" class="shp4" d="M71.29,216.42c-0.35,0 -0.71,0.03 -1.05,0.07c-3.76,0.5 -6.67,3.74 -6.67,7.65c0,4.27 3.45,7.72 7.72,7.72c4.27,0 7.72,-3.45 7.72,-7.72c0,-2.39 -1.09,-4.54 -2.81,-5.97c-1.32,-1.1 -3.03,-1.75 -4.91,-1.75zM265.73,216.42c-4.26,0 -7.71,3.46 -7.72,7.72c0,4.26 3.45,7.72 7.72,7.72c4.26,0 7.72,-3.45 7.72,-7.72c0,-4.26 -3.45,-7.72 -7.72,-7.72z" />
		<path id="Path 8" class="shp5" d="M69.74,217.97c-2.56,0 -4.63,2.07 -4.63,4.63c0,2.56 2.07,4.63 4.63,4.63c2.56,0 4.63,-2.07 4.63,-4.63c0,-2.56 -2.07,-4.63 -4.63,-4.63zM264.19,217.97c-2.56,0 -4.63,2.07 -4.63,4.63c0,2.56 2.07,4.63 4.63,4.63c2.56,0 4.63,-2.07 4.63,-4.63c0,-2.56 -2.07,-4.63 -4.63,-4.63z" />
		<path id="Path 9" class="shp6" d="M214.82,18.61c-0.29,-0.26 -0.56,-0.5 -0.84,-0.76l-0.12,-0.12c-0.54,-0.49 -1.1,-0.97 -1.66,-1.44c-0.73,-0.62 -1.49,-1.22 -2.24,-1.81c-1.35,-1.05 -2.73,-2.02 -4.14,-2.95c-0.45,-0.31 -0.9,-0.6 -1.37,-0.88c-5.33,-3.34 -11.02,-5.86 -16.91,-7.56c-0.71,-0.22 -1.43,-0.42 -2.15,-0.6c-0.23,-0.07 -0.46,-0.11 -0.69,-0.18h-0.03c-1.79,-0.44 -3.62,-0.82 -5.45,-1.1c-0.78,-0.12 -1.56,-0.23 -2.34,-0.33c-0.07,-0.01 -0.16,-0.03 -0.24,-0.03c-0.87,-0.11 -1.74,-0.19 -2.6,-0.26c-0.92,-0.08 -1.82,-0.14 -2.74,-0.16c-2.01,-0.08 -4.02,-0.08 -6.05,0.01c-0.72,0.04 -1.44,0.08 -2.16,0.15c-0.84,0.06 -1.68,0.14 -2.53,0.24l-0.45,0.04c-0.76,0.11 -1.54,0.2 -2.3,0.34c-1.02,0.15 -2.01,0.33 -2.99,0.54c-0.82,0.16 -1.63,0.35 -2.45,0.54c-0.04,0.01 -0.07,0.01 -0.12,0.01c-0.01,0.01 -0.04,0.01 -0.05,0.03c-0.72,0.18 -1.45,0.37 -2.19,0.59c-1.05,0.29 -2.07,0.6 -3.06,0.94c-1.75,0.58 -3.48,1.22 -5.19,1.96c-0.92,0.41 -1.82,0.82 -2.72,1.25c-0.72,0.34 -1.43,0.69 -2.12,1.06c-0.11,0.05 -0.22,0.11 -0.31,0.18c-0.8,0.42 -1.59,0.86 -2.38,1.32c-4.91,2.87 -9.54,6.41 -13.74,10.61c-10.5,10.5 -16.84,23.58 -19.03,37.21c-0.08,0.52 -0.16,1.03 -0.22,1.55c-0.2,1.45 -0.35,2.91 -0.48,4.39c-0.11,1.6 -0.18,3.25 -0.18,4.88c0,0.33 0.01,0.67 0.03,0.98c-0.01,0.77 0.01,1.54 0.05,2.28c0,0.05 0,0.14 0.01,0.2c0.04,1.02 0.12,2.02 0.22,3.04c0.04,0.37 0.08,0.73 0.12,1.1c0,0.16 0.03,0.33 0.05,0.46c0,0.03 -0.01,0.04 0,0.05c0.08,0.71 0.18,1.4 0.29,2.11c0.03,0.19 0.05,0.38 0.1,0.56c0.01,0.18 0.04,0.34 0.07,0.5c0.1,0.56 0.19,1.12 0.31,1.67c0.2,1.15 0.46,2.28 0.75,3.41c0.11,0.43 0.22,0.87 0.35,1.3c0,0.03 0,0.05 0.01,0.07c0.19,0.73 0.41,1.47 0.63,2.2c0.03,0.05 0.03,0.11 0.05,0.16c0.3,0.95 0.61,1.92 0.95,2.85c0.05,0.16 0.12,0.31 0.18,0.47c0.34,0.94 0.72,1.86 1.1,2.79c3.3,7.92 8.18,15.33 14.62,21.77c4.21,4.21 8.83,7.75 13.73,10.63h0.03c0.33,0.19 0.65,0.38 0.96,0.56c0.14,0.08 0.27,0.16 0.42,0.23c0.44,0.24 0.86,0.48 1.3,0.71c0.15,0.09 0.31,0.18 0.46,0.24c0.53,0.29 1.07,0.56 1.63,0.82c1.44,0.71 2.91,1.33 4.39,1.92c0.77,0.31 1.53,0.61 2.32,0.88c2.16,0.77 4.38,1.44 6.59,1.97c0.87,0.22 1.71,0.41 2.58,0.57c0.9,0.19 1.79,0.35 2.7,0.5c0.91,0.15 1.82,0.27 2.72,0.38c0.03,0 0.04,0.01 0.04,0.01c0.91,0.1 1.79,0.19 2.71,0.26c0.77,0.07 1.56,0.12 2.34,0.16c1.06,0.03 2.09,0.05 3.13,0.05c0.92,0 1.83,-0.01 2.74,-0.05c0.09,0.01 0.19,0 0.3,0c0.8,-0.04 1.63,-0.08 2.45,-0.16c0.87,-0.08 1.73,-0.18 2.6,-0.26c0.04,-0.01 0.08,-0.03 0.14,-0.03c0.9,-0.11 1.81,-0.23 2.72,-0.38c0.91,-0.15 1.81,-0.31 2.71,-0.5c0.83,-0.18 1.66,-0.35 2.49,-0.56c0.07,-0.01 0.12,-0.04 0.19,-0.06c0.76,-0.19 1.52,-0.38 2.26,-0.6c0.24,-0.05 0.49,-0.13 0.72,-0.2c0.73,-0.22 1.44,-0.44 2.17,-0.68c0.99,-0.34 1.97,-0.69 2.95,-1.07c0.82,-0.3 1.6,-0.63 2.39,-0.98c0.86,-0.37 1.7,-0.75 2.54,-1.16c0.73,-0.35 1.47,-0.71 2.17,-1.09c0.99,-0.53 1.96,-1.06 2.93,-1.63c0.65,-0.38 1.31,-0.79 1.96,-1.2c0.3,-0.19 0.61,-0.39 0.9,-0.6c0.56,-0.37 1.13,-0.75 1.68,-1.14c0.82,-0.57 1.6,-1.17 2.41,-1.78c0.75,-0.58 1.51,-1.18 2.24,-1.81c0.56,-0.47 1.11,-0.95 1.66,-1.44l0.12,-0.12c0.28,-0.26 0.56,-0.5 0.84,-0.76c0.57,-0.54 1.14,-1.09 1.7,-1.64c6.44,-6.44 11.32,-13.85 14.62,-21.77c0.38,-0.92 0.76,-1.85 1.1,-2.79c0.07,-0.15 0.12,-0.31 0.18,-0.47c0.34,-0.94 0.65,-1.9 0.95,-2.85c0.03,-0.06 0.04,-0.12 0.06,-0.16c0.22,-0.73 0.43,-1.47 0.62,-2.2c0.01,-0.01 0.01,-0.04 0.01,-0.07c0.14,-0.43 0.24,-0.87 0.35,-1.3c0.27,-1.14 0.53,-2.27 0.75,-3.41c0.12,-0.56 0.22,-1.12 0.31,-1.67c0.03,-0.16 0.05,-0.33 0.07,-0.5c0.03,-0.19 0.07,-0.37 0.1,-0.56c0.11,-0.71 0.2,-1.4 0.29,-2.11c0.01,-0.01 0,-0.03 0,-0.05c0.03,-0.16 0.04,-0.31 0.05,-0.46c0.04,-0.37 0.08,-0.73 0.12,-1.1c0.1,-1.02 0.18,-2.02 0.22,-3.04c0.01,-0.07 0.01,-0.15 0.01,-0.2c0.04,-0.75 0.07,-1.51 0.05,-2.28c0.05,-1.96 -0.01,-3.93 -0.15,-5.86c-0.12,-1.48 -0.27,-2.94 -0.48,-4.39c-0.05,-0.52 -0.12,-1.02 -0.2,-1.54c-2.2,-13.62 -8.53,-26.72 -19.04,-37.22c-0.56,-0.56 -1.13,-1.1 -1.7,-1.65zM195.3,59.01h-3.8h-27.34h-52.37h-10.52c-0.2,1.45 -0.35,2.91 -0.48,4.39c-0.11,1.6 -0.18,3.25 -0.18,4.88c0,0.33 0.01,0.67 0.03,0.98c-0.01,0.77 0.01,1.54 0.05,2.28c0,0.05 0,0.14 0.01,0.2c0.04,1.02 0.12,2.02 0.22,3.04c0.04,0.37 0.08,0.73 0.12,1.1c0,0.16 0.03,0.33 0.05,0.46c0,0.03 -0.01,0.04 0,0.06c0.08,0.71 0.18,1.4 0.29,2.11c0.03,0.19 0.05,0.38 0.1,0.56c0.01,0.15 0.04,0.31 0.08,0.46c0.08,0.57 0.18,1.15 0.3,1.71c0.2,1.16 0.46,2.28 0.75,3.41c0.11,0.44 0.22,0.87 0.35,1.3c0,0.03 0,0.05 0.01,0.07c0.19,0.73 0.41,1.47 0.63,2.2c0.03,0.05 0.03,0.11 0.05,0.16c0.3,0.95 0.61,1.92 0.95,2.85c0.06,0.16 0.12,0.31 0.18,0.48c0.34,0.94 0.72,1.86 1.1,2.79h41.18h18.37h6.17h14.46h45.09c0.38,-0.92 0.76,-1.85 1.1,-2.79c0.07,-0.15 0.12,-0.31 0.18,-0.48c0.34,-0.94 0.65,-1.9 0.95,-2.85c0.03,-0.06 0.04,-0.12 0.05,-0.16c0.22,-0.73 0.43,-1.47 0.62,-2.2c0.01,-0.01 0.01,-0.04 0.01,-0.07c0.14,-0.43 0.25,-0.87 0.35,-1.3c0.27,-1.14 0.53,-2.27 0.75,-3.41c0.12,-0.56 0.22,-1.14 0.3,-1.71c0.04,-0.15 0.07,-0.31 0.08,-0.46c0.03,-0.19 0.07,-0.37 0.09,-0.56c0.11,-0.71 0.21,-1.4 0.29,-2.11c0.01,-0.01 0,-0.03 0,-0.06c0.03,-0.16 0.04,-0.31 0.05,-0.46c0.04,-0.37 0.08,-0.73 0.12,-1.1c0.1,-1.02 0.18,-2.02 0.22,-3.04c0.01,-0.07 0.01,-0.15 0.01,-0.2c0.04,-0.75 0.07,-1.51 0.05,-2.28c0.05,-1.96 -0.01,-3.93 -0.15,-5.86c-0.12,-1.48 -0.27,-2.94 -0.48,-4.39z" />
		<path id="Path 10" class="shp7" d="M118.31,48.63c-10.85,10.85 -10.85,28.43 0,39.28c10.85,10.85 28.44,10.85 39.28,0c10.85,-10.85 10.85,-28.43 0,-39.28c-10.85,-10.85 -28.44,-10.85 -39.28,0z" />
		<path id="Path 11" class="shp8" d="M214.82,18.61c-0.29,-0.26 -0.56,-0.5 -0.84,-0.76l-0.12,-0.12c-0.54,-0.49 -1.1,-0.97 -1.66,-1.44c-0.73,-0.62 -1.49,-1.22 -2.24,-1.81c-1.35,-1.05 -2.73,-2.02 -4.14,-2.95c-0.45,-0.31 -0.9,-0.6 -1.37,-0.88c-5.33,-3.34 -11.02,-5.86 -16.91,-7.56c-0.71,-0.22 -1.43,-0.42 -2.15,-0.6c-0.23,-0.07 -0.46,-0.11 -0.69,-0.18h-0.03c-1.79,-0.44 -3.62,-0.82 -5.45,-1.1c-0.78,-0.12 -1.56,-0.23 -2.34,-0.33c-0.07,-0.01 -0.16,-0.03 -0.24,-0.03c-0.87,-0.11 -1.74,-0.19 -2.6,-0.26c-0.92,-0.08 -1.82,-0.14 -2.74,-0.16c-2.01,-0.08 -4.02,-0.08 -6.05,0.01c-0.72,0.04 -1.44,0.08 -2.16,0.15c-0.84,0.06 -1.68,0.14 -2.53,0.24l-0.45,0.04c-0.76,0.11 -1.54,0.2 -2.3,0.34c-1.02,0.15 -2.01,0.33 -2.99,0.54c-0.82,0.16 -1.63,0.35 -2.45,0.54c-0.04,0.01 -0.07,0.01 -0.12,0.01c-0.01,0.01 -0.04,0.01 -0.05,0.03c-0.72,0.18 -1.45,0.37 -2.19,0.59c-1.05,0.29 -2.07,0.6 -3.06,0.94c-1.75,0.58 -3.49,1.24 -5.19,1.96c-0.92,0.41 -1.82,0.82 -2.72,1.25c-0.72,0.34 -1.43,0.69 -2.12,1.06c-0.11,0.05 -0.22,0.11 -0.31,0.18c-0.8,0.42 -1.59,0.86 -2.38,1.32c14.79,0.16 29.53,5.88 40.81,17.16c8.68,8.68 14.09,19.42 16.17,30.66c0.03,0.03 0.01,0.07 0.01,0.12c0.11,0.46 0.19,0.95 0.26,1.43c0.56,3.38 0.79,6.82 0.73,10.25c-0.07,3.25 -0.38,6.5 -0.97,9.72c-0.03,0.03 -0.03,0.06 -0.01,0.09l-0.01,0.01c-0.99,5.31 -2.72,10.49 -5.18,15.42c-2.74,5.49 -6.41,10.65 -10.99,15.23c-1.13,1.13 -2.27,2.19 -3.47,3.19c-1.97,1.7 -4.04,3.22 -6.17,4.59c-9.47,6.13 -20.3,9.24 -31.17,9.38h-0.03c0.33,0.19 0.65,0.38 0.99,0.56c0.14,0.08 0.27,0.16 0.42,0.23c0.44,0.24 0.86,0.48 1.3,0.71c0.15,0.09 0.31,0.18 0.46,0.24c0.53,0.29 1.07,0.56 1.63,0.82c1.44,0.71 2.91,1.33 4.39,1.92c0.77,0.31 1.53,0.61 2.32,0.88c2.16,0.77 4.38,1.44 6.59,1.97c0.87,0.22 1.71,0.41 2.58,0.57c0.9,0.19 1.79,0.35 2.7,0.5c0.91,0.15 1.82,0.27 2.72,0.38c0.03,0 0.04,0.01 0.04,0.01c0.91,0.1 1.79,0.19 2.71,0.26c0.77,0.07 1.55,0.11 2.34,0.13c1.03,0.06 2.09,0.08 3.13,0.08c0.92,0 1.83,-0.01 2.74,-0.05c0.11,0 0.2,-0.01 0.3,-0.03c0.82,-0.03 1.63,-0.08 2.45,-0.13c0.87,-0.08 1.73,-0.18 2.6,-0.26c0.04,-0.01 0.08,-0.03 0.14,-0.03c0.9,-0.11 1.81,-0.23 2.72,-0.38c0.91,-0.15 1.81,-0.31 2.71,-0.5c0.83,-0.18 1.66,-0.35 2.49,-0.56c0.07,-0.01 0.12,-0.04 0.19,-0.06c0.76,-0.19 1.52,-0.38 2.26,-0.6c0.24,-0.05 0.49,-0.13 0.72,-0.2c0.73,-0.22 1.44,-0.44 2.17,-0.68c0.99,-0.34 1.97,-0.69 2.95,-1.07c0.82,-0.3 1.6,-0.63 2.39,-0.98c0.86,-0.37 1.7,-0.75 2.54,-1.16c0.73,-0.35 1.47,-0.71 2.17,-1.09c0.99,-0.53 1.96,-1.06 2.93,-1.63c0.65,-0.38 1.31,-0.79 1.96,-1.2c0.3,-0.19 0.61,-0.39 0.9,-0.6c0.56,-0.37 1.13,-0.75 1.68,-1.14c0.82,-0.57 1.6,-1.17 2.41,-1.78c0.75,-0.58 1.51,-1.18 2.24,-1.81c0.56,-0.47 1.11,-0.95 1.66,-1.44l0.12,-0.12c0.28,-0.26 0.56,-0.5 0.84,-0.76c0.57,-0.54 1.14,-1.09 1.7,-1.64c6.44,-6.44 11.32,-13.85 14.62,-21.77c0.38,-0.92 0.76,-1.85 1.1,-2.79c0.07,-0.15 0.12,-0.31 0.18,-0.47c0.34,-0.94 0.65,-1.9 0.95,-2.85c0.03,-0.06 0.04,-0.12 0.06,-0.16c0.22,-0.73 0.43,-1.47 0.62,-2.2c0.01,-0.01 0.01,-0.04 0.01,-0.07c0.14,-0.43 0.24,-0.87 0.35,-1.3c0.27,-1.14 0.53,-2.27 0.75,-3.41c0.12,-0.56 0.22,-1.12 0.31,-1.67c0.03,-0.16 0.05,-0.33 0.07,-0.5c0.03,-0.19 0.07,-0.37 0.1,-0.56c0.11,-0.71 0.2,-1.4 0.29,-2.11c0.01,-0.01 0,-0.03 0,-0.05c0.03,-0.16 0.04,-0.31 0.05,-0.46c0.04,-0.37 0.08,-0.73 0.12,-1.1c0.1,-1.02 0.18,-2.02 0.22,-3.04c0.01,-0.07 0.01,-0.15 0.01,-0.2c0.04,-0.75 0.07,-1.51 0.05,-2.28c0.05,-1.96 -0.01,-3.93 -0.15,-5.86c-0.12,-1.48 -0.27,-2.94 -0.48,-4.39c-0.05,-0.52 -0.12,-1.02 -0.2,-1.54c-2.2,-13.62 -8.53,-26.72 -19.04,-37.22c-0.56,-0.56 -1.13,-1.1 -1.7,-1.65z" />
		<path id="Path 12" class="shp3" d="M165.43,72.9v6.17v38.46v18.56v0.03v128.15h6.17v-5.55v-122.63v-23.16v-18.43v-15.44v-6.17z" />
		<path id="Path 13" class="shp4" d="M171.6,258.72c-0.94,-0.42 -1.97,-0.64 -3.09,-0.64c-1.11,0 -2.15,0.22 -3.09,0.64c-2.73,1.18 -4.63,3.9 -4.63,7.08c0,0.68 0.08,1.33 0.24,1.96c0.87,3.32 3.89,5.76 7.47,5.76c3.59,0 6.61,-2.45 7.47,-5.76c0.16,-0.63 0.24,-1.28 0.24,-1.96c0,-3.18 -1.9,-5.9 -4.63,-7.08z" />
		<path id="Path 14" class="shp5" d="M166.97,259.63c-2.56,0 -4.63,2.07 -4.63,4.63c0,2.56 2.07,4.63 4.63,4.63c2.56,0 4.63,-2.07 4.63,-4.63c0,-2.56 -2.07,-4.63 -4.63,-4.63z" />
		<path id="Path 15" class="shp9" d="M236.41,57.48h-0.84l-44.34,-0.01l-1.48,0.01h-26.2l-51.16,-0.01h-11.77c-4.2,0.01 -7.84,2.41 -9.62,5.9l0.01,0.01c-0.04,0.04 -0.07,0.09 -0.08,0.16c-0.18,0.31 -0.31,0.64 -0.42,0.96c-0.13,0.33 -0.24,0.68 -0.33,1.03c-0.04,0.1 -0.05,0.19 -0.08,0.27c-0.08,0.33 -0.14,0.65 -0.18,0.99c-0.01,0.07 -0.03,0.14 -0.03,0.22c-0.05,0.41 -0.08,0.82 -0.08,1.25c0,4.16 2.34,7.77 5.79,9.57c1.49,0.79 3.19,1.24 5.02,1.24h11.77h51.15h26.5l1.21,0.01l0.01,-0.01h45.17c1.81,-0.01 3.52,-0.45 5,-1.25c3.45,-1.79 5.79,-5.41 5.79,-9.54c0,-0.38 -0.03,-0.76 -0.05,-1.14c-0.03,-0.27 -0.07,-0.53 -0.14,-0.79c0,-0.14 -0.03,-0.24 -0.05,-0.35c-0.04,-0.2 -0.08,-0.38 -0.14,-0.57c-0.08,-0.3 -0.18,-0.58 -0.28,-0.88c0,-0.03 -0.01,-0.04 -0.03,-0.08c-0.15,-0.37 -0.3,-0.73 -0.49,-1.09c-1.77,-3.51 -5.41,-5.9 -9.62,-5.9zM236.41,57.48h-0.84l-44.34,-0.01l-1.48,0.01c0.52,0 1.01,0.03 1.49,0.11c1.47,0.19 2.84,0.69 4.06,1.43c3.14,1.89 5.25,5.33 5.25,9.27c0,0.33 0,0.65 -0.03,0.98c-0.46,5 -4.34,9.01 -9.25,9.72c-0.41,0.05 -0.83,0.1 -1.24,0.1l1.21,0.01l0.01,-0.01h45.17c1.81,-0.01 3.52,-0.45 5,-1.25c3.45,-1.79 5.79,-5.41 5.79,-9.54c0,-0.38 -0.03,-0.76 -0.05,-1.14c-0.03,-0.27 -0.07,-0.53 -0.14,-0.79c0,-0.14 -0.03,-0.24 -0.05,-0.35c-0.04,-0.2 -0.08,-0.38 -0.14,-0.57c-0.08,-0.3 -0.18,-0.58 -0.28,-0.88c0,-0.03 -0.01,-0.04 -0.03,-0.08c-0.15,-0.37 -0.3,-0.73 -0.49,-1.09c-1.77,-3.51 -5.41,-5.9 -9.62,-5.9zM236.42,69.26h-0.03h-35.88h-8.29h-82.03h-9.57h-0.03c-4.18,0 -7.8,-2.39 -9.61,-5.88l-0.01,-0.01c-0.03,0.06 -0.06,0.11 -0.07,0.18c-0.18,0.31 -0.31,0.64 -0.42,0.96c-0.13,0.33 -0.24,0.68 -0.33,1.03c-0.04,0.1 -0.05,0.19 -0.08,0.27c-0.08,0.33 -0.14,0.65 -0.18,0.99c-0.01,0.07 -0.03,0.14 -0.03,0.22c-0.05,0.41 -0.08,0.82 -0.08,1.25c0,4.16 2.34,7.77 5.79,9.57c1.49,0.79 3.19,1.24 5.02,1.24h11.77h51.15h26.5l1.21,0.01l0.01,-0.01h45.17c1.81,-0.01 3.52,-0.45 5,-1.25c3.45,-1.79 5.79,-5.41 5.79,-9.54c0,-0.38 -0.03,-0.76 -0.05,-1.14c-0.03,-0.27 -0.07,-0.53 -0.14,-0.79c0,-0.14 -0.03,-0.24 -0.05,-0.35c-0.04,-0.2 -0.08,-0.38 -0.14,-0.57c-0.08,-0.3 -0.18,-0.58 -0.28,-0.88c0,-0.03 -0.01,-0.04 -0.03,-0.08c-0.15,-0.37 -0.3,-0.73 -0.49,-1.09c-1.79,3.48 -5.42,5.88 -9.61,5.88z" />
	</g>
</svg>