<svg xmlns="http://www.w3.org/2000/svg" viewBox="0 0 512 366" width="512" height="366">
	<defs>
		<clipPath clipPathUnits="userSpaceOnUse" id="cp1">
			<path d="M0 1L512 1L512 366L0 366Z" />
		</clipPath>
	</defs>
	<style>
		tspan { white-space:pre }
		.shp0 { fill: #fff } 
	</style>
	<g id="Page 1" clip-path="url(#cp1)">
		<path id="Path 1" class="shp0" d="M500.49,11.11c-2.48,-0.95 -4.85,-1.43 -7.14,-1.43c-5.14,0 -9.42,1.81 -12.85,5.43l-115.06,114.78v-47.11c0,-22.65 -8.04,-42.02 -24.13,-58.1c-16.09,-16.08 -35.45,-24.13 -58.1,-24.13h-200.99c-22.65,0 -42.02,8.04 -58.1,24.13c-16.08,16.09 -24.12,35.45 -24.12,58.1v201c0,22.65 8.04,42.01 24.12,58.1c16.09,16.08 35.45,24.13 58.1,24.13h200.99c22.65,0 42.02,-8.04 58.1,-24.13c16.08,-16.08 24.13,-35.45 24.13,-58.1v-47.4l115.06,115.06c3.43,3.61 7.71,5.42 12.85,5.42c2.29,0 4.66,-0.48 7.14,-1.42c7.43,-3.24 11.14,-8.85 11.14,-16.84v-310.63c0,-8 -3.71,-13.61 -11.14,-16.85z" />
	</g>
</svg>