<svg xmlns="http://www.w3.org/2000/svg" viewBox="0 0 513 512" width="513" height="512">
	<defs>
		<clipPath clipPathUnits="userSpaceOnUse" id="cp1">
			<path d="M1 0L513 0L513 512L1 512Z" />
		</clipPath>
	</defs>
	<style>
		tspan { white-space:pre }
		.shp0 { fill: #fff } 
	</style>
	<g id="Page 1" clip-path="url(#cp1)">
		<path id="Path 1" class="shp0" d="M470.68,255.89c0,35.6 -9.34,72.83 -30.06,108.49c-83,139.44 -284.05,138.71 -366.61,0c-84.51,-145.39 20.72,-321.86 183.3,-321.86c118.4,0 213.37,96.75 213.37,213.37zM455.3,263.4h-20.89c-4.15,0 -7.51,-3.36 -7.51,-7.51c0,-4.15 3.36,-7.51 7.51,-7.51h20.9c-1.12,-30.6 -9.2,-59.46 -22.72,-85.02l-18.15,10.48c-1.18,0.68 -2.47,1.01 -3.75,1.01c-2.6,0 -5.12,-1.35 -6.51,-3.76c-2.07,-3.59 -0.84,-8.18 2.75,-10.26l18.15,-10.48c-15.82,-25.11 -37.12,-46.43 -62.2,-62.29l-10.51,18.2c-1.39,2.41 -3.92,3.76 -6.51,3.76c-1.27,0 -2.57,-0.32 -3.75,-1.01c-3.59,-2.07 -4.82,-6.67 -2.75,-10.26l10.52,-18.23c-25.56,-13.57 -54.43,-21.69 -85.06,-22.84v21.1c0,4.15 -3.36,7.51 -7.51,7.51c-4.15,0 -7.51,-3.36 -7.51,-7.51v-21.1c-30.63,1.15 -59.49,9.28 -85.06,22.84l10.52,18.23c2.07,3.59 0.84,8.18 -2.75,10.26c-1.18,0.68 -2.47,1.01 -3.75,1.01c-2.6,0 -5.12,-1.35 -6.51,-3.76l-10.51,-18.2c-25.09,15.85 -46.38,37.18 -62.2,62.29l18.15,10.48c3.59,2.07 4.82,6.67 2.75,10.26c-1.39,2.41 -3.91,3.76 -6.51,3.76c-1.27,0 -2.57,-0.32 -3.75,-1.01l-18.15,-10.48c-13.52,25.56 -21.61,54.41 -22.72,85.02h20.9c4.15,0 7.51,3.36 7.51,7.51c0,4.15 -3.36,7.51 -7.51,7.51h-20.89c1.18,30.58 9.31,59.4 22.87,84.92l17.99,-10.39c3.59,-2.07 8.18,-0.84 10.26,2.75c2.07,3.59 0.84,8.18 -2.75,10.26l-17.96,10.37c15.84,25.04 37.13,46.29 62.19,62.1l10.34,-17.91c2.07,-3.59 6.66,-4.82 10.26,-2.75c3.59,2.07 4.82,6.67 2.75,10.26l-10.35,17.92c25.52,13.51 54.33,21.6 84.88,22.75v-20.7c0,-4.15 3.36,-7.51 7.51,-7.51c4.15,0 7.51,3.36 7.51,7.51v20.7c30.55,-1.14 59.36,-9.24 84.88,-22.75l-10.35,-17.92c-2.07,-3.59 -0.85,-8.18 2.75,-10.26c3.59,-2.07 8.18,-0.84 10.26,2.75l10.34,17.91c25.06,-15.8 46.35,-37.06 62.19,-62.1l-17.96,-10.37c-3.59,-2.07 -4.82,-6.67 -2.75,-10.26c2.07,-3.59 6.67,-4.82 10.26,-2.75l17.99,10.39c13.56,-25.52 21.69,-54.35 22.87,-84.92zM371.35,255.89c0,1.99 -0.79,3.9 -2.2,5.31l-23.44,23.44c-1.47,1.46 -3.39,2.2 -5.31,2.2c-1.92,0 -3.84,-0.73 -5.31,-2.2c-2.93,-2.93 -2.93,-7.69 0,-10.62l10.52,-10.52h-52.5v8.45c0,10.77 -8.76,19.52 -19.52,19.52h-32.54c-10.77,0 -19.52,-8.76 -19.52,-19.52v-32.54c0,-10.77 8.76,-19.52 19.52,-19.52h8.76v-90.03l-10.52,10.52c-2.93,2.93 -7.69,2.93 -10.62,0c-2.93,-2.93 -2.93,-7.69 0,-10.62l23.44,-23.44c1.41,-1.41 3.32,-2.2 5.31,-2.2c1.99,0 3.9,0.79 5.31,2.2l23.44,23.44c2.93,2.93 2.93,7.69 0,10.62c-1.47,1.47 -3.39,2.2 -5.31,2.2c-1.92,0 -3.85,-0.73 -5.31,-2.2l-10.72,-10.72v90.24h8.76c10.77,0 19.52,8.76 19.52,19.52v9.06h52.71l-10.72,-10.72c-2.93,-2.93 -2.93,-7.69 0,-10.62c2.93,-2.93 7.69,-2.93 10.62,0l23.44,23.44c1.41,1.41 2.2,3.32 2.2,5.31zM278.09,239.42c0,-2.44 -2.06,-4.51 -4.51,-4.51h-32.54c-2.44,0 -4.51,2.06 -4.51,4.51v32.54c0,2.44 2.06,4.51 4.51,4.51h32.54c2.44,0 4.51,-2.06 4.51,-4.51zM506.01,245.66c-0.18,0.01 -0.36,0.02 -0.53,0.02c-3.91,0 -7.21,-3.03 -7.48,-6.99c-8.33,-119.19 -104.5,-215.35 -223.69,-223.69c-4.14,-0.29 -7.26,-3.88 -6.97,-8.01c0.29,-4.14 3.88,-7.25 8.02,-6.97c126.83,8.87 228.74,110.54 237.62,237.62c0.29,4.14 -2.83,7.73 -6.97,8.02zM512.98,273.73c-9.33,133.45 -120.83,238.26 -255.67,238.26c-141.33,0 -256.31,-114.98 -256.31,-256.31c0,-134.89 104.85,-246.34 238.27,-255.67c4.13,-0.27 7.73,2.83 8.02,6.97c0.29,4.14 -2.83,7.73 -6.97,8.01c-125.77,8.79 -224.29,114.52 -224.29,240.69c0,133.05 108.24,241.29 241.29,241.29c126.17,0 231.89,-98.52 240.69,-224.29c0.29,-4.14 3.88,-7.26 8.02,-6.97c4.14,0.29 7.26,3.88 6.97,8.02z" />
	</g>
</svg>