<?xml version="1.0" encoding="utf-8"?>
<!-- Generator: Adobe Illustrator 22.1.0, SVG Export Plug-In . SVG Version: 6.00 Build 0)  -->
<svg version="1.1" id="Capa_1" xmlns="http://www.w3.org/2000/svg" xmlns:xlink="http://www.w3.org/1999/xlink" x="0px" y="0px"
	 viewBox="0 0 63.4 130.8" style="enable-background:new 0 0 63.4 130.8;" xml:space="preserve">
<style type="text/css">
	.st0{fill:rgba(139,44,107,0.27);}
</style>
<path class="st0" d="M56.2,122.6c0.1-1.5,0.1-4.4-1.3-7.7c-1.6-3.8-6.3-5.4-6.3-5.4s-1.1,5.5,1.1,9.1c0.7,1.2,2.1,2.3,3.4,3.2
	c-2.1-0.6-4.3-1.4-6.8-2.4c0.4-1.4,0.9-4.2,0.1-7.6c-0.9-3.9-5.2-6.3-5.2-6.3s-2,5.1-0.5,8.9c0.5,1.3,1.7,2.6,2.8,3.7
	c-1.3-0.6-2.7-1.4-4.1-2.2c-0.8-0.4-1.5-0.9-2.3-1.4c0.6-1.3,1.6-3.9,1.4-7.4c-0.2-3.9-3.9-7-3.9-7s-2.8,4.6-2,8.5
	c0.3,1.4,1.3,3,2.2,4.3c-2-1.4-4-3.1-5.9-4.9c0.8-1.1,2.2-3.5,2.7-7c0.5-3.8-2.6-7.4-2.6-7.4s-3.5,3.9-3.4,7.9
	c0,1.4,0.7,3.1,1.4,4.5c-1.7-1.8-3.4-3.8-4.9-5.9c1-1,2.7-3,3.7-6.2c1.1-3.6-1.3-7.6-1.3-7.6s-4.1,3.2-4.6,7.1
	c-0.2,1.3,0.1,2.9,0.5,4.3c-1.3-2-2.6-4.2-3.7-6.4c1.1-0.7,3.1-2.5,4.7-5.4c1.7-3.3,0.1-7.5,0.1-7.5s-4.5,2.4-5.7,6
	c-0.4,1.3-0.4,3-0.2,4.5c-1-2.3-1.9-4.7-2.7-7.1c1.1-0.5,3.5-1.8,5.5-4.4c2.2-2.9,1.4-7.3,1.4-7.3s-4.7,1.5-6.5,4.9
	c-0.7,1.2-0.9,3.1-1,4.6c-0.7-2.5-1.1-5.1-1.4-7.8c1.2-0.3,3.7-1.1,6.1-3.4c2.6-2.4,2.5-6.8,2.5-6.8s-4.8,0.7-7.1,3.6
	c-0.8,1.1-1.4,2.8-1.8,4.3c-0.3-2.8-0.3-5.5-0.1-8.3c1.1-0.1,3.8-0.4,6.6-2.2c2.9-1.9,3.6-6.1,3.6-6.1s-4.8-0.2-7.4,2.3
	c-1.1,1-2,2.8-2.6,4.1c0.3-2.9,0.8-5.8,1.5-8.6c1.1,0.1,3.7,0.2,6.7-1c3.2-1.3,4.5-5.3,4.5-5.3s-4.6-1-7.6,0.9
	c-1.2,0.7-2.3,2.2-3.1,3.4c0.8-2.8,1.8-5.5,3-8.1c1,0.3,3.5,0.8,6.6,0.2c3.3-0.7,5.3-4.3,5.3-4.3s-4.2-1.7-7.5-0.4
	c-1.3,0.5-2.6,1.8-3.6,2.8c1.3-2.6,2.8-5.1,4.3-7.5c0.9,0.5,3.3,1.5,6.5,1.3c3.3-0.1,5.8-3.3,5.8-3.3S29.3,27.3,26,28
	c-1.4,0.3-3.2,1.5-4.3,2.4c1.8-2.5,3.8-4.8,5.8-6.9c0.7,0.5,2.8,2,6.1,2.5c3.2,0.4,6.2-2.2,6.2-2.2s-3.3-2.9-6.6-2.8
	c-1.6,0.1-3.7,1.1-4.9,1.7c1.1-1.1,2.3-2.1,3.4-3c1.3-1.1,2.6-2,3.8-2.9c0.6,0.6,2.4,2.4,5.5,3.4c3,0.9,6.3-1,6.3-1
	s-2.7-3.4-5.9-3.8c-1.5-0.2-3.7,0.4-5,0.8c2.8-1.9,5.5-3.4,7.9-4.6c0.4,0.6,1.8,2.8,4.8,4.3c2.7,1.4,6.3,0.1,6.3,0.1s-2-3.7-5-4.7
	c-1.6-0.5-4.1-0.2-5.4,0c2.1-1,4-1.7,5.5-2.2c0.6,0.3,2.8,1.2,4.7,0.6c2.9-1,4.3-2.9,4.3-2.9s-3-1.1-4.8-0.8c-2.2,0.4-4,2.5-4.4,3
	c-1.2,0.4-2.7,0.9-4.4,1.6c1.1-0.7,3-2.2,3.8-3.6C51.2,4.1,50.1,0,50.1,0s-3.5,1.5-4.5,4.4c-1.1,3.2-0.6,5.8-0.4,6.4
	c-2.4,1-5.2,2.4-8.1,4.3c1-1,2.5-2.7,3-4.1c1-3.1-0.9-7-0.9-7s-3.2,2.1-3.7,5.2c-0.5,3.3,0.4,5.8,0.7,6.5c-1.6,1-3.2,2.2-4.9,3.5
	c-0.7,0.6-1.5,1.1-2.2,1.8c0.8-1.2,1.7-2.9,1.9-4.2c0.5-3.3-2.1-6.9-2.1-6.9s-2.9,2.7-2.8,5.9c0.1,3.2,1.3,5.5,1.8,6.3
	c-2,1.9-4,4.1-5.9,6.5c0.6-1.3,1.2-3,1.1-4.4c-0.1-3.4-3.3-6.5-3.3-6.5s-2.4,3.2-1.8,6.4c0.6,3.2,2.2,5.3,2.9,6
	c-1.7,2.3-3.3,4.9-4.7,7.6c0.3-1.4,0.7-3.3,0.4-4.7c-0.7-3.4-4.5-6-4.5-6s-1.9,3.7-0.6,6.8c1.2,3.1,3.2,4.9,4,5.5
	c-1.2,2.5-2.3,5.2-3.2,7.9c0.1-1.4,0-3.2-0.5-4.4C10.3,39.5,6,37.6,6,37.6s-1.2,4,0.6,6.9c1.7,2.8,3.9,4.3,4.9,4.8
	c-0.8,2.6-1.3,5.2-1.7,7.9c-0.2-1.3-0.6-2.9-1.2-3.9C6.6,50.3,2,49.1,2,49.1S1.5,53.4,3.8,56c2.1,2.4,4.5,3.5,5.6,3.9
	c-0.3,2.6-0.3,5.2-0.2,7.9c-0.4-1.3-1.1-2.7-1.9-3.6C4.8,61.5,0,61.1,0,61.1s0.2,4.4,3,6.6c2.6,2.1,5.2,2.7,6.4,2.9
	c0.2,2.5,0.5,5,1,7.4c-0.7-1.2-1.5-2.5-2.5-3.2C5,72.6,0,73.1,0,73.1s1,4.3,4.2,6.1c2.9,1.6,5.6,1.8,6.9,1.8
	c0.6,2.4,1.4,4.8,2.4,7.1c-0.9-1.1-2-2.2-3.1-2.8c-3.4-1.8-8.3-0.4-8.3-0.4s1.8,4.2,5.3,5.4c3.2,1.1,6,0.8,7.2,0.6
	c1.1,2.3,2.3,4.5,3.6,6.7c-1.1-1-2.4-1.9-3.6-2.3c-3.7-1.2-8.4,1-8.4,1s2.5,3.9,6.3,4.5c3.5,0.5,6.2-0.2,7.4-0.7
	c1.4,2,2.9,3.9,4.4,5.7c-1.2-0.7-2.6-1.3-3.7-1.5c-4-0.5-8.2,2.5-8.2,2.5s3.2,3.5,7.1,3.4c3.4-0.1,6-1.2,7.2-1.9
	c1.7,1.7,3.4,3.3,5.1,4.7c-1.2-0.4-2.6-0.8-3.7-0.7c-4.1,0.2-7.8,4-7.8,4s3.8,2.9,7.7,2.1c3.4-0.7,5.7-2.3,6.8-3.1
	c1.2,0.8,2.5,1.6,3.7,2.3c0.8,0.5,1.6,0.9,2.3,1.3c-1.4-0.2-2.8-0.3-4-0.1c-4.1,0.9-7.1,5.4-7.1,5.4s4.4,2.2,8.1,0.8
	c3.3-1.3,5.4-3.3,6.3-4.4c2.3,1.1,4.4,1.9,6.4,2.6c-1.4,0-2.9,0.2-3.9,0.6c-3.9,1.6-6.2,6.7-6.2,6.7s4.8,1.5,8.3-0.7
	c3.1-1.9,4.8-4.3,5.6-5.5c5.6,1.5,9.1,1.7,9.1,1.7l0.1-1l0.1-1C63.4,123.9,60.7,123.7,56.2,122.6z"/>
</svg>
