<?xml version="1.0" encoding="utf-8"?>
<!-- Generator: Adobe Illustrator 22.1.0, SVG Export Plug-In . SVG Version: 6.00 Build 0)  -->
<svg version="1.1" id="Layer_1" xmlns="http://www.w3.org/2000/svg" xmlns:xlink="http://www.w3.org/1999/xlink" x="0px" y="0px"
	 viewBox="0 0 220.3 59.3" style="enable-background:new 0 0 220.3 59.3;" xml:space="preserve">
<style type="text/css">
	.st0{fill:#083DA6;}
	.st1{fill:#0476D9;}
	.st2{fill-rule:evenodd;clip-rule:evenodd;fill:#0442BF;}
	.st3{fill-rule:evenodd;clip-rule:evenodd;fill:#58595B;}
	.st4{fill-rule:evenodd;clip-rule:evenodd;fill:#083DA6;}
	.st5{fill-rule:evenodd;clip-rule:evenodd;fill:#04338F;}
	.st6{fill-rule:evenodd;clip-rule:evenodd;fill:#0476D9;}
	.st7{fill-rule:evenodd;clip-rule:evenodd;fill:#0586C8;}
	.st8{fill-rule:evenodd;clip-rule:evenodd;fill:#024AC0;}
	.st9{fill-rule:evenodd;clip-rule:evenodd;fill:#31B1BF;}
	.st10{fill-rule:evenodd;clip-rule:evenodd;fill:#D95284;}
	.st11{fill-rule:evenodd;clip-rule:evenodd;fill:#AD4087;}
	.st12{fill-rule:evenodd;clip-rule:evenodd;fill:#8C2D6B;}
	.st13{fill-rule:evenodd;clip-rule:evenodd;fill:#F27E63;}
</style>
<g>
	<path class="st0" d="M83.8,54.8h6.8v-2.7c7.9,0,12.4-4.7,12.4-11c0-6.2-4.5-10.7-12.4-10.7v-2.2h-6.8v2.2
		c-7.9,0-12.4,4.5-12.4,10.7c0,6.3,4.5,11,12.4,11V54.8L83.8,54.8z M83.8,46.1c-3.2,0-5.4-1.7-5.4-4.9c0-3,2.2-4.8,5.4-4.8V46.1
		L83.8,46.1z M90.6,46.1v-9.6c3.2,0,5.4,1.7,5.4,4.8C96.1,44.4,93.8,46.1,90.6,46.1L90.6,46.1z M105.7,53.7h6.1l6.3-9.5v9.5h6.4
		V34.9h-6.1l-6.3,9.5v-9.5h-6.4V53.7L105.7,53.7z M128.1,53.7h6.6v-6.8h5.4v6.8h6.6V34.9h-6.6v6.7h-5.4v-6.7h-6.6V53.7L128.1,53.7z
		 M148.9,58.6h6.1l0.5-4.9h13v4.9h5.7l0.8-10.8h-2.8V29.3h-18.6v0.6c0,9.2-0.8,13.4-2.5,17.9h-2.2V58.6L148.9,58.6z M158.1,47.8
		c1.1-3.4,1.9-6.9,1.9-12.3v-0.2h5.3v12.6H158.1L158.1,47.8z M177.2,53.7h6.1l6.3-9.5v9.5h6.4V34.9h-6.1l-6.3,9.5v-9.5h-6.4V53.7
		L177.2,53.7z M199.6,59.3h6.6v-7.9c1.2,1.4,2.9,2.7,5.8,2.7c4.5,0,8.3-3.7,8.3-9.9c0-6.1-3.9-9.8-8.4-9.8c-2.8,0-4.4,1.4-5.7,2.9
		v-2.5h-6.6V59.3L199.6,59.3z M209.9,48.6c-2.1,0-3.8-1.8-3.8-4.3c0-2.5,1.7-4.3,3.8-4.3c2.2,0,3.9,1.8,3.9,4.3
		C213.8,46.9,212.1,48.6,209.9,48.6L209.9,48.6z"/>
	<path class="st1" d="M101.5,29.3h6.4c2.9,0,4.7-1.3,4.7-3.4c0-1.7-1-2.6-2.4-3c1.1-0.5,1.9-1.3,1.9-2.7c0-0.9-0.3-1.5-0.8-2
		c-0.7-0.7-1.8-1.1-3.4-1.1h-6.3V29.3L101.5,29.3z M104.8,26.6v-2.3h2.6c1.1,0,1.7,0.4,1.7,1.1c0,0.8-0.6,1.2-1.6,1.2H104.8
		L104.8,26.6z M104.8,21.9v-2.2h2.2c1,0,1.5,0.4,1.5,1.1c0,0.8-0.6,1.1-1.6,1.1H104.8L104.8,21.9z M113.1,29.3h3.6l0.9-2.2h4.8
		l0.9,2.2h3.7l-5.2-12.4h-3.3L113.1,29.3L113.1,29.3z M118.6,24.5L120,21l1.4,3.5H118.6L118.6,24.5z M128.1,29.3h17.2V17h-3.4v9.3
		h-3.5V17H135v9.3h-3.5V17h-3.4V29.3L128.1,29.3z"/>
	<polygon class="st2" points="4.7,46.7 0,38.6 4.7,30.5 9.3,22.4 9.4,22.4 18.7,38.6 0,38.6 4.7,46.7 	"/>
	<polygon class="st3" points="28,54.7 28,54.7 18.7,54.7 9.3,54.7 4.7,46.7 0,38.6 18.7,38.6 28,54.7 	"/>
	<polygon class="st4" points="9.4,54.7 9.3,54.7 4.7,46.7 0,38.6 18.7,38.6 9.4,54.7 	"/>
	<polygon class="st5" points="28,54.7 28,54.7 18.7,54.7 9.4,54.7 18.7,38.6 18.7,38.6 28,54.7 	"/>
	<polygon class="st6" points="28,22.4 28.1,22.6 18.8,38.7 9.4,22.4 18.7,22.4 28,22.4 	"/>
	<polygon class="st7" points="44.1,54.7 53.4,54.7 58.1,46.7 62.8,38.6 62.7,38.5 44,38.5 53.4,54.7 44.1,54.7 	"/>
	<polygon class="st3" points="25.5,38.5 25.5,38.6 30.1,46.7 34.8,54.7 44.1,54.7 53.4,54.7 44,38.5 25.5,38.5 	"/>
	<polygon class="st8" points="34.7,54.7 34.8,54.7 44.1,54.7 53.4,54.7 44.1,38.5 34.7,54.7 	"/>
	<polygon class="st5" points="25.5,38.5 25.5,38.6 30.1,46.7 34.8,54.7 44.1,38.6 44,38.5 25.5,38.5 	"/>
	<polygon class="st9" points="53.4,22.4 53.3,22.4 44,38.5 62.7,38.5 58.1,30.5 53.4,22.4 	"/>
	<polygon class="st10" points="31.1,0 40.5,0 45.1,8.1 49.8,16.2 49.7,16.2 31.1,16.2 40.4,0 31.1,0 	"/>
	<polygon class="st3" points="12.5,16.2 12.5,16.2 17.1,8.1 21.8,0 31.1,0 40.4,0 31.1,16.2 12.5,16.2 	"/>
	<polygon class="st11" points="21.8,0.1 21.8,0 31.1,0 40.4,0 31.1,16.2 21.8,0.1 	"/>
	<polygon class="st12" points="12.5,16.2 12.5,16.2 17.1,8.1 21.8,0 31.1,16.2 31.1,16.2 12.5,16.2 	"/>
	<polygon class="st13" points="40.5,32.3 40.3,32.3 31,16.2 49.8,16.2 45.1,24.2 40.5,32.3 	"/>
</g>
</svg>
