<?xml version="1.0" encoding="utf-8"?>
<!-- Generator: Adobe Illustrator 22.1.0, SVG Export Plug-In . SVG Version: 6.00 Build 0)  -->
<svg version="1.1" id="Layer_1" xmlns="http://www.w3.org/2000/svg" xmlns:xlink="http://www.w3.org/1999/xlink" x="0px" y="0px"
	 viewBox="0 0 62.8 54.7" style="enable-background:new 0 0 62.8 54.7;" xml:space="preserve">
<style type="text/css">
	.st0{fill-rule:evenodd;clip-rule:evenodd;fill:#0442BF;}
	.st1{fill-rule:evenodd;clip-rule:evenodd;fill:#58595B;}
	.st2{fill-rule:evenodd;clip-rule:evenodd;fill:#083DA6;}
	.st3{fill-rule:evenodd;clip-rule:evenodd;fill:#04338F;}
	.st4{fill-rule:evenodd;clip-rule:evenodd;fill:#0476D9;}
	.st5{fill-rule:evenodd;clip-rule:evenodd;fill:#0586C8;}
	.st6{fill-rule:evenodd;clip-rule:evenodd;fill:#024AC0;}
	.st7{fill-rule:evenodd;clip-rule:evenodd;fill:#31B1BF;}
	.st8{fill-rule:evenodd;clip-rule:evenodd;fill:#D95284;}
	.st9{fill-rule:evenodd;clip-rule:evenodd;fill:#AD4087;}
	.st10{fill-rule:evenodd;clip-rule:evenodd;fill:#8C2D6B;}
	.st11{fill-rule:evenodd;clip-rule:evenodd;fill:#F27E63;}
</style>
<polygon class="st0" points="4.7,46.7 0,38.6 4.7,30.5 9.3,22.4 9.4,22.4 18.7,38.6 0,38.6 4.7,46.7 "/>
<polygon class="st1" points="28,54.7 28,54.7 18.7,54.7 9.3,54.7 4.7,46.7 0,38.6 18.7,38.6 28,54.7 "/>
<polygon class="st2" points="9.4,54.7 9.3,54.7 4.7,46.7 0,38.6 18.7,38.6 9.4,54.7 "/>
<polygon class="st3" points="28,54.7 28,54.7 18.7,54.7 9.4,54.7 18.7,38.6 18.7,38.6 28,54.7 "/>
<polygon class="st4" points="28,22.4 28.1,22.6 18.8,38.7 9.4,22.4 18.7,22.4 28,22.4 "/>
<polygon class="st5" points="44.1,54.7 53.4,54.7 58.1,46.7 62.8,38.6 62.7,38.5 44,38.5 53.4,54.7 44.1,54.7 "/>
<polygon class="st1" points="25.5,38.5 25.5,38.6 30.1,46.7 34.8,54.7 44.1,54.7 53.4,54.7 44,38.5 25.5,38.5 "/>
<polygon class="st6" points="34.7,54.7 34.8,54.7 44.1,54.7 53.4,54.7 44.1,38.5 34.7,54.7 "/>
<polygon class="st3" points="25.5,38.5 25.5,38.6 30.1,46.7 34.8,54.7 44.1,38.6 44,38.5 25.5,38.5 "/>
<polygon class="st7" points="53.4,22.4 53.3,22.4 44,38.5 62.7,38.5 58.1,30.5 53.4,22.4 "/>
<polygon class="st8" points="31.1,0 40.5,0 45.1,8.1 49.8,16.2 49.7,16.2 31.1,16.2 40.4,0 31.1,0 "/>
<polygon class="st1" points="12.5,16.2 12.5,16.2 17.1,8.1 21.8,0 31.1,0 40.4,0 31.1,16.2 12.5,16.2 "/>
<polygon class="st9" points="21.8,0.1 21.8,0 31.1,0 40.4,0 31.1,16.2 21.8,0.1 "/>
<polygon class="st10" points="12.5,16.2 12.5,16.2 17.1,8.1 21.8,0 31.1,16.2 31.1,16.2 12.5,16.2 "/>
<polygon class="st11" points="40.5,32.3 40.3,32.3 31,16.2 49.8,16.2 45.1,24.2 40.5,32.3 "/>
</svg>
