<?xml version="1.0" encoding="utf-8"?>
<!-- Generator: Adobe Illustrator 22.1.0, SVG Export Plug-In . SVG Version: 6.00 Build 0)  -->
<svg version="1.1" id="Design" xmlns="http://www.w3.org/2000/svg" xmlns:xlink="http://www.w3.org/1999/xlink" x="0px" y="0px"
	 viewBox="0 0 278.1 182.3" style="enable-background:new 0 0 278.1 182.3;" xml:space="preserve">
<style type="text/css">
	.st0{fill:#B7C0EB;}
	.st1{fill:#EFF1FE;}
	.st2{fill:#E4E7FB;}
	.st3{fill:#FEFEFC;}
	.st4{fill:url(#SVGID_1_);}
	.st5{fill:url(#SVGID_2_);}
	.st6{opacity:0.2;fill:#FEFEFC;}
	.st7{enable-background:new    ;}
	.st8{fill:url(#SVGID_3_);}
	.st9{fill:url(#SVGID_4_);}
	.st10{fill:url(#SVGID_5_);}
	.st11{fill:url(#SVGID_6_);}
	.st12{fill:url(#SVGID_7_);}
	.st13{fill:url(#SVGID_8_);}
	.st14{fill:url(#SVGID_9_);}
	.st15{fill:url(#SVGID_10_);}
	.st16{fill:url(#SVGID_11_);}
	.st17{fill:url(#SVGID_12_);}
	.st18{fill:url(#SVGID_13_);}
	.st19{fill:url(#SVGID_14_);}
	.st20{fill:url(#SVGID_15_);}
	.st21{fill:url(#SVGID_16_);}
	.st22{fill:url(#SVGID_17_);}
	.st23{fill:#FEFEFC;stroke:#FEFEFC;stroke-width:0.6422;stroke-miterlimit:10;}
</style>
<path class="st0" d="M3.7,130.3c-2.5-1.4-3.7-3.8-3.7-5.7c0,2.2,0,4.9,0,7c0,1.9,1.2,3.8,3.7,5.2L78,180.1l0-6.5L3.7,130.3z"/>
<path class="st0" d="M278.1,65.5c0,0.1,0,0.3,0,0.4c0,0.1-0.1,0.2-0.1,0.3c0,0.1-0.1,0.2-0.1,0.3c0,0.1-0.1,0.2-0.1,0.3
	c-0.1,0.1-0.1,0.3-0.2,0.4c-0.1,0.1-0.1,0.2-0.2,0.3c-0.1,0.1-0.2,0.3-0.3,0.4c-0.1,0.1-0.1,0.2-0.2,0.2c-0.2,0.2-0.3,0.8-0.5,0.9
	c-0.1,0.1-0.1,0.1-0.2,0.2c-0.1,0.1-0.2,0.2-0.4,0.3c-0.1,0.1-0.2,0.2-0.4,0.3c-0.1,0.1-0.8,0.5-0.9,0.6L95.8,173.7
	c-0.5,0.3-1.1,0.6-1.7,0.8c-0.2,0.1-0.3,0.1-0.5,0.2c-0.4,0.1-0.8,0.2-1.2,0.4c-0.4,0.1-0.8,0.2-1.3,0.3c-0.5,0.1-1,0.2-1.5,0.3
	c-0.1,0-0.3,0-0.4,0c-0.7,0.1-1.4,0.1-2.1,0.1c-0.1,0-0.2,0-0.4,0c-0.7,0-1.4-0.1-2.1-0.1c-0.1,0-0.2,0-0.3,0
	c-0.7-0.1-1.4-0.2-2-0.4c-0.1,0-0.2,0-0.3-0.1c-0.6-0.2-1.2-0.3-1.7-0.5c-0.1,0-0.2-0.1-0.3-0.1c-0.7-0.3-1.3-0.6-1.9-0.9l0,6.5
	c0.6,0.3,1.2,0.6,1.8,0.9c0,0,0.1,0,0.1,0c0.1,0,0.2,0.1,0.4,0.1c0.4,0.1,0.7,0.3,1.1,0.4c0.2,0.1,0.4,0.1,0.6,0.2
	c0.1,0,0.2,0,0.4,0.1c0.1,0,0.2,0.1,0.3,0.1c0.4,0.1,0.8,0.2,1.2,0.2c0.1,0,0.3,0,0.5,0.1c0.1,0,0.2,0,0.3,0c0.1,0,0.3,0,0.4,0
	c0.4,0,0.8,0.1,1.2,0.1c0.1,0,0.3,0,0.4,0c0.1,0,0.2,0,0.3,0c0.2,0,0.4,0,0.6,0c0.5,0,0.9,0,1.4-0.1c0.1,0,0.1,0,0.2,0
	c0.1,0,0.2,0,0.4-0.1c0.4,0,0.7-0.1,1.1-0.1c0.3-0.1,0.6-0.1,0.8-0.2c0.1,0,0.1,0,0.2,0c0.5-0.1,0.9-0.2,1.3-0.4
	c0.2-0.1,0.3-0.1,0.5-0.2c0.2-0.1,0.3-0.1,0.5-0.2c0.6-0.2,1.2-0.5,1.8-0.8L274.4,77.1c0.1,0,0.1-0.1,0.2-0.1
	c0.1-0.1,0.2-0.1,0.3-0.2c0.2-0.1,0.3-0.2,0.5-0.3c0.1-0.1,0.2-0.2,0.3-0.3c0.1-0.1,0.3-0.2,0.4-0.3c0,0,0.1,0,0.1-0.1
	c0.1,0,0.1-0.1,0.1-0.1c0.2-0.2,0.4-0.4,0.5-0.6c0,0,0.1-0.1,0.1-0.1c0,0,0.1-0.1,0.1-0.1c0.1-0.1,0.2-0.3,0.3-0.4
	c0-0.1,0.1-0.1,0.1-0.2c0,0,0-0.1,0-0.1c0.1-0.1,0.1-0.3,0.2-0.4c0-0.1,0.1-0.1,0.1-0.2c0,0,0-0.1,0-0.1c0-0.1,0.1-0.3,0.1-0.4
	c0-0.1,0.1-0.2,0.1-0.2c0,0,0,0,0-0.1c0-0.1,0-0.3,0-0.4c0-0.1,0-0.2,0-0.2c0,0,0-0.1,0-0.1c0-2.2,0-4.7,0.1-6.9
	C278.1,65.2,278.1,65.4,278.1,65.5z"/>
<path class="st1" d="M3.7,128.8C1.3,127.3,0,125,0,123.1c0,2.2,0,4.9,0,7c0,1.9,1.2,3.8,3.7,5.2L78,178.6l0-6.5L3.7,128.8z"/>
<path class="st2" d="M278.1,64c0,0.1,0,0.2,0,0.4c0,0.1-0.1,0.2-0.1,0.3c0,0.1-0.1,0.2-0.1,0.4c0,0.1-0.1,0.2-0.1,0.3
	c-0.1,0.1-0.1,0.3-0.2,0.4c0,0.1-0.1,0.2-0.2,0.3c-0.1,0.1-0.2,0.3-0.3,0.4c-0.1,0.1-0.1,0.2-0.2,0.3c-0.2,0.2-0.3,0.8-0.5,0.9
	c-0.1,0.1-0.1,0.1-0.2,0.2c-0.1,0.1-0.2,0.2-0.4,0.3c-0.1,0.1-0.2,0.2-0.4,0.3c-0.1,0.1-0.8,0.5-0.9,0.6L95.8,172.1
	c-0.5,0.3-1.1,0.6-1.8,0.8c-0.2,0.1-0.3,0.1-0.5,0.2c-0.4,0.1-0.8,0.2-1.2,0.4c-0.4,0.1-0.8,0.2-1.3,0.3c-0.5,0.1-1,0.2-1.5,0.3
	c-0.1,0-0.3,0-0.4,0c-0.7,0.1-1.4,0.1-2.1,0.1c-0.1,0-0.2,0-0.4,0c-0.7,0-1.4-0.1-2.1-0.1c-0.1,0-0.2,0-0.3,0
	c-0.7-0.1-1.4-0.2-2-0.4c-0.1,0-0.2-0.1-0.3-0.1c-0.6-0.1-1.2-0.3-1.7-0.5c-0.1,0-0.2-0.1-0.3-0.1c-0.7-0.3-1.3-0.6-1.9-0.9l0,6.5
	c0.6,0.3,1.2,0.6,1.8,0.9c0,0,0.1,0,0.1,0c0.1,0,0.2,0.1,0.4,0.1c0.3,0.1,0.7,0.3,1.1,0.4c0.2,0.1,0.4,0.1,0.6,0.2
	c0.1,0,0.2,0.1,0.4,0.1c0.1,0,0.2,0,0.3,0.1c0.4,0.1,0.8,0.2,1.2,0.2c0.2,0,0.3,0,0.5,0c0.1,0,0.2,0,0.3,0c0.1,0,0.3,0,0.4,0
	c0.4,0,0.8,0.1,1.2,0.1c0.1,0,0.3,0,0.4,0c0.1,0,0.2,0,0.3,0c0.2,0,0.4,0,0.6,0c0.5,0,0.9,0,1.4-0.1c0.1,0,0.1,0,0.2,0
	c0.1,0,0.2,0,0.4,0c0.4,0,0.7-0.1,1.1-0.2c0.3-0.1,0.6-0.1,0.8-0.2c0.1,0,0.1,0,0.2,0c0.5-0.1,0.9-0.2,1.3-0.4
	c0.2-0.1,0.3-0.1,0.5-0.2c0.2-0.1,0.3-0.1,0.5-0.2c0.6-0.2,1.2-0.5,1.8-0.8L274.4,75.6c0.1,0,0.1-0.1,0.2-0.1
	c0.1-0.1,0.2-0.1,0.3-0.2c0.2-0.1,0.3-0.2,0.5-0.3c0.1-0.1,0.2-0.2,0.3-0.3c0.1-0.1,0.3-0.2,0.4-0.3c0,0,0.1,0,0.1-0.1
	c0.1,0,0.1-0.1,0.1-0.1c0.2-0.2,0.4-0.4,0.5-0.6c0,0,0.1-0.1,0.1-0.1c0,0,0.1-0.1,0.1-0.1c0.1-0.2,0.2-0.3,0.3-0.5
	c0-0.1,0.1-0.1,0.1-0.2c0,0,0-0.1,0.1-0.1c0.1-0.1,0.1-0.3,0.2-0.4c0-0.1,0.1-0.1,0.1-0.2c0,0,0,0,0-0.1c0-0.1,0.1-0.3,0.1-0.4
	c0-0.1,0.1-0.2,0.1-0.2c0,0,0,0,0-0.1c0-0.1,0-0.3,0.1-0.4c0-0.1,0-0.2,0-0.2c0,0,0-0.1,0-0.1c0-2.2,0-4.7,0-6.9
	C278.1,63.7,278.1,63.8,278.1,64z"/>
<g>
	<path class="st3" d="M87,174.3c-3.6,0-7-0.8-9.5-2.3L4.4,129.4c-2.8-1.6-4.4-3.9-4.3-6.3c0-2.4,1.5-4.7,4.3-6.3L181.6,14.6
		c2.6-1.5,6-2.3,9.5-2.3c3.6,0,7,0.8,9.5,2.3l73.1,42.5c2.8,1.6,4.3,3.9,4.3,6.3c0,2.4-1.5,4.7-4.3,6.3L96.5,172
		C94,173.5,90.6,174.3,87,174.3z M186.8,21.1c-1.4,0-2.8,0.3-3.8,0.9L14.5,119.2c-0.7,0.4-1.2,0.9-1.2,1.4c0,0.5,0.4,1,1.2,1.4
		l73.1,42.5c1,0.6,2.3,0.9,3.8,0.9c1.4,0,2.8-0.3,3.8-0.9l168.5-97.2c0.7-0.4,1.2-0.9,1.2-1.4c0-0.5-0.4-1-1.2-1.4L190.6,22
		C189.6,21.5,188.2,21.1,186.8,21.1z"/>
	
		<linearGradient id="SVGID_1_" gradientUnits="userSpaceOnUse" x1="0.9746" y1="95.1835" x2="276.2239" y2="95.1835" gradientTransform="matrix(1 3.300000e-03 -3.300000e-03 1 0.7958 -2.349)">
		<stop  offset="0" style="stop-color:#F1F4FE"/>
		<stop  offset="0.5797" style="stop-color:#F7F9FE"/>
		<stop  offset="1" style="stop-color:#FFFFFF"/>
	</linearGradient>
	<path class="st4" d="M273.1,58.3c4.9,2.9,4.9,7.5,0,10.3L95.9,170.8c-4.9,2.8-12.8,2.8-17.8-0.1L5,128.3c-4.9-2.8-4.9-7.5,0-10.3
		L182.3,15.7c4.9-2.8,12.9-2.8,17.8,0.1L273.1,58.3z M95.8,165.7l168.6-97.2c2.4-1.4,2.4-3.7,0-5.1l-73.1-42.5
		c-2.4-1.4-6.4-1.4-8.9,0L13.8,118c-2.4,1.4-2.4,3.7,0,5.2l73.1,42.5C89.4,167.1,93.4,167.1,95.8,165.7L95.8,165.7z"/>
</g>
<g>
	
		<linearGradient id="SVGID_2_" gradientUnits="userSpaceOnUse" x1="11.604" y1="95.1818" x2="265.5916" y2="95.1818" gradientTransform="matrix(1 3.300000e-03 -3.300000e-03 1 0.7958 -2.349)">
		<stop  offset="0" style="stop-color:#4CD9ED"/>
		<stop  offset="0.1831" style="stop-color:#4BD0ED"/>
		<stop  offset="0.4831" style="stop-color:#49B7ED"/>
		<stop  offset="0.8608" style="stop-color:#458FEC"/>
		<stop  offset="1" style="stop-color:#437FEC"/>
	</linearGradient>
	<path class="st5" d="M264.3,63.4c2.4,1.4,2.4,3.7,0,5.1L95.8,165.7c-2.4,1.4-6.4,1.4-8.9,0l-73.1-42.5c-2.4-1.4-2.5-3.7,0-5.2
		l168.5-97.2c2.4-1.4,6.5-1.4,8.9,0L264.3,63.4z"/>
	<path class="st6" d="M182.7,115.6l37.1-21.4l-20.2-68.4l-8.5-4.9c-2.4-1.4-6.4-1.4-8.9,0l-23.5,13.6L182.7,115.6z"/>
	<polygon class="st6" points="167.2,124.6 176.1,119.4 152.2,38.3 143.3,43.4 	"/>
</g>
<g>
	<g class="st7">
		<g>
			
				<linearGradient id="SVGID_3_" gradientUnits="userSpaceOnUse" x1="221.3962" y1="38.5871" x2="234.4168" y2="38.5871" gradientTransform="matrix(1 3.300000e-03 -3.300000e-03 1 0.7958 -2.349)">
				<stop  offset="0" style="stop-color:#4CD9ED"/>
				<stop  offset="3.834772e-02" style="stop-color:#4BD3ED"/>
				<stop  offset="0.32" style="stop-color:#48AFED"/>
				<stop  offset="0.5827" style="stop-color:#4595EC"/>
				<stop  offset="0.8173" style="stop-color:#4485EC"/>
				<stop  offset="1" style="stop-color:#437FEC"/>
			</linearGradient>
			<path class="st8" d="M234.8,39.9l-11.1-6.5c-0.4-0.2-1-0.2-1.3,0c-0.4,0.2-0.4,0.5,0,0.8l11.1,6.5c0.4,0.2,1,0.2,1.3,0
				C235.2,40.4,235.2,40.1,234.8,39.9L234.8,39.9z"/>
		</g>
	</g>
</g>
<g>
	<g class="st7">
		<g>
			
				<linearGradient id="SVGID_4_" gradientUnits="userSpaceOnUse" x1="35.0914" y1="155.5684" x2="43.7264" y2="155.5684" gradientTransform="matrix(1 3.300000e-03 -3.300000e-03 1 0.7958 -2.349)">
				<stop  offset="0" style="stop-color:#4CD9ED"/>
				<stop  offset="3.834772e-02" style="stop-color:#4BD3ED"/>
				<stop  offset="0.32" style="stop-color:#48AFED"/>
				<stop  offset="0.5827" style="stop-color:#4595EC"/>
				<stop  offset="0.8173" style="stop-color:#4485EC"/>
				<stop  offset="1" style="stop-color:#437FEC"/>
			</linearGradient>
			<path class="st9" d="M43.3,154.6l-7.2-4.2c-0.4-0.2-0.7,0-0.7,0.4c0,0.5,0.3,1,0.7,1.2l7.2,4.2c0.4,0.2,0.7,0.1,0.7-0.4
				C44,155.4,43.7,154.9,43.3,154.6L43.3,154.6z"/>
			
				<linearGradient id="SVGID_5_" gradientUnits="userSpaceOnUse" x1="47.8437" y1="160.8655" x2="49.2717" y2="160.8655" gradientTransform="matrix(1 3.300000e-03 -3.300000e-03 1 0.7958 -2.349)">
				<stop  offset="0" style="stop-color:#4CD9ED"/>
				<stop  offset="3.834772e-02" style="stop-color:#4BD3ED"/>
				<stop  offset="0.32" style="stop-color:#48AFED"/>
				<stop  offset="0.5827" style="stop-color:#4595EC"/>
				<stop  offset="0.8173" style="stop-color:#4485EC"/>
				<stop  offset="1" style="stop-color:#437FEC"/>
			</linearGradient>
			<path class="st10" d="M48.8,157.9c-0.4-0.2-0.7,0-0.7,0.4c0,0.4,0.3,1,0.7,1.2c0.4,0.2,0.7,0,0.7-0.4
				C49.5,158.6,49.2,158.1,48.8,157.9L48.8,157.9z"/>
			
				<linearGradient id="SVGID_6_" gradientUnits="userSpaceOnUse" x1="49.7134" y1="161.9387" x2="51.1194" y2="161.9387" gradientTransform="matrix(1 3.300000e-03 -3.300000e-03 1 0.7958 -2.349)">
				<stop  offset="0" style="stop-color:#4CD9ED"/>
				<stop  offset="3.834772e-02" style="stop-color:#4BD3ED"/>
				<stop  offset="0.32" style="stop-color:#48AFED"/>
				<stop  offset="0.5827" style="stop-color:#4595EC"/>
				<stop  offset="0.8173" style="stop-color:#4485EC"/>
				<stop  offset="1" style="stop-color:#437FEC"/>
			</linearGradient>
			<path class="st11" d="M50.7,158.9c-0.4-0.2-0.7,0-0.7,0.4c0,0.4,0.3,1,0.7,1.2c0.4,0.2,0.7,0,0.7-0.4
				C51.4,159.7,51.1,159.2,50.7,158.9L50.7,158.9z"/>
			
				<linearGradient id="SVGID_7_" gradientUnits="userSpaceOnUse" x1="51.5607" y1="163.0086" x2="52.9858" y2="163.0086" gradientTransform="matrix(1 3.300000e-03 -3.300000e-03 1 0.7958 -2.349)">
				<stop  offset="0" style="stop-color:#4CD9ED"/>
				<stop  offset="3.834772e-02" style="stop-color:#4BD3ED"/>
				<stop  offset="0.32" style="stop-color:#48AFED"/>
				<stop  offset="0.5827" style="stop-color:#4595EC"/>
				<stop  offset="0.8173" style="stop-color:#4485EC"/>
				<stop  offset="1" style="stop-color:#437FEC"/>
			</linearGradient>
			<path class="st12" d="M52.5,160c-0.4-0.2-0.7,0-0.7,0.4c0,0.5,0.3,1,0.7,1.2c0.4,0.2,0.7,0,0.7-0.4
				C53.2,160.8,52.9,160.2,52.5,160L52.5,160z"/>
			
				<linearGradient id="SVGID_8_" gradientUnits="userSpaceOnUse" x1="53.4143" y1="164.0753" x2="54.8331" y2="164.0753" gradientTransform="matrix(1 3.300000e-03 -3.300000e-03 1 0.7958 -2.349)">
				<stop  offset="0" style="stop-color:#4CD9ED"/>
				<stop  offset="3.834772e-02" style="stop-color:#4BD3ED"/>
				<stop  offset="0.32" style="stop-color:#48AFED"/>
				<stop  offset="0.5827" style="stop-color:#4595EC"/>
				<stop  offset="0.8173" style="stop-color:#4485EC"/>
				<stop  offset="1" style="stop-color:#437FEC"/>
			</linearGradient>
			<path class="st13" d="M54.4,161.1c-0.4-0.2-0.7,0-0.7,0.4c0,0.4,0.3,1,0.7,1.2c0.4,0.2,0.7,0,0.7-0.4
				C55.1,161.9,54.8,161.3,54.4,161.1L54.4,161.1z"/>
			
				<linearGradient id="SVGID_9_" gradientUnits="userSpaceOnUse" x1="55.2748" y1="165.1497" x2="56.6842" y2="165.1497" gradientTransform="matrix(1 3.300000e-03 -3.300000e-03 1 0.7958 -2.349)">
				<stop  offset="0" style="stop-color:#4CD9ED"/>
				<stop  offset="3.834772e-02" style="stop-color:#4BD3ED"/>
				<stop  offset="0.32" style="stop-color:#48AFED"/>
				<stop  offset="0.5827" style="stop-color:#4595EC"/>
				<stop  offset="0.8173" style="stop-color:#4485EC"/>
				<stop  offset="1" style="stop-color:#437FEC"/>
			</linearGradient>
			<path class="st14" d="M56.2,162.2c-0.4-0.2-0.7,0-0.7,0.4c0,0.4,0.3,1,0.7,1.2c0.4,0.2,0.7,0,0.7-0.4
				C56.9,162.9,56.6,162.4,56.2,162.2L56.2,162.2z"/>
			
				<linearGradient id="SVGID_10_" gradientUnits="userSpaceOnUse" x1="22.2911" y1="146.1091" x2="23.7162" y2="146.1091" gradientTransform="matrix(1 3.300000e-03 -3.300000e-03 1 0.7958 -2.349)">
				<stop  offset="0" style="stop-color:#4CD9ED"/>
				<stop  offset="3.834772e-02" style="stop-color:#4BD3ED"/>
				<stop  offset="0.32" style="stop-color:#48AFED"/>
				<stop  offset="0.5827" style="stop-color:#4595EC"/>
				<stop  offset="0.8173" style="stop-color:#4485EC"/>
				<stop  offset="1" style="stop-color:#437FEC"/>
			</linearGradient>
			<path class="st15" d="M23.3,143c-0.4-0.2-0.7,0-0.7,0.4c0,0.5,0.3,1,0.7,1.2c0.4,0.2,0.7,0,0.7-0.4C24,143.8,23.7,143.2,23.3,143
				L23.3,143z"/>
			
				<linearGradient id="SVGID_11_" gradientUnits="userSpaceOnUse" x1="24.1574" y1="147.1832" x2="25.5635" y2="147.1832" gradientTransform="matrix(1 3.300000e-03 -3.300000e-03 1 0.7958 -2.349)">
				<stop  offset="0" style="stop-color:#4CD9ED"/>
				<stop  offset="3.834772e-02" style="stop-color:#4BD3ED"/>
				<stop  offset="0.32" style="stop-color:#48AFED"/>
				<stop  offset="0.5827" style="stop-color:#4595EC"/>
				<stop  offset="0.8173" style="stop-color:#4485EC"/>
				<stop  offset="1" style="stop-color:#437FEC"/>
			</linearGradient>
			<path class="st16" d="M25.2,144.1c-0.4-0.2-0.7,0-0.7,0.4c0,0.4,0.3,1,0.7,1.2c0.4,0.2,0.7,0,0.7-0.4
				C25.9,144.9,25.6,144.3,25.2,144.1L25.2,144.1z"/>
			
				<linearGradient id="SVGID_12_" gradientUnits="userSpaceOnUse" x1="26.0046" y1="148.2533" x2="27.4303" y2="148.2533" gradientTransform="matrix(1 3.300000e-03 -3.300000e-03 1 0.7958 -2.349)">
				<stop  offset="0" style="stop-color:#4CD9ED"/>
				<stop  offset="3.834772e-02" style="stop-color:#4BD3ED"/>
				<stop  offset="0.32" style="stop-color:#48AFED"/>
				<stop  offset="0.5827" style="stop-color:#4595EC"/>
				<stop  offset="0.8173" style="stop-color:#4485EC"/>
				<stop  offset="1" style="stop-color:#437FEC"/>
			</linearGradient>
			<path class="st17" d="M27,145.2c-0.4-0.2-0.7,0-0.7,0.4c0,0.4,0.3,1,0.7,1.2c0.4,0.2,0.7,0,0.7-0.4C27.7,146,27.4,145.4,27,145.2
				L27,145.2z"/>
			
				<linearGradient id="SVGID_13_" gradientUnits="userSpaceOnUse" x1="27.8525" y1="149.3194" x2="29.2775" y2="149.3194" gradientTransform="matrix(1 3.300000e-03 -3.300000e-03 1 0.7958 -2.349)">
				<stop  offset="0" style="stop-color:#4CD9ED"/>
				<stop  offset="3.834772e-02" style="stop-color:#4BD3ED"/>
				<stop  offset="0.32" style="stop-color:#48AFED"/>
				<stop  offset="0.5827" style="stop-color:#4595EC"/>
				<stop  offset="0.8173" style="stop-color:#4485EC"/>
				<stop  offset="1" style="stop-color:#437FEC"/>
			</linearGradient>
			<path class="st18" d="M28.9,146.2c-0.4-0.2-0.7,0-0.7,0.4c0,0.4,0.3,1,0.7,1.2c0.4,0.2,0.7,0,0.7-0.4
				C29.6,147,29.3,146.5,28.9,146.2L28.9,146.2z"/>
			
				<linearGradient id="SVGID_14_" gradientUnits="userSpaceOnUse" x1="29.7188" y1="150.3954" x2="31.1282" y2="150.3954" gradientTransform="matrix(1 3.300000e-03 -3.300000e-03 1 0.7958 -2.349)">
				<stop  offset="0" style="stop-color:#4CD9ED"/>
				<stop  offset="3.834772e-02" style="stop-color:#4BD3ED"/>
				<stop  offset="0.32" style="stop-color:#48AFED"/>
				<stop  offset="0.5827" style="stop-color:#4595EC"/>
				<stop  offset="0.8173" style="stop-color:#4485EC"/>
				<stop  offset="1" style="stop-color:#437FEC"/>
			</linearGradient>
			<path class="st19" d="M30.7,147.3c-0.4-0.2-0.7,0-0.7,0.4c0,0.4,0.3,1,0.7,1.2c0.4,0.2,0.7,0,0.7-0.4
				C31.4,148.1,31.1,147.6,30.7,147.3L30.7,147.3z"/>
		</g>
	</g>
</g>
<linearGradient id="SVGID_15_" gradientUnits="userSpaceOnUse" x1="205.2321" y1="-913.8783" x2="302.0757" y2="-913.8783" gradientTransform="matrix(0.8538 2.800000e-03 -2.800000e-03 0.8538 -90.1665 834.5753)">
	<stop  offset="0" style="stop-color:#5FEFC0"/>
	<stop  offset="0.1335" style="stop-color:#5CECC6"/>
	<stop  offset="1" style="stop-color:#4CD9ED"/>
</linearGradient>
<path class="st20" d="M96.6,62.7c0.9-0.7,1.6-1.3,2.3-1.9c7.8-6.7,12.2-16.9,13.7-30.3c0.4-3.6,0.5-7.3,0.7-11
	c0.2-5.8,3-8.7,7.9-7.6c2.8,0.6,5.6,1.7,8.4,3.3c3.1,1.8,6.2,4.3,9.2,7.6c4.3,4.7,6.3,10,6.3,15.3c0.1,7.6,0.6,15.2,2.2,23.5
	c2.4,12.3,6.6,24.5,12.9,36.7c0.2,0.4,0.4,0.8,0.5,1.1c0,0.1,0,0.2,0,0.5C139.5,87.7,118.2,75.3,96.6,62.7L96.6,62.7z M129.3,0.7
	c-2.6-1.5-4.9-0.5-4.7,2.6c0.2,2.4-0.8,2.1-2.3,1.6c-4.7-1.7-8.8-1.7-11.8,1.1c-2.6,2.4-3.6,6.4-3.6,11.1c0,7.2-0.9,13.8-2.7,19.7
	c-2.9,9.6-7.8,16.5-15.3,20.2c-1.5,0.7-1.7,1.8-0.8,4.3c1.3,3.6,3.4,6,6.2,7.6c2.2,1.3,9.4,5.5,18.1,10.5
	c17.3,10.1,40.4,23.5,41.1,23.9c0,0,2.2,1.3,4.8,2.8c1.9,1.1,4,2.3,5.5,3.1c3.2,1.8,5.8,0.9,6.3-1.9c0.2-1,0-1.9-0.8-3.2
	c-5.3-8.5-9.3-17.3-12.2-26.4c-4-12.3-5.7-24-5.7-34.9c0-4.7-0.9-9.6-3.3-14.9c-3.1-6.5-7.4-11.3-12.3-15.2c-1.4-1.1-2.1-1.9-2-3.8
	C134.1,5.8,132,2.3,129.3,0.7C129.3,0.7,129.3,0.7,129.3,0.7L129.3,0.7z"/>
<linearGradient id="SVGID_16_" gradientUnits="userSpaceOnUse" x1="240.8722" y1="-865.8734" x2="266.3623" y2="-865.8734" gradientTransform="matrix(0.8538 2.800000e-03 -2.800000e-03 0.8538 -90.1665 834.5753)">
	<stop  offset="0" style="stop-color:#5FEFC0"/>
	<stop  offset="0.1335" style="stop-color:#5CECC6"/>
	<stop  offset="1" style="stop-color:#4CD9ED"/>
</linearGradient>
<path class="st21" d="M139.7,98.5l-21.7-12.6c0,6.9,4.8,15.3,10.8,18.8C134.7,108.1,139.6,105.4,139.7,98.5L139.7,98.5z"/>
<linearGradient id="SVGID_17_" gradientUnits="userSpaceOnUse" x1="290.1894" y1="-925.0668" x2="324.3296" y2="-925.0668" gradientTransform="matrix(0.8538 2.800000e-03 -2.800000e-03 0.8538 -90.1665 834.5753)">
	<stop  offset="0" style="stop-color:#FD7B88"/>
	<stop  offset="1" style="stop-color:#F7366B"/>
</linearGradient>
<path class="st22" d="M185.7,35.2L164,22.6c-2-1.2-3.7-0.2-3.7,2.1l-0.2,25c0,2.3,1.6,5.2,3.6,6.3l21.7,12.6c2,1.2,3.7,0.2,3.7-2.1
	l0.2-25C189.4,39.3,187.7,36.4,185.7,35.2L185.7,35.2z"/>
<polygon class="st23" points="175.7,37.5 175.6,54.6 178.3,56.2 178.3,57.4 171.6,53.6 171.7,52.3 174.4,53.9 174.5,38 171.8,36.4 
	171.8,35.2 175.7,37.5 "/>
</svg>
