<?xml version="1.0" encoding="utf-8"?>
<!-- Generator: Adobe Illustrator 22.1.0, SVG Export Plug-In . SVG Version: 6.00 Build 0)  -->
<svg version="1.1" id="Capa_1" xmlns="http://www.w3.org/2000/svg" xmlns:xlink="http://www.w3.org/1999/xlink" x="0px" y="0px"
	 viewBox="0 0 27 36" style="enable-background:new 0 0 27 36;" xml:space="preserve">
<g>
	<g id="Phone_x5F_2">
		<g>
			<path d="M26.9,32.3c0.2-0.9,0.1-1.9-0.5-2.7l-2.7-4.3c-1-1.6-3.3-2.1-4.9-1.1l-1.1,0.7c-0.3,0.2-0.7,0.3-1.2,0.2
				c-0.9-0.2-2.7-1.2-5.4-5.4c-3.1-4.9-3-7.4-1.8-8.2l1.1-0.7c1.7-1,2.2-3.2,1.1-4.9L8.9,1.7C8.4,0.9,7.7,0.3,6.7,0.1S4.9,0,4.1,0.5
				L3,1.2c-4.7,2.9-3.7,12.7,2.2,22.2c4.1,6.6,9.5,11.3,14.2,12.4c1.9,0.4,3.6,0.2,4.9-0.6l1.1-0.7C26.2,34,26.7,33.3,26.9,32.3z
				 M25,31.9c-0.1,0.4-0.3,0.7-0.7,1l-1.1,0.7c-0.9,0.5-2,0.7-3.4,0.4c-4.1-0.9-9.1-5.4-12.9-11.5C1.7,14.1,0.4,5.2,4,2.9l1.1-0.7
				C5.8,1.8,6.8,2,7.2,2.7L9.9,7c0.4,0.7,0.2,1.7-0.5,2.1L8.4,9.8c-1.2,0.8-3.6,3.4,1.2,10.9c2.3,3.7,4.5,5.8,6.6,6.3
				c1,0.2,1.9,0.1,2.7-0.4l1.1-0.7c0.7-0.4,1.7-0.2,2.1,0.5l2.7,4.3C25,31.1,25.1,31.5,25,31.9z"/>
		</g>
	</g>
</g>
</svg>
