<?xml version="1.0" encoding="utf-8"?>
<!-- Generator: Adobe Illustrator 22.1.0, SVG Export Plug-In . SVG Version: 6.00 Build 0)  -->
<svg version="1.1" id="Layer_1" xmlns="http://www.w3.org/2000/svg" xmlns:xlink="http://www.w3.org/1999/xlink" x="0px" y="0px"
	 viewBox="0 0 512 268" style="enable-background:new 0 0 512 268;" xml:space="preserve">
<path d="M215.4,19.5c-5.6,0-10.2,3.4-10.2,7.6s4.5,7.6,10.2,7.6h38.9c5.6,0,10.2-3.4,10.2-7.6s-4.5-7.6-10.2-7.6H215.4z"/>
<path d="M195.7,49.5l-13.2,0c-8,0-11.6,2.6-15.8,5.7c-0.5,0.3-1,0.7-1.5,1.1l-23.7,17.1c-7.9,5.7-7.9,13.1-7.9,16.3v7.6
	c0,5.1,4.5,9.3,10.3,9.4c0,0,0.1,0,0.1,0l47.2,0.1c0.1,0,0.3,0,0.4,0c5.4,0,9.8-1.6,12.9-4.6c4.9-4.8,4.9-11.3,4.9-14.8V62.1
	c0-0.2,0-0.4,0-0.6C209.1,54.1,203.8,49.5,195.7,49.5z M194.4,87.3c0,1,0,3.2-0.4,4c-0.2,0.1-0.9,0.3-2.5,0.3c0,0-0.1,0-0.1,0
	l-42.6-0.1v-1.8c0-2.2,0-2.9,1.6-4l23.7-17.1c0.6-0.4,1.1-0.8,1.6-1.2c3.3-2.4,3.7-2.7,6.8-2.7l11.8,0L194.4,87.3z"/>
<path d="M99,187.3c-13.2,0-24,10.8-24,24c0,13.2,10.8,24,24,24c13.3,0,24.1-10.8,24.1-24C123.1,198.1,112.3,187.3,99,187.3z
	 M99,220.3c-4.9,0-8.9-4-8.9-8.9c0-4.9,4-8.9,8.9-8.9c4.9,0,8.9,4,8.9,8.9C108,216.3,103.9,220.3,99,220.3z"/>
<path d="M402.7,186.5c-13.3,0-24.1,10.8-24.1,24c0,13.3,10.8,24,24.1,24s24.1-10.8,24.1-24C426.8,197.2,416,186.5,402.7,186.5z
	 M402.7,219.4c-4.9,0-8.9-4-8.9-8.9c0-4.9,4-8.9,8.9-8.9c4.9,0,8.9,4,8.9,8.9C411.6,215.4,407.6,219.4,402.7,219.4z"/>
<path d="M449.4,98.3l-47.2-9.1c-5.3-1-7-1.4-8.7-2.3c-2.1-1.2-5.1-3.7-10.4-8.4c-1.9-1.7-4.1-3.6-6.7-5.8l-47.9-41.4
	c-13.3-11.5-18-11.9-36.2-11.8c-3.1,0-6.7,0-10.9,0l-28.9-0.3c0,0-0.1,0-0.1,0c-4.1,0-7.5,3.3-7.6,7.5c0,4.2,3.3,7.6,7.5,7.6
	l28.9,0.3c4.3,0.1,8,0,11.2,0c16.1-0.1,16.8-0.1,26.2,8.1l47.9,41.4c2.6,2.2,4.7,4.1,6.6,5.7c12.5,10.9,13.7,11.8,26.2,14.2
	l47.2,9.1c46.1,8.9,50.4,10.9,50.4,23.3v4.3h-22.3c-9.9,0-18,8.1-18,18v7.9c0,9.9,8.1,18,18,18h22.3v34c0,3-0.9,3.9-1.2,4.2
	c-0.7,0.7-3,2.2-9.9,2c-0.1,0-0.1,0-0.2,0h-28.1c1.2-4.6,1.9-9.4,1.9-14.4c0-31.2-25.4-56.6-56.7-56.6c-25.4,0-46.9,16.8-54.1,39.8
	h-84.4c-4.2,0-7.6,3.4-7.6,7.6s3.4,7.6,7.6,7.6h81.9c0,0.6,0,1.2,0,1.7c0,5,0.7,9.8,1.9,14.4H154c1.1-4.3,1.7-8.9,1.7-13.6
	c0-0.9,0-1.8-0.1-2.6h77.2c4.2,0,7.6-3.4,7.6-7.6s-3.4-7.6-7.6-7.6h-80c-7.5-22.6-28.8-38.9-53.8-38.9c-31.2,0-56.6,25.4-56.6,56.7
	c0,1.4,0.1,2.8,0.2,4.1l-24.5-6.7c-1.9-0.5-3-1.2-2.9-7c0,0,0-0.1,0-0.1v-43.6l15.8-3.5c1.5-0.3,3-0.6,4.3-0.9
	c9.6-1.9,15.9-3.6,23.9-15.1l8.4-12.1c3.3-4.8,3.8-10.3,1.3-15c-2.5-4.7-7.6-8-12.5-8H15.1c0-6.4,1.6-11.5,4.7-14.6
	c3-3.1,6.9-3.7,9.5-3.7h53.1c1,0,1.9,0,2.7,0c6.1,0.1,11.4,0.2,19.6-6l49-37c6.6-5,13.7-7.6,20.5-7.6h42.5c4.2,0,7.6-3.4,7.6-7.6
	s-3.4-7.6-7.6-7.6h-42.4c-10.1,0-20.4,3.7-29.7,10.7l-49,37c-4,3-5.1,3-10.2,2.9c-0.9,0-1.9,0-2.9,0h-0.9V54.6h3
	c7,0,12.7-5.7,12.7-12.7v-22c0-6.5-5-11.8-11.9-12.6L20.2,0.1c-3.3-0.4-6.7,0.7-9.2,3C8.3,5.5,6.7,9,6.7,12.7v29.2
	c0,7,5.7,12.7,12.7,12.7h11.9v15.6h-1.9c-7.8,0-15.1,2.9-20.3,8.3c-4.2,4.3-9.2,12.3-9,26.1v6.6V152v49.7c-0.1,11.8,4.6,19,14,21.6
	l32.3,8.9C54.7,253.2,75.2,268,99,268c20.8,0,39-11.3,48.8-28h206.5c10,16.3,27.9,27.1,48.3,27.1s38.4-10.9,48.3-27.1h34.5
	c0.5,0,1,0,1.4,0c8.6,0,15-2.1,19.3-6.3c3.8-3.7,5.7-8.8,5.7-15v-82.2C512,110.4,493.7,106.9,449.4,98.3L449.4,98.3z M21.8,15.5
	l60.3,6.7v17.3H21.8L21.8,15.5z M46.4,54.6h20v15.6h-20V54.6z M46.7,130c-4.9,7-7.1,7.5-14.4,8.9c-1.4,0.3-3,0.6-4.6,1l-12.5,2.8
	v-24h39.5L46.7,130z M99,252.9c-22.9,0-41.5-18.6-41.5-41.5c0-22.9,18.6-41.6,41.5-41.6c22.9,0,41.6,18.6,41.6,41.6
	C140.6,234.3,121.9,252.9,99,252.9z M402.7,252c-22.9,0-41.6-18.6-41.6-41.6c0-22.9,18.6-41.5,41.6-41.5s41.6,18.6,41.6,41.5
	C444.3,233.4,425.6,252,402.7,252z M474.5,169.6c-1.6,0-2.9-1.3-2.9-2.9v-7.9c0-1.6,1.3-2.9,2.9-2.9h22.3v13.7L474.5,169.6
	L474.5,169.6z"/>
<path d="M222,62.4v28.8c0,0.3,0,0.6,0,0.9c0,3-0.1,7.6,3.5,11.1c3.4,3.4,8.1,3.7,10.3,3.7c0.3,0,0.5,0,0.7,0h96.6c0.1,0,0.2,0,0.3,0
	c5.8-0.2,10.1-4.2,10.1-9.4v-6.2c0-4.5-2.1-8.6-5.7-11.2L306,56.7c-0.6-0.4-1.1-0.8-1.6-1.1c-4-2.9-7.7-5.7-15.7-5.7h-52.9
	c-8.1,0-13.4,4.6-13.7,12C222,62,222,62.2,222,62.4L222,62.4z M237.1,91.2V64.9h51.6c3.1,0,3.5,0.3,6.7,2.7c0.5,0.4,1.1,0.8,1.7,1.2
	l31.1,22.9h-91.1C237.1,91.6,237.1,91.4,237.1,91.2L237.1,91.2z"/>
<path d="M227.1,193.6c-5.6,0-10.2,3.4-10.2,7.6s4.5,7.6,10.2,7.6H266c5.6,0,10.2-3.4,10.2-7.6s-4.5-7.6-10.2-7.6H227.1z"/>
</svg>
