<?xml version="1.0" encoding="utf-8"?>
<!-- Generator: Adobe Illustrator 22.0.1, SVG Export Plug-In . SVG Version: 6.00 Build 0)  -->
<svg version="1.1" id="Layer_1" xmlns="http://www.w3.org/2000/svg" xmlns:xlink="http://www.w3.org/1999/xlink" x="0px" y="0px"
	 viewBox="0 0 29 26.7" style="enable-background:new 0 0 29 26.7;" xml:space="preserve">
<style type="text/css">
	.st0{fill:#FFFFFF;}
</style>
<g>
	<g>
		<path class="st0" d="M25.2,26.7H3.8c-1.3,0-2.4-1.2-2.4-2.6V13.7c0-0.3,0.3-0.6,0.6-0.6c0.3,0,0.6,0.3,0.6,0.6v10.3
			c0,0.7,0.5,1.3,1.1,1.3h21.5c0.6,0,1.1-0.6,1.1-1.3V13.9c0-0.3,0.3-0.6,0.6-0.6c0.3,0,0.6,0.3,0.6,0.6v10.2
			C27.6,25.5,26.6,26.7,25.2,26.7z"/>
	</g>
	<g>
		<path class="st0" d="M11.9,16.4C11.9,16.4,11.9,16.4,11.9,16.4c-4.2-0.3-8.2-1.2-11.5-2.6C0.1,13.7,0,13.4,0,13.2V7.1
			c0-1.4,1.2-2.6,2.6-2.6h23.8c1.4,0,2.6,1.2,2.6,2.6v6.1c0,0.3-0.1,0.5-0.4,0.6c-3.3,1.4-7.2,2.3-11.3,2.6c-0.4,0-0.6-0.2-0.7-0.6
			c0-0.3,0.2-0.6,0.6-0.7c3.8-0.3,7.5-1.1,10.5-2.3V7.1c0-0.7-0.6-1.3-1.3-1.3H2.6c-0.7,0-1.3,0.6-1.3,1.3v5.7
			c3.1,1.3,6.8,2.1,10.7,2.3c0.3,0,0.6,0.3,0.6,0.7C12.5,16.1,12.2,16.4,11.9,16.4z"/>
	</g>
	<g>
		<path class="st0" d="M16.9,19.6h-4.8c-0.4,0-0.8-0.4-0.8-0.8v-4.4c0-0.5,0.3-0.8,0.8-0.8h4.8c0.4,0,0.8,0.4,0.8,0.8v4.4
			C17.7,19.2,17.3,19.6,16.9,19.6z M12.5,18.4h4v-3.6h-4V18.4z"/>
	</g>
	<g>
		<path class="st0" d="M19,5.1c-0.3,0-0.6-0.3-0.6-0.6V3.3c0-1.1-0.9-2.1-2.1-2.1h-3.5c-1.1,0-2.1,0.9-2.1,2.1v1.2
			c0,0.3-0.3,0.6-0.6,0.6S9.4,4.8,9.4,4.5V3.3c0-1.8,1.5-3.3,3.3-3.3h3.5c1.8,0,3.3,1.5,3.3,3.3v1.2C19.6,4.8,19.3,5.1,19,5.1z"/>
	</g>
</g>
</svg>
