<?xml version="1.0" encoding="utf-8"?>
<!-- Generator: Adobe Illustrator 22.1.0, SVG Export Plug-In . SVG Version: 6.00 Build 0)  -->
<svg version="1.1" id="Capa_1" xmlns="http://www.w3.org/2000/svg" xmlns:xlink="http://www.w3.org/1999/xlink" x="0px" y="0px"
	 viewBox="0 0 512 362.9" style="enable-background:new 0 0 512 362.9;" xml:space="preserve">
<g>
	<g>
		<path d="M199,188.6c11.4-9.7,18.7-24.1,18.7-40.2c0-29.1-23.6-52.7-52.7-52.7c-29.1,0-52.7,23.6-52.7,52.7
			c0,16.1,7.3,30.5,18.7,40.2c-31.2,13.3-53.1,44.2-53.1,80.2c0,2.6,1,5.1,2.8,6.9c1.8,1.8,4.3,2.8,6.9,2.8h154.9
			c2.6,0,5.1-1,6.9-2.8c1.8-1.8,2.8-4.3,2.8-6.9C252.1,232.7,230.2,201.8,199,188.6z M141.4,124.8c6.1-6,14.3-9.7,23.5-9.8
			c9.2,0,17.5,3.7,23.5,9.8c6,6.1,9.7,14.3,9.7,23.5c0,9.2-3.7,17.5-9.7,23.5c-6.1,6-14.3,9.7-23.5,9.8c-9.2,0-17.5-3.7-23.5-9.8
			c-6.1-6.1-9.7-14.3-9.8-23.5C131.6,139.1,135.3,130.9,141.4,124.8z M98,259.1c2.1-14.8,9-28,19.1-38.2
			c12.3-12.3,29.1-19.8,47.9-19.8c18.7,0,35.6,7.6,47.9,19.8c10.1,10.1,16.9,23.4,19,38.2H98z"/>
	</g>
</g>
<g>
	<g>
		<path d="M411.5,175H294.9c-5.4,0-9.7,4.4-9.7,9.7s4.4,9.7,9.7,9.7h116.7c5.4,0,9.7-4.4,9.7-9.7S416.9,175,411.5,175z"/>
	</g>
</g>
<g>
	<g>
		<path d="M413.2,116.7H296.6c-5.4,0-9.7,4.4-9.7,9.7s4.4,9.7,9.7,9.7h116.7c5.4,0,9.7-4.4,9.7-9.7S418.6,116.7,413.2,116.7z"/>
	</g>
</g>
<g>
	<g>
		<path d="M393.6,233.3h-98.7c-5.4,0-9.7,4.4-9.7,9.7s4.4,9.7,9.7,9.7h98.7c5.4,0,9.7-4.4,9.7-9.7S399,233.3,393.6,233.3z"/>
	</g>
</g>
<path d="M486.1,0H369.3h-59.9h-19.5l1.9,19.4h19.5h71.4h103.4c3.5,0,6.5,3,6.5,6.5V337h0c0,3.5-3,6.5-6.5,6.5H25.9
	c-3.5,0-6.5-3-6.5-6.5V25.9c0-3.5,3-6.5,6.5-6.5h116.4h58.4h19.5L222.1,0h-19.5h-85.3H25.9C11.7,0,0,11.7,0,25.9V337
	c0,14.3,11.7,25.9,25.9,25.9h460.2c14.3,0,25.9-11.7,25.9-25.9V25.9C512,11.7,500.3,0,486.1,0z"/>
<g>
	<g>
		<path d="M316.2,0H199.6c-5.4,0-9.7,4.4-9.7,9.7s4.4,9.7,9.7,9.7h116.7c5.4,0,9.7-4.4,9.7-9.7S321.6,0,316.2,0z"/>
	</g>
</g>
</svg>
