<?xml version="1.0" encoding="utf-8"?>
<!-- Generator: Adobe Illustrator 22.1.0, SVG Export Plug-In . SVG Version: 6.00 Build 0)  -->
<svg version="1.1" id="Capa_1" xmlns="http://www.w3.org/2000/svg" xmlns:xlink="http://www.w3.org/1999/xlink" x="0px" y="0px"
	 viewBox="0 0 512 512" style="enable-background:new 0 0 512 512;" xml:space="preserve">
<g>
	<g>
		<path d="M486.4,459.5V190l23.1-23.1c3.3-3.3,3.3-8.7,0-12.1c-0.5-0.5-1-0.9-1.6-1.3L260.4,2.5c-2.7-1.7-6.2-1.7-8.9,0L4.1,153.6
			c-4,2.4-5.3,7.7-2.8,11.7c0.4,0.6,0.8,1.1,1.3,1.6L25.6,190v269.5C11.5,459.5,0,471,0,485.1v17.1c0,4.7,3.8,8.5,8.5,8.5
			c0,0,0,0,0,0h494.9c4.7,0,8.5-3.8,8.5-8.5c0,0,0,0,0,0v-17.1C512,471,500.5,459.5,486.4,459.5z M22.2,162.5L256,19.8l233.8,142.6
			l-13.2,13.2l-216.1-133c-2.7-1.7-6.2-1.7-8.9,0l-216.1,133L22.2,162.5z M68.3,493.6H17.1v-8.5c0-4.7,3.8-8.5,8.5-8.5h42.7V493.6z
			 M213.3,493.6h-128V468c0-4.7,3.8-8.5,8.5-8.5h110.9c4.7,0,8.5,3.8,8.5,8.5L213.3,493.6L213.3,493.6z M110.9,442.4V280.3h76.8
			v162.1H110.9z M204.8,442.4V271.8c0-4.7-3.8-8.5-8.5-8.5c0,0,0,0,0,0h-93.9c-4.7,0-8.5,3.8-8.5,8.5c0,0,0,0,0,0v170.7
			c-10.8,0-20.4,6.9-24,17.1H42.7V191.2L256,59.9l213.3,131.3v268.3H228.8C225.2,449.3,215.6,442.5,204.8,442.4z M494.9,493.6H230.4
			v-17.1h256c4.7,0,8.5,3.8,8.5,8.5V493.6z"/>
	</g>
</g>
<g>
	<g>
		<path d="M426.7,246.2C426.7,246.2,426.7,246.2,426.7,246.2H273.1c-4.7,0-8.5,3.8-8.5,8.5c0,0,0,0,0,0v136.5
			c0,14.1,11.5,25.6,25.6,25.6h119.5c14.1,0,25.6-11.5,25.6-25.6V254.7C435.2,250,431.4,246.2,426.7,246.2z M281.6,263.2h59.7v42.7
			h-59.7V263.2z M281.6,323h59.7v42.7h-59.7V323z M418.1,391.2c0,4.7-3.8,8.5-8.5,8.5H290.1c-4.7,0-8.5-3.8-8.5-8.5v-8.5h136.5
			V391.2z M418.1,365.6h-59.7V323h59.7V365.6z M418.1,305.9h-59.7v-42.7h59.7V305.9z"/>
	</g>
</g>
<g>
	<g>
		<path d="M136.5,348.6c-4.7,0-8.5,3.8-8.5,8.5v17.1c0,4.7,3.8,8.5,8.5,8.5c0,0,0,0,0,0c4.7,0,8.5-3.8,8.5-8.5c0,0,0,0,0,0v-17.1
			C145.1,352.4,141.2,348.6,136.5,348.6z"/>
	</g>
</g>
</svg>
