<?xml version="1.0" encoding="utf-8"?>
<!-- Generator: Adobe Illustrator 22.1.0, SVG Export Plug-In . SVG Version: 6.00 Build 0)  -->
<svg version="1.1" id="Layer_1" xmlns="http://www.w3.org/2000/svg" xmlns:xlink="http://www.w3.org/1999/xlink" x="0px" y="0px"
	 viewBox="0 0 512 512" style="enable-background:new 0 0 512 512;" xml:space="preserve">
<g>
	<g>
		<path d="M401.1,221.9c-61.2,0-110.9,49.8-110.9,110.9s49.8,110.9,110.9,110.9S512,394,512,332.8S462.2,221.9,401.1,221.9z
			 M401.1,426.7c-51.8,0-93.9-42.1-93.9-93.9s42.1-93.9,93.9-93.9s93.9,42.1,93.9,93.9C494.9,384.6,452.8,426.7,401.1,426.7z"/>
	</g>
</g>
<g>
	<g>
		<path d="M401.1,281.6c-28.2,0-51.2,23-51.2,51.2s23,51.2,51.2,51.2s51.2-23,51.2-51.2C452.3,304.6,429.3,281.6,401.1,281.6z
			 M401.1,366.9c-18.8,0-34.1-15.3-34.1-34.1c0-18.8,15.3-34.1,34.1-34.1c18.8,0,34.1,15.3,34.1,34.1
			C435.2,351.6,419.9,366.9,401.1,366.9z"/>
	</g>
</g>
<g>
	<g>
		<path d="M93.9,315.7c-18.8,0-34.1,15.3-34.1,34.1S75,384,93.9,384c18.8,0,34.1-15.3,34.1-34.1C128,331,112.7,315.7,93.9,315.7z
			 M93.9,366.9c-9.4,0-17.1-7.7-17.1-17.1c0-9.4,7.7-17.1,17.1-17.1c9.4,0,17.1,7.7,17.1,17.1C110.9,359.3,103.3,366.9,93.9,366.9z"
			/>
	</g>
</g>
<g>
	<g>
		<path d="M460.8,162.1h-32.3l-8.5-42.7h6.7c4.7,0,8.5-3.8,8.5-8.5V76.8c0-4.7-3.8-8.5-8.5-8.5H247.5c-23.5,0-42.7,19.1-42.7,42.7
			c0,4.7,3.8,8.5,8.5,8.5h16.2l-7.3,76.9c-0.1,0-0.2-0.1-0.4-0.1H128c-32.4,0-57.1,32.5-59.5,63.3C29,270.7,0,306.9,0,349.9
			c0,51.8,42.1,93.9,93.9,93.9c45.9,0,84.2-33.2,92.2-76.8h80.8c2.5,0,4.9-1.1,6.6-3.1c1.6-2,2.3-4.5,1.8-7
			c-1.5-7.9-2.2-15.9-2.2-24c0-70.6,57.4-128,128-128c36.7,0,71.7,15.8,96,43.3c2.3,2.7,6.1,3.6,9.4,2.3c3.3-1.2,5.5-4.4,5.5-8
			v-29.1C512,185.1,489,162.1,460.8,162.1z M93.9,426.7c-42.3,0-76.8-34.4-76.8-76.8s34.5-76.8,76.8-76.8s76.8,34.4,76.8,76.8
			C170.7,392.2,136.2,426.7,93.9,426.7z M257,349.9h-69.3c0-51.8-42.1-93.9-93.9-93.9c-2.6,0-5.2,0.2-7.8,0.4
			c1.1-6,3.2-12.1,6.3-17.8c0.5,0.1,1,0.3,1.5,0.3h17.1c4.7,0,8.5-3.8,8.5-8.5s-3.8-8.5-8.5-8.5H106c6.4-5.2,13.9-8.5,22-8.5h92.6
			l-7.2,76c-0.2,2.4,0.6,4.8,2.2,6.6c1.6,1.8,3.9,2.8,6.3,2.8h38.4c-2.7,11-4.2,22.4-4.2,34.1C256,338.5,256.3,344.2,257,349.9z
			 M401.1,187.7c-62,0-114.9,39.2-135.6,94c-0.3,0-0.6-0.2-0.9-0.2h-33.3l15.4-162.1h155.9l13.8,69.2
			C411.3,188.1,406.2,187.7,401.1,187.7z M418.1,102.4H223.3c3.5-9.9,13-17.1,24.1-17.1h170.7L418.1,102.4L418.1,102.4z
			 M494.9,222.2c-17.5-14.8-38.3-25.2-60.5-30.4l-2.5-12.6h28.8c18.8,0,34.1,15.3,34.1,34.1L494.9,222.2L494.9,222.2z"/>
	</g>
</g>
</svg>
