<?xml version="1.0" encoding="utf-8"?>
<!-- Generator: Adobe Illustrator 22.1.0, SVG Export Plug-In . SVG Version: 6.00 Build 0)  -->
<svg version="1.1" id="Layer_1" xmlns="http://www.w3.org/2000/svg" xmlns:xlink="http://www.w3.org/1999/xlink" x="0px" y="0px"
	 viewBox="0 0 133 78.3" style="enable-background:new 0 0 133 78.3;" xml:space="preserve">
<style type="text/css">
	.st0{fill:#565F73;}
</style>
<g>
	<g>
		<path class="st0" d="M126.2,78.3H6.8C3,78.3,0,75.1,0,71.2V7.1C0,3.2,3,0,6.8,0h119.5c3.7,0,6.8,3.2,6.8,7.1v64.1
			C133,75.1,130,78.3,126.2,78.3z M6.8,6C6.4,6,6,6.4,6,7.1v64.1c0,0.6,0.4,1.1,0.8,1.1h119.5c0.4,0,0.8-0.4,0.8-1.1V7.1
			c0-0.6-0.4-1.1-0.8-1.1H6.8z"/>
	</g>
	<g>
		<path class="st0" d="M66.5,66.7c-12,0-21.8-12.4-21.8-27.6c0-15.2,9.8-27.6,21.8-27.6c12,0,21.8,12.4,21.8,27.6
			C88.3,54.4,78.5,66.7,66.5,66.7z M66.5,17.5c-8.7,0-15.8,9.7-15.8,21.6s7.1,21.6,15.8,21.6c8.7,0,15.8-9.7,15.8-21.6
			S75.2,17.5,66.5,17.5z"/>
	</g>
	<g>
		<path class="st0" d="M104.9,69.2H84.3c-1.7,0-3-1.3-3-3c0-1.7,1.3-3,3-3h17.5c0.5-9.1,7-16.5,15.2-17.4V30.5
			c-7.5-0.9-13.6-7-15-15H84.3c-1.7,0-3-1.3-3-3c0-1.7,1.3-3,3-3h20.5c1.6,0,2.9,1.3,3,2.9c0.2,6.8,5.1,12.2,11.1,12.2
			c0.3,0,0.6,0,0.9,0c0.8-0.1,1.7,0.2,2.3,0.8c0.6,0.6,1,1.4,1,2.2v21.2c0,0.8-0.4,1.6-1,2.2c-0.6,0.6-1.5,0.8-2.3,0.8
			c-0.3,0-0.6,0-0.9,0c-6.1,0-11.1,5.7-11.1,12.7c0,0.5,0,1,0.1,1.6c0.1,0.8-0.2,1.7-0.8,2.3C106.6,68.9,105.8,69.2,104.9,69.2z"/>
	</g>
	<g>
		<path class="st0" d="M49.2,69.2H28.3c-0.9,0-1.7-0.4-2.2-1c-0.6-0.6-0.8-1.5-0.7-2.3c0.1-0.5,0.1-1,0.1-1.5
			c0-7-5.1-12.7-11.3-12.7c-0.3,0-0.6,0-0.9,0c-0.8,0.1-1.7-0.2-2.3-0.8c-0.6-0.6-1-1.4-1-2.2V27.6c0-0.8,0.4-1.6,1-2.2
			c0.6-0.6,1.5-0.9,2.3-0.8c0.3,0,0.6,0,0.9,0c6.1,0,11.1-5.4,11.3-12.2c0.1-1.6,1.4-2.9,3-2.9h20.8c1.7,0,3,1.3,3,3
			c0,1.7-1.3,3-3,3H31.1c-1.4,8-7.5,14.2-15.2,15v15.3c8.3,0.9,14.9,8.3,15.4,17.4h17.8c1.7,0,3,1.3,3,3
			C52.2,67.9,50.8,69.2,49.2,69.2z"/>
	</g>
</g>
</svg>
