<?xml version="1.0" encoding="utf-8"?>
<!-- Generator: Adobe Illustrator 22.1.0, SVG Export Plug-In . SVG Version: 6.00 Build 0)  -->
<svg version="1.1" id="Capa_1" xmlns="http://www.w3.org/2000/svg" xmlns:xlink="http://www.w3.org/1999/xlink" x="0px" y="0px"
	 viewBox="0 0 512 512" style="enable-background:new 0 0 512 512;" xml:space="preserve">
<path d="M481.6,317.8c-29.8-29.8-73.7-37-110.4-21.7V119.5c0-7.3-2.8-14.2-8-19.3L271.1,8c-2.2-2.2-4.7-3.9-7.4-5.2c0,0,0,0,0,0
	c-0.1-0.1-0.3-0.1-0.4-0.2c-0.2-0.1-0.5-0.2-0.7-0.3c-3.4-1.5-7.1-2.3-10.8-2.3h-222C13.8,0,0.8,13,0.8,28.9v454.2
	c0,15.9,13,28.9,28.9,28.9h312.6c15.3,0,27.9-11.9,28.9-27.2c0-0.2,0-0.4,0-0.6v-2.1c12.5,5.2,25.7,7.8,39,7.8
	c25.8,0,51.7-9.8,71.3-29.5c19.1-19.1,29.6-44.4,29.6-71.3C511.2,362.2,500.7,336.8,481.6,317.8z M337.2,102.3h-66
	c-1.2,0-2.2-1-2.2-2.2v-66L337.2,102.3z M351.3,483.9c-0.4,4.6-4.3,8.1-8.9,8.1H29.7c-4.9,0-8.9-4-8.9-8.9V28.9c0-4.9,4-8.9,8.9-8.9
	H249v80.1c0,12.2,10,22.2,22.2,22.2h80.1v185c-4.3,3.1-8.5,6.6-12.4,10.5c-19.1,19.1-29.6,44.4-29.6,71.3
	c0,26.9,10.5,52.3,29.6,71.3c3.9,3.9,8,7.4,12.3,10.5L351.3,483.9L351.3,483.9z M467.5,446.3c-31.5,31.5-82.9,31.5-114.4,0
	c-15.3-15.3-23.7-35.6-23.7-57.2c0-21.6,8.4-41.9,23.7-57.2c15.8-15.8,36.5-23.7,57.2-23.7s41.4,7.9,57.2,23.7
	c15.3,15.3,23.7,35.6,23.7,57.2C491.2,410.7,482.8,431.1,467.5,446.3z"/>
<path d="M445.8,360.3l-46.9,39.8l-23.9-25c-3.8-4-10.1-4.1-14.1-0.3c-4,3.8-4.1,10.1-0.3,14.1l30.4,31.8c2,2,4.6,3.1,7.2,3.1
	c2.3,0,4.6-0.8,6.5-2.4l54-46c4.2-3.6,4.7-9.9,1.1-14.1C456.3,357.3,450,356.8,445.8,360.3z"/>
<path d="M71.2,159.2h139.3c5.5,0,10-4.5,10-10c0-5.5-4.5-10-10-10H71.2c-5.5,0-10,4.5-10,10C61.2,154.7,65.7,159.2,71.2,159.2z"/>
<path d="M245.2,319h-174c-5.5,0-10,4.5-10,10s4.5,10,10,10h174c5.5,0,10-4.5,10-10S250.7,319,245.2,319z"/>
<path d="M245.2,378.9h-174c-5.5,0-10,4.5-10,10c0,5.5,4.5,10,10,10h174c5.5,0,10-4.5,10-10C255.2,383.3,250.7,378.9,245.2,378.9z"/>
<path d="M301.4,259.1H71.2c-5.5,0-10,4.5-10,10c0,5.5,4.5,10,10,10h230.2c5.5,0,10-4.5,10-10C311.4,263.5,306.9,259.1,301.4,259.1z"
	/>
<path d="M70.2,219.8h180.2c5.5,0,10-4.5,10-10s-4.5-10-10-10H70.2c-5.5,0-10,4.5-10,10S64.7,219.8,70.2,219.8z"/>
<circle cx="300.2" cy="209.8" r="10"/>
</svg>
