<?xml version="1.0" encoding="utf-8"?>
<!-- Generator: Adobe Illustrator 22.1.0, SVG Export Plug-In . SVG Version: 6.00 Build 0)  -->
<svg version="1.1" id="Layer_1" xmlns="http://www.w3.org/2000/svg" xmlns:xlink="http://www.w3.org/1999/xlink" x="0px" y="0px"
	 viewBox="0 0 340.6 340.6" style="enable-background:new 0 0 340.6 340.6;" xml:space="preserve">
<style type="text/css">
	.st0{stroke:#000000;stroke-width:4;stroke-miterlimit:10;}
</style>
<path class="st0" d="M311.6,21.7h-28.4v-5.7c0-9.4-7.6-17.1-17.1-17.1h-11.4c-9.4,0-17.1,7.6-17.1,17.1v5.7H101.3v-5.7
	C101.3,6.6,93.7-1,84.3-1H72.9c-9.4,0-17.1,7.6-17.1,17.1v5.7H27.4C11.7,21.8-1,34.5-1,50.1v261.4c0,15.7,12.7,28.4,28.4,28.4h284.2
	c15.7,0,28.4-12.7,28.4-28.4V50.1C340,34.5,327.3,21.8,311.6,21.7z M249.1,16.1c0-3.1,2.5-5.7,5.7-5.7h11.4c3.1,0,5.7,2.5,5.7,5.7
	v34.1c0,3.1-2.5,5.7-5.7,5.7h-11.4c-3.1,0-5.7-2.5-5.7-5.7V16.1z M67.2,16.1c0-3.1,2.5-5.7,5.7-5.7h11.4c3.1,0,5.7,2.5,5.7,5.7v34.1
	c0,3.1-2.5,5.7-5.7,5.7H72.9c-3.1,0-5.7-2.5-5.7-5.7V16.1z M10.4,50.1c0-9.4,7.6-17,17.1-17h28.4v17c0,9.4,7.6,17.1,17.1,17.1h11.4
	c9.4,0,17.1-7.6,17.1-17.1v-17h136.4v17c0,9.4,7.6,17.1,17.1,17.1h11.4c9.4,0,17-7.6,17-17.1v-17h28.4c9.4,0,17.1,7.6,17.1,17v39.8
	H10.4V50.1z M328.6,311.6c0,9.4-7.6,17.1-17.1,17.1H27.4c-9.4,0-17.1-7.6-17.1-17.1V101.3h318.3V311.6z"/>
<path class="st0" d="M158.1,152.8h-45.5v45.5h45.5V152.8z M146.8,186.9H124v-22.7h22.7V186.9z"/>
<path class="st0" d="M226.3,152.8h-45.5v45.5h45.5V152.8z M215,186.9h-22.7v-22.7H215V186.9z"/>
<path class="st0" d="M294.5,152.8h-45.5v45.5h45.5V152.8z M283.2,186.9h-22.7v-22.7h22.7V186.9z"/>
<path class="st0" d="M89.9,152.8H44.5v45.5h45.5V152.8z M78.6,186.9H55.8v-22.7h22.7V186.9z"/>
<path class="st0" d="M89.9,227.8H44.5v45.5h45.5V227.8z M78.6,261.9H55.8v-22.7h22.7V261.9z"/>
<path class="st0" d="M158.1,227.8h-45.5v45.5h45.5V227.8z M146.8,261.9H124v-22.7h22.7V261.9z"/>
<path class="st0" d="M226.3,227.8h-45.5v45.5h45.5V227.8z M215,261.9h-22.7v-22.7H215V261.9z"/>
</svg>
