<?xml version="1.0" encoding="utf-8"?>
<!-- Generator: Adobe Illustrator 22.1.0, SVG Export Plug-In . SVG Version: 6.00 Build 0)  -->
<svg version="1.1" id="Layer_1" xmlns="http://www.w3.org/2000/svg" xmlns:xlink="http://www.w3.org/1999/xlink" x="0px" y="0px"
	 viewBox="0 0 512 234.3" style="enable-background:new 0 0 512 234.3;" xml:space="preserve">
<g>
	<g>
		<path d="M68.3,191.7c0,23.5,19.1,42.7,42.7,42.7c23.5,0,42.7-19.1,42.7-42.7c0-23.5-19.1-42.7-42.7-42.7S68.3,168.1,68.3,191.7z
			 M85.3,191.7c0-14.1,11.5-25.6,25.6-25.6s25.6,11.5,25.6,25.6s-11.5,25.6-25.6,25.6S85.3,205.8,85.3,191.7z"/>
	</g>
</g>
<g>
	<g>
		<path d="M358.4,191.7c0,23.5,19.1,42.7,42.7,42.7c23.5,0,42.7-19.1,42.7-42.7c0-23.5-19.1-42.7-42.7-42.7
			C377.5,149,358.4,168.1,358.4,191.7z M375.5,191.7c0-14.1,11.5-25.6,25.6-25.6c14.1,0,25.6,11.5,25.6,25.6s-11.5,25.6-25.6,25.6
			C386.9,217.3,375.5,205.8,375.5,191.7z"/>
	</g>
</g>
<g>
	<g>
		<path d="M0,157.5l0,34.1c0,4.7,3.8,8.5,8.5,8.5h34.1c4.7,0,8.5-3.8,8.5-8.5c0-32.9,26.8-59.7,59.7-59.7
			c32.9,0,59.7,26.8,59.7,59.7c0,4.7,3.8,8.5,8.5,8.5h153.6c4.7,0,8.5-3.8,8.5-8.5c0-32.9,26.8-59.7,59.7-59.7s59.7,26.8,59.7,59.7
			c0,4.7,3.8,8.5,8.5,8.5h34.1c4.7,0,8.5-3.8,8.5-8.5v-34.1c0-4.7-3.8-8.5-8.5-8.5v-25.6c0-32.5-58.7-50.3-115.4-51.2
			C339.1,12.9,262.7-10.1,161,4c-0.1,0-0.2,0-0.3,0.1c-55.1,9.7-80,38.9-98.1,69.6L14.4,89.7c-3.5,1.2-5.8,4.4-5.8,8.1V149
			C3.8,149,0,152.8,0,157.5z M119.4,72.2H83.6c9.6-14.3,20.6-26.3,35.4-35.4L119.4,72.2z M221.9,72.2h-85.4L136,28.5
			c8.1-3.2,17.2-5.8,27.4-7.6c20.7-2.9,40.2-4.1,58.4-3.8V72.2z M365,72.2H238.9V17.8C291.7,21.5,333.4,39.6,365,72.2z M17.1,166.1
			c4.7,0,8.5-3.8,8.5-8.5v-25.6h8.5c4.7,0,8.5-3.8,8.5-8.5s-3.8-8.5-8.5-8.5h-8.5V104l44.1-14.7H384c51.4,0,86.7,13.1,98.3,25.6
			h-4.4c-4.7,0-8.5,3.8-8.5,8.5s3.8,8.5,8.5,8.5h8.5v25.6c0,4.7,3.8,8.5,8.5,8.5v17.1h-17.5c-4.3-38.3-36.9-68.3-76.3-68.3
			s-72.1,29.9-76.3,68.3H187.3c-4.3-38.3-36.9-68.3-76.3-68.3s-72.1,29.9-76.3,68.3H17.1V166.1z"/>
	</g>
</g>
</svg>
