<?xml version="1.0" encoding="utf-8"?>
<!-- Generator: Adobe Illustrator 22.1.0, SVG Export Plug-In . SVG Version: 6.00 Build 0)  -->
<svg version="1.1" id="Layer_1" xmlns="http://www.w3.org/2000/svg" xmlns:xlink="http://www.w3.org/1999/xlink" x="0px" y="0px"
	 viewBox="0 0 133.6 165.7" style="enable-background:new 0 0 133.6 165.7;" xml:space="preserve">
<path d="M29,68.8c16,0,29-13,29-29c0-16-13-29-29-29s-29,13-29,29C0,55.8,13,68.7,29,68.8z M29,24.8c8.3,0,15,6.7,15,15
	c0,8.3-6.7,15-15,15c-8.3,0-15-6.7-15-15C14,31.5,20.7,24.8,29,24.8z"/>
<path d="M75.6,127.7c0,16,13,29,29,29c16,0,29-13,29-29s-13-29-29-29C88.6,98.8,75.7,111.7,75.6,127.7z M119.6,127.7
	c0,8.3-6.7,15-15,15c-8.3,0-15-6.7-15-15s6.7-15,15-15C112.9,112.8,119.6,119.5,119.6,127.7z"/>
<path d="M14.4,164.6c3.2,2.1,7.6,1.2,9.7-2l99-151.7c1.4-2.1,1.5-4.8,0.4-7c-1.1-2.2-3.4-3.7-5.9-3.8s-4.9,1.1-6.2,3.2l-99,151.7
	C10.2,158.2,11.1,162.5,14.4,164.6z"/>
</svg>
