<?xml version="1.0" encoding="utf-8"?>
<!-- Generator: Adobe Illustrator 22.0.1, SVG Export Plug-In . SVG Version: 6.00 Build 0)  -->
<svg version="1.1" id="Layer_1" xmlns="http://www.w3.org/2000/svg" xmlns:xlink="http://www.w3.org/1999/xlink" x="0px" y="0px"
	 viewBox="0 0 26 26.7" style="enable-background:new 0 0 26 26.7;" xml:space="preserve">
<style type="text/css">
	.st0{fill:#FFFFFF;}
</style>
<g>
	<g>
		<path class="st0" d="M5.2,13.8C2.3,13.8,0,11,0,7.5C0,4,2.3,1.2,5.2,1.2c2.9,0,5.2,2.8,5.2,6.3C10.4,11,8.1,13.8,5.2,13.8z
			 M5.2,2.5c-2.2,0-3.9,2.2-3.9,5c0,2.8,1.8,5,3.9,5c2.2,0,3.9-2.2,3.9-5C9.1,4.8,7.4,2.5,5.2,2.5z"/>
	</g>
	<g>
		<path class="st0" d="M5.2,11.2c-1.7,0-3.1-1.6-3.1-3.7s1.4-3.7,3.1-3.7c1.7,0,3.1,1.6,3.1,3.7S6.9,11.2,5.2,11.2z M5.2,5.1
			c-1,0-1.8,1.1-1.8,2.4s0.8,2.4,1.8,2.4c1,0,1.8-1.1,1.8-2.4S6.2,5.1,5.2,5.1z"/>
	</g>
	<g>
		<path class="st0" d="M20.8,25.4c-2.9,0-5.2-2.8-5.2-6.3s2.3-6.3,5.2-6.3c2.9,0,5.2,2.8,5.2,6.3S23.7,25.4,20.8,25.4z M20.8,14.2
			c-2.2,0-3.9,2.2-3.9,5c0,2.8,1.8,5,3.9,5c2.2,0,3.9-2.2,3.9-5C24.7,16.4,22.9,14.2,20.8,14.2z"/>
	</g>
	<g>
		<path class="st0" d="M7.6,26.7h-4c-0.2,0-0.4-0.1-0.6-0.3c-0.1-0.2-0.1-0.4,0-0.6L17.8,0.3C17.9,0.1,18.1,0,18.3,0h4
			c0.2,0,0.4,0.1,0.6,0.3C23,0.5,23,0.8,22.9,1L8.1,26.4C8,26.6,7.8,26.7,7.6,26.7z M4.7,25.4h2.5l14-24.1h-2.5L4.7,25.4z"/>
	</g>
	<g>
		<path class="st0" d="M20.8,22.8c-1.7,0-3.1-1.6-3.1-3.7s1.4-3.7,3.1-3.7c1.7,0,3.1,1.6,3.1,3.7S22.5,22.8,20.8,22.8z M20.8,16.8
			c-1,0-1.8,1.1-1.8,2.4s0.8,2.4,1.8,2.4c1,0,1.8-1.1,1.8-2.4S21.8,16.8,20.8,16.8z"/>
	</g>
</g>
</svg>
