<?xml version="1.0" encoding="utf-8"?>
<!-- Generator: Adobe Illustrator 22.1.0, SVG Export Plug-In . SVG Version: 6.00 Build 0)  -->
<svg version="1.1" id="Layer_1" xmlns="http://www.w3.org/2000/svg" xmlns:xlink="http://www.w3.org/1999/xlink" x="0px" y="0px"
	 viewBox="0 0 415.9 498.8" style="enable-background:new 0 0 415.9 498.8;" xml:space="preserve">
<path d="M71.9,379.4c34.6,41.6,77.7,75.4,126.5,99c18,8.6,42,18.7,68.1,20.3c1.5,0.1,3,0.1,4.3,0.1c14.9,0,26.9-5.1,36.7-15.6
	c0.1-0.1,0.2-0.2,0.2-0.3c5-5.7,10.2-11.2,15.8-16.3l1.9-1.9c3-2.9,5.8-5.6,8.6-8.6c11.2-11.7,11.1-24.8-0.2-36.1l-46.3-46.3
	l-0.1-0.1c-2.9-3.2-8.9-8.3-17.2-8.3c-6.1,0-12.2,2.9-17.6,8.4l-28.8,28.8c-1.1,1.1-3.8,3.8-7.8,3.8c-1.8,0-3.5-0.5-5.1-1.3l0,0
	c-0.2-0.1-0.5-0.3-0.7-0.4c-2.7-1.6-5.6-3.1-8.7-4.7c-3.3-1.6-6.6-3.4-9.7-5.3c-26.3-16.7-50.2-38.4-73-66.4
	c-0.1-0.1-0.1-0.2-0.2-0.3c-12.3-15.6-20.3-28.7-25.9-42.2l-0.2-0.5c-1.4-4.5-1.4-7.9,2.7-12c0.1-0.1,0.1-0.1,0.2-0.2l0,0
	c7.2-6.5,13.7-13,21.3-20.7c1.7-1.6,3.3-3.3,4.9-4.8c0.8-0.8,1.6-1.6,2.4-2.4c11.6-11.6,11.6-24.4,0-36L101,186.2
	c-1.3-1.4-2.7-2.7-4-4.1c-1.3-1.4-2.7-2.7-4-4c-5.6-5.8-10.3-10.6-15.3-15.2l-0.2-0.2c-5.2-5.2-11.2-7.9-17.2-7.9
	c-6,0-12.1,2.7-17.6,7.9c-0.1,0.1-0.1,0.1-0.2,0.2l-28.7,28.7c-8,7.8-12.8,18.2-13.6,29.4c-1.4,16.6,1.7,33.8,9.8,55.6
	C23.1,311.5,42.7,344.2,71.9,379.4z M262.5,383.7c1.6-1.6,4.7-4.3,7.7-4.3c3.1,0,5.9,2.7,6.9,3.9c0.1,0.1,0.2,0.2,0.3,0.3L324,430
	c5.8,5.8,5.9,10.2,0.2,16.2c-0.3,0.2-0.5,0.5-0.7,0.8c-0.2,0.3-0.5,0.5-0.8,0.8l-62.2-62.2L262.5,383.7z M52.4,172.8
	c2.8-2.6,5.5-4,7.9-4c2.9,0,5.6,2.1,7.3,3.8l0.3,0.3c0.1,0.1,0.1,0.1,0.2,0.2c4.8,4.5,9.4,9.2,14.9,14.8c1.3,1.4,2.7,2.7,4,4.1
	c1.3,1.3,2.6,2.7,4,4c0,0,0.1,0.1,0.1,0.1l23,23c6.2,6.2,6.2,10,0,16.2c-0.7,0.7-1.3,1.3-2,2l-62-62L52.4,172.8z M14.3,222
	c0.5-7.8,3.9-15.2,9.6-20.6l16.3-16.3l62,62c-5.6,5.6-10.7,10.6-16.2,15.6l0,0c-0.4,0.3-0.7,0.6-1,1c-10.5,10.8-6.9,22.1-5.8,25.8
	c0,0,0,0.1,0,0.1l0.3,0.8c0.1,0.2,0.1,0.3,0.2,0.5c6.2,14.9,14.8,29.1,28.1,46c0.1,0.1,0.2,0.3,0.3,0.4
	c23.7,29.1,48.6,51.8,76.2,69.2c3.5,2.2,7.2,4.2,11,6c2.9,1.4,5.6,2.8,7.8,4.1c0.1,0.1,0.3,0.2,0.4,0.2l0.1,0
	c0.4,0.2,0.7,0.4,1.1,0.6c3.5,1.8,7.5,2.8,11.5,2.8c6.6,0,12.5-2.6,17.7-7.9l16.9-16.9l62.1,62.1c-5.4,5.1-10.6,10.5-15.5,16.1
	c-7.2,7.6-15.3,11-26.4,11c-1.2,0-2.4,0-3.4-0.1c-23.8-1.5-46.2-11-63-19C157.5,443,116,410.5,82.6,370.4
	c-28.1-33.9-47-65.3-59.4-98.8C15.9,251.7,13.1,236.4,14.3,222z"/>
<path d="M198,261.1l-12.5,46.2c-1,3.7,1.2,7.6,4.9,8.6c2,0.5,4.1,0.2,5.8-1l49.1-34.4c9.5,1.9,19.1,2.9,28.8,2.9
	c78.1,0,141.7-63.6,141.7-141.7S352.3,0,274.2,0S132.5,63.6,132.5,141.7C132.5,190.1,157.2,235.1,198,261.1L198,261.1z M274.2,14
	c70.5,0.1,127.6,57.3,127.5,127.8s-57.3,127.6-127.8,127.5c-9.6,0-19.1-1.1-28.4-3.2c-1.9-0.4-4,0-5.6,1.1l-35.8,25.1l8.8-32.6
	c0.8-3-0.5-6.3-3.2-7.9C148.8,216.2,128.4,138,164,77.1C187,38,228.9,14,274.2,14L274.2,14z"/>
<circle cx="224.5" cy="140.5" r="16.8"/>
<circle cx="275.5" cy="140.5" r="16.8"/>
<circle cx="326.5" cy="140.5" r="16.8"/>
</svg>
