<?xml version="1.0" encoding="utf-8"?>
<!-- Generator: Adobe Illustrator 22.0.1, SVG Export Plug-In . SVG Version: 6.00 Build 0)  -->
<svg version="1.1" id="Layer_1" xmlns="http://www.w3.org/2000/svg" xmlns:xlink="http://www.w3.org/1999/xlink" x="0px" y="0px"
	 viewBox="0 0 26 25.4" style="enable-background:new 0 0 26 25.4;" xml:space="preserve">
<style type="text/css">
	.st0{fill:#FFFFFF;}
</style>
<g>
	<g>
		<path class="st0" d="M12.8,10.7c-0.2,0-0.3-0.1-0.5-0.2L6.1,3.4C5.9,3.1,5.9,2.7,6.1,2.5c1.3-1.2,2.9-2,4.7-2.3
			C12.5-0.2,14.3,0,16,0.6c0.3,0.1,0.5,0.4,0.4,0.8l-3,9c-0.1,0.2-0.2,0.4-0.5,0.4C12.8,10.7,12.8,10.7,12.8,10.7z M7.4,3l5.1,5.9
			L15,1.5c-1.3-0.4-2.7-0.4-4-0.1C9.7,1.6,8.5,2.2,7.4,3z"/>
	</g>
	<g>
		<path class="st0" d="M13.2,25.4C13.2,25.4,13.2,25.4,13.2,25.4c-6.1,0-11.5-4.3-12.9-10.1C-0.7,11,0.7,6.7,4,3.9
			c0.2-0.2,0.6-0.2,0.8,0.1l8,8.9l10.3,6.4c0.1,0.1,0.2,0.2,0.3,0.4c0,0.2,0,0.3-0.1,0.5c-1.8,2.8-4.6,4.6-8,5.2
			C14.6,25.4,13.9,25.4,13.2,25.4z M4.4,5.2C1.7,7.7,0.7,11.4,1.5,15c1.2,5.3,6.1,9.2,11.7,9.2c0,0,0,0,0,0c0.6,0,1.3-0.1,1.9-0.2
			c2.8-0.5,5.2-1.9,6.8-4.2l-9.9-6.1c0,0-0.1-0.1-0.1-0.1L4.4,5.2z"/>
	</g>
	<g>
		<path class="st0" d="M23.7,18.2c-0.1,0-0.2,0-0.3-0.1l-9.3-5.8c-0.2-0.1-0.3-0.4-0.3-0.7l0-0.1c0,0,0,0,0-0.1l3.6-10.1
			c0.1-0.3,0.5-0.5,0.8-0.4c3.8,1.4,6.7,4.6,7.6,8.6c0.6,2.9,0.1,5.8-1.5,8.3C24.1,18.1,23.9,18.2,23.7,18.2z M15.1,11.5l8.4,5.3
			c1.2-2.1,1.5-4.5,1-6.9c-0.7-3.3-3.1-6.1-6.2-7.5L15.1,11.5z"/>
	</g>
</g>
</svg>
