<?xml version="1.0" encoding="utf-8"?>
<!-- Generator: Adobe Illustrator 22.0.1, SVG Export Plug-In . SVG Version: 6.00 Build 0)  -->
<svg version="1.1" id="Layer_1" xmlns="http://www.w3.org/2000/svg" xmlns:xlink="http://www.w3.org/1999/xlink" x="0px" y="0px"
	 viewBox="0 0 32 32" style="enable-background:new 0 0 32 32;" xml:space="preserve">
<style type="text/css">
	.st0{fill:#FFFFFF;stroke:#FFFFFF;stroke-width:4;stroke-miterlimit:10;}
</style>
<path class="st0" d="M27.7,3.9h-2.3V3.4c0-0.8-0.6-1.4-1.4-1.4H23c-0.8,0-1.4,0.6-1.4,1.4v0.5H10.4V3.4C10.4,2.6,9.8,2,9,2H8.1
	C7.3,2,6.7,2.6,6.7,3.4v0.5H4.3C3,3.9,2,4.9,2,6.2v21.5C2,29,3,30,4.3,30h23.3c1.3,0,2.3-1,2.3-2.3V6.2C30,4.9,29,3.9,27.7,3.9z
	 M22.5,3.4c0-0.3,0.2-0.5,0.5-0.5h0.9c0.3,0,0.5,0.2,0.5,0.5v2.8c0,0.3-0.2,0.5-0.5,0.5H23c-0.3,0-0.5-0.2-0.5-0.5V3.4z M7.6,3.4
	c0-0.3,0.2-0.5,0.5-0.5H9c0.3,0,0.5,0.2,0.5,0.5v2.8c0,0.3-0.2,0.5-0.5,0.5H8.1c-0.3,0-0.5-0.2-0.5-0.5V3.4z M2.9,6.2
	c0-0.8,0.6-1.4,1.4-1.4h2.3v1.4c0,0.8,0.6,1.4,1.4,1.4H9c0.8,0,1.4-0.6,1.4-1.4V4.8h11.2v1.4c0,0.8,0.6,1.4,1.4,1.4h0.9
	c0.8,0,1.4-0.6,1.4-1.4V4.8h2.3c0.8,0,1.4,0.6,1.4,1.4v3.3H2.9V6.2z M29.1,27.7c0,0.8-0.6,1.4-1.4,1.4H4.3c-0.8,0-1.4-0.6-1.4-1.4
	V10.4h26.1V27.7z"/>
<path class="st0" d="M15.1,14.6h-3.7v3.7h3.7V14.6z M14.1,17.4h-1.9v-1.9h1.9V17.4z"/>
<path class="st0" d="M20.7,14.6h-3.7v3.7h3.7V14.6z M19.7,17.4h-1.9v-1.9h1.9V17.4z"/>
<path class="st0" d="M26.3,14.6h-3.7v3.7h3.7V14.6z M25.3,17.4h-1.9v-1.9h1.9V17.4z"/>
<path class="st0" d="M9.5,14.6H5.7v3.7h3.7V14.6z M8.5,17.4H6.7v-1.9h1.9V17.4z"/>
<path class="st0" d="M9.5,20.8H5.7v3.7h3.7V20.8z M8.5,23.6H6.7v-1.9h1.9V23.6z"/>
<path class="st0" d="M15.1,20.8h-3.7v3.7h3.7V20.8z M14.1,23.6h-1.9v-1.9h1.9V23.6z"/>
<path class="st0" d="M20.7,20.8h-3.7v3.7h3.7V20.8z M19.7,23.6h-1.9v-1.9h1.9V23.6z"/>
</svg>
