<?xml version="1.0" encoding="utf-8"?>
<!-- Generator: Adobe Illustrator 22.1.0, SVG Export Plug-In . SVG Version: 6.00 Build 0)  -->
<svg version="1.1" id="Layer_1" xmlns="http://www.w3.org/2000/svg" xmlns:xlink="http://www.w3.org/1999/xlink" x="0px" y="0px"
	 viewBox="0 0 417.8 362.4" style="enable-background:new 0 0 417.8 362.4;" xml:space="preserve">
<path d="M410.8,55.4h-47.4V7c0-3.9-3.1-7-7-7h-295c-3.9,0-7,3.1-7,7v48.4H28.3C12.7,55.4,0,68.1,0,83.8v245.8
	c0,18.2,14.7,32.9,32.9,32.9h377.9c3.9,0,7-3.1,7-7v-293C417.8,58.6,414.7,55.4,410.8,55.4L410.8,55.4z M403.8,274.5h-82.3
	c-21.8,0-39.5-17.7-39.5-39.5s17.7-39.5,39.5-39.5l0,0h82.3V274.5z M68.4,14h281v64.6h-16.3V54.5c0-3.9-3.1-7-7-7
	c-7.7,0-14-6.2-14-14c0-3.9-3.1-7-7-7H112.7c-3.9,0-7,3.1-7,7c0,7.7-6.3,13.9-14,14c-3.9,0-7,3.1-7,7v24.1H68.4L68.4,14z
	 M319.1,78.6H98.7v-18c9.8-2.6,17.5-10.2,20.1-20.1H299c2.6,9.8,10.2,17.5,20.1,20.1V78.6z M14,83.8c0-7.9,6.4-14.3,14.3-14.3h26.1
	v9.2H41.6c-3.9,0-7,3.1-7,7s3.1,7,7,7h334.7c3.9,0,7-3.1,7-7s-3.1-7-7-7h-12.8v-9.2h40.4v32.4H28.3c-7.9,0-14.3-6.4-14.3-14.3V83.8
	L14,83.8z M32.9,348.4c-10.4,0-18.9-8.5-18.9-18.9V111.9c4.3,2.6,9.3,3.9,14.3,3.9h375.5v65.7h-82.3c-29.5,0-53.5,23.9-53.5,53.5
	s23.9,53.5,53.5,53.5l0,0h82.3v59.9L32.9,348.4z"/>
<path d="M300.1,235.3c0,13.3,10.8,24.1,24.1,24.1c13.3,0,24.1-10.8,24.1-24.1c0-13.3-10.8-24.1-24.1-24.1c0,0,0,0,0,0
	C310.9,211.2,300.1,222,300.1,235.3z M324.2,225.2c5.6,0,10.1,4.5,10.1,10.1c0,5.6-4.5,10.1-10.1,10.1c-5.6,0-10.1-4.5-10.1-10.1
	c0,0,0,0,0,0C314.1,229.7,318.6,225.2,324.2,225.2z"/>
</svg>
