<?xml version="1.0" encoding="utf-8"?>
<!-- Generator: Adobe Illustrator 22.0.1, SVG Export Plug-In . SVG Version: 6.00 Build 0)  -->
<svg version="1.1" id="Layer_1" xmlns="http://www.w3.org/2000/svg" xmlns:xlink="http://www.w3.org/1999/xlink" x="0px" y="0px"
	 viewBox="0 0 33 27.5" style="enable-background:new 0 0 33 27.5;" xml:space="preserve">
<style type="text/css">
	.st0{fill:#FFFFFF;}
</style>
<g>
	<g>
		<path class="st0" d="M22.1,27.5H2c-1.1,0-2-0.9-2-2V14.3c0-1.1,0.9-2,2-2h11.2c0.4,0,0.7,0.3,0.7,0.7c0,0.4-0.3,0.7-0.7,0.7H2
			c-0.3,0-0.6,0.3-0.6,0.6v11.2c0,0.3,0.3,0.6,0.6,0.6h20.1c0.3,0,0.6-0.3,0.6-0.6v-8.8c0-0.4,0.3-0.7,0.7-0.7
			c0.4,0,0.7,0.3,0.7,0.7v8.8C24.1,26.6,23.2,27.5,22.1,27.5z"/>
	</g>
	<g>
		<g>
			<path class="st0" d="M24.3,13.3c-0.1,0-0.3,0-0.4-0.1l-5.7-4.1c-0.3-0.2-0.4-0.6-0.1-0.9l4.8-6.7C23.6,0.6,24.6,0,25.8,0
				c0.8,0,1.5,0.2,2.1,0.7l1,0.7c1.6,1.2,2,3.4,0.8,5l-4.8,6.7c-0.1,0.1-0.3,0.2-0.4,0.3C24.4,13.3,24.3,13.3,24.3,13.3z M19.5,8.4
				l4.6,3.3l4.4-6.1c0.7-1,0.5-2.4-0.5-3.2l-1-0.7c-0.4-0.3-0.8-0.4-1.3-0.4c-0.7,0-1.4,0.3-1.8,0.9L19.5,8.4z"/>
		</g>
		<g>
			<path class="st0" d="M12.3,23.6c-0.1,0-0.3,0-0.4-0.1c-0.2-0.2-0.3-0.4-0.2-0.7l1.7-7.2c0-0.1,0.1-0.2,0.1-0.2l5-6.8
				c0.2-0.3,0.6-0.4,0.9-0.1c0.3,0.2,0.4,0.6,0.1,0.9l-4.9,6.7l-1.3,5.6l5.1-2.9l4.9-6.7c0.2-0.3,0.6-0.4,0.9-0.1
				c0.3,0.2,0.4,0.6,0.1,0.9l-5,6.8c-0.1,0.1-0.1,0.1-0.2,0.2l-6.5,3.7C12.5,23.6,12.4,23.6,12.3,23.6z"/>
		</g>
		<g>
			<path class="st0" d="M18.7,19.9c-0.1,0-0.3,0-0.4-0.1l-4.6-3.3c-0.3-0.2-0.4-0.6-0.1-0.9c0.2-0.3,0.6-0.4,0.9-0.1l4.6,3.3
				c0.3,0.2,0.4,0.6,0.1,0.9C19.1,19.8,18.9,19.9,18.7,19.9z"/>
		</g>
		<g>
			<path class="st0" d="M27.5,16.1c-0.5,0-1-0.2-1.4-0.5c-0.5-0.4-0.9-0.9-1-1.5c-0.1-0.6,0-1.3,0.4-1.8c0.4-0.6,1.2-1,1.9-1
				c0.5,0,1,0.2,1.4,0.5c0.5,0.4,0.9,0.9,1,1.5c0.1,0.6,0,1.3-0.4,1.8C29,15.7,28.3,16.1,27.5,16.1z M27.5,12.7
				c-0.3,0-0.6,0.2-0.8,0.4c-0.2,0.2-0.2,0.5-0.2,0.8c0,0.3,0.2,0.5,0.4,0.7c0.2,0.1,0.4,0.2,0.6,0.2c0.3,0,0.6-0.2,0.8-0.4
				c0.2-0.2,0.2-0.5,0.2-0.8c0-0.3-0.2-0.5-0.4-0.7C27.9,12.7,27.7,12.7,27.5,12.7z"/>
		</g>
		<g>
			<path class="st0" d="M28.4,12.6c-0.2,0-0.4-0.1-0.5-0.2c-0.2-0.3-0.2-0.7,0.1-0.9c0.6-0.5,1-0.9,1.9-1.9c0.2-0.2,0.5-0.5,0.7-0.7
				c0.9-0.9,1.1-1.4,1.1-1.6c0-0.1,0-0.2-0.4-0.5l-1.5-1.1c-0.3-0.2-0.4-0.6-0.1-0.9c0.2-0.3,0.6-0.4,0.9-0.1L32,5.5
				c0.6,0.4,0.9,0.9,1,1.5c0.1,0.8-0.4,1.6-1.4,2.7c-0.3,0.3-0.5,0.5-0.7,0.7c-1,1-1.4,1.4-2,1.9C28.7,12.5,28.5,12.6,28.4,12.6z"/>
		</g>
	</g>
	<g>
		<path class="st0" d="M10.2,18.4H4.4c-0.4,0-0.7-0.3-0.7-0.7c0-0.4,0.3-0.7,0.7-0.7h5.8c0.4,0,0.7,0.3,0.7,0.7
			C10.9,18.1,10.6,18.4,10.2,18.4z"/>
	</g>
	<g>
		<path class="st0" d="M10,21.6H4.4c-0.4,0-0.7-0.3-0.7-0.7c0-0.4,0.3-0.7,0.7-0.7H10c0.4,0,0.7,0.3,0.7,0.7
			C10.7,21.3,10.4,21.6,10,21.6z"/>
	</g>
</g>
</svg>
