<?xml version="1.0" encoding="utf-8"?>
<!-- Generator: Adobe Illustrator 22.0.1, SVG Export Plug-In . SVG Version: 6.00 Build 0)  -->
<svg version="1.1" id="Layer_1" xmlns="http://www.w3.org/2000/svg" xmlns:xlink="http://www.w3.org/1999/xlink" x="0px" y="0px"
	 viewBox="0 0 26 26" style="enable-background:new 0 0 26 26;" xml:space="preserve">
<style type="text/css">
	.st0{fill:#FFFFFF;}
</style>
<g>
	<g>
		<path class="st0" d="M8.4,7.2H7.2C7,7.2,6.8,7.4,6.8,7.6C6.8,7.8,7,8,7.2,8H8C8,8.2,8.2,8.3,8.4,8.3c0.2,0,0.4-0.2,0.4-0.4V7.6
			C8.8,7.4,8.6,7.2,8.4,7.2z"/>
	</g>
</g>
<g>
	<g>
		<path class="st0" d="M12.4,7.2h-1.1c-0.2,0-0.4,0.2-0.4,0.4v0.3c0,0.2,0.2,0.4,0.4,0.4c0.2,0,0.3-0.1,0.4-0.3h0.7
			c0.2,0,0.4-0.2,0.4-0.4C12.8,7.4,12.6,7.2,12.4,7.2z"/>
	</g>
</g>
<g>
	<g>
		<path class="st0" d="M10.7,9.7H8.9c-0.2,0-0.4,0.2-0.4,0.4c0,0.2,0.2,0.4,0.4,0.4h1.8c0.2,0,0.4-0.2,0.4-0.4
			C11.1,9.9,11,9.7,10.7,9.7z"/>
	</g>
</g>
<g>
	<g>
		<path class="st0" d="M15.5,5.8c-0.1-0.2-0.2-0.3-0.4-0.3h-1c-1.5,0-2.9-0.7-3.9-1.8c-0.1-0.1-0.2-0.1-0.3-0.1
			c-0.1,0-0.2,0.1-0.3,0.1c-1,1.2-2.4,1.8-3.9,1.8h-1c-0.2,0-0.3,0.1-0.4,0.3C4,6.4,3.9,7,3.9,7.6V9c0,3.3,2.7,5.9,5.9,5.9
			s5.9-2.7,5.9-5.9V7.6C15.8,7,15.7,6.4,15.5,5.8z M14.9,9c0,2.8-2.3,5.1-5.1,5.1S4.7,11.8,4.7,9V7.6c0-0.4,0.1-0.8,0.2-1.2h0.7
			c1.6,0,3.1-0.6,4.2-1.8c1.1,1.1,2.6,1.8,4.2,1.8h0.7c0.1,0.4,0.2,0.8,0.2,1.2V9z"/>
	</g>
</g>
<g>
	<g>
		<path class="st0" d="M24.6,12.2c-0.2,0-0.4,0-0.6,0.1v-0.9c0-0.8-0.6-1.4-1.4-1.4c-0.2,0-0.4,0-0.6,0.1V10c0-0.8-0.6-1.4-1.4-1.4
			S19,9.2,19,10v0.1c-0.1-0.1-0.2-0.1-0.3-0.1c-0.2-0.6-0.7-1.1-1.3-1.4v-1C17.4,3.4,14,0,9.8,0S2.2,3.4,2.2,7.6v1
			C1.3,9.1,0.8,10,0.8,11c0,0.5,0.1,0.9,0.4,1.4c-0.4,0.7-0.6,1.4-0.6,2.2c0,1.7,1,3.2,2.5,3.9C1.2,20.2,0,22.8,0,25.6
			C0,25.8,0.2,26,0.4,26s0.4-0.2,0.4-0.4c0-3.4,1.9-6.4,4.8-7.9c0.1,0.5,0.3,1.1,0.6,1.6c0,0,0,0,0,0.1c1.1,1.9,3.2,3.3,3.3,3.4
			c0.1,0.1,0.2,0.1,0.2,0.1s0.2,0,0.2-0.1c0.2-0.1,3.5-2.5,4-5.1c0.3,0.2,0.6,0.3,0.9,0.5l0,2.3c0,3,2.5,5.5,5.6,5.5
			c1.5,0,2.9-0.6,3.9-1.6c1-1,1.6-2.4,1.6-3.9v-6.8C26,12.9,25.4,12.2,24.6,12.2z M21.9,11.5c0-0.3,0.3-0.6,0.6-0.6
			c0.3,0,0.6,0.3,0.6,0.6V17h-1.2V11.5z M19.9,10c0-0.3,0.3-0.6,0.6-0.6c0.3,0,0.6,0.3,0.6,0.6v7h-1.2V10z M18.4,10.8
			C18.4,10.8,18.4,10.8,18.4,10.8C18.4,10.8,18.4,10.8,18.4,10.8c0.4,0,0.6,0.3,0.6,0.6V17h-1.2v-5.5C17.8,11.1,18.1,10.9,18.4,10.8
			z M9.8,21.9c-0.5-0.4-1.6-1.3-2.4-2.4h4.8C11.4,20.6,10.3,21.5,9.8,21.9z M12.8,18.6H6.8c-0.2-0.4-0.4-0.9-0.5-1.4
			c1.1-0.4,2.2-0.7,3.4-0.7c1.2,0,2.4,0.2,3.4,0.7C13.2,17.7,13,18.2,12.8,18.6z M14.9,15.4l0,1.8c-1.5-0.9-3.3-1.4-5.1-1.4
			c-1.4,0-2.8,0.3-4,0.9c0,0-0.1,0-0.1,0C5,17,4.4,17.4,3.8,17.8c-1.4-0.4-2.4-1.8-2.4-3.3c0-0.7,0.2-1.4,0.6-2
			c0.1-0.1,0.1-0.3,0-0.5c-0.2-0.3-0.4-0.7-0.4-1.1c0-0.7,0.5-1.4,1.2-1.7C2.9,9.2,3,9.1,3,8.9V7.6c0-3.7,3-6.8,6.8-6.8
			s6.8,3,6.8,6.8v1.3c0,0.2,0.1,0.3,0.3,0.4c0.4,0.2,0.8,0.5,1,0.8c-0.5,0.2-0.8,0.7-0.8,1.3v2.6c-0.2-0.1-0.4-0.1-0.6-0.1
			C15.6,13.9,14.9,14.6,14.9,15.4z M25.2,20.5L25.2,20.5c0,2.6-2.1,4.7-4.7,4.7c-2.6,0-4.7-2.1-4.7-4.7l0-2.5c0,0,0,0,0-0.1l0-2.6
			c0-0.3,0.3-0.6,0.6-0.6S17,15,17,15.4V19c0,0.2,0.2,0.4,0.4,0.4c1.5,0,2.7,1.2,2.7,2.7c0,0.2,0.2,0.4,0.4,0.4
			c0.2,0,0.4-0.2,0.4-0.4c0-0.9-0.4-1.8-1-2.5c-0.6-0.6-1.3-0.9-2.1-1v-0.9h6.1c0.2,0,0.4-0.2,0.4-0.4c0-0.2-0.2-0.4-0.4-0.4v-3.4
			c0.1-0.3,0.3-0.5,0.6-0.5c0.3,0,0.6,0.3,0.6,0.6L25.2,20.5L25.2,20.5z"/>
	</g>
</g>
</svg>
