<?xml version="1.0" encoding="utf-8"?>
<!-- Generator: Adobe Illustrator 22.1.0, SVG Export Plug-In . SVG Version: 6.00 Build 0)  -->
<svg version="1.1" id="Capa_1" xmlns="http://www.w3.org/2000/svg" xmlns:xlink="http://www.w3.org/1999/xlink" x="0px" y="0px"
	 viewBox="0 0 512 512" style="enable-background:new 0 0 512 512;" xml:space="preserve">
<g>
	<g>
		<g>
			<path d="M437,62.2L377.3,2.5c-1.6-1.6-3.8-2.5-6.1-2.5H166.4c-18.9,0-34.1,15.3-34.1,34.1v34.1h-25.6
				c-18.9,0-34.1,15.3-34.1,34.1v375.5c0,18.9,15.3,34.1,34.1,34.1h238.9c18.9,0,34.1-15.3,34.1-34.1v-34.1h25.6
				c18.9,0,34.1-15.3,34.1-34.1V68.3C439.5,66,438.6,63.8,437,62.2z M371.2,20.6L419,68.3h-47.8V20.6z M362.7,477.9
				c0,9.4-7.6,17.1-17.1,17.1H106.7c-9.4,0-17.1-7.6-17.1-17.1V102.4c0-9.4,7.6-17.1,17.1-17.1h25.6v324.3
				c0,18.9,15.3,34.1,34.1,34.1h196.3V477.9z M422.4,409.6c0,9.4-7.6,17.1-17.1,17.1H166.4c-9.4,0-17.1-7.6-17.1-17.1V34.1
				c0-9.4,7.6-17.1,17.1-17.1h187.7v59.7c0,4.7,3.8,8.5,8.5,8.5h59.7V409.6z"/>
			<path d="M183.5,170.7c0,4.7,3.8,8.5,8.5,8.5h187.7c4.7,0,8.5-3.8,8.5-8.5s-3.8-8.5-8.5-8.5H192
				C187.3,162.1,183.5,166,183.5,170.7z"/>
			<path d="M379.7,264.5H192c-4.7,0-8.5,3.8-8.5,8.5c0,4.7,3.8,8.5,8.5,8.5h187.7c4.7,0,8.5-3.8,8.5-8.5
				C388.3,268.4,384.4,264.5,379.7,264.5z"/>
			<path d="M192,213.3h93.9c4.7,0,8.5-3.8,8.5-8.5s-3.8-8.5-8.5-8.5H192c-4.7,0-8.5,3.8-8.5,8.5S187.3,213.3,192,213.3z"/>
			<path d="M379.7,196.3h-51.2c-4.7,0-8.5,3.8-8.5,8.5s3.8,8.5,8.5,8.5h51.2c4.7,0,8.5-3.8,8.5-8.5S384.4,196.3,379.7,196.3z"/>
			<path d="M379.7,230.4h-93.9c-4.7,0-8.5,3.8-8.5,8.5s3.8,8.5,8.5,8.5h93.9c4.7,0,8.5-3.8,8.5-8.5S384.4,230.4,379.7,230.4z"/>
			<path d="M192,247.5h51.2c4.7,0,8.5-3.8,8.5-8.5s-3.8-8.5-8.5-8.5H192c-4.7,0-8.5,3.8-8.5,8.5S187.3,247.5,192,247.5z"/>
		</g>
	</g>
</g>
</svg>
