<?xml version="1.0" encoding="utf-8"?>
<!-- Generator: Adobe Illustrator 22.1.0, SVG Export Plug-In . SVG Version: 6.00 Build 0)  -->
<svg version="1.1" id="Layer_1" xmlns="http://www.w3.org/2000/svg" xmlns:xlink="http://www.w3.org/1999/xlink" x="0px" y="0px"
	 viewBox="0 0 512 512" style="enable-background:new 0 0 512 512;" xml:space="preserve">
<g id="Page-1">
	<g id="_x30_05---Rosette">
		<path id="Shape" d="M68.7,233.9c4.5,5.6,6.5,12.8,5.6,20l-1.6,12.6c-2.3,20.2,9.3,39.5,28.2,47l12.3,5c6.9,2.7,12.5,8.1,15.6,14.8
			l5.3,11.7c5.2,11.4,14.8,20.1,26.6,24.3L133,467.1c-1.6,5.7-0.1,11.8,3.9,16.1c4,4.3,10,6.3,15.8,5.2l38.5-7.3l29,26.3
			c3.1,2.9,7.2,4.5,11.5,4.5c1.6,0,3.2-0.2,4.7-0.7c5.7-1.6,10.2-6.1,11.8-11.8l18.5-65.6l41.2,46.7c3.9,4.4,9.9,6.5,15.7,5.5
			c5.8-1,10.7-5,12.9-10.4l14.7-36.3l37.9-10.1c5.7-1.5,10.2-5.9,11.9-11.6c1.7-5.7,0.4-11.8-3.5-16.2l-34-38.6
			c6.4-4.6,11.5-10.8,14.7-17.9l5.3-11.7c3.1-6.8,8.7-12.1,15.6-14.8l12.3-5c18.9-7.5,30.5-26.8,28.2-47l-1.6-12.6v0
			c-0.9-7.2,1.1-14.4,5.6-20l8-10.2c12.6-16,12.6-38.5,0-54.4l-8-10.2c-4.5-5.6-6.5-12.9-5.6-20l1.6-12.6c2.3-20.2-9.3-39.5-28.2-47
			l-12.3-5c-6.9-2.7-12.5-8.1-15.6-14.8L378,47.9c-8.7-18.5-28.3-29.3-48.6-26.9l-13.2,1.5c-7.6,0.9-15.4-1.1-21.6-5.5l-10.7-7.6
			c-16.7-12-39.2-12-55.9,0L217.4,17c-6.3,4.5-14,6.4-21.6,5.5L182.6,21c-20.3-2.5-39.9,8.4-48.6,26.9l-5.3,11.7
			c-3.1,6.8-8.7,12.1-15.6,14.8l-12.3,5c-18.9,7.5-30.5,26.8-28.2,47l1.6,12.6c0.9,7.2-1.1,14.4-5.6,20l-8,10.2
			c-12.6,16-12.6,38.5,0,54.5L68.7,233.9z M231.6,494.9l-28.9-26.2c-4-3.8-9.5-5.4-14.8-4.3l-38.5,7.4l28.1-99.6c1.7,0,3.3,0,5-0.2
			l13.2-1.5c6-0.7,12.1,0.4,17.4,3.1l39.9,45.2L231.6,494.9z M384.5,412.9l-37.9,10.1c-5.2,1.4-9.4,5.1-11.4,10.1l-14.7,36.3
			l-67.9-77c1.1,0.1,2.3,0.3,3.4,0.3c10,0,19.8-3.1,28-9l10.7-7.6c6.3-4.5,14-6.4,21.6-5.5l13.2,1.5c6,0.6,12,0.2,17.8-1.4
			L384.5,412.9z M74.1,179.8l8-10.2c7.3-9.2,10.6-21,9.1-32.7l-1.6-12.6c-1.3-12.6,5.9-24.5,17.7-29.1l12.3-5
			c11-4.4,19.8-12.9,24.7-23.6l5.3-11.7c5.6-11.8,18.1-18.6,31-16.9l13.2,1.5c11.9,1.4,23.8-1.6,33.5-8.6l10.7-7.6
			c10.8-7.6,25.2-7.6,36,0l10.7,7.6c9.7,7,21.7,10,33.5,8.6l13.2-1.5c12.9-1.6,25.4,5.2,31,16.9l5.3,11.7
			c4.9,10.8,13.7,19.2,24.7,23.6l12.3,5c11.8,4.6,19,16.5,17.7,29.1l-1.6,12.6c-1.5,11.7,1.8,23.5,9.1,32.7l8,10.2
			c7.8,9.7,7.8,23.6,0,33.4l-8,10.2c-7.3,9.2-10.6,21-9.1,32.7l1.6,12.6c1.3,12.6-5.9,24.5-17.7,29.1l-12.3,5
			c-11,4.4-19.8,12.9-24.7,23.6l-5.3,11.7c-5.6,11.7-18.1,18.6-31,16.9l-13.2-1.5c-11.9-1.4-23.8,1.6-33.5,8.6l-10.7,7.6
			c-10.8,7.6-25.2,7.6-36,0l-10.7-7.7c-1.6-1.1-3.2-2-4.8-2.9c-0.1-0.1-0.2-0.2-0.4-0.2c-7-3.8-14.8-5.8-22.7-5.8
			c-1.9,0-3.8,0.1-5.6,0.3l-13.2,1.5c-12.9,1.6-25.4-5.2-31-16.9l-5.3-11.7c-4.9-10.8-13.7-19.2-24.7-23.6l-12.3-5
			c-11.8-4.6-19-16.5-17.7-29.1l1.6-12.6c1.5-11.7-1.8-23.5-9.1-32.7l-8-10.2C66.3,203.4,66.3,189.5,74.1,179.8L74.1,179.8z"/>
		<path id="Shape_1_" d="M256,324.7c70.7,0,128-57.3,128-128s-57.3-128-128-128s-128,57.3-128,128
			C128.1,267.3,185.3,324.6,256,324.7z M256,85.7c61.3,0,110.9,49.7,110.9,110.9S317.3,307.6,256,307.6s-110.9-49.7-110.9-110.9
			C145.1,135.4,194.8,85.8,256,85.7z"/>
	</g>
</g>
<path id="Shape_2_" d="M316.9,165.5l-31.4-4.9l-14.4-28.3c-2.9-5.7-8.8-9.3-15.2-9.3s-12.3,3.6-15.2,9.3l-14.4,28.3l-31.4,4.9
	c-6.4,1-11.7,5.5-13.6,11.6c-2,6.1-0.3,12.9,4.2,17.4l22.5,22.4l-5,31.3c-1.1,6.4,1.6,12.8,6.7,16.6c5.2,3.8,12.1,4.4,17.8,1.4
	l28.3-14.6c30.6,15.7,30.6,16.4,36.1,16.4c5,0.1,9.9-2.1,13.1-5.9c3.3-3.8,4.7-8.9,3.9-13.9l-5-31.3l22.5-22.4
	c4.6-4.6,6.2-11.3,4.2-17.5C328.7,170.9,323.3,166.4,316.9,165.5L316.9,165.5z M291.7,204.7c-3.9,3.9-5.7,9.4-4.8,14.8l5,31.3
	c-27.6-13.9-30.1-16.4-36.1-16.4s-6.7,1.4-36.1,16.4l5-31.3c0.9-5.4-0.9-11-4.8-14.8l-22.5-22.4l31.4-4.9c5.4-0.9,10.1-4.3,12.5-9.1
	l14.4-28.3l14.3,28.3c2.5,4.9,7.2,8.3,12.6,9.1l31.4,4.9L291.7,204.7z"/>
</svg>
