<?xml version="1.0" encoding="utf-8"?>
<!-- Generator: Adobe Illustrator 22.1.0, SVG Export Plug-In . SVG Version: 6.00 Build 0)  -->
<svg version="1.1" id="Layer_1" xmlns="http://www.w3.org/2000/svg" xmlns:xlink="http://www.w3.org/1999/xlink" x="0px" y="0px"
	 viewBox="0 0 129 126.2" style="enable-background:new 0 0 129 126.2;" xml:space="preserve">
<style type="text/css">
	.st0{fill:#565F73;}
</style>
<g>
	<g>
		<path class="st0" d="M63.4,53.2c-0.9,0-1.7-0.4-2.3-1L30.2,16.7c-1.1-1.2-1-3.1,0.3-4.2C37,6.6,45,2.7,53.6,0.9
			c8.6-1.7,17.5-1.1,25.8,1.8c1.5,0.5,2.4,2.2,1.9,3.8l-15,44.6c-0.3,1-1.2,1.8-2.3,2C63.8,53.1,63.6,53.2,63.4,53.2z M36.8,15.1
			l25.5,29.2L74.6,7.5c-6.4-1.8-13.2-2-19.8-0.7C48.2,8.1,42,11,36.8,15.1z"/>
	</g>
	<g>
		<path class="st0" d="M65.3,126.2C65.3,126.2,65.3,126.2,65.3,126.2C35,126.2,8.2,105.1,1.5,76C-3.3,54.8,3.7,33,19.9,19.2
			c1.2-1.1,3.1-0.9,4.2,0.3l39.5,43.9l51.2,32c0.7,0.4,1.2,1.1,1.3,1.9c0.2,0.8,0,1.6-0.4,2.3c-8.9,13.8-23,23-39.8,25.9
			C72.4,125.9,68.9,126.2,65.3,126.2z M21.6,25.7C8.7,38.1,3.2,56.6,7.4,74.6c6.1,26.4,30.4,45.6,58,45.6c0,0,0,0,0,0
			c3.2,0,6.4-0.3,9.6-0.8c14-2.4,26-9.7,34-20.7L60,68.2c-0.2-0.1-0.5-0.3-0.6-0.5L21.6,25.7z"/>
	</g>
	<g>
		<path class="st0" d="M117.8,90.5c-0.5,0-1.1-0.1-1.6-0.5L69.8,61c-1.1-0.7-1.6-2-1.3-3.2l0.1-0.3c0-0.1,0.1-0.2,0.1-0.3l17.8-50
			c0.6-1.6,2.3-2.4,3.8-1.8c19.1,6.7,33.4,23,37.6,42.5c3,14.4,0.4,29-7.5,41.3C119.8,90,118.8,90.5,117.8,90.5z M75,57.1l41.8,26.1
			c5.8-10.4,7.6-22.4,5.1-34.3c-3.5-16.5-15.2-30.5-30.9-37L75,57.1z"/>
	</g>
</g>
</svg>
