<?xml version="1.0" encoding="utf-8"?>
<!-- Generator: Adobe Illustrator 22.1.0, SVG Export Plug-In . SVG Version: 6.00 Build 0)  -->
<svg version="1.1" id="Capa_1" xmlns="http://www.w3.org/2000/svg" xmlns:xlink="http://www.w3.org/1999/xlink" x="0px" y="0px"
	 viewBox="0 0 48 48" style="enable-background:new 0 0 48 48;" xml:space="preserve">
<g>
	<g>
		<path d="M48,21.9c0-0.1,0-0.2-0.1-0.3c0,0,0-0.1,0-0.1c0-0.1-0.1-0.2-0.2-0.3c0,0,0,0,0,0L42,15.6V10c0,0,0,0,0-0.1
			c0-0.1,0-0.2-0.1-0.3c0,0,0-0.1,0-0.1c0-0.1-0.1-0.2-0.2-0.3l-9-9c-0.1-0.1-0.2-0.1-0.3-0.2c0,0-0.1,0-0.1,0c-0.1,0-0.2,0-0.3-0.1
			c0,0,0,0-0.1,0H7C6.4,0,6,0.4,6,1v14.6l-5.7,5.7c0,0,0,0,0,0c-0.1,0.1-0.1,0.2-0.2,0.3c0,0,0,0.1,0,0.1c0,0.1,0,0.2-0.1,0.3
			c0,0,0,0,0,0.1v19c0,0.6,0.4,1,1,1h5v5c0,0.6,0.4,1,1,1h34c0.6,0,1-0.4,1-1v-5h5c0.6,0,1-0.4,1-1L48,21.9C48,22,48,22,48,21.9z
			 M44.6,21H42v-2.6L44.6,21z M38.6,9H33V3.4L38.6,9z M8,2h23v8c0,0.6,0.4,1,1,1h8v5v5H8v-5V2z M6,18.4V21H3.4L6,18.4z M40,46H8v-4
			h32V46z M46,40H2V23h5h34h5V40z"/>
		<path d="M18.3,26.7c-0.3-0.3-0.7-0.5-1.1-0.6C16.7,26,16.4,26,16,26h-3.3v12h2v-4.8h1.4c0.4,0,0.8-0.1,1.2-0.2
			c0.4-0.1,0.7-0.4,1.1-0.7c0.3-0.3,0.6-0.7,0.7-1.1c0.2-0.5,0.3-1,0.3-1.6c0-0.7-0.1-1.2-0.3-1.7C18.8,27.4,18.6,27,18.3,26.7z
			 M17,31c-0.3,0.3-0.7,0.5-1.2,0.5h-1.2v-3.8h1.2c0.5,0,0.9,0.1,1.2,0.4s0.5,0.8,0.5,1.4C17.4,30.2,17.3,30.7,17,31z"/>
		<polygon points="30.7,38 32.8,38 32.8,32.8 35.9,32.8 35.9,31.1 32.8,31.1 32.8,27.8 36.1,27.8 36.1,26 30.7,26 		"/>
		<path d="M24.1,26h-3v12h3c1.6,0,2.7-0.5,3.5-1.6c0.8-1,1.2-2.5,1.2-4.4c0-1.9-0.4-3.4-1.2-4.4C26.8,26.5,25.6,26,24.1,26z
			 M26.5,33.8c-0.1,0.5-0.3,1-0.6,1.3c-0.2,0.4-0.5,0.6-0.9,0.8c-0.3,0.2-0.7,0.3-1.1,0.3h-1v-8.5h1c0.4,0,0.7,0.1,1.1,0.3
			c0.3,0.2,0.6,0.4,0.9,0.8c0.2,0.4,0.4,0.8,0.6,1.3s0.2,1.2,0.2,1.9C26.7,32.7,26.7,33.3,26.5,33.8z"/>
	</g>
</g>
</svg>
