<?xml version="1.0" encoding="UTF-8"?>
<svg width="112px" height="114px" viewBox="0 0 112 114" version="1.1" xmlns="http://www.w3.org/2000/svg" xmlns:xlink="http://www.w3.org/1999/xlink">
    <!-- Generator: Sketch 50.2 (55047) - http://www.bohemiancoding.com/sketch -->
    <title>Vector Smart Object</title>
    <desc>Created with Sketch.</desc>
    <defs></defs>
    <g id="Page-1" stroke="none" stroke-width="1" fill="none" fill-rule="evenodd" fill-opacity="0.2">
        <g id="Vector-Smart-Object" fill="#FFFFFF" fill-rule="nonzero">
            <polygon id="Shape" points="55.4035503 0 52.8189349 7.95266272 44.4686391 7.95266272 51.2284024 12.8568047 48.643787 20.8094675 55.4035503 15.9053254 62.1633136 20.8094675 59.5786982 12.8568047 66.3384615 7.95266272 57.9881657 7.95266272"></polygon>
            <polygon id="Shape" points="34.3952663 6.89230769 32.6721893 12.1278107 27.1053254 12.1278107 31.6118343 15.3751479 29.8887574 20.6769231 34.3952663 17.4295858 38.835503 20.6769231 37.112426 15.3751479 41.6189349 12.1278107 36.052071 12.1278107"></polygon>
            <polygon id="Shape" points="21.1408284 20.6769231 19.947929 24.4544379 15.9715976 24.4544379 19.1526627 26.7739645 17.9597633 30.5514793 21.1408284 28.2319527 24.3881657 30.5514793 23.1289941 26.7739645 26.3763314 24.4544379 22.4 24.4544379"></polygon>
            <polygon id="Shape" points="91.5218935 24.4544379 90.2627219 20.6769231 89.0698225 24.4544379 85.0934911 24.4544379 88.2745562 26.7739645 87.0816568 30.5514793 90.2627219 28.2319527 93.5100592 30.5514793 92.2508876 26.7739645 95.4319527 24.4544379"></polygon>
            <polygon id="Shape" points="77.0745562 6.89230769 75.3514793 12.1278107 69.8508876 12.1278107 74.2911243 15.3751479 72.5680473 20.6769231 77.0745562 17.4295858 81.5147929 20.6769231 79.791716 15.3751479 84.2982249 12.1278107 78.7976331 12.1278107"></polygon>
            <path d="M9.54319527,67.4650888 C9.54319527,67.4650888 16.8331361,62.7597633 15.6402367,55.4698225 C15.6402367,55.4698225 7.95266272,59.1147929 9.54319527,67.4650888 Z" id="Shape"></path>
            <path d="M30.3526627,91.9857988 C30.3526627,91.9857988 30.6840237,100.534911 38.9680473,102.32426 C38.9680473,102.32426 37.5763314,93.7751479 30.3526627,91.9857988 Z" id="Shape"></path>
            <path d="M72.7005917,102.32426 C80.9846154,100.534911 81.3159763,91.9857988 81.3159763,91.9857988 C74.0923077,93.7751479 72.7005917,102.32426 72.7005917,102.32426 Z" id="Shape"></path>
            <path d="M105.04142,49.1076923 C110.939645,43.0106509 106.433136,35.7207101 106.433136,35.7207101 C101.462722,41.2213018 105.04142,49.1076923 105.04142,49.1076923 Z" id="Shape"></path>
            <path d="M27.1053254,96.8236686 C27.1053254,96.8236686 30.1538462,88.7384615 24.7857988,83.5692308 C24.7857988,83.5692308 20.8094675,91.1242604 27.1053254,96.8236686 Z" id="Shape"></path>
            <path d="M60.7053254,107.427219 C69.1881657,106.764497 70.6461538,98.347929 70.6461538,98.347929 C63.2899408,99.1431953 60.7053254,107.427219 60.7053254,107.427219 Z" id="Shape"></path>
            <path d="M19.4177515,90.5940828 C19.4177515,90.5940828 24.1230769,83.304142 20.0142012,77.1408284 C20.0804734,77.1408284 14.5136095,83.7017751 19.4177515,90.5940828 Z" id="Shape"></path>
            <path d="M10.2059172,44.7337278 C10.2059172,44.7337278 18.2248521,41.4863905 18.4236686,34.0639053 C18.3573964,34.0639053 10.0733728,36.2508876 10.2059172,44.7337278 Z" id="Shape"></path>
            <path d="M9.74201183,55.5360947 C9.74201183,55.5360947 17.4295858,51.6260355 17.0319527,44.2035503 C16.9656805,44.2035503 8.94674556,47.0532544 9.74201183,55.5360947 Z" id="Shape"></path>
            <path d="M14.2485207,78.9301775 C14.2485207,78.9301775 19.5502959,72.0378698 15.9053254,65.5431953 C15.9053254,65.6094675 9.87455621,71.6402367 14.2485207,78.9301775 Z" id="Shape"></path>
            <path d="M50.9633136,107.427219 C50.9633136,107.427219 48.3786982,99.1431953 41.0224852,98.347929 C41.0224852,98.347929 42.4804734,106.764497 50.9633136,107.427219 Z" id="Shape"></path>
            <path d="M71.2426036,106.300592 C77.0745562,112.463905 84.5633136,108.35503 84.5633136,108.35503 C79.2615385,103.119527 71.2426036,106.300592 71.2426036,106.300592 Z" id="Shape"></path>
            <path d="M81.8461538,101.727811 C88.1420118,107.427219 95.2994083,102.721893 95.2994083,102.721893 C89.6,97.8840237 81.8461538,101.727811 81.8461538,101.727811 Z" id="Shape"></path>
            <path d="M59.9763314,110.144379 C65.808284,116.307692 73.2970414,112.198817 73.2970414,112.198817 C68.0615385,106.963314 59.9763314,110.144379 59.9763314,110.144379 Z" id="Shape"></path>
            <path d="M96.2934911,87.6781065 C104.312426,90.4615385 109.017751,83.304142 109.017751,83.304142 C101.926627,81.1171598 96.2934911,87.6781065 96.2934911,87.6781065 Z" id="Shape"></path>
            <path d="M99.9384615,79.791716 C108.288757,81.1171598 111.668639,73.2307692 111.668639,73.2307692 C104.312426,72.3692308 99.9384615,79.791716 99.9384615,79.791716 Z" id="Shape"></path>
            <path d="M88.6059172,96.2272189 C96.2272189,100.004734 101.794083,93.5100592 101.794083,93.5100592 C95.0343195,90.3952663 88.6059172,96.2272189 88.6059172,96.2272189 Z" id="Shape"></path>
            <path d="M15.3751479,87.6781065 C15.3751479,87.6781065 9.74201183,81.1171598 2.65088757,83.304142 C2.65088757,83.304142 7.35621302,90.4615385 15.3751479,87.6781065 Z" id="Shape"></path>
            <path d="M55.8674556,105.04142 C55.8674556,105.04142 55.8674556,105.04142 55.8674556,105.04142 C55.8011834,105.04142 55.8011834,105.04142 55.8674556,105.04142 C54.4094675,105.04142 53.2828402,106.168047 53.2828402,107.559763 C53.2828402,108.951479 54.4094675,110.078107 55.8011834,110.078107 C55.8011834,110.078107 55.8011834,110.078107 55.8011834,110.078107 C55.8011834,110.078107 55.8011834,110.078107 55.8011834,110.078107 C57.1928994,110.078107 58.3195266,108.951479 58.3195266,107.559763 C58.3857988,106.168047 57.2591716,105.04142 55.8674556,105.04142 Z" id="Shape"></path>
            <path d="M23.0627219,96.2272189 C23.0627219,96.2272189 16.6343195,90.3952663 9.87455621,93.5100592 C9.87455621,93.5100592 15.4414201,100.004734 23.0627219,96.2272189 Z" id="Shape"></path>
            <path d="M110.276923,49.1739645 C104.113609,53.2828402 105.63787,61.8319527 105.63787,61.8319527 C112.861538,57.3254438 110.276923,49.1739645 110.276923,49.1739645 Z" id="Shape"></path>
            <path d="M111.40355,61.964497 C104.312426,64.2177515 103.450888,72.8331361 103.450888,72.8331361 C111.602367,70.5136095 111.40355,61.964497 111.40355,61.964497 Z" id="Shape"></path>
            <path d="M38.3715976,112.198817 C38.3715976,112.198817 45.860355,116.307692 51.6923077,110.144379 C51.6923077,110.144379 43.6733728,106.963314 38.3715976,112.198817 Z" id="Shape"></path>
            <path d="M16.435503,102.721893 C16.435503,102.721893 23.5928994,107.427219 29.8887574,101.727811 C29.8887574,101.727811 22.0686391,97.8840237 16.435503,102.721893 Z" id="Shape"></path>
            <path d="M40.4923077,106.300592 C40.4923077,106.300592 32.4071006,103.119527 27.1715976,108.35503 C27.1715976,108.35503 34.660355,112.463905 40.4923077,106.300592 Z" id="Shape"></path>
            <path d="M1.39171598,49.1739645 C1.39171598,49.1739645 -1.19289941,57.3254438 6.03076923,61.8319527 C6.03076923,61.8319527 7.55502959,53.2828402 1.39171598,49.1739645 Z" id="Shape"></path>
            <path d="M102.125444,67.4650888 C103.782249,59.1147929 96.0284024,55.4698225 96.0284024,55.4698225 C94.835503,62.7597633 102.125444,67.4650888 102.125444,67.4650888 Z" id="Shape"></path>
            <path d="M8.21775148,72.8331361 C8.21775148,72.8331361 7.35621302,64.2177515 0.265088757,61.964497 C0.265088757,61.964497 0.0662721893,70.5136095 8.21775148,72.8331361 Z" id="Shape"></path>
            <path d="M5.23550296,35.7207101 C5.23550296,35.7207101 0.728994083,43.0106509 6.62721893,49.1076923 C6.62721893,49.1076923 10.2059172,41.2213018 5.23550296,35.7207101 Z" id="Shape"></path>
            <path d="M11.7301775,79.791716 C11.7301775,79.791716 7.35621302,72.3029586 0,73.2307692 C0,73.2970414 3.37988166,81.1171598 11.7301775,79.791716 Z" id="Shape"></path>
            <path d="M84.5633136,96.8236686 C90.8591716,91.1242604 86.8828402,83.5692308 86.8828402,83.5692308 C81.5147929,88.6721893 84.5633136,96.8236686 84.5633136,96.8236686 Z" id="Shape"></path>
            <path d="M97.4201183,78.9301775 C101.794083,71.6402367 95.7633136,65.5431953 95.7633136,65.5431953 C92.1846154,72.104142 97.4201183,78.9301775 97.4201183,78.9301775 Z" id="Shape"></path>
            <path d="M92.2508876,90.5940828 C97.1550296,83.7017751 91.6544379,77.1408284 91.6544379,77.1408284 C87.4792899,83.304142 92.2508876,90.5940828 92.2508876,90.5940828 Z" id="Shape"></path>
            <path d="M94.7029586,44.2035503 C94.2390533,51.6260355 101.992899,55.5360947 101.992899,55.5360947 C102.721893,47.0532544 94.7029586,44.2035503 94.7029586,44.2035503 Z" id="Shape"></path>
        </g>
    </g>
</svg>