<?xml version="1.0" encoding="utf-8"?>
<!-- Generator: Adobe Illustrator 22.1.0, SVG Export Plug-In . SVG Version: 6.00 Build 0)  -->
<svg version="1.1" id="OBJECTS" xmlns="http://www.w3.org/2000/svg" xmlns:xlink="http://www.w3.org/1999/xlink" x="0px" y="0px"
	 viewBox="0 0 17.4151859 40.9626694" style="enable-background:new 0 0 17.4151859 40.9626694;" xml:space="preserve">
<style type="text/css">
	.st0{fill:#c5c7d9;}
</style>
<g>
	<g>
		<g>
			<path class="st0" d="M7.3027673,1.4274634c1.399817,11.397871,0.6181335,22.7419529-0.3592286,34.1389656
				c-0.1649384,1.9233475,2.8360062,1.9123344,3,0c0.977355-11.3969269,1.7590799-22.7408142,0.3592281-34.1389656
				C10.0704508-0.4641471,7.0675879-0.4874595,7.3027673,1.4274634L7.3027673,1.4274634z"/>
		</g>
	</g>
	<g>
		<g>
			<path class="st0" d="M0.3975542,30.5531769c2.6044471,2.922123,4.2223892,6.5010529,6.452558,9.6871071
				c0.6594701,0.942131,1.9387174,0.9840012,2.5904117,0c2.188468-3.30439,3.9858637-6.9527206,7.3109903-9.2901211
				c1.5675411-1.1019039,0.0701828-3.7041245-1.5141573-2.5904121c-3.7964144,2.6686916-5.8822002,6.5839863-8.3872452,10.3663769
				c0.8634706,0,1.7269416,0,2.5904117,0c-2.3827972-3.4041061-4.1367669-7.1697025-6.9216495-10.2942715
				C1.231631,26.9876003-0.8839573,29.1153526,0.3975542,30.5531769L0.3975542,30.5531769z"/>
		</g>
	</g>
</g>
</svg>
