<svg height="512" width="512" xmlns="http://www.w3.org/2000/svg"><path d="M467 0H45C20.187 0 0 20.187 0 45v422c0 24.813 20.187 45 45 45h422c24.813 0 45-20.187 45-45V45c0-24.813-20.187-45-45-45zm15 45v196H271V30h196c8.271 0 15 6.729 15 15zM45 30h196v211H30V45c0-8.271 6.729-15 15-15zM30 467V271h211v211H45c-8.271 0-15-6.729-15-15zm437 15H271V271h211v196c0 8.271-6.729 15-15 15z"/><path d="M91 151h30v30c0 8.284 6.716 15 15 15s15-6.716 15-15v-30h30c8.284 0 15-6.716 15-15s-6.716-15-15-15h-30V91c0-8.284-6.716-15-15-15s-15 6.716-15 15v30H91c-8.284 0-15 6.716-15 15s6.716 15 15 15zm66.213 225l21.213-21.213c5.858-5.858 5.858-15.355 0-21.213-5.857-5.857-15.355-5.857-21.213 0L136 354.787l-21.213-21.213c-5.857-5.857-15.355-5.857-21.213 0-5.858 5.858-5.858 15.355 0 21.213L114.787 376l-21.213 21.213c-5.858 5.858-5.858 15.355 0 21.213s15.355 5.858 21.213 0L136 397.213l21.213 21.213c5.858 5.858 15.355 5.858 21.213 0s5.858-15.355 0-21.213zM421 331h-90c-8.284 0-15 6.716-15 15s6.716 15 15 15h90c8.284 0 15-6.716 15-15s-6.716-15-15-15zm0 60h-90c-8.284 0-15 6.716-15 15s6.716 15 15 15h90c8.284 0 15-6.716 15-15s-6.716-15-15-15zm-90-240h90c8.284 0 15-6.716 15-15s-6.716-15-15-15h-90c-8.284 0-15 6.716-15 15s6.716 15 15 15z"/></svg>