<svg xmlns="http://www.w3.org/2000/svg" viewBox="0 0 512 448"><path d="M508.4 85.9c-3-3.8-7.6-5.9-12.4-5.9H101.6L96 14.6C95.3 6.3 88.3 0 80 0H16C7.2 0 0 7.2 0 16s7.2 16 16 16h49.3L96 385.4c.7 8.3 7.7 14.7 16 14.6 0 26.5 21.5 48 48 48s48-21.5 48-48h96c0 26.5 21.5 48 48 48s48-21.5 48-48h16c8.8 0 16-7.2 16-16s-7.2-16-16-16h-28.6c-17.2-19.5-47-21.5-66.5-4.3-1.5 1.3-2.9 2.8-4.3 4.3H195.4c-17.4-19.7-47.4-21.5-67.1-4.1-.7.6-1.3 1.2-1.9 1.8l-2.5-29.7H448c7.5 0 14.1-5.3 15.6-12.7l48-224c1.1-4.7-.1-9.6-3.2-13.4zM352 384c8.8 0 16 7.2 16 16s-7.2 16-16 16-16-7.2-16-16c0-2.8.7-5.6 2.1-8 2.9-5 8.2-8 13.9-8zm-192 0c8.8 0 16 7.2 16 16s-7.2 16-16 16-16-7.2-16-16c0-2.8.7-5.6 2.1-8 2.9-5 8.2-8 13.9-8zm275.1-80h-314l-16.7-192h371.8l-41.1 192z"/></svg>