<?xml version="1.0" encoding="utf-8"?>
<!-- Generator: Adobe Illustrator 22.1.0, SVG Export Plug-In . SVG Version: 6.00 Build 0)  -->
<svg version="1.1" id="Слой_1" xmlns="http://www.w3.org/2000/svg" xmlns:xlink="http://www.w3.org/1999/xlink" x="0px" y="0px"
	 viewBox="0 0 512 448" style="enable-background:new 0 0 512 448;" xml:space="preserve">
<path d="M508.4,85.9c-3-3.8-7.6-5.9-12.4-5.9H101.6L96,14.6C95.3,6.3,88.3,0,80,0H16C7.2,0,0,7.2,0,16s7.2,16,16,16h49.3L96,385.4
	c0.7,8.3,7.7,14.7,16,14.6c0,26.5,21.5,48,48,48s48-21.5,48-48h96c0,26.5,21.5,48,48,48s48-21.5,48-48h16c8.8,0,16-7.2,16-16
	s-7.2-16-16-16h-28.6c-17.2-19.5-47-21.5-66.5-4.3c-1.5,1.3-2.9,2.8-4.3,4.3H195.4c-17.4-19.7-47.4-21.5-67.1-4.1
	c-0.7,0.6-1.3,1.2-1.9,1.8l-2.5-29.7H448c7.5,0,14.1-5.3,15.6-12.7l48-224C512.7,94.6,511.5,89.7,508.4,85.9L508.4,85.9z M352,384
	c8.8,0,16,7.2,16,16s-7.2,16-16,16s-16-7.2-16-16c0-2.8,0.7-5.6,2.1-8C341,387,346.3,384,352,384z M160,384c8.8,0,16,7.2,16,16
	s-7.2,16-16,16s-16-7.2-16-16c0-2.8,0.7-5.6,2.1-8C149,387,154.3,384,160,384z M435.1,304h-314l-16.7-192h371.8L435.1,304z"/>
</svg>
