<?xml version="1.0" encoding="utf-8"?>
<!-- Generator: Adobe Illustrator 22.1.0, SVG Export Plug-In . SVG Version: 6.00 Build 0)  -->
<svg version="1.1" id="Layer_1" xmlns="http://www.w3.org/2000/svg" xmlns:xlink="http://www.w3.org/1999/xlink" x="0px" y="0px"
	 viewBox="0 0 340.2 235.4" style="enable-background:new 0 0 340.2 235.4;" xml:space="preserve">
<path d="M332.9,36.7c-3.9-14.5-15.3-25.9-30-29.8C276.3,0,170,0,170,0S65.7-0.4,39.1,6.5C24.4,10.4,10.4,22.3,6.5,36.7
	c-7.1,26.4-6.5,81-6.5,81s-0.6,54.7,6.5,81c3.9,14.5,18.1,26.4,32.6,30.2c26.6,7.1,130.9,6.5,130.9,6.5s104.3,0.4,130.9-6.5
	c14.7-3.9,28.3-15.8,32.2-30.2c7.1-26.1,7.1-81,7.1-81S340.1,63.1,332.9,36.7z M137.4,170V65.5l84.9,52.3L137.4,170z"/>
</svg>
