<?xml version="1.0" encoding="utf-8"?>
<!-- Generator: Adobe Illustrator 22.1.0, SVG Export Plug-In . SVG Version: 6.00 Build 0)  -->
<svg version="1.1" id="Layer_1" xmlns="http://www.w3.org/2000/svg" xmlns:xlink="http://www.w3.org/1999/xlink" x="0px" y="0px"
	 viewBox="0 0 512 512" style="enable-background:new 0 0 512 512;" xml:space="preserve">
<g>
	<path d="M481.9,0H30.1c-5.9,0-10.8,4.8-10.8,10.8v490.5c0,5.9,4.8,10.8,10.8,10.8h451.8c5.9,0,10.8-4.8,10.8-10.8V10.8
		C492.6,4.8,487.8,0,481.9,0z M471.1,490.5H40.9v-469h430.3V490.5z"/>
	<path d="M73.1,469h365.7c5.9,0,10.8-4.8,10.8-10.8V53.8c0-5.9-4.8-10.8-10.8-10.8H73.1c-5.9,0-10.8,4.8-10.8,10.8v404.4
		C62.4,464.2,67.2,469,73.1,469z M428.1,269.4h-21.5v-26.9h21.5V269.4z M83.9,153.3h21.5v26.9H83.9V153.3z M83.9,331.8h21.5v26.9
		H83.9V331.8z M83.9,380.2h32.3c5.9,0,10.8-4.8,10.8-10.8V321c0-5.9-4.8-10.8-10.8-10.8H83.9V201.7h32.3c5.9,0,10.8-4.8,10.8-10.8
		v-48.4c0-5.9-4.8-10.8-10.8-10.8H83.9V64.5h344.2V221h-32.3c-5.9,0-10.8,4.8-10.8,10.8v48.4c0,5.9,4.8,10.8,10.8,10.8h32.3v156.5
		H83.9V380.2z"/>
	<path d="M404.7,360.3l-117.8-42.5c-1.2-0.4-2.4-0.6-3.7-0.6v0h-0.1c0,0-0.1,0-0.1,0h-39.4c-4.5,0-8.3,2.7-9.9,6.6
		c-11.1-8.5-15.3-19.5-15.3-46.4v-34c14.7,15.9,35.8,25.9,59.2,25.9c21.6,0,41.8-8.4,57-23.6c15.2-15.2,23.6-35.5,23.6-57v-5.4
		C358.2,126.9,312.3,81,256,81c-27.3,0-53,10.6-72.3,29.9c-19.3,19.3-29.9,45-29.9,72.3v129.3c0,45.9,34.6,83.8,79.1,89.1v11.2
		c0,5.9,4.8,10.8,10.8,10.8h39.6c0,0,0,0,0,0c1.2,0,2.5-0.2,3.6-0.6l117.8-42.5c4.3-1.5,7.1-5.6,7.1-10.1S408.9,361.8,404.7,360.3z
		 M232.9,380c-32.6-5.2-57.5-33.5-57.5-67.5V183.2c0-21.5,8.4-41.8,23.6-57c15.2-15.2,35.5-23.6,57-23.6c44.5,0,80.7,36.2,80.7,80.7
		v5.4c0,15.8-6.2,30.7-17.3,41.8c-11.2,11.2-26,17.3-41.8,17.3c-32.6,0-59.2-26.5-59.2-59.2v-5.4c0-10,3.9-19.5,11-26.6
		c7.1-7.1,16.6-11,26.6-11c20.8,0,37.6,16.9,37.6,37.6v5.4c0,4.3-1.7,8.4-4.7,11.4c-3,3-7.1,4.7-11.4,4.7c-8.9,0-16.1-7.2-16.1-16.1
		c0-5.9-4.8-10.8-10.8-10.8s-10.8,4.8-10.8,10.8c0,20.8,16.9,37.6,37.6,37.6c10.1,0,19.5-3.9,26.6-11c7.1-7.1,11-16.6,11-26.6v-5.4
		c0-32.6-26.5-59.2-59.2-59.2c-15.8,0-30.7,6.2-41.8,17.3c-11.2,11.2-17.3,26-17.3,41.8v5.4v88.8c0,42.2,11.2,57.5,36,71.2
		L232.9,380L232.9,380z M272.5,402.1h-18.1v-63.5h18.1V402.1z M294,397.5v-54.3l75.3,27.2L294,397.5z"/>
	<path d="M395.8,197.8c5.9,0,10.8-4.8,10.8-10.8v-1.4c0-5.9-4.8-10.8-10.8-10.8s-10.8,4.8-10.8,10.8v1.4
		C385.1,193,389.9,197.8,395.8,197.8z"/>
	<path d="M395.8,153.3c5.9,0,10.8-4.8,10.8-10.8v-40.9c0-5.9-4.8-10.8-10.8-10.8s-10.8,4.8-10.8,10.8v40.9
		C385.1,148.5,389.9,153.3,395.8,153.3z"/>
</g>
</svg>
