<?xml version="1.0" encoding="utf-8"?>
<!-- Generator: Adobe Illustrator 22.1.0, SVG Export Plug-In . SVG Version: 6.00 Build 0)  -->
<svg version="1.1" id="Layer_1" xmlns="http://www.w3.org/2000/svg" xmlns:xlink="http://www.w3.org/1999/xlink" x="0px" y="0px"
	 viewBox="0 0 512 512" style="enable-background:new 0 0 512 512;" xml:space="preserve">
<g>
	<g>
		<path d="M411.6,352c5.6,0,10.1-4.5,10.1-10.1V10.1c0-5.6-4.5-10.1-10.1-10.1h-40.3c-5.6,0-10.1,4.5-10.1,10.1v11.1H150.7V10.1
			c0-5.6-4.5-10.1-10.1-10.1h-40.3c-5.6,0-10.1,4.5-10.1,10.1v331.8c0,5.6,4.5,10.1,10.1,10.1h30.2v99.6h-27.7
			c-5.6,0-10.1,4.5-10.1,10.1v40.3c0,5.6,4.5,10.1,10.1,10.1h115.8c5.6,0,10.1-4.5,10.1-10.1v-40.3c0-5.6-4.5-10.1-10.1-10.1H191
			V408h130v43.6h-27.7c-5.6,0-10.1,4.5-10.1,10.1v40.3c0,5.6,4.5,10.1,10.1,10.1h115.8c5.6,0,10.1-4.5,10.1-10.1v-40.3
			c0-5.6-4.5-10.1-10.1-10.1h-27.7V352H411.6z M381.4,20.1h20.1v311.7h-20.1V20.1z M150.7,41.3h210.5v20.1H150.7V41.3z M150.7,121.8
			h20.1v329.8h-20.1V121.8z M110.5,331.8V20.1h20.1v311.7L110.5,331.8L110.5,331.8z M208.6,471.7v20.1H113v-20.1H208.6z
			 M180.9,101.7h-30.2V81.5h210.5v20.1h-30.2c-5.6,0-10.1,4.5-10.1,10.1v34.6H191v-34.6C191,106.2,186.5,101.7,180.9,101.7z
			 M361.3,121.8v329.8h-20.1V121.8H361.3z M191,287.2v-20.1h130v20.1H191z M321,307.3v40.3H191v-40.3H321z M191,246.9v-40.3h130
			v40.3L191,246.9L191,246.9z M191,186.5v-20.1h130v20.1H191z M191,387.9v-20.1h130v20.1H191z M399,471.7v20.1h-95.6v-20.1H399z"/>
	</g>
</g>
</svg>
