<?xml version="1.0" encoding="utf-8"?>
<!-- Generator: Adobe Illustrator 22.1.0, SVG Export Plug-In . SVG Version: 6.00 Build 0)  -->
<svg version="1.1" id="Layer_1" xmlns="http://www.w3.org/2000/svg" xmlns:xlink="http://www.w3.org/1999/xlink" x="0px" y="0px"
	 viewBox="0 0 512 512" style="enable-background:new 0 0 512 512;" xml:space="preserve">
<g>
	<g>
		<g>
			<path d="M304.8,203.1c0-72.6-59.1-131.7-131.7-131.7S41.3,130.5,41.3,203.1s59.1,131.7,131.7,131.7S304.8,275.8,304.8,203.1z
				 M62,203.1C62,141.9,111.8,92,173.1,92s111.1,49.8,111.1,111.1s-49.8,111.1-111.1,111.1S62,264.4,62,203.1z"/>
			<path d="M245.7,256.9c3.4-4.6,2.4-11.1-2.1-14.5c-4.6-3.4-11.1-2.4-14.5,2.1c-13.1,17.7-34.1,28.3-56,28.3
				c-5.7,0-10.3,4.6-10.3,10.3s4.6,10.3,10.3,10.3C201.5,293.5,228.7,279.9,245.7,256.9z"/>
			<path d="M252.7,216.5c0.1,0,0.3,0,0.4,0c5.5,0,10.1-4.4,10.3-9.9c0-1.1,0.1-2.3,0.1-3.4c0-5.7-4.6-10.3-10.3-10.3
				s-10.3,4.6-10.3,10.3c0,0.9,0,1.8-0.1,2.7C242.6,211.5,247,216.3,252.7,216.5z"/>
			<path d="M400.9,196.4c-21.4,0-38.7,17.4-38.7,38.7c0,17.8,12.1,32.8,28.4,37.3v125.1c0,25.4-20.7,46.2-46.2,46.2H224.7V420h25
				c16.1,0,29.3-13.1,29.3-29.3v-50.8c40.8-31.7,67.2-81.2,67.2-136.8c0-95.4-77.6-173.1-173.1-173.1S0,107.7,0,203.1
				c0,55.6,26.3,105.1,67.2,136.8v50.8c0,16.1,13.1,29.3,29.3,29.3h25v51.7c0,5.7,4.6,10.3,10.3,10.3h82.7c5.7,0,10.3-4.6,10.3-10.3
				v-7.2h119.7c36.8,0,66.8-30,66.8-66.8V272.5c16.4-4.5,28.4-19.6,28.4-37.3C439.7,213.8,422.3,196.4,400.9,196.4z M20.7,203.1
				c0-84,68.4-152.4,152.4-152.4s152.4,68.4,152.4,152.4s-68.4,152.4-152.4,152.4S20.7,287.2,20.7,203.1z M204.1,461.3h-62V420h62
				V461.3z M96.4,399.3c-4.7,0-8.6-3.9-8.6-8.6v-37c25.2,14.3,54.3,22.5,85.2,22.5s60.1-8.2,85.2-22.5v37c0,4.7-3.9,8.6-8.6,8.6
				H96.4z M400.9,253.2c-10,0-18.1-8.1-18.1-18.1s8.1-18.1,18.1-18.1s18.1,8.1,18.1,18.1S410.9,253.2,400.9,253.2z"/>
			<path d="M501.7,224.8h-31c-5.7,0-10.3,4.6-10.3,10.3s4.6,10.3,10.3,10.3h31c5.7,0,10.3-4.6,10.3-10.3S507.4,224.8,501.7,224.8z"
				/>
			<path d="M400.9,175.7c5.7,0,10.3-4.6,10.3-10.3v-31c0-5.7-4.6-10.3-10.3-10.3s-10.3,4.6-10.3,10.3v31
				C390.6,171.1,395.2,175.7,400.9,175.7z"/>
			<path d="M457.5,277.2c-4-4-10.6-4-14.6,0c-4,4-4,10.6,0,14.6l21.9,21.9c2,2,4.7,3,7.3,3s5.3-1,7.3-3c4-4,4-10.6,0-14.6
				L457.5,277.2z"/>
			<path d="M450.2,196.2c2.6,0,5.3-1,7.3-3l21.9-21.9c4-4,4-10.6,0-14.6c-4-4-10.6-4-14.6,0l-21.9,21.9c-4,4-4,10.6,0,14.6
				C445,195.2,447.6,196.2,450.2,196.2z"/>
			<path d="M217,203.1c0-24.2-19.7-43.9-43.9-43.9s-43.9,19.7-43.9,43.9s19.7,43.9,43.9,43.9S217,227.3,217,203.1z M149.8,203.1
				c0-12.8,10.4-23.2,23.2-23.2s23.2,10.4,23.2,23.2s-10.4,23.2-23.2,23.2S149.8,215.9,149.8,203.1z"/>
		</g>
	</g>
</g>
</svg>
