<?xml version="1.0" encoding="utf-8"?>
<!-- Generator: Adobe Illustrator 22.1.0, SVG Export Plug-In . SVG Version: 6.00 Build 0)  -->
<svg version="1.1" id="Layer_1" xmlns="http://www.w3.org/2000/svg" xmlns:xlink="http://www.w3.org/1999/xlink" x="0px" y="0px"
	 viewBox="0 0 511 511" style="enable-background:new 0 0 511 511;" xml:space="preserve">
<path d="M58.3,107.4c-0.6,0-1.3-0.1-1.9-0.2c-0.6-0.1-1.3-0.3-1.9-0.6c-0.6-0.2-1.2-0.6-1.7-0.9c-0.5-0.4-1.1-0.8-1.5-1.2
	c-0.5-0.5-0.9-1-1.2-1.5c-0.4-0.5-0.7-1.1-0.9-1.7c-0.2-0.6-0.4-1.2-0.6-1.9c-0.1-0.6-0.2-1.3-0.2-1.9c0-0.6,0.1-1.3,0.2-1.9
	c0.1-0.6,0.3-1.3,0.6-1.9c0.2-0.6,0.5-1.2,0.9-1.7c0.4-0.5,0.8-1.1,1.2-1.5c0.5-0.5,1-0.9,1.5-1.2c0.5-0.4,1.1-0.7,1.7-0.9
	c0.6-0.2,1.2-0.5,1.9-0.6c1.3-0.3,2.6-0.3,3.9,0c0.6,0.1,1.3,0.3,1.9,0.6c0.6,0.2,1.2,0.5,1.7,0.9c0.5,0.4,1.1,0.8,1.5,1.2
	c0.5,0.5,0.9,1,1.2,1.5c0.4,0.5,0.7,1.1,0.9,1.7c0.2,0.6,0.4,1.2,0.6,1.9c0.1,0.6,0.2,1.3,0.2,1.9c0,0.7-0.1,1.3-0.2,1.9
	c-0.1,0.6-0.3,1.3-0.6,1.9c-0.2,0.6-0.6,1.2-0.9,1.7c-0.4,0.5-0.8,1.1-1.2,1.5s-1,0.9-1.5,1.2c-0.5,0.4-1.1,0.7-1.7,0.9
	c-0.6,0.2-1.2,0.4-1.9,0.6C59.6,107.3,59,107.4,58.3,107.4z"/>
<path d="M316.9,161.2c-0.6,0-1.3-0.1-1.9-0.2c-0.6-0.1-1.3-0.3-1.9-0.6c-0.6-0.2-1.2-0.6-1.7-0.9c-0.5-0.4-1.1-0.8-1.5-1.2
	c-0.5-0.5-0.9-1-1.2-1.5c-0.4-0.5-0.7-1.1-0.9-1.7c-0.2-0.6-0.4-1.2-0.6-1.9c-0.1-0.7-0.2-1.3-0.2-2c0-2.6,1.1-5.2,2.9-7.1
	c0.5-0.5,1-0.9,1.5-1.2c0.5-0.4,1.1-0.7,1.7-0.9c0.6-0.2,1.2-0.4,1.9-0.6c1.3-0.3,2.6-0.3,3.9,0c0.6,0.1,1.3,0.3,1.9,0.6
	c0.6,0.2,1.2,0.6,1.7,0.9c0.5,0.4,1.1,0.8,1.5,1.2c1.9,1.9,2.9,4.4,2.9,7.1c0,0.7-0.1,1.3-0.2,2c-0.1,0.6-0.3,1.3-0.6,1.9
	c-0.2,0.6-0.6,1.2-0.9,1.7c-0.4,0.5-0.8,1.1-1.2,1.5c-0.5,0.5-1,0.9-1.5,1.2c-0.5,0.4-1.1,0.7-1.7,0.9c-0.6,0.2-1.2,0.4-1.9,0.6
	C318.2,161.1,317.5,161.2,316.9,161.2z"/>
<path d="M499.9,63H108.5c-10-17.9-29.1-30.1-51-30.1c-15.6,0-30.7,6.4-41.5,17.6C5.2,61.6-0.4,76.1,0,91.4v324.9c0,1.1,0,2.2,0,3.3
	c-0.3,15.3,5.5,29.8,16.4,41c11.2,11.5,26.9,18.1,43,18.1H501c5.5,0,10-4.5,10-10V74.1C511,68,506,63,499.9,63z M30.3,64.4
	c7.2-7.4,16.8-11.5,27.2-11.5c21.1,0,38.4,17.2,38.4,38.4v284.3c-7.7-6.7-17.1-11.5-27.5-13.4V137c0-5.5-4.5-10-10-10
	c-5.5,0-10,4.5-10,10v224.9c-10.4,1.7-20.3,6.2-28.4,13.1V91.2c0-0.1,0-0.2,0-0.3C19.7,81,23.3,71.6,30.3,64.4z M491,458.7H59.4
	c-10.7,0-21.2-4.4-28.7-12.1c-7.2-7.3-11-16.8-10.7-26.7c0-0.1,0-0.2,0-0.3c0,0,0-0.1,0-0.1v-2.8c0.3-9,3.9-17.4,10.3-24
	c7.2-7.4,16.8-11.5,27.2-11.5c21.1,0,38.4,17.2,38.4,38.4c0,5.5,4.5,10,10,10c5.5,0,10-4.5,10-10V91.2c0-2.8-0.2-5.6-0.6-8.3H491
	V458.7z"/>
<path d="M169.6,289.4h147.2c5.5,0,10-4.5,10-10c0-0.5,0-1-0.1-1.4c0.1-0.5,0.1-0.9,0.1-1.4v-82.5c0-5.5-4.5-10-10-10
	c-5.5,0-10,4.5-10,10v75.3h-38.6v-29.3c0-5.5-4.5-10-10-10c-23.3,0-42.8,17-46.6,39.3h-32.1V125.8h68.7v49.9h-41.1
	c-5.5,0-10,4.5-10,10c0,5.5,4.5,10,10,10h51.1c5.5,0,10-4.5,10-10v-59.9h111c4,18.7,19.2,33.4,38.2,36.6v30.3h-52.1
	c-5.5,0-10,4.5-10,10c0,5.5,4.5,10,10,10h52.1v56.9h-47.1c-5.5,0-10,4.5-10,10c0,5.5,4.5,10,10,10h57.1c5.5,0,10-4.5,10-10V115.8
	c0-5.5-4.5-10-10-10H169.6c-5.5,0-10,4.5-10,10v163.6C159.6,284.9,164.1,289.4,169.6,289.4z M248.3,252v17.5h-16.1
	C234.6,261.5,240.6,255,248.3,252z M417.5,125.8v16.1c-8-2.4-14.4-8.4-17.5-16.1H417.5z"/>
<path d="M427.5,377.7H169.6c-5.5,0-10-4.5-10-10v-39c0-5.5,4.5-10,10-10h257.9c5.5,0,10,4.5,10,10v39
	C437.5,373.2,433,377.7,427.5,377.7z M179.6,357.7h237.9v-19.1H179.6V357.7z"/>
<path d="M427.5,424.5c-0.7,0-1.3-0.1-1.9-0.2c-0.6-0.1-1.3-0.3-1.9-0.6c-0.6-0.2-1.2-0.6-1.7-0.9c-0.5-0.4-1.1-0.8-1.5-1.2
	c-1.9-1.9-2.9-4.4-2.9-7.1c0-0.6,0.1-1.3,0.2-1.9c0.1-0.6,0.3-1.3,0.6-1.9c0.2-0.6,0.6-1.2,0.9-1.7c0.4-0.5,0.8-1.1,1.2-1.5
	c0.5-0.5,1-0.9,1.5-1.2c0.5-0.4,1.1-0.7,1.7-0.9c0.6-0.2,1.2-0.4,1.9-0.6c3.2-0.7,6.7,0.4,9,2.7c1.9,1.9,2.9,4.4,2.9,7.1
	c0,2.6-1.1,5.2-2.9,7.1C432.7,423.4,430.1,424.5,427.5,424.5z"/>
<path d="M384.6,424.5h-215c-5.5,0-10-4.5-10-10c0-5.5,4.5-10,10-10h215c5.5,0,10,4.5,10,10C394.6,420,390.1,424.5,384.6,424.5z"/>
</svg>
