<?xml version="1.0" encoding="utf-8"?>
<!-- Generator: Adobe Illustrator 22.1.0, SVG Export Plug-In . SVG Version: 6.00 Build 0)  -->
<svg version="1.1" id="Layer_1" xmlns="http://www.w3.org/2000/svg" xmlns:xlink="http://www.w3.org/1999/xlink" x="0px" y="0px"
	 viewBox="0 0 512 512" style="enable-background:new 0 0 512 512;" xml:space="preserve">
<path d="M501.9,32.1h-90.9c-5.6,0-10,4.5-10,10.1s4.5,10,10,10h80.8V376H20.1V52.2h311.4c5.5,0,10-4.5,10-10s-4.5-10.1-10-10.1H10.1
	C4.5,32.1,0,36.6,0,42.2v343.9c0,5.6,4.5,10.1,10.1,10.1h198.3c-0.9,15.4-4.8,45.6-20.6,64.1h-85.3c-5.6,0-10,4.5-10,10.1
	c0,5.5,4.5,10,10,10h302.9c5.6,0,10.1-4.5,10.1-10c0-5.6-4.5-10.1-10.1-10.1h-79.8c-15.8-18.5-19.7-48.7-20.6-64.1h197
	c5.6,0,10.1-4.5,10.1-10.1V42.2C512,36.6,507.5,32.1,501.9,32.1z M301.3,460.3h-89.2c12.5-22.4,15.7-49.6,16.5-64.1h56.3
	C285.6,410.7,288.7,437.9,301.3,460.3z"/>
<path d="M477.2,320.2V79.1c0-5.6-4.5-10.1-10-10.1H46.2c-5.6,0-10,4.5-10,10.1v241.1c0,5.6,4.5,10.1,10,10.1h420.9
	C472.7,330.2,477.2,325.7,477.2,320.2z M457.1,310.1H56.3v-221h400.8V310.1z"/>
<path d="M42.4,343.3c-5.1,2.1-7.6,7.9-5.6,13.1l0.1,0.3c1.6,3.9,5.3,6.3,9.3,6.3c1.3,0,2.5-0.2,3.8-0.7c5.1-2.1,7.6-7.9,5.6-13.1
	l-0.1-0.3C53.4,343.7,47.5,341.2,42.4,343.3z"/>
<path d="M68.5,343.3c-5.1,2.1-7.6,7.9-5.6,13.1l0.1,0.3c1.6,3.9,5.3,6.3,9.3,6.3c1.3,0,2.5-0.2,3.8-0.7c5.1-2.1,7.6-7.9,5.6-13.1
	l-0.1-0.3C79.5,343.7,73.6,341.2,68.5,343.3z"/>
<path d="M94.6,343.3c-5.1,2.1-7.6,7.9-5.5,13.1l0.1,0.3c1.6,3.9,5.3,6.3,9.3,6.3c1.3,0,2.5-0.2,3.8-0.7c5.1-2.1,7.6-7.9,5.5-13.1
	l-0.1-0.3C105.6,343.7,99.7,341.2,94.6,343.3z"/>
<path d="M236.5,342.7c-5.6,0-10.1,4.5-10.1,10.1s4.5,10,10.1,10h37.6c5.6,0,10.1-4.5,10.1-10s-4.5-10.1-10.1-10.1H236.5z"/>
<path d="M136.7,244c24.5,14.9,60.8,32.4,102.1,36.7c5,0.9,10.2,1.4,15.4,1.4c3.1,0,6.1-0.2,9.1-0.5c46.9-1.4,88.7-21,115.8-37.6
	c30.3-18.5,49.1-36.9,49.9-37.7c1.9-1.9,3-4.5,3-7.2s-1.1-5.3-3-7.2c-0.8-0.8-19.5-19.1-49.9-37.6c-28.2-17.2-72.1-37.7-121.2-37.7
	s-93,20.5-121.2,37.7c-30.3,18.5-49.1,36.9-49.9,37.6c-1.9,1.9-3,4.5-3,7.2s1.1,5.3,3,7.2C87.6,207.1,106.4,225.5,136.7,244z
	 M406.8,199.2c-14.3,12.2-46.7,37-87.8,51.4c11.1-14.1,17.8-31.8,17.8-51.1c0-19.6-6.9-37.6-18.3-51.8
	C359.8,162,392.5,187,406.8,199.2z M187.1,151.4c-2.3,4.3-1.2,9.7,2.9,12.8c4.4,3.3,10.7,2.4,14.1-2.1c11.9-16,30.2-25.2,50.2-25.2
	c34.5,0,62.5,28.1,62.5,62.6c0,31.9-24.1,58.3-55,62.1c-1.3,0-2.6,0.1-3.9,0.1c-5.4,0-10.7-0.3-16-0.8
	c-18.5-3.7-34.5-15.6-43.4-32.8c-2.5-4.9-8.6-6.9-13.5-4.4c-4.9,2.5-6.9,8.6-4.4,13.5c1.7,3.3,3.6,6.5,5.7,9.5
	c-36.1-14.6-64.3-36.3-77.4-47.4C122.1,188,150.6,166.1,187.1,151.4z"/>
<path d="M255.7,249.8h0.2c13.3,0,25.7-5.3,35.1-14.7C304,222,308.7,202.7,303,185c-1.1-3.3-3.8-5.9-7.2-6.7s-7,0.2-9.5,2.7l-6.4,6.4
	c-3.2,3.2-8.4,3.2-11.6,0c-1.6-1.6-2.4-3.6-2.4-5.8c0-2.2,0.8-4.3,2.4-5.8l6.4-6.4c2.5-2.5,3.5-6.1,2.6-9.5
	c-0.8-3.4-3.4-6.1-6.8-7.2c-17.8-5.5-37-0.8-50.1,12.4c-9.4,9.4-14.5,21.9-14.4,35.2c0,13.3,5.3,25.7,14.7,35.1
	C230,244.7,242.4,249.8,255.7,249.8z M234.7,179.3c3.7-3.7,8.1-6.3,12.9-7.6c-1.2,3.2-1.8,6.6-1.8,10c0,7.6,3,14.7,8.4,20
	c8.1,8.1,20,10.2,30.1,6.4c-1.3,4.8-3.9,9.3-7.5,13c-5.6,5.6-13,8.7-20.9,8.7c-7.9,0-15.4-3-21-8.6
	C223.2,209.6,223.2,190.8,234.7,179.3z"/>
<path d="M185.9,203.4c5.1-2.1,7.6-7.9,5.5-13.1l-0.1-0.2c-2.1-5.1-7.9-7.6-13.1-5.5c-5.1,2.1-7.6,7.9-5.5,13.1l0.1,0.2
	c1.6,3.9,5.3,6.3,9.3,6.3C183.4,204.2,184.7,203.9,185.9,203.4z"/>
<path d="M361.8,46.1c1.6,3.9,5.3,6.3,9.3,6.3c1.3,0,2.5-0.2,3.8-0.7c5.1-2.1,7.6-7.9,5.5-13.1l-0.1-0.2c-2.1-5.1-7.9-7.6-13.1-5.6
	c-5.1,2.1-7.6,7.9-5.6,13.1L361.8,46.1z"/>
</svg>
