<?xml version="1.0" encoding="utf-8"?>
<!-- Generator: Adobe Illustrator 22.1.0, SVG Export Plug-In . SVG Version: 6.00 Build 0)  -->
<svg version="1.1" id="Layer_1" xmlns="http://www.w3.org/2000/svg" xmlns:xlink="http://www.w3.org/1999/xlink" x="0px" y="0px"
	 viewBox="0 0 512 512" style="enable-background:new 0 0 512 512;" xml:space="preserve">
<g>
	<g>
		<g>
			<path d="M477.6,99.3c-0.2-5.7-4.8-10.2-10.5-10.2h-0.9c-43.4,0-78.6-35.3-78.6-78.6C387.5,4.7,382.8,0,377,0H135
				c-5.8,0-10.5,4.7-10.5,10.5c0,43.4-35.3,78.6-78.6,78.6H45c-5.7,0-10.3,4.5-10.5,10.2c-2.3,77.3,9.9,160.1,36.1,246.1
				c12.5,41,37.5,82.1,68.5,112.7c35.7,35.3,75.7,53.9,115.7,53.9h2.5c40,0,80-18.6,115.7-53.9c31-30.6,56-71.7,68.5-112.7
				C467.7,259.4,479.8,176.6,477.6,99.3z M421.3,339.3c-11.5,37.8-34.5,75.6-63.1,103.8C336.1,465,300.6,491,257.3,491h-2.5
				c-43.4,0-78.8-26-100.9-47.8c-28.6-28.2-51.6-66.1-63.1-103.8c-24.5-80.2-36.4-157.4-35.4-229.6C102.3,105.3,140,68,145,21H367
				c4.9,46.9,42.6,84.3,89.7,88.7C457.7,181.9,445.8,259.1,421.3,339.3z"/>
			<path d="M428.3,125.1c-35.8-11.8-64.4-40.2-76.5-75.9c-1.4-4.3-5.4-7.1-10-7.1H170.1c-4.5,0-8.5,2.9-10,7.1
				c-12.1,35.7-40.7,64.1-76.5,75.9c-4.4,1.5-7.3,5.6-7.2,10.3c1.8,62.6,13.4,129.1,34.3,197.8c10.5,34.5,31.6,69.2,57.8,95
				c27.3,26.9,57.9,41.8,86.2,41.8h2.5c28.3,0,58.9-14.8,86.2-41.8c26.2-25.9,47.3-60.5,57.8-95c20.9-68.6,32.5-135.2,34.3-197.8
				C435.7,130.8,432.7,126.6,428.3,125.1z M381.1,327c-9.5,31.3-28.7,62.7-52.5,86.2c-23.3,23-48.7,35.7-71.4,35.7h-2.5
				c-22.7,0-48.1-12.7-71.4-35.7c-23.8-23.5-42.9-54.9-52.5-86.2c-19.5-64.1-30.7-126.2-33.1-184.7c36.2-14.3,65.2-43.2,79.7-79.3
				h157.1c14.5,36.1,43.5,65,79.7,79.3C411.8,200.9,400.7,263,381.1,327z"/>
			<path d="M328.8,160.6c-4.8,3.2-6.2,9.7-3,14.6c14,21.2,25.1,40.4,33,57.2c1.8,3.8,5.6,6,9.5,6c1.5,0,3-0.3,4.5-1
				c5.2-2.5,7.5-8.8,5-14c-8.4-17.6-20-37.8-34.5-59.8C340.2,158.8,333.7,157.4,328.8,160.6z"/>
			<path d="M297.3,134.7c2.1,2.8,5.2,4.2,8.4,4.2c2.2,0,4.4-0.7,6.3-2.1c4.7-3.5,5.6-10,2.2-14.7l-1.1-1.4
				c-3.5-4.6-10.1-5.6-14.7-2.1c-4.6,3.5-5.6,10.1-2.1,14.7L297.3,134.7z"/>
			<path d="M264.2,126c-2-2.5-5-3.9-8.2-3.9s-6.2,1.4-8.2,3.9c-0.9,1.1-22.3,27.7-44.1,60.7c-30,45.5-45.3,79.8-45.3,101.8
				c0,53.8,43.8,97.6,97.6,97.6s97.6-43.8,97.6-97.6c0-22-15.2-56.3-45.3-101.8C286.5,153.8,265.1,127.2,264.2,126z M256,364.1
				c-17.9,0-32.4-14.5-32.4-32.4c0-11.6,17-38.9,32.4-59.7c15.4,20.8,32.4,48,32.4,59.7C288.4,349.6,273.9,364.1,256,364.1z
				 M307.8,345c1.1-4.2,1.7-8.7,1.7-13.3c0-26.1-37.7-74.1-45.3-83.5c-2-2.5-5-3.9-8.2-3.9s-6.2,1.4-8.2,3.9
				c-7.6,9.4-45.3,57.4-45.3,83.5c0,4.6,0.6,9,1.7,13.3c-15.2-14-24.8-34.1-24.8-56.4c0-32.7,49.5-103.7,76.6-138.9
				c27.1,35.2,76.6,106.2,76.6,138.9C332.6,310.9,323,330.9,307.8,345z"/>
		</g>
	</g>
</g>
</svg>
