<?xml version="1.0" encoding="utf-8"?>
<!-- Generator: Adobe Illustrator 22.1.0, SVG Export Plug-In . SVG Version: 6.00 Build 0)  -->
<svg version="1.1" id="Layer_1" xmlns="http://www.w3.org/2000/svg" xmlns:xlink="http://www.w3.org/1999/xlink" x="0px" y="0px"
	 viewBox="0 0 512 512" style="enable-background:new 0 0 512 512;" xml:space="preserve">
<g>
	<g>
		<g>
			<path d="M475.4,0H36.6c-5.8,0-10.4,4.7-10.4,10.4v491.1c0,5.8,4.7,10.4,10.4,10.4h438.9c5.8,0,10.4-4.7,10.4-10.4V10.4
				C485.9,4.7,481.2,0,475.4,0z M465,491.1H47V20.9h418V491.1z"/>
			<path d="M78.4,470.2h355.3c5.8,0,10.4-4.7,10.4-10.4V52.2c0-5.8-4.7-10.4-10.4-10.4H78.4c-5.8,0-10.4,4.7-10.4,10.4v407.5
				C67.9,465.5,72.6,470.2,78.4,470.2z M88.8,62.7h334.4v386.6H88.8V62.7z"/>
			<path d="M357.4,83.6H312c-5.8,0-10.4,4.7-10.4,10.4v24.3H171.5c-4.4-14.1-17.5-24.4-33-24.4h-18.3c-5.8,0-10.4,4.7-10.4,10.4
				v48.8c0,5.8,4.7,10.4,10.4,10.4h18.3c15.5,0,28.7-10.3,33-24.4h130.1v24.3c0,5.8,4.7,10.4,10.4,10.4h45.4
				c24.7,0,44.9-20.1,44.9-44.9v-0.7C402.3,103.7,382.2,83.6,357.4,83.6z M152.1,129.1L152.1,129.1c0,7.5-6.1,13.7-13.7,13.7h-7.8
				v-27.9h7.8c7.5,0,13.7,6.1,13.7,13.7L152.1,129.1L152.1,129.1z M381.4,129.2c0,13.2-10.8,24-24,24h-34.9v-13.9h19.2
				c5.8,0,10.4-4.7,10.4-10.4c0-5.8-4.7-10.4-10.4-10.4h-19.2v-13.9h34.9c13.2,0,24,10.8,24,24V129.2z"/>
			<path d="M364.8,208.2c0-5.8-4.7-10.4-10.4-10.4H120.2c-5.8,0-10.4,4.7-10.4,10.4s4.7,10.4,10.4,10.4h184.7
				c7.3,0,13.2,5.9,13.2,13.2v0.5c0,7.3-5.9,13.2-13.2,13.2h-18.6c-5.8,0-10.4,4.7-10.4,10.4s4.7,10.4,10.4,10.4h18.6
				c18.8,0,34.1-15.3,34.1-34.1v-0.5c0-4.7-1-9.2-2.7-13.2h18C360.1,218.6,364.8,213.9,364.8,208.2z"/>
			<path d="M391.8,197.7h-0.4c-5.8,0-10.4,4.7-10.4,10.4s4.7,10.4,10.4,10.4h0.4c5.8,0,10.4-4.7,10.4-10.4S397.6,197.7,391.8,197.7z
				"/>
			<path d="M323.8,271.4h-0.9c-30.6,0-55.4,24.9-55.4,55.4v1c0,0.1,0,0.2,0,0.3c0,0.1,0,0.2,0,0.3l5.1,90.1
				c0.3,5.5,4.9,9.9,10.4,9.9h80.6c5.5,0,10.1-4.3,10.4-9.9l5.1-90.1c0-0.1,0-0.2,0-0.3c0-0.1,0-0.2,0-0.3v-1
				C379.2,296.3,354.3,271.4,323.8,271.4z M322.9,292.3h0.9c15.8,0,29.1,10.6,33.2,25.1h-67.4C293.8,302.9,307.1,292.3,322.9,292.3z
				 M353.8,407.5h-60.9l-4-69.2h68.8L353.8,407.5z"/>
			<path d="M224.9,329.1h-71.7c-3.6,0-6.9,1.8-8.8,4.8s-2.2,6.8-0.7,10l35.8,78.4c1.7,3.7,5.4,6.1,9.5,6.1s7.8-2.4,9.5-6.1
				l35.8-78.4c1.5-3.2,1.2-7-0.7-10C231.7,331,228.4,329.1,224.9,329.1z M189,392.8L169.5,350h39.1L189,392.8z"/>
			<path d="M244.4,236.4H120.2c-5.8,0-10.4,4.7-10.4,10.4v52.2c0,5.8,4.7,10.4,10.4,10.4h124.3c5.8,0,10.4-4.7,10.4-10.4v-52.2
				C254.9,241.1,250.2,236.4,244.4,236.4z M234,288.6H130.6v-31.3H234V288.6z"/>
		</g>
	</g>
</g>
</svg>
