<?xml version="1.0" encoding="utf-8"?>
<!-- Generator: Adobe Illustrator 22.1.0, SVG Export Plug-In . SVG Version: 6.00 Build 0)  -->
<svg version="1.1" id="Layer_1" xmlns="http://www.w3.org/2000/svg" xmlns:xlink="http://www.w3.org/1999/xlink" x="0px" y="0px"
	 viewBox="0 0 512 512" style="enable-background:new 0 0 512 512;" xml:space="preserve">
<g>
	<g>
		<g>
			<path d="M114.6,370.7h114.6c5.8,0,10.5-4.7,10.5-10.5v-57.3c0-5.8-4.7-10.5-10.5-10.5H114.6c-5.8,0-10.5,4.7-10.5,10.5v57.3
				C104.1,366,108.8,370.7,114.6,370.7z M125.1,313.4h93.6v36.3h-93.6V313.4z"/>
			<path d="M154.9,271.4h74.4c5.8,0,10.5-4.7,10.5-10.5s-4.7-10.5-10.5-10.5h-74.4c-5.8,0-10.5,4.7-10.5,10.5
				C144.4,266.7,149.1,271.4,154.9,271.4z"/>
			<path d="M114.6,271.4h0.3c5.8,0,10.5-4.7,10.5-10.5s-4.7-10.5-10.5-10.5h-0.3c-5.8,0-10.5,4.7-10.5,10.5
				C104.1,266.7,108.8,271.4,114.6,271.4z"/>
			<path d="M459.1,500.8c-1-14.8-24.8-194.7-27.5-233.3V222c0-5.8-4.7-10.5-10.5-10.5h-21.4v-54c0-62-50.4-112.4-112.4-112.4h-81.9
				v-0.2c0-15.7-12.8-28.4-28.4-28.4h-10c-8.6,0-16.3,3.8-21.5,9.9c-10.5-0.4-40.5-3.5-63.6-23.7c-4.4-3.8-11-3.4-14.8,1
				c-3.8,4.4-3.4,11,1,14.8c15.5,13.6,33.2,20.8,48.1,24.7L59.7,64.3c-5.4,2-8.2,8.1-6.1,13.5c1.6,4.2,5.6,6.8,9.8,6.8
				c1.2,0,2.5-0.2,3.7-0.7l71.4-26.8v17.2c-13.1,2.6-22.9,14.1-22.9,27.9v17.6c-32,2.2-57.3,28.9-57.3,61.5v269.2
				c0,34,27.6,61.6,61.6,61.6H224c34,0,61.6-27.6,61.6-61.6V181.2c0-32.5-25.3-59.2-57.3-61.5v-17.6c0-13.8-9.9-25.3-22.9-27.9v-8.2
				h81.9c50.4,0,91.4,41,91.4,91.4v54h-21.8c-5.8,0-10.5,4.7-10.5,10.5v45.5c-2.7,38.7-26.5,218.7-27.5,233.3
				c-0.2,2.9,0.8,5.8,2.8,7.9s4.8,3.3,7.7,3.3h119.2c2.9,0,5.7-1.2,7.7-3.3C458.2,506.5,459.3,503.7,459.1,500.8z M159.5,44.9
				c0-4.1,3.3-7.4,7.4-7.4h10c4.1,0,7.4,3.3,7.4,7.4v28.9h-24.8V44.9z M224,491H119.9c-19.9,0-36.6-14.5-40-33.4h184
				C260.6,476.5,243.9,491,224,491z M264.6,436.5H79.3V195.1h185.3V436.5z M224,140.6c19.9,0,36.6,14.5,40,33.4h-184
				c3.4-19,20-33.4,40-33.4H224z M207.3,102.2v17.4h-70.7v-17.4c0-4.1,3.3-7.4,7.4-7.4h55.8C203.9,94.8,207.3,98.1,207.3,102.2z
				 M367.4,232.5h43.2v24.8h-43.2V232.5z M366.6,278.3h44.7c2.9,36.3,18.6,146.3,21,165.6h-86.7C348,424.6,363.7,314.6,366.6,278.3z
				 M340.7,491c0.7-8.2,1.5-16.9,2.5-26h91.6c1,9.1,1.8,17.7,2.5,26H340.7z"/>
		</g>
	</g>
</g>
</svg>
