<?xml version="1.0" encoding="utf-8"?>
<!-- Generator: Adobe Illustrator 22.1.0, SVG Export Plug-In . SVG Version: 6.00 Build 0)  -->
<svg version="1.1" id="Layer_1" xmlns="http://www.w3.org/2000/svg" xmlns:xlink="http://www.w3.org/1999/xlink" x="0px" y="0px"
	 viewBox="0 0 448 448" style="enable-background:new 0 0 448 448;" xml:space="preserve">
<style type="text/css">
	.st0{fill:#FBF0E1;}
</style>
<path class="st0" d="M0,176.65625l40,11.421875v-42.78125L0,156.71875V176.65625z"/>
<path class="st0" d="M141.8398438,21.5273361l11.3203125,11.3203125l-9.28125,9.2734375l48.9765625,48.96875l20.4023438-20.4023438
	l-68.6914063-68.6875l-20.3984375,20.3984375l8.3984375,8.4101563L141.8398438,21.5273361z"/>
<path class="st0" d="M248,190.6875h24v-48H112.5664063v-16.0000076h44.1132813l24.296875-24.2890625l-68.6875-68.6875
	L86.2226563,59.7773361c-18.9609375,18.96875-18.9609375,49.71875,0,68.6875076
	c2.453125,2.2890625,3.3085938,5.8164063,2.1757813,8.9765625c-1.0820313,3.0703125-3.9453125,5.15625-7.1992188,5.2460938H56v48
	H248z M88,174.6875H72v-16h16V174.6875z M85.34375,78.0312424l25-25l11.3125,11.3125l-25,25L85.34375,78.0312424z M168,174.6875h-64
	v-16h64V174.6875z"/>
<path class="st0" d="M198.2226563,108.3437424c-0.5117188,0.4492188-1.0820313,0.828125-1.6953125,1.1289063L179.3125,126.6874924
	H216v-16h-16v-4.1210938L198.2226563,108.3437424z"/>
<path class="st0" d="M288,142.6875h16v48h-16V142.6875z"/>
<path class="st0" d="M408,150.0976563l-88-6.7695313v46.71875l88-6.765625V150.0976563z"/>
<path class="st0" d="M424,390.6875v-96c0-30.9257813-25.0703125-56-56-56s-56,25.0742188-56,56v96c0,22.09375-17.9101563,40-40,40
	s-40-17.90625-40-40v-24h-16v24c0,30.9296875,25.0703125,56,56,56s56-25.0703125,56-56v-96c0-22.0898438,17.9101563-40,40-40
	s40,17.9101563,40,40v96c0.0546875,24.734375,16.3046875,46.5078125,40,53.6015625V427.296875
	C433.4414063,420.9414063,424.0195313,406.5742188,424,390.6875z"/>
<path class="st0" d="M208,334.6875h32v16h-32V334.6875z"/>
<path class="st0" d="M424,134.6875v64h24v-64H424z"/>
<path class="st0" d="M216,318.6875h16v-16h16v16h16v-32h-80v32h16v-16h16V318.6875z"/>
<path class="st0" d="M208,270.6875h32v-64h-32V270.6875z"/>
<path class="st0" d="M192,206.6875h-61.3984375c1.734375,2.3671875,4.203125,4.1015625,7.0234375,4.9296875L192.0234375,227.9375
	L192,206.6875z"/>
</svg>
