<?xml version="1.0" encoding="utf-8"?>
<!-- Generator: Adobe Illustrator 22.0.1, SVG Export Plug-In . SVG Version: 6.00 Build 0)  -->
<svg version="1.1" id="Capa_1" xmlns="http://www.w3.org/2000/svg" xmlns:xlink="http://www.w3.org/1999/xlink" x="0px" y="0px"
	 viewBox="0 0 478 478" style="enable-background:new 0 0 478 478;" xml:space="preserve">
<style type="text/css">
	.st0{fill:#FBF0E1;}
</style>
<g>
	<g>
		<path class="st0" d="M460.8,375.5c-37.7,0-68.3,30.6-68.3,68.3c0.1,5.8,0.9,11.5,2.4,17.1h31.7c28.4-0.1,51.3-23.1,51.3-51.3
			v-31.7C472.3,376.5,466.6,375.5,460.8,375.5z"/>
	</g>
</g>
<g>
	<g>
		<path class="st0" d="M467.9,221.9v-0.1L421.7,268c-3.2,3.2-7.5,5-12.1,5H256.1v17.1c0,9.4-7.6,17.1-17.1,17.1
			c-9.4,0-17.1-7.6-17.1-17.1V273H68.3c-4.5,0-8.9-1.8-12.1-5L10,221.9H0v121c5.6-1,11.3-1.5,17.1-1.5
			c56.2-0.3,102.1,45,102.4,101.3c0,6.1-0.5,12.2-1.5,18.2h242c-9.7-55.4,27.3-108.2,82.7-117.9c11.7-2.1,23.6-2.1,35.3,0V222
			L467.9,221.9L467.9,221.9z"/>
	</g>
</g>
<g>
	<g>
		<path class="st0" d="M426.8,102.4H324.3V68.2c0-28.3-22.9-51.2-51.2-51.2h-68.3c-28.3,0-51.2,22.9-51.2,51.2v34.1H51.3
			c-28.3,0-51.2,22.9-51.2,51.2v34.1h17v0.1c4.5,0,8.9,1.8,12.1,5l46.2,46.2h146.5v-17.1c0-9.4,7.6-17.1,17.1-17.1
			c9.4,0,17.1,7.6,17.1,17.1v17.1h146.5l46.2-46.2c3.2-3.2,7.5-5,12.1-5H478v-34.1C478,125.3,455.1,102.4,426.8,102.4z M290.3,102.3
			H187.8V68.2c0-9.4,7.6-17.1,17.1-17.1h68.3c9.4,0,17.1,7.6,17.1,17.1L290.3,102.3L290.3,102.3z"/>
	</g>
</g>
<g>
	<g>
		<path class="st0" d="M17.1,375.5c-5.8,0.1-11.5,0.9-17.1,2.4v31.7c0,28.3,22.9,51.2,51.2,51.2H83c1.5-5.6,2.4-11.3,2.4-17.1
			C85.4,406,54.8,375.5,17.1,375.5z"/>
	</g>
</g>
</svg>
