<?xml version="1.0" encoding="utf-8"?>
<!-- Generator: Adobe Illustrator 22.0.1, SVG Export Plug-In . SVG Version: 6.00 Build 0)  -->
<svg version="1.1" id="Layer_1" xmlns="http://www.w3.org/2000/svg" xmlns:xlink="http://www.w3.org/1999/xlink" x="0px" y="0px"
	 viewBox="0 0 512 512" style="enable-background:new 0 0 512 512;" xml:space="preserve">
<style type="text/css">
	.st0{fill:#FBF0E1;}
</style>
<g>
	<g>
		<path class="st0" d="M450.9,323.6c0-11-8.9-19.9-19.9-19.9h-48.1l-39.5-102.9c-16.7,24.5-43.5,41.6-74.3,45.4l22.1,57.4h-70.4
			l22.1-57.5c-30.8-3.8-57.5-20.9-74.3-45.4l-39.5,102.9H81c-11,0-19.9,8.9-19.9,19.9S70,343.5,81,343.5h32.8l-28.5,74.1
			c-14.3,37.3,4.3,79.2,41.6,93.5c6.8,2.6,14.5-0.8,17.1-7.6l61.5-160h101l61.5,160c2.6,6.8,10.3,10.2,17.1,7.6
			c37.3-14.3,55.9-56.2,41.6-93.5l-28.5-74.1H431C442,343.5,450.9,334.6,450.9,323.6z"/>
	</g>
</g>
<g>
	<g>
		<path class="st0" d="M275.7,77.9c0.1-0.8,0.2-1.6,0.2-2.4V37.3V19.9C275.9,8.9,267,0,256,0c-11,0-19.9,8.9-19.9,19.9v17.4v38.3
			c0,0.8,0.1,1.6,0.2,2.4c-27,8.4-46.6,33.6-46.6,63.3c0,36.6,29.7,66.3,66.3,66.3s66.3-29.7,66.3-66.3
			C322.3,111.5,302.7,86.3,275.7,77.9z M256,161.1c-11,0-19.9-8.9-19.9-19.9c0-11,8.9-19.9,19.9-19.9s19.9,8.9,19.9,19.9
			C275.9,152.2,267,161.1,256,161.1z"/>
	</g>
</g>
</svg>
