<?xml version="1.0" encoding="utf-8"?>
<!-- Generator: Adobe Illustrator 22.0.1, SVG Export Plug-In . SVG Version: 6.00 Build 0)  -->
<svg version="1.1" id="Capa_1" xmlns="http://www.w3.org/2000/svg" xmlns:xlink="http://www.w3.org/1999/xlink" x="0px" y="0px"
	 viewBox="0 0 512 512" style="enable-background:new 0 0 512 512;" xml:space="preserve">
<style type="text/css">
	.st0{fill:#FBF0E1;}
</style>
<g>
	<path class="st0" d="M451.9,51.7V0h-308v53.4h-28.6v30.1h28.6v53.4h308V81.7l30.1,0.1v91.6H342.1v30.1H512V51.9L451.9,51.7z"/>
	<path class="st0" d="M243.7,173.4h68.5v65.1h-68.5L243.7,173.4z"/>
	<path class="st0" d="M0,314.7h42.2v173.9H0V314.7z"/>
	<path class="st0" d="M334.2,268.5l-120.6,0V195l-67,51.8c-27,20-41.3,41.4-45.1,68H72.2v173.9h24.6l68.3,23.4h168.8v-0.3h0.3
		c16.8,0,30.4-13.6,30.4-30.4c0-16.8-13.6-30.4-30.4-30.4h-0.3v-0.1h0.3c16.8,0,30.4-13.6,30.4-30.4c0-16.8-13.6-30.4-30.4-30.4
		h-0.3V390h0.3c16.8,0,30.4-13.6,30.4-30.4c0-16.8-13.6-30.4-30.4-30.4h-0.3v-0.1h0.3c16.8,0,30.4-13.6,30.4-30.4
		C364.6,282.1,351,268.5,334.2,268.5L334.2,268.5z"/>
</g>
</svg>
