<?xml version="1.0" encoding="utf-8"?>
<!-- Generator: Adobe Illustrator 22.1.0, SVG Export Plug-In . SVG Version: 6.00 Build 0)  -->
<svg version="1.1" id="Capa_1" xmlns="http://www.w3.org/2000/svg" xmlns:xlink="http://www.w3.org/1999/xlink" x="0px" y="0px"
	 viewBox="0 0 512 512" style="enable-background:new 0 0 512 512;" xml:space="preserve">
<style type="text/css">
	.st0{fill:#FBF0E1;}
</style>
<g>
	<g>
		<path class="st0" d="M512,322.3089905V157.9100037L417.5929871,52.4079933H94.4069977L0,157.9100037v164.3979797h49.1590004
			V429.59198H35.9920006v30h56.3329964v-30H79.1589966V322.3089905H241v107.2839966h-13.1669922v30h56.3330078v-30H271V322.3089905
			h161.8410034v107.2839966h-13.1660156v30h56.3330078v-30h-13.1669922V322.3089905H512z M30,239.6410065v-30.0500031
			l21.9599991,30.0500031H30z M69.0920029,212.2389984l-34.8170013-47.6439972l46.4459991-51.9050064L69.0920029,212.2389984z
			 M96.0940018,239.6410065l13.1660004-112.6990051l53.3120041,112.6990051H96.0940018z M121.3809967,82.4079895H235.394989
			l-42.6260071,150.9110107L121.3809967,82.4079895z M222.1569977,239.6410065l32.8690033-116.3670044l32.8680115,116.3670044
			H222.1569977z M274.6570129,82.4079895h114.0130005l-71.3870239,150.9120178L274.6570129,82.4079895z M347.480011,239.6410065
			l53.3110046-112.7000046l13.1660156,112.7000046H347.480011z M429.0369873,110.1849899l47.6149902,53.2110062
			l-35.6929932,48.8419952L429.0369873,110.1849899z M458.0929871,239.6410065L482,206.9250031v32.7160034H458.0929871z"/>
	</g>
</g>
</svg>
