<?xml version="1.0" encoding="utf-8"?>
<!-- Generator: Adobe Illustrator 22.0.1, SVG Export Plug-In . SVG Version: 6.00 Build 0)  -->
<svg version="1.1" id="Capa_1" xmlns="http://www.w3.org/2000/svg" xmlns:xlink="http://www.w3.org/1999/xlink" x="0px" y="0px"
	 viewBox="0 0 512 512" style="enable-background:new 0 0 512 512;" xml:space="preserve">
<style type="text/css">
	.st0{fill:#FBF0E1;}
</style>
<g id="XMLID_385_">
	<path id="XMLID_394_" class="st0" d="M90.3,309.2c0,7.5,6.1,13.6,13.6,13.6h0.7c7.5,0,13.6-6.1,13.6-13.6v-64.1H90.3L90.3,309.2z"
		/>
	<path id="XMLID_397_" class="st0" d="M212.1,244.8v55.5c0,8.3-6.8,15.1-15.1,15.1s-15.1-6.8-15.1-15.1v-55.5h-33.5v64.4
		c0,24.1-19.6,43.7-43.7,43.7h-0.7c-24.1,0-43.7-19.6-43.7-43.7v-64.4H0v252.8h271.1V244.8H212.1z"/>
	<path id="XMLID_398_" class="st0" d="M135.5,117.6c55.3,0,100.7,42.8,105,97h30.2c-4.3-70.8-63.4-127.2-135.3-127.2
		C63.6,87.4,4.6,143.7,0.3,214.6h30.2C34.8,160.4,80.3,117.6,135.5,117.6z"/>
	<path id="XMLID_403_" class="st0" d="M512,151.2V13.9h-59.6v78.6h-30.2V13.9H300v137.3H512z"/>
	<path id="XMLID_404_" class="st0" d="M472,246.8c22.1,0,40-17.9,40-40V185v-3.7H300v3.7v21.7c0,22.1,17.9,40,40,40H472z"/>
	<path id="XMLID_455_" class="st0" d="M359.8,277.1v43.3c0,25.6-6,51.4-17.9,76.6c-4.6,9.8-6.9,20.3-6.8,31.2
		c0.2,18.9,8.1,36.7,22.1,50.1c13.4,12.8,30.7,19.8,48.8,19.8c0.8,0,1.6,0,2.3,0c18.4-0.6,35.6-8.2,48.5-21.5
		c12.9-13.3,20-30.8,20-49.3c0-10.3-2.2-20.2-6.4-29.4c-12.1-26.5-18.3-53.5-18.3-80.3v-40.4L359.8,277.1L359.8,277.1z M406,410.1
		c8.5,0,14.7,6.9,15.1,15.1c0.4,8.1-7.2,15.1-15.1,15.1c-8.5,0-14.7-6.9-15.1-15.1C390.5,417.1,398.1,410.1,406,410.1z"/>
</g>
</svg>
