<?xml version="1.0" encoding="utf-8"?>
<!-- Generator: Adobe Illustrator 22.0.1, SVG Export Plug-In . SVG Version: 6.00 Build 0)  -->
<svg version="1.1" id="Layer_1" xmlns="http://www.w3.org/2000/svg" xmlns:xlink="http://www.w3.org/1999/xlink" x="0px" y="0px"
	 viewBox="0 0 512 530.4" style="enable-background:new 0 0 512 530.4;" xml:space="preserve">
<style type="text/css">
	.st0{fill:#FBF0E1;}
</style>
<path id="Shape_1_" class="st0" d="M266.8,422.4l-10.7,10.2L29.9,214.8c-7-6.8-18.2-6.6-25,0.5s-6.6,18.2,0.5,25l238.3,229.5
	c6.8,6.6,17.6,6.6,24.4,0.1l23-21.8c4.6-4.3,6.5-10.8,5-16.9s-6.1-11-12.2-12.8S271.4,418,266.8,422.4L266.8,422.4z"/>
<path id="Shape_2_" class="st0" d="M445.4,277.1c-6.7-7.1-17.9-7.4-25-0.6L261.7,427.2c-4.7,4.3-6.7,10.8-5.3,17
	c1.5,6.2,6.2,11.2,12.3,12.9c6.1,1.8,12.7,0.1,17.3-4.4l158.7-150.8C451.8,295.4,452.1,284.2,445.4,277.1z"/>
<path id="Shape_3_" class="st0" d="M494.3,298.1c-9.8,0-17.7-7.9-17.7-17.7V239l-41.6,5.9c-9.7,1.4-18.6-5.3-20-15s5.3-18.6,15-20
	l61.8-8.8c5.1-0.7,10.2,0.8,14.1,4.1c3.9,3.4,6.1,8.2,6.1,13.3v61.8C512,290.2,504.1,298.1,494.3,298.1z"/>
<path id="Rectangle-path_1_" class="st0" d="M17.7,492.3h476.7c9.8,0,17.7,7.9,17.7,17.7l0,0c0,9.8-7.9,17.7-17.7,17.7H17.7
	C7.9,527.6,0,519.7,0,510l0,0C0,500.2,7.9,492.3,17.7,492.3z"/>
<g>
	<g>
		<path class="st0" d="M345.5,0c-22.6,22.6-52.3,43.9-52.3,74c0,69.2,104.7,69.2,104.7,0C397.9,43.9,368.1,22.6,345.5,0z"/>
	</g>
</g>
<g>
	<g>
		<path class="st0" d="M276.7,186.6c-22.6,22.6-52.3,43.9-52.3,74c0,69.2,104.7,69.2,104.7,0C329,230.4,299.3,209.2,276.7,186.6z"/>
	</g>
</g>
<g>
	<g>
		<path class="st0" d="M157.4,24.6c-55.8,55.8-78.5,70.2-78.5,111c0,43.4,35.2,78.5,78.5,78.5c43.4,0,78.5-35.2,78.5-78.5
			C235.9,94.8,213.3,80.5,157.4,24.6z"/>
	</g>
</g>
</svg>
