<?xml version="1.0" encoding="utf-8"?>
<!-- Generator: Adobe Illustrator 22.1.0, SVG Export Plug-In . SVG Version: 6.00 Build 0)  -->
<svg version="1.1" id="bold" xmlns="http://www.w3.org/2000/svg" xmlns:xlink="http://www.w3.org/1999/xlink" x="0px" y="0px"
	 viewBox="0 0 512 512" style="enable-background:new 0 0 512 512;" xml:space="preserve">
<style type="text/css">
	.st0{fill:#FBF0E1;}
</style>
<path class="st0" d="M501.5039978,0.0639933C401.5573425-1.7280068,287.5733337,50.5173302,215.423996,131.5626526
	c-68.9493408,1.3013306-136.0853424,29.5680084-185.514679,78.997345
	c-2.8799992,2.8373413-3.9039993,7.0826569-2.6453323,10.9226685c1.2799988,3.8613281,4.6079998,6.6560059,8.6186695,7.2319946
	l82.2186737,11.776001l-10.1546631,11.3706665c-3.776001,4.223999-3.5840073,10.6453247,0.4266663,14.6560059
	L245.482666,403.6266785c2.0693359,2.0693359,4.8000183,3.1146545,7.552002,3.1146545
	c2.538681,0,5.0773315-0.8959961,7.1040039-2.7093506l11.3706665-10.1546631l11.776001,82.218689
	c0.5760193,4.0106506,3.7333374,6.9546509,7.552002,8.2346497c0.9813232,0.3199768,2.0053406,0.4693298,3.0506592,0.4693298
	c3.0293579,0,6.1226807-1.3226929,8.256012-3.4346619c48.7466736-48.7466736,77.0133362-115.8826599,78.3146667-184.8320007
	C461.589325,224.2346649,514.2613525,110.293335,511.9360046,10.4746437
	c-0.1493225-5.6746669-4.7359924-10.2613335-10.4320068-10.4106674V0.0639933z M403.2000122,184.2133331
	c-10.3893433,10.389328-24.0426941,15.5946655-37.7173462,15.5946655c-13.6746216,0-27.3280029-5.2053375-37.7173157-15.5946655
	c-20.778656-20.7999878-20.778656-54.6346588,0-75.4346695c20.8000183-20.8000031,54.6346741-20.8000031,75.4346619,0
	C423.9999695,129.5786591,424,163.4346771,403.2000122,184.2133331z"/>
<path class="st0" d="M58.1119995,360.6400146C35.2853317,383.4666748,3.9466655,486.5920105,0.447998,498.2613525
	c-1.1306667,3.7546997-0.0853333,7.8293457,2.6666667,10.6026611C5.1626649,510.9120483,7.8719978,512,10.6666651,512
	c1.0240002,0,2.0479994-0.1493225,3.0720005-0.447998c11.6693354-3.4986572,114.7946777-34.8373108,137.6213531-57.6639709
	c25.706665-25.706665,25.706665-67.5413513,0-93.2480164c-25.7280045-25.706665-67.5413361-25.6853333-93.2480011,0H58.1119995z"/>
</svg>
