<?xml version="1.0" encoding="utf-8"?>
<!-- Generator: Adobe Illustrator 22.0.1, SVG Export Plug-In . SVG Version: 6.00 Build 0)  -->
<svg version="1.1" id="Capa_1" xmlns="http://www.w3.org/2000/svg" xmlns:xlink="http://www.w3.org/1999/xlink" x="0px" y="0px"
	 viewBox="0 0 512 390" style="enable-background:new 0 0 512 390;" xml:space="preserve">
<style type="text/css">
	.st0{fill:#FBF0E1;}
</style>
<g>
	<g>
		<path class="st0" d="M482,330H30c-16.6,0-30,13.4-30,30c0,16.6,13.4,30,30,30h452c16.6,0,30-13.4,30-30
			C512,343.4,498.6,330,482,330z"/>
	</g>
</g>
<g>
	<g>
		<path class="st0" d="M391,75.3V135c0,8.3-6.7,15-15,15c-8.3,0-15-6.7-15-15V56.1c-9.6-5.1-19.7-9.3-30-13V165c0,8.3-6.7,15-15,15
			c-8.3,0-15-6.7-15-15V15c0-8.3-6.7-15-15-15h-60c-8.3,0-15,6.7-15,15v150c0,8.3-6.7,15-15,15s-15-6.7-15-15V43.1
			c-10.3,3.7-20.4,7.9-30,13V135c0,8.3-6.7,15-15,15s-15-6.7-15-15V75.3C66.4,116.4,31,181.5,31,255v45h450v-45
			C481,181.5,445.6,116.4,391,75.3z"/>
	</g>
</g>
</svg>
