<?xml version="1.0" encoding="utf-8"?>
<!-- Generator: Adobe Illustrator 22.0.1, SVG Export Plug-In . SVG Version: 6.00 Build 0)  -->
<svg version="1.1" id="Capa_1" xmlns="http://www.w3.org/2000/svg" xmlns:xlink="http://www.w3.org/1999/xlink" x="0px" y="0px"
	 viewBox="0 0 512 512" style="enable-background:new 0 0 512 512;" xml:space="preserve">
<style type="text/css">
	.st0{fill:#FBF0E1;}
</style>
<path class="st0" d="M461.1,60.9L260.3,0.6c-2.8-0.8-5.8-0.8-8.6,0L50.9,60.9c-6.3,1.9-10.7,7.7-10.7,14.4v220.9
	c0,28.7,11.6,58.1,34.6,87.4c17.5,22.4,41.8,44.8,72,66.7c50.9,36.8,101,59.4,103.1,60.4c1.9,0.9,4,1.3,6.1,1.3s4.2-0.4,6.1-1.3
	c2.1-0.9,52.2-23.5,103.1-60.4c30.3-21.9,54.5-44.4,72-66.7c22.9-29.3,34.6-58.7,34.6-87.4V75.3C471.8,68.6,467.5,62.8,461.1,60.9z
	 M353.1,313.8c-12.9,52.5-53.7,84.1-53.7,84.1s11.7-43.2,11.7-63c0,0-22.1,16.3-33.7,19.8c0,0-31.5-43.2-26.9-98.7
	c0,0-66.7,38-35.1,141.9c0,0-78.5-54.9-37.5-141.3c41-86.5,58.5-96.9,52.7-142.5c0,0,67.7,31.5,73.6,106.3
	c4.2,53.3-2.9,76.2-7.4,85.1c-0.8,1.7-1.8,3.3-3.1,4.7c24.6-27.9,37.2-64.5,34.9-101.6C328.6,208.6,365.9,261.3,353.1,313.8z"/>
</svg>
