<?xml version="1.0" encoding="utf-8"?>
<!-- Generator: Adobe Illustrator 22.0.1, SVG Export Plug-In . SVG Version: 6.00 Build 0)  -->
<svg version="1.1" id="Capa_1" xmlns="http://www.w3.org/2000/svg" xmlns:xlink="http://www.w3.org/1999/xlink" x="0px" y="0px"
	 viewBox="0 0 512 512" style="enable-background:new 0 0 512 512;" xml:space="preserve">
<style type="text/css">
	.st0{fill:#FBF0E1;}
</style>
<g>
	<path class="st0" d="M406,150h-30c-8.3,0-15,6.7-15,15v180c0,8.3,6.7,15,15,15h30c8.3,0,15-6.7,15-15V165
		C421,156.7,414.3,150,406,150z"/>
	<path class="st0" d="M223.4,141.2c19.3-29.1,16.1-68.8-9.5-94.4L171.5,4.4c-5.9-5.9-15.4-5.9-21.2,0L65.4,89.2
		c-5.9,5.9-5.9,15.4,0,21.2l42.4,42.4c25.6,25.6,65.3,28.8,94.4,9.5l38.8,38.8v8.8H76c-8.3,0-15,6.7-15,15v15H30v-15
		c0-8.3-6.7-15-15-15s-15,6.7-15,15v60c0,8.3,6.7,15,15,15s15-6.7,15-15v-15h31v227c0,8.3,6.7,15,15,15h120c8.3,0,15-6.7,15-15
		s-6.7-15-15-15h-15v-92h15c24.8,0,45-20.2,45-45v-15h90V180h-68.8L223.4,141.2z M211,345c0,8.3-6.7,15-15,15h-15v-30h30V345z"/>
	<path class="st0" d="M500.6,225.4L451,213.2v83.5l49.6-12.2c6.7-1.6,11.4-7.7,11.4-14.6v-30C512,233.1,507.3,227.1,500.6,225.4
		L500.6,225.4z"/>
</g>
</svg>
