<?xml version="1.0" encoding="utf-8"?>
<!-- Generator: Adobe Illustrator 22.0.1, SVG Export Plug-In . SVG Version: 6.00 Build 0)  -->
<svg version="1.1" id="Layer_1" xmlns="http://www.w3.org/2000/svg" xmlns:xlink="http://www.w3.org/1999/xlink" x="0px" y="0px"
	 viewBox="0 0 512 512" style="enable-background:new 0 0 512 512;" xml:space="preserve">
<style type="text/css">
	.st0{fill:#FBF0E1;}
</style>
<path class="st0" d="M241,271.4h30v30h-30L241,271.4z"/>
<path class="st0" d="M181,321.4h30v30h-30V321.4z"/>
<path class="st0" d="M301,321.4h30v30h-30V321.4z"/>
<path class="st0" d="M331,371.5h30v30h-30V371.5z"/>
<path class="st0" d="M151,371.5h30v30h-30V371.5z"/>
<path class="st0" d="M361.1,421.5h30v30h-30V421.5z"/>
<path class="st0" d="M120.9,421.5h30v30h-30V421.5z"/>
<path class="st0" d="M241,471.5h30v30h-30L241,471.5z"/>
<path class="st0" d="M241,421.5h30v30h-30L241,421.5z"/>
<path class="st0" d="M241,371.5h30v30h-30L241,371.5z"/>
<path class="st0" d="M241,321.4h30v30h-30L241,321.4z"/>
<path class="st0" d="M391.1,471.5h30v30h-30V471.5z"/>
<path class="st0" d="M351,271.4h30v30h-30V271.4z"/>
<path class="st0" d="M381.1,321.4h30v30h-30V321.4z"/>
<path class="st0" d="M411.1,371.5h30v30h-30V371.5z"/>
<path class="st0" d="M441.1,421.5h30v30h-30V421.5z"/>
<path class="st0" d="M471.1,471.5h30v30h-30V471.5z"/>
<path class="st0" d="M90.9,471.5h30v30h-30V471.5z"/>
<path class="st0" d="M130.9,271.4h30v30h-30V271.4z"/>
<path class="st0" d="M100.9,321.4h30v30h-30L100.9,321.4z"/>
<path class="st0" d="M70.9,371.5h30v30h-30V371.5z"/>
<path class="st0" d="M40.9,421.5h30v30h-30L40.9,421.5z"/>
<path class="st0" d="M10.9,471.5h30v30h-30L10.9,471.5z"/>
<path class="st0" d="M0,10.5h512v61H0V10.5z"/>
<path class="st0" d="M211,170v38.3h-58.4v30h206.8v-30H301V170c25.1-13.9,43.1-39,47.4-68.4H163.6C167.8,131,185.9,156.1,211,170z"
	/>
</svg>
