<?xml version="1.0" encoding="utf-8"?>
<!-- Generator: Adobe Illustrator 22.0.1, SVG Export Plug-In . SVG Version: 6.00 Build 0)  -->
<svg version="1.1" id="Layer_1" xmlns="http://www.w3.org/2000/svg" xmlns:xlink="http://www.w3.org/1999/xlink" x="0px" y="0px"
	 viewBox="0 0 512 512" style="enable-background:new 0 0 512 512;" xml:space="preserve">
<style type="text/css">
	.st0{fill:#FBF0E1;}
</style>
<path class="st0" d="M497,121c-8.3,0-15,6.7-15,15v75h-60v-75c0-8.3-6.7-15-15-15s-15,6.7-15,15v75h-60V15c0-8.3-6.7-15-15-15
	s-15,6.7-15,15v45H122V15c0-8.3-6.7-15-15-15S92,6.7,92,15v256H30v-45c0-8.3-6.7-15-15-15s-15,6.7-15,15v271c0,8.3,6.7,15,15,15
	s15-6.7,15-15V391h62v106c0,8.3,6.7,15,15,15h390c8.3,0,15-6.7,15-15V136C512,127.7,505.3,121,497,121z M92,361H30v-60h62V361z
	 M332,241h60v60h-60V241z M317,361h30c8.3,0,15,6.7,15,15s-6.7,15-15,15h-30c-8.3,0-15-6.7-15-15S308.7,361,317,361z M122,90h180v30
	H122V90z M257,451h-90c-8.3,0-15-6.7-15-15s6.7-15,15-15h90c8.3,0,15,6.7,15,15S265.3,451,257,451z M257,391h-90
	c-8.3,0-15-6.7-15-15s6.7-15,15-15h90c8.3,0,15,6.7,15,15S265.3,391,257,391z M257,331h-90c-8.3,0-15-6.7-15-15s6.7-15,15-15h90
	c8.3,0,15,6.7,15,15S265.3,331,257,331z M257,271h-90c-8.3,0-15-6.7-15-15s6.7-15,15-15h90c8.3,0,15,6.7,15,15S265.3,271,257,271z
	 M257,211h-90c-8.3,0-15-6.7-15-15s6.7-15,15-15h90c8.3,0,15,6.7,15,15S265.3,211,257,211z M437,451H317c-8.3,0-15-6.7-15-15
	s6.7-15,15-15h120c8.3,0,15,6.7,15,15S445.3,451,437,451z M482,361h-60V241h60V361z"/>
</svg>
