<?xml version="1.0" encoding="UTF-8"?>
<svg width="120px" height="34px" viewBox="0 0 120 34" version="1.1" xmlns="http://www.w3.org/2000/svg" xmlns:xlink="http://www.w3.org/1999/xlink">
    <!-- Generator: Sketch 50.2 (55047) - http://www.bohemiancoding.com/sketch -->
    <title>лого шер</title>
    <desc>Created with Sketch.</desc>
    <defs></defs>
    <g id="Page-1" stroke="none" stroke-width="1" fill="none" fill-rule="evenodd">
        <g id="лого-шер" fill-rule="nonzero">
            <g id="Group" transform="translate(30.250000, 8.500000)" fill="#FFFFFF">
                <path d="M43.95,12.975 C44,13.275 44.025,13.5 44.075,13.725 C44.575,15.825 46.225,17.225 48.375,17.4 C50.275,17.55 51.775,16.825 52.875,15.275 C53.425,14.525 54.3,14.4 55,15 C55.4,15.35 55.45,15.8 55.125,16.225 C54.95,16.45 54.775,16.675 54.6,16.925 C53.875,17.925 52.925,18.6 51.75,19 C49.85,19.65 47.95,19.75 46.075,19.05 C43.55,18.125 42.05,16.275 41.625,13.625 C41.375,12 41.525,10.375 42.275,8.9 C43.35,6.8 45.05,5.5 47.4,5.125 C48.95,4.875 50.5,5.025 51.95,5.725 C54,6.7 55.25,8.35 55.725,10.55 C55.85,11.15 55.9,11.775 55.95,12.375 C56,12.75 55.825,12.925 55.425,12.95 C55.25,12.95 55.075,12.95 54.9,12.95 C51.4,12.95 47.9,12.95 44.4,12.95 C44.3,12.975 44.175,12.975 43.95,12.975 Z M53.525,10.675 C53.225,8.7 50.85,7 48.675,7.125 C46.4,7.25 44.125,9 44.05,10.675 C47.175,10.675 50.35,10.675 53.525,10.675 Z" id="Shape"></path>
                <path d="M28.275,12.925 C28.3,13.125 28.325,13.275 28.35,13.425 C28.775,15.75 30.675,17.35 33.025,17.4 C34.8,17.425 36.2,16.7 37.225,15.25 C37.775,14.475 38.75,14.4 39.425,15.075 C39.75,15.425 39.8,15.825 39.5,16.225 C39.375,16.425 39.225,16.6 39.075,16.775 C38.3,17.9 37.25,18.625 35.95,19.05 C34.05,19.675 32.15,19.725 30.325,19 C27.7,17.975 26.225,15.975 25.925,13.175 C25.775,11.825 25.9,10.5 26.475,9.275 C27.55,6.925 29.325,5.475 31.925,5.125 C33.3,4.95 34.675,5.05 35.95,5.575 C38.25,6.525 39.6,8.3 40.1,10.725 C40.2,11.275 40.25,11.85 40.275,12.4 C40.3,12.85 40.2,12.95 39.725,12.95 C38.9,12.95 38.05,12.95 37.225,12.95 C34.425,12.95 31.625,12.95 28.85,12.95 C28.675,12.925 28.5,12.925 28.275,12.925 Z M37.875,10.625 C37.575,8.675 35.275,7.025 33.025,7.075 C30.825,7.125 28.55,8.875 28.375,10.625 C31.525,10.625 34.675,10.625 37.875,10.625 Z" id="Shape"></path>
                <path d="M63.125,14.025 C63.3,14.175 63.4,14.275 63.5,14.375 C64.725,15.425 65.95,16.45 67.15,17.5 C67.225,17.575 67.325,17.65 67.4,17.725 C67.85,18.175 67.9,18.825 67.475,19.275 C67.075,19.725 66.425,19.8 65.95,19.4 C65.1,18.7 64.275,17.975 63.45,17.275 C62.25,16.25 61.075,15.25 59.875,14.225 C59.775,14.125 59.65,14.05 59.475,13.9 C59.475,14.15 59.45,14.3 59.45,14.475 C59.45,17.35 59.45,20.225 59.45,23.1 C59.45,23.225 59.45,23.375 59.45,23.5 C59.4,24.125 58.925,24.575 58.3,24.55 C57.7,24.525 57.275,24.075 57.25,23.45 C57.25,23.325 57.25,23.175 57.25,23.05 C57.25,17.375 57.25,11.7 57.25,6.025 C57.25,5.85 57.25,5.675 57.25,5.5 C57.25,5.1 57.3,5.025 57.675,5.025 C58.2,5 58.725,5 59.225,5 C60.475,5 61.75,5.05 63,4.975 C65.1,4.875 67.45,6.575 67.675,9.05 C67.875,11.275 66.375,13.375 64.1,13.825 C63.825,13.875 63.525,13.95 63.125,14.025 Z M59.3,12.275 C59.425,12.3 59.525,12.3 59.6,12.3 C60.65,12.3 61.7,12.3 62.75,12.3 C63.05,12.3 63.35,12.275 63.65,12.175 C64.625,11.875 65.4,11.3 65.65,10.25 C66.075,8.475 64.75,6.825 62.925,6.825 C61.85,6.825 60.775,6.825 59.675,6.825 C59.55,6.825 59.425,6.85 59.3,6.85 C59.3,8.675 59.3,10.45 59.3,12.275 Z" id="Shape"></path>
                <path d="M22.3,13 C20.225,13 18.2,13 16.15,13 C16.15,13.175 16.125,13.35 16.125,13.5 C16.125,15.075 16.125,16.65 16.125,18.225 C16.125,18.425 16.125,18.625 16.075,18.8 C15.925,19.275 15.425,19.575 14.95,19.55 C14.425,19.5 14,19.1 13.925,18.575 C13.9,18.45 13.925,18.325 13.925,18.2 C13.925,12.575 13.925,6.95 13.925,1.35 C13.925,1.125 13.95,0.9 14.025,0.7 C14.2,0.225 14.7,-0.05 15.225,0.025 C15.7,0.1 16.1,0.5 16.15,1 C16.175,1.15 16.15,1.3 16.15,1.45 C16.15,4.35 16.15,7.225 16.15,10.125 C16.15,10.3 16.175,10.475 16.175,10.625 C16.55,10.725 21.9,10.725 22.3,10.625 C22.3,10.5 22.325,10.35 22.325,10.2 C22.325,8.925 22.325,7.65 22.325,6.375 C22.325,6.25 22.325,6.125 22.325,6 C22.375,5.425 22.8,5 23.375,4.975 C23.95,4.95 24.45,5.375 24.525,5.95 C24.55,6.075 24.525,6.2 24.525,6.325 C24.525,10.275 24.525,14.225 24.525,18.175 C24.525,18.3 24.525,18.425 24.525,18.55 C24.45,19.125 23.95,19.575 23.4,19.55 C22.825,19.525 22.375,19.075 22.325,18.5 C22.325,18.375 22.325,18.25 22.325,18.125 C22.325,16.6 22.325,15.05 22.325,13.525 C22.3,13.375 22.3,13.2 22.3,13 Z" id="Shape"></path>
                <path d="M6.425,19.6 C4.95,19.575 3.575,19.25 2.3,18.5 C1.75,18.175 1.25,17.775 0.85,17.3 C0.65,17.05 0.45,16.775 0.3,16.475 C0.05,16 0.15,15.625 0.525,15.25 C0.95,14.85 1.55,14.675 2.125,15.075 C2.4,15.275 2.65,15.525 2.875,15.775 C3.1,16 3.275,16.25 3.5,16.475 C4.175,17.15 5,17.525 5.95,17.625 C6.825,17.725 7.7,17.7 8.55,17.4 C8.9,17.275 9.25,17.1 9.55,16.875 C10.275,16.325 10.3,15.4 9.6,14.825 C9.275,14.55 8.875,14.35 8.475,14.175 C7.475,13.75 6.45,13.45 5.4,13.175 C4.55,12.975 3.725,12.7 2.875,12.45 C2.55,12.35 2.25,12.175 1.95,12.025 C1.15,11.6 0.7,10.925 0.575,10.05 C0.325,8.275 1,6.85 2.6,6.075 C5.05,4.875 7.525,4.775 9.95,6.175 C10.4,6.425 10.825,6.8 11.225,7.15 C11.525,7.4 11.725,7.775 11.85,8.15 C12.05,8.8 11.725,9.125 11.15,9.25 C10.65,9.35 10.2,9.2 9.85,8.825 C9.775,8.75 9.725,8.675 9.675,8.6 C9.1,7.75 8.275,7.275 7.275,7.075 C6.275,6.9 5.275,6.925 4.325,7.3 C3.975,7.425 3.625,7.625 3.35,7.875 C2.675,8.45 2.675,9.225 3.325,9.825 C3.75,10.225 4.25,10.45 4.8,10.575 C6,10.875 7.225,11.175 8.425,11.475 C9.2,11.675 9.95,11.925 10.65,12.325 C11.55,12.8 12.2,13.5 12.425,14.525 C12.7,15.775 12.425,16.875 11.45,17.775 C10.35,18.775 9.075,19.35 7.6,19.525 C7.2,19.55 6.8,19.575 6.425,19.6 Z" id="Shape"></path>
            </g>
            <g id="Group" transform="translate(0.000000, 5.500000)" fill="#FFFFFF">
                <path d="M14.475,3.225 C14.575,2.725 14.65,2.3 14.725,1.85 C15.625,1.775 18.225,3 19.675,4.225 C22.2,6.35 23.675,9.05 23.95,12.325 C24.575,19.125 19.65,24.65 13.425,25.375 C6.675,26.15 0.825,21.325 0.1,14.85 C-0.7,8 4.175,2.95 9.025,1.875 C9.1,2.35 9.175,2.8 9.275,3.3 C9.075,3.375 8.925,3.425 8.75,3.475 C4.775,4.9 2.4,7.675 1.625,11.825 C1.375,13.175 1.45,14.525 1.775,15.875 C1.825,16.1 1.925,16.275 2.1,16.425 C3.45,17.7 5.025,18.575 6.775,19.175 C8.875,19.9 11.025,20.125 13.225,19.975 C15.825,19.8 18.275,19.05 20.475,17.6 C20.95,17.275 21.4,16.875 21.875,16.525 C22.1,16.35 22.2,16.15 22.275,15.875 C23.025,12.2 22.175,8.975 19.625,6.225 C18.325,4.825 16.7,3.875 14.85,3.375 C14.7,3.3 14.6,3.275 14.475,3.225 Z M2.5,17.775 C3.75,20.9 7.525,24.4 13.025,23.925 C15.4,23.7 17.475,22.75 19.225,21.1 C20.3,20.075 21.425,18.475 21.5,17.775 C18.675,19.925 15.5,20.925 12,20.925 C8.5,20.925 5.3,19.9 2.5,17.775 Z" id="Shape"></path>
                <path d="M11.875,0.125 C12.375,0.125 12.875,0.15 13.35,0.125 C14.1,0.075 14.35,0.65 14.25,1.2 C14.175,1.7 14.075,2.2 14,2.7 C13.9,3.3 13.775,3.875 13.7,4.475 C13.6,5.125 13.275,5.35 12.7,5.325 C12.125,5.3 11.55,5.325 10.975,5.325 C10.4,5.325 10.15,5.125 10.05,4.55 C9.9,3.675 9.75,2.8 9.6,1.925 C9.55,1.675 9.5,1.425 9.475,1.15 C9.4,0.55 9.725,0.15 10.325,0.15 C10.825,0.1 11.35,0.125 11.875,0.125 Z" id="Shape"></path>
                <path d="M13.95,10.775 C13.95,9.025 15.35,7.625 17.1,7.625 C18.85,7.625 20.275,9.025 20.275,10.775 C20.275,12.55 18.85,13.975 17.1,13.95 C15.325,13.925 13.95,12.525 13.95,10.775 Z M14.75,10.725 C14.725,12.05 15.8,13.125 17.1,13.15 C18.375,13.15 19.475,12.1 19.475,10.8 C19.5,9.475 18.425,8.4 17.125,8.4 C15.825,8.4 14.75,9.45 14.75,10.725 Z" id="Shape"></path>
                <path d="M6.925,14.05 C5.175,14.05 3.75,12.625 3.775,10.875 C3.775,9.1 5.2,7.725 6.975,7.7 C8.4,7.7 10.1,8.8 10.1,10.85 C10.125,12.975 8.375,14.1 6.925,14.05 Z M6.975,13.25 C8.275,13.25 9.325,12.175 9.325,10.9 C9.325,9.6 8.25,8.525 6.925,8.525 C5.65,8.525 4.575,9.625 4.575,10.9 C4.575,12.2 5.65,13.25 6.975,13.25 Z" id="Shape"></path>
                <path d="M17.125,9.6 C17.8,9.6 18.3,10.075 18.3,10.75 C18.3,11.425 17.775,11.975 17.125,11.95 C16.5,11.95 15.95,11.4 15.95,10.775 C15.975,10.125 16.475,9.625 17.125,9.6 Z" id="Shape"></path>
                <path d="M6.975,12.075 C6.325,12.075 5.8,11.55 5.8,10.9 C5.8,10.25 6.325,9.725 6.975,9.725 C7.625,9.725 8.175,10.275 8.15,10.925 C8.15,11.575 7.65,12.075 6.975,12.075 Z" id="Shape"></path>
            </g>
            <circle id="Oval" fill="#FFD244" cx="101.975" cy="22.725" r="1.05"></circle>
            <rect id="Rectangle-path" fill="#FFD244" transform="translate(102.877239, 21.366358) rotate(33.650338) translate(-102.877239, -21.366358) " x="101.827283" y="19.7539248" width="2.0999124" height="3.22486547"></rect>
            <path d="M109.075,9.6 C108.825,10.3 108.425,10.925 107.875,11.475 C106.875,12.5 105.625,13 104.175,13 C102.8,13 101.575,12.45 100.525,11.35 C99.45,10.275 98.9,9 98.9,7.525 C98.9,6.025 99.425,4.75 100.45,3.675 C101.475,2.625 102.7,2.075 104.15,2.075 C105.625,2.075 106.825,2.6 107.8,3.675 L110.55,3.675 C110.25,3.15 109.875,2.675 109.425,2.2 C108,0.725 106.25,0 104.2,0 C102.075,0 100.3,0.775 98.825,2.3 C98.15,3.025 97.65,3.85 97.275,4.75 C96.9,5.675 96.725,6.65 96.725,7.65 C96.725,9.6 97.4,11.35 98.725,12.9 C100.05,14.45 101.675,15.225 103.6,15.225 C104.6,15.225 105.475,15 106.225,14.55 L101.075,22.175 L103.6,22.175 L108.75,14.45 C109.625,13.125 110.125,12.325 110.3,12.025 C110.775,11.225 111.1,10.425 111.3,9.6 L109.075,9.6 Z" id="Shape" fill="#FFD244"></path>
            <g id="Group" transform="translate(107.500000, 4.750000)" fill="#FFD244">
                <path d="M3.875,0.125 L3.875,4.15 L3.2,4.15 L3.2,0.725 L1.775,0.725 C1.75,1.375 1.7,2.05 1.65,2.575 C1.5,3.675 1.1,4.175 0.375,4.175 C0.225,4.175 0.1,4.15 0.025,4.125 L0.075,3.55 C0.125,3.55 0.175,3.575 0.275,3.575 C0.675,3.575 0.95,3.175 1.05,2.375 C1.125,1.75 1.15,0.825 1.15,0.15 L3.875,0.15 L3.875,0.125 Z" id="Shape"></path>
                <path d="M8.675,2.35 L5.55,2.35 C5.65,3.1 6.175,3.6 6.925,3.6 C7.45,3.6 7.85,3.375 8.075,3.075 L8.55,3.475 C8.2,3.925 7.7,4.225 6.9,4.225 C5.725,4.225 4.875,3.4 4.875,2.175 C4.875,0.975 5.7,0.125 6.85,0.125 C7.95,0.125 8.7,0.975 8.7,2.1 C8.7,2.175 8.675,2.3 8.675,2.35 Z M5.55,1.8 L8.025,1.8 C7.925,1.15 7.5,0.7 6.85,0.7 C6.2,0.7 5.675,1.125 5.55,1.8 Z" id="Shape"></path>
                <polygon id="Shape" points="10.475 0.725 9.125 0.725 9.125 0.125 12.475 0.125 12.475 0.725 11.125 0.725 11.125 4.15 10.45 4.15 10.45 0.725"></polygon>
            </g>
        </g>
    </g>
</svg>