<?xml version="1.0" encoding="utf-8"?>
<!-- Generator: Adobe Illustrator 22.0.1, SVG Export Plug-In . SVG Version: 6.00 Build 0)  -->
<svg version="1.1" id="Layer_1" xmlns="http://www.w3.org/2000/svg" xmlns:xlink="http://www.w3.org/1999/xlink" x="0px" y="0px"
	 viewBox="0 0 24 24" style="enable-background:new 0 0 24 24;" xml:space="preserve">
<style type="text/css">
	.st0{fill:#FFFFFF;}
</style>
<path class="st0" d="M17.1,7H20c1.1,0,2,0.9,2,2v2c0,0.8-0.5,1.6-1.3,1.9c0,0,0,0.1,0,0.1c0,0.1,0,0.3,0,0.4l-1.6,7
	c-0.2,0.9-1,1.6-2,1.6H6.8c-0.9,0-1.7-0.7-2-1.6l-1.6-7c0-0.2-0.1-0.4,0-0.6C2.5,12.6,2,11.8,2,11V9c0-1.1,0.9-2,2-2h2.9l2.2-4.4
	c0.2-0.5,0.8-0.7,1.3-0.4s0.7,0.8,0.4,1.3L9.1,7h5.8l-1.8-3.6c-0.2-0.5,0-1.1,0.4-1.3s1.1,0,1.3,0.4L17.1,7z M18,9
	c0,0.4-0.2,0.7-0.6,0.9c-0.5,0.2-1.1,0-1.3-0.4L15.9,9H8.1L7.9,9.4C7.6,9.9,7,10.1,6.6,9.9C6.2,9.7,6,9.4,6,9H4v2h16V9H18z M5.2,13
	l1.6,7h10.4l1.6-7H5.2z"/>
</svg>
