<?xml version="1.0" encoding="utf-8"?>
<!-- Generator: Adobe Illustrator 22.1.0, SVG Export Plug-In . SVG Version: 6.00 Build 0)  -->
<svg version="1.1" id="Layer_1" xmlns="http://www.w3.org/2000/svg" xmlns:xlink="http://www.w3.org/1999/xlink" x="0px" y="0px"
	 viewBox="0 0 512 512" style="enable-background:new 0 0 512 512;" xml:space="preserve">
<path d="M256,0C145.7,0,56,89.7,56,200c0,76.2,47.2,153.2,95.6,212.2c46.4,56.5,92.2,94.6,94.2,96.2c5.9,4.9,14.5,4.9,20.4,0
	c56.3-46.5,124.4-124.3,159.4-194.2C445.8,273.8,456,235.4,456,200C456,89.7,366.3,0,256,0L256,0z M256,474.8
	C218.2,440.8,88,315.7,88,200c0-92.6,75.4-168,168-168s168,75.4,168,168C424,315.7,293.8,440.8,256,474.8z"/>
<path d="M256,64c-75,0-136,61-136,136c0,46.9,23.9,88.3,60.1,112.8c0.6,0.5,1.3,0.9,2,1.3c44.3,28.8,102.3,29.6,147.8,0
	c0.7-0.4,1.4-0.8,2-1.3C368.1,288.3,392,246.9,392,200C392,125,331,64,256,64z M255.5,305.9c-58.5,0-105.9-47.4-105.9-105.9
	c0-58.5,47.4-105.9,105.9-105.9c58.5,0,105.9,47.4,105.9,105.9C361.4,258.5,314,305.9,255.5,305.9z"/>
</svg>
