<?xml version="1.0" encoding="utf-8"?>
<!-- Generator: Adobe Illustrator 22.1.0, SVG Export Plug-In . SVG Version: 6.00 Build 0)  -->
<svg version="1.1" id="Layer_1" xmlns="http://www.w3.org/2000/svg" xmlns:xlink="http://www.w3.org/1999/xlink" x="0px" y="0px"
	 viewBox="0 0 512 512" style="enable-background:new 0 0 512 512;" xml:space="preserve">
<path d="M511.8,498c0.3-2,0.2-314.5,0-315.8c-0.3-2.8-1.3-5.4-3.1-7.8c-1.9-2.5,3.8,2.2-68.8-54V16c0-8.8-7.2-16-16-16H88
	c-8.8,0-16,7.2-16,16v104.4C0.4,175.8,5.7,171.6,4.2,173.2c-2.4,2.7-4,6.1-4.1,10c0,0.1-0.3,313.4,0.4,316.4
	c1.7,7.5,8.4,12.4,15.6,12.4c514.2,0,480.8,0.3,483.8-0.5C506.5,509.8,511,504.2,511.8,498L511.8,498z M32,216.6L191.5,340L32,463.3
	V216.6z M217.6,360.2l28.6,22.1c5.8,4.5,13.8,4.5,19.6,0l28.6-22.1L449.2,480H62.8L217.6,360.2z M320.5,340
	c110-85.1,73-56.5,159.4-123.4v246.7L320.5,340z M469.8,184L440,207.1v-46.2L469.8,184z M408,32v199.8L256,349.4
	C92.9,223.2,129.6,251.6,104,231.8V32L408,32z M72,207.1L42.2,184L72,160.9V207.1z"/>
<path d="M152,104h208c8.8,0,16-7.2,16-16s-7.2-16-16-16H152c-8.8,0-16,7.2-16,16S143.2,104,152,104L152,104z"/>
<path d="M152,176h208c8.8,0,16-7.2,16-16s-7.2-16-16-16H152c-8.8,0-16,7.2-16,16S143.2,176,152,176L152,176z"/>
<path d="M152,248h208c8.8,0,16-7.2,16-16c0-8.8-7.2-16-16-16H152c-8.8,0-16,7.2-16,16C136,240.8,143.2,248,152,248L152,248z"/>
</svg>
