<svg
 xmlns="http://www.w3.org/2000/svg"
 xmlns:xlink="http://www.w3.org/1999/xlink"
 width="16px" height="12px">
<path fill-rule="evenodd"
 d="M-0.000,11.998 L-0.000,0.004 L16.003,0.004 L16.003,11.998 L-0.000,11.998 ZM0.774,10.683 L5.369,6.001 L0.774,1.319 L0.774,10.683 ZM1.291,0.793 L7.124,6.738 C7.769,7.395 8.234,7.395 8.879,6.738 L14.713,0.793 L1.291,0.793 ZM14.713,11.209 L10.118,6.527 C9.215,7.448 8.621,8.079 8.001,8.079 C7.382,8.079 6.788,7.448 5.885,6.527 L1.291,11.209 L14.713,11.209 ZM10.634,6.001 L15.229,10.683 L15.229,1.319 L10.634,6.001 Z"/>
</svg>
