<?xml version="1.0" encoding="utf-8"?>
<!-- Generator: Adobe Illustrator 22.1.0, SVG Export Plug-In . SVG Version: 6.00 Build 0)  -->
<svg version="1.1" id="Layer_1" xmlns="http://www.w3.org/2000/svg" xmlns:xlink="http://www.w3.org/1999/xlink" x="0px" y="0px"
	 viewBox="0 0 145.9 84" style="enable-background:new 0 0 145.9 84;" xml:space="preserve">
<style type="text/css">
	.st0{fill-rule:evenodd;clip-rule:evenodd;fill:#FFFFFF;}
	.st1{fill:#FFFFFF;}
</style>
<g>
	<polygon class="st0" points="0,64.6 0,60.7 145.9,60.7 145.9,64.6 0,64.6 	"/>
	<polygon class="st0" points="0,22.8 3.9,22.8 3.9,35.5 0,35.5 0,22.8 	"/>
	<polygon class="st0" points="142,22.8 145.9,22.8 145.9,35.5 142,35.5 142,22.8 	"/>
	<polygon class="st0" points="1.2,26.6 0.1,22.9 73,0 79.4,2 1.2,26.6 	"/>
	<polygon class="st0" points="144.7,26.6 145.9,22.9 73.2,0.1 66.7,2.1 144.7,26.6 	"/>
	<path class="st1" d="M25.4,40.3v-2.5h11.3c-0.2-2.5-1-4.5-2.5-6.1c-1.4-1.6-3.4-2.4-5.8-2.4c-1.6,0-3.3,0.4-5.2,1.2l-0.8-2.4
		c2.1-0.9,4.1-1.4,6.2-1.4c3.7,0,6.5,1.2,8.5,3.5c2,2.4,3,5.4,3,9.1c0,3.9-1.1,7-3.3,9.2c-2.2,2.3-5,3.4-8.4,3.4
		c-2.4,0-4.5-0.4-6.4-1.2l0.7-2.5c1.6,0.7,3.4,1.1,5.3,1.1c2.6,0,4.7-0.8,6.3-2.5c1.6-1.7,2.4-3.8,2.5-6.4H25.4L25.4,40.3z M45.1,34
		h12.2v17.5h-3.2v-15h-6v4.5c0,2.7-0.2,4.8-0.6,6.4c-0.4,1.5-1.1,2.6-2.2,3.3c-0.9,0.7-2.1,1.1-3.5,1.1l-0.3-2.5
		c0.7-0.1,1.3-0.4,1.7-0.7c0.7-0.6,1.2-1.4,1.5-2.6c0.2-1.1,0.3-2.8,0.3-5V34L45.1,34z M65.6,27.1h13.6v21.8l2.1,0.1l-0.2,8.4h-2.5
		l-0.2-5.9H63.1l-0.2,5.9h-2.5L60.2,49l1.8-0.1c1.2-2.1,2-3.9,2.4-5.4c0.8-2.6,1.2-6,1.2-10.2V27.1L65.6,27.1z M68.5,29.7v4.6
		c0,4-0.4,7.3-1.2,10c-0.4,1.3-1,2.9-2,4.6h10.7V29.7H68.5L68.5,29.7z M92.2,51.9L92.2,51.9c-2.4,0-4.5-0.8-6-2.5
		c-1.6-1.7-2.4-3.8-2.4-6.5c0-2.8,0.8-5.1,2.5-6.8c1.7-1.7,3.7-2.5,6.2-2.5c2.5,0,4.5,0.8,6.1,2.5c1.6,1.7,2.3,3.8,2.3,6.5
		c0,3-0.9,5.4-2.6,6.9C96.5,51.1,94.5,51.9,92.2,51.9L92.2,51.9z M92.3,49.5L92.3,49.5c1.6,0,2.8-0.6,3.8-1.9c1-1.3,1.5-2.9,1.5-4.9
		c0-1.7-0.4-3.3-1.3-4.6c-0.9-1.4-2.2-2.1-3.9-2.1c-1.7,0-3.1,0.7-4,2c-0.9,1.4-1.4,2.9-1.4,4.8c0,1.9,0.5,3.5,1.5,4.8
		C89.5,48.8,90.8,49.5,92.3,49.5L92.3,49.5z M103.8,51.5l1.3-17.5h3.9l3.1,8.8c0.7,1.9,1.2,3.5,1.6,4.8h0.1c0.5-1.6,1.2-3.6,2.1-6
		l2.8-7.6h3.9l1.2,17.5h-3l-0.4-8.4c0-0.5-0.1-1.5-0.1-2.9c-0.1-1.4-0.1-2.5-0.1-3.3h-0.1c-0.3,0.9-0.9,2.8-2,5.7l-3.4,8.8h-2.3
		l-3.1-8.7c-0.6-1.7-1.2-3.6-1.8-5.8h-0.1c-0.1,3.2-0.2,5.3-0.3,6.3l-0.5,8.3H103.8L103.8,51.5z"/>
	<path class="st1" d="M8.8,78.9l0.3,1.2c-0.7,0.3-1.5,0.5-2.5,0.5c-1.3,0-2.4-0.4-3.2-1.2c-0.8-0.8-1.2-1.9-1.2-3.2
		c0-1.4,0.4-2.5,1.3-3.3c0.9-0.9,2-1.3,3.4-1.3c0.9,0,1.6,0.2,2.2,0.5l-0.4,1.2c-0.5-0.3-1.1-0.4-1.8-0.4c-1,0-1.7,0.3-2.3,0.9
		c-0.5,0.6-0.8,1.4-0.8,2.3c0,1,0.3,1.8,0.9,2.4C5.3,79,6,79.3,6.9,79.3C7.6,79.3,8.2,79.2,8.8,78.9L8.8,78.9z M17.1,75.1v3.3
		c0,0.8,0,1.5,0.1,2.1h-1.4l-0.1-1.1h-0.1c-0.3,0.4-0.6,0.7-1.1,0.9s-1,0.4-1.6,0.4c-0.8,0-1.5-0.2-2-0.7c-0.5-0.5-0.7-1.1-0.7-1.8
		c0-1.1,0.5-1.9,1.4-2.4c0.9-0.6,2.2-0.8,3.9-0.8v-0.2c0-0.2,0-0.4-0.1-0.6c0-0.2-0.1-0.4-0.3-0.6c-0.1-0.2-0.3-0.4-0.6-0.5
		c-0.3-0.1-0.6-0.2-1.1-0.2c-0.9,0-1.7,0.2-2.3,0.6l-0.4-1.1c0.8-0.5,1.8-0.8,2.9-0.8C16,71.5,17.1,72.7,17.1,75.1L17.1,75.1z
		 M15.6,77.5V76c-2.5,0-3.7,0.6-3.7,2c0,0.5,0.1,0.9,0.4,1.1c0.3,0.3,0.6,0.4,1.1,0.4c0.5,0,1-0.1,1.4-0.4c0.4-0.3,0.6-0.6,0.8-1
		C15.5,77.9,15.6,77.7,15.6,77.5L15.6,77.5z M20.2,71.7h6.1v8.7h-1.6V73h-3v2.2c0,1.3-0.1,2.4-0.3,3.2c-0.2,0.8-0.6,1.3-1.1,1.7
		c-0.5,0.4-1,0.5-1.7,0.5l-0.2-1.2c0.4-0.1,0.6-0.2,0.9-0.4c0.4-0.3,0.6-0.7,0.7-1.3c0.1-0.6,0.2-1.4,0.2-2.5V71.7L20.2,71.7z
		 M32.4,80.6L32.4,80.6c-1.2,0-2.2-0.4-3-1.2c-0.8-0.8-1.2-1.9-1.2-3.2c0-1.4,0.4-2.5,1.2-3.4c0.8-0.8,1.9-1.3,3.1-1.3
		c1.2,0,2.3,0.4,3,1.2c0.8,0.8,1.2,1.9,1.2,3.2c0,1.5-0.4,2.7-1.3,3.5C34.6,80.2,33.6,80.6,32.4,80.6L32.4,80.6z M32.5,79.4
		L32.5,79.4c0.8,0,1.4-0.3,1.9-1c0.5-0.6,0.8-1.5,0.8-2.4c0-0.9-0.2-1.6-0.7-2.3c-0.4-0.7-1.1-1-2-1c-0.9,0-1.5,0.3-2,1
		s-0.7,1.5-0.7,2.4c0,1,0.2,1.8,0.7,2.4C31.1,79.1,31.7,79.4,32.5,79.4L32.5,79.4z M38.7,71.7h1.6v3.5h4.1v-3.5H46v8.7h-1.6v-3.9
		h-4.1v3.9h-1.6V71.7L38.7,71.7z M52.4,71.7h1.5v3.7c0,1.1,0,2.3-0.1,3.5h0.1c0.8-1.5,1.2-2.4,1.4-2.7l2.7-4.5h1.9v8.7h-1.5v-3.7
		c0-1,0-2.2,0.1-3.6h0c-0.6,1.1-1,2-1.5,2.7c-0.3,0.5-0.8,1.3-1.4,2.4c-0.7,1.1-1.1,1.8-1.3,2.1h-1.8V71.7L52.4,71.7z M62.3,71.7
		h1.6v3.5H68v-3.5h1.6v8.7H68v-3.9h-4.1v3.9h-1.6V71.7L62.3,71.7z M71.1,71.7h7V73h-2.7v7.5h-1.6V73h-2.7V71.7L71.1,71.7z
		 M86.3,76.4h-6.1c0,1,0.3,1.8,0.9,2.3c0.6,0.5,1.3,0.7,2.1,0.7c0.9,0,1.7-0.1,2.4-0.5l0.3,1.1c-0.8,0.4-1.8,0.6-2.9,0.6
		c-1.3,0-2.4-0.4-3.1-1.2s-1.2-1.9-1.2-3.2c0-1.3,0.4-2.5,1.1-3.4c0.8-0.9,1.7-1.3,3-1.3c0.7,0,1.3,0.1,1.7,0.4
		c0.5,0.3,0.9,0.6,1.1,1.1c0.3,0.4,0.4,0.9,0.5,1.3c0.1,0.4,0.2,0.9,0.2,1.3C86.3,75.9,86.3,76.2,86.3,76.4L86.3,76.4z M80.2,75.2
		h4.6c0-0.3,0-0.6-0.1-0.8c-0.1-0.3-0.2-0.6-0.3-0.8c-0.2-0.3-0.4-0.5-0.7-0.7c-0.3-0.2-0.7-0.3-1.1-0.3c-0.7,0-1.3,0.3-1.7,0.8
		C80.5,74,80.2,74.6,80.2,75.2L80.2,75.2z M88.3,84v-9.4c0-1.2,0-2.1-0.1-2.8h1.4l0.1,1.5h0c0.7-1.1,1.7-1.7,3.1-1.7
		c1.1,0,2,0.4,2.7,1.2c0.7,0.8,1.1,1.9,1.1,3.2c0,1.5-0.4,2.6-1.2,3.5s-1.7,1.2-2.8,1.2c-1.2,0-2.1-0.5-2.7-1.4h0V84H88.3L88.3,84z
		 M89.9,75.4v1.5c0,0.3,0,0.5,0.1,0.6c0.1,0.6,0.4,1,0.9,1.3c0.4,0.3,0.9,0.5,1.5,0.5c0.8,0,1.5-0.3,1.9-0.9
		c0.5-0.6,0.7-1.4,0.7-2.4c0-0.9-0.2-1.7-0.7-2.3c-0.5-0.6-1.1-0.9-1.9-0.9c-0.6,0-1.1,0.2-1.5,0.5c-0.5,0.4-0.8,0.8-0.9,1.4
		C89.9,75.1,89.9,75.3,89.9,75.4L89.9,75.4z M98.5,71.7h1.6v2.9c0.4-0.1,0.9-0.1,1.4-0.1c0.7,0,1.4,0.1,1.9,0.2
		c0.6,0.2,1.1,0.5,1.5,0.9c0.4,0.5,0.6,1.1,0.6,1.8c0,0.8-0.3,1.5-0.9,2c-0.8,0.7-2.1,1-3.8,1c-0.5,0-1.3,0-2.3-0.1V71.7L98.5,71.7z
		 M100,75.8v3.5c0.4,0,0.8,0.1,1.2,0.1c0.7,0,1.4-0.1,1.9-0.4c0.5-0.3,0.8-0.8,0.8-1.4c0-0.5-0.2-0.8-0.5-1.1
		c-0.3-0.3-0.7-0.5-1-0.6c-0.4-0.1-0.8-0.1-1.3-0.1C100.8,75.7,100.4,75.7,100,75.8L100,75.8z M114.5,76.4h-6.1c0,1,0.3,1.8,0.9,2.3
		c0.6,0.5,1.3,0.7,2.1,0.7c0.9,0,1.7-0.1,2.4-0.5l0.3,1.1c-0.8,0.4-1.8,0.6-2.9,0.6c-1.3,0-2.4-0.4-3.1-1.2s-1.2-1.9-1.2-3.2
		c0-1.3,0.4-2.5,1.1-3.4c0.8-0.9,1.7-1.3,3-1.3c0.7,0,1.3,0.1,1.7,0.4c0.5,0.3,0.9,0.6,1.1,1.1c0.3,0.4,0.4,0.9,0.5,1.3
		c0.1,0.4,0.2,0.9,0.2,1.3C114.5,75.9,114.5,76.2,114.5,76.4L114.5,76.4z M108.4,75.2h4.6c0-0.3,0-0.6-0.1-0.8
		c-0.1-0.3-0.2-0.6-0.3-0.8c-0.2-0.3-0.4-0.5-0.7-0.7c-0.3-0.2-0.7-0.3-1.1-0.3c-0.7,0-1.3,0.3-1.7,0.8
		C108.7,74,108.5,74.6,108.4,75.2L108.4,75.2z M116.5,84v-9.4c0-1.2,0-2.1-0.1-2.8h1.4l0.1,1.5h0c0.7-1.1,1.7-1.7,3.1-1.7
		c1.1,0,2,0.4,2.7,1.2c0.7,0.8,1.1,1.9,1.1,3.2c0,1.5-0.4,2.6-1.2,3.5s-1.7,1.2-2.8,1.2c-1.2,0-2.1-0.5-2.7-1.4h0V84H116.5L116.5,84
		z M118.1,75.4v1.5c0,0.3,0,0.5,0.1,0.6c0.1,0.6,0.4,1,0.9,1.3c0.4,0.3,0.9,0.5,1.5,0.5c0.8,0,1.5-0.3,1.9-0.9
		c0.5-0.6,0.7-1.4,0.7-2.4c0-0.9-0.2-1.7-0.7-2.3c-0.5-0.6-1.1-0.9-1.9-0.9c-0.6,0-1.1,0.2-1.5,0.5c-0.5,0.4-0.8,0.8-0.9,1.4
		C118.1,75.1,118.1,75.3,118.1,75.4L118.1,75.4z M130.3,80.6L130.3,80.6c-1.2,0-2.2-0.4-3-1.2c-0.8-0.8-1.2-1.9-1.2-3.2
		c0-1.4,0.4-2.5,1.2-3.4c0.8-0.8,1.9-1.3,3.1-1.3c1.2,0,2.3,0.4,3,1.2c0.8,0.8,1.2,1.9,1.2,3.2c0,1.5-0.4,2.7-1.3,3.5
		C132.5,80.2,131.5,80.6,130.3,80.6L130.3,80.6z M130.3,79.4L130.3,79.4c0.8,0,1.4-0.3,1.9-1c0.5-0.6,0.8-1.5,0.8-2.4
		c0-0.9-0.2-1.6-0.7-2.3c-0.4-0.7-1.1-1-2-1c-0.9,0-1.5,0.3-2,1s-0.7,1.5-0.7,2.4c0,1,0.2,1.8,0.7,2.4
		C129,79.1,129.6,79.4,130.3,79.4L130.3,79.4z M136.6,80.4v-8.6c0.8-0.1,1.7-0.2,2.8-0.2c2.6,0,3.9,0.7,3.9,2.2
		c0,0.5-0.2,0.9-0.5,1.3c-0.3,0.3-0.8,0.6-1.3,0.7v0c0.7,0.1,1.2,0.3,1.6,0.7c0.4,0.4,0.6,0.8,0.6,1.5c0,1.7-1.5,2.6-4.6,2.6
		C138.3,80.5,137.5,80.5,136.6,80.4L136.6,80.4z M138.1,72.8v2.6h1.2c0.7,0,1.2-0.1,1.7-0.3c0.5-0.2,0.7-0.6,0.7-1.1
		c0-0.9-0.8-1.3-2.3-1.3C139,72.7,138.6,72.7,138.1,72.8L138.1,72.8z M138.1,76.4v3c0.4,0,0.9,0.1,1.3,0.1c0.7,0,1.3-0.1,1.9-0.3
		c0.5-0.2,0.8-0.6,0.8-1.2c0-0.6-0.2-1-0.7-1.2c-0.5-0.2-1.2-0.3-2-0.3H138.1L138.1,76.4z"/>
</g>
</svg>
