<svg width="8" height="14" viewBox="0 0 8 14" fill="none" xmlns="http://www.w3.org/2000/svg">
<path d="M0.460003 6.10302L6.12 0.453025C6.21297 0.359296 6.32357 0.284902 6.44543 0.234134C6.56729 0.183365 6.69799 0.157227 6.83 0.157227C6.96201 0.157227 7.09272 0.183365 7.21458 0.234134C7.33644 0.284902 7.44704 0.359296 7.54 0.453025C7.72625 0.640387 7.8308 0.893839 7.8308 1.15802C7.8308 1.42221 7.72625 1.67566 7.54 1.86303L2.59 6.86303L7.54 11.813C7.72625 12.0004 7.8308 12.2538 7.8308 12.518C7.8308 12.7822 7.72625 13.0357 7.54 13.223C7.44739 13.3175 7.33694 13.3927 7.21507 13.4442C7.09319 13.4957 6.96231 13.5225 6.83 13.523C6.6977 13.5225 6.56681 13.4957 6.44494 13.4442C6.32306 13.3927 6.21262 13.3175 6.12 13.223L0.460003 7.57303C0.358498 7.47938 0.27749 7.36573 0.222082 7.23923C0.166675 7.11273 0.13807 6.97613 0.13807 6.83802C0.13807 6.69992 0.166675 6.56332 0.222082 6.43682C0.27749 6.31032 0.358498 6.19667 0.460003 6.10302Z" fill="black"/>
</svg>
