<svg width="24" height="25" viewBox="0 0 24 25" fill="none" xmlns="http://www.w3.org/2000/svg">
<path d="M6.22566 5.19279C5.83514 4.80227 5.20197 4.80227 4.81145 5.19279C4.42092 5.58331 4.42092 6.21648 4.81145 6.607L10.5862 12.3817L4.81151 18.1564C4.42098 18.5469 4.42098 19.1801 4.81151 19.5706C5.20203 19.9611 5.8352 19.9611 6.22572 19.5706L12.0004 13.7959L17.7751 19.5706C18.1656 19.9611 18.7988 19.9611 19.1893 19.5706C19.5798 19.1801 19.5798 18.5469 19.1893 18.1564L13.4146 12.3817L19.1893 6.607C19.5799 6.21648 19.5799 5.58331 19.1893 5.19279C18.7988 4.80227 18.1657 4.80227 17.7751 5.19279L12.0004 10.9675L6.22566 5.19279Z" fill="#F78D20"/>
</svg>
