<svg width="17" height="20" viewBox="0 0 17 20" fill="none" xmlns="http://www.w3.org/2000/svg">
<circle cx="8.5" cy="10.2912" r="8" fill="#FE864A"/>
<path d="M10.1777 13.9533L10.0488 14.4807C9.66211 14.633 9.35352 14.7482 9.12305 14.8264C8.89258 14.9084 8.625 14.9494 8.32031 14.9494C7.85156 14.9494 7.48633 14.8361 7.22461 14.6096C6.9668 14.3791 6.83789 14.0881 6.83789 13.7365C6.83789 13.5998 6.84766 13.4611 6.86719 13.3205C6.88672 13.176 6.91797 13.0139 6.96094 12.8342L7.44141 11.1232C7.48438 10.9592 7.51953 10.8049 7.54688 10.6603C7.57812 10.5119 7.59375 10.3771 7.59375 10.256C7.59375 10.0373 7.54883 9.88495 7.45898 9.79901C7.36914 9.71307 7.19727 9.6701 6.94336 9.6701C6.81836 9.6701 6.68945 9.68964 6.55664 9.7287C6.42773 9.76776 6.31641 9.80487 6.22266 9.84003L6.35156 9.31268C6.66797 9.18378 6.9707 9.0744 7.25977 8.98456C7.54883 8.89081 7.82227 8.84393 8.08008 8.84393C8.54492 8.84393 8.90234 8.95721 9.15234 9.18378C9.40625 9.40643 9.5332 9.69745 9.5332 10.0568C9.5332 10.131 9.52344 10.2619 9.50391 10.4494C9.48828 10.6369 9.45703 10.8088 9.41016 10.965L8.92969 12.6701C8.89062 12.8068 8.85547 12.9631 8.82422 13.1389C8.79297 13.3146 8.77734 13.4474 8.77734 13.5373C8.77734 13.7639 8.82812 13.9182 8.92969 14.0002C9.03125 14.0822 9.20703 14.1232 9.45703 14.1232C9.57422 14.1232 9.70703 14.1037 9.85547 14.0646C10.0039 14.0217 10.1113 13.9846 10.1777 13.9533ZM10.3008 6.79901C10.3008 7.09589 10.1875 7.34979 9.96094 7.56073C9.73828 7.76776 9.46875 7.87128 9.15234 7.87128C8.83594 7.87128 8.56445 7.76776 8.33789 7.56073C8.11133 7.34979 7.99805 7.09589 7.99805 6.79901C7.99805 6.50214 8.11133 6.24823 8.33789 6.03729C8.56445 5.82635 8.83594 5.72089 9.15234 5.72089C9.46875 5.72089 9.73828 5.82635 9.96094 6.03729C10.1875 6.24823 10.3008 6.50214 10.3008 6.79901Z" fill="white"/>
</svg>
