<svg width="19" height="20" viewBox="0 0 19 20" fill="none" xmlns="http://www.w3.org/2000/svg">
<path d="M17.404 11.2039C16.91 15.2595 13.927 15.5187 13.376 15.7039C13.148 15.778 10.963 16.315 8.24602 16.1484L5.28202 19.3521V15.6669H5.26302C1.29202 14.5558 1.42502 10.4261 1.46302 8.25948C1.50102 6.09281 1.91902 4.31504 3.13502 3.11133C5.32002 1.14837 9.80402 1.44467 9.80402 1.44467C13.604 1.46318 15.409 2.59281 15.827 2.9817C17.214 4.16689 17.936 7.01874 17.404 11.2039ZM16.853 1.94467C16.359 1.50022 14.345 0.037258 9.86102 0.0187395C9.86102 0.0187395 4.57902 -0.296075 1.99502 2.05578C0.570019 3.4817 0.0570188 5.57429 0.0190188 8.16689C-0.0379812 10.7595 -0.0949811 15.6299 4.59802 16.9447V18.9632C4.59802 18.9632 4.56002 19.778 5.11102 19.9447C5.75702 20.1484 6.13702 19.5187 6.76402 18.8521C7.10602 18.4817 7.58102 17.9447 7.92302 17.5373C11.134 17.815 13.604 17.1854 13.889 17.0928C14.535 16.8891 18.202 16.4076 18.81 11.5558C19.418 6.55578 18.506 3.37059 16.853 1.94467Z" fill="#7360F2"/>
<path d="M13.984 11.8148C13.984 11.8148 13.376 11.3148 13.091 11.0926C12.806 10.8889 12.369 10.6111 12.122 10.4815C11.685 10.2407 11.229 10.3889 11.039 10.6296L10.659 11.1111C10.469 11.3518 10.146 11.3148 10.07 11.2963C9.50004 11.1481 8.89204 10.8148 8.26504 10.2222C7.63804 9.62962 7.25804 9 7.12504 8.37037L7.10604 8.33333C7.06804 8.07407 7.10604 7.94444 7.22004 7.75925L7.23904 7.74074C7.50504 7.49999 7.98004 7.22222 8.05604 6.94444C8.24604 6.46296 7.41004 5.46296 7.29604 5.29629C7.29604 5.29629 6.68804 4.51851 6.47904 4.37037C6.25104 4.18518 5.89004 4.07407 5.52904 4.29629H5.51004C4.46504 4.98148 4.10404 5.37037 4.19904 5.96296L4.25604 6.2037C4.78804 7.81481 5.79504 9.55555 7.31504 11.0926C8.81604 12.5926 10.45 13.5 12.046 14.1296C12.464 14.2593 12.901 14.1481 13.338 13.7778C13.68 13.463 13.946 13.1296 14.136 12.7778C14.345 12.4074 14.269 12.0556 13.984 11.8148Z" fill="#7360F2"/>
<path d="M11.495 8.25926C11.438 8.25926 11.381 8.2037 11.381 8.14815C11.362 7.72222 11.248 7.40741 11.039 7.18518C10.83 6.96296 10.526 6.85185 10.127 6.83333C10.07 6.83333 10.013 6.77778 10.013 6.7037C10.013 6.62963 10.07 6.59259 10.146 6.59259C10.621 6.61111 10.982 6.75926 11.229 7.01852C11.476 7.27778 11.609 7.64815 11.647 8.12963C11.628 8.2037 11.571 8.25926 11.495 8.25926Z" fill="#7360F2"/>
<path d="M12.673 8.66666C12.597 8.66666 12.559 8.6111 12.559 8.53703C12.578 7.74073 12.331 7.05555 11.837 6.51851C11.59 6.24073 11.286 6.03703 10.944 5.88888C10.602 5.74073 10.203 5.64814 9.747 5.6111C9.69 5.6111 9.633 5.55555 9.633 5.48147C9.633 5.4074 9.69 5.37036 9.766 5.37036C10.716 5.44444 11.476 5.77777 12.008 6.35184C12.54 6.94444 12.806 7.66666 12.787 8.53703C12.806 8.6111 12.749 8.66666 12.673 8.66666Z" fill="#7360F2"/>
<path d="M13.889 9.12963C13.832 9.12963 13.775 9.07407 13.775 9.01852C13.775 8.31482 13.661 7.66667 13.452 7.11111C13.243 6.55556 12.92 6.07407 12.502 5.66667C12.084 5.25926 11.609 4.94445 11.096 4.74074C10.583 4.53704 9.99399 4.42593 9.36699 4.42593C9.30999 4.42593 9.25299 4.37037 9.25299 4.31482C9.25299 4.24074 9.30999 4.2037 9.36699 4.2037C10.678 4.22222 11.78 4.64815 12.673 5.51852C13.11 5.94445 13.452 6.46296 13.68 7.05556C13.908 7.64815 14.022 8.31482 14.022 9.05556C14.022 9.07407 13.965 9.12963 13.889 9.12963Z" fill="#7360F2"/>
</svg>
