<svg width="207" height="64" viewBox="0 0 207 64" fill="none" xmlns="http://www.w3.org/2000/svg">
<path d="M63.4833 24.4633L52.3676 17.0502L41.2518 24.4633H63.4833Z" fill="#F78D20"/>
<path d="M74.599 30.1467H82.5036V42.2548H95.3484V30.1467H103.253V60.0463H95.3484V48.9266H82.5036V60.0463H74.599V30.1467Z" fill="#1B6C39"/>
<path d="M139.07 30.1467V60.0463H131.166V43.4903L113.628 60.0463H109.181V30.1467H117.333V46.7027L134.871 30.1467H139.07Z" fill="#1B6C39"/>
<path d="M167.971 60.0463L153.644 46.4556V60.0463H145.74V30.1467H153.644V43.4903L165.501 30.1467H174.888L161.796 44.4788L177.605 60.0463H167.971Z" fill="#1B6C39"/>
<path d="M195.884 55.1042H183.039L180.569 60.0463H171.924L186.745 30.1467H192.179L207 60.0463H198.354L195.884 55.1042ZM185.51 49.1737H193.661L191.685 45.2201L189.462 40.7722L187.239 45.2201L185.51 49.1737Z" fill="#1B6C39"/>
<path d="M9.88067 37.3127C10.1277 37.0656 10.3747 38.054 10.8687 37.8069C10.8687 36.3243 10.6217 34.8417 10.6217 33.6062C9.63365 33.3591 8.8926 32.6178 8.64558 31.8764L8.15155 31.3822C8.15155 32.1235 8.15155 32.8649 8.15155 33.8533C8.15155 34.8417 8.15155 35.583 8.15155 36.3243C8.8926 36.5714 9.38663 36.8185 9.88067 37.3127Z" fill="#1B6C39"/>
<path d="M54.5907 56.5869C50.1444 59.7992 44.463 61.7761 38.5346 61.7761C26.4308 61.7761 16.0561 53.8687 12.3508 42.9961C12.1038 42.9961 11.8568 42.9961 11.6098 42.9961C10.6217 42.9961 10.1277 42.749 9.63365 42.2548C13.3389 54.8571 24.9487 64 38.7816 64C45.4511 64 51.6265 61.7761 56.8138 58.0695L56.5668 57.5753C55.5788 57.3282 55.0847 56.834 54.5907 56.5869Z" fill="#1B6C39"/>
<path d="M76.0811 16.556L52.6145 0L25.6897 19.027H29.395L52.6145 2.71815L75.5871 19.027H76.0811V16.556Z" fill="#1B6C39"/>
<path d="M33.1002 24.2162L52.6145 10.6255L72.3759 24.4633H78.7983L52.6145 6.17761L26.6778 24.2162H33.1002Z" fill="#1B6C39"/>
<path d="M27.9129 31.3822C27.9129 31.3822 19.7613 30.3938 17.0442 38.3012C17.0442 38.3012 19.2673 35.3359 22.7255 34.8417C22.7255 34.8417 17.7852 38.7954 17.7852 40.5251C17.7852 40.7722 26.9248 42.2548 27.9129 31.3822Z" fill="#1B6C39"/>
<path d="M21.7375 20.0154C21.7375 20.0154 13.0919 22.7336 14.574 33.8533C14.574 33.8533 15.315 26.193 19.0203 24.2162C19.0203 24.2162 15.8091 28.1699 16.3031 33.112C16.3031 33.3591 24.7017 30.1467 21.7375 20.0154Z" fill="#1B6C39"/>
<path d="M0.247009 47.6911C0.247009 47.6911 8.64558 54.1158 15.562 49.668C15.562 49.668 9.63364 50.6564 6.91646 48.6795C6.91646 48.6795 13.3389 49.1737 14.574 47.9382C14.574 48.1853 8.89259 42.2548 0.247009 47.6911Z" fill="#1B6C39"/>
<path d="M29.148 55.8456C29.148 55.8456 34.5823 58.8108 41.0048 58.3166C47.1802 57.8224 50.8855 54.61 50.8855 54.61C50.8855 54.61 44.216 48.6795 31.8652 52.8803C31.8652 52.8803 40.2637 52.6332 44.216 54.1158C43.969 54.1158 32.6062 53.8687 29.148 55.8456Z" fill="#1B6C39"/>
<path d="M180.816 21.0039H182.545V18.2857H181.31C181.063 19.5212 181.063 20.5097 180.816 21.0039Z" fill="#1B6C39"/>
<path d="M172.418 19.2741L172.665 19.027L172.912 18.7799V18.5328L172.665 18.2857C172.665 18.2857 172.418 18.2857 171.924 18.2857H171.43V19.2741H171.924C172.171 19.2741 172.418 19.2741 172.418 19.2741Z" fill="#1B6C39"/>
<path d="M130.919 20.0154C130.672 20.0154 130.425 20.0154 130.178 20.0154H129.437V21.251H130.178C130.425 21.251 130.672 21.251 130.919 21.251L131.166 21.0039L131.413 20.7568V20.5096L130.919 20.0154Z" fill="#1B6C39"/>
<path d="M135.118 18.2857C134.871 18.2857 134.377 18.2857 134.13 18.5328C133.883 18.7799 133.883 19.2741 133.883 19.7683C133.883 20.2626 133.883 20.5097 134.13 21.0039C134.377 21.251 134.624 21.4981 135.118 21.4981C135.365 21.4981 135.859 21.251 136.106 21.0039C136.353 20.7568 136.353 20.2626 136.353 19.7683C136.353 19.2741 136.353 18.7799 136.106 18.5328C135.612 18.2857 135.365 18.2857 135.118 18.2857Z" fill="#1B6C39"/>
<path d="M172.665 20.0154C172.665 20.0154 172.171 20.0154 171.924 20.0154H171.183V21.251H171.924C172.171 21.251 172.418 21.251 172.665 21.251L172.912 21.0039L173.159 20.7568V20.5096L172.665 20.0154Z" fill="#1B6C39"/>
<path d="M130.672 19.2741L130.919 19.027L131.166 18.7799V18.5328L130.919 18.2857C130.919 18.2857 130.672 18.2857 130.178 18.2857H129.684V19.2741H130.178C130.178 19.2741 130.425 19.2741 130.672 19.2741Z" fill="#1B6C39"/>
<path d="M153.644 18.2857C153.644 18.2857 153.397 18.2857 152.903 18.2857H152.409V19.5212H153.15C153.397 19.5212 153.644 19.5212 153.891 19.5212L154.138 19.2741V19.027L153.891 18.5328L153.644 18.2857Z" fill="#1B6C39"/>
<path d="M158.091 18.2857C157.844 18.2857 157.35 18.2857 157.103 18.5328C156.856 18.7799 156.856 19.2741 156.856 19.7683C156.856 20.2626 156.856 20.5097 157.103 21.0039C157.35 21.251 157.597 21.4981 158.091 21.4981C158.338 21.4981 158.832 21.251 159.079 21.0039C159.326 20.7568 159.326 20.2626 159.326 19.7683C159.326 19.2741 159.326 18.7799 159.079 18.5328C158.832 18.2857 158.585 18.2857 158.091 18.2857Z" fill="#1B6C39"/>
<path d="M116.839 20.0154H115.851V21.251H116.839C117.086 21.251 117.333 21.251 117.333 21.251L117.58 21.0039L117.827 20.7568L117.58 20.2625C117.58 20.0154 117.333 20.0154 116.839 20.0154Z" fill="#1B6C39"/>
<path d="M176.864 18.2857C176.617 18.2857 176.123 18.2857 175.876 18.5328C175.629 18.7799 175.629 19.2741 175.629 19.7683C175.629 20.2626 175.629 20.5097 175.876 21.0039C176.123 21.251 176.37 21.4981 176.864 21.4981C177.111 21.4981 177.605 21.251 177.852 21.0039C178.099 20.7568 178.099 20.2626 178.099 19.7683C178.099 19.2741 178.099 18.7799 177.852 18.5328C177.605 18.2857 177.111 18.2857 176.864 18.2857Z" fill="#1B6C39"/>
<path d="M89.4201 18.2857C89.4201 18.2857 89.173 18.2857 88.679 18.2857H88.185V19.5212H88.926C89.173 19.5212 89.42 19.5212 89.6671 19.5212L89.9141 19.2741V19.027L89.6671 18.5328L89.4201 18.2857Z" fill="#1B6C39"/>
<path d="M195.884 20.0154C195.637 20.0154 195.39 20.0154 195.143 20.0154H194.402V21.251H195.143C195.39 21.251 195.637 21.251 195.884 21.251L196.131 21.0039L196.378 20.7568V20.5096L195.884 20.0154Z" fill="#1B6C39"/>
<path d="M200.084 18.2857C199.837 18.2857 199.342 18.2857 199.095 18.5328C198.848 18.7799 198.848 19.2741 198.848 19.7683C198.848 20.2626 198.848 20.5097 199.095 21.0039C199.342 21.251 199.589 21.4981 200.084 21.4981C200.331 21.4981 200.825 21.251 201.072 21.0039C201.319 20.7568 201.319 20.2626 201.319 19.7683C201.319 19.2741 201.319 18.7799 201.072 18.5328C200.825 18.2857 200.331 18.2857 200.084 18.2857Z" fill="#1B6C39"/>
<path d="M74.105 24.4633H206.753V15.0734H74.105V24.4633ZM81.7625 21.4981C81.5155 21.7452 81.0215 21.7452 80.5274 21.7452C80.0334 21.7452 79.5394 21.4981 79.0453 21.251C78.5513 20.7568 78.5513 20.2626 78.5513 19.5212C78.5513 18.7799 78.7983 18.2857 79.0453 17.7915C79.5394 17.5444 80.0334 17.2973 80.7745 17.2973C81.2685 17.2973 81.7625 17.5444 82.0095 17.7915C82.2566 18.0386 82.2566 18.2857 82.5036 18.5328L81.5155 18.7799C81.5155 18.5328 81.2685 18.2857 81.2685 18.2857C81.0215 18.0386 81.0215 18.0386 80.7745 18.0386C80.5274 18.0386 80.2804 18.0386 80.0334 18.2857C79.7864 18.5328 79.7864 18.7799 79.7864 19.5212C79.7864 20.0155 79.7864 20.5097 80.0334 20.7568C80.2804 21.0039 80.5274 21.0039 80.7745 21.0039C81.0215 21.0039 81.2685 21.0039 81.5155 20.7568C81.5155 20.7568 81.5155 20.5097 81.7625 20.2626L82.7506 20.5097C82.5036 21.0039 82.2566 21.251 81.7625 21.4981ZM86.7029 18.2857H85.4678V21.9923H84.4797V18.2857H83.2446V17.5444H86.7029V18.2857ZM90.9021 19.5212L90.4081 20.0155L89.9141 20.2626C89.6671 20.2626 89.42 20.2626 88.926 20.2626H88.432V21.9923H87.4439V17.5444H88.926C89.42 17.5444 89.9141 17.5444 89.9141 17.5444C90.1611 17.5444 90.4081 17.7915 90.6551 18.0386C90.9021 18.2857 90.9021 18.5328 90.9021 18.7799C90.9021 19.027 90.9021 19.2741 90.9021 19.5212ZM95.5955 21.251C95.1014 21.7452 94.6074 21.7452 94.1134 21.7452C93.3723 21.7452 92.8783 21.4981 92.6313 21.251C92.1372 20.7568 92.1372 20.2626 92.1372 19.5212C92.1372 19.027 92.1372 18.7799 92.3843 18.2857C92.3843 18.0386 92.6313 17.7915 92.8783 17.7915L93.3723 17.2973C93.1253 17.5444 93.6193 17.2973 93.8663 17.2973C94.6074 17.2973 95.1014 17.5444 95.3484 17.7915C95.8425 18.2857 95.8425 18.7799 95.8425 19.5212C96.0895 20.2626 95.8425 21.0039 95.5955 21.251ZM100.536 21.7452H99.7948V19.027L98.0656 21.7452H97.0776V17.5444H97.8186V20.5097L99.5477 17.5444H100.536V21.7452ZM104.982 18.2857H103.747V21.9923H102.759V18.2857H101.524V17.5444H104.982V18.2857ZM109.428 21.7452H105.97V17.5444H109.181V18.2857H106.711V19.2741H108.934V20.0155H106.711V21.251H109.181V21.7452H109.428ZM113.875 21.7452H112.887V18.2857H111.652V20.0155C111.652 20.5097 111.652 21.0039 111.652 21.251L111.158 21.7452C110.911 21.7452 110.911 21.9923 110.416 21.9923C110.416 21.9923 110.169 21.9923 109.922 21.9923V21.251H110.169H110.663V21.0039V20.0155V17.5444H113.875V21.7452ZM118.568 21.251L118.074 21.7452C117.827 21.7452 117.58 21.7452 117.333 21.7452H115.11V17.5444H116.098V19.2741H117.333C117.827 19.2741 118.321 19.5212 118.568 19.7683C118.568 19.7683 118.815 20.2626 118.815 20.5097C118.815 20.7568 118.815 21.0039 118.568 21.251ZM122.767 21.4981C122.52 21.7452 122.026 21.7452 121.532 21.7452C121.038 21.7452 120.544 21.4981 120.05 21.251C119.556 20.7568 119.556 20.2626 119.556 19.5212C119.556 18.7799 119.803 18.2857 120.05 17.7915C120.544 17.5444 121.038 17.2973 121.532 17.2973C122.026 17.2973 122.52 17.5444 122.767 17.7915C123.014 18.0386 123.014 18.2857 123.261 18.5328L122.273 18.7799C122.273 18.5328 122.026 18.2857 122.026 18.2857C121.779 18.0386 121.779 18.0386 121.532 18.0386C121.285 18.0386 121.038 18.0386 120.791 18.2857C120.544 18.5328 120.544 18.7799 120.544 19.5212C120.544 20.0155 120.544 20.5097 120.791 20.7568C121.038 21.0039 121.285 21.0039 121.532 21.0039C121.779 21.0039 122.026 21.0039 122.273 20.7568C122.52 20.5097 122.52 20.2626 122.767 20.0155L123.508 20.5097C123.261 21.0039 123.014 21.251 122.767 21.4981ZM127.461 18.2857H126.226V21.9923H125.237V18.2857H124.002V17.5444H127.461V18.2857ZM131.907 21.251L131.413 21.7452C131.166 21.7452 131.166 21.9923 130.919 21.9923C130.672 21.9923 130.425 21.9923 129.931 21.9923H128.449V17.5444H130.178C130.425 17.5444 130.919 17.5444 130.919 17.5444L131.413 17.7915L131.66 18.0386L131.907 18.5328L131.66 19.027L131.166 19.5212C131.413 19.5212 131.66 19.7683 131.907 20.0155C132.154 20.2626 132.154 20.5097 132.154 20.7568L131.907 21.251ZM136.6 21.251C136.106 21.7452 135.612 21.7452 135.118 21.7452C134.377 21.7452 133.883 21.4981 133.636 21.251C133.142 20.7568 133.142 20.2626 133.142 19.5212C133.142 19.027 133.142 18.7799 133.389 18.2857C133.389 18.0386 133.636 17.7915 133.883 17.7915L134.377 17.2973C134.624 17.2973 134.871 17.0502 135.365 17.0502C136.106 17.0502 136.6 17.2973 136.847 17.5444C137.341 18.0386 137.341 18.5328 137.341 19.2741C137.094 20.2626 137.094 21.0039 136.6 21.251ZM143.764 21.7452H143.023V19.027L141.294 21.7452H140.305V17.5444H141.047V20.5097L142.776 17.5444H143.764V21.7452ZM150.433 21.7452H149.445V18.2857H147.716V21.9923H146.728V17.5444H150.186V21.7452H150.433ZM155.126 19.5212L154.632 20.0155L154.138 20.2626C153.891 20.2626 153.644 20.2626 153.15 20.2626H152.656V21.9923H151.668V17.5444H153.15C153.644 17.5444 154.138 17.5444 154.138 17.5444C154.385 17.5444 154.632 17.7915 154.879 18.0386C155.126 18.2857 155.126 18.5328 155.126 18.7799C155.126 19.027 155.126 19.2741 155.126 19.5212ZM159.573 21.251C159.079 21.7452 158.585 21.7452 158.091 21.7452C157.35 21.7452 156.856 21.4981 156.609 21.251C156.115 20.7568 156.115 20.2626 156.115 19.5212C156.115 19.027 156.115 18.7799 156.362 18.2857C156.362 18.0386 156.609 17.7915 156.856 17.7915L157.35 17.2973C157.35 17.5444 157.844 17.2973 158.091 17.2973C158.832 17.2973 159.326 17.5444 159.573 17.7915C160.067 18.2857 160.067 18.7799 160.067 19.5212C160.314 20.2626 160.067 21.0039 159.573 21.251ZM164.76 21.7452H164.019V19.027L162.29 21.7452H161.302V17.5444H162.043V20.5097L163.772 17.5444H164.76V21.7452ZM168.712 21.4981C168.465 21.7452 167.971 21.7452 167.477 21.7452C166.983 21.7452 166.736 21.7452 166.242 21.4981C165.995 21.251 165.748 21.0039 165.748 20.7568L166.489 20.5097C166.489 20.7568 166.736 21.0039 166.736 21.0039H167.23C167.477 21.0039 167.724 21.0039 167.971 20.7568L168.218 20.2626H167.971C167.724 20.2626 167.477 20.0155 167.23 20.0155H166.983V19.2741C167.23 19.2741 167.477 19.2741 167.724 19.027L167.971 18.7799V18.2857C167.971 18.2857 167.724 18.0386 167.477 18.0386C166.983 18.0386 166.736 18.2857 166.736 18.5328L165.748 18.2857C165.995 17.7915 166.489 17.2973 167.477 17.2973C167.971 17.2973 168.465 17.2973 168.712 17.5444C168.959 17.7915 169.206 18.0386 169.206 18.2857L168.959 18.7799C168.959 19.027 168.712 19.027 168.465 19.2741C168.712 19.2741 168.959 19.5212 169.206 19.7683C169.453 20.0155 169.453 20.2626 169.453 20.5097C169.206 21.0039 168.959 21.251 168.712 21.4981ZM173.9 21.251L173.406 21.7452C173.159 21.7452 173.159 21.9923 172.912 21.9923C172.665 21.9923 172.418 21.9923 171.924 21.9923H170.442V17.5444H172.171C172.418 17.5444 172.912 17.5444 172.912 17.5444L173.406 17.7915L173.653 18.0386L173.9 18.5328L173.653 19.027L173.159 19.5212C173.406 19.5212 173.653 19.7683 173.9 20.0155C174.147 20.2626 174.147 20.5097 174.147 20.7568L173.9 21.251ZM178.346 21.251C177.852 21.7452 177.358 21.7452 176.864 21.7452C176.123 21.7452 175.629 21.4981 175.382 21.251C174.888 20.7568 174.888 20.2626 174.888 19.5212C174.888 19.027 174.888 18.7799 175.135 18.2857C175.135 18.0386 175.382 17.7915 175.629 17.7915L176.123 17.2973C176.37 17.2973 176.617 17.0502 177.111 17.0502C177.852 17.0502 178.346 17.2973 178.593 17.5444C179.087 18.0386 179.087 18.5328 179.087 19.2741C179.087 20.2626 178.84 21.0039 178.346 21.251ZM183.78 22.7336H183.039V21.7452H180.322V22.7336H179.581V21.0039H180.075C180.322 20.5097 180.322 20.2626 180.322 19.7683C180.322 19.2741 180.322 18.5328 180.322 17.7915V17.5444H183.533V21.251H184.027V22.7336H183.78ZM187.733 21.4981C187.486 21.7452 186.992 21.7452 186.498 21.7452C186.004 21.7452 185.51 21.4981 185.016 21.251C184.521 20.7568 184.521 20.2626 184.521 19.5212C184.521 18.7799 184.769 18.2857 185.016 17.7915C185.51 17.5444 186.004 17.2973 186.498 17.2973C186.992 17.2973 187.486 17.5444 187.733 17.7915C187.98 18.0386 187.98 18.2857 188.227 18.5328L187.239 18.7799C187.239 18.5328 186.992 18.2857 186.992 18.2857C186.745 18.0386 186.498 18.0386 186.498 18.0386C186.251 18.0386 186.004 18.0386 185.757 18.2857C185.51 18.5328 185.51 18.7799 185.51 19.5212C185.51 20.0155 185.51 20.5097 185.757 20.7568C186.004 21.0039 186.251 21.0039 186.498 21.0039C186.745 21.0039 186.992 21.0039 187.239 20.7568C187.486 20.5097 187.486 20.2626 187.733 20.0155L188.721 20.2626C188.227 21.0039 187.98 21.251 187.733 21.4981ZM192.426 18.2857H191.191V21.9923H190.203V18.2857H188.968V17.5444H192.426V18.2857ZM197.119 21.251L196.625 21.7452C196.378 21.7452 196.378 21.9923 196.131 21.9923C195.884 21.9923 195.637 21.9923 195.143 21.9923H193.661V17.5444H195.143C195.39 17.5444 195.884 17.5444 195.884 17.5444L196.378 17.7915L196.625 18.0386L196.872 18.5328L196.625 19.027L196.131 19.5212C196.378 19.5212 196.625 19.7683 196.872 20.0155C197.119 20.2626 197.119 20.5097 197.119 20.7568V21.251ZM201.566 21.251C201.072 21.7452 200.578 21.7452 200.084 21.7452C199.342 21.7452 198.848 21.4981 198.601 21.251C198.107 20.7568 198.107 20.2626 198.107 19.5212C198.107 19.027 198.107 18.7799 198.354 18.2857C198.354 18.0386 198.601 17.7915 198.848 17.7915L199.342 17.2973C199.342 17.5444 199.59 17.2973 200.084 17.2973C200.825 17.2973 201.319 17.5444 201.566 17.7915C202.06 18.2857 202.06 18.7799 202.06 19.5212C202.307 20.2626 202.06 21.0039 201.566 21.251Z" fill="#1B6C39"/>
<path d="M195.637 19.2741L195.884 19.027L196.131 18.7799V18.5328L195.884 18.2857C195.884 18.2857 195.637 18.2857 195.143 18.2857H194.649V19.2741H195.143C195.143 19.2741 195.39 19.2741 195.637 19.2741Z" fill="#1B6C39"/>
<path d="M93.8663 18.2857C93.3723 18.2857 93.1253 18.2857 92.8783 18.5328C92.6313 18.7799 92.6313 19.2741 92.6313 19.7683C92.6313 20.2626 92.6313 20.5097 92.8783 21.0039C93.1253 21.251 93.3723 21.4981 93.8663 21.4981C94.1134 21.4981 94.6074 21.251 94.8544 21.0039C95.1014 20.7568 95.1014 20.2626 95.1014 19.7683C95.1014 19.2741 95.1014 18.7799 94.8544 18.5328C94.6074 18.2857 94.3604 18.2857 93.8663 18.2857Z" fill="#1B6C39"/>
<path d="M10.6217 33.8533C10.1277 33.3591 6.91646 30.3938 6.42243 23.722C6.42243 23.722 7.65751 28.6641 10.6217 31.6293C10.6217 29.8996 11.1157 28.417 11.3628 26.9344C10.6217 23.722 8.8926 20.0154 3.95226 18.0386C3.95226 18.0386 1.48209 32.1235 10.6217 34.5946V33.8533Z" fill="#1B6C39"/>
<path d="M0 33.8533C0 33.8533 2.47017 44.2317 12.5979 43.9846L12.3508 42.9961C11.1158 42.2548 7.4105 41.5135 4.69332 37.0656C4.69332 37.0656 7.90453 40.278 11.8568 41.5135C11.6098 40.278 11.3628 39.2896 11.1158 38.0541C9.38663 35.8301 6.17542 33.6062 0 33.8533Z" fill="#1B6C39"/>
<path d="M10.6217 33.8533C10.6217 33.8533 10.8687 39.5367 11.6098 41.5135L9.63364 39.5367L9.38663 33.8533H10.6217Z" fill="#1B6C39"/>
<path d="M38.2876 3.45946C24.7017 3.45946 13.0919 12.3552 9.38663 24.7104C10.3747 24.7104 10.8687 26.193 11.3628 26.6873C14.821 14.8263 25.6897 5.9305 38.2876 5.9305C38.7816 5.9305 39.2756 5.9305 39.7697 5.9305L42.7339 3.70656C41.4988 3.70656 40.0167 3.45946 38.2876 3.45946Z" fill="#1B6C39"/>
<path d="M68.4236 29.8996H65.9535H31.1241V30.6409V48.9266C31.1241 48.9266 38.2876 45.2201 46.9332 47.6911C54.5907 49.9151 57.8019 53.8687 57.8019 53.8687C57.8019 53.8687 58.79 54.8571 59.284 55.5985C64.9654 50.1622 68.6706 42.2548 68.6706 33.8533C68.6706 32.6178 68.6706 31.1351 68.4236 29.8996ZM42.9809 43.9846H40.5107V36.0772H36.8055V43.9846H34.3353V33.6062H42.9809V43.9846ZM49.8974 41.7606C50.8854 41.7606 51.8735 41.2664 52.3675 40.5251L54.3437 42.2548C53.3556 43.4903 51.8735 44.2317 49.8974 44.2317C46.6862 44.2317 44.71 42.2548 44.71 38.7954C44.71 35.583 46.6862 33.3591 49.8974 33.3591C51.8735 33.3591 53.3556 34.1004 54.3437 35.3359L52.3675 37.0656C51.8735 36.3243 51.1325 35.8301 49.8974 35.8301C48.1683 35.8301 47.1802 36.8185 47.1802 38.7954C47.1802 40.5251 48.1683 41.7606 49.8974 41.7606ZM61.7542 43.9846L58.2959 39.2896V43.9846H55.8258V33.6062H58.2959V38.3012L61.2601 33.6062H64.2243L60.7661 38.5483L64.7184 43.9846H61.7542Z" fill="#F78D20"/>
<path d="M18.0322 48.1853C12.1038 36.5714 15.068 30.3938 16.3031 24.4633C12.5979 30.1467 12.1038 38.3012 15.068 46.4556C20.5024 61.2819 31.8652 64.2471 43.969 62.0232C32.3592 62.0232 24.4547 60.5405 18.0322 48.1853Z" fill="#1B6C39"/>
</svg>
