<svg width="25" height="25" viewBox="0 0 25 25" fill="none" xmlns="http://www.w3.org/2000/svg">
  <path d="M12.0176 0.0222168C7.05352 0.0222168 3.01758 4.05815 3.01758 9.02222C3.01758 15.6597 11.3191 23.5535 11.6754 23.8863C11.7738 23.9753 11.8957 24.0222 12.0176 24.0222C12.1395 24.0222 12.266 23.9753 12.3598 23.8863C12.716 23.5535 21.0176 15.6597 21.0176 9.02222C21.0176 4.05815 16.9816 0.0222168 12.0176 0.0222168ZM12.0176 14.0238C9.26133 14.0238 7.01602 11.7785 7.01602 9.02222C7.01602 6.26597 9.26133 4.02065 12.0176 4.02065C14.7738 4.02065 17.0191 6.26597 17.0191 9.02222C17.0191 11.7785 14.7738 14.0238 12.0176 14.0238Z" fill="#FE864A"/>
</svg>
