<svg width="50" height="29" viewBox="0 0 50 29" fill="none" xmlns="http://www.w3.org/2000/svg">
<path d="M0.969126 5.04857C0.557072 3.97822 0.0305599 2.86232 1.27817 2.25882C3.80771 2.22466 6.33726 2.1905 8.87826 2.15634C9.97707 2.1905 10.4807 2.99896 11.0644 4.12625C12.7699 7.39424 14.544 10.6509 16.6844 13.6456C17.3826 14.6248 18.5615 15.0006 19.4886 13.4406C19.5916 11.3341 19.6947 9.22751 19.7977 7.12096C19.4543 4.67281 18.5958 3.2267 17.0964 3.07867C16.238 2.24744 16.8561 1.56423 18.779 1.19986C21.835 0.550811 24.5019 0.846867 26.8484 1.14292C28.8285 1.26818 29.1147 2.60043 29.0803 4.12625C29.0116 6.916 28.9544 9.71714 28.9544 12.5069C29.5382 15.3422 31.0948 14.2035 32.1249 12.9737C33.9677 10.3662 35.5702 7.82694 36.9093 4.96887C38.2943 2.03109 38.672 2.24744 39.6449 2.23605C41.9684 2.22466 44.5323 2.1108 46.3866 2.17912C50.2553 1.95138 49.8089 3.65939 48.7215 5.46988C46.8444 8.62401 44.4293 11.4707 42.2775 14.4768C40.9726 16.2417 40.9955 17.3463 42.3805 18.3027C44.4293 20.5459 46.6498 22.6411 48.5155 25.0323C50.5414 27.6399 49.0535 28.3572 47.1649 28.5508C44.91 28.5508 42.6552 28.5508 40.4003 28.5508C38.4774 28.585 36.7376 28.1067 35.5129 26.0685C32.6858 22.345 30.5797 21.3202 29.7327 23.4154C29.3665 24.3377 29.0574 25.5789 29.0689 26.7859C29.0803 28.4711 28.0616 28.6077 26.6767 28.6533C25.1887 28.6533 23.6435 29.0177 22.2013 28.6533C17.0964 27.3666 12.1976 24.9981 7.42463 16.8566C5.27279 13.3381 3.12096 9.4894 0.969126 5.04857Z" fill="#416794"/>
</svg>
