<svg width="53" height="37" viewBox="0 0 53 37" fill="none" xmlns="http://www.w3.org/2000/svg">
<path d="M52.1315 13.4463C52.1315 10.1796 51.4315 6.67962 50.0315 3.87962C49.0982 2.71295 47.6982 1.77962 46.0648 1.54629C39.5315 0.846288 32.9982 0.612956 26.4648 0.846289C19.9315 0.846289 13.3982 1.07962 7.09817 1.54629C5.69817 1.77962 4.53151 2.24629 3.59817 3.17962C1.49817 5.04629 1.26484 8.54629 1.03151 11.113C0.798173 16.2463 0.798173 21.1463 1.03151 26.2796C1.03151 27.913 1.26484 29.313 1.73151 30.9463C1.96484 32.113 2.66484 33.2796 3.36484 34.213C4.29817 35.1463 5.46484 35.8463 6.86484 36.0796C11.9982 36.7796 16.8982 37.013 22.0315 36.7796C30.1982 36.7796 37.4315 36.7796 45.8315 36.0796C47.2315 35.8463 48.3982 35.1463 49.3315 34.213C50.0315 33.513 50.4982 32.813 50.7315 31.8796C51.6648 29.313 51.8982 26.7463 51.8982 23.9463C52.1315 22.7796 52.1315 14.8463 52.1315 13.4463ZM21.0982 25.5796V11.113L34.8648 18.3463C31.1315 20.4463 25.9982 22.7796 21.0982 25.5796Z" fill="#FF0B1D"/>
</svg>
