<?xml version="1.0" encoding="utf-8"?>
<!-- Generator: Adobe Illustrator 22.1.0, SVG Export Plug-In . SVG Version: 6.00 Build 0)  -->
<svg version="1.1" id="Layer_1" xmlns="http://www.w3.org/2000/svg" xmlns:xlink="http://www.w3.org/1999/xlink" x="0px" y="0px"
	 viewBox="0 0 482.5 512" style="enable-background:new 0 0 482.5 512;" xml:space="preserve" fill="rgba(57, 78, 105, 0.74">
<g>
	<g>
		<path d="M479.7,138.6L349.3,3c-1.9-1.9-4.4-3-7.1-3H147.8c-21.8,0-39.5,17.7-39.5,39.4v137.8H29.5C13.2,177.2,0,190.5,0,206.7
			v147.7C0,370.8,13.2,384,29.5,384h78.8v88.6c0,21.7,17.7,39.4,39.5,39.4H443c21.8,0,39.5-17.7,39.5-39.4V145.4
			C482.5,142.8,481.5,140.4,479.7,138.6z M344.6,26.6l107.1,111.3H344.6V26.6z M29.5,364.3c-5.4,0-9.8-4.4-9.8-9.8V206.7
			c0-5.4,4.4-9.8,9.8-9.8h265.9c5.4,0,9.8,4.4,9.8,9.8v147.7c0,5.4-4.4,9.8-9.8,9.8H29.5z M462.8,472.6c0,10.8-8.9,19.7-19.8,19.7
			H147.8c-10.9,0-19.8-8.8-19.8-19.7V384h167.4c16.3,0,29.5-13.2,29.5-29.5V206.7c0-16.3-13.2-29.5-29.5-29.5H128V39.4
			c0-10.9,8.9-19.8,19.8-19.8h177.2v128c0,5.4,4.4,9.8,9.8,9.8h128L462.8,472.6L462.8,472.6z"/>
	</g>
</g>
<g>
	<g>
		<path d="M116.1,263.5c-1.8-5.4-4.5-10-8.1-13.7c-3.5-3.7-7.8-6.3-12.8-7.8c-3.7-1.1-9.1-1.6-16.1-1.6H47.9v84.6h32.1
			c6.3,0,11.3-0.6,15.1-1.8c5-1.6,9-3.9,12-6.7c3.9-3.8,6.9-8.8,9.1-14.9c1.7-5,2.6-11,2.6-18C118.8,275.5,117.9,268.9,116.1,263.5z
			 M99.4,298.2c-1.2,3.8-2.6,6.5-4.5,8.2c-1.8,1.7-4.1,2.8-6.9,3.5c-2.1,0.5-5.6,0.8-10.3,0.8H65v-56h7.7c7,0,11.6,0.3,14,0.8
			c3.2,0.7,5.8,2,7.9,4c2.1,2,3.7,4.7,4.8,8.2c1.2,3.5,1.7,8.5,1.7,15.1C101.2,289.2,100.6,294.4,99.4,298.2z"/>
	</g>
</g>
<g>
	<g>
		<path d="M279.3,293.8c-1.4,6.2-3.8,10.7-7,13.6c-3.3,2.9-7.2,4.3-11.7,4.3c-6.2,0-11.2-2.3-15-6.8c-3.8-4.5-5.8-12.2-5.8-22.8
			c0-10.1,2-17.4,5.9-21.9c3.9-4.5,9-6.8,15.3-6.8c4.5,0,8.4,1.3,11.6,3.8c3.2,2.5,5.3,6,6.3,10.4l16.9-4c-1.9-6.8-4.8-12-8.7-15.6
			c-6.5-6.1-14.9-9.2-25.2-9.2c-11.8,0-21.4,3.9-28.7,11.7c-7.3,7.8-10.9,18.7-10.9,32.8c0,13.3,3.6,23.8,10.8,31.5
			c7.2,7.7,16.5,11.5,27.7,11.5c9.1,0,16.6-2.2,22.5-6.7c5.9-4.5,10.1-11.3,12.7-20.6L279.3,293.8z"/>
	</g>
</g>
<g>
	<g>
		<path d="M200.7,250.5c-7.5-7.7-17.5-11.6-29.9-11.6c-6.9,0-13,1.1-18.2,3.3c-4,1.7-7.6,4.2-10.9,7.6c-3.3,3.4-6,7.3-7.9,11.6
			c-2.6,5.8-3.9,13.1-3.9,21.7c0,13.5,3.7,24,11.1,31.7c7.4,7.7,17.4,11.5,30,11.5c12.4,0,22.3-3.9,29.8-11.6
			c7.4-7.7,11.1-18.4,11.1-32C211.9,269,208.1,258.2,200.7,250.5z M187.7,304.4c-4.4,4.9-10,7.4-16.8,7.4c-6.8,0-12.4-2.5-16.8-7.4
			c-4.4-4.9-6.6-12.2-6.6-21.8c0-9.7,2.2-17,6.5-21.8c4.3-4.8,10-7.2,17-7.2c7,0,12.7,2.4,16.9,7.2c4.3,4.8,6.4,12,6.4,21.7
			C194.2,292.2,192,299.5,187.7,304.4z"/>
	</g>
</g>
</svg>
