<?xml version="1.0" encoding="utf-8"?>
<!-- Generator: Adobe Illustrator 22.1.0, SVG Export Plug-In . SVG Version: 6.00 Build 0)  -->
<svg version="1.1" id="Capa_1" xmlns="http://www.w3.org/2000/svg" xmlns:xlink="http://www.w3.org/1999/xlink" x="0px" y="0px"
	 viewBox="0 0 490.2 490.2" style="enable-background:new 0 0 490.2 490.2;" xml:space="preserve" fill="rgba(57, 78, 105, 0.74)">
<g>
	<g>
		<path d="M245.1,490.3c135.2,0,245.2-110,245.2-245.2c0-135.2-110-245.2-245.2-245.2C109.9-0.1-0.1,109.9-0.1,245.1
			C-0.1,380.3,109.9,490.3,245.1,490.3z M245.1,24.3c121.8,0,220.8,99,220.8,220.8s-99,220.8-220.8,220.8s-220.8-99-220.8-220.8
			S123.4,24.4,245.1,24.3z"/>
		<path d="M180.2,310c2.4,2.4,5.5,3.5,8.7,3.6c3.1,0,6.3-1.2,8.7-3.6l47.6-47.6l47.6,47.6c2.4,2.4,5.5,3.5,8.7,3.6
			c3.1,0,6.3-1.2,8.7-3.6c4.8-4.8,4.8-12.6,0-17.3l-47.6-47.6l47.6-47.6c4.8-4.8,4.8-12.6,0-17.3c-4.8-4.8-12.6-4.8-17.3,0
			l-47.6,47.6l-47.6-47.6c-4.8-4.8-12.6-4.8-17.3,0c-4.8,4.8-4.8,12.6,0,17.3l47.6,47.6l-47.6,47.6
			C175.4,297.4,175.4,305.2,180.2,310z"/>
	</g>
</g>
</svg>
