<svg width="40" height="40" fill="none" xmlns="http://www.w3.org/2000/svg"><path fill-rule="evenodd" clip-rule="evenodd" d="M20 0c11.028 0 20 8.972 20 20s-8.972 20-20 20S0 31.028 0 20 8.972 0 20 0zm0 3C10.626 3 3 10.626 3 20c0 9.374 7.626 17 17 17 9.374 0 17-7.626 17-17 0-9.374-7.626-17-17-17zm-1.825 8.995l6.972 6.942a1.502 1.502 0 010 2.126l-6.972 6.94a1.493 1.493 0 01-2.12-.004 1.5 1.5 0 01.004-2.12L21.963 20l-5.904-5.878A1.502 1.502 0 0116.055 12a1.498 1.498 0 012.12-.004z" fill="#5DC5DC"/></svg>