<svg width="20" height="20" fill="none" xmlns="http://www.w3.org/2000/svg"><path clip-rule="evenodd" d="M.75 10c0 6.937 2.313 9.25 9.25 9.25 6.937 0 9.25-2.313 9.25-9.25 0-6.937-2.313-9.25-9.25-9.25C3.063.75.75 3.063.75 10z" stroke="#5DC5DC" stroke-width="1.5" stroke-linecap="round" stroke-linejoin="round"/><path clip-rule="evenodd" d="M8.598 6.784a1.76 1.76 0 11-3.52.001 1.76 1.76 0 013.52 0z" stroke="#5DC5DC" stroke-width="1.5" stroke-linecap="round" stroke-linejoin="round"/><path d="M19.12 12.667c-.881-.906-2.127-2.737-4.416-2.737-2.29 0-2.34 4.038-4.675 4.038-2.337 0-3.278-1.371-4.801-.655-1.522.715-2.762 3.56-2.762 3.56" stroke="#5DC5DC" stroke-width="1.5" stroke-linecap="round" stroke-linejoin="round"/></svg>