<svg width="700" height="430" fill="none" xmlns="http://www.w3.org/2000/svg"><g clip-path="url(#clip0)"><path d="M330.1 406c167.488 0 303.264-25.488 303.264-56.93 0-31.441-135.776-56.93-303.264-56.93S26.836 317.629 26.836 349.07c0 31.442 135.776 56.93 303.264 56.93zM248.619 29.645h-11.896v250.958h11.896V29.645z" fill="#EBEBEB"/><path d="M248.937 23.387a6.272 6.272 0 11-12.544-.001 6.272 6.272 0 0112.544 0zm317.758 6.258h-11.896v250.958h11.896V29.645z" fill="#EBEBEB"/><path d="M567 23.387a6.258 6.258 0 01-10.689 4.41 6.256 6.256 0 014.43-10.681 6.258 6.258 0 016.259 6.27zm-12.201 174.507H248.62v37.157h306.179v-37.157z" fill="#EBEBEB"/><path d="M260.304 197.894H248.62v37.145h11.684v-37.145zm294.483 0h-11.685v37.145h11.685v-37.145z" fill="#DBDBDB"/><path d="M395.309 229.437H275.313v-25.918h119.996v25.918zm-118.845-1.174h117.671v-23.569H276.487l-.023 23.569z" fill="#C7C7C7"/><path d="M349.826 217.06h-29.007v-5.32h29.007v5.32zm-27.832-1.175h26.658v-2.971h-26.658v2.971zm206.111 13.552H408.086v-25.918h120.019v25.918zm-118.845-1.174h117.671v-23.569H409.26v23.569z" fill="#C7C7C7"/><path d="M482.598 217.06h-29.006v-5.32h29.006v5.32zm-27.832-1.175h26.658v-2.971h-26.658v2.971z" fill="#C7C7C7"/><path d="M554.799 186.621H248.62v11.273h306.179v-11.273z" fill="#DBDBDB"/><path d="M554.799 157.391H248.62v29.229h306.179v-29.229z" fill="#6D818A"/><path d="M554.482 43.843H248.62v10.018h305.862V43.844z" fill="#EBEBEB"/><path d="M257.451 53.86h-4.052v144.034h4.052V53.861zm19.482 0h-4.051v144.034h4.051V53.861zm19.495 0h-4.052v144.034h4.052V53.861zm19.482 0h-4.051v144.034h4.051V53.861zm19.483 0h-4.051v144.034h4.051V53.861zm19.483 0h-4.052v144.034h4.052V53.861zm19.482 0h-4.051v144.034h4.051V53.861zm19.483 0h-4.051v144.034h4.051V53.861zm19.482 0h-4.051v144.034h4.051V53.861zm19.483 0h-4.051v144.034h4.051V53.861zm19.483 0h-4.052v144.034h4.052V53.861zm19.482 0h-4.051v144.034h4.051V53.861zm19.483 0h-4.052v144.034h4.052V53.861zm19.483 0h-4.052v144.034h4.052V53.861zm19.483 0h-4.052v144.034h4.052V53.861zm19.482 0h-4.052v144.034h4.052V53.861z" fill="#EBEBEB"/><path d="M554.482 43.843H248.62v10.018h305.862V43.844z" fill="#EBEBEB"/><path d="M578.439 88.194s-35.086-4.913-26.883-47.259c0 0 39.201 8.797 26.883 47.259z" fill="#5DDCC5"/><path opacity=".1" d="M578.439 88.194s-35.086-4.913-26.883-47.259c0 0 39.201 8.797 26.883 47.259z" fill="#6D818A"/><path d="M576.67 79.353a66.26 66.26 0 00-2.391-6.318c0-.261-.072-.536-.087-.797 0-.58-.101-1.174-.145-1.754-.101-1.26-.188-2.521-.261-3.797-.144-2.521-.304-5.057-.347-7.594 0-.13-.218-.13-.218 0v7.594c0 1.276.116 2.536.203 3.797v.84a75.562 75.562 0 00-7.029-12.028 66.428 66.428 0 00-3.84-4.855c-1.449-1.608-2.898-3.13-4.348-4.71-.087-.1-.246 0-.145.16a63.104 63.104 0 016.768 8.985 84.998 84.998 0 013.029 4.956l-.333-.13-1.246-.507-2.899-1.087-5.637-2.102c-.116 0-.189.16 0 .203 1.855.74 3.71 1.522 5.55 2.319l2.71 1.174 1.377.565c.298.139.609.25.927.333.711 1.261 1.45 2.537 2.058 3.84a93.86 93.86 0 014.348 10.145c.072.247.159.493.246.725a21.611 21.611 0 00-2.898-1.45l-3.638-1.651c-2.463-1.13-4.898-2.276-7.246-3.609a.106.106 0 00-.118.011.112.112 0 00-.027.032.136.136 0 00-.012.04.106.106 0 00.024.078.1.1 0 00.032.027c2.406 1.305 4.768 2.71 7.246 4.03a88.009 88.009 0 003.652 1.883 11.51 11.51 0 003.29 1.319 41.22 41.22 0 012.304 9.956c.391 4.782.348 9.608.464 14.42 0 .072.116.072.13 0 .348-4.348.536-8.696.565-13.116a38.16 38.16 0 00-2.058-11.927z" fill="#263238"/><path d="M571.265 54.442a41.55 41.55 0 00-.348 7.478h.102c.144-2.479.173-4.942.449-7.406.029-.16-.189-.203-.203-.072zm-10.029 2.115a27.045 27.045 0 01-4.507-2.202c-.116-.087-.231.101-.101.188a17.543 17.543 0 004.55 2.174c.087.014.145-.116.058-.16zm18.333 98.865c0-3.869-.116-7.753-.159-11.594 0-12.883-.174-25.752-.406-38.621-.184-10.231-.42-20.453-.71-30.665a.152.152 0 00-.027-.076.16.16 0 00-.06-.054v-8.377c0-.072-.087-.101-.174-.101s-.174 0-.174.116v8.376s-.087 0-.087.13c-.507 18.188-.971 36.376-1.072 54.578v11.086c-.116 11.864-.16 23.728-.131 35.592v5.667c0 10.854.116 21.738.116 32.549 0 .594.652.884 1.333.913.682.029 1.624-.29 1.624-.957 0-11.97.086-23.926.086-35.896-.144-7.58-.115-15.116-.159-22.666z" fill="#263238"/><path d="M564.874 143.655s-16.883-12.507-32.897-4.058-18.521 41.012-18.521 41.012 23.549 3.362 38.375-10.695c14.26-13.622 13.043-26.259 13.043-26.259z" fill="#5DDCC5"/><path opacity=".1" d="M564.874 143.655s-16.883-12.507-32.897-4.058-18.521 41.012-18.521 41.012 23.549 3.362 38.375-10.695c14.26-13.622 13.043-26.259 13.043-26.259z" fill="#6D818A"/><path d="M569.511 144.423a20.03 20.03 0 00-9.782-1.276 12.245 12.245 0 00-2.058-.202l-2.376-.189c-1.652-.116-3.29-.217-4.928-.348-3.333-.246-6.666-.449-9.985-.782-.116 0-.145.203 0 .217 3.29.42 6.565.884 9.869 1.217 1.696.174 3.392.348 5.087.464l1.232.131c-.507.101-1 .231-1.449.362a39.775 39.775 0 00-7.652 3.116c-1.333.232-2.652.608-3.956.913-2.087.492-4.16 1.029-6.232 1.579-4.101 1.073-8.159 2.276-12.232 3.464-.13 0 0 .232 0 .203 4.058-1 8.145-1.913 12.217-2.899 1.971-.463 3.957-.927 5.928-1.449l1.55-.362a49.552 49.552 0 00-11.985 10.434 64.861 64.861 0 00-8.333 13.144c0 .116.102.232.174.116a64.065 64.065 0 0110.145-13.245l-.305.739c-.318.985-.623 1.985-.942 2.985-.623 1.986-1.26 3.971-1.84 5.956a.102.102 0 00.101.102.102.102 0 00.102-.102c.71-1.927 1.377-3.869 2.058-5.796l1-2.899c.174-.493.347-.985.507-1.449l.174-.449a55.438 55.438 0 015.985-5.102 45.765 45.765 0 018.956-5.144c-.058.309-.116.599-.174.869-.174.768-.333 1.536-.492 2.305a270.994 270.994 0 00-.957 4.796c-.638 3.276-1.029 6.58-1.638 9.84a.102.102 0 00.174.072.101.101 0 00.029-.072c.754-3.289 1.739-6.521 2.464-9.811.362-1.637.739-3.289 1.087-4.941.159-.768.304-1.537.464-2.319.099-.426.177-.856.232-1.29l.913-.377c4.434-1.637 9.333-2.898 14.042-1.913a13.742 13.742 0 0110.145 8.13c.159.363.739.145.652-.231a13.03 13.03 0 00-7.971-8.507z" fill="#263238"/><path d="M543.672 158.32c-.478 2.145-.942 4.276-1.449 6.42a48.151 48.151 0 00-1.174 6.232c0 .087.116.087.13 0a46.354 46.354 0 001.449-6.275c.421-2.116.827-4.217 1.247-6.333a.127.127 0 00-.032-.055.113.113 0 00-.119-.025.114.114 0 00-.052.036zm-16.318 5.435c-2.145 1.101-4.232 2.333-6.479 3.232-.13 0 0 .26.087.188a66.056 66.056 0 006.449-3.333s0-.116-.057-.087z" fill="#263238"/><path d="M568.7 120.641s-20.623 1.319-30.217-12.274c-9.593-13.594-7.434-33.028-7.434-33.028s21.666 2.638 30.26 12.406c8.594 9.767 7.391 32.896 7.391 32.896z" fill="#5DDCC5"/><path d="M578.381 141.031c-.711-2.202-1.595-4.347-2.435-6.55a111.816 111.816 0 00-2.565-6.174 131.324 131.324 0 00-6.174-12.158c-1.449-2.507-3.014-4.928-4.623-7.333 0-.363-.101-.725-.159-1.102-.102-.637-.189-1.275-.29-1.913-.203-1.304-.435-2.608-.652-3.913-.479-2.898-1.058-5.666-1.45-8.52 0-.131-.246-.131-.217 0 .406 2.81.696 5.651 1.087 8.463.203 1.449.377 2.768.594 4.144.073.507.145 1 .232 1.449a150.3 150.3 0 00-10.145-13.23c-.492-.58-1-1.131-1.449-1.696 0-.145-.13-.305-.188-.464-.16-.391-.305-.783-.449-1.188-.305-.812-.609-1.638-.899-2.45a58.371 58.371 0 01-1.536-4.912c0-.13-.232-.073-.203 0 .42 1.68.855 3.376 1.348 5.043.246.811.507 1.608.797 2.406 0 .13.087.26.145.39-2.638-2.898-5.391-5.637-8.174-8.376-.087-.101-.232 0-.145.16a146.969 146.969 0 0114.623 17.897 15.088 15.088 0 00-1.536-.391 76.526 76.526 0 00-4.783-.739c-3.362-.42-6.724-.855-10.057-1.377-.145 0-.189.189 0 .203 3.188.638 6.362 1.363 9.536 2.087 1.449.348 2.999.638 4.507.928a30.25 30.25 0 013.623 1.029c.333.478.681.956 1 1.449a139.845 139.845 0 014.347 6.71l-2.101-.406a172.243 172.243 0 00-4.797-.855c-3.145-.522-6.29-1.073-9.391-1.783-.145 0-.188.189 0 .218 3.159.739 6.275 1.594 9.405 2.434 1.45.406 3.029.768 4.566 1.102.753.174 1.521.347 2.289.492.303.085.614.138.928.16a226.868 226.868 0 018.463 14.999 224.99 224.99 0 013.319 6.782c1.072 2.276 2.058 4.739 3.072 7.116-.043.594.71.391.537-.131z" fill="#263238"/><path d="M557.28 93.643a280.062 280.062 0 00-1.247-5.898c0-.13-.231 0-.202 0 .391 1.927.753 3.869 1.101 5.796.348 1.928.638 3.884 1.174 5.797h.072a42.806 42.806 0 00-.898-5.695zm-12.029-.537c-.956-.478-1.971-.855-2.898-1.246l-1.565-.609-.797-.318a3.905 3.905 0 01-.87-.392c-.159-.116-.261.16-.101.189.31.078.608.2.884.362l.782.348 1.45.666c.987.467 2.003.869 3.043 1.203.101 0 .174-.203.072-.203z" fill="#263238"/><path d="M589.815 104.468s12.478-23.318 31.477-26.926c18.999-3.609 30.608 15.941 30.608 15.941s-13.855 17.695-31.275 20.782c-17.419 3.086-30.81-9.797-30.81-9.797z" fill="#5DDCC5"/><path d="M634.016 87.99a51.331 51.331 0 00-14.898.19l.841-.465c1.449-.71 2.811-1.449 4.217-2.173 2.899-1.45 5.869-3.13 8.913-4.348a.12.12 0 00.033-.024.113.113 0 00.021-.034.109.109 0 00-.003-.08.104.104 0 00-.138-.05c-2.971 1.376-6.043 2.536-9.029 3.912-1.449.682-2.898 1.45-4.347 2.16-.928.507-1.971.97-2.899 1.565a51.839 51.839 0 00-12.072 4.014c.783-.87 1.58-1.724 2.377-2.594 1.768-1.942 3.507-3.97 5.449-5.797.101-.087 0-.232-.16-.145-1.985 1.812-4.086 3.479-6.014 5.348a35.237 35.237 0 00-2.695 2.826c-.435.493-.87.985-1.29 1.45a50 50 0 00-25.448 34.375c0 .13.159.202.202.072A57.301 57.301 0 01590.96 104.7a54.869 54.869 0 0125.434-14.724 56.04 56.04 0 0117.564-1.594.198.198 0 10.058-.391z" fill="#263238"/><path opacity=".1" d="M651.9 93.483s-13.855 17.68-31.289 20.767c-13.289 2.362-24.216-4.579-28.666-7.985l-.985-1.565s8.985-7.58 25.999-11.956c17.014-4.376 34.941.74 34.941.74z" fill="#6D818A"/><path d="M622.988 79.687a43.325 43.325 0 00-4.218 2.782c-1.323 1-2.55 2.121-3.666 3.348a.114.114 0 00-.016.074c.003.026.014.05.033.069a.115.115 0 00.142.017 116.562 116.562 0 013.841-3.232 42.685 42.685 0 013.985-2.899.106.106 0 00.074-.06.113.113 0 00.008-.047.105.105 0 00-.051-.08.102.102 0 00-.095-.003.094.094 0 00-.037.03zm10.42 3.942l-2.131.84-2.115.884c-.145 0-.073.305.072.232l2.13-.855 2.102-.898c.13-.044.058-.261-.058-.203z" fill="#263238"/><path d="M587.322 133.815s3.334 23.187 20.724 31.216c17.391 8.028 38.593 0 38.593 0s-8.333-50.041-59.317-31.216z" fill="#5DDCC5"/><path opacity=".1" d="M587.322 133.815s3.334 23.187 20.724 31.216c17.391 8.028 38.593 0 38.593 0s-8.333-50.041-59.317-31.216z" fill="#6D818A"/><path d="M634.654 149.988c-1.594-.189-3.188-.464-4.783-.754-.782-.13-1.55-.29-2.333-.435l-1.217-.246c-.478-.435-.928-.884-1.449-1.304a70.13 70.13 0 00-10.623-7.71 61.434 61.434 0 00-6.377-3.275h.319l5.725.246c3.825.174 7.637.261 11.448.507.145 0 .131-.203 0-.217-3.826-.246-7.637-.667-11.463-1l-5.565-.493-2.898-.261-.74-.072c-.999-.362-1.985-.725-2.999-1.029a27.145 27.145 0 00-14.739-.812c-4.348 1.116-8.695 3.986-9.869 8.594 0 .16.203.276.275.116 1.638-3.855 5.913-5.797 9.768-6.608 2.6-.498 5.267-.547 7.884-.145a18.41 18.41 0 00.869 3.492c.493 1.624.957 3.261 1.449 4.884.986 3.246 2.073 6.464 3.044 9.724 0 .131.232 0 .203-.072-.812-3.246-1.45-6.521-2.276-9.768-.376-1.594-.782-3.188-1.188-4.782a26.505 26.505 0 00-.869-3.29c1.52.269 3.025.622 4.507 1.058 2.686.8 5.319 1.768 7.883 2.899.261 1.637.624 3.275 1 4.898a78.529 78.529 0 001.652 6.058.102.102 0 00.203 0 3.02 3.02 0 01-.072-.377c-.391-1.899-.797-3.783-1.203-5.667-.319-1.521-.623-3.057-.942-4.579a70.738 70.738 0 016.333 3.217c0 .464.16.957.232 1.377.116.797.261 1.594.406 2.377.333 1.782.681 3.565 1.116 5.333a84.22 84.22 0 002.985 10.057.102.102 0 00-.024.065c0 .024.009.047.024.065l.102.116c.072.087.202 0 .173-.116-.797-3.42-1.724-6.825-2.478-10.26-.377-1.724-.753-3.434-1.101-5.159-.16-.855-.319-1.725-.493-2.594 0-.232-.072-.507-.116-.768a69.655 69.655 0 016.768 4.521 72.958 72.958 0 0110.376 9.464c.116.13.363 0 .247-.218a62.539 62.539 0 00-4.145-5.057 67.584 67.584 0 00-2.71-2.725h.29c.811.145 1.637.261 2.449.377 1.609.217 3.232.377 4.84.551.189.014.247-.189.102-.203z" fill="#263238"/><path d="M622.437 157.828c0-.203 0-.406-.102-.594-.101-.189-.174-.508-.203-.768a102.903 102.903 0 01-.927-4.667.105.105 0 00-.037-.046.099.099 0 00-.114 0 .093.093 0 00-.037.046 18.836 18.836 0 001.318 6.043h.116l-.014-.014zm-14.55-.377a.105.105 0 00-.035-.063.1.1 0 00-.067-.024c-.493-2.058-.956-4.101-1.449-6.159-.217-1.087-.449-2.174-.652-3.261-.116-.579-.218-1.174-.319-1.753a5.345 5.345 0 00-.377-1.45h-.203a9.917 9.917 0 00.45 3.102c.202 1.13.42 2.261.666 3.376.507 2.29 1.087 4.565 1.725 6.812 0 .116.246.087.232 0-.015-.087.043-.406.029-.58zm25.187-14.13c-3.173-.434-6.347-.898-9.535-1.275-.131 0-.189.189 0 .203 3.173.478 6.347.87 9.521 1.29.101.014.145-.189.014-.218z" fill="#263238"/><path d="M578.409 79.57s-10.637-46.692 39.521-65.576c0 0 13.898 61.447-39.521 65.577z" fill="#5DDCC5"/><path d="M589.25 53.094l.536-.334 2.826-1.58 5.797-3.245c3.826-2.145 7.608-4.348 11.463-6.478.116 0 0-.247-.116-.174-3.854 2.101-7.796 4.058-11.68 6.115l-5.797 3.044-2.348 1.232c1.681-3.16 3.464-6.276 5.435-9.275 2.623-4 5.492-7.812 8.478-11.594a.166.166 0 00.053-.056.164.164 0 00.024-.074.168.168 0 00-.054-.142.173.173 0 00-.27.04 79.932 79.932 0 00-11.593 14.217v-.493c0-1.16.087-2.319.101-3.478 0-2.275-.072-4.565 0-6.84a.116.116 0 00-.175-.055.116.116 0 00-.042.055c-.102 2.246-.363 4.492-.493 6.724 0 1.116-.116 2.246-.145 3.362 0 .609-.072 1.29 0 1.957a75.643 75.643 0 00-2.898 5 86.096 86.096 0 00-4.493 9.405c0-1.16-.116-2.319-.188-3.493-.145-2.55-.45-5.101-.566-7.652 0-.144-.217-.13-.217 0v7.681c0 1.276.087 2.55.159 3.826 0 .464 0 .942.102 1.45a85.025 85.025 0 00-3.797 12.84 139.382 139.382 0 00-1.87 14.1 74.956 74.956 0 012.667-12.565c.609-2.202 1.275-4.347 1.971-6.565 2.087-.985 4.087-2.217 6.101-3.333l6.304-3.449c4.174-2.29 8.362-4.623 12.681-6.652.116 0 0-.246-.116-.188-4.348 1.985-8.782 3.87-13.043 6.029a147.34 147.34 0 00-6.333 3.39c-1.739.986-3.522 1.972-5.188 3.088a86.67 86.67 0 011.55-4.348 120.768 120.768 0 015.174-11.492z" fill="#263238"/><path d="M585.018 42.384c0-.13-.232-.13-.218 0 .174 2.667.276 5.319.551 7.985 0 .145.247.145.232 0-.087-2.637-.42-5.29-.565-7.985zm24.042 8.956c-3.144 1.261-6.304 2.464-9.434 3.768-.087 0 0 .174 0 .145 3.174-1.188 6.304-2.478 9.463-3.71.16-.058.102-.26-.029-.203zm4.769-21.535a82.146 82.146 0 00-8.913 4.782c-.145.087 0 .32.13.232a146.712 146.712 0 018.898-4.84c.203-.058.015-.232-.115-.174z" fill="#263238"/><path d="M613.075 180.537H540.73v76.257h72.345v-76.257z" fill="#6D818A"/><path d="M539.455 207.507h-3.696v130.616h3.696V207.507zm78.199 0h-3.695v130.616h3.695V207.507zm-37.128 0h-3.696v130.616h3.696V207.507z" fill="#263238"/><path d="M615.814 251.896H537.6v10.564h78.214v-10.564zM166.903 29.182c-30.202 14.492-48.056 51.07-34.274 93.213 12.55 38.331 54.157 62.142 80.373 55.171 27.825-7.391 38.622-36.462 27.956-55.36-10.304-18.259-29.318-25.085-33.202-41.273-1.855-7.753 1.971-20.694-.275-32.26-2.507-12.912-21.173-28.81-40.578-19.49z" fill="#263238"/><path d="M185.511 177.827a81.036 81.036 0 01-34.883-20.956 90.052 90.052 0 01-21.202-35.027 77.414 77.414 0 01-2.724-40.766 76.51 76.51 0 0119.043-35.926 80.122 80.122 0 00-17.811 36.23 74.811 74.811 0 00-1.116 20.188 82.77 82.77 0 004.173 19.796 98.082 98.082 0 008.333 18.477 87.812 87.812 0 0027.898 29.071 77.849 77.849 0 0018.289 8.913zm59.288-51.244a39.972 39.972 0 00-5.797-11.188 53.635 53.635 0 00-8.464-9.275 201.693 201.693 0 01-9.405-8.579 54.863 54.863 0 01-8.203-9.883 35.644 35.644 0 01-3.014-5.797 25.015 25.015 0 01-1.449-6.377 104.427 104.427 0 010-12.782 49.43 49.43 0 00-1-12.492 34.543 34.543 0 00-4.927-11.593 33.083 33.083 0 015.695 11.347 49.563 49.563 0 011.449 12.71c0 4.245-.217 8.492.218 12.607a22.92 22.92 0 001.449 5.971c.8 1.9 1.77 3.724 2.898 5.449 4.348 7.087 10.942 12.608 17.072 18.405a53.811 53.811 0 018.275 9.768 37.209 37.209 0 015.203 11.709z" fill="#263238"/><path d="M155.729 124.236c10.768 11.173 99.257 91.212 107.735 88.531 24.956-7.883 46.767-20.999 35.173-38.447-13.492-20.289-95.431-55.896-134.575-68.982-28.042-9.333-18.97 7.884-8.333 18.898z" fill="#FFC4C0"/><path d="M188.294 166.436l10.144-48.403a316.588 316.588 0 00-35.259-14.246c-20.391-6.884-27.623 1.261-10.797 24.883a183.772 183.772 0 0035.912 37.766z" fill="#BB96DE"/><path d="M144.324 109.28a.912.912 0 01-.913.913.816.816 0 01-.261 0 14.35 14.35 0 01-.145-1.681.772.772 0 01.406-.102.914.914 0 01.913.87zm14.043-.913a.912.912 0 10.913.913.928.928 0 00-.913-.913zm14.942 0a.928.928 0 00-.913.913.912.912 0 10.913-.913zm-14.942 20.796a.912.912 0 100 1.826.929.929 0 00.913-.913.914.914 0 00-.913-.913zm14.942 0a.913.913 0 00-.913.913.924.924 0 00.913.913.913.913 0 100-1.826zm14.956 0a.913.913 0 10-.002 1.825.913.913 0 00.002-1.825zm-37.376-10.391a.915.915 0 00-.845.567.913.913 0 10.845-.567zm14.942 0a.91.91 0 00-.845.567.913.913 0 101.758.331.9.9 0 00-.913-.898zm14.956 0a.91.91 0 00-.845.567.913.913 0 10.888-.567h-.043zm14.955 0a.91.91 0 00-.844.567.913.913 0 10.844-.567zm-22.433 31.172a.91.91 0 00-.913.913.914.914 0 00.913.913.912.912 0 100-1.826zm14.956 0a.917.917 0 00-.844.564.914.914 0 101.757.349.913.913 0 00-.913-.913zm-22.434-10.39a.916.916 0 00-.844.563.918.918 0 00.198.995.91.91 0 00.995.198.916.916 0 00.564-.843.914.914 0 00-.913-.913zm14.956 0a.913.913 0 10-.002 1.825.913.913 0 00.002-1.825zm.144 20.796l.725.637a.88.88 0 00-.725-.637z" fill="#fff"/><path d="M190.641 115.627c-1.174 3.493-1.811 7.246-2.681 10.768-.869 3.521-1.652 6.84-2.377 10.289-1.449 7.159-2.811 14.318-4 21.521 0 .13.189.174.218 0a760.617 760.617 0 004.884-21.101c.768-3.507 1.449-7.043 2.101-10.564.652-3.522 1.652-7.246 2.072-10.927a.113.113 0 00-.113-.069.116.116 0 00-.104.083z" fill="#263238"/><path d="M89.08 247.026c3.985 1.45 120.662-25.955 120.662-25.955l-11.594-40.578s7.348-12.492 4.855-25.013c-3.318-16.709-32.491-45.374-34.781-47.084-9.318-6.884-17.782-8.217-25.97-4.348C108.108 119.96 89.08 247.026 89.08 247.026z" fill="#BB96DE"/><path d="M144.324 109.28a.912.912 0 11-1.824 0 .912.912 0 011.824 0zm14.043-.913a.912.912 0 10.913.913.928.928 0 00-.913-.913zm-29.912 20.796a.912.912 0 100 1.824.912.912 0 000-1.824zm14.956 0a.912.912 0 100 1.824.912.912 0 000-1.824zm14.956 0a.912.912 0 100 1.826.929.929 0 00.913-.913.914.914 0 00-.913-.913zm14.942 0a.914.914 0 00-.913.913.924.924 0 00.913.913.909.909 0 00.645-.268.909.909 0 000-1.291.912.912 0 00-.645-.267zm14.492.145a.898.898 0 00-.42.768.912.912 0 001.55.652l-1.13-1.42zm-51.897-10.536a.91.91 0 00-.844.567.913.913 0 10.844-.567zm14.956 0a.91.91 0 00-.844.567.913.913 0 10.873-.567h-.029zm14.942 0a.915.915 0 00-.845.567.904.904 0 00-.049.529.908.908 0 001.253.656.91.91 0 00.554-.854.9.9 0 00-.884-.898h-.029zm-52.332 31.172a.913.913 0 100 1.828.913.913 0 000-1.828zm14.956 0a.916.916 0 00-.843.564.914.914 0 001.603.857.918.918 0 00-.104-1.143.913.913 0 00-.627-.278h-.029zm14.956 0a.916.916 0 00-.843.564.914.914 0 001.603.857.918.918 0 00-.104-1.143.913.913 0 00-.627-.278h-.029zm14.956 0a.913.913 0 100 1.828.913.913 0 000-1.828zm14.942 0a.911.911 0 00-.913.913.914.914 0 00.913.913.912.912 0 100-1.826zm14.956 0a.914.914 0 10.029 0h-.029zm-67.288-10.39a.912.912 0 100 1.824.912.912 0 000-1.824zm14.956 0a.915.915 0 00-.843.563.918.918 0 00.198.995.906.906 0 00.995.198.916.916 0 00.563-.843.913.913 0 00-.913-.913zm14.956 0a.915.915 0 00-.843.563.918.918 0 00.198.995.906.906 0 00.995.198.908.908 0 00.563-.843.912.912 0 00-.884-.913h-.029zm14.942 0a.913.913 0 10.029 0h-.029zm14.956 0a.914.914 0 00-.913.913.912.912 0 10.913-.913zm14.651 0a.896.896 0 00-.608.855.91.91 0 001.113.89.921.921 0 00.466-.267c-.289-.435-.608-.928-.942-1.42l-.029-.058zm-81.939 31.114a.928.928 0 00-.913.913.917.917 0 00.913.913.913.913 0 00.913-.913.91.91 0 00-.884-.855l-.029-.058zm14.956 0a.912.912 0 10.913.913.914.914 0 00-.884-.855l-.029-.058zm14.956 0a.912.912 0 10.913.913.914.914 0 00-.884-.855l-.029-.058zm14.956 0a.912.912 0 10.913.913.923.923 0 00-.28-.595.922.922 0 00-.604-.26l-.029-.058zm14.942 0a.932.932 0 00-.642.271.932.932 0 00-.271.642.914.914 0 001.826 0 .915.915 0 00-.884-.855l-.029-.058zm14.956 0a.914.914 0 00-.646 1.559.914.914 0 001.559-.646.915.915 0 00-.884-.855l-.029-.058zm-67.288-10.391a.913.913 0 100 1.828.913.913 0 000-1.828zm14.956 0a.916.916 0 00-.843.564.914.914 0 001.193 1.193.912.912 0 00.563-.844.913.913 0 00-.913-.855v-.058zm14.956 0a.916.916 0 00-.843.564.914.914 0 001.193 1.193.904.904 0 00.409-.337.906.906 0 00.154-.507.916.916 0 00-.884-.855l-.029-.058zm14.942 0a.914.914 0 10.913.913.917.917 0 00-.884-.855l-.029-.058zm14.956 0a.911.911 0 00-.913.913.914.914 0 00.913.913.912.912 0 100-1.826zm14.956 0a.914.914 0 10.913.913.917.917 0 00-.884-.855l-.029-.058zm-82.244 31.187a.912.912 0 100 1.824.912.912 0 000-1.824zm14.956 0a.916.916 0 00-.843.564.913.913 0 101.756.349.914.914 0 00-.884-.855l-.029-.058zm14.956 0a.916.916 0 00-.843.564.913.913 0 101.756.349.914.914 0 00-.884-.855l-.029-.058zm14.956 0a.912.912 0 100 1.824.912.912 0 000-1.824zm14.942 0a.914.914 0 00-.646 1.559.914.914 0 001.291-1.292.912.912 0 00-.645-.267zm14.956 0a.914.914 0 10.913.913.915.915 0 00-.884-.855l-.029-.058zm-82.229-10.391a.913.913 0 00-.913.913.919.919 0 00.221.719.904.904 0 00.685.309.925.925 0 00.685-.309.928.928 0 00.22-.719.912.912 0 00-.869-.855l-.029-.058zm14.941 0a.913.913 0 00-.913.913.928.928 0 00.913.913.913.913 0 00.913-.913.911.911 0 00-.884-.855l-.029-.058zm14.956 0a.913.913 0 10.913.913.913.913 0 00-.913-.855v-.058zm14.956 0a.913.913 0 10.913.913.916.916 0 00-.884-.855l-.029-.058zm14.942 0a.912.912 0 10.03 1.824.912.912 0 00-.03-1.824zm14.956 0a.911.911 0 00-.913.913.932.932 0 00.271.642c.171.17.401.267.642.271a.912.912 0 00.913-.913.915.915 0 00-.841-.855l-.072-.058zm14.956 0a.911.911 0 00-.913.913.914.914 0 00.913.913.912.912 0 00.913-.913.917.917 0 00-.884-.855l-.029-.058zm-97.156 31.231a.913.913 0 100 1.827.913.913 0 000-1.827zm14.941 0a.912.912 0 100 1.824.912.912 0 000-1.824zm14.956 0a.915.915 0 00-.843.563.918.918 0 00.198.995.906.906 0 00.995.198.916.916 0 00.563-.843.914.914 0 00-.913-.913zm14.956 0a.915.915 0 00-.843.563.918.918 0 00.198.995.906.906 0 00.995.198.916.916 0 00.563-.843.913.913 0 00-.913-.913zm14.956 0a.912.912 0 100 1.824.912.912 0 000-1.824zm14.942 0a.914.914 0 00-.913.913.912.912 0 10.913-.913zm14.956 0a.916.916 0 00-.646 1.558.912.912 0 10.646-1.558zm14.956 0a.916.916 0 00-.646 1.558.909.909 0 00.995.198.91.91 0 00.296-1.489.912.912 0 00-.645-.267zm-97.185-10.391a.909.909 0 00-.854.553.917.917 0 001.185 1.205.914.914 0 00-.331-1.758zm14.941 0a.912.912 0 100 1.824.912.912 0 000-1.824zm14.956 0a.908.908 0 00-.843.563.918.918 0 00.198.995.906.906 0 00.995.198.916.916 0 00.563-.843.902.902 0 00-.277-.656.9.9 0 00-.665-.257h.029zm14.956 0a.908.908 0 00-.843.563.918.918 0 00.198.995.906.906 0 00.995.198.908.908 0 00.563-.843.914.914 0 00-.913-.913zm14.942 0a.91.91 0 00-.646 1.558.912.912 0 10.646-1.558zm14.956 0a.914.914 0 00-.913.913.912.912 0 10.913-.913zm14.956 0a.911.911 0 00-.646 1.558.912.912 0 10.646-1.558zM98.558 233.1a.915.915 0 00-.844.563.915.915 0 00.666 1.245.916.916 0 001.091-.895.912.912 0 00-.913-.913zm14.941 0a.904.904 0 00-.718.22.908.908 0 00-.309.685.902.902 0 00.309.685.911.911 0 00.718.221.917.917 0 00.947-.53.902.902 0 000-.751.908.908 0 00-.947-.53zm14.956 0a.915.915 0 00-.843.563.918.918 0 00.198.995.906.906 0 00.995.198.916.916 0 00.563-.843.914.914 0 00-.913-.913zm14.956 0a.915.915 0 00-.843.563.918.918 0 00.198.995.906.906 0 00.995.198.916.916 0 00.563-.843.913.913 0 00-.913-.913zm-37.375-10.406a.913.913 0 100 1.826.913.913 0 000-1.826zm14.941 0a.929.929 0 00-.913.913.915.915 0 00.913.913.913.913 0 100-1.826zm14.956 0a.913.913 0 10.33.061.914.914 0 00-.359-.061h.029zm14.956 0a.913.913 0 100 1.828.913.913 0 000-1.828zm14.942 0a.912.912 0 00-.899.913.919.919 0 00.221.719.914.914 0 001.591-.719.909.909 0 00-.268-.645.909.909 0 00-.645-.268zm14.956 0a.929.929 0 00-.913.913.914.914 0 00.913.913.912.912 0 00.661-1.543.913.913 0 00-.618-.283h-.043zm14.956 0a.913.913 0 00-.392 1.739l1.102-.261a.874.874 0 00.203-.565.909.909 0 00-.268-.645.909.909 0 00-.645-.268zM91.08 243.49a.915.915 0 00-.646 1.559.914.914 0 10.646-1.559zm14.956 0a.917.917 0 00-.913.913.25.25 0 000 .102l1.768-.348a.9.9 0 00-.855-.667z" fill="#fff"/><path d="M246.972 292.198a196.153 196.153 0 01-23.622 15.072l-37.129-46.505 60.751 31.433zm215.847 18.651c-2.826 1.087-5.594 2.406-8.347 3.652-2.754 1.247-5.449 2.449-8.174 3.71-5.551 2.551-11.058 5.217-16.565 7.855-11.072 5.304-22.071 10.753-33.071 16.187-6.159 3.044-12.26 6.203-18.405 9.29a.125.125 0 00-.037.061.119.119 0 00.054.126.115.115 0 00.07.016 2397.837 2397.837 0 0033.173-15.028 1261.387 1261.387 0 0033.187-15.942 612.643 612.643 0 009.086-4.681c3.044-1.608 6.189-3.173 9.145-4.941.13-.131.029-.377-.116-.305zm-45.476-36.433c-2.348-1.942-52.172-31.882-62.969-38.027a820.364 820.364 0 00-32.506-17.564c-10.97-5.609-22.057-10.913-33.332-15.768-11.275-4.854-22.492-9.318-34.085-13.042l-4.435-1.45c-.145 0-.203.16 0 .218 5.797 2.014 11.594 4.449 17.318 6.782a448.683 448.683 0 0116.84 7.246c11.174 4.985 22.173 10.318 33.057 15.941a879.97 879.97 0 0132.158 17.478c10.594 6.043 21.26 12.318 31.782 18.636 5.188 3.131 34.433 19.391 35.882 19.985.232.116.536-.232.29-.435z" fill="#263238"/><path d="M329.506 332.515c-5.247-2.899-10.609-5.58-15.942-8.348-5.333-2.768-10.695-5.434-16.072-8.086a2053.602 2053.602 0 00-32.085-15.579c-6.073-2.899-12.174-5.797-18.42-8.362a.113.113 0 00-.077.007.114.114 0 00-.065.13c.005.026.02.049.041.066 5.159 3.014 10.535 5.797 15.941 8.434 5.406 2.638 10.739 5.377 16.115 8.058 10.638 5.289 21.275 10.608 32.057 15.622 6.101 2.826 12.202 5.797 18.362 8.42.188.116.391-.232.145-.362z" fill="#263238"/><path d="M207.684 121.12c.957 2.898 6.783 18.694 14.768 25.853a31.675 31.675 0 0022.144 8.362c13.043-.145 16.666-10.014 9.941-13.869-7.985-4.579-16.535-8.072-20.796-11.593-5.203-4.348-11.594-13.405-12.825-14.71-2.595-2.753-14.435 2.406-13.232 5.957z" fill="#FFC4C0"/><path d="M207.684 121.12a97.106 97.106 0 007.144 15.651 49.329 49.329 0 004.884 7.058 29.676 29.676 0 006.377 5.666 31.242 31.242 0 0015.941 5.319 23.38 23.38 0 008.362-.841 19.784 19.784 0 001.942-.768 11.97 11.97 0 001.739-1.087 7.89 7.89 0 002.594-3.029 5.286 5.286 0 00.392-3.811 5.42 5.42 0 00-2.377-3.043c-2.362-1.45-4.971-2.797-7.492-4.131-2.522-1.333-5.102-2.637-7.623-4.028a34.995 34.995 0 01-7.145-4.928 113.263 113.263 0 01-11.058-13.245 2.794 2.794 0 00-1.623-1.261 5.775 5.775 0 00-2.116-.116c-1.424.162-2.82.523-4.144 1.072a16.925 16.925 0 00-3.768 2.044 7.21 7.21 0 00-1.536 1.449 2.222 2.222 0 00-.493 2.029zm0 0a2.256 2.256 0 01.478-2.015 7.239 7.239 0 011.536-1.521 16.66 16.66 0 013.754-2.087 15.343 15.343 0 014.159-1.116 6.008 6.008 0 012.159.101 2.988 2.988 0 011.725 1.29 108.457 108.457 0 0011.289 12.942 33.442 33.442 0 007.13 4.666c2.537 1.348 5.131 2.58 7.696 3.869 2.565 1.29 5.116 2.565 7.637 4.116a6.463 6.463 0 012.812 3.594 6.38 6.38 0 01-.406 4.565 8.887 8.887 0 01-2.899 3.42c-.606.436-1.246.824-1.912 1.16-.696.26-1.45.608-2.087.797a24.292 24.292 0 01-8.696.84 31.619 31.619 0 01-16.202-5.797 30.187 30.187 0 01-6.333-5.883 52.69 52.69 0 01-4.754-7.246 97.272 97.272 0 01-7.086-15.695z" fill="#263238"/><path d="M221.408 116.091c.681-1.609.623-6.246 1.305-7.391.681-1.145 3.072-3.565 1.449-4.594-1.623-1.029-4.739 3.029-5.435 3.956-.695.928-3.478-10.477-6.188-9.869-2.71.609 0 8.217-.594 8.348-.594.13-4.159-7.493-6.42-6.71-2.261.782 2.377 8.594 2.203 8.695-.174.101-1.624-6.608-3.739-6.318-2.116.289 1.275 8.956.913 9.144-.363.188-3.841-3.942-5.391-2.507-1.551 1.435 4.536 7.144 4.999 7.724.464.58 3.174 5.623 4.348 5.913 1.174.29 12.072-5.261 12.55-6.391z" fill="#FFC4C0"/><path d="M217.249 110.309a22.108 22.108 0 00-5.478 1.362 20.849 20.849 0 00-4.869 2.898c-.116.087 0 .276.115.189 1.527-1.091 3.176-2 4.913-2.71a22.985 22.985 0 015.348-1.609c.101.058.072-.145-.029-.13zm-9.985-2.711a70.764 70.764 0 01-.638-1.623c-.203-.536-.42-1-.652-1.449a14.52 14.52 0 01-.71-1.536c-.073-.174-.131-.174-.102 0a27.163 27.163 0 001.058 3.13c.232.522.479 1.029.739 1.536.261.508.522 1.087.855 1.595h.131c-.188-.653-.464-1.16-.681-1.653z" fill="#263238"/><path d="M243.248 134.989l-10.652 19.071s8.768 3.696 16.565 1.362c7.797-2.333 14.825-9.13 4.681-14.999a69.868 69.868 0 00-10.594-5.434z" fill="#BB96DE"/><path d="M241.19 146.321c1.608-2.898 2.898-5.913 4.492-8.854a.113.113 0 00-.015-.07.12.12 0 00-.054-.048.119.119 0 00-.134.031c-1.565 2.898-3.318 5.608-4.869 8.478-1.551 2.869-3.13 5.695-4.464 8.695 0 0 0 .072.073 0a89.311 89.311 0 004.971-8.232zm12.188-6.115a43.418 43.418 0 00-2.348-1.45c.377.145.739.276 1.116.392v-.087c-.391-.189-.797-.334-1.203-.493l-.884-.362c-.565-.319-1.13-.652-1.695-.957a46.231 46.231 0 00-2.652-1.376c-.899-.421-2.45-1.218-2.479-1.174-.029.043-.188.405-.275.536-.087.13 0 .246.101.13l.189-.275c.319.232 1.797 1.029 2.246 1.246l2.609 1.247c1.753.869 3.478 1.797 5.188 2.739.072 0 .13-.087.087-.116z" fill="#263238"/><path d="M245.914 156.408a21.732 21.732 0 004.044-1v-.102c-2.893.69-5.872.949-8.841.769a25.183 25.183 0 01-8.492-1.87c-.13 0-.232.145-.101.203a26.604 26.604 0 008.564 2.217c1.184.063 2.371.039 3.551-.072h1.188c.628 0 1.253-.058 1.87-.174-.623.058-1.203.043-1.783.029z" fill="#263238"/><path d="M196.771 194.841c-.724.188-5.014 4.347-6.449 4.101-1.434-.247-16.927-25.318-13.927-27.825 3.247-2.695 13.42 7.043 13.84 6.391 0 0 3.855-6.521 13.609-13.304 8.101-5.637 13.129-6.796 23.39-5.912 14.869 1.275 18.289 19.404 7.42 27.81-2.899 2.29-19.492 3.884-24.927 5.043-4.405.957-12.738 3.652-12.956 3.696z" fill="#FFC4C0"/><path d="M196.771 194.884c-1.521.942-2.898 2.275-4.347 3.275a7.614 7.614 0 01-1.218.667 1.758 1.758 0 01-.681.188c-.26.073-.478-.188-.623-.333a20.44 20.44 0 01-1.71-2.159c-2.13-2.986-4.072-6.087-5.942-9.246a86.638 86.638 0 01-5.043-9.782 14.73 14.73 0 01-1.449-5.406c.011-.264.069-.525.174-.768.129-.256.33-.467.579-.609.444-.245.943-.37 1.45-.362a7.495 7.495 0 012.739.768c3.391 1.565 6.188 4.044 9.173 6.058l.261.145s.102 0 0 0c-.101 0 0-.073.073-.102l.391-.579c.261-.377.536-.739.811-1.102a36.234 36.234 0 011.754-2.13 51.943 51.943 0 013.869-3.913 70.986 70.986 0 018.696-6.724 29.066 29.066 0 0110.028-4.449 39.994 39.994 0 0111-.406 15.418 15.418 0 0110.144 4.188 15.156 15.156 0 014.507 10.014 16.862 16.862 0 01-2.985 10.608c-.609.71-1.145 1.45-1.826 2.131l-1.043.942a5.038 5.038 0 01-1.145.855 20.631 20.631 0 01-5.348 1.608c-3.594.725-7.246 1.218-10.855 1.71a104.055 104.055 0 00-10.811 1.797c-3.579.957-7.072 2.029-10.623 3.116zm0-.072c3.479-1.116 6.986-2.203 10.507-3.174a98.272 98.272 0 0110.797-2.058c3.623-.565 7.246-1.13 10.797-1.913 1.763-.325 3.48-.86 5.115-1.594a4.013 4.013 0 001.029-.783l1-.898c.638-.623 1.16-1.362 1.739-2.043a16.263 16.263 0 002.899-10.145 14.495 14.495 0 00-4.232-9.565 15.02 15.02 0 00-9.681-4.13 39.135 39.135 0 00-10.883.247 28.75 28.75 0 00-9.956 4.275 57.825 57.825 0 00-8.696 6.695 48.895 48.895 0 00-3.797 3.942c-.594.681-1.174 1.449-1.71 2.116l-.797 1.116-.362.565-.131.174c-.13.174-.26 0-.376 0a2.02 2.02 0 01-.348-.174 67.572 67.572 0 00-9.174-5.927 7.01 7.01 0 00-2.536-.667c-.4-.021-.798.075-1.145.275a.896.896 0 00-.348.348c-.071.18-.105.372-.101.565a15.23 15.23 0 001.449 5.116 104.397 104.397 0 004.855 9.796c1.783 3.203 3.652 6.348 5.696 9.377a18.607 18.607 0 001.666 2.159c.275.42.739.304 1.159.131.416-.18.814-.399 1.189-.653 1.478-.913 2.811-2.217 4.376-3.173z" fill="#263238"/><path d="M228.219 156.524c.508-.45 10.623 5.594 21.869 8.695 13.637 3.855 22.68 3.217 23.318 3.898 1.29 1.45-.667 3.174-.739 3.522-.072.348.71 14.709-5.42 22.578-6.13 7.87-24.419 4.348-34.013 0-9.594-4.347-25.434-19.144-5.377-36.491.131-.057-.753-1.173.362-2.202z" fill="#EBEBEB"/><path d="M234.886 170.19c8.449-2.391 26.086-1.928 31.042 6.376 4.957 8.304 2.29 19.318-8.927 23.999-5.797 2.391-19.014.333-19.014.333s-20.535 5.797-28.984 1.45c-4.565-2.334-8.696-12.811-.449-19.13a72.046 72.046 0 0126.332-13.028z" fill="#6D818A"/><path d="M207.858 201.594c-5.116-2.333-9.377-26.897-3.043-27.955 5.101-.855 16.68 14.579 14.1 21.926-1.695 4.899-7.478 7.681-11.057 6.029z" fill="#6D818A"/><path d="M217.061 184.943a34.484 34.484 0 00-4.899-7.449c-1.594-1.754-4.058-3.913-6.536-4.087a3.143 3.143 0 00-2.348.739c-1.246 1.072-1.739 4.203-1.797 5.406a40.406 40.406 0 000 4.347c.184 2.798.67 5.567 1.45 8.261a32.483 32.483 0 001.376 3.999c.58 1.45 1.015 1.971.638.754-.377-1.217-.609-2.58-.927-3.724a45.5 45.5 0 01-1.45-7.377 46.715 46.715 0 01-.232-7.116c.073-1.753.769-4.347 2.406-4.811a4.155 4.155 0 012.768.841 16.856 16.856 0 015.203 5.072 74.407 74.407 0 014.043 6.478c1.449 2.435 2.536 4.985 3.826 7.478 0 .13.275 0 .232-.116a45.998 45.998 0 00-3.753-8.695zm33.201 7.072a23.604 23.604 0 01-5.608 5.26 39.453 39.453 0 01-3.189 1.899 20.254 20.254 0 01-3.652 1.681c-.144 0 0 .261 0 .217.667-.174 1.348-.261 2-.478a21.245 21.245 0 001.899-.754 16.977 16.977 0 003.333-2.014 23.336 23.336 0 005.246-5.797s0-.072-.029-.014z" fill="#263238"/><path d="M231.842 171.19a72.194 72.194 0 00-9.68 3.536 68.17 68.17 0 00-4.71 2.391 22.073 22.073 0 00-4.232 2.652c-.087.072 0 .217.116.188a42.92 42.92 0 004.434-2.318c1.45-.768 2.899-1.45 4.45-2.203 3.159-1.449 6.376-2.899 9.666-4.116l-.044-.13z" fill="#263238"/><path d="M272.391 169.914c-17.39 2.087-42.621-11.144-43.23-13.13 0 0 2.391-4.651 5.029-9.564s5.652-10.348 6.579-11.188c0 0 1.45-2.058 1.45-2.087 1.449-.899 24.636 0 27.752 5 5.42 8.695 4.812 25.839 3.261 29.853-.246.653-.536 1.116-.841 1.116z" fill="#FFC4C0"/><path d="M252.784 147.539a1.131 1.131 0 00-1.044-1.203 1.31 1.31 0 00-.94.245c-.269.2-.452.496-.509.827a.884.884 0 00.783.971c.101.075.213.134.333.174a1.162 1.162 0 001.377-1.014zm-12.696-4.667a1.116 1.116 0 00-1.043-1.203 1.305 1.305 0 00-1.449 1.073.87.87 0 00.782.971c.102.075.214.133.334.174.157.031.32.029.477-.007.157-.035.305-.102.434-.198a1.142 1.142 0 00.465-.81zm-3.043 12.173a.115.115 0 00-.041-.035.11.11 0 00-.053-.013.11.11 0 00-.053.013.115.115 0 00-.041.035 2.792 2.792 0 00-.232.464c0 .087-.174.348-.319.319-.145-.029-.174-.304-.145-.42.13-.535.443-1.006.884-1.334a.103.103 0 00.02-.056.103.103 0 00-.062-.097.099.099 0 00-.059-.006c-.609.362-1.884 1.449-1.247 2.275a.753.753 0 001.015.102 1.088 1.088 0 00.333-1.247z" fill="#263238"/><path d="M241.943 134.655a4.724 4.724 0 003.537 6.217c5.173 1.609 9.695-6.565 9.695-6.565s12.724 1.681 14.695 3.609c5.797 5.623 5.507 31.201 5.507 31.201s-30.173-3.072-45.926-14.231c0 0 9.087-17.84 12.492-20.231z" fill="#BB96DE"/><path d="M274.232 133.032c-7.536 6.768-17.014 6.565-22.042 5.536-7.797-1.594-27.738-9.492-26.579-24.158.768-9.913 11.594-29.158 18.333-32.622 9.42-4.84 27.665-.956 37.201 10.87 7.666 9.506.638 33.577-6.913 40.374z" fill="#FFC4C0"/><path d="M255.755 103.251a12.505 12.505 0 01-1.449-1.188 3.061 3.061 0 01-1.247-1.45.967.967 0 01.551-1.028 2.376 2.376 0 012.333.594 3.544 3.544 0 011.377 2.115 1.018 1.018 0 01-1.025 1.123 1.015 1.015 0 01-.54-.166zM237.524 95.7c.608.118 1.223.2 1.84.247a2.985 2.985 0 001.913-.116.925.925 0 00.392-1.087 2.397 2.397 0 00-2.015-1.304 3.479 3.479 0 00-2.464.434 1.017 1.017 0 00-.167 1.538c.136.142.31.243.501.288zm9.13 19.898a6.27 6.27 0 01-.102.797c-.188 1.073-.768 2.899-2.507 2.899a2.97 2.97 0 01-1.782-.667 8.024 8.024 0 01-2.189-3.348 7.326 7.326 0 006.58.319z" fill="#263238"/><path d="M246.552 116.395c-.188 1.073-.768 2.899-2.507 2.899a2.973 2.973 0 01-1.783-.667 4.345 4.345 0 012.073-1.783 4.722 4.722 0 012.217-.449z" fill="#E191D0"/><path d="M252.407 105.193c3 1.188.406 7.086-2.362 5.985-2.768-1.101-.145-6.971 2.362-5.985zM238.306 99.6c-2.449-1.363-5.275 4.158-3 5.419 2.275 1.261 5.073-4.275 3-5.42z" fill="#263238"/><path d="M243.755 100.512c-1.869 3.493-1.072 2.304-3.101 5.71-.826-.247-4.551-1.594-4.348-1.174a36.89 36.89 0 002.652 4.724c-.797.826-2.898 1.247-2.826 1.363 2.797 6.362 8.319 5.536 10.435 4.623.434-.189.304-.232 0-.174-1.957.492-7.16.376-9.188-4.029a5.604 5.604 0 002.26-1.551c0-.087-1.55-2.681-2.101-3.956 1.145.362 2.507.913 3.348 1.188.203.073 1.884-2.594 3.202-6.594a.176.176 0 00-.002-.137.184.184 0 00-.099-.095.18.18 0 00-.232.102zm-2.058 33.839c-2-1.333-4.246-2.217-6.217-3.638a32.213 32.213 0 01-5.203-4.724 21.89 21.89 0 01-4.028-6.232v.087a17.653 17.653 0 002.985 5.913 25.825 25.825 0 004.464 4.783 28.633 28.633 0 005.637 3.594c2.275 1.13 5.058 2.376 5.362 5.26h.116a6.204 6.204 0 00-3.116-5.043z" fill="#263238"/><path d="M264.218 119.83s7.246-5.362 11.463-3.623c4.522 1.84 1.768 10.347-2.797 12.304-5.347 2.318-10.144-1.609-10.144-1.609l1.478-7.072z" fill="#FFC4C0"/><path d="M272.131 120.337a11.366 11.366 0 012.782-.536.114.114 0 00.047-.037.106.106 0 000-.114.109.109 0 00-.047-.038c-3.768-.159-8.202 1.87-9.405 5.797a.13.13 0 00.067.135.134.134 0 00.078.015.13.13 0 00.072-.034l.681-.84a7.375 7.375 0 013.015-1.45 6.26 6.26 0 013.377.392c.13 0 .188-.131.072-.189a6.309 6.309 0 00-5.188-.304 10.538 10.538 0 012.188-1.782 12.224 12.224 0 012.275-1.015m-8.478 6.811s.028.014 0 0z" fill="#263238"/><path d="M221.191 168.233c2.898.696 19.448 4.159 29.752 1.189a31.698 31.698 0 0018.84-14.319c6.768-11.086.362-19.433-6.478-15.781-8.116 4.347-15.608 9.738-20.854 11.492-6.391 2.13-17.521 2.739-19.275 3.072-3.724.696-5.637 13.463-1.985 14.347z" fill="#FFC4C0"/><path d="M221.191 168.233a96.551 96.551 0 0017.057 2.232 48.435 48.435 0 008.579-.391 29.89 29.89 0 008.189-2.391 31.263 31.263 0 0012.956-10.724 22.826 22.826 0 003.695-7.536c.162-.674.288-1.356.377-2.044.058-.684.058-1.373 0-2.058a7.928 7.928 0 00-1.203-3.811 5.26 5.26 0 00-3.014-2.333 5.42 5.42 0 00-3.855.391c-2.507 1.217-5 2.725-7.464 4.159-2.463 1.435-4.942 2.899-7.463 4.348a34.198 34.198 0 01-7.971 3.435 111.535 111.535 0 01-17.086 2.347 2.782 2.782 0 00-1.928.71 5.821 5.821 0 00-1.232 1.725 15.634 15.634 0 00-1.289 4.087 16.924 16.924 0 00-.247 4.275 6.89 6.89 0 00.45 2.101 2.266 2.266 0 001.449 1.478zm0 0a2.34 2.34 0 01-1.449-1.449 7.325 7.325 0 01-.464-2.087 17.116 17.116 0 01.217-4.347 15.215 15.215 0 011.261-4.116c.3-.664.717-1.268 1.232-1.783a2.984 2.984 0 012.014-.768 108.963 108.963 0 0016.956-2.71 33.688 33.688 0 007.739-3.565c2.478-1.449 4.898-2.985 7.362-4.478 2.464-1.492 4.884-2.985 7.536-4.347a6.45 6.45 0 014.536-.479 6.292 6.292 0 013.652 2.768 8.88 8.88 0 011.333 4.348c.058.748.058 1.499 0 2.246-.145.725-.217 1.449-.42 2.189a24.283 24.283 0 01-3.913 7.811 31.693 31.693 0 01-13.521 10.68 30.45 30.45 0 01-8.348 2.247 53.621 53.621 0 01-8.622.203 97.903 97.903 0 01-17.101-2.363z" fill="#263238"/><path d="M224.205 153.973c-1-1.449-4.971-3.84-5.565-5.014-.594-1.174-1.449-4.493-3.159-3.623-1.71.869 0 5.623.464 6.71.463 1.087-10.725-2.623-11.594 0-.87 2.623 6.942 4.347 6.768 4.927-.174.58-8.551-.449-9.087 1.884-.536 2.333 8.536 2.55 8.522 2.724-.015.174-6.464-2.115-7.348-.173-.884 1.941 8.275 3.666 8.246 4.086-.029.421-5.377 1.16-4.985 3.232.391 2.072 8.449 0 9.188-.145.739-.145 6.463.29 7.362-.594.898-.884 1.898-13.057 1.188-14.014z" fill="#FFC4C0"/><path d="M224.205 153.973a52.377 52.377 0 00-4.869-4.014 3.246 3.246 0 01-1-1.29l-.638-1.449a5.567 5.567 0 00-.782-1.304 1 1 0 00-1.131-.421c-.84.261-.826 1.45-.681 2.449.167 1.015.434 2.01.797 2.971l.275.739.073.174a.564.564 0 010 .174.376.376 0 01-.087.363c-.362.304-.478.188-.652.231a13.596 13.596 0 01-1.623-.173l-3.116-.522c-1.044-.145-2.072-.29-3.101-.348a5.1 5.1 0 00-2.754.377.707.707 0 00-.188.869c.204.392.509.722.884.957a12.82 12.82 0 002.695 1.449l1.449.58.754.304.391.174c.194.095.367.228.508.391 0 0 .188.464 0 .609a.604.604 0 01-.203.217h-.116a.816.816 0 01-.305.087h-2.84a26.789 26.789 0 00-3.087.218 7.558 7.558 0 00-1.449.318 1.702 1.702 0 00-.957.624c-.101.231 0 .347.305.637.407.246.846.436 1.304.565.99.268 1.997.466 3.014.595 1.029.145 2.058.231 3.131.362h.391a.57.57 0 01.319.464c.072.13-.247.579-.478.536h-.232l-.421-.102-.768-.202-1.449-.363a10.571 10.571 0 00-2.971-.29 1.276 1.276 0 00-1 .435v.261c.119.165.266.307.435.42.863.528 1.788.946 2.754 1.247.971.347 1.97.652 2.985.971.507.159 1 .289 1.551.507.092.044.179.098.26.159a.489.489 0 01.076.626.496.496 0 01-.162.157 2.163 2.163 0 01-.45.188l-.768.247a11.111 11.111 0 00-2.898 1.144c-.87.479-1.116 1.537 0 1.71a9.25 9.25 0 003.043 0c1.044-.086 2.072-.26 3.101-.449l1.551-.29a5.491 5.491 0 011.609 0c1.058 0 2.101.073 3.159 0a6.875 6.875 0 003.072-.521 6.929 6.929 0 01-3.072.652c-1.043 0-2.101.072-3.159.072a5.952 5.952 0 00-1.536.116l-1.537.363c-1.029.231-2.072.449-3.13.594a9.77 9.77 0 01-3.246 0 1.968 1.968 0 01-.841-.406 1.154 1.154 0 01-.362-.971 2.052 2.052 0 011.014-1.449 11.994 11.994 0 012.986-1.305l.739-.246c.097-.032.189-.076.275-.13a.333.333 0 00-.075.113.336.336 0 000 .266.333.333 0 00.075.113c-.435-.173-.971-.304-1.449-.449a23.713 23.713 0 01-6.043-2.246 2.592 2.592 0 01-.696-.681 1.176 1.176 0 010-1.232 2.133 2.133 0 011.71-.928 11.63 11.63 0 013.29.29c.536.102 1.043.218 1.565.348l.768.188.348.087c-.217 0-.507.392-.435.508a.474.474 0 00.276.434h-.102c-1.014-.101-2.087-.188-3.145-.333a20.378 20.378 0 01-3.173-.609 5.68 5.68 0 01-1.595-.695 1.872 1.872 0 01-.724-.797 1.443 1.443 0 010-1.232c.36-.567.926-.972 1.579-1.13a8.283 8.283 0 011.638-.363 30.345 30.345 0 013.217-.203h2.681a.326.326 0 00-.13.145.517.517 0 000 .276c0 .145 0 .145.072.159.073.015 0 0-.145 0l-.333-.145-.71-.304-1.449-.594a14.984 14.984 0 01-2.899-1.537 3.598 3.598 0 01-1.188-1.376 1.667 1.667 0 01.493-1.971 3.387 3.387 0 011.739-.551c.55-.044 1.102-.044 1.652 0 1.065.086 2.125.231 3.174.435l3.101.579c.478.098.962.166 1.449.203h.087c-.174 0 0 .305 0 .16l-.072-.189-.261-.753a17.403 17.403 0 01-.768-3.13 5.356 5.356 0 010-1.667 1.636 1.636 0 011.13-1.362 1.444 1.444 0 011.623.637c.334.443.602.931.797 1.45.45.999.609 2.043 1.45 2.695a49.855 49.855 0 014.637 4.333z" fill="#263238"/><path d="M251.538 145.655l10.289 19.26s7.855-5.377 10.145-13.203c2.289-7.825.318-17.39-10.145-12.028-8.203 4.232-10.289 5.971-10.289 5.971z" fill="#BB96DE"/><path d="M259.957 153.495c-1.565-2.899-3.376-5.681-5.028-8.55 0-.131-.261 0-.189.115 1.565 2.899 2.899 5.797 4.507 8.696 1.609 2.898 3.102 5.71 4.899 8.434 0 0 .087 0 0 0a91.772 91.772 0 00-4.189-8.695zm1.435-13.55c-.841.377-1.681.768-2.507 1.174.319-.232.638-.479.927-.725v-.072c-.362.231-.71.492-1.058.753l-.782.551c-.58.29-1.16.58-1.725.898-.869.479-1.753.957-2.579 1.45-.826.492-2.363 1.449-2.334 1.449.029 0 .232.376.305.521.072.145.217.116.159 0l-.13-.304c.362-.145 1.84-.956 2.261-1.217.826-.507 1.637-1.029 2.463-1.522 1.667-1.014 3.377-1.956 5.101-2.898 0 .014-.043-.073-.101-.058z" fill="#263238"/><path d="M271 154.973a21.701 21.701 0 001.348-3.942s-.087-.087-.101 0a30.828 30.828 0 01-4.131 7.855 25.543 25.543 0 01-6.159 6.144c-.13.073 0 .276.116.189a26.448 26.448 0 006.493-6.014 26.284 26.284 0 001.855-3.029l.174-.218.536-.724a9.23 9.23 0 00.855-1.681c-.333.42-.652.927-.986 1.42z" fill="#263238"/><path d="M148.165 102.758c-6.101 3.116-4.435 11.42 1.666 19.608 8.203 11.014 28.333 20.028 30.796 18.39 2.464-1.637-6.492-25.564-13.898-32.056-7.405-6.493-16.608-6.898-18.564-5.942z" fill="#FFC4C0"/><path d="M147.15 106.149c0 2.145 6.724 17.521 16.101 19.173 3.058.536 6.739-15.941 6.739-15.941l.55-1.159 7.681-16.246-19.695-19.796s-11.376 33.013-11.376 33.969z" fill="#FFC4C0"/><path d="M178.222 91.86l-7.696 16.231a36.11 36.11 0 01-15.782-24.709c1.942-5.797 3.58-10.521 3.812-11.217v-.101l2.521 2.362 17.145 17.434z" fill="#263238"/><path d="M209.814 73.63c-4.347 31.215-23.607 32.099-30.332 31.143-6.115-.87-26.81-4.609-25.651-36.114 1.159-31.506 17.072-39.332 31.158-38.086 14.087 1.247 29.26 11.812 24.825 43.056z" fill="#FFC4C0"/><path d="M206.017 70.252c-.71-.246-1.319-.58-1.985-.884a3.475 3.475 0 01-1.855-1.29 1.127 1.127 0 01.275-1.347 2.814 2.814 0 012.899 0 4.086 4.086 0 012.202 1.942 1.202 1.202 0 01-1.536 1.58zm-21.013-4.188c.724.044 1.45.044 2.174 0a3.49 3.49 0 002.231-.42 1.1 1.1 0 00.276-1.333 2.75 2.75 0 00-2.536-1.203 4.073 4.073 0 00-2.812.87 1.206 1.206 0 00-.339 1.258 1.204 1.204 0 001.006.828zm4.086 5.479c0-.087-.174 0-.188.144-.333 2.13-1.072 4.507-3.116 4.84v.117c2.391.116 3.333-3.044 3.304-5.102z" fill="#263238"/><path d="M187.627 68.977c-3.333-.898-4.898 5.797-1.797 6.696 3.101.898 4.608-5.942 1.797-6.696z" fill="#263238"/><path d="M186.221 69.035c-.681.246-1.449.783-2.13.696-.682-.087-1.305-.971-1.696-1.768 0-.087-.101 0-.13 0a2.52 2.52 0 001.217 3.231c1.232.479 2.406-.463 3.029-1.695.116-.16-.015-.565-.29-.464zm14.478 4.638c0-.073.145.13.116.217-.566 2.073-.855 4.55.869 5.696v.101c-2.275-.87-1.855-4.145-.985-6.014z" fill="#263238"/><path d="M203.09 71.934c3.42.55 2.072 7.347-1.087 6.84-3.159-.507-1.783-7.29 1.087-6.84z" fill="#263238"/><path d="M204.423 72.658c.464.464.855 1.232 1.449 1.45.594.217 1.45-.435 2.044-1.044.072 0 .116 0 .087.087-.218 1.304-.913 2.58-2.203 2.58-1.29 0-1.812-1.276-1.855-2.638.072-.275.29-.623.478-.435zM184.41 89.817c.362.609.666 1.45 1.449 1.696a5.958 5.958 0 002.377.101.07.07 0 01.029.027.066.066 0 01.011.038.066.066 0 01-.011.039.07.07 0 01-.029.026 2.898 2.898 0 01-2.899.392 2.31 2.31 0 01-1.116-2.29c-.043-.13.131-.13.189-.03zm10.724-5.84s-.247 3.231-.566 4.71c0 .13-.405.13-.913 0a7.16 7.16 0 01-6.246-4.102.157.157 0 01.006-.1.16.16 0 01.255-.06 10.797 10.797 0 006.014 3.233c.189-.377.247-5.536.479-5.507a12.79 12.79 0 013.188 1.449c.71-6.71.348-13.478 1.159-20.144a.203.203 0 01.406 0c.884 7.072.232 14.81-.319 21.738-.116.942-2.927-.783-3.463-1.218z" fill="#263238"/><path d="M192.931 88.02a8.16 8.16 0 01-3.666 1.855 3.782 3.782 0 01-2.203-.29c-1.449-.724-1.261-2.174-.725-3.348a8.822 8.822 0 011.073-1.753 10.517 10.517 0 005.521 3.536z" fill="#263238"/><path d="M189.265 89.875a3.782 3.782 0 01-2.203-.29c-1.449-.725-1.261-2.174-.725-3.348a3.767 3.767 0 012.928 3.638z" fill="#E191D0"/><path d="M153.469 70.325a13.05 13.05 0 0010.014-8.101 34.187 34.187 0 0016.463-6.797c-.391.55-3.203 4.638-4.695 6.666 20.289 2.116 30.622-10.84 30.622-10.84 4.347 8.087 4.463 12.435 4.768 14.695 0 0 3.652-11.767 0-21.462a19.861 19.861 0 00-15.232-13.043 28.347 28.347 0 00-28.984.29c-16.594 9.941-12.956 38.592-12.956 38.592z" fill="#263238"/><path d="M158.469 71.745s-4.493-11.13-9.391-9.753c-4.899 1.377-3.029 16.463 1.594 19.521a5.33 5.33 0 007.608-1.174l.189-8.594z" fill="#FFC4C0"/><path d="M149.701 66.31s-.116.073 0 .131c3.246 2.275 4.348 6.029 4.898 9.782a2.889 2.889 0 00-1.635-1.866 2.9 2.9 0 00-2.48.084c-.102 0 0 .217 0 .217a3.29 3.29 0 013.26 1.928 16.8 16.8 0 011.029 3.231c.087.363.71.32.667-.072a.182.182 0 000-.087c1.13-4.55-.942-11.768-5.739-13.347z" fill="#263238"/><path d="M117.253 413.177c1.449-4.608 77.258-110.893 82.707-113.11 2.072-.855 6.087-4.072 25.216 8.695l40.361-35.404 22.912 74.881-99.865 42.548s-47.245 27.709-53.491 29.506c-6.246 1.797-19.246-2.565-17.84-7.116z" fill="#FFC4C0"/><path d="M117.253 413.177c1.449-4.608 77.258-110.893 82.707-113.11 2.072-.855 6.087-4.072 25.216 8.695l40.361-35.404 22.912 74.881-99.865 42.548s-47.245 27.709-53.491 29.506c-6.246 1.797-19.246-2.565-17.84-7.116z" fill="#FFC4C0"/><path d="M229.263 373.498l-40.68 17.391s-47.244 27.694-53.476 29.505c-6.232 1.812-19.26-2.565-17.854-7.159 1.405-4.594 77.258-110.878 82.707-113.11 2.072-.855 6.086-4.072 25.216 8.695l4.261-3.753-.174 68.431z" fill="#9BABB1"/><path d="M220.335 373.774a26.852 26.852 0 017.928-7.333 27.372 27.372 0 01-7.928 7.333zm-.086-7.087a23.561 23.561 0 013.594-4.072 24.125 24.125 0 014.347-3.275 24.171 24.171 0 01-3.594 4.072 24.847 24.847 0 01-4.347 3.275zm-.087-7.101a23.561 23.561 0 013.594-4.072 24.125 24.125 0 014.347-3.275 23.598 23.598 0 01-3.594 4.072 24.125 24.125 0 01-4.347 3.275zm-.087-7.072a27.354 27.354 0 017.927-7.333 24.726 24.726 0 01-3.594 4.072 24.068 24.068 0 01-4.333 3.261zm-.116-7.116a27.14 27.14 0 017.927-7.347 24.171 24.171 0 01-3.594 4.072 24.806 24.806 0 01-4.333 3.275zm0-7.101a27.14 27.14 0 017.927-7.347 23.598 23.598 0 01-3.594 4.072 24.12 24.12 0 01-4.333 3.275zm-.145-7.101a24.04 24.04 0 013.594-4.058 23.495 23.495 0 014.348-3.275 24.772 24.772 0 01-3.594 4.072 24.046 24.046 0 01-4.348 3.261zm-.087-7.087a27.154 27.154 0 017.927-7.347 27.14 27.14 0 01-7.927 7.347zm-.087-7.101a24.813 24.813 0 013.594-4.072 24.093 24.093 0 014.348-3.261 27.354 27.354 0 01-7.927 7.333h-.015z" fill="#263238"/><path d="M421.661 266.663C409.416 300.342 239.292 378.02 239.292 378.02l-28.811-89.46 78.113-33.331-165.472-24.216 84.446-31.521s16.014 6.783 27.84 3.363c5.246-1.522 116.72-16.942 138.4-11.594 47.868 11.985 59.099 44.491 47.853 75.402z" fill="#37474F"/><path d="M327.52 234.853a86.534 86.534 0 00-9.608 4.696l-9.986 4.97h-.101l2.217-1.811c2.565-2.014 4.928-4.261 7.667-6.043.174-.116 0-.377-.16-.261-2.782 1.753-5.797 3.261-8.362 5.246a102.219 102.219 0 00-3.608 2.898c-.652.551-1.305 1.102-1.928 1.681-.275.261-.594.537-.869.841-1.449.797-3 1.594-4.493 2.435-3.29 1.855-6.434 3.97-9.739 5.796-.173.102 0 .348.16.261 3.261-1.637 6.666-3 9.927-4.594 3.261-1.594 6.594-3.405 9.84-5.202 3.246-1.797 6.319-3.551 9.493-5.304a89.077 89.077 0 009.651-5.478c.102.014.029-.174-.101-.131zm-78.852 121.704c-.725-2.55-1.449-5.087-2.232-7.623-1.521-5.057-3.029-10.144-4.579-15.187-3.087-10.058-6.174-20.13-9.478-30.115-1.87-5.652-3.725-11.318-5.797-16.883a.277.277 0 00-.33-.148.284.284 0 00-.154.118.279.279 0 00-.038.189c2.565 10.246 5.797 20.376 8.942 30.434 3.145 10.057 6.405 20.057 9.695 30.042.928 2.797 1.841 5.608 2.797 8.391.957 2.782 2.087 5.651 3.058 8.492a.12.12 0 00.042.055c.02.013.043.021.067.021a.123.123 0 00.066-.021.12.12 0 00.042-.055c-.782-2.58-1.376-5.174-2.101-7.71z" fill="#263238"/><path d="M570.67 371.803c-4.275 2.188-133.328 21.839-138.762 19.492-2.044-.899-7.145-1.537-11.29-24.188-.898-4.883-86.953-48.142-86.953-48.142l94.678-32.897 76.605 50.142s52.81 14.579 58.476 17.753c5.667 3.174 11.594 15.651 7.246 17.84z" fill="#FFC4C0"/><path d="M570.67 371.788c-4.347 2.218-133.328 21.869-138.763 19.507-2.043-.884-7.159-1.536-11.289-24.188-.261-1.347-6.869-5.535-16.362-10.941l85.925-29.636 14.767 9.666s52.81 14.608 58.476 17.767c5.667 3.159 11.594 15.637 7.246 17.825z" fill="#9BABB1"/><path d="M410.357 356.673a23.834 23.834 0 014.942 2.246 23.353 23.353 0 014.348 3.174 23.779 23.779 0 01-4.942-2.232 24.081 24.081 0 01-4.348-3.188zm6.696-2.173a27.217 27.217 0 019.347 5.434 23.502 23.502 0 01-4.942-2.246 24.054 24.054 0 01-4.405-3.188zm6.811-2.16a24.709 24.709 0 014.942 2.246 23.475 23.475 0 014.348 3.189 27.24 27.24 0 01-9.348-5.435h.058zm6.768-2.159a23.83 23.83 0 014.942 2.246 23.223 23.223 0 014.347 3.174 23.06 23.06 0 01-4.941-2.247 23.303 23.303 0 01-4.348-3.173zm6.71-2.174a27.23 27.23 0 019.348 5.434 23.48 23.48 0 01-4.942-2.246 23.98 23.98 0 01-4.406-3.188zm6.797-2.159a27.226 27.226 0 019.347 5.434 27.217 27.217 0 01-9.347-5.434zm6.768-2.16a27.544 27.544 0 019.347 5.42 23.612 23.612 0 01-4.956-2.246 23.318 23.318 0 01-4.391-3.174zm6.724-2.174a27.24 27.24 0 019.348 5.435 23.48 23.48 0 01-4.942-2.246 24.662 24.662 0 01-4.406-3.189zm6.783-2.159a23.97 23.97 0 014.956 2.246 23.274 23.274 0 014.348 3.189 27.24 27.24 0 01-9.348-5.435h.044zm6.767-2.174a27.25 27.25 0 019.348 5.435 26.89 26.89 0 01-9.348-5.435zm6.739-2.159a24.628 24.628 0 014.942 2.246 23.97 23.97 0 014.348 3.189 24.252 24.252 0 01-4.942-2.247 24.64 24.64 0 01-4.348-3.188zm6.768-2.159a27.134 27.134 0 019.347 5.42 23.747 23.747 0 01-4.941-2.232 24.621 24.621 0 01-4.406-3.188zm6.768-2.174a27.217 27.217 0 019.347 5.434 26.876 26.876 0 01-9.347-5.434z" fill="#263238"/><path d="M483.427 317.487l-95.359 44.418-141.067-69.707s-32.346 25.057-67.07 31.564c-23.622 4.434-63.562 1.072-82.721-26.376-16.13-23.115-6.594-50.302-6.594-50.302l27.057-12.289s63.65-45.534 103.503-49.679c60.752-6.333 262.251 132.371 262.251 132.371z" fill="#37474F"/><path d="M141.397 219.042c-3.855 2.319-7.609 4.797-11.42 7.246-3.812 2.449-7.609 4.522-11.203 7.116-3.594 2.594-7.13 5.463-10.593 8.347a188.786 188.786 0 00-4.957 4.217 42.694 42.694 0 00-4.768 4.522c-.13.159.087.362.261.275a51.758 51.758 0 005.203-3.681c1.826-1.333 3.637-2.695 5.449-4.043 3.507-2.594 7.072-5.101 10.565-7.695 3.492-2.594 6.724-5.464 10.144-8.072 3.681-2.812 7.551-5.406 11.362-8.029.102-.058.044-.246-.043-.203zm105.575 73.156a196.153 196.153 0 01-23.622 15.072l-37.129-46.505 60.751 31.433zm215.847 18.651c-2.826 1.087-5.594 2.406-8.347 3.652-2.754 1.247-5.449 2.449-8.174 3.71-5.551 2.551-11.058 5.217-16.565 7.855-11.072 5.304-22.071 10.753-33.071 16.187-6.159 3.044-12.26 6.203-18.405 9.29a.125.125 0 00-.037.061.119.119 0 00.054.126.115.115 0 00.07.016 2397.837 2397.837 0 0033.173-15.028 1261.387 1261.387 0 0033.187-15.942 612.643 612.643 0 009.086-4.681c3.044-1.608 6.189-3.173 9.145-4.941.13-.131.029-.377-.116-.305zm-45.476-36.433c-2.348-1.942-52.172-31.882-62.969-38.027a820.364 820.364 0 00-32.506-17.564c-10.97-5.609-22.057-10.913-33.332-15.768-11.275-4.854-22.492-9.318-34.085-13.042l-4.435-1.45c-.145 0-.203.16 0 .218 5.797 2.014 11.594 4.449 17.318 6.782a448.683 448.683 0 0116.84 7.246c11.174 4.985 22.173 10.318 33.057 15.941a879.97 879.97 0 0132.158 17.478c10.594 6.043 21.26 12.318 31.782 18.636 5.188 3.131 34.433 19.391 35.882 19.985.232.116.536-.232.29-.435z" fill="#263238"/><path d="M329.506 332.515c-5.247-2.899-10.609-5.58-15.942-8.348-5.333-2.768-10.695-5.434-16.072-8.086a2053.602 2053.602 0 00-32.085-15.579c-6.073-2.899-12.174-5.797-18.42-8.362a.113.113 0 00-.077.007.114.114 0 00-.065.13c.005.026.02.049.041.066 5.159 3.014 10.535 5.797 15.941 8.434 5.406 2.638 10.739 5.377 16.115 8.058 10.638 5.289 21.275 10.608 32.057 15.622 6.101 2.826 12.202 5.797 18.362 8.42.188.116.391-.232.145-.362z" fill="#263238"/><path d="M247.276 165.074c11.145-1.348 48.665-1.159 53.535 12.826 4.869 13.984-11.435 27.998-37.55 43.925l-15.985-56.751z" fill="#FFC4C0"/><path d="M179.555 191.348c-.218 6.072 5.71 8.188 5.71 8.188a12.954 12.954 0 00-2.16 8.55c.783 5.275 9.406 6.362 9.406 6.362a16.086 16.086 0 00-.841 9.391c1.261 4.971 9.811 7.319 9.811 7.319a14.002 14.002 0 004.464 8.695c6.869 5.797 19.97 1.608 28.318-.986 8.347-2.594 29.607-17.752 33.955-20.288l-16.159-53.737s-40.752.957-50.143 5.406c-7.898 3.811-22.1 14.274-22.361 21.1z" fill="#FFC4C0"/><path d="M185.366 198.551c7.463-5.986 16.274-9.449 24.883-13.405.188-.087.319.217.13.304-8.608 3.826-16.333 9.318-24.767 13.492a.234.234 0 01-.168.019.228.228 0 01-.136-.101.23.23 0 01.058-.309zm7.058 15.144a25.184 25.184 0 015.869-2.826c2.145-.87 4.348-1.681 6.478-2.478 4.348-1.566 8.695-3.044 13.159-4.348.203 0 .333.217.13.29-4.347 1.579-8.695 3.232-12.898 4.985a403.719 403.719 0 00-6.362 2.696 29.13 29.13 0 01-6.115 2.304.337.337 0 01-.443-.44.333.333 0 01.182-.183zm9.231 17.39a17.853 17.853 0 015.435-2.275 490.791 490.791 0 005.971-2.058c3.971-1.449 7.956-2.797 11.869-4.347.203-.087.333.217.145.29-3.986 1.579-7.942 3.217-11.942 4.767l-5.898 2.247a16.173 16.173 0 01-5.507 1.565.119.119 0 01-.091-.073.116.116 0 01-.007-.061.125.125 0 01.025-.055zm86.895-62.62a60.111 60.111 0 00-11.811-3 122.38 122.38 0 00-12.159-1.232c-4.072-.246-8.145-.188-12.217-.086-2.029 0-4.072.202-6.101.289l-6.072.392-12.145.869c-4.058.319-8.115.565-12.159 1.015-2.014.217-4.043.463-6.057.811a23.872 23.872 0 00-5.942 1.667 91.806 91.806 0 00-10.507 6.202 113.442 113.442 0 0110.782-5.594 23.755 23.755 0 015.797-1.449c2-.275 4.014-.449 6.029-.608 8.072-.595 16.188-1.058 24.289-1.566l6.072-.449c2.029-.116 4.043-.275 6.058-.362 4.043-.16 8.086-.189 12.144-.116 4.058.072 8.072.362 12.101.855a65.236 65.236 0 0111.898 2.362z" fill="#263238"/><path d="M128.267 137.916c1.869 47.012 21.115 89.503 28.651 96.329 14.97 13.55 78.084-2.203 95.054-4.421 6.855-.898-16.579-60.46-23.637-58.272-17.564 5.42-43.302 9.594-44.157 9.855-1.783.565-26.753-41.042-33.608-53.94-15.245-28.665-23.158-11.347-22.303 10.449z" fill="#FFC4C0"/><path d="M128.31 137.916a228.741 228.741 0 002.898 26.274 237.345 237.345 0 005.986 25.738 207.14 207.14 0 008.854 24.912 134.89 134.89 0 002.754 5.985c.927 2 2 3.927 3.029 5.869 2.217 3.739 4.478 7.753 8.536 9.579a37.833 37.833 0 0012.724 2.899c4.388.328 8.793.381 13.188.159a254.171 254.171 0 0026.318-2.753c8.695-1.29 17.39-2.899 26.086-4.565 4.347-.812 8.695-1.667 13.043-2.29a1.119 1.119 0 001.086-.841 5.045 5.045 0 00.261-1.565 19.06 19.06 0 00-.261-3.261 62.16 62.16 0 00-1.449-6.434 184.522 184.522 0 00-9.086-24.781c-1.797-4.015-3.696-7.985-5.797-11.826a57.845 57.845 0 00-3.507-5.55 17.277 17.277 0 00-2.102-2.464c-.782-.696-1.695-1.449-2.608-1.029-8.449 2.565-17.072 4.507-25.709 6.319a559.87 559.87 0 01-13.043 2.521l-3.247.594-1.623.305h-.478a1.06 1.06 0 01-.58-.276 7.772 7.772 0 01-.608-.623c-1.45-1.724-2.667-3.565-3.928-5.391-4.884-7.347-9.521-14.854-14.043-22.433-4.521-7.58-8.97-15.203-13.217-22.927a87.105 87.105 0 00-6.768-11.318 22.989 22.989 0 00-4.536-4.725 8.6 8.6 0 00-2.898-1.449 4.35 4.35 0 00-3.087.493 10.01 10.01 0 00-3.753 5.203 32.146 32.146 0 00-1.667 6.362 68.017 68.017 0 00-.768 13.289zm-.072 0a68.026 68.026 0 01.623-13.202 31.574 31.574 0 011.637-6.42 10.146 10.146 0 013.812-5.348 4.533 4.533 0 013.275-.536 8.708 8.708 0 013.029 1.449 24.082 24.082 0 014.637 4.768 88.993 88.993 0 016.884 11.304c4.348 7.681 8.84 15.26 13.405 22.796 4.565 7.536 9.16 15.071 14.058 22.39a64.639 64.639 0 003.855 5.318c.168.194.347.378.536.551 0 .073.232.145.145.116-.087-.029-.073 0 0 0h.333l1.638-.319 3.261-.579a594.387 594.387 0 0013.043-2.522c8.622-1.783 17.245-3.724 25.665-6.275.302-.106.623-.151.942-.13.316.034.622.133.899.289a6.303 6.303 0 011.449 1.029 19.13 19.13 0 012.188 2.551 53.88 53.88 0 013.522 5.637c2.145 3.87 4.043 7.869 5.797 11.913a187.45 187.45 0 018.971 24.897 61.823 61.823 0 011.449 6.492c.176 1.098.259 2.208.246 3.319a5.164 5.164 0 01-.275 1.681c-.111.29-.29.549-.522.754a1.68 1.68 0 01-.855.29c-4.348.608-8.695 1.449-13.043 2.231-8.695 1.609-17.391 3.189-26.086 4.565a258.85 258.85 0 01-26.303 2.899c-4.418.246-8.847.217-13.261-.087a38.588 38.588 0 01-12.912-2.899 17.145 17.145 0 01-2.899-1.797c-.217-.173-.449-.333-.652-.521l-.58-.623c-.362-.421-.782-.812-1.101-1.261-.638-.913-1.333-1.797-1.913-2.739l-1.739-2.826a119.022 119.022 0 01-5.797-11.913 207.398 207.398 0 01-8.695-24.984 241.778 241.778 0 01-5.797-25.825 228.754 228.754 0 01-2.869-26.433z" fill="#263238"/><path d="M283.42 157.581a7.802 7.802 0 01.841 9.145 14.09 14.09 0 016.768 5.333c2.652 4.348-3.029 10.434-3.029 10.434a15.296 15.296 0 016.347 6.391c2.116 4.42-2.739 11.362-2.739 11.362a13.446 13.446 0 012.044 9.144c-1.45 8.464-13.71 13.362-21.434 16.565-7.725 3.203-32.622 5.014-37.332 5.797l-20.927-49.375s30.564-24.187 40.172-26.651c8.102-2.028 24.927-2.999 29.289 1.855z" fill="#FFC4C0"/><path d="M283.551 166.436c-9.145.145-17.739 2.986-26.492 5.333-.189 0-.102.348.087.29 8.695-2.42 17.709-3.101 26.462-5.188a.22.22 0 10-.057-.435zm4.029 15.478a23.748 23.748 0 00-6.058 1.449c-2.101.681-4.188 1.449-6.261 2.145-4.173 1.449-8.289 3.086-12.376 4.796-.174 0-.102.363.087.305 4.145-1.449 8.318-2.899 12.536-4.217 2.101-.653 4.217-1.29 6.333-1.913a28.154 28.154 0 005.898-2.029.313.313 0 00.079-.316.32.32 0 00-.238-.22zm3.855 18.433a16.751 16.751 0 00-5.377 1.653l-5.652 2.13a254.074 254.074 0 01-11.391 4.058c-.188 0-.101.362.087.304 3.899-1.275 7.811-2.478 11.681-3.782 1.913-.638 3.811-1.29 5.71-1.957a15.152 15.152 0 005.014-2.217.115.115 0 00.025-.055.126.126 0 00-.006-.061.115.115 0 00-.036-.048.115.115 0 00-.055-.025z" fill="#263238"/><path d="M294.913 189.783a10.665 10.665 0 00-6.536-7.347c2.348-2.624 4.637-5.609 3.84-9.377-.739-3.521-4.347-5.695-7.55-6.463a5.205 5.205 0 00.942-3.087 4.894 4.894 0 00-.304-1.319 6.54 6.54 0 01-1.45 4.493c-.174.275 5.797 1.898 7.319 6.55 1.087 3.406-1.362 6.681-3.362 9.217-.116.145 5.26 2.449 6.159 7.246a13.858 13.858 0 01-2.652 10.376c0 .073.348.537.594.725.246.188.145 0 0-.188a3.511 3.511 0 01-.261-.421s.942-1.333 1.217-1.782c.516-.841.962-1.724 1.334-2.638a10.965 10.965 0 00.71-5.985zm-24.347-35.984c-3.16 0-6.29 0-9.449.246a29.829 29.829 0 00-8.696 1.595 47.193 47.193 0 00-7.883 4.173 179.673 179.673 0 00-8 5.203 66.944 66.944 0 00-7.681 6.014c-.13 0-12.043 2.971-17.869 4.348a813.13 813.13 0 01-17.521 3.942c-1.594.347-7.434 1.449-9.086 2.014a.113.113 0 00-.082.034.115.115 0 000 .164.113.113 0 00.082.034c2.898 0 13.854-1.855 16.869-2.435 5.883-1.145 11.724-2.478 17.535-3.942 3.362-.84 10-2.623 10.753-2.898 1.667-.87 4.464-3.623 6.797-5.174 2.565-1.695 5.101-3.42 7.667-5.086a65.682 65.682 0 017.608-4.464 28.463 28.463 0 018.695-2.348c3.377-.391 6.783-.695 10.145-.927.087.275.232-.696.116-.493zm-17.507 75.808c-.766.024-1.531.092-2.29.203-.884.101-1.768.087-2.652.188-1.579.189-3.173.522-4.753.783-3.174.536-6.333 1.101-9.492 1.666-6.449 1.16-28.014 4.783-29.796 5.362a.112.112 0 00-.055.043.11.11 0 00-.021.066.11.11 0 00.021.066c.013.02.032.035.055.043 1.637 0 15.84-1.899 19.057-2.435 6.405-1.072 12.811-2.145 19.173-3.362l5.261-1c.942-.174 1.826-.493 2.739-.739.913-.246 1.855-.406 2.739-.725a.089.089 0 00.041-.028.089.089 0 00.019-.047.092.092 0 00-.01-.049.087.087 0 00-.036-.035z" fill="#263238"/><path d="M131.455 188.029l37.607-32.143a318.825 318.825 0 00-19.216-32.825c-11.927-17.897-22.623-15.941-23.753 13.116a184.128 184.128 0 005.362 51.852z" fill="#BB96DE"/><path d="M129.368 130.076a.912.912 0 11-1.824 0 .912.912 0 011.824 0zm14.043-.913a.912.912 0 100 1.824.912.912 0 000-1.824zm-7.507-10.391a.915.915 0 00-.845.567.913.913 0 10.845-.567zm-7.478 31.172a.916.916 0 00-.843.564.906.906 0 00.198.995.913.913 0 10.674-1.559h-.029zm14.956 0a.916.916 0 00-.843.564.906.906 0 00.198.995.913.913 0 10.674-1.559h-.029zm14.956 0a.909.909 0 00-.645.268.909.909 0 000 1.291.912.912 0 10.645-1.559zm-22.434-10.391a.916.916 0 00-.843.564.91.91 0 00.198.995.906.906 0 00.995.198.913.913 0 00-.35-1.757zm14.956 0a.916.916 0 00-.843.564.91.91 0 00.198.995.906.906 0 00.995.198.913.913 0 00-.321-1.757h-.029zm-22.434 31.173a.864.864 0 00-.42.116c.072.579.159 1.145.246 1.695h.174a.914.914 0 00.913-.913.909.909 0 00-.884-.898h-.029zm14.956 0a.912.912 0 10.029 0h-.029zm-7.478-10.391a.916.916 0 00-.843.564.912.912 0 10.843-.564zm14.956 0a.916.916 0 00-.843.564.912.912 0 10.872-.564h-.029zm-14.956 20.796a.912.912 0 100 1.824.912.912 0 000-1.824z" fill="#fff"/><path d="M164.367 150.394c-3.058 2.057-5.797 4.594-8.695 6.898-2.899 2.304-5.493 4.347-8.16 6.71a516.934 516.934 0 00-16.289 14.622c-.087.087 0 .246.145.174a817.465 817.465 0 0016.739-13.753c2.739-2.304 5.42-4.695 8.101-7.087 2.681-2.391 5.797-4.738 8.304-7.391.087-.101-.044-.246-.145-.173z" fill="#263238"/><path d="M135.513 184.566c-.203.087-3.841 3.058-3.899 3.13-1.116-6.652-2.449-13.043-3.42-19.68a203.402 203.402 0 01-1.753-20.564c-.155-3.923-.194-7.85-.116-11.782 0-.102-.131-.087-.145 0a132.527 132.527 0 00-.536 10.144 59.858 59.858 0 01-.392-5.13c0-.16-.246-.16-.261 0a26.349 26.349 0 00.638 7.246c-.029 9.825.903 19.63 2.783 29.274a79.311 79.311 0 002.898 11.593s4.217-3.999 4.348-4.188c.13-.188-.058-.072-.145-.043zm31.781-33.491a113.974 113.974 0 00-2.55-4.754l-.551-.971a65.24 65.24 0 00-2.29-6.362c0-.072-.145 0-.116 0a49.41 49.41 0 001.652 4.986 81.26 81.26 0 00-4.42-7s-.145 0-.116.072c1.565 3.247 3.362 6.406 5.044 9.594.811 1.551 4.999 9.072 4.927 9.145-.388.336-.751.699-1.087 1.087-.145.275 0 .188.101.115l1.855-1.202s-1.753-3.261-2.449-4.71z" fill="#263238"/><path opacity=".2" d="M110.873 24.481c-3.169 15.372-17.122 27.652-17.122 27.652s-18.225-3.83-28.563-15.657c-8.639-9.858-8.319-23.012-.126-28.052 11.725-7.182 20.845 14.071 20.845 14.071S83.326-.479 97.097-.001c9.602.355 16.408 11.674 13.776 24.482z" fill="#FF6D8D"/><path d="M37.5 97.33c4.047 9.002 1.468 20.402 1.468 20.402s-10.73 4.747-20.36 2.515c-8.054-1.855-12.74-8.701-10.41-14.26 3.333-7.98 15.818-.496 15.818-.496s-9.766-10.771-2.582-15.57c5.039-3.369 12.688-.098 16.066 7.41z" fill="#E191D0"/></g><defs><clipPath id="clip0"><path fill="#fff" d="M0 0h700v430H0z"/></clipPath></defs></svg>