<svg width="187" height="40" fill="none" xmlns="http://www.w3.org/2000/svg"><g clip-path="url(#clip0)"><path d="M20.5 0C9.488 0 .5 8.988.5 20s8.988 20 20 20 20-8.988 20-20-8.988-20-20-20zm0 37.656c-9.736 0-17.656-7.92-17.656-17.656A17.59 17.59 0 017.518 8.046c.416 1.016 1.302 4.558 5.076 7.4.019.6.08 1.196.181 1.784-2.045-.591-4.406-.015-6.042 1.622l-.087.086a3.514 3.514 0 000 4.972 3.497 3.497 0 002.692 1.024 9.375 9.375 0 00-.017 1.17c.077 1.567.583 3.85 2.561 5.828 3.198 3.199 8.403 3.199 11.601 0l1.16-1.16a12.83 12.83 0 003.734-8.073 8.199 8.199 0 002.895-1.87c3.199-3.199 3.199-8.403 0-11.601-3.198-3.199-8.402-3.199-11.6 0a8.167 8.167 0 00-1.61 2.281 3.499 3.499 0 00-1.723-.582 3.519 3.519 0 00-3.305 1.828c-2.59-2.446-2.817-4.574-3.712-6.412 3.046-2.498 6.94-4 11.178-4 9.736 0 17.656 7.921 17.656 17.657S30.236 37.656 20.5 37.656zm-5.303-10.695a5.852 5.852 0 00.866-7.176 10.533 10.533 0 01-1.113-5.42 1.174 1.174 0 011.242-1.098 1.175 1.175 0 011.098 1.239 8.185 8.185 0 002.381 6.323 8.153 8.153 0 002.735 1.81l.875-2.174a5.82 5.82 0 01-1.952-1.294c-2.29-2.29-2.275-6.011 0-8.286a5.866 5.866 0 018.286 0 5.866 5.866 0 010 8.286 5.852 5.852 0 01-2.664 1.525l-.864.225-.015 1.003a10.501 10.501 0 01-3.086 7.191l-1.16 1.16a5.866 5.866 0 01-8.287 0c-2.737-2.737-1.758-6.312-1.515-6.735l.521-.69-1.591-1.59-.993.993a1.173 1.173 0 01-1.658-1.657l.087-.087c1.307-1.308 3.324-1.551 4.691-.567a3.52 3.52 0 01.458 5.361l1.658 1.657z" fill="#FF6D8D"/></g><path d="M66.72 17.2a10.78 10.78 0 01-3.14-.46c-1-.307-1.793-.713-2.38-1.22l.9-2.02c.573.453 1.273.827 2.1 1.12.84.28 1.68.42 2.52.42 1.04 0 1.813-.167 2.32-.5.52-.333.78-.773.78-1.32 0-.4-.147-.727-.44-.98-.28-.267-.64-.473-1.08-.62a24.3 24.3 0 00-1.8-.5c-1.067-.253-1.933-.507-2.6-.76a4.402 4.402 0 01-1.7-1.18c-.467-.547-.7-1.28-.7-2.2 0-.773.207-1.473.62-2.1.427-.64 1.06-1.147 1.9-1.52.853-.373 1.893-.56 3.12-.56.853 0 1.693.107 2.52.32.827.213 1.54.52 2.14.92l-.82 2.02a8.089 8.089 0 00-1.92-.82 7.182 7.182 0 00-1.94-.28c-1.027 0-1.793.173-2.3.52-.493.347-.74.807-.74 1.38 0 .4.14.727.42.98.293.253.66.453 1.1.6a24.3 24.3 0 001.8.5c1.04.24 1.893.493 2.56.76a4.214 4.214 0 011.7 1.18c.48.533.72 1.253.72 2.16 0 .773-.213 1.473-.64 2.1-.413.627-1.047 1.127-1.9 1.5s-1.893.56-3.12.56zM85.058 6.32V17h-2.38v-1.36c-.4.48-.9.853-1.5 1.12a4.94 4.94 0 01-1.94.38c-1.427 0-2.553-.393-3.38-1.18-.813-.8-1.22-1.98-1.22-3.54v-6.1h2.5v5.76c0 .96.213 1.68.64 2.16.44.467 1.06.7 1.86.7.893 0 1.6-.273 2.12-.82.534-.56.8-1.36.8-2.4v-5.4h2.5zm5.653 1.56c.72-1.12 1.987-1.68 3.8-1.68v2.38a3.174 3.174 0 00-.58-.06c-.973 0-1.733.287-2.28.86-.546.56-.82 1.373-.82 2.44V17h-2.5V6.32h2.38v1.56zm8.301 0c.72-1.12 1.987-1.68 3.8-1.68v2.38a3.165 3.165 0 00-.58-.06c-.973 0-1.733.287-2.28.86-.546.56-.82 1.373-.82 2.44V17h-2.5V6.32h2.38v1.56zm10.623 9.26c-1.08 0-2.053-.233-2.92-.7a5.204 5.204 0 01-2.04-1.94c-.48-.84-.72-1.787-.72-2.84s.24-1.993.72-2.82a5.204 5.204 0 012.04-1.94c.867-.467 1.84-.7 2.92-.7 1.094 0 2.074.233 2.94.7a5.053 5.053 0 012.02 1.94c.494.827.74 1.767.74 2.82s-.246 2-.74 2.84a5.053 5.053 0 01-2.02 1.94c-.866.467-1.846.7-2.94.7zm0-2.14c.92 0 1.68-.307 2.28-.92.6-.613.9-1.42.9-2.42s-.3-1.807-.9-2.42c-.6-.613-1.36-.92-2.28-.92-.92 0-1.68.307-2.28.92-.586.613-.88 1.42-.88 2.42s.294 1.807.88 2.42c.6.613 1.36.92 2.28.92zm18.691-8.68v9.06c0 3.76-1.92 5.64-5.76 5.64-1.027 0-2-.133-2.92-.4-.92-.253-1.68-.627-2.28-1.12l1.12-1.88c.467.387 1.053.693 1.76.92.72.24 1.447.36 2.18.36 1.173 0 2.033-.267 2.58-.8.547-.533.82-1.347.82-2.44v-.56c-.427.467-.947.82-1.56 1.06-.613.24-1.287.36-2.02.36-1.013 0-1.933-.213-2.76-.64a5.048 5.048 0 01-1.94-1.84c-.467-.787-.7-1.687-.7-2.7 0-1.013.233-1.907.7-2.68a4.902 4.902 0 011.94-1.82c.827-.427 1.747-.64 2.76-.64.773 0 1.473.127 2.1.38a3.88 3.88 0 011.6 1.16V6.32h2.38zm-5.7 8.08c.947 0 1.72-.28 2.32-.84.613-.573.92-1.313.92-2.22 0-.893-.307-1.62-.92-2.18-.6-.56-1.373-.84-2.32-.84-.96 0-1.747.28-2.36.84-.6.56-.9 1.287-.9 2.18 0 .907.3 1.647.9 2.22.613.56 1.4.84 2.36.84zm13.067-8.2c1.573 0 2.773.38 3.6 1.14.84.747 1.26 1.88 1.26 3.4V17h-2.36v-1.3c-.307.467-.747.827-1.32 1.08-.56.24-1.24.36-2.04.36s-1.5-.133-2.1-.4c-.6-.28-1.067-.66-1.4-1.14a2.985 2.985 0 01-.48-1.66c0-.96.353-1.727 1.06-2.3.72-.587 1.846-.88 3.38-.88h2.76v-.16c0-.747-.227-1.32-.68-1.72-.44-.4-1.1-.6-1.98-.6-.6 0-1.194.093-1.78.28a4.355 4.355 0 00-1.46.78l-.98-1.82c.56-.427 1.233-.753 2.02-.98a8.984 8.984 0 012.5-.34zm-.34 9.12c.626 0 1.18-.14 1.66-.42.493-.293.84-.707 1.04-1.24v-1.24h-2.58c-1.44 0-2.16.473-2.16 1.42 0 .453.18.813.54 1.08.36.267.86.4 1.5.4zm14.828 1.1c-.293.24-.653.42-1.08.54a4.71 4.71 0 01-1.32.18c-1.173 0-2.08-.307-2.72-.92-.64-.613-.96-1.507-.96-2.68V8.4h-1.76v-2h1.76V3.96h2.5V6.4h2.86v2h-2.86v5.08c0 .52.127.92.38 1.2.253.267.62.4 1.1.4.56 0 1.027-.147 1.4-.44l.7 1.78zm11.745-4.7c0 .173-.013.42-.04.74h-8.38c.147.787.527 1.413 1.14 1.88.627.453 1.4.68 2.32.68 1.173 0 2.14-.387 2.9-1.16l1.34 1.54a4.517 4.517 0 01-1.82 1.3c-.733.293-1.56.44-2.48.44-1.173 0-2.207-.233-3.1-.7-.893-.467-1.587-1.113-2.08-1.94-.48-.84-.72-1.787-.72-2.84 0-1.04.233-1.973.7-2.8a5.086 5.086 0 011.98-1.96c.84-.467 1.787-.7 2.84-.7 1.04 0 1.967.233 2.78.7a4.718 4.718 0 011.92 1.94c.467.827.7 1.787.7 2.88zm-5.4-3.52c-.8 0-1.48.24-2.04.72-.547.467-.88 1.093-1 1.88h6.06c-.107-.773-.433-1.4-.98-1.88-.547-.48-1.227-.72-2.04-.72z" fill="#fff"/><path d="M78.18 38l-.04-14h-3.26l-4.8 8.08L65.16 24H61.9v14h3.66v-7.22l3.58 5.84h1.76l3.6-6.04.04 7.42h3.64zm8.062.18c3.58 0 6.12-2.34 6.12-5.62 0-3.26-2.54-5.58-6.12-5.58-3.54 0-6.12 2.32-6.12 5.58 0 3.28 2.58 5.62 6.12 5.62zm0-3.02c-1.28 0-2.28-.94-2.28-2.6 0-1.64 1-2.56 2.28-2.56 1.3 0 2.28.92 2.28 2.56 0 1.66-.98 2.6-2.28 2.6zm14.42-.26c-.32.22-.74.34-1.16.34-.68 0-1.14-.44-1.14-1.24v-3.6h2.48v-2.84h-2.48v-2.82h-3.8v2.82h-1.58v2.84h1.58v3.64c0 2.78 1.62 4.14 4.4 4.14 1 0 1.98-.2 2.64-.62l-.94-2.66zm9.466-7.92c-1.28 0-2.42.4-3.26 1.18v-5h-3.8V38h3.8v-5.24c0-1.8.94-2.56 2.16-2.56 1.1 0 1.78.66 1.78 2.22V38h3.8v-6.2c0-3.36-1.94-4.82-4.48-4.82zm18.102 5.62c0-3.58-2.6-5.62-5.8-5.62-3.42 0-5.96 2.32-5.96 5.58 0 3.24 2.5 5.62 6.36 5.62 2.06 0 3.58-.6 4.62-1.76l-2-2.08c-.74.64-1.44.94-2.5.94-1.4 0-2.34-.64-2.66-1.74h7.88c.02-.3.06-.66.06-.94zm-5.78-2.92c1.18 0 2.02.72 2.22 1.86h-4.44c.22-1.14 1.04-1.86 2.22-1.86zm11.152-1.22v-1.3h-3.62V38h3.8v-4.98c0-1.9 1.06-2.68 2.6-2.68.28 0 .52.02.86.06v-3.42c-1.6 0-2.86.5-3.64 1.48zm12.407 9.82c2.58 0 4.66-.94 6.02-2.64l-2.52-2.28c-.88 1.06-1.96 1.64-3.3 1.64-2.3 0-3.9-1.6-3.9-4s1.6-4 3.9-4c1.34 0 2.42.58 3.3 1.64l2.52-2.28c-1.36-1.7-3.44-2.64-6.02-2.64-4.44 0-7.7 3.02-7.7 7.28s3.26 7.28 7.7 7.28zm7.606-.28h3.8V23.16h-3.8V38zm13.869-10.84v5.22c0 1.82-.92 2.56-2.04 2.56-1.14 0-1.8-.66-1.8-2.34v-5.44h-3.8v6.06c0 3.44 1.94 4.96 4.6 4.96 1.24 0 2.4-.44 3.22-1.34V38h3.62V27.16h-3.8zm13.068-.18c-1.26 0-2.28.36-3.02 1.12v-4.94h-3.8V38h3.62v-1.08c.72.86 1.78 1.26 3.2 1.26 2.94 0 5.32-2.16 5.32-5.62 0-3.44-2.38-5.58-5.32-5.58zm-.8 8.18c-1.28 0-2.28-.94-2.28-2.6 0-1.64 1-2.56 2.28-2.56 1.28 0 2.28.92 2.28 2.56 0 1.66-1 2.6-2.28 2.6z" fill="#FF6D8D"/><defs><clipPath id="clip0"><path fill="#fff" transform="translate(.5)" d="M0 0h40v40H0z"/></clipPath></defs></svg>