<?xml version="1.0" encoding="utf-8"?><svg xmlns="http://www.w3.org/2000/svg" xmlns:xlink="http://www.w3.org/1999/xlink"><symbol viewBox="0 0 9.9 5" id="arrow" xmlns="http://www.w3.org/2000/svg"><path d="M9.9 0S7 5 4.9 5c-2 0-5-5-5-5" fill="none"/></symbol><symbol fill="none" viewBox="0 0 34 35" id="arrow-circle" xmlns="http://www.w3.org/2000/svg"><path d="M11.475 20.85s3.47-5.862 5.863-5.862c2.39 0 5.862 5.862 5.862 5.862"/><path d="M16.919 1.25c8.975 0 16.25 7.275 16.25 16.25s-7.275 16.25-16.25 16.25S.669 26.475.669 17.5 7.944 1.25 16.919 1.25z"/></symbol><symbol viewBox="0 0 21 20" id="star" xmlns="http://www.w3.org/2000/svg"><path d="M15.918 12.32a1.1 1.1 0 00-.319.97l.89 4.92a1.08 1.08 0 01-.45 1.08 1.1 1.1 0 01-1.17.08l-4.43-2.31a1.13 1.13 0 00-.5-.131h-.27a.812.812 0 00-.27.09l-4.43 2.321a1.17 1.17 0 01-.71.11 1.112 1.112 0 01-.89-1.271l.89-4.92a1.119 1.119 0 00-.32-.979L.33 8.78a1.08 1.08 0 01-.27-1.13c.134-.396.476-.685.89-.75l4.97-.721c.377-.039.71-.269.88-.609l2.19-4.49a.997.997 0 01.2-.27l.09-.07a.671.671 0 01.16-.13l.11-.04.17-.07h.42c.376.039.707.264.88.6l2.22 4.47c.16.327.47.554.83.609l4.97.721c.42.06.77.35.91.75.13.401.017.841-.29 1.13l-3.74 3.54z"/></symbol><symbol fill="none" viewBox="0 0 28 28" id="tick-square" xmlns="http://www.w3.org/2000/svg"><path d="M9.254 14l3.165 3.164 6.328-6.328"/><path clip-rule="evenodd" d="M1.667 14c0 9.25 3.083 12.334 12.333 12.334S26.333 23.25 26.333 14 23.25 1.667 14 1.667 1.666 4.75 1.666 14z"/></symbol></svg>