<svg width="21" height="22" fill="none" xmlns="http://www.w3.org/2000/svg"><path clip-rule="evenodd" d="M8.247 20.456c-3.672 0-6.809-.555-6.809-2.779 0-2.224 3.117-4.228 6.81-4.228 3.671 0 6.808 1.985 6.808 4.208s-3.116 2.8-6.809 2.8zm0-10.179a4.364 4.364 0 10-4.364-4.363 4.348 4.348 0 004.333 4.364h.031z" stroke="#FF6D8D" stroke-width="1.5" stroke-linecap="round" stroke-linejoin="round"/><path d="M15.49 9.079a3.289 3.289 0 00-.187-6.397m.847 9.971c1.988 0 3.686 1.348 3.686 2.551 0 .71-.585 1.438-1.475 1.646" stroke="#FF6D8D" stroke-width="1.5" stroke-linecap="round" stroke-linejoin="round"/></svg>