<?xml version="1.0" encoding="utf-8"?>
<!-- Generator: Adobe Illustrator 22.0.1, SVG Export Plug-In . SVG Version: 6.00 Build 0)  -->
<svg version="1.1" id="Layer_1" xmlns="http://www.w3.org/2000/svg" xmlns:xlink="http://www.w3.org/1999/xlink" x="0px" y="0px"
	 viewBox="0 0 154.1 40.7" style="enable-background:new 0 0 154.1 40.7;" xml:space="preserve">
<style type="text/css">
	.st0{fill:#1F4C99;}
	.st1{fill:#0095DA;}
	.st2{fill-rule:evenodd;clip-rule:evenodd;fill:#1F4C99;}
	.st3{fill-rule:evenodd;clip-rule:evenodd;fill:#FFF685;}
	.st4{fill-rule:evenodd;clip-rule:evenodd;fill:#0095DA;}
</style>
<path class="st0" d="M24.2,36.3c-0.2,0.9-0.5,1.2-1.5,1.2c-0.9,0-1.3-0.6-1.3-1.9v-0.5h6v-2.9c0-3.1-1.7-4.9-4.7-4.9
	c-2.9,0-4.6,1.8-4.6,4.9v3.4c0,3.1,1.7,5,4.6,5c2.8,0,4.6-1.6,4.8-4.3H24.2L24.2,36.3z M22.7,30.3c0.9,0,1.4,0.6,1.4,1.8v0.7h-2.7
	v-0.7C21.4,30.9,21.8,30.3,22.7,30.3L22.7,30.3z M36.5,33.6c0.8-0.6,1.2-1.4,1.2-2.3c0-2.3-1.4-3.7-4.1-3.7h-4.3v12.7h4.3
	c3.2,0,4.7-1.4,4.7-3.7C38.4,35.4,37.9,34.2,36.5,33.6L36.5,33.6z M32.5,30.2h0.9c0.7,0,1.1,0.5,1.1,1.2c0,0.8-0.4,1.2-1.1,1.2h-0.9
	V30.2L32.5,30.2z M33.9,37.7h-1.4v-2.5h1.4c0.9,0,1.3,0.4,1.3,1.2C35.2,37.3,34.8,37.7,33.9,37.7L33.9,37.7z M44.2,27.3
	c-2.8,0-4.5,1.6-4.6,4.3h3.3c0.1-0.8,0.7-1.1,1.3-1.1c0.9,0,1.1,0.7,1.1,1.8v0.4h-1.2c-2.8,0-4.9,1.3-4.9,4.1c0,2.3,1.4,4,3.8,4
	c1.4,0,2.3-0.7,2.8-1.5l0.2,1.2h2.6v-8.1C48.6,29,47.2,27.3,44.2,27.3L44.2,27.3z M45.3,36.3c0,1-0.6,1.6-1.5,1.6
	c-0.9,0-1.2-0.6-1.2-1.2c0-0.9,0.6-1.3,1.6-1.3h1.1V36.3L45.3,36.3z M55.2,40.6c2.9,0,4.7-1.8,4.7-4.8h-3.3
	c-0.1,1.1-0.5,1.7-1.4,1.7c-0.8,0-1.3-0.6-1.3-1.7v-3.8c0-1.1,0.5-1.6,1.3-1.6c0.8,0,1.2,0.6,1.3,1.6h3.3c-0.1-3-1.6-4.8-4.6-4.8
	c-2.9,0-4.5,1.8-4.5,4.8v3.8C50.7,38.9,52.3,40.6,55.2,40.6L55.2,40.6z M69.1,27.6h-8.5v3.1h2.6v9.6h3.3v-9.6h2.6V27.6L69.1,27.6z
	 M74.6,40.7c3,0,4.7-1.8,4.7-5.1v-3.2c0-3.2-1.8-5-4.7-5c-3,0-4.7,1.8-4.7,5v3.2C69.9,38.8,71.7,40.7,74.6,40.7L74.6,40.7z
	 M74.6,37.5c-0.9,0-1.4-0.6-1.4-1.9v-3.2c0-1.3,0.5-1.9,1.4-1.9c0.9,0,1.4,0.6,1.4,1.9v3.2C76,36.9,75.6,37.5,74.6,37.5L74.6,37.5z
	 M90.2,27.6h-8.7v12.7h3.3v-9.7H87v9.7h3.3V27.6L90.2,27.6z M97.1,40.7c3,0,4.7-1.8,4.7-5.1v-3.2c0-3.2-1.8-5-4.7-5
	c-3,0-4.7,1.8-4.7,5v3.2C92.3,38.8,94.1,40.7,97.1,40.7L97.1,40.7z M97.1,37.5c-0.9,0-1.4-0.6-1.4-1.9v-3.2c0-1.3,0.5-1.9,1.4-1.9
	c0.9,0,1.4,0.6,1.4,1.9v3.2C98.5,36.9,98,37.5,97.1,37.5L97.1,37.5z M102.7,40.6c2.8,0,4.3-1.5,4.7-4.7c0.2-1.6,0.4-4.2,0.4-5.3h1.9
	v9.7h3.2V27.6h-8.3c-0.1,2.6-0.3,6.4-0.5,7.7c-0.2,1.5-0.5,2.2-1.5,2.2V40.6L102.7,40.6z M120.3,31.7h-1.7v-4.1h-3.3v12.7h4.9
	c2.5,0,4.2-1.7,4.2-4.3C124.5,33.4,122.8,31.7,120.3,31.7L120.3,31.7z M119.8,37.5h-1.2v-2.8h1.2c0.9,0,1.4,0.5,1.4,1.3
	C121.2,36.9,120.7,37.5,119.8,37.5L119.8,37.5z"/>
<path class="st1" d="M132.8,27.6h-6.9v12.7h3.3v-9.6h3.6V27.6L132.8,27.6z M138.7,27.3c-2.8,0-4.5,1.6-4.6,4.3h3.3
	c0.1-0.8,0.7-1.1,1.3-1.1c0.9,0,1.1,0.7,1.1,1.8v0.4h-1.2c-2.8,0-4.9,1.3-4.9,4.1c0,2.3,1.4,4,3.8,4c1.4,0,2.3-0.7,2.8-1.5l0.2,1.2
	h2.6v-8.1C143,29,141.7,27.3,138.7,27.3L138.7,27.3z M139.8,36.3c0,1-0.6,1.6-1.5,1.6c-0.9,0-1.2-0.6-1.2-1.2c0-0.9,0.6-1.3,1.6-1.3
	h1.1V36.3L139.8,36.3z M152.5,33.6c0.6-0.4,1.3-1.2,1.3-2.4c0-2.4-1.7-3.9-4.5-3.9c-2.7,0-4.3,1.6-4.5,4.3h3.1
	c0.1-0.9,0.6-1.4,1.5-1.4c0.8,0,1.3,0.4,1.3,1.2c0,0.8-0.4,1.3-1.2,1.3h-1.4V35h1.4c1,0,1.5,0.4,1.5,1.3c0,0.9-0.6,1.4-1.6,1.4
	c-1,0-1.6-0.4-1.7-1.2h-3.1c0.1,2.6,1.9,4.2,4.8,4.2c3,0,4.8-1.6,4.8-4.2C154.1,35.1,153.3,34.1,152.5,33.6L152.5,33.6z"/>
<path class="st2" d="M5.5,2.7h4.6c0.8,0,1.6,0.2,2.3,0.5l0,0.1c-0.5,1.1-1.1,2.1-1.7,3.2C10,7.5,9.5,8.6,9,9.7V8.6
	c0-0.5-0.4-0.8-0.8-0.8H7.5C7,7.7,6.6,8.1,6.6,8.6v26.1c0,0.5,0.4,0.8,0.8,0.8h0.7c0.5,0,0.8-0.4,0.8-0.8v-7.1h6.6v7.5
	c0,3-2.5,5.5-5.5,5.5H5.5c-3,0-5.5-2.5-5.5-5.5V8.2C0,5.1,2.5,2.7,5.5,2.7L5.5,2.7z"/>
<path class="st3" d="M13.6,3.5c2.4,1.9,3.1,3.9,2.5,6.9c-0.2,1-0.7,2-1.3,2.8c-0.6,1-1.3,1.9-1.9,2.8c-1.1,1.6-2.1,3.4-2,5.4
	l0.1,1.3l-0.7-1C8.7,19.5,8,17,8.4,14.3C8.6,13,9,11.7,9.5,10.5c0.5-1.3,1.2-2.5,1.8-3.7c0.6-1.1,1.2-2.1,1.7-3.2l0.2-0.4L13.6,3.5
	L13.6,3.5z"/>
<path class="st2" d="M13.4,3.8C11.1,8.5,5.9,15,10.5,21.6c-0.2-4.3,4.5-7.8,5.2-11.2C16.5,7,15.2,5.2,13.4,3.8L13.4,3.8z"/>
<path class="st3" d="M22.4,14.3c0.2,1.9,0.1,3.8-0.4,5.6c-0.5,1.5-1.2,2.9-2.4,4.1c-1.2,1.2-2.8,2-4.4,2.5c-0.1,0-0.2,0.1-0.3,0.1
	c-0.6,0.1-0.8-0.1-0.4-0.4l0.4-0.3c1.5-1.3,3.3-3,3.7-5.1c0.2-0.8,0.1-1.5-0.1-2.3l-0.1-0.3l0.2-0.1c1.5-0.8,2.5-2.3,3-3.9l0.5-1.5
	L22.4,14.3L22.4,14.3z"/>
<path class="st2" d="M22.1,14.3c0.7,6.4-2.1,10.4-6.9,11.8c2.9-2.5,4.5-4.8,3.8-7.7C20.6,17.5,21.6,15.8,22.1,14.3L22.1,14.3z"/>
<path class="st3" d="M15.5,12.2c0.9-2.3,1.5-5.2,0-7.4C15,4,14.3,3.4,13.5,3l-0.3-0.2l0.1-0.3c0.3-0.7,0.6-1.4,0.8-2.1L14.4,0
	l0.4,0.3c3.8,3.2,6.4,7.1,7.3,12l0,0.1l0,0.1c-0.4,1.9-1.5,3.5-2.8,5l0,0.1l-0.1,0c-3.4,1.9-4.9,4.6-4.8,8.5l-0.2,0.3l-0.5-0.1
	c-0.7-1-1.4-2-2-3l0-0.1l0-0.1c-0.3-1-0.3-2-0.1-3c0.2-1.4,0.9-2.6,1.6-3.8C13.9,15,14.8,13.6,15.5,12.2L15.5,12.2z M12.5,23.8
	c0.4,0.8,0.9,1.6,1.5,2.3c-0.3-3.2,1-6.1,4.4-8.4c-0.2-1.9-1-3.2-2.1-4.4c-0.2,2.1-1.7,4-3.3,6.4C12.1,21,12.2,22.7,12.5,23.8
	L12.5,23.8z"/>
<path class="st4" d="M11.9,22.8c-0.8-3.7,1.7-6.1,3.9-10.5c1.9-5,0.8-8-2.1-9.6C14,2,14.3,1.3,14.5,0.6c3.7,3.1,6.3,6.9,7.2,11.8
	c-0.4,1.8-1.4,3.3-2.7,4.8c-0.1,0.1-0.2,0.1-0.3,0.2c-0.2-1.8-1-3.2-2.2-4.4L16,12.4l-0.1,0.8c-0.1,1.1-0.6,2-1.1,3
	c-0.6,1.1-1.4,2.2-2.1,3.2C12,20.4,11.8,21.6,11.9,22.8L11.9,22.8z"/>
<path class="st3" d="M18.7,19c0.3,3-0.9,4.9-3.2,6.7L15,26.1l-0.1-0.6c-0.4-3,0.8-5.1,3.2-6.7l0.5-0.3L18.7,19L18.7,19z"/>
<path class="st4" d="M18.4,19c-2.1,1.4-3.5,3.4-3.1,6.4C17.4,23.8,18.6,21.9,18.4,19L18.4,19z"/>
<path class="st3" d="M13.8,26.3c-0.7-0.7-1.2-1.5-1.6-2.4l0,0l0,0c-0.5-1.5-0.3-3.2,0.5-4.5c0.7-1.1,1.5-2.1,2.1-3.2
	c0.5-0.9,1-1.9,1.1-3l0.1-0.8l0.5,0.6c1.2,1.3,2,2.8,2.2,4.6l0,0.2l-0.2,0.1c-2.9,2-4.5,4.6-4.2,8.1c0,0.2,0,0.4,0.1,0.6
	c0,0.1,0,0.2-0.2,0.1L13.8,26.3L13.8,26.3z"/>
<path class="st2" d="M12.5,23.8c0.4,0.8,0.9,1.6,1.5,2.3c-0.3-3.2,1-6.1,4.4-8.4c-0.2-1.9-1-3.2-2.1-4.4c-0.2,2.1-1.7,4-3.3,6.4
	C12.1,21,12.2,22.7,12.5,23.8L12.5,23.8z"/>
</svg>
