<svg width="90" height="104" fill="none" xmlns="http://www.w3.org/2000/svg"><g filter="url(#filter0_d)"><path d="M24.835 12c-2.2 0-4 1.8-4 4v56c0 2.2 1.8 4 4 4h40.33c2.2 0 4-1.8 4-4V25.902L55.269 12H24.835z" fill="url(#paint0_linear)"/><path d="M55.263 25.9h13.9L55.27 12h-.006v13.9z" fill="#999"/><path opacity=".25" d="M20.835 60.572V50.82h11.264l-11.264 9.752z" fill="#fff"/><path d="M69.155 49.82h-48.32v1h48.32v-1zM69.155 66.44h-48.32v1h48.32v-1z" fill="#848484"/><path fill="#BC251B" d="M21 51h48v15H21z"/><path d="M33.209 63.294v-9.332h4.224c1.262 0 2.114.22 2.552.66.44.44.66 1.29.66 2.546 0 1.248-.21 2.078-.628 2.488-.418.41-1.266.616-2.542.616l-.41.006h-2.084v3.016h-1.772zm1.77-4.502h2.016c.802 0 1.312-.094 1.528-.278.216-.186.326-.622.326-1.308 0-.79-.09-1.278-.27-1.466-.18-.19-.648-.284-1.404-.284h-2.194v3.336h-.002zM41.773 63.294v-9.332h4.586c1.304 0 2.216.286 2.738.856.522.57.784 1.568.784 2.994 0 2.328-.21 3.824-.628 4.488-.42.662-1.366.994-2.838.994h-4.642zm1.77-1.49h2.522c.848 0 1.396-.196 1.646-.584.248-.39.372-1.25.372-2.582 0-1.376-.112-2.25-.334-2.624-.224-.374-.748-.558-1.574-.558h-2.632v6.348zM52.945 55.456v2.516h4.182v1.488h-4.182v3.836h-1.772v-9.332h6.18v1.492h-4.408z" fill="#fff"/></g><defs><linearGradient id="paint0_linear" x1="45" y1="12" x2="45" y2="76" gradientUnits="userSpaceOnUse"><stop stop-color="#fff"/><stop offset="1" stop-color="#EBEBEB"/></linearGradient><filter id="filter0_d" x="-7" y="0" width="104" height="104" filterUnits="userSpaceOnUse" color-interpolation-filters="sRGB"><feFlood flood-opacity="0" result="BackgroundImageFix"/><feColorMatrix in="SourceAlpha" values="0 0 0 0 0 0 0 0 0 0 0 0 0 0 0 0 0 0 127 0" result="hardAlpha"/><feOffset dy="8"/><feGaussianBlur stdDeviation="10"/><feComposite in2="hardAlpha" operator="out"/><feColorMatrix values="0 0 0 0 0 0 0 0 0 0 0 0 0 0 0 0 0 0 0.35 0"/><feBlend in2="BackgroundImageFix" result="effect1_dropShadow"/><feBlend in="SourceGraphic" in2="effect1_dropShadow" result="shape"/></filter></defs></svg>