<svg width="90" height="104" fill="none" xmlns="http://www.w3.org/2000/svg"><g filter="url(#filter0_d)"><path d="M24.835 12c-2.2 0-4 1.8-4 4v56c0 2.2 1.8 4 4 4h40.33c2.2 0 4-1.8 4-4V25.902L55.269 12H24.835z" fill="url(#paint0_linear)"/><path d="M55.263 25.9h13.9L55.27 12h-.006v13.9z" fill="#999"/><path opacity=".25" d="M20.835 60.572V50.82h11.264l-11.264 9.752z" fill="#fff"/><path d="M69.155 49.82h-48.32v1h48.32v-1zM69.155 66.44h-48.32v1h48.32v-1z" fill="#848484"/><path fill="#179F5E" d="M21 51h48v15H21z"/><path d="M37.149 54l-2.8 4.52 2.986 4.812h-2.078l-1.34-2.242c-.206-.346-.4-.698-.588-1.052l-.192-.37-.2-.364h-.026l-.198.372c-.236.446-.506.918-.806 1.414l-1.348 2.242h-2.132l3.062-4.812L28.645 54h2.114l1.244 2.078c.198.328.38.652.552.972l.172.328.172.328h.028l.17-.328.17-.322c.146-.284.328-.606.546-.97L35.059 54h2.09zM39.877 54v7.746h4.376v1.586h-6.146V54h1.77zM52.073 56.722h-1.73a2.385 2.385 0 01-.012-.192c-.042-.526-.158-.854-.35-.988-.192-.134-.642-.204-1.354-.204-.838 0-1.386.078-1.642.234-.258.154-.386.48-.386.976 0 .588.104.942.312 1.058.21.12.902.21 2.08.274 1.39.078 2.29.278 2.696.596.41.318.614.982.614 1.99 0 1.238-.242 2.04-.718 2.402-.48.362-1.534.542-3.166.542-1.466 0-2.442-.178-2.922-.534-.48-.356-.72-1.076-.72-2.16l-.006-.342h1.722l.006.2c0 .65.116 1.048.342 1.196.226.148.85.218 1.866.218.792 0 1.3-.084 1.52-.254.218-.168.328-.556.328-1.168 0-.452-.086-.75-.25-.898-.168-.148-.526-.238-1.078-.27l-.976-.062c-1.476-.086-2.42-.292-2.83-.616-.41-.324-.616-1.018-.616-2.084 0-1.09.248-1.816.74-2.178.496-.364 1.484-.544 2.964-.544 1.404 0 2.35.168 2.838.5.488.332.73.982.73 1.95v.358h-.002zM61.39 54l-2.801 4.52 2.988 4.812h-2.078l-1.34-2.242a22.71 22.71 0 01-.59-1.052l-.192-.37-.198-.364h-.028l-.198.372a30.43 30.43 0 01-.808 1.414L54.8 63.332h-2.132l3.062-4.812L52.887 54h2.112l1.246 2.078c.196.328.378.652.552.972l.17.328.172.328h.028c.078-.146.134-.256.172-.328l.17-.322c.146-.284.328-.606.546-.97L59.299 54h2.092z" fill="#fff"/></g><defs><linearGradient id="paint0_linear" x1="45" y1="12" x2="45" y2="76" gradientUnits="userSpaceOnUse"><stop stop-color="#fff"/><stop offset="1" stop-color="#EBEBEB"/></linearGradient><filter id="filter0_d" x="-7" y="0" width="104" height="104" filterUnits="userSpaceOnUse" color-interpolation-filters="sRGB"><feFlood flood-opacity="0" result="BackgroundImageFix"/><feColorMatrix in="SourceAlpha" values="0 0 0 0 0 0 0 0 0 0 0 0 0 0 0 0 0 0 127 0" result="hardAlpha"/><feOffset dy="8"/><feGaussianBlur stdDeviation="10"/><feComposite in2="hardAlpha" operator="out"/><feColorMatrix values="0 0 0 0 0 0 0 0 0 0 0 0 0 0 0 0 0 0 0.35 0"/><feBlend in2="BackgroundImageFix" result="effect1_dropShadow"/><feBlend in="SourceGraphic" in2="effect1_dropShadow" result="shape"/></filter></defs></svg>