<svg width="90" height="104" fill="none" xmlns="http://www.w3.org/2000/svg"><g filter="url(#filter0_d)"><path d="M24.835 12c-2.2 0-4 1.8-4 4v56c0 2.2 1.8 4 4 4h40.33c2.2 0 4-1.8 4-4V25.902L55.269 12H24.835z" fill="url(#paint0_linear)"/><path d="M55.263 25.9h13.9L55.27 12h-.006v13.9z" fill="#999"/><path opacity=".25" d="M20.835 60.572V50.82h11.264l-11.264 9.752z" fill="#fff"/><path d="M69.155 49.82h-48.32v1h48.32v-1zM69.155 66.44h-48.32v1h48.32v-1z" fill="#848484"/><path fill="#1B52BC" d="M21 51h48v15H21z"/><path d="M27.821 63.28v-9.332h4.588c1.302 0 2.216.286 2.736.856.524.57.786 1.568.786 2.994 0 2.328-.21 3.824-.628 4.488-.42.662-1.368.994-2.838.994h-4.644zm1.772-1.49h2.522c.848 0 1.396-.196 1.644-.584.25-.39.374-1.25.374-2.582 0-1.376-.112-2.25-.334-2.624-.224-.374-.748-.558-1.574-.558h-2.632v6.348zM41.1 53.866c1.695 0 2.785.284 3.273.846s.73 1.822.73 3.776c0 2.138-.244 3.484-.734 4.042-.488.556-1.676.834-3.558.834-1.696 0-2.79-.276-3.288-.824-.498-.548-.744-1.758-.744-3.624 0-2.224.242-3.622.73-4.192.488-.57 1.684-.858 3.59-.858zm-.139 1.518c-1.192 0-1.886.152-2.086.458-.2.306-.3 1.364-.3 3.172 0 1.34.118 2.146.352 2.42.234.274.926.41 2.074.41 1.1 0 1.758-.154 1.976-.46.218-.308.328-1.24.328-2.798 0-1.564-.104-2.488-.31-2.774-.208-.286-.884-.428-2.034-.428zM52.061 59.952h1.778v.32c0 1.298-.236 2.138-.71 2.52-.472.38-1.522.57-3.144.57-1.84 0-2.972-.3-3.396-.902-.424-.602-.636-2.21-.636-4.826 0-1.542.29-2.552.864-3.04.574-.484 1.774-.728 3.602-.728 1.33 0 2.218.202 2.666.6.448.398.67 1.19.67 2.376l.006.212h-1.778v-.24c0-.612-.114-1.002-.344-1.172-.23-.172-.756-.256-1.576-.256-1.098 0-1.758.132-1.978.402-.22.27-.332 1.066-.332 2.392 0 1.788.1 2.844.296 3.172.2.328.84.492 1.926.492.878 0 1.45-.092 1.71-.274.26-.182.394-.584.394-1.204l-.018-.414zM62.815 53.948l-2.802 4.52 2.988 4.812h-2.078l-1.34-2.242a22.71 22.71 0 01-.59-1.052l-.192-.37-.198-.364h-.028l-.198.372a30.43 30.43 0 01-.808 1.414l-1.346 2.242h-2.132l3.062-4.812-2.844-4.52h2.112l1.246 2.078c.196.328.378.652.552.972l.17.328.172.328h.028c.078-.146.134-.256.172-.328l.17-.322c.146-.284.328-.606.546-.97l1.244-2.086h2.094z" fill="#fff"/></g><defs><linearGradient id="paint0_linear" x1="45" y1="12" x2="45" y2="76" gradientUnits="userSpaceOnUse"><stop stop-color="#fff"/><stop offset="1" stop-color="#EBEBEB"/></linearGradient><filter id="filter0_d" x="-7" y="0" width="104" height="104" filterUnits="userSpaceOnUse" color-interpolation-filters="sRGB"><feFlood flood-opacity="0" result="BackgroundImageFix"/><feColorMatrix in="SourceAlpha" values="0 0 0 0 0 0 0 0 0 0 0 0 0 0 0 0 0 0 127 0" result="hardAlpha"/><feOffset dy="8"/><feGaussianBlur stdDeviation="10"/><feComposite in2="hardAlpha" operator="out"/><feColorMatrix values="0 0 0 0 0 0 0 0 0 0 0 0 0 0 0 0 0 0 0.35 0"/><feBlend in2="BackgroundImageFix" result="effect1_dropShadow"/><feBlend in="SourceGraphic" in2="effect1_dropShadow" result="shape"/></filter></defs></svg>