<svg width="42" height="42" fill="none" xmlns="http://www.w3.org/2000/svg"><g clip-path="url(#clip0)" filter="url(#filter0_i)" fill="#727171"><path d="M16.917 23.059a.7.7 0 10-1.387.188c.74 5.46-1.23 10.974-5.268 14.753a.7.7 0 00.957 1.022c4.369-4.088 6.499-10.055 5.698-15.963zm-10.144.817a.74.74 0 00-.028-.096 14.79 14.79 0 01-.258-2.197.7.7 0 10-1.399.057 16.2 16.2 0 00.304 2.515.64.64 0 00.027.095 6.931 6.931 0 01-2.336 6.56.7.7 0 00.905 1.068 8.332 8.332 0 002.785-8.002zm3.935 5.576a.7.7 0 00-.907.399 12.071 12.071 0 01-3.596 4.96.7.7 0 10.887 1.083 13.49 13.49 0 004.015-5.536.7.7 0 00-.4-.906zM4.2 9.61a.697.697 0 00.978-.153 19.537 19.537 0 0111.948-7.65c4.27-.861 8.59-.304 12.49 1.61a.699.699 0 10.617-1.256C26.053.109 21.426-.487 16.85.435A20.93 20.93 0 004.048 8.632a.7.7 0 00.152.978zM1.808 24.88c-.003-.017-.015-.03-.02-.047-.871-4.374-.261-8.778 1.768-12.742a.7.7 0 10-1.247-.637c-2.182 4.261-2.834 9-1.886 13.703.006.026.02.047.028.071.057.277.117.55.184.822a.7.7 0 001.36-.335c-.068-.275-.13-.554-.187-.835z"/><path d="M17.85 5.403C11.366 6.71 6.442 11.767 5.309 18.285a.701.701 0 001.38.24C7.72 12.58 12.212 7.97 18.128 6.775c7.85-1.58 15.52 3.516 17.102 11.364.004.022.01.043.016.064.127.635.236 1.264.325 1.87a.7.7 0 001.385-.204 39.179 39.179 0 00-.35-2.006.752.752 0 00-.017-.067C34.825 9.228 26.433 3.673 17.85 5.402z"/><path d="M26.667 19.865a5.744 5.744 0 00-2.469-3.674 5.75 5.75 0 00-4.343-.853 5.779 5.779 0 00-4.52 4.49.7.7 0 101.37.286 4.379 4.379 0 013.427-3.403 4.36 4.36 0 013.291.646 4.353 4.353 0 011.854 2.703.87.87 0 00.011.084c.355 1.757.537 3.55.542 5.329a.7.7 0 00.7.698h.002a.7.7 0 00.698-.701 28.757 28.757 0 00-.551-5.515.82.82 0 00-.012-.09z"/><path d="M21.689 20.87a.7.7 0 00-1.373.277c1.377 6.832-.475 13.758-5.082 19.002a.702.702 0 00.526 1.162.7.7 0 00.526-.237c4.898-5.576 6.867-12.94 5.402-20.204zm19.893-4.012c-.004-.02-.018-.037-.025-.058a20.893 20.893 0 00-8.5-12.97.699.699 0 10-.805 1.147 19.504 19.504 0 017.946 12.16c.004.019.015.033.02.052a19.73 19.73 0 01.378 4.215.7.7 0 00.687.713h.014a.7.7 0 00.7-.687 21.193 21.193 0 00-.415-4.572z"/><path d="M31.636 18.864a10.777 10.777 0 00-4.633-6.894 10.783 10.783 0 00-8.15-1.6c-5.865 1.183-9.676 6.918-8.493 12.783.009.042.02.08.035.119.225 1.17.275 2.355.148 3.527a.7.7 0 00.622.772.707.707 0 00.77-.622 13.352 13.352 0 00-.19-4.075.706.706 0 00-.035-.117c-.956-5.067 2.351-9.992 7.42-11.014a9.388 9.388 0 017.098 1.393 9.391 9.391 0 014.026 5.96l.007.046c.779 3.856.852 7.766.217 11.617a.7.7 0 001.382.227 33.547 33.547 0 00-.217-12.076.404.404 0 00-.008-.046zm4.921 3.603a.7.7 0 00-.654.743 37.116 37.116 0 01-1.18 11.91.7.7 0 101.353.36A38.497 38.497 0 0037.3 23.121a.695.695 0 00-.743-.655zm-5.889 10.888a.697.697 0 00-.857.495 32.36 32.36 0 01-2.164 5.79.7.7 0 001.259.614 33.717 33.717 0 002.257-6.042.698.698 0 00-.495-.857z"/><path d="M26.432 27.993a.701.701 0 00-.775.616 27.332 27.332 0 01-4.589 12.283.7.7 0 101.156.79 28.724 28.724 0 004.825-12.914.7.7 0 00-.617-.775z"/></g><defs><clipPath id="clip0"><path fill="#fff" d="M0 0h42v42H0z"/></clipPath><filter id="filter0_i" x="0" y="0" width="42" height="43" filterUnits="userSpaceOnUse" color-interpolation-filters="sRGB"><feFlood flood-opacity="0" result="BackgroundImageFix"/><feBlend in="SourceGraphic" in2="BackgroundImageFix" result="shape"/><feColorMatrix in="SourceAlpha" values="0 0 0 0 0 0 0 0 0 0 0 0 0 0 0 0 0 0 127 0" result="hardAlpha"/><feOffset dy="1"/><feGaussianBlur stdDeviation=".5"/><feComposite in2="hardAlpha" operator="arithmetic" k2="-1" k3="1"/><feColorMatrix values="0 0 0 0 0 0 0 0 0 0 0 0 0 0 0 0 0 0 0.67 0"/><feBlend in2="shape" result="effect1_innerShadow"/></filter></defs></svg>