<svg width="28" height="28" fill="none" xmlns="http://www.w3.org/2000/svg"><g clip-path="url(#clip0)" fill="#FFE06D"><path d="M23.886 4.113a13.936 13.936 0 00-19.773 0 13.936 13.936 0 000 19.773 13.936 13.936 0 0019.773 0 13.936 13.936 0 000-19.773zM14 26.356C7.185 26.356 1.643 20.813 1.643 14S7.186 1.644 13.999 1.644c6.814 0 12.357 5.543 12.357 12.356 0 6.814-5.543 12.357-12.357 12.357z"/><path d="M18.027 9.46a.82.82 0 10-1.089 1.226A4.434 4.434 0 0118.428 14 4.434 4.434 0 0114 18.429 4.434 4.434 0 019.57 14a4.43 4.43 0 011.515-3.335.82.82 0 10-1.08-1.235A6.07 6.07 0 007.932 14 6.076 6.076 0 0014 20.07 6.076 6.076 0 0020.069 14a6.075 6.075 0 00-2.042-4.54z"/><path d="M14 12.633a.82.82 0 00.82-.82V7.439a.82.82 0 00-1.64 0v4.374c0 .453.367.82.82.82z"/></g><defs><clipPath id="clip0"><path fill="#fff" d="M0 0h28v28H0z"/></clipPath></defs></svg>