<svg width="209" height="209" fill="none" xmlns="http://www.w3.org/2000/svg"><path d="M86.13 209v-18.777c-13.507 0-24.491-10.985-24.491-24.493 0-13.507 10.984-24.492 24.492-24.492v-18.369H51.904l2.912-8.18a12 12 0 00.7-4.066c0-6.751-5.496-12.246-12.246-12.246-6.751 0-12.247 5.495-12.247 12.246 0 1.399.233 2.768.7 4.066l2.912 8.18H0C3.038 168.625 40.375 205.962 86.13 209z" fill="#fff" fill-opacity=".1"/><path d="M43.27 86.13c13.507 0 24.492 10.985 24.492 24.493H86.13V76.396l8.18 2.912c7.54 2.685 16.306-3.402 16.312-11.546-.006-8.15-8.766-14.285-16.312-11.547l-8.18 2.912V25.211C40.375 28.249 3.038 64.867 0 110.623h18.777c0-13.508 10.985-24.492 24.492-24.492zm140.519 36.739H165.73c0 13.508-10.984 24.492-24.492 24.492-13.508 0-24.492-10.984-24.492-24.492H98.377v34.227l-8.18-2.912c-7.57-2.721-16.318 3.396-16.312 11.546-.006 8.151 8.748 14.268 16.312 11.547l8.18-2.912V209c45.756-3.038 82.374-40.375 85.412-86.131z" fill="#fff" fill-opacity=".1"/><path d="M184.1 49.393V24.9h-24.493c0-13.507-10.984-24.9-24.492-24.9-13.508 0-24.492 11.393-24.492 24.9H98.377v18.37c13.508 0 24.492 10.984 24.492 24.492 0 13.508-10.984 24.492-24.492 24.492v18.369h34.227l-2.912 8.18a11.976 11.976 0 00-.7 4.066c0 6.751 5.495 12.246 12.246 12.246s12.246-5.495 12.246-12.246a12 12 0 00-.699-4.066l-2.912-8.18H184.1V98.377c13.507 0 24.9-10.984 24.9-24.492 0-13.508-11.393-24.492-24.9-24.492z" fill="#fff" fill-opacity=".1"/></svg>