<?xml version="1.0" encoding="utf-8"?>
<!-- Generator: Adobe Illustrator 22.1.0, SVG Export Plug-In . SVG Version: 6.00 Build 0)  -->
<svg version="1.1" id="Layer_1" xmlns="http://www.w3.org/2000/svg" xmlns:xlink="http://www.w3.org/1999/xlink" x="0px" y="0px"
	 viewBox="0 0 512 512" style="enable-background:new 0 0 512 512;" xml:space="preserve" fill="#fff">
<path d="M503.8,229.8L465,213.2c-1.7-8.3-3.9-16.5-6.6-24.5l25.3-33.9c2.8-3.9,3.3-9,1.2-13.3c-2.2-4.5-4.7-9-7.2-13.4
	c-2.7-4.8-5.4-9.1-8.1-13.1c-2.7-4-7.4-6.1-12.2-5.5l-42.1,4.9c-5.5-6.3-11.5-12.2-17.8-17.8l4.9-42.1c0.6-4.7-1.5-9.3-5.4-12
	c-4.1-2.8-8.4-5.5-13.1-8.1c-4.4-2.6-9-5-13.7-7.3c-4.3-2-9.3-1.5-13.2,1.3l-33.8,25.3c-8.1-2.6-16.3-4.8-24.6-6.5L282.2,8.3
	c-1.8-4.4-6-7.5-10.8-7.8C266,0.1,260.6,0,256,0s-10,0.1-15.2,0.5c-4.8,0.3-9.1,3.2-11,7.7L213.2,47c-8.3,1.7-16.5,3.9-24.5,6.6
	l-33.9-25.3c-3.9-2.8-9-3.3-13.3-1.2c-4.5,2.2-9,4.7-13.4,7.2c-4.8,2.7-9.1,5.4-13.1,8.1c-4,2.7-6.1,7.4-5.5,12.2l4.9,42.1
	c-6.3,5.5-12.2,11.5-17.8,17.8l-42.1-4.9c-4.7-0.6-9.4,1.5-12,5.4c-2.8,4.1-5.5,8.4-8.1,13.1c-2.6,4.4-5,9-7.3,13.7
	c-2,4.3-1.5,9.3,1.3,13.2l25.3,33.8c-2.6,8.1-4.8,16.3-6.5,24.6L8.3,229.8c-4.4,1.8-7.5,6-7.8,10.8C0.1,246,0,251.4,0,256
	s0.1,10,0.5,15.2c0.3,4.8,3.2,9.1,7.7,11L47,298.8c1.7,8.3,3.9,16.5,6.6,24.6l-25.3,33.9c-2.8,3.9-3.3,9-1.2,13.3
	c2.2,4.5,4.7,9,7.2,13.4c2.7,4.8,5.4,9.1,8.1,13.1c2.7,4,7.4,6.1,12.2,5.5l30.7-3.6v69.5c-0.2,23.8,18.9,43.3,42.7,43.5h256
	c23.8-0.3,42.9-19.7,42.7-43.5V399l30.8,3.6c0.5,0.1,1,0.1,1.5,0.1c4.2,0,8.2-2,10.6-5.5c2.8-4.1,5.5-8.4,8.1-13.1
	c2.6-4.4,5-9,7.3-13.7c2-4.3,1.5-9.4-1.3-13.2l-25.3-33.8c2.6-8.1,4.8-16.3,6.5-24.6l38.7-16.6c4.4-1.8,7.5-6,7.8-10.8
	c0.5-5.5,0.5-10.9,0.5-15.4s-0.1-10-0.5-15.2C511.2,236,508.2,231.7,503.8,229.8z M409.6,468.5c0.2,14.4-11.2,26.2-25.6,26.5H128
	c-14.4-0.3-25.8-12.1-25.6-26.5V197.1c-0.2-14.4,11.2-26.2,25.6-26.5h256c14.4,0.3,25.8,12.1,25.6,26.5V468.5z M166.1,153.6
	c51.3-45.5,128.5-45.5,179.8,0H166.1z M494.6,267.5L456.2,284c-4,1.6-6.8,5.1-7.6,9.3c-1.8,8.9-4.1,17.7-7,26.3
	c-1.6,4.1-0.9,8.7,1.7,12.1l25.1,33.6c-1.7,3.4-3.6,6.8-5.6,10.2c-1.9,3.5-3.9,6.7-5.9,9.7l-30.3-3.5V197.1
	c0.2-23.8-18.9-43.3-42.7-43.5h-13.9c-29-32.6-70.5-51.2-114.1-51.2s-85.1,18.6-114.1,51.2H128c-23.8,0.3-42.9,19.7-42.7,43.5v184.7
	l-30.3,3.5c-2-3-4-6.3-6-9.8c-2-3.4-3.8-6.8-5.6-10.1l25-33.5c2.6-3.3,3.3-7.8,1.9-11.8c-2.9-8.7-5.3-17.6-7.1-26.7
	c-0.7-4.2-3.5-7.7-7.4-9.3l-38.6-16.5c-0.2-4-0.3-8-0.3-11.5s0-7.4,0.3-11.5L55.8,228c4-1.6,6.9-5.2,7.6-9.4
	c1.8-8.9,4.1-17.7,7-26.3c1.6-4.1,0.9-8.7-1.7-12.1l-25.1-33.5c1.8-3.4,3.6-6.8,5.6-10.2c1.9-3.5,3.9-6.7,5.9-9.7l41.7,4.9
	c4.2,0.5,8.4-1.1,11.2-4.3c6-7,12.5-13.5,19.5-19.5c3-2.8,4.6-6.9,4.1-10.9l-4.9-41.8c3-2,6.3-4,9.8-6c3.4-2,6.8-3.8,10.1-5.6
	l33.5,25c3.3,2.6,7.8,3.3,11.8,1.9c8.7-2.9,17.6-5.3,26.7-7.1c4.2-0.7,7.7-3.5,9.3-7.4l16.5-38.6c7.7-0.5,15.4-0.5,23,0l16.5,38.4
	c1.6,4,5.1,6.8,9.3,7.6c8.9,1.8,17.7,4.1,26.3,7c4.1,1.6,8.7,0.9,12.1-1.7l33.6-25.1c3.4,1.8,6.8,3.6,10.2,5.6
	c3.5,1.9,6.7,3.9,9.7,5.9l-4.9,41.7c-0.5,4.2,1.1,8.4,4.3,11.2c7,6,13.5,12.5,19.5,19.5c2.8,3,6.9,4.6,10.9,4.1l41.8-4.9
	c2,3,4,6.3,6,9.8c2,3.4,3.8,6.8,5.6,10.1l-25,33.5c-2.6,3.3-3.3,7.8-1.9,11.8c2.9,8.7,5.3,17.6,7.1,26.7c0.7,4.2,3.5,7.7,7.4,9.3
	l38.6,16.5c0.3,4.1,0.3,8.1,0.3,11.6S494.9,263.4,494.6,267.5z"/>
<path d="M145.1,426.7h-8.5c-4.7,0-8.5,3.8-8.5,8.5c0,4.7,3.8,8.5,8.5,8.5h8.5c4.7,0,8.5-3.8,8.5-8.5
	C153.6,430.5,149.8,426.7,145.1,426.7z"/>
<path d="M238.9,426.7h-59.7c-4.7,0-8.5,3.8-8.5,8.5c0,4.7,3.8,8.5,8.5,8.5h59.7c4.7,0,8.5-3.8,8.5-8.5
	C247.5,430.5,243.6,426.7,238.9,426.7z"/>
<path d="M281.6,426.7h-8.5c-4.7,0-8.5,3.8-8.5,8.5c0,4.7,3.8,8.5,8.5,8.5h8.5c4.7,0,8.5-3.8,8.5-8.5
	C290.1,430.5,286.3,426.7,281.6,426.7z"/>
<path d="M375.5,426.7h-59.7c-4.7,0-8.5,3.8-8.5,8.5c0,4.7,3.8,8.5,8.5,8.5h59.7c4.7,0,8.5-3.8,8.5-8.5
	C384,430.5,380.2,426.7,375.5,426.7z"/>
<path d="M145.1,460.8h-8.5c-4.7,0-8.5,3.8-8.5,8.5c0,4.7,3.8,8.5,8.5,8.5h8.5c4.7,0,8.5-3.8,8.5-8.5
	C153.6,464.6,149.8,460.8,145.1,460.8z"/>
<path d="M238.9,460.8h-59.7c-4.7,0-8.5,3.8-8.5,8.5c0,4.7,3.8,8.5,8.5,8.5h59.7c4.7,0,8.5-3.8,8.5-8.5
	C247.5,464.6,243.6,460.8,238.9,460.8z"/>
<path d="M281.6,460.8h-8.5c-4.7,0-8.5,3.8-8.5,8.5c0,4.7,3.8,8.5,8.5,8.5h8.5c4.7,0,8.5-3.8,8.5-8.5
	C290.1,464.6,286.3,460.8,281.6,460.8z"/>
<path d="M375.5,460.8h-59.7c-4.7,0-8.5,3.8-8.5,8.5c0,4.7,3.8,8.5,8.5,8.5h59.7c4.7,0,8.5-3.8,8.5-8.5
	C384,464.6,380.2,460.8,375.5,460.8z"/>
<path d="M366.9,187.7H145.1c-9.4,0-17.1,7.6-17.1,17.1v85.3c0,9.4,7.6,17.1,17.1,17.1h221.9c9.4,0,17.1-7.6,17.1-17.1v-85.3
	C384,195.4,376.4,187.7,366.9,187.7z M145.1,209l89.4,38.5L145.1,286V209z M178.5,204.8h155L256,238.2L178.5,204.8z M256,256.8
	l77.5,33.4h-155L256,256.8z M277.6,247.5l89.4-38.5v77L277.6,247.5z"/>
<path d="M243.4,330.4c0-0.1-0.1-0.1-0.1-0.1c-0.6-0.6-1.1-1.3-1.8-1.8c-0.2-0.2-0.5-0.4-0.7-0.6c-3-2.3-6.6-3.6-10.4-3.7h-85.3
	c-9.4,0-17.1,7.6-17.1,17.1v51.2c0,4.7,2,9.2,5.4,12.4c0.2,0.2,0.4,0.4,0.6,0.5c3.1,2.7,7,4.2,11.1,4.2h85.3
	c9.4,0,17.1-7.6,17.1-17.1v-51.2C247.4,337.3,246,333.5,243.4,330.4L243.4,330.4z M211.2,341.3l-66.2,43.4v-43.4H211.2z
	 M164.3,392.5l66.1-43.4v43.4H164.3z"/>
<path d="M380,330.4c0-0.1-0.1-0.1-0.1-0.1c-0.6-0.6-1.1-1.3-1.8-1.8c-0.2-0.2-0.5-0.4-0.7-0.6c-3-2.4-6.6-3.6-10.4-3.7h-85.3
	c-9.4,0-17.1,7.6-17.1,17.1v51.2c0,4.7,2,9.2,5.4,12.4c0.2,0.2,0.4,0.4,0.6,0.5c3.1,2.7,7,4.2,11.1,4.2h85.3
	c9.4,0,17.1-7.6,17.1-17.1v-51.2C384,337.3,382.6,333.5,380,330.4L380,330.4z M347.8,341.3l-66.2,43.4v-43.4H347.8z M300.8,392.5
	l66.1-43.4v43.4H300.8z"/>
</svg>
