<?xml version="1.0" encoding="utf-8"?>
<!-- Generator: Adobe Illustrator 22.1.0, SVG Export Plug-In . SVG Version: 6.00 Build 0)  -->
<svg version="1.1" id="Capa_1" xmlns="http://www.w3.org/2000/svg" xmlns:xlink="http://www.w3.org/1999/xlink" x="0px" y="0px"
	 viewBox="0 0 512 457.1" style="enable-background:new 0 0 512 457.1;" xml:space="preserve">
<style type="text/css">
	.st0{fill:#44C868;}
	.st1{fill:#4CE166;}
	.st2{fill:#FFDB56;}
	.st3{fill:#A8EEFC;}
	.st4{fill:#FFBB24;}
	.st5{fill:#FF4A4A;}
	.st6{fill:#E7343F;}
	.st7{fill:#1EA4E9;}
</style>
<g>
	<path class="st0" d="M511.9,448.2l-40.2-221.6c-0.4-2.2-1.8-4.1-3.7-5.2l-101.2-56.3c-1.3-0.7-2.8-1-4.2-0.9l18.4,237.6l-0.6,0.3
		l121.2,54.4c1,0.4,2,0.7,3.1,0.7c1.7,0,3.3-0.5,4.6-1.6C511.3,453.8,512.4,451,511.9,448.2z"/>
	<path class="st0" d="M256,218.9L152.5,165c-1.2-0.6-2.6-0.9-4-0.8c0.4,0,0.7,0,1.1,0l-18.4,237.6l121.8,54.6c1,0.4,2,0.7,3.1,0.7
		l0,0V218.9z"/>
</g>
<g>
	<path class="st1" d="M149.6,164.2c-1.4-0.1-2.9,0.2-4.2,0.9L44.1,221.4c-2,1.1-3.3,3-3.7,5.2L0.1,448.2c-0.5,2.7,0.6,5.5,2.8,7.3
		c1.3,1.1,3,1.6,4.6,1.6c1,0,2.1-0.2,3.1-0.7l120.5-54.1L149.6,164.2z"/>
	<path class="st1" d="M362.4,164.2c-1,0.1-2,0.3-2.9,0.8L256,218.9v238.2c0,0,0,0,0,0c1,0,2.1-0.2,3.1-0.7l121.8-54.6L362.4,164.2z"
		/>
</g>
<polygon class="st2" points="28.2,293.8 20,338.8 141,274.9 143.8,238.6 144.3,232.6 "/>
<path class="st3" d="M142.1,260.8l-1.1,14.1L20,338.8L0.1,448.2c-0.5,2.7,0.6,5.5,2.8,7.3c1.3,1.1,3,1.6,4.6,1.6
	c1,0,2.1-0.2,3.1-0.7l120.5-54.1L142.1,260.8L142.1,260.8z"/>
<g>
	<polygon class="st4" points="256,248.6 144.3,232.6 141,274.9 256,449.6 256,386 187.4,278 256,286.2 	"/>
	<polygon class="st4" points="459.9,217 411.3,189.9 365.3,200.7 365.8,208.1 368.1,237.4 	"/>
</g>
<polygon class="st2" points="372.2,290.1 367.8,233.9 367.8,233.9 365.3,200.7 256,248.6 256,286.2 327.4,255.1 "/>
<path class="st4" d="M511.9,448.2l-10.1-55.7L368.1,237.4l4.1,52.7l137.1,165.2C511.4,453.6,512.4,450.9,511.9,448.2z"/>
<path class="st5" d="M256.5,0c-58,0-105.1,47.1-105.1,105c0,35.8,17,74.3,50.6,114.3c24.6,29.4,48.9,48.3,50,49.1
	c1.4,1,3,1.6,4.6,1.6c1.6,0,3.2-0.5,4.6-1.6c1-0.8,25.3-19.7,50-49.1c33.5-40,50.6-78.5,50.6-114.3C361.6,47.1,314.4,0,256.5,0z
	 M295.4,105c0,21.5-17.4,38.9-38.9,38.9s-38.9-17.4-38.9-38.9s17.4-38.9,38.9-38.9C278,66.1,295.4,83.6,295.4,105z"/>
<path class="st6" d="M256.5,0c-4.6,0-9.1,0.3-13.6,0.9c51.6,6.7,91.6,50.8,91.6,104.2c0,35.8-17,74.3-50.6,114.3
	c-15.8,18.9-31.5,33.5-41,41.7c5.3,4.6,8.6,7.2,9,7.4c1.4,1,3,1.6,4.6,1.6c1.6,0,3.2-0.5,4.6-1.6c1-0.8,25.3-19.7,50-49.1
	c33.5-40,50.6-78.5,50.6-114.3C361.6,47.1,314.4,0,256.5,0z"/>
<path class="st2" d="M259.1,456.4l45.3-20.3L256,386v71c0,0,0,0,0,0C257,457.1,258.1,456.9,259.1,456.4z"/>
<g>
	<path class="st7" d="M471.7,226.6c-0.4-2.2-1.8-4.1-3.7-5.2l-8-4.4l-91.8,20.5l0,0l133.7,155.1L471.7,226.6z"/>
	<path class="st7" d="M256,457.1C256,457.1,256,457.1,256,457.1v-7.5L141,274.9l-9.8,126.9l121.8,54.6
		C253.9,456.9,255,457.1,256,457.1z"/>
</g>
</svg>
