<?xml version="1.0" encoding="utf-8"?>
<!-- Generator: Adobe Illustrator 22.1.0, SVG Export Plug-In . SVG Version: 6.00 Build 0)  -->
<svg version="1.1" id="Layer_1" xmlns="http://www.w3.org/2000/svg" xmlns:xlink="http://www.w3.org/1999/xlink" x="0px" y="0px"
	 viewBox="0 0 441.8 512" style="enable-background:new 0 0 441.8 512;" xml:space="preserve">
<style type="text/css">
	.st0{fill:#DD9F68;}
	.st1{fill:#405968;}
	.st2{fill:#273C47;}
	.st3{fill:#6ADBBD;}
	.st4{fill:#A6F7E0;}
	.st5{fill:#4FBF9F;}
	.st6{fill:#FFC994;}
</style>
<path class="st0" d="M37,154.4c-20.4,0-37,16.6-37,37s16.6,37,37,37c-20.4,0-37,16.6-37,37s16.6,37,37,37h53.2V151.7L37,154.4z"/>
<path class="st0" d="M158,455.6c2.7,3.1,5.5,6.2,8.4,9.1c29.2,29.2,69.5,47.3,114.1,47.3c89.1,0,161.3-72.2,161.3-161.3"/>
<path class="st1" d="M335.2,29.9v362.2h-65.5c2.2,4.4,4.7,8.7,7.6,12.7c3.8,5.3,6,11.6,6,18.2v2.3c0,16.8-13.6,30.4-30.4,30.4h-186
	c-16.5,0-29.9-13.4-29.9-29.9V29.9C37,13.4,50.4,0,66.9,0h238.5C321.9,0,335.2,13.4,335.2,29.9z"/>
<path class="st2" d="M92.9,455.6h-26c-16.5,0-29.9-13.4-29.9-29.9V29.9C37,13.4,50.4,0,66.9,0h26C76.4,0,63,13.4,63,29.9v395.9
	C63,442.3,76.4,455.6,92.9,455.6z"/>
<path class="st3" d="M37,45.8h298.2v325.5H37V45.8z"/>
<path class="st4" d="M300.5,45.8L37,309.4V175.9L167.1,45.8H300.5z"/>
<path class="st4" d="M335.2,70.5v66.7L101.1,371.4H37v-2.6L335.2,70.5z"/>
<path class="st5" d="M37,45.8h26v325.5H37V45.8z"/>
<path class="st2" d="M37,39h12.6v339.3H37V39z"/>
<path class="st4" d="M309.2,45.8h26v325.5h-26V45.8z"/>
<path class="st1" d="M322.6,39h12.6v339.3h-12.6V39z"/>
<path class="st6" d="M238.1,163.2c-15.1,15.1-15.1,39.7,0,54.9l58.5,58.5c-5.1,3.8-10,8.2-14.4,13.2c-29.7,33.5-29.1,89.4,1.1,122.3
	c35.1,38.2,94.4,39.5,131.2,3.8c18.3-17.8,27.4-41.5,27.3-65.2c0-23.8-9.2-47.8-27.3-65.9L292.9,163.2
	C277.8,148.1,253.2,148.1,238.1,163.2z"/>
<path class="st0" d="M296.6,276.6l-58.5-58.5c-7.6-7.6-11.4-17.5-11.4-27.4s3.8-19.9,11.4-27.4c-1.2,1.2-1.7,2.9-1.7,5
	c0,7.6,7.4,20.4,19.3,32.3l41,41C306.3,251.2,306.3,266.9,296.6,276.6z"/>
<path class="st0" d="M415.5,414.9c-0.3,0.3-0.7,0.7-1,1c-27.5,26.8-67.8,50.4-101,35.6c-11.1-4.9-21.4-29.8-30.1-39.4
	c-30.3-32.9-30.8-88.8-1.1-122.3c1.2-1.3,2.3-2.6,3.6-3.8c-0.6,0.7-1.3,1.4-1.8,2.1c-16,19.8-3.5,63.8,27.3,96.1
	c35.8,37.6,82.6,51.4,103.6,31.3C415.1,415.3,415.3,415.1,415.5,414.9z"/>
<g>
	<path class="st2" d="M210.1,418.9h-47.9c-3.5,0-6.3-2.8-6.3-6.3s2.8-6.3,6.3-6.3h47.9c3.5,0,6.3,2.8,6.3,6.3
		S213.5,418.9,210.1,418.9z"/>
	<path class="st2" d="M210.1,31.3h-47.9c-3.5,0-6.3-2.8-6.3-6.3s2.8-6.3,6.3-6.3h47.9c3.5,0,6.3,2.8,6.3,6.3S213.5,31.3,210.1,31.3z
		"/>
</g>
</svg>
