<?xml version="1.0" encoding="utf-8"?>
<!-- Generator: Adobe Illustrator 22.1.0, SVG Export Plug-In . SVG Version: 6.00 Build 0)  -->
<svg version="1.1" id="Capa_1" xmlns="http://www.w3.org/2000/svg" xmlns:xlink="http://www.w3.org/1999/xlink" x="0px" y="0px"
	 viewBox="0 0 32 32" style="enable-background:new 0 0 32 32;" xml:space="preserve">
		<path d="M31,2.6l-0.9-0.9C29,0.6,27.4,0,25.5,0C20.7,0,14.4,3.4,8.9,8.9c-8,7.9-11.1,17.2-7.2,21.2L2.6,31c0.7,0.7,1.6,1,2.5,1
		s1.8-0.4,2.5-1l3.6-3.6c1.4-1.4,1.4-3.6,0-5l-0.9-0.9c-1-1-0.5-3.4,3.6-7.6c3.5-3.5,5.5-4,6.4-4c0.5,0,0.8,0.1,1.1,0.4l0.9,0.9
		c1.3,1.3,3.7,1.3,5,0L31,7.6c0.7-0.7,1-1.6,1-2.5C32,4.2,31.7,3.3,31,2.6z M29.6,6.2L26,9.8c-0.6,0.6-1.6,0.6-2.2,0l-0.9-0.9
		c-0.7-0.7-1.6-1-2.6-1c-2.1,0-4.8,1.6-7.9,4.6c-6.3,6.3-4.6,9.4-3.6,10.4l0.9,0.9c0.6,0.6,0.6,1.6,0,2.2l-3.6,3.6
		c-0.6,0.6-1.6,0.6-2.2,0l-0.9-0.9c-3-3,0.3-11.4,7.2-18.3c5-5,11-8.3,15.2-8.3c1.4,0,2.5,0.4,3.2,1.1L29.6,4
		C29.8,4.3,30,4.7,30,5.1C30,5.5,29.9,5.9,29.6,6.2z"/>
</svg>
