<svg xmlns="http://www.w3.org/2000/svg" xmlns:xlink="http://www.w3.org/1999/xlink" viewBox="0 0 311 58.8" style="enable-background:new 0 0 311 58.8;" xml:space="preserve" fill="rgba(255,255,255,0.6)">
<path class="st0" d="M33,40.9c4.1,1.9,7.8,0.4,10.3-3.3c0.4-0.6,0.8-1.4,1.2-2.4c-3.3,6.9-9.3-8.6-15.7-9.2
	C16.3,24.9,0.1,56.3,0,57.7C6.2,51.4,26.4,24.1,33,40.9L33,40.9z"/>
<path class="st1" d="M46,31.6c-0.7,1.7-1.8,4.6-2.7,6c-2.5,3.7-6.1,5.2-10.3,3.3c1.2,3.1,3.2,12.7,8.4,13.1
	c5.2,0.4,12.7-20.7,15.6-25.3c3.7-5.8,6.4-3,9,0.8c4.2,6.2,12.6,15.1,20.4,8.5c1.3-1.1,2.2-2.8,2.1-4.9c-2.6,2.8-5.7,2.9-8.7,0.7
	c-6.1-4.5-10.2-14.4-13.8-21.2C61.3,3.9,59,6,54.7,13.4c-0.9,1.7-1.9,3.5-2.8,5.3c-2.1,4.2-4.1,8.5-5.8,12.6
	C46.1,31.4,46,31.5,46,31.6L46,31.6z"/>
<path class="st2" d="M37.3,19.8l0,0.1L37.3,20c-0.2,0.8-0.8,1.3-1.4,1.8c0,0-0.1,0.1-0.1,0.1c0,0,0,0-0.1,0.1c0,0,0,0,0,0L35.7,22
	l-0.2,0c-0.2,0.1-0.4,0-0.6-0.1c-0.1-0.1-0.2-0.2-0.3-0.3c-0.1-0.1-0.2-0.2-0.3-0.3c-0.1-0.1-0.3-0.3-0.4-0.4
	c-0.1-0.2-0.2-0.4-0.3-0.6c-0.1-0.3-0.1-0.5-0.1-0.8c0-0.5,0-1,0-1.5c0-0.2,0-0.4,0.1-0.6c0.2-0.2,0.4-0.2,0.6-0.2l0,0l0,0
	c0.3,0,0.4-0.1,0.7-0.3c0.1-0.1,0.3-0.2,0.4-0.2c0.2,0,0.3,0,0.5,0.1c0.2,0.2,0.5,0.3,0.7,0.4c0.2,0,0.5,0.1,0.7,0.2
	c0.2,0.1,0.2,0.3,0.2,0.5c0,0.3,0,0.6,0,1c0,0.1,0,0.3,0,0.4c0,0.1,0,0.2,0,0.2C37.3,19.7,37.3,19.7,37.3,19.8L37.3,19.8z"/>
<path class="st3" d="M48.7,18.5h2.4c0,0.1-0.1,0.2-0.1,0.3l0,0l0,0c-0.7,1.6-1.5,3.2-2.2,4.9V18.5L48.7,18.5z"/>
<path class="st4" d="M44.9,18.9h1.7l0.1,0.3c0,0.1,0,0.2,0.1,0.3c0,0.1,0,0.1,0.1,0.1c0.1,0.1,0.4,0.2,0.6,0.3l0.2,0.1l0,0.2
	c0,1.4-0.3,3.1-1.8,3.7L45.7,24l-0.1-0.1c-1.5-0.6-1.8-2.3-1.8-3.7l0-0.2l0.2-0.1c0.2-0.1,0.4-0.2,0.6-0.3c0.1,0,0.1-0.1,0.1-0.1
	c0-0.1,0-0.2,0.1-0.3L44.9,18.9L44.9,18.9z"/>
<path class="st4" d="M41,15.9c-0.1-0.1-0.2-0.2-0.3-0.2c0,0-0.1,0-0.1,0c-0.1,0-0.1,0.1-0.1,0.1c0,0-0.1,0-0.1,0.1h0.4H41L41,15.9z"
	/>
<path class="st4" d="M39.3,16.9C39.3,16.9,39.3,16.9,39.3,16.9c-0.1-0.1-0.2-0.2-0.2-0.2c-0.1-0.1-0.2-0.3-0.2-0.4l0-0.3l0.2,0
	l0.4-0.2l0,0c0,0,0,0,0,0c0,0,0-0.1,0-0.1c0-0.1,0-0.2,0-0.3c0.1-0.4,0.3-0.5,0.7-0.5c0.4,0,0.9,0.1,1.2,0.3c0.1,0,0.1,0.1,0.2,0.2
	c0,0,0,0.1,0.1,0.1l0,0l0,0c0,0,0,0.1,0.1,0.1c0,0.1,0.1,0.1,0.1,0.2c0.3,0.6,0.1,1.4-0.6,1.7c-0.2,0.1-0.5,0.2-0.8,0.2c0,0,0,0,0,0
	c0.1,0,0.2,0.1,0.2,0.2c0.3,0.3,0.3,0.7,0,0.9c0,0-0.1,0.1-0.2,0.1c0,0,0,0,0.1,0c0.2,0.1,0.3,0.2,0.4,0.3c0.1,0.1,0.1,0.2,0.1,0.3
	c0,0.1,0,0.3-0.1,0.4l0.1,0.2h-0.3L41,20.1L40.9,20L39,20l0.4-0.4c0.1-0.1,0.3-0.2,0.3-0.2c0,0,0,0,0.1,0c0,0-0.1,0-0.1-0.1l0,0l0,0
	c0,0,0,0,0,0c-0.1-0.1-0.1-0.1-0.1-0.2c-0.1-0.1,0-0.3,0-0.4c0.1-0.1,0.2-0.3,0.4-0.3v0c-0.1,0-0.2-0.1-0.3-0.1c0,0-0.1,0-0.1,0
	c0,0,0,0,0,0l-0.1,0l0-0.1c0,0-0.1-0.1-0.1-0.1c-0.2-0.2-0.2-0.5-0.1-0.8C39.2,17,39.2,16.9,39.3,16.9L39.3,16.9z"/>
<path class="st5" d="M37.6,32.3v-2.7H37l0-1.3l-0.4,0c0.3-0.2,0.7-0.4,1-0.6v-15h0h-0.8h-0.6h-0.8h-0.6h-0.8h-0.6H33h-0.2V21
	l1.7,0.8l0.6,0.3h-0.6h-0.9v0.5v0.1h-0.1H33l0.1,4.6C34.8,28.7,36.2,30.6,37.6,32.3L37.6,32.3z M37.2,12.6c-0.1,0-0.1-0.1-0.2-0.1
	c-0.1,0-0.2-0.1-0.3-0.1l-1-0.5c-0.1,0-0.5-0.2-0.5-0.3l-1.8,0.9c0,0-0.1,0-0.1,0h-0.7c0,0,0.1,0,0.1-0.1c0.1,0,0.1-0.1,0.2-0.1
	c0.7-0.3,1.4-0.7,2-1c0.1-0.1,0.2-0.1,0.3-0.2c0,0,0.3,0.1,0.3,0.2l1,0.5c0.2,0.1,0.4,0.2,0.7,0.3c0,0,0.5,0.2,0.6,0.3H37.2
	L37.2,12.6z M33.6,12.6c0.1-0.1,0.3-0.2,0.4-0.2c0.2-0.1,1.2-0.6,1.3-0.6c0,0,0.4,0.2,0.4,0.2c0.1,0,1,0.5,1.2,0.6H33.6L33.6,12.6z"
	/>
<path class="st2" d="M35.3,17.9C35.3,17.9,35.3,17.9,35.3,17.9c-0.3,0.2-0.6,0.4-0.8,0.4c-0.1,0-0.1,0-0.1,0.2c0,0.1,0,0.2,0,0.3
	c0,0.2,0,0.4,0,0.6c0,0.5,0.1,0.6,0.3,1c0.1,0.1,0.2,0.2,0.3,0.3l0.2,0.1c0.2,0.1,0.1,0.2,0.4,0c0.3-0.2,0.6-0.5,0.7-0.9
	c0.1-0.2,0.1-0.3,0.1-0.6c0-0.3,0-0.6,0-0.9c0-0.3,0,0-0.6-0.3C35.7,18.1,35.5,18,35.3,17.9C35.4,17.9,35.4,17.9,35.3,17.9
	L35.3,17.9z M34.1,17.7c-0.4,0-0.4,0-0.3,0.4c0,0.5,0,1,0,1.5c0,0.3,0,0.4,0.1,0.6c0.1,0.2,0.2,0.4,0.3,0.5c0.1,0.2,0.2,0.3,0.4,0.4
	c0.1,0.1,0.5,0.4,0.6,0.5c0.2,0.1,0.2,0.1,0.3,0.1c0,0,0,0,0.1,0c0,0,0,0,0.1,0c0,0,0.1-0.1,0.1-0.1c0.5-0.4,1.1-0.9,1.2-1.6
	c0-0.1,0-0.1,0-0.1c0,0,0-0.2,0-0.2c0-0.1,0-0.2,0-0.2c0-0.1,0-0.3,0-0.4c0-0.4,0-0.6,0-0.9c0-0.1,0-0.2-0.1-0.3
	c-0.1,0-0.4-0.1-0.5-0.1c-0.3-0.1-0.6-0.2-0.9-0.4c-0.2-0.1-0.2,0-0.4,0.1C34.8,17.5,34.6,17.6,34.1,17.7L34.1,17.7z M35.3,17.6
	c-0.1,0-0.3,0.2-0.4,0.3c-0.2,0.1-0.4,0.1-0.6,0.2c-0.1,0-0.1,0.1-0.1,0.3c0,0.1,0,0.2,0,0.4c0,0.2,0,0.5,0,0.7
	c0,0.5,0.1,0.8,0.4,1.1c0,0,0.1,0.1,0.1,0.1c0,0,0.1,0.1,0.1,0.1c0.1,0.1,0.3,0.3,0.4,0.4c0.2,0.2,0.2,0.1,0.5-0.1
	c0.3-0.3,0.7-0.6,0.8-1c0.1-0.2,0.1-0.4,0.1-0.7c0-0.2,0-0.5,0-0.7c0-0.1,0-0.3,0-0.4c0-0.2,0-0.2-0.2-0.2c-0.2,0-0.4-0.1-0.6-0.2
	C35.6,17.8,35.4,17.6,35.3,17.6L35.3,17.6z M34.8,18.9c0.1,0,0.2,0.1,0.3,0.2c0.1,0.1,0,0.2-0.1,0.3c0,0.1,0,0.1,0.1,0.1
	c0.1,0,0.2-0.2,0.3-0.2c0.1,0,0.2,0.1,0.3,0.2c0.1,0,0.1,0,0.1,0c0-0.1-0.1-0.3-0.1-0.4c0,0,0.1-0.1,0.2-0.1c0,0,0.1,0,0.1,0
	c0.1-0.1,0.1-0.1,0-0.1c-0.1,0-0.1,0-0.2,0c-0.2,0-0.2,0-0.3-0.2c0-0.1-0.1-0.3-0.2-0.1c0,0.1-0.1,0.3-0.1,0.3
	C35.1,18.8,35,18.8,34.8,18.9C34.8,18.8,34.7,18.8,34.8,18.9L34.8,18.9z"/>
<path class="st6" d="M42,36.2h0.6c0.1,0,0.2,0,0.3-0.1c0.2-0.1,0.5-0.4,0.7-0.9h-0.1l-0.1,0h-0.2l-3.1,0
	C40.8,35.8,41.4,36.1,42,36.2L42,36.2z M41.4,29.7h-0.2V30l0.2,0l0,0.1h-0.2v0.3h0.2l0,0.7l0.3,0v-0.7l1.1,0l0-0.3l-1.1,0l0-0.1
	c0,0,0.1,0,0.2,0h0.5c0.4,0,0.7-0.1,0.9-0.4c0.1-0.2,0.1-0.4,0.1-0.6c0-0.4-0.3-0.6-0.7-0.6c-0.2,0-0.4,0-0.6,0h-0.5
	c-0.1,0-0.1,0-0.2,0L41.4,29.7L41.4,29.7z M41.7,29.7c0.2,0,0.3,0,0.5,0c0.1,0,0.3,0,0.4,0c0.3-0.1,0.4-0.2,0.4-0.5
	c0-0.3-0.2-0.5-0.4-0.5c-0.1,0-0.3,0-0.4,0c-0.2,0-0.3,0-0.5,0L41.7,29.7L41.7,29.7z M43.7,34.9h-3.9c-0.7-0.6-1.4-1.5-2.1-2.4
	l0-2.4l0,0v-0.3h0.3v-0.3h-0.9l0-1h0.1v-0.3h0c0.1-0.1,1.2-0.8,1.3-0.8c0.4-0.3,0.9-0.5,1.3-0.8l2.6-1.6c0.2,0.1,0.4,0.3,0.7,0.4
	c1.2,0.8,2.5,1.5,3.7,2.3c-0.5,1.2-1.1,2.5-1.6,3.7C45.1,31.9,44.4,33.7,43.7,34.9L43.7,34.9z M38.8,28.1h0.6
	c0.5-0.3,2.2-1.4,2.3-1.5c0.1-0.1,0.8-0.5,0.8-0.5c0,0,2.1,1.3,2.4,1.5c0.1,0.1,0.5,0.3,0.7,0.4h0.6c-0.1,0-0.1-0.1-0.2-0.1
	l-3.6-2.2c-0.1,0-0.8,0.5-1,0.6l-2,1.2c-0.2,0.1-0.3,0.2-0.5,0.3C39,27.9,38.9,28,38.8,28.1L38.8,28.1z"/>
<path class="st7" d="M43.1,16h5.3v-1.9L43.1,15L43.1,16L43.1,16z M48.2,24.7v-8.5H48h-0.6h-0.6H46h-0.6h-0.8H44h-0.8v1.5v1.1v1.5
	v1.1v1.5v1.1v1.2l3.8,2.3C47.4,26.5,47.8,25.6,48.2,24.7L48.2,24.7z"/>
<path class="st8" d="M42.1,7.4C42,7.3,42,7.2,41.9,7.1c-0.1-0.1-0.1-0.3-0.2-0.4l-0.9-1.5c-0.1-0.1-0.4-0.7-0.4-0.8l-1.6,2.8
	c0,0,0,0.1-0.1,0.1h-0.6c0-0.1,0.1-0.1,0.1-0.2c0-0.1,0.1-0.2,0.1-0.3c0.6-1,1.2-2,1.7-3.1c0.1-0.2,0.2-0.4,0.3-0.5
	c0,0,0.2,0.4,0.3,0.5l0.9,1.5c0.2,0.3,0.4,0.7,0.6,1c0,0.1,0.4,0.7,0.5,0.9H42.1L42.1,7.4z M42.7,7.7h-4.6v19.7
	c0.2-0.1,0.3-0.2,0.5-0.3l4-2.5l0.2,0.1V7.7L42.7,7.7z M40.5,0.2c0.9-0.2,0.1,1,0,1.3c0.5-0.2,0.4-0.3,1.1-0.2c0.2,0,1,0.2,1.2,0.2
	c-0.3-0.6-0.2-0.7,0-1.4c-0.5,0.2-0.8,0.1-1.3,0C41.1,0.1,40.7-0.1,40.5,0.2L40.5,0.2z M41.6,5l-0.7-1.3C40.8,3.6,40.4,3,40.4,3
	l-1.2,2V4c0.3-0.5,0.6-1,0.9-1.5c0.1-0.1,0.2-0.3,0.2-0.4V0.2h0.1V2c0.1,0.1,0.2,0.4,0.2,0.4l0.9,1.5V5L41.6,5z M39,7.4
	c0.1-0.2,0.3-0.5,0.3-0.5c0.1-0.3,1.1-1.9,1.1-1.9c0,0,0.3,0.5,0.4,0.6c0.1,0.1,0.8,1.4,1,1.8H39L39,7.4z"/>
<path class="st2" d="M45.7,23l-0.2-1.4L45,21.9l0.3-0.6l-0.9-0.2l0.9-0.2L45,20.5l0.5,0.2c-0.2,0.1-0.3,0.2-0.3,0.4
	c0,0.3,0.2,0.5,0.5,0.5c0.3,0,0.5-0.2,0.5-0.5c0-0.2-0.1-0.4-0.3-0.4l0.5-0.2L46.2,21l0.9,0.2l-0.9,0.2l0.3,0.6l-0.6-0.3L45.7,23
	L45.7,23z M45.5,20.7l0.2-1.1l0.2,1.1c-0.1,0-0.1,0-0.2,0C45.6,20.7,45.6,20.7,45.5,20.7L45.5,20.7z M45.7,20.8l0.2,0.3l0.2,0.3
	h-0.3h-0.3l0.2-0.3L45.7,20.8L45.7,20.8z M45.7,19.3h-0.6c-0.1,0.3,0,0.6-1,0.9c0,1.3,0.2,2.8,1.5,3.4c1.3-0.5,1.6-2.1,1.5-3.4
	c-1-0.3-0.9-0.6-1-0.9H45.7L45.7,19.3z"/>
<path class="st2" d="M39.6,16c0.1,0,0.1,0,0.2,0c0,0.1,0.1,0.1,0.2,0.1c0-0.1-0.1-0.2,0-0.3c0.1,0,0.3-0.1,0.4-0.2
	c0.1-0.1,0.2-0.2,0.4-0.2c0.3,0,0.5,0.3,0.6,0.5c0.1,0.3,0.1,0.6-0.1,0.8c-0.2,0.1-0.3,0.2-0.6,0.2c-0.1,0-0.2,0-0.3,0l0,0.4
	c0,0,0.2,0,0.2,0c0.2,0,0.5-0.1,0.7-0.1c0.5-0.2,0.7-0.9,0.5-1.4c-0.1-0.2-0.1-0.2-0.1-0.3c-0.1-0.1-0.1-0.1-0.2-0.2
	c-0.3-0.2-0.6-0.3-1-0.3c-0.3,0-0.4,0.1-0.5,0.4c-0.1,0.2,0,0.3,0,0.4C39.8,15.9,39.7,16,39.6,16L39.6,16L39.6,16L39.6,16z
	 M40.1,18.8c0,0,0.2,0.1,0.2,0.1l0-0.6c0,0-0.2-0.1-0.2-0.1L40.1,18.8L40.1,18.8z M40.8,19.7c0,0-0.4-0.2-0.5-0.2l0-0.1l-0.2-0.1
	l0,0.2c-0.1,0-0.5,0.3-0.5,0.3L40.8,19.7C40.8,19.7,40.8,19.7,40.8,19.7L40.8,19.7z M39.7,19c0.1,0.1,0.2,0.1,0.3,0.1
	c0.2,0.1,0.5,0.1,0.7,0.2c0.2,0.1,0.2,0.2,0.2,0.3c0,0,0-0.2,0-0.2c0-0.1,0-0.1-0.1-0.2c-0.1-0.1-0.2-0.2-0.3-0.2
	c-0.1-0.1-0.3-0.1-0.4-0.1c-0.1,0-0.1,0-0.2-0.1c-0.2-0.1-0.1-0.1-0.1-0.1l0-0.3c-0.1,0-0.3,0.1-0.3,0.2c0,0.1-0.1,0.1,0,0.2
	C39.6,19,39.7,19,39.7,19L39.7,19z M39.5,17.8C39.5,17.8,39.5,17.8,39.5,17.8c0.1,0,0.1,0.1,0.1,0.1c0.2,0.1,0.7,0.2,0.8,0.3
	c0,0.1,0,0.1,0,0.1l0,0.3c0.1,0,0.2-0.1,0.3-0.1c0.2-0.2,0.1-0.4,0-0.5c-0.2-0.2-0.6-0.3-0.8-0.4c-0.2-0.1-0.3-0.2,0-0.2
	c0,0,0.2,0,0.2,0l0-0.4h-0.1c0,0-0.1,0-0.2,0c-0.2,0-0.3,0.1-0.4,0.2c-0.1,0.2-0.1,0.3,0.1,0.5C39.4,17.8,39.5,17.8,39.5,17.8
	L39.5,17.8z M39.5,16.7c0.1,0,0.1,0.1,0.2,0.1c0,0,0.1,0,0.1,0c0,0,0.1,0,0.2,0l0,0.6l0.2,0.1c0-0.1,0-0.7,0-0.7c0,0,0.1,0,0.2,0
	c0.3-0.1,0.6-0.4,0.8-0.7c0,0,0,0,0,0l-0.5,0h-0.5c-0.4,0-0.7,0-1.1,0c0,0.1,0.1,0.2,0.2,0.3C39.4,16.6,39.4,16.6,39.5,16.7
	C39.5,16.7,39.5,16.7,39.5,16.7L39.5,16.7z M40.1,15.3c-0.1,0-0.1,0.2,0.1,0.2C40.3,15.5,40.2,15.3,40.1,15.3L40.1,15.3z"/>
<path class="st9" d="M29.4,19.6l4.6,2.3h-1v0.5h-0.4l0.1,4.4c-2.2-1.7-4.1-2-6.7-1.3l0-3.2h-0.2v-0.5h-1L29.4,19.6L29.4,19.6z
	 M30.4,24.6c0.1-0.1,0.3-0.2,0.3-0.2c0.1-0.1,0.2-0.2,0.2-0.2c0.2-0.3,0.4-0.5,0.5-0.9c0-0.1,0.1-0.2,0-0.3c-0.1,0-0.3,0-0.5-0.1
	c-0.2,0-0.4-0.1-0.6-0.2c-0.1,0-0.2-0.1-0.2-0.2L30,22.6c-0.2-0.2-0.3-0.4-0.4,0.1c-0.1,0.4-0.2,0.8-0.2,1.3c0,0.3,0.1,0.5,0.3,0.6
	l0,0c0,0,0,0,0.1,0C29.9,24.7,30.2,24.7,30.4,24.6L30.4,24.6z M29.1,21.3c-0.1,0.1-0.2,0.1-0.4,0.2c-0.2,0.1-0.3,0.1-0.5,0.1
	c-0.1,0-0.3-0.1-0.4,0c-0.1,0-0.1,0.1-0.1,0.2c0,0.1,0.2,0.5,0.2,0.6c0,0.1,0.1,0.2,0.1,0.3c0.1,0.1,0.1,0.2,0.2,0.2
	c0.2,0.2,0.5,0.5,0.8,0.5c0.1,0,0.3,0,0.3-0.1c0-0.2,0.2-0.7,0.3-0.9c0.1-0.1,0.1-0.1,0.2-0.1c0,0,0,0,0,0c0-0.3-0.1-0.6-0.2-0.9
	C29.5,20.9,29.4,21.1,29.1,21.3L29.1,21.3z M28.1,22.3c0.1,0,0.1-0.1,0.2-0.1c0.1,0,0.3,0,0.3,0c0-0.1-0.2-0.2-0.3-0.1
	c-0.1,0-0.1,0.1-0.2,0.1C28.1,22.2,28.1,22.2,28.1,22.3L28.1,22.3z M29,22.1c0,0,0.1-0.1,0.1-0.1c0.1-0.1,0.2-0.1,0.3-0.1
	c0.1,0,0.2,0,0.1,0c-0.1-0.1-0.3-0.1-0.4,0.1C29,22,29,22,29,22.1L29,22.1z M29.3,22.5c-0.1,0-0.2,0.1-0.4,0.2c-0.1,0-0.2,0-0.3,0
	c-0.1,0,0,0.1,0.1,0.1c0.2,0.1,0.3,0.1,0.4,0C29.3,22.7,29.4,22.4,29.3,22.5L29.3,22.5z M30.1,23.2c0,0-0.2,0.1-0.3,0
	c-0.1,0-0.2-0.1-0.2-0.1c0,0.1,0.1,0.2,0.2,0.2C30,23.4,30.1,23.3,30.1,23.2L30.1,23.2z M30.5,23.4c0,0,0,0.3,0.3,0.3
	c0.1,0,0.1,0,0.2-0.1c0,0-0.2,0-0.3-0.1C30.7,23.5,30.6,23.5,30.5,23.4C30.6,23.4,30.5,23.4,30.5,23.4L30.5,23.4z M30.3,24.3
	c0-0.1-0.1-0.3-0.2-0.4c-0.1-0.1-0.3-0.1-0.5,0c-0.1,0-0.1,0.1,0,0.1c0.2,0,0.3,0,0.4,0.1C30.2,24.2,30.3,24.3,30.3,24.3L30.3,24.3z
	 M29.7,20.8c0.2,0.1,0.3,0.3,0.3,0.5c0.1,0.3,0.1,0.6,0.2,1c0.1,0.1,0.2,0.2,0.3,0.3c0.1,0.1,0.3,0.1,0.4,0.1c0.2,0,0.4,0,0.5,0.1
	c0.1,0,0.2,0.1,0.3,0.2c0.1,0.1,0.1,0.3,0,0.4c0,0,0,0.1-0.1,0.1c-0.2,0.3-0.3,0.6-0.6,0.9c-0.1,0.1-0.2,0.2-0.2,0.3
	c-0.7,0.7-1.8,0.4-1.9-0.7c0-0.1,0-0.2,0-0.2c0,0,0,0,0,0c-0.4,0-0.8-0.3-1-0.6c-0.1-0.1-0.1-0.2-0.2-0.3c-0.1-0.1-0.1-0.2-0.2-0.3
	c-0.1-0.2-0.3-0.6-0.2-0.8v0c0-0.1,0-0.2,0.1-0.3c0.1-0.2,0.4-0.2,0.6-0.2c0.1,0,0.1,0,0.2,0c0.1,0,0.2,0,0.4,0
	c0.1,0,0.2-0.1,0.3-0.2C29.2,20.9,29.4,20.7,29.7,20.8L29.7,20.8z"/>
<path class="st10" d="M104.7,49.6V39.5l2.4,2.6c0,0,1.2,1.4,3,1.4c1.8,0,3-1.4,3-1.4l2.4-2.6v10.1c0,2.4,1.8,4.2,4.4,4.2
	c2.6,0,4.4-1.8,4.4-4.2V30.1c0-2.4-1.8-4.2-4.4-4.2c-2.6,0-4.6,2.4-4.6,2.4l-5.2,5.6l-5.2-5.6c0,0-2-2.4-4.6-2.4
	c-2.6,0-4.4,1.8-4.4,4.2v19.5c0,2.4,1.8,4.2,4.4,4.2C102.9,53.8,104.7,52,104.7,49.6L104.7,49.6z M137.8,43.8h5.4
	c2.4,0,4.2-1.8,4.2-4c0-2.2-1.8-4-4.2-4h-5.4v-1.6h8c2.6,0,4.4-1.8,4.4-4.2c0-2.4-1.8-4.2-4.4-4.2h-12.3c-2.6,0-4.4,1.8-4.4,4.2
	v19.5c0,2.4,1.8,4.2,4.4,4.2h12.3c2.6,0,4.4-1.8,4.4-4.2c0-2.4-1.8-4.2-4.4-4.2h-8V43.8L137.8,43.8z M151.7,39.9
	c0,8.4,6.4,14.7,14.7,14.7c7.6,0,13.1-5.6,13.1-12.3V42c0-2.4-1.8-4.2-4.4-4.2h-7.6c-2.6,0-4.4,1.8-4.4,3.8s1.8,3.8,4.4,3.8h2
	c0,0-1.2,1.2-3.2,1.2c-3.2,0-6-2.8-6-6.8c0-4,2.8-6.8,6-6.8c2.4,0,3.8,1.4,4.4,2.4c0.4,0.6,1.4,1.6,3.2,1.6c2.4,0,4.4-2,4.4-4.4
	c0-2.8-4.8-7.6-11.9-7.6C158.1,25.1,151.7,31.5,151.7,39.9L151.7,39.9z M181.4,47.2c0,0-0.6,1.4-0.6,2.4c0,2.4,1.8,4.2,4.6,4.2
	c3.2,0,4.2-3.2,4.2-3.2l0.4-1.2h7.6l0.4,1.2c0,0,1,3.2,4.2,3.2c2.8,0,4.6-1.8,4.6-4.2c0-1-0.6-2.4-0.6-2.4l-7.4-18.5
	c0,0-1.2-3.2-5-3.2c-3.8,0-5,3.2-5,3.2L181.4,47.2L181.4,47.2z M195.5,43h-3.6l1.6-4.8h0.4L195.5,43L195.5,43z"/>
<path class="st11" d="M221,25.3c-2.2,0-3.8,1.6-3.8,3.7v20.9c0,2,1.6,3.7,3.8,3.7c2.2,0,3.9-1.6,3.9-3.7V32.6h4.7v0.8
	c0,2,1.6,3.6,3.8,3.6c2.2,0,3.9-1.8,3.9-3.6V29c0-2-1.6-3.7-3.9-3.7H221L221,25.3z M248.2,37.1v-4.7h4c1.6,0,2.6,1,2.6,2.3
	c0,1.3-1.1,2.3-2.7,2.3H248.2L248.2,37.1z M262.9,34.8c0-5.5-4-9.4-10.7-9.4h-7.9c-2.2,0-3.8,1.6-3.8,3.7v20.9c0,2,1.6,3.7,3.8,3.7
	c2.2,0,3.9-1.6,3.9-3.7v-5.7h4C259,44.2,262.9,40.2,262.9,34.8L262.9,34.8z"/>
<path class="st11" d="M275.9,50.7c0.2,0.7,1.2,2.8,3.7,2.8c2.3,0,4-1.6,4-3.7c0-1-0.6-2.4-0.6-2.4l-7.4-19.5c-0.3-0.7-1.4-3-4.3-3
	c-3,0-4.1,2.2-4.4,3l-7.4,19.5c0,0-0.6,1.4-0.6,2.4c0,2.1,1.6,3.7,3.9,3.7c2.2,0,3.3-1.5,3.8-2.8l0.6-1.8h8.1L275.9,50.7L275.9,50.7
	z M273.5,42.8H269l2-5.9h0.4L273.5,42.8L273.5,42.8z"/>
<path class="st11" d="M296.7,32.6h3v13.6H293L296.7,32.6L296.7,32.6z M282.2,55.1c0,2,1.6,3.7,3.8,3.7c2.2,0,3.8-1.6,3.8-3.7v-1.6
	h13.4v1.6c0,2,1.6,3.7,3.8,3.7c2.2,0,3.8-1.6,3.8-3.7v-5.5c0-1.8-1.6-3.4-3.6-3.4V29c0-2-1.6-3.7-3.8-3.7h-9.1
	c-2.3,0-3.8,1.4-4.4,3.7l-4.7,17.2c-1.5,0-3.1,1.6-3.1,3.4V55.1L282.2,55.1z"/>
<path class="st10" d="M97.8,7.2c-0.9,0-1.5,0.6-1.5,1.4v8.1c0,0.8,0.6,1.4,1.5,1.4c0.9,0,1.5-0.6,1.5-1.4V10h1.8v0.3
	c0,0.8,0.6,1.4,1.5,1.4c0.9,0,1.5-0.7,1.5-1.4V8.6c0-0.8-0.6-1.4-1.5-1.4H97.8L97.8,7.2z"/>
<path class="st10" d="M111.5,12.7c0,1.9-1.1,3-2.4,3c-1.3,0-2.4-1.1-2.4-3c0-1.9,1.1-3,2.4-3C110.4,9.7,111.5,10.8,111.5,12.7
	L111.5,12.7z M114.5,12.7c0-3.4-2.4-5.8-5.4-5.8c-3,0-5.4,2.4-5.4,5.8c0,3.4,2.4,5.8,5.4,5.8C112.1,18.5,114.5,16.1,114.5,12.7
	L114.5,12.7z M119.1,11.8V10h1.6c0.6,0,1,0.4,1,0.9c0,0.5-0.4,0.9-1,0.9H119.1L119.1,11.8z M124.8,10.9c0-2.1-1.5-3.7-4.2-3.7h-3.1
	c-0.9,0-1.5,0.6-1.5,1.4v8.1c0,0.8,0.6,1.4,1.5,1.4c0.9,0,1.5-0.6,1.5-1.4v-2.2h1.6C123.3,14.5,124.8,13,124.8,10.9L124.8,10.9z
	 M133.6,12.7c0,1.9-1.1,3-2.4,3c-1.3,0-2.4-1.1-2.4-3c0-1.9,1.1-3,2.4-3C132.4,9.7,133.6,10.8,133.6,12.7L133.6,12.7z M136.6,12.7
	c0-3.4-2.4-5.8-5.4-5.8c-3,0-5.4,2.4-5.4,5.8c0,3.4,2.4,5.8,5.4,5.8C134.2,18.5,136.6,16.1,136.6,12.7L136.6,12.7z"/>
<path class="st10" d="M141,10h1.1v5.3h-2.6L141,10L141,10z M135.4,18.8c0,0.8,0.6,1.4,1.5,1.4s1.5-0.6,1.5-1.4v-0.6h5.2v0.6
	c0,0.8,0.6,1.4,1.5,1.4c0.9,0,1.5-0.6,1.5-1.4v-2.1c0-0.7-0.6-1.3-1.4-1.3V8.6c0-0.8-0.6-1.4-1.5-1.4h-3.5c-0.9,0-1.5,0.6-1.7,1.4
	l-1.8,6.7c-0.6,0-1.2,0.6-1.2,1.3V18.8L135.4,18.8z M156.2,12.7c0-1.8,1.1-3,2.4-3c0.9,0,1.5,0.5,1.9,1.1c0.2,0.2,0.5,0.6,1.1,0.6
	c0.8,0,1.5-0.7,1.5-1.5c0-1.1-1.8-3-4.5-3c-3.1,0-5.4,2.4-5.4,5.8c0,3.4,2.4,5.8,5.4,5.8c2.7,0,4.5-1.8,4.5-2.9
	c0-0.8-0.7-1.5-1.5-1.5c-0.6,0-1,0.4-1.1,0.6c-0.4,0.6-0.9,1-1.9,1C157.3,15.6,156.2,14.4,156.2,12.7L156.2,12.7z M167.4,8.6
	c0-0.8-0.6-1.4-1.5-1.4c-0.9,0-1.5,0.6-1.5,1.4V11c0,2.2,1.5,3.6,3.9,3.6h1.9v2c0,0.8,0.6,1.4,1.5,1.4c0.9,0,1.5-0.6,1.5-1.4V8.6
	c0-0.8-0.6-1.4-1.5-1.4c-0.9,0-1.5,0.6-1.5,1.4v3.2h-1.9c-0.5,0-0.9-0.3-0.9-0.8V8.6L167.4,8.6z M180.9,17c0.1,0.3,0.5,1.1,1.4,1.1
	c0.9,0,1.5-0.6,1.5-1.4c0-0.4-0.2-0.9-0.2-0.9l-2.9-7.5c-0.1-0.3-0.6-1.1-1.7-1.1c-1.1,0-1.6,0.9-1.7,1.1l-2.9,7.5
	c0,0-0.2,0.5-0.2,0.9c0,0.8,0.6,1.4,1.5,1.4c0.9,0,1.3-0.6,1.5-1.1l0.2-0.7h3.1L180.9,17L180.9,17z M179.9,14h-1.7l0.8-2.3h0.2
	L179.9,14L179.9,14z"/>
<path class="st10" d="M186.9,12.7c0-1.8,1.1-3,2.4-3c0.9,0,1.5,0.5,1.9,1.1c0.2,0.2,0.5,0.6,1.1,0.6c0.8,0,1.5-0.7,1.5-1.5
	c0-1.1-1.8-3-4.5-3c-3.1,0-5.4,2.4-5.4,5.8c0,3.4,2.4,5.8,5.4,5.8c2.7,0,4.5-1.8,4.5-2.9c0-0.8-0.7-1.5-1.5-1.5
	c-0.6,0-1,0.4-1.1,0.6c-0.4,0.6-0.9,1-1.9,1C188,15.6,186.9,14.4,186.9,12.7L186.9,12.7z M197,16.7c0,0.8,0.6,1.4,1.5,1.4
	c0.9,0,1.5-0.7,1.5-1.4V10h1.3c0.9,0,1.5-0.6,1.5-1.4c0-0.8-0.6-1.4-1.5-1.4h-5.7c-0.9,0-1.5,0.6-1.5,1.4c0,0.8,0.7,1.4,1.5,1.4h1.3
	V16.7L197,16.7z"/>
<path class="st10" d="M205.4,7.2c-0.9,0-1.5,0.6-1.7,1.4l-1.8,6.7c-0.6,0-1.4,0.5-1.4,1.4c0,0.8,0.7,1.4,1.5,1.4h0.7
	c0.9,0,1.5-0.6,1.7-1.4l1.8-6.7h1.1v6.7c0,0.8,0.6,1.4,1.5,1.4s1.5-0.7,1.5-1.4V9.2c0-0.9-0.3-1.9-1.5-1.9H205.4L205.4,7.2z
	 M221.7,8.6c0-0.8-0.6-1.4-1.5-1.4c-0.9,0-1.4,0.5-2,1.4l-2.6,4h-0.2v-4c0-0.8-0.6-1.4-1.5-1.4c-0.9,0-1.5,0.6-1.5,1.4v8.1
	c0,0.8,0.6,1.4,1.5,1.4c0.9,0,1.4-0.5,2-1.4l2.6-4h0.2v4c0,0.8,0.6,1.4,1.5,1.4c0.9,0,1.5-0.6,1.5-1.4V8.6L221.7,8.6z M225.2,7.2
	c-0.8,0-1.5,0.6-1.5,1.4v8.1c0,0.8,0.7,1.4,1.5,1.4h3.2c2.7,0,4.2-1.6,4.2-3.2c0-2.2-2.1-2.6-2.1-2.6v-0.2c0,0,1.1-0.4,1.1-2
	c0-1.6-1.4-3-4-3H225.2L225.2,7.2z M229.5,14.6c0,0.5-0.4,0.9-1,0.9h-1.7v-1.7h1.7C229.1,13.7,229.5,14.1,229.5,14.6L229.5,14.6z
	 M226.7,11.3V9.9h1c0.5,0,0.8,0.3,0.8,0.7c0,0.4-0.4,0.7-0.8,0.7H226.7L226.7,11.3z M245.9,8.6c0-0.8-0.6-1.4-1.5-1.4
	c-0.9,0-1.5,0.6-1.5,1.4v8.1c0,0.8,0.6,1.4,1.5,1.4c0.9,0,1.5-0.6,1.5-1.4V8.6L245.9,8.6z M237.8,13.4c0.7,0,1.1,0.4,1.1,1
	c0,0.5-0.4,1-1.1,1h-0.9v-2H237.8L237.8,13.4z M242,14.4c0-2.2-1.5-3.7-4.2-3.7h-0.9v-2c0-0.8-0.6-1.4-1.5-1.4
	c-0.9,0-1.5,0.6-1.5,1.4v8.1c0,0.8,0.6,1.4,1.5,1.4h2.4C240.5,18.1,242,16.6,242,14.4L242,14.4z M251.8,15l1.9,2.5
	c0.2,0.3,0.6,0.7,1.3,0.7c0.8,0,1.4-0.6,1.4-1.4c0-0.7-0.2-0.9-0.3-1.1l-2.3-2.9l2.1-2.7c0.1-0.2,0.4-0.6,0.4-1.3
	c0-0.7-0.6-1.4-1.4-1.4c-0.9,0-1.3,0.7-1.3,0.7l-1.7,2.4l-1.7-2.4c0,0-0.4-0.7-1.3-0.7c-0.8,0-1.4,0.7-1.4,1.4
	c0,0.7,0.3,1.1,0.4,1.3l2.1,2.7l-2.3,2.9c-0.2,0.2-0.3,0.5-0.3,1.1c0,0.8,0.6,1.4,1.4,1.4c0.7,0,1-0.3,1.3-0.7L251.8,15L251.8,15z
	 M268.2,10h1.1v5.3h-2.6L268.2,10L268.2,10z M262.6,18.8c0,0.8,0.6,1.4,1.5,1.4c0.9,0,1.5-0.6,1.5-1.4v-0.6h5.2v0.6
	c0,0.8,0.6,1.4,1.5,1.4c0.9,0,1.5-0.6,1.5-1.4v-2.1c0-0.7-0.6-1.3-1.4-1.3V8.6c0-0.8-0.6-1.4-1.5-1.4h-3.5c-0.9,0-1.5,0.6-1.7,1.4
	l-1.8,6.7c-0.6,0-1.2,0.6-1.2,1.3V18.8L262.6,18.8z M277.8,15.3v-1.3h2.3c0.9,0,1.5-0.6,1.5-1.4c0-0.8-0.6-1.4-1.5-1.4h-2.3V10h3.3
	c0.9,0,1.5-0.6,1.5-1.4c0-0.8-0.6-1.4-1.5-1.4h-4.8c-0.9,0-1.5,0.7-1.5,1.4v8.1c0,0.7,0.7,1.4,1.5,1.4h4.9c0.9,0,1.5-0.6,1.5-1.4
	c0-0.8-0.6-1.4-1.5-1.4H277.8L277.8,15.3z M285.8,16.7c0,0.8,0.6,1.4,1.5,1.4s1.5-0.7,1.5-1.4V10h1.3c0.9,0,1.5-0.6,1.5-1.4
	c0-0.8-0.6-1.4-1.5-1.4h-5.7c-0.9,0-1.5,0.6-1.5,1.4c0,0.8,0.7,1.4,1.5,1.4h1.3V16.7L285.8,16.7z M295.6,15.3v-1.3h2.3
	c0.9,0,1.5-0.6,1.5-1.4c0-0.8-0.6-1.4-1.5-1.4h-2.3V10h3.3c0.9,0,1.5-0.6,1.5-1.4c0-0.8-0.6-1.4-1.5-1.4h-4.8
	c-0.9,0-1.5,0.7-1.5,1.4v8.1c0,0.7,0.7,1.4,1.5,1.4h4.9c0.9,0,1.5-0.6,1.5-1.4c0-0.8-0.6-1.4-1.5-1.4H295.6L295.6,15.3z M306.3,6.2
	c1.6,0,2.6-0.9,2.6-1.8c0-0.6-0.4-1-0.9-1c-0.9,0-0.7,1-1.6,1c-0.9,0-0.7-1-1.6-1c-0.5,0-0.9,0.4-0.9,1
	C303.8,5.3,304.7,6.2,306.3,6.2L306.3,6.2z M311,8.6c0-0.8-0.6-1.4-1.5-1.4c-0.9,0-1.4,0.5-2,1.4l-2.6,4h-0.2v-4
	c0-0.8-0.6-1.4-1.5-1.4c-0.9,0-1.5,0.6-1.5,1.4v8.1c0,0.8,0.6,1.4,1.5,1.4c0.9,0,1.4-0.5,2-1.4l2.6-4h0.2v4c0,0.8,0.6,1.4,1.5,1.4
	c0.9,0,1.5-0.6,1.5-1.4V8.6L311,8.6z"/>
</svg>
