<?xml version="1.0" encoding="utf-8"?>
<!-- Generator: Adobe Illustrator 22.1.0, SVG Export Plug-In . SVG Version: 6.00 Build 0)  -->
<svg version="1.1" id="Layer_1" xmlns="http://www.w3.org/2000/svg" xmlns:xlink="http://www.w3.org/1999/xlink" x="0px" y="0px"
	 viewBox="0 0 327.4 301.3" style="enable-background:new 0 0 327.4 301.3;" xml:space="preserve">
<style type="text/css">
	.st0{fill-rule:evenodd;clip-rule:evenodd;fill:#F37122;}
	.st1{fill-rule:evenodd;clip-rule:evenodd;fill:#ED1C24;}
	.st2{fill-rule:evenodd;clip-rule:evenodd;fill:#FFCB05;}
	.st3{fill-rule:evenodd;clip-rule:evenodd;fill:#FAA74A;}
	.st4{fill-rule:evenodd;clip-rule:evenodd;fill:#B18BB7;}
	.st5{fill-rule:evenodd;clip-rule:evenodd;fill:#54B948;}
	.st6{fill-rule:evenodd;clip-rule:evenodd;fill:#926BA6;}
	.st7{fill-rule:evenodd;clip-rule:evenodd;fill:#0086CB;}
	.st8{fill-rule:evenodd;clip-rule:evenodd;fill:#CBDB2A;}
	.st9{fill:#ED1C24;}
	.st10{fill:#F37021;}
	.st11{fill:#F37122;}
</style>
<path class="st0" d="M123.1,169.2c14.1,6.6,26.4,1.2,34.8-11.2c1.4-2,2.8-4.9,4.2-8c-11.3,23.4-31.6-29-53.4-31.1
	c-42.1-4-97.1,102.5-97.5,107C32.1,204.6,100.9,112.2,123.1,169.2L123.1,169.2z"/>
<path class="st1" d="M167.2,137.7c-2.3,5.8-6.1,15.5-9.3,20.3c-8.4,12.4-20.7,17.7-34.8,11.2c4.2,10.5,10.8,42.9,28.5,44.3
	s42.9-70.1,52.8-85.7c12.4-19.6,21.6-10,30.3,2.9c14.2,21,42.6,51.4,69.3,28.8c4.5-3.8,7.4-9.3,7-16.5c-8.7,9.4-19.3,9.9-29.6,2.3
	c-20.8-15.1-34.7-49-46.8-71.9c-15.7-29.8-23.5-22.6-38.1,2.3c-3.2,5.9-6.4,11.9-9.5,18c-7.1,14.1-13.8,28.7-19.5,42.8
	C167.5,137,167.4,137.3,167.2,137.7L167.2,137.7z"/>
<path class="st2" d="M176.4,93.1h8.2c-0.2,0.3-0.3,0.6-0.5,0.9l0,0.1l0,0.1c-2.5,5.5-5.1,11-7.6,16.4V93.1L176.4,93.1z"/>
<path class="st3" d="M150.3,84.4c-0.3-0.3-0.7-0.6-1.1-0.6c-0.1,0-0.2,0-0.3,0c-0.2,0.1-0.3,0.3-0.5,0.4c-0.1,0.1-0.2,0.1-0.4,0.2
	c0.4,0,0.8,0,1.2,0H150.3L150.3,84.4z"/>
<path class="st4" d="M138.8,140.1V131h-2l0-4.4l-1.3,0c1.1-0.7,2.2-1.4,3.4-2.1V73.8h0h-2.7h-1.9h-2.7h-1.9h-2.7H125H123h-0.6v27.9
	l5.6,2.8l1.9,1h-2.1h-3.2v1.5v0.5h-0.5h-0.9l0.4,15.4C129.2,127.7,134.2,134.3,138.8,140.1L138.8,140.1z M131.1,91
	c-0.1,0-0.2,0.2-0.3,0.2c-0.7,0.6-1.6,1-2.6,1.1c-0.3,0-0.3,0.1-0.3,0.7c0,0.3,0,0.7,0,1c0,0.7,0,1.4,0.1,2.1c0,1.6,0.2,2.2,1,3.2
	c0.3,0.4,0.7,0.8,1,1.1l0.6,0.5c0.6,0.5,0.5,0.5,1.2-0.1c0.9-0.8,2-1.7,2.3-2.9c0.2-0.7,0.2-1.2,0.2-1.9c0-1,0.1-2.1,0-3.1
	c0-1,0-0.1-2-1.1c-0.2-0.1-0.7-0.4-1-0.6C131.4,91.1,131.2,91,131.1,91L131.1,91z M127,90.4c-1.3,0.1-1.2,0-1.2,1.3
	c0,1.7,0.1,3.3,0.2,5c0,0.9,0.1,1.4,0.4,2.2c0.2,0.6,0.6,1.3,0.9,1.7c0.4,0.5,0.7,0.9,1.2,1.4c0.4,0.4,1.6,1.5,2.1,1.8
	c0.6,0.4,0.5,0.3,0.9,0.2c0.1-0.1,0.1-0.1,0.2-0.1c0.1-0.1,0.1-0.1,0.2-0.2c0.1-0.1,0.3-0.2,0.4-0.3c1.7-1.4,3.6-3,4.1-5.3
	c0-0.2,0-0.2,0.1-0.3c0-0.2,0-0.5,0.1-0.7c0-0.3,0-0.5,0-0.8c0-0.5,0-1,0-1.5c0-1.2,0.1-1.9-0.1-3.2c0-0.3,0-0.7-0.2-0.9
	c-0.2-0.2-1.4-0.3-1.8-0.4c-1.2-0.3-1.9-0.8-2.9-1.5c-0.6-0.4-0.8-0.1-1.5,0.3C129.2,89.8,128.6,90.3,127,90.4L127,90.4z M131,90.1
	c-0.3,0.1-0.9,0.7-1.5,1c-0.8,0.4-1.3,0.3-2,0.5c-0.4,0.1-0.4,0.4-0.3,0.9c0,0.4,0,0.8,0,1.2c0,0.8,0.1,1.6,0.1,2.5
	c0,1.6,0.2,2.6,1.2,3.8c0.1,0.1,0.2,0.2,0.3,0.3c0.1,0.1,0.2,0.2,0.3,0.3c0.3,0.3,1,0.9,1.3,1.2c0.7,0.5,0.8,0.5,1.6-0.2
	c1.2-0.9,2.4-1.9,2.9-3.4c0.3-0.7,0.2-1.4,0.3-2.3c0-0.8,0-1.7,0-2.5c0-0.4,0-0.8,0-1.3c0-0.6-0.2-0.5-0.6-0.6
	c-0.8-0.2-1.3-0.2-2-0.6C132,90.7,131.4,90,131,90.1L131,90.1z M129.2,94.5c0.2,0.2,0.6,0.3,0.9,0.6c0.2,0.3-0.1,0.8-0.2,1.2
	c-0.1,0.3-0.1,0.4,0.2,0.2c0.3-0.2,0.8-0.6,1.1-0.6c0.3,0,0.8,0.5,1.2,0.6c0.2,0.1,0.2,0.1,0.2-0.2c-0.1-0.4-0.5-0.9-0.3-1.2
	c0.1-0.2,0.3-0.3,0.5-0.4c0.1-0.1,0.2-0.1,0.3-0.2c0.3-0.2,0.3-0.3-0.1-0.3c-0.2,0-0.4,0-0.6,0c-0.6,0-0.7-0.1-0.9-0.6
	c-0.1-0.2-0.3-1.2-0.5-0.5c-0.1,0.3-0.2,0.9-0.5,1c-0.3,0.1-0.8,0-1.1,0C129.2,94.2,128.9,94.3,129.2,94.5L129.2,94.5z M137.3,73.1
	c-0.2-0.1-0.4-0.2-0.5-0.3c-0.3-0.2-0.6-0.3-0.9-0.4l-3.4-1.7c-0.2-0.1-1.6-0.8-1.7-0.9l-6.3,3.2c-0.1,0-0.2,0.1-0.3,0.2h-2.4
	c0.1-0.1,0.3-0.1,0.4-0.2c0.2-0.1,0.4-0.2,0.6-0.3c2.2-1.2,4.7-2.3,6.8-3.5c0.4-0.2,0.8-0.4,1.2-0.6c0.1,0,1,0.5,1.2,0.6l3.4,1.7
	c0.8,0.4,1.5,0.8,2.3,1.2c0.1,0.1,1.5,0.8,2.1,1H137.3L137.3,73.1z M125.2,73.1c0.4-0.2,1-0.5,1.2-0.6c0.6-0.3,4.2-2.2,4.3-2.2
	c0.1,0,1.3,0.6,1.4,0.7c0.3,0.1,3.3,1.6,4.1,2.1H125.2L125.2,73.1z"/>
<path class="st5" d="M153.5,153.2h1.9c0.4-0.1,0.7-0.1,1.1-0.3c0.7-0.2,1.6-1.4,2.5-3h-0.2l-0.3,0l-0.5,0l-10.4,0
	C149.6,151.7,151.6,152.9,153.5,153.2L153.5,153.2z M151.6,131l-0.8,0l0,1l0.8,0l0,0.4l-0.8,0l0,1l0.8,0l0,2.4l1.1,0l0-2.4l3.8,0
	l0-1l-3.8,0l0-0.4c0.2,0,0.4,0,0.6,0h1.7c1.2,0,2.5-0.2,3.1-1.4c0.3-0.5,0.4-1.3,0.3-1.9c-0.1-1.3-1-2-2.3-2.2
	c-0.7-0.1-1.5-0.1-2.2-0.1h-1.7c-0.2,0-0.4,0-0.6,0L151.6,131L151.6,131z M152.7,131c0.5,0,1,0,1.6,0c0.5,0,1,0,1.5-0.1
	c0.9-0.2,1.4-0.7,1.5-1.7c0-1-0.5-1.5-1.4-1.7c-0.5-0.1-1-0.1-1.5-0.1c-0.5,0-1.1,0-1.6,0L152.7,131L152.7,131z M159.6,148.9
	l-13.2,0c-2.3-2.2-4.6-5-7-8.1l0-8.2l0,0l0-1.2l1,0v-1.1h-2.9l0-3.3h0.4v-1.1l0,0c0.2-0.2,4.1-2.6,4.4-2.8c1.5-0.9,2.9-1.9,4.4-2.8
	l8.9-5.5c0.7,0.4,1.5,0.9,2.2,1.4c4,2.6,8.4,5.2,12.5,7.8c-1.9,4.2-3.6,8.3-5.3,12.6C164.1,138.5,161.8,144.7,159.6,148.9
	L159.6,148.9z M142.8,125.6h2c1.6-1.1,7.4-4.6,7.9-4.9c0.3-0.2,2.6-1.7,2.8-1.7c0.2,0,7.2,4.5,8.3,5.2c0.3,0.2,1.6,1,2.3,1.4h2
	c-0.2-0.1-0.4-0.2-0.5-0.4l-12.1-7.6c-0.3,0.1-2.9,1.8-3.3,2.1l-6.6,4.2c-0.6,0.4-1.1,0.7-1.7,1
	C143.7,125.1,143.2,125.4,142.8,125.6L142.8,125.6z"/>
<path class="st6" d="M157.3,84.5l17.9,0l0-6.4l-17.9,3.1L157.3,84.5L157.3,84.5z M166.2,108.4l-0.6-4.7l-1.9,1l1-1.9l-3.1-0.5
	l3.1-0.7l-0.9-1.7l1.8,0.8c-0.6,0.3-1,0.8-1,1.5c0,0.9,0.7,1.6,1.6,1.6c0.9,0,1.6-0.7,1.6-1.6c0-0.7-0.4-1.2-1-1.5l1.8-0.8l-0.9,1.7
	l3.1,0.7l-3.1,0.5l1,1.9l-1.9-1L166.2,108.4L166.2,108.4z M165.6,100.6l0.6-3.6l0.6,3.6c-0.2-0.1-0.4-0.1-0.6-0.1
	C166,100.5,165.8,100.5,165.6,100.6L165.6,100.6z M166.3,100.9l0.6,1l0.6,1h-1.1h-1.1l0.6-1L166.3,100.9L166.3,100.9z M166.2,95.8
	h-2c-0.3,1.1,0.1,2.1-3.3,3.2c-0.1,4.3,0.7,9.6,5.2,11.5c4.5-1.9,5.4-7.1,5.2-11.5c-3.3-1.1-3-2-3.3-3.2H166.2L166.2,95.8z
	 M174.8,114V85.1h-0.7H172h-2h-2.8h-2h-2.8h-2h-2.8v5.2v3.6v5.2v3.6v5.2v3.6v3.9l12.7,7.9C171.9,120.3,173.3,117.2,174.8,114
	L174.8,114z"/>
<path class="st7" d="M153.9,55.5c-0.2-0.3-0.4-0.7-0.5-0.9c-0.2-0.5-0.5-0.9-0.7-1.3l-3-5.2c-0.2-0.4-1.4-2.5-1.5-2.6l-5.4,9.5
	c-0.1,0.1-0.2,0.3-0.3,0.5h-2c0.1-0.2,0.2-0.4,0.3-0.5c0.2-0.3,0.3-0.6,0.5-0.9c1.9-3.5,4-6.9,5.9-10.4c0.3-0.6,0.7-1.2,1-1.8
	c0.1,0.1,0.8,1.4,1,1.7l3,5.2c0.7,1.1,1.3,2.3,2,3.5c0.1,0.2,1.3,2.3,1.8,3.1H153.9L153.9,55.5z M145.7,84.8c0.4,0,0.3,0.1,0.7-0.1
	c0.1,0.2,0.3,0.4,0.5,0.4c-0.1-0.3-0.3-0.6-0.1-1.1c0.5,0,1-0.4,1.3-0.6c0.4-0.3,0.6-0.6,1.3-0.5c0.9,0.1,1.7,0.9,2.1,1.6
	c0.5,1,0.2,2.1-0.4,2.7c-0.6,0.5-1.2,0.7-2,0.8c-0.3,0-0.6,0-0.9,0.1l0,1.3c0.2,0,0.5,0,0.7,0c0.7,0,1.8-0.2,2.3-0.5
	c1.8-0.8,2.3-3,1.6-4.7c-0.2-0.5-0.3-0.5-0.5-0.9c-0.3-0.4-0.2-0.3-0.7-0.7c-0.9-0.7-2.2-1-3.4-0.9c-1,0.1-1.4,0.3-1.7,1.2
	c-0.2,0.8,0,1.1-0.1,1.3c-0.2,0.5-0.5,0.5-0.8,0.6l-0.1,0L145.7,84.8L145.7,84.8z M147.1,94.1c0.1,0.1,0.7,0.2,0.8,0.2l0-2.1
	c-0.1-0.1-0.6-0.3-0.8-0.3L147.1,94.1L147.1,94.1z M149.5,97.3c-0.1,0-1.3-0.7-1.6-0.8l0-0.4l-0.8-0.2l0,0.6
	c-0.2,0.1-1.7,0.9-1.7,0.9l4.3,0C149.6,97.3,149.6,97.3,149.5,97.3L149.5,97.3z M146,95c0.5,0.3,0.5,0.3,1.1,0.5
	c0.8,0.2,1.9,0.3,2.5,0.8c0.6,0.4,0.6,0.7,0.7,0.9c0.1-0.1,0.1-0.6,0.1-0.8c0-0.2-0.2-0.4-0.3-0.6c-0.2-0.3-0.6-0.5-1.1-0.7
	c-0.4-0.2-0.9-0.3-1.4-0.4c-0.2-0.1-0.5-0.1-0.7-0.2c-0.5-0.2-0.3-0.4-0.2-0.4l0-1c-0.4,0-0.9,0.4-1.2,0.8c-0.1,0.2-0.2,0.5-0.1,0.8
	C145.7,94.8,145.8,94.8,146,95L146,95z M145.1,90.8c0.1,0,0.1,0.1,0.2,0.1c0.1,0,0.2,0.1,0.2,0.1c0.6,0.3,2.5,0.7,2.8,1.1
	c0.2,0.2,0,0.3-0.2,0.4l0,1.1c0.3,0,0.8-0.3,0.9-0.4c0.6-0.5,0.4-1.4-0.1-1.9c-0.6-0.6-2-0.9-2.8-1.2c-0.8-0.3-1.1-0.6-0.1-0.7
	c0.2,0,0.5,0,0.6,0l0-1.3l-0.4,0c-0.1,0.1-0.5,0.1-0.6,0.1c-0.5,0.1-1.1,0.3-1.4,0.8c-0.3,0.5-0.2,1.1,0.2,1.6
	C144.9,90.7,145,90.8,145.1,90.8L145.1,90.8z M145.3,87.1c0.2,0.1,0.3,0.2,0.8,0.4c0.2,0.1,0.3,0.1,0.5,0.2c0.1,0,0.4,0.1,0.5,0.1
	l0,2.2l0.8,0.3c0-0.4-0.1-2.3,0-2.4c0.1,0,0.5-0.1,0.6-0.1c1.2-0.3,2.2-1.2,2.6-2.4c0-0.1-0.1,0-0.2,0l-1.6,0h-1.8
	c-1.2,0-2.4,0-3.6,0c0,0.3,0.4,0.8,0.5,1c0.2,0.2,0.4,0.4,0.6,0.6C145.2,87,145.3,87.1,145.3,87.1L145.3,87.1z M147.2,82.5
	c-0.4,0.2-0.2,0.8,0.2,0.6C147.8,82.9,147.6,82.3,147.2,82.5L147.2,82.5z M156.1,56.6h-15.8v66.9c0.5-0.3,1-0.6,1.5-1l13.6-8.4
	l0.6,0.4V56.6L156.1,56.6z M148.5,31.1c3-0.7,0.4,3.3,0.1,4.3c1.7-0.6,1.3-1,3.7-0.6c0.7,0.1,3.5,0.6,4,0.8
	c-1.1-2.2-0.7-2.3-0.2-4.6c-1.6,0.6-2.7,0.4-4.3,0C150.7,30.6,149.1,29.9,148.5,31.1L148.5,31.1z M152.2,47.4l-2.5-4.3
	c-0.2-0.4-1.4-2.5-1.5-2.6l-3.9,6.9v-3.6c1-1.7,2-3.5,2.9-5.2c0.2-0.5,0.5-0.9,0.8-1.4v-6.2h0.4v6.1c0.3,0.4,0.7,1.2,0.8,1.4l3,5.2
	V47.4L152.2,47.4z M143.5,55.5c0.3-0.6,0.9-1.6,1-1.8c0.5-0.9,3.6-6.5,3.7-6.5c0.1,0,1.1,1.9,1.2,2.1c0.2,0.4,2.8,4.9,3.5,6.2H143.5
	L143.5,55.5z"/>
<path class="st8" d="M110.9,97l15.5,7.8H123v1.8h-1.3l0.3,15.1c-7.4-5.7-13.9-6.6-22.7-4.4l0.1-10.7h-0.8v-1.8h-3.3L110.9,97
	L110.9,97z M114.2,113.9c0.4-0.2,0.9-0.5,1-0.7c0.2-0.2,0.5-0.6,0.7-0.8c0.8-1.1,1.2-1.8,1.8-3c0.2-0.3,0.4-0.8-0.2-0.9
	c-0.4-0.1-1.2-0.1-1.7-0.2c-0.7-0.1-1.4-0.2-1.9-0.6c-0.2-0.1-0.7-0.4-0.8-0.6l-0.2-0.2c-0.7-0.7-1-1.2-1.5,0.2
	c-0.4,1.3-0.8,2.8-0.6,4.3c0.1,0.9,0.4,1.6,0.9,2.2l0.2,0.1c0.1,0,0.1,0.1,0.2,0.1C112.7,114.2,113.6,114.2,114.2,113.9L114.2,113.9
	z M109.8,102.7c-0.4,0.2-0.8,0.5-1.3,0.7c-0.6,0.2-1.1,0.3-1.8,0.2c-0.4,0-1-0.2-1.4-0.1c-0.3,0.1-0.3,0.4-0.3,0.6
	c0.1,0.5,0.5,1.6,0.7,2c0.2,0.3,0.3,0.6,0.5,0.9c0.2,0.3,0.4,0.6,0.6,0.8c0.6,0.8,1.6,1.6,2.6,1.7c0.3,0,0.9-0.1,1.1-0.2
	c0.1-0.7,0.5-2.4,0.9-3c0.3-0.4,0.5-0.4,0.8-0.2c0-0.1,0-0.1,0-0.1c0-1.1-0.3-2.1-0.5-3.2C111.5,101.4,110.9,102.1,109.8,102.7
	L109.8,102.7z M106.5,106c0.2-0.1,0.4-0.3,0.8-0.4c0.5-0.1,0.9,0.2,1,0.1c-0.1-0.2-0.6-0.6-1-0.5c-0.2,0-0.5,0.2-0.6,0.4
	C106.7,105.7,106.6,105.8,106.5,106L106.5,106z M109.6,105.3c0.1,0,0.2-0.2,0.3-0.3c0.3-0.3,0.5-0.4,0.9-0.4c0.2,0,0.6,0,0.2-0.2
	c-0.5-0.3-1.1-0.2-1.4,0.4C109.7,104.9,109.6,105.2,109.6,105.3L109.6,105.3z M110.7,106.7c-0.4,0.1-0.7,0.4-1.4,0.6
	c-0.2,0-0.7,0.1-0.9,0.1c-0.3,0.1,0.1,0.4,0.3,0.5c0.5,0.3,1,0.3,1.5,0C110.7,107.4,111.1,106.5,110.7,106.7L110.7,106.7z
	 M113.5,109.1c-0.1-0.1-0.5,0.2-1,0c-0.4-0.1-0.6-0.4-0.8-0.4c0,0.3,0.4,0.7,0.7,0.8C112.9,109.7,113.4,109.4,113.5,109.1
	L113.5,109.1z M114.7,109.6c-0.1,0.1,0.1,1.1,1,1.1c0.2,0,0.5-0.1,0.6-0.2c-0.1-0.1-0.6,0-1-0.3c-0.1-0.1-0.2-0.2-0.3-0.3
	C115,109.9,114.8,109.6,114.7,109.6L114.7,109.6z M114.2,112.8c0.2-0.3-0.3-1-0.6-1.2c-0.4-0.3-1.1-0.2-1.5,0
	c-0.3,0.2-0.4,0.3,0.1,0.4c0.6,0.1,0.9,0.2,1.4,0.5C113.6,112.6,114,112.8,114.2,112.8L114.2,112.8z M111.9,100.9
	c0.8,0.2,0.9,0.9,1,1.7c0.2,1.1,0.5,2.1,0.6,3.2c0.3,0.3,0.6,0.6,1.1,0.9c0.4,0.2,1,0.3,1.5,0.4c0.6,0.1,1.2,0,1.9,0.2
	c0.5,0.1,0.8,0.4,1,0.8c0.2,0.4,0.3,0.9,0.1,1.3c-0.1,0.2-0.1,0.3-0.2,0.4c-0.6,1.2-1.1,2.1-1.9,3.2c-0.2,0.3-0.5,0.6-0.8,0.9
	c-2.5,2.4-6,1.2-6.5-2.5c0-0.3-0.1-0.5-0.1-0.8c0,0-0.1,0-0.1,0c-1.4-0.1-2.7-1.1-3.5-2.2c-0.2-0.3-0.5-0.6-0.7-0.9
	c-0.2-0.3-0.4-0.7-0.6-1.1c-0.3-0.7-0.9-2-0.8-2.7l0,0c0-0.3,0.1-0.6,0.3-0.9c0.5-0.7,1.3-0.7,2.1-0.6c0.2,0,0.4,0.1,0.6,0.1
	c0.5,0,0.8,0,1.3-0.2c0.4-0.1,0.8-0.4,1.1-0.6C110.2,101.1,110.8,100.6,111.9,100.9L111.9,100.9z"/>
<path class="st9" d="M13.3,287.3v-15.5l3.6,3.9c0,0,1.8,2.1,4.5,2.1c2.7,0,4.5-2.1,4.5-2.1l3.6-3.9v15.5c0,3.6,2.7,6.4,6.7,6.4
	c3.9,0,6.7-2.7,6.7-6.4v-29.7c0-3.6-2.7-6.4-6.7-6.4c-3.9,0-7,3.6-7,3.6l-7.9,8.5l-7.9-8.5c0,0-3-3.6-7-3.6c-3.9,0-6.7,2.7-6.7,6.4
	v29.7c0,3.6,2.7,6.4,6.7,6.4C10.6,293.7,13.3,290.9,13.3,287.3L13.3,287.3z M63.6,278.5h8.2c3.6,0,6.4-2.7,6.4-6.1
	c0-3.3-2.7-6.1-6.4-6.1h-8.2V264h12.1c3.9,0,6.7-2.7,6.7-6.4c0-3.6-2.7-6.4-6.7-6.4H57c-3.9,0-6.7,2.7-6.7,6.4v29.7
	c0,3.6,2.7,6.4,6.7,6.4h18.8c3.9,0,6.7-2.7,6.7-6.4c0-3.6-2.7-6.4-6.7-6.4H63.6V278.5L63.6,278.5z M84.9,272.4
	c0,12.7,9.7,22.4,22.4,22.4c11.5,0,20-8.5,20-18.8v-0.3c0-3.6-2.7-6.4-6.7-6.4h-11.5c-3.9,0-6.7,2.7-6.7,5.8c0,3,2.7,5.8,6.7,5.8h3
	c0,0-1.8,1.8-4.9,1.8c-4.8,0-9.1-4.2-9.1-10.3c0-6.1,4.2-10.3,9.1-10.3c3.6,0,5.8,2.2,6.7,3.6c0.6,0.9,2.1,2.4,4.8,2.4
	c3.6,0,6.7-3,6.7-6.7c0-4.2-7.3-11.5-18.2-11.5C94.6,250,84.9,259.7,84.9,272.4L84.9,272.4z M130,283.7c0,0-0.9,2.1-0.9,3.6
	c0,3.6,2.7,6.4,7,6.4c4.9,0,6.4-4.8,6.4-4.8l0.6-1.8h11.5l0.6,1.8c0,0,1.5,4.8,6.4,4.8c4.2,0,7-2.7,7-6.4c0-1.5-0.9-3.6-0.9-3.6
	l-11.2-28.2c0,0-1.8-4.9-7.6-4.9c-5.8,0-7.6,4.9-7.6,4.9L130,283.7L130,283.7z M151.5,277.3h-5.5l2.4-7.3h0.6L151.5,277.3
	L151.5,277.3z"/>
<path class="st10" d="M190.4,250.3c-3.4,0-5.9,2.5-5.9,5.6v31.8c0,3.1,2.5,5.6,5.9,5.6c3.4,0,5.9-2.5,5.9-5.6v-26.2h7.1v1.2
	c0,3.1,2.5,5.5,5.9,5.5c3.4,0,5.9-2.7,5.9-5.5v-6.8c0-3.1-2.5-5.6-5.9-5.6H190.4L190.4,250.3z M231.8,268.2v-7.1h6.2
	c2.5,0,4,1.5,4,3.6c0,2-1.6,3.5-4.1,3.5H231.8L231.8,268.2z M254.3,264.7c0-8.3-6-14.4-16.4-14.4h-12c-3.4,0-5.9,2.5-5.9,5.6v31.8
	c0,3.1,2.5,5.6,5.9,5.6s5.9-2.5,5.9-5.6V279h6.2C248.2,279,254.3,273,254.3,264.7L254.3,264.7z"/>
<path class="st10" d="M274,288.9c0.4,1.1,1.9,4.3,5.7,4.3c3.6,0,6-2.5,6-5.7c0-1.5-0.9-3.7-0.9-3.7l-11.3-29.6
	c-0.4-1.1-2.2-4.5-6.6-4.5c-4.5,0-6.2,3.4-6.7,4.5L249,283.9c0,0-0.9,2.2-0.9,3.7c0,3.2,2.5,5.7,6,5.7c3.4,0,5.1-2.3,5.8-4.3
	l0.9-2.8h12.4L274,288.9L274,288.9z M270.3,276.9h-6.8l3.1-8.9h0.6L270.3,276.9L270.3,276.9z"/>
<path class="st10" d="M305.6,261.4h4.5v20.7h-10.1L305.6,261.4L305.6,261.4z M283.6,295.7c0,3.1,2.5,5.6,5.9,5.6
	c3.4,0,5.9-2.5,5.9-5.6v-2.5h20.4v2.5c0,3.1,2.5,5.6,5.9,5.6s5.9-2.5,5.9-5.6v-8.3c0-2.8-2.5-5.2-5.5-5.2v-26.2
	c0-3.1-2.5-5.6-5.9-5.6h-13.9c-3.5,0-5.7,2.2-6.7,5.6l-7.1,26.2c-2.3,0-4.7,2.5-4.7,5.2V295.7L283.6,295.7z"/>
<path class="st11" d="M167,0.3c-1.6,0-2.7,1.1-3.2,2.5L160.2,15c-1.1,0-2.5,1-2.6,2.6c0,1.4,1.2,2.6,2.7,2.7l1.3,0
	c1.6,0,2.8-1.1,3.3-2.5l3.6-12.2l2.1,0l-0.3,12.3c0,1.5,1.1,2.6,2.7,2.7c1.6,0,2.8-1.2,2.8-2.6l0.3-13.9c0-1.7-0.4-3.6-2.7-3.7
	L167,0.3L167,0.3z"/>
<path class="st11" d="M197.6,6.5c0.2-1.4-0.7-2.8-2.3-3c-1.7-0.3-2.8,0.5-4.1,1.9l-6,6.4l-0.3,0l1.2-7.2c0.2-1.4-0.7-2.8-2.3-3
	c-1.6-0.3-2.9,0.7-3.2,2.1l-2.6,14.7c-0.2,1.4,0.7,2.8,2.3,3c1.6,0.3,2.7-0.5,4.1-1.9l6.1-6.4l0.3,0l-1.3,7.2
	c-0.2,1.4,0.7,2.8,2.3,3c1.6,0.3,2.9-0.7,3.2-2.1L197.6,6.5L197.6,6.5z"/>
<path class="st11" d="M150.4,18.1c0.1,1.4,1.4,2.5,2.9,2.4c1.6-0.1,2.6-1.5,2.5-2.8L155,5.4l2.5-0.2c1.6-0.1,2.7-1.4,2.5-2.8
	c-0.1-1.4-1.4-2.5-2.9-2.4l-10.4,0.8c-1.6,0.1-2.7,1.4-2.5,2.8c0.1,1.4,1.5,2.5,2.9,2.4l2.5-0.2L150.4,18.1L150.4,18.1z"/>
<path class="st11" d="M132.8,13c-0.6-3.2,1.1-5.7,3.5-6.1c1.7-0.3,2.8,0.5,3.7,1.3c0.4,0.4,1.1,0.9,2.2,0.7c1.5-0.3,2.5-1.7,2.2-3.2
	c-0.3-2-4.2-4.8-9.1-4c-5.6,1-9.1,6-8,12.2c1.1,6.2,6.1,9.7,11.7,8.8c4.8-0.8,7.6-4.7,7.2-6.7c-0.3-1.5-1.8-2.5-3.2-2.2
	c-1.1,0.2-1.7,1-1.9,1.4c-0.5,1.1-1.3,2.1-3.1,2.4C135.7,18,133.3,16.2,132.8,13L132.8,13z"/>
<path class="st11" d="M204.7,5.9c-1.5-0.4-3,0.4-3.4,1.8L197.2,22c-0.4,1.4,0.5,2.9,1.9,3.3l5.6,1.6c4.7,1.4,8.3-0.6,9.1-3.5
	c1.1-3.9-2.4-5.7-2.4-5.7l0.1-0.3c0,0,2.3-0.2,3.1-3c0.8-2.8-1-6-5.6-7.3L204.7,5.9L204.7,5.9z M208.5,21.1c-0.2,0.8-1.1,1.3-2.2,1
	l-3.1-0.9l0.9-3.1l3.1,0.9C208.2,19.4,208.7,20.3,208.5,21.1L208.5,21.1z M205.3,13.9l0.7-2.5l1.8,0.5c0.8,0.2,1.2,1,1,1.7
	c-0.2,0.7-1.1,1-1.7,0.8L205.3,13.9L205.3,13.9z"/>
<path class="st11" d="M124,22.9c0.3,0.5,1.4,1.7,3.1,1.2c1.6-0.5,2.4-1.9,2-3.3c-0.2-0.7-0.9-1.5-0.9-1.5l-8.9-11.9
	c-0.3-0.4-1.6-1.7-3.6-1.2c-2,0.6-2.4,2.3-2.4,2.9L112,23.9c0,0-0.1,1.1,0.1,1.8c0.4,1.5,1.8,2.2,3.4,1.8c1.5-0.4,2-1.7,2-2.7
	l0.1-1.4l5.6-1.6L124,22.9L124,22.9z M120.7,18l-3.1,0.9l0.2-4.4l0.3-0.1L120.7,18L120.7,18z"/>
<path class="st11" d="M240.5,22.9c0.6-1.3,0-2.9-1.4-3.5c-1.4-0.7-3-0.1-3.6,1.2l-6.2,13.6c-0.6,1.3,0,2.9,1.4,3.5
	c1.4,0.7,3,0.1,3.6-1.2L240.5,22.9L240.5,22.9z M223.3,24.7c1.1,0.5,1.5,1.5,1,2.5c-0.4,0.9-1.4,1.3-2.5,0.8l-1.5-0.7l1.5-3.3
	L223.3,24.7L223.3,24.7z M229.6,29.6c1.7-3.6,0.3-7.5-4.2-9.5l-1.5-0.7l1.6-3.4c0.6-1.3,0-2.9-1.4-3.5c-1.4-0.7-3-0.1-3.6,1.2
	l-6.2,13.6c-0.6,1.3,0,2.9,1.4,3.5l4,1.8C224.2,34.7,228,33.2,229.6,29.6L229.6,29.6z"/>
<path class="st11" d="M95.3,17c-0.6-1.3-2.1-1.9-3.6-1.2c-1.5,0.7-2,2.2-1.4,3.5l1.8,4c1.6,3.6,5.3,5,9.3,3.2l3.1-1.4l1.5,3.4
	c0.6,1.3,2.1,1.9,3.6,1.2c1.5-0.7,2-2.2,1.4-3.5l-6.1-13.6c-0.6-1.3-2.1-1.9-3.6-1.2c-1.5,0.7-2,2.2-1.4,3.5l2.4,5.4l-3.1,1.4
	c-0.9,0.4-1.8,0.1-2.1-0.7L95.3,17L95.3,17z"/>
<path class="st11" d="M243,39.3l0.4,5.7c0,0.8,0.3,1.6,1.3,2.3c1.3,0.8,2.9,0.4,3.7-0.8c0.7-1,0.7-1.6,0.6-2.1l-0.7-6.8l5.9-2.2
	c0.4-0.2,1.2-0.5,1.9-1.6c0.7-1.1,0.4-2.8-0.9-3.6c-1.3-0.9-2.6-0.2-2.6-0.2l-5,2l-0.3-5.3c0,0,0.1-1.4-1.3-2.3
	c-1.2-0.8-2.9-0.4-3.6,0.7c-0.7,1.1-0.7,2-0.7,2.5l0.5,6.2l-6.5,2.3c-0.4,0.2-1,0.4-1.6,1.5c-0.8,1.2-0.5,2.9,0.8,3.7
	c1,0.7,1.9,0.5,2.6,0.2L243,39.3L243,39.3z"/>
<path class="st11" d="M81.7,32.6c-1.6-2.8-0.9-5.7,1.2-7c1.5-0.9,2.8-0.5,3.9,0c0.5,0.2,1.4,0.5,2.4-0.1c1.3-0.8,1.8-2.4,1-3.8
	c-1-1.8-5.6-3.1-9.9-0.7c-4.9,2.8-6.5,8.7-3.4,14.2c3.1,5.5,9,7.1,14,4.3c4.3-2.4,5.5-7,4.5-8.7c-0.7-1.3-2.5-1.7-3.8-1
	c-1,0.6-1.2,1.5-1.3,2c-0.1,1.2-0.6,2.4-2.1,3.3C86.1,36.3,83.3,35.4,81.7,32.6L81.7,32.6z"/>
<path class="st11" d="M276.4,55.8l1.5,1.5l-7,6.7l-3.2-3.4L276.4,55.8L276.4,55.8z M257.7,59.3c-1.1,1-1.1,2.6,0,3.8
	c1.1,1.2,2.7,1.2,3.8,0.2l0.8-0.8l6.6,6.9l-0.8,0.8c-1.1,1-1.1,2.6,0,3.8c1.1,1.2,2.7,1.2,3.8,0.2l2.8-2.7c0.9-0.9,1-2.5,0-3.6
	l8.9-8.5c1.1-1,1.1-2.6,0-3.8l-4.5-4.7c-1.1-1.2-2.6-1.3-4-0.5l-11.2,6.1c-0.7-0.8-2.4-0.8-3.3,0.1L257.7,59.3L257.7,59.3z"/>
<path class="st11" d="M51.9,49.7l1.5-1.5l6.7,7l-3.4,3.2L51.9,49.7L51.9,49.7z M55.5,68.5c1,1.1,2.6,1.1,3.8,0
	c1.2-1.1,1.2-2.7,0.2-3.8l-0.8-0.8l6.9-6.6l0.8,0.8c1,1.1,2.6,1.1,3.8,0c1.2-1.1,1.2-2.7,0.2-3.8l-2.7-2.8c-0.9-0.9-2.5-1-3.6,0
	l-8.5-8.9c-1-1.1-2.6-1.1-3.8,0L47.2,47c-1.2,1.1-1.3,2.6-0.5,4l6.1,11.2c-0.8,0.7-0.8,2.4,0.1,3.3L55.5,68.5L55.5,68.5z"/>
<path class="st11" d="M279.8,75.1l1.9-1.3l2.4,3.4c0.9,1.3,2.5,1.6,3.7,0.7c1.2-0.8,1.5-2.4,0.5-3.7l-2.4-3.4l1.8-1.3l3.5,5
	c0.9,1.3,2.5,1.6,3.7,0.8c1.2-0.8,1.5-2.5,0.5-3.8l-5.1-7.2c-0.9-1.3-2.7-1.5-3.7-0.7l-12.2,8.6c-1,0.7-1.4,2.6-0.5,3.8l5.2,7.3
	c0.9,1.3,2.5,1.6,3.7,0.7c1.2-0.8,1.5-2.4,0.5-3.7L279.8,75.1L279.8,75.1z"/>
<path class="st11" d="M45.1,64.1c2.7,2.2,3,5.1,1.6,7c-1.5,1.9-4.4,2.2-7.1,0.1c-2.7-2.2-3.1-5.1-1.6-7
	C39.4,62.3,42.4,61.9,45.1,64.1L45.1,64.1z M48.5,59.8C43.6,55.9,37.4,56.6,34,61c-3.5,4.4-2.8,10.6,2.1,14.5
	c4.9,3.9,11.1,3.2,14.5-1.2C54.1,69.9,53.4,63.7,48.5,59.8L48.5,59.8z"/>
<path class="st11" d="M285.4,88c-1.3,0.7-1.7,2.3-0.9,3.7c0.8,1.4,2.5,1.8,3.6,1.1l10.7-6.1l1.2,2.1c0.8,1.4,2.4,1.8,3.6,1.1
	c1.3-0.7,1.7-2.3,0.9-3.7l-5.2-9.1c-0.8-1.4-2.4-1.8-3.6-1.1c-1.2,0.7-1.6,2.4-0.9,3.7l1.2,2.1L285.4,88L285.4,88z"/>
<path class="st11" d="M295.3,101.9l2.1-1l1.7,3.8c0.7,1.5,2.2,2,3.5,1.4c1.3-0.6,1.9-2.1,1.2-3.6l-1.7-3.8l2-0.9l2.5,5.5
	c0.7,1.5,2.2,2,3.5,1.4c1.3-0.6,1.9-2.1,1.2-3.6l-3.6-8.1c-0.7-1.5-2.3-2-3.5-1.4l-13.6,6.1c-1.2,0.5-1.8,2.3-1.2,3.6l3.7,8.2
	c0.7,1.5,2.2,2,3.5,1.4c1.3-0.6,1.9-2.1,1.2-3.6L295.3,101.9L295.3,101.9z"/>
<path class="st11" d="M28.3,85.3l-2.9-1.7l1.4-2.5c0.6-1,1.6-1.3,2.4-0.8c0.8,0.5,1.1,1.5,0.5,2.5L28.3,85.3L28.3,85.3z M32.1,75.3
	c-3.4-1.9-7.3-0.9-9.7,3.3l-2.8,4.9c-0.8,1.4-0.4,3,0.9,3.7l12.9,7.4c1.3,0.7,2.8,0.3,3.6-1.1c0.8-1.4,0.4-3-0.9-3.7l-3.5-2l1.4-2.5
	C36.5,81.1,35.5,77.3,32.1,75.3L32.1,75.3z"/>
<path class="st11" d="M318.3,115.4c0.8,2.9,2.9,4.1,4.5,3.6c1-0.3,1.5-1.3,1.3-2.2c-0.5-1.6-2.2-0.7-2.6-2.3c-0.5-1.6,1.5-1.8,1-3.4
	c-0.3-1-1.2-1.5-2.2-1.2C318.6,110.4,317.4,112.5,318.3,115.4L318.3,115.4z M316.3,124.9c1.4-0.4,2.2-1.8,1.8-3.4
	c-0.5-1.6-1.7-2.3-3.5-2.8l-8.4-2.6l-0.1-0.3l7-2c1.4-0.4,2.2-1.8,1.7-3.4c-0.4-1.5-1.9-2.3-3.3-1.9l-14.3,4.1
	c-1.4,0.4-2.2,1.8-1.8,3.4c0.5,1.6,1.7,2.2,3.5,2.8l8.4,2.7l0.1,0.3l-7,2c-1.4,0.4-2.2,1.8-1.7,3.4c0.4,1.5,1.9,2.3,3.3,1.9
	L316.3,124.9L316.3,124.9z"/>
<path class="st11" d="M24,97.2c3.2,1.4,4.2,4.2,3.2,6.4c-1,2.2-3.8,3.2-6.9,1.8C17.1,104,16,101.2,17,99C18,96.9,20.8,95.8,24,97.2
	L24,97.2z M26.2,92.2c-5.7-2.6-11.5-0.4-13.8,4.7c-2.3,5.1-0.1,10.9,5.6,13.5c5.7,2.6,11.5,0.4,13.8-4.7
	C34.1,100.7,31.9,94.8,26.2,92.2L26.2,92.2z"/>
<path class="st11" d="M4.8,119.7c-0.4,1.5,0.4,3,1.8,3.4l14.3,4.1c1.4,0.4,2.8-0.4,3.3-1.9c0.4-1.5-0.4-3-1.7-3.4l-11.8-3.4l0.9-3.2
	l0.6,0.2c1.4,0.4,2.8-0.4,3.3-1.9c0.4-1.5-0.5-3-1.7-3.4l-3.1-0.9c-1.4-0.4-2.8,0.4-3.3,1.9L4.8,119.7L4.8,119.7z"/>
</svg>
