<?xml version="1.0" encoding="utf-8"?>
<!-- Generator: Adobe Illustrator 22.1.0, SVG Export Plug-In . SVG Version: 6.00 Build 0)  -->
<svg version="1.1" id="Layer_1" xmlns="http://www.w3.org/2000/svg" xmlns:xlink="http://www.w3.org/1999/xlink" x="0px" y="0px"
	 viewBox="0 0 466.9 512" style="enable-background:new 0 0 466.9 512;" xml:space="preserve">
<style type="text/css">
	.st0{fill:#FB8276;}
	.st1{fill:#A2F9F9;}
	.st2{fill:#48E5E1;}
	.st3{fill:#41CECA;}
	.st4{fill:#91E0E0;}
	.st5{fill:#FFC987;}
	.st6{fill:#FFD5B3;}
	.st7{fill:#E5BFA1;}
	.st8{fill:#775436;}
	.st9{fill:#E1756A;}
	.st10{fill:#F7931E;}
	.st11{fill:#DE841B;}
	.st12{fill:#89C947;}
	.st13{fill:#7BB540;}
	.st14{fill:#D5E962;}
	.st15{fill:#EF5050;}
	.st16{fill:#FFC502;}
	.st17{fill:#E5B102;}
	.st18{fill:#FCDB67;}
	.st19{fill:#BFD158;}
	.st20{fill:#FFB98A;}
</style>
<path class="st0" d="M6.7,389.4c-3.7,0-6.7,3-6.7,6.6v109.4c0,3.6,3,6.6,6.7,6.6h110.4c3.7,0,6.7-3,6.7-6.6v-116H6.7z"/>
<path class="st1" d="M222.4,344.6c0-17.7,5.2-33.8,14.8-47.1c-16.3,7.6-34.5,10-51.9,7.1V349c12.3,1.3,24.8,1,37.1-1.1V344.6z"/>
<path class="st2" d="M373.6,276.6c-13.7,6.5-28.9,10.1-44.8,10.1h-31c-15.5,0-30.1-2.7-43.2-7.8c-20.3,14.6-33.2,37.3-33.2,65.7
	v14.1l4.1,0.4l-0.5-1.5l-0.8-2c-0.7-1.9-0.6-3.9,0.2-5.7c0.8-1.8,2.3-3.2,4.2-3.9l2.2-0.8c0.9-0.3,1.8-0.5,2.7-0.5
	c3.1,0,5.9,2,7,4.9l8.3,21.6l0.1,0.1c0.9,1.3,1.7,2.7,2.4,4.1l0.2,0.4l0.5,0.1c6.6,1.7,13.5,2.5,20.3,2.5c31.6,0,61-18.1,74.8-46.2
	c3.4-6.9,10.3-11.1,18-11.1c3,0,5.9,0.7,8.7,2c4.8,2.3,8.4,6.3,10.1,11.3c1.7,5,1.4,10.3-1,15c-10.3,20.9-26.4,38.3-46.3,50.4
	c-19.5,11.8-41.8,18-64.5,18c0,0,0,0,0,0c-8.6,0-17.1-0.9-25.4-2.7v40.5h17.7l0.1-0.9c1.2-10.5,10.1-18.4,20.8-18.4
	c7.8,0,15,4.3,18.6,11.2l0.9,1.7l0.9-1.7c3.6-6.9,10.7-11.2,18.6-11.2c10.6,0,19.6,7.9,20.8,18.4l0.1,0.9h64.7v-112
	C409.5,313.9,395.5,290.8,373.6,276.6z"/>
<path class="st3" d="M225.5,359.1l-0.5-1.5l-0.8-2c-0.7-1.9-0.6-3.9,0.2-5.7c0.8-1.8,2.3-3.2,4.2-3.9l2.2-0.8
	c0.9-0.3,1.8-0.5,2.7-0.5c3.1,0,5.9,2,7,4.9l8.3,21.6l0.1,0.1c0.9,1.3,1.7,2.7,2.4,4.1l0.2,0.4l0.5,0.1c0.4,0.1,0.8,0.2,1.2,0.3
	v-31.5c0-24.6,9.7-44.9,25.5-59.4c-8.4-1.3-16.4-3.4-23.9-6.3c-20.3,14.6-33.2,37.3-33.2,65.7v14.1L225.5,359.1z"/>
<path class="st1" d="M303,457c0-3.2,0.7-6.2,2-8.8c-3.4-7.6-11.1-12.9-20-12.9c-11.3,0-20.5,8.4-21.8,19.3h-16.8v50.8
	c0,3.6-3,6.6-6.7,6.6h46.7v-0.1c8.3-0.6,15.3-5.7,18.5-12.8c-1.3-2.7-2-5.7-2-8.8V457z"/>
<path class="st1" d="M322.4,511.9L322.4,511.9l88.9,0.1c16,0,29-12.9,29-28.7c0-15.9-13-28.7-29-28.7h-65.6
	c-1.2-10.8-10.5-19.3-21.8-19.3c-12.1,0-21.9,9.7-21.9,21.7v33.2C302,501.8,311,511.2,322.4,511.9z"/>
<path class="st4" d="M333.4,490.3V457c0-5.9,2.4-11.2,6.2-15.2c-4-4-9.5-6.6-15.7-6.6c-12.1,0-21.9,9.7-21.9,21.7v33.2
	c0,11.5,9,20.9,20.4,21.7v0.1h31.4v-0.1C342.4,511.2,333.4,501.8,333.4,490.3z"/>
<path class="st5" d="M328.8,286.7h-31c-4.8,0-9.6-0.3-14.2-0.8v0.9c0,13.7,11.2,24.8,25.1,24.8c13.8,0,25.1-11.1,25.1-24.8v-0.2
	C332.1,286.6,330.4,286.7,328.8,286.7z"/>
<path class="st6" d="M434.3,127c-0.1,0-0.3,0-0.4,0v-14.7c0-1.1,0-2.2-0.1-3.3c-2.2,1.8-4.8,3.2-7.6,4.2c-6.3,2.2-12.4,3.3-18.2,3.3
	c0,0,0,0,0,0c-31.5,0-45.7-33.1-45.9-33.5l-0.9-2.3l-0.9,2.3c-0.2,0.4-17.4,43-46.3,43c-3.2,0-6.4-0.5-9.6-1.5
	c-13.7-4.3-18.2-14.7-13.4-30.9l-1.8-0.8c-8.9,14.8-22.5,32.4-36.9,32.4c-1.7,0-3.4-0.2-5-0.7c-5.4-1.6-9.2-4.7-11.4-9.3
	c-3.6-7.5-2.7-18.9,2.4-31.4l-1.8-0.8c-11.9,25.1-24.7,37.2-38.9,37.2c-1.6,0-3.2-0.2-4.9-0.5v63.1c0,68,47.1,104.8,105.1,104.8h31
	c48.8,0,89.7-33.1,101.6-77.9c1.3,0.2,2.6,0.3,3.9,0.3c18,0,32.6-18.6,32.6-41.5S452.3,127,434.3,127z"/>
<path class="st7" d="M224.2,182.9v-70.5c0-3.1,0.1-6.1,0.4-9.1c-8.5,11.4-17.4,17-27.1,17c-1.6,0-3.2-0.2-4.9-0.5v63.1
	c0,68,47.1,104.8,105.1,104.8h31c0.1,0,0.1,0,0.2,0C271.1,287.5,224.2,250.8,224.2,182.9z"/>
<g>
	<path class="st8" d="M352.5,181.5c-4.1,0-7.5-3.4-7.5-7.5v-12.7c0-4.1,3.4-7.5,7.5-7.5c4.1,0,7.5,3.4,7.5,7.5V174
		C360,178.1,356.6,181.5,352.5,181.5z"/>
	<path class="st8" d="M238.3,181.5c-4.1,0-7.5-3.4-7.5-7.5v-12.7c0-4.1,3.4-7.5,7.5-7.5c4.1,0,7.5,3.4,7.5,7.5V174
		C245.8,178.1,242.5,181.5,238.3,181.5z"/>
	<path class="st8" d="M300.4,192.6h-5c-6.9,0-12.5-5.7-12.5-12.6v-9.7c0-4.1,3.4-7.5,7.5-7.5s7.5,3.4,7.5,7.5v7.4h2.5
		c4.1,0,7.5,3.4,7.5,7.5C307.9,189.3,304.6,192.6,300.4,192.6z"/>
</g>
<path class="st0" d="M297.2,254.4c-19.5,0-35.4-15.7-35.4-35.1c0-3.6,3-6.6,6.7-6.6h57.5c3.7,0,6.7,3,6.7,6.6
	C332.5,238.7,316.7,254.4,297.2,254.4z"/>
<path class="st9" d="M293.5,219.4c0-3.6,3-6.6,6.7-6.6h-31.8c-3.7,0-6.7,2.9-6.7,6.6c0,19.3,15.9,35.1,35.4,35.1
	c5.7,0,11.1-1.4,15.9-3.7C301.5,244.9,293.5,233.1,293.5,219.4z"/>
<path class="st10" d="M326.7,0h-33.5c-62.8,0-113.7,50.7-113.7,113.3v1.7c2.1,1.6,4.6,3,7.5,4.2c24.1,9.6,40.4-14.7,50.4-35.6
	c-7.4,18-7.2,37.1,9.7,42c16.3,4.8,31.9-13.6,43-32.2c-3.8,13-3,26.8,14.1,32.2c35.9,11.3,57.1-42,57.1-42s19.6,46.9,65.3,30.7
	c5.9-2.1,10.3-5.7,13.4-10.3C435.2,45.7,386.3,0,326.7,0z"/>
<path class="st11" d="M210.9,115v-1.7C210.9,50.7,261.8,0,324.6,0h-31.4c-62.8,0-113.7,50.7-113.7,113.3v1.7c2.1,1.6,4.6,3,7.5,4.2
	c9.9,3.9,18.5,2.1,25.9-2.8C212.2,115.9,211.5,115.5,210.9,115z"/>
<path class="st12" d="M160.3,267.8v-8.5c0-8-6.6-14.5-14.6-14.5h-42.6c-8.1,0-14.6,6.5-14.6,14.5v8.5H160.3z"/>
<path class="st13" d="M120.4,267.8v-8.5c0-8,6.6-14.5,14.6-14.5h-31.9c-8.1,0-14.6,6.5-14.6,14.5v8.5H120.4z"/>
<path class="st14" d="M186.3,382.8c0,3.6-3,6.6-6.7,6.6H69.2c-3.7,0-6.7-3-6.7-6.6V273.4c0-3.6,3-6.6,6.7-6.6h110.4
	c3.7,0,6.7,3,6.7,6.6V382.8z"/>
<path class="st12" d="M141.9,358.3c-0.6,0-1.2-0.1-1.8-0.4l-15.7-8.1l-15.7,8.1c-0.6,0.3-1.2,0.4-1.8,0.4c-0.8,0-1.6-0.2-2.2-0.7
	c-1.2-0.8-1.8-2.3-1.5-3.7l3-17.2l-12.7-12.2c-1-1-1.4-2.5-1-3.8c0.4-1.4,1.6-2.3,3.1-2.5l17.6-2.5L121,300c0.6-1.3,2-2.1,3.4-2.1
	c1.4,0,2.8,0.8,3.4,2.1l7.8,15.7l17.5,2.5c1.4,0.2,2.6,1.2,3.1,2.5c0.4,1.4,0.1,2.8-1,3.8l-12.7,12.2l3,17.2
	c0.2,1.4-0.3,2.8-1.5,3.7C143.4,358.1,142.6,358.3,141.9,358.3z"/>
<path class="st9" d="M24.5,505.4V396c0-3.6,3-6.6,6.7-6.6H6.7c-3.7,0-6.7,3-6.7,6.6v109.4c0,3.6,3,6.6,6.7,6.6h24.5
	C27.5,512,24.5,509,24.5,505.4z"/>
<path class="st15" d="M61.9,479c-0.8,0-1.6-0.3-2.2-0.9l-27.7-27c-6.7-6.6-6.7-17.2,0-23.8c3.2-3.2,7.6-4.9,12.2-4.9
	s8.9,1.8,12.2,4.9l5.6,5.4l5.6-5.4c3.2-3.2,7.6-4.9,12.2-4.9s8.9,1.8,12.2,4.9c6.7,6.6,6.7,17.2,0,23.8l-27.7,27
	C63.5,478.7,62.7,479,61.9,479z"/>
<path class="st16" d="M235.6,412.3l-0.3-0.1l-0.3,0.1c-2.9,1-6,1.5-9,1.5c-1,0-1.9,0-2.9-0.1l-25.6-2.6c-3.8-0.4-6.5-3.8-6.2-7.5
	l0.2-2.1c0.4-3.5,3.3-6.2,6.8-6.2c0.2,0,0.5,0,0.7,0l19.5,2l0.3-3.4l-23.6-2.4c-1.6-0.2-3.1-0.9-4.3-2.1h-67.3v116
	c0,3.6,3,6.6,6.7,6.6h110.4c3.7,0,6.6-3,6.6-6.6v-90.1C243.5,414.5,239.5,413.5,235.6,412.3z"/>
<path class="st17" d="M151.2,505.4v-116h-27.5v116c0,3.6,3,6.6,6.7,6.6h27.5C154.2,512,151.2,509,151.2,505.4z"/>
<path class="st18" d="M176,478.7c-3.7,0-8.1-2.6-10-5.7l-9.6-16.5c-1.8-3.1-1.8-8.3,0-11.4l9.6-16.5c1.8-3.1,6.3-5.7,10-5.7h19.3
	c3.7,0,8.2,2.6,10,5.7l9.6,16.5c1.8,3.1,1.8,8.3,0,11.4l-9.6,16.5c-1.8,3.1-6.3,5.7-10,5.7H176z"/>
<path class="st19" d="M89,382.8V273.4c0-3.6,3-6.6,6.7-6.6H69.2c-3.7,0-6.7,3-6.7,6.6v109.4c0,3.6,3,6.6,6.7,6.6h26.4
	C91.9,389.4,89,386.4,89,382.8z"/>
<path class="st20" d="M433.7,192.6c-2.7,0-5.3-1.4-6.6-3.9c-2-3.6-0.6-8.2,3-10.2c8.5-4.6,3.6-16.3,3.3-16.8
	c-1.6-3.8,0.1-8.2,3.9-9.9s8.2,0.1,9.9,3.9c0.3,0.6,2.6,6.1,2.8,13c0.3,10.2-4.2,18.4-12.7,23C436.1,192.3,434.9,192.6,433.7,192.6z
	"/>
<path class="st1" d="M374.1,322.1c-10.4-5-22.9-0.7-28,9.6c-17.6,35.6-58.1,52.9-95.3,42.8c2.3,4.6,3.3,9.7,2.8,14.8
	c-1.1,11.4-9.2,20.4-19.9,23.4c57.7,18.8,122.4-7.2,149.9-63C388.7,339.5,384.4,327.1,374.1,322.1z"/>
<path class="st6" d="M190.3,403.4l0.2-2.1c0.4-4.3,4.3-7.5,8.6-7.1l18.5,1.9l0.1-1.4l-22.6-2.3c-4.3-0.4-7.5-4.3-7.1-8.6l0.2-2.1
	c0.4-4.3,4.3-7.5,8.6-7.1l22.6,2.3l0.1-1.4l-18.5-1.9c-4.3-0.4-7.5-4.3-7.1-8.6l0.2-2.1c0.4-4.3,4.3-7.5,8.6-7.1l21,2.1l0.1,0
	l-0.8-2c-1.7-4.4,0.6-9.3,5-11l2.2-0.8c4.4-1.7,9.3,0.6,11,5l8.2,21.5c3.7,5.3,5.7,11.9,5,18.8c-1.6,15.5-15.7,26.8-31.6,25.2
	l-25.6-2.6C193,411.6,189.9,407.8,190.3,403.4z"/>
</svg>
