<?xml version="1.0" encoding="utf-8"?>
<!-- Generator: Adobe Illustrator 22.1.0, SVG Export Plug-In . SVG Version: 6.00 Build 0)  -->
<svg version="1.1" id="Layer_1" xmlns="http://www.w3.org/2000/svg" xmlns:xlink="http://www.w3.org/1999/xlink" x="0px" y="0px"
	 viewBox="0 0 512 478.7" style="enable-background:new 0 0 512 478.7;" xml:space="preserve">
<style type="text/css">
	.st0{fill:#636363;}
	.st1{fill:#494949;}
	.st2{fill:#C9D2E3;}
	.st3{fill:#ADBBD5;}
	.st4{fill:#FFD664;}
	.st5{fill:#F9C646;}
</style>
<path class="st0" d="M449.6,478.7H62.4c-23,0-41.6-18.6-41.6-41.6V157.1h470.4v279.9C491.2,460.1,472.6,478.7,449.6,478.7z"/>
<path class="st1" d="M468.3,157.1H20.8v120.3c2.8,1,5.8,1.8,8.8,2.4l191.2,35.4h70.4l177.1-32.8v154.7c0,23-18.6,41.6-41.6,41.6
	h22.9c23,0,41.6-18.6,41.6-41.6V157.1H468.3z"/>
<path class="st2" d="M289.3,294.4v45.8h-66.6v-45.8H289.3z"/>
<path class="st3" d="M222.7,294.4h66.6v20.8h-66.6V294.4z"/>
<path class="st0" d="M256,294.4h33.3l189.1-35c19.5-3.8,33.6-20.9,33.6-40.8v-68.7c0-23-18.6-41.6-41.6-41.6H41.6
	c-23,0-41.6,18.6-41.6,41.6v68.7c0,19.9,14.1,37,33.6,40.8l189.1,35H256z"/>
<path class="st1" d="M470.4,108.2h-25c23,0,41.6,18.6,41.6,41.6V229c0,12.4-5.5,23.7-14.3,31.4l5.7-1c19.5-3.8,33.6-20.9,33.6-40.8
	v-68.7C512,126.9,493.4,108.2,470.4,108.2z"/>
<path class="st4" d="M259.1,392.3l22.9-7.2c4.3-1.4,7.3-5.4,7.3-9.9v-35h-66.6v35c0,4.6,3,8.6,7.3,9.9l22.9,7.2
	C254.9,392.9,257.1,392.9,259.1,392.3z"/>
<path class="st5" d="M272.6,340.2v47.9l9.3-2.9c4.3-1.4,7.3-5.4,7.3-9.9v-35H272.6z"/>
<path class="st4" d="M193.6,108.2h-62.4V87.4c0-5.7,4.7-10.4,10.4-10.4h41.6c5.7,0,10.4,4.7,10.4,10.4V108.2z"/>
<path class="st5" d="M180,77v8.3c0,5.7-4.7,10.4-10.4,10.4h-38.5v12.5h62.4V87.4c0-5.8-4.7-10.4-10.4-10.4H180z"/>
<path class="st4" d="M380.9,108.2h-62.4V87.4c0-5.7,4.7-10.4,10.4-10.4h41.6c5.7,0,10.4,4.7,10.4,10.4V108.2z"/>
<path class="st5" d="M367.4,77v8.3c0,5.7-4.7,10.4-10.4,10.4h-38.5v12.5h62.4V87.4c0-5.8-4.7-10.4-10.4-10.4H367.4z"/>
<path class="st2" d="M366.3,77H333V58.3c0-13.8-11.2-25-25-25H204c-13.8,0-25,11.2-25,25V77h-33.3V58.3C145.7,26.1,171.8,0,204,0
	H308c32.1,0,58.3,26.1,58.3,58.3V77z"/>
<g>
	<path class="st3" d="M164.4,58.3V77H179V58.3c0-13.8,11.2-25,25-25h-14.6C175.6,33.3,164.4,44.5,164.4,58.3z"/>
	<path class="st3" d="M308,0h-14.6c32.1,0,58.3,26.1,58.3,58.3V77h14.6V58.3C366.3,26.1,340.2,0,308,0z"/>
</g>
</svg>
