<svg version="1.1" id="Capa_1" xmlns="http://www.w3.org/2000/svg" xmlns:xlink="http://www.w3.org/1999/xlink" x="0px" y="0px"
	 viewBox="0 0 377.8 417" style="enable-background:new 0 0 377.8 417;" xml:space="preserve">
<style type="text/css">
	.st0{fill:#0086CB;}
	.st1{fill:#075F82;}
	.st2{fill-rule:evenodd;clip-rule:evenodd;fill:#FFFFFF;}
	.st3{fill-rule:evenodd;clip-rule:evenodd;fill:#F37122;}
	.st4{fill-rule:evenodd;clip-rule:evenodd;fill:#ED1C24;}
	.st5{fill-rule:evenodd;clip-rule:evenodd;fill:#FFCB05;}
	.st6{fill-rule:evenodd;clip-rule:evenodd;fill:#FAA74A;}
	.st7{fill-rule:evenodd;clip-rule:evenodd;fill:#B18BB7;}
	.st8{fill-rule:evenodd;clip-rule:evenodd;fill:#54B948;}
	.st9{fill-rule:evenodd;clip-rule:evenodd;fill:#926BA6;}
	.st10{fill-rule:evenodd;clip-rule:evenodd;fill:#0086CB;}
	.st11{fill-rule:evenodd;clip-rule:evenodd;fill:#CBDB2A;}
</style>
<path class="st0" d="M181.5,0C92,0,19.2,72.8,19.2,162.2c0,55.3,26.3,114.7,78.1,176.5c38,45.4,75.6,74.6,77.2,75.8
	c2.1,1.6,4.6,2.4,7.1,2.4c2.5,0,5-0.8,7.1-2.4c1.6-1.2,39.1-30.4,77.2-75.8c51.8-61.8,78.1-121.2,78.1-176.5
	C343.8,72.8,271,0,181.5,0z M241.6,162.2c0,33.2-26.9,60.1-60.1,60.1s-60.1-26.9-60.1-60.1s26.9-60.1,60.1-60.1
	C214.7,102.1,241.6,129,241.6,162.2z"/>
<path class="st1" d="M181.5,0c-7.1,0-14.1,0.5-20.9,1.3C240.2,11.6,302,79.8,302,162.2c0,55.3-26.3,114.7-78.1,176.5
	c-24.5,29.2-48.7,51.7-63.3,64.3c8.1,7,13.3,11,13.8,11.5c2.1,1.6,4.6,2.4,7.1,2.4c2.5,0,5-0.8,7.1-2.4c1.6-1.2,39.1-30.4,77.2-75.8
	c51.8-61.8,78.1-121.2,78.1-176.5C343.8,72.8,271,0,181.5,0z"/>
<circle class="st2" cx="181.5" cy="166.9" r="110.5"/>
	<path class="st3" d="M140.9,236.4c17.7,8.3,33.2,1.5,43.8-14.1c1.7-2.5,3.5-6.1,5.3-10c-14.2,29.4-39.9-36.6-67.2-39.2
		C69.7,168.1,0.5,302.2,0,307.9C26.3,281,112.9,164.7,140.9,236.4L140.9,236.4z"/>
	<path class="st4" d="M196.4,196.8c-2.9,7.3-7.6,19.5-11.7,25.5c-10.6,15.6-26.1,22.3-43.8,14.1c5.3,13.2,13.7,54,36,55.8
		s54.1-88.3,66.6-107.9c15.7-24.6,27.2-12.6,38.2,3.6c17.9,26.4,53.7,64.7,87.3,36.3c5.7-4.8,9.3-11.7,8.9-20.8
		c-11,11.9-24.3,12.4-37.3,2.9c-26.2-19-43.7-61.7-58.9-90.5c-19.8-37.5-29.6-28.4-48,2.9c-4,7.4-8,15-11.9,22.7
		c-8.9,17.7-17.4,36.1-24.6,54C196.8,195.8,196.6,196.3,196.4,196.8L196.4,196.8z"/>
	<path class="st5" d="M208,140.5h10.3c-0.2,0.4-0.4,0.7-0.6,1.1l-0.1,0.1l-0.1,0.1c-3.1,6.9-6.4,13.8-9.6,20.7V140.5L208,140.5z"/>
	<path class="st6" d="M175.2,129.7c-0.4-0.4-0.8-0.7-1.3-0.8c-0.1,0-0.2,0-0.3,0c-0.2,0.1-0.4,0.3-0.6,0.5c-0.2,0.1-0.3,0.2-0.5,0.3
		c0.5,0,1,0,1.6,0H175.2L175.2,129.7z"/>
	<path class="st7" d="M160.6,199.7v-11.5H158l0-5.5l-1.7,0c1.4-0.9,2.8-1.8,4.2-2.6v-63.9h0h-3.4h-2.4h-3.4h-2.4h-3.4h-2.4h-2.6
		h-0.8v35.2l7.1,3.6l2.4,1.2h-2.7h-4v1.9v0.6h-0.6h-1.2l0.5,19.4C148.5,184.2,154.8,192.4,160.6,199.7L160.6,199.7z M151,138
		c-0.1,0-0.3,0.2-0.4,0.3c-0.9,0.7-2.1,1.3-3.2,1.4c-0.4,0-0.4,0.1-0.3,0.9c0,0.4,0,0.9,0.1,1.3c0,0.9,0.1,1.7,0.1,2.6
		c0,2,0.2,2.8,1.2,4.1c0.3,0.4,0.9,1,1.3,1.4l0.7,0.6c0.7,0.6,0.6,0.7,1.5-0.1c1.2-1,2.5-2.1,2.9-3.7c0.2-0.8,0.2-1.4,0.3-2.4
		c0-1.2,0.1-2.6,0-3.9c0-1.3,0-0.1-2.6-1.4c-0.3-0.2-0.9-0.6-1.2-0.8C151.3,138.1,151.1,137.9,151,138L151,138z M145.8,137.1
		c-1.6,0.2-1.5,0-1.5,1.6c0.1,2.1,0.1,4.1,0.2,6.3c0,1.1,0.1,1.8,0.5,2.8c0.3,0.7,0.7,1.6,1.1,2.1c0.5,0.7,0.9,1.1,1.5,1.7
		c0.5,0.5,2.1,1.9,2.6,2.2c0.8,0.5,0.7,0.3,1.2,0.3c0.1-0.1,0.2-0.1,0.2-0.2c0.1-0.1,0.2-0.1,0.3-0.2c0.2-0.1,0.3-0.3,0.5-0.4
		c2.2-1.8,4.6-3.8,5.2-6.7c0.1-0.3,0-0.3,0.1-0.4c0-0.2,0.1-0.6,0.1-0.9c0-0.3,0-0.6,0-1c0-0.6,0.1-1.2,0.1-1.8
		c0-1.6,0.1-2.4-0.1-4.1c0-0.4,0-0.9-0.3-1.1c-0.3-0.2-1.8-0.4-2.2-0.5c-1.4-0.4-2.4-1.1-3.7-1.9c-0.8-0.5-1.1-0.1-1.8,0.4
		C148.5,136.4,147.7,137,145.8,137.1L145.8,137.1z M150.9,136.8c-0.4,0.1-1.1,0.9-1.9,1.3c-1,0.5-1.6,0.4-2.5,0.7
		c-0.6,0.1-0.5,0.5-0.4,1.1c0,0.5,0,1,0,1.5c0.1,1,0.1,2.1,0.1,3.1c0,2,0.2,3.2,1.5,4.8c0.1,0.1,0.2,0.3,0.4,0.4
		c0.1,0.1,0.3,0.3,0.4,0.4c0.4,0.4,1.3,1.2,1.7,1.5c0.9,0.7,1,0.6,2-0.2c1.5-1.2,3-2.4,3.6-4.3c0.3-0.9,0.3-1.8,0.3-2.9
		c0-1,0-2.1,0-3.1c0-0.5,0-1.1,0-1.6c0-0.7-0.2-0.7-0.8-0.8c-1-0.2-1.6-0.3-2.5-0.7C152,137.5,151.3,136.7,150.9,136.8L150.9,136.8z
		 M148.6,142.3c0.3,0.2,0.7,0.3,1.1,0.7c0.3,0.4-0.1,1-0.2,1.5c-0.1,0.3-0.1,0.5,0.3,0.3c0.4-0.2,1-0.8,1.4-0.8c0.4,0,1,0.6,1.5,0.8
		c0.2,0.1,0.3,0.1,0.3-0.2c-0.1-0.5-0.6-1.1-0.3-1.6c0.1-0.2,0.4-0.4,0.6-0.5c0.1-0.1,0.2-0.1,0.4-0.2c0.4-0.2,0.4-0.4-0.1-0.4
		c-0.2,0-0.5,0-0.8,0c-0.8,0-0.9-0.1-1.2-0.8c-0.1-0.3-0.4-1.5-0.7-0.6c-0.1,0.4-0.3,1.1-0.6,1.3c-0.3,0.2-1,0-1.4,0.1
		C148.5,142,148.2,142,148.6,142.3L148.6,142.3z M158.7,115.4c-0.3-0.1-0.6-0.3-0.7-0.4c-0.4-0.2-0.7-0.4-1.1-0.5l-4.3-2.2
		c-0.3-0.2-2-1-2.2-1.1l-7.9,4c-0.1,0.1-0.2,0.1-0.4,0.2h-3c0.2-0.1,0.4-0.2,0.5-0.2c0.2-0.1,0.5-0.2,0.7-0.4
		c2.8-1.5,5.9-2.9,8.6-4.3c0.5-0.2,1-0.5,1.5-0.7c0.2,0,1.2,0.6,1.5,0.7l4.3,2.2c1,0.5,1.9,1,2.9,1.5c0.2,0.1,1.9,1,2.6,1.3H158.7
		L158.7,115.4z M143.5,115.4c0.4-0.2,1.3-0.7,1.5-0.8c0.7-0.4,5.3-2.7,5.4-2.7c0.1,0,1.6,0.8,1.8,0.9c0.3,0.2,4.1,2.1,5.1,2.6H143.5
		L143.5,115.4z"/>
	<path class="st8" d="M179.2,216.3h2.4c0.4-0.1,0.9-0.2,1.3-0.3c0.9-0.3,2-1.8,3.1-3.8h-0.3l-0.4,0l-0.7,0l-13.1,0
		C174.3,214.4,176.7,215.9,179.2,216.3L179.2,216.3z M176.7,188.4l-1,0l0,1.3l1,0l0,0.5l-1,0l0,1.3l1,0l0,3l1.4,0l0-3l4.8,0l0-1.3
		l-4.8,0l0-0.5c0.2,0,0.5,0,0.7,0h2.1c1.6,0,3.2-0.3,3.9-1.7c0.3-0.7,0.5-1.6,0.4-2.5c-0.2-1.7-1.3-2.5-2.9-2.8
		c-0.8-0.1-1.9-0.1-2.8-0.1h-2.1c-0.2,0-0.5,0-0.7,0L176.7,188.4L176.7,188.4z M178.1,188.4c0.6,0,1.3,0,2,0c0.6,0,1.3,0,1.9-0.1
		c1.1-0.2,1.8-0.9,1.8-2.1c0-1.3-0.7-1.9-1.8-2.1c-0.6-0.1-1.2-0.1-1.9-0.1c-0.6,0-1.3,0-2,0L178.1,188.4L178.1,188.4z M186.8,210.8
		l-16.6,0c-2.9-2.7-5.8-6.3-8.9-10.2l0-10.4l0,0l0-1.5l1.3,0v-1.4h-3.7l0-4.1h0.5v-1.4l0.1,0c0.3-0.2,5.1-3.2,5.5-3.5
		c1.9-1.2,3.7-2.3,5.6-3.5l11.2-7c0.9,0.5,1.9,1.2,2.8,1.8c5,3.3,10.6,6.5,15.7,9.8c-2.3,5.2-4.6,10.5-6.7,15.8
		C192.5,197.8,189.6,205.6,186.8,210.8L186.8,210.8z M165.7,181.6h2.6c2.1-1.3,9.3-5.8,9.9-6.2c0.4-0.2,3.3-2.1,3.5-2.1
		c0.2,0,9,5.6,10.4,6.5c0.4,0.2,2,1.2,2.9,1.8h2.6c-0.2-0.2-0.5-0.3-0.7-0.5l-15.2-9.5c-0.3,0.1-3.6,2.2-4.2,2.6l-8.4,5.2
		c-0.7,0.5-1.4,0.9-2.1,1.3C166.7,180.9,166.2,181.3,165.7,181.6L165.7,181.6z"/>
	<path class="st9" d="M183.9,129.8l22.5,0l0-8l-22.5,3.9L183.9,129.8L183.9,129.8z M195.2,159.9l-0.8-6l-2.4,1.2l1.2-2.4l-3.9-0.7
		l3.9-0.9l-1.2-2.2l2.3,1c-0.7,0.3-1.2,1-1.2,1.9c0,1.1,0.9,2,2,2c1.1,0,2-0.9,2-2c0-0.8-0.5-1.6-1.2-1.9l2.3-1l-1.2,2.2l3.9,0.9
		l-3.9,0.7l1.2,2.4l-2.4-1.2L195.2,159.9L195.2,159.9z M194.4,150l0.8-4.5l0.8,4.5c-0.2-0.1-0.5-0.2-0.8-0.2
		C194.9,149.9,194.6,149.9,194.4,150L194.4,150z M195.2,150.4l0.7,1.2l0.7,1.2h-1.4h-1.4l0.7-1.2L195.2,150.4L195.2,150.4z
		 M195.2,143.9h-2.5c-0.4,1.4,0.1,2.6-4.1,4c-0.2,5.4,0.9,12.1,6.6,14.4c5.7-2.3,6.8-9,6.6-14.4c-4.2-1.4-3.8-2.5-4.1-4H195.2
		L195.2,143.9z M205.9,167v-36.4h-0.8h-2.7h-2.5h-3.5h-2.5h-3.5H188h-3.5v6.5v4.6v6.5v4.6v6.5v4.6v5l16.1,10
		C202.3,174.8,204.1,170.9,205.9,167L205.9,167z"/>
	<path class="st10" d="M179.6,93.2c-0.2-0.4-0.5-0.9-0.6-1.1c-0.3-0.6-0.6-1.1-0.9-1.6l-3.7-6.6c-0.3-0.5-1.7-3.1-1.9-3.2l-6.8,11.9
		c-0.1,0.2-0.2,0.4-0.3,0.6h-2.6c0.1-0.3,0.3-0.5,0.4-0.7c0.2-0.4,0.4-0.7,0.6-1.1c2.4-4.4,5-8.7,7.4-13c0.4-0.7,0.8-1.5,1.3-2.2
		c0.1,0.1,1.1,1.8,1.2,2.1l3.7,6.6c0.8,1.4,1.6,2.9,2.5,4.4c0.2,0.3,1.7,2.9,2.2,4H179.6L179.6,93.2z M169.3,130.1
		c0.5,0,0.3,0.2,0.9-0.1c0.1,0.3,0.4,0.5,0.7,0.5c-0.1-0.3-0.4-0.8-0.2-1.3c0.6,0,1.2-0.5,1.6-0.7c0.5-0.3,0.7-0.8,1.6-0.7
		c1.2,0.1,2.2,1.1,2.6,2c0.6,1.2,0.2,2.7-0.6,3.4c-0.7,0.6-1.5,0.9-2.5,1c-0.4,0-0.8,0-1.1,0.1l0,1.6c0.2,0,0.7,0,0.9,0
		c0.8,0,2.2-0.3,2.9-0.6c2.3-1,2.9-3.7,2-6c-0.3-0.6-0.3-0.7-0.6-1.2c-0.4-0.5-0.3-0.4-0.9-0.9c-1.1-0.9-2.7-1.3-4.3-1.2
		c-1.3,0.1-1.8,0.4-2.1,1.5c-0.3,1-0.1,1.4-0.2,1.6c-0.2,0.6-0.6,0.6-1,0.7l-0.1,0L169.3,130.1L169.3,130.1z M171.1,141.8
		c0.1,0.1,0.9,0.3,1,0.3l0-2.6c-0.2-0.1-0.8-0.3-1-0.3L171.1,141.8L171.1,141.8z M174.1,145.8c-0.1,0-1.7-0.9-2-1l0-0.5l-1-0.2
		l0,0.7c-0.3,0.1-2.1,1.1-2.2,1.2l5.4,0C174.2,145.9,174.2,145.9,174.1,145.8L174.1,145.8z M169.7,143c0.6,0.3,0.7,0.4,1.4,0.6
		c1,0.3,2.3,0.4,3.1,1c0.8,0.5,0.7,0.9,0.9,1.2c0.2-0.2,0.1-0.8,0.1-1c-0.1-0.3-0.2-0.5-0.4-0.8c-0.3-0.4-0.8-0.7-1.4-0.9
		c-0.6-0.2-1.1-0.4-1.7-0.5c-0.3-0.1-0.6-0.2-0.8-0.3c-0.7-0.3-0.4-0.5-0.3-0.5l0-1.3c-0.5,0-1.2,0.5-1.5,1c-0.2,0.3-0.2,0.6-0.1,1
		C169.3,142.7,169.5,142.8,169.7,143L169.7,143z M168.5,137.7c0.1,0,0.2,0.1,0.3,0.1c0.1,0.1,0.2,0.1,0.3,0.1
		c0.8,0.3,3.2,0.9,3.6,1.4c0.2,0.3,0,0.4-0.2,0.5l0,1.3c0.3,0,1-0.3,1.2-0.5c0.8-0.7,0.5-1.7-0.1-2.3c-0.8-0.8-2.5-1.2-3.5-1.6
		c-1-0.4-1.3-0.8-0.1-0.9c0.2,0,0.6,0,0.8-0.1l0-1.6l-0.4,0c-0.1,0.1-0.6,0.1-0.7,0.1c-0.6,0.1-1.4,0.4-1.7,0.9
		c-0.4,0.6-0.3,1.4,0.2,2C168.3,137.5,168.5,137.6,168.5,137.7L168.5,137.7z M168.9,133c0.3,0.1,0.4,0.3,1,0.6
		c0.2,0.1,0.4,0.1,0.6,0.2c0.2,0,0.6,0.1,0.7,0.1l0,2.7l1,0.4c0.1-0.5-0.1-2.8,0-3.1c0.1,0,0.6-0.1,0.7-0.1c1.5-0.4,2.7-1.5,3.3-3
		c0-0.1-0.1-0.1-0.2-0.1l-2,0h-2.2c-1.5,0-3,0-4.5,0c0.1,0.4,0.5,1.1,0.7,1.3c0.2,0.3,0.4,0.5,0.7,0.8
		C168.7,132.9,168.8,133,168.9,133L168.9,133z M171.2,127.2c-0.6,0.2-0.2,1,0.3,0.8C172,127.8,171.7,127,171.2,127.2L171.2,127.2z
		 M182.4,94.6h-19.8v84.3c0.6-0.4,1.3-0.8,1.9-1.2l17.2-10.6l0.8,0.5V94.6L182.4,94.6z M172.8,62.5c3.7-0.8,0.5,4.1,0.1,5.4
		c2.2-0.7,1.7-1.3,4.7-0.8c0.9,0.2,4.4,0.7,5,0.9c-1.4-2.7-0.9-2.9-0.2-5.8c-2,0.7-3.4,0.5-5.4,0C175.6,61.9,173.6,61,172.8,62.5
		L172.8,62.5z M177.5,83l-3.1-5.5c-0.3-0.5-1.7-3.1-1.9-3.2l-5,8.7v-4.5c1.3-2.2,2.5-4.4,3.7-6.5c0.3-0.6,0.6-1.2,1-1.7v-7.8h0.5
		v7.7c0.3,0.5,0.9,1.5,1,1.8l3.7,6.6V83L177.5,83z M166.6,93.2c0.4-0.7,1.1-2,1.3-2.3c0.6-1.1,4.6-8.1,4.6-8.1
		c0.1,0,1.4,2.3,1.5,2.6c0.3,0.5,3.5,6.2,4.4,7.8H166.6L166.6,93.2z"/>
	<path class="st11" d="M125.4,145.5l19.5,9.9h-4.2v2.3h-1.6l0.4,19c-9.3-7.2-17.5-8.3-28.5-5.5l0.1-13.5h-1v-2.3h-4.2L125.4,145.5
		L125.4,145.5z M129.7,166.8c0.5-0.3,1.1-0.7,1.3-0.9c0.3-0.2,0.7-0.7,0.9-1c1-1.3,1.5-2.3,2.2-3.8c0.2-0.4,0.5-1-0.2-1.2
		c-0.6-0.2-1.5-0.1-2.1-0.2c-0.9-0.1-1.7-0.3-2.4-0.7c-0.3-0.2-0.8-0.6-1-0.8L128,158c-0.9-0.9-1.3-1.5-1.9,0.2
		c-0.6,1.6-1,3.5-0.8,5.4c0.2,1.1,0.5,2,1.2,2.7l0.2,0.2c0.1,0.1,0.2,0.1,0.2,0.1C127.7,167.1,128.9,167.1,129.7,166.8L129.7,166.8z
		 M124.2,152.7c-0.5,0.3-1,0.6-1.7,0.9c-0.7,0.3-1.4,0.3-2.2,0.3c-0.5,0-1.3-0.2-1.7-0.1c-0.4,0.1-0.4,0.5-0.3,0.8
		c0.1,0.6,0.7,2,0.9,2.5c0.2,0.4,0.4,0.8,0.6,1.2c0.2,0.4,0.5,0.7,0.7,1.1c0.7,1,2,2.1,3.3,2.1c0.4,0,1.1-0.1,1.4-0.3
		c0.1-0.9,0.7-3,1.1-3.8c0.3-0.5,0.6-0.4,1-0.2c0-0.1,0-0.1,0-0.2c0-1.3-0.4-2.7-0.7-4C126.2,151,125.5,151.9,124.2,152.7
		L124.2,152.7z M120,156.8c0.3-0.1,0.5-0.4,1-0.5c0.6-0.1,1.1,0.2,1.2,0.1c-0.1-0.3-0.8-0.7-1.3-0.6c-0.3,0.1-0.6,0.2-0.8,0.5
		C120.2,156.4,120,156.6,120,156.8L120,156.8z M123.9,156c0.1,0,0.3-0.2,0.4-0.4c0.3-0.3,0.7-0.5,1.2-0.5c0.2,0,0.7,0,0.3-0.2
		c-0.6-0.3-1.4-0.2-1.7,0.5C124,155.5,123.8,155.8,123.9,156L123.9,156z M125.2,157.6c-0.5,0.1-0.9,0.5-1.8,0.7
		c-0.3,0-0.9,0.1-1.1,0.2c-0.4,0.1,0.2,0.5,0.4,0.6c0.7,0.3,1.3,0.4,1.9-0.1C125.2,158.6,125.7,157.5,125.2,157.6L125.2,157.6z
		 M128.7,160.8c-0.1-0.1-0.7,0.2-1.3,0c-0.5-0.2-0.8-0.5-1-0.5c0,0.3,0.5,0.9,0.9,1C128,161.5,128.7,161.1,128.7,160.8L128.7,160.8z
		 M130.3,161.4c-0.1,0.2,0.1,1.4,1.2,1.4c0.3,0,0.6-0.1,0.8-0.3c-0.2-0.1-0.7,0-1.2-0.4c-0.2-0.1-0.3-0.2-0.4-0.4
		C130.6,161.7,130.4,161.4,130.3,161.4L130.3,161.4z M129.6,165.4c0.2-0.4-0.4-1.3-0.8-1.5c-0.5-0.4-1.4-0.3-1.9,0
		c-0.4,0.2-0.4,0.4,0.1,0.5c0.8,0.2,1.1,0.2,1.8,0.6C128.9,165.1,129.4,165.4,129.6,165.4L129.6,165.4z M126.7,150.4
		c1,0.3,1.1,1.1,1.3,2.2c0.3,1.4,0.6,2.7,0.7,4.1c0.4,0.4,0.8,0.8,1.3,1.1c0.5,0.3,1.3,0.4,1.9,0.5c0.8,0.1,1.6,0.1,2.3,0.3
		c0.6,0.2,1,0.5,1.3,1c0.3,0.5,0.4,1.2,0.1,1.7c-0.1,0.2-0.1,0.3-0.2,0.6c-0.7,1.5-1.4,2.7-2.4,4c-0.3,0.4-0.7,0.8-1,1.2
		c-3.2,3-7.5,1.5-8.2-3.2c0-0.3-0.1-0.6-0.1-1c0,0-0.1,0-0.1,0c-1.7-0.1-3.4-1.4-4.4-2.7c-0.3-0.4-0.6-0.8-0.8-1.2
		c-0.3-0.4-0.5-0.9-0.7-1.3c-0.4-0.9-1.1-2.5-1-3.5l0-0.1c0-0.4,0.1-0.8,0.3-1.1c0.6-0.9,1.7-0.9,2.6-0.7c0.2,0,0.5,0.1,0.7,0.1
		c0.6,0,1,0,1.6-0.2c0.5-0.2,0.9-0.4,1.4-0.7C124.5,150.7,125.4,150,126.7,150.4L126.7,150.4z"/>
</svg>
