<?xml version="1.0" encoding="utf-8"?>
<!-- Generator: Adobe Illustrator 22.1.0, SVG Export Plug-In . SVG Version: 6.00 Build 0)  -->
<svg version="1.1" id="Layer_1" xmlns="http://www.w3.org/2000/svg" xmlns:xlink="http://www.w3.org/1999/xlink" x="0px" y="0px"
	 viewBox="0 0 373.2 372.2" style="enable-background:new 0 0 373.2 372.2;" xml:space="preserve">
<style type="text/css">
	.st0{fill:#FFFFFF;}
</style>
<g transform="translate(300,300)">
	<path class="st0" d="M0.9-256.4c42.5,34,77.4,82.2,71.8,126.4C67-85.7,20.8-45.4-18-26.4C-56.8-7.3-88.3-9.6-118,8.9
		c-29.8,18.4-57.8,57.6-87.4,62.7c-29.6,5.1-60.7-23.8-78.3-59.6c-17.5-35.9-21.6-78.6-9.1-111.8c12.5-33.2,41.7-56.8,69.5-93.5
		c27.9-36.7,54.6-86.5,92.9-101.6C-91.8-309.9-41.7-290.3,0.9-256.4z"/>
</g>
</svg>
