<?xml version="1.0" encoding="utf-8"?>
<!-- Generator: Adobe Illustrator 22.1.0, SVG Export Plug-In . SVG Version: 6.00 Build 0)  -->
<svg version="1.1" id="Layer_2" xmlns="http://www.w3.org/2000/svg" xmlns:xlink="http://www.w3.org/1999/xlink" x="0px" y="0px"
	 viewBox="0 0 40.9 45.6" style="enable-background:new 0 0 40.9 45.6;" xml:space="preserve">
<g>
	<path d="M32.6,20.5c0.5,0.5,1.1,0.8,1.8,0.8c0.4,0,0.9-0.1,1.3-0.3c0.8-0.5,1.3-1.2,1.6-1.8c0.3-0.6,0.4-1.2,0.5-1.7
		c0-0.2,0.1-0.4,0.1-0.6l0-0.1c0.2-0.8,0.4-1.5,0.8-1.9l0.3-0.3c0.7-0.7,1.6-1.7,1.8-3c0.1-0.3,0.1-0.7,0-1
		c-0.1-0.7-0.4-1.4-0.9-1.8c-0.8-0.8-2.1-1.1-3.2-0.6c-0.9,0.4-1.6,1-2,1.9c-0.4,0.9-0.5,1.9-0.5,2.6c0,0.5,0,0.9-0.1,1.2
		c-0.2,0.6-0.6,1.1-1,1.7l-0.3,0.4c-0.5,0.7-1,1.6-1.1,2.6C31.9,19.3,32.2,20,32.6,20.5z M34.3,16.7l0.3-0.4
		c0.4-0.7,0.9-1.3,1.1-2.1c0.2-0.5,0.2-1.1,0.2-1.7c0-0.7,0-1.3,0.3-2c0.2-0.5,0.7-0.9,1.2-1.1c0.2-0.1,0.4-0.1,0.5-0.1
		c0.4,0,0.7,0.1,1,0.4c0.2,0.2,0.4,0.6,0.5,1c0,0.2,0,0.4,0,0.6c-0.1,0.9-0.8,1.6-1.4,2.2l-0.3,0.3c-0.6,0.7-0.9,1.6-1.2,2.5l0,0.1
		c-0.1,0.2-0.1,0.5-0.2,0.8c-0.1,0.4-0.2,0.9-0.4,1.2c-0.2,0.4-0.5,0.9-1,1.1c-0.5,0.3-1,0.2-1.3-0.1c-0.2-0.2-0.3-0.5-0.2-0.8
		C33.6,18,33.9,17.3,34.3,16.7z"/>
	<path d="M26.9,18.7c0.4,0,0.9-0.1,1.3-0.3c1.6-0.7,2.7-2.3,3.1-4.6c0.2-0.8,0.2-1.5,0.1-2.2c0-0.4-0.1-0.7-0.2-1.1
		c-0.1-0.2-0.1-0.4-0.1-0.6c-0.1-0.4,0-0.9,0.2-1.4c0.1-0.2,0.2-0.3,0.3-0.6c0.3-0.5,0.6-1.2,0.7-1.9c0.3-1.5,0.1-2.8-0.7-3.8
		c-1-1.3-2.9-1.7-4.2-0.7c-1.1,0.8-2.3,2.4-1.9,5.6c0.1,0.6,0.2,1.2,0.4,1.8c0.1,0.3,0.2,0.6,0.2,0.9c0.1,0.3,0.1,0.7,0,1.2l0,0.2
		c0,0.3,0,0.7-0.1,0.9c-0.1,0.3-0.3,0.7-0.5,1c-0.4,0.6-0.8,1.4-1,2.4c0,0.1,0,0.1,0,0.2c0,0.4,0,1.1,0.4,1.7
		C25.2,18.3,26,18.7,26.9,18.7z M25.9,16l0-0.1c0.1-0.7,0.4-1.3,0.8-1.9c0.2-0.4,0.5-0.9,0.7-1.3c0.1-0.4,0.2-0.9,0.2-1.3l0-0.3
		c0-0.5,0-1-0.1-1.5c-0.1-0.3-0.2-0.6-0.2-1c-0.1-0.5-0.3-1-0.3-1.6c-0.2-1.4-0.1-3.2,1.3-4.2c0.3-0.2,0.6-0.3,0.9-0.3
		c0.5,0,1,0.2,1.3,0.7c0.5,0.7,0.6,1.5,0.4,2.6c-0.1,0.5-0.3,1-0.6,1.6c-0.1,0.2-0.2,0.4-0.3,0.6c-0.3,0.7-0.4,1.5-0.3,2.2
		c0,0.2,0.1,0.5,0.2,0.8c0.1,0.3,0.1,0.6,0.2,0.9c0.1,0.5,0,1.1-0.1,1.7c-0.2,1.2-0.8,2.9-2.2,3.5c-0.6,0.3-1.2,0.1-1.5-0.3
		C25.9,16.5,25.9,16.1,25.9,16z"/>
	<path d="M15.7,8.3c0.2,0.3,0.3,0.5,0.5,0.8c0.3,0.5,0.5,1,0.7,1.5c0.1,0.5,0.1,1,0,1.6l0,0.3c-0.1,1.1,0,2.2,0.2,3.1
		c0.2,0.6,0.5,2,1.7,2.6c0.3,0.2,0.7,0.2,1.1,0.2c0.4,0,0.8-0.1,1.2-0.3c1-0.5,1.7-1.4,1.8-2.6c0.1-0.9-0.2-1.8-0.4-2.4l-0.1-0.3
		c-0.5-1.4-1-2.9-1.1-4.4c0-0.5,0-0.9,0-1.3c0-0.3,0.1-0.6,0.1-0.9c0.1-1,0.3-2.2-0.2-3.5c-0.2-0.7-0.8-2.4-2.8-2.8
		c-0.1,0-0.3,0-0.4,0c-1.1,0-2.1,0.6-2.2,0.7c-0.7,0.5-1.3,1.2-1.5,2.1c-0.5,1.8,0.2,3.4,0.8,4.5C15.4,7.6,15.5,7.9,15.7,8.3z
		 M15.8,3.3c0.2-0.6,0.5-1,0.9-1.3c0.3-0.2,0.9-0.5,1.3-0.5c0.1,0,0.1,0,0.1,0c0.9,0.2,1.3,1,1.6,1.8c0.3,0.9,0.2,1.8,0.1,2.8
		c0,0.3-0.1,0.7-0.1,1c0,0.5,0,1,0,1.5c0.1,1.6,0.7,3.2,1.2,4.7l0.1,0.3c0.2,0.5,0.3,1.2,0.3,1.8c-0.1,0.6-0.4,1.1-0.9,1.3
		c-0.3,0.1-0.8,0.2-1,0c-0.6-0.3-0.8-1.2-0.9-1.6c-0.2-0.8-0.3-1.6-0.2-2.6l0-0.3c0-0.7,0.1-1.3-0.1-2c-0.2-0.7-0.5-1.4-0.8-1.9
		C17.4,8,17.2,7.8,17,7.4c-0.2-0.3-0.3-0.5-0.5-0.8C16,5.8,15.5,4.6,15.8,3.3z"/>
	<path d="M6,15.6c0.2,0.1,0.4,0.1,0.6,0.2c0.4,0.1,0.7,0.2,1,0.4c0.6,0.3,1.2,0.8,1.8,1.6l0.3,0.4c0.8,1,1.9,2.5,3.8,2.6l0.2,0
		c0.2,0,0.4,0,0.6-0.1c1.2-0.3,2-1.3,1.8-2.5c-0.2-1-0.9-1.5-1.4-1.8c-0.1-0.1-0.2-0.1-0.2-0.2c-0.4-0.4-0.7-0.9-1.1-1.5
		c-0.1-0.2-0.3-0.5-0.5-0.7c-0.1-0.1-0.2-0.3-0.2-0.4l-0.1-0.1c-0.2-0.3-0.4-0.7-0.6-1c-0.6-0.8-1.2-1.5-1.8-2c-1-0.9-2.6-2-4.5-2
		c-0.3,0-0.6,0-0.9,0.1C3.8,8.7,3.2,9.2,2.7,10c-0.8,1.2-0.8,3,0.5,4.1C4,14.7,4.9,15.2,6,15.6z M3.9,10.8c0.3-0.4,0.6-0.6,1.1-0.8
		c0.2,0,0.4-0.1,0.6-0.1c1.3,0,2.6,0.9,3.5,1.6c0.5,0.5,1,1,1.6,1.8c0.2,0.3,0.4,0.6,0.6,0.9l0.1,0.1c0.1,0.1,0.2,0.3,0.3,0.4
		c0.2,0.2,0.3,0.5,0.4,0.7c0.4,0.6,0.8,1.3,1.3,1.8c0.1,0.1,0.2,0.2,0.3,0.3c0.4,0.3,0.7,0.5,0.8,0.9c0.1,0.6-0.4,0.7-0.6,0.8
		c-0.1,0-0.2,0-0.3,0l-0.1,0c-1.2-0.1-2-1.1-2.7-2l-0.3-0.3c-0.8-1-1.5-1.6-2.3-2c-0.4-0.2-0.8-0.3-1.3-0.5c-0.2,0-0.3-0.1-0.5-0.2
		c-0.9-0.3-1.6-0.7-2.3-1.3C3.5,12.4,3.5,11.4,3.9,10.8z"/>
	<path d="M2.9,35c0.5,0.2,1,0.3,1.4,0.4c0.3,0,0.6,0.1,0.9,0.1c0.3,0,0.6,0.1,1,0.1c0.1,0,0.3,0.1,0.4,0.1c0.4,0.1,0.9,0.2,1.4,0.2
		l0,0c0,0,0,0,0,0c0.9,0,1.8-0.4,2.3-1.1c0.7-1.1,0.3-2.3-0.4-3c-0.4-0.4-0.8-0.6-1.2-0.8l-0.3-0.1C8,30.5,7.6,30.2,7.2,30
		c-0.9-0.6-2-1.2-3.2-1.3c-0.7-0.1-1.5,0.1-2.2,0.4c-1.1,0.5-1.8,1.4-1.9,2.4C-0.1,33.1,0.9,34.3,2.9,35z M2.5,30.5
		c0.4-0.2,0.8-0.3,1.2-0.3c0.1,0,0.1,0,0.2,0c0.9,0.1,1.7,0.6,2.5,1.1c0.4,0.2,0.8,0.5,1.2,0.7l0.3,0.2c0.3,0.2,0.7,0.4,0.9,0.6
		C9,33,9.3,33.5,9,33.9c-0.2,0.3-0.6,0.5-1,0.5v0.8l0-0.8c-0.4,0-0.8-0.1-1.1-0.2c-0.2,0-0.3-0.1-0.5-0.1C6,34,5.7,34,5.3,33.9
		c-0.2,0-0.5-0.1-0.8-0.1c-0.4-0.1-0.8-0.2-1.2-0.3c-0.9-0.3-1.9-0.9-1.9-1.9C1.5,31.2,1.9,30.7,2.5,30.5z"/>
	<path d="M17.9,20.5c-0.7,0.4-2,1.1-2.2,2.5c-0.2,1.5,0.7,3.1,1.1,3.8c0,0,0,0,0,0c0.6,1,1.4,1.5,2.2,1.5c1.3,0,1.8-1.1,2.2-1.8
		c0.2-0.4,0.3-0.7,0.5-0.9c0,0,0.2,0.1,0.4,0.6l0.2,0.3c0.4,0.7,0.8,1.7,1.7,2.1c1.6,0.8,3.3,0,4.5-0.6c0.8-0.4,1-0.3,1-0.2
		c0,0,0,0.1-0.1,0.2c-0.1,0.1-0.2,0.2-0.4,0.4c-0.1,0.1-0.2,0.2-0.4,0.4c-0.3,0.3-0.5,0.7-0.7,1.1c-0.4,0.7-0.6,1.5-0.8,2.5
		c-0.1,0.4-0.1,0.7-0.2,1.1c-0.1,0.6-0.1,1.1-0.3,1.6c-0.2,0.6-0.7,0.8-0.9,0.9c-0.5,0.1-1.1,0-1.5-0.3c-0.3-0.2-0.5-0.5-0.7-0.8
		c-0.5-0.8-0.7-1.5-0.9-2.1c-0.4-1.3-0.8-2.4-3.2-3.3c-0.4-0.1-0.8,0.1-1,0.4c-0.1,0.4,0.1,0.8,0.4,1c1.8,0.7,1.9,1.2,2.3,2.3
		c0.2,0.6,0.5,1.4,1.1,2.4c0.3,0.5,0.8,0.9,1,1.1c0.6,0.5,1.3,0.7,2,0.7c0.3,0,0.6,0,0.9-0.1c0.9-0.3,1.6-0.9,1.9-1.8
		c0.2-0.6,0.3-1.3,0.4-1.9c0-0.3,0.1-0.7,0.1-1c0.2-0.9,0.4-1.5,0.7-2c0.2-0.3,0.3-0.6,0.5-0.8c0.1-0.1,0.2-0.2,0.3-0.3
		c0.2-0.2,0.4-0.4,0.6-0.6c0.5-0.8,0.4-1.7-0.3-2.3c-0.9-0.7-2.1-0.1-2.6,0.1c-1.3,0.6-2.3,1-3.2,0.6c-0.5-0.2-0.8-0.8-1-1.4
		l-0.2-0.3c-0.4-0.8-0.9-1.2-1.4-1.3c-0.3-0.1-0.7-0.1-1.2,0.3c-0.5,0.4-0.8,0.9-1,1.5c-0.3,0.7-0.5,1-0.8,1c-0.3,0-0.6-0.3-1-0.8v0
		c-0.5-0.8-1-1.9-0.9-2.7c0.1-0.7,0.9-1.1,1.4-1.4c1-0.6,1.9-0.9,2.7-1.1c1.6-0.4,3.1-0.2,4.7,0.8c0.2,0.1,0.4,0.2,0.6,0.4
		c0.6,0.4,1.1,0.7,1.7,1c0.5,0.2,1.1,0.4,1.7,0.5c1.2,0.3,2.3,0.5,2.8,1.4c0.6,1.1,0.6,2.4,0.6,3.6c0,0.6,0,1.4,0,2.3
		c0,1.1,0,2.2,0,3c0,1.7-0.2,3.4-1,4.7c-1,1.5-2.9,2.1-3.9,2.3c-0.4,0.1-0.8,0.1-1.2,0.2c-1.1,0.2-2.1,0.3-3.1,0.7
		c-0.7,0.3-1.3,0.6-2,1l-0.5,0.3c-0.2,0.1-0.3,0.2-0.6,0.3c-0.5,0.3-1,0.6-1.4,0.8c-0.4,0.1-0.8,0.1-1.1-0.1
		c-0.5-0.4-0.9-0.9-1.2-1.5c-0.4-0.8-0.9-1.4-1.4-1.9c-0.1-0.1-0.3-0.3-0.4-0.4L15.7,40c-1.4-1.3-3-2.8-2.6-4.7
		c0.2-0.9,0.9-1.4,1.8-1.9l0.3-0.2c0.9-0.6,1.7-1.4,2.3-2.3c0.2-0.3,0.1-0.8-0.2-1c-0.3-0.2-0.8-0.1-1,0.2c-0.5,0.7-1.1,1.3-1.9,1.8
		L14,32.2c-0.9,0.6-2.2,1.3-2.4,2.9c-0.5,2.7,1.6,4.7,3.1,6.1l0.1,0.1c0.1,0.1,0.3,0.3,0.4,0.4c0.4,0.4,0.8,0.9,1.1,1.5
		c0.4,0.7,0.9,1.5,1.7,2c0.4,0.3,0.9,0.4,1.5,0.4c0.3,0,0.6-0.1,0.9-0.2c0.6-0.2,1.2-0.6,1.8-1c0.2-0.1,0.3-0.2,0.5-0.3l0.5-0.3
		c0.6-0.4,1.2-0.7,1.7-0.9c0.8-0.3,1.8-0.5,2.8-0.6c0.4-0.1,0.8-0.1,1.2-0.2c1.3-0.2,3.7-0.9,4.9-2.9c1-1.6,1.2-3.6,1.3-5.5
		c0-0.8,0-1.9,0-3.1c0-0.9,0-1.7,0-2.3c0-1.3,0-2.9-0.8-4.4c-0.8-1.5-2.5-1.8-3.8-2.1c-0.5-0.1-1.1-0.2-1.4-0.4
		c-0.5-0.2-1-0.5-1.6-0.9c-0.2-0.1-0.4-0.2-0.6-0.4c-1.9-1.2-3.9-1.5-5.9-0.9C19.9,19.5,19,19.9,17.9,20.5z"/>
</g>
</svg>
