<svg xmlns="http://www.w3.org/2000/svg" xmlns:xlink="http://www.w3.org/1999/xlink">

  <symbol id="iconSheer" viewBox="0 0 270.4 98.1">
      <path d="M175.1,51.8c0.2,1.2,0.3,2.1,0.5,3c2,8.4,8.6,14,17.2,14.7c7.6,0.6,13.6-2.3,18-8.5c2.2-3,5.7-3.5,8.5-1.1
        c1.6,1.4,1.8,3.2,0.5,4.9c-0.7,0.9-1.4,1.8-2.1,2.8c-2.9,4-6.7,6.7-11.4,8.3c-7.6,2.6-15.2,3-22.7,0.2
        c-10.1-3.7-16.1-11.1-17.8-21.7c-1-6.5-0.4-13,2.6-18.9c4.3-8.4,11.1-13.6,20.5-15.1c6.2-1,12.4-0.4,18.2,2.4
        c8.2,3.9,13.2,10.5,15.1,19.3c0.5,2.4,0.7,4.9,0.9,7.3c0.2,1.5-0.5,2.2-2.1,2.3c-0.7,0-1.4,0-2.1,0c-14,0-28,0-42,0
        C176.5,51.8,176,51.8,175.1,51.8z M213.4,42.6c-1.2-7.9-10.7-14.7-19.4-14.2c-9.1,0.5-18.2,7.5-18.5,14.2
        C188,42.6,200.7,42.6,213.4,42.6z"/>
      <path d="M112.4,51.6c0.1,0.8,0.2,1.4,0.3,2c1.7,9.3,9.3,15.7,18.7,15.9c7.1,0.1,12.7-2.8,16.8-8.6
        c2.2-3.1,6.1-3.4,8.8-0.7c1.3,1.4,1.5,3,0.3,4.6c-0.5,0.8-1.1,1.5-1.7,2.2c-3.1,4.5-7.3,7.4-12.5,9.1c-7.6,2.5-15.2,2.7-22.5-0.2
        C110,71.8,104.2,63.8,103,52.6c-0.6-5.4-0.1-10.7,2.2-15.6c4.3-9.4,11.4-15.2,21.8-16.6c5.5-0.7,11-0.3,16.1,1.8
        c9.2,3.8,14.6,10.9,16.6,20.6c0.4,2.2,0.6,4.5,0.7,6.7c0.1,1.8-0.3,2.2-2.2,2.2c-3.3,0-6.7,0-10,0c-11.2,0-22.4,0-33.5,0
        C114,51.6,113.3,51.6,112.4,51.6z M150.8,42.5c-1.2-7.8-10.4-14.4-19.4-14.2c-8.8,0.2-17.9,7.2-18.6,14.2
        C125.4,42.5,138,42.5,150.8,42.5z"/>
      <path d="M251.8,56c0.7,0.6,1.1,1,1.5,1.4c4.9,4.2,9.8,8.3,14.6,12.5c0.3,0.3,0.7,0.6,1,0.9c1.8,1.8,2,4.4,0.3,6.2
        c-1.6,1.8-4.2,2.1-6.1,0.5c-3.4-2.8-6.7-5.7-10-8.5c-4.8-4.1-9.5-8.1-14.3-12.2c-0.4-0.4-0.9-0.7-1.6-1.3c0,1-0.1,1.6-0.1,2.3
        c0,11.5,0,23,0,34.5c0,0.5,0,1.1,0,1.6c-0.2,2.5-2.1,4.3-4.6,4.2c-2.4-0.1-4.1-1.9-4.2-4.4c0-0.5,0-1.1,0-1.6c0-22.7,0-45.4,0-68.1
        c0-0.7,0-1.4,0-2.1c0-1.6,0.2-1.9,1.7-1.9c2.1-0.1,4.2-0.1,6.2-0.1c5,0,10.1,0.2,15.1-0.1c8.4-0.4,17.8,6.4,18.7,16.3
        c0.8,8.9-5.2,17.3-14.3,19.1C254.6,55.4,253.4,55.7,251.8,56z M236.5,49.1c0.5,0.1,0.9,0.1,1.2,0.1c4.2,0,8.4,0,12.6,0
        c1.2,0,2.4-0.1,3.6-0.5c3.9-1.2,7-3.5,8-7.7c1.7-7.1-3.6-13.7-10.9-13.7c-4.3,0-8.6,0-13,0c-0.5,0-1,0.1-1.5,0.1
        C236.5,34.6,236.5,41.7,236.5,49.1z"/>
      <path d="M88.5,52c-8.3,0-16.4,0-24.6,0c0,0.7-0.1,1.4-0.1,2c0,6.3,0,12.6,0,18.9c0,0.8,0,1.6-0.2,2.3
        c-0.6,1.9-2.6,3.1-4.5,3c-2.1-0.2-3.8-1.8-4.1-3.9c-0.1-0.5,0-1,0-1.5c0-22.5,0-45,0-67.4c0-0.9,0.1-1.8,0.4-2.6
        C56,0.8,58-0.2,60.1,0C62,0.3,63.6,2,63.8,3.9c0.1,0.6,0,1.2,0,1.8c0,11.6,0,23.1,0,34.7c0,0.7,0.1,1.4,0.1,2
        c1.5,0.4,22.9,0.4,24.5,0c0-0.5,0.1-1.1,0.1-1.7c0-5.1,0-10.2,0-15.3c0-0.5,0-1,0-1.5c0.2-2.3,1.9-4,4.2-4.1
        c2.3-0.1,4.3,1.6,4.6,3.9c0.1,0.5,0,1,0,1.5c0,15.8,0,31.6,0,47.4c0,0.5,0,1,0,1.5c-0.3,2.3-2.3,4.1-4.5,4c-2.3-0.1-4.1-1.9-4.3-4.2
        c0-0.5,0-1,0-1.5c0-6.1,0-12.3,0-18.4C88.5,53.4,88.5,52.8,88.5,52z"/>
      <path d="M25,78.3c-5.9-0.1-11.4-1.4-16.5-4.4c-2.2-1.3-4.2-2.9-5.8-4.8c-0.8-1-1.6-2.1-2.2-3.3c-1-1.9-0.6-3.4,0.9-4.9
        c1.7-1.6,4.1-2.3,6.4-0.7C9,61,10,62,10.9,63c0.9,0.9,1.6,1.9,2.5,2.8c2.7,2.7,6,4.2,9.8,4.6c3.5,0.4,7,0.3,10.4-0.9
        c1.4-0.5,2.8-1.2,4-2.1c2.9-2.2,3-5.9,0.2-8.2c-1.3-1.1-2.9-1.9-4.5-2.6c-4-1.7-8.1-2.9-12.3-4c-3.4-0.8-6.7-1.9-10.1-2.9
        c-1.3-0.4-2.5-1.1-3.7-1.7c-3.2-1.7-5-4.4-5.5-7.9c-1-7.1,1.7-12.8,8.1-15.9c9.8-4.8,19.7-5.2,29.4,0.4c1.8,1,3.5,2.5,5.1,3.9
        c1.2,1,2,2.5,2.5,4c0.8,2.6-0.5,3.9-2.8,4.4c-2,0.4-3.8-0.2-5.2-1.7c-0.3-0.3-0.5-0.6-0.7-0.9c-2.3-3.4-5.6-5.3-9.6-6.1
        c-4-0.7-8-0.6-11.8,0.9c-1.4,0.5-2.8,1.3-3.9,2.3c-2.7,2.3-2.7,5.4-0.1,7.8c1.7,1.6,3.7,2.5,5.9,3c4.8,1.2,9.7,2.4,14.5,3.6
        c3.1,0.8,6.1,1.8,8.9,3.4c3.6,1.9,6.2,4.7,7.1,8.8c1.1,5,0,9.4-3.9,13c-4.4,4-9.5,6.3-15.4,7C28.1,78.1,26.5,78.2,25,78.3z"/>
    </symbol>

  <symbol id="iconAdv1" viewBox="0 0 39 40.8" style="enable-background:new 0 0 39 40.8;" xml:space="preserve">
    <path d="M0,3.4v28.5C0,33,0.7,34,1.8,34.4l16.7,6.2c0.3,0.1,0.7,0.2,1,0.2c0.4,0,0.7-0.1,1-0.2l16.7-6.2C38.3,34,39,33,39,31.8V3.4
    c0-1.2-0.7-2.2-1.8-2.6l-0.9-0.3c-0.2-0.1-0.3-0.1-0.5,0L20.7,5.7l-4.4-1.5c-0.2-0.1-0.4-0.1-0.6,0.1l-3.5,2
    c-0.2,0.1-0.4,0.4-0.4,0.6v6.2l-1.2-1.4c-0.2-0.3-0.6-0.3-0.9-0.2l-1.2,0.6V5.5l3.1-1.6c0.3-0.1,0.4-0.4,0.4-0.7
    c0-0.3-0.2-0.6-0.5-0.7L4.4,0C4.3,0,4.1,0,3.9,0L1.8,0.7C0.7,1.1,0,2.2,0,3.4z M2.3,2.2l1.8-0.6l5.3,1.8l-2,1.1
    C7.2,4.6,7,4.8,7,5.1v8.2c0,0.3,0.1,0.5,0.3,0.6c0.2,0.1,0.5,0.2,0.7,0l1.8-0.9l2.2,2.5c0.2,0.2,0.5,0.3,0.8,0.2
    c0.3-0.1,0.5-0.4,0.5-0.7V7.3l2.8-1.6l4.3,1.5c0.2,0.1,0.3,0.1,0.5,0l15.1-5.3l0.6,0.2c0.5,0.2,0.8,0.7,0.8,1.2v28.5
    c0,0.5-0.3,1-0.8,1.2L20,39.2c-0.3,0.1-0.7,0.1-1,0L2.3,33c-0.5-0.2-0.8-0.7-0.8-1.2V3.4C1.5,2.8,1.8,2.3,2.3,2.2z"/>
    <path d="M24.4,20.7c0.3,0.2,0.7,0.3,1,0.3c0.2,0,0.4,0,0.6-0.1l8.2-3c0.7-0.3,1.2-0.9,1.2-1.7v-4.9c0-0.6-0.3-1.1-0.8-1.5
      c-0.5-0.3-1.1-0.4-1.6-0.2l-8.2,3c-0.7,0.3-1.2,0.9-1.2,1.7v4.9C23.6,19.8,23.9,20.3,24.4,20.7z M25.1,14.3c0-0.1,0.1-0.2,0.2-0.3
      l8.2-3c0,0,0.1,0,0.1,0c0.1,0,0.1,0,0.2,0.1c0.1,0.1,0.1,0.1,0.1,0.2v4.9c0,0.1-0.1,0.2-0.2,0.3l-8.2,3c-0.1,0-0.2,0-0.3,0
      c-0.1-0.1-0.1-0.1-0.1-0.2V14.3z"/>
  </symbol>

  <symbol id="iconAdv2" viewBox="0 0 47.6 43.5" style="enable-background:new 0 0 47.6 43.5;" xml:space="preserve">

    <path d="M24.4,8.2c-0.1-0.4-0.6-0.5-1-0.5c-0.5,0-0.9,0.2-1,0.5l-3,9.9c0,0,0,0.1,0,0.1c0,0.4,0.6,0.7,1,0.7c0.3,0,0.5-0.1,0.6-0.3
      l0.6-2.2h3.8l0.6,2.2c0.1,0.2,0.3,0.3,0.5,0.3c0.5,0,1-0.3,1-0.7c0,0,0-0.1,0-0.1L24.4,8.2z M21.9,15.1l1.5-5.2l1.5,5.2H21.9z"/>
    <path d="M13.4,32.9c0.8-0.4,1.3-1.2,1.3-2.5c0-2.1-1.4-2.6-3.1-2.6H8.8c-0.4,0-0.7,0.2-0.7,0.5v10.1c0,0.3,0.3,0.5,0.7,0.5h3.1
      c1.7,0,3-0.8,3-3.2v-0.3C14.9,33.9,14.3,33.3,13.4,32.9z M9.7,29.3h1.8c1,0,1.6,0.4,1.6,1.5c0,1-0.5,1.6-1.5,1.6H9.7V29.3z
       M13.3,35.6c0,1.3-0.6,1.9-1.7,1.9H9.7v-4h1.9c1.1,0,1.7,0.5,1.7,1.8V35.6z"/>
    <path d="M36.9,29.3c1.6,0,1.8,1.1,1.8,1.6c0,0.4,0.3,0.5,0.8,0.5c0.5,0,0.8-0.2,0.8-0.8c0-1.6-1.4-2.8-3.5-2.8
      c-1.8,0-3.4,0.9-3.4,3.4v4.4c0,2.5,1.5,3.4,3.4,3.4c2.1,0,3.5-1.2,3.5-2.8c0-0.7-0.3-0.8-0.8-0.8c-0.4,0-0.8,0.1-0.8,0.5
      c-0.1,0.7-0.2,1.7-1.8,1.7c-1.2,0-1.9-0.6-1.9-2v-4.4C35.1,29.9,35.7,29.3,36.9,29.3z"/>
    <path d="M46.8,23l-3.7-2.8c-0.3-0.2-0.7-0.4-1.1-0.4h-6.8V4.7c0-0.2-0.1-0.5-0.1-0.7c0,0,0,0,0-0.1c-0.1-0.3-0.3-0.5-0.6-0.7
      l-3.7-2.8C30.4,0.1,30,0,29.5,0H17.4c-0.4,0-0.8,0.1-1.1,0.4l-3.7,2.8c-0.3,0.2-0.4,0.5-0.6,0.7c0,0,0,0,0,0.1
      c-0.1,0.2-0.1,0.5-0.1,0.7v15.1H5.6c-0.4,0-0.8,0.1-1.1,0.4L0.7,23C0.3,23.4,0,24,0,24.5v17.1c0,1,0.8,1.9,1.9,1.9h19.6
      c1,0,1.9-0.8,1.9-1.9V25.3h2v17.5c0,0.4,0.3,0.8,0.8,0.8h19.6c1,0,1.9-0.8,1.9-1.9V24.5C47.6,23.9,47.3,23.4,46.8,23z M46.1,41.6
      c0,0.2-0.2,0.4-0.4,0.4H26.9V25.3h4.8c0.4,0,0.8-0.3,0.8-0.8c0-0.4-0.3-0.8-0.8-0.8H15.6c-0.4,0-0.8,0.3-0.8,0.8
      c0,0.4,0.3,0.8,0.8,0.8h6.2v16.3c0,0.2-0.2,0.4-0.4,0.4H1.9c-0.2,0-0.4-0.2-0.4-0.4V25.3h7.4c0.4,0,0.8-0.3,0.8-0.8
      s-0.3-0.8-0.8-0.8H2.2l3.1-2.4c0.1-0.1,0.2-0.1,0.2-0.1h6.2v2.9c0,0.4,0.3,0.8,0.8,0.8c0.4,0,0.8-0.3,0.8-0.8V5h7.5
      c0.4,0,0.8-0.3,0.8-0.8s-0.3-0.8-0.8-0.8h-6.2l2.5-1.9c0.1-0.1,0.1-0.1,0.2-0.1h12.2c0.1,0,0.2,0,0.2,0.1l2.5,1.9h-0.5
      c-0.4,0-0.8,0.3-0.8,0.8S31.4,5,31.8,5h1.9v16.9c0,0.4,0.3,0.8,0.8,0.8c0.4,0,0.8-0.3,0.8-0.8v-0.6H42c0.1,0,0.2,0,0.2,0.1l3.1,2.4
      h-4c-0.4,0-0.8,0.3-0.8,0.8s0.3,0.8,0.8,0.8h4.8V41.6z"/>
  </symbol>

  <symbol id="iconAdv3" viewBox="0 0 40.9 45.6" style="enable-background:new 0 0 40.9 45.6;" xml:space="preserve">
    <path d="M32.6,20.5c0.5,0.5,1.1,0.8,1.8,0.8c0.4,0,0.9-0.1,1.3-0.3c0.8-0.5,1.3-1.2,1.6-1.8c0.3-0.6,0.4-1.2,0.5-1.7
      c0-0.2,0.1-0.4,0.1-0.6l0-0.1c0.2-0.8,0.4-1.5,0.8-1.9l0.3-0.3c0.7-0.7,1.6-1.7,1.8-3c0.1-0.3,0.1-0.7,0-1
      c-0.1-0.7-0.4-1.4-0.9-1.8c-0.8-0.8-2.1-1.1-3.2-0.6c-0.9,0.4-1.6,1-2,1.9c-0.4,0.9-0.5,1.9-0.5,2.6c0,0.5,0,0.9-0.1,1.2
      c-0.2,0.6-0.6,1.1-1,1.7l-0.3,0.4c-0.5,0.7-1,1.6-1.1,2.6C31.9,19.3,32.2,20,32.6,20.5z M34.3,16.7l0.3-0.4
      c0.4-0.7,0.9-1.3,1.1-2.1c0.2-0.5,0.2-1.1,0.2-1.7c0-0.7,0-1.3,0.3-2c0.2-0.5,0.7-0.9,1.2-1.1c0.2-0.1,0.4-0.1,0.5-0.1
      c0.4,0,0.7,0.1,1,0.4c0.2,0.2,0.4,0.6,0.5,1c0,0.2,0,0.4,0,0.6c-0.1,0.9-0.8,1.6-1.4,2.2l-0.3,0.3c-0.6,0.7-0.9,1.6-1.2,2.5l0,0.1
      c-0.1,0.2-0.1,0.5-0.2,0.8c-0.1,0.4-0.2,0.9-0.4,1.2c-0.2,0.4-0.5,0.9-1,1.1c-0.5,0.3-1,0.2-1.3-0.1c-0.2-0.2-0.3-0.5-0.2-0.8
      C33.6,18,33.9,17.3,34.3,16.7z"/>
    <path d="M26.9,18.7c0.4,0,0.9-0.1,1.3-0.3c1.6-0.7,2.7-2.3,3.1-4.6c0.2-0.8,0.2-1.5,0.1-2.2c0-0.4-0.1-0.7-0.2-1.1
      c-0.1-0.2-0.1-0.4-0.1-0.6c-0.1-0.4,0-0.9,0.2-1.4c0.1-0.2,0.2-0.3,0.3-0.6c0.3-0.5,0.6-1.2,0.7-1.9c0.3-1.5,0.1-2.8-0.7-3.8
      c-1-1.3-2.9-1.7-4.2-0.7c-1.1,0.8-2.3,2.4-1.9,5.6c0.1,0.6,0.2,1.2,0.4,1.8c0.1,0.3,0.2,0.6,0.2,0.9c0.1,0.3,0.1,0.7,0,1.2l0,0.2
      c0,0.3,0,0.7-0.1,0.9c-0.1,0.3-0.3,0.7-0.5,1c-0.4,0.6-0.8,1.4-1,2.4c0,0.1,0,0.1,0,0.2c0,0.4,0,1.1,0.4,1.7
      C25.2,18.3,26,18.7,26.9,18.7z M25.9,16l0-0.1c0.1-0.7,0.4-1.3,0.8-1.9c0.2-0.4,0.5-0.9,0.7-1.3c0.1-0.4,0.2-0.9,0.2-1.3l0-0.3
      c0-0.5,0-1-0.1-1.5c-0.1-0.3-0.2-0.6-0.2-1c-0.1-0.5-0.3-1-0.3-1.6c-0.2-1.4-0.1-3.2,1.3-4.2c0.3-0.2,0.6-0.3,0.9-0.3
      c0.5,0,1,0.2,1.3,0.7c0.5,0.7,0.6,1.5,0.4,2.6c-0.1,0.5-0.3,1-0.6,1.6c-0.1,0.2-0.2,0.4-0.3,0.6c-0.3,0.7-0.4,1.5-0.3,2.2
      c0,0.2,0.1,0.5,0.2,0.8c0.1,0.3,0.1,0.6,0.2,0.9c0.1,0.5,0,1.1-0.1,1.7c-0.2,1.2-0.8,2.9-2.2,3.5c-0.6,0.3-1.2,0.1-1.5-0.3
      C25.9,16.5,25.9,16.1,25.9,16z"/>
    <path d="M15.7,8.3c0.2,0.3,0.3,0.5,0.5,0.8c0.3,0.5,0.5,1,0.7,1.5c0.1,0.5,0.1,1,0,1.6l0,0.3c-0.1,1.1,0,2.2,0.2,3.1
      c0.2,0.6,0.5,2,1.7,2.6c0.3,0.2,0.7,0.2,1.1,0.2c0.4,0,0.8-0.1,1.2-0.3c1-0.5,1.7-1.4,1.8-2.6c0.1-0.9-0.2-1.8-0.4-2.4l-0.1-0.3
      c-0.5-1.4-1-2.9-1.1-4.4c0-0.5,0-0.9,0-1.3c0-0.3,0.1-0.6,0.1-0.9c0.1-1,0.3-2.2-0.2-3.5c-0.2-0.7-0.8-2.4-2.8-2.8
      c-0.1,0-0.3,0-0.4,0c-1.1,0-2.1,0.6-2.2,0.7c-0.7,0.5-1.3,1.2-1.5,2.1c-0.5,1.8,0.2,3.4,0.8,4.5C15.4,7.6,15.5,7.9,15.7,8.3z
       M15.8,3.3c0.2-0.6,0.5-1,0.9-1.3c0.3-0.2,0.9-0.5,1.3-0.5c0.1,0,0.1,0,0.1,0c0.9,0.2,1.3,1,1.6,1.8c0.3,0.9,0.2,1.8,0.1,2.8
      c0,0.3-0.1,0.7-0.1,1c0,0.5,0,1,0,1.5c0.1,1.6,0.7,3.2,1.2,4.7l0.1,0.3c0.2,0.5,0.3,1.2,0.3,1.8c-0.1,0.6-0.4,1.1-0.9,1.3
      c-0.3,0.1-0.8,0.2-1,0c-0.6-0.3-0.8-1.2-0.9-1.6c-0.2-0.8-0.3-1.6-0.2-2.6l0-0.3c0-0.7,0.1-1.3-0.1-2c-0.2-0.7-0.5-1.4-0.8-1.9
      C17.4,8,17.2,7.8,17,7.4c-0.2-0.3-0.3-0.5-0.5-0.8C16,5.8,15.5,4.6,15.8,3.3z"/>
    <path d="M6,15.6c0.2,0.1,0.4,0.1,0.6,0.2c0.4,0.1,0.7,0.2,1,0.4c0.6,0.3,1.2,0.8,1.8,1.6l0.3,0.4c0.8,1,1.9,2.5,3.8,2.6l0.2,0
      c0.2,0,0.4,0,0.6-0.1c1.2-0.3,2-1.3,1.8-2.5c-0.2-1-0.9-1.5-1.4-1.8c-0.1-0.1-0.2-0.1-0.2-0.2c-0.4-0.4-0.7-0.9-1.1-1.5
      c-0.1-0.2-0.3-0.5-0.5-0.7c-0.1-0.1-0.2-0.3-0.2-0.4l-0.1-0.1c-0.2-0.3-0.4-0.7-0.6-1c-0.6-0.8-1.2-1.5-1.8-2c-1-0.9-2.6-2-4.5-2
      c-0.3,0-0.6,0-0.9,0.1C3.8,8.7,3.2,9.2,2.7,10c-0.8,1.2-0.8,3,0.5,4.1C4,14.7,4.9,15.2,6,15.6z M3.9,10.8c0.3-0.4,0.6-0.6,1.1-0.8
      c0.2,0,0.4-0.1,0.6-0.1c1.3,0,2.6,0.9,3.5,1.6c0.5,0.5,1,1,1.6,1.8c0.2,0.3,0.4,0.6,0.6,0.9l0.1,0.1c0.1,0.1,0.2,0.3,0.3,0.4
      c0.2,0.2,0.3,0.5,0.4,0.7c0.4,0.6,0.8,1.3,1.3,1.8c0.1,0.1,0.2,0.2,0.3,0.3c0.4,0.3,0.7,0.5,0.8,0.9c0.1,0.6-0.4,0.7-0.6,0.8
      c-0.1,0-0.2,0-0.3,0l-0.1,0c-1.2-0.1-2-1.1-2.7-2l-0.3-0.3c-0.8-1-1.5-1.6-2.3-2c-0.4-0.2-0.8-0.3-1.3-0.5c-0.2,0-0.3-0.1-0.5-0.2
      c-0.9-0.3-1.6-0.7-2.3-1.3C3.5,12.4,3.5,11.4,3.9,10.8z"/>
    <path d="M2.9,35c0.5,0.2,1,0.3,1.4,0.4c0.3,0,0.6,0.1,0.9,0.1c0.3,0,0.6,0.1,1,0.1c0.1,0,0.3,0.1,0.4,0.1c0.4,0.1,0.9,0.2,1.4,0.2
      l0,0c0,0,0,0,0,0c0.9,0,1.8-0.4,2.3-1.1c0.7-1.1,0.3-2.3-0.4-3c-0.4-0.4-0.8-0.6-1.2-0.8l-0.3-0.1C8,30.5,7.6,30.2,7.2,30
      c-0.9-0.6-2-1.2-3.2-1.3c-0.7-0.1-1.5,0.1-2.2,0.4c-1.1,0.5-1.8,1.4-1.9,2.4C-0.1,33.1,0.9,34.3,2.9,35z M2.5,30.5
      c0.4-0.2,0.8-0.3,1.2-0.3c0.1,0,0.1,0,0.2,0c0.9,0.1,1.7,0.6,2.5,1.1c0.4,0.2,0.8,0.5,1.2,0.7l0.3,0.2c0.3,0.2,0.7,0.4,0.9,0.6
      C9,33,9.3,33.5,9,33.9c-0.2,0.3-0.6,0.5-1,0.5v0.8l0-0.8c-0.4,0-0.8-0.1-1.1-0.2c-0.2,0-0.3-0.1-0.5-0.1C6,34,5.7,34,5.3,33.9
      c-0.2,0-0.5-0.1-0.8-0.1c-0.4-0.1-0.8-0.2-1.2-0.3c-0.9-0.3-1.9-0.9-1.9-1.9C1.5,31.2,1.9,30.7,2.5,30.5z"/>
    <path d="M17.9,20.5c-0.7,0.4-2,1.1-2.2,2.5c-0.2,1.5,0.7,3.1,1.1,3.8c0,0,0,0,0,0c0.6,1,1.4,1.5,2.2,1.5c1.3,0,1.8-1.1,2.2-1.8
      c0.2-0.4,0.3-0.7,0.5-0.9c0,0,0.2,0.1,0.4,0.6l0.2,0.3c0.4,0.7,0.8,1.7,1.7,2.1c1.6,0.8,3.3,0,4.5-0.6c0.8-0.4,1-0.3,1-0.2
      c0,0,0,0.1-0.1,0.2c-0.1,0.1-0.2,0.2-0.4,0.4c-0.1,0.1-0.2,0.2-0.4,0.4c-0.3,0.3-0.5,0.7-0.7,1.1c-0.4,0.7-0.6,1.5-0.8,2.5
      c-0.1,0.4-0.1,0.7-0.2,1.1c-0.1,0.6-0.1,1.1-0.3,1.6c-0.2,0.6-0.7,0.8-0.9,0.9c-0.5,0.1-1.1,0-1.5-0.3c-0.3-0.2-0.5-0.5-0.7-0.8
      c-0.5-0.8-0.7-1.5-0.9-2.1c-0.4-1.3-0.8-2.4-3.2-3.3c-0.4-0.1-0.8,0.1-1,0.4c-0.1,0.4,0.1,0.8,0.4,1c1.8,0.7,1.9,1.2,2.3,2.3
      c0.2,0.6,0.5,1.4,1.1,2.4c0.3,0.5,0.8,0.9,1,1.1c0.6,0.5,1.3,0.7,2,0.7c0.3,0,0.6,0,0.9-0.1c0.9-0.3,1.6-0.9,1.9-1.8
      c0.2-0.6,0.3-1.3,0.4-1.9c0-0.3,0.1-0.7,0.1-1c0.2-0.9,0.4-1.5,0.7-2c0.2-0.3,0.3-0.6,0.5-0.8c0.1-0.1,0.2-0.2,0.3-0.3
      c0.2-0.2,0.4-0.4,0.6-0.6c0.5-0.8,0.4-1.7-0.3-2.3c-0.9-0.7-2.1-0.1-2.6,0.1c-1.3,0.6-2.3,1-3.2,0.6c-0.5-0.2-0.8-0.8-1-1.4
      l-0.2-0.3c-0.4-0.8-0.9-1.2-1.4-1.3c-0.3-0.1-0.7-0.1-1.2,0.3c-0.5,0.4-0.8,0.9-1,1.5c-0.3,0.7-0.5,1-0.8,1c-0.3,0-0.6-0.3-1-0.8v0
      c-0.5-0.8-1-1.9-0.9-2.7c0.1-0.7,0.9-1.1,1.4-1.4c1-0.6,1.9-0.9,2.7-1.1c1.6-0.4,3.1-0.2,4.7,0.8c0.2,0.1,0.4,0.2,0.6,0.4
      c0.6,0.4,1.1,0.7,1.7,1c0.5,0.2,1.1,0.4,1.7,0.5c1.2,0.3,2.3,0.5,2.8,1.4c0.6,1.1,0.6,2.4,0.6,3.6c0,0.6,0,1.4,0,2.3
      c0,1.1,0,2.2,0,3c0,1.7-0.2,3.4-1,4.7c-1,1.5-2.9,2.1-3.9,2.3c-0.4,0.1-0.8,0.1-1.2,0.2c-1.1,0.2-2.1,0.3-3.1,0.7
      c-0.7,0.3-1.3,0.6-2,1l-0.5,0.3c-0.2,0.1-0.3,0.2-0.6,0.3c-0.5,0.3-1,0.6-1.4,0.8c-0.4,0.1-0.8,0.1-1.1-0.1
      c-0.5-0.4-0.9-0.9-1.2-1.5c-0.4-0.8-0.9-1.4-1.4-1.9c-0.1-0.1-0.3-0.3-0.4-0.4L15.7,40c-1.4-1.3-3-2.8-2.6-4.7
      c0.2-0.9,0.9-1.4,1.8-1.9l0.3-0.2c0.9-0.6,1.7-1.4,2.3-2.3c0.2-0.3,0.1-0.8-0.2-1c-0.3-0.2-0.8-0.1-1,0.2c-0.5,0.7-1.1,1.3-1.9,1.8
      L14,32.2c-0.9,0.6-2.2,1.3-2.4,2.9c-0.5,2.7,1.6,4.7,3.1,6.1l0.1,0.1c0.1,0.1,0.3,0.3,0.4,0.4c0.4,0.4,0.8,0.9,1.1,1.5
      c0.4,0.7,0.9,1.5,1.7,2c0.4,0.3,0.9,0.4,1.5,0.4c0.3,0,0.6-0.1,0.9-0.2c0.6-0.2,1.2-0.6,1.8-1c0.2-0.1,0.3-0.2,0.5-0.3l0.5-0.3
      c0.6-0.4,1.2-0.7,1.7-0.9c0.8-0.3,1.8-0.5,2.8-0.6c0.4-0.1,0.8-0.1,1.2-0.2c1.3-0.2,3.7-0.9,4.9-2.9c1-1.6,1.2-3.6,1.3-5.5
      c0-0.8,0-1.9,0-3.1c0-0.9,0-1.7,0-2.3c0-1.3,0-2.9-0.8-4.4c-0.8-1.5-2.5-1.8-3.8-2.1c-0.5-0.1-1.1-0.2-1.4-0.4
      c-0.5-0.2-1-0.5-1.6-0.9c-0.2-0.1-0.4-0.2-0.6-0.4c-1.9-1.2-3.9-1.5-5.9-0.9C19.9,19.5,19,19.9,17.9,20.5z"/>
  </symbol>

  <symbol id="iconAdv4" viewBox="0 0 49.4 37.3" style="enable-background:new 0 0 49.4 37.3;" xml:space="preserve">
    <path d="M9.5,28.6c-0.2-0.4-0.6-0.6-1-0.4c-0.4,0.2-0.6,0.6-0.4,1c2.1,4.9,8.8,8.1,16.9,8.1c0,0,0,0,0,0c8.1,0,14.8-3.2,16.9-8.1
      c0.2-0.4,0-0.8-0.4-1c-0.4-0.2-0.8,0-1,0.4c-1.9,4.4-8,7.2-15.5,7.2c0,0,0,0,0,0C17.5,35.8,11.4,32.9,9.5,28.6z"/>
    <path d="M24.9,28.2c1.4,1.5,3.3,2.4,5.3,2.4c1,0,2.2-0.5,2.9-1.1c0.3-0.3,0.3-0.8,0-1.1c-0.3-0.3-0.8-0.3-1.1,0
      c-0.5,0.4-1.3,0.7-1.9,0.7c-1.8,0-3.6-1-4.7-2.6c-0.3-0.4-1-0.4-1.2,0c-1.1,1.6-2.8,2.6-4.7,2.6c-0.7,0-1.5-0.3-2-0.8
      c-0.3-0.3-0.8-0.3-1.1,0.1c-0.3,0.3-0.3,0.8,0.1,1.1c0.8,0.7,1.9,1.1,3,1.1C21.6,30.6,23.5,29.7,24.9,28.2z"/>
    <path d="M20.9,26.8c1.4-0.6,2.4-1.9,2.5-3.4c0.1-1.5-0.6-3-2-3.8c-0.3-0.2-0.5-0.3-0.8-0.4c-0.7-0.3-1-1.1-0.8-1.8
      c0-0.1,0.1-0.3,0.2-0.4c0.4-0.7,1.1-1.1,1.9-1.1h5.6c0.8,0,1.5,0.4,1.9,1.1c0.2,0.4,0.2,0.8,0.1,1.2c-0.1,0.4-0.4,0.7-0.8,0.9
      c-1.5,0.7-2.5,2.2-2.5,3.9c0,1.7,1.1,3.2,2.6,3.8c0.1,0,0.2,0.1,0.3,0.1L32,27c9.8,0.5,14.4,0.7,15.9,0.7c0.4,0,0.7-0.1,1-0.4
      c0.3-0.3,0.4-0.6,0.4-1v-2.3c0-0.8-0.6-1.4-1.4-1.4l-6.5-0.2l5.2-1.7c0.4-0.1,0.7-0.4,0.9-0.7c0-0.1,0.1-0.2,0.1-0.3
      c0.1-0.3,0.1-0.6,0-0.8l-0.6-2c-0.1-0.4-0.4-0.7-0.7-0.9c-0.4-0.2-0.8-0.2-1.2-0.1l-2.1,0.7c-0.2-1.6-0.7-3.1-1.6-4.7
      c1.2-2.3,4-8.3,1.3-10.8c-1.4-1.3-4.5-1.5-8.5,0.4c-0.4,0.1-1.8,0.7-3.1,1.7c-0.3,0.2-0.5,0.3-0.8,0.5c-3.4-0.9-7.1-0.9-10.5,0
      C13.8-0.5,9.2-0.7,7.4,1C4.6,3.6,7.4,9.5,8.7,11.8C7.8,13.5,7.2,15,7,16.5l-2.4-0.6c-0.8-0.2-1.6,0.2-1.9,1l-0.6,2
      c-0.1,0.3-0.1,0.6,0,0.8c0,0.1,0.1,0.2,0.1,0.3c0.2,0.4,0.5,0.6,0.9,0.7l5.4,1.7l-6.8,0.5c-1,0.1-1.8,0.9-1.7,1.9L0.1,26
      c0,0.5,0.2,1,0.6,1.3c0.3,0.3,0.8,0.5,1.3,0.5c0,0,0.1,0,0.1,0l18.7-1C20.8,26.8,20.9,26.8,20.9,26.8z M1.9,26.3
      c-0.1,0-0.2,0-0.3-0.1c-0.1-0.1-0.1-0.2-0.1-0.3l-0.1-1.3c0-0.2,0.1-0.4,0.3-0.4l14-1c0.4,0,0.7-0.4,0.7-0.8c0-0.4-0.4-0.7-0.7-0.7
      c0,0,0,0-0.1,0l-3.3,0.2c-0.1-0.1-0.2-0.2-0.3-0.2l-8.6-2.6l0.6-1.9l5.4,1.5c0.4,0.1,0.8-0.1,0.9-0.5c0.1-0.4-0.1-0.8-0.5-0.9
      l-1.5-0.4c0.2-1.5,0.8-3,1.7-4.7c0.1-0.2,0.1-0.5,0-0.8C8.2,8,6.8,3.6,8.4,2.1c1.4-1.3,5.7-0.7,10.9,2.9c0.2,0.1,0.4,0.2,0.6,0.1
      c3-0.8,6.3-0.9,9.4-0.2c-0.1,0.1-0.2,0.3-0.3,0.4c-0.2,0.3-0.1,0.8,0.2,1c0.1,0.1,0.3,0.1,0.4,0.1c0.2,0,0.5-0.1,0.6-0.3
      c0.5-0.7,1.1-1.4,1.8-1.8c4.7-3,8.5-3.4,9.8-2.2c1.6,1.4,0.2,5.9-1.8,9.4c-0.1,0.2-0.1,0.5,0,0.8c1,1.7,1.5,3.1,1.7,4.8l-3.1,1
      c-0.4,0.1-0.6,0.5-0.5,0.9c0.1,0.4,0.5,0.6,0.9,0.5l6.6-2.1l0.6,2l-9.1,3c0,0-0.1,0-0.1,0l-4.4-0.1c-0.4,0-0.8,0.3-0.8,0.7
      c0,0.4,0.3,0.8,0.7,0.8L47.9,24v2.1c-1.6,0-6.2-0.2-15.8-0.7l-2.8-0.1c-0.9-0.4-1.6-1.4-1.6-2.4c0-1.1,0.6-2.1,1.6-2.5
      c0.8-0.3,1.4-1,1.6-1.8c0.3-0.8,0.2-1.7-0.2-2.4c0,0,0-0.1-0.1-0.1c-0.7-1.1-1.9-1.8-3.1-1.8H22c-1.3,0-2.5,0.7-3.2,1.8
      c-0.1,0.2-0.2,0.4-0.3,0.6c-0.5,1.4,0.2,3,1.6,3.7c0.2,0.1,0.4,0.2,0.6,0.3c0.8,0.5,1.3,1.4,1.2,2.4c-0.1,0.9-0.6,1.7-1.5,2.1
      L1.9,26.3z"/>
    <path d="M10.8,4.7c-1.2,1.1-0.3,3.4,0.3,4.6c0.1,0.3,0.4,0.4,0.7,0.4c0.1,0,0.2,0,0.3-0.1c0.4-0.2,0.5-0.6,0.3-1
      c-0.8-1.6-0.9-2.6-0.6-2.8c0.2-0.2,1-0.2,2.3,0.3c-0.3,0.2-0.6,0.4-0.9,0.6c-0.3,0.2-0.4,0.7-0.2,1c0.2,0.3,0.7,0.4,1,0.2
      c0.6-0.4,1.2-0.9,1.9-1.2c0.2-0.1,0.4-0.4,0.4-0.6c0-0.3-0.1-0.5-0.3-0.7C13.8,4.1,11.8,3.8,10.8,4.7z"/>
    <path d="M34.2,6.8C34.8,7.1,35.4,7.5,36,8c0.3,0.2,0.8,0.2,1-0.2c0.2-0.3,0.2-0.8-0.2-1c-0.3-0.2-0.6-0.4-0.9-0.6
      c1.2-0.6,2.1-0.5,2.3-0.3c0.2,0.2,0.2,1.2-0.6,2.8c-0.2,0.4,0,0.8,0.3,1c0.1,0.1,0.2,0.1,0.3,0.1c0.3,0,0.5-0.1,0.7-0.4
      c0.6-1.2,1.5-3.5,0.3-4.6c-1-0.9-3-0.6-5.2,0.8c-0.2,0.1-0.4,0.4-0.3,0.7C33.8,6.4,33.9,6.7,34.2,6.8z"/>
    <path d="M29.7,12.1c0.3-0.3,0.5-0.7,0.5-1.2c0-0.8-0.7-1.5-1.5-1.5c-0.8,0-1.5,0.7-1.5,1.5c0,0.5,0.2,0.9,0.5,1.2H29.7z"/>
    <path d="M22,12.1c0.3-0.3,0.5-0.7,0.5-1.2c0-0.8-0.7-1.5-1.5-1.5c-0.8,0-1.5,0.7-1.5,1.5c0,0.5,0.2,0.9,0.5,1.2H22z"/>
  </symbol>

  <symbol id="iconFormMail" viewBox="0 0 24 18" style="enable-background:new 0 0 24 18;" xml:space="preserve">
    <path d="M24,18H0V0h24V18z M1,1.5V17h22V1.5l-11,10L1,1.5z M22.1,1H1.9L12,10.2L22.1,1z"/>    
  </symbol>

  <symbol id="iconFormUser" viewBox="0 0 32 32" style="enable-background:new 0 0 32 32;" xml:space="preserve">
    <path d="M16,22c5,0,9-4.9,9-11S21,0,16,0c-2.4,0-4.7,1.2-6.4,3.3C7.9,5.4,7,8.1,7,11C7,17.1,11,22,16,22z M16,2c3.9,0,7,4,7,9
    c0,5-3.1,9-7,9s-7-4-7-9C9,6,12.1,2,16,2z M23,20c-0.6,0-1,0.4-1,1s0.4,1,1,1c3.9,0,7,3.1,7,7c0,0.6-0.4,1-1,1H3
    c-0.6,0-1-0.4-1-1c0-3.9,3.1-7,7-7c0.6,0,1-0.4,1-1s-0.4-1-1-1c-5,0-9,4-9,9c0,1.7,1.3,3,3,3h26c1.7,0,3-1.3,3-3
    C32,24,28,20,23,20z"/>
  </symbol>

  <symbol id="iconFormPhone" viewBox="0 0 32 32" style="enable-background:new 0 0 32 32;" xml:space="preserve">
    <path d="M31,2.6l-0.9-0.9C29,0.6,27.4,0,25.5,0C20.7,0,14.4,3.4,8.9,8.9c-8,7.9-11.1,17.2-7.2,21.2L2.6,31c0.7,0.7,1.6,1,2.5,1
    s1.8-0.4,2.5-1l3.6-3.6c1.4-1.4,1.4-3.6,0-5l-0.9-0.9c-1-1-0.5-3.4,3.6-7.6c3.5-3.5,5.5-4,6.4-4c0.5,0,0.8,0.1,1.1,0.4l0.9,0.9
    c1.3,1.3,3.7,1.3,5,0L31,7.6c0.7-0.7,1-1.6,1-2.5C32,4.2,31.7,3.3,31,2.6z M29.6,6.2L26,9.8c-0.6,0.6-1.6,0.6-2.2,0l-0.9-0.9
    c-0.7-0.7-1.6-1-2.6-1c-2.1,0-4.8,1.6-7.9,4.6c-6.3,6.3-4.6,9.4-3.6,10.4l0.9,0.9c0.6,0.6,0.6,1.6,0,2.2l-3.6,3.6
    c-0.6,0.6-1.6,0.6-2.2,0l-0.9-0.9c-3-3,0.3-11.4,7.2-18.3c5-5,11-8.3,15.2-8.3c1.4,0,2.5,0.4,3.2,1.1L29.6,4
    C29.8,4.3,30,4.7,30,5.1C30,5.5,29.9,5.9,29.6,6.2z"/>

  </symbol>

  <symbol id="iconFormMessage" viewBox="0 0 355 261.7" style="enable-background:new 0 0 355 261.7;" xml:space="preserve">
    <path d="M317.1,0H37.9C17,0,0,17,0,37.9v153.3C0,212,17,229,37.9,229h17.4l-5.9,23.3c-0.7,2.8,0.3,5.8,2.5,7.6
      c1.4,1.1,3.1,1.7,4.8,1.7c1.1,0,2.1-0.2,3.2-0.7l69-32h188.3c20.9,0,37.9-17,37.9-37.9V37.9C355,17,338,0,317.1,0L317.1,0z
       M340,191.1c0,12.6-10.3,22.9-22.9,22.9h-190c-1.1,0-2.2,0.2-3.2,0.7l-56.2,26l4.4-17.4c0.6-2.2,0.1-4.6-1.3-6.5S67.3,214,65,214
      H37.9C25.3,214,15,203.7,15,191.1V37.9C15,25.3,25.3,15,37.9,15h279.3c12.6,0,22.9,10.3,22.9,22.9V191.1L340,191.1z"/>
    <path d="M281.6,57.3H76c-3.5,0-6.4,3.4-6.4,7.5s2.9,7.5,6.4,7.5h205.6c3.5,0,6.4-3.4,6.4-7.5S285.1,57.3,281.6,57.3z"/>
    <path d="M281.6,108.2H76c-3.5,0-6.4,3.4-6.4,7.5s2.9,7.5,6.4,7.5h205.6c3.5,0,6.4-3.4,6.4-7.5S285.1,108.2,281.6,108.2z"/>
    <path d="M281.6,159H76c-3.5,0-6.4,3.4-6.4,7.5s2.9,7.5,6.4,7.5h205.6c3.5,0,6.4-3.4,6.4-7.5S285.1,159,281.6,159z"/>
  </symbol>

  <symbol id="iconArrow" viewBox="0 0 492 408.7" style="enable-background:new 0 0 492 408.7;" xml:space="preserve">
    <path d="M464.3,165.7l0.8,0.2H135.9L239.4,62.2c5.1-5.1,7.8-11.9,7.8-19.1c0-7.2-2.8-14-7.8-19.1L223.3,7.9
      c-5.1-5.1-11.8-7.9-19-7.9c-7.2,0-14,2.8-19,7.8L7.8,185.2C2.8,190.3,0,197.1,0,204.3c0,7.2,2.8,14,7.8,19.1l177.4,177.4
      c5.1,5.1,11.8,7.8,19,7.8c7.2,0,13.9-2.8,19-7.8l16.1-16.1c5.1-5.1,7.8-11.8,7.8-19c0-7.2-2.8-13.6-7.8-18.7L134.7,242.7h330
      c14.8,0,27.3-12.8,27.3-27.6v-22.8C492,177.5,479.2,165.7,464.3,165.7z"/>    
  </symbol>

  <symbol id="iconFeaturerrr2">

  </symbol>
</svg>
