<?xml version="1.0" encoding="utf-8"?>
<!-- Generator: Adobe Illustrator 22.0.1, SVG Export Plug-In . SVG Version: 6.00 Build 0)  -->
<svg version="1.1" id="Capa_1" xmlns="http://www.w3.org/2000/svg" xmlns:xlink="http://www.w3.org/1999/xlink" x="0px" y="0px"
	 viewBox="0 0 32 19.4" style="enable-background:new 0 0 32 19.4;" xml:space="preserve">
<style type="text/css">
	.st0{fill:#3E51B5;}
</style>
<g>
	<path class="st0" d="M29.8,0H7.6C7.3,0,7.1,0.2,7.1,0.5s0.2,0.5,0.5,0.5h22.1c0.7,0,1.3,0.6,1.3,1.3v10c0,0.7-0.6,1.3-1.3,1.3h-1.1
		v-3.1c0-0.3-0.2-0.5-0.5-0.5H3.8c-0.3,0-0.5,0.2-0.5,0.5v3.1H2.2c-0.7,0-1.3-0.6-1.3-1.3v-10c0-0.7,0.6-1.3,1.3-1.3h3.5
		c0.3,0,0.5-0.2,0.5-0.5S6,0,5.7,0H2.2C1,0,0,1,0,2.2v10c0,1.2,1,2.2,2.2,2.2h4.9c0.3,0,0.5-0.2,0.5-0.5c0-0.3-0.2-0.5-0.5-0.5H4.3
		v-0.8H23c0.3,0,0.5-0.2,0.5-0.5s-0.2-0.5-0.5-0.5H4.3V11h23.4v0.8h-2.8c-0.3,0-0.5,0.2-0.5,0.5s0.2,0.5,0.5,0.5h2.8v0.8H9
		c-0.3,0-0.5,0.2-0.5,0.5c0,0.3,0.2,0.5,0.5,0.5h20.7c1.2,0,2.2-1,2.2-2.2v-10C32,1,31,0,29.8,0z"/>
	<path class="st0" d="M28.2,3.8c0.3,0,0.5-0.2,0.5-0.5s-0.2-0.5-0.5-0.5h-1.4c-0.3,0-0.5,0.2-0.5,0.5s0.2,0.5,0.5,0.5H28.2z"/>
	<path class="st0" d="M24.6,3.8c0.3,0,0.5-0.2,0.5-0.5s-0.2-0.5-0.5-0.5h-8.9c-0.3,0-0.5,0.2-0.5,0.5s0.2,0.5,0.5,0.5H24.6z"/>
	<path class="st0" d="M8.8,15.8c-0.3,0-0.5,0.2-0.5,0.5c0,0,0,1.4-1.3,2.3c-0.2,0.2-0.3,0.4-0.1,0.7c0.1,0.1,0.2,0.2,0.4,0.2
		c0.1,0,0.2,0,0.3-0.1c1.7-1.2,1.7-3,1.7-3.1C9.3,16,9.1,15.8,8.8,15.8z"/>
	<path class="st0" d="M12.2,15.8c-0.3,0-0.5,0.2-0.5,0.5v2.7c0,0.3,0.2,0.5,0.5,0.5s0.5-0.2,0.5-0.5v-2.7
		C12.7,16,12.5,15.8,12.2,15.8z"/>
	<path class="st0" d="M16.1,15.8c-0.3,0-0.5,0.2-0.5,0.5v2.7c0,0.3,0.2,0.5,0.5,0.5c0.3,0,0.5-0.2,0.5-0.5v-2.7
		C16.6,16,16.4,15.8,16.1,15.8z"/>
	<path class="st0" d="M25,18.6c-1.3-0.9-1.3-2.3-1.3-2.3c0-0.3-0.2-0.5-0.5-0.5c-0.3,0-0.5,0.2-0.5,0.5c0,0.1,0,1.9,1.7,3.1
		c0.1,0.1,0.2,0.1,0.3,0.1c0.1,0,0.3-0.1,0.4-0.2C25.2,19,25.2,18.7,25,18.6z"/>
	<path class="st0" d="M19.8,15.8c-0.3,0-0.5,0.2-0.5,0.5v2.7c0,0.3,0.2,0.5,0.5,0.5c0.3,0,0.5-0.2,0.5-0.5v-2.7
		C20.3,16,20.1,15.8,19.8,15.8z"/>
</g>
</svg>
