<?xml version="1.0" encoding="utf-8"?>
<!-- Generator: Adobe Illustrator 22.0.1, SVG Export Plug-In . SVG Version: 6.00 Build 0)  -->
<svg version="1.1" id="Layer_1" xmlns="http://www.w3.org/2000/svg" xmlns:xlink="http://www.w3.org/1999/xlink" x="0px" y="0px"
	 viewBox="0 0 30 28.5" style="enable-background:new 0 0 30 28.5;" xml:space="preserve">
<style type="text/css">
	.st0{fill:#3E51B5;}
</style>
<path class="st0" d="M27.6,3.9h-6.5l-1.4-2.9C19.5,0.4,18.9,0,18.3,0h-6.6c-0.6,0-1.1,0.4-1.3,0.9l-1.4,3H7.3V2.4c0-0.5-0.4-1-1-1
	H2.4c-0.5,0-1,0.4-1,1v1.7C0.6,4.5,0,5.3,0,6.3v19.8c0,1.3,1.1,2.4,2.4,2.4h25.2c1.3,0,2.4-1.1,2.4-2.4V6.3C30,5,28.9,3.9,27.6,3.9z
	 M22.7,15.5c0,4.3-3.5,7.7-7.7,7.7s-7.7-3.5-7.7-7.7s3.5-7.7,7.7-7.7C19.3,7.7,22.7,11.2,22.7,15.5z M15,24.2c2.9,0,5.6-1.5,7.3-3.9
	v7.3H7.7v-7.3C9.4,22.7,12.1,24.2,15,24.2z M15,6.8c-2.9,0-5.6,1.5-7.3,3.9V4.8h14.5v5.8C20.6,8.2,17.9,6.8,15,6.8z M11.2,1.3
	C11.3,1.1,11.5,1,11.7,1h6.6c0.2,0,0.4,0.1,0.5,0.4L20,3.9H10L11.2,1.3z M2.4,2.4h3.9v1.5H2.4V2.4z M1,26.1V6.3
	c0-0.8,0.6-1.5,1.5-1.5h4.4v7.8c-0.6,1.8-0.6,3.8,0,5.7v9.3H2.4C1.6,27.6,1,26.9,1,26.1z M29,26.1c0,0.8-0.6,1.5-1.5,1.5h-4.4v-9.3
	c0.6-1.8,0.6-3.8,0-5.7V4.8h4.4c0.8,0,1.5,0.6,1.5,1.5V26.1z"/>
<path class="st0" d="M15,8.7c-3.7,0-6.8,3-6.8,6.8s3,6.8,6.8,6.8s6.8-3,6.8-6.8C21.8,11.7,18.7,8.7,15,8.7z M15,21.3
	c-3.2,0-5.8-2.6-5.8-5.8s2.6-5.8,5.8-5.8s5.8,2.6,5.8,5.8C20.8,18.7,18.2,21.3,15,21.3z"/>
<path class="st0" d="M10.6,15.5c0-0.1,0-0.3,0-0.4c0-0.3-0.2-0.5-0.4-0.5c-0.3,0-0.5,0.2-0.5,0.4c0,0.2,0,0.4,0,0.5
	c0,1.7,0.8,3.3,2.1,4.3c0.2,0.2,0.5,0.1,0.7-0.1c0.2-0.2,0.1-0.5-0.1-0.7C11.3,18.1,10.6,16.9,10.6,15.5z"/>
<path class="st0" d="M14.6,19.8c-0.3,0-0.6-0.1-0.9-0.2c-0.3-0.1-0.5,0.1-0.6,0.3c-0.1,0.3,0.1,0.5,0.3,0.6c0.3,0.1,0.7,0.2,1.1,0.2
	c0,0,0,0,0,0c0.3,0,0.5-0.2,0.5-0.5C15,20.1,14.8,19.8,14.6,19.8L14.6,19.8z"/>
<path class="st0" d="M28.1,20.8h-3.9c-0.3,0-0.5,0.2-0.5,0.5v2.4c0,0.3,0.2,0.5,0.5,0.5h3.9c0.3,0,0.5-0.2,0.5-0.5v-2.4
	C28.5,21,28.3,20.8,28.1,20.8z M27.6,23.2h-2.9v-1.5h2.9V23.2z"/>
<path class="st0" d="M26.1,10.2c1.1,0,1.9-0.9,1.9-1.9s-0.9-1.9-1.9-1.9s-1.9,0.9-1.9,1.9S25.1,10.2,26.1,10.2z M26.1,7.3
	c0.5,0,1,0.4,1,1s-0.4,1-1,1s-1-0.4-1-1S25.6,7.3,26.1,7.3z"/>
</svg>
