<?xml version="1.0" encoding="utf-8"?>
<!-- Generator: Adobe Illustrator 22.0.1, SVG Export Plug-In . SVG Version: 6.00 Build 0)  -->
<svg version="1.1" id="Layer_1" xmlns="http://www.w3.org/2000/svg" xmlns:xlink="http://www.w3.org/1999/xlink" x="0px" y="0px"
	 viewBox="0 0 34 24.7" style="enable-background:new 0 0 34 24.7;" xml:space="preserve">
<style type="text/css">
	.st0{fill:#00A6E4;}
</style>
<path class="st0" d="M33.7,9.4L28.4,4c-0.2-0.2-0.4-0.3-0.7-0.3h-4.3V3.7c0-2-1.6-3.7-3.7-3.7h-16C1.6,0,0,1.6,0,3.7V17
	c0,2,1.6,3.7,3.7,3.7h0.7c0.5,2.3,2.5,4,4.9,4c2.4,0,4.4-1.7,4.9-4h5.7c0.5,2.3,2.5,4,4.9,4s4.4-1.7,4.9-4H33c0.6,0,1-0.4,1-1v-9.6
	C34,9.8,33.9,9.5,33.7,9.4z M27.3,5.7l3.3,3.3h-7.3V5.7H27.3z M2,17V3.7C2,2.7,2.7,2,3.7,2h16c0.9,0,1.7,0.7,1.7,1.7V16
	c-0.8,0.7-1.3,1.6-1.5,2.7h-5.7c-0.5-2.3-2.5-4-4.9-4s-4.4,1.7-4.9,4H3.7C2.7,18.7,2,17.9,2,17z M9.3,22.7c-1.7,0-3-1.3-3-3
	c0-1.7,1.3-3,3-3c1.7,0,3,1.3,3,3C12.3,21.3,10.9,22.7,9.3,22.7z M24.7,22.7c-1.7,0-3-1.3-3-3c0-1.7,1.3-3,3-3c1.7,0,3,1.3,3,3
	C27.7,21.3,26.4,22.7,24.7,22.7z M29.6,18.7c-0.5-2.3-2.5-4-4.9-4c-0.5,0-1,0.1-1.4,0.2v-3.8H32v7.6L29.6,18.7L29.6,18.7z"/>
</svg>
