<?xml version="1.0" encoding="utf-8"?>
<!-- Generator: Adobe Illustrator 22.0.1, SVG Export Plug-In . SVG Version: 6.00 Build 0)  -->
<svg version="1.1" id="Capa_1" xmlns="http://www.w3.org/2000/svg" xmlns:xlink="http://www.w3.org/1999/xlink" x="0px" y="0px"
	 viewBox="0 0 30 30" style="enable-background:new 0 0 30 30;" xml:space="preserve">
<style type="text/css">
	.st0{fill:#3E51B5;}
</style>
<g>
	<g>
		<path class="st0" d="M13.2,21.3c-0.6-2.5-1.3-3.9-2.2-4.3c-2.3-1.1-4.7-0.6-7.1,0.2c-0.2,0.1-0.3,0.3-0.3,0.5
			c1.1,4.7,5.1,8.3,9.9,9c0.3,0,0.5-0.2,0.5-0.5C13.9,25.1,13.6,23.1,13.2,21.3z M4.5,17.8c2-0.6,4.2-1,6-0.1c1,0.5,1.9,3.6,2.5,7.9
			C9,24.9,5.6,21.8,4.5,17.8z"/>
		<path class="st0" d="M26.1,17.1c-2.3-0.8-4.8-1.3-7.1-0.2c-0.9,0.4-1.6,1.9-2.2,4.3c-0.4,1.9-0.7,3.8-0.8,4.9
			c0,0.3,0.2,0.5,0.5,0.5c4.8-0.6,8.8-4.2,9.9-9C26.5,17.4,26.3,17.2,26.1,17.1z M17,25.7c0.5-4.3,1.5-7.4,2.5-7.9
			c0.8-0.4,1.6-0.5,2.5-0.5c1.2,0,2.4,0.3,3.6,0.7C24.4,21.8,21,24.9,17,25.7z"/>
		<path class="st0" d="M3.8,14h16.6c0.2,0,0.4-0.2,0.4-0.4c0-0.2-0.2-0.4-0.4-0.4H4.3c0.9-5.2,5.4-9,10.7-9s9.8,3.8,10.7,9h-3.2
			c-0.2,0-0.4,0.2-0.4,0.4c0,0.2,0.2,0.4,0.4,0.4h3.7c0.3,0,0.5-0.2,0.4-0.5C25.9,7.7,20.9,3.3,15,3.3S4.1,7.7,3.4,13.5
			C3.3,13.8,3.6,14,3.8,14z"/>
		<path class="st0" d="M25.6,4.4C22.8,1.6,19,0,15,0S7.2,1.6,4.4,4.4C1.6,7.2,0,11,0,15s1.6,7.8,4.4,10.6C7.2,28.4,11,30,15,30
			s7.8-1.6,10.6-4.4C28.4,22.8,30,19,30,15S28.4,7.2,25.6,4.4z M15,29.1C7.2,29.1,0.9,22.8,0.9,15S7.2,0.9,15,0.9S29.1,7.2,29.1,15
			S22.8,29.1,15,29.1z"/>
		<path class="st0" d="M17.3,16.9c0-1.3-1-2.3-2.3-2.3s-2.3,1-2.3,2.3s1,2.3,2.3,2.3S17.3,18.2,17.3,16.9z M15,18.3
			c-0.8,0-1.4-0.6-1.4-1.4c0-0.8,0.6-1.4,1.4-1.4s1.4,0.6,1.4,1.4C16.4,17.7,15.8,18.3,15,18.3z"/>
		<path class="st0" d="M26.3,15h-1.4c-0.2,0-0.4,0.2-0.4,0.4c0,0.2,0.2,0.4,0.4,0.4h1.4c0.2,0,0.4-0.2,0.4-0.4
			C26.7,15.2,26.5,15,26.3,15z"/>
		<path class="st0" d="M5.1,15.9c0.2,0,0.4-0.2,0.4-0.4c0-0.2-0.2-0.4-0.4-0.4H3.7c-0.2,0-0.4,0.2-0.4,0.4c0,0.2,0.2,0.4,0.4,0.4
			H5.1z"/>
	</g>
</g>
</svg>
