<?xml version="1.0" encoding="utf-8"?>
<!-- Generator: Adobe Illustrator 22.1.0, SVG Export Plug-In . SVG Version: 6.00 Build 0)  -->
<svg version="1.1" id="Layer_1" xmlns="http://www.w3.org/2000/svg" xmlns:xlink="http://www.w3.org/1999/xlink" x="0px" y="0px"
	 viewBox="0 0 300 300" style="enable-background:new 0 0 300 300;" xml:space="preserve">
<g>
	<g>
		<path d="M150,0C67.2,0,0,67.2,0,150s67.2,150,150,150c82.8,0,150-67.2,150-150S232.8,0,150,0z M150,234.3
			c-17.7,0-34.3-4.2-48.6-11.4c-3.8,3.1-21.1,15.8-38.3,9.8c10.4-9.8,12.3-21.3,12-29.3c-13.7-14.5-22-33.2-22-53.5
			c0-46.6,43.4-84.3,96.8-84.3c53.5,0,96.8,37.7,96.8,84.3S203.5,234.3,150,234.3z"/>
	</g>
</g>
</svg>
