<?xml version="1.0" encoding="utf-8"?>
<!-- Generator: Adobe Illustrator 22.1.0, SVG Export Plug-In . SVG Version: 6.00 Build 0)  -->
<svg version="1.1" id="Capa_1" xmlns="http://www.w3.org/2000/svg" xmlns:xlink="http://www.w3.org/1999/xlink" x="0px" y="0px"
	 viewBox="0 0 473.7 416.7" style="enable-background:new 0 0 473.7 416.7;" xml:space="preserve">
<style type="text/css">
	.st0{stroke:#000000;stroke-width:2;stroke-miterlimit:10;}
</style>
<g>
	<path class="st0" d="M434.6,39.5c-24.7-24.7-57.4-38.2-92.3-38.2s-67.7,13.6-92.4,38.3L237,52.5l-13.1-13.1
		C199.2,14.7,166.3,1,131.4,1C96.6,1,63.8,14.6,39.2,39.2C14.5,63.9,0.9,96.7,1,131.6c0,34.9,13.7,67.6,38.4,92.3l187.8,187.8
		c2.6,2.6,6.1,4,9.5,4s6.9-1.3,9.5-3.9l188.2-187.5c24.7-24.7,38.3-57.5,38.3-92.4C472.8,97,459.3,64.2,434.6,39.5z"/>
</g>
</svg>
