<?xml version="1.0" encoding="utf-8"?>
<!-- Generator: Adobe Illustrator 22.1.0, SVG Export Plug-In . SVG Version: 6.00 Build 0)  -->
<svg version="1.1" id="Capa_1" xmlns="http://www.w3.org/2000/svg" xmlns:xlink="http://www.w3.org/1999/xlink" x="0px" y="0px"
	 viewBox="0 0 294.8 294.8" style="enable-background:new 0 0 294.8 294.8;" xml:space="preserve">
<path d="M251.7,43.2c-57.5-57.5-151-57.5-208.5,0C23,63.3,9.2,88.7,3.3,116.4c-5.8,27-3.9,55,5.5,81c1.1,3.1,4.6,4.7,7.7,3.6
	c3.1-1.1,4.7-4.6,3.6-7.7c-8.6-23.8-10.3-49.6-5-74.4c5.4-25.5,18.1-48.8,36.6-67.3c52.8-52.8,138.7-52.8,191.5,0
	c25.1,25.1,39.2,58.6,39.6,94.1c0.4,35.5-12.8,69.2-37.2,94.9c-0.3,0.3-0.6,0.6-0.9,0.9c-0.5,0.5-1,1.1-1.5,1.6
	c-52.8,52.8-138.7,52.8-191.5,0c-0.3-0.3-0.6-0.6-0.8-0.9c0-0.6,0-1.1,0-1.6c0-1.2,0-2.4,0.1-3.6c0-0.4,0-0.8,0.1-1.2
	c0-0.8,0.1-1.6,0.1-2.4c0-0.5,0.1-0.9,0.1-1.4c0.1-0.7,0.1-1.4,0.2-2.1c0.1-0.5,0.1-1,0.2-1.5c0.1-0.7,0.2-1.4,0.3-2
	c0.1-0.5,0.2-1,0.3-1.5c0.1-0.7,0.2-1.3,0.3-2c0.1-0.5,0.2-1,0.3-1.5c0.1-0.6,0.3-1.3,0.4-1.9c0.1-0.5,0.2-1,0.4-1.5
	c0.2-0.6,0.3-1.3,0.5-1.9c0.1-0.5,0.3-1,0.4-1.5c0.2-0.6,0.3-1.2,0.5-1.8c0.2-0.5,0.3-1,0.5-1.5c0.2-0.6,0.4-1.2,0.6-1.8
	c0.2-0.5,0.4-1,0.5-1.5c0.2-0.6,0.4-1.2,0.7-1.8c0.2-0.5,0.4-1,0.6-1.5c0.2-0.6,0.5-1.2,0.7-1.7c0.2-0.5,0.4-1,0.6-1.5
	c0.3-0.6,0.5-1.1,0.8-1.7c0.2-0.5,0.5-1,0.7-1.4c0.3-0.6,0.6-1.1,0.8-1.7c0.2-0.5,0.5-0.9,0.7-1.4c0.3-0.6,0.6-1.1,0.9-1.6
	c0.3-0.5,0.5-0.9,0.8-1.4c0.3-0.5,0.6-1.1,1-1.6c0.3-0.4,0.5-0.9,0.8-1.3c0.3-0.5,0.7-1.1,1-1.6c0.3-0.4,0.6-0.9,0.9-1.3
	c0.4-0.5,0.7-1,1.1-1.5c0.3-0.4,0.6-0.9,0.9-1.3c0.4-0.5,0.8-1,1.1-1.5c0.3-0.4,0.6-0.8,1-1.2c0.4-0.5,0.8-1,1.2-1.5
	c0.3-0.4,0.7-0.8,1-1.2c0.4-0.5,0.8-1,1.3-1.4c0.3-0.4,0.7-0.8,1-1.2c0.4-0.5,0.9-0.9,1.3-1.4c0.4-0.4,0.7-0.7,1.1-1.1
	c0.5-0.5,0.9-0.9,1.4-1.4c0.4-0.4,0.7-0.7,1.1-1.1c0.5-0.5,1-0.9,1.5-1.3c0.4-0.3,0.7-0.7,1.1-1c0.5-0.4,1-0.9,1.5-1.3
	c0.4-0.3,0.7-0.6,1.1-1c0.5-0.4,1.1-0.9,1.6-1.3c0.4-0.3,0.8-0.6,1.1-0.9c0.6-0.4,1.2-0.9,1.7-1.3c0.4-0.3,0.7-0.5,1.1-0.8
	c0.6-0.5,1.3-0.9,2-1.3c0.3-0.2,0.6-0.4,1-0.6c0.9-0.6,1.7-1.1,2.6-1.6c0.1-0.1,0.3-0.2,0.4-0.3c1-0.6,2-1.2,3.1-1.8
	c0.4-0.2,0.7-0.4,1.1-0.6c0.7-0.4,1.4-0.7,2.1-1.1c0.4-0.2,0.9-0.4,1.4-0.7c0.6-0.3,1.1-0.6,1.7-0.8c10.9,10.4,25.4,16.3,40.4,16.3
	s29.6-5.9,40.4-16.3c21.2,9.8,38.6,27.5,48,48.9c1.3,3,4.9,4.4,7.9,3.1c3-1.3,4.4-4.9,3.1-7.9c-10.3-23.4-28.3-42.2-51-53.5
	c6.6-9.7,10.2-21.1,10.2-32.9c0-32.3-26.3-58.6-58.6-58.6c-3.3,0-6,2.7-6,6s2.7,6,6,6c25.7,0,46.6,20.9,46.6,46.6
	c0,11.5-4.3,22.6-12,31.2c0,0,0,0,0,0c-8.9,9.8-21.5,15.4-34.6,15.4s-25.7-5.6-34.6-15.4c0,0,0,0,0,0c-7.8-8.6-12-19.7-12-31.2
	c0-12.5,4.9-24.3,13.8-33.1c2.4-2.3,2.4-6.1,0-8.5c-2.3-2.4-6.1-2.4-8.5,0C95,80,88.8,94.8,88.8,110.6c0,11.8,3.6,23.2,10.1,32.9
	c-0.1,0-0.1,0.1-0.2,0.1c-0.5,0.2-0.9,0.5-1.4,0.7c-0.7,0.4-1.4,0.7-2.1,1.1c-0.5,0.3-1,0.6-1.5,0.8c-0.7,0.4-1.3,0.7-2,1.1
	c-0.5,0.3-1,0.6-1.5,0.9c-0.6,0.4-1.2,0.8-1.9,1.2c-0.5,0.3-1,0.7-1.5,1c-0.6,0.4-1.2,0.8-1.8,1.2c-0.5,0.3-1,0.7-1.5,1
	c-0.6,0.4-1.1,0.8-1.7,1.2c-0.5,0.4-1,0.7-1.4,1.1c-0.6,0.4-1.1,0.9-1.6,1.3c-0.5,0.4-0.9,0.8-1.4,1.1c-0.5,0.4-1.1,0.9-1.6,1.3
	c-0.5,0.4-0.9,0.8-1.3,1.2c-0.5,0.5-1,0.9-1.5,1.4c-0.4,0.4-0.9,0.8-1.3,1.2c-0.5,0.5-1,1-1.5,1.5c-0.4,0.4-0.8,0.8-1.2,1.3
	c-0.5,0.5-1,1-1.4,1.5c-0.4,0.4-0.8,0.9-1.2,1.3c-0.5,0.5-0.9,1.1-1.4,1.6c-0.4,0.4-0.7,0.9-1.1,1.3c-0.5,0.6-0.9,1.1-1.4,1.7
	c-0.3,0.4-0.7,0.8-1,1.3c-0.5,0.6-0.9,1.3-1.4,1.9c-0.3,0.4-0.6,0.8-0.9,1.2c-0.6,0.8-1.2,1.7-1.7,2.5c-0.1,0.2-0.3,0.4-0.5,0.7
	c-0.7,1.1-1.4,2.1-2.1,3.2c-0.2,0.4-0.4,0.8-0.7,1.1c-0.4,0.7-0.9,1.4-1.3,2.2c-0.3,0.5-0.5,0.9-0.8,1.4c-0.4,0.7-0.7,1.3-1.1,2
	c-0.3,0.5-0.5,1-0.8,1.5c-0.3,0.6-0.7,1.3-1,1.9c-0.2,0.5-0.5,1-0.7,1.6c-0.3,0.6-0.6,1.3-0.9,1.9c-0.2,0.5-0.5,1.1-0.7,1.6
	c-0.3,0.6-0.5,1.3-0.8,1.9c-0.2,0.5-0.4,1.1-0.6,1.6c-0.2,0.7-0.5,1.3-0.7,2c-0.2,0.6-0.4,1.1-0.6,1.7c-0.2,0.7-0.4,1.3-0.7,2
	c-0.2,0.6-0.4,1.1-0.5,1.7c-0.2,0.7-0.4,1.3-0.6,2c-0.2,0.6-0.3,1.1-0.5,1.7c-0.2,0.7-0.3,1.4-0.5,2.1c-0.1,0.6-0.3,1.2-0.4,1.7
	c-0.2,0.7-0.3,1.4-0.4,2.1c-0.1,0.6-0.2,1.2-0.3,1.7c-0.1,0.7-0.2,1.4-0.4,2.2c-0.1,0.6-0.2,1.1-0.3,1.7c-0.1,0.7-0.2,1.5-0.3,2.2
	c-0.1,0.6-0.1,1.1-0.2,1.7c-0.1,0.8-0.2,1.6-0.2,2.4c0,0.5-0.1,1.1-0.1,1.6c-0.1,0.9-0.1,1.8-0.1,2.7c0,0.4-0.1,0.9-0.1,1.3
	c0,1.3-0.1,2.7-0.1,4c0,1.4,0,2.8,0.1,4.3c0,0.4,0.1,0.7,0.1,1c0,0,0,0.1,0,0.1c0.1,0.3,0.2,0.6,0.3,0.9c0,0,0,0.1,0,0.1
	c0.1,0.3,0.3,0.6,0.5,0.9c0,0,0,0.1,0.1,0.1c0.2,0.3,0.4,0.5,0.6,0.8c0,0,0,0,0,0.1l0.8,0.8c0.6,0.6,1.2,1.3,1.8,1.9
	c28.7,28.7,66.5,43.1,104.2,43.1s75.5-14.4,104.2-43.1c0.6-0.6,1.2-1.3,1.8-1.9l0.8-0.8c26.6-28,41-64.6,40.5-103.3
	C294.4,106.9,279,70.5,251.7,43.2z"/>
<path d="M0,145.6c-0.4,38.6,13.9,75.3,40.5,103.3l0.8,0.8c0.6,0.6,1.2,1.3,1.8,1.9c28.7,28.7,66.5,43.1,104.2,43.1
	s75.5-14.4,104.2-43.1c0.6-0.6,1.2-1.3,1.8-1.9l0.8-0.8c0,0,0,0,0-0.1c0.2-0.2,0.4-0.5,0.6-0.8c0,0,0-0.1,0.1-0.1
	c0.2-0.3,0.3-0.6,0.5-0.9c0,0,0-0.1,0-0.1c0.1-0.3,0.2-0.6,0.3-0.9c0,0,0-0.1,0-0.1c0.1-0.3,0.1-0.7,0.1-1c0.1-1.5,0.1-2.9,0.1-4.3
	c0-1.3,0-2.7-0.1-4c0-0.4,0-0.9-0.1-1.3c0-0.9-0.1-1.8-0.1-2.7c0-0.5-0.1-1.1-0.1-1.6c-0.1-0.8-0.1-1.6-0.2-2.4
	c-0.1-0.6-0.1-1.1-0.2-1.7c-0.1-0.8-0.2-1.5-0.3-2.2c-0.1-0.6-0.2-1.1-0.3-1.7c-0.1-0.7-0.2-1.4-0.4-2.2c-0.1-0.6-0.2-1.2-0.3-1.7
	c-0.1-0.7-0.3-1.4-0.4-2.1c-0.1-0.6-0.3-1.2-0.4-1.7c-0.2-0.7-0.3-1.4-0.5-2.1c-0.1-0.6-0.3-1.1-0.5-1.7c-0.2-0.7-0.4-1.4-0.6-2
	c-0.2-0.6-0.3-1.1-0.5-1.7c-0.2-0.7-0.4-1.3-0.6-2c-0.2-0.6-0.4-1.1-0.6-1.7c-0.2-0.7-0.5-1.3-0.7-2c-0.2-0.6-0.4-1.1-0.6-1.6
	c-0.3-0.7-0.5-1.3-0.8-1.9c-0.2-0.5-0.4-1.1-0.7-1.6c-0.3-0.6-0.6-1.3-0.9-1.9c-0.2-0.5-0.5-1-0.7-1.6c-0.3-0.7-0.6-1.3-1-1.9
	c-0.3-0.5-0.5-1-0.8-1.5c-0.4-0.7-0.7-1.3-1.1-2c-0.3-0.5-0.5-0.9-0.8-1.4c-0.4-0.7-0.9-1.4-1.3-2.2c-0.2-0.4-0.4-0.8-0.7-1.1
	c-0.7-1.1-1.4-2.1-2.1-3.2c-0.1-0.2-0.3-0.4-0.5-0.7c-0.6-0.8-1.1-1.7-1.7-2.5c-0.3-0.4-0.6-0.8-0.9-1.2c-0.5-0.6-0.9-1.3-1.4-1.9
	c-0.3-0.4-0.7-0.9-1-1.3c-0.5-0.6-0.9-1.1-1.4-1.7c-0.4-0.4-0.7-0.9-1.1-1.3c-0.5-0.5-0.9-1.1-1.4-1.6c-0.4-0.4-0.8-0.9-1.2-1.3
	c-0.5-0.5-1-1-1.4-1.5c-0.4-0.4-0.8-0.8-1.2-1.3c-0.5-0.5-1-1-1.5-1.5c-0.4-0.4-0.9-0.8-1.3-1.2c-0.5-0.5-1-0.9-1.5-1.4
	c-0.4-0.4-0.9-0.8-1.3-1.2c-0.5-0.5-1-0.9-1.6-1.3c-0.5-0.4-0.9-0.8-1.4-1.1c-0.5-0.4-1.1-0.9-1.6-1.3c-0.5-0.4-0.9-0.7-1.4-1.1
	c-0.6-0.4-1.1-0.8-1.7-1.2c-0.5-0.3-1-0.7-1.5-1c-0.6-0.4-1.2-0.8-1.8-1.2c-0.5-0.3-1-0.7-1.5-1c-0.6-0.4-1.2-0.8-1.9-1.2
	c-0.5-0.3-1-0.6-1.5-0.9c-0.6-0.4-1.3-0.8-2-1.1c-0.5-0.3-1-0.6-1.5-0.8c-0.7-0.4-1.4-0.7-2.1-1.1c-0.5-0.2-0.9-0.5-1.4-0.7
	c-0.1,0-0.1-0.1-0.2-0.1c6.6-9.7,10.1-21.1,10.1-32.9c0-15.8-6.2-30.6-17.4-41.7c-2.4-2.3-6.2-2.3-8.5,0c-2.3,2.4-2.3,6.2,0,8.5
	c8.9,8.8,13.8,20.6,13.8,33.1c0,11.5-4.3,22.6-12,31.2c0,0,0,0,0,0c-8.9,9.8-21.5,15.4-34.6,15.4s-25.7-5.6-34.6-15.4c0,0,0,0,0,0
	c-7.8-8.6-12-19.7-12-31.2c0-25.7,20.9-46.6,46.6-46.6c3.3,0,6-2.7,6-6s-2.7-6-6-6c-32.3,0-58.6,26.3-58.6,58.6
	c0,11.8,3.6,23.2,10.2,32.9c-22.7,11.3-40.7,30.1-51,53.5c-1.3,3,0,6.6,3.1,7.9c3,1.3,6.6,0,7.9-3.1c9.4-21.4,26.8-39.1,48-48.9
	c10.9,10.4,25.4,16.3,40.4,16.3s29.6-5.9,40.4-16.3c0.6,0.3,1.1,0.5,1.7,0.8c0.5,0.2,0.9,0.4,1.4,0.7c0.7,0.4,1.4,0.7,2.1,1.1
	c0.4,0.2,0.7,0.4,1.1,0.6c1,0.6,2.1,1.2,3.1,1.8c0.1,0.1,0.3,0.2,0.4,0.3c0.9,0.5,1.7,1.1,2.6,1.6c0.3,0.2,0.6,0.4,1,0.6
	c0.7,0.4,1.3,0.9,2,1.3c0.4,0.3,0.7,0.5,1.1,0.8c0.6,0.4,1.2,0.8,1.7,1.3c0.4,0.3,0.8,0.6,1.1,0.9c0.5,0.4,1.1,0.8,1.6,1.3
	c0.4,0.3,0.8,0.6,1.1,1c0.5,0.4,1,0.9,1.5,1.3c0.4,0.3,0.7,0.7,1.1,1c0.5,0.4,1,0.9,1.5,1.3c0.4,0.3,0.7,0.7,1.1,1.1
	c0.5,0.5,0.9,0.9,1.4,1.4c0.4,0.4,0.7,0.7,1.1,1.1c0.4,0.5,0.9,0.9,1.3,1.4c0.3,0.4,0.7,0.8,1,1.2c0.4,0.5,0.8,1,1.3,1.4
	c0.3,0.4,0.7,0.8,1,1.2c0.4,0.5,0.8,1,1.2,1.5c0.3,0.4,0.6,0.8,1,1.2c0.4,0.5,0.8,1,1.1,1.5c0.3,0.4,0.6,0.8,0.9,1.3
	c0.4,0.5,0.7,1,1.1,1.5c0.3,0.4,0.6,0.9,0.9,1.3c0.3,0.5,0.7,1.1,1,1.6c0.3,0.4,0.6,0.9,0.8,1.3c0.3,0.5,0.6,1.1,1,1.6
	c0.3,0.5,0.5,0.9,0.8,1.4c0.3,0.5,0.6,1.1,0.9,1.6c0.2,0.5,0.5,0.9,0.7,1.4c0.3,0.6,0.6,1.1,0.8,1.7c0.2,0.5,0.5,1,0.7,1.4
	c0.3,0.6,0.5,1.1,0.8,1.7c0.2,0.5,0.4,1,0.6,1.5c0.2,0.6,0.5,1.2,0.7,1.7c0.2,0.5,0.4,1,0.6,1.5c0.2,0.6,0.4,1.2,0.7,1.8
	c0.2,0.5,0.4,1,0.5,1.5c0.2,0.6,0.4,1.2,0.6,1.8c0.2,0.5,0.3,1,0.5,1.5c0.2,0.6,0.4,1.2,0.5,1.8c0.1,0.5,0.3,1,0.4,1.5
	c0.2,0.6,0.3,1.2,0.5,1.9c0.1,0.5,0.3,1,0.4,1.5c0.1,0.6,0.3,1.3,0.4,1.9c0.1,0.5,0.2,1,0.3,1.5c0.1,0.7,0.2,1.3,0.3,2
	c0.1,0.5,0.2,1,0.3,1.5c0.1,0.7,0.2,1.3,0.3,2c0.1,0.5,0.1,1,0.2,1.5c0.1,0.7,0.1,1.4,0.2,2.1c0,0.5,0.1,0.9,0.1,1.4
	c0.1,0.8,0.1,1.6,0.1,2.4c0,0.4,0,0.8,0.1,1.2c0,1.2,0.1,2.4,0.1,3.6c0,0.5,0,1.1,0,1.6c-0.3,0.3-0.5,0.6-0.8,0.9
	c-52.8,52.8-138.7,52.8-191.5,0c-0.5-0.5-1-1.1-1.5-1.6c-0.3-0.3-0.6-0.6-0.9-0.9c-24.4-25.7-37.6-59.4-37.2-94.9
	c0.4-35.5,14.5-69,39.6-94.1c52.8-52.8,138.7-52.8,191.5,0c18.5,18.5,31.2,41.8,36.6,67.3c5.3,24.8,3.6,50.6-5,74.4
	c-1.1,3.1,0.5,6.6,3.6,7.7c3.1,1.1,6.6-0.5,7.7-3.6c9.4-26,11.2-54,5.5-81c-5.9-27.8-19.7-53.1-39.9-73.3
	c-57.5-57.5-151-57.5-208.5,0C15.8,70.5,0.5,106.9,0,145.6z"/>
</svg>
