<?xml version="1.0" encoding="utf-8"?>
<!-- Generator: Adobe Illustrator 22.1.0, SVG Export Plug-In . SVG Version: 6.00 Build 0)  -->
<svg version="1.1" id="Layer_1" xmlns="http://www.w3.org/2000/svg" xmlns:xlink="http://www.w3.org/1999/xlink" x="0px" y="0px"
	 viewBox="0 0 371.8 512" style="enable-background:new 0 0 371.8 512;" xml:space="preserve">
<g>
	<g>
		<path d="M185.9,276.7c-28,0-50.8,22.8-50.8,50.8c0,13.9,5.8,27.3,15.9,36.9v45.9c0,19.3,15.7,35,35,35s35-15.7,35-35v-45.9
			c10.1-9.6,15.9-23,15.9-36.9C236.7,299.5,213.9,276.7,185.9,276.7z M203.9,346.6c-4.9,4.6-7.6,11-7.6,17.5v46.2
			c0,5.7-4.6,10.3-10.3,10.3c-5.7,0-10.3-4.6-10.3-10.3v-46.2c0-6.6-2.8-13-7.6-17.5c-5.3-5-8.2-11.8-8.2-19.1
			c0-14.4,11.8-26.2,26.2-26.2s26.2,11.8,26.2,26.2C212.1,334.8,209.2,341.6,203.9,346.6z"/>
	</g>
</g>
<g>
	<g>
		<path d="M334.9,209.9H298v-97.8C298,50.3,247.7,0,185.9,0C124.1,0,73.8,50.3,73.8,112.1v97.8H36.9C16.6,209.9,0,226.4,0,246.8
			v228.3C0,495.4,16.6,512,36.9,512h298c20.4,0,36.9-16.6,36.9-36.9V246.8C371.8,226.4,355.2,209.9,334.9,209.9z M98.4,112.1
			c0-48.2,39.2-87.5,87.5-87.5c48.2,0,87.5,39.2,87.5,87.5v97.8H98.4V112.1z M347.2,475.1L347.2,475.1c0,6.8-5.5,12.3-12.3,12.3
			h-298c-6.8,0-12.3-5.5-12.3-12.3V246.8c0-6.8,5.5-12.3,12.3-12.3h298c6.8,0,12.3,5.5,12.3,12.3V475.1z"/>
	</g>
</g>
</svg>
