<?xml version="1.0" encoding="utf-8"?>
<!-- Generator: Adobe Illustrator 22.1.0, SVG Export Plug-In . SVG Version: 6.00 Build 0)  -->
<svg version="1.1" id="Layer_1" xmlns="http://www.w3.org/2000/svg" xmlns:xlink="http://www.w3.org/1999/xlink" x="0px" y="0px"
	 viewBox="0 0 290.6 290.6" style="enable-background:new 0 0 290.6 290.6;" xml:space="preserve">
<g>
	<g>
		<g>
			<path d="M276.6,51.6h-89.1v-9.4c0-23.3-18.9-42.2-42.2-42.2s-42.2,18.9-42.2,42.2c0,3.2,0.4,6.4,1.1,9.4H14.1
				C6.3,51.6,0,57.9,0,65.6v178.1c0,7.8,6.3,14.1,14.1,14.1h89.1v23.4H70.3v9.4h32.8h84.4h32.8v-9.4h-32.8v-23.4h89.1
				c7.8,0,14.1-6.3,14.1-14.1V65.6C290.6,57.9,284.3,51.6,276.6,51.6z M178.1,281.3h-65.6v-23.4h65.6V281.3z M281.3,243.8
				c0,2.6-2.1,4.7-4.7,4.7h-89.1h-42.2h-42.2H14.1c-2.6,0-4.7-2.1-4.7-4.7V225h135.9h0h135.9V243.8z M281.3,215.6H9.4v-150
				c0-2.6,2.1-4.7,4.7-4.7h93.5c6.9,13.9,21.2,23.4,37.7,23.4h14.1V75h-14.1c-18.1,0-32.8-14.7-32.8-32.8s14.7-32.8,32.8-32.8
				s32.8,14.7,32.8,32.8v11.7c0,3.9-3.2,7-7,7s-7-3.2-7-7V42.2c0-10.3-8.4-18.8-18.8-18.8s-18.8,8.4-18.8,18.8s8.4,18.8,18.8,18.8
				c3.6,0,7-1,9.9-2.8c1.9,7,8.3,12.2,15.9,12.2c6.5,0,12.1-3.9,14.8-9.4h90.7c2.6,0,4.7,2.1,4.7,4.7L281.3,215.6L281.3,215.6z
				 M154.7,42.2c0,5.2-4.2,9.4-9.4,9.4s-9.4-4.2-9.4-9.4s4.2-9.4,9.4-9.4S154.7,37,154.7,42.2z"/>
			<path d="M157,236.7c0-6.5-5.3-11.7-11.7-11.7s-11.7,5.3-11.7,11.7c0,6.5,5.3,11.7,11.7,11.7C151.8,248.4,157,243.2,157,236.7z
				 M145.3,239.1c-1.3,0-2.3-1.1-2.3-2.3s1.1-2.3,2.3-2.3s2.3,1.1,2.3,2.3S146.6,239.1,145.3,239.1z"/>
			<path d="M70.3,196.9h150V93.8h-150V196.9z M85.7,187.5l46.1-50l13.4,8.6l13.9-8.3l45.8,49.7H85.7z M210.9,180.2l-43.7-47.3
				l43.7-26.2V180.2z M198.7,103.1l-53.3,32l-49.8-32H198.7z M79.7,104l44.1,28.4l-44.1,47.8V104z"/>
		</g>
	</g>
</g>
</svg>
