<?xml version="1.0" encoding="utf-8"?>
<!-- Generator: Adobe Illustrator 22.1.0, SVG Export Plug-In . SVG Version: 6.00 Build 0)  -->
<svg version="1.1" id="Capa_1" xmlns="http://www.w3.org/2000/svg" xmlns:xlink="http://www.w3.org/1999/xlink" x="0px" y="0px"
	 viewBox="0 0 496 496" style="enable-background:new 0 0 496 496;" xml:space="preserve">
<g>
	<g>
		<path d="M64,0v256h368V0H64z M401.3,16l-92.2,74.1C296.4,69.7,273.8,56,248,56s-48.4,13.7-61.1,34.1L94.7,16H401.3z M80,24.7
			l99,79.7l2-2.4c-3.2,8.1-5,16.9-5,26.1c0,3.9,0.4,7.8,1,11.6l-97,90.1V24.7z M92.4,240l89.7-83.2c11.1,25.4,36.5,43.2,66,43.2h24
			v-16h-24c-30.9,0-56-25.1-56-56s25.1-56,56-56s56,25.1,56,56v20c0,6.6-5.4,12-12,12s-12-5.4-12-12v-20c0-17.6-14.4-32-32-32
			s-32,14.4-32,32s14.4,32,32,32h18.7c4.5,9.5,14.2,16,25.3,16c11.2,0,20.8-6.6,25.3-16.2l86.3,80.2H92.4z M264,128v16h-16
			c-8.8,0-16-7.2-16-16s7.2-16,16-16S264,119.2,264,128z M416,229.6l-96-89.1V128c0-9.2-1.8-18-5-26.2l2,2.5l99-79.6V229.6z"/>
	</g>
</g>
<g>
	<g>
		<polygon points="352,292 262,392 304,392 304,464 320,464 320,376 298,376 352,316 406,376 384,376 384,464 400,464 400,392 
			442,392 		"/>
	</g>
</g>
<g>
	<g>
		<polygon points="192,376 192,304 176,304 176,392 198,392 144,452 90,392 112,392 112,304 96,304 96,376 54,376 144,476 234,376 
					"/>
	</g>
</g>
<g>
	<g>
		<rect x="96" y="272" width="16" height="16"/>
	</g>
</g>
<g>
	<g>
		<rect x="176" y="272" width="16" height="16"/>
	</g>
</g>
<g>
	<g>
		<rect x="304" y="480" width="16" height="16"/>
	</g>
</g>
<g>
	<g>
		<rect x="384" y="480" width="16" height="16"/>
	</g>
</g>
</svg>
