<?xml version="1.0" encoding="utf-8"?>
<!-- Generator: Adobe Illustrator 22.0.1, SVG Export Plug-In . SVG Version: 6.00 Build 0)  -->
<svg version="1.1" id="Layer_1" xmlns="http://www.w3.org/2000/svg" xmlns:xlink="http://www.w3.org/1999/xlink" x="0px" y="0px"
	 viewBox="0 0 46.5 30" style="enable-background:new 0 0 46.5 30;" xml:space="preserve">
<style type="text/css">
	.st0{fill:#3E51B5;}
</style>
<path class="st0" d="M45.8,22.5h-3V2.3c0-1.2-1-2.3-2.3-2.3H6C4.8,0,3.8,1,3.8,2.3v20.3h-3c-0.4,0-0.8,0.3-0.8,0.8v3
	C0,28.3,1.7,30,3.8,30h39c2.1,0,3.7-1.7,3.8-3.8v-3C46.5,22.8,46.2,22.5,45.8,22.5z M5.3,2.3c0-0.4,0.3-0.8,0.8-0.8h34.5
	c0.4,0,0.8,0.3,0.8,0.8v20.3h-36V2.3z M26.8,24l-0.4,1.5h-6.3L19.7,24H26.8z M45,26.3c0,1.2-1,2.3-2.3,2.3h-39c-1.2,0-2.3-1-2.3-2.3
	V24h16.7l0.6,2.4c0.1,0.3,0.4,0.6,0.7,0.6H27c0.3,0,0.6-0.2,0.7-0.6l0.6-2.4H45V26.3z"/>
<path class="st0" d="M39.8,20.3V3.8C39.8,3.3,39.4,3,39,3H7.5C7.1,3,6.8,3.3,6.8,3.8v16.5c0,0.4,0.3,0.8,0.8,0.8H39
	C39.4,21,39.8,20.7,39.8,20.3z M38.3,19.5h-30v-15h30V19.5z"/>
<path class="st0" d="M9,25.5H3.8c-0.4,0-0.8,0.3-0.8,0.8S3.3,27,3.8,27H9c0.4,0,0.8-0.3,0.8-0.8S9.4,25.5,9,25.5z"/>
<path class="st0" d="M12,25.5h-0.8c-0.4,0-0.8,0.3-0.8,0.8s0.3,0.8,0.8,0.8H12c0.4,0,0.8-0.3,0.8-0.8S12.4,25.5,12,25.5z"/>
</svg>
