<?xml version="1.0" encoding="utf-8"?>
<!-- Generator: Adobe Illustrator 22.0.1, SVG Export Plug-In . SVG Version: 6.00 Build 0)  -->
<svg version="1.1" id="Layer_1" xmlns="http://www.w3.org/2000/svg" xmlns:xlink="http://www.w3.org/1999/xlink" x="0px" y="0px"
	 viewBox="0 0 32 22.7" style="enable-background:new 0 0 32 22.7;" xml:space="preserve">
<style type="text/css">
	.st0{fill:#3E51B5;}
</style>
<path class="st0" d="M29.4,0H2.6C1.2,0,0,1.2,0,2.6V16c0,1.4,1.2,2.6,2.6,2.6h9L11,20.1H8.3c-0.3,0-0.5,0.2-0.5,0.5v1.5
	c0,0.3,0.2,0.5,0.5,0.5h15.5c0.3,0,0.5-0.2,0.5-0.5v-1.5c0-0.3-0.2-0.5-0.5-0.5H21l-0.6-1.5h9c1.4,0,2.6-1.2,2.6-2.6V2.6
	C32,1.2,30.8,0,29.4,0z M1,2.6C1,1.7,1.7,1,2.6,1h26.8C30.3,1,31,1.7,31,2.6V15H1V2.6z M23.2,21.7H8.8v-0.5h14.5V21.7z M19.9,20.1
	h-7.8l0.6-1.5h6.5L19.9,20.1z M29.4,17.5H2.6C1.7,17.5,1,16.9,1,16H31C31,16.9,30.3,17.5,29.4,17.5z"/>
<path class="st0" d="M6.2,2.1H2.6c-0.3,0-0.5,0.2-0.5,0.5s0.2,0.5,0.5,0.5h3.6c0.3,0,0.5-0.2,0.5-0.5S6.5,2.1,6.2,2.1z"/>
<path class="st0" d="M8.3,2.1H7.7c-0.3,0-0.5,0.2-0.5,0.5s0.2,0.5,0.5,0.5h0.5c0.3,0,0.5-0.2,0.5-0.5S8.5,2.1,8.3,2.1z"/>
</svg>
