<?xml version="1.0" encoding="utf-8"?>
<!-- Generator: Adobe Illustrator 22.0.1, SVG Export Plug-In . SVG Version: 6.00 Build 0)  -->
<svg version="1.1" id="Layer_1" xmlns="http://www.w3.org/2000/svg" xmlns:xlink="http://www.w3.org/1999/xlink" x="0px" y="0px"
	 viewBox="0 0 32 22.7" style="enable-background:new 0 0 32 22.7;" xml:space="preserve">
<style type="text/css">
	.st0{fill:#3E51B5;}
</style>
<path class="st0" d="M29.4,6.2h-1.5V3.1c0-0.3-0.2-0.5-0.5-0.5h-3.1V0.5C24.3,0.2,24,0,23.7,0H8.3C8,0,7.7,0.2,7.7,0.5v2.1H4.6
	c-0.3,0-0.5,0.2-0.5,0.5v3.1H2.6C1.2,6.2,0,7.3,0,8.8v10.3c0,0.3,0.2,0.5,0.5,0.5h7.2v2.6c0,0.3,0.2,0.5,0.5,0.5h15.5
	c0.3,0,0.5-0.2,0.5-0.5v-2.6h7.2c0.3,0,0.5-0.2,0.5-0.5V8.8C32,7.3,30.8,6.2,29.4,6.2z M26.8,3.6v2.6h-2.6V3.6H26.8z M8.8,1h14.5
	v5.2H8.8V1z M5.2,3.6h2.6v2.6H5.2V3.6z M23.2,21.7H8.8v-5.2h14.5V21.7z M31,18.6h-6.7v-2.1h2.6c0.3,0,0.5-0.2,0.5-0.5
	c0-0.3-0.2-0.5-0.5-0.5H5.2c-0.3,0-0.5,0.2-0.5,0.5c0,0.3,0.2,0.5,0.5,0.5h2.6v2.1H1V8.8c0-0.9,0.7-1.5,1.5-1.5h26.8
	c0.9,0,1.5,0.7,1.5,1.5V18.6z"/>
<path class="st0" d="M4.6,8.3H2.6c-0.3,0-0.5,0.2-0.5,0.5v2.1c0,0.3,0.2,0.5,0.5,0.5h2.1c0.3,0,0.5-0.2,0.5-0.5V8.8
	C5.2,8.5,4.9,8.3,4.6,8.3z M4.1,10.3h-1v-1h1V10.3z"/>
<path class="st0" d="M8.3,8.3H6.2c-0.3,0-0.5,0.2-0.5,0.5v2.1c0,0.3,0.2,0.5,0.5,0.5h2.1c0.3,0,0.5-0.2,0.5-0.5V8.8
	C8.8,8.5,8.5,8.3,8.3,8.3z M7.7,10.3h-1v-1h1V10.3z"/>
<path class="st0" d="M29.9,8.3h-5.7c-0.3,0-0.5,0.2-0.5,0.5c0,0.3,0.2,0.5,0.5,0.5h5.7c0.3,0,0.5-0.2,0.5-0.5
	C30.5,8.5,30.2,8.3,29.9,8.3z"/>
<path class="st0" d="M29.9,9.8h-3.1c-0.3,0-0.5,0.2-0.5,0.5c0,0.3,0.2,0.5,0.5,0.5h3.1c0.3,0,0.5-0.2,0.5-0.5
	C30.5,10,30.2,9.8,29.9,9.8z"/>
<path class="st0" d="M29.9,11.4h-0.5c-0.3,0-0.5,0.2-0.5,0.5c0,0.3,0.2,0.5,0.5,0.5h0.5c0.3,0,0.5-0.2,0.5-0.5
	C30.5,11.6,30.2,11.4,29.9,11.4z"/>
</svg>
