<?xml version="1.0" encoding="utf-8"?>
<!-- Generator: Adobe Illustrator 22.0.1, SVG Export Plug-In . SVG Version: 6.00 Build 0)  -->
<svg version="1.1" id="Layer_1" xmlns="http://www.w3.org/2000/svg" xmlns:xlink="http://www.w3.org/1999/xlink" x="0px" y="0px"
	 viewBox="0 0 30 31" style="enable-background:new 0 0 30 31;" xml:space="preserve">
<style type="text/css">
	.st0{fill:#3E51B5;}
</style>
<g id="Responsive-2">
	<path class="st0" d="M11,29.5c0.8,0,1.5-0.7,1.5-1.5s-0.7-1.5-1.5-1.5S9.5,27.2,9.5,28S10.2,29.5,11,29.5z M11,27.5
		c0.3,0,0.5,0.2,0.5,0.5s-0.2,0.5-0.5,0.5s-0.5-0.2-0.5-0.5S10.7,27.5,11,27.5z"/>
	<path class="st0" d="M5.5,4.5H2C1.7,4.5,1.5,4.7,1.5,5S1.7,5.5,2,5.5h3.5C5.8,5.5,6,5.3,6,5S5.8,4.5,5.5,4.5z"/>
	<path class="st0" d="M7.5,4.5H7C6.7,4.5,6.5,4.7,6.5,5S6.7,5.5,7,5.5h0.5C7.8,5.5,8,5.3,8,5S7.8,4.5,7.5,4.5z"/>
	<path class="st0" d="M27.5,1.5h-5.7C21.4,0.6,20.5,0,19.5,0h-17C1.1,0,0,1.1,0,2.5v26C0,29.9,1.1,31,2.5,31h17
		c1.4,0,2.5-1.1,2.5-2.5v-3h5.5c1.4,0,2.5-1.1,2.5-2.5V4C30,2.6,28.9,1.5,27.5,1.5z M1,4h15v19c0,0.8,0.4,1.5,1,2H1V4z M17,5h12
		v14.5H17V5z M29,4H17c0-0.8,0.7-1.5,1.5-1.5h9C28.3,2.5,29,3.2,29,4z M1,2.5C1,1.7,1.7,1,2.5,1h17c0.4,0,0.8,0.2,1.1,0.5h-2.1
		c-1,0-1.9,0.6-2.3,1.5H1V2.5z M21,28.5c0,0.8-0.7,1.5-1.5,1.5l0,0h-17C1.7,30,1,29.3,1,28.5l0,0V26h20V28.5z M29,23
		c0,0.8-0.7,1.5-1.5,1.5h-9c-0.8,0-1.5-0.7-1.5-1.5v-2.5h12V23z"/>
	<path class="st0" d="M23,24c0.8,0,1.5-0.7,1.5-1.5S23.8,21,23,21s-1.5,0.7-1.5,1.5S22.2,24,23,24z M23,22c0.3,0,0.5,0.2,0.5,0.5
		S23.3,23,23,23s-0.5-0.2-0.5-0.5S22.7,22,23,22z"/>
</g>
</svg>
