<?xml version="1.0" encoding="utf-8"?>
<!-- Generator: Adobe Illustrator 22.0.1, SVG Export Plug-In . SVG Version: 6.00 Build 0)  -->
<svg version="1.1" id="Layer_1" xmlns="http://www.w3.org/2000/svg" xmlns:xlink="http://www.w3.org/1999/xlink" x="0px" y="0px"
	 viewBox="0 0 29 29" style="enable-background:new 0 0 29 29;" xml:space="preserve">
<style type="text/css">
	.st0{fill:#00A6E4;}
</style>
<path class="st0" d="M23.2,0c0.5,0,0.8,0.4,0.8,0.8v11.3c3,1.5,4.9,4.5,4.9,8c0,4.9-4,8.9-8.9,8.9c-3.4,0-6.5-2-8-4.9H0.8
	c-0.5,0-0.8-0.4-0.8-0.8V0.8C0,0.4,0.4,0,0.8,0H23.2z M16.1,1.7v4.8c0,0.6-0.7,1.1-1.3,0.7L12,5.8L9.2,7.2C8.7,7.5,8,7.1,8,6.5
	l0-4.8H1.7v20.7h9.8c-0.8-3.1,0.1-6.4,2.3-8.6s5.5-3.1,8.6-2.3V1.7H16.1z M17.4,23.8h4c0.9,0,1.7-0.4,2.3-1c0.6-0.6,1-1.4,1-2.4
	c0-1.8-1.5-3.3-3.3-3.3H19l0.5-0.5c0.8-0.8-0.4-2-1.2-1.2l-1.9,2c-0.3,0.3-0.3,0.9,0,1.2l2,1.9c0.8,0.8,2-0.4,1.2-1.2L19,18.9h2.4
	c0.9,0,1.6,0.7,1.6,1.6c0,0.9-0.7,1.6-1.6,1.6h-4c-0.5,0-0.8,0.4-0.8,0.8S16.9,23.8,17.4,23.8z M15,15c-2.8,2.8-2.8,7.4,0,10.2
	c2.8,2.8,7.4,2.8,10.2,0c2.8-2.8,2.8-7.4,0-10.2C22.4,12.2,17.8,12.2,15,15z M14.4,1.7H9.7v3.4l2-1c0.2-0.1,0.5-0.1,0.8,0l2,1V1.7z"
	/>
</svg>
