<?xml version="1.0" encoding="utf-8"?>
<!-- Generator: Adobe Illustrator 22.0.1, SVG Export Plug-In . SVG Version: 6.00 Build 0)  -->
<svg version="1.1" id="Layer_1" xmlns="http://www.w3.org/2000/svg" xmlns:xlink="http://www.w3.org/1999/xlink" x="0px" y="0px"
	 viewBox="0 0 29 34.1" style="enable-background:new 0 0 29 34.1;" xml:space="preserve">
<style type="text/css">
	.st0{fill:#00A6E4;}
</style>
<g id="surface1">
	<path class="st0" d="M29,9.2L29,9.2c0-0.4,0-0.7,0-1.1c0-1.9-1.5-3.4-3.4-3.5c-3.9-0.2-6.9-1.5-9.5-4l0,0c-0.8-0.8-2.1-0.8-3,0l0,0
		c-2.6,2.5-5.6,3.8-9.5,4C1.6,4.7,0.1,6.3,0.1,8.2c0,0.4,0,0.7,0,1.1l0,0.1c-0.1,4-0.2,9,1.5,13.5c0.9,2.5,2.3,4.6,4.1,6.4
		c2.1,2,4.8,3.6,8.1,4.8c0.1,0,0.2,0.1,0.3,0.1c0.2,0,0.3,0,0.5,0c0.2,0,0.3,0,0.5,0c0.1,0,0.2-0.1,0.3-0.1c3.3-1.1,6-2.7,8-4.8
		c1.8-1.8,3.2-3.9,4.1-6.4C29.1,18.2,29,13.2,29,9.2z M25.6,22.1c-1.8,4.8-5.3,8-10.9,10c0,0,0,0-0.1,0c-0.1,0-0.1,0-0.2,0
		c0,0,0,0-0.1,0c-5.6-2-9.2-5.2-10.9-10C1.9,17.9,2,13.3,2,9.3l0,0c0-0.3,0-0.7,0-1.1c0-0.8,0.7-1.5,1.5-1.6c2.2-0.1,4.2-0.6,6-1.3
		c1.8-0.8,3.4-1.8,4.8-3.3C14.5,2,14.5,2,14.6,2c1.5,1.4,3.1,2.5,4.8,3.3c1.8,0.8,3.7,1.2,6,1.3c0.8,0,1.5,0.7,1.5,1.6
		c0,0.4,0,0.8,0,1.1C27,13.3,27.1,17.9,25.6,22.1z"/>
	<path class="st0" d="M14.5,8.5C9.8,8.5,6,12.3,6,17c0,4.7,3.8,8.5,8.5,8.5c4.7,0,8.5-3.8,8.5-8.5C23,12.3,19.2,8.5,14.5,8.5z
		 M14.5,23.5C10.9,23.5,8,20.6,8,17s2.9-6.5,6.5-6.5c3.6,0,6.5,2.9,6.5,6.5S18.1,23.5,14.5,23.5z"/>
	<path class="st0" d="M16.9,14.4L13,18.3l-1.1-1.1c-0.4-0.4-1-0.4-1.4,0c-0.4,0.4-0.4,1,0,1.4l1.8,1.8c0.2,0.2,0.5,0.3,0.7,0.3
		c0.3,0,0.5-0.1,0.7-0.3l4.6-4.6c0.4-0.4,0.4-1,0-1.4C18,14,17.3,14,16.9,14.4z"/>
</g>
</svg>
