<?xml version="1.0" encoding="utf-8"?>
<!-- Generator: Adobe Illustrator 22.0.1, SVG Export Plug-In . SVG Version: 6.00 Build 0)  -->
<svg version="1.1" id="Layer_1" xmlns="http://www.w3.org/2000/svg" xmlns:xlink="http://www.w3.org/1999/xlink" x="0px" y="0px"
	 viewBox="0 0 33.3 30" style="enable-background:new 0 0 33.3 30;" xml:space="preserve">
<style type="text/css">
	.st0{fill:#3E51B5;}
</style>
<path class="st0" d="M32.8,2.2h-6.1V0.6c0-0.3-0.2-0.6-0.6-0.6H12.8c-0.3,0-0.6,0.2-0.6,0.6v3.9h-5C6.9,4.4,6.7,4.7,6.7,5v0.6H0.6
	C0.2,5.6,0,5.8,0,6.1v11.1c0,0.3,0.2,0.6,0.6,0.6h22.2v5.6h-6.7c-0.3,0-0.6,0.2-0.6,0.6v3.3c0,0.3,0.2,0.6,0.6,0.6
	c0.3,0,0.6-0.2,0.6-0.6v-2.8h6.7c0.3,0,0.6-0.2,0.6-0.6v-6.7c0-0.3-0.2-0.6-0.6-0.6H1.1v-10h5.6v1.7c0,0.3,0.2,0.6,0.6,0.6h5v3.9
	c0,0.3,0.2,0.6,0.6,0.6h13.3c0.3,0,0.6-0.2,0.6-0.6v-1.7h6.1c0.3,0,0.6-0.2,0.6-0.6V2.8C33.3,2.5,33.1,2.2,32.8,2.2z M7.8,7.8V5.6
	h4.4v2.2H7.8z M25.6,12.2H13.3V1.1h12.2V12.2z M32.2,10h-5.6V3.3h5.6V10z"/>
<path class="st0" d="M27.8,5h3.3c0.3,0,0.6-0.2,0.6-0.6c0-0.3-0.2-0.6-0.6-0.6h-3.3c-0.3,0-0.6,0.2-0.6,0.6C27.2,4.8,27.5,5,27.8,5z
	"/>
<path class="st0" d="M27.8,9.4h3.3c0.3,0,0.6-0.2,0.6-0.6c0-0.3-0.2-0.6-0.6-0.6h-3.3c-0.3,0-0.6,0.2-0.6,0.6
	C27.2,9.2,27.5,9.4,27.8,9.4z"/>
<path class="st0" d="M16.1,28.3c-0.3,0-0.6,0.2-0.6,0.6v0.6c0,0.3,0.2,0.6,0.6,0.6c0.3,0,0.6-0.2,0.6-0.6v-0.6
	C16.7,28.6,16.4,28.3,16.1,28.3z"/>
<path class="st0" d="M15,1.7h-0.6c-0.3,0-0.6,0.2-0.6,0.6s0.2,0.6,0.6,0.6H15c0.3,0,0.6-0.2,0.6-0.6S15.3,1.7,15,1.7z"/>
<path class="st0" d="M19.4,1.7h-2.8c-0.3,0-0.6,0.2-0.6,0.6s0.2,0.6,0.6,0.6h2.8c0.3,0,0.6-0.2,0.6-0.6S19.8,1.7,19.4,1.7z"/>
</svg>
