<?xml version="1.0" encoding="utf-8"?>
<!-- Generator: Adobe Illustrator 22.0.1, SVG Export Plug-In . SVG Version: 6.00 Build 0)  -->
<svg version="1.1" id="Layer_1" xmlns="http://www.w3.org/2000/svg" xmlns:xlink="http://www.w3.org/1999/xlink" x="0px" y="0px"
	 viewBox="0 0 30 32.1" style="enable-background:new 0 0 30 32.1;" xml:space="preserve">
<style type="text/css">
	.st0{fill:#3E51B5;}
</style>
<g id="Vacuum_cleaner">
	<path class="st0" d="M8.8,26.4c-1.1,0-2.1,0.9-2.1,2.1s0.9,2.1,2.1,2.1s2.1-0.9,2.1-2.1S9.9,26.4,8.8,26.4z M8.8,29.5
		c-0.6,0-1-0.5-1-1c0-0.6,0.5-1,1-1c0.6,0,1,0.5,1,1C9.8,29,9.4,29.5,8.8,29.5z"/>
	<path class="st0" d="M2.1,22.2h4.1c0.3,0,0.5-0.2,0.5-0.5s-0.2-0.5-0.5-0.5H2.1c-0.3,0-0.5,0.2-0.5,0.5S1.8,22.2,2.1,22.2z"/>
	<path class="st0" d="M2.1,23.8h1.6c0.3,0,0.5-0.2,0.5-0.5s-0.2-0.5-0.5-0.5H2.1c-0.3,0-0.5,0.2-0.5,0.5S1.8,23.8,2.1,23.8z"/>
	<path class="st0" d="M30,31.4l-1-3.1c-0.1-0.2-0.3-0.4-0.5-0.4h-2.1l-0.5-4.7c0-0.3-0.3-0.5-0.5-0.5v-5.7c0-0.3-0.2-0.5-0.5-0.5
		h-0.5V5.7c0-0.3-0.2-0.5-0.5-0.5h-3.1c-0.3,0-0.5,0.2-0.5,0.5v2.6h-2.1V0.5c0-0.3-0.2-0.5-0.5-0.5h-6.2c-0.3,0-0.5,0.2-0.5,0.5v5.7
		h-1c-0.3,0-0.5,0.2-0.5,0.5V10C4,10.7,0,15.3,0,20.7v5.7C0,27.8,1.2,29,2.6,29h2.6c0.3,2,2.1,3.4,4.1,3.1c1.7-0.2,3-1.6,3.1-3.3
		c1-0.4,1.6-1.3,1.6-2.4v-14c0-0.8-0.4-1.6-1-2.1c0,0,0,0,0,0V6.7c0-0.3-0.2-0.5-0.5-0.5h-0.5V1h5.2v7.8c0,0.3,0.2,0.5,0.5,0.5h3.1
		c0.3,0,0.5-0.2,0.5-0.5V6.2h2.1v10.3h-0.5c-0.3,0-0.5,0.2-0.5,0.5v5.7c-0.3,0-0.5,0.2-0.5,0.5l-0.5,4.7h-2.1
		c-0.2,0-0.4,0.1-0.5,0.4l-1,3.1c-0.1,0.3,0.1,0.6,0.3,0.7c0.1,0,0.1,0,0.2,0h11.4c0.3,0,0.5-0.2,0.5-0.5C30,31.5,30,31.4,30,31.4z
		 M8.8,31c-1.4,0-2.6-1.2-2.6-2.6c0-1.4,1.2-2.6,2.6-2.6s2.6,1.2,2.6,2.6C11.4,29.9,10.2,31,8.8,31z M12.9,26.4
		c0,0.5-0.2,0.9-0.6,1.2c-0.5-1.9-2.4-3.1-4.4-2.7c-1.4,0.3-2.5,1.5-2.7,3H2.6c-0.9,0-1.6-0.7-1.6-1.6v-5.7h11.9V26.4z M12.9,19.7
		H1.1c0.5-5,4.7-8.8,9.8-8.8h0.5c0.9,0,1.6,0.7,1.6,1.6V19.7z M10.3,9.8V7.2h1.6v2.6H10.3z M23.3,17.6h1v5.2h-1V17.6z M22.7,23.8
		h2.2l0.4,4.1h-3L22.7,23.8z M18.8,31l0.7-2.1h8.6l0.7,2.1H18.8z"/>
	<path class="st0" d="M7.8,22.2h0.5c0.3,0,0.5-0.2,0.5-0.5s-0.2-0.5-0.5-0.5H7.8c-0.3,0-0.5,0.2-0.5,0.5S7.5,22.2,7.8,22.2z"/>
	<path class="st0" d="M27.4,29.5h-3.6c-0.3,0-0.5,0.2-0.5,0.5s0.2,0.5,0.5,0.5h3.6c0.3,0,0.5-0.2,0.5-0.5S27.7,29.5,27.4,29.5z"/>
	<path class="st0" d="M22.2,29.5h-0.5c-0.3,0-0.5,0.2-0.5,0.5s0.2,0.5,0.5,0.5h0.5c0.3,0,0.5-0.2,0.5-0.5S22.5,29.5,22.2,29.5z"/>
</g>
</svg>
