<?xml version="1.0" encoding="utf-8"?>
<!-- Generator: Adobe Illustrator 22.1.0, SVG Export Plug-In . SVG Version: 6.00 Build 0)  -->
<svg version="1.1" id="Layer_1" xmlns="http://www.w3.org/2000/svg" xmlns:xlink="http://www.w3.org/1999/xlink" x="0px" y="0px"
	 viewBox="0 0 512 512" style="enable-background:new 0 0 512 512;" xml:space="preserve">
<g id="surface1">
	<path d="M467,212h-15v-45c0-24.8-20.2-45-45-45h-15V15c0-8.3-6.7-15-15-15H75c-8.3,0-15,6.7-15,15v107c-33.1,0-60,26.9-60,60v0v255
		c0,41.4,33.6,75,75,75h272c19.6,0,36.2-12.5,42.4-30H407c24.8,0,45-20.2,45-45v-15h15c24.8,0,45-20.2,45-45V257
		C512,232.2,491.8,212,467,212z M407,152c8.3,0,15,6.7,15,15v105h-30c0-14,0-101.8,0-120H407z M90,30h272v184.6
		c-4.7-1.7-9.7-2.6-15-2.6h-15V107c0-8.3-6.7-15-15-15c-8.3,0-15-6.7-15-15c0-8.3-6.7-15-15-15H166c-8.3,0-15,6.7-15,15
		c0,8-7.5,15-16,15c-8.3,0-15,6.7-15,15v105H90V30z M150,212v-92.5c6.3-2.2,12.1-5.7,17.1-10.4c5.1-4.9,8.9-10.7,11.3-17.1h96.2
		c4.5,12.8,14.7,22.9,27.4,27.4V212H150z M60,152v60c-16.5,0-30-13.5-30-30S43.5,152,60,152z M347,482H75c-24.8,0-45-20.2-45-45
		V233.9c8.8,5.1,19.1,8.1,30,8.1h287c8.3,0,15,6.7,15,15v15h-15c-41.4,0-75,33.6-75,75s33.6,75,75,75h15v45
		C362,475.3,355.3,482,347,482z M422,437c0,8.3-6.7,15-15,15h-15v-30h30V437z M482,377c0,8.3-6.7,15-15,15H347
		c-24.8,0-45-20.2-45-45s20.2-45,45-45h120c5.3,0,10.3-0.9,15-2.6V377z M467,272h-15v-30h15c8.3,0,15,6.7,15,15S475.3,272,467,272z"
		/>
	<path d="M362,347c0,8.3-6.7,15-15,15c-8.3,0-15-6.7-15-15s6.7-15,15-15C355.3,332,362,338.7,362,347z"/>
	<path d="M241,167c0,8.3-6.7,15-15,15s-15-6.7-15-15c0-8.3,6.7-15,15-15S241,158.7,241,167z"/>
</g>
</svg>
