<?xml version="1.0" encoding="utf-8"?>
<!-- Generator: Adobe Illustrator 22.1.0, SVG Export Plug-In . SVG Version: 6.00 Build 0)  -->
<svg version="1.1" id="Layer_1" xmlns="http://www.w3.org/2000/svg" xmlns:xlink="http://www.w3.org/1999/xlink" x="0px" y="0px"
	 viewBox="0 0 473.8 496" style="enable-background:new 0 0 473.8 496;" xml:space="preserve">
<path d="M465.8,286.2L296.1,286H292V138h4.1c2.1,0.1,4.1-0.7,5.6-2.1c1.5-1.4,2.3-3.4,2.3-5.5V99.7c0-2.1-0.8-4.1-2.3-5.5
	c-1.5-1.5-3.5-2.2-5.6-2.2h-55.8c0-1,0.1-2.3,0.1-3.5c0-48.8-39.6-88.4-88.4-88.4H152c-48.8,0-88.3,39.5-88.4,88.3
	c0,1.2,0,1.7,0.1,3.7H8.2c-2.1-0.1-4.2,0.7-5.7,2.2C1,95.6,0.1,97.6,0,99.7v30.7c0,4.4,3.8,7.6,8.2,7.6H12v148H8.2
	c-4.5,0.1-8.1,3.7-8.2,8.2v30.7c0.1,4.5,3.7,8.1,8.2,8.1H12v155c0.1,4.5,3.8,8,8.2,8h263.8c0.2,0,0.3,0,0.5,0l50.9-0.2
	c0.8,0.2,1.6,0.3,2.4,0.2h60.3c0.8,0.1,1.6,0,2.4-0.2l54.9,0.2c2.1,0,4.1-0.8,5.6-2.3c1.5-1.5,2.3-3.5,2.4-5.6l0.1-155.1h2.3
	c4.4,0,8-3.6,8-8l0-30.7c0-2.1-0.8-4.2-2.3-5.7C469.9,287,467.9,286.2,465.8,286.2z M457.7,316.9L304,316.9v-14.7l153.7,0.1
	L457.7,316.9z M16,317v-15h272.1v15H16z M170,286h-37v-81h37V286z M288,108v14h-54.4c2.1-4.5,3.7-9.2,4.7-14H288z M152,16L152,16
	c29.3,0,55.8,17.6,66.9,44.7c11.2,27.1,5,58.2-15.8,78.9c-13.5,13.7-32,21.4-51.2,21.4h-0.1c-19.3-1-37.5-7.8-51.2-21.5
	C80,118.8,73.8,87.6,85.1,60.6C96.3,33.6,122.7,16,152,16z M16,108h49.8c1,4.8,2.6,9.5,4.7,14H16V108z M28,138h51.3
	c2.8,4.6,6.2,8.9,10.1,12.6c16.7,16.7,38.9,25.4,62.5,26.4h0.1c23.5-0.1,46-9.6,62.5-26.3c3.9-3.8,7.4-8.1,10.2-12.7H276v148h-90
	v-88.9c0-4.4-3.1-8.1-7.6-8.1h-53.5c-4.4,0.1-8,3.7-7.9,8.1V286H28V138z M28,333h248v147H28V333z M390,480l-44,0v-61h44V480z
	 M447.3,480l-41.4,0v-69.2c0-2.1-0.8-4.1-2.2-5.6c-1.5-1.5-3.5-2.3-5.6-2.3h-60.3c-2.1,0-4.1,0.8-5.6,2.3c-1.5,1.5-2.3,3.5-2.3,5.6
	V480l-38,0V333h4.1c0.2,0,0.4-0.1,0.6-0.1l150.7,0L447.3,480z"/>
<path d="M250,376c0-4.4-3.6-8-8-8H62c-4.4,0-8,3.6-8,8v66c0,4.4,3.6,8,8,8h180c4.4,0,8-3.6,8-8V376z M234,434H70v-50h164V434z"/>
<path d="M102,201c0-4.4-3.6-8-8-8H47c-4.4,0-8,3.6-8,8v38c0,4.4,3.6,8,8,8h47c4.4,0,8-3.6,8-8V201z M86,231H55v-22h31V231z"/>
<path d="M264,201c0-4.4-3.6-8-8-8h-47c-4.4,0-8,3.6-8,8v38c0,4.4,3.6,8,8,8h47c4.4,0,8-3.6,8-8V201z M217,209h32v22h-32V209z"/>
<path d="M111.4,107.8l20.8,0l0,20.8c0,4.4,3.6,8.1,8,8.1l23.5,0.2h0c2.1-0.1,4.2-1,5.7-2.5c1.5-1.6,2.3-3.7,2.3-5.8l0-20.8l20.8,0.1
	h0c4.4,0,8-3.6,8-8.1l0-23.6c0-2.2-0.8-4.3-2.3-5.8c-1.5-1.5-3.5-2.5-5.7-2.5h-20.8l0-20.6c0-2.1-0.8-4.1-2.3-5.5
	c-1.5-1.5-3.6-2.2-5.7-2.2L140.3,40h0c-2.1-0.1-4.1,0.6-5.7,2.1c-1.5,1.4-2.3,3.3-2.3,5.4l0,20.7L111.5,68h0c-4.4,0.1-8,3.7-8,8.1
	l0,23.6C103.4,104.2,107,107.8,111.4,107.8z M119.5,84.1l20.8-0.1h0c2.1,0,4.1-0.8,5.6-2.2c1.5-1.5,2.4-3.5,2.4-5.6l0-20.6l7.5,0
	l0,20.8c0,4.4,3.6,8,8,8l20.8,0v7.5L163.7,92h0c-2.1,0-4.1,0.8-5.7,2.2c-1.5,1.5-2.3,3.5-2.3,5.6l0,20.8h-7.5l0-20.8
	c0-4.4-3.6-8-8-8l-20.8-0.1L119.5,84.1z"/>
</svg>
