<?xml version="1.0" encoding="utf-8"?>
<!-- Generator: Adobe Illustrator 22.1.0, SVG Export Plug-In . SVG Version: 6.00 Build 0)  -->
<svg version="1.1" id="Layer_1" xmlns="http://www.w3.org/2000/svg" xmlns:xlink="http://www.w3.org/1999/xlink" x="0px" y="0px"
	 viewBox="0 0 447.3 512" style="enable-background:new 0 0 447.3 512;" xml:space="preserve">
<path d="M59.9,471.4c-11,0-20-9-20-20V99.9c0-11,9-20,20-20h33v78.9h199.7V79.9h32c11,0,20,9,20,20v221.9l39.9-44.5V99.9
	c0-33-26.9-59.9-59.9-59.9h-75.3C241,16.7,218.8,0,192.7,0c-26,0-48.3,16.7-56.5,39.9H59.9C26.9,39.9,0,66.8,0,99.9v351.5
	c0,33,26.9,59.9,59.9,59.9h162.5l-42-39.9H59.9z M172.8,79.9v-20c0-11,9-20,20-20c11,0,20,9,20,20v20h39.9v38.9H132.8V79.9H172.8z
	 M304.6,238.7H159.8v-39.9h144.8V238.7z M119.8,198.7v39.9H79.9v-39.9H119.8z M160.8,318.6v-39.9h143.8v39.9H160.8z M120.8,318.6
	H79.9v-39.9h40.9V318.6z M79.9,358.5h39.9v39.9H79.9V358.5z M447.3,326.9L281.1,512L173,409.1l27.5-28.9l78.3,74.5l138.7-154.5
	L447.3,326.9z"/>
</svg>
