<?xml version="1.0" encoding="utf-8"?>
<!-- Generator: Adobe Illustrator 22.1.0, SVG Export Plug-In . SVG Version: 6.00 Build 0)  -->
<svg version="1.1" id="Layer_1" xmlns="http://www.w3.org/2000/svg" xmlns:xlink="http://www.w3.org/1999/xlink" x="0px" y="0px"
	 viewBox="0 0 448 378" style="enable-background:new 0 0 448 378;" xml:space="preserve">
<path d="M46.3,378h355.5c25.4,0,46.3-21.1,46.3-46.5V116.9c0-25.4-20.9-45.9-46.3-45.9h-173L185,17.2C176.4,6.4,163.3,0.1,149.4,0
	H46.3C20.9,0,0,21.1,0,46.5v285.1C0,356.9,20.9,378,46.3,378z M432,116.9v214.6c0,16.5-13.7,30.5-30.3,30.5H67V116.9
	C67,100.4,80.9,87,97.4,87h304.3C418.3,87,432,100.4,432,116.9z M16,46.5C16,29.9,29.7,16,46.3,16h103.1c9.1,0.1,17.6,4.3,23.2,11.3
	L208.1,71H97.4C72.1,71,51,91.5,51,116.9V362h-4.7C29.7,362,16,348.1,16,331.5V46.5z"/>
<path d="M156.3,229.3c0.7,3.8,4,6.6,7.9,6.7H199v41.5c0,31.2,25.3,56.5,56.5,56.5s56.5-25.3,56.5-56.5v-61.3
	c12.6-4.2,20.3-16.9,18.2-30c-2.1-13.1-13.4-22.7-26.7-22.8c-15,0-27.2,12.1-27.2,27.1c0.1,12.1,8.1,22.7,19.7,26.1v60.9
	c0,22.4-18.1,40.5-40.5,40.5S215,299.8,215,277.5V236h35.5c3.9,0,7.2-2.8,7.9-6.7l15.3-84.8c0.4-2.3-0.2-4.7-1.7-6.6
	c-1.5-1.8-3.8-2.9-6.1-2.9H252v-3c0-4.4-3.6-8-8-8s-8,3.6-8,8v19c0,2.1,0.8,4.2,2.3,5.7c1.5,1.5,3.5,2.3,5.7,2.3
	c4.4-0.1,7.8-3.6,8-8h4.2l-12.4,69h-72.9l-12.4-69h4.5c0.2,4.3,3.7,7.8,8,8c2.1,0,4.2-0.8,5.7-2.3c1.5-1.5,2.3-3.5,2.3-5.7v-19
	c0-4.4-3.6-8-8-8s-8,3.6-8,8v3h-14.1c-2.4,0-4.6,1.1-6.1,2.9c-1.5,1.8-2.2,4.3-1.7,6.6L156.3,229.3z M292.5,190.5
	c0-6.1,5-11.1,11.1-11.1c6.1,0,11.1,5,11.1,11.1s-5,11.1-11.1,11.1C297.5,201.6,292.5,196.6,292.5,190.5z"/>
</svg>
