<?xml version="1.0" encoding="utf-8"?>
<!-- Generator: Adobe Illustrator 22.1.0, SVG Export Plug-In . SVG Version: 6.00 Build 0)  -->
<svg version="1.1" id="Capa_1" xmlns="http://www.w3.org/2000/svg" xmlns:xlink="http://www.w3.org/1999/xlink" x="0px" y="0px"
	 viewBox="0 0 512 298.7" style="enable-background:new 0 0 512 298.7;" xml:space="preserve">
<g>
	<g>
		<path d="M510.1,143.3C506.1,137.4,409.2,0,256,0C124.6,0,7.4,136.6,2.5,142.4c-3.3,4-3.3,9.8,0,13.8
			c4.9,5.8,122,142.4,253.5,142.4S504.5,162,509.5,156.2C512.6,152.6,512.8,147.2,510.1,143.3z M256,277.3
			c-105.4,0-205.5-100.5-231-128c25.4-27.5,125.5-128,231-128c123.3,0,210.3,100.3,231.6,127.4C463,175.4,362.3,277.3,256,277.3z"/>
	</g>
</g>
<g>
	<g>
		<path d="M256,64c-47.1,0-85.3,38.3-85.3,85.3s38.3,85.3,85.3,85.3s85.3-38.3,85.3-85.3S303.1,64,256,64z M256,213.3
			c-35.3,0-64-28.7-64-64s28.7-64,64-64s64,28.7,64,64S291.3,213.3,256,213.3z"/>
	</g>
</g>
</svg>
