<?xml version="1.0" encoding="utf-8"?>
<!-- Generator: Adobe Illustrator 22.1.0, SVG Export Plug-In . SVG Version: 6.00 Build 0)  -->
<svg version="1.1" id="Capa_1" xmlns="http://www.w3.org/2000/svg" xmlns:xlink="http://www.w3.org/1999/xlink" x="0px" y="0px"
	 viewBox="0 0 512 512" style="enable-background:new 0 0 512 512;" xml:space="preserve">
<g>
	<g>
		<path d="M437,75C388.7,26.6,324.4,0,256,0S123.3,26.6,75,75C26.6,123.3,0,187.6,0,256s26.6,132.7,75,181
			c48.4,48.4,112.6,75,181,75s132.7-26.6,181-75c48.4-48.4,75-112.6,75-181S485.4,123.3,437,75z M256,497C123.1,497,15,388.9,15,256
			S123.1,15,256,15s241,108.1,241,241S388.9,497,256,497z"/>
		<path d="M416.3,192.4h-23.8c-4.2,0-7.5,3.4-7.5,7.5c0,4.2,3.4,7.5,7.5,7.5h16.2v97.2h-96.7c-4.2,0-7.5,3.4-7.5,7.5v96.7h-97.2
			v-96.7c0-4.2-3.4-7.5-7.5-7.5h-96.7v-97.2h96.7c4.2,0,7.5-3.4,7.5-7.5v-96.7h97.2v96.7c0,4.2,3.4,7.5,7.5,7.5h80.4
			c4.2,0,7.5-3.4,7.5-7.5c0-4.2-3.4-7.5-7.5-7.5h-72.9V95.7c0-4.2-3.4-7.5-7.5-7.5H199.9c-4.2,0-7.5,3.4-7.5,7.5v96.7H95.7
			c-4.2,0-7.5,3.4-7.5,7.5v112.2c0,4.2,3.4,7.5,7.5,7.5h96.7v96.7c0,4.2,3.4,7.5,7.5,7.5h112.2c4.2,0,7.5-3.4,7.5-7.5v-96.7h96.7
			c4.2,0,7.5-3.4,7.5-7.5V199.9C423.8,195.7,420.5,192.4,416.3,192.4z"/>
	</g>
</g>
</svg>
