<?xml version="1.0" encoding="utf-8"?>
<!-- Generator: Adobe Illustrator 22.1.0, SVG Export Plug-In . SVG Version: 6.00 Build 0)  -->
<svg version="1.1" id="Layer_1" xmlns="http://www.w3.org/2000/svg" xmlns:xlink="http://www.w3.org/1999/xlink" x="0px" y="0px"
	 viewBox="0 0 24.7 24.7" style="enable-background:new 0 0 24.7 24.7;" xml:space="preserve">
<path d="M16.9,15.5c1.3-1.6,2.1-3.7,2.1-6C19,4.3,14.7,0,9.5,0S0,4.3,0,9.5S4.3,19,9.5,19c2.3,0,4.3-0.8,6-2.1l7.8,7.8l1.4-1.4
	L16.9,15.5z M9.5,17C5.3,17,2,13.7,2,9.5C2,5.3,5.3,2,9.5,2S17,5.3,17,9.5C17,13.7,13.7,17,9.5,17z"/>
</svg>
