<?xml version="1.0" encoding="utf-8"?>
<!-- Generator: Adobe Illustrator 22.1.0, SVG Export Plug-In . SVG Version: 6.00 Build 0)  -->
<svg version="1.1" id="Layer_1" xmlns="http://www.w3.org/2000/svg" xmlns:xlink="http://www.w3.org/1999/xlink" x="0px" y="0px"
	 viewBox="0 0 386 410.9" style="enable-background:new 0 0 386 410.9;" xml:space="preserve">
<style type="text/css">
	.st0{clip-path:url(#SVGID_2_);}
</style>
<g>
	<g>
		<defs>
			<rect id="SVGID_1_" width="385.9" height="410.9"/>
		</defs>
		<clipPath id="SVGID_2_">
			<use xlink:href="#SVGID_1_"  style="overflow:visible;"/>
		</clipPath>
		<path class="st0" d="M383.8,111.2L279.4,2.7c-1.5-1.5-3.5-2.4-5.7-2.4H118.2c-17.4,0-31.6,14.2-31.6,31.6v110.2h-63
			c-13,0-23.6,10.6-23.6,23.6v118.2c0,13,10.6,23.6,23.6,23.6h63v70.9c0,17.4,14.2,31.5,31.6,31.5h236.2c17.4,0,31.6-14.1,31.6-31.5
			V116.6C386,114.6,385.2,112.6,383.8,111.2L383.8,111.2z M275.7,21.6l85.7,89h-85.7V21.6z M23.6,291.8c-4.3,0-7.9-3.5-7.9-7.9
			V165.7c0-4.3,3.5-7.9,7.9-7.9h212.7c4.3,0,7.9,3.5,7.9,7.9v118.2c0,4.3-3.5,7.9-7.9,7.9H23.6z M370.2,378.4
			c0,8.7-7.1,15.7-15.8,15.7H118.2c-8.7,0-15.8-7.1-15.8-15.7v-70.9h133.9c13,0,23.6-10.6,23.6-23.6V165.7c0-13-10.6-23.6-23.6-23.6
			H102.4V31.9c0-8.7,7.1-15.8,15.8-15.8h141.7v102.4c0,4.4,3.5,7.9,7.9,7.9h102.4V378.4z M370.2,378.4"/>
	</g>
	<path d="M94.2,200.2c-2.6-3.4-5.9-5.6-9.7-6.6c-2.5-0.7-7.9-1-16.2-1H46.3v67.7h13.7v-25.5h8.9c6.2,0,10.9-0.3,14.2-1
		c2.4-0.5,4.8-1.6,7.1-3.2c2.3-1.6,4.2-3.8,5.7-6.7c1.5-2.8,2.3-6.3,2.3-10.5C98.1,208,96.8,203.6,94.2,200.2L94.2,200.2z
		 M82.5,218.9c-1,1.5-2.5,2.6-4.3,3.3c-1.8,0.7-5.4,1.1-10.8,1.1h-7.5V204h6.6c4.9,0,8.2,0.2,9.8,0.5c2.2,0.4,4,1.4,5.5,3
		c1.4,1.6,2.2,3.6,2.2,6.1C84,215.6,83.5,217.4,82.5,218.9L82.5,218.9z M82.5,218.9"/>
	<path d="M163.8,211.1c-1.5-4.3-3.6-8-6.5-11c-2.8-3-6.2-5.1-10.2-6.2c-3-0.9-7.2-1.3-12.9-1.3h-25v67.7H135c5,0,9.1-0.5,12.1-1.4
		c4-1.3,7.2-3.1,9.6-5.4c3.1-3,5.6-7,7.2-12c1.4-4,2.1-8.8,2.1-14.4C166,220.7,165.2,215.4,163.8,211.1L163.8,211.1z M150.5,238.9
		c-0.9,3-2.1,5.2-3.6,6.5c-1.5,1.3-3.3,2.3-5.5,2.8c-1.7,0.4-4.4,0.6-8.3,0.6h-10.2V204h6.1c5.6,0,9.3,0.2,11.2,0.6
		c2.6,0.6,4.7,1.6,6.3,3.2c1.7,1.6,3,3.8,3.9,6.6c0.9,2.8,1.4,6.8,1.4,12C151.9,231.7,151.4,235.8,150.5,238.9L150.5,238.9z
		 M150.5,238.9"/>
	<path d="M224,204v-11.4h-46.4v67.7h13.7v-28.8h28.2v-11.4h-28.2v-16H224z M224,204"/>
</g>
</svg>
