<?xml version="1.0" encoding="utf-8"?>
<!-- Generator: Adobe Illustrator 22.1.0, SVG Export Plug-In . SVG Version: 6.00 Build 0)  -->
<svg version="1.1" id="Capa_1" xmlns="http://www.w3.org/2000/svg" xmlns:xlink="http://www.w3.org/1999/xlink" x="0px" y="0px"
	 viewBox="0 0 16 19.6" style="enable-background:new 0 0 16 19.6;" xml:space="preserve">
<circle cx="7.5" cy="1" r="1"/>
<circle cx="12.7" cy="1" r="1"/>
<path d="M15.6,1.9c-0.5-0.9-1.4-1.4-2.4-1.4v1c0.6,0,1.2,0.3,1.5,0.9c0.3,0.6,0.3,1.2,0,1.8l-3.1,5.4c-0.3,0.6-0.9,0.9-1.5,0.9
	c-0.6,0-1.2-0.3-1.5-0.9L5.4,4.1c-0.3-0.6-0.3-1.2,0-1.8S6.3,1.5,7,1.5v-1C6,0.5,5.1,1,4.6,1.9s-0.5,1.9,0,2.8L7.7,10
	c0.4,0.7,1.1,1.2,1.9,1.3V14c0,2.5-1.5,4.6-3.4,4.6S2.9,16.5,2.9,14v-3.1C4,10.7,4.9,9.7,4.9,8.5c0-1.3-1.1-2.4-2.4-2.4S0,7.2,0,8.5
	c0,1.2,0.8,2.2,1.9,2.4V14c0,3.1,1.9,5.6,4.3,5.6c2.4,0,4.3-2.5,4.3-5.6v-2.6c0.8-0.1,1.5-0.6,1.9-1.3l3.1-5.4
	C16.1,3.8,16.1,2.7,15.6,1.9z"/>
</svg>
