<?xml version="1.0" encoding="utf-8"?>
<!-- Generator: Adobe Illustrator 22.1.0, SVG Export Plug-In . SVG Version: 6.00 Build 0)  -->
<svg version="1.1" id="Layer_1" xmlns="http://www.w3.org/2000/svg" xmlns:xlink="http://www.w3.org/1999/xlink" x="0px" y="0px"
	 viewBox="0 0 490 490" style="enable-background:new 0 0 490 490;" xml:space="preserve">
<g>
	<g>
		<path d="M355.5,248.9c-10-5.1-22.3-1.2-27.5,8.9c-5.1,10-1.1,22.3,8.9,27.5c69.3,35.3,112.3,106,112.3,184.3
			c0,11.3,9.1,20.4,20.4,20.4s20.4-9.1,20.4-20.4C490,375.8,438.4,291.2,355.5,248.9z"/>
		<path d="M132.3,250C50.7,292.8,0,376.9,0,469.6C0,480.9,9.1,490,20.4,490s20.4-9.1,20.4-20.4c0-77.4,42.3-147.7,110.4-183.4
			c10-5.2,13.8-17.6,8.6-27.6C154.6,248.7,142.2,244.8,132.3,250z"/>
		<path d="M245,259.6c71,0,128.7-58.2,128.7-129.8S316,0,245,0S116.3,58.2,116.3,129.8S174,259.6,245,259.6z M245,40.8
			c48.5,0,87.9,39.9,87.9,89s-39.4,89-87.9,89s-87.9-39.9-87.9-89S196.5,40.8,245,40.8z"/>
		<path d="M288,289.2c-1.7-9.7-10.2-16.8-20.1-16.8h-45.8c-9.9,0-18.4,7.1-20.1,16.8l-23.2,129.5c-1.6,8.9,2.9,17.9,11,21.9
			l46.9,23.2c7,3.3,11.7,3.7,18.4-0.1l45.2-23.2c8-4.1,12.4-12.9,10.8-21.8L288,289.2L288,289.2z M245.7,422.6l-23.9-11.8l17.5-97.6
			h11.6l17.5,97.8L245.7,422.6z"/>
	</g>
</g>
</svg>
