<?xml version="1.0" encoding="utf-8"?>
<!-- Generator: Adobe Illustrator 22.1.0, SVG Export Plug-In . SVG Version: 6.00 Build 0)  -->
<svg version="1.1" id="Capa_1" xmlns="http://www.w3.org/2000/svg" xmlns:xlink="http://www.w3.org/1999/xlink" x="0px" y="0px"
	 viewBox="0 0 512 512" style="enable-background:new 0 0 512 512;" xml:space="preserve">
<g>
	<g>
		<path d="M79.8,80.4c-53.2,53.2-53.2,139.8,0,193l28.3-28.3c-37.6-37.6-37.6-98.8,0-136.5c37.6-37.6,98.8-37.6,136.5,0l28.3-28.3
			C219.6,27.1,133,27.1,79.8,80.4z"/>
	</g>
</g>
<g>
	<g>
		<path d="M136.1,136.1c-22.4,22.4-22.4,58.8,0,81.2l28.3-28.3c-3.3-3.3-5.1-7.7-5.1-12.4c0-4.7,1.8-9.1,5.1-12.4s7.7-5.1,12.4-5.1
			c4.7,0,9.1,1.8,12.4,5.1l28.3-28.3C194.9,113.7,158.5,113.7,136.1,136.1z"/>
	</g>
</g>
<g>
	<g>
		<path d="M487.1,66.8L420,0L280.7,139.1l54,55.8c-9,16.1-28.7,46.8-62.2,80.3c-33.5,33.5-64.5,53.3-80.7,62.5l-54.7-54L0.1,420
			l66.7,67.2c25.5,25.5,64.3,32.1,96.5,16.4c49.2-23.9,123.5-68,197.8-142.4s118.5-148.6,142.4-197.8c5.7-11.7,8.4-24.2,8.4-36.6
			C511.9,104.8,503.4,83.1,487.1,66.8z M467.6,145.9c-22.6,46.5-64.2,116.6-134.7,187c-70.4,70.4-140.6,112.1-187,134.7
			c-16.9,8.2-37.4,4.7-50.8-8.7l-38.5-38.8l80.7-80.2l46.6,46l12.5-5.5c2-0.9,50.2-22.7,104.5-77c54.3-54.3,75.7-102.1,76.5-104.1
			l5.4-12.3l-46-47.5L420,56.4l38.8,38.7C472.3,108.6,475.8,129,467.6,145.9z"/>
	</g>
</g>
</svg>
