<?xml version="1.0" encoding="utf-8"?>
<!-- Generator: Adobe Illustrator 22.1.0, SVG Export Plug-In . SVG Version: 6.00 Build 0)  -->
<svg version="1.1" id="Capa_1" xmlns="http://www.w3.org/2000/svg" xmlns:xlink="http://www.w3.org/1999/xlink" x="0px" y="0px"
	 viewBox="0 0 496 496" style="enable-background:new 0 0 496 496;" xml:space="preserve">
<path d="M82.5,66.2c-11.6,11.6-19.8,26.1-23.8,42c-1.8,7.2-2.7,14.5-2.7,21.9V144h16v-13.8c0-6.1,0.8-12.2,2.2-18.1
	c3.3-13.1,10-25,19.6-34.6l7.8-7.8L90.4,58.4L82.5,66.2z"/>
<path d="M256.8,348.4l14.3,7.1l2.9-5.9c3-5.9,6.9-11.3,11.6-16s10.1-8.6,16-11.6l5.9-2.9l-7.1-14.3l-5.9,2.9
	c-7.5,3.7-14.3,8.6-20.2,14.6c-5.9,5.9-10.8,12.7-14.6,20.2L256.8,348.4z"/>
<path d="M221.6,322.3c-5.9-5.9-12.7-10.8-20.2-14.6l-5.9-2.9l-7.1,14.3l5.9,2.9c5.9,3,11.3,6.9,16,11.6c4.7,4.7,8.6,10.1,11.6,16
	l2.9,5.9l14.3-7.1l-2.9-5.9C232.5,335.1,227.6,328.3,221.6,322.3z"/>
<path d="M413.5,66.2l-7.8-7.9l-11.3,11.3l7.9,7.8c9.5,9.5,16.3,21.5,19.6,34.6c1.5,5.9,2.2,12,2.2,18.1V144h16v-13.8
	c0-7.4-0.9-14.8-2.7-21.9C433.3,92.3,425,77.8,413.5,66.2z"/>
<path d="M432,14.1C420.7,5,406.4,0,392,0c-19.5,0-37.7,8.7-49.9,23.9c-18.8,23.5-18.2,56.6-0.6,79.3l-11.9,11.9
	c-10.5,10.5-19.8,22.2-27.7,34.8C282.3,181.2,272,217.2,272,254v7.1c-2.7,1.3-5.4,2.9-7.8,4.7L248,278l-16.2-12.1
	c-2.4-1.8-5.1-3.4-7.8-4.7V254c0-36.8-10.3-72.8-29.8-104.1c-7.9-12.6-17.2-24.3-27.7-34.8l-11.9-11.9c17.6-22.8,18.2-55.9-0.6-79.3
	C141.7,8.7,123.5,0,104,0C89.6,0,75.3,5,64,14.1C57.4,19.4,0,67.6,0,144c0,70.9,35.5,110,42.6,117.2C54.8,273.3,70.9,280,88,280
	c17,0,33-6.6,45-18.5c24.2-24,25.2-63.6,2.4-88.5c-1.2-1.7-6-9.3-7.1-23l15.6,18.2c11.3,13.2,19.8,28.2,25.2,44.6
	c4.5,13.6,6.8,27.8,6.8,42.1v8.1c-14.4,8.6-24,24.3-24,42.2c0,5.3,0.8,10.5,2.5,15.6l6.1,18.3c5.5,16.4,14.8,31.6,27.1,43.8
	c10.3,10.3,22.7,17.6,36.3,21.5V496h48v-91.4c13.6-4,26-11.3,36.3-21.5c12.2-12.2,21.6-27.4,27.1-43.8l6.1-18.3
	c1.7-5,2.5-10.3,2.5-15.6c0-17.9-9.7-33.6-24-42.2v-8.1c0-4.7,0.2-9.4,0.7-14.1l-15.9-1.7c-0.6,5.2-0.8,10.5-0.8,15.8v2
	c-3-0.6-6.1-0.9-9.3-0.9h-0.9c-1.9,0-3.8,0.2-5.8,0.5V254c0-33.8,9.5-66.9,27.4-95.6c7.2-11.6,15.8-22.3,25.4-31.9l11.8-11.8
	c3.2,3.2,7.9,8.7,11.3,15.1l-24,28c-12.6,14.7-22.1,31.5-28.3,49.9c-1.6,4.7-2.9,9.6-4,14.5l15.6,3.5c1-4.4,2.2-8.7,3.6-13
	c5.5-16.4,14-31.4,25.2-44.6l15.6-18.2c-1.1,13.7-5.9,21.3-7.1,23c-22.9,24.9-21.9,64.5,2.4,88.5C375,273.4,391,280,408,280
	c17.1,0,33.2-6.7,45.3-18.8c7.1-7.1,42.7-46.3,42.7-117.2C495.9,67.6,438.6,19.4,432,14.1z M122.8,182.8l0.5,0.6
	c17.4,18.7,16.7,48.5-1.6,66.6c-9.1,9-21.1,13.9-33.8,13.9c-12.9,0-24.9-5-34-14.1c-6.3-6.3-38-41.2-38-105.9
	C16,75.1,68,31.3,74,26.6C82.5,19.8,93.2,16,104,16c14.6,0,28.3,6.5,37.4,17.9c16.3,20.4,13.2,50.4-7,67.2
	c-2.3,2-22.4,20.5-22.4,42.8C112,166.8,120.3,179.5,122.8,182.8z M156.1,157.8l-24-28c3.4-6.5,8.2-12,11.3-15.1l11.8,11.8
	c9.6,9.6,18.2,20.4,25.4,31.9c17.9,28.7,27.4,61.7,27.4,95.6v2.4c-1.9-0.2-3.8-0.5-5.8-0.5h-0.9c-3.2,0-6.3,0.3-9.3,0.9v-2
	c0-16.1-2.6-32-7.7-47.2C178.2,189.3,168.7,172.5,156.1,157.8z M256,480h-16v-72.4c2.6,0.2,5.3,0.4,8,0.4s5.4-0.1,8-0.4V480z
	 M293.8,272h0.9c18.4,0,33.3,14.9,33.3,33.3c0,3.6-0.6,7.1-1.7,10.5l-6.1,18.3c-4.7,14.1-12.7,27.1-23.2,37.6
	c-13.1,13.1-30.5,20.3-49,20.3c-18.5,0-35.9-7.2-49-20.3c-10.5-10.5-18.5-23.5-23.2-37.5l-6.1-18.3c-1.1-3.4-1.7-7-1.7-10.5
	c0-18.4,14.9-33.3,33.3-33.3h0.9c7.2,0,14.2,2.4,20,6.7L248,298l25.8-19.3C279.5,274.4,286.6,272,293.8,272z M442,249.9
	c-9.1,9.1-21.1,14.1-34,14.1c-12.7,0-24.7-4.9-33.8-13.9c-18.3-18.1-19-47.9-1.6-66.6l0.5-0.6c2.5-3.4,10.8-16.1,10.8-38.9
	c0-22.3-20.1-40.8-22.6-43c-20.1-16.6-23.1-46.7-6.8-67C363.7,22.5,377.3,16,392,16c10.9,0,21.5,3.8,30.1,10.6
	c5.9,4.8,57.9,48.5,57.9,117.4C479.9,208.6,448.3,243.5,442,249.9z"/>
</svg>
