<?xml version="1.0" encoding="utf-8"?>
<!-- Generator: Adobe Illustrator 22.1.0, SVG Export Plug-In . SVG Version: 6.00 Build 0)  -->
<svg version="1.1" id="Layer_1" xmlns="http://www.w3.org/2000/svg" xmlns:xlink="http://www.w3.org/1999/xlink" x="0px" y="0px"
	 viewBox="0 0 434 434" style="enable-background:new 0 0 434 434;" xml:space="preserve">
<path d="M10.5,391H27v35.2c0,2.1,0.8,4.1,2.2,5.5c1.5,1.5,3.5,2.3,5.5,2.2h84.5c2.1,0,4.1-0.8,5.5-2.2c1.5-1.5,2.3-3.5,2.2-5.5V391
	h180v35.2c0,2.1,0.8,4.1,2.2,5.5c1.5,1.5,3.5,2.3,5.5,2.2h84.5c2.1,0,4.1-0.8,5.5-2.2c1.5-1.5,2.3-3.5,2.2-5.5V391h16.5
	c4.4,0,7.5-3.8,7.5-8.2V7.7c0.1-2-0.6-4-2.1-5.5c-1.4-1.5-3.4-2.3-5.4-2.2h-413C6.1,0,2,3.3,2,7.7v375C2.2,387.3,5.9,390.9,10.5,391
	z M111,418H43v-27h68V418z M391,418h-68v-27h68V418z M18,16h397v359H18V16z"/>
<path d="M401,38c0-4.4-3.6-8-8-8H40c-4.4,0-8,3.6-8,8v265c0,4.4,3.6,8,8,8h353c4.4,0,8-3.6,8-8V38z M48,46h337v249H48V46z"/>
<path d="M204,147L204,147c-4.5-22.2-20.7-36.5-41.2-36.5c-9.5,0-19.5,3.2-29.3,9.3c-9.9-6.4-19.9-9.6-29.6-9.6
	c-20.7,0-36.8,14.5-41.1,36.8c-5.9,30.6,12.3,71.1,66.1,92.5c0.1,0.1,0.3,0.1,0.4,0.2c2.7,1,5.6,1,8.3,0c0.2-0.1,0.3-0.1,0.5-0.2
	c24.4-9.9,43.4-24.5,54.9-42.2C203.3,181.3,207.2,163.5,204,147z M133.4,224c-44.2-18.1-59.5-50.1-54.9-74
	c2.8-14.7,12.5-23.8,25.4-23.8c7.6,0,16.2,3.4,24.8,9.7c2.8,2.1,6.6,2.1,9.5,0.1c8.6-6.2,17.1-9.5,24.7-9.5c12.8,0,22.6,9,25.5,23.6
	C192.9,173.7,177.6,205.6,133.4,224z"/>
<path d="M366.9,163c-4.2-1.5-8.7,0.7-10.2,4.9l-12.4,35.1l-14-85.9c-1.1-6.6-6.7-11.2-13.7-11.1s-12.5,4.7-13.4,11.3l-11.6,81.2
	L273,143.1c-2.1-5.6-7.4-9.3-13.4-9.1c-6,0.2-11.1,4.1-12.9,9.8l-19.2,70.7l-8.5-17.3c-1.2-2.6-3.8-4.3-6.7-4.5
	c-2.9-0.2-5.6,1.2-7.2,3.6c-1.6,2.4-1.8,5.5-0.5,8l12.5,25.3c2.1,4.3,6.5,7,11.3,6.9c0.4,0,0.9,0,1.3-0.1c5.2-0.4,9.5-4,10.9-9
	l19.6-72.3l20.8,62c1.9,5.5,7.4,8.9,13.1,8.3c5.7-0.4,10.4-4.7,11.3-10.4l11.5-80.7l13.8,84.4c0.9,5.6,5.6,9.8,11.2,10.2
	c5.7,0.6,11.1-2.7,13.1-8.1l16.8-47.5C373.3,169.1,371.1,164.5,366.9,163z"/>
</svg>
