<?xml version="1.0" encoding="utf-8"?>
<!-- Generator: Adobe Illustrator 22.1.0, SVG Export Plug-In . SVG Version: 6.00 Build 0)  -->
<svg version="1.1" id="Layer_1" xmlns="http://www.w3.org/2000/svg" xmlns:xlink="http://www.w3.org/1999/xlink" x="0px" y="0px"
	 viewBox="0 0 16 24" style="enable-background:new 0 0 16 24;" xml:space="preserve">
<path d="M14,24H2c-1.1,0-2-0.9-2-2V2c0-1.1,0.9-2,2-2h12c1.1,0,2,0.9,2,2v20C16,23.1,15.1,24,14,24z M15,18.9H1V22c0,0.6,0.4,1,1,1
	h12c0.6,0,1-0.4,1-1V18.9z M8,21.9c-0.6,0-1-0.4-1-1s0.4-1,1-1c0.6,0,1,0.4,1,1S8.6,21.9,8,21.9z M15,4.9H1v13h14V4.9z M14,1H2
	C1.4,1,1,1.4,1,2v1.9h14V2C15,1.4,14.6,1,14,1z M9.5,2.9h-3C6.2,2.9,6,2.7,6,2.4s0.2-0.5,0.5-0.5h3c0.3,0,0.5,0.2,0.5,0.5
	S9.8,2.9,9.5,2.9z"/>
</svg>
