<?xml version="1.0" encoding="utf-8"?>
<!-- Generator: Adobe Illustrator 22.1.0, SVG Export Plug-In . SVG Version: 6.00 Build 0)  -->
<svg version="1.1" id="Capa_1" xmlns="http://www.w3.org/2000/svg" xmlns:xlink="http://www.w3.org/1999/xlink" x="0px" y="0px"
	 viewBox="0 0 347.8 442" style="enable-background:new 0 0 347.8 442;" xml:space="preserve">
<g>
	<path d="M173.9,0C78,0,0,78,0,173.9c0,31.4,8.1,64.7,24.1,99.1c12.6,27.1,30.2,55,52.2,82.7c37.3,47.1,74,77.4,75.6,78.7
		c6,4.9,13.8,7.6,22.1,7.6s16.1-2.7,22.1-7.6c1.5-1.3,38.3-31.6,75.6-78.7c22-27.8,39.5-55.6,52.2-82.7c16-34.3,24.1-67.7,24.1-99.1
		C347.8,78,269.8,0,173.9,0z M256.1,343c-36,45.5-72.5,75.7-72.8,76c-2.4,1.9-5.8,3.1-9.4,3.1s-7-1.1-9.4-3.1
		C163.1,417.8,20,299,20,173.9C20,89,89,20,173.9,20s153.9,69,153.9,153.9C327.8,238.7,288.8,301.6,256.1,343z"/>
	<path d="M173.9,81.4c-51,0-92.5,41.5-92.5,92.5c0,51,41.5,92.5,92.5,92.5s92.5-41.5,92.5-92.5C266.4,122.9,224.9,81.4,173.9,81.4z
		 M173.9,246.4c-40,0-72.5-32.5-72.5-72.5s32.5-72.5,72.5-72.5s72.5,32.5,72.5,72.5S213.8,246.4,173.9,246.4z"/>
</g>
</svg>
