<?xml version="1.0" encoding="utf-8"?>
<!-- Generator: Adobe Illustrator 22.1.0, SVG Export Plug-In . SVG Version: 6.00 Build 0)  -->
<svg version="1.1" id="Capa_1" xmlns="http://www.w3.org/2000/svg" xmlns:xlink="http://www.w3.org/1999/xlink" x="0px" y="0px"
	 viewBox="0 0 512 444.7" style="enable-background:new 0 0 512 444.7;" xml:space="preserve" fill="#253574">
<g>
	<g>
		<path d="M487.3,201.8H20.6C9.2,201.8,0,211,0,222.4C0,233.7,9.2,243,20.6,243h466.7c11.4,0,20.6-9.2,20.6-20.6
			C507.9,211,498.7,201.8,487.3,201.8z"/>
	</g>
</g>
<g>
	<g>
		<path d="M506,207.8L304.2,6c-8-8-21.1-8-29.1,0c-8,8-8,21.1,0,29.1l187.2,187.2L275.1,409.6c-8,8-8,21.1,0,29.1c4,4,9.3,6,14.6,6
			s10.5-2,14.6-6L506,236.9C514,228.9,514,215.8,506,207.8z"/>
	</g>
</g>
</svg>
