<?xml version="1.0" encoding="utf-8"?>
<!-- Generator: Adobe Illustrator 22.1.0, SVG Export Plug-In . SVG Version: 6.00 Build 0)  -->
<svg version="1.1" id="Layer_1" xmlns="http://www.w3.org/2000/svg" xmlns:xlink="http://www.w3.org/1999/xlink" x="0px" y="0px"
	 viewBox="0 0 364.8 464" style="enable-background:new 0 0 364.8 464;" xml:space="preserve">
<path d="M137.2,191.4c14.1,0,25.4-11.4,25.5-25.5c0-4.4-3.6-8-8-8s-8,3.6-8,8c0,3.4-1.8,6.6-4.7,8.3c-2.9,1.7-6.6,1.7-9.5,0
	c-2.9-1.7-4.7-4.9-4.7-8.3c0-4.4-3.6-8-8-8s-8,3.6-8,8C111.7,180,123.1,191.4,137.2,191.4z"/>
<path d="M224.5,191.4c14.1,0,25.4-11.4,25.5-25.5c0-4.4-3.6-8-8-8s-8,3.6-8,8c0,3.4-1.8,6.6-4.7,8.3c-2.9,1.7-6.6,1.7-9.5,0
	c-2.9-1.7-4.7-4.9-4.7-8.3c0-4.4-3.6-8-8-8s-8,3.6-8,8C199,180,210.4,191.4,224.5,191.4z"/>
<path d="M239,448h-49v-66.6l49.9-31.4h27.4c3.4-5.7,7-11,10.8-16H246v-12h42.2c5.3-5.8,10.8-11.2,16.3-16H246v-13
	c5.4-4,10.4-8.4,15.2-13.2c5.6-5.8,10.6-12.1,14.9-19c5.5,12.3,15.4,29.3,31.5,42.5c4.4-3.7,8.9-7.1,13.3-10.2
	c-24.1-17.9-33.9-47-35.3-51.7c5-13,7.5-26.7,7.4-40.6V155h2c4.4,0,8-3.6,8-8v-35c0-3.7-2.5-6.9-6.2-7.8
	c-2.7-44.8-31.5-84.5-73.4-100C216.1,1.4,208.2,0,200.3,0h-34.6c-7.9,0-15.7,1.4-23.1,4.2C100.7,19.7,71.9,59.3,69.2,104H65
	c-4.4,0-8,3.6-8,8v35c0,4.4,3.6,8,8,8h8v45.9c-0.1,13.8,2.4,27.6,7.3,40.5c-1.7,5.7-18.3,56.3-64.7,64.7c-4,0.8-6.9,4.4-6.5,8.5
	s3.8,7.3,7.9,7.3h103v12H77.9C34.9,334.1,0,368.9,0,412v43.8c0,4.5,3.5,8.1,8,8.2h232C239.4,458.6,239,453.2,239,448z M277,200.9
	c0.1,25.3-9.8,49.7-27.5,67.8c-17.9,18.4-41.5,28.6-66.5,28.6s-48.5-10.1-66.4-28.6c-17.7-18.1-27.6-42.5-27.5-67.8v-6.1l69.3,27.3
	c15.9,6.3,33.5,6.3,49.4,0l69.3-27.3V200.9z M277,177.7l-75.2,29.6c-12.1,4.8-25.6,4.8-37.7,0L89,177.7V155h188V177.7z M148.1,19.2
	c5.6-2.1,11.6-3.2,17.6-3.2h34.6c6,0,12,1.1,17.6,3.2C253.4,32.4,278,66,280.8,104H85.2C87.9,66,112.5,32.4,148.1,19.2z M73,139v-19
	h214v19H73z M54.9,306c18.2-13.5,29.1-32.1,35-45.2c4.3,6.9,9.3,13.3,14.9,19.1c4.8,4.7,9.8,9.1,15.2,13.2v13H54.9z M174,448H16v-36
	c0-34.2,27.7-61.9,61.9-62h47.8l48.3,31.3V448z M136,337.8v-35.3c29.7,14.3,64.3,14.3,94,0v35l-48.4,30L136,337.8z"/>
<path d="M124.7,464h232c4.5-0.1,8-3.8,8-8.2V412c0-43-34.9-77.9-77.9-78h-42.1v-12h103c4.1-0.1,7.5-3.2,7.9-7.3s-2.5-7.8-6.5-8.5
	c-46.4-8.5-63-59-64.7-64.7c4.9-12.9,7.4-26.7,7.3-40.5V155h8c4.4,0,8-3.6,8-8v-35c0-4.4-3.6-8-8-8h-4.2
	c-2.8-44.7-31.5-84.3-73.4-99.8C214.8,1.4,207,0,199.1,0l-34.6,0c-7.9,0-15.8,1.4-23.2,4.2c-41.8,15.6-70.6,55.3-73.4,100
	c-3.6,0.9-6.1,4.1-6.2,7.8v35c0,4.4,3.6,8,8,8h2v45.9c-0.1,13.9,2.4,27.6,7.4,40.6c-1.4,4.7-11.1,33.8-35.3,51.7
	c4.4,3.1,8.9,6.5,13.3,10.2c16.1-13.2,26-30.2,31.5-42.5c4.3,6.8,9.3,13.2,14.9,19c4.8,4.7,9.8,9.1,15.2,13.2v13H60.2
	c5.5,4.8,11,10.2,16.3,16h42.2v12H86.5c3.8,5,7.4,10.3,10.8,16h27.4l49.9,31.4V448h-49C125.7,453.2,125.4,458.6,124.7,464z
	 M87.8,194.8l69.3,27.3c15.9,6.3,33.5,6.3,49.4,0l69.3-27.3v6.1c0.1,25.3-9.8,49.7-27.5,67.8c-17.9,18.4-41.4,28.6-66.4,28.6
	s-48.6-10.1-66.5-28.6c-17.7-18.1-27.6-42.5-27.5-67.8V194.8z M87.8,155h188v22.7l-75.1,29.6c-12.1,4.8-25.6,4.8-37.7,0l-75.2-29.6
	V155z M279.6,104H83.9c2.8-38,27.4-71.6,62.9-84.8c5.6-2.1,11.6-3.2,17.6-3.2h34.6c6,0,12,1.1,17.6,3.2
	C252.3,32.4,276.8,66,279.6,104z M77.8,139v-19h214v19H77.8z M244.8,306v-13c5.4-4,10.4-8.4,15.2-13.2c5.6-5.8,10.6-12.2,14.9-19.1
	c5.9,13.1,16.8,31.7,35,45.2H244.8z M190.8,381.3l48.3-31.3h47.8c34.2,0.1,61.9,27.8,61.9,62v36h-158V381.3z M183.1,367.5l-48.4-30
	v-35c29.7,14.3,64.3,14.3,94,0v35.3L183.1,367.5z"/>
</svg>
