<?xml version="1.0" encoding="utf-8"?>
<!-- Generator: Adobe Illustrator 22.1.0, SVG Export Plug-In . SVG Version: 6.00 Build 0)  -->
<svg version="1.1" id="Layer_1" xmlns="http://www.w3.org/2000/svg" xmlns:xlink="http://www.w3.org/1999/xlink" x="0px" y="0px"
	 viewBox="0 0 16 16" style="enable-background:new 0 0 16 16;" xml:space="preserve">
<g>
	<g>
		<g>
			<path d="M14.7,9.5V2.7c0-0.7-0.6-1.3-1.3-1.3h-2v-1C11.3,0.1,11.2,0,11,0s-0.3,0.1-0.3,0.3v1h-6v-1C4.7,0.1,4.5,0,4.3,0
				C4.1,0,4,0.1,4,0.3v1H1.3C0.6,1.3,0,1.9,0,2.7v10.7c0,0.7,0.6,1.3,1.3,1.3h8.2c0.7,0.8,1.7,1.3,2.8,1.3c2,0,3.7-1.6,3.7-3.7
				C16,11.2,15.5,10.2,14.7,9.5z M0.7,2.7C0.7,2.3,1,2,1.3,2H4v0.7C3.6,2.7,3.3,3,3.3,3.3S3.6,4,4,4s0.7-0.3,0.7-0.7V2h6v0.7
				C10.3,2.7,10,3,10,3.3S10.3,4,10.7,4c0.4,0,0.7-0.3,0.7-0.7V2h2C13.7,2,14,2.3,14,2.7v2H0.7V2.7z M1.3,14c-0.4,0-0.7-0.3-0.7-0.7
				v-8H14v3.7c-0.5-0.3-1.1-0.4-1.7-0.4c-2,0-3.7,1.6-3.7,3.7c0,0.6,0.1,1.2,0.4,1.7H1.3z M12.3,15.3c-1.7,0-3-1.3-3-3s1.3-3,3-3
				s3,1.3,3,3S14,15.3,12.3,15.3z"/>
			<path d="M12.7,12.2v-1.9c0-0.2-0.1-0.3-0.3-0.3S12,10.1,12,10.3v2c0,0.1,0,0.2,0.1,0.2l1,1c0.1,0.1,0.2,0.1,0.2,0.1
				s0.2,0,0.2-0.1c0.1-0.1,0.1-0.3,0-0.5L12.7,12.2z"/>
		</g>
	</g>
</g>
</svg>
