<?xml version="1.0" encoding="utf-8"?>
<!-- Generator: Adobe Illustrator 22.1.0, SVG Export Plug-In . SVG Version: 6.00 Build 0)  -->
<svg version="1.1" id="Layer_1" xmlns="http://www.w3.org/2000/svg" xmlns:xlink="http://www.w3.org/1999/xlink" x="0px" y="0px"
	 viewBox="0 0 219.1 85.3" style="enable-background:new 0 0 219.1 85.3;" xml:space="preserve">
<style type="text/css">
	.st0{fill-rule:evenodd;clip-rule:evenodd;fill:#E30613;}
	.st1{fill-rule:evenodd;clip-rule:evenodd;fill:#253574;}
	.st2{fill:#E30613;}
	.st3{fill:#253574;}
</style>
<path class="st0" d="M0,0.9v61.4h41.3V0.9H0z M37.1,58.2H4.2v-53h32.9V58.2z"/>
<path class="st0" d="M34.8,29c0.1,1.3,0,3-0.2,4.2c-0.7,3.7-1.8,6.4-3.7,9.8c-0.3,0.5-1.9,3.1-2.3,3.4c-0.2-0.5-0.3-0.8-0.3-1.4
	c0-2.5,2.8-6,2.7-12.6c-0.1-2.5-0.3-4.5-1.8-6.7c-0.8-1.2-1.6-1.8-2.7-2.8c-0.7-0.6-3.2-2.1-2.9-0.8c0.2,0.7,2.5,2.9,3.4,4.9
	c0.9,2.1,1.2,4.8-0.5,6.5c-0.1-0.4-0.2-1.3-0.3-1.7c-0.1-0.6-0.3-1.1-0.5-1.7c-0.5-1.2-1.2-2.3-2.3-3.3c-1.2-1-2.3-2-3-3.2
	c-0.6-1-1.1-2.3-1.3-3.4c-0.5-2.4-0.4-4.3,0.1-6.7c0.4-1.5,1.3-3.7,2.2-5c0.2-0.3,0.4-0.6,0.6-0.8c0.2-0.3,0.5-0.6,0.6-0.8
	c0.1,0.1,0.2,1,0.3,1.1c0.1,0.4,0.2,0.8,0.4,1.2c1.7,4.8,6.9,6.8,10.1,14.1c0.2,0.4,0.4,0.8,0.5,1.2C34.4,26,34.7,27.4,34.8,29
	L34.8,29z"/>
<path class="st1" d="M6.6,34c-0.1-1.3,0-3,0.2-4.2c0.7-3.7,1.8-6.4,3.7-9.8c0.3-0.5,1.9-3.1,2.3-3.4c0.2,0.5,0.3,0.8,0.3,1.4
	c0,2.5-2.8,6-2.7,12.6c0.1,2.5,0.3,4.5,1.8,6.7c0.8,1.2,1.6,1.8,2.7,2.8c0.7,0.6,3.2,2.1,2.9,0.8c-0.2-0.7-2.5-2.9-3.4-4.9
	c-0.9-2.1-1.2-4.8,0.5-6.5c0.1,0.4,0.2,1.3,0.3,1.7c0.1,0.6,0.3,1.1,0.5,1.7c0.5,1.2,1.2,2.3,2.3,3.3c1.2,1,2.3,2,3,3.2
	c0.6,1,1.1,2.3,1.3,3.4c0.5,2.4,0.4,4.3-0.1,6.7c-0.4,1.5-1.3,3.7-2.2,5c-0.2,0.3-0.4,0.6-0.6,0.8c-0.2,0.3-0.5,0.6-0.6,0.8
	c-0.1-0.1-0.2-1-0.3-1.1c-0.1-0.4-0.2-0.8-0.4-1.2c-1.7-4.8-6.9-6.8-10.1-14.1c-0.2-0.4-0.4-0.8-0.5-1.2C7,37.1,6.8,35.7,6.6,34
	L6.6,34z"/>
<path class="st2" d="M55.1,62.5v-9.2h4.4V10.1h-4.4V0.9h21.3c6.2,0,11,1.4,14.5,4.1c3.5,2.8,5.3,6.8,5.3,12c0,6.5-2.8,10.8-8.5,12.8
	c6.5,2.8,9.7,7.7,9.7,14.6c0,5.7-1.9,10.1-5.8,13.3c-3.8,3.2-9.2,4.8-16.2,4.8H55.1L55.1,62.5z M74.1,9.7v17.1
	c3.2,0,5.3-0.6,6.2-1.9c0.9-1.3,1.3-3.4,1.3-6.3c0-2.5-0.3-4.4-0.8-5.7c-0.5-1.3-1.3-2.1-2.3-2.5C77.5,9.9,76,9.7,74.1,9.7L74.1,9.7
	z M74.1,35.2v18.1c2.1,0,3.6-0.2,4.7-0.5c1.1-0.4,1.9-1.2,2.5-2.4c0.6-1.3,0.9-3.3,0.9-6c0-2.7-0.3-4.7-0.9-6
	c-0.6-1.3-1.4-2.2-2.5-2.5C77.7,35.4,76.2,35.2,74.1,35.2L74.1,35.2z M102.8,62.5v-9.2h6V10.1h-6V0.9h26.9v9.2h-6.3v43.2h6.3v9.2
	H102.8L102.8,62.5z M155.9,63.4c-6.3,0-11.4-2.9-15.3-8.6c-3.8-5.7-5.8-13.4-5.8-23.1c0-9.6,1.9-17.3,5.7-23
	c3.8-5.7,8.9-8.6,15.3-8.6c6.4,0,11.5,2.9,15.3,8.6c3.8,5.7,5.8,13.4,5.8,23.1c0,9.7-1.9,17.4-5.8,23.1
	C167.4,60.5,162.3,63.4,155.9,63.4L155.9,63.4z M155.9,53c1.4,0,2.4-0.5,3.1-1.6c0.7-1.1,1.2-3.1,1.5-6.1c0.3-3,0.4-7.5,0.4-13.7
	c0-6.1-0.1-10.7-0.4-13.7c-0.3-3-0.8-5-1.5-6.1c-0.7-1.1-1.7-1.6-3.1-1.6c-1.4,0-2.4,0.5-3.1,1.6c-0.7,1.1-1.2,3.1-1.5,6.1
	c-0.3,3-0.4,7.5-0.4,13.7c0,6.1,0.1,10.7,0.4,13.7c0.3,3,0.8,5,1.5,6.1C153.5,52.5,154.5,53,155.9,53L155.9,53z M183.3,62.5v-20h9.2
	c0,4.7,0.5,7.8,1.5,9.2c1,1.4,2.3,2.1,3.9,2.1c1.5,0,2.6-0.5,3.4-1.6c0.8-1.1,1.2-2.6,1.2-4.5c0-1.6-0.5-3.2-1.4-4.9
	c-0.9-1.7-3.2-4.3-6.9-7.7c-5-4.6-8.1-8.3-9.5-11.3c-1.4-2.9-2-5.9-2-8.7c0-4.3,1.2-7.9,3.6-10.6c2.4-2.8,5.4-4.1,9.1-4.1
	c1.8,0,3.4,0.3,4.8,0.8c1.4,0.6,3,1.7,4.9,3.5V0.9h9.2v18.6h-9.2c0-3.9-0.5-6.6-1.4-7.9c-0.9-1.3-2.2-2-3.9-2
	c-1.2,0-2.2,0.4-2.9,1.2c-0.7,0.8-1.1,1.9-1.1,3.3c0,1.7,0.4,3.2,1.3,4.5c0.8,1.3,2.5,3,5,5.1c5.6,4.9,9.3,8.9,11.1,12.2
	c1.7,3.3,2.6,6.7,2.6,10.5c0,4.8-1.3,8.7-4,11.9c-2.6,3.1-5.9,4.7-9.9,4.7c-3.5,0-6.6-1.5-9.5-4.4v3.8H183.3L183.3,62.5z"/>
<path class="st3" d="M11.4,83.5v-9.8H8.4L6,79.6l-2.4-5.9H0.7v9.8h2.1v-6.9l2.8,6.9h0.9l2.8-6.9v6.9H11.4L11.4,83.5z M23,83.5v-1.8
	h-4.8v-2.2h4.7v-1.8h-4.7v-2.1H23v-1.8H16v9.8H23L23,83.5z M26.8,85.3h2.1v-1.8H35v1.8h2.1v-3.6h-0.9v-8h-7l-0.6,5
	c-0.3,2.6-0.9,3-1.9,3.1V85.3L26.8,85.3z M30.7,78.8l0.4-3.3h3v6.1h-4.5C30.1,81,30.6,80.1,30.7,78.8L30.7,78.8z M43,83.5l4.7-6.6
	v6.6h2.1v-9.8h-2.1L43.1,80v-6.3H41v9.8H43L43,83.5z M62.1,85.3h2.1v-3.6h-0.9v-8h-2.1v8h-4.6v-8h-2.1v9.8h7.6V85.3L62.1,85.3z
	 M70.2,83.5l4.7-6.6v6.6h2.1v-9.8h-2.1L70.2,80v-6.3h-2.1v9.8H70.2L70.2,83.5z M90.4,83.5v-9.8h-2.1v3.8h-4.6v-3.8h-2.1v9.8h2.1
	v-4.1h4.6v4.1H90.4L90.4,83.5z M104.2,83.5l-3.8-9.8h-2.6l-3.8,9.8h2.4l0.6-1.7h4.2l0.6,1.7H104.2L104.2,83.5z M100.7,80h-3.1
	l1.5-4.2L100.7,80L100.7,80z M123.8,83.6c3,0,5.1-2.1,5.1-5.1s-2.2-5.1-5.1-5.1c-3,0-5.1,2.1-5.1,5.1S120.9,83.6,123.8,83.6
	L123.8,83.6z M123.8,81.8c-1.8,0-3-1.4-3-3.2c0-1.8,1.2-3.2,3-3.2c1.8,0,3,1.4,3,3.2C126.8,80.4,125.6,81.8,123.8,81.8L123.8,81.8z
	 M135.2,83.5V80h2.5c2.1,0,3.3-1.5,3.3-3.2c0-1.7-1.2-3.2-3.3-3.2h-4.6v9.8H135.2L135.2,83.5z M137.5,78.1h-2.2v-2.6h2.2
	c0.8,0,1.4,0.5,1.4,1.3C138.9,77.6,138.3,78.1,137.5,78.1L137.5,78.1z M149.4,83.5v-8h2.8v-1.8h-7.8v1.8h2.9v8H149.4L149.4,83.5z
	 M164.6,83.5l-3.8-9.8h-2.6l-3.8,9.8h2.4l0.6-1.7h4.2l0.6,1.7H164.6L164.6,83.5z M161,80H158l1.5-4.2L161,80L161,80z M167.6,83.6
	c2,0,3.5-0.7,3.9-4.8l0.4-3.3h3v8h2.1v-9.8h-7l-0.6,5c-0.3,2.6-0.9,3.1-1.9,3.1V83.6L167.6,83.6z M181.7,73.7v9.8h4.6
	c2.1,0,3.3-1.4,3.3-3.2c0-1.7-1.2-3.2-3.3-3.2h-2.5v-3.5H181.7L181.7,73.7z M186,79c0.8,0,1.4,0.5,1.4,1.3c0,0.8-0.6,1.3-1.4,1.3
	h-2.2V79H186L186,79z M192.5,83.5v-9.8h-2.1v9.8H192.5L192.5,83.5z M199.3,83.5v-8h4.8v-1.8h-6.9v9.8H199.3L199.3,83.5z M208.3,73.7
	v9.8h4.6c2.1,0,3.3-1.4,3.3-3.2c0-1.7-1.2-3.2-3.3-3.2h-2.5v-3.5H208.3L208.3,73.7z M212.6,79c0.8,0,1.4,0.5,1.4,1.3
	c0,0.8-0.6,1.3-1.4,1.3h-2.2V79H212.6L212.6,79z M219.1,83.5v-9.8H217v9.8H219.1L219.1,83.5z"/>
<polygon class="st3" points="203.4,79.8 203.4,78.5 195.1,78.5 195.1,79.8 203.4,79.8 "/>
</svg>
