<?xml version="1.0" encoding="utf-8"?>
<!-- Generator: Adobe Illustrator 22.1.0, SVG Export Plug-In . SVG Version: 6.00 Build 0)  -->
<svg version="1.1" id="Layer_1" xmlns="http://www.w3.org/2000/svg" xmlns:xlink="http://www.w3.org/1999/xlink" x="0px" y="0px"
	 viewBox="0 0 42.2 60" style="enable-background:new 0 0 42.2 60;" xml:space="preserve">
<style type="text/css">
	.st0{fill:#FFFFFF;}
	.st1{fill:#E30613;}
	.st2{fill:#253574;}
</style>
<path class="st0" d="M20.8,0C9.2,0-0.3,9.5-0.3,21.1c0,9.2,4.6,18.7,9.8,26.3c4.8,7,9.5,11.7,9.7,11.9c0.9,0.9,2.4,0.9,3.3,0
	c0.2-0.2,4.9-4.9,9.7-11.9c5.2-7.6,9.8-17.1,9.8-26.3C41.9,9.5,32.4,0,20.8,0z"/>
<path class="st1" d="M20.8,0C9.2,0-0.3,9.5-0.3,21.1c0,9.2,4.6,18.7,9.8,26.3c4.8,7,9.5,11.7,9.7,11.9c0.9,0.9,2.4,0.9,3.3,0
	c0.2-0.2,4.9-4.9,9.7-11.9c5.2-7.6,9.8-17.1,9.8-26.3C41.9,9.5,32.4,0,20.8,0z M20.8,54.2c-4.5-5-16.4-19.5-16.4-33.1
	c0-9,7.4-16.4,16.4-16.4S37.2,12,37.2,21.1C37.2,34.7,25.3,49.3,20.8,54.2z"/>
<g>
	<path class="st1" d="M31.6,23.8c0,0.9,0,2.3-0.1,3.2c-0.5,2.8-1.3,4.9-2.8,7.5c-0.3,0.4-1.4,2.3-1.8,2.6c-0.1-0.4-0.3-0.6-0.3-1
		c0-1.9,2.2-4.5,2.1-9.6c0-1.9-0.3-3.4-1.4-5.2c-0.6-0.9-1.2-1.4-2.1-2.1c-0.5-0.4-2.5-1.6-2.2-0.5c0.1,0.5,1.9,2.2,2.6,3.8
		c0.8,1.6,0.9,3.6-0.4,4.9c-0.1-0.3-0.1-0.9-0.3-1.3c-0.1-0.4-0.3-0.9-0.4-1.3c-0.4-0.9-0.9-1.7-1.8-2.5c-0.9-0.8-1.7-1.6-2.3-2.5
		c-0.4-0.8-0.8-1.8-1-2.6c-0.4-1.8-0.4-3.4,0.1-5c0.5-1.6,1.2-3.1,1.9-4.1c0.1-0.3,0.3-0.4,0.4-0.6s0.4-0.5,0.5-0.6
		c0.1,0.1,0.1,0.8,0.3,0.9c0.1,0.3,0.1,0.6,0.3,0.9c1.3,3.6,5.3,5.2,7.8,10.7c0.1,0.3,0.3,0.6,0.4,0.9
		C31.3,21.5,31.4,22.5,31.6,23.8L31.6,23.8z"/>
	<path class="st2" d="M10.1,27.6c0-0.9,0-2.3,0.1-3.2c0.5-2.8,1.3-4.9,2.8-7.5c0.3-0.4,1.4-2.3,1.8-2.6c0.1,0.4,0.3,0.6,0.3,1
		c0,1.9-2.2,4.5-2.1,9.6c0,1.9,0.3,3.4,1.4,5.2c0.6,0.9,1.2,1.4,2.1,2.1c0.5,0.4,2.5,1.6,2.2,0.5c-0.1-0.5-1.9-2.2-2.6-3.8
		c-0.8-1.6-0.9-3.6,0.4-4.9c0.1,0.3,0.1,0.9,0.3,1.3c0.1,0.4,0.3,0.9,0.4,1.3c0.4,0.9,0.9,1.7,1.8,2.5c0.9,0.8,1.7,1.6,2.3,2.5
		c0.4,0.8,0.8,1.8,1,2.6c0.4,1.8,0.4,3.4-0.1,5c-0.3,1.2-1,2.8-1.7,3.9c-0.1,0.3-0.3,0.4-0.4,0.6s-0.4,0.5-0.5,0.6
		c-0.1-0.1-0.1-0.8-0.3-0.9c-0.1-0.3-0.1-0.6-0.3-0.9c-1.3-3.6-5.3-5.2-7.8-10.7c-0.1-0.3-0.3-0.6-0.4-0.9
		C10.3,29.9,10.2,28.9,10.1,27.6L10.1,27.6z"/>
</g>
</svg>
