<svg xmlns="http://www.w3.org/2000/svg" xmlns:xlink="http://www.w3.org/1999/xlink">
  <symbol id="iconSheer" viewBox="0 0 270.4 98.1">
      <path d="M175.1,51.8c0.2,1.2,0.3,2.1,0.5,3c2,8.4,8.6,14,17.2,14.7c7.6,0.6,13.6-2.3,18-8.5c2.2-3,5.7-3.5,8.5-1.1
        c1.6,1.4,1.8,3.2,0.5,4.9c-0.7,0.9-1.4,1.8-2.1,2.8c-2.9,4-6.7,6.7-11.4,8.3c-7.6,2.6-15.2,3-22.7,0.2
        c-10.1-3.7-16.1-11.1-17.8-21.7c-1-6.5-0.4-13,2.6-18.9c4.3-8.4,11.1-13.6,20.5-15.1c6.2-1,12.4-0.4,18.2,2.4
        c8.2,3.9,13.2,10.5,15.1,19.3c0.5,2.4,0.7,4.9,0.9,7.3c0.2,1.5-0.5,2.2-2.1,2.3c-0.7,0-1.4,0-2.1,0c-14,0-28,0-42,0
        C176.5,51.8,176,51.8,175.1,51.8z M213.4,42.6c-1.2-7.9-10.7-14.7-19.4-14.2c-9.1,0.5-18.2,7.5-18.5,14.2
        C188,42.6,200.7,42.6,213.4,42.6z"/>
      <path d="M112.4,51.6c0.1,0.8,0.2,1.4,0.3,2c1.7,9.3,9.3,15.7,18.7,15.9c7.1,0.1,12.7-2.8,16.8-8.6
        c2.2-3.1,6.1-3.4,8.8-0.7c1.3,1.4,1.5,3,0.3,4.6c-0.5,0.8-1.1,1.5-1.7,2.2c-3.1,4.5-7.3,7.4-12.5,9.1c-7.6,2.5-15.2,2.7-22.5-0.2
        C110,71.8,104.2,63.8,103,52.6c-0.6-5.4-0.1-10.7,2.2-15.6c4.3-9.4,11.4-15.2,21.8-16.6c5.5-0.7,11-0.3,16.1,1.8
        c9.2,3.8,14.6,10.9,16.6,20.6c0.4,2.2,0.6,4.5,0.7,6.7c0.1,1.8-0.3,2.2-2.2,2.2c-3.3,0-6.7,0-10,0c-11.2,0-22.4,0-33.5,0
        C114,51.6,113.3,51.6,112.4,51.6z M150.8,42.5c-1.2-7.8-10.4-14.4-19.4-14.2c-8.8,0.2-17.9,7.2-18.6,14.2
        C125.4,42.5,138,42.5,150.8,42.5z"/>
      <path d="M251.8,56c0.7,0.6,1.1,1,1.5,1.4c4.9,4.2,9.8,8.3,14.6,12.5c0.3,0.3,0.7,0.6,1,0.9c1.8,1.8,2,4.4,0.3,6.2
        c-1.6,1.8-4.2,2.1-6.1,0.5c-3.4-2.8-6.7-5.7-10-8.5c-4.8-4.1-9.5-8.1-14.3-12.2c-0.4-0.4-0.9-0.7-1.6-1.3c0,1-0.1,1.6-0.1,2.3
        c0,11.5,0,23,0,34.5c0,0.5,0,1.1,0,1.6c-0.2,2.5-2.1,4.3-4.6,4.2c-2.4-0.1-4.1-1.9-4.2-4.4c0-0.5,0-1.1,0-1.6c0-22.7,0-45.4,0-68.1
        c0-0.7,0-1.4,0-2.1c0-1.6,0.2-1.9,1.7-1.9c2.1-0.1,4.2-0.1,6.2-0.1c5,0,10.1,0.2,15.1-0.1c8.4-0.4,17.8,6.4,18.7,16.3
        c0.8,8.9-5.2,17.3-14.3,19.1C254.6,55.4,253.4,55.7,251.8,56z M236.5,49.1c0.5,0.1,0.9,0.1,1.2,0.1c4.2,0,8.4,0,12.6,0
        c1.2,0,2.4-0.1,3.6-0.5c3.9-1.2,7-3.5,8-7.7c1.7-7.1-3.6-13.7-10.9-13.7c-4.3,0-8.6,0-13,0c-0.5,0-1,0.1-1.5,0.1
        C236.5,34.6,236.5,41.7,236.5,49.1z"/>
      <path d="M88.5,52c-8.3,0-16.4,0-24.6,0c0,0.7-0.1,1.4-0.1,2c0,6.3,0,12.6,0,18.9c0,0.8,0,1.6-0.2,2.3
        c-0.6,1.9-2.6,3.1-4.5,3c-2.1-0.2-3.8-1.8-4.1-3.9c-0.1-0.5,0-1,0-1.5c0-22.5,0-45,0-67.4c0-0.9,0.1-1.8,0.4-2.6
        C56,0.8,58-0.2,60.1,0C62,0.3,63.6,2,63.8,3.9c0.1,0.6,0,1.2,0,1.8c0,11.6,0,23.1,0,34.7c0,0.7,0.1,1.4,0.1,2
        c1.5,0.4,22.9,0.4,24.5,0c0-0.5,0.1-1.1,0.1-1.7c0-5.1,0-10.2,0-15.3c0-0.5,0-1,0-1.5c0.2-2.3,1.9-4,4.2-4.1
        c2.3-0.1,4.3,1.6,4.6,3.9c0.1,0.5,0,1,0,1.5c0,15.8,0,31.6,0,47.4c0,0.5,0,1,0,1.5c-0.3,2.3-2.3,4.1-4.5,4c-2.3-0.1-4.1-1.9-4.3-4.2
        c0-0.5,0-1,0-1.5c0-6.1,0-12.3,0-18.4C88.5,53.4,88.5,52.8,88.5,52z"/>
      <path d="M25,78.3c-5.9-0.1-11.4-1.4-16.5-4.4c-2.2-1.3-4.2-2.9-5.8-4.8c-0.8-1-1.6-2.1-2.2-3.3c-1-1.9-0.6-3.4,0.9-4.9
        c1.7-1.6,4.1-2.3,6.4-0.7C9,61,10,62,10.9,63c0.9,0.9,1.6,1.9,2.5,2.8c2.7,2.7,6,4.2,9.8,4.6c3.5,0.4,7,0.3,10.4-0.9
        c1.4-0.5,2.8-1.2,4-2.1c2.9-2.2,3-5.9,0.2-8.2c-1.3-1.1-2.9-1.9-4.5-2.6c-4-1.7-8.1-2.9-12.3-4c-3.4-0.8-6.7-1.9-10.1-2.9
        c-1.3-0.4-2.5-1.1-3.7-1.7c-3.2-1.7-5-4.4-5.5-7.9c-1-7.1,1.7-12.8,8.1-15.9c9.8-4.8,19.7-5.2,29.4,0.4c1.8,1,3.5,2.5,5.1,3.9
        c1.2,1,2,2.5,2.5,4c0.8,2.6-0.5,3.9-2.8,4.4c-2,0.4-3.8-0.2-5.2-1.7c-0.3-0.3-0.5-0.6-0.7-0.9c-2.3-3.4-5.6-5.3-9.6-6.1
        c-4-0.7-8-0.6-11.8,0.9c-1.4,0.5-2.8,1.3-3.9,2.3c-2.7,2.3-2.7,5.4-0.1,7.8c1.7,1.6,3.7,2.5,5.9,3c4.8,1.2,9.7,2.4,14.5,3.6
        c3.1,0.8,6.1,1.8,8.9,3.4c3.6,1.9,6.2,4.7,7.1,8.8c1.1,5,0,9.4-3.9,13c-4.4,4-9.5,6.3-15.4,7C28.1,78.1,26.5,78.2,25,78.3z"/>
    </symbol>

    <symbol id="iconEye" viewBox="0 0 512 298.7" style="enable-background:new 0 0 512 298.7;" xml:space="preserve">
      <path d="M510.1,143.3C506.1,137.4,409.2,0,256,0C124.6,0,7.4,136.6,2.5,142.4c-3.3,4-3.3,9.8,0,13.8
        c4.9,5.8,122,142.4,253.5,142.4S504.5,162,509.5,156.2C512.6,152.6,512.8,147.2,510.1,143.3z M256,277.3
        c-105.4,0-205.5-100.5-231-128c25.4-27.5,125.5-128,231-128c123.3,0,210.3,100.3,231.6,127.4C463,175.4,362.3,277.3,256,277.3z"/>
      <path d="M256,64c-47.1,0-85.3,38.3-85.3,85.3s38.3,85.3,85.3,85.3s85.3-38.3,85.3-85.3S303.1,64,256,64z M256,213.3
      c-35.3,0-64-28.7-64-64s28.7-64,64-64s64,28.7,64,64S291.3,213.3,256,213.3z"/>
    </symbol>

    <symbol id="iconLogIn" viewBox="0 0 512 512" style="enable-background:new 0 0 512 512;" xml:space="preserve">
      <path d="M437,331c-27.9-27.9-61.1-48.5-97.3-61c38.8-26.7,64.3-71.4,64.3-122C404,66.4,337.6,0,256,0S108,66.4,108,148
        c0,50.5,25.5,95.3,64.3,122c-36.2,12.5-69.4,33.1-97.3,61C26.6,379.3,0,443.6,0,512h40c0-119.1,96.9-216,216-216s216,96.9,216,216
        h40C512,443.6,485.4,379.3,437,331z M256,256c-59.6,0-108-48.4-108-108S196.4,40,256,40s108,48.4,108,108S315.6,256,256,256z"/>
    </symbol>

    <symbol id="logo" viewBox="0 0 219.1 85.3" style="enable-background:new 0 0 219.1 85.3;" xml:space="preserve">
      <path class="st0" d="M0,0.9v61.4h41.3V0.9H0z M37.1,58.2H4.2v-53h32.9V58.2z"/>
      <path class="st0" d="M34.8,29c0.1,1.3,0,3-0.2,4.2c-0.7,3.7-1.8,6.4-3.7,9.8c-0.3,0.5-1.9,3.1-2.3,3.4c-0.2-0.5-0.3-0.8-0.3-1.4
        c0-2.5,2.8-6,2.7-12.6c-0.1-2.5-0.3-4.5-1.8-6.7c-0.8-1.2-1.6-1.8-2.7-2.8c-0.7-0.6-3.2-2.1-2.9-0.8c0.2,0.7,2.5,2.9,3.4,4.9
        c0.9,2.1,1.2,4.8-0.5,6.5c-0.1-0.4-0.2-1.3-0.3-1.7c-0.1-0.6-0.3-1.1-0.5-1.7c-0.5-1.2-1.2-2.3-2.3-3.3c-1.2-1-2.3-2-3-3.2
        c-0.6-1-1.1-2.3-1.3-3.4c-0.5-2.4-0.4-4.3,0.1-6.7c0.4-1.5,1.3-3.7,2.2-5c0.2-0.3,0.4-0.6,0.6-0.8c0.2-0.3,0.5-0.6,0.6-0.8
        c0.1,0.1,0.2,1,0.3,1.1c0.1,0.4,0.2,0.8,0.4,1.2c1.7,4.8,6.9,6.8,10.1,14.1c0.2,0.4,0.4,0.8,0.5,1.2C34.4,26,34.7,27.4,34.8,29
        L34.8,29z"/>
      <path class="st1" d="M6.6,34c-0.1-1.3,0-3,0.2-4.2c0.7-3.7,1.8-6.4,3.7-9.8c0.3-0.5,1.9-3.1,2.3-3.4c0.2,0.5,0.3,0.8,0.3,1.4
        c0,2.5-2.8,6-2.7,12.6c0.1,2.5,0.3,4.5,1.8,6.7c0.8,1.2,1.6,1.8,2.7,2.8c0.7,0.6,3.2,2.1,2.9,0.8c-0.2-0.7-2.5-2.9-3.4-4.9
        c-0.9-2.1-1.2-4.8,0.5-6.5c0.1,0.4,0.2,1.3,0.3,1.7c0.1,0.6,0.3,1.1,0.5,1.7c0.5,1.2,1.2,2.3,2.3,3.3c1.2,1,2.3,2,3,3.2
        c0.6,1,1.1,2.3,1.3,3.4c0.5,2.4,0.4,4.3-0.1,6.7c-0.4,1.5-1.3,3.7-2.2,5c-0.2,0.3-0.4,0.6-0.6,0.8c-0.2,0.3-0.5,0.6-0.6,0.8
        c-0.1-0.1-0.2-1-0.3-1.1c-0.1-0.4-0.2-0.8-0.4-1.2c-1.7-4.8-6.9-6.8-10.1-14.1c-0.2-0.4-0.4-0.8-0.5-1.2C7,37.1,6.8,35.7,6.6,34
        L6.6,34z"/>
      <path class="st2" d="M55.1,62.5v-9.2h4.4V10.1h-4.4V0.9h21.3c6.2,0,11,1.4,14.5,4.1c3.5,2.8,5.3,6.8,5.3,12c0,6.5-2.8,10.8-8.5,12.8
        c6.5,2.8,9.7,7.7,9.7,14.6c0,5.7-1.9,10.1-5.8,13.3c-3.8,3.2-9.2,4.8-16.2,4.8H55.1L55.1,62.5z M74.1,9.7v17.1
        c3.2,0,5.3-0.6,6.2-1.9c0.9-1.3,1.3-3.4,1.3-6.3c0-2.5-0.3-4.4-0.8-5.7c-0.5-1.3-1.3-2.1-2.3-2.5C77.5,9.9,76,9.7,74.1,9.7L74.1,9.7
        z M74.1,35.2v18.1c2.1,0,3.6-0.2,4.7-0.5c1.1-0.4,1.9-1.2,2.5-2.4c0.6-1.3,0.9-3.3,0.9-6c0-2.7-0.3-4.7-0.9-6
        c-0.6-1.3-1.4-2.2-2.5-2.5C77.7,35.4,76.2,35.2,74.1,35.2L74.1,35.2z M102.8,62.5v-9.2h6V10.1h-6V0.9h26.9v9.2h-6.3v43.2h6.3v9.2
        H102.8L102.8,62.5z M155.9,63.4c-6.3,0-11.4-2.9-15.3-8.6c-3.8-5.7-5.8-13.4-5.8-23.1c0-9.6,1.9-17.3,5.7-23
        c3.8-5.7,8.9-8.6,15.3-8.6c6.4,0,11.5,2.9,15.3,8.6c3.8,5.7,5.8,13.4,5.8,23.1c0,9.7-1.9,17.4-5.8,23.1
        C167.4,60.5,162.3,63.4,155.9,63.4L155.9,63.4z M155.9,53c1.4,0,2.4-0.5,3.1-1.6c0.7-1.1,1.2-3.1,1.5-6.1c0.3-3,0.4-7.5,0.4-13.7
        c0-6.1-0.1-10.7-0.4-13.7c-0.3-3-0.8-5-1.5-6.1c-0.7-1.1-1.7-1.6-3.1-1.6c-1.4,0-2.4,0.5-3.1,1.6c-0.7,1.1-1.2,3.1-1.5,6.1
        c-0.3,3-0.4,7.5-0.4,13.7c0,6.1,0.1,10.7,0.4,13.7c0.3,3,0.8,5,1.5,6.1C153.5,52.5,154.5,53,155.9,53L155.9,53z M183.3,62.5v-20h9.2
        c0,4.7,0.5,7.8,1.5,9.2c1,1.4,2.3,2.1,3.9,2.1c1.5,0,2.6-0.5,3.4-1.6c0.8-1.1,1.2-2.6,1.2-4.5c0-1.6-0.5-3.2-1.4-4.9
        c-0.9-1.7-3.2-4.3-6.9-7.7c-5-4.6-8.1-8.3-9.5-11.3c-1.4-2.9-2-5.9-2-8.7c0-4.3,1.2-7.9,3.6-10.6c2.4-2.8,5.4-4.1,9.1-4.1
        c1.8,0,3.4,0.3,4.8,0.8c1.4,0.6,3,1.7,4.9,3.5V0.9h9.2v18.6h-9.2c0-3.9-0.5-6.6-1.4-7.9c-0.9-1.3-2.2-2-3.9-2
        c-1.2,0-2.2,0.4-2.9,1.2c-0.7,0.8-1.1,1.9-1.1,3.3c0,1.7,0.4,3.2,1.3,4.5c0.8,1.3,2.5,3,5,5.1c5.6,4.9,9.3,8.9,11.1,12.2
        c1.7,3.3,2.6,6.7,2.6,10.5c0,4.8-1.3,8.7-4,11.9c-2.6,3.1-5.9,4.7-9.9,4.7c-3.5,0-6.6-1.5-9.5-4.4v3.8H183.3L183.3,62.5z"/>
      <path class="st3" d="M11.4,83.5v-9.8H8.4L6,79.6l-2.4-5.9H0.7v9.8h2.1v-6.9l2.8,6.9h0.9l2.8-6.9v6.9H11.4L11.4,83.5z M23,83.5v-1.8
        h-4.8v-2.2h4.7v-1.8h-4.7v-2.1H23v-1.8H16v9.8H23L23,83.5z M26.8,85.3h2.1v-1.8H35v1.8h2.1v-3.6h-0.9v-8h-7l-0.6,5
        c-0.3,2.6-0.9,3-1.9,3.1V85.3L26.8,85.3z M30.7,78.8l0.4-3.3h3v6.1h-4.5C30.1,81,30.6,80.1,30.7,78.8L30.7,78.8z M43,83.5l4.7-6.6
        v6.6h2.1v-9.8h-2.1L43.1,80v-6.3H41v9.8H43L43,83.5z M62.1,85.3h2.1v-3.6h-0.9v-8h-2.1v8h-4.6v-8h-2.1v9.8h7.6V85.3L62.1,85.3z
         M70.2,83.5l4.7-6.6v6.6h2.1v-9.8h-2.1L70.2,80v-6.3h-2.1v9.8H70.2L70.2,83.5z M90.4,83.5v-9.8h-2.1v3.8h-4.6v-3.8h-2.1v9.8h2.1
        v-4.1h4.6v4.1H90.4L90.4,83.5z M104.2,83.5l-3.8-9.8h-2.6l-3.8,9.8h2.4l0.6-1.7h4.2l0.6,1.7H104.2L104.2,83.5z M100.7,80h-3.1
        l1.5-4.2L100.7,80L100.7,80z M123.8,83.6c3,0,5.1-2.1,5.1-5.1s-2.2-5.1-5.1-5.1c-3,0-5.1,2.1-5.1,5.1S120.9,83.6,123.8,83.6
        L123.8,83.6z M123.8,81.8c-1.8,0-3-1.4-3-3.2c0-1.8,1.2-3.2,3-3.2c1.8,0,3,1.4,3,3.2C126.8,80.4,125.6,81.8,123.8,81.8L123.8,81.8z
         M135.2,83.5V80h2.5c2.1,0,3.3-1.5,3.3-3.2c0-1.7-1.2-3.2-3.3-3.2h-4.6v9.8H135.2L135.2,83.5z M137.5,78.1h-2.2v-2.6h2.2
        c0.8,0,1.4,0.5,1.4,1.3C138.9,77.6,138.3,78.1,137.5,78.1L137.5,78.1z M149.4,83.5v-8h2.8v-1.8h-7.8v1.8h2.9v8H149.4L149.4,83.5z
         M164.6,83.5l-3.8-9.8h-2.6l-3.8,9.8h2.4l0.6-1.7h4.2l0.6,1.7H164.6L164.6,83.5z M161,80H158l1.5-4.2L161,80L161,80z M167.6,83.6
        c2,0,3.5-0.7,3.9-4.8l0.4-3.3h3v8h2.1v-9.8h-7l-0.6,5c-0.3,2.6-0.9,3.1-1.9,3.1V83.6L167.6,83.6z M181.7,73.7v9.8h4.6
        c2.1,0,3.3-1.4,3.3-3.2c0-1.7-1.2-3.2-3.3-3.2h-2.5v-3.5H181.7L181.7,73.7z M186,79c0.8,0,1.4,0.5,1.4,1.3c0,0.8-0.6,1.3-1.4,1.3
        h-2.2V79H186L186,79z M192.5,83.5v-9.8h-2.1v9.8H192.5L192.5,83.5z M199.3,83.5v-8h4.8v-1.8h-6.9v9.8H199.3L199.3,83.5z M208.3,73.7
        v9.8h4.6c2.1,0,3.3-1.4,3.3-3.2c0-1.7-1.2-3.2-3.3-3.2h-2.5v-3.5H208.3L208.3,73.7z M212.6,79c0.8,0,1.4,0.5,1.4,1.3
        c0,0.8-0.6,1.3-1.4,1.3h-2.2V79H212.6L212.6,79z M219.1,83.5v-9.8H217v9.8H219.1L219.1,83.5z"/>
      <polygon class="st3" points="203.4,79.8 203.4,78.5 195.1,78.5 195.1,79.8 203.4,79.8 "/>
    </symbol>

    <symbol id="iconSearch" viewBox="0 0 24.7 24.7" style="enable-background:new 0 0 24.7 24.7;" xml:space="preserve">
      <path d="M16.9,15.5c1.3-1.6,2.1-3.7,2.1-6C19,4.3,14.7,0,9.5,0S0,4.3,0,9.5S4.3,19,9.5,19c2.3,0,4.3-0.8,6-2.1l7.8,7.8l1.4-1.4
        L16.9,15.5z M9.5,17C5.3,17,2,13.7,2,9.5C2,5.3,5.3,2,9.5,2S17,5.3,17,9.5C17,13.7,13.7,17,9.5,17z"/>
    </symbol>

    <symbol id="iconDoctor" viewBox="0 0 490 490" style="enable-background:new 0 0 490 490;" xml:space="preserve">
      <path d="M355.5,248.9c-10-5.1-22.3-1.2-27.5,8.9c-5.1,10-1.1,22.3,8.9,27.5c69.3,35.3,112.3,106,112.3,184.3
        c0,11.3,9.1,20.4,20.4,20.4s20.4-9.1,20.4-20.4C490,375.8,438.4,291.2,355.5,248.9z"/>
      <path d="M132.3,250C50.7,292.8,0,376.9,0,469.6C0,480.9,9.1,490,20.4,490s20.4-9.1,20.4-20.4c0-77.4,42.3-147.7,110.4-183.4
        c10-5.2,13.8-17.6,8.6-27.6C154.6,248.7,142.2,244.8,132.3,250z"/>
      <path d="M245,259.6c71,0,128.7-58.2,128.7-129.8S316,0,245,0S116.3,58.2,116.3,129.8S174,259.6,245,259.6z M245,40.8
        c48.5,0,87.9,39.9,87.9,89s-39.4,89-87.9,89s-87.9-39.9-87.9-89S196.5,40.8,245,40.8z"/>
      <path d="M288,289.2c-1.7-9.7-10.2-16.8-20.1-16.8h-45.8c-9.9,0-18.4,7.1-20.1,16.8l-23.2,129.5c-1.6,8.9,2.9,17.9,11,21.9
        l46.9,23.2c7,3.3,11.7,3.7,18.4-0.1l45.2-23.2c8-4.1,12.4-12.9,10.8-21.8L288,289.2L288,289.2z M245.7,422.6l-23.9-11.8l17.5-97.6
        h11.6l17.5,97.8L245.7,422.6z"/>
    </symbol>

    <symbol id="iconChecklist" viewBox="0 0 447.3 512" style="enable-background:new 0 0 447.3 512;" xml:space="preserve">
      <path d="M59.9,471.4c-11,0-20-9-20-20V99.9c0-11,9-20,20-20h33v78.9h199.7V79.9h32c11,0,20,9,20,20v221.9l39.9-44.5V99.9
      c0-33-26.9-59.9-59.9-59.9h-75.3C241,16.7,218.8,0,192.7,0c-26,0-48.3,16.7-56.5,39.9H59.9C26.9,39.9,0,66.8,0,99.9v351.5
      c0,33,26.9,59.9,59.9,59.9h162.5l-42-39.9H59.9z M172.8,79.9v-20c0-11,9-20,20-20c11,0,20,9,20,20v20h39.9v38.9H132.8V79.9H172.8z
       M304.6,238.7H159.8v-39.9h144.8V238.7z M119.8,198.7v39.9H79.9v-39.9H119.8z M160.8,318.6v-39.9h143.8v39.9H160.8z M120.8,318.6
      H79.9v-39.9h40.9V318.6z M79.9,358.5h39.9v39.9H79.9V358.5z M447.3,326.9L281.1,512L173,409.1l27.5-28.9l78.3,74.5l138.7-154.5
      L447.3,326.9z"/>
    </symbol>

    <symbol id="iconBigPhone" viewBox="0 0 512 512" style="enable-background:new 0 0 512 512;" xml:space="preserve">
      <path d="M79.8,80.4c-53.2,53.2-53.2,139.8,0,193l28.3-28.3c-37.6-37.6-37.6-98.8,0-136.5c37.6-37.6,98.8-37.6,136.5,0l28.3-28.3
        C219.6,27.1,133,27.1,79.8,80.4z"/>
      <path d="M136.1,136.1c-22.4,22.4-22.4,58.8,0,81.2l28.3-28.3c-3.3-3.3-5.1-7.7-5.1-12.4c0-4.7,1.8-9.1,5.1-12.4s7.7-5.1,12.4-5.1
        c4.7,0,9.1,1.8,12.4,5.1l28.3-28.3C194.9,113.7,158.5,113.7,136.1,136.1z"/>
      <path d="M487.1,66.8L420,0L280.7,139.1l54,55.8c-9,16.1-28.7,46.8-62.2,80.3c-33.5,33.5-64.5,53.3-80.7,62.5l-54.7-54L0.1,420
        l66.7,67.2c25.5,25.5,64.3,32.1,96.5,16.4c49.2-23.9,123.5-68,197.8-142.4s118.5-148.6,142.4-197.8c5.7-11.7,8.4-24.2,8.4-36.6
        C511.9,104.8,503.4,83.1,487.1,66.8z M467.6,145.9c-22.6,46.5-64.2,116.6-134.7,187c-70.4,70.4-140.6,112.1-187,134.7
        c-16.9,8.2-37.4,4.7-50.8-8.7l-38.5-38.8l80.7-80.2l46.6,46l12.5-5.5c2-0.9,50.2-22.7,104.5-77c54.3-54.3,75.7-102.1,76.5-104.1
        l5.4-12.3l-46-47.5L420,56.4l38.8,38.7C472.3,108.6,475.8,129,467.6,145.9z"/>
    </symbol>

    <symbol id="iconFormDate" viewBox="0 0 16 16" style="enable-background:new 0 0 16 16;" xml:space="preserve">
      <path d="M14.7,9.5V2.7c0-0.7-0.6-1.3-1.3-1.3h-2v-1C11.3,0.1,11.2,0,11,0s-0.3,0.1-0.3,0.3v1h-6v-1C4.7,0.1,4.5,0,4.3,0
        C4.1,0,4,0.1,4,0.3v1H1.3C0.6,1.3,0,1.9,0,2.7v10.7c0,0.7,0.6,1.3,1.3,1.3h8.2c0.7,0.8,1.7,1.3,2.8,1.3c2,0,3.7-1.6,3.7-3.7
        C16,11.2,15.5,10.2,14.7,9.5z M0.7,2.7C0.7,2.3,1,2,1.3,2H4v0.7C3.6,2.7,3.3,3,3.3,3.3S3.6,4,4,4s0.7-0.3,0.7-0.7V2h6v0.7
        C10.3,2.7,10,3,10,3.3S10.3,4,10.7,4c0.4,0,0.7-0.3,0.7-0.7V2h2C13.7,2,14,2.3,14,2.7v2H0.7V2.7z M1.3,14c-0.4,0-0.7-0.3-0.7-0.7
        v-8H14v3.7c-0.5-0.3-1.1-0.4-1.7-0.4c-2,0-3.7,1.6-3.7,3.7c0,0.6,0.1,1.2,0.4,1.7H1.3z M12.3,15.3c-1.7,0-3-1.3-3-3s1.3-3,3-3
        s3,1.3,3,3S14,15.3,12.3,15.3z"/>
      <path d="M12.7,12.2v-1.9c0-0.2-0.1-0.3-0.3-0.3S12,10.1,12,10.3v2c0,0.1,0,0.2,0.1,0.2l1,1c0.1,0.1,0.2,0.1,0.2,0.1
        s0.2,0,0.2-0.1c0.1-0.1,0.1-0.3,0-0.5L12.7,12.2z"/>
    </symbol>

    <symbol id="iconFormMail" viewBox="0 0 24 18" style="enable-background:new 0 0 24 18;" xml:space="preserve">
      <path d="M24,18H0V0h24V18z M1,1.5V17h22V1.5l-11,10L1,1.5z M22.1,1H1.9L12,10.2L22.1,1z"/>
    </symbol>

    <symbol id="iconFormPhone" viewBox="0 0 16 24" style="enable-background:new 0 0 16 24;" xml:space="preserve">
      <path d="M14,24H2c-1.1,0-2-0.9-2-2V2c0-1.1,0.9-2,2-2h12c1.1,0,2,0.9,2,2v20C16,23.1,15.1,24,14,24z M15,18.9H1V22c0,0.6,0.4,1,1,1
        h12c0.6,0,1-0.4,1-1V18.9z M8,21.9c-0.6,0-1-0.4-1-1s0.4-1,1-1c0.6,0,1,0.4,1,1S8.6,21.9,8,21.9z M15,4.9H1v13h14V4.9z M14,1H2
        C1.4,1,1,1.4,1,2v1.9h14V2C15,1.4,14.6,1,14,1z M9.5,2.9h-3C6.2,2.9,6,2.7,6,2.4s0.2-0.5,0.5-0.5h3c0.3,0,0.5,0.2,0.5,0.5
        S9.8,2.9,9.5,2.9z"/>
    </symbol>

    <symbol id="iconFormSpec" viewBox="0 0 16 19.6" style="enable-background:new 0 0 16 19.6;" xml:space="preserve">
      <circle cx="7.5" cy="1" r="1"/>
      <circle cx="12.7" cy="1" r="1"/>
      <path d="M15.6,1.9c-0.5-0.9-1.4-1.4-2.4-1.4v1c0.6,0,1.2,0.3,1.5,0.9c0.3,0.6,0.3,1.2,0,1.8l-3.1,5.4c-0.3,0.6-0.9,0.9-1.5,0.9
        c-0.6,0-1.2-0.3-1.5-0.9L5.4,4.1c-0.3-0.6-0.3-1.2,0-1.8S6.3,1.5,7,1.5v-1C6,0.5,5.1,1,4.6,1.9s-0.5,1.9,0,2.8L7.7,10
        c0.4,0.7,1.1,1.2,1.9,1.3V14c0,2.5-1.5,4.6-3.4,4.6S2.9,16.5,2.9,14v-3.1C4,10.7,4.9,9.7,4.9,8.5c0-1.3-1.1-2.4-2.4-2.4S0,7.2,0,8.5
        c0,1.2,0.8,2.2,1.9,2.4V14c0,3.1,1.9,5.6,4.3,5.6c2.4,0,4.3-2.5,4.3-5.6v-2.6c0.8-0.1,1.5-0.6,1.9-1.3l3.1-5.4
        C16.1,3.8,16.1,2.7,15.6,1.9z"/>
    </symbol>

    <symbol id="iconFormUser" viewBox="0 0 612 612" style="enable-background:new 0 0 612 612;" xml:space="preserve">
      <path d="M612,306C612,137.4,474.6,0,306,0S0,137.4,0,306c0,92.9,42.1,176.4,107.7,232.6c0.8,0.8,1.6,1.6,3.1,2.3
        c53.1,44.5,121,71.1,196,71.1c73.4,0,141.3-26.5,194.4-69.5c3.1-0.8,5.5-3.1,7-5.5C571.5,480.1,612,398.1,612,306z M28.1,306
        C28.1,153,153,28.1,306,28.1S584,153,584,306c0,75-29.6,142.8-78.1,192.8c-7.8-36.7-31.2-99.2-103.1-139.7
        c16.4-20.3,25.7-46.8,25.7-75c0-67.1-54.6-121.8-121.8-121.8S185,217.1,185,284.2c0,28.1,10.1,53.8,25.7,75
        c-72.5,40.5-95.9,103-102.9,139.7C58.5,449.7,28.1,381,28.1,306z M212.4,284.9c0-51.5,42.1-93.7,93.7-93.7s93.7,42.1,93.7,93.7
        s-42.1,93.7-93.7,93.7S212.4,336.5,212.4,284.9z M132.7,523c1.6-22.6,14-99.2,98.4-142.1c21.1,16.4,46.8,25.7,75,25.7
        s54.6-10.1,75.8-26.5c83.6,42.9,96.8,117.9,99.2,142.1c-47.6,38.2-108.5,61.7-174.1,61.7C240.5,584,180.3,561.3,132.7,523z"/>
    </symbol>

    <symbol id="iconFeatureWrap" preserveAspectRatio="xMinYMin meet"
viewBox="0 0 113 113">
      <path fill-rule="evenodd" stroke-width="2px"
       d="M109.408,33.731 L110.007,77.784 L79.265,109.358 L35.190,109.958 L3.600,79.232 L3.000,35.178 L33.742,3.604 L77.818,3.005 L109.408,33.731 Z"/>
     </symbol>

    <symbol id="iconFeature1" viewBox="0 0 434 434" style="enable-background:new 0 0 434 434;" xml:space="preserve">
    <path d="M10.5,391H27v35.2c0,2.1,0.8,4.1,2.2,5.5c1.5,1.5,3.5,2.3,5.5,2.2h84.5c2.1,0,4.1-0.8,5.5-2.2c1.5-1.5,2.3-3.5,2.2-5.5V391
      h180v35.2c0,2.1,0.8,4.1,2.2,5.5c1.5,1.5,3.5,2.3,5.5,2.2h84.5c2.1,0,4.1-0.8,5.5-2.2c1.5-1.5,2.3-3.5,2.2-5.5V391h16.5
      c4.4,0,7.5-3.8,7.5-8.2V7.7c0.1-2-0.6-4-2.1-5.5c-1.4-1.5-3.4-2.3-5.4-2.2h-413C6.1,0,2,3.3,2,7.7v375C2.2,387.3,5.9,390.9,10.5,391
      z M111,418H43v-27h68V418z M391,418h-68v-27h68V418z M18,16h397v359H18V16z"/>
    <path d="M401,38c0-4.4-3.6-8-8-8H40c-4.4,0-8,3.6-8,8v265c0,4.4,3.6,8,8,8h353c4.4,0,8-3.6,8-8V38z M48,46h337v249H48V46z"/>
    <path d="M204,147L204,147c-4.5-22.2-20.7-36.5-41.2-36.5c-9.5,0-19.5,3.2-29.3,9.3c-9.9-6.4-19.9-9.6-29.6-9.6
      c-20.7,0-36.8,14.5-41.1,36.8c-5.9,30.6,12.3,71.1,66.1,92.5c0.1,0.1,0.3,0.1,0.4,0.2c2.7,1,5.6,1,8.3,0c0.2-0.1,0.3-0.1,0.5-0.2
      c24.4-9.9,43.4-24.5,54.9-42.2C203.3,181.3,207.2,163.5,204,147z M133.4,224c-44.2-18.1-59.5-50.1-54.9-74
      c2.8-14.7,12.5-23.8,25.4-23.8c7.6,0,16.2,3.4,24.8,9.7c2.8,2.1,6.6,2.1,9.5,0.1c8.6-6.2,17.1-9.5,24.7-9.5c12.8,0,22.6,9,25.5,23.6
      C192.9,173.7,177.6,205.6,133.4,224z"/>
    <path d="M366.9,163c-4.2-1.5-8.7,0.7-10.2,4.9l-12.4,35.1l-14-85.9c-1.1-6.6-6.7-11.2-13.7-11.1s-12.5,4.7-13.4,11.3l-11.6,81.2
      L273,143.1c-2.1-5.6-7.4-9.3-13.4-9.1c-6,0.2-11.1,4.1-12.9,9.8l-19.2,70.7l-8.5-17.3c-1.2-2.6-3.8-4.3-6.7-4.5
      c-2.9-0.2-5.6,1.2-7.2,3.6c-1.6,2.4-1.8,5.5-0.5,8l12.5,25.3c2.1,4.3,6.5,7,11.3,6.9c0.4,0,0.9,0,1.3-0.1c5.2-0.4,9.5-4,10.9-9
      l19.6-72.3l20.8,62c1.9,5.5,7.4,8.9,13.1,8.3c5.7-0.4,10.4-4.7,11.3-10.4l11.5-80.7l13.8,84.4c0.9,5.6,5.6,9.8,11.2,10.2
      c5.7,0.6,11.1-2.7,13.1-8.1l16.8-47.5C373.3,169.1,371.1,164.5,366.9,163z"/>
    </symbol>

    <symbol id="iconFeature2" viewBox="0 0 448 378" style="enable-background:new 0 0 448 378;" xml:space="preserve">
      <path d="M46.3,378h355.5c25.4,0,46.3-21.1,46.3-46.5V116.9c0-25.4-20.9-45.9-46.3-45.9h-173L185,17.2C176.4,6.4,163.3,0.1,149.4,0
        H46.3C20.9,0,0,21.1,0,46.5v285.1C0,356.9,20.9,378,46.3,378z M432,116.9v214.6c0,16.5-13.7,30.5-30.3,30.5H67V116.9
        C67,100.4,80.9,87,97.4,87h304.3C418.3,87,432,100.4,432,116.9z M16,46.5C16,29.9,29.7,16,46.3,16h103.1c9.1,0.1,17.6,4.3,23.2,11.3
        L208.1,71H97.4C72.1,71,51,91.5,51,116.9V362h-4.7C29.7,362,16,348.1,16,331.5V46.5z"/>
      <path d="M156.3,229.3c0.7,3.8,4,6.6,7.9,6.7H199v41.5c0,31.2,25.3,56.5,56.5,56.5s56.5-25.3,56.5-56.5v-61.3
        c12.6-4.2,20.3-16.9,18.2-30c-2.1-13.1-13.4-22.7-26.7-22.8c-15,0-27.2,12.1-27.2,27.1c0.1,12.1,8.1,22.7,19.7,26.1v60.9
        c0,22.4-18.1,40.5-40.5,40.5S215,299.8,215,277.5V236h35.5c3.9,0,7.2-2.8,7.9-6.7l15.3-84.8c0.4-2.3-0.2-4.7-1.7-6.6
        c-1.5-1.8-3.8-2.9-6.1-2.9H252v-3c0-4.4-3.6-8-8-8s-8,3.6-8,8v19c0,2.1,0.8,4.2,2.3,5.7c1.5,1.5,3.5,2.3,5.7,2.3
        c4.4-0.1,7.8-3.6,8-8h4.2l-12.4,69h-72.9l-12.4-69h4.5c0.2,4.3,3.7,7.8,8,8c2.1,0,4.2-0.8,5.7-2.3c1.5-1.5,2.3-3.5,2.3-5.7v-19
        c0-4.4-3.6-8-8-8s-8,3.6-8,8v3h-14.1c-2.4,0-4.6,1.1-6.1,2.9c-1.5,1.8-2.2,4.3-1.7,6.6L156.3,229.3z M292.5,190.5
        c0-6.1,5-11.1,11.1-11.1c6.1,0,11.1,5,11.1,11.1s-5,11.1-11.1,11.1C297.5,201.6,292.5,196.6,292.5,190.5z"/>
    </symbol>

    <symbol id="iconFeature3" viewBox="0 0 364.8 464" style="enable-background:new 0 0 364.8 464;" xml:space="preserve">
      <path d="M137.2,191.4c14.1,0,25.4-11.4,25.5-25.5c0-4.4-3.6-8-8-8s-8,3.6-8,8c0,3.4-1.8,6.6-4.7,8.3c-2.9,1.7-6.6,1.7-9.5,0
        c-2.9-1.7-4.7-4.9-4.7-8.3c0-4.4-3.6-8-8-8s-8,3.6-8,8C111.7,180,123.1,191.4,137.2,191.4z"/>
      <path d="M224.5,191.4c14.1,0,25.4-11.4,25.5-25.5c0-4.4-3.6-8-8-8s-8,3.6-8,8c0,3.4-1.8,6.6-4.7,8.3c-2.9,1.7-6.6,1.7-9.5,0
        c-2.9-1.7-4.7-4.9-4.7-8.3c0-4.4-3.6-8-8-8s-8,3.6-8,8C199,180,210.4,191.4,224.5,191.4z"/>
      <path d="M239,448h-49v-66.6l49.9-31.4h27.4c3.4-5.7,7-11,10.8-16H246v-12h42.2c5.3-5.8,10.8-11.2,16.3-16H246v-13
        c5.4-4,10.4-8.4,15.2-13.2c5.6-5.8,10.6-12.1,14.9-19c5.5,12.3,15.4,29.3,31.5,42.5c4.4-3.7,8.9-7.1,13.3-10.2
        c-24.1-17.9-33.9-47-35.3-51.7c5-13,7.5-26.7,7.4-40.6V155h2c4.4,0,8-3.6,8-8v-35c0-3.7-2.5-6.9-6.2-7.8
        c-2.7-44.8-31.5-84.5-73.4-100C216.1,1.4,208.2,0,200.3,0h-34.6c-7.9,0-15.7,1.4-23.1,4.2C100.7,19.7,71.9,59.3,69.2,104H65
        c-4.4,0-8,3.6-8,8v35c0,4.4,3.6,8,8,8h8v45.9c-0.1,13.8,2.4,27.6,7.3,40.5c-1.7,5.7-18.3,56.3-64.7,64.7c-4,0.8-6.9,4.4-6.5,8.5
        s3.8,7.3,7.9,7.3h103v12H77.9C34.9,334.1,0,368.9,0,412v43.8c0,4.5,3.5,8.1,8,8.2h232C239.4,458.6,239,453.2,239,448z M277,200.9
        c0.1,25.3-9.8,49.7-27.5,67.8c-17.9,18.4-41.5,28.6-66.5,28.6s-48.5-10.1-66.4-28.6c-17.7-18.1-27.6-42.5-27.5-67.8v-6.1l69.3,27.3
        c15.9,6.3,33.5,6.3,49.4,0l69.3-27.3V200.9z M277,177.7l-75.2,29.6c-12.1,4.8-25.6,4.8-37.7,0L89,177.7V155h188V177.7z M148.1,19.2
        c5.6-2.1,11.6-3.2,17.6-3.2h34.6c6,0,12,1.1,17.6,3.2C253.4,32.4,278,66,280.8,104H85.2C87.9,66,112.5,32.4,148.1,19.2z M73,139v-19
        h214v19H73z M54.9,306c18.2-13.5,29.1-32.1,35-45.2c4.3,6.9,9.3,13.3,14.9,19.1c4.8,4.7,9.8,9.1,15.2,13.2v13H54.9z M174,448H16v-36
        c0-34.2,27.7-61.9,61.9-62h47.8l48.3,31.3V448z M136,337.8v-35.3c29.7,14.3,64.3,14.3,94,0v35l-48.4,30L136,337.8z"/>
      <path d="M124.7,464h232c4.5-0.1,8-3.8,8-8.2V412c0-43-34.9-77.9-77.9-78h-42.1v-12h103c4.1-0.1,7.5-3.2,7.9-7.3s-2.5-7.8-6.5-8.5
        c-46.4-8.5-63-59-64.7-64.7c4.9-12.9,7.4-26.7,7.3-40.5V155h8c4.4,0,8-3.6,8-8v-35c0-4.4-3.6-8-8-8h-4.2
        c-2.8-44.7-31.5-84.3-73.4-99.8C214.8,1.4,207,0,199.1,0l-34.6,0c-7.9,0-15.8,1.4-23.2,4.2c-41.8,15.6-70.6,55.3-73.4,100
        c-3.6,0.9-6.1,4.1-6.2,7.8v35c0,4.4,3.6,8,8,8h2v45.9c-0.1,13.9,2.4,27.6,7.4,40.6c-1.4,4.7-11.1,33.8-35.3,51.7
        c4.4,3.1,8.9,6.5,13.3,10.2c16.1-13.2,26-30.2,31.5-42.5c4.3,6.8,9.3,13.2,14.9,19c4.8,4.7,9.8,9.1,15.2,13.2v13H60.2
        c5.5,4.8,11,10.2,16.3,16h42.2v12H86.5c3.8,5,7.4,10.3,10.8,16h27.4l49.9,31.4V448h-49C125.7,453.2,125.4,458.6,124.7,464z
         M87.8,194.8l69.3,27.3c15.9,6.3,33.5,6.3,49.4,0l69.3-27.3v6.1c0.1,25.3-9.8,49.7-27.5,67.8c-17.9,18.4-41.4,28.6-66.4,28.6
        s-48.6-10.1-66.5-28.6c-17.7-18.1-27.6-42.5-27.5-67.8V194.8z M87.8,155h188v22.7l-75.1,29.6c-12.1,4.8-25.6,4.8-37.7,0l-75.2-29.6
        V155z M279.6,104H83.9c2.8-38,27.4-71.6,62.9-84.8c5.6-2.1,11.6-3.2,17.6-3.2h34.6c6,0,12,1.1,17.6,3.2
        C252.3,32.4,276.8,66,279.6,104z M77.8,139v-19h214v19H77.8z M244.8,306v-13c5.4-4,10.4-8.4,15.2-13.2c5.6-5.8,10.6-12.2,14.9-19.1
        c5.9,13.1,16.8,31.7,35,45.2H244.8z M190.8,381.3l48.3-31.3h47.8c34.2,0.1,61.9,27.8,61.9,62v36h-158V381.3z M183.1,367.5l-48.4-30
        v-35c29.7,14.3,64.3,14.3,94,0v35.3L183.1,367.5z"/>
    </symbol>

    <symbol id="iconFeature4" viewBox="0 0 429.4 497" style="enable-background:new 0 0 429.4 497;" xml:space="preserve">
      <path d="M212.2,115.7c27.4,0,49.5-22.3,49.4-49.6V49.4c0-27.3-22.1-49.4-49.4-49.4s-49.4,22.1-49.4,49.4v16.7
        C162.7,93.5,184.8,115.7,212.2,115.7z M178.8,49.4c0-18.6,15.1-33.7,33.7-33.8c18.6,0,33.2,15.2,33.2,33.8v16.7
        c0,18.5-15,33.5-33.5,33.5s-33.5-15-33.5-33.5V49.4z"/>
      <path d="M421,210.4H305.6v-25c0-36.9-30-66.9-66.9-66.9h-47.9c-36.9,0-66.9,30-66.9,66.9v25H8.4C4,210.4,0,213.6,0,218v51.2
        c0.2,4.5,3.9,8.1,8.4,8.1H29v211.6c0,4.4,3.1,8.1,7.5,8.1h356.4c4.4,0,7.5-3.7,7.5-8.1V277.3H421c4.5,0,8.2-3.6,8.4-8.1V218
        C429.4,213.6,425.4,210.4,421,210.4z M139.8,185.4c0-28.1,22.8-50.9,50.9-50.9h47.9c28.1,0,50.9,22.8,50.9,50.9v25H139.8V185.4z
         M384.5,481H44.9V277.3h339.5V481z M413.4,261.3H16v-35h397.4V261.3z"/>
    </symbol>

    <symbol id="iconFeature5" viewBox="0 0 473.8 496" style="enable-background:new 0 0 473.8 496;" xml:space="preserve">
      <path d="M465.8,286.2L296.1,286H292V138h4.1c2.1,0.1,4.1-0.7,5.6-2.1c1.5-1.4,2.3-3.4,2.3-5.5V99.7c0-2.1-0.8-4.1-2.3-5.5
        c-1.5-1.5-3.5-2.2-5.6-2.2h-55.8c0-1,0.1-2.3,0.1-3.5c0-48.8-39.6-88.4-88.4-88.4H152c-48.8,0-88.3,39.5-88.4,88.3
        c0,1.2,0,1.7,0.1,3.7H8.2c-2.1-0.1-4.2,0.7-5.7,2.2C1,95.6,0.1,97.6,0,99.7v30.7c0,4.4,3.8,7.6,8.2,7.6H12v148H8.2
        c-4.5,0.1-8.1,3.7-8.2,8.2v30.7c0.1,4.5,3.7,8.1,8.2,8.1H12v155c0.1,4.5,3.8,8,8.2,8h263.8c0.2,0,0.3,0,0.5,0l50.9-0.2
        c0.8,0.2,1.6,0.3,2.4,0.2h60.3c0.8,0.1,1.6,0,2.4-0.2l54.9,0.2c2.1,0,4.1-0.8,5.6-2.3c1.5-1.5,2.3-3.5,2.4-5.6l0.1-155.1h2.3
        c4.4,0,8-3.6,8-8l0-30.7c0-2.1-0.8-4.2-2.3-5.7C469.9,287,467.9,286.2,465.8,286.2z M457.7,316.9L304,316.9v-14.7l153.7,0.1
        L457.7,316.9z M16,317v-15h272.1v15H16z M170,286h-37v-81h37V286z M288,108v14h-54.4c2.1-4.5,3.7-9.2,4.7-14H288z M152,16L152,16
        c29.3,0,55.8,17.6,66.9,44.7c11.2,27.1,5,58.2-15.8,78.9c-13.5,13.7-32,21.4-51.2,21.4h-0.1c-19.3-1-37.5-7.8-51.2-21.5
        C80,118.8,73.8,87.6,85.1,60.6C96.3,33.6,122.7,16,152,16z M16,108h49.8c1,4.8,2.6,9.5,4.7,14H16V108z M28,138h51.3
        c2.8,4.6,6.2,8.9,10.1,12.6c16.7,16.7,38.9,25.4,62.5,26.4h0.1c23.5-0.1,46-9.6,62.5-26.3c3.9-3.8,7.4-8.1,10.2-12.7H276v148h-90
        v-88.9c0-4.4-3.1-8.1-7.6-8.1h-53.5c-4.4,0.1-8,3.7-7.9,8.1V286H28V138z M28,333h248v147H28V333z M390,480l-44,0v-61h44V480z
         M447.3,480l-41.4,0v-69.2c0-2.1-0.8-4.1-2.2-5.6c-1.5-1.5-3.5-2.3-5.6-2.3h-60.3c-2.1,0-4.1,0.8-5.6,2.3c-1.5,1.5-2.3,3.5-2.3,5.6
        V480l-38,0V333h4.1c0.2,0,0.4-0.1,0.6-0.1l150.7,0L447.3,480z"/>
      <path d="M250,376c0-4.4-3.6-8-8-8H62c-4.4,0-8,3.6-8,8v66c0,4.4,3.6,8,8,8h180c4.4,0,8-3.6,8-8V376z M234,434H70v-50h164V434z"/>
      <path d="M102,201c0-4.4-3.6-8-8-8H47c-4.4,0-8,3.6-8,8v38c0,4.4,3.6,8,8,8h47c4.4,0,8-3.6,8-8V201z M86,231H55v-22h31V231z"/>
      <path d="M264,201c0-4.4-3.6-8-8-8h-47c-4.4,0-8,3.6-8,8v38c0,4.4,3.6,8,8,8h47c4.4,0,8-3.6,8-8V201z M217,209h32v22h-32V209z"/>
      <path d="M111.4,107.8l20.8,0l0,20.8c0,4.4,3.6,8.1,8,8.1l23.5,0.2h0c2.1-0.1,4.2-1,5.7-2.5c1.5-1.6,2.3-3.7,2.3-5.8l0-20.8l20.8,0.1
        h0c4.4,0,8-3.6,8-8.1l0-23.6c0-2.2-0.8-4.3-2.3-5.8c-1.5-1.5-3.5-2.5-5.7-2.5h-20.8l0-20.6c0-2.1-0.8-4.1-2.3-5.5
        c-1.5-1.5-3.6-2.2-5.7-2.2L140.3,40h0c-2.1-0.1-4.1,0.6-5.7,2.1c-1.5,1.4-2.3,3.3-2.3,5.4l0,20.7L111.5,68h0c-4.4,0.1-8,3.7-8,8.1
        l0,23.6C103.4,104.2,107,107.8,111.4,107.8z M119.5,84.1l20.8-0.1h0c2.1,0,4.1-0.8,5.6-2.2c1.5-1.5,2.4-3.5,2.4-5.6l0-20.6l7.5,0
        l0,20.8c0,4.4,3.6,8,8,8l20.8,0v7.5L163.7,92h0c-2.1,0-4.1,0.8-5.7,2.2c-1.5,1.5-2.3,3.5-2.3,5.6l0,20.8h-7.5l0-20.8
        c0-4.4-3.6-8-8-8l-20.8-0.1L119.5,84.1z"/>
    </symbol>

    <symbol id="iconFeature6" viewBox="0 0 496 496" style="enable-background:new 0 0 496 496;" xml:space="preserve">
      <path d="M82.5,66.2c-11.6,11.6-19.8,26.1-23.8,42c-1.8,7.2-2.7,14.5-2.7,21.9V144h16v-13.8c0-6.1,0.8-12.2,2.2-18.1
        c3.3-13.1,10-25,19.6-34.6l7.8-7.8L90.4,58.4L82.5,66.2z"/>
      <path d="M256.8,348.4l14.3,7.1l2.9-5.9c3-5.9,6.9-11.3,11.6-16s10.1-8.6,16-11.6l5.9-2.9l-7.1-14.3l-5.9,2.9
        c-7.5,3.7-14.3,8.6-20.2,14.6c-5.9,5.9-10.8,12.7-14.6,20.2L256.8,348.4z"/>
      <path d="M221.6,322.3c-5.9-5.9-12.7-10.8-20.2-14.6l-5.9-2.9l-7.1,14.3l5.9,2.9c5.9,3,11.3,6.9,16,11.6c4.7,4.7,8.6,10.1,11.6,16
        l2.9,5.9l14.3-7.1l-2.9-5.9C232.5,335.1,227.6,328.3,221.6,322.3z"/>
      <path d="M413.5,66.2l-7.8-7.9l-11.3,11.3l7.9,7.8c9.5,9.5,16.3,21.5,19.6,34.6c1.5,5.9,2.2,12,2.2,18.1V144h16v-13.8
        c0-7.4-0.9-14.8-2.7-21.9C433.3,92.3,425,77.8,413.5,66.2z"/>
      <path d="M432,14.1C420.7,5,406.4,0,392,0c-19.5,0-37.7,8.7-49.9,23.9c-18.8,23.5-18.2,56.6-0.6,79.3l-11.9,11.9
        c-10.5,10.5-19.8,22.2-27.7,34.8C282.3,181.2,272,217.2,272,254v7.1c-2.7,1.3-5.4,2.9-7.8,4.7L248,278l-16.2-12.1
        c-2.4-1.8-5.1-3.4-7.8-4.7V254c0-36.8-10.3-72.8-29.8-104.1c-7.9-12.6-17.2-24.3-27.7-34.8l-11.9-11.9c17.6-22.8,18.2-55.9-0.6-79.3
        C141.7,8.7,123.5,0,104,0C89.6,0,75.3,5,64,14.1C57.4,19.4,0,67.6,0,144c0,70.9,35.5,110,42.6,117.2C54.8,273.3,70.9,280,88,280
        c17,0,33-6.6,45-18.5c24.2-24,25.2-63.6,2.4-88.5c-1.2-1.7-6-9.3-7.1-23l15.6,18.2c11.3,13.2,19.8,28.2,25.2,44.6
        c4.5,13.6,6.8,27.8,6.8,42.1v8.1c-14.4,8.6-24,24.3-24,42.2c0,5.3,0.8,10.5,2.5,15.6l6.1,18.3c5.5,16.4,14.8,31.6,27.1,43.8
        c10.3,10.3,22.7,17.6,36.3,21.5V496h48v-91.4c13.6-4,26-11.3,36.3-21.5c12.2-12.2,21.6-27.4,27.1-43.8l6.1-18.3
        c1.7-5,2.5-10.3,2.5-15.6c0-17.9-9.7-33.6-24-42.2v-8.1c0-4.7,0.2-9.4,0.7-14.1l-15.9-1.7c-0.6,5.2-0.8,10.5-0.8,15.8v2
        c-3-0.6-6.1-0.9-9.3-0.9h-0.9c-1.9,0-3.8,0.2-5.8,0.5V254c0-33.8,9.5-66.9,27.4-95.6c7.2-11.6,15.8-22.3,25.4-31.9l11.8-11.8
        c3.2,3.2,7.9,8.7,11.3,15.1l-24,28c-12.6,14.7-22.1,31.5-28.3,49.9c-1.6,4.7-2.9,9.6-4,14.5l15.6,3.5c1-4.4,2.2-8.7,3.6-13
        c5.5-16.4,14-31.4,25.2-44.6l15.6-18.2c-1.1,13.7-5.9,21.3-7.1,23c-22.9,24.9-21.9,64.5,2.4,88.5C375,273.4,391,280,408,280
        c17.1,0,33.2-6.7,45.3-18.8c7.1-7.1,42.7-46.3,42.7-117.2C495.9,67.6,438.6,19.4,432,14.1z M122.8,182.8l0.5,0.6
        c17.4,18.7,16.7,48.5-1.6,66.6c-9.1,9-21.1,13.9-33.8,13.9c-12.9,0-24.9-5-34-14.1c-6.3-6.3-38-41.2-38-105.9
        C16,75.1,68,31.3,74,26.6C82.5,19.8,93.2,16,104,16c14.6,0,28.3,6.5,37.4,17.9c16.3,20.4,13.2,50.4-7,67.2
        c-2.3,2-22.4,20.5-22.4,42.8C112,166.8,120.3,179.5,122.8,182.8z M156.1,157.8l-24-28c3.4-6.5,8.2-12,11.3-15.1l11.8,11.8
        c9.6,9.6,18.2,20.4,25.4,31.9c17.9,28.7,27.4,61.7,27.4,95.6v2.4c-1.9-0.2-3.8-0.5-5.8-0.5h-0.9c-3.2,0-6.3,0.3-9.3,0.9v-2
        c0-16.1-2.6-32-7.7-47.2C178.2,189.3,168.7,172.5,156.1,157.8z M256,480h-16v-72.4c2.6,0.2,5.3,0.4,8,0.4s5.4-0.1,8-0.4V480z
         M293.8,272h0.9c18.4,0,33.3,14.9,33.3,33.3c0,3.6-0.6,7.1-1.7,10.5l-6.1,18.3c-4.7,14.1-12.7,27.1-23.2,37.6
        c-13.1,13.1-30.5,20.3-49,20.3c-18.5,0-35.9-7.2-49-20.3c-10.5-10.5-18.5-23.5-23.2-37.5l-6.1-18.3c-1.1-3.4-1.7-7-1.7-10.5
        c0-18.4,14.9-33.3,33.3-33.3h0.9c7.2,0,14.2,2.4,20,6.7L248,298l25.8-19.3C279.5,274.4,286.6,272,293.8,272z M442,249.9
        c-9.1,9.1-21.1,14.1-34,14.1c-12.7,0-24.7-4.9-33.8-13.9c-18.3-18.1-19-47.9-1.6-66.6l0.5-0.6c2.5-3.4,10.8-16.1,10.8-38.9
        c0-22.3-20.1-40.8-22.6-43c-20.1-16.6-23.1-46.7-6.8-67C363.7,22.5,377.3,16,392,16c10.9,0,21.5,3.8,30.1,10.6
        c5.9,4.8,57.9,48.5,57.9,117.4C479.9,208.6,448.3,243.5,442,249.9z"/>
    </symbol>

    <symbol id="iconPDF" viewBox="0 0 386 410.9" style="enable-background:new 0 0 386 410.9;" xml:space="preserve">
      <defs>
        <rect id="SVGID_1_" width="385.9" height="410.9"/>
      </defs>
      <clipPath id="SVGID_2_">
        <use xlink:href="#SVGID_1_"  style="overflow:visible;"/>
      </clipPath>
      <path class="st0" d="M383.8,111.2L279.4,2.7c-1.5-1.5-3.5-2.4-5.7-2.4H118.2c-17.4,0-31.6,14.2-31.6,31.6v110.2h-63
        c-13,0-23.6,10.6-23.6,23.6v118.2c0,13,10.6,23.6,23.6,23.6h63v70.9c0,17.4,14.2,31.5,31.6,31.5h236.2c17.4,0,31.6-14.1,31.6-31.5
        V116.6C386,114.6,385.2,112.6,383.8,111.2L383.8,111.2z M275.7,21.6l85.7,89h-85.7V21.6z M23.6,291.8c-4.3,0-7.9-3.5-7.9-7.9
        V165.7c0-4.3,3.5-7.9,7.9-7.9h212.7c4.3,0,7.9,3.5,7.9,7.9v118.2c0,4.3-3.5,7.9-7.9,7.9H23.6z M370.2,378.4
        c0,8.7-7.1,15.7-15.8,15.7H118.2c-8.7,0-15.8-7.1-15.8-15.7v-70.9h133.9c13,0,23.6-10.6,23.6-23.6V165.7c0-13-10.6-23.6-23.6-23.6
        H102.4V31.9c0-8.7,7.1-15.8,15.8-15.8h141.7v102.4c0,4.4,3.5,7.9,7.9,7.9h102.4V378.4z M370.2,378.4"/>

      <path d="M94.2,200.2c-2.6-3.4-5.9-5.6-9.7-6.6c-2.5-0.7-7.9-1-16.2-1H46.3v67.7h13.7v-25.5h8.9c6.2,0,10.9-0.3,14.2-1
        c2.4-0.5,4.8-1.6,7.1-3.2c2.3-1.6,4.2-3.8,5.7-6.7c1.5-2.8,2.3-6.3,2.3-10.5C98.1,208,96.8,203.6,94.2,200.2L94.2,200.2z
         M82.5,218.9c-1,1.5-2.5,2.6-4.3,3.3c-1.8,0.7-5.4,1.1-10.8,1.1h-7.5V204h6.6c4.9,0,8.2,0.2,9.8,0.5c2.2,0.4,4,1.4,5.5,3
        c1.4,1.6,2.2,3.6,2.2,6.1C84,215.6,83.5,217.4,82.5,218.9L82.5,218.9z M82.5,218.9"/>
      <path d="M163.8,211.1c-1.5-4.3-3.6-8-6.5-11c-2.8-3-6.2-5.1-10.2-6.2c-3-0.9-7.2-1.3-12.9-1.3h-25v67.7H135c5,0,9.1-0.5,12.1-1.4
        c4-1.3,7.2-3.1,9.6-5.4c3.1-3,5.6-7,7.2-12c1.4-4,2.1-8.8,2.1-14.4C166,220.7,165.2,215.4,163.8,211.1L163.8,211.1z M150.5,238.9
        c-0.9,3-2.1,5.2-3.6,6.5c-1.5,1.3-3.3,2.3-5.5,2.8c-1.7,0.4-4.4,0.6-8.3,0.6h-10.2V204h6.1c5.6,0,9.3,0.2,11.2,0.6
        c2.6,0.6,4.7,1.6,6.3,3.2c1.7,1.6,3,3.8,3.9,6.6c0.9,2.8,1.4,6.8,1.4,12C151.9,231.7,151.4,235.8,150.5,238.9L150.5,238.9z
         M150.5,238.9"/>
      <path d="M224,204v-11.4h-46.4v67.7h13.7v-28.8h28.2v-11.4h-28.2v-16H224z M224,204"/>
    </symbol>

    <symbol id="iconFilter" viewBox="0 0 58 65" version="1.1" xmlns="http://www.w3.org/2000/svg" xmlns:xlink="http://www.w3.org/1999/xlink" xmlns:sketch="http://www.bohemiancoding.com/sketch/ns">
      <g id="Page-1" stroke="none" stroke-width="1" fill="none" fill-rule="evenodd" sketch:type="MSPage">
        <g id="Filter" sketch:type="MSLayerGroup" transform="translate(1.000000, 1.000000)" stroke="#253574" stroke-width="2">
            <path d="M54,0 L2,0 C0.9,0 0,0.9 0,2 L21,33 C21,33.7 21.4,34.4 22,34.7 L22,62 L34,55 L34,34.7 C34.6,34.4 35,33.7 35,33 L56,2 C56,0.9 55.1,0 54,0 L54,0 Z" id="Shape" sketch:type="MSShapeGroup"></path>
            <path d="M7,4 L23,28" id="Shape" sketch:type="MSShapeGroup"></path>
        </g>
      </g>
    </symbol>

    <symbol id="iconFormMessage" viewBox="0 0 477.36 477.6">
      <path d="M388.36,388.49C348.36,428.49 295.16,450.49 238.66,450.49C200.86,450.49 163.76,440.39 131.46,421.39C129.36,420.19 126.96,419.49 124.66,419.49C121.76,419.49 118.76,420.49 116.36,422.3C85.76,445.99 54.96,449.49 41.46,449.8C57.56,437.8 71.06,419.19 82.36,393.3C84.46,388.49 83.56,382.89 80.06,378.89C6.06,295.3 9.96,167.89 88.96,88.89C128.96,48.89 182.16,26.89 238.66,26.89C295.16,26.89 348.36,48.89 388.36,88.89C470.96,171.6 470.96,305.99 388.36,388.49M407.46,69.99C362.36,24.89 302.46,0 238.66,0C174.86,0 114.96,24.89 69.86,69.99C-17.13,156.99 -23.43,295.99 54.06,390.19C43.36,412.1 30.76,426.69 16.46,433.69C7.76,437.99 2.86,447.39 4.26,456.99C5.76,466.69 13.16,474.19 22.86,475.69C28.16,476.49 33.86,476.99 39.76,476.99C69.06,476.99 99.86,466.89 125.56,449.19C160.16,467.8 199.06,477.6 238.66,477.6C302.46,477.6 362.36,452.8 407.46,407.69C452.56,362.6 477.36,302.6 477.36,238.89C477.36,175.19 452.56,115.1 407.46,69.99"/>
      <path d="M338.66,160L138.66,160C131.16,160 125.16,166 125.16,173.5C125.16,181 131.16,187 138.66,187L338.66,187C346.16,187 352.16,181 352.16,173.5C352.16,166 346.06,160 338.66,160"/>
      <path d="M338.66,225.29L138.66,225.29C131.16,225.29 125.16,231.29 125.16,238.79C125.16,246.29 131.16,252.29 138.66,252.29L338.66,252.29C346.16,252.29 352.16,246.29 352.16,238.79C352.16,231.29 346.06,225.29 338.66,225.29"/>
      <path d="M338.66,290.6L138.66,290.6C131.16,290.6 125.16,296.6 125.16,304.1C125.16,311.6 131.16,317.6 138.66,317.6L338.66,317.6C346.16,317.6 352.16,311.6 352.16,304.1C352.16,296.6 346.06,290.6 338.66,290.6"/>
    </symbol>

    <symbol id="iconFormClinic" viewBox="0 0 512 512" style="enable-background:new 0 0 512 512;" xml:space="preserve">
      <path d="M437,75C388.7,26.6,324.4,0,256,0S123.3,26.6,75,75C26.6,123.3,0,187.6,0,256s26.6,132.7,75,181
        c48.4,48.4,112.6,75,181,75s132.7-26.6,181-75c48.4-48.4,75-112.6,75-181S485.4,123.3,437,75z M256,497C123.1,497,15,388.9,15,256
        S123.1,15,256,15s241,108.1,241,241S388.9,497,256,497z"/>
      <path d="M416.3,192.4h-23.8c-4.2,0-7.5,3.4-7.5,7.5c0,4.2,3.4,7.5,7.5,7.5h16.2v97.2h-96.7c-4.2,0-7.5,3.4-7.5,7.5v96.7h-97.2
        v-96.7c0-4.2-3.4-7.5-7.5-7.5h-96.7v-97.2h96.7c4.2,0,7.5-3.4,7.5-7.5v-96.7h97.2v96.7c0,4.2,3.4,7.5,7.5,7.5h80.4
        c4.2,0,7.5-3.4,7.5-7.5c0-4.2-3.4-7.5-7.5-7.5h-72.9V95.7c0-4.2-3.4-7.5-7.5-7.5H199.9c-4.2,0-7.5,3.4-7.5,7.5v96.7H95.7
        c-4.2,0-7.5,3.4-7.5,7.5v112.2c0,4.2,3.4,7.5,7.5,7.5h96.7v96.7c0,4.2,3.4,7.5,7.5,7.5h112.2c4.2,0,7.5-3.4,7.5-7.5v-96.7h96.7
        c4.2,0,7.5-3.4,7.5-7.5V199.9C423.8,195.7,420.5,192.4,416.3,192.4z"/>
    </symbol>

    <symbol id="iconFormCity" viewBox="0 0 347.8 442" style="enable-background:new 0 0 347.8 442;" xml:space="preserve">
      <path d="M173.9,0C78,0,0,78,0,173.9c0,31.4,8.1,64.7,24.1,99.1c12.6,27.1,30.2,55,52.2,82.7c37.3,47.1,74,77.4,75.6,78.7
        c6,4.9,13.8,7.6,22.1,7.6s16.1-2.7,22.1-7.6c1.5-1.3,38.3-31.6,75.6-78.7c22-27.8,39.5-55.6,52.2-82.7c16-34.3,24.1-67.7,24.1-99.1
        C347.8,78,269.8,0,173.9,0z M256.1,343c-36,45.5-72.5,75.7-72.8,76c-2.4,1.9-5.8,3.1-9.4,3.1s-7-1.1-9.4-3.1
        C163.1,417.8,20,299,20,173.9C20,89,89,20,173.9,20s153.9,69,153.9,153.9C327.8,238.7,288.8,301.6,256.1,343z"/>
      <path d="M173.9,81.4c-51,0-92.5,41.5-92.5,92.5c0,51,41.5,92.5,92.5,92.5s92.5-41.5,92.5-92.5C266.4,122.9,224.9,81.4,173.9,81.4z
         M173.9,246.4c-40,0-72.5-32.5-72.5-72.5s32.5-72.5,72.5-72.5s72.5,32.5,72.5,72.5S213.8,246.4,173.9,246.4z"/>
    </symbol>

    <symbol id="iconFeaturerrr2">

    </symbol>
</svg>
