<?xml version="1.0" encoding="utf-8"?>
<!-- Generator: Adobe Illustrator 22.1.0, SVG Export Plug-In . SVG Version: 6.00 Build 0)  -->
<svg version="1.1" id="Layer_1" xmlns="http://www.w3.org/2000/svg" xmlns:xlink="http://www.w3.org/1999/xlink" x="0px" y="0px"
	 viewBox="0 0 928.5 138.8" style="enable-background:new 0 0 928.5 138.8;" xml:space="preserve">
<style type="text/css">
	.st0{fill:#fff;}
</style>
<path id="XMLID_20185_" class="st0" d="M4.4,138.8l924.1-2.6L923.6,0.4l-4.7,0.7L913.4,0l-2.6,0.7l-0.7,1.6l-1.4,0L906,2.4l-1.5,0
	c0,0-1.2-1-2.6,0.1c-1.4,1.1-6,0.9-6,0.9s-3,1.2-3.3,1.3c-0.3,0-2-1.1-3.6-0.7c-1.7,0.4-5.5-0.1-5.8,1c-0.3,0.9-1.9,1.3-2.2,1.3
	c0.3-0.1-0.8-0.9-1.4-0.9c-0.3,0-0.9,0.8-1.5,1.3L876.9,7l0,0c-0.4-1.2-2.3-1.1-2.3-1.1l-2.4,1.8L870,6.8l-0.6,0.9l-0.9,0l-0.7,0.5
	l-2.2,0.1l-0.7,0l-1.5-0.7c0,0-0.9,0.5-1.2,0.8c-0.3,0.2-0.6,0.7-0.8,0.7c-0.2,0-1.9-1.1-1.9-1.1l-0.8,0.7l-1.3-0.1l-1,0.7
	c0,0-0.7,0-1.2,0c-0.6,0-0.5,1.1-1.5,0.4c-1-0.7-2.1-0.7-2.1-0.7s-1.9,1.8-2.2,1.8c-0.3,0-2.9-0.5-2.9-0.5s-0.6,0-1.3,0.2
	c-0.7,0.2-2.3,1.2-2.9,1.3l-1.4,0.2c-0.3,0-0.6,0.1-0.9,0.1c-0.8,0.1-1.3-1.1-2.9-0.4c-1.6,0.7-2.7,1.2-3,1.3h0
	c-0.4,0.1-1.2-0.2-1.5,0c-0.3,0.2-4.4,0.8-4.9,0.9l-0.1,0l-3.6,0.1c0,0,0.4,0.3-0.4,0.4h0c-0.8,0.1-2.3,0.1-2.3,0.1
	s-2.1,0.6-2.3,0.6l0,0c-0.3,0-2,0.2-2.7,0.1c-0.7-0.2-1.6,0.2-2.5,0.2c-0.9-0.1-2.3,0.1-2.6,0.1c-0.3,0-1,0.1-1.5,0.6
	c-0.5,0.5-1.1,0.6-1.6,0.6c-0.4,0.1-3.3,0.1-3.3,0.1l-2.7,0.7l-2.2-0.6l-2.6,0.1l0.7,0.6l-2.9,0.1l-2.3,0.1l-1.6,0.9l-1.1-0.1
	l-2.3,0.9l-1.9-0.6l-2.2,0.8l-1.2,0l-1.5-0.6l-0.5,0.7l-1,1l-1.8-0.9l-0.7,0.5l-1.6,0.4l-2.4-0.2l-0.4,0.7l-1.3-0.2l-0.8,0.9
	l-0.7-0.5l-1.9-0.3l-0.3,0.7l-1.7,0l-0.2-1.4l-1.4,0.3l-1.2,1.1l-0.2-1.5l-0.6,0.3l-0.7,0l-0.8,0l-0.9-0.3c0,0-0.5,0.4-0.6,0.3
	c-0.1-0.1-0.9-0.4-0.9-0.4s-0.4,0.7-0.7,0.1c-0.3-0.6-0.8-0.6-0.8-0.6l-0.7,0.8l0,0l-0.5-0.5l-1.3,2.2l-1.5-2.5l-0.5,0.3l-0.9-0.2
	c0,0-0.5,0.5-0.8,0.3c-0.2-0.3-0.2-0.3-0.8-0.4c-0.6-0.1-0.9,0.3-1.2-0.1c-0.2-0.3-0.9-0.4-1-0.3c-0.1,0-0.3,2.3-0.3,2.3l-1-0.1
	l-1.1-0.4l-1.1,0.2L743,21l-0.5,0.4l-1-0.5c0,0,0.2,0.5,0,0.3c-0.2-0.1-1-0.5-1-0.5l-0.7,0.3l-0.7-0.3l-1-0.1l-1.4,0.1
	c0,0-0.5,0.4-0.7,0.6l-0.2,0c0-0.3-0.6-0.9-0.6-0.9l-0.5,0.3l-1.4-0.4l-0.5-0.6l-0.5,0.5l-0.5-0.2l0-0.4l-0.9,0.9l-0.8-0.7l-1,0.3
	l-1.6-0.2c0,0-0.8-0.3-0.9-0.3c-0.1,0-1.1,0.5-1.1,0.5l-2.9-0.2l-0.5-0.9l-1.2,0.4l-2.2-0.4l-1.3,0.5l-2.3-1.2l-0.7,0.5l-1.8-0.2
	l-1.6,0.3c0,0,0.3,0.4-0.7-0.3c-1-0.7-1-0.7-1-0.7l-2.2,0.4l-2.9,0l-0.6-0.8l-1.3,0.6l-0.7-0.5l-2.7-0.4l-2.9,0.2
	c0,0-0.7-0.3-0.9-0.4c-0.1-0.1-1.6-0.1-1.6-0.1s-1.1,0-1.4-0.3c-0.3-0.3-0.7-0.1-1.1-0.1c-0.5,0-0.6,0.6-0.8,0.5
	c-0.1-0.1-1.4-0.4-1.4-0.4l-0.5-0.2l-1.3,0.4l-1.3-0.4l-1.2,0.3l-0.9-0.6l-1.3,0l-2.8,0.1l-0.7,0.4l-2.2-0.3l-1.4-0.5l-1.1,0.6
	l-1.4,0.5l-1.7-0.4l-1.4,0.3l-1.8,0c0,0-0.8-0.2-1-0.2c-0.2,0-0.9-0.3-0.9-0.3s-1.1,0.6-1.2,0.6c-0.1,0-1.8-0.2-1.8-0.2l-2.4,0.1
	l-4.5,0.4c0,0-0.4,0.2-0.6,0c-0.2-0.2-4.1-1.2-4.4-1.1c-0.2,0.1-2.4,1.1-2.6,1.1c-0.2,0-3.2,0.1-3.2,0.1l-5.7-0.8l-5.8,1.2l-5.7-1.2
	l-2.8,1.4l-10.9-1l-6.4,0.4l-3.5-3.1l-5.5-3.1l-3.2-2.8l-9.2-1.2l-1.6,1.6l-6.2,0.2l-0.1-2.9l-2.7,2l-6.9,1.2l-5.3-2L561,8.3
	l-8.8,1.1l-8.5-3l-5.3,3.4l-6.4-1l-3.7,0.1l-7.1,1.4l-11.3-1.9l-7.3,1.3l-8.5,7.6c0,0-9.9,4-18.6,3.3c-0.6,0-3.2-4.4-3.2-4.4
	l-6.9,5.1l-8.4-4.4l-5.8-0.3l-6.8-2.6l-3.9,0.1l-16.6,4.1l-4.2-2.7l-6.9,1.6l-2.4-5.7l-8.3,2.9l0.1,1.9l-6.6-2.2l-1,2.3L384.1,5.6
	l-2.1,3l-10.3,1.5c0,0-6-4.2-6.1-2.4c-0.1,1.7,0.1,4.3,0.1,4.3l-4.7-1.8l-1.6,1.8l-5-2.5l-3.3,3.6l-6.2-0.3l-2.8,1.5l-7.9,0.2
	l-6.3,2.3l-6.3,1.2l-9-1.1l-2.3,3.5l-1.9-2.1c0,0-2.2,2.2-2.7,2.3c-0.6,0.1-5.9-1.5-5.9-1.5l-1.1,1.7c0,0-4.7,0.4-5.4,0.2
	c-0.8-0.3-3.4,0.1-3.4,0.1s-6-4.8-6.9-3.2c-0.9,1.6-1.2,3.6-1.8,3.5c-0.6-0.1-5.1-1.5-5.1-1.5l-3.9,1.8l-4-1.4l-1.3,1.5l-2.9-1.2
	l-3.7,1.4l-1.2-2.5l-5.6,1l-1-2.2c0,0-2.2,1.3-2.8,1.3c-0.6,0-5.2,0.3-5.2,0.3l-3.6-2.2c0,0-2.3,3.4-2.9,3c-0.6-0.3-5.9-2.4-5.9-2.4
	l-3.7,2.4l-5.3-1.1l-2.8,1.8h0l-5.9-3l-6.2,0.4l-7.6-1.5l0,1.4c0,0-4.5-0.6-5.1-0.7c-0.6-0.2-8,1.6-8,1.6l-5.3-2.8l-1.9,3.4l-7-0.5
	l-0.9,1.8l-6.4-0.7l-3.2-0.9l-0.9,1.6l-2.8-0.8l-1.5,3.1l0,0l-7-4.6l-1.2,3l-5.9-1.2l-2,2.7l-6-1.4l-2.2,1.3l-3.8-0.8l-1.8,2
	l-4.5,1.3c0,0-3.3-3.1-3.9-3c-0.6,0.2-2.9,3.2-2.9,3.2l-3.4-1.1c0,0,0,1.3-0.7,1.2c-0.8-0.1-5.7-0.8-5.7-0.8l-4.1,1.1
	c0,0-3.5,1.7-4.1,1.4c-0.6-0.3-2.5-2-2.5-2s-0.7,2.5-1.2,2.1c-0.6-0.3-2.7-1.2-2.7-1.2s-1.2,2.9-2,1.3c-0.8-1.5-6.3-1.9-6.3-1.9
	c-0.8-1.4-2.3-1-2.3-1s-1.8,1.4-2.2,0.2c-0.4-1.2-3.4-1.6-3.4-1.6l-0.9,0.5l-6.9-0.1l-0.1-2.4l-8.1-0.5l-0.1-1.7l-1.8,0.7l-2.7-2
	l-9.5,0.5L43,16.2c0,0-3.1,1.8-3.1,1.1c0-0.7-2-2.5-2.5-2.5c-0.6,0-10.9-0.2-10.9-0.2l-0.1-1.6l-10.1-0.2l-0.1-2.3L6,9.2L1.5,7.9
	l0.7,3.6L0,11.1L4.4,138.8z"/>
</svg>
