<?xml version="1.0" encoding="utf-8"?>
<!-- Generator: Adobe Illustrator 22.1.0, SVG Export Plug-In . SVG Version: 6.00 Build 0)  -->
<svg version="1.1" id="Layer_1" xmlns="http://www.w3.org/2000/svg" xmlns:xlink="http://www.w3.org/1999/xlink" x="0px" y="0px"
	 viewBox="0 0 1216.4 569.4" style="enable-background:new 0 0 1216.4 569.4;" xml:space="preserve">
<style type="text/css">
	.st0{fill:#262212;}
	.st1{fill:#B5BD92;}
	.st2{fill:#A19775;}
	.st3{fill:#1D3A28;}
	.st4{fill:#395535;}
</style>
<path id="XMLID_38_" class="st0" d="M279.6,141.1c13.7,1.8-27.7-24.5-4.9-33c22.8-8.6,45.7-26.1,37.1,0c-8.6,26.1-62,10.6-8.6,26.1
	s103.1-15.1,91.7,33c-11.4,48.1-30.2,56.7-33.8,46.1c-3.7-10.6-3.2-30.4-2.4-38s10.2-34.6-13.5-13.4s-45.3,47.7-42.4,25.3
	c2.9-22.4,20-35.9,18.3-35.9s-31.1-12.3-51,20.8c-19.9,33-86.8,26.5-79.1-2.1c7.7-28.5,19.6-59.1,35.5-40.8
	c15.9,18.3,15.2,33,18.6,37.5c3.4,4.5,26.2,18.3,20.9-5.3C260.8,137.9,236.8,135.4,279.6,141.1z"/>
<path id="XMLID_19_" class="st1" d="M443.7,99.5c6.1-3.5-19.8-31.5,0-39.6c19.8-8,51.3-36.5,47-6.2c-4.3,30.3-37.1,35.9-19.2,41.4
	c17.9,5.6,76.7,3.7,82.2,16.7c5.6,13,38.3,16.1-21,39c-59.4,22.9-167.6,24.8-134.8,11.2s74.8-0.6,92.7-13.6
	c17.9-13,20.4-33.1-17.3-28C435.7,125.5,397.9,125.5,443.7,99.5z"/>
<path id="XMLID_41_" class="st2" d="M108.5,164.4c-42.7,11.6-34.7-64.4-2-52.7s32.3,31.8,33.5,37.8c1.2,6,54.2-13,64.3,5.2
	c10.1,18.3,23.7,50.4-0.4,48.1c-24.1-2.3-19.3-39.3-27.9-39.9c-8.6-0.7-24.2,4.1-27.1,19c-2.9,14.9-43.2,38.7-65.4,22.6
	c-22.2-16-54.2-39.7-29.7-45.5c24.4-5.8,25.2,7.1,38.1,14.9c12.9,7.8,19.9,13.4,26.2,7.4C124.4,175.3,133.9,157.5,108.5,164.4z"/>
<path id="XMLID_15_" class="st2" d="M166.9,51.9c0,0-33.3-4-35.6,8.6C129,73.2,161.7,82.3,172.6,76c10.9-6.3,57.5,2.9,55.8,10.9
	c-1.7,8-62.1,14.9-48.6,29.3c13.5,14.4,58.9,22.4,75,9.2c16.1-13.2,8-41.4,8-46.6c0-5.2,66.7-7.5,74.1-11.5c7.5-4,31-23.6,9.2-29.3
	c-21.8-5.7-47.1-9.8-65.5,5.2c-18.4,14.9-33.3,16.1-46,8c-12.6-8-31.6-24.2-44.3-18.4c-12.6,5.8-27.6,14.4-6.3,20.7
	S179.5,62.2,166.9,51.9z"/>
<path id="XMLID_14_" class="st3" d="M86.8,73.7c-5.4-0.2-26.1-6.3-19.2-10.8c6.9-4.5,33.3,0.3,37.6,1.8c4.2,1.5,0.6,6.2,3.9-3.7
	s48.4-19.1,50.5-9.8c2.1,9.3-10.8,10.8-22.2,12.6c-11.4,1.8-24.9,10.8,3.6,8.7c28.5-2.1,93.4,8.1,92.5,13.8
	c-0.9,5.7-43.3,0-57.4-2.1c-14.1-2.1,1.8,3.6,12.9,12.6c11.1,9,19,20.7,2.6,19.2c-16.4-1.5-21.2-23-31.1-24.6
	c-9.9-1.6-16.8,16.8-14.7,29.4c2.1,12.6-42.4,19.5-48.4,9.6c-6-9.9,31.5-13.8,33.7-20.4c2.1-6.6,12.6-20.6-8.1-18.6
	c-20.7,2-52.9-1-43.3-5.5c9.6-4.5,27.3-4.2,32.4-3.9C117.2,82.4,113,74.9,86.8,73.7z"/>
<path id="XMLID_17_" class="st2" d="M531.2,63.6c1.6,12.2-46.9-32.1-49.4-10c-2.6,22.1,6.3,27.5,23.2,28.5c17,1,42.4,16.5,30.6,22.4
	s-40.6,0.5-38.4,17c2.2,16.6,3.7,30.9,12.7,23.6c9-7.4,17.7-26.9,28.7-13.7c11,13.3,0.3,28.4,16.5,34.7c16.2,6.3,49.5,12.9,52.8,5.5
	c3.3-7.4-36.9-37.3-39.9-40.6c-3-3.3-11.1-12.9,1.8-19.6c12.9-6.6,24.7-31,14-35.4c-10.7-4.4-8.9-5.9-19.9,3
	c-11.1,8.9-19.1-2.2-18.2-7s2-21.4-3.9-22.5C536,48.5,528.3,40.4,531.2,63.6z"/>
<path id="XMLID_16_" class="st0" d="M372.9,57.2c-11.1-8.7-27.2-25.2-11.1-31c16.1-5.8,21-15.7,23.9,0c2.9,15.7-9.5,25.1,7,23.1
	c16.5-2.1,16.1-19,29.3-22.3s42.2,3.3,36.5,16.9c-5.6,13.6-34.5,12.8-35.3,19c-0.8,6.2,34.6,10.3,46.2,21.8
	c11.5,11.5,32.2,33.4,13.2,37.9c-19,4.5-89,11.1-87.8,0c1.2-11.1,51.9-19.4,47.8-26.8c-4.1-7.4-4.1-26.8-54.8-11.5
	c-50.7,15.3-107.2,18.1-91.5,4.9c15.7-13.2,6.2-23.5,44.5-20.2C379.1,72.4,372.9,57.2,372.9,57.2z"/>
<path id="XMLID_20_" class="st3" d="M282.5,109.3c-43.5,8-29.3-67,2.4-52.7c31.6,14.3,29.6,34.4,30.3,40.5
	c0.7,6.1,55.1-8.5,63.6,10.5c8.5,19.1,19.4,52.2-4.4,47.9c-23.8-4.3-16-40.7-24.5-42.1c-8.5-1.4-24.5,2-28.6,16.7
	c-4.1,14.6-46.3,35-67,17.1c-20.8-17.8-50.7-44-25.9-47.8s24.5,9.2,36.7,18c12.2,8.8,18.7,15,25.5,9.5
	C297.5,121.6,308.4,104.5,282.5,109.3z"/>
<path id="XMLID_42_" class="st3" d="M621.6,96.1c40,19-15.5,71.5-32.8,41.4c-17.3-30.1-3.9-45.2-0.8-50.5c3-5.4-49.7-25.4-45.4-45.8
	c4.3-20.4,14.8-53.7,31.6-36.2c16.8,17.4-10.9,42.4-4.8,48.5c6.1,6.1,21.1,12.7,32.9,3.2c11.9-9.5,58-1.3,64.4,25.3
	c6.4,26.6,15.3,65.4-7,53.9c-22.3-11.5-14.5-21.8-19.2-36.1c-4.7-14.3-6.4-23.1-15.1-22.7S597.9,84.8,621.6,96.1z"/>
<path id="XMLID_21_" class="st0" d="M171.1,120c-8.7,1.9,22.2,8.8,10.2,19c-12,10.2-22,25.9-22.5,8.2c-0.5-17.7,35.3-20.1-0.5-17.7
	c-35.8,2.3-59.3,31.8-62.9,0.1s5.9-41,10.4-35.4c4.6,5.6,8.6,17.7,9.8,22.5c1.2,4.8,1.4,23.2,11.1,5.1c9.7-18.1,17-38.9,20.2-24.7
	c3.2,14.2-4.2,26.2-3.2,25.8c1-0.4,21.6,0.6,26.4-23.8c4.8-24.4,46.9-35.2,48.5-16.1c1.6,19,1.1,40.2-12.6,32.5
	c-13.7-7.6-16.5-16.7-19.6-18.7c-3-2-19.9-5.4-11.5,7.8C183.2,117.9,198.3,114.1,171.1,120z"/>
<path id="XMLID_18_" class="st1" d="M79.2,114.1c13.2-3.4,26,4.8,25.9,10.8c-0.1,6-2.7,19.5-11.5,15.5c-8.8-3.9-3-20.1-6.8-23.1
	c-3.8-3-42.6,39.8-58.3,21.7c-15.7-18-34.8-29.6-13.8-46.5s35.1,4.3,31.7,18.9s21.1,33.5,17.1,8.3c-4-25.1-10.8-61.2,9.7-71.9
	c20.6-10.8,36.2-13.5,33.8,3c-2.4,16.6-5.9,25.4-17.3,31.8c-11.4,6.4,0.8,9.1,10.5,7.4c9.7-1.7,23,0,10.4,7.5
	c-12.6,7.4-20.2,2.8-25.2,2.3C80.5,99.1,63.9,118,79.2,114.1z"/>
<path id="XMLID_35_" class="st1" d="M401.7,101.5c-12.2-6.1-16.5-20.7-12.5-25.2c4-4.5,14.8-12.9,18.9-4.1c4,8.8-10.9,17.1-10,21.9
	c0.9,4.8,58.2-2,58.2,21.9s6.8,45.1-20.2,44.1c-27-1-23.6-26.3-11.5-35c12.1-8.8,6.1-39.1-7.4-17.5c-13.5,21.6-32,53.2-54.6,47.8
	c-22.6-5.4-36.2-13.5-23.5-24.5c12.7-10.9,21.1-15.3,33.9-12.6c12.8,2.7,5.4-7.4-3-12.5c-8.4-5.1-17.3-15.2-2.9-12.5
	c14.4,2.7,17.1,11.1,20.5,14.8C390.9,111.9,415.8,108.5,401.7,101.5z"/>
<path id="XMLID_96_" class="st0" d="M394.4,194.2c-13.7-1.8,27.7,24.5,4.9,33c-22.8,8.6-45.7,26.1-37.1,0c8.6-26.1,62-10.6,8.6-26.1
	c-53.4-15.5-103.1,15.1-91.7-33c11.4-48.1,30.2-56.7,33.8-46.1c3.7,10.6,3.2,30.4,2.4,38c-0.8,7.6-10.2,34.6,13.5,13.4
	c23.6-21.2,45.3-47.7,42.4-25.3c-2.9,22.4-20,35.9-18.3,35.9c1.6,0,31.1,12.3,51-20.8c19.9-33,86.8-26.5,79.1,2.1
	c-7.7,28.5-19.6,59.1-35.5,40.8c-15.9-18.3-15.2-33-18.6-37.5c-3.4-4.5-26.2-18.3-20.9,5.3C413.2,197.5,437.2,199.9,394.4,194.2z"/>
<path id="XMLID_93_" class="st1" d="M230.3,235.8c-6.1,3.5,19.8,31.5,0,39.6c-19.8,8-51.3,36.5-47,6.2c4.3-30.3,37.1-35.9,19.2-41.4
	c-17.9-5.6-76.7-3.7-82.2-16.7c-5.6-13-38.3-16.1,21-39c59.4-22.9,167.6-24.8,134.8-11.2s-74.8,0.6-92.7,13.6
	c-17.9,13-20.4,33.1,17.3,28C238.4,209.9,276.1,209.9,230.3,235.8z"/>
<path id="XMLID_90_" class="st2" d="M565.5,170.9c42.7-11.6,34.7,64.4,2,52.7c-32.7-11.6-32.3-31.8-33.5-37.8
	c-1.2-6-54.2,13-64.3-5.2c-10.1-18.3-23.7-50.4,0.4-48.1c24.1,2.3,19.3,39.3,27.9,39.9s24.2-4.1,27.1-19
	c2.9-14.9,43.2-38.7,65.4-22.6c22.2,16,54.2,39.7,29.7,45.5c-24.4,5.8-25.2-7.1-38.1-14.9c-12.9-7.8-19.9-13.4-26.2-7.4
	C549.6,160,540.1,177.8,565.5,170.9z"/>
<path id="XMLID_87_" class="st2" d="M507.1,283.4c0,0,33.3,4,35.6-8.6c2.3-12.6-30.5-21.8-41.4-15.5c-10.9,6.3-57.5-2.9-55.8-10.9
	c1.7-8,62.1-14.9,48.6-29.3c-13.5-14.4-58.9-22.4-75-9.2c-16.1,13.2-8,41.4-8,46.6c0,5.2-66.7,7.5-74.1,11.5
	c-7.5,4-31,23.6-9.2,29.3c21.8,5.7,47.1,9.8,65.5-5.2c18.4-14.9,33.3-16.1,46-8c12.6,8,31.6,24.2,44.3,18.4
	c12.6-5.8,27.6-14.4,6.3-20.7C468.6,275.4,494.5,273.1,507.1,283.4z"/>
<path id="XMLID_84_" class="st3" d="M587.2,261.7c5.4,0.2,26.1,6.3,19.2,10.8c-6.9,4.5-33.4-0.3-37.6-1.8c-4.2-1.5-0.6-6.1-3.9,3.7
	c-3.3,9.8-48.4,19.1-50.5,9.8c-2.1-9.3,10.8-10.8,22.2-12.6s24.9-10.8-3.6-8.7c-28.5,2.1-93.4-8.1-92.5-13.8
	c0.9-5.7,43.3,0,57.4,2.1c14.1,2.1-1.8-3.6-12.9-12.6c-11.1-9-19-20.7-2.6-19.2c16.4,1.5,21.2,23,31.1,24.6
	c9.9,1.6,16.8-16.8,14.7-29.4c-2.1-12.6,42.4-19.5,48.4-9.6c6,9.9-31.5,13.8-33.7,20.4c-2.1,6.6-12.6,20.6,8.1,18.6
	c20.7-2,52.9,1,43.3,5.5c-9.6,4.5-27.3,4.2-32.4,3.9C556.8,252.9,561,260.4,587.2,261.7z"/>
<path id="XMLID_81_" class="st2" d="M142.8,271.7c-1.6-12.2,46.9,32.1,49.4,10c2.6-22.1-6.3-27.5-23.2-28.5
	c-17-1-42.4-16.5-30.6-22.4c11.8-5.9,40.6-0.5,38.4-17c-2.2-16.6-3.7-30.9-12.7-23.6c-9,7.4-17.7,26.9-28.7,13.7
	s-0.3-28.4-16.5-34.7c-16.2-6.3-49.5-12.9-52.8-5.5c-3.3,7.4,36.9,37.3,39.9,40.6c3,3.3,11.1,12.9-1.8,19.6
	c-12.9,6.6-24.7,31-14,35.4c10.7,4.4,8.9,5.9,19.9-3c11.1-8.9,19.1,2.2,18.2,7c-0.9,4.8-2,21.4,3.9,22.5
	C138,286.8,145.7,295,142.8,271.7z"/>
<path id="XMLID_78_" class="st0" d="M301.1,278.1c11.1,8.7,27.2,25.2,11.1,31c-16.1,5.8-21,15.7-23.9,0c-2.9-15.7,9.5-25.1-7-23.1
	s-16.1,19-29.3,22.3c-13.2,3.3-42.2-3.3-36.5-16.9c5.6-13.6,34.5-12.8,35.3-19c0.8-6.2-34.6-10.3-46.2-21.8
	c-11.5-11.5-32.2-33.4-13.2-37.9c19-4.5,89-11.1,87.8,0c-1.2,11.1-51.9,19.4-47.8,26.8c4.1,7.4,4.1,26.8,54.8,11.5
	c50.7-15.3,107.2-18.1,91.5-4.9c-15.7,13.2-6.2,23.5-44.5,20.2C294.9,262.9,301.1,278.1,301.1,278.1z"/>
<path id="XMLID_75_" class="st3" d="M391.5,226c43.5-8,29.3,67-2.4,52.7c-31.6-14.3-29.6-34.4-30.3-40.5
	c-0.7-6.1-55.1,8.5-63.6-10.5c-8.5-19.1-19.4-52.2,4.4-47.9c23.8,4.3,16,40.7,24.5,42.1c8.5,1.4,24.5-2,28.6-16.7
	c4.1-14.6,46.3-35,67-17.1c20.8,17.8,50.7,44,25.9,47.8c-24.8,3.7-24.5-9.2-36.7-18c-12.2-8.8-18.7-15-25.5-9.5
	C376.5,213.8,365.6,230.8,391.5,226z"/>
<path id="XMLID_72_" class="st3" d="M52.4,239.2c-40-19,15.5-71.5,32.8-41.4c17.3,30.1,3.9,45.2,0.8,50.5
	c-3,5.4,49.7,25.4,45.4,45.8c-4.3,20.4-14.8,53.7-31.6,36.2C83,313,110.7,288.1,104.6,282c-6.1-6.1-21.1-12.7-32.9-3.2
	c-11.9,9.5-58,1.3-64.4-25.3c-6.4-26.6-15.3-65.4,7-53.9c22.3,11.5,14.5,21.8,19.2,36.1c4.7,14.3,6.4,23.1,15.1,22.7
	C57.3,257.9,76.1,250.5,52.4,239.2z"/>
<path id="XMLID_66_" class="st0" d="M502.9,215.3c8.7-1.9-22.2-8.8-10.2-19c12-10.2,22-25.9,22.5-8.2s-35.3,20.1,0.5,17.7
	c35.8-2.3,59.3-31.8,62.9-0.1c3.6,31.7-5.9,41-10.4,35.4c-4.6-5.6-8.6-17.7-9.8-22.5c-1.2-4.8-1.4-23.2-11.1-5.1
	c-9.7,18.1-17,38.9-20.2,24.7c-3.2-14.2,4.2-26.2,3.2-25.8c-1,0.4-21.6-0.6-26.4,23.8c-4.8,24.4-46.9,35.2-48.5,16.1
	c-1.6-19-1.1-40.2,12.6-32.5c13.7,7.6,16.5,16.7,19.6,18.7c3,2,19.9,5.4,11.5-7.8C490.8,217.4,475.7,221.3,502.9,215.3z"/>
<path id="XMLID_57_" class="st1" d="M594.8,221.2c-13.2,3.4-26-4.8-25.9-10.8c0.1-6,2.7-19.5,11.5-15.5c8.8,3.9,3,20.1,6.8,23.1
	c3.8,3,42.6-39.8,58.3-21.7c15.7,18,34.8,29.6,13.8,46.5s-35.1-4.3-31.7-18.9c3.4-14.6-21.1-33.5-17.1-8.3
	c4,25.1,10.8,61.2-9.7,71.9c-20.6,10.8-36.2,13.5-33.8-3c2.4-16.6,5.9-25.4,17.3-31.8c11.4-6.4-0.8-9.1-10.5-7.4
	c-9.7,1.7-23,0-10.4-7.5c12.6-7.4,20.2-2.8,25.2-2.3C593.5,236.2,610.1,217.3,594.8,221.2z"/>
<path id="XMLID_43_" class="st1" d="M272.3,233.9c12.2,6.1,16.5,20.7,12.5,25.2c-4,4.5-14.8,12.9-18.9,4.1c-4-8.8,10.9-17.1,10-21.9
	c-0.9-4.8-58.2,2-58.2-21.9s-6.8-45.1,20.2-44.1c27,1,23.6,26.3,11.5,35c-12.1,8.8-6.1,39.1,7.4,17.5c13.5-21.6,32-53.2,54.6-47.8
	c22.6,5.4,36.2,13.5,23.5,24.5c-12.7,10.9-21.1,15.3-33.9,12.6c-12.8-2.7-5.4,7.4,3,12.5c8.4,5.1,17.3,15.2,2.9,12.5
	c-14.4-2.7-17.1-11.1-20.5-14.8C283.1,223.4,258.2,226.8,272.3,233.9z"/>
<path id="XMLID_168_" class="st0" d="M279.6,375.2c13.7,1.8-27.7-24.5-4.9-33c22.8-8.6,45.7-26.1,37.1,0c-8.6,26.1-62,10.6-8.6,26.1
	c53.4,15.5,103.1-15.1,91.7,33c-11.4,48.1-30.2,56.7-33.8,46.1c-3.7-10.6-3.2-30.4-2.4-38c0.8-7.6,10.2-34.6-13.5-13.4
	c-23.6,21.2-45.3,47.7-42.4,25.3c2.9-22.4,20-35.9,18.3-35.9s-31.1-12.3-51,20.8c-19.9,33-86.8,26.5-79.1-2.1
	c7.7-28.5,19.6-59.1,35.5-40.8c15.9,18.3,15.2,33,18.6,37.5c3.4,4.5,26.2,18.3,20.9-5.3C260.8,371.9,236.8,369.5,279.6,375.2z"/>
<path id="XMLID_165_" class="st1" d="M443.7,333.5c6.1-3.5-19.8-31.5,0-39.6s51.3-36.5,47-6.2c-4.3,30.3-37.1,35.9-19.2,41.4
	c17.9,5.6,76.7,3.7,82.2,16.7s38.3,16.1-21,39c-59.4,22.9-167.6,24.8-134.8,11.2c32.8-13.6,74.8-0.6,92.7-13.6
	c17.9-13,20.4-33.1-17.3-28C435.7,359.5,397.9,359.5,443.7,333.5z"/>
<path id="XMLID_162_" class="st2" d="M108.5,398.4c-42.7,11.6-34.7-64.4-2-52.7s32.3,31.8,33.5,37.8c1.2,6,54.2-13,64.3,5.2
	c10.1,18.3,23.7,50.4-0.4,48.1c-24.1-2.3-19.3-39.3-27.9-39.9c-8.6-0.7-24.2,4.1-27.1,19c-2.9,14.9-43.2,38.7-65.4,22.6
	c-22.2-16-54.2-39.7-29.7-45.5c24.4-5.8,25.2,7.1,38.1,14.9c12.9,7.8,19.9,13.4,26.2,7.4C124.4,409.4,133.9,391.5,108.5,398.4z"/>
<path id="XMLID_159_" class="st2" d="M166.9,285.9c0,0-33.3-4-35.6,8.6c-2.3,12.6,30.5,21.8,41.4,15.5c10.9-6.3,57.5,2.9,55.8,10.9
	c-1.7,8-62.1,14.9-48.6,29.3c13.5,14.4,58.9,22.4,75,9.2c16.1-13.2,8-41.4,8-46.6c0-5.2,66.7-7.5,74.1-11.5c7.5-4,31-23.6,9.2-29.3
	c-21.8-5.7-47.1-9.8-65.5,5.2c-18.4,14.9-33.3,16.1-46,8c-12.6-8-31.6-24.2-44.3-18.4c-12.6,5.8-27.6,14.4-6.3,20.7
	C205.4,294,179.5,296.3,166.9,285.9z"/>
<path id="XMLID_156_" class="st3" d="M86.8,307.7c-5.4-0.2-26.1-6.3-19.2-10.8c6.9-4.5,33.3,0.3,37.6,1.8c4.2,1.5,0.6,6.2,3.9-3.7
	s48.4-19.1,50.5-9.8c2.1,9.3-10.8,10.8-22.2,12.6c-11.4,1.8-24.9,10.8,3.6,8.7c28.5-2.1,93.4,8.1,92.5,13.8
	c-0.9,5.7-43.3,0-57.4-2.1c-14.1-2.1,1.8,3.6,12.9,12.6c11.1,9,19,20.7,2.6,19.2c-16.4-1.5-21.2-23-31.1-24.6s-16.8,16.8-14.7,29.4
	c2.1,12.6-42.4,19.5-48.4,9.6c-6-9.9,31.5-13.8,33.7-20.4c2.1-6.6,12.6-20.6-8.1-18.6c-20.7,2-52.9-1-43.3-5.5
	c9.6-4.5,27.3-4.2,32.4-3.9C117.2,316.4,113,308.9,86.8,307.7z"/>
<path id="XMLID_153_" class="st2" d="M531.2,297.6c1.6,12.2-46.9-32.1-49.4-10c-2.6,22.1,6.3,27.5,23.2,28.5
	c17,1,42.4,16.5,30.6,22.4s-40.6,0.5-38.4,17c2.2,16.6,3.7,30.9,12.7,23.6c9-7.4,17.7-26.9,28.7-13.7c11,13.3,0.3,28.4,16.5,34.7
	c16.2,6.3,49.5,12.9,52.8,5.5c3.3-7.4-36.9-37.3-39.9-40.6c-3-3.3-11.1-12.9,1.8-19.6c12.9-6.6,24.7-31,14-35.4
	c-10.7-4.4-8.9-5.9-19.9,3c-11.1,8.9-19.1-2.2-18.2-7s2-21.4-3.9-22.5C536,282.5,528.3,274.4,531.2,297.6z"/>
<path id="XMLID_150_" class="st0" d="M372.9,291.2c-11.1-8.7-27.2-25.2-11.1-31c16.1-5.8,21-15.7,23.9,0c2.9,15.7-9.5,25.1,7,23.1
	c16.5-2.1,16.1-19,29.3-22.3c13.2-3.3,42.2,3.3,36.5,16.9c-5.6,13.6-34.5,12.8-35.3,19c-0.8,6.2,34.6,10.3,46.2,21.8
	c11.5,11.5,32.2,33.4,13.2,37.9c-19,4.5-89,11.1-87.8,0c1.2-11.1,51.9-19.4,47.8-26.8c-4.1-7.4-4.1-26.8-54.8-11.5
	c-50.7,15.3-107.2,18.1-91.5,4.9c15.7-13.2,6.2-23.5,44.5-20.2C379.1,306.4,372.9,291.2,372.9,291.2z"/>
<path id="XMLID_147_" class="st3" d="M282.5,343.3c-43.5,8-29.3-67,2.4-52.7c31.6,14.3,29.6,34.4,30.3,40.5
	c0.7,6.1,55.1-8.5,63.6,10.5c8.5,19.1,19.4,52.2-4.4,47.9s-16-40.7-24.5-42.1c-8.5-1.4-24.5,2-28.6,16.7c-4.1,14.6-46.3,35-67,17.1
	c-20.8-17.8-50.7-44-25.9-47.8c24.8-3.7,24.5,9.2,36.7,18c12.2,8.8,18.7,15,25.5,9.5C297.5,355.6,308.4,338.6,282.5,343.3z"/>
<path id="XMLID_144_" class="st4" d="M621.6,330.1c40,19-15.5,71.5-32.8,41.4c-17.3-30.1-3.9-45.2-0.8-50.5
	c3-5.4-49.7-25.4-45.4-45.8c4.3-20.4,14.8-53.7,31.6-36.2c16.8,17.4-10.9,42.4-4.8,48.5c6.1,6.1,21.1,12.7,32.9,3.2
	c11.9-9.5,58-1.3,64.4,25.3c6.4,26.6,15.3,65.4-7,53.9c-22.3-11.5-14.5-21.8-19.2-36.1c-4.7-14.3-6.4-23.1-15.1-22.7
	S597.9,318.9,621.6,330.1z"/>
<path id="XMLID_141_" class="st0" d="M171.1,354.1c-8.7,1.9,22.2,8.8,10.2,19c-12,10.2-22,25.9-22.5,8.2
	c-0.5-17.7,35.3-20.1-0.5-17.7c-35.8,2.3-59.3,31.8-62.9,0.1s5.9-41,10.4-35.4c4.6,5.6,8.6,17.7,9.8,22.5c1.2,4.8,1.4,23.2,11.1,5.1
	c9.7-18.1,17-38.9,20.2-24.7c3.2,14.2-4.2,26.2-3.2,25.8c1-0.4,21.6,0.6,26.4-23.8c4.8-24.4,46.9-35.2,48.5-16.1
	c1.6,19,1.1,40.2-12.6,32.5c-13.7-7.6-16.5-16.7-19.6-18.7c-3-2-19.9-5.4-11.5,7.8C183.2,351.9,198.3,348.1,171.1,354.1z"/>
<path id="XMLID_138_" class="st1" d="M79.2,348.1c13.2-3.4,26,4.8,25.9,10.8c-0.1,6-2.7,19.5-11.5,15.5c-8.8-3.9-3-20.1-6.8-23.1
	c-3.8-3-42.6,39.8-58.3,21.7c-15.7-18-34.8-29.6-13.8-46.5c21-17,35.1,4.3,31.7,18.9c-3.4,14.6,21.1,33.5,17.1,8.3
	c-4-25.1-10.8-61.2,9.7-71.9c20.6-10.8,36.2-13.5,33.8,3c-2.4,16.6-5.9,25.4-17.3,31.8c-11.4,6.4,0.8,9.1,10.5,7.4
	c9.7-1.7,23,0,10.4,7.5c-12.6,7.4-20.2,2.8-25.2,2.3C80.5,333.2,63.9,352.1,79.2,348.1z"/>
<path id="XMLID_135_" class="st1" d="M401.7,335.5c-12.2-6.1-16.5-20.7-12.5-25.2c4-4.5,14.8-12.9,18.9-4.1c4,8.8-10.9,17.1-10,21.9
	c0.9,4.8,58.2-2,58.2,21.9c0,23.9,6.8,45.1-20.2,44.1c-27-1-23.6-26.3-11.5-35c12.1-8.8,6.1-39.1-7.4-17.5
	c-13.5,21.6-32,53.2-54.6,47.8c-22.6-5.4-36.2-13.5-23.5-24.5c12.7-10.9,21.1-15.3,33.9-12.6c12.8,2.7,5.4-7.4-3-12.5
	c-8.4-5.1-17.3-15.2-2.9-12.5c14.4,2.7,17.1,11.1,20.5,14.8C390.9,346,415.8,342.6,401.7,335.5z"/>
<path id="XMLID_132_" class="st0" d="M394.4,428.2c-13.7-1.8,27.7,24.5,4.9,33c-22.8,8.6-45.7,26.1-37.1,0
	c8.6-26.1,62-10.6,8.6-26.1c-53.4-15.5-103.1,15.1-91.7-33c11.4-48.1,30.2-56.7,33.8-46.1c3.7,10.6,3.2,30.4,2.4,38
	c-0.8,7.6-10.2,34.6,13.5,13.4c23.6-21.2,45.3-47.7,42.4-25.3c-2.9,22.4-20,35.9-18.3,35.9c1.6,0,31.1,12.3,51-20.8
	c19.9-33,86.8-26.5,79.1,2.1c-7.7,28.5-19.6,59.1-35.5,40.8c-15.9-18.3-15.2-33-18.6-37.5c-3.4-4.5-26.2-18.3-20.9,5.3
	C413.2,431.5,437.2,433.9,394.4,428.2z"/>
<path id="XMLID_129_" class="st1" d="M230.3,469.9c-6.1,3.5,19.8,31.5,0,39.6c-19.8,8-51.3,36.5-47,6.2
	c4.3-30.3,37.1-35.9,19.2-41.4c-17.9-5.6-76.7-3.7-82.2-16.7c-5.6-13-38.3-16.1,21-39c59.4-22.9,167.6-24.8,134.8-11.2
	c-32.8,13.6-74.8,0.6-92.7,13.6c-17.9,13-20.4,33.1,17.3,28C238.4,443.9,276.1,443.9,230.3,469.9z"/>
<path id="XMLID_126_" class="st2" d="M565.5,405c42.7-11.6,34.7,64.4,2,52.7c-32.7-11.6-32.3-31.8-33.5-37.8
	c-1.2-6-54.2,13-64.3-5.2c-10.1-18.3-23.7-50.4,0.4-48.1c24.1,2.3,19.3,39.3,27.9,39.9s24.2-4.1,27.1-19
	c2.9-14.9,43.2-38.7,65.4-22.6c22.2,16,54.2,39.7,29.7,45.5c-24.4,5.8-25.2-7.1-38.1-14.9c-12.9-7.8-19.9-13.4-26.2-7.4
	C549.6,394,540.1,411.9,565.5,405z"/>
<path id="XMLID_123_" class="st2" d="M507.1,517.5c0,0,33.3,4,35.6-8.6c2.3-12.6-30.5-21.8-41.4-15.5c-10.9,6.3-57.5-2.9-55.8-10.9
	c1.7-8,62.1-14.9,48.6-29.3c-13.5-14.4-58.9-22.4-75-9.2c-16.1,13.2-8,41.4-8,46.6s-66.7,7.5-74.1,11.5c-7.5,4-31,23.6-9.2,29.3
	c21.8,5.7,47.1,9.8,65.5-5.2c18.4-14.9,33.3-16.1,46-8c12.6,8,31.6,24.2,44.3,18.4c12.6-5.8,27.6-14.4,6.3-20.7
	C468.6,509.4,494.5,507.1,507.1,517.5z"/>
<path id="XMLID_120_" class="st3" d="M587.2,495.7c5.4,0.2,26.1,6.3,19.2,10.8c-6.9,4.5-33.4-0.3-37.6-1.8c-4.2-1.5-0.6-6.1-3.9,3.7
	c-3.3,9.8-48.4,19.1-50.5,9.8c-2.1-9.3,10.8-10.8,22.2-12.6s24.9-10.8-3.6-8.7c-28.5,2.1-93.4-8.1-92.5-13.8
	c0.9-5.7,43.3,0,57.4,2.1c14.1,2.1-1.8-3.6-12.9-12.6c-11.1-9-19-20.7-2.6-19.2c16.4,1.5,21.2,23,31.1,24.6
	c9.9,1.6,16.8-16.8,14.7-29.4c-2.1-12.6,42.4-19.5,48.4-9.6c6,9.9-31.5,13.8-33.7,20.4c-2.1,6.6-12.6,20.6,8.1,18.6
	c20.7-2,52.9,1,43.3,5.5c-9.6,4.5-27.3,4.2-32.4,3.9C556.8,487,561,494.5,587.2,495.7z"/>
<path id="XMLID_117_" class="st2" d="M142.8,505.8c-1.6-12.2,46.9,32.1,49.4,10c2.6-22.1-6.3-27.5-23.2-28.5
	c-17-1-42.4-16.5-30.6-22.4s40.6-0.5,38.4-17c-2.2-16.6-3.7-30.9-12.7-23.6c-9,7.4-17.7,26.9-28.7,13.7c-11-13.3-0.3-28.4-16.5-34.7
	c-16.2-6.3-49.5-12.9-52.8-5.5c-3.3,7.4,36.9,37.3,39.9,40.6c3,3.3,11.1,12.9-1.8,19.6s-24.7,31-14,35.4c10.7,4.4,8.9,5.9,19.9-3
	c11.1-8.9,19.1,2.2,18.2,7c-0.9,4.8-2,21.4,3.9,22.5C138,520.9,145.7,529,142.8,505.8z"/>
<path id="XMLID_114_" class="st0" d="M301.1,512.2c11.1,8.7,27.2,25.2,11.1,31c-16.1,5.8-21,15.7-23.9,0c-2.9-15.7,9.5-25.1-7-23.1
	s-16.1,19-29.3,22.3c-13.2,3.3-42.2-3.3-36.5-16.9c5.6-13.6,34.5-12.8,35.3-19c0.8-6.2-34.6-10.3-46.2-21.8
	c-11.5-11.5-32.2-33.4-13.2-37.9c19-4.5,89-11.1,87.8,0c-1.2,11.1-51.9,19.4-47.8,26.8c4.1,7.4,4.1,26.8,54.8,11.5
	c50.7-15.3,107.2-18.1,91.5-4.9c-15.7,13.2-6.2,23.5-44.5,20.2C294.9,497,301.1,512.2,301.1,512.2z"/>
<path id="XMLID_111_" class="st3" d="M391.5,460.1c43.5-8,29.3,67-2.4,52.7c-31.6-14.3-29.6-34.4-30.3-40.5
	c-0.7-6.1-55.1,8.5-63.6-10.5c-8.5-19.1-19.4-52.2,4.4-47.9c23.8,4.3,16,40.7,24.5,42.1c8.5,1.4,24.5-2,28.6-16.7
	c4.1-14.6,46.3-35,67-17.1c20.8,17.8,50.7,44,25.9,47.8c-24.8,3.7-24.5-9.2-36.7-18c-12.2-8.8-18.7-15-25.5-9.5
	C376.5,447.8,365.6,464.8,391.5,460.1z"/>
<path id="XMLID_108_" class="st3" d="M52.4,473.3c-40-19,15.5-71.5,32.8-41.4c17.3,30.1,3.9,45.2,0.8,50.5
	c-3,5.4,49.7,25.4,45.4,45.8c-4.3,20.4-14.8,53.7-31.6,36.2C83,547,110.7,522.1,104.6,516s-21.1-12.7-32.9-3.2
	c-11.9,9.5-58,1.3-64.4-25.3c-6.4-26.6-15.3-65.4,7-53.9s14.5,21.8,19.2,36.1c4.7,14.3,6.4,23.1,15.1,22.7
	C57.3,491.9,76.1,484.5,52.4,473.3z"/>
<path id="XMLID_73_" class="st0" d="M502.9,449.3c8.7-1.9-22.2-8.8-10.2-19c12-10.2,22-25.9,22.5-8.2c0.5,17.7-35.3,20.1,0.5,17.7
	c35.8-2.3,59.3-31.8,62.9-0.1c3.6,31.7-5.9,41-10.4,35.4c-4.6-5.6-8.6-17.7-9.8-22.5c-1.2-4.8-1.4-23.2-11.1-5.1
	c-9.7,18.1-17,38.9-20.2,24.7c-3.2-14.2,4.2-26.2,3.2-25.8c-1,0.4-21.6-0.6-26.4,23.8c-4.8,24.4-46.9,35.2-48.5,16.1
	c-1.6-19-1.1-40.2,12.6-32.5c13.7,7.6,16.5,16.7,19.6,18.7c3,2,19.9,5.4,11.5-7.8C490.8,451.5,475.7,455.3,502.9,449.3z"/>
<path id="XMLID_63_" class="st1" d="M594.8,455.3c-13.2,3.4-26-4.8-25.9-10.8c0.1-6,2.7-19.5,11.5-15.5c8.8,3.9,3,20.1,6.8,23.1
	c3.8,3,42.6-39.8,58.3-21.7c15.7,18,34.8,29.6,13.8,46.5c-21,17-35.1-4.3-31.7-18.9c3.4-14.6-21.1-33.5-17.1-8.3
	c4,25.1,10.8,61.2-9.7,71.9c-20.6,10.8-36.2,13.5-33.8-3c2.4-16.6,5.9-25.4,17.3-31.8c11.4-6.4-0.8-9.1-10.5-7.4
	c-9.7,1.7-23,0-10.4-7.5c12.6-7.4,20.2-2.8,25.2-2.3C593.5,470.2,610.1,451.3,594.8,455.3z"/>
<path id="XMLID_44_" class="st1" d="M272.3,467.9c12.2,6.1,16.5,20.7,12.5,25.2c-4,4.5-14.8,12.9-18.9,4.1c-4-8.8,10.9-17.1,10-21.9
	c-0.9-4.8-58.2,2-58.2-21.9c0-23.9-6.8-45.1,20.2-44.1c27,1,23.6,26.3,11.5,35c-12.1,8.8-6.1,39.1,7.4,17.5
	c13.5-21.6,32-53.2,54.6-47.8c22.6,5.4,36.2,13.5,23.5,24.5c-12.7,10.9-21.1,15.3-33.9,12.6c-12.8-2.7-5.4,7.4,3,12.5
	c8.4,5.1,17.3,15.2,2.9,12.5c-14.4-2.7-17.1-11.1-20.5-14.8C283.1,457.4,258.2,460.8,272.3,467.9z"/>
<path id="XMLID_312_" class="st0" d="M821.9,141.1c13.7,1.8-27.7-24.5-4.9-33c22.8-8.6,45.7-26.1,37.1,0c-8.6,26.1-62,10.6-8.6,26.1
	s103.1-15.1,91.7,33c-11.4,48.1-30.2,56.7-33.8,46.1c-3.7-10.6-3.2-30.4-2.4-38c0.8-7.6,10.2-34.6-13.5-13.4
	c-23.6,21.2-45.3,47.7-42.4,25.3c2.9-22.4,20-35.9,18.3-35.9c-1.6,0-31.1-12.3-51,20.8c-19.9,33-86.8,26.5-79.1-2.1
	c7.7-28.5,19.6-59.1,35.5-40.8c15.9,18.3,15.2,33,18.6,37.5c3.4,4.5,26.2,18.3,20.9-5.3C803.2,137.9,779.1,135.4,821.9,141.1z"/>
<path id="XMLID_309_" class="st1" d="M986,99.5c6.1-3.5-19.8-31.5,0-39.6c19.8-8,51.3-36.5,47-6.2s-37.1,35.9-19.2,41.4
	c17.9,5.6,76.7,3.7,82.2,16.7c5.6,13,38.3,16.1-21,39c-59.4,22.9-167.6,24.8-134.8,11.2c32.8-13.6,74.8-0.6,92.7-13.6
	c17.9-13,20.4-33.1-17.3-28C978,125.5,940.3,125.5,986,99.5z"/>
<path id="XMLID_306_" class="st2" d="M650.8,164.4c-42.7,11.6-34.7-64.4-2-52.7c32.7,11.6,32.3,31.8,33.5,37.8
	c1.2,6,54.2-13,64.3,5.2c10.1,18.3,23.7,50.4-0.4,48.1c-24.1-2.3-19.3-39.3-27.9-39.9c-8.6-0.7-24.2,4.1-27.1,19
	c-2.9,14.9-43.2,38.7-65.4,22.6c-22.2-16-54.2-39.7-29.7-45.5c24.4-5.8,25.2,7.1,38.1,14.9c12.9,7.8,19.9,13.4,26.2,7.4
	C666.8,175.3,676.2,157.5,650.8,164.4z"/>
<path id="XMLID_303_" class="st2" d="M709.3,51.9c0,0-33.3-4-35.6,8.6C671.3,73.2,704.1,82.3,715,76c10.9-6.3,57.5,2.9,55.8,10.9
	s-62.1,14.9-48.6,29.3c13.5,14.4,58.9,22.4,75,9.2c16.1-13.2,8-41.4,8-46.6c0-5.2,66.7-7.5,74.1-11.5c7.5-4,31-23.6,9.2-29.3
	c-21.8-5.7-47.1-9.8-65.5,5.2c-18.4,14.9-33.3,16.1-46,8c-12.6-8-31.6-24.2-44.3-18.4c-12.6,5.8-27.6,14.4-6.3,20.7
	C747.8,59.9,721.9,62.2,709.3,51.9z"/>
<path id="XMLID_300_" class="st3" d="M629.2,73.7c-5.4-0.2-26.1-6.3-19.2-10.8c6.9-4.5,33.3,0.3,37.6,1.8c4.2,1.5,0.6,6.2,3.9-3.7
	c3.3-9.8,48.4-19.1,50.5-9.8c2.1,9.3-10.8,10.8-22.2,12.6c-11.4,1.8-24.9,10.8,3.6,8.7c28.5-2.1,93.4,8.1,92.5,13.8
	c-0.9,5.7-43.3,0-57.4-2.1c-14.1-2.1,1.8,3.6,12.9,12.6c11.1,9,19,20.7,2.6,19.2c-16.4-1.5-21.2-23-31.1-24.6
	c-9.9-1.6-16.8,16.8-14.7,29.4c2.1,12.6-42.4,19.5-48.4,9.6c-6-9.9,31.5-13.8,33.7-20.4c2.1-6.6,12.6-20.6-8.1-18.6
	c-20.7,2-52.9-1-43.3-5.5c9.6-4.5,27.3-4.2,32.4-3.9C659.5,82.4,655.3,74.9,629.2,73.7z"/>
<path id="XMLID_297_" class="st2" d="M1073.6,63.6c1.6,12.2-46.9-32.1-49.4-10c-2.6,22.1,6.3,27.5,23.2,28.5s42.4,16.5,30.6,22.4
	c-11.8,5.9-40.6,0.5-38.4,17c2.2,16.6,3.7,30.9,12.7,23.6s17.7-26.9,28.7-13.7s0.3,28.4,16.5,34.7c16.2,6.3,49.5,12.9,52.8,5.5
	c3.3-7.4-36.9-37.3-39.9-40.6c-3-3.3-11.1-12.9,1.8-19.6c12.9-6.6,24.7-31,14-35.4c-10.7-4.4-8.9-5.9-19.9,3
	c-11.1,8.9-19.1-2.2-18.2-7s2-21.4-3.9-22.5C1078.4,48.5,1070.6,40.4,1073.6,63.6z"/>
<path id="XMLID_294_" class="st0" d="M915.2,57.2c-11.1-8.7-27.2-25.2-11.1-31c16.1-5.8,21-15.7,23.9,0c2.9,15.7-9.5,25.1,7,23.1
	c16.5-2.1,16.1-19,29.3-22.3c13.2-3.3,42.2,3.3,36.5,16.9c-5.6,13.6-34.5,12.8-35.3,19c-0.8,6.2,34.6,10.3,46.2,21.8
	c11.5,11.5,32.2,33.4,13.2,37.9c-19,4.5-89,11.1-87.8,0c1.2-11.1,51.9-19.4,47.8-26.8c-4.1-7.4-4.1-26.8-54.8-11.5
	c-50.7,15.3-107.2,18.1-91.5,4.9c15.7-13.2,6.2-23.5,44.5-20.2C921.4,72.4,915.2,57.2,915.2,57.2z"/>
<path id="XMLID_291_" class="st3" d="M824.9,109.3c-43.5,8-29.3-67,2.4-52.7c31.6,14.3,29.6,34.4,30.3,40.5
	c0.7,6.1,55.1-8.5,63.6,10.5c8.5,19.1,19.4,52.2-4.4,47.9c-23.8-4.3-16-40.7-24.5-42.1c-8.5-1.4-24.5,2-28.6,16.7
	c-4.1,14.6-46.3,35-67,17.1c-20.8-17.8-50.7-44-25.9-47.8c24.8-3.7,24.5,9.2,36.7,18c12.2,8.8,18.7,15,25.5,9.5
	C839.9,121.6,850.8,104.5,824.9,109.3z"/>
<path id="XMLID_288_" class="st3" d="M1164,96.1c40,19-15.5,71.5-32.8,41.4c-17.3-30.1-3.9-45.2-0.8-50.5c3-5.4-49.7-25.4-45.4-45.8
	c4.3-20.4,14.8-53.7,31.6-36.2s-10.9,42.4-4.8,48.5c6.1,6.1,21.1,12.7,32.9,3.2c11.9-9.5,58-1.3,64.4,25.3
	c6.4,26.6,15.3,65.4-7,53.9c-22.3-11.5-14.5-21.8-19.2-36.1c-4.7-14.3-6.4-23.1-15.1-22.7C1159,77.4,1140.3,84.8,1164,96.1z"/>
<path id="XMLID_285_" class="st0" d="M713.4,120c-8.7,1.9,22.2,8.8,10.2,19s-22,25.9-22.5,8.2c-0.5-17.7,35.3-20.1-0.5-17.7
	c-35.8,2.3-59.3,31.8-62.9,0.1c-3.6-31.7,5.9-41,10.4-35.4c4.6,5.6,8.6,17.7,9.8,22.5c1.2,4.8,1.4,23.2,11.1,5.1
	c9.7-18.1,17-38.9,20.2-24.7c3.2,14.2-4.2,26.2-3.2,25.8c1-0.4,21.6,0.6,26.4-23.8c4.8-24.4,46.9-35.2,48.5-16.1
	c1.6,19,1.1,40.2-12.6,32.5c-13.7-7.6-16.5-16.7-19.6-18.7c-3-2-19.9-5.4-11.5,7.8C725.5,117.9,740.7,114.1,713.4,120z"/>
<path id="XMLID_282_" class="st1" d="M621.6,114.1c13.2-3.4,26,4.8,25.9,10.8c-0.1,6-2.7,19.5-11.5,15.5c-8.8-3.9-3-20.1-6.8-23.1
	c-3.8-3-42.6,39.8-58.3,21.7c-15.7-18-34.8-29.6-13.8-46.5c21-17,35.1,4.3,31.7,18.9c-3.4,14.6,21.1,33.5,17.1,8.3
	c-4-25.1-10.8-61.2,9.7-71.9c20.6-10.8,36.2-13.5,33.8,3c-2.4,16.6-5.9,25.4-17.3,31.8c-11.4,6.4,0.8,9.1,10.5,7.4
	c9.7-1.7,23,0,10.4,7.5c-12.6,7.4-20.2,2.8-25.2,2.3C622.9,99.1,606.3,118,621.6,114.1z"/>
<path id="XMLID_279_" class="st1" d="M944,101.5c-12.2-6.1-16.5-20.7-12.5-25.2c4-4.5,14.8-12.9,18.9-4.1c4,8.8-10.9,17.1-10,21.9
	c0.9,4.8,58.2-2,58.2,21.9s6.8,45.1-20.2,44.1c-27-1-23.6-26.3-11.5-35c12.1-8.8,6.1-39.1-7.4-17.5c-13.5,21.6-32,53.2-54.6,47.8
	s-36.2-13.5-23.5-24.5c12.7-10.9,21.1-15.3,33.9-12.6c12.8,2.7,5.4-7.4-3-12.5c-8.4-5.1-17.3-15.2-2.9-12.5
	c14.4,2.7,17.1,11.1,20.5,14.8C933.3,111.9,958.2,108.5,944,101.5z"/>
<path id="XMLID_276_" class="st0" d="M936.8,194.2c-13.7-1.8,27.7,24.5,4.9,33c-22.8,8.6-45.7,26.1-37.1,0
	c8.6-26.1,62-10.6,8.6-26.1s-103.1,15.1-91.7-33s30.2-56.7,33.8-46.1c3.7,10.6,3.2,30.4,2.4,38c-0.8,7.6-10.2,34.6,13.5,13.4
	c23.6-21.2,45.3-47.7,42.4-25.3c-2.9,22.4-20,35.9-18.3,35.9c1.6,0,31.1,12.3,51-20.8s86.8-26.5,79.1,2.1
	c-7.7,28.5-19.6,59.1-35.5,40.8c-15.9-18.3-15.2-33-18.6-37.5c-3.4-4.5-26.2-18.3-20.9,5.3C955.5,197.5,979.6,199.9,936.8,194.2z"/>
<path id="XMLID_273_" class="st1" d="M772.7,235.8c-6.1,3.5,19.8,31.5,0,39.6c-19.8,8-51.3,36.5-47,6.2
	c4.3-30.3,37.1-35.9,19.2-41.4c-17.9-5.6-76.7-3.7-82.2-16.7c-5.6-13-38.3-16.1,21-39s167.6-24.8,134.8-11.2
	c-32.8,13.6-74.8,0.6-92.7,13.6c-17.9,13-20.4,33.1,17.3,28C780.7,209.9,818.4,209.9,772.7,235.8z"/>
<path id="XMLID_270_" class="st2" d="M1107.9,170.9c42.7-11.6,34.7,64.4,2,52.7c-32.7-11.6-32.3-31.8-33.5-37.8
	c-1.2-6-54.2,13-64.3-5.2s-23.7-50.4,0.4-48.1c24.1,2.3,19.3,39.3,27.9,39.9c8.6,0.7,24.2-4.1,27.1-19s43.2-38.7,65.4-22.6
	c22.2,16,54.2,39.7,29.7,45.5c-24.4,5.8-25.2-7.1-38.1-14.9c-12.9-7.8-19.9-13.4-26.2-7.4C1091.9,160,1082.5,177.8,1107.9,170.9z"/>
<path id="XMLID_267_" class="st2" d="M1049.5,283.4c0,0,33.3,4,35.6-8.6c2.3-12.6-30.5-21.8-41.4-15.5c-10.9,6.3-57.5-2.9-55.8-10.9
	c1.7-8,62.1-14.9,48.6-29.3c-13.5-14.4-58.9-22.4-75-9.2c-16.1,13.2-8,41.4-8,46.6c0,5.2-66.7,7.5-74.1,11.5
	c-7.5,4-31,23.6-9.2,29.3c21.8,5.7,47.1,9.8,65.5-5.2c18.4-14.9,33.3-16.1,46-8c12.6,8,31.6,24.2,44.3,18.4
	c12.6-5.8,27.6-14.4,6.3-20.7C1011,275.4,1036.8,273.1,1049.5,283.4z"/>
<path id="XMLID_264_" class="st4" d="M1129.5,261.7c5.4,0.2,26.1,6.3,19.2,10.8c-6.9,4.5-33.3-0.3-37.6-1.8
	c-4.2-1.5-0.6-6.1-3.9,3.7c-3.3,9.8-48.4,19.1-50.5,9.8c-2.1-9.3,10.8-10.8,22.2-12.6c11.4-1.8,24.9-10.8-3.6-8.7
	c-28.5,2.1-93.4-8.1-92.5-13.8c0.9-5.7,43.3,0,57.4,2.1c14.1,2.1-1.8-3.6-12.9-12.6c-11.1-9-19-20.7-2.6-19.2
	c16.4,1.5,21.2,23,31.1,24.6c9.9,1.6,16.8-16.8,14.7-29.4c-2.1-12.6,42.4-19.5,48.4-9.6c6,9.9-31.5,13.8-33.7,20.4
	c-2.1,6.6-12.6,20.6,8.1,18.6c20.7-2,52.9,1,43.3,5.5c-9.6,4.5-27.3,4.2-32.4,3.9C1099.2,252.9,1103.4,260.4,1129.5,261.7z"/>
<path id="XMLID_261_" class="st2" d="M685.1,271.7c-1.6-12.2,46.9,32.1,49.4,10c2.6-22.1-6.3-27.5-23.2-28.5
	c-17-1-42.4-16.5-30.6-22.4c11.8-5.9,40.6-0.5,38.4-17c-2.2-16.6-3.7-30.9-12.7-23.6c-9,7.4-17.7,26.9-28.7,13.7
	c-11-13.3-0.3-28.4-16.5-34.7c-16.2-6.3-49.5-12.9-52.8-5.5c-3.3,7.4,36.9,37.3,39.9,40.6c3,3.3,11.1,12.9-1.8,19.6
	c-12.9,6.6-24.7,31-14,35.4c10.7,4.4,8.9,5.9,19.9-3c11.1-8.9,19.1,2.2,18.2,7c-0.9,4.8-2,21.4,3.9,22.5
	C680.4,286.8,688.1,295,685.1,271.7z"/>
<path id="XMLID_258_" class="st0" d="M843.5,278.1c11.1,8.7,27.2,25.2,11.1,31c-16.1,5.8-21,15.7-23.9,0s9.5-25.1-7-23.1
	c-16.5,2.1-16.1,19-29.3,22.3c-13.2,3.3-42.2-3.3-36.5-16.9c5.6-13.6,34.5-12.8,35.3-19c0.8-6.2-34.6-10.3-46.2-21.8
	c-11.5-11.5-32.2-33.4-13.2-37.9c19-4.5,89-11.1,87.8,0c-1.2,11.1-51.9,19.4-47.8,26.8c4.1,7.4,4.1,26.8,54.8,11.5
	c50.7-15.3,107.2-18.1,91.5-4.9c-15.7,13.2-6.2,23.5-44.5,20.2C837.3,262.9,843.5,278.1,843.5,278.1z"/>
<path id="XMLID_255_" class="st3" d="M933.8,226c43.5-8,29.3,67-2.4,52.7c-31.6-14.3-29.6-34.4-30.3-40.5
	c-0.7-6.1-55.1,8.5-63.6-10.5s-19.4-52.2,4.4-47.9c23.8,4.3,16,40.7,24.5,42.1c8.5,1.4,24.5-2,28.6-16.7c4.1-14.6,46.3-35,67-17.1
	c20.8,17.8,50.7,44,25.9,47.8c-24.8,3.7-24.5-9.2-36.7-18c-12.2-8.8-18.7-15-25.5-9.5C918.9,213.8,908,230.8,933.8,226z"/>
<path id="XMLID_252_" class="st3" d="M594.7,239.2c-39.9-19,15.5-71.5,32.8-41.4c17.3,30.1,3.9,45.2,0.8,50.5
	c-3,5.4,49.7,25.4,45.4,45.8c-4.3,20.4-14.8,53.7-31.6,36.2c-16.8-17.4,10.9-42.4,4.8-48.5c-6.1-6.1-21.1-12.7-32.9-3.2
	c-11.9,9.5-58,1.3-64.4-25.3c-6.4-26.6-15.3-65.4,7-53.9c22.3,11.5,14.5,21.8,19.2,36.1c4.7,14.3,6.4,23.1,15.1,22.7
	C599.7,257.9,618.5,250.5,594.7,239.2z"/>
<path id="XMLID_249_" class="st0" d="M1045.3,215.3c8.7-1.9-22.2-8.8-10.2-19c12-10.2,22-25.9,22.5-8.2s-35.3,20.1,0.5,17.7
	c35.8-2.3,59.3-31.8,62.9-0.1c3.6,31.7-5.9,41-10.4,35.4s-8.6-17.7-9.8-22.5c-1.2-4.8-1.4-23.2-11.1-5.1
	c-9.7,18.1-17,38.9-20.2,24.7c-3.2-14.2,4.2-26.2,3.2-25.8c-1,0.4-21.6-0.6-26.4,23.8s-46.9,35.2-48.5,16.1
	c-1.6-19-1.1-40.2,12.6-32.5c13.7,7.6,16.5,16.7,19.6,18.7c3,2,19.9,5.4,11.5-7.8C1033.2,217.4,1018,221.3,1045.3,215.3z"/>
<path id="XMLID_246_" class="st1" d="M1137.1,221.2c-13.2,3.4-26-4.8-25.9-10.8c0.1-6,2.7-19.5,11.5-15.5c8.8,3.9,3,20.1,6.8,23.1
	c3.8,3,42.6-39.8,58.3-21.7c15.7,18,34.8,29.6,13.8,46.5s-35.1-4.3-31.7-18.9c3.4-14.6-21.1-33.5-17.1-8.3s10.8,61.2-9.7,71.9
	c-20.6,10.8-36.2,13.5-33.8-3c2.4-16.6,5.9-25.4,17.3-31.8c11.4-6.4-0.8-9.1-10.5-7.4s-23,0-10.4-7.5c12.6-7.4,20.2-2.8,25.2-2.3
	C1135.9,236.2,1152.4,217.3,1137.1,221.2z"/>
<path id="XMLID_243_" class="st1" d="M814.7,233.9c12.2,6.1,16.5,20.7,12.5,25.2c-4,4.5-14.8,12.9-18.9,4.1
	c-4-8.8,10.9-17.1,10-21.9c-0.9-4.8-58.2,2-58.2-21.9s-6.8-45.1,20.2-44.1c27,1,23.6,26.3,11.5,35c-12.1,8.8-6.1,39.1,7.4,17.5
	c13.5-21.6,32-53.2,54.6-47.8s36.2,13.5,23.5,24.5c-12.7,10.9-21.1,15.3-33.9,12.6c-12.8-2.7-5.4,7.4,3,12.5
	c8.4,5.1,17.3,15.2,2.9,12.5c-14.4-2.7-17.1-11.1-20.5-14.8C825.5,223.4,800.5,226.8,814.7,233.9z"/>
<path id="XMLID_240_" class="st0" d="M821.9,375.2c13.7,1.8-27.7-24.5-4.9-33c22.8-8.6,45.7-26.1,37.1,0c-8.6,26.1-62,10.6-8.6,26.1
	c53.4,15.5,103.1-15.1,91.7,33c-11.4,48.1-30.2,56.7-33.8,46.1c-3.7-10.6-3.2-30.4-2.4-38c0.8-7.6,10.2-34.6-13.5-13.4
	c-23.6,21.2-45.3,47.7-42.4,25.3c2.9-22.4,20-35.9,18.3-35.9c-1.6,0-31.1-12.3-51,20.8c-19.9,33-86.8,26.5-79.1-2.1
	c7.7-28.5,19.6-59.1,35.5-40.8c15.9,18.3,15.2,33,18.6,37.5c3.4,4.5,26.2,18.3,20.9-5.3C803.2,371.9,779.1,369.5,821.9,375.2z"/>
<path id="XMLID_237_" class="st1" d="M986,333.5c6.1-3.5-19.8-31.5,0-39.6s51.3-36.5,47-6.2c-4.3,30.3-37.1,35.9-19.2,41.4
	c17.9,5.6,76.7,3.7,82.2,16.7c5.6,13,38.3,16.1-21,39c-59.4,22.9-167.6,24.8-134.8,11.2c32.8-13.6,74.8-0.6,92.7-13.6
	c17.9-13,20.4-33.1-17.3-28C978,359.5,940.3,359.5,986,333.5z"/>
<path id="XMLID_234_" class="st2" d="M650.8,398.4c-42.7,11.6-34.7-64.4-2-52.7c32.7,11.6,32.3,31.8,33.5,37.8
	c1.2,6,54.2-13,64.3,5.2c10.1,18.3,23.7,50.4-0.4,48.1c-24.1-2.3-19.3-39.3-27.9-39.9c-8.6-0.7-24.2,4.1-27.1,19
	c-2.9,14.9-43.2,38.7-65.4,22.6c-22.2-16-54.2-39.7-29.7-45.5c24.4-5.8,25.2,7.1,38.1,14.9c12.9,7.8,19.9,13.4,26.2,7.4
	C666.8,409.4,676.2,391.5,650.8,398.4z"/>
<path id="XMLID_231_" class="st2" d="M709.3,285.9c0,0-33.3-4-35.6,8.6c-2.3,12.6,30.5,21.8,41.4,15.5c10.9-6.3,57.5,2.9,55.8,10.9
	s-62.1,14.9-48.6,29.3c13.5,14.4,58.9,22.4,75,9.2c16.1-13.2,8-41.4,8-46.6c0-5.2,66.7-7.5,74.1-11.5c7.5-4,31-23.6,9.2-29.3
	c-21.8-5.7-47.1-9.8-65.5,5.2c-18.4,14.9-33.3,16.1-46,8c-12.6-8-31.6-24.2-44.3-18.4c-12.6,5.8-27.6,14.4-6.3,20.7
	C747.8,294,721.9,296.3,709.3,285.9z"/>
<path id="XMLID_228_" class="st3" d="M629.2,307.7c-5.4-0.2-26.1-6.3-19.2-10.8c6.9-4.5,33.3,0.3,37.6,1.8c4.2,1.5,0.6,6.2,3.9-3.7
	c3.3-9.8,48.4-19.1,50.5-9.8c2.1,9.3-10.8,10.8-22.2,12.6s-24.9,10.8,3.6,8.7c28.5-2.1,93.4,8.1,92.5,13.8c-0.9,5.7-43.3,0-57.4-2.1
	c-14.1-2.1,1.8,3.6,12.9,12.6c11.1,9,19,20.7,2.6,19.2c-16.4-1.5-21.2-23-31.1-24.6c-9.9-1.6-16.8,16.8-14.7,29.4
	c2.1,12.6-42.4,19.5-48.4,9.6c-6-9.9,31.5-13.8,33.7-20.4c2.1-6.6,12.6-20.6-8.1-18.6c-20.7,2-52.9-1-43.3-5.5
	c9.6-4.5,27.3-4.2,32.4-3.9C659.5,316.4,655.3,308.9,629.2,307.7z"/>
<path id="XMLID_225_" class="st2" d="M1073.6,297.6c1.6,12.2-46.9-32.1-49.4-10c-2.6,22.1,6.3,27.5,23.2,28.5s42.4,16.5,30.6,22.4
	c-11.8,5.9-40.6,0.5-38.4,17c2.2,16.6,3.7,30.9,12.7,23.6s17.7-26.9,28.7-13.7s0.3,28.4,16.5,34.7c16.2,6.3,49.5,12.9,52.8,5.5
	c3.3-7.4-36.9-37.3-39.9-40.6c-3-3.3-11.1-12.9,1.8-19.6c12.9-6.6,24.7-31,14-35.4c-10.7-4.4-8.9-5.9-19.9,3
	c-11.1,8.9-19.1-2.2-18.2-7s2-21.4-3.9-22.5C1078.4,282.5,1070.6,274.4,1073.6,297.6z"/>
<path id="XMLID_222_" class="st0" d="M915.2,291.2c-11.1-8.7-27.2-25.2-11.1-31c16.1-5.8,21-15.7,23.9,0c2.9,15.7-9.5,25.1,7,23.1
	c16.5-2.1,16.1-19,29.3-22.3c13.2-3.3,42.2,3.3,36.5,16.9c-5.6,13.6-34.5,12.8-35.3,19c-0.8,6.2,34.6,10.3,46.2,21.8
	c11.5,11.5,32.2,33.4,13.2,37.9c-19,4.5-89,11.1-87.8,0c1.2-11.1,51.9-19.4,47.8-26.8c-4.1-7.4-4.1-26.8-54.8-11.5
	c-50.7,15.3-107.2,18.1-91.5,4.9c15.7-13.2,6.2-23.5,44.5-20.2C921.4,306.4,915.2,291.2,915.2,291.2z"/>
<path id="XMLID_219_" class="st3" d="M824.9,343.3c-43.5,8-29.3-67,2.4-52.7c31.6,14.3,29.6,34.4,30.3,40.5
	c0.7,6.1,55.1-8.5,63.6,10.5c8.5,19.1,19.4,52.2-4.4,47.9s-16-40.7-24.5-42.1c-8.5-1.4-24.5,2-28.6,16.7c-4.1,14.6-46.3,35-67,17.1
	c-20.8-17.8-50.7-44-25.9-47.8c24.8-3.7,24.5,9.2,36.7,18c12.2,8.8,18.7,15,25.5,9.5C839.9,355.6,850.8,338.6,824.9,343.3z"/>
<path id="XMLID_216_" class="st3" d="M1164,330.1c40,19-15.5,71.5-32.8,41.4c-17.3-30.1-3.9-45.2-0.8-50.5
	c3-5.4-49.7-25.4-45.4-45.8c4.3-20.4,14.8-53.7,31.6-36.2s-10.9,42.4-4.8,48.5c6.1,6.1,21.1,12.7,32.9,3.2
	c11.9-9.5,58-1.3,64.4,25.3c6.4,26.6,15.3,65.4-7,53.9c-22.3-11.5-14.5-21.8-19.2-36.1c-4.7-14.3-6.4-23.1-15.1-22.7
	C1159,311.4,1140.3,318.9,1164,330.1z"/>
<path id="XMLID_213_" class="st0" d="M713.4,354.1c-8.7,1.9,22.2,8.8,10.2,19s-22,25.9-22.5,8.2c-0.5-17.7,35.3-20.1-0.5-17.7
	c-35.8,2.3-59.3,31.8-62.9,0.1c-3.6-31.7,5.9-41,10.4-35.4c4.6,5.6,8.6,17.7,9.8,22.5c1.2,4.8,1.4,23.2,11.1,5.1
	c9.7-18.1,17-38.9,20.2-24.7c3.2,14.2-4.2,26.2-3.2,25.8c1-0.4,21.6,0.6,26.4-23.8c4.8-24.4,46.9-35.2,48.5-16.1
	c1.6,19,1.1,40.2-12.6,32.5c-13.7-7.6-16.5-16.7-19.6-18.7c-3-2-19.9-5.4-11.5,7.8C725.5,351.9,740.7,348.1,713.4,354.1z"/>
<path id="XMLID_210_" class="st1" d="M621.6,348.1c13.2-3.4,26,4.8,25.9,10.8c-0.1,6-2.7,19.5-11.5,15.5c-8.8-3.9-3-20.1-6.8-23.1
	c-3.8-3-42.6,39.8-58.3,21.7c-15.7-18-34.8-29.6-13.8-46.5c21-17,35.1,4.3,31.7,18.9c-3.4,14.6,21.1,33.5,17.1,8.3
	c-4-25.1-10.8-61.2,9.7-71.9c20.6-10.8,36.2-13.5,33.8,3c-2.4,16.6-5.9,25.4-17.3,31.8c-11.4,6.4,0.8,9.1,10.5,7.4
	c9.7-1.7,23,0,10.4,7.5c-12.6,7.4-20.2,2.8-25.2,2.3C622.9,333.2,606.3,352.1,621.6,348.1z"/>
<path id="XMLID_207_" class="st1" d="M944,335.5c-12.2-6.1-16.5-20.7-12.5-25.2c4-4.5,14.8-12.9,18.9-4.1c4,8.8-10.9,17.1-10,21.9
	c0.9,4.8,58.2-2,58.2,21.9c0,23.9,6.8,45.1-20.2,44.1c-27-1-23.6-26.3-11.5-35c12.1-8.8,6.1-39.1-7.4-17.5
	c-13.5,21.6-32,53.2-54.6,47.8c-22.6-5.4-36.2-13.5-23.5-24.5c12.7-10.9,21.1-15.3,33.9-12.6c12.8,2.7,5.4-7.4-3-12.5
	c-8.4-5.1-17.3-15.2-2.9-12.5c14.4,2.7,17.1,11.1,20.5,14.8C933.3,346,958.2,342.6,944,335.5z"/>
<path id="XMLID_204_" class="st0" d="M936.8,428.2c-13.7-1.8,27.7,24.5,4.9,33c-22.8,8.6-45.7,26.1-37.1,0
	c8.6-26.1,62-10.6,8.6-26.1c-53.4-15.5-103.1,15.1-91.7-33c11.4-48.1,30.2-56.7,33.8-46.1c3.7,10.6,3.2,30.4,2.4,38
	c-0.8,7.6-10.2,34.6,13.5,13.4c23.6-21.2,45.3-47.7,42.4-25.3c-2.9,22.4-20,35.9-18.3,35.9c1.6,0,31.1,12.3,51-20.8
	c19.9-33,86.8-26.5,79.1,2.1c-7.7,28.5-19.6,59.1-35.5,40.8s-15.2-33-18.6-37.5c-3.4-4.5-26.2-18.3-20.9,5.3
	C955.5,431.5,979.6,433.9,936.8,428.2z"/>
<path id="XMLID_201_" class="st1" d="M772.7,469.9c-6.1,3.5,19.8,31.5,0,39.6c-19.8,8-51.3,36.5-47,6.2
	c4.3-30.3,37.1-35.9,19.2-41.4c-17.9-5.6-76.7-3.7-82.2-16.7c-5.6-13-38.3-16.1,21-39s167.6-24.8,134.8-11.2
	c-32.8,13.6-74.8,0.6-92.7,13.6c-17.9,13-20.4,33.1,17.3,28C780.7,443.9,818.4,443.9,772.7,469.9z"/>
<path id="XMLID_198_" class="st2" d="M1107.9,405c42.7-11.6,34.7,64.4,2,52.7c-32.7-11.6-32.3-31.8-33.5-37.8s-54.2,13-64.3-5.2
	c-10.1-18.3-23.7-50.4,0.4-48.1c24.1,2.3,19.3,39.3,27.9,39.9c8.6,0.7,24.2-4.1,27.1-19s43.2-38.7,65.4-22.6
	c22.2,16,54.2,39.7,29.7,45.5c-24.4,5.8-25.2-7.1-38.1-14.9c-12.9-7.8-19.9-13.4-26.2-7.4C1091.9,394,1082.5,411.9,1107.9,405z"/>
<path id="XMLID_195_" class="st2" d="M1049.5,517.5c0,0,33.3,4,35.6-8.6c2.3-12.6-30.5-21.8-41.4-15.5c-10.9,6.3-57.5-2.9-55.8-10.9
	c1.7-8,62.1-14.9,48.6-29.3c-13.5-14.4-58.9-22.4-75-9.2c-16.1,13.2-8,41.4-8,46.6s-66.7,7.5-74.1,11.5c-7.5,4-31,23.6-9.2,29.3
	c21.8,5.7,47.1,9.8,65.5-5.2c18.4-14.9,33.3-16.1,46-8s31.6,24.2,44.3,18.4c12.6-5.8,27.6-14.4,6.3-20.7
	C1011,509.4,1036.8,507.1,1049.5,517.5z"/>
<path id="XMLID_192_" class="st3" d="M1129.5,495.7c5.4,0.2,26.1,6.3,19.2,10.8c-6.9,4.5-33.3-0.3-37.6-1.8
	c-4.2-1.5-0.6-6.1-3.9,3.7c-3.3,9.8-48.4,19.1-50.5,9.8c-2.1-9.3,10.8-10.8,22.2-12.6c11.4-1.8,24.9-10.8-3.6-8.7
	c-28.5,2.1-93.4-8.1-92.5-13.8c0.9-5.7,43.3,0,57.4,2.1c14.1,2.1-1.8-3.6-12.9-12.6c-11.1-9-19-20.7-2.6-19.2
	c16.4,1.5,21.2,23,31.1,24.6c9.9,1.6,16.8-16.8,14.7-29.4s42.4-19.5,48.4-9.6c6,9.9-31.5,13.8-33.7,20.4
	c-2.1,6.6-12.6,20.6,8.1,18.6c20.7-2,52.9,1,43.3,5.5c-9.6,4.5-27.3,4.2-32.4,3.9C1099.2,487,1103.4,494.5,1129.5,495.7z"/>
<path id="XMLID_189_" class="st2" d="M685.1,505.8c-1.6-12.2,46.9,32.1,49.4,10c2.6-22.1-6.3-27.5-23.2-28.5
	c-17-1-42.4-16.5-30.6-22.4c11.8-5.9,40.6-0.5,38.4-17c-2.2-16.6-3.7-30.9-12.7-23.6c-9,7.4-17.7,26.9-28.7,13.7
	c-11-13.3-0.3-28.4-16.5-34.7c-16.2-6.3-49.5-12.9-52.8-5.5c-3.3,7.4,36.9,37.3,39.9,40.6c3,3.3,11.1,12.9-1.8,19.6
	s-24.7,31-14,35.4c10.7,4.4,8.9,5.9,19.9-3c11.1-8.9,19.1,2.2,18.2,7c-0.9,4.8-2,21.4,3.9,22.5C680.4,520.9,688.1,529,685.1,505.8z"
	/>
<path id="XMLID_186_" class="st0" d="M843.5,512.2c11.1,8.7,27.2,25.2,11.1,31c-16.1,5.8-21,15.7-23.9,0c-2.9-15.7,9.5-25.1-7-23.1
	c-16.5,2.1-16.1,19-29.3,22.3c-13.2,3.3-42.2-3.3-36.5-16.9c5.6-13.6,34.5-12.8,35.3-19c0.8-6.2-34.6-10.3-46.2-21.8
	c-11.5-11.5-32.2-33.4-13.2-37.9c19-4.5,89-11.1,87.8,0c-1.2,11.1-51.9,19.4-47.8,26.8c4.1,7.4,4.1,26.8,54.8,11.5
	c50.7-15.3,107.2-18.1,91.5-4.9c-15.7,13.2-6.2,23.5-44.5,20.2C837.3,497,843.5,512.2,843.5,512.2z"/>
<path id="XMLID_183_" class="st3" d="M933.8,460.1c43.5-8,29.3,67-2.4,52.7c-31.6-14.3-29.6-34.4-30.3-40.5
	c-0.7-6.1-55.1,8.5-63.6-10.5s-19.4-52.2,4.4-47.9c23.8,4.3,16,40.7,24.5,42.1c8.5,1.4,24.5-2,28.6-16.7c4.1-14.6,46.3-35,67-17.1
	c20.8,17.8,50.7,44,25.9,47.8c-24.8,3.7-24.5-9.2-36.7-18c-12.2-8.8-18.7-15-25.5-9.5C918.9,447.8,908,464.8,933.8,460.1z"/>
<path id="XMLID_180_" class="st3" d="M594.7,473.3c-39.9-19,15.5-71.5,32.8-41.4c17.3,30.1,3.9,45.2,0.8,50.5
	c-3,5.4,49.7,25.4,45.4,45.8c-4.3,20.4-14.8,53.7-31.6,36.2c-16.8-17.4,10.9-42.4,4.8-48.5c-6.1-6.1-21.1-12.7-32.9-3.2
	c-11.9,9.5-58,1.3-64.4-25.3c-6.4-26.6-15.3-65.4,7-53.9c22.3,11.5,14.5,21.8,19.2,36.1c4.7,14.3,6.4,23.1,15.1,22.7
	C599.7,491.9,618.5,484.5,594.7,473.3z"/>
<path id="XMLID_47_" class="st0" d="M1045.3,449.3c8.7-1.9-22.2-8.8-10.2-19c12-10.2,22-25.9,22.5-8.2c0.5,17.7-35.3,20.1,0.5,17.7
	c35.8-2.3,59.3-31.8,62.9-0.1c3.6,31.7-5.9,41-10.4,35.4c-4.6-5.6-8.6-17.7-9.8-22.5c-1.2-4.8-1.4-23.2-11.1-5.1
	c-9.7,18.1-17,38.9-20.2,24.7c-3.2-14.2,4.2-26.2,3.2-25.8c-1,0.4-21.6-0.6-26.4,23.8s-46.9,35.2-48.5,16.1
	c-1.6-19-1.1-40.2,12.6-32.5c13.7,7.6,16.5,16.7,19.6,18.7c3,2,19.9,5.4,11.5-7.8C1033.2,451.5,1018,455.3,1045.3,449.3z"/>
<path id="XMLID_40_" class="st1" d="M1137.1,455.3c-13.2,3.4-26-4.8-25.9-10.8c0.1-6,2.7-19.5,11.5-15.5c8.8,3.9,3,20.1,6.8,23.1
	c3.8,3,42.6-39.8,58.3-21.7c15.7,18,34.8,29.6,13.8,46.5c-21,17-35.1-4.3-31.7-18.9c3.4-14.6-21.1-33.5-17.1-8.3
	c4,25.1,10.8,61.2-9.7,71.9c-20.6,10.8-36.2,13.5-33.8-3c2.4-16.6,5.9-25.4,17.3-31.8c11.4-6.4-0.8-9.1-10.5-7.4s-23,0-10.4-7.5
	c12.6-7.4,20.2-2.8,25.2-2.3C1135.9,470.2,1152.4,451.3,1137.1,455.3z"/>
<path id="XMLID_36_" class="st1" d="M814.7,467.9c12.2,6.1,16.5,20.7,12.5,25.2c-4,4.5-14.8,12.9-18.9,4.1c-4-8.8,10.9-17.1,10-21.9
	c-0.9-4.8-58.2,2-58.2-21.9c0-23.9-6.8-45.1,20.2-44.1c27,1,23.6,26.3,11.5,35c-12.1,8.8-6.1,39.1,7.4,17.5
	c13.5-21.6,32-53.2,54.6-47.8s36.2,13.5,23.5,24.5c-12.7,10.9-21.1,15.3-33.9,12.6c-12.8-2.7-5.4,7.4,3,12.5
	c8.4,5.1,17.3,15.2,2.9,12.5c-14.4-2.7-17.1-11.1-20.5-14.8C825.5,457.4,800.5,460.8,814.7,467.9z"/>
</svg>
