<?xml version="1.0" encoding="utf-8"?>
<!-- Generator: Adobe Illustrator 22.0.1, SVG Export Plug-In . SVG Version: 6.00 Build 0)  -->
<svg version="1.1" id="Layer_1" xmlns="http://www.w3.org/2000/svg" xmlns:xlink="http://www.w3.org/1999/xlink" x="0px" y="0px"
	 viewBox="0 0 613.6 128.6" style="enable-background:new 0 0 613.6 128.6;" xml:space="preserve">
<style type="text/css">
	.st0{fill:#EAE6CE;}
	.st1{fill-rule:evenodd;clip-rule:evenodd;fill:#EAE6CE;}
</style>
<path class="st0" d="M208.6,43.8v6.4H199v-6.4H208.6L208.6,43.8z M193,100.9v6.4h-6.5c-9,0-13.5-2.1-13.5-6.4V50.2
	c0-4.3,4.5-6.4,13.5-6.4h6.5v6.4h-4.7v50.7H193L193,100.9z M208.6,100.9v6.4H199v-6.4H208.6L208.6,100.9z M258.6,43.8v57.1
	c0,4.3-4.5,6.4-13.4,6.4h-6v-6.4h4.1V78.6h-4.5v-6.2h4.5V43.8H258.6L258.6,43.8z M228.8,72.4h4.4v6.2h-6.2c-1.1,0-2.4-0.1-3.9-0.4
	c-1.6-0.2-3.1-0.6-4.5-1.2c-1.4-0.5-2.6-1.2-3.6-1.9c-1-0.7-1.5-1.7-1.5-2.7V43.8h15.4V72.4L228.8,72.4z M213.4,100.9h21.1v6.4
	h-21.1V100.9L213.4,100.9z M306.5,43.8l-11.8,23.3l-7-14.9l4.4-8.3H306.5L306.5,43.8z M278.4,43.8l28.6,63.5H292l-28.3-63.5H278.4
	L278.4,43.8z M274.5,79l7.8,17.6l-4.1,10.7h-14.8L274.5,79L274.5,79z M357,43.8v63.5h-15.4V50.2h-4.7v-6.4H357L357,43.8z
	 M311.8,43.8h19.8v6.4h-4.5v57.1h-15.4V43.8L311.8,43.8z M407,49.6v57.7h-15.4V78.7h-4.4v-6.5h4.4V49.7h-4.4v-5.9h6.2
	C402.5,43.8,407,45.7,407,49.6L407,49.6z M377.1,72.2h5v6.5h-5v28.6h-15.4V49.6c0-3.9,4.5-5.8,13.6-5.8h6.8v5.9h-5V72.2L377.1,72.2z
	 M452.8,43.8v6.4h-15.6v-6.4H452.8L452.8,43.8z M442.9,72.5v6.2h-5.7v-6.2H442.9L442.9,72.5z M431.8,43.8v6.4h-4.6v22.3h4.6v6.2
	h-4.6v22.2h4.6v6.4h-19.9V43.8H431.8L431.8,43.8z M452.8,100.9v6.4h-15.6v-6.4H452.8L452.8,100.9z M487,43.8h16.7l-46.2,57.8V80.7
	L487,43.8L487,43.8z M472.9,43.8V55l-15.4,18.8v-30H472.9L472.9,43.8z M485.4,74.2l19,33.1H487l-11.9-20.8L485.4,74.2L485.4,74.2z
	 M457.6,107.3L472.9,89v18.2H457.6L457.6,107.3z M563.5,72.5v6.2h-7.5v28.6h-15.4V78.7h-3.4v-6.2h3.4V44.3h15.4v28.2H563.5
	L563.5,72.5z M532.2,72.5v6.2h-7.8c-3.5,0-6.6-0.5-9.4-1.4c-2.8-0.9-4.2-2.5-4.2-4.8V43.8h15.4v28.7H532.2L532.2,72.5z M613.6,50.2
	v50.7c0,4.3-4.5,6.4-13.5,6.4h-6.8v-6.4h5V78.7h-5v-6.2h5V50.2h-5v-6.4h6.8c4.6,0,7.8,0.3,9.7,0.9C612.3,45.5,613.6,47.4,613.6,50.2
	L613.6,50.2z M588.5,72.5v6.2h-6.7c-1.1,0-2.4-0.1-3.9-0.4c-1.6-0.2-3-0.6-4.4-1.2c-1.4-0.5-2.6-1.2-3.6-1.9c-1-0.7-1.5-1.7-1.5-2.7
	V50.2c0-4.3,4.5-6.4,13.4-6.4h6.7v6.4h-4.8v22.3H588.5L588.5,72.5z M588.5,100.9v6.4h-11.1v-6.4H588.5L588.5,100.9z"/>
<path class="st1" d="M72.4,0L72.4,0c-0.1,0-0.2,0-0.4,0s-0.2,0-0.4,0v0C47.8,0.4,28.6,19.8,28.6,43.8C28.6,76,66.5,106.6,72,111
	c5.5-4.3,43.4-35,43.4-67.2C115.4,19.8,96.2,0.4,72.4,0z M87.5,66.5L72,57.2l-15.5,9.3l4.1-17.6L47,37.1l18-1.5l7-16.6l7,16.6
	l18,1.5L83.4,48.9L87.5,66.5z"/>
<path class="st1" d="M109.1,83.6c20.9,4.2,34.9,12,34.9,20.8c0,13.4-32.2,24.2-72,24.2S0,117.7,0,104.3c0-8.8,14-16.5,34.9-20.8
	c1.6,2.3,3.2,4.5,4.9,6.7c-19.1,2.8-31.9,8-31.9,14c0,8.9,28.3,16.1,63.3,16.2l0.7,0.6l0.7-0.6c35-0.1,63.3-7.3,63.3-16.2
	c0-6-12.8-11.2-31.9-14C105.9,88.1,107.5,85.8,109.1,83.6L109.1,83.6z"/>
</svg>
