<?xml version="1.0" encoding="utf-8"?><svg xmlns="http://www.w3.org/2000/svg" xmlns:xlink="http://www.w3.org/1999/xlink"><symbol viewBox="0 0 20 13.4" id="form-mail" xmlns="http://www.w3.org/2000/svg"><path d="M20 1c0-.3-.1-.5-.3-.7-.1-.2-.4-.3-.6-.3H.9C.7 0 .4.1.3.3.1.5 0 .8 0 1v11.4c0 .5.4 1 .9 1h18.2c.2 0 .5-.1.6-.3.2-.2.3-.4.3-.7V1zm-1.9 0L10 7.2 1.9 1h16.2zm-4.7 7.2l4.8 4.1H1.8l4.9-4.2c.2-.2.2-.5.1-.7-.2-.1-.5-.1-.7 0L.9 11.8V1.4l8.8 6.8c.1.1.2.1.3.1s.2 0 .3-.1l8.8-6.8v10.4l-5.2-4.4c-.2-.2-.5-.1-.6.1-.2.3-.1.6.1.7z"/></symbol><symbol viewBox="0 0 28.6 35" id="form-phone" xmlns="http://www.w3.org/2000/svg"><path d="M3.6.7l-1 .7C1.3 2.4.4 3.8.1 5.7c-.7 4.7 1.6 11.5 6.2 17.8 6.6 9.1 15.3 13.7 19.8 10.4l1-.7c.8-.6 1.3-1.4 1.4-2.3.1-.9-.1-1.9-.6-2.6l-3-4.1c-1.1-1.6-3.4-1.9-5-.8l-1 .7c-1.1.8-3.5 0-6.9-4.7-2.9-4-3.1-6.1-3-7 .1-.5.3-.8.6-1.1l1-.7c1.5-1.1 1.9-3.4.8-5l-3-4.1C8 .7 7.1.2 6.2 0c-.9-.1-1.9.1-2.6.7zm3.3 2l3 4.1c.5.7.3 1.7-.3 2.1l-1 .7c-.9.6-1.4 1.4-1.5 2.4-.3 2.1.8 5 3.3 8.5 5.2 7.2 8.5 6 9.7 5.2l1-.7c.7-.5 1.6-.3 2.1.3l3 4.1c.5.7.3 1.7-.3 2.1l-1 .7c-3.5 2.5-11.2-2.1-17-10-4.1-5.7-6.4-12-5.8-16.1.2-1.4.8-2.4 1.6-3l1-.7c.4-.3.8-.4 1.2-.4.4.1.7.3 1 .7z"/></symbol><symbol viewBox="0 0 612 612" id="form-user" xmlns="http://www.w3.org/2000/svg"><path d="M612 306C612 137.4 474.6 0 306 0S0 137.4 0 306c0 92.9 42.1 176.4 107.7 232.6.8.8 1.6 1.6 3.1 2.3 53.1 44.5 121 71.1 196 71.1 73.4 0 141.3-26.5 194.4-69.5 3.1-.8 5.5-3.1 7-5.5C571.5 480.1 612 398.1 612 306zm-583.9 0C28.1 153 153 28.1 306 28.1S584 153 584 306c0 75-29.6 142.8-78.1 192.8-7.8-36.7-31.2-99.2-103.1-139.7 16.4-20.3 25.7-46.8 25.7-75 0-67.1-54.6-121.8-121.8-121.8S185 217.1 185 284.2c0 28.1 10.1 53.8 25.7 75-72.5 40.5-95.9 103-102.9 139.7C58.5 449.7 28.1 381 28.1 306zm184.3-21.1c0-51.5 42.1-93.7 93.7-93.7s93.7 42.1 93.7 93.7-42.1 93.7-93.7 93.7-93.7-42.1-93.7-93.7zM132.7 523c1.6-22.6 14-99.2 98.4-142.1 21.1 16.4 46.8 25.7 75 25.7s54.6-10.1 75.8-26.5c83.6 42.9 96.8 117.9 99.2 142.1-47.6 38.2-108.5 61.7-174.1 61.7-66.5.1-126.7-22.6-174.3-60.9z"/></symbol><symbol viewBox="0 0 270.4 98.1" id="iconSheer"><path d="M175.1 51.8c.2 1.2.3 2.1.5 3 2 8.4 8.6 14 17.2 14.7 7.6.6 13.6-2.3 18-8.5 2.2-3 5.7-3.5 8.5-1.1 1.6 1.4 1.8 3.2.5 4.9-.7.9-1.4 1.8-2.1 2.8-2.9 4-6.7 6.7-11.4 8.3-7.6 2.6-15.2 3-22.7.2-10.1-3.7-16.1-11.1-17.8-21.7-1-6.5-.4-13 2.6-18.9 4.3-8.4 11.1-13.6 20.5-15.1 6.2-1 12.4-.4 18.2 2.4 8.2 3.9 13.2 10.5 15.1 19.3.5 2.4.7 4.9.9 7.3.2 1.5-.5 2.2-2.1 2.3h-44.1c-.4.1-.9.1-1.8.1zm38.3-9.2c-1.2-7.9-10.7-14.7-19.4-14.2-9.1.5-18.2 7.5-18.5 14.2h37.9zm-101 9c.1.8.2 1.4.3 2 1.7 9.3 9.3 15.7 18.7 15.9 7.1.1 12.7-2.8 16.8-8.6 2.2-3.1 6.1-3.4 8.8-.7 1.3 1.4 1.5 3 .3 4.6-.5.8-1.1 1.5-1.7 2.2-3.1 4.5-7.3 7.4-12.5 9.1-7.6 2.5-15.2 2.7-22.5-.2-10.6-4.1-16.4-12.1-17.6-23.3-.6-5.4-.1-10.7 2.2-15.6 4.3-9.4 11.4-15.2 21.8-16.6 5.5-.7 11-.3 16.1 1.8 9.2 3.8 14.6 10.9 16.6 20.6.4 2.2.6 4.5.7 6.7.1 1.8-.3 2.2-2.2 2.2h-43.5c-.7-.1-1.4-.1-2.3-.1zm38.4-9.1c-1.2-7.8-10.4-14.4-19.4-14.2-8.8.2-17.9 7.2-18.6 14.2h38zm101 13.5c.7.6 1.1 1 1.5 1.4 4.9 4.2 9.8 8.3 14.6 12.5.3.3.7.6 1 .9 1.8 1.8 2 4.4.3 6.2-1.6 1.8-4.2 2.1-6.1.5-3.4-2.8-6.7-5.7-10-8.5-4.8-4.1-9.5-8.1-14.3-12.2-.4-.4-.9-.7-1.6-1.3 0 1-.1 1.6-.1 2.3v36.1c-.2 2.5-2.1 4.3-4.6 4.2-2.4-.1-4.1-1.9-4.2-4.4V21.9c0-1.6.2-1.9 1.7-1.9 2.1-.1 4.2-.1 6.2-.1 5 0 10.1.2 15.1-.1 8.4-.4 17.8 6.4 18.7 16.3.8 8.9-5.2 17.3-14.3 19.1-1.1.2-2.3.5-3.9.8zm-15.3-6.9c.5.1.9.1 1.2.1h12.6c1.2 0 2.4-.1 3.6-.5 3.9-1.2 7-3.5 8-7.7 1.7-7.1-3.6-13.7-10.9-13.7h-13c-.5 0-1 .1-1.5.1v21.7zM88.5 52H63.9c0 .7-.1 1.4-.1 2v18.9c0 .8 0 1.6-.2 2.3-.6 1.9-2.6 3.1-4.5 3-2.1-.2-3.8-1.8-4.1-3.9-.1-.5 0-1 0-1.5V5.4c0-.9.1-1.8.4-2.6.6-2 2.6-3 4.7-2.8 1.9.3 3.5 2 3.7 3.9.1.6 0 1.2 0 1.8v34.7c0 .7.1 1.4.1 2 1.5.4 22.9.4 24.5 0 0-.5.1-1.1.1-1.7V23.9c.2-2.3 1.9-4 4.2-4.1 2.3-.1 4.3 1.6 4.6 3.9.1.5 0 1 0 1.5v48.9c-.3 2.3-2.3 4.1-4.5 4-2.3-.1-4.1-1.9-4.3-4.2V52zM25 78.3c-5.9-.1-11.4-1.4-16.5-4.4-2.2-1.3-4.2-2.9-5.8-4.8-.8-1-1.6-2.1-2.2-3.3-1-1.9-.6-3.4.9-4.9 1.7-1.6 4.1-2.3 6.4-.7C9 61 10 62 10.9 63c.9.9 1.6 1.9 2.5 2.8 2.7 2.7 6 4.2 9.8 4.6 3.5.4 7 .3 10.4-.9 1.4-.5 2.8-1.2 4-2.1 2.9-2.2 3-5.9.2-8.2-1.3-1.1-2.9-1.9-4.5-2.6-4-1.7-8.1-2.9-12.3-4-3.4-.8-6.7-1.9-10.1-2.9-1.3-.4-2.5-1.1-3.7-1.7-3.2-1.7-5-4.4-5.5-7.9-1-7.1 1.7-12.8 8.1-15.9 9.8-4.8 19.7-5.2 29.4.4 1.8 1 3.5 2.5 5.1 3.9 1.2 1 2 2.5 2.5 4 .8 2.6-.5 3.9-2.8 4.4-2 .4-3.8-.2-5.2-1.7-.3-.3-.5-.6-.7-.9-2.3-3.4-5.6-5.3-9.6-6.1-4-.7-8-.6-11.8.9-1.4.5-2.8 1.3-3.9 2.3-2.7 2.3-2.7 5.4-.1 7.8 1.7 1.6 3.7 2.5 5.9 3 4.8 1.2 9.7 2.4 14.5 3.6 3.1.8 6.1 1.8 8.9 3.4 3.6 1.9 6.2 4.7 7.1 8.8 1.1 5 0 9.4-3.9 13-4.4 4-9.5 6.3-15.4 7-1.7.1-3.3.2-4.8.3z"/></symbol><symbol viewBox="0 0 512 512" id="insta" xmlns="http://www.w3.org/2000/svg"><path d="M373.4 0H138.6C62.2 0 0 62.2 0 138.6v234.8C0 449.8 62.2 512 138.6 512h234.8c76.4 0 138.6-62.2 138.6-138.6V138.6C512 62.2 449.8 0 373.4 0zM482 373.4c0 59.9-48.7 108.6-108.6 108.6H138.6C78.7 482 30 433.3 30 373.4V138.6C30 78.7 78.7 30 138.6 30h234.8C433.3 30 482 78.7 482 138.6v234.8z"/><path d="M256 116c-77.2 0-140 62.8-140 140s62.8 140 140 140 140-62.8 140-140-62.8-140-140-140zm0 250c-60.6 0-110-49.3-110-110 0-60.6 49.3-110 110-110 60.6 0 110 49.3 110 110 0 60.6-49.4 110-110 110zM399.3 66.3c-22.8 0-41.4 18.6-41.4 41.4 0 22.8 18.6 41.4 41.4 41.4s41.4-18.6 41.4-41.4-18.5-41.4-41.4-41.4zm0 52.7c-6.3 0-11.4-5.1-11.4-11.4 0-6.3 5.1-11.4 11.4-11.4 6.3 0 11.4 5.1 11.4 11.4 0 6.3-5.1 11.4-11.4 11.4z"/></symbol></svg>