<?xml version="1.0" encoding="utf-8"?>
<!-- Generator: Adobe Illustrator 22.1.0, SVG Export Plug-In . SVG Version: 6.00 Build 0)  -->
<svg version="1.1" id="Layer_1" xmlns="http://www.w3.org/2000/svg" xmlns:xlink="http://www.w3.org/1999/xlink" x="0px" y="0px"
	 viewBox="0 0 382.3 83.1" style="enable-background:new 0 0 382.3 83.1;" xml:space="preserve">
<style type="text/css">
	.st0{fill:#FFFFFF;}
	.st1{fill-rule:evenodd;clip-rule:evenodd;fill:#FFFFFF;}
	.st2{fill-rule:evenodd;clip-rule:evenodd;fill:#22C353;}
</style>
<path class="st0" d="M131.5,58.5c-4.2,0-7.6-1.2-10.3-3.7c-2.7-2.5-4-5.7-4-9.6c0-2.6,0.7-5,2.1-7c1.4-2,3.3-3.6,5.7-4.6
	c2.4-1.1,5.1-1.6,8.1-1.6c4.1,0,7.6,0.6,10.5,1.8V32c0-2.2-0.8-3.9-2.4-5.3c-1.6-1.3-3.8-2-6.5-2c-1.9,0-3.7,0.4-5.4,1.3
	c-1.7,0.9-3.2,2-4.3,3.4l-6.5-5.1c1.9-2.5,4.3-4.4,7.2-5.7c2.9-1.3,6-2,9.4-2c6,0,10.6,1.4,13.8,4.2c3.1,2.8,4.7,6.9,4.7,12.2v24.3
	h-10v-4h-0.6c-1.2,1.5-2.7,2.8-4.7,3.8C136.3,58,134.1,58.5,131.5,58.5L131.5,58.5z M133.9,50.6c2.9,0,5.3-0.9,7-2.8
	c1.7-1.9,2.6-4.1,2.6-6.6c-2.6-1.2-5.4-1.9-8.3-1.9c-5.3,0-7.9,2-7.9,5.9c0,1.6,0.6,2.9,1.7,3.9C130.2,50.1,131.8,50.6,133.9,50.6
	L133.9,50.6z M179.3,57.8c-2,0-3.8-0.3-5.4-0.9c-1.7-0.6-3-1.4-4-2.4c-2.4-2.3-3.6-5.6-3.6-9.9V26.4h-6.9v-8.7h6.9V6.6h10.1v11.2
	h9.7v8.7h-9.7v16.3c0,2,0.4,3.5,1.3,4.3c0.7,0.8,2,1.2,3.7,1.2c1,0,1.8-0.1,2.4-0.4c0.6-0.3,1.5-0.7,2.5-1.3v9.9
	C184.1,57.4,181.8,57.8,179.3,57.8L179.3,57.8z M194.5,17.7h9.5V23h0.6c1-1.9,2.5-3.4,4.6-4.6c2.1-1.2,4.3-1.8,6.8-1.8
	c1.8,0,3.5,0.3,5,0.9v10.1c-1.4-0.5-2.6-0.9-3.5-1.1c-1-0.2-2-0.3-3.1-0.3c-3,0-5.4,1.1-7.1,3.3c-1.8,2.2-2.6,4.9-2.6,8.2v19.7
	h-10.1V17.7L194.5,17.7z M244.1,58.5c-4.1,0-7.7-0.9-10.9-2.7c-3.2-1.8-5.7-4.3-7.5-7.5c-1.8-3.2-2.7-6.8-2.7-10.7
	c0-3.9,0.9-7.5,2.7-10.7c1.8-3.2,4.3-5.7,7.5-7.6c3.2-1.8,6.8-2.7,10.9-2.7c4,0,7.6,0.9,10.8,2.7c3.2,1.8,5.7,4.4,7.5,7.6
	c1.8,3.2,2.7,6.8,2.7,10.7c0,4-0.9,7.6-2.7,10.7c-1.8,3.2-4.3,5.7-7.5,7.5C251.8,57.5,248.2,58.5,244.1,58.5L244.1,58.5z
	 M244.1,49.1c2,0,3.8-0.5,5.4-1.4c1.7-0.9,3-2.3,3.9-4c1-1.8,1.5-3.8,1.5-6.2c0-2.3-0.5-4.4-1.5-6.1c-1-1.8-2.3-3.1-3.9-4
	c-1.7-0.9-3.5-1.4-5.4-1.4c-2,0-3.8,0.5-5.4,1.4c-1.7,0.9-3,2.3-4,4c-1,1.8-1.5,3.8-1.5,6.1c0,2.3,0.5,4.4,1.5,6.2
	c1,1.8,2.3,3.1,4,4.1C240.4,48.6,242.2,49.1,244.1,49.1L244.1,49.1z M272.1,17.7h9.5v5h0.6c1.2-1.9,2.9-3.4,5-4.5
	c2.2-1.1,4.5-1.7,7-1.7c4.8,0,8.4,1.4,10.8,4.3c2.5,2.9,3.7,6.8,3.7,11.8v24.5h-10.1V33.9c0-2.5-0.6-4.5-1.9-5.9
	c-1.3-1.4-3.1-2.1-5.4-2.1c-2.7,0-4.9,1.1-6.6,3.2c-1.7,2.1-2.5,4.8-2.5,8v20.1h-10.1V17.7L272.1,17.7z"/>
<path class="st1" d="M91,15.6c11.8,0,21.3,9.5,21.3,21.3S102.8,58.2,91,58.2c-11.8,0-21.3-9.5-21.3-21.3S79.2,15.6,91,15.6L91,15.6z
	 M91,24.9c6.7,0,12.1,5.4,12.1,12.1C103,43.6,97.6,49,91,49c-6.7,0-12.1-5.4-12.1-12.1C78.9,30.3,84.3,24.9,91,24.9L91,24.9z"/>
<path class="st1" d="M85.2,48.4c9.6,0,17.4,7.8,17.4,17.4c0,9.6-7.8,17.4-17.4,17.4l-0.2,0v-9l0.2,0c4.6,0,8.4-3.7,8.4-8.4
	c0-4.6-3.7-8.4-8.4-8.4l-0.2,0v-9L85.2,48.4L85.2,48.4z"/>
<polygon class="st1" points="51.3,17.6 61.5,17.6 61.5,57.2 51.3,57.2 51.3,17.6 "/>
<path class="st2" d="M56.4,0c3.7,0,6.6,3,6.6,6.6c0,3.7-3,6.6-6.6,6.6c-3.7,0-6.6-3-6.6-6.6C49.8,3,52.8,0,56.4,0L56.4,0z"/>
<path class="st1" d="M21.3,15.6c11.8,0,21.3,9.5,21.3,21.3s-9.5,21.3-21.3,21.3C9.5,58.2,0,48.7,0,36.9S9.5,15.6,21.3,15.6
	L21.3,15.6z M21.3,24.9c6.7,0,12.1,5.4,12.1,12.1C33.4,43.6,28,49,21.3,49c-6.7,0-12.1-5.4-12.1-12.1C9.3,30.3,14.7,24.9,21.3,24.9
	L21.3,24.9z"/>
<path class="st1" d="M15.5,48.4c9.6,0,17.4,7.8,17.4,17.4c0,9.6-7.8,17.4-17.4,17.4l-0.2,0v-9l0.2,0c4.6,0,8.4-3.7,8.4-8.4
	c0-4.6-3.7-8.4-8.4-8.4l-0.2,0v-9L15.5,48.4L15.5,48.4z"/>
<polygon class="st1" points="321,17.6 331.2,17.6 331.2,57.2 321,57.2 321,17.6 "/>
<path class="st2" d="M326.1,0c3.7,0,6.6,3,6.6,6.6c0,3.7-3,6.6-6.6,6.6c-3.7,0-6.6-3-6.6-6.6C319.5,3,322.5,0,326.1,0L326.1,0z"/>
<polygon class="st0" points="344.2,2.4 354.4,2.4 354.4,32.6 354.9,32.6 369.1,18.4 381.6,18.4 381.6,19 366.6,33.7 382.3,57.3 
	382.3,57.9 370.3,57.9 359.5,40.6 354.4,45.7 354.4,57.9 344.2,57.9 344.2,2.4 "/>
</svg>
