<?xml version="1.0" encoding="utf-8"?><svg xmlns="http://www.w3.org/2000/svg" xmlns:xlink="http://www.w3.org/1999/xlink"><symbol id="air-conditioner" viewBox="0 0 32 19.4" xml:space="preserve" xmlns="http://www.w3.org/2000/svg"><style>.aast0{fill:#3e51b5}</style><path class="aast0" d="M29.8 0H7.6c-.3 0-.5.2-.5.5s.2.5.5.5h22.1c.7 0 1.3.6 1.3 1.3v10c0 .7-.6 1.3-1.3 1.3h-1.1v-3.1c0-.3-.2-.5-.5-.5H3.8c-.3 0-.5.2-.5.5v3.1H2.2c-.7 0-1.3-.6-1.3-1.3v-10c0-.7.6-1.3 1.3-1.3h3.5c.3 0 .5-.2.5-.5S6 0 5.7 0H2.2C1 0 0 1 0 2.2v10c0 1.2 1 2.2 2.2 2.2h4.9c.3 0 .5-.2.5-.5s-.2-.5-.5-.5H4.3v-.8H23c.3 0 .5-.2.5-.5s-.2-.5-.5-.5H4.3V11h23.4v.8h-2.8c-.3 0-.5.2-.5.5s.2.5.5.5h2.8v.8H9c-.3 0-.5.2-.5.5s.2.5.5.5h20.7c1.2 0 2.2-1 2.2-2.2v-10C32 1 31 0 29.8 0z"/><path class="aast0" d="M28.2 3.8c.3 0 .5-.2.5-.5s-.2-.5-.5-.5h-1.4c-.3 0-.5.2-.5.5s.2.5.5.5h1.4zm-3.6 0c.3 0 .5-.2.5-.5s-.2-.5-.5-.5h-8.9c-.3 0-.5.2-.5.5s.2.5.5.5h8.9zm-15.8 12c-.3 0-.5.2-.5.5 0 0 0 1.4-1.3 2.3-.2.2-.3.4-.1.7.1.1.2.2.4.2.1 0 .2 0 .3-.1 1.7-1.2 1.7-3 1.7-3.1 0-.3-.2-.5-.5-.5zm3.4 0c-.3 0-.5.2-.5.5V19c0 .3.2.5.5.5s.5-.2.5-.5v-2.7c0-.3-.2-.5-.5-.5zm3.9 0c-.3 0-.5.2-.5.5V19c0 .3.2.5.5.5s.5-.2.5-.5v-2.7c0-.3-.2-.5-.5-.5zm8.9 2.8c-1.3-.9-1.3-2.3-1.3-2.3 0-.3-.2-.5-.5-.5s-.5.2-.5.5c0 .1 0 1.9 1.7 3.1.1.1.2.1.3.1.1 0 .3-.1.4-.2.1-.3.1-.6-.1-.7zm-5.2-2.8c-.3 0-.5.2-.5.5V19c0 .3.2.5.5.5s.5-.2.5-.5v-2.7c0-.3-.2-.5-.5-.5z"/></symbol><symbol id="badge" viewBox="0 0 30 30" xml:space="preserve" xmlns="http://www.w3.org/2000/svg"><style>.abst0{fill:#3e51b5}</style><path class="abst0" d="M28.8 12.6c-.8-.6-1.1-1.6-.7-2.5.4-.9.4-1.8-.1-2.7S26.7 6.1 25.8 6c-1-.1-1.7-.9-1.8-1.8-.1-.9-.6-1.8-1.4-2.2s-1.8-.5-2.7-.1c-.9.4-2 .1-2.5-.7C16.8.4 16 0 15 0s-1.8.4-2.4 1.2c-.5.8-1.6 1.1-2.4.7-.9-.4-1.9-.4-2.7.1S6.2 3.3 6.1 4.3C6 5.2 5.2 6 4.3 6.1c-1 .1-1.8.6-2.3 1.4s-.5 1.8-.1 2.7c.4.8.1 1.9-.7 2.4C.4 13.2 0 14 0 15s.4 1.8 1.2 2.4c.8.5 1.1 1.6.7 2.4-.4.9-.4 1.8.1 2.7s1.3 1.3 2.2 1.4c1 .1 1.7.9 1.8 1.8.1.9.6 1.8 1.4 2.2s1.8.5 2.7.1c.9-.4 1.9-.1 2.5.7.6.9 1.4 1.3 2.4 1.3s1.8-.4 2.4-1.2c.6-.8 1.6-1.1 2.5-.7.9.4 1.8.4 2.7-.1s1.3-1.3 1.4-2.2c.1-1 .9-1.7 1.8-1.8.9-.1 1.8-.6 2.2-1.4s.5-1.8.1-2.7c-.4-.9-.1-1.9.7-2.5.8-.6 1.2-1.4 1.2-2.4s-.4-1.8-1.2-2.4zm-.5 4c-1.1.8-1.5 2.3-1 3.6.3.6.2 1.3-.1 1.8s-.9.9-1.6 1c-1.4.1-2.5 1.2-2.6 2.6-.1.7-.4 1.2-1 1.6s-1.2.4-1.8.1c-1.3-.6-2.8-.2-3.6 1-.4.5-1 .9-1.6.9s-1.3-.3-1.6-.9c-.6-.8-1.5-1.3-2.4-1.3-.4 0-.8.1-1.2.3-.6.3-1.3.2-1.8-.1-.6-.3-.9-.9-1-1.6-.1-1.4-1.2-2.5-2.6-2.6-.7-.1-1.2-.4-1.6-1-.3-.6-.4-1.2-.1-1.8.6-1.3.2-2.8-1-3.6-.5-.4-.9-1-.9-1.6s.3-1.3.9-1.6c1.1-.8 1.5-2.3 1-3.6-.3-.6-.3-1.3.1-1.9s.9-.9 1.6-1C5.8 6.8 6.9 5.7 7 4.3c.1-.7.4-1.2 1-1.6s1.2-.4 1.8-.1c1.3.6 2.8.2 3.6-1 .4-.5 1-.9 1.6-.9s1.3.3 1.6.9l.4-.1-.4.3c.8 1.1 2.3 1.5 3.6 1 .6-.3 1.3-.2 1.8.1s.9.9 1 1.6c.1 1.4 1.2 2.5 2.6 2.6.7.1 1.2.4 1.6 1s.4 1.2.1 1.8c-.6 1.3-.2 2.8 1 3.6.5.4.9 1 .9 1.6s-.4 1.2-.9 1.5z"/><path class="abst0" d="M26.2 15.5c-.2 0-.5.2-.5.4-.2 2.7-1.4 5.2-3.4 7-2 1.8-4.6 2.9-7.3 2.9s-5.3-1-7.3-2.9c-2-1.8-3.2-4.3-3.4-7 0-.2-.2-.4-.5-.4-.2 0-.4.2-.4.5.2 2.9 1.5 5.6 3.7 7.6s5 3.1 7.9 3.1 5.7-1.1 7.9-3.1c2.1-2 3.4-4.7 3.7-7.6 0-.3-.2-.5-.4-.5zm-22.4-1c.3 0 .5-.2.5-.4.2-2.7 1.4-5.2 3.4-7 2-1.8 4.6-2.9 7.3-2.9s5.3 1 7.3 2.9c2 1.8 3.2 4.3 3.4 7 0 .2.2.4.5.4.2 0 .4-.2.4-.5-.2-2.9-1.5-5.6-3.7-7.6s-5-3.1-7.9-3.1c-2.9 0-5.7 1.1-7.9 3.1-2.1 2-3.4 4.7-3.7 7.6 0 .3.2.5.4.5z"/><path class="abst0" d="M22.7 12.6c-.1-.4-.5-.7-.9-.7l-4.4-.2-1.5-4.1c-.1-.3-.5-.6-.9-.6s-.8.3-.9.6l-1.5 4.1-4.4.2c-.4 0-.8.3-.9.7-.1.4 0 .8.3 1.1l3.4 2.7-1.2 4.2c-.1.4 0 .8.4 1.1s.8.3 1.1 0l3.6-2.4 3.6 2.4c.2.1.4.2.5.2.2 0 .4-.1.6-.2.3-.2.5-.7.4-1.1l-1-4.2 3.4-2.7c.3-.2.5-.7.3-1.1zm-.8.4l-3.6 2.9c-.1.1-.2.3-.1.5l1.2 4.5v.1h-.1l-3.9-2.6c-.1 0-.2-.1-.2-.1s-.2 0-.2.1L10.9 21h-.1s-.1-.1 0-.1l1.2-4.5c0-.2 0-.4-.1-.5L8.1 13s-.1-.1 0-.1c0-.1.1-.1.1-.1l4.7-.2c.2 0 .3-.1.4-.3L14.9 8l.1-.1c.1 0 .1 0 .1.1l1.6 4.4c.1.2.2.3.4.3l4.7.2c.1 0 .1 0 .1.1z"/></symbol><symbol id="camera" viewBox="0 0 30 28.5" xml:space="preserve" xmlns="http://www.w3.org/2000/svg"><style>.acst0{fill:#3e51b5}</style><path class="acst0" d="M27.6 3.9h-6.5L19.7 1c-.2-.6-.8-1-1.4-1h-6.6c-.6 0-1.1.4-1.3.9L9 3.9H7.3V2.4c0-.5-.4-1-1-1H2.4c-.5 0-1 .4-1 1v1.7C.6 4.5 0 5.3 0 6.3v19.8c0 1.3 1.1 2.4 2.4 2.4h25.2c1.3 0 2.4-1.1 2.4-2.4V6.3c0-1.3-1.1-2.4-2.4-2.4zm-4.9 11.6c0 4.3-3.5 7.7-7.7 7.7s-7.7-3.5-7.7-7.7 3.5-7.7 7.7-7.7c4.3-.1 7.7 3.4 7.7 7.7zM15 24.2c2.9 0 5.6-1.5 7.3-3.9v7.3H7.7v-7.3c1.7 2.4 4.4 3.9 7.3 3.9zm0-17.4c-2.9 0-5.6 1.5-7.3 3.9V4.8h14.5v5.8c-1.6-2.4-4.3-3.8-7.2-3.8zm-3.8-5.5c.1-.2.3-.3.5-.3h6.6c.2 0 .4.1.5.4L20 3.9H10l1.2-2.6zM2.4 2.4h3.9v1.5H2.4V2.4zM1 26.1V6.3c0-.8.6-1.5 1.5-1.5h4.4v7.8c-.6 1.8-.6 3.8 0 5.7v9.3H2.4c-.8 0-1.4-.7-1.4-1.5zm28 0c0 .8-.6 1.5-1.5 1.5h-4.4v-9.3c.6-1.8.6-3.8 0-5.7V4.8h4.4c.8 0 1.5.6 1.5 1.5v19.8z"/><path class="acst0" d="M15 8.7c-3.7 0-6.8 3-6.8 6.8s3 6.8 6.8 6.8 6.8-3 6.8-6.8-3.1-6.8-6.8-6.8zm0 12.6c-3.2 0-5.8-2.6-5.8-5.8s2.6-5.8 5.8-5.8 5.8 2.6 5.8 5.8c0 3.2-2.6 5.8-5.8 5.8z"/><path class="acst0" d="M10.6 15.5v-.4c0-.3-.2-.5-.4-.5-.3 0-.5.2-.5.4v.5c0 1.7.8 3.3 2.1 4.3.2.2.5.1.7-.1.2-.2.1-.5-.1-.7-1.1-.9-1.8-2.1-1.8-3.5zm4 4.3c-.3 0-.6-.1-.9-.2-.3-.1-.5.1-.6.3-.1.3.1.5.3.6.3.1.7.2 1.1.2.3 0 .5-.2.5-.5 0-.1-.2-.4-.4-.4zm13.5 1h-3.9c-.3 0-.5.2-.5.5v2.4c0 .3.2.5.5.5h3.9c.3 0 .5-.2.5-.5v-2.4c-.1-.3-.3-.5-.5-.5zm-.5 2.4h-2.9v-1.5h2.9v1.5zm-1.5-13c1.1 0 1.9-.9 1.9-1.9s-.9-1.9-1.9-1.9-1.9.9-1.9 1.9.9 1.9 1.9 1.9zm0-2.9c.5 0 1 .4 1 1s-.4 1-1 1-1-.4-1-1 .5-1 1-1z"/></symbol><symbol viewBox="0 0 34 24.7" id="delivery-truck" xmlns="http://www.w3.org/2000/svg"><path d="M33.7 9.4L28.4 4c-.2-.2-.4-.3-.7-.3h-4.3c0-2-1.6-3.7-3.7-3.7h-16C1.6 0 0 1.6 0 3.7V17c0 2 1.6 3.7 3.7 3.7h.7c.5 2.3 2.5 4 4.9 4 2.4 0 4.4-1.7 4.9-4h5.7c.5 2.3 2.5 4 4.9 4s4.4-1.7 4.9-4H33c.6 0 1-.4 1-1v-9.6c0-.3-.1-.6-.3-.7zm-6.4-3.7L30.6 9h-7.3V5.7h4zM2 17V3.7C2 2.7 2.7 2 3.7 2h16c.9 0 1.7.7 1.7 1.7V16c-.8.7-1.3 1.6-1.5 2.7h-5.7c-.5-2.3-2.5-4-4.9-4s-4.4 1.7-4.9 4h-.7c-1 0-1.7-.8-1.7-1.7zm7.3 5.7c-1.7 0-3-1.3-3-3s1.3-3 3-3 3 1.3 3 3c0 1.6-1.4 3-3 3zm15.4 0c-1.7 0-3-1.3-3-3s1.3-3 3-3 3 1.3 3 3c0 1.6-1.3 3-3 3zm4.9-4c-.5-2.3-2.5-4-4.9-4-.5 0-1 .1-1.4.2v-3.8H32v7.6h-2.4z" fill="#00a6e4"/></symbol><symbol id="drive" viewBox="0 0 30 30" xml:space="preserve" xmlns="http://www.w3.org/2000/svg"><style>.aest0{fill:#3e51b5}</style><path class="aest0" d="M13.2 21.3c-.6-2.5-1.3-3.9-2.2-4.3-2.3-1.1-4.7-.6-7.1.2-.2.1-.3.3-.3.5 1.1 4.7 5.1 8.3 9.9 9 .3 0 .5-.2.5-.5-.1-1.1-.4-3.1-.8-4.9zm-8.7-3.5c2-.6 4.2-1 6-.1 1 .5 1.9 3.6 2.5 7.9-4-.7-7.4-3.8-8.5-7.8zm21.6-.7c-2.3-.8-4.8-1.3-7.1-.2-.9.4-1.6 1.9-2.2 4.3-.4 1.9-.7 3.8-.8 4.9 0 .3.2.5.5.5 4.8-.6 8.8-4.2 9.9-9 .1-.2-.1-.4-.3-.5zM17 25.7c.5-4.3 1.5-7.4 2.5-7.9.8-.4 1.6-.5 2.5-.5 1.2 0 2.4.3 3.6.7-1.2 3.8-4.6 6.9-8.6 7.7zM3.8 14h16.6c.2 0 .4-.2.4-.4s-.2-.4-.4-.4H4.3c.9-5.2 5.4-9 10.7-9s9.8 3.8 10.7 9h-3.2c-.2 0-.4.2-.4.4s.2.4.4.4h3.7c.3 0 .5-.2.4-.5C25.9 7.7 20.9 3.3 15 3.3S4.1 7.7 3.4 13.5c-.1.3.2.5.4.5z"/><path class="aest0" d="M25.6 4.4C22.8 1.6 19 0 15 0S7.2 1.6 4.4 4.4C1.6 7.2 0 11 0 15s1.6 7.8 4.4 10.6C7.2 28.4 11 30 15 30s7.8-1.6 10.6-4.4C28.4 22.8 30 19 30 15s-1.6-7.8-4.4-10.6zM15 29.1C7.2 29.1.9 22.8.9 15S7.2.9 15 .9 29.1 7.2 29.1 15 22.8 29.1 15 29.1z"/><path class="aest0" d="M17.3 16.9c0-1.3-1-2.3-2.3-2.3s-2.3 1-2.3 2.3 1 2.3 2.3 2.3 2.3-1 2.3-2.3zM15 18.3c-.8 0-1.4-.6-1.4-1.4 0-.8.6-1.4 1.4-1.4s1.4.6 1.4 1.4c0 .8-.6 1.4-1.4 1.4zM26.3 15h-1.4c-.2 0-.4.2-.4.4s.2.4.4.4h1.4c.2 0 .4-.2.4-.4s-.2-.4-.4-.4zm-21.2.9c.2 0 .4-.2.4-.4s-.2-.4-.4-.4H3.7c-.2 0-.4.2-.4.4s.2.4.4.4h1.4z"/></symbol><symbol viewBox="0 0 300 300" id="form-email" xmlns="http://www.w3.org/2000/svg"><path d="M150 0C67.2 0 0 67.2 0 150s67.2 150 150 150 150-67.2 150-150S232.8 0 150 0zm0 52.7l88.8 55.3H61.2L150 52.7zm89.9 143.7c0 8.9-7.2 16.1-16.1 16.1H76.2c-8.9 0-16.1-7.2-16.1-16.1v-84.9c0-.9.1-1.9.3-2.7l84.8 52.9c.1.1.2.1.3.2.1.1.2.1.3.2.6.3 1.2.6 1.8.7h.2c.7.2 1.4.3 2.1.3.7 0 1.4-.1 2.1-.3h.2c.6-.2 1.2-.4 1.8-.7.1-.1.2-.1.3-.2.1-.1.2-.1.3-.2l84.8-52.9c.2.9.3 1.8.3 2.7l.2 84.9z"/></symbol><symbol viewBox="0 0 300 300" id="form-msg" xmlns="http://www.w3.org/2000/svg"><path d="M150 0C67.2 0 0 67.2 0 150s67.2 150 150 150 150-67.2 150-150S232.8 0 150 0zm0 234.3c-17.7 0-34.3-4.2-48.6-11.4-3.8 3.1-21.1 15.8-38.3 9.8 10.4-9.8 12.3-21.3 12-29.3-13.7-14.5-22-33.2-22-53.5 0-46.6 43.4-84.3 96.8-84.3 53.5 0 96.8 37.7 96.8 84.3s-43.2 84.4-96.7 84.4z"/></symbol><symbol viewBox="0 0 300 300" id="form-pass" xmlns="http://www.w3.org/2000/svg"><path d="M150 161.5c-8.6 0-15.6 7-15.6 15.6 0 5.8 3.1 10.8 7.8 13.5v17.3h15.6v-17.3c4.7-2.7 7.8-7.7 7.8-13.5 0-8.6-7-15.6-15.6-15.6zm0-75.7c-13.1 0-23.8 10.7-23.8 23.8v25.3h47.5v-25.3c.1-13.1-10.6-23.8-23.7-23.8z"/><path d="M150 0C67.2 0 0 67.2 0 150s67.2 150 150 150 150-67.2 150-150S232.8 0 150 0zm46.1 227.1h-92.2c-9.7 0-17.6-7.9-17.6-17.6v-56.9c0-8.5 6-15.6 14-17.3v-25.7c0-27.4 22.3-49.7 49.7-49.7 27.4 0 49.7 22.3 49.7 49.7v25.7c8 1.7 14 8.8 14 17.3v56.9c0 9.7-7.9 17.6-17.6 17.6z"/></symbol><symbol viewBox="0 0 300 300" id="form-tel" xmlns="http://www.w3.org/2000/svg"><circle cx="150" cy="226.1" r="11.7"/><path d="M182.7 68.2h-65.4c-3.7 0-6.6 2.8-6.6 6.3v123.6c0 3.5 3 6.3 6.6 6.3h65.4c3.7 0 6.6-2.8 6.6-6.3V74.6c0-3.5-2.9-6.4-6.6-6.4z"/><path d="M150 0C67.2 0 0 67.2 0 150s67.2 150 150 150 150-67.2 150-150S232.8 0 150 0zm58.4 224c0 11.5-9.3 20.7-20.7 20.7h-75.2c-11.5 0-20.7-9.3-20.7-20.7V75.3c0-11.5 9.3-20.7 20.7-20.7h75.2c11.5 0 20.7 9.3 20.7 20.7V224z"/></symbol><symbol viewBox="0 0 300 300" id="form-user" xmlns="http://www.w3.org/2000/svg"><path d="M150 0C67.2 0 0 67.2 0 150s67.2 150 150 150 150-67.2 150-150S232.8 0 150 0zm.5 220.8h-65c0-46.9 41.2-46.8 50.3-59.1l1-5.6c-12.8-6.5-21.9-22.2-21.9-40.5 0-24.2 15.7-43.7 35.1-43.7s35.1 19.6 35.1 43.7c0 18.2-8.9 33.8-21.6 40.4l1.2 6.3c10 11.7 49.8 12.4 49.8 58.5h-64z"/></symbol><symbol viewBox="0 0 512 473.8" id="icon-cart" xmlns="http://www.w3.org/2000/svg"><path d="M214.7 383.7c-24.8 0-45 20.2-45 45s20.2 45 45 45 45-20.2 45-45-20.2-45-45-45zm0 64.9c-11 0-19.9-8.9-19.9-19.9 0-11 8.9-19.9 19.9-19.9s19.9 8.9 19.9 19.9c0 11-8.9 19.9-19.9 19.9zm157.9-64.9c-24.8 0-45 20.2-45 45s20.2 45 45 45 45-20.2 45-45c.1-24.8-20.1-45-45-45zm0 64.9c-11 0-19.9-8.9-19.9-19.9 0-11 8.9-19.9 19.9-19.9 11 0 19.9 8.9 19.9 19.9 0 11-8.9 19.9-19.9 19.9zm133.7-358c-4.8-5.9-11.9-9.3-19.5-9.3H95.3L87.4 43c-1.7-8-7.1-14.7-14.6-18L17.6 1C11.2-1.7 3.8 1.2 1 7.6c-2.8 6.4.2 13.8 6.5 16.5l55.2 24 60.8 295.3c2.4 11.6 12.8 20.1 24.6 20.1h301.2c6.9 0 12.6-5.6 12.6-12.6 0-6.9-5.6-12.6-12.6-12.6H148.2l-7.4-35.9h310.9c11.9 0 22.2-8.4 24.6-20.1l35.2-170.7c1.5-7.4-.4-15.1-5.2-21zm-54.6 186.6H135.6l-35.2-170.7h386.4l-35.1 170.7z"/></symbol><symbol viewBox="0 0 496 496" id="icon-contacts-1" xmlns="http://www.w3.org/2000/svg"><path d="M452.6 335.6l-60.6-14v-15.8c6.2-4.9 11.4-11 15.3-17.9h8.7c22.1 0 40-17.9 40-40 0-8.9-3-17.1-8-23.8V192c0-52.9-43.1-96-96-96s-96 43.1-96 96v32.2c-5 6.7-8 14.8-8 23.8 0 22.1 17.9 40 40 40h8.7c4 6.9 9.2 12.9 15.3 17.9v15.8l-60.6 14c-4 .9-7.8 2.3-11.4 4.1V296c0-13.2-10.8-24-24-24H24c-13.2 0-24 10.8-24 24v144c0 13.2 10.8 24 24 24h64v16H72v16h424V390.2c0-26.2-17.8-48.7-43.4-54.6zm-134.4 1l19.5 14.6-19.7 11.9-4.2-25.4 4.4-1.1zm25.2 63.4h17.3l6.7 80h-30.6l6.6-80zm18.8-16h-20.5l-4.6-13.8 14.8-8.9 14.8 8.9-4.5 13.8zm4.1-32.7l19.5-14.6 5.6 1.3-5.1 25.4-20-12.1zM416 272h-2.1c1.3-5.1 2.1-10.5 2.1-16v-32c13.2 0 24 10.8 24 24s-10.8 24-24 24zm-64-160c44.1 0 80 35.9 80 80v19.4c-4.9-2.2-10.3-3.4-16-3.4v-16h-16v4.5c-5.6 4.8-12.2 8.3-19.3 10.1.3-.3.7-.6 1-.9l-11.3-11.3c-6 6-13.5 10.1-21.7 12.2.3-.3.7-.6 1-.9l-11.3-11.3c-8.7 8.7-20.7 13.7-33 13.7H304v-16h-16v16c-5.7 0-11.1 1.2-16 3.4V192c0-44.1 35.9-80 80-80zm-64 160c-13.2 0-24-10.8-24-24s10.8-24 24-24v32c0 5.5.8 10.9 2.1 16H288zm16-16v-32h1.4c7.8 0 15.4-1.5 22.6-4.3v4.3h9.4c7.8 0 15.4-1.5 22.6-4.3v4.3h9.4c10.7 0 21.3-2.9 30.6-8.1V256c0 5.6-1 11-2.8 16H352v16h35.7c-8.8 9.8-21.5 16-35.7 16-26.5 0-48-21.5-48-48zm48 64c8.5 0 16.6-1.7 24-4.7v8.7l-24 18-24-18v-8.7c7.4 3 15.5 4.7 24 4.7zm-97 31.2l43.1-9.9 7.9 47.6 17.1-10.2 4.8 14.3-7.3 87H280v-88h-16v88h-40v-17.5c9.3-3.3 16-12.1 16-22.5v-81.7c4.4-3.4 9.5-5.8 15-7.1zM152 464h56v16h-56v-16zM24 448c-4.4 0-8-3.6-8-8V296c0-4.4 3.6-8 8-8h192c4.4 0 8 3.6 8 8v144c0 4.4-3.6 8-8 8h-64v-16c0-17.6-14.4-32-32-32s-32 14.4-32 32v16H24zm80-16c0-8.8 7.2-16 16-16s16 7.2 16 16v48h-32v-48zm376 48h-40v-88h-16v88h-40.6l-7.2-87 4.8-14.3 16.7 10 9.4-47.2 42 9.7c18.2 4.2 31 20.2 31 39V480z"/><path d="M200 163.5c0-10.3-6.6-19.5-16.4-22.8L152 130.2v-10.4c9.7-7.3 16-18.8 16-31.8V72c0-22.1-17.9-40-40-40S88 49.9 88 72v16c0 13 6.3 24.5 16 31.8v10.4l-31.6 10.5C62.6 144 56 153.2 56 163.5V208h144v-44.5zM104 72c0-13.2 10.8-24 24-24s24 10.8 24 24v16c0 13.2-10.8 24-24 24s-24-10.8-24-24V72zm80 120H72v-28.5c0-3.4 2.2-6.5 5.5-7.6l42.5-14.2v-14.6c2.6.5 5.3.8 8 .8s5.4-.3 8-.8v14.6l42.5 14.2c3.3 1.1 5.5 4.2 5.5 7.6V192z"/><path d="M128 256c70.6 0 128-57.4 128-128S198.6 0 128 0 0 57.4 0 128s57.4 128 128 128zm0-240c61.8 0 112 50.2 112 112s-50.2 112-112 112S16 189.8 16 128 66.2 16 128 16zm168 32h16v16h-16V48zm48 0h16v16h-16V48zm48 0h16v16h-16V48z"/></symbol><symbol viewBox="0 0 290.6 290.6" id="icon-contacts-2" xmlns="http://www.w3.org/2000/svg"><path d="M276.6 51.6h-89.1v-9.4c0-23.3-18.9-42.2-42.2-42.2s-42.2 18.9-42.2 42.2c0 3.2.4 6.4 1.1 9.4H14.1C6.3 51.6 0 57.9 0 65.6v178.1c0 7.8 6.3 14.1 14.1 14.1h89.1v23.4H70.3v9.4h150v-9.4h-32.8v-23.4h89.1c7.8 0 14.1-6.3 14.1-14.1V65.6c-.1-7.7-6.4-14-14.1-14zm-98.5 229.7h-65.6v-23.4h65.6v23.4zm103.2-37.5c0 2.6-2.1 4.7-4.7 4.7H14.1c-2.6 0-4.7-2.1-4.7-4.7V225h271.8v18.8zm0-28.2H9.4v-150c0-2.6 2.1-4.7 4.7-4.7h93.5c6.9 13.9 21.2 23.4 37.7 23.4h14.1V75h-14.1c-18.1 0-32.8-14.7-32.8-32.8s14.7-32.8 32.8-32.8 32.8 14.7 32.8 32.8v11.7c0 3.9-3.2 7-7 7s-7-3.2-7-7V42.2c0-10.3-8.4-18.8-18.8-18.8s-18.8 8.4-18.8 18.8S134.9 61 145.3 61c3.6 0 7-1 9.9-2.8 1.9 7 8.3 12.2 15.9 12.2 6.5 0 12.1-3.9 14.8-9.4h90.7c2.6 0 4.7 2.1 4.7 4.7v149.9zM154.7 42.2c0 5.2-4.2 9.4-9.4 9.4s-9.4-4.2-9.4-9.4 4.2-9.4 9.4-9.4 9.4 4.2 9.4 9.4z"/><path d="M157 236.7c0-6.5-5.3-11.7-11.7-11.7s-11.7 5.3-11.7 11.7c0 6.5 5.3 11.7 11.7 11.7 6.5 0 11.7-5.2 11.7-11.7zm-11.7 2.4c-1.3 0-2.3-1.1-2.3-2.3s1.1-2.3 2.3-2.3 2.3 1.1 2.3 2.3-1 2.3-2.3 2.3zm-75-42.2h150V93.8h-150v103.1zm15.4-9.4l46.1-50 13.4 8.6 13.9-8.3 45.8 49.7H85.7zm125.2-7.3l-43.7-47.3 43.7-26.2v73.5zm-12.2-77.1l-53.3 32-49.8-32h103.1zm-119 .9l44.1 28.4-44.1 47.8V104z"/></symbol><symbol viewBox="0 0 496 496" id="icon-contacts-3" xmlns="http://www.w3.org/2000/svg"><path d="M64 0v256h368V0H64zm337.3 16l-92.2 74.1C296.4 69.7 273.8 56 248 56s-48.4 13.7-61.1 34.1L94.7 16h306.6zM80 24.7l99 79.7 2-2.4c-3.2 8.1-5 16.9-5 26.1 0 3.9.4 7.8 1 11.6l-97 90.1V24.7zM92.4 240l89.7-83.2c11.1 25.4 36.5 43.2 66 43.2h24v-16h-24c-30.9 0-56-25.1-56-56s25.1-56 56-56 56 25.1 56 56v20c0 6.6-5.4 12-12 12s-12-5.4-12-12v-20c0-17.6-14.4-32-32-32s-32 14.4-32 32 14.4 32 32 32h18.7c4.5 9.5 14.2 16 25.3 16 11.2 0 20.8-6.6 25.3-16.2l86.3 80.2H92.4zM264 128v16h-16c-8.8 0-16-7.2-16-16s7.2-16 16-16 16 7.2 16 16zm152 101.6l-96-89.1V128c0-9.2-1.8-18-5-26.2l2 2.5 99-79.6v204.9zM352 292l-90 100h42v72h16v-88h-22l54-60 54 60h-22v88h16v-72h42zm-160 84v-72h-16v88h22l-54 60-54-60h22v-88H96v72H54l90 100 90-100zM96 272h16v16H96zm80 0h16v16h-16zm128 208h16v16h-16zm80 0h16v16h-16z"/></symbol><symbol viewBox="0 0 368 368" id="icon-contacts-4" xmlns="http://www.w3.org/2000/svg"><path d="M312 0H56C25.1 0 0 25.1 0 56v256c0 30.9 25.1 56 56 56v-.7c6.5.7 18.4.7 40 .7h216c30.9 0 56-25.1 56-56V56c0-30.9-25.1-56-56-56zm40 312c0 22.1-17.9 40-40 40H56c-22.1 0-40-17.9-40-40V56c0-22.1 17.9-40 40-40h256c22.1 0 40 17.9 40 40v256z"/><path d="M184 64c-66.2 0-120 53.8-120 120s53.8 120 120 120 120-53.8 120-120S250.2 64 184 64zm0 224c-57.3 0-104-46.7-104-104S126.7 80 184 80s104 46.7 104 104-46.7 104-104 104z"/><path d="M183.6 111.6c-39.9 0-72.4 32.5-72.4 72.4s32.5 72.4 72.4 72.4S256 223.9 256 184s-32.5-72.4-72.4-72.4zm0 128.8c-31.1 0-56.4-25.3-56.4-56.4s25.3-56.4 56.4-56.4S240 152.9 240 184s-25.3 56.4-56.4 56.4z"/><circle cx="304" cy="64" r="16"/></symbol><symbol viewBox="0 0 371.8 512" id="icon-form-pass" xmlns="http://www.w3.org/2000/svg"><path d="M185.9 276.7c-28 0-50.8 22.8-50.8 50.8 0 13.9 5.8 27.3 15.9 36.9v45.9c0 19.3 15.7 35 35 35s35-15.7 35-35v-45.9c10.1-9.6 15.9-23 15.9-36.9-.2-28-23-50.8-51-50.8zm18 69.9c-4.9 4.6-7.6 11-7.6 17.5v46.2c0 5.7-4.6 10.3-10.3 10.3-5.7 0-10.3-4.6-10.3-10.3v-46.2c0-6.6-2.8-13-7.6-17.5-5.3-5-8.2-11.8-8.2-19.1 0-14.4 11.8-26.2 26.2-26.2s26.2 11.8 26.2 26.2c-.2 7.3-3.1 14.1-8.4 19.1z"/><path d="M334.9 209.9H298v-97.8C298 50.3 247.7 0 185.9 0S73.8 50.3 73.8 112.1v97.8H36.9C16.6 209.9 0 226.4 0 246.8v228.3C0 495.4 16.6 512 36.9 512h298c20.4 0 36.9-16.6 36.9-36.9V246.8c0-20.4-16.6-36.9-36.9-36.9zM98.4 112.1c0-48.2 39.2-87.5 87.5-87.5 48.2 0 87.5 39.2 87.5 87.5v97.8h-175v-97.8zm248.8 363c0 6.8-5.5 12.3-12.3 12.3h-298c-6.8 0-12.3-5.5-12.3-12.3V246.8c0-6.8 5.5-12.3 12.3-12.3h298c6.8 0 12.3 5.5 12.3 12.3v228.3z"/></symbol><symbol viewBox="0 0 471.7 414.7" id="icon-heart" xmlns="http://www.w3.org/2000/svg"><path d="M433.6 38.5C408.9 13.8 376.2.3 341.3.3s-67.7 13.6-92.4 38.3L236 51.5l-13.1-13.1C198.2 13.7 165.3 0 130.4 0 95.6 0 62.8 13.6 38.2 38.2 13.5 62.9-.1 95.7 0 130.6c0 34.9 13.7 67.6 38.4 92.3l187.8 187.8c2.6 2.6 6.1 4 9.5 4s6.9-1.3 9.5-3.9l188.2-187.5c24.7-24.7 38.3-57.5 38.3-92.4.1-34.9-13.4-67.7-38.1-92.4zm-19.2 165.7l-178.7 178L57.4 203.9C37.8 184.3 27 158.3 27 130.6s10.7-53.7 30.3-73.2c19.5-19.5 45.5-30.3 73.1-30.3 27.7 0 53.8 10.8 73.4 30.4l22.6 22.6c5.3 5.3 13.8 5.3 19.1 0l22.4-22.4c19.6-19.6 45.7-30.4 73.3-30.4 27.6 0 53.6 10.8 73.2 30.3 19.6 19.6 30.3 45.6 30.3 73.3.1 27.7-10.7 53.7-30.3 73.3z"/></symbol><symbol viewBox="0 0 473.7 416.7" id="icon-heart-filled" xmlns="http://www.w3.org/2000/svg"><path d="M434.6 39.5c-24.7-24.7-57.4-38.2-92.3-38.2s-67.7 13.6-92.4 38.3L237 52.5l-13.1-13.1C199.2 14.7 166.3 1 131.4 1 96.6 1 63.8 14.6 39.2 39.2 14.5 63.9.9 96.7 1 131.6c0 34.9 13.7 67.6 38.4 92.3l187.8 187.8c2.6 2.6 6.1 4 9.5 4s6.9-1.3 9.5-3.9l188.2-187.5c24.7-24.7 38.3-57.5 38.3-92.4.1-34.9-13.4-67.7-38.1-92.4z" stroke="#000" stroke-width="2" stroke-miterlimit="10"/></symbol><symbol viewBox="0 0 512 512" id="icon-pay-1" xmlns="http://www.w3.org/2000/svg"><path d="M156 370c-5.5 0-10 4.5-10 10s4.5 10 10 10 10-4.5 10-10-4.5-10-10-10z"/><path d="M450.1 190l58.9-58.9c2.5-2.5 3.5-6.1 2.6-9.5-.8-3.4-3.4-6.1-6.8-7.1L361.5 70.2C348.5 28.6 310.1 0 266 0c-41 0-77.6 25-92.8 62.6L7 114.5c-3.3 1-5.9 3.8-6.7 7.2-.8 3.4.2 7 2.6 9.5l60.5 60.5-38.1 63.6c-1.6 2.6-1.9 5.8-.8 8.6 1.1 2.8 3.3 5.1 6.2 6L86 288.2V442c0 4.2 2.6 7.9 6.5 9.4 33.8 12.7 159.5 59.8 160.2 60.1 2 .7 4.2.8 6.4.1h.1l180-60c4.1-1.4 6.8-5.2 6.8-9.5v-158l59-18.5c3.3-1 5.9-3.8 6.7-7.2.8-3.4-.2-7-2.6-9.5l-59-58.9zM366 100c0-2.5-.1-5.1-.3-7.6l117.5 36.3-49.9 49.9-81.5-27.2C361 136 366 118.2 366 100zM190.3 74c11.1-32.3 41.5-54 75.7-54 36.8 0 68.7 24.9 77.6 60.5 1.6 6.3 2.4 12.9 2.4 19.5 0 18.6-6.2 36-17.8 50.4-15.3 18.8-38 29.6-62.2 29.6-26.2 0-50.8-12.9-65.7-34.4C191 132.2 186 116.4 186 100c0-8.9 1.5-17.7 4.3-26zM28.8 128.6l138.3-43.1c-.7 4.8-1.1 9.6-1.1 14.5 0 16.1 3.8 31.7 11.1 45.8l-98.4 32.8-49.9-50zm20 126.1L80.4 202 241 255.5l-31.6 52.7c-17.2-5.7-142.3-47.4-160.6-53.5zM246 487.6l-140-52.5V294.9c110.1 36.5 104.8 35.4 107.8 35.4 3.4 0 6.7-1.8 8.6-4.9l23.6-39.3v201.5zm10-248.1L107.6 190l80.8-26.9c18.9 23.2 47.4 36.9 77.6 36.9 27.9 0 54.2-11.5 73.1-31.8l65.3 21.8L256 239.5zm170 195.3l-160 53.3V278.5l35.5 44.3c2.6 3.2 6.9 4.5 10.8 3.3L426 290.4v144.4zM312.8 305l-40-50 160.5-53.5 50 50L312.8 305z"/><path d="M219.5 392.2l-22.2-8.3c-5.2-1.9-10.9.7-12.9 5.9-1.9 5.2.7 10.9 5.9 12.9l22.2 8.3c5.2 1.9 10.9-.7 12.9-5.9 1.9-5.2-.7-11-5.9-12.9zm0 42.7l-60-22.5c-5.2-1.9-10.9.7-12.9 5.9s.7 10.9 5.9 12.9l60 22.5c1.2.4 2.3.6 3.5.6 4 0 7.9-2.5 9.4-6.5 1.9-5.2-.7-10.9-5.9-12.9zm103.6-372c-3.9-3.9-10.2-3.9-14.1 0l-53 53-12.9-12.9c-3.9-3.9-10.2-3.9-14.1 0s-3.9 10.2 0 14.1l20 20c3.9 3.9 10.2 3.9 14.1 0l60-60c3.9-3.9 3.9-10.3 0-14.2z"/></symbol><symbol viewBox="0 0 512 512" id="icon-pay-2" xmlns="http://www.w3.org/2000/svg"><path d="M172.6 391.9c-.1-.6-.3-1.3-.6-1.9-.3-.6-.6-1.2-.9-1.7-.4-.5-.8-1.1-1.2-1.5s-1-.9-1.5-1.2c-.5-.4-1.1-.7-1.7-.9-.6-.3-1.2-.5-1.9-.6-1.3-.3-2.6-.3-3.9 0-.6.1-1.3.3-1.9.6-.6.3-1.2.6-1.7.9-.6.4-1.1.8-1.5 1.2s-.9 1-1.2 1.5c-.4.5-.7 1.1-.9 1.7-.3.6-.4 1.2-.6 1.9-.1.6-.2 1.3-.2 2 0 .6.1 1.3.2 2 .1.6.3 1.3.6 1.9.3.6.6 1.2.9 1.7.4.5.8 1.1 1.2 1.5s1 .9 1.5 1.2c.5.4 1.1.7 1.7.9.6.3 1.2.5 1.9.6.6.1 1.3.2 1.9.2s1.3-.1 1.9-.2c.6-.1 1.3-.3 1.9-.6.6-.3 1.2-.6 1.7-.9.6-.4 1.1-.8 1.5-1.2s.9-1 1.2-1.5c.4-.5.7-1.1.9-1.7.3-.6.4-1.2.6-1.9s.2-1.3.2-2 0-1.4-.1-2z"/><path d="M460 395c0-.1-.1-.2-.1-.3-9.2-21.5-30.8-29.5-56.3-20.8l-69.7 19.3c-4-12.2-14.1-22.6-28.3-27.9-.1 0-.2-.1-.3-.1l-76.6-26c-6.4-8.2-26.3-29.3-63.7-29.3-26.1 0-49.2 17.9-62.5 37.5H10c-5.5 0-10 4.5-10 10v126.1c0 5.5 4.5 10 10 10h59.5c5.5 0 10-4.5 10-10v-8.6h27.9c5.5 0 10-4.5 10-10V462c16.3 1.4 21.6 4.5 36.5 13.1 11.5 6.6 28.8 16.6 60.1 30.7.1.1.3.1.4.2 6 2.4 17.7 6.1 32.2 6.1 10.1 0 21.4-1.8 33.1-7.1l154-55.1c.3-.1.5-.2.8-.3 14.7-7 36.6-26 25.5-54.6zM59.5 473.5H20V367.4h39.5v106.1zm37.8-18.7H79.5v-87.4h17.9v87.4zm329.2-23.7l-153.9 55.1c-.1 0-.3.1-.5.2-.1.1-.3.1-.4.2-21.4 9.9-41.8 4-49.8.8-30.2-13.6-46.3-22.9-58.1-29.7-16.4-9.4-24.2-14-46.5-15.8v-80.5c9.5-15.5 27.9-31.4 47.7-31.4 34 0 48.4 22.1 49 23 1.2 2 3.1 3.5 5.3 4.2l79.5 27c12.7 4.8 19.4 15.6 16.3 26.5-1.4 5-4.7 9.2-9.3 11.7-4.5 2.5-9.7 3.1-14.7 1.8l-89.6-28.4c-5.3-1.7-10.9 1.2-12.6 6.5-1.7 5.3 1.2 10.9 6.5 12.6l89.7 28.4c.1 0 .2.1.3.1 3.6 1 7.2 1.5 10.9 1.5 6.6 0 13.2-1.7 19.2-5 9.2-5.1 15.9-13.5 18.8-23.7l.6-2.4L410 393c10.8-3.7 25.1-5 31.4 9.6 6.6 16.9-10.5 26.4-14.9 28.5zm-67.4-299.6c-.1-.6-.3-1.3-.6-1.9-.3-.6-.5-1.2-.9-1.7-.4-.6-.8-1.1-1.2-1.5s-1-.9-1.5-1.2c-.5-.4-1.1-.7-1.7-.9-.6-.3-1.2-.4-1.9-.6-1.3-.3-2.6-.3-3.9 0-.6.1-1.3.3-1.9.6-.6.3-1.2.6-1.7.9-.5.4-1.1.8-1.5 1.2s-.9 1-1.2 1.5c-.4.5-.7 1.1-.9 1.7-.3.6-.5 1.2-.6 1.9-.1.6-.2 1.3-.2 1.9s.1 1.3.2 1.9c.1.6.3 1.3.6 1.9.3.6.6 1.2.9 1.7.4.6.8 1.1 1.2 1.5s1 .9 1.5 1.2c.5.4 1.1.7 1.7.9.6.3 1.2.4 1.9.6s1.3.2 2 .2c.6 0 1.3-.1 2-.2.6-.1 1.3-.3 1.9-.6.6-.3 1.2-.6 1.7-.9.5-.4 1.1-.8 1.5-1.2s.9-1 1.2-1.5c.4-.5.7-1.1.9-1.7.3-.6.5-1.2.6-1.9.1-.6.2-1.3.2-1.9s-.2-1.2-.3-1.9z"/><path d="M502 33.9h-59.5c-5.5 0-10 4.5-10 10v8.6h-27.9c-5.5 0-10 4.5-10 10v2.9c-16.3-1.4-21.6-4.5-36.5-13.1-11.5-6.6-28.8-16.6-60.1-30.7-.1-.1-.3-.1-.4-.2-10.2-4-36.8-11.9-65.3 1l-40.2 14.4L158.2 3c-3.9-4-10.3-4-14.2 0L32.7 114.3c-3.6 3.6-4.3 9.8 0 14.1L223 318.7c3 3 10.2 4 14.1 0L338.8 217c2.6.2 5.4.4 8.2.4 26.1 0 49.2-17.9 62.5-37.5H502c5.5 0 10-4.5 10-10v-126c0-5.5-4.5-10-10-10zm-350.9-9.7L173.9 47c-6.8 4.2-14.6 6.4-22.8 6.4-8.2 0-16-2.2-22.8-6.4l22.8-22.8zm-74.4 120l-22.8-22.8 22.8-22.8c4.2 6.8 6.4 14.6 6.4 22.8 0 8.2-2.2 16-6.4 22.8zM230 297.5l-22.8-22.8c13.9-8.6 31.7-8.6 45.6 0L230 297.5zm37.2-37.2c-22.1-16-52.3-16-74.4 0L91.1 158.6c7.8-10.7 12-23.6 12-37.2 0-13.6-4.2-26.5-12-37.2l22.8-22.8c10.7 7.8 23.6 12 37.2 12 13.6 0 26.5-4.2 37.2-12L209.9 83c-4.7.7-9.2 2.2-13.5 4.6-7.2 4-12.8 10-16.3 17.2-11.3 2.1-21.7 7.6-29.9 15.7-22.2 22.2-22.2 58.4 0 80.6 11.1 11.1 25.7 16.7 40.3 16.7 14.6 0 29.2-5.6 40.3-16.7 7.2-7.2 12.3-16.1 14.8-25.8l33.8 11.5c-3.8 17.6.1 36.1 10.6 50.7l-22.8 22.8zM206.4 162c.1 0 .2.1.3.1l20 6.8c-1.5 6.8-4.9 13.1-10 18.1-14.4 14.4-37.9 14.4-52.3 0-14.4-14.4-14.4-37.9 0-52.3 3.5-3.5 7.6-6.2 12.1-8 1.8 15.3 12.9 29 29.9 35.3zm98.1 61.1c-3.9-6.3-6-13.5-6.4-20.8 4.8 3.5 10.6 6.9 17.6 9.5l-11.2 11.3zm90.2-57.1c-9.5 15.5-27.9 31.4-47.7 31.4-3.7 0-7.2-.3-10.4-.7-21.6-3.1-33.2-15.4-37-20.3-.2-.3-1.1-1.4-1.2-1.6-1.2-2.1-3.1-3.8-5.5-4.6l-79.5-27c-12.7-4.8-19.4-15.6-16.3-26.5 1.4-5 4.7-9.1 9.2-11.7 4.5-2.5 9.7-3.1 14.7-1.8l89.6 28.4c5.3 1.7 10.9-1.2 12.6-6.5 1.7-5.3-1.2-10.9-6.5-12.6L245.2 90l-.6-.6-36.9-36.9 31.7-11.4c.1 0 .2-.1.3-.1h.1c.1-.1.3-.1.4-.2 21.4-9.9 41.8-4 49.8-.8 30.2 13.6 46.3 22.9 58.1 29.7 16.4 9.4 24.2 14 46.5 15.8V166zm37.8-6h-17.9V72.5h17.9V160zm59.5 0h-39.5V53.9H492V160z"/></symbol><symbol viewBox="0 0 490 490" id="icon-search" xmlns="http://www.w3.org/2000/svg"><path d="M484 455.2L366.2 337.4c29.2-35.6 46.8-81.2 46.8-130.9C413 92.5 320.5 0 206.5 0 92.4 0 0 92.5 0 206.5S92.4 413 206.5 413c49.7 0 95.2-17.5 130.8-46.7L455.1 484c8 8 20.9 8 28.9 0 8-7.9 8-20.9 0-28.8zm-277.5-83.3C115.2 371.9 41 297.7 41 206.5S115.2 41 206.5 41C297.7 41 372 115.3 372 206.5s-74.3 165.4-165.5 165.4z"/></symbol><symbol viewBox="0 0 294.8 294.8" id="icon-user" xmlns="http://www.w3.org/2000/svg"><path d="M251.7 43.2c-57.5-57.5-151-57.5-208.5 0C23 63.3 9.2 88.7 3.3 116.4c-5.8 27-3.9 55 5.5 81 1.1 3.1 4.6 4.7 7.7 3.6 3.1-1.1 4.7-4.6 3.6-7.7-8.6-23.8-10.3-49.6-5-74.4 5.4-25.5 18.1-48.8 36.6-67.3 52.8-52.8 138.7-52.8 191.5 0 25.1 25.1 39.2 58.6 39.6 94.1.4 35.5-12.8 69.2-37.2 94.9l-.9.9c-.5.5-1 1.1-1.5 1.6-52.8 52.8-138.7 52.8-191.5 0-.3-.3-.6-.6-.8-.9v-1.6c0-1.2 0-2.4.1-3.6 0-.4 0-.8.1-1.2 0-.8.1-1.6.1-2.4 0-.5.1-.9.1-1.4.1-.7.1-1.4.2-2.1.1-.5.1-1 .2-1.5.1-.7.2-1.4.3-2l.3-1.5c.1-.7.2-1.3.3-2l.3-1.5c.1-.6.3-1.3.4-1.9.1-.5.2-1 .4-1.5.2-.6.3-1.3.5-1.9.1-.5.3-1 .4-1.5.2-.6.3-1.2.5-1.8.2-.5.3-1 .5-1.5l.6-1.8c.2-.5.4-1 .5-1.5.2-.6.4-1.2.7-1.8l.6-1.5c.2-.6.5-1.2.7-1.7l.6-1.5c.3-.6.5-1.1.8-1.7.2-.5.5-1 .7-1.4.3-.6.6-1.1.8-1.7.2-.5.5-.9.7-1.4.3-.6.6-1.1.9-1.6.3-.5.5-.9.8-1.4.3-.5.6-1.1 1-1.6.3-.4.5-.9.8-1.3.3-.5.7-1.1 1-1.6.3-.4.6-.9.9-1.3.4-.5.7-1 1.1-1.5.3-.4.6-.9.9-1.3.4-.5.8-1 1.1-1.5.3-.4.6-.8 1-1.2l1.2-1.5c.3-.4.7-.8 1-1.2.4-.5.8-1 1.3-1.4.3-.4.7-.8 1-1.2.4-.5.9-.9 1.3-1.4l1.1-1.1 1.4-1.4 1.1-1.1c.5-.5 1-.9 1.5-1.3.4-.3.7-.7 1.1-1 .5-.4 1-.9 1.5-1.3.4-.3.7-.6 1.1-1 .5-.4 1.1-.9 1.6-1.3.4-.3.8-.6 1.1-.9.6-.4 1.2-.9 1.7-1.3.4-.3.7-.5 1.1-.8.6-.5 1.3-.9 2-1.3.3-.2.6-.4 1-.6.9-.6 1.7-1.1 2.6-1.6.1-.1.3-.2.4-.3 1-.6 2-1.2 3.1-1.8.4-.2.7-.4 1.1-.6.7-.4 1.4-.7 2.1-1.1.4-.2.9-.4 1.4-.7.6-.3 1.1-.6 1.7-.8 10.9 10.4 25.4 16.3 40.4 16.3s29.6-5.9 40.4-16.3c21.2 9.8 38.6 27.5 48 48.9 1.3 3 4.9 4.4 7.9 3.1 3-1.3 4.4-4.9 3.1-7.9-10.3-23.4-28.3-42.2-51-53.5 6.6-9.7 10.2-21.1 10.2-32.9 0-32.3-26.3-58.6-58.6-58.6-3.3 0-6 2.7-6 6s2.7 6 6 6c25.7 0 46.6 20.9 46.6 46.6 0 11.5-4.3 22.6-12 31.2-8.9 9.8-21.5 15.4-34.6 15.4s-25.7-5.6-34.6-15.4c-7.8-8.6-12-19.7-12-31.2 0-12.5 4.9-24.3 13.8-33.1 2.4-2.3 2.4-6.1 0-8.5-2.3-2.4-6.1-2.4-8.5 0C95 80 88.8 94.8 88.8 110.6c0 11.8 3.6 23.2 10.1 32.9-.1 0-.1.1-.2.1-.5.2-.9.5-1.4.7-.7.4-1.4.7-2.1 1.1-.5.3-1 .6-1.5.8-.7.4-1.3.7-2 1.1l-1.5.9c-.6.4-1.2.8-1.9 1.2-.5.3-1 .7-1.5 1l-1.8 1.2c-.5.3-1 .7-1.5 1-.6.4-1.1.8-1.7 1.2-.5.4-1 .7-1.4 1.1-.6.4-1.1.9-1.6 1.3s-.9.8-1.4 1.1c-.5.4-1.1.9-1.6 1.3s-.9.8-1.3 1.2c-.5.5-1 .9-1.5 1.4-.4.4-.9.8-1.3 1.2l-1.5 1.5c-.4.4-.8.8-1.2 1.3-.5.5-1 1-1.4 1.5-.4.4-.8.9-1.2 1.3-.5.5-.9 1.1-1.4 1.6-.4.4-.7.9-1.1 1.3-.5.6-.9 1.1-1.4 1.7-.3.4-.7.8-1 1.3-.5.6-.9 1.3-1.4 1.9l-.9 1.2c-.6.8-1.2 1.7-1.7 2.5-.1.2-.3.4-.5.7-.7 1.1-1.4 2.1-2.1 3.2-.2.4-.4.8-.7 1.1-.4.7-.9 1.4-1.3 2.2-.3.5-.5.9-.8 1.4-.4.7-.7 1.3-1.1 2-.3.5-.5 1-.8 1.5-.3.6-.7 1.3-1 1.9-.2.5-.5 1-.7 1.6-.3.6-.6 1.3-.9 1.9-.2.5-.5 1.1-.7 1.6-.3.6-.5 1.3-.8 1.9-.2.5-.4 1.1-.6 1.6-.2.7-.5 1.3-.7 2-.2.6-.4 1.1-.6 1.7-.2.7-.4 1.3-.7 2-.2.6-.4 1.1-.5 1.7-.2.7-.4 1.3-.6 2-.2.6-.3 1.1-.5 1.7-.2.7-.3 1.4-.5 2.1-.1.6-.3 1.2-.4 1.7-.2.7-.3 1.4-.4 2.1-.1.6-.2 1.2-.3 1.7-.1.7-.2 1.4-.4 2.2-.1.6-.2 1.1-.3 1.7-.1.7-.2 1.5-.3 2.2-.1.6-.1 1.1-.2 1.7-.1.8-.2 1.6-.2 2.4 0 .5-.1 1.1-.1 1.6-.1.9-.1 1.8-.1 2.7 0 .4-.1.9-.1 1.3 0 1.3-.1 2.7-.1 4 0 1.4 0 2.8.1 4.3 0 .4.1.7.1 1v.1l.3.9v.1c.1.3.3.6.5.9 0 0 0 .1.1.1.2.3.4.5.6.8v.1l.8.8c.6.6 1.2 1.3 1.8 1.9 28.7 28.7 66.5 43.1 104.2 43.1s75.5-14.4 104.2-43.1c.6-.6 1.2-1.3 1.8-1.9l.8-.8c26.6-28 41-64.6 40.5-103.3.1-38.7-15.3-75.1-42.6-102.4z"/><path d="M0 145.6c-.4 38.6 13.9 75.3 40.5 103.3l.8.8c.6.6 1.2 1.3 1.8 1.9 28.7 28.7 66.5 43.1 104.2 43.1s75.5-14.4 104.2-43.1c.6-.6 1.2-1.3 1.8-1.9l.8-.8v-.1c.2-.2.4-.5.6-.8 0 0 0-.1.1-.1.2-.3.3-.6.5-.9v-.1l.3-.9v-.1c.1-.3.1-.7.1-1 .1-1.5.1-2.9.1-4.3 0-1.3 0-2.7-.1-4 0-.4 0-.9-.1-1.3 0-.9-.1-1.8-.1-2.7 0-.5-.1-1.1-.1-1.6-.1-.8-.1-1.6-.2-2.4-.1-.6-.1-1.1-.2-1.7-.1-.8-.2-1.5-.3-2.2-.1-.6-.2-1.1-.3-1.7-.1-.7-.2-1.4-.4-2.2-.1-.6-.2-1.2-.3-1.7-.1-.7-.3-1.4-.4-2.1-.1-.6-.3-1.2-.4-1.7-.2-.7-.3-1.4-.5-2.1-.1-.6-.3-1.1-.5-1.7-.2-.7-.4-1.4-.6-2-.2-.6-.3-1.1-.5-1.7-.2-.7-.4-1.3-.6-2-.2-.6-.4-1.1-.6-1.7-.2-.7-.5-1.3-.7-2-.2-.6-.4-1.1-.6-1.6-.3-.7-.5-1.3-.8-1.9-.2-.5-.4-1.1-.7-1.6-.3-.6-.6-1.3-.9-1.9-.2-.5-.5-1-.7-1.6-.3-.7-.6-1.3-1-1.9-.3-.5-.5-1-.8-1.5-.4-.7-.7-1.3-1.1-2-.3-.5-.5-.9-.8-1.4-.4-.7-.9-1.4-1.3-2.2-.2-.4-.4-.8-.7-1.1-.7-1.1-1.4-2.1-2.1-3.2-.1-.2-.3-.4-.5-.7-.6-.8-1.1-1.7-1.7-2.5l-.9-1.2c-.5-.6-.9-1.3-1.4-1.9-.3-.4-.7-.9-1-1.3-.5-.6-.9-1.1-1.4-1.7-.4-.4-.7-.9-1.1-1.3-.5-.5-.9-1.1-1.4-1.6-.4-.4-.8-.9-1.2-1.3-.5-.5-1-1-1.4-1.5-.4-.4-.8-.8-1.2-1.3l-1.5-1.5c-.4-.4-.9-.8-1.3-1.2-.5-.5-1-.9-1.5-1.4-.4-.4-.9-.8-1.3-1.2-.5-.5-1-.9-1.6-1.3-.5-.4-.9-.8-1.4-1.1-.5-.4-1.1-.9-1.6-1.3s-.9-.7-1.4-1.1c-.6-.4-1.1-.8-1.7-1.2-.5-.3-1-.7-1.5-1l-1.8-1.2c-.5-.3-1-.7-1.5-1-.6-.4-1.2-.8-1.9-1.2l-1.5-.9c-.6-.4-1.3-.8-2-1.1-.5-.3-1-.6-1.5-.8-.7-.4-1.4-.7-2.1-1.1-.5-.2-.9-.5-1.4-.7-.1 0-.1-.1-.2-.1 6.6-9.7 10.1-21.1 10.1-32.9 0-15.8-6.2-30.6-17.4-41.7-2.4-2.3-6.2-2.3-8.5 0-2.3 2.4-2.3 6.2 0 8.5 8.9 8.8 13.8 20.6 13.8 33.1 0 11.5-4.3 22.6-12 31.2-8.9 9.8-21.5 15.4-34.6 15.4s-25.7-5.6-34.6-15.4c-7.8-8.6-12-19.7-12-31.2 0-25.7 20.9-46.6 46.6-46.6 3.3 0 6-2.7 6-6s-2.7-6-6-6c-32.3 0-58.6 26.3-58.6 58.6 0 11.8 3.6 23.2 10.2 32.9-22.7 11.3-40.7 30.1-51 53.5-1.3 3 0 6.6 3.1 7.9 3 1.3 6.6 0 7.9-3.1 9.4-21.4 26.8-39.1 48-48.9 10.9 10.4 25.4 16.3 40.4 16.3s29.6-5.9 40.4-16.3c.6.3 1.1.5 1.7.8.5.2.9.4 1.4.7.7.4 1.4.7 2.1 1.1.4.2.7.4 1.1.6 1 .6 2.1 1.2 3.1 1.8.1.1.3.2.4.3.9.5 1.7 1.1 2.6 1.6.3.2.6.4 1 .6.7.4 1.3.9 2 1.3.4.3.7.5 1.1.8.6.4 1.2.8 1.7 1.3.4.3.8.6 1.1.9.5.4 1.1.8 1.6 1.3.4.3.8.6 1.1 1 .5.4 1 .9 1.5 1.3.4.3.7.7 1.1 1 .5.4 1 .9 1.5 1.3.4.3.7.7 1.1 1.1l1.4 1.4 1.1 1.1c.4.5.9.9 1.3 1.4.3.4.7.8 1 1.2.4.5.8 1 1.3 1.4.3.4.7.8 1 1.2l1.2 1.5c.3.4.6.8 1 1.2.4.5.8 1 1.1 1.5.3.4.6.8.9 1.3.4.5.7 1 1.1 1.5.3.4.6.9.9 1.3.3.5.7 1.1 1 1.6.3.4.6.9.8 1.3.3.5.6 1.1 1 1.6.3.5.5.9.8 1.4.3.5.6 1.1.9 1.6.2.5.5.9.7 1.4.3.6.6 1.1.8 1.7.2.5.5 1 .7 1.4.3.6.5 1.1.8 1.7l.6 1.5c.2.6.5 1.2.7 1.7l.6 1.5c.2.6.4 1.2.7 1.8.2.5.4 1 .5 1.5l.6 1.8c.2.5.3 1 .5 1.5.2.6.4 1.2.5 1.8.1.5.3 1 .4 1.5.2.6.3 1.2.5 1.9.1.5.3 1 .4 1.5.1.6.3 1.3.4 1.9l.3 1.5c.1.7.2 1.3.3 2l.3 1.5c.1.7.2 1.3.3 2 .1.5.1 1 .2 1.5.1.7.1 1.4.2 2.1 0 .5.1.9.1 1.4.1.8.1 1.6.1 2.4 0 .4 0 .8.1 1.2 0 1.2.1 2.4.1 3.6v1.6c-.3.3-.5.6-.8.9-52.8 52.8-138.7 52.8-191.5 0-.5-.5-1-1.1-1.5-1.6l-.9-.9c-24.4-25.7-37.6-59.4-37.2-94.9.4-35.5 14.5-69 39.6-94.1 52.8-52.8 138.7-52.8 191.5 0 18.5 18.5 31.2 41.8 36.6 67.3 5.3 24.8 3.6 50.6-5 74.4-1.1 3.1.5 6.6 3.6 7.7 3.1 1.1 6.6-.5 7.7-3.6 9.4-26 11.2-54 5.5-81-5.9-27.8-19.7-53.1-39.9-73.3-57.5-57.5-151-57.5-208.5 0C15.8 70.5.5 106.9 0 145.6z"/></symbol><symbol viewBox="0 0 270.4 98.1" id="iconSheer"><path d="M175.1 51.8c.2 1.2.3 2.1.5 3 2 8.4 8.6 14 17.2 14.7 7.6.6 13.6-2.3 18-8.5 2.2-3 5.7-3.5 8.5-1.1 1.6 1.4 1.8 3.2.5 4.9-.7.9-1.4 1.8-2.1 2.8-2.9 4-6.7 6.7-11.4 8.3-7.6 2.6-15.2 3-22.7.2-10.1-3.7-16.1-11.1-17.8-21.7-1-6.5-.4-13 2.6-18.9 4.3-8.4 11.1-13.6 20.5-15.1 6.2-1 12.4-.4 18.2 2.4 8.2 3.9 13.2 10.5 15.1 19.3.5 2.4.7 4.9.9 7.3.2 1.5-.5 2.2-2.1 2.3h-44.1c-.4.1-.9.1-1.8.1zm38.3-9.2c-1.2-7.9-10.7-14.7-19.4-14.2-9.1.5-18.2 7.5-18.5 14.2h37.9zm-101 9c.1.8.2 1.4.3 2 1.7 9.3 9.3 15.7 18.7 15.9 7.1.1 12.7-2.8 16.8-8.6 2.2-3.1 6.1-3.4 8.8-.7 1.3 1.4 1.5 3 .3 4.6-.5.8-1.1 1.5-1.7 2.2-3.1 4.5-7.3 7.4-12.5 9.1-7.6 2.5-15.2 2.7-22.5-.2-10.6-4.1-16.4-12.1-17.6-23.3-.6-5.4-.1-10.7 2.2-15.6 4.3-9.4 11.4-15.2 21.8-16.6 5.5-.7 11-.3 16.1 1.8 9.2 3.8 14.6 10.9 16.6 20.6.4 2.2.6 4.5.7 6.7.1 1.8-.3 2.2-2.2 2.2h-43.5c-.7-.1-1.4-.1-2.3-.1zm38.4-9.1c-1.2-7.8-10.4-14.4-19.4-14.2-8.8.2-17.9 7.2-18.6 14.2h38zm101 13.5c.7.6 1.1 1 1.5 1.4 4.9 4.2 9.8 8.3 14.6 12.5.3.3.7.6 1 .9 1.8 1.8 2 4.4.3 6.2-1.6 1.8-4.2 2.1-6.1.5-3.4-2.8-6.7-5.7-10-8.5-4.8-4.1-9.5-8.1-14.3-12.2-.4-.4-.9-.7-1.6-1.3 0 1-.1 1.6-.1 2.3v36.1c-.2 2.5-2.1 4.3-4.6 4.2-2.4-.1-4.1-1.9-4.2-4.4V21.9c0-1.6.2-1.9 1.7-1.9 2.1-.1 4.2-.1 6.2-.1 5 0 10.1.2 15.1-.1 8.4-.4 17.8 6.4 18.7 16.3.8 8.9-5.2 17.3-14.3 19.1-1.1.2-2.3.5-3.9.8zm-15.3-6.9c.5.1.9.1 1.2.1h12.6c1.2 0 2.4-.1 3.6-.5 3.9-1.2 7-3.5 8-7.7 1.7-7.1-3.6-13.7-10.9-13.7h-13c-.5 0-1 .1-1.5.1v21.7zM88.5 52H63.9c0 .7-.1 1.4-.1 2v18.9c0 .8 0 1.6-.2 2.3-.6 1.9-2.6 3.1-4.5 3-2.1-.2-3.8-1.8-4.1-3.9-.1-.5 0-1 0-1.5V5.4c0-.9.1-1.8.4-2.6.6-2 2.6-3 4.7-2.8 1.9.3 3.5 2 3.7 3.9.1.6 0 1.2 0 1.8v34.7c0 .7.1 1.4.1 2 1.5.4 22.9.4 24.5 0 0-.5.1-1.1.1-1.7V23.9c.2-2.3 1.9-4 4.2-4.1 2.3-.1 4.3 1.6 4.6 3.9.1.5 0 1 0 1.5v48.9c-.3 2.3-2.3 4.1-4.5 4-2.3-.1-4.1-1.9-4.3-4.2V52zM25 78.3c-5.9-.1-11.4-1.4-16.5-4.4-2.2-1.3-4.2-2.9-5.8-4.8-.8-1-1.6-2.1-2.2-3.3-1-1.9-.6-3.4.9-4.9 1.7-1.6 4.1-2.3 6.4-.7C9 61 10 62 10.9 63c.9.9 1.6 1.9 2.5 2.8 2.7 2.7 6 4.2 9.8 4.6 3.5.4 7 .3 10.4-.9 1.4-.5 2.8-1.2 4-2.1 2.9-2.2 3-5.9.2-8.2-1.3-1.1-2.9-1.9-4.5-2.6-4-1.7-8.1-2.9-12.3-4-3.4-.8-6.7-1.9-10.1-2.9-1.3-.4-2.5-1.1-3.7-1.7-3.2-1.7-5-4.4-5.5-7.9-1-7.1 1.7-12.8 8.1-15.9 9.8-4.8 19.7-5.2 29.4.4 1.8 1 3.5 2.5 5.1 3.9 1.2 1 2 2.5 2.5 4 .8 2.6-.5 3.9-2.8 4.4-2 .4-3.8-.2-5.2-1.7-.3-.3-.5-.6-.7-.9-2.3-3.4-5.6-5.3-9.6-6.1-4-.7-8-.6-11.8.9-1.4.5-2.8 1.3-3.9 2.3-2.7 2.3-2.7 5.4-.1 7.8 1.7 1.6 3.7 2.5 5.9 3 4.8 1.2 9.7 2.4 14.5 3.6 3.1.8 6.1 1.8 8.9 3.4 3.6 1.9 6.2 4.7 7.1 8.8 1.1 5 0 9.4-3.9 13-4.4 4-9.5 6.3-15.4 7-1.7.1-3.3.2-4.8.3z"/></symbol><symbol id="laptop" viewBox="0 0 46.5 30" xml:space="preserve" xmlns="http://www.w3.org/2000/svg"><style>.axst0{fill:#3e51b5}</style><path class="axst0" d="M45.8 22.5h-3V2.3c0-1.2-1-2.3-2.3-2.3H6C4.8 0 3.8 1 3.8 2.3v20.3h-3c-.4 0-.8.3-.8.8v3C0 28.3 1.7 30 3.8 30h39c2.1 0 3.7-1.7 3.8-3.8v-3c-.1-.4-.4-.7-.8-.7zM5.3 2.3c0-.4.3-.8.8-.8h34.5c.4 0 .8.3.8.8v20.3h-36V2.3zM26.8 24l-.4 1.5h-6.3l-.4-1.5h7.1zM45 26.3c0 1.2-1 2.3-2.3 2.3h-39c-1.2 0-2.3-1-2.3-2.3V24h16.7l.6 2.4c.1.3.4.6.7.6H27c.3 0 .6-.2.7-.6l.6-2.4H45v2.3z"/><path class="axst0" d="M39.8 20.3V3.8c0-.5-.4-.8-.8-.8H7.5c-.4 0-.7.3-.7.8v16.5c0 .4.3.8.8.8H39c.4-.1.8-.4.8-.8zm-1.5-.8h-30v-15h30v15zM9 25.5H3.8c-.4 0-.8.3-.8.8s.3.7.8.7H9c.4 0 .8-.3.8-.8s-.4-.7-.8-.7zm3 0h-.8c-.4 0-.8.3-.8.8s.3.8.8.8h.8c.4 0 .8-.3.8-.8s-.4-.8-.8-.8z"/></symbol><symbol id="monitor" viewBox="0 0 32 22.7" xml:space="preserve" xmlns="http://www.w3.org/2000/svg"><style>.ayst0{fill:#3e51b5}</style><path class="ayst0" d="M29.4 0H2.6C1.2 0 0 1.2 0 2.6V16c0 1.4 1.2 2.6 2.6 2.6h9l-.6 1.5H8.3c-.3 0-.5.2-.5.5v1.5c0 .3.2.5.5.5h15.5c.3 0 .5-.2.5-.5v-1.5c0-.3-.2-.5-.5-.5H21l-.6-1.5h9c1.4 0 2.6-1.2 2.6-2.6V2.6C32 1.2 30.8 0 29.4 0zM1 2.6C1 1.7 1.7 1 2.6 1h26.8c.9 0 1.6.7 1.6 1.6V15H1V2.6zm22.2 19.1H8.8v-.5h14.5v.5zm-3.3-1.6h-7.8l.6-1.5h6.5l.7 1.5zm9.5-2.6H2.6c-.9 0-1.6-.6-1.6-1.5h30c0 .9-.7 1.5-1.6 1.5z"/><path class="ayst0" d="M6.2 2.1H2.6c-.3 0-.5.2-.5.5s.2.5.5.5h3.6c.3 0 .5-.2.5-.5s-.2-.5-.5-.5zm2.1 0h-.6c-.3 0-.5.2-.5.5s.2.5.5.5h.5c.3 0 .5-.2.5-.5s-.2-.5-.4-.5z"/></symbol><symbol id="printer" viewBox="0 0 32 22.7" xml:space="preserve" xmlns="http://www.w3.org/2000/svg"><style>.azst0{fill:#3e51b5}</style><path class="azst0" d="M29.4 6.2h-1.5V3.1c0-.3-.2-.5-.5-.5h-3.1V.5c0-.3-.3-.5-.6-.5H8.3c-.3 0-.6.2-.6.5v2.1H4.6c-.3 0-.5.2-.5.5v3.1H2.6C1.2 6.2 0 7.3 0 8.8v10.3c0 .3.2.5.5.5h7.2v2.6c0 .3.2.5.5.5h15.5c.3 0 .5-.2.5-.5v-2.6h7.2c.3 0 .5-.2.5-.5V8.8c.1-1.5-1.1-2.6-2.5-2.6zm-2.6-2.6v2.6h-2.6V3.6h2.6zM8.8 1h14.5v5.2H8.8V1zM5.2 3.6h2.6v2.6H5.2V3.6zm18 18.1H8.8v-5.2h14.5v5.2zm7.8-3.1h-6.7v-2.1h2.6c.3 0 .5-.2.5-.5s-.2-.5-.5-.5H5.2c-.3 0-.5.2-.5.5s.2.5.5.5h2.6v2.1H1V8.8c0-.9.7-1.5 1.5-1.5h26.8c.9 0 1.5.7 1.5 1.5v9.8z"/><path class="azst0" d="M4.6 8.3h-2c-.3 0-.5.2-.5.5v2.1c0 .3.2.5.5.5h2.1c.3 0 .5-.2.5-.5V8.8c0-.3-.3-.5-.6-.5zm-.5 2h-1v-1h1v1zm4.2-2H6.2c-.3 0-.5.2-.5.5v2.1c0 .3.2.5.5.5h2.1c.3 0 .5-.2.5-.5V8.8c0-.3-.3-.5-.5-.5zm-.6 2h-1v-1h1v1zm22.2-2h-5.7c-.3 0-.5.2-.5.5s.2.5.5.5h5.7c.3 0 .5-.2.5-.5.1-.3-.2-.5-.5-.5zm0 1.5h-3.1c-.3 0-.5.2-.5.5s.2.5.5.5h3.1c.3 0 .5-.2.5-.5.1-.3-.2-.5-.5-.5zm0 1.6h-.5c-.3 0-.5.2-.5.5s.2.5.5.5h.5c.3 0 .5-.2.5-.5.1-.3-.2-.5-.5-.5z"/></symbol><symbol id="responsive" viewBox="0 0 30 31" xml:space="preserve" xmlns="http://www.w3.org/2000/svg"><style>.bast0{fill:#3e51b5}</style><g id="baResponsive-2"><path class="bast0" d="M11 29.5c.8 0 1.5-.7 1.5-1.5s-.7-1.5-1.5-1.5-1.5.7-1.5 1.5.7 1.5 1.5 1.5zm0-2c.3 0 .5.2.5.5s-.2.5-.5.5-.5-.2-.5-.5.2-.5.5-.5zm-5.5-23H2c-.3 0-.5.2-.5.5s.2.5.5.5h3.5c.3 0 .5-.2.5-.5s-.2-.5-.5-.5zm2 0H7c-.3 0-.5.2-.5.5s.2.5.5.5h.5c.3 0 .5-.2.5-.5s-.2-.5-.5-.5z"/><path class="bast0" d="M27.5 1.5h-5.7C21.4.6 20.5 0 19.5 0h-17C1.1 0 0 1.1 0 2.5v26C0 29.9 1.1 31 2.5 31h17c1.4 0 2.5-1.1 2.5-2.5v-3h5.5c1.4 0 2.5-1.1 2.5-2.5V4c0-1.4-1.1-2.5-2.5-2.5zM1 4h15v19c0 .8.4 1.5 1 2H1V4zm16 1h12v14.5H17V5zm12-1H17c0-.8.7-1.5 1.5-1.5h9c.8 0 1.5.7 1.5 1.5zM1 2.5C1 1.7 1.7 1 2.5 1h17c.4 0 .8.2 1.1.5h-2.1c-1 0-1.9.6-2.3 1.5H1v-.5zm20 26c0 .8-.7 1.5-1.5 1.5h-17c-.8 0-1.5-.7-1.5-1.5V26h20v2.5zm8-5.5c0 .8-.7 1.5-1.5 1.5h-9c-.8 0-1.5-.7-1.5-1.5v-2.5h12V23z"/><path class="bast0" d="M23 24c.8 0 1.5-.7 1.5-1.5S23.8 21 23 21s-1.5.7-1.5 1.5.7 1.5 1.5 1.5zm0-2c.3 0 .5.2.5.5s-.2.5-.5.5-.5-.2-.5-.5.2-.5.5-.5z"/></g></symbol><symbol viewBox="0 0 29 29" id="return" xmlns="http://www.w3.org/2000/svg"><path d="M23.2 0c.5 0 .8.4.8.8v11.3c3 1.5 4.9 4.5 4.9 8 0 4.9-4 8.9-8.9 8.9-3.4 0-6.5-2-8-4.9H.8c-.5 0-.8-.4-.8-.8V.8C0 .4.4 0 .8 0h22.4zm-7.1 1.7v4.8c0 .6-.7 1.1-1.3.7L12 5.8 9.2 7.2c-.5.3-1.2-.1-1.2-.7V1.7H1.7v20.7h9.8c-.8-3.1.1-6.4 2.3-8.6s5.5-3.1 8.6-2.3V1.7h-6.3zm1.3 22.1h4c.9 0 1.7-.4 2.3-1 .6-.6 1-1.4 1-2.4 0-1.8-1.5-3.3-3.3-3.3H19l.5-.5c.8-.8-.4-2-1.2-1.2l-1.9 2c-.3.3-.3.9 0 1.2l2 1.9c.8.8 2-.4 1.2-1.2l-.6-.4h2.4c.9 0 1.6.7 1.6 1.6 0 .9-.7 1.6-1.6 1.6h-4c-.5 0-.8.4-.8.8s.3.9.8.9zM15 15c-2.8 2.8-2.8 7.4 0 10.2 2.8 2.8 7.4 2.8 10.2 0 2.8-2.8 2.8-7.4 0-10.2-2.8-2.8-7.4-2.8-10.2 0zm-.6-13.3H9.7v3.4l2-1c.2-.1.5-.1.8 0l2 1V1.7z" fill="#00a6e4"/></symbol><symbol id="shield" viewBox="0 0 29 34.1" xml:space="preserve" xmlns="http://www.w3.org/2000/svg"><style>.bcst0{fill:#00a6e4}</style><g id="bcsurface1"><path class="bcst0" d="M29 9.2V8.1c0-1.9-1.5-3.4-3.4-3.5-3.9-.2-6.9-1.5-9.5-4-.8-.8-2.1-.8-3 0-2.6 2.5-5.6 3.8-9.5 4C1.6 4.7.1 6.3.1 8.2v1.2c-.1 4-.2 9 1.5 13.5.9 2.5 2.3 4.6 4.1 6.4 2.1 2 4.8 3.6 8.1 4.8.1 0 .2.1.3.1h1c.1 0 .2-.1.3-.1 3.3-1.1 6-2.7 8-4.8 1.8-1.8 3.2-3.9 4.1-6.4 1.6-4.7 1.5-9.7 1.5-13.7zm-3.4 12.9c-1.8 4.8-5.3 8-10.9 10h-.4c-5.6-2-9.2-5.2-10.9-10C1.9 17.9 2 13.3 2 9.3V8.2c0-.8.7-1.5 1.5-1.6 2.2-.1 4.2-.6 6-1.3 1.8-.8 3.4-1.8 4.8-3.3h.3c1.5 1.4 3.1 2.5 4.8 3.3 1.8.8 3.7 1.2 6 1.3.8 0 1.5.7 1.5 1.6v1.1c.1 4 .2 8.6-1.3 12.8z"/><path class="bcst0" d="M14.5 8.5C9.8 8.5 6 12.3 6 17s3.8 8.5 8.5 8.5S23 21.7 23 17s-3.8-8.5-8.5-8.5zm0 15C10.9 23.5 8 20.6 8 17s2.9-6.5 6.5-6.5S21 13.4 21 17s-2.9 6.5-6.5 6.5z"/><path class="bcst0" d="M16.9 14.4L13 18.3l-1.1-1.1c-.4-.4-1-.4-1.4 0-.4.4-.4 1 0 1.4l1.8 1.8c.2.2.5.3.7.3.3 0 .5-.1.7-.3l4.6-4.6c.4-.4.4-1 0-1.4-.3-.4-1-.4-1.4 0z"/></g></symbol><symbol id="usb-cable" viewBox="0 0 33.3 30" xml:space="preserve" xmlns="http://www.w3.org/2000/svg"><style>.bdst0{fill:#3e51b5}</style><path class="bdst0" d="M32.8 2.2h-6.1V.6c0-.3-.2-.6-.6-.6H12.8c-.3 0-.6.2-.6.6v3.9h-5c-.3-.1-.5.2-.5.5v.6H.6c-.4 0-.6.2-.6.5v11.1c0 .3.2.6.6.6h22.2v5.6h-6.7c-.3 0-.6.2-.6.6v3.3c0 .3.2.6.6.6.3 0 .6-.2.6-.6v-2.8h6.7c.3 0 .6-.2.6-.6v-6.7c0-.3-.2-.6-.6-.6H1.1v-10h5.6v1.7c0 .3.2.6.6.6h5v3.9c0 .3.2.6.6.6h13.3c.3 0 .6-.2.6-.6v-1.7h6.1c.3 0 .6-.2.6-.6V2.8c-.2-.3-.4-.6-.7-.6zm-25 5.6V5.6h4.4v2.2H7.8zm17.8 4.4H13.3V1.1h12.2v11.1zm6.6-2.2h-5.6V3.3h5.6V10z"/><path class="bdst0" d="M27.8 5h3.3c.3 0 .6-.2.6-.6 0-.3-.2-.6-.6-.6h-3.3c-.3 0-.6.2-.6.6 0 .4.3.6.6.6zm0 4.4h3.3c.3 0 .6-.2.6-.6 0-.3-.2-.6-.6-.6h-3.3c-.3 0-.6.2-.6.6 0 .4.3.6.6.6zM16.1 28.3c-.3 0-.6.2-.6.6v.6c0 .3.2.6.6.6.3 0 .6-.2.6-.6v-.6c0-.3-.3-.6-.6-.6zM15 1.7h-.6c-.3 0-.6.2-.6.6s.2.6.6.6h.6c.3 0 .6-.2.6-.6s-.3-.6-.6-.6zm4.4 0h-2.8c-.3 0-.6.2-.6.6s.2.6.6.6h2.8c.3 0 .6-.2.6-.6s-.2-.6-.6-.6z"/></symbol><symbol id="vacuum-cleaner" viewBox="0 0 30 32.1" xml:space="preserve" xmlns="http://www.w3.org/2000/svg"><style>.best0{fill:#3e51b5}</style><g id="beVacuum_cleaner"><path class="best0" d="M8.8 26.4c-1.1 0-2.1.9-2.1 2.1s.9 2.1 2.1 2.1 2.1-.9 2.1-2.1-1-2.1-2.1-2.1zm0 3.1c-.6 0-1-.5-1-1 0-.6.5-1 1-1 .6 0 1 .5 1 1s-.4 1-1 1zm-6.7-7.3h4.1c.3 0 .5-.2.5-.5s-.2-.5-.5-.5H2.1c-.3 0-.5.2-.5.5s.2.5.5.5zm0 1.6h1.6c.3 0 .5-.2.5-.5s-.2-.5-.5-.5H2.1c-.3 0-.5.2-.5.5s.2.5.5.5z"/><path class="best0" d="M30 31.4l-1-3.1c-.1-.2-.3-.4-.5-.4h-2.1l-.5-4.7c0-.3-.3-.5-.5-.5V17c0-.3-.2-.5-.5-.5h-.5V5.7c0-.3-.2-.5-.5-.5h-3.1c-.3 0-.5.2-.5.5v2.6h-2.1V.5c0-.3-.2-.5-.5-.5h-6.2c-.3 0-.5.2-.5.5v5.7h-1c-.3 0-.5.2-.5.5V10C4 10.7 0 15.3 0 20.7v5.7C0 27.8 1.2 29 2.6 29h2.6c.3 2 2.1 3.4 4.1 3.1 1.7-.2 3-1.6 3.1-3.3 1-.4 1.6-1.3 1.6-2.4v-14c0-.8-.4-1.6-1-2.1V6.7c0-.3-.2-.5-.5-.5H12V1h5.2v7.8c0 .3.2.5.5.5h3.1c.3 0 .5-.2.5-.5V6.2h2.1v10.3h-.5c-.3 0-.5.2-.5.5v5.7c-.3 0-.5.2-.5.5l-.5 4.7h-2.1c-.2 0-.4.1-.5.4l-1 3.1c-.1.3.1.6.3.7h11.6c.3 0 .5-.2.5-.5-.2-.1-.2-.2-.2-.2zM8.8 31c-1.4 0-2.6-1.2-2.6-2.6 0-1.4 1.2-2.6 2.6-2.6s2.6 1.2 2.6 2.6c0 1.5-1.2 2.6-2.6 2.6zm4.1-4.6c0 .5-.2.9-.6 1.2-.5-1.9-2.4-3.1-4.4-2.7-1.4.3-2.5 1.5-2.7 3H2.6c-.9 0-1.6-.7-1.6-1.6v-5.7h11.9v5.8zm0-6.7H1.1c.5-5 4.7-8.8 9.8-8.8h.5c.9 0 1.6.7 1.6 1.6v7.2zm-2.6-9.9V7.2h1.6v2.6h-1.6zm13 7.8h1v5.2h-1v-5.2zm-.6 6.2h2.2l.4 4.1h-3l.4-4.1zM18.8 31l.7-2.1h8.6l.7 2.1h-10z"/><path class="best0" d="M7.8 22.2h.5c.3 0 .5-.2.5-.5s-.2-.5-.5-.5h-.5c-.3 0-.5.2-.5.5s.2.5.5.5zm19.6 7.3h-3.6c-.3 0-.5.2-.5.5s.2.5.5.5h3.6c.3 0 .5-.2.5-.5s-.2-.5-.5-.5zm-5.2 0h-.5c-.3 0-.5.2-.5.5s.2.5.5.5h.5c.3 0 .5-.2.5-.5s-.2-.5-.5-.5z"/></g></symbol><symbol viewBox="0 0 512 512" id="wallet" xmlns="http://www.w3.org/2000/svg"><path d="M467 212h-15v-45c0-24.8-20.2-45-45-45h-15V15c0-8.3-6.7-15-15-15H75c-8.3 0-15 6.7-15 15v107c-33.1 0-60 26.9-60 60v255c0 41.4 33.6 75 75 75h272c19.6 0 36.2-12.5 42.4-30H407c24.8 0 45-20.2 45-45v-15h15c24.8 0 45-20.2 45-45V257c0-24.8-20.2-45-45-45zm-60-60c8.3 0 15 6.7 15 15v105h-30V152h15zM90 30h272v184.6c-4.7-1.7-9.7-2.6-15-2.6h-15V107c0-8.3-6.7-15-15-15s-15-6.7-15-15-6.7-15-15-15H166c-8.3 0-15 6.7-15 15 0 8-7.5 15-16 15-8.3 0-15 6.7-15 15v105H90V30zm60 182v-92.5c6.3-2.2 12.1-5.7 17.1-10.4 5.1-4.9 8.9-10.7 11.3-17.1h96.2c4.5 12.8 14.7 22.9 27.4 27.4V212H150zm-90-60v60c-16.5 0-30-13.5-30-30s13.5-30 30-30zm287 330H75c-24.8 0-45-20.2-45-45V233.9c8.8 5.1 19.1 8.1 30 8.1h287c8.3 0 15 6.7 15 15v15h-15c-41.4 0-75 33.6-75 75s33.6 75 75 75h15v45c0 8.3-6.7 15-15 15zm75-45c0 8.3-6.7 15-15 15h-15v-30h30v15zm60-60c0 8.3-6.7 15-15 15H347c-24.8 0-45-20.2-45-45s20.2-45 45-45h120c5.3 0 10.3-.9 15-2.6V377zm-15-105h-15v-30h15c8.3 0 15 6.7 15 15s-6.7 15-15 15z"/><path d="M362 347c0 8.3-6.7 15-15 15s-15-6.7-15-15 6.7-15 15-15 15 6.7 15 15zM241 167c0 8.3-6.7 15-15 15s-15-6.7-15-15 6.7-15 15-15 15 6.7 15 15z"/></symbol></svg>