<?xml version="1.0" encoding="utf-8"?>
<!-- Generator: Adobe Illustrator 22.1.0, SVG Export Plug-In . SVG Version: 6.00 Build 0)  -->
<svg version="1.1" id="Capa_1" xmlns="http://www.w3.org/2000/svg" xmlns:xlink="http://www.w3.org/1999/xlink" x="0px" y="0px"
	 viewBox="89.5 212.5 416.3 416.8" style="enable-background:new 89.5 212.5 416.3 416.8;" xml:space="preserve">
<style type="text/css">
	.st0{fill:#63c05e;}
</style>
<g>
	<path class="st0" d="M89.5,629.3l29.2-103.6C99.9,493.9,90,457.7,90,420.5c0-114.6,93.3-207.9,207.9-207.9s207.9,93.3,207.9,207.9
		c0,114.6-93.3,207.9-207.9,207.9c-35.7,0-70.7-9.1-101.6-26.5L89.5,629.3z M201.7,564l6.4,3.9c27,16.5,58,25.2,89.8,25.2
		c95.2,0,172.6-77.4,172.6-172.6c0-95.2-77.4-172.6-172.6-172.6s-172.6,77.4-172.6,172.6c0,33.2,9.4,65.4,27.3,93.1l4.3,6.7
		L140,579.9L201.7,564z"/>
	<path class="st0" d="M239.5,323.7L226,323c-4.2-0.2-8.4,1.2-11.6,4c-6.5,5.7-17,16.7-20.2,31c-4.8,21.3,2.6,47.5,21.8,73.6
		c19.2,26.1,54.9,67.9,118,85.8c20.3,5.8,36.3,1.9,48.7-6c9.8-6.3,16.5-16.3,19-27.6l2.2-10.1c0.7-3.2-0.9-6.4-3.9-7.8l-45.6-21
		c-3-1.4-6.5-0.5-8.5,2.1L327.9,470c-1.4,1.8-3.7,2.4-5.8,1.7c-12.3-4.3-53.3-21.5-75.8-64.9c-1-1.9-0.7-4.2,0.7-5.8l17.1-19.8
		c1.7-2,2.2-4.9,1.1-7.3l-19.7-46C244.5,325.5,242.2,323.8,239.5,323.7z"/>
</g>
</svg>
