<?xml version="1.0" encoding="utf-8"?><svg xmlns="http://www.w3.org/2000/svg" xmlns:xlink="http://www.w3.org/1999/xlink"><symbol viewBox="0 0 24 24" id="form-email" xmlns="http://www.w3.org/2000/svg"><path d="M24 21H0V3h24v18zM1 4.5V20h22V4.5l-11 10-11-10zM22.1 4H1.9L12 13.2 22.1 4z"/></symbol><symbol viewBox="0 0 26.6 36.4" id="form-phone" xmlns="http://www.w3.org/2000/svg"><path d="M4.2.5l-1.1.7C1.8 2 .8 3.4.3 5.3-.8 9.9 1 16.8 4.9 23.5c5.8 9.6 14 15 18.8 12.1l1.1-.7c.8-.5 1.4-1.3 1.6-2.2.2-.9.1-1.9-.4-2.7l-2.6-4.4c-1-1.7-3.2-2.2-4.9-1.2l-1.1.7c-1.2.7-3.5-.3-6.5-5.3-2.5-4.2-2.6-6.3-2.3-7.2.1-.5.3-.8.7-1l1.1-.7c1.6-1 2.2-3.3 1.2-4.9L9.1 1.7C8.6.9 7.8.3 6.9.1 6-.1 5 0 4.2.5zm3.1 2.3l2.6 4.4c.4.7.2 1.7-.5 2.1l-1.1.6c-.8.5-1.4 1.3-1.6 2.2-.5 2.1.3 5 2.6 8.7 4.6 7.7 8 6.8 9.2 6l1.1-.7c.7-.4 1.7-.2 2.1.5l2.6 4.4c.4.7.2 1.7-.5 2.1l-1.1.7c-3.7 2.2-11-3-16-11.4C3 16.3 1.3 9.8 2.3 5.7c.3-1.4 1-2.3 1.8-2.8l1.1-.7c.4-.2.8-.2 1.2-.1.4.1.7.3.9.7z"/></symbol><symbol viewBox="0 0 32 32" id="form-user" xmlns="http://www.w3.org/2000/svg"><path d="M16 22c5 0 9-4.9 9-11S21 0 16 0c-2.4 0-4.7 1.2-6.4 3.3C7.9 5.4 7 8.1 7 11c0 6.1 4 11 9 11zm0-20c3.9 0 7 4 7 9s-3.1 9-7 9-7-4-7-9 3.1-9 7-9zm7 18c-.6 0-1 .4-1 1s.4 1 1 1c3.9 0 7 3.1 7 7 0 .6-.4 1-1 1H3c-.6 0-1-.4-1-1 0-3.9 3.1-7 7-7 .6 0 1-.4 1-1s-.4-1-1-1c-5 0-9 4-9 9 0 1.7 1.3 3 3 3h26c1.7 0 3-1.3 3-3 0-5-4-9-9-9z"/></symbol><symbol viewBox="0 0 512 512" id="icon-form-1" xmlns="http://www.w3.org/2000/svg"><path d="M452 40h-24V0h-40v40H124V0H84v40H60C26.9 40 0 66.9 0 100v352c0 33.1 26.9 60 60 60h392c33.1 0 60-26.9 60-60V100c0-33.1-26.9-60-60-60zm20 412c0 11-9 20-20 20H60c-11 0-20-9-20-20V188h432v264zm0-304H40v-48c0-11 9-20 20-20h24v40h40V80h264v40h40V80h24c11 0 20 9 20 20v48z"/><path d="M76 230h40v40H76zm80 0h40v40h-40zm80 0h40v40h-40zm80 0h40v40h-40zm80 0h40v40h-40zM76 310h40v40H76zm80 0h40v40h-40zm80 0h40v40h-40zm80 0h40v40h-40zM76 390h40v40H76zm80 0h40v40h-40zm80 0h40v40h-40zm80 0h40v40h-40zm80-80h40v40h-40z"/></symbol><symbol viewBox="0 0 512 512" id="icon-form-2" xmlns="http://www.w3.org/2000/svg"><path d="M276 236h82v40H236V120h40v116zm196-136v312c0 29.7-21.7 54.4-50 59.2V512h-40v-40H130v40H90v-40.8c-28.3-4.8-50-29.5-50-59.2V100c0-33.1 26.9-60 60-60h136V0h40v40h136c33.1 0 60 26.9 60 60zm-40 0c0-11-9-20-20-20H100c-11 0-20 9-20 20v312c0 11 9 20 20 20h312c11 0 20-9 20-20V100z"/></symbol><symbol viewBox="0 0 512 512" id="icon-insta" xmlns="http://www.w3.org/2000/svg"><path d="M261 512h-5.1c-40.1.1-77.2-.9-113.3-3.1-33.1-2-63.2-13.4-87.3-33-23.2-18.9-39-44.5-47.1-76-7-27.4-7.4-54.4-7.7-80.4C.3 300.7.1 278.6 0 256c.1-22.6.3-44.8.6-63.5.4-26 .7-53 7.7-80.4 8-31.5 23.9-57.1 47.1-76 24-19.6 54.2-31 87.3-33C178.7.9 215.8-.1 256 0c40.1-.1 77.2.9 113.3 3.1 33.1 2 63.2 13.4 87.3 33 23.2 18.9 39 44.5 47.1 76 7 27.4 7.4 54.4 7.7 80.4.3 18.7.5 40.8.6 63.4v.1c-.1 22.5-.3 44.7-.6 63.4-.4 26-.7 53-7.7 80.4-8 31.5-23.9 57.1-47.1 76-24 19.6-54.2 31-87.3 33-34.5 2.2-70 3.2-108.3 3.2zm-5.1-40c39.5.1 75.7-.9 110.9-3 25-1.5 46.7-9.6 64.4-24.1 16.4-13.4 27.7-31.9 33.6-54.9 5.8-22.8 6.2-47.4 6.5-71.1.3-18.6.5-40.6.6-62.9-.1-22.3-.3-44.3-.6-62.9-.3-23.7-.7-48.2-6.5-71.1-5.9-23-17.2-41.5-33.6-54.9-17.8-14.5-39.4-22.6-64.4-24.1-35.2-2.1-71.5-3.1-110.9-3-39.5-.1-75.7.9-110.9 3-25 1.5-46.7 9.6-64.4 24.1-16.4 13.4-27.7 31.9-33.5 55-5.8 22.8-6.2 47.4-6.5 71.1-.3 18.6-.5 40.6-.6 62.9.1 22.2.3 44.2.6 62.8.3 23.7.7 48.2 6.5 71.1 5.9 23 17.2 41.5 33.6 54.9 17.8 14.5 39.4 22.6 64.4 24.1 35.2 2.1 71.5 3.1 110.8 3zm-.9-91c-68.9 0-125-56.1-125-125s56.1-125 125-125 125 56.1 125 125-56.1 125-125 125zm0-210c-46.9 0-85 38.1-85 85s38.1 85 85 85 85-38.1 85-85-38.1-85-85-85zm139-80c-16.6 0-30 13.4-30 30s13.4 30 30 30 30-13.4 30-30-13.4-30-30-30z"/></symbol><symbol viewBox="0 0 512 512" id="icon-scr1-1" xmlns="http://www.w3.org/2000/svg"><path d="M504.5 404.5h-52.2v-21.7c0-6.9-5.6-12.5-12.5-12.5h-1.1v-20.9h2.5c6.6 0 12.3-5.2 12.9-11.8l2-21.2c5.9-1.6 10.3-7.1 10.3-13.5v-23.3c.2-.3.5-.6.7-1 7-12.1 27.7-55.2-.8-100.9-7.1-11.3-13.2-23-18.2-34.6-1.6-3.8-6-5.6-9.9-3.9-3.8 1.6-5.6 6-3.9 9.9 1.6 3.7 3.3 7.3 5 11h-2.9c-51 0-92.7 41-94.5 92-8.1-3-16.8-4.5-26.1-4.5-29.3 0-55.7 15.7-63.2 20.6H226c-4.1 0-7.5 3.4-7.5 7.5s3.4 7.5 7.5 7.5h29c1.6 0 3.1-.5 4.4-1.4.3-.2 27.2-19.2 56.5-19.2 16.8 0 31.4 6.2 43.5 18.3 1.4 1.4 3.3 2.2 5.3 2.2h86.7V302H360c-14.4-13.6-30.7-20.6-48.5-20.6-26.2 0-47.7 15.4-54.1 20.6H39.9c1.4-6.5 3.2-12.9 5.4-18.9H188c4.1 0 7.5-3.4 7.5-7.5s-3.4-7.5-7.5-7.5h-28.3c3.7-14.8 4.9-33.5-2.1-53.6 25.7-6.4 74.8-19.7 110.4-39.7 37.3-20.8 71.6-50.6 104.7-90.7l46.8 14.7c.5 3.6 1.5 9.1 3.2 16.1 1 4 5.1 6.5 9.1 5.5s6.5-5.1 5.5-9.1c-1.7-6.7-2.5-11.9-3-15.1-.7-5.4-4.5-9.9-9.7-11.5l-41.9-13.1c.6-.7 1.1-1.4 1.7-2.1 1.5-2 2-4.5 1.2-6.9-.8-2.4-2.6-4.2-5-4.9L341.4 46c-1.3-.4-2.7-.6-4.1-.6h-.2c-4.8.1-9.3 2.6-11.9 6.6-6 9.2-11.9 17.8-17.8 25.9-3.4-1.8-7.6-.8-9.7 2.5-2 3-1.6 6.9.8 9.4-4.8 6.2-9.5 12-14.2 17.5l-1.4-.9c-3.5-2.2-8.1-1.3-10.4 2.2-2.1 3.3-1.3 7.7 1.7 10-5.4 5.8-10.7 11.3-15.9 16.3l-3.6-2c-3.6-2-8.2-.8-10.2 2.8-1.9 3.4-.9 7.7 2.3 9.9-24.6 21.7-47 35-65.9 44.1-20.1 8.7-38.6 13.8-55.2 18.4-29.3 8.1-52.5 14.6-71.2 33.4-6.4 6.5-12.1 14.4-16.8 23.6-.9 1.8-1.4 3.8-1.5 5.8-2.1 1.6-3.7 3.7-4.6 6.2-2.7 7.3-4.9 15-6.6 22.9-.8 4.1.2 8.4 2.8 11.7 2.7 3.3 6.6 5.2 10.8 5.2h3.5V343c0 25.2 12.1 47.5 30.8 61.5H7.5c-4.1 0-7.5 3.4-7.5 7.5s3.4 7.5 7.5 7.5h497c4.1 0 7.5-3.4 7.5-7.5s-3.4-7.5-7.5-7.5zM367.7 268c-3.4-3.2-7-6-10.7-8.5-.1-1.4-.1-2.9-.1-4.2 0-44.3 35.7-80.4 79.5-80.4 3.7 0 7.4.3 11.2.8 1.9 3.3 3.9 6.6 5.9 9.9 22.4 35.7 8.9 69.8 2.1 82.8-1-.2-2-.4-3.1-.4h-84.8zM337.5 60.5l28.1 8.3c-8.9 11.2-17.8 21.3-26.5 30.4l-19.4-13c6-8 11.9-16.5 17.8-25.7zm-26.7 37.8l17.6 11.8c-5.5 5.4-11 10.4-16.4 15.1l-15.1-9.8c4.6-5.4 9.2-11.1 13.9-17.1zm-23.9 28.5l13 8.4c-6 4.8-12 9.1-17.8 13.1l-10.3-5.8c5-4.8 10-10.1 15.1-15.7zm-26.4 26.6l7.4 4.2c-11.3 6.8-22.3 12.3-32.9 16.8 8.2-6.1 16.7-13.1 25.5-21zM65.1 252.1c15.9-16 37.3-22 64.6-29.5 3.7-1 7.5-2.1 11.3-3.2h.1c.7-.2 1.3-.4 2-.6 6.6 18.7 4.8 36.1 1 49.3h-91c3.6-6.2 7.6-11.6 12-16zM441 316.9l-1.7 17.5h-54.9l-3.9-17.5H441zm-17.3 32.5v20.9h-18.9v-20.9h18.9zm-227.8-32.5h18.9v53.4h-18.9v-53.4zm-15 0v53.4h-63.1c-14.9 0-26.9-12.2-26.9-27.3v-26.2h90zm256.4 87.6H117.9c-33.5 0-60.8-27.6-60.8-61.5v-26.2H76V343c0 23.3 18.8 42.3 41.9 42.3H340c4.1 0 7.5-3.4 7.5-7.5s-3.4-7.5-7.5-7.5H229.8v-53.4h27.9c3.2 0 6.3-1.1 8.8-3.1 5-4.1 23.2-17.4 44.9-17.4 13.9 0 26.9 5.6 38.5 16.7 2.6 2.5 6 3.9 9.6 3.9h5.6l4.8 21.7c1.4 6.1 7.1 10.8 13.4 10.8h6.4v20.9H377c-4.1 0-7.5 3.4-7.5 7.5s3.4 7.5 7.5 7.5h60.3v19.1zm-209.7 47.1H76.9c-4.1 0-7.5 3.4-7.5 7.5s3.4 7.5 7.5 7.5h150.7c4.1 0 7.5-3.4 7.5-7.5 0-4.2-3.4-7.5-7.5-7.5zm222.7 0H299.6c-4.1 0-7.5 3.4-7.5 7.5s3.4 7.5 7.5 7.5h150.7c4.1 0 7.5-3.4 7.5-7.5 0-4.2-3.4-7.5-7.5-7.5z"/><path d="M382.4 107.3c-1.4-1.4-3.3-2.2-5.3-2.2s-3.9.8-5.3 2.2c-1.4 1.4-2.2 3.3-2.2 5.3s.8 3.9 2.2 5.3c1.4 1.4 3.3 2.2 5.3 2.2s3.9-.8 5.3-2.2c1.4-1.4 2.2-3.3 2.2-5.3s-.8-3.9-2.2-5.3zm-32.8 28c-1.4-1.4-3.3-2.2-5.3-2.2s-3.9.8-5.3 2.2c-1.4 1.4-2.2 3.3-2.2 5.3s.8 3.9 2.2 5.3c1.4 1.4 3.3 2.2 5.3 2.2s3.9-.8 5.3-2.2c1.4-1.4 2.2-3.3 2.2-5.3 0-1.9-.8-3.9-2.2-5.3zm-32.8 28c-1.4-1.4-3.3-2.2-5.3-2.2s-3.9.8-5.3 2.2-2.2 3.3-2.2 5.3.8 3.9 2.2 5.3c1.4 1.4 3.3 2.2 5.3 2.2s3.9-.8 5.3-2.2c1.4-1.4 2.2-3.3 2.2-5.3 0-1.9-.8-3.8-2.2-5.3zm-32.8 23c-1.4-1.4-3.3-2.2-5.3-2.2s-3.9.8-5.3 2.2c-1.4 1.4-2.2 3.3-2.2 5.3s.8 3.9 2.2 5.3c1.4 1.4 3.3 2.2 5.3 2.2s3.9-.8 5.3-2.2c1.4-1.4 2.2-3.3 2.2-5.3s-.8-3.9-2.2-5.3zm-35.3 15.3c-1.4-1.4-3.3-2.2-5.3-2.2s-3.9.8-5.3 2.2c-1.4 1.4-2.2 3.3-2.2 5.3s.8 3.9 2.2 5.3c1.4 1.4 3.3 2.2 5.3 2.2s3.9-.8 5.3-2.2c1.4-1.4 2.2-3.3 2.2-5.3s-.8-3.9-2.2-5.3zm-35.3 10.2c-1.4-1.4-3.3-2.2-5.3-2.2s-3.9.8-5.3 2.2c-1.4 1.4-2.2 3.3-2.2 5.3s.8 3.9 2.2 5.3c1.4 1.4 3.3 2.2 5.3 2.2s3.9-.8 5.3-2.2c1.4-1.4 2.2-3.3 2.2-5.3s-.8-4-2.2-5.3z"/></symbol><symbol viewBox="0 0 512 512" id="icon-scr1-2" xmlns="http://www.w3.org/2000/svg"><path d="M335.1 133.1c-2.6-3.2-7.4-3.7-10.6-1.1-.2.2-4.7 3.8-10.3-.3-3.4-2.4-8-1.7-10.5 1.7-2.4 3.4-1.7 8 1.7 10.5 4.8 3.5 9.6 4.7 14 4.7 6.4 0 11.8-2.7 14.6-5 3.2-2.6 3.7-7.3 1.1-10.5zm26.7-23.7c-11.9-8.6-23.9-3.6-28.6.3-3.2 2.6-3.7 7.3-1.1 10.6 2.6 3.2 7.3 3.7 10.6 1.1.2-.2 4.7-3.8 10.3.3 1.3 1 2.9 1.4 4.4 1.4 2.3 0 4.6-1.1 6.1-3.1 2.4-3.5 1.7-8.2-1.7-10.6z"/><path d="M360.4 229.4c.2 0 .5.1.7.1l51.1 4c5.5 10.1 16.1 16.9 28.3 16.9 17.8 0 32.2-14.4 32.2-32.2S458.3 186 440.5 186c-11.2 0-21.1 5.8-26.9 14.5l-47.9-7.4-31.1-9.9c.5-3.7.9-7.3 1.3-11 17.2-4.2 31.8-15.2 40.8-30.1 2 .6 4 .9 6.1 1h1c14.1 0 25.7-11.2 26.3-25.3.2-6.3-1.8-12.1-5.3-16.8 0-.2.1-.3.1-.5.2-1.9 5.2-46.2-20.9-75.7C369.2 8.4 347.9 0 320.7 0c-26.9 0-48.1 8.2-63 24.3-4.5 4.9-8.1 10.1-11 15.5-3.8-3.2-8.9-6.7-15.7-9.5-14.4-5.8-39.2-9.2-75.9 7.7-3.8 1.7-5.4 6.2-3.7 10 1.7 3.8 6.2 5.4 10 3.7 50.6-23.4 73.2-3.8 79 3-1.5 4.5-2.6 9-3.4 13.3-3.7-2.3-7.5-3.6-11.5-4-13.9-1.3-26.2 9.2-40.4 21.4-15.9 13.6-35.8 30.6-63.4 35.9-26.8 5.1-45.8 2.1-56.6-9-9-9.2-10.8-22.6-10.7-32.4 2.2 1 4.8 1.9 7.8 2.6 17.6 4.1 41.1-1.1 69.8-15.4 3.7-1.8 5.2-6.3 3.4-10.1-1.8-3.7-6.3-5.2-10.1-3.4-55 27.3-69.5 9.7-70.6 8.2-1.4-2.8-4.3-4.3-7.5-4-3.2.3-5.7 2.9-6.4 6.1-.3 1.5-7.8 36.8 13.4 58.7 10.3 10.6 25.2 15.9 44.5 15.9 7.8 0 16.4-.9 25.7-2.6 31.6-6 53.1-24.4 70.4-39.2 11.6-10 21.7-18.5 29.3-17.9 3.4.3 7 2.6 10.8 6.9-.2 4.4-.1 8 0 10.7-3.2 4.3-5.1 9.4-5.3 14.9-.3 7 2.2 13.7 7 18.9 4.8 5.1 11.3 8.1 18.3 8.4h1c1.8 0 3.5-.2 5.2-.5 2.9 5.6 6.5 10.7 10.7 15.3l-53.5 21.8-47.2 11.1c-1.3-1.7-2.9-3.3-4.6-4.8-6.5-5.6-14.9-8.3-23.4-7.6-8.6.7-16.4 4.7-22 11.2-5.6 6.5-8.3 14.9-7.6 23.4.7 8.6 4.7 16.4 11.2 22 5.9 5 13.2 7.7 20.8 7.7.9 0 1.7 0 2.6-.1 8.6-.7 16.4-4.7 22-11.2 2.1-2.4 3.7-5.1 5-7.9l46.4-7.4c-4.6 4.4-9.5 8.8-14.7 13.2-3.1 2.7-3.5 7.4-.8 10.6 1.5 1.7 3.6 2.6 5.7 2.6 1.7 0 3.5-.6 4.9-1.8 13.1-11.2 24.7-22.5 34.5-32.9l.2-.2c15.9-16.8 27.2-31.3 33-39.3 9.6 6.2 20.9 9.9 33.1 10.4h2.9c-.2 1.5-.3 3-.5 4.5l-27.7-8.8c-3.9-1.3-8.2.9-9.4 4.9-1.3 3.9.9 8.2 4.9 9.4l68.1 21.7-.8 7.4-33.2-5.8h-.1l-41.6-7.3c-4.1-.7-8 2-8.7 6.1s2 8 6.1 8.7l33.5 5.8c-11.2 36.6-27.7 60.6-32.5 67.1-26.1 7.5-52.9 5.6-79.5-5.6-10.9-4.6-19.7-10-25.6-14 5.4-3.4 10.8-7 16.2-10.9 3.4-2.4 4.2-7.1 1.8-10.5-2.4-3.4-7.1-4.2-10.5-1.8-7.9 5.6-16 10.8-23.9 15.5L117 273.4c-5.9 1.9-10 7.1-10.4 13.3-.4 6.2 2.9 11.9 8.4 14.6 9.1 4.4 17.7 10.3 25.5 17.5 7.3 6.7 20.4 17.4 37.8 26.3l-4.4 80.2c-3.8.4-6.8 3.6-6.8 7.5v49.8c0 2 .8 3.9 2.2 5.3 1.4 1.4 3.3 2.2 5.3 2.2h4v6.8h-8.8c-4.1 0-7.5 3.4-7.5 7.5s3.4 7.5 7.5 7.5h77.1c3.9 0 7.6-1.5 10.4-4.3 2.8-2.8 4.3-6.5 4.3-10.4 0-4.1-3.4-7.5-7.5-7.5s-7.4 3.2-7.5 7.3h-20.1v-6.8h10.4c2 0 3.9-.8 5.3-2.2 1.4-1.4 2.2-3.3 2.2-5.3v-12.3c0-8.3-3.2-16.2-9.1-22.1-5.9-5.9-13.7-9.1-22.1-9.1h-.1v-6.3c0-2.8-1.5-5.2-3.8-6.5l4.7-16.7c1.1-4-1.2-8.1-5.2-9.2-4-1.1-8.1 1.2-9.2 5.2l-5.5 19.7h-5.3l4-73.6c6.3 2.4 13 4.5 20.2 6l-5.5 19.7c-1.1 4 1.2 8.1 5.2 9.2.7.2 1.4.3 2 .3 3.3 0 6.3-2.2 7.2-5.5l6-21.4c3.9.4 7.9.6 12 .6 12.9 0 26.7-2 41.1-6.9l76.2 19.5c-.2 1.7.2 3.5 1.2 4.9 1.1 1.7 2.8 2.8 4.8 3.2l48.9 9.7c.5.1 1 .1 1.5.1 3.5 0 6.6-2.5 7.3-6l.8-3.9 6.7 1.3-1.7 8.6c-.8 4.1 1.8 8 5.9 8.8.5.1 1 .1 1.5.1 3.5 0 6.6-2.5 7.3-6l15-75.7c.8-3.9 0-7.8-2.2-11.1s-5.5-5.5-9.4-6.3c-4.1-.8-8 1.8-8.8 5.9-.8 4 1.7 7.9 5.7 8.8l-3.9 19.7-6.7-1.3 2-10.2c.8-4.1-1.8-8-5.9-8.8l-12.1-2.4c-8.2-1.6-16.5 0-23.4 4.7-6.9 4.6-11.6 11.7-13.3 19.9v.1l-6.2-1.2c-2.7-.5-5.4.5-7.1 2.5L335 323.1c5.1-4.2 10.3-8.7 15.5-13.7 3.9-3.8 5.5-9.2 4.1-14.5-1.3-5.3-5.3-9.3-10.6-10.8l-38.7-10.8c6.8-12.5 14.5-29.4 20.6-49.9l34.5 6zm80.1-28.4c9.5 0 17.2 7.7 17.2 17.2s-7.7 17.2-17.2 17.2-17.2-7.7-17.2-17.2S431 201 440.5 201zm-69.9 8.1l37.9 5.8c-.1 1.1-.2 2.1-.2 3.2l-38.4-3 .7-6zm-211.7 8.1c-3 3.5-7.1 5.6-11.7 6-4.6.4-9-1.1-12.5-4.1-3.5-3-5.6-7.1-6-11.7-.4-4.6 1.1-9 4.1-12.5s7.1-5.6 11.7-6c.5 0 .9-.1 1.4-.1 4.1 0 8 1.4 11.1 4.1 3.5 3 5.6 7.1 6 11.7.3 4.7-1.2 9.1-4.1 12.6zm19-13.7c-.1-1.1-.2-2.1-.4-3.2l37.3-8.8 1.1 6-38 6zm64-12.1l-11.3 2.9-1.4-7.4 26.2-10.7c-4 4.8-8.5 9.9-13.5 15.2zm153.1-74c-.2 6.2-5.5 11.1-11.7 10.9h-.3c1.8-5.6 2.9-11.5 3.1-17.7.1-1.5 0-3.1 0-4.6 5.2 1.1 9.1 5.8 8.9 11.4zm-139.5 6.2c-3-.1-5.8-1.4-7.9-3.6-2.1-2.2-3.1-5.1-3-8.1.1-3 1.4-5.8 3.6-7.9 1.7-1.6 3.8-2.6 6.1-2.9-.2 1.5-.3 3-.3 4.6-.2 6.2.4 12.1 1.8 17.9h-.3zm1.6-61.1c-2.4 10-2.5 19-2.3 23.6-1.7.1-3.3.3-4.9.7.6-13.7 4-36.2 18.8-52.2 11.9-13 29.4-19.6 52-19.6 22.8 0 40.2 6.7 51.9 19.8 16 18 17.8 44.1 17.7 56.7-1.8-.5-3.7-.7-5.6-.8.1-.4.2-.9.3-1.3.1-.5 1.6-12.9-1.8-27.3-.9-4-5-6.6-9-5.6-4 .9-6.5 5-5.6 9 1.4 5.9 1.7 11.5 1.8 15.5H269.8c.1-3.9.5-9.2 1.9-14.9 1-4-1.5-8.1-5.6-9-4-1.1-8 1.4-9 5.4zm61.1 96.7c-28.2-1-50.2-24.8-49.2-52.9.1-3.5.6-7 1.4-10.4h99.3c1.1 4.6 1.6 9.3 1.4 14.1-1 28.1-24.7 50.2-52.9 49.2zm110.2 189.6l6.7 1.3-3.5 17.7-6.7-1.3 3.5-17.7zm-51.4 3.4l6.2 1.2c4.1.8 8-1.8 8.8-5.9l1.5-7.4c.8-4.2 3.3-7.9 6.9-10.3 3.6-2.4 7.9-3.3 12.2-2.4l4.7.9-8.5 42.7-.8 3.9-34.2-6.8 3.2-15.9zM211.8 497h-18.1v-6.8h18.1v6.8zm-13.3-56.7v6.3c0 4.1 3.4 7.5 7.5 7.5h7.6c4.3 0 8.4 1.7 11.4 4.7 3.1 3.1 4.7 7.1 4.7 11.5v4.8h-47.5v-34.8h16.3zm163-87l-1 5.2-56.7-14.5c5.9-3.1 11.8-6.7 17.8-10.9l39.9 20.2zM340 298.5s0 .1 0 0c-7.8 7.6-15.6 14.1-23.2 19.6-.3.2-.5.3-.7.5-12.6 9.1-24.8 15.5-36.6 19.8-.4.1-2 .6-2.4.9-13.2 4.6-25.7 6.5-37.5 6.5-4.8 0-14.9-1-17.7-1.5-32.4-5.3-57.4-23.9-71.1-36.6-8.9-8.2-18.7-15-29.2-20v-.1l36.8-11.8c5.5 4.3 17.4 12.9 34.1 19.9 17.9 7.6 36.2 11.4 54.4 11.4 12.9 0 25.7-1.9 38.2-5.8 1.4-.4 2.7-1.3 3.6-2.4.4-.5 3.8-4.7 8.7-12.4l42.6 12z"/><path d="M404.6 267.2c-3.8-2-6.8-5.3-8.9-9.8-2-4.2-6.1-6.7-10.7-6.7s-8.7 2.6-10.7 6.7c-2.1 4.5-5.1 7.8-8.9 9.8-3.3 1.8-5.4 5.3-5.4 9.1s2.1 7.3 5.4 9.1c3.8 2 6.8 5.3 8.9 9.8 2 4.2 6.1 6.7 10.7 6.7s8.7-2.6 10.7-6.7c2.1-4.5 5.1-7.8 8.9-9.8 3.3-1.8 5.4-5.3 5.4-9.1 0-3.9-2.1-7.4-5.4-9.1zm-19.7 16.4c-1.9-2.8-4-5.3-6.5-7.4 2.5-2.1 4.6-4.6 6.5-7.4 1.9 2.8 4 5.3 6.5 7.4-2.4 2.1-4.6 4.6-6.5 7.4zm-230.3 68.7c-3.8-2-6.8-5.3-8.9-9.8-2-4.2-6.1-6.7-10.7-6.7s-8.7 2.6-10.7 6.7c-2.1 4.5-5.1 7.8-8.9 9.8-3.3 1.8-5.4 5.3-5.4 9.1s2.1 7.3 5.4 9.1c3.8 2 6.8 5.3 8.9 9.8 2 4.2 6.1 6.7 10.7 6.7s8.7-2.6 10.7-6.7c2.1-4.5 5.1-7.8 8.9-9.8 3.3-1.8 5.4-5.3 5.4-9.1s-2-7.3-5.4-9.1zM135 368.8c-1.9-2.8-4-5.3-6.5-7.4 2.5-2.1 4.6-4.6 6.5-7.4 1.9 2.8 4 5.3 6.5 7.4-2.5 2.1-4.6 4.6-6.5 7.4zm79.3-236.9c-3.8-2-6.8-5.3-8.9-9.8-2-4.2-6.1-6.7-10.7-6.7s-8.7 2.6-10.7 6.7c-2.1 4.5-5.1 7.8-8.9 9.8-3.3 1.8-5.4 5.3-5.4 9.1s2.1 7.3 5.4 9.1c3.8 2 6.8 5.3 8.9 9.8 2 4.2 6.1 6.7 10.7 6.7s8.7-2.6 10.7-6.7c2.1-4.5 5.1-7.8 8.9-9.8 3.3-1.8 5.4-5.3 5.4-9.1s-2.1-7.3-5.4-9.1zm-19.7 16.5c-1.9-2.8-4-5.3-6.5-7.4 2.5-2.1 4.6-4.6 6.5-7.4 1.9 2.8 4 5.3 6.5 7.4-2.4 2.1-4.6 4.6-6.5 7.4zm110.7-37.7c-11.2-8.7-23-4.3-27.7-.7-3.3 2.5-3.9 7.2-1.4 10.5s7.2 3.9 10.5 1.4c.2-.1 4.4-3.3 9.4.6 1.4 1.1 3 1.6 4.6 1.6 2.2 0 4.5-1 5.9-2.9 2.6-3.2 2-8-1.3-10.5z"/></symbol><symbol viewBox="0 0 512 512" id="icon-scr1-3" xmlns="http://www.w3.org/2000/svg"><path d="M392.5 183.6h-273v55.6h273v-55.6zm-15 40.6h-243v-25.6h243v25.6z"/><path d="M512 83.4h-39.4c-23.5 0-42.6 19.1-42.6 42.6v136.1h-85.3c-24.4 0-44.3 19.9-44.3 44.3v41.3h27.3L309 400.6h-30.6l-1.4-1.4V251.7h-15v153.7l10.2 10.2h31.5l-5 14.1h-85.4l-5-14.1h31.5l10.2-10.2V251.7h-15v147.5l-1.4 1.4H203l-18.8-52.9h27.3v-41.3c0-24.4-19.9-44.3-44.3-44.3H81.9V126c0-23.5-19.1-42.6-42.6-42.6H0v264.3h35.5L1 444.7h45.8l34.5-97h57l34.5 97h166.4l34.5-97h57l34.5 97H511l-34.5-97H512V83.4zM36.3 429.7h-14l29.1-82h14l-29.1 82zm-21.3-97v-13h83.3v-15H15V98.4h24.4C54.6 98.4 67 110.8 67 126v151.1h100.3c16.2 0 29.3 13.1 29.3 29.3v26.3H15zm168.4 97l-29.1-82h14l29.1 82h-14zm145.2 0h-14l29.1-82h14l-29.1 82zm161.1 0h-14l-29.1-82h14l29.1 82zm7.3-97H315.5v-13h83.3v-15h-83.3c.9-15.4 13.7-27.6 29.2-27.6H445V126c0-15.2 12.4-27.6 27.6-27.6H497v234.3z"/><path d="M230.3 110.9h51.4l10.2 61.4 14.8-2.5-12.3-74h-17.6c.7-2.2 1.1-4.5 1.1-7 0-12.1-9.9-22-22-22s-22 9.8-22 22c0 2.4.4 4.8 1.1 7h-17.6l-12.3 74 14.8 2.5 10.4-61.4zM249 89c0-3.8 3.1-7 7-7s7 3.1 7 7c0 3.8-3.1 7-7 7s-7-3.2-7-7zM56.9 237.6h-15V176h15v61.6zm0-71.6h-15v-15h15v15zm0-25h-15v-15h15v15zM487 250.3h-15v-84.4h15v84.4zm0-94.4h-15v-15h15v15zm0-25h-15v-15h15v15zm-124.6 88h-33v-15h33v15zm-42.9 0h-15v-15h15v15zm-25 0h-15v-15h15v15z"/></symbol><symbol viewBox="0 0 442.5 339.2" id="icon-tick" xmlns="http://www.w3.org/2000/svg"><path d="M434.5 46.8L395.7 8c-5.3-5.3-11.8-8-19.4-8-7.6 0-14.1 2.7-19.4 8L169.6 195.6l-83.9-84.2c-5.3-5.3-11.8-8-19.4-8-7.6 0-14.1 2.7-19.4 8L8 150.2c-5.3 5.3-8 11.8-8 19.4 0 7.6 2.7 14.1 8 19.4l103.4 103.3 38.8 38.8c5.3 5.3 11.8 8 19.4 8 7.6 0 14.1-2.7 19.4-8l38.8-38.8L434.5 85.7c5.3-5.3 8-11.8 8-19.4 0-7.7-2.6-14.1-8-19.5z"/></symbol><symbol viewBox="0 0 48.2 27.7" id="icon-vk" xmlns="http://www.w3.org/2000/svg"><path d="M.5 4.2C.1 3.1-.5 2 .8 1.4c2.5 0 5-.1 7.5-.1 1.1 0 1.6.8 2.2 1.9 1.7 3.2 3.4 6.5 5.5 9.4.7 1 1.8 1.3 2.8-.2.1-2.1.2-4.2.3-6.2-.3-2.4-1.2-3.9-2.7-4-.8-.8-.2-1.5 1.7-1.9 3-.6 5.6-.4 7.9-.1 1.9.1 2.2 1.4 2.2 2.9-.1 2.9-.2 5.7-.2 8.5.6 2.8 2.1 1.7 3.1.5 1.8-2.6 3.4-5.1 4.7-7.9 1.4-2.9 1.7-2.7 2.7-2.7 2.3 0 4.8-.1 6.6-.1 3.8-.2 3.4 1.5 2.3 3.3-1.9 3.1-4.2 5.9-6.4 8.9-1.3 1.7-1.3 2.8.1 3.8 2 2.2 4.2 4.3 6 6.7 2 2.6.5 3.3-1.3 3.5h-6.7c-1.9 0-3.6-.4-4.8-2.5-2.8-3.7-4.9-4.7-5.7-2.6-.4.9-.7 2.1-.7 3.3 0 1.7-1 1.8-2.4 1.8-1.5 0-3 .4-4.4 0-5-1.3-9.8-3.6-14.5-11.7-1.9-3.5-4-7.3-6.1-11.7z" fill="#fff"/></symbol><symbol viewBox="0 0 270.4 98.1" id="iconSheer"><path d="M175.1 51.8c.2 1.2.3 2.1.5 3 2 8.4 8.6 14 17.2 14.7 7.6.6 13.6-2.3 18-8.5 2.2-3 5.7-3.5 8.5-1.1 1.6 1.4 1.8 3.2.5 4.9-.7.9-1.4 1.8-2.1 2.8-2.9 4-6.7 6.7-11.4 8.3-7.6 2.6-15.2 3-22.7.2-10.1-3.7-16.1-11.1-17.8-21.7-1-6.5-.4-13 2.6-18.9 4.3-8.4 11.1-13.6 20.5-15.1 6.2-1 12.4-.4 18.2 2.4 8.2 3.9 13.2 10.5 15.1 19.3.5 2.4.7 4.9.9 7.3.2 1.5-.5 2.2-2.1 2.3h-44.1c-.4.1-.9.1-1.8.1zm38.3-9.2c-1.2-7.9-10.7-14.7-19.4-14.2-9.1.5-18.2 7.5-18.5 14.2h37.9zm-101 9c.1.8.2 1.4.3 2 1.7 9.3 9.3 15.7 18.7 15.9 7.1.1 12.7-2.8 16.8-8.6 2.2-3.1 6.1-3.4 8.8-.7 1.3 1.4 1.5 3 .3 4.6-.5.8-1.1 1.5-1.7 2.2-3.1 4.5-7.3 7.4-12.5 9.1-7.6 2.5-15.2 2.7-22.5-.2-10.6-4.1-16.4-12.1-17.6-23.3-.6-5.4-.1-10.7 2.2-15.6 4.3-9.4 11.4-15.2 21.8-16.6 5.5-.7 11-.3 16.1 1.8 9.2 3.8 14.6 10.9 16.6 20.6.4 2.2.6 4.5.7 6.7.1 1.8-.3 2.2-2.2 2.2h-43.5c-.7-.1-1.4-.1-2.3-.1zm38.4-9.1c-1.2-7.8-10.4-14.4-19.4-14.2-8.8.2-17.9 7.2-18.6 14.2h38zm101 13.5c.7.6 1.1 1 1.5 1.4 4.9 4.2 9.8 8.3 14.6 12.5.3.3.7.6 1 .9 1.8 1.8 2 4.4.3 6.2-1.6 1.8-4.2 2.1-6.1.5-3.4-2.8-6.7-5.7-10-8.5-4.8-4.1-9.5-8.1-14.3-12.2-.4-.4-.9-.7-1.6-1.3 0 1-.1 1.6-.1 2.3v36.1c-.2 2.5-2.1 4.3-4.6 4.2-2.4-.1-4.1-1.9-4.2-4.4V21.9c0-1.6.2-1.9 1.7-1.9 2.1-.1 4.2-.1 6.2-.1 5 0 10.1.2 15.1-.1 8.4-.4 17.8 6.4 18.7 16.3.8 8.9-5.2 17.3-14.3 19.1-1.1.2-2.3.5-3.9.8zm-15.3-6.9c.5.1.9.1 1.2.1h12.6c1.2 0 2.4-.1 3.6-.5 3.9-1.2 7-3.5 8-7.7 1.7-7.1-3.6-13.7-10.9-13.7h-13c-.5 0-1 .1-1.5.1v21.7zM88.5 52H63.9c0 .7-.1 1.4-.1 2v18.9c0 .8 0 1.6-.2 2.3-.6 1.9-2.6 3.1-4.5 3-2.1-.2-3.8-1.8-4.1-3.9-.1-.5 0-1 0-1.5V5.4c0-.9.1-1.8.4-2.6.6-2 2.6-3 4.7-2.8 1.9.3 3.5 2 3.7 3.9.1.6 0 1.2 0 1.8v34.7c0 .7.1 1.4.1 2 1.5.4 22.9.4 24.5 0 0-.5.1-1.1.1-1.7V23.9c.2-2.3 1.9-4 4.2-4.1 2.3-.1 4.3 1.6 4.6 3.9.1.5 0 1 0 1.5v48.9c-.3 2.3-2.3 4.1-4.5 4-2.3-.1-4.1-1.9-4.3-4.2V52zM25 78.3c-5.9-.1-11.4-1.4-16.5-4.4-2.2-1.3-4.2-2.9-5.8-4.8-.8-1-1.6-2.1-2.2-3.3-1-1.9-.6-3.4.9-4.9 1.7-1.6 4.1-2.3 6.4-.7C9 61 10 62 10.9 63c.9.9 1.6 1.9 2.5 2.8 2.7 2.7 6 4.2 9.8 4.6 3.5.4 7 .3 10.4-.9 1.4-.5 2.8-1.2 4-2.1 2.9-2.2 3-5.9.2-8.2-1.3-1.1-2.9-1.9-4.5-2.6-4-1.7-8.1-2.9-12.3-4-3.4-.8-6.7-1.9-10.1-2.9-1.3-.4-2.5-1.1-3.7-1.7-3.2-1.7-5-4.4-5.5-7.9-1-7.1 1.7-12.8 8.1-15.9 9.8-4.8 19.7-5.2 29.4.4 1.8 1 3.5 2.5 5.1 3.9 1.2 1 2 2.5 2.5 4 .8 2.6-.5 3.9-2.8 4.4-2 .4-3.8-.2-5.2-1.7-.3-.3-.5-.6-.7-.9-2.3-3.4-5.6-5.3-9.6-6.1-4-.7-8-.6-11.8.9-1.4.5-2.8 1.3-3.9 2.3-2.7 2.3-2.7 5.4-.1 7.8 1.7 1.6 3.7 2.5 5.9 3 4.8 1.2 9.7 2.4 14.5 3.6 3.1.8 6.1 1.8 8.9 3.4 3.6 1.9 6.2 4.7 7.1 8.8 1.1 5 0 9.4-3.9 13-4.4 4-9.5 6.3-15.4 7-1.7.1-3.3.2-4.8.3z"/></symbol></svg>