<?xml version="1.0" encoding="utf-8"?>
<!-- Generator: Adobe Illustrator 22.1.0, SVG Export Plug-In . SVG Version: 6.00 Build 0)  -->
<svg version="1.1" id="Слой_1" xmlns="http://www.w3.org/2000/svg" xmlns:xlink="http://www.w3.org/1999/xlink" x="0px" y="0px"
	 viewBox="0 0 727 324" style="enable-background:new 0 0 727 324;" xml:space="preserve">
<style type="text/css">
	.st0{fill:#fff;}
</style>
<g>
	<path class="st0" d="M0.5,323.5V195c18.2,0,33-14.8,33-33s-14.8-33-33-33V0.5h726V129c-18.2,0-33,14.8-33,33s14.8,33,33,33v128.5
		H0.5z"/>
	<path d="M726,1v127.5c-18.2,0.3-33,15.2-33,33.5s14.8,33.2,33,33.5V323H1V195.5c18.2-0.3,33-15.2,33-33.5s-14.8-33.2-33-33.5V1H726
		 M727,0H0v129.5c0.2,0,0.3,0,0.5,0c17.9,0,32.5,14.6,32.5,32.5c0,17.9-14.6,32.5-32.5,32.5c-0.2,0-0.3,0-0.5,0V324h727V194.5
		c-0.2,0-0.3,0-0.5,0c-17.9,0-32.5-14.6-32.5-32.5c0-17.9,14.6-32.5,32.5-32.5c0.2,0,0.3,0,0.5,0V0L727,0z"/>
</g>
</svg>
