<?xml version="1.0" encoding="utf-8"?><svg xmlns="http://www.w3.org/2000/svg" xmlns:xlink="http://www.w3.org/1999/xlink"><symbol viewBox="0 0 429 431" id="bg-job" xmlns="http://www.w3.org/2000/svg"><path d="M271.5 0c-.3 31.2-25.7 56.5-57 56.5s-56.7-25.3-57-56.5H0v431h429V0H271.5z" fill="#fff"/></symbol><symbol viewBox="0 0 336 393" id="bg-partnership" xmlns="http://www.w3.org/2000/svg"><path d="M214 0c0 25.4-20.6 46-46 46s-46-20.6-46-46H0v393h336V0H214z" fill="#fff"/></symbol><symbol viewBox="0 0 727 324" preserveAspectRatio="none" id="bg-reviews" xmlns="http://www.w3.org/2000/svg"><path d="M.5 323.5V195c18.2 0 33-14.8 33-33s-14.8-33-33-33V.5h726V129c-18.2 0-33 14.8-33 33s14.8 33 33 33v128.5H.5z" fill="#fff"/><path d="M726 1v127.5c-18.2.3-33 15.2-33 33.5s14.8 33.2 33 33.5V323H1V195.5c18.2-.3 33-15.2 33-33.5s-14.8-33.2-33-33.5V1h725m1-1H0v129.5h.5c17.9 0 32.5 14.6 32.5 32.5S18.4 194.5.5 194.5H0V324h727V194.5h-.5c-17.9 0-32.5-14.6-32.5-32.5s14.6-32.5 32.5-32.5h.5V0z" fill="none"/></symbol><symbol viewBox="0 0 336 338" preserveAspectRatio="none" id="bg-services" xmlns="http://www.w3.org/2000/svg"><path d="M213 0c-.3 24.3-20.1 44-44.5 44S124.3 24.3 124 0H0v338h336V0H213z" fill="#fff"/></symbol><symbol viewBox="0 0 448 512.1" id="icon-adv-1" xmlns="http://www.w3.org/2000/svg"><path d="M447.4 21.2c-.8-2.1-2.3-3.7-4.4-4.6L409.8 3.1c-10.1-4.2-25.3-4.2-35.4 0l-26.6 11c-6.1 2.5-17.2 2.5-23.3 0l-26.6-11c-10.1-4.2-25.4-4.2-35.5 0l-26.6 11c-6.1 2.5-17.2 2.5-23.3 0l-26.6-11c-10.1-4.2-25.4-4.2-35.5 0l-26.6 11c-6.1 2.5-17.2 2.5-23.3 0l-26.6-11C63.7-1 48.5-1 38.3 3.1L5 16.6c-.9.4-1.6.9-2.3 1.5-.5.5-.9 1-1.2 1.6-.3.5-.7 1-.9 1.6C.2 22.1 0 23 0 24v480.1c0 .5.2 1 .3 1.5.1.5.1 1 .3 1.5v.1c0 .1.1.2.2.3.4.8.8 1.4 1.4 2l.6.6c.5.4 1.1.8 1.7 1.1.3.1.5.3.8.4.8.2 1.7.4 2.7.4 1 0 2-.2 3-.6h.1L44.3 498c6.1-2.5 17.2-2.5 23.3 0l26.6 11c10.1 4.2 25.4 4.2 35.5 0l26.6-11c6.1-2.5 17.2-2.5 23.3 0l26.6 11c10.1 4.2 25.4 4.2 35.5 0l26.6-11c6.1-2.5 17.2-2.5 23.3 0l26.6 11c5.1 2.1 11.4 3.1 17.8 3.1s12.7-1 17.8-3.1l26.6-11c6.1-2.5 17.2-2.5 23.3 0l33.1 13.4h.1c1 .4 2 .6 3 .6s1.9-.2 2.8-.6c.3-.1.5-.2.8-.4.6-.3 1.1-.7 1.6-1.1l.6-.6c.5-.6 1-1.2 1.3-2 .1-.1.2-.2.2-.3v-.1c.2-.5.2-1.1.3-1.6.1-.5.3-.9.3-1.4V24c.2-1 0-1.9-.4-2.8zm-37.6 429.9c-10.2-4.2-25.4-4.2-35.5 0l-26.6 11c-1.1.5-2.4.8-3.7 1.1v-95.7c3.5-.5 6.9-1.3 9.8-2.5l26.6-11c6.1-2.5 17.2-2.5 23.3 0l28.2 11.5v94.7l-22.1-9.1zm-371.5 0l-22.3 9v-94.7L44.3 354c6.1-2.5 17.2-2.5 23.3 0l26.6 11c2.9 1.2 6.2 2 9.7 2.5v95.7c-1.3-.3-2.6-.6-3.6-1.1l-26.6-11c-10-4.1-25.2-4.1-35.4 0zm6-321.1c6.1-2.5 17.2-2.5 23.3 0l26.6 11c2.9 1.2 6.2 2 9.7 2.5v95.7c-1.3-.3-2.6-.6-3.6-1.1l-26.6-11c-10.1-4.2-25.3-4.2-35.4 0l-22.3 9v-94.7L44.3 130zm359.4 0s.1 0 0 0c.1 0 .1 0 0 0l28.3 11.5v94.7l-22.2-9c-10.1-4.2-25.3-4.2-35.4 0l-26.6 11c-1.1.5-2.4.8-3.7 1.1v-95.7c3.5-.5 6.9-1.3 9.8-2.5l26.6-11c6-2.6 17.1-2.6 23.2-.1zm6.1 209.2c0-.1 0 0 0 0-10.2-4.2-25.4-4.2-35.5 0l-26.6 11c-1.1.4-2.4.8-3.7 1.1v-95.7c3.5-.5 6.9-1.3 9.8-2.5l26.6-11c6.1-2.5 17.2-2.5 23.3 0l28.2 11.5v94.7l-22.1-9.1zm-371.5-.1l-22.3 9v-94.7L44.3 242c6.1-2.5 17.2-2.5 23.3 0l26.6 11c2.9 1.2 6.2 2 9.7 2.5v95.7c-1.3-.3-2.6-.6-3.6-1.1l-26.6-11c-10-4.1-25.2-4.1-35.4 0zm81.7-83.6c3.5-.5 6.9-1.3 9.8-2.5l26.6-11c6.1-2.5 17.2-2.5 23.3 0l26.6 11c2.9 1.2 6.2 2 9.7 2.5v95.7c-1.3-.3-2.5-.6-3.6-1.1l-26.6-11c-10.1-4.2-25.4-4.2-35.5 0l-26.6 11c-1.1.4-2.3.8-3.7 1.1v-95.7zm112 0c3.5-.5 6.9-1.3 9.8-2.5l26.6-11c6.1-2.5 17.2-2.5 23.3 0l26.6 11c2.9 1.2 6.2 2 9.7 2.5v95.7c-1.3-.3-2.5-.6-3.6-1l-26.6-11c-10.1-4.2-25.4-4.2-35.5 0l-26.6 11c-1.1.4-2.4.8-3.7 1.1v-95.8zm96-16.3c-1.3-.3-2.5-.6-3.6-1l-26.6-11c-10.1-4.2-25.4-4.2-35.5 0l-26.6 11c-1.1.4-2.4.8-3.7 1.1v-95.7c3.5-.5 6.9-1.3 9.8-2.5l26.6-11c6.1-2.5 17.2-2.5 23.3 0l26.6 11c2.9 1.2 6.2 2 9.7 2.5v95.6zm-112 0c-1.3-.3-2.5-.6-3.6-1.1l-26.6-11c-10.1-4.2-25.4-4.2-35.5 0l-26.6 11c-1.1.4-2.3.8-3.7 1.1v-95.7c3.5-.5 6.9-1.3 9.8-2.5l26.6-11c6.1-2.5 17.2-2.5 23.3 0l26.6 11c2.9 1.2 6.2 2 9.7 2.5v95.7zm-96 128.3c3.5-.5 6.9-1.3 9.8-2.5l26.6-11c6.1-2.5 17.2-2.5 23.3 0l26.6 11c2.9 1.2 6.2 2 9.7 2.5v95.7c-1.3-.3-2.5-.6-3.6-1.1l-26.6-11c-10.1-4.2-25.4-4.2-35.5 0l-26.6 11c-1.1.4-2.3.8-3.7 1.1v-95.7zm112 0c3.5-.5 6.9-1.3 9.8-2.5l26.6-11c6.1-2.5 17.2-2.5 23.3 0l26.6 11c2.9 1.2 6.2 2 9.7 2.5v95.7c-1.3-.3-2.5-.6-3.6-1l-26.6-11c-10.1-4.2-25.4-4.2-35.5 0l-26.6 11c-1.1.4-2.4.8-3.7 1.1v-95.8zM353.8 28.9l26.6-11c6.1-2.5 17.2-2.5 23.3 0L432 29.4v94.8l-22.2-9c-10.1-4.2-25.3-4.2-35.4 0l-26.6 11c-1.1.4-2.4.8-3.7 1.1V31.5c3.4-.6 6.8-1.4 9.7-2.6zm-112 0l26.6-11c6.1-2.5 17.2-2.5 23.3 0l26.6 11c2.9 1.2 6.2 2 9.7 2.5v95.8c-1.3-.3-2.5-.6-3.6-1l-26.6-11c-10.1-4.2-25.4-4.2-35.5 0l-26.6 11c-1.1.4-2.4.8-3.7 1.1V31.4c3.5-.5 6.9-1.3 9.8-2.5zm-112 0l26.6-11c6.1-2.5 17.2-2.5 23.3 0l26.6 11c2.9 1.2 6.2 2 9.7 2.5v95.8c-1.3-.3-2.5-.6-3.6-1.1l-26.6-11c-10.1-4.2-25.4-4.2-35.5 0l-26.6 11c-1.1.4-2.3.8-3.7 1.1V31.4c3.5-.5 6.9-1.3 9.8-2.5zm-62.2-11l26.6 11c2.9 1.2 6.2 2 9.7 2.5v95.8c-1.3-.3-2.6-.6-3.6-1.1l-26.6-11c-10.1-4.2-25.3-4.2-35.4 0l-22.3 9V29.4l28.3-11.5c6.1-2.5 17.3-2.5 23.3 0zm306.7 465.3l-26.6 11c-6.1 2.5-17.2 2.5-23.3 0l-26.6-11c-10.1-4.2-25.4-4.2-35.5 0l-26.6 11c-6.1 2.5-17.2 2.5-23.3 0l-26.6-11c-10.1-4.2-25.4-4.2-35.5 0l-26.6 11c-6.1 2.5-17.2 2.5-23.3 0l-26.6-11c-10.1-4.2-25.3-4.2-35.4 0l-22.3 9v-14.7L44.4 466c6.1-2.5 17.2-2.5 23.3 0l26.6 11c10.1 4.2 25.4 4.2 35.5 0l26.6-11c6.1-2.5 17.2-2.5 23.3 0l26.6 11c10.1 4.2 25.4 4.2 35.5 0l26.6-11c6.1-2.5 17.2-2.5 23.3 0l26.6 11c5.1 2.1 11.4 3.1 17.8 3.1s12.7-1 17.8-3.1l26.6-11c6.1-2.5 17.2-2.5 23.3 0l28.2 11.5v14.7l-22.2-9c-10.1-4.2-25.4-4.2-35.5 0z"/></symbol><symbol viewBox="0 0 58 58" id="icon-adv-2" xmlns="http://www.w3.org/2000/svg"><path d="M21 14h-5V9c0-.6-.4-1-1-1s-1 .4-1 1v5H9c-.6 0-1 .4-1 1s.4 1 1 1h5v5c0 .6.4 1 1 1s1-.4 1-1v-5h5c.6 0 1-.4 1-1s-.4-1-1-1zm28 0H37c-.6 0-1 .4-1 1s.4 1 1 1h12c.6 0 1-.4 1-1s-.4-1-1-1z"/><path d="M30 0H0v58h58V0H30zM2 2h26v26H2V2zm0 54V30h26v26H2zm54 0H30V30h26v26zM30 28V2h26v26H30z"/><path d="M37 47h12c.6 0 1-.4 1-1s-.4-1-1-1H37c-.6 0-1 .4-1 1s.4 1 1 1zm0-6h12c.6 0 1-.4 1-1s-.4-1-1-1H37c-.6 0-1 .4-1 1s.4 1 1 1zm-16.3-3.7c-.4-.4-1-.4-1.4 0L15 41.6l-4.3-4.3c-.4-.4-1-.4-1.4 0s-.4 1 0 1.4l4.3 4.3-4.3 4.3c-.4.4-.4 1 0 1.4.2.2.4.3.7.3s.5-.1.7-.3l4.3-4.3 4.3 4.3c.2.2.5.3.7.3s.5-.1.7-.3c.4-.4.4-1 0-1.4L16.4 43l4.3-4.3c.4-.4.4-1 0-1.4z"/></symbol><symbol viewBox="0 0 324.3 512" id="icon-adv-3" xmlns="http://www.w3.org/2000/svg"><path d="M136.5 416.1v-370c0-20.5-17.1-37.5-37.5-37.5H37.5C17.1 8.5 0 25.6 0 46.1v372c0 2.7 1 4.9 2.6 6.4l58.8 84c1.7 1.7 4.3 3.4 6.8 3.4s5.1-1.7 6.8-4.3l57.6-82.3c2.4-1.4 3.9-4 3.9-7.3.1-.5.1-1.2 0-1.9zm-119.4-6.5V136.5h42.7v273.1H17.1zm102.4-290.1H17.1V85.3h102.4v34.2zm-42.7 17h42.7v273.1H76.8V136.5zM17.1 46.1c0-11.1 9.4-20.5 20.5-20.5H99c11.1 0 20.5 9.4 20.5 20.5v22.2H17.1V46.1zM68.3 489l-43.5-62.3h87L68.3 489zM298.7 0h-85.3c-14.5 0-25.6 11.1-25.6 25.6v465.9c0 11.1 9.4 20.5 20.5 20.5h96.4c11.1 0 19.6-9.4 19.6-20.5V25.6c0-14.5-11.1-25.6-25.6-25.6zm9.4 491.5c0 1.7-1.7 3.4-3.4 3.4h-96.4c-1.7 0-3.4-1.7-3.4-3.4V384h25.6c5.1 0 8.5-3.4 8.5-8.5s-3.4-8.5-8.5-8.5h-25.6v-17.1h42.7c5.1 0 8.5-3.4 8.5-8.5s-3.4-8.5-8.5-8.5h-42.7v-17.1h25.6c5.1 0 8.5-3.4 8.5-8.5s-3.4-8.5-8.5-8.5h-25.6v-17.1h42.7c5.1 0 8.5-3.4 8.5-8.5s-3.4-8.5-8.5-8.5h-42.7v-17.1h25.6c5.1 0 8.5-3.4 8.5-8.5s-3.4-8.5-8.5-8.5h-25.6v-17.1h42.7c5.1 0 8.5-3.4 8.5-8.5s-3.4-8.5-8.5-8.5h-42.7v-17.1h25.6c5.1 0 8.5-3.4 8.5-8.5s-3.4-8.5-8.5-8.5h-25.6v-17.1h42.7c5.1 0 8.5-3.4 8.5-8.5s-3.4-8.5-8.5-8.5h-42.7v-17.1h25.6c5.1 0 8.5-3.4 8.5-8.5s-3.4-8.5-8.5-8.5h-25.6V76.8h42.7c5.1 0 8.5-3.4 8.5-8.5s-3.4-8.5-8.5-8.5h-42.7V25.6c0-5.1 3.4-8.5 8.5-8.5h86.2c5.1 0 8.5 3.4 8.5 8.5v465.9z"/><path d="M256 409.6c-18.8 0-34.1 15.4-34.1 34.1s15.4 34.1 34.1 34.1 34.1-15.4 34.1-34.1-15.3-34.1-34.1-34.1zm0 51.2c-9.4 0-17.1-7.7-17.1-17.1s7.7-17.1 17.1-17.1 17.1 7.7 17.1 17.1-7.7 17.1-17.1 17.1z"/></symbol><symbol viewBox="0 0 512 512" id="icon-download" xmlns="http://www.w3.org/2000/svg"><path d="M409.8 278.5L256 432.3 102.2 278.5l28.3-28.3L236 355.7V0h40v355.7l105.5-105.5 28.3 28.3zM512 472H0v40h512v-40z"/></symbol><symbol viewBox="0 0 512 512" id="icon-features-1" xmlns="http://www.w3.org/2000/svg"><path d="M373.5 181.2v105.9c0 4.1 3.4 7.5 7.5 7.5s7.5-3.4 7.5-7.5v-35H467c2.3 0 4.4-1 5.9-2.8 1.4-1.8 2-4.1 1.5-6.3l-14.3-63.4c-.8-3.4-3.8-5.9-7.3-5.9H381c-4.2.1-7.5 3.4-7.5 7.5zm15 7.6h58.3l10.9 48.4h-69.2v-48.4z"/><path d="M0 104.5v167.7c0 6 2.3 11.7 6.6 15.9 4.3 4.3 9.9 6.6 15.9 6.6h6v60c0 11.7 9 21.4 20.5 22.4 3.7 29.6 29 52.6 59.5 52.6s55.8-22.9 59.5-52.5h175.9c3.7 29.6 29 52.5 59.5 52.5s55.8-22.9 59.5-52.5h34c8.3 0 15-6.7 15-15v-15c0-5.9-3.5-11.1-8.5-13.5v-69c0-13.8-1.5-27.7-4.6-41.2L487.6 173c-3.9-17.2-18.9-29.3-36.6-29.3h-92.5v-39.3c0-6-2.4-11.7-6.6-15.9-4.2-4.2-9.9-6.6-15.9-6.6H22.5c-6 0-11.7 2.4-15.9 6.6-4.3 4.3-6.6 10-6.6 16zm459.1 242.7H497v15h-34c-.7-5.2-2-10.2-3.9-15zm-100.6 22.5c0-24.8 20.2-45 45-45 24.6 0 45 20 45 45 0 24.8-20.2 45-45 45-24.9 0-45-20.2-45-45zm0-210.9H451c10.6 0 19.6 7.2 22 17.6l11.4 50.5c2.8 12.4 4.2 25.1 4.2 37.9v67.5h-38.3c-11.4-14.2-28.6-22.5-46.8-22.5-17.9 0-34 7.9-45 20.4V158.8zm-295 210.9c0-24.8 20.2-45 45-45s45 20.2 45 45-20.2 45-45 45-45-20.2-45-45zM15 104.5c0-4.1 3.4-7.5 7.5-7.5h313.4c4.1 0 7.5 3.4 7.5 7.5v257.7H168c-3.7-29.6-29-52.5-59.5-52.5-30.4 0-55.7 22.8-59.5 52.2-3.2-.9-5.5-3.8-5.5-7.2v-60h277.4c4.1 0 7.5-3.4 7.5-7.5s-3.4-7.5-7.5-7.5H22.5c-4.1 0-7.5-3.4-7.5-7.5V104.5z"/><path d="M128.6 357.1c-4 1-6.5 5-5.5 9.1.3 1.2.4 2.4.4 3.6 0 8.3-6.8 15-15 15-8.3 0-15-6.8-15-15 0-8.3 6.8-15 15-15 4.1 0 7.5-3.4 7.5-7.5s-3.3-7.5-7.5-7.5c-16.6 0-30 13.4-30 30s13.4 30 30 30 30-13.4 30-30c0-2.4-.3-4.8-.8-7.1-1-4.1-5-6.6-9.1-5.6zm295 0c-4 1-6.5 5-5.5 9.1.3 1.1.4 2.3.4 3.6 0 8.3-6.8 15-15 15-8.3 0-15-6.8-15-15 0-8.3 6.7-15 15-15 4.1 0 7.5-3.4 7.5-7.5s-3.4-7.5-7.5-7.5c-16.6 0-30 13.4-30 30 0 8 3.1 15.5 8.8 21.2 5.7 5.7 13.2 8.8 21.2 8.8s15.6-3.1 21.2-8.8c5.7-5.7 8.8-13.2 8.8-21.2 0-2.4-.3-4.8-.8-7.1-1-4.2-5.1-6.6-9.1-5.6z"/></symbol><symbol viewBox="0 0 512 512" id="icon-features-2" xmlns="http://www.w3.org/2000/svg"><path d="M248.5 99v29c0 4.1 3.4 7.5 7.5 7.5s7.5-3.4 7.5-7.5V99c0-4.1-3.4-7.5-7.5-7.5s-7.5 3.4-7.5 7.5zm15 314v-29c0-4.1-3.4-7.5-7.5-7.5s-7.5 3.4-7.5 7.5v29c0 4.1 3.4 7.5 7.5 7.5s7.5-3.4 7.5-7.5zm-128-157c0-4.1-3.4-7.5-7.5-7.5H99c-4.1 0-7.5 3.4-7.5 7.5s3.4 7.5 7.5 7.5h29c4.1 0 7.5-3.4 7.5-7.5zm58-123.3l-9.5-16.5c-2.1-3.6-6.7-4.8-10.2-2.7s-4.8 6.7-2.7 10.2l9.5 16.5c1.4 2.4 3.9 3.8 6.5 3.8 1.3 0 2.6-.3 3.7-1 3.5-2.1 4.8-6.7 2.7-10.3zm141 266.8c1.3 0 2.6-.3 3.7-1 3.6-2.1 4.8-6.7 2.7-10.2l-9.5-16.5c-2.1-3.6-6.7-4.8-10.2-2.7-3.6 2.1-4.8 6.7-2.7 10.2l9.5 16.5c1.4 2.3 3.9 3.7 6.5 3.7zm41-205c1.3 0 2.6-.3 3.7-1l16.5-9.5c3.6-2.1 4.8-6.7 2.7-10.2s-6.7-4.8-10.2-2.7l-16.5 9.5c-3.6 2.1-4.8 6.7-2.7 10.2 1.4 2.4 3.9 3.7 6.5 3.7zM120 342c1.3 0 2.6-.3 3.7-1l16.5-9.5c3.6-2.1 4.8-6.7 2.7-10.2-2.1-3.6-6.7-4.8-10.2-2.7l-16.5 9.5c-3.6 2.1-4.8 6.7-2.7 10.2 1.4 2.4 3.9 3.7 6.5 3.7zm20.2-161.5l-16.5-9.5c-3.6-2.1-8.2-.8-10.2 2.7-2.1 3.6-.8 8.2 2.7 10.2l16.5 9.5c1.2.7 2.5 1 3.7 1 2.6 0 5.1-1.3 6.5-3.8 2.2-3.4.9-8-2.7-10.1zM392 342c2.6 0 5.1-1.3 6.5-3.8 2.1-3.6.8-8.2-2.7-10.2l-16.5-9.5c-3.6-2.1-8.2-.8-10.2 2.7-2.1 3.6-.8 8.2 2.7 10.2l16.5 9.5c1.1.8 2.4 1.1 3.7 1.1zm-201.2 27c-3.6-2.1-8.2-.8-10.2 2.7l-9.5 16.5c-2.1 3.6-.8 8.2 2.7 10.2 1.2.7 2.5 1 3.7 1 2.6 0 5.1-1.3 6.5-3.8l9.5-16.5c2.1-3.4.8-8-2.7-10.1zm229.7-113c0-4.1-3.4-7.5-7.5-7.5H282.5c-.6-2.1-1.4-4.1-2.4-5.9l32.4-32.4c2.9-2.9 2.9-7.7 0-10.6-2.9-2.9-7.7-2.9-10.6 0L269.4 232c-4-2.2-8.5-3.5-13.4-3.5-15.2 0-27.5 12.3-27.5 27.5s12.3 27.5 27.5 27.5c12.6 0 23.2-8.5 26.5-20H413c4.1 0 7.5-3.4 7.5-7.5zM256 268.5c-6.9 0-12.5-5.6-12.5-12.5s5.6-12.5 12.5-12.5 12.5 5.6 12.5 12.5-5.6 12.5-12.5 12.5z"/><path d="M328.5 68.4l-.1-.1v-.1c-.4-.9-1-1.7-1.7-2.4l-.1-.1c-.8-.7-1.6-1.2-2.6-1.6-21.8-7.8-44.7-11.7-68-11.7-13.8 0-27.6 1.4-41 4.1-13.1 2.7-25.9 6.7-38.2 11.9-12.1 5.1-23.7 11.4-34.6 18.8-10.8 7.3-20.9 15.6-30.1 24.9-9.2 9.2-17.6 19.4-24.9 30.1-7.4 10.9-13.7 22.5-18.8 34.6-5.2 12.3-9.2 25.1-11.9 38.2-2.8 13.4-4.1 27.2-4.1 41v.5c.3 111.6 91.4 202.7 203 203h.5c22.8 0 45.3-3.8 66.7-11.2 20.7-7.2 40-17.7 57.5-31.2 3.3-2.5 3.9-7.3 1.3-10.5-1.4-1.9-3.6-2.9-5.9-2.9-1.7 0-3.3.5-4.6 1.6-33.2 25.7-73 39.3-115 39.3h-.5C152 444.3 67.7 360 67.5 256.6v-.6c0-50.3 19.6-97.6 55.3-133.2 35.7-35.6 83-55.3 133.2-55.3 21.5 0 42.7 3.6 62.8 10.8 1.8.7 3.8.7 5.6-.1 1-.4 1.9-1.1 2.7-1.9.6-.7 1.1-1.6 1.5-2.5.6-1.6.6-3.3 0-4.9v-.1h-.1v-.4z"/><path d="M506.5 203c-3.6-16.9-8.9-33.4-15.7-49.2-5.4-12.4-17.6-20.4-31-20.4h-.1c-5.9 0-11.8 1.6-16.9 4.6-5.2 3-9.5 7.4-12.4 12.5-2.9 5.1-4.4 10.8-4.4 16.7 0 4.7.9 9.2 2.8 13.5 10.4 23.8 15.7 49.1 15.7 75.3 0 46.8-17.3 91.7-48.8 126.4-1.3 1.4-1.9 3.2-1.9 5.1 0 2.1.9 4.1 2.5 5.5 1.4 1.3 3.2 1.9 5 1.9 2.1 0 4.1-.9 5.6-2.5 8.2-9 15.6-18.9 22-29.2 6.5-10.4 12.1-21.5 16.6-32.9 9.3-23.7 14.1-48.7 14.1-74.4 0-14.2-1.5-28.4-4.4-42.1-2.8-13.4-7.1-26.6-12.6-39.2-1.1-2.4-1.6-4.9-1.6-7.5 0-6.7 3.6-12.9 9.3-16.2 2.9-1.7 6.1-2.6 9.4-2.6 7.5 0 14.3 4.5 17.3 11.3 13.3 30.4 20 62.8 20 96.2 0 64.4-25.1 124.9-70.6 170.4-45.5 45.7-106 70.8-170.4 70.8s-124.9-25.1-170.4-70.6c-1.1-1.1-2.2-2.3-3.4-3.4l-.1-.1C38.8 377.8 15 318.5 15 256c0-64.4 25.1-124.9 70.6-170.4S191.6 15 256 15c37 0 72.6 8.2 105.6 24.3 2.1 1 4.6 1 6.7-.1 2.1-1.1 3.6-3.1 4-5.4 1.8-10.9 11.1-18.8 22.2-18.8 5.9 0 11.5 2.4 15.8 6.9 4.3 4.4 6.7 10.3 6.7 16.3V99c0 12.4-10.1 22.5-22.5 22.5h-60.9c-6 0-11.9-2.4-16.3-6.7-4.4-4.3-6.9-9.9-6.9-15.8v-.3c0-2-.7-3.9-2.1-5.3-1.4-1.4-3.3-2.2-5.3-2.3h-.1c-4.1 0-7.5 3.3-7.5 7.4v.5c0 5.1 1 10 3.1 14.7 2 4.5 4.8 8.5 8.3 11.9 3.5 3.4 7.6 6.1 12.1 8 4.7 1.9 9.6 2.9 14.6 2.9h60.9c10 0 19.4-3.9 26.5-11 7.1-7.1 11-16.5 11-26.5V38.1c0-5.1-1-10-3-14.6-1.9-4.5-4.6-8.6-8-12.1-3.4-3.5-7.4-6.3-11.9-8.3C404.5 1 399.5 0 394.5 0c-7.4 0-14.5 2.1-20.6 6.2-5.9 3.9-10.6 9.5-13.6 15.9-16.1-7.1-33-12.7-50.2-16.4C292.4 1.9 274.2 0 256 0c-17.4 0-34.7 1.8-51.6 5.2-16.4 3.4-32.6 8.4-48 14.9-15.2 6.4-29.8 14.4-43.5 23.6C99.3 52.9 86.6 63.4 75 75a258.38 258.38 0 0 0-31.3 37.9c-9.2 13.7-17.2 28.3-23.6 43.5-6.5 15.4-11.5 31.6-14.9 48C1.7 221.3 0 238.6 0 256c0 16.9 1.7 33.8 4.9 50.3 3.2 16.1 8 31.9 14.2 47 6.1 14.9 13.7 29.2 22.5 42.7 8.7 13.3 18.8 25.9 29.8 37.4 1.3 1.3 2.4 2.5 3.6 3.6 11.6 11.6 24.3 22.1 37.9 31.3 13.7 9.3 28.3 17.2 43.5 23.6 15.4 6.5 31.6 11.6 48 14.9 16.9 3.4 34.2 5.2 51.6 5.2s34.7-1.8 51.6-5.2c16.4-3.4 32.6-8.4 48-14.9 15.2-6.4 29.8-14.4 43.5-23.6 13.6-9.2 26.3-19.7 37.9-31.3 11.6-11.6 22.1-24.3 31.3-37.9 9.3-13.7 17.2-28.3 23.6-43.5 6.5-15.5 11.6-31.6 14.9-48.1 3.4-16.9 5.2-34.2 5.2-51.6 0-17.7-1.9-35.6-5.5-52.9z"/></symbol><symbol viewBox="0 0 512 512" id="icon-features-3" xmlns="http://www.w3.org/2000/svg"><path d="M129.3 185.9c0 4.5 3.6 8.1 8.1 8.1h75.5c4.5 0 8.1-3.6 8.1-8.1s-3.6-8.1-8.1-8.1h-75.5c-4.4.1-8.1 3.7-8.1 8.1zm-35-24.2h32.3c4.5 0 8.1-3.6 8.1-8.1s-3.6-8.1-8.1-8.1H94.3c-4.5 0-8.1 3.6-8.1 8.1s3.6 8.1 8.1 8.1zM237.1 59.9v115.2c0 10.4 8.5 18.9 18.9 18.9h107.8c10.4 0 18.9-8.5 18.9-18.9V59.9l40.7-40.7c3.2-3.2 3.2-8.3 0-11.4s-8.3-3.2-11.4 0l-40.7 40.7H248.6L207.8 7.8c-3.2-3.2-8.3-3.2-11.4 0-3.2 3.2-3.2 8.3 0 11.4l40.7 40.7zm16.2 4.8h113.2v110.5c0 1.5-1.2 2.7-2.7 2.7H256c-1.5 0-2.7-1.2-2.7-2.7V64.7zm-72.8 97h32.3c4.5 0 8.1-3.6 8.1-8.1s-3.6-8.1-8.1-8.1h-32.3c-4.5 0-8.1 3.6-8.1 8.1.1 4.5 3.7 8.1 8.1 8.1zm299.2 115.9c0-19.3-15.7-35-35-35s-35 15.7-35 35 15.7 35 35 35c19.2 0 35-15.7 35-35zm-53.9 0c0-10.4 8.5-18.9 18.9-18.9 10.4 0 18.9 8.5 18.9 18.9 0 10.4-8.5 18.9-18.9 18.9-10.5-.1-18.9-8.5-18.9-18.9zm-366.5-1.1v2.2c0 4.5 3.6 8.1 8.1 8.1s8.1-3.6 8.1-8.1v-2.2c0-4.5-3.6-8.1-8.1-8.1s-8.1 3.6-8.1 8.1zm161.7 1.1c0 19.3 15.7 35 35 35s35-15.7 35-35-15.7-35-35-35-35 15.6-35 35zm53.9 0c0 10.4-8.5 18.9-18.9 18.9-10.4 0-18.9-8.5-18.9-18.9 0-10.4 8.5-18.9 18.9-18.9 10.4 0 18.9 8.5 18.9 18.9z"/><path d="M503.9 490.4h-24.3V477c0-16.3-13.3-29.6-29.6-29.6h-13.5V345h8.1c37.1 0 67.4-30.2 67.4-67.4s-30.2-67.4-67.4-67.4h-37.7c-4.5 0-8.1 3.6-8.1 8.1s3.6 8.1 8.1 8.1h37.7c28.2 0 51.2 23 51.2 51.2s-23 51.2-51.2 51.2H67.4c-28.2 0-51.2-23-51.2-51.2s23-51.2 51.2-51.2h307.2c4.5 0 8.1-3.6 8.1-8.1s-3.6-8.1-8.1-8.1H67.4C30.2 210.2 0 240.4 0 277.6 0 314.7 30.2 345 67.4 345h8.1v102.4H62c-16.3 0-29.6 13.3-29.6 29.6v13.5H8.1c-4.5 0-8.1 3.6-8.1 8.1s3.6 8.1 8.1 8.1H62c4.5 0 8.1-3.6 8.1-8.1s-3.6-8.1-8.1-8.1H48.5V477c0-7.4 6-13.5 13.5-13.5h43.1c7.4 0 13.5 6 13.5 13.5v13.5H94.3c-4.5 0-8.1 3.6-8.1 8.1s3.6 8.1 8.1 8.1h409.6c4.5 0 8.1-3.6 8.1-8.1s-3.6-8.2-8.1-8.2zm-83.5-145.5v28.5l-34.3-28.5h34.3zm-156.3 0h34.3l-34.3 28.5v-28.5zm-16.2 0v28.5l-34.3-28.5h34.3zm-156.3 0h34.3l-34.3 28.5v-28.5zM204.8 477v13.5h-70.1V477c0-16.3-13.3-29.6-29.6-29.6H91.6v-52.8l59.5-49.6h37.3l59.5 49.6v52.8h-13.5c-16.3-.1-29.6 13.2-29.6 29.6zm86.2 13.4h-70V477c0-7.4 6-13.5 13.5-13.5h43.1c7.4 0 13.5 6 13.5 13.5l-.1 13.4zm86.3-13.4v13.5h-70.1V477c0-16.3-13.3-29.6-29.6-29.6h-13.5v-52.8l59.5-49.6h37.3l59.5 49.6v52.8h-13.5c-16.3-.1-29.6 13.2-29.6 29.6zm86.2 13.4h-70.1V477c0-7.4 6-13.5 13.5-13.5H450c7.4 0 13.5 6 13.5 13.5v13.4z"/><path d="M452.7 278.6v-2.2c0-4.5-3.6-8.1-8.1-8.1s-8.1 3.6-8.1 8.1v2.2c0 4.5 3.6 8.1 8.1 8.1s8.1-3.6 8.1-8.1zm-420.4-1c0 19.3 15.7 35 35 35s35-15.7 35-35-15.7-35-35-35-35 15.6-35 35zm53.9 0c0 10.4-8.5 18.9-18.9 18.9-10.4 0-18.9-8.5-18.9-18.9 0-10.4 8.5-18.9 18.9-18.9s18.9 8.5 18.9 18.9zm161.7-1.1v2.2c0 4.5 3.6 8.1 8.1 8.1s8.1-3.6 8.1-8.1v-2.2c0-4.5-3.6-8.1-8.1-8.1s-8.1 3.6-8.1 8.1z"/></symbol><symbol viewBox="0 0 512 512" id="icon-features-4" xmlns="http://www.w3.org/2000/svg"><path d="M258.5 97.5V190H225v-77.5C225 50.5 174.5 0 112.5 0S0 50.5 0 112.5v287c0 60.7 48.3 110.3 108.5 112.4.3 0 .7.1 1 .1h82.2c4.1 0 7.5-3.4 7.5-7.5s-3.4-7.5-7.5-7.5h-23.1c33.7-19.5 56.4-55.9 56.4-97.5v-83.7c0-4.1-3.4-7.5-7.5-7.5s-7.5 3.4-7.5 7.5v27.6c-19.5-33.7-55.9-56.4-97.5-56.4s-78 22.7-97.5 56.4V112.5C15 58.7 58.7 15 112.5 15S210 58.7 210 112.5v170.7c0 4.1 3.4 7.5 7.5 7.5s7.5-3.4 7.5-7.5V205h33.5v138.5c0 53.8 43.7 97.5 97.5 97.5h141v56H224c-4.1 0-7.5 3.4-7.5 7.5s3.4 7.5 7.5 7.5h280.5c4.1 0 7.5-3.4 7.5-7.5v-339c0-4.1-3.4-7.5-7.5-7.5h-51V97.5C453.5 43.7 409.8 0 356 0s-97.5 43.7-97.5 97.5zM112.5 302c53.8 0 97.5 43.7 97.5 97.5S166.3 497 112.5 497 15 453.3 15 399.5 58.7 302 112.5 302zm161 41.5c0-45.5 37-82.5 82.5-82.5s82.5 37 82.5 82.5-37 82.5-82.5 82.5-82.5-37-82.5-82.5zm165-246V192c0 4.1 3.4 7.5 7.5 7.5s7.5-3.4 7.5-7.5v-19H497v253h-89.1c27.4-17.3 45.6-47.8 45.6-82.5V224c0-4.1-3.4-7.5-7.5-7.5s-7.5 3.4-7.5 7.5v67.6C421.2 264.2 390.7 246 356 246s-65.2 18.2-82.5 45.6V97.5c0-45.5 37-82.5 82.5-82.5s82.5 37 82.5 82.5z"/><path d="M161 399.5c0-26.7-21.8-48.5-48.5-48.5S64 372.8 64 399.5 85.8 448 112.5 448s48.5-21.8 48.5-48.5zm-82 0C79 381 94 366 112.5 366s33.5 15 33.5 33.5-15 33.5-33.5 33.5S79 418 79 399.5zm319.5-56c0-23.4-19.1-42.5-42.5-42.5s-42.5 19.1-42.5 42.5S332.6 386 356 386s42.5-19.1 42.5-42.5zm-70 0c0-15.2 12.3-27.5 27.5-27.5s27.5 12.3 27.5 27.5S371.2 371 356 371s-27.5-12.3-27.5-27.5z"/></symbol><symbol viewBox="0 0 512 512" id="icon-features-5" xmlns="http://www.w3.org/2000/svg"><path d="M449 355.5c-10.7-17.9-25.8-30.4-43.5-36.1l-50.1-16c-1.6-.5-3.3-.5-4.9 0l-7.9-11.9c-2.4-3.6-7.1-4.6-10.8-2.4l-3.9 2.3v-11.5c0-1.2-.3-2.4-.8-3.4 24.9-22 40.9-55.4 40.9-92.6V156c11-30.4 14.9-59.7 11.2-84.9-4.2-28.3-17.8-49.2-39.4-60.5h-.1s-.1 0-.1-.1c-.1 0-.1-.1-.2-.1-.1-.1-.3-.1-.4-.2-.1 0-.2-.1-.3-.1-.1 0-.3-.1-.4-.1-.1 0-.2-.1-.4-.1-.1 0-.3-.1-.4-.1-.1 0-.3 0-.4-.1h-1.9c-.2 0-.3 0-.5.1h-.2c-18.7 3.6-36.3-.4-53.3-4.3-27.1-6.2-55-12.5-84.4 12.2-1.6-.1-3.2-.2-4.8-.2-34.7 0-63 27.4-64 61.4v2.2c.3 37.4 13.6 80 16.2 88v14.7c0 37.2 15.8 70.4 40.7 92.5-.5 1.1-.8 2.3-.8 3.5v11.5l-3.9-2.3c-3.7-2.2-8.4-1.1-10.8 2.4l-7.9 11.9c-1.5-.5-3.2-.5-4.9 0l-50.1 16C88.7 325 73.7 337.5 63 355.5c-9.7 16.2-15 35.8-15 55.1V480c0 17.6 14.4 32 32 32h352c17.6 0 32-14.4 32-32v-69.5c.1-19.2-5.3-38.8-15-55zM375.3 386c.2 1.4-.4 2.8-1.6 3.6l-26.5 19.9c-1.9 1.4-3 3.5-3.2 5.8-.2 2.3.7 4.6 2.3 6.2l16.7 16.7c1.4 1.4 1.5 3.6.4 5.2L324 496h-32.3l67.8-173.1c.2-.4.3-.9.4-1.3l8.6 2.8 6.8 61.6zM237.5 496l-5.6-14.4 14.7-73.7h18.8l14.7 73.7-5.6 14.4h-37zm-49.5 0l-39.4-52.5c-1.2-1.6-1-3.8.4-5.2l16.7-16.7c1.6-1.6 2.5-3.9 2.3-6.2-.2-2.3-1.3-4.4-3.2-5.8l-26.5-19.9c-1.1-.8-1.7-2.2-1.6-3.6l6.9-61.7 8.6-2.8c.1.4.2.9.4 1.3L220.3 496H188zm60-136.1h16c4.4 0 8 3.6 8 8v16c0 4.4-3.6 8-8 8h-16c-4.4 0-8-3.6-8-8v-16c0-4.5 3.6-8 8-8zm43 94.1l-10.5-52.7.9-.9.2.3c3.3 4.9 8.5 8 14.3 8.6.6.1 1.3.1 1.9.1 4.5 0 8.9-1.6 12.3-4.4L291 454zm-60.6-53.2l.2-.3.9.9L221 454l-19.2-49c3.5 2.9 7.8 4.4 12.3 4.4.6 0 1.3 0 1.9-.1 6-.5 11.2-3.7 14.4-8.5zm103.2-94.1l9.5 14.2-18.8 48c-.7.4-1.3.8-1.9 1.4l-22.1 22.1c-1 1-2.2 1.1-2.8 1-.6-.1-1.8-.3-2.6-1.5l-6.9-10.3v-13.7c0-11.1-7.5-20.4-17.7-23.2l63.3-38zM144 80.7c.1-26 21.6-47.1 48-47.1 6.4 0 12.7 1.2 18.5 3.6 4.1 1.7 8.8-.3 10.4-4.3 1.6-3.8 0-8.2-3.6-10.1 19.3-10.9 37.8-6.7 60.3-1.7 17 3.9 36.1 8.2 57 4.9 19.6 11.4 26.5 31.9 28.8 47.4 2.7 18 .8 39.2-5.3 61.3L343 108a7.87 7.87 0 0 0-8.1-4c-.9.1-89.4 12-155.9-15.5-4.1-1.7-8.8.3-10.4 4.3-1.7 4.1.3 8.8 4.3 10.4 61.5 25.4 137.8 19.5 158.8 17.2l20.4 36.3v3.1H280c-4.7 0-9.2 2.1-12.2 5.7-.6.7-1.2 1.5-1.6 2.3h-20.3c-.5-.8-1-1.6-1.6-2.3-3-3.6-7.5-5.7-12.2-5.7h-69.7c5.2-20.2 18.2-34.4 18.3-34.5 3-3.2 2.9-8.3-.3-11.3-3.2-3-8.3-2.9-11.3.3-.6.6-9.5 10.2-16.4 25.3-4.3-16.6-8.6-38.9-8.7-58.9zm183.7 95.2l-6.8 15.4s0 .1-.1.1c-2.4 5.6-6.7 8.5-13 8.5H292c-3.9 0-7.3-2.8-7.9-6.7 0-.2-.1-.4-.1-.6l-4.1-16.7h47.8zm-95.7 0l-4.1 16.7c0 .2-.1.4-.1.6-.6 3.9-4 6.7-7.9 6.7h-15.8c-6.3 0-10.6-2.9-13-8.5 0 0 0-.1-.1-.1l-6.8-15.4H232zm-71.9 8v-8h7.9c0 .9 0 1.8.2 2.6.1.7.3 1.3.6 1.9l7.6 17.3c4.9 11.6 15 18.2 27.7 18.2h15.8c11.7 0 21.6-8.3 23.6-19.7l3-12.3h19l3 12.3c2.1 11.5 11.9 19.7 23.6 19.7h15.8c12.7 0 22.8-6.6 27.7-18.2l7.6-17.3c.3-.6.5-1.3.6-1.9.1-.9.2-1.8.2-2.6h8.1v8c0 57.4-43.1 104-96 104s-96-46.6-96-104zM200 287.7c16.5 10.3 35.7 16.2 56.1 16.2 20.3 0 39.4-5.8 55.9-16.1V301l-56 33.6-56-33.6v-13.3zm-21.6 19l63.3 38c-10.2 2.8-17.7 12.1-17.7 23.2v13.7l-6.9 10.3c-.8 1.2-1.9 1.5-2.6 1.5-.6.1-1.8 0-2.8-1l-22.1-22.1c-.6-.6-1.2-1.1-1.9-1.4l-18.8-48 9.5-14.2zM63.9 480v-69.5c0-39.9 23.9-68.4 47.4-75.9l15.5-5-6.1 54.6c-.8 7 2.2 14 7.9 18.2l19.2 14.4-10.2 10.2c-7 7-7.8 18.2-1.9 26.1L168 496H80c-8.9 0-16.1-7.2-16.1-16zm384.2 0c0 8.8-7.2 16-16 16h-88l32.2-42.9c5.9-7.9 5.1-19.1-1.9-26.1l-10.1-10.1 19.2-14.4c5.6-4.2 8.6-11.2 7.9-18.2l-6.1-54.6 15.5 5c23.6 7.5 47.4 36 47.4 75.9V480z"/></symbol><symbol viewBox="0 0 496 496" id="icon-pay-1" xmlns="http://www.w3.org/2000/svg"><path d="M402.5 432L384 376.4c-6.5-19.4-23-33.7-43.1-37.4l-53.5-9.7v-4.1c9.3-5.4 17.4-12.6 23.8-21.2h16.2c13.2 0 24-10.8 24-24v-96c0-57.3-46.7-104-104-104s-104 46.7-104 104v56c0 15.4 11 28.3 25.5 31.3 4.5 23 18.9 42.4 38.5 53.8v4.1L154 339c-20.1 3.7-36.6 18-43.1 37.4l-3.2 9.6-27.2-27.2c-3.1-3.1-3.1-8.2 0-11.3l31.6-31.6-59.3-59.3L17 292.3C6.4 302.9.6 316.9.6 331.9s5.8 29 16.4 39.6l108.1 108.1c10.6 10.6 24.6 16.4 39.6 16.4s29-5.8 39.3-16.2l39-35.7-12.1-12.1h171.6zm-67.1-152c0 4.4-3.6 8-8 8h-6.7c2.3-5.3 4.1-10.9 5.2-16.7 3.4-.7 6.6-2.1 9.5-3.8V280zm-8-26.2v-27.6c4.8 2.8 8 7.9 8 13.8s-3.2 11-8 13.8zm-160 0c-4.8-2.8-8-7.9-8-13.8s3.2-11 8-13.8v27.6zm0-53.8v9.1c-2.8.7-5.5 1.9-8 3.3V184c0-48.5 39.5-88 88-88s88 39.5 88 88v28.4c-2.5-1.4-5.2-2.6-8-3.3V200h-8c-23.7 0-45.9-9.2-62.6-25.9l-9.4-9.4-9.4 9.4c-16.7 16.7-39 25.9-62.6 25.9h-8zm16 56v-40.3c24-1.8 46.4-11.7 64-28.4 17.6 16.7 40 26.6 64 28.4V256c0 11.7-3.2 22.6-8.7 32h-55.3v16h42.2c-11.3 9.9-26 16-42.2 16-35.3 0-64-28.7-64-64zm88 76.3v.4l-24 24-24-24v-.4c7.6 2.4 15.6 3.7 24 3.7s16.4-1.3 24-3.7zM126 381.5c4.6-13.9 16.4-24.1 30.8-26.7l55.9-10.2 34.7 34.7 34.7-34.7 55.9 10.2c14.4 2.6 26.2 12.8 30.8 26.7l11.5 34.5H214.9l-31.2-31.2-34.6 31.3c-3 3-8.3 3-11.3 0l-17.5-17.5 5.7-17.1zM52.7 279.2l36.7 36.7-8.7 8.7L44 287.9l8.7-8.7zM193 468.3c-7.6 7.5-17.6 11.7-28.3 11.7s-20.7-4.2-28.3-11.7L28.3 360.2c-7.6-7.6-11.7-17.6-11.7-28.3s4.2-20.7 11.7-28.3l4.4-4.4 36.7 36.7-.3.3c-9.4 9.4-9.4 24.6 0 33.9l57.4 57.4c4.5 4.5 10.6 7 17 7s12.4-2.5 16.7-6.8l.6-.5 36.9 36.9-4.7 4.2zm16.4-15l-36.8-36.8 10.6-9.6 36.7 36.7-10.5 9.7zM471.4 0h-112c-13.2 0-24 10.8-24 24v64c0 13.2 10.8 24 24 24h21.4l-8.3 48.2 77.2-48.2h21.7c13.2 0 24-10.8 24-24V24c0-13.2-10.7-24-24-24zm8 88c0 4.4-3.6 8-8 8h-26.3l-50.8 31.8 5.4-31.8h-40.3c-4.4 0-8-3.6-8-8V24c0-4.4 3.6-8 8-8h112c4.4 0 8 3.6 8 8v64z"/><path d="M367.4 32h96v16h-96zm0 32h64v16h-64zm80 0h16v16h-16zm-200-40c-104.5 0-194.6 72.3-218 173.2l-15.2-25.3-13.7 8.2L28.7 227l46.9-28.1-8.2-13.7-21.7 13C68.3 105.9 151.3 40 247.4 40c21 0 41.8 3.1 61.6 9.3l4.7-15.3c-21.3-6.6-43.6-10-66.3-10zm244.1 153.1L444.7 149l-28.1 46.9 13.7 8.2 14-23.3c7.4 21.6 11.1 44.1 11.1 67.2 0 47.6-16.5 94.1-46.4 131l12.4 10.1c32.2-39.7 50-89.8 50-141 0-24.5-3.9-48.4-11.6-71.2l23.5 14.1 8.2-13.9z"/></symbol><symbol viewBox="0 0 512 324.3" id="icon-pay-2" xmlns="http://www.w3.org/2000/svg"><path d="M416.1 187.7h-370c-20.5 0-37.5 17.1-37.5 37.5v61.4c0 20.5 17.1 37.5 37.5 37.5h372c2.7 0 4.9-1 6.4-2.6l84-58.8c1.7-1.7 3.4-4.3 3.4-6.8s-1.7-5.1-4.3-6.8l-82.3-57.6c-1.4-2.4-4-3.9-7.3-3.9-.5 0-1.2 0-1.9.1zm-6.5 119.5H136.5v-42.7h273.1v42.7zM119.5 204.8v102.4H85.3V204.8h34.2zm17 42.7v-42.7h273.1v42.7H136.5zm-90.4 59.7c-11.1 0-20.5-9.4-20.5-20.5v-61.4c0-11.1 9.4-20.5 20.5-20.5h22.2v102.4H46.1zM489 256l-62.3 43.5v-87L489 256zM0 25.6v85.3c0 14.5 11.1 25.6 25.6 25.6h465.9c11.1 0 20.5-9.4 20.5-20.5V19.6C512 8.5 502.6 0 491.5 0H25.6C11.1 0 0 11.1 0 25.6zm491.5-9.4c1.7 0 3.4 1.7 3.4 3.4V116c0 1.7-1.7 3.4-3.4 3.4H384V93.9c0-5.1-3.4-8.5-8.5-8.5s-8.5 3.4-8.5 8.5v25.6h-17.1V76.8c0-5.1-3.4-8.5-8.5-8.5s-8.5 3.4-8.5 8.5v42.7h-17.1V93.9c0-5.1-3.4-8.5-8.5-8.5s-8.5 3.4-8.5 8.5v25.6h-17.1V76.8c0-5.1-3.4-8.5-8.5-8.5s-8.5 3.4-8.5 8.5v42.7h-17.1V93.9c0-5.1-3.4-8.5-8.5-8.5s-8.5 3.4-8.5 8.5v25.6h-17.1V76.8c0-5.1-3.4-8.5-8.5-8.5s-8.5 3.4-8.5 8.5v42.7h-17.1V93.9c0-5.1-3.4-8.5-8.5-8.5s-8.5 3.4-8.5 8.5v25.6h-17.1V76.8c0-5.1-3.4-8.5-8.5-8.5s-8.5 3.4-8.5 8.5v42.7h-17.1V93.9c0-5.1-3.4-8.5-8.5-8.5s-8.5 3.4-8.5 8.5v25.6H76.8V76.8c0-5.1-3.4-8.5-8.5-8.5s-8.5 3.4-8.5 8.5v42.7H25.6c-5.1 0-8.5-3.4-8.5-8.5V24.7c0-5.1 3.4-8.5 8.5-8.5h465.9z"/><path d="M409.6 68.3c0 18.8 15.4 34.1 34.1 34.1s34.1-15.4 34.1-34.1-15.4-34.1-34.1-34.1-34.1 15.3-34.1 34.1zm51.2 0c0 9.4-7.7 17.1-17.1 17.1s-17.1-7.7-17.1-17.1 7.7-17.1 17.1-17.1 17.1 7.7 17.1 17.1z"/></symbol><symbol viewBox="0 0 448 512.1" id="icon-pay-3" xmlns="http://www.w3.org/2000/svg"><path d="M447.4 21.2c-.8-2.1-2.3-3.7-4.4-4.6L409.8 3.1c-10.1-4.2-25.3-4.2-35.4 0l-26.6 11c-6.1 2.5-17.2 2.5-23.3 0l-26.6-11c-10.1-4.2-25.4-4.2-35.5 0l-26.6 11c-6.1 2.5-17.2 2.5-23.3 0l-26.6-11c-10.1-4.2-25.4-4.2-35.5 0l-26.6 11c-6.1 2.5-17.2 2.5-23.3 0l-26.6-11C63.7-1 48.5-1 38.3 3.1L5 16.6c-.9.4-1.6.9-2.3 1.5-.5.5-.9 1-1.2 1.6-.3.5-.7 1-.9 1.6C.2 22.1 0 23 0 24v480.1c0 .5.2 1 .3 1.5.1.5.1 1 .3 1.5v.1c0 .1.1.2.2.3.4.8.8 1.4 1.4 2l.6.6c.5.4 1.1.8 1.7 1.1.3.1.5.3.8.4.8.2 1.7.4 2.7.4 1 0 2-.2 3-.6h.1L44.3 498c6.1-2.5 17.2-2.5 23.3 0l26.6 11c10.1 4.2 25.4 4.2 35.5 0l26.6-11c6.1-2.5 17.2-2.5 23.3 0l26.6 11c10.1 4.2 25.4 4.2 35.5 0l26.6-11c6.1-2.5 17.2-2.5 23.3 0l26.6 11c5.1 2.1 11.4 3.1 17.8 3.1s12.7-1 17.8-3.1l26.6-11c6.1-2.5 17.2-2.5 23.3 0l33.1 13.4h.1c1 .4 2 .6 3 .6s1.9-.2 2.8-.6c.3-.1.5-.2.8-.4.6-.3 1.1-.7 1.6-1.1l.6-.6c.5-.6 1-1.2 1.3-2 .1-.1.2-.2.2-.3v-.1c.2-.5.2-1.1.3-1.6.1-.5.3-.9.3-1.4V24c.2-1 0-1.9-.4-2.8zm-37.6 429.9c-10.2-4.2-25.4-4.2-35.5 0l-26.6 11c-1.1.5-2.4.8-3.7 1.1v-95.7c3.5-.5 6.9-1.3 9.8-2.5l26.6-11c6.1-2.5 17.2-2.5 23.3 0l28.2 11.5v94.7l-22.1-9.1zm-371.5 0l-22.3 9v-94.7L44.3 354c6.1-2.5 17.2-2.5 23.3 0l26.6 11c2.9 1.2 6.2 2 9.7 2.5v95.7c-1.3-.3-2.6-.6-3.6-1.1l-26.6-11c-10-4.1-25.2-4.1-35.4 0zm6-321.1c6.1-2.5 17.2-2.5 23.3 0l26.6 11c2.9 1.2 6.2 2 9.7 2.5v95.7c-1.3-.3-2.6-.6-3.6-1.1l-26.6-11c-10.1-4.2-25.3-4.2-35.4 0l-22.3 9v-94.7L44.3 130zm359.4 0s.1 0 0 0c.1 0 .1 0 0 0l28.3 11.5v94.7l-22.2-9c-10.1-4.2-25.3-4.2-35.4 0l-26.6 11c-1.1.5-2.4.8-3.7 1.1v-95.7c3.5-.5 6.9-1.3 9.8-2.5l26.6-11c6-2.6 17.1-2.6 23.2-.1zm6.1 209.2c0-.1 0 0 0 0-10.2-4.2-25.4-4.2-35.5 0l-26.6 11c-1.1.4-2.4.8-3.7 1.1v-95.7c3.5-.5 6.9-1.3 9.8-2.5l26.6-11c6.1-2.5 17.2-2.5 23.3 0l28.2 11.5v94.7l-22.1-9.1zm-371.5-.1l-22.3 9v-94.7L44.3 242c6.1-2.5 17.2-2.5 23.3 0l26.6 11c2.9 1.2 6.2 2 9.7 2.5v95.7c-1.3-.3-2.6-.6-3.6-1.1l-26.6-11c-10-4.1-25.2-4.1-35.4 0zm81.7-83.6c3.5-.5 6.9-1.3 9.8-2.5l26.6-11c6.1-2.5 17.2-2.5 23.3 0l26.6 11c2.9 1.2 6.2 2 9.7 2.5v95.7c-1.3-.3-2.5-.6-3.6-1.1l-26.6-11c-10.1-4.2-25.4-4.2-35.5 0l-26.6 11c-1.1.4-2.3.8-3.7 1.1v-95.7zm112 0c3.5-.5 6.9-1.3 9.8-2.5l26.6-11c6.1-2.5 17.2-2.5 23.3 0l26.6 11c2.9 1.2 6.2 2 9.7 2.5v95.7c-1.3-.3-2.5-.6-3.6-1l-26.6-11c-10.1-4.2-25.4-4.2-35.5 0l-26.6 11c-1.1.4-2.4.8-3.7 1.1v-95.8zm96-16.3c-1.3-.3-2.5-.6-3.6-1l-26.6-11c-10.1-4.2-25.4-4.2-35.5 0l-26.6 11c-1.1.4-2.4.8-3.7 1.1v-95.7c3.5-.5 6.9-1.3 9.8-2.5l26.6-11c6.1-2.5 17.2-2.5 23.3 0l26.6 11c2.9 1.2 6.2 2 9.7 2.5v95.6zm-112 0c-1.3-.3-2.5-.6-3.6-1.1l-26.6-11c-10.1-4.2-25.4-4.2-35.5 0l-26.6 11c-1.1.4-2.3.8-3.7 1.1v-95.7c3.5-.5 6.9-1.3 9.8-2.5l26.6-11c6.1-2.5 17.2-2.5 23.3 0l26.6 11c2.9 1.2 6.2 2 9.7 2.5v95.7zm-96 128.3c3.5-.5 6.9-1.3 9.8-2.5l26.6-11c6.1-2.5 17.2-2.5 23.3 0l26.6 11c2.9 1.2 6.2 2 9.7 2.5v95.7c-1.3-.3-2.5-.6-3.6-1.1l-26.6-11c-10.1-4.2-25.4-4.2-35.5 0l-26.6 11c-1.1.4-2.3.8-3.7 1.1v-95.7zm112 0c3.5-.5 6.9-1.3 9.8-2.5l26.6-11c6.1-2.5 17.2-2.5 23.3 0l26.6 11c2.9 1.2 6.2 2 9.7 2.5v95.7c-1.3-.3-2.5-.6-3.6-1l-26.6-11c-10.1-4.2-25.4-4.2-35.5 0l-26.6 11c-1.1.4-2.4.8-3.7 1.1v-95.8zM353.8 28.9l26.6-11c6.1-2.5 17.2-2.5 23.3 0L432 29.4v94.8l-22.2-9c-10.1-4.2-25.3-4.2-35.4 0l-26.6 11c-1.1.4-2.4.8-3.7 1.1V31.5c3.4-.6 6.8-1.4 9.7-2.6zm-112 0l26.6-11c6.1-2.5 17.2-2.5 23.3 0l26.6 11c2.9 1.2 6.2 2 9.7 2.5v95.8c-1.3-.3-2.5-.6-3.6-1l-26.6-11c-10.1-4.2-25.4-4.2-35.5 0l-26.6 11c-1.1.4-2.4.8-3.7 1.1V31.4c3.5-.5 6.9-1.3 9.8-2.5zm-112 0l26.6-11c6.1-2.5 17.2-2.5 23.3 0l26.6 11c2.9 1.2 6.2 2 9.7 2.5v95.8c-1.3-.3-2.5-.6-3.6-1.1l-26.6-11c-10.1-4.2-25.4-4.2-35.5 0l-26.6 11c-1.1.4-2.3.8-3.7 1.1V31.4c3.5-.5 6.9-1.3 9.8-2.5zm-62.2-11l26.6 11c2.9 1.2 6.2 2 9.7 2.5v95.8c-1.3-.3-2.6-.6-3.6-1.1l-26.6-11c-10.1-4.2-25.3-4.2-35.4 0l-22.3 9V29.4l28.3-11.5c6.1-2.5 17.3-2.5 23.3 0zm306.7 465.3l-26.6 11c-6.1 2.5-17.2 2.5-23.3 0l-26.6-11c-10.1-4.2-25.4-4.2-35.5 0l-26.6 11c-6.1 2.5-17.2 2.5-23.3 0l-26.6-11c-10.1-4.2-25.4-4.2-35.5 0l-26.6 11c-6.1 2.5-17.2 2.5-23.3 0l-26.6-11c-10.1-4.2-25.3-4.2-35.4 0l-22.3 9v-14.7L44.4 466c6.1-2.5 17.2-2.5 23.3 0l26.6 11c10.1 4.2 25.4 4.2 35.5 0l26.6-11c6.1-2.5 17.2-2.5 23.3 0l26.6 11c10.1 4.2 25.4 4.2 35.5 0l26.6-11c6.1-2.5 17.2-2.5 23.3 0l26.6 11c5.1 2.1 11.4 3.1 17.8 3.1s12.7-1 17.8-3.1l26.6-11c6.1-2.5 17.2-2.5 23.3 0l28.2 11.5v14.7l-22.2-9c-10.1-4.2-25.4-4.2-35.5 0z"/></symbol><symbol viewBox="0 0 58 58" id="icon-pay-4" xmlns="http://www.w3.org/2000/svg"><path d="M21 14h-5V9c0-.6-.4-1-1-1s-1 .4-1 1v5H9c-.6 0-1 .4-1 1s.4 1 1 1h5v5c0 .6.4 1 1 1s1-.4 1-1v-5h5c.6 0 1-.4 1-1s-.4-1-1-1zm28 0H37c-.6 0-1 .4-1 1s.4 1 1 1h12c.6 0 1-.4 1-1s-.4-1-1-1z"/><path d="M30 0H0v58h58V0H30zM2 2h26v26H2V2zm0 54V30h26v26H2zm54 0H30V30h26v26zM30 28V2h26v26H30z"/><path d="M37 47h12c.6 0 1-.4 1-1s-.4-1-1-1H37c-.6 0-1 .4-1 1s.4 1 1 1zm0-6h12c.6 0 1-.4 1-1s-.4-1-1-1H37c-.6 0-1 .4-1 1s.4 1 1 1zm-16.3-3.7c-.4-.4-1-.4-1.4 0L15 41.6l-4.3-4.3c-.4-.4-1-.4-1.4 0s-.4 1 0 1.4l4.3 4.3-4.3 4.3c-.4.4-.4 1 0 1.4.2.2.4.3.7.3s.5-.1.7-.3l4.3-4.3 4.3 4.3c.2.2.5.3.7.3s.5-.1.7-.3c.4-.4.4-1 0-1.4L16.4 43l4.3-4.3c.4-.4.4-1 0-1.4z"/></symbol><symbol viewBox="0 0 480 480" id="icon-pay-5" xmlns="http://www.w3.org/2000/svg"><path d="M479.1 113.8c-1.7-6.1-5.7-11.4-11.2-14.6-5.5-3.2-12.1-4.1-18.2-2.4-6.1 1.7-11.4 5.7-14.6 11.2l-4 7c-3.8-2.2-8.7-.9-10.9 2.9l-20.3 34.6-7-4c-1.8-1.1-4-1.4-6.1-.8-2.1.6-3.8 1.9-4.9 3.8-2.2 3.8-.8 8.7 3 10.9l7 4-68 117.8-16.8 44.9-8 15c-4.7 8.1-4.2 18.3 1.3 25.9l-18 22.1-5-12.6c-2.3-5.6-7.5-9.5-13.6-10s-11.9 2.5-15 7.7L246 382l-2.7-32c-.6-7.6-6.5-13.7-14-14.6-7.5-.9-14.7 3.6-17.1 10.8l-19.7 59c-1.4 4.2.9 8.7 5 10.1.8.4 1.6.6 2.5.6 3.4 0 6.5-2.2 7.6-5.4l19.6-59L230 384c.6 6.9 5.6 12.7 12.3 14.3 6.8 1.6 13.8-1.4 17.3-7.4l3-4.9 5 12.6c2.1 5.3 6.9 9.1 12.5 9.9 5.6.8 11.3-1.4 14.9-5.8l18.6-23.6c2.1.5 4.2.8 6.3.8 8.6.1 16.5-4.4 20.9-11.8l8-13.4 30.5-37L448 198.4l7 4c1.9 1.1 3.2 2.8 3.8 4.9.6 2.1.3 4.2-.8 6.1l-32 55.4c-1.2 1.8-1.6 4.1-1.1 6.2.5 2.1 1.8 4 3.7 5.1 1.8 1.1 4 1.4 6.1.8 2.1-.6 3.8-1.9 4.9-3.8l32-55.4c3.2-5.5 4.1-12.1 2.4-18.2-1.7-6.1-5.7-11.4-11.2-14.6l-7-4 20-34.6c2.2-3.8.9-8.7-2.9-10.9l4-7c3.1-5.6 4-12.3 2.2-18.6zm-30.1 2.3c1.1-1.9 2.8-3.2 4.9-3.8 2.1-.5 4.2-.2 6.1.8 1.9 1.1 3.2 2.8 3.8 4.9.5 2.1.2 4.2-.8 6.1l-4 7-13.9-8 3.9-7zM339.9 339.4l-4-2.3-11.8-6.9 11.4-30.4 25.2 14.6-20.8 25zm-24 23.1c-3.4-2.4-4.4-6.9-2.4-10.5l4-7 13.9 8-4 6.9c-1.1 1.9-3 3.3-5.2 3.8-2.1.5-4.4.1-6.3-1.2zm53.9-61.3l-27.7-16 64-110.9 27.7 16-64 110.9zm72-124.7l-27.7-16 16-27.7 27.7 16-16 27.7zm-315.6 182l-28.3 28.2-17-17c-3.1-3.1-8.2-3.1-11.3 0-1.5 1.5-2.4 3.5-2.4 5.7s.9 4.2 2.4 5.7l17 17c3 3 7.1 4.6 11.3 4.6 4.2 0 8.3-1.6 11.4-4.6l28.2-28.3c2.7-3.2 2.5-7.9-.4-10.9-3-2.9-7.7-3.1-10.9-.4z"/><path d="M32 380c0 37.6 30.4 68 68 68s68-30.4 68-68c0-4.4-3.6-8-8-8s-8 3.6-8 8c0 28.7-23.3 52-52 52s-52-23.3-52-52 23.3-52 52-52c11.3 0 22.2 3.6 31.2 10.4 3.5 2.7 8.5 1.9 11.2-1.6 2.7-3.5 1.9-8.5-1.6-11.2-20.6-15.5-48.2-17.9-71.2-6.4C46.5 330.7 32 354.3 32 380zM288 64.1c4.4 0 8-3.6 8-8s-3.6-8-8-8H80c-4.4 0-8 3.6-8 8v32c0 4.4 3.6 8 8 8h208c4.4 0 8-3.6 8-8s-3.6-8-8-8H88v-16h200zm-184 48c-4.4 0-8 3.6-8 8s3.6 8 8 8h160c4.4 0 8-3.6 8-8s-3.6-8-8-8H104zm207.9 56H136c-4.4 0-8 3.6-8 8s3.6 8 8 8h176c4.4 0 8-3.6 8-8-.1-4.5-3.6-8-8.1-8zM232 224c0-4.4-3.6-8-8-8H64c-4.4 0-8 3.6-8 8s3.6 8 8 8h160c4.4 0 8-3.5 8-8zm79.9-8h-56c-4.4 0-8 3.6-8 8s3.6 8 8 8h56c4.4 0 8-3.6 8-8s-3.5-8-8-8zM144 272c4.4 0 8-3.6 8-8s-3.6-8-8-8H64c-4.4 0-8 3.6-8 8s3.6 8 8 8h80zm32 0h56c4.4 0 8-3.6 8-8s-3.6-8-8-8h-56c-4.4 0-8 3.6-8 8 0 4.5 3.6 8 8 8z"/><path d="M359.9 368c-4.4 0-8 3.6-8 8v80c0 4.4-3.6 8-8 8H24c-4.4 0-8-3.6-8-8V24.1c0-4.4 3.6-8 8-8h319.9c4.4 0 8 3.6 8 8v150.2c0 4.4 3.6 8 8 8s8-3.6 8-8V24.1c0-13.3-10.7-24-24-24H24C10.7.1 0 10.8 0 24.1V456c0 13.3 10.7 24 24 24h319.9c13.3 0 24-10.7 24-24v-80c0-4.4-3.5-8-8-8z"/></symbol><symbol viewBox="0 0 512 347.7" id="icon-pay-6" xmlns="http://www.w3.org/2000/svg"><path d="M373.5 99.2v105.9c0 4.1 3.4 7.5 7.5 7.5s7.5-3.4 7.5-7.5v-35H467c2.3 0 4.4-1 5.9-2.8 1.4-1.8 2-4.1 1.5-6.3l-14.3-63.4c-.8-3.4-3.8-5.9-7.3-5.9H381c-4.2.1-7.5 3.4-7.5 7.5zm15 7.6h58.3l10.9 48.4h-69.2v-48.4z"/><path d="M0 22.5v167.7c0 6 2.3 11.7 6.6 15.9 4.3 4.3 9.9 6.6 15.9 6.6h6v60c0 11.7 9 21.4 20.5 22.4 3.7 29.6 29 52.6 59.5 52.6s55.8-22.9 59.5-52.5h175.9c3.7 29.6 29 52.5 59.5 52.5s55.8-22.9 59.5-52.5h34c8.3 0 15-6.7 15-15v-15c0-5.9-3.5-11.1-8.5-13.5v-69c0-13.8-1.5-27.7-4.6-41.2L487.6 91c-3.9-17.2-18.9-29.3-36.6-29.3h-92.5V22.5c0-6-2.4-11.7-6.6-15.9-4.3-4.2-9.9-6.6-16-6.6H22.5c-6 0-11.7 2.4-15.9 6.6C2.3 10.8 0 16.5 0 22.5zm459.1 242.7H497v15h-34c-.7-5.2-2-10.2-3.9-15zm-100.6 22.5c0-24.8 20.2-45 45-45 24.6 0 45 20 45 45 0 24.8-20.2 45-45 45-24.9 0-45-20.2-45-45zm0-210.9H451c10.6 0 19.6 7.2 22 17.6l11.4 50.5c2.8 12.4 4.2 25.1 4.2 37.9v67.5h-38.3c-11.4-14.2-28.6-22.5-46.8-22.5-17.9 0-34 7.9-45 20.4V76.8zm-295 210.9c0-24.8 20.2-45 45-45s45 20.2 45 45-20.2 45-45 45-45-20.2-45-45zM15 22.5c0-4.1 3.4-7.5 7.5-7.5h313.4c4.1 0 7.5 3.4 7.5 7.5v257.7H168c-3.7-29.6-29-52.5-59.5-52.5-30.4 0-55.7 22.8-59.5 52.2-3.2-.9-5.5-3.8-5.5-7.2v-60h277.4c4.1 0 7.5-3.4 7.5-7.5s-3.4-7.5-7.5-7.5H22.5c-4.1 0-7.5-3.4-7.5-7.5V22.5z"/><path d="M383.4 275.1c4 1 6.5 5 5.5 9.1-.3 1.2-.4 2.4-.4 3.6 0 8.3 6.8 15 15 15 8.3 0 15-6.8 15-15 0-8.3-6.8-15-15-15-4.1 0-7.5-3.4-7.5-7.5s3.3-7.5 7.5-7.5c16.6 0 30 13.4 30 30s-13.4 30-30 30-30-13.4-30-30c0-2.4.3-4.8.8-7.1 1-4.1 5-6.6 9.1-5.6zm-295 0c4 1 6.5 5 5.5 9.1-.3 1.1-.4 2.3-.4 3.6 0 8.3 6.8 15 15 15 8.3 0 15-6.8 15-15 0-8.3-6.7-15-15-15-4.1 0-7.5-3.4-7.5-7.5s3.4-7.5 7.5-7.5c16.6 0 30 13.4 30 30 0 8-3.1 15.5-8.8 21.2-5.7 5.7-13.2 8.8-21.2 8.8s-15.6-3.1-21.2-8.8c-5.7-5.7-8.8-13.2-8.8-21.2 0-2.4.3-4.8.8-7.1 1-4.2 5.1-6.6 9.1-5.6z"/></symbol><symbol viewBox="0 0 211.1 185.6" id="icon-products-1" xmlns="http://www.w3.org/2000/svg"><path class="atst0" d="M210.2 1.8C209.4.7 208 0 206.6 0H22.8c-2 0-3.8 1.4-4.3 3.3L6.2 49.2c-.3 1.3-.1 2.6.6 3.7 1.6 2.3 3.4 4.2 5.6 5.9L4.2 89.5c-.3 1.3-.1 2.6.6 3.7 1.6 2.3 3.4 4.2 5.6 5.9l-8.2 30.7c-.3 1.3-.1 2.6.6 3.7 1.6 2.3 3.4 4.2 5.6 5.9L.2 170.1c-.3 1.3-.1 2.6.6 3.7 5.1 7.5 13.9 11.8 24.1 11.8 8.5 0 17.2-2.9 24.9-8.2 5.2 5.3 12.7 8.2 21.1 8.2 8.5 0 17.2-2.9 24.9-8.2 5.2 5.3 12.7 8.2 21.1 8.2 8.5 0 17.2-2.9 24.9-8.2 5.2 5.3 12.7 8.2 21.1 8.2 9.8 0 19.9-3.9 28.5-10.9.7-.6 1.3-1.4 1.5-2.3l12.3-45.8c.4-1.4.1-2.8-.8-3.9s-2.2-1.8-3.6-1.8h-2.9l9.3-34.6c.4-1.4.1-2.8-.8-3.9s-2.2-1.8-3.6-1.8h-2.9L209 46c.4-1.4.1-2.8-.8-3.9s-2.2-1.8-3.6-1.8h-2.9L211 5.7c.3-1.4.1-2.8-.8-3.9zm-69.8 126.5c-6.6 5.1-14.5 8-21.7 8-6.5 0-11.9-2.2-15.4-6.3l7.1-26.6c3.2 1.1 6.6 1.6 10.3 1.6 8.5 0 17.2-2.9 24.9-8.2.8.8 1.7 1.6 2.6 2.3l-7.8 29.2zm-45.9 0c-6.6 5.1-14.5 8-21.7 8-6.5 0-11.9-2.2-15.4-6.3l7.1-26.6c3.2 1.1 6.6 1.6 10.3 1.6 8.5 0 17.2-2.9 24.9-8.2.8.8 1.7 1.6 2.6 2.3l-7.8 29.2zM72.2 9h36.6L98.5 47.7c-6.6 5.1-14.5 8-21.7 8-6.5 0-11.9-2.2-15.4-6.3L72.2 9zm46 0h36.6l-10.4 38.7c-6.6 5.1-14.5 8-21.7 8-6.5 0-11.9-2.2-15.4-6.3L118.2 9zm24.2 79c-6.6 5.1-14.5 8-21.7 8-6.5 0-11.9-2.2-15.4-6.3l7.1-26.6c3.2 1.1 6.6 1.6 10.3 1.6 8.5 0 17.2-2.9 24.9-8.2.8.8 1.7 1.6 2.6 2.3L142.4 88zm-45.9 0c-6.6 5.1-14.5 8-21.7 8-6.5 0-11.9-2.2-15.4-6.3l7.1-26.6c3.2 1.1 6.6 1.6 10.3 1.6 8.5 0 17.2-2.9 24.9-8.2.8.8 1.7 1.6 2.6 2.3L96.5 88zm52.8 41.9l7.1-26.6c3.2 1.1 6.6 1.6 10.3 1.6 9.8 0 19.9-3.9 28.5-10.9.2-.1.3-.3.5-.5l-9.3 34.7c-6.6 5.1-14.5 8-21.7 8-6.4.1-11.8-2.2-15.4-6.3zM188.4 88c-6.6 5.1-14.5 8-21.7 8-6.5 0-11.9-2.2-15.4-6.3l7.1-26.6c3.2 1.1 6.6 1.6 10.3 1.6 9.8 0 19.9-3.9 28.5-10.9.2-.1.3-.3.5-.5L188.4 88zm2-40.3c-6.6 5.1-14.5 8-21.7 8-6.5 0-11.9-2.2-15.4-6.3L164.1 9h36.6l-10.3 38.7zM26.2 9h36.6L52.5 47.7c-6.6 5.1-14.5 8-21.7 8-6.5 0-11.9-2.2-15.4-6.3L26.2 9zm4.6 55.7c8.5 0 17.2-2.9 24.9-8.2.8.8 1.7 1.6 2.6 2.3L50.5 88c-6.6 5.1-14.5 8-21.7 8-6.5 0-11.9-2.2-15.4-6.3l7.1-26.6c3.2 1 6.7 1.6 10.3 1.6zm-2 40.3c8.5 0 17.2-2.9 24.9-8.2.8.8 1.7 1.6 2.6 2.3l-7.8 29.3c-6.6 5.1-14.5 8-21.7 8-6.5 0-11.9-2.2-15.4-6.3l7.1-26.6c3.2.9 6.7 1.5 10.3 1.5zM9.4 170.2l7.1-26.6c3.2 1.1 6.6 1.6 10.3 1.6 8.5 0 17.2-2.9 24.9-8.2.8.8 1.7 1.6 2.6 2.3l-7.8 29.3c-6.6 5.1-14.5 8-21.7 8-6.4 0-11.8-2.3-15.4-6.4zm46 0l7.1-26.6c3.2 1.1 6.6 1.6 10.3 1.6 8.5 0 17.2-2.9 24.9-8.2.8.8 1.7 1.6 2.6 2.3l-7.8 29.3c-6.6 5.1-14.5 8-21.7 8-6.5 0-11.8-2.3-15.4-6.4zm45.9 0l7.1-26.6c3.2 1.1 6.6 1.6 10.3 1.6 8.5 0 17.2-2.9 24.9-8.2.8.8 1.7 1.6 2.6 2.3l-7.8 29.3c-6.6 5.1-14.5 8-21.7 8-6.4 0-11.8-2.3-15.4-6.4zm83.1-1.6c-6.6 5.1-14.5 8-21.7 8-6.5 0-11.9-2.2-15.4-6.3l7.1-26.6c3.2 1.1 6.6 1.6 10.3 1.6 9.8 0 19.9-3.9 28.5-10.9.2-.1.3-.3.5-.5l-9.3 34.7z"/></symbol><symbol viewBox="0 0 436.5 436.9" id="icon-products-10" xmlns="http://www.w3.org/2000/svg"><path class="aust0" d="M429 436.5H7.5c-4.1 0-7.5-3.4-7.5-7.5V7.5C0 3.4 3.4 0 7.5 0H429c4.1 0 7.5 3.4 7.5 7.5V429c0 4.2-3.3 7.5-7.5 7.5zm-414-15h406.5V15H15v406.5z"/><path class="aust0" d="M147.9 436.9c-4.1 0-7.5-3.4-7.5-7.5v-415c0-4.1 3.4-7.5 7.5-7.5s7.5 3.4 7.5 7.5v415c0 4.1-3.4 7.5-7.5 7.5zm141 0c-4.1 0-7.5-3.4-7.5-7.5v-415c0-4.1 3.4-7.5 7.5-7.5s7.5 3.4 7.5 7.5v415c0 4.1-3.4 7.5-7.5 7.5z"/><path class="aust0" d="M425.4 300.4h-415c-4.1 0-7.5-3.4-7.5-7.5s3.4-7.5 7.5-7.5h415c4.1 0 7.5 3.4 7.5 7.5s-3.4 7.5-7.5 7.5zm1-141h-415c-4.1 0-7.5-3.4-7.5-7.5s3.4-7.5 7.5-7.5h415c4.1 0 7.5 3.4 7.5 7.5s-3.4 7.5-7.5 7.5z"/></symbol><symbol viewBox="0 0 199.3 209" id="icon-products-11" xmlns="http://www.w3.org/2000/svg"><path class="avst0" d="M194.8 56.5H77.2V38.6C77.2 17.3 59.9 0 38.6 0S0 17.3 0 38.6v131.8C0 191.7 17.3 209 38.6 209h156.2c2.5 0 4.5-2 4.5-4.5V61c0-2.5-2-4.5-4.5-4.5zM9 38.6C9 22.3 22.3 9 38.6 9s29.6 13.3 29.6 29.6v107.1c-7.1-8.5-17.7-13.9-29.6-13.9-4 0-7.9.6-11.6 1.8V72.8c0-2.5-2-4.5-4.5-4.5s-4.5 2-4.5 4.5v65c-3.4 2.2-6.4 4.8-9 7.9V38.6zm0 131.8c0-16.3 13.3-29.6 29.6-29.6s29.6 13.3 29.6 29.6S54.9 200 38.6 200 9 186.7 9 170.4zM190.3 200h-127c8.5-7.1 13.9-17.7 13.9-29.6v-105h113.1V200z"/><path class="avst0" d="M57.1 170.4c0-10.2-8.3-18.5-18.5-18.5s-18.5 8.3-18.5 18.5 8.3 18.5 18.5 18.5 18.5-8.3 18.5-18.5zm-28 0c0-5.2 4.3-9.5 9.5-9.5s9.5 4.3 9.5 9.5-4.3 9.5-9.5 9.5-9.5-4.3-9.5-9.5z"/></symbol><symbol viewBox="0 0 487 316" id="icon-products-2" xmlns="http://www.w3.org/2000/svg"><path class="awst0" d="M479.5 316H7.5c-4.1 0-7.5-3.4-7.5-7.5V7.5C0 3.4 3.4 0 7.5 0h99c4.1 0 7.5 3.4 7.5 7.5V71h83V8.5c0-4.1 3.4-7.5 7.5-7.5h99c4.1 0 7.5 3.4 7.5 7.5V71h75V8.5c0-4.1 3.4-7.5 7.5-7.5h86c4.1 0 7.5 3.4 7.5 7.5v300c0 4.1-3.4 7.5-7.5 7.5zM15 301h457V16h-71v62.5c0 4.1-3.4 7.5-7.5 7.5h-90c-4.1 0-7.5-3.4-7.5-7.5V16h-84v62.5c0 4.1-3.4 7.5-7.5 7.5h-98c-4.1 0-7.5-3.4-7.5-7.5V15H15v286z"/><path class="awst0" d="M49 158H10c-4.1 0-7.5-3.4-7.5-7.5S5.9 143 10 143h39c4.1 0 7.5 3.4 7.5 7.5S53.1 158 49 158zm423 0h-39c-4.1 0-7.5-3.4-7.5-7.5s3.4-7.5 7.5-7.5h39c4.1 0 7.5 3.4 7.5 7.5s-3.4 7.5-7.5 7.5zm-383 0H77c-4.1 0-7.5-3.4-7.5-7.5s3.4-7.5 7.5-7.5h12c4.1 0 7.5 3.4 7.5 7.5S93.1 158 89 158zM34 86H11c-4.1 0-7.5-3.4-7.5-7.5S6.9 71 11 71h23c4.1 0 7.5 3.4 7.5 7.5S38.1 86 34 86zm397 0h-10c-4.1 0-7.5-3.4-7.5-7.5s3.4-7.5 7.5-7.5h10c4.1 0 7.5 3.4 7.5 7.5S435.1 86 431 86zm23 .1c-.5 0-1 0-1.5-.1s-1-.2-1.4-.4c-.5-.2-.9-.4-1.3-.7-.4-.3-.8-.6-1.1-.9-1.4-1.4-2.2-3.3-2.2-5.3 0-.5 0-1 .1-1.5s.2-.9.4-1.4c.2-.5.4-.9.7-1.3.3-.4.6-.8.9-1.1.3-.3.7-.7 1.1-.9.4-.3.8-.5 1.3-.7.4-.2.9-.3 1.4-.4 1-.2 2-.2 2.9 0 .5.1 1 .2 1.4.4.5.2.9.4 1.3.7.4.3.8.6 1.1.9.4.4.7.7.9 1.1.3.4.5.8.7 1.3.2.5.3.9.4 1.4.1.5.2 1 .2 1.5 0 2-.8 3.9-2.2 5.3-.3.3-.7.7-1.1.9-.4.3-.8.5-1.3.7-.4.2-.9.3-1.4.4-.3 0-.8.1-1.3.1zM122 234H83c-4.1 0-7.5-3.4-7.5-7.5s3.4-7.5 7.5-7.5h39c4.1 0 7.5 3.4 7.5 7.5s-3.4 7.5-7.5 7.5zm-93 0H10c-4.1 0-7.5-3.4-7.5-7.5S5.9 219 10 219h19c4.1 0 7.5 3.4 7.5 7.5S33.1 234 29 234zm175 39h-39c-4.1 0-7.5-3.4-7.5-7.5s3.4-7.5 7.5-7.5h39c4.1 0 7.5 3.4 7.5 7.5s-3.4 7.5-7.5 7.5zm268 0h-39c-4.1 0-7.5-3.4-7.5-7.5s3.4-7.5 7.5-7.5h39c4.1 0 7.5 3.4 7.5 7.5s-3.4 7.5-7.5 7.5zm-423 0H10c-4.1 0-7.5-3.4-7.5-7.5S5.9 258 10 258h39c4.1 0 7.5 3.4 7.5 7.5S53.1 273 49 273zm88 .1c-.5 0-1 0-1.5-.1s-1-.2-1.4-.4c-.5-.2-.9-.4-1.3-.7-.4-.3-.8-.6-1.1-.9-.4-.3-.7-.7-.9-1.1-.3-.4-.5-.8-.7-1.3-.2-.4-.3-.9-.4-1.4-.1-.5-.1-1-.1-1.5 0-2 .8-3.9 2.2-5.3.3-.3.7-.7 1.1-.9.4-.3.8-.5 1.3-.7.4-.2.9-.3 1.4-.4 2.4-.5 5 .3 6.8 2 1.4 1.4 2.2 3.3 2.2 5.3 0 .5-.1 1-.2 1.5s-.2 1-.4 1.4c-.2.5-.4.9-.7 1.3-.3.4-.6.8-.9 1.1-1.5 1.3-3.4 2.1-5.4 2.1zm170 0c-.5 0-1 0-1.5-.1s-1-.2-1.4-.4c-.5-.2-.9-.4-1.3-.7-.4-.3-.8-.6-1.1-.9-.4-.3-.7-.7-.9-1.1-.3-.4-.5-.8-.7-1.3-.2-.4-.3-.9-.4-1.4-.1-.5-.1-1-.1-1.5 0-2 .8-3.9 2.2-5.3.3-.3.7-.7 1.1-.9.4-.3.8-.5 1.3-.7.4-.2.9-.3 1.4-.4 1-.2 2-.2 2.9 0 .5.1 1 .2 1.4.4.5.2.9.4 1.3.7.4.3.8.6 1.1.9 1.4 1.4 2.2 3.3 2.2 5.3 0 .5-.1 1-.2 1.5s-.2 1-.4 1.4c-.2.5-.4.9-.7 1.3-.3.4-.6.8-.9 1.1-.3.3-.7.7-1.1.9-.4.3-.8.5-1.3.7-.4.2-.9.3-1.4.4-.5 0-1 .1-1.5.1zM423 234h-39c-4.1 0-7.5-3.4-7.5-7.5s3.4-7.5 7.5-7.5h39c4.1 0 7.5 3.4 7.5 7.5s-3.4 7.5-7.5 7.5zm-65-36h-39c-4.1 0-7.5-3.4-7.5-7.5s3.4-7.5 7.5-7.5h39c4.1 0 7.5 3.4 7.5 7.5s-3.4 7.5-7.5 7.5zm-65 0h-12c-4.1 0-7.5-3.4-7.5-7.5s3.4-7.5 7.5-7.5h12c4.1 0 7.5 3.4 7.5 7.5s-3.4 7.5-7.5 7.5zm-130 36h-12c-4.1 0-7.5-3.4-7.5-7.5s3.4-7.5 7.5-7.5h12c4.1 0 7.5 3.4 7.5 7.5s-3.4 7.5-7.5 7.5zm2-76h-28c-4.1 0-7.5-3.4-7.5-7.5s3.4-7.5 7.5-7.5h28c4.1 0 7.5 3.4 7.5 7.5s-3.4 7.5-7.5 7.5zm225 0h-12c-4.1 0-7.5-3.4-7.5-7.5s3.4-7.5 7.5-7.5h12c4.1 0 7.5 3.4 7.5 7.5s-3.4 7.5-7.5 7.5z"/></symbol><symbol viewBox="0 0 473 289.7" id="icon-products-3" xmlns="http://www.w3.org/2000/svg"><path class="axst0" d="M68 289.5H7.5c-4.1 0-7.5-3.4-7.5-7.5V7.5C0 3.4 3.4 0 7.5 0H68c4.1 0 7.5 3.4 7.5 7.5V282c0 4.2-3.3 7.5-7.5 7.5zm-53-15h45.5V15H15v259.5zm251.8 15h-60.5c-4.1 0-7.5-3.4-7.5-7.5V7.5c0-4.1 3.4-7.5 7.5-7.5h60.5c4.1 0 7.5 3.4 7.5 7.5V282c0 4.2-3.4 7.5-7.5 7.5zm-53.1-15h45.5V15h-45.5v259.5zm251.8 15H405c-4.1 0-7.5-3.4-7.5-7.5V7.5c0-4.1 3.4-7.5 7.5-7.5h60.5c4.1 0 7.5 3.4 7.5 7.5V282c0 4.2-3.3 7.5-7.5 7.5zm-53-15H458V15h-45.5v259.5z"/><path class="axst0" d="M204.5 43.7h-135c-4.1 0-7.5-3.4-7.5-7.5s3.4-7.5 7.5-7.5h135c4.1 0 7.5 3.4 7.5 7.5s-3.4 7.5-7.5 7.5zm261 246H7.5c-4.1 0-7.5-3.4-7.5-7.5s3.4-7.5 7.5-7.5h458c4.1 0 7.5 3.4 7.5 7.5s-3.4 7.5-7.5 7.5zm-62-246h-135c-4.1 0-7.5-3.4-7.5-7.5s3.4-7.5 7.5-7.5h135c4.1 0 7.5 3.4 7.5 7.5s-3.4 7.5-7.5 7.5z"/></symbol><symbol viewBox="0 0 224 201.1" id="icon-products-4" xmlns="http://www.w3.org/2000/svg"><path class="ayst0" d="M221.3 80.3l-27.2-12 27.2-12c1.6-.7 2.7-2.3 2.7-4.1 0-1.8-1-3.4-2.7-4.1L113.8.4c-1.2-.5-2.5-.5-3.6 0L2.7 48C1 48.7 0 50.3 0 52.1c0 1.8 1 3.4 2.7 4.1l27.2 12-27.2 12C1 81 0 82.6 0 84.4v32.3c0 1.8 1 3.4 2.7 4.1l27.2 12-27.2 12C1 145.6 0 147.2 0 149c0 1.8 1 3.4 2.7 4.1l107.5 47.6c.6.3 1.2.4 1.8.4.6 0 1.2-.1 1.8-.4l107.5-47.6c1.6-.7 2.7-2.3 2.7-4.1 0-1.8-1-3.4-2.7-4.1l-27.2-12 27.2-12c1.6-.7 2.7-2.3 2.7-4.1V84.4c0-1.8-1-3.4-2.7-4.1zM112 9.4l96.4 42.7L112 94.8 15.6 52.1 112 9.4zM41 73.2l69.2 30.6c.6.3 1.2.4 1.8.4.6 0 1.2-.1 1.8-.4L183 73.2l25.4 11.2-96.4 42.7-96.4-42.7L41 73.2zm3.8 56.4v-22.5L71.6 119v22.5l-26.8-11.9zm35.9-6.6l26.8 11.9v22.5l-26.8-11.9V123zm35.8 11.9l26.8-11.9v22.5l-26.8 11.9v-22.5zm35.8-15.8l26.8-11.9v22.5l-26.8 11.9v-22.5zM9 91.3l26.8 11.9v22.5L9 113.8V91.3zm103 100.4L15.6 149 41 137.8l69.2 30.6c.6.3 1.2.4 1.8.4.6 0 1.2-.1 1.8-.4l69.2-30.6 25.4 11.2-96.4 42.7zm76.2-66v-22.5L215 91.3v22.5l-26.8 11.9z"/></symbol><symbol viewBox="0 0 483 337.9" id="icon-products-5" xmlns="http://www.w3.org/2000/svg"><path class="azst0" d="M42 336.4c-4.1 0-7.5-3.4-7.5-7.5v-237c0-4.1 3.4-7.5 7.5-7.5s7.5 3.4 7.5 7.5v237c0 4.1-3.4 7.5-7.5 7.5zm57 0c-4.1 0-7.5-3.4-7.5-7.5v-237c0-4.1 3.4-7.5 7.5-7.5s7.5 3.4 7.5 7.5v237c0 4.1-3.4 7.5-7.5 7.5zm57 0c-4.1 0-7.5-3.4-7.5-7.5v-237c0-4.1 3.4-7.5 7.5-7.5s7.5 3.4 7.5 7.5v237c0 4.1-3.4 7.5-7.5 7.5zm57 0c-4.1 0-7.5-3.4-7.5-7.5v-237c0-4.1 3.4-7.5 7.5-7.5s7.5 3.4 7.5 7.5v237c0 4.1-3.4 7.5-7.5 7.5zm57 0c-4.1 0-7.5-3.4-7.5-7.5v-237c0-4.1 3.4-7.5 7.5-7.5s7.5 3.4 7.5 7.5v237c0 4.1-3.4 7.5-7.5 7.5zm57 0c-4.1 0-7.5-3.4-7.5-7.5v-237c0-4.1 3.4-7.5 7.5-7.5s7.5 3.4 7.5 7.5v237c0 4.1-3.4 7.5-7.5 7.5zm57 0c-4.1 0-7.5-3.4-7.5-7.5v-237c0-4.1 3.4-7.5 7.5-7.5s7.5 3.4 7.5 7.5v237c0 4.1-3.4 7.5-7.5 7.5zm57 0c-4.1 0-7.5-3.4-7.5-7.5v-237c0-4.1 3.4-7.5 7.5-7.5s7.5 3.4 7.5 7.5v237c0 4.1-3.4 7.5-7.5 7.5z"/><path class="azst0" d="M156 99.5H42c-4.1 0-7.5-3.4-7.5-7.5V24.5c0-4.1 3.4-7.5 7.5-7.5h114c4.1 0 7.5 3.4 7.5 7.5V92c0 4.1-3.4 7.5-7.5 7.5zm-106.5-15h99V32h-99v52.5zm391.5 15H327c-4.1 0-7.5-3.4-7.5-7.5V24.5c0-4.1 3.4-7.5 7.5-7.5h114c4.1 0 7.5 3.4 7.5 7.5V92c0 4.1-3.4 7.5-7.5 7.5zm-106.5-15h99V32h-99v52.5z"/><path class="azst0" d="M327 99.5H156c-4.1 0-7.5-3.4-7.5-7.5V7.5c0-4.1 3.4-7.5 7.5-7.5h171c4.1 0 7.5 3.4 7.5 7.5V92c0 4.1-3.4 7.5-7.5 7.5zm-163.5-15h156V15h-156v69.5zm312 253.4H7.5c-4.1 0-7.5-3.4-7.5-7.5s3.4-7.5 7.5-7.5h468c4.1 0 7.5 3.4 7.5 7.5s-3.4 7.5-7.5 7.5zM140.8 46.3c0 1.8-1.5 3.3-3.3 3.3-1.8 0-3.3-1.5-3.3-3.3 0-1.8 1.5-3.3 3.3-3.3 1.8 0 3.3 1.5 3.3 3.3zm0 21.6c0 1.8-1.5 3.3-3.3 3.3-1.8 0-3.3-1.5-3.3-3.3 0-1.8 1.5-3.3 3.3-3.3 1.8 0 3.3 1.5 3.3 3.3z"/><circle class="azst0" cx="346.2" cy="46.3" r="3.3"/><circle class="azst0" cx="346.2" cy="67.9" r="3.3"/></symbol><symbol viewBox="0 0 199 201.2" id="icon-products-6" xmlns="http://www.w3.org/2000/svg"><path class="bast0" d="M194.5 0H4.5C2 0 0 2 0 4.5v29.4c0 2.5 2 4.5 4.5 4.5h98.7v9.5c0 1.7 1 3.3 2.5 4l7.7 3.8v16.9c-3.7 1.2-6.7 2.9-8.8 4.5-2 1.5-2.3 4.3-.8 6.3 1.5 2 4.3 2.3 6.3.8.5-.4 12.6-9.5 24.4 0 5.7 4.5 11.7 6.2 17.2 6.2 7.8 0 14.7-3.3 18.3-6.1 2-1.5 2.3-4.3.8-6.3-1.5-2-4.3-2.3-6.3-.8-.2.1-1.4 1-3.3 2V55.6l7.7-3.8c1.5-.8 2.5-2.3 2.5-4v-9.5h9.3c10 0 18.2-8.1 18.2-18.2V4.5C199 2 197 0 194.5 0zm-31.9 45l-7.7 3.8c-1.5.8-2.5 2.3-2.5 4v28.6c-3.7.1-7.9-.9-12.1-4.3-5.9-4.7-12.1-6.3-17.7-6.2V52.8c0-1.7-1-3.3-2.5-4l-7.7-3.8v-6.7h50.4V45zM190 20.2c0 5.1-4.1 9.2-9.2 9.2H9V9h181v11.2zm-6.3 127.5l-22.4-13.2v-22.4c3.7-1.2 6.7-2.9 8.8-4.5 2-1.5 2.3-4.3.8-6.3-1.5-2-4.3-2.3-6.3-.8-.5.4-12.6 9.5-24.4 0-13.8-11-29.3-4.8-35.5 0-2 1.5-2.3 4.3-.8 6.3 1.5 2 4.3 2.3 6.3.8.2-.1 1.4-1 3.3-2v42.6c0 8.4 4.5 16.3 11.8 20.6l53.9 31.8c.7.4 1.5.6 2.3.6.8 0 1.5-.2 2.2-.6 1.4-.8 2.3-2.3 2.3-3.9v-45.1c-.1-1.6-1-3.1-2.3-3.9zm-6.8 41.1L129.8 161c-4.5-2.7-7.3-7.6-7.3-12.9v-44.9c3.7-.1 7.9.9 12.1 4.3 5.7 4.5 11.7 6.2 17.2 6.2h.6v23.4c0 1.6.8 3.1 2.2 3.9l22.4 13.2v34.6zM47 122.7c-1.3 0-2.6.6-3.5 1.6-2.5 3-24.4 30-24.4 44.1 0 15.4 12.5 27.9 27.9 27.9 15.4 0 27.9-12.5 27.9-27.9 0-14.1-21.9-41.1-24.4-44.1-.9-1-2.2-1.6-3.5-1.6zm0 64.6c-10.4 0-18.9-8.5-18.9-18.9 0-7.2 10.5-23.1 18.9-34 8.4 10.9 18.9 26.8 18.9 34 0 10.5-8.5 18.9-18.9 18.9zm0-79.8c2.5 0 4.5-2 4.5-4.5V76.2c0-2.5-2-4.5-4.5-4.5s-4.5 2-4.5 4.5V103c0 2.5 2 4.5 4.5 4.5zM28.1 89.6V62.8c0-2.5-2-4.5-4.5-4.5s-4.5 2-4.5 4.5v26.8c0 2.5 2 4.5 4.5 4.5s4.5-2 4.5-4.5z"/><path class="bast0" d="M70.4 58.3c-2.5 0-4.5 2-4.5 4.5v26.8c0 2.5 2 4.5 4.5 4.5s4.5-2 4.5-4.5V62.8c0-2.5-2-4.5-4.5-4.5z"/></symbol><symbol viewBox="0 0 199 203" id="icon-products-7" xmlns="http://www.w3.org/2000/svg"><path class="bbst0" d="M194.5 194H4.5C2 194 0 196 0 198.5s2 4.5 4.5 4.5h190c2.5 0 4.5-2 4.5-4.5s-2-4.5-4.5-4.5zm0-115.2h-74.3V60.1h74.3c2.5 0 4.5-2 4.5-4.5s-2-4.5-4.5-4.5h-42.7v-5.2c0-9.1-7.4-16.6-16.6-16.6h-2.1C130.8 12.8 116.6 0 99.5 0S68.2 12.8 65.9 29.4h-2.1c-9.1 0-16.6 7.4-16.6 16.6v5.2H4.5c-2.5 0-4.5 2-4.5 4.5s2 4.5 4.5 4.5h74.3V79H4.5C2 79 0 81 0 83.5S2 88 4.5 88h74.3v66.4c0 .9.3 1.8.8 2.6l16.2 23.1c.8 1.2 2.2 1.9 3.7 1.9s2.8-.7 3.7-1.9l16.2-23.1c.5-.8.8-1.7.8-2.6V87.8h74.3c2.5 0 4.5-2 4.5-4.5s-2-4.5-4.5-4.5zM95 9.4v6.2c0 2.5 2 4.5 4.5 4.5s4.5-2 4.5-4.5V9.4c10.1 1.9 18.1 9.8 20 20H75c1.9-10.1 9.9-18.1 20-20zM56.2 45.9c0-4.2 3.4-7.6 7.6-7.6h71.4c4.2 0 7.6 3.4 7.6 7.6v5.2H56.2v-5.2zm55 106.9l-11.7 16.7-11.7-16.7V60.1h23.4v92.7z"/><path class="bbst0" d="M26.7 102.1H18c-2.5 0-4.5 2-4.5 4.5s2 4.5 4.5 4.5h8.7c2.5 0 4.5-2 4.5-4.5s-2-4.5-4.5-4.5zm32.8 0h-8.7c-2.5 0-4.5 2-4.5 4.5s2 4.5 4.5 4.5h8.7c2.5 0 4.5-2 4.5-4.5s-2-4.5-4.5-4.5zm-25.2 17.2c-2.5 0-4.5 2-4.5 4.5s2 4.5 4.5 4.5H43c2.5 0 4.5-2 4.5-4.5s-2-4.5-4.5-4.5h-8.7zM18 145.4h8.7c2.5 0 4.5-2 4.5-4.5s-2-4.5-4.5-4.5H18c-2.5 0-4.5 2-4.5 4.5s2 4.5 4.5 4.5zm41.5-9h-8.7c-2.5 0-4.5 2-4.5 4.5s2 4.5 4.5 4.5h8.7c2.5 0 4.5-2 4.5-4.5s-2-4.5-4.5-4.5zm-16.4 17.2h-8.7c-2.5 0-4.5 2-4.5 4.5s2 4.5 4.5 4.5h8.7c2.5 0 4.5-2 4.5-4.5s-2-4.5-4.5-4.5zM18 179.8h8.7c2.5 0 4.5-2 4.5-4.5s-2-4.5-4.5-4.5H18c-2.5 0-4.5 2-4.5 4.5s2 4.5 4.5 4.5zm32.7 0h8.7c2.5 0 4.5-2 4.5-4.5s-2-4.5-4.5-4.5h-8.7c-2.5 0-4.5 2-4.5 4.5s2 4.5 4.5 4.5zm97.6-77.7h-8.7c-2.5 0-4.5 2-4.5 4.5s2 4.5 4.5 4.5h8.7c2.5 0 4.5-2 4.5-4.5s-2-4.5-4.5-4.5zm32.7 0h-8.7c-2.5 0-4.5 2-4.5 4.5s2 4.5 4.5 4.5h8.7c2.5 0 4.5-2 4.5-4.5s-2-4.5-4.5-4.5zm-25.1 17.2c-2.5 0-4.5 2-4.5 4.5s2 4.5 4.5 4.5h8.7c2.5 0 4.5-2 4.5-4.5s-2-4.5-4.5-4.5h-8.7zm-16.4 26.1h8.7c2.5 0 4.5-2 4.5-4.5s-2-4.5-4.5-4.5h-8.7c-2.5 0-4.5 2-4.5 4.5s2 4.5 4.5 4.5zm41.5-9h-8.7c-2.5 0-4.5 2-4.5 4.5s2 4.5 4.5 4.5h8.7c2.5 0 4.5-2 4.5-4.5s-2-4.5-4.5-4.5zm-16.3 17.2H156c-2.5 0-4.5 2-4.5 4.5s2 4.5 4.5 4.5h8.7c2.5 0 4.5-2 4.5-4.5s-2.1-4.5-4.5-4.5zm-25.2 26.2h8.7c2.5 0 4.5-2 4.5-4.5s-2-4.5-4.5-4.5h-8.7c-2.5 0-4.5 2-4.5 4.5s2 4.5 4.5 4.5zm32.8 0h8.7c2.5 0 4.5-2 4.5-4.5s-2-4.5-4.5-4.5h-8.7c-2.5 0-4.5 2-4.5 4.5s2 4.5 4.5 4.5z"/></symbol><symbol viewBox="0 0 194 194" id="icon-products-8" xmlns="http://www.w3.org/2000/svg"><path class="bcst0" d="M189.5 0H4.5C2 0 0 2 0 4.5v185c0 2.5 2 4.5 4.5 4.5h185c2.5 0 4.5-2 4.5-4.5V4.5c0-2.5-2-4.5-4.5-4.5zM185 91.7l-5.8 2.8-8.3-4c-1.2-.6-2.7-.6-3.9 0l-8.3 4-8.3-4c-.5-.2-1-.3-1.5-.4V53.5l7.9 3.8c1.2.6 2.7.6 3.9 0l8.3-4 8.3 4c1.2.6 2.7.6 3.9 0l3.8-1.9v36.3zm-36.2 8l7.9 3.8c1.2.6 2.7.6 3.9 0l8.3-4 8.3 4c1.2.6 2.7.6 3.9 0l3.8-1.9v36.2l-5.8 2.8-8.3-4c-1.2-.6-2.7-.6-3.9 0l-8.3 4-8.3-4c-.5-.2-1-.3-1.5-.4V99.7zM185 9v36.4l-5.8 2.8-8.3-4c-1.2-.6-2.7-.6-3.9 0l-8.3 4-8.3-4c-.5-.2-1-.3-1.5-.4V30.3c0-2.5-2-4.5-4.5-4.5H49.7c-2.5 0-4.5 2-4.5 4.5v13.5c-.5 0-1.1.2-1.5.4l-8.3 4-8.3-4c-1.2-.6-2.7-.6-3.9 0l-8.3 4L9 45.4V9h176zm-45.2 25.8v124.4H54.2V34.8h85.6zM45.2 90c-.5 0-1.1.2-1.5.4l-8.3 4-8.3-4c-1.2-.6-2.7-.6-3.9 0l-8.3 4L9 91.7V55.4l3.8 1.9c1.2.6 2.7.6 3.9 0l8.3-4 8.3 4c1.2.6 2.7.6 3.9 0l7.9-3.8V90zM9 101.7l3.8 1.9c1.2.6 2.7.6 3.9 0l8.3-4 8.3 4c1.2.6 2.7.6 3.9 0l7.9-3.8v36.6c-.5 0-1.1.2-1.5.4l-8.3 4-8.3-4c-1.2-.6-2.7-.6-3.9 0l-8.3 4-5.8-2.9v-36.2zM9 185v-37.1l3.8 1.9c1.2.6 2.7.6 3.9 0l8.3-4 8.3 4c1.2.6 2.7.6 3.9 0l7.9-3.8v17.8c0 2.5 2 4.5 4.5 4.5h94.6c2.5 0 4.5-2 4.5-4.5V146l7.9 3.8c1.2.6 2.7.6 3.9 0l8.3-4 8.3 4c1.2.6 2.7.6 3.9 0l3.8-1.9V185H9z"/><path class="bcst0" d="M67.7 150.2h58.6c2.5 0 4.5-2 4.5-4.5V48.3c0-2.5-2-4.5-4.5-4.5H67.7c-2.5 0-4.5 2-4.5 4.5v97.4c0 2.5 2 4.5 4.5 4.5zm4.5-97.4h49.6v88.4H72.2V52.8z"/><path class="bcst0" d="M106.2 75.3L83.6 87.1c-2.2 1.2-3.1 3.9-1.9 6.1.8 1.5 2.4 2.4 4 2.4.7 0 1.4-.2 2.1-.5l22.7-11.9c2.2-1.2 3.1-3.9 1.9-6.1-1.2-2.1-4-3-6.2-1.8zm0 23.6l-22.7 11.9c-2.2 1.2-3.1 3.9-1.9 6.1.8 1.5 2.4 2.4 4 2.4.7 0 1.4-.2 2.1-.5l22.7-11.9c2.2-1.2 3.1-3.9 1.9-6.1-1.1-2.2-3.9-3.1-6.1-1.9z"/></symbol><symbol viewBox="0 0 344.7 381.3" id="icon-products-9" xmlns="http://www.w3.org/2000/svg"><path class="bdst0" d="M58.5 381.3c-4.1 0-7.5-3.4-7.5-7.5V18.3c0-1.8-1.5-3.3-3.3-3.3H18.3c-1.8 0-3.3 1.5-3.3 3.3v355.5c0 4.1-3.4 7.5-7.5 7.5S0 377.9 0 373.8V18.3C0 8.2 8.2 0 18.3 0h29.3C57.8 0 66 8.2 66 18.3v355.5c0 4.2-3.4 7.5-7.5 7.5zm278.7 0c-4.1 0-7.5-3.4-7.5-7.5V18.3c0-1.8-1.5-3.3-3.3-3.3H297c-1.8 0-3.3 1.5-3.3 3.3v355.5c0 4.1-3.4 7.5-7.5 7.5s-7.5-3.4-7.5-7.5V18.3C278.7 8.2 286.9 0 297 0h29.3c10.1 0 18.3 8.2 18.3 18.3v355.5c.1 4.2-3.3 7.5-7.4 7.5z"/><path class="bdst0" d="M285.4 78.6h-227c-4.1 0-7.5-3.4-7.5-7.5s3.4-7.5 7.5-7.5h227c4.1 0 7.5 3.4 7.5 7.5s-3.3 7.5-7.5 7.5zm0 45h-227c-4.1 0-7.5-3.4-7.5-7.5s3.4-7.5 7.5-7.5h227c4.1 0 7.5 3.4 7.5 7.5s-3.3 7.5-7.5 7.5zm0 62h-227c-4.1 0-7.5-3.4-7.5-7.5s3.4-7.5 7.5-7.5h227c4.1 0 7.5 3.4 7.5 7.5s-3.3 7.5-7.5 7.5zm0 45h-227c-4.1 0-7.5-3.4-7.5-7.5s3.4-7.5 7.5-7.5h227c4.1 0 7.5 3.4 7.5 7.5s-3.3 7.5-7.5 7.5zm0 62h-227c-4.1 0-7.5-3.4-7.5-7.5s3.4-7.5 7.5-7.5h227c4.1 0 7.5 3.4 7.5 7.5s-3.3 7.5-7.5 7.5zm0 45h-227c-4.1 0-7.5-3.4-7.5-7.5s3.4-7.5 7.5-7.5h227c4.1 0 7.5 3.4 7.5 7.5s-3.3 7.5-7.5 7.5z"/></symbol><symbol viewBox="0 0 270.4 98.1" id="iconSheer"><path d="M175.1 51.8c.2 1.2.3 2.1.5 3 2 8.4 8.6 14 17.2 14.7 7.6.6 13.6-2.3 18-8.5 2.2-3 5.7-3.5 8.5-1.1 1.6 1.4 1.8 3.2.5 4.9-.7.9-1.4 1.8-2.1 2.8-2.9 4-6.7 6.7-11.4 8.3-7.6 2.6-15.2 3-22.7.2-10.1-3.7-16.1-11.1-17.8-21.7-1-6.5-.4-13 2.6-18.9 4.3-8.4 11.1-13.6 20.5-15.1 6.2-1 12.4-.4 18.2 2.4 8.2 3.9 13.2 10.5 15.1 19.3.5 2.4.7 4.9.9 7.3.2 1.5-.5 2.2-2.1 2.3h-44.1c-.4.1-.9.1-1.8.1zm38.3-9.2c-1.2-7.9-10.7-14.7-19.4-14.2-9.1.5-18.2 7.5-18.5 14.2h37.9zm-101 9c.1.8.2 1.4.3 2 1.7 9.3 9.3 15.7 18.7 15.9 7.1.1 12.7-2.8 16.8-8.6 2.2-3.1 6.1-3.4 8.8-.7 1.3 1.4 1.5 3 .3 4.6-.5.8-1.1 1.5-1.7 2.2-3.1 4.5-7.3 7.4-12.5 9.1-7.6 2.5-15.2 2.7-22.5-.2-10.6-4.1-16.4-12.1-17.6-23.3-.6-5.4-.1-10.7 2.2-15.6 4.3-9.4 11.4-15.2 21.8-16.6 5.5-.7 11-.3 16.1 1.8 9.2 3.8 14.6 10.9 16.6 20.6.4 2.2.6 4.5.7 6.7.1 1.8-.3 2.2-2.2 2.2h-43.5c-.7-.1-1.4-.1-2.3-.1zm38.4-9.1c-1.2-7.8-10.4-14.4-19.4-14.2-8.8.2-17.9 7.2-18.6 14.2h38zm101 13.5c.7.6 1.1 1 1.5 1.4 4.9 4.2 9.8 8.3 14.6 12.5.3.3.7.6 1 .9 1.8 1.8 2 4.4.3 6.2-1.6 1.8-4.2 2.1-6.1.5-3.4-2.8-6.7-5.7-10-8.5-4.8-4.1-9.5-8.1-14.3-12.2-.4-.4-.9-.7-1.6-1.3 0 1-.1 1.6-.1 2.3v36.1c-.2 2.5-2.1 4.3-4.6 4.2-2.4-.1-4.1-1.9-4.2-4.4V21.9c0-1.6.2-1.9 1.7-1.9 2.1-.1 4.2-.1 6.2-.1 5 0 10.1.2 15.1-.1 8.4-.4 17.8 6.4 18.7 16.3.8 8.9-5.2 17.3-14.3 19.1-1.1.2-2.3.5-3.9.8zm-15.3-6.9c.5.1.9.1 1.2.1h12.6c1.2 0 2.4-.1 3.6-.5 3.9-1.2 7-3.5 8-7.7 1.7-7.1-3.6-13.7-10.9-13.7h-13c-.5 0-1 .1-1.5.1v21.7zM88.5 52H63.9c0 .7-.1 1.4-.1 2v18.9c0 .8 0 1.6-.2 2.3-.6 1.9-2.6 3.1-4.5 3-2.1-.2-3.8-1.8-4.1-3.9-.1-.5 0-1 0-1.5V5.4c0-.9.1-1.8.4-2.6.6-2 2.6-3 4.7-2.8 1.9.3 3.5 2 3.7 3.9.1.6 0 1.2 0 1.8v34.7c0 .7.1 1.4.1 2 1.5.4 22.9.4 24.5 0 0-.5.1-1.1.1-1.7V23.9c.2-2.3 1.9-4 4.2-4.1 2.3-.1 4.3 1.6 4.6 3.9.1.5 0 1 0 1.5v48.9c-.3 2.3-2.3 4.1-4.5 4-2.3-.1-4.1-1.9-4.3-4.2V52zM25 78.3c-5.9-.1-11.4-1.4-16.5-4.4-2.2-1.3-4.2-2.9-5.8-4.8-.8-1-1.6-2.1-2.2-3.3-1-1.9-.6-3.4.9-4.9 1.7-1.6 4.1-2.3 6.4-.7C9 61 10 62 10.9 63c.9.9 1.6 1.9 2.5 2.8 2.7 2.7 6 4.2 9.8 4.6 3.5.4 7 .3 10.4-.9 1.4-.5 2.8-1.2 4-2.1 2.9-2.2 3-5.9.2-8.2-1.3-1.1-2.9-1.9-4.5-2.6-4-1.7-8.1-2.9-12.3-4-3.4-.8-6.7-1.9-10.1-2.9-1.3-.4-2.5-1.1-3.7-1.7-3.2-1.7-5-4.4-5.5-7.9-1-7.1 1.7-12.8 8.1-15.9 9.8-4.8 19.7-5.2 29.4.4 1.8 1 3.5 2.5 5.1 3.9 1.2 1 2 2.5 2.5 4 .8 2.6-.5 3.9-2.8 4.4-2 .4-3.8-.2-5.2-1.7-.3-.3-.5-.6-.7-.9-2.3-3.4-5.6-5.3-9.6-6.1-4-.7-8-.6-11.8.9-1.4.5-2.8 1.3-3.9 2.3-2.7 2.3-2.7 5.4-.1 7.8 1.7 1.6 3.7 2.5 5.9 3 4.8 1.2 9.7 2.4 14.5 3.6 3.1.8 6.1 1.8 8.9 3.4 3.6 1.9 6.2 4.7 7.1 8.8 1.1 5 0 9.4-3.9 13-4.4 4-9.5 6.3-15.4 7-1.7.1-3.3.2-4.8.3z"/></symbol><symbol viewBox="0 0 200.8 91.8" fill="#fff" id="logo1" xmlns="http://www.w3.org/2000/svg"><path class="bfst0" d="M177.4 27.9c-.1 0-.2-.1-.2-.1l-.2-.1.1.1.3.1c.1 0 .1 0 0 0 .1.1.2.1.2.1s-.1-.1-.2-.1zm-1.2-.6l-.3-.2c.1 0 .1.1.2.1 0 0 .1 0 .1.1.1 0 .2.1.3.2-.1-.1-.2-.2-.3-.2zm-.6-.4l-.2-.1-.2-.1c-.2-.1-.3-.1-.5-.2 0 0-.1 0-.1-.1.1.1.3.1.3.1h-.1c.1 0 .1.1.2.1h.1s.1 0 .1.1c.1.1.2.2.4.2l.3.2c-.1-.1-.2-.1-.3-.2zm17.8 21.4c0-.2-.1-.3-.1-.5l.1.5c.1 0 .1 0 0 0 .1 0 .1.1 0 0zm-.3-1.1l-.2-.6c-.1-.3-.2-.7-.4-1.1l-.1-.3-.3-.8c.4.8.5 1.2.8 2.2l.2.8v-.2zM180.9 30c-.4-.3-.8-.6-1.3-.9.4.3.8.6 1.3.9zm-1.6-1c-.1-.1-.1-.1 0 0 0 0 .1 0 .2.1l.1.1c-.1-.1-.2-.2-.3-.2zm.1.1z"/><path class="bfst0" d="M179.3 29c.5.3 1 .7 1.5 1-.4-.3-1-.7-1.5-1zm15.1 24.8zm.1.7zm0 0v-.1.1zm-.1-.3V54v.2zm0-.3s0 .1 0 0c0 .1 0 0 0 0zm-.2-1.9v-.3l.1.5v.3c-.1-.2-.1-.4-.1-.5zm-.8-3.6c.1-.1.1-.1 0 0 0 .1.1.2.1.3l-.1-.3zM139.9 32c-.2.2-.5.4-.7.6.2-.2.4-.4.7-.6zm9.2-.8l.1-.1c0-.1.1-.2.1-.2h-.2l-.3.1-.2.3h.3l.2-.1zm-.6-.4l.1-.1s-.1 0-.1.1h-.2s-.1 0-.3.1c0 0-.1 0-.1.1v.1h.1c.3-.1.5-.3.5-.3zm5.7-4.6l.3-.1V26h-.5l-.2.2-.2.1h.3l.3-.1zm24.4 2.4c-.1-.1-.2-.1-.3-.2h-.1c.1 0 .1.1.2.1.1.1.3.2.4.3l-.1-.1-.1-.1zm-1.5-.9c-.1-.1-.2-.1-.3-.2.1 0 .1.1.2.1-.1 0-.1-.1-.2-.1 0 0 .1 0 .1.1-.3-.1-.5-.3-.7-.4l-.6-.3 1.4.7.1.1zm.4.2c-.1 0-.1-.1 0 0l-.1-.1-.2-.1.3.2zm-9.9-3.5c-.1 0-.2-.1-.3-.1-.3-.1-.4-.1-.4-.1.1 0 .2 0 .3.1h-.4.1-.1c.3.1.4.1.5.1-.2 0-.4-.1-.6-.1 0 0 .2.1.4.1h.2c.1.1.2.1.3 0 0 .1.1.1.1.1h.1c.1 0 .2.1.3 0h-.2.1c-.1 0-.2 0-.4-.1zm0 .1z"/><path class="bfst0" d="M169.7 25c-.3-.1-.5-.1-.6-.2h-.1c-.2-.1-.4-.1-.6-.2 0 0-.3-.1-.4-.1h-.1c-.1 0-.1 0-.2-.1-.2 0-.4-.1-.7-.1.1 0 .2 0 .2.1h.1c.3.1.3.1.4.1l-.3-.1h-.5c.1 0 .1 0 .2.1h-.1c-.1 0-.1 0-.2-.1.4.1.7.2 1.1.3-.2 0-.3-.1-.4-.1.2.1.4.1.6.2l-.2-.1c.1 0 .3.1.4.1 0 0-.2-.1-.3-.1h-.1c.1 0 .1 0 .3.1h.1-.1.1c.1 0 .1 0 .2.1h.1-.1.1c.1 0 .1 0 .2.1h.1l-.1-.1c.1 0 .1 0 .3.1h-.1s.3.1.4.1c.1 0 .2 0 .6.2 0 0-.6-.2-.6-.3-.1 0-.3-.1-.4-.1l-.5-.2h.1c.6.2.6.2 1.1.3 0 0-.1 0-.1-.1-.1.1-.1.1.1.1l.1.1-.1-.1zm24.4 26.5c-.2-1.1-.4-2.2-.7-3.3-.1-.1-.3-.2-.6-.2-.4-.1-1.1-.2-1.9-.3 0 0 .1.5 0 .6v.1h-.1v-.2h-.1s-.2 0-.2-.1v.1c.1.1.1.1.2.1l.1.1v.1l.1.1v.4c0 .3.2.5.3.7.1.3.1.3.2.4h.2v-.2.1c.6 1.5.6 1.5.6 1.7v.1c0 .6.4 1.1.5 1.7.1.3-.1.7.1 1 .1.3.2.5.3.7v.1l.3 2.2c0 .4 0 .7-.1 1 0 .2.1.4.1.5h.1c.1-.1.1-.3.1-.4h.2v.1c0-.1 0-.1.1-.2 0-.2.1-.4.3-.5v-.2c0-.1.2-.7.2-.7l.1.1v-1.1c0-1-.1-2-.2-3v.1c0-.2 0-.3-.1-.5 0-.2 0-.4-.1-.6v-.2c0 .2 0 .2.1.9v-.1.3c-.1-.1-.1-.5-.1-.5v-.1s0 .1.1.1v-.2c0-.1 0-.1-.1-.2 0-.2-.1-.4-.1-.5-.2-.7-.5-1.3-.5-2 0 0 .2 0 .4 1 .2.6.3.9.3 1v-.1c-.1-.1-.1-.1-.1 0z"/><path class="bfst0" d="M193.4 48.3c-1.1-4.4-3.2-8.4-5.9-11.8l.8 1c1 1.4 1 1.4 2.6 4.3.8 1.5.8 1.5 2 4.7l.5 1.8zm-12.2-15.1h.2-.2v-.1.1zm-5.6-5.5c-.1-.1-.2-.1-.4-.2h-.1c.2.1.3.2.5.2-.1 0 0 0 0 0z"/><path class="bfst0" d="M181.4 33.2c1.6.1 2.8.3 3.4.4.2.1.4.1.4.2l-.2-.2c-2.5-2.3-2.5-2.3-3.8-3.3l-1.8-1.3c-.1-.1-.4-.3-.6-.4.1.1.1.1.3.2l.1.1c.3.2.6.3.8.6-.2-.1-.4-.3-.7-.4-.1-.1-.2-.1-.3-.2l-.1-.1c-.1-.1-.2-.1-.3-.2-.1-.1-.1-.1-.2-.1 0 0 .1.1.2.1h.1c.2.1.3.2.5.3l.3.2c.1 0 .1.1.3.2h.1c.1.1.3.2.4.3h-.1c-.1 0-.1-.1-.1-.1s-.1 0-.1-.1l.3.3c.2.2.4.3.7.5-.1 0-.1 0-.2-.1-.1 0-.3-.1-.5-.3.2.2.2.2.4.3l.1.1h.1c.1 0 .2.1.3.2h-.1c-.2 0-.7-.4-.9-.6h-.1l-.3-.2c-.4-.3-.9-.6-1.4-.9l.8.4h.2c.1 0 .2.1.3.1v-.1c-.6-.6-1.6-1-1.8-1.1-.1-.1-.1-.1-.2-.1-.1-.1-.1-.1-.2-.1-.1-.1-.2-.1-.3-.2h-.1c.1.1.1.1.2.1-.1 0-.1 0-.3-.2h-.1c-.1-.1-.1-.1-.3-.2h-.1l-.3-.1c-.1 0-.1-.1-.1-.1h.1l-.1-.1c-.4-.2-.6-.2-.6-.2.1 0 .2.1.2.1-.1 0-.2-.1-.2-.1s-.1 0-.1-.1c-.1 0-.1-.1-.1-.1h-.2c.2.1.2.1.3.2 0 0 .1 0 .1.1h.1l-.4-.2h-.1l-.2-.1h-.1c.1.1.1.1.2.1 0 0-.1 0-.2-.1h-.1c.1.1.2.2.4.2.1 0 .1.1.2.1h-.1c-.1 0-.2 0-.3-.1h-.1l.3.2c-.2-.1-.5-.2-.7-.3 0 0 0 .1.1.1 0 0 .4.2.4.3-.1 0-.1 0-.3-.1v.1l.1.1c.1.1.2.1.2.1l.1.1c-.1 0-.5-.3-.6-.3 0 .1.1.1.2.2h-.1l.2.1h-.1v.1l.1.1h.1v-.1h.1v-.1l.1-.1c.2 0 .2 0 .3.1h-.2c0 .1.3.4.3.4h-.1s.4.7.5.8l-.1-.1v.2s-.1 0-.1.1l.1.1h.2l.1.1v.1h-.1v.1c0 .1 0 .1.1.2 0 0-.1 0-.1-.1h-.1l.1.1.1.1v.1h-.1c0 .1 0 .1-.1.1h.2v.1c.1.1.2.2 0 .2v.1l.2.2.3.3v.1c0 .1.1.1.1.2h.1c.2 0 .2.1.2.1v.1l.1.1c.1.1.1.1.3.2.1.1.1.1.1.2v.1c.3 0 .7 0 1 .1v-.2h.1c0-.1 0-.1-.1-.2.2 0 .4.4.4.4.6 0 1.1.1 1.6.1v-.1h.1c0-.1-.1-.4-.1-.4l-.1-.1c-.1-.1-.1-.1-.3-.1-.1-.2-.4-.2-.5-.4-.2-.2-.3-.4-.5-.6 0-.2-.2-.3-.2-.5h.1c0-.1 0-.1-.1-.2h.1c-.1-.1-.1-.1-.1-.2v-.1h.1c0-.3-.4-.3-.6-.5v-.1l-.2-.2h.1c.1 0 .2.1.3.2v-.1c.1 0 .1 0 .3.2l.2.2h-.1c.4.3.4.3.4.5h-.1c.4.7.4.7.9 1.1l.1.1s.7.5 1.1.7v-.1h.2v-.1h.3V31c.1.1.2.1.2.2h.2l.1.1h-.2c0 .1 0 .1.1.4-.1 0-.2-.1-.4-.2h-.2v.1h-.1c-.1 1.5-.1 1.6-.1 1.6zm-3.2-.2c-.3 0-.6 0-1-.1v.1s.1 0 .1.1v.1h.2l.2.1h.1c.1 0 .1.1.2.1 0 0 .1 0 .1-.1h.1V33zm2 .1c-.5 0-1-.1-1.5-.1l.3.3v.1s.1.2.2.2c.2.1.2.1.3.2l.1.1.1.1c.1.2.3.3.4.3 0 0 .1 0 .1.1s0 .1.1.2c0 .1.1.1.1.2h.4c-.2-.3-.2-.3-.1-.3h.2c.1 0 .1.1.2.1v-.1h.1c0-.1-.1-.2-.2-.2h.2c-.1-.1-.1-.1-.1-.2h-.1c-.1 0-.1-.1-.2-.1v-.1c-.1-.2-.2-.3-.3-.5l-.3-.3z"/><path class="bfst0" d="M193.4 48.3c-1.1-4.4-3.2-8.4-5.9-11.8-.7-.8-1.6-1.9-2.3-2.6-.1-.1-.2-.1-.4-.2-.6-.1-1.8-.3-3.4-.4h-.2.1l.1.1c-.1 0-.1 0-.2.1.1.2.2.2.4.2v-.2c.3 0 .7.5.7.5-.1.1-.1.1.1.3v.1l-.4-.3s-.1-.1-.1-.2h-.1c.3.7.4 1 .8 1.3v.1c-.4-.1-.4-.1-.5-.1 0 .2.2.3.3.4-.2-.1-.3-.3-.5-.4l-.2.4h-.2c-.2.3-.4-.1-.5-.3h-.1v.1h-.4c0 .1.1.1.1.2s0 .1-.1.1c-.2 0-.2 0-.3-.2h-.2l-.1-.1-.1-.1c.1-.1.1-.1.2-.1s.2.1.4.2l.1-.1-.3-.6-.1-.1c-.1 0-.1 0-.2.1v.2c-.1 0-.2-.1-.2-.3 0-.1-.1-.1-.1-.1-.4.1-.3-.5-.6-.6v.3s-.1.1-.2.1l.1.1v.2l-.1.1c0 .1 0 .1.6.7v.1c0 .1.1.1.1.2l.3.3c0 .1.1.1.1.2h-.8v.1c-.1 0-.1.1-.2.1 0 .2 0 .2-.1.3l-.1-.1H178.4v.2l.2.1c0 .1.1.2.1.3-.2 0-.2 0-.4.4h-.3c0 .2.1.3.2.5h-.4c0 .1.1.2.1.3h-.3c-.1 0-.1 0-.3-.1-.1 0-.1-.1-.1-.1s-.1-.1-.2-.1v.3h.1c0 .1.1.1.1.2l.1.1v.1c-.5 0-.7-.2-.7-.2-.4.1-.4.1-.4.2v.1l.1.1c.2.2.3.2.4.2h.1c.2.1.4.3.6.4.1.2.1.3.2.5.4.4.9 1.1.6 1.5v.1c-.2.1-.2.1-.3.2h-.1c-.3-.1-.5-.1-.8-.3h-.8c-.3 0-.3 0-.4-.1h-.1l-.1.1v.1c-.2.1-.3.1-.4.1v.1c.3.3.2.7.4 1 0 .2.1.4.1.6v.1c-.3.3-.1.5 0 .8l.1.1v.2c-.1.1-.1.2 0 .5h.3c.3-.1.5.1.7.1l.4.2c.1.1.2.3.3.4v-.1h-.1c1.1-.7 2-1 2-1 0-.1 0-.2-.1-.3-.3-.4-.3-.4-.2-.8v-.2h.2s.1-.1.1-.2c0 0 .1 0 .2-.1v-.1h.5v-.4c-.2-.4-.2-.6-.2-.6.1-.1.1-.1.5 0 .3.2.3.2.4.2h.3v-.4h.2c.1 0 .2 0 .3-.3.5.1.6.7 1 1l.2.2c.7.5 1.9 1.4 2.1 2.1-.3.1-.3.1-.3.2-.3.1-.5 0-.8 0v.1c.3.1.4.4.7.5h.4c0-.1-.1-.3-.1-.4.1-.1.1-.2.3-.3 0-.1 0-.3-.1-.4 0 0 .1-.1.2-.1v-.2c0-.1-.1-.1-.1-.2h-.2l-.1-.1v-.1c.1-.1.1 0 .2 0 .2.1.2.1.3.2 0-.2-.1-.4-.2-.5-.4-.1-.8-.6-.8-.6-.3 0-.4-.3-.6-.3-.1-.3-.4-.4-.5-.7h-.1c-.2-.3-.2-.3-.4-.3 0-.1-.1-.2-.1-.2v-.2l-.2-.3c.3 0 1.5 1.2 1.5 1.2.1.2.1.2.3.2 0 0 0 .1.1.1.2.3.6.3.8.6.3.4.4 1 .7 1.4h.2c.1.2.2.3.2.4h-.1v-.1h-.1c0 .2.1.3.4.6 0 0 0-.1.1-.1.3.1.3.5.4.7h.3v-.4s-.1-.1-.1-.2l.1-.1.1.1h.1c0-.1 0-.1-.1-.4h.1v-.1c-.1-.2-.2-.2-.3-.2.1.2.1.2.1.3-.1 0-.2 0-.8-.9 0-.1 0-.1-.1-.2v-.1l.1.1.2.2h.2c0-.1 0-.1-.1-.2v-.1c.2-.1.4.1.6.2.1.2.1.2.2.2 0 0 .1.1.1.2l-.1.1c.1.3.4.4.4.7 0 .1 0 .1.1.2v.1c0 .1 0 .1.2.3v.3c0 .1.1.1.1.2v.2c.1.2.1.2.1.3v-.2c0-.1 0-.1-.1-.2v-.2s.1.1.1.2v.2s.1 0 .1.1h.1v-.1c-.1-.2-.1-.2-.1-.3v-.1c.1 0 .1 0 .2.1l.1.1.1.1v.1h.3c0-.1 0-.1-.1-.2v-.1c0-.1 0-.1-.1-.2h.1l.2.2h.1s0 .1.1.1c.1.2.1.2.1.3 0 .3.1.5.1.6v.1c.1.1.1.1.1.3v.9c.8.2 1.5.3 1.9.4 1.5-.9 1.7-.8 1.7-.7zm1.1 6.2v-.7c-.1-.6-.1-1.1-.1-1.1v.3c.1 1 .2 2 .2 3v-.7.1c-.1 0-.1-.4-.1-.9zm-.3-2.4l-.1-.5c-.2-1-.4-2.3-.7-3.3.3 1.1.5 2.2.7 3.3.1.1.1.3.1.5zM173.8 33h-.1s0 .1-.1.1h-.1v.1s0 .1-.1.1v.1h.3v-.1l.1-.3z"/><path class="bfst0" d="M178 36.4c0-.1-.1-.1-.1-.2-.2-.1-.3-.3-.4-.4h-.1v.2c-.1 0-.1 0-.4-.5h-.2c-.1-.2-.1-.3-.1-.3-.1-.1-.2-.1-.3-.2h-.1c-.1-.1-.2-.1-.3-.3 0-.1-.3-.3-.4-.3-.2 0-.4-.1-.3-.3V34h.1v-.1c-.1-.1.1-.2 0-.2-.1-.1-.1-.2-.2-.3h-.6v-.1c0-.1-.1-.1-.1-.2 0 0 .1-.1.1-.2l-.1-.1h-.5c0 .1 0 .2.1.3 0 .1.1.2.1.3-.1 0-.2-.1-.3-.1-.2 0 0 .2 0 .3.1.1.2 0 .3.1v.2c0 .1.1.1.1.2-.2 0-.2 0-.1.2h.2l.2.1h.1v-.2s.3.3.3.4c-.2 0-.1.1 0 .2h.3v-.1c.2.1.3.4.5.5 0 .2 0 .2.1.2.1.1.1.2.1.2h-.2c-.1 0-.1-.1-.2-.1h-.1v.2h-.1v.1c.1.1.4 0 .4.2h-.1v.1h-.1c.1.3.2.2.3.2l.6.1s.1.1 0 .2-.2 0-.3.1v.1h-.2c.1.2.1.2.1.3-.1.1-.1.1-.2.1.1.1.1.1.3 0l.1-.1V37c.1 0 .1 0 .2.1h.2c-.1-.2-.1-.2 0-.2.6.1.6 0 .5-.1.1 0 .2.1.3.2h.3v-.1h.2c0-.1-.1-.2-.2-.3v-.2h.1v-.2c0 .2.1.2.1.2zm-4-1.3h-.1.1z"/><path class="bfst0" d="M175 35.2c0-.1-.1-.1-.2-.2 0 0 0-.1-.1-.2l-.1-.1h-.1s-.1 0-.1-.1c-.1 0-.1 0-.1.1v.1h-.1l-.2-.2h-.2c.1.1.1.3.1.4H173.6c-.1-.1-.1-.1-.1 0 .1.2.1.4.2.6h.3c0 .1.1.2.1.3h-.2c-.1.1.1.2 0 .3-.1 0-.1 0 0 .2 0 .1.2.1.2.1.1 0 .1 0 .2-.1 0 0 .1 0 .2.1.1 0 .1-.1.1-.1v-.2h.6v-.1c0-.1-.1-.1-.1-.2l.1-.1c0-.1-.1-.2-.2-.5 0-.1 0-.1-.1-.2.1.2.1.1.1.1zm14.6 38s.1 0 0 0c.7-1.3.7-1.3.7-1.5-.1.2-.1.2-.8 1.2-.2 0-.2.3-.3.4-.2-.1-.2-.1-.8.8-.3.4-.3.8-.7 1.1-.2.3-.5.6-.7.8 0 0 0 .1-.1.1-.1.1-.2.3-.3.4 0 .1-.1.1-.1.2-.1.2-.2.3-.4.5h.1l-.1.1c.6-.1 2.9-3.4 2.9-3.5 0-.1.1-.1.1-.2s.1-.1.1-.2c0 0 0-.1.1-.1.2.1.3 0 .3-.1zm4.4-12.9c0-.1 0-.3-.1-.4 0 .1-.1.1-.1.2-.1 0-.1 0-.2.1h-.2l-.1-.1c0-.7 0-.7-.1-.8 0-1.4-.9-2.6-.8-4V55s-.5-4.2-2.2-6.5h-.1l-.1.1c-.9-.4-1.6-1.1-2.6-1.2.1.4.2.8.3 1.3h-.4c-.2-.2-.3-.4-.5-.5-.2 0-.4 0-.7-.1-.1-.1-.1-.3-.2-.4-.4-.5-1-.5-1.5-.8-.5-.4-.2-1.1-.6-1.5v-.2c.1 0 .2-.2.2-.3-.3-.2-.3-.2-.5-.3-.4.1-.4.1-1.1.1-.1.1-.2.2-.3.2-.4-.4-.4-.4-1.2-.2 0 .1-.1.1-.1.2-.3 0-.5 0-.8.1 0 .1 0 .3-.1.4-.2.1-.5 0-.7.1h-.5c-.4 0-.5-.1-.7-.2-.1 0-.1-.1-.2-.1-.2.3 0 .6-.1.9h-.6c0 .3.1.6.1.8-.2 0-.5 0-.7.1 0 .5-.1.9 0 1.4v.4c-.2 0-.4 0-.6.1 0 .6-.5.8-.8.8-.2 0-1 2-1 2h-.4c-.1 0-.1.1-.2.1.1 1.1-.1 1.2-.5 1.3 0 .1 0 .1-.1.2 0 .1 0 .3.1.4.8.1.8.1.8.3-.2.4-.2.4-.2 1.8v.2c0 .2 0 .2-.4.6 0 .3.1.5.2.8v.4s.8 1.4 1.5 1.7c0 .3-.1 1.2 1 1.3.8 1.5.8 1.6 1.6 1.5.1-.1.1-.3.2-.4.2-.1.5 0 .7 0h.7c.2.2.2.2 1.2.2.3-.6.6-.6 1.2-.4h.1s.5-.5.9-.2c.1.9.1.9.4 1 .5 0 .9 0 1.3.1 0 .2-.1.4-.1.7-.2.4-.2.4-.6 2-.1 0-.2.1-.3.2.1.1.2.2.3.2.1.3 0 .7.3.9-.1.9.4 1.8-.1 2.7 0 .1 0 .1-.1.4 0 .1 0 .3.1.4l-1.4 2.3c-.9.6-.7 2.5-.7 2.5-.3.5-.3.8-.3.9-.2.3-.3.6-.5.9 0 0-1 2.6-1.1 2.9 0 0 0 .1-.1.1-.3.2-.3.2-.4.4 0 0 .1 0 0 .1l-.1.1v.2h.5c.1 0 .3-.1.4-.1h.6c1.5-1.4 3.4-2.4 5-3.8l3.5-4.3c.1-.1.1-.2.2-.4 0-.1.1-.2.1-.3.2-.4.4-.8.5-1.2.1-.7.5-1.3.6-2 0 0 0-.1.1-.1.6-1.3 1.5-2.4 2.1-3.7 1-2.6 1-2.6 1.3-4.3zM164.2 68s0-1.1-.6-1.3h-.5c-.8-.2-.8-.2-.9-.7-.5-.3-.5-.3-.8-.2h-.7c-.7-.3-.7-.3-.9-.2v.2c-.1.1-.2.1-.6 0v-.2c.1 0 .2-.1.3-.2-.2-.2-.6-.5-1.2-.6 0 0-.1 0-.2-.1-.3-.1-.3-.1-.6-.1v.5h-.4v-.3c.1-.1.1-.2.2-.2l.1-.1-.1-.1-.6-.2H156.4c0 .4 0 .5-.4.4v-.5c.2 0 .2 0 .5-.1.1-.6 0-.8 0-.9h-.3c0-.2 0-.4-.1-.7 0-.2-.2-.4-.2-.5-.6-.1-.6-.3-.7-.4-.8-.3-.8-.3-.9-.3-.3-.1-.5 0-.8 0h-.2c-1.3-.3-1.3-.8-1.3-1-.5-.3-.5-.3-.7-.4 0 0 0-.1-.1-.1-.3-.2-.3-.2-.2-.5h-.2c-.2 0-.3.1-.5.1-.1-.1-.1-.1-.2-.4h.2v-.1l-.4-.2-.2.2h-.1c-.1 0-.2-.1-.3-.1-.1.2-.2.4-.3.5h-.2c-.2-.4-.2-.4-.6-.4h-.6c-.1 0-.2-.1-.3-.1 0-.1 0-.2-.1-.3-.2-.1-.4-.2-.7-.3l-.1.1-.6.6c.1.6.1.6.1.8l-.1.1c-.2-.3-.6-1.2.1-1.8v-.1h-.3c-.3.1-.3.1-.2.5h-.5c-.6.4-.6.4-1 .4v.7c-.1.1-.1.1-.4.2 0 .4-.6.7-.4 1.2h.1c0 .4.6.9.1 1.3-.1.8-.1.8-.3.9 0 .1.1.3.1.4-.1.1-.2.1-.2.2v.2c-.3.1-.3.3-.3.6-.1 0-.2 0-.3.1.1.3.1.6.2.9h.4v.2s0 .1-.1.1-.2.1-.3.2c0 .3-.2.6.1 1v.1c.2.9 1.3 1.1 1.5 2 0 .1 0 .1.1.2.2.3.3.7.6 1 .6.5.5 1.7 1.6 1.6 1-.1 1 1.2 1.9 1.2.1.3.2.6.3 1 0 .1 0 .2.1.3 0 0 0 .1.1.2 0 0 0 .1.1.1v.2c0 .1 0 .2.1.3 0 0 0 .1.1.2 0 0 0 .1.1.1v.3c0 .1.1.2.2.3v.2c0 .3 0 .6.1.9.1.3.1.3.2 1.2l.1.1c.6 1 .8 1.4.7 1.9 0 0 0 .1.1.2 0 0 0 .1.1.1.1.1.1.1.1.7.4.4.4.9.8 1.3.3.2.2.7.6.8h.2l-.4-.6h.2c0 .1.1.1.1.2v.2c.1.1.2.2.2.3l.4.6c-.1 0-.2-.1-.3-.2v-.1l-.1-.1c0 .1.1.1.2.2.3.2.3.2.4.4-.1 0-.3-.1-.4-.2 0 .1.1.1.1.2v.1c.3.2.7.3.9.5-.1 0-.2.1-.2.1l.1.1c.1.1.2.1.2.2l.1.1c.2.1.3.2.5.3h.2c.1.1.2.1.2.2l1.1.6.1.1c.2.1.2.1.4.1h.5l.1-.1c-.2-.1-.2-.1-.4-.1 0 0-.1-.1-.2-.1 0 0-.2-.2-.5-.4l-.1-.1-.3-.3-.1-.1c0-.1-.1-.1-.1-.2l-.1-.1h.2c-.1-.1-.1-.2-.2-.2l.1-.1c0-.1-.1-.2-.1-.3l.1-.1s-.1-.1-.2-.1h-.1c-.5-.3-.5-.3-.5-.4v-.2l.1-.1h.3c-.1-.1-.1-.2-.2-.4 0-.1-.1-.3-.1-.4h.2v-.1l-.1-.1-.1.1-.3-.3c0-.1-.1-.1-.1-.2h.1c.1 0 .2.1.3.1h.4l-.1-.1-.1-.2c0-.2 0-.2-.2-.4 0-.1 0-.1-.1-.2h.6s.1 0 .1-.1h.5c0-.3.2-.4.3-.7v-.1c0-.1 0-.1-.1-.2h-.1s0-.1-.1-.2c-.2-.2-.5-.3-.6-.5h.3c1 .2 1.3.3 1.3-.1.3-1.3.5-1.4.6-1.4v.3h.1c.1-.2.3-.7.3-.7 0-.3.4-.3.4-.5.1-.4-.4-.7-.2-1.1 0 0 .6-.7.8-.9h.5l.3-.3h1.1c0-.1.1-.2.1-.3.2-.1.4-.4.4-.6.1 0 .2-.1.3-.2 0-.4 0-.4.2-.6.1-.1.1-.1.2-.8 0 0 0-.1.1-.2.2-.3.2-.5.2-.6V71.1c0-.2 0-.4.1-.6.1 0 .1 0 .7-.8.2 0 .3-.1.4-.2l.7-1c.1-.3.1-.3.2-.5zm-15.6-13.5c0-.1-.1 0-.2-.1v-.3c-.4.1-.4.1-.6.1h-.2c-.1 0-.2-.1-.3-.1h-.1c-.1 0-.1.1-.2.2h-.3c-.1 0-.2-.2-.3-.2-.2 0-.2-.2-.4-.2h-.7c-.1 0-.1 0-.4.1v.7c.2.2.3.4.4.4h.2c.2 0 .2 0 .3-.2.1-.1.3-.1.3-.1.1 0 .2.1.3.1.1 0 .2-.1.3-.1.3 0 .7-.1.8-.1h.2c.1 0 .4.1.5.1h.2c.1-.2.1-.2.2-.3zm-5.1.4v-.3h-.2c-.1 0-.1-.1-.2-.1h-.6c0 .1.1.1.1.2v.1h.1c.1 0 .2.1.2.1v.2h.2c.2 0 .2 0 .4-.2zm-.6-1.3h1.4c-.1-.2-.4-.6-.7-.7h-.2c-.2 0-.4.1-.6 0l-.3-.3c-.1-.1-.3-.2-.5-.3-.2-.1-.2-.1-.2-.2s0-.1-.2-.1h-.4c-.1 0-.1 0-.2.1s-.2 0-.2 0h-.8c-.4.4.2 1 .6.7l.3-.3h.3s.4.1.4.4c0 .1 0 .1.1.1.3.2.3.2.4.1.1 0 .2 0 .2.1.2.1.4.4.6.4zm27-23.7c0-.1-.1-.2-.1-.2l-.1-.1c-.1 0-.1 0-.3-.1l-.2-.4h-.3c-.1 0-.1 0-.3.2-.1 0-.3-.1-.4-.1-.2 0-.3.1-.3.1h-.3v-.2c0-.1-.1-.1-.1-.1h-.1v.1h-.5s-.3.1-.1.3c.1 0 .2-.1.4 0l.3.1s0 .1.1.1c-.1 0-.4-.1-.6 0 0 .1.1.1.1.2h.4c0 .1.1.2.1.2l.1.1h.6c.2 0 .3.2.4.2 0 0 .5.1.5-.1 0-.1 0-.1.1-.2h.2l.1-.1h.3zM155.8 38v-.2h-.3s-.2-.1-.3-.2c0-.1 0-.1-.1-.1h-.4c-.1 0-.1-.1-.2-.1.2-.3.2-.3.4-.4 0 0 .2-.2.1-.3v-.1h-.1s-.2 0-.2.1c-.1.1 0 .2-.1.2-.1.2-.1.2-.2.3 0 0-.9.8-1 .9 0 0-.1.1-.1.3v.2h1.3c.1 0 .2 0 .3.2.2.3.3.3.4.4l.1-.1s.2-.1.1-.4c.1-.5.1-.5.3-.7zm-3.6-.6l-.1-.1h-.2c-.1-.1-.2-.1-.2-.2s-.1-.1-.1-.1h-.1c-.1 0-.1.1-.2.1 0 0 .1 0 .1.1 0 0 0 .1.1.2l.1.1.1.1.1.1c.1 0 .2 0 .4-.3zM163.8 24h-.4.1-.1l-.1-.1h-.7.4-1.5.1H160.3s-.1 0-.1.1h-1.1l-.2.1h.3s-.1 0-.1.1h-.5c-.1 0-.1 0-.1.1 0 0 .1 0 .1.1h.1l.1-.1h.5l-.1.1v.5s-.1 0 0 .1c0 0 0 .1-.1.1l-.1.1h.1s0 .1-.1.1h-.1c0 .1 0 .1-.1.2h-.1v.2h.5l.3-.1c0 .1-.1.2.1.2.1 0 .1.1.1.1h-.2c-.1 0-.2 0-.2-.1-.4 0-.4 0-.4.1l.1.1c-.1.1-.3.1-.3.2.2 0 .2 0 .3.1h.1c.2-.1.2-.1.4-.1 0-.1 0-.1.1-.2H159.3h.1c.1.1.1.1.2.1h.3v.1c-.1 0-.1.1-.2.1v.1l.1.1v.2h-.2c-.1 0-.1.1-.2.1h-.2c0 .1-.1.2-.1.2h-.1l-.3.2v.2c.2 0 .2.1.2.1 0 .1-.2.1-.2.3 0 0 0 .1.1.2.1 0 .2-.1.3-.1h.1v.1h-.1c-.2.4-.2.4-.1.5.2 0 .3-.2.5-.2 0 .1 0 .2-.1.3-.1.1-.2.1-.3.1-.1 0 .3 1 .3 1 .3.4.5.6.7.6h.4c0 .3.3.2.5.4.1.1.6.1.6-.2v-.1c0-.3.6-.6.2-.9 0 0-.2-.2.1-.2h.3c.1-.2.1-.2.3-.3v-.3c0-.2-.1-.2-.1-.3.1-.1.2 0 .3-.1.1-.1 0-.1 0-.2h.4v-.2h.2v.2c.2 0 .3-.2.5-.2h.3v-.1l.3-.3c.1 0 .1 0 .1-.2h.1v-.1c.1-.1.1-.1.1-.2h.3c.1 0 .3.1.4.1.2 0 .2-.3.4-.3.1 0 .2-.1.4-.1s.1-.3.3-.3h.3c.1 0 .1 0 .1-.1h-.1l-.1.1v.1h-.2c-.1 0-.2-.1-.3-.1h-.1c-.3 0-.4-.1-.4-.2v-.1l.4-.1c.2.1.2.3.4.3v-.1h.3c-.1-.2-.3-.2-.5-.4-.1-.1-.3-.1-.4-.3l.2.1h.1c0-.1 0-.1-.1-.2v-.1c0-.1-.2-.2-.3-.1h-.1l.1-.1-.2-.1h.2s0 .1.1.1h.5c0-.3-.3-.1-.5-.3h.3v-.1h.2c-.1-.1-.4-.2-.5-.3h.1l-.1-.1c-.1 0-.1 0-.1-.1-.1-.1-.3 0-.4-.1h.2s.1 0 .2.1c0 .1 0 .1.2.2-.1-.1-.2-.2-.3-.2H165.4l-.1-.1c-.1 0-.3-.1-.4-.1 0 0-.1 0-.2-.1s-.1-.1-.2-.1h.1l-.1-.1h-.3l-.4.3c0 .1.1.1.1.1l-.1-.1c.1 0 0 0 0 0z"/><path class="bfst0" d="M160.7 23.9h.1-.2.1-.2.1-.5.1-.6.1-.3.3-.1.1-.4.1-1.1.5-.7c.1 0 .1 0 .5-.1h.8-.1c-.1 0-.3 0-.4.1h.1-1.1.1-.2l.2-.1h-.4l-.2.1-.2.1h.1c-.1 0-.2 0-.2.1-.1 0-.1 0-.2.1l.2-.1h-.4c-.1 0-.1 0-.2.1h-.1.2l-.2.1-.2.1c.1 0 .1 0 .5-.1l-.2.1-.3.1h-.1v-.2h-.1c-.4.2-.4.2-.6.2l-.2.1-.2.1c.1 0 .2 0 .3-.1h.6c-.1.1-.1.1-.2.1h.2c.1.3.1.3.3.3l.1-.1-.2.1.2-.1h.2l.2-.1.2-.1h.1c.2 0 .3-.1.5-.2h.1s.1 0 .2-.1h-.3l.1-.1c.1 0 .3-.1.4-.1h.1-.1c.1 0 .1 0 .4-.1l.1-.1h.1-.1.3l.1-.1h.4c.2 0 .4-.1.6-.1h.3-.3.6c0 .1 0 .1.2.1z"/><path class="bfst0" d="M157 24.4c.1 0 .2 0 .3-.1h.4-.2s.3-.1.5-.1c.1 0 .2 0 .3-.1h-.5c-.1 0-.3 0-.4.1h-.1l-.3.1h-.2c-.1 0-.2 0-.3.1-.1 0-.2 0-.3.1h-.1.3c-.2.1-.2.1-.3.1h-.4l-.2.1h.4l.2-.1.2-.1.2-.1c.3.1.3.1.5 0zm-2 .5c.1 0 .4-.1.4-.1h-.2l-.2.1zm-.1.6l.2-.1-.1-.1h-.1l-.3.1-.3.1h-.5l.2-.1.3-.1.2-.1h-.1c-.1 0-.2 0-.8.3l-.4.1-.1.1-.1.1h.2c.1 0 .2-.1.2-.1l-.1.1h.6l.2-.1v.1c.4 0 .4 0 .6-.1 0-.1.1-.2.2-.2zm-2.8.3l.2-.1-.2.1zm.7-.1l.3-.1.1-.1.2-.1h-.1l-.3.1-.2.1-.2.1h.2zm1.1-.5l.3-.1.2-.1.1-.1h-.2l-.3.1-.1.2zm1.1-.4c.1 0 .1 0 .2-.1 0 .1-.1.1-.2.1.1 0 0 0 0 0h-.2c-.1 0-.1 0-.2.1h.2l.2-.1z"/><path class="bfst0" d="M155.3 24.7h.2l.1-.1.1-.1-.1.1h-.2l-.4.1h.3zm1.1-.3h.1l.3-.1h.1c-.1 0-.2 0-.3.1h-.2z"/><path class="bfst0" d="M154.6 24.8h.2l.3-.1.1-.1h.2l.1-.1h.1-.1.2l.1-.1h-.1l-.2.1h-.2.1l-.1.1h-.4l-.2.1h.1-.1.2l-.3.1zm-.3.1l.1-.1h.1l-.3.1h.1zm-.9.4l.3-.1c0-.1-.1-.1-.3.1l.2-.2h-.1l-.5.2h.4l-.2-.1-.2.1-.3.1.1-.1.4-.2.1-.1-.4.1c-.2.1-.3.1-.5.2v.1h.2l-.1.1-.3.2h.4l.2-.1c.1 0 .2-.1.3-.1.2-.2.3-.2.3-.2zm-1.3.3c.1-.1.1-.1 0 0 0-.1 0 0 0 0l-.3.1c.1-.1.1-.1.3-.1zm1.5-.6h.2l.3-.1.1-.1c-.2.1-.4.1-.6.2zm-1.6 3.5l.3-.2.1-.2h-.4s-.1.1-.4.2l-.1.2h.5zm.2-2.4l.4-.2h-.1v-.1h-.3c-.3.2-.3.2-.5.2-.2.1-.3.2-.5.3-.1.1-.3.2-.4.3h.2l.3-.1.3-.1h.1l.3-.1.2-.2z"/><path class="bfst0" d="M150.3 26.8l.4-.2.2-.1.1-.1.1-.1c.4-.1.4-.1.6-.3l.1-.1h-.1l-.2.1h-.2l-.2.1-.2.1c-.4.2-.4.2-.5.2l.1-.1h-.1l-.2.1-.1.1-.1.1c-.3.2-.3.2-.3.3 0 0 .1 0 .3-.1h.3zm0-.5l.3-.2.1-.1h-.1c-.1 0-.2.1-.2.1l-.1.2c0-.1 0 0-.2.1l.2-.1z"/><path class="bfst0" d="M150.3 26.2l.2-.1h-.1l-.2.1h.1zm4.2-1.5c.2 0 .2 0 .3-.1h-.2l-.3.1h.2zm-.6.1h.3-.3l-.2.1-.4.1h.2l.2-.1.2-.1z"/><path class="bfst0" d="M153.6 24.9l.3-.1h.1-.3l-.1.1zm-1.7.7l.5-.2.1-.1-.2.1h.1l.2-.1c.1 0 .2-.1.2-.1l.2-.1h-.1l-.2.1h-.1l-.2.1c-.1.1-.1.1-.5.2l-.2.1h-.1l.1-.1.3-.1h.2l-.2.1-.4.1-.3.1-.3.1-.3.1h.5c-.1 0-.1 0-.2.1h-.1l-.2.1-.2.1h-.1.1l.3-.1.3-.1h.3l.5-.4z"/><path class="bfst0" d="M152.6 25.2l.3-.1h-.1l-.2.1zm-1.4.4l.5-.2-.2.1-.3.1z"/><path class="bfst0" d="M152.9 25.1l.3-.1h.1-.3l-.1.1-.9.2-.2.1-.3.1-.1.1.3-.1-.2.1.2-.1.2-.1h.1l.3-.1.2-.1-.3.1h.1l.2-.1.4-.1zm-4.6 2.6l.2-.1.1-.1v-.1l.2-.2.4-.2.1-.1.5-.2.2-.2.1-.1h-.1c-.1.1-.2.1-.4.2l-.2.1-.3.2-.2.1.1-.1.2-.1.2-.1.3-.2h-.1l-.2.1-.2.1h-.1l-.2.1h-.1l.2-.1.3-.1h-.1l-.3.1.2-.1.3-.1h-.1l-.3.1-.2.1h-.2l-.3.1-.3.2-.3.1-.2.1-.1.1.2-.1h.1l-.1.1-.2.1-.2.1-.2.1-.1.1h.4c-.1.1-.1.1-.3.2h-.4l-.3.1-.4.2h.2l-.3.2-.1.1h.4l.3-.1.2-.1.3-.1.2-.1-.1.1h.1l-.1.2h.3l.3-.2.1-.1h.1l.5-.4z"/><path class="bfst0" d="M146.9 28.2l.2-.1-.3.1-.4.1v.1l.3-.1.2-.1zm2.4-1.8l.2-.1.3-.1.3-.1-.3.1.2-.2.1-.1h-.2c-.1 0-.2.1-.2.1l-.4.4-.7.2-.9.4-.1.1-.5.3.4-.2h.1l.3-.1c.4-.2 1.1-.5 1.1-.5l.3-.2z"/><path class="bfst0" d="M154.9 36.1l.2-.2-.2-.2.2-.2.1-.3-.4-.1v-.2h-.5l-.4.2-.3.2-.2-.1.2-.2.5-.1.6-.1.3-.2h-.3l-.3-.2-.4-.1-.2-.2-.2-.2v-.2h.2l.1-.2-.2-.3-.2-.4-.2-.7v-.3l-.5.4c0 .1-.1.2-.1.3l-.4.1-.3.2h-.3v-.2l-.1-.2-.3.1.3-.4c.1-.2.2-.3.3-.5l.1-.3h-.3l-.2-.2-.5-.1-.2-.3-.2.1h-.3l-.1-.1h-.4l-.3.2v.3l-.3.4-.1.2-.1.3h-.2l-.2.3-.2.2.1.1.1.2-.2.4c-.1.2-.2.3-.3.5l-.4.3-.4.3-.4.1v.4l-.3.6v.3l-.2.3-.3.3-.5.1V36l-.1-.4c.1-.1.1-.2.2-.3l.2-.5.3-.4-.4-.1h-.3l-.1-.1-.4-.1v-.2l-.2-.2-.2-.2-.6.2.1-.2.2-.5-.1-.1v-.2l.6-.7.6-.5.6-.4.4-.2.4-.2.1-.2-.2-.1-.2-.1.3.1.2.1.2-.1.3-.2.2.1.2-.1.2-.2.2-.1.3-.2h-.4v-.1l-.1-.1h.2l.2.1.1.1.3-.1.4-.2v-.2h.2v.2l-.3.2-.4.3-.4.4-.3.1-.1.2h.2c-.1.1-.1.1 0 .2.1 0 .1 0 .2-.1l.3-.2h.4l.1.1h.3l.2-.2-.2-.1.1-.3h-.3v-.2l-.2-.1.2-.2h.1l.2-.1.1-.1h.2l.3-.2.4-.2.2-.2.1-.2.2-.3h.2l.3-.2.1-.2-.1-.1-.1-.1h.3l.1-.1h.2v.1h.2l.3-.1v-.2h.2l-.1.2h.2l-.1.2h.1l-.1.1.1.1-.1.2.1.1v.2l-.2.2-.5.3-.4.3-.1.3-.5.1-.2-.1h-.2l-.5.2c-.1.1-.1.2-.2.2l.3.1h.3l.2-.1.2-.1h.1l.3.1.1.3v.2l.1.2h.3l.1.3h.5l.3.1.1-.2-.3-.4-.1-.2V30l.2.2.4.3.2.2c0-.1.1-.2.1-.3l.3-.3-.2-.2.1-.4-.3-.1-.1-.5.2-.1.2-.1.3.4.1.3h.2l.3-.3.4-.1.1-.1h.2l.2-.1.1-.2h-.4s0-.1.1-.1l-.1-.2h-.2l-.2-.1h-.2V28h-.4l.2-.2h.2l.2-.1-.2-.1.1-.1h.2v-.1l-.2-.1.2-.1-.1-.1h-.3l.1-.1h-.3l.3-.1-.1-.1-.3.1v-.2l.1-.1h-.1l.1-.1-.1-.1h-.3l-.2.1h-.3l-.2.1h-.2l.2-.1.3-.1.1-.2.2-.2h-.2l-.3.1h-.2l-.2.1-.3.2-.2.2-.2.1-.2.2h-.2l.1-.2.3-.3.2-.2.4-.2.4-.1h-.5l-.5.2-.6.3-.6.4h.2l-.2.1h-.1l-.3.1-.1.2h.2l.2-.1v.1l.1.1-.2.1-.2.2v.1l-.6.4-.4.3-.4.2v-.1l.3-.3.3-.2.1-.3-.5.2.3-.4.3-.2.3-.2h-.1l.3-.2.1-.2h-.2l-.2.1h-.1l-.4.2-.2.2-.2.1-.1.2v.1l-.3.2h-.1l-.3.2h.2l.4-.2c-.1.1-.2.2-.3.2l-.6.3-.4.4v-.2l.4-.2h-.1l.3-.2h.1l.4-.3v-.2l-.4.2-.3.1-.1.2-.3.2-.3.2-.5.1v-.1h-.1l.1-.2-.3.2-.4.2-.3.2-.5.4.5-.4.1-.1-.3.1h-.3l.2-.1.3-.1.2-.2h-.1l-.1-.5.2-.2h-.1l-.3.1h-.1l.5-.3-.5.3.6-.4h.1l-.5.2-.3.2-.1.1-.3.1-.3.2.5-.3.2-.1.2-.1.2-.1-.3.1-.3.2c-.9.5-2.1 1.3-3 1.9-1.4 1-1.4 1-3.9 3.3l-.4.4.1-.1-.1.2-.2.3-.1.1-.2.3-.1.2-.2.2-.1.1-.2.3-.2.3-.3.3-.2.3-.3.4-.2.4-.2.3-.1.2v.2l-.1.2-.1.3-.1.2-.3.5c-.1.1-.2.3-.3.4l.1-.3.1-.3.1-.2.1-.2v-.1l.2-.3h-.1l.1-.2v-.2l-.1.1-.2.3-.1.2-.1.2-.1.4-.2.4-.3.5-.3.4-.3.6c-.1.2-.2.4-.4.7l-.1.2c-.1.1-.1.3-.2.5l-.2.5-.2.5-.1.4-.1.3-.2.5-.1.4v.3l-.2.7v.3l-.1.4v.4h.1v.3l.1.2v.3l-.1.4v.4l-.1.7.1.3.1.4v.3l-.2.3v.3l.1.3.1.3.2-.1-.1.3v.2l.1.1.1.3.1.3v.3l.1-.1.1-.4v-.4l-.1-.2V51l-.1-.3v-.9l-.1-.3v-.4l-.1-.1v-.5l-.1-.4.1-.6h.1l.1.2v.3l-.1.5.1.6.1.5.1.4.1.4v.4l.2.3.1.4.1.4.2.6.1.5.1.2-.2.2-.1.3.3.5.3.4.3.2.3.4.4.3.5.4.4.2h.3l.1-.2.3-.1.3.3.4.5.2.4h.4l.2.1.2.4.4.2v-.3l.2.2c.8 1.3.8 1.3.7 1.6l.2.2.2-.1.3.2c.5.6.5.6.8.6l.7.4.4.2-.1-.4.1-.3h.6l.1.3h.2l.1-.4-.2-.3H141l-.3-.2-.4-.5v-1l.1-.7v-.5l-.2-.4-.4-.2-.5.1-.4-.1-.4.2-.3-.2.2-.3v-.5l.1-.3.1-.5v-.6l.2-.2.1-.4-.2-.2-.6.1-.4.1-.2.4-.2.6-.2.5-.3.1-.4.2-.4.1-.2-.4-.3-.3-.1-.4-.2-.6-.1-1v-.7l.2-.6.2-.6-.1-.6.4-.6h.3l.3-.3.3-.4.3.1.2.1.2-.1.1.3h.6v-.3l.2-.4h.4l.3-.1.5.1.2.4h.2l.2-.2.2-.1.2.3.2.4c0 .2 0 .3-.1.5l.1.3v.3l.2.2.1.3.2.2v.4l.2.1.2-.2.1-.4-.1-.5v-.7l-.2-.6c0-.3.1-.5.2-.9.1-.1.1-.3.2-.4l.3-.6.4-.2.5-.4.5-.3.4-.2.1-.3.3-.2-.1-.5-.1-.2.1-.3-.1-.3.3-.2.2.4.2-.4.2-.3.2-.2.4-.7h.6l.4-.2.4-.1v-.3l.1-.6.4-.4h.3l.2-.3h.5l.5-.3.3-.3c.8 0 .8 0 1 .1 0 0-.1.1-.2.1h-.6c-.4.3-.4.3-.4.6l.2.1.3-.2.2-.1.4-.1.5-.2.4-.1.4-.4.4-.3.1-.3-.5.1-.4.5h-.5l-.4-.2-.3-.3-.1-.6L151 38l.1-.5h-.5l-.6.2-.7.4-.8.6-.6.4.3-.3.4-.4.2-.2-.4-.1h.6l.2-.3.4-.3h.4l.3-.3.4-.1h1.5l.5.1h.4l.5-.3.4-.4.7-.1.2-.3z"/><path class="bfst1" d="M7.2 51.6c.7.3 1.2.6 1.6 1.1.4.5.7 1.2.9 2.1l1.3 6.7H7.2l-1-5.5c-.1-.4-.1-.7-.2-1-.1-.3-.2-.6-.3-.8-.1-.2-.3-.4-.5-.5-.2-.1-.5-.2-.8-.2h-.6v8.1H0V42.2h3.8v8h.4c.4 0 .8-.2 1.2-.7.3-.4.6-1.1.7-1.9l1-5.4h3.6l-1.2 5.9c-.2.9-.5 1.6-.9 2.2-.4.5-.9.9-1.4 1.2v.1zm10.1-9.4c.8 0 1.6.1 2.2.3.7.2 1.2.5 1.7 1s.8 1.1 1.1 1.8c.3.8.4 1.7.4 2.9 0 2-.4 3.5-1.3 4.6-.8 1.1-2.2 1.7-4.1 1.7h-.9v7.1h-3.8V42.2h4.7zm-.8 3.6v5h.6c.2 0 .5 0 .7-.1.2-.1.4-.2.6-.4.2-.2.3-.5.4-.8.1-.4.2-.8.2-1.4 0-.9-.2-1.5-.5-1.8-.3-.4-.8-.5-1.4-.5h-.6zm14 1c0-.4-.1-.7-.3-.9-.2-.2-.5-.3-.8-.3-.3 0-.6.1-.8.3-.2.2-.3.5-.3.9V57c0 .4.1.8.3.9.2.2.5.3.8.3.3 0 .6-.1.8-.3.2-.2.3-.5.3-.9V46.8zm3.8 10c0 1.7-.4 2.9-1.3 3.7-.8.8-2.1 1.2-3.7 1.2-3.3 0-4.9-1.6-4.9-4.9v-9.9c0-1.7.4-2.9 1.3-3.7.9-.8 2.1-1.2 3.6-1.2 1.7 0 2.9.4 3.7 1.2.8.8 1.2 2 1.2 3.7v9.9h.1zm8.6-9.1c0-.8-.1-1.3-.4-1.5-.3-.3-.7-.4-1.3-.4h-.4v3.8h.5c1 .1 1.6-.6 1.6-1.9zm.2 7.6c0-.8-.1-1.3-.4-1.7-.3-.3-.7-.5-1.2-.5h-.7V58h.7c.4 0 .6-.1.8-.2.2-.1.4-.3.5-.6.1-.2.2-.5.2-.8 0-.4.1-.7.1-1.1zm1.3-3.9c.4.1.8.4 1.1.6.3.3.5.6.7 1 .2.4.3.8.4 1.2.1.4.1.9.1 1.3 0 2.1-.5 3.6-1.4 4.6-.9 1-2.3 1.5-4.1 1.5H37V42.2h4.4c1.7 0 3 .5 3.9 1.4.9.9 1.3 2.3 1.3 4 0 .4 0 .8-.1 1.2-.1.4-.2.7-.4 1.1-.2.3-.4.6-.7.9-.3.3-.6.5-1 .6zm5 10.2V42.2h8.9v3.6h-5.1v4.1h4.5v3.6h-4.5V58h5.1v3.6h-8.9zm21.2-19.4v19.4h-3.7V45.8h-2v7.3c0 1.3-.1 2.5-.2 3.5s-.3 1.8-.7 2.5c-.3.7-.8 1.3-1.4 1.7-.6.5-1.4.9-2.3 1.2L59 59.1c.6-.3 1.1-.7 1.4-1 .3-.4.6-.8.7-1.2.2-.5.3-1 .3-1.6V42.2h9.2zm3 19.4V42.2h3.8v7.1h1c1.9 0 3.2.5 4.1 1.5.8 1 1.2 2.5 1.2 4.5 0 1.1-.1 2-.4 2.8-.3.8-.6 1.4-1.1 1.9-.5.5-1.1.9-1.7 1.1-.7.2-1.4.3-2.1.3h-4.8v.2zM78 58c.6 0 1-.2 1.4-.6.3-.4.5-1.1.5-1.9 0-.6-.1-1-.2-1.3-.1-.3-.3-.6-.4-.7-.2-.2-.4-.3-.6-.3-.2-.2-.5-.2-.7-.2h-.6v5h.6zm13.7 3.6v-8h-2.4v8h-3.8V42.2h3.8v7.7h2.4v-7.7h3.8v19.4h-3.8zm6.6 0V42.2h3.8v7.1h1c1.9 0 3.2.5 4.1 1.5.8 1 1.2 2.5 1.2 4.5 0 1.1-.1 2-.4 2.8-.3.8-.6 1.4-1.1 1.9-.5.5-1.1.9-1.7 1.1-.7.2-1.4.3-2.1.3h-4.8v.2zm4.4-3.6c.6 0 1-.2 1.4-.6.3-.4.5-1.1.5-1.9 0-.6-.1-1-.2-1.3-.1-.3-.3-.6-.4-.7-.2-.2-.4-.3-.6-.3-.2 0-.5-.1-.7-.1h-.7v5h.7V58zm7.1 3.6V42.2h3.8v19.4h-3.8zm10.3-24.2c0 .2.1.4.2.7.1.2.2.4.4.6.2.2.3.4.5.5.2.1.4.2.6.2.3 0 .5-.1.7-.2.2-.1.4-.3.5-.5l.3-.6c.1-.2.1-.4.1-.7h2.6c0 .4-.1.9-.3 1.4-.2.5-.4 1-.8 1.4-.3.4-.8.8-1.3 1.1-.5.3-1.1.4-1.9.4-.8 0-1.4-.1-2-.4-.5-.3-1-.6-1.3-1.1-.3-.4-.6-.9-.8-1.4-.2-.5-.3-1-.3-1.4h2.8zm2.9 14l-3 10.1h-3.7V42.2h3.7v10.3h.1l3-10.3h3.8v19.4h-3.8l-.1-10.2zM93.8 80.9l-.8-2.4-.9-2.9H92v9.1h-3.8V65.4h3.5l1.9 5.2 1.3 3.8h.2l1.3-3.9 1.9-5.1h3.5v19.4H98v-9l-.9 3-.7 2.3h-2.6v-.2zm17.3-6.3l-3 10.1h-3.7V65.4h3.7v10.3h.1l3-10.3h3.8v19.4h-3.8l-.1-10.2zm11.1-9.2c.8 0 1.6.1 2.2.3.7.2 1.2.5 1.7 1s.8 1.1 1.1 1.8c.3.8.4 1.7.4 2.9 0 2-.4 3.5-1.3 4.6-.8 1.1-2.2 1.7-4.1 1.7h-.9v7.1h-3.8V65.4h4.7zm-.8 3.6v5h.6c.2 0 .5 0 .7-.1.2-.1.4-.2.6-.4.2-.2.3-.5.4-.8.1-.4.2-.8.2-1.4 0-.9-.2-1.5-.5-1.8-.3-.4-.8-.5-1.4-.5h-.6z"/><path class="bfst2" d="M152.5 0c7.2 5.7 18.8 14.2 26.5 20l-.5-.1c-4.4-2.2-9.4-3.5-14.6-3.7l-11.2-8.6-44.2 27.9H56.8l56.9-21.2v6.1h3.1V5.2h5.4v6.1L152.5 0z"/><path class="bfst2" d="M164.8 91.8c19.9 0 36-16.1 36-35.9 0-19.8-16.1-35.9-36-35.9-12.6 0-23.8 6.5-30.2 16.3 6.1-8.6 16.1-14.2 27.3-14.2 18.5 0 33.5 15.1 33.5 33.8s-15 33.8-33.5 33.8c-11.3 0-21.3-5.6-27.3-14.2 6.5 9.8 17.6 16.3 30.2 16.3z"/><path class="bfst0" d="M156.5 63.5c.9-5.9 2.4-11.4 4.5-16.5-.9 1.8-1.6 3.6-2.3 5.5-2.1-.7-4-1.5-5.6-2.5 2-3.9 4.3-7.5 7-11-2.8 3.4-5.3 6.9-7.3 10.7-1.5-1-2.9-2.1-3.9-3.4 2.3-2.9 4.7-5.7 7.1-8.5-2.8 2.7-5.2 5.5-7.1 8.5-.9-1-1.5-2.2-2-3.4 3.4-4.1.2-.6-.1-.3v-.1.1c-.7.9-1.3 1.8-1.9 2.8.7-.8 1.3-1.7 2-2.5.9 3.1 3 5.3 5.9 7-1.7 3.2-3 6.6-3.9 10.3-.8-.6-1.4-1.3-2.1-2.1.6.9 1.2 1.7 2 2.4-.2 1.1-.5 2.2-.6 3.3.3-1.1.5-2.1.8-3.1 1.9 1.6 4.3 2.5 7 2.9-.1.4-.1.7-.2 1.1l.7-.2c0-.3.1-.6.1-.9.6.1 1.1.2 1.4.2l.4-.2c-.7.1-1.3 0-1.9-.1zm-1.3 15.4c.1 1 .1 1.9.2 2.9-.4-.3-.9-.6-1.3-1 .4.5.8.9 1.3 1.2.1 1.2.3 2.4.5 3.6-.1-1.2-.2-2.3-.2-3.5 2.6 2 5.8 2.6 9.6 2.3.1.7.2 1.5.2 2.2 0-.7-.1-1.5-.1-2.2 1.4-.1 2.9-.3 4.5-.7-1.6.3-3.1.4-4.5.5 0-.7-.1-1.5-.1-2.2h-.2c.1.8.1 1.5.2 2.3-3.7.1-6.9-.6-9.6-2.4 0-.9-.1-1.8-.1-2.6l-.4-.4zm.7-15.5c-2.7-.5-5.1-1.5-7-2.9 1.1-3.6 2.4-7 4-10.2 1.7.9 3.6 1.7 5.7 2.3-1.2 3.4-2.1 7-2.7 10.8z"/></symbol><symbol viewBox="0 0 416.1 512" id="serv-features-1" xmlns="http://www.w3.org/2000/svg"><path d="M401.1 355.5c-10.7-17.9-25.8-30.4-43.5-36.1l-50.1-16c-1.6-.5-3.3-.5-4.9 0l-7.9-11.9c-2.4-3.6-7.1-4.6-10.8-2.4l-3.9 2.3v-11.5c0-1.2-.3-2.4-.8-3.4 24.9-22 40.9-55.4 40.9-92.6V156c11-30.4 14.9-59.7 11.2-84.9-4.2-28.3-17.8-49.2-39.4-60.4h-.1s-.1 0-.1-.1c-.1 0-.1-.1-.2-.1-.1-.1-.3-.1-.4-.2-.1 0-.2-.1-.3-.1-.1 0-.3-.1-.4-.1-.1 0-.2-.1-.4-.1-.1 0-.3-.1-.4-.1-.1 0-.3 0-.4-.1h-1.9c-.2 0-.3 0-.5.1h-.2c-18.7 3.6-36.3-.4-53.3-4.3-27.1-6.2-55-12.5-84.4 12.2-1.6-.1-3.2-.2-4.8-.2-34.7 0-63 27.4-64 61.4v2.2c.3 37.4 13.6 80 16.2 88v14.7c0 37.2 15.8 70.4 40.7 92.5-.5 1.1-.8 2.3-.8 3.5v11.5l-3.9-2.3c-3.7-2.2-8.4-1.1-10.8 2.4l-7.9 11.9c-1.5-.5-3.2-.5-4.9 0l-50.1 16C40.8 325 25.8 337.5 15 355.5c-9.7 16.2-15 35.8-15 55.1V480c0 17.6 14.4 32 32 32h352c17.6 0 32-14.4 32-32v-69.5c.1-19.2-5.2-38.8-14.9-55zM327.4 386c.2 1.4-.4 2.8-1.6 3.6l-26.5 19.9c-1.9 1.4-3 3.5-3.2 5.8-.2 2.3.7 4.6 2.3 6.2l16.7 16.7c1.4 1.4 1.5 3.6.4 5.2L276.1 496h-32.3l67.8-173.1c.2-.4.3-.9.4-1.3l8.6 2.8 6.8 61.6zM189.5 496l-5.6-14.4 14.7-73.7h18.8l14.7 73.7-5.6 14.4h-37zm-49.5 0l-39.4-52.5c-1.2-1.6-1-3.8.4-5.2l16.7-16.7c1.6-1.6 2.5-3.9 2.3-6.2-.2-2.3-1.3-4.4-3.2-5.8l-26.5-19.9c-1.1-.8-1.7-2.2-1.6-3.6l6.9-61.7 8.6-2.8c.1.4.2.9.4 1.3L172.3 496H140zm60.1-136.1h16c4.4 0 8 3.6 8 8v16c0 4.4-3.6 8-8 8h-16c-4.4 0-8-3.6-8-8v-16c0-4.5 3.5-8 8-8zM243 454l-10.5-52.7.9-.9.2.3c3.3 4.9 8.5 8 14.3 8.6.6.1 1.3.1 1.9.1 4.5 0 8.9-1.6 12.3-4.4L243 454zm-60.5-53.2l.2-.3.9.9-10.5 52.6-19.2-49c3.5 2.9 7.8 4.4 12.3 4.4.6 0 1.3 0 1.9-.1 5.9-.5 11.1-3.7 14.4-8.5zm103.2-94.1l9.5 14.2-18.8 48c-.7.4-1.3.8-1.9 1.4l-22.1 22.1c-1 1-2.2 1.1-2.8 1-.6-.1-1.8-.3-2.6-1.5l-6.9-10.3v-13.7c0-11.1-7.5-20.4-17.7-23.2l63.3-38zM96 80.7c.1-26 21.6-47.1 48-47.1 6.4 0 12.7 1.2 18.5 3.6 4.1 1.7 8.8-.3 10.4-4.3 1.6-3.8 0-8.2-3.6-10.1 19.3-10.9 37.8-6.7 60.3-1.7 17 3.9 36.1 8.2 57 4.9 19.6 11.4 26.5 31.9 28.8 47.4 2.7 18 .8 39.2-5.3 61.3l-15-26.7a7.87 7.87 0 0 0-8.1-4c-.9.1-89.4 12-155.9-15.5-4.1-1.7-8.8.3-10.4 4.3-1.7 4.1.3 8.8 4.3 10.4 61.5 25.4 137.8 19.5 158.8 17.2l20.4 36.3v3.1h-72.1c-4.7 0-9.2 2.1-12.2 5.7-.6.7-1.2 1.5-1.6 2.3H198c-.5-.8-1-1.6-1.6-2.3-3-3.6-7.5-5.7-12.2-5.7h-69.7c5.2-20.2 18.2-34.4 18.3-34.5 3-3.2 2.9-8.3-.3-11.3-3.2-3-8.3-2.9-11.3.3-.6.6-9.5 10.2-16.4 25.3-4.3-16.6-8.7-38.9-8.8-58.9zm183.8 95.2l-6.8 15.4s0 .1-.1.1c-2.4 5.6-6.7 8.5-13 8.5h-15.8c-3.9 0-7.3-2.8-7.9-6.7 0-.2-.1-.4-.1-.6l-4.1-16.7h47.8zm-95.8 0l-4.1 16.7c0 .2-.1.4-.1.6-.6 3.9-4 6.7-7.9 6.7h-15.8c-6.3 0-10.6-2.9-13-8.5 0 0 0-.1-.1-.1l-6.8-15.4H184zm-71.8 8v-8h7.9c0 .9 0 1.8.2 2.6.1.7.3 1.3.6 1.9l7.6 17.3c4.9 11.6 15 18.2 27.7 18.2H172c11.7 0 21.6-8.3 23.6-19.7l3-12.3h19l3 12.3c2.1 11.5 11.9 19.7 23.6 19.7H260c12.7 0 22.8-6.6 27.7-18.2l7.6-17.3c.3-.6.5-1.3.6-1.9.1-.9.2-1.8.2-2.6h8.1v8c0 57.4-43.1 104-96 104s-96-46.6-96-104zM152 287.7c16.5 10.3 35.7 16.2 56.1 16.2 20.3 0 39.4-5.8 55.9-16.1V301l-56 33.6-56-33.6v-13.3zm-21.5 19l63.3 38c-10.2 2.8-17.7 12.1-17.7 23.2v13.7l-6.9 10.3c-.8 1.2-1.9 1.5-2.6 1.5-.6.1-1.8 0-2.8-1l-22.1-22.1c-.6-.6-1.2-1.1-1.9-1.4l-18.8-48 9.5-14.2zM16 480v-69.5c0-39.9 23.9-68.4 47.4-75.9l15.5-5-6.1 54.6c-.8 7 2.2 14 7.9 18.2l19.2 14.4L89.7 427c-7 7-7.8 18.2-1.9 26.1L120 496H32c-8.8 0-16-7.2-16-16zm384.1 0c0 8.8-7.2 16-16 16h-88l32.2-42.9c5.9-7.9 5.1-19.1-1.9-26.1l-10.1-10.1 19.2-14.4c5.6-4.2 8.6-11.2 7.9-18.2l-6.1-54.6 15.5 5c23.6 7.5 47.4 36 47.4 75.9V480z"/></symbol><symbol id="serv-features-2" viewBox="0 0 480 480" xml:space="preserve" xmlns="http://www.w3.org/2000/svg"><style>.bhst0{fill:#231f20}</style><path class="bhst0" d="M344 416H216c-4.4 0-8 3.6-8 8v48c0 4.4 3.6 8 8 8s8-3.6 8-8v-40h112v40c0 4.4 3.6 8 8 8s8-3.6 8-8v-48c0-4.4-3.6-8-8-8zm-16-232c0 4.4-3.6 8-8 8s-8-3.6-8-8 3.6-8 8-8 8 3.6 8 8zm-80 0c0 4.4-3.6 8-8 8s-8-3.6-8-8 3.6-8 8-8 8 3.6 8 8zm187 109.3c-4.1-1.7-8.8.3-10.4 4.4-1.7 4.1.3 8.8 4.4 10.4 21.2 8.5 35 29.1 35 51.9v112c0 4.4 3.6 8 8 8s8-3.6 8-8V360c0-29.3-17.8-55.7-45-66.7z"/><path class="bhst0" d="M392 112h-8c-3.4-45.2-35.8-82.9-80-93v-3c0-8.8-7.2-16-16-16h-16c-8.8 0-16 7.2-16 16v3c-44.2 10.2-76.6 47.9-80 93h-8c-11.6.1-21.5 8.5-23.5 19.9-2 11.4 4.6 22.7 15.5 26.6v9.4c0 13.3 10.7 24 24 24h8v8c0 29.7 15.1 57.5 40 73.7V288h-17.4c-3.4-9.6-12.4-16-22.6-16h-8c-4.4 0-8 3.6-8 8s3.6 8 8 8h8c4.4 0 8 3.6 8 8v72c0 8.8-7.2 16-16 16s-16-7.2-16-16v-72c0-4.4-3.6-8-8-8h-8c-10.6 0-21.1 2.4-30.6 7-3.3 1.6-5.1 5.3-4.3 9 .8 3.6 4 6.2 7.8 6.2 1.2 0 2.4-.2 3.4-.7 7.4-3.6 15.5-5.4 23.8-5.4v168c0 4.4 3.6 8 8 8s8-3.6 8-8v-76.5c4.8 2.9 10.4 4.5 16 4.5 17.7 0 32-14.3 32-32h128c0 17.7 14.3 32 32 32 5.6 0 11.2-1.6 16-4.5V472c0 4.4 3.6 8 8 8s8-3.6 8-8V296c0-13.3-10.7-24-24-24h-16c-10.1 0-19.2 6.4-22.6 16H328v-14.3c24.9-16.2 40-43.9 40-73.7v-8h8c13.3 0 24-10.7 24-24v-9.4c10.9-4 17.4-15.2 15.5-26.6-2-11.5-11.9-19.9-23.5-20zm-208 64c-4.4 0-8-3.6-8-8v-8h16v16h-8zm184 112h16c4.4 0 8 3.6 8 8v72c0 8.8-7.2 16-16 16s-16-7.2-16-16v-72c0-4.4 3.6-8 8-8zm-24 64H216v-48h16.7c4 23 24 39.7 47.3 39.7s43.3-16.8 47.3-39.7H344v48zm-32-56c0 17.7-14.3 32-32 32s-32-14.3-32-32v-14.1c20.6 8.1 43.4 8.1 64 0V296zm40-96c0 39.8-32.2 72-72 72s-72-32.2-72-72v-40h144v40zm24-24h-8v-16h16v8c0 4.4-3.6 8-8 8zm16-32H168c-4.4 0-8-3.6-8-8s3.6-8 8-8h136c4.4 0 8-3.6 8-8s-3.6-8-8-8H192c3.4-36.3 28.9-66.8 64-76.6V64c0 8.8 7.2 16 16 16h16c4.4 0 8-3.6 8-8s-3.6-8-8-8h-16V16h16v32c0 4.4 3.6 8 8 8s8-3.6 8-8V35.4c35.1 9.8 60.6 40.2 64 76.6h-32c-4.4 0-8 3.6-8 8s3.6 8 8 8h56c4.4 0 8 3.6 8 8s-3.6 8-8 8z"/><path class="bhst0" d="M128 374.9l-4.6-32c-.2-1.6-.9-3.1-2-4.2l-24.6-27.5 16-27c1.9-3 1.5-6.9-.8-9.5l-24-27.5 16-27c1.8-3 1.5-6.9-.9-9.5l-28.6-32c-3-3.3-8-3.6-11.3-.6-3.3 3-3.6 8-.6 11.3l24.6 27.5-16 27c-1.9 3-1.5 6.9.8 9.5l24.6 27.5-16.6 27c-1.8 3-1.5 6.9.9 9.5l27 30.2 3 20.5H16V160h56c4.4 0 8-3.6 8-8s-3.6-8-8-8H8c-4.4 0-8 3.6-8 8v248c0 4.4 3.6 8 8 8s8-3.6 8-8v-16h96v72c0 4.4-3.6 8-8 8H24c-4.4 0-8-3.6-8-8v-24c0-4.4-3.6-8-8-8s-8 3.6-8 8v24c0 13.3 10.7 24 24 24h80c13.3 0 24-10.7 24-24v-81.1z"/><path class="bhst0" d="M88 416c4.4 0 8-3.6 8-8s-3.6-8-8-8H40c-4.4 0-8 3.6-8 8v32c0 4.4 3.6 8 8 8h48c4.4 0 8-3.6 8-8s-3.6-8-8-8H48v-16h40zM32 56h16v56c0 4.4 3.6 8 8 8h64c4.4 0 8-3.6 8-8V80c0-4.4-3.6-8-8-8s-8 3.6-8 8v24H96V88c0-4.4-3.6-8-8-8s-8 3.6-8 8v16H64V56h80c3.5 0 6.5-2.3 7.6-5.6s-.1-6.9-2.9-8.9l-56-40c-2.8-2-6.5-2-9.3 0l-56 40c-2.8 2-4 5.6-2.9 8.9s4 5.6 7.5 5.6zm56-38.2L119 40H57l31-22.2z"/></symbol><symbol viewBox="0 0 480 480" id="serv-features-3" xmlns="http://www.w3.org/2000/svg"><path d="M479.1 113.8c-1.7-6.1-5.7-11.4-11.2-14.6-5.5-3.2-12.1-4.1-18.2-2.4-6.1 1.7-11.4 5.7-14.6 11.2l-4 7c-3.8-2.2-8.7-.9-10.9 2.9l-20.3 34.6-7-4c-1.8-1.1-4-1.4-6.1-.8-2.1.6-3.8 1.9-4.9 3.8-2.2 3.8-.8 8.7 3 10.9l7 4-68 117.8-16.8 44.9-8 15c-4.7 8.1-4.2 18.3 1.3 25.9l-18 22.1-5-12.6c-2.3-5.6-7.5-9.5-13.6-10s-11.9 2.5-15 7.7L246 382l-2.7-32c-.6-7.6-6.5-13.7-14-14.6-7.5-.9-14.7 3.6-17.1 10.8l-19.7 59c-1.4 4.2.9 8.7 5 10.1.8.4 1.6.6 2.5.6 3.4 0 6.5-2.2 7.6-5.4l19.6-59L230 384c.6 6.9 5.6 12.7 12.3 14.3 6.8 1.6 13.8-1.4 17.3-7.4l3-4.9 5 12.6c2.1 5.3 6.9 9.1 12.5 9.9 5.6.8 11.3-1.4 14.9-5.8l18.6-23.6c2.1.5 4.2.8 6.3.8 8.6.1 16.5-4.4 20.9-11.8l8-13.4 30.5-37L448 198.4l7 4c1.9 1.1 3.2 2.8 3.8 4.9.6 2.1.3 4.2-.8 6.1l-32 55.4c-1.2 1.8-1.6 4.1-1.1 6.2.5 2.1 1.8 4 3.7 5.1 1.8 1.1 4 1.4 6.1.8 2.1-.6 3.8-1.9 4.9-3.8l32-55.4c3.2-5.5 4.1-12.1 2.4-18.2-1.7-6.1-5.7-11.4-11.2-14.6l-7-4 20-34.6c2.2-3.8.9-8.7-2.9-10.9l4-7c3.1-5.6 4-12.3 2.2-18.6zm-30.1 2.3c1.1-1.9 2.8-3.2 4.9-3.8 2.1-.5 4.2-.2 6.1.8 1.9 1.1 3.2 2.8 3.8 4.9.5 2.1.2 4.2-.8 6.1l-4 7-13.9-8 3.9-7zM339.9 339.4l-4-2.3-11.8-6.9 11.4-30.4 25.2 14.6-20.8 25zm-24 23.1c-3.4-2.4-4.4-6.9-2.4-10.5l4-7 13.9 8-4 6.9c-1.1 1.9-3 3.3-5.2 3.8-2.1.5-4.4.1-6.3-1.2zm53.9-61.3l-27.7-16 64-110.9 27.7 16-64 110.9zm72-124.7l-27.7-16 16-27.7 27.7 16-16 27.7zm-315.6 182l-28.3 28.2-17-17c-3.1-3.1-8.2-3.1-11.3 0-1.5 1.5-2.4 3.5-2.4 5.7s.9 4.2 2.4 5.7l17 17c3 3 7.1 4.6 11.3 4.6 4.2 0 8.3-1.6 11.4-4.6l28.2-28.3c2.7-3.2 2.5-7.9-.4-10.9-3-2.9-7.7-3.1-10.9-.4z"/><path d="M32 380c0 37.6 30.4 68 68 68s68-30.4 68-68c0-4.4-3.6-8-8-8s-8 3.6-8 8c0 28.7-23.3 52-52 52s-52-23.3-52-52 23.3-52 52-52c11.3 0 22.2 3.6 31.2 10.4 3.5 2.7 8.5 1.9 11.2-1.6 2.7-3.5 1.9-8.5-1.6-11.2-20.6-15.5-48.2-17.9-71.2-6.4C46.5 330.7 32 354.3 32 380zM288 64.1c4.4 0 8-3.6 8-8s-3.6-8-8-8H80c-4.4 0-8 3.6-8 8v32c0 4.4 3.6 8 8 8h208c4.4 0 8-3.6 8-8s-3.6-8-8-8H88v-16h200zm-184 48c-4.4 0-8 3.6-8 8s3.6 8 8 8h160c4.4 0 8-3.6 8-8s-3.6-8-8-8H104zm207.9 56H136c-4.4 0-8 3.6-8 8s3.6 8 8 8h176c4.4 0 8-3.6 8-8-.1-4.5-3.6-8-8.1-8zM232 224c0-4.4-3.6-8-8-8H64c-4.4 0-8 3.6-8 8s3.6 8 8 8h160c4.4 0 8-3.5 8-8zm79.9-8h-56c-4.4 0-8 3.6-8 8s3.6 8 8 8h56c4.4 0 8-3.6 8-8s-3.5-8-8-8zM144 272c4.4 0 8-3.6 8-8s-3.6-8-8-8H64c-4.4 0-8 3.6-8 8s3.6 8 8 8h80zm32 0h56c4.4 0 8-3.6 8-8s-3.6-8-8-8h-56c-4.4 0-8 3.6-8 8 0 4.5 3.6 8 8 8z"/><path d="M359.9 368c-4.4 0-8 3.6-8 8v80c0 4.4-3.6 8-8 8H24c-4.4 0-8-3.6-8-8V24.1c0-4.4 3.6-8 8-8h319.9c4.4 0 8 3.6 8 8v150.2c0 4.4 3.6 8 8 8s8-3.6 8-8V24.1c0-13.3-10.7-24-24-24H24C10.7.1 0 10.8 0 24.1V456c0 13.3 10.7 24 24 24h319.9c13.3 0 24-10.7 24-24v-80c0-4.4-3.5-8-8-8z"/></symbol></svg>