<?xml version="1.0" encoding="utf-8"?><svg xmlns="http://www.w3.org/2000/svg" xmlns:xlink="http://www.w3.org/1999/xlink"><symbol viewBox="0 0 300 300" id="form-phone" xmlns="http://www.w3.org/2000/svg"><circle cx="150" cy="226.1" r="11.7"/><path d="M182.7 68.2h-65.4c-3.7 0-6.6 2.8-6.6 6.3v123.6c0 3.5 3 6.3 6.6 6.3h65.4c3.7 0 6.6-2.8 6.6-6.3V74.6c0-3.5-2.9-6.4-6.6-6.4z"/><path d="M150 0C67.2 0 0 67.2 0 150s67.2 150 150 150 150-67.2 150-150S232.8 0 150 0zm58.4 224c0 11.5-9.3 20.7-20.7 20.7h-75.2c-11.5 0-20.7-9.3-20.7-20.7V75.3c0-11.5 9.3-20.7 20.7-20.7h75.2c11.5 0 20.7 9.3 20.7 20.7V224z"/></symbol><symbol viewBox="0 0 300 300" id="form-user" xmlns="http://www.w3.org/2000/svg"><path d="M150 0C67.2 0 0 67.2 0 150s67.2 150 150 150 150-67.2 150-150S232.8 0 150 0zm.5 220.8h-65c0-46.9 41.2-46.8 50.3-59.1l1-5.6c-12.8-6.5-21.9-22.2-21.9-40.5 0-24.2 15.7-43.7 35.1-43.7s35.1 19.6 35.1 43.7c0 18.2-8.9 33.8-21.6 40.4l1.2 6.3c10 11.7 49.8 12.4 49.8 58.5h-64z"/></symbol><symbol viewBox="0 0 512 512" id="icon-adv-1" xmlns="http://www.w3.org/2000/svg"><path d="M473.5 138.9v-.4c-.2-4.9-.4-10.1-.5-15.9-.4-28.2-22.9-51.6-51.1-53.2C363.1 66.2 317.5 47 278.6 9l-.3-.3c-12.7-11.6-31.8-11.6-44.5 0l-.4.3C194.5 47 149 66.2 90.1 69.5 61.9 71 39.4 94.4 39 122.6c-.1 5.8-.2 11-.5 15.9v.9c-1.1 60-2.6 134.7 22.4 202.5 13.7 37.3 34.6 69.7 61.9 96.3 31.1 30.3 71.8 54.4 121 71.6 1.6.6 3.3 1 5 1.4 2.4.5 4.8.7 7.2.7 2.4 0 4.8-.2 7.2-.7 1.7-.3 3.4-.8 5-1.4 49.2-17.2 89.9-41.3 120.9-71.6 27.3-26.7 48.1-59.1 61.9-96.4 25-67.9 23.6-142.7 22.5-202.9zm-50.7 192.6c-26.4 71.5-80.2 120.6-164.5 150-.3.1-.6.2-1 .3-.9.2-1.8.2-2.6 0l-.9-.3c-84.4-29.4-138.3-78.5-164.6-150-23-62.5-21.7-131.1-20.6-191.6v-.3c.2-5.2.4-10.6.5-16.6.2-12.5 10.2-22.9 22.7-23.6 33.3-1.9 62.6-8.3 89.5-19.7 26.9-11.4 50.7-27.4 72.9-49 1.1-1 2.6-1 3.7 0 22.2 21.6 46.1 37.6 72.9 49 26.9 11.4 56.2 17.8 89.5 19.7 12.6.7 22.5 11.1 22.7 23.6.1 6 .2 11.5.5 16.6 1.1 60.7 2.4 129.3-20.7 191.9z"/><path d="M256 128.4c-70.4 0-127.6 57.2-127.6 127.6 0 70.4 57.2 127.6 127.6 127.6 70.4 0 127.6-57.2 127.6-127.6 0-70.3-57.2-127.6-127.6-127.6zm0 225.2c-53.8 0-97.6-43.8-97.6-97.6s43.8-97.6 97.6-97.6 97.6 43.8 97.6 97.6-43.8 97.6-97.6 97.6z"/><path d="M292.7 216.4l-59.3 59.3-16.1-16.1c-5.9-5.9-15.4-5.9-21.2 0-5.9 5.9-5.9 15.4 0 21.2l26.7 26.7c2.9 2.9 6.8 4.4 10.6 4.4s7.7-1.5 10.6-4.4l69.9-69.9c5.9-5.9 5.9-15.4 0-21.2-5.9-5.9-15.4-5.9-21.2 0z"/></symbol><symbol viewBox="0 0 512 512" id="icon-adv-2" xmlns="http://www.w3.org/2000/svg"><path d="M240.9 332V134.2c0-8.3-6.7-15-15-15s-15 6.7-15 15V332c-26.4 6.7-45.9 30.6-45.9 59.1 0 33.6 27.3 60.9 60.9 60.9s60.9-27.3 60.9-60.9c.1-28.5-19.5-52.4-45.9-59.1zm-15 90c-17.1 0-30.9-13.9-30.9-30.9 0-17.1 13.9-30.9 30.9-30.9 17.1 0 30.9 13.9 30.9 30.9.1 17-13.8 30.9-30.9 30.9z"/><path d="M300.4 295.7V74.5C300.4 33.4 267 0 225.9 0c-41 0-74.4 33.4-74.4 74.5v221.3C122.2 318.6 105 353.6 105 391c0 66.7 54.3 121 120.9 121 66.7 0 120.9-54.3 120.9-121 .1-37.4-17.2-72.4-46.4-95.3zM225.9 482c-50.1 0-90.9-40.8-90.9-91 0-30.2 14.9-58.3 39.9-75.3 4.1-2.8 6.6-7.4 6.6-12.4V74.5c0-24.5 19.9-44.5 44.4-44.5s44.4 19.9 44.4 44.5v228.9c0 5 2.5 9.6 6.6 12.4 25 17 39.9 45.1 39.9 75.3.1 50.1-40.7 90.9-90.9 90.9zm166-242.5h-46.5c-8.3 0-15 6.7-15 15s6.7 15 15 15h46.5c8.3 0 15-6.7 15-15s-6.8-15-15-15zm0-60h-46.5c-8.3 0-15 6.7-15 15s6.7 15 15 15h46.5c8.3 0 15-6.7 15-15s-6.8-15-15-15zm0-60h-46.5c-8.3 0-15 6.7-15 15s6.7 15 15 15h46.5c8.3 0 15-6.7 15-15s-6.8-15-15-15zm-46.5-30h46.5c8.3 0 15-6.7 15-15s-6.7-15-15-15h-46.5c-8.3 0-15 6.7-15 15 0 8.2 6.7 15 15 15z"/></symbol><symbol viewBox="0 0 512 512" id="icon-adv-3" xmlns="http://www.w3.org/2000/svg"><path d="M509.1 80.1c-3.9-3.9-10.2-3.9-14.1 0-3.9 3.9-3.9 10.2 0 14.1 3.9 3.9 10.2 3.9 14.1 0 3.9-3.9 3.9-10.2 0-14.1zm-28.3-56.6c-3.9-3.9-10.2-3.9-14.1 0-3.9 3.9-3.9 10.2 0 14.1 3.9 3.9 10.2 3.9 14.1 0 3.9-3.9 3.9-10.2 0-14.1zM410.1 9.3c-3.9-3.9-10.2-3.9-14.1 0-3.9 3.9-3.9 10.2 0 14.1 3.9 3.9 10.2 3.9 14.1 0 3.9-3.8 3.9-10.1 0-14.1zM60 445.6c-3.9-3.9-10.2-3.9-14.1 0-3.9 3.9-3.9 10.2 0 14.1 3.9 3.9 10.2 3.9 14.2 0 3.8-3.9 3.8-10.2-.1-14.1zm81.3-82.8c-4-3.9-10.3-3.8-14.1.2L74 417.4c-3.9 4-3.8 10.3.2 14.1 1.9 1.9 4.5 2.8 7 2.8 2.6 0 5.2-1 7.2-3l53.1-54.4c3.8-3.9 3.7-10.2-.2-14.1z"/><path d="M466.6 235.6l-35.3-35.3-.2-.2-42.3-42.3c0-.1-.1-.1-.1-.1l-42.3-42.3-.1-.1L304 73l-.1-.1-35.3-35.3c-1.9-1.9-4.4-2.9-7.1-2.9s-5.2 1.1-7.1 2.9l-113 113.2-14.2 14.1c-19.5 19.5-19.5 51.2 0 70.7l28.3 28.3c1.9 1.9 2.9 4.4 2.9 7.1s-1 5.2-2.9 7.1l-14 14L20.4 400.5c-1 .9-2 1.8-2.9 2.7-23.4 23.4-23.4 61.5 0 84.9 11.3 11.3 26.4 17.5 42.4 17.5s31.1-6.2 42.4-17.5c.9-.9 1.8-1.9 2.8-2.9l107.2-122.4 13.9-13.9c3.9-3.9 10.2-3.9 14.1 0l28.3 28.3c9.4 9.5 22 14.7 35.4 14.7s25.9-5.2 35.3-14.6l14.2-14.1 113.1-113.1c3.9-4.2 3.9-10.6 0-14.5zM90.1 471.9c-.6.7-1.3 1.4-1.9 2-7.5 7.5-17.6 11.7-28.3 11.7s-20.7-4.1-28.3-11.7c-15.6-15.6-15.6-41 0-56.6.6-.6 1.3-1.2 2-1.9L148.1 313l43.3 43.3L90.1 471.9zm235.1-109c-5.7 5.7-13.2 8.8-21.2 8.8s-15.5-3.1-21.2-8.8l-28.3-28.3c-11.7-11.7-30.7-11.7-42.4 0l-7.1 7.1-42.4-42.4 7.1-7.1c5.7-5.7 8.8-13.2 8.8-21.2s-3.1-15.5-8.8-21.2l-28.3-28.3c-11.7-11.7-11.7-30.7 0-42.4l7.1-7.1 183.8 183.8-7.1 7.1zm21.2-21.2L162.6 157.8l99-99L282.8 80l-49.5 49.5c-3.9 3.9-3.9 10.2 0 14.1 2 2 4.5 2.9 7.1 2.9 2.6 0 5.1-1 7.1-2.9L297 94.1l28.3 28.3-49.6 49.6c-3.9 3.9-3.9 10.2 0 14.1 2 2 4.5 2.9 7.1 2.9 2.6 0 5.1-1 7.1-2.9l49.5-49.5 28.3 28.3-49.5 49.5c-3.9 3.9-3.9 10.2 0 14.1 2 2 4.5 2.9 7.1 2.9 2.6 0 5.1-1 7.1-2.9l49.5-49.5 28.3 28.3-49.5 49.5c-3.9 3.9-3.9 10.2 0 14.1 2 2 4.5 2.9 7.1 2.9 2.6 0 5.1-1 7.1-2.9l49.5-49.5 21.2 21.2-99.2 99.1zm35.4-304.1c-3.9-3.9-10.2-3.9-14.1 0l-28.3 28.3c-3.9 3.9-3.9 10.2 0 14.1 2 2 4.5 2.9 7.1 2.9s5.1-1 7.1-2.9l28.3-28.3c3.8-3.8 3.8-10.2-.1-14.1zM325.2 9.3c-3.9-3.9-10.2-3.9-14.1 0L297 23.4c-3.9 3.9-3.9 10.2 0 14.1 2 2 4.5 2.9 7.1 2.9 2.6 0 5.1-1 7.1-2.9l14.1-14.1c3.8-3.8 3.8-10.2-.1-14.1zm127.3 42.5c-3.9-3.9-10.2-3.9-14.1 0l-56.6 56.6c-3.9 3.9-3.9 10.2 0 14.1 2 2 4.5 2.9 7.1 2.9s5.1-1 7.1-2.9l56.6-56.6c3.8-3.9 3.8-10.2-.1-14.1zm28.3 56.5c-3.9-3.9-10.2-3.9-14.1 0l-42.4 42.4c-3.9 3.9-3.9 10.2 0 14.1 2 2 4.5 2.9 7.1 2.9 2.6 0 5.1-1 7.1-2.9l42.4-42.4c3.8-3.8 3.8-10.1-.1-14.1zm14.1 70.8c-3.9-3.9-10.2-3.9-14.1 0l-14.1 14.1c-3.9 3.9-3.9 10.2 0 14.1 2 2 4.5 2.9 7.1 2.9s5.1-1 7.1-2.9l14.1-14.1c3.8-3.9 3.8-10.2-.1-14.1z"/></symbol><symbol viewBox="0 0 512 512" id="icon-adv-4" xmlns="http://www.w3.org/2000/svg"><path d="M467 212h-15v-45c0-24.8-20.2-45-45-45h-15V15c0-8.3-6.7-15-15-15H75c-8.3 0-15 6.7-15 15v107c-33.1 0-60 26.9-60 60v255c0 41.4 33.6 75 75 75h272c19.6 0 36.2-12.5 42.4-30H407c24.8 0 45-20.2 45-45v-15h15c24.8 0 45-20.2 45-45V257c0-24.8-20.2-45-45-45zm-60-60c8.3 0 15 6.7 15 15v105h-30V152h15zM90 30h272v184.6c-4.7-1.7-9.7-2.6-15-2.6h-15V107c0-8.3-6.7-15-15-15s-15-6.7-15-15-6.7-15-15-15H166c-8.3 0-15 6.7-15 15 0 8-7.5 15-16 15-8.3 0-15 6.7-15 15v105H90V30zm60 182v-92.5c6.3-2.2 12.1-5.7 17.1-10.4 5.1-4.9 8.9-10.7 11.3-17.1h96.2c4.5 12.8 14.7 22.9 27.4 27.4V212H150zm-90-60v60c-16.5 0-30-13.5-30-30s13.5-30 30-30zm287 330H75c-24.8 0-45-20.2-45-45V233.9c8.8 5.1 19.1 8.1 30 8.1h287c8.3 0 15 6.7 15 15v15h-15c-41.4 0-75 33.6-75 75s33.6 75 75 75h15v45c0 8.3-6.7 15-15 15zm75-45c0 8.3-6.7 15-15 15h-15v-30h30v15zm60-60c0 8.3-6.7 15-15 15H347c-24.8 0-45-20.2-45-45s20.2-45 45-45h120c5.3 0 10.3-.9 15-2.6V377zm-15-105h-15v-30h15c8.3 0 15 6.7 15 15s-6.7 15-15 15z"/><path d="M362 347c0 8.3-6.7 15-15 15s-15-6.7-15-15 6.7-15 15-15 15 6.7 15 15zM241 167c0 8.3-6.7 15-15 15s-15-6.7-15-15 6.7-15 15-15 15 6.7 15 15z"/></symbol><symbol viewBox="0 0 255.9 255.9" id="icon-adv-5" xmlns="http://www.w3.org/2000/svg"><path d="M246.9 160.1c0-7.6-6.2-13.7-13.7-13.7h-22.8v-38.9c0-2.2-1-4.3-2.8-5.6l-93.7-70.7c-2.5-1.9-5.9-1.9-8.4 0l-93.7 70.7c-1.8 1.3-2.8 3.4-2.8 5.6v119c0 3.9 3.1 7 7 7h109v8.7c0 7.6 6.2 13.7 13.7 13.7h94.4c7.6 0 13.7-6.2 13.7-13.7v-18.3c0-2.5-.7-4.8-1.8-6.7 1.1-2 1.8-4.3 1.8-6.7v-18.3c0-2.5-.7-4.8-1.8-6.7 1.1-2 1.8-4.3 1.8-6.7l.1-18.7zM139 224h93.9v17.8H139V224zM22.9 111l86.7-65.4 86.7 65.4v35.4h-57.6c-7.6 0-13.7 6.2-13.7 13.7v18.3c0 2.5.7 4.8 1.8 6.7-1.1 2-1.8 4.3-1.8 6.7v18.3c0 2.5.7 4.8 1.8 6.7-.4.8-.8 1.6-1.1 2.4H22.9V111zm210 99H139v-17.8h93.9V210zm0-31.8H139v-17.8h93.9v17.8z"/><path d="M20.1 83.3l89.5-67.5 89.5 67.5c1.3 1 2.7 1.4 4.2 1.4 2.1 0 4.2-1 5.6-2.8 2.3-3.1 1.7-7.5-1.4-9.8L113.8 1.4c-2.5-1.9-5.9-1.9-8.4 0L11.7 72.1c-3.1 2.3-3.7 6.7-1.4 9.8 2.4 3.1 6.8 3.7 9.8 1.4z"/></symbol><symbol viewBox="0 0 427 427" id="icon-adv-6" xmlns="http://www.w3.org/2000/svg"><path d="M214.2 427c-1.4 0-2.9-.4-4.1-1.3L5.3 273.8c-1.8-1.3-2.8-3.4-2.8-5.6 0-2.2 1.1-4.3 3-5.5l24.1-16.5c3.1-2.1 7.4-1.3 9.5 1.8 2.1 3.1 1.3 7.4-1.8 9.5l-16.2 11.1 193.1 143.1 193.2-143.2-16-11.4c-3.1-2.2-3.8-6.4-1.6-9.5 2.2-3.1 6.5-3.8 9.5-1.6l23.6 16.9c1.8 1.3 2.8 3.3 2.9 5.5 0 2.2-1 4.2-2.8 5.5L218.2 425.7c-1.2.9-2.6 1.3-4 1.3z"/><path d="M214.2 392.6c-1.4 0-2.9-.4-4.1-1.3L5.3 239.5c-1.8-1.3-2.8-3.4-2.8-5.6 0-2.2 1.1-4.3 3-5.5l22.3-15.3c3.1-2.1 7.4-1.3 9.5 1.8 2.1 3.1 1.3 7.4-1.8 9.5l-14.4 9.9 193.1 143.1 193.2-143.2-13.7-9.8c-3.1-2.2-3.8-6.4-1.6-9.5 2.2-3.1 6.5-3.8 9.5-1.6l21.4 15.3c1.8 1.3 2.8 3.3 2.9 5.5 0 2.2-1 4.2-2.8 5.5L218.2 391.3c-1.2.9-2.6 1.3-4 1.3zm130.4-239.2c-1.4 0-2.8-.4-4-1.3l-68.4-48.9c-3.1-2.2-3.8-6.4-1.6-9.5 2.2-3.1 6.5-3.8 9.5-1.6l68.4 48.9c3.1 2.2 3.8 6.4 1.6 9.5-1.2 1.9-3.3 2.9-5.5 2.9z"/><path d="M144.4 306.6c-1.4 0-2.8-.4-4.1-1.3l-67.2-49.8c-3-2.2-3.7-6.5-1.4-9.5 2.3-3 6.5-3.7 9.5-1.4l67.2 49.8c3 2.2 3.7 6.5 1.4 9.5-1.2 1.7-3.3 2.7-5.4 2.7zm29.4-123.8c-.6 0-1.2-.1-1.8-.2L79.4 157c-2.6-.7-4.5-2.8-4.9-5.4-.4-2.6.7-5.3 2.9-6.8l137.2-94c2.4-1.6 5.5-1.6 7.8.1l57.8 41.3c1.8 1.3 2.8 3.3 2.9 5.4 0 2.2-1 4.2-2.7 5.5L178 181.4c-1.2.9-2.7 1.4-4.2 1.4zm-76.6-35.1l75.2 20.8 92.4-70.7-46.4-33.1-121.2 83z"/><path d="M77.2 256.7c-1.4 0-2.9-.4-4.1-1.3L5.3 205.1c-1.8-1.3-2.8-3.4-2.8-5.6 0-2.2 1.1-4.3 3-5.5l71.9-49.2c3.1-2.1 7.4-1.3 9.5 1.8 2.1 3.1 1.3 7.4-1.8 9.5l-64 43.8 56.1 41.5 92.5-70.8c3-2.3 7.3-1.7 9.6 1.3s1.7 7.3-1.3 9.6l-96.6 73.9c-1.3.9-2.7 1.3-4.2 1.3zm137 101.6c-1.4 0-2.9-.4-4.1-1.3l-69.7-51.7c-1.7-1.3-2.7-3.3-2.8-5.4 0-2.1 1-4.2 2.7-5.5l97.1-74.3c1.9-1.4 4.4-1.8 6.6-.9 2.2.9 3.8 2.8 4.2 5.2l16.6 93.4c.5 2.6-.6 5.1-2.6 6.7l-44 32.6c-1.2.7-2.6 1.2-4 1.2zm-58.4-58.6l58.4 43.3 36.6-27.1-13.9-78.2-81.1 62z"/><path d="M258.2 325.6c-2.1 0-4.2-.9-5.5-2.8-2.2-3-1.6-7.3 1.4-9.5l153.3-113.6-62.6-44.7-99.1 75.9c-3 2.3-7.3 1.7-9.6-1.3s-1.7-7.3 1.3-9.6l103.1-78.9c2.4-1.8 5.7-1.9 8.1-.1l74.3 53.1c1.8 1.3 2.8 3.3 2.9 5.5 0 2.2-1 4.2-2.8 5.5L262.2 324.3c-1.2.9-2.6 1.3-4 1.3zM178.7 50.8c-1.7 0-3.5-.7-4.8-2l-21.6-21.6c-2.7-2.7-2.7-7 0-9.6 2.7-2.7 7-2.7 9.6 0l21.6 21.6c2.7 2.7 2.7 7 0 9.6-1.3 1.4-3 2-4.8 2zm79.5 0c-1.7 0-3.5-.7-4.8-2-2.7-2.7-2.7-7 0-9.6L275 17.6c2.7-2.7 7-2.7 9.6 0 2.7 2.7 2.7 7 0 9.6L263 48.8c-1.3 1.4-3.1 2-4.8 2zm-45.6-9.9c-3.8 0-6.8-3.1-6.8-6.8V6.8c0-3.8 3.1-6.8 6.8-6.8 3.8 0 6.8 3.1 6.8 6.8v27.3c0 3.8-3.1 6.8-6.8 6.8z"/></symbol><symbol viewBox="0 0 31.5 22.1" id="icon-arrow" xmlns="http://www.w3.org/2000/svg"><path d="M21.2.3c-.4-.4-1.1-.4-1.6 0-.4.4-.4 1.1 0 1.6l8 8H1.1c-.6.1-1.1.5-1.1 1.2s.5 1.1 1.1 1.1h26.6l-8 8c-.4.4-.4 1.2 0 1.6.4.4 1.2.4 1.6 0l10-10c.4-.4.4-1.1 0-1.6L21.2.3z" fill="red"/></symbol><symbol viewBox="0 0 477.3 477.3" id="icon-delivery-1" xmlns="http://www.w3.org/2000/svg"><path d="M451.3 150.6c-15.9-17.2-38.5-26.6-63.6-26.6h-65.5V87.2c0-6.6-5.4-12-12-12H12c-6.6 0-12 5.4-12 12V351c0 6.6 5.4 12 12 12h47.8c3.9 22.2 23.2 39.1 46.5 39.1s42.6-16.9 46.5-39.1h183.7c3.9 22.2 23.2 39.1 46.5 39.1s42.6-16.9 46.5-39.1h35.8c6.6 0 12-5.4 12-12V227c-.1-31.6-9-58.1-26-76.4zM24 99.2h274.2v240H150.7c-6.5-18.2-24-31.3-44.4-31.3S68.4 321 61.9 339.1H24V99.2zm82.3 278.9c-12.8 0-23.2-10.4-23.2-23.2 0-12.8 10.4-23.2 23.2-23.2s23.2 10.4 23.2 23.2-10.4 23.2-23.2 23.2zm276.7 0c-12.8 0-23.2-10.4-23.2-23.2 0-12.8 10.4-23.2 23.2-23.2 12.8 0 23.2 10.4 23.2 23.2s-10.4 23.2-23.2 23.2zm70.2-39.1h-25.8c-6.5-18.2-24-31.3-44.4-31.3s-37.9 13.1-44.4 31.3h-16.3V147.9h65.5c40.4 0 65.5 30.3 65.5 79.1v112h-.1z"/></symbol><symbol viewBox="0 0 487.6 487.6" id="icon-delivery-2" xmlns="http://www.w3.org/2000/svg"><path d="M460.3 216.6h-11.6v-69.7c0-28.5-23.2-51.6-51.6-51.6h-10.7l.1-25.9c0-19.2-15.6-34.8-34.8-34.8H42.3C19.2 34.6.3 53.2 0 76.3v342C0 437.5 15.6 453 34.8 453h362.4c28.5 0 51.6-23.2 51.6-51.6v-69.8h11.6c15 0 27.2-12.2 27.2-27.2v-60.7c-.1-14.9-12.3-27.1-27.3-27.1zM42.3 58.5h309.4c5.9 0 10.8 4.8 10.8 10.7l-.1 26H42.3C32.2 95.3 24 87.1 24 76.9s8.2-18.4 18.3-18.4zm382.4 342.9c0 15.2-12.4 27.6-27.6 27.6H34.7c-5.9 0-10.8-4.8-10.8-10.8V115.1c5.6 2.7 11.8 4.2 18.4 4.2h354.8c15.2 0 27.6 12.4 27.6 27.6v69.7h-81.9c-15 0-27.2 12.2-27.2 27.2v60.7c0 15 12.2 27.2 27.2 27.2h81.9v69.7zm38.8-96.9c0 1.8-1.4 3.2-3.2 3.2H342.9c-1.8 0-3.2-1.4-3.2-3.2v-60.7c0-1.7 1.4-3.2 3.2-3.2h117.4c1.7 0 3.2 1.4 3.2 3.2v60.7z"/></symbol><symbol viewBox="0 0 467.2 467.2" id="icon-delivery-3" xmlns="http://www.w3.org/2000/svg"><path d="M455.1 120.9L363.4 4.6C361.1 1.7 357.7 0 354 0H113.2c-3.7 0-7.1 1.7-9.4 4.6L12.1 120.9c-1.7 2.1-2.6 4.7-2.6 7.4v326.9c0 6.6 5.4 12 12 12h424.1c6.6 0 12-5.4 12-12V128.3c.1-2.7-.8-5.3-2.5-7.4zm-32.6-2.6H245.6V24h102.6l74.3 94.3zM119 24h102.6v94.3H44.7L119 24zM33.5 443.2V142.3h400.1v300.9H33.5z"/><path d="M290.5 238.9l-80.4 80.4-33.4-33.4c-4.7-4.7-12.3-4.7-17 0s-4.7 12.3 0 17l41.9 41.9c2.3 2.3 5.4 3.5 8.5 3.5s6.1-1.2 8.5-3.5l88.8-88.8c4.7-4.7 4.7-12.3 0-17-4.6-4.8-12.2-4.8-16.9-.1z"/></symbol></svg>