<svg width="468" height="260" fill="none" xmlns="http://www.w3.org/2000/svg"><path d="M57.541 51.283C38.921 61.152 15.035 85.25 7.077 99.216l-.046.162c-1.737 6.147-6.811 24.1-1.905 42.952 6.188 23.775 27.162 55.305 50.951 88.289 23.79 32.983 65.346 29.328 89.328 17.482s100.348-37.823 151.792-35.121c51.445 2.702 103.475 1.314 136.557-7.718 33.082-9.033 33.559-43.173 30.16-66.513-3.4-23.34-77.993-87.058-104.286-109.788-26.293-22.73-68.162-4.803-104.903-2.804s-67.046-15.02-96.278-17.806C129.215 5.565 80.816 38.946 57.541 51.283z" fill="#F0F5F8"/></svg>