<svg width="202" height="23" fill="none" xmlns="http://www.w3.org/2000/svg"><path d="M186.887.175V8.42h1.754l5.646-8.244h7.069l-7.712 10.753L202 22.099h-7.25l-6.109-8.594h-1.754V22.1h-5.846V.175h5.846zM167.068 4.97v4.004h9.354v4.063h-9.354v4.268h10.173v4.794h-16.019V.175h15.814V4.97h-9.968zm-13.622.292v16.837h-5.847V5.262h-5.611V.175h17.363v5.087h-5.905zm-35.107.029l.585 16.809h-5.847V.174h9.261l4.185 13.768h.205L130.704.175h9.5V22.1h-5.846l.584-16.808h-.204L129.184 22.1h-5.058l-5.612-16.808h-.175zm-18.158 11.897c1.12 0 1.959-.078 2.519-.233a1.86 1.86 0 001.223-.994c.258-.507.384-1.301.384-2.368v-4.94c0-.824-.073-1.466-.219-1.935-.141-.472-.375-.822-.687-1.057-.316-.234-.721-.39-1.218-.463-.496-.072-1.164-.112-2.002-.112-1.106 0-1.934.078-2.485.23a1.85 1.85 0 00-1.203.979c-.258.497-.4 1.286-.428 2.357v4.941c.028 1.076.17 1.871.423 2.377a1.85 1.85 0 001.208.985c.55.155 1.38.233 2.485.233zm0 5.086c-1.622 0-3.03-.111-4.229-.336-1.198-.224-2.24-.623-3.128-1.203-.881-.575-1.568-1.398-2.056-2.46-.482-1.063-.725-2.412-.725-4.039V8.04c0-1.628.243-2.977.73-4.049.487-1.067 1.175-1.885 2.056-2.46.883-.575 1.925-.97 3.123-1.193C97.151.112 98.56 0 100.181 0c1.627 0 3.04.112 4.244.337 1.203.224 2.241.618 3.127 1.193.883.575 1.564 1.393 2.052 2.46.482 1.072.725 2.421.725 4.049v6.197c0 1.627-.243 2.976-.725 4.038-.483 1.063-1.165 1.886-2.052 2.461-.881.58-1.924.98-3.127 1.203-1.204.225-2.617.336-4.244.336zM75.836 11.4h4.005c.794 0 1.364-.073 1.715-.214.35-.141.59-.429.72-.863.132-.428.196-1.134.196-2.113 0-.79-.064-1.39-.195-1.804-.127-.408-.375-.706-.746-.881-.375-.176-.935-.263-1.69-.263h-4.005V11.4zm0 10.7H69.99V.174h11.02c1.38 0 2.538.151 3.488.458.951.303 1.716.77 2.3 1.404.585.633 1.013 1.461 1.286 2.48.273 1.023.41 2.25.41 3.693 0 1.607-.108 2.932-.327 3.97-.22 1.043-.6 1.876-1.135 2.5-.536.628-1.286 1.086-2.256 1.373-.974.288-2.226.433-3.766.433h-5.174V22.1zM66.448.174V22.1h-5.846V5.262h-7.63v16.837h-5.846V.175h19.322zm-23.04 0V22.1h-5.846v-8.594h-7.63V22.1h-5.845V.175h5.846V8.42h7.63V.175h5.846zM0 .175h5.554v14.436h.205L12.599.175h7.688V22.1h-5.554V7.663h-.2L7.95 22.1H0V.175z" fill="#fff"/></svg>