<?xml version="1.0" encoding="utf-8"?>
<!-- Generator: Adobe Illustrator 22.0.1, SVG Export Plug-In . SVG Version: 6.00 Build 0)  -->
<svg version="1.1" id="Layer_1" xmlns="http://www.w3.org/2000/svg" xmlns:xlink="http://www.w3.org/1999/xlink" x="0px" y="0px"
	 viewBox="0 0 131.3 102.1" style="enable-background:new 0 0 131.3 102.1;" xml:space="preserve">
<style type="text/css">
	.st0{fill:#EF6B38;}
	.st1{fill:#E23937;}
	.st2{fill:#F99F1C;}
</style>
<path d="M116.2,96.2c0-2,1.3-3.7,3.4-3.7c2,0,3.3,1.6,3.3,3.7c0,2.1-1.3,3.7-3.3,3.7C117.5,99.8,116.2,98.2,116.2,96.2L116.2,96.2z
	 M125,96.2v-9.7h-2.2v5.6c-0.7-1-2-1.6-3.5-1.6c-3,0-5.3,2.4-5.3,5.7c0,3.3,2.3,5.7,5.3,5.7c1.5,0,2.8-0.6,3.5-1.6v1.3h2.2V96.2
	L125,96.2z M94.5,96.2c0-2,1.3-3.7,3.4-3.7c2,0,3.3,1.6,3.3,3.7c0,2.1-1.3,3.7-3.3,3.7C95.7,99.8,94.5,98.2,94.5,96.2L94.5,96.2z
	 M103.2,96.2v-5.4H101v1.3c-0.7-1-2-1.6-3.5-1.6c-3,0-5.3,2.4-5.3,5.7c0,3.3,2.3,5.7,5.3,5.7c1.5,0,2.7-0.6,3.5-1.6v1.3h2.2V96.2
	L103.2,96.2z M128.7,100.8v0.3h0.2c0.1,0,0.1,0,0.1,0c0,0,0.1-0.1,0.1-0.1c0,0,0-0.1-0.1-0.1c0,0-0.1,0-0.1,0H128.7L128.7,100.8z
	 M129,100.6c0.1,0,0.2,0,0.3,0.1c0.1,0.1,0.1,0.1,0.1,0.2c0,0.1,0,0.1-0.1,0.2c-0.1,0.1-0.1,0.1-0.2,0.1l0.3,0.4h-0.3l-0.3-0.4h-0.1
	v0.4h-0.2v-1H129L129,100.6z M128.9,101.9c0.1,0,0.2,0,0.3-0.1c0.1,0,0.2-0.1,0.3-0.2c0.1-0.1,0.1-0.2,0.2-0.3
	c0-0.1,0.1-0.2,0.1-0.3c0-0.1,0-0.2-0.1-0.3c0-0.1-0.1-0.2-0.2-0.3c-0.1-0.1-0.2-0.1-0.3-0.2c-0.1,0-0.2-0.1-0.3-0.1
	c-0.1,0-0.2,0-0.3,0.1c-0.1,0-0.2,0.1-0.3,0.2c-0.1,0.1-0.1,0.2-0.2,0.3c0,0.1-0.1,0.2-0.1,0.3c0,0.1,0,0.2,0.1,0.3
	c0,0.1,0.1,0.2,0.2,0.3c0.1,0.1,0.2,0.1,0.3,0.2C128.7,101.9,128.8,101.9,128.9,101.9L128.9,101.9z M128.9,100c0.1,0,0.3,0,0.4,0.1
	c0.1,0.1,0.2,0.1,0.3,0.2c0.1,0.1,0.2,0.2,0.2,0.3c0.1,0.1,0.1,0.3,0.1,0.4c0,0.1,0,0.3-0.1,0.4c-0.1,0.1-0.1,0.2-0.2,0.3
	c-0.1,0.1-0.2,0.2-0.3,0.2c-0.1,0.1-0.3,0.1-0.4,0.1c-0.2,0-0.3,0-0.4-0.1c-0.1-0.1-0.3-0.1-0.4-0.2c-0.1-0.1-0.2-0.2-0.2-0.3
	c-0.1-0.1-0.1-0.3-0.1-0.4c0-0.1,0-0.3,0.1-0.4c0.1-0.1,0.1-0.2,0.2-0.3c0.1-0.1,0.2-0.2,0.4-0.2C128.6,100,128.7,100,128.9,100
	L128.9,100z M111.5,90.5c-1.4,0-2.3,0.6-2.9,1.6v-1.3h-2.1v10.8h2.2v-6.1c0-1.8,0.9-2.9,2.4-2.9c0.5,0,1,0.1,1.5,0.3l0.7-2
	C112.7,90.6,112,90.5,111.5,90.5L111.5,90.5z M28.2,96.2c0-2,1.3-3.7,3.4-3.7c2,0,3.3,1.6,3.3,3.7c0,2.1-1.3,3.7-3.3,3.7
	C29.5,99.8,28.2,98.2,28.2,96.2L28.2,96.2z M37,96.2v-5.4h-2.2v1.3c-0.7-1-2-1.6-3.5-1.6c-3,0-5.3,2.4-5.3,5.7
	c0,3.3,2.3,5.7,5.3,5.7c1.5,0,2.8-0.6,3.5-1.6v1.3H37V96.2L37,96.2z M66.2,92.5c1.6,0,2.7,1,2.8,2.7h-5.8
	C63.4,93.7,64.4,92.5,66.2,92.5L66.2,92.5z M66.2,90.5c-3.2,0-5.3,2.3-5.3,5.6c0,3.4,2.3,5.7,5.5,5.7c1.6,0,3.1-0.4,4.4-1.5
	l-1.2-1.6c-0.9,0.7-2.1,1.1-3.1,1.1c-1.5,0-3-0.9-3.3-2.8h8.1c0-0.3,0-0.6,0-0.9C71.3,92.8,69.2,90.5,66.2,90.5L66.2,90.5z
	 M81.4,96.2c0,3.3,2.2,5.7,5.7,5.7c1.6,0,2.7-0.4,3.9-1.3l-1.1-1.7c-0.9,0.6-1.8,1-2.8,1c-1.9,0-3.3-1.5-3.3-3.7
	c0-2.2,1.5-3.6,3.3-3.7c1,0,1.9,0.3,2.8,1l1.1-1.7c-1.2-0.9-2.3-1.3-3.9-1.3C83.6,90.5,81.4,92.9,81.4,96.2L81.4,96.2z M48.6,91.6
	c-1.1-0.7-2.7-1.1-4.4-1.1c-2.7,0-4.4,1.3-4.4,3.4c0,1.8,1.2,2.8,3.6,3.2l1.1,0.2c1.3,0.2,2,0.6,2,1.2c0,0.8-1,1.4-2.6,1.4
	c-1.7,0-2.8-0.5-3.6-1.1l-1.1,1.7c1.6,1.2,3.5,1.4,4.7,1.4c3.1,0,4.8-1.4,4.8-3.5c0-1.9-1.3-2.9-3.7-3.2L44,95
	c-1-0.1-1.9-0.5-1.9-1.2c0-0.8,0.9-1.3,2.1-1.3c1.4,0,2.7,0.5,3.4,0.9L48.6,91.6L48.6,91.6z M78.9,90.5c-1.4,0-2.3,0.6-2.9,1.6v-1.3
	h-2.1v10.8H76v-6.1c0-1.8,0.9-2.9,2.4-2.9c0.5,0,1,0.1,1.5,0.3l0.7-2C80.1,90.6,79.4,90.5,78.9,90.5L78.9,90.5z M58.9,90.8H55v-3.3
	h-2.2v3.3h-2.3v2h2.3v5.1c0,2.5,0.9,4,3.7,4c1,0,2.2-0.3,2.9-0.8l-0.7-1.9c-0.7,0.4-1.5,0.6-2.1,0.6c-1.2,0-1.6-0.7-1.6-1.8v-5.1
	h3.9V90.8L58.9,90.8z M23.7,101.6v-6.8c0-2.6-1.5-4.2-4.2-4.3c-1.4,0-2.8,0.4-3.8,1.9c-0.7-1.2-1.9-1.9-3.6-1.9
	c-1.2,0-2.4,0.3-3.2,1.6v-1.3H6.8v10.8H9v-6.2c0-1.9,1.1-2.9,2.7-2.9c1.6,0,2.4,1,2.4,2.8v6.2h2.2v-6.2c0-1.9,1.2-2.9,2.7-2.9
	c1.6,0,2.5,1,2.5,2.8v6.2H23.7L23.7,101.6z"/>
<polygon class="st0" points="85.2,72.5 46.1,72.5 46.1,8.7 85.2,8.7 85.2,72.5 "/>
<path class="st1" d="M50.2,40.6c0-12.9,6.1-24.5,15.5-31.9C58.8,3.2,50.1,0,40.6,0C18.2,0,0,18.2,0,40.6C0,63,18.2,81.2,40.6,81.2
	c9.5,0,18.2-3.2,25.1-8.7C56.2,65.1,50.2,53.5,50.2,40.6L50.2,40.6z"/>
<path class="st2" d="M130.1,65.7v-1.6h-0.4l-0.5,1.1l-0.5-1.1h-0.4v1.6h0.3v-1.2l0.4,1h0.3l0.4-1v1.2H130.1L130.1,65.7z M127.4,65.7
	v-1.3h0.5v-0.3h-1.3v0.3h0.5v1.3H127.4L127.4,65.7z"/>
<path class="st2" d="M131.3,40.6c0,22.4-18.2,40.6-40.6,40.6c-9.5,0-18.2-3.2-25.1-8.7c9.4-7.4,15.5-19,15.5-31.9
	c0-12.9-6.1-24.5-15.5-31.9C72.6,3.2,81.3,0,90.7,0C113.1,0,131.3,18.2,131.3,40.6L131.3,40.6z"/>
</svg>
