<?xml version="1.0" encoding="utf-8"?>
<!-- Generator: Adobe Illustrator 22.0.1, SVG Export Plug-In . SVG Version: 6.00 Build 0)  -->
<svg version="1.1" id="Layer_1" xmlns="http://www.w3.org/2000/svg" xmlns:xlink="http://www.w3.org/1999/xlink" x="0px" y="0px"
	 viewBox="0 0 63 19.1" style="enable-background:new 0 0 63 19.1;" xml:space="preserve">
<style type="text/css">
	.st0{fill:#3C58BF;}
	.st1{fill:#293688;}
	.st2{fill:#FFBC00;}
	.st3{fill:#F7981D;}
	.st4{fill:#ED7C00;}
	.st5{fill:#051244;}
</style>
<g>
	<g>
		<g>
			<g>
				<polygon class="st0" points="23.1,18.6 26.3,0.6 31.3,0.6 28.2,18.6 				"/>
			</g>
		</g>
		<g>
			<g>
				<polygon class="st1" points="23.1,18.6 27.2,0.6 31.3,0.6 28.2,18.6 				"/>
			</g>
		</g>
		<g>
			<g>
				<path class="st0" d="M46.3,0.8c-1-0.4-2.6-0.8-4.6-0.8c-5,0-8.6,2.5-8.6,6.1c0,2.7,2.5,4.1,4.5,5c2,0.9,2.6,1.5,2.6,2.3
					c0,1.2-1.6,1.8-3,1.8c-2,0-3.1-0.3-4.8-1l-0.7-0.3L31,18c1.2,0.5,3.4,1,5.7,1c5.3,0,8.8-2.5,8.8-6.3c0-2.1-1.3-3.7-4.3-5
					c-1.8-0.9-2.9-1.4-2.9-2.3c0-0.8,0.9-1.6,2.9-1.6c1.7,0,2.9,0.3,3.8,0.7l0.5,0.2L46.3,0.8L46.3,0.8z"/>
			</g>
		</g>
		<g>
			<g>
				<path class="st1" d="M46.3,0.8c-1-0.4-2.6-0.8-4.6-0.8c-5,0-7.7,2.5-7.7,6.1c0,2.7,1.6,4.1,3.6,5c2,0.9,2.6,1.5,2.6,2.3
					c0,1.2-1.6,1.8-3,1.8c-2,0-3.1-0.3-4.8-1l-0.7-0.3L31,18c1.2,0.5,3.4,1,5.7,1c5.3,0,8.8-2.5,8.8-6.3c0-2.1-1.3-3.7-4.3-5
					c-1.8-0.9-2.9-1.4-2.9-2.3c0-0.8,0.9-1.6,2.9-1.6c1.7,0,2.9,0.3,3.8,0.7l0.5,0.2L46.3,0.8L46.3,0.8z"/>
			</g>
		</g>
		<g>
			<g>
				<path class="st0" d="M54.9,0.6c-1.2,0-2.1,0.1-2.6,1.3l-7.5,16.7h5.4l1-3h6.4l0.6,3H63l-4.2-18H54.9z M52.6,12.6
					c0.3-0.9,2-5.3,2-5.3s0.4-1.1,0.7-1.8l0.3,1.7c0,0,1,4.5,1.2,5.5h-4.2V12.6z"/>
			</g>
		</g>
		<g>
			<g>
				<path class="st1" d="M56.1,0.6c-1.2,0-2.1,0.1-2.6,1.3l-8.7,16.7h5.4l1-3h6.4l0.6,3H63l-4.2-18H56.1z M52.6,12.6
					c0.4-1,2-5.3,2-5.3s0.4-1.1,0.7-1.8l0.3,1.7c0,0,1,4.5,1.2,5.5h-4.2V12.6z"/>
			</g>
		</g>
		<g>
			<g>
				<path class="st0" d="M13.9,13.2l-0.5-2.6c-0.9-3-3.8-6.3-7-7.9l4.5,16h5.4l8.1-18H19L13.9,13.2z"/>
			</g>
		</g>
		<g>
			<g>
				<path class="st1" d="M13.9,13.2l-0.5-2.6c-0.9-3-3.8-6.3-7-7.9l4.5,16h5.4l8.1-18H20L13.9,13.2z"/>
			</g>
		</g>
		<g>
			<g>
				<path class="st2" d="M0,0.6l0.9,0.2c6.4,1.5,10.8,5.3,12.5,9.8l-1.8-8.5c-0.3-1.2-1.2-1.5-2.3-1.5H0z"/>
			</g>
		</g>
		<g>
			<g>
				<path class="st3" d="M0,0.6L0,0.6C6.4,2.1,11.7,6,13.4,10.5l-1.7-7.1c-0.3-1.2-1.3-1.9-2.4-1.9L0,0.6z"/>
			</g>
		</g>
		<g>
			<g>
				<path class="st4" d="M0,0.6L0,0.6C6.4,2.1,11.7,6,13.4,10.5l-1.2-3.9c-0.3-1.2-0.7-2.4-2.1-2.9L0,0.6z"/>
			</g>
		</g>
	</g>
	<g>
		<path class="st5" d="M18.9,12.6l-3.4-3.4L13.9,13l-0.4-2.5c-0.9-3-3.8-6.3-7-7.9l4.5,16h5.4L18.9,12.6z"/>
	</g>
	<g>
		<polygon class="st5" points="28.2,18.6 23.9,14.2 23.1,18.6 		"/>
	</g>
	<g>
		<path class="st5" d="M39.7,12.4L39.7,12.4c0.4,0.4,0.6,0.7,0.5,1.1c0,1.2-1.6,1.8-3,1.8c-2,0-3.1-0.3-4.8-1L31.7,14L31,18.1
			c1.2,0.5,3.4,1,5.7,1c3.2,0,5.8-0.9,7.3-2.5L39.7,12.4z"/>
	</g>
	<g>
		<path class="st5" d="M45.5,18.6h4.7l1-3h6.4l0.6,3H63l-1.7-7.3l-6-5.8l0.3,1.6c0,0,1,4.5,1.2,5.5h-4.2c0.4-1,2-5.3,2-5.3
			s0.4-1.1,0.7-1.8"/>
	</g>
</g>
</svg>
