<?xml version="1.0" encoding="utf-8"?>
<!-- Generator: Adobe Illustrator 22.1.0, SVG Export Plug-In . SVG Version: 6.00 Build 0)  -->
<svg version="1.1" id="Layer_1" xmlns="http://www.w3.org/2000/svg" xmlns:xlink="http://www.w3.org/1999/xlink" x="0px" y="0px"
	 viewBox="0 0 512 512" style="enable-background:new 0 0 512 512;" xml:space="preserve">

<linearGradient id="gradient" x1="0%" y1="0%" x2="0%" y2="100%">
  <stop offset="0" stop-color="#ffd439"></stop>
  <stop offset="21%" stop-color="rgba(241,199,47,0.99)"></stop>
  <stop offset="100%" stop-color="#a58239"></stop>
</linearGradient>

<path fill="url(#gradient)" d="M146.9,250.9c-4.4,13.6-9.3,21.9-9.7,22.6L117.8,304h36.5h0.2c7.4,0,40.5-1.5,68.4-27.4c12,1.6,23.2,2.4,34.1,2.4
	c47,0,87.1-11,115.7-31.7c33.6-24.3,51.3-61.7,51.3-108C424,52.1,361.6,0,257,0S90,52.1,90,139.3C90,188.6,109.6,226.9,146.9,250.9z
	 M164.7,63.9C186.5,48.3,218.4,40,257,40s70.5,8.3,92.3,23.9c23.1,16.6,34.7,42,34.7,75.4c0,86.8-79.6,99.7-127,99.7
	c-11.7,0-24.1-1.1-37.9-3.5l-11.1-1.9l-7.4,8.5c-4,4.6-8.3,8.3-12.7,11.2c0.7-2.5,1.3-5.2,1.9-7.9l3.4-15.3l-14.1-6.9
	c-32.6-16-49.1-44.3-49.1-83.9C130,105.9,141.7,80.5,164.7,63.9z M512,132v240c0,33.1-26.9,60-60,60H276v40h104v40H132v-40h104v-40
	H60c-33.1,0-60-26.9-60-60V132c0-33.1,26.9-60,60-60h1.7c-5,13.1-8.4,27.1-10.2,41.9C44.7,117.1,40,124,40,132v240c0,11,9,20,20,20
	h392c11,0,20-9,20-20V132c0-7.1-3.8-13.4-9.4-16.9c-1.8-15.2-5.2-29.6-10.3-43.1C485.2,72.2,512,99,512,132z M237,137
	c0-11,9-20,20-20s20,9,20,20s-9,20-20,20S237,148,237,137z M167,137c0-11,9-20,20-20s20,9,20,20s-9,20-20,20S167,148,167,137z
	 M307,137c0-11,9-20,20-20s20,9,20,20s-9,20-20,20S307,148,307,137z"/>
</svg>
