<?xml version="1.0" encoding="utf-8"?>
<!-- Generator: Adobe Illustrator 22.1.0, SVG Export Plug-In . SVG Version: 6.00 Build 0)  -->
<svg version="1.1" id="Layer_1" xmlns="http://www.w3.org/2000/svg" xmlns:xlink="http://www.w3.org/1999/xlink" x="0px" y="0px"
	 viewBox="0 0 512 512" style="enable-background:new 0 0 512 512;" xml:space="preserve">

<linearGradient id="gradient" x1="0%" y1="0%" x2="0%" y2="100%">
  <stop offset="0" stop-color="#ffd439"></stop>
  <stop offset="21%" stop-color="rgba(241,199,47,0.99)"></stop>
  <stop offset="100%" stop-color="#a58239"></stop>
</linearGradient>

<path fill="url(#gradient)" d="M372.9,280.6l-55.8,54c-16.1-9-46.8-28.7-80.3-62.1c-33.5-33.5-53.3-64.5-62.5-80.7l54-54.7L92,0L24.9,66.7
	C-0.6,92.2-7.3,131,8.4,163.3c23.9,49.2,68,123.5,142.4,197.8c74.4,74.4,148.6,118.5,197.8,142.4c11.7,5.7,24.2,8.4,36.6,8.4
	c22,0,43.7-8.6,59.9-24.9l66.8-67.1L372.9,280.6z M416.9,458.8c-13.5,13.4-33.9,17-50.8,8.7c-46.4-22.6-116.6-64.2-187-134.7
	c-70.4-70.4-112.1-140.6-134.7-187c-8.2-16.9-4.7-37.4,8.7-50.8l38.8-38.5l80.2,80.7l-46,46.6l5.6,12.5c0.9,2,22.7,50.2,77,104.5
	c54.3,54.3,102.1,75.7,104.1,76.5l12.3,5.4l47.5-46l83.1,83.2L416.9,458.8z M451.6,205.1H306.8V60.2h40v76.7L483.6,0l28.3,28.3
	L375,165.2h76.7V205.1z"/>
</svg>
