<svg width="20" height="20" fill="none" xmlns="http://www.w3.org/2000/svg"><path d="M5.625 9.727h-1.25a.586.586 0 000 1.171h1.25a.586.586 0 100-1.171zm0 2.5h-1.25a.586.586 0 100 1.171h1.25a.586.586 0 100-1.171zm0 2.5h-1.25a.586.586 0 100 1.171h1.25a.586.586 0 100-1.171zm5-5h-1.25a.586.586 0 000 1.171h1.25a.586.586 0 100-1.171zm0 2.5h-1.25a.586.586 0 100 1.171h1.25a.586.586 0 100-1.171zm0 2.5h-1.25a.586.586 0 100 1.171h1.25a.586.586 0 100-1.171zm5-5h-1.25a.586.586 0 000 1.171h1.25a.586.586 0 100-1.171zm0 2.5h-1.25a.586.586 0 100 1.171h1.25a.586.586 0 100-1.171zm0 2.5h-1.25a.586.586 0 100 1.171h1.25a.586.586 0 100-1.171z" fill="#000"/><path d="M18.242 2.54h-1.406v-.978a.586.586 0 10-1.172 0v.977h-5.078v-.977a.586.586 0 10-1.172 0v.977H4.336v-.977a.586.586 0 00-1.172 0v.977H1.758A1.76 1.76 0 000 4.297v12.969a1.76 1.76 0 001.758 1.757h16.484A1.76 1.76 0 0020 17.266V4.296a1.76 1.76 0 00-1.758-1.757zM1.172 4.296c0-.323.263-.586.586-.586h1.406v.977a.586.586 0 001.172 0V3.71h5.078v.977a.586.586 0 001.172 0V3.71h5.078v.977a.586.586 0 101.172 0V3.71h1.406c.323 0 .586.263.586.586v2.305H1.172V4.297zm17.07 13.555H1.758a.587.587 0 01-.586-.586V7.773h17.656v9.493a.587.587 0 01-.586.586z" fill="#000"/></svg>