<svg width="43" height="43" fill="none" xmlns="http://www.w3.org/2000/svg"><g clip-path="url(#clip0)" fill="#fff"><path d="M42.508 40.132L30.376 28c5.528-6.725 5.152-16.708-1.13-22.989-6.681-6.682-17.553-6.682-24.235 0-6.681 6.682-6.681 17.554 0 24.235 6.28 6.28 16.261 6.66 22.99 1.13l12.131 12.132a1.68 1.68 0 002.376-2.376zM26.871 26.87c-5.372 5.372-14.112 5.372-19.484 0-5.371-5.371-5.371-14.112 0-19.483 5.372-5.372 14.112-5.372 19.484 0 5.371 5.372 5.371 14.112 0 19.483z"/><path d="M25.354 15.449h-6.546V8.903a1.68 1.68 0 00-3.36 0v6.546H8.903a1.68 1.68 0 100 3.36h6.545v6.546a1.68 1.68 0 103.36 0v-6.546h6.546a1.68 1.68 0 100-3.36z"/></g><defs><clipPath id="clip0"><path fill="#fff" d="M0 0h43v43H0z"/></clipPath></defs></svg>