<?xml version="1.0" encoding="utf-8"?><svg xmlns="http://www.w3.org/2000/svg" xmlns:xlink="http://www.w3.org/1999/xlink"><symbol viewBox="0 0 289 492" id="arrow" xmlns="http://www.w3.org/2000/svg"><path d="M281.2 226.8L62.3 7.9C57.2 2.8 50.4 0 43.2 0s-14 2.8-19 7.9L8.1 24c-10.5 10.5-10.5 27.6 0 38L192 245.9 7.9 430C2.8 435 0 441.8 0 449c0 7.2 2.8 14 7.9 19L24 484.1c5.1 5.1 11.8 7.9 19 7.9s14-2.8 19-7.9L281.2 265c5.1-5.1 7.9-11.9 7.8-19.1.1-7.2-2.7-14-7.8-19.1z"/></symbol><symbol viewBox="0 0 512 512" id="call" xmlns="http://www.w3.org/2000/svg"><path d="M511.576 402.975c-3.495-36.288-45.168-65.404-49.7-68.45-4.483-3.209-44.825-31.284-80.563-31.284-15.102 0-27.727 4.708-37.921 14.381l-.974 1.05c-11.765 13.773-35.557 34.151-49.256 34.151-.917 0-1.7-.105-2.411-.337-7.754-5.701-46.081-34.235-71.453-59.617-20.388-20.388-53.266-63.131-59.879-71.792-3.447-11.116 16.969-37.357 34.11-52.178l.96-.945c38.331-40.489-14.859-114.764-16.927-117.6C176.187 48.301 143.409 0 103.931 0 90.352 0 78.091 5.29 68.14 15.126c-4.608 3.782-112.091 94.081-47.169 226.941 3.242 6.666 7.291 13.379 12.734 21.143 15.933 22.756 57.205 79.89 96.286 118.966 37.104 37.109 95.193 79.356 118.446 95.79 7.979 5.646 14.902 9.826 21.797 13.188C298.686 504.991 327.392 512 355.553 512c82.941 0 133.968-59.435 140.959-68.097 11.306-11.698 16.515-25.84 15.064-40.928zm-29.374 27.597l-.678.561c-4.975 6.255-50.779 60.901-125.971 60.901h-.019c-25.162 0-50.984-6.145-76.743-18.674-5.916-2.874-11.97-6.45-19.061-11.464-22.842-16.148-79.871-57.549-115.911-93.598-37.987-37.988-78.458-94-94.095-116.335-4.846-6.904-8.394-12.763-11.178-18.483C-18.683 116.357 70.217 38.718 81.199 29.653c6.914-6.799 14.348-10.099 22.732-10.099 24.189 0 49.619 30.09 57.592 41.989 12.896 17.743 41.406 69.045 18.827 92.908-2.13 1.843-52.049 45.436-38.441 75.507l1.127 1.891c4.035 5.3 40.065 52.484 62.434 74.848 27.769 27.77 69.992 58.843 74.719 62.3l1.676.983c3.452 1.595 7.257 2.397 11.307 2.397 28.758 0 62.687-39.334 64.052-40.938 6.054-5.739 14.157-8.642 24.089-8.642 30.157 0 67.615 26.509 69.41 27.789.387.258 38.704 26.423 41.382 54.26.921 9.578-2.316 17.991-9.903 25.726z"/></symbol><symbol viewBox="0 0 270.4 98.1" id="iconSheer"><path d="M175.1 51.8c.2 1.2.3 2.1.5 3 2 8.4 8.6 14 17.2 14.7 7.6.6 13.6-2.3 18-8.5 2.2-3 5.7-3.5 8.5-1.1 1.6 1.4 1.8 3.2.5 4.9-.7.9-1.4 1.8-2.1 2.8-2.9 4-6.7 6.7-11.4 8.3-7.6 2.6-15.2 3-22.7.2-10.1-3.7-16.1-11.1-17.8-21.7-1-6.5-.4-13 2.6-18.9 4.3-8.4 11.1-13.6 20.5-15.1 6.2-1 12.4-.4 18.2 2.4 8.2 3.9 13.2 10.5 15.1 19.3.5 2.4.7 4.9.9 7.3.2 1.5-.5 2.2-2.1 2.3h-44.1c-.4.1-.9.1-1.8.1zm38.3-9.2c-1.2-7.9-10.7-14.7-19.4-14.2-9.1.5-18.2 7.5-18.5 14.2h37.9zm-101 9c.1.8.2 1.4.3 2 1.7 9.3 9.3 15.7 18.7 15.9 7.1.1 12.7-2.8 16.8-8.6 2.2-3.1 6.1-3.4 8.8-.7 1.3 1.4 1.5 3 .3 4.6-.5.8-1.1 1.5-1.7 2.2-3.1 4.5-7.3 7.4-12.5 9.1-7.6 2.5-15.2 2.7-22.5-.2-10.6-4.1-16.4-12.1-17.6-23.3-.6-5.4-.1-10.7 2.2-15.6 4.3-9.4 11.4-15.2 21.8-16.6 5.5-.7 11-.3 16.1 1.8 9.2 3.8 14.6 10.9 16.6 20.6.4 2.2.6 4.5.7 6.7.1 1.8-.3 2.2-2.2 2.2h-43.5c-.7-.1-1.4-.1-2.3-.1zm38.4-9.1c-1.2-7.8-10.4-14.4-19.4-14.2-8.8.2-17.9 7.2-18.6 14.2h38zm101 13.5c.7.6 1.1 1 1.5 1.4 4.9 4.2 9.8 8.3 14.6 12.5.3.3.7.6 1 .9 1.8 1.8 2 4.4.3 6.2-1.6 1.8-4.2 2.1-6.1.5-3.4-2.8-6.7-5.7-10-8.5-4.8-4.1-9.5-8.1-14.3-12.2-.4-.4-.9-.7-1.6-1.3 0 1-.1 1.6-.1 2.3v36.1c-.2 2.5-2.1 4.3-4.6 4.2-2.4-.1-4.1-1.9-4.2-4.4V21.9c0-1.6.2-1.9 1.7-1.9 2.1-.1 4.2-.1 6.2-.1 5 0 10.1.2 15.1-.1 8.4-.4 17.8 6.4 18.7 16.3.8 8.9-5.2 17.3-14.3 19.1-1.1.2-2.3.5-3.9.8zm-15.3-6.9c.5.1.9.1 1.2.1h12.6c1.2 0 2.4-.1 3.6-.5 3.9-1.2 7-3.5 8-7.7 1.7-7.1-3.6-13.7-10.9-13.7h-13c-.5 0-1 .1-1.5.1v21.7zM88.5 52H63.9c0 .7-.1 1.4-.1 2v18.9c0 .8 0 1.6-.2 2.3-.6 1.9-2.6 3.1-4.5 3-2.1-.2-3.8-1.8-4.1-3.9-.1-.5 0-1 0-1.5V5.4c0-.9.1-1.8.4-2.6.6-2 2.6-3 4.7-2.8 1.9.3 3.5 2 3.7 3.9.1.6 0 1.2 0 1.8v34.7c0 .7.1 1.4.1 2 1.5.4 22.9.4 24.5 0 0-.5.1-1.1.1-1.7V23.9c.2-2.3 1.9-4 4.2-4.1 2.3-.1 4.3 1.6 4.6 3.9.1.5 0 1 0 1.5v48.9c-.3 2.3-2.3 4.1-4.5 4-2.3-.1-4.1-1.9-4.3-4.2V52zM25 78.3c-5.9-.1-11.4-1.4-16.5-4.4-2.2-1.3-4.2-2.9-5.8-4.8-.8-1-1.6-2.1-2.2-3.3-1-1.9-.6-3.4.9-4.9 1.7-1.6 4.1-2.3 6.4-.7C9 61 10 62 10.9 63c.9.9 1.6 1.9 2.5 2.8 2.7 2.7 6 4.2 9.8 4.6 3.5.4 7 .3 10.4-.9 1.4-.5 2.8-1.2 4-2.1 2.9-2.2 3-5.9.2-8.2-1.3-1.1-2.9-1.9-4.5-2.6-4-1.7-8.1-2.9-12.3-4-3.4-.8-6.7-1.9-10.1-2.9-1.3-.4-2.5-1.1-3.7-1.7-3.2-1.7-5-4.4-5.5-7.9-1-7.1 1.7-12.8 8.1-15.9 9.8-4.8 19.7-5.2 29.4.4 1.8 1 3.5 2.5 5.1 3.9 1.2 1 2 2.5 2.5 4 .8 2.6-.5 3.9-2.8 4.4-2 .4-3.8-.2-5.2-1.7-.3-.3-.5-.6-.7-.9-2.3-3.4-5.6-5.3-9.6-6.1-4-.7-8-.6-11.8.9-1.4.5-2.8 1.3-3.9 2.3-2.7 2.3-2.7 5.4-.1 7.8 1.7 1.6 3.7 2.5 5.9 3 4.8 1.2 9.7 2.4 14.5 3.6 3.1.8 6.1 1.8 8.9 3.4 3.6 1.9 6.2 4.7 7.1 8.8 1.1 5 0 9.4-3.9 13-4.4 4-9.5 6.3-15.4 7-1.7.1-3.3.2-4.8.3z"/></symbol><symbol id="insta" viewBox="0 0 512 512" xml:space="preserve" xmlns="http://www.w3.org/2000/svg"><style>.dst0{fill:#fff}</style><path class="dst0" d="M101.3 512h309.3c55.9 0 101.3-45.5 101.3-101.3V101.3C512 45.5 466.5 0 410.7 0H101.3C45.5 0 0 45.5 0 101.3v309.3C0 466.5 45.5 512 101.3 512zM32 101.3C32 63.1 63.1 32 101.3 32h309.3c38.2 0 69.3 31.1 69.3 69.3v309.3c0 38.2-31.1 69.3-69.3 69.3H101.3c-38.2.1-69.3-31-69.3-69.2V101.3z"/><path class="dst0" d="M256 386.8c72.1 0 130.8-58.7 130.8-130.8S328.1 125.2 256 125.2 125.2 183.9 125.2 256 183.9 386.8 256 386.8zm0-229.6c54.5 0 98.8 44.3 98.8 98.8s-44.3 98.8-98.8 98.8-98.8-44.3-98.8-98.8 44.3-98.8 98.8-98.8zm135.6-.1c21 0 36.9-15.8 36.9-36.7 0-21.8-16.7-36.7-36.9-36.7-21 0-36.9 15.8-36.9 36.7.1 21.7 16.7 36.7 36.9 36.7zm3.8-40.3c6.7 6-8.6 13.2-8.6 3.5 0-5.7 7.8-4.2 8.6-3.5z"/></symbol><symbol viewBox="0 0 512 512" id="vk" xmlns="http://www.w3.org/2000/svg"><path d="M259.1 416c74.1 0 47.7-46.9 53.4-60.4-.1-10.1-.2-19.8.2-25.6 4.7 1.3 15.8 6.9 38.6 29.2 35.3 35.6 44.3 56.9 72.9 56.9h52.5c16.6 0 25.3-6.9 29.6-12.7 4.2-5.6 8.3-15.4 3.8-30.7-11.7-36.8-80-100.3-84.3-107 .6-1.2 1.7-2.9 2.2-3.7 13.5-17.8 64.9-94.9 72.5-125.8v-.2c4.1-14.1.3-23.2-3.5-28.4-5.8-7.7-15.1-11.6-27.7-11.6h-52.5c-17.6 0-30.9 8.9-37.7 25-11.3 28.7-43 87.7-66.8 108.6-.7-29.6-.2-52.2.1-69 .8-32.7 3.2-64.6-30.7-64.6h-82.5c-21.3 0-41.7 23.3-19.6 50.9 19.3 24.2 6.9 37.7 11.1 104.8-16.2-17.4-45.1-64.3-65.5-124.4-5.6-16.2-14.3-31.3-38.7-31.3H34c-21.3 0-34 11.6-34 31 0 43.7 96.6 289 259.1 289zM86.5 128c4.6 0 5.1 0 8.5 9.7 20.9 61.5 67.7 152.5 102 152.5 25.7 0 25.7-26.3 25.7-36.3v-79c-1.4-26.1-10.9-39.1-17.2-47l74.8.1c0 .4-.4 87.4.2 108.4 0 29.9 23.8 47.1 60.9 9.5 39.1-44.2 66.2-110.2 67.3-112.9 1.6-3.8 3-5.1 8-5.1h52.7v.2c-4.8 22.4-52.2 93.8-68 115.9-.3.3-.5.7-.7 1.1-7 11.4-12.7 24 1 41.7 1.2 1.5 4.5 5 9.2 9.9 14.6 15.1 64.6 66.6 69.1 87-2.9.5-6.1.1-55.7.2-10.6 0-18.8-15.8-50.3-47.6-28.3-27.6-46.7-38.8-63.5-38.8-32.5 0-30.1 26.4-29.8 58.3.1 34.6-.1 23.7.1 25.8-1.9.7-7.3 2.2-21.5 2.2-135.6.2-223.7-214.6-227.1-255.7 1.2-.1 17.3-.1 54.3-.1z" fill="#fff"/></symbol></svg>