<svg xmlns="http://www.w3.org/2000/svg" viewBox="0 0 338 456" width="338" height="456">
	<defs>
		<clipPath clipPathUnits="userSpaceOnUse" id="cp1">
			<path d="M0 0L337 0L337 455L0 455Z" />
		</clipPath>
	</defs>
	<style>
		tspan { white-space:pre }
		.shp0 { fill: #ffffff } 
		.shp1 { fill: #00223a } 
		.shp2 { fill: #00afd9 } 
		.shp3 { fill: #c2d8ed } 
		.shp4 { fill: #ec644b } 
		.shp5 { fill: #f4f4f4 } 
		.shp6 { fill: #6c7a89 } 
		.shp7 { opacity: 0.541;mix-blend-mode: multiply;fill: #3498db } 
		.shp8 { fill: #d35400 } 
		.shp9 { fill: #f4d03f } 
		.shp10 { opacity: 0.149;mix-blend-mode: multiply;fill: #3498db } 
		.shp11 { fill: #daecfa } 
		.shp12 { fill: #22313f } 
		.shp13 { opacity: 0.251;mix-blend-mode: multiply;fill: #3498db } 
	</style>
	<g id="Page 1" clip-path="url(#cp1)">
		<path id="Path 1" class="shp0" d="M168.51,455l6.54,-3.02c40.92,-18.89 82.03,-37.48 121.71,-58.89c38.66,-20.86 37.34,-55.71 39.06,-94.72c2.71,-61.61 0.02,-123.33 0.02,-184.97v-10.93l-10.27,-3.73c-30.17,-10.96 -61.04,-22.35 -92.01,-30.79c-22.84,-6.22 -45.65,-10.53 -69.41,-10.27c-22.81,0.24 -44.69,4.67 -66.55,10.93c-29.11,8.34 -58.05,19.45 -86.35,30.21l-10.05,3.82v10.75c0,61.64 -2.69,123.36 0.01,184.97c1.72,39.01 0.4,73.86 39.06,94.72c39.68,21.41 80.79,40 121.71,58.89z" />
		<path id="Path 2" class="shp1" d="M16.78,113.4c0,62.09 -2.66,123.81 0,184.28c1.97,44.9 2.34,66.29 30.88,81.69c38.71,20.89 77.82,38.6 120.84,58.46c43.02,-19.86 82.13,-37.57 120.84,-58.46c28.55,-15.4 28.91,-36.79 30.89,-81.69c2.66,-60.47 0,-122.19 0,-184.28c-146.86,-53.34 -162.22,-53.69 -303.45,0z" />
		<path id="Path 3" class="shp0" d="M28.54,363.06c4.31,6.33 10.4,11.6 19.13,16.31c38.71,20.89 77.82,38.6 120.84,58.46c43.02,-19.86 82.13,-37.57 120.84,-58.46c8.73,-4.71 14.82,-9.98 19.13,-16.31c-40.61,-18.43 -88.57,-29.09 -139.97,-29.09c-51.4,0 -99.36,10.66 -139.97,29.09z" />
		<path id="Path 4" class="shp2" d="M38.93,373.81c2.58,1.95 5.47,3.79 8.74,5.56c38.71,20.89 77.82,38.6 120.84,58.46c43.02,-19.86 82.13,-37.57 120.84,-58.46c3.27,-1.76 6.17,-3.61 8.74,-5.56c-37.81,-16.29 -82.16,-25.67 -129.58,-25.67c-47.43,0 -91.77,9.38 -129.58,25.67z" />
		<path id="Path 5" class="shp0" d="M32.91,145.78l-5.38,2.3l5.54,2.45l2.3,5.38l2.45,-5.54l5.38,-2.3l-5.54,-2.45l-2.3,-5.38zM38.55,285.92l-5.38,2.3l5.54,2.45l2.3,5.38l2.45,-5.54l5.38,-2.3l-5.54,-2.45l-2.3,-5.38zM280.26,215.19l-5.38,2.3l5.54,2.45l2.3,5.38l2.45,-5.54l5.38,-2.3l-5.54,-2.45l-2.3,-5.38zM296.2,140.82l-3.26,1.39l3.35,1.48l1.39,3.26l1.48,-3.35l3.26,-1.39l-3.35,-1.48l-1.39,-3.26zM299.17,300.27l-5.38,2.3l5.54,2.45l2.3,5.38l2.45,-5.54l5.39,-2.3l-5.54,-2.45l-2.3,-5.38z" />
		<path id="Path 6" class="shp3" d="M187.65,276.5l79.63,-19.1v-10.29c0,-21.09 -9.64,-28.14 -9.64,-28.14c0,0 -20.13,-20.13 -33.56,-33.55c-13.42,-13.42 -18.22,-32.6 -18.22,-32.6l-14.38,-78.61z" />
		<path id="Path 7" class="shp0" d="M267.28,255.34v-8.23c0,-21.09 -9.64,-28.14 -9.64,-28.14c0,0 -20.13,-20.13 -33.56,-33.56c-13.42,-13.42 -18.21,-32.6 -18.21,-32.6l-0.28,-1.52l-2.1,1.16c0.21,0.85 1.76,22.86 16.22,37.32l33.56,33.56l0.44,0.44l0.23,0.15c0.79,0.68 7.15,6.71 7.15,23.18v5.42l-11.71,2.81z" />
		<path id="Path 8" class="shp4" d="M267.28,249.17l-79.31,10.81l-0.31,16.52l79.63,-19.1z" />
		<path id="Path 9" class="shp3" d="M149.36,275.93l-0.07,-4.12l-0.04,-2.06l-0.36,-18.53l-0.18,-9.61l-0.29,-15.07l-2.88,-152.33l-0.38,2.08l-13.73,75.02l-0.29,1.52c0,0 -4.8,19.17 -18.2,32.6c-13.43,13.43 -33.56,33.56 -33.56,33.56c0,0 -9.65,7.04 -9.65,28.12v10.29l4.6,1.11l64.35,15.43l5.12,1.22l3.19,0.77l2.04,0.48l0.34,0.09z" />
		<path id="Path 10" class="shp5" d="M75.92,247.11c0,-16.47 6.37,-22.5 7.16,-23.18l0.23,-0.14l33.99,-33.99c14.46,-14.46 16.02,-36.48 16.23,-37.32l-2.09,-1.16l-0.29,1.52c0,0 -4.8,19.17 -18.2,32.6c-13.42,13.42 -33.56,33.56 -33.56,33.56c0,0 -9.65,7.04 -9.65,28.12v8.23h17.9l-11.73,-2.81z" />
		<path id="Path 11" class="shp4" d="M149.36,275.93l-0.07,-4.12l-0.04,-2.06l-0.2,-9.77l-2.7,-0.38l-2.54,-0.34l-9.67,-1.32l-58.23,-7.93l-6.18,-0.84v8.23l4.6,1.11l64.35,15.43l5.12,1.22l3.19,0.77l2.04,0.48l0.34,0.09z" />
		<path id="Path 12" class="shp5" d="M191.82,76.09c-1.27,-14.05 -3.56,-33.47 -7.41,-49.14c-0.11,-0.48 -0.23,-0.95 -0.36,-1.41c-0.21,-0.93 -0.46,-1.84 -0.72,-2.74c-0.14,-0.5 -0.27,-1 -0.43,-1.5c-0.23,-0.82 -0.47,-1.63 -0.73,-2.42c-0.14,-0.48 -0.29,-0.95 -0.45,-1.4c-0.2,-0.65 -0.41,-1.27 -0.64,-1.88c-0.04,-0.14 -0.09,-0.27 -0.14,-0.4c-0.29,-0.79 -0.57,-1.54 -0.88,-2.27c-0.43,-1.09 -0.88,-2.13 -1.34,-3.1c-0.81,-1.66 -1.65,-3.15 -2.52,-4.42c-0.18,-0.25 -0.36,-0.5 -0.54,-0.73c-0.18,-0.23 -0.36,-0.47 -0.54,-0.68c-0.16,-0.23 -0.36,-0.45 -0.54,-0.64c-0.27,-0.29 -0.54,-0.55 -0.8,-0.81c-0.27,-0.25 -0.54,-0.48 -0.82,-0.7c-0.25,-0.2 -0.48,-0.36 -0.73,-0.5c-0.12,-0.09 -0.25,-0.16 -0.38,-0.23c-0.54,-0.3 -1.07,-0.54 -1.63,-0.68c-0.25,-0.07 -0.5,-0.12 -0.75,-0.16h-0.04c-0.3,-0.05 -0.61,-0.07 -0.91,-0.07c-0.27,0 -0.54,0.02 -0.81,0.05c-0.03,0.02 -0.07,0.02 -0.11,0.02h-0.04c-0.09,0.02 -0.16,0.02 -0.23,0.05c-0.03,0 -0.07,0.02 -0.11,0.02c-0.14,0.02 -0.29,0.05 -0.41,0.09c-0.23,0.05 -0.45,0.12 -0.66,0.23c-0.45,0.16 -0.88,0.38 -1.29,0.63c-0.27,0.16 -0.54,0.36 -0.79,0.55c-0.29,0.22 -0.55,0.45 -0.82,0.7c-0.27,0.25 -0.54,0.52 -0.81,0.81c-0.81,0.88 -1.56,1.9 -2.27,3.06c-0.25,0.4 -0.48,0.79 -0.72,1.22c-0.21,0.38 -0.43,0.77 -0.64,1.18c-0.02,0.05 -0.05,0.09 -0.05,0.12c-0.23,0.45 -0.46,0.91 -0.68,1.4c-0.48,1.02 -0.93,2.09 -1.38,3.22c-0.18,0.47 -0.36,0.95 -0.54,1.43c-0.18,0.47 -0.34,0.93 -0.5,1.4c-0.23,0.68 -0.47,1.38 -0.68,2.08c-0.18,0.56 -0.36,1.11 -0.54,1.68c-0.12,0.43 -0.25,0.88 -0.38,1.31c-0.25,0.86 -0.5,1.74 -0.73,2.63c-0.25,0.95 -0.5,1.9 -0.73,2.86c-3.87,15.74 -6.16,35.26 -7.43,49.33c-0.98,10.92 -1.36,18.56 -1.36,18.56v185.18h49.39v-185.18c0,0 -0.37,-7.73 -1.38,-18.76z" />
		<path id="Path 13" class="shp4" d="M184.06,25.54c-0.23,-0.93 -0.46,-1.84 -0.72,-2.74c-0.14,-0.5 -0.27,-1 -0.43,-1.5c-0.23,-0.82 -0.48,-1.63 -0.73,-2.42c-0.14,-0.48 -0.29,-0.95 -0.45,-1.4c-0.21,-0.64 -0.43,-1.27 -0.64,-1.88c0,-0.02 0,-0.02 -0.02,-0.02c-0.04,-0.12 -0.09,-0.25 -0.13,-0.38c-0.29,-0.79 -0.57,-1.54 -0.88,-2.27c-0.43,-1.09 -0.89,-2.13 -1.34,-3.1c-0.81,-1.66 -1.65,-3.15 -2.52,-4.42c-0.18,-0.25 -0.36,-0.5 -0.54,-0.74c-0.18,-0.23 -0.36,-0.46 -0.54,-0.68c-0.16,-0.23 -0.36,-0.45 -0.54,-0.65c-0.27,-0.29 -0.54,-0.55 -0.8,-0.8c-0.27,-0.25 -0.54,-0.48 -0.82,-0.7c-0.25,-0.2 -0.48,-0.36 -0.73,-0.5c-0.12,-0.09 -0.25,-0.16 -0.38,-0.23c-0.54,-0.31 -1.07,-0.54 -1.63,-0.68c-0.25,-0.07 -0.5,-0.12 -0.75,-0.16h-0.04c-0.3,-0.05 -0.61,-0.07 -0.91,-0.07c-0.27,0 -0.54,0.02 -0.81,0.05c-0.03,0.02 -0.07,0.02 -0.11,0.02h-0.04c-0.1,0.01 -0.21,0.05 -0.31,0.07c-0.01,0 -0.02,0 -0.03,0c-0.14,0.02 -0.29,0.05 -0.41,0.09c-0.23,0.05 -0.45,0.12 -0.66,0.23c-0.45,0.16 -0.88,0.38 -1.29,0.63c-0.27,0.16 -0.54,0.36 -0.79,0.55c-0.29,0.21 -0.56,0.45 -0.82,0.7c-0.27,0.25 -0.54,0.52 -0.81,0.8c-0.81,0.88 -1.56,1.9 -2.27,3.06c-0.25,0.39 -0.48,0.79 -0.72,1.22c-0.21,0.38 -0.43,0.77 -0.64,1.18c-0.02,0.05 -0.05,0.09 -0.05,0.12c-0.23,0.45 -0.47,0.91 -0.68,1.4c-0.48,1.02 -0.93,2.09 -1.38,3.22c-0.18,0.47 -0.36,0.95 -0.54,1.43c-0.18,0.47 -0.34,0.93 -0.5,1.4c-0.23,0.68 -0.47,1.38 -0.68,2.08c-0.18,0.55 -0.36,1.11 -0.54,1.68c-0.12,0.43 -0.25,0.88 -0.38,1.31c-0.25,0.86 -0.5,1.74 -0.73,2.63c-0.25,0.95 -0.5,1.9 -0.73,2.86h31.81c-0.11,-0.48 -0.23,-0.95 -0.36,-1.41z" />
		<path id="Path 14" class="shp6" d="M191.15,251.23h-47.32v28.81h47.32zM160.28,269.75h-22.63l6.17,24.69h16.46z" />
		<path id="Path 15" class="shp7" d="M160.28,294.44v-24.69h-12.35l4.11,24.69zM137.65,269.75l1.54,6.17h21.09v-6.17z" />
		<path id="Path 16" class="shp8" d="M143.82,294.44l8.23,28.81l8.23,-28.81z" />
		<path id="Path 17" class="shp9" d="M143.82,294.44l8.23,12.35l8.23,-12.35z" />
		<path id="Path 18" class="shp6" d="M176.74,294.44h16.46l6.17,-24.69h-22.63z" />
		<path id="Path 19" class="shp7" d="M187.03,269.75l-4.11,24.69h10.29l6.17,-24.69zM176.74,269.75v6.17h21.09l1.54,-6.17z" />
		<path id="Path 20" class="shp8" d="M176.75,294.44l8.23,28.81l8.23,-28.81z" />
		<path id="Path 21" class="shp9" d="M176.75,294.44l8.23,12.35l8.23,-12.35z" />
		<path id="Path 22" class="shp10" d="M168.51,0.21c-0.43,0 -0.86,0.06 -1.28,0.15c-2.84,12.2 -3.86,107.88 -3.86,107.88v151.23l29.83,4.11v-168.72c0,0 -4.56,-94.65 -24.69,-94.65z" />
		<path id="Path 23" class="shp11" d="M145.88,226.54c-12.35,0 -12.35,45.27 -12.35,45.27h30.86v-45.27z" />
		<path id="Path 24" class="shp5" d="M158.23,226.54h-12.35c-12.35,0 -12.35,45.27 -12.35,45.27h12.35c0,0 0,-45.27 12.35,-45.27zM172.63,226.54v45.27h30.86c0,0 0,-45.27 -12.35,-45.27z" />
		<path id="Path 25" class="shp11" d="M191.15,271.8h12.35c0,0 0,-45.27 -12.35,-45.27h-12.34c12.34,0 12.34,45.27 12.34,45.27z" />
		<path id="Path 26" class="shp12" d="M168.51,39.3c-14.38,0 -16.46,12.35 -16.46,12.35l2.06,6.17c1.92,-7.67 10.29,-8.23 14.4,-8.23c4.11,0 12.48,0.56 14.4,8.23l2.06,-6.17c0,0 -2.08,-12.35 -16.46,-12.35z" />
		<path id="Path 27" class="shp0" d="M172.63,296.5v-69.96c0,-2.27 -1.84,-4.12 -4.11,-4.12c-2.27,0 -4.12,1.84 -4.12,4.12v69.96c0,2.27 1.84,4.11 4.12,4.11c2.27,0 4.11,-1.84 4.11,-4.11z" />
		<path id="Path 28" class="shp13" d="M168.51,222.42c-2.27,0 -4.12,1.84 -4.12,4.11v30.86c0,2.27 1.84,4.11 4.12,4.11c2.27,0 4.11,-1.84 4.11,-4.11v-30.86c0,-2.27 -1.84,-4.11 -4.11,-4.11z" />
	</g>
</svg>