<?xml version="1.0" encoding="utf-8"?><svg xmlns="http://www.w3.org/2000/svg" xmlns:xlink="http://www.w3.org/1999/xlink"><symbol viewBox="0 0 512 473.8" id="icon-cart" xmlns="http://www.w3.org/2000/svg"><path d="M214.7 383.7c-24.8 0-45 20.2-45 45s20.2 45 45 45 45-20.2 45-45-20.2-45-45-45zm0 64.9c-11 0-19.9-8.9-19.9-19.9 0-11 8.9-19.9 19.9-19.9s19.9 8.9 19.9 19.9c0 11-8.9 19.9-19.9 19.9zm157.9-64.9c-24.8 0-45 20.2-45 45s20.2 45 45 45 45-20.2 45-45c.1-24.8-20.1-45-45-45zm0 64.9c-11 0-19.9-8.9-19.9-19.9 0-11 8.9-19.9 19.9-19.9 11 0 19.9 8.9 19.9 19.9 0 11-8.9 19.9-19.9 19.9zm133.7-358c-4.8-5.9-11.9-9.3-19.5-9.3H95.3L87.4 43c-1.7-8-7.1-14.7-14.6-18L17.6 1C11.2-1.7 3.8 1.2 1 7.6c-2.8 6.4.2 13.8 6.5 16.5l55.2 24 60.8 295.3c2.4 11.6 12.8 20.1 24.6 20.1h301.2c6.9 0 12.6-5.6 12.6-12.6 0-6.9-5.6-12.6-12.6-12.6H148.2l-7.4-35.9h310.9c11.9 0 22.2-8.4 24.6-20.1l35.2-170.7c1.5-7.4-.4-15.1-5.2-21zm-54.6 186.6H135.6l-35.2-170.7h386.4l-35.1 170.7z"/></symbol><symbol viewBox="0 0 304 416" id="icon-diagram" xmlns="http://www.w3.org/2000/svg"><path d="M0 104v304c0 4.4 3.6 8 8 8h64c4.4 0 8-3.6 8-8V104c0-4.4-3.6-8-8-8H8c-4.4 0-8 3.6-8 8zm16 8h48v288H16V112zm104 304h64c4.4 0 8-3.6 8-8V8c0-4.4-3.6-8-8-8h-64c-4.4 0-8 3.6-8 8v400c0 4.4 3.6 8 8 8zm8-400h48v384h-48V16zm104 400h64c4.4 0 8-3.6 8-8V216c0-4.4-3.6-8-8-8h-64c-4.4 0-8 3.6-8 8v192c0 4.4 3.6 8 8 8zm8-192h48v176h-48V224z"/></symbol><symbol viewBox="0 0 471.7 414.7" id="icon-heart" xmlns="http://www.w3.org/2000/svg"><path d="M433.6 38.5C408.9 13.8 376.2.3 341.3.3s-67.7 13.6-92.4 38.3L236 51.5l-13.1-13.1C198.2 13.7 165.3 0 130.4 0 95.6 0 62.8 13.6 38.2 38.2 13.5 62.9-.1 95.7 0 130.6c0 34.9 13.7 67.6 38.4 92.3l187.8 187.8c2.6 2.6 6.1 4 9.5 4s6.9-1.3 9.5-3.9l188.2-187.5c24.7-24.7 38.3-57.5 38.3-92.4.1-34.9-13.4-67.7-38.1-92.4zm-19.2 165.7l-178.7 178L57.4 203.9C37.8 184.3 27 158.3 27 130.6s10.7-53.7 30.3-73.2c19.5-19.5 45.5-30.3 73.1-30.3 27.7 0 53.8 10.8 73.4 30.4l22.6 22.6c5.3 5.3 13.8 5.3 19.1 0l22.4-22.4c19.6-19.6 45.7-30.4 73.3-30.4 27.6 0 53.6 10.8 73.2 30.3 19.6 19.6 30.3 45.6 30.3 73.3.1 27.7-10.7 53.7-30.3 73.3z"/></symbol><symbol viewBox="0 0 471.7 414.7" id="icon-heart-full" xmlns="http://www.w3.org/2000/svg"><path class="dst0" d="M433.6 38.5C408.9 13.8 376.2.3 341.3.3s-67.7 13.6-92.4 38.3L236 51.5l-13.1-13.1C198.2 13.7 165.3 0 130.4 0 95.6 0 62.8 13.6 38.2 38.2 13.5 62.9-.1 95.7 0 130.6c0 34.9 13.7 67.6 38.4 92.3l187.8 187.8c2.6 2.6 6.1 4 9.5 4s6.9-1.3 9.5-3.9l188.2-187.5c24.7-24.7 38.3-57.5 38.3-92.4.1-34.9-13.4-67.7-38.1-92.4z"/></symbol><symbol viewBox="0 0 371 512" id="icon-payment" xmlns="http://www.w3.org/2000/svg"><path d="M360.8 0H10.2C4.6 0 0 4.6 0 10.2v491.6c0 5.6 4.6 10.2 10.2 10.2h266.6c2.7 0 5.3-1.1 7.2-3l84-84c1.9-1.9 3-4.5 3-7.2V10.2C371 4.6 366.4 0 360.8 0zm-73.9 477.2v-49.3h49.3l-49.3 49.3zm63.7-69.6l-73.9-.1c-2.7 0-5.3 1.1-7.2 3-1.9 1.9-3 4.5-3 7.2l.1 73.9H20.4V20.4h330.2v387.2z"/><path d="M104.5 368C78.9 368 58 388.8 58 414.5c0 25.6 20.9 46.5 46.5 46.5s46.5-20.9 46.5-46.5c0-25.7-20.9-46.5-46.5-46.5zm0 72.6c-14.4 0-26.1-11.7-26.1-26.1s11.7-26.1 26.1-26.1 26.1 11.7 26.1 26.1-11.7 26.1-26.1 26.1zm133-34.7h-56.1c-5.6 0-10.2 4.6-10.2 10.2s4.6 10.2 10.2 10.2h56.1c5.6 0 10.2-4.6 10.2-10.2s-4.6-10.2-10.2-10.2zM100.8 61.2H71.2c-5.6 0-10.2 4.6-10.2 10.2s4.6 10.2 10.2 10.2h29.6c5.6 0 10.2-4.6 10.2-10.2s-4.5-10.2-10.2-10.2zm203 0h-88.7c-5.6 0-10.2 4.6-10.2 10.2s4.6 10.2 10.2 10.2h88.7c5.6 0 10.2-4.6 10.2-10.2s-4.6-10.2-10.2-10.2zm0 43.9h-151c-5.6 0-10.2 4.6-10.2 10.2s4.6 10.2 10.2 10.2h150.9c5.6 0 10.2-4.6 10.2-10.2.1-5.7-4.5-10.2-10.1-10.2zm.5 80.5H66.7c-5.6 0-10.2 4.6-10.2 10.2S61 206 66.7 206h237.6c5.6 0 10.2-4.6 10.2-10.2s-4.6-10.2-10.2-10.2zm0 34.7H66.7c-5.6 0-10.2 4.6-10.2 10.2s4.6 10.2 10.2 10.2h237.6c5.6 0 10.2-4.6 10.2-10.2s-4.6-10.2-10.2-10.2zm0 37.7H66.7c-5.6 0-10.2 4.6-10.2 10.2s4.6 10.2 10.2 10.2h237.6c5.6 0 10.2-4.6 10.2-10.2s-4.6-10.2-10.2-10.2zm0 34.7h-5.6c-5.6 0-10.2 4.6-10.2 10.2s4.6 10.2 10.2 10.2h5.6c5.6 0 10.2-4.6 10.2-10.2s-4.6-10.2-10.2-10.2zm-41.3 0H66.7c-5.6 0-10.2 4.6-10.2 10.2s4.6 10.2 10.2 10.2H263c5.6 0 10.2-4.6 10.2-10.2s-4.6-10.2-10.2-10.2z"/></symbol><symbol viewBox="0 0 57 57" id="icon-search" xmlns="http://www.w3.org/2000/svg"><path d="M55.1 51.9L41.6 37.8C45.1 33.6 47 28.4 47 23 47 10.3 36.7 0 24 0S1 10.3 1 23s10.3 23 23 23c4.8 0 9.3-1.4 13.2-4.2L50.8 56c.6.6 1.3.9 2.2.9.8 0 1.5-.3 2.1-.8 1.2-1.1 1.2-3 0-4.2zM24 6c9.4 0 17 7.6 17 17s-7.6 17-17 17S7 32.4 7 23 14.6 6 24 6z"/></symbol><symbol viewBox="0 0 512 512" id="icon-user" xmlns="http://www.w3.org/2000/svg"><path d="M437 331c-27.9-27.9-61.1-48.5-97.3-61 38.8-26.7 64.3-71.4 64.3-122C404 66.4 337.6 0 256 0S108 66.4 108 148c0 50.5 25.5 95.3 64.3 122-36.2 12.5-69.4 33.1-97.3 61C26.6 379.3 0 443.6 0 512h40c0-119.1 96.9-216 216-216s216 96.9 216 216h40c0-68.4-26.6-132.7-75-181zm-181-75c-59.6 0-108-48.4-108-108S196.4 40 256 40s108 48.4 108 108-48.4 108-108 108z"/></symbol><symbol viewBox="0 0 270.4 98.1" id="iconSheer"><path d="M175.1 51.8c.2 1.2.3 2.1.5 3 2 8.4 8.6 14 17.2 14.7 7.6.6 13.6-2.3 18-8.5 2.2-3 5.7-3.5 8.5-1.1 1.6 1.4 1.8 3.2.5 4.9-.7.9-1.4 1.8-2.1 2.8-2.9 4-6.7 6.7-11.4 8.3-7.6 2.6-15.2 3-22.7.2-10.1-3.7-16.1-11.1-17.8-21.7-1-6.5-.4-13 2.6-18.9 4.3-8.4 11.1-13.6 20.5-15.1 6.2-1 12.4-.4 18.2 2.4 8.2 3.9 13.2 10.5 15.1 19.3.5 2.4.7 4.9.9 7.3.2 1.5-.5 2.2-2.1 2.3h-44.1c-.4.1-.9.1-1.8.1zm38.3-9.2c-1.2-7.9-10.7-14.7-19.4-14.2-9.1.5-18.2 7.5-18.5 14.2h37.9zm-101 9c.1.8.2 1.4.3 2 1.7 9.3 9.3 15.7 18.7 15.9 7.1.1 12.7-2.8 16.8-8.6 2.2-3.1 6.1-3.4 8.8-.7 1.3 1.4 1.5 3 .3 4.6-.5.8-1.1 1.5-1.7 2.2-3.1 4.5-7.3 7.4-12.5 9.1-7.6 2.5-15.2 2.7-22.5-.2-10.6-4.1-16.4-12.1-17.6-23.3-.6-5.4-.1-10.7 2.2-15.6 4.3-9.4 11.4-15.2 21.8-16.6 5.5-.7 11-.3 16.1 1.8 9.2 3.8 14.6 10.9 16.6 20.6.4 2.2.6 4.5.7 6.7.1 1.8-.3 2.2-2.2 2.2h-43.5c-.7-.1-1.4-.1-2.3-.1zm38.4-9.1c-1.2-7.8-10.4-14.4-19.4-14.2-8.8.2-17.9 7.2-18.6 14.2h38zm101 13.5c.7.6 1.1 1 1.5 1.4 4.9 4.2 9.8 8.3 14.6 12.5.3.3.7.6 1 .9 1.8 1.8 2 4.4.3 6.2-1.6 1.8-4.2 2.1-6.1.5-3.4-2.8-6.7-5.7-10-8.5-4.8-4.1-9.5-8.1-14.3-12.2-.4-.4-.9-.7-1.6-1.3 0 1-.1 1.6-.1 2.3v36.1c-.2 2.5-2.1 4.3-4.6 4.2-2.4-.1-4.1-1.9-4.2-4.4V21.9c0-1.6.2-1.9 1.7-1.9 2.1-.1 4.2-.1 6.2-.1 5 0 10.1.2 15.1-.1 8.4-.4 17.8 6.4 18.7 16.3.8 8.9-5.2 17.3-14.3 19.1-1.1.2-2.3.5-3.9.8zm-15.3-6.9c.5.1.9.1 1.2.1h12.6c1.2 0 2.4-.1 3.6-.5 3.9-1.2 7-3.5 8-7.7 1.7-7.1-3.6-13.7-10.9-13.7h-13c-.5 0-1 .1-1.5.1v21.7zM88.5 52H63.9c0 .7-.1 1.4-.1 2v18.9c0 .8 0 1.6-.2 2.3-.6 1.9-2.6 3.1-4.5 3-2.1-.2-3.8-1.8-4.1-3.9-.1-.5 0-1 0-1.5V5.4c0-.9.1-1.8.4-2.6.6-2 2.6-3 4.7-2.8 1.9.3 3.5 2 3.7 3.9.1.6 0 1.2 0 1.8v34.7c0 .7.1 1.4.1 2 1.5.4 22.9.4 24.5 0 0-.5.1-1.1.1-1.7V23.9c.2-2.3 1.9-4 4.2-4.1 2.3-.1 4.3 1.6 4.6 3.9.1.5 0 1 0 1.5v48.9c-.3 2.3-2.3 4.1-4.5 4-2.3-.1-4.1-1.9-4.3-4.2V52zM25 78.3c-5.9-.1-11.4-1.4-16.5-4.4-2.2-1.3-4.2-2.9-5.8-4.8-.8-1-1.6-2.1-2.2-3.3-1-1.9-.6-3.4.9-4.9 1.7-1.6 4.1-2.3 6.4-.7C9 61 10 62 10.9 63c.9.9 1.6 1.9 2.5 2.8 2.7 2.7 6 4.2 9.8 4.6 3.5.4 7 .3 10.4-.9 1.4-.5 2.8-1.2 4-2.1 2.9-2.2 3-5.9.2-8.2-1.3-1.1-2.9-1.9-4.5-2.6-4-1.7-8.1-2.9-12.3-4-3.4-.8-6.7-1.9-10.1-2.9-1.3-.4-2.5-1.1-3.7-1.7-3.2-1.7-5-4.4-5.5-7.9-1-7.1 1.7-12.8 8.1-15.9 9.8-4.8 19.7-5.2 29.4.4 1.8 1 3.5 2.5 5.1 3.9 1.2 1 2 2.5 2.5 4 .8 2.6-.5 3.9-2.8 4.4-2 .4-3.8-.2-5.2-1.7-.3-.3-.5-.6-.7-.9-2.3-3.4-5.6-5.3-9.6-6.1-4-.7-8-.6-11.8.9-1.4.5-2.8 1.3-3.9 2.3-2.7 2.3-2.7 5.4-.1 7.8 1.7 1.6 3.7 2.5 5.9 3 4.8 1.2 9.7 2.4 14.5 3.6 3.1.8 6.1 1.8 8.9 3.4 3.6 1.9 6.2 4.7 7.1 8.8 1.1 5 0 9.4-3.9 13-4.4 4-9.5 6.3-15.4 7-1.7.1-3.3.2-4.8.3z"/></symbol></svg>