<?xml version="1.0" encoding="utf-8"?><svg xmlns="http://www.w3.org/2000/svg" xmlns:xlink="http://www.w3.org/1999/xlink"><symbol viewBox="0 0 512 473.8" id="icon-cart" xmlns="http://www.w3.org/2000/svg"><path d="M214.7 383.7c-24.8 0-45 20.2-45 45s20.2 45 45 45 45-20.2 45-45-20.2-45-45-45zm0 64.9c-11 0-19.9-8.9-19.9-19.9 0-11 8.9-19.9 19.9-19.9s19.9 8.9 19.9 19.9c0 11-8.9 19.9-19.9 19.9zm157.9-64.9c-24.8 0-45 20.2-45 45s20.2 45 45 45 45-20.2 45-45c.1-24.8-20.1-45-45-45zm0 64.9c-11 0-19.9-8.9-19.9-19.9 0-11 8.9-19.9 19.9-19.9 11 0 19.9 8.9 19.9 19.9 0 11-8.9 19.9-19.9 19.9zm133.7-358c-4.8-5.9-11.9-9.3-19.5-9.3H95.3L87.4 43c-1.7-8-7.1-14.7-14.6-18L17.6 1C11.2-1.7 3.8 1.2 1 7.6c-2.8 6.4.2 13.8 6.5 16.5l55.2 24 60.8 295.3c2.4 11.6 12.8 20.1 24.6 20.1h301.2c6.9 0 12.6-5.6 12.6-12.6 0-6.9-5.6-12.6-12.6-12.6H148.2l-7.4-35.9h310.9c11.9 0 22.2-8.4 24.6-20.1l35.2-170.7c1.5-7.4-.4-15.1-5.2-21zm-54.6 186.6H135.6l-35.2-170.7h386.4l-35.1 170.7z"/></symbol><symbol viewBox="0 0 304 416" id="icon-diagram" xmlns="http://www.w3.org/2000/svg"><path d="M0 104v304c0 4.4 3.6 8 8 8h64c4.4 0 8-3.6 8-8V104c0-4.4-3.6-8-8-8H8c-4.4 0-8 3.6-8 8zm16 8h48v288H16V112zm104 304h64c4.4 0 8-3.6 8-8V8c0-4.4-3.6-8-8-8h-64c-4.4 0-8 3.6-8 8v400c0 4.4 3.6 8 8 8zm8-400h48v384h-48V16zm104 400h64c4.4 0 8-3.6 8-8V216c0-4.4-3.6-8-8-8h-64c-4.4 0-8 3.6-8 8v192c0 4.4 3.6 8 8 8zm8-192h48v176h-48V224z"/></symbol><symbol viewBox="0 0 355 261.7" id="icon-form-message" xmlns="http://www.w3.org/2000/svg"><path d="M317.1 0H37.9C17 0 0 17 0 37.9v153.3C0 212 17 229 37.9 229h17.4l-5.9 23.3c-.7 2.8.3 5.8 2.5 7.6 1.4 1.1 3.1 1.7 4.8 1.7 1.1 0 2.1-.2 3.2-.7l69-32h188.3c20.9 0 37.9-17 37.9-37.9V37.9C355 17 338 0 317.1 0zM340 191.1c0 12.6-10.3 22.9-22.9 22.9h-190c-1.1 0-2.2.2-3.2.7l-56.2 26 4.4-17.4c.6-2.2.1-4.6-1.3-6.5S67.3 214 65 214H37.9C25.3 214 15 203.7 15 191.1V37.9C15 25.3 25.3 15 37.9 15h279.3c12.6 0 22.9 10.3 22.9 22.9v153.2h-.1z"/><path d="M281.6 57.3H76c-3.5 0-6.4 3.4-6.4 7.5s2.9 7.5 6.4 7.5h205.6c3.5 0 6.4-3.4 6.4-7.5s-2.9-7.5-6.4-7.5zm0 50.9H76c-3.5 0-6.4 3.4-6.4 7.5s2.9 7.5 6.4 7.5h205.6c3.5 0 6.4-3.4 6.4-7.5s-2.9-7.5-6.4-7.5zm0 50.8H76c-3.5 0-6.4 3.4-6.4 7.5s2.9 7.5 6.4 7.5h205.6c3.5 0 6.4-3.4 6.4-7.5s-2.9-7.5-6.4-7.5z"/></symbol><symbol viewBox="0 0 27 36.1" id="icon-form-tel" xmlns="http://www.w3.org/2000/svg"><path d="M4.1.5L3 1.2C1.7 2 .7 3.5.3 5.3c-1.1 4.7.8 11.6 4.9 18.2 6 9.5 14.3 14.7 19 11.8l1.1-.7c.8-.5 1.4-1.3 1.6-2.2.2-.9.1-1.9-.4-2.7l-2.7-4.3c-1-1.7-3.2-2.2-4.9-1.1l-1.1.7c-1.1.7-3.5-.3-6.5-5.2-2.6-4.2-2.7-6.3-2.5-7.2.1-.5.3-.8.7-1l1.1-.7c1.6-1 2.1-3.3 1.1-4.9L8.9 1.7C8.4.9 7.7.3 6.7.1 5.8-.1 4.9 0 4.1.5zm3.1 2.2L9.9 7c.4.7.2 1.7-.5 2.1l-1 .7c-.8.5-1.3 1.3-1.6 2.3-.5 2.1.4 5 2.7 8.7 4.7 7.6 8.1 6.6 9.3 5.8l1.1-.7c.7-.4 1.7-.2 2.1.5l2.7 4.3c.4.7.2 1.7-.5 2.1l-1.1.7C19.5 35.8 12 30.7 6.9 22.4c-3.8-6-5.6-12.6-4.7-16.6.3-1.4.9-2.3 1.8-2.9l1.1-.7c.4-.2.8-.2 1.2-.1.4.1.7.3.9.6z"/></symbol><symbol viewBox="0 0 32 32" id="icon-form-user" xmlns="http://www.w3.org/2000/svg"><path d="M16 22c5 0 9-4.9 9-11S21 0 16 0c-2.4 0-4.7 1.2-6.4 3.3C7.9 5.4 7 8.1 7 11c0 6.1 4 11 9 11zm0-20c3.9 0 7 4 7 9s-3.1 9-7 9-7-4-7-9 3.1-9 7-9zm7 18c-.6 0-1 .4-1 1s.4 1 1 1c3.9 0 7 3.1 7 7 0 .6-.4 1-1 1H3c-.6 0-1-.4-1-1 0-3.9 3.1-7 7-7 .6 0 1-.4 1-1s-.4-1-1-1c-5 0-9 4-9 9 0 1.7 1.3 3 3 3h26c1.7 0 3-1.3 3-3 0-5-4-9-9-9z"/></symbol><symbol viewBox="0 0 471.7 414.7" id="icon-heart" xmlns="http://www.w3.org/2000/svg"><path d="M433.6 38.5C408.9 13.8 376.2.3 341.3.3s-67.7 13.6-92.4 38.3L236 51.5l-13.1-13.1C198.2 13.7 165.3 0 130.4 0 95.6 0 62.8 13.6 38.2 38.2 13.5 62.9-.1 95.7 0 130.6c0 34.9 13.7 67.6 38.4 92.3l187.8 187.8c2.6 2.6 6.1 4 9.5 4s6.9-1.3 9.5-3.9l188.2-187.5c24.7-24.7 38.3-57.5 38.3-92.4.1-34.9-13.4-67.7-38.1-92.4zm-19.2 165.7l-178.7 178L57.4 203.9C37.8 184.3 27 158.3 27 130.6s10.7-53.7 30.3-73.2c19.5-19.5 45.5-30.3 73.1-30.3 27.7 0 53.8 10.8 73.4 30.4l22.6 22.6c5.3 5.3 13.8 5.3 19.1 0l22.4-22.4c19.6-19.6 45.7-30.4 73.3-30.4 27.6 0 53.6 10.8 73.2 30.3 19.6 19.6 30.3 45.6 30.3 73.3.1 27.7-10.7 53.7-30.3 73.3z"/></symbol><symbol viewBox="0 0 471.7 414.7" id="icon-heart-full" xmlns="http://www.w3.org/2000/svg"><path class="gst0" d="M433.6 38.5C408.9 13.8 376.2.3 341.3.3s-67.7 13.6-92.4 38.3L236 51.5l-13.1-13.1C198.2 13.7 165.3 0 130.4 0 95.6 0 62.8 13.6 38.2 38.2 13.5 62.9-.1 95.7 0 130.6c0 34.9 13.7 67.6 38.4 92.3l187.8 187.8c2.6 2.6 6.1 4 9.5 4s6.9-1.3 9.5-3.9l188.2-187.5c24.7-24.7 38.3-57.5 38.3-92.4.1-34.9-13.4-67.7-38.1-92.4z"/></symbol><symbol viewBox="0 0 44 48" id="icon-menu-1" xmlns="http://www.w3.org/2000/svg"><path class="hst0" d="M29.6 38.7C34 42 43 40.5 43 45.7V47m-31-1.2c.5.5 1.5.7 2.5.8 1 .1 2 .1 2.8.4M32 45.8c-.5.5-1.5.7-2.5.8-1 .1-2 .1-2.8.4M32 16.9c-2.4-2.3-6-3.7-8.9-5.4l-1-.7"/><path class="hst0" d="M29.5 2.6C27.3 1 24.8 1 22.1 1 13.9 1 7.5 8.8 6.6 18.5L5.3 36.4m11.4-1.9C15.7 42.8 1 39 1 45.7V47m21.1-11c4.3 0 8.6-3.6 10.8-8.3h.1c2.5-2.2 4-5.8 4-9.1 0-3.8-.7-8.9-3.7-11.4"/><path class="hst0" d="M29.6 2.7C29.4 9.4 9.9 13.2 9.9 22.1c.4 7 6.3 13.8 12.2 13.8m14-12.9l3.3 18.9"/></symbol><symbol id="icon-menu-2" viewBox="0 0 48 46.4" xml:space="preserve" xmlns="http://www.w3.org/2000/svg"><style>.ist0{fill:none;stroke:#454545;stroke-width:2;stroke-linecap:round;stroke-linejoin:round;stroke-miterlimit:10}</style><path class="ist0" d="M4.6 2.4c25.7.7 7 43 22.6 43 9.4 0 19.8-6.3 19.8-10.1 0-4-3-3.4-3-6.1 0-1.2-1.8-1.2-1.8-1.2s.3-3-.6-3c-.9 0-1.7.1-1.7-1 0-1.6.9-4.7-1.6-4.7-1.9 0-7.8-.4-7.8-3.8 0-3-7.9-7.1-10.6-7.1M1 1c20.8 5.4 2.2 39.5 13.2 44.4"/><path class="ist0" d="M28.3 18.3c-1.5 0-3 .6-4 2-.7.9-1 2-.9 3.1m6.5-.9c-.3.5-.9 1.1-1.5 1.6s-1.4 1-1.9 1.1M42.1 28c-.7.9-1.4 1.8-2.2 2.5"/></symbol><symbol id="icon-menu-3" viewBox="0 0 39.8 48.4" xml:space="preserve" xmlns="http://www.w3.org/2000/svg"><style>.jst0{fill:none;stroke:#454545;stroke-width:2;stroke-linecap:round;stroke-linejoin:round;stroke-miterlimit:10}</style><path class="jst0" d="M35.4 1c0 3.7-3 6.8-6.7 6.8S22 4.7 22 1m-2.3 23.8v-1M32 13.4c.5 11.3 7.5 19 6.8 26.8-.3 2.7-.9 5-1.4 7.2"/><path class="jst0" d="M33 6.3c-.3.9-.6 1.9-.8 2.8-.3 1.3-.4 2.6-.2 3.9M6.5 6.3c.7 2 1.2 4 1.4 6.1v.6m29.8 24.6C33 39.1 26.9 40 20.3 40c-7.2 0-13.7-1.1-18.5-2.8"/><path class="jst0" d="M17.5 1c0 3.7-3 6.8-6.7 6.8S4.1 4.8 4.1 1M1.8 43.1l3.3.3c6.8.7 12.2 2.2 14.6 3.7 2.4-1.5 7.8-3 14.6-3.7 1.1-.1 2.3-.2 3.3-.3"/><path class="jst0" d="M7.8 13.4C7.3 24.7.3 32.4 1 40.2c.3 2.7.9 5 1.4 7.2"/></symbol><symbol id="icon-menu-4" viewBox="0 0 48 48" xml:space="preserve" xmlns="http://www.w3.org/2000/svg"><style>.kst0{fill:none;stroke:#454545;stroke-width:2;stroke-linecap:round;stroke-linejoin:round;stroke-miterlimit:10}</style><path class="kst0" d="M4 30.3V37c0 1.5 3.5 2.8 8 3m34-14.8c.6.6 1 1.2 1 1.8v15c0 2.8-6.7 5-15 5s-15-2.2-15-5V27c0-.6.4-1.2 1-1.8M12 31c-2.4 0-4.8-.2-7.2-.5-1-.1-1.7-1-1.7-2 0-10.7-.5-13.3-2.1-23.6V5 1h24v4H6.1M25 4.9c-.7 4.4-1.2 7.3-1.5 10.1"/><path class="kst0" d="M18 19v8c0 2.8 6.3 5 14 5s14-2.2 14-5v-8"/><path class="kst0" d="M18 19c0-2.8 6.3-5 14-5s14 2.2 14 5-6.3 5-14 5c-3.4 0-6.6-.4-9-1.2"/></symbol><symbol id="icon-menu-5" viewBox="0 0 48 48" xml:space="preserve" xmlns="http://www.w3.org/2000/svg"><style>.lst0{fill:none;stroke:#454545;stroke-width:2;stroke-linecap:round;stroke-linejoin:round;stroke-miterlimit:10}</style><circle class="lst0" cx="42" cy="6" r="5"/><circle class="lst0" cx="28" cy="6" r="5"/><path class="lst0" d="M12 1C9.2 1 7 3.2 7 6l1 14c0 2.2 1.8 4 4 4s4-1.8 4-4l1-14c0-2.8-2.2-5-5-5zm23 46c-2.8 0-5-2.2-5-5l1-14c0-2.2 1.8-4 4-4s4 1.8 4 4l1 14c0 2.8-2.2 5-5 5zm0-23v-5m7-8v4c0 2.2-1.8 4-4 4h-6c-2.2 0-4-1.8-4-4v-4M1 41v-7c0-2.2 1.8-4 4-4h14c2.2 0 4 1.8 4 4v7M12 24v6"/><path class="lst0" d="M4 46.1c2.3.6 5.1.9 8 .9s5.7-.3 8-.9V35.9c-2.3-.6-5.1-.9-8-.9s-5.7.3-8 .9v10.2z"/></symbol><symbol viewBox="0 0 21 26" id="icon-menu-6" xmlns="http://www.w3.org/2000/svg"><path d="M18.6 1.2c-.4-.3-1.1-.2-1.4.2l-16 22c-.3.4-.2 1.1.2 1.4.2.1.4.2.6.2.3 0 .6-.1.8-.4l16-22c.3-.5.2-1.1-.2-1.4zM5 10c2.8 0 5-2.2 5-5S7.8 0 5 0 0 2.2 0 5s2.2 5 5 5zm0-8c1.7 0 3 1.3 3 3S6.7 8 5 8 2 6.7 2 5s1.3-3 3-3zm11 14c-2.8 0-5 2.2-5 5s2.2 5 5 5 5-2.2 5-5-2.2-5-5-5zm0 8c-1.7 0-3-1.3-3-3s1.3-3 3-3 3 1.3 3 3-1.3 3-3 3z"/></symbol><symbol viewBox="0 0 371 512" id="icon-payment" xmlns="http://www.w3.org/2000/svg"><path d="M360.8 0H10.2C4.6 0 0 4.6 0 10.2v491.6c0 5.6 4.6 10.2 10.2 10.2h266.6c2.7 0 5.3-1.1 7.2-3l84-84c1.9-1.9 3-4.5 3-7.2V10.2C371 4.6 366.4 0 360.8 0zm-73.9 477.2v-49.3h49.3l-49.3 49.3zm63.7-69.6l-73.9-.1c-2.7 0-5.3 1.1-7.2 3-1.9 1.9-3 4.5-3 7.2l.1 73.9H20.4V20.4h330.2v387.2z"/><path d="M104.5 368C78.9 368 58 388.8 58 414.5c0 25.6 20.9 46.5 46.5 46.5s46.5-20.9 46.5-46.5c0-25.7-20.9-46.5-46.5-46.5zm0 72.6c-14.4 0-26.1-11.7-26.1-26.1s11.7-26.1 26.1-26.1 26.1 11.7 26.1 26.1-11.7 26.1-26.1 26.1zm133-34.7h-56.1c-5.6 0-10.2 4.6-10.2 10.2s4.6 10.2 10.2 10.2h56.1c5.6 0 10.2-4.6 10.2-10.2s-4.6-10.2-10.2-10.2zM100.8 61.2H71.2c-5.6 0-10.2 4.6-10.2 10.2s4.6 10.2 10.2 10.2h29.6c5.6 0 10.2-4.6 10.2-10.2s-4.5-10.2-10.2-10.2zm203 0h-88.7c-5.6 0-10.2 4.6-10.2 10.2s4.6 10.2 10.2 10.2h88.7c5.6 0 10.2-4.6 10.2-10.2s-4.6-10.2-10.2-10.2zm0 43.9h-151c-5.6 0-10.2 4.6-10.2 10.2s4.6 10.2 10.2 10.2h150.9c5.6 0 10.2-4.6 10.2-10.2.1-5.7-4.5-10.2-10.1-10.2zm.5 80.5H66.7c-5.6 0-10.2 4.6-10.2 10.2S61 206 66.7 206h237.6c5.6 0 10.2-4.6 10.2-10.2s-4.6-10.2-10.2-10.2zm0 34.7H66.7c-5.6 0-10.2 4.6-10.2 10.2s4.6 10.2 10.2 10.2h237.6c5.6 0 10.2-4.6 10.2-10.2s-4.6-10.2-10.2-10.2zm0 37.7H66.7c-5.6 0-10.2 4.6-10.2 10.2s4.6 10.2 10.2 10.2h237.6c5.6 0 10.2-4.6 10.2-10.2s-4.6-10.2-10.2-10.2zm0 34.7h-5.6c-5.6 0-10.2 4.6-10.2 10.2s4.6 10.2 10.2 10.2h5.6c5.6 0 10.2-4.6 10.2-10.2s-4.6-10.2-10.2-10.2zm-41.3 0H66.7c-5.6 0-10.2 4.6-10.2 10.2s4.6 10.2 10.2 10.2H263c5.6 0 10.2-4.6 10.2-10.2s-4.6-10.2-10.2-10.2z"/></symbol><symbol viewBox="0 0 57 57" id="icon-search" xmlns="http://www.w3.org/2000/svg"><path d="M55.1 51.9L41.6 37.8C45.1 33.6 47 28.4 47 23 47 10.3 36.7 0 24 0S1 10.3 1 23s10.3 23 23 23c4.8 0 9.3-1.4 13.2-4.2L50.8 56c.6.6 1.3.9 2.2.9.8 0 1.5-.3 2.1-.8 1.2-1.1 1.2-3 0-4.2zM24 6c9.4 0 17 7.6 17 17s-7.6 17-17 17S7 32.4 7 23 14.6 6 24 6z"/></symbol><symbol viewBox="0 0 512 512" id="icon-user" xmlns="http://www.w3.org/2000/svg"><path d="M437 331c-27.9-27.9-61.1-48.5-97.3-61 38.8-26.7 64.3-71.4 64.3-122C404 66.4 337.6 0 256 0S108 66.4 108 148c0 50.5 25.5 95.3 64.3 122-36.2 12.5-69.4 33.1-97.3 61C26.6 379.3 0 443.6 0 512h40c0-119.1 96.9-216 216-216s216 96.9 216 216h40c0-68.4-26.6-132.7-75-181zm-181-75c-59.6 0-108-48.4-108-108S196.4 40 256 40s108 48.4 108 108-48.4 108-108 108z"/></symbol><symbol viewBox="0 0 270.4 98.1" id="iconSheer"><path d="M175.1 51.8c.2 1.2.3 2.1.5 3 2 8.4 8.6 14 17.2 14.7 7.6.6 13.6-2.3 18-8.5 2.2-3 5.7-3.5 8.5-1.1 1.6 1.4 1.8 3.2.5 4.9-.7.9-1.4 1.8-2.1 2.8-2.9 4-6.7 6.7-11.4 8.3-7.6 2.6-15.2 3-22.7.2-10.1-3.7-16.1-11.1-17.8-21.7-1-6.5-.4-13 2.6-18.9 4.3-8.4 11.1-13.6 20.5-15.1 6.2-1 12.4-.4 18.2 2.4 8.2 3.9 13.2 10.5 15.1 19.3.5 2.4.7 4.9.9 7.3.2 1.5-.5 2.2-2.1 2.3h-44.1c-.4.1-.9.1-1.8.1zm38.3-9.2c-1.2-7.9-10.7-14.7-19.4-14.2-9.1.5-18.2 7.5-18.5 14.2h37.9zm-101 9c.1.8.2 1.4.3 2 1.7 9.3 9.3 15.7 18.7 15.9 7.1.1 12.7-2.8 16.8-8.6 2.2-3.1 6.1-3.4 8.8-.7 1.3 1.4 1.5 3 .3 4.6-.5.8-1.1 1.5-1.7 2.2-3.1 4.5-7.3 7.4-12.5 9.1-7.6 2.5-15.2 2.7-22.5-.2-10.6-4.1-16.4-12.1-17.6-23.3-.6-5.4-.1-10.7 2.2-15.6 4.3-9.4 11.4-15.2 21.8-16.6 5.5-.7 11-.3 16.1 1.8 9.2 3.8 14.6 10.9 16.6 20.6.4 2.2.6 4.5.7 6.7.1 1.8-.3 2.2-2.2 2.2h-43.5c-.7-.1-1.4-.1-2.3-.1zm38.4-9.1c-1.2-7.8-10.4-14.4-19.4-14.2-8.8.2-17.9 7.2-18.6 14.2h38zm101 13.5c.7.6 1.1 1 1.5 1.4 4.9 4.2 9.8 8.3 14.6 12.5.3.3.7.6 1 .9 1.8 1.8 2 4.4.3 6.2-1.6 1.8-4.2 2.1-6.1.5-3.4-2.8-6.7-5.7-10-8.5-4.8-4.1-9.5-8.1-14.3-12.2-.4-.4-.9-.7-1.6-1.3 0 1-.1 1.6-.1 2.3v36.1c-.2 2.5-2.1 4.3-4.6 4.2-2.4-.1-4.1-1.9-4.2-4.4V21.9c0-1.6.2-1.9 1.7-1.9 2.1-.1 4.2-.1 6.2-.1 5 0 10.1.2 15.1-.1 8.4-.4 17.8 6.4 18.7 16.3.8 8.9-5.2 17.3-14.3 19.1-1.1.2-2.3.5-3.9.8zm-15.3-6.9c.5.1.9.1 1.2.1h12.6c1.2 0 2.4-.1 3.6-.5 3.9-1.2 7-3.5 8-7.7 1.7-7.1-3.6-13.7-10.9-13.7h-13c-.5 0-1 .1-1.5.1v21.7zM88.5 52H63.9c0 .7-.1 1.4-.1 2v18.9c0 .8 0 1.6-.2 2.3-.6 1.9-2.6 3.1-4.5 3-2.1-.2-3.8-1.8-4.1-3.9-.1-.5 0-1 0-1.5V5.4c0-.9.1-1.8.4-2.6.6-2 2.6-3 4.7-2.8 1.9.3 3.5 2 3.7 3.9.1.6 0 1.2 0 1.8v34.7c0 .7.1 1.4.1 2 1.5.4 22.9.4 24.5 0 0-.5.1-1.1.1-1.7V23.9c.2-2.3 1.9-4 4.2-4.1 2.3-.1 4.3 1.6 4.6 3.9.1.5 0 1 0 1.5v48.9c-.3 2.3-2.3 4.1-4.5 4-2.3-.1-4.1-1.9-4.3-4.2V52zM25 78.3c-5.9-.1-11.4-1.4-16.5-4.4-2.2-1.3-4.2-2.9-5.8-4.8-.8-1-1.6-2.1-2.2-3.3-1-1.9-.6-3.4.9-4.9 1.7-1.6 4.1-2.3 6.4-.7C9 61 10 62 10.9 63c.9.9 1.6 1.9 2.5 2.8 2.7 2.7 6 4.2 9.8 4.6 3.5.4 7 .3 10.4-.9 1.4-.5 2.8-1.2 4-2.1 2.9-2.2 3-5.9.2-8.2-1.3-1.1-2.9-1.9-4.5-2.6-4-1.7-8.1-2.9-12.3-4-3.4-.8-6.7-1.9-10.1-2.9-1.3-.4-2.5-1.1-3.7-1.7-3.2-1.7-5-4.4-5.5-7.9-1-7.1 1.7-12.8 8.1-15.9 9.8-4.8 19.7-5.2 29.4.4 1.8 1 3.5 2.5 5.1 3.9 1.2 1 2 2.5 2.5 4 .8 2.6-.5 3.9-2.8 4.4-2 .4-3.8-.2-5.2-1.7-.3-.3-.5-.6-.7-.9-2.3-3.4-5.6-5.3-9.6-6.1-4-.7-8-.6-11.8.9-1.4.5-2.8 1.3-3.9 2.3-2.7 2.3-2.7 5.4-.1 7.8 1.7 1.6 3.7 2.5 5.9 3 4.8 1.2 9.7 2.4 14.5 3.6 3.1.8 6.1 1.8 8.9 3.4 3.6 1.9 6.2 4.7 7.1 8.8 1.1 5 0 9.4-3.9 13-4.4 4-9.5 6.3-15.4 7-1.7.1-3.3.2-4.8.3z"/></symbol></svg>