<?xml version="1.0" encoding="utf-8"?>
<!-- Generator: Adobe Illustrator 22.1.0, SVG Export Plug-In . SVG Version: 6.00 Build 0)  -->
<svg version="1.1" id="Layer_1" xmlns="http://www.w3.org/2000/svg" xmlns:xlink="http://www.w3.org/1999/xlink" x="0px" y="0px"
	 viewBox="0 0 496 496" style="enable-background:new 0 0 496 496;" xml:space="preserve">
<path d="M485.4,434.1l-18.1-18.1h28.3V64.3H79.9v-64H40c-22,0-40,17.9-40,40v335.8c0,22,17.9,40,40,40h324.8l69.3,69.3
	c6.8,6.8,16,10.6,25.6,10.6c20,0,36.3-16.3,36.3-36.3C496,450.1,492.2,441,485.4,434.1z M275.5,275.8l29.3,8.3L284,304.9
	L275.5,275.8z M320.1,291.5l130.1,130.1l-28.7,28.7L291.5,320.1L320.1,291.5z M16,40.3c0-13.2,10.8-24,24-24h24v319.8H40
	c-9,0-17.3,3-24,8V40.3z M40,400.1c-13.2,0-24-10.8-24-24c0-13.2,10.8-24,24-24h40V80.3h399.7v319.8h-28.3l-127-127l-72.2-20.5
	l20.9,71.8l75.7,75.7H40z M459.7,480c-5.4,0-10.5-2.1-14.3-5.9l-12.5-12.5l28.7-28.7l12.5,12.5c3.8,3.8,5.9,8.9,5.9,14.3
	C480,470.9,470.9,480,459.7,480z"/>
<path d="M127.9,128.2v157.9l157.9-157.9H127.9z M143.9,144.2h103.4L143.9,247.6V144.2z"/>
<path d="M271.8,240.2h127.9v-32.6c2.6,0.4,5.3,0.6,8,0.6c30.9,0,56-25.1,56-56s-25.1-56-56-56c-15.2,0-29,6.1-39.1,16h-21.6l16-16
	H95.9v267.1l175.9-175.9V240.2z M407.7,112.3c22,0,40,17.9,40,40s-17.9,40-40,40s-40-17.9-40-40S385.7,112.3,407.7,112.3z
	 M357.2,128.2c-3.5,7.3-5.5,15.4-5.5,24c0,22.3,13.1,41.5,32,50.5v21.5h-95.9v-52.7l43.3-43.3H357.2z M111.9,112.3h212.5
	L111.9,324.8V112.3z"/>
<path d="M119.9,368.1h16v16h-16V368.1z"/>
<path d="M151.9,368.1h111.9v16H151.9V368.1z"/>
</svg>
