<?xml version="1.0" encoding="utf-8"?>
<!-- Generator: Adobe Illustrator 22.1.0, SVG Export Plug-In . SVG Version: 6.00 Build 0)  -->
<svg version="1.1" id="Layer_1" xmlns="http://www.w3.org/2000/svg" xmlns:xlink="http://www.w3.org/1999/xlink" x="0px" y="0px"
	 viewBox="0 0 496 496" style="enable-background:new 0 0 496 496;" xml:space="preserve">
<path d="M496,336V210.7c0-19.3-13.8-35.9-32.8-39.4l-55.2-10v-15.4c14.6-11.7,24-29.7,24-49.9V80h16V64h-16v-8c0-30.9-25.1-56-56-56
	h-16c-30.9,0-56,25.1-56,56v8h-16v16h16v16c0,19.1,8.5,36.3,21.8,48h-68.7l-8.4-14.7c0.8-1.8,1.6-3.6,2.3-5.5l21-5.7V73.9l-21-5.7
	c-0.7-1.8-1.5-3.7-2.3-5.5l10.8-18.9l-31.3-31.3l-18.9,10.8c-1.8-0.8-3.6-1.6-5.5-2.3l-5.7-21h-44.2l-5.7,21
	c-1.8,0.7-3.7,1.4-5.5,2.3l-18.9-10.8L92.5,43.8l10.8,18.9c-0.8,1.8-1.6,3.6-2.3,5.5l-21,5.7v44.2l21,5.7c0.7,1.8,1.5,3.7,2.3,5.5
	L94.9,144H40c-22.1,0-40,17.9-40,40v272c0,22.1,17.9,40,40,40h56v-64h86.1l32,16H456c22.1,0,40-17.9,40-40s-17.9-40-40-40h-24v-32
	H496z M480,210.7V320h-32v-80h-16v80H304v-80h-16v80h-32V210.7c0-11.6,8.3-21.5,19.7-23.6l31.4-5.7l16.2,64.6l44.7-35.8l44.7,35.8
	l16.2-64.6l31.4,5.7C471.7,189.2,480,199.1,480,210.7z M333.3,176.6l22.7,22.7L332.7,218l-9.9-39.4L333.3,176.6z M413.1,178.5
	l-9.9,39.4L380,199.3l22.7-22.7L413.1,178.5z M392,164.7l-24,24l-24-24v-9.4c7.4,3,15.5,4.7,24,4.7s16.6-1.7,24-4.7V164.7z M416,56
	v8h-22.9l5.2-41.2C408.9,30,416,42.2,416,56z M376,16c2.3,0,4.6,0.3,6.8,0.7L376.9,64h-17.9l-5.9-47.3c2.2-0.4,4.5-0.7,6.8-0.7H376z
	 M320,56c0-13.8,7.1-26,17.8-33.2l5.2,41.2H320V56z M320,96V80h96v16c0,26.5-21.5,48-48,48S320,122.5,320,96z M119.4,125.8
	c-1.9-3.6-3.4-7.2-4.6-11l-1.3-4.2L96,105.9V86.1l17.5-4.8l1.3-4.2c1.2-3.7,2.7-7.4,4.6-11l2.1-3.9l-9-15.8l14-14l15.8,9l3.9-2.1
	c3.6-1.9,7.3-3.4,11-4.6l4.2-1.3l4.8-17.5h19.8l4.8,17.5l4.2,1.3c3.7,1.1,7.4,2.7,11,4.6l3.9,2.1l15.8-9l14,14l-9,15.8l2.1,3.9
	c1.9,3.6,3.4,7.2,4.6,11l1.3,4.2l17.5,4.8v19.8l-17.5,4.8l-1.3,4.2c-1.2,3.7-2.7,7.4-4.6,11l-2.1,3.9l8.1,14.3H113.3l8.1-14.3
	L119.4,125.8z M80,480H40c-13.2,0-24-10.8-24-24s10.8-24,24-24h40V480z M224,384h176v48H224V384z M208,427.1L169.9,408l38.1-19.1
	V427.1z M480,408c0,13.2-10.8,24-24,24h-40v-48h40C469.2,384,480,394.8,480,408z M416,368H214.1l-80,40l16,8H40
	c-9,0-17.3,3.1-24,8.2V184c0-13.2,10.8-24,24-24h288v1.3l-55.2,10c-19,3.5-32.8,20-32.8,39.4V336h176V368z"/>
<path d="M224,96c0-26.5-21.5-48-48-48s-48,21.5-48,48s21.5,48,48,48S224,122.5,224,96z M176,128c-17.6,0-32-14.4-32-32
	s14.4-32,32-32s32,14.4,32,32S193.6,128,176,128z"/>
<path d="M32,384h96v16H32V384z"/>
<path d="M144,176c-35.8,0-66.3,23.3-76.4,56.3L32,196.7V368h171.3l-35.6-35.6c33-10.1,56.3-40.7,56.3-76.4
	C224,211.9,188.1,176,144,176z M48,352V235.3L164.7,352H48z M154.4,319.1l-73.5-73.5c5-30.8,31.4-53.6,63.1-53.6
	c35.3,0,64,28.7,64,64C208,287.6,185.2,314.1,154.4,319.1z"/>
</svg>
