<?xml version="1.0" encoding="utf-8"?>
<!-- Generator: Adobe Illustrator 22.1.0, SVG Export Plug-In . SVG Version: 6.00 Build 0)  -->
<svg version="1.1" id="Layer_1" xmlns="http://www.w3.org/2000/svg" xmlns:xlink="http://www.w3.org/1999/xlink" x="0px" y="0px"
	 viewBox="0 0 498 498" style="enable-background:new 0 0 498 498;" xml:space="preserve">
<path d="M482,130.3h14.1l-57.6-95.9H267.5L226.2,0l-118,98.3h22.1v79.9h-48v-63.9h-40c-22,0-40,17.9-40,40V458c0,22,17.9,40,40,40
	h375.7V290.2H482V130.3z M429.5,50.4l38.4,63.9H322.1v-16h22.1l-57.6-48H429.5z M226.2,20.8l73.8,61.5H152.4L226.2,20.8z
	 M146.3,98.3h159.9v79.9h-32v-24c0-22-17.9-40-40-40h-16c-22,0-40,17.9-40,40v24h-32V98.3z M218.2,178.3h-24v-24
	c0-13.2,10.8-24,24-24V178.3z M234.2,130.3c13.2,0,24,10.8,24,24v24h-24V130.3z M18.4,154.3c0-13.2,10.8-24,24-24h24v287.8h-24
	c-9,0-17.3,3-24,8V154.3z M402.1,482H42.4c-13.2,0-24-10.8-24-24c0-13.2,10.8-24,24-24h40V194.3h319.7V482z M418.1,274.2v-95.9
	h-95.9v-48H466v143.9H418.1z"/>
<path d="M138.3,466h207.8c22,0,40-17.9,40-40V250.2c0-22-17.9-40-40-40H138.3c-22,0-40,17.9-40,40v175.9
	C98.3,448.1,116.3,466,138.3,466z M114.3,426.1v-56h95.9V450h-71.9C125.1,450,114.3,439.3,114.3,426.1z M274.2,226.2h32v95.9h63.9
	v32H258.2V450h-32v-95.9H114.3v-32h159.9V226.2z M346.1,450h-71.9v-79.9h95.9v56C370.1,439.3,359.3,450,346.1,450z M370.1,250.2v56
	h-48v-79.9h24C359.3,226.2,370.1,237,370.1,250.2z M138.3,226.2h119.9v79.9H114.3v-56C114.3,237,125.1,226.2,138.3,226.2z"/>
</svg>
