<?xml version="1.0" encoding="utf-8"?>
<!-- Generator: Adobe Illustrator 22.1.0, SVG Export Plug-In . SVG Version: 6.00 Build 0)  -->
<svg version="1.1" id="Layer_1" xmlns="http://www.w3.org/2000/svg" xmlns:xlink="http://www.w3.org/1999/xlink" x="0px" y="0px"
	 viewBox="0 0 496 496" style="enable-background:new 0 0 496 496;" xml:space="preserve">
<path d="M462,240.8V128c17.6,0,32-14.4,32-32s-14.4-32-32-32V0H186.7L110,76.7v33.7l-100.4,67l8.9,13.3L46,172.3V304h64v160h208.8
	c3.7,18.2,19.9,32,39.2,32h96c22.1,0,40-17.9,40-40V280C494,260.7,480.2,244.5,462,240.8z M262,107.1L239.9,96L262,84.9V107.1z
	 M278,80h152v32H278V80z M478,96c0,8.8-7.2,16-16,16h-16V80h16C470.8,80,478,87.2,478,96z M182,27.3V72h-44.7L182,27.3z M62,161.6
	l72-48l72,48V288h-32v-40c0-22.1-17.9-40-40-40s-40,17.9-40,40v40H62V161.6z M158,288h-48v-40c0-13.2,10.8-24,24-24s24,10.8,24,24
	V288z M318,280v168H126V304h96V172.3l27.6,18.4l8.9-13.3L134,94.4l-8,5.3V88h72V16h248v48H268.1l-64,32l64,32H446v112h-88
	C335.9,240,318,257.9,318,280z M478,456c0,13.2-10.8,24-24,24h-96c-13.2,0-24-10.8-24-24V280c0-13.2,10.8-24,24-24h96
	c13.2,0,24,10.8,24,24V456z"/>
<path d="M350,336h112v-64H350V336z M366,288h80v32h-80V288z"/>
<path d="M350,448c0,8.8,7.2,16,16,16h80c8.8,0,16-7.2,16-16v-96H350V448z M366,432h16v16h-16V432z M414,400v16h-16v-16H414z
	 M398,384v-16h16v16H398z M430,400h16v16h-16V400z M414,432v16h-16v-16H414z M382,416h-16v-16h16V416z M430,448v-16h16v16H430z
	 M446,384h-16v-16h16V384z M382,368v16h-16v-16H382z"/>
<path d="M118,192h32c8.8,0,16-7.2,16-16v-16c0-8.8-7.2-16-16-16h-32c-8.8,0-16,7.2-16,16v16C102,184.8,109.2,192,118,192z M118,160
	h32l0,16h-32V160z"/>
<path d="M91,94.2L81,81.8l-35,28l-35-28L1,94.2l45,36L91,94.2z"/>
<path d="M38,64h16v16H38V64z"/>
<path d="M142,320h160v16H142V320z"/>
<path d="M174,352h128v16H174V352z"/>
<path d="M142,352h16v16h-16V352z"/>
<path d="M142,384h160v16H142V384z"/>
<path d="M286,416h16v16h-16V416z"/>
<path d="M142,416h128v16H142V416z"/>
<path d="M278,144h152v16H278V144z"/>
<path d="M278,176h16v16h-16V176z"/>
<path d="M310,176h120v16H310V176z"/>
<path d="M278,208h120v16H278V208z"/>
<path d="M414,208h16v16h-16V208z"/>
<path d="M38,32h16v16H38V32z"/>
<path d="M38,0h16v16H38V0z"/>
<path d="M1,361.8l10,12.5l35-28l35,28l10-12.5l-45-36L1,361.8z"/>
<path d="M38,376h16v16H38V376z"/>
<path d="M38,408h16v16H38V408z"/>
<path d="M38,440h16v16H38V440z"/>
</svg>
