<?xml version="1.0" encoding="utf-8"?>
<!-- Generator: Adobe Illustrator 22.1.0, SVG Export Plug-In . SVG Version: 6.00 Build 0)  -->
<svg version="1.1" id="Layer_1" xmlns="http://www.w3.org/2000/svg" xmlns:xlink="http://www.w3.org/1999/xlink" x="0px" y="0px"
	 viewBox="0 0 496 496" style="enable-background:new 0 0 496 496;" xml:space="preserve">
<path d="M496,213.9v-26.2c0-19.8-14.8-36.8-34.3-39.6l-21.7-3.1v-11.2c14.5-10.1,24-26.9,24-45.9v-8h16V64h-16v-8
	c0-22.1-17.9-40-40-40h-32c-22.1,0-40,17.9-40,40v8h-16v16h16v8c0,15.7,6.5,29.8,16.9,40H320V24c0-13.2-10.8-24-24-24H136
	c-13.2,0-24,10.8-24,24v152H0v48h16v211.1L6.1,440l80,40h273.1l1.4,16h94.6L472,312v-0.1c13.3-0.5,24-11.4,24-24.9
	c0-6.6-2.7-13-7.3-17.7L475.3,256l13.4-19.2C493.5,230.1,496,222.2,496,213.9z M434.8,160.5l3.3,0.5l-9.2,24.6l-9.6-9.6L434.8,160.5
	z M424,148.7l-16,16l-16-16v-7c5.1,1.5,10.4,2.4,16,2.4s10.9-0.8,16-2.4V148.7z M96,448h224v16H96V448z M320,432H96v-16h224V432z
	 M176,336H64v-80h112V336z M320,256h-32v-32h32V256z M320,187.8V208h-32v-32l33.9,0C320.8,179.8,320,183.7,320,187.8z M272,208h-48
	v-32l48,0V208z M224,224h48v32h-48V224z M224,272h48v32h-48V272z M224,320h48v32h-48V320z M224,368h48v32h-48V368z M288,400v-32
	h61.2l2.9,32H288z M347.8,352H288v-32h56c0.3,0,0.6-0.1,0.9-0.1L347.8,352z M288,304v-32h32v24c0,2.8,0.6,5.5,1.5,8H288z
	 M331.4,160.1L208,160v240h-16V144h184v1.1l-21.7,3.1C345.3,149.4,337.4,153.8,331.4,160.1z M381.2,160.5l15.5,15.5l-9.6,9.6
	l-9.2-24.6L381.2,160.5z M448,56v8h-22.6l5.2-31C440.6,35.9,448,45.1,448,56z M401.4,32h13.1l-5.3,32h-2.4L401.4,32z M368,56
	c0-10.9,7.4-20.1,17.4-23l5.2,31H368V56z M368,88v-8h80v8c0,22.1-17.9,40-40,40S368,110.1,368,88z M128,24c0-4.4,3.6-8,8-8h160
	c4.4,0,8,3.6,8,8v104H176v48h-48V24z M16,192h160v16H16V192z M32,224h144v16H48v112h128v48H86.1L32,427.1V224z M80,420.9v38.1
	L41.9,440L80,420.9z M336,464v-48h17.5l4.3,48H336z M360.2,313.6c0.6-0.5,1.1-1.1,1.6-1.6H400v168h-24.7L360.2,313.6z M440.7,480
	H416V312h7.8c7.8,0,15-3.8,19.5-10.2l3-4.3l7.1,7.1c0.8,0.8,1.7,1.5,2.6,2.2l0,4.4L440.7,480z M477.4,280.7c1.7,1.7,2.6,4,2.6,6.3
	c0,4.9-4,9-9,9c-2.4,0-4.6-0.9-6.3-2.6l-9.1-9.1l10.4-14.9L477.4,280.7z M480,213.9c0,4.9-1.5,9.7-4.3,13.8l-45.5,65
	c-1.5,2.1-3.8,3.3-6.4,3.3c-4.3,0-7.8-3.5-7.8-7.8v-3c0-1.7,0.6-3.3,1.6-4.7l43.2-57.6c2.1-2.8,3.2-6.2,3.2-9.6V200h-16v13.3
	l-6.7,8.9c-4.5-4-10.3-6.2-16.4-6.2c-13.8,0-25,11.2-25,25c0,6.6,2.7,13,7.3,17.7l3.8,3.8l-6.4,8.5c-3.1,4.1-4.8,9.2-4.8,14.3v3
	c0,2.7,0.6,5.3,1.4,7.8H368v-96h-16v96c0,4.4-3.6,8-8,8s-8-3.6-8-8V187.8c0-11.9,8.9-22.1,20.6-23.8l5.1-0.7l19.2,51.2l27.1-27.1
	l27.1,27.1l19.2-51.2l5.1,0.7c11.7,1.7,20.6,11.9,20.6,23.8V213.9z M418.6,247.3c-1.7-1.7-2.6-4-2.6-6.3c0-4.9,4-9,9-9
	c2.4,0,4.6,0.9,6.3,2.6l0.4,0.4l-10.9,14.5L418.6,247.3z"/>
<path d="M288,48H144v64h144V48z M224,64h16v32h-16V64z M208,96h-16V64h16V96z M160,64h16v32h-16V64z M272,96h-16V64h16V96z"/>
</svg>
