<?xml version="1.0" encoding="utf-8"?>
<!-- Generator: Adobe Illustrator 22.1.0, SVG Export Plug-In . SVG Version: 6.00 Build 0)  -->
<svg version="1.1" id="Layer_1" xmlns="http://www.w3.org/2000/svg" xmlns:xlink="http://www.w3.org/1999/xlink" x="0px" y="0px"
	 viewBox="0 0 496 496" style="enable-background:new 0 0 496 496;" xml:space="preserve">
<path d="M472,136c13.2,0,24-10.8,24-24c0-10.9-7.4-20-17.4-23l0.9-42.4C489.1,43.5,496,34.6,496,24c0-13.2-10.8-24-24-24
	c-12.3,0-22.3,9.3-23.7,21.2l-99.7,22.7C344.4,36.8,336.8,32,328,32c-5.1,0-9.7,1.6-13.6,4.3C294.6,23,271.8,16,248,16
	c-13.5,0-26.7,2.4-39.4,6.8c-4.3-4.2-10.2-6.8-16.6-6.8c-9.1,0-17,5.2-21,12.7l-59.4-9.1C109.4,8.4,99.7,0,88,0
	C74.8,0,64,10.8,64,24c0,5,1.6,9.7,4.2,13.6L30.8,89.1C28.6,88.4,26.4,88,24,88C10.8,88,0,98.8,0,112c0,12.5,9.7,22.8,22,23.8
	l28.5,108.4C44.2,248.5,40,255.8,40,264c0,2.1,0.4,4.2,0.9,6.1C14.9,293,0,325.3,0,360c0,66.2,53.8,120,120,120
	c41.3,0,79.6-21.4,101.5-56.2c0.7,0.1,1.3,0.2,2,0.2l9.7,29.2c-5.6,4.4-9.3,11.2-9.3,18.8c0,13.2,10.8,24,24,24
	c10.4,0,19.2-6.7,22.5-16h83c3.3,9.3,12.1,16,22.5,16c11.3,0,20.8-7.9,23.3-18.5c55.5-11,96.7-60.3,96.7-117.5
	c0-27.8-9.7-54.4-27.4-75.9c2.1-3.6,3.4-7.7,3.4-12.1c0-13.2-10.8-24-24-24c-0.7,0-1.4,0.2-2.2,0.2l-29.1-63.1
	c4.5-4.4,7.3-10.4,7.3-17.2c0-2.6-0.5-5.1-1.3-7.5l36.4-28.3C462.8,134.6,467.2,136,472,136z M463.5,46.4l-0.9,43.5
	c-3.4,1.4-6.3,3.7-8.7,6.5l-97.4-37.9l95.2-21.7C454.5,41.2,458.6,44.5,463.5,46.4z M472,120c-4.4,0-8-3.6-8-8s3.6-8,8-8s8,3.6,8,8
	S476.4,120,472,120z M472,16c4.4,0,8,3.6,8,8s-3.6,8-8,8s-8-3.6-8-8S467.6,16,472,16z M328,48c4.4,0,8,3.6,8,8s-3.6,8-8,8
	s-8-3.6-8-8S323.6,48,328,48z M305.1,49.3c-0.6,2.1-1.1,4.4-1.1,6.7c0,13.2,10.8,24,24,24c2.4,0,4.6-0.4,6.7-1.1
	C346,96,352,115.5,352,136c0,25.2-9,48.3-24,66.4v-16.3c0-14.2-9.5-26.9-23.2-30.8L272,146v-10.2c9.7-7.3,16-18.8,16-31.8V88
	c0-22.1-17.9-40-40-40s-40,17.9-40,40v16c0,13,6.3,24.5,16,31.8V146l-32.8,9.4c-13.7,3.9-23.2,16.6-23.2,30.8v16
	c-9-10.8-15.9-23.5-19.9-37.5c7.1-4.2,11.9-11.8,11.9-20.6c0-10-6.1-18.5-14.8-22.1c3.3-23.9,14.9-46.1,32.8-62.5
	c4,2.9,8.8,4.6,14,4.6c13.2,0,24-10.8,24-24c0-1-0.2-1.9-0.3-2.8c10.4-3.4,21.2-5.2,32.3-5.2C268.5,32,288,38,305.1,49.3z M248,128
	c-13.2,0-24-10.8-24-24V88c0-13.2,10.8-24,24-24s24,10.8,24,24v16C272,117.2,261.2,128,248,128z M248,144c2.7,0,5.4-0.3,8-0.8v5.5
	l-8,8l-8-8v-5.5C242.6,143.7,245.3,144,248,144z M229.7,161l18.3,18.3l18.3-18.3l34.1,9.7c6.8,2,11.6,8.3,11.6,15.4v31.7
	c-17.7,13.8-39.9,22.2-64,22.2c-23.8,0-46.1-8.3-64-22.3v-31.6c0-7.1,4.8-13.4,11.6-15.4L229.7,161z M64,256c4.4,0,8,3.6,8,8
	s-3.6,8-8,8s-8-3.6-8-8S59.6,256,64,256z M66,240.2L37.5,131.8c2.3-1.6,4.4-3.6,6-5.9l68.7,19.6c0.3,5.2,2.3,9.9,5.4,13.7
	l-48.8,81.3C67.9,240.3,66.9,240.3,66,240.2z M88,48c0.3,0,0.6-0.1,0.9-0.1l31.3,78.2c-1.4,1.2-2.6,2.5-3.7,4l-68.7-19.6
	c-0.3-4.4-1.7-8.6-4.1-12.1l37.5-51.5C83.4,47.6,85.6,48,88,48z M109,35.3l59.4,9.1c0.1,0.6,0.3,1.1,0.4,1.6
	c-19.1,16.9-32.3,39.4-37.8,64.1l-27.3-68.3C105.9,40.1,107.7,37.8,109,35.3z M136,136c4.4,0,8,3.6,8,8s-3.6,8-8,8s-8-3.6-8-8
	S131.6,136,136,136z M192,32c4.4,0,8,3.6,8,8s-3.6,8-8,8s-8-3.6-8-8S187.6,32,192,32z M88,16c4.4,0,8,3.6,8,8s-3.6,8-8,8s-8-3.6-8-8
	S83.6,16,88,16z M16,112c0-4.4,3.6-8,8-8s8,3.6,8,8s-3.6,8-8,8S16,116.4,16,112z M56,441.8v-31.7c0-7.1,4.8-13.4,11.6-15.4l34.1-9.7
	l18.3,18.3l18.3-18.3l34.1,9.7c6.8,2,11.6,8.3,11.6,15.4v31.8C166,456,143.5,464,120,464C95.9,464,73.7,455.7,56,441.8z M120,352
	c-13.2,0-24-10.8-24-24v-16c0-13.2,10.8-24,24-24s24,10.8,24,24v16C144,341.2,133.2,352,120,352z M120,368c2.7,0,5.4-0.3,8-0.8v5.5
	l-8,8l-8-8v-5.5C114.6,367.7,117.3,368,120,368z M200,426.3v-16.2c0-14.2-9.5-26.9-23.2-30.8L144,370v-10.2c9.7-7.3,16-18.8,16-31.8
	v-16c0-22.1-17.9-40-40-40s-40,17.9-40,40v16c0,13,6.3,24.5,16,31.8V370l-32.8,9.4C49.5,383.2,40,395.9,40,410.1v16.3
	c-15-18-24-41.2-24-66.4c0-29.4,12.4-56.9,34-76.6c4,2.9,8.8,4.6,14,4.6c13.2,0,24-10.8,24-24c0-0.9-0.2-1.8-0.3-2.7
	c10.4-3.4,21.3-5.3,32.3-5.3c57.3,0,104,46.7,104,104c0,5.3-0.6,10.7-1.5,16.2C210,376.9,200,387.3,200,400c0,6.6,2.7,12.6,7,16.9
	C204.8,420.2,202.5,423.3,200,426.3z M224,392c4.4,0,8,3.6,8,8s-3.6,8-8,8s-8-3.6-8-8S219.6,392,224,392z M248,480c-4.4,0-8-3.6-8-8
	s3.6-8,8-8s8,3.6,8,8S252.4,480,248,480z M376,352c-13.2,0-24-10.8-24-24v-16c0-13.2,10.8-24,24-24s24,10.8,24,24v16
	C400,341.2,389.2,352,376,352z M376,368c2.7,0,5.4-0.3,8-0.8v5.5l-8,8l-8-8v-5.5C370.6,367.7,373.3,368,376,368z M357.7,385
	l18.3,18.3l18.3-18.3l34.1,9.7c6.8,2,11.6,8.3,11.6,15.4v31.6c-12.2,9.6-26.7,16.5-42.5,19.9c-3.9-8-12-13.5-21.5-13.5
	s-17.6,5.6-21.5,13.5c-15.8-3.3-30.3-10.3-42.5-19.9v-31.6c0-7.1,4.8-13.4,11.6-15.4L357.7,385z M376,480c-4.4,0-8-3.6-8-8
	s3.6-8,8-8s8,3.6,8,8S380.4,480,376,480z M456,426v-15.9c0-14.2-9.5-26.9-23.2-30.8L400,370v-10.2c9.7-7.3,16-18.8,16-31.8v-16
	c0-22.1-17.9-40-40-40s-40,17.9-40,40v16c0,13,6.3,24.5,16,31.8V370l-32.8,9.4c-13.7,3.9-23.2,16.6-23.2,30.8V426
	c-15-18.1-24-41.2-24-66c0-57.3,46.7-104,104-104c16.8,0,33.4,4.2,48.4,12.1c-0.2,1.3-0.4,2.6-0.4,3.9c0,13.2,10.8,24,24,24
	c3,0,5.8-0.6,8.4-1.6C471.6,313,480,336,480,360C480,384.8,471,407.9,456,426z M456,272c0,4.4-3.6,8-8,8s-8-3.6-8-8s3.6-8,8-8
	S456,267.6,456,272z M430.5,253.2c-16.9-8.7-35.6-13.2-54.5-13.2c-66.2,0-120,53.8-120,120c0,43.8,24.2,83.1,60.6,104h-46.1
	c-3.3-9.2-11.9-15.8-22.1-16l-9.7-29.2c5.6-4.4,9.3-11.2,9.3-18.8c0-8-4-15.1-10-19.4c1.2-6.9,2-13.8,2-20.6
	c0-66.2-53.8-120-120-120c-12.1,0-24,1.9-35.6,5.5l46.8-78c0.4,0.1,0.8,0.1,1.2,0.1C146.5,219.2,194.1,256,248,256
	c66.2,0,120-53.8,120-120c0-22.4-6.2-43.9-17.9-62.8l98,38.1c0,0.2-0.1,0.5-0.1,0.7c0,2.6,0.5,5.1,1.3,7.5l-36.4,28.3
	c-3.7-2.4-8.1-3.8-12.9-3.8c-13.2,0-24,10.8-24,24s10.8,24,24,24c0.7,0,1.4-0.2,2.2-0.2L430.5,253.2z M400,176c-4.4,0-8-3.6-8-8
	s3.6-8,8-8s8,3.6,8,8S404.4,176,400,176z"/>
</svg>
