<?xml version="1.0" encoding="utf-8"?>
<!-- Generator: Adobe Illustrator 22.1.0, SVG Export Plug-In . SVG Version: 6.00 Build 0)  -->
<svg version="1.1" id="Layer_1" xmlns="http://www.w3.org/2000/svg" xmlns:xlink="http://www.w3.org/1999/xlink" x="0px" y="0px"
	 viewBox="0 0 447.4 512" style="enable-background:new 0 0 447.4 512;" xml:space="preserve">
<g>
	<g>
		<path d="M417.1,0H30.3C13.6,0,0,13.6,0,30.3v451.4C0,498.4,13.6,512,30.3,512h386.8c16.7,0,30.3-13.6,30.3-30.3V30.3
			C447.4,13.6,433.8,0,417.1,0z M24.2,30.3c0-3.3,2.7-6.1,6.1-6.1h386.8c3.3,0,6.1,2.7,6.1,6.1v105.1H24.2V30.3z M141.1,487.8H30.3
			c-3.3,0-6.1-2.7-6.1-6.1V335.8h116.8V487.8z M141.1,311.5H24.2V159.7h116.8V311.5z M282.1,487.8H165.3v-152h116.8V487.8z
			 M282.1,311.5H165.3V159.7h116.8V311.5z M423.2,481.7c0,3.3-2.7,6.1-6.1,6.1H306.4V159.7h116.8V481.7z"/>
	</g>
</g>
<g>
	<g>
		<path d="M112.6,223.5H94.8v-17.9c0-6.7-5.4-12.1-12.1-12.1s-12.1,5.4-12.1,12.1v17.9H52.7c-6.7,0-12.1,5.4-12.1,12.1
			s5.4,12.1,12.1,12.1h17.9v17.9c0,6.7,5.4,12.1,12.1,12.1s12.1-5.4,12.1-12.1v-17.9h17.8c6.7,0,12.1-5.4,12.1-12.1
			S119.3,223.5,112.6,223.5z"/>
	</g>
</g>
<g>
	<g>
		<path d="M254.3,223.5h-61.1c-6.7,0-12.1,5.4-12.1,12.1s5.4,12.1,12.1,12.1h61.1c6.7,0,12.1-5.4,12.1-12.1S261,223.5,254.3,223.5z"
			/>
	</g>
</g>
<g>
	<g>
		<path d="M99.8,411.8l14.6-14.6c4.7-4.7,4.7-12.4,0-17.1c-4.7-4.7-12.4-4.7-17.1,0l-14.6,14.6L68,380c-4.7-4.7-12.4-4.7-17.1,0
			c-4.7,4.7-4.7,12.4,0,17.1l14.6,14.6l-14.6,14.6c-4.7,4.7-4.7,12.4,0,17.1c2.4,2.4,5.5,3.6,8.6,3.6c3.1,0,6.2-1.2,8.6-3.6
			L82.6,429l14.6,14.6c2.4,2.4,5.5,3.6,8.6,3.6s6.2-1.2,8.6-3.6c4.7-4.7,4.7-12.4,0-17.1L99.8,411.8z"/>
	</g>
</g>
<g>
	<g>
		<path d="M255.5,380c-4.7-4.7-12.4-4.7-17.1,0l-46.4,46.4c-4.7,4.7-4.7,12.4,0,17.1c2.4,2.4,5.5,3.6,8.6,3.6s6.2-1.2,8.6-3.6
			l46.4-46.4C260.2,392.4,260.2,384.8,255.5,380z"/>
	</g>
</g>
<g>
	<g>
		<circle cx="200.5" cy="388.6" r="10.3"/>
	</g>
</g>
<g>
	<g>
		<circle cx="246.9" cy="435" r="10.3"/>
	</g>
</g>
<g>
	<g>
		<path d="M395.4,290.4h-62c-6.7,0-12.1,5.4-12.1,12.1c0,6.7,5.4,12.1,12.1,12.1h62c6.7,0,12.1-5.4,12.1-12.1
			C407.5,295.9,402.1,290.4,395.4,290.4z"/>
	</g>
</g>
<g>
	<g>
		<path d="M395.4,332.7h-62c-6.7,0-12.1,5.4-12.1,12.1s5.4,12.1,12.1,12.1h62c6.7,0,12.1-5.4,12.1-12.1
			C407.5,338.2,402.1,332.7,395.4,332.7z"/>
	</g>
</g>
</svg>
