<?xml version="1.0" encoding="utf-8"?>
<!-- Generator: Adobe Illustrator 22.1.0, SVG Export Plug-In . SVG Version: 6.00 Build 0)  -->
<svg version="1.1" id="Layer_1" xmlns="http://www.w3.org/2000/svg" xmlns:xlink="http://www.w3.org/1999/xlink" x="0px" y="0px"
	 viewBox="0 0 512 512" style="enable-background:new 0 0 512 512;" xml:space="preserve">
<path d="M39.6,127.3h96.2c4.1,0,7.5-3.4,7.5-7.5V39.6c0-4.2-3.4-7.5-7.5-7.5H39.6c-4.2,0-7.5,3.4-7.5,7.5v80.2
	C32.1,123.9,35.4,127.3,39.6,127.3z M47.1,47.1h81.2v65.1H47.1V47.1z"/>
<path d="M39.6,239.5h96.2c4.1,0,7.5-3.4,7.5-7.5v-80.2c0-4.2-3.4-7.5-7.5-7.5H39.6c-4.2,0-7.5,3.4-7.5,7.5V232
	C32.1,236.1,35.4,239.5,39.6,239.5z M47.1,159.3h81.2v65.1H47.1V159.3z"/>
<path d="M331.7,248.3c2.9,2.9,7.7,2.9,10.6,0l56.7-56.7c2.9-2.9,2.9-7.7,0-10.6l-68-68c-2.9-2.9-7.7-2.9-10.6,0l-56.7,56.7
	c-2.9,2.9-2.9,7.7,0,10.6L331.7,248.3z M325.7,128.9l57.4,57.4l-46.1,46.1l-57.4-57.4L325.7,128.9z"/>
<path d="M252.4,327.6c2.9,2.9,7.7,2.9,10.6,0l56.7-56.7c2.9-2.9,2.9-7.7,0-10.6l-68-68c-2.9-2.9-7.7-2.9-10.6,0L184.4,249
	c-2.9,2.9-2.9,7.7,0,10.6L252.4,327.6z M246.4,208.2l57.4,57.4l-46.1,46.1l-57.4-57.4L246.4,208.2z"/>
<path d="M87.7,512h416.8c4.2,0,7.5-3.4,7.5-7.5V344.2c0-4.1-3.4-7.5-7.5-7.5h-56.1c-4.1,0-7.5,3.4-7.5,7.5c0,4.2,3.4,7.5,7.5,7.5
	H497V497H87.7C47.6,497,15,464.4,15,424.3s32.6-72.6,72.6-72.6h325.1c4.2,0,7.5-3.4,7.5-7.5c0-4.1-3.4-7.5-7.5-7.5H299.3
	l145.1-145.1c2.9-2.9,2.9-7.7,0-10.6L331,67.6c-2.9-2.9-7.7-2.9-10.6,0L175.3,212.7V7.5c0-4.2-3.4-7.5-7.5-7.5L7.5,0
	C3.4,0,0,3.4,0,7.5l0,416.8C0,472.7,39.3,512,87.7,512z M51.5,336.5c0,0-0.1,0.1-0.1,0.1h-4.3v-65.1h69.4L51.5,336.5z M122.4,335
	l-1.4-1.4l46.1-46.1l49.1,49.1h-92.5C123.3,336.1,122.9,335.5,122.4,335z M325.7,83.5l102.7,102.7L278.1,336.7h-41.2
	c-0.3-0.6-64.6-65-64.6-65c-2.9-2.9-7.7-2.9-10.6,0L105,328.3c-2.3,2.3-2.8,5.6-1.6,8.3H87.7c-5.7,0-11.3,0.6-16.7,1.6L325.7,83.5z
	 M15,15h145.3v211.9c0,0.2,0,0.5,0,0.7l-28.9,28.9c-0.4-0.1-0.8-0.1-1.2-0.1H39.6c-4.2,0-7.5,3.4-7.5,7.5v80.2c0,3.9,2.9,7,6.7,7.5
	c-9.3,6.3-17.4,14.3-23.7,23.7V15z"/>
<path d="M384.8,376.2v96.2c0,4.2,3.4,7.5,7.5,7.5h80.2c4.2,0,7.5-3.4,7.5-7.5v-96.2c0-4.1-3.4-7.5-7.5-7.5h-80.2
	C388.1,368.7,384.8,372.1,384.8,376.2z M399.8,383.8h65.1v81.2h-65.1V383.8z"/>
<path d="M280,368.7c-4.1,0-7.5,3.4-7.5,7.5v96.2c0,4.2,3.4,7.5,7.5,7.5h80.2c4.2,0,7.5-3.4,7.5-7.5v-96.2c0-4.1-3.4-7.5-7.5-7.5H280
	z M352.7,464.9h-65.1v-81.2h65.1V464.9z"/>
<path d="M167.8,368.7c-4.2,0-7.5,3.4-7.5,7.5v96.2c0,4.2,3.4,7.5,7.5,7.5H248c4.1,0,7.5-3.4,7.5-7.5v-96.2c0-4.1-3.4-7.5-7.5-7.5
	H167.8z M240.5,464.9h-65.1v-81.2h65.1V464.9z"/>
<path d="M48.1,424.3c0,21.8,17.8,39.6,39.6,39.6c21.8,0,39.6-17.8,39.6-39.6c0-21.8-17.8-39.6-39.6-39.6
	C65.8,384.8,48.1,402.5,48.1,424.3z M112.2,424.3c0,13.5-11,24.5-24.5,24.5s-24.5-11-24.5-24.5s11-24.5,24.5-24.5
	S112.2,410.8,112.2,424.3z"/>
</svg>
