<?xml version="1.0" encoding="utf-8"?>
<!-- Generator: Adobe Illustrator 22.1.0, SVG Export Plug-In . SVG Version: 6.00 Build 0)  -->
<svg version="1.1" id="Layer_1" xmlns="http://www.w3.org/2000/svg" xmlns:xlink="http://www.w3.org/1999/xlink" x="0px" y="0px"
	 viewBox="0 0 100 100.5" style="enable-background:new 0 0 100 100.5;" xml:space="preserve">
<style type="text/css">
	.st0{fill:#27C34B;}
</style>
<g id="WA_Logo">
	<g>
		<g>
			<path class="st0" d="M85.4000015,14.6000004C76,5.1999998,63.5,0,50.2000008,0C22.7999992,0,0.4,22.2999992,0.4,49.7999992
				C0.4,58.5999985,2.7,67.0999985,7,74.6999969L0,100.5l26.3999996-6.9000015
				c7.3000011,4,15.5000019,6.0999985,23.7999973,6.0999985l0,0l0,0C77.5999985,99.6999969,100,77.3999939,100,49.8999977
				C100,36.5,94.8000031,24,85.4000015,14.6000004z M50.2000008,91.1999969L50.2000008,91.1999969
				c-7.4000015,0-14.7000008-2-21.1000004-5.8000031l-1.5-0.9000015L12,88.6999969l4.2000008-15.3000031l-1-1.5999985
				c-4.1000004-6.5999985-6.3000002-14.2000008-6.3000002-22C8.8000002,27,27.3999996,8.3999996,50.2000008,8.3999996
				C61.3000031,8.3999996,71.5999985,12.6999998,79.5,20.5c7.8000031,7.7999992,12.0999985,18.2000008,12.0999985,29.2999992
				C91.5999985,72.5999985,73,91.1999969,50.2000008,91.1999969z M72.9000015,60.2000008
				c-1.1999969-0.5999985-7.4000015-3.5999985-8.5-4s-2-0.5999985-2.7999992,0.5999985
				c-0.7999992,1.2000008-3.2000008,4-3.9000015,4.9000015C57,62.5,56.2000008,62.5999985,55,62s-5.2999992-1.9000015-10-6.2000008
				C41.2999992,52.5,38.7999992,48.3999977,38.0999985,47.1999969s-0.0999985-1.9000015,0.5-2.5s1.2000008-1.5,1.9000015-2.2000008
				c0.5999985-0.7000008,0.7999992-1.2000008,1.2000008-2.0999985c0.4000015-0.7999992,0.2000008-1.5999985-0.0999985-2.2000008
				c-0.2999992-0.5999985-2.7999992-6.7000008-3.7999992-9.2000008c-1-2.3999996-2-2.1000004-2.7999992-2.1000004
				c-0.7000008,0-1.5999985,0-2.4000015,0c-0.7999992,0-2.2000008,0.2999992-3.2999992,1.6000004
				c-1.1000004,1.2000008-4.3999996,4.2999992-4.3999996,10.3999977s4.5,12,5.1000004,12.9000015
				c0.6000004,0.7999992,8.7999992,13.4000015,21.2999992,18.7999954c3,1.3000031,5.2999992,2,7.0999985,2.5999985
				c3,0.9000015,5.6999969,0.8000031,7.8000031,0.5c2.4000015-0.4000015,7.4000015-3,8.4000015-5.9000015
				s1-5.4000015,0.6999969-5.9000015C75,61.0999985,74.1999969,60.7999992,72.9000015,60.2000008z"/>
		</g>
	</g>
</g>
</svg>
