<?xml version="1.0" encoding="utf-8"?>
<!-- Generator: Adobe Illustrator 22.1.0, SVG Export Plug-In . SVG Version: 6.00 Build 0)  -->
<svg version="1.1" id="Capa_1" xmlns="http://www.w3.org/2000/svg" xmlns:xlink="http://www.w3.org/1999/xlink" x="0px" y="0px"
	 viewBox="0 0 512 512" style="enable-background:new 0 0 512 512;" xml:space="preserve">
<style type="text/css">
	.st0{fill:#4dbc4b;}
</style>
<g>
	<path class="st0" d="M508.7,256.4l-78.1-119.2c-3.7-5.6-10-9-16.7-9h-97.2V85.5c0-11-9-20-20-20H20c-11,0-20,9-20,20v301
		c0,11,9,20,20,20h63.4c8.3,23.3,30.5,40,56.6,40s48.3-16.7,56.6-40h141.2c8.3,23.3,30.5,40,56.6,40s48.3-16.7,56.6-40h41
		c11,0,20-9,20-20V267.3C512,263.4,510.9,259.6,508.7,256.4z M140,406.5c-11,0-20-9-20-20s9-20,20-20s20,9,20,20
		S151,406.5,140,406.5z M276.7,366.5h-80.1c-8.3-23.3-30.5-40-56.6-40s-48.3,16.7-56.6,40H40v-261h236.7V366.5z M394.3,406.5
		c-11,0-20-9-20-20s9-20,20-20s20,9,20,20S405.4,406.5,394.3,406.5z M472,366.5h-21.1c-8.3-23.3-30.5-40-56.6-40s-48.3,16.7-56.6,40
		h-21.1V168.2H403l69,105.1V366.5z"/>
</g>
</svg>
