<?xml version="1.0" encoding="utf-8"?>
<!-- Generator: Adobe Illustrator 22.0.1, SVG Export Plug-In . SVG Version: 6.00 Build 0)  -->
<svg version="1.1" id="Layer_1" xmlns="http://www.w3.org/2000/svg" xmlns:xlink="http://www.w3.org/1999/xlink" x="0px" y="0px"
	 viewBox="0 0 512 512" style="enable-background:new 0 0 512 512;" xml:space="preserve">
	<path class="st0" d="M383.5,370.2L362.2,349l-21.3,21.3l42.6,42.6l63.9-63.9l-21.3-21.3L383.5,370.2z"/>
	<path class="st0" d="M406.4,241.9c2.4-56.8-18.7-111.6-59.4-152.2c-79.4-79.4-208-79.5-287.5,0c-79.4,79.4-79.5,208,0,287.5
		c61.5,61.5,151.7,75,226.3,42c20.5,37.3,60.2,62.7,105.7,62.7c66.4,0,120.5-54,120.5-120.5C512,300,465.8,249.2,406.4,241.9
		L406.4,241.9z M80.9,111c32.7-32.7,76.2-50.7,122.4-50.7c99.8,0,177.9,83.6,173,181.7c-42.8,5.4-77.9,33-94.6,69.9
		c-8.4-7.8-17.8-14.2-28-19.1c16.8-14.3,27.4-35.5,27.4-59.2c0-42.9-34.9-77.8-77.8-77.8s-77.8,34.9-77.8,77.8
		c0,23.7,10.7,45,27.5,59.2c-29.6,14.4-52.1,41.1-61,73.3C14.5,301.1,8.8,183.1,80.9,111L80.9,111z M155.6,233.4
		c0-26.3,21.4-47.7,47.7-47.7s47.7,21.4,47.7,47.7c0,26.3-21.4,47.7-47.7,47.7S155.6,259.7,155.6,233.4z M274.8,391.2
		c-50.3,22.7-108.6,19.6-155.9-6.7c5.9-41.4,41.5-73.3,84.5-73.3c27.4,0,52.7,12.9,68.7,34.8C270.1,361.2,271.1,376.7,274.8,391.2
		L274.8,391.2z M391.5,451.8c-50.5,0-91.6-41.7-90.3-92.6c1.2-48.1,40.7-87.4,89.2-88l1.2,0c49.8,0,90.3,40.6,90.3,90.3
		C481.9,411.2,441.4,451.8,391.5,451.8z"/>
</svg>
