<svg version="1.1" id="Layer_1" xmlns="http://www.w3.org/2000/svg" xmlns:xlink="http://www.w3.org/1999/xlink" x="0px" y="0px"
	 viewBox="0 0 512 512" style="enable-background:new 0 0 512 512;" xml:space="preserve">
<path class="st0" d="M390,242H240v90h150V242z M270,272h30v30h-30V272z M360,302h-30v-30h30V302z"/>
<path class="st0" d="M60,362h60v30H60V362z"/>
<path class="st0" d="M150,362h60v30h-60V362z"/>
<path class="st0" d="M240,362h60v30h-60V362z"/>
<path class="st0" d="M330,362h60v30h-60V362z"/>
<path class="st0" d="M60,422h330v30H60V422z"/>
<path class="st0" d="M512,0H62v182H0v330h450V330h62V0z M482,30v30H92V30H482z M482,90v30H92V90H482z M420,482H30V212h390V482z
	 M450,300V182H92v-32h390v150H450z"/>
</svg>
