<?xml version="1.0" encoding="utf-8"?>
<!-- Generator: Adobe Illustrator 22.1.0, SVG Export Plug-In . SVG Version: 6.00 Build 0)  -->
<svg version="1.1" id="Layer_1" xmlns="http://www.w3.org/2000/svg" xmlns:xlink="http://www.w3.org/1999/xlink" x="0px" y="0px"
	 viewBox="0 0 320 511.9" style="enable-background:new 0 0 320 511.9;" xml:space="preserve">
<path d="M266.7,405.3v64h-85.3v-64h-42.7v64H53.4v-64H10.7v85.3c0,11.8,9.6,21.3,21.3,21.3h256c11.8,0,21.3-9.6,21.3-21.3v-85.3
	H266.7z"/>
<path d="M160,362.7c95.7,0,160-55.7,160-138.7c0-34.6-22.4-92.1-48-123.1c-3.2-3.8-8.6-5-13-2.7l-50.1,25.3L170.1,7.3
	c-1.9-5.6-7.9-8.6-13.5-6.7c-2.9,1-5.2,3.1-6.4,5.9L91.1,144.3L48,116.7c-4.8-3-11.1-1.8-14.4,2.8C14.4,146.2,0,196.7,0,224
	C0,306.9,64.3,362.7,160,362.7z M160,170.7c0,0,64,71.3,64,106.7c0,35.3-28.7,64-64,64s-64-28.7-64-64C96,242,160,170.7,160,170.7z"
	/>
</svg>
