<svg id="Layer_1" enable-background="new 0 0 512.01 512.01" height="512" viewBox="0 0 512.01 512.01" width="512" xmlns="http://www.w3.org/2000/svg"><path d="m512.003 435.677v-363.011h-115.68v-72.666h-280.573v72.666h-115.744v363.011h181.006v46.333h-30.264v30h210.535v-30h-30.263v-46.333zm-201.451-181.347c6.396-10.028 10.12-21.917 10.12-34.667 0-35.657-29.009-64.667-64.667-64.667-35.657 0-64.667 29.01-64.667 64.667 0 12.75 3.724 24.639 10.12 34.667h-55.708v-153.049c36.142-6.428 64.688-35.085 70.958-71.281h78.232c6.293 36.344 35.038 65.09 71.383 71.382v152.948zm-89.214-34.667c0-19.115 15.551-34.667 34.667-34.667 19.115 0 34.667 15.552 34.667 34.667s-15.552 34.667-34.667 34.667-34.667-15.552-34.667-34.667zm144.985-148.983c-19.763-5.329-35.352-20.918-40.681-40.68h40.681zm-180.318-40.68c-5.293 19.613-20.697 35.106-40.255 40.532v-40.532zm-70.255 72.666v151.664h-24.09v30h328.688v-30h-24.026v-151.664h85.681v247.007h-451.997v-247.007zm-85.744 277.007h451.997v26.004h-451.997zm271.014 102.337h-90.008v-46.333h90.008z"/></svg>