<?xml version="1.0" encoding="utf-8"?>
<!-- Generator: Adobe Illustrator 22.1.0, SVG Export Plug-In . SVG Version: 6.00 Build 0)  -->
<svg version="1.1" id="Capa_1" xmlns="http://www.w3.org/2000/svg" xmlns:xlink="http://www.w3.org/1999/xlink" x="0px" y="0px"
	 viewBox="0 0 456 434.6" style="enable-background:new 0 0 456 434.6;" xml:space="preserve">
<path d="M345.6,328.2c-29.2,0-53.2,23.6-53.2,53.2c0,29.2,23.6,53.2,53.2,53.2c29.2,0,53.2-23.6,53.2-53.2
	C398.3,352.2,374.8,328.2,345.6,328.2z"/>
<path d="M439.3,74.2c-1,0-2.6-0.5-4.1-0.5H112.6l-5.1-34.3C104.4,16.9,85,0,62,0H20.5C9.2,0,0,9.2,0,20.4s9.2,20.5,20.5,20.5H62
	c2.6,0,4.6,2,5.1,4.6l31.7,216.1c4.1,27.1,27.6,47.6,55.3,47.6h213c26.6,0,49.7-18.9,55.3-45.1l33.3-166.4
	C457.7,87,450.6,76.3,439.3,74.2z"/>
<path d="M215,378.8c-1-28.2-24.6-50.7-52.7-50.7c-29.7,1.5-52.2,26.1-51.2,55.3c1,28.2,24.1,50.7,52.2,50.7h1
	C193.5,432.6,216.6,408,215,378.8z"/>
</svg>
