<?xml version="1.0" encoding="utf-8"?>
<!-- Generator: Adobe Illustrator 22.1.0, SVG Export Plug-In . SVG Version: 6.00 Build 0)  -->
<svg version="1.1" id="Layer_1" xmlns="http://www.w3.org/2000/svg" xmlns:xlink="http://www.w3.org/1999/xlink" x="0px" y="0px"
	 viewBox="0 0 22 22" style="enable-background:new 0 0 22 22;" xml:space="preserve">
<path d="M5.0353179,17.7397633C6.6232996,19.1461754,8.7119389,20,11,20s4.3766994-0.8538246,5.9646816-2.2602367
	C16.671999,16.6873493,14.5693827,16,11,16S5.3280005,16.6873493,5.0353179,17.7397633z M3.6005034,16.1246471
	C4.7259512,14.6380644,7.3706017,14,11,14s6.2740479,0.6380644,7.3994961,2.1246471C19.408617,14.6703186,20,12.9042215,20,11
	c0-4.9705629-4.029438-9-9-9s-9,4.0294371-9,9C2,12.9042215,2.591382,14.6703186,3.6005034,16.1246471z M11,22
	C4.9248676,22,0,17.0751324,0,11S4.9248676,0,11,0s11,4.9248676,11,11S17.0751324,22,11,22z M7,9c0-2.2442408,1.5790997-4,4-4
	c2.4141951,0,4,1.9215784,4,4.1999998C15,12.4796143,13.2180862,14,11,14C8.7608643,14,7,12.4273739,7,9z M9,9
	c0,2.2692566,0.8182106,3,2,3c1.1777067,0,2-0.7016077,2-2.8000002C13,7.9504175,12.2156572,7,11,7C9.7337389,7,9,7.8158245,9,9z"/>
</svg>
