<?xml version="1.0" encoding="utf-8"?>
<!-- Generator: Adobe Illustrator 22.1.0, SVG Export Plug-In . SVG Version: 6.00 Build 0)  -->
<svg version="1.1" id="Layer_1" xmlns="http://www.w3.org/2000/svg" xmlns:xlink="http://www.w3.org/1999/xlink" x="0px" y="0px"
	 viewBox="0 0 20 20.0020294" style="enable-background:new 0 0 20 20.0020294;" xml:space="preserve">
<path d="M8.9793234,4.2552853c0.5859613,0.6495328,0.400176,1.3853841-0.1179276,2.083591
	C8.7385588,6.5044141,8.5969696,6.6675191,8.4259624,6.8472466C8.3438807,6.9335141,8.2798767,6.9983916,8.1460009,7.1324
	C7.8419595,7.4367404,7.5863738,7.6924672,7.3792291,7.8995948c-0.1004505,0.1004415,0.585372,1.4709115,1.9163651,2.8032146
	c1.3302717,1.3315783,2.7006664,2.0178709,2.80159,1.9168921l0.766243-0.7666655
	c0.4219646-0.4223785,0.6454268-0.6261654,0.9524946-0.8276196c0.638361-0.4188023,1.3346481-0.5326099,1.9218941-0.0075045
	c1.9173908,1.3715277,3.0024204,2.2131691,3.5339813,2.7654867c1.0368042,1.0772886,0.9009247,2.7355509,0.005888,3.6815577
	c-0.3103657,0.328043-0.7038975,0.7217903-1.1686916,1.1698685c-2.8115425,2.8130913-8.7452087,1.1011467-13.2927208-3.4508343
	C0.2677295,10.6309757-1.4433014,4.696743,1.3623493,1.8895856c0.503695-0.5116107,0.6697676-0.6775992,1.1603239-1.1609619
	C3.4359984-0.1713086,5.1707683-0.3122195,6.225327,0.729514C6.7800288,1.2774695,7.6643701,2.4153073,8.9793234,4.2552853z
	 M14.2770138,13.2670975l-0.7663946,0.7668171c-1.3027105,1.3034286-3.5212564,0.1923828-5.6287637-1.9171972
	C5.772902,10.0056906,4.6630936,7.7879739,5.9662428,6.4849324C6.1731086,6.2780843,6.428453,6.0225987,6.7322621,5.7184911
	C6.8548417,5.5957909,6.910913,5.5389533,6.9782147,5.4682198c0.0916967-0.0963726,0.1670475-0.1810145,0.227376-0.2559133
	C6.0402236,3.5889652,5.2480249,2.5746133,4.8209581,2.1527402c-0.2205544-0.2178718-0.7144151-0.1777569-0.895721,0.0008903
	c-0.4835525,0.4764619-0.6424947,0.635323-1.1441584,1.1448307C0.9767659,5.1037688,2.3580284,9.8942919,6.2300124,13.7700815
	c3.870769,3.8745756,8.6605701,5.2564993,10.4786148,3.4376898c0.4575653-0.4413376,0.830431-0.8144073,1.1174259-1.1177464
	c0.2073822-0.2191925,0.244442-0.6714821,0.005888-0.9193516c-0.3973351-0.4128513-1.3701038-1.1713047-3.0497608-2.3775063
	C14.6597481,12.8917122,14.5092411,13.0346422,14.2770138,13.2670975z"/>
</svg>
