<?xml version="1.0" encoding="utf-8"?>
<!-- Generator: Adobe Illustrator 22.1.0, SVG Export Plug-In . SVG Version: 6.00 Build 0)  -->
<svg version="1.1" id="Layer_1" xmlns="http://www.w3.org/2000/svg" xmlns:xlink="http://www.w3.org/1999/xlink" x="0px" y="0px"
	 viewBox="0 0 512 512" style="enable-background:new 0 0 512 512;" xml:space="preserve" fill="#aa132c">
<path d="M494.9,0H17.1C7.6,0,0,7.6,0,17.1v59.7c0,9.4,7.6,17.1,17.1,17.1H28l-26.8,47c-1.5,2.6-1.5,5.9,0,8.5
	c1.5,2.6,4.3,4.3,7.4,4.3H28l-26.8,47c-1.5,2.6-1.5,5.9,0,8.5c1.5,2.6,4.3,4.3,7.4,4.3H28l-26.8,47c-1.5,2.6-1.5,5.9,0,8.5
	c1.5,2.6,4.3,4.3,7.4,4.3H28L1.1,320c-1.5,2.6-1.5,5.9,0,8.5c1.5,2.6,4.3,4.3,7.4,4.3H28l-26.8,47c-1.5,2.6-1.5,5.9,0,8.5
	c1.5,2.6,4.3,4.3,7.4,4.3H28l-26.8,47c-1.5,2.6-1.5,5.9,0,8.5c1.5,2.6,4.3,4.3,7.4,4.3H28l-26.8,47c-1.5,2.6-1.5,5.9,0,8.5
	c1.5,2.6,4.3,4.3,7.4,4.3h494.9c3,0,5.9-1.6,7.4-4.3c1.5-2.6,1.5-5.9,0-8.5l-26.8-47h19.4c3,0,5.9-1.6,7.4-4.3
	c1.5-2.6,1.5-5.9,0-8.5l-26.8-47h19.4c3,0,5.9-1.6,7.4-4.3c1.5-2.6,1.5-5.9,0-8.5l-26.8-47h19.4c3,0,5.9-1.6,7.4-4.3
	c1.5-2.6,1.5-5.9,0-8.5l-26.8-47h19.4c3,0,5.9-1.6,7.4-4.3c1.5-2.6,1.5-5.9,0-8.5l-26.8-47h19.4c3,0,5.9-1.6,7.4-4.3
	c1.5-2.6,1.5-5.9,0-8.5l-26.8-47h19.4c3,0,5.9-1.6,7.4-4.3c1.5-2.6,1.5-5.9,0-8.5l-26.8-47h10.9c9.4,0,17.1-7.6,17.1-17.1V17.1
	C512,7.6,504.4,0,494.9,0z M47.6,93.9h46.3v42.7H23.2L47.6,93.9z M366.9,93.9v42.7H145.1V93.9H366.9z M435.2,93.9v42.7h-17.1V93.9
	H435.2z M145.1,435.2v-42.7h221.9v42.7H145.1z M366.9,452.3v42.7H145.1v-42.7H366.9z M366.9,196.3H145.1v-42.7h221.9V196.3z
	 M384,153.6h17.1v42.7H384V153.6z M145.1,315.7v-42.7h221.9v42.7H145.1z M366.9,332.8v42.7H145.1v-42.7H366.9z M145.1,256v-42.7
	h221.9V256H145.1z M128,196.3h-17.1v-42.7H128V196.3z M128,213.3V256h-17.1v-42.7H128z M128,273.1v42.7h-17.1v-42.7H128z M128,332.8
	v42.7h-17.1v-42.7H128z M128,392.5v42.7h-17.1v-42.7H128z M384,392.5h17.1v42.7H384V392.5z M384,375.5v-42.7h17.1v42.7H384z
	 M384,315.7v-42.7h17.1v42.7H384z M384,256v-42.7h17.1V256H384z M418.1,213.3h17.1V256h-17.1V213.3z M418.1,196.3v-42.7h17.1v42.7
	H418.1z M401.1,136.5H384V93.9h17.1V136.5z M128,136.5h-17.1V93.9H128V136.5z M47.6,153.6h46.3v42.7H23.2L47.6,153.6z M47.6,213.3
	h46.3V256H23.2L47.6,213.3z M47.6,273.1h46.3v42.7H23.2L47.6,273.1z M47.6,332.8h46.3v42.7H23.2L47.6,332.8z M47.6,392.5h46.3v42.7
	H23.2L47.6,392.5z M47.6,452.3h46.3v42.7H23.2L47.6,452.3z M110.9,494.9v-42.7H128v42.7H110.9z M384,494.9v-42.7h17.1v42.7H384z
	 M488.8,494.9h-70.6v-42.7h46.3L488.8,494.9z M488.8,435.2h-70.6v-42.7h46.3L488.8,435.2z M488.8,375.5h-70.6v-42.7h46.3
	L488.8,375.5z M488.8,315.7h-70.6v-42.7h17.1v17.1c0,4.7,3.8,8.5,8.5,8.5c4.7,0,8.5-3.8,8.5-8.5v-17.1h12.1L488.8,315.7z M488.8,256
	h-36.5v-42.7h12.1L488.8,256z M488.8,196.3h-36.5v-42.7h12.1L488.8,196.3z M488.8,136.5h-36.5V93.9h12.1L488.8,136.5z M469.3,76.8
	H17.1V17.1h477.9l0,59.7H469.3z"/>
<path d="M59.7,42.7H42.7c-4.7,0-8.5,3.8-8.5,8.5c0,4.7,3.8,8.5,8.5,8.5h17.1c4.7,0,8.5-3.8,8.5-8.5C68.3,46.5,64.4,42.7,59.7,42.7z"
	/>
<path d="M145.1,42.7H93.9c-4.7,0-8.5,3.8-8.5,8.5c0,4.7,3.8,8.5,8.5,8.5h51.2c4.7,0,8.5-3.8,8.5-8.5
	C153.6,46.5,149.8,42.7,145.1,42.7z"/>
</svg>
