<?xml version="1.0" encoding="utf-8"?>
<!-- Generator: Adobe Illustrator 22.1.0, SVG Export Plug-In . SVG Version: 6.00 Build 0)  -->
<svg version="1.1" id="Capa_1" xmlns="http://www.w3.org/2000/svg" xmlns:xlink="http://www.w3.org/1999/xlink" x="0px" y="0px"
	 viewBox="0 0 512 512" style="enable-background:new 0 0 512 512;" xml:space="preserve" fill="#aa132c">
<g>
	<path d="M410.4,268.1c48.2,0,87.4-39,87.4-87c0-40.3-24-75.1-58.5-91.1V60.5h10.1c5.6,0,10.1-4.5,10.1-10.1V10.1
		c0-5.6-4.5-10.1-10.1-10.1H300.3c-5.8,0-10.5,4.9-10.1,10.8c0.4,5.3,5.1,9.4,10.4,9.4h138.7v20.2H72.6V20.2h137.1
		c5.8,0,10.5-4.9,10.1-10.8C219.3,4,214.6,0,209.3,0H62.5c-5.6,0-10.1,4.5-10.1,10.1v40.3c0,5.6,4.5,10.1,10.1,10.1h10.1V90
		c-34.5,16-58.5,50.8-58.5,91.1c0,47.9,39.2,87,87.4,87c2.5,0,4.9-0.1,7.3-0.4V292c-11.7,4.2-20.2,15.4-20.2,28.5
		c0,16.5,12.1,29.9,31.8,30.2c-1.4,5.9-0.7,12.1,2.1,17.8l7.4,14.8v118.6c0,5.6,4.5,10.1,10.1,10.1h231.8c5.6,0,10.1-4.5,10.1-10.1
		V383.4l7.4-14.8c2.8-5.6,3.5-11.9,2.1-17.8c16.5-0.2,29.8-13.7,29.8-30.2c0-13.1-8.4-24.3-20.2-28.5v-24.5
		C404.2,267.9,407.3,268.1,410.4,268.1L410.4,268.1z M92.7,60.5h326.6v22.7c-7.2-1.6-14.8-2.5-22.5-2.5H115.2
		c-7.7,0-15.2,0.9-22.5,2.5V60.5z M170.3,491.8h-20.2v-50.4c0-5.6,4.5-10.1,10.1-10.1s10.1,4.5,10.1,10.1V491.8z M266.1,491.8h-20.2
		v-50.4c0-5.6,4.5-10.1,10.1-10.1c5.6,0,10.1,4.5,10.1,10.1V491.8z M361.8,491.8h-20.2v-50.4c0-5.6,4.5-10.1,10.1-10.1
		c5.6,0,10.1,4.5,10.1,10.1V491.8z M361.8,412.9c-3.2-1.1-6.5-1.7-10.1-1.7c-16.7,0-30.2,13.6-30.2,30.2v50.4h-35.3v-50.4
		c0-16.7-13.6-30.2-30.2-30.2s-30.2,13.6-30.2,30.2v50.4h-35.3v-50.4c0-16.7-13.6-30.2-30.2-30.2c-3.5,0-6.9,0.6-10.1,1.7v-21.9
		h211.7V412.9z M371.4,359.5l-5.7,11.4H146.3l-5.7-11.4c-2-4.4,1.3-8.8,5.4-8.8H366C370.2,350.7,373.5,355.3,371.4,359.5z
		 M391.1,330.6H118.9c-5.6,0-10.1-4.5-10.1-10.1c0-5.6,4.5-10.1,10.1-10.1h272.1c5.6,0,10.1,4.5,10.1,10.1
		C401.1,326.1,396.6,330.6,391.1,330.6z M177.2,187.5h18.3v42.3h-28.2c6.4-11.2,10.1-24.1,10.1-37.9
		C177.4,190.4,177.3,188.9,177.2,187.5z M361.4,250c5.8,5,12.4,9.1,19.6,12.2v28.2H129v-27.3c7.9-3.1,15.2-7.5,21.6-13H361.4z
		 M215.7,229.8v-42.3h30.2v42.3H215.7z M266.1,229.8v-42.3h28.2v42.3H266.1z M344.7,229.8h-30.2v-42.3h20.3c-0.1,1.5-0.2,3-0.2,4.4
		C334.6,205.7,338.3,218.6,344.7,229.8z M354.8,191.9c0-23.1,18.9-41.9,42.2-41.9c19,0,34.4,15.3,34.4,34.1c0,12.1-9.9,22-22.2,22
		c-5.6,0-10.1,4.5-10.1,10.1s4.5,10.1,10.1,10.1c23.3,0,42.3-18.9,42.3-42.1c0-29.9-24.5-54.3-54.5-54.3
		c-25.6,0-47.7,15.4-57.3,37.4H172.3c-9.6-22-31.7-37.4-57.3-37.4c-30.1,0-54.5,24.3-54.5,54.3c0,23.2,19,42.1,42.3,42.1
		c5.6,0,10.1-4.5,10.1-10.1s-4.5-10.1-10.1-10.1c-12.2,0-22.2-9.9-22.2-22c0-18.8,15.4-34.1,34.4-34.1c23.3,0,42.2,18.8,42.2,41.9
		c0,30.9-25,56-55.7,56c-37.1,0-67.3-30-67.3-66.8c0-44.3,36.3-80.4,80.9-80.4h281.6c44.6,0,80.9,36,80.9,80.4
		c0,36.8-30.2,66.8-67.3,66.8C379.7,247.9,354.8,222.8,354.8,191.9L354.8,191.9z M244.9,10.1C244.9,4.5,249.4,0,255,0
		c5.6,0,10.1,4.5,10.1,10.1s-4.5,10.1-10.1,10.1C249.4,20.2,244.9,15.6,244.9,10.1z"/>
</g>
</svg>
