<?xml version="1.0" encoding="utf-8"?>
<!-- Generator: Adobe Illustrator 22.1.0, SVG Export Plug-In . SVG Version: 6.00 Build 0)  -->
<svg version="1.1" id="Capa_1" xmlns="http://www.w3.org/2000/svg" xmlns:xlink="http://www.w3.org/1999/xlink" x="0px" y="0px"
	 viewBox="0 0 512 512" style="enable-background:new 0 0 512 512;" xml:space="preserve" fill="#aa132c">
<g>
	<g>
		<path d="M504.2,246.1V28.8c0-4.1-3.4-7.5-7.5-7.5H15.4c-4.1,0-7.5,3.4-7.5,7.5v217.3c-4.7,2.5-7.8,7.4-7.8,13v15.4
			c0,5.6,3.2,10.5,7.8,13v195.7c0,4.1,3.4,7.5,7.5,7.5h34.1H83h2.3h84.1h86.4h86.4h84.5h1.9h33.9h34.1c4.1,0,7.5-3.4,7.5-7.5V287.5
			c4.7-2.5,7.8-7.4,7.8-13v-15.4C512,253.4,508.8,248.5,504.2,246.1z M486.3,36.3c-3,4.4-8.6,9.6-17.4,15.1
			c-0.1,0.1-0.2,0.1-0.3,0.2c-0.5,0.3-1,0.6-1.6,1c-0.2,0.1-0.5,0.3-0.7,0.4c-0.4,0.2-0.8,0.5-1.2,0.7c-0.3,0.2-0.7,0.4-1,0.6
			c-0.3,0.2-0.7,0.4-1,0.6c-0.4,0.2-0.8,0.5-1.3,0.7c-0.1,0-0.2,0.1-0.2,0.1c-1.1,0.6-2.2,1.2-3.4,1.8c-0.3,0.2-0.6,0.3-0.9,0.5
			c-0.4,0.2-0.9,0.4-1.4,0.7c-0.4,0.2-0.8,0.4-1.3,0.6c-0.4,0.2-0.8,0.4-1.2,0.6c-0.5,0.3-1.1,0.5-1.6,0.8c-0.3,0.2-0.7,0.3-1,0.5
			c-0.7,0.3-1.5,0.7-2.3,1c-0.2,0.1-0.3,0.1-0.5,0.2c-3.1,1.3-6.3,2.7-9.8,4c0,0,0,0,0,0c-4.5,1.7-9.3,3.5-14.4,5.2
			c-13.9,4.6-28.9,8.6-44.6,11.9c-0.3,0-0.5,0.1-0.8,0.1c-15,3.1-30.7,5.7-46.8,7.6c-0.2,0-0.4,0.1-0.6,0.1
			c-24.2,2.9-49.5,4.4-75,4.4s-50.8-1.5-75-4.4c-0.2,0-0.4-0.1-0.6-0.1c-16.1-1.9-31.8-4.5-46.8-7.6c-0.3-0.1-0.5-0.1-0.8-0.1
			c-15.8-3.3-30.7-7.3-44.6-11.9c-5.1-1.7-9.9-3.4-14.4-5.2c0,0,0,0,0,0c-3.5-1.3-6.7-2.7-9.8-4c-0.2-0.1-0.3-0.1-0.5-0.2
			c-0.8-0.3-1.5-0.7-2.3-1c-0.3-0.2-0.7-0.3-1-0.5c-0.5-0.3-1.1-0.5-1.6-0.8c-0.4-0.2-0.8-0.4-1.2-0.6c-0.4-0.2-0.8-0.4-1.3-0.6
			c-0.5-0.2-0.9-0.4-1.4-0.7c-0.3-0.2-0.6-0.3-0.9-0.5c-1.1-0.6-2.3-1.2-3.3-1.7c-0.1,0-0.2-0.1-0.3-0.1c-0.4-0.2-0.8-0.5-1.3-0.7
			c-0.3-0.2-0.7-0.4-1-0.6c-0.3-0.2-0.7-0.4-1-0.6c-0.4-0.2-0.8-0.5-1.2-0.7c-0.2-0.1-0.5-0.3-0.7-0.4c-0.5-0.3-1.1-0.6-1.6-1
			c-0.1-0.1-0.2-0.1-0.3-0.2c-8.8-5.5-14.3-10.7-17.4-15.1L486.3,36.3L486.3,36.3z M22.9,55.4c2.3,2,5,4,8,6.1
			c8,5.5,18.6,11.3,32.7,17c0,47.2-13.8,99.7-25.5,136c-1.3,3.9,0.9,8.2,4.8,9.5c3.9,1.3,8.2-0.9,9.5-4.8
			c11.7-35.9,25.2-87.4,26.2-135c1.6,0.6,3.3,1.1,4.9,1.7c12.2,4,25.3,7.6,39,10.7c-15.9,49.3-41.8,89.9-61.2,115.7
			c-2.5,3.3-1.8,8,1.5,10.5c1.4,1,2.9,1.5,4.5,1.5c2.3,0,4.5-1,6-3c20.3-27.1,47.5-69.7,63.9-121.6c10.3,2,21,3.8,31.9,5.3
			c-15.9,39-47.7,79.1-72.5,106.8c-2.8,3.1-2.5,7.8,0.6,10.6c3.1,2.8,7.8,2.5,10.6-0.6c46.2-51.6,67.2-90.2,76.7-114.9
			c23.2,2.6,47.3,3.9,71.5,3.9c24.3,0,48.3-1.3,71.5-3.9c16.2,42.2,50.4,85.5,76.8,115c2.8,3.1,7.5,3.3,10.6,0.6
			c3.1-2.8,3.3-7.5,0.6-10.6c-24.8-27.7-56.7-67.9-72.6-106.9c10.9-1.5,21.5-3.2,31.9-5.3c16.5,52,43.7,94.7,64,121.8
			c1.5,2,3.7,3,6,3c1.6,0,3.2-0.5,4.5-1.5c3.3-2.5,4-7.2,1.5-10.5c-19.4-25.9-45.4-66.6-61.3-115.9c13.7-3.1,26.7-6.7,39-10.7
			c1.7-0.6,3.3-1.1,4.9-1.7c1,47.6,14.5,99.1,26.2,134.9c1.3,3.9,5.5,6.1,9.5,4.8c3.9-1.3,6.1-5.5,4.8-9.5
			c-11.8-36.3-25.5-88.7-25.5-135.9c14.1-5.7,24.8-11.5,32.7-17c3-2.1,5.7-4.1,8-6.1v189h-41.7c-8.1,0-14.7,6.6-14.7,14.7v15.4
			c0,4,1.6,7.6,4.2,10.3c-4.5,13.8-10,31.2-15.2,50H90.2c-5.2-18.8-10.6-36.2-15.2-50c2.6-2.7,4.2-6.3,4.2-10.3v-15.4
			c0-8.1-6.6-14.7-14.7-14.7H22.9V55.4z M15,274.2v-14.8h49.2v14.8H35.7H15.4H15z M53.7,473.3c-0.8,1.5-2.4,2.4-4.2,2.4H22.9V289.2
			h7.2C57.4,381.8,66.3,450.4,53.7,473.3z M90.5,475.7v-41.5c0-8.9,7.3-16.2,16.2-16.2h39c8.9,0,16.2,7.3,16.2,16.2v41.5H90.5z
			 M176.9,475.7v-41.5c0-8.9,7.3-16.2,16.2-16.2h39c8.9,0,16.2,7.3,16.2,16.2v41.5H176.9z M263.3,475.7v-41.5
			c0-8.9,7.3-16.2,16.2-16.2h39c8.9,0,16.2,7.3,16.2,16.2v41.5H263.3z M421.1,475.7h-71.4v-41.5c0-8.9,7.3-16.2,16.2-16.2h39
			c8.9,0,16.2,7.3,16.2,16.2V475.7z M436.1,475.7v-41.5c0-17.2-14-31.2-31.2-31.2h-39c-9.5,0-18,4.3-23.7,10.9
			c-5.7-6.7-14.2-10.9-23.7-10.9h-39c-9.5,0-18,4.3-23.7,10.9c-5.7-6.7-14.2-10.9-23.7-10.9h-39c-9.5,0-18,4.3-23.7,10.9
			c-5.7-6.7-14.2-10.9-23.7-10.9h-39c-17.2,0-31.2,14-31.2,31.2v41.5h-6.4c15.2-38.5-6.5-128.8-23.3-186.5h15
			c7.1,21.6,16.4,51.9,23.5,82.7c0.9,4,5,6.6,9,5.6c4-0.9,6.6-5,5.6-9c-1.5-6.3-3-12.6-4.6-18.8h323.6c-1.6,6.3-3.2,12.6-4.6,19
			c-0.9,4,1.6,8.1,5.6,9c0.6,0.1,1.1,0.2,1.7,0.2c3.4,0,6.5-2.4,7.3-5.8c7.1-30.9,16.4-61.3,23.5-82.9h15
			c-16.8,57.7-38.6,148-23.3,186.5L436.1,475.7L436.1,475.7z M489.1,475.7h-26.6c-1.8,0-3.4-0.9-4.2-2.4
			c-12.6-22.9-3.8-91.5,23.6-184.1h7.2V475.7z M497,274.2h-0.3h-20.3h-28.5v-14.8H497V274.2z"/>
	</g>
</g>
</svg>
