<?xml version="1.0" encoding="utf-8"?>
<!-- Generator: Adobe Illustrator 22.1.0, SVG Export Plug-In . SVG Version: 6.00 Build 0)  -->
<svg version="1.1" id="Layer_1" xmlns="http://www.w3.org/2000/svg" xmlns:xlink="http://www.w3.org/1999/xlink" x="0px" y="0px"
	 viewBox="0 0 512 512" style="enable-background:new 0 0 512 512;" xml:space="preserve" fill="#aa132c">
<path d="M482,20c-13,0-24.2,8.4-28.3,20H380c0-22.1-17.9-40-40-40c-22.1,0-40,17.9-40,40h-40c0-22.1-17.9-40-40-40
	c-22.1,0-40,17.9-40,40h-40c0-22.1-17.9-40-40-40C77.9,0,60,17.9,60,40H10C4.5,40,0,44.5,0,50s4.5,10,10,10h50c0,11-9,20-20,20H10
	C4.5,80,0,84.5,0,90v146c0,5.5,4.5,10,10,10s10-4.5,10-10V100h20c22.1,0,40-17.9,40-40V40c0-11,9-20,20-20c11,0,20,9,20,20v20
	c0,22.1,17.9,40,40,40c22.1,0,40-17.9,40-40V40c0-11,9-20,20-20c11,0,20,9,20,20v20c0,22.1,17.9,40,40,40c22.1,0,40-17.9,40-40V40
	c0-11,9-20,20-20c11,0,20,9,20,20v432c0,11-9,20-20,20c-11,0-20-9-20-20c0-29.2,0-221.3,0-262c0-5.5-4.5-10-10-10s-10,4.5-10,10
	v207.4c-6-3.5-12.9-5.4-20-5.4c-7.3,0-14.1,2-20,5.4V130c0-5.5-4.5-10-10-10s-10,4.5-10,10v342c0,11-9,20-20,20c-11,0-20-9-20-20
	c0-29.2,0-221.3,0-262c0-5.5-4.5-10-10-10s-10,4.5-10,10v207.4c-6-3.5-12.9-5.4-20-5.4c-7.3,0-14.1,2-20,5.4V130c0-5.5-4.5-10-10-10
	s-10,4.5-10,10v342c0,11-9,20-20,20c-11,0-20-9-20-20c0-29.2,0-221.3,0-262c0-5.5-4.5-10-10-10s-10,4.5-10,10v207.4
	c-5.9-3.4-12.7-5.4-20-5.4H20v-96c0-5.5-4.5-10-10-10s-10,4.5-10,10v106c0,5.5,4.5,10,10,10h30c11,0,20,9,20,20v20
	c0,22.1,17.9,40,40,40c22.1,0,40-17.9,40-40v-20c0-11,9-20,20-20c11,0,20,9,20,20v20c0,22.1,17.9,40,40,40c22.1,0,40-17.9,40-40v-20
	c0-11,9-20,20-20c11,0,20,9,20,20v20c0,22.1,17.9,40,40,40c22.1,0,40-17.9,40-40V60h73.7c4.1,11.6,15.2,20,28.3,20
	c16.5,0,30-13.5,30-30S498.5,20,482,20z M160,80c-11,0-20-9-20-20h40C180,71,171,80,160,80z M280,80c-11,0-20-9-20-20h40
	C300,71,291,80,280,80z M482,60c-5.5,0-10-4.5-10-10s4.5-10,10-10s10,4.5,10,10S487.5,60,482,60z"/>
<path d="M20,276c0,5.5-4.5,10-10,10s-10-4.5-10-10s4.5-10,10-10S20,270.5,20,276z"/>
</svg>
