<?xml version="1.0" encoding="utf-8"?>
<!-- Generator: Adobe Illustrator 22.1.0, SVG Export Plug-In . SVG Version: 6.00 Build 0)  -->
<svg version="1.1" id="Layer_1" xmlns="http://www.w3.org/2000/svg" xmlns:xlink="http://www.w3.org/1999/xlink" x="0px" y="0px"
	 viewBox="0 0 512 512" style="enable-background:new 0 0 512 512;" xml:space="preserve" fill="#aa132c">
<g>
	<g>
		<path d="M488.1,9.4c-10.6,0-19.5,6.9-22.7,16.4h-23.1v-6.3h-15.1v6.3h-24.2v-6.3h-15.1v6.3h-24.2v-6.3h-15.1v6.3h-24.2v-6.3H309
			v6.3H203v-6.3h-15.1v6.3h-24.2v-6.3h-15.1v6.3h-24.2v-6.3h-15.1v6.3H84.9v-6.3H69.7v6.3H46.6C43.5,16.2,34.5,9.4,23.9,9.4
			C10.7,9.4,0,20.1,0,33.3c0,13.2,10.7,23.9,23.9,23.9c10.6,0,19.5-6.9,22.7-16.4h23.1v20h-22v441.7h113v-40h190.6v40h113V60.9h-22
			v-20h23.1c3.2,9.5,12.1,16.4,22.7,16.4c13.2,0,23.9-10.7,23.9-23.9C512,20.1,501.3,9.4,488.1,9.4z M23.9,42.1
			c-4.9,0-8.8-3.9-8.8-8.8s3.9-8.8,8.8-8.8s8.8,3.9,8.8,8.8C32.7,38.2,28.8,42.1,23.9,42.1z M402.9,40.9h24.2v20h-24.2V40.9z
			 M363.5,40.9h24.2v20h-24.2V40.9z M324.1,40.9h24.2v20h-24.2V40.9z M203,40.9h106v20h-28.4l-0.1,7.5c0,0.4,0,3.3,0.1,8.1h-49.2
			c0.1-4.8,0.1-7.7,0.1-8.1l-0.1-7.5H203V40.9z M351.3,399.6v14.6H160.7v-14.6h89.8V106.3h-20.4c0.4-5.4,0.6-10.3,0.8-14.6h50.2
			c0.2,4.4,0.5,9.3,0.8,14.6h-15.3v293.3H351.3z M160.7,384.5v-61.6c30-31.4,50.9-83.4,62.4-154.7c2.7-16.9,4.5-32.8,5.8-46.8h6.4
			v263.1H160.7z M163.6,40.9h24.2v20h-24.2V40.9z M124.2,40.9h24.2v20h-24.2V40.9z M84.9,40.9h24.2v20H84.9V40.9z M145.6,487.5
			h-16.9v-90.8h-15.1v90.8H95.6v-90.8H80.4v90.8H62.9V327.4h82.7V487.5z M149.9,312.3h-19.2c-0.2-5.6,0-14.4,1.7-25.7l-15-2.3
			c-1.8,11.9-2,21.5-1.8,27.9h-20v-19.4H80.4v19.4H62.9V76H109c0.4,14.7-0.2,51.7-12.2,101.5l14.7,3.5c12.3-51.1,13-89,12.6-105h40
			c0.7,16.3,0.7,60.4-14.1,115.3l14.6,3.9C180,138.7,180.1,93.9,179.4,76h36.8C215.5,110,208.9,250.1,149.9,312.3z M351.3,447.5
			H160.7v-18.1h190.6V447.5z M351.3,384.5L351.3,384.5h-69.6V121.4h1.4c1.2,14,3.1,29.9,5.8,46.8c11.5,71.3,32.4,123.3,62.4,154.7
			L351.3,384.5L351.3,384.5z M431.6,487.5v-90.8h-15.1v90.8h-17.9v-90.8h-15.1v90.8h-16.9V327.4h82.7v160.1L431.6,487.5L431.6,487.5
			z M449.1,76L449.1,76v236.2h-17.6v-19.4h-15.1v19.4h-20c0.2-6.4,0-16-1.8-27.9l-15,2.3c1.7,11.2,1.8,20.1,1.6,25.7h-19.1
			c-59-62.2-65.6-202.3-66.3-236.2h36.8c-0.8,17.9-0.6,62.6,14.7,119.3l14.6-3.9c-14.8-55-14.8-99-14.1-115.3h40
			c-0.4,16,0.3,53.9,12.6,105l14.7-3.5C403.2,127.9,402.6,90.7,403,76L449.1,76L449.1,76z M488.1,42.1c-4.9,0-8.8-3.9-8.8-8.8
			s3.9-8.8,8.8-8.8s8.8,3.9,8.8,8.8C496.9,38.2,492.9,42.1,488.1,42.1z"/>
	</g>
</g>
</svg>
