<?xml version="1.0" encoding="utf-8"?>
<!-- Generator: Adobe Illustrator 22.1.0, SVG Export Plug-In . SVG Version: 6.00 Build 0)  -->
<svg version="1.1" id="Layer_3" xmlns="http://www.w3.org/2000/svg" xmlns:xlink="http://www.w3.org/1999/xlink" x="0px" y="0px"
	 viewBox="0 0 512 512" style="enable-background:new 0 0 512 512;" xml:space="preserve" fill="#aa132c">
<path d="M504,184c0-9.5-4.2-18.1-10.9-24c6.7-5.9,10.9-14.5,10.9-24c0-17.6-14.4-32-32-32H344h-40h-62.4c4.1-6.6,6.4-14.1,6.4-22.1
	c0-20-14.1-36.8-33.1-40.9C210.8,22.1,194,8,174.1,8c-11.2,0-21.7,4.4-29.7,12.3l-0.4,0.4l-0.4-0.4C135.7,12.4,125.1,8,113.9,8
	C94,8,77.2,22.1,73.1,41.1C54.1,45.2,40,62,40,81.9c0,8.9,2.9,17.3,8,24.4C24.9,113.3,8,134.7,8,160c0,20.4,11,38.2,27.3,48
	C19,217.8,8,235.6,8,256s11,38.2,27.3,48C19,313.8,8,331.6,8,352s11,38.2,27.3,48C19,409.8,8,427.6,8,448c0,30.9,25.1,56,56,56h240
	h168c17.6,0,32-14.4,32-32c0-9.5-4.2-18.1-10.9-24c6.7-5.9,10.9-14.5,10.9-24c0-9.6-4.3-18.1-11.1-24c6.7-5.9,11.1-14.4,11.1-24
	c0-9.5-4.2-18.1-10.9-24c6.7-5.9,10.9-14.5,10.9-24c0-9.6-4.3-18.1-11.1-24c6.7-5.9,11.1-14.4,11.1-24c0-9.5-4.2-18.1-10.9-24
	c6.7-5.9,10.9-14.5,10.9-24c0-9.6-4.3-18.1-11.1-24C499.7,202.1,504,193.6,504,184z M241.6,120h23.3c-10.4,10.2-16.9,24.3-16.9,40
	s6.5,29.8,16.9,40h-58.1c3.9-4.9,6.8-10.7,8.2-17.1c19-4.1,33.1-20.9,33.1-40.9C248,134.1,245.7,126.6,241.6,120z M80.6,56.2
	l7.2-0.4l0.4-7.2c0.7-13.8,12-24.6,25.8-24.6c6.9,0,13.4,2.7,18.3,7.6L144,43.3l11.7-11.7c4.9-4.9,11.4-7.6,18.3-7.6
	c13.7,0,25.1,10.8,25.8,24.6l0.4,7.2l7.2,0.4c13.8,0.7,24.6,12,24.6,25.8c0,6.9-2.7,13.4-7.6,18.3L212.7,112l11.7,11.7
	c4.9,4.9,7.6,11.4,7.6,18.3c0,13.7-10.8,25-24.6,25.8l-7.2,0.4l-0.4,7.2c-0.7,13.8-12,24.6-25.8,24.6c-6.9,0-13.4-2.7-18.3-7.6
	L144,180.7l-11.7,11.7c-4.9,4.9-11.4,7.6-18.3,7.6c-13.7,0-25.1-10.8-25.8-24.6l-0.4-7.2l-7.2-0.4c-13.8-0.7-24.6-12-24.6-25.8
	c0-6.9,2.7-13.4,7.6-18.3L75.3,112l-11.7-11.7C58.7,95.4,56,88.9,56,81.9C56,68.2,66.8,56.9,80.6,56.2L80.6,56.2z M24,160
	c0-14.4,7.7-26.9,19.2-34c-2.1,5-3.2,10.4-3.2,16c0,20,14.1,36.8,33.1,40.9c1.4,6.4,4.3,12.2,8.2,17.1H64C41.9,200,24,182.1,24,160z
	 M24,256c0-22.1,17.9-40,40-40h64h136.9c-10.4,10.2-16.9,24.3-16.9,40s6.5,29.8,16.9,40H64C41.9,296,24,278.1,24,256z M24,352
	c0-22.1,17.9-40,40-40h200.9c-10.4,10.2-16.9,24.3-16.9,40s6.5,29.8,16.9,40H64C41.9,392,24,374.1,24,352z M64,488
	c-22.1,0-40-17.9-40-40s17.9-40,40-40h200.9c-10.4,10.2-16.9,24.3-16.9,40s6.5,29.8,16.9,40H64z M488,424c0,8.8-7.2,16-16,16H296v16
	h176c8.8,0,16,7.2,16,16s-7.2,16-16,16H304c-22.1,0-40-17.9-40-40s17.9-40,40-40h168C480.8,408,488,415.2,488,424z M488,328
	c0,8.8-7.2,16-16,16H296v16h176c8.8,0,16,7.2,16,16s-7.2,16-16,16H304c-22.1,0-40-17.9-40-40s17.9-40,40-40h168
	C480.8,312,488,319.2,488,328z M488,232c0,8.8-7.2,16-16,16H296v16h176c8.8,0,16,7.2,16,16s-7.2,16-16,16H304c-22.1,0-40-17.9-40-40
	s17.9-40,40-40h168C480.8,216,488,223.2,488,232z M304,200c-22.1,0-40-17.9-40-40s17.9-40,40-40h40h128c8.8,0,16,7.2,16,16
	s-7.2,16-16,16H296v16h176c8.8,0,16,7.2,16,16s-7.2,16-16,16H304z"/>
<path d="M144,160c26.5,0,48-21.5,48-48s-21.5-48-48-48s-48,21.5-48,48S117.5,160,144,160z M144,80c17.6,0,32,14.4,32,32
	s-14.4,32-32,32s-32-14.4-32-32S126.4,80,144,80z"/>
<path d="M56,448v-8H40v8c0,13.2,10.8,24,24,24h80v-16H64C59.6,456,56,452.4,56,448z"/>
<path d="M160,456h16v16h-16V456z"/>
<path d="M56,256v-8H40v8c0,13.2,10.8,24,24,24h80v-16H64C59.6,264,56,260.4,56,256z"/>
<path d="M160,264h16v16h-16V264z"/>
<path d="M216,328h16v16h-16V328z"/>
<path d="M184,328h16v16h-16V328z"/>
<path d="M152,328h16v16h-16V328z"/>
</svg>
