<?xml version="1.0" encoding="utf-8"?>
<!-- Generator: Adobe Illustrator 22.1.0, SVG Export Plug-In . SVG Version: 6.00 Build 0)  -->
<svg version="1.1" id="Layer_1" xmlns="http://www.w3.org/2000/svg" xmlns:xlink="http://www.w3.org/1999/xlink" x="0px" y="0px"
	 viewBox="0 0 512 512" style="enable-background:new 0 0 512 512;" xml:space="preserve" fill="#aa132c">
<path d="M511.5,28.7c0-15.9-12.9-28.7-28.7-28.7c-28.1,0-116.1,0-144.5,0c-15.8,0-28.7,12.9-28.7,28.7v7.8H133.1V18.3
	c0-4.2-3.4-7.6-7.6-7.6s-7.6,3.4-7.6,7.6v18.3h-32V18.3c0-4.2-3.4-7.6-7.6-7.6s-7.6,3.4-7.6,7.6v18.3h-32V18.3
	c0-4.2-3.4-7.6-7.6-7.6s-7.6,3.4-7.6,7.6v18.3H9.3c-4.2,0-7.6,3.4-7.6,7.6c0,4.2,3.4,7.6,7.6,7.6h14.3V75h-16C3.4,75,0,78.4,0,82.6
	v421.8c0,4.2,3.4,7.6,7.6,7.6H504c4.2,0,7.6-3.4,7.6-7.6C511.6,495.7,511.5,55.2,511.5,28.7z M466.9,15.2l-7,30.5h-98.5l-7-30.5
	L466.9,15.2z M133.1,51.7h176.5V75H133.1V51.7z M85.9,51.7h32V75h-32V51.7z M38.8,51.7h32V75h-32V51.7z M47.2,496.8h-32V90.2h32
	V496.8z M94.3,496.8h-32V90.2h32V496.8z M449.1,496.8h-32c0-13.2,0-105.7,0-119h32V496.8z M496.3,496.8h-32v-119h18.5
	c4.9,0,9.5-1.2,13.5-3.4V496.8z M496.4,349.1c0,7.5-6.1,13.6-13.6,13.6c-44.5,0-100,0-144.5,0c-7.5,0-13.6-6.1-13.6-13.6V145.2
	c0-4.2-3.4-7.6-7.6-7.6s-7.6,3.4-7.6,7.6v203.9c0,15.9,12.9,28.8,28.7,28.8h16.5v62.5c0,4.2,3.4,7.6,7.6,7.6c4.2,0,7.6-3.4,7.6-7.6
	v-62.5h32v119h-32v-26.2c0-4.2-3.4-7.6-7.6-7.6c-4.2,0-7.6,3.4-7.6,7.6v26.2H156.7V298.5c0-4.2-3.4-7.6-7.6-7.6s-7.6,3.4-7.6,7.6
	v198.3c-0.3,0-0.4,0-0.4,0c-1.6,0-8.1,0-31.6,0c0-25.7,0-387.6,0-406.6h32v178c0,4.2,3.4,7.6,7.6,7.6s7.6-3.4,7.6-7.6v-178h152.9
	v24.6c0,4.2,3.4,7.6,7.6,7.6s7.6-3.4,7.6-7.6c0-45.3,0-40.9,0-86.1c0-7.5,6.1-13.6,13.6-13.6h0.4l8.1,35c1.4,6.3,6.9,10.6,13.4,10.6
	H461c6.4,0,11.9-4.4,13.4-10.6l8.1-35h0.4c7.5,0,13.6,6.1,13.6,13.6V349.1z"/>
<path d="M373.6,37.6h47c4.2,0,7.6-3.4,7.6-7.6c0-4.2-3.4-7.6-7.6-7.6h-47c-4.2,0-7.6,3.4-7.6,7.6C366,34.2,369.4,37.6,373.6,37.6z"
	/>
<path d="M447.6,30c0,3.9-3.1,7-7,7c-3.9,0-7-3.1-7-7c0-3.9,3.1-7,7-7C444.4,23,447.6,26.1,447.6,30z"/>
<path d="M479.9,71.4H341.2c-4.7,0-8.6,3.8-8.6,8.6v260.3c0,4.7,3.8,8.6,8.6,8.6h138.8c4.7,0,8.6-3.8,8.6-8.6V80
	C488.5,75.2,484.7,71.4,479.9,71.4z M473.3,333.7H347.8V86.6h125.5V333.7z"/>
<path d="M357.2,225.3h15.9c-0.5,7.2,8.3,10.9,13.2,5.6l24.5-26.7l24.5,26.7c4.8,5.2,13.6,1.5,13.2-5.6h15.9c4.2,0,7.6-3.4,7.6-7.6
	v-42.1c0-4.2-3.4-7.6-7.6-7.6h-15.9c0.5-7.1-8.3-10.9-13.2-5.6l-24.5,26.7l-24.5-26.7c-4.8-5.3-13.6-1.5-13.2,5.6h-15.9
	c-4.2,0-7.6,3.4-7.6,7.6v42C349.6,221.9,353,225.3,357.2,225.3z M436.8,183.3h19.9v26.9h-19.9l-12.4-13.4L436.8,183.3z M364.8,183.3
	h19.9l12.4,13.4l-12.4,13.4h-19.9V183.3z"/>
</svg>
