<?xml version="1.0" encoding="utf-8"?>
<!-- Generator: Adobe Illustrator 22.1.0, SVG Export Plug-In . SVG Version: 6.00 Build 0)  -->
<svg version="1.1" id="Capa_1" xmlns="http://www.w3.org/2000/svg" xmlns:xlink="http://www.w3.org/1999/xlink" x="0px" y="0px"
	 viewBox="0 0 512 512" style="enable-background:new 0 0 512 512;" xml:space="preserve" fill="#aa132c">
<g>
	<circle cx="339.5" cy="301" r="7.5"/>
	<circle cx="369.5" cy="271" r="7.5"/>
	<circle cx="369.5" cy="331" r="7.5"/>
	<circle cx="399.5" cy="301" r="7.5"/>
	<circle cx="414.5" cy="444.5" r="7.5"/>
	<circle cx="444.5" cy="414.5" r="7.5"/>
	<circle cx="444.5" cy="474.5" r="7.5"/>
	<circle cx="474.5" cy="444.5" r="7.5"/>
	<circle cx="414.5" cy="157.5" r="7.5"/>
	<circle cx="444.5" cy="127.5" r="7.5"/>
	<circle cx="444.5" cy="187.5" r="7.5"/>
	<circle cx="474.5" cy="157.5" r="7.5"/>
	<circle cx="264.5" cy="444.5" r="7.5"/>
	<circle cx="294.5" cy="414.5" r="7.5"/>
	<circle cx="294.5" cy="474.5" r="7.5"/>
	<circle cx="324.5" cy="444.5" r="7.5"/>
	<path d="M97.5,165c37.2,0,67.5-30.3,67.5-67.5S134.7,30,97.5,30c-12.1,0-23.9,3.2-34.3,9.4c-3.6,2.1-4.7,6.7-2.6,10.3
		c2.1,3.6,6.7,4.7,10.3,2.6c8.1-4.8,17.3-7.3,26.7-7.3c28.9,0,52.5,23.6,52.5,52.5S126.4,150,97.5,150S45,126.4,45,97.5
		c0-9.4,2.5-18.6,7.3-26.7c2.1-3.6,0.9-8.2-2.6-10.3c-3.6-2.1-8.2-0.9-10.3,2.6C33.2,73.6,30,85.4,30,97.5
		C30,134.7,60.3,165,97.5,165z"/>
	<path d="M97.5,135c20.7,0,37.5-16.8,37.5-37.5S118.2,60,97.5,60S60,76.8,60,97.5S76.8,135,97.5,135z M97.5,75
		c12.4,0,22.5,10.1,22.5,22.5S109.9,120,97.5,120S75,109.9,75,97.5S85.1,75,97.5,75z"/>
	<path d="M459.5,0h-362C43.7,0,0,43.7,0,97.5v317C0,468.3,43.7,512,97.5,512c51.2,0,93.4-39.7,97.2-90h22.2
		c-4.3,23.6-6.9,50.7-6.9,82.5c0,4.1,3.4,7.5,7.5,7.5h242c28.9,0,52.5-23.6,52.5-52.5v-407C512,23.6,488.4,0,459.5,0z M97.5,15
		C143,15,180,52,180,97.5S143,180,97.5,180S15,143,15,97.5S52,15,97.5,15z M97.5,497C52,497,15,460,15,414.5V149.4
		C32.3,176.8,62.8,195,97.5,195s65.2-18.2,82.5-45.6v265.1C180,460,143,497,97.5,497z M195,407V97.5c0-34.7-18.2-65.2-45.6-82.5
		h310.1c20.7,0,37.5,16.8,37.5,37.5S480.2,90,459.5,90h-137c-4.1,0-7.5,3.4-7.5,7.5c0,99.9-25.1,148.6-51.7,200.1
		c-16.4,31.8-33.1,64.2-43.4,109.4H195z M497,459.5c0,20.7-16.8,37.5-37.5,37.5H225.1c1.2-94.9,25.7-142.4,51.6-192.6
		c25.6-49.6,52-100.8,53.3-199.4h129.5c14.7,0,28-6.1,37.5-15.8V459.5z"/>
</g>
</svg>
