<?xml version="1.0" encoding="utf-8"?>
<!-- Generator: Adobe Illustrator 22.1.0, SVG Export Plug-In . SVG Version: 6.00 Build 0)  -->
<svg version="1.1" id="Layer_1" xmlns="http://www.w3.org/2000/svg" xmlns:xlink="http://www.w3.org/1999/xlink" x="0px" y="0px"
	 viewBox="0 0 168.7 111.5" style="enable-background:new 0 0 168.7 111.5;" xml:space="preserve">
<style type="text/css">
	.st0{fill:#DAA976;}
	.st1{fill:#6E522B;}
	.st2{fill:none;stroke:#6E522B;stroke-width:0.2259;}
</style>
<path class="st0" d="M26.4,103.5c1.8,2.2,5,2.4,7.2,0.6c2.2-1.8,2.4-5,0.6-7.2c-1.8-2.2-5-2.4-7.2-0.6
	C24.9,98.1,24.6,101.3,26.4,103.5L26.4,103.5z"/>
<path class="st0" d="M37.3,108.1c1.7,2,4.6,2.2,6.6,0.6c2-1.7,2.2-4.6,0.6-6.6c-1.7-2-4.6-2.2-6.6-0.6
	C35.9,103.1,35.6,106.1,37.3,108.1L37.3,108.1z"/>
<path class="st0" d="M17.3,96.4c1.7,2,4.7,2.2,6.7,0.6c2-1.7,2.3-4.7,0.6-6.7c-1.7-2-4.7-2.2-6.7-0.6C15.9,91.5,15.6,94.4,17.3,96.4
	L17.3,96.4z"/>
<path class="st0" d="M9.9,87.5c1.5,1.8,4.3,2.1,6.1,0.5c1.8-1.5,2.1-4.3,0.6-6.1c-1.5-1.8-4.3-2.1-6.1-0.5C8.6,83,8.4,85.7,9.9,87.5
	L9.9,87.5z"/>
<path class="st0" d="M49.1,109.9c1.5,1.8,4.1,2,5.9,0.5c1.8-1.5,2-4.1,0.5-5.9c-1.5-1.8-4.1-2-5.9-0.5
	C47.8,105.5,47.6,108.2,49.1,109.9L49.1,109.9z"/>
<path class="st0" d="M12,63.3c1.4,1.7,4,1.9,5.7,0.5c1.7-1.4,1.9-4,0.5-5.7c-1.4-1.7-4-1.9-5.7-0.5C10.7,59,10.5,61.6,12,63.3
	L12,63.3z"/>
<path class="st0" d="M60.9,109.6c1.4,1.6,3.8,1.8,5.4,0.5c1.6-1.3,1.8-3.7,0.5-5.4c-1.4-1.6-3.8-1.8-5.4-0.5
	C59.7,105.6,59.5,108,60.9,109.6L60.9,109.6z"/>
<path class="st0" d="M4.6,77c1.4,1.6,3.8,1.9,5.4,0.5c1.6-1.3,1.8-3.8,0.4-5.4C9,70.5,6.6,70.3,5,71.7C3.4,73,3.2,75.4,4.6,77
	L4.6,77z"/>
<path class="st0" d="M14.8,71.8c1.3,1.6,3.6,1.8,5.2,0.4c1.6-1.3,1.8-3.6,0.5-5.2c-1.3-1.6-3.6-1.8-5.2-0.4S13.4,70.3,14.8,71.8
	L14.8,71.8z"/>
<path class="st0" d="M11.6,53.9c1.3,1.6,3.7,1.8,5.2,0.5c1.6-1.3,1.8-3.7,0.5-5.2c-1.3-1.6-3.7-1.8-5.2-0.5
	C10.5,50,10.3,52.3,11.6,53.9L11.6,53.9z"/>
<path class="st0" d="M1.4,65.8c1.2,1.5,3.4,1.7,4.9,0.4c1.5-1.2,1.6-3.4,0.4-4.9c-1.2-1.5-3.4-1.7-4.9-0.4
	C0.3,62.1,0.1,64.3,1.4,65.8L1.4,65.8z"/>
<path class="st0" d="M72.5,106.8c1.2,1.4,3.3,1.6,4.8,0.4c1.4-1.2,1.6-3.3,0.4-4.8c-1.2-1.4-3.3-1.6-4.8-0.4
	C71.5,103.2,71.3,105.4,72.5,106.8L72.5,106.8z"/>
<path class="st0" d="M13.2,44.5c1.2,1.4,3.3,1.7,4.7,0.5c1.4-1.2,1.5-3.3,0.3-4.7c-1.2-1.4-3.3-1.7-4.7-0.5
	C12.1,41,12,43.1,13.2,44.5L13.2,44.5z"/>
<path class="st0" d="M19.5,79.7c1.2,1.4,3.3,1.6,4.7,0.4c1.4-1.2,1.5-3.3,0.4-4.7c-1.2-1.4-3.3-1.6-4.7-0.4
	C18.4,76.2,18.3,78.3,19.5,79.7L19.5,79.7z"/>
<path class="st0" d="M28.4,32.9c1.2,1.4,3.2,1.6,4.6,0.4c1.4-1.1,1.5-3.2,0.4-4.6c-1.2-1.4-3.2-1.6-4.6-0.4
	C27.4,29.5,27.3,31.6,28.4,32.9L28.4,32.9z"/>
<path class="st0" d="M25.7,86.5c1.1,1.3,3,1.5,4.3,0.4c1.3-1.1,1.4-3,0.3-4.3c-1.1-1.3-3-1.5-4.3-0.4C24.7,83.3,24.6,85.2,25.7,86.5
	L25.7,86.5z"/>
<path class="st0" d="M0.7,54.1c1.1,1.3,3,1.4,4.2,0.4c1.3-1.1,1.4-3,0.4-4.2c-1.1-1.3-3-1.4-4.2-0.4C-0.2,50.9-0.4,52.8,0.7,54.1
	L0.7,54.1z"/>
<path class="st0" d="M16.7,35.7c1.1,1.3,3,1.5,4.3,0.4c1.3-1.1,1.5-3,0.4-4.3c-1.1-1.3-3-1.5-4.3-0.4C15.7,32.5,15.6,34.4,16.7,35.7
	L16.7,35.7z"/>
<path class="st0" d="M34,27.6c1.1,1.3,3,1.5,4.2,0.4c1.3-1.1,1.4-2.9,0.3-4.2c-1.1-1.3-3-1.5-4.2-0.4C33.1,24.5,33,26.4,34,27.6
	L34,27.6z"/>
<path class="st0" d="M24.5,39c1,1.2,2.9,1.4,4.2,0.3c1.3-1.1,1.5-2.9,0.4-4.2c-1-1.2-2.9-1.4-4.2-0.3C23.7,35.9,23.5,37.7,24.5,39
	L24.5,39z"/>
<path class="st0" d="M83.4,101.8c1,1.2,2.8,1.2,4.1,0.2c1.3-1.1,1.5-2.9,0.6-4.1c-1-1.2-2.8-1.2-4.1-0.2
	C82.7,98.8,82.4,100.6,83.4,101.8L83.4,101.8z"/>
<path class="st0" d="M21.8,27.8c1,1.1,2.7,1.3,3.8,0.3c1.2-1,1.3-2.7,0.3-3.8c-1-1.1-2.7-1.3-3.8-0.3C21,25,20.8,26.7,21.8,27.8
	L21.8,27.8z"/>
<path class="st0" d="M33.2,91.9c1,1.1,2.7,1.3,3.8,0.3c1.2-1,1.3-2.7,0.4-3.8c-1-1.1-2.7-1.3-3.8-0.3C32.4,89.1,32.2,90.8,33.2,91.9
	L33.2,91.9z"/>
<path class="st0" d="M40.6,23.6c0.9,1.1,2.7,1.3,3.8,0.3c1.2-1,1.3-2.7,0.4-3.8c-1-1.1-2.7-1.3-3.8-0.3
	C39.8,20.8,39.6,22.5,40.6,23.6L40.6,23.6z"/>
<path class="st0" d="M21.9,45.7c0.9,1.1,2.6,1.2,3.8,0.3c1.2-1,1.3-2.7,0.4-3.8c-0.9-1.1-2.6-1.2-3.8-0.3
	C21.1,42.8,21,44.5,21.9,45.7L21.9,45.7z"/>
<path class="st0" d="M92.9,94.2c0.9,1.1,2.5,1.2,3.6,0.3c1.1-0.9,1.2-2.5,0.3-3.6c-0.9-1.1-2.5-1.2-3.6-0.3
	C92.1,91.6,92,93.2,92.9,94.2L92.9,94.2z"/>
<path class="st0" d="M2.5,42.2c0.9,1.1,2.5,1.2,3.6,0.3c1.1-0.9,1.2-2.5,0.3-3.6c-0.9-1.1-2.5-1.2-3.6-0.3
	C1.8,39.5,1.6,41.1,2.5,42.2L2.5,42.2z"/>
<path class="st0" d="M47.7,20.9c0.9,1.1,2.4,1.2,3.4,0.4c1-0.9,1.1-2.4,0.2-3.4c-0.9-1-2.4-1.2-3.4-0.4
	C46.9,18.3,46.8,19.9,47.7,20.9L47.7,20.9z"/>
<path class="st0" d="M21,52.7c0.9,1.1,2.4,1.2,3.4,0.4c1-0.9,1.1-2.4,0.2-3.5c-0.9-1.1-2.4-1.2-3.4-0.4C20.2,50.1,20.1,51.6,21,52.7
	L21,52.7z"/>
<path class="st0" d="M28.6,21.1c0.8,1,2.3,1.1,3.3,0.3c1-0.8,1.1-2.3,0.3-3.3c-0.8-1-2.3-1.1-3.3-0.3C27.9,18.6,27.8,20.1,28.6,21.1
	L28.6,21.1z"/>
<path class="st0" d="M41.9,95.6c0.9,1,2.4,1.2,3.4,0.3c1-0.8,1.1-2.4,0.2-3.4c-0.9-1-2.4-1.2-3.4-0.3C41.1,93,41,94.5,41.9,95.6
	L41.9,95.6z"/>
<path class="st0" d="M55.2,19.9c0.8,0.9,2.2,1.1,3.1,0.3c0.9-0.8,1-2.2,0.3-3.1c-0.8-0.9-2.2-1.1-3.1-0.3
	C54.6,17.6,54.4,19,55.2,19.9L55.2,19.9z"/>
<path class="st0" d="M21.7,59.9c0.8,0.9,2.1,1,3,0.3c0.9-0.8,1-2.1,0.3-3c-0.8-0.9-2.1-1-3-0.3C21,57.7,20.9,59,21.7,59.9L21.7,59.9
	z"/>
<path class="st0" d="M100.8,85.2c0.8,0.9,2.1,1.1,3,0.3c0.9-0.8,1-2.1,0.2-3c-0.8-0.9-2.1-1.1-3-0.3
	C100.2,82.9,100.1,84.3,100.8,85.2L100.8,85.2z"/>
<path class="st0" d="M6.7,30.9c0.8,0.9,2.1,1,3,0.3c0.9-0.8,1-2.1,0.3-3c-0.8-0.9-2.1-1-3-0.3C6.1,28.7,6,30,6.7,30.9L6.7,30.9z"/>
<path class="st0" d="M36.6,15.9c0.7,0.9,2,1,2.9,0.2c0.9-0.7,1-2,0.3-2.9c-0.7-0.9-2-1-2.9-0.2C36,13.7,35.9,15,36.6,15.9L36.6,15.9
	z"/>
<path class="st0" d="M51,97.3c0.7,0.9,2,1,2.8,0.3c0.8-0.7,0.9-2,0.2-2.8c-0.7-0.9-2-1-2.8-0.3C50.4,95.2,50.3,96.4,51,97.3L51,97.3
	z"/>
<path class="st0" d="M23.7,66.9c0.7,0.8,1.8,0.9,2.7,0.2c0.8-0.7,0.9-1.9,0.3-2.6c-0.7-0.8-1.8-0.9-2.7-0.2
	C23.2,64.9,23.1,66.1,23.7,66.9L23.7,66.9z"/>
<path class="st0" d="M62.8,20.3c0.7,0.8,1.8,0.9,2.6,0.2c0.8-0.7,0.9-1.8,0.2-2.6c-0.7-0.8-1.8-0.9-2.6-0.2
	C62.2,18.4,62.1,19.5,62.8,20.3L62.8,20.3z"/>
<path class="st0" d="M13.1,20.8c0.6,0.7,1.7,0.9,2.4,0.3c0.7-0.6,0.8-1.7,0.2-2.4c-0.6-0.7-1.7-0.9-2.4-0.3
	C12.6,19,12.5,20.1,13.1,20.8L13.1,20.8z"/>
<path class="st0" d="M60.4,97.2c0.6,0.7,1.7,0.8,2.5,0.2c0.7-0.6,0.8-1.7,0.2-2.5c-0.6-0.7-1.7-0.8-2.5-0.2
	C59.9,95.4,59.8,96.5,60.4,97.2L60.4,97.2z"/>
<path class="st0" d="M45.3,12.4c0.6,0.7,1.7,0.8,2.4,0.2c0.7-0.6,0.9-1.7,0.3-2.4c-0.6-0.7-1.7-0.8-2.4-0.2
	C44.9,10.6,44.8,11.7,45.3,12.4L45.3,12.4z"/>
<path class="st0" d="M27.3,73.4c0.6,0.7,1.6,0.8,2.3,0.2c0.7-0.6,0.8-1.6,0.2-2.3c-0.6-0.7-1.6-0.8-2.3-0.2
	C26.8,71.6,26.7,72.7,27.3,73.4L27.3,73.4z"/>
<path class="st0" d="M70.1,22.3c0.6,0.7,1.6,0.8,2.3,0.2c0.7-0.6,0.8-1.6,0.2-2.3C72,19.5,71,19.4,70.3,20
	C69.6,20.6,69.5,21.6,70.1,22.3L70.1,22.3z"/>
<path class="st0" d="M54.8,10.9c0.5,0.6,1.4,0.7,1.9,0.2c0.6-0.5,0.7-1.4,0.2-1.9c-0.5-0.6-1.4-0.7-1.9-0.2
	C54.3,9.5,54.3,10.3,54.8,10.9L54.8,10.9z"/>
<path class="st0" d="M76.6,25.9c0.5,0.6,1.4,0.7,1.9,0.2c0.6-0.5,0.7-1.4,0.2-1.9c-0.5-0.6-1.4-0.7-1.9-0.2
	C76.2,24.4,76.1,25.3,76.6,25.9L76.6,25.9z"/>
<path class="st0" d="M32.2,78.9c0.5,0.6,1.3,0.7,1.9,0.2c0.6-0.5,0.6-1.3,0.2-1.9c-0.5-0.6-1.3-0.7-1.9-0.2
	C31.8,77.4,31.7,78.3,32.2,78.9L32.2,78.9z"/>
<path class="st0" d="M69.7,95.1c0.5,0.6,1.3,0.7,1.9,0.2c0.5-0.5,0.6-1.3,0.1-1.9c-0.5-0.6-1.3-0.7-1.9-0.2
	C69.3,93.7,69.3,94.5,69.7,95.1L69.7,95.1z"/>
<path class="st0" d="M21.5,12.2c0.5,0.5,1.3,0.6,1.8,0.2c0.5-0.5,0.6-1.3,0.2-1.8C23,10,22.2,10,21.7,10.4
	C21.1,10.9,21.1,11.7,21.5,12.2L21.5,12.2z"/>
<path class="st0" d="M38.2,83.3c0.4,0.5,1.2,0.6,1.6,0.1c0.5-0.4,0.6-1.2,0.1-1.6c-0.4-0.5-1.2-0.6-1.6-0.1
	C37.9,82.1,37.8,82.8,38.2,83.3L38.2,83.3z"/>
<path class="st0" d="M82.5,30.5c0.4,0.5,1.1,0.6,1.5,0.2c0.4-0.4,0.4-1.1,0-1.6c-0.4-0.5-1.1-0.6-1.5-0.2
	C82.1,29.3,82.1,30,82.5,30.5L82.5,30.5z"/>
<path class="st0" d="M78.4,91.1c0.4,0.4,1,0.5,1.5,0.1c0.4-0.4,0.5-1,0.1-1.5c-0.4-0.4-1-0.5-1.5-0.1C78.1,90,78.1,90.6,78.4,91.1
	L78.4,91.1z"/>
<path class="st0" d="M64.2,11.3c0.3,0.4,0.9,0.4,1.4,0.1c0.4-0.4,0.5-1,0.1-1.4c-0.3-0.4-0.9-0.4-1.4-0.1
	C64,10.3,63.9,10.9,64.2,11.3L64.2,11.3z"/>
<path class="st0" d="M31.3,5.5c0.3,0.4,0.9,0.4,1.3,0.1C33,5.3,33,4.7,32.7,4.3c-0.3-0.4-0.9-0.5-1.3-0.1C31,4.6,31,5.1,31.3,5.5
	L31.3,5.5z"/>
<path class="st0" d="M45.1,86.4c0.3,0.3,0.8,0.4,1.2,0.1c0.3-0.3,0.4-0.8,0.1-1.2c-0.3-0.3-0.8-0.4-1.2-0.1
	C44.9,85.5,44.8,86,45.1,86.4L45.1,86.4z"/>
<path class="st0" d="M87,36.3c0.3,0.4,0.8,0.4,1.2,0.1c0.3-0.3,0.4-0.8,0.1-1.2c-0.3-0.3-0.8-0.4-1.2-0.1C86.8,35.5,86.8,36,87,36.3
	L87,36.3z"/>
<path class="st0" d="M85.9,85.6c0.3,0.3,0.8,0.4,1.1,0.1c0.3-0.3,0.4-0.8,0.1-1.1c-0.3-0.3-0.8-0.4-1.1-0.1
	C85.6,84.7,85.6,85.2,85.9,85.6L85.9,85.6z"/>
<path class="st0" d="M73.4,13.6c0.2,0.3,0.7,0.3,0.9,0.1c0.3-0.2,0.3-0.7,0.1-0.9c-0.2-0.3-0.7-0.3-0.9-0.1
	C73.2,12.9,73.1,13.3,73.4,13.6L73.4,13.6z"/>
<path class="st0" d="M42.4,1.1c0.2,0.3,0.7,0.3,1,0.1c0.3-0.2,0.3-0.7,0.1-1c-0.2-0.3-0.7-0.3-1-0.1C42.2,0.4,42.1,0.8,42.4,1.1
	L42.4,1.1z"/>
<path class="st0" d="M81.5,18c0.2,0.2,0.5,0.3,0.8,0.1c0.2-0.2,0.3-0.5,0.1-0.8c-0.2-0.2-0.5-0.3-0.8-0.1
	C81.4,17.4,81.3,17.8,81.5,18L81.5,18z"/>
<path class="st0" d="M52.6,88.1c0.2,0.2,0.5,0.2,0.7,0.1c0.2-0.2,0.3-0.5,0.1-0.7c-0.2-0.2-0.5-0.2-0.7-0.1
	C52.4,87.6,52.4,87.9,52.6,88.1L52.6,88.1z"/>
<path class="st1" d="M47.1,70.5c1.6,0,3.1-0.3,4.5-0.8c1.4-0.6,2.7-1.4,3.8-2.4c1.1-1.1,2-2.3,2.6-3.8c0.6-1.5,1-3.1,1-5
	c0-1.4-0.2-2.8-0.7-4.3c-0.5-1.4-1.2-2.8-2.3-4c-1-1.2-2.4-2.2-4-2.9c-1.7-0.7-3.7-1.1-6-1.1h-6v24.4H47.1L47.1,70.5z M41.6,47.8
	h4.6c1.8,0,3.4,0.3,4.8,0.9c1.4,0.6,2.5,1.4,3.5,2.3c0.9,1,1.6,2.1,2.1,3.4c0.5,1.3,0.7,2.6,0.7,4c0,1.6-0.3,3.1-0.8,4.4
	c-0.6,1.3-1.3,2.4-2.3,3.3c-1,0.9-2.1,1.6-3.4,2.1c-1.3,0.5-2.7,0.7-4.1,0.7h-5V47.8L41.6,47.8z M63,70.5l9.4-23.4l-1.2,0.7l9,22.7
	h1.9L71.8,45h-0.1L61.3,70.5H63L63,70.5z M65.9,62.4h11.7l-0.5-1.6H66.3L65.9,62.4L65.9,62.4z M86.7,70.5h15v-1.6H88.3V46.1h-1.7
	V70.5L86.7,70.5z M112.7,71.6l5.9-15.1l-0.8-2.2l-5.1,13.7l0.4,0.1l-8.1-22h-1.9L112.7,71.6L112.7,71.6z M124,71.6l9.8-25.4H132
	l-8.2,21.9l0.5,0.1l-8.4-22h-1.7L124,71.6L124,71.6z M139,70.5h1.7V46.1H139V70.5L139,70.5z M168.6,71.1V46.1h-1.6l0,21.4l0.4-0.1
	l-19.2-21.8h-0.1v24.9h1.6l0-21.4l-0.4,0.3L168.6,71.1L168.6,71.1L168.6,71.1z"/>
<path class="st2" d="M47.1,70.5c1.6,0,3.1-0.3,4.5-0.8c1.4-0.6,2.7-1.4,3.8-2.4c1.1-1.1,2-2.3,2.6-3.8c0.6-1.5,1-3.1,1-5
	c0-1.4-0.2-2.8-0.7-4.3c-0.5-1.4-1.2-2.8-2.3-4c-1-1.2-2.4-2.2-4-2.9c-1.7-0.7-3.7-1.1-6-1.1h-6v24.4H47.1L47.1,70.5z M41.6,47.8
	h4.6c1.8,0,3.4,0.3,4.8,0.9c1.4,0.6,2.5,1.4,3.5,2.3c0.9,1,1.6,2.1,2.1,3.4c0.5,1.3,0.7,2.6,0.7,4c0,1.6-0.3,3.1-0.8,4.4
	c-0.6,1.3-1.3,2.4-2.3,3.3c-1,0.9-2.1,1.6-3.4,2.1c-1.3,0.5-2.7,0.7-4.1,0.7h-5V47.8L41.6,47.8z M63,70.5l9.4-23.4l-1.2,0.7l9,22.7
	h1.9L71.8,45h-0.1L61.3,70.5H63L63,70.5z M65.9,62.4h11.7l-0.5-1.6H66.3L65.9,62.4L65.9,62.4z M86.7,70.5h15v-1.6H88.3V46.1h-1.7
	V70.5L86.7,70.5z M112.7,71.6l5.9-15.1l-0.8-2.2l-5.1,13.7l0.4,0.1l-8.1-22h-1.9L112.7,71.6L112.7,71.6z M124,71.6l9.8-25.4H132
	l-8.2,21.9l0.5,0.1l-8.4-22h-1.7L124,71.6L124,71.6z M139,70.5h1.7V46.1H139V70.5L139,70.5z M168.6,71.1V46.1h-1.6l0,21.4l0.4-0.1
	l-19.2-21.8h-0.1v24.9h1.6l0-21.4l-0.4,0.3L168.6,71.1L168.6,71.1L168.6,71.1z"/>
</svg>
