<?xml version="1.0" encoding="utf-8"?><svg xmlns="http://www.w3.org/2000/svg" xmlns:xlink="http://www.w3.org/1999/xlink"><symbol viewBox="0 0 289 492" id="arrow" xmlns="http://www.w3.org/2000/svg"><path d="M281.2 226.8L62.3 7.9C57.2 2.8 50.4 0 43.2 0s-14 2.8-19 7.9L8.1 24c-10.5 10.5-10.5 27.6 0 38L192 245.9 7.9 430C2.8 435 0 441.8 0 449c0 7.2 2.8 14 7.9 19L24 484.1c5.1 5.1 11.8 7.9 19 7.9s14-2.8 19-7.9L281.2 265c5.1-5.1 7.9-11.9 7.8-19.1.1-7.2-2.7-14-7.8-19.1z"/></symbol><symbol viewBox="0 0 24 24" id="circle-plus" xmlns="http://www.w3.org/2000/svg"><path fill-rule="evenodd" d="M12 23C5.925 23 1 18.075 1 12S5.925 1 12 1s11 4.925 11 11-4.925 11-11 11zm0-2a9 9 0 100-18 9 9 0 000 18zm1-10h4v2h-4v4h-2v-4H7v-2h4V7h2v4z"/></symbol><symbol viewBox="0 0 440.8 440.8" id="insta" xmlns="http://www.w3.org/2000/svg"><radialGradient id="ca" cx="14.115" cy="465.452" r="589.454" gradientUnits="userSpaceOnUse"><stop offset="0" stop-color="#fec053"/><stop offset=".327" stop-color="#f2203e"/><stop offset=".648" stop-color="#b729a8"/><stop offset="1" stop-color="#5342d6"/></radialGradient><path d="M306.7 425.4H129.1c-64.7 0-117.3-52.6-117.3-117.3V130.5c0-64.7 52.6-117.3 117.3-117.3h177.6c64.7 0 117.3 52.6 117.3 117.3v177.6c0 64.7-52.6 117.3-117.3 117.3zM129.1 48.6c-45.2 0-82 36.8-82 82v177.6c0 45.2 36.8 82 82 82h177.6c45.2 0 82-36.8 82-82V130.5c0-45.2-36.8-82-82-82H129.1z" fill="url(#ca)"/><path d="M217.9 324.9c-58.2 0-105.5-47.3-105.5-105.5s47.3-105.5 105.5-105.5 105.5 47.3 105.5 105.5c0 58.1-47.3 105.5-105.5 105.5zm0-175.8c-38.7 0-70.2 31.5-70.2 70.2s31.5 70.2 70.2 70.2 70.2-31.5 70.2-70.2-31.5-70.2-70.2-70.2zM353.3 107.7c0 14-11.4 25.4-25.4 25.4-14 0-25.4-11.4-25.4-25.4 0-14 11.4-25.4 25.4-25.4 14.1.1 25.4 11.4 25.4 25.4z" fill="url(#ca)"/></symbol><symbol viewBox="0 0 440.8 440.8" id="insta--cont" xmlns="http://www.w3.org/2000/svg"><path d="M306.7 425.4H129.1c-64.7 0-117.3-52.6-117.3-117.3V130.5c0-64.7 52.6-117.3 117.3-117.3h177.6c64.7 0 117.3 52.6 117.3 117.3v177.6c0 64.7-52.6 117.3-117.3 117.3zM129.1 48.6c-45.2 0-82 36.8-82 82v177.6c0 45.2 36.8 82 82 82h177.6c45.2 0 82-36.8 82-82V130.5c0-45.2-36.8-82-82-82H129.1z"/><path d="M217.9 324.9c-58.2 0-105.5-47.3-105.5-105.5s47.3-105.5 105.5-105.5 105.5 47.3 105.5 105.5c0 58.1-47.3 105.5-105.5 105.5zm0-175.8c-38.7 0-70.2 31.5-70.2 70.2s31.5 70.2 70.2 70.2 70.2-31.5 70.2-70.2-31.5-70.2-70.2-70.2zm135.4-41.4c0 14-11.4 25.4-25.4 25.4-14 0-25.4-11.4-25.4-25.4 0-14 11.4-25.4 25.4-25.4 14.1.1 25.4 11.4 25.4 25.4z"/></symbol><symbol viewBox="0 0 103.5 137.8" id="play" xmlns="http://www.w3.org/2000/svg"><path class="est0" d="M95.9 56.1L19.3 3.7C15.8 1.3 12.2 0 9.3 0 3.5 0 0 4.6 0 12.3v113.2c0 7.7 3.5 12.3 9.2 12.3 3 0 6.5-1.3 10-3.7l76.6-52.4c4.9-3.4 7.7-7.9 7.7-12.8s-2.7-9.4-7.6-12.8z"/></symbol><symbol viewBox="0 0 428.1 245.9" id="vk" xmlns="http://www.w3.org/2000/svg"><path class="fst0" d="M4.1 37.2C.5 27.8-4.1 18 6.8 12.7l66.4-.9c9.6.3 14 7.4 19.1 17.3 14.9 28.7 30.4 57.3 49.1 83.6 6.1 8.6 16.4 11.9 24.5-1.8l2.7-55.5c-3-21.5-10.5-34.2-23.6-35.5-7.5-7.3-2.1-13.3 14.7-16.5 26.7-5.7 50-3.1 70.5-.5C247.5 4 250 15.7 249.7 29.1c-.6 24.5-1.1 49.1-1.1 73.6 5.1 24.9 18.7 14.9 27.7 4.1 16.1-22.9 30.1-45.2 41.8-70.3 12.1-25.8 15.4-23.9 23.9-24 20.3-.1 42.7-1.1 58.9-.5 33.8-2 29.9 13 20.4 28.9-16.4 27.7-37.5 52.7-56.3 79.1-11.4 15.5-11.2 25.2.9 33.6 17.9 19.7 37.3 38.1 53.6 59.1 17.7 22.9 4.7 29.2-11.8 30.9h-59.1c-16.8.3-32-3.9-42.7-21.8-24.7-32.7-43.1-41.7-50.5-23.3-3.2 8.1-5.9 19-5.8 29.6.1 14.8-8.8 16-20.9 16.4-13 0-26.5 3.2-39.1 0-44.6-11.3-87.4-32.1-129.1-103.6C41.7 110 22.9 76.2 4.1 37.2z"/></symbol><symbol viewBox="0 0 340.2 235.4" id="yt" xmlns="http://www.w3.org/2000/svg"><path d="M332.9 36.7c-3.9-14.5-15.3-25.9-30-29.8C276.3 0 170 0 170 0S65.7-.4 39.1 6.5C24.4 10.4 10.4 22.3 6.5 36.7c-7.1 26.4-6.5 81-6.5 81s-.6 54.7 6.5 81c3.9 14.5 18.1 26.4 32.6 30.2 26.6 7.1 130.9 6.5 130.9 6.5s104.3.4 130.9-6.5c14.7-3.9 28.3-15.8 32.2-30.2 7.1-26.1 7.1-81 7.1-81s-.1-54.6-7.3-81zM137.4 170V65.5l84.9 52.3-84.9 52.2z"/></symbol></svg>