<?xml version="1.0" encoding="utf-8"?><svg xmlns="http://www.w3.org/2000/svg" xmlns:xlink="http://www.w3.org/1999/xlink"><symbol viewBox="0 0 289 492" id="arrow" xmlns="http://www.w3.org/2000/svg"><path d="M281.2 226.8L62.3 7.9C57.2 2.8 50.4 0 43.2 0s-14 2.8-19 7.9L8.1 24c-10.5 10.5-10.5 27.6 0 38L192 245.9 7.9 430C2.8 435 0 441.8 0 449c0 7.2 2.8 14 7.9 19L24 484.1c5.1 5.1 11.8 7.9 19 7.9s14-2.8 19-7.9L281.2 265c5.1-5.1 7.9-11.9 7.8-19.1.1-7.2-2.7-14-7.8-19.1z"/></symbol><symbol viewBox="0 0 340.2 235.4" id="yt" xmlns="http://www.w3.org/2000/svg"><path d="M332.9 36.7c-3.9-14.5-15.3-25.9-30-29.8C276.3 0 170 0 170 0S65.7-.4 39.1 6.5C24.4 10.4 10.4 22.3 6.5 36.7c-7.1 26.4-6.5 81-6.5 81s-.6 54.7 6.5 81c3.9 14.5 18.1 26.4 32.6 30.2 26.6 7.1 130.9 6.5 130.9 6.5s104.3.4 130.9-6.5c14.7-3.9 28.3-15.8 32.2-30.2 7.1-26.1 7.1-81 7.1-81s-.1-54.6-7.3-81zM137.4 170V65.5l84.9 52.3-84.9 52.2z"/></symbol></svg>