<svg width="25" height="25" viewBox="0 0 25 25" fill="none" xmlns="http://www.w3.org/2000/svg">
<path d="M11.4431 12V19.6167V16.3637C11.4431 13.9537 13.3968 12 15.8068 12V12C17.2528 12 18.425 13.1722 18.425 14.6182V19.6167M7 12V19.6167" stroke="#0C0C0C" stroke-width="1.375" stroke-linecap="round" stroke-linejoin="round"/>
<path d="M7.98225 6.7128C7.98225 7.4139 7.4139 7.98225 6.7128 7.98225C6.01171 7.98225 5.44336 7.4139 5.44336 6.7128C5.44336 6.01171 6.01171 5.44336 6.7128 5.44336C7.4139 5.44336 7.98225 6.01171 7.98225 6.7128Z" fill="#0C0C0C"/>
<path d="M1 7.60001C1 4.8502 1 3.47529 1.70027 2.51145C1.92643 2.20017 2.20017 1.92643 2.51145 1.70027C3.47529 1 4.8502 1 7.6 1H17.25C19.9998 1 21.3747 1 22.3385 1.70027C22.6498 1.92643 22.9236 2.20017 23.1497 2.51145C23.85 3.47529 23.85 4.8502 23.85 7.6V17.25C23.85 19.9998 23.85 21.3747 23.1497 22.3385C22.9236 22.6498 22.6498 22.9236 22.3385 23.1497C21.3747 23.85 19.9998 23.85 17.25 23.85H7.60001C4.8502 23.85 3.47529 23.85 2.51145 23.1497C2.20017 22.9236 1.92643 22.6498 1.70027 22.3385C1 21.3747 1 19.9998 1 17.25V7.60001Z" stroke="#0C0C0C" stroke-width="1.375" stroke-linejoin="round"/>
</svg>
