<?xml version="1.0" encoding="utf-8"?>
<!-- Generator: Adobe Illustrator 22.0.1, SVG Export Plug-In . SVG Version: 6.00 Build 0)  -->
<svg version="1.1" id="Layer_1" xmlns="http://www.w3.org/2000/svg" xmlns:xlink="http://www.w3.org/1999/xlink" x="0px" y="0px"
	 viewBox="0 0 151.5 151.5" style="enable-background:new 0 0 151.5 151.5;" xml:space="preserve">
<style type="text/css">
	.st0{fill-rule:evenodd;clip-rule:evenodd;fill:#005D8F;}
</style>
<polygon class="st0" points="56.1,2.6 56.1,2.6 52.4,3.7 48.8,5 45.3,6.4 41.9,8.1 38.6,9.8 35.4,11.7 32.3,13.8 29.3,16 26.5,18.3 
	23.8,20.8 21.2,23.3 18.7,26 16.4,28.8 14.2,31.7 12.2,34.7 10.3,37.8 8.5,41 6.9,44.3 5.5,47.6 4.2,51 3.1,54.5 2.1,58.1 1.4,61.6 
	0.7,65.3 0.3,69 0.1,72.7 0,76.4 0.1,80.2 0.4,84 1,87.8 1.7,91.6 2.6,95.4 4.5,94.9 3.6,91.2 2.9,87.5 2.4,83.8 2.1,80.1 2,76.4 
	2.1,72.8 2.3,69.1 2.7,65.6 3.3,62 4.1,58.5 5,55.1 6.1,51.7 7.4,48.4 8.8,45.1 10.3,41.9 12,38.8 13.9,35.8 15.9,32.9 18,30.1 
	20.3,27.3 22.6,24.7 25.2,22.2 27.8,19.8 30.6,17.6 33.5,15.4 36.4,13.4 39.6,11.6 42.8,9.9 46.1,8.3 49.5,6.9 53,5.6 56.6,4.6 
	56.6,4.6 56.1,2.6 "/>
<polygon class="st0" points="148.9,56.1 148.9,56.1 147.7,52.4 146.5,48.7 145,45.2 143.4,41.7 141.7,38.4 139.7,35.2 137.7,32.1 
	135.5,29.1 133.2,26.2 130.7,23.5 128.1,20.9 125.4,18.5 122.6,16.2 119.7,14 116.7,12 113.6,10.1 110.4,8.3 107.2,6.8 103.8,5.3 
	100.4,4.1 97,3 93.4,2 89.8,1.3 86.2,0.7 82.5,0.3 78.8,0.1 75.1,0 71.3,0.1 67.5,0.5 63.7,1 59.9,1.7 56.1,2.6 56.6,4.6 60.3,3.7 
	64,3 67.7,2.5 71.4,2.2 75.1,2 78.7,2.1 82.3,2.3 85.9,2.7 89.5,3.3 92.9,4 96.4,4.9 99.8,6 103.1,7.2 106.4,8.6 109.5,10.1 
	112.6,11.8 115.6,13.7 118.6,15.6 121.4,17.7 124.1,20 126.7,22.4 129.3,24.9 131.6,27.6 133.9,30.3 136,33.2 138,36.2 139.9,39.4 
	141.6,42.6 143.2,46 144.6,49.4 145.8,53 146.9,56.6 146.9,56.6 148.9,56.1 "/>
<polygon class="st0" points="95.4,148.9 95.4,148.9 99.1,147.8 102.8,146.5 106.3,145 109.8,143.4 113.1,141.7 116.3,139.7 
	119.4,137.7 122.4,135.4 125.2,133.1 127.9,130.6 130.5,128 133,125.3 135.3,122.5 137.5,119.6 139.5,116.5 141.4,113.4 
	143.1,110.2 144.7,106.9 146.1,103.6 147.4,100.2 148.5,96.7 149.4,93.2 150.2,89.6 150.8,85.9 151.2,82.3 151.4,78.6 151.5,74.9 
	151.3,71.1 151,67.4 150.5,63.6 149.8,59.9 148.9,56.1 146.9,56.6 147.8,60.3 148.5,63.9 149,67.6 149.3,71.3 149.4,74.9 
	149.4,78.5 149.2,82.1 148.8,85.7 148.2,89.2 147.5,92.7 146.6,96.1 145.5,99.5 144.3,102.9 142.9,106.1 141.3,109.3 139.7,112.4 
	137.8,115.5 135.8,118.4 133.7,121.2 131.5,124 129.1,126.6 126.6,129.2 123.9,131.6 121.1,133.9 118.2,136 115.2,138 112.1,139.9 
	108.9,141.6 105.5,143.2 102.1,144.6 98.5,145.9 94.8,146.9 94.8,146.9 95.4,148.9 "/>
<polygon class="st0" points="2.6,95.4 2.6,95.4 3.7,99.1 5,102.7 6.4,106.2 8,109.6 9.8,112.9 11.7,116.1 13.8,119.2 16,122.1 
	18.4,125 20.8,127.7 23.4,130.3 26.2,132.7 29,135.1 31.9,137.2 34.9,139.3 38,141.2 41.2,142.9 44.5,144.5 47.9,146 51.3,147.3 
	54.8,148.4 58.3,149.3 61.9,150.1 65.5,150.7 69.2,151.2 72.9,151.4 76.6,151.5 80.3,151.3 84.1,151 87.8,150.5 91.6,149.8 
	95.4,148.9 94.8,146.9 91.2,147.8 87.5,148.5 83.9,149 80.2,149.3 76.6,149.4 73,149.4 69.4,149.1 65.8,148.7 62.3,148.1 
	58.8,147.4 55.3,146.4 52,145.4 48.6,144.1 45.4,142.7 42.2,141.1 39.1,139.4 36,137.6 33.1,135.6 30.2,133.5 27.5,131.2 
	24.8,128.8 22.3,126.3 19.9,123.7 17.6,120.9 15.5,118 13.4,115 11.6,111.9 9.8,108.7 8.3,105.4 6.8,102 5.6,98.5 4.5,94.9 
	4.5,94.9 2.6,95.4 "/>
<path class="st0" d="M52.3,86.4l4,14l8.7-2l-0.7-2.7c3.3,2,6.7,2,11.4,0.7c10-2.7,15.4-9.4,13.4-16.7c-0.7-3.3-3.3-6.7-7.3-7.3
	c-4-1.3-7.4-1.3-12-1.3c-4,0.7-8,0-8.7-1.3c0-0.7,0.7-2.7,4.7-3.3c4-1.3,9.4,0.7,10,4l8.7-2.7l-4-14l-8,2l0.7,2
	c-2.7-1.3-6.7-1.3-10.7,0C49,61.1,47,67.1,49,73.8c0.7,3.3,3.3,8,6.7,8.7c4,0.7,8.7,0.7,12.7,0.7c4.7-0.7,8.7-0.7,8.7,0.7
	c0.7,2-0.7,2.7-4,3.3c-4,0.7-10.7-0.7-13.4-2.7L52.3,86.4L52.3,86.4z M112.5,75.1c-6.7,2-8.7-2.7-10-8c-1.3-4.7-1.3-10,4.7-12
	c6-1.3,8,2.7,9.4,8.7C117.8,69.1,119.1,73.1,112.5,75.1L112.5,75.1z M115.1,85.1c12-2.7,19.4-14.7,16-26.1
	c-2.7-10.7-14.7-16.7-26.7-14c-12,3.3-19.4,15.4-16.7,26.1C91.1,82.4,103.1,88.5,115.1,85.1L115.1,85.1z M41,75.1l5.3-1.3l-2.7-10
	l-26.1,6.7l2.7,10l6-1.3l4.7,17.4l-6,2l2.7,9.4l26.1-6.7l-2.7-10l-5.3,1.3L41,75.1L41,75.1z"/>
<path class="st0" d="M43,131.9c-0.7-1.3,0-2.7,1.3-2.7c1.3-0.7,2,0,2.7,1.3c0,1.3-0.7,2-1.3,2.7C44.3,133.2,43,132.5,43,131.9
	L43,131.9z"/>
<path class="st0" d="M127.8,108.5c0-0.7,0.7-2,1.3-2.7c1.3,0,2.7,0.7,2.7,2c0.7,0.7,0,2-1.3,2C129.2,110.5,128.5,109.8,127.8,108.5
	L127.8,108.5z"/>
<path class="st0" d="M13.6,58.4c-0.7-0.7,0-2,1.3-2c0.7-0.7,2,0,2,1.3c0.7,0.7,0,2-1.3,2.7C14.9,60.4,13.6,59.7,13.6,58.4L13.6,58.4
	z"/>
<path class="st0" d="M116.5,29.7c0-0.7,0.7-2,2-2c0.7-0.7,2,0,2,1.3c0.7,0.7,0,2-1.3,2.7C117.8,31.7,117.1,31,116.5,29.7L116.5,29.7
	z"/>
<path class="st0" d="M33.6,125.2c-0.7-1.3,0-2.7,1.3-2.7c0.7,0,2,0.7,2.7,1.3c0,1.3-0.7,2.7-2,2.7C35,126.5,33.6,125.9,33.6,125.2
	L33.6,125.2z"/>
<path class="st0" d="M133.8,98.5c0-1.3,0.7-2.7,1.3-2.7c1.3-0.7,2,0,2.7,1.3c0,1.3-0.7,2-1.3,2.7C135.2,99.8,133.8,99.1,133.8,98.5
	L133.8,98.5z"/>
<path class="st0" d="M24.9,116.5c-0.7-1.3,0-2.7,1.3-2.7c1.3-0.7,2,0,2.7,1.3c0,1.3-0.7,2-2,2.7C26.3,117.9,24.9,117.2,24.9,116.5
	L24.9,116.5z"/>
<path class="st0" d="M136.5,86.4c-0.7-1.3,0-2,1.3-2.7c0.7,0,2,0.7,2.7,1.3c0,1.3-0.7,2.7-2,2.7C137.9,87.8,136.5,87.1,136.5,86.4
	L136.5,86.4z"/>
<path class="st0" d="M16.9,37.7c-1.3,0.7-2,1.3-2.7,2.7c-0.7,2-0.7,4,0,6c0.7,2,2,3.3,4,4.7c2,0.7,4,1.3,6,0.7c2-0.7,3.3-2,4.7-4
	c0.7-0.7,0.7-2,0.7-3.3l-4-2c0.7,1.3,0.7,2.7,0,3.3c-1.3,2.7-3.3,2.7-5.3,2c-2.7-1.3-3.3-3.3-2-5.3c0.7-1.3,1.3-2,2.7-2.7L16.9,37.7
	L16.9,37.7z"/>
<polygon class="st0" points="28.9,28.3 26.3,25.6 20.9,31.7 32.3,42.3 37.6,35.7 35,33.7 32.3,37 30.3,35 33,32.3 30.3,29.7 
	27.6,33 25.6,31 28.9,28.3 "/>
<path class="st0" d="M42.3,24.3c1.3-2,1.3-4,0-5.3c-2-2.7-4.7-2.7-6.7-1.3L30.9,21l8.7,12.7l3.3-2l-3.3-5.3l0,0l6,2.7l4-2.7
	L42.3,24.3L42.3,24.3z M35.6,21.6V21c1.3-0.7,2.7-1.3,3.3,0c1.3,1.3,0,2.7-0.7,3.3h-0.7L35.6,21.6L35.6,21.6z"/>
<polygon class="st0" points="52.3,12.9 55,11.6 53.7,8.3 45,12.3 45.6,15.6 49,14.3 53,25 57,23.6 52.3,12.9 "/>
<polygon class="st0" points="62.4,6.9 58.3,7.6 61.7,22.3 65.7,21.6 62.4,6.9 "/>
<polygon class="st0" points="76.4,8.3 76.4,4.9 67.7,5.6 68.4,21 72.4,21 72.4,15 76.4,14.3 75.7,10.9 71.7,11.6 71.7,8.9 76.4,8.3 
	"/>
<polygon class="st0" points="85.1,6.3 81.7,5.6 79.7,21 83.7,21.6 85.1,6.3 "/>
<polygon class="st0" points="97.8,12.9 99.1,9.6 91.1,6.9 86.4,21.6 94.4,24.3 95.8,21 91.1,19.6 91.8,17 95.8,18.3 97.1,15 
	93.1,14.3 93.8,11.6 97.8,12.9 "/>
<path class="st0" d="M97.8,25.6l4.7,2.7c3.3,2,8,0.7,10-2.7c2-4,1.3-8.7-2.7-10.7l-4-2.7L97.8,25.6L97.8,25.6z M107.1,17l0.7,0.7
	c2,1.3,2.7,3.3,1.3,6c-1.3,2-4,2.7-6,1.3l-0.7-0.7L107.1,17L107.1,17z"/>
<path class="st0" d="M64.4,143.9l4-4c2-2,4-4,4-6.7c0.7-1.3,0-3.3-1.3-4.7c-1.3-1.3-2.7-2-4.7-2.7c-3.3-0.7-7.4,1.3-8,5.3
	c-0.7,3.3,0.7,6,4,6.7c1.3,0.7,2,0.7,2.7,0l0,0l-6,5.3L64.4,143.9L64.4,143.9z M65.7,129.9c2,0,2.7,1.3,2.7,2.7
	c-0.7,2-2,2.7-3.3,2.7c-1.3-0.7-2.7-2-2-3.3C63,130.5,64.4,129.2,65.7,129.9L65.7,129.9z"/>
<path class="st0" d="M81.7,126.5c-5.3,0.7-6.7,5.3-6,10c0.7,4,3.3,8.7,8,8c5.3-0.7,6.7-5.3,6.7-10C89.7,130.5,87.1,125.9,81.7,126.5
	L81.7,126.5z M82.4,130.5c2-0.7,3.3,3.3,3.3,4.7c0,1.3,0,5.3-2,5.3c-2.7,0.7-3.3-3.3-4-4.7C79.7,134.6,79.7,130.5,82.4,130.5
	L82.4,130.5z"/>
<path class="st0" d="M96.4,122.5c-4.7,2-4.7,7.3-2.7,11.4c1.3,4,5.3,7.3,10,5.3c4.7-2,4.7-7.3,3.3-11.4
	C105.1,123.9,101.1,120.5,96.4,122.5L96.4,122.5z M97.8,125.9c2.7-0.7,4,2,5.3,4c0.7,1.3,1.3,4.7-0.7,6c-2,0.7-4-2.7-4.7-4
	C97.1,130.5,95.8,127.2,97.8,125.9L97.8,125.9z"/>
<polygon class="st0" points="111.1,118.5 119.8,128.5 123.2,125.9 111.8,112.5 106.5,117.2 109.1,120.5 111.1,118.5 "/>
<polygon class="st0" points="51.7,32.6 50,32.7 48.3,33.8 46.7,34.9 45.2,36.2 43.7,37.4 42.2,38.7 40.8,40.1 39.5,41.5 38.2,43 
	37,44.5 35.9,46.1 34.8,47.7 33.8,49.3 32.8,51 32,52.7 31.1,54.5 30.4,56.3 29.7,58.1 29.1,59.9 28.5,61.8 28.1,63.7 32.2,62.6 
	32.7,61 33.2,59.3 33.9,57.7 34.6,56 35.3,54.4 36.1,52.8 37,51.2 37.9,49.7 38.9,48.2 40,46.8 41.1,45.4 42.3,44 43.5,42.7 
	44.8,41.4 46.1,40.2 47.5,39.1 48.9,38 50.4,36.9 52,35.9 50.3,36 51.7,32.6 50.8,32.2 50,32.7 51.7,32.6 "/>
<polygon class="st0" points="65.2,33.9 65.2,33.9 64.8,34 64.3,34.1 63.9,34.2 63.4,34.2 63,34.3 62.5,34.4 62.1,34.4 61.7,34.4 
	61.2,34.5 60.8,34.5 60.4,34.5 59.9,34.5 59.5,34.5 59.1,34.4 58.7,34.4 58.3,34.4 57.9,34.3 57.5,34.3 57,34.2 56.6,34.1 
	56.2,34.1 55.8,34 55.4,33.9 55,33.8 54.6,33.7 54.2,33.5 53.8,33.4 53.4,33.3 53,33.1 52.6,32.9 52.1,32.8 51.7,32.6 50.3,36 
	50.7,36.2 51.2,36.4 51.7,36.6 52.1,36.8 52.6,36.9 53.1,37.1 53.5,37.2 54,37.4 54.5,37.5 55,37.6 55.5,37.7 55.9,37.8 56.4,37.9 
	56.9,38 57.4,38.1 57.9,38.1 58.4,38.2 58.9,38.2 59.4,38.2 59.9,38.2 60.4,38.2 60.9,38.2 61.4,38.2 61.9,38.2 62.4,38.1 63,38.1 
	63.5,38 64,37.9 64.5,37.8 65.1,37.7 65.6,37.6 66.1,37.5 66.1,37.5 65.2,33.9 "/>
<polygon class="st0" points="77.8,24.4 76.1,25.4 75.9,25.8 75.6,26.2 75.4,26.6 75.1,26.9 74.9,27.3 74.6,27.7 74.3,28 74,28.4 
	73.7,28.7 73.5,29 73.2,29.3 72.8,29.6 72.5,29.9 72.2,30.2 71.9,30.5 71.5,30.8 71.2,31 70.9,31.3 70.5,31.5 70.1,31.8 69.8,32 
	69.4,32.2 69,32.4 68.6,32.6 68.2,32.8 67.8,33 67.4,33.2 67,33.3 66.6,33.5 66.1,33.6 65.7,33.7 65.2,33.9 66.1,37.5 66.7,37.3 
	67.2,37.2 67.8,37 68.3,36.8 68.8,36.6 69.3,36.4 69.8,36.2 70.3,36 70.8,35.7 71.2,35.5 71.7,35.2 72.1,34.9 72.6,34.6 73,34.3 
	73.5,34 73.9,33.7 74.3,33.4 74.7,33 75.1,32.7 75.5,32.3 75.8,31.9 76.2,31.6 76.6,31.2 76.9,30.8 77.2,30.4 77.6,29.9 77.9,29.5 
	78.2,29.1 78.5,28.6 78.8,28.2 79.1,27.7 79.3,27.2 77.7,28.2 77.8,24.4 76.7,24.4 76.1,25.4 77.8,24.4 "/>
<polygon class="st0" points="113.8,40.7 113.6,40.5 112.2,39 110.7,37.7 109.2,36.4 107.7,35.1 106.1,33.9 104.4,32.8 102.7,31.7 
	101,30.7 99.2,29.8 97.4,29 95.6,28.2 93.7,27.5 91.8,26.8 89.9,26.3 87.9,25.8 85.9,25.3 83.9,25 81.9,24.7 79.8,24.5 77.8,24.4 
	77.7,28.2 79.6,28.3 81.5,28.5 83.4,28.7 85.2,29 87.1,29.4 88.9,29.9 90.7,30.4 92.5,31 94.2,31.6 95.9,32.4 97.6,33.2 99.2,34 
	100.8,34.9 102.4,35.9 103.9,37 105.4,38.1 106.8,39.2 108.2,40.4 109.6,41.7 109.6,41.8 113.8,40.7 "/>
<polygon class="st0" points="100.3,118.2 102,118.1 103.8,117.1 105.6,115.9 107.2,114.7 108.9,113.4 110.4,112.1 111.9,110.7 
	113.3,109.3 114.7,107.8 116,106.2 117.2,104.6 118.4,103 119.5,101.3 120.5,99.6 121.5,97.8 122.4,96 123.2,94.2 124,92.3 
	124.6,90.4 125.2,88.5 125.7,86.7 121.5,87.8 121.1,89.2 120.5,91 119.8,92.7 119,94.4 118.2,96.1 117.3,97.7 116.3,99.3 
	115.3,100.9 114.2,102.4 113.1,103.9 111.9,105.3 110.6,106.7 109.3,108 107.9,109.3 106.5,110.5 105,111.7 103.4,112.8 
	101.8,113.9 100.2,114.9 101.9,114.8 100.3,118.2 101.2,118.6 102,118.1 100.3,118.2 "/>
<polygon class="st0" points="87.5,117 87.6,117 88,116.9 88.4,116.8 88.8,116.7 89.2,116.6 89.6,116.5 90,116.5 90.4,116.4 
	90.8,116.4 91.2,116.4 91.7,116.4 92.1,116.4 92.5,116.4 92.9,116.4 93.3,116.4 93.7,116.4 94.2,116.5 94.6,116.5 95,116.6 
	95.4,116.6 95.8,116.7 96.2,116.8 96.6,116.9 97,117 97.4,117.1 97.8,117.2 98.1,117.3 98.5,117.4 98.9,117.6 99.2,117.7 
	99.6,117.9 99.9,118 100.3,118.2 101.9,114.8 101.5,114.6 101.1,114.4 100.7,114.2 100.2,114.1 99.8,113.9 99.3,113.8 98.9,113.6 
	98.4,113.5 97.9,113.3 97.4,113.2 97,113.1 96.5,113 96,112.9 95.5,112.9 95,112.8 94.5,112.7 94,112.7 93.5,112.6 93,112.6 
	92.5,112.6 92,112.6 91.5,112.6 91,112.6 90.5,112.7 90,112.7 89.5,112.8 89,112.8 88.5,112.9 88,113 87.5,113.1 87.1,113.2 
	86.6,113.4 86.6,113.4 87.5,117 "/>
<polygon class="st0" points="75.7,125.1 77.4,124 77.6,123.7 77.7,123.4 77.9,123.1 78.1,122.8 78.3,122.5 78.5,122.2 78.8,122 
	79,121.7 79.2,121.4 79.5,121.2 79.7,120.9 80,120.7 80.3,120.4 80.6,120.2 80.9,119.9 81.2,119.7 81.5,119.5 81.9,119.3 
	82.2,119.1 82.6,118.9 82.9,118.7 83.3,118.5 83.7,118.3 84.1,118.1 84.5,118 84.9,117.8 85.3,117.7 85.7,117.5 86.2,117.4 
	86.6,117.2 87.1,117.1 87.5,117 86.6,113.4 86.1,113.5 85.6,113.6 85,113.8 84.5,114 84,114.1 83.5,114.3 83.1,114.5 82.6,114.7 
	82.1,114.9 81.7,115.1 81.2,115.4 80.8,115.6 80.3,115.9 79.9,116.1 79.5,116.4 79.1,116.6 78.7,116.9 78.3,117.2 77.9,117.5 
	77.5,117.8 77.2,118.2 76.8,118.5 76.5,118.8 76.2,119.2 75.9,119.6 75.6,119.9 75.3,120.3 75,120.7 74.7,121.1 74.5,121.5 
	74.3,121.9 74,122.4 75.8,121.3 75.7,125.1 76.9,125.1 77.4,124 75.7,125.1 "/>
<polygon class="st0" points="40.4,109.3 41.6,110.5 43,111.8 44.5,113.2 46.1,114.4 47.7,115.6 49.3,116.7 51,117.8 52.7,118.8 
	54.5,119.7 56.3,120.5 58.1,121.3 60,122 61.9,122.7 63.8,123.3 65.7,123.8 67.7,124.2 69.7,124.5 71.6,124.8 73.6,125 75.7,125.1 
	75.8,121.3 73.9,121.2 72.1,121.1 70.2,120.8 68.4,120.5 66.6,120.1 64.8,119.6 63,119.1 61.3,118.5 59.5,117.9 57.8,117.1 
	56.2,116.3 54.5,115.5 52.9,114.6 51.4,113.6 49.9,112.5 48.4,111.4 46.9,110.3 45.6,109.1 44.6,108.2 40.4,109.3 "/>
<polygon class="st0" points="37.7,46.7 35.4,47.3 34.7,48.4 34,49.4 33.4,50.5 32.8,51.6 32.2,52.7 31.6,53.9 31,55.1 30.5,56.2 
	30,57.4 29.6,58.6 29.2,59.8 28.8,61.1 28.4,62.3 28.1,63.6 28,63.7 32.2,62.6 32.3,62.2 32.7,61 33.1,59.9 33.5,58.8 34,57.7 
	34.5,56.6 35,55.5 35.5,54.5 36,53.4 36.6,52.4 37.2,51.4 37.9,50.4 38.5,49.4 36.2,50.1 37.7,46.7 36.3,46 35.4,47.3 37.7,46.7 "/>
<polygon class="st0" points="69.2,48.6 69.2,48.6 68.1,48.8 67,49.1 65.9,49.4 64.9,49.6 63.8,49.8 62.7,49.9 61.6,50 60.6,50.2 
	59.5,50.3 58.4,50.3 57.4,50.4 56.3,50.4 55.3,50.4 54.3,50.4 53.2,50.3 52.2,50.3 51.2,50.2 50.2,50.1 49.2,49.9 48.3,49.8 
	47.3,49.6 46.4,49.4 45.4,49.2 44.5,49 43.6,48.8 42.7,48.5 41.8,48.3 41,48 40.1,47.7 39.3,47.3 38.5,47 37.7,46.7 36.2,50.1 
	37,50.4 37.9,50.8 38.8,51.2 39.8,51.5 40.7,51.8 41.6,52.1 42.6,52.4 43.6,52.7 44.6,52.9 45.6,53.1 46.6,53.3 47.7,53.5 
	48.7,53.6 49.8,53.8 50.9,53.9 51.9,54 53,54.1 54.1,54.1 55.3,54.1 56.4,54.1 57.5,54.1 58.6,54.1 59.8,54 60.9,53.9 62.1,53.8 
	63.2,53.6 64.4,53.4 65.5,53.2 66.7,53 67.9,52.8 69,52.5 70.2,52.2 70.2,52.2 69.2,48.6 "/>
<polygon class="st0" points="98.5,30 96.2,30.6 95.7,31.3 95.2,32 94.7,32.7 94.1,33.4 93.5,34.1 92.9,34.8 92.3,35.5 91.6,36.2 
	90.9,36.8 90.2,37.5 89.5,38.1 88.7,38.8 87.9,39.4 87.1,40 86.3,40.6 85.4,41.2 84.6,41.8 83.7,42.4 82.8,42.9 81.8,43.5 80.9,44 
	79.9,44.5 78.9,45 77.9,45.5 76.9,45.9 75.8,46.3 74.8,46.8 73.7,47.2 72.6,47.5 71.5,47.9 70.4,48.2 69.2,48.6 70.2,52.2 
	71.4,51.8 72.6,51.5 73.8,51.1 75,50.7 76.1,50.3 77.2,49.8 78.4,49.4 79.5,48.9 80.5,48.4 81.6,47.8 82.7,47.3 83.7,46.7 
	84.7,46.1 85.7,45.5 86.6,44.9 87.5,44.3 88.5,43.7 89.4,43 90.2,42.3 91.1,41.7 91.9,41 92.7,40.3 93.5,39.6 94.2,38.8 95,38.1 
	95.7,37.3 96.3,36.6 97,35.8 97.6,35 98.2,34.3 98.8,33.5 99.3,32.7 97,33.4 98.5,30 97.1,29.3 96.2,30.6 98.5,30 "/>
<polygon class="st0" points="113.6,40.7 113.4,40.6 112.5,39.6 111.5,38.7 110.5,37.8 109.5,36.9 108.5,36.1 107.5,35.2 106.4,34.5 
	105.3,33.7 104.2,33 103.1,32.3 102,31.7 100.9,31.1 99.7,30.5 98.5,30 97,33.4 98.1,33.9 99.1,34.4 100.2,34.9 101.2,35.5 
	102.2,36.2 103.3,36.8 104.2,37.5 105.2,38.2 106.2,39 107.1,39.8 108.1,40.6 109,41.4 109.4,41.8 113.6,40.7 "/>
<polygon class="st0" points="115.6,104.8 118,104.2 118.8,103.1 119.5,102 120.2,100.8 120.9,99.6 121.5,98.5 122.1,97.2 122.7,96 
	123.2,94.8 123.7,93.5 124.2,92.2 124.6,91 125,89.7 125.4,88.4 125.7,87 125.8,86.7 121.6,87.8 121.4,88.6 121,89.8 120.6,91 
	120.2,92.2 119.7,93.3 119.3,94.5 118.7,95.6 118.2,96.7 117.6,97.8 117,98.9 116.3,100 115.7,101 114.9,102.1 117.4,101.5 
	115.6,104.8 117,105.6 118,104.2 115.6,104.8 "/>
<polygon class="st0" points="84.2,102.9 84.2,102.9 85.3,102.7 86.4,102.4 87.5,102.1 88.6,101.9 89.7,101.7 90.8,101.5 91.8,101.4 
	92.9,101.3 94,101.1 95,101.1 96.1,101 97.1,101 98.2,100.9 99.2,100.9 100.2,101 101.2,101 102.2,101.1 103.2,101.2 104.2,101.3 
	105.2,101.4 106.1,101.6 107.1,101.8 108,102 108.9,102.2 109.8,102.5 110.7,102.7 111.5,103 112.4,103.3 113.2,103.7 114,104 
	114.8,104.4 115.6,104.8 117.4,101.5 116.5,101 115.6,100.6 114.7,100.2 113.7,99.8 112.8,99.5 111.8,99.2 110.9,98.9 109.9,98.6 
	108.9,98.3 107.8,98.1 106.8,97.9 105.8,97.7 104.7,97.6 103.6,97.5 102.6,97.3 101.5,97.3 100.4,97.2 99.3,97.2 98.2,97.2 97,97.2 
	95.9,97.3 94.8,97.3 93.6,97.4 92.5,97.5 91.3,97.7 90.2,97.8 89,98 87.9,98.2 86.7,98.5 85.6,98.7 84.4,99 83.2,99.3 83.2,99.3 
	84.2,102.9 "/>
<polygon class="st0" points="55.5,120.2 57.9,119.6 58.3,119 58.8,118.3 59.4,117.7 59.9,117.1 60.5,116.4 61.1,115.8 61.8,115.2 
	62.4,114.6 63.1,113.9 63.8,113.3 64.6,112.7 65.3,112.2 66.1,111.6 66.9,111 67.7,110.4 68.5,109.9 69.4,109.4 70.3,108.8 
	71.2,108.3 72.1,107.8 73,107.3 74,106.9 74.9,106.4 75.9,105.9 76.9,105.5 77.9,105.1 78.9,104.7 80,104.3 81,103.9 82.1,103.6 
	83.1,103.3 84.2,102.9 83.2,99.3 82.1,99.7 80.9,100 79.8,100.4 78.7,100.8 77.6,101.2 76.5,101.6 75.4,102.1 74.4,102.5 73.3,103 
	72.3,103.5 71.3,104 70.3,104.5 69.3,105.1 68.4,105.6 67.4,106.2 66.5,106.8 65.6,107.3 64.7,107.9 63.9,108.6 63.1,109.2 
	62.2,109.8 61.4,110.5 60.7,111.1 59.9,111.8 59.2,112.5 58.5,113.1 57.8,113.8 57.2,114.5 56.5,115.2 55.9,116 55.4,116.7 
	54.8,117.4 57.2,116.8 55.5,120.2 56.9,120.9 57.9,119.6 55.5,120.2 "/>
<polygon class="st0" points="40.6,109.2 40.7,109.3 41.6,110.2 42.6,111.2 43.6,112.1 44.6,113 45.6,113.8 46.6,114.6 47.7,115.4 
	48.7,116.2 49.8,116.9 50.9,117.6 52.1,118.3 53.2,119 54.3,119.6 55.5,120.2 57.2,116.8 56.1,116.3 55,115.7 54,115.1 52.9,114.5 
	51.9,113.8 50.9,113.1 49.9,112.4 48.9,111.7 47.9,110.9 47,110.1 46.1,109.3 45.2,108.5 44.8,108.1 40.6,109.2 "/>
<polygon class="st0" points="56.4,33.9 54.6,34.1 53.3,35.1 52,36.1 50.8,37.2 49.6,38.3 48.5,39.5 47.5,40.8 46.4,42.1 45.4,43.4 
	44.5,44.8 43.6,46.3 42.8,47.8 42.1,49.3 41.3,50.9 40.7,52.4 40.1,54.1 39.5,55.7 39,57.4 38.6,59.2 38.2,60.9 38.2,61 42.3,59.9 
	42.6,58.4 43.1,56.9 43.6,55.3 44.2,53.8 44.8,52.3 45.4,50.9 46.1,49.5 46.9,48.2 47.7,46.8 48.5,45.6 49.4,44.3 50.3,43.2 
	51.3,42 52.3,41 53.4,39.9 54.5,39 55.6,38.1 56.7,37.2 55,37.4 56.4,33.9 55.4,33.6 54.6,34.1 56.4,33.9 "/>
<polygon class="st0" points="65.4,33.8 65,33.9 64.7,34 64.5,34.1 64.2,34.2 63.9,34.3 63.6,34.4 63.4,34.5 63.1,34.5 62.8,34.6 
	62.6,34.6 62.3,34.7 62,34.7 61.8,34.7 61.5,34.8 61.2,34.8 61,34.8 60.7,34.8 60.4,34.8 60.1,34.8 59.9,34.8 59.6,34.7 59.4,34.7 
	59.1,34.7 58.8,34.6 58.5,34.6 58.3,34.5 58,34.5 57.7,34.4 57.5,34.3 57.2,34.2 56.9,34.1 56.6,34 56.4,33.9 55,37.4 55.3,37.5 
	55.7,37.7 56,37.8 56.4,37.9 56.7,38 57.1,38.1 57.5,38.2 57.8,38.3 58.2,38.3 58.5,38.4 58.9,38.4 59.2,38.5 59.6,38.5 60,38.5 
	60.3,38.5 60.7,38.5 61,38.5 61.4,38.5 61.8,38.5 62.1,38.5 62.5,38.4 62.8,38.4 63.2,38.3 63.6,38.3 63.9,38.2 64.3,38.1 64.6,38 
	65,37.9 65.3,37.8 65.7,37.7 66,37.5 66.4,37.4 66,37.5 65.4,33.8 "/>
<polygon class="st0" points="75.2,28.5 73.7,29 73.5,29.2 73.2,29.5 73,29.7 72.8,29.9 72.5,30.1 72.3,30.3 72.1,30.5 71.8,30.7 
	71.6,30.9 71.3,31.1 71.1,31.3 70.9,31.5 70.6,31.7 70.4,31.8 70.1,32 69.9,32.1 69.7,32.3 69.4,32.4 69.1,32.6 68.9,32.7 
	68.6,32.8 68.3,32.9 68.1,33.1 67.8,33.2 67.5,33.3 67.2,33.4 67,33.5 66.7,33.5 66.3,33.6 66,33.7 65.7,33.8 65.4,33.8 66,37.5 
	66.4,37.4 66.8,37.4 67.2,37.3 67.6,37.2 68,37.1 68.4,36.9 68.8,36.8 69.1,36.7 69.5,36.5 69.9,36.4 70.2,36.2 70.5,36.1 
	70.9,35.9 71.2,35.7 71.5,35.5 71.9,35.3 72.2,35.1 72.5,34.9 72.8,34.7 73.1,34.5 73.4,34.3 73.7,34.1 73.9,33.9 74.2,33.6 
	74.5,33.4 74.8,33.2 75,32.9 75.3,32.7 75.6,32.4 75.8,32.2 76.1,31.9 76.4,31.6 74.9,32.2 75.2,28.5 74.3,28.4 73.7,29 75.2,28.5 
	"/>
<polygon class="st0" points="103.3,43.5 103,43.1 101.8,41.8 100.5,40.5 99.3,39.3 98,38.1 96.6,37.1 95.3,36 93.8,35.1 92.4,34.1 
	91,33.3 89.5,32.5 88,31.8 86.4,31.1 84.9,30.5 83.3,30 81.7,29.6 80.1,29.2 78.5,28.9 76.8,28.6 75.2,28.5 74.9,32.2 76.4,32.3 
	77.8,32.6 79.3,32.8 80.8,33.2 82.2,33.6 83.6,34.1 85,34.6 86.4,35.2 87.8,35.9 89.1,36.6 90.5,37.3 91.8,38.2 93.1,39.1 94.3,40 
	95.6,41 96.8,42.1 97.9,43.2 99.1,44.3 99.3,44.6 103.3,43.5 "/>
<polygon class="st0" points="96,116.3 97.4,116.1 98.8,115.2 100.2,114.3 101.5,113.2 102.8,112.1 104.1,111 105.3,109.8 
	106.4,108.5 107.5,107.2 108.5,105.8 109.4,104.4 110.3,102.9 111.2,101.4 112,99.8 112.7,98.2 113.4,96.6 114,94.9 114.5,93.2 
	115,91.4 115.4,89.6 115.4,89.4 111.4,90.5 110.9,92.1 110.4,93.7 109.9,95.2 109.3,96.7 108.6,98.2 107.9,99.6 107.1,101 
	106.3,102.4 105.4,103.6 104.5,104.9 103.5,106.1 102.5,107.2 101.5,108.3 100.3,109.3 99.2,110.3 98,111.2 96.8,112.1 95.5,112.9 
	96.9,112.7 96,116.3 "/>
<polygon class="st0" points="87.4,117 87.8,116.9 88,116.8 88.3,116.7 88.6,116.6 88.9,116.5 89.1,116.4 89.4,116.4 89.7,116.3 
	90,116.2 90.2,116.2 90.5,116.1 90.8,116.1 91,116.1 91.3,116 91.6,116 91.8,116 92.1,116 92.3,116 92.6,115.9 92.9,115.9 93.1,116 
	93.4,116 93.6,116 93.9,116 94.1,116 94.4,116 94.6,116.1 94.9,116.1 95.1,116.1 95.3,116.2 95.5,116.2 95.8,116.3 96,116.3 
	96.9,112.7 96.6,112.6 96.3,112.6 96,112.5 95.7,112.4 95.4,112.4 95.1,112.4 94.8,112.3 94.5,112.3 94.2,112.2 93.9,112.2 
	93.5,112.2 93.2,112.2 92.9,112.2 92.6,112.2 92.2,112.2 91.9,112.2 91.6,112.2 91.2,112.3 90.9,112.3 90.6,112.4 90.2,112.4 
	89.9,112.5 89.5,112.5 89.2,112.6 88.8,112.7 88.5,112.7 88.1,112.8 87.8,112.9 87.4,113.1 87.1,113.2 86.7,113.3 86.4,113.4 
	86.7,113.3 87.4,117 "/>
<polygon class="st0" points="79,121.1 80.4,120.5 80.5,120.4 80.7,120.2 80.9,120 81.1,119.9 81.2,119.7 81.4,119.6 81.6,119.5 
	81.8,119.3 82,119.2 82.2,119.1 82.4,118.9 82.6,118.8 82.8,118.7 83,118.6 83.2,118.5 83.4,118.4 83.6,118.2 83.8,118.1 84.1,118 
	84.3,117.9 84.5,117.9 84.8,117.8 85,117.7 85.3,117.6 85.5,117.5 85.8,117.4 86.1,117.3 86.3,117.3 86.6,117.2 86.9,117.1 
	87.2,117.1 87.4,117 86.7,113.3 86.4,113.4 86,113.5 85.7,113.6 85.4,113.6 85.1,113.7 84.7,113.8 84.4,113.9 84.1,114 83.8,114.1 
	83.5,114.2 83.2,114.4 82.9,114.5 82.6,114.6 82.3,114.7 82,114.9 81.7,115 81.5,115.1 81.2,115.3 80.9,115.4 80.6,115.6 
	80.4,115.8 80.1,115.9 79.9,116.1 79.6,116.3 79.3,116.5 79.1,116.6 78.9,116.8 78.6,117 78.4,117.2 78.2,117.4 77.9,117.6 
	77.7,117.9 79.1,117.3 79,121.1 79.8,121.1 80.4,120.5 79,121.1 "/>
<polygon class="st0" points="50.7,106.6 50.7,106.6 51.9,108 53.2,109.2 54.5,110.5 55.8,111.6 57.2,112.7 58.6,113.8 60,114.8 
	61.5,115.7 63,116.5 64.5,117.3 66.1,118 67.6,118.6 69.2,119.2 70.8,119.7 72.4,120.1 74,120.5 75.7,120.8 77.3,121 79,121.1 
	79.1,117.3 77.7,117.2 76.2,117.1 74.7,116.8 73.3,116.5 71.8,116.1 70.4,115.7 69,115.2 67.6,114.6 66.2,113.9 64.8,113.2 
	63.4,112.5 62.1,111.6 60.8,110.7 59.5,109.8 58.2,108.8 57,107.7 55.8,106.6 54.8,105.5 50.7,106.6 "/>
<polygon class="st0" points="60.3,34.5 59,35 58.3,35.8 57.6,36.7 56.9,37.6 56.2,38.6 55.6,39.6 55.1,40.7 54.5,41.8 54,43 
	53.6,44.2 53.1,45.5 52.8,46.8 52.4,48.1 52.1,49.5 51.8,51 51.6,52.4 51.4,53.9 51.2,55.4 51.1,57 51.1,57.5 54.9,56.5 55,55.8 
	55.1,54.3 55.3,53 55.5,51.6 55.8,50.3 56,49 56.4,47.8 56.7,46.6 57.1,45.5 57.5,44.4 57.9,43.3 58.4,42.4 58.9,41.4 59.4,40.6 
	59.9,39.7 60.5,39 61.1,38.3 61.7,37.7 60.3,38.2 60.3,34.5 "/>
<polygon class="st0" points="65.7,33.8 65.1,33.9 64.9,33.9 64.8,34 64.6,34 64.5,34.1 64.3,34.1 64.2,34.1 64,34.2 63.9,34.2 
	63.8,34.2 63.6,34.3 63.5,34.3 63.4,34.3 63.2,34.3 63.1,34.3 63,34.4 62.8,34.4 62.7,34.4 62.6,34.4 62.4,34.4 62.3,34.4 62,34.4 
	61.7,34.4 61.4,34.5 61.1,34.5 60.7,34.5 60.3,34.5 60.3,38.2 60.7,38.2 61.1,38.2 61.4,38.2 61.8,38.2 62.1,38.2 62.5,38.2 
	62.7,38.2 62.8,38.2 63,38.1 63.2,38.1 63.4,38.1 63.6,38.1 63.7,38 63.9,38 64.1,38 64.3,38 64.5,37.9 64.7,37.9 64.9,37.8 
	65.1,37.8 65.3,37.7 65.5,37.7 65.7,37.6 65.9,37.6 66.1,37.5 66.3,37.4 65.7,37.5 65.7,33.8 "/>
<polygon class="st0" points="72.1,31.8 71.1,31.9 70.9,32 70.7,32 70.5,32.1 70.3,32.2 70,32.3 69.9,32.4 69.7,32.4 69.4,32.5 
	69.1,32.7 68.7,32.9 68.3,33 68,33.2 67.8,33.3 67.6,33.3 67.5,33.4 67.3,33.4 67.2,33.5 67,33.5 66.8,33.6 66.7,33.6 66.6,33.7 
	66.4,33.7 66.3,33.7 66.2,33.7 66.1,33.8 65.9,33.8 65.8,33.8 65.7,33.8 65.7,37.5 66,37.5 66.2,37.5 66.5,37.5 66.7,37.5 67,37.4 
	67.2,37.4 67.4,37.3 67.7,37.3 67.9,37.2 68.1,37.1 68.4,37.1 68.6,37 68.8,36.9 69,36.8 69.2,36.7 69.4,36.6 69.8,36.5 70.2,36.3 
	70.6,36.1 71,36 71.1,35.9 71.3,35.8 71.5,35.8 71.6,35.7 71.8,35.6 72,35.5 72.1,35.5 72.3,35.4 71.3,35.5 72.1,31.8 "/>
<polygon class="st0" points="90.6,46.9 90.1,46.2 89.2,44.9 88.3,43.7 87.4,42.5 86.4,41.4 85.5,40.3 84.5,39.3 83.5,38.4 
	82.5,37.5 81.5,36.6 80.5,35.8 79.4,35.1 78.4,34.4 77.4,33.8 76.3,33.3 75.3,32.8 74.2,32.4 73.1,32.1 72.1,31.8 71.3,35.5 
	72.2,35.7 73,35.9 73.8,36.3 74.7,36.6 75.6,37.1 76.5,37.6 77.4,38.2 78.2,38.8 79.1,39.5 80,40.3 80.9,41.1 81.8,42 82.7,42.9 
	83.6,43.9 84.5,44.9 85.3,46 86.2,47.1 86.8,47.9 90.6,46.9 "/>
<polygon class="st0" points="92.4,115.7 93.5,115.3 94.4,114.6 95.2,113.9 96,113 96.7,112.1 97.3,111.2 98,110.1 98.6,109 
	99.1,107.9 99.6,106.7 100.1,105.4 100.5,104.1 100.9,102.8 101.2,101.4 101.5,100 101.8,98.5 102,97 102.2,95.4 102.4,93.8 
	102.5,92.9 98.6,93.9 98.5,95 98.3,96.5 98.1,97.9 97.9,99.3 97.6,100.6 97.3,101.8 96.9,103 96.5,104.2 96.1,105.3 95.7,106.4 
	95.2,107.3 94.7,108.3 94.2,109.1 93.7,109.9 93.1,110.6 92.5,111.3 91.9,111.8 91.3,112.3 92.4,112 92.4,115.7 "/>
<polygon class="st0" points="87.1,117.1 87.9,116.9 88,116.8 88.1,116.8 88.2,116.7 88.4,116.7 88.5,116.6 88.6,116.5 88.7,116.5 
	88.9,116.4 89,116.4 89.1,116.3 89.3,116.3 89.4,116.2 89.6,116.2 89.7,116.2 89.8,116.1 90,116.1 90.1,116 90.3,116 90.4,116 
	90.6,115.9 90.7,115.9 90.9,115.9 91.1,115.8 91.2,115.8 91.4,115.8 91.5,115.8 91.7,115.8 91.8,115.7 92,115.7 92.1,115.7 
	92.3,115.7 92.4,115.7 92.4,112 92.2,112 92,112 91.8,112 91.5,112 91.3,112 91.1,112 90.9,112.1 90.6,112.1 90.4,112.1 90.2,112.2 
	90,112.2 89.8,112.3 89.6,112.3 89.4,112.3 89.2,112.4 89,112.4 88.8,112.5 88.6,112.6 88.4,112.6 88.2,112.7 88.1,112.7 
	87.9,112.8 87.7,112.9 87.5,112.9 87.3,113 87.2,113.1 87,113.1 86.9,113.2 86.7,113.3 86.5,113.4 86.4,113.4 86.2,113.5 
	87.1,113.3 87.1,117.1 "/>
<polygon class="st0" points="82.7,118.4 84.4,117.8 84.4,117.9 84.4,117.9 84.4,117.9 84.4,117.8 84.5,117.8 84.5,117.8 84.6,117.7 
	84.6,117.7 84.7,117.7 84.8,117.6 84.9,117.6 85,117.5 85.1,117.5 85.2,117.5 85.3,117.4 85.4,117.4 85.5,117.3 85.6,117.3 
	85.8,117.3 85.9,117.2 86,117.2 86.1,117.2 86.2,117.2 86.3,117.1 86.4,117.1 86.5,117.1 86.6,117.1 86.8,117.1 86.8,117.1 
	86.9,117.1 87,117.1 87.1,117.1 87.1,113.3 86.9,113.3 86.7,113.3 86.5,113.3 86.3,113.3 86.2,113.3 86,113.4 85.8,113.4 
	85.6,113.4 85.5,113.5 85.3,113.5 85.1,113.6 84.9,113.6 84.7,113.7 84.6,113.7 84.4,113.8 84.2,113.8 84.1,113.9 83.9,113.9 
	83.7,114 83.6,114.1 83.4,114.1 83.2,114.2 83.1,114.3 82.9,114.4 82.8,114.4 82.6,114.5 82.5,114.6 82.3,114.7 82.2,114.8 
	82,114.9 81.9,115.1 81.7,115.2 83.4,114.7 82.7,118.4 83.7,118.5 84.4,117.8 82.7,118.4 "/>
<polygon class="st0" points="63.7,103.1 64,103.6 64.9,104.9 65.9,106.1 66.8,107.3 67.8,108.5 68.8,109.6 69.8,110.6 70.8,111.6 
	71.8,112.6 72.9,113.4 73.9,114.3 75,115 76.1,115.7 77.1,116.3 78.2,116.9 79.4,117.4 80.5,117.8 81.6,118.1 82.7,118.4 
	83.4,114.7 82.5,114.5 81.6,114.2 80.7,113.9 79.8,113.5 78.9,113 78,112.5 77.1,111.9 76.1,111.3 75.2,110.5 74.3,109.8 
	73.4,108.9 72.4,108 71.5,107.1 70.6,106 69.7,105 68.9,103.9 68,102.7 67.6,102.1 63.7,103.1 "/>
<path class="st0" d="M88.2,114.7l-4.4-16.9l-3.6,1l4.4,16.9L88.2,114.7L88.2,114.7z M71.7,52l-4.2-16.1l-3.6,1l4.2,16.1L71.7,52
	L71.7,52z"/>
<polygon class="st0" points="63.2,27.2 63.2,27.2 60.8,27.9 58.4,28.7 56.1,29.7 53.8,30.7 51.6,31.9 49.5,33.1 47.5,34.5 
	45.6,35.9 43.7,37.5 41.9,39.1 40.2,40.8 38.6,42.6 37,44.5 35.6,46.4 34.3,48.4 33,50.4 31.8,52.5 30.8,54.7 29.8,56.9 29,59.2 
	28.3,61.5 27.6,63.8 27.6,63.8 31.8,62.7 31.8,62.5 32.5,60.4 33.3,58.3 34.2,56.3 35.2,54.3 36.2,52.3 37.4,50.4 38.6,48.6 
	40,46.8 41.4,45.1 42.9,43.4 44.5,41.8 46.1,40.3 47.9,38.9 49.7,37.6 51.5,36.3 53.5,35.1 55.5,34.1 57.6,33.1 59.7,32.2 
	61.9,31.4 64.2,30.8 64.2,30.8 63.2,27.2 "/>
<polygon class="st0" points="113,40.9 113,40.8 111.3,39.1 109.5,37.5 107.6,35.9 105.7,34.5 103.7,33.1 101.6,31.9 99.5,30.7 
	97.3,29.7 95.1,28.7 92.8,27.9 90.5,27.2 88.1,26.6 85.7,26.1 83.3,25.7 80.8,25.4 78.3,25.3 75.8,25.3 73.3,25.4 70.8,25.6 
	68.3,26 65.7,26.5 63.2,27.2 64.2,30.8 66.5,30.2 68.9,29.7 71.2,29.4 73.6,29.1 75.9,29 78.2,29 80.5,29.2 82.8,29.4 85,29.7 
	87.3,30.2 89.4,30.8 91.6,31.4 93.7,32.2 95.8,33.1 97.8,34 99.8,35.1 101.7,36.3 103.5,37.5 105.3,38.9 107,40.3 108.7,41.8 
	108.9,42 113,40.9 "/>
<polygon class="st0" points="89.6,123.7 89.6,123.7 92,123 94.4,122.1 96.7,121.2 98.9,120.1 101.1,119 103.2,117.7 105.3,116.4 
	107.2,114.9 109.1,113.4 110.9,111.7 112.6,110 114.2,108.2 115.7,106.4 117.2,104.5 118.5,102.5 119.8,100.4 120.9,98.3 122,96.1 
	122.9,93.9 123.8,91.7 124.5,89.4 125.1,87.1 125.2,86.9 121,88 120.9,88.3 120.2,90.4 119.5,92.5 118.6,94.6 117.6,96.6 
	116.5,98.5 115.4,100.4 114.1,102.3 112.8,104.1 111.4,105.8 109.9,107.4 108.3,109 106.6,110.5 104.9,112 103.1,113.3 101.2,114.5 
	99.3,115.7 97.3,116.8 95.2,117.8 93.1,118.6 90.9,119.4 88.6,120.1 88.6,120.1 89.6,123.7 "/>
<polygon class="st0" points="39.6,109.5 40.1,110 41.8,111.7 43.6,113.4 45.4,114.9 47.3,116.4 49.3,117.7 51.4,119 53.5,120.1 
	55.7,121.2 57.9,122.1 60.2,122.9 62.5,123.7 64.8,124.3 67.2,124.8 69.6,125.2 72,125.4 74.5,125.6 77,125.6 79.5,125.4 82,125.2 
	84.5,124.8 87.1,124.3 89.6,123.7 88.6,120.1 86.2,120.7 83.9,121.1 81.5,121.5 79.2,121.7 76.9,121.8 74.6,121.8 72.3,121.7 
	70.1,121.4 67.8,121.1 65.6,120.6 63.5,120.1 61.4,119.4 59.3,118.6 57.2,117.8 55.2,116.8 53.3,115.7 51.4,114.6 49.5,113.3 
	47.7,112 46,110.5 44.4,109 43.7,108.4 39.6,109.5 "/>
</svg>
