<?xml version="1.0" encoding="utf-8"?>
<!-- Generator: Adobe Illustrator 22.0.1, SVG Export Plug-In . SVG Version: 6.00 Build 0)  -->
<svg version="1.1" id="Layer_1" xmlns="http://www.w3.org/2000/svg" xmlns:xlink="http://www.w3.org/1999/xlink" x="0px" y="0px"
	 viewBox="0 0 382.9 73.5" style="enable-background:new 0 0 382.9 73.5;" xml:space="preserve">
<style type="text/css">
	.st0{fill:#0080C6;}
	.st1{fill:#009AED;}
	.st2{fill:#005D8F;}
	.st3{fill:#0074B2;}
	.st4{fill:#39505C;}
</style>
<path class="st0" d="M68.3,14.2l15.4,19.6H58C59.7,26.3,63.4,19.6,68.3,14.2L68.3,14.2z"/>
<path class="st1" d="M100.4,0h0.9c11.6,0,22.2,4.6,30.1,12.1l-15.1,19.3c-1.3-7.1-7.5-12.7-15.2-12.7c-8.4,0-14.3,5.8-15.5,12.7
	L70.4,12.1C78.2,4.6,88.8,0,100.4,0L100.4,0z"/>
<polygon class="st2" points="85.3,73.5 58.5,73.5 85.3,39.4 85.3,73.5 "/>
<path class="st3" d="M144.3,36.7c0.8,4.7,0.5,6,0.5,34.2L118,36.7H144.3L144.3,36.7z"/>
<path class="st2" d="M100.7,21.6c7.6,0,12.9,6,12.9,12.6v39.4H88.2V34.2C88.2,27.2,93.8,21.6,100.7,21.6L100.7,21.6z"/>
<path class="st3" d="M83.8,36.7L56.9,70.8c0-29.7-0.2-29.6,0.5-34.2H83.8L83.8,36.7z"/>
<polygon class="st2" points="116.5,73.5 116.5,39.4 143.3,73.5 116.5,73.5 "/>
<path class="st0" d="M133.4,14.2c5,5.5,8.6,12.2,10.3,19.6H118L133.4,14.2L133.4,14.2z"/>
<path class="st1" d="M43.5,0h2.8c-15,5.6-26,18.5-29.2,33.8h-16C5.5,14.5,22.8,0,43.5,0L43.5,0z"/>
<path class="st1" d="M16.1,73.5H0c0-32.8-0.2-32.4,0.5-36.9h16C15.9,41.2,16.1,40.7,16.1,73.5L16.1,73.5z"/>
<path class="st3" d="M81.5,0h2.8C69.4,5.5,58.4,18.4,55.1,33.8h-16C43.5,14.5,60.8,0,81.5,0L81.5,0z"/>
<path class="st0" d="M35.6,36.7c-0.7,4.5-0.5,4.1-0.5,36.9H19c0-32.8-0.2-32.4,0.5-36.9H35.6L35.6,36.7z"/>
<path class="st3" d="M54.5,36.7c-0.7,4.5-0.5,4.1-0.5,36.9H38c0-32.8-0.2-32.4,0.5-36.9H54.5L54.5,36.7z"/>
<path class="st0" d="M62.5,0h2.8c-15,5.6-26,18.5-29.2,33.8h-16C24.5,14.5,41.8,0,62.5,0L62.5,0z"/>
<path class="st4" d="M169.8,21.5v-5.8h19.1v5.8h-6.3v16H176v-16H169.8L169.8,21.5z M208.5,37.5h-17.3V15.7h17.1v5.8h-10.4v1.9h8.1
	v5.3h-8.1v3h10.6V37.5L208.5,37.5z M217.7,37.5H211V15.7h19.8v21.8h-6.7v-16h-6.4V37.5L217.7,37.5z M232.4,37.2v-5.9
	c0.6,0.3,1.1,0.4,1.5,0.4c0.8,0,1.3-0.2,1.7-0.5c0.9-0.8,1.3-3.5,1.4-8.2l0.1-7.3h17.2v21.8h-6.7v-16h-4.4l0,2.6
	c0,5.2-0.8,8.9-2.2,10.9c-1.2,1.8-3.1,2.7-5.5,2.7C234,37.8,233,37.6,232.4,37.2L232.4,37.2z M263.3,37.5h-5.7V15.7h6.5v10.8
	l8.4-10.8h5.5v21.8h-6.4V26.8L263.3,37.5L263.3,37.5z M303.5,41.5h-6.3v-4h-16V15.7h6.7v16h6.2v-16h6.7v16h2.7V41.5L303.5,41.5z
	 M169.8,55.5v-5.8h19.1v5.8h-6.3v16H176v-16H169.8L169.8,55.5z M208.5,71.5h-17.3V49.7h17.1v5.8h-10.4v1.9h8.1v5.3h-8.1v3h10.6V71.5
	L208.5,71.5z M210,49.7h7.7l3.2,5.2l3.2-5.2h7.7l-7.1,10.1l8.2,11.7h-7.8l-4.4-6.6l-4.3,6.6h-7.7l8.2-11.7L210,49.7L210,49.7z
	 M240.4,71.5H234V49.7h6.6l4.8,7.7l4.8-7.7h6.6v21.8h-6.4V59.3l-3.1,5.2h-3.6l-3.2-5.2V71.5L240.4,71.5z M267.6,64.3
	c0.9,1,2.1,1.5,3.5,1.5c1.4,0,2.5-0.5,3.5-1.5c0.9-1,1.4-2.3,1.4-3.8c0-1.5-0.5-2.8-1.4-3.7c-0.9-1-2-1.5-3.5-1.5
	c-1.4,0-2.6,0.5-3.5,1.5c-0.9,1-1.4,2.2-1.4,3.7C266.3,62.1,266.7,63.3,267.6,64.3L267.6,64.3z M262.7,68.6c-2.2-2.2-3.3-4.9-3.3-8
	c0-3.1,1.1-5.8,3.3-8c2.2-2.2,5-3.3,8.4-3.3c3.3,0,6.1,1.1,8.3,3.3c2.2,2.2,3.3,4.9,3.3,8c0,3.2-1.1,5.8-3.3,8
	c-2.2,2.2-5,3.3-8.3,3.3C267.7,71.9,264.9,70.8,262.7,68.6L262.7,68.6z M292.1,71.5h-6.7V49.7h6.7v7.4h6.7v-7.4h6.7v21.8h-6.7v-8.6
	h-6.7V71.5L292.1,71.5z M307.8,55.5v-5.8h19.1v5.8h-6.3v16H314v-16H307.8L307.8,55.5z M331.4,71.5h-6.9l9-21.9h6.4l9,21.9h-7.2
	l-1.6-4.1H333L331.4,71.5L331.4,71.5z M336.5,57.2l-1.6,5.2h3.2L336.5,57.2L336.5,57.2z M356.7,71.5h-8.2l8-11.1l-7-10.7h7.7
	l5.2,8.7v-8.7h6.5v8.7l5.2-8.7h7.7l-7,10.7l8,11.1h-8.1l-5.8-8.6v8.6h-6.5v-8.6L356.7,71.5L356.7,71.5z"/>
</svg>
