<?xml version="1.0" encoding="utf-8"?>
<!-- Generator: Adobe Illustrator 22.1.0, SVG Export Plug-In . SVG Version: 6.00 Build 0)  -->
<svg version="1.1" id="_x2018_ëîé_x5F_1" xmlns="http://www.w3.org/2000/svg" xmlns:xlink="http://www.w3.org/1999/xlink"
	 x="0px" y="0px" viewBox="0 0 94.2 93.4" style="enable-background:new 0 0 94.2 93.4;" xml:space="preserve">
<g>
	<g>
		<polygon points="52.6,46.2 50.2,47.5 73.5,24.2 75.9,22.9 		"/>
		<polygon points="38,60.8 35.5,62.1 44.5,53.2 47,51.9 		"/>
		<polygon points="28.3,70.5 25.8,71.8 29.7,67.9 32.2,66.6 		"/>
	</g>
	<g>
		<polygon points="29.6,77.3 32,76 28.5,79.5 27.9,78.9 		"/>
		<polygon points="44.2,62.6 46.6,61.3 35,73 32.5,74.3 		"/>
		<polygon points="60.3,46.6 62.7,45.3 52.4,55.6 50,56.8 		"/>
		<polygon points="78.1,28.8 80.5,27.5 64.5,43.4 62.1,44.7 		"/>
	</g>
	<g>
		<polygon points="42,74 44.4,72.7 32.9,84.2 32.3,83.6 		"/>
		<polygon points="67.3,48.7 69.8,47.4 46.6,70.5 44.2,71.8 		"/>
		<polygon points="82.6,33.3 85.1,32 76.1,41 73.7,42.3 		"/>
	</g>
	<g>
		<polygon points="59.3,74.9 61.8,73.7 42.1,93.4 41.5,92.8 		"/>
		<polygon points="76.5,57.8 78.9,56.5 65.2,70.3 62.7,71.6 		"/>
		<polygon points="91.8,42.5 94.2,41.2 85.3,50.2 82.8,51.5 		"/>
	</g>
	<g>
		<polygon points="46.6,78.6 49,77.3 37.5,88.8 36.9,88.2 		"/>
		<polygon points="53,72.1 55.5,70.8 51.2,75.1 48.8,76.3 		"/>
		<polygon points="74.5,50.6 77,49.3 66.7,59.6 64.2,60.9 		"/>
		<polygon points="87.2,37.9 89.7,36.6 80.7,45.6 78.2,46.9 		"/>
	</g>
	<g>
		<polygon points="23.3,65.2 25.8,63.9 19.3,70.4 18.7,69.8 		"/>
		<polygon points="35,53.5 37.5,52.2 28.5,61.1 26.1,62.4 		"/>
		<polygon points="44.7,43.8 47.2,42.5 43.3,46.4 40.8,47.7 		"/>
		<polygon points="68.9,19.6 71.3,18.3 52.1,37.5 49.7,38.8 		"/>
	</g>
	<g>
		<polygon points="43.5,37 41,38.3 64.3,15 66.8,13.7 		"/>
		<polygon points="28.8,51.7 26.4,53 38.1,41.3 40.5,40 		"/>
		<polygon points="14.3,66.2 13.7,65.6 20.6,58.7 23,57.5 		"/>
	</g>
	<g>
		<polygon points="53.8,17.6 51.3,18.9 59.7,10.4 62.2,9.2 		"/>
		<polygon points="31,40.3 28.6,41.6 48.4,21.8 50.8,20.5 		"/>
		<polygon points="9.7,61.6 9.2,61 26.4,43.8 28.8,42.5 		"/>
	</g>
	<g>
		<polygon points="39.3,13.7 36.8,15 50.6,1.3 53,0 		"/>
		<polygon points="13.7,39.4 11.2,40.6 33.4,18.5 35.9,17.2 		"/>
		<polygon points="0.6,52.5 0,51.9 5.1,46.7 7.6,45.5 		"/>
	</g>
	<g>
		<polygon points="53.4,8.8 50.9,10.1 55.2,5.9 57.6,4.6 		"/>
		<polygon points="33.8,28.4 31.3,29.7 37.3,23.7 39.8,22.4 		"/>
		<polygon points="27.3,34.9 24.9,36.2 29.1,31.9 31.6,30.6 		"/>
		<polygon points="5.2,57 4.6,56.5 19,42.1 21.4,40.8 		"/>
	</g>
</g>
</svg>
