<?xml version="1.0" encoding="utf-8"?>
<!-- Generator: Adobe Illustrator 22.1.0, SVG Export Plug-In . SVG Version: 6.00 Build 0)  -->
<svg version="1.1" id="Layer_1" xmlns="http://www.w3.org/2000/svg" xmlns:xlink="http://www.w3.org/1999/xlink" x="0px" y="0px"
	 viewBox="0 0 306.7 216.3" style="enable-background:new 0 0 306.7 216.3;" xml:space="preserve">
<style type="text/css">
	.st0{fill:#F5F5F4;}
</style>
<g>
	<path class="st0" d="M206.9,50.1L206.9,50.1l12.9-22.4h25.8l0,0L258.5,50l0,0l-12.9,22.3h-25.8l0,0L206.9,50.1z M219.9,27.9
		L207.1,50l12.8,22.1h25.6l12.8-22l-12.8-22.2H219.9z"/>
</g>
<g>
	<path class="st0" d="M91.4,72.3L91.4,72.3L104.3,50h25.8l0,0L143,72.3l0,0l-12.9,22.3h-25.8l0,0L91.4,72.3z M104.4,50.2L91.6,72.3
		l12.8,22.1H130l12.8-22.1L130,50.2C130,50.2,104.4,50.2,104.4,50.2z"/>
</g>
<g>
	<path class="st0" d="M52.9,50.1L52.9,50.1l12.9-22.3h25.8l0,0l12.9,22.3l0,0L91.6,72.4H65.8l0,0L52.9,50.1z M65.9,27.9L53.1,50
		l12.8,22.1h25.6L104.3,50L91.5,27.9H65.9z"/>
</g>
<g>
	<path class="st0" d="M52.9,94.5L52.9,94.5l12.9-22.3h25.8l0,0l12.9,22.3l0,0l-12.9,22.3H65.8l0,0L52.9,94.5z M65.9,72.4L53.1,94.5
		l12.8,22.1h25.6l12.8-22.1L91.5,72.4H65.9z"/>
</g>
<g>
	<path class="st0" d="M52.9,139L52.9,139l12.9-22.3h25.8l0,0l12.9,22.3l0,0l-12.9,22.3H65.8l0,0L52.9,139z M65.9,116.8l-12.8,22.1
		L65.9,161h25.6l12.8-22l-12.8-22.1L65.9,116.8L65.9,116.8z"/>
</g>
<g>
	<path class="st0" d="M52.9,183.4L52.9,183.4l12.9-22.3h25.8l0,0l12.9,22.3l0,0l-12.9,22.3H65.8l0,0L52.9,183.4z M65.9,161.3
		l-12.8,22.1l12.8,22.1h25.6l12.8-22.1l-12.8-22.1H65.9z"/>
</g>
<g>
	<path class="st0" d="M14.4,72.3L14.4,72.3L27.3,50h25.8l0,0L66,72.3l0,0L53.1,94.6H27.3l0,0L14.4,72.3z M27.4,50.2L14.6,72.3
		l12.8,22.1H53l12.8-22.1L53,50.2C53,50.2,27.4,50.2,27.4,50.2z"/>
</g>
<g>
	<path class="st0" d="M14.4,116.7L14.4,116.7l12.9-22.3h25.8l0,0L66,116.7l0,0L53.1,139H27.3l0,0L14.4,116.7z M27.4,94.6l-12.8,22.1
		l12.8,22.1H53l12.8-22.1L53,94.6C53,94.6,27.4,94.6,27.4,94.6z"/>
</g>
<g>
	<path class="st0" d="M14.4,161.2L14.4,161.2l12.9-22.3h25.8l0,0L66,161.2l0,0l-12.9,22.3H27.3l0,0L14.4,161.2z M27.4,139.1
		l-12.8,22.1l12.8,22.1H53l12.8-22.1L53,139.1H27.4z"/>
</g>
<g>
	<polygon class="st0" points="0,27.9 14.5,27.9 27.2,50.1 14.5,72.2 0,72.2 0,72.4 14.6,72.4 27.4,50.1 27.5,50.1 14.6,27.8 
		14.6,27.7 0,27.7 	"/>
</g>
<g>
	<polygon class="st0" points="0,72.4 14.5,72.4 27.2,94.5 14.5,116.7 0,116.7 0,116.8 14.6,116.8 27.4,94.6 27.5,94.5 14.6,72.2 
		14.6,72.2 0,72.2 	"/>
</g>
<g>
	<polygon class="st0" points="0,116.8 14.5,116.8 27.2,139 14.5,161.1 0,161.1 0,161.3 14.6,161.3 27.4,139 27.5,139 14.6,116.7 
		14.6,116.7 0,116.7 	"/>
</g>
<g>
	<polygon class="st0" points="0,161.3 14.5,161.3 27.2,183.4 14.5,205.6 0,205.6 0,205.8 14.6,205.8 27.4,183.5 27.5,183.4 
		14.6,161.2 14.6,161.1 0,161.1 	"/>
</g>
<g>
	<polygon class="st0" points="207.7,0 206.6,0 198.7,13.5 165.9,13.5 158,0 156.9,0 165.3,14.6 199.3,14.6 	"/>
</g>
<g>
	<path class="st0" d="M148.3,43l17-29.5h34l17,29.5l-17,29.5h-34L148.3,43z M165.9,14.6L149.4,43l16.4,28.5h32.9L215.2,43
		l-16.5-28.4H165.9z"/>
</g>
<g>
	<path class="st0" d="M148.3,101l17-29.5h34l17,29.5l-17,29.5h-34L148.3,101z M165.9,72.5L149.5,101l16.4,28.5h32.8l16.5-28.5
		l-16.5-28.5H165.9z"/>
</g>
<g>
	<polygon class="st0" points="166.1,14 158,0 156.9,0 165,14 148.5,42.5 115.7,42.5 99.2,14 107.3,0 106.2,0 98.1,14 115.1,43.5 
		149.1,43.5 	"/>
</g>
<g>
	<path class="st0" d="M98.1,72l17-29.5h34l17,29.5l-17,29.5h-34L98.1,72z M115.7,43.5L99.2,72l16.4,28.5h32.9L165,72l-16.4-28.5
		H115.7z"/>
</g>
<g>
	<path class="st0" d="M98.1,129.9l17-29.5h34l17,29.5l-17,29.5h-34L98.1,129.9z M115.7,101.5L99.3,130l16.4,28.5h32.9L165,130
		l-16.4-28.5H115.7z"/>
</g>
<g>
	<polygon class="st0" points="107.3,0 106.2,0 98.4,13.5 65.5,13.5 57.7,0 56.5,0 64.9,14.6 98.9,14.6 	"/>
</g>
<g>
	<path class="st0" d="M47.9,43l17-29.5h34l17,29.5l-17,29.5h-34L47.9,43z M65.5,14.6L49,43l16.4,28.5h32.9L114.8,43L98.4,14.5H65.5
		V14.6z"/>
</g>
<g>
	<path class="st0" d="M47.9,101l17-29.5h34l17,29.5l-17,29.5h-34L47.9,101z M65.5,72.5L49.1,101l16.4,28.5h32.9l16.4-28.5L98.4,72.5
		H65.5z"/>
</g>
<g>
	<polygon class="st0" points="5.8,0 0,10 0,12 7,0 	"/>
	<polygon class="st0" points="65.8,14 57.7,0 56.5,0 64.6,14 48.2,42.5 15.3,42.5 0,16.1 0,18.1 14.7,43.5 48.8,43.5 	"/>
</g>
<g>
	<polygon class="st0" points="0,70 15.3,43.5 48.2,43.5 64.6,72 48.2,100.5 15.3,100.5 0,74 0,76 14.7,101.5 48.8,101.5 65.8,72 
		48.8,42.5 14.7,42.5 0,68 	"/>
</g>
<g>
	<polygon class="st0" points="0,127.9 15.3,101.5 48.2,101.5 64.6,129.9 48.2,158.4 15.3,158.4 0,132 0,134 14.7,159.4 48.8,159.4 
		65.8,129.9 48.8,100.5 14.7,100.5 0,125.9 	"/>
</g>
<g>
	<polygon class="st0" points="7,0 5.8,0 0,10 0,12 	"/>
</g>
<g>
	<polygon class="st0" points="0,18.1 14.4,43 0,68 0,70 15.6,43 0,16.1 	"/>
</g>
<g>
	<polygon class="st0" points="0,76 14.4,101 0,125.9 0,127.9 15.6,101 0,74 	"/>
</g>
<g>
	<polygon class="st0" points="0,134 14.4,158.9 0,183.9 0,185.9 15.6,158.9 0,132 	"/>
</g>
<path class="st0" d="M244,72.3c0,0.9,0.7,1.6,1.6,1.6s1.6-0.7,1.6-1.6s-0.7-1.6-1.6-1.6S244,71.4,244,72.3z"/>
<path class="st0" d="M209.1,50.1c0-1.1-0.9-2-2-2c-1.1,0-2,0.9-2,2s0.9,2,2,2C208.2,52.1,209.1,51.2,209.1,50.1z"/>
<circle class="st0" cx="219.9" cy="27.8" r="1.3"/>
<path class="st0" d="M244.6,27.8c0,0.5,0.4,1,1,1c0.5,0,1-0.4,1-1c0-0.5-0.4-1-1-1C245,26.8,244.6,27.3,244.6,27.8z"/>
<circle class="st0" cx="258.4" cy="50.1" r="3"/>
<path class="st0" d="M217.4,72.3c0,1.4,1.1,2.5,2.5,2.5s2.5-1.1,2.5-2.5s-1.1-2.5-2.5-2.5C218.5,69.8,217.4,70.9,217.4,72.3z"/>
<path class="st0" d="M132.4,50.1c0-1.3-1-2.3-2.3-2.3s-2.3,1-2.3,2.3s1,2.3,2.3,2.3S132.4,51.3,132.4,50.1z"/>
<circle class="st0" cx="142.9" cy="27.8" r="0.2"/>
<circle class="st0" cx="168.5" cy="27.8" r="1.9"/>
<path class="st0" d="M183,50.1c0-0.9-0.7-1.6-1.6-1.6c-0.9,0-1.6,0.7-1.6,1.6c0,0.9,0.7,1.6,1.6,1.6C182.3,51.7,183,50.9,183,50.1z"
	/>
<path class="st0" d="M130,93.1c-0.8,0-1.5,0.7-1.5,1.5s0.7,1.5,1.5,1.5s1.5-0.7,1.5-1.5C131.5,93.7,130.8,93.1,130,93.1z"/>
<path class="st0" d="M140,72.3c0,1.6,1.3,2.8,2.8,2.8s2.8-1.3,2.8-2.8c0-1.6-1.3-2.8-2.8-2.8S140,70.7,140,72.3z"/>
<path class="st0" d="M102,94.5c0,1.3,1.1,2.4,2.4,2.4c1.3,0,2.4-1.1,2.4-2.4s-1.1-2.4-2.4-2.4C103,92.1,102,93.2,102,94.5z"/>
<path class="st0" d="M104.4,140.1c0.6,0,1.1-0.5,1.1-1.1s-0.5-1.1-1.1-1.1s-1.1,0.5-1.1,1.1S103.7,140.1,104.4,140.1z"/>
<path class="st0" d="M89.3,161.2c0,1.2,1,2.2,2.2,2.2s2.2-1,2.2-2.2s-1-2.2-2.2-2.2S89.3,160,89.3,161.2z"/>
<path class="st0" d="M104.4,185.6c1.2,0,2.1-1,2.1-2.1s-1-2.1-2.1-2.1c-1.2,0-2.1,1-2.1,2.1S103.2,185.6,104.4,185.6z"/>
<path class="st0" d="M89,205.7c0,1.4,1.1,2.5,2.5,2.5s2.5-1.1,2.5-2.5s-1.1-2.5-2.5-2.5C90.2,203.2,89,204.3,89,205.7z"/>
<circle class="st0" cx="53" cy="50.1" r="1.4"/>
<circle class="st0" cx="65.9" cy="27.8" r="1.2"/>
<path class="st0" d="M91.5,27.3c-0.3,0-0.5,0.2-0.5,0.5s0.2,0.5,0.5,0.5s0.5-0.2,0.5-0.5C92.1,27.5,91.8,27.3,91.5,27.3z"/>
<circle class="st0" cx="104.4" cy="50.1" r="2.3"/>
<path class="st0" d="M65.9,70.4c-1,0-1.9,0.8-1.9,1.9c0,1,0.8,1.9,1.9,1.9s1.9-0.8,1.9-1.9C67.7,71.3,66.9,70.4,65.9,70.4z"/>
<path class="st0" d="M91.5,73.6c0.7,0,1.3-0.6,1.3-1.3c0-0.7-0.6-1.3-1.3-1.3s-1.3,0.6-1.3,1.3C90.3,73,90.8,73.6,91.5,73.6z"/>
<path class="st0" d="M92.6,116.7c0-0.6-0.5-1-1-1c-0.6,0-1,0.5-1,1c0,0.6,0.5,1,1,1C92.1,117.8,92.6,117.3,92.6,116.7z"/>
<path class="st0" d="M53,137.2c-1,0-1.8,0.8-1.8,1.8s0.8,1.8,1.8,1.8s1.8-0.8,1.8-1.8S54,137.2,53,137.2z"/>
<path class="st0" d="M68.4,116.7c0-1.4-1.1-2.5-2.5-2.5s-2.5,1.1-2.5,2.5s1.1,2.5,2.5,2.5S68.4,118.1,68.4,116.7z"/>
<path class="st0" d="M63.1,205.7c0,1.5,1.2,2.7,2.7,2.7s2.7-1.2,2.7-2.7s-1.2-2.7-2.7-2.7C64.4,202.9,63.1,204.2,63.1,205.7z"/>
<path class="st0" d="M53,92.8c-0.9,0-1.7,0.8-1.7,1.7c0,0.9,0.8,1.7,1.7,1.7s1.7-0.8,1.7-1.7C54.7,93.6,54,92.8,53,92.8z"/>
<path class="st0" d="M24.6,94.5c0,1.5,1.2,2.8,2.8,2.8c1.5,0,2.8-1.2,2.8-2.8c0-1.5-1.2-2.8-2.8-2.8C25.8,91.8,24.6,93,24.6,94.5z"
	/>
<circle class="st0" cx="65.9" cy="161.2" r="2.9"/>
<circle class="st0" cx="53" cy="183.4" r="1.1"/>
<path class="st0" d="M12.4,205.7c0,1.2,1,2.1,2.1,2.1c1.2,0,2.1-1,2.1-2.1c0-1.2-1-2.1-2.1-2.1C13.4,203.5,12.4,204.5,12.4,205.7z"
	/>
<circle class="st0" cx="27.4" cy="183.4" r="3.2"/>
<path class="st0" d="M14.5,28.2c0.2,0,0.4-0.2,0.4-0.4s-0.2-0.4-0.4-0.4c-0.2,0-0.4,0.2-0.4,0.4S14.3,28.2,14.5,28.2z"/>
<path class="st0" d="M28.7,50.1c0-0.8-0.6-1.4-1.4-1.4s-1.4,0.6-1.4,1.4c0,0.8,0.6,1.4,1.4,1.4C28.1,51.4,28.7,50.8,28.7,50.1z"/>
<path class="st0" d="M18.1,72.3c0-2-1.6-3.5-3.5-3.5c-2,0-3.5,1.6-3.5,3.5c0,2,1.6,3.5,3.5,3.5S18.1,74.2,18.1,72.3z"/>
<path class="st0" d="M16.7,116.7c0-1.2-1-2.1-2.1-2.1c-1.2,0-2.1,1-2.1,2.1c0,1.2,1,2.1,2.1,2.1C15.7,118.9,16.7,117.9,16.7,116.7z"
	/>
<path class="st0" d="M24.9,139c0,1.3,1.1,2.4,2.4,2.4s2.4-1.1,2.4-2.4c0-1.3-1.1-2.4-2.4-2.4C26,136.5,24.9,137.6,24.9,139z"/>
<path class="st0" d="M14.5,164c1.5,0,2.8-1.2,2.8-2.8s-1.2-2.8-2.8-2.8c-1.5,0-2.8,1.2-2.8,2.8S13,164,14.5,164z"/>
<g>
	<polygon class="st0" points="217.2,3.9 217.2,3.8 215,0 214.7,0 216.9,3.8 201.3,30.8 170.1,30.8 154.5,3.8 156.7,0 156.5,0 
		154.3,3.7 154.3,3.8 170,31 170,31.1 201.5,31.1 	"/>
</g>
<g>
	<polygon class="st0" points="156.7,0 156.5,0 154.3,3.7 123.1,3.7 121,0 120.7,0 123,3.9 123,3.9 154.5,3.9 	"/>
</g>
<g>
	<path class="st0" d="M107.3,30.9L107.3,30.9L123,3.7h31.5v0.1L170.2,31v0.1l-15.7,27.2H123v-0.1L107.3,30.9z M123.1,3.9l-15.6,27
		l15.6,27h31.2l15.6-27l-15.6-27C154.3,3.9,123.1,3.9,123.1,3.9z"/>
</g>
<g>
	<path class="st0" d="M107.3,85.2L107.3,85.2L123,58h31.5v0.1l15.7,27.2v0.1l-15.7,27.2H123v-0.1L107.3,85.2z M123.1,58.2l-15.6,27
		l15.6,27h31.2l15.6-27l-15.6-27C154.3,58.2,123.1,58.2,123.1,58.2z"/>
</g>
<g>
	<path class="st0" d="M107.3,139.5L107.3,139.5l15.7-27.3h31.5v0.1l15.7,27.2v0.1l-15.7,27.2H123v-0.1L107.3,139.5z M123.1,112.5
		l-15.6,27l15.6,27h31.2l15.6-27l-15.6-27H123.1z"/>
</g>
<g>
	<polygon class="st0" points="123.2,3.9 123.2,3.8 121,0 120.7,0 122.9,3.8 107.3,30.8 76.1,30.8 60.5,3.8 62.7,0 62.5,0 60.3,3.7 
		60.3,3.8 76,31 76,31.1 107.5,31.1 	"/>
</g>
<g>
	<path class="st0" d="M60.3,58.1L60.3,58.1L76,30.8h31.5v0.1l15.7,27.2v0.1l-15.7,27.2H76v-0.1L60.3,58.1z M76.1,31.1l-15.6,27
		l15.6,27h31.2l15.6-27l-15.6-27C107.3,31.1,76.1,31.1,76.1,31.1z"/>
</g>
<g>
	<path class="st0" d="M60.3,112.3L60.3,112.3L76,85h31.5v0.1l15.7,27.2v0.1l-15.7,27.2H76v-0.1L60.3,112.3z M76.1,85.3l-15.6,27
		l15.6,27h31.2l15.6-27l-15.6-27H76.1z"/>
</g>
<g>
	<polygon class="st0" points="62.7,0 62.5,0 60.3,3.7 29.1,3.7 27,0 26.7,0 29,3.9 29,3.9 60.5,3.9 	"/>
</g>
<g>
	<path class="st0" d="M13.3,30.9L13.3,30.9L29,3.7h31.5v0.1L76.2,31v0.1L60.5,58.3H29v-0.1L13.3,30.9z M29.1,3.9l-15.6,27l15.6,27
		h31.2l15.6-27l-15.6-27C60.3,3.9,29.1,3.9,29.1,3.9z"/>
</g>
<g>
	<path class="st0" d="M13.3,85.2L13.3,85.2L29,58h31.5v0.1l15.7,27.2v0.1l-15.7,27.2H29v-0.1L13.3,85.2z M29.1,58.2l-15.6,27
		l15.6,27h31.2l15.6-27l-15.6-27C60.3,58.2,29.1,58.2,29.1,58.2z"/>
</g>
<g>
	<path class="st0" d="M13.3,139.5L13.3,139.5L29,112.2h31.5v0.1l15.7,27.2v0.1l-15.7,27.2H29v-0.1L13.3,139.5z M29.1,112.5l-15.6,27
		l15.6,27h31.2l15.6-27l-15.6-27H29.1z"/>
</g>
<g>
	<polygon class="st0" points="29.2,3.9 29.2,3.8 27,0 26.7,0 28.9,3.8 13.3,30.8 4.3,30.8 4.3,31.1 13.5,31.1 	"/>
</g>
<g>
	<polygon class="st0" points="4.3,31.1 13.3,31.1 28.9,58.1 13.3,85.1 4.3,85.1 4.3,85.3 13.5,85.3 29.2,58.1 29.2,58.1 13.5,30.9 
		13.5,30.8 4.3,30.8 	"/>
</g>
<g>
	<polygon class="st0" points="4.3,85.3 13.3,85.3 28.9,112.3 13.3,139.4 4.3,139.4 4.3,139.6 13.5,139.6 29.2,112.4 29.2,112.3 
		13.5,85.2 13.5,85.1 4.3,85.1 	"/>
</g>
<g>
	<polygon class="st0" points="4.3,139.6 13.3,139.6 28.9,166.6 13.3,193.6 4.3,193.6 4.3,193.9 13.5,193.9 29.2,166.7 29.2,166.6 
		13.5,139.4 13.5,139.4 4.3,139.4 	"/>
</g>
<g>
	<polygon class="st0" points="288.3,0 286.9,0 285.2,2.8 245.1,2.8 243.5,0 242,0 244.4,4.1 285.9,4.1 	"/>
</g>
<g>
	<path class="st0" d="M223.6,38.8l20.8-36h41.5l20.8,36l-20.8,36h-41.5L223.6,38.8z M245.1,4.1L225,38.8l20.1,34.7h40.1l20.1-34.7
		L285.2,4.1H245.1z"/>
</g>
<g>
	<polygon class="st0" points="245.4,3.5 243.5,0 242,0 244,3.5 224,38.2 183.8,38.2 163.8,3.5 165.8,0 164.4,0 162.4,3.5 
		183.1,39.4 224.7,39.4 	"/>
</g>
<g>
	<path class="st0" d="M162.4,74.2l20.8-36h41.5l20.8,36l-20.8,36h-41.5L162.4,74.2z M183.8,39.4l-20.1,34.7l20.1,34.7H224l20-34.6
		l-20-34.8H183.8z"/>
</g>
<g>
	<polygon class="st0" points="165.8,0 164.4,0 162.7,2.8 122.6,2.8 121,0 119.5,0 121.9,4.1 163.4,4.1 	"/>
</g>
<g>
	<path class="st0" d="M101.1,38.8l20.8-36h41.5l20.8,36l-20.8,36h-41.5L101.1,38.8z M122.6,4.1l-20.1,34.7l20.1,34.7h40.1l20.1-34.7
		L162.7,4.1H122.6z"/>
</g>
<g>
	<polygon class="st0" points="122.9,3.5 121,0 119.5,0 121.5,3.5 101.5,38.2 61.3,38.2 41.3,3.5 43.3,0 41.9,0 39.9,3.5 60.6,39.4 
		102.2,39.4 	"/>
</g>
<g>
	<path class="st0" d="M39.9,74.2l20.8-36h41.5l20.8,36l-20.8,36H60.7L39.9,74.2z M61.3,39.4L41.2,74.1l20.1,34.7h40.1l20.1-34.7
		l-20.1-34.7C101.4,39.4,61.3,39.4,61.3,39.4z"/>
</g>
<g>
	<polygon class="st0" points="43.3,0 41.9,0 40.2,2.8 4.3,2.8 4.3,4.1 40.9,4.1 	"/>
</g>
<g>
	<polygon class="st0" points="4.3,4.1 40.2,4.1 60.3,38.8 40.2,73.6 4.3,73.6 4.3,74.8 40.9,74.8 61.7,38.8 40.9,2.8 4.3,2.8 	"/>
</g>
<g>
	<polygon class="st0" points="4.3,74.8 40.2,74.8 60.3,109.5 40.2,144.3 4.3,144.3 4.3,145.5 40.9,145.5 61.7,109.5 40.9,73.6 
		4.3,73.6 	"/>
</g>
<g>
	<polygon class="st0" points="4.3,145.5 40.2,145.5 60.3,180.3 40.2,215 4.3,215 4.3,216.3 40.9,216.3 61.7,180.3 40.9,144.3 
		4.3,144.3 	"/>
</g>
</svg>
