<?xml version="1.0" encoding="utf-8"?>
<!-- Generator: Adobe Illustrator 22.1.0, SVG Export Plug-In . SVG Version: 6.00 Build 0)  -->
<svg version="1.1" id="_x2018_ëîé_x5F_1" xmlns="http://www.w3.org/2000/svg" xmlns:xlink="http://www.w3.org/1999/xlink"
	 x="0px" y="0px" viewBox="0 0 33.8 33.8" style="enable-background:new 0 0 33.8 33.8;" xml:space="preserve" fill="#f5f5f4">
<g>
	<path d="M1.4,0H0v1.4C0.8,1.4,1.4,0.8,1.4,0z"/>
	<path d="M6.1,1.4c0.8,0,1.4-0.6,1.4-1.4H4.8C4.8,0.8,5.4,1.4,6.1,1.4z"/>
	<path d="M12.3,1.4c0.8,0,1.4-0.6,1.4-1.4h-2.8C10.9,0.8,11.5,1.4,12.3,1.4z"/>
	<path d="M18.4,1.4c0.8,0,1.4-0.6,1.4-1.4H17C17,0.8,17.7,1.4,18.4,1.4z"/>
	<path d="M24.6,1.4C25.4,1.4,26,0.8,26,0h-2.8C23.2,0.8,23.8,1.4,24.6,1.4z"/>
	<path d="M30.7,1.4c0.8,0,1.4-0.6,1.4-1.4h-2.8C29.3,0.8,30,1.4,30.7,1.4z"/>
	<path d="M3.1,4.2c-0.8,0-1.4,0.6-1.4,1.4C1.7,6.3,2.3,7,3.1,7c0.8,0,1.4-0.6,1.4-1.4C4.5,4.8,3.8,4.2,3.1,4.2z"/>
	<path d="M9.2,4.2c-0.8,0-1.4,0.6-1.4,1.4C7.8,6.3,8.5,7,9.2,7c0.8,0,1.4-0.6,1.4-1.4C10.6,4.8,10,4.2,9.2,4.2z"/>
	<path d="M15.4,4.2c-0.8,0-1.4,0.6-1.4,1.4C14,6.3,14.6,7,15.4,7c0.8,0,1.4-0.6,1.4-1.4C16.8,4.8,16.1,4.2,15.4,4.2z"/>
	<path d="M21.5,4.2c-0.8,0-1.4,0.6-1.4,1.4c0,0.8,0.6,1.4,1.4,1.4c0.8,0,1.4-0.6,1.4-1.4C22.9,4.8,22.3,4.2,21.5,4.2z"/>
	<path d="M27.7,4.2c-0.8,0-1.4,0.6-1.4,1.4c0,0.8,0.6,1.4,1.4,1.4C28.4,7,29,6.3,29,5.6C29,4.8,28.4,4.2,27.7,4.2z"/>
	<path d="M32.4,5.6c0,0.8,0.6,1.4,1.4,1.4V4.2C33,4.2,32.4,4.8,32.4,5.6z"/>
	<path d="M1.4,11.1c0-0.8-0.6-1.4-1.4-1.4v2.8C0.8,12.5,1.4,11.9,1.4,11.1z"/>
	<path d="M6.1,9.7c-0.8,0-1.4,0.6-1.4,1.4c0,0.8,0.6,1.4,1.4,1.4c0.8,0,1.4-0.6,1.4-1.4C7.5,10.4,6.9,9.7,6.1,9.7z"/>
	<path d="M12.3,9.7c-0.8,0-1.4,0.6-1.4,1.4c0,0.8,0.6,1.4,1.4,1.4c0.8,0,1.4-0.6,1.4-1.4C13.7,10.4,13.1,9.7,12.3,9.7z"/>
	<path d="M18.4,9.7c-0.8,0-1.4,0.6-1.4,1.4c0,0.8,0.6,1.4,1.4,1.4c0.8,0,1.4-0.6,1.4-1.4C19.8,10.4,19.2,9.7,18.4,9.7z"/>
	<path d="M24.6,9.7c-0.8,0-1.4,0.6-1.4,1.4c0,0.8,0.6,1.4,1.4,1.4c0.8,0,1.4-0.6,1.4-1.4C26,10.4,25.4,9.7,24.6,9.7z"/>
	<path d="M30.7,9.7c-0.8,0-1.4,0.6-1.4,1.4c0,0.8,0.6,1.4,1.4,1.4c0.8,0,1.4-0.6,1.4-1.4C32.1,10.4,31.5,9.7,30.7,9.7z"/>
	<path d="M3.1,15.3c-0.8,0-1.4,0.6-1.4,1.4c0,0.8,0.6,1.4,1.4,1.4c0.8,0,1.4-0.6,1.4-1.4C4.5,15.9,3.8,15.3,3.1,15.3z"/>
	<path d="M9.2,15.3c-0.8,0-1.4,0.6-1.4,1.4c0,0.8,0.6,1.4,1.4,1.4c0.8,0,1.4-0.6,1.4-1.4C10.6,15.9,10,15.3,9.2,15.3z"/>
	<path d="M15.4,15.3c-0.8,0-1.4,0.6-1.4,1.4c0,0.8,0.6,1.4,1.4,1.4c0.8,0,1.4-0.6,1.4-1.4C16.8,15.9,16.1,15.3,15.4,15.3z"/>
	<path d="M21.5,15.3c-0.8,0-1.4,0.6-1.4,1.4c0,0.8,0.6,1.4,1.4,1.4c0.8,0,1.4-0.6,1.4-1.4C22.9,15.9,22.3,15.3,21.5,15.3z"/>
	<path d="M27.7,15.3c-0.8,0-1.4,0.6-1.4,1.4c0,0.8,0.6,1.4,1.4,1.4c0.8,0,1.4-0.6,1.4-1.4C29,15.9,28.4,15.3,27.7,15.3z"/>
	<path d="M32.4,16.7c0,0.8,0.6,1.4,1.4,1.4v-2.8C33,15.3,32.4,15.9,32.4,16.7z"/>
	<path d="M1.4,22.3c0-0.8-0.6-1.4-1.4-1.4v2.8C0.8,23.6,1.4,23,1.4,22.3z"/>
	<path d="M6.1,20.9c-0.8,0-1.4,0.6-1.4,1.4c0,0.8,0.6,1.4,1.4,1.4c0.8,0,1.4-0.6,1.4-1.4C7.5,21.5,6.9,20.9,6.1,20.9z"/>
	<path d="M12.3,20.9c-0.8,0-1.4,0.6-1.4,1.4c0,0.8,0.6,1.4,1.4,1.4c0.8,0,1.4-0.6,1.4-1.4C13.7,21.5,13.1,20.9,12.3,20.9z"/>
	<path d="M18.4,20.9c-0.8,0-1.4,0.6-1.4,1.4c0,0.8,0.6,1.4,1.4,1.4c0.8,0,1.4-0.6,1.4-1.4C19.8,21.5,19.2,20.9,18.4,20.9z"/>
	<path d="M24.6,20.9c-0.8,0-1.4,0.6-1.4,1.4c0,0.8,0.6,1.4,1.4,1.4c0.8,0,1.4-0.6,1.4-1.4C26,21.5,25.4,20.9,24.6,20.9z"/>
	<path d="M30.7,20.9c-0.8,0-1.4,0.6-1.4,1.4c0,0.8,0.6,1.4,1.4,1.4c0.8,0,1.4-0.6,1.4-1.4C32.1,21.5,31.5,20.9,30.7,20.9z"/>
	<path d="M3.1,26.4c-0.8,0-1.4,0.6-1.4,1.4c0,0.8,0.6,1.4,1.4,1.4c0.8,0,1.4-0.6,1.4-1.4C4.5,27.1,3.8,26.4,3.1,26.4z"/>
	<path d="M9.2,26.4c-0.8,0-1.4,0.6-1.4,1.4c0,0.8,0.6,1.4,1.4,1.4c0.8,0,1.4-0.6,1.4-1.4C10.6,27.1,10,26.4,9.2,26.4z"/>
	<path d="M15.4,26.4c-0.8,0-1.4,0.6-1.4,1.4c0,0.8,0.6,1.4,1.4,1.4c0.8,0,1.4-0.6,1.4-1.4C16.8,27.1,16.1,26.4,15.4,26.4z"/>
	<path d="M21.5,26.4c-0.8,0-1.4,0.6-1.4,1.4c0,0.8,0.6,1.4,1.4,1.4c0.8,0,1.4-0.6,1.4-1.4C22.9,27.1,22.3,26.4,21.5,26.4z"/>
	<path d="M27.7,26.4c-0.8,0-1.4,0.6-1.4,1.4c0,0.8,0.6,1.4,1.4,1.4c0.8,0,1.4-0.6,1.4-1.4C29,27.1,28.4,26.4,27.7,26.4z"/>
	<path d="M32.4,27.8c0,0.8,0.6,1.4,1.4,1.4v-2.8C33,26.4,32.4,27.1,32.4,27.8z"/>
	<path d="M0,32v1.8h1.3c0-0.1,0.1-0.3,0.1-0.4C1.4,32.6,0.8,32,0,32z"/>
	<path d="M6.1,32c-0.8,0-1.4,0.6-1.4,1.4c0,0.1,0,0.3,0.1,0.4h2.6c0-0.1,0.1-0.3,0.1-0.4C7.5,32.6,6.9,32,6.1,32z"/>
	<path d="M12.3,32c-0.8,0-1.4,0.6-1.4,1.4c0,0.1,0,0.3,0.1,0.4h2.6c0-0.1,0.1-0.3,0.1-0.4C13.7,32.6,13.1,32,12.3,32z"/>
	<path d="M18.4,32c-0.8,0-1.4,0.6-1.4,1.4c0,0.1,0,0.3,0.1,0.4h2.6c0-0.1,0.1-0.3,0.1-0.4C19.8,32.6,19.2,32,18.4,32z"/>
	<path d="M24.6,32c-0.8,0-1.4,0.6-1.4,1.4c0,0.1,0,0.3,0.1,0.4h2.6c0-0.1,0.1-0.3,0.1-0.4C26,32.6,25.4,32,24.6,32z"/>
	<path d="M30.7,32c-0.8,0-1.4,0.6-1.4,1.4c0,0.1,0,0.3,0.1,0.4h2.6c0-0.1,0.1-0.3,0.1-0.4C32.1,32.6,31.5,32,30.7,32z"/>
</g>
</svg>
