<?xml version="1.0" encoding="utf-8"?>
<!-- Generator: Adobe Illustrator 22.1.0, SVG Export Plug-In . SVG Version: 6.00 Build 0)  -->
<svg version="1.1" id="Layer_1" xmlns="http://www.w3.org/2000/svg" xmlns:xlink="http://www.w3.org/1999/xlink" x="0px" y="0px"
	 viewBox="0 0 338.3 212.7" style="enable-background:new 0 0 338.3 212.7;" xml:space="preserve">
<style type="text/css">
	.st0{fill:#f5f5f4;}
</style>
<g>
	<path class="st0" d="M245.4,29.4L245.4,29.4L258.3,7h25.8l0,0L297,29.4l0,0l-12.9,22.3h-25.8l0,0L245.4,29.4z M258.4,7.2
		l-12.8,22.1l12.8,22.1H284l12.8-22.1L284,7.2H258.4z"/>
</g>
<g>
	<path class="st0" d="M245.4,73.8L245.4,73.8l12.9-22.3h25.8l0,0L297,73.8l0,0l-12.9,22.3h-25.8l0,0L245.4,73.8z M258.4,51.7
		l-12.8,22.1L258.4,96H284l12.8-22.1L284,51.7H258.4z"/>
</g>
<g>
	<path class="st0" d="M245.4,118.3L245.4,118.3L258.3,96h25.8l0,0l12.9,22.3l0,0l-12.9,22.3h-25.8l0,0L245.4,118.3z M258.4,96.2
		l-12.8,22.1l12.8,22.1H284l12.8-22.1L284,96.2H258.4z"/>
</g>
<g>
	<path class="st0" d="M245.4,162.8L245.4,162.8l12.9-22.3h25.8l0,0l12.9,22.3l0,0l-12.9,22.3h-25.8l0,0L245.4,162.8z M258.4,140.6
		l-12.8,22.1l12.8,22.1H284l12.8-22.1L284,140.6H258.4z"/>
</g>
<g>
	<polygon class="st0" points="248.8,212.7 245.6,207.2 258.4,185.1 284,185.1 296.8,207.2 293.6,212.7 293.8,212.7 297,207.3
		297,207.2 284.1,184.9 284.1,184.9 258.3,184.9 245.5,207.2 245.4,207.2 248.6,212.7 	"/>
</g>
<g>
	<path class="st0" d="M206.9,51.6L206.9,51.6l12.9-22.3h25.8l0,0l12.9,22.3l0,0l-12.9,22.3h-25.8l0,0L206.9,51.6z M219.9,29.5
		l-12.8,22.1l12.8,22.1h25.6l12.8-22.1l-12.8-22.1H219.9z"/>
</g>
<g>
	<path class="st0" d="M206.9,96.1L206.9,96.1l12.9-22.3h25.8l0,0l12.9,22.3l0,0l-12.9,22.3h-25.8l0,0L206.9,96.1z M219.9,73.9
		l-12.8,22.1l12.8,22.1h25.6l12.8-22.1l-12.8-22.1H219.9z"/>
</g>
<g>
	<path class="st0" d="M206.9,140.5L206.9,140.5l12.9-22.3h25.8l0,0l12.9,22.3l0,0l-12.9,22.3h-25.8l0,0L206.9,140.5z M219.9,118.4
		l-12.8,22.1l12.8,22.1h25.6l12.8-22.1l-12.8-22.1H219.9z"/>
</g>
<g>
	<path class="st0" d="M206.9,185L206.9,185l12.9-22.3h25.8l0,0l12.9,22.3l0,0l-12.9,22.3h-25.8l0,0L206.9,185z M219.9,162.9
		L207.1,185l12.8,22.1h25.6l12.8-22.1l-12.8-22.1H219.9z"/>
</g>
<g>
	<polygon class="st0" points="216.8,212.7 219.9,207.3 245.5,207.3 248.6,212.7 248.8,212.7 245.6,207.2 245.6,207.1 219.8,207.1
		216.6,212.7 	"/>
</g>
<g>
	<path class="st0" d="M168.4,118.3L168.4,118.3L181.3,96h25.8l0,0l12.9,22.3l0,0l-12.9,22.3h-25.8l0,0L168.4,118.3z M181.4,96.2
		l-12.8,22.1l12.8,22.1H207l12.8-22.1L207,96.2H181.4z"/>
</g>
<g>
	<path class="st0" d="M168.4,162.8L168.4,162.8l12.9-22.3h25.8l0,0l12.9,22.3l0,0l-12.9,22.3h-25.8l0,0L168.4,162.8z M181.4,140.6
		l-12.8,22.1l12.8,22.1H207l12.8-22.1L207,140.6H181.4z"/>
</g>
<g>
	<polygon class="st0" points="171.8,212.7 168.6,207.2 181.4,185.1 207,185.1 219.8,207.2 216.6,212.7 216.8,212.7 219.9,207.3
		220,207.2 207.1,184.9 207.1,184.9 181.3,184.9 168.4,207.2 168.4,207.2 171.6,212.7 	"/>
</g>
<g>
	<path class="st0" d="M129.9,140.5L129.9,140.5l12.9-22.3h25.8l0,0l12.9,22.3l0,0l-12.9,22.3h-25.8l0,0L129.9,140.5z M142.9,118.4
		l-12.8,22.1l12.8,22.1h25.6l12.8-22.1l-12.8-22.1H142.9z"/>
</g>
<g>
	<path class="st0" d="M129.9,185L129.9,185l12.9-22.3h25.8l0,0l12.9,22.3l0,0l-12.9,22.3h-25.8l0,0L129.9,185z M142.9,162.9
		L130.1,185l12.8,22.1h25.6l12.8-22.1l-12.8-22.1H142.9z"/>
</g>
<g>
	<polygon class="st0" points="139.8,212.7 142.9,207.3 168.5,207.3 171.6,212.7 171.8,212.7 168.6,207.2 168.6,207.1 142.8,207.1
		139.6,212.7 	"/>
</g>
<g>
	<path class="st0" d="M91.4,162.8L91.4,162.8l12.9-22.3h25.8l0,0l12.9,22.3l0,0l-12.9,22.3h-25.8l0,0L91.4,162.8z M104.4,140.6
		l-12.8,22.1l12.8,22.1H130l12.8-22.1L130,140.6H104.4z"/>
</g>
<g>
	<polygon class="st0" points="94.8,212.7 91.6,207.2 104.4,185.1 130,185.1 142.7,207.2 139.6,212.7 139.8,212.7 142.9,207.3
		143,207.2 130.1,184.9 130.1,184.9 104.3,184.9 91.4,207.2 91.4,207.2 94.6,212.7 	"/>
</g>
<g>
	<polygon class="st0" points="62.8,212.7 65.9,207.3 91.5,207.3 94.6,212.7 94.8,212.7 91.6,207.2 91.6,207.1 65.8,207.1
		62.6,212.7 	"/>
</g>
<g>
	<polygon class="st0" points="0,118.4 14.4,118.4 27.2,140.5 14.4,162.7 0,162.7 0,162.9 14.6,162.9 27.4,140.6 27.4,140.5
		14.6,118.3 14.6,118.2 0,118.2 	"/>
</g>
<g>
	<polygon class="st0" points="0,162.9 14.4,162.9 27.2,185 14.4,207.1 0,207.1 0,207.3 14.6,207.3 27.4,185 27.4,185 14.6,162.7
		14.6,162.7 0,162.7 	"/>
</g>
<g>
	<polygon class="st0" points="338.3,111.5 316.4,111.5 299.9,83 316.4,54.6 338.3,54.6 338.3,53.5 315.8,53.5 298.8,83 315.8,112.5
		338.3,112.5 	"/>
</g>
<g>
	<polygon class="st0" points="338.3,169.4 316.4,169.4 299.9,141 316.4,112.5 338.3,112.5 338.3,111.5 315.8,111.5 298.8,141
		315.8,170.4 338.3,170.4 	"/>
</g>
<g>
	<polygon class="st0" points="316.4,170.4 338.3,170.4 338.3,169.4 315.8,169.4 298.8,198.9 306.7,212.7 307.9,212.7 299.9,198.9
		"/>
</g>
<g>
	<path class="st0" d="M248.6,112l17-29.5h34l17,29.5l-17,29.5h-34L248.6,112z M266.2,83.5L249.8,112l16.4,28.5h32.9l16.4-28.5
		l-16.4-28.5H266.2z"/>
</g>
<g>
	<path class="st0" d="M248.6,169.9l17-29.5h34l17,29.5l-17,29.5h-34L248.6,169.9z M266.2,141.5l-16.4,28.5l16.4,28.5h32.9l16.4-28.5
		l-16.4-28.5H266.2z"/>
</g>
<g>
	<polygon class="st0" points="258.5,212.7 266.2,199.4 299.1,199.4 306.7,212.7 307.9,212.7 299.7,198.4 265.6,198.4 257.4,212.7
		"/>
</g>
<g>
	<path class="st0" d="M198.4,141l17-29.5h34l17,29.5l-17,29.5h-34L198.4,141z M216,112.5L199.6,141l16.4,28.5h32.9l16.4-28.5
		l-16.4-28.5H216z"/>
</g>
<g>
	<polygon class="st0" points="207.5,212.7 199.6,198.9 216,170.4 248.9,170.4 265.3,198.9 257.4,212.7 258.5,212.7 266.5,198.9
		249.5,169.4 215.4,169.4 198.4,198.9 206.4,212.7 	"/>
</g>
<g>
	<polygon class="st0" points="158.2,212.7 165.8,199.4 198.7,199.4 206.4,212.7 207.5,212.7 199.3,198.4 165.2,198.4 157,212.7 	"/>
</g>
<g>
	<path class="st0" d="M47.9,169.9l17-29.5h34l17,29.5l-17,29.5h-34L47.9,169.9z M65.5,141.5L49,169.9l16.4,28.5h32.9l16.4-28.5
		l-16.4-28.5H65.5z"/>
</g>
<g>
	<polygon class="st0" points="0,139 15.3,112.5 48.2,112.5 64.6,141 48.2,169.4 15.3,169.4 0,143 0,145 14.7,170.4 48.7,170.4
		65.8,141 48.7,111.5 14.7,111.5 0,136.9 	"/>
</g>
<g>
	<polygon class="st0" points="64.6,198.9 56.6,212.7 57.8,212.7 65.8,198.9 48.7,169.4 14.7,169.4 0,194.9 0,196.9 15.3,170.4
		48.2,170.4 	"/>
	<polygon class="st0" points="6.8,212.7 0,200.9 0,202.9 5.6,212.7 	"/>
</g>
<g>
	<polygon class="st0" points="0,87 14.4,112 0,136.9 0,139 15.6,112 0,85 	"/>
</g>
<g>
	<polygon class="st0" points="0,145 14.4,169.9 0,194.9 0,196.9 15.6,169.9 0,143 	"/>
</g>
<g>
	<polygon class="st0" points="6.8,212.7 0,200.9 0,202.9 5.6,212.7 	"/>
</g>
<path class="st0" d="M287.1,7.1c0-1.7-1.4-3.1-3.1-3.1S281,5.4,281,7.1s1.4,3.1,3.1,3.1S287.1,8.8,287.1,7.1z"/>
<path class="st0" d="M256.5,7.1c0,1.1,0.9,1.9,1.9,1.9c1.1,0,1.9-0.9,1.9-1.9c0-1.1-0.9-1.9-1.9-1.9C257.3,5.2,256.5,6.1,256.5,7.1z
	"/>
<path class="st0" d="M243.8,29.4c0,1,0.8,1.7,1.7,1.7c1,0,1.7-0.8,1.7-1.7c0-1-0.8-1.7-1.7-1.7C244.6,27.6,243.8,28.4,243.8,29.4z"
	/>
<circle class="st0" cx="296.9" cy="29.4" r="0.9"/>
<path class="st0" d="M282.3,51.6c0,1,0.8,1.8,1.8,1.8c1,0,1.8-0.8,1.8-1.8c0-1-0.8-1.8-1.8-1.8C283.1,49.8,282.3,50.6,282.3,51.6z"
	/>
<path class="st0" d="M261.5,51.6c0-1.7-1.4-3.1-3.1-3.1c-1.7,0-3.1,1.4-3.1,3.1s1.4,3.1,3.1,3.1C260.1,54.7,261.5,53.3,261.5,51.6z"
	/>
<path class="st0" d="M295.6,73.8c0,0.7,0.6,1.3,1.3,1.3c0.7,0,1.3-0.6,1.3-1.3c0-0.7-0.6-1.3-1.3-1.3
	C296.2,72.5,295.6,73.1,295.6,73.8z"/>
<path class="st0" d="M281.6,96.1c0,1.3,1.1,2.4,2.4,2.4c1.3,0,2.4-1.1,2.4-2.4c0-1.3-1.1-2.4-2.4-2.4
	C282.7,93.7,281.6,94.7,281.6,96.1z"/>
<circle class="st0" cx="258.4" cy="96.1" r="2.9"/>
<path class="st0" d="M295.4,118.3c0,0.8,0.7,1.5,1.5,1.5c0.8,0,1.5-0.7,1.5-1.5c0-0.8-0.7-1.5-1.5-1.5
	C296,116.8,295.4,117.5,295.4,118.3z"/>
<path class="st0" d="M282.3,140.5c0,1,0.8,1.7,1.7,1.7c1,0,1.7-0.8,1.7-1.7c0-1-0.8-1.7-1.7-1.7
	C283.1,138.8,282.3,139.6,282.3,140.5z"/>
<circle class="st0" cx="258.4" cy="140.5" r="1.2"/>
<path class="st0" d="M295.7,162.8c0,0.6,0.5,1.2,1.2,1.2c0.6,0,1.2-0.5,1.2-1.2c0-0.6-0.5-1.2-1.2-1.2
	C296.2,161.6,295.7,162.1,295.7,162.8z"/>
<path class="st0" d="M282.2,185c0,1,0.8,1.8,1.8,1.8c1,0,1.8-0.8,1.8-1.8c0-1-0.8-1.8-1.8-1.8C283,183.2,282.2,184,282.2,185z"/>
<circle class="st0" cx="258.4" cy="185" r="2.1"/>
<path class="st0" d="M295.1,207.2c0,1,0.8,1.7,1.7,1.7c1,0,1.7-0.8,1.7-1.7c0-1-0.8-1.7-1.7-1.7
	C295.9,205.5,295.1,206.3,295.1,207.2z"/>
<path class="st0" d="M217.5,29.4c0,1.3,1,2.3,2.3,2.3c1.3,0,2.3-1,2.3-2.3c0-1.3-1-2.3-2.3-2.3C218.6,27.1,217.5,28.1,217.5,29.4z"
	/>
<path class="st0" d="M246.7,73.8c0-0.7-0.5-1.2-1.2-1.2c-0.7,0-1.2,0.5-1.2,1.2c0,0.7,0.5,1.2,1.2,1.2
	C246.2,75,246.7,74.5,246.7,73.8z"/>
<path class="st0" d="M217.7,73.8c0,1.2,1,2.2,2.2,2.2s2.2-1,2.2-2.2c0-1.2-1-2.2-2.2-2.2S217.7,72.6,217.7,73.8z"/>
<circle class="st0" cx="207" cy="96.1" r="1.4"/>
<path class="st0" d="M248.8,118.3c0-1.8-1.5-3.2-3.2-3.2c-1.8,0-3.2,1.5-3.2,3.2c0,1.8,1.5,3.2,3.2,3.2
	C247.3,121.5,248.8,120.1,248.8,118.3z"/>
<path class="st0" d="M243.1,162.8c0,1.3,1.1,2.4,2.4,2.4c1.3,0,2.4-1.1,2.4-2.4c0-1.3-1.1-2.4-2.4-2.4
	C244.2,160.4,243.1,161.4,243.1,162.8z"/>
<path class="st0" d="M204.6,185c0,1.3,1.1,2.4,2.4,2.4c1.3,0,2.4-1.1,2.4-2.4c0-1.3-1.1-2.4-2.4-2.4
	C205.7,182.6,204.6,183.7,204.6,185z"/>
<path class="st0" d="M217,162.8c0,1.6,1.3,2.8,2.8,2.8s2.8-1.3,2.8-2.8c0-1.6-1.3-2.8-2.8-2.8S217,161.2,217,162.8z"/>
<path class="st0" d="M243,207.2c0,1.4,1.2,2.6,2.6,2.6c1.4,0,2.6-1.2,2.6-2.6c0-1.4-1.2-2.6-2.6-2.6
	C244.1,204.6,243,205.8,243,207.2z"/>
<path class="st0" d="M207,53.5c1,0,1.8-0.8,1.8-1.8c0-1-0.8-1.8-1.8-1.8c-1,0-1.8,0.8-1.8,1.8C205.2,52.6,206,53.5,207,53.5z"/>
<circle class="st0" cx="219.9" cy="118.3" r="1.5"/>
<path class="st0" d="M205.4,140.5c0,0.9,0.7,1.6,1.6,1.6c0.9,0,1.6-0.7,1.6-1.6c0-0.9-0.7-1.6-1.6-1.6
	C206.1,138.9,205.4,139.6,205.4,140.5z"/>
<circle class="st0" cx="168.5" cy="207.2" r="1.6"/>
<path class="st0" d="M183.4,185c0-1.1-0.9-2.1-2.1-2.1c-1.1,0-2.1,0.9-2.1,2.1c0,1.1,0.9,2.1,2.1,2.1
	C182.5,187,183.4,186.1,183.4,185z"/>
<circle class="st0" cx="219.9" cy="207.2" r="2"/>
<path class="st0" d="M183.7,96.1c0-1.3-1.1-2.4-2.4-2.4c-1.3,0-2.4,1.1-2.4,2.4s1.1,2.4,2.4,2.4C182.7,98.4,183.7,97.4,183.7,96.1z"
	/>
<path class="st0" d="M168.5,115.8c-1.4,0-2.5,1.1-2.5,2.5c0,1.4,1.1,2.5,2.5,2.5c1.4,0,2.5-1.1,2.5-2.5
	C171,116.9,169.9,115.8,168.5,115.8z"/>
<circle class="st0" cx="130" cy="140.5" r="1.5"/>
<circle class="st0" cx="142.9" cy="118.3" r="1.9"/>
<circle class="st0" cx="181.4" cy="140.5" r="2.1"/>
<circle class="st0" cx="142.9" cy="162.8" r="2.9"/>
<path class="st0" d="M128.4,185c0,0.9,0.7,1.7,1.7,1.7c0.9,0,1.7-0.7,1.7-1.7c0-0.9-0.7-1.7-1.7-1.7
	C129.1,183.3,128.4,184.1,128.4,185z"/>
<path class="st0" d="M165.6,162.8c0,1.6,1.3,2.9,2.9,2.9c1.6,0,2.9-1.3,2.9-2.9c0-1.6-1.3-2.9-2.9-2.9
	C166.9,159.8,165.6,161.2,165.6,162.8z"/>
<circle class="st0" cx="142.9" cy="207.2" r="1.3"/>
<path class="st0" d="M54.4,140.5c0-0.8-0.6-1.4-1.4-1.4c-0.8,0-1.4,0.6-1.4,1.4c0,0.8,0.6,1.4,1.4,1.4
	C53.8,141.9,54.4,141.3,54.4,140.5z"/>
<path class="st0" d="M102.7,140.5c0,0.9,0.7,1.6,1.6,1.6c0.9,0,1.6-0.7,1.6-1.6c0-0.9-0.7-1.6-1.6-1.6
	C103.5,138.9,102.7,139.6,102.7,140.5z"/>
<path class="st0" d="M94.6,162.8c0-1.7-1.4-3.1-3.1-3.1s-3.1,1.4-3.1,3.1c0,1.7,1.4,3.1,3.1,3.1S94.6,164.5,94.6,162.8z"/>
<path class="st0" d="M102.6,185c0,0.9,0.8,1.7,1.7,1.7c0.9,0,1.7-0.8,1.7-1.7c0-0.9-0.8-1.7-1.7-1.7
	C103.4,183.3,102.6,184.1,102.6,185z"/>
<path class="st0" d="M89,207.2c0,1.4,1.1,2.5,2.5,2.5c1.4,0,2.5-1.1,2.5-2.5c0-1.4-1.1-2.5-2.5-2.5C90.1,204.7,89,205.8,89,207.2z"
	/>
<path class="st0" d="M69.2,207.2c0-1.9-1.5-3.4-3.4-3.4c-1.9,0-3.4,1.5-3.4,3.4c0,1.9,1.5,3.4,3.4,3.4
	C67.7,210.6,69.2,209.1,69.2,207.2z"/>
<path class="st0" d="M27.3,142.4c1,0,1.8-0.8,1.8-1.8s-0.8-1.8-1.8-1.8c-1,0-1.8,0.8-1.8,1.8S26.3,142.4,27.3,142.4z"/>
<path class="st0" d="M50.6,185c0,1.3,1.1,2.4,2.4,2.4c1.3,0,2.4-1.1,2.4-2.4c0-1.3-1.1-2.4-2.4-2.4C51.7,182.6,50.6,183.7,50.6,185z
	"/>
<path class="st0" d="M29.7,185c0-1.3-1.1-2.4-2.4-2.4c-1.3,0-2.4,1.1-2.4,2.4c0,1.3,1.1,2.4,2.4,2.4C28.7,187.4,29.7,186.3,29.7,185
	z"/>
<path class="st0" d="M12.6,118.3c0,1.1,0.9,1.9,1.9,1.9c1.1,0,1.9-0.9,1.9-1.9c0-1.1-0.9-1.9-1.9-1.9
	C13.4,116.4,12.6,117.2,12.6,118.3z"/>
<path class="st0" d="M12.4,162.8c0,1.2,0.9,2.1,2.1,2.1c1.2,0,2.1-0.9,2.1-2.1c0-1.2-0.9-2.1-2.1-2.1
	C13.3,160.6,12.4,161.6,12.4,162.8z"/>
<g>
	<polygon class="st0" points="338.3,54.3 311.1,54.3 295.5,27.3 311.1,0.2 338.3,0.2 338.3,0 311,0 295.3,27.2 295.2,27.3
		310.9,54.4 311,54.5 338.3,54.5 	"/>
</g>
<g>
	<polygon class="st0" points="338.3,108.5 311.1,108.5 295.5,81.5 311.1,54.5 338.3,54.5 338.3,54.3 311,54.3 295.3,81.5
		295.2,81.5 310.9,108.7 311,108.8 338.3,108.8 	"/>
</g>
<g>
	<polygon class="st0" points="338.3,162.8 311.1,162.8 295.5,135.8 311.1,108.8 338.3,108.8 338.3,108.5 311,108.5 295.3,135.7
		295.2,135.8 310.9,163 311,163 338.3,163 	"/>
</g>
<g>
	<polygon class="st0" points="311.1,163 338.3,163 338.3,162.8 311,162.8 295.3,190 295.2,190.1 305.1,207.2 305.4,207.2
		295.5,190.1 	"/>
</g>
<g>
	<path class="st0" d="M248.2,108.7L248.2,108.7L264,81.4h31.5l0,0.1l15.7,27.2l0,0.1l-15.7,27.2H264l0-0.1L248.2,108.7z M264.1,81.6
		l-15.6,27l15.6,27h31.2l15.6-27l-15.6-27H264.1z"/>
</g>
<g>
	<path class="st0" d="M248.2,162.9L248.2,162.9l15.7-27.3h31.5l0,0.1l15.7,27.2l0,0.1l-15.7,27.2H264l0-0.1L248.2,162.9z
		 M264.1,135.9l-15.6,27l15.6,27h31.2l15.6-27l-15.6-27H264.1z"/>
</g>
<g>
	<polygon class="st0" points="254.2,207.2 264.1,190.2 295.3,190.2 305.1,207.2 305.4,207.2 295.5,190 295.4,189.9 264,189.9
		254,207.2 	"/>
</g>
<g>
	<path class="st0" d="M201.2,135.8L201.2,135.8l15.7-27.3h31.5l0,0.1l15.7,27.2l0,0.1L248.4,163H217l0-0.1L201.2,135.8z
		 M217.1,108.8l-15.6,27l15.6,27h31.2l15.6-27l-15.6-27H217.1z"/>
</g>
<g>
	<polygon class="st0" points="211.4,207.2 201.5,190.1 217.1,163 248.3,163 263.9,190.1 254,207.2 254.2,207.2 264.1,190.1
		264.2,190.1 248.5,162.9 248.4,162.8 217,162.8 201.3,190 201.2,190.1 211.1,207.2 	"/>
</g>
<g>
	<path class="st0" d="M154.2,162.9L154.2,162.9l15.7-27.3h31.5l0,0.1l15.7,27.2l0,0.1l-15.7,27.2H170l0-0.1L154.2,162.9z
		 M170.1,135.9l-15.6,27l15.6,27h31.2l15.6-27l-15.6-27H170.1z"/>
</g>
<g>
	<polygon class="st0" points="160.2,207.2 170.1,190.2 201.3,190.2 211.1,207.2 211.4,207.2 201.5,190 201.4,189.9 170,189.9
		160,207.2 	"/>
</g>
<g>
	<path class="st0" d="M13.2,135.8L13.2,135.8L29,108.5h31.5l0,0.1l15.7,27.2l0,0.1L60.4,163H29l0-0.1L13.2,135.8z M29.1,108.8
		l-15.6,27l15.6,27h31.2l15.6-27l-15.6-27H29.1z"/>
</g>
<g>
	<polygon class="st0" points="23.4,207.2 13.5,190.1 29.1,163 60.3,163 75.9,190.1 66,207.2 66.2,207.2 76.1,190.1 76.2,190.1
		60.5,162.9 60.4,162.8 29,162.8 13.3,190 13.2,190.1 23.1,207.2 	"/>
</g>
<g>
	<polygon class="st0" points="4.3,135.9 13.3,135.9 28.9,162.9 13.3,189.9 4.3,189.9 4.3,190.2 13.4,190.2 29.1,163 29.2,162.9
		13.5,135.7 13.4,135.7 4.3,135.7 	"/>
</g>
<g>
	<polygon class="st0" points="23.4,207.2 13.5,190 13.4,189.9 4.3,189.9 4.3,190.2 13.3,190.2 23.1,207.2 	"/>
</g>
<g>
	<polygon class="st0" points="338.3,171.1 306.3,171.1 286.3,136.3 306.3,101.6 338.3,101.6 338.3,100.3 305.6,100.3 284.8,136.3
		305.6,172.3 338.3,172.3 	"/>
</g>
<g>
	<polygon class="st0" points="306.3,172.3 338.3,172.3 338.3,171.1 305.6,171.1 284.8,207.1 284.9,207.2 286.4,207.2 286.3,207.1
		"/>
</g>
<g>
	<polygon class="st0" points="286.4,207.2 285.9,206.4 244.4,206.4 243.9,207.2 	"/>
</g>
<g>
	<path class="st0" d="M163.6,207.2l20.5-35.5l-20.8-36h-41.5l-20.8,36l20.5,35.5H163.6z M102.5,171.7l20.1-34.7h40.1l20.1,34.7
		l-20.1,34.7h-40.1L102.5,171.7z"/>
</g>
<g>
	<path class="st0" d="M39.8,136.3l20.8-36h41.5l20.8,36l-20.8,36H60.6L39.8,136.3z M61.3,101.6l-20.1,34.7l20.1,34.7h40.1l20.1-34.7
		l-20.1-34.7H61.3z"/>
</g>
<g>
	<polygon class="st0" points="41.4,207.2 41.3,207.1 61.3,172.3 101.4,172.3 121.5,207.1 121.4,207.2 122.8,207.2 122.9,207.1
		102.1,171.1 60.6,171.1 39.8,207.1 39.9,207.2 	"/>
</g>
<g>
	<polygon class="st0" points="4.3,66.2 40.2,66.2 60.3,101 40.2,135.7 4.3,135.7 4.3,136.9 40.9,136.9 61.7,101 40.9,65 4.3,65 	"/>
</g>
<g>
	<polygon class="st0" points="4.3,207.2 41.1,207.2 61.7,171.7 40.9,135.7 4.3,135.7 4.3,136.9 40.2,136.9 60.3,171.7 40.2,206.4
		4.3,206.4 	"/>
</g>
<g>
	<polygon class="st0" points="41.4,207.2 40.9,206.4 4.3,206.4 4.3,207.2 	"/>
</g>
</svg>
