<?xml version="1.0" encoding="utf-8"?>
<!-- Generator: Adobe Illustrator 22.1.0, SVG Export Plug-In . SVG Version: 6.00 Build 0)  -->
<svg version="1.1" id="Layer_1" xmlns="http://www.w3.org/2000/svg" xmlns:xlink="http://www.w3.org/1999/xlink" x="0px" y="0px"
	 viewBox="0 0 105.3 29.7" style="enable-background:new 0 0 105.3 29.7;" xml:space="preserve">
<style type="text/css">
	.st0{fill:#FFFFFF;}
	.st1{fill-rule:evenodd;clip-rule:evenodd;fill:#FFFF01;}
</style>
<path class="st0" d="M8.8,6.3c-0.7,0-1.5,0.2-2.2,0.5C5.8,7.2,5.1,7.7,4.5,8.3c-0.6,0.6-1.2,1.3-1.6,2.1c-0.4,0.8-0.6,1.6-0.6,2.5
	v0.5H24v2.8c0,1.4-0.3,2.6-0.8,3.7c-0.5,1.1-1.2,2.1-2.1,2.9c-0.9,0.8-1.8,1.4-2.9,1.8c-1.1,0.4-2.1,0.6-3.2,0.6H0v-1.9h14.8
	c0.8,0,1.5-0.2,2.4-0.5c0.8-0.3,1.6-0.8,2.3-1.4c0.7-0.6,1.3-1.4,1.7-2.3c0.4-0.9,0.7-2,0.7-3.2v-0.8H0v-1.8c0-1.4,0.3-2.6,0.8-3.7
	C1.3,8.6,2,7.7,2.9,6.9C3.7,6.1,4.7,5.5,5.7,5C6.8,4.6,7.9,4.4,9,4.4h15v1.9H8.8L8.8,6.3z"/>
<path class="st1" d="M40.9,0l5,2.9l-5,0l-5.1,0L40.9,0L40.9,0z M48.8,4.5l5,2.9v5.8l-2.5-4.4L48.8,4.5L48.8,4.5z M53.8,16.4v5.9
	l-5.1,2.9l2.5-4.4L53.8,16.4L53.8,16.4z M46,26.8l-5.1,2.9l-5-2.9l5,0L46,26.8L46,26.8z M33,25.1l-5-2.9v-5.8l2.5,4.4L33,25.1
	L33,25.1z M28,13.3V7.4l5.1-2.9l-2.5,4.4L28,13.3L28,13.3z M34.9,4.5l-6,10.4l6,10.3l12,0l6-10.4l-6-10.3L34.9,4.5L34.9,4.5z
	 M40.9,4.6L32,9.7V20l8.9,5.1l8.9-5.1V9.7L40.9,4.6L40.9,4.6z"/>
<path class="st0" d="M69.7,6.3v19.1h-2.2V6.3H56.6V4.4h24.2v1.9H69.7L69.7,6.3z M102.9,25.3l-2.5-4.7H83.3l-2.5,4.7h-2.5l11.3-21
	h4.6l11.1,21H102.9L102.9,25.3z M92.9,6.2h-2.1l-6.6,12.5h15.2L92.9,6.2L92.9,6.2z"/>
</svg>
