<?xml version="1.0" encoding="utf-8"?>
<!-- Generator: Adobe Illustrator 22.1.0, SVG Export Plug-In . SVG Version: 6.00 Build 0)  -->
<svg version="1.1" id="Capa_1" xmlns="http://www.w3.org/2000/svg" xmlns:xlink="http://www.w3.org/1999/xlink" x="0px" y="0px"
	 viewBox="0 0 389.1 487.7" style="enable-background:new 0 0 389.1 487.7;" xml:space="preserve">
<style type="text/css">
	.st0{fill-rule:evenodd;clip-rule:evenodd;fill:#FFFF01;}
</style>
<g>
	<g>
		<path d="M187.6,0.1C90.7,3.5,10.2,79.1,0.9,175.6c-1.9,19.3-0.8,38,2.6,55.9l0,0c0,0,0.3,2.1,1.3,6.1c3,13.4,7.5,26.4,13.1,38.6
			c19.5,46.2,64.6,123.5,165.8,207.6c6.2,5.2,15.3,5.2,21.6,0c101.2-84,146.3-161.3,165.9-207.7c5.7-12.2,10.1-25.1,13.1-38.6
			c0.9-3.9,1.3-6.1,1.3-6.1l0,0c2.3-12,3.5-24.3,3.5-36.9C389.1,84.7,298.2-3.8,187.6,0.1z"/>
	</g>
</g>
<path class="st0" d="M195.2,75.7l39,22.4l-38.8,0.1L156,98.3L195.2,75.7L195.2,75.7z M256.3,110.8l39,22.4v45.1l-19.6-34
	L256.3,110.8L256.3,110.8z M295.3,202.9v45.5l-39.5,22.7l19.8-34.1L295.3,202.9L295.3,202.9z M234.4,283.3l-39.2,22.6l-39-22.4
	l38.8-0.1L234.4,283.3L234.4,283.3z M134.2,270.8l-39-22.4v-45.1l19.6,34L134.2,270.8L134.2,270.8z M95.2,178.8v-45.5l39.5-22.7
	L115,144.6L95.2,178.8L95.2,178.8z M148.9,110.5L102.2,191l46.3,80.3l93-0.1l46.6-80.5l-46.3-80.3L148.9,110.5L148.9,110.5z
	 M195.2,111.4l-69.1,39.8v79.3l69.1,39.8l69.1-39.8v-79.3L195.2,111.4L195.2,111.4z"/>
</svg>
