<?xml version="1.0" encoding="utf-8"?><svg xmlns="http://www.w3.org/2000/svg" xmlns:xlink="http://www.w3.org/1999/xlink"><symbol viewBox="0 0 31.5 22.1" id="arrow" xmlns="http://www.w3.org/2000/svg"><path class="ast0" d="M21.2.3c-.4-.4-1.1-.4-1.6 0-.4.4-.4 1.1 0 1.6l8 8H1.1c-.6.1-1.1.5-1.1 1.2s.5 1.1 1.1 1.1h26.6l-8 8c-.4.4-.4 1.2 0 1.6.4.4 1.2.4 1.6 0l10-10c.4-.4.4-1.1 0-1.6L21.2.3z"/></symbol><symbol viewBox="0 0 16 12" id="form-mail" xmlns="http://www.w3.org/2000/svg"><path fill-rule="evenodd" d="M0 11.999V.005h16.003v11.994H0zm.775-1.315l4.594-4.682L.775 1.32v9.364zm.516-9.89l5.833 5.944c.646.658 1.11.658 1.755 0L14.713.794H1.291zM14.713 11.21l-4.595-4.682c-.903.921-1.496 1.552-2.116 1.552-.619 0-1.213-.631-2.117-1.552L1.291 11.21h13.422zm-4.078-5.208l4.594 4.682V1.32l-4.594 4.682z"/></symbol><symbol viewBox="0 0 24 24" id="form-phone" xmlns="http://www.w3.org/2000/svg"><path d="M18 24H6c-1.1 0-2-.9-2-2V2c0-1.1.9-2 2-2h12c1.1 0 2 .9 2 2v20c0 1.1-.9 2-2 2zm1-5.1H5V22c0 .6.4 1 1 1h12c.6 0 1-.4 1-1v-3.1zm-7 3c-.6 0-1-.4-1-1s.4-1 1-1 1 .4 1 1-.4 1-1 1zm7-17H5v13h14v-13zM18 1H6c-.6 0-1 .4-1 1v1.9h14V2c0-.6-.4-1-1-1zm-4.5 1.9h-3c-.3 0-.5-.2-.5-.5s.2-.5.5-.5h3c.3 0 .5.2.5.5s-.2.5-.5.5z"/></symbol><symbol viewBox="0 0 612 612" id="form-user" xmlns="http://www.w3.org/2000/svg"><path d="M612 306C612 137.4 474.6 0 306 0S0 137.4 0 306c0 92.9 42.1 176.4 107.7 232.6.8.8 1.6 1.6 3.1 2.3 53.1 44.5 121 71.1 196 71.1 73.4 0 141.3-26.5 194.4-69.5 3.1-.8 5.5-3.1 7-5.5C571.5 480.1 612 398.1 612 306zm-583.9 0C28.1 153 153 28.1 306 28.1S584 153 584 306c0 75-29.6 142.8-78.1 192.8-7.8-36.7-31.2-99.2-103.1-139.7 16.4-20.3 25.7-46.8 25.7-75 0-67.1-54.6-121.8-121.8-121.8S185 217.1 185 284.2c0 28.1 10.1 53.8 25.7 75-72.5 40.5-95.9 103-102.9 139.7C58.5 449.7 28.1 381 28.1 306zm184.3-21.1c0-51.5 42.1-93.7 93.7-93.7s93.7 42.1 93.7 93.7-42.1 93.7-93.7 93.7-93.7-42.1-93.7-93.7zM132.7 523c1.6-22.6 14-99.2 98.4-142.1 21.1 16.4 46.8 25.7 75 25.7s54.6-10.1 75.8-26.5c83.6 42.9 96.8 117.9 99.2 142.1-47.6 38.2-108.5 61.7-174.1 61.7-66.5.1-126.7-22.6-174.3-60.9z"/></symbol><symbol viewBox="0 0 87 98.3" id="icon-hexa" xmlns="http://www.w3.org/2000/svg"><path d="M86 73.2l-42.5 24L1 73.2v-48l42.5-24 42.5 24v48z" fill="none" stroke="#ffff01" stroke-width="2"/></symbol><symbol viewBox="0 0 270.4 98.1" id="iconSheer"><path d="M175.1 51.8c.2 1.2.3 2.1.5 3 2 8.4 8.6 14 17.2 14.7 7.6.6 13.6-2.3 18-8.5 2.2-3 5.7-3.5 8.5-1.1 1.6 1.4 1.8 3.2.5 4.9-.7.9-1.4 1.8-2.1 2.8-2.9 4-6.7 6.7-11.4 8.3-7.6 2.6-15.2 3-22.7.2-10.1-3.7-16.1-11.1-17.8-21.7-1-6.5-.4-13 2.6-18.9 4.3-8.4 11.1-13.6 20.5-15.1 6.2-1 12.4-.4 18.2 2.4 8.2 3.9 13.2 10.5 15.1 19.3.5 2.4.7 4.9.9 7.3.2 1.5-.5 2.2-2.1 2.3h-44.1c-.4.1-.9.1-1.8.1zm38.3-9.2c-1.2-7.9-10.7-14.7-19.4-14.2-9.1.5-18.2 7.5-18.5 14.2h37.9zm-101 9c.1.8.2 1.4.3 2 1.7 9.3 9.3 15.7 18.7 15.9 7.1.1 12.7-2.8 16.8-8.6 2.2-3.1 6.1-3.4 8.8-.7 1.3 1.4 1.5 3 .3 4.6-.5.8-1.1 1.5-1.7 2.2-3.1 4.5-7.3 7.4-12.5 9.1-7.6 2.5-15.2 2.7-22.5-.2-10.6-4.1-16.4-12.1-17.6-23.3-.6-5.4-.1-10.7 2.2-15.6 4.3-9.4 11.4-15.2 21.8-16.6 5.5-.7 11-.3 16.1 1.8 9.2 3.8 14.6 10.9 16.6 20.6.4 2.2.6 4.5.7 6.7.1 1.8-.3 2.2-2.2 2.2h-43.5c-.7-.1-1.4-.1-2.3-.1zm38.4-9.1c-1.2-7.8-10.4-14.4-19.4-14.2-8.8.2-17.9 7.2-18.6 14.2h38zm101 13.5c.7.6 1.1 1 1.5 1.4 4.9 4.2 9.8 8.3 14.6 12.5.3.3.7.6 1 .9 1.8 1.8 2 4.4.3 6.2-1.6 1.8-4.2 2.1-6.1.5-3.4-2.8-6.7-5.7-10-8.5-4.8-4.1-9.5-8.1-14.3-12.2-.4-.4-.9-.7-1.6-1.3 0 1-.1 1.6-.1 2.3v36.1c-.2 2.5-2.1 4.3-4.6 4.2-2.4-.1-4.1-1.9-4.2-4.4V21.9c0-1.6.2-1.9 1.7-1.9 2.1-.1 4.2-.1 6.2-.1 5 0 10.1.2 15.1-.1 8.4-.4 17.8 6.4 18.7 16.3.8 8.9-5.2 17.3-14.3 19.1-1.1.2-2.3.5-3.9.8zm-15.3-6.9c.5.1.9.1 1.2.1h12.6c1.2 0 2.4-.1 3.6-.5 3.9-1.2 7-3.5 8-7.7 1.7-7.1-3.6-13.7-10.9-13.7h-13c-.5 0-1 .1-1.5.1v21.7zM88.5 52H63.9c0 .7-.1 1.4-.1 2v18.9c0 .8 0 1.6-.2 2.3-.6 1.9-2.6 3.1-4.5 3-2.1-.2-3.8-1.8-4.1-3.9-.1-.5 0-1 0-1.5V5.4c0-.9.1-1.8.4-2.6.6-2 2.6-3 4.7-2.8 1.9.3 3.5 2 3.7 3.9.1.6 0 1.2 0 1.8v34.7c0 .7.1 1.4.1 2 1.5.4 22.9.4 24.5 0 0-.5.1-1.1.1-1.7V23.9c.2-2.3 1.9-4 4.2-4.1 2.3-.1 4.3 1.6 4.6 3.9.1.5 0 1 0 1.5v48.9c-.3 2.3-2.3 4.1-4.5 4-2.3-.1-4.1-1.9-4.3-4.2V52zM25 78.3c-5.9-.1-11.4-1.4-16.5-4.4-2.2-1.3-4.2-2.9-5.8-4.8-.8-1-1.6-2.1-2.2-3.3-1-1.9-.6-3.4.9-4.9 1.7-1.6 4.1-2.3 6.4-.7C9 61 10 62 10.9 63c.9.9 1.6 1.9 2.5 2.8 2.7 2.7 6 4.2 9.8 4.6 3.5.4 7 .3 10.4-.9 1.4-.5 2.8-1.2 4-2.1 2.9-2.2 3-5.9.2-8.2-1.3-1.1-2.9-1.9-4.5-2.6-4-1.7-8.1-2.9-12.3-4-3.4-.8-6.7-1.9-10.1-2.9-1.3-.4-2.5-1.1-3.7-1.7-3.2-1.7-5-4.4-5.5-7.9-1-7.1 1.7-12.8 8.1-15.9 9.8-4.8 19.7-5.2 29.4.4 1.8 1 3.5 2.5 5.1 3.9 1.2 1 2 2.5 2.5 4 .8 2.6-.5 3.9-2.8 4.4-2 .4-3.8-.2-5.2-1.7-.3-.3-.5-.6-.7-.9-2.3-3.4-5.6-5.3-9.6-6.1-4-.7-8-.6-11.8.9-1.4.5-2.8 1.3-3.9 2.3-2.7 2.3-2.7 5.4-.1 7.8 1.7 1.6 3.7 2.5 5.9 3 4.8 1.2 9.7 2.4 14.5 3.6 3.1.8 6.1 1.8 8.9 3.4 3.6 1.9 6.2 4.7 7.1 8.8 1.1 5 0 9.4-3.9 13-4.4 4-9.5 6.3-15.4 7-1.7.1-3.3.2-4.8.3z"/></symbol></svg>