<?xml version="1.0" encoding="utf-8"?>
<!-- Generator: Adobe Illustrator 22.0.1, SVG Export Plug-In . SVG Version: 6.00 Build 0)  -->
<svg version="1.1" id="Layer_1" xmlns="http://www.w3.org/2000/svg" xmlns:xlink="http://www.w3.org/1999/xlink" x="0px" y="0px"
	 viewBox="0 0 512 512" style="enable-background:new 0 0 512 512;" xml:space="preserve">
<style type="text/css">
	.st0{fill:#FBF0E1;}
</style>
<path class="st0" d="M15,512h31v-30c0-8.3,6.7-15,15-15s15,6.7,15,15v30h45V407c0-4.6-2.1-9-5.8-11.8c-3.6-2.9-8.4-3.9-12.9-2.7
	l-91,30C4.7,424.1,0,430.1,0,437v60C0,505.3,6.7,512,15,512z"/>
<path class="st0" d="M417.3,363.4l33.7,11.2c0-4,0-61.7,0-58.7c0-8.3-6.7-15-15-15H76c-8.3,0-15,6.7-15,15c0,3.2,0,62.2,0,58.6
	L92.9,364c15.8-4.4,29.8-1.1,40.9,7.6C144.7,380.1,151,393,151,407v105h30v-75c0-8.3,6.7-15,15-15s15,6.7,15,15v75h30v-75
	c0-8.3,6.7-15,15-15s15,6.7,15,15v75h30v-75c0-8.3,6.7-15,15-15s15,6.7,15,15v75h30V407c0-14,6.3-26.9,17.3-35.5
	C389.1,363,403.7,359.8,417.3,363.4z"/>
<path class="st0" d="M500.6,422.5l-91-30c-4.4-1.2-9.2-0.1-12.9,2.7c-3.6,2.8-5.8,7.2-5.8,11.8v105h45v-30c0-8.3,6.7-15,15-15
	s15,6.7,15,15v30h31c8.3,0,15-6.7,15-15v-60C512,430.1,507.3,424.1,500.6,422.5z"/>
<path class="st0" d="M256,0c-8.3,0-15,6.7-15,15v54.8L227.8,83c-19.2,19.2-32.2,42.7-39.6,68H241v-15c0-8.3,6.7-15,15-15
	s15,6.7,15,15v15h52.8c-7.4-25.4-20.4-48.8-39.6-68L271,69.8V15C271,6.7,264.3,0,256,0z"/>
<path class="st0" d="M121,196v75h60v-45c0-8.3,6.7-15,15-15s15,6.7,15,15v45h30v-45c0-8.3,6.7-15,15-15s15,6.7,15,15v45h30v-45
	c0-8.3,6.7-15,15-15s15,6.7,15,15v45h60v-75c0-8.3-6.7-15-15-15H136C127.7,181,121,187.7,121,196z"/>
<path class="st0" d="M0,91c0,16.6,14.4,30,31,30h90c16.6,0,30-13.4,30-30c0-16.2-13.3-31.4-32.9-29.4c1.8-4.9,2.9-10.1,2.9-15.6
	c0-24.9-20.1-46-45-46S31,21.1,31,46c0,5.5,1.1,10.7,2.9,15.6C14.4,59.6,0,74.6,0,91z"/>
<path class="st0" d="M478.1,61.6c1.8-4.9,2.9-10.1,2.9-15.6c0-24.9-20.1-46-45-46s-45,21.1-45,46c0,5.5,1.1,10.7,2.9,15.6
	c-19.5-2-32.9,13-32.9,29.4c0,16.6,13.4,30,30,30h90c16.6,0,31-13.4,31-30C512,74.8,497.7,59.6,478.1,61.6z"/>
</svg>
