<?xml version="1.0" encoding="utf-8"?>
<!-- Generator: Adobe Illustrator 22.0.1, SVG Export Plug-In . SVG Version: 6.00 Build 0)  -->
<svg version="1.1" id="Layer_1" xmlns="http://www.w3.org/2000/svg" xmlns:xlink="http://www.w3.org/1999/xlink" x="0px" y="0px"
	 viewBox="0 0 512 512" style="enable-background:new 0 0 512 512;" xml:space="preserve">
<style type="text/css">
	.st0{fill:#FBF0E1;}
</style>
<g>
	<g>
		<path class="st0" d="M381.7,166.3H146V42.8c0-8.7-7-15.7-15.7-15.7H67.3c-8.7,0-15.7,7-15.7,15.7s7,15.7,15.7,15.7h47.4v108.7
			C50,174.9,0,229.8,0,296.6c0,49.4,27.4,93.7,70.8,115.9c0.7,40,33.4,72.4,73.6,72.4c35.2,0,64.7-24.9,71.9-58h100.6l29.9,50.3
			c2.8,4.8,7.9,7.7,13.5,7.7h26.8c8.7,0,15.7-7,15.7-15.7v-44c62-10.1,109.3-63.7,109.3-128.6C512,224.7,453.5,166.3,381.7,166.3z
			 M144.4,453.5c-23.3,0-42.3-19-42.3-42.3c0-23.4,19.2-42.3,42.3-42.3c23.3,0,42.3,19,42.3,42.3
			C186.7,434.6,167.7,453.5,144.4,453.5z M313.6,277.7H198.4c-8.7,0-15.7-7-15.7-15.7s7-15.7,15.7-15.7h115.2
			c8.7,0,15.7,7,15.7,15.7C329.3,270.7,322.2,277.7,313.6,277.7z M371.4,453.5h-2.3l-15.8-26.6h18.1V453.5z"/>
	</g>
</g>
<g>
	<g>
		<path class="st0" d="M384.7,109H350v-7.8c0-8.7-7-15.7-15.7-15.7H177.7c-8.7,0-15.7,7-15.7,15.7v33.7c95.2,0,222.8-0.7,238.4,1.1
			v-11.3C400.4,116,393.4,109,384.7,109z"/>
	</g>
</g>
</svg>
