<?xml version="1.0" encoding="utf-8"?>
<!-- Generator: Adobe Illustrator 22.1.0, SVG Export Plug-In . SVG Version: 6.00 Build 0)  -->
<svg version="1.1" id="Capa_1" xmlns="http://www.w3.org/2000/svg" xmlns:xlink="http://www.w3.org/1999/xlink" x="0px" y="0px"
	 viewBox="0 0 328.5999756 512" style="enable-background:new 0 0 328.5999756 512;" xml:space="preserve">
<style type="text/css">
	.st0{fill:#0e3b42;}
</style>
<g>
	<g>
		<path class="st0" d="M164.3000031,0C73.6999969,0,0,73.6999969,0,164.3000031v183.4000092
			C0,438.2999878,73.6999969,512,164.3000031,512s164.2999725-73.7000122,164.2999725-164.2999878V164.3000031
			C328.5999756,73.6999969,254.9000092,0,164.3000031,0z M164.3000031,30.7999992
			c72.7999878,0,132.1999969,58.5999947,133.4999847,131.1000061H179.6999969v-34.5999985
			c0-8.5-6.8999939-15.4000015-15.3999939-15.4000015s-15.3999939,6.9000015-15.3999939,15.4000015v34.5999985H30.8000031
			C32.1000061,89.4000015,91.5,30.7999992,164.3000031,30.7999992z M297.7999878,347.7000122
			c0,73.6000061-59.8999786,133.5-133.4999847,133.5s-133.5-59.8999939-133.5-133.5v-155h118.1000061v34.6000061
			c0,8.5,6.8999939,15.3999939,15.3999939,15.3999939s15.3999939-6.8999939,15.3999939-15.3999939v-34.6000061h118.0999908
			V347.7000122L297.7999878,347.7000122z"/>
	</g>
</g>
</svg>
