<?xml version="1.0" encoding="utf-8"?>
<!-- Generator: Adobe Illustrator 22.1.0, SVG Export Plug-In . SVG Version: 6.00 Build 0)  -->
<svg version="1.1" id="Layer_1" xmlns="http://www.w3.org/2000/svg" xmlns:xlink="http://www.w3.org/1999/xlink" x="0px" y="0px"
	 viewBox="0 0 489.7 490" style="enable-background:new 0 0 489.7 490;" xml:space="preserve">
<g>
	<g>
		<path d="M469.4,168.6h-54C414.3,75.4,338.2,0,244.8,0S75.3,75.4,74.3,168.6h-54c-19.1,1.5-21.1,17.9-20.1,23.8L47.8,473
			c1.7,9.8,10.2,17,20.1,17h353.8c10,0,18.5-7.2,20.1-17l47.7-280.6C490.5,186.5,488.1,170,469.4,168.6z M244.8,40.8
			c70.9,0,128.6,57.1,129.7,127.7H115.1C116.2,97.9,173.9,40.8,244.8,40.8z M404.5,449.2H85.2L44.4,209.4h400.8L404.5,449.2z"/>
		<path d="M159.7,298.7h170.1c11.3,0,20.4-9.1,20.4-20.4s-9.1-20.4-20.4-20.4H159.7c-11.3,0-20.4,9.1-20.4,20.4
			S148.5,298.7,159.7,298.7z"/>
		<path d="M159.7,400.7h170.1c11.3,0,20.4-9.1,20.4-20.4s-9.1-20.4-20.4-20.4H159.7c-11.3,0-20.4,9.1-20.4,20.4
			S148.5,400.7,159.7,400.7z"/>
	</g>
</g>
</svg>
