<?xml version="1.0" encoding="utf-8"?>
<!-- Generator: Adobe Illustrator 22.1.0, SVG Export Plug-In . SVG Version: 6.00 Build 0)  -->
<svg version="1.1" id="Capa_1" xmlns="http://www.w3.org/2000/svg" xmlns:xlink="http://www.w3.org/1999/xlink" x="0px" y="0px"
	 viewBox="0 0 360.5 722.8" style="enable-background:new 0 0 360.5 722.8;" xml:space="preserve">
<g>
	<g>
		<path d="M180.3,0C80.9,0,0,82.1,0,183.1v145.8C0,429.9,80.9,512,180.3,512c99.4,0,180.3-81.9,180.3-182.5V183.1
			C360.5,82.1,279.7,0,180.3,0z M326.6,329.5c0,82-65.7,148.6-146.4,148.6c-80.7,0-146.4-66.9-146.4-149.2V183.1
			c0-82.3,65.7-149.2,146.4-149.2c80.7,0,146.4,66.9,146.4,149.2V329.5z"/>
	</g>
</g>
<g>
	<g>
		<path d="M180.3,140.1c-9.4,0-17,7.6-17,17v59.3c0,9.4,7.6,17,17,17c9.4,0,17-7.6,17-17v-59.3C197.2,147.7,189.6,140.1,180.3,140.1
			z"/>
	</g>
</g>
<g>
	<g id="chevron-right">
		<polygon points="276.7,626.4 254.2,603.9 180.3,677.9 106.4,603.9 83.9,626.4 180.3,722.8 		"/>
	</g>
</g>
</svg>
