<?xml version="1.0" encoding="utf-8"?>
<!-- Generator: Adobe Illustrator 22.0.1, SVG Export Plug-In . SVG Version: 6.00 Build 0)  -->
<svg version="1.1" id="Layer_1" xmlns="http://www.w3.org/2000/svg" xmlns:xlink="http://www.w3.org/1999/xlink" x="0px" y="0px"
	 viewBox="0 0 428.1 245.9" style="enable-background:new 0 0 428.1 245.9;" xml:space="preserve">
<path class="st0" d="M376.8,41.9c-3.9-14.5-15.3-25.9-30-29.8c-26.6-6.9-132.9-6.9-132.9-6.9S109.6,4.8,83,11.7
	c-14.7,3.9-28.7,15.8-32.6,30.2c-7.1,26.4-6.5,81-6.5,81s-0.6,54.7,6.5,81c3.9,14.5,18.1,26.4,32.6,30.2
	c26.6,7.1,130.9,6.5,130.9,6.5s104.3,0.4,130.9-6.5c14.7-3.9,28.3-15.8,32.2-30.2c7.1-26.1,7.1-81,7.1-81S384,68.3,376.8,41.9z
	 M181.3,175.2V70.7l84.9,52.3L181.3,175.2z"/>
</svg>
