<?xml version="1.0" encoding="utf-8"?>
<!-- Generator: Adobe Illustrator 22.1.0, SVG Export Plug-In . SVG Version: 6.00 Build 0)  -->
<svg version="1.1" id="Layer_1" xmlns="http://www.w3.org/2000/svg" xmlns:xlink="http://www.w3.org/1999/xlink" x="0px" y="0px"
	 viewBox="0 0 543.7 396.2" style="enable-background:new 0 0 543.7 396.2;" xml:space="preserve">
<style type="text/css">
	.st0{fill-rule:evenodd;clip-rule:evenodd;fill:#F58220;}
	.st1{fill-rule:evenodd;clip-rule:evenodd;fill:#EA0E02;}
	.st2{fill-rule:evenodd;clip-rule:evenodd;fill:#FFC196;}
	.st3{fill-rule:evenodd;clip-rule:evenodd;fill:#FDD3B6;}
	.st4{fill-rule:evenodd;clip-rule:evenodd;fill:#FECBA8;}
	.st5{fill-rule:evenodd;clip-rule:evenodd;fill:#FE9249;}
	.st6{fill-rule:evenodd;clip-rule:evenodd;fill:#FFB380;}
	.st7{fill-rule:evenodd;clip-rule:evenodd;fill:#FF7A1F;}
	.st8{fill-rule:evenodd;clip-rule:evenodd;fill:#FF812C;}
	.st9{fill-rule:evenodd;clip-rule:evenodd;fill:#FF9F60;}
	.st10{fill-rule:evenodd;clip-rule:evenodd;fill:#FFC29B;}
	.st11{fill-rule:evenodd;clip-rule:evenodd;fill:#FFA161;}
	.st12{fill-rule:evenodd;clip-rule:evenodd;fill:#F9A974;}
	.st13{fill-rule:evenodd;clip-rule:evenodd;fill:#FF9A56;}
	.st14{fill-rule:evenodd;clip-rule:evenodd;fill:#FA873A;}
	.st15{fill-rule:evenodd;clip-rule:evenodd;fill:#FE9F5E;}
	.st16{fill-rule:evenodd;clip-rule:evenodd;fill:#F26F1A;}
	.st17{fill-rule:evenodd;clip-rule:evenodd;fill:#FF8838;}
	.st18{fill-rule:evenodd;clip-rule:evenodd;fill:#FFA262;}
	.st19{fill-rule:evenodd;clip-rule:evenodd;fill:#FDAD74;}
	.st20{fill-rule:evenodd;clip-rule:evenodd;fill:#FCA56A;}
	.st21{fill-rule:evenodd;clip-rule:evenodd;fill:#FE7919;}
	.st22{fill-rule:evenodd;clip-rule:evenodd;fill:#FD6C0C;}
	.st23{fill-rule:evenodd;clip-rule:evenodd;fill:#E85E05;}
	.st24{fill-rule:evenodd;clip-rule:evenodd;fill:#F7802E;}
	.st25{fill-rule:evenodd;clip-rule:evenodd;fill:#FFAC76;}
	.st26{fill-rule:evenodd;clip-rule:evenodd;fill:#FD9D61;}
	.st27{fill-rule:evenodd;clip-rule:evenodd;fill:#FE934A;}
	.st28{fill-rule:evenodd;clip-rule:evenodd;fill:#FC7B1D;}
	.st29{fill-rule:evenodd;clip-rule:evenodd;fill:#FF8C3F;}
	.st30{fill-rule:evenodd;clip-rule:evenodd;fill:#FE7715;}
	.st31{fill-rule:evenodd;clip-rule:evenodd;fill:#FFB17D;}
	.st32{fill-rule:evenodd;clip-rule:evenodd;fill:#FEA970;}
	.st33{fill-rule:evenodd;clip-rule:evenodd;fill:#FE8431;}
	.st34{fill-rule:evenodd;clip-rule:evenodd;fill:#FE7112;}
	.st35{fill-rule:evenodd;clip-rule:evenodd;fill:#FCBC98;}
	.st36{fill-rule:evenodd;clip-rule:evenodd;fill:#FDB788;}
	.st37{fill-rule:evenodd;clip-rule:evenodd;fill:#FABF8D;}
	.st38{fill-rule:evenodd;clip-rule:evenodd;fill:#FE9957;}
	.st39{fill-rule:evenodd;clip-rule:evenodd;fill:#FF9954;}
	.st40{fill-rule:evenodd;clip-rule:evenodd;fill:#FBB683;}
	.st41{fill-rule:evenodd;clip-rule:evenodd;fill:#FE9B59;}
	.st42{fill-rule:evenodd;clip-rule:evenodd;fill:#CE4D00;}
	.st43{fill-rule:evenodd;clip-rule:evenodd;fill:#FF9041;}
	.st44{fill-rule:evenodd;clip-rule:evenodd;fill:#F78D45;}
	.st45{fill-rule:evenodd;clip-rule:evenodd;fill:#2C2D2F;}
	.st46{fill-rule:evenodd;clip-rule:evenodd;fill:#FC7B26;}
	.st47{fill-rule:evenodd;clip-rule:evenodd;fill:#FEA869;}
	.st48{fill-rule:evenodd;clip-rule:evenodd;fill:#FE8D47;}
	.st49{fill-rule:evenodd;clip-rule:evenodd;fill:#424242;}
	.st50{fill-rule:evenodd;clip-rule:evenodd;fill:#E26707;}
	.st51{fill-rule:evenodd;clip-rule:evenodd;fill:#FEC8A2;}
	.st52{fill-rule:evenodd;clip-rule:evenodd;fill:#FA8636;}
	.st53{fill-rule:evenodd;clip-rule:evenodd;fill:#FD9249;}
	.st54{fill-rule:evenodd;clip-rule:evenodd;fill:#F78B42;}
	.st55{fill-rule:evenodd;clip-rule:evenodd;fill:#FFC099;}
	.st56{fill-rule:evenodd;clip-rule:evenodd;fill:#FDB385;}
	.st57{fill-rule:evenodd;clip-rule:evenodd;fill:#F58F3D;}
	.st58{fill-rule:evenodd;clip-rule:evenodd;fill:#D80200;}
	.st59{fill-rule:evenodd;clip-rule:evenodd;fill:#FDA05D;}
	.st60{fill-rule:evenodd;clip-rule:evenodd;fill:#FFBD8E;}
	.st61{fill-rule:evenodd;clip-rule:evenodd;fill:#222222;}
	.st62{fill-rule:evenodd;clip-rule:evenodd;fill:#FF7413;}
	.st63{fill-rule:evenodd;clip-rule:evenodd;fill:#FD8A37;}
	.st64{fill-rule:evenodd;clip-rule:evenodd;fill:#FFAB6F;}
	.st65{fill-rule:evenodd;clip-rule:evenodd;fill:#FF812D;}
	.st66{fill-rule:evenodd;clip-rule:evenodd;fill:#FA6500;}
	.st67{fill-rule:evenodd;clip-rule:evenodd;fill:#F07F32;}
	.st68{fill-rule:evenodd;clip-rule:evenodd;fill:#F3690C;}
	.st69{fill-rule:evenodd;clip-rule:evenodd;fill:#FF944C;}
	.st70{fill-rule:evenodd;clip-rule:evenodd;fill:#FF8D3D;}
	.st71{fill-rule:evenodd;clip-rule:evenodd;fill:#1A1A1A;}
	.st72{fill-rule:evenodd;clip-rule:evenodd;fill:#FFBA8C;}
	.st73{fill-rule:evenodd;clip-rule:evenodd;fill:#1C1E1D;}
	.st74{fill-rule:evenodd;clip-rule:evenodd;fill:#DE5E0A;}
	.st75{fill-rule:evenodd;clip-rule:evenodd;fill:#FFAF8D;}
	.st76{fill-rule:evenodd;clip-rule:evenodd;fill:#FB781E;}
	.st77{fill-rule:evenodd;clip-rule:evenodd;fill:#ED8331;}
	.st78{fill-rule:evenodd;clip-rule:evenodd;fill:#FC710E;}
	.st79{fill-rule:evenodd;clip-rule:evenodd;fill:#D96206;}
	.st80{fill-rule:evenodd;clip-rule:evenodd;fill:#453730;}
	.st81{fill-rule:evenodd;clip-rule:evenodd;fill:#25120B;}
	.st82{fill-rule:evenodd;clip-rule:evenodd;fill:#FF8E42;}
	.st83{fill-rule:evenodd;clip-rule:evenodd;fill:#FD7320;}
	.st84{fill-rule:evenodd;clip-rule:evenodd;fill:#3E3935;}
	.st85{fill-rule:evenodd;clip-rule:evenodd;fill:#D36200;}
	.st86{fill-rule:evenodd;clip-rule:evenodd;fill:#313538;}
	.st87{fill-rule:evenodd;clip-rule:evenodd;fill:#FD8127;}
	.st88{fill-rule:evenodd;clip-rule:evenodd;fill:#322E2B;}
	.st89{fill-rule:evenodd;clip-rule:evenodd;fill:#FE8B3A;}
	.st90{fill-rule:evenodd;clip-rule:evenodd;fill:#FA9E62;}
	.st91{fill-rule:evenodd;clip-rule:evenodd;fill:#FEAC72;}
	.st92{fill-rule:evenodd;clip-rule:evenodd;fill:#F7954E;}
	.st93{fill-rule:evenodd;clip-rule:evenodd;fill:#FF6301;}
	.st94{fill-rule:evenodd;clip-rule:evenodd;fill:#FE9146;}
	.st95{fill-rule:evenodd;clip-rule:evenodd;fill:#FE7C23;}
	.st96{fill-rule:evenodd;clip-rule:evenodd;fill:#F7BD95;}
	.st97{fill-rule:evenodd;clip-rule:evenodd;fill:#242424;}
	.st98{fill-rule:evenodd;clip-rule:evenodd;fill:#232729;}
	.st99{fill-rule:evenodd;clip-rule:evenodd;fill:#371509;}
	.st100{fill-rule:evenodd;clip-rule:evenodd;fill:#FE9D5B;}
	.st101{fill-rule:evenodd;clip-rule:evenodd;fill:#EE5802;}
	.st102{fill-rule:evenodd;clip-rule:evenodd;fill:#FF8A30;}
	.st103{fill-rule:evenodd;clip-rule:evenodd;fill:#16100D;}
	.st104{fill-rule:evenodd;clip-rule:evenodd;fill:#2A2E31;}
	.st105{fill-rule:evenodd;clip-rule:evenodd;fill:#090707;}
	.st106{fill-rule:evenodd;clip-rule:evenodd;fill:#FF6C0A;}
	.st107{fill-rule:evenodd;clip-rule:evenodd;fill:#1B1311;}
	.st108{fill-rule:evenodd;clip-rule:evenodd;fill:#FB954B;}
	.st109{fill-rule:evenodd;clip-rule:evenodd;fill:#FFA364;}
	.st110{fill-rule:evenodd;clip-rule:evenodd;fill:#282828;}
	.st111{fill-rule:evenodd;clip-rule:evenodd;fill:#ED7929;}
	.st112{fill-rule:evenodd;clip-rule:evenodd;fill:#FEFEFE;}
	.st113{fill-rule:evenodd;clip-rule:evenodd;fill:#FE6E0D;}
	.st114{fill-rule:evenodd;clip-rule:evenodd;fill:#F58D44;}
	.st115{fill-rule:evenodd;clip-rule:evenodd;fill:#FE8635;}
</style>
<g>
	<path class="st0" d="M96.4,0.4c-0.6,0.7,0.5,5.5,0.6,6.3l-7.6,12.5c0,0-0.1,0.1-0.1,0.1c-0.3,0.2-0.1,0.1-0.3,0.3l-5.2,3.9
		c-0.5,0.4-0.5,0.2-0.6,0.9l-6.9,16.3c-0.3,0.7-1.2,2.6-1.3,3.3c-0.3,0.4-0.3,0.1,0,0.6c-0.4,0.3-0.3,0.1-0.7,1.2
		c5.2,4.7,4.5,25.3-5.7,30.9l49.3-74.5L96.4,0.4L96.4,0.4z M22,56.8c-0.5,0-0.6,0.2-1.1,0.5l-15,8.9c-0.9,0.5-1.9,1-2.3,1.7
		c-0.4,0.3-0.7,1.4-0.8,1.9c-0.3,0.9-0.5,1.5-0.8,2.3c-2.6,7.8-2.2,4.2-0.8,12.1c0.2,1,0.5,1.8,0.5,2.6c0.6,1.2,1.2,2.4,1.8,3.6
		l2.3,4.5c0.2,0.4,0.3,0.5,0.5,1l5.6,11c0.3,0.4,0.2,0.3,0.5,0.8l2.3,4.6c0.7,1.4,1.2,2.4,2,3.9l37.5,52.7c1.3,1.7,0.5,1.2,1.5,1.6
		c-0.4,1.1,2.2,7.9,2.7,9.5l5,15.7c0.3,1.1,0.6,1.8,1,3l3.5,11c0.2,0.5,0.4,1,0.5,1.6l2.8,8.8c0.4,0.8,0,0.3,0.6,0.7
		c-0.1,0.6-0.1,0.2,0.1,0.7l30.2,41c0.6,0.4-0.8,0.2,0.5,0.1c-0.3,0.9-0.2,0.3,1.3,2.3l17.6,24c0.6,0.8,1,1.4,1.6,2.2l4.8,6.4
		c1.1,1,1.8,1.8,2.7,2.9l5.6,5.7c0,0,0.1,0.1,0.1,0.1l2.7,2.8c1,1,1.8,1.8,2.7,2.7l15.1,15.7c4.7,5.1,9.7,10.1,14.5,15
		c0.7,0.6,0.2,0.4,1.1,0.6c0.2,0.4,0.9,0.4,1.5,0.6l20.9,6.6c5.9,1.7,11.7,3.8,17.4,5.5l16.4,5.2c0.7,0.3,1.2,0.6,2,0.4
		c0.7,0.8,7.9,2.7,9.1,3.1c1.5,0.4,3.1,1,4.4,1.5l9.1,2.8c5.3,1.5,12.9,4.3,18.4,5.8c0.9,0.2,1.4,0.4,2.2,0.7
		c4.2,1.4,12.7,3.6,15.8,5.4l11.7,6.6c2.6,1.5,5.2,2.8,7.8,4.4l8.1,4.5c0.2,0.3,0.3,0.2,0.6,0.4l3.7-4.3c0.4-0.4,0.4-0.5,0.7-0.9
		l9.1-10.4c1.9-1.9,5.7-6.8,7.7-8.7l2.3-2.7c0.6-0.7,0.5-0.5,0.6-0.9c0,0,0.5-0.1,0.6-0.2c0-0.8,0-0.1-0.2-0.4l-5.2-8
		c-0.4-0.5-0.5-0.7-0.9-1.2c-0.3-0.5-0.5-0.9-0.9-1.4c-3.1-4.2-10.9-16.2-14.1-21.1l-7.2-10.7c0-1.3-0.5-2.2-0.8-3.4l-5.5-25.1
		c0.6,0.3,18.9,1.6,23.1,1.7c3,0,7.5,0.8,10.5,0.9c3,0,5.8,0.3,8.4,0.6c2.8,0.3,5.7,0.2,8.5,0.5c5.5,0.6,11.4,0.7,17,1.3
		c1.4,0.1,2.8,0.1,4.2,0.2l8.4,0.7c1.1,0.2,3.1,0.2,4.3,0.3c1.3,0.1,3,0.2,4.2,0.2c1.2,0,3.1,0.3,4.2,0.4c2.9,0.3,5.8,0,8.2,0.8
		c4.6,1.5,8.8,3.1,13.4,4.6l57.1,19.7c3.5,1.2,6.7,2.5,10.3,3.5c4.4,1.3,9,3.2,13.4,4.7l26.9,9.2c4.3,1.3,8.4,3,12.6,4.4
		c0.6,0.2,0.4,0.2,0.9,0.3c-0.2-0.8-2.5-2.5-3.2-3.1c-2.3-1.9-4.3-4.2-6.6-6L514,323.6c-0.4-0.4-0.6-0.7-1-1.1l-2.2-2
		c-0.5-0.4-0.7-0.5-1.2-0.9c-0.4-0.4-0.7-0.8-1.2-1.1c-2.4-1.9-4.3-4.2-6.6-6c-0.9-0.7-1.4-1.3-2.2-2l-14.4-13.1
		c-0.5-0.5-0.7-0.5-1.2-0.9l-1.8-1.7c0,0-0.1-0.1-0.1-0.1l-17.2-15.5c0,0-0.2-0.2-0.2-0.2l-7.2-6.5c-0.4-0.4-0.7-0.7-1-1
		c-0.5-0.5-0.7-0.5-1.3-1c-2.1-2.1-4.5-3.9-6.6-6l-14.5-13c-0.4-0.4-0.6-0.7-1-1.1c-0.5-0.4-0.7-0.5-1.2-0.9c-0.4-0.4-0.6-0.7-1-1.1
		c-0.5-0.5-0.7-0.5-1.2-0.9L413,232.3c-3.3-2.7-8.2-7.7-11.2-10l-8.8-8c-2.3-1.9-4.3-4.1-6.6-6l-22.2-20c-0.4-0.4-0.6-0.7-1-1.1
		l-10-8.9c-2.9-2.9-8.2-7.1-11.1-10.1l-3.3-3c-0.4-0.4-0.7-0.6-1.1-1l-12.3-11c-0.4-0.4-0.6-0.7-1-1.1c-0.5-0.5-0.7-0.5-1.2-0.9
		c-0.4-0.4-0.6-0.7-1-1.1l-13.4-12.1c-0.9-0.7-1.4-1.3-2.2-2l-17.8-16c-0.4-0.3-0.7-0.6-1.1-1L274.4,107c-0.5-0.4-0.7-0.5-1.2-0.9
		l-11-10c-0.4-0.4-0.6-0.7-1.1-1l-1.5-1c-0.4-0.7-6.6-4.6-8.2-5.9c-1.1-0.8-2.3-0.8-4.1-0.6c-1.5,0.2-2.9,0.1-4.7,0.2
		c-1.4,0-1.9,0.2-4.6,0.2l-9.2,0.5l1.5-10c0.2-1.8,0.2-3.4,0.2-5.4l-0.2-5.3c0,0,0-0.1-0.1-0.1c0-0.6,0.3-16.2-0.2-17
		c0-1.3-0.3-2.2-0.5-3.5c-0.2-1.3-0.2-2.5-0.5-3.6l6.3-23c0.3-0.2,0.2,0.5,0.2-0.5c-0.5-0.5-1.4-0.3-2.3-0.3l-8.2,0
		c-1.8,0-3-0.2-5-0.2c-1.9,0-3.8,0-5.6,0l0,0.2c-0.7-1.1-3.9-2-5.3-2.7l-16.2-7.6c-1.3-0.6-6.3-3.2-7.6-3.4l-29-4.6
		c-3.4-0.6-6.6-1-10-1.5h-0.2l-28.3,2.3l-63.3,67l0,0c-0.2-0.6,0.3-0.4-0.4-0.5c-0.1-0.4-1-1.4-1.4-1.9l-2.9-3.8
		c-0.5-0.7-0.9-1.2-1.5-1.9c-0.7-1-5.4-7.1-6-7.4c0,0-0.1-0.1-0.1,0l-1.8,0c-1.3,0.2-2.8,0.4-4.2,0.7l-8.9,1.2
		c-1.6,0.2-3,0.5-4.4,0.7c-1.1,0-0.4-0.1-0.6,0.2C21.6,56.5,22.3,56.4,22,56.8L22,56.8z M214.5,19.9l1.7,7.2l-11.6,4.4
		C205,30.6,214,20.1,214.5,19.9L214.5,19.9z M68.6,76.9L56.4,70c-1.2-0.7-0.9-0.9-1.8-0.7c0.5,1,9.6,12.3,10.9,14l3.7,4.6l0.1-1
		c0.2-1.7-0.1-3.5-0.1-5.3C69.1,80.2,69.3,77.7,68.6,76.9L68.6,76.9z M17.3,116.2C9.6,114,59,132.2,17.3,116.2L17.3,116.2z
		 M129,297.4c145.4-5.1,20.9-4.2-0.5,0.1L129,297.4L129,297.4z"/>
	<path class="st1" d="M225.4,103.2c-0.3,0.8,0,0.2-0.5,0.5c-0.2,0.6-2.5,2.8-3,3.4l-6.4,6.6c-1,1.1-2,2.4-3.1,3.2
		c-1.6,1.4-2,1.8-4.3,3c-1.6,0.8-3.1,1.7-4.7,2.4c-3.2,1.6-6.4,3.3-9.5,5c-3.1,1.7-6.3,3.2-9.5,4.9c-1.4,0.7-8.7,4.7-9.6,4.8
		c-0.4,0.4-0.1,0.3-0.7,0.6l-1.5,0.3l-1.3,0.7c-0.4,0.1-0.8,0.3-1.2,0.4c-0.9,0.3-1.7,0.6-2.6,0.9l-15.5,5.5
		c-3.5,1.2-6.9,2.4-10.4,3.7c-3.5,1.3-6.9,2.3-10.3,3.7l-10.5,3.7c-0.7,0.3-2.5,1.1-3.1,1l0.3,0.1c0.8-0.4,2-0.7,3-0.6
		c0.6-0.6,13.1-3.8,13.7-3.8c0.7-0.7,19.5-5.6,22.2-6.3l16.8-4.6c0.9-0.2,1.9-0.5,2.8-0.8c0.9-0.3,1.6-0.9,2.4-1.1
		c0.5-0.5,1.6-1.2,2.3-1.2c0.7-0.9,22.6-12.6,24.9-13.8c2.5-1.5,5.8-3.4,8.4-4.5l24.2-14.3c1.6,0.5,5.5,3.2,7.1,4.2l20,12.3
		c0.5,0.3,0.2,0.1,0.3,0.2c1.5,0.5,4.9,2.8,6.4,3.8l24.9,15.2c1.8,1.1,4.7,2.5,5.8,4.1l7.4,10.2c0.2,0.2,0.4,0.5,0.5,0.7
		c0.3,0.5,0.2,0.3,0.3,0.7c1,0.5,2.3,2,3.2,2.9c2.3,2.2,20.2,19.6,20.9,20.5c1.7,5.7,3.3,11.4,5,17.2c1.7,5.6,2,4.1-0.2,8.1
		c-0.7,1.3-3.2,6.6-3.9,7.1c-0.4,0.7-1.1,0.8-1.9,1.2c-0.7,0.3-1.2,0.6-1.9,0.9c-1.1,0.6-2.4,1.1-3.7,1.7l-18.7,8.6
		c-0.6,0.3-1.2,0.5-1.9,0.8c-1.7,0.8-1.6,0.9-1.9,0.3c-0.2,0-24.4-15.2-28.5-18.2c0.3,1.2,3.4,6.3,4.2,7.8c1.4,2.5,2.8,5,4.2,7.6
		c1.1,1.9,8.2,14.2,8.3,15.1c0.2,0.2,0.1,0.1,0.4,0.4c0.6,0.8,6.3,27.2,6.5,28.1c0.4,1.9,5.9,27.7,6.6,28.6
		c0.6,0.3,18.9,1.6,23.1,1.7c3,0,7.5,0.8,10.5,0.9c3,0,5.8,0.3,8.4,0.6c2.8,0.3,5.7,0.2,8.5,0.5c5.5,0.6,11.4,0.7,17,1.3
		c1.4,0.1,2.8,0.1,4.2,0.2l8.4,0.7c1.1,0.2,3.1,0.2,4.3,0.3c1.3,0.1,3,0.2,4.2,0.2c1.2,0,3.1,0.3,4.2,0.4c2.9,0.3,5.8,0,8.2,0.8
		c4.6,1.5,8.8,3.1,13.4,4.6l57.1,19.7c3.5,1.2,6.7,2.5,10.3,3.5c4.4,1.3,9,3.2,13.4,4.7l26.9,9.2c4.3,1.3,8.4,3,12.6,4.4
		c0.6,0.2,0.4,0.2,0.9,0.3c-0.2-0.8-2.5-2.5-3.2-3.1c-2.3-1.9-4.3-4.2-6.6-6L514,323.6c-0.4-0.4-0.6-0.7-1-1.1l-2.2-2
		c-0.5-0.4-0.7-0.5-1.2-0.9c-0.4-0.4-0.7-0.8-1.2-1.1c-2.4-1.9-4.3-4.2-6.6-6c-0.9-0.7-1.4-1.3-2.2-2l-14.4-13.1
		c-0.5-0.5-0.7-0.5-1.2-0.9l-1.8-1.7c0,0-0.1-0.1-0.1-0.1l-17.2-15.5c0,0-0.2-0.2-0.2-0.2l-7.2-6.5c-0.4-0.4-0.7-0.7-1-1
		c-0.5-0.5-0.7-0.5-1.3-1c-2.1-2.1-4.5-3.9-6.6-6l-14.5-13c-0.4-0.4-0.6-0.7-1-1.1c-0.5-0.4-0.7-0.5-1.2-0.9c-0.4-0.4-0.6-0.7-1-1.1
		c-0.5-0.5-0.7-0.5-1.2-0.9L413,232.3c-3.3-2.7-8.2-7.7-11.2-10l-8.8-8c-2.3-1.9-4.3-4.1-6.6-6l-22.2-20c-0.4-0.4-0.6-0.7-1-1.1
		l-10-8.9c-2.9-2.9-8.2-7.1-11.1-10.1l-3.3-3c-0.4-0.4-0.7-0.6-1.1-1l-12.3-11c-0.4-0.4-0.6-0.7-1-1.1c-0.5-0.5-0.7-0.5-1.2-0.9
		c-0.4-0.4-0.6-0.7-1-1.1l-13.4-12.1c-0.9-0.7-1.4-1.3-2.2-2l-17.8-16c-0.4-0.3-0.7-0.6-1.1-1L274.4,107c-0.5-0.4-0.7-0.5-1.2-0.9
		l-11-10c-0.4-0.4-0.6-0.7-1.1-1l-1.5-1c0.2,0.6,0.8,0.3-1.7,0.9c-7.2,1.7-16.5,4.3-23.8,6.2C231.8,101.7,227.5,103.1,225.4,103.2
		L225.4,103.2z"/>
	<path class="st2" d="M120.7,156.9c0.6,0.5,3,5.1,3.6,6.1l3.5,6.4c2.3,4.4,4.7,8.2,7.1,12.7l3.5,6.3c1.2,2.1,2.4,4.3,3.5,6.4
		c2.3,4.3,4.7,8.5,7.1,12.6c2.7,4.7,5.9,11.1,8.8,15.8l2.6,4.7c0.2,0.4,0.6,1.2,0.9,1.6c0.6,1.1,1.2,2.1,1.8,3.2
		c1.2,2.1,2.4,4.2,3.5,6.3l10.5,19c-0.1,0.7-0.3,0.6,0.3,0.6l0-0.4c1.1-1.8,2.1-3.6,3.2-5.5l5.7-9.7c0.4-0.6,0.6-0.9,0.9-1.4
		l6.6-11.1c0.2-0.3,0.5-0.9,0.8-1.3l20.4-34.6c0.6-0.9,1.1-1.8,1.6-2.8l13.1-22.2l0-0.1c-8-1.3-16-2.7-24-4.2l-71.3-12.3
		C133.8,153.1,121.4,156.4,120.7,156.9L120.7,156.9z"/>
	<path class="st3" d="M117.7,157.6c-0.1,0.1-0.1,0.1-0.2,0.2c-0.1,0-0.1,0.1-0.2,0.1c-1.2,0.7-0.5-0.1-1,0.5l-3.5,26.1
		c0,0.1,0,0.3,0,0.4l-1.6,12.3c0,0.1,0,0.1,0,0.2c0,0.3,0,0.4-0.1,0.7c0,0.1,0,0.1,0,0.2l-6.4,47.7c-0.3,1.7-0.3,3.7-0.9,6.5
		c-0.2,1.1-0.2,2.2-0.4,3.3c-0.1,0.5-0.1,1.1-0.2,1.6l-0.7,5.1c1.1-0.2,1.6,0,2.5-0.1l4.8-0.5c1.5,0,0.5,0.3,2.3-0.1
		c1.2-0.3,1.5,0.1,2.4,0l4.7-0.3c1.4,0,1,0,2.3-0.2l4.8-0.2c1.1,0,1.1-0.4,2.3-0.3c1.8,0.1,0.2,0.3,2.1-0.1l9.4-0.5
		c1.1-0.1,1.4,0.2,2.4,0l4.8-0.3c1.6,0.1,8.7-0.5,9.4-0.5c1.6,0.1,0.7-0.1,2.1-0.2c1.3-0.1,0.9,0.4,2.4,0l13.8-0.8
		c1.3,0.1,0.7,0.4,1.9-0.2l-10.5-19c-1.1-2.2-2.4-4.2-3.5-6.3c-0.6-1.1-1.2-2.2-1.8-3.2c-0.3-0.5-0.6-1.2-0.9-1.6l-2.6-4.7
		c-2.8-4.7-6-11.1-8.8-15.8c-2.4-4.2-4.8-8.4-7.1-12.6c-1.1-2-2.3-4.2-3.5-6.4l-3.5-6.3c-2.3-4.4-4.8-8.2-7.1-12.7l-3.5-6.4
		c-0.6-1.1-2.9-5.6-3.6-6.1C119.8,156.9,118.5,157.2,117.7,157.6L117.7,157.6z"/>
	<path class="st4" d="M113.5,156.5c0.2,0.3-0.1,0,0.2,0.4l-0.8-0.3c-0.4,1.4-1,1.9-1.9,3.3l-6,9.3c0,0-0.1,0.1-0.1,0.1l-2.8,4.3
		c-0.3,0.4-0.4,0.6-0.6,1l-0.7,1c-0.3,0.5-0.3,0.4-0.6,0.9l-1.3,2c-1.1,1.4-0.7,1.2-1.6,2.4l-2.9,4.4c-0.2,0.4-0.4,0.7-0.7,1
		l-12.2,18.7c-0.2,0.4-0.4,0.7-0.7,1.1c-0.2,0.3-0.5,0.7-0.6,1l-3.1,4.8c-0.5,0.8-0.9,1.2-1.3,2l-2.5,3.8c-0.3,0.4-0.4,0.6-0.6,1
		c-0.2,0.3-0.1,0.1-0.3,0.5c0,0-0.1,0.4-0.2,0.2c0,0-0.1,0.1-0.1,0.1l-0.3,0.9c-0.1,0.6-0.1,0.2,0.1,0.7l30.2,41
		c0.6,0.4-0.8,0.2,0.5,0.1c1,1,42.7,24.3,43.5,24.7c1.8,1,3.5,2,5.3,3.1c1.8,1,3.8,2.1,5.5,3.1c6.1,3.7,15.7,8.9,21.9,12.4
		c1.8,1,3.7,2.1,5.5,3.1l5.6,3.3l0-0.1c0.5-0.7-1.1-5.6-1.3-6.4l-11.2-46.8c-0.6,0-0.4,0.1-0.3-0.6c-1.2,0.6-0.6,0.3-1.9,0.2
		l-13.8,0.8c-1.5,0.3-1-0.1-2.4,0c-1.4,0.1-0.5,0.3-2.1,0.2c-0.8-0.1-7.9,0.6-9.4,0.5l-4.8,0.3c-0.9,0.2-1.3-0.1-2.4,0l-9.4,0.5
		c-1.9,0.4-0.3,0.2-2.1,0.1c-1.3-0.1-1.3,0.3-2.3,0.3l-4.8,0.2c-1.3,0.2-0.9,0.2-2.3,0.2l-4.7,0.3c-0.9,0.1-1.2-0.3-2.4,0
		c-1.9,0.4-0.8,0-2.3,0.1l-4.8,0.5c-0.9,0.1-1.4-0.1-2.5,0.1l0.7-5.1c0.1-0.5,0.1-1.2,0.2-1.6c0.1-1,0.1-2.2,0.4-3.3
		c0.6-2.8,0.5-4.8,0.9-6.5l6.4-47.7c0-0.1,0-0.1,0-0.2c0-0.3,0-0.4,0.1-0.7c0-0.1,0-0.1,0-0.2l1.6-12.3c0-0.1,0-0.3,0-0.4l3.5-26.1
		c0.5-0.6-0.2,0.2,1-0.5c0.1,0,0.1-0.1,0.2-0.1c0.1,0,0.1-0.1,0.2-0.2l-0.3-0.1l-1,0.3c-0.2-1.7,0.7-4.9,0.7-6.1
		c0-0.5,0.1-0.1,0-0.8l0.3,0c-0.2-0.4,0.2-0.3-0.5-0.3c0,0.5-1,1.8-1.4,2.5c0,0-0.1,0.1-0.1,0.1l-0.3,0.4
		C114.8,154.2,113.6,155.9,113.5,156.5L113.5,156.5z"/>
	<path class="st5" d="M256.1,346.1c0.2,0.5-0.2,0.3,0.3,0.4l43,10.6c3.5,0.8,41,10.4,43.2,10.6l-5.2-8c-0.4-0.5-0.5-0.7-0.9-1.2
		c-0.3-0.5-0.5-0.9-0.9-1.4c-3.1-4.2-10.9-16.2-14.1-21.1l-7.2-10.7c-0.9-0.9-19.7-29.2-21.3-31.7c-0.4-0.6-6.8-9.9-6.9-10.6
		l-0.4,0.1l-29,62.8C256.3,346.1,256.5,345.8,256.1,346.1L256.1,346.1z"/>
	<path class="st6" d="M177.5,258.3l50.5,0.3c0.3-3.3,0.2-8.1,0.2-11.4c0-3.6,0.1-7.5,0.2-11.1c0.3-7.3,0.4-14.8,0.4-22
		c0-1.9,0.2-3.8,0.2-5.7c0-1.9-0.1-3.8,0.1-5.6c0.4-6.8,0.3-15,0.4-22.1l0.1-10.9l-13.1,22.2c-0.5,1-1,1.9-1.6,2.8l-20.4,34.6
		c-0.3,0.4-0.6,1-0.8,1.3l-6.6,11.1c-0.3,0.5-0.5,0.9-0.9,1.4l-5.7,9.7C179.6,254.8,178.6,256.5,177.5,258.3L177.5,258.3z"/>
	<path class="st7" d="M228.3,258.5l-0.1,0.2l-0.1,0.2l57.6,23.9c0-2.7-0.7-6.5-1-9.4c-0.9-7.9-6.6-62.6-7.4-64.3
		c-0.9,0.7-2.2,2.2-3.1,3.1c-1.1,1.1-1.9,2-3,3.1c-12.3,12.2-24.5,24.8-36.8,37.1c-0.8,0.8-2.4,2.1-3.1,3c-0.6,0.7-0.9,0.9-1.6,1.6
		l-1.1,1.2c0,0,0,0.6-0.2,0.3C228.4,258.3,228.3,258.5,228.3,258.5L228.3,258.5z"/>
	<path class="st8" d="M190.6,312l-0.2,0.2l0.4,0.5c1.5,0.3,9.7,4.9,12.3,6.2c1.4,0.7,2.7,1.4,4.2,2.1c10.5,5.6,22,11.2,32.6,16.9
		c2.6,1.4,5.3,2.7,8.1,4.2l7.6,4c0.4,0.3,0.2,0,0.5,0.5l0.4-0.2c-0.5-0.1-0.1,0.1-0.3-0.4l-20-63.8l-0.7-1.2L190.6,312L190.6,312z"
		/>
	<path class="st6" d="M252.2,133.7l-20.7,33.6c-0.5,0.8-1.1,1.5-1.3,2.4c1.4,0,5.1,1.6,7.2,2.2l15.9,5.3c0.1,0,0.2,0.1,0.3,0.1
		l2.7,0.9c0.2,0.1,0.4,0.2,0.6,0.2c0.5,0.2,0.8,0.2,1.3,0.4c0.1,0,0.6,0.2,0.6,0.2l12.8,4.3c4.2,1.5,9.2,2.8,13.4,4.5
		c0.5,0.2,1,0.3,1.3,0.4l4.9,1.6c0.9,0.2,1.6,0.5,2.5,0.8c0.5,0.1,0.7,0.2,1.1,0.4c0.2,0.1,0.4,0.1,0.6,0.2l4.9,1.6
		c1.4,0.5,7.3,2.3,7.9,2.9l0.7,0.2c-0.6-1.6-0.8-0.9-1.6-1.9c-0.4-0.4-0.4-0.7-0.8-1.1c-0.5-0.5-0.6-0.4-1-0.9
		c-0.6-0.6-0.8-1.3-1.5-2c-0.4-0.4-0.6-0.4-1-0.9c-0.3-0.3-0.5-0.7-0.8-1.1l-2.6-2.9c-2-1.7-0.8-0.9-1.8-2c-0.6-0.6-0.5-0.3-1-0.8
		c-0.6-0.6-0.9-1.4-1.6-2.1c-0.4-0.4-0.5-0.4-0.9-0.8l-3.5-3.9c-0.6-0.5-0.5-0.2-1-0.9c-0.3-0.4-0.4-0.7-0.8-1.1
		c-0.5-0.5-0.5-0.2-1-0.8c-0.6-0.7-0.9-1.4-1.6-2l-2.8-2.8c-1.2-1.3-0.5-1-1.8-2L279,163c-1.4-1.9-4.5-4.9-5.2-5.9l-2.6-2.8
		c-0.9-0.7-3-3.6-4.5-5c-1.4-1.2-0.8-1.1-2.7-2.7c-0.4-0.4-0.5-0.6-0.8-1.1c-0.7-0.9-1-0.7-1.8-1.8c-1.1-1.7-0.6-0.9-1.8-2l-5.3-5.9
		c-0.8-1-1.2-0.6-1.8-2.1l0.1,0L252.2,133.7L252.2,133.7z"/>
	<path class="st9" d="M236.2,282.3l20,63.8c0.4-0.3,0.1,0,0.4-0.4l29-62.8c-3.5-0.4-8.9-0.6-12.5-0.5c-3.9,0-8.3-0.3-12.2-0.5
		c-4.2-0.2-8.6-0.1-12.7-0.4c-3.7-0.3-8.5-0.4-12.3-0.4L236.2,282.3L236.2,282.3z"/>
	<path class="st10" d="M63.5,164.1c0.5,0.6,0.2,1.8,0.5,3.3c0.2,1.3,0.5,2.4,0.6,3.5l4.3,29.6c0,0.1,0,0.1,0,0.2l0.8,5.9
		c0,0.1,0,0.1,0,0.2l0.1,1.3c0.2,2.4,0.6,3.3,0.8,5.3c0.1,0.5,0.1,1.1,0.1,1.6l0.8,4.6c0.3,0.6,0.5,0.3,0.5,0.2c0,0,0.1-0.1,0.1-0.1
		c0.1,0.2,0.2-0.2,0.2-0.2c0.3-0.3,0.2-0.2,0.3-0.5c0.3-0.4,0.4-0.6,0.6-1l2.5-3.8c0.5-0.8,0.9-1.3,1.3-2l3.1-4.8
		c0.2-0.3,0.4-0.7,0.6-1c0.2-0.4,0.4-0.7,0.7-1.1l12.2-18.7c0.2-0.4,0.4-0.6,0.7-1l2.9-4.4c0.9-1.2,0.5-1,1.6-2.4l1.3-2
		c0.3-0.5,0.3-0.5,0.6-0.9l0.7-1c0.3-0.4,0.4-0.6,0.6-1l2.8-4.3c0,0,0.1-0.1,0.1-0.1l6-9.3c0.9-1.4,1.5-1.9,1.9-3.3
		c-0.9-0.5-6.7-3.4-7.4-3.4c-1.9,0.3-3.8,0.8-5.5,1.2c-1.9,0.5-3.4,0.8-5.4,1.3c-3.4,0.9-7,1.6-10.6,2.6l-18.7,4.6
		c-0.2,0-1.3,0.3-1.4,0.3C63.1,163.4,63.3,163,63.5,164.1L63.5,164.1z"/>
	<path class="st11" d="M190,312l0.4,0.2l0.2-0.2c0.5-1.2,12.1-17.5,14-20.1l7-10c0.9-1.2,1.5-2.1,2.3-3.3c1.5-2.2,3-4.5,4.7-6.7
		l9.4-13.3l-50.5-0.3l0,0.4l11.2,46.8C188.9,306.4,190.4,311.3,190,312L190,312z"/>
	<path class="st12" d="M308.8,195.8l0.9,0c-0.2-2.1,0.1-7.3,0.4-9.5c0.3-2.9,0.4-6.5,0.4-9.5c0.1-2.9,1.3-17.2,0.7-18.8
		c-4.9-1.9-9.9-4.1-14.7-6.1c-4-1.6-42.1-17.8-44-18.3c0.6,1.6,1,1.2,1.8,2.1l5.3,5.9c1.2,1.1,0.7,0.4,1.8,2
		c0.7,1.1,1.1,0.9,1.8,1.8c0.3,0.4,0.4,0.7,0.8,1.1c1.9,1.7,1.3,1.5,2.7,2.7c1.4,1.3,3.6,4.3,4.5,5l2.6,2.8c0.7,1,3.8,4,5.2,5.9
		l2.6,2.8c1.3,1,0.6,0.7,1.8,2l2.8,2.8c0.7,0.6,1,1.3,1.6,2c0.5,0.6,0.5,0.4,1,0.8c0.4,0.4,0.5,0.7,0.8,1.1c0.5,0.7,0.4,0.4,1,0.9
		l3.5,3.9c0.4,0.4,0.5,0.4,0.9,0.8c0.8,0.7,1,1.5,1.6,2.1c0.6,0.6,0.5,0.2,1,0.8c1,1.1-0.2,0.3,1.8,2l2.6,2.9
		c0.3,0.4,0.5,0.7,0.8,1.1c0.4,0.4,0.6,0.4,1,0.9c0.7,0.7,0.9,1.4,1.5,2c0.5,0.5,0.6,0.3,1,0.9c0.3,0.4,0.4,0.7,0.8,1.1
		C308.1,194.9,308.2,194.3,308.8,195.8L308.8,195.8z"/>
	<path class="st13" d="M229.5,169.4l0.1,0.2l0,0.1l-0.1,10.9c-0.2,7.1,0,15.3-0.4,22.1c-0.1,1.9-0.1,3.8-0.1,5.6
		c0,1.9-0.2,3.8-0.2,5.7c-0.1,7.3-0.2,14.8-0.4,22c-0.1,3.6-0.2,7.6-0.2,11.1c0,3.3,0.1,8.2-0.2,11.4l0.2,0.1l0.1-0.2
		c0.3-1.9,5.1-13.5,6.1-16.2l15.6-40c0.5-1.2,2.6-7.5,3.3-8V194l-18.9-19.8c-0.5-0.5-1-0.9-1.5-1.4c-0.9-0.9-2-2.1-2.8-3.2
		c0,0-0.1-0.1-0.1-0.1c0,0-0.1-0.1-0.1-0.1c0,0-0.1-0.2-0.2-0.2C229.7,169.5,230,169.5,229.5,169.4L229.5,169.4z"/>
	<path class="st14" d="M257.9,348.1c0.9,0.1,4.7,3.3,5.7,4.1c9,6.9,19.4,14.8,28.1,21.7l11.2,8.8c0.5-0.7,8.2-3.3,9.6-3.8l29.1-10.6
		c0.6-0.1,0.3-0.4,0.5,0.1c0,0,0.5-0.1,0.6-0.2c0-0.8,0-0.1-0.2-0.4c-2.2-0.2-39.7-9.7-43.2-10.6l-43-10.6c0.3,0.3,0.5,0.5,0.8,0.8
		L257.9,348.1L257.9,348.1z"/>
	<path class="st15" d="M134.4,153.2l71.3,12.3c7.9,1.4,16,2.9,24,4.2l-0.1-0.2c-3.8-2-8.7-5-12.7-7.3c-4.2-2.4-8.4-4.9-12.7-7.3
		c-4.3-2.4-8.4-4.8-12.7-7.3c-2.2-1.3-4.1-2.4-6.4-3.7c-1.3-0.7-5.4-3.3-6.4-3.5c-0.9,0.1-1.5,0.8-2.4,1.1c-0.9,0.3-1.9,0.5-2.8,0.8
		l-16.8,4.6C153.9,147.6,135.1,152.5,134.4,153.2L134.4,153.2z"/>
	<path class="st16" d="M172.5,342.9l0-0.2c9-0.6,20.7-0.8,30.2-1.1c2.9-0.1,7.8-0.6,10.5-0.3c-0.3-0.5,0.4-0.2-0.7-0.5
		c-0.3,0.1-38.1-19.6-41.9-21.6c-1.5-0.8-41.5-21.8-42-21.7l0.5-0.1c-0.3-0.2,0.4-0.2-0.6-0.3c-0.6,0-0.2-0.2-0.5,0.2
		c1.1,1,1.8,1.8,2.7,2.9l5.6,5.7c0,0,0.1,0.1,0.1,0.1l2.7,2.8c1,1,1.8,1.8,2.7,2.7l15.1,15.7c0.5,0.6,0.9,0.9,1.4,1.5l13.1,13.6
		C172.1,343,171.6,342.8,172.5,342.9L172.5,342.9z"/>
	<path class="st8" d="M228.3,258.5c0,0,0.1-0.2,0.1-0.1c0.2,0.3,0.2-0.2,0.2-0.3l1.1-1.2c0.7-0.7,1-0.8,1.6-1.6
		c0.7-0.9,2.3-2.2,3.1-3c12.3-12.3,24.5-24.9,36.8-37.1c1.1-1.1,2-2,3-3.1c0.9-0.9,2.2-2.3,3.1-3.1l0.5,0l-18.4-11.2
		c-1.8-1.1-4.2-2.8-6-3.6c-0.7,0.5-2.8,6.7-3.3,8l-15.6,40C233.4,245,228.6,256.6,228.3,258.5L228.3,258.5z"/>
	<path class="st17" d="M212.5,340.9c1.1,0.3,0.4,0,0.7,0.5c0.1,0.5,4.6,5.2,5.5,6.3l12.2,13.5c1,0.1,5.3-2.7,6.3-3.3
		c2.1-1.2,4.1-2.4,6.1-3.7l9.3-5.6c0.9-0.6,2.2-1.4,3.3-1.9c-0.3-0.5,0-0.2-0.5-0.5l-7.6-4c-2.9-1.5-5.6-2.8-8.1-4.2
		c-10.6-5.7-22.1-11.3-32.6-16.9c-1.5-0.8-2.7-1.4-4.2-2.1c-2.5-1.3-10.7-5.9-12.3-6.2l5.5,7.1c1.8,2.3,3.5,4.6,5.4,7
		C202.5,327.8,212.1,339.9,212.5,340.9L212.5,340.9z"/>
	<path class="st18" d="M40.6,124.5c-0.3,0.3,0,0.1-0.6,0.2c0.3,1.2,0.7,1.1,1.1,2.3c0.5,0.3,9.9,16.2,11,18l8.2,13.6
		c0.6,1,2.4,3.6,2.7,4.5c0.6-0.3,0.4-0.1,1-1.4l11.4-22.4c0.5-0.7,0-0.4,0.7-0.4c-0.3-0.6-0.3,0,0-1c0,0,0.3-0.7,0.4-0.7
		c0.3-0.5,0.4-0.9,0.7-1.3l-2-15.9c-0.5-0.6-0.5-2.2-0.6-3.1l-0.4-0.3c-0.2,0.7,0.3,0.3-2,0.8c-0.7,0.1-1.3,0.3-2.1,0.5l-27.4,6.3
		C41.9,124.5,41.2,124.9,40.6,124.5L40.6,124.5z"/>
	<path class="st19" d="M127.9,297.3c0.3-0.3,0-0.2,0.5-0.2c1,0.1,0.3,0,0.6,0.3c1.3,0,28.6,6.8,30.5,7.3c2.7,0.7,28.3,7.1,30.5,7.3
		l-5.6-3.3c-1.8-1-3.7-2.1-5.5-3.1c-6.2-3.5-15.7-8.7-21.9-12.4c-1.7-1-3.8-2.1-5.5-3.1c-1.8-1-3.6-2.1-5.3-3.1
		c-0.8-0.4-42.5-23.7-43.5-24.7c-0.3,0.9-0.2,0.3,1.3,2.3l17.6,24c0.6,0.8,1,1.4,1.6,2.2L127.9,297.3L127.9,297.3z"/>
	<path class="st20" d="M277.8,209.1c4.1,3,28.2,18.2,28.5,18.2l0.4-0.1c-0.3-3.3,3.3-29.9,2.7-30.8c-0.4-0.6-0.2-0.1-0.3-0.1
		l0.7-0.2l-0.1-0.3l-0.9,0l-0.7-0.2c-0.4,0.4,0.1,0.3-1.7,0.2c-0.7,0-1,0-1.7,0l-6.9-0.4c-1.2-0.1-2.5,0.2-3.4,0
		c-1.5-0.2-1.8-0.4-3.5-0.2c-1.4,0.1-1.9-0.3-3.3-0.3l-17.2-0.6c-1.5-0.2-2.4,0.1-3.5,0c-1.3-0.1-1.8-0.4-3.4-0.3
		c-1.7,0.2-1.8-0.1-3.3-0.2c-1.4,0-2,0.1-3.4,0c-1.2-0.1-2.2,0-3.3-0.1v0.3c1.8,0.8,4.2,2.5,6,3.6L277.8,209.1L277.8,209.1z"/>
	<path class="st21" d="M215.1,46.1c0.1,0.2,0.3-0.3-0.2,1.1l-16.8,38.7c-0.7,1.6-2,4.2-2.5,6L230.1,77l0.1-9.4
		c0-0.6,0.3-16.2-0.2-17l-0.1,0.5c-2.3-1-4.6-2-7.1-3c-1.6-0.7-5.9-2.7-7.4-2.9L215.1,46.1L215.1,46.1z"/>
	<path class="st22" d="M286,282.9c0.2,0.7,6.5,10,6.9,10.6c1.7,2.5,20.4,30.9,21.3,31.7c0-1.3-0.5-2.2-0.8-3.4l-5.5-25.1
		c-0.7-0.9-6.2-26.7-6.6-28.6c-0.2-0.9-5.9-27.3-6.5-28.1c-0.2-0.3-0.1-0.2-0.4-0.4c0.4,1.5-3.6,19-4.2,21.8
		C289.6,264.3,285.9,281.2,286,282.9L286,282.9z"/>
	<path class="st23" d="M212.5,340.9c-0.4-0.9-10-13.1-10.8-14.1c-1.9-2.4-3.6-4.6-5.4-7l-5.5-7.1l-0.4-0.5L190,312l0,0.1
		c-2.1-0.3-27.8-6.7-30.5-7.3c-1.9-0.5-29.2-7.3-30.5-7.3l-0.5,0.1c0.5-0.1,40.5,20.9,42,21.7C174.4,321.2,212.2,341,212.5,340.9
		L212.5,340.9z"/>
	<path class="st8" d="M138.6,53c0.3,1.3,9,18.5,9.4,20.2c0.2,0.2,0.2,0.3,0.3,0.4c1.4-0.1,7.9,1.5,9.8,1.9c3.3,0.7,6.5,1.3,9.7,2.1
		c6.5,1.4,13.1,2.7,19.5,4.1c0.4,0.1,0.2,0,0.5,0.2c0-0.5-0.1-0.2,0.2-0.6l-0.4-0.6c-0.1,0.9,0.1,0.4-0.2,0.7l-4.1-4.2
		c-8.1-8.5-16.3-16.6-24.2-25.1l-3.1-3.1c-0.5-0.5-0.6-0.5-0.9-1.1l-0.1-0.1l-0.4-0.1c-0.7,0.5-6.6,2.2-8,2.7
		C145.2,50.7,139.2,52.3,138.6,53L138.6,53z"/>
	<path class="st5" d="M159.5,101.4l-0.2,0.2l0.1,0.4l0.3,0.1c0.5,0.3,0.6,1,1,1.9l6.2,15.6c1.1,2.8,6.7,16.3,7,17.9
		c0.6-0.3,0.4-0.2,0.7-0.6c-0.4-0.6,0.7-2.1,1-2.7c0.5-1,0.9-1.9,1.3-2.9c0.9-2,1.7-3.6,2.6-5.6l15.8-33.7c-1.5,0-28.3,7.9-33.4,9.3
		C158.8,102.3,159.9,102.2,159.5,101.4L159.5,101.4z"/>
	<path class="st24" d="M256,346.7c-1,0.5-2.3,1.3-3.3,1.9l-9.3,5.6c-2,1.3-4,2.5-6.1,3.7c-1.1,0.6-5.3,3.5-6.3,3.3l-0.2,0
		c0.7,0.8,7.9,2.7,9.1,3.1c1.5,0.4,3.1,1,4.4,1.5l9.1,2.8c5.3,1.5,12.9,4.3,18.4,5.8c0.9,0.2,1.4,0.4,2.2,0.7
		c4.2,1.4,12.7,3.6,15.8,5.4l11.7,6.6c0.2-0.7,0.7-0.2-1.3-1.3c-0.5-0.3-1.1-0.6-1.6-0.9l-9.8-5.7c-1.8-1.6-3.4-3.5-5.1-5.2
		l-10.2-10.4c-3-2.9-13.5-13.1-15.5-15.5l-0.8-0.8c-0.3-0.3-0.5-0.5-0.8-0.8L256,346.7L256,346.7z"/>
	<path class="st25" d="M253.4,194c1.1,0.1,2.2,0,3.3,0.1c1.4,0.2,2,0,3.4,0c1.6,0,1.7,0.3,3.3,0.2c1.6-0.2,2.2,0.2,3.4,0.3
		c1.2,0.1,2.1-0.3,3.5,0l17.2,0.6c1.4,0,1.9,0.4,3.3,0.3c1.7-0.2,2,0,3.5,0.2c1,0.1,2.3-0.2,3.4,0l6.9,0.4c0.6,0,1-0.1,1.7,0
		c1.8,0.1,1.2,0.2,1.7-0.2c-0.6-0.6-6.5-2.3-7.9-2.9l-4.9-1.6c-0.2-0.1-0.4-0.1-0.6-0.2c-0.4-0.1-0.6-0.2-1.1-0.4
		c-0.9-0.3-1.6-0.6-2.5-0.8l-4.9-1.6c-0.3-0.1-0.8-0.2-1.3-0.4c-4.2-1.6-9.2-3-13.4-4.5l-12.8-4.3c0,0-0.6-0.2-0.6-0.2
		c-0.5-0.2-0.7-0.2-1.3-0.4c-0.2-0.1-0.4-0.2-0.6-0.2l-2.7-0.9c-0.1,0-0.2-0.1-0.3-0.1l-15.9-5.3c-2.1-0.6-5.8-2.2-7.2-2.2
		c0.7,1.1,1.9,2.2,2.8,3.2c0.5,0.5,1,0.9,1.5,1.4L253.4,194L253.4,194z"/>
	<path class="st26" d="M174.6,137c0.9-0.1,8.2-4.1,9.6-4.8c3.2-1.7,6.4-3.3,9.5-4.9c3.2-1.7,6.3-3.4,9.5-5c1.6-0.8,3.1-1.6,4.7-2.4
		c2.3-1.2,2.7-1.7,4.3-3c-0.2-1-3.3-5.3-4.1-6.4l-12.6-18.3l-0.3,0l-15.8,33.7c-0.9,2-1.7,3.5-2.6,5.6c-0.4,1-0.8,1.9-1.3,2.9
		C175.4,134.9,174.3,136.5,174.6,137L174.6,137z"/>
	<path class="st11" d="M159.7,102.3l-14.9,31.8c-0.9,1.8-1.6,3.5-2.5,5.3c-0.5,1.1-1.7,4.6-2.8,5.2l0,0.2l0.3,0l8.3-1.9
		c4.7-0.9,12.3-3,16.5-3.6c0.6-0.1,0.7-0.1,1.1-0.1c1.5-0.2,0.3-0.3,2.7-0.7c0.8-0.1,1.3-0.3,2.1-0.5c0.3-0.1,0.7-0.2,1-0.3
		c1.3-0.2,0.7-0.1,0.9,0.2l1.5-0.3c-0.3-1.6-5.9-15.1-7-17.9l-6.2-15.6c-0.4-0.9-0.5-1.6-1-1.9L159.7,102.3L159.7,102.3z"/>
	<path class="st27" d="M190.6,312l44.9-30.9c-0.2-1.2-0.5-1.8-0.9-2.9l-2.8-8.2c-0.7-2.4-3.5-9.7-3.7-11.1l0.1-0.2l-0.2-0.1
		l-9.4,13.3c-1.6,2.2-3.1,4.5-4.7,6.7c-0.8,1.2-1.5,2.1-2.3,3.3l-7,10C202.7,294.5,191.1,310.7,190.6,312L190.6,312z"/>
	<path class="st28" d="M252.5,133.4l0,0.2l-0.1,0c1.9,0.5,40.1,16.7,44,18.3c4.8,2,9.8,4.2,14.7,6.1c-0.1-0.5,0-0.3-0.3-0.7
		c-0.2-0.3-0.4-0.5-0.5-0.7l-7.4-10.2c-1.1-1.6-4-3-5.8-4.1L272.3,127c-1.6-1-4.9-3.3-6.4-3.8c0.2,0.5-0.1,0.4,0.3,0.7
		c-0.8,0.4-2.7,1.8-3.6,2.4L252.5,133.4L252.5,133.4z"/>
	<path class="st29" d="M235.5,281l0.7,1.2l-0.3-1.2c3.8,0,8.6,0.1,12.3,0.4c4.1,0.3,8.5,0.2,12.7,0.4c3.9,0.2,8.3,0.5,12.2,0.5
		c3.6,0,9,0.1,12.5,0.5l0.1-0.2l-57.6-23.9c0.3,1.4,3,8.7,3.7,11.1l2.8,8.2C235,279.3,235.3,279.8,235.5,281L235.5,281z"/>
	<path class="st10" d="M14,81.3l-0.1,0.2c-0.1,1.4,1.1,2.6,1.7,3.6l12.6,21c0,0,0.1,0.1,0.1,0.1l3.2,5.2c0,0,0.1,0.1,0.1,0.1
		c0,0,0.1,0.1,0.1,0.1l6,10c0.8,1.2,1.1,2.4,1.9,2.8l0.3-0.2l-1.3-12.1c-0.7-7.7-1.9-16.4-2.6-23.9c-0.4-4.2-0.9-7.9-1.2-12.1
		l-0.2-0.1L14,81.3L14,81.3z"/>
	<path class="st30" d="M181,139.1l40.7,9.1l-7.4-26.8c-0.3-0.4-0.3,0-0.1-0.7c-2.6,1.1-5.9,3.1-8.4,4.5
		C203.6,126.6,181.7,138.2,181,139.1L181,139.1z"/>
	<path class="st31" d="M131.6,109.4c0.8,2.8,1.3,5.8,2,8.7c0.8,3.3,6,25.1,5.9,26.5c1.1-0.6,2.3-4.1,2.8-5.2
		c0.9-1.8,1.6-3.5,2.5-5.3l14.9-31.8c-4.6,1.2-9.3,2.4-14,3.6C140.9,107.1,136.1,108.3,131.6,109.4L131.6,109.4z"/>
	<path class="st32" d="M310.2,195.8c-0.1,1.1,0.3,0.5,0.4,0.7c0.1,0.2-0.6-0.2,0.4,0.5l16.7,11.3c0.6,0.4,1.1,0.8,1.7,1.2
		c1.2,0.8,5.8,4,6.8,4.4c0.7-0.6,3.2-5.8,3.9-7.1c2.2-4.1,1.8-2.5,0.2-8.1c-1.7-5.8-3.3-11.4-5-17.2c-0.9,0.2-5.3,2.9-6.4,3.6
		C327.4,185.8,311.2,195.7,310.2,195.8L310.2,195.8z"/>
	<path class="st5" d="M159.3,101.6l0.2-0.2c1-0.4,2.7-1.8,3.6-2.5l13.9-9.9c0,0,0.1-0.1,0.1-0.1c0,0,0.2-0.1,0.2-0.2
		c0,0,0.1-0.1,0.1-0.1c0,0,0.1-0.1,0.1-0.1c0.2-0.1,0.3-0.2,0.4-0.2c0.3-0.2,0.5-0.4,0.8-0.6l1.7-1.2c1.6-1.1,6-3.9,6.9-4.9
		c-6.4-1.4-13-2.7-19.5-4.1c-3.3-0.7-6.5-1.4-9.7-2.1c-2-0.4-8.4-2-9.8-1.9c0.5,2,1.9,5,2.7,7.1c2.2,5.6,5.7,15.3,7.9,20.4
		C159.2,101.7,159,101.5,159.3,101.6L159.3,101.6z"/>
	<path class="st33" d="M117.9,149.8c1.8,0,8.8-1.8,11.1-2.3c1-0.2,10-1.8,10.8-2.7l-0.3,0l-10.3-11.5c-0.4-0.4-0.6-0.8-1.1-1.3
		c-0.4-0.5-0.6-0.6-1-1.1l-20.3-23c-0.3,0.3-0.2-0.1-0.2,0.5l5.2,20.4c1.7,6.6,3.6,14.6,5.3,20.8
		C117.6,149.9,117.1,149.9,117.9,149.8L117.9,149.8z"/>
	<path class="st34" d="M285.7,282.7l-0.1,0.2l0.4-0.1c-0.1-1.7,3.6-18.5,4.3-21.5c0.6-2.8,4.6-20.4,4.2-21.8
		c-0.1-0.9-7.2-13.2-8.3-15.1c-1.4-2.5-2.8-5.1-4.2-7.6c-0.8-1.5-3.9-6.6-4.2-7.8l-0.5,0c0.7,1.7,6.5,56.4,7.4,64.3
		C285,276.2,285.6,280,285.7,282.7L285.7,282.7z"/>
	<path class="st35" d="M55.6,170.5c-0.4,1.1,2.2,7.9,2.7,9.5l5,15.7c0.3,1.1,0.6,1.8,1,3l3.5,11c0.2,0.5,0.4,1,0.5,1.6l2.8,8.8
		c0.4,0.8,0,0.3,0.6,0.7l0.3-0.9c-0.1,0-0.2,0.4-0.5-0.2l-0.8-4.6c-0.1-0.6-0.1-1.2-0.1-1.6c-0.2-2.1-0.6-2.9-0.8-5.3l-0.1-1.3
		c0-0.1,0-0.1,0-0.2l-0.8-5.9c0-0.1,0-0.1,0-0.2l-4.3-29.6c-0.1-1.1-0.4-2.2-0.6-3.5c-0.3-1.5,0-2.6-0.5-3.3
		c-0.2-0.2-0.2-0.2-0.3-0.5c0-0.1-0.1-0.4-0.1-0.4c-0.3-0.9-2-3.5-2.7-4.5L52.1,145c-1.1-1.8-10.5-17.7-11-18
		c-0.1,0.2,0.1,0.7,0.2,1.1l0.5,1.4c0.2,0.8,0.6,1.7,0.9,2.7l2.8,8.4c0.2,0.6,0.3,0.8,0.5,1.4c0.2,0.4,0.2,0.9,0.4,1.3l3.3,9.5
		c0.1,0.3,0.2,0.8,0.3,1.3l1,2.8c0.2,0.6,0.4,0.9,0.5,1.4l2.3,6.8C54.2,166.4,55.4,169.3,55.6,170.5L55.6,170.5z"/>
	<path class="st36" d="M39.8,124.2c0.2,0.2,0.2-0.3,0.1,0.6c0.6-0.1,0.3,0.1,0.6-0.2l3-3.6c0.5-0.6,0.7-0.6,1.2-1.1
		c0.3-0.4,0.5-0.8,0.9-1.2l11.7-13.1c-0.2-0.9-4.5-6.1-5.4-7.3c-1.8-2.4-3.7-4.8-5.6-7.2c-1.8-2.4-3.7-4.9-5.6-7.2l-5.6-7.4l0.1-0.1
		l-0.4-0.1c0.3,4.1,0.8,7.9,1.2,12.1c0.7,7.6,1.9,16.2,2.6,23.9L39.8,124.2L39.8,124.2z"/>
	<path class="st37" d="M55.6,170.5c-0.2-1.2-1.4-4.1-1.8-5.4l-2.3-6.8c-0.1-0.5-0.3-0.8-0.5-1.4l-1-2.8c-0.2-0.5-0.3-1-0.3-1.3
		l-3.3-9.5c-0.1-0.4-0.2-0.8-0.4-1.3c-0.2-0.6-0.4-0.8-0.5-1.4l-2.8-8.4c-0.3-0.9-0.7-1.8-0.9-2.7l-0.5-1.4
		c-0.1-0.4-0.3-0.9-0.2-1.1c-0.4-1.2-0.8-1-1.1-2.3c0.1-0.9,0.1-0.4-0.1-0.6l-0.3,0.2c-0.1,0.5,0.1,0.1-0.1,0.3
		c-0.8-0.4-2-0.8-2.9-1.1l-19.2-7.4c-0.5-0.2-0.2-0.1-0.4-0.1h-0.4l37.5,52.7C55.4,170.6,54.6,170.1,55.6,170.5L55.6,170.5z"/>
	<path class="st38" d="M309.7,195.8l0.1,0.3l0.1,0c0-0.1,0.1-0.1,0.1-0.2c0-0.1,0.1-0.1,0.1-0.2c1-0.1,17.3-10,18.7-10.8
		c1.1-0.6,5.5-3.4,6.4-3.6c-0.7-1-18.6-18.4-20.9-20.5c-0.9-0.9-2.2-2.4-3.2-2.9c0.6,1.6-0.6,15.9-0.7,18.8c-0.1,3-0.1,6.6-0.4,9.5
		C309.9,188.5,309.5,193.7,309.7,195.8L309.7,195.8z"/>
	<path class="st39" d="M214.3,121.4l7.4,26.8l0.2,0.2c0.3-0.6,2.8-1.6,3.4-1.9l11.4-5.5c2.6-1.2,5-2.4,7.5-3.6l7.9-3.6l0.4-0.1
		l0-0.2l-0.4-0.1c-1.5-0.3-3.3-1.1-4.8-1.6l-23.5-7.7c-2.8-0.9-6.6-2-9.4-3L214.3,121.4L214.3,121.4z"/>
	<path class="st33" d="M178.7,140.3c1,0.2,5.2,2.8,6.4,3.5c2.3,1.3,4.2,2.4,6.4,3.7c4.3,2.5,8.3,4.8,12.7,7.3
		c4.2,2.4,8.4,4.9,12.7,7.3c4,2.3,8.9,5.3,12.7,7.3c0.5,0.1,0.2,0.1,0.3-0.2c-1.2-3.4-2.7-7-4-10.4c-0.7-1.8-3.8-9.2-3.9-10.4
		l-0.2-0.2l-40.7-9.1C180.2,139.2,179.1,139.8,178.7,140.3L178.7,140.3z"/>
	<path class="st40" d="M63,163.2c0,0.1,0.1,0.4,0.1,0.4c0.2,0.4,0.2,0.3,0.3,0.5c-0.1-1.2-0.3-0.7,0.5-1c0,0,1.2-0.2,1.4-0.3
		l18.7-4.6c3.7-0.9,7.2-1.7,10.6-2.6c2-0.5,3.5-0.9,5.4-1.3c1.7-0.4,3.6-1,5.5-1.2c-0.5-0.5-1.2-0.7-1.8-1
		c-5-2.3-26.5-13.1-27.7-13.2c-0.7,0.1-0.2-0.3-0.7,0.4L64,161.7C63.4,163,63.6,162.8,63,163.2L63,163.2z"/>
	<path class="st41" d="M306.2,227.3c0.3,0.5,0.2,0.5,1.9-0.3c0.6-0.3,1.2-0.6,1.9-0.8l18.7-8.6c1.3-0.6,2.6-1.2,3.7-1.7
		c0.6-0.3,1.2-0.6,1.9-0.9c0.8-0.4,1.5-0.5,1.9-1.2c-1.1-0.4-5.6-3.5-6.8-4.4c-0.6-0.4-1.1-0.8-1.7-1.2L311,197
		c-1-0.7-0.3-0.3-0.4-0.5c-0.1-0.2-0.6,0.4-0.4-0.7c0,0.1-0.1,0.1-0.1,0.2c0,0.1-0.1,0.1-0.1,0.2l-0.1,0l-0.7,0.2
		c0,0-0.1-0.5,0.3,0.1c0.5,0.9-3,27.5-2.7,30.8L306.2,227.3L306.2,227.3z"/>
	<path class="st39" d="M106.7,107.9l20.3,23c0.4,0.5,0.6,0.6,1,1.1c0.4,0.4,0.6,0.8,1.1,1.3l10.3,11.5l0-0.2
		c0.1-1.4-5.1-23.1-5.9-26.5c-0.7-2.9-1.2-5.9-2-8.7c-3.2-0.4-24.4-1.7-24.9-2c-0.4-0.2-0.2-0.2-0.3,0.2c0,0,0.1,0,0.1,0
		c0,0.1,0.1,0.1,0.1,0.1C106.7,107.8,106.7,107.9,106.7,107.9L106.7,107.9z"/>
	<path class="st8" d="M195.5,91.8l-0.3-0.1l0.4,0.5c0.9,0.1,24,9.1,27.7,10.6c0.3,0.1,0.6,0.2,0.9,0.3c1,0.5,0.6,0.1,0.7,0.7
		c0.5-0.3,0.2,0.3,0.5-0.5c0.7-2.4,2.7-13.9,3.4-14.7l1.5-10c0.2-1.8,0.2-3.4,0.2-5.4l-0.2-5.3c0,0,0-0.1-0.1-0.1l-0.1,9.4
		L195.5,91.8L195.5,91.8z"/>
	<path class="st42" d="M172.5,342.9c0.2,0.4,0.9,0.4,1.5,0.6l20.9,6.6c5.9,1.7,11.7,3.8,17.4,5.5l16.4,5.2c0.7,0.3,1.2,0.6,2,0.4
		l0.2,0l-12.2-13.5c-0.9-1.1-5.4-5.9-5.5-6.3c-2.6-0.3-7.6,0.2-10.5,0.3c-9.5,0.3-21.3,0.5-30.2,1.1L172.5,342.9L172.5,342.9z"/>
	<path class="st21" d="M187.7,80.7c0.1-2-0.3-4.8-0.3-7c-0.1-2.1-0.2-4.5-0.4-6.7c-0.1-1.7-0.9-12.8-0.7-13.4l-0.4,0l-30.7-5.8
		c0.3,0.6,0.4,0.6,0.9,1.1l3.1,3.1c8,8.5,16.2,16.6,24.2,25.1l4.1,4.2C187.7,81.1,187.6,81.6,187.7,80.7L187.7,80.7z"/>
	<path class="st43" d="M214.2,120.8c-0.2,0.7-0.2,0.3,0.1,0.7l0.1-0.4c2.7,1,6.6,2.1,9.4,3l23.5,7.7c1.5,0.5,3.3,1.3,4.8,1.6
		c-0.2-1-5.8-11.7-6.7-13.5c-1.1-2.2-2.3-4.4-3.4-6.7c-1-1.9-2.2-4.9-3.5-6.8L214.2,120.8L214.2,120.8z"/>
	<path class="st44" d="M186.8,53.3c-0.2,0.3,0.4,0.2-0.6,0.3c-0.2,0.7,0.5,11.8,0.7,13.4c0.2,2.2,0.3,4.6,0.4,6.7
		c0.1,2.2,0.4,4.9,0.3,7l0.4,0.6l6.7-8.8c1.6-2.1,19.9-26.1,20.3-26.3l0.3-0.9c-4.9,1.3-9.6,2.8-14.4,4.1
		C198.9,49.9,188.1,53.3,186.8,53.3L186.8,53.3z"/>
	<path class="st15" d="M95.6,81c0.7,0.3,0.2-0.2,0.7,0.7l9.3,24.1c0.7,1.7,0.4,1.4,0,1.6c0.3,0.4-0.5,0.4,0.7,0.3l0.2-0.1
		c0-0.4-0.1-0.4,0.3-0.2c0.9-0.2,1.9-1.6,2.7-2.4c0.9-0.9,1.7-1.6,2.5-2.6l12.4-12.7c0.9-0.9,1.4-1.8,2.4-2.6l-0.1-0.5l-0.1-0.2
		l-0.1,0c-1.8-0.1-29.7-5.9-30.2-6.2l-0.1,0c0,0.1-0.2,0.3-0.2,0.3C95,81.9,95.9,80.1,95.6,81L95.6,81z"/>
	<path class="st45" d="M186.8,53.3c1.3,0.1,12.1-3.3,14.3-3.9c4.8-1.3,9.5-2.8,14.4-4.1c1.5,0.2,5.8,2.3,7.4,2.9c2.4,1,4.8,2,7.1,3
		l0.1-0.5c0-1.3-0.3-2.2-0.5-3.5c-0.2-1.3-0.2-2.5-0.5-3.6c-2.6-1.3-23.9-11.5-24.8-11.5c-0.9,0.6-9.7,11.7-11,13.2l-6.2,7.5
		C186.7,53.2,186.6,52.9,186.8,53.3L186.8,53.3z"/>
	<path class="st46" d="M303,382.6l10.9,9.9c1.3,1.3,2.3,2,3.6,3.4c0.2,0.3,0.3,0.2,0.6,0.4l3.7-4.3c0.4-0.4,0.4-0.5,0.7-0.9
		l9.1-10.4c1.9-1.9,5.7-6.8,7.7-8.7l2.3-2.7c0.6-0.7,0.5-0.5,0.6-0.9c-0.2-0.5,0.1-0.2-0.5-0.1l-29.1,10.6
		C311.2,379.4,303.4,381.9,303,382.6L303,382.6z"/>
	<path class="st47" d="M221.9,148.4c0.1,1.2,3.2,8.6,3.9,10.4c1.3,3.4,2.8,7,4,10.4c0,0.1,0.2,0.2,0.2,0.2c0,0,0.1,0.1,0.1,0.1
		c0,0,0.1,0.1,0.1,0.1c0.2-0.8,0.8-1.6,1.3-2.4l20.7-33.6l-7.9,3.6c-2.5,1.3-4.9,2.4-7.5,3.6l-11.4,5.5
		C224.7,146.8,222.2,147.8,221.9,148.4L221.9,148.4z"/>
	<path class="st48" d="M97.2,142.5l-0.1,0.5c1.6,0.4,3.5,1.2,5.2,1.8c1.7,0.6,3.4,1.2,5.1,1.8c1.7,0.6,9.1,3.4,10.5,3.5v-0.3
		c-0.8,0.1-0.3,0.1-0.9-0.1c-1.8-6.2-3.6-14.3-5.3-20.8l-5.2-20.4c0-0.6-0.1-0.2,0.2-0.5c0-0.1-0.1-0.2-0.1-0.2c0,0-0.1,0-0.1-0.1
		c0,0-0.1,0-0.1,0l-0.2,0.1L97.2,142.5L97.2,142.5z"/>
	<path class="st49" d="M169.8,31.4L169.8,31.4c0.9,0.5,3.4,4.4,4.1,5.4l7.9,11c0.9,1.2,3.5,4.7,4,5.8l0.4,0c0.9-0.1,0.4,0,0.6-0.3
		c-0.2-0.4-0.1-0.1,0.2-0.5l6.2-7.5c1.3-1.5,10.1-12.6,11-13.2v-0.4l-1.2-0.1c-0.4,0.4-29.4-0.2-32.7-0.2l0-1.1c0,0.5,0,0.2-0.1,0.6
		C169.9,31.4,170,31.1,169.8,31.4L169.8,31.4z"/>
	<path class="st26" d="M126.6,86.6l0.1,0.5l0,0c-0.1-0.5-0.1-0.1,0.2-0.2l32.4,15.1l-0.1-0.4c-0.3-0.2-0.1,0-0.3-0.5
		c-2.3-5.1-5.7-14.8-7.9-20.4c-0.8-2.1-2.2-5.2-2.7-7.1c-0.9,0.2-9.4,5.5-11,6.5c-1.9,1.1-3.7,2.3-5.5,3.4
		C130.8,84.1,127.5,86.4,126.6,86.6L126.6,86.6z"/>
	<path class="st50" d="M57.3,105.5l0.5,0.2c0.1-0.7,0.1-0.6,0.5-1.2l5-7.4c0.9-1.4,5.2-8,5.9-8.4l0-0.1c-0.6-0.8-3.3-1.5-4.2-1.8
		c-1.4-0.5-2.8-1-4.2-1.5c-3.1-1.1-24.5-8.9-25.7-9l5.6,7.4c1.8,2.4,3.7,4.9,5.6,7.2c1.9,2.4,3.7,4.9,5.6,7.2
		C52.9,99.4,57.1,104.6,57.3,105.5L57.3,105.5z"/>
	<path class="st51" d="M13.9,82.9c0.4,0.9,0.6,6.7,0.8,8.3c0.4,2.8,0.4,5.6,0.7,8.4c0.6,5.1,0.8,11.5,1.5,16.6
		c0.2-0.1-0.1-0.1,0.4,0.1l19.2,7.4c0.9,0.4,2.1,0.7,2.9,1.1c0.3-0.2,0.1,0.2,0.1-0.3c-0.8-0.3-1.2-1.6-1.9-2.8l-6-10
		c0,0-0.1-0.1-0.1-0.1c0,0-0.1-0.1-0.1-0.1l-3.2-5.2c0,0-0.1-0.1-0.1-0.1l-12.6-21c-0.6-1-1.8-2.2-1.7-3.6L13.9,82.9L13.9,82.9z"/>
	<path class="st52" d="M74.6,117c0,0.9,0.1,2.5,0.6,3.1l-0.3-2.7c1,0.9,2,2.1,2.8,3.1c2.4,2.9,18.9,21.4,19.2,22.3l0.2,0.2l0.1-0.5
		l-7.8-40.2l-0.2-0.3c-0.8,0.5-1.3,1.2-1.9,1.9l-5.3,5.6C80.8,110.5,75.7,116.5,74.6,117L74.6,117z"/>
	<path class="st53" d="M126.5,86.5l0.1,0.2c0.9-0.3,4.2-2.5,5.3-3.2c1.8-1.1,3.6-2.2,5.5-3.4c1.6-1,10.1-6.4,11-6.5
		c-0.1-0.1-0.2-0.2-0.3-0.4c-1-0.4-0.2,0-0.8-0.6c-0.3-0.3-0.4-0.3-0.7-0.6l-15.9-13.5c-1.6-1-2.9-3-4-3c-0.4-0.1-0.3-0.2-0.3,0.2
		c0,0.1,0.4,13.8,0.4,15.2c0,1.1-0.3,2.5-0.4,3.8C126.3,77,126.2,85.4,126.5,86.5L126.5,86.5z"/>
	<path class="st54" d="M146.6,17.3l0.9,0.1c-0.2-0.5,0.7-0.5,1.9-0.8c0.7-0.2,1.6-0.5,2.4-0.7c1.6-0.5,3.1-0.9,4.7-1.3
		c0.5-0.2,27.8-8,28.6-8c0.2-0.2,0.3,0.2,0.1-0.4l-29-4.6c-3.4-0.6-6.6-1-10-1.5C147,3,146.6,13.6,146.6,17.3L146.6,17.3z"/>
	<path class="st55" d="M126.8,87.1l4.8,22.3c4.5-1.2,9.3-2.3,14.1-3.6c4.7-1.2,9.4-2.5,14-3.6l0-0.2l-0.3-0.1L127,86.9
		C126.7,87.1,126.6,86.7,126.8,87.1L126.8,87.1z"/>
	<path class="st56" d="M113.6,62.7c-0.6,1.1-3.3,3.5-4.4,4.6c-1.5,1.5-2.9,2.9-4.4,4.4c-2.9,2.9-5.8,5.8-8.6,8.6
		c0.5,0.3,28.4,6.1,30.2,6.2l-3.1-6c-1.6-3-7.7-15.3-9-17.3c-0.5-0.9,0.1-0.3-0.7-0.6L113.6,62.7L113.6,62.7z"/>
	<path class="st57" d="M185.2,6.5l-13.1,16l0.4-0.1l31.3-2.1c1.9-0.1,9.3-0.8,10.5-0.5c-0.7-1.1-3.9-2-5.3-2.7l-16.2-7.6
		c-1.3-0.6-6.3-3.2-7.6-3.4C185.5,6.7,185.5,6.3,185.2,6.5L185.2,6.5z"/>
	<path class="st58" d="M228.8,88.5c-0.7,0.9-2.7,12.3-3.4,14.7c2.1-0.2,6.5-1.6,8.8-2.2c7.3-1.9,16.7-4.5,23.8-6.2
		c2.4-0.6,1.8-0.3,1.7-0.9c-0.4-0.7-6.6-4.6-8.2-5.9c-1.1-0.8-2.3-0.8-4.1-0.6c-1.5,0.2-2.9,0.1-4.7,0.2c-1.4,0-1.9,0.2-4.6,0.2
		L228.8,88.5L228.8,88.5z"/>
	<path class="st59" d="M89.4,102.4l7.8,40.2l9.1-34.9c-1.2,0.2-0.4,0.1-0.7-0.3l-16.3-5.4L89.4,102.4L89.4,102.4z"/>
	<path class="st60" d="M1.6,86.7c0.6,1.2,1.2,2.4,1.8,3.6l2.3,4.5c0.2,0.4,0.3,0.5,0.5,1l5.6,11c0.3,0.4,0.2,0.3,0.5,0.8l2.3,4.6
		c0.7,1.4,1.2,2.4,2,3.9h0.4c-0.7-5.1-0.9-11.5-1.5-16.6c-0.3-2.8-0.4-5.6-0.7-8.4c-0.2-1.5-0.4-7.4-0.8-8.3
		c-0.5-0.8-0.7-5.8-0.8-7.3l-0.5-5.5c-0.1-1.1,0-1.2-0.6-1.5l-5.1,9.1C6.1,79.2,2.3,86,1.6,86.7L1.6,86.7z"/>
	<path class="st61" d="M154.9,47.5l0.1,0.2l0.1,0.1l30.7,5.8c-0.5-1-3.2-4.5-4-5.8l-7.9-11c-0.7-1.1-3.2-4.9-4.2-5.4
		c-0.8,0.4-1.4,1.3-1.9,2c-0.6,0.8-1.3,1.1-1.9,1.9c-1.2,1.4,0.2,0.2-1.8,2c-0.8,0.7-1,1.3-1.7,2.1c-0.4,0.5-0.5,0.6-1.1,1
		c-1.2,0.9-1.6,2.2-2.7,3c-2.1,1.5-0.6,1.2-2.8,2.8L154.9,47.5L154.9,47.5z"/>
	<path class="st5" d="M82.7,78.4c0.6-0.1,0,0.1,0.5-0.2c0.6-0.5,1.5-1.9,1.8-2.3l0.7-1c0.1-0.1,0.4-0.5,0.5-0.6l5.2-6.4
		c0.4-0.6,0.2-0.5,0.8-1.1l2-2.5c0,0,0.1-0.1,0.1-0.1l0.4-0.5c0-0.1,0.2-0.3,0.3-0.4c0.7-0.9,1.4-1.2,1.7-2.3L74.9,44.9L82.7,78.4
		L82.7,78.4z"/>
	<path class="st62" d="M188.1,81.3c-0.3,0.4-0.2,0.2-0.2,0.6c0.5,0.9,1.2,1.6,1.7,2.4c0.6,0.9,1.2,1.7,1.9,2.5
		c1.3,1.6,2.4,3.2,3.6,4.9l0.3,0.1c0.5-1.7,1.8-4.4,2.5-6l16.8-38.7c0.6-1.3,0.4-0.8,0.2-1.1c-0.5,0.2-18.7,24.2-20.3,26.3
		L188.1,81.3L188.1,81.3z"/>
	<path class="st63" d="M212.3,116.9c1.1-0.8,2.1-2.1,3.1-3.2l6.4-6.6c0.5-0.5,2.8-2.7,3-3.4c-0.1-0.6,0.4-0.2-0.7-0.7
		c-0.3-0.1-0.6-0.2-0.9-0.3c-3.7-1.5-26.8-10.5-27.7-10.6l12.6,18.3C209,111.6,212.1,115.8,212.3,116.9L212.3,116.9z"/>
	<path class="st11" d="M106.7,107.4c0.5,0.3,21.7,1.6,24.9,2l-4.8-22.3l0,0c-1.1,0.8-1.6,1.6-2.4,2.6l-12.4,12.7
		c-0.7,1-1.6,1.7-2.5,2.6C108.6,105.8,107.6,107.2,106.7,107.4L106.7,107.4z"/>
	<path class="st64" d="M40.6,124.5c0.6,0.3,1.3,0,2.1-0.2l27.4-6.3c0.8-0.2,1.5-0.4,2.1-0.5c2.3-0.5,1.7-0.1,2-0.8l-16.3-11
		l-0.5-0.2l-11.7,13.1c-0.4,0.4-0.5,0.8-0.9,1.2c-0.5,0.6-0.7,0.6-1.2,1.1L40.6,124.5L40.6,124.5z"/>
	<path class="st65" d="M252.2,133.3l0.4,0.1l10.1-7.2c0.9-0.6,2.7-2,3.6-2.4c-0.4-0.3-0.1-0.2-0.3-0.7c-0.1-0.1,0.2,0.1-0.3-0.2
		l-20-12.3c-1.6-1-5.6-3.7-7.1-4.2c1.3,1.8,2.6,4.8,3.5,6.8c1.1,2.2,2.3,4.5,3.4,6.7C246.4,121.7,251.9,132.3,252.2,133.3
		L252.2,133.3z"/>
	<path class="st66" d="M74.6,117c1.1-0.5,6.2-6.5,7.4-7.5l5.3-5.6c0.6-0.7,1.1-1.4,1.9-1.9l-0.1-0.4c-0.9-0.3-18.5-12.2-19.6-13.3
		l-0.2,0.1l0,0.1L74.6,117L74.6,117z"/>
	<path class="st48" d="M301.4,387c2.6,1.5,5.2,2.8,7.8,4.4l8.1,4.5c-1.3-1.4-2.3-2.1-3.6-3.4l-10.9-9.9l-11.2-8.8
		c-8.7-6.9-19.1-14.8-28.1-21.7c-1-0.7-4.8-3.9-5.7-4.1c2,2.3,12.5,12.6,15.5,15.5l10.2,10.4c1.7,1.7,3.3,3.5,5.1,5.2l9.8,5.7
		c0.5,0.3,1.1,0.7,1.6,0.9C302.1,386.8,301.7,386.3,301.4,387L301.4,387z"/>
	<path class="st67" d="M172.5,22.4c0,0,0.1,0,0.1,0.1c0.2,0.4,28.6,8.2,30.3,9l1.2,0.1l0.3-0.2c0.4-0.8,9.5-11.3,9.9-11.6l-0.2-0.3
		l0,0.2c-1.2-0.3-8.6,0.4-10.5,0.5L172.5,22.4L172.5,22.4z"/>
	<path class="st68" d="M35,75.9l0.2,0.4l-0.1,0.1c1.2,0.1,22.6,7.9,25.7,9c1.4,0.5,2.8,1,4.2,1.5c0.9,0.3,3.6,1,4.2,1.8l0.2-0.1
		l-0.3-1.5l-0.1,1l-3.7-4.6c-1.4-1.8-10.6-13.2-10.9-14l0,0c-0.2-0.6,0.3-0.4-0.4-0.5L35,75.9L35,75.9z"/>
	<path class="st69" d="M147.5,17.4l20.9,4.3l3.5,0.7l0.3,0l13.1-16c-0.9,0-28.1,7.9-28.6,8c-1.6,0.5-3.1,0.9-4.7,1.3
		c-0.8,0.2-1.7,0.6-2.4,0.7C148.2,16.9,147.4,16.9,147.5,17.4L147.5,17.4z"/>
	<path class="st70" d="M159.5,101.4c0.4,0.7-0.7,0.9,2.4,0.1c5.1-1.4,31.9-9.3,33.4-9.3l0.3,0l-0.4-0.5c-1.2-1.6-2.4-3.3-3.6-4.9
		c-0.7-0.8-1.2-1.6-1.9-2.5c-0.6-0.8-1.2-1.5-1.7-2.4c-0.3-0.3-0.1-0.1-0.5-0.2c-0.9,1-5.3,3.7-6.9,4.9l-1.7,1.2
		c-0.3,0.2-0.6,0.4-0.8,0.6c-0.1,0.1-0.2,0.1-0.4,0.2c0,0-0.1,0.1-0.1,0.1c0,0-0.1,0.1-0.1,0.1c-0.1,0-0.2,0.1-0.2,0.2
		c0,0-0.1,0.1-0.1,0.1l-13.9,9.9C162.2,99.6,160.5,101.1,159.5,101.4L159.5,101.4z"/>
	<path class="st71" d="M154.9,47.5l0.9-1.2c2.2-1.7,0.7-1.4,2.8-2.8c1.1-0.8,1.5-2.1,2.7-3c0.6-0.4,0.6-0.5,1.1-1
		c0.7-0.8,0.9-1.4,1.7-2.1c2-1.7,0.6-0.5,1.8-2c0.7-0.8,1.4-1,1.9-1.9c0.5-0.7,1.1-1.6,1.9-2l0.1-0.1l-25.9-2.6
		c0.2,0.8,2.1,3.7,2.7,4.7c1,1.7,1.8,3.1,2.8,4.7C150.1,39.5,154.6,47.2,154.9,47.5L154.9,47.5z"/>
	<path class="st72" d="M117.8,2.3l0.5,0.3c0.1,0.1,0.1,0.1,0.3,0.4c0.1,0.2,0.1,0.2,0.2,0.5c0.2,0.4,0.2,0.5,0.3,0.9
		c0.3,0.6,0.4,1.1,0.7,1.8l4.4,11.2c1.1-0.3,4.5-3.4,5.7-4.3c1.8-1.4,3.7-2.8,5.5-4.3c1.8-1.5,3.7-2.9,5.5-4.4
		c0.7-0.6,5.1-3.7,5.1-4.4L117.8,2.3L117.8,2.3z"/>
	<path class="st73" d="M113,29.8c3.2-0.4,12.4,2.5,14.9,2l4.8-8.2c0.4-0.7,0.6-1.1,0.9-1.6l0.5-0.8c0.2-0.3,0.3-0.6,0.5-0.8l1-1.4
		l0.8-1.2l-1.3-0.2c-1.5-0.5-8.7,0-10.8,0c-1.7,0-4,0.3-5.6-0.1v0.3l1.7,0.1l-3.5,6C114.7,27.5,115.1,27.1,113,29.8L113,29.8z"/>
	<path class="st74" d="M57.9,105.7l16.3,11l0.4,0.3l-5.3-28.3c-0.6,0.5-4.9,7.1-5.9,8.4l-5,7.4C58,105,58,104.9,57.9,105.7
		L57.9,105.7z"/>
	<path class="st53" d="M128.1,39.2l-0.8-0.1c0,0.1-0.1,0-0.2,0.1l-4.1,0.3c-1.1,0-3.6-0.3-4.4,0.3h0.4c2.3,0,7.1,0.3,9.1-0.3
		l10,12.9l0.2,0.4l0.3,0.1c0.7-0.6,6.7-2.3,8.1-2.7c1.4-0.4,7.3-2.1,8-2.7c-0.8-0.7-2.8-1.7-3.9-2.3l-10.1-5.9c-1-0.6-1.4-1-2.2-1.1
		c-1.4-0.1-3.8,0.4-5.4,0.6c-0.8,0.1-1.7,0.2-2.6,0.3C130,39.3,128.4,39.9,128.1,39.2L128.1,39.2z"/>
	<path class="st33" d="M68.4,66.6l14.3,12.3l0-0.5l-7.8-33.5v-0.2c-0.4,0.3-0.3,0.1-0.7,1.2L68.4,66.6L68.4,66.6z"/>
	<path class="st75" d="M89.3,101.9l16.3,5.4c0.4-0.2,0.7,0.2,0-1.6l-9.3-24.1c-0.5-0.9,0-0.4-0.7-0.7c0,1.3-2.5,8.7-3.1,10.5
		C91.4,95,90.2,98.4,89.3,101.9L89.3,101.9z"/>
	<path class="st27" d="M114.2,62.2c-0.1,0.3,0.7,0.2-0.6,0.2l0.1,0.1c0.8,0.3,0.2-0.2,0.7,0.6c1.2,2,7.4,14.3,9,17.3l3.1,6l0.1,0
		c-0.3-1.1-0.2-9.5-0.1-11.7c0-1.3,0.4-2.7,0.4-3.8c0-1.4-0.4-15.2-0.4-15.2C125.1,55.8,116.4,61.3,114.2,62.2L114.2,62.2z"/>
	<path class="st15" d="M124.3,17.4l-0.1,0.3c2.2,0,9.3-0.5,10.8,0c1-0.5,8.5-0.3,9.1-0.2c0.5-0.3,1.7-0.2,2.4-0.2
		c0-3.7,0.4-14.3-0.3-17.3h-0.2c0.1,0.7-4.4,3.8-5.1,4.4c-1.8,1.5-3.7,2.9-5.5,4.4c-1.8,1.5-3.8,3-5.5,4.3
		C128.9,14,125.4,17,124.3,17.4L124.3,17.4z"/>
	<path class="st76" d="M35,75.9l19.2-7c-0.1-0.4-1-1.4-1.4-1.9l-2.9-3.8c-0.5-0.7-0.9-1.2-1.5-1.9c-0.7-1-5.4-7.1-6-7.4
		C42,54.2,35.3,74.1,35,75.9L35,75.9z"/>
	<path class="st77" d="M216.5,27l-0.3,0l-11.6,4.4l-0.3,0.2V32c0.9,0,22.2,10.3,24.8,11.5l6.3-23c-0.9,1-3.9,7.5-4.8,9.3
		c-1.6,3.1-3,6.3-4.7,9.4C225.3,38.9,216.8,27.8,216.5,27L216.5,27z"/>
	<path class="st78" d="M69.5,88.4c1.1,1,18.7,13,19.6,13.3l-6.2-22.1c-0.1,0-0.1-0.1-0.2-0.1l-0.2-0.1c0,0,0,0-0.1,0
		C78,82.2,74,85.5,69.5,88.4L69.5,88.4z"/>
	<path class="st79" d="M75.2,120.1l2,15.9c0.6,0.3,0.8,0.6,1.4,0.8c0.2-0.1,0.3-0.3,1.1,0c0.3,0.1,0.8,0.3,1.1,0.4
		c0.8,0.3,1.5,0.5,2.3,0.8c3.9,1.4,10.4,3.9,13.8,4.9c-0.3-0.9-16.8-19.4-19.2-22.3c-0.8-1-1.8-2.2-2.8-3.1L75.2,120.1L75.2,120.1z"
		/>
	<path class="st80" d="M99.1,19.1l1.4,0c-0.3,0.8-4,4.4-4.8,5.3c-1.1,1.2-1.7,1.5-3.3,3.4c-1.3,1.6-0.5,0.6-1.7,1.6
		c-0.6,0.5-2.7,3-3.1,3.6c-0.4-0.2-0.5-0.2-0.9-0.3l0.1,0.9l0.2,0.1c2.6-0.4,4.7-0.7,7.1-1c1.8-0.3,5.6-1,7.2-0.9l9-12.9
		c0,0,0-0.1,0-0.1c0,0,0-0.1,0-0.1c0,3.1-0.7,13.1-0.1,15.4c0.4-0.3,0.4-0.3,0.8-0.8c-0.7-0.5-0.3,0.2-0.5-0.9l0.1-2.9
		c0-1.3,0.1-2.7,0.1-4c0.1-2.6,0.2-5.1,0.2-7.7L99.1,19.1L99.1,19.1z"/>
	<path class="st52" d="M40.5,53.8c0.1,0,0.1,0.1,0.2,0.1c0.1,0,0.1,0.1,0.2,0.1l0.7,0.3c-1.1,0.4-3.8,2.6-5,3.5
		c-1.6,1.1-3.1,2.3-4.7,3.5c-1.7,1.2-3.1,2.2-4.7,3.4c-1.3,0.9-3.4,2.8-4.8,3.4l0-2.6l-0.3,2.9l11.8,7.1c0,0,0.4,0.3,0.4,0.3
		c0.2,0.2,0.2,0.2,0.4,0.4l0.2,0.1l0.4,0.1L35,75.9c0.3-1.8,7-21.6,7.4-22.1c0,0-0.1-0.1-0.1,0L40.5,53.8L40.5,53.8z"/>
	<path class="st15" d="M139.7,144.8c-0.8,0.9-9.8,2.4-10.8,2.7c-2.3,0.5-9.3,2.4-11.1,2.3v0.3l0.4,0.3c1.4-0.1,8.7,1.4,11.2,1.8
		c1.5,0.2,1.1,0.2,1.5,0.6c3.4-1.4,6.8-2.4,10.3-3.7c3.5-1.2,6.9-2.4,10.4-3.7l15.5-5.5c0.9-0.3,1.8-0.6,2.6-0.9
		c0.4-0.1,0.8-0.3,1.2-0.4l1.3-0.7c-0.2-0.3,0.3-0.4-0.9-0.2c-0.3,0-0.7,0.2-1,0.3c-0.7,0.2-1.2,0.3-2.1,0.5
		c-2.4,0.4-1.2,0.5-2.7,0.7c-0.4,0-0.5,0.1-1.1,0.1c-4.2,0.7-11.8,2.8-16.5,3.6L139.7,144.8L139.7,144.8z"/>
	<path class="st81" d="M128.6,32.4c1.7,0.9,3.4,1.9,5,2.9c0.8,0.5,1.6,1,2.5,1.5c0.8,0.4,1.8,0.8,2.3,1.5c0.8,0.1,1.2,0.5,2.2,1.1
		l10.1,5.9c1,0.6,3.1,1.6,3.9,2.3l0.4,0.1l-0.1-0.2c-0.3-0.2-4.8-8-5.6-9.1c-1-1.6-1.8-3.1-2.8-4.7c-0.6-1-2.5-3.9-2.7-4.7l-0.7-0.1
		L132,31.3C130.7,31.5,128.7,31.8,128.6,32.4L128.6,32.4z"/>
	<path class="st82" d="M82.7,78.4l0,0.5l0.1,0.2l0.4,0c0.6-0.6,6.2-3.4,7.4-4.1c3.4-1.8,20.9-11.3,23-12.2l0.1-0.1l-0.1-0.1
		l-16.3-1.2l-0.6-0.1l-0.2-0.1c-0.3,1-1,1.4-1.7,2.3c0,0.1-0.2,0.3-0.3,0.4l-0.4,0.5c0,0-0.1,0.1-0.1,0.1l-2,2.5
		c-0.5,0.6-0.4,0.5-0.8,1.1l-5.2,6.4c-0.1,0.1-0.4,0.5-0.5,0.6l-0.7,1c-0.4,0.5-1.2,1.8-1.8,2.3C82.7,78.5,83.2,78.3,82.7,78.4
		L82.7,78.4z"/>
	<path class="st83" d="M68.6,76.9c0.8,0.9,0.5,3.4,0.5,4.8c0.1,1.7,0.3,3.6,0.1,5.3l0.3,1.5c4.4-2.9,8.5-6.2,12.9-9.1
		c0,0,0.1,0,0.1,0l0.2,0.1c0,0,0.1,0.1,0.2,0.1L82.8,79l-0.1-0.2L68.4,66.6c0,2,0.2,3.3,0.2,5c0,0.9-0.1,1.9,0,2.7
		C68.7,75.4,69.1,76.1,68.6,76.9L68.6,76.9z"/>
	<path class="st84" d="M170.2,30.2l0,1.1c3.3,0,32.3,0.6,32.7,0.2c-1.7-0.9-30.2-8.6-30.3-9c0-0.1-0.1-0.1-0.1-0.1l-0.4,0.1l-0.3,0
		c0,1.3-0.6,2.7-0.9,3.9C170.8,27.4,170.2,29.2,170.2,30.2L170.2,30.2z"/>
	<path class="st85" d="M216.5,27c0.3,0.7,8.8,11.9,9.3,12.2c1.7-3.1,3.1-6.3,4.7-9.4c0.9-1.8,4-8.3,4.8-9.3c0.3-0.2,0.2,0.5,0.2-0.5
		c-2,0.3-7.5,2.7-9.7,3.5c-1.6,0.6-3.1,1.2-4.7,1.8C219.8,25.7,217.6,26.4,216.5,27L216.5,27z"/>
	<path class="st69" d="M82.9,79.6l6.2,22.1l0.1,0.4l0.2,0.3l-0.1-0.4c1-3.5,2.1-7,3.2-10.4c0.6-1.8,3.1-9.1,3.1-10.5
		c0.3-1-0.6,0.9,0.1-0.4c0,0,0.2-0.3,0.2-0.3L83.2,79l-0.4,0L82.9,79.6L82.9,79.6z"/>
	<path class="st86" d="M143.9,28.8l25.9,2.6c0.2-0.3,0.1,0,0.3-0.6c0.1-0.4,0.1-0.1,0.1-0.6c0-1,0.5-2.8,0.8-3.9
		c0.3-1.2,0.8-2.5,0.9-3.9l-3.5-0.7c-1.8,0.7-4.3,1.3-6.4,1.8c-2,0.6-4,1.1-6.1,1.7C153.5,25.9,145.6,27.8,143.9,28.8L143.9,28.8z"
		/>
	<path class="st87" d="M74.9,44.7v0.2l21.6,16.2l0.2,0.1c0-1.2-1.7-6.4-2.2-7.9c-0.7-2.4-1.8-5.4-2.2-7.8l1,0.1
		c-0.3-0.2,0.2-0.1-0.6-0.3c-0.4-0.2,0.1,0-0.5,0c-0.7,0.1-1.5,0.2-1.9-0.1c-2,0.4-9.1-0.2-12-0.3c-2.5,0-3.4,0.3-3.4-0.7
		C74.6,44.5,74.6,44.2,74.9,44.7L74.9,44.7z"/>
	<path class="st88" d="M143.1,28.8L143.1,28.8l0.7,0.1c1.7-1,9.6-2.9,12.1-3.6c2.1-0.6,4-1.1,6.1-1.7c2.1-0.6,4.5-1.2,6.4-1.8
		l-20.9-4.3l-0.9-0.1c-0.8,0-1.9-0.1-2.4,0.2l2.2,0.1L143.1,28.8L143.1,28.8z"/>
	<path class="st89" d="M127.7,55c-0.5,0.4-0.5,0.5-1.1,0l0,0.5c1,0,2.4,2,4,3L146.5,72c0.3,0.3,0.4,0.3,0.7,0.6
		c0.6,0.5-0.2,0.2,0.8,0.6c-0.4-1.7-9.1-18.9-9.4-20.2l-0.3-0.1L127.7,55L127.7,55z"/>
	<path class="st90" d="M83.2,79L96,80.3l0.1,0c2.9-2.9,5.7-5.7,8.6-8.6c1.5-1.5,2.9-2.9,4.4-4.4c1.1-1.1,3.8-3.4,4.4-4.6
		c-2.1,0.9-19.5,10.4-23,12.2C89.4,75.6,83.7,78.4,83.2,79L83.2,79z"/>
	<path class="st40" d="M107.2,152.9c0,0,0.1-0.1,0.1-0.1l0.2-0.2c0,0,0.1-0.1,0.1-0.1c0,0,0.6-0.2,0.7-0.2l8.4-2l1.6,0.1l-0.4-0.3
		c-1.4-0.1-8.8-2.9-10.5-3.5c-1.7-0.7-3.4-1.2-5.1-1.8c-1.6-0.6-3.5-1.4-5.2-1.8l-0.2-0.2c-3.4-0.9-9.9-3.5-13.8-4.9
		c-0.8-0.3-1.5-0.5-2.3-0.8c-0.3-0.1-0.8-0.3-1.1-0.4c-0.8-0.3-0.9-0.1-1.1,0L107.2,152.9L107.2,152.9z"/>
	<path class="st91" d="M111.1,33.5c-0.3,0.5-0.3,0.5-0.8,0.8c0,0.6-0.2,0.7-0.5,1.3c-0.5,0.8-0.2,0.7-0.9,1c-1.8,1.2-5,2.6-7,3.7
		c-2.4,1.3-4.7,2.4-7.1,3.7l0.3,0.1c0.6,0,0.6-0.1,1.3-0.4l11.6-4.7c1.3-0.7,2.9-1.8,4.3-2.7c2.3-1.5,1.7-1.9,4.6-0.8
		c1.8,0.7,9.1,3.7,10.3,3.7l0.8,0.1l0-7.2l-0.1-0.2c-2.5,0.5-11.7-2.5-14.9-2C112.9,31.1,111.6,32.3,111.1,33.5L111.1,33.5z"/>
	<path class="st61" d="M89,19.6l-5.2,3.9c-0.5,0.4-0.5,0.2-0.6,0.9c0.8,0.6,2.5,6.8,3.6,8.3c0.4,0.1,0.5,0.1,0.9,0.3
		c0.3-0.6,2.5-3.2,3.1-3.6c1.2-1,0.4,0,1.7-1.6c1.6-1.9,2.2-2.3,3.3-3.4c0.9-1,4.5-4.6,4.8-5.3l-1.4,0L89,19.6L89,19.6z"/>
	<path class="st39" d="M14,81.3l20.6-5.2c-0.2-0.2-0.1-0.2-0.4-0.4c0,0-0.4-0.3-0.4-0.3l-11.8-7.1l-8,12.1
		C13.5,81.6,13.8,80.9,14,81.3L14,81.3z"/>
	<path class="st92" d="M23.1,56.3c-0.4,0.9-0.5,0.8-0.4,2.1c0.1,0.8,0.1,1.5,0.1,2.3c0,1.5-0.2,3.2-0.3,4.7l0,2.6
		c1.4-0.6,3.5-2.5,4.8-3.4c1.7-1.2,3.1-2.2,4.7-3.4c1.6-1.2,3.2-2.4,4.7-3.5c1.2-0.9,3.9-3,5-3.5l-0.7-0.3c-0.1,0-0.1-0.1-0.2-0.1
		c-0.1,0-0.1-0.1-0.2-0.1c-1.3,0.2-2.8,0.4-4.2,0.7l-8.9,1.2C25.8,55.8,24.5,56.1,23.1,56.3L23.1,56.3z"/>
	<path class="st93" d="M1.6,86.7c0.7-0.8,4.5-7.6,5.3-9l5.1-9.1l0.2-0.5c-0.7-0.4-7.9-0.5-8.8-0.3c-0.4,0.3-0.7,1.4-0.8,1.9
		c-0.3,0.9-0.5,1.5-0.8,2.3c-2.6,7.8-2.2,4.2-0.8,12.1C1.3,85.1,1.6,85.9,1.6,86.7L1.6,86.7z"/>
	<path class="st94" d="M97.8,13.4l-8.4,5.7c0,0-0.1,0.1-0.1,0.1c-0.3,0.2-0.1,0.1-0.3,0.3l10.1-0.5l11.9-1.1c1.5-0.1,6.3-0.3,7.6,0
		v-0.3c-1.9-0.4-5.3,0.2-7.5,0.1c-1.1-0.5-2.7-3.1-3.5-4.2c-0.7-0.9-2.9-3.6-3-4.4l-0.3,0C103.9,9.6,98.5,13.3,97.8,13.4L97.8,13.4z
		"/>
	<path class="st95" d="M97.4,60.9l-0.1,0.4l16.3,1.2c1.3-0.1,0.5,0,0.6-0.2c-0.3-1.2,0.2-10.7,0.6-11.9c-1.1,0.2-7.5,4.3-8.9,5.2
		C104.5,56.4,98,60.2,97.4,60.9L97.4,60.9z"/>
	<path class="st64" d="M111.1,17.7c2.2,0.1,5.6-0.5,7.5-0.1c1.6,0.4,3.9,0.1,5.6,0.1l0.1-0.3l-4.4-11.2c-0.3-0.7-0.4-1.2-0.7-1.8
		c-0.2-0.4-0.2-0.5-0.3-0.9c-0.1-0.2-0.1-0.2-0.2-0.5c-0.2-0.3-0.2-0.3-0.3-0.4l-0.2,0c-0.3,1.2-1.3,2.8-1.8,4
		c-0.6,1.2-1.2,2.5-1.8,3.7c-0.6,1.3-1.2,2.4-1.8,3.7C112.2,15.1,111.5,16.5,111.1,17.7L111.1,17.7z"/>
	<path class="st96" d="M100.8,47.3c-1,2.6-2.4,8.8-3.5,12.1c-0.6,1.8-0.3,1.3,0,1.5c0.6-0.7,7.2-4.5,8.5-5.4c1.4-0.9,7.8-5,8.9-5.2
		l-0.2-0.5l-0.3-0.5c0,0.6,0.1,0.4-0.2,0.7l-13-2.6l0.2-0.5L100.8,47.3L100.8,47.3z"/>
	<path class="st71" d="M86.9,33.7c-1.5,1.4-0.6,0.2-2.3,2l-6.3,5.7c-1.5,1.5-1,0.2-2.7,2.5c-0.3-0.5-0.7,0.6-0.1-0.7
		c-0.4,0.3-0.4-0.3-0.6,0.8c-0.1,1,0.9,0.7,3.4,0.7c2.9,0.1,10,0.6,12,0.3l1.6-0.1c-0.3,0,0.2,0.8-0.5-1c-0.6-1.6-4.2-8.8-4.3-10.2
		L86.9,33.7L86.9,33.7z"/>
	<path class="st97" d="M135.6,19.1l-1,1.4c-0.2,0.3-0.3,0.5-0.5,0.8l-0.5,0.8c-0.3,0.5-0.6,0.9-0.9,1.6l-4.8,8.2l0.1,0.2l0.6,0.3
		c0-0.6,2.1-0.8,3.4-1.1l11.1-2.5v0l-0.2-0.3c0,0-0.1-0.1-0.1-0.1l-1.4-2.4c-0.5-0.8-1.1-1.9-1.6-2.6l-3.1-5.4
		C136.2,18.9,136.8,19,135.6,19.1L135.6,19.1z"/>
	<path class="st10" d="M127.7,55l10.6-2.1l-0.2-0.4c-1.3-0.5-3.8-2.3-5-3.2l-11.9-7.9c-2.3-1.5-1.9-1.4-2.2-1
		c0.4,0.4,7.4,13.7,7.7,14.6L127.7,55L127.7,55z"/>
	<path class="st92" d="M104.2,9.1l0.3,0c1.4-0.4,12.1-6,13.6-6.4l0.2,0l-0.5-0.3L96.4,0.4L104.2,9.1L104.2,9.1z"/>
	<path class="st98" d="M87.1,33.8c0.1,1.4,3.7,8.5,4.3,10.2c0.7,1.7,0.3,1,0.5,1l-1.6,0.1c0.5,0.3,1.3,0.3,1.9,0.1l0.8-0.4
		c-0.4-0.5,0-0.8,0.1-0.9l5.9-9c0.4-0.7,1.4-2.8,2.1-2.8l0.2-0.1c-1.6-0.1-5.4,0.6-7.2,0.9C91.7,33.1,89.7,33.4,87.1,33.8L87.1,33.8
		z"/>
	<path class="st99" d="M108.1,38.9l3.5,0.3l0.7,2.7l2,7.5l0.3,0.5c1.1-1.3,3.1-9.3,4-9.9c0.8-0.7,3.2-0.3,4.4-0.3l4.1-0.3
		c0-0.1,0.1-0.1,0.2-0.1c-1.2-0.1-8.5-3-10.3-3.7c-2.9-1.1-2.3-0.7-4.6,0.8C111,37.1,109.4,38.2,108.1,38.9L108.1,38.9z"/>
	<path class="st100" d="M104.6,9.1c0.1,0.8,2.4,3.5,3,4.4c0.8,1.1,2.4,3.7,3.5,4.2c0.4-1.2,1.2-2.6,1.7-3.8c0.6-1.3,1.2-2.4,1.8-3.7
		c0.6-1.2,1.2-2.5,1.8-3.7c0.5-1.1,1.5-2.8,1.8-4C116.7,3.1,106,8.7,104.6,9.1L104.6,9.1z"/>
	<path class="st101" d="M69.2,86.9c0.2-1.7-0.1-3.5-0.1-5.3c0-1.4,0.2-3.9-0.5-4.8L56.4,70c-1.2-0.7-0.9-0.9-1.8-0.7l0,0
		c0.4,0.9,9.6,12.3,10.9,14l3.7,4.6L69.2,86.9L69.2,86.9z"/>
	<path class="st102" d="M214.5,19.9l1.7,7.2l0.3,0c1.1-0.6,3.3-1.3,4.6-1.8c1.6-0.6,3.1-1.2,4.7-1.8c2.1-0.8,7.7-3.2,9.7-3.5
		c-0.5-0.5-1.4-0.3-2.3-0.3l-8.2,0c-1.8,0-3-0.2-5-0.2c-1.9,0-3.8,0-5.6,0L214.5,19.9L214.5,19.9z"/>
	<path class="st103" d="M75.5,43.3c-0.6,1.3-0.2,0.2,0.1,0.7c1.7-2.3,1.2-1,2.7-2.5l6.3-5.7c1.6-1.9,0.7-0.7,2.3-2l-0.1-0.9
		c-1.1-1.5-2.8-7.7-3.6-8.3l-6.9,16.3C75.9,41.6,75.3,42.4,75.5,43.3L75.5,43.3z"/>
	<path class="st104" d="M101.4,31.9l-0.2,0.1c0.9,0.3,1.4,0.7,2.1,1c0.6,0.3,1.3,0.7,2,1.1c0.9,0.5,3.4,1.7,3.7,2.4
		c0.7-0.3,0.5-0.2,0.9-1c0.3-0.6,0.5-0.7,0.5-1.3c-0.6-2.3,0.1-12.3,0.1-15.4c0,0,0,0.1,0,0.1c0,0,0,0.1,0,0.1L101.4,31.9
		L101.4,31.9z"/>
	<path class="st76" d="M94.8,43.9L93,44.8l-0.8,0.4c0.6,0,0.1-0.1,0.5,0c0.7,0.3,0.3,0.1,0.6,0.3c1.9,0.4,5.7,1.6,7.5,1.7l0.5-0.3
		l11-5.2l-0.7-2.7l-3.5-0.3l-11.6,4.7c-0.7,0.3-0.8,0.4-1.3,0.4L94.8,43.9L94.8,43.9z"/>
	<path class="st105" d="M111.1,33.5c0.5-1.2,1.8-2.4,1.9-3.7c2.1-2.7,1.7-2.4,3.8-5.8l3.5-6l-1.7-0.1c-1.3-0.3-6.1-0.1-7.6,0
		c0,2.6-0.1,5.1-0.2,7.7c0,1.3-0.1,2.7-0.1,4l-0.1,2.9C110.8,33.7,110.5,33,111.1,33.5L111.1,33.5z"/>
	<path class="st106" d="M114.2,62.2c2.2-0.9,10.9-6.4,12.1-6.5c0-0.4-0.1-0.3,0.3-0.2l0-0.5l-11.8-4.7
		C114.4,51.5,113.9,61.1,114.2,62.2L114.2,62.2z"/>
	<path class="st107" d="M93,44.8l1.8-0.9c2.3-1.2,4.7-2.4,7.1-3.7c2-1.1,5.2-2.4,7-3.7c-0.3-0.7-2.8-1.9-3.7-2.4
		c-0.7-0.4-1.4-0.8-2-1.1c-0.7-0.3-1.2-0.8-2.1-1c-0.7,0.1-1.7,2.2-2.1,2.8l-5.9,9C93,44,92.6,44.3,93,44.8L93,44.8z"/>
	<path class="st15" d="M114.6,49.8l0.2,0.5l11.8,4.7c0.6,0.5,0.6,0.4,1.1,0l-1,0.1c-0.3-0.9-7.4-14.2-7.7-14.6
		c-0.2-0.2-0.9,0.1,0-0.6h-0.4C117.8,40.5,115.8,48.5,114.6,49.8L114.6,49.8z"/>
	<path class="st1" d="M76.1,138.9c1.1,0.1,22.7,10.9,27.7,13.2c0.6,0.3,1.3,0.5,1.8,1c0.7,0.1,6.5,2.9,7.4,3.4l0.8,0.3
		c-0.4-0.4-0.1,0-0.2-0.4l-6.3-3.5l-28.6-16.2c-0.6-0.2-0.8-0.5-1.4-0.8c-0.3,0.3-0.4,0.8-0.7,1.3c0,0-0.4,0.7-0.4,0.7
		C75.8,138.9,75.9,138.3,76.1,138.9L76.1,138.9z"/>
	<path class="st20" d="M12.1,68.6c0.5,0.3,0.5,0.4,0.6,1.5l0.5,5.5c0.1,1.5,0.3,6.4,0.8,7.3l0-1.4l0.1-0.2c-0.2-0.4-0.5,0.3,0.2-0.8
		l8-12.1l-9.6-0.2l-0.3,0L12.1,68.6L12.1,68.6z"/>
	<path class="st108" d="M96.7,61.1l0.6,0.1l0.1-0.4c-0.4-0.2-0.6,0.3,0-1.5c1.1-3.4,2.5-9.6,3.5-12.1c-1.8-0.1-5.6-1.2-7.5-1.7
		l-1-0.1c0.4,2.4,1.5,5.4,2.2,7.8C95,54.8,96.7,59.9,96.7,61.1L96.7,61.1z"/>
	<path class="st109" d="M119,40.5c0.2-0.5-0.1-0.6,2.2,1l11.9,7.9c1.3,0.8,3.7,2.7,5,3.2l-10-12.9c-1.9,0.6-6.8,0.3-9.1,0.3
		C118.1,40.6,118.8,40.3,119,40.5L119,40.5z"/>
	<path class="st48" d="M22,56.8c0.4,0.4,0.2-0.1,0,0.4l-7,8.1c-0.7,0.7-2.1,2.2-2.4,2.9l9.6,0.2l0.3-2.9c0.1-1.5,0.3-3.2,0.3-4.7
		c0-0.8,0-1.5-0.1-2.3c-0.1-1.3-0.1-1.2,0.4-2.1c-1.1,0-0.4-0.1-0.6,0.2C21.6,56.5,22.3,56.4,22,56.8L22,56.8z"/>
	<path class="st110" d="M135.6,19.1c1.2-0.1,0.6-0.3,1.2-1.1l3.1,5.4c0.5,0.7,1.1,1.8,1.6,2.6l1.4,2.4c0,0,0.1,0.1,0.1,0.1l0.2,0.3
		l3.3-11.1l-2.2-0.1c-0.6-0.2-8.1-0.3-9.1,0.2l1.3,0.2L135.6,19.1L135.6,19.1z"/>
	<path class="st111" d="M3.5,67.8c0.9-0.2,8-0.1,8.8,0.3l0.3,0c0.3-0.8,1.7-2.2,2.4-2.9l7-8.1c0.3-0.5,0.4,0,0-0.4
		c-0.5,0-0.6,0.2-1.1,0.5l-15,8.9C4.9,66.7,4,67.1,3.5,67.8L3.5,67.8z"/>
	<path class="st112" d="M101.3,47l-0.2,0.5l13,2.6c0.2-0.3,0.2-0.1,0.2-0.7l-2-7.5L101.3,47L101.3,47z"/>
	<path class="st113" d="M97.8,13.4c0.7-0.2,6.1-3.9,6.4-4.4l-7.8-8.6c-0.6,0.7,0.5,5.5,0.6,6.3L97.8,13.4L97.8,13.4z"/>
	<path class="st114" d="M204.6,31.5l11.6-4.4l-1.7-7.2C214,20.1,205,30.6,204.6,31.5L204.6,31.5z"/>
	<path class="st2" d="M117.4,150.9c0.6,1,1,1.6,1.5,2.6c0.4,0.8,1.3,2.1,1.5,3l10.5-3.7c-0.4-0.4,0-0.3-1.5-0.6
		c-2.5-0.4-9.8-1.9-11.2-1.8l-1.6-0.1l0.2,0.3C117.6,150.6,117.2,150.5,117.4,150.9L117.4,150.9z"/>
	<path class="st115" d="M128.1,39.2c0.3,0.6,1.9,0.1,2.5,0c0.8-0.1,1.8-0.2,2.6-0.3c1.5-0.2,4-0.7,5.4-0.6c-0.5-0.7-1.5-1.1-2.3-1.5
		c-0.9-0.5-1.7-1-2.5-1.5c-1.7-1-3.4-2-5-2.9l-0.6-0.3L128.1,39.2L128.1,39.2z"/>
	<path class="st10" d="M107.2,152.9l6.3,3.5c0.1-0.6,1.2-2.3,1.6-2.8l0.3-0.4c0,0,0.1-0.1,0.1-0.1c0.4-0.6,1.4-1.9,1.4-2.5l-0.2-0.3
		l-8.4,2c0,0-0.6,0.2-0.7,0.2c0,0-0.1,0.1-0.1,0.1l-0.2,0.2C107.3,152.8,107.2,152.9,107.2,152.9L107.2,152.9z"/>
	<path class="st3" d="M117.4,157.5c0.6,0.1,2.4-0.8,3.1-1c-0.2-0.9-1.1-2.2-1.5-3c-0.5-1-0.9-1.7-1.5-2.6l-0.3,0
		c0.2,0.7,0.1,0.3,0,0.8c-0.1,1.2-0.9,4.4-0.7,6.1L117.4,157.5L117.4,157.5z"/>
</g>
</svg>
