<?xml version="1.0" encoding="utf-8"?>
<!-- Generator: Adobe Illustrator 22.1.0, SVG Export Plug-In . SVG Version: 6.00 Build 0)  -->
<svg version="1.1" id="Layer_1" xmlns="http://www.w3.org/2000/svg" xmlns:xlink="http://www.w3.org/1999/xlink" x="0px" y="0px"
	 viewBox="0 0 255.9 255.9" style="enable-background:new 0 0 255.9 255.9;" xml:space="preserve">
<g>
	<path d="M246.9,160.1c0-7.6-6.2-13.7-13.7-13.7h-22.8v-38.9c0-2.2-1-4.3-2.8-5.6l-93.7-70.7c-2.5-1.9-5.9-1.9-8.4,0l-93.7,70.7
		c-1.8,1.3-2.8,3.4-2.8,5.6v119c0,3.9,3.1,7,7,7H125v8.7c0,7.6,6.2,13.7,13.7,13.7h94.4c7.6,0,13.7-6.2,13.7-13.7v-18.3
		c0-2.5-0.7-4.8-1.8-6.7c1.1-2,1.8-4.3,1.8-6.7v-18.3c0-2.5-0.7-4.8-1.8-6.7c1.1-2,1.8-4.3,1.8-6.7L246.9,160.1L246.9,160.1z
		 M139,224h93.9v17.8H139V224z M22.9,111l86.7-65.4l86.7,65.4v35.4h-57.6c-7.6,0-13.7,6.2-13.7,13.7v18.3c0,2.5,0.7,4.8,1.8,6.7
		c-1.1,2-1.8,4.3-1.8,6.7v18.3c0,2.5,0.7,4.8,1.8,6.7c-0.4,0.8-0.8,1.6-1.1,2.4H22.9L22.9,111L22.9,111z M232.9,210H139v-17.8h93.9
		V210z M232.9,178.2H139v-17.8h93.9V178.2z"/>
	<path d="M20.1,83.3l89.5-67.5l89.5,67.5c1.3,1,2.7,1.4,4.2,1.4c2.1,0,4.2-1,5.6-2.8c2.3-3.1,1.7-7.5-1.4-9.8L113.8,1.4
		c-2.5-1.9-5.9-1.9-8.4,0L11.7,72.1c-3.1,2.3-3.7,6.7-1.4,9.8C12.7,85,17.1,85.6,20.1,83.3L20.1,83.3z"/>
</g>
</svg>
