<?xml version="1.0" encoding="utf-8"?>
<!-- Generator: Adobe Illustrator 22.1.0, SVG Export Plug-In . SVG Version: 6.00 Build 0)  -->
<svg version="1.1" id="Layer_1" xmlns="http://www.w3.org/2000/svg" xmlns:xlink="http://www.w3.org/1999/xlink" x="0px" y="0px"
	 viewBox="0 0 427 427" style="enable-background:new 0 0 427 427;" xml:space="preserve">
<path d="M214.2,427c-1.4,0-2.9-0.4-4.1-1.3L5.3,273.8c-1.8-1.3-2.8-3.4-2.8-5.6c0-2.2,1.1-4.3,3-5.5l24.1-16.5
	c3.1-2.1,7.4-1.3,9.5,1.8c2.1,3.1,1.3,7.4-1.8,9.5l-16.2,11.1l193.1,143.1l193.2-143.2l-16-11.4c-3.1-2.2-3.8-6.4-1.6-9.5
	c2.2-3.1,6.5-3.8,9.5-1.6l23.6,16.9c1.8,1.3,2.8,3.3,2.9,5.5c0,2.2-1,4.2-2.8,5.5L218.2,425.7C217,426.6,215.6,427,214.2,427z"/>
<path d="M214.2,392.6c-1.4,0-2.9-0.4-4.1-1.3L5.3,239.5c-1.8-1.3-2.8-3.4-2.8-5.6c0-2.2,1.1-4.3,3-5.5l22.3-15.3
	c3.1-2.1,7.4-1.3,9.5,1.8c2.1,3.1,1.3,7.4-1.8,9.5l-14.4,9.9l193.1,143.1l193.2-143.2l-13.7-9.8c-3.1-2.2-3.8-6.4-1.6-9.5
	c2.2-3.1,6.5-3.8,9.5-1.6l21.4,15.3c1.8,1.3,2.8,3.3,2.9,5.5c0,2.2-1,4.2-2.8,5.5L218.2,391.3C217,392.2,215.6,392.6,214.2,392.6z"
	/>
<path d="M344.6,153.4c-1.4,0-2.8-0.4-4-1.3l-68.4-48.9c-3.1-2.2-3.8-6.4-1.6-9.5c2.2-3.1,6.5-3.8,9.5-1.6l68.4,48.9
	c3.1,2.2,3.8,6.4,1.6,9.5C348.9,152.4,346.8,153.4,344.6,153.4z"/>
<path d="M144.4,306.6c-1.4,0-2.8-0.4-4.1-1.3l-67.2-49.8c-3-2.2-3.7-6.5-1.4-9.5c2.3-3,6.5-3.7,9.5-1.4l67.2,49.8
	c3,2.2,3.7,6.5,1.4,9.5C148.6,305.6,146.5,306.6,144.4,306.6z"/>
<path d="M173.8,182.8c-0.6,0-1.2-0.1-1.8-0.2L79.4,157c-2.6-0.7-4.5-2.8-4.9-5.4c-0.4-2.6,0.7-5.3,2.9-6.8l137.2-94
	c2.4-1.6,5.5-1.6,7.8,0.1l57.8,41.3c1.8,1.3,2.8,3.3,2.9,5.4c0,2.2-1,4.2-2.7,5.5L178,181.4C176.8,182.3,175.3,182.8,173.8,182.8z
	 M97.2,147.7l75.2,20.8l92.4-70.7l-46.4-33.1L97.2,147.7z"/>
<path d="M77.2,256.7c-1.4,0-2.9-0.4-4.1-1.3L5.3,205.1c-1.8-1.3-2.8-3.4-2.8-5.6c0-2.2,1.1-4.3,3-5.5l71.9-49.2
	c3.1-2.1,7.4-1.3,9.5,1.8c2.1,3.1,1.3,7.4-1.8,9.5l-64,43.8l56.1,41.5l92.5-70.8c3-2.3,7.3-1.7,9.6,1.3c2.3,3,1.7,7.3-1.3,9.6
	l-96.6,73.9C80.1,256.3,78.7,256.7,77.2,256.7z"/>
<path d="M214.2,358.3c-1.4,0-2.9-0.4-4.1-1.3l-69.7-51.7c-1.7-1.3-2.7-3.3-2.8-5.4c0-2.1,1-4.2,2.7-5.5l97.1-74.3
	c1.9-1.4,4.4-1.8,6.6-0.9c2.2,0.9,3.8,2.8,4.2,5.2l16.6,93.4c0.5,2.6-0.6,5.1-2.6,6.7l-44,32.6C217,357.8,215.6,358.3,214.2,358.3z
	 M155.8,299.7l58.4,43.3l36.6-27.1l-13.9-78.2L155.8,299.7z"/>
<path d="M258.2,325.6c-2.1,0-4.2-0.9-5.5-2.8c-2.2-3-1.6-7.3,1.4-9.5l153.3-113.6L344.8,155l-99.1,75.9c-3,2.3-7.3,1.7-9.6-1.3
	c-2.3-3-1.7-7.3,1.3-9.6l103.1-78.9c2.4-1.8,5.7-1.9,8.1-0.1l74.3,53.1c1.8,1.3,2.8,3.3,2.9,5.5c0,2.2-1,4.2-2.8,5.5L262.2,324.3
	C261,325.2,259.6,325.6,258.2,325.6z"/>
<path d="M178.7,50.8c-1.7,0-3.5-0.7-4.8-2l-21.6-21.6c-2.7-2.7-2.7-7,0-9.6c2.7-2.7,7-2.7,9.6,0l21.6,21.6c2.7,2.7,2.7,7,0,9.6
	C182.2,50.2,180.5,50.8,178.7,50.8z"/>
<path d="M258.2,50.8c-1.7,0-3.5-0.7-4.8-2c-2.7-2.7-2.7-7,0-9.6L275,17.6c2.7-2.7,7-2.7,9.6,0c2.7,2.7,2.7,7,0,9.6L263,48.8
	C261.7,50.2,259.9,50.8,258.2,50.8z"/>
<path d="M212.6,40.9c-3.8,0-6.8-3.1-6.8-6.8V6.8c0-3.8,3.1-6.8,6.8-6.8c3.8,0,6.8,3.1,6.8,6.8v27.3
	C219.4,37.9,216.3,40.9,212.6,40.9z"/>
</svg>
