<?xml version="1.0" encoding="utf-8"?>
<!-- Generator: Adobe Illustrator 22.1.0, SVG Export Plug-In . SVG Version: 6.00 Build 0)  -->
<svg version="1.1" id="Capa_1" xmlns="http://www.w3.org/2000/svg" xmlns:xlink="http://www.w3.org/1999/xlink" x="0px" y="0px"
	 viewBox="0 0 467.2 467.2" style="enable-background:new 0 0 467.2 467.2;" xml:space="preserve">
<g>
	<g>
		<path d="M455.1,120.9L363.4,4.6C361.1,1.7,357.7,0,354,0H113.2c-3.7,0-7.1,1.7-9.4,4.6L12.1,120.9c-1.7,2.1-2.6,4.7-2.6,7.4v326.9
			c0,6.6,5.4,12,12,12h424.1c6.6,0,12-5.4,12-12V128.3C457.7,125.6,456.8,123,455.1,120.9z M422.5,118.3H245.6V24h102.6L422.5,118.3
			z M119,24h102.6v94.3H44.7L119,24z M33.5,443.2V142.3h400.1v300.9H33.5L33.5,443.2z"/>
		<path d="M290.5,238.9l-80.4,80.4l-33.4-33.4c-4.7-4.7-12.3-4.7-17,0s-4.7,12.3,0,17l41.9,41.9c2.3,2.3,5.4,3.5,8.5,3.5
			s6.1-1.2,8.5-3.5l88.8-88.8c4.7-4.7,4.7-12.3,0-17C302.8,234.2,295.2,234.2,290.5,238.9z"/>
	</g>
</g>
</svg>
