<?xml version="1.0" encoding="utf-8"?>
<!-- Generator: Adobe Illustrator 22.1.0, SVG Export Plug-In . SVG Version: 6.00 Build 0)  -->
<svg version="1.1" id="Capa_1" xmlns="http://www.w3.org/2000/svg" xmlns:xlink="http://www.w3.org/1999/xlink" x="0px" y="0px"
	 viewBox="0 0 512 512" style="enable-background:new 0 0 512 512;" xml:space="preserve">
<g>
	<g>
		<path d="M509.1,80.1c-3.9-3.9-10.2-3.9-14.1,0c-3.9,3.9-3.9,10.2,0,14.1c3.9,3.9,10.2,3.9,14.1,0C513,90.3,513,84,509.1,80.1z"/>
	</g>
</g>
<g>
	<g>
		<path d="M480.8,23.5c-3.9-3.9-10.2-3.9-14.1,0c-3.9,3.9-3.9,10.2,0,14.1c3.9,3.9,10.2,3.9,14.1,0
			C484.7,33.7,484.7,27.4,480.8,23.5z"/>
	</g>
</g>
<g>
	<g>
		<path d="M410.1,9.3c-3.9-3.9-10.2-3.9-14.1,0c-3.9,3.9-3.9,10.2,0,14.1c3.9,3.9,10.2,3.9,14.1,0C414,19.6,414,13.3,410.1,9.3z"/>
	</g>
</g>
<g>
	<g>
		<path d="M60,445.6c-3.9-3.9-10.2-3.9-14.1,0c-3.9,3.9-3.9,10.2,0,14.1c3.9,3.9,10.2,3.9,14.2,0C63.9,455.8,63.9,449.5,60,445.6z"
			/>
	</g>
</g>
<g>
	<g>
		<path d="M141.3,362.8c-4-3.9-10.3-3.8-14.1,0.2L74,417.4c-3.9,4-3.8,10.3,0.2,14.1c1.9,1.9,4.5,2.8,7,2.8c2.6,0,5.2-1,7.2-3
			l53.1-54.4C145.3,373,145.2,366.7,141.3,362.8z"/>
	</g>
</g>
<g>
	<g>
		<path d="M466.6,235.6l-35.3-35.3c-0.1-0.1-0.1-0.1-0.2-0.2l-42.3-42.3c0-0.1-0.1-0.1-0.1-0.1l-42.3-42.3c0,0-0.1-0.1-0.1-0.1
			l-42.3-42.3c0,0-0.1-0.1-0.1-0.1l-35.3-35.3c-1.9-1.9-4.4-2.9-7.1-2.9s-5.2,1.1-7.1,2.9L141.4,150.8l-14.2,14.1
			c-19.5,19.5-19.5,51.2,0,70.7l28.3,28.3c1.9,1.9,2.9,4.4,2.9,7.1s-1,5.2-2.9,7.1l-14,14L20.4,400.5c0,0,0,0,0,0
			c-1,0.9-2,1.8-2.9,2.7c-23.4,23.4-23.4,61.5,0,84.9c11.3,11.3,26.4,17.5,42.4,17.5c16,0,31.1-6.2,42.4-17.5
			c0.9-0.9,1.8-1.9,2.8-2.9c0,0,0,0,0,0c0,0,0,0,0,0l107.2-122.4l13.9-13.9c3.9-3.9,10.2-3.9,14.1,0l28.3,28.3
			c9.4,9.5,22,14.7,35.4,14.7s25.9-5.2,35.3-14.6l14.2-14.1l113.1-113.1C470.5,245.9,470.5,239.5,466.6,235.6z M90.1,471.9
			L90.1,471.9c-0.6,0.7-1.3,1.4-1.9,2c-7.5,7.5-17.6,11.7-28.3,11.7s-20.7-4.1-28.3-11.7c-15.6-15.6-15.6-41,0-56.6
			c0.6-0.6,1.3-1.2,2-1.9c0,0,0,0,0,0c0,0,0,0,0,0L148.1,313l43.3,43.3L90.1,471.9z M325.2,362.9c-5.7,5.7-13.2,8.8-21.2,8.8
			s-15.5-3.1-21.2-8.8l-28.3-28.3c-11.7-11.7-30.7-11.7-42.4,0l-7.1,7.1l-42.4-42.4l7.1-7.1c5.7-5.7,8.8-13.2,8.8-21.2
			s-3.1-15.5-8.8-21.2l-28.3-28.3c-11.7-11.7-11.7-30.7,0-42.4l7.1-7.1l183.8,183.8L325.2,362.9z M346.4,341.7L162.6,157.8l99-99
			l21.2,21.2l-49.5,49.5c-3.9,3.9-3.9,10.2,0,14.1c2,2,4.5,2.9,7.1,2.9c2.6,0,5.1-1,7.1-2.9l49.5-49.5l28.3,28.3L275.7,172
			c-3.9,3.9-3.9,10.2,0,14.1c2,2,4.5,2.9,7.1,2.9c2.6,0,5.1-1,7.1-2.9l49.5-49.5l28.3,28.3l-49.5,49.5c-3.9,3.9-3.9,10.2,0,14.1
			c2,2,4.5,2.9,7.1,2.9c2.6,0,5.1-1,7.1-2.9l49.5-49.5l28.3,28.3l-49.5,49.5c-3.9,3.9-3.9,10.2,0,14.1c2,2,4.5,2.9,7.1,2.9
			c2.6,0,5.1-1,7.1-2.9l49.5-49.5l21.2,21.2L346.4,341.7z"/>
	</g>
</g>
<g>
	<g>
		<path d="M381.8,37.6c-3.9-3.9-10.2-3.9-14.1,0l-28.3,28.3c-3.9,3.9-3.9,10.2,0,14.1c2,2,4.5,2.9,7.1,2.9s5.1-1,7.1-2.9l28.3-28.3
			C385.7,47.9,385.7,41.5,381.8,37.6z"/>
	</g>
</g>
<g>
	<g>
		<path d="M325.2,9.3c-3.9-3.9-10.2-3.9-14.1,0l-14.1,14.1c-3.9,3.9-3.9,10.2,0,14.1c2,2,4.5,2.9,7.1,2.9c2.6,0,5.1-1,7.1-2.9
			l14.1-14.1C329.1,19.6,329.1,13.2,325.2,9.3z"/>
	</g>
</g>
<g>
	<g>
		<path d="M452.5,51.8c-3.9-3.9-10.2-3.9-14.1,0l-56.6,56.6c-3.9,3.9-3.9,10.2,0,14.1c2,2,4.5,2.9,7.1,2.9s5.1-1,7.1-2.9l56.6-56.6
			C456.4,62,456.4,55.7,452.5,51.8z"/>
	</g>
</g>
<g>
	<g>
		<path d="M480.8,108.3c-3.9-3.9-10.2-3.9-14.1,0l-42.4,42.4c-3.9,3.9-3.9,10.2,0,14.1c2,2,4.5,2.9,7.1,2.9c2.6,0,5.1-1,7.1-2.9
			l42.4-42.4C484.7,118.6,484.7,112.3,480.8,108.3z"/>
	</g>
</g>
<g>
	<g>
		<path d="M494.9,179.1c-3.9-3.9-10.2-3.9-14.1,0l-14.1,14.1c-3.9,3.9-3.9,10.2,0,14.1c2,2,4.5,2.9,7.1,2.9s5.1-1,7.1-2.9l14.1-14.1
			C498.8,189.3,498.8,183,494.9,179.1z"/>
	</g>
</g>
</svg>
