<?xml version="1.0" encoding="utf-8"?>
<!-- Generator: Adobe Illustrator 22.1.0, SVG Export Plug-In . SVG Version: 6.00 Build 0)  -->
<svg version="1.1" id="Layer_1" xmlns="http://www.w3.org/2000/svg" xmlns:xlink="http://www.w3.org/1999/xlink" x="0px" y="0px"
	 viewBox="0 0 83.8 25.9" style="enable-background:new 0 0 83.8 25.9;" xml:space="preserve">
<style type="text/css">
	.st0{fill:#F78D20;}
	.st1{fill:#1B6C39;}
	.st2{fill:#CF357C;}
</style>
<g>
	<polygon class="st0" points="25.7,9.9 21.2,6.9 16.7,9.9 25.7,9.9 	"/>
	<polygon class="st1" points="30.2,12.2 33.4,12.2 33.4,17.1 38.6,17.1 38.6,12.2 41.8,12.2 41.8,24.3 38.6,24.3 38.6,19.8 
		33.4,19.8 33.4,24.3 30.2,24.3 30.2,12.2 	"/>
	<polygon class="st1" points="56.3,12.2 56.3,24.3 53.1,24.3 53.1,17.6 46,24.3 44.2,24.3 44.2,12.2 47.5,12.2 47.5,18.9 54.6,12.2 
		56.3,12.2 	"/>
	<polygon class="st1" points="68,24.3 62.2,18.8 62.2,24.3 59,24.3 59,12.2 62.2,12.2 62.2,17.6 67,12.2 70.8,12.2 65.5,18 
		71.9,24.3 68,24.3 	"/>
	<path class="st1" d="M79.3,22.3h-5.2l-1,2h-3.5l6-12.1h2.2l6,12.1h-3.5L79.3,22.3L79.3,22.3z M75.1,19.9h3.3l-0.8-1.6l-0.9-1.8
		l-0.9,1.8L75.1,19.9L75.1,19.9z"/>
	<path class="st1" d="M4,15.1c0.1-0.1,0.2,0.3,0.4,0.2c0-0.6-0.1-1.2-0.1-1.7l0,0c-0.4-0.1-0.7-0.4-0.8-0.7l-0.2-0.2
		c0,0.3,0,0.6,0,1c0,0.4,0,0.7,0,1C3.6,14.8,3.8,14.9,4,15.1L4,15.1z"/>
	<path class="st1" d="M22.1,22.9c-1.8,1.3-4.1,2.1-6.5,2.1c-4.9,0-9.1-3.2-10.6-7.6c-0.1,0-0.2,0-0.3,0c-0.4,0-0.6-0.1-0.8-0.3
		c1.5,5.1,6.2,8.8,11.8,8.8c2.7,0,5.2-0.9,7.3-2.4l-0.1-0.2C22.5,23.2,22.3,23,22.1,22.9L22.1,22.9z"/>
	<polygon class="st1" points="30.8,6.7 21.3,0 10.4,7.7 11.9,7.7 21.3,1.1 30.6,7.7 30.8,7.7 30.8,6.7 	"/>
	<polygon class="st1" points="13.4,9.8 21.3,4.3 29.3,9.9 31.9,9.9 21.3,2.5 10.8,9.8 13.4,9.8 	"/>
	<path class="st1" d="M11.3,12.7c0,0-3.3-0.4-4.4,2.8c0,0,0.9-1.2,2.3-1.4c0,0-2,1.6-2,2.3C7.2,16.5,10.9,17.1,11.3,12.7L11.3,12.7z
		"/>
	<path class="st1" d="M8.8,8.1c0,0-3.5,1.1-2.9,5.6c0,0,0.3-3.1,1.8-3.9c0,0-1.3,1.6-1.1,3.6C6.6,13.5,10,12.2,8.8,8.1L8.8,8.1z"/>
	<path class="st1" d="M0.1,19.3c0,0,3.4,2.6,6.2,0.8c0,0-2.4,0.4-3.5-0.4c0,0,2.6,0.2,3.1-0.3C5.9,19.5,3.6,17.1,0.1,19.3L0.1,19.3z
		"/>
	<path class="st1" d="M11.8,22.6c0,0,2.2,1.2,4.8,1c2.5-0.2,4-1.5,4-1.5s-2.7-2.4-7.7-0.7c0,0,3.4-0.1,5,0.5
		C17.8,21.9,13.2,21.8,11.8,22.6L11.8,22.6z"/>
	<path class="st1" d="M73.2,8.5h0.7V7.4h-0.5C73.3,7.9,73.3,8.3,73.2,8.5L73.2,8.5z"/>
	<path class="st1" d="M69.8,7.8l0.1-0.1L70,7.6l0-0.1l-0.1-0.1c0,0-0.1,0-0.3,0h-0.2v0.4h0.2C69.7,7.8,69.8,7.8,69.8,7.8L69.8,7.8z"
		/>
	<path class="st1" d="M53,8.1c-0.1,0-0.2,0-0.3,0h-0.3v0.5h0.3c0.1,0,0.2,0,0.3,0l0.1-0.1l0.1-0.1l0-0.1L53,8.1L53,8.1z"/>
	<path class="st1" d="M54.7,7.4c-0.1,0-0.3,0-0.4,0.1c-0.1,0.1-0.1,0.3-0.1,0.5c0,0.2,0,0.3,0.1,0.5c0.1,0.1,0.2,0.2,0.4,0.2
		c0.1,0,0.3-0.1,0.4-0.2c0.1-0.1,0.1-0.3,0.1-0.5c0-0.2,0-0.4-0.1-0.5C54.9,7.4,54.8,7.4,54.7,7.4L54.7,7.4z"/>
	<path class="st1" d="M69.9,8.1c0,0-0.2,0-0.3,0h-0.3v0.5h0.3c0.1,0,0.2,0,0.3,0L70,8.5l0.1-0.1l0-0.1L69.9,8.1L69.9,8.1z"/>
	<path class="st1" d="M52.9,7.8L53,7.7l0.1-0.1l0-0.1l-0.1-0.1c0,0-0.1,0-0.3,0h-0.2v0.4h0.2C52.7,7.8,52.8,7.8,52.9,7.8L52.9,7.8z"
		/>
	<path class="st1" d="M62.2,7.4c0,0-0.1,0-0.3,0h-0.2v0.5H62c0.1,0,0.2,0,0.3,0l0.1-0.1l0-0.1l-0.1-0.2L62.2,7.4L62.2,7.4z"/>
	<path class="st1" d="M64,7.4c-0.1,0-0.3,0-0.4,0.1c-0.1,0.1-0.1,0.3-0.1,0.5c0,0.2,0,0.3,0.1,0.5c0.1,0.1,0.2,0.2,0.4,0.2
		c0.1,0,0.3-0.1,0.4-0.2c0.1-0.1,0.1-0.3,0.1-0.5c0-0.2,0-0.4-0.1-0.5C64.3,7.4,64.2,7.4,64,7.4L64,7.4z"/>
	<path class="st1" d="M47.3,8.1h-0.4v0.5h0.4c0.1,0,0.2,0,0.2,0l0.1-0.1l0.1-0.1l-0.1-0.2C47.6,8.1,47.5,8.1,47.3,8.1L47.3,8.1z"/>
	<path class="st1" d="M71.6,7.4c-0.1,0-0.3,0-0.4,0.1c-0.1,0.1-0.1,0.3-0.1,0.5c0,0.2,0,0.3,0.1,0.5c0.1,0.1,0.2,0.2,0.4,0.2
		c0.1,0,0.3-0.1,0.4-0.2c0.1-0.1,0.1-0.3,0.1-0.5c0-0.2,0-0.4-0.1-0.5C71.9,7.4,71.7,7.4,71.6,7.4L71.6,7.4z"/>
	<path class="st1" d="M36.2,7.4c0,0-0.1,0-0.3,0h-0.2v0.5H36c0.1,0,0.2,0,0.3,0l0.1-0.1l0-0.1l-0.1-0.2L36.2,7.4L36.2,7.4z"/>
	<path class="st1" d="M79.3,8.1c-0.1,0-0.2,0-0.3,0h-0.3v0.5H79c0.1,0,0.2,0,0.3,0l0.1-0.1l0.1-0.1l0-0.1L79.3,8.1L79.3,8.1z"/>
	<path class="st1" d="M81,7.4c-0.1,0-0.3,0-0.4,0.1c-0.1,0.1-0.1,0.3-0.1,0.5c0,0.2,0,0.3,0.1,0.5c0.1,0.1,0.2,0.2,0.4,0.2
		c0.1,0,0.3-0.1,0.4-0.2c0.1-0.1,0.1-0.3,0.1-0.5c0-0.2,0-0.4-0.1-0.5C81.3,7.4,81.1,7.4,81,7.4L81,7.4z"/>
	<path class="st1" d="M30,9.9h53.7V6.1H30V9.9L30,9.9z M33.1,8.7c-0.1,0.1-0.3,0.1-0.5,0.1c-0.2,0-0.4-0.1-0.6-0.2
		c-0.2-0.2-0.2-0.4-0.2-0.7c0-0.3,0.1-0.5,0.2-0.7C32.2,7.1,32.4,7,32.7,7c0.2,0,0.4,0.1,0.5,0.2c0.1,0.1,0.1,0.2,0.2,0.3l-0.4,0.1
		c0-0.1-0.1-0.2-0.1-0.2c-0.1-0.1-0.1-0.1-0.2-0.1c-0.1,0-0.2,0-0.3,0.1c-0.1,0.1-0.1,0.2-0.1,0.5c0,0.2,0,0.4,0.1,0.5
		c0.1,0.1,0.2,0.1,0.3,0.1c0.1,0,0.2,0,0.3-0.1C33,8.4,33,8.3,33.1,8.2l0.4,0.1C33.4,8.5,33.3,8.6,33.1,8.7L33.1,8.7z M35.1,7.4
		h-0.5v1.5h-0.4V7.4h-0.5V7.1h1.4V7.4L35.1,7.4z M36.8,7.9l-0.2,0.2l-0.2,0.1c-0.1,0-0.2,0-0.4,0h-0.2v0.7h-0.4V7.1H36
		c0.2,0,0.4,0,0.4,0c0.1,0,0.2,0.1,0.3,0.2c0.1,0.1,0.1,0.2,0.1,0.3C36.8,7.7,36.8,7.8,36.8,7.9L36.8,7.9z M38.7,8.6
		c-0.2,0.2-0.4,0.2-0.6,0.2c-0.3,0-0.5-0.1-0.6-0.2c-0.2-0.2-0.2-0.4-0.2-0.7c0-0.2,0-0.3,0.1-0.5c0-0.1,0.1-0.2,0.2-0.2l0.2-0.2
		C37.7,7.1,37.9,7,38,7c0.3,0,0.5,0.1,0.6,0.2c0.2,0.2,0.2,0.4,0.2,0.7C38.9,8.2,38.8,8.5,38.7,8.6L38.7,8.6z M40.7,8.8h-0.3V7.7
		l-0.7,1.1h-0.4V7.1h0.3v1.2l0.7-1.2h0.4V8.8L40.7,8.8z M42.5,7.4H42v1.5h-0.4V7.4h-0.5V7.1h1.4V7.4L42.5,7.4z M44.3,8.8h-1.4V7.1
		h1.3v0.3h-1v0.4h0.9v0.3h-0.9v0.5h1V8.8L44.3,8.8z M46.1,8.8h-0.4V7.4h-0.5v0.7c0,0.2,0,0.4,0,0.5L45,8.8c-0.1,0-0.1,0.1-0.3,0.1
		c0,0-0.1,0-0.2,0V8.6l0.1,0l0.2,0l0-0.1V8.1v-1h1.3V8.8L46.1,8.8z M48,8.6l-0.2,0.2c-0.1,0-0.2,0-0.3,0h-0.9V7.1h0.4v0.7h0.5
		c0.2,0,0.4,0.1,0.5,0.2C48,8,48.1,8.2,48.1,8.3C48.1,8.4,48.1,8.5,48,8.6L48,8.6z M49.7,8.7c-0.1,0.1-0.3,0.1-0.5,0.1
		c-0.2,0-0.4-0.1-0.6-0.2c-0.2-0.2-0.2-0.4-0.2-0.7c0-0.3,0.1-0.5,0.2-0.7C48.8,7.1,49,7,49.2,7c0.2,0,0.4,0.1,0.5,0.2
		c0.1,0.1,0.1,0.2,0.2,0.3l-0.4,0.1c0-0.1-0.1-0.2-0.1-0.2c-0.1-0.1-0.1-0.1-0.2-0.1c-0.1,0-0.2,0-0.3,0.1c-0.1,0.1-0.1,0.2-0.1,0.5
		c0,0.2,0,0.4,0.1,0.5c0.1,0.1,0.2,0.1,0.3,0.1c0.1,0,0.2,0,0.3-0.1c0.1-0.1,0.1-0.2,0.2-0.3L50,8.3C49.9,8.5,49.8,8.6,49.7,8.7
		L49.7,8.7z M51.6,7.4h-0.5v1.5h-0.4V7.4h-0.5V7.1h1.4V7.4L51.6,7.4z M53.4,8.6l-0.2,0.2c-0.1,0-0.1,0.1-0.2,0.1c-0.1,0-0.2,0-0.4,0
		H52V7.1h0.7c0.1,0,0.3,0,0.3,0l0.2,0.1l0.1,0.1l0.1,0.2l-0.1,0.2l-0.2,0.2c0.1,0,0.2,0.1,0.3,0.2c0.1,0.1,0.1,0.2,0.1,0.3L53.4,8.6
		L53.4,8.6z M55.3,8.6c-0.2,0.2-0.4,0.2-0.6,0.2c-0.3,0-0.5-0.1-0.6-0.2c-0.2-0.2-0.2-0.4-0.2-0.7c0-0.2,0-0.3,0.1-0.5
		c0-0.1,0.1-0.2,0.2-0.2l0.2-0.2c0.1,0,0.2-0.1,0.4-0.1c0.3,0,0.5,0.1,0.6,0.2c0.2,0.2,0.2,0.4,0.2,0.7C55.5,8.2,55.5,8.5,55.3,8.6
		L55.3,8.6z M58.2,8.8h-0.3V7.7l-0.7,1.1h-0.4V7.1h0.3v1.2l0.7-1.2h0.4V8.8L58.2,8.8z M60.9,8.8h-0.4V7.4h-0.7v1.5h-0.4V7.1h1.4V8.8
		L60.9,8.8z M62.8,7.9l-0.2,0.2l-0.2,0.1c-0.1,0-0.2,0-0.4,0h-0.2v0.7h-0.4V7.1H62c0.2,0,0.4,0,0.4,0c0.1,0,0.2,0.1,0.3,0.2
		c0.1,0.1,0.1,0.2,0.1,0.3C62.8,7.7,62.8,7.8,62.8,7.9L62.8,7.9z M64.6,8.6c-0.2,0.2-0.4,0.2-0.6,0.2c-0.3,0-0.5-0.1-0.6-0.2
		c-0.2-0.2-0.2-0.4-0.2-0.7c0-0.2,0-0.3,0.1-0.5c0-0.1,0.1-0.2,0.2-0.2l0.2-0.2C63.7,7.1,63.9,7,64,7c0.3,0,0.5,0.1,0.6,0.2
		c0.2,0.2,0.2,0.4,0.2,0.7C64.9,8.2,64.8,8.5,64.6,8.6L64.6,8.6z M66.7,8.8h-0.3V7.7l-0.7,1.1h-0.4V7.1h0.3v1.2l0.7-1.2h0.4V8.8
		L66.7,8.8z M68.3,8.7c-0.1,0.1-0.3,0.1-0.5,0.1c-0.2,0-0.3,0-0.5-0.1c-0.1-0.1-0.2-0.2-0.2-0.3l0.3-0.1c0,0.1,0.1,0.2,0.1,0.2
		l0.2,0c0.1,0,0.2,0,0.3-0.1l0.1-0.2L68,8.2c-0.1,0-0.2-0.1-0.3-0.1h-0.1V7.8h0c0.1,0,0.2,0,0.3-0.1L68,7.6L68,7.4
		c0,0-0.1-0.1-0.2-0.1c-0.2,0-0.3,0.1-0.3,0.2l-0.4-0.1C67.2,7.2,67.4,7,67.8,7c0.2,0,0.4,0,0.5,0.1c0.1,0.1,0.2,0.2,0.2,0.3
		l-0.1,0.2c0,0.1-0.1,0.1-0.2,0.2c0.1,0,0.2,0.1,0.3,0.2c0.1,0.1,0.1,0.2,0.1,0.3C68.5,8.5,68.4,8.6,68.3,8.7L68.3,8.7z M70.4,8.6
		l-0.2,0.2c-0.1,0-0.1,0.1-0.2,0.1c-0.1,0-0.2,0-0.4,0h-0.6V7.1h0.7c0.1,0,0.3,0,0.3,0l0.2,0.1l0.1,0.1l0.1,0.2l-0.1,0.2l-0.2,0.2
		c0.1,0,0.2,0.1,0.3,0.2c0.1,0.1,0.1,0.2,0.1,0.3L70.4,8.6L70.4,8.6z M72.2,8.6c-0.2,0.2-0.4,0.2-0.6,0.2c-0.3,0-0.5-0.1-0.6-0.2
		c-0.2-0.2-0.2-0.4-0.2-0.7c0-0.2,0-0.3,0.1-0.5c0-0.1,0.1-0.2,0.2-0.2l0.2-0.2c0.1,0,0.2-0.1,0.4-0.1c0.3,0,0.5,0.1,0.6,0.2
		c0.2,0.2,0.2,0.4,0.2,0.7C72.5,8.2,72.4,8.5,72.2,8.6L72.2,8.6z M74.4,9.2h-0.3V8.8h-1.1v0.4h-0.3V8.5h0.2c0.1-0.2,0.1-0.3,0.1-0.5
		c0-0.2,0-0.5,0-0.8V7.1h1.3v1.5h0.2V9.2L74.4,9.2z M76,8.7c-0.1,0.1-0.3,0.1-0.5,0.1c-0.2,0-0.4-0.1-0.6-0.2
		c-0.2-0.2-0.2-0.4-0.2-0.7c0-0.3,0.1-0.5,0.2-0.7C75.1,7.1,75.3,7,75.5,7c0.2,0,0.4,0.1,0.5,0.2c0.1,0.1,0.1,0.2,0.2,0.3l-0.4,0.1
		c0-0.1-0.1-0.2-0.1-0.2c-0.1-0.1-0.2-0.1-0.2-0.1c-0.1,0-0.2,0-0.3,0.1c-0.1,0.1-0.1,0.2-0.1,0.5c0,0.2,0,0.4,0.1,0.5
		c0.1,0.1,0.2,0.1,0.3,0.1c0.1,0,0.2,0,0.3-0.1c0.1-0.1,0.1-0.2,0.2-0.3l0.4,0.1C76.2,8.5,76.1,8.6,76,8.7L76,8.7z M77.9,7.4h-0.5
		v1.5H77V7.4h-0.5V7.1h1.4V7.4L77.9,7.4z M79.8,8.6l-0.2,0.2c-0.1,0-0.1,0.1-0.2,0.1c-0.1,0-0.2,0-0.4,0h-0.6V7.1H79
		c0.1,0,0.3,0,0.3,0l0.2,0.1l0.1,0.1l0.1,0.2l-0.1,0.2l-0.2,0.2c0.1,0,0.2,0.1,0.3,0.2c0.1,0.1,0.1,0.2,0.1,0.3L79.8,8.6L79.8,8.6z
		 M81.6,8.6c-0.2,0.2-0.4,0.2-0.6,0.2c-0.3,0-0.5-0.1-0.6-0.2c-0.2-0.2-0.2-0.4-0.2-0.7c0-0.2,0-0.3,0.1-0.5c0-0.1,0.1-0.2,0.2-0.2
		l0.2-0.2C80.7,7.1,80.8,7,81,7c0.3,0,0.5,0.1,0.6,0.2c0.2,0.2,0.2,0.4,0.2,0.7C81.9,8.2,81.8,8.5,81.6,8.6L81.6,8.6z"/>
	<path class="st1" d="M79.2,7.8l0.1-0.1l0.1-0.1l0-0.1l-0.1-0.1c0,0-0.1,0-0.3,0h-0.2v0.4h0.2C79,7.8,79.1,7.8,79.2,7.8L79.2,7.8z"
		/>
	<path class="st1" d="M38,7.4c-0.2,0-0.3,0-0.4,0.1c-0.1,0.1-0.1,0.3-0.1,0.5c0,0.2,0,0.3,0.1,0.5c0.1,0.1,0.2,0.2,0.4,0.2
		c0.1,0,0.3-0.1,0.4-0.2c0.1-0.1,0.1-0.3,0.1-0.5c0-0.2,0-0.4-0.1-0.5C38.3,7.4,38.2,7.4,38,7.4L38,7.4z"/>
	<path class="st1" d="M4.3,13.7L4.3,13.7c-0.2-0.2-1.5-1.4-1.7-4.1c0,0,0.5,2,1.7,3.2c0-0.7,0.2-1.3,0.3-1.9c-0.3-1.3-1-2.8-3-3.6
		c0,0-1,5.7,2.7,6.7V13.7L4.3,13.7L4.3,13.7L4.3,13.7z"/>
	<path class="st1" d="M0,13.7c0,0,1,4.2,5.1,4.1l-0.1-0.4c-0.5-0.3-2-0.6-3.1-2.4c0,0,1.3,1.3,2.9,1.8c-0.1-0.5-0.2-0.9-0.3-1.4
		C3.8,14.5,2.5,13.6,0,13.7L0,13.7z"/>
	<polygon class="st2" points="4.3,13.7 4.3,13.8 4.3,13.7 4.3,13.7 	"/>
	<path class="st1" d="M4.3,13.7c0,0,0.1,2.3,0.4,3.1L3.9,16l-0.1-2.3L4.3,13.7L4.3,13.7z"/>
	<path class="st1" d="M15.5,1.4c-5.5,0-10.2,3.6-11.7,8.6c0.4,0,0.6,0.6,0.8,0.8C6,6,10.4,2.4,15.5,2.4c0.2,0,0.4,0,0.6,0l1.2-0.9
		C16.8,1.5,16.2,1.4,15.5,1.4L15.5,1.4z"/>
	<path class="st0" d="M27.7,12.1h-1l0,0H12.6v0.3v7.4c0,0,2.9-1.5,6.4-0.5c3.1,0.9,4.4,2.5,4.4,2.5s0.4,0.4,0.6,0.7
		c2.3-2.2,3.8-5.4,3.8-8.8C27.8,13.2,27.8,12.6,27.7,12.1L27.7,12.1z M17.4,17.8h-1v-3.2h-1.5v3.2h-1v-4.2h3.5V17.8L17.4,17.8z
		 M20.2,16.9c0.4,0,0.8-0.2,1-0.5l0.8,0.7c-0.4,0.5-1,0.8-1.8,0.8c-1.3,0-2.1-0.8-2.1-2.2c0-1.3,0.8-2.2,2.1-2.2
		c0.8,0,1.4,0.3,1.8,0.8L21.2,15c-0.2-0.3-0.5-0.5-1-0.5c-0.7,0-1.1,0.4-1.1,1.2C19.1,16.4,19.5,16.9,20.2,16.9L20.2,16.9z M25,17.8
		l-1.4-1.9v1.9h-1v-4.2h1v1.9l1.2-1.9h1.2l-1.4,2l1.6,2.2H25L25,17.8z"/>
	<path class="st1" d="M7.3,19.5c-2.4-4.7-1.2-7.2-0.7-9.6c-1.5,2.3-1.7,5.6-0.5,8.9c2.2,6,6.8,7.2,11.7,6.3
		C13.1,25.1,9.9,24.5,7.3,19.5L7.3,19.5z"/>
</g>
</svg>
