<?xml version="1.0" encoding="UTF-8"?>
<!DOCTYPE svg PUBLIC "-//W3C//DTD SVG 1.1//EN" "http://www.w3.org/Graphics/SVG/1.1/DTD/svg11.dtd">
<!-- Creator: CorelDRAW 2018 (64-Bit) -->
<svg xmlns="http://www.w3.org/2000/svg" xml:space="preserve" width="84.746mm" height="26.2122mm" version="1.1" style="shape-rendering:geometricPrecision; text-rendering:geometricPrecision; image-rendering:optimizeQuality; fill-rule:evenodd; clip-rule:evenodd"
viewBox="0 0 11424.12 3533.51"
 xmlns:xlink="http://www.w3.org/1999/xlink">
 <defs>
  <style type="text/css">
   <![CDATA[
    .fil4 {fill:#266E3C}
    .fil5 {fill:#FEFEFE;fill-rule:nonzero}
    .fil0 {fill:#F18B1A;fill-rule:nonzero}
    .fil2 {fill:#E7E7E6;fill-rule:nonzero}
    .fil3 {fill:#CF3476;fill-rule:nonzero}
    .fil1 {fill:#266E3C;fill-rule:nonzero}
   ]]>
  </style>
 </defs>
 <g id="Layer_x0020_1">
  <metadata id="CorelCorpID_0Corel-Layer"/>
  <polygon class="fil0" points="3499.91,1347.45 2889.06,938.75 2272.3,1347.45 "/>
  <polygon class="fil1" points="4116.1,1665.48 4554.6,1665.48 4554.6,2332.6 5256.06,2332.6 5256.06,1665.48 5694.41,1665.48 5694.41,3306.77 5256.06,3306.77 5256.06,2701.91 4554.6,2701.91 4554.6,3306.77 4116.1,3306.77 "/>
  <polygon class="fil1" points="7672.18,1663.13 7672.18,3306.81 7233.71,3306.81 7233.71,2392.6 6264.24,3311.37 6028.6,3311.37 6028.6,1665.47 6467.07,1665.47 6467.07,2581.96 7439.25,1663.13 "/>
  <polygon class="fil1" points="9266.84,3306.79 8475.84,2563.44 8475.84,3306.79 8037.34,3306.79 8037.34,1665.49 8475.84,1665.49 8475.84,2399.55 9124.94,1665.49 9649.72,1665.49 8929.2,2450.35 9801.46,3306.79 "/>
  <path class="fil1" d="M10234.02 2713.54l448.55 0 -102.82 -221.66 -120.12 -246.53 -122.93 246.53 -102.68 221.66zm578.81 325.47l-711.48 0 -130.26 267.79 -481.21 0 819.25 -1643.67 295.69 0 819.3 1643.67 -481.13 0 -130.15 -267.79z"/>
  <path class="fil2" d="M545.31 2058.99c14.41,-8.33 30.87,35.43 49.41,31.95 -6.42,-84.31 -10.5,-166.69 -10.5,-226.36 0,-1.81 0.23,-3.71 0.23,-5.51 -54.16,-13.6 -89.21,-51.98 -105.9,-97.87 -8.84,-9.27 -16.41,-19.45 -22.59,-30.44 -3.56,44.18 -5.85,88.69 -5.85,133.82 0,48.18 2.52,95.78 6.52,143 38.14,7.13 67.58,26.06 88.69,51.41z"/>
  <path class="fil1" d="M3007.21 3114.31c-250.95,178.9 -557.16,285.04 -888.16,285.04 -669.68,0 -1240.1,-431.28 -1449.27,-1030.43 -12.59,2.75 -26.19,4.46 -40.79,4.46 -47.8,0 -85.03,-16.41 -111.67,-41.94 202.54,693.65 843.55,1202.06 1601.73,1202.06 370.32,0 712.16,-122.02 989.22,-326.94 -6.56,-7.43 -13.08,-14.98 -19.6,-22.54 -27.49,-22.84 -54.73,-46.04 -81.46,-69.72z"/>
  <polygon class="fil1" points="4203.13,916.98 2901.57,0 1420.05,1043.76 1626.74,1043.76 2901.57,154.32 4176.3,1043.76 4203.13,1043.76 "/>
  <polygon class="fil1" points="1828.67,1336.21 2901.58,587.72 3986.43,1345.99 4345.76,1345.99 2901.58,336.96 1469.3,1336.21 "/>
  <path class="fil1" d="M1544.32 1730.45c0,0 -444.84,-54.88 -593.31,383.11 0,0 122.23,-167.97 314.67,-188.38 0,0 -275.43,220.32 -278.29,319.77 0,0 503.33,90.36 556.93,-514.51z"/>
  <path class="fil1" d="M1193.83 1107.23c0,0 -479.17,153.08 -394.19,766.78 0,0 35.43,-420.95 249.62,-526.57 0,0 -175,217.6 -154.22,496.04 0,0 473.7,-184.05 298.79,-736.25z"/>
  <path class="fil1" d="M18.71 2633.35c0,0 469.62,357.23 845.88,110.47 0,0 -323.14,49.69 -482.88,-49.93 0,0 357.85,33.19 419.63,-41.33 0,0 -313.77,-316.68 -782.63,-19.21z"/>
  <path class="fil1" d="M1609.75 3083.79c0,0 304.89,162.75 652.28,132.59 347.39,-30.25 545.27,-198.84 545.27,-198.84 0,0 -366.79,-329.18 -1055.79,-89.4 0,0 465.72,-19.49 677.01,62.63 0,0 -626.22,-23.54 -818.77,93.01z"/>
  <path class="fil1" d="M584.46 1861.19l0 -2.09c-31.05,-30.72 -209.57,-187.85 -231.45,-553.64 0,0 68.8,265.87 236.2,439.31 6.85,-88.84 20.88,-175.72 42.27,-259.69 -35.95,-175.83 -139.14,-382.49 -412.92,-489.97 0,0 -140.39,771.63 365.89,915.86l0 -36.99c0,-1.95 -0.23,-3.95 -0.23,-5.9 0,-2.32 0.23,-4.56 0.23,-6.89z"/>
  <path class="fil1" d="M-0 1864.06c0,0 136.96,579.19 689.27,557.46l-19.49 -52.6c-74.33,-35.71 -275.63,-79.47 -426.63,-333.84 0,0 181.19,183.62 400.52,248.71 -18.16,-63.2 -32.47,-127.97 -42.37,-194.27 -87.27,-115.46 -260.08,-234.73 -601.29,-225.46z"/>
  <path class="fil3" d="M584.23 1868.06c0,1.94 0.24,3.94 0.24,5.94l0 -12.85c0,2.33 -0.24,4.57 -0.24,6.9z"/>
  <path class="fil1" d="M584.46 1861.19c0,0 10.27,316.82 59.22,422.62l-111.81 -103.72 -18.98 -312.49 71.57 -6.42z"/>
  <path class="fil1" d="M2119.07 195.59c-749.2,0 -1384.64,496.28 -1595.03,1177.34 55.65,1.9 82.47,80.84 108.19,115.84 183.14,-665.07 789.95,-1159.03 1486.84,-1159.03 27.58,0 55.07,1.11 82.27,2.76l167.31 -117.56c-81.52,-12.36 -164.64,-19.34 -249.58,-19.34z"/>
  <path class="fil0" d="M3412.51 2421.37l-184.09 -256.67 0 256.67 -134.78 0 0 -566.73 134.78 0 0 253.47 164.87 -253.47 165.55 0 -190.99 270.97 213.34 295.76 -168.68 0zm-661.17 -119.61c59.3,0 105.48,-27.86 131.64,-67.67l105.52 91.73c-53.17,66.05 -130.92,107.57 -241.77,107.57 -176.39,0 -291.1,-113.28 -291.1,-296.56 0,-182.62 114.7,-293.37 291.1,-293.37 103.91,0 188.6,42.23 241.77,109.23l-105.52 90.88c-26.15,-39.9 -73.14,-68.53 -131.64,-68.53 -93.97,0 -154.14,60.5 -154.14,161.79 0,102.01 60.16,164.92 154.14,164.92zm-380.93 119.61l-134.76 0 0 -438.37 -210.29 0 0 438.37 -134.72 0 0 -566.73 479.78 0 0 566.73zm1403.85 -766.47l-135.34 0c0.09,0.96 0.15,1.86 0.34,2.82l-1922.78 0 0 38.57 0 1002.81c0,0 395.48,-199.78 873.07,-62.82 415.74,119.26 600.92,340.73 600.92,340.73 0,0 60.16,57.12 82.08,92.02 317.3,-304.06 515.52,-731.35 515.52,-1204.45 0,-71.1 -5.04,-140.9 -13.8,-209.67z"/>
  <path class="fil1" d="M997.09 2651.22c-331.85,-640.63 -162.02,-982.88 -100.35,-1305.26 -207.48,308.92 -229.88,765.84 -66,1212.37 299.55,816.54 933.28,975.19 1588.65,854.63 -639.58,3.48 -1065.68,-73.33 -1422.31,-761.75z"/>
  <rect class="fil4" x="4091.67" y="838.45" width="7312.75" height="507.52"/>
  <path class="fil5" d="M4543.76 1156.16l0 62.45c-20.27,10.69 -42.87,16.03 -67.81,16.03 -40,0 -73.41,-12.74 -100.25,-38.22 -29.32,-28.21 -43.97,-63.14 -43.97,-104.78 0,-44.38 14.65,-80.11 43.97,-107.24 25.75,-24.12 59.3,-36.17 100.67,-36.17 24.1,0 46.56,5.62 67.39,16.85l0 62.45c-17.81,-20.54 -39.86,-30.82 -66.16,-30.82 -26.84,0 -48.69,9.38 -65.54,28.15 -16.84,18.76 -25.26,41.3 -25.26,67.59 0,28.77 9.31,51.58 27.94,68.43 18.62,16.84 40.27,25.26 64.92,25.26 25.75,0 47.11,-9.99 64.1,-29.99zm197.23 -155.74l-61.63 0 0 228.06 -53.42 0 0 -228.06 -61.63 0 0 -46.01 176.69 0 0 46.01zm33.7 -46.01l79.71 0c16.99,0 30.88,1.43 41.71,4.31 10.82,2.87 21.03,8.41 30.61,16.63 18.63,16.43 27.94,38.49 27.94,66.16 0,25.75 -7.54,46.16 -22.61,61.23 -16.16,16.15 -39.31,24.24 -69.44,24.24l-34.52 0 0 101.49 -53.41 0 0 -274.07zm53.41 46.01l0 80.55 21.78 0c15.61,0 27.26,-2.87 34.93,-8.63 9.85,-7.67 14.79,-18.36 14.79,-32.06 0,-13.43 -5.07,-23.83 -15.21,-31.22 -8.21,-5.76 -20.81,-8.64 -37.8,-8.64l-18.5 0zm193.74 -11.9c27.26,-26.85 62.39,-40.28 105.4,-40.28 43,0 78.13,13.43 105.39,40.28 27.26,26.84 40.89,61.21 40.89,103.13 0,41.92 -13.63,76.23 -40.89,102.94 -27.26,26.72 -62.39,40.06 -105.39,40.06 -43.02,0 -78.15,-13.35 -105.4,-40.06 -27.26,-26.7 -40.89,-61.01 -40.89,-102.94 0,-41.91 13.63,-76.29 40.89,-103.13zm39.66 171.13c16.99,17.67 38.89,26.5 65.74,26.5 26.84,0 48.76,-8.83 65.74,-26.5 16.99,-17.66 25.48,-40.33 25.48,-68.01 0,-27.66 -8.56,-50.4 -25.68,-68.21 -17.12,-17.79 -38.97,-26.7 -65.54,-26.7 -26.57,0 -48.42,8.91 -65.54,26.7 -17.12,17.81 -25.68,40.55 -25.68,68.21 0,27.68 8.49,50.35 25.48,68.01zm261.34 -205.24l53.41 0 0 184.08 151.22 -190.25 36.98 0 0 280.24 -53.42 0 0 -184.91 -151.21 190.25 -36.98 0 0 -279.41zm452 46.01l-61.63 0 0 228.06 -53.42 0 0 -228.06 -61.63 0 0 -46.01 176.69 0 0 46.01zm185.73 -46.01l0 46.01 -98.62 0 0 61.23 94.51 0 0 46.02 -94.51 0 0 74.79 98.62 0 0 46.02 -152.03 0 0 -274.07 152.03 0zm78.07 0l186.56 0 0 274.07 -53.41 0 0 -228.06 -79.72 0 0 121.63c0,10.41 -0.13,18.23 -0.4,23.43 -0.28,5.2 -1.24,12.59 -2.88,22.19 -1.64,9.58 -4.65,18.01 -9.03,25.26 -4.38,7.27 -10.14,13.91 -17.27,19.94 -14.24,12.05 -32.46,18.08 -54.65,18.08 -7.67,0 -15.21,-0.82 -22.59,-2.47l0 -46.02c5.47,1.64 10.54,2.47 15.21,2.47 9.85,0 18.08,-3.29 24.66,-9.87 4.38,-4.38 7.59,-10.41 9.65,-18.08 2.05,-7.67 3.22,-14.25 3.49,-19.72 0.27,-5.47 0.4,-14.11 0.4,-25.88l0 -156.97zm249.02 274.07l0 -274.07 53.41 0 0 107.24 42.73 0c28.5,0 50.96,7.54 67.39,22.61 16.99,15.61 25.48,36.02 25.48,61.23 0,18.62 -4.92,35.06 -14.79,49.3 -15.34,22.47 -41.22,33.7 -77.66,33.7l-96.56 0zm53.41 -120.81l0 74.79 31.23 0c32.87,0 49.31,-12.32 49.31,-36.98 0,-10.42 -3.63,-19.32 -10.89,-26.72 -7.27,-7.39 -19.79,-11.09 -37.6,-11.09l-32.06 0zm373.93 48.49l0 62.45c-20.27,10.69 -42.87,16.03 -67.81,16.03 -40,0 -73.41,-12.74 -100.25,-38.22 -29.32,-28.21 -43.97,-63.14 -43.97,-104.78 0,-44.38 14.65,-80.11 43.97,-107.24 25.75,-24.12 59.3,-36.17 100.67,-36.17 24.1,0 46.56,5.62 67.39,16.85l0 62.45c-17.81,-20.54 -39.86,-30.82 -66.16,-30.82 -26.84,0 -48.69,9.38 -65.54,28.15 -16.84,18.76 -25.26,41.3 -25.26,67.59 0,28.77 9.31,51.58 27.94,68.43 18.62,16.84 40.27,25.26 64.92,25.26 25.75,0 47.11,-9.99 64.1,-29.99zm197.23 -155.74l-61.63 0 0 228.06 -53.42 0 0 -228.06 -61.63 0 0 -46.01 176.69 0 0 46.01zm33.7 -46.01l67.79 0c29.86,0 52.18,5.74 66.98,17.25 16.99,13.14 25.48,32.04 25.48,56.7 0,24.39 -10.27,42.33 -30.83,53.83 13.98,2.2 25.9,7.95 35.75,17.27 13.16,12.59 19.74,29.72 19.74,51.36 0,23.01 -7.82,41.51 -23.43,55.47 -16.72,14.79 -39.86,22.19 -69.44,22.19l-92.04 0 0 -274.07zm53.41 43.56l0 70.26 15.21 0c2.74,0 5.27,-0.07 7.6,-0.2 2.33,-0.13 5.76,-0.89 10.27,-2.26 4.52,-1.36 8.36,-3.22 11.51,-5.54 3.14,-2.33 5.96,-5.89 8.41,-10.69 2.47,-4.8 3.71,-10.47 3.71,-17.05 0,-11.78 -3.84,-20.48 -11.51,-26.1 -7.67,-5.61 -17.52,-8.41 -29.58,-8.41l-15.62 0zm0 111.35l0 75.61 23.01 0c15.89,0 28.08,-2.47 36.57,-7.4 11.23,-6.56 16.85,-17.12 16.85,-31.64 0,-14.79 -6.71,-25.19 -20.14,-31.23 -7.67,-3.56 -19.86,-5.34 -36.57,-5.34l-19.72 0zm208.54 -120.8c27.26,-26.85 62.39,-40.28 105.4,-40.28 43,0 78.13,13.43 105.39,40.28 27.26,26.84 40.89,61.21 40.89,103.13 0,41.92 -13.63,76.23 -40.89,102.94 -27.26,26.72 -62.39,40.06 -105.39,40.06 -43.02,0 -78.15,-13.35 -105.4,-40.06 -27.26,-26.7 -40.89,-61.01 -40.89,-102.94 0,-41.91 13.63,-76.29 40.89,-103.13zm39.66 171.13c16.99,17.67 38.89,26.5 65.74,26.5 26.84,0 48.76,-8.83 65.74,-26.5 16.99,-17.66 25.48,-40.33 25.48,-68.01 0,-27.66 -8.56,-50.4 -25.68,-68.21 -17.12,-17.79 -38.97,-26.7 -65.54,-26.7 -26.57,0 -48.42,8.91 -65.54,26.7 -17.12,17.81 -25.68,40.55 -25.68,68.21 0,27.68 8.49,50.35 25.48,68.01zm357.08 -205.24l53.41 0 0 184.08 151.22 -190.25 36.98 0 0 280.24 -53.42 0 0 -184.91 -151.21 190.25 -36.98 0 0 -279.41zm399.82 0l216.95 0 0 274.07 -53.42 0 0 -228.06 -110.12 0 0 228.06 -53.41 0 0 -274.07zm279.42 0l79.71 0c16.99,0 30.88,1.43 41.71,4.31 10.82,2.87 21.03,8.41 30.61,16.63 18.63,16.43 27.94,38.49 27.94,66.16 0,25.75 -7.54,46.16 -22.61,61.23 -16.16,16.15 -39.31,24.24 -69.44,24.24l-34.52 0 0 101.49 -53.41 0 0 -274.07zm53.41 46.01l0 80.55 21.78 0c15.61,0 27.26,-2.87 34.93,-8.63 9.85,-7.67 14.79,-18.36 14.79,-32.06 0,-13.43 -5.07,-23.83 -15.21,-31.22 -8.21,-5.76 -20.81,-8.64 -37.8,-8.64l-18.5 0zm193.74 -11.9c27.26,-26.85 62.39,-40.28 105.4,-40.28 43,0 78.13,13.43 105.39,40.28 27.26,26.84 40.89,61.21 40.89,103.13 0,41.92 -13.63,76.23 -40.89,102.94 -27.26,26.72 -62.39,40.06 -105.39,40.06 -43.02,0 -78.15,-13.35 -105.4,-40.06 -27.26,-26.7 -40.89,-61.01 -40.89,-102.94 0,-41.91 13.63,-76.29 40.89,-103.13zm39.66 171.13c16.99,17.67 38.89,26.5 65.74,26.5 26.84,0 48.76,-8.83 65.74,-26.5 16.99,-17.66 25.48,-40.33 25.48,-68.01 0,-27.66 -8.56,-50.4 -25.68,-68.21 -17.12,-17.79 -38.97,-26.7 -65.54,-26.7 -26.57,0 -48.42,8.91 -65.54,26.7 -17.12,17.81 -25.68,40.55 -25.68,68.21 0,27.68 8.49,50.35 25.48,68.01zm261.34 -205.24l53.41 0 0 184.08 151.22 -190.25 36.98 0 0 280.24 -53.42 0 0 -184.91 -151.21 190.25 -36.98 0 0 -279.41zm337.77 62.45l-27.94 -36.57c23.83,-21.37 51.91,-32.06 84.24,-32.06 27.68,0 49.58,6.51 65.74,19.52 16.16,13.01 24.25,30.34 24.25,51.98 0,26.03 -11.23,45.33 -33.7,57.94 16.45,4.11 29.04,12.6 37.81,25.48 8.76,12.87 13.14,27.94 13.14,45.2 0,25.75 -10.14,46.57 -30.41,62.45 -20.26,15.89 -46.43,23.83 -78.48,23.83 -47.38,0 -81.77,-17.25 -103.14,-51.78l34.93 -33.28c6.03,13.71 15.54,23.9 28.57,30.61 13.01,6.71 26.64,10.07 40.89,10.07 17.25,0 30.33,-3.96 39.24,-11.92 8.9,-7.94 13.35,-17.52 13.35,-28.77 0,-27.93 -19.99,-41.91 -59.99,-41.91l-24.66 0 0 -46.02 24.66 0c13.97,0 25.06,-3.07 33.28,-9.25 8.22,-6.16 12.33,-14.72 12.33,-25.68 0,-10.14 -3.29,-17.94 -9.87,-23.42 -6.58,-5.49 -16.3,-8.22 -29.17,-8.22 -23.56,0 -41.91,7.27 -55.07,21.78zm212.86 -62.45l67.79 0c29.86,0 52.18,5.74 66.98,17.25 16.99,13.14 25.48,32.04 25.48,56.7 0,24.39 -10.27,42.33 -30.83,53.83 13.98,2.2 25.9,7.95 35.75,17.27 13.16,12.59 19.74,29.72 19.74,51.36 0,23.01 -7.82,41.51 -23.43,55.47 -16.72,14.79 -39.86,22.19 -69.44,22.19l-92.04 0 0 -274.07zm53.41 43.56l0 70.26 15.21 0c2.74,0 5.27,-0.07 7.6,-0.2 2.33,-0.13 5.76,-0.89 10.27,-2.26 4.52,-1.36 8.36,-3.22 11.51,-5.54 3.14,-2.33 5.96,-5.89 8.41,-10.69 2.47,-4.8 3.71,-10.47 3.71,-17.05 0,-11.78 -3.84,-20.48 -11.51,-26.1 -7.67,-5.61 -17.52,-8.41 -29.58,-8.41l-15.62 0zm0 111.35l0 75.61 23.01 0c15.89,0 28.08,-2.47 36.57,-7.4 11.23,-6.56 16.85,-17.12 16.85,-31.64 0,-14.79 -6.71,-25.19 -20.14,-31.23 -7.67,-3.56 -19.86,-5.34 -36.57,-5.34l-19.72 0zm208.54 -120.8c27.26,-26.85 62.39,-40.28 105.4,-40.28 43,0 78.13,13.43 105.39,40.28 27.26,26.84 40.89,61.21 40.89,103.13 0,41.92 -13.63,76.23 -40.89,102.94 -27.26,26.72 -62.39,40.06 -105.39,40.06 -43.02,0 -78.15,-13.35 -105.4,-40.06 -27.26,-26.7 -40.89,-61.01 -40.89,-102.94 0,-41.91 13.63,-76.29 40.89,-103.13zm39.66 171.13c16.99,17.67 38.89,26.5 65.74,26.5 26.84,0 48.76,-8.83 65.74,-26.5 16.99,-17.66 25.48,-40.33 25.48,-68.01 0,-27.66 -8.56,-50.4 -25.68,-68.21 -17.12,-17.79 -38.97,-26.7 -65.54,-26.7 -26.57,0 -48.42,8.91 -65.54,26.7 -17.12,17.81 -25.68,40.55 -25.68,68.21 0,27.68 8.49,50.35 25.48,68.01zm287.63 -205.24l184.91 0 0 228.05 28.77 0 0 107.65 -49.31 0 0 -61.63 -168.46 0 0 61.63 -49.31 0 0 -107.65c9.31,0.27 17.81,-3.09 25.48,-10.07 7.67,-6.98 13.7,-15.96 18.08,-26.91 6.58,-16.72 9.85,-40.68 9.85,-71.92l0 -119.15zm51.78 46.01l0 73.14c0,34.24 -3.14,59.72 -9.45,76.43 -4.93,12.6 -12.05,23.42 -21.37,32.46l110.54 0 0 -182.04 -79.72 0zm396.12 155.74l0 62.45c-20.27,10.69 -42.87,16.03 -67.81,16.03 -40,0 -73.41,-12.74 -100.25,-38.22 -29.32,-28.21 -43.97,-63.14 -43.97,-104.78 0,-44.38 14.65,-80.11 43.97,-107.24 25.75,-24.12 59.3,-36.17 100.67,-36.17 24.1,0 46.56,5.62 67.39,16.85l0 62.45c-17.81,-20.54 -39.86,-30.82 -66.16,-30.82 -26.84,0 -48.69,9.38 -65.54,28.15 -16.84,18.76 -25.26,41.3 -25.26,67.59 0,28.77 9.31,51.58 27.94,68.43 18.62,16.84 40.27,25.26 64.92,25.26 25.75,0 47.11,-9.99 64.1,-29.99zm197.23 -155.74l-61.63 0 0 228.06 -53.42 0 0 -228.06 -61.63 0 0 -46.01 176.69 0 0 46.01zm33.7 -46.01l67.79 0c29.86,0 52.18,5.74 66.98,17.25 16.99,13.14 25.48,32.04 25.48,56.7 0,24.39 -10.27,42.33 -30.83,53.83 13.98,2.2 25.9,7.95 35.75,17.27 13.16,12.59 19.74,29.72 19.74,51.36 0,23.01 -7.82,41.51 -23.43,55.47 -16.72,14.79 -39.86,22.19 -69.44,22.19l-92.04 0 0 -274.07zm53.41 43.56l0 70.26 15.21 0c2.74,0 5.27,-0.07 7.6,-0.2 2.33,-0.13 5.76,-0.89 10.27,-2.26 4.52,-1.36 8.36,-3.22 11.51,-5.54 3.14,-2.33 5.96,-5.89 8.41,-10.69 2.47,-4.8 3.71,-10.47 3.71,-17.05 0,-11.78 -3.84,-20.48 -11.51,-26.1 -7.67,-5.61 -17.52,-8.41 -29.58,-8.41l-15.62 0zm0 111.35l0 75.61 23.01 0c15.89,0 28.08,-2.47 36.57,-7.4 11.23,-6.56 16.85,-17.12 16.85,-31.64 0,-14.79 -6.71,-25.19 -20.14,-31.23 -7.67,-3.56 -19.86,-5.34 -36.57,-5.34l-19.72 0zm208.54 -120.8c27.26,-26.85 62.39,-40.28 105.4,-40.28 43,0 78.13,13.43 105.39,40.28 27.26,26.84 40.89,61.21 40.89,103.13 0,41.92 -13.63,76.23 -40.89,102.94 -27.26,26.72 -62.39,40.06 -105.39,40.06 -43.02,0 -78.15,-13.35 -105.4,-40.06 -27.26,-26.7 -40.89,-61.01 -40.89,-102.94 0,-41.91 13.63,-76.29 40.89,-103.13zm39.66 171.13c16.99,17.67 38.89,26.5 65.74,26.5 26.84,0 48.76,-8.83 65.74,-26.5 16.99,-17.66 25.48,-40.33 25.48,-68.01 0,-27.66 -8.56,-50.4 -25.68,-68.21 -17.12,-17.79 -38.97,-26.7 -65.54,-26.7 -26.57,0 -48.42,8.91 -65.54,26.7 -17.12,17.81 -25.68,40.55 -25.68,68.21 0,27.68 8.49,50.35 25.48,68.01z"/>
 </g>
</svg>
