<?xml version="1.0" encoding="utf-8"?>
<!-- Generator: Adobe Illustrator 22.1.0, SVG Export Plug-In . SVG Version: 6.00 Build 0)  -->
<svg version="1.1" id="Capa_1" xmlns="http://www.w3.org/2000/svg" xmlns:xlink="http://www.w3.org/1999/xlink" x="0px" y="0px"
	 viewBox="0 0 545.4 421.5" style="enable-background:new 0 0 545.4 421.5;" xml:space="preserve">
<style type="text/css">
	.st0{fill:#D32913;}
</style>
<g>
	<path class="st0" d="M189.4,97.3h23.9v86l-23.9,0.3V97.3z"/>
	<path class="st0" d="M338.2,112.8c2.2,2.5,3.3,5.8,2.8,9.1l-6.2,51.1c-0.6,4.8-4.7,8.4-9.5,8.4h-52.6c-4.6,0-9.1-1.2-13.1-3.6
		c-6.7-4-14.4-6.1-22.2-6.1h-6.4v-63.3l2.6-0.1c10.9-0.6,20.9-6.4,26.7-15.5l31-48.2l0.2,0.1c4.8,1.2,8.1,5.5,8,10.4
		c-0.1,10.2-2.5,20.4-7,29.6c-1.8,3.7-2.2,8-1.1,11.9c2,7.3,8.7,12.4,16.3,12.4h21.5C332.9,108.9,336,110.3,338.2,112.8L338.2,112.8
		z"/>
	<path class="st0" d="M405.4,0H191.9c-45,0-81.6,36.6-81.6,81.6v189.3c0,3.2,1.8,6.2,4.6,7.8c1.4,0.8,2.8,1.1,4.3,1.1
		c1.6,0,3.3-0.5,4.7-1.3l39.4-24.4c4.3-2.7,9.3-4.1,14.4-4.1h155.1c45,0,81.6-36.6,81.6-81.6V8.9C414.3,4,410.3,0,405.4,0z
		 M358.8,124.1l-6.2,51.1c-1.7,13.7-13.3,24.1-27.2,24.1h-52.6c-7.8,0-15.5-2.1-22.2-6.1c-4-2.4-8.5-3.6-13.1-3.6h-6.4v2.6
		c0,4.9-3.9,8.8-8.8,8.9l-41.7,0.5h-0.1c-2.3,0-4.6-0.9-6.3-2.6c-1.7-1.7-2.6-4-2.6-6.3V88.4c0-4.9,4-8.9,8.9-8.9h41.7
		c4.9,0,8.9,4,8.9,8.9v2.2l1.7-0.1c5.2-0.3,9.9-3,12.7-7.4l31.1-48.4c4.1-6.3,11.7-9.3,19-7.5l0.4,0.1c12.8,3.2,21.6,14.6,21.5,27.8
		c-0.1,12.3-2.9,24.7-8.2,35.9h20.1c8.4,0,16.5,3.6,22.1,9.9C357.1,107.3,359.8,115.7,358.8,124.1z"/>
</g>
<g>
	<path class="st0" d="M42.7,414.6v-84.3l-22,15.2L0,313.3l46.4-29.6h40.7v130.9H42.7z"/>
	<path class="st0" d="M208.2,413.8c-7.1,3-15.3,4.5-24.6,4.5s-17.4-1.5-24.5-4.5c-7.1-3-12.8-6.9-17-11.6
		c-4.3-4.7-7.7-10.2-10.4-16.6c-2.7-6.4-4.5-12.6-5.5-18.6c-1-6-1.5-12.2-1.5-18.6c0-6.4,0.5-12.5,1.5-18.4c1-5.9,2.8-11.9,5.5-18.2
		c2.6-6.3,6.1-11.7,10.4-16.3c4.3-4.6,9.9-8.3,17-11.2c7.1-2.9,15.3-4.3,24.5-4.3s17.4,1.5,24.6,4.3c7.1,2.9,12.8,6.6,17,11.2
		c4.2,4.6,7.6,10,10.4,16.3c2.7,6.3,4.5,12.4,5.5,18.2c0.9,5.9,1.4,12,1.4,18.4c0,6.4-0.5,12.6-1.4,18.6c-0.9,6-2.7,12.2-5.5,18.6
		c-2.7,6.4-6.2,12-10.4,16.6C221,406.9,215.3,410.8,208.2,413.8z M183.6,317.9c-8.9,0-13.3,10.2-13.3,30.5
		c0,21.1,4.4,31.6,13.3,31.6c8.9,0,13.3-10.5,13.3-31.6C196.9,328.1,192.5,317.9,183.6,317.9z"/>
	<path class="st0" d="M337.6,413.8c-7.1,3-15.3,4.5-24.6,4.5c-9.2,0-17.4-1.5-24.5-4.5c-7.1-3-12.8-6.9-17-11.6
		c-4.3-4.7-7.7-10.2-10.4-16.6c-2.7-6.4-4.5-12.6-5.5-18.6c-1-6-1.5-12.2-1.5-18.6c0-6.4,0.5-12.5,1.5-18.4c1-5.9,2.8-11.9,5.5-18.2
		c2.6-6.3,6.1-11.7,10.4-16.3c4.3-4.6,9.9-8.3,17-11.2c7.1-2.9,15.3-4.3,24.5-4.3c9.2,0,17.4,1.5,24.6,4.3c7.1,2.9,12.8,6.6,17,11.2
		c4.2,4.6,7.6,10,10.4,16.3c2.7,6.3,4.5,12.4,5.5,18.2c0.9,5.9,1.4,12,1.4,18.4c0,6.4-0.5,12.6-1.4,18.6c-0.9,6-2.7,12.2-5.5,18.6
		c-2.7,6.4-6.2,12-10.4,16.6C350.4,406.9,344.7,410.8,337.6,413.8z M313,317.9c-8.9,0-13.3,10.2-13.3,30.5
		c0,21.1,4.4,31.6,13.3,31.6c8.9,0,13.3-10.5,13.3-31.6C326.3,328.1,321.9,317.9,313,317.9z"/>
	<path class="st0" d="M444.7,342.6c-7.1,7-15.6,10.4-25.6,10.4s-18.6-3.5-25.7-10.4c-7.1-7-10.7-15.4-10.7-25.2
		c0-10,3.6-18.5,10.7-25.4c7.1-7,15.7-10.4,25.7-10.4s18.5,3.5,25.6,10.4c7.1,7,10.6,15.4,10.6,25.4
		C455.3,327.2,451.8,335.6,444.7,342.6z M426.8,309.6c-2.2-2.2-4.7-3.3-7.7-3.3c-3,0-5.5,1.1-7.8,3.2c-2.2,2.2-3.3,4.8-3.3,7.9
		c0,3,1.1,5.5,3.3,7.6c2.2,2.1,4.8,3.1,7.8,3.1c3,0,5.5-1,7.7-3.1c2.2-2.1,3.2-4.6,3.2-7.6C430,314.4,428.9,311.8,426.8,309.6z
		 M434.3,421.5l-18.1-9.8L493.8,278l17.9,10.2L434.3,421.5z M534.7,406.4c-7.1,7-15.6,10.4-25.6,10.4c-10,0-18.6-3.5-25.7-10.4
		c-7.1-7-10.7-15.4-10.7-25.2c0-10,3.6-18.5,10.7-25.4c7.1-7,15.7-10.4,25.7-10.4c10,0,18.5,3.5,25.6,10.4
		c7.1,7,10.6,15.4,10.6,25.4C545.4,391,541.8,399.4,534.7,406.4z M509.1,370.1c-3,0-5.5,1.1-7.8,3.2c-2.2,2.2-3.3,4.8-3.3,7.9
		c0,3,1.1,5.5,3.3,7.6c2.2,2.1,4.8,3.1,7.8,3.1c3,0,5.5-1,7.7-3.1c2.2-2.1,3.2-4.6,3.2-7.6c0-3.1-1.1-5.7-3.3-7.9
		C514.5,371.1,512,370.1,509.1,370.1z"/>
</g>
</svg>
