<?xml version="1.0" encoding="utf-8"?>
<!-- Generator: Adobe Illustrator 22.0.1, SVG Export Plug-In . SVG Version: 6.00 Build 0)  -->
<svg version="1.1" id="Capa_1" xmlns="http://www.w3.org/2000/svg" xmlns:xlink="http://www.w3.org/1999/xlink" x="0px" y="0px"
	 viewBox="0 0 244.4 296.3" style="enable-background:new 0 0 244.4 296.3;" xml:space="preserve">
<style type="text/css">
	.st0{fill:url(#SVGID_1_);}
</style>
<linearGradient id="SVGID_1_" gradientUnits="userSpaceOnUse" x1="122.213" y1="0" x2="122.213" y2="296.332">
	<stop  offset="0" style="stop-color:#26633D"/>
	<stop  offset="1" style="stop-color:#1D3A28"/>
</linearGradient>
<path class="st0" d="M0,296.3h244.4c0-61-23.2-94.5-57.9-110.2l-48.6,37.9l-16.3-24.8l-15.3,24.9l-49.1-37.6
	C22.8,202.3,0,235.3,0,296.3z M172.6,223.3l15.5,15.1l15.5-15.1c0,0,8.3,15.8-15.5,33.8C164.2,239.1,172.6,223.3,172.6,223.3z
	 M121.5,199.4l40.9-20.8c0,0,0,0-0.1,0c23.7-13.8,39.6-39.5,39.6-68.9c0-8.1-1.2-15.9-3.5-23.3c-15.9,7.9-43.9,19-76.3,19
	s-60.4-11.1-76.3-19c-2.2,7.4-3.5,15.2-3.5,23.3c0,29.4,15.9,55,39.5,68.8L121.5,199.4z M121.9,89.4c34.6,0,65-14.5,76-21V53.6
	c15-5.7,23.2-13,23.2-20.9c0-18-44.2-32.7-98.9-32.7S23,14.6,23,32.7c0,8,8.9,15.3,22.9,20.9v14.8C57.9,74.9,87.4,89.4,121.9,89.4z
	 M139.2,45.3c0,2.5-0.6,4.9-1.5,7h0.5c4.4,0,8,3.6,8,8s-3.6,8-8,8h-33c-4.4,0-8-3.6-8-8s3.6-8,8-8h1.5c-1-2.1-1.5-4.5-1.5-7
	c0-9.4,7.6-17,17-17S139.2,35.9,139.2,45.3z"/>
</svg>
