<?xml version="1.0" encoding="utf-8"?>
<!-- Generator: Adobe Illustrator 22.0.1, SVG Export Plug-In . SVG Version: 6.00 Build 0)  -->
<svg version="1.1" id="Layer_1" xmlns="http://www.w3.org/2000/svg" xmlns:xlink="http://www.w3.org/1999/xlink" x="0px" y="0px"
	 viewBox="0 0 503.6 503.6" style="enable-background:new 0 0 503.6 503.6;" xml:space="preserve">
<style type="text/css">
	.st0{fill:url(#SVGID_1_);}
</style>
<linearGradient id="SVGID_1_" gradientUnits="userSpaceOnUse" x1="251.803" y1="-6.728313e-06" x2="251.803" y2="503.607">
	<stop  offset="0" style="stop-color:#26633D"/>
	<stop  offset="1" style="stop-color:#1D3A28"/>
</linearGradient>
<path class="st0" d="M478.7,418c-50.4-26.5-88.9-41.2-123.1-47l3.7-5.1c1.5-2,2-4.6,1.4-7l-7.8-31.2c20.9-29.4,33.2-66.2,33.2-101.1
	V193h8.4h16.8c4.6,0,8.4-3.8,8.4-8.4c0-4.6-3.8-8.4-8.4-8.4h-8.4v-8.4c0-23.4-5.5-45.4-15.4-65l-75.4,14.5c-0.5,0.1-1.1,0.2-1.6,0.2
	c-2.2,0-4.3-0.9-5.9-2.5c-2-2-2.8-4.8-2.3-7.5l13.8-72.3c-7.1-3.2-14.5-6-22.3-8.2v-1.8c0-14-11.4-25.3-25.3-25.3h-33.3
	c-14,0-25.3,11.4-25.3,25.3v1.8c-7.8,2.2-15.2,5-22.3,8.2l13.8,72.3c0.5,2.7-0.4,5.5-2.3,7.5c-1.6,1.6-3.7,2.5-5.9,2.5
	c-0.5,0-1.1-0.1-1.6-0.2l-75.4-14.5c-9.9,19.6-15.4,41.6-15.4,65v8.4h-8.4c-4.6,0-8.4,3.8-8.4,8.4c0,4.6,3.8,8.4,8.4,8.4h16.8h8.4
	v33.6c0,34.9,12.3,71.7,33.2,101.1l-7.8,31.2c-0.6,2.4-0.1,5,1.4,7l3.7,5.1c-34.2,5.8-72.7,20.5-123.1,47C9.6,426.1,0,441.9,0,459.3
	v35.9c0,4.6,3.8,8.4,8.4,8.4h201.4h0h3.1c0,0,0,0,0,0l77.3-0.1c0.1,0,0.2,0.1,0.4,0.1h204.6c4.6,0,8.4-3.8,8.4-8.4v-35.9
	C503.6,441.9,494.1,426.1,478.7,418z M134.3,226.6V193h235v33.6c0,37.8-13.4,71.1-33.1,96c-0.3,0.3-0.7,0.5-0.9,0.8
	c-2.9,3.7-5.9,7.2-8.9,10.5c0,0,0,0,0,0c-2,2.2-4.2,4.1-6.3,6.1c-20.5,18.5-44.9,29.3-68.2,29.3c-23.3,0-47.6-10.8-68.2-29.3
	c-2.1-2-4.2-3.9-6.3-6.1c0,0,0,0-0.1,0c-3.1-3.3-6.1-6.8-9-10.5c-0.3-0.3-0.6-0.5-0.9-0.8C147.7,297.7,134.3,264.4,134.3,226.6z
	 M160.2,359.1l3.8-15.1c0,0,0,0,0.1,0.1c20.3,22.1,46.1,37.6,75.2,41.1c0,0,0,0,0.1,0l-22.8,51.2L160.2,359.1z M220.1,486.8l5-25.2
	h53.4l2.1,10.6l2.9,14.5L220.1,486.8z M287.1,436.5l-22.8-51.2c0,0,0,0,0,0c29.1-3.5,54.9-19.1,75.2-41.1c0,0,0,0,0.1-0.1l3.8,15.1
	L287.1,436.5z M331.6,43.4l-10.5,55.1l57.4-11C366.6,69.8,350.7,54.7,331.6,43.4z M172,43.4c-19.1,11.3-35,26.3-46.9,44.1l57.4,11
	L172,43.4z"/>
</svg>
