<?xml version="1.0" encoding="utf-8"?>
<!-- Generator: Adobe Illustrator 22.0.1, SVG Export Plug-In . SVG Version: 6.00 Build 0)  -->
<svg version="1.1" id="Capa_1" xmlns="http://www.w3.org/2000/svg" xmlns:xlink="http://www.w3.org/1999/xlink" x="0px" y="0px"
	 viewBox="0 0 338.1 380.7" style="enable-background:new 0 0 338.1 380.7;" xml:space="preserve">
<style type="text/css">
	.st0{fill:#EAE6CE;}
</style>
<g>
	<g>
		<path class="st0" d="M336.6,340.7c-2.8-9.4-47.6-177.2-53.7-200.1c-6.1-22.8-22-28.9-39.9-28.9c-6.2,0-30,0-58.3,0V90.6
			C293.2,80.5,322.2,0,322.2,0H8.7C8.7,0,33,85,149,91v20.6c-26.4,0-48.1,0-54,0c-17.9,0-33.8,6.1-39.9,28.9
			C49,163.4,4.2,331.3,1.4,340.7c-3.4,11.8-2.4,27.2,21.6,27.2c2.6,0,8.6,0,17.1,0v12.9H295v-12.9c9.9,0,17.1,0,20,0
			C339,367.8,340.1,352.5,336.6,340.7z M169,133.4c58.7,0,106.3,47.6,106.3,106.3S227.8,346.1,169,346.1
			c-58.7,0-106.3-47.6-106.3-106.3S110.3,133.4,169,133.4z"/>
		<path class="st0" d="M108,193l-10.9-7.8l-3.2,4.5l10.8,7.6C105.6,195.8,106.9,194.4,108,193z"/>
		<path class="st0" d="M138,169.1l-5.9-12l-5,2.5l6.1,12.2C134.8,170.9,136.3,169.9,138,169.1z"/>
		<path class="st0" d="M91.8,239.7c0-0.6,0.2-1.2,0.2-1.8H78.5v5.5h13.7C92.2,242.2,91.8,241,91.8,239.7z"/>
		<path class="st0" d="M252.5,199.1l-2.7-4.8l-13.9,7.6c0.9,1.6,1.8,3.2,2.6,4.8L252.5,199.1z"/>
		<path class="st0" d="M220.2,163.3l-4.8-2.9l-7.7,12.8c1.6,0.9,3.3,1.7,4.9,2.7L220.2,163.3z"/>
		<path class="st0" d="M173.2,163v-14.2h-5.5v14c0.5,0,0.9-0.1,1.4-0.1C170.5,162.5,171.8,162.9,173.2,163z"/>
		<path class="st0" d="M213.8,321.8l-7.4-14.9c-1.6,0.9-3.2,1.9-4.9,2.7l7.3,14.7L213.8,321.8z"/>
		<path class="st0" d="M247,291.7l-13.5-9.6c-1,1.6-2.3,2.9-3.4,4.4l13.7,9.7L247,291.7z"/>
		<path class="st0" d="M246.2,239.7c0,1.3-0.3,2.5-0.4,3.7h16.5v-5.5h-16.3C246.1,238.6,246.2,239.1,246.2,239.7z"/>
		<path class="st0" d="M167.6,316.8v15.8h5.5v-16.1c-1.4,0.1-2.7,0.4-4.2,0.4C168.6,316.9,168.1,316.8,167.6,316.8z"/>
		<path class="st0" d="M101,275.4l-12.6,6.9l2.7,4.9l12.6-6.8C102.6,278.7,101.8,277,101,275.4z"/>
		<path class="st0" d="M133.3,307.8c-1.7-0.9-3.3-1.7-4.9-2.7l-7.8,12.9l4.8,2.9L133.3,307.8z"/>
		<path class="st0" d="M136.5,293.8l4.3,2.4l26.7-44.7c1.1,0.2,2.1,0.7,3.3,0.7c9.4,0,17-7.6,17-17c0-9.4-7.6-17-17-17
			c-9.4,0-17,7.6-17,17c0,5.4,2.6,9.9,6.5,13.1L136.5,293.8z M170.8,230.3c2.7,0,4.9,2.2,4.9,4.9c0,2.7-2.2,4.9-4.9,4.9
			c-2.7,0-4.8-2.2-4.8-4.9C165.9,232.5,168.1,230.3,170.8,230.3z"/>
	</g>
</g>
</svg>
