<?xml version="1.0" encoding="utf-8"?>
<!-- Generator: Adobe Illustrator 22.0.1, SVG Export Plug-In . SVG Version: 6.00 Build 0)  -->
<svg version="1.1" id="Capa_1" xmlns="http://www.w3.org/2000/svg" xmlns:xlink="http://www.w3.org/1999/xlink" x="0px" y="0px"
	 viewBox="0 0 520.3 612" style="enable-background:new 0 0 520.3 612;" xml:space="preserve">
<style type="text/css">
	.st0{fill:url(#SVGID_1_);}
</style>
<linearGradient id="SVGID_1_" gradientUnits="userSpaceOnUse" x1="260.144" y1="-9.094947e-13" x2="260.144" y2="611.9988">
	<stop  offset="0" style="stop-color:#26633D"/>
	<stop  offset="1" style="stop-color:#1D3A28"/>
</linearGradient>
<path class="st0" d="M495.5,500.2v-94.4c0-20.3-16.4-36.7-36.7-36.7h-9.6V24.6c0-3.1-1.5-6-4.1-7.7L421.7,1.5
	c-6.1-4-14.2,0.3-14.2,7.7v110.7l-6.9-18.7c-9.3-25.2-33.4-41.9-60.2-41.9H179.8c-27,0-51.2,16.9-60.4,42.3l-6.7,18.3V9.2
	c0-7.3-8.1-11.7-14.2-7.7L75.3,16.9c-2.6,1.7-4.1,4.6-4.1,7.7v344.5h-9.6c-20.3,0-36.7,16.4-36.7,36.7v94.4H9.2
	c-5.1,0-9.2,4.1-9.2,9.2v50.7c0,5.1,4.1,9.2,9.2,9.2h39.6v24.3c0,10.1,8.2,18.4,18.4,18.4h48.6c10.1,0,18.4-8.2,18.4-18.4v-24.3h252
	v24.3c0,10.1,8.2,18.4,18.4,18.4h48.6c10.1,0,18.4-8.2,18.4-18.4v-24.3h39.6c5.1,0,9.2-4.1,9.2-9.2v-50.7c0-5.1-4.1-9.2-9.2-9.2
	L495.5,500.2L495.5,500.2z M125,171h270.4v90.4H125V171z M118.7,474.5H87.3c-9.6,0-17.3-7.8-17.3-17.3v-0.4
	c0-9.6,7.8-17.3,17.3-17.3h31.4c9.6,0,17.3,7.8,17.3,17.3v0.4C136,466.8,128.3,474.5,118.7,474.5z M322.5,479.6H197.7
	c-10.1,0-18.4-8.2-18.4-18.4V345c0-10.1,8.2-18.4,18.4-18.4h124.8c10.1,0,18.4,8.2,18.4,18.4v116.3
	C340.9,471.4,332.7,479.6,322.5,479.6z M433,474.5h-31.4c-9.6,0-17.3-7.8-17.3-17.3v-0.4c0-9.6,7.8-17.3,17.3-17.3H433
	c9.6,0,17.3,7.8,17.3,17.3v0.4C450.3,466.8,442.6,474.5,433,474.5z M319.8,393.8H200.2c-5,0-9.1-4.1-9.1-9.1v-0.2
	c0-5,4.1-9.1,9.1-9.1h119.5c5,0,9.1,4.1,9.1,9.1v0.2C328.8,389.7,324.8,393.8,319.8,393.8z M319.8,357.1H200.2c-5,0-9.1-4.1-9.1-9.1
	v-0.2c0-5,4.1-9.1,9.1-9.1h119.5c5,0,9.1,4.1,9.1,9.1v0.2C328.8,353,324.8,357.1,319.8,357.1z M319.8,467.2H200.2
	c-5,0-9.1-4.1-9.1-9.1V458c0-5,4.1-9.1,9.1-9.1h119.5c5,0,9.1,4.1,9.1,9.1v0.2C328.8,463.2,324.8,467.2,319.8,467.2z M319.8,430.5
	H200.2c-5,0-9.1-4.1-9.1-9.1v-0.2c0-5,4.1-9.1,9.1-9.1h119.5c5,0,9.1,4.1,9.1,9.1v0.2C328.8,426.4,324.8,430.5,319.8,430.5z"/>
</svg>
