<?xml version="1.0" encoding="utf-8"?>
<!-- Generator: Adobe Illustrator 22.0.1, SVG Export Plug-In . SVG Version: 6.00 Build 0)  -->
<svg version="1.1" id="Layer_1" xmlns="http://www.w3.org/2000/svg" xmlns:xlink="http://www.w3.org/1999/xlink" x="0px" y="0px"
	 viewBox="0 0 512 512" style="enable-background:new 0 0 512 512;" xml:space="preserve">
<style type="text/css">
	.st0{fill:url(#SVGID_1_);}
</style>
<linearGradient id="SVGID_1_" gradientUnits="userSpaceOnUse" x1="255.999" y1="13.7147" x2="255.999" y2="498.2853">
	<stop  offset="0" style="stop-color:#26633D"/>
	<stop  offset="1" style="stop-color:#1D3A28"/>
</linearGradient>
<path class="st0" d="M147.6,208.4h54.2v-65C171.6,150.2,148.8,176.6,147.6,208.4z M310.2,361.3L256,318.6l-54.2,42.7V238.4h-54.2
	v21.4l29.5,25.7v103.1h-89V285.6l29.5-25.7v-21.4H30.9v259.9h450.3V238.4h-171L310.2,361.3z M196.9,113.8h-18.2
	c-19.3,0-35-15.7-35-35s15.7-35,35-35c34.3,0,62.2,27.9,62.2,62.2v7.9h-9.2v185.7l24.2-19l24.2,19V113.8H271V106
	c0-34.3,27.9-62.2,62.2-62.2c19.3,0,35,15.7,35,35s-15.7,35-35,35h-23v94.6H512v-94.6H388c6.5-10.1,10.3-22.1,10.3-35
	c0-35.9-29.2-65.1-65.1-65.1c-32.3,0-60.8,16.7-77.2,41.9c-16.5-25.2-44.9-41.9-77.2-41.9c-35.9,0-65.1,29.2-65.1,65.1
	c0,12.9,3.8,24.9,10.3,35H0v94.6h117.6C118.8,161.7,152.5,122.9,196.9,113.8L196.9,113.8z M118.1,299.2v59.4h29v-59.4l-14.5-12.6
	L118.1,299.2z"/>
</svg>
