<?xml version="1.0" encoding="utf-8"?>
<!-- Generator: Adobe Illustrator 22.0.1, SVG Export Plug-In . SVG Version: 6.00 Build 0)  -->
<svg version="1.1" id="Capa_1" xmlns="http://www.w3.org/2000/svg" xmlns:xlink="http://www.w3.org/1999/xlink" x="0px" y="0px"
	 viewBox="0 0 243.9 490" style="enable-background:new 0 0 243.9 490;" xml:space="preserve">
<style type="text/css">
	.st0{fill:#EAE6CE;}
</style>
<path class="st0" d="M139,490c-14.2,0-27.9-2.8-40.8-8.2c-12.5-5.3-23.7-12.8-33.3-22.5c-9.6-9.6-17.2-20.8-22.5-33.3
	c-5.5-12.9-8.2-26.7-8.2-40.8c0-16.8,4.1-33.4,11.7-48.2c6.6-12.7,15.9-24.1,27.1-33.2V50c0-27.6,22.4-50,50-50h32.2
	c27.6,0,50,22.4,50,50v253.8c11.2,9.1,20.4,20.5,27.1,33.2c7.7,14.8,11.7,31.5,11.7,48.2c0,14.1-2.8,27.9-8.2,40.8
	c-5.3,12.5-12.8,23.7-22.5,33.3c-9.6,9.6-20.8,17.2-33.3,22.5C166.9,487.2,153.2,490,139,490z M122.9,20.6
	c-16.2,0-29.4,13.2-29.4,29.4v258.8c0,3.3-1.6,6.4-4.2,8.3c-21.6,15.8-34.6,41.3-34.6,68.1c0,46.5,37.8,84.3,84.3,84.3
	s84.3-37.8,84.3-84.3c0-26.8-12.9-52.2-34.6-68.1c-2.6-1.9-4.2-5-4.2-8.3V50c0-16.2-13.2-29.4-29.4-29.4H122.9z M160.9,325V100.4
	c0-8.9-7.2-16.1-16.1-16.1h-11.4c-8.9,0-16.1,7.2-16.1,16.1V325c-24.6,8.9-42.1,32.5-42.1,60.1c0,35.3,28.6,64,64,64s64-28.6,64-64
	C203,357.5,185.5,334,160.9,325z M124.9,365.2c-4.8,4.2-7.9,9.8-8.9,16.1c-0.6,3.3-0.5,6.7,0.1,10c0.8,4.2-1.9,8.3-6.1,9.1
	c-0.5,0.1-1,0.1-1.5,0.1c-3.6,0-6.9-2.6-7.6-6.3c-1-5.1-1.1-10.3-0.2-15.5c1.6-9.7,6.6-18.6,13.9-25.2c3.2-2.8,8.1-2.5,10.9,0.7
	C128.4,357.5,128.1,362.4,124.9,365.2z M34.2,75.3c0,4.7-3.8,8.4-8.4,8.4H8.4C3.8,83.7,0,80,0,75.3v-9.2c0-4.7,3.8-8.4,8.4-8.4h17.3
	c4.7,0,8.4,3.8,8.4,8.4v9.2H34.2z M34.2,130.3c0,4.7-3.8,8.4-8.4,8.4H8.4c-4.7,0-8.4-3.8-8.4-8.4v-9.2c0-4.7,3.8-8.4,8.4-8.4h17.3
	c4.7,0,8.4,3.8,8.4,8.4v9.2H34.2z M34.2,185.3c0,4.7-3.8,8.4-8.4,8.4H8.4c-4.7,0-8.4-3.8-8.4-8.4v-9.2c0-4.7,3.8-8.4,8.4-8.4h17.3
	c4.7,0,8.4,3.8,8.4,8.4v9.2H34.2z M34.2,240.3c0,4.7-3.8,8.4-8.4,8.4H8.4c-4.7,0-8.4-3.8-8.4-8.4v-9.2c0-4.7,3.8-8.4,8.4-8.4h17.3
	c4.7,0,8.4,3.8,8.4,8.4v9.2H34.2z M34.2,295.3c0,4.7-3.8,8.4-8.4,8.4H8.4c-4.7,0-8.4-3.8-8.4-8.4v-9.2c0-4.7,3.8-8.4,8.4-8.4h17.3
	c4.7,0,8.4,3.8,8.4,8.4v9.2H34.2z"/>
</svg>
