<?xml version="1.0" encoding="utf-8"?>
<!-- Generator: Adobe Illustrator 22.0.1, SVG Export Plug-In . SVG Version: 6.00 Build 0)  -->
<svg version="1.1" id="Layer_1" xmlns="http://www.w3.org/2000/svg" xmlns:xlink="http://www.w3.org/1999/xlink" x="0px" y="0px"
	 viewBox="0 0 503.2 330.1" style="enable-background:new 0 0 503.2 330.1;" xml:space="preserve">
<style type="text/css">
	.st0{fill:url(#SVGID_1_);}
</style>
<linearGradient id="SVGID_1_" gradientUnits="userSpaceOnUse" x1="251.5886" y1="0" x2="251.5886" y2="330.0978">
	<stop  offset="0" style="stop-color:#26633D"/>
	<stop  offset="1" style="stop-color:#1D3A28"/>
</linearGradient>
<path class="st0" d="M164.5,330.1c52.2,0,103.4-25.2,129.6-40.6c13.2-7.6,28.2-11.7,43.4-11.7l157.2-0.3c3.9-0.1,7.2-2.7,8.2-6.4
	c1-3.7-0.5-7.7-3.8-9.7c-5.6-3.3-34.7-6.8-39.3-9.9c-14.5-9.7-14.1-26.3-43.6-26.3c-11.4,0.2-22.7,2.8-33.2,7.5
	c-15,6.6-31.2,10-47.6,10.1h-0.6c-14.5,0-28.6-4.8-40.1-13.6l-95.1-73.1c-62.8-47.5-69.7-93.5-78.1-148.7c-0.4-2.7-2.1-5.1-4.5-6.4
	s-5.3-1.3-7.8-0.1C90.3,11.5,73.9,25.9,61,43.2c1.8,0.1,3.5,0.7,4.9,1.7c15,11.3,17.9,29.9,21.2,51.4c5.6,36,12.4,80.7,81.4,112.6
	c3.7,1.7,5.8,5.8,4.9,9.8c-0.9,4-4.4,6.8-8.5,6.8c-1.3,0-2.5-0.3-3.6-0.8C83.8,188.9,75.8,136.9,70,99c-2.9-18.6-5.1-33.1-14.5-40.2
	c-1.2-0.9-2.1-2.1-2.7-3.5c-11.7,18.9-18,40.7-18.2,63c0,53.3,37.7,96.4,60.7,115.6c-28.6-1.3-57.2-4.2-85.6-8.4
	c-3.2-0.4-6.3,1-8.2,3.7s-2.1,6.1-0.6,8.9C24.5,286,90.4,330.1,164.5,330.1z M97.4,228.7c3-3.7,8.5-4.3,12.2-1.3
	c14.5,11.3,31.2,19.6,49,24.2c2.2,0.6,4.1,2.1,5.2,4.2c1.1,2,1.4,4.4,0.7,6.6c-1,3.7-4.5,6.3-8.3,6.2c-0.8,0-1.6-0.1-2.3-0.3
	c-20.1-5.3-38.8-14.7-55.2-27.4C95,237.8,94.4,232.4,97.4,228.7z M287.6,77.4c-23,24.5-48.6,46.6-76.2,65.8l42.3,32.5
	C268.2,158.5,297.1,118.2,287.6,77.4z M303.4,69.1c14.2,49.7-18.6,96.8-35.9,117.2l37.8,29.1c7.9,6.1,17.5,9.6,27.4,10
	c16.5-36.7,30.1-74.6,40.4-113.4c7.1-32.5-5.1-87.4-15-107.1c-1.5-3-4.5-4.9-7.8-4.9c-3.3,0-6.4,1.9-7.8,4.9
	c-11.7,21.4-26.1,41.3-42.8,59.2C301.5,65.2,302.8,67,303.4,69.1z"/>
</svg>
