<?xml version="1.0" encoding="utf-8"?>
<!-- Generator: Adobe Illustrator 22.0.1, SVG Export Plug-In . SVG Version: 6.00 Build 0)  -->
<svg version="1.1" id="Capa_1" xmlns="http://www.w3.org/2000/svg" xmlns:xlink="http://www.w3.org/1999/xlink" x="0px" y="0px"
	 viewBox="0 0 244.4 297" style="enable-background:new 0 0 244.4 297;" xml:space="preserve">
<style type="text/css">
	.st0{fill:url(#SVGID_1_);}
</style>
<linearGradient id="SVGID_1_" gradientUnits="userSpaceOnUse" x1="122.213" y1="0" x2="122.213" y2="297">
	<stop  offset="0" style="stop-color:#26633D"/>
	<stop  offset="1" style="stop-color:#1D3A28"/>
</linearGradient>
<path class="st0" d="M186.5,186.5l-49.6,37.8l-15.3-24.8l-16.3,24.8l-48.1-37.4C22.8,202.8,0,236,0,297h244.4
	C244.4,235,221.3,202.2,186.5,186.5z M199.2,251.4l-12.3-8.9l-12.3,8.9l4.7-14.5l-12.3-9h15.2l4.7-14.5l4.7,14.5h15.2l-12.3,9
	L199.2,251.4z M162.4,178.6C162.4,178.6,162.4,178.6,162.4,178.6l-40.8,20.8L82,178.6c-23.6-13.8-39.5-39.5-39.5-68.9
	c0-7.1,1-14.1,2.7-20.6c15.7,7.9,44.2,19.4,77,19.4c32.9,0,61.3-11.5,77-19.4c1.8,6.6,2.7,13.5,2.7,20.6
	C202,139.1,186.1,164.8,162.4,178.6z M206,64.7c-0.3-12.4-14-25.9-30-39.7c-13.7-11.8-31-25-53.8-25S82.1,13.2,68.4,25
	c-16,13.8-29.7,27.3-30,39.7c13.2-7.4,45.5-23,83.8-23S192.9,57.3,206,64.7z M114.7,22c0-4.4,3.6-8,8-8c4.4,0,8,3.6,8,8
	c0,4.4-3.6,8-8,8C118.3,30,114.7,26.4,114.7,22z M122.2,92.5c-29,0-54.8-10.3-69.2-17.4c14.3-7.1,40.1-17.4,69.2-17.4
	c29,0,54.8,10.3,69.2,17.4C177.1,82.2,151.4,92.5,122.2,92.5z"/>
</svg>
