<?xml version="1.0" encoding="utf-8"?>
<!-- Generator: Adobe Illustrator 22.0.1, SVG Export Plug-In . SVG Version: 6.00 Build 0)  -->
<svg version="1.1" id="Capa_1" xmlns="http://www.w3.org/2000/svg" xmlns:xlink="http://www.w3.org/1999/xlink" x="0px" y="0px"
	 viewBox="0 0 206.9 206.9" style="enable-background:new 0 0 206.9 206.9;" xml:space="preserve">
<style type="text/css">
	.st0{fill:url(#SVGID_1_);}
</style>
<linearGradient id="SVGID_1_" gradientUnits="userSpaceOnUse" x1="103.4266" y1="7.6219" x2="103.4266" y2="199.23">
	<stop  offset="0" style="stop-color:#26633D"/>
	<stop  offset="1" style="stop-color:#1D3A28"/>
</linearGradient>
<path class="st0" d="M199.4,184.2h-12.1v-73.8l18.9-44c0.8-1.8,0.8-3.7,0.2-5.5l-17.5-48.4c-1.1-3.1-4.1-5.1-7.3-4.9l-35.5,1.2
	c-2.4,0.1-4.6,1.3-6,3.3c-1.3,2-1.7,4.5-0.8,6.8l8.3,23L4.9,93.5c-3.9,1.4-5.9,5.7-4.5,9.6L8,123.9c0.7,1.9,2.1,3.4,3.9,4.2
	c1,0.5,2.1,0.7,3.2,0.7c0.3,0,0.6,0,1-0.1v29.6c-3.9,0.3-7,3.5-7,7.5v18.4h0c-4.1,0-7.5,3.4-7.5,7.5s3.4,7.5,7.5,7.5h7.5H35h19.6
	h68.5h76.2c4.1,0,7.5-3.4,7.5-7.5S203.5,184.2,199.4,184.2z M129.9,184.2l-10.1-92.8l40.4-14.7l12.1,33.5v74H129.9z M42.5,184.2
	v-18.4c0-4.1-3.4-7.5-7.5-7.5h-4v-34.8l24.5-8.9l-7.6,69.5H42.5z M107.3,115.6l-7-6.1l5.8-5.1L107.3,115.6z M75.3,107.5l2.2,1.9
	l-7,6.2l0.7-6.6L75.3,107.5z M67.1,146.2L78,156.6l-13.4,12.7L67.1,146.2z M74.2,132.3l14.7-12.8l14.7,12.8l-14.7,14L74.2,132.3z
	 M110.6,146.2l2.5,23.1l-13.4-12.7L110.6,146.2z M88.9,166.9l18.2,17.3H70.7L88.9,166.9z"/>
</svg>
