<?xml version="1.0" encoding="utf-8"?>
<!-- Generator: Adobe Illustrator 22.0.1, SVG Export Plug-In . SVG Version: 6.00 Build 0)  -->
<svg version="1.1" id="Capa_1" xmlns="http://www.w3.org/2000/svg" xmlns:xlink="http://www.w3.org/1999/xlink" x="0px" y="0px"
	 viewBox="0 0 434.4 434.4" style="enable-background:new 0 0 434.4 434.4;" xml:space="preserve">
<style type="text/css">
	.st0{fill:#EAE6CE;}
</style>
<path class="st0" d="M365.3,271.8c-15.7-15.5-35.3-15.5-50.9,0c-11.9,11.8-23.8,23.6-35.5,35.6c-3.2,3.3-5.9,4-9.8,1.8
	c-7.7-4.2-15.9-7.6-23.3-12.2c-34.5-21.7-63.4-49.6-89-81c-12.7-15.6-24-32.3-31.9-51.1c-1.6-3.8-1.3-6.3,1.8-9.4
	c11.9-11.5,23.5-23.3,35.2-35.1c16.3-16.4,16.3-35.6-0.1-52.1c-9.3-9.4-18.6-18.6-27.9-28c-9.6-9.6-19.1-19.3-28.8-28.8
	C89.4-3.8,69.8-3.8,54.2,11.6c-12,11.8-23.5,23.9-35.7,35.5C7.2,57.8,1.5,70.9,0.3,86.2c-1.9,24.9,4.2,48.4,12.8,71.3
	C30.7,204.9,57.5,247,90,285.6c43.9,52.2,96.3,93.5,157.6,123.3c27.6,13.4,56.2,23.7,87.3,25.4c21.4,1.2,40-4.2,54.9-20.9
	c10.2-11.4,21.7-21.8,32.5-32.7c16-16.2,16.1-35.8,0.2-51.8C403.5,309.8,384.4,290.8,365.3,271.8z"/>
</svg>
