<?xml version="1.0" encoding="utf-8"?>
<!-- Generator: Adobe Illustrator 22.0.1, SVG Export Plug-In . SVG Version: 6.00 Build 0)  -->
<svg version="1.1" id="Layer_1" xmlns="http://www.w3.org/2000/svg" xmlns:xlink="http://www.w3.org/1999/xlink" x="0px" y="0px"
	 viewBox="0 0 512 480" style="enable-background:new 0 0 512 480;" xml:space="preserve">
<style type="text/css">
	.st0{fill:url(#SVGID_1_);}
</style>
<linearGradient id="SVGID_1_" gradientUnits="userSpaceOnUse" x1="256" y1="0" x2="256" y2="480">
	<stop  offset="0" style="stop-color:#26633D"/>
	<stop  offset="1" style="stop-color:#1D3A28"/>
</linearGradient>
<path class="st0" d="M301,130v-25c0-24.8-20.2-45-45-45s-45,20.2-45,45v25c13.1-5.8,28.3-10,45-10S287.9,124.1,301,130z M467,300
	h-15v-30H60v30H45c-24.8,0-45,20.2-45,45s20.2,45,45,45h20.1c5,28.3,13.6,56,26.5,81.7l4.1,8.3h320.5l4.1-8.3
	c12.8-25.7,21.4-53.4,26.5-81.7H467c24.8,0,45-20.2,45-45S491.8,300,467,300z M45,360c-8.3,0-15-6.7-15-15s6.7-15,15-15h15v7.9
	c0,7.4,0.7,14.7,1.3,22.1H45z M467,360h-16.3c0.6-7.4,1.3-14.7,1.3-22.1V330h15c8.3,0,15,6.7,15,15S475.3,360,467,360z M392,60h30
	c33.1,0,60-26.9,60-60h-30c0,16.5-13.5,30-30,30h-30c-33.1,0-60,26.9-60,60h30C362,73.5,375.5,60,392,60z M452,90h-30
	c-33.1,0-60,26.9-60,60h30c0-16.5,13.5-30,30-30h30c33.1,0,60-26.9,60-60h-30C482,76.5,468.5,90,452,90z M135,180
	c-24.4,0-45.9,11.9-59.6,30H30v30h452v-30h-45.4c-13.7-18.1-35.2-30-59.6-30h-54.8c-10.3-9.7-35.6-30-66.2-30s-55.9,20.3-66.2,30
	H135z"/>
</svg>
