<?xml version="1.0" encoding="utf-8"?>
<!-- Generator: Adobe Illustrator 22.0.1, SVG Export Plug-In . SVG Version: 6.00 Build 0)  -->
<svg version="1.1" id="Capa_1" xmlns="http://www.w3.org/2000/svg" xmlns:xlink="http://www.w3.org/1999/xlink" x="0px" y="0px"
	 viewBox="0 0 229 297.3" style="enable-background:new 0 0 229 297.3;" xml:space="preserve">
<style type="text/css">
	.st0{fill:url(#SVGID_1_);}
</style>
<linearGradient id="SVGID_1_" gradientUnits="userSpaceOnUse" x1="114.5" y1="0" x2="114.5" y2="297.334">
	<stop  offset="0" style="stop-color:#26633D"/>
	<stop  offset="1" style="stop-color:#1D3A28"/>
</linearGradient>
<path class="st0" d="M221.3,0H8.3C3.9,0,0,3.6,0,8v223c0,2.9,1.8,5.6,4.3,7l106.6,58.3c1.2,0.7,2.6,1,3.9,1s2.7-0.3,3.9-1L225,238
	c2.6-1.4,4-4.1,4-7V8C229,3.6,225.8,0,221.3,0z M213,226.3l-98.5,54l-98.5-54V16h197V226.3z M181,209.1v-37.6l-66.4,35l-66.6-35V209
	l66.6,36.3L181,209.1z M181,153.4v-37.6l-66.4,35l-66.6-35v37.5l66.6,36.3L181,153.4z M88.6,115.7l26.7-19.4l26.7,19.5l-10.2-31.4
	L158.6,65h-33.1l-10.2-31.4L105.1,65H72.1l26.7,19.3L88.6,115.7z"/>
</svg>
