<?xml version="1.0" encoding="utf-8"?>
<!-- Generator: Adobe Illustrator 22.0.1, SVG Export Plug-In . SVG Version: 6.00 Build 0)  -->
<svg version="1.1" id="Capa_1" xmlns="http://www.w3.org/2000/svg" xmlns:xlink="http://www.w3.org/1999/xlink" x="0px" y="0px"
	 viewBox="0 0 380.7 380.7" style="enable-background:new 0 0 380.7 380.7;" xml:space="preserve">
<style type="text/css">
	.st0{fill:#EAE6CE;}
</style>
<g>
	<g>
		<path class="st0" d="M190.4,29.8c-88.7,0-160.5,71.9-160.5,160.5c0,63.9,37.4,118.9,91.4,144.7l5-97.1c0,0-9.5-3.1-11.5-4.1
			c-20-8.8-34.6-34.8-34.6-68.6c0-36.8,28.6-68.5,56.2-68.8c0,0,0,0,0.1,0c0,0,0,0,0,0c27.6,0.3,56.2,32,56.2,68.8
			c0,33.7-14.6,59.7-34.6,68.6c-0.2,0.1-11.6,4.2-11.6,4.2l5.6,108c12.3,3,25.1,4.8,38.4,4.8c17.9,0,35-3,51-8.4l5-96.2
			c-13.1-2.9-24.3-11.2-31.3-21.7c-8.7-13,6.7-128.1,6.7-128.1h10v108h9.9v-108h10.9v108h9.9v-108h11.3v108h9.9v-108h7.7
			c0,0,15.4,115.1,6.7,128.1c-6.9,10.4-18,18.7-31,21.6c-0.2,0.1-0.4,0.2-0.4,0.2l4.3,82.8c47.8-27.8,80.1-79.5,80.1-138.8
			C350.9,101.7,279,29.8,190.4,29.8z"/>
		<path class="st0" d="M103.7,149c0.6-2.3,1.3-4.6,1.4-4.6c0.3-0.9-0.2-1.8-1.2-2.3c-0.9-0.5-2-0.2-2.5,0.5c0,0-1.1,1.7-2.7,4.3
			c-1.3,2.2-3.2,5.8-4.5,10.2c-1.1,3.9-2.5,9-3.1,14.8c-0.3,3-0.3,5.8-0.2,8.6c0.2,3.2,0.7,6,1.6,9.1c3.2,9,5.6,17.6,14.3,26.2
			c2.8,2.8,5.6,4.8,7.7,6.2l0.7,0.5c0.4,0.3,0.9,0.6,1.3,0.8c1.7,0.9,2.9,1.2,3.1,1.3c0.9,0.2,1.7-0.2,2.1-0.9
			c0.3-0.7,0.1-1.6-0.6-2.2c0,0-1-0.9-2.3-2.5c-0.9-1-1.8-2.4-2.9-4c-0.8-1.1-1.7-2.4-2.6-3.7c-4.3-6.5-6.7-15.6-10.1-24.9
			c-0.7-2-1.2-4.6-1.4-6.9c-0.3-2.6-0.4-5-0.4-7.3c-0.1-5.3,0.1-9.9,0.6-13.6C102.5,154.4,102.9,151.2,103.7,149z"/>
		<path class="st0" d="M190.4,0C85.4,0,0,85.4,0,190.4c0,104.9,85.4,190.4,190.4,190.4c105,0,190.3-85.4,190.3-190.4
			C380.7,85.4,295.3,0,190.4,0z M190.4,366.5c-97.1,0-176.2-79-176.2-176.2c0-97.1,79-176.2,176.2-176.2
			c97.1,0,176.2,79,176.2,176.2C366.5,287.5,287.5,366.5,190.4,366.5z"/>
	</g>
</g>
</svg>
