<?xml version="1.0" encoding="utf-8"?>
<!-- Generator: Adobe Illustrator 22.0.1, SVG Export Plug-In . SVG Version: 6.00 Build 0)  -->
<svg version="1.1" id="Capa_1" xmlns="http://www.w3.org/2000/svg" xmlns:xlink="http://www.w3.org/1999/xlink" x="0px" y="0px"
	 viewBox="0 0 512 319.2" style="enable-background:new 0 0 512 319.2;" xml:space="preserve">
<style type="text/css">
	.st0{fill:url(#SVGID_1_);}
</style>
<linearGradient id="SVGID_1_" gradientUnits="userSpaceOnUse" x1="256" y1="0" x2="256" y2="319.203">
	<stop  offset="0" style="stop-color:#26633D"/>
	<stop  offset="1" style="stop-color:#1D3A28"/>
</linearGradient>
<path class="st0" d="M497,16.1H270.8C260.8,6.1,247.1,0,231.9,0h-80.3c-30.4,0-55.2,24.7-55.2,55.2v29.5
	c-18.9,7.5-32.1,23.8-32.1,42.8v4.2c4.9-0.7,9.9-1,15-1h289.2c5.1,0,10.1,0.4,15,1v-4.2c0-26-24.7-47.1-55.2-47.1h-41.2V55.2
	c0-3.1-0.3-6.1-0.8-9.1H497c8.3,0,15-6.7,15-15S505.3,16.1,497,16.1L497,16.1z M368.5,160.7H79.3C35.6,160.7,0,196.2,0,239.9
	c0,43.7,35.6,79.3,79.3,79.3h289.2c43.7,0,79.3-35.6,79.3-79.3C447.7,196.2,412.2,160.7,368.5,160.7z M93.1,250.5
	c-2.8,2.8-6.7,4.4-10.6,4.4c-3.9,0-7.8-1.6-10.6-4.4s-4.4-6.7-4.4-10.6s1.6-7.8,4.4-10.6c2.8-2.8,6.7-4.4,10.6-4.4
	c3.9,0,7.8,1.6,10.6,4.4c2.8,2.8,4.4,6.6,4.4,10.6S95.9,247.8,93.1,250.5z M163.8,250.5c-2.8,2.8-6.7,4.4-10.6,4.4
	c-4,0-7.8-1.6-10.6-4.4c-2.8-2.8-4.4-6.7-4.4-10.6s1.6-7.8,4.4-10.6c2.8-2.8,6.7-4.4,10.6-4.4c3.9,0,7.8,1.6,10.6,4.4
	c2.8,2.8,4.4,6.6,4.4,10.6S166.6,247.8,163.8,250.5z M234.5,250.5c-2.8,2.8-6.7,4.4-10.6,4.4c-3.9,0-7.8-1.6-10.6-4.4
	c-2.8-2.8-4.4-6.7-4.4-10.6s1.6-7.8,4.4-10.6c2.8-2.8,6.6-4.4,10.6-4.4c3.9,0,7.8,1.6,10.6,4.4c2.8,2.8,4.4,6.6,4.4,10.6
	S237.3,247.8,234.5,250.5z M305.2,250.5c-2.8,2.8-6.7,4.4-10.6,4.4c-3.9,0-7.8-1.6-10.6-4.4c-2.8-2.8-4.4-6.7-4.4-10.6
	s1.6-7.8,4.4-10.6c2.8-2.8,6.7-4.4,10.6-4.4c3.9,0,7.8,1.6,10.6,4.4c2.8,2.8,4.4,6.7,4.4,10.6C309.6,243.9,308,247.7,305.2,250.5z
	 M375.9,250.5c-2.8,2.8-6.7,4.4-10.6,4.4c-3.9,0-7.8-1.6-10.6-4.4c-2.8-2.8-4.4-6.7-4.4-10.6s1.6-7.8,4.4-10.6
	c2.8-2.8,6.7-4.4,10.6-4.4c4,0,7.8,1.6,10.6,4.4c2.8,2.8,4.4,6.6,4.4,10.6S378.7,247.8,375.9,250.5z"/>
</svg>
