<?xml version="1.0" encoding="utf-8"?>
<!-- Generator: Adobe Illustrator 22.1.0, SVG Export Plug-In . SVG Version: 6.00 Build 0)  -->
<svg version="1.1"  xmlns="http://www.w3.org/2000/svg" xmlns:xlink="http://www.w3.org/1999/xlink" x="0px" y="0px"
	 viewBox="0 0 191.7 191.7" style="enable-background:new 0 0 191.7 191.7;" xml:space="preserve">
<style type="text/css">
  .st0{fill:url(#SVGID_1_);}
</style>
<linearGradient id="SVGID_1_" gradientUnits="userSpaceOnUse" x1="103.4266" y1="7.6219" x2="103.4266" y2="199.23">
  <stop  offset="0" style="stop-color:#1D3A28"/>
  <stop  offset="1" style="stop-color:#26633D"/>
</linearGradient>
<path class="st0" d="M95.8,0C43,0,0,43,0,95.8s43,95.8,95.8,95.8s95.8-43,95.8-95.8S148.7,0,95.8,0z M150.9,79.6l-60.2,60.2c-2.6,2.6-6,4-9.6,4
	s-7-1.4-9.6-4l-30.7-30.7c-2.6-2.6-4-6-4-9.6c0-3.6,1.4-7,4-9.6c2.6-2.6,6-4,9.6-4c3.6,0,7,1.4,9.6,4l21.1,21.1l50.6-50.6
	c2.6-2.6,6-4,9.6-4c3.6,0,7,1.4,9.6,4C156.1,65.8,156.1,74.4,150.9,79.6z"/>
</svg>
