<?xml version="1.0" encoding="utf-8"?><svg xmlns="http://www.w3.org/2000/svg" xmlns:xlink="http://www.w3.org/1999/xlink"><symbol viewBox="0 0 639.4 588.2" id="form-msg" xmlns="http://www.w3.org/2000/svg"><path d="M551.5 0H87.9C39.4 0 0 39.4 0 87.9v283.7c0 48.4 39.3 87.7 87.6 87.9v128.7l185-128.7h278.9c48.5 0 87.9-39.4 87.9-87.9V87.9c0-48.5-39.5-87.9-87.9-87.9zm50.4 371.6c0 27.8-22.6 50.4-50.4 50.4H260.8L125 516.5V422H87.9c-27.8 0-50.4-22.6-50.4-50.4V87.9c0-27.8 22.6-50.4 50.4-50.4h463.6c27.8 0 50.4 22.6 50.4 50.4v283.7z"/><path d="M171.1 132.4h297.1v37.5H171.1v-37.5zm0 79.9h297.1v37.5H171.1v-37.5zm0 79.9h297.1v37.5H171.1v-37.5z"/></symbol><symbol viewBox="0 0 32 32" id="form-user" xmlns="http://www.w3.org/2000/svg"><path d="M16 22c5 0 9-4.9 9-11S21 0 16 0c-2.4 0-4.7 1.2-6.4 3.3C7.9 5.4 7 8.1 7 11c0 6.1 4 11 9 11zm0-20c3.9 0 7 4 7 9s-3.1 9-7 9-7-4-7-9 3.1-9 7-9zm7 18c-.6 0-1 .4-1 1s.4 1 1 1c3.9 0 7 3.1 7 7 0 .6-.4 1-1 1H3c-.6 0-1-.4-1-1 0-3.9 3.1-7 7-7 .6 0 1-.4 1-1s-.4-1-1-1c-5 0-9 4-9 9 0 1.7 1.3 3 3 3h26c1.7 0 3-1.3 3-3 0-5-4-9-9-9z"/></symbol><symbol viewBox="0 0 286.877 404" id="icon-bookmark" xmlns="http://www.w3.org/2000/svg"><path d="M276.887 0H9.987A9.985 9.985 0 000 9.987v374.026a19.954 19.954 0 0010.841 17.78 19.947 19.947 0 0020.769-1.548l111.827-80.158 111.826 80.162a19.977 19.977 0 0031.614-16.236V9.987c0-5.516-4.474-9.987-9.99-9.987z"/></symbol><symbol viewBox="0 0 512 394.199" id="icon-cart" xmlns="http://www.w3.org/2000/svg"><path d="M512 154.209V82.213h-56.509V56.295C455.491 25.253 430.237 0 399.196 0H112.804C81.763 0 56.509 25.254 56.509 56.295v25.918H0v71.996h512zM86.509 56.295c0-14.5 11.796-26.295 26.295-26.295h286.392c14.499 0 26.295 11.796 26.295 26.295v25.918H86.509V56.295zm-15.09 337.904h369.162l48.357-209.99H23.062l48.357 209.99zM340 241.205h30v94h-30v-94zm-66 0h30v94h-30v-94zm-66 0h30v94h-30v-94zm-66 0h30v94h-30v-94z"/></symbol><symbol id="icon-clock" viewBox="0 0 841 841" xml:space="preserve" xmlns="http://www.w3.org/2000/svg"><style>.est0{fill:none;stroke:#000;stroke-width:41;stroke-miterlimit:10}</style><path class="est0" d="M380.5 20.5h62c5.628.386 11.255.782 16.884 1.158 36.366 2.43 71.34 11.233 105.053 24.58 92.993 36.815 163.064 99.67 210.306 187.768 22.797 42.513 36.944 87.912 42.974 135.793 1.118 8.876 1.865 17.8 2.783 26.701v42c-.303 2.446-.695 4.885-.895 7.34-.902 11.115-1.076 22.337-2.736 33.335-6.408 42.45-19.436 82.845-38.864 121.16-22.836 45.035-52.81 84.62-90.368 118.405-33.995 30.579-72.306 54.39-114.518 71.78-35.705 14.71-72.57 25.232-111.297 28.218-7.442.574-14.881 1.174-22.322 1.762h-45c-1.285-.276-2.557-.66-3.856-.81-12.058-1.39-24.208-2.21-36.168-4.187-61.84-10.224-118.18-33.89-168.935-70.593-50.627-36.612-90.613-82.616-119.889-137.852-21.476-40.52-35.45-83.537-42.28-128.85-1.433-9.497-1.94-19.135-2.872-28.708v-59c.282-1.61.78-3.214.814-4.829.385-18.92 3.972-37.346 8.313-55.681 13.792-58.254 38.95-111.024 76.14-157.98 32.13-40.568 70.816-73.558 115.638-99.36 42.58-24.51 88.113-40.712 136.687-48.3 7.487-1.17 14.94-2.561 22.408-3.85z"/><path class="est0" d="M420.357 156.959c-143.364.569-262.898 116.063-263.15 263.761-.246 144.88 119.776 265.94 268.987 262.483 140.604-3.256 256.561-116.528 256.934-262.605.372-146.261-117.68-262.65-262.77-263.64z"/><path fill="none" stroke="#000" stroke-width="41" stroke-linecap="round" stroke-linejoin="round" stroke-miterlimit="10" d="M404.584 290.18v145.097h138.808"/></symbol><symbol viewBox="0 0 512 455.5" id="icon-heart" xmlns="http://www.w3.org/2000/svg"><path d="M256 455.5c-7.3 0-14.3-2.6-19.8-7.4C215.5 430 195.6 413 178 398l-.1-.1C126.3 354 81.8 316 50.8 278.6 16.1 236.8 0 197.2 0 153.9 0 111.8 14.4 73 40.6 44.6 67.1 15.8 103.5 0 143 0c29.6 0 56.6 9.3 80.4 27.8 12 9.3 22.9 20.7 32.5 34 9.6-13.3 20.5-24.7 32.5-34C312.4 9.3 339.4 0 369 0c39.5 0 75.9 15.8 102.4 44.6C497.6 73 512 111.8 512 153.9c0 43.3-16.1 82.9-50.8 124.7-31 37.4-75.5 75.4-127.1 119.3-17.6 15-37.6 32-58.3 50.2-5.5 4.8-12.5 7.4-19.8 7.4zM143 30c-31 0-59.6 12.4-80.3 34.9-21.1 22.9-32.7 54.5-32.7 89 0 36.4 13.5 69 43.9 105.6 29.3 35.4 73 72.6 123.5 115.6l.1.1c17.7 15.1 37.7 32.1 58.5 50.3 21-18.3 41-35.3 58.7-50.4 50.5-43.1 94.1-80.2 123.5-115.6 30.3-36.6 43.9-69.2 43.9-105.6 0-34.5-11.6-66.1-32.7-89C428.6 42.4 400 30 369 30c-22.8 0-43.7 7.2-62.1 21.5-16.4 12.7-27.9 28.8-34.6 40-3.5 5.8-9.5 9.2-16.3 9.2s-12.8-3.5-16.3-9.2c-6.7-11.3-18.2-27.3-34.6-40C186.7 37.2 165.8 30 143 30z"/></symbol><symbol viewBox="0 0 28.176 35.263" id="icon-phone" xmlns="http://www.w3.org/2000/svg"><path d="M3.68.646l-1.042.729C1.356 2.274.502 3.75.168 5.642-.656 10.315 1.587 17.16 6.025 23.51c6.445 9.22 15.055 13.95 19.599 10.76l1.04-.73a3.536 3.536 0 001.457-2.294 3.534 3.534 0 00-.587-2.656l-2.91-4.166a3.545 3.545 0 00-4.939-.87l-1.04.728c-1.109.778-3.48-.087-6.81-4.853C9 15.371 8.836 13.283 8.992 12.4c.083-.469.286-.809.62-1.043l1.039-.729c1.552-1.088 1.961-3.396.872-4.948l-2.91-4.164A3.507 3.507 0 006.325.054 3.511 3.511 0 003.68.646zm3.286 2.028l2.91 4.167c.469.671.296 1.665-.376 2.135l-1.038.729c-.773.542-1.275 1.352-1.45 2.345-.374 2.116.695 4.989 3.174 8.538 5.118 7.325 8.43 6.18 9.616 5.349l1.039-.73a1.528 1.528 0 012.13.377l2.912 4.164c.468.674.293 1.668-.377 2.137l-1.038.728c-3.5 2.455-11.188-2.246-16.791-10.263-4.08-5.838-6.247-12.26-5.524-16.36.242-1.372.793-2.368 1.642-2.962L4.833 2.3a1.522 1.522 0 011.145-.254c.402.068.753.292.988.628z"/></symbol><symbol viewBox="0 0 28.652 35.691" id="icon-pin" xmlns="http://www.w3.org/2000/svg"><path d="M14.326 1C6.967 1 1 6.966 1 14.325c0 11.076 13.326 20.143 13.326 20.143s13.326-9.734 13.326-20.144C27.652 6.965 21.685 1 14.326 1zm0 19.676a6.353 6.353 0 116.352-6.351 6.352 6.352 0 01-6.352 6.351z" fill="none" stroke="#000" stroke-width="2" stroke-miterlimit="10"/></symbol><symbol viewBox="0 0 270.4 98.1" id="iconSheer"><path d="M175.1 51.8c.2 1.2.3 2.1.5 3 2 8.4 8.6 14 17.2 14.7 7.6.6 13.6-2.3 18-8.5 2.2-3 5.7-3.5 8.5-1.1 1.6 1.4 1.8 3.2.5 4.9-.7.9-1.4 1.8-2.1 2.8-2.9 4-6.7 6.7-11.4 8.3-7.6 2.6-15.2 3-22.7.2-10.1-3.7-16.1-11.1-17.8-21.7-1-6.5-.4-13 2.6-18.9 4.3-8.4 11.1-13.6 20.5-15.1 6.2-1 12.4-.4 18.2 2.4 8.2 3.9 13.2 10.5 15.1 19.3.5 2.4.7 4.9.9 7.3.2 1.5-.5 2.2-2.1 2.3h-44.1c-.4.1-.9.1-1.8.1zm38.3-9.2c-1.2-7.9-10.7-14.7-19.4-14.2-9.1.5-18.2 7.5-18.5 14.2h37.9zm-101 9c.1.8.2 1.4.3 2 1.7 9.3 9.3 15.7 18.7 15.9 7.1.1 12.7-2.8 16.8-8.6 2.2-3.1 6.1-3.4 8.8-.7 1.3 1.4 1.5 3 .3 4.6-.5.8-1.1 1.5-1.7 2.2-3.1 4.5-7.3 7.4-12.5 9.1-7.6 2.5-15.2 2.7-22.5-.2-10.6-4.1-16.4-12.1-17.6-23.3-.6-5.4-.1-10.7 2.2-15.6 4.3-9.4 11.4-15.2 21.8-16.6 5.5-.7 11-.3 16.1 1.8 9.2 3.8 14.6 10.9 16.6 20.6.4 2.2.6 4.5.7 6.7.1 1.8-.3 2.2-2.2 2.2h-43.5c-.7-.1-1.4-.1-2.3-.1zm38.4-9.1c-1.2-7.8-10.4-14.4-19.4-14.2-8.8.2-17.9 7.2-18.6 14.2h38zm101 13.5c.7.6 1.1 1 1.5 1.4 4.9 4.2 9.8 8.3 14.6 12.5.3.3.7.6 1 .9 1.8 1.8 2 4.4.3 6.2-1.6 1.8-4.2 2.1-6.1.5-3.4-2.8-6.7-5.7-10-8.5-4.8-4.1-9.5-8.1-14.3-12.2-.4-.4-.9-.7-1.6-1.3 0 1-.1 1.6-.1 2.3v36.1c-.2 2.5-2.1 4.3-4.6 4.2-2.4-.1-4.1-1.9-4.2-4.4V21.9c0-1.6.2-1.9 1.7-1.9 2.1-.1 4.2-.1 6.2-.1 5 0 10.1.2 15.1-.1 8.4-.4 17.8 6.4 18.7 16.3.8 8.9-5.2 17.3-14.3 19.1-1.1.2-2.3.5-3.9.8zm-15.3-6.9c.5.1.9.1 1.2.1h12.6c1.2 0 2.4-.1 3.6-.5 3.9-1.2 7-3.5 8-7.7 1.7-7.1-3.6-13.7-10.9-13.7h-13c-.5 0-1 .1-1.5.1v21.7zM88.5 52H63.9c0 .7-.1 1.4-.1 2v18.9c0 .8 0 1.6-.2 2.3-.6 1.9-2.6 3.1-4.5 3-2.1-.2-3.8-1.8-4.1-3.9-.1-.5 0-1 0-1.5V5.4c0-.9.1-1.8.4-2.6.6-2 2.6-3 4.7-2.8 1.9.3 3.5 2 3.7 3.9.1.6 0 1.2 0 1.8v34.7c0 .7.1 1.4.1 2 1.5.4 22.9.4 24.5 0 0-.5.1-1.1.1-1.7V23.9c.2-2.3 1.9-4 4.2-4.1 2.3-.1 4.3 1.6 4.6 3.9.1.5 0 1 0 1.5v48.9c-.3 2.3-2.3 4.1-4.5 4-2.3-.1-4.1-1.9-4.3-4.2V52zM25 78.3c-5.9-.1-11.4-1.4-16.5-4.4-2.2-1.3-4.2-2.9-5.8-4.8-.8-1-1.6-2.1-2.2-3.3-1-1.9-.6-3.4.9-4.9 1.7-1.6 4.1-2.3 6.4-.7C9 61 10 62 10.9 63c.9.9 1.6 1.9 2.5 2.8 2.7 2.7 6 4.2 9.8 4.6 3.5.4 7 .3 10.4-.9 1.4-.5 2.8-1.2 4-2.1 2.9-2.2 3-5.9.2-8.2-1.3-1.1-2.9-1.9-4.5-2.6-4-1.7-8.1-2.9-12.3-4-3.4-.8-6.7-1.9-10.1-2.9-1.3-.4-2.5-1.1-3.7-1.7-3.2-1.7-5-4.4-5.5-7.9-1-7.1 1.7-12.8 8.1-15.9 9.8-4.8 19.7-5.2 29.4.4 1.8 1 3.5 2.5 5.1 3.9 1.2 1 2 2.5 2.5 4 .8 2.6-.5 3.9-2.8 4.4-2 .4-3.8-.2-5.2-1.7-.3-.3-.5-.6-.7-.9-2.3-3.4-5.6-5.3-9.6-6.1-4-.7-8-.6-11.8.9-1.4.5-2.8 1.3-3.9 2.3-2.7 2.3-2.7 5.4-.1 7.8 1.7 1.6 3.7 2.5 5.9 3 4.8 1.2 9.7 2.4 14.5 3.6 3.1.8 6.1 1.8 8.9 3.4 3.6 1.9 6.2 4.7 7.1 8.8 1.1 5 0 9.4-3.9 13-4.4 4-9.5 6.3-15.4 7-1.7.1-3.3.2-4.8.3z"/></symbol></svg>