<?xml version="1.0" encoding="utf-8"?>
<!-- Generator: Adobe Illustrator 22.1.0, SVG Export Plug-In . SVG Version: 6.00 Build 0)  -->
<svg version="1.1" id="Layer_1" xmlns="http://www.w3.org/2000/svg" xmlns:xlink="http://www.w3.org/1999/xlink" x="0px" y="0px"
	 viewBox="0 0 492.0039673 289.0480652" style="enable-background:new 0 0 492.0039673 289.0480652;" xml:space="preserve" fill="#41719f">
<g>
	<g>
		<path d="M265.1999512,281.2000122L484.1439819,62.2519836c5.0679932-5.0639954,7.8599854-11.8239899,7.8599854-19.0319977
			s-2.7919922-13.9680023-7.8599854-19.0319977L468.0239563,8.0639877c-10.5039978-10.4919968-27.5759888-10.4919968-38.0639954,0
			L246.1039734,191.9199982L62.0439758,7.8600006C56.9759827,2.7959976,50.2199707,0,43.0159912,0
			c-7.2120056,0-13.9679871,2.7959976-19.0400085,7.8600006L7.8599854,23.9840012C2.7919922,29.052002,0,35.8079987,0,43.0160065
			s2.7919922,13.9680023,7.8599854,19.0319977l219.1439819,219.1520081
			c5.0840149,5.0759888,11.871994,7.8640137,19.0879974,7.8479614
			C253.335968,289.0639648,260.1199646,286.276001,265.1999512,281.2000122z"/>
	</g>
</g>
</svg>
