<?xml version="1.0" encoding="utf-8"?>
<!-- Generator: Adobe Illustrator 22.1.0, SVG Export Plug-In . SVG Version: 6.00 Build 0)  -->
<svg version="1.1" id="Capa_1" xmlns="http://www.w3.org/2000/svg" xmlns:xlink="http://www.w3.org/1999/xlink" x="0px" y="0px"
	 viewBox="0 0 512 330" style="enable-background:new 0 0 512 330;" xml:space="preserve">
<style type="text/css">
	.st0{fill:#FE9F99;}
</style>
<g>
	<g>
		<path class="st0" d="M287,60c-24.8,0-45,20.2-45,45s20.2,45,45,45s45-20.2,45-45S311.8,60,287,60z M287,120c-8.3,0-15-6.7-15-15
			s6.7-15,15-15s15,6.7,15,15S295.3,120,287,120z"/>
	</g>
</g>
<g>
	<g>
		<path class="st0" d="M407,180c-24.8,0-45,20.2-45,45s20.2,45,45,45s45-20.2,45-45S431.8,180,407,180z M407,240
			c-8.3,0-15-6.7-15-15s6.7-15,15-15s15,6.7,15,15S415.3,240,407,240z"/>
	</g>
</g>
<g>
	<g>
		<path class="st0" d="M415.3,62.5c-6.9-4.6-16.2-2.7-20.8,4.2l-120,180c-4.6,6.9-2.7,16.2,4.2,20.8c6.9,4.6,16.2,2.7,20.8-4.2
			l120-180C424.1,76.4,422.2,67.1,415.3,62.5z"/>
	</g>
</g>
<g>
	<g>
		<path class="st0" d="M497,0H15C6.7,0,0,6.7,0,15v90c0,8.3,6.7,15,15,15c24.8,0,45,20.2,45,45s-20.2,45-45,45c-8.3,0-15,6.7-15,15
			v90c0,8.3,6.7,15,15,15h482c8.3,0,15-6.7,15-15V15C512,6.7,505.3,0,497,0z M482,300H150v-15c0-8.3-6.7-15-15-15s-15,6.7-15,15v15
			H30v-61.5c34.2-7,60-37.3,60-73.5S64.2,98.5,30,91.5V30h91.3v15c0,8.3,6.7,15,15,15s15-6.7,15-15V30H482V300z"/>
	</g>
</g>
<g>
	<g>
		<path class="st0" d="M135,180c-8.3,0-15,6.7-15,15v30c0,8.3,6.7,15,15,15s15-6.7,15-15v-30C150,186.7,143.3,180,135,180z"/>
	</g>
</g>
<g>
	<g>
		<path class="st0" d="M135,90c-8.3,0-15,6.7-15,15v30c0,8.3,6.7,15,15,15s15-6.7,15-15v-30C150,96.7,143.3,90,135,90z"/>
	</g>
</g>
</svg>
