<?xml version="1.0" encoding="utf-8"?>
<!-- Generator: Adobe Illustrator 22.1.0, SVG Export Plug-In . SVG Version: 6.00 Build 0)  -->
<svg version="1.1" id="Layer_1" xmlns="http://www.w3.org/2000/svg" xmlns:xlink="http://www.w3.org/1999/xlink" x="0px" y="0px"
	 viewBox="0 0 412.2 412.2" style="enable-background:new 0 0 412.2 412.2;" xml:space="preserve">
<style type="text/css">
	.st0{fill:url(#SVGID_1_);}
	.st1{fill:url(#SVGID_2_);}
	.st2{fill:url(#SVGID_3_);}
</style>
<g>
	<g>
		
			<radialGradient id="SVGID_1_" cx="2.3151" cy="-36.6518" r="589.4543" gradientTransform="matrix(1 0 0 -1 0 415.6)" gradientUnits="userSpaceOnUse">
			<stop  offset="0" style="stop-color:#FEC053"/>
			<stop  offset="0.3273" style="stop-color:#F2203E"/>
			<stop  offset="0.6485" style="stop-color:#B729A8"/>
			<stop  offset="1" style="stop-color:#5342D6"/>
		</radialGradient>
		<path class="st0" d="M294.9,412.2H117.3C52.6,412.2,0,359.6,0,294.9V117.3C0,52.6,52.6,0,117.3,0h177.6
			c64.7,0,117.3,52.6,117.3,117.3v177.6C412.2,359.6,359.6,412.2,294.9,412.2z M117.3,35.4c-45.2,0-82,36.8-82,82V295
			c0,45.2,36.8,82,82,82h177.6c45.2,0,82-36.8,82-82V117.3c0-45.2-36.8-82-82-82L117.3,35.4L117.3,35.4z"/>
	</g>
	<g>
		
			<radialGradient id="SVGID_2_" cx="2.315" cy="-36.6522" r="589.456" gradientTransform="matrix(1 0 0 -1 0 415.6)" gradientUnits="userSpaceOnUse">
			<stop  offset="0" style="stop-color:#FEC053"/>
			<stop  offset="0.3273" style="stop-color:#F2203E"/>
			<stop  offset="0.6485" style="stop-color:#B729A8"/>
			<stop  offset="1" style="stop-color:#5342D6"/>
		</radialGradient>
		<path class="st1" d="M206.1,311.7c-58.2,0-105.5-47.3-105.5-105.5s47.3-105.5,105.5-105.5S311.6,148,311.6,206.2
			C311.6,264.3,264.3,311.7,206.1,311.7z M206.1,135.9c-38.7,0-70.2,31.5-70.2,70.2s31.5,70.2,70.2,70.2s70.2-31.5,70.2-70.2
			S244.8,135.9,206.1,135.9z"/>
	</g>
	<g>
		
			<radialGradient id="SVGID_3_" cx="2.3126" cy="-36.6416" r="589.4497" gradientTransform="matrix(1 0 0 -1 0 415.6)" gradientUnits="userSpaceOnUse">
			<stop  offset="0" style="stop-color:#FEC053"/>
			<stop  offset="0.3273" style="stop-color:#F2203E"/>
			<stop  offset="0.6485" style="stop-color:#B729A8"/>
			<stop  offset="1" style="stop-color:#5342D6"/>
		</radialGradient>
		<path class="st2" d="M341.5,94.5c0,14-11.4,25.4-25.4,25.4s-25.4-11.4-25.4-25.4s11.4-25.4,25.4-25.4
			C330.2,69.2,341.5,80.5,341.5,94.5z"/>
	</g>
</g>
</svg>
