<?xml version="1.0" encoding="utf-8"?>
<!-- Generator: Adobe Illustrator 22.1.0, SVG Export Plug-In . SVG Version: 6.00 Build 0)  -->
<svg version="1.1" id="Layer_1" xmlns="http://www.w3.org/2000/svg" xmlns:xlink="http://www.w3.org/1999/xlink" x="0px" y="0px"
	 viewBox="0 0 310.2234192 152.9841766" style="enable-background:new 0 0 310.2234192 152.9841766;" xml:space="preserve">
<style type="text/css">
	.st0{fill-rule:evenodd;clip-rule:evenodd;fill:#FFBDB5;}
	.st1{fill-rule:evenodd;clip-rule:evenodd;fill:#FFFFFF;}
	.st2{fill-rule:evenodd;clip-rule:evenodd;fill:#B56451;}
	.st3{fill:#FFFFFF;}
</style>
<g>
	<path class="st0" d="M45.6430511,132.1985016c0.7579956-0.5516205,1.4737244-1.1301727,2.2288818-1.6999512
		c1.8093567-1.3651581,3.6600952-2.3040009,5.7362061-3.2008667c10.4385681-4.5096436,22.0350952-7.5404663,33.1525726-9.8353729
		c13.044754-2.692627,26.3644867-4.4985657,39.6277924-5.6893921c11.0239258-0.9895935,22.1136169-1.5534058,33.1820374-1.6361694
		c9.9377441-0.0739746,19.9681091,0.2225342,29.8621826,1.1876831c10.3169861,1.0062866,32.1587524,3.5830078,37.8269043,13.7562714
		c0.3495483,0.6273041,1.0224609,1.8243713,1.671051,2.7640686c1.7554932,0.2721405,3.2451172,1.3356781,4.1017456,2.9775085
		c0.4118347,0.7891693,0.7128601,1.6931305,0.8446655,2.5704498c0.2058105,1.3685608,0.015625,2.7634888-0.6162109,4.0028076
		c-1.8842163,3.696106-5.8986511,4.0121613-9.3540344,2.7201233c-3.0299683-1.1327209-6.3034363-3.2643738-8.9827576-5.0561523
		c-20.7841492-13.8985596-59.1933289-11.1452637-82.8053894-7.8457336
		c-18.9512634,2.648407-37.9972534,6.8720245-56.381073,12.180191c-7.0664673,2.0403748-14.1221924,4.2630157-21.0330505,6.7832947
		c-4.0082092,1.4618378-8.5819092,3.1498718-12.3332825,5.1888275c-3.356781,1.8246613-7.6064911,2.701416-10.4660778-0.6414795
		c-2.6736145-3.1251984-1.521637-7.083786,0.5598431-10.0856781c1.6613922-2.3955536,3.9852295-4.5325928,6.3402557-6.2313995
		C40.683548,133.0687408,43.421524,132.8025513,45.6430511,132.1985016L45.6430511,132.1985016z"/>
	<path class="st0" d="M144.3646698,0c25.0492249,0,45.3557739,19.8827209,45.3557739,44.4103699
		c0,24.5278931-20.3065491,44.4103699-45.3557739,44.4103699c-25.0489197,0-45.3554382-19.8824768-45.3554382-44.4103699
		C99.0092316,19.8827209,119.3157501,0,144.3646698,0L144.3646698,0z"/>
	<path class="st1" d="M143.7194977,5.5141907c11.4536743,0,21.7284546,4.9416504,28.7223511,12.7667236
		c-6.3677368-5.1599121-14.5394592-8.2607727-23.4510498-8.2607727c-20.326355,0-36.804718,16.1340027-36.804718,36.0386047
		c0,14.7605591,9.0629272,27.4450378,22.0368042,33.0165405c-16.4803772-4.1332397-28.6619415-18.7718811-28.6619415-36.1976013
		C105.5609436,22.2420044,122.6450653,5.5141907,143.7194977,5.5141907L143.7194977,5.5141907z"/>
	<path class="st0" d="M150.0940704,39.8718262c28.0890808,0,50.8600769,22.2956238,50.8600769,49.8002014
		c0,27.5042725-22.7709961,49.8001709-50.8600769,49.8001709c-28.0890503,0-50.8600464-22.2958984-50.8600464-49.8001709
		C99.234024,62.16745,122.0050201,39.8718262,150.0940704,39.8718262L150.0940704,39.8718262z"/>
	<path class="st0" d="M70.6171112,85.5663147c0.8739319-1.5723877,2.449707-2.635376,4.3361664-2.8380737l2.6923523-0.2891235
		c0.0362701-0.0036926,0.0669098-0.0067749,0.10289-0.0098877c3.4727478-0.309021,7.283905,0.2641907,8.5132904,4.2490845
		c0.2675934,0.8671265,0.3308105,1.7858276,0.1868134,2.6815796c-0.0215454,0.1343994-0.0439453,0.2480469-0.0745544,0.3807068
		c-0.8135376,3.5124207-1.2395935,7.1047668-1.3782196,10.7055969c-0.0090637,0.2392883-0.0189819,0.5726318-0.0235138,0.9570007
		c0.2406616-0.011322,0.484726-0.0079346,0.7313538,0.0107422c2.5905762,0.197876,4.6533508,2.0429688,5.1380615,4.5952454
		c0.8931885,4.7049561-0.5005951,9.3770142-5.2307739,11.2773743c-3.39534,1.3637695-6.7444763,1.2177734-9.5133514-0.3851929
		c-2.2104645,2.636734-5.1485748,4.690155-8.7786102,4.4537659c-3.0795746-0.2006836-5.5267029-1.9859467-7.3289795-4.3826294
		c-2.532196-3.3670044-2.8709259-10.5477295-3.0690765-14.6375427c-0.1845398-3.8106384-0.7302094-11.0438232,1.5876923-14.271637
		c0.6196594-0.862854,1.3538208-1.45755,2.3266907-1.8844604C63.9046783,84.8318481,67.5409698,83.854187,70.6171112,85.5663147
		L70.6171112,85.5663147z"/>
	<path class="st0" d="M91.7182465,39.2618103c20.4729309,0,37.069519,16.2501831,37.069519,36.2967834
		s-16.5965881,36.2970886-37.069519,36.2970886c-20.4726868,0-37.0692444-16.2504883-37.0692444-36.2970886
		S71.2455597,39.2618103,91.7182465,39.2618103L91.7182465,39.2618103z"/>
	<path class="st0" d="M207.4001312,8.6720276c16.2442017,0,29.4128418,12.8939209,29.4128418,28.7999573
		c0,15.9060669-13.1686401,28.8000488-29.4128418,28.8000488c-16.2442322,0-29.4128723-12.8939819-29.4128723-28.8000488
		C177.9872589,21.5659485,191.155899,8.6720276,207.4001312,8.6720276L207.4001312,8.6720276z"/>
	<path class="st0" d="M84.960434,0.4989014c8.9322357,0,16.1733551,7.0899963,16.1733551,15.8363037
		c0,8.7465515-7.2411194,15.8366089-16.1733551,15.8366089c-8.9325256,0-16.173645-7.0900574-16.173645-15.8366089
		C68.7867889,7.5888977,76.0279083,0.4989014,84.960434,0.4989014L84.960434,0.4989014z"/>
	<path class="st0" d="M210.4082489,51.2721863c19.879364,0,35.9945984,15.7790833,35.9945984,35.244873
		c0,19.4655151-16.1152344,35.2445679-35.9945984,35.2445679s-35.9949036-15.7790527-35.9949036-35.2445679
		C174.4133453,67.0512695,190.5288849,51.2721863,210.4082489,51.2721863L210.4082489,51.2721863z"/>
	<path class="st1" d="M91.1909943,43.7685852c9.3611298,0,17.7587738,4.0388489,23.4747925,10.4343567
		c-5.2043762-4.2174072-11.8830872-6.7515869-19.166687-6.7515869c-16.6127472,0-30.080719,13.1862488-30.080719,29.4542542
		c0,12.0639954,7.4072113,22.4311218,18.0110779,26.9850159c-13.469696-3.3783875-23.4258118-15.3425598-23.4258118-29.5846558
		C60.0036469,57.4403992,73.9668121,43.7685852,91.1909943,43.7685852L91.1909943,43.7685852z"/>
	<path class="st1" d="M206.9817047,12.2478943c7.4276123,0,14.0907593,3.2045898,18.6262207,8.2791748
		c-4.1295471-3.3463135-9.4286194-5.3569031-15.2079163-5.3569031c-13.1813965,0-23.8676758,10.462677-23.8676758,23.3704834
		c0,9.5723572,5.8773499,17.7982178,14.290863,21.411499c-10.6874695-2.6806946-18.5873413-12.1736755-18.5873413-23.4742737
		C182.2358551,23.0957947,193.3150482,12.2478943,206.9817047,12.2478943L206.9817047,12.2478943z"/>
	<path class="st1" d="M84.7302704,2.4652405c4.0841522,0,7.7481995,1.7620239,10.2421265,4.5524597
		c-2.270813-1.8399353-5.1845703-2.9457703-8.3624878-2.9457703c-7.2481995,0-13.1244049,5.7532043-13.1244049,12.8511658
		c0,5.2633667,3.2317657,9.7865906,7.8582001,11.7734375c-5.87677-1.4737549-10.2205963-6.6937561-10.2205963-12.9078674
		C71.1231079,8.4302368,77.215332,2.4652405,84.7302704,2.4652405L84.7302704,2.4652405z"/>
	<path class="st0" d="M257.3740845,80.6263733c0.1771545-0.0796509,0.3557434-0.1573181,0.5349121-0.2324219
		c3.8443298-1.6137695,7.9151917-1.8184509,11.7901001-0.2154541c0.6514282,0.2693176,1.2608948,0.6295776,1.8093872,1.0723267
		c1.0272522,0.8291626,1.7331238,1.8096924,2.1880798,2.8879395c2.156311-1.7580261,5.2046509-1.4892883,7.9143372-0.7415466
		c3.5784302,0.9873047,7.2169495,3.0265808,6.8850403,7.4035645c-0.2613831,3.8452148-2.5109253,9.2321472-3.9954224,12.7652588
		c-2.2396851,5.3302307-4.7253723,10.6123352-7.2810669,15.8314667c1.7467041,0.6497192,3.4883118,1.3127441,5.2256775,1.9800415
		c2.5684814,0.9867096,5.2029724,1.9941406,7.8298035,2.8153687c4.5111084,1.4107819,9.1593628,2.0168304,13.8818359,1.8872681
		c0.0527344-0.0016937,0.0978394-0.0022583,0.1505737-0.0022583c2.338562-0.002243,4.4733276,1.2730408,5.4370728,3.4613953
		c1.0006714,2.2719727,0.3733521,4.8503571-1.3217468,6.560791c-0.8883972,0.9099121-1.9845276,1.5511169-3.1371155,2.0692902
		c-2.8391724,1.3552399-5.9711914,2.0106049-9.0895996,2.2915192c-9.8449707,0.8875275-19.2548523-2.0658875-27.7525635-6.75383
		c-1.758606,2.0174255-3.7119751,3.8812103-5.8711243,5.3543701c-5.0830688,3.4679108-10.8405304,4.611969-16.8519745,3.283371
		c-5.1777649-1.1443481-9.7236938-3.9293823-11.4341125-9.1805725c-1.1639099-3.573349-0.7118225-7.2266235,0.7868652-10.6290894
		c1.8210144-4.1343079,5.2296448-6.8813934,9.45047-8.3690033c1.1352539-0.3999634,2.2977295-0.6942139,3.4772339-0.8962708
		c-1.5327148-0.5510559-2.8105774-1.4255676-3.7984009-2.5549011c-3.4336243,1.5820313-7.2133789,1.6534424-10.5125732-1.2219849
		c-1.9987183-1.7419128-3.4514771-3.7587891-4.364502-5.976593c-1.9471436,1.92276-4.1241455,3.6039429-6.5253906,5.0229797
		c-9.6015015,5.6741333-19.561615,5.8739624-29.2442017,1.8541565c-1.7753296,0.9932861-3.9361572,0.7874756-5.7826233-0.1111145
		c-0.5658569-0.2755127-1.1242371-0.573761-1.6786804-0.8713989c-1.9131165-1.0278015-3.0149536-2.9845581-2.9917297-5.0399475
		c-0.4396667-0.3330994-0.8733215-0.6735535-1.3013611-1.0205078c-1.4601135-1.1837463-2.1954346-2.8448486-2.090271-4.7216492
		c0.0819397-1.4578857,0.6534119-2.7294922,1.6463928-3.6994934c0.3588257-0.4875793,0.7097778-1.0669861,1.0241394-1.5596619
		c0.9697266-1.5198975,2.4420471-2.4213562,4.2369385-2.593689c0.208313-0.0201111,0.4143982-0.0297852,0.6176758-0.0289001
		c1.4224243-5.4955444,2.367218-11.103302,2.8712158-16.7739868c0.1893311-2.1325378,0.3744202-4.2695923,0.5167542-6.4060669
		c0.0365601-0.5499268,0.0918274-1.1839905,0.1156616-1.7923279c-0.7750244,0.1488037-1.5466003,0.3171997-2.313385,0.5028687
		c-0.8821106,0.2134399-1.6801147,0.2208252-2.5662231,0.0235291c-1.6783447-0.3739014-3.100769-1.4881897-3.8621826-3.0361938
		c-1.2290955-2.4984436-0.4552307-5.3894958,1.6534729-7.032196c0.207489-0.1615906,0.4240723-0.3089905,0.6465454-0.4487305
		c0.3217773-0.2021179,0.6542664-0.390625,0.9855957-0.5757141c0.0629578-0.0351563,0.1170959-0.0640564,0.1811523-0.0969543
		c1.1954041-0.6116638,2.4457397-1.1219482,3.7139587-1.5624084c4.4725037-1.6656494,9.2431946-2.4910889,13.9935303-2.8020935
		c9.0297546-0.5912781,17.1629028,2.3499146,24.298584,7.8423462c6.7141418,5.1681519,10.8172913,11.7700195,11.5888367,19.6103516
		c2.4125671-1.6582642,5.1386414-2.7824707,8.1743164-2.9244995
		C251.8122101,75.0608521,255.2115326,77.2191162,257.3740845,80.6263733L257.3740845,80.6263733z M208.9401703,67.0004883
		c0.180603,1.3407898-0.0331421,2.7453918-0.3027039,4.1493835c-0.4303589,2.2387695-1.000946,4.4858093-1.5698547,6.6934509
		c-1.8016968,6.9927673-4.231842,13.8684998-7.0078125,20.5579529c1.2375793,0.4501953,2.5231018,0.7679138,3.8565674,0.9201355
		c1.9969788,0.2284851,4.1575317,0.1230164,5.9002991-0.9833069c4.5762329-2.9055176,8.5149841-6.7623291,10.1009521-12.0730591
		c1.1965332-4.0062256,0.7713013-7.6552124-1.3265991-11.2762451
		C216.3559113,71.1308899,212.9945831,68.6219177,208.9401703,67.0004883L208.9401703,67.0004883z M254.0433502,127.813858
		c-0.9102173,0.0204163-2.0556946,0.1273041-2.6240234,0.4751129c-0.3614197,0.2210846-0.8240356,0.4875488-1.0598755,0.8625641
		c1.0879517-0.0816345,2.2858276-0.5969849,3.1453552-1.0420074
		C253.6870575,128.0151367,253.8665009,127.9164886,254.0433502,127.813858L254.0433502,127.813858z"/>
	<path class="st2" d="M256.1594543,84.521759c0.8912048-0.6066284,1.8652039-1.1021118,2.8465576-1.5142822
		c3.1450195-1.3201294,6.4352112-1.5227966,9.6096802-0.2097778c5.4522095,2.2558289,1.9051819,10.8998108,0.3588867,14.5845642
		c-0.9703064,2.3116455-1.936615,4.6652222-2.7521667,7.0367126c-0.1312561,0.3821106-0.3678894,1.0587463-0.5561218,1.7081299
		c0.2846069,0.0193176,0.5504761,0.0281067,0.7199707,0.0320435c0.7902832,0.0181274,1.8958435-0.0289001,2.7445068-0.3571777
		c1.1063843-3.2756958,2.1784363-6.5670166,3.1702881-9.878418c0.765625-2.5568848,1.5031738-5.1550903,2.0794678-7.762146
		c0.0643616-0.2919312,0.170105-0.5737,0.3141174-0.835907c1.2690735-2.3102417,4.1025696-1.7643127,6.1622009-1.1959534
		c2.1781616,0.6009216,5.0476685,1.6968384,4.8135071,4.4407349c-0.2185364,3.4313354-2.4525146,8.7307129-3.7831116,11.897583
		c-2.6228638,6.2427673-5.5879211,12.4197388-8.6042786,18.5051422c2.7272339,0.9842072,5.441925,2.0120239,8.1456604,3.0506592
		c2.6251221,1.0085754,5.3154907,2.0352478,8.0002136,2.8749084c4.809845,1.5037689,9.7704773,2.153183,14.8059387,2.0151367
		c0.0263062-0.0008545,0.0487061-0.0011292,0.0750732-0.0011292c2.8865662-0.0025482,4.0509949,3.2428284,2.0897217,5.2021332
		c-0.6343994,0.6516876-1.4816589,1.1143036-2.3062744,1.4828186c-2.5344849,1.2157593-5.3671265,1.7892151-8.1518555,2.0403595
		c-10.0445557,0.9053955-19.6461182-2.5112-28.160553-7.5778503c-1.9652405,2.5041199-4.2363586,4.9064789-6.8062134,6.6599884
		c-4.4374084,3.0271301-9.3946075,4.0167084-14.6426849,2.8567657c-4.1612549-0.9195557-7.9630737-3.0313721-9.3503418-7.2904205
		c-0.9454041-2.901825-0.5283813-5.8524323,0.6854248-8.6085358c1.5031738-3.4123535,4.3228149-5.6131744,7.7986755-6.8379974
		c6.1556702-2.1694031,13.3990936-0.7537537,19.4042816,1.2517395l0.359436,0.1199036
		c0.635498-1.4184265,1.1933594-2.8749084,1.6848755-4.3528748c-1.8887024,0.2783508-3.8440247,0.2749634-5.668396-0.2718506
		c-1.2730408-0.3817749-2.4267578-1.0267029-3.361908-1.9785767c-0.6629944-0.6749268-1.1613464-1.4465332-1.521637-2.2898254
		c-1.4408722,1.2458191-3.2315216,1.9528198-5.3926239,1.7294312c-2.95401-0.3052673-4.9269104-1.8413696-5.796875-4.1683655
		c-2.9386597,2.1095886-6.5244751,3.1751099-9.6204834,0.4767761c-3.1560974-2.7510071-4.6352234-6.2492371-4.5524597-10.1984558
		c-2.5684814,3.651001-5.7852478,6.6619873-9.6420288,8.9413452c-9.346405,5.5233154-18.9377441,5.3560181-28.2991333,0.9779053
		c-1.0595703,1.5117188-2.6965942,1.3127747-4.0453186,0.6565552c-0.5314941-0.2588501-1.0567627-0.5400391-1.5774841-0.8198242
		c-1.2537537-0.6734924-1.8107605-2.1449585-1.3175354-3.4798279l0.109375-0.2955933
		c-0.905365-0.6296082-1.7855225-1.2957764-2.6412659-1.9896545c-0.7302246-0.5918579-1.0979004-1.4224243-1.045166-2.3609619
		c0.0436707-0.7789917,0.3670654-1.4519348,0.9286499-1.9477234c0.4458923-0.5456848,0.9337463-1.3696899,1.3010864-1.9454041
		c0.4850159-0.7599487,1.2211914-1.2106934,2.1183472-1.296875c0.8735962-0.0838623,1.6630554,0.2001648,2.2767639,0.8184204
		c1.921051-6.5868835,3.1558228-13.3447266,3.7644348-20.191803c0.1995239-2.2452698,0.3954468-4.4960022,0.5397034-6.7456055
		c0.0470581-0.7316284,0.1516724-1.8048096,0.1167603-2.5916748c-0.1527405-0.517334-0.1595764-1.0831604,0.0105286-1.6355896
		c0.0941162-0.3058777,0.2355347-0.5845032,0.4141541-0.8305664c-2.0996704,0.2236328-4.1907959,0.6026611-6.2521057,1.1015625
		c-0.4413757,0.106842-0.8401794,0.1105347-1.2832336,0.0119019c-0.8407593-0.1874084-1.5534058-0.7446899-1.9349365-1.5205078
		c-0.6256104-1.2719421-0.213501-2.7147827,0.8520508-3.5447693c0.1318359-0.1026001,0.2704468-0.1955872,0.4119263-0.2842712
		c0.280304-0.1760254,0.571167-0.3401489,0.86026-0.5014954c0.0314636-0.0175476,0.0584412-0.0319824,0.0904541-0.0484619
		c1.0987244-0.5620728,2.2512512-1.0281372,3.3476868-1.405426c4.2293396-1.5845337,8.7588196-2.3595276,13.2536926-2.6540527
		c8.3386841-0.5459595,15.7975159,2.1903076,22.3843384,7.2604065c7.715332,5.9388123,11.619812,13.8135071,10.3937988,23.5782776
		c-0.0138855,0.1116638-0.0289001,0.2233887-0.0441895,0.3344727c0.3180542-0.373291,0.6477051-0.7392578,0.9881592-1.0981445
		c2.7322998-2.8788757,6.1874695-5.3518066,10.2866211-5.5437012
		C251.8705902,77.895752,254.6964874,80.6600952,256.1594543,84.521759L256.1594543,84.521759z M255.9887848,92.5256653
		c-0.4866943,1.6032715-0.9683228,3.2084961-1.4377441,4.8163452c-0.3231201,1.1069336-0.6902161,2.2818604-0.9388428,3.4066772
		c-0.1686401,0.763092-0.1465454,1.4765625,0.0734558,2.1809692c0.2516785-0.1992798,0.4909363-0.4144287,0.6219177-0.5374756
		c0.4620361-0.4334106,0.9985962-0.6851196,1.5984497-0.7508545c0.6930695-3.9506531,2.3672028-7.9982605,3.624649-10.8232727
		c-0.4915161,0.3021545-0.9586792,0.6479797-1.4039917,1.0307007
		C257.5115662,92.3771057,256.7416687,92.6058655,255.9887848,92.5256653L255.9887848,92.5256653z M200.0371246,62.2371521
		c2.3981323,0.836792,4.8965759,2.1118164,5.799408,4.1813965c0.6077271,1.2685242,0.2729492,2.8649902,0.0169983,4.1964111
		c-0.4189453,2.1803894-0.9768372,4.3713379-1.5307007,6.5211182c-1.9978638,7.7530212-4.7863159,15.3623657-7.9582825,22.7253723
		c2.2566528,1.1732178,4.6672668,1.9833984,7.2297668,2.2764893c2.6759338,0.3058472,5.4218445,0.0660095,7.7416992-1.4068298
		c5.1737976-3.2850647,9.5088501-7.6646423,11.2977905-13.6547546c1.4198608-4.7546082,0.8994141-9.2117615-1.590271-13.5087891
		c-2.7557983-4.7565613-7.0063782-7.7836914-12.1461487-9.6126099
		C206.0071869,62.9268494,203.0336456,62.3885498,200.0371246,62.2371521L200.0371246,62.2371521z M241.352066,100.1273193
		c0.4898682-0.2741394,0.9725952-0.6499939,1.2285767-0.865448c1.9094238-1.6055298,3.7156372-6.286377,4.8548584-9.7372742
		c-2.9446106,1.653717-4.7196655,6.1013184-5.628479,8.8957214
		C241.6987762,98.752533,241.4842072,99.4702454,241.352066,100.1273193L241.352066,100.1273193z M260.4275818,126.0288849
		c-1.7331238-0.6173706-3.5390625-0.9754028-5.4235382-1.0425873c-1.5525513-0.0555725-3.696106,0.047348-5.0643921,0.8847046
		c-1.5415039,0.9436646-2.6660156,2.1075592-2.562561,3.9977112c0.0680542,1.242691,0.3866577,1.8031006,1.6288452,2.0335693
		c1.9686279,0.3648071,4.0767517-0.3821106,5.8025208-1.2758789
		C256.9899597,129.496521,258.8446655,127.8838806,260.4275818,126.0288849L260.4275818,126.0288849z"/>
	<path class="st3" d="M185.5928802,60.4675293c-0.0648804-0.0144958,0.253418-0.2174377,0.9549866-0.6092224
		c0.8867188-0.4537964,1.9035034-0.878418,3.0506592-1.2744141c3.6153259-1.3544006,7.7635193-2.1809998,12.444397-2.4797668
		c7.2510071-0.4824219,14.0742798,1.7436218,20.4701233,6.677887c7.2470093,5.5671997,10.350708,12.5603027,9.3103638,20.9789429
		c-0.4880981,3.7547607-1.9065857,7.3893433-4.2559204,10.9040222c-2.4434509,3.6306152-5.4941406,6.5284424-9.1516418,8.6938477
		c-8.8460999,5.2236938-18.2318726,5.0805054-28.1582642-0.4294739c-0.2854309,0.5181885-0.6139526,1.2316895-0.9859009,2.1410522
		c0.0760193,0.1192932-0.5884399-0.1984558-1.9941711-0.9535828l0.8934937-2.4173889
		c-1.416748-0.8603516-2.8499756-1.8776855-4.2993164-3.0526733c0.1990051-0.1272583,0.7954102-0.9697266,1.7892456-2.5273743
		c1.1092224,1.1681519,2.2308655,2.20224,3.3650208,3.1025391c2.7277832-8.0115662,4.4707947-16.3604431,5.2284851-25.0466614
		c0.6219177-6.8359985,0.8061829-10.2990723,0.5524902-10.3892212c4.1686096,1.0918579,6.4890442,2.2713928,6.9607239,3.5381775
		c0.3010254,0.3399048-0.262207,3.2749023-1.6897278,8.804718c-1.9391479,7.5364685-4.8803711,15.7399292-8.8233948,24.6109619
		c3.4126587,2.1900024,6.9188232,3.4948425,10.5179749,3.9143372c3.7691956,0.4229431,6.9635925-0.1871033,9.5830994-1.8300171
		c6.5661621-4.1893616,10.7311096-9.268158,12.4945068-15.2368164c1.655426-5.4793701,1.0377808-10.7262573-1.8535767-15.7407532
		c-2.9239197-5.0221863-7.4732361-8.6428528-13.6488037-10.8620911
		C201.5930634,58.6028748,194.0083771,58.430542,185.5928802,60.4675293L185.5928802,60.4675293z M252.348526,86.2463074
		c-0.0215454,0.0978394-0.5700378,0.0278015-1.6457825-0.2097168c-1.3617554-0.3353577-2.6144104-0.3900452-3.7581787-0.1641235
		c-3.9563293,0.7321777-7.0673218,4.522644-9.3330994,11.3711548c-1.1471558,3.6436462-0.8518066,5.5550537,0.8864136,5.7339478
		c1.2999878,0.1505127,2.769165-0.4649048,4.4073181-1.8459167c2.2246399-1.867218,4.4189148-6.4584656,6.5826111-13.7741089
		l3.0211792,1.6417847c-1.8501892,6.0519714-2.9049683,9.6644287-3.1643372,10.8377075
		c-0.3600159,1.6296387-0.1754456,3.191803,0.553894,4.6859436c0.9033813,1.9434814,2.5200195,1.8218689,4.848938-0.3636475
		l0.163269,0.1898804c-1.36203,2.6044922-3.0783997,3.7976074-5.1494141,3.5790405
		c-2.5744019-0.261322-3.827301-1.7861328-3.7581787-4.5736694c0.0346069-1.3937988,0.3175049-2.7501831,0.8484192-4.0686035
		c-1.098999,1.5689697-2.3845215,2.9769287-3.8565369,4.2241821c-2.9117432,2.5013123-5.2715759,2.9710388-7.0800781,1.4091187
		c-2.9208069-2.5599365-4.0558167-5.853241-3.4055481-9.8798828c0.5683594-3.4976807,2.2770691-6.7435913,5.1264343-9.7375488
		c2.8097229-2.9684448,5.59729-4.5227051,8.3633728-4.6635437C249.1051178,80.5042114,251.221756,82.3736267,252.348526,86.2463074
		L252.348526,86.2463074z M254.2355194,88.6118469c0.7662354-1.3005371,2.2221222-2.3972778,4.3679657-3.2904358
		c2.6019287-1.099884,5.0782776-1.1681519,7.4287415-0.2041321c1.908844,0.7979736,1.5185242,4.4206543-1.1712646,10.868042
		c-2.9426575,6.9726563-4.1802673,10.869751-3.7119751,11.690918c0.3735962,0.6298523,1.5978699,0.9686279,3.6719666,1.0168152
		c2.2450562,0.0516052,3.9623108-0.3719177,5.1525879-1.2713318c2.8323364-8.3302002,4.723938-14.6463318,5.6749268-18.9484863
		c0.100647-0.4561157,1.0856628-0.4266357,2.9545288,0.0889893c1.8683472,0.515625,2.7814026,1.0250244,2.7385864,1.5281982
		c-0.2489014,3.9106445-4.7568359,14.6395264-13.5235596,32.1865387c2.7312012,0.9456329,6.4290161,2.309967,11.0942383,4.0929413
		c3.7162476,1.4368744,6.4397888,2.4145508,8.1708679,2.9341278c4.9833069,1.5800476,10.226593,2.2943726,15.7294617,2.14328
		c0.3078613-0.0002747,0.331665,0.1244507,0.071167,0.3744659c-0.2675781,0.2828827-0.7613831,0.5839233-1.4816895,0.9033966
		c-1.9901733,0.9615173-4.3950806,1.558197-7.2150269,1.7895203c-8.9344788,0.8282776-18.475647-2.0154419-28.6239624-8.5314178
		c-2.6276855,3.6923981-5.1896362,6.390686-7.6858215,8.0951538c-3.8236847,2.6073151-7.9682465,3.41745-12.4333344,2.4307098
		c-3.943573-0.8716583-6.3657837-2.671936-7.2669067-5.4005585c-0.6466064-2.0231018-0.4518433-4.219101,0.5844727-6.5880127
		c1.0905151-2.4596252,3.1393738-4.228714,6.146637-5.3072968c4.4441833-1.5474091,10.2988586-1.1250458,17.5643463,1.2670898
		l2.7215271,0.908783c1.7776184-3.4012604,3.2085571-7.3238678,4.2931213-11.7671661
		c-0.0216064,0.0974731-1.0420227,0.3846436-3.0617065,0.8614502c-2.3746338,0.5348511-4.3296814,0.5643616-5.8651733,0.0881348
		c-4.9722748-1.4751587-4.8750458-7.9486084,0.2927856-19.420166c1.6177673-3.6079407,1.2251282-5.079071-1.1780701-4.4138184
		c-1.7444458,0.4691467-3.3763428,1.3561096-4.895462,2.6611938
		C254.6309662,89.2972717,254.4495697,89.0353394,254.2355194,88.6118469L254.2355194,88.6118469z M246.9601593,123.1534271
		c-2.7640991,1.6795349-4.0686035,3.8695984-3.913269,6.5704346c0.1366577,2.6279907,1.4508057,4.183075,3.9424744,4.6655426
		c2.3028259,0.4064789,4.8441162-0.1085815,7.6229248-1.5457306c3.281662-1.7016449,6.1783905-4.4452972,8.6902008-8.2318115
		c-3.075592-1.7050476-6.3079834-2.624588-9.6968231-2.7584229
		C250.7203217,121.7627411,248.5050201,122.1958923,246.9601593,123.1534271L246.9601593,123.1534271z"/>
	<path class="st0" d="M150.3565826,71.579895c2.0927734-1.3201294,4.4325256-2.1217346,6.9615784-2.1945801
		c3.5858459-0.1029358,6.7609253,1.4031067,8.947876,4.2462769c2.8856506,3.7510986,3.5050049,7.8154297,2.3833618,11.678772
		c1.5003357,0.566925,2.8289185,1.5802917,3.834137,3.1118469c0.4563904,0.6953735,0.7205505,1.3731079,0.8549194,2.1940308
		c0.376709,2.2997437-0.2905884,4.6490784-1.1437988,6.76828c-1.7351074,4.3106079-4.9835815,7.3595886-9.3707886,8.8854675
		c-0.9688721,0.3370667-1.9275513,0.5759888-2.87146,0.7202759c-0.8781738,3.6473694-2.8771973,6.7669067-6.1633606,8.8908691
		c-2.7431335,1.7731018-5.848175,2.647583-9.1054688,2.1452637c-0.040802-0.0062256-0.0756836-0.0118713-0.1162109-0.0189819
		c-5.4380188-0.9547119-9.20578-5.0363159-11.8701172-9.7489319c-0.3313293,0.0541382-0.6737671,0.0799255-1.0255432,0.0768127
		c-0.9331665-0.0079346-1.7962952-0.2174072-2.5653381-0.6165466c-3.7823181,5.1633606-9.2503052,8.4529724-16.0713196,5.5553589
		c-1.9799805-0.8410339-3.6615295-2.1064148-5.0674896-3.6708679c-3.7819977,6.1370239-9.6885529,10.5516815-17.2646942,7.333252
		c-2.6869507-1.1415405-4.8237305-3.06427-6.4689636-5.4547119c-1.5522461-2.2546997-2.6226044-4.8237305-2.5593872-7.6031189
		c0.045639-1.9935608-0.2936707-4.4960022-0.5113831-6.4845276c-0.5144806-4.7034912-1.1451874-9.4047852-1.7926178-14.0915833
		c-0.5292358-3.8309937-1.0655365-7.6659851-1.6639252-11.4868164c-0.2060852-1.3152771-0.4118958-2.9950867-0.738739-4.3429871
		c-0.1385803-0.3078003-0.2514038-0.6321411-0.3356018-0.9708252c-0.6919403-2.7861938,0.7925568-5.617157,3.43927-6.647522
		c0.1017609-0.0397339,0.2052307-0.0768433,0.3101044-0.1108704c0.2931061-0.0952454,0.5930328-0.1660767,0.8968811-0.2128601
		c3.4015961-0.5411377,6.6790009,0.295929,9.6360931,2.0012207c1.6457977,0.9493408,2.6384888,2.4993286,2.8128204,4.3914795
		c0.4373932,4.7531128,0.8869629,9.5136108,1.3147125,14.275238c2.1719055-0.3945618,4.3925781-0.0513,6.4896393,0.8008118
		c0.1278381,0.0518494,0.2545471,0.1054382,0.3804016,0.1607056c-0.0694427-0.5070801-0.1391754-1.0136719-0.2091827-1.5202332
		c-0.5292358-3.830719-1.0655518-7.6657104-1.6639404-11.4865112c-0.2060852-1.3152771-0.4118805-2.994812-0.7387085-4.3429871
		c-0.1386261-0.3078308-0.2514343-0.6321106-0.3356323-0.9708862c-0.691925-2.7861633,0.7925873-5.6171265,3.4392853-6.647522
		c0.1017609-0.0396729,0.2052307-0.0768127,0.3101044-0.1107788c0.2931061-0.0952759,0.5930023-0.1661682,0.8968811-0.2129211
		c3.4015961-0.5411377,6.6789856,0.295929,9.6360779,2.0012817c1.6457825,0.9493103,2.6385193,2.4992981,2.8128662,4.3914185
		c0.4373779,4.7531433,0.8869629,9.5133362,1.3146973,14.2752991c2.1719055-0.3946228,4.3931274-0.0513306,6.4899292,0.8010559
		c0.4730835,0.1921692,0.9317322,0.4064941,1.3756409,0.6414795c-0.0668945-5.4153137,0.5213013-10.8521423,1.8170166-16.2901306
		c1.2608032-5.2914734,3.7034302-12.0435486,9.8449707-13.1224365c1.210144-0.212616,2.4395142-0.1607361,3.6323547,0.1289978
		c5.3276978,1.294281,8.0789795,5.9510193,9.3806458,10.9289246
		C150.8838043,63.3282471,150.7970734,67.608551,150.3565826,71.579895L150.3565826,71.579895z M144.6804352,99.0623474
		c0.5916138,1.8096008,1.3526917,3.5211792,2.3201904,4.6864929c0.0643616,0.0774231,0.1672058,0.1964417,0.2743835,0.3044739
		c0.2321777-0.1272583,0.4892578-0.30896,0.6264648-0.4116211c0.115387-0.0861816,0.2174377-0.2225342,0.3055725-0.3792725
		c-0.4425049-0.4030457-0.8727722-0.8353271-1.2894592-1.2968445
		C146.0858612,101.0448914,145.3366547,100.0768738,144.6804352,99.0623474L144.6804352,99.0623474z M14.0497904,95.434021
		c-0.0978088-0.1227722-0.1904907-0.2494812-0.2783661-0.3804626c-1.3359833,1.3549805-2.5545807,2.7904663-3.6317444,4.1712036
		c-0.9079437,1.1633606-2.0783539,1.8601074-3.5336757,2.1038818c-1.1996307,0.2007141-2.4332581,0.011322-3.517792-0.5414124
		c-2.8346405-1.4445496-3.6623688-4.5173035-2.7107544-7.2204285c0.1459656-0.4146729,0.3168945-0.8246155,0.4889679-1.229126
		c0.5652161-1.331665,1.2483673-2.6152344,2.002655-3.8491211c0.0218353-0.0357056,0.0405426-0.0654907,0.0629425-0.100647
		c2.7311709-4.2641602,6.4009094-7.7771606,10.5321198-10.672699c4.9552469-3.4733276,10.5874186-5.6208496,16.6938019-5.4935608
		c5.1383648,0.1074524,9.8177929,1.7637024,13.751997,5.0983887c3.7009125,3.1365662,6.1120605,7.1696777,6.7342682,12.0010376
		c0.1876526,1.4558716,0.1896362,2.8803101,0.0189819,4.2615967c0.9603882,0.1731873,1.9145203,0.4101563,2.8590393,0.7154846
		c4.4639893,1.4428406,8.0540771,4.2012024,10.5222168,8.1960754c2.6220398,4.2443237,3.8006744,8.9628906,3.1980286,13.9252319
		c-0.596405,4.9109955-2.783905,9.1689148-6.2773132,12.6634674c-7.7808228,7.783371-18.2315979,9.218277-28.5511322,7.8080292
		c-1.7594585,1.4057007-4.3758373,1.1500244-6.5947857,0.8985901c-2.1917419-0.2485962-3.9619904-1.6970978-4.6822815-3.6609497
		c-1.1412048-0.6655579-1.9842377-1.7010651-2.4411926-3.0225677c-0.3951569-1.1420898-0.431427-2.2943726-0.1201782-3.3791809
		c0.0067902-0.1567688,0.0090485-0.315506,0.0124664-0.4637756c0.0359955-1.5607605,0.6278687-2.9052277,1.7421722-3.9614105
		c-0.3296661-3.5002136-0.8305511-6.9822998-1.5176697-10.4298096c-0.8756104,0.0326538-1.7518158,0.0527344-2.6282959,0.0604248
		c-2.29918,0.0200806-4.276063-1.2455444-5.2194223-3.3423462c-0.6916351-1.5366821-0.6811676-3.1923523-0.0201416-4.6397705
		c0.1383514-0.555542,0.2389679-1.1831665,0.3378906-1.7211914c0.2939758-1.6004333,1.1443481-2.8683472,2.5137787-3.7473755
		c0.4390717-0.2817993,0.892334-0.4983215,1.3574982-0.6494446c-0.0410919-0.1357727-0.082489-0.2712708-0.1241455-0.4064941
		C14.7649698,97.563385,14.4287729,96.3589172,14.0497904,95.434021L14.0497904,95.434021z M33.056366,95.3483887
		c0.0198364-0.0246887,0.0393982-0.0495911,0.05896-0.0745544c0.4614868-0.587616,0.0907288-1.5230713-0.1485443-2.1260071
		c-0.2715454-0.6836853-0.6173706-1.2727051-1.0366039-1.7857971C32.3944702,92.5420837,32.7612762,93.9188538,33.056366,95.3483887
		L33.056366,95.3483887z M34.9272308,122.3730469c3.8902588-0.1255646,8.0657043-0.82547,10.6166077-2.9590759
		c1.7274475-1.4453735,2.1203308-2.7504883,1.4527588-4.9030762c-0.7922974-2.5543213-2.3822327-3.9597168-4.8959961-4.8084106
		c-2.6217804-0.8852539-5.0561523-0.4430542-7.3343811,0.6820068
		C34.9819336,114.3764954,35.0324097,118.3767853,34.9272308,122.3730469L34.9272308,122.3730469z"/>
	<path class="st2" d="M151.6040497,102.3502502c-0.9093018-0.6228027-1.7721863-1.3872681-2.5828857-2.284729
		c-2.534729-2.8057556-4.1941833-6.0959167-4.5575867-9.8787537c-0.5912476-6.1560059,1.3036804-11.508667,6.215271-15.3682861
		c1.9553528-1.5364075,4.211731-2.5273743,6.7209473-2.5996704c2.6784363-0.0768433,4.9858704,1.017334,6.6194458,3.1410828
		c3.1186829,4.0540771,2.89505,8.3740845,0.5170593,12.2748413c2.1696167-0.2488708,4.2627258,0.3399048,5.577179,2.3425598
		c0.2281494,0.3478088,0.3602905,0.6868286,0.4274292,1.0973206c0.2823792,1.7229004-0.3378906,3.6665955-0.9756775,5.2514648
		c-1.4294739,3.5509644-4.0592041,6.0097046-7.6725159,7.2666016c-1.5023499,0.5227051-2.9571228,0.7579956-4.3514404,0.7253723
		c-0.0003357,0.0014038-0.0003357,0.0025635-0.0005798,0.0039978c-0.4093323,3.8006592-2.0369873,7.0758362-5.2903137,9.1785583
		c-2.1546021,1.392395-4.5700378,2.119751-7.1348267,1.7243347c-0.0203857-0.0031128-0.0376587-0.0059509-0.058075-0.0096436
		c-5.3248901-0.9345703-8.8228149-5.8314209-11.1365051-10.7626038c-0.0030823,0.003418-0.0059204,0.0071106-0.0087891,0.0104675
		c-0.5623779,0.6862793-1.3291626,1.0451355-2.2163696,1.0377808c-0.8872375-0.0076294-1.6478271-0.3795776-2.1985779-1.0751953
		l-0.6397705-0.8081055c-0.098053-0.1239014-0.184845-0.2528687-0.2599182-0.3855286
		c-2.0383911,3.7590027-5.0978394,7.6552429-9.6108704,8.1903992c-1.669342,0.1978455-3.3035278-0.1034546-4.8432922-0.7573853
		c-2.1871948-0.9291992-3.9050293-2.5098267-5.2426605-4.4532471c-0.524704-0.7625122-0.9924011-1.5755005-1.3492889-2.4292908
		c-0.2633667,0.7902832-0.5638275,1.57547-0.895462,2.3527832c-0.0292206,0.068573-0.0561371,0.125824-0.0901489,0.1916199
		c-2.0341492,3.9248047-5.1709747,8.1960754-9.9121857,8.7579041c-1.6690369,0.1978455-3.302948-0.1034851-4.8424377-0.7574158
		c-2.1872101-0.9291992-3.9047241-2.5098267-5.2424011-4.4529419c-1.2047119-1.7501526-2.1098175-3.7669678-2.0602112-5.9312134
		c0.0181427-0.8047485-0.0470581-1.6585693-0.1071472-2.4610291c-0.1099854-1.4669495-0.260498-2.9341736-0.4203796-4.3965454
		c-0.517334-4.7298889-1.1514282-9.4577942-1.8025513-14.1709595c-0.5465393-3.957428-1.099823-7.9205627-1.7231903-11.8666687
		c-0.1774445-1.1228027-0.3594208-2.2481995-0.5688934-3.3655701c-0.0666351-0.3554993-0.1386261-0.8011169-0.2366943-1.1803894
		c-0.115387-0.2105713-0.2058105-0.4396362-0.2664642-0.6834106c-0.3577423-1.4397278,0.4472961-2.9035034,1.8546906-3.3726807
		c0.1576233-0.0523987,0.3197632-0.0910034,0.4836121-0.1153564c2.7538452-0.4387817,5.3883667,0.2792358,7.7765503,1.6568604
		c0.8231812,0.4745178,1.3195343,1.2495117,1.4065552,2.1957092c0.5519104,5.9964294,1.1231079,12.0050354,1.6452332,18.0130615
		c0.4867249-0.29599,1.0111084-0.5606995,1.574646-0.7920227c2.0860291-0.8557739,4.2910767-0.6114502,6.340271,0.2210693
		c2.0772095,0.8438721,3.798111,2.200592,5.1578979,3.9625549c-0.3512115-2.7818909-0.7285004-5.5612793-1.1117554-8.3357849
		c-0.5465088-3.9574585-1.0998383-7.9203186-1.723175-11.8664246c-0.1774445-1.1228333-0.359436-2.2481384-0.5689087-3.3656006
		c-0.0666199-0.3554382-0.1386261-0.8010254-0.2366943-1.1802979c-0.1153717-0.2106628-0.2057953-0.4396973-0.266449-0.6834412
		c-0.3577271-1.4397583,0.4472961-2.9035645,1.8547058-3.3726501c0.1575928-0.0524902,0.3197479-0.0910034,0.4835815-0.1154175
		c2.7538757-0.4387817,5.3883972,0.2792358,7.7765503,1.6568604c0.8232117,0.4745178,1.3195343,1.2495117,1.4065857,2.1957092
		c0.5518799,5.9964294,1.1230774,12.0050049,1.6452332,18.0130615c0.4866943-0.2959595,1.0111084-0.5606689,1.574646-0.7919922
		c2.0859985-0.8558044,4.2913208-0.6114502,6.3402405,0.2213745c2.2223511,0.9031067,4.0376587,2.3933105,5.4385681,4.3389587
		c0.0935364,0.1301575,0.1847839,0.2605286,0.2732544,0.39151c-0.8591919-7.4069214-0.4759827-14.8725281,1.3053284-22.3480835
		c0.9498901-3.9858093,2.8499451-10.1567993,7.5781555-10.9876709c0.8251648-0.1448059,1.6599426-0.1057129,2.4729309,0.0918884
		c4.23526,1.0289612,6.286377,4.9878235,7.3071594,8.8911133c1.1168518,4.2718506,0.6355286,9.586792-0.0322876,13.9005432
		c-0.0087891,0.0566711-0.0176086,0.1046143-0.02948,0.1607056c-1.3881836,6.4700928-3.3355408,14.2070007-6.4664001,20.1988831
		c0.6887817,3.6051025,1.9204712,8.2422791,4.1751099,10.9581604c1.5882874,1.9130859,2.8321228,1.8082275,4.7789307,0.3529053
		c0.9130554-0.682312,1.4060059-1.7501221,1.6965637-2.8244324
		C151.367691,102.8191223,151.4708405,102.5733337,151.6040497,102.3502502L151.6040497,102.3502502z M130.8473969,96.2347717
		c-0.1091309,0.6907959-0.253418,1.3815918-0.4291687,2.0707092c0.2341309-0.4005432,0.4685364-0.8336487,0.6769104-1.2290955
		C131.0109711,96.7960205,130.9282074,96.5154114,130.8473969,96.2347717L130.8473969,96.2347717z M157.332901,94.3474731
		c0.4401855,0.7041321,1.0680847,1.2880859,1.8853149,1.7909241c0.1530762,0.0941162,0.5340271,0.3035889,0.7296143,0.2774963
		c0.5984192-0.0796204,1.4516296-1.559021,1.8910217-2.4210205c-0.0601196-0.2848816-0.1610107-0.6108704-0.2267456-0.8280334
		c-0.0048218-0.0164185-0.0091248-0.030304-0.0136108-0.0467834l-0.4169922-1.4714661
		c-0.9071045,0.8251953-1.8858948,1.5548096-2.9256592,2.1668396
		C157.9607697,93.99823,157.6520844,94.1788025,157.332901,94.3474731L157.332901,94.3474731z M16.496645,93.9299011
		c-0.4266052-0.420929-0.7239695-0.9804993-0.8149576-1.6188049c-0.216568-1.5160217,0.8189402-2.9316406,2.3176126-3.1929932
		c0.0478973-0.0084839,0.0960846-0.0155945,0.1445618-0.0217896c0.0087891-0.0011292,0.0175781-0.0022888,0.0263672-0.0031433
		c2.9922638-0.3710327,7.9338989-0.861145,10.1882935,1.6103516c1.0930328,1.1982422,1.5601807,3.4911804,1.8615112,5.0487976
		c0.321167,1.6602478,0.5723267,3.3556824,0.787735,5.0524902c1.6679058-0.9195862,3.096571-2.200531,4.337019-3.780304
		c1.1891327-1.5142517,0.9269257-3.2343445,0.2568207-4.9223328c-0.9810791-2.4715271-2.7133484-4.1462402-5.0893383-5.2922974
		c-3.0563049-1.4734802-6.1656342-1.3711243-9.3293762-0.2293091c-5.3319559,1.924408-9.8648539,6.5259094-13.2780609,10.9003296
		c-0.4538269,0.5816345-1.0391693,0.9300232-1.7668304,1.0519409c-0.6012268,0.1006165-1.219162,0.0059509-1.7625885-0.2709961
		c-1.5159609-0.7727051-1.8161471-2.3558655-1.3240511-3.7536316c0.1261444-0.3580017,0.2758026-0.713501,0.424057-1.0627136
		c0.5110931-1.2033081,1.1307375-2.3635254,1.8122103-3.4784241c0.0107422-0.0178223,0.0203857-0.0328369,0.0314636-0.0501709
		c2.5299072-3.9500427,5.9465175-7.1990967,9.7721405-9.8806763c4.4572001-3.124115,9.5096598-5.0952759,15.0074625-4.9804688
		c4.4869671,0.093811,8.5413647,1.5133972,11.9786358,4.4265442c3.1595001,2.6781921,5.2239838,6.0726929,5.7554779,10.2007751
		c0.2894287,2.2470398,0.0521545,4.3860474-0.6443176,6.3773804c1.8405457,0.0601196,3.670578,0.3560181,5.4620819,0.9351501
		c3.8236542,1.2356262,6.8680573,3.5662537,8.982132,6.9885254c2.2855835,3.6994934,3.3213806,7.7672424,2.7958374,12.0937195
		c-0.5198975,4.2814484-2.4230804,7.9551544-5.4680634,11.0009766c-7.5234222,7.526001-17.8780975,8.4169312-27.8214703,6.7521362
		c-0.9464722,1.7988739-3.3632965,1.3274689-5.0005951,1.1417999c-1.4133606-0.1601563-2.476059-1.3183899-2.514328-2.7402496
		l-0.0042572-0.1536407l-0.3568878-0.1037445c-0.9116058-0.2647552-1.5780487-0.8983002-1.8884125-1.7954559
		c-0.2219696-0.6417694-0.2174377-1.2897797,0.0056458-1.8892975c0.034317-0.3075562,0.0354309-0.6774597,0.0419769-0.9623718
		c0.0189667-0.8328247,0.3548889-1.5426025,0.9870148-2.085434c0.2746582-0.2358398,0.5720215-0.4116058,0.888382-0.526123
		c-0.392334-4.9784698-1.1174316-9.9255219-2.2138672-14.7979584c-1.6392822,0.1054382-3.2813873,0.164978-4.9243317,0.1794128
		c-1.1494761,0.0099182-2.1379099-0.6230774-2.6096048-1.6712952c-0.3701935-0.8226013-0.3381653-1.713562,0.0649261-2.4715576
		c0.1998444-0.65448,0.3381653-1.5720825,0.4558105-2.2141418c0.14711-0.8001709,0.5723267-1.4340515,1.2571716-1.8736877
		c0.684556-0.4393616,1.4380045-0.5620728,2.2268839-0.3622437c0.4722595,0.1196289,0.9490356,0.2321167,1.4292297,0.335022
		c-0.4339752-1.5457153-0.8829803-3.0872192-1.3583527-4.6165161C17.3683033,96.3974915,16.9243946,94.8333435,16.496645,93.9299011
		L16.496645,93.9299011z M31.9891376,125.2074127c5.2299023,0.1607208,11.5233898-0.398819,15.3733959-3.619278
		c2.6070404-2.1809845,3.3488464-4.6689758,2.3414307-7.9168701c-1.0638428-3.4299011-3.3173981-5.5133972-6.6965637-6.6546326
		c-4.0291748-1.3603516-7.7530518-0.3676147-11.1770153,1.7705078
		C32.193512,114.2518005,32.2377167,119.7362671,31.9891376,125.2074127L31.9891376,125.2074127z M96.078186,107.3825684
		c0.2866058-0.2967834,0.6428986-0.9771118,0.7744293-1.2511902c0.7937012-1.6565857,1.2276917-3.5489502,1.4655151-5.36203
		c0.2097778-1.5995789,0.7367249-6.9369202-0.8798676-8.2122192c-0.2970734-0.1324158-0.7364502-0.2882996-1.0012054-0.2145996
		c-0.4521179,0.1261292-0.9626465,1.0252991-1.1488647,1.3960876c-0.9218445,1.8337402-1.3130188,3.7712097-1.2024689,5.8223267
		c0.1065826,1.9842529,0.3384552,4.4424744,1.0417175,6.3158875c0.1201935,0.3200378,0.5743103,1.3722229,0.9473419,1.504364
		C96.0759277,107.3817444,96.0770569,107.3820496,96.078186,107.3825684L96.078186,107.3825684z M118.4106598,103.7202454
		c0.2865906-0.2962341,0.6428833-0.9771118,0.7744446-1.2512207c0.7934265-1.656311,1.2276917-3.5486755,1.4655151-5.3619995
		c0.2097778-1.5999146,0.7366943-6.9372559-0.8801575-8.2122803c-0.2970886-0.1323547-0.736145-0.288269-1.000946-0.2145996
		c-0.4518433,0.1258545-0.962616,1.0252991-1.1488647,1.3960571c-0.9218445,1.8337402-1.3129883,3.7712402-1.2024536,5.8223877
		c0.1065674,1.9842529,0.3384705,4.4424438,1.0417175,6.3158569c0.1199341,0.3200378,0.5743103,1.3722839,0.947052,1.5046692
		C118.4081268,103.7193909,118.4092255,103.7199707,118.4106598,103.7202454L118.4106598,103.7202454z"/>
	<path class="st3" d="M151.8232269,92.2022095c0.2675781,2.6620178,1.5873718,4.7290344,3.9597168,6.2002563
		c2.7064819,1.6534119,5.0144348,0.3614197,6.9241638-3.8752747c0.1490784-0.3291321,0.0385437-1.1057739-0.3313904-2.3303528
		l-0.4810486-1.6970825c1.8776855-0.5105286,3.1776733-0.2165833,3.8991089,0.8826599
		c0.1348877,0.8237915-0.1343689,2.0684814-0.8081665,3.7349243c-1.1046753,2.7519226-3.0960083,4.6343994-5.9740295,5.6477661
		c-3.745697,1.2906494-7.0248108,0.3739014-9.8370972-2.7501831c-2.2711182-2.5027161-3.550354-5.2525635-3.8392334-8.2493896
		c-0.5235291-5.4614868,1.1916809-9.750885,5.1451721-12.8684082c1.6494751-1.2852173,3.3330078-1.9502563,5.0507507-1.9950256
		c1.7835693-0.0558472,3.2142334,0.6227722,4.2913818,2.0357971c2.6195374,3.3925171,2.300354,7.0134888-0.958374,10.8626709
		c-1.1888428,1.4125366-2.5390015,2.564209-4.050415,3.4545898
		C153.4012604,92.1296692,152.4043121,92.4454041,151.8232269,92.2022095L151.8232269,92.2022095z M151.4407806,90.4892273
		c1.9925232-0.2253113,3.9030457-2.5001221,5.7302551-6.8252258c0.811554-1.8581238,1.1367188-3.3826294,0.9748535-4.5737
		c-0.1553345-1.3615112-0.9464722-2.0602722-2.3731689-2.0970764c-1.9040527-0.0595398-3.2844849,2.2467041-4.1417236,6.9199524
		c-0.3336182,1.6781006-0.4997253,3.2445068-0.4980469,4.6983948
		C151.0963898,90.0385437,151.1989899,90.6641235,151.4407806,90.4892273L151.4407806,90.4892273z M134.5460663,79.6625671
		c-0.0045776,3.890564,0.2134399,7.4908447,0.6550598,10.8008728c1.1494141-3.0974426,1.9187927-5.726532,2.3088074-7.8876648
		c0.9187317-5.1227722,1.5108948-10.2767334,1.7767639-15.4615784c0.0680542-2.886261-0.2857056-5.1451721-1.0604553-6.7770691
		c-0.3112488-0.6593323-0.6145325-1.0658264-0.9104919-1.2206116c-0.3345032-0.1817017-0.5870361-0.0728455-0.7582397,0.3273926
		C135.2521515,61.3831177,134.5814972,68.1224365,134.5460663,79.6625671L134.5460663,79.6625671z M129.1301727,101.7079468
		c0.5048218-0.0153198,1.5267334-1.5188293,3.0653687-4.5110779c-3.7119751-11.7033997-4.2363892-23.1514282-1.5734863-34.3442993
		c1.5646973-6.54776,3.7726135-9.4804688,6.6242371-8.7984619c2.467865,0.610321,4.212616,2.8947754,5.2338867,6.8538818
		c0.793457,2.981781,0.7631226,7.2317505-0.0909424,12.7496948c-1.9553833,9.1151123-4.1760254,15.8890381-6.6625977,20.3218689
		c1.076355,6.1486206,2.730072,10.5621643,4.9620667,13.2403259c2.4888,3.0081177,5.3744812,3.2791138,8.6570129,0.8126831
		c1.297699-0.9569702,2.2093201-2.4085999,2.7357178-4.3551331l0.6911011,0.1907654
		c-0.3486633,3.2365723-1.6857605,5.6038208-4.0107422,7.1013794c-1.7424622,1.1312561-3.4639587,1.5658569-5.1641541,1.3036499
		c-4.2837524-0.7520752-7.901886-5.2832336-10.8544312-13.5929871c-1.2775574,1.6976624-2.2685547,2.9760742-2.9732666,3.8358459
		L129.1301727,101.7079468L129.1301727,101.7079468z"/>
	<path class="st2" d="M70.026947,92.4460144c-0.2650452,0.7843018-0.3469391,2.7351074-0.3795624,3.4979248
		c-0.086731,2.0086365-0.0793457,4.04422-0.0345764,6.0689697c0.9328918-4.649353,1.7994385-9.3067017,2.8000641-13.9455872
		c0.262207-1.2157593,1.2316589-2.087738,2.4681244-2.2206421l2.6923523-0.2891541
		c0.0181427-0.0020142,0.033432-0.003418,0.0516052-0.005127c2.0565186-0.1828308,4.7956543-0.1938782,5.5533447,2.2615051
		c0.1394653,0.4518433,0.1714935,0.9300232,0.0966492,1.396637c-0.0107727,0.0671387-0.02211,0.1241455-0.0374146,0.1901855
		c-0.8540955,3.6873169-1.3036499,7.456543-1.4490662,11.2362366c-0.0371399,0.9589844-0.0756836,4.2888489,0.4090271,5.8592224
		c0.0102234-0.027771,0.0192871-0.0529785,0.0272064-0.0751038c0.4334259-1.2245483,1.5927887-1.9797058,2.8882294-1.8807678
		c1.2951508,0.098938,2.3266754,1.0213013,2.5687561,2.2977295c0.6335449,3.3352661-0.0674591,6.7382813-3.5021973,8.1178894
		c-3.4571228,1.3889465-6.690033,0.792572-9.0048218-1.8490295c-0.2673035,0.4367676-0.5510559,0.8639832-0.8520813,1.2800903
		c-1.6804047,2.3218384-4.1034546,4.6409149-7.1943359,4.4393463c-2.2254944-0.1451416-3.9560394-1.5397797-5.2477722-3.2578278
		c-2.0188293-2.6841431-2.3451233-9.8081665-2.5029907-13.0705872c-0.1216125-2.5075073-0.2188568-5.0955505-0.0955505-7.6039429
		c0.0754089-1.5372009,0.2324524-3.59375,1.1539917-4.8772888c0.3101196-0.431427,0.6769104-0.7287903,1.1636353-0.9421997
		c2.28302-1.0020752,5.4308777-2.0837708,7.6926575-0.4589844c0.6488342,0.4660339,1.0368958,1.1049805,1.1514282,1.8955383
		C70.5457001,91.2157288,70.4053802,91.8659973,70.026947,92.4460144L70.026947,92.4460144z"/>
	<path class="st3" d="M67.1132355,90.4676819c-0.7821045,1.0074158-1.0437317,5.599884-0.7849274,13.7767029
		c0.1281128,3.4627991,0.4759369,5.7905579,1.0434418,6.9825745c2.5404053,5.2304688,3.8516998-7.0880432,7.2870178-23.0116577
		l2.6923523-0.2891846c1.7999878-0.1601257,2.6668243-0.0314331,2.5999298,0.3852539
		c-0.8713684,3.762146-1.3779144,7.6841431-1.5202332,11.7666016c-0.2758026,6.7762451,1.0250092,9.8609314,3.9019012,9.2537537
		c0.8512421-0.1734924,1.5310059-0.9785461,2.0392456-2.414856c0.4983215,2.6246033-0.0932617,4.2771606-1.7742004,4.9588928
		c-2.7300415,1.0902405-4.8605804,0.475708-6.3907166-1.8439026c-0.8526764-1.2807312-1.4357452-2.8763428-1.7489624-4.7866211
		c0.2519836,0.0938416,0.0663147,0.9190369-0.558136,2.4758301c-0.6352692,1.6939392-1.4351807,3.2119446-2.3986816,4.5541077
		c-2.8692322,3.9540405-5.4958191,4.3341675-7.8803253,1.1398315c-0.9898682-1.2922974-1.6356049-5.12677-1.9372101-11.5041199
		c-0.3078308-6.2067566-0.1309509-9.7704468,0.5298004-10.6905823
		C64.6745605,90.1402893,66.3079071,89.8891296,67.1132355,90.4676819L67.1132355,90.4676819z"/>
	<path class="st3" d="M27.0540028,127.7328033c9.282896,0.7097931,16.0083904-0.6638794,20.1773052-4.1207275
		c3.4755554-2.9378357,4.5521393-6.5814667,3.230072-10.930954c-1.3337097-4.2122803-4.165802-7.0455322-8.4971466-8.5002441
		c-4.9067688-1.6645508-9.9167175-0.6568298-15.0295696,3.0228271
		C27.4604816,113.9161682,27.500185,120.7592926,27.0540028,127.7328033L27.0540028,127.7328033z M3.7200482,95.5867615
		c-0.06604,0.0110474,0.0725708-0.3838196,0.4147189-1.1837158c0.4141388-0.9813843,0.9547119-2.0171509,1.6214142-3.107666
		c2.1543274-3.3635559,5.1582026-6.3929138,9.0121918-9.0881042c4.3979502-3.0889587,8.8381357-4.5782776,13.3211222-4.4676819
		c3.9342175,0.0651855,7.3360729,1.3166809,10.2050152,3.7550354c2.748764,2.3229675,4.3409729,5.1227722,4.776947,8.4002075
		c0.4300232,3.4471741-0.5986633,6.558197-3.0863647,9.334198c3.5963135-0.7591248,6.8774109-0.6542358,9.8438721,0.3134766
		c3.2127838,1.0292664,5.6933899,2.9559937,7.4423828,5.78125c2.0270386,3.2868042,2.824707,6.7073364,2.3932648,10.2620239
		c-0.4319916,3.5549164-1.9848175,6.6676483-4.6587372,9.3387299c-6.3048248,6.3104858-15.6820984,8.118988-28.1313,5.4252319
		l-0.1613007,1.8022614c0.1148071,0.082489-0.6199341,0.0337372-2.2056427-0.1459808l-0.0597992-2.2223663l-2.3442535-0.6808777
		c0.1099854-0.1533508,0.1774445-0.7735596,0.2023926-1.8598328l2.0735474,0.2684479
		c-0.3707733-7.2110443-1.3872833-14.1306915-3.0492249-20.7583771c-2.365509,0.2191162-4.7474823,0.3390198-7.1455698,0.3599854
		c0.1431427-0.1587219,0.3846588-1.1625061,0.7239685-3.0104065c2.1883402,0.5541992,4.1873331,0.8858643,5.9978342,0.9949951
		c-2.4185333-8.9727783-3.8746948-13.4186401-4.3687744-13.337616c4.276062-0.5320435,6.8683472-0.2976074,7.7765656,0.7036133
		c0.7823792,0.852356,1.5650177,4.9013672,2.3473663,12.1470337c3.5413208-0.8853149,6.5290508-2.8805847,8.9625988-5.9856873
		c1.6517334-2.0973206,1.8722687-4.6703186,0.6618805-7.7190247c-1.2101135-3.0489502-3.3743591-5.3149414-6.4927502-6.7994385
		c-3.5294189-1.7211914-7.3703613-1.8351746-11.5228424-0.3424683C13.3215799,85.5561218,8.4717875,89.4973755,3.7200482,95.5867615
		L3.7200482,95.5867615z"/>
	<path class="st2" d="M46.8820648,134.7961731c0.9331665-0.652832,1.7869568-1.3481598,2.6971588-2.0350037
		c1.623703-1.2248383,3.2899017-2.0562439,5.1531219-2.8612823c10.2565918-4.4308624,21.6782227-7.406662,32.601532-9.6613159
		c12.9390411-2.6710968,26.1524658-4.4611969,39.3080444-5.6423798c10.9465332-0.9827576,21.9591064-1.5428772,32.9498901-1.6247864
		c9.8382263-0.0734253,19.7705383,0.2185059,29.5656433,1.1740723c9.0167542,0.8795776,30.6481934,3.3809204,35.6261292,12.3148346
		c0.429718,0.7713318,1.7591858,3.0719147,2.7374268,4.1901855c0.1235962-0.0204163,0.25-0.0331573,0.3789978-0.0379791
		c1.1199646-0.0419617,2.1010132,0.5280914,2.6194763,1.521347c0.2661743,0.5105286,0.4694214,1.113739,0.5547485,1.6806641
		c0.1179199,0.783783,0.0240784,1.5817413-0.3387451,2.2935028c-1.1840515,2.3224335-3.7743225,2.1234436-5.835968,1.3527069
		c-2.7980652-1.0462646-5.9266663-3.1036682-8.3995972-4.7573853c-10.467804-7.0001526-24.5463562-9.6375275-36.9011841-10.5615997
		c-15.7818604-1.1806335-32.2236633,0.0779572-47.8723145,2.2645874c-19.084549,2.6671295-38.2620544,6.918808-56.775116,12.2640991
		c-7.1288605,2.0585175-14.2460938,4.3012848-21.2178955,6.8436737c-2.5591125,0.9331665-5.1097412,1.910553-7.6181183,2.972702
		c-1.7138214,0.7253876-3.4616547,1.499527-5.0975494,2.3887482c-2.0973511,1.1398163-5.0935669,2.1866455-6.9584808,0.0062408
		c-1.738205-2.0315857-0.5694733-4.746048,0.7353058-6.6276855c1.474884-2.1268311,3.5821533-4.0427704,5.672699-5.5485382
		C41.9188843,135.6967316,45.1450043,135.351181,46.8820648,134.7961731L46.8820648,134.7961731z"/>
	<path class="st3" d="M55.8565521,132.5020905c-4.4628601,1.9272766-4.4047546,2.6192017-7.6436157,4.8194733
		c-0.5170441,0.3143463-5.698761,1.3098907-6.0874023,1.6766815c-6.7362518,4.8721924-8.3885651,10.6080933-2.4616089,7.386795
		c19.475708-10.5862579,134.6162109-45.3245239,178.4117432-16.0381317
		c12.7808533,8.5470123,9.9306335,3.0982666,9.9306335,3.0982666s-1.1231079,2.6084442-5.6990662-5.6054993
		C212.3505096,109.9706116,102.4686127,112.3644714,55.8565521,132.5020905L55.8565521,132.5020905z"/>
	<path class="st3" d="M111.6375885,95.9006042c0.4093018,7.2390747,2.1503601,10.7418823,5.223938,10.5083008
		c1.0706787-0.0742493,2.0469055-1.0289917,2.9299011-2.8652954c0.8053284-1.6877136,1.3787842-3.7607117,1.7197876-6.2180786
		c0.7562561-5.907959,0.0002747-9.5892944-2.2677307-11.0437317c-2.6143799-1.2965698-4.6494141-0.506012-6.1055603,2.3711548
		C112.0182648,90.8999634,111.5182343,93.3156433,111.6375885,95.9006042L111.6375885,95.9006042z M102.5167999,61.3226929
		c1.910553-0.3132019,3.8930969,0.1224976,5.9476624,1.3076477c1.2543182,13.6286926,2.0432281,22.5640564,2.3666382,26.8069458
		c0.2511597-3.6266174,1.835144-6.0343933,4.7520142-7.2229614c1.2027588-0.5017395,2.6018982-0.4268494,4.196991,0.2247925
		c1.6664429,0.6737976,3.0684814,1.7969055,4.2054749,3.3692932c2.9363708,4.0846863,3.0849304,9.2185364,0.4458923,15.4017639
		c-3.2374573,6.2469482-6.9471436,8.4789734-11.1296844,6.6956787c-1.5621643-0.6570435-2.9009705-1.807373-4.0158386-3.4511719
		c-1.0604553-1.5170898-1.5808868-2.9369507-1.5610504-4.2593384c0.0669098-2.4800415-0.7183075-9.640625-2.3558502-21.4812317
		C103.7586823,67.0382385,102.8079224,61.2410583,102.5167999,61.3226929L102.5167999,61.3226929z M89.3050842,99.5629578
		c0.4093475,7.2390747,2.15065,10.7418823,5.2242584,10.5082703c1.0703735-0.0739746,2.0466156-1.0289612,2.9296265-2.8652344
		c0.8055878-1.6877747,1.3787537-3.7607117,1.7197571-6.2180481c0.7562866-5.90802,0.0002747-9.5893555-2.2674255-11.0438232
		c-2.6144104-1.2962952-4.6496735-0.5059814-6.105835,2.3712158C89.6858063,94.5623474,89.1857452,96.9780273,89.3050842,99.5629578
		L89.3050842,99.5629578z M80.1843414,64.9851074c1.910553-0.3132629,3.8930969,0.122406,5.9476471,1.3075867
		c1.2543488,13.6287231,2.0432281,22.5640869,2.3669281,26.8069458c0.250885-3.6266479,1.8348694-6.0343628,4.7517242-7.2229309
		c1.2030182-0.5017395,2.6019135-0.4266357,4.1972504,0.2247925c1.6664886,0.6737976,3.0682373,1.7969055,4.2054901,3.3692627
		c2.9361115,4.0849915,3.084671,9.2185059,0.4456024,15.4017334c-3.2374573,6.2470398-6.9471436,8.4790344-11.1293793,6.6957092
		c-1.5621796-0.6570435-2.9009857-1.8073425-4.0158539-3.4511719c-1.06073-1.5170898-1.5811462-2.9369812-1.5613251-4.2593079
		c0.0669098-2.4800415-0.718277-9.6406555-2.3558502-21.4809875C81.4261932,70.7005615,80.4754486,64.9034424,80.1843414,64.9851074
		L80.1843414,64.9851074z"/>
</g>
</svg>
