<?xml version="1.0" encoding="utf-8"?>
<!-- Generator: Adobe Illustrator 22.0.1, SVG Export Plug-In . SVG Version: 6.00 Build 0)  -->
<svg version="1.1" id="Layer_1" xmlns="http://www.w3.org/2000/svg" xmlns:xlink="http://www.w3.org/1999/xlink" x="0px" y="0px"
	 viewBox="0 0 312.6 217.2" style="enable-background:new 0 0 312.6 217.2;" xml:space="preserve">
<style type="text/css">
	.st0{fill-rule:evenodd;clip-rule:evenodd;fill:#F59F90;}
	.st1{fill-rule:evenodd;clip-rule:evenodd;fill:#FFBDB5;}
	.st2{fill-rule:evenodd;clip-rule:evenodd;fill:#FFFFFF;}
	.st3{fill-rule:evenodd;clip-rule:evenodd;fill:#B56451;}
	.st4{fill:#FFFFFF;}
	.st5{fill:#B56451;}
</style>
<g>
	<path class="st0" d="M67.8,185.9c7-2.3,14.3-4,21.4-5.5c1.2-0.2,2.4-0.5,3.5-0.7c-0.7-0.3-1.4-0.7-2-1.1c-0.7,0.7-1.6,1.2-2.7,1.7
		c-3.4,1.4-6.7,1.2-9.5-0.4c-2.2,2.6-5.1,4.7-8.8,4.5c-0.4,0-0.8-0.1-1.2-0.2C68.3,184.8,68.1,185.4,67.8,185.9L67.8,185.9z
		 M106.5,177.4c0.6-0.1,1.1-0.2,1.7-0.2c-0.2-0.3-0.4-0.6-0.5-0.9C107.3,176.6,106.9,177,106.5,177.4L106.5,177.4z M59.2,158.7
		c0.1-2.9,0.5-5.8,1.8-7.6c0.6-0.9,1.4-1.5,2.3-1.9c0.3-0.1,0.6-0.3,0.9-0.4c-8.2-7.2-13.4-17.7-13.4-29.3
		c0-20.2,15.6-36.9,35.6-39.1c-0.2-1.8-0.3-3.6-0.3-5.5c0-22.4,12.8-41.9,31.6-51.8c-1.6-0.4-3.3-0.4-5.2,0.2
		c8.1-7.6,16.2-10.5,24-6.4c0.6-0.1,1.1-0.2,1.7-0.2l-4.1-8.9c6,0.7,11.9,1.5,17.5,2.7c1.2-1.9,2.3-3.7,2.7-5.4c1-5.3-1.3-6.7,1.5-3
		c2.4,3.1,4.3,8.1,5.4,11.1c0.7,0.2,1.4,0.5,2,0.7c6.1-6.5,27-6.4,27.6-4.5c0.2,0.7-10.5,7-8,18.1c0.7,0.9,1.4,1.8,2,2.7
		c12.2,10.2,20.3,25.1,21.1,41.8c1.2-0.1,2.4-0.2,3.7-0.2c16.2,0,29.4,12.9,29.4,28.8c0,7.3-2.8,14-7.4,19.1
		c7.1,4.4,12.6,11.1,15.2,19.1c0.8-0.2,1.7-0.3,2.6-0.4c4.6-0.2,8,1.9,10.1,5.4c0.2-0.1,0.4-0.2,0.5-0.2c3.8-1.6,7.9-1.8,11.8-0.2
		c0.7,0.3,1.3,0.6,1.8,1.1c1,0.8,1.7,1.8,2.2,2.9c2.2-1.8,5.2-1.5,7.9-0.7c3.6,1,7.2,3,6.9,7.4c-0.3,3.8-2.5,9.2-4,12.8
		c-2.2,5.3-4.7,10.6-7.3,15.8c1.7,0.6,3.5,1.3,5.2,2c2.6,1,5.2,2,7.8,2.8c4.5,1.4,9.2,2,13.9,1.9c0.1,0,0.1,0,0.2,0
		c2.3,0,4.5,1.3,5.4,3.5c1,2.3,0.4,4.9-1.3,6.6c-0.9,0.9-2,1.6-3.1,2.1c-2.8,1.4-6,2-9.1,2.3c-9.8,0.9-19.3-2.1-27.8-6.8
		c-1.8,2-3.7,3.9-5.9,5.4c-5.1,3.5-10.8,4.6-16.9,3.3c-5.2-1.1-9.7-3.9-11.4-9.2c-1.2-3.6-0.7-7.2,0.8-10.6c1.8-4.1,5.2-6.9,9.5-8.4
		c1.1-0.4,2.3-0.7,3.5-0.9c-1.5-0.6-2.8-1.4-3.8-2.6c-2.6,1.2-5.4,1.5-8,0.4c-3.9,3.9-8.7,6.9-14.1,8.7c2.2,1.5,4,3.2,5.1,5.2
		c0.3,0.6,1,1.8,1.7,2.8c1.8,0.3,3.2,1.3,4.1,3c0.4,0.8,0.7,1.7,0.8,2.6c0.2,1.4,0,2.8-0.6,4c-1.9,3.7-5.9,4-9.4,2.7
		c-3-1.1-6.3-3.3-9-5.1c-7.9-5.3-18.3-8.2-29.6-9.5c-9.1,8.6-21.6,13.9-35.3,13.9c-11.6,0-22.3-3.8-30.9-10.2
		c-14.7,2.6-29.3,6-43.5,10.1c-7.1,2-14.1,4.3-21,6.8c-4,1.5-8.6,3.1-12.3,5.2c-3.4,1.8-7.6,2.7-10.5-0.6c-2.7-3.1-1.5-7.1,0.6-10.1
		c0.8-1.2,1.9-2.4,3-3.4c-1-0.1-2-0.2-3-0.3c-1.8,1.4-4.4,1.2-6.6,0.9c-2.2-0.2-4-1.7-4.7-3.7c-1.1-0.7-2-1.7-2.4-3
		c-0.4-1.1-0.4-2.3-0.1-3.4c0-0.2,0-0.3,0-0.5c0-1.6,0.6-2.9,1.7-4c-0.3-3.5-0.8-7-1.5-10.4c-0.9,0-1.8,0.1-2.6,0.1
		c-2.3,0-4.3-1.2-5.2-3.3c-0.7-1.5-0.7-3.2,0-4.6c0.1-0.6,0.2-1.2,0.3-1.7c0.3-1.6,1.1-2.9,2.5-3.7c0.4-0.3,0.9-0.5,1.4-0.6
		c0-0.1-0.1-0.3-0.1-0.4c-0.3-0.9-0.6-2.1-1-3c-0.1-0.1-0.2-0.2-0.3-0.4c-1.3,1.4-2.6,2.8-3.6,4.2c-0.9,1.2-2.1,1.9-3.5,2.1
		c-1.2,0.2-2.4,0-3.5-0.5c-2.8-1.4-3.7-4.5-2.7-7.2c0.1-0.4,0.3-0.8,0.5-1.2c0.6-1.3,1.2-2.6,2-3.8c0,0,0-0.1,0.1-0.1
		c2.7-4.3,6.4-7.8,10.5-10.7c5-3.5,10.6-5.6,16.7-5.5c5.1,0.1,9.8,1.8,13.8,5.1c3.7,3.1,6.1,7.2,6.7,12c0.2,1.5,0.2,2.9,0,4.3
		c1,0.2,1.9,0.4,2.9,0.7C57.1,157.7,58.2,158.1,59.2,158.7L59.2,158.7z M35.5,158.4C35.5,158.3,35.5,158.3,35.5,158.4
		c0.5-0.7,0.1-1.6-0.1-2.2c-0.3-0.7-0.6-1.3-1-1.8C34.8,155.5,35.2,156.9,35.5,158.4L35.5,158.4z M37.4,185.4
		c3.9-0.1,8.1-0.8,10.6-3c1.7-1.4,2.1-2.8,1.5-4.9c-0.8-2.6-2.4-4-4.9-4.8c-2.6-0.9-5.1-0.4-7.3,0.7
		C37.4,177.4,37.5,181.4,37.4,185.4L37.4,185.4z M256.5,190.8c-0.9,0-2.1,0.1-2.6,0.5c-0.4,0.2-0.8,0.5-1.1,0.9
		c1.1-0.1,2.3-0.6,3.1-1C256.1,191,256.3,190.9,256.5,190.8L256.5,190.8z"/>
	<path class="st1" d="M45.6,196.4c0.8-0.6,1.5-1.1,2.2-1.7c1.8-1.4,3.7-2.3,5.7-3.2c10.4-4.5,22-7.5,33.2-9.8
		c13-2.7,26.4-4.5,39.6-5.7c11-1,22.1-1.6,33.2-1.6c9.9-0.1,20,0.2,29.9,1.2c10.3,1,32.2,3.6,37.8,13.8c0.3,0.6,1,1.8,1.7,2.8
		c1.8,0.3,3.2,1.3,4.1,3c0.4,0.8,0.7,1.7,0.8,2.6c0.2,1.4,0,2.8-0.6,4c-1.9,3.7-5.9,4-9.4,2.7c-3-1.1-6.3-3.3-9-5.1
		c-20.8-13.9-59.2-11.1-82.8-7.8c-19,2.6-38,6.9-56.4,12.2c-7.1,2-14.1,4.3-21,6.8c-4,1.5-8.6,3.1-12.3,5.2
		c-3.4,1.8-7.6,2.7-10.5-0.6c-2.7-3.1-1.5-7.1,0.6-10.1c1.7-2.4,4-4.5,6.3-6.2C40.7,197.3,43.4,197,45.6,196.4L45.6,196.4z"/>
	<path class="st1" d="M143.8,17.4c33.1,0,60,26.3,60,58.7c0,32.4-26.9,58.7-60,58.7c-33.1,0-60-26.3-60-58.7
		C83.8,43.7,110.6,17.4,143.8,17.4L143.8,17.4z"/>
	<path class="st2" d="M142.9,24.7c15.2,0,28.7,6.5,38,16.9c-8.4-6.8-19.2-10.9-31-10.9c-26.9,0-48.7,21.3-48.7,47.7
		c0,19.5,12,36.3,29.1,43.7c-21.8-5.5-37.9-24.8-37.9-47.9C92.5,46.8,115.1,24.7,142.9,24.7L142.9,24.7z"/>
	<path class="st1" d="M150.1,104.1c28.1,0,50.9,22.3,50.9,49.8c0,27.5-22.8,49.8-50.9,49.8c-28.1,0-50.9-22.3-50.9-49.8
		C99.2,126.4,122,104.1,150.1,104.1L150.1,104.1z"/>
	<path class="st1" d="M70.6,149.8c0.9-1.6,2.4-2.6,4.3-2.8l2.7-0.3c0,0,0.1,0,0.1,0c3.5-0.3,7.3,0.3,8.5,4.2
		c0.3,0.9,0.3,1.8,0.2,2.7c0,0.1,0,0.2-0.1,0.4c-0.8,3.5-1.2,7.1-1.4,10.7c0,0.2,0,0.6,0,1c0.2,0,0.5,0,0.7,0c2.6,0.2,4.7,2,5.1,4.6
		c0.9,4.7-0.5,9.4-5.2,11.3c-3.4,1.4-6.7,1.2-9.5-0.4c-2.2,2.6-5.1,4.7-8.8,4.5c-3.1-0.2-5.5-2-7.3-4.4c-2.5-3.4-2.9-10.5-3.1-14.6
		c-0.2-3.8-0.7-11,1.6-14.3c0.6-0.9,1.4-1.5,2.3-1.9C63.9,149,67.5,148.1,70.6,149.8L70.6,149.8z"/>
	<path class="st1" d="M88.6,81.4c22.2,0,40.2,17.6,40.2,39.4c0,21.7-18,39.4-40.2,39.4c-22.2,0-40.2-17.6-40.2-39.4
		C48.4,99,66.4,81.4,88.6,81.4L88.6,81.4z"/>
	<path class="st1" d="M207.4,72.9c16.2,0,29.4,12.9,29.4,28.8c0,15.9-13.2,28.8-29.4,28.8c-16.2,0-29.4-12.9-29.4-28.8
		C178,85.8,191.2,72.9,207.4,72.9L207.4,72.9z"/>
	<path class="st1" d="M210.4,115.5c19.9,0,36,15.8,36,35.2c0,19.5-16.1,35.2-36,35.2s-36-15.8-36-35.2
		C174.4,131.3,190.5,115.5,210.4,115.5L210.4,115.5z"/>
	<path class="st2" d="M88,86.2c10.1,0,19.3,4.4,25.5,11.3c-5.6-4.6-12.9-7.3-20.8-7.3c-18,0-32.6,14.3-32.6,31.9
		c0,13.1,8,24.3,19.5,29.3c-14.6-3.7-25.4-16.6-25.4-32.1C54.2,101.1,69.3,86.2,88,86.2L88,86.2z"/>
	<path class="st2" d="M207,76.5c7.4,0,14.1,3.2,18.6,8.3c-4.1-3.3-9.4-5.4-15.2-5.4c-13.2,0-23.9,10.5-23.9,23.4
		c0,9.6,5.9,17.8,14.3,21.4c-10.7-2.7-18.6-12.2-18.6-23.5C182.2,87.3,193.3,76.5,207,76.5L207,76.5z"/>
	<path class="st1" d="M257.4,144.8c0.2-0.1,0.4-0.2,0.5-0.2c3.8-1.6,7.9-1.8,11.8-0.2c0.7,0.3,1.3,0.6,1.8,1.1
		c1,0.8,1.7,1.8,2.2,2.9c2.2-1.8,5.2-1.5,7.9-0.7c3.6,1,7.2,3,6.9,7.4c-0.3,3.8-2.5,9.2-4,12.8c-2.2,5.3-4.7,10.6-7.3,15.8
		c1.7,0.6,3.5,1.3,5.2,2c2.6,1,5.2,2,7.8,2.8c4.5,1.4,9.2,2,13.9,1.9c0.1,0,0.1,0,0.2,0c2.3,0,4.5,1.3,5.4,3.5
		c1,2.3,0.4,4.9-1.3,6.6c-0.9,0.9-2,1.6-3.1,2.1c-2.8,1.4-6,2-9.1,2.3c-9.8,0.9-19.3-2.1-27.8-6.8c-1.8,2-3.7,3.9-5.9,5.4
		c-5.1,3.5-10.8,4.6-16.9,3.3c-5.2-1.1-9.7-3.9-11.4-9.2c-1.2-3.6-0.7-7.2,0.8-10.6c1.8-4.1,5.2-6.9,9.5-8.4
		c1.1-0.4,2.3-0.7,3.5-0.9c-1.5-0.6-2.8-1.4-3.8-2.6c-3.4,1.6-7.2,1.7-10.5-1.2c-2-1.7-3.5-3.8-4.4-6c-1.9,1.9-4.1,3.6-6.5,5
		c-9.6,5.7-19.6,5.9-29.2,1.9c-1.8,1-3.9,0.8-5.8-0.1c-0.6-0.3-1.1-0.6-1.7-0.9c-1.9-1-3-3-3-5c-0.4-0.3-0.9-0.7-1.3-1
		c-1.5-1.2-2.2-2.8-2.1-4.7c0.1-1.5,0.7-2.7,1.6-3.7c0.4-0.5,0.7-1.1,1-1.6c1-1.5,2.4-2.4,4.2-2.6c0.2,0,0.4,0,0.6,0
		c1.4-5.5,2.4-11.1,2.9-16.8c0.2-2.1,0.4-4.3,0.5-6.4c0-0.5,0.1-1.2,0.1-1.8c-0.8,0.1-1.5,0.3-2.3,0.5c-0.9,0.2-1.7,0.2-2.6,0
		c-1.7-0.4-3.1-1.5-3.9-3c-1.2-2.5-0.5-5.4,1.7-7c0.2-0.2,0.4-0.3,0.6-0.4c0.3-0.2,0.7-0.4,1-0.6c0.1,0,0.1-0.1,0.2-0.1
		c1.2-0.6,2.4-1.1,3.7-1.6c4.5-1.7,9.2-2.5,14-2.8c9-0.6,17.2,2.3,24.3,7.8c6.7,5.2,10.8,11.8,11.6,19.6c2.4-1.7,5.1-2.8,8.2-2.9
		C251.8,139.3,255.2,141.4,257.4,144.8L257.4,144.8z M208.9,131.2c0.2,1.3,0,2.7-0.3,4.1c-0.4,2.2-1,4.5-1.6,6.7
		c-1.8,7-4.2,13.9-7,20.6c1.2,0.5,2.5,0.8,3.9,0.9c2,0.2,4.2,0.1,5.9-1c4.6-2.9,8.5-6.8,10.1-12.1c1.2-4,0.8-7.7-1.3-11.3
		C216.4,135.3,213,132.8,208.9,131.2L208.9,131.2z M254,192c-0.9,0-2.1,0.1-2.6,0.5c-0.4,0.2-0.8,0.5-1.1,0.9c1.1-0.1,2.3-0.6,3.1-1
		C253.7,192.2,253.9,192.1,254,192L254,192z"/>
	<path class="st3" d="M256.2,148.7c0.9-0.6,1.9-1.1,2.8-1.5c3.1-1.3,6.4-1.5,9.6-0.2c5.5,2.3,1.9,10.9,0.4,14.6
		c-1,2.3-1.9,4.7-2.8,7c-0.1,0.4-0.4,1.1-0.6,1.7c0.3,0,0.6,0,0.7,0c0.8,0,1.9,0,2.7-0.4c1.1-3.3,2.2-6.6,3.2-9.9
		c0.8-2.6,1.5-5.2,2.1-7.8c0.1-0.3,0.2-0.6,0.3-0.8c1.3-2.3,4.1-1.8,6.2-1.2c2.2,0.6,5,1.7,4.8,4.4c-0.2,3.4-2.5,8.7-3.8,11.9
		c-2.6,6.2-5.6,12.4-8.6,18.5c2.7,1,5.4,2,8.1,3.1c2.6,1,5.3,2,8,2.9c4.8,1.5,9.8,2.2,14.8,2c0,0,0,0,0.1,0c2.9,0,4.1,3.2,2.1,5.2
		c-0.6,0.7-1.5,1.1-2.3,1.5c-2.5,1.2-5.4,1.8-8.2,2c-10,0.9-19.6-2.5-28.2-7.6c-2,2.5-4.2,4.9-6.8,6.7c-4.4,3-9.4,4-14.6,2.9
		c-4.2-0.9-8-3-9.4-7.3c-0.9-2.9-0.5-5.9,0.7-8.6c1.5-3.4,4.3-5.6,7.8-6.8c6.2-2.2,13.4-0.8,19.4,1.3l0.4,0.1
		c0.6-1.4,1.2-2.9,1.7-4.4c-1.9,0.3-3.8,0.3-5.7-0.3c-1.3-0.4-2.4-1-3.4-2c-0.7-0.7-1.2-1.4-1.5-2.3c-1.4,1.2-3.2,2-5.4,1.7
		c-3-0.3-4.9-1.8-5.8-4.2c-2.9,2.1-6.5,3.2-9.6,0.5c-3.2-2.8-4.6-6.2-4.6-10.2c-2.6,3.7-5.8,6.7-9.6,8.9c-9.3,5.5-18.9,5.4-28.3,1
		c-1.1,1.5-2.7,1.3-4,0.7c-0.5-0.3-1.1-0.5-1.6-0.8c-1.3-0.7-1.8-2.1-1.3-3.5l0.1-0.3c-0.9-0.6-1.8-1.3-2.6-2
		c-0.7-0.6-1.1-1.4-1-2.4c0-0.8,0.4-1.5,0.9-1.9c0.4-0.5,0.9-1.4,1.3-1.9c0.5-0.8,1.2-1.2,2.1-1.3c0.9-0.1,1.7,0.2,2.3,0.8
		c1.9-6.6,3.2-13.3,3.8-20.2c0.2-2.2,0.4-4.5,0.5-6.7c0-0.7,0.2-1.8,0.1-2.6c-0.2-0.5-0.2-1.1,0-1.6c0.1-0.3,0.2-0.6,0.4-0.8
		c-2.1,0.2-4.2,0.6-6.3,1.1c-0.4,0.1-0.8,0.1-1.3,0c-0.8-0.2-1.6-0.7-1.9-1.5c-0.6-1.3-0.2-2.7,0.9-3.5c0.1-0.1,0.3-0.2,0.4-0.3
		c0.3-0.2,0.6-0.3,0.9-0.5c0,0,0.1,0,0.1,0c1.1-0.6,2.3-1,3.3-1.4c4.2-1.6,8.8-2.4,13.3-2.7c8.3-0.5,15.8,2.2,22.4,7.3
		c7.7,5.9,11.6,13.8,10.4,23.6c0,0.1,0,0.2,0,0.3c0.3-0.4,0.6-0.7,1-1.1c2.7-2.9,6.2-5.4,10.3-5.5
		C251.9,142.1,254.7,144.9,256.2,148.7L256.2,148.7z M256,156.7c-0.5,1.6-1,3.2-1.4,4.8c-0.3,1.1-0.7,2.3-0.9,3.4
		c-0.2,0.8-0.1,1.5,0.1,2.2c0.3-0.2,0.5-0.4,0.6-0.5c0.5-0.4,1-0.7,1.6-0.8c0.7-4,2.4-8,3.6-10.8c-0.5,0.3-1,0.6-1.4,1
		C257.5,156.6,256.7,156.8,256,156.7L256,156.7z M200,126.4c2.4,0.8,4.9,2.1,5.8,4.2c0.6,1.3,0.3,2.9,0,4.2c-0.4,2.2-1,4.4-1.5,6.5
		c-2,7.8-4.8,15.4-8,22.7c2.3,1.2,4.7,2,7.2,2.3c2.7,0.3,5.4,0.1,7.7-1.4c5.2-3.3,9.5-7.7,11.3-13.7c1.4-4.8,0.9-9.2-1.6-13.5
		c-2.8-4.8-7-7.8-12.1-9.6C206,127.1,203,126.6,200,126.4L200,126.4z M241.4,164.3c0.5-0.3,1-0.6,1.2-0.9c1.9-1.6,3.7-6.3,4.9-9.7
		c-2.9,1.7-4.7,6.1-5.6,8.9C241.7,163,241.5,163.7,241.4,164.3L241.4,164.3z M260.4,190.2c-1.7-0.6-3.5-1-5.4-1
		c-1.6-0.1-3.7,0-5.1,0.9c-1.5,0.9-2.7,2.1-2.6,4c0.1,1.2,0.4,1.8,1.6,2c2,0.4,4.1-0.4,5.8-1.3C257,193.7,258.8,192.1,260.4,190.2
		L260.4,190.2z"/>
	<path class="st4" d="M185.6,124.7c-0.1,0,0.3-0.2,1-0.6c0.9-0.5,1.9-0.9,3.1-1.3c3.6-1.4,7.8-2.2,12.4-2.5
		c7.3-0.5,14.1,1.7,20.5,6.7c7.2,5.6,10.4,12.6,9.3,21c-0.5,3.8-1.9,7.4-4.3,10.9c-2.4,3.6-5.5,6.5-9.2,8.7
		c-8.8,5.2-18.2,5.1-28.2-0.4c-0.3,0.5-0.6,1.2-1,2.1c0.1,0.1-0.6-0.2-2-1l0.9-2.4c-1.4-0.9-2.8-1.9-4.3-3.1c0.2-0.1,0.8-1,1.8-2.5
		c1.1,1.2,2.2,2.2,3.4,3.1c2.7-8,4.5-16.4,5.2-25c0.6-6.8,0.8-10.3,0.6-10.4c4.2,1.1,6.5,2.3,7,3.5c0.3,0.3-0.3,3.3-1.7,8.8
		c-1.9,7.5-4.9,15.7-8.8,24.6c3.4,2.2,6.9,3.5,10.5,3.9c3.8,0.4,7-0.2,9.6-1.8c6.6-4.2,10.7-9.3,12.5-15.2c1.7-5.5,1-10.7-1.9-15.7
		c-2.9-5-7.5-8.6-13.6-10.9C201.6,122.8,194,122.6,185.6,124.7L185.6,124.7z M252.3,150.5c0,0.1-0.6,0-1.6-0.2
		c-1.4-0.3-2.6-0.4-3.8-0.2c-4,0.7-7.1,4.5-9.3,11.4c-1.1,3.6-0.9,5.6,0.9,5.7c1.3,0.2,2.8-0.5,4.4-1.8c2.2-1.9,4.4-6.5,6.6-13.8
		l3,1.6c-1.9,6.1-2.9,9.7-3.2,10.8c-0.4,1.6-0.2,3.2,0.6,4.7c0.9,1.9,2.5,1.8,4.8-0.4l0.2,0.2c-1.4,2.6-3.1,3.8-5.1,3.6
		c-2.6-0.3-3.8-1.8-3.8-4.6c0-1.4,0.3-2.8,0.8-4.1c-1.1,1.6-2.4,3-3.9,4.2c-2.9,2.5-5.3,3-7.1,1.4c-2.9-2.6-4.1-5.9-3.4-9.9
		c0.6-3.5,2.3-6.7,5.1-9.7c2.8-3,5.6-4.5,8.4-4.7C249.1,144.7,251.2,146.6,252.3,150.5L252.3,150.5z M254.2,152.8
		c0.8-1.3,2.2-2.4,4.4-3.3c2.6-1.1,5.1-1.2,7.4-0.2c1.9,0.8,1.5,4.4-1.2,10.9c-2.9,7-4.2,10.9-3.7,11.7c0.4,0.6,1.6,1,3.7,1
		c2.2,0.1,4-0.4,5.2-1.3c2.8-8.3,4.7-14.6,5.7-18.9c0.1-0.5,1.1-0.4,3,0.1c1.9,0.5,2.8,1,2.7,1.5c-0.2,3.9-4.8,14.6-13.5,32.2
		c2.7,0.9,6.4,2.3,11.1,4.1c3.7,1.4,6.4,2.4,8.2,2.9c5,1.6,10.2,2.3,15.7,2.1c0.3,0,0.3,0.1,0.1,0.4c-0.3,0.3-0.8,0.6-1.5,0.9
		c-2,1-4.4,1.6-7.2,1.8c-8.9,0.8-18.5-2-28.6-8.5c-2.6,3.7-5.2,6.4-7.7,8.1c-3.8,2.6-8,3.4-12.4,2.4c-3.9-0.9-6.4-2.7-7.3-5.4
		c-0.6-2-0.5-4.2,0.6-6.6c1.1-2.5,3.1-4.2,6.1-5.3c4.4-1.5,10.3-1.1,17.6,1.3l2.7,0.9c1.8-3.4,3.2-7.3,4.3-11.8c0,0.1-1,0.4-3.1,0.9
		c-2.4,0.5-4.3,0.6-5.9,0.1c-5-1.5-4.9-7.9,0.3-19.4c1.6-3.6,1.2-5.1-1.2-4.4c-1.7,0.5-3.4,1.4-4.9,2.7
		C254.6,153.5,254.4,153.2,254.2,152.8L254.2,152.8z M247,187.4c-2.8,1.7-4.1,3.9-3.9,6.6c0.1,2.6,1.5,4.2,3.9,4.7
		c2.3,0.4,4.8-0.1,7.6-1.5c3.3-1.7,6.2-4.4,8.7-8.2c-3.1-1.7-6.3-2.6-9.7-2.8C250.7,186,248.5,186.4,247,187.4L247,187.4z"/>
	<path class="st2" d="M180.7,44.6c7.5,13.7,10.5,27.5,3.2,41.7c1.6,0.9,3.3,1.8,4.9,2.7c-0.7,5.8-4.3,8.5-8.6,10.6
		c-0.9,3.7-4.3,4.6-7.7,5.6c10.2,14.1,15,26,2.1,31.2c1.3,11.2-2.6,15.7-11,14.2c-9.7-1.7-29.6-13.4-38-19
		c-8.1-10.3-8.1-21.4-3.3-31.1c2.1,0.8,5,2.9,7.1,3.7c-30.8-38.3,11.6-80.5,47.9-52.5C177.8,49.2,178.8,46.8,180.7,44.6L180.7,44.6z
		"/>
	<path class="st3" d="M183.9,40.6c2.1,2.9,4.2,5.8,6.3,8.7c-7.7-32.1-32.3-37.3-58.4-40.3c1.6,3.6,3.3,7.1,4.9,10.7
		c-8.7-6.1-17.5-3.5-26.5,4.9c3.6-1.1,6.7-0.4,9.2,2.4c-10.2,0.3-13,7-16.9,12.7c3.4-1.7,6.7-3,10.2-1.6c-10,10.2-14,21.3-14.1,33
		c1.9-2.6,4-5,6.8-6.9c-6,12.1-6.9,22.9-7.1,33.4c2.3-2.2,4.6-3.9,7.3-3.8c-2.8,7.8-2.5,14.1,0,19.2c1.5-3.3,3.1-5.1,5.2-3.6
		c-1.9,4.1-2.6,8.1-1.3,11.9c4.7,2.7,9.3,5.5,14,8.2c-5.6-10.9-5.3-19.9-0.6-27.7c2,1,4,2,6.8,1.5C99.6,63.6,143.1,25,177.5,52.1
		c-0.5-3.2,1.2-5.3,3.1-7.4c4,6.7,6.8,13.5,7.3,20.5C188.8,57.8,186.9,49.4,183.9,40.6L183.9,40.6z"/>
	<path class="st3" d="M179,47.4c7.7,12.8,10.1,25.3,4.3,37.3c-2.7-2.1-3.2-4.5-4.4-6.8c1.1,3.7,2.1,7.5,5.7,10.9
		c1.3,1.3,2.5,2.5,1.1,3.7c-4.9,10.2-15.8,5.9-19.1,4.2c1.2,3,6.5,6,12.2,3.9c-9.6,6.7-19.7,5.2-29.8,2.9c7,3.4,13.3,8,24.2,5.6
		c5.8,9,10.7,18,1.5,26.8c-9.1-8.8-18.3-17.7-27.4-26.5c13.2,16.7,29.4,34.6,20.4,41.5c5.5-0.6,7.9-5.3,6.9-14.4
		c12.9-5.2,8.1-17.1-2.1-31.2c3.4-1,6.8-1.9,7.7-5.6c4.3-2.1,7.9-4.8,8.6-10.6c-1.6-0.9-3.3-1.8-4.9-2.7c7.3-14.1,4.3-28-3.2-41.6
		L179,47.4L179,47.4z"/>
	<path class="st3" d="M143.3,77.9c-5.1,2.2-8.6,5.9-7.4,14.4C132,87.1,136,76.2,143.3,77.9L143.3,77.9z"/>
	<path class="st5" d="M170.3,62.9c3.9,1.4,6.8,4.2,8.4,7.6c1.6,3.4,2,7.4,0.6,11.2c-1.4,3.8-4.2,6.7-7.6,8.3
		c-3.4,1.6-7.5,1.9-11.3,0.5c-3.9-1.4-6.8-4.2-8.4-7.6c-1.6-3.4-2-7.4-0.6-11.2c1.4-3.8,4.2-6.7,7.6-8.3
		C162.4,61.8,166.4,61.6,170.3,62.9L170.3,62.9z M177.3,71.2c-1.5-3-4.1-5.5-7.5-6.7c-3.4-1.2-7-1-10.1,0.5c-3,1.4-5.5,4-6.7,7.4
		c-1.2,3.4-0.9,7,0.5,10c1.5,3,4.1,5.5,7.5,6.7c3.4,1.2,7,1,10.1-0.5c3-1.4,5.5-4,6.7-7.4C179,77.8,178.7,74.2,177.3,71.2
		L177.3,71.2z"/>
	<path class="st5" d="M189.2,65.7c2,0.7,3.4,2.8,4.1,5.6c1,3.9,0.5,8.6-0.8,12.3c-0.8,2.2-2,4.4-3.7,6l0.2-0.6
		c-0.6-0.2-1-0.4-1.4-0.5c2.2-1.9,3.5-5.3,4.1-8.1c0.7-3.2,0.6-6.3,0-8.7c-0.6-2.3-1.7-4-3.1-4.5c-1.4-0.5-2.8,0.3-3.8,1.2
		c-1.2,1.2-2.3,3-3.1,5.2c-1,2.9-1.5,6.2-1.2,9.2l-0.1-0.6l-0.3-0.8l0-0.1l-1.3-1.8c0.3-4.2,1.8-9.4,4.9-12.3
		C185.2,65.9,187.2,65,189.2,65.7L189.2,65.7z"/>
	<path class="st3" d="M170.8,76.4c1.5,0.6,2.6,2.9,2.3,5.3c-0.3,2.4-1.8,3.8-3.3,3.3c-1.5-0.6-2.6-2.9-2.3-5.3
		C167.8,77.4,169.3,75.9,170.8,76.4L170.8,76.4z"/>
	<path class="st3" d="M184,76.8c1.3,0.5,2.2,2.5,1.9,4.4c-0.2,2-1.5,3.2-2.8,2.8c-1.3-0.5-2.2-2.5-1.9-4.4
		C181.5,77.5,182.7,76.3,184,76.8L184,76.8z"/>
	<path class="st3" d="M151.5,73.4c-9.7,0.1-18.4-4-27.1-8.4c7.2,5.3,14.6,10.4,26.4,11.5C151,75.4,151.2,74.4,151.5,73.4L151.5,73.4
		z"/>
	<polygon class="st3" points="192.6,79.7 187.9,78 187.2,79.9 191.9,81.6 192.6,79.7 	"/>
	<path class="st3" d="M189.9,84.8c2.1,0.8,3.2,3.1,2.4,5.3c-0.8,2.2-3.1,3.3-5.2,2.6c-2.1-0.8-3.2-3.1-2.4-5.3
		C185.5,85.2,187.8,84.1,189.9,84.8L189.9,84.8z"/>
	<path class="st3" d="M180.8,29.6c-3.3-11.6,8-18.3,7.8-19c-0.7-2.1-24.8-2-28.7,6.1c-0.3,0-2.7-8.8-6.3-13.4
		c-2.8-3.6-0.5-2.2-1.5,3c-1,5.1-10.3,12-1.3,16.9c4.6,2.5,15.3,6.7,20.7,6.9c0.7,0,7.1,1.7,7.6,1C179.6,30.2,180.8,29.5,180.8,29.6
		L180.8,29.6z"/>
	<path class="st1" d="M150.4,135.8c2.1-1.3,4.4-2.1,7-2.2c3.6-0.1,6.8,1.4,8.9,4.2c2.9,3.8,3.5,7.8,2.4,11.7
		c1.5,0.6,2.8,1.6,3.8,3.1c0.5,0.7,0.7,1.4,0.9,2.2c0.4,2.3-0.3,4.6-1.1,6.8c-1.7,4.3-5,7.4-9.4,8.9c-1,0.3-1.9,0.6-2.9,0.7
		c-0.9,3.6-2.9,6.8-6.2,8.9c-2.7,1.8-5.8,2.6-9.1,2.1c0,0-0.1,0-0.1,0c-5.4-1-9.2-5-11.9-9.7c-0.3,0.1-0.7,0.1-1,0.1
		c-0.9,0-1.8-0.2-2.6-0.6c-3.8,5.2-9.3,8.5-16.1,5.6c-2-0.8-3.7-2.1-5.1-3.7c-3.8,6.1-9.7,10.6-17.3,7.3c-2.7-1.1-4.8-3.1-6.5-5.5
		c-1.6-2.3-2.6-4.8-2.6-7.6c0-2-0.3-4.5-0.5-6.5c-0.5-4.7-1.1-9.4-1.8-14.1c-0.5-3.8-1.1-7.7-1.7-11.5c-0.2-1.3-0.4-3-0.7-4.3
		c-0.1-0.3-0.3-0.6-0.3-1c-0.7-2.8,0.8-5.6,3.4-6.6c0.1,0,0.2-0.1,0.3-0.1c0.3-0.1,0.6-0.2,0.9-0.2c3.4-0.5,6.7,0.3,9.6,2
		c1.6,0.9,2.6,2.5,2.8,4.4c0.4,4.8,0.9,9.5,1.3,14.3c2.2-0.4,4.4-0.1,6.5,0.8c0.1,0.1,0.3,0.1,0.4,0.2c-0.1-0.5-0.1-1-0.2-1.5
		c-0.5-3.8-1.1-7.7-1.7-11.5c-0.2-1.3-0.4-3-0.7-4.3c-0.1-0.3-0.3-0.6-0.3-1c-0.7-2.8,0.8-5.6,3.4-6.6c0.1,0,0.2-0.1,0.3-0.1
		c0.3-0.1,0.6-0.2,0.9-0.2c3.4-0.5,6.7,0.3,9.6,2c1.6,0.9,2.6,2.5,2.8,4.4c0.4,4.8,0.9,9.5,1.3,14.3c2.2-0.4,4.4-0.1,6.5,0.8
		c0.5,0.2,0.9,0.4,1.4,0.6c-0.1-5.4,0.5-10.9,1.8-16.3c1.3-5.3,3.7-12,9.8-13.1c1.2-0.2,2.4-0.2,3.6,0.1c5.3,1.3,8.1,6,9.4,10.9
		C150.9,127.5,150.8,131.8,150.4,135.8L150.4,135.8z M144.7,163.3c0.6,1.8,1.4,3.5,2.3,4.7c0.1,0.1,0.2,0.2,0.3,0.3
		c0.2-0.1,0.5-0.3,0.6-0.4c0.1-0.1,0.2-0.2,0.3-0.4c-0.4-0.4-0.9-0.8-1.3-1.3C146.1,165.2,145.3,164.3,144.7,163.3L144.7,163.3z
		 M14,159.6c-0.1-0.1-0.2-0.2-0.3-0.4c-1.3,1.4-2.6,2.8-3.6,4.2c-0.9,1.2-2.1,1.9-3.5,2.1c-1.2,0.2-2.4,0-3.5-0.5
		c-2.8-1.4-3.7-4.5-2.7-7.2c0.1-0.4,0.3-0.8,0.5-1.2c0.6-1.3,1.2-2.6,2-3.8c0,0,0-0.1,0.1-0.1c2.7-4.3,6.4-7.8,10.5-10.7
		c5-3.5,10.6-5.6,16.7-5.5c5.1,0.1,9.8,1.8,13.8,5.1c3.7,3.1,6.1,7.2,6.7,12c0.2,1.5,0.2,2.9,0,4.3c1,0.2,1.9,0.4,2.9,0.7
		c4.5,1.4,8.1,4.2,10.5,8.2c2.6,4.2,3.8,9,3.2,13.9c-0.6,4.9-2.8,9.2-6.3,12.7c-7.8,7.8-18.2,9.2-28.6,7.8c-1.8,1.4-4.4,1.2-6.6,0.9
		c-2.2-0.2-4-1.7-4.7-3.7c-1.1-0.7-2-1.7-2.4-3c-0.4-1.1-0.4-2.3-0.1-3.4c0-0.2,0-0.3,0-0.5c0-1.6,0.6-2.9,1.7-4
		c-0.3-3.5-0.8-7-1.5-10.4c-0.9,0-1.8,0.1-2.6,0.1c-2.3,0-4.3-1.2-5.2-3.3c-0.7-1.5-0.7-3.2,0-4.6c0.1-0.6,0.2-1.2,0.3-1.7
		c0.3-1.6,1.1-2.9,2.5-3.7c0.4-0.3,0.9-0.5,1.4-0.6c0-0.1-0.1-0.3-0.1-0.4C14.8,161.8,14.4,160.6,14,159.6L14,159.6z M33.1,159.6
		C33.1,159.5,33.1,159.5,33.1,159.6c0.5-0.7,0.1-1.6-0.1-2.2c-0.3-0.7-0.6-1.3-1-1.8C32.4,156.7,32.8,158.1,33.1,159.6L33.1,159.6z
		 M34.9,186.6c3.9-0.1,8.1-0.8,10.6-3c1.7-1.4,2.1-2.8,1.5-4.9c-0.8-2.6-2.4-4-4.9-4.8c-2.6-0.9-5.1-0.4-7.3,0.7
		C35,178.6,35,182.6,34.9,186.6L34.9,186.6z"/>
	<path class="st3" d="M151.6,166.6c-0.9-0.6-1.8-1.4-2.6-2.3c-2.5-2.8-4.2-6.1-4.6-9.9c-0.6-6.2,1.3-11.5,6.2-15.4
		c2-1.5,4.2-2.5,6.7-2.6c2.7-0.1,5,1,6.6,3.1c3.1,4.1,2.9,8.4,0.5,12.3c2.2-0.2,4.3,0.3,5.6,2.3c0.2,0.3,0.4,0.7,0.4,1.1
		c0.3,1.7-0.3,3.7-1,5.3c-1.4,3.6-4.1,6-7.7,7.3c-1.5,0.5-3,0.8-4.4,0.7c0,0,0,0,0,0c-0.4,3.8-2,7.1-5.3,9.2
		c-2.2,1.4-4.6,2.1-7.1,1.7c0,0,0,0-0.1,0c-5.3-0.9-8.8-5.8-11.1-10.8c0,0,0,0,0,0c-0.6,0.7-1.3,1-2.2,1c-0.9,0-1.6-0.4-2.2-1.1
		l-0.6-0.8c-0.1-0.1-0.2-0.3-0.3-0.4c-2,3.8-5.1,7.7-9.6,8.2c-1.7,0.2-3.3-0.1-4.8-0.8c-2.2-0.9-3.9-2.5-5.2-4.5
		c-0.5-0.8-1-1.6-1.3-2.4c-0.3,0.8-0.6,1.6-0.9,2.4c0,0.1-0.1,0.1-0.1,0.2c-2,3.9-5.2,8.2-9.9,8.8c-1.7,0.2-3.3-0.1-4.8-0.8
		c-2.2-0.9-3.9-2.5-5.2-4.5c-1.2-1.8-2.1-3.8-2.1-5.9c0-0.8,0-1.7-0.1-2.5c-0.1-1.5-0.3-2.9-0.4-4.4c-0.5-4.7-1.2-9.5-1.8-14.2
		c-0.5-4-1.1-7.9-1.7-11.9c-0.2-1.1-0.4-2.2-0.6-3.4c-0.1-0.4-0.1-0.8-0.2-1.2c-0.1-0.2-0.2-0.4-0.3-0.7c-0.4-1.4,0.4-2.9,1.9-3.4
		c0.2-0.1,0.3-0.1,0.5-0.1c2.8-0.4,5.4,0.3,7.8,1.7c0.8,0.5,1.3,1.2,1.4,2.2c0.6,6,1.1,12,1.6,18c0.5-0.3,1-0.6,1.6-0.8
		c2.1-0.9,4.3-0.6,6.3,0.2c2.1,0.8,3.8,2.2,5.2,4c-0.4-2.8-0.7-5.6-1.1-8.3c-0.5-4-1.1-7.9-1.7-11.9c-0.2-1.1-0.4-2.2-0.6-3.4
		c-0.1-0.4-0.1-0.8-0.2-1.2c-0.1-0.2-0.2-0.4-0.3-0.7c-0.4-1.4,0.4-2.9,1.9-3.4c0.2-0.1,0.3-0.1,0.5-0.1c2.8-0.4,5.4,0.3,7.8,1.7
		c0.8,0.5,1.3,1.2,1.4,2.2c0.6,6,1.1,12,1.6,18c0.5-0.3,1-0.6,1.6-0.8c2.1-0.9,4.3-0.6,6.3,0.2c2.2,0.9,4,2.4,5.4,4.3
		c0.1,0.1,0.2,0.3,0.3,0.4c-0.9-7.4-0.5-14.9,1.3-22.3c0.9-4,2.8-10.2,7.6-11c0.8-0.1,1.7-0.1,2.5,0.1c4.2,1,6.3,5,7.3,8.9
		c1.1,4.3,0.6,9.6,0,13.9c0,0.1,0,0.1,0,0.2c-1.4,6.5-3.3,14.2-6.5,20.2c0.7,3.6,1.9,8.2,4.2,11c1.6,1.9,2.8,1.8,4.8,0.4
		c0.9-0.7,1.4-1.8,1.7-2.8C151.4,167,151.5,166.8,151.6,166.6L151.6,166.6z M130.8,160.4c-0.1,0.7-0.3,1.4-0.4,2.1
		c0.2-0.4,0.5-0.8,0.7-1.2C131,161,130.9,160.7,130.8,160.4L130.8,160.4z M157.3,158.6c0.4,0.7,1.1,1.3,1.9,1.8
		c0.2,0.1,0.5,0.3,0.7,0.3c0.6-0.1,1.5-1.6,1.9-2.4c-0.1-0.3-0.2-0.6-0.2-0.8c0,0,0,0,0,0l-0.4-1.5c-0.9,0.8-1.9,1.6-2.9,2.2
		C158,158.2,157.7,158.4,157.3,158.6L157.3,158.6z M16.5,158.1c-0.4-0.4-0.7-1-0.8-1.6c-0.2-1.5,0.8-2.9,2.3-3.2c0,0,0.1,0,0.1,0
		c0,0,0,0,0,0c3-0.4,7.9-0.9,10.2,1.6c1.1,1.2,1.6,3.5,1.9,5c0.3,1.7,0.6,3.4,0.8,5.1c1.7-0.9,3.1-2.2,4.3-3.8
		c1.2-1.5,0.9-3.2,0.3-4.9c-1-2.5-2.7-4.1-5.1-5.3c-3.1-1.5-6.2-1.4-9.3-0.2c-5.3,1.9-9.9,6.5-13.3,10.9c-0.5,0.6-1,0.9-1.8,1.1
		c-0.6,0.1-1.2,0-1.8-0.3c-1.5-0.8-1.8-2.4-1.3-3.8c0.1-0.4,0.3-0.7,0.4-1.1c0.5-1.2,1.1-2.4,1.8-3.5c0,0,0,0,0-0.1
		c2.5-4,5.9-7.2,9.8-9.9c4.5-3.1,9.5-5.1,15-5c4.5,0.1,8.5,1.5,12,4.4c3.2,2.7,5.2,6.1,5.8,10.2c0.3,2.2,0.1,4.4-0.6,6.4
		c1.8,0.1,3.7,0.4,5.5,0.9c3.8,1.2,6.9,3.6,9,7c2.3,3.7,3.3,7.8,2.8,12.1c-0.5,4.3-2.4,8-5.5,11c-7.5,7.5-17.9,8.4-27.8,6.8
		c-0.9,1.8-3.4,1.3-5,1.1c-1.4-0.2-2.5-1.3-2.5-2.7l0-0.2l-0.4-0.1c-0.9-0.3-1.6-0.9-1.9-1.8c-0.2-0.6-0.2-1.3,0-1.9
		c0-0.3,0-0.7,0-1c0-0.8,0.4-1.5,1-2.1c0.3-0.2,0.6-0.4,0.9-0.5c-0.4-5-1.1-9.9-2.2-14.8c-1.6,0.1-3.3,0.2-4.9,0.2
		c-1.1,0-2.1-0.6-2.6-1.7c-0.4-0.8-0.3-1.7,0.1-2.5c0.2-0.7,0.3-1.6,0.5-2.2c0.1-0.8,0.6-1.4,1.3-1.9c0.7-0.4,1.4-0.6,2.2-0.4
		c0.5,0.1,0.9,0.2,1.4,0.3c-0.4-1.5-0.9-3.1-1.4-4.6C17.4,160.6,16.9,159,16.5,158.1L16.5,158.1z M32,189.4
		c5.2,0.2,11.5-0.4,15.4-3.6c2.6-2.2,3.3-4.7,2.3-7.9c-1.1-3.4-3.3-5.5-6.7-6.7c-4-1.4-7.8-0.4-11.2,1.8
		C32.2,178.5,32.2,183.9,32,189.4L32,189.4z M96.1,171.6c0.3-0.3,0.6-1,0.8-1.3c0.8-1.7,1.2-3.5,1.5-5.4c0.2-1.6,0.7-6.9-0.9-8.2
		c-0.3-0.1-0.7-0.3-1-0.2c-0.5,0.1-1,1-1.1,1.4c-0.9,1.8-1.3,3.8-1.2,5.8c0.1,2,0.3,4.4,1,6.3C95.2,170.4,95.7,171.5,96.1,171.6
		C96.1,171.6,96.1,171.6,96.1,171.6L96.1,171.6z M118.4,167.9c0.3-0.3,0.6-1,0.8-1.3c0.8-1.7,1.2-3.5,1.5-5.4
		c0.2-1.6,0.7-6.9-0.9-8.2c-0.3-0.1-0.7-0.3-1-0.2c-0.5,0.1-1,1-1.1,1.4c-0.9,1.8-1.3,3.8-1.2,5.8c0.1,2,0.3,4.4,1,6.3
		C117.6,166.7,118,167.8,118.4,167.9C118.4,167.9,118.4,167.9,118.4,167.9L118.4,167.9z"/>
	<path class="st4" d="M151.8,156.4c0.3,2.7,1.6,4.7,4,6.2c2.7,1.7,5,0.4,6.9-3.9c0.1-0.3,0-1.1-0.3-2.3l-0.5-1.7
		c1.9-0.5,3.2-0.2,3.9,0.9c0.1,0.8-0.1,2.1-0.8,3.7c-1.1,2.8-3.1,4.6-6,5.6c-3.7,1.3-7,0.4-9.8-2.8c-2.3-2.5-3.6-5.3-3.8-8.2
		c-0.5-5.5,1.2-9.8,5.1-12.9c1.6-1.3,3.3-2,5.1-2c1.8-0.1,3.2,0.6,4.3,2c2.6,3.4,2.3,7-1,10.9c-1.2,1.4-2.5,2.6-4.1,3.5
		C153.4,156.3,152.4,156.6,151.8,156.4L151.8,156.4z M151.4,154.7c2-0.2,3.9-2.5,5.7-6.8c0.8-1.9,1.1-3.4,1-4.6
		c-0.2-1.4-0.9-2.1-2.4-2.1c-1.9-0.1-3.3,2.2-4.1,6.9c-0.3,1.7-0.5,3.2-0.5,4.7C151.1,154.2,151.2,154.9,151.4,154.7L151.4,154.7z
		 M134.5,143.9c0,3.9,0.2,7.5,0.7,10.8c1.1-3.1,1.9-5.7,2.3-7.9c0.9-5.1,1.5-10.3,1.8-15.5c0.1-2.9-0.3-5.1-1.1-6.8
		c-0.3-0.7-0.6-1.1-0.9-1.2c-0.3-0.2-0.6-0.1-0.8,0.3C135.3,125.6,134.6,132.3,134.5,143.9L134.5,143.9z M129.1,165.9
		c0.5,0,1.5-1.5,3.1-4.5c-3.7-11.7-4.2-23.2-1.6-34.3c1.6-6.5,3.8-9.5,6.6-8.8c2.5,0.6,4.2,2.9,5.2,6.9c0.8,3,0.8,7.2-0.1,12.7
		c-2,9.1-4.2,15.9-6.7,20.3c1.1,6.1,2.7,10.6,5,13.2c2.5,3,5.4,3.3,8.7,0.8c1.3-1,2.2-2.4,2.7-4.4l0.7,0.2c-0.3,3.2-1.7,5.6-4,7.1
		c-1.7,1.1-3.5,1.6-5.2,1.3c-4.3-0.8-7.9-5.3-10.9-13.6c-1.3,1.7-2.3,3-3,3.8L129.1,165.9L129.1,165.9z"/>
	<path class="st3" d="M70,156.7c-0.3,0.8-0.3,2.7-0.4,3.5c-0.1,2-0.1,4,0,6.1c0.9-4.6,1.8-9.3,2.8-13.9c0.3-1.2,1.2-2.1,2.5-2.2
		l2.7-0.3c0,0,0,0,0.1,0c2.1-0.2,4.8-0.2,5.6,2.3c0.1,0.5,0.2,0.9,0.1,1.4c0,0.1,0,0.1,0,0.2c-0.9,3.7-1.3,7.5-1.4,11.2
		c0,1-0.1,4.3,0.4,5.9c0,0,0-0.1,0-0.1c0.4-1.2,1.6-2,2.9-1.9c1.3,0.1,2.3,1,2.6,2.3c0.6,3.3-0.1,6.7-3.5,8.1
		c-3.5,1.4-6.7,0.8-9-1.8c-0.3,0.4-0.6,0.9-0.9,1.3c-1.7,2.3-4.1,4.6-7.2,4.4c-2.2-0.1-4-1.5-5.2-3.3c-2-2.7-2.3-9.8-2.5-13.1
		c-0.1-2.5-0.2-5.1-0.1-7.6c0.1-1.5,0.2-3.6,1.2-4.9c0.3-0.4,0.7-0.7,1.2-0.9c2.3-1,5.4-2.1,7.7-0.5c0.6,0.5,1,1.1,1.2,1.9
		C70.5,155.4,70.4,156.1,70,156.7L70,156.7z"/>
	<path class="st4" d="M67.1,154.7c-0.8,1-1,5.6-0.8,13.8c0.1,3.5,0.5,5.8,1,7c2.5,5.2,3.9-7.1,7.3-23l2.7-0.3c1.8-0.2,2.7,0,2.6,0.4
		c-0.9,3.8-1.4,7.7-1.5,11.8c-0.3,6.8,1,9.9,3.9,9.3c0.9-0.2,1.5-1,2-2.4c0.5,2.6-0.1,4.3-1.8,5c-2.7,1.1-4.9,0.5-6.4-1.8
		c-0.9-1.3-1.4-2.9-1.7-4.8c0.3,0.1,0.1,0.9-0.6,2.5c-0.6,1.7-1.4,3.2-2.4,4.6c-2.9,4-5.5,4.3-7.9,1.1c-1-1.3-1.6-5.1-1.9-11.5
		c-0.3-6.2-0.1-9.8,0.5-10.7C64.7,154.3,66.3,154.1,67.1,154.7L67.1,154.7z"/>
	<path class="st4" d="M27.1,191.9c9.3,0.7,16-0.7,20.2-4.1c3.5-2.9,4.6-6.6,3.2-10.9c-1.3-4.2-4.2-7-8.5-8.5c-4.9-1.7-9.9-0.7-15,3
		C27.5,178.1,27.5,185,27.1,191.9L27.1,191.9z M3.7,159.8c-0.1,0,0.1-0.4,0.4-1.2c0.4-1,1-2,1.6-3.1c2.2-3.4,5.2-6.4,9-9.1
		c4.4-3.1,8.8-4.6,13.3-4.5c3.9,0.1,7.3,1.3,10.2,3.8c2.7,2.3,4.3,5.1,4.8,8.4c0.4,3.4-0.6,6.6-3.1,9.3c3.6-0.8,6.9-0.7,9.8,0.3
		c3.2,1,5.7,3,7.4,5.8c2,3.3,2.8,6.7,2.4,10.3c-0.4,3.6-2,6.7-4.7,9.3c-6.3,6.3-15.7,8.1-28.1,5.4l-0.2,1.8c0.1,0.1-0.6,0-2.2-0.1
		l-0.1-2.2l-2.3-0.7c0.1-0.2,0.2-0.8,0.2-1.9l2.1,0.3c-0.4-7.2-1.4-14.1-3-20.8c-2.4,0.2-4.7,0.3-7.1,0.4c0.1-0.2,0.4-1.2,0.7-3
		c2.2,0.6,4.2,0.9,6,1c-2.4-9-3.9-13.4-4.4-13.3c4.3-0.5,6.9-0.3,7.8,0.7c0.8,0.9,1.6,4.9,2.3,12.1c3.5-0.9,6.5-2.9,9-6
		c1.7-2.1,1.9-4.7,0.7-7.7c-1.2-3-3.4-5.3-6.5-6.8c-3.5-1.7-7.4-1.8-11.5-0.3C13.3,149.8,8.5,153.7,3.7,159.8L3.7,159.8z"/>
	<path class="st3" d="M46.9,199c0.9-0.7,1.8-1.3,2.7-2c1.6-1.2,3.3-2.1,5.2-2.9c10.3-4.4,21.7-7.4,32.6-9.7
		c12.9-2.7,26.2-4.5,39.3-5.6c10.9-1,22-1.5,32.9-1.6c9.8-0.1,19.8,0.2,29.6,1.2c9,0.9,30.6,3.4,35.6,12.3c0.4,0.8,1.8,3.1,2.7,4.2
		c0.1,0,0.3,0,0.4,0c1.1,0,2.1,0.5,2.6,1.5c0.3,0.5,0.5,1.1,0.6,1.7c0.1,0.8,0,1.6-0.3,2.3c-1.2,2.3-3.8,2.1-5.8,1.4
		c-2.8-1-5.9-3.1-8.4-4.8c-10.5-7-24.5-9.6-36.9-10.6c-15.8-1.2-32.2,0.1-47.9,2.3c-19.1,2.7-38.3,6.9-56.8,12.3
		c-7.1,2.1-14.2,4.3-21.2,6.8c-2.6,0.9-5.1,1.9-7.6,3c-1.7,0.7-3.5,1.5-5.1,2.4c-2.1,1.1-5.1,2.2-7,0c-1.7-2-0.6-4.7,0.7-6.6
		c1.5-2.1,3.6-4,5.7-5.5C41.9,199.9,45.1,199.6,46.9,199L46.9,199z"/>
	<path class="st4" d="M55.9,196.7c-4.5,1.9-4.4,2.6-7.6,4.8c-0.5,0.3-5.7,1.3-6.1,1.7c-6.7,4.9-8.4,10.6-2.5,7.4
		c19.5-10.6,134.6-45.3,178.4-16c12.8,8.5,9.9,3.1,9.9,3.1s-1.1,2.6-5.7-5.6C212.4,174.2,102.5,176.6,55.9,196.7L55.9,196.7z"/>
	<path class="st4" d="M111.6,160.1c0.4,7.2,2.2,10.7,5.2,10.5c1.1-0.1,2-1,2.9-2.9c0.8-1.7,1.4-3.8,1.7-6.2c0.8-5.9,0-9.6-2.3-11
		c-2.6-1.3-4.6-0.5-6.1,2.4C112,155.1,111.5,157.5,111.6,160.1L111.6,160.1z M102.5,125.5c1.9-0.3,3.9,0.1,5.9,1.3
		c1.3,13.6,2,22.6,2.4,26.8c0.3-3.6,1.8-6,4.8-7.2c1.2-0.5,2.6-0.4,4.2,0.2c1.7,0.7,3.1,1.8,4.2,3.4c2.9,4.1,3.1,9.2,0.4,15.4
		c-3.2,6.2-6.9,8.5-11.1,6.7c-1.6-0.7-2.9-1.8-4-3.5c-1.1-1.5-1.6-2.9-1.6-4.3c0.1-2.5-0.7-9.6-2.4-21.5
		C103.8,131.2,102.8,125.4,102.5,125.5L102.5,125.5z M89.3,163.8c0.4,7.2,2.2,10.7,5.2,10.5c1.1-0.1,2-1,2.9-2.9
		c0.8-1.7,1.4-3.8,1.7-6.2c0.8-5.9,0-9.6-2.3-11c-2.6-1.3-4.6-0.5-6.1,2.4C89.7,158.8,89.2,161.2,89.3,163.8L89.3,163.8z
		 M80.2,129.2c1.9-0.3,3.9,0.1,5.9,1.3c1.3,13.6,2,22.6,2.4,26.8c0.3-3.6,1.8-6,4.8-7.2c1.2-0.5,2.6-0.4,4.2,0.2
		c1.7,0.7,3.1,1.8,4.2,3.4c2.9,4.1,3.1,9.2,0.4,15.4c-3.2,6.2-6.9,8.5-11.1,6.7c-1.6-0.7-2.9-1.8-4-3.5c-1.1-1.5-1.6-2.9-1.6-4.3
		c0.1-2.5-0.7-9.6-2.4-21.5C81.4,134.9,80.5,129.1,80.2,129.2L80.2,129.2z"/>
</g>
</svg>
