<?xml version="1.0" encoding="utf-8"?><svg xmlns="http://www.w3.org/2000/svg" xmlns:xlink="http://www.w3.org/1999/xlink"><symbol viewBox="0 0 492.004 289.048" id="arrow" xmlns="http://www.w3.org/2000/svg"><path d="M265.2 281.2L484.144 62.252c5.068-5.064 7.86-11.824 7.86-19.032s-2.792-13.968-7.86-19.032l-16.12-16.124c-10.504-10.492-27.576-10.492-38.064 0L246.104 191.92 62.044 7.86C56.976 2.796 50.22 0 43.016 0c-7.212 0-13.968 2.796-19.04 7.86L7.86 23.984C2.792 29.052 0 35.808 0 43.016s2.792 13.968 7.86 19.032L227.004 281.2c5.084 5.076 11.872 7.864 19.088 7.848 7.244.016 14.028-2.772 19.108-7.848z"/></symbol><symbol id="cart" viewBox="0 0 208.7 185.1" xml:space="preserve" xmlns="http://www.w3.org/2000/svg"><style>.bst0{fill:#666}</style><path class="bst0" d="M84.9 138.7c-12.8 0-23.2 10.4-23.2 23.2 0 12.8 10.4 23.2 23.2 23.2s23.2-10.4 23.2-23.2c0-12.8-10.4-23.2-23.2-23.2zm0 31.4c-4.5 0-8.2-3.7-8.2-8.2s3.7-8.2 8.2-8.2 8.2 3.7 8.2 8.2-3.7 8.2-8.2 8.2zm77.4-31.4c-12.8 0-23.2 10.4-23.2 23.2 0 12.8 10.4 23.2 23.2 23.2s23.2-10.4 23.2-23.2c0-12.8-10.4-23.2-23.2-23.2zm0 31.4c-4.5 0-8.2-3.7-8.2-8.2s3.7-8.2 8.2-8.2 8.2 3.7 8.2 8.2-3.7 8.2-8.2 8.2zm44.9-137.4c-1.4-1.8-3.6-2.9-5.9-2.9H51.7L45.5 5.6C44.6 2.3 41.7 0 38.2 0H7.5C3.4 0 0 3.4 0 7.5S3.4 15 7.5 15h24.9l6.2 23.9c0 .2.1.3.1.4l23.1 89c.9 3.3 3.8 5.6 7.3 5.6H178c3.4 0 6.4-2.3 7.3-5.6L208.5 39c.6-2.1.1-4.5-1.3-6.3zm-35 86.3H74.9L55.6 44.7h135.9L172.2 119z"/></symbol><symbol viewBox="0 0 330 283" id="heart" xmlns="http://www.w3.org/2000/svg"><path class="cst0" d="M304.3 25.7C287.7 9.1 265.7 0 242.2 0s-45.5 9.1-62.1 25.7L165 40.9l-15.1-15.1C133.3 9.2 111.3.1 87.8.1 64.4.1 42.3 9.2 25.7 25.8 9.1 42.3 0 64.4 0 87.8s9.1 45.5 25.7 62.1l128.7 128.7c2.9 2.9 6.8 4.4 10.6 4.4s7.7-1.5 10.6-4.4l128.7-128.7c16.6-16.6 25.7-38.6 25.7-62.1 0-23.4-9.1-45.5-25.7-62.1zm-21.2 103L165 246.8 46.9 128.7C36 117.8 30 103.3 30 87.8s6-29.9 16.9-40.9C58.2 35.6 73 30 87.8 30c14.8 0 29.6 5.6 40.9 16.9l25.7 25.7c5.9 5.9 15.4 5.9 21.2 0l25.7-25.7c22.5-22.5 59.2-22.5 81.7 0 10.9 10.9 16.9 25.4 16.9 40.9.1 15.5-5.9 30-16.8 40.9z"/></symbol><symbol viewBox="0 0 330 282.944" id="heart-filled" xmlns="http://www.w3.org/2000/svg"><path d="M304.286 25.714C287.704 9.132 265.658 0 242.208 0s-45.497 9.132-62.079 25.714L165 40.843l-15.129-15.129C133.289 9.132 111.243 0 87.792 0c-23.45 0-45.497 9.132-62.078 25.714C9.132 42.296 0 64.343 0 87.792c0 23.45 9.132 45.497 25.714 62.078l128.68 128.68A14.954 14.954 0 00165 282.944c3.838 0 7.678-1.464 10.606-4.394l128.68-128.68C320.868 133.289 330 111.243 330 87.792c0-23.449-9.132-45.496-25.714-62.078z"/></symbol><symbol id="house" viewBox="0 0 176.532 170.951" xml:space="preserve" xmlns="http://www.w3.org/2000/svg"><style>.est0{fill:#1d1d1b}</style><path class="est0" d="M152.928 83.122l-59.89-49.406a7.497 7.497 0 00-9.545 0l-59.89 49.406a7.497 7.497 0 00-2.728 5.785v74.544c0 4.143 3.357 7.5 7.5 7.5h119.779c4.143 0 7.5-3.357 7.5-7.5V88.907a7.489 7.489 0 00-2.726-5.785zm-56.732 72.829h-15.86v-41.524h15.859v41.524zm44.46 0h-29.46v-49.024c0-4.143-3.357-7.5-7.5-7.5h-30.86a7.499 7.499 0 00-7.5 7.5v49.024h-29.46V92.443l52.39-43.219 52.39 43.219v63.508z"/><path class="est0" d="M173.72 68.076a4625.875 4625.875 0 01-49.561-40.261c-5.11-4.591-10.48-8.938-15.675-13.144-5.087-4.118-10.348-8.377-15.201-12.745a7.499 7.499 0 00-10.035 0c-4.854 4.368-10.114 8.627-15.201 12.745-5.195 4.205-10.565 8.553-15.675 13.144a4603.617 4603.617 0 01-49.56 40.261 7.5 7.5 0 009.377 11.707A4604.904 4604.904 0 0062.034 39.29c.085-.069.168-.141.25-.215 4.854-4.368 10.114-8.627 15.2-12.745 3.56-2.88 7.2-5.827 10.782-8.873 3.582 3.046 7.223 5.993 10.78 8.873 5.088 4.118 10.349 8.377 15.202 12.745.082.074.165.146.25.215a4595.034 4595.034 0 0049.845 40.493 7.47 7.47 0 004.684 1.646 7.484 7.484 0 005.858-2.812 7.498 7.498 0 00-1.165-10.541z"/></symbol><symbol viewBox="0 0 192.9 192.9" id="icon-search" xmlns="http://www.w3.org/2000/svg"><path class="fst0" d="M190.7 180.1L143.6 133c11.7-14.1 18.8-32.1 18.8-51.8C162.4 36.4 126 0 81.2 0 36.4 0 0 36.4 0 81.2c0 44.8 36.4 81.2 81.2 81.2 19.7 0 37.8-7 51.8-18.8l47.1 47.1c1.5 1.5 3.4 2.2 5.3 2.2s3.8-.7 5.3-2.2c2.9-2.9 2.9-7.7 0-10.6zM15 81.2C15 44.7 44.7 15 81.2 15s66.2 29.7 66.2 66.2-29.7 66.2-66.2 66.2S15 117.7 15 81.2z"/></symbol><symbol viewBox="0 0 270.4 98.1" id="iconSheer"><path d="M175.1 51.8c.2 1.2.3 2.1.5 3 2 8.4 8.6 14 17.2 14.7 7.6.6 13.6-2.3 18-8.5 2.2-3 5.7-3.5 8.5-1.1 1.6 1.4 1.8 3.2.5 4.9-.7.9-1.4 1.8-2.1 2.8-2.9 4-6.7 6.7-11.4 8.3-7.6 2.6-15.2 3-22.7.2-10.1-3.7-16.1-11.1-17.8-21.7-1-6.5-.4-13 2.6-18.9 4.3-8.4 11.1-13.6 20.5-15.1 6.2-1 12.4-.4 18.2 2.4 8.2 3.9 13.2 10.5 15.1 19.3.5 2.4.7 4.9.9 7.3.2 1.5-.5 2.2-2.1 2.3h-44.1c-.4.1-.9.1-1.8.1zm38.3-9.2c-1.2-7.9-10.7-14.7-19.4-14.2-9.1.5-18.2 7.5-18.5 14.2h37.9zm-101 9c.1.8.2 1.4.3 2 1.7 9.3 9.3 15.7 18.7 15.9 7.1.1 12.7-2.8 16.8-8.6 2.2-3.1 6.1-3.4 8.8-.7 1.3 1.4 1.5 3 .3 4.6-.5.8-1.1 1.5-1.7 2.2-3.1 4.5-7.3 7.4-12.5 9.1-7.6 2.5-15.2 2.7-22.5-.2-10.6-4.1-16.4-12.1-17.6-23.3-.6-5.4-.1-10.7 2.2-15.6 4.3-9.4 11.4-15.2 21.8-16.6 5.5-.7 11-.3 16.1 1.8 9.2 3.8 14.6 10.9 16.6 20.6.4 2.2.6 4.5.7 6.7.1 1.8-.3 2.2-2.2 2.2h-43.5c-.7-.1-1.4-.1-2.3-.1zm38.4-9.1c-1.2-7.8-10.4-14.4-19.4-14.2-8.8.2-17.9 7.2-18.6 14.2h38zm101 13.5c.7.6 1.1 1 1.5 1.4 4.9 4.2 9.8 8.3 14.6 12.5.3.3.7.6 1 .9 1.8 1.8 2 4.4.3 6.2-1.6 1.8-4.2 2.1-6.1.5-3.4-2.8-6.7-5.7-10-8.5-4.8-4.1-9.5-8.1-14.3-12.2-.4-.4-.9-.7-1.6-1.3 0 1-.1 1.6-.1 2.3v36.1c-.2 2.5-2.1 4.3-4.6 4.2-2.4-.1-4.1-1.9-4.2-4.4V21.9c0-1.6.2-1.9 1.7-1.9 2.1-.1 4.2-.1 6.2-.1 5 0 10.1.2 15.1-.1 8.4-.4 17.8 6.4 18.7 16.3.8 8.9-5.2 17.3-14.3 19.1-1.1.2-2.3.5-3.9.8zm-15.3-6.9c.5.1.9.1 1.2.1h12.6c1.2 0 2.4-.1 3.6-.5 3.9-1.2 7-3.5 8-7.7 1.7-7.1-3.6-13.7-10.9-13.7h-13c-.5 0-1 .1-1.5.1v21.7zM88.5 52H63.9c0 .7-.1 1.4-.1 2v18.9c0 .8 0 1.6-.2 2.3-.6 1.9-2.6 3.1-4.5 3-2.1-.2-3.8-1.8-4.1-3.9-.1-.5 0-1 0-1.5V5.4c0-.9.1-1.8.4-2.6.6-2 2.6-3 4.7-2.8 1.9.3 3.5 2 3.7 3.9.1.6 0 1.2 0 1.8v34.7c0 .7.1 1.4.1 2 1.5.4 22.9.4 24.5 0 0-.5.1-1.1.1-1.7V23.9c.2-2.3 1.9-4 4.2-4.1 2.3-.1 4.3 1.6 4.6 3.9.1.5 0 1 0 1.5v48.9c-.3 2.3-2.3 4.1-4.5 4-2.3-.1-4.1-1.9-4.3-4.2V52zM25 78.3c-5.9-.1-11.4-1.4-16.5-4.4-2.2-1.3-4.2-2.9-5.8-4.8-.8-1-1.6-2.1-2.2-3.3-1-1.9-.6-3.4.9-4.9 1.7-1.6 4.1-2.3 6.4-.7C9 61 10 62 10.9 63c.9.9 1.6 1.9 2.5 2.8 2.7 2.7 6 4.2 9.8 4.6 3.5.4 7 .3 10.4-.9 1.4-.5 2.8-1.2 4-2.1 2.9-2.2 3-5.9.2-8.2-1.3-1.1-2.9-1.9-4.5-2.6-4-1.7-8.1-2.9-12.3-4-3.4-.8-6.7-1.9-10.1-2.9-1.3-.4-2.5-1.1-3.7-1.7-3.2-1.7-5-4.4-5.5-7.9-1-7.1 1.7-12.8 8.1-15.9 9.8-4.8 19.7-5.2 29.4.4 1.8 1 3.5 2.5 5.1 3.9 1.2 1 2 2.5 2.5 4 .8 2.6-.5 3.9-2.8 4.4-2 .4-3.8-.2-5.2-1.7-.3-.3-.5-.6-.7-.9-2.3-3.4-5.6-5.3-9.6-6.1-4-.7-8-.6-11.8.9-1.4.5-2.8 1.3-3.9 2.3-2.7 2.3-2.7 5.4-.1 7.8 1.7 1.6 3.7 2.5 5.9 3 4.8 1.2 9.7 2.4 14.5 3.6 3.1.8 6.1 1.8 8.9 3.4 3.6 1.9 6.2 4.7 7.1 8.8 1.1 5 0 9.4-3.9 13-4.4 4-9.5 6.3-15.4 7-1.7.1-3.3.2-4.8.3z"/></symbol><symbol viewBox="0 0 355.162 512" id="login" xmlns="http://www.w3.org/2000/svg"><path d="M177.581 238.428c65.734 0 119.214-53.48 119.214-119.214C296.796 53.478 243.315 0 177.581 0 111.845 0 58.367 53.478 58.367 119.214c0 65.734 53.48 119.214 119.214 119.214zm0-199.725c44.394 0 80.511 36.118 80.511 80.511s-36.117 80.511-80.511 80.511c-44.395 0-80.511-36.118-80.511-80.511s36.117-80.511 80.511-80.511zm0 214.99C79.663 253.693 0 333.355 0 431.274v61.375C0 503.336 8.664 512 19.351 512H335.81c10.687 0 19.352-8.664 19.352-19.351v-61.375c.001-97.918-79.661-177.581-177.581-177.581zM38.703 473.297v-42.024c0-76.578 62.3-138.878 138.878-138.878s138.878 62.3 138.878 138.878v42.024H38.703z"/></symbol><symbol viewBox="0 0 172.946 208.954" id="packet" xmlns="http://www.w3.org/2000/svg"><path d="M172.845 200.227L160.13 58.626a7.5 7.5 0 00-7.47-6.829h-26.221V39.971C126.439 17.931 108.509 0 86.47 0 64.432 0 46.504 17.931 46.504 39.971v11.826H20.265a7.5 7.5 0 00-7.47 6.829L.03 200.784a7.5 7.5 0 007.47 8.17h157.946a7.5 7.5 0 007.399-8.727zM61.504 39.971C61.504 26.202 72.704 15 86.471 15c13.768 0 24.969 11.202 24.969 24.971v11.826H61.504V39.971zm-45.8 153.984L27.122 66.797h19.382v13.412c0 4.142 3.357 7.5 7.5 7.5s7.5-3.358 7.5-7.5V66.797h49.936v13.412c0 4.142 3.357 7.5 7.5 7.5s7.5-3.358 7.5-7.5V66.797h19.364l11.418 127.158H15.704z"/></symbol><symbol id="password" viewBox="0 0 139.9 203.1" xml:space="preserve" xmlns="http://www.w3.org/2000/svg"><style>.jst0{fill:#fff}</style><path class="jst0" d="M122.4 73.2h-3.3V49.1C119.1 22 97.1 0 70 0S20.8 22 20.8 49.1v24.1h-3.3C7.9 73.2 0 81.1 0 90.7v94.9c0 9.6 7.9 17.5 17.5 17.5h104.9c9.6 0 17.5-7.9 17.5-17.5V90.7c0-9.6-7.9-17.5-17.5-17.5zM35.8 49.1C35.8 30.3 51.1 15 69.9 15S104 30.3 104 49.1v24.1H35.8V49.1zm89.1 136.5c0 1.4-1.1 2.5-2.5 2.5H17.5c-1.4 0-2.5-1.1-2.5-2.5V90.7c0-1.4 1.1-2.5 2.5-2.5h104.9c1.4 0 2.5 1.1 2.5 2.5v94.9z"/><path class="jst0" d="M69.9 116.3c-4.1 0-7.5 3.4-7.5 7.5v28.7c0 4.1 3.4 7.5 7.5 7.5s7.5-3.4 7.5-7.5v-28.7c0-4.1-3.3-7.5-7.5-7.5z"/></symbol><symbol viewBox="0 0 100 100.5" id="wa" xmlns="http://www.w3.org/2000/svg"><path class="kst0" d="M85.4 14.6C76 5.2 63.5 0 50.2 0 22.8 0 .4 22.3.4 49.8c0 8.8 2.3 17.3 6.6 24.9l-7 25.8 26.4-6.9c7.3 4 15.5 6.1 23.8 6.1 27.4 0 49.8-22.3 49.8-49.8 0-13.4-5.2-25.9-14.6-35.3zM50.2 91.2c-7.4 0-14.7-2-21.1-5.8l-1.5-.9L12 88.7l4.2-15.3-1-1.6c-4.1-6.6-6.3-14.2-6.3-22C8.8 27 27.4 8.4 50.2 8.4c11.1 0 21.4 4.3 29.3 12.1 7.8 7.8 12.1 18.2 12.1 29.3 0 22.8-18.6 41.4-41.4 41.4zm22.7-31c-1.2-.6-7.4-3.6-8.5-4s-2-.6-2.8.6c-.8 1.2-3.2 4-3.9 4.9-.7.8-1.5.9-2.7.3s-5.3-1.9-10-6.2c-3.7-3.3-6.2-7.4-6.9-8.6s-.1-1.9.5-2.5 1.2-1.5 1.9-2.2c.6-.7.8-1.2 1.2-2.1.4-.8.2-1.6-.1-2.2-.3-.6-2.8-6.7-3.8-9.2-1-2.4-2-2.1-2.8-2.1h-2.4c-.8 0-2.2.3-3.3 1.6-1.1 1.2-4.4 4.3-4.4 10.4s4.5 12 5.1 12.9c.6.8 8.8 13.4 21.3 18.8 3 1.3 5.3 2 7.1 2.6 3 .9 5.7.8 7.8.5 2.4-.4 7.4-3 8.4-5.9s1-5.4.7-5.9c-.3-.8-1.1-1.1-2.4-1.7z"/></symbol></svg>