<?xml version="1.0" encoding="utf-8"?>
<!-- Generator: Adobe Illustrator 22.0.1, SVG Export Plug-In . SVG Version: 6.00 Build 0)  -->
<svg version="1.1" id="Capa_1" xmlns="http://www.w3.org/2000/svg" xmlns:xlink="http://www.w3.org/1999/xlink" x="0px" y="0px"
	 viewBox="0 0 254.2 254.2" style="enable-background:new 0 0 254.2 254.2;" xml:space="preserve">
<style type="text/css">
	.st0{fill:#FFFFFF;}
</style>
<g>
	<path class="st0" d="M253.5,120.4l-19.7-42.6c-1.2-2.7-3.9-4.3-6.8-4.3h-62V36.3c0-4.1-3.4-7.5-7.5-7.5H7.5c-4.1,0-7.5,3.4-7.5,7.5
		v126.2c0,4.1,3.4,7.5,7.5,7.5h14.7c-1.3,2.8-2.2,5.7-2.8,8.7H7.5c-4.1,0-7.5,3.4-7.5,7.5s3.4,7.5,7.5,7.5h11.9
		c3.5,18,19.4,31.7,38.4,31.7c19,0,34.9-13.6,38.4-31.7h62.6c3.5,18,19.4,31.7,38.4,31.7c19,0,34.9-13.6,38.4-31.7h11
		c4.1,0,7.5-3.4,7.5-7.5v-62.7C254.2,122.4,254,121.3,253.5,120.4z M158.9,178.7H96.3c-0.6-3-1.5-6-2.8-8.7h64.1c2,0,3.8-0.8,5.1-2
		C160.9,171.3,159.6,174.9,158.9,178.7z M15,43.8h135V155H81.4c-6.6-5-14.8-7.9-23.6-7.9s-17,3-23.6,7.9H15V43.8z M57.8,210.4
		c-13.3,0-24.2-10.8-24.2-24.2c0-13.3,10.8-24.2,24.2-24.2c13.3,0,24.2,10.8,24.2,24.2C82,199.6,71.2,210.4,57.8,210.4z
		 M197.3,210.4c-13.3,0-24.2-10.8-24.2-24.2c0-13.3,10.8-24.2,24.2-24.2c13.3,0,24.2,10.8,24.2,24.2
		C221.4,199.6,210.6,210.4,197.3,210.4z M239.2,178.7h-3.5c-3.5-18-19.4-31.7-38.4-31.7c-13.5,0-25.5,6.9-32.5,17.4
		c0.2-0.6,0.3-1.3,0.3-1.9V88.4h57.2l17,36.7V178.7z"/>
	<path class="st0" d="M211.1,95.3h-31.5c-4.1,0-7.5,3.4-7.5,7.5v20.8c0,4.1,3.4,7.5,7.5,7.5H221c0,0,0,0,0,0c4.1,0,7.5-3.4,7.5-7.5
		c0-1.3-0.4-2.6-1-3.7l-9.7-20.4C216.6,97,214,95.3,211.1,95.3z M187,116.2v-5.8h19.3l2.8,5.8H187z"/>
</g>
</svg>
