<?xml version="1.0" encoding="utf-8"?>
<!-- Generator: Adobe Illustrator 22.1.0, SVG Export Plug-In . SVG Version: 6.00 Build 0)  -->
<svg version="1.1" id="Layer_1" xmlns="http://www.w3.org/2000/svg" xmlns:xlink="http://www.w3.org/1999/xlink" x="0px" y="0px"
	 viewBox="0 0 512 512" style="enable-background:new 0 0 512 512;" xml:space="preserve" fill="#e89892">
<path d="M355.9,28.1C327.8,0,273.7,0,256,0c-17.8,0-71.9,0-100,28.1c-11.3,11.3-12.4,40.4-12.3,52.4c0,7.2,0.5,15,1.3,22.9
	C113.3,89.3,83.1,83.9,70,90.6c-35.4,18-52.1,69.4-57.6,86.3c-5.5,16.9-22.2,68.3-4.1,103.7c7.2,14.2,34.6,24.2,46.1,27.9
	c6.9,2.2,14.5,4.1,22.3,5.7C53.3,340,38.8,367,41.1,381.7c6.2,39.3,50,71,64.4,81.5c13.1,9.5,50.7,36.8,87,36.8
	c3.5,0,7-0.3,10.4-0.8c10.9-3.4,20.5-10,27.5-19v23.3c0,4.7,3.8,8.5,8.5,8.5H273c4.7,0,8.5-3.8,8.5-8.5v-23.4
	c7.1,9,16.7,15.6,27.6,19c3.5,0.5,6.9,0.8,10.4,0.8c36.3,0,73.8-27.3,87-36.8c14.4-10.4,58.1-42.2,64.3-81.5
	c2.5-15.7-13.7-39.9-20.8-49.6c-4.3-5.8-9.2-11.8-14.6-17.8c34-7.2,61.6-20.5,68.3-33.7c18.1-35.4,1.3-86.8-4.1-103.7l-8.1,2.6
	l8.1-2.6c-5.5-16.9-22.2-68.3-57.6-86.3c-14.2-7.2-42.3,0.7-53.7,4.5c-6.8,2.3-14.1,5.1-21.4,8.4C370.5,68.9,366.4,38.5,355.9,28.1z
	 M298.3,250.6c0.2,1.8,0.3,3.6,0.3,5.4c-0.1,16.5-9.6,31.5-24.5,38.6c-16.7,7.8-36.6,4-49.3-9.4c-12.7-13.5-15.3-33.6-6.4-49.8
	c8.9-16.2,27.2-24.9,45.4-21.4C282.1,217.5,296,232.3,298.3,250.6L298.3,250.6z M168.1,40.2c23.1-23.1,71.9-23.1,87.9-23.1
	c16,0,64.8,0,87.9,23.1c4.8,4.8,11,31.4,4.7,72.3c-0.4,0.2-0.9,0.6-1.4,0.8c-2.4,1.4-4.9,2.8-7.3,4.3l-1.6,1
	c-5.7,3.5-11.4,7.3-17.1,11.3c1.2-6,2.3-11.9,3-17.8c0.5-4.6-2.8-8.8-7.4-9.3c-4.6-0.6-8.8,2.6-9.5,7.2c-1.7,12.9-4.5,25.7-8.4,38.1
	c-13.4,12.3-24.9,26.4-34.4,42v-87.6c0-4.7-3.8-8.5-8.5-8.5c-4.7,0-8.5,3.8-8.5,8.5v94.5c-4.4,0.6-8.8,1.8-12.9,3.4
	c-15.1-28.2-25.2-58.8-29.9-90.5c-0.4-3-2.3-5.6-5.1-6.8c-2.8-1.2-6-0.8-8.5,1.1c-2.4,1.8-3.7,4.8-3.3,7.9
	c5,33.8,15.8,66.5,31.9,96.7c-3.5,2.6-6.6,5.7-9.4,9c-24.3-28.9-40.2-63.8-46.1-101.1c-2.1-11.9-3.2-24-3.3-36.1
	C160.7,56.3,165.1,43.2,168.1,40.2z M23.4,272.8c-14.8-29.1,0.2-75.4,5.2-90.7c5-15.2,20-61.6,49.1-76.3c2.4-0.9,4.9-1.3,7.4-1.1
	c22.1,1.8,43.5,8.3,62.9,19c0.2,1,0.4,2.1,0.6,3.1c0.3,1.7,0.7,3.4,1.1,5.1c0.3,1.3,0.6,2.6,0.9,3.9c1.5,6.4,3.3,12.8,5.4,19.2
	c-5.3-3-10.7-5.9-16-8.4c-2.8-1.4-6.1-1.1-8.6,0.6s-3.9,4.7-3.7,7.8c0.3,3.1,2.2,5.8,5,7c11.8,5.6,23.1,12.2,33.7,19.7
	c7.6,16.5,17.5,31.9,29.3,45.7l-83.4-27.1c-2.9-1.1-6.3-0.5-8.6,1.5c-2.4,2.1-3.4,5.3-2.7,8.3c0.7,3.1,3,5.5,6.1,6.3l90,29.2
	c-0.6,3.3-0.9,6.7-0.9,10.1c0,1.1,0.2,2.1,0.2,3.2c-31.5,5.6-63.8,5.7-95.4,0.4c-4.6-0.8-9,2.2-9.9,6.8c-0.9,4.6,2.1,9,6.7,10
	c15.5,2.9,31.3,4.3,47.1,4.3c18.4-0.1,36.7-1.7,54.8-4.7c1.4,4.2,3.4,8.2,5.7,12c-1,0.5-2.1,0.9-3.1,1.3c-1.8,0.7-3.6,1.5-5.4,2.2
	c-1.4,0.5-2.8,1-4.2,1.4c-1.6,0.5-3.1,1.1-4.7,1.6s-3.2,0.9-4.8,1.4c-1.3,0.4-2.7,0.7-4,1.1c-1.8,0.5-3.7,0.9-5.5,1.3l-3,0.6
	c-2.2,0.4-4.3,0.9-6.4,1.2l-1.4,0.2c-22.6,3.4-45.6,3.5-68.1,0.1c-12-1.7-23.9-4.4-35.4-8.1C36.5,284.9,25.3,276.6,23.4,272.8z
	 M200.1,482.2c-32.3,5.1-71.7-23.5-84.7-32.9c-13-9.4-52.4-38-57.5-70.3c-1.1-6.6,9.6-31.9,38.7-61.3c3.5,0.5,7.3,0.9,11.4,1.2
	c0.6,0.1,1.3,0.1,1.9,0.1c5.6,0.4,11.6,0.7,18.1,0.7h0.9c-4.5,4.1-8.8,8.3-12.8,12.6c-2.2,2.2-3,5.4-2.1,8.4s3.3,5.2,6.3,5.9
	c3,0.7,6.2-0.3,8.2-2.7c9-9.5,18.7-18.1,29.1-25.9c1.4-0.2,2.8-0.4,4.2-0.6c1.4-0.2,2.6-0.4,4-0.6c3.2-0.5,6.5-1.1,9.8-1.8
	c1-0.2,2-0.4,2.9-0.7c2.6-0.6,5.3-1.2,7.9-2c1-0.3,2.1-0.6,3.1-0.9c3.3-1,6.7-2,10.1-3.2l0.4-0.1c3.4-1.2,6.8-2.6,10.2-4l-51.5,70.8
	c-1.9,2.5-2.3,5.8-1.1,8.6s3.9,4.8,7,5.1c3.1,0.3,6.1-1.1,7.9-3.7l55.7-76.6c3.9,2.1,8.1,3.7,12.4,4.8
	c-4.4,31.7-14.3,62.4-29.1,90.8c-1.5,2.7-1.4,5.9,0.2,8.5c1.6,2.6,4.4,4.2,7.5,4.1c3.1-0.1,5.8-1.7,7.3-4.4
	c15.9-30.3,26.4-63.1,31.1-97c4.4-0.1,8.9-0.7,13.2-1.8c0.1,1.1,0.2,2.1,0.2,3.1c0.2,2,0.3,4,0.4,6c0.1,1.5,0.1,2.9,0.1,4.4
	c0,1.7,0.1,3.3,0,5c-0.1,1.7-0.1,3.4-0.2,5.1c-0.1,1.3-0.1,2.7-0.2,4c-0.1,2-0.3,3.9-0.5,5.8c-0.1,0.9-0.2,1.9-0.3,2.8
	c-0.3,2.3-0.5,4.5-0.9,6.7c-0.1,0.4-0.1,0.7-0.2,1.1c-3.6,22.3-10.6,43.8-20.5,64.1l-0.1,0.1v0.1c-4.9,10-10.5,19.6-16.8,28.8
	c-0.7,1-1.4,2.1-2.1,3C215.7,473.5,204.3,481.6,200.1,482.2z M264.5,458.3v36.6h-17.1v-36.6c2.8-4.3,5.7-8.8,8.4-13.6l0.1-0.2
	l0.2,0.4c2.6,4.6,5.3,8.9,8.1,13C264.4,458.1,264.4,458.2,264.5,458.3z M454,379c-5.1,32.3-44.6,60.9-57.5,70.3
	c-13,9.4-52.4,38.1-84.7,32.9c-4.9-0.8-17.6-10.9-31.6-31.1c-0.1-0.1-0.1-0.2-0.1-0.3c-5.4-7.8-10.2-16-14.6-24.4
	c0.5-1.1,1-2.2,1.5-3.3s1-2.3,1.5-3.4c0.7-1.7,1.5-3.5,2.3-5.3c0.7-1.6,1.3-3.2,2-4.9c0.7-1.8,1.4-3.7,2.1-5.6
	c0.6-1.7,1.2-3.5,1.8-5.2c0.3-0.7,0.5-1.5,0.7-2.2c2.6,5.6,5.2,11,8,16.2c1.5,2.7,4.4,4.4,7.5,4.4c1.4,0,2.9-0.4,4.1-1.1
	c4.1-2.3,5.6-7.5,3.4-11.6c-6.2-11.5-11.5-23.4-15.7-35.8l0.1-0.3c0.6-2.9,1.1-5.8,1.5-8.8c0.2-1.2,0.3-2.5,0.5-3.7
	c0.3-2.2,0.6-4.4,0.8-6.6c0.1-1.3,0.2-2.6,0.4-3.8c0.2-2.5,0.3-5,0.4-7.5c0-0.9,0.1-1.9,0.1-2.8c0.1-3.4,0.1-6.9,0-10.4
	c0-0.8-0.1-1.6-0.1-2.4c-0.1-2.6-0.3-5.2-0.5-7.8l51.5,70.8c1.7,2.6,4.8,4.1,7.9,3.8s5.9-2.3,7.1-5.2c1.2-2.9,0.8-6.2-1.2-8.7
	l-55.6-76.5c3.2-3.1,6-6.6,8.4-10.3c28.8,14,55,32.8,77.4,55.7c2.1,2.3,5.2,3.3,8.2,2.7c3-0.7,5.4-2.9,6.3-5.9
	c0.9-3,0.1-6.2-2.1-8.4C372,308,344,287.9,313.2,272.9c1.3-4.2,2.1-8.6,2.4-13c1.1,0.2,2.2,0.5,3.2,0.8c1.9,0.4,3.8,0.9,5.6,1.4
	c1.5,0.4,2.9,0.9,4.4,1.3c1.4,0.5,3.1,0.9,4.6,1.4c1.7,0.6,3.3,1.2,5,1.8c1.2,0.4,2.4,0.9,3.5,1.3c1.9,0.8,3.8,1.5,5.6,2.3
	c0.8,0.3,1.6,0.7,2.3,1c2.2,1,4.3,2,6.4,3l0.6,0.3c20.4,10.5,39.2,24,55.6,40.1h0.1c8.7,8.4,16.7,17.6,23.9,27.3
	C450.5,361.6,454.7,374.8,454,379L454,379z M393.6,111.3c22.9-7.6,36.8-7.4,40.6-5.5c29.1,14.8,44.2,61.2,49.1,76.4
	c5,15.2,20,61.6,5.2,90.7c-3.1,6-26.5,20.1-67.4,26.8c-0.3-0.3-0.8-0.7-1.1-1c-2-1.9-4.1-3.8-6.3-5.7l-1.7-1.4c-3-2.5-6-5.1-9.2-7.5
	l-0.1-0.1c-2.2-1.7-4.4-3.3-6.6-5c6.1-0.7,12.2-1.4,17.9-2.6c4.6-0.9,7.6-5.4,6.7-10c-0.9-4.6-5.3-7.6-9.9-6.8
	c-12.9,2.4-25.9,3.6-39,3.8c-2.3-1.3-4.7-2.5-7.1-3.7l-0.9-0.5c-4.6-2.3-9.3-4.4-14-6.3c-1-0.4-2.1-0.8-3.1-1.2
	c-4.5-1.7-9-3.3-13.7-4.8c-0.6-0.2-1.1-0.4-1.7-0.6c-3.3-1-6.7-1.8-10.1-2.6l83.4-27.1c3-0.8,5.4-3.3,6.1-6.3s-0.3-6.3-2.7-8.3
	c-2.4-2.1-5.7-2.7-8.6-1.5l-89.9,29.2c-2-4-4.4-7.8-7.2-11.2c22.2-23,48.2-42,76.9-56.3c4.2-2,6-7.1,4-11.3c-2-4.2-7-6.1-11.2-4.2
	c-30.6,15.2-58.4,35.5-82.1,60.2c-3.5-2.4-7.3-4.5-11.3-6.1c19.9-32,48.2-58,81.7-75.2C371,119.9,382.1,115.1,393.6,111.3z"/>
</svg>
