<?xml version="1.0" encoding="utf-8"?>
<!-- Generator: Adobe Illustrator 22.1.0, SVG Export Plug-In . SVG Version: 6.00 Build 0)  -->
<svg version="1.1" id="Layer_1" xmlns="http://www.w3.org/2000/svg" xmlns:xlink="http://www.w3.org/1999/xlink" x="0px" y="0px"
	 viewBox="0 0 512 512" style="enable-background:new 0 0 512 512;" xml:space="preserve" fill="#e89892">
<g id="Page-1">
	<g id="_x30_38---Flowers">
		<path id="Shape" d="M207.5,139.1c12.7,8.9,29.6,9.3,42.7,1c13.1-8.3,19.9-23.7,17.2-39s-14.3-27.5-29.5-30.8
			c-15.2-3.4-30.9,2.7-39.8,15.4c-5.9,8.3-8.2,18.7-6.5,28.7S199.1,133.3,207.5,139.1z M212.1,95.4c6.8-9.6,20.1-12,29.7-5.2
			c9.6,6.8,12,20.1,5.2,29.7c-6.8,9.6-20.1,12-29.7,5.2C207.7,118.4,205.3,105.1,212.1,95.4L212.1,95.4z"/>
		<path id="Shape_1_" d="M491,178.2c10.4-9.5,22.2-20.3,19.8-34.6c-2.5-14.2-17.3-20.4-30.4-25.7c-6.3-2-12.2-5.2-17.4-9.4
			c-3.4-6-5.7-12.6-6.6-19.4c-3.1-13.6-6.5-28.9-19.6-33.7c-12.7-4.7-25,4.5-35.8,12.7c-5.4,4.8-11.7,8.6-18.5,11
			c-7.2,0-14.4-1.3-21.1-4c-13-4-27.8-8.5-38.2,0.3c-2.2,1.9-4,4.3-5.3,7c-4.2-2.9-7.8-6.6-10.6-10.9c-1.6-6.4-2-13.1-1.1-19.7
			c0.6-14.1,1.4-30.1-10.5-38.4c-11.8-8.3-26.7-2.2-39.7,3.2c-5.9,3-12.3,5-18.9,5.6c-6.7-1.8-12.9-4.9-18.4-9.1
			c-11.8-7.4-25.1-15.8-37.8-9.9c-12.3,5.7-14.4,20.9-16.3,34.4c-0.4,7.2-2.2,14.3-5.3,20.8c-5.1,5.1-11.1,9.2-17.7,12.1
			c-12,6.4-25.6,13.7-26.7,27.1c-1.2,14,11.3,23.7,22.4,32.2l1.5,1.1L92.7,322.8l-52.1-19.7c-6.7-2.4-14.1-0.4-18.7,4.9
			c-4.6,5.4-5.4,13-2.1,19.3l10.9,20L10.5,357c-6.2,3-10,9.4-9.6,16.2c0.3,6.9,4.8,12.8,11.2,15.2l50.3,18.8L33,425.4
			c-4.9,3-7.9,8.3-8.1,14c-0.2,5.7,2.5,11.2,7.2,14.5l76.6,53.7c4.7,3.3,10.7,4,16,1.9c5.3-2.1,9.2-6.7,10.4-12.3l10-47.5
			l289.4-190.6c2-1.3,3.7-3.1,4.9-5.1c5.4,1.7,11,2.7,16.6,2.9c5.4,0.2,10.7-1.5,15-4.9c10.7-9,8.7-24.6,7-38.4
			c-1.4-6.7-1.6-13.7-0.4-20.5C481.3,187.3,485.8,182.3,491,178.2L491,178.2z M131.8,99c0.4-4.2,10.4-9.5,17.8-13.4
			c9.1-3.9,17.2-9.9,23.7-17.4c4.8-8.7,7.7-18.3,8.2-28.2c1.2-8.2,2.8-19.5,6.6-21.3c4.2-2,13.8,4.1,21.5,8.9
			c7.7,5.8,16.6,9.8,26,11.7c9.4-0.2,18.6-2.6,27-6.9c8.5-3.5,19.2-8,23.3-5c4.2,2.9,3.6,14.4,3.2,23.7c-1.2,9.3-0.2,18.7,2.8,27.6
			c5,8.2,11.8,15.2,19.8,20.5c7.1,5.6,16,12.5,15.6,17.1c-0.4,4.2-10.4,9.6-17.8,13.5c-1.3,0.7-2.7,1.5-4,2.2
			c-0.6-0.1-1.2-0.3-1.8-0.3c-13.9-1.2-23.5,11.2-32,22.2c-3.8,5.8-8.6,10.8-14.3,14.8c-6.5,1.6-13.2,2-19.8,1.2
			c-8.2-0.8-16.4-0.4-24.5,1.3l-43.5-52.6c-5.6-7.1-15.9-8.4-23-2.9C139.6,110.1,131.4,103.6,131.8,99L131.8,99z M385.1,181.1
			c-4.6-3.2-7.8-8.2-8.7-13.8c-1.1-6.2,0.6-12.6,4.7-17.4c4-4.8,10-7.6,16.3-7.6c9.2,0,17.4,5.9,20.2,14.6
			c2.9,8.7-0.1,18.3-7.5,23.8C402.7,186.2,392.6,186.3,385.1,181.1L385.1,181.1z M382.6,204.9c1.7,3.7-2.7,11.7-6.9,18.4
			c-15.4,3.1-30.4,7.7-44.9,13.7c-3.6-14.5-15.4-25.6-30.2-28.4s-29.7,3.4-38.3,15.7c-0.7,1.1-1.4,2.2-2,3.4l-34-41.2
			c3.5-0.1,7.2,0.1,10.8,0.2c9.3,1.2,18.8,0.3,27.7-2.7c8.3-5,15.4-11.8,20.6-19.9c5.5-7.1,11.9-16,16.8-15.6
			c0.4,0.1,0.9,0.2,1.3,0.3c4.1,1.7,8.7,10.5,12.4,17.5c3.9,9.1,9.9,17.2,17.4,23.7c8.7,4.9,18.4,7.7,28.3,8.3
			C369.6,199.5,380.9,201.1,382.6,204.9L382.6,204.9z M137.8,434.2l-46.4-32.5l12.8-53.5l79.6,55.8L137.8,434.2z M108.5,330.2
			l48.1-200.9l101.1,122l0.1,0.1l24.1,29.1l31.4,38.1l-114.1,75.1L108.5,330.2z M272.8,243c0.4-3.2,1.6-6.2,3.4-8.9
			c5-7.3,14-10.7,22.6-8.5c8.6,2.2,14.9,9.4,15.9,18.2c-9.4,4.2-19.1,9-29.3,14.3L272.8,243z M42.1,360.7c3.1-1.5,5.5-4.3,6.6-7.6
			c1.1-3.3,0.7-6.9-0.9-10l-13-23.9l54,20.4l-13,54.4l-57.8-21.5L42.1,360.7z M118.7,493.7L42,440l39.5-24.4l46.7,32.7L118.7,493.7z
			 M327.6,309.2l-31.1-37.5c27.4-15.4,57.1-26.4,87.9-32.6c0.7,0,1.4-0.1,2.1-0.3c8.2-1.3,16.5-1.2,24.7,0.2
			c5.1,0.8,10,2.8,14.2,5.9L327.6,309.2z M461.8,187.1c-2.3,9.3-2.5,19.1-0.5,28.5c1.1,9,2.6,20.2-1,23.1c-3,2.5-12.6-0.1-20.4-2.5
			c-1.1-1.9-2.5-3.6-4.2-5c-6.3-4.7-13.6-7.8-21.4-9.1c-5.9-1.1-11.9-1.5-17.9-1.3c3.1-5.9,4.1-12.6,2.9-19.1c1.5,0,3-0.2,4.5-0.4
			c16.8-2.7,29.9-15.9,32.5-32.7s-6.1-33.3-21.3-40.9s-33.6-4.3-45.4,7.9c-11.8,12.2-14.3,30.7-6.2,45.6c-7.1-0.4-14.1-2.2-20.6-5.3
			c-5.1-5.1-9.2-11.1-12.1-17.8c-2.7-5.5-5.9-10.7-9.4-15.7c10.9-6,21.9-13,22.9-25c0-9.4-4.5-18.3-12.1-23.8c0-2.1,0.7-4,2-5.6
			c3.2-2.7,14.2,0.6,22.2,3c9.2,3.7,19.1,5.2,29,4.5c9.6-2.7,18.4-7.5,25.8-14.1c6.6-5,15.7-11.9,19.7-10.3
			c4.4,1.6,6.9,12.6,8.9,21.4c1.3,9.5,4.8,18.7,10.2,26.7c6.8,6.5,15,11.3,24,14.2c8.5,3.5,19.2,7.9,20.1,12.9s-7.7,12.8-14.5,19
			C472,171.3,466,178.7,461.8,187.1L461.8,187.1z"/>
	</g>
</g>
</svg>
