<?xml version="1.0" encoding="utf-8"?>
<!-- Generator: Adobe Illustrator 22.1.0, SVG Export Plug-In . SVG Version: 6.00 Build 0)  -->
<svg version="1.1" id="Layer_1" xmlns="http://www.w3.org/2000/svg" xmlns:xlink="http://www.w3.org/1999/xlink" x="0px" y="0px"
	 viewBox="0 0 512 512" style="enable-background:new 0 0 512 512;" xml:space="preserve" fill="#e89892">
<g id="_x30_04---Give-Relaxation">
	<path id="Shape" d="M25.6,512h42.7c7.2,0,14.1-3.1,18.9-8.5h214c12.5,0,24.8-3.4,35.5-10l159.9-97.4c13.8-8.5,19.1-26,12.3-40.7
		c-6.8-14.7-23.6-22-39-16.8c-177.2,59.1-157.7,53.9-173.7,53.9c10.5-29.6-16.5-59.7-47.4-59.7h-44.1c-15.5,0-30.6-5.4-42.7-15.2
		c-25.6-20.7-49.4-18.9-69.8-18.9c-3.6-10.2-13.2-17-24.1-17.1H25.6C11.5,281.6,0,293.1,0,307.2v179.2C0,500.5,11.5,512,25.6,512
		L25.6,512z M151.6,330.9c15.1,12.2,33.9,18.9,53.2,18.9h44c22.4,0,41.6,24.6,28.3,42.7h-49.1c-16.9,0-33.3,5-47.4,14.3l-6.2,4.2
		c-3.4,2.8-4.2,7.7-1.8,11.4c2.4,3.7,7.3,4.9,11.1,2.8c12.6-9.9,28.1-15.4,44.2-15.6c83.5,0,80.6,0.8,89.3-2.2l158-52.7
		c7.1-2.2,14.8,1.3,17.9,8s0.8,14.8-5.5,18.8L327.9,479c-8,4.9-17.2,7.4-26.6,7.4l-207.4,0V315.7h15
		C124.4,315.8,139.5,321.2,151.6,330.9L151.6,330.9z M17.1,307.2c0-4.7,3.8-8.5,8.5-8.5h42.7c4.7,0,8.5,3.8,8.5,8.5v179.2
		c0,4.7-3.8,8.5-8.5,8.5H25.6c-4.7,0-8.5-3.8-8.5-8.5V307.2z"/>
	<path id="Shape_1_" d="M494.9,85.3c-14.7,0.3-29.3,1.7-43.8,4.4c-2.4-14.3-6.2-28.4-11.2-42c-1.6-4.3-4.8-7.8-9-9.6
		c-4.2-1.9-8.9-2-13.2-0.3c-14.6,5.7-28.6,12.9-41.7,21.5c-10.9-19.6-24.2-37.7-39.7-53.9c-3.1-3.4-7.5-5.3-12.1-5.3
		c-4.6,0-9,1.9-12.1,5.3c-15.2,16.2-28.3,34.2-39.1,53.7c-13.1-8.5-27-15.6-41.5-21.3c-4.3-1.7-9-1.5-13.2,0.3
		c-4.2,1.9-7.4,5.3-9,9.6c-5,13.6-8.8,27.7-11.2,42.1c-14.7-2.7-29.7-4.1-44.6-4.4c-9.4,0-17.1,7.6-17.1,17.1
		c0.4,24.4,5.8,85.3,47.5,125.4c35.7,34.2,90.3,45.3,140.2,45.3S428.8,262,464.5,228c41.7-39.8,47.5-100.9,47.5-125.6
		C512,93,504.4,85.3,494.9,85.3L494.9,85.3z M224.9,53.5c15.6,6.2,54.1,23.3,75.3,53.7c1.6,2.3,4.2,3.7,7,3.8c3.2,0,6.1-1.8,7.5-4.6
		c1.5-2.8,1.3-6.2-0.6-8.8c-7.8-10.8-17.1-20.4-27.6-28.5c10.4-18.8,23-36.2,37.6-52c14.8,15.7,27.5,33.3,37.8,52.2
		c-10.4,8-19.6,17.6-27.3,28.2c-1.8,2.5-2,5.8-0.7,8.6c1.4,2.8,4.1,4.6,7.2,4.8c2.8,0,5.4-1.4,7-3.7c21.4-30.5,60-47.5,75.4-53.7
		c4.8,12.9,8.3,26.2,10.5,39.8c-58.8,15.3-93.9,48.8-110,105.1c-15.8-55.2-49.8-89.5-109.7-105.1C216.7,79.8,220.2,66.4,224.9,53.5
		L224.9,53.5z M195.8,215.6c-36.9-35.2-42.2-91-42.2-113.2c41.2,0.5,89.7,11.6,119.5,40.4c37.9,35.6,42.7,92.8,42.7,113.2
		C294.4,256,233.6,251.6,195.8,215.6L195.8,215.6z M452.8,215.6c-37.8,36-98.6,40.4-120,40.4c0-20.4,4.8-77.7,42.7-113.2
		c30.3-28.8,78.8-39.8,119.5-40.4C494.9,124.7,489.7,180.4,452.8,215.6z"/>
	<path id="Shape_2_" d="M389.9,212.7c-4.5,1.5-7,6.3-5.5,10.8s6.3,7,10.8,5.5c41-13.3,65-37.7,76.8-81.8c1-3,0.3-6.4-1.9-8.7
		c-2.2-2.3-5.6-3.2-8.6-2.2c-3.1,0.9-5.4,3.5-5.9,6.7C445.1,181.6,425.1,201.4,389.9,212.7L389.9,212.7z"/>
</g>
</svg>
