<?xml version="1.0" encoding="utf-8"?>
<!-- Generator: Adobe Illustrator 22.1.0, SVG Export Plug-In . SVG Version: 6.00 Build 0)  -->
<svg version="1.1" id="Layer_1" xmlns="http://www.w3.org/2000/svg" xmlns:xlink="http://www.w3.org/1999/xlink" x="0px" y="0px"
	 viewBox="0 0 512 512" style="enable-background:new 0 0 512 512;" xml:space="preserve" fill="#e89892">
<g id="Page-1">
	<g id="_x30_40---Love-Mail">
		<path id="Shape" d="M486.4,76.8H25.6C11.5,76.8,0,88.3,0,102.4v305.5c0,14.1,11.5,25.6,25.6,25.6h460.8
			c14.1,0,25.6-11.5,25.6-25.6V102.4C512,88.3,500.5,76.8,486.4,76.8z M136.5,256c0-66,53.5-119.5,119.5-119.5S375.5,190,375.5,256
			S322,375.5,256,375.5C190,375.4,136.6,322,136.5,256z M256,119.5c-46.9,0-90.6,24.2-115.5,64L32.3,93.9h447.5l-108.3,89.6
			C346.6,143.7,302.9,119.5,256,119.5L256,119.5z M132.2,198.8c-16.3,34.9-17,75.1-1.9,110.6L17.1,407.9V103.4L132.2,198.8z
			 M138.4,325c24.4,41.8,69.2,67.5,117.6,67.5s93.2-25.7,117.6-67.5l105.1,91.4H33.3L138.4,325z M381.7,309.4
			c15.1-35.5,14.4-75.7-1.9-110.6l115.1-95.3v304.4L381.7,309.4z"/>
		<path id="Shape_1_" d="M42.7,187.7c4.7,0,8.5-3.8,8.5-8.5v-17.1c0-4.7-3.8-8.5-8.5-8.5s-8.5,3.8-8.5,8.5v17.1
			C34.1,183.9,38,187.7,42.7,187.7z"/>
		<path id="Shape_2_" d="M42.7,349.9c4.7,0,8.5-3.8,8.5-8.5v-128c0-4.7-3.8-8.5-8.5-8.5s-8.5,3.8-8.5,8.5v128
			C34.1,346,38,349.9,42.7,349.9z"/>
		<path id="Shape_3_" d="M247.1,343.7c5.4,3.6,12.4,3.6,17.8,0c60.4-39.8,85-69.1,85-101.2c0.6-14.1-4.5-27.8-14.1-38.1
			s-23-16.3-37.1-16.6c-16.4,0-32,7.2-42.7,19.7c-10.7-12.5-26.2-19.7-42.7-19.7c-14.1,0.3-27.5,6.3-37.1,16.6s-14.7,24-14.1,38.1
			C162.1,274.6,186.8,303.9,247.1,343.7z M213.3,204.8c14.6,0.3,28,8.4,35.1,21.1c1.5,2.8,4.4,4.6,7.6,4.6c3.2,0,6.1-1.8,7.6-4.6
			c7.1-12.8,20.5-20.8,35.1-21.1c9.6,0.3,18.7,4.5,25.1,11.6c6.4,7.1,9.7,16.5,9,26.1c0,25.5-22.3,50.6-76.8,86.6
			c-54.5-36-76.8-61.1-76.8-86.6c-0.7-9.6,2.6-19,9-26.1C194.7,209.3,203.7,205.1,213.3,204.8z"/>
	</g>
</g>
</svg>
