<?xml version="1.0" encoding="utf-8"?>
<!-- Generator: Adobe Illustrator 22.1.0, SVG Export Plug-In . SVG Version: 6.00 Build 0)  -->
<svg version="1.1" id="Capa_1" xmlns="http://www.w3.org/2000/svg" xmlns:xlink="http://www.w3.org/1999/xlink" x="0px" y="0px"
	 viewBox="0 0 512 512" style="enable-background:new 0 0 512 512;" xml:space="preserve" fill="#e89892">
<g>
	<g>
		<g>
			<path d="M247.5,375.5c33,0,59.7-26.7,59.7-59.7V213.3c0-4.7-3.8-8.5-8.5-8.5c-4.7,0-8.5,3.8-8.5,8.5v102.4
				c0,23.6-19.1,42.7-42.7,42.7c-23.6,0-42.7-19.1-42.7-42.7s19.1-42.7,42.7-42.7c4.7,0,8.5-3.8,8.5-8.5s-3.8-8.5-8.5-8.5
				c-33,0-59.7,26.7-59.7,59.7S214.5,375.5,247.5,375.5z"/>
			<path d="M341.3,452.3V213.3c0-4.7-3.8-8.5-8.5-8.5s-8.5,3.8-8.5,8.5v238.9c0,23.6-19.1,42.7-42.7,42.7s-42.7-19.1-42.7-42.7
				c0-23.6,19.1-42.7,42.7-42.7c4.7,0,8.5-3.8,8.5-8.5s-3.8-8.5-8.5-8.5c-33,0-59.7,26.7-59.7,59.7c0,33,26.7,59.7,59.7,59.7
				S341.3,485.3,341.3,452.3z"/>
			<path d="M392.5,213.3v102.4c0,33,26.7,59.7,59.7,59.7s59.7-26.7,59.7-59.7S485.3,256,452.3,256c-4.7,0-8.5,3.8-8.5,8.5
				s3.8,8.5,8.5,8.5c23.6,0,42.7,19.1,42.7,42.7s-19.1,42.7-42.7,42.7s-42.7-19.1-42.7-42.7V213.3c0-4.7-3.8-8.5-8.5-8.5
				C396.4,204.8,392.5,208.6,392.5,213.3z"/>
			<path d="M358.4,213.3v238.9c0,33,26.7,59.7,59.7,59.7s59.7-26.7,59.7-59.7c0-33-26.8-59.7-59.7-59.7c-4.7,0-8.5,3.8-8.5,8.5
				s3.8,8.5,8.5,8.5c23.6,0,42.7,19.1,42.7,42.7c0,23.6-19.1,42.7-42.7,42.7c-23.6,0-42.7-19.1-42.7-42.7V213.3
				c0-4.7-3.8-8.5-8.5-8.5C362.2,204.8,358.4,208.6,358.4,213.3z"/>
			<path d="M204.1,125.2c-5,4.9-7.8,11.6-7.9,18.7c0,3.6,0.7,7.1,2.1,10.4c4,10,13.8,16.6,24.6,16.4c7.1,0,13.8-2.8,18.8-7.8
				l60.5-60.5H325l-22.8,22.8c-5,4.9-7.8,11.6-7.9,18.7c0,3.6,0.7,7.1,2.1,10.4c3.4,8.2,10.7,14.2,19.4,15.9c8.7,1.7,17.7-1,24-7.3
				l60.5-60.5h22.8l-22.8,22.8c-5,4.9-7.8,11.6-7.9,18.7c0,3.6,0.7,7.1,2.1,10.4c3.4,8.2,10.7,14.2,19.4,15.9c8.7,1.7,17.7-1,24-7.3
				l60.5-60.5h5c4.7,0,8.5-3.8,8.5-8.5V59.7c0-4.7-3.8-8.5-8.5-8.5h-8.5V25.6c0-14.1-11.5-25.6-25.6-25.6H42.7
				C28.5,0,17.1,11.5,17.1,25.6v25.6H8.5C3.8,51.2,0,55,0,59.7v34.1c0,4.7,3.8,8.5,8.5,8.5h22.1L7.8,125.2c-5,4.9-7.8,11.6-7.8,18.7
				c0,3.6,0.7,7.1,2.1,10.4c3.4,8.2,10.7,14.2,19.4,15.9c8.7,1.7,17.7-1,24-7.3l60.4-60.5h22.8L106,125.2c-5,4.9-7.8,11.6-7.9,18.7
				c0,3.6,0.7,7.1,2.1,10.4c3.4,8.2,10.7,14.2,19.4,15.9c8.7,1.7,17.7-1,24-7.3l60.5-60.5h22.8L204.1,125.2z M474.3,102.4L426,150.8
				c-2.4,2.4-5.9,3.4-9.2,2.5c-3.3-0.9-5.9-3.5-6.8-6.8c-0.9-3.3,0.1-6.8,2.5-9.2l34.8-34.9H474.3z M376.2,102.4l-48.4,48.4
				c-2.4,2.4-5.9,3.4-9.2,2.5c-3.3-0.9-5.9-3.5-6.8-6.8c-0.9-3.3,0.1-6.8,2.5-9.2l34.8-34.9H376.2z M278.1,102.4l-48.4,48.4
				c-1.8,1.8-4.3,2.8-6.8,2.8c-3.9,0-7.4-2.3-8.8-5.9s-0.7-7.7,2.1-10.4l34.9-34.9H278.1z M34.1,51.2V25.6c0-4.7,3.8-8.5,8.5-8.5
				h426.7c4.7,0,8.5,3.8,8.5,8.5v25.6L34.1,51.2z M17.1,85.3V68.3h477.9v17.1L17.1,85.3L17.1,85.3z M33.5,150.8
				c-1.8,1.8-4.3,2.8-6.8,2.8c-3.9,0-7.4-2.3-8.8-5.9s-0.7-7.7,2.1-10.4l34.9-34.9h27.1L33.5,150.8z M131.6,150.8
				c-1.8,1.8-4.3,2.8-6.8,2.8c-3.9,0-7.4-2.3-8.8-5.9s-0.7-7.7,2.1-10.4l34.9-34.9H180L131.6,150.8z"/>
			<path d="M136.5,509.1c3,0,5.9-1.6,7.4-4.3c1.5-2.6,1.5-5.9,0-8.5l-4.3-7.4l7.4-4.3c2.7-1.5,4.3-4.3,4.3-7.4
				c0-3.1-1.6-5.9-4.3-7.4s-5.9-1.5-8.6,0l-7.4,4.3l-22.5-38.9h44.9v8.5c0,4.7,3.8,8.5,8.5,8.5s8.5-3.8,8.5-8.5v-8.5h8.5
				c4.7,0,8.5-3.8,8.5-8.5s-3.8-8.5-8.5-8.5h-8.5v-8.5c0-4.7-3.8-8.5-8.5-8.5s-8.5,3.8-8.5,8.5v8.5h-44.9l22.5-38.9l7.4,4.3
				c2,1.1,4.3,1.4,6.5,0.9c2.2-0.6,4.1-2,5.2-4c1.1-2,1.4-4.3,0.8-6.5s-2-4-4-5.2l-7.4-4.3l4.3-7.4c2.4-4.1,1-9.3-3.1-11.7
				c-4.1-2.4-9.3-1-11.7,3.1l-4.3,7.4l-7.4-4.3c-2.6-1.5-5.9-1.6-8.6,0s-4.3,4.4-4.3,7.4c0,3.1,1.7,5.9,4.3,7.4l7.4,4.3l-22.5,38.9
				l-22.5-38.9l7.4-4.3c2.7-1.5,4.3-4.3,4.3-7.4c0-3.1-1.6-5.9-4.3-7.4s-5.9-1.5-8.6,0l-7.4,4.3l-4.3-7.4c-1.5-2.6-4.3-4.3-7.4-4.3
				c-3,0-5.9,1.6-7.4,4.3c-1.5,2.6-1.5,5.9,0,8.5l4.3,7.4l-7.4,4.3c-4,2.4-5.4,7.6-3.1,11.6c2.3,4.1,7.5,5.5,11.6,3.2l7.4-4.3
				l22.5,38.9h-45v-8.5c0-4.7-3.8-8.5-8.5-8.5s-8.5,3.8-8.5,8.5v8.5H8.5c-4.7,0-8.5,3.8-8.5,8.5s3.8,8.5,8.5,8.5h8.5v8.5
				c0,4.7,3.8,8.5,8.5,8.5s8.5-3.8,8.5-8.5v-8.5h45l-22.5,38.9l-7.4-4.3c-2.6-1.5-5.9-1.6-8.6,0s-4.3,4.4-4.3,7.4
				c0,3.1,1.7,5.9,4.3,7.4l7.4,4.3l-4.3,7.4c-2.4,4.1-1,9.3,3.1,11.7c4.1,2.4,9.3,1,11.7-3.1l4.3-7.4l7.4,4.3c2.6,1.5,5.9,1.6,8.6,0
				s4.3-4.4,4.3-7.4c0-3.1-1.7-5.9-4.3-7.4l-7.4-4.3l22.5-38.9l22.5,38.9l-7.4,4.3c-2.7,1.5-4.3,4.3-4.3,7.4c0,3.1,1.6,5.9,4.3,7.4
				s5.9,1.5,8.6,0l7.4-4.3l4.3,7.4C130.7,507.5,133.5,509.1,136.5,509.1z"/>
		</g>
	</g>
</g>
</svg>
