<svg xmlns="http://www.w3.org/2000/svg" viewBox="0 0 338 496" width="338" height="496">
	<defs>
		<clipPath clipPathUnits="userSpaceOnUse" id="cp1">
			<path d="M0 1L337 1L337 495L0 495Z" />
		</clipPath>
	</defs>
	<style>
		tspan { white-space:pre }
		.shp0 { fill: #ffffff } 
		.shp1 { fill: #00223a } 
		.shp2 { fill: #00afd9 } 
		.shp3 { fill: #ec644b } 
		.shp4 { fill: #f4f4f4 } 
		.shp5 { opacity: 0.251;mix-blend-mode: multiply;fill: #3498db } 
		.shp6 { fill: #22313f } 
		.shp7 { opacity: 0.502;mix-blend-mode: soft-light;fill: #ffffff } 
		.shp8 { fill: #3498db } 
		.shp9 { mix-blend-mode: overlay;fill: #c4c4c4 } 
	</style>
	<g id="Page 1" clip-path="url(#cp1)">
		<path id="Path 1" class="shp0" d="M168.51,495l6.54,-3.02c40.92,-18.89 82.03,-37.48 121.71,-58.9c38.66,-20.86 37.34,-55.71 39.06,-94.72c2.71,-61.61 0.01,-123.33 0.01,-184.97v-10.92l-10.27,-3.73c-30.17,-10.96 -61.04,-22.35 -92.01,-30.79c-22.84,-6.22 -45.65,-10.53 -69.41,-10.27c-22.82,0.24 -44.69,4.66 -66.55,10.93c-29.11,8.34 -58.05,19.45 -86.35,30.21l-10.05,3.82v10.75c0,61.64 -2.69,123.36 0.01,184.97c1.72,39.01 0.4,73.86 39.06,94.72c39.69,21.41 80.79,40 121.71,58.9z" />
		<path id="Path 2" class="shp1" d="M16.78,153.4c0,62.09 -2.66,123.81 0,184.28c1.97,44.9 2.34,66.28 30.88,81.69c38.71,20.89 77.82,38.6 120.84,58.46c43.02,-19.86 82.13,-37.57 120.84,-58.46c28.55,-15.4 28.91,-36.79 30.89,-81.69c2.66,-60.47 0,-122.19 0,-184.28c-146.86,-53.34 -162.22,-53.69 -303.45,0z" />
		<path id="Path 3" class="shp0" d="M28.54,403.06c4.31,6.33 10.4,11.6 19.13,16.31c38.71,20.89 77.83,38.6 120.84,58.46c43.02,-19.86 82.13,-37.57 120.84,-58.46c8.73,-4.71 14.82,-9.98 19.13,-16.31c-40.61,-18.43 -88.58,-29.09 -139.97,-29.09c-51.4,0 -99.36,10.66 -139.97,29.09z" />
		<path id="Path 4" class="shp2" d="M38.93,413.81c2.58,1.95 5.47,3.79 8.74,5.56c38.71,20.89 77.83,38.6 120.84,58.46c43.02,-19.86 82.13,-37.57 120.84,-58.46c3.27,-1.76 6.17,-3.61 8.74,-5.56c-37.81,-16.29 -82.16,-25.67 -129.58,-25.67c-47.43,0 -91.78,9.38 -129.59,25.67z" />
		<path id="Path 5" class="shp0" d="M32.91,185.78l-5.38,2.3l5.54,2.45l2.3,5.38l2.45,-5.54l5.38,-2.3l-5.54,-2.45l-2.3,-5.38zM38.55,325.92l-5.38,2.3l5.54,2.45l2.3,5.39l2.45,-5.54l5.38,-2.3l-5.54,-2.45l-2.3,-5.38zM280.26,255.19l-5.38,2.3l5.54,2.45l2.3,5.38l2.45,-5.54l5.38,-2.3l-5.54,-2.45l-2.3,-5.38zM296.2,180.82l-3.26,1.39l3.35,1.48l1.39,3.26l1.48,-3.35l3.26,-1.39l-3.35,-1.49l-1.39,-3.26zM299.17,340.28l-5.38,2.3l5.54,2.45l2.3,5.38l2.45,-5.54l5.39,-2.3l-5.54,-2.45l-2.3,-5.38z" />
		<path id="Path 6" class="shp3" d="M144.9,168.17v-8.59l-6.25,9.2l-0.02,0.02v0.01l-8.74,12.85l-28.12,41.35l-7.06,10.38l-5.85,8.6l-16.82,24.74l-0.11,0.16l0.1,0.07v0.01l11.73,8.53l5.26,3.82l3.58,2.6l2.94,2.14l1.9,-1.76l0.01,-0.01l8.82,-8.14l30.91,-28.53l7.13,-6.58l0.01,-0.01l3.33,-3.07l3.69,-3.41zM71.93,266.89l0.1,0.08v-0.01c0,-0.08 0.01,-0.15 0.01,-0.23zM105.02,247.6c-0.87,-9.39 -2.07,-17.75 -3.25,-24.59l-7.06,10.38c0.38,2.65 0.74,5.45 1.07,8.37c0.07,0.56 0.13,1.13 0.19,1.71c0.44,4.07 0.82,8.37 1.11,12.85c0.04,0.52 0.07,1.04 0.11,1.56c0,0.1 0,0.2 0.01,0.3c0.2,3.41 0.35,6.93 0.42,10.52c0.02,0.89 0.03,1.79 0.04,2.69c0.01,0.95 0.02,1.9 0.02,2.86c0,0.75 -0.01,1.47 -0.02,2.18c0,0.35 -0.01,0.7 -0.02,1.04c-0.01,0.56 -0.02,1.11 -0.04,1.64c-0.04,0.98 -0.08,1.91 -0.14,2.81c0,0.13 -0.01,0.25 -0.02,0.38l0.01,-0.01l8.82,-8.14c-0.01,-9.43 -0.5,-18.38 -1.25,-26.55zM144.1,238.18c-0.03,-0.12 -0.07,-0.25 -0.09,-0.37c-0.19,-0.77 -0.38,-1.56 -0.57,-2.37c-0.02,-0.05 -0.03,-0.1 -0.03,-0.15c-0.1,-0.43 -0.2,-0.86 -0.3,-1.31c-0.04,-0.15 -0.07,-0.3 -0.1,-0.45c-0.13,-0.63 -0.27,-1.27 -0.4,-1.92c-0.03,-0.15 -0.06,-0.31 -0.09,-0.46c-0.08,-0.42 -0.17,-0.85 -0.25,-1.28c-0.09,-0.48 -0.18,-0.96 -0.27,-1.44c-0.09,-0.48 -0.17,-0.97 -0.26,-1.47c-0.17,-0.99 -0.34,-2 -0.5,-3.04c-0.11,-0.7 -0.21,-1.41 -0.32,-2.13c-0.09,-0.65 -0.18,-1.31 -0.27,-1.98c-0.34,-2.52 -0.64,-5.17 -0.91,-7.94c-0.09,-0.88 -0.17,-1.77 -0.25,-2.67c-0.03,-0.46 -0.07,-0.91 -0.11,-1.37c-0.08,-1.04 -0.16,-2.09 -0.23,-3.16c-0.04,-0.57 -0.08,-1.14 -0.11,-1.72c-0.2,-3.15 -0.35,-6.45 -0.44,-9.89c-0.02,-0.52 -0.03,-1.06 -0.04,-1.59c-0.01,-0.21 -0.01,-0.43 -0.02,-0.64c-0.02,-1 -0.04,-2 -0.05,-3.02c-0.02,-1.51 -0.03,-3.05 -0.03,-4.62c0,-1.46 0.01,-2.92 0.02,-4.37c0,-0.98 0.01,-1.97 0.03,-2.95c0.04,-2.38 0.09,-4.74 0.14,-7.09l-0.02,0.02v0.02l-8.74,12.84c0,0.51 -0.01,1.01 -0.01,1.53c0,11.28 0.5,21.23 1.35,30c1.31,13.38 3.45,24 5.95,32.43l7.13,-6.58l0.01,-0.01c-0.07,-0.28 -0.15,-0.56 -0.22,-0.85zM95.54,284.06l52.11,-48.1l1.01,-30.24l-1.36,-13.61l-63.53,83.38z" />
		<path id="Path 7" class="shp4" d="M97.66,271.39c-0.01,-0.9 -0.02,-1.8 -0.04,-2.69c-0.07,-3.59 -0.22,-7.11 -0.42,-10.52c-0.01,-0.1 -0.01,-0.2 -0.02,-0.3c-0.03,-0.53 -0.06,-1.05 -0.1,-1.56c-0.29,-4.48 -0.67,-8.78 -1.11,-12.85c-0.06,-0.57 -0.13,-1.14 -0.19,-1.71c-0.33,-2.92 -0.69,-5.72 -1.07,-8.37c-0.72,-5.06 -1.48,-9.58 -2.21,-13.41h-15.39c-2.08,11.02 -4.54,27.71 -5.07,46.75c0,0.08 -0.01,0.15 -0.01,0.23v0.01c-0.06,2.39 -0.1,4.82 -0.1,7.28c0,2.82 0.07,5.37 0.21,7.67c0.03,0.5 0.06,1 0.1,1.48c0.02,0.34 0.05,0.67 0.08,0.99c0.01,0.14 0.02,0.28 0.04,0.42c0.02,0.23 0.04,0.45 0.06,0.67c0.18,1.86 0.4,3.53 0.66,5.02h0.01c0.64,3.73 1.51,6.38 2.43,8.28c1.63,3.35 3.44,4.3 4.55,4.55c0.18,0.04 0.34,0.06 0.48,0.07c0.37,0.03 0.58,-0.02 0.58,-0.02h7.35c0,0 5.57,1.3 8.04,-12.88c0.01,-0.03 0.01,-0.06 0.02,-0.09c0.08,-0.5 0.17,-1.03 0.25,-1.57c0.15,-1.04 0.28,-2.16 0.4,-3.36c0.02,-0.22 0.04,-0.44 0.06,-0.67c0.02,-0.14 0.03,-0.28 0.04,-0.42c0.03,-0.32 0.06,-0.65 0.08,-0.99c0.03,-0.36 0.05,-0.73 0.07,-1.1l0.01,-0.01c0.01,-0.12 0.01,-0.25 0.02,-0.37c0.05,-0.9 0.1,-1.83 0.13,-2.81c0.02,-0.53 0.03,-1.08 0.04,-1.64c0.01,-0.34 0.02,-0.69 0.02,-1.04c0.01,-0.71 0.02,-1.43 0.02,-2.18c0,-0.96 -0.01,-1.91 -0.02,-2.86z" />
		<path id="Path 8" class="shp5" d="M97.66,271.39c-0.01,-0.9 -0.02,-1.8 -0.04,-2.69c-0.07,-3.59 -0.22,-7.11 -0.42,-10.52c-0.01,-0.1 -0.01,-0.2 -0.02,-0.3c-0.03,-0.53 -0.06,-1.05 -0.1,-1.56c-0.29,-4.48 -0.67,-8.78 -1.11,-12.85c-0.06,-0.57 -0.13,-1.14 -0.19,-1.71c-0.33,-2.92 -0.69,-5.72 -1.07,-8.37c-0.72,-5.06 -1.48,-9.58 -2.21,-13.41h-5.55c1.11,5.89 1.65,13.39 1.91,22.01c0.25,8.01 0.25,16.97 0.24,26.5v5.76c0,1.8 -0.03,3.49 -0.08,5.07c-0.04,0.9 -0.08,1.77 -0.13,2.6c-0.04,0.72 -0.09,1.42 -0.15,2.09c-0.02,0.11 -0.02,0.22 -0.03,0.33c-0.19,2.32 -0.45,4.37 -0.76,6.16c-1.96,11.21 -5.86,12.74 -7.4,12.9c0.37,0.03 0.58,-0.02 0.58,-0.02h7.35c0,0 5.57,1.3 8.04,-12.88c0.01,-0.03 0.01,-0.06 0.02,-0.09c0.08,-0.5 0.17,-1.03 0.25,-1.57c0.15,-1.04 0.28,-2.16 0.4,-3.36c0.02,-0.22 0.04,-0.44 0.06,-0.67c0.02,-0.14 0.03,-0.28 0.04,-0.42c0.03,-0.32 0.06,-0.65 0.08,-0.99c0.03,-0.36 0.05,-0.73 0.07,-1.1l0.01,-0.01c0.01,-0.12 0.01,-0.25 0.02,-0.37c0.05,-0.9 0.1,-1.83 0.13,-2.81c0.02,-0.53 0.03,-1.08 0.04,-1.64c0.01,-0.34 0.02,-0.69 0.02,-1.04c0.01,-0.71 0.02,-1.43 0.02,-2.18c0,-0.96 -0.01,-1.91 -0.02,-2.86z" />
		<path id="Path 9" class="shp3" d="M97.47,281.92c-0.01,0.12 -0.01,0.25 -0.02,0.37l-0.01,0.01c-0.02,0.37 -0.04,0.74 -0.07,1.1c-0.02,0.34 -0.05,0.67 -0.08,0.99c-0.01,0.14 -0.02,0.28 -0.04,0.42c-0.02,0.23 -0.04,0.45 -0.06,0.67c-0.12,1.2 -0.25,2.32 -0.4,3.36c-0.08,0.54 -0.17,1.07 -0.25,1.57c-0.01,0.03 -0.01,0.06 -0.02,0.09h-23.44c-0.26,-1.49 -0.48,-3.16 -0.66,-5.02c-0.02,-0.22 -0.04,-0.44 -0.06,-0.67c-0.02,-0.14 -0.03,-0.28 -0.04,-0.42c-0.03,-0.32 -0.06,-0.65 -0.08,-0.99c-0.04,-0.48 -0.07,-0.98 -0.1,-1.48zM92.5,219.98h-15.39c1.56,-8.23 7.67,-23.85 7.69,-23.91c0,0 0,0 0,0c0,0 0,0 0,0c0,0 0,0 0,0c0,0 6.14,15.67 7.7,23.91zM192.12,168.17v-8.59l72.87,107.16l-0.01,-0.01c0,0.08 0.01,0.16 0.01,0.24l0.1,-0.08l0,0l-11.84,8.61l0,0l-11.77,8.56l-1.91,-1.76c0,0 0,0 0,0l-8.51,-7.86l-41.69,-38.48l0,0l-3.69,-3.41l2.68,-26.83l0,0l1.36,-13.61l0,0zM265.09,266.89l-0.1,-0.15l0.1,0.15z" />
		<path id="Path 10" class="shp4" d="M244.52,219.98c-2.36,12.45 -5.19,32.13 -5.19,54.27c0,31.28 9.2,29.13 9.2,29.13h3.68h3.68c0,0 9.2,2.15 9.2,-29.13c0,-22.13 -2.83,-41.82 -5.18,-54.27z" />
		<path id="Path 11" class="shp5" d="M259.9,219.98h-5.55c2.36,12.45 2.15,32.13 2.15,54.27c0,26.35 -6.53,28.97 -8.58,29.15c0.38,0.03 0.61,-0.02 0.61,-0.02h3.68h3.68c0,0 9.2,2.15 9.2,-29.13c0,-22.13 -2.83,-41.82 -5.19,-54.27z" />
		<path id="Path 12" class="shp3" d="M239.55,281.92h25.33c0,0 0,0 0,0h-8.59c-0.2,3.35 -0.53,6.19 -0.94,8.58h-14.85c-0.42,-2.39 -0.75,-5.23 -0.94,-8.58zM263.93,290.5h0c0.28,-1.6 0.52,-3.41 0.71,-5.43c-0.19,2.02 -0.43,3.83 -0.71,5.43zM252.21,196.07c0,0 6.13,15.68 7.69,23.92h-15.38c1.56,-8.22 7.67,-23.85 7.69,-23.91c0,0 0,0 0,0c0,0 0,0 0,0c0,0 0,0 0,0zM263.93,290.5c0,0 0,0 0,0h-8.59c0,0 0,0 0,0zM264.88,281.92h0c-0.06,1.11 -0.14,2.16 -0.24,3.15c0.09,-1 0.17,-2.05 0.24,-3.15z" />
		<path id="Path 13" class="shp4" d="M198.53,178.82c0,-0.98 -0.01,-1.97 -0.03,-2.95c-0.02,-2.37 -0.06,-4.73 -0.12,-7.08v-0.01c-1.06,-45.73 -6.95,-85.91 -11.93,-112.22h-35.89c-4.98,26.31 -10.87,66.5 -11.93,112.24v0.02c-0.06,2.34 -0.1,4.69 -0.12,7.05c-0.02,0.98 -0.03,1.97 -0.03,2.95c-0.01,1.45 -0.02,2.91 -0.02,4.37c0,1.57 0.01,3.11 0.03,4.62c0.01,1.02 0.03,2.02 0.05,3.02c0.01,0.21 0.01,0.43 0.02,0.64c0.01,0.53 0.02,1.06 0.04,1.59c0.09,3.44 0.24,6.74 0.44,9.89c0.03,0.58 0.07,1.15 0.11,1.72c0.07,1.07 0.15,2.12 0.23,3.16c0.04,0.46 0.08,0.91 0.11,1.37c0.08,0.9 0.16,1.79 0.25,2.67c0.27,2.77 0.57,5.42 0.91,7.94c0.09,0.67 0.18,1.33 0.27,1.98c0.11,0.72 0.21,1.43 0.32,2.13c0.16,1.04 0.33,2.05 0.5,3.04c0.09,0.5 0.17,0.99 0.26,1.47c0.09,0.48 0.18,0.96 0.27,1.44c0.08,0.43 0.17,0.86 0.25,1.28c0.03,0.15 0.06,0.31 0.09,0.46c0.13,0.65 0.27,1.29 0.4,1.92c0.03,0.15 0.06,0.3 0.1,0.45c0.1,0.45 0.2,0.88 0.3,1.31c0,0.05 0.01,0.1 0.03,0.15c0.19,0.81 0.38,1.6 0.57,2.37c0.02,0.12 0.06,0.25 0.09,0.37c0.07,0.29 0.14,0.57 0.21,0.86c0.57,2.16 1.15,4.18 1.75,6.05c6.18,19.34 13.86,23.95 13.86,23.95h17.17c0,0 7.89,-4.74 14.1,-24.74l0.09,-0.29c0.29,-0.92 0.57,-1.88 0.84,-2.87c0.2,-0.69 0.39,-1.4 0.57,-2.12c0.08,-0.28 0.15,-0.56 0.22,-0.84c0.22,-0.89 0.44,-1.8 0.66,-2.74c0.31,-1.34 0.61,-2.73 0.9,-4.17c0.11,-0.58 0.23,-1.17 0.34,-1.76c0.1,-0.51 0.19,-1.01 0.28,-1.52c0.06,-0.34 0.12,-0.68 0.18,-1.03c0.04,-0.22 0.08,-0.44 0.11,-0.65c0.12,-0.73 0.25,-1.47 0.36,-2.22c0.12,-0.76 0.24,-1.52 0.35,-2.3c0.16,-1.16 0.32,-2.36 0.48,-3.58c0.05,-0.41 0.1,-0.82 0.15,-1.23c0.08,-0.68 0.16,-1.37 0.24,-2.07c0.11,-1 0.21,-2.01 0.31,-3.04c0.05,-0.5 0.1,-1.01 0.14,-1.51c0.02,-0.17 0.03,-0.34 0.05,-0.51c0.05,-0.65 0.11,-1.3 0.17,-1.97c0.04,-0.53 0.08,-1.06 0.11,-1.59c0.05,-0.53 0.09,-1.08 0.12,-1.62c0.04,-0.57 0.08,-1.14 0.11,-1.72c0.2,-3.15 0.35,-6.45 0.44,-9.89c0.02,-0.53 0.03,-1.06 0.04,-1.59c0.01,-0.21 0.01,-0.43 0.02,-0.64c0.02,-0.99 0.04,-2 0.05,-3.02c0.02,-1.51 0.03,-3.05 0.03,-4.62c0,-1.46 -0.01,-2.92 -0.02,-4.37z" />
		<path id="Path 14" class="shp5" d="M186.46,56.56h-9.36c5.49,29.04 8.59,74.98 8.59,126.63c0,72.97 -21.46,85.85 -21.46,85.85h4.29h8.59c0,0 21.46,-12.88 21.46,-85.85c0,-51.65 -6.6,-97.58 -12.1,-126.63z" />
		<path id="Path 15" class="shp3" d="M171.96,9.9c-1.91,-5.2 -3.27,-8.69 -3.44,-9.1v-0.01c-0.01,-0.02 -0.01,-0.03 -0.01,-0.03c0,0 -0.6,1.52 -1.57,4.11c-3.83,10.1 -13.48,36.39 -16.38,51.69h35.89c-2.49,-13.19 -10.01,-34.55 -14.49,-46.66zM177.09,56.56h9.36c-3.64,-19.23 -17.95,-55.8 -17.95,-55.8c0,0 6.44,27.9 8.59,55.8zM168.51,73.73c-7.11,0 -12.88,5.77 -12.88,12.88c0,7.11 5.77,12.88 12.88,12.88c7.11,0 12.88,-5.77 12.88,-12.88c0,-7.11 -5.77,-12.88 -12.88,-12.88z" />
		<path id="Path 16" class="shp6" d="M168.51,78.03c-4.74,0 -8.59,3.84 -8.59,8.58c0,4.74 3.84,8.59 8.59,8.59c4.74,0 8.59,-3.84 8.59,-8.59c0,-4.74 -3.84,-8.58 -8.59,-8.58z" />
		<path id="Path 17" class="shp7" d="M166.36,80.17c-2.37,0 -4.29,1.92 -4.29,4.29c0,2.37 1.92,4.29 4.29,4.29c2.37,0 4.29,-1.92 4.29,-4.29c0,-2.37 -1.92,-4.29 -4.29,-4.29z" />
		<path id="Path 18" class="shp3" d="M168.51,110.22c-7.11,0 -12.88,5.77 -12.88,12.88c0,7.11 5.77,12.88 12.88,12.88c7.11,0 12.88,-5.77 12.88,-12.88c0,-7.11 -5.77,-12.88 -12.88,-12.88z" />
		<path id="Path 19" class="shp6" d="M168.51,114.51c-4.74,0 -8.59,3.84 -8.59,8.58c0,4.74 3.84,8.59 8.59,8.59c4.74,0 8.59,-3.84 8.59,-8.59c0,-4.74 -3.84,-8.58 -8.59,-8.58z" />
		<path id="Path 20" class="shp7" d="M166.36,116.66c-2.37,0 -4.29,1.92 -4.29,4.29c0,2.37 1.92,4.29 4.29,4.29c2.37,0 4.29,-1.92 4.29,-4.29c0,-2.37 -1.92,-4.29 -4.29,-4.29z" />
		<path id="Path 21" class="shp3" d="M168.51,146.71c-7.11,0 -12.88,5.77 -12.88,12.88c0,7.11 5.77,12.88 12.88,12.88c7.11,0 12.88,-5.77 12.88,-12.88c0,-7.11 -5.77,-12.88 -12.88,-12.88z" />
		<path id="Path 22" class="shp6" d="M168.51,151c-4.74,0 -8.59,3.84 -8.59,8.58c0,4.74 3.84,8.59 8.59,8.59c4.74,0 8.59,-3.84 8.59,-8.59c0,-4.74 -3.84,-8.58 -8.59,-8.58z" />
		<path id="Path 23" class="shp7" d="M166.36,153.14c-2.37,0 -4.29,1.92 -4.29,4.29c0,2.37 1.92,4.29 4.29,4.29c2.37,0 4.29,-1.92 4.29,-4.29c0,-2.37 -1.92,-4.29 -4.29,-4.29z" />
		<path id="Path 24" class="shp3" d="M168.51,183.19c-7.11,0 -12.88,5.77 -12.88,12.88c0,7.11 5.77,12.88 12.88,12.88c7.11,0 12.88,-5.77 12.88,-12.88c0,-7.11 -5.77,-12.88 -12.88,-12.88z" />
		<path id="Path 25" class="shp6" d="M168.51,187.48c-4.74,0 -8.59,3.84 -8.59,8.58c0,4.74 3.84,8.59 8.59,8.59c4.74,0 8.59,-3.84 8.59,-8.59c0,-4.74 -3.84,-8.58 -8.59,-8.58z" />
		<path id="Path 26" class="shp7" d="M166.36,189.63c-2.37,0 -4.29,1.92 -4.29,4.29c0,2.37 1.92,4.29 4.29,4.29c2.37,0 4.29,-1.92 4.29,-4.29c0,-2.37 -1.92,-4.29 -4.29,-4.29z" />
		<path id="Path 27" class="shp3" d="M168.51,241.14h-23.61l10.73,36.49h12.88h12.88l10.73,-36.49zM179.24,241.14l-10.73,36.49h12.88l10.73,-36.49z" />
		<path id="Path 28" class="shp8" d="M168.51,288.36h-10.73l10.73,72.54l10.73,-72.54z" />
		<path id="Path 29" class="shp9" d="M168.51,288.36h-7.15l7.15,59.66l7.15,-59.66z" />
		<path id="Path 30" class="shp0" d="M179.24,277.63h-21.46l-4.29,10.73h30.05z" />
		<path id="Path 31" class="shp5" d="M179.24,277.63h-10.73l2.15,10.73h12.88zM157.78,277.63l-1.72,4.29h24.9l-1.72,-4.29z" />
	</g>
</svg>