<?xml version="1.0" encoding="utf-8"?>
<!-- Generator: Adobe Illustrator 22.1.0, SVG Export Plug-In . SVG Version: 6.00 Build 0)  -->
<svg version="1.1" id="Layer_1" xmlns="http://www.w3.org/2000/svg" xmlns:xlink="http://www.w3.org/1999/xlink" x="0px" y="0px"
	 viewBox="0 0 512 512" style="enable-background:new 0 0 512 512;" xml:space="preserve" fill="#fff">
<path d="M76.8,290.5H51.2c-4.7,0-8.5,3.8-8.5,8.5c0,4.7,3.8,8.5,8.5,8.5h25.6c4.7,0,8.5-3.8,8.5-8.5
	C85.3,294.4,81.5,290.5,76.8,290.5z"/>
<path d="M51.2,239.3h93.9c4.7,0,8.5-3.8,8.5-8.5c0-4.7-3.8-8.5-8.5-8.5H51.2c-4.7,0-8.5,3.8-8.5,8.5
	C42.7,235.5,46.5,239.3,51.2,239.3z"/>
<path d="M179.2,239.3h119.5c4.7,0,8.5-3.8,8.5-8.5c0-4.7-3.8-8.5-8.5-8.5H179.2c-4.7,0-8.5,3.8-8.5,8.5
	C170.7,235.5,174.5,239.3,179.2,239.3z"/>
<path d="M110.9,256.4H51.2c-4.7,0-8.5,3.8-8.5,8.5c0,4.7,3.8,8.5,8.5,8.5h59.7c4.7,0,8.5-3.8,8.5-8.5
	C119.5,260.2,115.6,256.4,110.9,256.4z"/>
<path d="M273.1,256.4h-128c-4.7,0-8.5,3.8-8.5,8.5c0,4.7,3.8,8.5,8.5,8.5h128c4.7,0,8.5-3.8,8.5-8.5
	C281.6,260.2,277.8,256.4,273.1,256.4z"/>
<path d="M366.9,367.3h59.7c4.7,0,8.5-3.8,8.5-8.5c0-4.7-3.8-8.5-8.5-8.5h-59.7c-4.7,0-8.5,3.8-8.5,8.5
	C358.4,363.5,362.2,367.3,366.9,367.3z"/>
<path d="M469.3,350.3h-8.5c-4.7,0-8.5,3.8-8.5,8.5c0,4.7,3.8,8.5,8.5,8.5h8.5c4.7,0,8.5-3.8,8.5-8.5
	C477.9,354.1,474,350.3,469.3,350.3z"/>
<path d="M375.5,384.4h-8.5c-4.7,0-8.5,3.8-8.5,8.5c0,4.7,3.8,8.5,8.5,8.5h8.5c4.7,0,8.5-3.8,8.5-8.5
	C384,388.2,380.2,384.4,375.5,384.4z"/>
<path d="M469.3,384.4h-59.7c-4.7,0-8.5,3.8-8.5,8.5c0,4.7,3.8,8.5,8.5,8.5h59.7c4.7,0,8.5-3.8,8.5-8.5
	C477.9,388.2,474,384.4,469.3,384.4z"/>
<path d="M51.2,205.2h85.3c9.4,0,17.1-7.6,17.1-17.1V85.7c0-9.4-7.6-17.1-17.1-17.1H51.2c-9.4,0-17.1,7.6-17.1,17.1v102.4
	C34.1,197.6,41.8,205.2,51.2,205.2z M51.2,85.7h85.3v102.4H51.2V85.7z"/>
<path d="M460.8,230.8h-85.3c-9.4,0-17.1,7.6-17.1,17.1v68.3c0,9.4,7.6,17.1,17.1,17.1h85.3c9.4,0,17.1-7.6,17.1-17.1v-68.3
	C477.9,238.4,470.2,230.8,460.8,230.8z M375.5,316.1v-68.3h85.3v68.3H375.5z"/>
<path d="M196.3,205.2h85.3c9.4,0,17.1-7.6,17.1-17.1V85.7c0-9.4-7.6-17.1-17.1-17.1h-85.3c-9.4,0-17.1,7.6-17.1,17.1v102.4
	C179.2,197.6,186.8,205.2,196.3,205.2z M196.3,85.7h85.3v102.4h-85.3V85.7z"/>
<path d="M477.9,145.5V68.7c0-23.6-19.1-42.6-42.7-42.7H42.7C19.1,26,0,45.1,0,68.7v307.2c0,23.6,19.1,42.6,42.7,42.7h136.5v17.1
	h-34.1c-18.9,0-34.1,15.3-34.1,34.1v8.5c0,4.7,3.8,8.5,8.5,8.5h358.4c18.9,0,34.1-15.3,34.1-34.1V179.6
	C512,160.8,496.7,145.5,477.9,145.5z M324.3,418.5v17.1h-25.6v-17.1H324.3z M426.7,145.5h-68.3c-6,0-11.9,1.7-17.1,4.7V85.7h85.3
	V145.5z M341.3,213.7h153.6v204.8H341.3V213.7z M494.9,179.6v17.1H341.3v-17.1c0-9.4,7.6-17.1,17.1-17.1h119.5
	C487.3,162.5,494.9,170.2,494.9,179.6z M42.7,43.1h392.5c14.1,0,25.6,11.5,25.6,25.6v76.8h-17.1V85.7c0-9.4-7.6-17.1-17.1-17.1
	h-85.3c-9.4,0-17.1,7.6-17.1,17.1v170.7h-17.1c-4.7,0-8.5,3.8-8.5,8.5c0,4.7,3.8,8.5,8.5,8.5h17.1v17.1H110.9
	c-4.7,0-8.5,3.8-8.5,8.5c0,4.7,3.8,8.5,8.5,8.5h213.3v25.6H17.1V68.7C17.1,54.5,28.5,43.1,42.7,43.1z M17.1,375.9v-25.6h307.2v51.2
	H42.7C28.5,401.5,17.1,390,17.1,375.9z M196.3,418.5h85.3v17.1h-85.3V418.5z M145.1,452.7h179.2c0,6,1.7,11.9,4.7,17.1H128
	C128,460.3,135.6,452.7,145.1,452.7z M477.9,469.7h-51.2v-8.5c0-4.7-3.8-8.5-8.5-8.5c-4.7,0-8.5,3.8-8.5,8.5v8.5h-51.2
	c-9.4,0-17.1-7.6-17.1-17.1v-17.1h153.6v17.1C494.9,462.1,487.3,469.7,477.9,469.7z"/>
</svg>
