<svg width="101" height="100" fill="none" xmlns="http://www.w3.org/2000/svg"><g opacity=".2" clip-path="url(#clip0)" fill="#C5D0D5"><path d="M53.99 67.677c-1.284 0-2.54.368-3.621 1.04a6.87 6.87 0 00-3.622-1.04c-3.826 0-6.94 3.17-6.94 7.068 0 2.211 1.596 4.873 4.88 8.138a51.39 51.39 0 004.495 3.952 1.953 1.953 0 002.375 0 51.357 51.357 0 004.494-3.952c3.284-3.265 4.88-5.927 4.88-8.138 0-3.898-3.114-7.068-6.94-7.068zm-3.622 15.105c-3.399-2.817-6.651-6.435-6.651-8.037 0-1.741 1.36-3.158 3.03-3.158.832 0 1.608.344 2.185.97a1.955 1.955 0 002.874 0 2.949 2.949 0 012.185-.97c1.67 0 3.03 1.417 3.03 3.158 0 1.598-3.254 5.217-6.653 8.037z"/><path d="M47.78 52.672C46.51 51.578 45 51.1 43.52 51.33c-9.188 1.42-13.569 8.601-13.75 8.907a1.955 1.955 0 003.357 2.003c.035-.06 3.6-5.904 10.99-7.046.443-.067.885.245 1.109.439.691.596 1.17 1.587 1.166 2.41a1.83 1.83 0 01-1.245 1.731c-3.644 1.212-6.154 2.65-7.46 4.276L30.2 73.367c-.772.961-1.838 1.493-2.918 1.456-.466-.015-.796-.165-1.103-.501-1.88-2.055-1.509-8.752-1.35-11.611.025-.442.047-.842.062-1.188.766-17.664 7.654-22.696 18.52-25.088l.673-.148a1.954 1.954 0 10-.842-3.819l-.672.149c-7.223 1.59-12.175 4.32-15.585 8.59-3.698 4.63-5.605 11.033-6 20.147-.015.332-.036.716-.06 1.14-.301 5.418-.391 11.45 2.369 14.467a5.36 5.36 0 003.858 1.77 6.88 6.88 0 00.645-.008c.049 3.183.773 6.24 2.157 9.093a1.955 1.955 0 103.517-1.708 17.536 17.536 0 01-1.769-7.725v-1.085a8.185 8.185 0 001.545-1.482l7.485-9.316c.793-.987 2.851-2.086 5.647-3.016a5.739 5.739 0 003.921-5.42c.012-1.975-.955-4.041-2.522-5.392zM36.565 90.57l-.05-.053a1.955 1.955 0 10-2.855 2.672l.084.088c.384.4.897.601 1.41.601a1.955 1.955 0 001.41-3.308zM67.73 36.323a29.426 29.426 0 00-9.244-3.864 1.955 1.955 0 00-.874 3.811 25.529 25.529 0 018.02 3.352 1.954 1.954 0 102.1-3.298zm5.477 4.513l-.104-.108a1.955 1.955 0 10-2.813 2.716l.088.09c.384.404.899.606 1.415.606a1.955 1.955 0 001.414-3.304zm4.377 5.898a1.955 1.955 0 10-3.404 1.923c1.972 3.493 2.13 7.588 2.13 12.58v5.957c0 6.879-1.576 16.54-9.082 23.506-1.375 1.276-4.016 2.568-7.64 3.737l-.383.103a3.092 3.092 0 01-2.46-.541 3.086 3.086 0 01-1.278-2.525 3.102 3.102 0 012.238-2.985c3.47-1.028 5.964-2.23 7.41-3.573 5.162-4.79 4.895-12.205 4.66-18.746-.052-1.41-.1-2.742-.1-4.047 0-.14-.015-.276-.042-.407a7.377 7.377 0 00.803-2.333c.591-3.647-1.776-6.73-3.678-9.207-.752-.979-1.888-2.458-1.9-2.983a1.955 1.955 0 00-3.909 0c0 1.839 1.255 3.473 2.708 5.365 1.52 1.978 3.24 4.22 2.92 6.2-.209 1.286-1.298 2.604-3.238 3.915a1.955 1.955 0 002.19 3.24c.108-.074.211-.148.316-.222l.022.62c.216 5.981.439 12.167-3.41 15.74-.974.903-3.056 1.858-5.862 2.69a6.987 6.987 0 00-5.037 6.725 6.956 6.956 0 001.462 4.314c-2.24.3-3.587.31-3.608.31-2.876 0-5.73-.704-8.254-2.036a1.955 1.955 0 00-1.825 3.458 21.668 21.668 0 0010.079 2.489c.185 0 4.495-.02 10.736-1.666a7.5 7.5 0 00.396-.106c.04-.01.08-.02.121-.032l.03-.01c.018-.005.036-.009.053-.015 4.244-1.365 7.32-2.915 9.141-4.605 6.759-6.273 10.331-15.392 10.331-26.372v-5.958c0-5.383-.199-10.188-2.636-14.503zM50.388 0c-2.25 0-4.384.496-6.306 1.378-3.537-2.391-8.38-1.594-10.952 1.866-2.644 3.558-1.901 8.604 1.656 11.249.14.103.288.184.441.246-.004.144-.01.287-.01.432v2.403c0 8.365 6.805 15.171 15.17 15.171 8.366 0 15.172-6.805 15.172-15.17V15.17C65.56 6.806 58.753 0 50.388 0zm-14.12 5.576a4.133 4.133 0 013.914-1.62 15.213 15.213 0 00-4.122 6.235 4.135 4.135 0 01.208-4.615zm14.12 23.26c-5.783 0-10.56-4.383-11.19-10.001 2.942-.221 9.308-1.134 13.532-4.89 2.922 3.277 6.916 4.41 8.86 4.783-.58 5.67-5.382 10.107-11.202 10.107zm4.209-18.943a1.955 1.955 0 00-3.262-.178c-2.928 3.96-9.289 4.95-12.202 5.198.138-6.09 5.132-11.003 11.255-11.003 6.064 0 11.022 4.82 11.25 10.83-1.894-.462-5.205-1.695-7.041-4.847z"/></g><defs><clipPath id="clip0"><path fill="#fff" transform="translate(.5)" d="M0 0h100v100H0z"/></clipPath></defs></svg>