<svg width="100" height="100" fill="none" xmlns="http://www.w3.org/2000/svg"><path d="M86.667 10.098V6.667a6.667 6.667 0 00-13.334 0V10h-6.666V6.667a6.667 6.667 0 00-13.334 0V10h-6.666V6.667a6.667 6.667 0 00-13.334 0V10h-6.666V6.667a6.667 6.667 0 00-13.334 0v3.431A15.017 15.017 0 000 25v60c.01 8.28 6.72 14.99 15 15h70c8.28-.01 14.99-6.72 15-15V25a15.017 15.017 0 00-13.333-14.902zm-10-3.431a3.333 3.333 0 116.666 0v10a3.333 3.333 0 11-6.666 0v-10zm-20 0a3.333 3.333 0 116.666 0v10a3.333 3.333 0 01-6.666 0v-10zm-20 0a3.333 3.333 0 116.666 0v10a3.333 3.333 0 11-6.666 0v-10zm-20 0a3.333 3.333 0 116.666 0v10a3.333 3.333 0 01-6.666 0v-10zM3.333 85V30h44.19a19.756 19.756 0 01-5.166 5.438c-.586.401-1.212.74-1.869 1.012a7.597 7.597 0 00-4.666 7.477 9.06 9.06 0 002.345 5.788l-.139.07A5.942 5.942 0 0035 53.583a19.772 19.772 0 00-8.333 17c0 9.969 4.546 15.397 8.843 18.307a27.543 27.543 0 00-1.78 7.777H15C8.56 96.659 3.34 91.44 3.333 85zm64.6-53.853a6.511 6.511 0 011.775 4.428c0 1.292.052 2.968.115 4.9.205 6.528.5 16.182-.918 23.452a74.984 74.984 0 01-25.612-7.977 10.85 10.85 0 00-4.615-2.467c.24-.309.545-.561.894-.74a4.313 4.313 0 012.863-.281c.071.02.143.034.217.043 1.415.376 2.794.878 4.12 1.5 1.008.432 2.05.877 3.12 1.247 1.662.462 3.374.723 5.098.776 2.705.047 5.38.58 7.895 1.574a1.667 1.667 0 001.44-3c-.242-.115-.487-.212-.73-.312A62.962 62.962 0 0164.567 30h.933c.932.04 1.809.453 2.433 1.147zm-7.868 22.12a44.707 44.707 0 00-4.818-.56 19.705 19.705 0 01-4.265-.604c-.957-.333-1.944-.753-2.897-1.166a26.946 26.946 0 00-4.797-1.709 6.028 6.028 0 01-4.121-5.408 4.277 4.277 0 012.598-4.288 13.08 13.08 0 001.782-.917 31.77 31.77 0 008.058 1.04c5.957 0 8.095-5.618 8.547-9.655h1a67.26 67.26 0 00-1.087 23.267zM51.6 36.322a28.632 28.632 0 01-4.65-.384 27.837 27.837 0 004.292-5.605.645.645 0 01.551-.333h4.975c-.33 2.333-1.435 6.322-5.168 6.322zM37.077 96.667a24.51 24.51 0 011.365-6.127 26.769 26.769 0 0011.225 2.397 28.33 28.33 0 003.281-.19 1.667 1.667 0 00-.383-3.31 23.41 23.41 0 01-14.122-2.635C32.922 83.607 30 78 30 70.575a16.48 16.48 0 016.615-14.012 7.221 7.221 0 014.478 1.894c.113.115.24.213.38.293a70.536 70.536 0 0018.379 6.928 22.31 22.31 0 001.88 9.24 98.833 98.833 0 016.49 21.749H37.077zm47.923 0H71.615c-.708-3.89-2.968-15.075-6.88-23.194a18.31 18.31 0 01-1.542-7.08c2.278.454 4.577.793 6.889 1.015h.133c.77 0 1.44-.527 1.62-1.275 1.883-7.833 1.543-18.623 1.32-25.768-.062-1.89-.113-3.53-.113-4.758A9.87 9.87 0 0071.272 30h25.395v55C96.659 91.44 91.44 96.66 85 96.667zm11.667-70H3.333V25a11.677 11.677 0 0110-11.533v3.2a6.667 6.667 0 0013.334 0v-3.334h6.666v3.334a6.667 6.667 0 0013.334 0v-3.334h6.666v3.334a6.667 6.667 0 0013.334 0v-3.334h6.666v3.334a6.667 6.667 0 0013.334 0v-3.2a11.677 11.677 0 0110 11.533v1.667z" fill="#C5D0D5" opacity=".2"/></svg>