<svg width="24" height="24" fill="none" xmlns="http://www.w3.org/2000/svg"><path d="M16.852 1.522a7.01 7.01 0 00-3.727 1.072c-.214.116-1.842 1.057-1.59 2.771.093.626.424 1.074.745 1.507.452.61.883 1.194.766 2.375-.007-.004-.013-.008-.02-.01a1.393 1.393 0 00-1.072-.085 1.396 1.396 0 00-.773.616 1.756 1.756 0 00-1.244-.495c-.021-.235-.01-.39.005-.563a3.572 3.572 0 00-.016-.857c-.102-.759-.537-1.421-1.223-1.866-.827-.537-1.94-.694-2.902-.411a3.33 3.33 0 00-2.257 4.11c.15.517.424.994.795 1.38a1 1 0 01.288.731c-.03.748.073 1.49.307 2.208.503 1.535 1.596 2.805 3.078 3.574a6.338 6.338 0 002.925.727 6.06 6.06 0 001.77-.264c.32-.098.633-.221.932-.367a3.8 3.8 0 001.822-1.92c.2-.468.303-.967.308-1.469.222.04.456.029.684-.044.73-.236 1.136-1.034.904-1.779l-.36-1.155a2.333 2.333 0 00-1.62-1.564 2.335 2.335 0 00-1.468.077c.34-1.865-.328-2.768-.876-3.507-.274-.371-.512-.692-.57-1.085-.166-1.129 1.061-1.786 1.112-1.812a6.073 6.073 0 013.277-.958c3.424 0 6.21 2.863 6.21 6.382 0 3.862-3.032 7.107-5.575 9.149A31.664 31.664 0 0112 21.489a31.767 31.767 0 01-5.207-3.277.469.469 0 00-.577.739c2.8 2.188 5.474 3.432 5.587 3.484a.468.468 0 00.393 0c.12-.055 2.968-1.381 5.862-3.702 1.711-1.371 3.077-2.805 4.06-4.262C23.366 12.621 24 10.726 24 8.841c0-4.036-3.207-7.32-7.148-7.32zm-7.532 9.38c.212-.186.442-.388.566-.688a.809.809 0 01.819.481l-.196.384-1.356-.027a8.01 8.01 0 01.167-.15zm4.12.621l.156-.306a1.4 1.4 0 011.535-.568 1.4 1.4 0 01.971.938l.36 1.155a.482.482 0 01-.297.607.469.469 0 01-.575-.263l-.274-.88a.469.469 0 10-.895.279l.281.903a2.866 2.866 0 01-1.476 3.445c-.254.124-.52.23-.793.312-2.703.825-5.729-.747-6.608-3.432a5.303 5.303 0 01-.261-1.877 1.95 1.95 0 00-.55-1.42 2.39 2.39 0 011.05-3.94c.235-.07.48-.103.726-.103.499 0 .998.138 1.403.4.32.208.72.586.804 1.206.04.29.026.46.01.656-.019.239-.04.51.026.967.038.263-.014.317-.332.596a6.822 6.822 0 00-.29.266l-.003.003-.006.006a.884.884 0 00-.205.959c.13.33.444.547.8.554l1.608.032a.755.755 0 00.687-.41l.678-1.332a.466.466 0 01.631-.204.465.465 0 01.205.63l-.024.047a2.351 2.351 0 00-.198.388l-.457.896a1.707 1.707 0 01-1.54.923l-2.027-.041a.468.468 0 10-.02.937l2.028.041c.28.005.559-.034.828-.118a2.66 2.66 0 001.213-.793l.33 1.061a.469.469 0 10.895-.279l-.417-1.34c-.093-.3-.081-.616.022-.9zm-7.955 5.596l-.013-.012a.469.469 0 00-.627.698l.014.012a.467.467 0 00.662-.036.469.469 0 00-.036-.662z" fill="#FF6D8D"/><path d="M10.889 2.604a7.008 7.008 0 00-3.741-1.082C3.207 1.522 0 4.805 0 8.842c0 2.548 1.146 5.087 3.407 7.545a.467.467 0 00.662.028.469.469 0 00.028-.663C2 13.472.937 11.148.937 8.842c0-3.52 2.786-6.383 6.21-6.383 1.148 0 2.27.325 3.242.938a.469.469 0 10.5-.793zm5.963 1.146a.469.469 0 100 .938h.003a.468.468 0 10-.003-.938zm4.072 2.164a4.981 4.981 0 00-2.322-1.84.469.469 0 10-.336.875c1.57.603 2.625 2.168 2.625 3.892a.469.469 0 10.937 0 5.141 5.141 0 00-.904-2.927z" fill="#FF6D8D"/></svg>