<svg width="42" height="42" fill="none" xmlns="http://www.w3.org/2000/svg"><path d="M37.265 7.028c-5.65 0-9.576-1.807-11.874-3.323C22.894 2.058 21.717.385 21.707.37a.857.857 0 00-.705-.37h-.003a.86.86 0 00-.704.37c-.012.016-1.19 1.688-3.686 3.335-2.298 1.516-6.223 3.323-11.873 3.323a.857.857 0 00-.858.857v12.986c.087 3.778.336 7.182 2.51 10.576 2.418 3.774 6.947 7.102 14.253 10.474a.855.855 0 00.718 0c7.306-3.372 11.835-6.7 14.253-10.474 2.174-3.394 2.423-6.798 2.51-10.576V7.885a.857.857 0 00-.857-.857zm-.858 13.814c-.083 3.636-.302 6.658-2.238 9.68-2.196 3.426-6.385 6.506-13.169 9.676-6.784-3.17-10.973-6.25-13.168-9.676-1.936-3.022-2.156-6.044-2.24-9.68V8.729c5.666-.175 9.654-2.055 12.04-3.645C19.244 4.009 20.352 2.931 21 2.21c.65.721 1.756 1.8 3.369 2.874 2.385 1.59 6.373 3.47 12.038 3.645v12.113z" fill="#fff"/><path d="M17.109 8.13a.857.857 0 00-1.156-.366c-2.319 1.207-4.928 2.016-7.756 2.404a.857.857 0 00.233 1.699c3.023-.416 5.82-1.284 8.314-2.582a.857.857 0 00.365-1.156zm2.631-1.791a.857.857 0 00-1.198-.182c-.1.074-.202.148-.308.222a.857.857 0 00.988 1.4c.116-.08.228-.162.337-.242a.857.857 0 00.182-1.198zM21 10.16c-6.144 0-11.143 5-11.143 11.144S14.856 32.447 21 32.447c6.144 0 11.143-4.999 11.143-11.143 0-6.144-4.999-11.143-11.143-11.143zm0 20.572a9.417 9.417 0 01-7.402-3.593c1.631-1.506 3.757-2.473 6.062-2.743a.857.857 0 00.181-1.662 3.538 3.538 0 01-2.377-3.34A3.54 3.54 0 0121 15.858a3.54 3.54 0 013.536 3.536 3.538 3.538 0 01-2.377 3.34.857.857 0 00.18 1.662c2.306.27 4.432 1.236 6.063 2.742A9.417 9.417 0 0121 30.733zm3.686-7.6a5.251 5.251 0 001.564-3.738 5.256 5.256 0 00-5.25-5.25 5.256 5.256 0 00-5.25 5.25c0 1.435.585 2.771 1.564 3.737a12.34 12.34 0 00-4.661 2.554 9.37 9.37 0 01-1.082-4.381c0-5.2 4.23-9.429 9.429-9.429s9.429 4.23 9.429 9.429a9.37 9.37 0 01-1.082 4.38 12.34 12.34 0 00-4.66-2.553z" fill="#fff"/></svg>