<svg width="42" height="42" fill="none" xmlns="http://www.w3.org/2000/svg"><g clip-path="url(#clip0)" fill="#fff"><path d="M40.265 19.233l-.466-1.666a.82.82 0 00-1.58.442l.466 1.666a.883.883 0 01-.148.778.883.883 0 01-.71.352h-.091a.85.85 0 00-.066.003c-.184-1.991-1.988-5.65-2.203-6.081a.82.82 0 00-1.468.733c.791 1.583 2.046 4.518 2.046 5.654 0 .918-.236 1.825-.682 2.623a.821.821 0 00-.095.521l.895 6.011h-11.02l.895-6.011a.82.82 0 00-.096-.52 5.392 5.392 0 01-.68-2.624c0-1.136 1.254-4.071 2.045-5.654a.82.82 0 00-1.468-.733c-.216.432-2.027 4.104-2.204 6.093a.815.815 0 00-.157-.015.883.883 0 01-.709-.352.883.883 0 01-.148-.778l2.003-7.162a4.115 4.115 0 013.95-2.997h4.158a4.115 4.115 0 013.95 2.997.82.82 0 101.58-.442 5.765 5.765 0 00-4.288-4.058 4.41 4.41 0 001.109-2.927V4.43A4.435 4.435 0 0030.653 0a4.435 4.435 0 00-4.43 4.43v.656a4.41 4.41 0 001.11 2.927 5.765 5.765 0 00-4.289 4.058l-2.003 7.162a2.51 2.51 0 00-.04.173 2.634 2.634 0 00-.042-.172l-2.003-7.163a5.765 5.765 0 00-4.288-4.058 4.41 4.41 0 001.109-2.927V4.43A4.435 4.435 0 0011.347 0a4.435 4.435 0 00-4.43 4.43v.656a4.41 4.41 0 001.11 2.927 5.765 5.765 0 00-4.289 4.058l-2.003 7.162a2.51 2.51 0 00.421 2.212 2.51 2.51 0 002.016 1 .82.82 0 00.263-.043 7.03 7.03 0 00.634 1.881l-.995 6.686a.82.82 0 00.811.941h2.36v5.24a4.119 4.119 0 00-3.291 4.03c0 .453.367.82.82.82H17.92a.82.82 0 00.82-.82 4.119 4.119 0 00-3.292-4.03v-5.24h2.36a.82.82 0 00.812-.941l-.995-6.686a7.034 7.034 0 00.63-1.857c.056.013.115.02.175.02h.092a2.51 2.51 0 002.016-1.002 2.54 2.54 0 00.462-1.01c.076.36.23.705.462 1.01a2.51 2.51 0 002.016 1.002.82.82 0 00.263-.044 7.03 7.03 0 00.634 1.881l-.995 6.686a.82.82 0 00.811.941h2.36v5.24a4.119 4.119 0 00-3.291 4.03c0 .453.367.82.82.82h13.146a.82.82 0 00.82-.82 4.119 4.119 0 00-3.291-4.03v-5.24h2.36a.82.82 0 00.811-.941l-.995-6.686a7.028 7.028 0 00.63-1.857c.056.013.115.02.175.02h.092a2.51 2.51 0 002.016-1.002 2.51 2.51 0 00.42-2.21zM27.864 4.43a2.792 2.792 0 012.79-2.79 2.792 2.792 0 012.788 2.79v.656a2.792 2.792 0 01-2.789 2.789 2.792 2.792 0 01-2.789-2.79V4.43zM11.347 1.64a2.792 2.792 0 012.789 2.79v.656a2.792 2.792 0 01-2.79 2.789 2.792 2.792 0 01-2.788-2.79V4.43a2.792 2.792 0 012.789-2.79zm-.82 38.72H5.734a2.476 2.476 0 012.332-1.652h2.46v1.651zm0-3.292H8.886V31.91h1.64v5.158zm6.432 3.291h-4.792v-1.65h2.461c1.075 0 1.992.69 2.331 1.65zm-4.792-3.291V31.91h1.64v5.158h-1.64zm7.064-16.615a.883.883 0 01-.71.352h-.091a.845.845 0 00-.066.003c-.184-1.991-1.988-5.65-2.203-6.081a.82.82 0 00-1.468.733c.791 1.583 2.045 4.518 2.045 5.654 0 .918-.235 1.825-.68 2.623a.82.82 0 00-.096.521l.895 6.011H5.837l.244-1.64h4.84a.82.82 0 000-1.64H6.326l.407-2.731a.821.821 0 00-.096-.52 5.393 5.393 0 01-.68-2.624c0-1.136 1.254-4.071 2.044-5.654a.82.82 0 00-1.467-.733c-.216.432-2.027 4.104-2.204 6.093a.815.815 0 00-.157-.015.883.883 0 01-.709-.352.883.883 0 01-.148-.778l2.003-7.162a4.115 4.115 0 013.95-2.997h4.158a4.115 4.115 0 013.95 2.997l2.003 7.162a.883.883 0 01-.148.778zM31.473 31.91h1.641v5.158h-1.64V31.91zm-1.64 8.45H25.04a2.476 2.476 0 012.33-1.652h2.462v1.651zm0-3.292h-1.64V31.91h1.64v5.158zm6.433 3.291h-4.793v-1.65h2.461c1.076 0 1.992.69 2.332 1.65z"/><path d="M38.79 14.35a.827.827 0 00-.58-.24.83.83 0 00-.58.24.825.825 0 000 1.16c.153.153.364.24.58.24a.826.826 0 00.58-.24.826.826 0 00.24-.58.826.826 0 00-.24-.58zM14.392 27.229a.826.826 0 00-.58-.24.826.826 0 00-.58.24.827.827 0 00-.24.58c0 .215.087.427.24.58.152.152.364.24.58.24a.823.823 0 00.58-1.4z"/></g><defs><clipPath id="clip0"><path fill="#fff" d="M0 0h42v42H0z"/></clipPath></defs></svg>