<svg width="42" height="42" fill="none" xmlns="http://www.w3.org/2000/svg"><path d="M11.41 10.248a.827.827 0 00-.58-.24.827.827 0 00-.58.24.827.827 0 00-.241.58c0 .216.088.428.24.58.153.153.364.24.58.24a.823.823 0 00.58-1.4z" fill="#fff"/><path d="M38.063 0H12.47a2.464 2.464 0 00-2.461 2.46v5.128a.82.82 0 101.64 0V2.46c0-.452.369-.82.82-.82h25.593a.82.82 0 01.82.82v37.078a.82.82 0 01-.82.82H23.977a2.45 2.45 0 00.141-.82V23.757a4.33 4.33 0 00-1.922-3.603l-1.195-.8v-.135c.49-.284.82-.813.82-1.418v-2.953c0-.905-.736-1.641-1.64-1.641H5.414c-.905 0-1.64.736-1.64 1.64v2.954c0 .605.33 1.134.82 1.418v.134l-1.195.801a4.33 4.33 0 00-1.922 3.603v15.782A2.464 2.464 0 003.937 42h34.127a2.464 2.464 0 002.46-2.46V2.46A2.464 2.464 0 0038.063 0zM5.413 14.848H20.18V17.8H5.414v-2.953zm17.063 24.691c0 .452-.368.82-.82.82H3.937a.821.821 0 01-.82-.82V23.757c0-.901.446-1.738 1.194-2.24l1.559-1.045a.82.82 0 00.363-.681v-.35H19.36v.35a.82.82 0 00.364.681l1.559 1.045a2.692 2.692 0 011.195 2.24v15.782z" fill="#fff"/><path d="M31.294 3.281a3.45 3.45 0 00-3.445 3.446 3.45 3.45 0 003.445 3.445 3.45 3.45 0 003.446-3.445 3.45 3.45 0 00-3.446-3.446zm0 5.25c-.995 0-1.804-.81-1.804-1.804 0-.996.81-1.805 1.804-1.805.996 0 1.805.81 1.805 1.805 0 .995-.81 1.804-1.805 1.804zm-12.056-5.25a3.45 3.45 0 00-3.445 3.446 3.45 3.45 0 003.445 3.445 3.45 3.45 0 003.446-3.445 3.45 3.45 0 00-3.446-3.446zm0 5.25c-.995 0-1.804-.81-1.804-1.804 0-.996.81-1.805 1.804-1.805.995 0 1.805.81 1.805 1.805 0 .995-.81 1.804-1.805 1.804zm12.056 4.261a3.45 3.45 0 00-3.445 3.445 3.45 3.45 0 003.445 3.446 3.45 3.45 0 003.446-3.446 3.45 3.45 0 00-3.446-3.445zm0 5.25c-.995 0-1.804-.81-1.804-1.805 0-.995.81-1.804 1.804-1.804.996 0 1.805.81 1.805 1.804 0 .995-.81 1.805-1.805 1.805zm0 4.26a3.45 3.45 0 00-3.445 3.446 3.45 3.45 0 003.445 3.445 3.45 3.45 0 003.446-3.445 3.45 3.45 0 00-3.446-3.446zm0 5.25c-.995 0-1.804-.81-1.804-1.804 0-.995.81-1.805 1.804-1.805.996 0 1.805.81 1.805 1.805 0 .995-.81 1.804-1.805 1.804zm0 4.261a3.45 3.45 0 00-3.445 3.445 3.45 3.45 0 003.445 3.446 3.45 3.45 0 003.446-3.446 3.45 3.45 0 00-3.446-3.445zm0 5.25c-.995 0-1.804-.81-1.804-1.805 0-.995.81-1.804 1.804-1.804.996 0 1.805.81 1.805 1.804 0 .996-.81 1.805-1.805 1.805zm-15.216-9.911h-.82v-.82a2.464 2.464 0 00-2.461-2.46 2.464 2.464 0 00-2.461 2.46v.82h-.82a2.464 2.464 0 00-2.461 2.461 2.464 2.464 0 002.46 2.461h.82v.82a2.464 2.464 0 002.462 2.462 2.464 2.464 0 002.46-2.462v-.82h.821a2.464 2.464 0 002.461-2.46 2.464 2.464 0 00-2.46-2.462zm0 3.282h-1.64a.82.82 0 00-.82.82v1.64a.821.821 0 01-1.641 0v-1.64a.82.82 0 00-.82-.82H9.515a.821.821 0 010-1.641h1.64a.82.82 0 00.82-.82v-1.641a.821.821 0 011.641 0v1.64a.82.82 0 00.82.821h1.641a.821.821 0 010 1.64zm9.188-24.528a.82.82 0 00-.82.82v10.419a.82.82 0 101.64 0V6.727a.82.82 0 00-.82-.82zm.581 13.694a.827.827 0 00-.58-.24.823.823 0 00-.58 1.4c.152.152.363.24.58.24a.828.828 0 00.58-.24.827.827 0 00.24-.58.827.827 0 00-.24-.58z" fill="#fff"/></svg>