<svg width="42" height="42" fill="none" xmlns="http://www.w3.org/2000/svg"><g clip-path="url(#clip0)" fill="#fff"><path d="M26.679 16.151a4.1 4.1 0 004.099-4.091 4.101 4.101 0 00-4.099-4.094 4.101 4.101 0 00-4.099 4.093 4.1 4.1 0 004.099 4.092zm0-6.545c1.356 0 2.458 1.1 2.458 2.453a2.457 2.457 0 01-2.458 2.451 2.457 2.457 0 01-2.458-2.45 2.459 2.459 0 012.458-2.454zM16.56 17.789a.82.82 0 00.82-.82v-.005a.818.818 0 00-.82-.818.822.822 0 000 1.643zm13.361 1.099a.82.82 0 001.641 0v-.005a.818.818 0 00-.82-.818c-.453 0-.82.37-.82.823zM18.206 12.03a.82.82 0 00.82-.82v-.004a.818.818 0 00-.82-.818.822.822 0 000 1.643zm5.134 10.72a.82.82 0 00.82-.82v-.006a.818.818 0 00-.82-.818.822.822 0 000 1.643z"/><path d="M42 17.108c0-3.195-.89-6.31-2.575-9.007a.82.82 0 10-1.392.869 15.344 15.344 0 012.326 8.138c0 2.505-.61 4.962-1.77 7.166a10.198 10.198 0 00-1.469-1.086 13.61 13.61 0 001.434-6.08c0-7.513-6.125-13.625-13.653-13.625-7.529 0-13.654 6.112-13.654 13.625 0 1.458.23 2.886.68 4.255a8.984 8.984 0 00-1.529 1.092 15.268 15.268 0 01-.956-5.347c0-8.504 6.935-15.422 15.459-15.422 2.926 0 5.773.818 8.233 2.367a.82.82 0 10.875-1.388A17.066 17.066 0 0024.9.045c-9.429 0-17.1 7.654-17.1 17.063 0 2.335.465 4.593 1.38 6.722-.503.762-.758 1.553-.758 2.363 0 .913.336 1.817.976 2.65l-1.14 1.136a2.21 2.21 0 00-.653 1.579c0 .596.233 1.154.651 1.57l.83.83a.894.894 0 01.262.638.893.893 0 01-.263.638.911.911 0 01-1.285 0L5.834 33.27a2.555 2.555 0 00-3.603 0 2.525 2.525 0 00-.745 1.8c0 .681.265 1.32.744 1.798l.436.438c.11.11.17.257.17.414a.58.58 0 01-.17.413L.24 40.554a.82.82 0 101.16 1.161l2.425-2.422c.42-.42.652-.979.652-1.574a2.21 2.21 0 00-.65-1.574l-.437-.437a.895.895 0 01-.263-.639.9.9 0 01.263-.639.911.911 0 011.285 0l1.967 1.966c.994.99 2.61.99 3.603 0 .48-.48.745-1.119.745-1.8a2.53 2.53 0 00-.744-1.8l-.83-.83a.575.575 0 01-.17-.41.58.58 0 01.17-.415l1.144-1.139c.842.649 1.74.973 2.643.973a3.99 3.99 0 001.388-.256 17.079 17.079 0 007.344 3.194c.963 4.587 5.047 8.042 9.925 8.042 5.591 0 10.14-4.54 10.14-10.119 0-2.387-.833-4.582-2.223-6.314A17.013 17.013 0 0042 17.108zm-29.112 0c0-6.608 5.389-11.984 12.013-11.984 6.623 0 12.012 5.376 12.012 11.984 0 1.86-.434 3.693-1.259 5.344a10.103 10.103 0 00-3.794-.735c-4.526 0-8.368 2.974-9.668 7.067a12.016 12.016 0 01-3.93-1.689c.534-1.056.84-2.181.84-3.205 0-1.072-.335-1.973-.97-2.607-.914-.911-2.344-1.192-4.029-.79a7.482 7.482 0 00-.67.194 11.94 11.94 0 01-.545-3.579zM11.103 28.3c-.474-.472-1.039-1.222-1.039-2.107 0-.735.384-1.49 1.141-2.246.887-.885 2.113-1.58 3.279-1.858.37-.088.72-.131 1.038-.131.622 0 1.128.166 1.452.488.404.403.488 1.008.488 1.445 0 1.387-.8 3.118-1.993 4.307-1.483 1.479-2.952 1.513-4.366.102zm5.03 1.509a7.17 7.17 0 00.495-.45c.272-.271.527-.564.762-.873 1.352.89 2.86 1.536 4.435 1.898a10.148 10.148 0 00-.098 1.82 15.439 15.439 0 01-5.594-2.395zM31.86 40.315c-4.686 0-8.5-3.804-8.5-8.479 0-4.675 3.814-8.479 8.5-8.479 4.687 0 8.5 3.804 8.5 8.479 0 4.675-3.813 8.479-8.5 8.479z"/><path d="M35.529 26.466a.82.82 0 00-1.627.215c.04.308.044.6.02.878h-4.124a3.949 3.949 0 01.02-.877.82.82 0 10-1.627-.216c-.342 2.57 1.102 4.36 2.292 5.37-1.19 1.01-2.634 2.799-2.292 5.37a.82.82 0 001.627-.216 3.95 3.95 0 01-.02-.877h4.123c.025.278.022.57-.019.877a.82.82 0 101.627.215 5.444 5.444 0 00-.143-2.179c-.396-1.432-1.333-2.495-2.151-3.19 1.19-1.01 2.634-2.8 2.294-5.37zM33.382 29.2c-.416.704-1 1.25-1.522 1.64-.524-.39-1.108-.935-1.524-1.64h3.046zm-3.046 5.273c.416-.704 1-1.25 1.524-1.64.522.39 1.106.936 1.522 1.64h-3.046zm5.497-28.269a.815.815 0 001.159-.002.822.822 0 00-1.161-1.161.82.82 0 000 1.16l.002.003z"/></g><defs><clipPath id="clip0"><path fill="#fff" d="M0 0h42v42H0z"/></clipPath></defs></svg>