<svg width="42" height="42" fill="none" xmlns="http://www.w3.org/2000/svg"><path d="M39.995 1.898A2.63 2.63 0 0037.473 0a2.628 2.628 0 00-2.625 2.625 2.628 2.628 0 002.625 2.625 2.63 2.63 0 002.423-1.615c.28.193.463.515.463.88v2.16c0 4.701-2.956 8.824-7.383 10.342a10.892 10.892 0 01-7.383-10.342v-2.16c0-.361.181-.68.456-.874a2.63 2.63 0 002.42 1.609 2.628 2.628 0 002.626-2.625A2.628 2.628 0 0028.47 0a2.63 2.63 0 00-2.523 1.902 2.715 2.715 0 00-1.994 2.613v2.16c0 2.69.84 5.258 2.428 7.428a12.483 12.483 0 005.816 4.377v8.81a1.088 1.088 0 01-2.174 0v-4.383a2.73 2.73 0 00-2.727-2.727 2.73 2.73 0 00-2.728 2.727v7.686a4.108 4.108 0 00-3.281 4.02 4.106 4.106 0 004.101 4.1 4.106 4.106 0 004.102-4.1 4.108 4.108 0 00-3.281-4.02v-7.686a1.088 1.088 0 012.174 0v4.383a2.73 2.73 0 002.727 2.728 2.73 2.73 0 002.728-2.728v-8.84c2.3-.86 4.273-2.351 5.733-4.346A12.493 12.493 0 0042 6.675v-2.16c0-1.25-.852-2.305-2.005-2.617zM37.473 3.61a.985.985 0 010-1.968.985.985 0 010 1.968zM28.47 1.641a.985.985 0 010 1.968.985.985 0 010-1.968zm-.62 32.971a2.464 2.464 0 01-2.462 2.461 2.464 2.464 0 01-2.46-2.46 2.464 2.464 0 012.46-2.462 2.464 2.464 0 012.461 2.461zm5.706-1.306a.826.826 0 00-.58-.24.826.826 0 00-.58.24.827.827 0 00-.24.581.825.825 0 00.82.82.823.823 0 00.82-.82.828.828 0 00-.24-.58z" fill="#fff"/><path d="M36.75 18.713a.82.82 0 00-.82.82V39.54c0 .452-.368.82-.82.82h-1.313v-3.764a.82.82 0 00-1.64 0v3.764H2.46a.821.821 0 01-.82-.82V16.57c0-.452.368-.82.82-.82h17.035a.82.82 0 000-1.64H2.461A2.464 2.464 0 000 16.57v22.97A2.464 2.464 0 002.46 42h32.65a2.464 2.464 0 002.46-2.46V19.533a.82.82 0 00-.82-.82z" fill="#fff"/><path d="M23.74 14.35a.825.825 0 00-.58-.24.826.826 0 00-.58.24.827.827 0 00-.24.58c0 .215.087.427.24.58.152.152.364.24.58.24a.824.824 0 00.82-.82.823.823 0 00-.24-.58zm-7.45 6.871a5.492 5.492 0 00-3.43 1.216 5.491 5.491 0 00-3.43-1.216c-3.056 0-5.542 2.54-5.542 5.663 0 .416.08.863.239 1.34h-.764a.82.82 0 000 1.64H4.91c.72 1.193 1.82 2.527 3.297 3.995a47.512 47.512 0 004.155 3.654.819.819 0 00.997 0 47.491 47.491 0 004.155-3.654c2.865-2.848 4.318-5.195 4.318-6.975 0-3.122-2.486-5.663-5.542-5.663zm.078 11.463a47.12 47.12 0 01-3.508 3.132 47.023 47.023 0 01-3.497-3.12c-1.12-1.114-1.92-2.05-2.488-2.831h1.46a.82.82 0 00.76-.512l.7-1.726 2.027 4.765a.82.82 0 001.447.119l1.68-2.646h1.425a.82.82 0 000-1.641H14.5a.82.82 0 00-.693.38l-1.085 1.71-2.189-5.146a.82.82 0 00-.754-.5H9.77a.82.82 0 00-.754.512l-1.235 3.044H5.884c-.28-.616-.355-1.053-.355-1.34 0-2.218 1.75-4.022 3.901-4.022 1.079 0 2.083.444 2.827 1.25a.82.82 0 001.206 0 3.812 3.812 0 012.826-1.25c2.151 0 3.901 1.804 3.901 4.022 0 .746-.496 2.49-3.822 5.8zm9.601 1.348a.826.826 0 00-1.16 0 .826.826 0 000 1.16c.152.153.363.24.58.24a.828.828 0 00.58-.24.827.827 0 00.24-.58.828.828 0 00-.24-.58z" fill="#fff"/></svg>