<svg width="42" height="42" fill="none" xmlns="http://www.w3.org/2000/svg"><g clip-path="url(#clip0)" fill="#fff"><path d="M29.12 5.424c-5.156-2.114-11.059-2.091-16.194.063l-.036.015c-1.253.526-2.007 1.723-1.874 2.977a.82.82 0 101.632-.172c-.056-.529.296-1.048.877-1.291L13.56 7a19.629 19.629 0 0114.937-.058c.606.248.963.785.887 1.335a.82.82 0 101.625.224c.18-1.303-.58-2.54-1.89-3.077z"/><path d="M41.131 8.633a4.718 4.718 0 00-6.485-1.201l-1.266.84a10.997 10.997 0 01-8.035 1.677l-1.209-.214a18.214 18.214 0 00-6.272 0l-1.209.214A10.997 10.997 0 018.62 8.273l-1.266-.841A4.718 4.718 0 00.87 8.633c-1.424 2.004-1.062 4.808.825 6.384l1.886 1.575.021.017a.093.093 0 01.033.061c.136.965.636 1.92 1.408 2.693.754.754 1.69 1.252 2.633 1.4 1.024.16 1.98-.116 2.621-.757.642-.642.918-1.598.758-2.622-.149-.944-.646-1.879-1.4-2.633-.701-.7-1.571-1.186-2.45-1.366a1.083 1.083 0 01-.517-.286 2.394 2.394 0 00-.107-.095L4.69 11.427a.067.067 0 01-.01-.084c.02-.03.054-.037.085-.016l1.266.84a15.713 15.713 0 006.745 2.507c1.066 1.628 1.328 3.517.712 5.225a6.396 6.396 0 00-.373 2.49c.067 1.38.58 2.722 1.483 3.881a13.66 13.66 0 012.911 8.472v2.583c0 .453.367.82.82.82h5.335a.82.82 0 00.82-.82v-2.582c0-3.004 1.038-5.96 3.002-8.55.931-1.228 1.424-2.652 1.424-4.118a6.4 6.4 0 00-.352-2.093c-.606-1.758-.354-3.677.69-5.308a15.667 15.667 0 006.72-2.506l1.24-.825c.04-.026.088-.024.101-.01.007.006.02.019.02.047a.064.064 0 01-.021.047l-1.889 1.577c-.04.034-.08.07-.122.11a6.473 6.473 0 01-1.507 1.093 5.253 5.253 0 00-1.21.861c-.775.734-1.298 1.655-1.472 2.594-.19 1.02.06 1.982.684 2.641.624.66 1.572.962 2.6.83.947-.122 1.895-.594 2.67-1.327 1.01-.955 1.57-2.194 1.534-3.362l1.71-1.427c1.886-1.576 2.249-4.38.824-6.384zM27.008 20.517c.174.503.262 1.027.262 1.558 0 1.105-.377 2.186-1.09 3.127-2.182 2.877-3.335 6.176-3.335 9.54v1.763H19.15v-1.763c0-3.467-1.127-6.745-3.258-9.48-.694-.891-1.088-1.912-1.138-2.952a4.763 4.763 0 01.278-1.855c.665-1.847.544-3.845-.311-5.66.595 0 1.193-.033 1.79-.101l.003.483a6.447 6.447 0 002.065 4.682l1.6 1.479v2.102a.82.82 0 001.64 0v-2.102l1.6-1.479a6.447 6.447 0 002.065-4.681l.003-.484c.598.068 1.202.103 1.8.103h.027c-.837 1.817-.957 3.837-.307 5.72zm12.247-6.76l-1.89 1.578c-.303.253-.46.64-.417 1.037.075.71-.322 1.59-1.012 2.242-.517.49-1.156.814-1.753.891-.295.038-.843.046-1.198-.33-.604-.637-.272-1.973.724-2.915a3.64 3.64 0 01.832-.593 8.106 8.106 0 001.931-1.404l1.888-1.576a1.706 1.706 0 00.089-2.536c-.57-.55-1.473-.622-2.147-.175l-1.242.825a14.005 14.005 0 01-9.72 2.22 1.305 1.305 0 00-1.491 1.287l-.005.86a4.8 4.8 0 01-1.537 3.486L21 19.862l-1.307-1.208a4.8 4.8 0 01-1.537-3.486l-.005-.86a1.305 1.305 0 00-1.492-1.287 14.054 14.054 0 01-9.72-2.22l-1.264-.84a1.696 1.696 0 00-2.332.431 1.712 1.712 0 00.297 2.294l1.887 1.577.033.028c.38.36.836.603 1.314.701.568.117 1.143.443 1.62.919.503.504.845 1.133.938 1.728.047.294.07.841-.296 1.206-.365.366-.913.343-1.207.297-.594-.094-1.224-.436-1.727-.94-.515-.514-.859-1.156-.944-1.761a1.736 1.736 0 00-.624-1.107l-1.888-1.577a3.113 3.113 0 01-.54-4.173 3.085 3.085 0 014.24-.786l1.266.841a12.628 12.628 0 009.23 1.926l1.207-.214c1.866-.33 3.837-.33 5.701 0l1.21.214a12.63 12.63 0 009.228-1.926l1.266-.84a3.085 3.085 0 014.24.785 3.113 3.113 0 01-.54 4.173z"/><path d="M21.597 25.32a.826.826 0 00-1.16 0 .823.823 0 00.58 1.401.824.824 0 00.82-.82.828.828 0 00-.24-.58zm1.141 2.612a.82.82 0 00-1.16 0 .79.79 0 01-1.117 0 .82.82 0 00-1.16 1.16 2.42 2.42 0 001.718.711c.622 0 1.245-.237 1.719-.71a.82.82 0 000-1.16z"/></g><defs><clipPath id="clip0"><path fill="#fff" d="M0 0h42v42H0z"/></clipPath></defs></svg>