<svg width="43" height="43" fill="none" xmlns="http://www.w3.org/2000/svg"><g clip-path="url(#clip0)" fill="#fff"><path d="M2.8 24.067c.088.064.174.125.25.182.284.188.463.496.487.835v2.079a7.065 7.065 0 003.052 5.74 6.287 6.287 0 00.763 7.627 6.33 6.33 0 007.582 1.248 6.294 6.294 0 003.18-6.978h1.73a6.294 6.294 0 003.181 6.976 6.33 6.33 0 007.582-1.25 6.287 6.287 0 00.762-7.626 7.065 7.065 0 003.051-5.737v-2.079a1.007 1.007 0 01.43-.84 9.89 9.89 0 01.316-.227c.195-.134.403-.28.573-.42a1.69 1.69 0 00.787-1.299V20.8a.7.7 0 00-.702-.7h-3.497c.929-1.975 2.834-2.8 6.305-2.8 1.163 0 2.105-.94 2.105-2.1 0-1.16-.942-2.1-2.105-2.1-4.723 0-7.988 1.526-9.73 4.533-2.718-1.966-7.44-2.343-9.222-2.415V1.2a.701.701 0 00-1.403 0v.7h-.702C8.663 1.91 1.44 9.112 1.43 18v4.298c0 .792.759 1.334 1.368 1.769zM11.96 41.1a4.913 4.913 0 01-4.54-3.025 4.89 4.89 0 011.065-5.34 4.923 4.923 0 015.355-1.062 4.9 4.9 0 013.033 4.527 4.912 4.912 0 01-4.913 4.9zm5.65-7.7a6.312 6.312 0 00-10.16-1.604 5.705 5.705 0 01-2.51-4.633v-2.079a2.47 2.47 0 00-1.042-1.95 9.567 9.567 0 00-.281-.205 4.79 4.79 0 01-.782-.631V21.5h24.767a18.06 18.06 0 00-.2 2.8c0 4.5-2.527 5.613-2.824 5.727-.07.028-.133.06-.198.09a6.329 6.329 0 00-4.033 3.283H17.61zm8.388 7.7a4.909 4.909 0 01-4.852-4.269 4.9 4.9 0 013.597-5.363h.074l.065-.036a4.921 4.921 0 014.962 1.696 4.89 4.89 0 01.6 5.197 4.915 4.915 0 01-4.446 2.775zm9.135-18.869a.966.966 0 01-.276.277c-.155.127-.33.248-.491.361-.135.094-.264.184-.368.264a2.398 2.398 0 00-.981 1.951v2.079a5.705 5.705 0 01-2.51 4.633 6.429 6.429 0 00-.854-.725 11.279 11.279 0 001.96-6.771c-.01-.94.077-1.878.262-2.8h3.252l.006.732zm3.499-7.731a.701.701 0 110 1.4c-4.58 0-7.044 1.451-7.99 4.711a13.642 13.642 0 00-.433 3.689 9.84 9.84 0 01-1.796 6.08 6.299 6.299 0 00-1.484-.404c.938-1.04 1.876-2.794 1.876-5.676a15.403 15.403 0 01.328-3.348c.143-.665.353-1.314.627-1.936 1.375-3.039 4.277-4.516 8.872-4.516zm-10.338 4.429c-.149.383-.277.774-.383 1.171h-8.23v-3.48c1.754.079 6.342.462 8.613 2.309zM18.277 3.3v14.823l-7.59-13.11A14.672 14.672 0 0117.575 3.3h.702zM9.48 5.728l7.617 13.16-12.746-7.34a14.8 14.8 0 015.129-5.82zM2.835 18c.004-1.763.327-3.51.955-5.158L16.396 20.1H2.835V18z"/><path d="M11.96 34.1c-1.163 0-2.106.94-2.106 2.1 0 1.16.943 2.1 2.106 2.1 1.163 0 2.105-.94 2.105-2.1 0-1.16-.942-2.1-2.105-2.1zm0 2.8a.7.7 0 11-.002-1.402.7.7 0 01.002 1.402zm14.037-2.8c-1.163 0-2.105.94-2.105 2.1 0 1.16.942 2.1 2.105 2.1s2.106-.94 2.106-2.1c0-1.16-.943-2.1-2.106-2.1zm0 2.8a.7.7 0 11-.002-1.402.7.7 0 01.002 1.402zM9.152 23.6H7.046a.701.701 0 100 1.4h2.106a.7.7 0 100-1.4zm16.144.7a.7.7 0 00-.702-.7H11.96a.701.701 0 100 1.4h12.634a.7.7 0 00.702-.7z"/></g><defs><clipPath id="clip0"><path fill="#fff" transform="translate(.027 .5)" d="M0 0h42.114v42H0z"/></clipPath></defs></svg>