<svg width="42" height="42" fill="none" xmlns="http://www.w3.org/2000/svg"><path d="M21.996 21.505a4.826 4.826 0 00-6.776.753 4.826 4.826 0 00.753 6.776 4.797 4.797 0 003.006 1.054 4.814 4.814 0 003.77-1.807 4.826 4.826 0 00-.753-6.776zm-.529 5.75a3.184 3.184 0 01-4.47.497 3.184 3.184 0 01-.496-4.47 3.175 3.175 0 012.486-1.192c.697 0 1.399.228 1.984.696a3.184 3.184 0 01.496 4.47zM5.666 20.43a.823.823 0 00-1.16 0 .825.825 0 00-.24.58.823.823 0 00.82.821.826.826 0 00.58-.24.827.827 0 00.24-.58.825.825 0 00-.24-.58zm8.666-10.607a.82.82 0 00-1.045-.096.82.82 0 00-1.045 1.257c.28.279.65.432 1.045.432.395 0 .766-.153 1.045-.432a.82.82 0 000-1.16z" fill="#fff"/><path d="M18.282 25.799a.82.82 0 00-1.627.15 1.48 1.48 0 001.478 1.477.82.82 0 00.15-1.627z" fill="#fff"/><path d="M20.99 32.845l.336-.303a5.792 5.792 0 013.888-1.496.82.82 0 00.112-1.632 7.523 7.523 0 001.387-4.784l.002-.03v-3.737c0-4.433-3.606-8.039-8.04-8.039h-1.724a6.683 6.683 0 002.314-5.057V6.698A6.706 6.706 0 0012.567 0a6.656 6.656 0 00-2.81.62 3.53 3.53 0 00-4.826.803 3.53 3.53 0 00.726 4.934.82.82 0 00.217.115c-.002.075-.005.15-.005.226v1.069c0 2.017.898 3.828 2.314 5.057h-.144C3.606 12.824 0 16.43 0 20.864v9.816C0 36.922 5.078 42 11.32 42h2.482c2.887 0 5.66-1.062 7.81-2.989a2.627 2.627 0 00.878-1.885 2.636 2.636 0 00-.137-.938c.332-.086.652-.236.94-.454l.242-.185a2.792 2.792 0 011.679-.565.82.82 0 000-1.64c-.959 0-1.907.319-2.67.898l-.244.185a1.03 1.03 0 01-1.649-.851 1.02 1.02 0 01.338-.73zM6.247 2.402a1.887 1.887 0 011.888-.721A6.715 6.715 0 006.21 4.594a1.888 1.888 0 01.039-2.192zm6.319-.761a5.062 5.062 0 015.054 4.924c-.842-.2-2.387-.751-3.225-2.19a.82.82 0 00-1.368-.074c-1.333 1.801-4.24 2.233-5.517 2.336a5.062 5.062 0 015.056-4.996zM7.535 8.282c1.286-.091 4.185-.487 6.078-2.199 1.315 1.502 3.14 2 3.988 2.157a5.064 5.064 0 01-5.034 4.584 5.064 5.064 0 01-5.032-4.542zm13.316 28.79a1 1 0 01-.335.718 10.04 10.04 0 01-6.714 2.57H11.32c-5.337 0-9.68-4.343-9.68-9.68v-9.817a6.406 6.406 0 016.399-6.398h10.637c3.331 0 6.075 2.56 6.37 5.815a7.548 7.548 0 00-1.153-1.148c-3.253-2.602-8.016-2.073-10.618 1.18l-6.652 8.315c-.271.34-.51.697-.717 1.07v-5.88a.82.82 0 00-1.64 0v6.863c0 4.07 3.312 7.382 7.382 7.382h2.33a8.498 8.498 0 005.24-1.816 1.008 1.008 0 011.633.826zm-.624-5.748l-.337.304a2.646 2.646 0 00-.879 1.896c-.01.33.04.652.143.955a2.65 2.65 0 00-.952.478 6.851 6.851 0 01-4.224 1.465h-2.33a5.747 5.747 0 01-5.076-3.063.82.82 0 00.04-.223 5.865 5.865 0 011.292-3.485l6.652-8.314a5.92 5.92 0 018.313-.924 5.92 5.92 0 01.923 8.313l-.822 1.027a7.434 7.434 0 00-2.743 1.571zm17.675-13.687h-.323l.903-.904a.82.82 0 00-.58-1.4h-2.304a.82.82 0 000 1.64h.324l-.904.904a.82.82 0 00.58 1.4h2.304a.82.82 0 000-1.64zm-6.658 4.846h-.324l.904-.903a.82.82 0 00-.58-1.4H28.94a.82.82 0 000 1.64h.323l-.903.904a.82.82 0 00.58 1.4h2.304a.82.82 0 000-1.64zM41.18 9.139h-.463l1.042-1.042a.82.82 0 00-.58-1.4h-2.442a.82.82 0 100 1.64h.462l-1.042 1.042a.82.82 0 00.58 1.4h2.442a.82.82 0 100-1.64z" fill="#fff"/></svg>