<svg width="42" height="42" fill="none" xmlns="http://www.w3.org/2000/svg"><path d="M7.846.24a.827.827 0 00-.58-.24.827.827 0 00-.58.24.827.827 0 00-.24.58c0 .216.088.428.24.58.153.153.364.24.58.24a.827.827 0 00.58-.24.827.827 0 00.24-.58.827.827 0 00-.24-.58zm26.672 20.302a.81.81 0 00-.093-.23 14.454 14.454 0 00-1.249-2.354l-.451-.689a.816.816 0 00-.077-.099c.135-.295.211-.623.211-.969a3.49 3.49 0 00-3.486-3.486h-1.93c.465-.646.74-1.439.74-2.294 0-1.171-.5-2.292-1.37-3.075L18.887.228a.82.82 0 10-1.096 1.22l7.924 7.119c.525.472.827 1.147.827 1.854a2.297 2.297 0 01-2.294 2.294h-.085a.819.819 0 00-.137.011l-8.177 1.387a.042.042 0 01-.037-.01c-.016-.014-.016-.028-.016-.035V5.25a.82.82 0 10-1.64 0v8.818a1.683 1.683 0 001.968 1.663l8.108-1.376h5.14c1.018 0 1.846.828 1.846 1.846a.698.698 0 01-.698.697h-6.193a.82.82 0 00-.312.062l-8.806 3.62a5.162 5.162 0 01-7.124-4.774V3.364a.82.82 0 10-1.64 0v12.444a6.803 6.803 0 003.486 5.938v3.142c0 .653-.105 1.298-.311 1.918a23.807 23.807 0 00-.36 13.884l.195.707a.82.82 0 001.581-.436l-.195-.707a22.171 22.171 0 01.337-12.931 7.705 7.705 0 00.394-2.436v-2.49a6.85 6.85 0 004.262-.3l8.656-3.558h6.031c.336 0 .655-.072.944-.2l.34.518c.428.655.79 1.335 1.089 2.033a2.134 2.134 0 01-2.126 1.974 3.778 3.778 0 00-3.682 2.953c-.051 0-.103.001-.154.006-.482.038-1.2.28-1.88 1.22-.107.148-.315.215-.567.23a3.77 3.77 0 00.963-2.52 3.79 3.79 0 00-3.785-3.785 3.79 3.79 0 00-3.786 3.785c0 .668.175 1.295.479 1.84a.825.825 0 00-.024.094 7.408 7.408 0 00.068 2.605c.393 1.9 1.513 3.322 3.239 4.116 1.249.574 2.345.812 3.285.812 1.886 0 3.147-.956 3.761-2.074.055.07.103.149.122.202.156.559.733.877 1.44.793.887-.106 1.86-.825 1.898-2.154.031-1.084-.634-2.304-1.655-3.037-.49-.351-1.009-.55-1.523-.592a2.008 2.008 0 00-.33-.771 2.134 2.134 0 012.131-2.082 3.764 3.764 0 002.861-1.318 12.843 12.843 0 01-3.248 11.604 5.9 5.9 0 00-1.623 4.074v2.314a.82.82 0 001.64 0v-2.314c0-1.1.417-2.146 1.174-2.945a14.592 14.592 0 003.925-8.702 14.59 14.59 0 00-.98-6.676zm-12.855 2.067c1.183 0 2.145.962 2.145 2.144a2.147 2.147 0 01-2.145 2.145 2.147 2.147 0 01-2.145-2.145c0-1.182.962-2.144 2.145-2.144zm7.073 6.383c.323-.007.626.168.798.291.56.402.986 1.13.971 1.657-.005.199-.063.344-.177.445a.525.525 0 01-.13.084c-.261-.466-.755-1.026-1.44-1.098-.285-.03-1 0-1.485.937-.583 1.127-2.189 1.878-4.949.609-1.944-.894-2.375-2.66-2.432-3.82a3.762 3.762 0 002.4.388c.4.165 2.928 1.123 4.089-.48.237-.327.492-.532.68-.547.11-.008.2.05.26.108.033.056.107.274-.004.579-.253.698-1.263 1.335-2.77 1.748a.82.82 0 00.434 1.582c2.325-.637 3.334-1.626 3.755-2.483z" fill="#fff"/></svg>