<svg width="42" height="42" fill="none" xmlns="http://www.w3.org/2000/svg"><path d="M41.185 10.474a2.786 2.786 0 00-4.752 1.968v10.065a2.868 2.868 0 00-1.198.617l-5.717 4.966a11.156 11.156 0 00-3.843 8.427v4.662a.82.82 0 101.64 0v-4.663a9.516 9.516 0 013.279-7.187l5.717-4.966a1.24 1.24 0 011.3-.202c.347.15.604.444.703.808.1.365.03.749-.192 1.054L33.31 32.65a.82.82 0 001.327.965l4.814-6.628c.516-.71.679-1.604.447-2.451a2.864 2.864 0 00-1.823-1.954v-10.14a1.144 1.144 0 012.285 0v2.57a.82.82 0 001.641 0v-2.57c0-.744-.29-1.443-.815-1.968z" fill="#fff"/><path d="M41.18 20.18a.82.82 0 00-.82.82l-.001 8.645c0 1.784-.494 3.53-1.426 5.051l-3.712 6.055a.82.82 0 001.398.857l3.713-6.054a11.302 11.302 0 001.667-5.91V21a.82.82 0 00-.82-.82zm.579-2.974a.82.82 0 10-1.16 1.159.82.82 0 001.16-1.16zM12.482 28.09l-5.717-4.966a2.869 2.869 0 00-1.198-.617V12.44a2.786 2.786 0 00-2.784-2.783c-.743 0-1.442.29-1.968.816A2.765 2.765 0 000 12.44v17.203a11.3 11.3 0 001.669 5.91l3.712 6.054a.82.82 0 101.398-.858l-3.712-6.054a9.66 9.66 0 01-1.425-5.052L1.64 12.441c0-.305.118-.592.334-.808a1.144 1.144 0 011.951.808v10.14a2.868 2.868 0 00-1.823 1.955 2.864 2.864 0 00.447 2.451l4.814 6.627a.82.82 0 101.327-.964l-4.813-6.627a1.23 1.23 0 01-.192-1.054c.1-.364.356-.659.702-.808a1.243 1.243 0 011.301.202l5.717 4.965a9.516 9.516 0 013.278 7.188v4.663a.82.82 0 101.64 0v-4.663c0-3.234-1.4-6.305-3.842-8.426zM32.857 7.606a5.884 5.884 0 00-3.596-2.76 5.884 5.884 0 00-4.494.592 5.884 5.884 0 00-2.76 3.596 7.84 7.84 0 00-.223 2.873l.085.799a14.17 14.17 0 01-.404 5.186l-.01.042a4.357 4.357 0 00.437 3.328 4.357 4.357 0 002.664 2.044 4.361 4.361 0 004.854-1.91 34.048 34.048 0 004.028-9.257l.01-.04c.41-1.527.2-3.123-.59-4.493zm-.993 4.07l-.01.039a32.412 32.412 0 01-3.835 8.811 2.732 2.732 0 01-3.039 1.196 2.73 2.73 0 01-1.667-1.28 2.728 2.728 0 01-.274-2.084l.01-.041c.508-1.892.66-3.838.451-5.785l-.085-.799a6.203 6.203 0 01.177-2.274 4.29 4.29 0 015.244-3.028 4.287 4.287 0 013.028 5.244zM29.145 1.84a.824.824 0 00-1.16 0 .826.826 0 00-.24.58.823.823 0 001.4.58.822.822 0 000-1.16zm2.681.896a.827.827 0 00-.58-.24.827.827 0 00-.58.24.827.827 0 00-.24.58.823.823 0 001.4.58.825.825 0 00.24-.58.827.827 0 00-.24-.58zm1.88 1.647a.823.823 0 00-1.16 0 .825.825 0 00-.24.58.823.823 0 00.82.82.826.826 0 00.58-.24.826.826 0 00.24-.58.825.825 0 00-.24-.58zM35.134 6.7a.82.82 0 10-1.16 1.16.82.82 0 001.16-1.16zm-8.392-5.144a2.101 2.101 0 00-2.57-1.484 2.085 2.085 0 00-1.275.978 2.085 2.085 0 00-.21 1.592c.146.542.493.995.978 1.275a2.085 2.085 0 001.593.21 2.085 2.085 0 001.274-.978c.28-.486.355-1.051.21-1.593zm-1.63.772a.455.455 0 01-.626.168.456.456 0 01-.168-.626.455.455 0 01.396-.229.459.459 0 01.397.687z" fill="#fff"/><path d="M20.545 21.67l-.011-.042a14.153 14.153 0 01-.404-5.186l.085-.798a7.842 7.842 0 00-.223-2.874 5.93 5.93 0 00-7.254-4.187 5.884 5.884 0 00-3.596 2.759 5.883 5.883 0 00-.591 4.494l.01.04a34.046 34.046 0 004.029 9.256 4.36 4.36 0 004.854 1.91A4.357 4.357 0 0020.107 25a4.358 4.358 0 00.438-3.328zm-1.859 2.508a2.728 2.728 0 01-1.667 1.28 2.732 2.732 0 01-3.038-1.196c-1.71-2.733-3-5.697-3.835-8.811l-.01-.04a4.287 4.287 0 014.142-5.391c.742 0 1.474.194 2.134.575a4.254 4.254 0 011.995 2.6c.2.744.259 1.509.177 2.274l-.085.799a15.786 15.786 0 00.45 5.784l.011.043c.19.708.093 1.448-.274 2.083zm-4.672-18.6a.823.823 0 00-1.16 0 .825.825 0 00-.24.58c0 .215.088.426.24.58a.83.83 0 00.58.24.826.826 0 00.58-.24.828.828 0 00.24-.58.825.825 0 00-.24-.58zm-2.68.894a.827.827 0 00-.58-.24.827.827 0 00-.58.24.827.827 0 00-.24.58c0 .216.088.427.24.58.153.153.365.24.58.24a.827.827 0 00.58-.24.829.829 0 00.24-.58.828.828 0 00-.24-.58zM9.453 8.119a.827.827 0 00-.58-.24.826.826 0 00-.58.24.827.827 0 00-.24.58.83.83 0 00.24.58c.153.152.364.24.58.24a.827.827 0 00.58-.24.827.827 0 00.24-.58.827.827 0 00-.24-.58zm-1.428 2.316a.823.823 0 00-1.16 0 .823.823 0 000 1.16c.153.153.365.24.58.24a.826.826 0 00.58-.24.826.826 0 00.24-.58.827.827 0 00-.24-.58zm11.077-5.649a2.1 2.1 0 00-3.635 2.099 2.109 2.109 0 001.82 1.05c.364 0 .723-.096 1.046-.283a2.08 2.08 0 00.978-1.274 2.085 2.085 0 00-.21-1.592zm-1.375 1.167a.455.455 0 01-.561.324.455.455 0 01-.324-.56.459.459 0 01.885.236zm-7.303 29.314a.826.826 0 00-.58-.24.826.826 0 00-.58.24.827.827 0 00-.24.58.823.823 0 00.82.82.826.826 0 00.58-.24.826.826 0 00.24-.58.827.827 0 00-.24-.58z" fill="#fff"/></svg>