<svg width="1920" height="1400" fill="none" xmlns="http://www.w3.org/2000/svg"><path fill-rule="evenodd" clip-rule="evenodd" d="M664.336 239.007C729.623 305.03 787.45 363.51 854.879 381.185c236.971 62.119 308.251-4.471 361.061-53.8 39-36.435 67.92-63.453 146.08-22.236 206.43 108.86 305.89 47.026 388.29-4.199 77.01-47.877 139.11-86.486 259.71 32.199 33.03 32.509 57.82 86.463 83.98 143.41 36.18 78.755 74.99 163.233 141.87 204.627h208.24c35.25-14.45 74.35-35.415 117.91-64.037 45.11-29.645 562.9 235.833-79.42 229.96-40.4 178.831-189.3 435.181-587.72 534.081-314.4 75.45-369.47-101.57-417.72-256.67-28.48-91.56-54.59-175.494-130.28-195.334-243.01-63.702-295.38 90.044-335.21 206.974-27.697 81.31-49.33 144.82-124.79 105.03-206.43-108.86-305.891-47.03-388.287 4.19-77.011 47.88-139.115 86.49-259.714-32.19-33.034-32.51-57.82-86.47-83.98-143.41C81.277 909.511-3.233 725.545-313.121 929.186c-46.872 30.802-604.027-257 160-228h62.494l-170.494-84.038c-3.997-11.6-10.41-26.246-17.881-43.31-59.821-136.616-187.497-428.197 313.881-552.652 334.647-80.316 497.328 84.2 629.457 217.821z" fill="#FEF5F0"/><path d="M1712.3 924.069c11.83 8.899 29.35 8.931 29.35 8.931s10.45-14.071 10.35-28.912c0-12.336-8.55-21.46-17.43-19.918-12.86 2.217-5.91 22.905-5.91 22.905s-12.54-17.829-21.96-8.931c-6.52 6.265-4.27 18.504 5.6 25.925zm74.12 93.101c1.66 6.35 7.74 11.16 7.74 11.16s7.49-2.02 11.52-7.12c3.37-4.27 2.93-9.8-.59-11.71-5.04-2.73-8.34 6.34-8.34 6.34s.54-9.64-5.16-9.13c-3.99.26-6.57 5.14-5.17 10.46zm29.51-247.616c9.27 3.623 20.53.584 20.53.584s4.26-10.929 1.58-20.479c-2.23-7.945-9.31-12.337-14.78-9.773-7.84 3.69.24 15.853.24 15.853s-11.25-9.307-15.74-1.883c-3.14 5.149.5 12.641 8.17 15.698z" fill="#fff"/></svg>