<svg width="50" height="50" fill="none" xmlns="http://www.w3.org/2000/svg"><path d="M25 0C11.193 0 0 11.193 0 25s11.193 25 25 25 25-11.193 25-25C49.984 11.2 38.8.016 25 0zm0 48.333C12.113 48.333 1.667 37.887 1.667 25 1.667 12.113 12.113 1.667 25 1.667c12.887 0 23.333 10.446 23.333 23.333C48.32 37.88 37.881 48.319 25 48.333z" fill="#FF6D8D"/><path d="M25 3.333C13.04 3.347 3.347 13.04 3.334 25 3.356 36.957 13.044 46.645 25 46.667c11.966 0 21.667-9.7 21.667-21.667 0-11.966-9.7-21.667-21.667-21.667zM25 45C13.954 45 5 36.046 5 25S13.954 5 25 5s20 8.954 20 20a19.874 19.874 0 01-20 20z" fill="#FF6D8D"/><path d="M33.333 10.833c-3.699 0-6.886 3.411-8.333 8.3-1.447-4.889-4.634-8.3-8.333-8.3C11.612 10.833 7.5 17.188 7.5 25c0 7.812 4.113 14.167 9.167 14.167 3.699 0 6.886-3.411 8.333-8.3 1.447 4.889 4.634 8.3 8.333 8.3 5.055 0 9.167-6.355 9.167-14.167 0-7.812-4.112-14.167-9.167-14.167zM16.667 37.5c-4.136 0-7.5-5.608-7.5-12.5s3.364-12.5 7.5-12.5c4.135 0 7.5 5.608 7.5 12.5s-3.365 12.5-7.5 12.5zm16.666 0c-4.135 0-7.5-5.608-7.5-12.5s3.365-12.5 7.5-12.5c4.136 0 7.5 5.608 7.5 12.5s-3.364 12.5-7.5 12.5z" fill="#FF6D8D"/><path d="M17.5 19.167a3.333 3.333 0 100 6.666 3.333 3.333 0 000-6.666zm0 5a1.667 1.667 0 110-3.334 1.667 1.667 0 010 3.334zm15-5a3.333 3.333 0 100 6.666 3.333 3.333 0 000-6.666zm0 5a1.667 1.667 0 110-3.334 1.667 1.667 0 010 3.334z" fill="#FF6D8D"/></svg>