<svg width="44" height="50" fill="none" xmlns="http://www.w3.org/2000/svg"><path d="M9.042 49.833c.144.108.32.167.5.167h24.95c.18 0 .355-.059.5-.167a21.66 21.66 0 00-4.482-37.258 1.658 1.658 0 01-1.01-1.525V6.513a2.5 2.5 0 001.667-2.346V2.5a2.5 2.5 0 00-2.5-2.5H15.333a2.5 2.5 0 00-2.5 2.5v1.667A2.5 2.5 0 0014.5 6.513v4.537a1.682 1.682 0 01-1.027 1.533 21.63 21.63 0 00-4.431 37.25zM14.5 2.5c0-.46.373-.833.833-.833h13.334c.46 0 .833.373.833.833v1.667c0 .46-.373.833-.833.833H15.333a.833.833 0 01-.833-.833V2.5zm-.37 11.615a3.348 3.348 0 002.037-3.065V6.667h11.666v4.383c0 1.332.796 2.536 2.022 3.057a19.994 19.994 0 014.356 34.226H9.822a19.963 19.963 0 014.309-34.218z" fill="#FF6D8D"/><path d="M10.167 46.47c.15.127.341.197.539.197h22.622a.833.833 0 000-1.667h-7.25a5.833 5.833 0 10-8.15 0h-6.911a16.73 16.73 0 01-5.61-10.888.833.833 0 10-1.66.155 18.417 18.417 0 006.42 12.202zm7.667-5.637a4.167 4.167 0 118.333 0 4.167 4.167 0 01-8.334 0zM22 31.667c1.838 0 3.333-1.87 3.333-4.167a4.213 4.213 0 00-2.201-3.902c.33-.886.511-1.82.534-2.765a4.25 4.25 0 00-1.237-2.77 4.574 4.574 0 01-.43-.563 2.282 2.282 0 01.59-1.91.833.833 0 00-1.178-1.18 3.856 3.856 0 00-1.078 3.09c.07.621.358 1.198.813 1.627.477.45.78 1.054.854 1.706a7.291 7.291 0 01-.577 2.573c-1.563.344-2.756 2.043-2.756 4.094 0 2.297 1.494 4.167 3.333 4.167zM22 25c.903 0 1.666 1.145 1.666 2.5S22.903 30 22 30c-.904 0-1.667-1.145-1.667-2.5S21.097 25 22 25z" fill="#FF6D8D"/><path d="M12.833 35c1.839 0 3.334-1.87 3.334-4.167a4.213 4.213 0 00-2.202-3.902 8.51 8.51 0 00.535-2.764 4.25 4.25 0 00-1.238-2.77 4.575 4.575 0 01-.429-.564 2.282 2.282 0 01.59-1.91.833.833 0 00-1.179-1.179 3.855 3.855 0 00-1.077 3.09c.07.62.358 1.197.812 1.626.478.45.78 1.055.854 1.707a7.292 7.292 0 01-.576 2.572c-1.564.344-2.757 2.043-2.757 4.094C9.5 33.131 10.995 35 12.833 35zm0-6.667c.904 0 1.667 1.145 1.667 2.5s-.763 2.5-1.667 2.5c-.903 0-1.666-1.145-1.666-2.5s.763-2.5 1.666-2.5zM31.167 35c1.838 0 3.333-1.87 3.333-4.167a4.213 4.213 0 00-2.202-3.902c.331-.885.512-1.82.535-2.764a4.25 4.25 0 00-1.237-2.77 4.575 4.575 0 01-.43-.564 2.282 2.282 0 01.59-1.91.833.833 0 00-1.178-1.179 3.855 3.855 0 00-1.078 3.09c.07.62.358 1.197.813 1.626.477.45.78 1.055.854 1.707a7.292 7.292 0 01-.577 2.572c-1.563.344-2.756 2.043-2.756 4.094 0 2.298 1.494 4.167 3.333 4.167zm0-6.667c.903 0 1.666 1.145 1.666 2.5s-.763 2.5-1.666 2.5c-.904 0-1.667-1.145-1.667-2.5s.764-2.5 1.667-2.5zM12 40.833a.833.833 0 100-1.666.833.833 0 000 1.666zm25-4.166A.833.833 0 1037 35a.833.833 0 000 1.667zm-5 4.166a.833.833 0 100-1.666.833.833 0 000 1.666zM7.833 26.667a.833.833 0 100-1.667.833.833 0 000 1.667zM27 20.833a.833.833 0 100-1.666.833.833 0 000 1.666z" fill="#FF6D8D"/></svg>