<svg width="50" height="50" fill="none" xmlns="http://www.w3.org/2000/svg"><g clip-path="url(#clip0)" fill="#FF6D8D"><path d="M3.29 28.056c.107.076.208.148.299.216.336.224.55.592.578.995v2.475a8.417 8.417 0 003.623 6.833 7.5 7.5 0 1013.683 2.258h2.053a7.5 7.5 0 1013.684-2.261 8.417 8.417 0 003.623-6.83v-2.475a1.2 1.2 0 01.51-1c.11-.084.24-.175.376-.27.23-.16.477-.334.68-.5a2.01 2.01 0 00.934-1.547v-1.783a.833.833 0 00-.833-.834h-4.153C39.451 20.983 41.713 20 45.833 20a2.5 2.5 0 000-5c-5.607 0-9.483 1.817-11.551 5.397-3.228-2.341-8.834-2.79-10.949-2.876V.833a.833.833 0 00-1.666 0v.834h-.834c-10.58.012-19.155 8.586-19.166 19.166v5.117c0 .943.9 1.588 1.624 2.106zm10.876 20.277A5.833 5.833 0 1120 42.5a5.84 5.84 0 01-5.834 5.833zm6.709-9.166a7.481 7.481 0 00-12.062-1.91 6.797 6.797 0 01-2.98-5.515v-2.475a2.942 2.942 0 00-1.238-2.323c-.102-.077-.215-.158-.333-.243a5.692 5.692 0 01-.929-.751V25h29.405a21.558 21.558 0 00-.238 3.333c0 5.357-3 6.682-3.353 6.819-.083.032-.157.07-.234.106a7.518 7.518 0 00-4.788 3.909h-3.25zm9.958 9.166a5.833 5.833 0 01-1.49-11.466h.088l.078-.043a5.833 5.833 0 111.324 11.51zM41.68 25.871c-.086.13-.197.243-.328.329-.184.152-.391.295-.583.43-.16.112-.312.218-.437.314a2.858 2.858 0 00-1.165 2.323v2.475a6.797 6.797 0 01-2.98 5.515 7.648 7.648 0 00-1.013-.863 13.454 13.454 0 002.327-8.06A16.125 16.125 0 0137.81 25h3.862l.007.87zm4.154-9.204a.833.833 0 010 1.666c-5.437 0-8.362 1.728-9.486 5.609a16.282 16.282 0 00-.514 4.391 11.737 11.737 0 01-2.131 7.24 7.468 7.468 0 00-1.763-.482c1.113-1.239 2.227-3.327 2.227-6.758a18.383 18.383 0 01.39-3.985c.17-.792.42-1.564.745-2.305 1.632-3.618 5.077-5.376 10.532-5.376zM33.56 21.939c-.176.456-.328.922-.454 1.394h-9.772v-4.142c2.084.093 7.531.549 10.226 2.748zM21.667 3.333V20.98L12.655 5.372a17.382 17.382 0 018.177-2.039h.834zM11.221 6.224l9.045 15.667-15.134-8.738a17.604 17.604 0 016.09-6.929zm-7.889 14.61a17.393 17.393 0 011.133-6.141l14.967 8.64h-16.1v-2.5z"/><path d="M14.166 40a2.5 2.5 0 100 5 2.5 2.5 0 000-5zm0 3.333a.833.833 0 110-1.666.833.833 0 010 1.666zM30.833 40a2.5 2.5 0 100 5 2.5 2.5 0 000-5zm0 3.333a.833.833 0 110-1.666.833.833 0 010 1.666zm-20-15.833h-2.5a.833.833 0 000 1.667h2.5a.833.833 0 100-1.667zM30 28.333a.833.833 0 00-.834-.833h-15a.833.833 0 000 1.667h15c.46 0 .834-.373.834-.834z"/></g><defs><clipPath id="clip0"><path fill="#fff" d="M0 0h50v50H0z"/></clipPath></defs></svg>