<svg width="50" height="50" fill="none" xmlns="http://www.w3.org/2000/svg"><path d="M31.666 0a18.318 18.318 0 00-15.543 28.035 7.29 7.29 0 00-.226 1.008 5.25 5.25 0 001.204 4.39 3.16 3.16 0 01-2.101.734c-4.842 0-5.834 2.333-5.834 5.833 0 2.882-1.285 4.167-4.166 4.167C1.823 44.167.35 47.333.016 49a.833.833 0 101.633.333c.008-.038.73-3.5 3.35-3.5 3.817 0 5.834-2.016 5.834-5.833 0-3.075.63-4.167 4.167-4.167a4.761 4.761 0 003.46-1.391c.74.372 1.558.565 2.387.562.316 0 .63-.023.943-.068a7.527 7.527 0 001.402-.349A18.333 18.333 0 1031.666 0zM21.554 33.286a3.592 3.592 0 01-3.138-.87 3.588 3.588 0 01-.872-3.134 7.407 7.407 0 015.892-5.893c.233-.035.468-.054.703-.056a3.362 3.362 0 012.436.925 3.592 3.592 0 01.872 3.135 7.408 7.408 0 01-5.893 5.893zm6.196-10.203a5.218 5.218 0 00-4.55-1.344 8.322 8.322 0 00-3.85 1.688 13.328 13.328 0 1112.316 8.24 13.13 13.13 0 01-3.952-.608 8.193 8.193 0 001.383-3.43 5.21 5.21 0 00-1.347-4.546zM31.666 35a16.76 16.76 0 01-6.577-1.358 9.576 9.576 0 001.5-1.217c1.626.599 3.345.907 5.077.908a15.036 15.036 0 10-13.605-8.712 9.353 9.353 0 00-1.114 1.516A16.662 16.662 0 1131.667 35z" fill="#5DC5DC"/><path d="M33.334 17.5a5 5 0 100-10 5 5 0 000 10zm0-8.333a3.333 3.333 0 110 6.666 3.333 3.333 0 010-6.666zM36.667 20a3.333 3.333 0 106.667 0 3.333 3.333 0 00-6.667 0zM40 18.333a1.667 1.667 0 110 3.334 1.667 1.667 0 010-3.334z" fill="#5DC5DC"/></svg>