<svg width="50" height="50" fill="none" xmlns="http://www.w3.org/2000/svg"><path d="M35.109 3.169c-3.8 0-7.353 1.43-10.11 4.05-2.756-2.62-6.308-4.05-10.108-4.05C6.681 3.169 0 10.009 0 18.418 0 24.17 2.791 29.88 8.296 35.386a.977.977 0 101.381-1.38c-5.125-5.128-7.724-10.372-7.724-15.588 0-7.332 5.804-13.296 12.938-13.296 3.587 0 6.921 1.474 9.39 4.15a.977.977 0 001.436 0c2.47-2.676 5.805-4.15 9.392-4.15 7.134 0 12.938 5.964 12.938 13.296 0 8.045-6.317 14.805-11.616 19.06-5.023 4.033-10.115 6.643-11.484 7.315-.882-.37-3.76-1.726-9.027-5.527a.977.977 0 00-1.143 1.584c3.485 2.514 5.949 3.978 7.402 4.763 1.824.985 2.512 1.218 2.874 1.218a.764.764 0 00.35-.088.983.983 0 00.077-.039c.731-.343 6.393-3.069 12.142-7.678 3.564-2.857 6.41-5.845 8.457-8.88C48.681 26.29 50 22.344 50 18.418c0-8.409-6.68-15.25-14.891-15.25z" fill="#5DC5DC"/><path d="M12.915 36.945l-.042-.035a.976.976 0 10-1.247 1.503l.042.035a.975.975 0 001.375-.128.977.977 0 00-.128-1.375zm29.851-15.939a7.004 7.004 0 00-3.285-4.282 7.059 7.059 0 00-9.63 2.581 9.337 9.337 0 00-1.143 3.235l-.148.945a16.85 16.85 0 01-2.063 5.839l-.026.044a5.187 5.187 0 00-.521 3.963 5.188 5.188 0 002.433 3.17c.82.475 1.722.707 2.617.707a5.202 5.202 0 003.553-1.407 40.534 40.534 0 007.485-9.404l.024-.041a7.003 7.003 0 00.704-5.35zm-2.396 4.373l-.024.042a38.584 38.584 0 01-7.124 8.95 3.252 3.252 0 01-3.863.44 3.248 3.248 0 01-1.523-1.986 3.247 3.247 0 01.327-2.48l.026-.045a18.794 18.794 0 002.3-6.513l.148-.945a7.386 7.386 0 01.904-2.56 5.103 5.103 0 016.963-1.866 5.064 5.064 0 012.376 3.095 5.064 5.064 0 01-.51 3.869zm-.25-12.348a.983.983 0 00-.69-.286.982.982 0 00-.692.287.983.983 0 00-.285.69c0 .257.104.509.285.69a.985.985 0 00.692.286.986.986 0 00.69-.286.984.984 0 00.286-.69.983.983 0 00-.286-.69zm2.806 1.855a.984.984 0 00-.69-.286.986.986 0 00-.692.286.983.983 0 00-.285.69c0 .257.103.51.285.69a.988.988 0 00.691.287.984.984 0 00.69-.286.984.984 0 00.287-.69.983.983 0 00-.286-.691zm1.655 2.473a.984.984 0 00-.69-.287.984.984 0 00-.692.287.983.983 0 00-.285.69c0 .257.104.509.285.69a.984.984 0 00.692.287.984.984 0 00.69-.287.984.984 0 00.286-.69.985.985 0 00-.286-.69zm.929 3.104a.983.983 0 00-.69-.286.984.984 0 00-.691.286.982.982 0 00-.286.69c0 .257.104.51.286.69a.982.982 0 00.69.287.984.984 0 00.69-.286.984.984 0 00.287-.69.984.984 0 00-.286-.69zM35.1 9.667a2.501 2.501 0 00-2.498 2.498 2.501 2.501 0 002.499 2.498 2.501 2.501 0 002.498-2.498 2.501 2.501 0 00-2.498-2.498zm0 3.043a.546.546 0 11.002-1.092.546.546 0 01-.001 1.092zM23.527 29.369l-.026-.045a16.85 16.85 0 01-2.062-5.84l-.148-.944a9.336 9.336 0 00-1.142-3.235 7.058 7.058 0 00-9.631-2.58 7.005 7.005 0 00-3.285 4.28 7.004 7.004 0 00.704 5.35l.024.043a40.54 40.54 0 007.485 9.403 5.203 5.203 0 003.553 1.407c.894 0 1.796-.232 2.617-.706a5.188 5.188 0 002.433-3.17 5.187 5.187 0 00-.522-3.963zm-1.364 3.457a3.248 3.248 0 01-1.523 1.985 3.252 3.252 0 01-3.863-.439 38.577 38.577 0 01-7.124-8.95l-.025-.043a5.064 5.064 0 01-.509-3.868 5.064 5.064 0 012.375-3.095 5.1 5.1 0 016.963 1.866 7.38 7.38 0 01.905 2.56l.148.945a18.796 18.796 0 002.3 6.514l.026.044c.437.757.553 1.638.327 2.48zM11.26 13.03a.982.982 0 00-1.382 0 .986.986 0 00-.286.692.98.98 0 00.287.69.984.984 0 00.69.286.987.987 0 00.691-.286.986.986 0 00.287-.69.988.988 0 00-.287-.691zm-2.806 1.856a.984.984 0 00-.69-.286.984.984 0 00-.69.286.984.984 0 00-.287.69c0 .257.104.51.286.69a.986.986 0 00.69.287.984.984 0 00.691-.286.984.984 0 00.286-.69.984.984 0 00-.286-.691zM6.8 17.359a.984.984 0 00-.692-.287.985.985 0 00-.69.287.982.982 0 000 1.38.985.985 0 00.69.287.982.982 0 00.978-.977.983.983 0 00-.287-.69zm-.93 3.104a.98.98 0 00-1.38 0 .984.984 0 00-.287.69c0 .257.105.51.286.69a.984.984 0 00.69.287.983.983 0 00.691-.286.984.984 0 00.286-.69.983.983 0 00-.286-.69zm9.028-10.796a2.501 2.501 0 00-2.498 2.498 2.501 2.501 0 002.498 2.498 2.501 2.501 0 002.498-2.498 2.501 2.501 0 00-2.498-2.498zm0 3.043a.546.546 0 11.002-1.092.546.546 0 01-.002 1.092z" fill="#5DC5DC"/><path d="M37.528 20.107a.977.977 0 00-.976 1.692 1.193 1.193 0 01.418 1.659l-1.21 2.288a.977.977 0 101.725.913l1.204-2.273a3.148 3.148 0 00-1.16-4.279zm-2.105 8.075a.98.98 0 00-1.382 0 .981.981 0 000 1.38.986.986 0 00.691.287.984.984 0 00.69-.287.986.986 0 00.287-.69.984.984 0 00-.286-.69z" fill="#5DC5DC"/></svg>