<svg width="50" height="50" fill="none" xmlns="http://www.w3.org/2000/svg"><path d="M25 0C11.193 0 0 11.193 0 25s11.193 25 25 25 25-11.193 25-25C49.984 11.2 38.8.016 25 0zm0 48.333C12.113 48.333 1.667 37.887 1.667 25 1.667 12.113 12.113 1.667 25 1.667c12.887 0 23.333 10.446 23.333 23.333C48.32 37.88 37.881 48.319 25 48.333z" fill="#5DC5DC"/><path d="M25 3.333C13.04 3.347 3.347 13.04 3.334 25 3.356 36.957 13.044 46.645 25 46.667c11.966 0 21.667-9.7 21.667-21.667 0-11.966-9.7-21.667-21.667-21.667zM25 45c-10.384-.01-19.033-7.967-19.908-18.315-.875-10.347 6.315-19.643 16.55-21.397A6.906 6.906 0 0020 10a5.077 5.077 0 002.584 4.846c.953.666 1.583 1.101 1.583 2.654 0 2.64-1.334 3.213-2.87 3.876-.291.125-.573.25-.834.378a6.167 6.167 0 00-3.22 5.38 7.615 7.615 0 00-1.743 1.218 2.635 2.635 0 01-.522-2.316c.634-2.549 1.718-2.703 1.689-2.703a.833.833 0 100-1.666h-.054c-.59.024-5.78.416-5.78 6.666 0 7.91 8.722 10 13.334 10 3.105 0 5.489-2.465 6.25-3.355 1.683-.145 7.916-1.15 7.916-8.311A6.48 6.48 0 0031.668 20a4.992 4.992 0 00-4.854 3.383 4.856 4.856 0 00.306 3.808 3.634 3.634 0 01-1.06.44 5.944 5.944 0 00-2.353-2.544 1.583 1.583 0 00-2.11.44 2.427 2.427 0 00-.358.85 7.833 7.833 0 00-2.299.154 4.54 4.54 0 012.267-3.285c.236-.118.49-.227.75-.34 1.636-.703 3.878-1.668 3.878-5.406a4.353 4.353 0 00-2.299-4.023A3.474 3.474 0 0121.667 10c0-3.934 2.907-4.864 3.421-5 11.046.024 19.98 8.998 19.956 20.044C45.02 36.09 36.046 45.024 25 45zm-3.816-16.955c.063.631.316 1.228.727 1.71a.833.833 0 001.178-1.177 2.637 2.637 0 01-.18-2.023.445.445 0 01.052.024c1.106.553 1.878 2.25 2.083 2.853a.833.833 0 001.617-.235 5.834 5.834 0 001.467-.667c.17.168.35.325.54.47a.833.833 0 001-1.333 3.285 3.285 0 011.999-6 4.82 4.82 0 015 5c0 6.559-6.397 6.666-6.667 6.666a.833.833 0 00-.666.334c-.023.03-2.301 3-5.167 3-.117 0-11.667-.095-11.667-8.334a5.303 5.303 0 011.129-3.61c-.097.276-.188.579-.27.908-.8 3.195 2.157 5.306 3.833 5.977a.834.834 0 10.622-1.548 6.756 6.756 0 01-1.077-.583 5.697 5.697 0 014.447-1.432z" fill="#5DC5DC"/><path d="M31.667 25a.833.833 0 100-1.667.833.833 0 000 1.667z" fill="#5DC5DC"/></svg>