<svg class="feature__icon feature__icon--3" xmlns="http://www.w3.org/2000/svg" viewBox="0 0 562.88 595.28"><path class="st0" d="M429.69 295.45c-.47-9.25-4.33-18.24-11.41-25.32-12.77-12.78-31.77-15.12-47.26-5.83-3.13 1.88-5.88.85-7.25.06-1.36-.78-3.63-2.65-3.57-6.31.3-18.06-11.22-33.34-28.67-38.01-1.28-.34-2.55-.6-3.82-.81l85.52-182.49 112.91 52.92zM149.65 36.74l85.52 182.49c-1.27.21-2.54.47-3.82.81-17.44 4.68-28.97 19.95-28.67 38.02.06 3.66-2.21 5.52-3.57 6.3-1.36.79-4.11 1.82-7.25-.05-15.5-9.3-34.49-6.95-47.26 5.82-7.08 7.08-10.94 16.07-11.41 25.32L36.74 89.66zM437.9 365.05c.54 2.01.81 5.74-3.43 8.09-12.47 6.93-19.91 19.57-19.91 33.83 0 14.25 7.44 26.9 19.9 33.82 4.25 2.36 3.98 6.09 3.44 8.1-.53 1.99-2.13 5.3-6.85 5.3h-.18c-14.19-.25-27.01 7-34.14 19.34-7.13 12.35-7.01 27.02.32 39.25 2.5 4.16.4 7.26-1.08 8.73-1.47 1.47-4.56 3.57-8.72 1.07-12.23-7.33-26.9-7.45-39.25-.32-12.35 7.13-19.58 19.89-19.34 34.15.08 4.85-3.29 6.48-5.3 7.02-2.01.54-5.74.81-8.1-3.43-6.92-12.46-19.57-19.91-33.82-19.91-14.26 0-26.9 7.45-33.83 19.91-2.35 4.24-6.08 3.98-8.1 3.43-2.01-.54-5.38-2.17-5.3-7.02.24-14.26-6.99-27.02-19.34-34.15-12.35-7.13-27.01-7.01-39.24.32-4.16 2.5-7.26.4-8.73-1.07-1.48-1.48-3.57-4.57-1.08-8.73 7.33-12.23 7.46-26.9.33-39.25-7.13-12.34-19.9-19.59-34.15-19.34-4.91-.01-6.49-3.28-7.03-5.3-.54-2.01-.81-5.74 3.44-8.1 12.46-6.92 19.9-19.57 19.9-33.82 0-14.26-7.44-26.9-19.9-33.83-4.25-2.35-3.98-6.08-3.44-8.09.54-2.02 2.14-5.3 7.03-5.31 14.2.24 27.02-6.99 34.15-19.33 7.13-12.35 7-27.02-.33-39.25-2.5-4.16-.4-7.26 1.08-8.73 1.47-1.48 4.57-3.57 8.73-1.08 12.23 7.34 26.9 7.45 39.24.33 12.35-7.13 19.58-19.9 19.34-34.15-.08-4.86 3.29-6.49 5.3-7.02 2.01-.55 5.74-.81 8.1 3.43 6.93 12.46 19.57 19.9 33.83 19.9 14.25 0 26.9-7.44 33.82-19.9 2.36-4.24 6.09-3.98 8.1-3.43 2.01.53 5.38 2.16 5.3 7.02-.24 14.25 6.99 27.02 19.34 34.15 12.35 7.13 27.01 7.01 39.24-.33 4.16-2.5 7.26-.4 8.73 1.08 1.47 1.47 3.57 4.57 1.08 8.73-7.33 12.23-7.45 26.9-.32 39.24 7.12 12.35 19.83 19.53 34.14 19.34 4.84.04 6.49 3.29 7.03 5.31M553.8 67.79L412.34 1.49a15.814 15.814 0 0 0-12.06-.55 15.807 15.807 0 0 0-8.92 8.13L282.07 242.28c-.23.01-.44.02-.63.02s-.4-.01-.63-.02L171.52 9.07A15.746 15.746 0 0 0 162.6.94a15.786 15.786 0 0 0-12.05.55L9.08 67.79C1.19 71.49-2.2 80.88 1.49 88.76l113.9 243.05c-10.07 4.65-17.79 13.55-20.88 25.07-4.67 17.45 2.8 35.07 18.59 43.84 3.19 1.78 3.67 4.68 3.67 6.25 0 1.57-.48 4.47-3.67 6.25-15.79 8.77-23.26 26.39-18.59 43.84 4.68 17.44 20 28.98 38.01 28.67 3.71.05 5.53 2.21 6.31 3.57.79 1.36 1.82 4.11-.06 7.25-9.28 15.5-6.94 34.49 5.83 47.26 12.77 12.77 31.76 15.11 47.26 5.83 3.14-1.89 5.89-.85 7.25-.07 1.36.79 3.63 2.65 3.57 6.31-.3 18.06 11.22 33.34 28.67 38.02 3.47.93 6.94 1.38 10.35 1.38 13.75 0 26.46-7.31 33.49-19.97 1.78-3.2 4.68-3.68 6.25-3.68 1.57 0 4.47.48 6.24 3.68 8.78 15.79 26.39 23.26 43.84 18.58 17.45-4.67 28.97-19.95 28.67-38.01-.06-3.66 2.22-5.52 3.58-6.31 1.36-.78 4.11-1.82 7.25.06 15.49 9.29 34.48 6.95 47.26-5.82 12.77-12.77 15.11-31.77 5.82-47.26-1.88-3.14-.85-5.89-.06-7.25.79-1.36 2.66-3.56 6.31-3.57 18.14.27 33.34-11.23 38.01-28.68 4.68-17.45-2.79-35.06-18.58-43.84-3.2-1.77-3.68-4.67-3.68-6.24 0-1.58.48-4.48 3.68-6.25 15.79-8.77 23.26-26.39 18.58-43.84-3.08-11.51-10.8-20.43-20.87-25.09L561.38 88.76c3.71-7.88.31-17.27-7.58-20.97"/></svg>