<svg class="feature__icon feature__icon--2" xmlns="http://www.w3.org/2000/svg" viewBox="0 0 595.27 516.21"><path class="st0" d="M564.29 171.4l-38.09 38.08L395.41 78.7a13.559 13.559 0 0 1-3.98-9.62c0-3.63 1.42-7.04 3.98-9.61l28.48-28.48c2.57-2.56 5.98-3.98 9.61-3.98 3.63 0 7.04 1.42 9.61 3.98l121.18 121.18c2.56 2.57 3.98 5.98 3.98 9.61 0 3.63-1.42 7.05-3.98 9.62M448.14 287.54L298.19 137.59a13.453 13.453 0 0 0-8.38-3.9l-76.68-6.71a13.508 13.508 0 0 0-14.42 10.79l-6.15 30.48c-3.84 19.06-22.46 31.44-41.52 27.6-9.23-1.86-17.19-7.21-22.4-15.05-5.21-7.85-7.06-17.25-5.2-26.48l6.15-30.48c9.16-45.42 53.53-74.93 98.97-65.76.09.01.19.03.29.05l131.29 23.51 16.17 16.16L507.1 228.59zm-232 167.69c-3.82 3.82-10.03 3.82-13.84 0l-6.93-6.93c-3.82-3.81-3.82-10.02 0-13.84l19.91-19.91 20.77 20.77zm-60.65-46.8a9.729 9.729 0 0 1-2.87-6.92c0-2.61 1.02-5.07 2.87-6.92l19.91-19.91 20.77 20.77-19.91 19.91c-3.82 3.81-10.03 3.81-13.84 0zm-39.87-39.88c-3.82-3.82-3.82-10.03 0-13.84l19.91-19.91 20.77 20.77-19.91 19.91c-3.82 3.82-10.03 3.82-13.84 0zm-39.88-39.88c-3.82-3.82-3.82-10.02 0-13.84l19.91-19.91 20.77 20.77-19.91 19.91c-3.82 3.82-10.03 3.82-13.84 0zm507.66-195.6L462.22 11.89C454.55 4.22 444.35 0 433.5 0c-10.85 0-21.05 4.22-28.72 11.89l-28.47 28.48c-4.38 4.38-7.51 9.53-9.47 15.01L233.61 31.53h-.03c-59.91-11.9-118.4 27.05-130.48 86.97l-6.15 30.48c-6.78 33.66 15.08 66.57 48.75 73.35 33.66 6.79 66.57-15.08 73.36-48.74l3.75-18.64 59.75 5.23L438.59 316.2l28.28 28.28c5.72 5.73 5.72 15.05 0 20.77-5.73 5.73-15.05 5.73-20.77 0l-75.75-75.74c-5.28-5.28-13.83-5.28-19.11 0-5.27 5.27-5.27 13.83 0 19.1l75.75 75.75c2.77 2.77 4.3 6.46 4.3 10.39 0 3.92-1.53 7.6-4.3 10.38-5.73 5.72-15.04 5.72-20.77 0l-75.75-75.75c-5.27-5.28-13.83-5.28-19.1 0-5.28 5.28-5.28 13.83 0 19.11l75.74 75.75c5.73 5.72 5.73 15.04 0 20.76-2.77 2.78-6.46 4.3-10.38 4.3-3.92 0-7.61-1.52-10.38-4.3l-75.75-75.74c-5.28-5.28-13.83-5.28-19.11 0-5.27 5.27-5.27 13.83 0 19.1l75.75 75.75c5.73 5.73 5.72 15.05 0 20.77-5.72 5.72-15.04 5.73-20.77 0L58.45 216.87l-35.39-35.4c-5.28-5.27-13.83-5.27-19.11 0-5.26 5.28-5.26 13.83 0 19.11l35.4 35.39 38.51 38.52-21.23 21.23c-6.95 6.96-10.78 16.2-10.78 26.03 0 9.84 3.83 19.08 10.78 26.03l6.93 6.93c6.08 6.08 13.91 9.77 22.35 10.6.83 8.44 4.52 16.27 10.6 22.35l6.93 6.93c6.24 6.24 14.18 9.76 22.34 10.57.83 8.45 4.52 16.29 10.61 22.37l6.92 6.93c6.08 6.08 13.91 9.77 22.35 10.6.84 8.45 4.53 16.27 10.6 22.35l6.93 6.93c7.18 7.18 16.61 10.76 26.03 10.76 9.43 0 18.85-3.58 26.03-10.76l21.23-21.23 50.88 50.88c7.88 7.88 18.35 12.21 29.49 12.21 11.14 0 21.62-4.34 29.5-12.21 7.46-7.47 11.7-17.27 12.13-27.75 10.48-.43 20.28-4.66 27.74-12.13 7.7-7.69 11.7-17.66 12.12-27.76 10.09-.42 20.07-4.42 27.76-12.11 7.69-7.7 11.7-17.67 12.11-27.77 10.1-.41 20.08-4.42 27.77-12.11 16.26-16.26 16.26-42.72 0-58.98l-18.73-18.73 68.51-68.51 47.64-47.63c15.83-15.84 15.83-41.61 0-57.44"/><path class="st0" d="M531.58 153.64c7.46 0 13.51 6.05 13.51 13.51s-6.05 13.51-13.51 13.51-13.51-6.05-13.51-13.51 6.05-13.51 13.51-13.51"/></svg>