<?xml version="1.0" encoding="utf-8"?>
<!-- Generator: Adobe Illustrator 22.0.1, SVG Export Plug-In . SVG Version: 6.00 Build 0)  -->
<svg version="1.1" id="Layer_1" xmlns="http://www.w3.org/2000/svg" xmlns:xlink="http://www.w3.org/1999/xlink" x="0px" y="0px"
	 viewBox="0 0 512 512" style="enable-background:new 0 0 512 512;" xml:space="preserve">
<style type="text/css">
	.st0{fill:#6D6E70;}
</style>
<path class="st0" d="M130.7,300.2V161.6c0-30,26.9-51,54.2-46.4l51-51c8.6-8.6,18.3-16.3,28.8-22.9l-6.3-2.9
	c-27-12.3-60.3-5.9-78.6-0.6c-8.8,2.5-18.3,0.1-24.7-6.3L127.8,4.4c-5.8-5.8-15.3-5.8-21.2,0L4.4,106.6c-5.9,5.9-5.9,15.4,0,21.2
	l41.2,41.2c1.6,30.9,17.8,63.8,39.8,85.9C85.4,254.9,107.7,277.2,130.7,300.2z"/>
<path class="st0" d="M507.6,127.8c5.8-5.8,5.8-15.3,0-21.2L405.4,4.4c-5.9-5.8-15.4-5.8-21.2,0l-41.2,41.2
	c-30.9,1.6-63.8,17.8-85.9,39.8c9,3.4,17.3,9.8,23.2,19.5c31.4-18.5,70,5.1,70,40.2v4.7c30.4-11.8,63.2,11.1,63.2,43.9v81.9
	c0.3,17.9,2.1,37.1,11.1,46c8.7,8.7,20.1,0.1,23.3-6.8l25.7-56.6c12.3-27,5.9-60.3,0.6-78.6c-2.5-8.8-0.1-18.3,6.4-24.7L507.6,127.8
	z"/>
<path class="st0" d="M366.5,176.7c-9,0.2-16.3,7.5-16.3,16.6v78.3c0,8.1-6.2,15-14.3,15.4c-8.6,0.4-15.7-6.5-15.7-15V145.1
	c0-9.1-7.3-16.4-16.3-16.6c-9.3-0.2-16.9,7.7-16.9,17v126.1c0,8.1-6.2,15-14.3,15.4c-8.6,0.4-15.7-6.5-15.7-15v-143
	c0-9.1-7.3-16.4-16.3-16.6c-9.3-0.2-16.9,7.7-16.9,17v142.6c0,8.5-7.1,15.4-15.7,15c-8.1-0.4-14.3-7.3-14.3-15.4V161.2
	c0-9.1-7.3-16.4-16.3-16.6c-9.3-0.2-16.9,7.7-16.9,17v172.1c0,5.3-6.5,7.6-10.2,3.8c-14.6-14.8-35.3-36.4-52.1-36.4
	c-12.2,0-14.3,14.1-11.6,21.3l21.8,58.2c10.4,27.8,38.5,46.8,55.2,56c8,4.4,13,12.8,13,22V497c0,8.3,6.7,15,15,15h144.6
	c8.3,0,15-6.7,15-15v-58.3c20.8-22.9,32.1-52.4,32.1-83.6V193.8C383.5,184.5,375.9,176.6,366.5,176.7z"/>
</svg>
