<?xml version="1.0" encoding="utf-8"?>
<!-- Generator: Adobe Illustrator 22.0.1, SVG Export Plug-In . SVG Version: 6.00 Build 0)  -->
<svg version="1.1" id="Layer_1" xmlns="http://www.w3.org/2000/svg" xmlns:xlink="http://www.w3.org/1999/xlink" x="0px" y="0px"
	 viewBox="0 0 512 512" style="enable-background:new 0 0 512 512;" xml:space="preserve">
<style type="text/css">
	.st0{fill:#6D6E70;}
</style>
<path class="st0" d="M437,61h-30c-24.8,0-45-21.2-45-46c0-8.3-6.7-15-15-15s-15,6.7-15,15v30c0,41.4,33.6,76,75,76h60
	c24.9,0,45,20.1,45,45v-30C512,94.6,478.4,61,437,61z"/>
<path class="st0" d="M467,151h-15v82.5L392,256v-60c0-5.7-3.2-10.9-8.3-13.4c-5.1-2.5-11.2-2-15.7,1.4l-97,72v-60
	c0-5.7-3.2-10.9-8.3-13.4c-5.1-2.5-11.2-2-15.7,1.4l-96,72v-60c0-5.7-3.2-10.9-8.3-13.4c-5.1-2.5-11.2-2-15.7,1.4L6,274
	c-3.8,2.8-6,7.3-6,12v45h512V196C512,171.1,491.9,151,467,151z"/>
<path class="st0" d="M392,421h30v91h-30V421z"/>
<path class="st0" d="M0,497c0,8.3,6.7,15,15,15h347V406c0-8.3,6.7-15,15-15h60c8.3,0,15,6.7,15,15v106h45c8.3,0,15-6.7,15-15V361H0
	V497z M256,391h30c8.3,0,15,6.7,15,15s-6.7,15-15,15h-30c-8.3,0-15-6.7-15-15S247.7,391,256,391z M166,391h30c8.3,0,15,6.7,15,15
	s-6.7,15-15,15h-30c-8.3,0-15-6.7-15-15S157.7,391,166,391z M76,391h30c8.3,0,15,6.7,15,15s-6.7,15-15,15H76c-8.3,0-15-6.7-15-15
	S67.7,391,76,391z"/>
</svg>
