<?xml version="1.0" encoding="iso-8859-1"?>
<!-- Generator: Adobe Illustrator 19.0.0, SVG Export Plug-In . SVG Version: 6.00 Build 0)  -->
<svg version="1.1" id="Capa_1" xmlns="http://www.w3.org/2000/svg" xmlns:xlink="http://www.w3.org/1999/xlink" x="0px" y="0px"
     viewBox="0 0 512 512" style="enable-background:new 0 0 512 512;" xml:space="preserve" fill="#6D6E70">
    <rect x="492" y="133" width="20" height="97"/>
    <rect y="133" width="20" height="97"/>
    <path d="M348,352.284V303c0-24.813-20.187-45-45-45h-10.35c-6.185-14.113-20.281-24-36.65-24h-29v80h29
        c17.132,0,31.778-10.829,37.466-26H303c8.271,0,15,6.729,15,15v49.284c-22.468,2.496-40,21.593-40,44.716v115h110V397
        C388,373.878,370.468,354.781,348,352.284z"/>
    <path d="M215.284,245.716c-15.596-15.597-40.973-15.597-56.568,0L130.431,274l28.285,28.284
        c7.798,7.799,18.041,11.697,28.284,11.697s20.486-3.899,28.284-11.697C230.88,286.688,230.88,261.311,215.284,245.716z"/>
    <rect x="191" y="120" width="130" height="48"/>
    <path d="M366,0H146c-24.813,0-45,20.187-45,45v216.005l8.218-8.218l28.284-28.283c13.209-13.21,30.788-20.485,49.498-20.485
        c3.377,0,69-0.018,69-0.018c20.65,0,39.857,9.097,52.945,24.233C347.531,231.275,378,263.646,378,303v27.679
        c7.722,4.082,14.74,9.522,20.707,16.14c4.427,4.91,8.131,10.337,11.086,16.117C410.587,357.739,411,352.417,411,347V45
        C411,20.187,390.813,0,366,0z M351,198H161V90h190V198z"/>
    <path d="M256,344h-29h-30v-0.73c-3.284,0.466-6.623,0.711-10,0.711c-18.71,0-36.289-7.275-49.497-20.484l-28.285-28.284
        L101,286.995V347c0,57.897,47.103,105,105,105h42v-55c0-18.56,6.852-36.381,19.293-50.181c1.451-1.609,2.966-3.15,4.536-4.618
        C266.684,343.392,261.382,344,256,344z"/>
    <path d="M81,347V45.497L40,65.661v266.678l41.13,20.228C81.049,350.721,81,348.866,81,347z"/>
    <path d="M431,45.497V347c0,1.866-0.049,3.721-0.13,5.567L472,332.339V65.661L431,45.497z"/>
</svg>
