<?xml version="1.0" encoding="utf-8"?>
<!-- Generator: Adobe Illustrator 22.0.1, SVG Export Plug-In . SVG Version: 6.00 Build 0)  -->
<svg version="1.1" id="Capa_1" xmlns="http://www.w3.org/2000/svg" xmlns:xlink="http://www.w3.org/1999/xlink" x="0px" y="0px"
     viewBox="0 0 512 512" style="enable-background:new 0 0 512 512;" xml:space="preserve">
<style type="text/css">
    .st0{fill:#6D6E70;}
</style>
<g>
    <path class="st0" d="M406,196H106c-43.6,0-81.7-12.7-106-32.8V211c0,38.4,39.6,68.9,91,74v-29c0-8.3,6.7-15,15-15s15,6.7,15,15v30
        h30v-30c0-8.3,6.7-15,15-15s15,6.7,15,15v30h30v-30c0-8.3,6.7-15,15-15s15,6.7,15,15v30h30v-30c0-8.3,6.7-15,15-15s15,6.7,15,15v30
        h30v-30c0-8.3,6.7-15,15-15s15,6.7,15,15v30h30v-30c0-8.3,6.7-15,15-15s15,6.7,15,15v30c0,0.4-0.2,0.7-0.2,1
        c33.1,3.5,67.4,18.8,82.6,43.9C486,360,443.5,376,406,376H91v90h60v-30c0-8.3,6.7-15,15-15s15,6.7,15,15v30h30v-30
        c0-8.3,6.7-15,15-15s15,6.7,15,15v30h30v-30c0-8.3,6.7-15,15-15s15,6.7,15,15v30h30v-30c0-8.3,6.7-15,15-15s15,6.7,15,15v30h30v-30
        c0-8.3,6.7-15,15-15s15,6.7,15,15v29c51.4-5.1,91-35.6,91-74V271C512,228.9,464.9,196,406,196z"/>
    <path class="st0" d="M15,466h46v-90H15c-8.3,0-15,6.7-15,15v60C0,459.3,6.7,466,15,466z"/>
    <path class="st0" d="M106,166c58,0,105-26.9,105-60c0-33.1-47-60-105-60S0,72.9,0,106C0,139.1,48,166,106,166z M76,91h60
        c8.3,0,15,6.7,15,15s-6.7,15-15,15H76c-8.3,0-15-6.7-15-15S67.7,91,76,91z"/>
</g>
</svg>
