<?xml version="1.0" encoding="utf-8"?>
<!-- Generator: Adobe Illustrator 22.0.1, SVG Export Plug-In . SVG Version: 6.00 Build 0)  -->
<svg version="1.1" id="Layer_1" xmlns="http://www.w3.org/2000/svg" xmlns:xlink="http://www.w3.org/1999/xlink" x="0px" y="0px"
	 viewBox="0 0 289.3 75.9" style="enable-background:new 0 0 289.3 75.9;" xml:space="preserve">
<style type="text/css">
	.st0{fill:#E13F22;}
	.st1{fill-rule:evenodd;clip-rule:evenodd;fill:#6D6E70;}
</style>
<g>
	<path class="st0" d="M39.3,56.9c2.4,0.3,5.9,0.6,10.1,0.6c9.4,0,15.5-2,19.5-5.7c3.2-2.8,5.3-6.4,6.1-11c1.1-6.2-1.4-11.6-7.6-13.5
		l0.1-0.3c6-2.4,9.5-7.3,10.4-12.3c0.7-3.9,0.1-7.7-2.4-10.2c-3.3-3.3-8.3-4-13.6-4c-4.8,0-9.2,0.3-12.7,1.1L39.3,56.9L39.3,56.9z
		 M58.8,8.9c0.7-0.3,1.7-0.3,2.9-0.3c4.5,0,5.9,3.2,5.1,7.3c-0.8,4.6-4.4,7.9-8.4,7.9h-2.3L58.8,8.9L58.8,8.9z M54.7,31.9h2.3
		c4.3,0.1,7.7,3,6.7,8.6c-1,5.8-5.2,8.4-9.6,8.4c-1,0-1.8,0-2.4-0.2L54.7,31.9L54.7,31.9z M109.2,57l-6.1-28.3l15.5-28h-11L103,11
		c-1.3,3.1-2.4,5.8-4,9.2h-0.2c-0.4-3.2-0.6-6.1-1-9L96.5,0.7H85l5.2,27.5L74.6,57h10.9l4.8-10.2c1.4-3.2,2.9-6.6,4.5-10.2H95
		c0.4,3.6,0.7,6.8,1.2,10L97.9,57H109.2L109.2,57z M132.2,57h11l8.2-46.2h10l1.8-10.1h-30.9l-1.8,10.1h10L132.2,57L132.2,57z
		 M183.8,0c-12.5,0-20.9,13.3-23.7,28.7c-2.8,15.5-0.1,29,12.6,29c10.7,0,19.8-8.6,23.5-29.9C198.7,15,197.5,0,183.8,0L183.8,0z
		 M181.7,9.5c4.9,0,4.8,8.9,3.1,18.8c-2,11.5-5.3,19.8-9.9,19.8c-4.4,0-5.7-6.5-3.4-19.3C173.7,16.7,177.4,9.5,181.7,9.5L181.7,9.5z
		 M224.1,0c-12.5,0-20.9,13.3-23.7,28.7c-2.8,15.5-0.1,29,12.6,29c10.7,0,19.8-8.6,23.5-29.9C238.9,15,237.7,0,224.1,0L224.1,0z
		 M221.9,9.5c4.9,0,4.8,8.9,3.1,18.8c-2,11.5-5.3,19.8-9.9,19.8c-4.4,0-5.7-6.5-3.4-19.3C213.9,16.7,217.6,9.5,221.9,9.5L221.9,9.5z
		 M238.3,57h25.4l1.7-9.3h-14.5l8.4-47.1h-11L238.3,57L238.3,57z"/>
	<path class="st1" d="M26.8,33.8h9.7L34.8,41h-8.1C19.1,41,10.7,47.2,8,54.8l0,0c-2.7,7.6,1.3,13.9,9,13.9h245.6
		c7.6,0,16.1-6.2,18.8-13.9v0c2.7-7.6-1.3-13.9-9-13.9h-5.8l1.6-7.2h4.2c13,0,20,11.5,15.8,23.5c-3.6,10.2-14.6,18.7-25.5,18.7H17
		C4,75.9-3,64.3,1.2,52.4C4.8,42.2,15.8,33.8,26.8,33.8L26.8,33.8z"/>
</g>
</svg>
