<?xml version="1.0" encoding="utf-8"?>
<!-- Generator: Adobe Illustrator 22.0.1, SVG Export Plug-In . SVG Version: 6.00 Build 0)  -->
<svg version="1.1" id="Capa_1" xmlns="http://www.w3.org/2000/svg" xmlns:xlink="http://www.w3.org/1999/xlink" x="0px" y="0px"
	 viewBox="0 0 512 512" style="enable-background:new 0 0 512 512;" xml:space="preserve">
<style type="text/css">
	.st0{fill:#6D6E70;}
</style>
<path class="st0" d="M508.1,300.5l-38.7-70.8c-0.4-3.7-1-7.3-1.6-11l40.3-7.1l-60.5-53.2c-1.7-3.3-3.5-6.6-5.4-9.9l35.4-20.5
	l-75.3-29.4c-2.7-2.5-5.4-4.9-8.2-7.3l26.4-31.4L340.1,58c-3.5-1.5-7-2.9-10.5-4.1l14-38.4L267,41.3c-3.7-0.2-7.3-0.3-11-0.3V0
	l-62.9,50.3c-3.6,1.1-7.2,2.3-10.7,3.6l-14-38.4l-42,68.9c-2.9,2.2-5.8,4.5-8.7,6.9L91.4,59.9l-15.9,79.1c-2,3.1-4,6.3-5.9,9.5
	L34.3,128l12.1,79.7c-0.8,3.6-1.6,7.3-2.2,11l-40.3-7.1l38.7,70.8c0.4,3.7,1,7.3,1.6,11l-40.3,7.1l60.5,53.2
	c1.7,3.3,3.5,6.6,5.4,9.9L34.3,384l75.3,29.4c2.7,2.5,5.4,4.9,8.2,7.3l-26.4,31.4l80.5,1.9c3.5,1.5,7,2.9,10.5,4.1l-14,38.4
	l76.5-25.8c3.7,0.2,7.3,0.3,11,0.3v41l62.9-50.3c3.6-1.1,7.2-2.3,10.7-3.6l14,38.4l42-68.9c2.9-2.2,5.8-4.5,8.7-6.9l26.4,31.4
	l15.9-79.1c2-3.1,4-6.3,5.9-9.5l35.4,20.5l-12.1-79.7c0.8-3.6,1.6-7.3,2.2-11L508.1,300.5z M256,441c-102,0-185-83-185-185
	S154,71,256,71s185,83,185,185S358,441,256,441z"/>
<path class="st0" d="M256,124.9c-72.3,0-131.1,58.8-131.1,131.1S183.7,387.1,256,387.1c72.3,0,131.1-58.8,131.1-131.1
	S328.3,124.9,256,124.9z M237.3,322.7L168,253l26.2-26.2l43.1,42.7l80.6-80.2l26.2,26.2L237.3,322.7z"/>
</svg>
