<svg height="512" width="512" xmlns="http://www.w3.org/2000/svg" fill="#fbfbfb"><path d="M256 119.49c-141.159 0-256 114.841-256 256 0 8.284 6.716 15 15 15h196.328c-13.41-39.496 28.479-75.879 65.651-57.19l65.086-65.086c-67.009-55.909-175.223-30.695-210.927 49.341-3.495 7.51-12.42 10.766-19.928 7.269-7.512-3.495-10.767-12.417-7.271-19.928 37.945-87.859 167.684-135.898 259.397-57.952l10.593-10.593c5.857-5.857 15.355-5.857 21.213 0s5.858 15.355 0 21.213l-10.681 10.681c10.535 12.578 18.375 25.415 23.604 36.651 7.719 18.326-18.151 30.367-27.199 12.657a136.938 136.938 0 00-17.556-28.156l-65.116 65.117c5.474 10.569 6.496 24.592 2.481 35.977H497c8.284 0 15-6.716 15-15C512 234.33 397.159 119.49 256 119.49z"/><path d="M256 358.356c-9.447 0-17.134 7.687-17.134 17.134.861 22.698 33.41 22.692 34.268 0 0-9.448-7.687-17.134-17.134-17.134z"/></svg>