<svg id="Layer_1" enable-background="new 0 0 512 512" height="512" viewBox="0 0 512 512" width="512" xmlns="http://www.w3.org/2000/svg" fill="#fbfbfb"><g><path d="m193.541 129.02c-35.759 0-64.852 29.096-64.852 64.859 3.26 85.931 126.463 85.899 129.711-.001 0-35.762-29.095-64.858-64.859-64.858z"/><path d="m352.782 286.728-18.807-18.808c4.591-8.681 8.349-17.74 11.243-27.101h26.873c8.284 0 15-6.716 15-15v-63.881c0-8.284-6.716-15-15-15h-26.873c-2.894-9.36-6.651-18.419-11.243-27.101l19.014-19.014c5.853-5.852 5.858-15.355 0-21.214l-45.179-45.172c-5.858-5.857-15.355-5.856-21.212.001l-19.012 19.012c-8.672-4.588-17.73-8.347-27.095-11.244v-26.867c0-8.284-6.716-15-15-15h-63.891c-8.284 0-15 6.716-15 15v26.864c-9.364 2.895-18.423 6.654-27.104 11.248l-19.011-19.011c-5.853-5.853-15.356-5.858-21.213 0l-45.171 45.171c-5.853 5.852-5.859 15.354 0 21.213l19.014 19.014c-4.59 8.68-8.35 17.739-11.246 27.101h-26.869c-8.284 0-15 6.716-15 15v63.881c0 8.284 6.716 15 15 15h26.869c2.896 9.363 6.655 18.42 11.246 27.101l-19.014 19.015c-5.853 5.852-5.859 15.354 0 21.213l45.172 45.171c5.852 5.852 15.354 5.859 21.213 0l19.014-19.014c8.679 4.59 17.738 8.35 27.101 11.246v26.869c0 8.284 6.716 15 15 15h63.889c8.284 0 15-6.716 15-15v-26.869c9.358-2.896 18.415-6.655 27.093-11.246l18.81 18.81c13.391-29.322 37.067-52.997 66.389-66.388zm-159.241 2.011c-52.301 0-94.852-42.554-94.852-94.859 4.769-125.675 184.961-125.633 189.711.001 0 52.305-42.553 94.858-94.859 94.858z"/><path d="m408.185 304.709c-57.244 0-103.815 46.571-103.815 103.815 5.22 137.536 202.432 137.498 207.63-.001 0-57.243-46.571-103.814-103.815-103.814zm41.752 93.655s-41.524 41.524-41.524 41.524c-5.857 5.858-15.353 5.858-21.211.002 0 0-20.766-20.758-20.766-20.758-13.533-14.561 6.629-34.752 21.209-21.217 0 0 10.16 10.155 10.16 10.155l30.92-30.919c14.57-13.535 34.746 6.645 21.212 21.213z"/></g></svg>
