<svg height="512" width="512" xmlns="http://www.w3.org/2000/svg" fill="#fbfbfb"><path d="M193.541 129.02c-35.759 0-64.852 29.096-64.852 64.859 3.26 85.931 126.463 85.899 129.711-.001 0-35.762-29.095-64.858-64.859-64.858z"/><path d="M352.782 286.728l-18.807-18.808a157.318 157.318 0 0011.243-27.101h26.873c8.284 0 15-6.716 15-15v-63.881c0-8.284-6.716-15-15-15h-26.873a157.304 157.304 0 00-11.243-27.101l19.014-19.014c5.853-5.852 5.858-15.355 0-21.214L307.81 34.437c-5.858-5.857-15.355-5.856-21.212.001L267.586 53.45a157.31 157.31 0 00-27.095-11.244V15.339c0-8.284-6.716-15-15-15H161.6c-8.284 0-15 6.716-15 15v26.864a157.112 157.112 0 00-27.104 11.248L100.485 34.44c-5.853-5.853-15.356-5.858-21.213 0L34.101 79.611c-5.853 5.852-5.859 15.354 0 21.213l19.014 19.014a157.502 157.502 0 00-11.246 27.101H15c-8.284 0-15 6.716-15 15v63.881c0 8.284 6.716 15 15 15h26.869a157.423 157.423 0 0011.246 27.101l-19.014 19.015c-5.853 5.852-5.859 15.354 0 21.213l45.172 45.171c5.852 5.852 15.354 5.859 21.213 0l19.014-19.014a157.437 157.437 0 0027.101 11.246v26.869c0 8.284 6.716 15 15 15h63.889c8.284 0 15-6.716 15-15v-26.869a157.41 157.41 0 0027.093-11.246l18.81 18.81c13.391-29.322 37.067-52.997 66.389-66.388zm-159.241 2.011c-52.301 0-94.852-42.554-94.852-94.859 4.769-125.675 184.961-125.633 189.711.001 0 52.305-42.553 94.858-94.859 94.858zM408.185 304.709c-57.244 0-103.815 46.571-103.815 103.815 5.22 137.536 202.432 137.498 207.63-.001 0-57.243-46.571-103.814-103.815-103.814zm41.752 93.655l-41.524 41.524c-5.857 5.858-15.353 5.858-21.211.002l-20.766-20.758c-13.533-14.561 6.629-34.752 21.209-21.217l10.16 10.155 30.92-30.919c14.57-13.535 34.746 6.645 21.212 21.213z"/></svg>