<svg id="Layer_1" enable-background="new 0 0 511.488 511.488" height="512" viewBox="0 0 511.488 511.488" width="512" xmlns="http://www.w3.org/2000/svg" fill="#fbfbfb"><g><path d="m111.365 270.319h35.398c-34.002-44.038-33.999-114.408.001-158.443h-31.391c60.204-109.578 220.815-109.503 280.988 0h-31.395c34.003 44.038 34 114.408 0 158.443h35.397c25.978 0 47.111-21.134 47.111-47.11v-64.222c0-10.886-3.721-20.913-9.945-28.9-60.078-173.3-303.032-173.6-363.332.003-6.222 7.986-9.943 18.012-9.943 28.896v64.222c0 25.977 21.134 47.111 47.111 47.111z"/><path d="m467.125 466.106c-18.248-83.881-94.865-170.108-211.266-170.12-111.666 0-191.879 81.28-211.449 169.874-5.002 23.515 12.97 45.637 36.947 45.628 75.479 0 275.981 0 349.005-.233 23.797 0 41.581-21.844 36.763-45.149z"/><path d="m287.975 224.264h67.4c23.223-65.987-29.25-139.33-99.512-138.053-57.835-.001-104.887 47.051-104.887 104.886.217 100.577 128.995 142.543 188.566 63.167h-51.567c-19.873-.734-19.872-29.267 0-30z"/></g></svg>
