<?xml version="1.0" encoding="utf-8"?>
<!-- Generator: Adobe Illustrator 22.1.0, SVG Export Plug-In . SVG Version: 6.00 Build 0)  -->
<svg version="1.1" xmlns="http://www.w3.org/2000/svg" xmlns:xlink="http://www.w3.org/1999/xlink" x="0px" y="0px"
	 viewBox="0 0 765.7 1100.8" style="enable-background:new 0 0 765.7 1100.8;" xml:space="preserve" preserveAspectRatio="none">
<path d="M56.1,2.5c0,14.8-6,28.2-15.7,37.8C30.7,50.1,17.3,56,2.5,56L0,56l0,2.5l0,468.7l0,515l0,2.5l2.5,0
	c14.8,0,28.2,6,37.9,15.7c9.7,9.7,15.7,23,15.7,37.8v2.5h2.5h244.5h403.9h2.5v-2.5c0-14.8,6-28.2,15.7-37.8
	c9.7-9.7,23.1-15.7,37.9-15.7l2.5,0v-2.5v-515V58.6V56l-2.5,0c-14.8,0-28.2-6-37.9-15.7c-9.7-9.7-15.7-23-15.7-37.8V0l-2.5,0
	L303.1,0L58.7,0l-2.5,0V2.5z M303.1,5.1h401.5c0.7,15.2,7.1,28.8,17.1,38.9c10.1,10,23.7,16.5,38.9,17.1v466.2v512.5
	c-15.2,0.6-28.9,7.1-38.9,17.1c-10.1,10-16.5,23.7-17.1,38.9H303.1h-242c-0.6-15.2-7.1-28.8-17.1-38.9c-10.1-10-23.7-16.5-38.9-17.1
	V527.3V61.1C20.3,60.4,34,54,44,44c10.1-10,16.5-23.7,17.1-38.9H303.1z"/>
</svg>
