<?xml version="1.0" encoding="utf-8"?>
<!-- Generator: Adobe Illustrator 22.1.0, SVG Export Plug-In . SVG Version: 6.00 Build 0)  -->
<svg version="1.1" id="Ñëîé_1" xmlns="http://www.w3.org/2000/svg" xmlns:xlink="http://www.w3.org/1999/xlink" x="0px" y="0px"
	 viewBox="0 0 1100.8 765.7" style="enable-background:new 0 0 1100.8 765.7;" xml:space="preserve" preserveAspectRatio="none">
<path class="st0" d="M1098.3,56.1c-14.8,0-28.2-6-37.8-15.7c-9.7-9.7-15.7-23.1-15.7-37.9l0-2.5h-2.5H573.6h-515H56l0,2.5
	c0,14.8-6,28.2-15.7,37.9c-9.7,9.7-23,15.7-37.8,15.7H0v2.5v244.5v403.9v2.5h2.5c14.8,0,28.2,6,37.8,15.7
	C50.1,735,56,748.4,56,763.2l0,2.5h2.5h515h468.7h2.5l0-2.5c0-14.8,6-28.2,15.7-37.9c9.7-9.7,23-15.7,37.8-15.7h2.5v-2.5V303.1V58.7
	v-2.5H1098.3z M1095.7,303.1v401.5c-15.2,0.7-28.8,7.1-38.9,17.1c-10,10.1-16.5,23.7-17.1,38.9H573.6H61.1
	c-0.6-15.2-7.1-28.9-17.1-38.9c-10-10.1-23.7-16.5-38.9-17.1V303.1v-242C20.3,60.5,33.9,54.1,44,44C54,34,60.4,20.3,61.1,5.1h512.5
	h466.2c0.6,15.2,7.1,28.9,17.1,38.9c10,10.1,23.7,16.5,38.9,17.1V303.1z"/>
</svg>
