<?xml version="1.0" encoding="utf-8"?>
<!-- Generator: Adobe Illustrator 22.1.0, SVG Export Plug-In . SVG Version: 6.00 Build 0)  -->
<svg version="1.1" id="Layer_1" xmlns="http://www.w3.org/2000/svg" xmlns:xlink="http://www.w3.org/1999/xlink" x="0px" y="0px"
	 viewBox="0 0 496 496" style="enable-background:new 0 0 496 496;" xml:space="preserve">
<path d="M463.3,349.9L340.4,268l122.9-81.9c20.5-13.7,32.7-36.5,32.7-61.1c0-15.4-4.7-30.2-13.7-42.7l-3-4.2
	c-17-23.8-44.7-38.1-74-38.1c-35.5,0-68,20.9-82.7,53.3c-12.4,27.2-18.6,56.1-18.6,86c0,14.2-4,28.2-11.3,40.3L184,92V0H0v496h184
	v-52l108.7-127.6c7.3,12.1,11.3,26.2,11.3,40.3c0,29.9,6.3,58.8,18.6,86c14.7,32.4,47.2,53.3,82.7,53.3c29.3,0,56.9-14.2,73.9-38
	l3-4.2c9-12.5,13.7-27.3,13.7-42.7C496,386.4,483.8,363.6,463.3,349.9z M320,179.3c0-27.6,5.8-54.3,17.2-79.4
	C349.3,73.2,376.1,56,405.4,56c24.1,0,46.9,11.7,60.9,31.4l3,4.2c7,9.8,10.7,21.4,10.7,33.4c0,19.2-9.6,37.1-25.6,47.8L326,258.4
	l-0.6-0.4l-21.8-25.6C314.1,216.8,320,198.1,320,179.3z M288,284.7L267.3,264h-31L106.3,65.1l3.4-3.4c7.7-7.7,21.4-7.1,28.5,1.1
	l171,200.7L288,284.7z M219.8,268L184,322.8v-38.1L147.3,248l35.9-35.9L219.8,268z M168,480H16V256h24v-16H16V16h152v57.2
	l-17.7-20.8c-6.7-7.9-16.6-12.4-27-12.4c-9.5,0-18.3,3.7-25,10.4L85.7,62.9L168,188.7v16L132.7,240H104v16h28.7l35.3,35.3V480z
	 M184,352l47.1-72h29.6l21.3,21.3l1.2,1.6L184,419.3V352z M469.3,444.4l-3,4.2c-14,19.6-36.8,31.4-60.9,31.4
	c-29.3,0-56-17.2-68.2-43.9C325.8,411,320,384.3,320,356.7c0-20.2-6.7-40.3-18.8-56.4l-2.6-3.5l22.5-22.5l133.4,88.9
	c16,10.7,25.6,28.6,25.6,47.8C480,423.1,476.3,434.6,469.3,444.4z"/>
<path d="M445.5,376.5l-105.6-70.4c-2.9-1.9-6.8-1.8-9.5,0.4c-2.7,2.2-3.7,5.9-2.4,9.2c5.3,13.2,7.9,26.9,7.9,40.9
	c0,25.3,5.3,49.8,15.8,72.8c9.5,21,30.6,34.5,53.6,34.5c19,0,36.9-9.2,47.9-24.6l3-4.3c5-7.1,7.7-15.4,7.7-24.1
	C464,397.1,457.1,384.2,445.5,376.5z M443.3,425.8l-3,4.3c-8,11.2-21.1,17.9-34.9,17.9c-16.8,0-32.1-9.9-39-25.1
	c-9.5-20.9-14.3-43.2-14.3-66.2c0-8.4-0.8-16.8-2.5-25l87.2,58.1c7.1,4.7,11.3,12.6,11.3,21.2C448,416.4,446.4,421.5,443.3,425.8z"
	/>
<path d="M335.5,231.2c1.5,0,3.1-0.4,4.4-1.3l105.6-70.4c11.6-7.7,18.5-20.6,18.5-34.5c0-8.7-2.7-17-7.7-24.1l-3-4.2
	c-11-15.4-28.9-24.6-47.9-24.6c-23,0-44.1,13.5-53.6,34.5c-10.5,23-15.8,47.5-15.8,72.8c0,14-2.7,27.8-7.9,40.9
	c-1.3,3.3-0.3,7,2.4,9.2C331.9,230.6,333.7,231.2,335.5,231.2z M352,179.3c0-23,4.8-45.3,14.3-66.2c6.9-15.3,22.3-25.1,39-25.1
	c13.8,0,26.9,6.7,34.9,18l3,4.2c3.1,4.3,4.7,9.5,4.7,14.8c0,8.5-4.2,16.4-11.3,21.2l-87.2,58.1C351.2,196.1,352,187.7,352,179.3z"/>
<path d="M240,232h16v16h-16V232z"/>
<path d="M56,240h32v16H56V240z"/>
</svg>
