<?xml version="1.0" encoding="utf-8"?>
<!-- Generator: Adobe Illustrator 22.1.0, SVG Export Plug-In . SVG Version: 6.00 Build 0)  -->
<svg version="1.1" id="Layer_1" xmlns="http://www.w3.org/2000/svg" xmlns:xlink="http://www.w3.org/1999/xlink" x="0px" y="0px"
	 viewBox="0 0 512 512" style="enable-background:new 0 0 512 512;" xml:space="preserve">
<path d="M127.3,472.4v-96.2c0-4.1-3.4-7.5-7.5-7.5H39.6c-4.2,0-7.5,3.4-7.5,7.5v96.2c0,4.2,3.4,7.5,7.5,7.5h80.2
	C123.9,479.9,127.3,476.6,127.3,472.4z M47.1,464.9v-81.2h65.1v81.2H47.1z"/>
<path d="M239.5,472.4v-96.2c0-4.1-3.4-7.5-7.5-7.5h-80.2c-4.2,0-7.5,3.4-7.5,7.5v96.2c0,4.2,3.4,7.5,7.5,7.5H232
	C236.1,479.9,239.5,476.6,239.5,472.4z M159.3,464.9v-81.2h65.1v81.2H159.3z"/>
<path d="M248.3,180.3c2.9-2.9,2.9-7.7,0-10.6l-56.7-56.7c-2.9-2.9-7.7-2.9-10.6,0l-68,68c-2.9,2.9-2.9,7.7,0,10.6l56.7,56.7
	c2.9,2.9,7.7,2.9,10.6,0L248.3,180.3z M128.9,186.3l57.4-57.4l46.1,46.1l-57.4,57.4L128.9,186.3z"/>
<path d="M327.6,259.6c2.9-2.9,2.9-7.7,0-10.6l-56.7-56.7c-2.9-2.9-7.7-2.9-10.6,0l-68,68c-2.9,2.9-2.9,7.7,0,10.6l56.7,56.7
	c2.9,2.9,7.7,2.9,10.6,0L327.6,259.6z M208.2,265.6l57.4-57.4l46.1,46.1l-57.4,57.4L208.2,265.6z"/>
<path d="M512,424.3V7.5c0-4.2-3.4-7.5-7.5-7.5L344.2,0c-4.1,0-7.5,3.4-7.5,7.5v56.1c0,4.1,3.4,7.5,7.5,7.5c4.2,0,7.5-3.4,7.5-7.5V15
	H497v409.3c0,40.1-32.6,72.6-72.6,72.6s-72.6-32.6-72.6-72.6V99.2c0-4.2-3.4-7.5-7.5-7.5c-4.1,0-7.5,3.4-7.5,7.5v113.5L191.6,67.6
	c-2.9-2.9-7.7-2.9-10.6,0L67.6,181c-2.9,2.9-2.9,7.7,0,10.6l145.1,145.1H7.5c-4.2,0-7.5,3.4-7.5,7.5l0,160.3c0,4.2,3.4,7.5,7.5,7.5
	h416.8C472.7,512,512,472.7,512,424.3z M336.5,460.5c0,0,0.1,0.1,0.1,0.1v4.3h-65.1v-69.4L336.5,460.5z M335,389.6l-1.4,1.4
	L287.6,345l49.1-49.1v92.5C336.1,388.7,335.5,389.1,335,389.6z M83.5,186.3L186.3,83.5l150.4,150.4v41.2c-0.6,0.3-65,64.6-65,64.6
	c-2.9,2.9-2.9,7.7,0,10.6l56.7,56.7c2.3,2.3,5.6,2.8,8.3,1.6v15.8c0,5.7,0.6,11.3,1.6,16.7L83.5,186.3z M15,497V351.7h211.9
	c0.2,0,0.5,0,0.7,0l28.9,28.9c-0.1,0.4-0.1,0.8-0.1,1.2v90.7c0,4.2,3.4,7.5,7.5,7.5h80.2c3.9,0,7-2.9,7.5-6.7
	c6.3,9.3,14.3,17.4,23.7,23.7H15z"/>
<path d="M376.2,127.3h96.2c4.2,0,7.5-3.4,7.5-7.5V39.6c0-4.2-3.4-7.5-7.5-7.5h-96.2c-4.1,0-7.5,3.4-7.5,7.5v80.2
	C368.7,123.9,372.1,127.3,376.2,127.3z M383.8,112.2V47.1h81.2v65.1H383.8z"/>
<path d="M368.7,232c0,4.1,3.4,7.5,7.5,7.5h96.2c4.2,0,7.5-3.4,7.5-7.5v-80.2c0-4.2-3.4-7.5-7.5-7.5h-96.2c-4.1,0-7.5,3.4-7.5,7.5
	V232z M464.9,159.3v65.1h-81.2v-65.1H464.9z"/>
<path d="M368.7,344.2c0,4.2,3.4,7.5,7.5,7.5h96.2c4.2,0,7.5-3.4,7.5-7.5V264c0-4.1-3.4-7.5-7.5-7.5h-96.2c-4.1,0-7.5,3.4-7.5,7.5
	V344.2z M464.9,271.5v65.1h-81.2v-65.1H464.9z"/>
<path d="M424.3,463.9c21.8,0,39.6-17.8,39.6-39.6c0-21.8-17.8-39.6-39.6-39.6c-21.8,0-39.6,17.8-39.6,39.6
	C384.8,446.2,402.5,463.9,424.3,463.9z M424.3,399.8c13.5,0,24.5,11,24.5,24.5s-11,24.5-24.5,24.5s-24.5-11-24.5-24.5
	S410.8,399.8,424.3,399.8z"/>
</svg>
