<?xml version="1.0" encoding="utf-8"?>
<!-- Generator: Adobe Illustrator 22.1.0, SVG Export Plug-In . SVG Version: 6.00 Build 0)  -->
<svg version="1.1" id="Capa_1" xmlns="http://www.w3.org/2000/svg" xmlns:xlink="http://www.w3.org/1999/xlink" x="0px" y="0px"
	 viewBox="0 0 512 349.6" style="enable-background:new 0 0 512 349.6;" xml:space="preserve">
<g>
	<g>
		<path d="M502,83.9c5.5,0,10-4.5,10-10V10c0-5.5-4.5-10-10-10L335.9,0c0,0,0,0,0,0c-20.2,0-39.8,8.2-54,22.6l-15.6,15.8l-24-24
			C233,5.1,220.6,0,207.5,0L10,0C7.3,0,4.8,1.1,2.9,2.9C1.1,4.8,0,7.3,0,10v198.2c0,5.5,4.5,10,10,10h89.2
			c1.6,5.6,4.5,10.9,8.9,15.3c6.8,6.8,15.8,10.2,24.7,10.2c0.1,0,0.2,0,0.3,0c0,0.1,0,0.2,0,0.4c0,9.3,3.6,18.1,10.2,24.7
			s15.4,10.2,24.7,10.2c0,0,0,0,0,0c0.1,0,0.2,0,0.3,0c0,0.1,0,0.2,0,0.3c0,9.3,3.6,18.1,10.2,24.7s15.4,10.2,24.7,10.2c0,0,0,0,0,0
			c0.1,0,0.2,0,0.3,0c0,0.1,0,0.2,0,0.3c0,9.3,3.6,18.1,10.2,24.7s15.4,10.2,24.7,10.2c0,0,0,0,0,0c7.8,0,15.2-2.6,21.3-7.3
			c6.2,4.8,13.7,7.2,21.2,7.2c8.9,0,17.9-3.4,24.7-10.2c6.9-6.9,10.3-16,10.2-25.1c0.1,0,0.2,0,0.4,0c0,0,0,0,0,0
			c9.3,0,18.1-3.6,24.7-10.2c6.9-6.9,10.3-16,10.2-25.1c0.1,0,0.2,0,0.4,0c0,0,0,0,0,0c9.3,0,18.1-3.6,24.7-10.2
			c6.9-6.9,10.3-16,10.2-25.1c0.1,0,0.2,0,0.4,0c0,0,0,0,0,0c9.3,0,18.1-3.6,24.7-10.2c4.3-4.3,7.4-9.6,8.9-15.3H502
			c5.5,0,10-4.5,10-10v-57.6c0-5.5-4.5-10-10-10s-10,4.5-10,10v47.6h-34V22.6c0-0.9-0.1-1.7-0.3-2.6l34.3,0v53.9
			C492,79.4,496.4,83.9,502,83.9z M132.8,223.7C132.8,223.7,132.8,223.7,132.8,223.7c-4,0-7.8-1.6-10.6-4.4
			c-2.8-2.8-4.4-6.6-4.4-10.6s1.6-7.8,4.4-10.6l21.2-21.2c2.9-2.9,6.7-4.4,10.6-4.4c3.8,0,7.7,1.5,10.6,4.4c5.8,5.8,5.8,15.3,0,21.2
			l-21.2,21.2C140.6,222.2,136.8,223.7,132.8,223.7z M168.1,259C168.1,259,168.1,259,168.1,259c-4,0-7.8-1.6-10.6-4.4
			c-2.8-2.8-4.4-6.6-4.4-10.6c0-4,1.6-7.8,4.4-10.6l21.2-21.2c2.8-2.8,6.6-4.4,10.6-4.4c0,0,0,0,0,0c4,0,7.8,1.6,10.6,4.4v0
			c5.8,5.8,5.8,15.3,0,21.2l-21.2,21.2C175.9,257.5,172.1,259,168.1,259z M192.8,289.9c-5.8-5.8-5.8-15.3,0-21.2l21.2-21.2
			c2.8-2.8,6.6-4.4,10.6-4.4c0,0,0,0,0,0c4,0,7.8,1.6,10.6,4.4c5.8,5.8,5.8,15.3,0,21.2L214,289.9
			C208.1,295.8,198.7,295.8,192.8,289.9z M252.9,321.6C252.9,321.6,252.9,321.6,252.9,321.6C252.9,321.6,252.9,321.6,252.9,321.6
			l-3.7,3.7c-2.8,2.8-6.6,4.4-10.6,4.4c0,0,0,0,0,0c-4,0-7.8-1.6-10.6-4.4c-2.8-2.8-4.4-6.6-4.4-10.6s1.6-7.8,4.4-10.6l21.2-21.2
			c2.8-2.8,6.6-4.4,10.6-4.4c0,0,0,0,0,0c4,0,7.8,1.6,10.6,4.4v0c2.8,2.8,4.4,6.6,4.4,10.6c0,4-1.6,7.8-4.4,10.6L252.9,321.6z
			 M291.8,325.2c-4.6,4.6-11.5,5.6-17.1,2.9l9.9-9.8c3.8-3.7,6.5-8.2,8.3-13.1C297.6,311,297.3,319.7,291.8,325.2z M397.7,219.3
			c-2.8,2.8-6.6,4.4-10.6,4.4c0,0,0,0,0,0c-4,0-7.8-1.6-10.6-4.4l-63.2-63.2c-3.9-3.9-10.2-3.9-14.1,0c-2,2-2.9,4.5-2.9,7.1
			c0,2.6,1,5.1,2.9,7.1l63.2,63.2c5.8,5.8,5.8,15.3,0,21.2c-2.8,2.8-6.6,4.4-10.6,4.4c0,0,0,0,0,0c-4,0-7.8-1.6-10.6-4.4L278,191.4
			c-3.9-3.9-10.2-3.9-14.1,0c-3.9,3.9-3.9,10.2,0,14.1l63.2,63.2c5.8,5.8,5.8,15.3,0,21.2c-2.8,2.8-6.6,4.4-10.6,4.4c0,0,0,0,0,0
			c-4,0-7.8-1.6-10.6-4.4l-20.1-20.1c-0.5-0.5-1-0.9-1.5-1.3c-6.6-6.4-15.2-10-24.5-10c0,0,0,0,0,0c-0.1,0-0.2,0-0.4,0
			c0.1-9.1-3.3-18.2-10.2-25.1v0c-6.6-6.6-15.4-10.2-24.7-10.2c0,0,0,0,0,0c-0.1,0-0.2,0-0.4,0c0.1-9.1-3.3-18.2-10.2-25.1
			c-6.6-6.6-15.4-10.2-24.7-10.2c0,0,0,0,0,0c-0.1,0-0.2,0-0.4,0c0.1-9.1-3.3-18.2-10.2-25.1v0c-13.6-13.6-35.8-13.6-49.4,0
			L108.1,184c-4.1,4.1-7,9-8.6,14.1H74V86.1c0-5.5-4.5-10-10-10s-10,4.5-10,10v112.1H20V20l187.5,0c7.8,0,15.1,3,20.6,8.5l24,24
			L232,73c-14,14.2-13.9,37.2,0.3,51.2c7,6.9,16.2,10.5,25.5,10.5c6.4,0,12.8-1.7,18.6-5.1l32.9-19.7l88.4,88.4
			c2.4,2.4,3.9,5.5,4.3,8.9c0,0.4-0.1,0.7-0.1,1.1c0,0.5,0,1,0.1,1.5C401.8,213.3,400.3,216.7,397.7,219.3z M438,22.6v175.6h-17.5
			c-1.7-5.3-4.6-10.1-8.6-14.2L327,99.2l12.9-7.7h64.5c5.5,0,10-4.5,10-10c0-5.5-4.5-10-10-10h-67.3c-1.8,0-3.6,0.5-5.1,1.4
			l-65.9,39.5c-6.3,3.8-14.5,2.8-19.7-2.4c-6.3-6.3-6.4-16.6-0.1-22.9l49.8-50.4C306.5,26.1,321,20,335.8,20c0,0,0,0,0,0l102.5,0
			C438.1,20.8,438,21.7,438,22.6z"/>
	</g>
</g>
<g>
	<g>
		<path d="M509,102c-1.9-1.9-4.4-2.9-7.1-2.9c-2.6,0-5.2,1.1-7.1,2.9c-1.9,1.9-2.9,4.4-2.9,7.1c0,2.6,1.1,5.2,2.9,7.1
			c1.9,1.9,4.4,2.9,7.1,2.9c2.6,0,5.2-1.1,7.1-2.9c1.9-1.9,2.9-4.4,2.9-7.1C512,106.5,510.9,103.9,509,102z"/>
	</g>
</g>
<g>
	<g>
		<path d="M71.1,41.5c-1.9-1.9-4.4-2.9-7.1-2.9c-2.6,0-5.2,1.1-7.1,2.9C55.1,43.4,54,46,54,48.6s1.1,5.2,2.9,7.1
			c1.9,1.9,4.4,2.9,7.1,2.9c2.6,0,5.2-1.1,7.1-2.9c1.9-1.9,2.9-4.4,2.9-7.1S72.9,43.4,71.1,41.5z"/>
	</g>
</g>
</svg>
