<?xml version="1.0" encoding="utf-8"?>
<!-- Generator: Adobe Illustrator 22.1.0, SVG Export Plug-In . SVG Version: 6.00 Build 0)  -->
<svg version="1.1" id="Layer_1" xmlns="http://www.w3.org/2000/svg" xmlns:xlink="http://www.w3.org/1999/xlink" x="0px" y="0px"
	 viewBox="0 0 512 512" style="enable-background:new 0 0 512 512;" xml:space="preserve">
<g id="XMLID_939_">
	<g id="XMLID_585_">
		<path id="XMLID_913_" d="M128.3,290.1c-1.9,1.9-2.9,4.4-2.9,7.1c0,2.6,1.1,5.2,2.9,7.1c1.9,1.9,4.4,2.9,7.1,2.9s5.2-1.1,7.1-2.9
			c1.9-1.9,2.9-4.4,2.9-7.1c0-2.6-1.1-5.2-2.9-7.1c-1.9-1.9-4.4-2.9-7.1-2.9C132.7,287.1,130.2,288.2,128.3,290.1z"/>
		<path id="XMLID_914_" d="M10,307.1h85.4c5.5,0,10-4.5,10-10s-4.5-10-10-10H20V20h380v87.4c0,5.5,4.5,10,10,10s10-4.5,10-10V10
			c0-5.5-4.5-10-10-10H10C4.5,0,0,4.5,0,10v287.1C0,302.6,4.5,307.1,10,307.1z"/>
		<path id="XMLID_915_" d="M410,137.4c-2.6,0-5.2,1.1-7.1,2.9c-1.9,1.9-2.9,4.4-2.9,7.1s1.1,5.2,2.9,7.1s4.4,2.9,7.1,2.9
			s5.2-1.1,7.1-2.9c1.9-1.9,2.9-4.4,2.9-7.1s-1.1-5.2-2.9-7.1S412.6,137.4,410,137.4z"/>
		<path id="XMLID_947_" d="M484.5,252.9c6.2-7.7,9.9-17.4,9.9-27.9v-10.6c0-24.7-20.1-44.7-44.7-44.7H444
			c-24.7,0-44.7,20.1-44.7,44.7v10.6c0,7.8,2,15,5.5,21.4l-3.6-0.9c-23-5.8-43.4-18.3-58.9-36.3c-5.1-5.9-12.3-9.5-20.1-9.9
			c-7.8-0.4-15.3,2.3-21.1,7.7c-10.3,9.6-12,25.6-4,37.2l10.2,14.7c7.4,10.7,16.4,20.2,26.5,28.3H175.4c-5.5,0-10,4.5-10,10
			s4.5,10,10,10h191.9c0,0,0.1,0,0.1,0l20.8,9.9v82.3V502c0,5.5,4.5,10,10,10H502c5.5,0,10-4.5,10-10V399.3V293.7
			C512,275.3,500.6,259.4,484.5,252.9z M419.3,214.3c0-13.6,11.1-24.7,24.7-24.7h5.6c13.6,0,24.7,11.1,24.7,24.7v10.6
			c0,13.4-10.8,24.4-24.2,24.7h-6.7c-13.4-0.3-24.2-11.3-24.2-24.7L419.3,214.3L419.3,214.3z M492,492h-31.9v-41.3
			c0-5.5-4.5-10-10-10s-10,4.5-10,10V492h-31.9v-82.7H492V492z M492,389.3h-83.8v-78.6c0-3.9-2.2-7.4-5.7-9l-33.7-16
			c-18.1-8.6-33.7-21.8-45.1-38.2l-10.2-14.7c-2.4-3.5-1.9-8.3,1.2-11.2c1.7-1.6,4-2.4,6.3-2.3c2.4,0.1,4.5,1.2,6.1,3
			c18.2,21.1,42.1,35.8,69.2,42.6l17.9,4.5c0.8,0.2,1.6,0.3,2.4,0.3h26.8c0.2,0,0.4,0,0.5,0h5.6c0.2,0,0.4,0,0.5,0h17.7
			c13.3,0,24.1,10.8,24.1,24.1L492,389.3L492,389.3z"/>
		<path id="XMLID_997_" d="M294.1,409.2c5.2-7.5,8.3-16.6,8.3-26.5v-9.1c0-25.6-20.8-46.4-46.4-46.4s-46.4,20.8-46.4,46.4v9.1
			c0,9.8,3.1,19,8.3,26.5c-18.1,0.5-34.1,9.8-43.9,23.8c-9.8-14-25.7-23.2-43.9-23.8c5.2-7.5,8.3-16.6,8.3-26.5v-9.1
			c0-25.6-20.8-46.4-46.4-46.4S45.6,348,45.6,373.6v9.1c0,9.8,3.1,19,8.3,26.5C24,410.1,0,434.6,0,464.7V502c0,5.5,4.5,10,10,10h164
			h164c5.5,0,10-4.5,10-10v-37.3C348,434.6,324,410.1,294.1,409.2z M65.6,373.6c0-14.6,11.9-26.4,26.4-26.4s26.4,11.9,26.4,26.4v9.1
			c0,14.6-11.9,26.4-26.4,26.4s-26.4-11.9-26.4-26.4V373.6z M164,492H20v-27.3c0-19.6,16-35.6,35.6-35.6h72.9
			c19.6,0,35.6,16,35.6,35.6L164,492L164,492z M229.6,373.6c0-14.6,11.9-26.4,26.4-26.4s26.4,11.9,26.4,26.4v9.1
			c0,14.6-11.9,26.4-26.4,26.4s-26.4-11.9-26.4-26.4V373.6z M328,492H184v-27.3c0-19.6,15.9-35.6,35.6-35.6h72.9
			c19.6,0,35.6,16,35.6,35.6L328,492L328,492z"/>
		<path id="XMLID_1022_" d="M354.3,75.4h-29.6c-5.5,0-10,4.5-10,10s4.5,10,10,10h29.6c5.5,0,10-4.5,10-10S359.9,75.4,354.3,75.4z"/>
		<path id="XMLID_1024_" d="M354.3,115.4h-73c-5.5,0-10,4.5-10,10s4.5,10,10,10h73c5.5,0,10-4.5,10-10S359.9,115.4,354.3,115.4z"/>
		<path id="XMLID_1100_" d="M227.4,170.5h7.1c5.5,0,10-4.5,10-10c0-59.4-48.3-107.8-107.8-107.8c-5.5,0-10,4.5-10,10v7.1
			c-45.6,5-81.2,43.7-81.2,90.7c0,50.3,40.9,91.2,91.2,91.2C183.7,251.7,222.4,216.1,227.4,170.5z M146.8,73.2
			c40.4,4.6,72.6,36.8,77.2,77.2h-77.2L146.8,73.2L146.8,73.2z M126.8,136.3L94,103.5c9.4-7.1,20.6-11.9,32.8-13.6V136.3z
			 M136.8,231.7c-39.3,0-71.2-31.9-71.2-71.2c0-16,5.3-30.8,14.3-42.8l49.8,49.8c0,0,0,0,0,0c1.8,1.8,4.3,2.9,7.1,2.9h70.5
			C202.4,205,172.6,231.7,136.8,231.7z"/>
	</g>
</g>
</svg>
