<?xml version="1.0" encoding="utf-8"?>
<!-- Generator: Adobe Illustrator 22.1.0, SVG Export Plug-In . SVG Version: 6.00 Build 0)  -->
<svg version="1.1" id="Layer_1" xmlns="http://www.w3.org/2000/svg" xmlns:xlink="http://www.w3.org/1999/xlink" x="0px" y="0px"
	 viewBox="0 0 496 496" style="enable-background:new 0 0 496 496;" xml:space="preserve">
<path d="M287.4,48C283.5,20.9,260.2,0,232,0H56C25.1,0,0,25.1,0,56v384c0,30.9,25.1,56,56,56h440V48H287.4z M480,160h-32v16h32v32
	H288v-32h144v-16H288V64h192V160z M272,192H16v-32h256V192z M288,224h192v32H288V224z M56,16h176c22.1,0,40,17.9,40,40v40H88v16h184
	v32H16v-32h56V96H16V56C16,33.9,33.9,16,56,16z M16,208h256v184.2c-6.7-5.1-15-8.2-24-8.2H56c-15.7,0-29.8,6.5-40,16.9V208z M56,480
	c-22.1,0-40-17.9-40-40s17.9-40,40-40h192c13.2,0,24,10.8,24,24s-10.8,24-24,24H56c-4.4,0-8-3.6-8-8s3.6-8,8-8h168v-16H56
	c-13.2,0-24,10.8-24,24s10.8,24,24,24h192c22.1,0,40-17.9,40-40V272h192v208H56z"/>
<path d="M240,416h16v16h-16V416z"/>
</svg>
