<svg
 xmlns="http://www.w3.org/2000/svg"
 xmlns:xlink="http://www.w3.org/1999/xlink"
 width="650px" height="1406px">
<path fill="rgb(0, 0, 0)" fill="url(#pattern2)" fill-rule="evenodd"
 d="M133.000,1.000 C133.000,1.000 144.702,-0.189 145.000,10.000 C145.000,10.000 138.656,43.404 180.000,53.000 L330.000,53.000 L467.000,53.000 C467.000,53.000 505.608,52.254 506.000,10.000 C506.000,10.000 505.691,0.743 516.000,1.000 L575.000,1.000 C575.000,1.000 647.012,-2.251 649.000,70.000 L649.000,1325.000 C649.000,1325.000 659.126,1403.811 576.000,1405.000 L80.000,1405.000 C80.000,1405.000 -2.027,1413.015 1.000,1325.000 L1.000,67.000 C1.000,67.000 3.657,2.124 69.000,1.000 L133.000,1.000 Z"/>
</svg>
