<?xml version="1.0" encoding="utf-8"?><svg xmlns="http://www.w3.org/2000/svg" xmlns:xlink="http://www.w3.org/1999/xlink"><symbol viewBox="0 0 289 492" id="arrow" xmlns="http://www.w3.org/2000/svg"><path d="M281.2 226.8L62.3 7.9C57.2 2.8 50.4 0 43.2 0s-14 2.8-19 7.9L8.1 24c-10.5 10.5-10.5 27.6 0 38L192 245.9 7.9 430C2.8 435 0 441.8 0 449c0 7.2 2.8 14 7.9 19L24 484.1c5.1 5.1 11.8 7.9 19 7.9s14-2.8 19-7.9L281.2 265c5.1-5.1 7.9-11.9 7.8-19.1.1-7.2-2.7-14-7.8-19.1z"/></symbol><symbol viewBox="0 0 480 480" id="icon-download" xmlns="http://www.w3.org/2000/svg"><path d="M378.528 214.688l-21.088-24c-5.824-6.624-15.904-7.264-22.56-1.472L272 244.32V16c0-8.832-7.168-16-16-16h-32c-8.832 0-16 7.168-16 16v228.32l-62.88-55.104c-6.624-5.792-16.704-5.152-22.56 1.472l-21.088 23.968c-5.856 6.656-5.184 16.8 1.472 22.624l126.528 110.752a16.017 16.017 0 0021.088 0L377.056 237.28c6.656-5.824 7.328-15.968 1.472-22.592zM416 416H64c-8.832 0-16 7.168-16 16v32c0 8.832 7.168 16 16 16h352c8.832 0 16-7.168 16-16v-32c0-8.832-7.168-16-16-16z"/></symbol></svg>