<?xml version="1.0" encoding="utf-8"?>
<!-- Generator: Adobe Illustrator 22.1.0, SVG Export Plug-In . SVG Version: 6.00 Build 0)  -->
<svg version="1.1" id="Layer_1" xmlns="http://www.w3.org/2000/svg" xmlns:xlink="http://www.w3.org/1999/xlink" x="0px" y="0px"
	 viewBox="0 0 320.8 320.8" style="enable-background:new 0 0 320.8 320.8;" xml:space="preserve">
<g>
	<g>
		<path d="M207.2,113.6c-4.4-4.4-11.6-4.4-16,0l-21.3,21.3c-2.9-1.1-6.1-1.7-9.4-1.7c-3.3,0-6.5,0.6-9.4,1.7l-43.8-43.8
			c-4.4-4.4-11.6-4.4-16,0c-4.4,4.4-4.4,11.6,0,16l43.8,43.8c-1.1,2.9-1.7,6.1-1.7,9.4c0,15,12.2,27.2,27.2,27.2
			c15,0,27.2-12.2,27.2-27.2c0-3.3-0.6-6.5-1.7-9.4l21.3-21.3C211.6,125.3,211.6,118.1,207.2,113.6z M160.4,167.2
			c-3.7,0-6.7-3-6.7-6.7s3-6.7,6.7-6.7c3.7,0,6.7,3,6.7,6.7C167.2,164.1,164.1,167.2,160.4,167.2z"/>
	</g>
</g>
<g>
	<g>
		<path d="M160.4,0C72,0,0,72,0,160.4s72,160.4,160.4,160.4s160.4-72,160.4-160.4S248.9,0,160.4,0z M267.1,251l-7.7-7.7
			c-4.4-4.4-11.6-4.4-16,0c-4.4,4.4-4.4,11.6,0,16l7.7,7.7c-21.7,18.5-49.2,30.5-79.2,32.9V289c0-6.3-5.1-11.3-11.3-11.3
			s-11.3,5.1-11.3,11.3V300c-30.1-2.4-57.5-14.4-79.2-32.9l7.7-7.7c4.4-4.4,4.4-11.6,0-16s-11.6-4.4-16,0l-7.7,7.7
			c-18.5-21.7-30.5-49.2-32.9-79.2h10.9c6.3,0,11.3-5.1,11.3-11.3s-5.1-11.3-11.3-11.3H20.9c2.4-30.1,14.4-57.5,32.9-79.2l7.7,7.7
			c2.2,2.2,5.1,3.3,8,3.3s5.8-1.1,8-3.3c4.4-4.4,4.4-11.6,0-16l-7.7-7.7c21.7-18.5,49.2-30.5,79.2-32.9v10.9
			c0,6.3,5.1,11.3,11.3,11.3c6.3,0,11.3-5.1,11.3-11.3V20.9c30.1,2.4,57.5,14.4,79.2,32.9l-7.7,7.7c-4.4,4.4-4.4,11.6,0,16
			c2.2,2.2,5.1,3.3,8,3.3s5.8-1.1,8-3.3l7.7-7.7c18.5,21.7,30.5,49.2,32.9,79.2H289c-6.3,0-11.3,5.1-11.3,11.3s5.1,11.3,11.3,11.3
			H300C297.5,201.9,285.5,229.3,267.1,251z"/>
	</g>
</g>
</svg>
