<?xml version="1.0" encoding="utf-8"?>
<!-- Generator: Adobe Illustrator 22.1.0, SVG Export Plug-In . SVG Version: 6.00 Build 0)  -->
<svg version="1.1" id="Capa_1" xmlns="http://www.w3.org/2000/svg" xmlns:xlink="http://www.w3.org/1999/xlink" x="0px" y="0px"
	 viewBox="0 0 512 512" style="enable-background:new 0 0 512 512;" xml:space="preserve">
<g>
	<g>
		<path d="M225.473999-0.0000067C101.151001-0.0000067,0,101.1509933,0,225.473999
			c0,124.3300171,101.151001,225.473999,225.473999,225.473999c124.3300171,0,225.473999-101.1439819,225.473999-225.473999
			C450.947998,101.1509933,349.8039856-0.0000067,225.473999-0.0000067z M225.473999,409.322998
			c-101.3730011,0-183.8480072-82.4750061-183.8480072-183.8480072s82.4750061-183.848999,183.8480072-183.848999
			s183.8480225,82.4749985,183.8480225,183.8480072S326.8469849,409.322998,225.473999,409.322998z"/>
	</g>
</g>
<g>
	<g>
		<path d="M505.9020081,476.4719849L386.5740051,357.1440125c-8.131012-8.131012-21.2990112-8.131012-29.4299927,0
			c-8.131012,8.1239929-8.131012,21.3059998,0,29.4299927l119.3280029,119.3280029
			C480.5370178,509.9670105,485.8590088,512,491.1870117,512c5.3210144,0,10.6489868-2.0329895,14.7149963-6.0979919
			C514.03302,497.7780151,514.03302,484.5960083,505.9020081,476.4719849z"/>
	</g>
</g>
</svg>
