<?xml version="1.0" encoding="utf-8"?>
<!-- Generator: Adobe Illustrator 22.1.0, SVG Export Plug-In . SVG Version: 6.00 Build 0)  -->
<svg version="1.1" id="Capa_1" xmlns="http://www.w3.org/2000/svg" xmlns:xlink="http://www.w3.org/1999/xlink" x="0px" y="0px"
	 viewBox="0 0 513.6400146 513.6400146" style="enable-background:new 0 0 513.6400146 513.6400146;" xml:space="preserve">
<g>
	<g>
		<path d="M499.6600037,376.9599915l-71.6799927-71.6799927c-25.6000061-25.6000061-69.1199951-15.3590088-79.3600159,17.9200134
			c-7.6799927,23.0410156-33.2799988,35.8410034-56.3200073,30.7200012
			c-51.1999969-12.7999878-120.3200073-79.3600159-133.1199951-133.1199951
			c-7.6799927-23.0410004,7.6799927-48.6409912,30.7200012-56.3200073
			c33.2799988-10.2400055,43.5200043-53.7600021,17.9199982-79.3600082l-71.6800079-71.6800003
			c-20.4799957-17.9200001-51.1999969-17.9200001-69.1200027,0L18.379982,62.0800018
			c-48.6399994,51.2000046,5.1199989,186.8800201,125.4399948,307.2000122s256,176.6409912,307.2000122,125.4400024
			l48.6399841-48.6400146C517.5809937,425.6000061,517.5809937,394.8800049,499.6600037,376.9599915z"/>
	</g>
</g>
</svg>
