<?xml version="1.0" encoding="utf-8"?>
<!-- Generator: Adobe Illustrator 22.1.0, SVG Export Plug-In . SVG Version: 6.00 Build 0)  -->
<svg version="1.1" id="Layer_1" xmlns="http://www.w3.org/2000/svg" xmlns:xlink="http://www.w3.org/1999/xlink" x="0px" y="0px"
	 viewBox="0 0 135.6619263 112.1727448" style="enable-background:new 0 0 135.6619263 112.1727448;" xml:space="preserve">
<path class="st0" d="M8.3171101,48.8515663l80.8092422-33.2947998c7.9768753-3.4682083,35.0288925-14.5664701,35.0288925-14.5664701
	s12.4855499-4.8554897,11.4450836,6.9364161c-0.346817,4.8554902-3.1213837,21.8497086-5.8959503,40.2312088l-8.6705246,54.4508743
	c0,0-0.6936417,7.9768753-6.5895996,9.3641586c-5.8959579,1.387291-15.6069336-4.8554916-17.3410416-6.2427673
	c-1.387291-1.0404587-26.0115585-16.6473999-35.0289001-24.2774582c-2.4277496-2.0809174-5.2023125-6.242775,0.3468208-11.0982666
	c12.4855461-11.4450874,27.3988457-25.6647491,36.4161873-34.6820831c4.16185-4.1618519,8.3237-13.8728333-9.0173416-2.080925
	L40.9182434,66.5394363c0,0-5.5491333,3.4682083-15.9537563,0.346817
	c-10.4046249-3.1213951-22.543354-7.2832336-22.543354-7.2832336s-8.323698-5.2023125,5.8959532-10.751442L8.3171101,48.8515663z"/>
</svg>
