<?xml version="1.0" encoding="utf-8"?>
<!-- Generator: Adobe Illustrator 22.1.0, SVG Export Plug-In . SVG Version: 6.00 Build 0)  -->
<svg version="1.1" id="Capa_1" xmlns="http://www.w3.org/2000/svg" xmlns:xlink="http://www.w3.org/1999/xlink" x="0px" y="0px"
	 viewBox="0 0 511.9968567 468.5870056" style="enable-background:new 0 0 511.9968567 468.5870056;" xml:space="preserve">
<g>
	<g>
		<path d="M405.3869934,340.9070129c-35.2019958,0-63.8399963,28.6390076-63.8399963,63.8399963
			s28.6390076,63.8399963,63.8399963,63.8399963s63.8399963-28.6390076,63.8399963-63.8399963
			S440.5880127,340.9070129,405.3869934,340.9070129z M405.3869934,430.28302
			c-14.0830078,0-25.5360107-11.4530029-25.5360107-25.5360107s11.4530029-25.5360107,25.5360107-25.5360107
			s25.5360107,11.4530029,25.5360107,25.5360107S419.4700012,430.28302,405.3869934,430.28302z"/>
	</g>
</g>
<g>
	<g>
		<path d="M507.927002,94.1700058c-3.6260071-4.6409988-9.1870117-7.3479996-15.07901-7.3479996H118.2200012l-17.2369995-72.1200104
			c-2.0619965-8.618-9.7679977-14.7019997-18.6289978-14.7019997H19.1520004C8.5740004-0.0009975,0,8.5730019,0,19.151001
			s8.5740004,19.1520004,19.1520004,19.1520004h48.0849991l62.2440033,260.4429932
			c2.0619965,8.625,9.7680054,14.7019958,18.6289978,14.7019958h298.1350098
			c8.8039856,0,16.4769897-6.0010071,18.5899963-14.5429993l46.6040039-188.32901
			C512.848999,104.8570023,511.553009,98.8110046,507.927002,94.1700058z M431.2609863,275.1450195H163.227005
			l-35.8529968-150.0190125h341.0029907L431.2609863,275.1450195z"/>
	</g>
</g>
<g>
	<g>
		<path d="M173.6459961,340.9070129c-35.2019958,0-63.8399963,28.6390076-63.8399963,63.8399963
			s28.6390076,63.8399963,63.8399963,63.8399963s63.8399963-28.6390076,63.8399963-63.8399963
			S208.8470001,340.9070129,173.6459961,340.9070129z M173.6459961,430.28302
			c-14.0830078,0-25.5359955-11.4530029-25.5359955-25.5360107s11.4530029-25.5360107,25.5359955-25.5360107
			s25.5359955,11.4530029,25.5359955,25.5360107S187.7290039,430.28302,173.6459961,430.28302z"/>
	</g>
</g>
</svg>
