<?xml version="1.0" encoding="utf-8"?>
<!-- Generator: Adobe Illustrator 22.1.0, SVG Export Plug-In . SVG Version: 6.00 Build 0)  -->
<svg version="1.1" id="Layer_1" xmlns="http://www.w3.org/2000/svg" xmlns:xlink="http://www.w3.org/1999/xlink" x="0px" y="0px"
	 viewBox="0 0 512 341.1" style="enable-background:new 0 0 512 341.1;" xml:space="preserve">
<path d="M0,139.5V272c0,38.2,30.9,69.1,69.1,69.1h373.8c38.2,0,69.1-30.9,69.1-69.1V139.5c0-6.6-5.4-12-12-12H12
	C5.4,127.5,0,132.9,0,139.5z M127.8,223.6h-32c-11.6,0-21-9.4-21-21s9.4-21,21-21h32c11.6,0,21,9.4,21,21S139.4,223.6,127.8,223.6z"
	/>
<path d="M512,73.4v-4.3C512,30.9,481.1,0,442.9,0H69.1C30.9,0,0,30.9,0,69.1v4.3c0,6.6,5.4,12,12,12h488
	C506.6,85.4,512,80.1,512,73.4L512,73.4z"/>
</svg>
