<?xml version="1.0" encoding="utf-8"?>
<!-- Generator: Adobe Illustrator 22.1.0, SVG Export Plug-In . SVG Version: 6.00 Build 0)  -->
<svg version="1.1" id="Capa_1" xmlns="http://www.w3.org/2000/svg" xmlns:xlink="http://www.w3.org/1999/xlink" x="0px" y="0px"
	 viewBox="0 0 512 352" style="enable-background:new 0 0 512 352;" xml:space="preserve">
<g>
	<g>
		<polygon points="339.3919983,178.6239929 512,287.743988 512,64.8959961 		"/>
	</g>
</g>
<g>
	<g>
		<polygon points="0,64.8959961 0,287.743988 172.6080017,178.6239929 		"/>
	</g>
</g>
<g>
	<g>
		<path d="M480,0H32C16.0319996,0,3.3599999,11.9039993,0.96,27.2320023L256,195.2640076L511.039978,27.2320099
			C508.6400146,11.9039993,495.9679871,0,480,0z"/>
	</g>
</g>
<g>
	<g>
		<path d="M310.0799866,197.9519958l-45.2799988,29.8240051c-2.6879883,1.7600098-5.7279968,2.6239929-8.8000031,2.6239929
			s-6.1119995-0.8640137-8.8000031-2.6239929l-45.2799988-29.8559875L1.024,324.9920044
			C3.4879999,340.1919861,16.0960007,352,32,352h448c15.9039917,0,28.5119934-11.8080139,30.9760132-27.0079956
			L310.0799866,197.9519958z"/>
	</g>
</g>
</svg>
