<?xml version="1.0" encoding="utf-8"?>
<!-- Generator: Adobe Illustrator 22.1.0, SVG Export Plug-In . SVG Version: 6.00 Build 0)  -->
<svg version="1.1" id="Layer_1" xmlns="http://www.w3.org/2000/svg" xmlns:xlink="http://www.w3.org/1999/xlink" x="0px" y="0px"
	 viewBox="0 0 512 512" style="enable-background:new 0 0 512 512;" xml:space="preserve">
<path d="M216,512H80c-44.1,0-80-35.9-80-80V80C0,35.9,35.9,0,80,0h136c44.1,0,80,35.9,80,80v56c0,11-9,20-20,20s-20-9-20-20V80
	c0-22.1-17.9-40-40-40H80c-22.1,0-40,17.9-40,40v352c0,22.1,17.9,40,40,40h136c22.1,0,40-17.9,40-40v-55c0-11,9-20,20-20s20,9,20,20
	v55C296,476.1,260.1,512,216,512z M402.7,389.6l91.6-91.1c11.4-11.3,17.7-26.4,17.7-42.5c0-16.1-6.3-31.2-17.7-42.5l-91.6-91.1
	c-11.2-11.2-28-14.5-42.6-8.4c-14.6,6.1-24,20.2-24,36v86H100c-11,0-20,9-20,20s9,20,20,20h236c22.1,0,40-17.9,40-40v-83.7
	l90.1,89.6c3.8,3.8,5.9,8.8,5.9,14.1c0,5.3-2.1,10.4-5.9,14.1L376,359.7V340c0-11-9-20-20-20s-20,9-20,20v22c0,15.8,9.4,29.9,24,36
	c4.9,2,10,3,15.1,3C385.3,401,395.2,397,402.7,389.6z"/>
</svg>
