<?xml version="1.0" encoding="utf-8"?>
<!-- Generator: Adobe Illustrator 22.1.0, SVG Export Plug-In . SVG Version: 6.00 Build 0)  -->
<svg version="1.1" id="Layer_1" xmlns="http://www.w3.org/2000/svg" xmlns:xlink="http://www.w3.org/1999/xlink" x="0px" y="0px"
	 viewBox="0 0 512 512" style="enable-background:new 0 0 512 512;" xml:space="preserve">
<path d="M256-0.0000067c-141.1640625,0-256,114.8359375-256,256s114.8359375,256,256,256s256-114.8359375,256-256
	S397.1640625-0.0000067,256-0.0000067z M377.75,388.4140625c-4.1601563,4.1601563-9.6210938,6.2539063-15.0820313,6.2539063
	s-10.9257813-2.09375-15.0820313-6.2539063L240.9179688,281.75c-4.0117188-3.9882813-6.25-9.4101563-6.25-15.0820313V127.9999924
	c0-11.796875,9.5546875-21.3320313,21.3320313-21.3320313s21.3320313,9.5351563,21.3320313,21.3320313v129.8359375L377.75,358.25
	C386.0898438,366.59375,386.0898438,380.0742188,377.75,388.4140625z"/>
</svg>
