<?xml version="1.0" encoding="utf-8"?>
<!-- Generator: Adobe Illustrator 22.1.0, SVG Export Plug-In . SVG Version: 6.00 Build 0)  -->
<svg version="1.1" id="Layer_1" xmlns="http://www.w3.org/2000/svg" xmlns:xlink="http://www.w3.org/1999/xlink" x="0px" y="0px"
	 viewBox="0 0 115.5 90.8" style="enable-background:new 0 0 115.5 90.8;" xml:space="preserve">
<style type="text/css">
	.st0{opacity:0.1;}
	.st1{fill:#5F1C6F;}
	.st2{fill:#31B1BF;}
	.st3{fill:#D95284;}
	.st4{fill:#8E29A6;}
	.st5{fill:#197E8F;}
	.st6{fill:#04338F;}
	.st7{fill:#0476D9;}
	.st8{fill:#051A5F;}
	.st9{fill:#AD4087;}
	.st10{fill:#8C2D6B;}
	.st11{fill:#2263D6;}
	.st12{enable-background:new    ;}
	.st13{fill:#0BE1F7;}
	.st14{opacity:0.6;fill:#40EBF4;}
	.st15{opacity:0.5;fill:#39E0EA;}
	.st16{opacity:0.4;fill:#33D4DF;}
	.st17{opacity:0.3;fill:#2CC9D5;}
	.st18{opacity:0.2;fill:#25BDCA;}
	.st19{opacity:0.1;fill:#1FB2C0;}
	.st20{opacity:0;fill:#18A6B5;}
	.st21{opacity:0.5;fill:#18A6B5;}
	.st22{fill:#5BB0FF;}
	.st23{fill:#3D93FF;}
	.st24{fill:#0E007A;}
	.st25{fill:#160F96;}
	.st26{fill:#FFAA83;}
	.st27{fill:#E84CBE;}
	.st28{fill:url(#SVGID_1_);}
	.st29{fill:#F79F7C;}
	.st30{fill:#994E17;}
	.st31{fill:#F98CDA;}
	.st32{opacity:0.7;}
	.st33{fill:#55FBFF;}
	.st34{opacity:0.8333;}
	.st35{opacity:0.8333;fill:#71FCFF;}
	.st36{opacity:0.6667;}
	.st37{opacity:0.6667;fill:#8EFCFF;}
	.st38{opacity:0.5;}
	.st39{opacity:0.5;fill:#AAFDFF;}
	.st40{opacity:0.3333;}
	.st41{opacity:0.3333;fill:#C6FEFF;}
	.st42{opacity:0.1667;}
	.st43{opacity:0.1667;fill:#E3FEFF;}
	.st44{opacity:0;}
	.st45{opacity:0;fill:#FFFFFF;}
</style>
<path class="st0" d="M80.4,58.2c-2-3.1-5.2-6-9.5-8.5c-10-5.8-23.7-8-36.6-6.7c-8.1,0.8-15.9,3-22.2,6.7c-7.2,4.2-11.2,9.6-12,15.1
	c-0.9,6.8,3.1,13.8,12.1,19c13.7,7.9,34.4,9.2,50.2,3.8c3.1-1,6-2.3,8.6-3.8C83,76.8,86.1,66.8,80.4,58.2z"/>
<g>
	<polygon class="st1" points="38.6,54.5 38.6,63 32.1,42 32.1,33.4 	"/>
</g>
<g>
	<path class="st2" d="M32.1,33.4l6.5,21.1L1.8,52.8c0.6-4.9,4.2-9.7,10.6-13.4C18,36.1,24.9,34.2,32.1,33.4z"/>
</g>
<g>
	<path class="st3" d="M64.6,39.4c3.8,2.2,6.7,4.8,8.5,7.6l-34.5,7.6l-6.5-21.1C43.6,32.3,55.8,34.3,64.6,39.4z"/>
</g>
<g>
	<polygon class="st4" points="73.1,46.9 73.1,55.5 38.6,63 38.6,54.5 	"/>
</g>
<g>
	<polygon class="st5" points="38.6,54.5 38.6,63 1.8,61.3 1.8,52.8 	"/>
</g>
<path class="st6" d="M75.5,55.3c0,0.2,0,0.4,0,0.6c0,0.2,0,0.3-0.1,0.5c0,0.2-0.1,0.4-0.1,0.6c0,0.2-0.1,0.3-0.1,0.5
	c0,0.2-0.1,0.4-0.1,0.5c0,0.2-0.1,0.3-0.1,0.5c-0.1,0.2-0.1,0.4-0.2,0.5c-0.1,0.2-0.1,0.3-0.2,0.5c-0.1,0.2-0.2,0.4-0.2,0.6
	c-0.1,0.2-0.1,0.3-0.2,0.5c-0.1,0.2-0.2,0.4-0.3,0.5c-0.1,0.2-0.2,0.3-0.3,0.5c-0.1,0.2-0.3,0.4-0.4,0.6c-0.1,0.1-0.2,0.3-0.3,0.4
	c-0.2,0.2-0.3,0.5-0.5,0.7c-0.1,0.1-0.2,0.2-0.2,0.3c-0.3,0.4-0.6,0.8-1,1.1c-0.1,0.1-0.2,0.2-0.3,0.3c-0.3,0.3-0.5,0.6-0.8,0.8
	c-0.1,0.1-0.3,0.3-0.4,0.4c-0.2,0.1-0.3,0.3-0.5,0.4c-0.2,0.1-0.3,0.3-0.5,0.4c-0.2,0.1-0.4,0.3-0.6,0.4c-0.2,0.1-0.4,0.3-0.6,0.4
	c-0.2,0.1-0.4,0.3-0.6,0.4c-0.2,0.1-0.4,0.3-0.6,0.4c-0.2,0.1-0.4,0.3-0.7,0.4c-0.3,0.2-0.6,0.4-0.9,0.5c-2.3,1.3-4.9,2.5-7.6,3.4
	l0,8.5c2.7-0.9,5.3-2,7.6-3.4c0.2-0.1,0.3-0.2,0.5-0.3c0.1-0.1,0.3-0.2,0.4-0.2c0.2-0.1,0.5-0.3,0.7-0.4c0.2-0.1,0.4-0.3,0.6-0.4
	c0.2-0.1,0.4-0.3,0.6-0.4c0.2-0.1,0.4-0.3,0.5-0.4c0.2-0.2,0.4-0.3,0.6-0.5c0.2-0.1,0.3-0.3,0.5-0.4c0.2-0.2,0.4-0.3,0.5-0.5
	c0.1-0.1,0.1-0.1,0.2-0.2c0.1-0.1,0.1-0.1,0.2-0.2c0.3-0.3,0.6-0.6,0.8-0.8c0.1-0.1,0.2-0.2,0.3-0.3c0.3-0.4,0.7-0.7,1-1.1
	c0,0,0,0,0-0.1c0.1-0.1,0.1-0.2,0.2-0.3c0.2-0.2,0.3-0.5,0.5-0.7c0.1-0.1,0.2-0.3,0.3-0.4c0.1-0.2,0.3-0.4,0.4-0.6
	c0-0.1,0.1-0.1,0.1-0.2c0-0.1,0.1-0.2,0.1-0.3c0.1-0.2,0.2-0.4,0.3-0.5c0.1-0.2,0.1-0.3,0.2-0.5c0.1-0.2,0.2-0.4,0.2-0.6
	c0-0.1,0.1-0.2,0.1-0.2c0-0.1,0.1-0.2,0.1-0.2c0.1-0.2,0.1-0.4,0.2-0.5c0.1-0.2,0.1-0.3,0.1-0.5c0-0.2,0.1-0.4,0.1-0.5
	c0-0.1,0.1-0.2,0.1-0.3c0-0.1,0-0.1,0-0.2c0-0.2,0.1-0.4,0.1-0.5c0-0.2,0-0.3,0.1-0.5c0-0.2,0-0.4,0-0.6c0-0.1,0-0.2,0-0.3l0-0.2
	l0,0l0,0.2c0-0.1,0-0.2,0-0.3c0-2.8,0-5.7,0-8.5C75.5,54.8,75.5,55.1,75.5,55.3z"/>
<g>
	<path class="st7" d="M73.1,46.9c5,7.6,2.3,16.6-8.3,22.7c-2.3,1.3-4.9,2.5-7.6,3.4L38.6,54.5L73.1,46.9z"/>
</g>
<g>
	<polygon class="st8" points="57.2,73 57.2,81.5 38.6,63 38.6,54.5 	"/>
</g>
<g>
	<path class="st9" d="M38.6,54.5L57.2,73c-14.1,4.7-32.5,3.6-44.6-3.4C4.6,65,1,58.8,1.8,52.8L38.6,54.5z"/>
</g>
<path class="st10" d="M54.7,73.8c-0.1,0-0.3,0.1-0.4,0.1c-0.8,0.2-1.5,0.4-2.3,0.6c-0.1,0-0.2,0-0.3,0.1c-0.8,0.2-1.6,0.3-2.4,0.5
	c-0.3,0.1-0.6,0.1-0.9,0.1c-0.6,0.1-1.2,0.2-1.8,0.3c-0.3,0-0.6,0.1-0.9,0.1c-0.8,0.1-1.6,0.2-2.4,0.2c-0.1,0-0.1,0-0.2,0
	c-0.9,0.1-1.8,0.1-2.7,0.1c-0.2,0-0.4,0-0.6,0c-0.9,0-1.8,0-2.6,0c0,0,0,0,0,0c-0.9,0-1.8-0.1-2.6-0.1c-0.2,0-0.4,0-0.5,0
	c-0.9-0.1-1.7-0.1-2.6-0.2c-0.1,0-0.3,0-0.4-0.1c-0.8-0.1-1.6-0.2-2.4-0.3c-0.1,0-0.2,0-0.3-0.1c-0.8-0.1-1.7-0.3-2.5-0.5
	c-0.2,0-0.4-0.1-0.6-0.1c-0.7-0.2-1.4-0.3-2.1-0.5c-0.2,0-0.3-0.1-0.5-0.1c-0.9-0.2-1.7-0.5-2.5-0.8c-0.2-0.1-0.3-0.1-0.4-0.2
	c-0.7-0.2-1.4-0.5-2-0.8c-0.1-0.1-0.2-0.1-0.4-0.2c-0.7-0.3-1.5-0.6-2.2-1c-0.1,0-0.2-0.1-0.2-0.1c-0.7-0.4-1.5-0.8-2.2-1.2
	C5.3,65.4,1.7,59.9,1.7,54.4l0,8.5c0,5.5,3.6,11,10.9,15.2c0.7,0.4,1.4,0.8,2.2,1.2c0.1,0,0.2,0.1,0.2,0.1c0.7,0.3,1.4,0.7,2.2,1
	c0.1,0.1,0.2,0.1,0.4,0.2c0.1,0,0.2,0.1,0.4,0.1c0.6,0.2,1.1,0.4,1.7,0.6c0.1,0.1,0.3,0.1,0.4,0.2c0.8,0.3,1.5,0.5,2.3,0.7
	c0.1,0,0.1,0,0.2,0c0.2,0,0.3,0.1,0.5,0.1c0.7,0.2,1.4,0.4,2.1,0.5c0.2,0.1,0.4,0.1,0.6,0.1c0.2,0,0.3,0.1,0.5,0.1
	c0.7,0.1,1.3,0.3,2,0.4c0.1,0,0.2,0,0.3,0.1c0.4,0.1,0.9,0.1,1.4,0.2c0.3,0,0.7,0.1,1,0.1c0.1,0,0.3,0,0.4,0.1
	c0.7,0.1,1.4,0.2,2.1,0.2c0.1,0,0.3,0,0.4,0c0.2,0,0.4,0,0.5,0c0.9,0.1,1.8,0.1,2.6,0.1c0,0,0,0,0,0l0,0c0.9,0,1.8,0,2.6,0
	c0.2,0,0.4,0,0.6,0c0.2,0,0.4,0,0.5,0c0.7,0,1.4-0.1,2.1-0.1c0.1,0,0.1,0,0.2,0c0.6,0,1.2-0.1,1.8-0.1c0.2,0,0.4,0,0.6-0.1
	c0.3,0,0.6-0.1,1-0.1c0.6-0.1,1.2-0.2,1.8-0.3c0.3,0,0.6-0.1,0.9-0.1c0.2,0,0.3-0.1,0.5-0.1c0.6-0.1,1.3-0.2,1.9-0.4
	c0.1,0,0.2,0,0.3-0.1c0.8-0.2,1.5-0.4,2.3-0.6c0.1,0,0.3-0.1,0.4-0.1c0.7-0.2,1.3-0.4,2-0.6c0.2-0.1,0.4-0.1,0.6-0.2l0-8.5
	C56.4,73.3,55.5,73.6,54.7,73.8z"/>
<g>
	<g>
		<path class="st11" d="M16.1,39.7c1.2-0.7,1.7,0,1.7,0.9c0,1.2-0.7,2.5-1.9,4.4l-0.4,0.7v0l2.4-1.4l0,0.7l-3.5,2l0-0.5l0.6-1
			c1.4-2.3,2-3.5,2-4.4c0-0.6-0.3-1.1-1.1-0.6c-0.5,0.3-0.9,0.8-1.2,1.2l-0.2-0.5C14.9,40.7,15.4,40.1,16.1,39.7z"/>
	</g>
	<g>
		<path class="st11" d="M20.5,37.2c1.2-0.7,1.8,0.1,1.8,2.1c0,2.1-0.7,3.7-1.9,4.4c-1.1,0.6-1.8-0.1-1.8-2.2
			C18.6,39.4,19.4,37.8,20.5,37.2z M20.5,43c0.8-0.4,1.1-1.7,1.1-3.3c0-1.5-0.4-2.4-1.1-1.9c-0.6,0.4-1.1,1.5-1.1,3.3
			C19.4,42.7,19.8,43.4,20.5,43L20.5,43z"/>
	</g>
	<g class="st12">
		<g>
			<path class="st11" d="M27.7,35.6c0.8-0.4,1.3-0.1,1.3,1.1c0,1.3-0.6,2.3-1.3,2.7c-0.7,0.4-1.3,0.1-1.3-1.1
				C26.4,37,27,36,27.7,35.6z M27.7,38.9c0.5-0.3,0.7-1,0.7-1.8c0-0.8-0.2-1.3-0.7-1c-0.5,0.3-0.7,1-0.7,1.8
				C27,38.7,27.3,39.2,27.7,38.9L27.7,38.9z"/>
		</g>
		<g>
			<polygon class="st11" points="27.3,33.2 27.8,33 24.6,41.3 24.1,41.6 			"/>
		</g>
	</g>
	<g>
		<path class="st11" d="M25.5,36.2c0,1.3-0.6,2.3-1.3,2.7c-0.7,0.4-1.3,0.1-1.3-1.1c0-1.2,0.6-2.3,1.3-2.7
			C25,34.6,25.5,35,25.5,36.2z M23.5,37.4c0,0.8,0.2,1.3,0.7,1c0.5-0.3,0.7-1,0.7-1.8c0-0.8-0.2-1.3-0.7-1
			C23.7,35.8,23.5,36.6,23.5,37.4L23.5,37.4z"/>
	</g>
</g>
<g>
	<g>
		<path class="st13" d="M67.7,54.4c1.1-0.7,1.6,0,1.6,0.8c0,1.1-0.7,2.4-1.8,4.3l-0.4,0.7v0l2.4-1.4l0,0.7l-3.3,1.9l0-0.5l0.6-0.9
			c1.3-2.2,1.9-3.4,1.9-4.3c0-0.6-0.3-1-1-0.6c-0.5,0.3-0.9,0.8-1.1,1.1l-0.2-0.4C66.6,55.3,67.1,54.8,67.7,54.4z"/>
	</g>
	<g>
		<path class="st13" d="M73.3,51.3l0,0.7l-2,1.2l-0.2,1.7c0.1-0.1,0.2-0.2,0.4-0.3c0.4-0.2,0.8-0.4,1.1-0.3c0.4,0,0.8,0.4,0.8,1.1
			c0,1.2-0.8,2.5-1.9,3.2c-0.6,0.3-1.1,0.4-1.3,0.4l0.2-0.7c0.2,0,0.6,0,1.1-0.3c0.7-0.4,1.2-1.2,1.2-2c0-0.8-0.5-1.1-1.5-0.5
			c-0.3,0.2-0.5,0.3-0.7,0.5l0.3-3.1L73.3,51.3z"/>
	</g>
	<g>
		<polygon class="st13" points="78.5,48.2 78.9,47.9 75.9,55.9 75.4,56.2 		"/>
	</g>
	<g>
		<path class="st13" d="M78.9,50.4c0.7-0.4,1.2-0.1,1.2,1.1c0,1.3-0.6,2.2-1.2,2.6c-0.7,0.4-1.2,0.1-1.2-1.1
			C77.6,51.8,78.2,50.8,78.9,50.4z M78.9,53.6c0.5-0.3,0.7-1,0.7-1.8c0-0.7-0.2-1.2-0.7-1c-0.4,0.3-0.7,1-0.7,1.8
			C78.2,53.5,78.4,53.9,78.9,53.6L78.9,53.6z"/>
	</g>
	<g>
		<path class="st13" d="M76.7,51c0,1.3-0.6,2.2-1.3,2.6c-0.7,0.4-1.2,0.1-1.2-1.1c0-1.2,0.6-2.2,1.3-2.6
			C76.2,49.5,76.7,49.9,76.7,51z M74.8,52.2c0,0.8,0.2,1.2,0.7,1c0.5-0.3,0.7-1,0.7-1.8c0-0.7-0.2-1.2-0.7-0.9
			C75,50.7,74.8,51.4,74.8,52.2L74.8,52.2z"/>
	</g>
</g>
<g>
	<g>
		<g>
			<path class="st13" d="M9.9,68.1l0.7-0.4l0,0.6l-0.7,0.4l0,1.5l-0.6,0.4l0-1.5L7,70.4l0-0.5L9.2,65l0.7-0.4L9.9,68.1z M9.3,66.6
				c0-0.3,0-0.6,0-0.9l0,0c-0.2,0.4-0.3,0.7-0.4,1.1l-1.2,2.6v0l1.6-0.9L9.3,66.6L9.3,66.6z"/>
		</g>
		<g>
			<path class="st13" d="M12.8,62.9c1-0.6,1.6,0.1,1.6,1.9c0,1.9-0.6,3.3-1.7,4c-1,0.6-1.6-0.1-1.6-2C11.1,64.9,11.8,63.4,12.8,62.9
				z M12.7,68.2c0.7-0.4,1-1.5,1-2.9c0-1.4-0.3-2.1-1-1.7c-0.6,0.3-1,1.4-1,2.9C11.7,67.9,12.1,68.5,12.7,68.2L12.7,68.2z"/>
		</g>
	</g>
	<g>
		<polygon class="st13" points="20,58.4 20.5,58.1 17.1,67 16.6,67.3 		"/>
	</g>
	<g>
		<path class="st13" d="M20.5,60.8c0.8-0.5,1.3,0,1.3,1.2c0,1.4-0.6,2.5-1.4,2.9c-0.7,0.4-1.4,0.1-1.4-1.2
			C19.1,62.4,19.7,61.3,20.5,60.8z M20.5,64.4c0.5-0.3,0.7-1.1,0.7-2c0-0.8-0.2-1.4-0.8-1.1c-0.5,0.3-0.8,1.1-0.8,2
			C19.7,64.2,20,64.7,20.5,64.4L20.5,64.4z"/>
	</g>
	<g>
		<path class="st13" d="M18,61.5c0,1.4-0.6,2.5-1.4,2.9c-0.7,0.4-1.4,0.1-1.4-1.2c0-1.3,0.6-2.5,1.4-2.9C17.5,59.8,18,60.2,18,61.5z
			 M15.9,62.8c0,0.9,0.3,1.4,0.8,1.1c0.5-0.3,0.7-1.1,0.7-2c0-0.8-0.2-1.4-0.8-1.1C16.1,61.1,15.9,61.9,15.9,62.8L15.9,62.8z"/>
	</g>
</g>
<g>
	<g>
		<polygon class="st14" points="8.4,11 7.3,9 8.4,7 10.8,7 11.9,9 10.8,11 		"/>
		<polygon class="st15" points="8.4,14.1 7.3,12.1 8.4,10.1 10.8,10.1 11.9,12.1 10.8,14.1 		"/>
		<polygon class="st16" points="8.4,17.2 7.3,15.2 8.4,13.2 10.8,13.2 11.9,15.2 10.8,17.2 		"/>
		<polygon class="st17" points="8.4,20.3 7.3,18.3 8.4,16.3 10.8,16.3 11.9,18.3 10.8,20.3 		"/>
		<polygon class="st18" points="8.4,23.4 7.3,21.4 8.4,19.4 10.8,19.4 11.9,21.4 10.8,23.4 		"/>
		<polygon class="st19" points="8.4,26.6 7.3,24.6 8.4,22.6 10.8,22.6 11.9,24.6 10.8,26.6 		"/>
		<polygon class="st20" points="8.4,29.7 7.3,27.7 8.4,25.7 10.8,25.7 11.9,27.7 10.8,29.7 		"/>
	</g>
	<polygon class="st21" points="8.4,11 7.3,9 8.4,7 10.8,7 11.9,9 10.8,11 	"/>
</g>
<g>
	<g>
		<polygon class="st14" points="60.8,15.7 60,14.4 60.8,13.1 62.3,13.1 63,14.4 62.3,15.7 		"/>
		<polygon class="st15" points="60.8,17.8 60,16.5 60.8,15.2 62.3,15.2 63,16.5 62.3,17.8 		"/>
		<polygon class="st16" points="60.8,19.8 60,18.5 60.8,17.2 62.3,17.2 63,18.5 62.3,19.8 		"/>
		<polygon class="st17" points="60.8,21.8 60,20.5 60.8,19.2 62.3,19.2 63,20.5 62.3,21.8 		"/>
		<polygon class="st18" points="60.8,23.9 60,22.6 60.8,21.3 62.3,21.3 63,22.6 62.3,23.9 		"/>
		<polygon class="st19" points="60.8,25.9 60,24.6 60.8,23.3 62.3,23.3 63,24.6 62.3,25.9 		"/>
		<polygon class="st20" points="60.8,27.9 60,26.6 60.8,25.3 62.3,25.3 63,26.6 62.3,27.9 		"/>
	</g>
	<polygon class="st21" points="60.8,15.7 60,14.4 60.8,13.1 62.3,13.1 63,14.4 62.3,15.7 	"/>
</g>
<g>
	<g>
		<polygon class="st14" points="42.5,3.2 41.6,1.6 42.5,0 44.3,0 45.2,1.6 44.3,3.2 		"/>
		<polygon class="st15" points="42.5,5.6 41.6,4 42.5,2.5 44.3,2.5 45.2,4 44.3,5.6 		"/>
		<polygon class="st16" points="42.5,8.1 41.6,6.5 42.5,4.9 44.3,4.9 45.2,6.5 44.3,8.1 		"/>
		<polygon class="st17" points="42.5,10.6 41.6,9 42.5,7.4 44.3,7.4 45.2,9 44.3,10.6 		"/>
		<polygon class="st18" points="42.5,13 41.6,11.4 42.5,9.9 44.3,9.9 45.2,11.4 44.3,13 		"/>
		<polygon class="st19" points="42.5,15.5 41.6,13.9 42.5,12.3 44.3,12.3 45.2,13.9 44.3,15.5 		"/>
		<polygon class="st20" points="42.5,18 41.6,16.4 42.5,14.8 44.3,14.8 45.2,16.4 44.3,18 		"/>
	</g>
	<polygon class="st21" points="42.5,3.2 41.6,1.6 42.5,0 44.3,0 45.2,1.6 44.3,3.2 	"/>
</g>
<g>
	<g>
		<polygon class="st14" points="42.5,3.2 41.6,1.6 42.5,0 44.3,0 45.2,1.6 44.3,3.2 		"/>
		<polygon class="st15" points="42.5,5.6 41.6,4 42.5,2.5 44.3,2.5 45.2,4 44.3,5.6 		"/>
		<polygon class="st16" points="42.5,8.1 41.6,6.5 42.5,4.9 44.3,4.9 45.2,6.5 44.3,8.1 		"/>
		<polygon class="st17" points="42.5,10.6 41.6,9 42.5,7.4 44.3,7.4 45.2,9 44.3,10.6 		"/>
		<polygon class="st18" points="42.5,13 41.6,11.4 42.5,9.9 44.3,9.9 45.2,11.4 44.3,13 		"/>
		<polygon class="st19" points="42.5,15.5 41.6,13.9 42.5,12.3 44.3,12.3 45.2,13.9 44.3,15.5 		"/>
		<polygon class="st20" points="42.5,18 41.6,16.4 42.5,14.8 44.3,14.8 45.2,16.4 44.3,18 		"/>
	</g>
	<polygon class="st21" points="42.5,3.2 41.6,1.6 42.5,0 44.3,0 45.2,1.6 44.3,3.2 	"/>
</g>
<g>
	<g class="st0">
		<path d="M107.6,68.8c5.5,3.2,5.5,8.3,0.1,11.5c-5.5,3.2-14.4,3.2-19.9,0c-5.5-3.2-5.5-8.3-0.1-11.5
			C93.2,65.6,102.1,65.6,107.6,68.8z"/>
	</g>
	<path class="st22" d="M102.7,71.7c-0.1,0-4.6-0.1-3.6,1.5c0.7,1.1,1.6,1.3,2.2,1.3c0.7,0,1.9-0.4,2.2-0.2c0.3,0.2,1.8,1.2,2.7,0.2
		c0.2-0.2,0.3-0.8,0.2-1.2C106.3,72.9,103.2,71.6,102.7,71.7z"/>
	<path class="st23" d="M99.1,73.2c0.7,1.1,1.6,1.3,2.2,1.3c0.7,0,1.9-0.4,2.2-0.2c0.3,0.2,1.8,1.2,2.7,0.2c0.1-0.1,0.2-0.3,0.2-0.6
		c-0.6,0.9-2.1,0.6-2.5,0.3c-0.5-0.3-1.2-0.5-1.8-0.4c-0.6,0.1-1.9,0-2.5-0.6c-0.4-0.4-0.4-0.8-0.3-1.1C99,72.4,98.8,72.8,99.1,73.2
		z"/>
	<path class="st24" d="M105,37.7c0,0,3.8,3.4,1,11.5c-0.6,1.8-1.8,5.5-1.4,7.4c0.5,2.2,1.2,1.6,1.7,8.9c0.5,6.5,0.4,5.1,0.5,7.7
		c0,0.8-2.8,1.5-3.2,0.4c-1.9-5.1-4.5-15.7-3.9-21.6c0.5-5.9,0.9-11.4,0.9-11.4S103.1,39.3,105,37.7z"/>
	<path class="st22" d="M93.9,75.7c-0.1,0-4.7-1-4,0.9c0.5,1.2,1.4,1.6,2.1,1.7c0.7,0.1,2,0,2.3,0.2c0.3,0.3,1.7,1.6,2.8,0.7
		c0.2-0.2,0.4-0.8,0.4-1.2C97.5,77.6,94.5,75.7,93.9,75.7z"/>
	<path class="st23" d="M90,76.6c0.5,1.2,1.4,1.6,2.1,1.7c0.7,0.1,2,0,2.3,0.2c0.3,0.3,1.7,1.6,2.8,0.7c0.1-0.1,0.2-0.3,0.3-0.6
		c-0.8,0.8-2.3,0.3-2.7-0.1c-0.4-0.4-1.1-0.7-1.7-0.7c-0.6,0-1.9-0.4-2.5-1.1c-0.3-0.4-0.2-0.9-0.1-1.2C90,75.7,89.7,76,90,76.6z"/>
	<path class="st25" d="M103.6,41.7c0,0,3.2,3.3-2.5,11.6c0,0-2.8,5.9-2.7,7.8c0.1,2.3,1.1,2.5,0.1,9.9c-0.8,6.4-0.5,6.6-1,7.1
		c-0.5,0.6-3.2,0-3.3-1.1c-0.5-6.3-1.5-15.6-0.9-21.4c0.7-6.7,1.2-12.3,1.2-12.3S101.5,43.1,103.6,41.7z"/>
	<path class="st26" d="M88.1,20.6c0,0-2.9-0.1-3.5-1.7c-0.6-1.5-0.4-1.9,0.3-1.5c0.7,0.4,2.6,1.3,2.5,1c-0.1-0.3-0.6-0.9-0.3-1
		C87.4,17.3,89,19,89,19l0.2,1.7L88.1,20.6z"/>
	<g>
		<path class="st27" d="M104.4,22c0,0,2.7-0.2,2.8,2.6c0.1,2.9-5.7,2-5.7,2s-5-0.4-6.5-1c-2.1-0.8-7.4-4.9-7.4-4.9s0.4-1.7,1.5-2.1
			c0,0,5.1,3.3,7,3.6C98.1,22.6,104,21.9,104.4,22z"/>
	</g>
	<linearGradient id="SVGID_1_" gradientUnits="userSpaceOnUse" x1="100.8084" y1="20.1645" x2="100.5621" y2="45.2796">
		<stop  offset="0" style="stop-color:#FA5FC8"/>
		<stop  offset="1" style="stop-color:#B161CB"/>
	</linearGradient>
	<path class="st28" d="M94.4,28.3c0,0-0.7-3.1,4.5-4.9c5.2-1.8,8.3-1.8,8.4,1.1c0.1,2.9-1.3,6.7-1.5,8c-0.1,1-0.6,3.5,0.6,6.5
		c1.2,3,1.8,5.8-6.4,6.3c-1.4,0.1-6.7,0.1-6-3.3C95,37.8,95,31.7,94.4,28.3z"/>
	<g>
		<path class="st26" d="M98.9,19.9c0,0,0.6,2.3-0.6,3.7c-0.6,0.8,1.8,1.6,3.8,0.6c0,0,0.2-4,1.6-5.4L98.9,19.9z"/>
		<path class="st29" d="M99,21.5c0,0,1.4-0.2,2.2-0.6l0.1,0.1l0.4,0.6l0.3-0.4c0,0-0.4,2.4-3.4,1.9C98.6,23.1,98.9,22.5,99,21.5z"/>
		<path class="st26" d="M99.9,12.7c0,0-2-1.9-3.6,1.2c-1.3,2.5-1.6,7.3-0.3,8.1c1.8,1.2,6.8-0.5,8.1-4.2
			C105.1,15.1,105.1,11.1,99.9,12.7z"/>
		<path class="st30" d="M101.8,20.6c0,0-0.7,4.7,1.6,8c1.3,1.9,1.3,3.3,1.2,4.1c-0.2,0.8,3.7-2.6,2-6.5c-1.7-3.9-3.3-5.6-3.3-5.6
			H101.8z"/>
		<path class="st30" d="M95.7,14c-0.1,0.4,0,0.8,0.9,0.8c2.6,0,2.7,1.5,2.9,2.3c0.1,0.8,0.4,3.2,1.5,4c1.4,0.9,1.5-0.1,2.1-0.8
			c0.8-0.9,2.8-3.7,1.2-7.2c0,0-0.9-2-4.1-1.9C98.8,11.2,96.6,11.5,95.7,14z"/>
		<path class="st26" d="M100.7,19.3c-0.6,0.6-1.4,0.7-1.8,0.3c-0.4-0.4-0.2-1.3,0.4-1.9c0.6-0.6,1.4-0.7,1.8-0.3
			C101.4,17.8,101.3,18.7,100.7,19.3z"/>
		<path class="st25" d="M101.1,21.1c0,0,1.8-0.2,2.4-1.1l0.4,1.3l-2.4,0.9L101.1,21.1z"/>
	</g>
	<g>
		<g>
			<polygon class="st13" points="76.9,20.5 76.9,26 76.3,26.3 76.3,21.6 76.3,21.6 75.5,22.6 75.3,22.1 76.4,20.8 			"/>
		</g>
		<g>
			<path class="st13" d="M81.5,17.9l0,0.6l-1.8,1l-0.2,1.5c0.1-0.1,0.2-0.2,0.4-0.3c0.4-0.2,0.7-0.3,1-0.3c0.4,0,0.7,0.3,0.7,1
				c0,1.1-0.7,2.3-1.8,2.9c-0.5,0.3-1,0.4-1.2,0.3l0.2-0.7c0.2,0,0.6,0,1-0.3c0.6-0.3,1.1-1.1,1.1-1.8c0-0.7-0.4-1-1.4-0.4
				c-0.3,0.2-0.5,0.3-0.7,0.4l0.3-2.8L81.5,17.9z"/>
		</g>
		<g>
			<polygon class="st13" points="86.1,15.1 86.5,14.9 83.8,22.1 83.4,22.3 			"/>
		</g>
		<g>
			<path class="st13" d="M86.5,17.1c0.7-0.4,1.1,0,1.1,1c0,1.2-0.5,2-1.1,2.4c-0.6,0.3-1.1,0.1-1.1-1C85.4,18.4,85.9,17.5,86.5,17.1
				z M86.5,20.1c0.4-0.2,0.6-0.9,0.6-1.6c0-0.7-0.2-1.1-0.6-0.9c-0.4,0.2-0.6,0.9-0.6,1.6C85.9,19.9,86.1,20.3,86.5,20.1L86.5,20.1z
				"/>
		</g>
		<g>
			<path class="st13" d="M84.5,17.7c0,1.2-0.5,2-1.1,2.4c-0.6,0.3-1.1,0.1-1.1-1c0-1.1,0.5-2,1.1-2.4C84.1,16.3,84.5,16.6,84.5,17.7
				z M82.8,18.7c0,0.7,0.2,1.1,0.6,0.9c0.4-0.2,0.6-0.9,0.6-1.6c0-0.7-0.2-1.1-0.6-0.9C83,17.4,82.8,18,82.8,18.7L82.8,18.7z"/>
		</g>
	</g>
	<path class="st26" d="M78.4,27.4c0,0-2.6-1.2-2.6-2.8c0-1.6,0.3-1.9,0.8-1.3c0.5,0.6,2,2.2,2,1.8c0-0.4-0.2-1.1,0.1-1.1
		c0.3,0,1.1,2.2,1.1,2.2l-0.4,1.7L78.4,27.4z"/>
	<g>
		<path class="st31" d="M95.1,25.4c0,0,2.6-0.8,3.1,1.9c0.6,2.9-5.1,3.2-5.1,3.2s-4.9,0.7-6.5,0.5c-2.1-0.3-8-3.2-8-3.2
			s0.1-1.8,1.1-2.5c0,0,5.4,2.1,7.3,2.1C89.1,27.4,94.6,25.5,95.1,25.4z"/>
	</g>
</g>
<g class="st32">
	<path class="st33" d="M110.1,66.2c7.2,4.2,7.3,11,0.1,15.1c-7.2,4.2-18.9,4.2-26.1,0c-7.2-4.2-7.3-11-0.1-15.1
		C91.1,62.1,102.8,62.1,110.1,66.2z"/>
	<g class="st34">
		<path class="st35" d="M110.1,58.9c7.2,4.2,7.3,11,0.1,15.1c-7.2,4.2-18.9,4.2-26.1,0c-7.2-4.2-7.3-11-0.1-15.1
			C91.1,54.7,102.8,54.7,110.1,58.9z"/>
	</g>
	<g class="st36">
		<path class="st37" d="M110.1,51.5c7.2,4.2,7.3,11,0.1,15.1c-7.2,4.2-18.9,4.2-26.1,0c-7.2-4.2-7.3-11-0.1-15.1
			C91.1,47.3,102.8,47.3,110.1,51.5z"/>
	</g>
	<g class="st38">
		<path class="st39" d="M110.1,44.1c7.2,4.2,7.3,11,0.1,15.1c-7.2,4.2-18.9,4.2-26.1,0c-7.2-4.2-7.3-11-0.1-15.1
			C91.1,40,102.8,40,110.1,44.1z"/>
	</g>
	<g class="st40">
		<path class="st41" d="M110.1,36.8c7.2,4.2,7.3,11,0.1,15.1c-7.2,4.2-18.9,4.2-26.1,0c-7.2-4.2-7.3-11-0.1-15.1
			C91.1,32.6,102.8,32.6,110.1,36.8z"/>
	</g>
	<g class="st42">
		<path class="st43" d="M110.1,29.4c7.2,4.2,7.3,11,0.1,15.1c-7.2,4.2-18.9,4.2-26.1,0c-7.2-4.2-7.3-11-0.1-15.1
			C91.1,25.2,102.8,25.2,110.1,29.4z"/>
	</g>
	<g class="st44">
		<path class="st45" d="M110.1,22c7.2,4.2,7.3,11,0.1,15.1c-7.2,4.2-18.9,4.2-26.1,0c-7.2-4.2-7.3-11-0.1-15.1
			C91.1,17.8,102.8,17.8,110.1,22z"/>
	</g>
</g>
</svg>
