<?xml version="1.0" encoding="utf-8"?>
<!-- Generator: Adobe Illustrator 22.1.0, SVG Export Plug-In . SVG Version: 6.00 Build 0)  -->
<svg version="1.1" id="Layer_1" xmlns="http://www.w3.org/2000/svg" xmlns:xlink="http://www.w3.org/1999/xlink" x="0px" y="0px"
	 viewBox="0 0 90.6 109.2" style="enable-background:new 0 0 90.6 109.2;" xml:space="preserve">
<style type="text/css">
	.st0{opacity:0.6;fill:#40EBF4;}
	.st1{opacity:0.5;fill:#39E0EA;}
	.st2{opacity:0.4;fill:#33D4DF;}
	.st3{opacity:0.3;fill:#2CC9D5;}
	.st4{opacity:0.2;fill:#25BDCA;}
	.st5{opacity:0.1;fill:#1FB2C0;}
	.st6{opacity:0;fill:#18A6B5;}
	.st7{opacity:0.5;fill:#18A6B5;}
	.st8{opacity:0.1;}
	.st9{fill:#D95284;}
	.st10{fill:#8C2D6B;}
	.st11{opacity:0.2;fill:#0BE1F7;}
	.st12{opacity:0.5;fill:#0BE1F7;}
	.st13{opacity:0.3;fill:#0BE1F7;}
	.st14{opacity:0.7;}
	.st15{fill:#0BE1F7;}
	.st16{fill:#FFAA83;}
	.st17{fill:#2880E0;}
	.st18{fill:#1D71BC;}
	.st19{fill:#5BB0FF;}
	.st20{fill:#3D93FF;}
	.st21{fill:#0E007A;}
	.st22{fill:#160F96;}
	.st23{fill:url(#SVGID_1_);}
	.st24{fill:#F79F7C;}
	.st25{fill:#994E17;}
	.st26{opacity:0.7;fill:#0BE1F7;}
</style>
<g>
	<g>
		<polygon class="st0" points="87.9,63.1 87,61.5 87.9,60 89.7,60 90.6,61.5 89.7,63.1 		"/>
		<polygon class="st1" points="87.9,65.6 87,64 87.9,62.4 89.7,62.4 90.6,64 89.7,65.6 		"/>
		<polygon class="st2" points="87.9,68 87,66.5 87.9,64.9 89.7,64.9 90.6,66.5 89.7,68 		"/>
		<polygon class="st3" points="87.9,70.5 87,68.9 87.9,67.4 89.7,67.4 90.6,68.9 89.7,70.5 		"/>
		<polygon class="st4" points="87.9,73 87,71.4 87.9,69.8 89.7,69.8 90.6,71.4 89.7,73 		"/>
		<polygon class="st5" points="87.9,75.4 87,73.9 87.9,72.3 89.7,72.3 90.6,73.9 89.7,75.4 		"/>
		<polygon class="st6" points="87.9,77.9 87,76.3 87.9,74.7 89.7,74.7 90.6,76.3 89.7,77.9 		"/>
	</g>
	<polygon class="st7" points="87.9,63.1 87,61.5 87.9,60 89.7,60 90.6,61.5 89.7,63.1 	"/>
</g>
<g class="st8">
	<path d="M70.2,75c13.5,7.8,13.6,20.5,0.2,28.3c-13.5,7.8-35.4,7.8-48.9,0C7.9,95.5,7.8,82.8,21.3,75C34.8,67.2,56.7,67.2,70.2,75z"
		/>
</g>
<path class="st9" d="M74.3,79.3c0,0.1,0,0.2,0,0.3c0,0.1,0,0.2-0.1,0.3c0,0.1-0.1,0.2-0.1,0.3c0,0.1-0.1,0.2-0.1,0.2
	c0,0.1-0.1,0.2-0.1,0.3c-0.1,0.1-0.2,0.3-0.3,0.4c0,0,0,0,0,0.1c-0.1,0.1-0.2,0.3-0.3,0.4c0,0,0,0.1-0.1,0.1
	c-0.1,0.1-0.3,0.3-0.4,0.4c-0.1,0.1-0.2,0.2-0.3,0.3c-0.1,0.1-0.2,0.2-0.3,0.2c-0.1,0.1-0.2,0.2-0.4,0.2c-0.1,0.1-0.2,0.2-0.4,0.2
	L53,93.8c-0.3,0.2-0.6,0.3-1,0.5c-0.1,0-0.2,0.1-0.3,0.1c-0.3,0.1-0.5,0.2-0.8,0.3c-0.1,0-0.2,0.1-0.3,0.1c-0.2,0.1-0.3,0.1-0.5,0.1
	C50,95,49.9,95,49.8,95c-0.2,0-0.4,0.1-0.5,0.1c-0.1,0-0.3,0.1-0.4,0.1c-0.4,0.1-0.8,0.1-1.1,0.2c-0.1,0-0.2,0-0.4,0
	c-0.2,0-0.4,0-0.7,0c-0.1,0-0.3,0-0.5,0c-0.2,0-0.4,0-0.5,0c-0.2,0-0.3,0-0.5,0c-0.2,0-0.3,0-0.5,0c-0.2,0-0.3,0-0.5,0
	c-0.2,0-0.3,0-0.5-0.1c-0.2,0-0.3,0-0.5-0.1c-0.2,0-0.4-0.1-0.5-0.1c-0.1,0-0.3-0.1-0.4-0.1c-0.2,0-0.4-0.1-0.6-0.2
	c-0.1,0-0.2-0.1-0.4-0.1c-0.4-0.1-0.7-0.2-1.1-0.4c-0.2-0.1-0.3-0.1-0.5-0.2c-0.1,0-0.2-0.1-0.3-0.1c-0.3-0.1-0.5-0.2-0.7-0.4
	L20.2,83.1c-2-1.2-3-2.7-3-4.2c0,2.8,0,5.5,0,8.2c0,1.5,1,3,3,4.2L38.7,102c0.2,0.1,0.5,0.3,0.7,0.4c0.1,0,0.2,0.1,0.3,0.1
	c0.2,0.1,0.3,0.1,0.5,0.2c0,0,0,0,0.1,0c0.4,0.1,0.7,0.3,1.1,0.4c0,0,0.1,0,0.1,0c0.1,0,0.2,0,0.3,0.1c0.2,0.1,0.4,0.1,0.6,0.2
	c0.1,0,0.1,0,0.2,0c0.1,0,0.2,0,0.2,0c0.2,0,0.4,0.1,0.5,0.1c0.1,0,0.1,0,0.2,0c0.1,0,0.2,0,0.2,0c0.2,0,0.3,0,0.5,0.1
	c0.1,0,0.2,0,0.2,0c0.1,0,0.1,0,0.2,0c0.2,0,0.3,0,0.5,0c0.1,0,0.2,0,0.3,0c0.1,0,0.1,0,0.2,0c0.2,0,0.4,0,0.6,0c0.1,0,0.2,0,0.3,0
	c0.1,0,0.1,0,0.2,0c0.2,0,0.5,0,0.7,0c0.1,0,0.2,0,0.3,0c0,0,0.1,0,0.1,0c0.4,0,0.8-0.1,1.2-0.2c0,0,0,0,0.1,0c0.1,0,0.2,0,0.3-0.1
	c0.2,0,0.4-0.1,0.6-0.1c0.1,0,0.3-0.1,0.4-0.1c0.2,0,0.4-0.1,0.5-0.1c0,0,0.1,0,0.1,0c0.1,0,0.1,0,0.2-0.1c0.3-0.1,0.5-0.2,0.8-0.3
	c0.1,0,0.2-0.1,0.3-0.1c0.3-0.1,0.7-0.3,1-0.5l18.4-10.7c0,0,0.1,0,0.1-0.1c0.1-0.1,0.2-0.1,0.3-0.2c0.1-0.1,0.2-0.2,0.4-0.2
	c0.1-0.1,0.2-0.1,0.3-0.2c0.1-0.1,0.2-0.2,0.3-0.3c0,0,0,0,0.1,0c0.1-0.1,0.3-0.2,0.4-0.4c0,0,0-0.1,0.1-0.1
	c0.1-0.1,0.1-0.2,0.2-0.2c0-0.1,0.1-0.1,0.1-0.2c0,0,0,0,0-0.1c0.1-0.1,0.2-0.2,0.2-0.3c0,0,0-0.1,0-0.1c0.1-0.1,0.1-0.2,0.1-0.3
	c0-0.1,0.1-0.1,0.1-0.2c0,0,0,0,0-0.1c0-0.1,0.1-0.2,0.1-0.3c0-0.1,0-0.1,0.1-0.2c0,0,0,0,0-0.1c0-0.1,0-0.2,0-0.3
	c0-0.1,0-0.1,0-0.2c0,0,0-0.1,0-0.1c0-2.7,0-5.5,0-8.2C74.4,79.1,74.3,79.2,74.3,79.3z"/>
<path class="st10" d="M74.3,79.6c0,0.1,0,0.2-0.1,0.3c0,0.1-0.1,0.2-0.1,0.3c0,0.1-0.1,0.2-0.1,0.2c0,0.1-0.1,0.2-0.1,0.3
	c-0.1,0.1-0.2,0.3-0.3,0.4c0,0,0,0,0,0.1c-0.1,0.1-0.2,0.3-0.3,0.4c0,0,0,0.1-0.1,0.1c-0.1,0.1-0.3,0.3-0.4,0.4
	c-0.1,0.1-0.2,0.2-0.3,0.3c-0.1,0.1-0.2,0.2-0.3,0.2c-0.1,0.1-0.2,0.2-0.4,0.2c-0.1,0.1-0.2,0.2-0.4,0.2L53,93.8
	c-0.3,0.2-0.6,0.3-1,0.5c-0.1,0-0.2,0.1-0.3,0.1c-0.3,0.1-0.5,0.2-0.8,0.3c-0.1,0-0.2,0.1-0.3,0.1c-0.2,0.1-0.3,0.1-0.5,0.1
	C50,95,49.9,95,49.8,95c-0.2,0-0.4,0.1-0.5,0.1c-0.1,0-0.3,0.1-0.4,0.1c-0.4,0.1-0.8,0.1-1.1,0.2c-0.1,0-0.2,0-0.4,0
	c-0.2,0-0.4,0-0.7,0c-0.1,0-0.3,0-0.5,0c-0.2,0-0.4,0-0.5,0c-0.2,0-0.3,0-0.5,0c-0.2,0-0.3,0-0.5,0c-0.2,0-0.3,0-0.5,0
	c-0.2,0-0.3,0-0.5-0.1c-0.2,0-0.3,0-0.5-0.1c-0.2,0-0.4-0.1-0.5-0.1c-0.1,0-0.3-0.1-0.4-0.1c-0.2,0-0.4-0.1-0.6-0.2
	c-0.1,0-0.2-0.1-0.4-0.1c-0.4-0.1-0.7-0.2-1.1-0.4c-0.2-0.1-0.3-0.1-0.5-0.2c-0.1,0-0.2-0.1-0.3-0.1c-0.3-0.1-0.5-0.2-0.7-0.4
	L20.2,83.1c-2-1.2-3-2.7-3-4.2c0,1.5,0,3,0,4.4c0.1,1.5,1,2.9,3,4l18.5,10.7c0.2,0.1,0.5,0.3,0.7,0.4c0.1,0,0.2,0.1,0.3,0.1
	c0.2,0.1,0.3,0.1,0.5,0.2c0,0,0,0,0.1,0c0.4,0.1,0.7,0.3,1.1,0.4c0,0,0.1,0,0.1,0c0.1,0,0.2,0,0.3,0.1c0.2,0.1,0.4,0.1,0.6,0.2
	c0.1,0,0.1,0,0.2,0c0.1,0,0.2,0,0.2,0c0.2,0,0.4,0.1,0.5,0.1c0.1,0,0.1,0,0.2,0c0.1,0,0.2,0,0.2,0c0.2,0,0.3,0,0.5,0.1
	c0.1,0,0.2,0,0.2,0c0.1,0,0.1,0,0.2,0c0.2,0,0.3,0,0.5,0c0.1,0,0.2,0,0.3,0c0.1,0,0.1,0,0.2,0c0.2,0,0.4,0,0.6,0c0.1,0,0.2,0,0.3,0
	c0.1,0,0.1,0,0.2,0c0.2,0,0.5,0,0.7,0c0.1,0,0.2,0,0.3,0c0,0,0.1,0,0.1,0c0.4,0,0.8-0.1,1.2-0.2c0,0,0,0,0.1,0c0.1,0,0.2,0,0.3-0.1
	c0.2,0,0.4-0.1,0.6-0.1c0.1,0,0.3-0.1,0.4-0.1c0.2,0,0.4-0.1,0.5-0.2c0,0,0.1,0,0.1,0c0.1,0,0.1,0,0.2-0.1c0.3-0.1,0.5-0.2,0.8-0.3
	c0.1,0,0.2-0.1,0.3-0.1c0.3-0.1,0.7-0.3,1-0.5l18.4-10.7c0,0,0.1,0,0.1-0.1c0.1-0.1,0.2-0.1,0.3-0.2c0.1-0.1,0.2-0.2,0.4-0.2
	c0.1-0.1,0.2-0.1,0.3-0.2c0.1-0.1,0.2-0.2,0.3-0.3c0,0,0,0,0.1,0c0.1-0.1,0.3-0.2,0.4-0.4c0,0,0-0.1,0.1-0.1
	c0.1-0.1,0.1-0.2,0.2-0.2c0-0.1,0.1-0.1,0.1-0.2c0,0,0,0,0-0.1c0.1-0.1,0.2-0.2,0.2-0.3c0,0,0-0.1,0-0.1c0.1-0.1,0.1-0.2,0.1-0.3
	c0-0.1,0.1-0.1,0.1-0.2c0,0,0,0,0-0.1c0-0.1,0.1-0.2,0.1-0.3c0-0.1,0-0.1,0.1-0.2c0,0,0,0,0-0.1c0-0.1,0-0.2,0-0.3
	c0-0.1,0-0.1,0-0.2c0,0,0-0.1,0-0.1c0-1.4,0-2.8,0-4.2c0,0.1,0,0.1,0,0.2C74.3,79.4,74.3,79.5,74.3,79.6z"/>
<g>
	<path class="st9" d="M71.4,74.8c4,2.3,4,6,0.1,8.3L53,93.8c-3.9,2.3-10.3,2.3-14.3,0L20.2,83.1c-4-2.3-4-6,0-8.3l18.4-10.7
		c3.9-2.3,10.3-2.3,14.3,0L71.4,74.8z"/>
</g>
<g>
	<path class="st11" d="M11,41.5V16c0,0,18.5-20.2,68.4-15.1v25.5C79.4,26.4,33.7,20.1,11,41.5z"/>
	<path class="st12" d="M11,41.5v0.9C33.7,21,79.4,27.2,79.4,27.2v-0.9C79.4,26.4,33.7,20.1,11,41.5z"/>
	<path class="st12" d="M11,16v0.9C33.7-4.5,79.4,1.7,79.4,1.7V0.9C79.4,0.9,33.7-5.4,11,16z"/>
	<path class="st13" d="M13.2,18.1v3.5c4.5-4.2,9.9-7.4,15.7-9.7V8.5C17.8,13,13.2,18.1,13.2,18.1z"/>
	<path class="st13" d="M13.2,23.4v3.5c4.5-4.2,9.9-7.4,15.7-9.7v-3.4C17.8,18.3,13.2,23.4,13.2,23.4z"/>
	<path class="st13" d="M13.2,28.6v3.5c4.5-4.2,9.9-7.4,15.7-9.7v-3.4C17.8,23.5,13.2,28.6,13.2,28.6z"/>
	<path class="st13" d="M13.2,33.9v3.5c4.5-4.2,9.9-7.4,15.7-9.7v-3.4C17.8,28.8,13.2,33.9,13.2,33.9z"/>
	<path class="st13" d="M54.8,20.5c0.9-0.1,1.9-0.1,2.8-0.1l0.3-6.9c-0.9,0-1.8,0.1-2.8,0.2L54.8,20.5z"/>
	<path class="st13" d="M50.9,20.8c0.9-0.1,1.7-0.1,2.6-0.2l0.2-4.1c-0.9,0.1-1.7,0.2-2.6,0.3L50.9,20.8z"/>
	<path class="st13" d="M39.5,22.6c0.9-0.1,1.7-0.3,2.6-0.4l-0.2-4.1c-0.8,0.1-1.7,0.3-2.6,0.5L39.5,22.6z"/>
	<path class="st13" d="M36.1,23.1c0.9-0.1,1.7-0.3,2.6-0.4l-0.1-2.2c-0.8,0.1-1.7,0.3-2.6,0.4L36.1,23.1z"/>
	<path class="st11" d="M47.1,21.2c0.9-0.1,1.7-0.2,2.6-0.3l0.5-11.6c-0.9,0.1-1.7,0.2-2.6,0.3L47.1,21.2z"/>
	<path class="st11" d="M42.9,21.8c0.9-0.1,1.8-0.3,2.8-0.4l0.2-6.6c-0.9,0.2-1.8,0.3-2.8,0.5L42.9,21.8z"/>
	<path class="st11" d="M61,7.4c10-0.1,17.1,0.8,17.1,0.8V5.6C71.9,4.9,66.3,4.7,61,4.7V7.4z"/>
	<path class="st11" d="M61,11.8c10-0.1,17.1,0.8,17.1,0.8V10C71.9,9.3,66.3,9.1,61,9.1V11.8z"/>
	<path class="st11" d="M61,16.2C71,16,78.1,17,78.1,17v-2.7c-6.2-0.6-11.9-0.9-17.1-0.8V16.2z"/>
	<g class="st14">
		<path class="st15" d="M30.3,26.9l-0.4,0c0-0.5,0.2-5,1.4-5.8c0.2-0.1,0.5-0.2,0.7-0.1c0.6,0.3,1,0.8,1.3,1.1
			c0.2,0.2,0.3,0.4,0.5,0.4c0,0,0,0,0,0c0.1,0,0.4-0.2,0.9-1.1c0.6-1,1-2.4,1.4-3.7c0.7-2.1,1.3-4.1,2.5-4.5
			c0.6-0.2,1.1-0.1,1.5-0.1c1.1,0,1.8,0,2.5-2.3c1-3.6,2.8-5.8,4.9-5.6c2.1,0.1,4.2,3.9,4.9,5.6c0.1,0.3,0.3,0.3,0.3,0.3
			c0.7,0.1,2.2-1.5,3.3-3.1c0.4-0.5,0.8-0.8,1.2-0.7c1,0.2,1.6,2.1,1.7,2.5c0.1,0.3,0.1,1.1,0.2,2.1c0.2,2.5,0.4,7.2,1.8,7.5
			L61,19.9c-1.7-0.4-2-4.9-2.2-7.9c-0.1-0.9-0.1-1.8-0.2-2c-0.3-1-0.8-2.1-1.3-2.2c-0.2,0-0.5,0.1-0.8,0.5c-0.4,0.6-2.4,3.4-3.7,3.2
			c-0.2,0-0.5-0.2-0.7-0.6c-0.7-1.8-2.7-5.2-4.5-5.3c-1.9-0.1-3.5,1.9-4.5,5.3c-0.7,2.7-1.7,2.7-2.9,2.7c-0.4,0-0.9,0-1.4,0.1
			c-1,0.3-1.6,2.3-2.2,4.2c-0.4,1.4-0.9,2.8-1.5,3.8c-0.5,0.9-0.9,1.3-1.3,1.3c-0.4,0-0.6-0.3-0.8-0.6c-0.3-0.3-0.6-0.8-1.1-1
			c-0.1-0.1-0.2,0-0.3,0C30.7,22,30.4,25.6,30.3,26.9z"/>
	</g>
</g>
<path class="st8" d="M57.5,76.5c-0.7-1-1.7-1.9-3.1-2.8c-3.2-1.9-7.7-2.6-11.8-2.2c-2.6,0.3-5.1,1-7.2,2.2c-2.3,1.4-3.6,3.1-3.9,4.9
	c-0.3,2.2,1,4.4,3.9,6.1c4.4,2.5,11.1,3,16.2,1.2c1-0.3,1.9-0.7,2.8-1.2C58.3,82.5,59.3,79.2,57.5,76.5z"/>
<g>
	<path class="st16" d="M27.6,25.1c0,0-0.5-0.2-1.2-1.1c-0.7-0.9-0.6-1.2-0.7-1.9c-0.1-0.7-0.1-1.1,0.1-1.3c0.4-0.2,1.1,0.1,1.5,1.4
		c0.4,1.4,1.7,1.5,1.9,1.8C29.3,24.4,27.9,25.3,27.6,25.1z"/>
	<path class="st16" d="M27.8,23.9c-0.2-0.1,0.2-0.7-0.3-2c-0.4-1.1,0.6,0.1,0.7,0.3c0.1,0.2,1,1.9,1,1.9S28.3,24.2,27.8,23.9z"/>
	<path class="st16" d="M47.9,41.4c0,0-1.6,2.5-3.2,2.2c-1.6-0.3-1.8-0.7-1.1-1.1c0.7-0.4,2.5-1.7,2.1-1.8c-0.3-0.1-1.1,0.1-1-0.3
		c0.1-0.3,2.3-0.8,2.3-0.8l1.6,0.8L47.9,41.4z"/>
	<g>
		<path class="st17" d="M48.9,23.5c0,0-0.3-2.8,2.4-2.9c2.9-0.1,2.3,6,2.3,6s-0.1,5.2-0.7,6.9c-0.7,2.2-4.5,7.8-4.5,7.8
			s-1.7-0.4-2.2-1.6c0,0,3-5.3,3.3-7.3C49.8,30.2,48.8,24,48.9,23.5z"/>
		<path class="st18" d="M48.4,41.3c0,0,3.8-5.6,4.5-7.8c0.5-1.6,0.7-6.9,0.7-6.9s1-5.8-2.2-6.1c-1.3-0.1-1.5,0.5-1.9,0.9
			c2.1,0.1,2.3,1.5,2.1,4.7c-0.2,3.4,0.2,4.4,0,7.3c-0.2,2.9-3.3,5.7-3.7,6.4c-0.3,0.5-1.1-0.1-1.5-0.5c-0.1,0.2-0.2,0.3-0.2,0.3
			C46.7,40.9,48.4,41.3,48.4,41.3z"/>
	</g>
	<path class="st19" d="M48.9,75.3c-0.1,0-5.1-0.1-4,1.7c0.7,1.2,1.7,1.4,2.5,1.5c0.8,0,2.1-0.4,2.5-0.2c0.3,0.2,2,1.4,3,0.2
		c0.2-0.2,0.3-0.9,0.2-1.4C52.9,76.7,49.4,75.2,48.9,75.3z"/>
	<path class="st20" d="M44.9,77c0.7,1.2,1.7,1.4,2.5,1.5c0.8,0,2.1-0.4,2.5-0.2c0.3,0.2,2,1.4,3,0.2c0.1-0.1,0.2-0.4,0.2-0.7
		c-0.7,1-2.3,0.7-2.8,0.4c-0.5-0.4-1.3-0.6-1.9-0.4c-0.7,0.1-2.1,0-2.8-0.7c-0.4-0.4-0.4-0.9-0.3-1.2C44.7,76.1,44.5,76.5,44.9,77z"
		/>
	<path class="st21" d="M51.3,35c0,0,4.2,6.3,1.2,15.3c-0.7,2-2,6.1-1.6,8.2c0.5,2.5,1.3,1.8,1.9,9.9c0.5,7.2,0.4,5.6,0.6,8.6
		c0,0.8-3,1.7-3.5,0.4c-2-5.7-4.8-17.5-4.3-24c0.6-6.5,0.9-12.6,0.9-12.6S49.3,36.9,51.3,35z"/>
	<path class="st19" d="M39.4,78.7c-0.1,0-5.3-1.2-4.4,1c0.5,1.4,1.6,1.8,2.3,2c0.8,0.2,2.3,0,2.6,0.3c0.3,0.3,1.9,1.8,3.1,0.8
		c0.2-0.2,0.5-0.9,0.4-1.4C43.3,80.9,40,78.7,39.4,78.7z"/>
	<path class="st20" d="M34.9,79.7c0.5,1.4,1.6,1.8,2.3,2c0.8,0.2,2.3,0,2.6,0.3c0.3,0.3,1.9,1.8,3.1,0.8c0.1-0.1,0.3-0.4,0.4-0.7
		c-0.9,0.9-2.6,0.3-3-0.1c-0.5-0.5-1.2-0.8-1.9-0.8c-0.7,0-2.2-0.4-2.8-1.3c-0.4-0.5-0.3-1-0.1-1.3C35,78.7,34.7,79.1,34.9,79.7z"/>
	<path class="st22" d="M49.9,41c0,0,3.4,3.7-2.7,12.9c0,0-3,6.6-2.9,8.7c0.1,2.5,1.1,2.8,0.1,11c-0.9,7.2-0.5,7.3-1.1,7.9
		c-0.6,0.6-3.5,0-3.6-1.3c-0.5-7-1.6-17.3-1-23.8C39.5,49,40,42.8,40,42.8S47.7,42.5,49.9,41z"/>
	<linearGradient id="SVGID_1_" gradientUnits="userSpaceOnUse" x1="46.2217" y1="18.8948" x2="46.3449" y2="44.1321">
		<stop  offset="0" style="stop-color:#5AB0FF"/>
		<stop  offset="1" style="stop-color:#3C84F7"/>
	</linearGradient>
	<path class="st23" d="M39.5,27.1c0,0-0.8-3.2,4.4-5.3c5.2-2.1,8.4-2.1,8.6,0.8c0.2,3-1.1,7-1.2,8.4c-0.1,1.1,0.4,1.9,1.3,6.7
		c0.7,3.3,1.5,6-6.8,6.8c-1.5,0.1-6.4,0.7-5.9-2.8C41.7,30.9,40.3,30.7,39.5,27.1z"/>
	<g>
		<path class="st16" d="M44.4,18.3c0,0,0.7,2.2-0.3,3.7c-0.6,0.8,5.1,2,4.6-0.3c-0.5-1.9,0.3-3.7,1.7-5.1L44.4,18.3z"/>
		<path class="st24" d="M44.6,20c0,0,1.4-0.3,2.2-0.8l0.1,0l0.5,0.1l0.2,0.1c0,0-0.3,2.4-3.4,2.1C44.3,21.5,44.6,20.9,44.6,20z"/>
		<path class="st16" d="M44.3,9.2c0,0-0.9,1.5-2.2,4.1c-1.1,2.3-1.3,4.9,0.1,6c0.7,0.6,5.4,1.7,7.6-3.9C51.3,11.9,48.9,7.3,44.3,9.2
			z"/>
	</g>
	<path class="st25" d="M43.3,9.3c-0.6,0.5-1.7,2-0.2,2.7c2.1,0.9,0.5,3.7,1.2,4.2c0.4,0.3,0.4-0.2,1.4-1c0.4-0.3,0.9-0.1,1,1.1
		c0.1,1.1-1.7,2.9-1.2,3.3c0.5,0.4,3.8-0.6,4.4-1.2c1.5-1.4,3.5-5.1,0.7-8.4C48.4,7.2,44.3,8.5,43.3,9.3z"/>
	<path class="st19" d="M43.8,26.4c0.1-0.6,0-2.6-1.8-3c-1.2-0.3-7.8,5.2-8.6,5.1c-0.4-0.1-4.2-4.9-4.2-4.9s0,1.3-1.9,1.7
		c0,0,3.7,7.3,5.6,7C36.1,31.8,43.2,29.3,43.8,26.4z"/>
</g>
<g>
	<path class="st11" d="M79.9,44.1v23.2c0,0-20,16-53.6,8c0,0-21.2-5.2-26.2-17.7V34.3c0,0,4.7,13.2,31.7,18.8
		C31.7,53.2,60.4,57.6,79.9,44.1z"/>
	<path class="st26" d="M58.4,63.7l-0.2,6.7c0.8-0.2,1.6-0.4,2.3-0.6l0.2-6.8L58.4,63.7z"/>
	<path class="st26" d="M61.6,65.7l-0.1,3.8c0.7-0.2,1.4-0.5,2-0.7l0.1-3.8L61.6,65.7z"/>
	<path class="st12" d="M65.8,56.4c7.6-1.3,11.9-4.7,11.9-4.7v-2.1c-3.6,2.5-7.9,3.8-11.9,4.5V56.4z"/>
	<path class="st12" d="M65.8,60c7.6-1.3,11.9-4.7,11.9-4.7v-2.1c-3.6,2.5-7.9,3.8-11.9,4.5V60z"/>
	<path class="st12" d="M65.8,64.4c7.6-1.3,11.9-4.7,11.9-4.7v-2.1c-3.6,2.5-7.9,3.8-11.9,4.5V64.4z"/>
	<path class="st12" d="M65.8,67.9c7.6-1.3,11.9-4.7,11.9-4.7V61c-3.6,2.5-7.9,3.8-11.9,4.5V67.9z"/>
	<path class="st12" d="M0,34.3c0,0,7.6,16.5,38.2,19.4c0,0,24.6,1.7,41.7-9.7v0.8c0,0-15,10.7-41.8,9.8c0,0-28.7-1.7-38.1-19V34.3z"
		/>
	<path class="st12" d="M0,57.2c0,0,7.6,16.5,38.2,19.4c0,0,24.6,1.7,41.7-9.7v0.8c0,0-15,10.7-41.8,9.8c0,0-28.7-1.7-38.1-19V57.2z"
		/>
	<path class="st11" d="M29.6,55.5c-7.4-1.8-13.1-4.2-17.4-6.6L12,51.8c6.2,3.4,12,5.1,12,5.1c10.9,3,20.4,3.4,28.3,2.6l0.1-3.2
		C39.9,57.5,29.6,55.5,29.6,55.5z"/>
	<path class="st11" d="M29.4,59.9C22,58.1,16.3,55.8,12,53.3l-0.1,2.8c6.2,3.4,12,5.1,12,5.1c10.9,3,20.4,3.4,28.3,2.6l0.1-3.2
		C39.8,61.9,29.4,59.9,29.4,59.9z"/>
	<path class="st11" d="M29.2,65.2c-7.4-1.8-13.1-4.2-17.4-6.6l-0.1,2.8c6.2,3.4,12,5.1,12,5.1c10.9,3,20.4,3.4,28.3,2.6l0.1-3.2
		C39.6,67.2,29.2,65.2,29.2,65.2z"/>
	<path class="st11" d="M29,69.6C21.6,67.8,16,65.4,11.6,63l-0.1,2.8c6.2,3.4,12,5.1,12,5.1c10.9,3,20.4,3.4,28.3,2.6l0.1-3.2
		C39.4,71.6,29,69.6,29,69.6z"/>
	<path class="st26" d="M54.8,56.4l-0.5,14.5c1-0.2,1.9-0.4,2.8-0.6l0.5-14.8L54.8,56.4z"/>
	<path class="st12" d="M1.1,39.6v2.7c1.6,4.1,5.7,7,9.5,9.1v-2.9C2.7,44.4,1.1,39.6,1.1,39.6z"/>
	<path class="st12" d="M1.1,44v2.7c1.6,4.1,5.7,7,9.5,9.1v-2.9C2.7,48.8,1.1,44,1.1,44z"/>
	<path class="st12" d="M1.1,49.3V52c1.6,4.1,5.7,7,9.5,9.1v-2.9C2.7,54.1,1.1,49.3,1.1,49.3z"/>
	<path class="st12" d="M1.1,53.7v2.7c1.6,4.1,5.7,7,9.5,9.1v-2.9C2.7,58.5,1.1,53.7,1.1,53.7z"/>
</g>
</svg>
