<?xml version="1.0" encoding="utf-8"?>
<!-- Generator: Adobe Illustrator 22.1.0, SVG Export Plug-In . SVG Version: 6.00 Build 0)  -->
<svg version="1.1" id="Layer_1" xmlns="http://www.w3.org/2000/svg" xmlns:xlink="http://www.w3.org/1999/xlink" x="0px" y="0px"
	 viewBox="0 0 116.1 92.3" style="enable-background:new 0 0 116.1 92.3;" xml:space="preserve">
<style type="text/css">
	.st0{opacity:0.1;}
	.st1{clip-path:url(#SVGID_2_);enable-background:new    ;}
	.st2{fill:#88B5EA;}
	.st3{enable-background:new    ;}
	.st4{clip-path:url(#SVGID_4_);enable-background:new    ;}
	.st5{fill:#2D509E;}
	.st6{fill:#2E53A3;}
	.st7{fill:#3055A8;}
	.st8{fill:#3158AD;}
	.st9{fill:#325AB3;}
	.st10{fill:#345DB8;}
	.st11{fill:#355FBD;}
	.st12{fill:#3762C2;}
	.st13{fill:#3865C7;}
	.st14{fill:#3A67CC;}
	.st15{fill:#96B2DB;}
	.st16{clip-path:url(#SVGID_6_);enable-background:new    ;}
	.st17{fill:#2B4D99;}
	.st18{fill:#2A4B94;}
	.st19{fill:#28488F;}
	.st20{fill:#27468A;}
	.st21{fill:#254385;}
	.st22{clip-path:url(#SVGID_8_);enable-background:new    ;}
	.st23{fill:#B760CC;}
	.st24{fill:#B35EC7;}
	.st25{fill:#AE5BC2;}
	.st26{fill:#A959BD;}
	.st27{fill:#A556B8;}
	.st28{fill:#A054B3;}
	.st29{fill:#9C52AD;}
	.st30{fill:#974FA8;}
	.st31{fill:#934DA3;}
	.st32{fill:#8E4A9E;}
	.st33{clip-path:url(#SVGID_10_);enable-background:new    ;}
	.st34{fill:#773E85;}
	.st35{fill:#7C418A;}
	.st36{fill:#80438F;}
	.st37{fill:#854694;}
	.st38{fill:#894899;}
	.st39{clip-path:url(#SVGID_12_);enable-background:new    ;}
	.st40{clip-path:url(#SVGID_14_);enable-background:new    ;}
	.st41{fill:#752289;}
	.st42{fill:#722285;}
	.st43{fill:#6F2182;}
	.st44{fill:#6C207F;}
	.st45{fill:#691F7B;}
	.st46{fill:#661E78;}
	.st47{fill:#631D74;}
	.st48{fill:#601C71;}
	.st49{fill:#5D1C6D;}
	.st50{fill:#5B1B6A;}
	.st51{clip-path:url(#SVGID_16_);enable-background:new    ;}
	.st52{fill:#4C1659;}
	.st53{fill:#4F175C;}
	.st54{fill:#521860;}
	.st55{fill:#551963;}
	.st56{fill:#581A67;}
	.st57{clip-path:url(#SVGID_18_);enable-background:new    ;}
	.st58{clip-path:url(#SVGID_20_);enable-background:new    ;}
	.st59{clip-path:url(#SVGID_22_);enable-background:new    ;}
	.st60{fill:#BEB612;}
	.st61{fill:#B9B211;}
	.st62{fill:#B4AD11;}
	.st63{fill:#AFA910;}
	.st64{fill:#ABA410;}
	.st65{fill:#A6A00F;}
	.st66{fill:#A19B0F;}
	.st67{fill:#9C960F;}
	.st68{fill:#98920E;}
	.st69{fill:#938D0E;}
	.st70{clip-path:url(#SVGID_24_);enable-background:new    ;}
	.st71{fill:#7B770B;}
	.st72{fill:#807B0C;}
	.st73{fill:#85800C;}
	.st74{fill:#89840D;}
	.st75{fill:#8E890D;}
	.st76{fill:#4881FF;}
	.st77{fill:#E578FF;}
	.st78{fill:#922BAB;}
	.st79{fill:#FFB420;}
	.st80{fill:#D7E9FF;}
	.st81{fill:url(#SVGID_25_);}
	.st82{fill:url(#SVGID_26_);}
	.st83{fill:url(#SVGID_27_);}
	.st84{fill:url(#SVGID_28_);}
	.st85{fill:url(#SVGID_29_);}
	.st86{fill:url(#SVGID_30_);}
	.st87{fill:url(#SVGID_31_);}
	.st88{opacity:0.6;fill:#40EBF4;}
	.st89{opacity:0.5;fill:#39E0EA;}
	.st90{opacity:0.4;fill:#33D4DF;}
	.st91{opacity:0.3;fill:#2CC9D5;}
	.st92{opacity:0.2;fill:#25BDCA;}
	.st93{opacity:0.1;fill:#1FB2C0;}
	.st94{opacity:0;fill:#18A6B5;}
	.st95{opacity:0.5;fill:#18A6B5;}
	.st96{fill:#09B4C6;}
	.st97{fill:#0BE1F7;}
	.st98{opacity:0.7;}
	.st99{fill:#55FBFF;}
	.st100{opacity:0.8333;}
	.st101{opacity:0.8333;fill:#71FCFF;}
	.st102{opacity:0.6667;}
	.st103{opacity:0.6667;fill:#8EFCFF;}
	.st104{opacity:0.5;}
	.st105{opacity:0.5;fill:#AAFDFF;}
	.st106{opacity:0.3333;}
	.st107{opacity:0.3333;fill:#C6FEFF;}
	.st108{opacity:0.1667;}
	.st109{opacity:0.1667;fill:#E3FEFF;}
	.st110{opacity:0;}
	.st111{opacity:0;fill:#FFFFFF;}
	.st112{fill:#FFAA83;}
	.st113{fill:#615A8E;}
	.st114{fill:#5BB0FF;}
	.st115{fill:#3D93FF;}
	.st116{fill:#0E007A;}
	.st117{fill:#160F96;}
	.st118{fill:#F29C79;}
	.st119{fill:#E84CBE;}
	.st120{fill:url(#SVGID_32_);}
	.st121{fill:url(#SVGID_33_);}
	.st122{fill:#F79F7C;}
	.st123{fill:#994E17;}
	.st124{fill:#F98CDA;}
</style>
<path class="st0" d="M107.4,77.6c-0.6-1-1.7-1.9-3-2.7c-3.2-1.8-7.6-2.6-11.7-2.1c-2.6,0.3-5.1,1-7.1,2.1c-2.3,1.3-3.6,3.1-3.8,4.8
	c-0.3,2.2,1,4.4,3.9,6.1c4.4,2.5,11,2.9,16.1,1.2c1-0.3,1.9-0.7,2.7-1.2C108.2,83.5,109.2,80.3,107.4,77.6z"/>
<g>
	<g class="st0">
		<polygon points="0,76.4 20.1,88.9 80.7,54 59.9,41.9 		"/>
	</g>
	<g>
		<g>
			<defs>
				<path id="SVGID_1_" d="M24.7,90c-0.3-0.2-0.7-0.4-1-0.6c-0.3-0.2-0.6-0.3-0.9-0.5c-0.2-0.1-0.4-0.2-0.6-0.4
					c-0.5-0.3-0.7-0.8-0.8-1.6l2.5,1.4C24,89.2,24.3,89.7,24.7,90z"/>
			</defs>
			<use xlink:href="#SVGID_1_"  style="overflow:visible;fill:#88B5EA;"/>
			<clipPath id="SVGID_2_">
				<use xlink:href="#SVGID_1_"  style="overflow:visible;"/>
			</clipPath>
			<g class="st1">
				<path class="st2" d="M24.7,90l-2.5-1.4c-0.5-0.3-0.7-0.8-0.8-1.6l2.5,1.4C24,89.2,24.3,89.7,24.7,90L24.7,90z"/>
			</g>
		</g>
		<g class="st3">
			<defs>
				<path id="SVGID_3_" class="st3" d="M31.4,35.2c0.3,0.1,0.6,0.1,1-0.1l2.5,1.4c-0.4,0.2-0.7,0.2-1,0.1
					C33.2,36.2,32.2,35.6,31.4,35.2z"/>
			</defs>
			<clipPath id="SVGID_4_">
				<use xlink:href="#SVGID_3_"  style="overflow:visible;"/>
			</clipPath>
			<g class="st4">
				<polygon class="st5" points="33.9,36.6 31.4,35.2 31.4,35.2 33.9,36.6 33.9,36.6 				"/>
				<path class="st6" d="M33.9,36.6l-2.5-1.4c0,0,0,0,0.1,0L33.9,36.6C34,36.6,34,36.6,33.9,36.6L33.9,36.6z"/>
				<path class="st7" d="M34,36.7l-2.5-1.4c0,0,0,0,0.1,0L34,36.7C34.1,36.7,34,36.7,34,36.7L34,36.7z"/>
				<path class="st8" d="M34.1,36.7l-2.5-1.4c0,0,0,0,0.1,0L34.1,36.7C34.1,36.7,34.1,36.7,34.1,36.7L34.1,36.7z"/>
				<path class="st9" d="M34.2,36.7l-2.5-1.4c0,0,0.1,0,0.1,0L34.2,36.7C34.2,36.7,34.2,36.7,34.2,36.7L34.2,36.7z"/>
				<path class="st10" d="M34.2,36.7l-2.5-1.4c0,0,0.1,0,0.1,0L34.2,36.7C34.3,36.7,34.3,36.7,34.2,36.7L34.2,36.7z"/>
				<path class="st11" d="M34.3,36.7l-2.5-1.4c0,0,0.1,0,0.1,0l2.5,1.4C34.4,36.7,34.4,36.7,34.3,36.7L34.3,36.7z"/>
				<path class="st12" d="M34.4,36.7l-2.5-1.4c0,0,0.1,0,0.1,0l2.5,1.4C34.5,36.7,34.5,36.7,34.4,36.7L34.4,36.7z"/>
				<path class="st13" d="M34.6,36.7L32,35.2c0.1,0,0.1,0,0.2-0.1l2.5,1.4C34.7,36.6,34.6,36.7,34.6,36.7L34.6,36.7z"/>
				<path class="st14" d="M34.7,36.6l-2.5-1.4c0.1,0,0.1-0.1,0.2-0.1l2.5,1.4C34.8,36.6,34.8,36.6,34.7,36.6L34.7,36.6z"/>
			</g>
		</g>
		<g>
			<polygon class="st15" points="23.5,46 20.9,44.5 84,7.4 86.5,8.8 			"/>
		</g>
		<g class="st3">
			<defs>
				<path id="SVGID_5_" class="st3" d="M33.7,32.7c0-0.4-0.2-0.7-0.4-0.9l2.5,1.4c0.2,0.1,0.4,0.4,0.4,0.9c0,0.9-0.6,1.9-1.3,2.4
					l-2.5-1.4C33.1,34.6,33.7,33.6,33.7,32.7z"/>
			</defs>
			<clipPath id="SVGID_6_">
				<use xlink:href="#SVGID_5_"  style="overflow:visible;"/>
			</clipPath>
			<g class="st16">
				<path class="st14" d="M34.9,36.5l-2.5-1.4c0.2-0.1,0.3-0.2,0.5-0.4l2.5,1.4C35.2,36.3,35.1,36.4,34.9,36.5L34.9,36.5z"/>
				<path class="st13" d="M35.4,36.2l-2.5-1.4c0-0.1,0.1-0.1,0.1-0.2l2.5,1.4C35.5,36.1,35.4,36.1,35.4,36.2L35.4,36.2z"/>
				<path class="st12" d="M35.5,36L33,34.6c0,0,0.1-0.1,0.1-0.1l2.5,1.4C35.6,35.9,35.5,36,35.5,36L35.5,36z"/>
				<path class="st11" d="M35.6,35.9l-2.5-1.4c0,0,0.1-0.1,0.1-0.1l2.5,1.4C35.7,35.8,35.6,35.8,35.6,35.9L35.6,35.9z"/>
				<path class="st10" d="M35.7,35.7l-2.5-1.4c0,0,0.1-0.1,0.1-0.1l2.5,1.4C35.8,35.7,35.7,35.7,35.7,35.7L35.7,35.7z"/>
				<path class="st9" d="M35.8,35.6l-2.5-1.4c0,0,0-0.1,0.1-0.1l2.5,1.4C35.8,35.5,35.8,35.6,35.8,35.6L35.8,35.6z"/>
				<path class="st8" d="M35.8,35.5l-2.5-1.4c0,0,0-0.1,0.1-0.1l2.5,1.4C35.9,35.4,35.9,35.5,35.8,35.5L35.8,35.5z"/>
				<path class="st7" d="M35.9,35.4L33.4,34c0,0,0-0.1,0.1-0.1l2.5,1.4C35.9,35.3,35.9,35.4,35.9,35.4L35.9,35.4z"/>
				<path class="st6" d="M36,35.3l-2.5-1.4c0,0,0-0.1,0.1-0.1l2.5,1.4C36,35.2,36,35.2,36,35.3L36,35.3z"/>
				<path class="st5" d="M36,35.2l-2.5-1.4c0,0,0-0.1,0-0.1l2.5,1.4C36.1,35.1,36,35.1,36,35.2L36,35.2z"/>
				<path class="st17" d="M36.1,35l-2.5-1.4c0,0,0-0.1,0-0.1l2.5,1.4C36.1,35,36.1,35,36.1,35L36.1,35z"/>
				<path class="st18" d="M36.1,34.9l-2.5-1.4c0,0,0-0.1,0-0.1l2.5,1.4C36.1,34.8,36.1,34.9,36.1,34.9L36.1,34.9z"/>
				<path class="st19" d="M36.2,34.8l-2.5-1.4c0-0.1,0-0.1,0-0.2l2.5,1.4C36.2,34.7,36.2,34.7,36.2,34.8L36.2,34.8z"/>
				<path class="st20" d="M36.2,34.6l-2.5-1.4c0-0.1,0-0.1,0-0.2l2.5,1.4C36.2,34.5,36.2,34.6,36.2,34.6L36.2,34.6z"/>
				<path class="st21" d="M36.2,34.4L33.7,33c0-0.1,0-0.2,0-0.3c0-0.4-0.2-0.7-0.4-0.9l2.5,1.4c0.2,0.1,0.4,0.4,0.4,0.9
					C36.2,34.2,36.2,34.3,36.2,34.4L36.2,34.4z"/>
			</g>
		</g>
		<g class="st3">
			<defs>
				<path id="SVGID_7_" class="st3" d="M33.3,31.9l2.5,1.4c-0.2-0.1-0.6-0.1-1,0.1L32.3,32C32.7,31.7,33.1,31.7,33.3,31.9z"/>
			</defs>
			<clipPath id="SVGID_8_">
				<use xlink:href="#SVGID_7_"  style="overflow:visible;"/>
			</clipPath>
			<g class="st22">
				<path class="st23" d="M34.9,33.4L32.3,32c0.1,0,0.1-0.1,0.2-0.1l2.5,1.4C35,33.3,34.9,33.4,34.9,33.4L34.9,33.4z"/>
				<path class="st24" d="M35.1,33.3l-2.5-1.4c0.1,0,0.1,0,0.2-0.1l2.5,1.4C35.2,33.3,35.1,33.3,35.1,33.3L35.1,33.3z"/>
				<path class="st25" d="M35.2,33.2l-2.5-1.4c0,0,0.1,0,0.1,0l2.5,1.4C35.3,33.2,35.3,33.2,35.2,33.2L35.2,33.2z"/>
				<path class="st26" d="M35.3,33.2l-2.5-1.4c0,0,0.1,0,0.1,0l2.5,1.4C35.4,33.2,35.4,33.2,35.3,33.2L35.3,33.2z"/>
				<path class="st27" d="M35.4,33.2l-2.5-1.4c0,0,0.1,0,0.1,0L35.4,33.2C35.5,33.2,35.5,33.2,35.4,33.2L35.4,33.2z"/>
				<path class="st28" d="M35.5,33.2L33,31.8c0,0,0.1,0,0.1,0L35.5,33.2C35.6,33.2,35.6,33.2,35.5,33.2L35.5,33.2z"/>
				<path class="st29" d="M35.6,33.2l-2.5-1.4c0,0,0,0,0.1,0L35.6,33.2C35.7,33.2,35.6,33.2,35.6,33.2L35.6,33.2z"/>
				<path class="st30" d="M35.7,33.2l-2.5-1.4c0,0,0,0,0.1,0L35.7,33.2C35.7,33.2,35.7,33.2,35.7,33.2L35.7,33.2z"/>
				<path class="st31" d="M35.8,33.3l-2.5-1.4c0,0,0,0,0.1,0L35.8,33.3C35.8,33.3,35.8,33.3,35.8,33.3L35.8,33.3z"/>
				<polygon class="st32" points="35.8,33.3 33.3,31.8 33.3,31.9 35.8,33.3 35.8,33.3 				"/>
			</g>
		</g>
		<g class="st3">
			<defs>
				<path id="SVGID_9_" class="st3" d="M33.9,36.6c-0.7-0.4-1.3-0.8-2-1.2c-0.1-0.1-0.3-0.1-0.4-0.2c0,0-0.1-0.1-0.1-0.1
					C31.2,35,31,34.7,31,34.3c0-0.9,0.6-1.9,1.3-2.4l2.5,1.4c-0.7,0.4-1.3,1.5-1.3,2.4C33.5,36.2,33.7,36.5,33.9,36.6z"/>
			</defs>
			<clipPath id="SVGID_10_">
				<use xlink:href="#SVGID_9_"  style="overflow:visible;"/>
			</clipPath>
			<g class="st33">
				<path class="st34" d="M33.9,36.6l-2.5-1.4C31.2,35,31,34.7,31,34.3c0-0.1,0-0.2,0-0.3l2.5,1.4c0,0.1,0,0.2,0,0.3
					C33.5,36.2,33.7,36.5,33.9,36.6L33.9,36.6z"/>
				<path class="st35" d="M33.5,35.5L31,34c0-0.1,0-0.1,0-0.2l2.5,1.4C33.6,35.4,33.6,35.4,33.5,35.5L33.5,35.5z"/>
				<path class="st36" d="M33.6,35.3l-2.5-1.4c0-0.1,0-0.1,0-0.2l2.5,1.4C33.6,35.2,33.6,35.2,33.6,35.3L33.6,35.3z"/>
				<path class="st37" d="M33.6,35.1l-2.5-1.4c0,0,0-0.1,0-0.1l2.5,1.4C33.6,35,33.6,35.1,33.6,35.1L33.6,35.1z"/>
				<path class="st38" d="M33.7,35l-2.5-1.4c0,0,0-0.1,0-0.1l2.5,1.4C33.7,34.9,33.7,35,33.7,35L33.7,35z"/>
				<path class="st32" d="M33.7,34.9l-2.5-1.4c0,0,0-0.1,0-0.1l2.5,1.4C33.7,34.8,33.7,34.8,33.7,34.9L33.7,34.9z"/>
				<path class="st31" d="M33.8,34.8l-2.5-1.4c0,0,0-0.1,0.1-0.1l2.5,1.4C33.8,34.7,33.8,34.7,33.8,34.8L33.8,34.8z"/>
				<path class="st30" d="M33.8,34.6l-2.5-1.4c0,0,0-0.1,0.1-0.1l2.5,1.4C33.8,34.6,33.8,34.6,33.8,34.6L33.8,34.6z"/>
				<path class="st29" d="M33.9,34.5l-2.5-1.4c0,0,0-0.1,0.1-0.1l2.5,1.4C33.9,34.4,33.9,34.5,33.9,34.5L33.9,34.5z"/>
				<path class="st28" d="M33.9,34.4L31.4,33c0,0,0-0.1,0.1-0.1l2.5,1.4C34,34.3,33.9,34.4,33.9,34.4L33.9,34.4z"/>
				<path class="st27" d="M34,34.3l-2.5-1.4c0,0,0.1-0.1,0.1-0.1l2.5,1.4C34,34.2,34,34.2,34,34.3L34,34.3z"/>
				<path class="st26" d="M34.1,34.2l-2.5-1.4c0,0,0.1-0.1,0.1-0.1l2.5,1.4C34.1,34.1,34.1,34.1,34.1,34.2L34.1,34.2z"/>
				<path class="st25" d="M34.2,34l-2.5-1.4c0,0,0.1-0.1,0.1-0.1l2.5,1.4C34.2,34,34.2,34,34.2,34L34.2,34z"/>
				<path class="st24" d="M34.3,33.9l-2.5-1.4c0-0.1,0.1-0.1,0.1-0.2l2.5,1.4C34.4,33.8,34.3,33.9,34.3,33.9L34.3,33.9z"/>
				<path class="st23" d="M34.4,33.7l-2.5-1.4c0.1-0.1,0.3-0.3,0.4-0.4l2.5,1.4C34.7,33.5,34.6,33.6,34.4,33.7L34.4,33.7z"/>
			</g>
		</g>
		<g class="st3">
			<defs>
				<path id="SVGID_11_" class="st3" d="M30.2,34.8c0-0.4-0.2-0.7-0.4-0.9l2.5,1.4c0.2,0.1,0.4,0.4,0.4,0.9c0,0.9-0.6,1.9-1.3,2.4
					l-2.5-1.4C29.7,36.7,30.3,35.6,30.2,34.8z"/>
			</defs>
			<clipPath id="SVGID_12_">
				<use xlink:href="#SVGID_11_"  style="overflow:visible;"/>
			</clipPath>
			<g class="st39">
				<path class="st14" d="M31.4,38.6l-2.5-1.4c0.2-0.1,0.3-0.2,0.4-0.4l2.5,1.4C31.8,38.3,31.6,38.5,31.4,38.6L31.4,38.6z"/>
				<path class="st13" d="M31.9,38.2l-2.5-1.4c0.1-0.1,0.1-0.1,0.1-0.2L32,38C32,38.1,31.9,38.1,31.9,38.2L31.9,38.2z"/>
				<path class="st12" d="M32,38l-2.5-1.4c0,0,0.1-0.1,0.1-0.1l2.5,1.4C32.1,38,32.1,38,32,38L32,38z"/>
				<path class="st11" d="M32.2,37.9l-2.5-1.4c0,0,0.1-0.1,0.1-0.1l2.5,1.4C32.2,37.8,32.2,37.9,32.2,37.9L32.2,37.9z"/>
				<path class="st10" d="M32.2,37.8l-2.5-1.4c0,0,0.1-0.1,0.1-0.1l2.5,1.4C32.3,37.7,32.3,37.7,32.2,37.8L32.2,37.8z"/>
				<path class="st9" d="M32.3,37.7l-2.5-1.4c0,0,0-0.1,0.1-0.1l2.5,1.4C32.4,37.6,32.3,37.6,32.3,37.7L32.3,37.7z"/>
				<path class="st8" d="M32.4,37.5l-2.5-1.4c0,0,0-0.1,0.1-0.1l2.5,1.4C32.4,37.5,32.4,37.5,32.4,37.5L32.4,37.5z"/>
				<path class="st7" d="M32.4,37.4L29.9,36c0,0,0-0.1,0.1-0.1l2.5,1.4C32.5,37.4,32.5,37.4,32.4,37.4L32.4,37.4z"/>
				<path class="st6" d="M32.5,37.3L30,35.9c0,0,0-0.1,0.1-0.1l2.5,1.4C32.5,37.2,32.5,37.3,32.5,37.3L32.5,37.3z"/>
				<path class="st5" d="M32.6,37.2L30,35.8c0,0,0-0.1,0-0.1l2.5,1.4C32.6,37.1,32.6,37.2,32.6,37.2L32.6,37.2z"/>
				<path class="st17" d="M32.6,37.1l-2.5-1.4c0,0,0-0.1,0-0.1l2.5,1.4C32.6,37,32.6,37,32.6,37.1L32.6,37.1z"/>
				<path class="st18" d="M32.7,36.9l-2.5-1.4c0,0,0-0.1,0-0.1l2.5,1.4C32.7,36.9,32.7,36.9,32.7,36.9L32.7,36.9z"/>
				<path class="st19" d="M32.7,36.8l-2.5-1.4c0-0.1,0-0.1,0-0.2l2.5,1.4C32.7,36.7,32.7,36.8,32.7,36.8L32.7,36.8z"/>
				<path class="st20" d="M32.7,36.7l-2.5-1.4c0-0.1,0-0.1,0-0.2l2.5,1.4C32.8,36.5,32.7,36.6,32.7,36.7L32.7,36.7z"/>
				<path class="st21" d="M32.8,36.5L30.2,35c0-0.1,0-0.2,0-0.3c0-0.4-0.2-0.7-0.4-0.9l2.5,1.4c0.2,0.1,0.4,0.4,0.4,0.9
					C32.8,36.3,32.8,36.4,32.8,36.5L32.8,36.5z"/>
			</g>
		</g>
		<g class="st3">
			<defs>
				<path id="SVGID_13_" class="st3" d="M29.8,33.9l2.5,1.4c-0.2-0.1-0.6-0.1-1,0.1L28.9,34C29.3,33.8,29.6,33.7,29.8,33.9z"/>
			</defs>
			<clipPath id="SVGID_14_">
				<use xlink:href="#SVGID_13_"  style="overflow:visible;"/>
			</clipPath>
			<g class="st40">
				<path class="st41" d="M31.4,35.4L28.9,34c0.1,0,0.1-0.1,0.2-0.1l2.5,1.4C31.5,35.4,31.5,35.4,31.4,35.4L31.4,35.4z"/>
				<path class="st42" d="M31.6,35.3l-2.5-1.4c0.1,0,0.1,0,0.2-0.1l2.5,1.4C31.7,35.3,31.7,35.3,31.6,35.3L31.6,35.3z"/>
				<path class="st43" d="M31.8,35.3l-2.5-1.4c0,0,0.1,0,0.1,0l2.5,1.4C31.8,35.3,31.8,35.3,31.8,35.3L31.8,35.3z"/>
				<path class="st44" d="M31.9,35.3l-2.5-1.4c0,0,0.1,0,0.1,0l2.5,1.4C31.9,35.2,31.9,35.2,31.9,35.3L31.9,35.3z"/>
				<path class="st45" d="M32,35.2l-2.5-1.4c0,0,0.1,0,0.1,0L32,35.2C32,35.2,32,35.2,32,35.2L32,35.2z"/>
				<path class="st46" d="M32.1,35.2l-2.5-1.4c0,0,0.1,0,0.1,0L32.1,35.2C32.1,35.2,32.1,35.2,32.1,35.2L32.1,35.2z"/>
				<path class="st47" d="M32.1,35.2l-2.5-1.4c0,0,0.1,0,0.1,0L32.1,35.2C32.2,35.3,32.2,35.3,32.1,35.2L32.1,35.2z"/>
				<path class="st48" d="M32.2,35.3l-2.5-1.4c0,0,0,0,0.1,0L32.2,35.3C32.3,35.3,32.2,35.3,32.2,35.3L32.2,35.3z"/>
				<path class="st49" d="M32.3,35.3l-2.5-1.4c0,0,0,0,0.1,0L32.3,35.3C32.3,35.3,32.3,35.3,32.3,35.3L32.3,35.3z"/>
				<polygon class="st50" points="32.4,35.3 29.8,33.9 29.8,33.9 32.4,35.3 32.4,35.3 				"/>
			</g>
		</g>
		<g class="st3">
			<defs>
				<path id="SVGID_15_" class="st3" d="M30.5,38.7L28,37.2c-0.2-0.1-0.4-0.4-0.4-0.9c0-0.9,0.6-1.9,1.3-2.4l2.5,1.4
					c-0.7,0.4-1.3,1.5-1.3,2.4C30.1,38.2,30.2,38.5,30.5,38.7z"/>
			</defs>
			<clipPath id="SVGID_16_">
				<use xlink:href="#SVGID_15_"  style="overflow:visible;"/>
			</clipPath>
			<g class="st51">
				<path class="st52" d="M30.5,38.7L28,37.2c-0.2-0.1-0.4-0.4-0.4-0.9c0-0.1,0-0.2,0-0.3l2.5,1.4c0,0.1,0,0.2,0,0.3
					C30.1,38.2,30.2,38.5,30.5,38.7L30.5,38.7z"/>
				<path class="st53" d="M30.1,37.5l-2.5-1.4c0-0.1,0-0.1,0-0.2l2.5,1.4C30.1,37.4,30.1,37.5,30.1,37.5L30.1,37.5z"/>
				<path class="st54" d="M30.1,37.3l-2.5-1.4c0,0,0-0.1,0-0.2l2.5,1.4C30.1,37.2,30.1,37.3,30.1,37.3L30.1,37.3z"/>
				<path class="st55" d="M30.2,37.2l-2.5-1.4c0,0,0-0.1,0-0.1l2.5,1.4C30.2,37.1,30.2,37.1,30.2,37.2L30.2,37.2z"/>
				<path class="st56" d="M30.2,37l-2.5-1.4c0,0,0-0.1,0-0.1l2.5,1.4C30.2,37,30.2,37,30.2,37L30.2,37z"/>
				<path class="st50" d="M30.2,36.9l-2.5-1.4c0,0,0-0.1,0-0.1l2.5,1.4C30.3,36.8,30.3,36.9,30.2,36.9L30.2,36.9z"/>
				<path class="st49" d="M30.3,36.8l-2.5-1.4c0,0,0-0.1,0.1-0.1l2.5,1.4C30.3,36.7,30.3,36.8,30.3,36.8L30.3,36.8z"/>
				<path class="st48" d="M30.3,36.7l-2.5-1.4c0,0,0-0.1,0.1-0.1l2.5,1.4C30.4,36.6,30.4,36.6,30.3,36.7L30.3,36.7z"/>
				<path class="st47" d="M30.4,36.6l-2.5-1.4c0,0,0-0.1,0.1-0.1l2.5,1.4C30.4,36.5,30.4,36.5,30.4,36.6L30.4,36.6z"/>
				<path class="st46" d="M30.5,36.4L27.9,35c0,0,0-0.1,0.1-0.1l2.5,1.4C30.5,36.4,30.5,36.4,30.5,36.4L30.5,36.4z"/>
				<path class="st45" d="M30.5,36.3L28,34.9c0,0,0-0.1,0.1-0.1l2.5,1.4C30.6,36.2,30.6,36.3,30.5,36.3L30.5,36.3z"/>
				<path class="st44" d="M30.6,36.2l-2.5-1.4c0,0,0.1-0.1,0.1-0.1l2.5,1.4C30.7,36.1,30.6,36.2,30.6,36.2L30.6,36.2z"/>
				<path class="st43" d="M30.7,36.1l-2.5-1.4c0,0,0.1-0.1,0.1-0.1l2.5,1.4C30.8,36,30.7,36,30.7,36.1L30.7,36.1z"/>
				<path class="st42" d="M30.8,35.9l-2.5-1.4c0-0.1,0.1-0.1,0.1-0.2l2.5,1.4C30.9,35.8,30.9,35.9,30.8,35.9L30.8,35.9z"/>
				<path class="st41" d="M31,35.8l-2.5-1.4c0.1-0.1,0.3-0.3,0.5-0.4l2.5,1.4C31.3,35.5,31.1,35.6,31,35.8L31,35.8z"/>
			</g>
		</g>
		<g class="st3">
			<defs>
				<path id="SVGID_17_" class="st3" d="M24.5,39.3c0.3,0.1,0.6,0.1,1-0.1l2.5,1.4c-0.4,0.2-0.7,0.2-1,0.1
					C26.3,40.3,25.2,39.7,24.5,39.3z"/>
			</defs>
			<clipPath id="SVGID_18_">
				<use xlink:href="#SVGID_17_"  style="overflow:visible;"/>
			</clipPath>
			<g class="st57">
				<polygon class="st5" points="27,40.7 24.5,39.3 24.5,39.3 27,40.7 27,40.7 				"/>
				<path class="st6" d="M27,40.7l-2.5-1.4c0,0,0,0,0.1,0L27,40.7C27.1,40.7,27,40.7,27,40.7L27,40.7z"/>
				<path class="st7" d="M27.1,40.7l-2.5-1.4c0,0,0,0,0.1,0L27.1,40.7C27.1,40.7,27.1,40.7,27.1,40.7L27.1,40.7z"/>
				<path class="st8" d="M27.2,40.8l-2.5-1.4c0,0,0.1,0,0.1,0L27.2,40.8C27.2,40.8,27.2,40.8,27.2,40.8L27.2,40.8z"/>
				<path class="st9" d="M27.2,40.8l-2.5-1.4c0,0,0.1,0,0.1,0L27.2,40.8C27.3,40.8,27.3,40.8,27.2,40.8L27.2,40.8z"/>
				<path class="st10" d="M27.3,40.8l-2.5-1.4c0,0,0.1,0,0.1,0L27.3,40.8C27.4,40.8,27.4,40.8,27.3,40.8L27.3,40.8z"/>
				<path class="st11" d="M27.4,40.8l-2.5-1.4c0,0,0.1,0,0.1,0l2.5,1.4C27.5,40.8,27.4,40.8,27.4,40.8L27.4,40.8z"/>
				<path class="st12" d="M27.5,40.8L25,39.3c0,0,0.1,0,0.1,0l2.5,1.4C27.6,40.8,27.6,40.8,27.5,40.8L27.5,40.8z"/>
				<path class="st13" d="M27.6,40.7l-2.5-1.4c0.1,0,0.1,0,0.2-0.1l2.5,1.4C27.7,40.7,27.7,40.7,27.6,40.7L27.6,40.7z"/>
				<path class="st14" d="M27.8,40.7l-2.5-1.4c0.1,0,0.1-0.1,0.2-0.1l2.5,1.4C27.9,40.6,27.9,40.7,27.8,40.7L27.8,40.7z"/>
			</g>
		</g>
		<g class="st3">
			<defs>
				<path id="SVGID_19_" class="st3" d="M26.8,36.8c0-0.4-0.2-0.7-0.4-0.9l2.5,1.4c0.2,0.1,0.4,0.4,0.4,0.9c0,0.9-0.6,1.9-1.3,2.4
					l-2.5-1.4C26.2,38.7,26.8,37.7,26.8,36.8z"/>
			</defs>
			<clipPath id="SVGID_20_">
				<use xlink:href="#SVGID_19_"  style="overflow:visible;"/>
			</clipPath>
			<g class="st58">
				<path class="st14" d="M28,40.6l-2.5-1.4c0.2-0.1,0.3-0.2,0.5-0.4l2.5,1.4C28.3,40.4,28.1,40.5,28,40.6L28,40.6z"/>
				<path class="st13" d="M28.4,40.2l-2.5-1.4c0,0,0.1-0.1,0.1-0.2l2.5,1.4C28.5,40.1,28.5,40.2,28.4,40.2L28.4,40.2z"/>
				<path class="st12" d="M28.6,40.1l-2.5-1.4c0,0,0.1-0.1,0.1-0.1l2.5,1.4C28.7,40,28.6,40,28.6,40.1L28.6,40.1z"/>
				<path class="st11" d="M28.7,39.9l-2.5-1.4c0,0,0.1-0.1,0.1-0.1l2.5,1.4C28.8,39.9,28.7,39.9,28.7,39.9L28.7,39.9z"/>
				<path class="st10" d="M28.8,39.8l-2.5-1.4c0,0,0.1-0.1,0.1-0.1l2.5,1.4C28.8,39.7,28.8,39.8,28.8,39.8L28.8,39.8z"/>
				<path class="st9" d="M28.9,39.7l-2.5-1.4c0,0,0-0.1,0.1-0.1l2.5,1.4C28.9,39.6,28.9,39.7,28.9,39.7L28.9,39.7z"/>
				<path class="st8" d="M28.9,39.6l-2.5-1.4c0,0,0-0.1,0.1-0.1l2.5,1.4C29,39.5,28.9,39.5,28.9,39.6L28.9,39.6z"/>
				<path class="st7" d="M29,39.5L26.5,38c0,0,0-0.1,0.1-0.1l2.5,1.4C29,39.4,29,39.4,29,39.5L29,39.5z"/>
				<path class="st6" d="M29,39.4l-2.5-1.4c0,0,0-0.1,0.1-0.1l2.5,1.4C29.1,39.3,29.1,39.3,29,39.4L29,39.4z"/>
				<path class="st5" d="M29.1,39.2l-2.5-1.4c0,0,0-0.1,0-0.1l2.5,1.4C29.1,39.2,29.1,39.2,29.1,39.2L29.1,39.2z"/>
				<path class="st17" d="M29.1,39.1l-2.5-1.4c0,0,0-0.1,0-0.1l2.5,1.4C29.2,39,29.2,39.1,29.1,39.1L29.1,39.1z"/>
				<path class="st18" d="M29.2,39l-2.5-1.4c0,0,0-0.1,0-0.1l2.5,1.4C29.2,38.9,29.2,38.9,29.2,39L29.2,39z"/>
				<path class="st19" d="M29.2,38.8l-2.5-1.4c0-0.1,0-0.1,0-0.2l2.5,1.4C29.3,38.7,29.2,38.8,29.2,38.8L29.2,38.8z"/>
				<path class="st20" d="M29.3,38.7l-2.5-1.4c0-0.1,0-0.1,0-0.2l2.5,1.4C29.3,38.6,29.3,38.6,29.3,38.7L29.3,38.7z"/>
				<path class="st21" d="M29.3,38.5l-2.5-1.4c0-0.1,0-0.2,0-0.3c0-0.4-0.2-0.7-0.4-0.9l2.5,1.4c0.2,0.1,0.4,0.4,0.4,0.9
					C29.3,38.3,29.3,38.4,29.3,38.5L29.3,38.5z"/>
			</g>
		</g>
		<g class="st3">
			<defs>
				<path id="SVGID_21_" class="st3" d="M26.4,35.9l2.5,1.4c-0.2-0.1-0.6-0.1-1,0.1L25.4,36C25.8,35.8,26.1,35.8,26.4,35.9z"/>
			</defs>
			<clipPath id="SVGID_22_">
				<use xlink:href="#SVGID_21_"  style="overflow:visible;"/>
			</clipPath>
			<g class="st59">
				<path class="st60" d="M27.9,37.5L25.4,36c0.1,0,0.1-0.1,0.2-0.1l2.5,1.4C28.1,37.4,28,37.4,27.9,37.5L27.9,37.5z"/>
				<path class="st61" d="M28.1,37.4l-2.5-1.4c0.1,0,0.1,0,0.2-0.1l2.5,1.4C28.2,37.3,28.2,37.4,28.1,37.4L28.1,37.4z"/>
				<path class="st62" d="M28.3,37.3l-2.5-1.4c0,0,0.1,0,0.1,0l2.5,1.4C28.4,37.3,28.3,37.3,28.3,37.3L28.3,37.3z"/>
				<path class="st63" d="M28.4,37.3l-2.5-1.4c0,0,0.1,0,0.1,0l2.5,1.4C28.5,37.3,28.5,37.3,28.4,37.3L28.4,37.3z"/>
				<path class="st64" d="M28.5,37.3L26,35.8c0,0,0.1,0,0.1,0L28.5,37.3C28.6,37.3,28.5,37.3,28.5,37.3L28.5,37.3z"/>
				<path class="st65" d="M28.6,37.3l-2.5-1.4c0,0,0.1,0,0.1,0L28.6,37.3C28.7,37.3,28.6,37.3,28.6,37.3L28.6,37.3z"/>
				<path class="st66" d="M28.7,37.3l-2.5-1.4c0,0,0.1,0,0.1,0L28.7,37.3C28.7,37.3,28.7,37.3,28.7,37.3L28.7,37.3z"/>
				<path class="st67" d="M28.8,37.3l-2.5-1.4c0,0,0,0,0.1,0L28.8,37.3C28.8,37.3,28.8,37.3,28.8,37.3L28.8,37.3z"/>
				<path class="st68" d="M28.8,37.3l-2.5-1.4c0,0,0,0,0.1,0L28.8,37.3C28.9,37.4,28.9,37.3,28.8,37.3L28.8,37.3z"/>
				<polygon class="st69" points="28.9,37.4 26.4,35.9 26.4,35.9 28.9,37.4 28.9,37.4 				"/>
			</g>
		</g>
		<g class="st3">
			<defs>
				<path id="SVGID_23_" class="st3" d="M27,40.7l-2.5-1.4c-0.2-0.1-0.4-0.4-0.4-0.9c0-0.9,0.6-1.9,1.3-2.4l2.5,1.4
					c-0.7,0.4-1.3,1.5-1.3,2.4C26.6,40.3,26.8,40.6,27,40.7z"/>
			</defs>
			<clipPath id="SVGID_24_">
				<use xlink:href="#SVGID_23_"  style="overflow:visible;"/>
			</clipPath>
			<g class="st70">
				<path class="st71" d="M27,40.7l-2.5-1.4c-0.2-0.1-0.4-0.4-0.4-0.9c0-0.1,0-0.2,0-0.3l2.5,1.4c0,0.1,0,0.2,0,0.3
					C26.6,40.3,26.8,40.6,27,40.7L27,40.7z"/>
				<path class="st72" d="M26.6,39.6l-2.5-1.4c0-0.1,0-0.1,0-0.2l2.5,1.4C26.6,39.4,26.6,39.5,26.6,39.6L26.6,39.6z"/>
				<path class="st73" d="M26.7,39.4l-2.5-1.4c0-0.1,0-0.1,0-0.2l2.5,1.4C26.7,39.3,26.7,39.3,26.7,39.4L26.7,39.4z"/>
				<path class="st74" d="M26.7,39.2l-2.5-1.4c0,0,0-0.1,0-0.1l2.5,1.4C26.7,39.1,26.7,39.2,26.7,39.2L26.7,39.2z"/>
				<path class="st75" d="M26.7,39.1l-2.5-1.4c0,0,0-0.1,0-0.1l2.5,1.4C26.8,39,26.7,39,26.7,39.1L26.7,39.1z"/>
				<path class="st69" d="M26.8,39l-2.5-1.4c0,0,0-0.1,0-0.1l2.5,1.4C26.8,38.9,26.8,38.9,26.8,39L26.8,39z"/>
				<path class="st68" d="M26.8,38.8l-2.5-1.4c0,0,0-0.1,0.1-0.1l2.5,1.4C26.9,38.8,26.8,38.8,26.8,38.8L26.8,38.8z"/>
				<path class="st67" d="M26.9,38.7l-2.5-1.4c0,0,0-0.1,0.1-0.1l2.5,1.4C26.9,38.6,26.9,38.7,26.9,38.7L26.9,38.7z"/>
				<path class="st66" d="M26.9,38.6l-2.5-1.4c0,0,0-0.1,0.1-0.1l2.5,1.4C27,38.5,27,38.6,26.9,38.6L26.9,38.6z"/>
				<path class="st65" d="M27,38.5L24.5,37c0,0,0-0.1,0.1-0.1l2.5,1.4C27,38.4,27,38.4,27,38.5L27,38.5z"/>
				<path class="st64" d="M27.1,38.4l-2.5-1.4c0,0,0.1-0.1,0.1-0.1l2.5,1.4C27.1,38.3,27.1,38.3,27.1,38.4L27.1,38.4z"/>
				<path class="st63" d="M27.2,38.2l-2.5-1.4c0,0,0.1-0.1,0.1-0.1l2.5,1.4C27.2,38.2,27.2,38.2,27.2,38.2L27.2,38.2z"/>
				<path class="st62" d="M27.2,38.1l-2.5-1.4c0,0,0.1-0.1,0.1-0.1l2.5,1.4C27.3,38,27.3,38.1,27.2,38.1L27.2,38.1z"/>
				<path class="st61" d="M27.3,38l-2.5-1.4c0-0.1,0.1-0.1,0.1-0.2l2.5,1.4C27.4,37.9,27.4,37.9,27.3,38L27.3,38z"/>
				<path class="st60" d="M27.5,37.8L25,36.4c0.1-0.1,0.3-0.3,0.5-0.4l2.5,1.4C27.8,37.6,27.6,37.7,27.5,37.8L27.5,37.8z"/>
			</g>
		</g>
		<g>
			<path class="st76" d="M83.9,1.8c1.4-0.8,2.5-0.2,2.5,1.4l0.1,5.6L23.5,46l-0.1-5.6c0-1.6,1.1-3.6,2.5-4.4L83.9,1.8z M34.9,36.5
				c0.7-0.4,1.3-1.5,1.3-2.4c0-0.9-0.6-1.2-1.4-0.8c-0.7,0.4-1.3,1.5-1.3,2.4C33.5,36.6,34.2,37,34.9,36.5L34.9,36.5z M31.4,38.6
				c0.7-0.4,1.3-1.5,1.3-2.4c0-0.9-0.6-1.2-1.4-0.8c-0.7,0.4-1.3,1.5-1.3,2.4C30.1,38.7,30.7,39,31.4,38.6L31.4,38.6z M28,40.6
				c0.7-0.4,1.3-1.5,1.3-2.4c0-0.9-0.6-1.2-1.4-0.8c-0.7,0.4-1.3,1.5-1.3,2.4C26.6,40.7,27.2,41,28,40.6L28,40.6z"/>
		</g>
		<g>
			<path class="st77" d="M34.9,33.4c0.7-0.4,1.4-0.1,1.4,0.8c0,0.9-0.6,1.9-1.3,2.4c-0.7,0.4-1.4,0.1-1.4-0.8
				C33.5,34.9,34.1,33.8,34.9,33.4z"/>
		</g>
		<g>
			<path class="st78" d="M31.4,35.4c0.7-0.4,1.4-0.1,1.4,0.8c0,0.9-0.6,1.9-1.3,2.4c-0.7,0.4-1.4,0.1-1.4-0.8
				C30.1,36.9,30.7,35.9,31.4,35.4z"/>
		</g>
		<g>
			<path class="st79" d="M27.9,37.5c0.7-0.4,1.4-0.1,1.4,0.8c0,0.9-0.6,1.9-1.3,2.4c-0.7,0.4-1.4,0.1-1.4-0.8
				C26.6,39,27.2,37.9,27.9,37.5z"/>
		</g>
		<g>
			<polygon class="st2" points="24,88.4 21.4,87 20.9,38.9 23.4,40.4 			"/>
		</g>
		<g>
			<path class="st80" d="M23.4,40.4l0.1,5.6l63-37.1L87,51.2c0,1.6-1.1,3.6-2.5,4.4l-58,34.2C25.1,90.6,24,90,24,88.4L23.4,40.4z"/>
		</g>
		<path class="st14" d="M84.5,1.5c0.1,0,0.3-0.1,0.4-0.1c0,0,0,0,0,0c0.1,0,0.3,0,0.4,0c0,0,0,0,0,0c0.1,0,0.3,0.1,0.4,0.1
			c0,0,0,0,0,0l-0.4-0.2c0,0-0.1,0-0.1-0.1C85,1.2,84.8,1.1,84.7,1l-1.5-0.9c0,0-0.1,0-0.1-0.1c0,0-0.1,0-0.1,0c0,0-0.1,0-0.1,0
			c0,0,0,0,0,0c0,0,0,0,0,0c0,0-0.1,0-0.2,0c-0.1,0-0.1,0-0.2,0c0,0,0,0-0.1,0c0,0,0,0,0,0c0,0-0.1,0-0.1,0c-0.1,0-0.1,0-0.2,0
			c0,0-0.1,0-0.1,0c0,0-0.1,0-0.1,0c0,0-0.1,0-0.1,0c-0.1,0-0.2,0.1-0.4,0.2l-58,34.2c-0.2,0.1-0.3,0.2-0.5,0.3
			c-0.1,0-0.1,0.1-0.2,0.1c-0.1,0.1-0.1,0.1-0.2,0.2c0,0-0.1,0.1-0.1,0.1c0,0-0.1,0.1-0.1,0.1c0,0-0.1,0.1-0.1,0.1
			c-0.1,0.1-0.1,0.2-0.2,0.3c0,0,0,0.1-0.1,0.1c0,0,0,0,0,0c0,0,0,0.1-0.1,0.1c0,0.1-0.1,0.1-0.1,0.2c0,0.1-0.1,0.1-0.1,0.2
			c0,0,0,0,0,0c0,0,0,0,0,0c0,0.1-0.1,0.1-0.1,0.2c0,0.1-0.1,0.1-0.1,0.2c0,0.1-0.1,0.1-0.1,0.2c0,0,0,0,0,0c0,0,0,0,0,0
			c0,0.1-0.1,0.2-0.1,0.2c0,0.1-0.1,0.2-0.1,0.2c0,0,0,0.1,0,0.1c0,0,0,0,0,0c0,0,0,0.1,0,0.1c0,0.1,0,0.2-0.1,0.3
			c0,0.1,0,0.1,0,0.2c0,0,0,0.1,0,0.1c0,0,0,0.1,0,0.1c0,0.2,0,0.3,0,0.5l0.1,5.6l2.5,1.4l-0.1-5.6c0-0.2,0-0.4,0-0.6
			c0,0,0-0.1,0-0.1c0-0.2,0.1-0.4,0.1-0.6c0,0,0,0,0-0.1c0.1-0.2,0.1-0.4,0.2-0.6c0,0,0,0,0,0c0.1-0.2,0.2-0.4,0.3-0.6c0,0,0,0,0,0
			c0.1-0.2,0.2-0.4,0.3-0.5c0,0,0,0,0-0.1c0.1-0.2,0.2-0.3,0.4-0.4c0,0,0.1-0.1,0.1-0.1c0.1-0.1,0.2-0.2,0.3-0.3
			c0.1,0,0.1-0.1,0.2-0.1c0.2-0.1,0.3-0.2,0.5-0.3l58-34.2C84.1,1.7,84.2,1.6,84.5,1.5C84.4,1.6,84.4,1.6,84.5,1.5z"/>
	</g>
</g>
<g>
	<g>
		<linearGradient id="SVGID_25_" gradientUnits="userSpaceOnUse" x1="69.3135" y1="27.957" x2="89.8916" y2="27.957">
			<stop  offset="0" style="stop-color:#FD7B88"/>
			<stop  offset="1" style="stop-color:#F7366B"/>
		</linearGradient>
		<polygon class="st81" points="72.9,45.6 69.3,43.5 86.3,10.3 89.9,12.4 		"/>
	</g>
	<g>
		<linearGradient id="SVGID_26_" gradientUnits="userSpaceOnUse" x1="59.7451" y1="47.2891" x2="72.9433" y2="47.2891">
			<stop  offset="0" style="stop-color:#FD7B88"/>
			<stop  offset="1" style="stop-color:#F7366B"/>
		</linearGradient>
		<polygon class="st82" points="63.4,51.1 59.7,49 69.3,43.5 72.9,45.6 		"/>
	</g>
	<g>
		<linearGradient id="SVGID_27_" gradientUnits="userSpaceOnUse" x1="53.2505" y1="55.4907" x2="63.374" y2="55.4907">
			<stop  offset="0" style="stop-color:#FD7B88"/>
			<stop  offset="1" style="stop-color:#F7366B"/>
		</linearGradient>
		<polygon class="st83" points="56.9,62 53.3,59.9 59.7,49 63.4,51.1 		"/>
	</g>
	<g>
		<linearGradient id="SVGID_28_" gradientUnits="userSpaceOnUse" x1="42.644" y1="64.1641" x2="56.8799" y2="64.1641">
			<stop  offset="0" style="stop-color:#FD7B88"/>
			<stop  offset="1" style="stop-color:#F7366B"/>
		</linearGradient>
		<polygon class="st84" points="46.3,68.5 42.6,66.3 53.3,59.9 56.9,62 		"/>
	</g>
	<g>
		<linearGradient id="SVGID_29_" gradientUnits="userSpaceOnUse" x1="33.3926" y1="73.9546" x2="46.2734" y2="73.9546">
			<stop  offset="0" style="stop-color:#FD7B88"/>
			<stop  offset="1" style="stop-color:#F7366B"/>
		</linearGradient>
		<polygon class="st85" points="37,81.6 33.4,79.5 42.6,66.3 46.3,68.5 		"/>
	</g>
	<g>
		<linearGradient id="SVGID_30_" gradientUnits="userSpaceOnUse" x1="33.3926" y1="84.0562" x2="37.0425" y2="84.0562">
			<stop  offset="0" style="stop-color:#FD7B88"/>
			<stop  offset="1" style="stop-color:#F7366B"/>
		</linearGradient>
		<polygon class="st86" points="37,88.7 33.4,86.5 33.4,79.5 37,81.6 		"/>
	</g>
	<g>
		<linearGradient id="SVGID_31_" gradientUnits="userSpaceOnUse" x1="37.0229" y1="50.5493" x2="90.021" y2="50.5493">
			<stop  offset="0" style="stop-color:#FD7B88"/>
			<stop  offset="1" style="stop-color:#F7366B"/>
		</linearGradient>
		<polygon class="st87" points="89.9,12.4 90,58.1 37,88.7 37,81.6 46.3,68.5 56.9,62 63.4,51.1 72.9,45.6 		"/>
	</g>
</g>
<g>
	<g>
		<polygon class="st88" points="17.1,18.1 16.2,16.6 17.1,15 18.9,15 19.9,16.6 18.9,18.1 		"/>
		<polygon class="st89" points="17.1,20.6 16.2,19 17.1,17.4 18.9,17.4 19.9,19 18.9,20.6 		"/>
		<polygon class="st90" points="17.1,23.1 16.2,21.5 17.1,19.9 18.9,19.9 19.9,21.5 18.9,23.1 		"/>
		<polygon class="st91" points="17.1,25.5 16.2,24 17.1,22.4 18.9,22.4 19.9,24 18.9,25.5 		"/>
		<polygon class="st92" points="17.1,28 16.2,26.4 17.1,24.8 18.9,24.8 19.9,26.4 18.9,28 		"/>
		<polygon class="st93" points="17.1,30.5 16.2,28.9 17.1,27.3 18.9,27.3 19.9,28.9 18.9,30.5 		"/>
		<polygon class="st94" points="17.1,32.9 16.2,31.4 17.1,29.8 18.9,29.8 19.9,31.4 18.9,32.9 		"/>
	</g>
	<polygon class="st95" points="17.1,18.1 16.2,16.6 17.1,15 18.9,15 19.9,16.6 18.9,18.1 	"/>
</g>
<g>
	<g>
		<polygon class="st88" points="12.5,45 11.6,43.4 12.5,41.8 14.3,41.8 15.2,43.4 14.3,45 		"/>
		<polygon class="st89" points="12.5,47.4 11.6,45.9 12.5,44.3 14.3,44.3 15.2,45.9 14.3,47.4 		"/>
		<polygon class="st90" points="12.5,49.9 11.6,48.3 12.5,46.7 14.3,46.7 15.2,48.3 14.3,49.9 		"/>
		<polygon class="st91" points="12.5,52.4 11.6,50.8 12.5,49.2 14.3,49.2 15.2,50.8 14.3,52.4 		"/>
		<polygon class="st92" points="12.5,54.8 11.6,53.3 12.5,51.7 14.3,51.7 15.2,53.3 14.3,54.8 		"/>
		<polygon class="st93" points="12.5,57.3 11.6,55.7 12.5,54.1 14.3,54.1 15.2,55.7 14.3,57.3 		"/>
		<polygon class="st94" points="12.5,59.8 11.6,58.2 12.5,56.6 14.3,56.6 15.2,58.2 14.3,59.8 		"/>
	</g>
	<polygon class="st95" points="12.5,45 11.6,43.4 12.5,41.8 14.3,41.8 15.2,43.4 14.3,45 	"/>
</g>
<g>
	<path class="st96" d="M75.4,65c0.1,0,0.2-0.1,0.3-0.1c0.3-0.1,0.6-0.3,1-0.4c0.4-0.1,0.9-0.3,1.3-0.4c0.1,0,0.1,0,0.2-0.1
		c0.4-0.1,0.9-0.3,1.4-0.4c0,0,0.1,0,0.1,0c0.5-0.1,1-0.3,1.5-0.4c0.1,0,0.2-0.1,0.3-0.1c0.5-0.1,0.9-0.3,1.4-0.4
		c0.1,0,0.2,0,0.2-0.1c0.5-0.1,1-0.3,1.5-0.4c0.1,0,0.2-0.1,0.3-0.1c0.4-0.1,0.9-0.2,1.3-0.4c0.1,0,0.2-0.1,0.3-0.1
		c0.4-0.1,0.8-0.2,1.2-0.3c0.2,0,0.4-0.1,0.5-0.1c0.3-0.1,0.6-0.2,0.8-0.2c2.4-0.6,4.2-1.1,4.6-1.2c0,0,0.1,0,0.1,0l-2.9-1.7
		c-0.1,0-0.8,0.2-1.9,0.5c0,0-0.1,0-0.1,0c-0.2,0-0.4,0.1-0.5,0.1c-0.1,0-0.3,0.1-0.4,0.1c-0.1,0-0.1,0-0.2,0
		c-0.4,0.1-0.8,0.2-1.2,0.3c-0.1,0-0.2,0-0.3,0.1c-0.3,0.1-0.7,0.2-1,0.3c-0.1,0-0.2,0.1-0.4,0.1c-0.5,0.1-0.9,0.3-1.4,0.4
		c-0.1,0-0.1,0-0.2,0.1c-0.5,0.1-1,0.3-1.5,0.4c0,0-0.1,0-0.1,0c-0.5,0.2-1.1,0.3-1.6,0.5c0,0-0.1,0-0.1,0c-0.5,0.1-1,0.3-1.5,0.4
		c-0.1,0-0.1,0-0.2,0c-0.5,0.2-1.1,0.3-1.6,0.5c0,0,0,0-0.1,0c-0.5,0.2-1,0.3-1.4,0.4c0,0-0.1,0-0.1,0c-0.5,0.2-0.9,0.3-1.4,0.4
		c-0.3,0.1-0.5,0.2-0.7,0.3c-0.1,0-0.1,0.1-0.2,0.1c-0.1,0-0.1,0-0.2,0.1c-0.1,0-0.1,0-0.2,0.1c-0.2,0.1-0.4,0.2-0.6,0.3
		c-0.1,0-0.1,0.1-0.2,0.1c-0.2,0.1-0.5,0.2-0.7,0.4c-0.7,0.4-1.3,0.8-1.7,1.2c-0.5,0.4-0.8,0.7-1.2,0.9c-0.1,0.1-0.2,0.1-0.3,0.2
		c-0.1,0-0.1,0-0.2,0.1c0,0-0.1,0-0.1,0c-0.1,0-0.2,0-0.3,0c0,0,0,0-0.1,0c-0.1,0-0.2,0-0.2,0c0,0,0,0-0.1,0c-0.1,0-0.2,0-0.3,0
		c0,0-0.1,0-0.2,0c-0.1,0-0.1,0-0.2-0.1c-0.1,0-0.3-0.1-0.4-0.1c0,0-0.1,0-0.1,0c-0.2-0.1-0.3-0.1-0.5-0.2c-0.2-0.1-0.4-0.2-0.6-0.3
		c0,0,0,0,0,0c-0.2-0.1-0.5-0.2-0.7-0.3c0,0,0,0,0,0c-0.2-0.1-0.4-0.1-0.6-0.1c0,0,0,0-0.1,0l0,0c-0.2,0-0.4-0.1-0.5-0.1
		c0,0,0,0-0.1,0c-0.1,0-0.1,0-0.1,0c-0.1,0-0.2,0-0.3,0c0,0-0.1,0-0.1,0c-0.1,0-0.1,0-0.2,0c-0.1,0-0.1,0-0.1,0
		c-0.1,0-0.2,0-0.3,0.1c0,0-0.1,0-0.1,0c0,0,0,0-0.1,0c-0.1,0-0.3,0.1-0.4,0.1c0,0-0.1,0-0.1,0c0,0,0,0,0,0
		c-0.2,0.1-0.4,0.2-0.6,0.3c-0.2,0.1-0.4,0.3-0.6,0.4c-0.1,0-0.1,0.1-0.2,0.2c-0.1,0.1-0.3,0.2-0.4,0.4c0,0-0.1,0.1-0.1,0.1
		c0,0-0.1,0.1-0.1,0.1c-0.1,0.1-0.1,0.2-0.2,0.2c0,0-0.1,0.1-0.1,0.1c-0.1,0.1-0.1,0.2-0.2,0.2c0,0.1-0.1,0.1-0.1,0.2
		c0,0,0,0.1-0.1,0.1c-0.1,0.2-0.2,0.3-0.4,0.5c0,0,0,0,0,0c0,0,0,0.1-0.1,0.1c-0.1,0.1-0.2,0.3-0.3,0.4c0,0-0.1,0.1-0.1,0.1
		C57,69,57,69.1,56.9,69.1c-0.1,0.1-0.1,0.2-0.2,0.2c0,0.1-0.1,0.2-0.1,0.3c-0.1,0.1-0.1,0.2-0.2,0.3c0,0.1-0.1,0.1-0.1,0.2
		c-0.1,0.2-0.2,0.4-0.3,0.6c-0.1,0.3-0.3,0.6-0.4,0.8c0,0-0.1,0.1-0.1,0.2c-0.1,0.3-0.3,0.5-0.4,0.7c0,0.1-0.1,0.1-0.1,0.2
		c-0.1,0.2-0.3,0.4-0.4,0.6c0,0-0.1,0.1-0.1,0.1c-0.2,0.2-0.3,0.4-0.5,0.6c-0.1,0.1-0.2,0.2-0.3,0.3c-0.1,0.1-0.2,0.2-0.3,0.3
		c-0.3,0.3-0.5,0.5-0.8,0.7c-0.1,0.1-0.1,0.1-0.2,0.1c-0.3,0.2-0.6,0.4-0.8,0.6c-0.3,0.2-0.6,0.3-0.8,0.4c-0.1,0-0.2,0.1-0.2,0.1
		c-0.2,0.1-0.4,0.2-0.6,0.2c-0.1,0-0.2,0-0.2,0.1c-0.2,0.1-0.4,0.1-0.7,0.1c0,0-0.1,0-0.1,0c-0.3,0-0.5,0.1-0.8,0.1
		c-0.1,0-0.1,0-0.2,0c-0.2,0-0.4,0-0.6,0c-0.1,0-0.2,0-0.2,0c-0.2,0-0.5,0-0.7-0.1c0,0-0.1,0-0.1,0c0,0,0,0,0,0c0,0-0.1,0-0.1,0
		c0,0-0.1,0-0.1,0c0,0,0,0,0,0c0,0,0,0,0,0c0,0-0.1,0-0.1,0c0,0-0.1,0-0.1,0c0,0,0,0,0,0c0,0,0,0,0,0c-0.1,0-0.2,0-0.2,0.1
		c0,0,0,0,0,0c-0.1,0-0.2,0.1-0.3,0.2c-0.2,0.1-0.3,0.2-0.5,0.4c0,0,0,0-0.1,0.1c-0.2,0.1-0.3,0.3-0.5,0.4c0,0,0,0,0,0c0,0,0,0,0,0
		c-0.2,0.2-0.3,0.4-0.5,0.5c0,0,0,0,0,0c0,0,0,0,0,0.1c-0.2,0.2-0.3,0.4-0.5,0.6c0,0,0,0,0,0c0,0,0,0,0,0.1
		c-0.2,0.2-0.4,0.5-0.6,0.8c0,0,0,0,0,0c0,0,0,0,0,0c-0.2,0.3-0.5,0.7-0.7,1c0,0,0,0,0,0c0,0,0,0,0,0c-0.3,0.5-0.6,0.9-0.9,1.4
		c0,0,0,0,0,0c0,0,0,0,0,0c-0.2,0.3-0.4,0.6-0.5,0.9c0,0,0,0.1-0.1,0.1c-0.2,0.3-0.3,0.6-0.5,0.9c0,0,0,0,0,0c0,0,0,0,0,0.1
		c-0.1,0.2-0.2,0.4-0.3,0.6c0,0,0,0,0,0.1c-0.1,0.2-0.2,0.4-0.3,0.6c0,0,0,0.1-0.1,0.1c-0.1,0.2-0.2,0.4-0.3,0.5c0,0,0,0.1-0.1,0.1
		c-0.1,0.2-0.2,0.3-0.2,0.4c0,0,0,0,0,0c0,0,0,0,0,0c-0.1,0.2-0.2,0.4-0.3,0.5c0,0,0,0,0,0.1c-0.1,0.2-0.1,0.3-0.2,0.4c0,0,0,0,0,0
		c-0.1,0.2-0.2,0.4-0.2,0.5l2.9,1.7c0,0,0-0.1,0-0.1c0,0,0-0.1,0.1-0.2c0,0,0-0.1,0.1-0.1c0,0,0-0.1,0.1-0.1c0-0.1,0.1-0.2,0.2-0.3
		c0,0,0-0.1,0.1-0.1c0.1-0.1,0.1-0.3,0.2-0.5c0,0,0-0.1,0.1-0.1c0.1-0.1,0.1-0.3,0.2-0.4c0,0,0-0.1,0.1-0.1c0.1-0.2,0.2-0.4,0.3-0.5
		c0,0,0-0.1,0.1-0.1c0.1-0.2,0.2-0.4,0.3-0.5c0,0,0-0.1,0-0.1c0.1-0.2,0.2-0.4,0.3-0.6c0,0,0-0.1,0.1-0.1c0.2-0.3,0.3-0.6,0.5-0.9
		c0,0,0-0.1,0.1-0.1c0.2-0.3,0.3-0.6,0.5-0.9c0,0,0,0,0-0.1c0.3-0.5,0.6-0.9,0.9-1.4c0,0,0-0.1,0.1-0.1c0.2-0.3,0.4-0.7,0.7-1
		c0,0,0,0,0-0.1c0.2-0.3,0.4-0.5,0.6-0.8c0,0,0-0.1,0.1-0.1c0.2-0.2,0.3-0.4,0.5-0.6c0,0,0.1-0.1,0.1-0.1c0.2-0.2,0.3-0.4,0.5-0.5
		c0,0,0.1-0.1,0.1-0.1c0.2-0.2,0.3-0.3,0.5-0.4c0,0,0,0,0.1-0.1c0.2-0.1,0.3-0.3,0.5-0.3c0.1-0.1,0.2-0.1,0.3-0.2
		c0.1,0,0.2-0.1,0.3-0.1c0,0,0,0,0,0c0.1,0,0.2,0,0.3,0c0,0,0,0,0,0c0.1,0,0.2,0,0.3,0c0,0,0,0,0.1,0c0,0,0.1,0,0.1,0
		c0.2,0,0.5,0.1,0.7,0.1c0,0,0.1,0,0.1,0c0,0,0.1,0,0.1,0c0.2,0,0.4,0,0.6,0c0,0,0.1,0,0.1,0c0,0,0,0,0,0c0.3,0,0.5,0,0.8-0.1
		c0,0,0,0,0,0c0,0,0.1,0,0.1,0c0.2,0,0.4-0.1,0.7-0.1c0,0,0.1,0,0.1,0c0,0,0.1,0,0.1,0c0.2-0.1,0.4-0.1,0.6-0.2c0,0,0.1,0,0.1,0
		c0,0,0.1,0,0.1,0c0.3-0.1,0.6-0.3,0.8-0.4c0.3-0.2,0.6-0.3,0.8-0.6c0.1,0,0.1-0.1,0.2-0.1c0.3-0.2,0.5-0.4,0.8-0.7c0,0,0,0,0,0
		c0.1-0.1,0.2-0.2,0.3-0.3c0.1-0.1,0.2-0.2,0.3-0.3c0,0,0,0,0,0c0.1-0.2,0.3-0.3,0.4-0.5c0,0,0,0,0-0.1c0,0,0.1-0.1,0.1-0.1
		c0.1-0.1,0.2-0.2,0.3-0.3c0.1-0.1,0.1-0.2,0.2-0.2c0-0.1,0.1-0.1,0.1-0.2c0,0,0.1-0.1,0.1-0.1c0.1-0.2,0.2-0.4,0.3-0.5
		c0,0,0,0,0-0.1c0-0.1,0.1-0.1,0.1-0.2c0.1-0.1,0.1-0.2,0.2-0.4c0.1-0.2,0.2-0.3,0.2-0.5c0.1-0.3,0.3-0.5,0.4-0.8
		c0.1-0.1,0.1-0.2,0.2-0.3c0.1-0.2,0.2-0.4,0.3-0.5c0-0.1,0.1-0.1,0.1-0.2c0.1-0.2,0.3-0.4,0.4-0.6c0,0,0-0.1,0.1-0.1
		c0.1-0.2,0.3-0.4,0.4-0.6c0-0.1,0.1-0.1,0.1-0.2c0.1-0.1,0.2-0.2,0.3-0.4c0.1-0.1,0.1-0.2,0.2-0.2c0.1-0.1,0.2-0.2,0.2-0.2
		c0.1-0.1,0.3-0.3,0.4-0.4c0.1,0,0.1-0.1,0.2-0.1c0.2-0.1,0.4-0.3,0.6-0.4c0.2-0.1,0.4-0.2,0.6-0.3c0,0,0.1,0,0.1,0
		c0.2-0.1,0.3-0.1,0.5-0.2c0,0,0.1,0,0.1,0c0.1,0,0.3-0.1,0.4-0.1c0.1,0,0.1,0,0.2,0c0.1,0,0.3,0,0.4,0c0,0,0.1,0,0.1,0
		c0.4,0,0.8,0.1,1.2,0.2c0.2,0.1,0.5,0.2,0.7,0.3c0.2,0.1,0.4,0.2,0.6,0.3c0.2,0.1,0.3,0.2,0.5,0.2c0,0,0,0,0,0c0,0,0.1,0,0.1,0
		c0.1,0.1,0.3,0.1,0.4,0.1c0,0,0,0,0,0c0.1,0,0.1,0,0.2,0c0,0,0.1,0,0.1,0c0,0,0,0,0,0c0.1,0,0.2,0,0.3,0c0,0,0,0,0,0c0,0,0,0,0,0
		c0.1,0,0.1,0,0.2,0c0,0,0.1,0,0.1,0c0,0,0,0,0.1,0c0,0,0,0,0,0c0.1,0,0.1,0,0.2,0c0,0,0,0,0,0c0,0,0,0,0,0c0.1,0,0.1,0,0.2-0.1
		c0,0,0,0,0,0c0.1,0,0.2-0.1,0.3-0.2c0.4-0.2,0.8-0.5,1.2-0.9c0.5-0.4,1-0.8,1.7-1.2c0.2-0.1,0.5-0.2,0.7-0.4c0.1,0,0.1-0.1,0.2-0.1
		C75,65.2,75.2,65.1,75.4,65z"/>
	<g>
		<path class="st97" d="M62.9,67.4c1.6-0.9,3.2-0.8,5.1,0.2c1.4,0.7,2.1,0.7,2.9,0.2c0.4-0.2,0.8-0.5,1.2-0.9c0.5-0.4,1-0.8,1.7-1.2
			c0.7-0.4,1.6-0.9,2.8-1.2c5.8-1.9,16.6-4.7,17.2-4.9l-53.6,31c0.2-0.5,4.4-9.9,7.7-11.8c0.4-0.2,0.8-0.3,1.2-0.3
			c1.7,0.3,3.6,0.1,5.4-0.9c1.6-0.9,3.2-2.6,4.5-5.2C60.2,69.9,61.5,68.3,62.9,67.4z"/>
	</g>
</g>
<g>
	<g>
		<g class="st3">
			<g>
				<polygon class="st97" points="68.6,36.5 64,33.8 76.9,11.8 81.6,14.5 				"/>
			</g>
			<g>
				<polygon class="st97" points="61.4,32.9 56.7,30.2 64,33.8 68.6,36.5 				"/>
			</g>
			<g>
				<polygon class="st97" points="53.2,45.9 48.6,43.2 56.7,30.2 61.4,32.9 				"/>
			</g>
			<g>
				<polygon class="st97" points="48.1,45.3 43.4,42.6 48.6,43.2 53.2,45.9 				"/>
			</g>
			<g>
				<polygon class="st97" points="36,61.3 31.3,58.6 43.4,42.6 48.1,45.3 				"/>
			</g>
			<g>
				<polygon class="st97" points="35.9,61.6 31.3,58.9 23.1,54.1 27.8,56.8 				"/>
			</g>
			<g>
				<polygon class="st97" points="19.5,71.5 14.9,68.8 23.1,53.7 27.8,56.4 				"/>
			</g>
			<g>
				<polygon class="st97" points="81.6,14.5 81.7,14.6 68.6,36.8 61.3,33.2 53.2,46.2 48.1,45.6 35.9,61.6 27.8,56.8 19.7,71.6 
					19.5,71.5 27.8,56.4 36,61.3 48.1,45.3 53.2,45.9 61.4,32.9 68.6,36.5 				"/>
			</g>
		</g>
	</g>
	<polygon class="st97" points="69.6,16.2 81.7,8.3 81.7,22.3 	"/>
</g>
<g class="st98">
	<path class="st99" d="M110,71.8c8.1,4.7,8.2,12.3,0.1,17c-8.1,4.7-21.2,4.7-29.3,0c-8.1-4.7-8.2-12.3-0.1-17
		C88.7,67.1,101.8,67.1,110,71.8z"/>
	<g class="st100">
		<path class="st101" d="M110,63.5c8.1,4.7,8.2,12.3,0.1,17c-8.1,4.7-21.2,4.7-29.3,0c-8.1-4.7-8.2-12.3-0.1-17
			C88.7,58.9,101.8,58.9,110,63.5z"/>
	</g>
	<g class="st102">
		<path class="st103" d="M110,55.3c8.1,4.7,8.2,12.3,0.1,17c-8.1,4.7-21.2,4.7-29.3,0c-8.1-4.7-8.2-12.3-0.1-17
			C88.7,50.6,101.8,50.6,110,55.3z"/>
	</g>
	<g class="st104">
		<path class="st105" d="M110,47c8.1,4.7,8.2,12.3,0.1,17c-8.1,4.7-21.2,4.7-29.3,0c-8.1-4.7-8.2-12.3-0.1-17
			C88.7,42.3,101.8,42.3,110,47z"/>
	</g>
	<g class="st106">
		<path class="st107" d="M110,38.7c8.1,4.7,8.2,12.3,0.1,17c-8.1,4.7-21.2,4.7-29.3,0c-8.1-4.7-8.2-12.3-0.1-17
			C88.7,34,101.8,34,110,38.7z"/>
	</g>
	<g class="st108">
		<path class="st109" d="M110,30.5c8.1,4.7,8.2,12.3,0.1,17c-8.1,4.7-21.2,4.7-29.3,0c-8.1-4.7-8.2-12.3-0.1-17
			C88.7,25.8,101.8,25.8,110,30.5z"/>
	</g>
	<g class="st110">
		<path class="st111" d="M110,22.2c8.1,4.7,8.2,12.3,0.1,17c-8.1,4.7-21.2,4.7-29.3,0c-8.1-4.7-8.2-12.3-0.1-17
			C88.7,17.5,101.8,17.5,110,22.2z"/>
	</g>
</g>
<g>
	<path class="st112" d="M91.5,47.4c0,0-1.1,11.3-0.7,13.7c0.4,2.4,1.3,15,1.3,15s0.2,0.4,0.9,0.4c1.3,0.1,1.4-0.3,1.4-0.3
		s2.3-10.3,0.9-13.9l1.5-12v-1.7C96.9,48.6,92.9,48.1,91.5,47.4z"/>
	<path class="st113" d="M91.7,76.2c0,0,0.2-0.5,0.1-1.1c0,0,1.7,0.7,2.8,0.1c0,0-0.1,0.8,0.1,1.3C94.9,77,92,76.9,91.7,76.2z"/>
	<g>
		<path class="st114" d="M94.5,76c0,0,1,1.6-0.1,2.1c-1.1,0.5-1.1-0.3-3.2,1.5c-2.1,1.8-4,1.1-4.3,0.7c-0.7-0.9,0.4-1.9,5.1-4.3
			L94.5,76z"/>
		<path class="st115" d="M94.3,78.2c-1.1,0.6-1.1-0.3-3.2,1.5c-2.1,1.8-4,1-4.3,0.7c0,0-0.1-0.1-0.1-0.2c1.9,0.7,3-0.3,3.8-1
			c0.9-0.7,1.6-1,2.9-1.3c1.3-0.3,0.8-1.4,0.8-1.4c0-0.2,0-1.3,0.2-1.3C94.6,76.4,95.5,77.5,94.3,78.2z"/>
	</g>
	<path class="st116" d="M90.6,44.9c0,0-1,10-0.4,15.7c0.6,5.7,1.2,12.1,1,15.4c0,1.1,4,2.3,4.3,0c0.3-2.7,1.5-10.3-0.1-13.7
		l2.7-14.7C98.1,47.5,93.3,46.8,90.6,44.9z"/>
	<path class="st112" d="M97.3,48.3c0,0-1.1,11.9-0.7,14.5c0.4,2.6,1.4,16,1.4,16h2.2c0,0,2.3-11.6,0.9-14.8l1.5-12.7v-1.8
		C102.5,49.5,98.7,49,97.3,48.3z"/>
	<path class="st113" d="M97.6,78.5c0,0,0.2-0.5,0.1-1.1c0,0,1.7,0.7,2.8,0.1c0,0-0.1,0.8,0.1,1.3C100.8,79.3,97.9,79.2,97.6,78.5z"
		/>
	<g>
		<path class="st114" d="M100.4,78.3c0,0,1,1.6-0.1,2.2C99.1,81,99.1,80.2,97,82c-2.1,1.8-4,1.1-4.3,0.7c-0.7-0.9,0.4-2.4,5.1-4.9
			L100.4,78.3z"/>
		<path class="st115" d="M100.2,80.5c-1.1,0.6-1.1-0.3-3.2,1.5c-2.1,1.8-4,1-4.3,0.7c0,0-0.1-0.1-0.1-0.2c2,0.7,3-0.3,3.9-1
			c0.9-0.7,1.6-1,3-1.3c1.3-0.3,0.9-1.4,0.9-1.4c0-0.2,0-1.3,0.2-1.3C100.5,78.7,101.4,79.8,100.2,80.5z"/>
	</g>
	<path class="st117" d="M103,46.4c0,0,1.9,2.9,0.5,9.7c-1.4,6.8-1.9,8.8-1.9,8.8s0.3,0.9,0,6.3c-0.3,5.1-0.3,4.8-0.4,7.3
		c0,1-4,1.4-4.2-0.6C96.7,73.4,96.3,62,96.3,62l-1-10.9l-4.8-6.3C90.6,44.9,100.5,48.2,103,46.4z"/>
	<g>
		<path class="st112" d="M80.4,35.5c0,0-0.5-0.4-1.6-0.6c-1.1-0.2-1.4,0-2.1,0.2c-0.7,0.2-1.2,0.4-1.1,0.7c0.1,0.3,1.5,1,2.4,0.9
			c0.6-0.1,1.9,0.8,2.2,0.8C80.6,37.5,80.7,35.7,80.4,35.5z"/>
		<path class="st118" d="M80.3,37.5c-0.3,0-1.6-0.9-2.2-0.8c-0.7,0.1-1.6-0.2-2.1-0.5c0,0,0,0,0,0c0.2-0.2,0.6,0,0.9,0
			c0.3,0,1.2,0.1,1.8,0c0.6,0,1.6,0.7,1.6,0.7l0.1,0.1C80.5,37.2,80.4,37.5,80.3,37.5z"/>
		<path class="st119" d="M94.9,27.1c0,0-1.6-2.5-3.6-0.1c-1.3,1.6-3.8,8-4.6,8.5c-0.4,0.2-6.5-0.5-6.5-0.5s0.8,1-0.5,2.6
			c0,0,7.7,3.3,9.2,1.7C91.3,36.8,95.7,30,94.9,27.1z"/>
	</g>
	<g>
		<linearGradient id="SVGID_32_" gradientUnits="userSpaceOnUse" x1="97.1919" y1="25.3394" x2="96.1561" y2="48.3572">
			<stop  offset="0" style="stop-color:#FA5FC8"/>
			<stop  offset="1" style="stop-color:#B161CB"/>
		</linearGradient>
		<path class="st120" d="M102.5,28.4c-0.8-0.7-9.2-3.1-10.2-2.3c-0.6,0.5-0.8,0.5-1.9,3.7c-0.5,1.5-0.4,3.3,0.3,4.9
			c1.5,3.2,1.2,4.8,1.1,5.6c-0.1,1.3-1.4,3.4-1.2,4.5c0.3,1.6,10.4,4.8,12.5,1.6c0,0,0.5-0.2-0.6-3.7
			C100.2,35.3,105.4,31,102.5,28.4z"/>
		<linearGradient id="SVGID_33_" gradientUnits="userSpaceOnUse" x1="104.1577" y1="21.7464" x2="102.9498" y2="48.59">
			<stop  offset="0" style="stop-color:#FA5FC8"/>
			<stop  offset="1" style="stop-color:#B161CB"/>
		</linearGradient>
		<path class="st121" d="M103,46.4C103,46.4,103,46.4,103,46.4C103,46.4,103,46.4,103,46.4z"/>
	</g>
	<g>
		<path class="st122" d="M95.2,24.6c0,0,0.5,2.1,0,3.2c-0.5,1.1,1.2,1.5,2,1.2c0.8-0.3,2.1-0.8,1.9-1.5c-0.2-0.7-0.9-3-0.4-3.9
			C99.1,22.8,95.2,24.6,95.2,24.6z"/>
		<path class="st112" d="M99.2,18.2c0,0,2.4,2.4,1.8,4.9c-0.4,1.4-2,2.3-2.9,3c-0.9,0.7-2.7,2.3-4.2,1.2c-1.5-1.2-1.8-6.7,0-9.1
			C95.8,15.9,99.2,18.2,99.2,18.2z"/>
		<path class="st123" d="M94,19.2c0,0-0.2,1.6,3.4,2.1c0.9,0.1,0.7,2.9,1.4,2.2c0.3-0.3,1-0.8,1-0.4c0.4,1.9-2.3,2.7-2.1,4
			c0.5,3.2,5.4,3.4,4.4-6.8c-0.3-2.6-2.1-4.8-5.8-4.2c-3.7,0.7-3.5,4.3-3.5,4.3S93.3,19.2,94,19.2z"/>
	</g>
	<g>
		<path class="st112" d="M95.4,43.1c0,0-0.6-0.1-1.7,0.3c-1.1,0.4-1.2,0.8-1.7,1.3c-0.5,0.5-0.8,0.9-0.5,1.2
			c0.3,0.2,1.8,0.1,2.5-0.5c0.4-0.4,2-0.3,2.3-0.4C96.6,44.8,95.8,43.1,95.4,43.1z"/>
		<path class="st118" d="M96.3,44.9C96,45,94.5,45,94,45.3c-0.5,0.4-1.5,0.6-2.1,0.6c0,0,0,0,0,0c0-0.2,0.5-0.3,0.8-0.5
			c0.2-0.2,1.1-0.6,1.6-0.9c0.5-0.4,1.8-0.2,1.8-0.2l0.1,0C96.4,44.6,96.4,44.8,96.3,44.9z"/>
		<path class="st124" d="M102.7,28.6c0,0-1.9-0.9-2.4,1.1c-0.5,2,0.9,9.4,0.5,10.2c-0.2,0.4-5.8,2.9-5.8,2.9s1.2,0.4,0.9,2.5
			c0,0,8.3-1.2,8.8-3.2C105.5,38.6,104.9,30.7,102.7,28.6z"/>
	</g>
</g>
</svg>
