<?xml version="1.0" encoding="utf-8"?>
<!-- Generator: Adobe Illustrator 22.1.0, SVG Export Plug-In . SVG Version: 6.00 Build 0)  -->
<svg version="1.1" id="Layer_1" xmlns="http://www.w3.org/2000/svg" xmlns:xlink="http://www.w3.org/1999/xlink" x="0px" y="0px"
	 viewBox="0 0 90.6 97" style="enable-background:new 0 0 90.6 97;" xml:space="preserve">
<style type="text/css">
	.st0{opacity:0.1;}
	.st1{fill:#0586C8;}
	.st2{fill:#5395F4;}
	.st3{fill:#D95284;}
	.st4{fill:#F27E63;}
	.st5{fill:#24B8D1;}
	.st6{fill:#0BE1F7;}
	.st7{fill:#0A34BC;}
	.st8{fill:#1F64FF;}
	.st9{enable-background:new    ;}
	.st10{fill:#5BB0FF;}
	.st11{fill:#3D93FF;}
	.st12{fill:#0E007A;}
	.st13{fill:#160F96;}
	.st14{fill:#FFAA83;}
	.st15{fill:#F29C79;}
	.st16{fill:#1D71BC;}
	.st17{fill:url(#SVGID_1_);}
	.st18{fill:#F79F7C;}
	.st19{fill:#723E24;}
	.st20{opacity:0.4;}
	.st21{fill:#09B4C6;}
	.st22{opacity:0.5;}
</style>
<path class="st0" d="M88.8,75.7c-1.3-2-3.4-3.9-6.2-5.6c-6-3.5-14.1-5-21.9-4.5c0-2.1-0.6-4.3-2-6.3c-1.5-2.3-3.8-4.4-7-6.2
	c-7.3-4.2-17.3-5.8-26.7-4.9c-5.9,0.6-11.6,2.2-16.2,4.9c-5.3,3.1-8.2,7-8.7,11c-0.7,5,2.3,10,8.9,13.8c7.5,4.3,17.8,5.9,27.4,4.8
	c0.6,3.5,3.2,7,7.9,9.7c8.9,5.2,22.5,6,32.9,2.5c2-0.7,3.9-1.5,5.6-2.5C90.5,87.9,92.5,81.3,88.8,75.7z"/>
<path class="st1" d="M40,13.5c0,0.1,0,0.2,0,0.3c0,0.1,0,0.2-0.1,0.3c0,0.1,0,0.2-0.1,0.3c0,0.1-0.1,0.2-0.1,0.2
	c0,0.1-0.1,0.2-0.1,0.3c0,0.1-0.1,0.1-0.1,0.2c-0.1,0.1-0.1,0.2-0.2,0.3c-0.1,0.1-0.1,0.1-0.2,0.2c-0.1,0.2-0.3,0.3-0.4,0.4
	c-0.1,0.1-0.1,0.1-0.2,0.2c-0.1,0.1-0.2,0.2-0.3,0.2c-0.1,0.1-0.2,0.1-0.3,0.2c-0.1,0.1-0.2,0.2-0.4,0.2c-0.1,0.1-0.2,0.2-0.4,0.2
	c-0.3,0.2-0.6,0.3-0.9,0.5c-0.1,0-0.2,0.1-0.3,0.1c-0.2,0.1-0.5,0.2-0.7,0.3c-0.1,0-0.2,0.1-0.3,0.1c-0.2,0-0.3,0.1-0.5,0.1
	c-0.1,0-0.3,0.1-0.4,0.1c-0.2,0-0.4,0.1-0.5,0.1c-0.1,0-0.3,0.1-0.4,0.1c-0.4,0.1-0.7,0.1-1.1,0.2c-0.1,0-0.2,0-0.4,0
	c-0.2,0-0.4,0-0.6,0c-0.1,0-0.3,0-0.4,0c-0.2,0-0.3,0-0.5,0c-0.2,0-0.3,0-0.5,0c-0.2,0-0.3,0-0.5,0c-0.2,0-0.3,0-0.5,0
	c-0.2,0-0.3,0-0.5-0.1c-0.1,0-0.3,0-0.4-0.1c-0.2,0-0.3-0.1-0.5-0.1c-0.1,0-0.3-0.1-0.4-0.1c-0.2,0-0.4-0.1-0.6-0.1
	c-0.1,0-0.2-0.1-0.3-0.1c-0.4-0.1-0.7-0.2-1-0.4c0,0-0.1,0-0.1-0.1c-0.5-0.2-0.9-0.4-1.3-0.6c-1.9-1.1-2.9-2.6-2.9-4l-0.1,47.9
	c0,1.5,1,2.9,2.9,4c0.4,0.2,0.9,0.4,1.3,0.6c0,0,0,0,0.1,0c0,0,0,0,0,0c0.3,0.1,0.7,0.3,1,0.4c0,0,0.1,0,0.1,0c0.1,0,0.2,0,0.3,0.1
	c0.2,0.1,0.4,0.1,0.6,0.1c0.1,0,0.1,0,0.2,0c0.1,0,0.2,0,0.2,0c0.2,0,0.3,0.1,0.5,0.1c0.1,0,0.1,0,0.2,0c0.1,0,0.2,0,0.2,0
	c0.2,0,0.3,0,0.5,0.1c0.1,0,0.2,0,0.2,0c0.1,0,0.2,0,0.2,0c0.2,0,0.3,0,0.5,0c0.1,0,0.2,0,0.3,0c0.1,0,0.1,0,0.2,0
	c0.2,0,0.3,0,0.5,0c0.1,0,0.2,0,0.3,0c0.1,0,0.1,0,0.2,0c0.2,0,0.4,0,0.6,0c0.1,0,0.2,0,0.3,0c0,0,0.1,0,0.1,0
	c0.4,0,0.7-0.1,1.1-0.2c0,0,0,0,0.1,0c0.1,0,0.2,0,0.3-0.1c0.2,0,0.4-0.1,0.5-0.1c0.1,0,0.3-0.1,0.4-0.1c0.2,0,0.3-0.1,0.5-0.1
	c0,0,0.1,0,0.1,0c0.1,0,0.1,0,0.2-0.1c0.3-0.1,0.5-0.2,0.8-0.3c0.1,0,0.2-0.1,0.3-0.1c0.3-0.1,0.6-0.3,0.9-0.5c0,0,0.1,0,0.1-0.1
	c0.1-0.1,0.2-0.1,0.2-0.2c0.1-0.1,0.2-0.2,0.4-0.2c0.1-0.1,0.2-0.1,0.3-0.2c0.1-0.1,0.2-0.2,0.3-0.2c0,0,0,0,0.1-0.1
	c0,0,0.1-0.1,0.1-0.1c0.1-0.1,0.3-0.3,0.4-0.4c0,0,0.1-0.1,0.1-0.1c0,0,0-0.1,0.1-0.1c0.1-0.1,0.2-0.2,0.2-0.3c0,0,0.1-0.1,0.1-0.1
	c0,0,0,0,0-0.1c0.1-0.1,0.1-0.2,0.1-0.3c0-0.1,0.1-0.1,0.1-0.2c0,0,0,0,0-0.1c0-0.1,0.1-0.2,0.1-0.3c0-0.1,0-0.1,0.1-0.2
	c0,0,0,0,0-0.1c0-0.1,0-0.2,0-0.3c0-0.1,0-0.1,0-0.2c0,0,0-0.1,0-0.1L40,13.2C40,13.3,40,13.4,40,13.5z"/>
<g>
	<path class="st2" d="M37.1,9.2c3.8,2.2,3.8,5.8,0,8c-3.8,2.2-10,2.2-13.8,0c-3.8-2.2-3.8-5.8,0-8C27.1,7,33.3,7,37.1,9.2z"/>
</g>
<path class="st3" d="M36.1,39.7L36,66.6c0,1.5,1,2.9,2.9,4c0.4,0.2,0.9,0.5,1.3,0.6c0,0,0,0,0.1,0c0,0,0,0,0,0
	c0.3,0.1,0.7,0.2,1,0.4c0,0,0.1,0,0.1,0c0.1,0,0.2,0,0.3,0.1c0.2,0.1,0.4,0.1,0.6,0.1c0.1,0,0.1,0,0.2,0c0.1,0,0.2,0,0.2,0
	c0.2,0,0.3,0.1,0.5,0.1c0.1,0,0.1,0,0.2,0c0.1,0,0.2,0,0.2,0c0.2,0,0.3,0,0.5,0.1c0.1,0,0.2,0,0.2,0c0.1,0,0.2,0,0.2,0
	c0.2,0,0.3,0,0.5,0c0.1,0,0.2,0,0.3,0c0.1,0,0.1,0,0.2,0c0.2,0,0.3,0,0.5,0c0.1,0,0.2,0,0.3,0c0.1,0,0.1,0,0.2,0c0.2,0,0.4,0,0.6,0
	c0.1,0,0.2,0,0.3,0c0,0,0.1,0,0.1,0c0.4,0,0.7-0.1,1.1-0.2c0,0,0,0,0.1,0c0.1,0,0.2,0,0.3-0.1c0.2,0,0.4-0.1,0.5-0.1
	c0.1,0,0.3-0.1,0.4-0.1c0.2,0,0.3-0.1,0.5-0.1c0,0,0.1,0,0.1,0c0.1,0,0.1,0,0.2-0.1c0.3-0.1,0.5-0.2,0.8-0.3c0.1,0,0.2-0.1,0.3-0.1
	c0.3-0.1,0.6-0.3,0.9-0.5c0,0,0.1,0,0.1-0.1c0.1-0.1,0.2-0.1,0.2-0.2c0.1-0.1,0.2-0.2,0.4-0.2c0.1-0.1,0.2-0.1,0.3-0.2
	c0.1-0.1,0.2-0.2,0.3-0.3c0,0,0,0,0.1,0c0,0,0.1-0.1,0.1-0.1c0.1-0.1,0.3-0.3,0.4-0.4c0,0,0.1-0.1,0.1-0.1c0,0,0-0.1,0.1-0.1
	c0.1-0.1,0.2-0.2,0.2-0.3c0,0,0.1-0.1,0.1-0.1c0,0,0,0,0-0.1c0.1-0.1,0.1-0.2,0.1-0.3c0-0.1,0.1-0.1,0.1-0.2c0,0,0,0,0-0.1
	c0-0.1,0.1-0.2,0.1-0.3c0-0.1,0-0.1,0.1-0.2c0,0,0,0,0-0.1c0-0.1,0-0.2,0-0.3c0-0.1,0-0.1,0-0.2c0,0,0-0.1,0-0.1l0.1-27.6
	C55.5,39.2,36.1,41.1,36.1,39.7z"/>
<g>
	<path class="st4" d="M52.7,35.7c3.8,2.2,3.8,5.8,0,8c-3.8,2.2-10,2.2-13.8,0c-3.8-2.2-3.8-5.8,0-8C42.7,33.5,48.9,33.5,52.7,35.7z"
		/>
</g>
<g>
	<path class="st5" d="M4.3,29.6v36.7c0,1.5,1,2.9,2.9,4C7.6,70.6,8,70.8,8.5,71c0,0,0,0,0.1,0c0,0,0,0,0,0c0.3,0.1,0.7,0.2,1,0.4
		c0,0,0.1,0,0.1,0c0.1,0,0.2,0,0.3,0.1c0.2,0.1,0.4,0.1,0.6,0.1c0.1,0,0.1,0,0.2,0c0.1,0,0.2,0,0.2,0c0.2,0,0.3,0.1,0.5,0.1
		c0.1,0,0.1,0,0.2,0c0.1,0,0.2,0,0.2,0c0.2,0,0.3,0,0.5,0.1c0.1,0,0.2,0,0.2,0c0.1,0,0.2,0,0.2,0c0.2,0,0.3,0,0.5,0
		c0.1,0,0.2,0,0.3,0c0.1,0,0.1,0,0.2,0c0.2,0,0.3,0,0.5,0c0.1,0,0.2,0,0.3,0c0.1,0,0.1,0,0.2,0c0.2,0,0.4,0,0.6,0c0.1,0,0.2,0,0.3,0
		c0,0,0.1,0,0.1,0c0.4,0,0.7-0.1,1.1-0.2c0,0,0,0,0.1,0c0.1,0,0.2,0,0.3-0.1c0.2,0,0.4-0.1,0.5-0.1c0.1,0,0.3-0.1,0.4-0.1
		c0.2,0,0.3-0.1,0.5-0.1c0,0,0.1,0,0.1,0c0.1,0,0.1,0,0.2-0.1c0.3-0.1,0.5-0.2,0.8-0.3c0.1,0,0.2-0.1,0.3-0.1
		c0.3-0.1,0.6-0.3,0.9-0.5c0,0,0.1,0,0.1-0.1c0.1-0.1,0.2-0.1,0.2-0.2c0.1-0.1,0.2-0.2,0.4-0.2c0.1-0.1,0.2-0.1,0.3-0.2
		c0.1-0.1,0.2-0.2,0.3-0.2c0,0,0,0,0.1,0c0,0,0.1-0.1,0.1-0.1c0.1-0.1,0.3-0.3,0.4-0.4c0,0,0.1-0.1,0.1-0.1c0,0,0-0.1,0.1-0.1
		c0.1-0.1,0.2-0.2,0.2-0.3c0,0,0.1-0.1,0.1-0.1c0,0,0,0,0-0.1c0.1-0.1,0.1-0.2,0.1-0.3c0-0.1,0.1-0.1,0.1-0.2c0,0,0,0,0-0.1
		c0-0.1,0.1-0.2,0.1-0.3c0-0.1,0-0.1,0.1-0.2c0,0,0,0,0-0.1c0-0.1,0-0.2,0-0.3c0-0.1,0-0.1,0-0.2c0,0,0-0.1,0-0.1l0-37
		C23.8,29.4,4.3,31.1,4.3,29.6z"/>
	<g>
		<path class="st6" d="M20.9,25.3c3.8,2.2,3.8,5.8,0,8c-3.8,2.2-10,2.2-13.8,0c-3.8-2.2-3.8-5.8,0-8C10.9,23.1,17.1,23.1,20.9,25.3z
			"/>
	</g>
</g>
<g>
	<path class="st7" d="M20.5,53.5l0,19.3c0,1.5,1,2.9,2.9,4c0.4,0.2,0.9,0.5,1.3,0.6c0,0,0,0,0.1,0c0,0,0,0,0,0
		c0.3,0.1,0.7,0.3,1,0.4c0,0,0.1,0,0.1,0c0.1,0,0.2,0,0.3,0.1c0.2,0.1,0.4,0.1,0.6,0.1c0.1,0,0.1,0,0.2,0c0.1,0,0.2,0,0.2,0
		c0.2,0,0.3,0.1,0.5,0.1c0.1,0,0.1,0,0.2,0c0.1,0,0.2,0,0.2,0c0.2,0,0.3,0,0.5,0.1c0.1,0,0.2,0,0.2,0c0.1,0,0.2,0,0.2,0
		c0.2,0,0.3,0,0.5,0c0.1,0,0.2,0,0.3,0c0.1,0,0.1,0,0.2,0c0.2,0,0.3,0,0.5,0c0.1,0,0.2,0,0.3,0c0.1,0,0.1,0,0.2,0c0.2,0,0.4,0,0.6,0
		c0.1,0,0.2,0,0.3,0c0,0,0.1,0,0.1,0c0.4,0,0.7-0.1,1.1-0.2c0,0,0,0,0.1,0c0.1,0,0.2,0,0.3-0.1c0.2,0,0.4-0.1,0.5-0.1
		c0.1,0,0.3-0.1,0.4-0.1c0.2,0,0.3-0.1,0.5-0.1c0,0,0.1,0,0.1,0c0.1,0,0.1,0,0.2-0.1c0.3-0.1,0.5-0.2,0.8-0.3c0.1,0,0.2-0.1,0.3-0.1
		c0.3-0.1,0.6-0.3,0.9-0.5c0,0,0.1,0,0.1-0.1c0.1-0.1,0.2-0.1,0.2-0.2c0.1-0.1,0.2-0.2,0.4-0.2c0.1-0.1,0.2-0.1,0.3-0.2
		c0.1-0.1,0.2-0.2,0.3-0.2c0,0,0,0,0.1-0.1c0,0,0.1-0.1,0.1-0.1c0.1-0.1,0.3-0.3,0.4-0.4c0,0,0.1-0.1,0.1-0.1c0,0,0-0.1,0.1-0.1
		c0.1-0.1,0.2-0.2,0.2-0.3c0,0,0.1-0.1,0.1-0.1c0,0,0,0,0-0.1c0.1-0.1,0.1-0.2,0.1-0.3c0-0.1,0.1-0.1,0.1-0.2c0,0,0,0,0-0.1
		c0-0.1,0.1-0.2,0.1-0.3c0-0.1,0-0.1,0.1-0.2c0,0,0,0,0-0.1c0-0.1,0-0.2,0-0.3c0-0.1,0-0.1,0-0.2c0,0,0-0.1,0-0.1l0-19.6
		C34.8,59.7,20.5,54.9,20.5,53.5z"/>
	<g>
		<path class="st8" d="M37.1,49.5c3.8,2.2,3.8,5.8,0,8c-3.8,2.2-10,2.2-13.8,0c-3.8-2.2-3.8-5.8,0-8C27.2,47.3,33.3,47.3,37.1,49.5z
			"/>
	</g>
</g>
<g>
	<g>
		<path class="st6" d="M45.9,31.2c1.2-0.7,1.7,0,1.7,0.9c0,1.2-0.7,2.5-1.9,4.4l-0.4,0.7v0l2.4-1.4l0,0.7l-3.5,2l0-0.5l0.6-1
			c1.4-2.3,2-3.5,2-4.4c0-0.6-0.3-1.1-1.1-0.6c-0.5,0.3-0.9,0.8-1.2,1.2l-0.2-0.5C44.8,32.2,45.3,31.6,45.9,31.2z"/>
	</g>
	<g>
		<path class="st6" d="M50.4,28.7c1.2-0.7,1.8,0.1,1.8,2.1c0,2.1-0.7,3.7-1.9,4.4c-1.1,0.6-1.8-0.1-1.8-2.2
			C48.5,30.9,49.3,29.3,50.4,28.7z M50.4,34.5c0.8-0.4,1.1-1.7,1.1-3.3c0-1.5-0.4-2.4-1.1-1.9c-0.6,0.4-1.1,1.5-1.1,3.3
			C49.2,34.2,49.7,34.9,50.4,34.5L50.4,34.5z"/>
	</g>
	<g class="st9">
		<g>
			<path class="st6" d="M57.6,27.1c0.8-0.4,1.3-0.1,1.3,1.1c0,1.3-0.6,2.3-1.3,2.7c-0.7,0.4-1.3,0.1-1.3-1.1
				C56.3,28.5,56.9,27.5,57.6,27.1z M57.6,30.4c0.5-0.3,0.7-1,0.7-1.8c0-0.8-0.2-1.3-0.7-1c-0.5,0.3-0.7,1-0.7,1.8
				C56.9,30.2,57.2,30.7,57.6,30.4L57.6,30.4z"/>
		</g>
		<g>
			<polygon class="st6" points="57.2,24.7 57.6,24.5 54.5,32.8 54,33.1 			"/>
		</g>
	</g>
	<g>
		<path class="st6" d="M55.3,27.7c0,1.3-0.6,2.3-1.3,2.7c-0.7,0.4-1.3,0.1-1.3-1.1c0-1.2,0.6-2.3,1.3-2.7
			C54.8,26.1,55.3,26.5,55.3,27.7z M53.3,28.9c0,0.8,0.2,1.3,0.7,1c0.5-0.3,0.7-1,0.7-1.8c0-0.8-0.2-1.3-0.7-1
			C53.6,27.3,53.3,28.1,53.3,28.9L53.3,28.9z"/>
	</g>
</g>
<g>
	<g>
		<polygon class="st6" points="27.4,49.1 27.4,55.2 26.7,55.6 26.7,50.2 26.7,50.3 25.7,51.4 25.6,50.8 26.8,49.4 		"/>
	</g>
	<g>
		<path class="st6" d="M32.5,46.1l0,0.7l-2,1.2l-0.2,1.7c0.1-0.1,0.2-0.2,0.4-0.3c0.4-0.2,0.8-0.4,1.2-0.3c0.4,0,0.8,0.4,0.8,1.1
			c0,1.2-0.8,2.6-2,3.2c-0.6,0.3-1.1,0.4-1.3,0.4l0.2-0.7c0.2,0,0.7,0,1.1-0.3c0.7-0.4,1.3-1.2,1.3-2.1c0-0.8-0.5-1.1-1.5-0.5
			c-0.3,0.2-0.5,0.3-0.7,0.5l0.3-3.2L32.5,46.1z"/>
	</g>
	<g>
		<polygon class="st6" points="37.8,42.9 38.3,42.7 35.1,50.9 34.7,51.1 		"/>
	</g>
	<g>
		<path class="st6" d="M38.2,45.2c0.7-0.4,1.2,0,1.2,1.1c0,1.3-0.6,2.3-1.3,2.7c-0.7,0.4-1.2,0.1-1.3-1.1
			C36.9,46.7,37.5,45.7,38.2,45.2z M38.2,48.5c0.5-0.3,0.7-1,0.7-1.8c0-0.7-0.2-1.3-0.7-1c-0.5,0.3-0.7,1-0.7,1.8
			C37.5,48.4,37.8,48.8,38.2,48.5L38.2,48.5z"/>
	</g>
	<g>
		<path class="st6" d="M36,45.8c0,1.3-0.6,2.3-1.3,2.7c-0.7,0.4-1.2,0.1-1.3-1.1c0-1.2,0.6-2.3,1.3-2.7C35.5,44.3,36,44.7,36,45.8z
			 M34,47c0,0.8,0.2,1.3,0.7,1c0.5-0.3,0.7-1,0.7-1.8c0-0.7-0.2-1.3-0.7-1C34.3,45.5,34,46.2,34,47L34,47z"/>
	</g>
</g>
<g>
	<g>
		<path class="st6" d="M1.8,17.1c1.1-0.7,1.6,0,1.6,0.8c0,1.1-0.7,2.4-1.8,4.3l-0.4,0.7v0l2.4-1.4l0,0.7l-3.3,1.9l0-0.5l0.6-0.9
			c1.3-2.2,1.9-3.4,1.9-4.3c0-0.6-0.3-1-1-0.6c-0.5,0.3-0.9,0.8-1.1,1.1l-0.2-0.4C0.7,18,1.2,17.4,1.8,17.1z"/>
	</g>
	<g>
		<path class="st6" d="M7.5,13.9l0,0.7l-2,1.2l-0.2,1.7c0.1-0.1,0.2-0.2,0.4-0.3c0.4-0.2,0.8-0.4,1.1-0.3c0.4,0,0.8,0.4,0.8,1.1
			c0,1.2-0.8,2.5-1.9,3.2c-0.6,0.3-1.1,0.4-1.3,0.4l0.2-0.7c0.2,0,0.6,0,1.1-0.3c0.7-0.4,1.2-1.2,1.2-2c0-0.8-0.5-1.1-1.5-0.5
			c-0.3,0.2-0.5,0.3-0.7,0.5L5,15.4L7.5,13.9z"/>
	</g>
	<g>
		<polygon class="st6" points="12.6,10.8 13.1,10.6 10,18.6 9.6,18.8 		"/>
	</g>
	<g>
		<path class="st6" d="M13.1,13.1c0.7-0.4,1.2-0.1,1.2,1.1c0,1.3-0.6,2.2-1.2,2.6c-0.7,0.4-1.2,0.1-1.2-1.1
			C11.8,14.5,12.4,13.5,13.1,13.1z M13,16.3c0.5-0.3,0.7-1,0.7-1.8c0-0.7-0.2-1.2-0.7-1c-0.4,0.3-0.7,1-0.7,1.8
			C12.3,16.1,12.6,16.6,13,16.3L13,16.3z"/>
	</g>
	<g>
		<path class="st6" d="M10.8,13.7c0,1.3-0.6,2.2-1.3,2.6c-0.7,0.4-1.2,0.1-1.2-1.1c0-1.2,0.6-2.2,1.3-2.6
			C10.4,12.1,10.8,12.5,10.8,13.7z M8.9,14.8c0,0.8,0.2,1.2,0.7,1c0.5-0.3,0.7-1,0.7-1.8c0-0.7-0.2-1.2-0.7-0.9
			C9.2,13.3,8.9,14.1,8.9,14.8L8.9,14.8z"/>
	</g>
</g>
<g>
	<g>
		<g>
			<path class="st6" d="M25.8,10.1l0.7-0.4l0,0.6l-0.7,0.4l0,1.5l-0.6,0.4l0-1.5l-2.3,1.3l0-0.5L25.1,7l0.7-0.4L25.8,10.1z
				 M25.2,8.5c0-0.3,0-0.6,0-0.9l0,0c-0.2,0.4-0.3,0.7-0.4,1.1l-1.2,2.6v0l1.6-0.9L25.2,8.5L25.2,8.5z"/>
		</g>
		<g>
			<path class="st6" d="M28.7,4.8c1-0.6,1.6,0.1,1.6,1.9c0,1.9-0.6,3.3-1.7,4c-1,0.6-1.6-0.1-1.6-2C27,6.8,27.7,5.4,28.7,4.8z
				 M28.6,10.1c0.7-0.4,1-1.5,1-2.9c0-1.4-0.3-2.1-1-1.7c-0.6,0.3-1,1.4-1,2.9C27.6,9.8,28,10.4,28.6,10.1L28.6,10.1z"/>
		</g>
	</g>
	<g>
		<polygon class="st6" points="35.9,0.3 36.4,0 33,8.9 32.5,9.2 		"/>
	</g>
	<g>
		<path class="st6" d="M36.4,2.8c0.8-0.5,1.3,0,1.3,1.2c0,1.4-0.6,2.5-1.4,2.9C35.6,7.4,35,7,35,5.7C35,4.4,35.6,3.2,36.4,2.8z
			 M36.4,6.4c0.5-0.3,0.7-1.1,0.7-2c0-0.8-0.2-1.4-0.8-1.1c-0.5,0.3-0.8,1.1-0.8,2C35.6,6.2,35.9,6.7,36.4,6.4L36.4,6.4z"/>
	</g>
	<g>
		<path class="st6" d="M33.9,3.4c0,1.4-0.6,2.5-1.4,2.9c-0.7,0.4-1.4,0.1-1.4-1.2c0-1.3,0.6-2.5,1.4-2.9C33.4,1.7,33.9,2.2,33.9,3.4
			z M31.8,4.7c0,0.9,0.3,1.4,0.8,1.1c0.5-0.3,0.7-1.1,0.7-2c0-0.8-0.2-1.4-0.8-1.1C32,3.1,31.8,3.9,31.8,4.7L31.8,4.7z"/>
	</g>
</g>
<g>
	<path class="st10" d="M74.7,89.7c0,0,0.8,1.8,2.1,1.2c1.3-0.6,0.6-1.2,3.7-1.7c3.1-0.5,3.8-2.7,3.8-3.3c0-0.9-1.5-1.7-7.1,0.6
		L74.7,89.7z"/>
	<path class="st11" d="M76.8,90.9c1.3-0.6,0.6-1.2,3.7-1.7c3.1-0.5,3.9-2.7,3.8-3.3c0-0.1,0-0.2-0.1-0.3c-0.9,2.2-2.6,2.5-3.8,2.8
		c-1.3,0.3-2.1,0.7-3.3,1.7c-1.3,1-1.8-0.2-1.8-0.2c-0.1,0-0.3,0.1-0.4,0.2C75.2,90.5,75.9,91.4,76.8,90.9z"/>
	<path class="st10" d="M73.5,84.7c0,0,0.8,1.8,2.1,1.2c1.3-0.6,0.6-1.2,3.7-1.7c3.1-0.5,3.9-2.7,3.8-3.3c-0.1-0.4-1.5-1.7-7.1,0.6
		L73.5,84.7z"/>
	<path class="st11" d="M75.5,85.9c1.3-0.6,0.6-1.2,3.7-1.7c3.1-0.5,3.9-2.7,3.8-3.3c0-0.1-0.1-0.1-0.1-0.2c-0.9,2.2-2.5,2.4-3.7,2.7
		c-1.3,0.3-2.1,0.7-3.3,1.7c-1.3,1-1.8-0.3-1.8-0.3c-0.1,0-0.3,0.1-0.4,0.2C73.9,85.5,74.6,86.3,75.5,85.9z"/>
	<path class="st12" d="M48.1,78c0,0,1.4-2.2,1.2-4.2c0,0,12.4-3.2,14.5-2.4c2.1,0.8,9.7,6.7,13,9.6c1,0.9-1.6,5.6-3.3,4.5
		c-3.1-1.9-11.1-8.2-11.1-8.2S51.7,83.5,48.1,78z"/>
	<path class="st13" d="M47.1,75.1c0,0,12.6,0.4,16.5,1.9c3.8,1.5,9.9,6.1,13.5,9.5c0.8,0.7-1.4,3.7-2.4,3.4
		c-7.1-2.3-10.1-6.3-13.9-7.4c-2.5-0.7-7.9,0.6-10.6,0.9c-3.2,0.3-9.9-2.1-9.9-8.1L47.1,75.1z"/>
	<g>
		<path class="st14" d="M62.1,64.1c0,0,0.5-0.4,1.6-0.5c1.1-0.1,1.4,0.1,2.1,0.4c0.7,0.2,1.1,0.5,1,0.8c-0.1,0.3-1.6,0.9-2.5,0.7
			c-0.6-0.1-2,0.7-2.3,0.7C61.7,66.2,61.8,64.3,62.1,64.1z"/>
		<path class="st15" d="M62.1,66.2c0.3,0,1.7-0.8,2.3-0.7c0.7,0.1,1.6-0.1,2.1-0.4c0,0,0,0,0,0c-0.1-0.2-0.6,0-0.9-0.1
			c-0.3-0.1-1.3,0-1.9-0.1c-0.6-0.1-1.7,0.6-1.7,0.6l-0.1,0.1C61.9,65.9,61.9,66.2,62.1,66.2z"/>
		<path class="st16" d="M48,54.6c0,0,1.8-2.4,3.7,0.2c1.2,1.7,3.3,8.4,4.1,9c0.4,0.3,6.6-0.1,6.6-0.1s-0.9,0.9,0.3,2.7
			c0,0-8.1,2.7-9.5,1.1C50.9,64.6,46.9,57.5,48,54.6z"/>
	</g>
	<linearGradient id="SVGID_1_" gradientUnits="userSpaceOnUse" x1="45.8885" y1="53.9718" x2="46.8734" y2="77.6092">
		<stop  offset="0" style="stop-color:#5AB0FF"/>
		<stop  offset="1" style="stop-color:#3C84F7"/>
	</linearGradient>
	<path class="st17" d="M51.6,68.3c0-0.2-0.1-0.5-0.1-0.8c0,0,0,0,0,0c0-1-0.2-2,0.9-4.4c0.7-1.6,0.7-4,0.2-5.5
		c-0.3-2.4-1.5-4.1-2.2-4.5c-1-0.7-9.7,3.1-10,3.2c-3.2,2.4,1.3,6.8,0.2,14.6c-0.5,4.1-0.3,4.3-0.3,4.3c6.1,2.9,12.6-2.4,12.6-2.4
		s-0.2-0.2-0.4-0.6C52.3,71.2,51.7,69.2,51.6,68.3z"/>
	<g>
		<path class="st18" d="M48.4,52.1c0,0-0.4,2.1,0.1,3.3c0.5,1.1-1.2,1.5-2,1.2c-0.8-0.3-2.1-0.8-2-1.5c0.2-0.7,0.8-3.1,0.4-3.9
			C44.4,50.3,48.4,52.1,48.4,52.1z"/>
		<path class="st14" d="M44.2,45.6c0,0-2.4,2.5-1.7,5c0.4,1.4,2,2.3,3,3c0.9,0.7,3.3,2.3,4.2,0.6c0.9-1.7,2-6.6-0.1-8.7
			C47.4,43.4,44.2,45.6,44.2,45.6z"/>
		<path class="st19" d="M49.6,46.5c0,0-1.5,0.2-3.5,2.2c-0.6,0.7-0.7,2.9-1.4,2.2c-0.3-0.3-1-0.8-1.1-0.4c-0.4,1.9,2.5,2.5,2,3.7
			c-0.2,0.4-4.9-1.3-4.4-6.6c0.2-2.7,2-4.6,5.8-4.3c3,0.2,3.3,3.2,3.3,3.2S50.2,46.5,49.6,46.5z"/>
	</g>
	<g>
		<path class="st14" d="M46.5,72.8c0,0,0.6-0.1,1.7,0.4c1.1,0.5,1.2,0.9,1.7,1.5c0.5,0.6,0.8,1.1,0.5,1.3c-0.3,0.2-1.9-0.1-2.6-0.7
			c-0.4-0.4-2.1-0.5-2.4-0.6C45.1,74.5,46.1,72.8,46.5,72.8z"/>
		<path class="st15" d="M45.3,74.6c0.3,0.2,2,0.2,2.4,0.6c0.5,0.5,1.5,0.8,2.1,0.8c0,0,0,0,0,0c0-0.2-0.5-0.4-0.8-0.6
			c-0.2-0.2-1.1-0.7-1.6-1.1c-0.5-0.4-1.8-0.4-1.8-0.4l-0.1,0C45.3,74.3,45.2,74.6,45.3,74.6z"/>
		<path class="st10" d="M40,56.4c0.6-0.3,1.9-0.6,2.2,1.5c0.3,2.1-1.8,10-1.4,10.9c0.2,0.5,6.3,3.5,6.3,3.5s-1.3,0.3-1.2,2.6
			c0,0-8.6-1.9-9-4.1C36.4,67,37.2,58,40,56.4z"/>
	</g>
</g>
<g>
	<g class="st20">
		<polygon class="st6" points="60.3,60.4 60.3,80.4 86.7,65.4 86.6,45.4 		"/>
	</g>
	<g>
		<path class="st21" d="M73.6,57.3c1.6-0.9,2.6,2.2,2.8,3.3c0.1,0.8,0.9,0.6,1.7,0.1c0.7-0.4,1.4-1,2-1.3c1.3-0.8,1.3,0.7,2.2,0.8
			c0.2,0,0.3,0,0.5-0.1c0.2-0.1,0.4-0.3,0.6-0.5c0.2-0.2,0.4-0.4,0.6-0.5c0.4-0.2,0.7-0.2,0.9,0.7L61.9,73c0.1-0.3,2.5-5.6,4.6-6.8
			c0.2-0.1,0.5-0.2,0.7-0.2c0.4,0,0.7-0.1,1-0.3c1.4-0.8,2.1-3.4,4-6.8C72.7,58,73.2,57.5,73.6,57.3z"/>
	</g>
	<g class="st22">
		<path class="st6" d="M74.2,55.6c0.1,0,0.2-0.1,0.3,0c1.1,0.5,0.7,4.8,1.6,5.3c0.2,0.1,0.4,0.1,0.6-0.1c0.3-0.2,0.5-0.4,0.8-0.7
			c0.3-0.3,0.5-0.5,0.8-0.7c0.3-0.2,0.6-0.2,0.8,0.1c0.9,0.9,1.5,1.7,3.1,1c1.6-0.6,2.4-0.7,2.5-0.7L64.8,71.3c0-0.1,0.9-1.7,2-2.3
			c0.3-0.1,0.5-0.2,0.8-0.2c0.1,0,0.3,0,0.4-0.1c1.2-0.7,1.9-4.4,3.2-5.3C72.4,62.5,73.1,56.2,74.2,55.6z"/>
	</g>
	<g>
		<path class="st6" d="M70.7,64.6c0.5-0.3,1.1-0.3,1.7,0.1c0.5,0.2,0.7,0.2,1,0.1c0.1-0.1,0.3-0.2,0.4-0.3c0.2-0.1,0.3-0.3,0.6-0.4
			c0.2-0.1,0.5-0.3,0.9-0.4c1.9-0.6,5.7-1.6,5.9-1.7l-18,10.3c0.1-0.2,1.5-3.3,2.6-3.9c0.1-0.1,0.3-0.1,0.4-0.1
			c0.6,0.1,1.2,0,1.8-0.3c0.5-0.3,1.1-0.9,1.5-1.7C69.8,65.4,70.3,64.8,70.7,64.6z"/>
	</g>
</g>
</svg>
