<?xml version="1.0" encoding="utf-8"?>
<!-- Generator: Adobe Illustrator 22.1.0, SVG Export Plug-In . SVG Version: 6.00 Build 0)  -->
<svg version="1.1" id="Layer_1" xmlns="http://www.w3.org/2000/svg" xmlns:xlink="http://www.w3.org/1999/xlink" x="0px" y="0px"
	 viewBox="0 0 103.9 98" style="enable-background:new 0 0 103.9 98;" xml:space="preserve">
<style type="text/css">
	.st0{opacity:0.1;}
	.st1{enable-background:new    ;}
	.st2{fill:#4881FF;}
	.st3{fill:#0F4BB7;}
	.st4{fill:#6A96EF;}
	.st5{clip-path:url(#SVGID_2_);enable-background:new    ;}
	.st6{fill:#85A9FF;}
	.st7{fill:#AECFFF;}
	.st8{fill:#DCC9A0;}
	.st9{fill:#584245;}
	.st10{fill:#62494D;}
	.st11{fill:#91BDF2;}
	.st12{fill:#2263D6;}
	.st13{fill:#82B3B8;}
	.st14{fill:#92C8CE;}
	.st15{fill:#24B8D1;}
	.st16{fill:#1C8EA2;}
	.st17{fill:#09AEBF;}
	.st18{opacity:0.5;}
	.st19{opacity:0.6;}
	.st20{fill:#6E97EA;}
	.st21{fill:url(#SVGID_3_);}
	.st22{fill:url(#SVGID_4_);}
	.st23{fill:url(#SVGID_5_);}
	.st24{fill:url(#SVGID_6_);}
	.st25{fill:#752289;}
	.st26{clip-path:url(#SVGID_8_);enable-background:new    ;}
	.st27{fill:#972CB1;}
	.st28{fill:#932BAC;}
	.st29{fill:#902AA8;}
	.st30{fill:#8C29A4;}
	.st31{fill:#88289F;}
	.st32{fill:#84279B;}
	.st33{fill:#812596;}
	.st34{fill:#7D2492;}
	.st35{fill:#79238D;}
	.st36{fill:url(#SVGID_9_);}
	.st37{fill:url(#SVGID_10_);}
	.st38{fill:#09B4C6;}
	.st39{fill:#0BE1F7;}
	.st40{fill:#3D93FF;}
	.st41{fill:#FFAA83;}
	.st42{fill:#5BB0FF;}
	.st43{fill:#0E007A;}
	.st44{fill:#160F96;}
	.st45{fill:url(#SVGID_11_);}
	.st46{fill:#EF916C;}
	.st47{fill:#994E17;}
</style>
<g class="st0">
	<polygon points="103.9,81.9 78,98 0,52.9 26.8,37.3 	"/>
</g>
<g>
	<g>
		<g class="st1">
			<g>
				<polygon class="st2" points="77.1,65.8 77.1,67.9 65.3,74.8 65.3,72.7 				"/>
			</g>
			<g>
				<polygon class="st3" points="65.3,72.7 65.3,74.8 39.7,60 39.7,57.9 				"/>
			</g>
			<g>
				<polygon class="st4" points="77.1,65.8 65.3,72.7 39.7,57.9 51.5,51 				"/>
			</g>
		</g>
	</g>
	<g>
		<defs>
			<path id="SVGID_1_" d="M32.6,1.9c1-0.6,2-1.1,3-1.7c0.4-0.3,1-0.2,1.7,0.2l-3,1.7C33.7,1.7,33.1,1.6,32.6,1.9z"/>
		</defs>
		<use xlink:href="#SVGID_1_"  style="overflow:visible;fill:#85A9FF;"/>
		<clipPath id="SVGID_2_">
			<use xlink:href="#SVGID_1_"  style="overflow:visible;"/>
		</clipPath>
		<g class="st5">
			<path class="st6" d="M32.6,1.9l3-1.7c0.1,0,0.1-0.1,0.2-0.1l-3,1.7C32.8,1.8,32.7,1.8,32.6,1.9L32.6,1.9z"/>
			<path class="st6" d="M32.8,1.8l3-1.7c0.1,0,0.1,0,0.2,0l-3,1.7C32.9,1.8,32.9,1.8,32.8,1.8L32.8,1.8z"/>
			<path class="st6" d="M33,1.7L36,0c0,0,0.1,0,0.1,0l-3,1.7C33.1,1.7,33,1.7,33,1.7L33,1.7z"/>
			<path class="st6" d="M33.1,1.7l3-1.7c0,0,0.1,0,0.1,0l-3,1.7C33.2,1.7,33.2,1.7,33.1,1.7L33.1,1.7z"/>
			<path class="st6" d="M33.3,1.7l3-1.7c0,0,0.1,0,0.1,0l-3,1.7C33.3,1.7,33.3,1.7,33.3,1.7L33.3,1.7z"/>
			<path class="st6" d="M33.4,1.7l3-1.7c0,0,0.1,0,0.1,0l-3,1.7C33.4,1.7,33.4,1.7,33.4,1.7L33.4,1.7z"/>
			<path class="st6" d="M33.5,1.7l3-1.7c0,0,0.1,0,0.1,0l-3,1.7C33.5,1.7,33.5,1.7,33.5,1.7L33.5,1.7z"/>
			<path class="st6" d="M33.6,1.8l3-1.7c0,0,0.1,0,0.1,0l-3,1.7C33.6,1.8,33.6,1.8,33.6,1.8L33.6,1.8z"/>
			<path class="st6" d="M33.7,1.8l3-1.7c0,0,0.1,0,0.1,0L33.7,1.8C33.7,1.8,33.7,1.8,33.7,1.8L33.7,1.8z"/>
			<path class="st6" d="M33.8,1.8l3-1.7c0,0,0.1,0,0.1,0L33.8,1.8C33.8,1.8,33.8,1.8,33.8,1.8L33.8,1.8z"/>
			<path class="st6" d="M33.9,1.8l3-1.7c0,0,0.1,0,0.1,0L33.9,1.8C33.9,1.9,33.9,1.8,33.9,1.8L33.9,1.8z"/>
			<path class="st6" d="M34,1.9l3-1.7c0,0,0.1,0,0.1,0L34,1.9C34,1.9,34,1.9,34,1.9L34,1.9z"/>
			<path class="st6" d="M34.1,1.9l3-1.7c0,0,0.1,0,0.1,0L34.1,1.9C34.1,1.9,34.1,1.9,34.1,1.9L34.1,1.9z"/>
			<path class="st6" d="M34.2,2l3-1.7c0,0,0.1,0,0.1,0.1L34.2,2C34.2,2,34.2,2,34.2,2L34.2,2z"/>
			<path class="st6" d="M34.3,2l3-1.7c0,0,0.1,0,0.1,0L34.3,2C34.3,2,34.3,2,34.3,2L34.3,2z"/>
		</g>
	</g>
	<path class="st2" d="M87.1,67.7l0,4.1c0,0.2,0,0.4,0,0.5c0,0,0,0,0,0c0,0.2-0.1,0.3-0.1,0.4c0,0,0,0,0,0c-0.1,0.1-0.1,0.2-0.2,0.3
		c0,0,0,0.1-0.1,0.1c-0.1,0.1-0.2,0.2-0.3,0.2l3-1.7c0.1-0.1,0.2-0.1,0.3-0.2c0,0,0-0.1,0.1-0.1c0,0,0.1-0.1,0.1-0.1
		c0-0.1,0.1-0.1,0.1-0.2c0,0,0,0,0,0c0,0,0,0,0,0c0,0,0-0.1,0.1-0.1c0,0,0-0.1,0-0.1c0,0,0-0.1,0-0.1c0,0,0,0,0-0.1c0,0,0,0,0,0
		c0,0,0,0,0,0c0,0,0-0.1,0-0.1c0,0,0-0.1,0-0.1c0,0,0-0.1,0-0.1c0,0,0-0.1,0-0.1c0,0,0,0,0,0l0-4.1L87.1,67.7z"/>
	<polygon class="st2" points="64.9,67.9 74.5,67.3 67.1,63 	"/>
	<g>
		<g class="st1">
			<g>
				<polygon class="st6" points="63.5,50.8 65.9,49.4 67.4,66.5 64.9,67.9 				"/>
			</g>
			<g>
				<polygon class="st6" points="49.6,42.7 52,41.3 65.9,49.4 63.5,50.8 				"/>
			</g>
			<g>
				<polygon class="st7" points="63.5,50.8 64.9,67.9 48.5,58.5 49.6,42.7 				"/>
			</g>
		</g>
	</g>
	<g>
		<polygon class="st8" points="31.8,35.8 34.8,34 90.1,66 87.1,67.7 		"/>
	</g>
	<g>
		<polygon class="st9" points="34.1,4.7 37.1,3 37,32.8 34,34.5 		"/>
	</g>
	<g>
		<polygon class="st10" points="34,34.5 37,32.8 87.5,62 84.5,63.7 		"/>
	</g>
	<g>
		<path class="st11" d="M87.1,67.7l0,4.1c0,1.5-1.1,2.1-2.4,1.4L34.2,44.1c-1.3-0.8-2.4-2.6-2.4-4.1l0-4.1L87.1,67.7z"/>
	</g>
	<g>
		<polygon class="st12" points="84.6,33.9 84.5,63.7 34,34.5 34.1,4.7 		"/>
	</g>
	<g>
		<polygon class="st13" points="84.6,33.9 87.6,32.2 87.5,62 84.5,63.7 		"/>
	</g>
	<g>
		<polygon class="st14" points="34.1,4.7 37.1,3 87.6,32.2 84.6,33.9 		"/>
	</g>
	<g>
		<polygon class="st2" points="87.2,35.3 90.2,33.6 90.1,66 87.1,67.7 		"/>
	</g>
	<g>
		<polygon class="st6" points="34.3,2.1 37.3,0.3 87.8,29.5 84.8,31.2 		"/>
	</g>
	<g>
		<path class="st7" d="M84.8,31.2c1.3,0.8,2.4,2.6,2.4,4.1l-0.1,32.3L31.8,35.8l0.1-32.3c0-1.5,1.1-2.1,2.4-1.4L84.8,31.2z
			 M84.5,63.7l0.1-29.8L34.1,4.7L34,34.5L84.5,63.7L84.5,63.7z"/>
	</g>
	<path class="st6" d="M90.2,33.6c0,0,0-0.1,0-0.1c0,0,0-0.1,0-0.1c0,0,0-0.1,0-0.1c0,0,0-0.1,0-0.1c0,0,0-0.1,0-0.1c0,0,0,0,0,0
		c0,0,0-0.1,0-0.1c0,0,0-0.1,0-0.1c0,0,0-0.1,0-0.1c0,0,0-0.1,0-0.1c0,0,0-0.1,0-0.1c0,0,0,0,0,0c0,0,0,0,0,0c0,0,0-0.1,0-0.1
		c0,0,0-0.1,0-0.1c0,0,0-0.1,0-0.1c0,0,0-0.1,0-0.1c0,0,0-0.1,0-0.1c0,0,0,0,0,0c0,0,0,0,0,0c0,0,0-0.1-0.1-0.1c0,0,0-0.1-0.1-0.1
		c0,0,0-0.1-0.1-0.1c0-0.1-0.1-0.1-0.1-0.2c0,0,0,0,0,0c0,0,0,0,0,0l0,0l0,0l0,0c-0.1-0.1-0.1-0.2-0.2-0.3c0-0.1-0.1-0.1-0.1-0.2
		c0,0,0,0,0,0c0,0-0.1-0.1-0.1-0.1c0,0-0.1-0.1-0.1-0.1c0,0-0.1-0.1-0.1-0.1c0,0-0.1-0.1-0.1-0.1c0,0,0,0,0,0c0,0,0,0,0,0
		c0,0,0,0-0.1-0.1c0,0-0.1-0.1-0.1-0.1c0,0-0.1-0.1-0.1-0.1c0,0-0.1-0.1-0.1-0.1c0,0,0,0-0.1,0c0,0,0,0,0,0c0,0,0,0,0,0
		c0,0-0.1-0.1-0.1-0.1c0,0-0.1-0.1-0.1-0.1c0,0-0.1,0-0.1-0.1c0,0-0.1,0-0.1-0.1c0,0,0,0,0,0l-3,1.7c0.2,0.1,0.3,0.2,0.5,0.3
		c0,0,0,0,0,0c0.1,0.1,0.3,0.3,0.4,0.4c0,0,0,0,0,0c0.1,0.2,0.3,0.3,0.4,0.5c0,0,0,0,0,0c0,0,0,0,0,0c0.1,0.2,0.2,0.3,0.3,0.5
		c0,0,0,0,0,0c0.2,0.4,0.4,0.8,0.5,1.2c0,0,0,0,0,0c0.1,0.2,0.1,0.4,0.1,0.6c0,0,0,0,0,0v0c0,0.2,0,0.4,0,0.6L90.2,33.6z"/>
</g>
<g>
	<g>
		<g>
			<path class="st15" d="M95.7,78.5l0.7-0.3c-0.2-0.5-5.1-13.2-14.4-12.8c-4.6,0.2-6.6-3.6-8.8-7.7c-2-3.7-4.1-7.5-8.2-8.6
				c-3.9-1.1-6.5-7.2-9-13c-2.9-6.8-5.7-13.3-10.5-13.3c0,0,0,0,0,0c-2.9,0-4.5,2.4-6.1,4.8c-2.1,3.1-4.2,6.4-9.5,4.8l-9.6-2.9
				L20,30.2l9.6,2.9c5.8,1.8,8.2-1.9,10.3-5.1c1.5-2.3,3-4.5,5.5-4.5c0,0,0,0,0,0c4.3,0,7.1,6.5,9.9,12.8c2.6,6,5.3,12.2,9.5,13.4
				c3.8,1.1,5.8,4.7,7.7,8.3c2.2,4.1,4.5,8.3,9.5,8.1C90.7,65.9,95.6,78.4,95.7,78.5z"/>
		</g>
	</g>
	<g>
		<g>
			<path class="st16" d="M85.4,65.3c-0.5-0.3-0.9-0.1-0.9,0.5c0,0.6,0.4,1.3,0.9,1.6c0.5,0.3,0.9,0.1,0.9-0.5
				C86.3,66.3,85.9,65.6,85.4,65.3z"/>
		</g>
		<path class="st17" d="M87.3,67.5c0,1.2-0.8,1.7-1.9,1.1c-1-0.6-1.9-2-1.9-3.2c0-1.2,0.8-1.7,1.9-1.1
			C86.4,64.9,87.3,66.3,87.3,67.5z M85.4,67.4c0.5,0.3,0.9,0.1,0.9-0.5c0-0.6-0.4-1.3-0.9-1.6c-0.5-0.3-0.9-0.1-0.9,0.5
			C84.4,66.4,84.9,67.1,85.4,67.4L85.4,67.4z"/>
	</g>
	<g>
		<g>
			<path class="st16" d="M68.1,50.7c-0.5-0.3-0.9-0.1-0.9,0.5c0,0.6,0.4,1.3,0.9,1.6c0.5,0.3,0.9,0.1,0.9-0.5
				C69.1,51.7,68.6,51,68.1,50.7z"/>
		</g>
		<path class="st17" d="M70,52.9c0,1.2-0.8,1.7-1.9,1.1c-1-0.6-1.9-2-1.9-3.2c0-1.2,0.8-1.7,1.9-1.1C69.2,50.3,70,51.7,70,52.9z
			 M68.1,52.9c0.5,0.3,0.9,0.1,0.9-0.5c0-0.6-0.4-1.3-0.9-1.6c-0.5-0.3-0.9-0.1-0.9,0.5C67.2,51.8,67.6,52.6,68.1,52.9L68.1,52.9z"
			/>
	</g>
	<g>
		<g>
			<path class="st16" d="M46.6,22.7c-0.5-0.3-0.9-0.1-0.9,0.5c0,0.6,0.4,1.3,0.9,1.6c0.5,0.3,0.9,0.1,0.9-0.5
				C47.5,23.7,47.1,23,46.6,22.7z"/>
		</g>
		<path class="st17" d="M48.5,24.9c0,1.2-0.8,1.7-1.9,1.1c-1-0.6-1.9-2-1.9-3.2c0-1.2,0.8-1.7,1.9-1.1
			C47.6,22.2,48.5,23.7,48.5,24.9z M46.6,24.8c0.5,0.3,0.9,0.1,0.9-0.5c0-0.6-0.4-1.3-0.9-1.6c-0.5-0.3-0.9-0.1-0.9,0.5
			C45.7,23.8,46.1,24.5,46.6,24.8L46.6,24.8z"/>
	</g>
	<g>
		<g>
			<path class="st16" d="M20,28.9c-0.5-0.3-0.9-0.1-0.9,0.5c0,0.6,0.4,1.3,0.9,1.6c0.5,0.3,0.9,0.1,0.9-0.5
				C21,29.9,20.5,29.2,20,28.9z"/>
		</g>
		<path class="st17" d="M21.9,31.1c0,1.2-0.8,1.7-1.9,1.1c-1-0.6-1.9-2-1.9-3.2c0-1.2,0.8-1.7,1.9-1.1
			C21.1,28.4,21.9,29.9,21.9,31.1z M20,31c0.5,0.3,0.9,0.1,0.9-0.5c0-0.6-0.4-1.3-0.9-1.6c-0.5-0.3-0.9-0.1-0.9,0.5
			C19.1,30,19.5,30.7,20,31L20,31z"/>
	</g>
	<g>
		<g>
			<path class="st16" d="M96,78c-0.5-0.3-0.9-0.1-0.9,0.5c0,0.6,0.4,1.3,0.9,1.6c0.5,0.3,0.9,0.1,0.9-0.5C97,79,96.5,78.3,96,78z"/>
		</g>
		<path class="st17" d="M97.9,80.2c0,1.2-0.8,1.7-1.9,1.1c-1-0.6-1.9-2-1.9-3.2c0-1.2,0.8-1.7,1.9-1.1C97.1,77.5,97.9,79,97.9,80.2z
			 M96,80.1c0.5,0.3,0.9,0.1,0.9-0.5c0-0.6-0.4-1.3-0.9-1.6c-0.5-0.3-0.9-0.1-0.9,0.5C95.1,79.1,95.5,79.8,96,80.1L96,80.1z"/>
	</g>
	<g>
		<g class="st18">
			<path class="st6" d="M20,26.9c-1.5-0.9-2.8-0.2-2.8,1.6c0,1.8,1.2,3.9,2.7,4.8c1.5,0.9,2.8,0.2,2.8-1.6
				C22.8,29.9,21.5,27.7,20,26.9z"/>
		</g>
		<g class="st18">
			<g>
				<path class="st6" d="M20,34c-1.9-1.1-3.4-3.8-3.4-6c0-1.5,0.8-2.5,2-2.5c0.5,0,1,0.2,1.6,0.5c1.9,1.1,3.4,3.8,3.4,6
					c0,1.5-0.8,2.5-2,2.5C21,34.5,20.5,34.3,20,34z M16.7,28c0,2.1,1.5,4.7,3.4,5.8c0.5,0.3,1,0.5,1.5,0.5c1.1,0,1.8-0.9,1.8-2.3
					c0-2.1-1.5-4.7-3.4-5.8c-0.5-0.3-1-0.5-1.5-0.5C17.4,25.7,16.7,26.6,16.7,28z"/>
			</g>
		</g>
		<g class="st19">
			<path class="st6" d="M20,28.3c-0.8-0.5-1.5-0.1-1.5,0.9c0,1,0.7,2.1,1.5,2.6c0.8,0.5,1.5,0.1,1.5-0.9
				C21.5,29.9,20.9,28.8,20,28.3z"/>
		</g>
		<g>
			<g>
				<path class="st6" d="M20,28.6c-0.7-0.4-1.2-0.1-1.2,0.7c0,0.8,0.5,1.7,1.2,2.1c0.7,0.4,1.2,0.1,1.2-0.7
					C21.3,29.9,20.7,29,20,28.6z"/>
			</g>
			<g>
				<path class="st20" d="M20,29.2c-0.4-0.2-0.7,0-0.7,0.4c0,0.4,0.3,1,0.7,1.2c0.4,0.2,0.7,0,0.7-0.4C20.7,29.9,20.4,29.4,20,29.2z
					"/>
			</g>
		</g>
	</g>
	<g>
		<g class="st18">
			<path class="st6" d="M46.6,20.6c-1.5-0.9-2.8-0.2-2.8,1.6c0,1.8,1.2,3.9,2.7,4.8c1.5,0.9,2.8,0.2,2.8-1.6
				C49.4,23.6,48.1,21.5,46.6,20.6z"/>
		</g>
		<g class="st18">
			<g>
				<path class="st6" d="M46.5,27.8c-1.9-1.1-3.4-3.8-3.4-6c0-1.5,0.8-2.5,2-2.5c0.5,0,1,0.2,1.6,0.5c1.9,1.1,3.5,3.8,3.4,6
					c0,1.5-0.8,2.5-2,2.5C47.6,28.2,47.1,28.1,46.5,27.8z M43.3,21.8c0,2.1,1.5,4.7,3.4,5.8c0.5,0.3,1,0.5,1.5,0.5
					c1.1,0,1.8-0.9,1.8-2.3c0-2.1-1.5-4.7-3.4-5.8c-0.5-0.3-1-0.5-1.5-0.5C44,19.5,43.3,20.4,43.3,21.8z"/>
			</g>
		</g>
		<g class="st19">
			<path class="st6" d="M46.6,22.1c-0.8-0.5-1.5-0.1-1.5,0.9c0,1,0.7,2.1,1.5,2.6c0.8,0.5,1.5,0.1,1.5-0.9
				C48.1,23.7,47.4,22.5,46.6,22.1z"/>
		</g>
		<g>
			<g>
				<path class="st6" d="M46.6,22.3c-0.7-0.4-1.2-0.1-1.2,0.7c0,0.8,0.5,1.7,1.2,2.1c0.7,0.4,1.2,0.1,1.2-0.7
					C47.8,23.7,47.3,22.7,46.6,22.3z"/>
			</g>
			<g>
				<path class="st20" d="M46.6,23c-0.4-0.2-0.7,0-0.7,0.4c0,0.4,0.3,1,0.7,1.2c0.4,0.2,0.7,0,0.7-0.4C47.3,23.7,47,23.2,46.6,23z"
					/>
			</g>
		</g>
	</g>
	<g>
		<g class="st18">
			<path class="st6" d="M68.1,48.6c-1.5-0.9-2.8-0.2-2.8,1.6c0,1.8,1.2,3.9,2.7,4.8c1.5,0.9,2.8,0.2,2.8-1.6
				C70.9,51.7,69.7,49.5,68.1,48.6z"/>
		</g>
		<g class="st18">
			<g>
				<path class="st6" d="M68.1,55.8c-1.9-1.1-3.4-3.8-3.4-6c0-1.5,0.8-2.5,2-2.5c0.5,0,1,0.2,1.6,0.5c1.9,1.1,3.4,3.8,3.4,6
					c0,1.5-0.8,2.5-2,2.5C69.1,56.3,68.6,56.1,68.1,55.8z M64.8,49.8c0,2.1,1.5,4.7,3.4,5.8c0.5,0.3,1,0.5,1.5,0.5
					c1.1,0,1.8-0.9,1.8-2.3c0-2.1-1.5-4.7-3.4-5.8c-0.5-0.3-1-0.5-1.5-0.5C65.5,47.5,64.8,48.4,64.8,49.8z"/>
			</g>
		</g>
		<g class="st19">
			<path class="st6" d="M68.1,50.1c-0.8-0.5-1.5-0.1-1.5,0.9c0,1,0.7,2.1,1.5,2.6c0.8,0.5,1.5,0.1,1.5-0.9
				C69.6,51.7,69,50.6,68.1,50.1z"/>
		</g>
		<g>
			<g>
				<path class="st6" d="M68.1,50.4c-0.7-0.4-1.2-0.1-1.2,0.7c0,0.8,0.5,1.7,1.2,2.1c0.7,0.4,1.2,0.1,1.2-0.7
					C69.4,51.7,68.8,50.8,68.1,50.4z"/>
			</g>
			<g>
				<path class="st20" d="M68.1,51c-0.4-0.2-0.7,0-0.7,0.4c0,0.4,0.3,1,0.7,1.2c0.4,0.2,0.7,0,0.7-0.4C68.8,51.7,68.5,51.2,68.1,51z
					"/>
			</g>
		</g>
	</g>
	<g>
		<g class="st18">
			<path class="st6" d="M85.4,63.2c-1.5-0.9-2.8-0.2-2.8,1.6c0,1.8,1.2,3.9,2.7,4.8c1.5,0.9,2.8,0.2,2.8-1.6
				C88.1,66.2,86.9,64.1,85.4,63.2z"/>
		</g>
		<g class="st18">
			<g>
				<path class="st6" d="M85.3,70.3c-1.9-1.1-3.4-3.8-3.4-6c0-1.5,0.8-2.5,2-2.5c0.5,0,1,0.2,1.6,0.5c1.9,1.1,3.4,3.8,3.4,6
					c0,1.5-0.8,2.5-2,2.5C86.4,70.8,85.9,70.7,85.3,70.3z M82.1,64.4c0,2.1,1.5,4.7,3.4,5.8c0.5,0.3,1,0.5,1.5,0.5
					c1.1,0,1.8-0.9,1.8-2.3c0-2.1-1.5-4.7-3.4-5.8c-0.5-0.3-1-0.5-1.5-0.5C82.8,62.1,82.1,63,82.1,64.4z"/>
			</g>
		</g>
		<g class="st19">
			<path class="st6" d="M85.4,64.6c-0.8-0.5-1.5-0.1-1.5,0.9c0,1,0.7,2.1,1.5,2.6c0.8,0.5,1.5,0.1,1.5-0.9
				C86.9,66.3,86.2,65.1,85.4,64.6z"/>
		</g>
		<g>
			<g>
				<path class="st6" d="M85.4,64.9c-0.7-0.4-1.2-0.1-1.2,0.7c0,0.8,0.5,1.7,1.2,2.1c0.7,0.4,1.2,0.1,1.2-0.7
					C86.6,66.3,86.1,65.3,85.4,64.9z"/>
			</g>
			<g>
				<path class="st20" d="M85.4,65.6c-0.4-0.2-0.7,0-0.7,0.4c0,0.4,0.3,1,0.7,1.2c0.4,0.2,0.7,0,0.7-0.4
					C86.1,66.3,85.8,65.8,85.4,65.6z"/>
			</g>
		</g>
	</g>
	<g>
		<g class="st18">
			<path class="st6" d="M96,75.9c-1.5-0.9-2.8-0.2-2.8,1.6c0,1.8,1.2,3.9,2.7,4.8c1.5,0.9,2.8,0.2,2.8-1.6
				C98.8,78.9,97.6,76.8,96,75.9z"/>
		</g>
		<g class="st18">
			<g>
				<path class="st6" d="M96,83c-1.9-1.1-3.4-3.8-3.4-6c0-1.5,0.8-2.5,2-2.5c0.5,0,1,0.2,1.6,0.5c1.9,1.1,3.4,3.8,3.4,6
					c0,1.5-0.8,2.5-2,2.5C97,83.5,96.5,83.3,96,83z M92.7,77.1c0,2.1,1.5,4.7,3.4,5.8c0.5,0.3,1,0.5,1.5,0.5c1.1,0,1.8-0.9,1.8-2.3
					c0-2.1-1.5-4.7-3.4-5.8c-0.5-0.3-1-0.5-1.5-0.5C93.4,74.7,92.7,75.6,92.7,77.1z"/>
			</g>
		</g>
		<g class="st19">
			<path class="st6" d="M96,77.3c-0.8-0.5-1.5-0.1-1.5,0.9c0,1,0.7,2.1,1.5,2.6c0.8,0.5,1.5,0.1,1.5-0.9C97.5,79,96.9,77.8,96,77.3z
				"/>
		</g>
		<g>
			<g>
				<path class="st6" d="M96,77.6c-0.7-0.4-1.2-0.1-1.2,0.7c0,0.8,0.5,1.7,1.2,2.1c0.7,0.4,1.2,0.1,1.2-0.7C97.3,79,96.7,78,96,77.6
					z"/>
			</g>
			<g>
				<path class="st20" d="M96,78.2c-0.4-0.2-0.7,0-0.7,0.4c0,0.4,0.3,1,0.7,1.2c0.4,0.2,0.7,0,0.7-0.4C96.7,79,96.4,78.5,96,78.2z"
					/>
			</g>
		</g>
	</g>
</g>
<g>
	<linearGradient id="SVGID_3_" gradientUnits="userSpaceOnUse" x1="20.3799" y1="49.4423" x2="29.582" y2="49.4423">
		<stop  offset="0" style="stop-color:#48CDFC"/>
		<stop  offset="0.5902" style="stop-color:#3E8FFB"/>
		<stop  offset="1" style="stop-color:#3868FB"/>
	</linearGradient>
	<path class="st21" d="M21.4,48.5c-0.1,0-0.2-0.1-0.3-0.1c0,0,0,0,0,0c-0.1,0-0.2,0-0.3,0c0,0,0,0,0,0c-0.1,0-0.2,0.1-0.3,0.1
		l0.6-0.3l1.5-0.8c0,0,0.1,0,0.1-0.1c0,0,0.1,0,0.1,0c0,0,0.1,0,0.1,0c0,0,0,0,0,0c0,0,0,0,0,0c0,0,0.1,0,0.1,0c0,0,0.1,0,0.1,0
		c0,0,0.1,0,0.1,0c0,0,0,0,0,0c0,0,0,0,0,0c0.1,0,0.1,0,0.2,0c0,0,0.1,0,0.1,0c0,0,0,0,0.1,0c0,0,0,0,0,0c0.1,0,0.2,0.1,0.3,0.2
		c0.5,0.3,1.1,0.8,1.7,1.3c0.6,0.5,1.2,1,1.7,1.4c0.1,0.1,0.2,0.1,0.4,0.2c0.1,0,0.1,0,0.2,0.1c0,0,0.1,0,0.1,0c0.1,0,0.2,0,0.3,0.1
		c0,0,0,0,0,0c0.1,0,0.2,0,0.3,0c0.2,0,0.4-0.1,0.5-0.1c0,0,0,0,0.1,0c0.2-0.1,0.3-0.1,0.5-0.2c-0.7,0.4-1.3,0.8-2,1.2c0,0,0,0,0,0
		c-0.1,0-0.2,0.1-0.3,0.1c0,0-0.1,0-0.1,0.1c0,0,0,0-0.1,0c0,0,0,0-0.1,0c-0.1,0-0.2,0-0.3,0.1c-0.1,0-0.1,0-0.2,0c0,0,0,0,0,0
		c-0.1,0-0.1,0-0.2,0c0,0-0.1,0-0.1,0c0,0,0,0-0.1,0c0,0,0,0,0,0c-0.1,0-0.1,0-0.2,0c0,0,0,0,0,0c0,0-0.1,0-0.1,0c0,0-0.1,0-0.1-0.1
		c0,0,0,0,0,0c-0.1-0.1-0.2-0.1-0.4-0.2c-0.6-0.3-1.2-0.8-1.7-1.4c-0.6-0.5-1.1-1-1.7-1.3C21.7,48.6,21.6,48.5,21.4,48.5
		C21.5,48.5,21.4,48.5,21.4,48.5z"/>
	<linearGradient id="SVGID_4_" gradientUnits="userSpaceOnUse" x1="29.9941" y1="51.1744" x2="44.8799" y2="51.1744">
		<stop  offset="0" style="stop-color:#48CDFC"/>
		<stop  offset="0.5902" style="stop-color:#3E8FFB"/>
		<stop  offset="1" style="stop-color:#3868FB"/>
	</linearGradient>
	<path class="st22" d="M31.8,49.1c-0.1,0-0.1,0-0.2-0.1c-0.1,0-0.1,0-0.2,0c-0.1,0-0.2,0-0.2,0c0,0-0.1,0-0.1,0c-0.1,0-0.2,0-0.3,0
		c0,0,0,0-0.1,0c-0.1,0-0.2,0-0.2,0c0,0,0,0-0.1,0c-0.1,0-0.2,0-0.2,0.1c0,0,0,0,0,0c-0.1,0-0.2,0.1-0.3,0.1c0,0,0,0,0,0l1.5-0.9
		c0.2-0.1,0.3-0.2,0.5-0.3c0,0,0,0,0,0c0.1,0,0.2-0.1,0.2-0.1c0,0,0,0,0,0c0,0,0,0,0,0c0.1,0,0.1,0,0.2-0.1c0,0,0,0,0.1,0
		c0,0,0,0,0.1,0c0,0,0.1,0,0.1,0c0,0,0.1,0,0.1,0c0,0,0,0,0.1,0c0,0,0,0,0,0c0.1,0,0.2,0,0.2,0c0,0,0,0,0,0c0,0,0.1,0,0.1,0
		c0,0,0.1,0,0.1,0c0,0,0.1,0,0.1,0c0,0,0.1,0,0.1,0c0,0,0.1,0,0.1,0c0,0,0.1,0,0.1,0c0.1,0,0.2,0.1,0.3,0.1c0,0,0.1,0,0.1,0
		c0,0,0,0,0.1,0c0.2,0.1,0.4,0.2,0.6,0.3c1.6,1,3.8,2.6,5.8,3.7c0.3,0.2,0.5,0.3,0.8,0.4c0.1,0,0.1,0.1,0.2,0.1
		c0.2,0.1,0.4,0.2,0.6,0.3c0.1,0,0.1,0.1,0.2,0.1c0.3,0.1,0.5,0.2,0.7,0.2c0.1,0,0.2,0.1,0.3,0.1c0.1,0,0.1,0,0.2,0
		c0.1,0,0.3,0,0.4,0c0,0,0,0,0.1,0c0.1,0,0.3,0,0.4,0c0,0,0,0,0,0c0.1,0,0.2-0.1,0.4-0.1c0,0,0,0,0,0l-2,1.2c0,0-0.1,0-0.1,0.1
		c0,0-0.1,0-0.1,0.1c0,0,0,0-0.1,0c0,0,0,0,0,0c0,0,0,0-0.1,0c-0.1,0-0.1,0-0.2,0c0,0-0.1,0-0.1,0c0,0,0,0-0.1,0c0,0,0,0-0.1,0
		c-0.1,0-0.2,0-0.3,0c0,0,0,0,0,0c-0.1,0-0.1,0-0.2,0c-0.1,0-0.2,0-0.3-0.1c0,0,0,0-0.1,0c-0.2-0.1-0.5-0.1-0.7-0.2c0,0,0,0,0,0
		c0,0-0.1,0-0.1-0.1c-0.2-0.1-0.4-0.2-0.6-0.3c-0.1,0-0.1-0.1-0.2-0.1c-0.3-0.1-0.5-0.3-0.8-0.4c-2-1.1-4.1-2.7-5.8-3.7
		c-0.2-0.1-0.4-0.2-0.6-0.3c-0.1,0-0.1-0.1-0.2-0.1C32,49.1,31.9,49.1,31.8,49.1z"/>
	<linearGradient id="SVGID_5_" gradientUnits="userSpaceOnUse" x1="48.4873" y1="65.0801" x2="86.7763" y2="65.0801">
		<stop  offset="0" style="stop-color:#48CDFC"/>
		<stop  offset="0.5902" style="stop-color:#3E8FFB"/>
		<stop  offset="1" style="stop-color:#3868FB"/>
	</linearGradient>
	<path class="st23" d="M50.4,43.2C50.4,43.2,50.4,43.2,50.4,43.2c-0.2,0-0.3,0-0.4,0c0,0-0.1,0-0.1,0c-0.1,0-0.2,0-0.3,0
		c0,0-0.1,0-0.1,0c-0.1,0-0.2,0-0.4,0.1c0,0,0,0,0,0c-0.1,0-0.2,0.1-0.3,0.1c-0.1,0-0.1,0.1-0.2,0.1c-0.1,0-0.1,0.1-0.2,0.1l2-1.2
		c0,0,0,0,0,0c0.1,0,0.1-0.1,0.2-0.1c0.1,0,0.1-0.1,0.2-0.1c0,0,0,0,0,0c0.1,0,0.2-0.1,0.3-0.1c0,0,0,0,0.1,0c0,0,0,0,0,0
		c0.1,0,0.2-0.1,0.3-0.1c0,0,0,0,0,0c0,0,0.1,0,0.1,0c0.1,0,0.1,0,0.2,0c0,0,0.1,0,0.1,0c0,0,0.1,0,0.1,0c0,0,0.1,0,0.1,0
		c0.1,0,0.1,0,0.2,0c0,0,0.1,0,0.1,0c0,0,0,0,0,0c0.1,0,0.2,0,0.3,0.1c0,0,0,0,0,0c0.1,0,0.3,0.1,0.4,0.2c0,0,0,0,0,0
		c0.1,0.1,0.3,0.1,0.4,0.2c0.2,0.1,0.4,0.2,0.5,0.4c0.1,0,0.1,0.1,0.2,0.1c0.2,0.1,0.3,0.3,0.5,0.4c0,0,0.1,0,0.1,0.1c0,0,0,0,0,0
		c0.1,0.1,0.2,0.2,0.3,0.4c0,0.1,0.1,0.1,0.1,0.1c0,0,0,0,0,0c0.1,0.1,0.1,0.1,0.2,0.2c0.1,0.1,0.2,0.2,0.3,0.3c0,0,0,0,0,0
		c0.1,0.1,0.1,0.2,0.2,0.2c0.1,0.1,0.2,0.2,0.2,0.3c0,0,0,0.1,0.1,0.1c0.1,0.1,0.1,0.2,0.2,0.3c0.1,0.1,0.1,0.2,0.2,0.3
		c0,0,0,0.1,0.1,0.1c0.1,0.1,0.2,0.3,0.3,0.5c0,0.1,0.1,0.2,0.1,0.2c0.1,0.1,0.1,0.2,0.2,0.3c0.4,0.8,0.8,1.5,1.2,2.2
		c0,0.1,0.1,0.1,0.1,0.2c0.1,0.1,0.1,0.2,0.1,0.3c0.9,1.8,1.7,3.4,2.5,4.9c0,0.1,0.1,0.1,0.1,0.2c0.1,0.1,0.1,0.2,0.2,0.4
		c0.1,0.2,0.2,0.5,0.3,0.7c0.2,0.3,0.3,0.7,0.5,1c0.1,0.2,0.2,0.4,0.3,0.7c0.2,0.4,0.3,0.7,0.5,1.1c0.1,0.2,0.2,0.4,0.3,0.5
		c0.2,0.4,0.4,0.9,0.7,1.3c0,0.1,0.1,0.1,0.1,0.2c0.2,0.4,0.4,0.8,0.6,1.2c0.1,0.3,0.3,0.5,0.4,0.7c0,0.1,0.1,0.1,0.1,0.2
		c0.2,0.3,0.4,0.6,0.6,0.8c0,0.1,0.1,0.1,0.1,0.2c0.2,0.2,0.3,0.4,0.5,0.6c0,0.1,0.1,0.1,0.1,0.2c0.2,0.2,0.4,0.5,0.6,0.7
		c0.2,0.2,0.3,0.3,0.5,0.4c0.1,0.1,0.1,0.1,0.2,0.2c0.2,0.2,0.5,0.4,0.7,0.5c0.2,0.1,0.5,0.2,0.7,0.3c0.1,0,0.2,0.1,0.3,0.1
		c0.1,0.1,0.3,0.1,0.4,0.1c0.1,0,0.3,0.1,0.5,0.1c0.1,0,0.2,0,0.3,0.1c0.2,0,0.5,0.1,0.8,0.1c0.1,0,0.2,0,0.3,0c0,0,0.1,0,0.1,0
		c0.1,0,0.1,0,0.2,0c0.1,0,0.1,0,0.2,0c0,0,0.1,0,0.1,0c0.1,0,0.2,0.1,0.3,0.1c0,0,0.1,0,0.1,0c0,0,0,0,0.1,0
		c0.2,0.1,0.4,0.2,0.6,0.3c0.7,0.4,1.4,1,2.2,1.7c0,0,0.1,0.1,0.1,0.1l0,0c0.4,0.4,0.7,0.8,1.1,1.2c0,0,0,0,0,0c0,0,0,0,0,0
		c0.3,0.4,0.7,0.8,1,1.2c0,0,0,0,0.1,0.1c0,0,0,0,0,0c0.4,0.5,0.7,0.9,1,1.4c0,0,0,0,0,0.1c0,0,0,0,0,0c0.4,0.6,0.8,1.2,1.2,1.8
		c0,0,0,0,0,0c0,0,0,0,0,0.1c0.5,0.7,0.9,1.5,1.4,2.3c0,0,0,0,0,0c0,0,0,0,0,0.1c0.3,0.5,0.5,0.9,0.8,1.4c0,0,0,0,0,0.1
		c0.2,0.4,0.5,0.9,0.7,1.3c0,0,0.1,0.1,0.1,0.1c0,0,0,0.1,0,0.1c0.2,0.3,0.3,0.6,0.4,0.8c0,0.1,0.1,0.2,0.1,0.3
		c0.1,0.2,0.2,0.4,0.3,0.6c0,0.1,0.1,0.2,0.1,0.3c0.1,0.2,0.2,0.4,0.3,0.6c0,0.1,0.1,0.1,0.1,0.2c0.1,0.2,0.2,0.5,0.4,0.7
		c0,0,0,0,0,0c0.1,0.1,0.1,0.3,0.2,0.4c0,0,0,0.1,0.1,0.1c0.1,0.1,0.1,0.2,0.2,0.3c0,0.1,0.1,0.1,0.1,0.2c0,0.1,0.1,0.1,0.1,0.2
		c0.4,0.9,0.7,1.4,0.7,1.6l-2,1.2c-0.1-0.1-0.3-0.7-0.7-1.6c0,0,0-0.1-0.1-0.1c0-0.1-0.1-0.2-0.1-0.3c0-0.1-0.1-0.1-0.1-0.2
		c0-0.1-0.1-0.2-0.1-0.3c0-0.1-0.1-0.2-0.1-0.3c-0.1-0.2-0.2-0.5-0.4-0.7c0-0.1-0.1-0.1-0.1-0.2c-0.1-0.2-0.2-0.4-0.3-0.7
		c0-0.1-0.1-0.1-0.1-0.2c-0.1-0.2-0.3-0.5-0.4-0.8c0,0,0-0.1-0.1-0.1c-0.2-0.3-0.3-0.6-0.5-0.9c0,0,0,0,0-0.1
		c-0.2-0.5-0.5-0.9-0.8-1.4c0,0,0,0,0-0.1c-0.3-0.5-0.5-0.9-0.8-1.4c0,0,0-0.1-0.1-0.1c-0.4-0.8-0.9-1.5-1.4-2.3c0,0,0-0.1-0.1-0.1
		c-0.4-0.6-0.8-1.2-1.2-1.8c0,0,0,0,0-0.1c-0.3-0.5-0.7-1-1-1.4c0,0-0.1-0.1-0.1-0.1c-0.3-0.4-0.7-0.8-1-1.2
		c-0.4-0.4-0.7-0.8-1.1-1.2c0,0,0,0,0,0c-0.4-0.4-0.7-0.7-1.1-1c0,0-0.1-0.1-0.1-0.1c-0.2-0.1-0.3-0.2-0.5-0.3
		c-0.2-0.1-0.4-0.3-0.6-0.4c-0.2-0.1-0.4-0.2-0.6-0.3c-0.1,0-0.1-0.1-0.2-0.1c-0.1,0-0.2-0.1-0.3-0.1c-0.1,0-0.2,0-0.3-0.1
		c-0.1,0-0.1,0-0.2,0c-0.1,0-0.3,0-0.4-0.1c-0.3,0-0.5,0-0.7-0.1c0,0,0,0,0,0c-0.1,0-0.2,0-0.3-0.1c-0.1,0-0.3,0-0.4-0.1
		c0,0,0,0,0,0c-0.2,0-0.3-0.1-0.4-0.1c-0.1,0-0.2-0.1-0.2-0.1c0,0,0,0,0,0c-0.2-0.1-0.5-0.2-0.7-0.3c-0.3-0.1-0.5-0.3-0.7-0.5
		c-0.1-0.1-0.2-0.2-0.3-0.2c-0.1-0.1-0.3-0.2-0.4-0.4c0,0,0,0,0,0c-0.2-0.2-0.4-0.4-0.5-0.6c0,0,0-0.1-0.1-0.1c0,0-0.1-0.1-0.1-0.1
		c-0.1-0.1-0.2-0.2-0.3-0.3c-0.1-0.1-0.1-0.2-0.2-0.3c0-0.1-0.1-0.1-0.1-0.2c0,0-0.1-0.1-0.1-0.1c-0.2-0.2-0.3-0.4-0.5-0.7
		c0,0,0,0,0,0c0-0.1-0.1-0.2-0.1-0.2c-0.1-0.2-0.3-0.4-0.4-0.6c0,0,0-0.1,0-0.1c-0.2-0.4-0.4-0.7-0.6-1.1c0,0,0,0,0-0.1
		c0,0-0.1-0.1-0.1-0.1c-0.2-0.4-0.4-0.8-0.6-1.3c-0.1-0.2-0.2-0.3-0.2-0.5c-0.2-0.4-0.4-0.8-0.6-1.1c0-0.1,0-0.1-0.1-0.2
		c-0.1-0.1-0.1-0.2-0.2-0.4c-0.2-0.5-0.4-0.9-0.7-1.4c-0.1-0.1-0.1-0.2-0.2-0.4c-0.1-0.2-0.2-0.5-0.3-0.7c-0.3-0.7-0.7-1.4-1.1-2.2
		c0-0.1-0.1-0.1-0.1-0.2c-0.4-0.8-0.8-1.6-1.3-2.4c-0.1-0.2-0.2-0.4-0.3-0.6c-0.4-0.7-0.8-1.4-1.2-2.2c-0.1-0.2-0.2-0.4-0.3-0.6
		c-0.1-0.1-0.2-0.3-0.2-0.4c-0.1-0.1-0.2-0.3-0.3-0.4c-0.1-0.1-0.1-0.2-0.2-0.3c-0.1-0.1-0.2-0.3-0.3-0.4c-0.1-0.1-0.1-0.2-0.2-0.2
		c-0.1-0.1-0.2-0.2-0.3-0.3c-0.1-0.1-0.1-0.1-0.2-0.2c0-0.1-0.1-0.1-0.1-0.2c-0.1-0.1-0.2-0.3-0.3-0.4c0,0-0.1-0.1-0.1-0.1
		c-0.2-0.1-0.3-0.3-0.5-0.4c-0.1,0-0.1-0.1-0.2-0.1c-0.2-0.1-0.4-0.3-0.5-0.4c-0.1-0.1-0.3-0.2-0.4-0.2c-0.1-0.1-0.3-0.1-0.4-0.2
		C50.7,43.2,50.6,43.2,50.4,43.2z"/>
</g>
<g>
	<linearGradient id="SVGID_6_" gradientUnits="userSpaceOnUse" x1="19.1631" y1="65.6584" x2="84.7822" y2="65.6584">
		<stop  offset="0" style="stop-color:#1FC6A6"/>
		<stop  offset="1" style="stop-color:#5FEFC0"/>
	</linearGradient>
	<path class="st24" d="M51.7,43.6c-4.6-2.6-7.5,6.2-8.1,9.5c-0.4,2.2-2.5,1.6-5,0.2c-2-1.1-4.1-2.7-5.8-3.7
		c-3.7-2.1-3.7,1.9-6.4,2.1c-0.4,0-0.9-0.1-1.3-0.4c-0.6-0.3-1.2-0.8-1.7-1.4c-0.6-0.5-1.1-1-1.7-1.3c-1-0.6-2-0.4-2.7,1.9
		l65.6,37.6c-0.3-0.8-7-15.9-13-19.4c-0.7-0.4-1.4-0.6-2-0.7c-1.1-0.1-2-0.3-2.9-0.8c-4.1-2.4-5.9-9.5-11.5-19.3
		C54.1,45.6,52.8,44.3,51.7,43.6z"/>
</g>
<g>
	<path class="st25" d="M16.4,54.1c-0.3-0.1-0.6-0.2-0.8-0.3c-0.1,0-0.2-0.1-0.2-0.1c-0.2-0.1-0.4-0.1-0.6-0.2c-0.1,0-0.1,0-0.2-0.1
		c-0.2-0.1-0.5-0.2-0.7-0.3c0,0,0,0-0.1,0c-0.2-0.1-0.4-0.1-0.6-0.2c-0.1,0-0.1,0-0.2-0.1c-0.2,0-0.3-0.1-0.5-0.1c0,0-0.1,0-0.1,0
		c-0.2-0.1-0.4-0.1-0.5-0.2c-0.2-0.1-0.4-0.1-0.6-0.1c-0.1,0-0.1,0-0.2,0c-0.1,0-0.2-0.1-0.4-0.1c-0.1,0-0.1,0-0.2,0
		c-0.1,0-0.2,0-0.3-0.1c-0.1,0-0.1,0-0.2,0c-0.1,0-0.2,0-0.2,0c0,0-0.1,0-0.1,0c0,0-0.1,0-0.1,0c0,0-0.1,0-0.1,0c0,0-0.1,0-0.1,0
		c0,0-0.1,0-0.1,0c0,0,0,0-0.1,0c0,0-0.1,0-0.1,0c0,0,0,0,0,0c-0.1,0-0.1,0-0.1,0l2.4-1.4c0,0,0.1,0,0.1,0c0,0,0,0,0,0c0,0,0,0,0,0
		c0,0,0.1,0,0.1,0c0,0,0,0,0.1,0c0,0,0.1,0,0.1,0c0,0,0.1,0,0.1,0c0,0,0.1,0,0.1,0c0,0,0.1,0,0.1,0c0,0,0.1,0,0.1,0c0,0,0,0,0.1,0
		c0.1,0,0.1,0,0.2,0c0.1,0,0.1,0,0.2,0c0.1,0,0.2,0,0.3,0.1c0.1,0,0.1,0,0.2,0c0.1,0,0.2,0.1,0.4,0.1c0,0,0.1,0,0.1,0
		c0.2,0,0.4,0.1,0.6,0.1c0,0,0,0,0,0c0.2,0,0.3,0.1,0.5,0.1c0.1,0,0.1,0,0.2,0c0.1,0,0.3,0.1,0.4,0.1c0.1,0,0.1,0,0.2,0.1
		c0.2,0.1,0.4,0.1,0.6,0.2c0,0,0.1,0,0.1,0c0.2,0.1,0.5,0.2,0.7,0.2c0.1,0,0.2,0.1,0.2,0.1c0.2,0.1,0.4,0.1,0.6,0.2
		c0.1,0,0.2,0.1,0.3,0.1c0.3,0.1,0.5,0.2,0.8,0.3c0.3,0.1,0.6,0.2,0.9,0.3c0.1,0,0.2,0,0.2,0.1c0.2,0.1,0.4,0.1,0.5,0.1
		c0.2,0,0.3,0.1,0.5,0.1c0.1,0,0.3,0.1,0.4,0.1c0.1,0,0.2,0,0.3,0c0.2,0,0.3,0,0.5,0c0.1,0,0.2,0,0.3,0c0.2,0,0.3,0,0.5,0
		c0.1,0,0.1,0,0.2,0c0.2,0,0.4-0.1,0.6-0.1c0.1,0,0.1,0,0.2-0.1c0.1,0,0.3-0.1,0.4-0.2c0.1-0.1,0.2-0.1,0.4-0.2
		c0.1,0,0.2-0.1,0.3-0.2l-2.4,1.4c0,0,0,0-0.1,0c-0.1,0-0.1,0.1-0.2,0.1c-0.1,0.1-0.2,0.1-0.4,0.2c0,0,0,0,0,0
		c-0.1,0.1-0.2,0.1-0.4,0.1c-0.1,0-0.1,0-0.2,0.1c0,0,0,0,0,0c-0.2,0.1-0.4,0.1-0.6,0.1c0,0,0,0,0,0c-0.1,0-0.1,0-0.2,0
		c-0.1,0-0.2,0-0.4,0c0,0-0.1,0-0.1,0c-0.1,0-0.2,0-0.3,0c-0.1,0-0.2,0-0.2,0c-0.1,0-0.1,0-0.2,0c-0.1,0-0.2,0-0.4,0
		c-0.1,0-0.1,0-0.2,0c-0.1,0-0.1,0-0.2,0c-0.2,0-0.3-0.1-0.5-0.1c-0.1,0-0.1,0-0.2,0c-0.1,0-0.2-0.1-0.3-0.1c-0.1,0-0.2,0-0.3-0.1
		C17,54.3,16.7,54.2,16.4,54.1z"/>
	<path class="st25" d="M28.4,50.2c0,0-0.1,0-0.1,0c0,0-0.1,0-0.1,0c-0.1,0-0.1,0-0.2,0c0,0,0,0-0.1,0c-0.1,0-0.1,0-0.2,0
		c0,0,0,0-0.1,0c-0.1,0-0.2,0-0.2,0c0,0,0,0-0.1,0c-0.1,0-0.1,0-0.2,0.1c0,0,0,0-0.1,0c-0.1,0-0.2,0.1-0.2,0.1c0,0,0,0,0,0l1-0.6
		l1.4-0.8c0,0,0,0,0,0c0.1,0,0.1-0.1,0.2-0.1c0,0,0,0,0,0c0,0,0,0,0.1,0c0,0,0.1,0,0.1,0c0,0,0.1,0,0.1,0c0,0,0,0,0.1,0c0,0,0,0,0,0
		c0.1,0,0.1,0,0.2,0c0,0,0,0,0,0c0,0,0,0,0.1,0c0,0,0.1,0,0.1,0c0,0,0,0,0.1,0c0,0,0.1,0,0.1,0c0,0,0,0,0.1,0c0,0,0.1,0,0.1,0
		c0,0,0.1,0,0.1,0c0,0,0,0,0,0c0,0,0.1,0,0.1,0c0.1,0,0.1,0,0.2,0.1c0,0,0,0,0,0c0,0,0,0,0,0c0.1,0.1,0.3,0.1,0.4,0.2
		c0.2,0.1,0.4,0.3,0.6,0.4c0.1,0.1,0.1,0.1,0.2,0.2c0.1,0.1,0.3,0.2,0.4,0.3c0.1,0.1,0.2,0.1,0.2,0.2c0.1,0.1,0.3,0.2,0.4,0.4
		c0.1,0.1,0.1,0.1,0.2,0.2c0,0,0.1,0.1,0.1,0.1c0.1,0.1,0.3,0.3,0.4,0.4c0.2,0.2,0.3,0.3,0.5,0.5c0.1,0.1,0.2,0.2,0.3,0.3
		c0.1,0.1,0.2,0.2,0.4,0.3c0.1,0.1,0.2,0.2,0.3,0.2c0.1,0.1,0.3,0.2,0.4,0.3c0.1,0.1,0.1,0.1,0.2,0.2c0.2,0.1,0.4,0.3,0.6,0.4
		c0.1,0.1,0.3,0.1,0.4,0.2c0,0,0.1,0,0.1,0c0.1,0,0.1,0,0.2,0.1c0,0,0.1,0,0.1,0c0,0,0.1,0,0.1,0c0.1,0,0.1,0,0.2,0c0,0,0,0,0.1,0
		c0.1,0,0.1,0,0.2,0c0,0,0,0,0.1,0c0.1,0,0.1,0,0.2,0c0,0,0,0,0.1,0c0.1,0,0.1,0,0.2-0.1c0,0,0,0,0.1,0c0.1,0,0.2-0.1,0.2-0.1
		l-2.4,1.4c0,0,0,0,0,0c-0.1,0-0.1,0.1-0.2,0.1c0,0,0,0,0,0c0,0,0,0-0.1,0c0,0-0.1,0-0.1,0c0,0-0.1,0-0.1,0c0,0,0,0-0.1,0
		c0,0,0,0,0,0c-0.1,0-0.1,0-0.2,0c0,0,0,0,0,0c0,0,0,0-0.1,0c0,0-0.1,0-0.1,0c0,0-0.1,0-0.1,0c0,0,0,0-0.1,0c0,0,0,0,0,0
		c0,0-0.1,0-0.1,0c0,0-0.1,0-0.1,0c0,0,0,0,0,0c0,0,0,0-0.1,0c-0.1,0-0.1,0-0.2-0.1c0,0,0,0,0,0c0,0,0,0,0,0
		c-0.1-0.1-0.3-0.1-0.4-0.2c-0.2-0.1-0.4-0.3-0.6-0.4c-0.1-0.1-0.1-0.1-0.2-0.2c-0.1-0.1-0.3-0.2-0.4-0.3c-0.1-0.1-0.2-0.1-0.2-0.2
		c-0.1-0.1-0.2-0.2-0.4-0.3c-0.1-0.1-0.2-0.2-0.3-0.3c0,0-0.1-0.1-0.1-0.1c-0.1-0.1-0.3-0.3-0.4-0.4c-0.2-0.2-0.4-0.4-0.5-0.5
		C31.1,52.1,31,52.1,31,52c-0.1-0.1-0.3-0.3-0.4-0.4c-0.1-0.1-0.1-0.1-0.2-0.2c-0.1-0.1-0.3-0.2-0.4-0.4c-0.1-0.1-0.1-0.1-0.2-0.2
		c-0.2-0.2-0.4-0.3-0.6-0.4c-0.1-0.1-0.3-0.1-0.4-0.2c0,0-0.1,0-0.1,0C28.6,50.2,28.5,50.2,28.4,50.2z"/>
</g>
<g class="st1">
	<defs>
		<path id="SVGID_7_" class="st1" d="M43.7,36.6L41.4,38c0.1,0,0.1-0.1,0.2-0.1c0.3-0.1,0.6-0.1,0.8,0.1l2.4-1.4
			c-0.3-0.2-0.5-0.2-0.8-0.1C43.9,36.5,43.8,36.6,43.7,36.6z"/>
	</defs>
	<clipPath id="SVGID_8_">
		<use xlink:href="#SVGID_7_"  style="overflow:visible;"/>
	</clipPath>
	<g class="st26">
		<path class="st27" d="M42.4,37.9l2.4-1.4c0,0-0.1,0-0.1-0.1l-2.4,1.4C42.3,37.9,42.4,37.9,42.4,37.9L42.4,37.9z"/>
		<path class="st28" d="M42.3,37.9l2.4-1.4c0,0-0.1,0-0.1,0l-2.4,1.4C42.2,37.8,42.2,37.9,42.3,37.9L42.3,37.9z"/>
		<path class="st29" d="M42.2,37.8l2.4-1.4c0,0-0.1,0-0.1,0L42.2,37.8C42.1,37.8,42.1,37.8,42.2,37.8L42.2,37.8z"/>
		<path class="st30" d="M42.1,37.8l2.4-1.4c0,0-0.1,0-0.1,0L42.1,37.8C42,37.8,42,37.8,42.1,37.8L42.1,37.8z"/>
		<path class="st31" d="M42,37.8l2.4-1.4c0,0-0.1,0-0.1,0L42,37.8C41.9,37.8,41.9,37.8,42,37.8L42,37.8z"/>
		<path class="st32" d="M41.9,37.8l2.4-1.4c0,0-0.1,0-0.1,0L41.9,37.8C41.8,37.8,41.8,37.8,41.9,37.8L41.9,37.8z"/>
		<path class="st33" d="M41.8,37.8l2.4-1.4c0,0-0.1,0-0.1,0L41.8,37.8C41.7,37.8,41.8,37.8,41.8,37.8L41.8,37.8z"/>
		<path class="st34" d="M41.7,37.8l2.4-1.4c0,0-0.1,0-0.1,0l-2.4,1.4C41.6,37.9,41.7,37.8,41.7,37.8L41.7,37.8z"/>
		<path class="st35" d="M41.6,37.9l2.4-1.4c0,0,0,0,0,0c-0.1,0-0.1,0.1-0.2,0.1L41.4,38C41.4,37.9,41.5,37.9,41.6,37.9
			C41.6,37.9,41.6,37.9,41.6,37.9L41.6,37.9z"/>
		<path class="st25" d="M41.4,38l2.4-1.4c0,0,0,0,0,0L41.4,38C41.4,38,41.4,38,41.4,38L41.4,38z"/>
	</g>
</g>
<linearGradient id="SVGID_9_" gradientUnits="userSpaceOnUse" x1="42.4121" y1="62.6363" x2="74.9951" y2="62.6363">
	<stop  offset="0" style="stop-color:#FD7B88"/>
	<stop  offset="1" style="stop-color:#F7366B"/>
</linearGradient>
<path class="st36" d="M48.5,55.5c-0.1-0.2-0.1-0.4-0.2-0.6c0-0.1-0.1-0.3-0.1-0.4c-0.1-0.2-0.1-0.4-0.2-0.6c0-0.2-0.1-0.3-0.1-0.5
	c0-0.1-0.1-0.3-0.1-0.4c-0.1-0.2-0.1-0.4-0.2-0.7c0-0.1-0.1-0.2-0.1-0.3c-0.1-0.3-0.2-0.6-0.3-1c-0.1-0.2-0.1-0.4-0.2-0.6
	c-0.1-0.3-0.2-0.7-0.3-1c-0.1-0.5-0.3-1-0.4-1.5c0-0.1-0.1-0.2-0.1-0.3c-0.1-0.4-0.2-0.8-0.3-1.2c0-0.1,0-0.2-0.1-0.2
	c-0.1-0.2-0.1-0.4-0.2-0.7c0-0.1-0.1-0.2-0.1-0.4c-0.1-0.2-0.1-0.4-0.2-0.6c0-0.1-0.1-0.3-0.1-0.4c0-0.2-0.1-0.3-0.1-0.4
	c0-0.2-0.1-0.3-0.1-0.5c0-0.1-0.1-0.2-0.1-0.4c-0.1-0.2-0.1-0.3-0.2-0.5c0-0.1,0-0.1-0.1-0.2c-0.1-0.2-0.1-0.4-0.2-0.6
	c0-0.1-0.1-0.2-0.1-0.2c-0.1-0.2-0.1-0.3-0.2-0.4c0-0.1-0.1-0.2-0.1-0.3c-0.1-0.1-0.1-0.2-0.2-0.4c0-0.1-0.1-0.1-0.1-0.2
	c-0.1-0.2-0.1-0.3-0.2-0.5c0,0,0,0,0,0c-0.1-0.2-0.2-0.3-0.3-0.5c0,0,0,0,0,0c-0.1-0.1-0.2-0.3-0.3-0.4c0,0,0,0,0,0
	c-0.1-0.1-0.1-0.2-0.2-0.2c0,0-0.1-0.1-0.1-0.1c-0.1-0.1-0.2-0.1-0.3-0.2l2.4-1.4c0.1,0,0.1,0.1,0.2,0.1c0,0,0,0,0.1,0.1
	c0,0,0.1,0.1,0.1,0.1c0,0,0.1,0.1,0.1,0.1c0,0,0.1,0.1,0.1,0.1c0,0,0,0,0,0c0,0,0,0,0,0c0,0.1,0.1,0.1,0.1,0.2
	c0,0.1,0.1,0.1,0.1,0.2c0,0,0,0,0,0c0,0,0,0,0,0c0,0,0.1,0.1,0.1,0.1c0.1,0.1,0.1,0.2,0.2,0.3c0,0,0,0,0,0c0,0,0,0,0,0.1
	c0,0.1,0.1,0.2,0.1,0.3c0,0.1,0.1,0.1,0.1,0.2c0,0.1,0.1,0.1,0.1,0.2c0,0,0,0.1,0.1,0.1c0,0.1,0.1,0.2,0.1,0.2
	c0,0.1,0.1,0.2,0.1,0.4c0,0,0,0.1,0.1,0.1c0,0.1,0.1,0.2,0.1,0.3c0,0.1,0.1,0.2,0.1,0.3c0.1,0.2,0.1,0.3,0.2,0.5
	c0,0.1,0.1,0.2,0.1,0.3c0,0,0,0,0,0.1c0,0.1,0.1,0.2,0.1,0.3c0.1,0.2,0.1,0.3,0.2,0.5c0,0.1,0.1,0.3,0.1,0.4c0,0.2,0.1,0.3,0.1,0.5
	c0,0.2,0.1,0.3,0.1,0.5c0,0.2,0.1,0.3,0.1,0.5c0,0.2,0.1,0.4,0.2,0.5c0,0.2,0.1,0.3,0.1,0.5c0,0,0,0.1,0,0.1c0,0.1,0.1,0.2,0.1,0.3
	c0.1,0.3,0.2,0.7,0.3,1c0,0.1,0.1,0.3,0.1,0.4c0.1,0.4,0.2,0.8,0.3,1.2c0.1,0.4,0.2,0.9,0.4,1.3c0,0.1,0.1,0.3,0.1,0.4
	c0.1,0.4,0.2,0.9,0.4,1.3c0,0,0,0.1,0,0.1c0.1,0.4,0.2,0.7,0.3,1.1c0,0.1,0.1,0.2,0.1,0.3c0.1,0.3,0.1,0.5,0.2,0.8
	c0,0.1,0.1,0.3,0.1,0.4c0.1,0.2,0.1,0.4,0.2,0.6c0,0.1,0.1,0.3,0.1,0.4c0.1,0.2,0.1,0.4,0.2,0.6c0.1,0.2,0.1,0.3,0.2,0.5
	c0,0.1,0.1,0.3,0.1,0.4c0.1,0.2,0.1,0.3,0.2,0.5c0,0.1,0.1,0.3,0.1,0.4c0,0.1,0.1,0.2,0.1,0.4c0.1,0.2,0.2,0.5,0.3,0.7
	c0,0.1,0.1,0.2,0.1,0.3c0,0.1,0.1,0.2,0.1,0.3c0.1,0.1,0.1,0.3,0.2,0.4c0,0.1,0.1,0.2,0.1,0.2c0.1,0.2,0.2,0.3,0.3,0.5
	c0,0,0,0.1,0,0.1c0.1,0.2,0.2,0.4,0.3,0.5c0,0,0,0.1,0.1,0.1c0.1,0.2,0.2,0.3,0.3,0.4c0,0,0,0,0.1,0.1c0.1,0.1,0.2,0.2,0.2,0.3
	c0,0,0.1,0.1,0.1,0.1c0.1,0.1,0.2,0.2,0.4,0.3c0.1,0.1,0.3,0.2,0.4,0.3c0,0,0.1,0.1,0.1,0.1c0.1,0.1,0.2,0.1,0.2,0.2c0,0,0,0,0,0
	c0.1,0.1,0.3,0.3,0.4,0.4c0,0,0,0,0,0c0.1,0.1,0.2,0.3,0.3,0.4c0,0,0,0,0,0c0,0,0.1,0.1,0.1,0.1c0.1,0.1,0.2,0.2,0.2,0.3
	c0,0,0,0,0,0c0.1,0.1,0.1,0.2,0.2,0.3c0,0.1,0.1,0.1,0.1,0.2c0,0,0,0,0,0c0.1,0.2,0.2,0.4,0.4,0.6c0,0,0,0,0,0c0,0,0,0,0,0
	c0.1,0.2,0.2,0.4,0.4,0.7c0,0,0,0,0,0.1c0,0,0,0.1,0,0.1c0.2,0.3,0.3,0.7,0.5,1c0,0,0,0,0,0c0,0,0,0.1,0,0.1c0.2,0.3,0.3,0.7,0.5,1
	c0,0,0,0,0,0c0.2,0.4,0.3,0.7,0.5,1.1c0,0,0,0,0,0c0,0,0,0,0,0c0.2,0.5,0.5,1.1,0.7,1.6c0.2,0.5,0.4,1,0.6,1.5
	c0,0.1,0.1,0.1,0.1,0.2c0.1,0.3,0.3,0.7,0.4,1c0,0,0,0.1,0,0.1c0.1,0.3,0.3,0.6,0.4,0.9c0,0.1,0.1,0.1,0.1,0.2
	c0.2,0.3,0.3,0.6,0.5,0.9c0,0.1,0.1,0.1,0.1,0.2c0.1,0.2,0.2,0.3,0.3,0.5c0,0.1,0.1,0.1,0.1,0.2c0.1,0.1,0.2,0.3,0.2,0.4
	c0,0,0.1,0.1,0.1,0.1c0,0,0.1,0.1,0.1,0.1c0.1,0.1,0.1,0.2,0.2,0.3c0,0,0.1,0.1,0.1,0.1c0.1,0.1,0.2,0.2,0.2,0.3
	c0,0,0.1,0.1,0.1,0.1c0.1,0.1,0.1,0.2,0.2,0.2c0.1,0.1,0.1,0.1,0.2,0.2c0.1,0.1,0.1,0.1,0.2,0.2c0.1,0.1,0.2,0.1,0.3,0.2
	c0,0,0.1,0.1,0.1,0.1c0.1,0.1,0.3,0.2,0.4,0.3c0.1,0.1,0.2,0.1,0.3,0.2c0,0,0.1,0,0.1,0c0.1,0,0.1,0,0.2,0.1c0.1,0,0.1,0,0.2,0.1
	c0,0,0,0,0.1,0c0.1,0,0.2,0,0.3,0c0,0,0.1,0,0.1,0c0.2,0,0.3,0,0.5,0c0,0,0,0,0.1,0c0.1,0,0.1,0,0.2,0c0.1,0,0.2,0,0.3,0.1
	c0,0,0.1,0,0.1,0c0.1,0,0.2,0.1,0.4,0.1c0.1,0,0.1,0,0.2,0.1c0,0,0,0,0.1,0c0.3,0.1,0.5,0.2,0.7,0.4c0.2,0.1,0.4,0.3,0.6,0.4
	c0.1,0,0.1,0.1,0.2,0.1c0.1,0.1,0.3,0.2,0.4,0.3c0.1,0.1,0.1,0.1,0.2,0.2c0.1,0.1,0.2,0.2,0.4,0.3c0.1,0.1,0.2,0.1,0.2,0.2
	c0.1,0.1,0.1,0.1,0.2,0.2c0,0,0,0.1,0.1,0.1c0.3,0.3,0.5,0.5,0.8,0.8c0,0,0,0,0.1,0.1c0,0,0.1,0.1,0.1,0.1c0.2,0.2,0.4,0.5,0.6,0.7
	c0,0,0.1,0.1,0.1,0.1c0,0,0,0,0,0.1c0.2,0.3,0.4,0.5,0.6,0.8c0,0,0,0.1,0.1,0.1c0,0,0,0.1,0.1,0.1c0.2,0.3,0.4,0.6,0.6,0.8
	c0,0,0,0,0,0c0,0.1,0.1,0.1,0.1,0.2c0.1,0.1,0.1,0.2,0.2,0.3c0,0.1,0.1,0.1,0.1,0.2c0,0.1,0.1,0.2,0.1,0.2c0,0,0,0,0,0
	c0.1,0.1,0.1,0.2,0.1,0.3c0,0,0,0,0,0.1c0,0.1,0.1,0.2,0.1,0.2c0,0,0,0,0,0c0,0.1,0.1,0.1,0.1,0.2c0,0,0,0,0,0
	c0,0.1,0.1,0.1,0.1,0.1l-2.4,1.4c0,0,0-0.1-0.1-0.1c0,0-0.1-0.1-0.1-0.2c0,0,0,0,0-0.1c0-0.1-0.1-0.1-0.1-0.2c0,0,0-0.1,0-0.1
	c0-0.1-0.1-0.2-0.2-0.3c0-0.1-0.1-0.2-0.1-0.3c0-0.1-0.1-0.1-0.1-0.2c-0.1-0.1-0.1-0.2-0.2-0.3c-0.1-0.1-0.1-0.2-0.1-0.2
	c-0.2-0.3-0.4-0.6-0.6-0.9c0,0-0.1-0.1-0.1-0.1c-0.2-0.3-0.4-0.6-0.6-0.8c0,0-0.1-0.1-0.1-0.1c-0.2-0.2-0.4-0.5-0.6-0.7
	c-0.1-0.1-0.1-0.1-0.2-0.2c-0.2-0.3-0.5-0.6-0.8-0.8c-0.1-0.1-0.2-0.2-0.3-0.3c-0.1-0.1-0.1-0.1-0.2-0.2c-0.1-0.1-0.2-0.2-0.4-0.3
	c-0.1-0.1-0.2-0.1-0.2-0.2c-0.1-0.1-0.3-0.2-0.4-0.3c-0.1-0.1-0.1-0.1-0.2-0.2c-0.2-0.1-0.4-0.3-0.6-0.4c-0.2-0.1-0.5-0.3-0.7-0.4
	c-0.1,0-0.2-0.1-0.3-0.1c-0.1,0-0.2-0.1-0.4-0.1c-0.1,0-0.3-0.1-0.4-0.1c-0.1,0-0.1,0-0.2,0c-0.2,0-0.4-0.1-0.6-0.1c0,0,0,0,0,0
	c-0.1,0-0.2,0-0.3,0c0,0,0,0,0,0c0,0,0,0-0.1,0c-0.1,0-0.1,0-0.2,0c0,0,0,0,0,0c-0.1,0-0.1,0-0.2-0.1c0,0-0.1,0-0.1,0c0,0,0,0,0,0
	c-0.1,0-0.2-0.1-0.3-0.2c-0.1-0.1-0.3-0.2-0.4-0.3c0,0-0.1-0.1-0.1-0.1c-0.1-0.1-0.2-0.1-0.3-0.2c0,0,0,0,0,0c0,0-0.1-0.1-0.1-0.1
	c-0.1-0.1-0.1-0.2-0.2-0.2c0,0,0,0,0-0.1c0,0-0.1-0.1-0.1-0.2c0,0-0.1-0.1-0.1-0.1c0,0,0,0,0-0.1c0-0.1-0.1-0.1-0.2-0.2
	c0-0.1-0.1-0.1-0.1-0.2c0,0,0,0,0,0c0-0.1-0.1-0.1-0.1-0.2c-0.1-0.1-0.1-0.1-0.2-0.2c0,0,0,0,0,0c0,0,0-0.1-0.1-0.1
	c-0.1-0.1-0.2-0.3-0.3-0.4c0,0,0,0,0,0c0,0,0-0.1-0.1-0.1c-0.1-0.2-0.2-0.3-0.3-0.5c0,0,0-0.1,0-0.1c0,0,0-0.1,0-0.1
	c-0.2-0.3-0.3-0.6-0.5-0.9c0,0,0,0,0,0c0,0,0-0.1-0.1-0.1c-0.1-0.3-0.3-0.6-0.4-0.9c0,0,0-0.1,0-0.1c-0.1-0.3-0.3-0.6-0.4-1
	c0,0,0-0.1,0-0.1c0,0,0-0.1,0-0.1c-0.2-0.5-0.4-1-0.7-1.5c-0.2-0.5-0.4-1-0.7-1.5c0-0.1-0.1-0.1-0.1-0.2c-0.1-0.3-0.3-0.7-0.4-1
	c0,0,0-0.1,0-0.1c-0.1-0.3-0.3-0.6-0.4-0.9c0-0.1-0.1-0.1-0.1-0.2c-0.2-0.3-0.3-0.7-0.5-1c0-0.1-0.1-0.1-0.1-0.2
	c-0.1-0.2-0.3-0.5-0.4-0.7c0,0,0,0,0,0c-0.1-0.2-0.2-0.4-0.4-0.6c0-0.1-0.1-0.1-0.1-0.2c-0.1-0.1-0.2-0.2-0.2-0.4
	c-0.1-0.1-0.1-0.2-0.2-0.2c0-0.1-0.1-0.1-0.2-0.2c0,0,0,0,0,0c-0.1-0.1-0.2-0.3-0.3-0.4c-0.1-0.1-0.3-0.3-0.4-0.4
	c-0.1-0.1-0.1-0.1-0.2-0.2c-0.1,0-0.1-0.1-0.2-0.1c-0.1-0.1-0.3-0.2-0.4-0.3c-0.1-0.1-0.2-0.2-0.3-0.3c0,0,0,0,0,0
	c0,0-0.1-0.1-0.1-0.1c-0.1-0.1-0.1-0.1-0.2-0.2c0,0,0-0.1-0.1-0.1c0,0,0,0,0-0.1c0,0,0-0.1-0.1-0.1c-0.1-0.1-0.1-0.2-0.2-0.3
	c0,0,0-0.1-0.1-0.1c0,0,0-0.1,0-0.1c0,0-0.1-0.1-0.1-0.1c-0.1-0.1-0.2-0.2-0.2-0.4c0,0,0,0,0,0c0,0,0,0,0,0
	c-0.1-0.1-0.1-0.2-0.2-0.3c0-0.1-0.1-0.1-0.1-0.2c0-0.1-0.1-0.1-0.1-0.2c0-0.1-0.1-0.1-0.1-0.2c0-0.1-0.1-0.2-0.1-0.3
	c0-0.1-0.1-0.2-0.1-0.3c0,0,0-0.1-0.1-0.1c0-0.1-0.1-0.1-0.1-0.2c-0.1-0.2-0.2-0.5-0.3-0.7c0-0.1,0-0.1-0.1-0.2c0-0.1,0-0.1-0.1-0.2
	c-0.1-0.1-0.1-0.3-0.1-0.4c-0.1-0.2-0.1-0.3-0.2-0.5c0-0.1-0.1-0.2-0.1-0.4c0-0.1-0.1-0.2-0.1-0.3c0-0.1,0-0.2-0.1-0.2
	c-0.1-0.2-0.1-0.4-0.2-0.6C48.6,55.8,48.5,55.6,48.5,55.5z"/>
<g>
	<linearGradient id="SVGID_10_" gradientUnits="userSpaceOnUse" x1="9.039" y1="63.2511" x2="72.6416" y2="63.2511">
		<stop  offset="0" style="stop-color:#FD7B88"/>
		<stop  offset="1" style="stop-color:#F7366B"/>
	</linearGradient>
	<path class="st37" d="M42.4,37.9c-0.3-0.2-0.5-0.2-0.8-0.1c-3.7,1.6-2.2,15.5-5.3,17.2c-0.7,0.4-1.4,0.2-2.1-0.2
		c-0.8-0.5-1.7-1.3-2.6-2.2c-0.9-0.9-1.7-1.7-2.6-2.2c-0.9-0.5-1.8-0.6-2.6,0.2c-3,3-4.9,5.4-10,3.4C11.3,52,9.2,52,9,52l63.6,36.7
		c-0.1-0.3-2.8-5.3-6.3-7.4c-0.8-0.5-1.7-0.8-2.6-0.8c-0.4,0-0.8-0.1-1.2-0.4c-3.9-2.3-6.1-14.3-10.2-17.2
		C48,60.1,45.7,39.8,42.4,37.9z"/>
</g>
<path class="st38" d="M26.5,62.1c-0.1,0-0.1-0.1-0.2-0.1c-0.3-0.1-0.5-0.2-0.8-0.3c-0.3-0.1-0.7-0.2-1.1-0.4c0,0-0.1,0-0.1,0
	c-0.4-0.1-0.7-0.2-1.1-0.3c0,0-0.1,0-0.1,0c-0.4-0.1-0.8-0.2-1.2-0.4c-0.1,0-0.1,0-0.2-0.1c-0.4-0.1-0.8-0.2-1.1-0.3
	c-0.1,0-0.1,0-0.2-0.1c-0.4-0.1-0.8-0.2-1.2-0.3c-0.1,0-0.2,0-0.2-0.1c-0.4-0.1-0.7-0.2-1.1-0.3c-0.1,0-0.2-0.1-0.3-0.1
	c-0.3-0.1-0.7-0.2-1-0.3c-0.1,0-0.3-0.1-0.4-0.1c-0.2-0.1-0.4-0.1-0.7-0.2c-1.9-0.5-3.4-0.9-3.7-1c0,0-0.1,0-0.1,0l2.4-1.4
	c0.1,0,0.7,0.2,1.5,0.4c0,0,0.1,0,0.1,0c0.1,0,0.3,0.1,0.4,0.1c0.1,0,0.2,0.1,0.3,0.1c0,0,0.1,0,0.1,0c0.3,0.1,0.6,0.2,1,0.3
	c0.1,0,0.1,0,0.2,0.1c0.3,0.1,0.5,0.1,0.8,0.2c0.1,0,0.2,0.1,0.3,0.1c0.4,0.1,0.7,0.2,1.1,0.3c0.1,0,0.1,0,0.2,0
	c0.4,0.1,0.8,0.2,1.2,0.3c0,0,0.1,0,0.1,0c0.4,0.1,0.9,0.2,1.3,0.4c0,0,0.1,0,0.1,0c0.4,0.1,0.8,0.2,1.2,0.4c0,0,0.1,0,0.1,0
	c0.4,0.1,0.8,0.3,1.3,0.4c0,0,0,0,0,0c0.4,0.1,0.8,0.2,1.2,0.4c0,0,0.1,0,0.1,0c0.4,0.1,0.8,0.2,1.1,0.4c0.2,0.1,0.4,0.1,0.6,0.2
	c0.1,0,0.1,0,0.2,0.1c0,0,0.1,0,0.1,0.1c0,0,0.1,0,0.1,0.1c0.2,0.1,0.3,0.1,0.5,0.2c0.1,0,0.1,0.1,0.2,0.1c0.2,0.1,0.4,0.2,0.6,0.3
	c0.6,0.3,1,0.7,1.4,1c0.4,0.3,0.7,0.5,1,0.7c0.1,0,0.2,0.1,0.2,0.1c0.1,0,0.1,0,0.2,0.1c0,0,0,0,0.1,0c0.1,0,0.1,0,0.2,0
	c0,0,0,0,0.1,0c0.1,0,0.1,0,0.2,0c0,0,0,0,0.1,0c0.1,0,0.2,0,0.2,0c0,0,0.1,0,0.1,0c0.1,0,0.1,0,0.2,0c0.1,0,0.2-0.1,0.3-0.1
	c0,0,0,0,0.1,0c0.1-0.1,0.3-0.1,0.4-0.2c0.2-0.1,0.3-0.2,0.5-0.2c0,0,0,0,0,0c0.2-0.1,0.4-0.1,0.6-0.2c0,0,0,0,0,0
	c0.2,0,0.3-0.1,0.5-0.1c0,0,0,0,0.1,0l0,0c0.1,0,0.3,0,0.4-0.1c0,0,0,0,0,0c0,0,0.1,0,0.1,0c0.1,0,0.2,0,0.2,0c0,0,0.1,0,0.1,0
	c0,0,0.1,0,0.1,0c0,0,0.1,0,0.1,0c0.1,0,0.2,0,0.2,0c0,0,0.1,0,0.1,0c0,0,0,0,0,0c0.1,0,0.2,0.1,0.3,0.1c0,0,0.1,0,0.1,0
	c0,0,0,0,0,0c0.2,0.1,0.3,0.1,0.5,0.2c0.2,0.1,0.3,0.2,0.5,0.3c0.1,0,0.1,0.1,0.2,0.1c0.1,0.1,0.2,0.2,0.3,0.3c0,0,0.1,0,0.1,0.1
	c0,0,0.1,0.1,0.1,0.1c0.1,0.1,0.1,0.1,0.2,0.2c0,0,0.1,0.1,0.1,0.1c0,0.1,0.1,0.1,0.1,0.2c0,0,0.1,0.1,0.1,0.1c0,0,0,0,0.1,0.1
	c0.1,0.1,0.2,0.3,0.3,0.4c0,0,0,0,0,0c0,0,0,0.1,0.1,0.1c0.1,0.1,0.2,0.2,0.2,0.3c0,0,0,0.1,0.1,0.1c0,0.1,0.1,0.1,0.1,0.2
	c0,0.1,0.1,0.1,0.1,0.2c0,0.1,0.1,0.1,0.1,0.2c0,0.1,0.1,0.2,0.1,0.3c0,0,0,0.1,0.1,0.1c0.1,0.2,0.2,0.3,0.3,0.5
	c0.1,0.2,0.2,0.5,0.3,0.7c0,0,0,0.1,0.1,0.1c0.1,0.2,0.2,0.4,0.4,0.6c0,0,0.1,0.1,0.1,0.1c0.1,0.2,0.2,0.3,0.3,0.5
	c0,0,0,0.1,0.1,0.1c0.1,0.2,0.3,0.3,0.4,0.5c0.1,0.1,0.2,0.2,0.2,0.3c0.1,0.1,0.1,0.2,0.2,0.2c0.2,0.2,0.4,0.4,0.6,0.6
	c0.1,0,0.1,0.1,0.2,0.1c0.2,0.2,0.4,0.3,0.7,0.4c0.2,0.1,0.5,0.2,0.7,0.3c0.1,0,0.1,0.1,0.2,0.1c0.2,0.1,0.3,0.1,0.5,0.2
	c0.1,0,0.1,0,0.2,0.1c0.2,0,0.4,0.1,0.5,0.1c0,0,0.1,0,0.1,0c0.2,0,0.4,0,0.6,0.1c0,0,0.1,0,0.2,0c0.2,0,0.3,0,0.5,0
	c0.1,0,0.1,0,0.2,0c0.2,0,0.4,0,0.6-0.1c0,0,0.1,0,0.1,0c0,0,0,0,0,0c0,0,0.1,0,0.1,0c0,0,0.1,0,0.1,0c0,0,0,0,0,0c0,0,0,0,0,0
	c0,0,0.1,0,0.1,0c0,0,0.1,0,0.1,0c0,0,0,0,0,0c0,0,0,0,0,0c0.1,0,0.1,0,0.2,0.1c0,0,0,0,0,0c0.1,0,0.2,0.1,0.3,0.1
	c0.1,0.1,0.3,0.2,0.4,0.3c0,0,0,0,0.1,0c0.1,0.1,0.3,0.2,0.4,0.4c0,0,0,0,0,0c0,0,0,0,0,0c0.1,0.1,0.3,0.3,0.4,0.4c0,0,0,0,0,0
	c0,0,0,0,0,0c0.1,0.2,0.3,0.3,0.4,0.5c0,0,0,0,0,0c0,0,0,0,0,0c0.2,0.2,0.3,0.4,0.5,0.6c0,0,0,0,0,0c0,0,0,0,0,0
	c0.2,0.3,0.4,0.5,0.5,0.8c0,0,0,0,0,0c0,0,0,0,0,0c0.2,0.4,0.5,0.8,0.7,1.1c0,0,0,0,0,0c0,0,0,0,0,0c0.1,0.2,0.3,0.5,0.4,0.7
	c0,0,0,0.1,0.1,0.1c0.1,0.2,0.3,0.5,0.4,0.7c0,0,0,0,0,0c0,0,0,0,0,0c0.1,0.2,0.2,0.3,0.3,0.5c0,0,0,0,0,0c0.1,0.2,0.2,0.3,0.2,0.4
	c0,0,0,0.1,0.1,0.1c0.1,0.1,0.1,0.3,0.2,0.4c0,0,0,0.1,0,0.1c0.1,0.1,0.1,0.2,0.2,0.4c0,0,0,0,0,0c0,0,0,0,0,0
	c0.1,0.2,0.1,0.3,0.2,0.4c0,0,0,0,0,0c0.1,0.1,0.1,0.2,0.2,0.3c0,0,0,0,0,0c0.1,0.2,0.2,0.3,0.2,0.4l-2.4,1.4c0,0,0-0.1,0-0.1
	c0,0,0-0.1-0.1-0.1c0,0,0-0.1-0.1-0.1c0,0,0-0.1-0.1-0.1c0-0.1-0.1-0.2-0.1-0.3c0,0,0-0.1-0.1-0.1c-0.1-0.1-0.1-0.2-0.2-0.4
	c0,0,0-0.1,0-0.1c-0.1-0.1-0.1-0.2-0.2-0.3c0,0,0-0.1,0-0.1c-0.1-0.1-0.1-0.3-0.2-0.4c0,0,0-0.1,0-0.1c-0.1-0.1-0.1-0.3-0.2-0.4
	c0,0,0,0,0-0.1c-0.1-0.2-0.2-0.3-0.3-0.5c0,0,0-0.1-0.1-0.1c-0.1-0.2-0.3-0.5-0.4-0.7c0,0,0-0.1-0.1-0.1c-0.1-0.2-0.3-0.5-0.4-0.7
	c0,0,0,0,0-0.1c-0.2-0.4-0.5-0.8-0.7-1.1c0,0,0,0-0.1-0.1c-0.2-0.3-0.4-0.6-0.5-0.8c0,0,0,0,0-0.1c-0.2-0.2-0.3-0.4-0.5-0.6
	c0,0,0,0-0.1-0.1c-0.1-0.2-0.3-0.3-0.4-0.5c0,0,0-0.1-0.1-0.1c-0.1-0.2-0.3-0.3-0.4-0.4c0,0,0,0-0.1-0.1c-0.1-0.1-0.3-0.2-0.4-0.4
	c0,0,0,0-0.1,0c-0.1-0.1-0.3-0.2-0.4-0.3c-0.1-0.1-0.2-0.1-0.3-0.1c-0.1,0-0.2-0.1-0.2-0.1c0,0,0,0,0,0c-0.1,0-0.1,0-0.2,0
	c0,0,0,0,0,0c-0.1,0-0.2,0-0.2,0c0,0,0,0,0,0c0,0,0,0-0.1,0c-0.2,0-0.4,0.1-0.6,0.1c0,0-0.1,0-0.1,0c0,0-0.1,0-0.1,0
	c-0.2,0-0.3,0-0.5,0c0,0-0.1,0-0.1,0c0,0,0,0,0,0c-0.2,0-0.4,0-0.6-0.1c0,0,0,0,0,0c0,0,0,0-0.1,0c-0.2,0-0.4-0.1-0.5-0.1
	c0,0,0,0-0.1,0c0,0-0.1,0-0.1,0c-0.2-0.1-0.3-0.1-0.5-0.2c0,0-0.1,0-0.1,0c0,0,0,0-0.1,0c-0.2-0.1-0.5-0.2-0.7-0.3
	c-0.2-0.1-0.4-0.3-0.7-0.4c0,0-0.1-0.1-0.2-0.1c-0.2-0.2-0.4-0.4-0.6-0.6c0,0,0,0,0,0c-0.1-0.1-0.1-0.2-0.2-0.2
	c-0.1-0.1-0.1-0.2-0.2-0.2c0,0,0,0,0,0c-0.1-0.1-0.2-0.3-0.3-0.4c0,0,0,0,0,0c0,0,0-0.1-0.1-0.1c-0.1-0.1-0.1-0.2-0.2-0.3
	c0-0.1-0.1-0.1-0.1-0.2c0,0-0.1-0.1-0.1-0.1c0,0,0-0.1-0.1-0.1c-0.1-0.1-0.2-0.3-0.3-0.4c0,0,0,0,0-0.1c0,0,0-0.1-0.1-0.1
	c-0.1-0.1-0.1-0.2-0.2-0.3c-0.1-0.1-0.1-0.2-0.2-0.4c-0.1-0.2-0.2-0.4-0.3-0.6c0-0.1-0.1-0.2-0.1-0.2c-0.1-0.1-0.2-0.3-0.2-0.4
	c0-0.1-0.1-0.1-0.1-0.2c-0.1-0.2-0.2-0.3-0.3-0.5c0,0,0,0,0-0.1c-0.1-0.2-0.2-0.3-0.4-0.5c0,0-0.1-0.1-0.1-0.1
	c-0.1-0.1-0.2-0.2-0.2-0.3c-0.1-0.1-0.1-0.1-0.2-0.2c-0.1-0.1-0.1-0.1-0.2-0.2c-0.1-0.1-0.2-0.2-0.3-0.3c0,0-0.1-0.1-0.1-0.1
	c-0.2-0.1-0.3-0.2-0.5-0.3c-0.2-0.1-0.3-0.2-0.5-0.2c0,0-0.1,0-0.1,0c-0.1,0-0.3-0.1-0.4-0.1c0,0-0.1,0-0.1,0c-0.1,0-0.2,0-0.3-0.1
	c0,0-0.1,0-0.1,0c-0.1,0-0.2,0-0.4,0c0,0-0.1,0-0.1,0c-0.3,0-0.7,0.1-1,0.2c-0.2,0.1-0.4,0.1-0.6,0.2c-0.2,0.1-0.3,0.1-0.5,0.2
	c-0.1,0.1-0.3,0.1-0.4,0.2c0,0,0,0,0,0c0,0-0.1,0-0.1,0c-0.1,0-0.2,0.1-0.3,0.1c0,0,0,0,0,0c-0.1,0-0.1,0-0.2,0c0,0-0.1,0-0.1,0
	c0,0,0,0,0,0c-0.1,0-0.1,0-0.2,0c0,0,0,0,0,0c0,0,0,0,0,0c0,0-0.1,0-0.1,0c0,0-0.1,0-0.1,0c0,0,0,0-0.1,0c0,0,0,0,0,0
	c-0.1,0-0.1,0-0.2,0c0,0,0,0,0,0c0,0,0,0,0,0c-0.1,0-0.1,0-0.2-0.1c0,0,0,0,0,0c-0.1,0-0.2-0.1-0.2-0.1c-0.3-0.2-0.6-0.4-1-0.7
	c-0.4-0.3-0.8-0.6-1.4-1c-0.2-0.1-0.4-0.2-0.6-0.3c-0.1,0-0.1-0.1-0.2-0.1C26.9,62.2,26.7,62.1,26.5,62.1z"/>
<g>
	<path class="st39" d="M36.6,64c-1.3-0.7-2.6-0.6-4.1,0.1c-1.1,0.6-1.7,0.5-2.3,0.2c-0.3-0.2-0.6-0.4-1-0.7c-0.4-0.3-0.8-0.6-1.4-1
		c-0.6-0.3-1.3-0.7-2.3-1c-4.7-1.6-13.4-3.8-13.8-3.9l43.2,24.9c-0.2-0.4-3.6-8-6.2-9.5c-0.3-0.2-0.7-0.3-1-0.2
		c-1.4,0.2-2.9,0.1-4.3-0.7c-1.3-0.8-2.6-2.1-3.6-4.2C38.8,66,37.7,64.7,36.6,64z"/>
</g>
<g>
	<g class="st0">
		<path d="M12.6,71.5c-5.2,3-5.2,7.8-0.1,10.8c5.2,3,13.5,3,18.7,0c5.2-3,5.2-7.8,0.1-10.8C26.1,68.5,17.8,68.5,12.6,71.5z"/>
	</g>
	<path class="st40" d="M30.6,32.1c0,0-0.5,1.2,1,2.1C31.6,34.2,32,32.7,30.6,32.1z"/>
	<g>
		<path class="st41" d="M30.4,32.6c0,0,0.2-0.5,0.9-1.1c0.8-0.6,1.1-0.6,1.7-0.8c0.6-0.2,1-0.2,1.2,0.1c0.2,0.3,0,1-1.2,1.4
			c-1.2,0.4-1.3,1.7-1.5,1.8C31.2,34.2,30.3,32.9,30.4,32.6z"/>
		<path class="st41" d="M31.6,32.7c0.1-0.1,0.6,0.1,1.8-0.4c1-0.4-0.1,0.6-0.3,0.7c-0.2,0.1-1.7,1-1.7,1S31.3,33.2,31.6,32.7z"/>
	</g>
	<path class="st40" d="M17.3,29.4c-0.2-0.9,1-2.6,2.4-1.8c1.3,0.7,4,6.8,5.1,7.3c0.4,0.2,5.8-2.8,5.8-2.8s-0.4,1.1,1,2.1
		c0,0-6.1,4.4-7.7,3.6C21.3,36.2,17.8,32,17.3,29.4z"/>
	<path class="st41" d="M18.2,46.6c0,0,1.4,2.2,2.8,1.9c1.4-0.3,1.6-0.6,1-0.9c-0.6-0.4-2.2-1.4-1.9-1.5c0.3-0.1,1,0,0.9-0.2
		c-0.1-0.3-2-0.7-2-0.7l-1.4,0.7L18.2,46.6z"/>
	<path class="st42" d="M17.2,74.3c0.1,0,4.4-0.1,3.4,1.4c-0.6,1-1.5,1.2-2.1,1.2c-0.6,0-1.8-0.3-2.1-0.2c-0.3,0.2-1.7,1.2-2.6,0.2
		c-0.2-0.2-0.3-0.8-0.2-1.1C13.8,75.4,16.8,74.2,17.2,74.3z"/>
	<path class="st40" d="M20.6,75.7c-0.6,1-1.5,1.2-2.1,1.2c-0.6,0-1.8-0.3-2.1-0.2c-0.3,0.2-1.7,1.2-2.6,0.2
		c-0.1-0.1-0.2-0.3-0.2-0.6c0.6,0.8,2,0.6,2.4,0.3c0.4-0.3,1.1-0.5,1.7-0.4c0.6,0.1,1.8,0,2.4-0.6c0.4-0.3,0.4-0.7,0.3-1
		C20.7,74.9,20.9,75.2,20.6,75.7z"/>
	<path class="st43" d="M15.1,42.2c0,0-3.6,3.2-0.9,10.9c0.6,1.7,1.7,5.2,1.4,6.9c-0.5,2.1-1.1,1.5-1.6,8.4c-0.4,6.1-0.4,4.8-0.5,7.2
		c0,0.7,2.6,1.4,3,0.4c1.8-4.8,4.2-14.8,3.7-20.3C19.6,50.2,19.3,45,19.3,45S16.8,43.8,15.1,42.2z"/>
	<path class="st42" d="M25.5,78c0.1,0,4.5-0.9,3.7,0.8c-0.5,1.1-1.3,1.5-2,1.6c-0.7,0.1-1.9,0-2.2,0.2c-0.3,0.2-1.6,1.5-2.6,0.7
		c-0.2-0.2-0.4-0.7-0.4-1.1C22.1,79.8,25,78,25.5,78z"/>
	<path class="st40" d="M29.2,78.8c-0.5,1.1-1.3,1.5-2,1.6c-0.7,0.1-1.9,0-2.2,0.2c-0.3,0.2-1.6,1.5-2.6,0.7
		c-0.1-0.1-0.2-0.3-0.3-0.5c0.7,0.7,2.2,0.2,2.5-0.1c0.4-0.4,1-0.7,1.6-0.7c0.6,0,1.8-0.4,2.3-1.1c0.3-0.4,0.2-0.8,0.1-1.1
		C29.2,78,29.4,78.3,29.2,78.8z"/>
	<path class="st44" d="M16.4,46c0,0-3,3.1,2.4,10.9c0,0,2.6,5.6,2.5,7.4c-0.1,2.1-1,2.3-0.1,9.3c0.8,6.1,0.4,6.2,0.9,6.7
		c0.5,0.5,3.1,0,3.1-1.1c0.5-5.9,1.4-14.7,0.9-20.2C25.5,52.8,25,47.6,25,47.6S18.4,47.3,16.4,46z"/>
	
		<linearGradient id="SVGID_11_" gradientUnits="userSpaceOnUse" x1="949.6876" y1="76.6056" x2="949.9737" y2="98.6273" gradientTransform="matrix(-0.985 -0.1726 -0.1726 0.985 971.9477 114.755)">
		<stop  offset="0" style="stop-color:#5AB0FF"/>
		<stop  offset="1" style="stop-color:#3C84F7"/>
	</linearGradient>
	<path class="st45" d="M27.9,34.7c0,0,1.1-2.6-3.1-5.2c-4.2-2.6-7-3.1-7.6-0.6c-0.6,2.5-0.4,6.5-0.7,7.7c-0.7,2.8-1,3.6-1.9,5
		c-1.6,2.3-2,5.2,5.2,7.1c1.2,0.3,5.5,1.5,5.5-1.5C25.5,37.6,26.8,37.7,27.9,34.7z"/>
	<g>
		<path class="st40" d="M37.9,32.8c0,0-0.2,1.3,1.6,1.7C39.4,34.5,39.4,33.1,37.9,32.8z"/>
		<g>
			<path class="st41" d="M39.1,34.4c0,0,0.5-0.1,1.2-0.8c0.7-0.7,0.7-1.1,0.9-1.7c0.2-0.6,0.2-1,0-1.2c-0.3-0.2-1,0-1.5,1.2
				c-0.5,1.2-1.7,1.2-1.9,1.4C37.6,33.5,38.8,34.5,39.1,34.4z"/>
			<path class="st41" d="M39.1,33.3c0.2-0.1-0.1-0.6,0.5-1.8c0.5-0.9-0.6,0-0.7,0.2c-0.1,0.2-1.1,1.7-1.1,1.7S38.6,33.5,39.1,33.3z"
				/>
			<path class="st42" d="M24.3,33.7c-0.4-0.8,0.3-2.7,1.8-2.3c1.4,0.4,5.6,5.5,6.8,5.7c0.4,0.1,4.9-4.2,4.9-4.2s-0.1,1.2,1.6,1.7
				c0,0-4.7,5.9-6.5,5.5C30,39.3,25.5,36.1,24.3,33.7z"/>
		</g>
	</g>
	<g>
		<g>
			<path class="st41" d="M25.1,26.4c0,0-1,1.8-0.4,3.2c0.4,0.8-5.3,0.5-4.2-1.3c1-1.6,0.7-3-0.2-4.5L25.1,26.4z"/>
			<path class="st46" d="M24.6,27.7c0,0-1.1-0.5-1.7-1.1l-0.1,0l-0.5,0l-1-0.5c0,0,0.7,2.6,3.3,3C24.6,29.1,24.5,28.5,24.6,27.7z"/>
			<path class="st41" d="M26.8,18.6c0,0,0.9,1.4,1.1,3.9c0.2,2.5,0.2,4.4-1.2,5.1c-0.7,0.3-4.9,0.4-5.8-4.7
				C20.4,19.6,23.3,16.1,26.8,18.6z"/>
		</g>
		<path class="st47" d="M27.6,19.1c1.2,0.8,2.1,1.3-0.3,2.1c-1.9,0.6-1.6,3.3-2.3,3.6c-0.4,0.2-0.2-0.5-0.8-1
			c-0.3-0.3-1-0.4-1.1,0.6c-0.1,1,0.7,2.4,0.1,2.7c-0.8,0.4-2.5-0.7-3.1-1.8c-1-1.6-1.7-5.9,1.6-7.6C24.6,16.2,26.6,18.5,27.6,19.1z
			"/>
	</g>
</g>
</svg>
