<?xml version="1.0" encoding="utf-8"?>
<!-- Generator: Adobe Illustrator 22.1.0, SVG Export Plug-In . SVG Version: 6.00 Build 0)  -->
<svg version="1.1" id="Layer_1" xmlns="http://www.w3.org/2000/svg" xmlns:xlink="http://www.w3.org/1999/xlink" x="0px" y="0px"
	 viewBox="0 0 96.7 106.7" style="enable-background:new 0 0 96.7 106.7;" xml:space="preserve">
<style type="text/css">
	.st0{opacity:0.1;}
	.st1{fill:#04338F;}
	.st2{fill:#0442BF;}
	.st3{fill:#0476D9;}
	.st4{enable-background:new    ;}
	.st5{fill:#0BE1F7;}
	.st6{fill:#0AC3CC;}
	.st7{fill:#48F6FF;}
	.st8{fill:#AD4087;}
	.st9{fill:#D95284;}
	.st10{fill:#0A34BC;}
	.st11{fill:#134BD6;}
	.st12{fill:#1F64FF;}
	.st13{opacity:0.6;fill:#40EBF4;}
	.st14{opacity:0.5;fill:#39E0EA;}
	.st15{opacity:0.4;fill:#33D4DF;}
	.st16{opacity:0.3;fill:#2CC9D5;}
	.st17{opacity:0.2;fill:#25BDCA;}
	.st18{opacity:0.1;fill:#1FB2C0;}
	.st19{opacity:0;fill:#18A6B5;}
	.st20{opacity:0.5;fill:#18A6B5;}
	.st21{opacity:0.7;}
	.st22{fill:#55FBFF;}
	.st23{opacity:0.8333;}
	.st24{opacity:0.8333;fill:#71FCFF;}
	.st25{opacity:0.6667;}
	.st26{opacity:0.6667;fill:#8EFCFF;}
	.st27{opacity:0.5;}
	.st28{opacity:0.5;fill:#AAFDFF;}
	.st29{opacity:0.3333;}
	.st30{opacity:0.3333;fill:#C6FEFF;}
	.st31{opacity:0.1667;}
	.st32{opacity:0.1667;fill:#E3FEFF;}
	.st33{opacity:0;}
	.st34{opacity:0;fill:#FFFFFF;}
	.st35{fill:#FFAA83;}
	.st36{fill:#E84CBE;}
	.st37{fill:#5BB0FF;}
	.st38{fill:#3D93FF;}
	.st39{fill:#0E007A;}
	.st40{fill:#160F96;}
	.st41{fill:url(#SVGID_1_);}
	.st42{fill:#F98CDA;}
	.st43{fill:#F79F7C;}
	.st44{fill:#994E17;}
</style>
<g class="st0">
	<polygon points="82.5,70.7 41.4,94.6 0,70.7 41.1,46.9 	"/>
</g>
<g>
	<polygon class="st1" points="68.7,65.9 68.7,71.7 42,87.2 42,81.4 	"/>
</g>
<g>
	<polygon class="st2" points="42,81.4 42,87.2 15.1,71.7 15.1,65.9 	"/>
</g>
<g>
	<polygon class="st3" points="68.7,65.9 42,81.4 15.1,65.9 41.8,50.4 	"/>
</g>
<g>
	<g class="st4">
		<g>
			<polygon class="st5" points="68.7,53.7 68.7,59.6 42,75.1 42,69.3 			"/>
		</g>
		<g>
			<polygon class="st6" points="42,69.3 42,75.1 15.1,59.6 15.1,53.7 			"/>
		</g>
		<g>
			<polygon class="st7" points="68.7,53.7 42,69.3 15.1,53.7 41.8,38.2 			"/>
		</g>
	</g>
</g>
<g>
	<polygon class="st8" points="68.7,40.9 68.7,46.7 42,62.2 42,56.4 	"/>
</g>
<g>
	<polygon class="st8" points="42,56.4 42,62.2 15.1,46.7 15.1,40.9 	"/>
</g>
<g>
	<polygon class="st9" points="68.7,40.9 42,56.4 15.1,40.9 41.8,25.4 	"/>
</g>
<g>
	<polygon class="st10" points="68.7,27.3 68.7,33.1 42,48.6 42,42.8 	"/>
</g>
<g>
	<g>
		<polygon class="st11" points="42,42.8 42,48.6 15.1,33.1 15.1,27.3 		"/>
	</g>
</g>
<g>
	<polygon class="st12" points="68.7,27.3 42,42.8 15.1,27.3 41.8,11.8 	"/>
</g>
<g>
	<g>
		<polygon class="st13" points="7.2,23.6 6.1,21.6 7.2,19.6 9.5,19.6 10.7,21.6 9.5,23.6 		"/>
		<polygon class="st14" points="7.2,26.7 6.1,24.7 7.2,22.7 9.5,22.7 10.7,24.7 9.5,26.7 		"/>
		<polygon class="st15" points="7.2,29.8 6.1,27.8 7.2,25.8 9.5,25.8 10.7,27.8 9.5,29.8 		"/>
		<polygon class="st16" points="7.2,32.9 6.1,30.9 7.2,29 9.5,29 10.7,30.9 9.5,32.9 		"/>
		<polygon class="st17" points="7.2,36.1 6.1,34.1 7.2,32.1 9.5,32.1 10.7,34.1 9.5,36.1 		"/>
		<polygon class="st18" points="7.2,39.2 6.1,37.2 7.2,35.2 9.5,35.2 10.7,37.2 9.5,39.2 		"/>
		<polygon class="st19" points="7.2,42.3 6.1,40.3 7.2,38.3 9.5,38.3 10.7,40.3 9.5,42.3 		"/>
	</g>
	<polygon class="st20" points="7.2,23.6 6.1,21.6 7.2,19.6 9.5,19.6 10.7,21.6 9.5,23.6 	"/>
</g>
<g>
	<g>
		<polygon class="st13" points="65.4,3.2 64.4,1.6 65.4,0 67.2,0 68.1,1.6 67.2,3.2 		"/>
		<polygon class="st14" points="65.4,5.6 64.4,4 65.4,2.5 67.2,2.5 68.1,4 67.2,5.6 		"/>
		<polygon class="st15" points="65.4,8.1 64.4,6.5 65.4,4.9 67.2,4.9 68.1,6.5 67.2,8.1 		"/>
		<polygon class="st16" points="65.4,10.6 64.4,9 65.4,7.4 67.2,7.4 68.1,9 67.2,10.6 		"/>
		<polygon class="st17" points="65.4,13 64.4,11.4 65.4,9.9 67.2,9.9 68.1,11.4 67.2,13 		"/>
		<polygon class="st18" points="65.4,15.5 64.4,13.9 65.4,12.3 67.2,12.3 68.1,13.9 67.2,15.5 		"/>
		<polygon class="st19" points="65.4,18 64.4,16.4 65.4,14.8 67.2,14.8 68.1,16.4 67.2,18 		"/>
	</g>
	<polygon class="st20" points="65.4,3.2 64.4,1.6 65.4,0 67.2,0 68.1,1.6 67.2,3.2 	"/>
</g>
<g class="st21">
	<path class="st22" d="M90.5,86.2c8.1,4.7,8.2,12.3,0.1,17c-8.1,4.7-21.2,4.7-29.3,0c-8.1-4.7-8.2-12.3-0.1-17
		C69.3,81.5,82.4,81.5,90.5,86.2z"/>
	<g class="st23">
		<path class="st24" d="M90.5,77.9c8.1,4.7,8.2,12.3,0.1,17c-8.1,4.7-21.2,4.7-29.3,0c-8.1-4.7-8.2-12.3-0.1-17
			C69.3,73.2,82.4,73.2,90.5,77.9z"/>
	</g>
	<g class="st25">
		<path class="st26" d="M90.5,69.6c8.1,4.7,8.2,12.3,0.1,17c-8.1,4.7-21.2,4.7-29.3,0c-8.1-4.7-8.2-12.3-0.1-17
			C69.3,64.9,82.4,64.9,90.5,69.6z"/>
	</g>
	<g class="st27">
		<path class="st28" d="M90.5,61.4c8.1,4.7,8.2,12.3,0.1,17c-8.1,4.7-21.2,4.7-29.3,0c-8.1-4.7-8.2-12.3-0.1-17
			C69.3,56.7,82.4,56.7,90.5,61.4z"/>
	</g>
	<g class="st29">
		<path class="st30" d="M90.5,53.1c8.1,4.7,8.2,12.3,0.1,17c-8.1,4.7-21.2,4.7-29.3,0c-8.1-4.7-8.2-12.3-0.1-17
			C69.3,48.4,82.4,48.4,90.5,53.1z"/>
	</g>
	<g class="st31">
		<path class="st32" d="M90.5,44.8c8.1,4.7,8.2,12.3,0.1,17c-8.1,4.7-21.2,4.7-29.3,0c-8.1-4.7-8.2-12.3-0.1-17
			C69.3,40.1,82.4,40.1,90.5,44.8z"/>
	</g>
	<g class="st33">
		<path class="st34" d="M90.5,36.5c8.1,4.7,8.2,12.3,0.1,17c-8.1,4.7-21.2,4.7-29.3,0c-8.1-4.7-8.2-12.3-0.1-17
			C69.3,31.8,82.4,31.8,90.5,36.5z"/>
	</g>
</g>
<g>
	<path class="st35" d="M66.8,43.8c0,0-2.7,0.2-3.3-1.4c-0.6-1.6-0.1-2.2,0.6-1.8c0.7,0.4,1.7,0.6,2,0.6c0.5,0.1,1.6,0.9,1.6,0.9
		l0.2,1.8L66.8,43.8z"/>
	<g>
		<path class="st36" d="M83.6,44.6c0,0,2.7-0.3,2.9,2.5c0.2,2.9-5.7,2.3-5.7,2.3s-5.1-0.1-6.7-0.7C72.1,48,66.4,44,66.4,44
			s0.3-1.7,1.4-2.2c0,0,5.3,3.1,7.3,3.4C77.3,45.5,83.2,44.5,83.6,44.6z"/>
	</g>
	<path class="st35" d="M67.6,41.9c0,0-1.3-1.9-2.3-1.6c-1,0.3,0.5,0.9,0.5,0.9l1,1.4L67.6,41.9z"/>
	<g>
		<path class="st0" d="M62.9,92.1c0.8-1.2,1.9-2.2,3.5-3.2c3.7-2.1,8.8-3,13.6-2.5c3,0.3,5.9,1.1,8.3,2.5c2.7,1.6,4.2,3.6,4.4,5.6
			c0.3,2.5-1.2,5.1-4.5,7.1c-5.1,2.9-12.8,3.4-18.7,1.4c-1.1-0.4-2.2-0.9-3.2-1.4C62,99,60.8,95.3,62.9,92.1z"/>
		<path class="st35" d="M59.8,47.5c0,0-2.6-2.9-1.1-4.6c0.2-0.2,0.4-0.1,0.8,0.7c0.2,0.6,0.2,1,0.7,1.2c0.5,0.1,0.3-1.4,0.7-1.2
			c0.4,0.1,0.9,2.7,0.9,2.7l0.2,0.7l-1.5,1.4L59.8,47.5z"/>
		<path class="st37" d="M85.2,93.4c-0.1,0-5.8,0.1-4.6,1.8c0.7,1.1,1.7,1.3,2.5,1.4c0.8,0,2.1-0.4,2.5-0.2c0.3,0.2,2,1.3,3,0.2
			c0.2-0.2,0.3-0.9,0.2-1.3C88.6,94.9,85.8,93.3,85.2,93.4z"/>
		<path class="st38" d="M80.6,95.2c0.7,1.1,1.7,1.3,2.5,1.4c0.8,0,2.1-0.4,2.5-0.2c0.3,0.2,2,1.3,3,0.2c0.1-0.1,0.2-0.4,0.2-0.6
			c-0.7,0.9-2.4,0.7-2.8,0.4c-0.5-0.3-1.3-0.5-1.9-0.4c-0.7,0.1-2.1,0-2.8-0.7c-0.4-0.4-0.3-0.9-0.2-1.2
			C80.6,94.3,80.2,94.6,80.6,95.2z"/>
		<g>
			<path class="st37" d="M71.7,95.1c-0.1,0-6.2-0.1-5.1,1.6c0.7,1.1,1.7,1.3,2.5,1.4c0.8,0,2.1-0.4,2.5-0.2c0.3,0.2,2,1.3,3,0.2
				c0.2-0.2,0.3-0.9,0.2-1.3C74.7,96.4,72.3,95,71.7,95.1z"/>
			<path class="st38" d="M66.6,96.7c0.7,1.1,1.8,1.3,2.6,1.3c0.8,0,2.1-0.4,2.5-0.2c0.3,0.2,2,1.3,3,0.2c0.1-0.1,0.2-0.4,0.2-0.6
				c-0.7,0.9-2.3,0.7-2.8,0.4c-0.5-0.4-1.3-0.5-1.9-0.4c-0.7,0.1-2.1,0-2.8-0.7c-0.4-0.4-0.3-0.8-0.2-1.1
				C66.7,95.9,66.2,96.2,66.6,96.7z"/>
		</g>
		<path class="st39" d="M87,61.4c0,0,3.7,4.5,1.3,10.8c0,0-1.8,5.3-1.4,7.1c0.5,2.1,1.2,1.5,1.7,8.6c0.5,6.2,0.4,5.9,0.5,7.8
			c0,0.8-3.7,0.7-4.3-1c-1.9-5.2-4.2-13.7-3.7-19.3c0.5-5.6,1.7-11.4,1.7-11.4S85.2,63,87,61.4z"/>
		<path class="st40" d="M85.2,62.5c0,0,2.5,5.7-5.3,11.5c0,0-4.2,4.2-4.7,6c-0.4,1.8,0.7,3.2,0.4,6.8c-0.3,3.6-0.2,7.6-0.4,10.2
			c-0.1,0.9-3.8,0.8-4.1-0.5c-0.4-1.3-1.9-16.4-1-19.4c0.9-3,6.9-14,6.9-14S81.6,65.2,85.2,62.5z"/>
		
			<linearGradient id="SVGID_1_" gradientUnits="userSpaceOnUse" x1="-314.6653" y1="44.9903" x2="-317.6347" y2="67.0311" gradientTransform="matrix(-1 0 0 1 -235.3656 0)">
			<stop  offset="0" style="stop-color:#FA5FC8"/>
			<stop  offset="1" style="stop-color:#B161CB"/>
		</linearGradient>
		<path class="st41" d="M73.6,51.7c0,0-1.2-2.8,3.7-5.5c4.9-2.7,8.1-3.1,8.6-0.4c0.5,2.7-0.2,6.6-0.2,7.9c0,1,0.2,3.6,1.5,6.9
			c1.1,2.9,3,4.5-5.2,6.3c-1.4,0.3-6.8,1.2-6.6-2.1C75.8,60.7,74.8,54.9,73.6,51.7z"/>
		<path class="st42" d="M77.4,50.8c0.2-0.7,0.3-2.6-1.6-2.6c-2,0-9,3.3-9.9,3c-0.4-0.1-4-4.9-4-4.9s-0.1,1.2-2.2,1.4
			c0,0,2.9,7.6,4.9,7.6C68.2,55.3,76.5,53.6,77.4,50.8z"/>
		<g>
			<path class="st35" d="M77.3,42.9c0,0,1,1.9,0.1,3.4c-0.5,0.8,4.2,1.7,4.6-0.5c0.2-1.2-1.8-3,0-4.9L77.3,42.9z"/>
			<path class="st43" d="M77.8,44.4c0,0,1.4-0.5,2.1-1l0.1,0l0.5,0.1l0.2,0c0,0,0,2.3-3.1,2.4C77.7,45.8,77.9,45.2,77.8,44.4z"/>
			<path class="st35" d="M76.1,34.5c0,0-0.7,1.5-1.7,4.1c-0.8,2.2-0.5,4.8,0.4,5.4c0.7,0.5,6.1,1,7.5-4.5
				C83.3,36,80.4,32.1,76.1,34.5z"/>
		</g>
		<path class="st44" d="M74.7,34.2c-0.5,0.5-0.4,1.2,0.9,2.2c0.7,0.5,0.6,3.1,0.6,3.6c0,0.5,0.2,1.3,1.5,0.2
			c0.5-0.4,1.5-0.6,1.8,0.5c0.2,1-0.8,2.3-0.3,2.6c0.6,0.3,2.5,0.7,3.5-0.9c1.5-2.3,2.8-6.3-0.7-8.8C79.1,31.5,75.6,33.3,74.7,34.2z
			"/>
	</g>
</g>
</svg>
