<?xml version="1.0" encoding="utf-8"?>
<!-- Generator: Adobe Illustrator 22.1.0, SVG Export Plug-In . SVG Version: 6.00 Build 0)  -->
<svg version="1.1" id="Capa_1" xmlns="http://www.w3.org/2000/svg" xmlns:xlink="http://www.w3.org/1999/xlink" x="0px" y="0px"
	 viewBox="0 0 471.64151 448.6701965" style="enable-background:new 0 0 471.64151 448.6701965;" xml:space="preserve">
<g>
	<g>
		<path d="M431.6659241,37.9262505C379.973938-12.6517477,297.3359375-12.6407499,245.6569214,37.951252L28.9109344,254.6982422
			c-39.1920013,40.1159973-38.4430008,104.4070129,1.6730003,143.598999
			c39.4560051,38.5480042,102.4700012,38.5480042,141.9259949,0l196.266983-196.2669983
			c25.5150146-25.5149994,25.5150146-66.8840027,0-92.3990021s-66.8840027-25.5149994-92.3989868,0L88.6439362,297.3642578
			c-6.5479965,6.7799988-6.3600006,17.5840149,0.4199982,24.1319885c6.6139984,6.3880005,17.098999,6.3880005,23.7129974,0
			l187.733017-187.7330017c12.4490051-11.9259949,32.2089844-11.5010071,44.1340027,0.947998
			c11.5650024,12.072998,11.5650024,31.1139984,0,43.1869965L148.3779449,374.1642456
			c-26.5139999,26.1369934-69.1969986,25.8309937-95.3339996-0.6830139c-25.8729992-26.2460022-25.8729992-68.4049988,0-94.651001
			L269.7899475,62.083252c38.6080017-38.6220016,101.2139893-38.6329994,139.8359985-0.026001
			s38.6329956,101.2139893,0.026001,139.8359985L192.9049377,418.6402588
			c-7.1589966,6.131012-7.9929962,16.9049988-1.8619995,24.0639954s16.9049988,7.9930115,24.0639954,1.8619995
			c0.6679993-0.571991,1.2899933-1.1940002,1.8619995-1.8619995l216.7470093-216.746994
			C485.072937,173.4682465,484.1559448,89.2832489,431.6659241,37.9262505z"/>
	</g>
</g>
</svg>
