<svg xmlns="http://www.w3.org/2000/svg" viewBox="0 0 162 211" width="162" height="211">
	<defs>
		<clipPath clipPathUnits="userSpaceOnUse" id="cp1">
			<path d="M0 0L162 0L162 211L0 211Z" />
		</clipPath>
	</defs>
	<style>
		tspan { white-space:pre }
		.shp0 { fill: #ffffff } 
		.shp1 { fill: #00223a } 
		.shp2 { fill: #0265b2 } 
		.shp3 { opacity: 0.349;mix-blend-mode: multiply;fill: #3498db } 
		.shp4 { opacity: 0.502;mix-blend-mode: overlay;fill: #c4c4c4 } 
		.shp5 { fill: #c2d8ed } 
		.shp6 { fill: #ec644b } 
		.shp7 { opacity: 0.502;mix-blend-mode: soft-light;fill: #ffffff } 
		.shp8 { opacity: 0.749;mix-blend-mode: multiply;fill: #bdc3c7 } 
		.shp9 { fill: #f4f4f4 } 
		.shp10 { fill: #dadfe1 } 
		.shp11 { fill: #f4d03f } 
		.shp12 { opacity: 0.251;mix-blend-mode: multiply;fill: #ec644b } 
		.shp13 { fill: #6c7a89 } 
		.shp14 { opacity: 0.302;mix-blend-mode: multiply;fill: #3498db } 
	</style>
	<g id="Page 1" clip-path="url(#cp1)">
		<path id="Path 1" class="shp0" d="M81,211l3.14,-1.45c19.67,-9.08 39.43,-18.02 58.5,-28.31c18.58,-10.03 17.95,-26.78 18.77,-45.53c1.3,-29.61 0.01,-59.28 0.01,-88.91v-5.25l-4.94,-1.79c-14.5,-5.27 -29.34,-10.75 -44.23,-14.8c-10.98,-2.99 -21.94,-5.06 -33.36,-4.94c-10.97,0.12 -21.48,2.24 -31.99,5.26c-13.99,4.01 -27.9,9.35 -41.51,14.52l-4.83,1.84v5.17c0,29.63 -1.29,59.3 0.01,88.91c0.82,18.75 0.19,35.5 18.77,45.53c19.08,10.29 38.84,19.23 58.5,28.31z" />
		<path id="Path 2" class="shp1" d="M8.07,46.8c0,29.84 -1.28,59.51 0,88.58c0.95,21.58 1.12,31.86 14.85,39.27c18.61,10.04 37.41,18.55 58.09,28.1c20.68,-9.55 39.48,-18.06 58.09,-28.1c13.72,-7.41 13.9,-17.69 14.85,-39.27c1.28,-29.07 0,-58.74 0,-88.58c-70.6,-25.64 -77.98,-25.81 -145.87,0z" />
		<path id="Path 3" class="shp0" d="M13.72,166.8c2.07,3.04 5,5.58 9.19,7.84c18.61,10.04 37.41,18.55 58.09,28.1c20.68,-9.55 39.48,-18.06 58.09,-28.1c4.2,-2.26 7.12,-4.8 9.2,-7.84c-19.52,-8.86 -42.58,-13.98 -67.28,-13.98c-24.71,0 -47.76,5.12 -67.28,13.98z" />
		<path id="Path 4" class="shp2" d="M18.71,171.97c1.24,0.94 2.63,1.82 4.2,2.67c18.61,10.04 37.41,18.55 58.09,28.1c20.68,-9.55 39.48,-18.06 58.09,-28.1c1.57,-0.85 2.96,-1.74 4.2,-2.67c-18.18,-7.83 -39.49,-12.34 -62.29,-12.34c-22.8,0 -44.11,4.51 -62.29,12.34z" />
		<path id="Path 5" class="shp0" d="M15.82,62.36l-2.59,1.11l2.66,1.18l1.1,2.59l1.18,-2.66l2.59,-1.1l-2.66,-1.18l-1.1,-2.59zM18.53,129.73l-2.59,1.1l2.66,1.18l1.1,2.59l1.18,-2.66l2.59,-1.1l-2.66,-1.18l-1.1,-2.59zM134.72,95.73l-2.59,1.1l2.66,1.18l1.1,2.59l1.18,-2.66l2.59,-1.1l-2.66,-1.18l-1.1,-2.59zM142.38,59.98l-1.57,0.67l1.61,0.71l0.67,1.57l0.71,-1.61l1.57,-0.67l-1.61,-0.71l-0.67,-1.57zM143.8,136.63l-2.59,1.11l2.66,1.18l1.1,2.59l1.18,-2.66l2.59,-1.1l-2.66,-1.18l-1.1,-2.59z" />
		<path id="Path 6" class="shp3" d="M79.45,59.02h11.39l2.28,-2.28h-13.67zM94.82,56.74h-27.65l-10.32,83.18l-0.14,1.15h48.58z" />
		<path id="Path 7" class="shp4" d="M90.87,60.69h-10.25h-9.11l-5.69,80.37h15.18h15.18z" />
		<path id="Path 8" class="shp3" d="M93.11,56.74h-23.53l2.28,2.28h18.98z" />
		<path id="Path 9" class="shp5" d="M41.9,44.58l-1.69,2.29l-9.9,13.44l-0.41,0.55l0.25,0.18l1.98,1.45l0.54,0.4l1.17,-1.59l10.07,-13.67l0.76,-1.03z" />
		<path id="Path 10" class="shp6" d="M33.84,61.31c-0.63,-0.7 -1.54,-1.14 -2.56,-1.14c-0.34,0 -0.67,0.05 -0.97,0.15c-1.42,0.41 -2.46,1.73 -2.46,3.28c0,0.22 0.02,0.45 0.06,0.66c0.27,1.36 1.34,2.43 2.7,2.7c0.21,0.04 0.43,0.06 0.66,0.06c1.9,0 3.43,-1.53 3.43,-3.43c0,-0.88 -0.33,-1.68 -0.87,-2.29z" />
		<path id="Path 11" class="shp7" d="M30.43,61.02c-0.95,0 -1.71,0.77 -1.71,1.71c0,0.95 0.77,1.72 1.71,1.72c0.95,0 1.71,-0.77 1.71,-1.72c0,-0.95 -0.77,-1.71 -1.71,-1.71z" />
		<path id="Path 12" class="shp5" d="M132.1,60.86l-12,-16.29l-2.76,2.03l12,16.29z" />
		<path id="Path 13" class="shp6" d="M128.15,63.59c0,1.89 1.53,3.43 3.43,3.43c1.89,0 3.43,-1.53 3.43,-3.43c0,-1.9 -1.53,-3.43 -3.43,-3.43c-1.89,0 -3.43,1.53 -3.43,3.43z" />
		<path id="Path 14" class="shp7" d="M129.86,62.74c0,0.95 0.77,1.72 1.71,1.72c0.95,0 1.72,-0.77 1.72,-1.72c0,-0.95 -0.77,-1.71 -1.72,-1.71c-0.95,0 -1.71,0.77 -1.71,1.71z" />
		<path id="Path 15" class="shp8" d="M110.16,23.65c0,-1.81 -1.81,-1.81 -1.81,-1.81h-3.22h-3.22c0,0 -1.81,0 -1.81,1.81c0,1.77 -0.2,3.15 -3.02,3.21c-2.82,-0.07 -3.02,-1.44 -3.02,-3.21c0,-1.81 -1.81,-1.81 -1.81,-1.81h-3.22h-3.22c0,0 -1.81,0 -1.81,1.81c0,1.77 -0.2,3.15 -3.02,3.21c-2.82,-0.07 -3.02,-1.44 -3.02,-3.21c0,-1.81 -1.81,-1.81 -1.81,-1.81h-3.22h-3.22c0,0 -1.81,0 -1.81,1.81c0,1.77 -0.2,3.15 -3.02,3.21c-2.82,-0.07 -3.02,-1.44 -3.02,-3.21c0,-1.81 -1.81,-1.81 -1.81,-1.81h-3.22h-3.22c0,0 -1.81,0 -1.81,1.81c0,1.81 -0.2,3.22 -3.22,3.22l1.81,2.61l6.44,-0.92l6.44,0.92l1.61,-2.32l1.61,2.32l6.44,-0.92l6.44,0.92l1.61,-2.32l1.61,2.32l6.44,-0.92l6.44,0.92l1.61,-2.32l1.61,2.32l6.43,-0.92l6.44,0.92l1.81,-2.61c-3.02,0 -3.22,-1.41 -3.22,-3.22z" />
		<path id="Path 16" class="shp9" d="M113.73,26.81c0,-0.01 0,-0.01 -0.01,-0.02c-3.14,-15.2 -16.59,-26.63 -32.73,-26.63c-0.36,0 -0.74,0.01 -1.1,0.02c-0.25,0.01 -0.52,0.02 -0.77,0.04c-0.78,0.04 -1.54,0.11 -2.29,0.2c-0.32,0.04 -0.63,0.08 -0.94,0.13c-0.33,0.05 -0.66,0.11 -0.99,0.17c-0.33,0.06 -0.65,0.12 -0.98,0.19c-0.33,0.07 -0.64,0.14 -0.95,0.22c-0.01,0.01 -0.02,0.01 -0.02,0.01c-12.41,3.07 -22.09,13.07 -24.69,25.67c-0.02,0.06 -0.02,0.12 -0.04,0.18c0.14,-0.02 0.29,-0.04 0.43,-0.05c0.32,-0.04 0.63,-0.09 0.96,-0.12c3.93,-0.48 8.14,-0.88 12.57,-1.18c1.81,-0.12 3.67,-0.23 5.56,-0.31c1.95,-0.09 3.94,-0.16 5.97,-0.21c0.77,-0.02 1.56,-0.04 2.34,-0.05c0.26,-0.01 0.51,-0.01 0.77,-0.01c0.22,-0.01 0.43,-0.01 0.64,-0.01c0.07,0 0.15,-0.01 0.22,-0.01h0.58c0.91,-0.02 1.81,-0.02 2.73,-0.02h0.27c0.47,0 0.93,0 1.39,0.01c0.2,-0.01 0.4,0 0.59,0h0.27c0.07,0 0.14,0.01 0.21,0.01h0.58c0.29,0.01 0.58,0.01 0.87,0.02h0.3c0.15,0 0.31,0 0.47,0.01c2.83,0.05 5.6,0.13 8.31,0.26c1.05,0.05 2.08,0.1 3.1,0.15c0.74,0.05 1.46,0.09 2.19,0.14c0.09,0.01 0.18,0.02 0.27,0.02c0.63,0.04 1.26,0.08 1.88,0.14c0.73,0.05 1.44,0.11 2.15,0.16c0.69,0.06 1.36,0.12 2.04,0.19c0.69,0.06 1.36,0.12 2.04,0.19c0.67,0.07 1.34,0.14 2,0.21c0.83,0.09 1.66,0.19 2.46,0.29c0.33,0.04 0.64,0.08 0.96,0.12c0.15,0.02 0.29,0.04 0.43,0.05c-0.02,-0.06 -0.02,-0.12 -0.04,-0.18z" />
		<path id="Path 17" class="shp8" d="M113.73,26.81c0,-0.01 0,-0.01 -0.01,-0.02c-3.14,-15.2 -16.59,-26.63 -32.73,-26.63c-0.36,0 -0.74,0.01 -1.1,0.02c-0.25,0.01 -0.52,0.02 -0.77,0.04c-0.78,0.04 -1.54,0.11 -2.29,0.2c-0.32,0.04 -0.63,0.08 -0.94,0.13c-0.33,0.05 -0.66,0.11 -0.99,0.17c-0.33,0.06 -0.65,0.12 -0.98,0.19c-0.33,0.07 -0.64,0.14 -0.95,0.22c-0.01,0.01 -0.02,0.01 -0.02,0.01c11.97,2.95 21.38,12.35 24.38,24.29v0.01c0.01,0.02 0.01,0.02 0.02,0.04v0.01c0.74,0.04 1.46,0.09 2.19,0.13c0.09,0.01 0.18,0.02 0.27,0.02v0.01c0.63,0.04 1.26,0.08 1.88,0.13c0.73,0.05 1.44,0.11 2.15,0.16c0.68,0.06 1.36,0.12 2.04,0.19c0.68,0.06 1.36,0.12 2.04,0.19c0.67,0.07 1.34,0.14 2,0.21c0.83,0.09 1.66,0.19 2.46,0.29c0.33,0.04 0.64,0.08 0.96,0.12c0.15,0.02 0.29,0.04 0.43,0.05c-0.02,-0.06 -0.02,-0.12 -0.04,-0.18z" />
		<path id="Path 18" class="shp0" d="M67.29,7.02c-3.79,0 -6.86,3.07 -6.86,6.86c0,3.79 3.07,6.86 6.86,6.86c3.79,0 6.86,-3.07 6.86,-6.86c0,-3.79 -3.07,-6.86 -6.86,-6.86z" />
		<path id="Path 19" class="shp10" d="M144.96,36.56c-0.1,-0.21 -0.23,-0.41 -0.4,-0.62v-0.01c-0.16,-0.22 -0.36,-0.43 -0.57,-0.65c-0.22,-0.21 -0.46,-0.42 -0.72,-0.62c-0.26,-0.2 -0.55,-0.4 -0.86,-0.61h-0.01c-0.2,-0.13 -0.42,-0.26 -0.64,-0.39c-0.63,-0.36 -1.34,-0.72 -2.13,-1.07c0,-0.01 -0.01,-0.01 -0.02,-0.01c-5.46,-2.42 -14.55,-4.44 -25.88,-5.78c-0.76,-0.09 -1.54,-0.18 -2.32,-0.26c-3.66,-0.39 -7.54,-0.72 -11.59,-0.96c-0.82,-0.05 -1.65,-0.1 -2.5,-0.15c-1.02,-0.05 -2.05,-0.1 -3.09,-0.14c-2.7,-0.12 -5.48,-0.2 -8.3,-0.24c-0.15,-0.01 -0.31,-0.01 -0.47,-0.01h-0.3c-0.2,-0.01 -0.4,-0.01 -0.61,-0.02h-0.84c-0.15,-0.01 -0.32,-0.01 -0.48,-0.01c-0.19,0 -0.39,-0.01 -0.59,0c-0.46,-0.01 -0.92,-0.01 -1.39,-0.01h-0.27c-0.91,0 -1.82,0.01 -2.73,0.02h-0.58c-0.29,0.01 -0.58,0.01 -0.87,0.02c-0.25,0 -0.51,0 -0.77,0.01c-2.82,0.04 -5.59,0.12 -8.3,0.24c-1.9,0.08 -3.76,0.17 -5.59,0.29c-4.04,0.24 -7.93,0.57 -11.59,0.96c-0.78,0.09 -1.56,0.17 -2.32,0.26c-12.97,1.53 -23.01,3.96 -28.02,6.86c-1.27,0.73 -2.22,1.49 -2.81,2.28c-0.48,0.63 -0.73,1.28 -0.73,1.94c0,0.08 0,0.15 0.01,0.22c0.22,1.39 2.39,2.74 5.84,4.06c4.32,1.65 10.65,3.23 17.65,4.7c1.21,0.26 2.44,0.51 3.69,0.77c5.5,1.1 11.28,2.14 16.71,3.1h40.78c5.43,-0.96 11.21,-2 16.71,-3.1c1.25,-0.26 2.48,-0.5 3.69,-0.77c7,-1.47 13.34,-3.05 17.65,-4.7c1.39,-0.53 2.56,-1.06 3.5,-1.6c0.88,-0.51 1.53,-1.03 1.93,-1.56c0.11,-0.15 0.2,-0.29 0.27,-0.45c0.05,-0.11 0.09,-0.22 0.12,-0.33c0.01,-0.04 0.02,-0.08 0.02,-0.12c0.02,-0.08 0.02,-0.15 0.02,-0.22c0,-0.44 -0.11,-0.88 -0.33,-1.32z" />
		<path id="Path 20" class="shp8" d="M144.96,36.56c-0.1,-0.21 -0.23,-0.42 -0.4,-0.63c-0.16,-0.22 -0.36,-0.43 -0.57,-0.65c-0.22,-0.21 -0.46,-0.42 -0.72,-0.62c-0.26,-0.21 -0.55,-0.41 -0.86,-0.61h-0.01c-0.19,-0.13 -0.4,-0.26 -0.62,-0.39c-0.64,-0.37 -1.37,-0.74 -2.18,-1.09c-5.46,-2.42 -14.55,-4.44 -25.88,-5.78c-0.77,-0.09 -1.55,-0.18 -2.34,-0.26c-3.65,-0.4 -7.52,-0.71 -11.55,-0.96c-0.83,-0.05 -1.66,-0.1 -2.5,-0.14c-1.02,-0.05 -2.05,-0.1 -3.09,-0.15c-2.71,-0.11 -5.48,-0.19 -8.3,-0.22c-0.15,-0.01 -0.31,-0.01 -0.47,-0.01c-0.3,-0.01 -0.61,-0.01 -0.91,-0.02h-0.65c-0.13,-0.01 -0.26,-0.01 -0.4,-0.01h-0.27c-0.19,0 -0.39,-0.01 -0.59,0c-0.46,-0.01 -0.92,-0.01 -1.39,-0.01h-0.27c-0.91,0 -1.82,0.01 -2.73,0.02c-0.06,0 -0.12,0 -0.19,0.01h-0.62c-1.26,0.02 -2.51,0.05 -3.75,0.07c1.49,0.04 2.97,0.08 4.42,0.14c1.91,0.07 3.78,0.16 5.63,0.26c3.94,0.23 7.73,0.53 11.32,0.9c1.05,0.1 2.07,0.22 3.08,0.33c5.08,0.59 9.73,1.32 13.8,2.15c6.42,1.33 11.43,2.92 14.55,4.7c2.36,1.34 3.64,2.78 3.64,4.29c0,1.44 -2.08,2.88 -5.53,4.29c-7.75,3.16 -22.35,6.14 -35.37,8.57h12.3c5.38,-0.96 11.08,-1.99 16.53,-3.08c1.25,-0.25 2.48,-0.5 3.7,-0.77c7.01,-1.48 13.35,-3.06 17.66,-4.72c1.38,-0.53 2.55,-1.06 3.47,-1.6c0.88,-0.51 1.53,-1.03 1.93,-1.56c0.11,-0.15 0.2,-0.29 0.27,-0.45c0.05,-0.11 0.09,-0.22 0.12,-0.33c0.01,-0.04 0.02,-0.08 0.02,-0.12c0.02,-0.08 0.02,-0.15 0.02,-0.22c0,-0.44 -0.11,-0.88 -0.33,-1.32z" />
		<path id="Path 21" class="shp6" d="M145.27,37.45v-0.02c-0.01,-0.08 -0.02,-0.15 -0.03,-0.23c-0.02,-0.15 -0.05,-0.3 -0.1,-0.45c-0.43,-1.57 -1.74,-2.79 -3.36,-3.08h-0.02c-0.25,-0.05 -0.5,-0.07 -0.75,-0.07h-120.01c-0.26,0 -0.5,0.02 -0.75,0.07c-1.64,0.29 -2.95,1.5 -3.38,3.08c-0.04,0.15 -0.07,0.3 -0.1,0.45c-0.02,0.08 -0.02,0.16 -0.03,0.23v0.02c-0.01,0.15 -0.02,0.29 -0.02,0.43c0,0.08 0,0.15 0.01,0.22c0.11,2.26 1.98,4.06 4.27,4.06h120.01c2.24,0 4.08,-1.73 4.27,-3.92c0.01,-0.05 0.01,-0.09 0,-0.14c0.02,-0.08 0.02,-0.15 0.02,-0.22c0,-0.15 -0.01,-0.29 -0.02,-0.43z" />
		<path id="Path 22" class="shp11" d="M135.86,35.31c-1.42,0 -2.57,1.15 -2.57,2.57c0,1.42 1.15,2.57 2.57,2.57c1.42,0 2.57,-1.15 2.57,-2.57c0,-1.42 -1.15,-2.57 -2.57,-2.57zM122.15,35.31c-1.42,0 -2.57,1.15 -2.57,2.57c0,1.42 1.15,2.57 2.57,2.57c1.42,0 2.57,-1.15 2.57,-2.57c0,-1.42 -1.15,-2.57 -2.57,-2.57zM108.43,35.31c-1.42,0 -2.57,1.15 -2.57,2.57c0,1.42 1.15,2.57 2.57,2.57c1.42,0 2.57,-1.15 2.57,-2.57c0,-1.42 -1.15,-2.57 -2.57,-2.57zM94.72,35.31c-1.42,0 -2.57,1.15 -2.57,2.57c0,1.42 1.15,2.57 2.57,2.57c1.42,0 2.57,-1.15 2.57,-2.57c0,-1.42 -1.15,-2.57 -2.57,-2.57zM81,35.31c-1.42,0 -2.57,1.15 -2.57,2.57c0,1.42 1.15,2.57 2.57,2.57c1.42,0 2.57,-1.15 2.57,-2.57c0,-1.42 -1.15,-2.57 -2.57,-2.57zM67.29,35.31c-1.42,0 -2.57,1.15 -2.57,2.57c0,1.42 1.15,2.57 2.57,2.57c1.42,0 2.57,-1.15 2.57,-2.57c0,-1.42 -1.15,-2.57 -2.57,-2.57zM53.57,35.31c-1.42,0 -2.57,1.15 -2.57,2.57c0,1.42 1.15,2.57 2.57,2.57c1.42,0 2.57,-1.15 2.57,-2.57c0,-1.42 -1.15,-2.57 -2.57,-2.57zM39.85,35.31c-1.42,0 -2.57,1.15 -2.57,2.57c0,1.42 1.15,2.57 2.57,2.57c1.42,0 2.57,-1.15 2.57,-2.57c0,-1.42 -1.15,-2.57 -2.57,-2.57zM26.14,35.31c-1.42,0 -2.57,1.15 -2.57,2.57c0,1.42 1.15,2.57 2.57,2.57c1.42,0 2.57,-1.15 2.57,-2.57c0,-1.42 -1.15,-2.57 -2.57,-2.57z" />
		<path id="Path 23" class="shp12" d="M145.27,37.45v-0.02c-0.01,-0.08 -0.02,-0.15 -0.03,-0.23c-0.03,-0.15 -0.06,-0.3 -0.1,-0.45c-0.11,-0.36 -0.26,-0.7 -0.44,-1.01c-0.04,0.07 -0.09,0.14 -0.13,0.2v0.01c-0.21,0.32 -0.46,0.6 -0.74,0.85c-0.75,0.67 -1.74,1.08 -2.82,1.08h-120.01c-1.5,0 -2.79,-0.77 -3.56,-1.94c-0.05,-0.07 -0.09,-0.14 -0.13,-0.21c-0.19,0.32 -0.33,0.66 -0.44,1.01c-0.04,0.15 -0.07,0.3 -0.1,0.45c-0.02,0.08 -0.02,0.16 -0.03,0.23v0.02c-0.01,0.15 -0.02,0.29 -0.02,0.43c0,0.08 0,0.15 0.01,0.22c0.11,2.26 1.98,4.06 4.27,4.06h120.01c2.24,0 4.08,-1.73 4.27,-3.92c0.01,-0.05 0.01,-0.09 0,-0.14c0.02,-0.08 0.02,-0.15 0.02,-0.22c0,-0.15 -0.01,-0.29 -0.02,-0.43zM141,33.59h-27.43c2.37,0 4.29,1.92 4.29,4.29c0,2.37 -1.92,4.29 -4.29,4.29h27.43c2.37,0 4.29,-1.92 4.29,-4.29c0,-2.37 -1.92,-4.29 -4.29,-4.29z" />
		<path id="Path 24" class="shp13" d="M101.57,50.74h-41.15l4.29,6h32.57z" />
		<path id="Path 25" class="shp14" d="M88.72,50.74l-4.29,6h12.86l4.29,-6z" />
		<path id="Path 26" class="shp5" d="M82.71,46.45h-3.43v27.43h3.43z" />
		<path id="Path 27" class="shp6" d="M81,71.31c-1.89,0 -3.43,1.53 -3.43,3.43c0,1.89 1.53,3.43 3.43,3.43c1.89,0 3.43,-1.53 3.43,-3.43c0,-1.89 -1.54,-3.43 -3.43,-3.43z" />
		<path id="Path 28" class="shp7" d="M80.14,72.17c-0.95,0 -1.72,0.77 -1.72,1.71c0,0.95 0.77,1.72 1.72,1.72c0.95,0 1.71,-0.77 1.71,-1.72c0,-0.95 -0.77,-1.71 -1.71,-1.71zM47.51,108.53l-1.57,0.67l1.61,0.71l0.67,1.57l0.71,-1.61l1.57,-0.67l-1.61,-0.71l-0.67,-1.57z" />
	</g>
</svg>