<?xml version="1.0" encoding="utf-8"?>
<!-- Generator: Adobe Illustrator 22.1.0, SVG Export Plug-In . SVG Version: 6.00 Build 0)  -->
<svg version="1.1" id="Capa_1" xmlns="http://www.w3.org/2000/svg" xmlns:xlink="http://www.w3.org/1999/xlink" x="0px" y="0px"
	 viewBox="0 0 512 512" style="enable-background:new 0 0 512 512;" xml:space="preserve">
<style type="text/css">
	.st0{fill:#FCB043;}
	.st1{fill:#F7A12F;}
	.st2{fill:#EF9122;}
	.st3{fill:#CAEBF9;}
	.st4{fill:#04A1EE;}
	.st5{fill:#3B4F66;}
	.st6{fill:#BCCED5;}
</style>
<path class="st0" d="M494.9,170.7c9.4,0,17.1,7.6,17.1,17.1v307.2c0,9.4-7.6,17.1-17.1,17.1h-89.6H106.7H17.1
	C7.6,512,0,504.4,0,494.9V187.7c0-9.4,7.6-17.1,17.1-17.1L494.9,170.7L494.9,170.7L494.9,170.7z"/>
<g>
	<path class="st1" d="M6.1,174.7l246.3,181c2.2,1.6,5.1,1.6,7.3,0l246.3-181c-3-2.5-6.8-4-11-4H17.1C12.9,170.7,9,172.2,6.1,174.7z"
		/>
	<path class="st1" d="M491.4,187.7v307.2c0,9.4-7.6,17.1-17.1,17.1h20.6c9.4,0,17.1-7.6,17.1-17.1V187.7c0-9.4-7.6-17.1-17.1-17.1
		h-20.6C483.8,170.7,491.4,178.3,491.4,187.7z"/>
</g>
<path class="st2" d="M491.2,185.5l14.7-10.8l0,0c-0.3-0.2-0.6-0.5-0.9-0.7c-0.1-0.1-0.2-0.2-0.3-0.3c-0.3-0.2-0.6-0.4-0.8-0.5
	c-0.2-0.1-0.3-0.2-0.5-0.3c-0.3-0.2-0.5-0.3-0.8-0.4c-0.2-0.1-0.4-0.2-0.6-0.3c-0.3-0.1-0.5-0.2-0.8-0.3c-0.2-0.1-0.5-0.2-0.7-0.3
	c-0.2-0.1-0.5-0.2-0.8-0.2c-0.3-0.1-0.6-0.1-0.8-0.2c-0.2-0.1-0.5-0.1-0.7-0.2c-0.3-0.1-0.7-0.1-1-0.2c-0.2,0-0.4-0.1-0.6-0.1
	c-0.5-0.1-1.1-0.1-1.7-0.1h-20.6C483,170.7,490.1,177.1,491.2,185.5z"/>
<path class="st3" d="M113.3,477.9h-73c-3.4,0-6.2-2.8-6.2-6.2v-73c0-3.4,2.8-6.2,6.2-6.2h73c3.4,0,6.2,2.8,6.2,6.2v73
	C119.5,475.1,116.7,477.9,113.3,477.9z"/>
<path class="st4" d="M87.7,452.3H65.9c-3.4,0-6.2-2.8-6.2-6.2v-21.8c0-3.4,2.8-6.2,6.2-6.2h21.8c3.4,0,6.2,2.8,6.2,6.2v21.8
	C93.9,449.5,91.1,452.3,87.7,452.3z"/>
<g>
	<path class="st5" d="M204.8,401.9h-51.2c-4.3,0-7.7,3.5-7.7,7.7s3.5,7.7,7.7,7.7h51.2c4.3,0,7.7-3.5,7.7-7.7
		S209.1,401.9,204.8,401.9z"/>
	<path class="st5" d="M204.8,436h-51.2c-4.3,0-7.7,3.5-7.7,7.7s3.5,7.7,7.7,7.7h51.2c4.3,0,7.7-3.5,7.7-7.7
		C212.5,439.5,209.1,436,204.8,436z"/>
	<path class="st5" d="M256,436h-25.6c-4.3,0-7.7,3.5-7.7,7.7s3.5,7.7,7.7,7.7H256c4.3,0,7.7-3.5,7.7-7.7
		C263.7,439.5,260.3,436,256,436z"/>
</g>
<path class="st3" d="M426.7,233V6.2c0-3.4-2.8-6.2-6.2-6.2h-329c-3.4,0-6.2,2.8-6.2,6.2V233l167,122.7c2.2,1.6,5.1,1.6,7.3,0
	L426.7,233z"/>
<path class="st6" d="M420.5,0h-20.6c3.4,0,6.2,2.8,6.2,6.2v241.9l20.6-15.1V6.2C426.7,2.8,423.9,0,420.5,0z"/>
<circle class="st0" cx="256" cy="153.6" r="102.4"/>
<path class="st1" d="M256,235.4c-53.1,0-96.7-40.4-101.9-92.1c-0.3,3.4-0.5,6.8-0.5,10.3c0,56.6,45.8,102.4,102.4,102.4
	s102.4-45.8,102.4-102.4c0-3.5-0.2-6.9-0.5-10.3C352.7,195,309.1,235.4,256,235.4z"/>
<path class="st5" d="M306.9,167.4c-4-1.4-8.4,0.7-9.8,4.8c-6.1,17.5-22.6,29.2-41.1,29.2c-18.5,0-35-11.7-41.1-29.2
	c-1.4-4-5.8-6.2-9.8-4.8c-4,1.4-6.2,5.8-4.8,9.8c8.2,23.7,30.6,39.6,55.7,39.6c25.1,0,47.4-15.9,55.7-39.6
	C313.1,173.2,310.9,168.8,306.9,167.4z"/>
<g>
	<path class="st1" d="M221.9,150.1c-4.3,0-7.7,3.5-7.7,7.7c0,5.2-4.2,9.3-9.3,9.3s-9.3-4.2-9.3-9.3c0-4.3-3.5-7.7-7.7-7.7
		s-7.7,3.5-7.7,7.7c0,13.7,11.1,24.8,24.8,24.8c13.7,0,24.8-11.1,24.8-24.8C229.6,153.6,226.1,150.1,221.9,150.1z"/>
	<path class="st1" d="M324.3,150.1c-4.3,0-7.7,3.5-7.7,7.7c0,5.2-4.2,9.3-9.3,9.3s-9.3-4.2-9.3-9.3c0-4.3-3.5-7.7-7.7-7.7
		c-4.3,0-7.7,3.5-7.7,7.7c0,13.7,11.1,24.8,24.8,24.8s24.8-11.1,24.8-24.8C332,153.6,328.5,150.1,324.3,150.1z"/>
</g>
<g>
	<path class="st5" d="M217.6,94.7c-16,0-29.1,13-29.1,29.1c0,4.3,3.5,7.7,7.7,7.7s7.7-3.5,7.7-7.7c0-7.5,6.1-13.6,13.6-13.6
		s13.6,6.1,13.6,13.6c0,4.3,3.5,7.7,7.7,7.7s7.7-3.5,7.7-7.7C246.7,107.7,233.6,94.7,217.6,94.7z"/>
	<path class="st5" d="M294.4,94.7c-16,0-29.1,13-29.1,29.1c0,4.3,3.5,7.7,7.7,7.7s7.7-3.5,7.7-7.7c0-7.5,6.1-13.6,13.6-13.6
		c7.5,0,13.6,6.1,13.6,13.6c0,4.3,3.5,7.7,7.7,7.7c4.3,0,7.7-3.5,7.7-7.7C323.5,107.7,310.4,94.7,294.4,94.7z"/>
</g>
</svg>
