<?xml version="1.0" encoding="utf-8"?>
<!-- Generator: Adobe Illustrator 22.1.0, SVG Export Plug-In . SVG Version: 6.00 Build 0)  -->
<svg version="1.1" id="Layer_1" xmlns="http://www.w3.org/2000/svg" xmlns:xlink="http://www.w3.org/1999/xlink" x="0px" y="0px"
	 viewBox="0 0 512 512" style="enable-background:new 0 0 512 512;" xml:space="preserve">
<style type="text/css">
	.st0{fill:#8DB0FF;}
	.st1{fill:#669AF7;}
	.st2{fill:#DDF5FF;}
	.st3{fill:#C1E9F4;}
	.st4{fill:#636363;}
	.st5{fill:#FF6969;}
</style>
<path class="st0" d="M512,256c0,141.4-114.6,256-256,256S0,397.4,0,256S114.6,0,256,0S512,114.6,512,256z"/>
<path class="st1" d="M428,66.4c41.2,45.4,66.4,105.8,66.4,172c0,141.4-114.6,256-256,256c-66.2,0-126.5-25.1-172-66.4
	c46.8,51.6,114.5,84,189.6,84c141.4,0,256-114.6,256-256C512,180.8,479.6,113.2,428,66.4z"/>
<path class="st2" d="M460,256c0,112.6-91.3,204-204,204S52,368.6,52,256S143.4,52,256,52S460,143.4,460,256z"/>
<path class="st3" d="M390.3,102.5c31.4,35.9,50.4,82.9,50.4,134.3c0,112.6-91.3,204-204,204c-51.4,0-98.4-19-134.3-50.4
	C139.9,433,194.8,460,256,460c112.6,0,204-91.3,204-204C460,194.8,433,139.9,390.3,102.5z"/>
<path class="st4" d="M272.6,256h-33.3V122.8c0-9.2,7.5-16.6,16.6-16.6s16.6,7.5,16.6,16.6V256z"/>
<path class="st4" d="M188.2,339.9c-6.5,6.5-17,6.5-23.5,0c-6.5-6.5-6.5-17,0-23.5l72.1-72.1l23.5,23.5L188.2,339.9z"/>
<path class="st5" d="M351.6,367.7l-85.5-85.5c-3.1-3-3.1-8,0-11c3-3,8-3,11,0l85.5,85.5c3.1,3.1,3.1,8,0,11
	c-1.5,1.5-3.5,2.3-5.5,2.3C355.1,369.9,353.1,369.2,351.6,367.7z"/>
<g>
	<path class="st4" d="M263.8,52.2v20.7c0,4.3-3.5,7.8-7.8,7.8s-7.8-3.5-7.8-7.8V52.2c2.6-0.1,5.2-0.1,7.8-0.1S261.2,52.1,263.8,52.2
		z"/>
	<path class="st4" d="M168.3,104.1c-1.2,0.7-2.6,1.1-3.9,1.1c-2.7,0-5.3-1.4-6.8-3.9l-10.3-17.9c4.4-2.8,8.9-5.4,13.5-7.8l10.4,17.9
		C173.3,97.2,172.1,102,168.3,104.1z"/>
	<path class="st4" d="M104.1,168.3c-1.4,2.5-4.1,3.9-6.8,3.9c-1.3,0-2.7-0.3-3.9-1l-17.9-10.4c2.4-4.6,5-9.1,7.8-13.5l17.9,10.3
		C105,159.8,106.3,164.6,104.1,168.3z"/>
	<path class="st4" d="M80.6,256c0,4.3-3.5,7.8-7.8,7.8H52.2c-0.1-2.6-0.1-5.2-0.1-7.8s0.1-5.2,0.1-7.8h20.7
		C77.2,248.2,80.6,251.7,80.6,256z"/>
	<path class="st4" d="M101.3,354.3l-17.9,10.3c-2.8-4.4-5.4-8.9-7.8-13.5l17.9-10.4c3.7-2.2,8.5-0.9,10.7,2.9
		C106.3,347.4,105,352.2,101.3,354.3z"/>
	<path class="st4" d="M171.2,418.5l-10.4,17.9c-4.6-2.4-9.1-5-13.5-7.8l10.3-17.9c2.2-3.7,6.9-5,10.7-2.9
		C172.1,410,173.3,414.8,171.2,418.5z"/>
	<path class="st4" d="M263.8,439.2v20.7c-2.6,0.1-5.2,0.1-7.8,0.1s-5.2-0.1-7.8-0.1v-20.7c0-4.3,3.5-7.8,7.8-7.8
		C260.3,431.4,263.8,434.8,263.8,439.2z"/>
	<path class="st4" d="M364.7,428.6c-4.4,2.8-8.9,5.4-13.5,7.8l-10.4-17.9c-2.2-3.7-0.9-8.5,2.9-10.7c3.7-2.2,8.5-0.9,10.7,2.9
		L364.7,428.6z"/>
	<path class="st4" d="M436.4,351.2c-2.4,4.6-5,9.1-7.8,13.5l-17.9-10.3c-3.7-2.2-5-6.9-2.9-10.7c2.2-3.7,6.9-5,10.7-2.9L436.4,351.2
		z"/>
	<path class="st4" d="M460,256c0,2.6-0.1,5.2-0.1,7.8h-20.7c-4.3,0-7.8-3.5-7.8-7.8s3.5-7.8,7.8-7.8h20.7
		C459.9,250.8,460,253.4,460,256z"/>
	<path class="st4" d="M436.4,160.8l-17.9,10.4c-1.2,0.7-2.6,1-3.9,1c-2.7,0-5.3-1.4-6.8-3.9c-2.2-3.7-0.9-8.5,2.9-10.7l17.9-10.3
		C431.4,151.7,434,156.2,436.4,160.8z"/>
	<path class="st4" d="M364.7,83.4l-10.3,17.9c-1.4,2.5-4.1,3.9-6.8,3.9c-1.3,0-2.7-0.3-3.9-1.1c-3.7-2.2-5-6.9-2.9-10.7l10.4-17.9
		C355.8,78,360.3,80.6,364.7,83.4z"/>
</g>
<path class="st0" d="M287.2,256c0,17.2-14,31.2-31.2,31.2s-31.2-14-31.2-31.2s14-31.2,31.2-31.2S287.2,238.8,287.2,256z"/>
<path class="st1" d="M273.8,230.4c3.5,5.1,5.6,11.2,5.6,17.8c0,17.2-14,31.2-31.2,31.2c-6.6,0-12.8-2.1-17.8-5.6
	c5.6,8.1,15,13.4,25.6,13.4c17.2,0,31.2-14,31.2-31.2C287.2,245.4,281.9,236,273.8,230.4z"/>
</svg>
