<?xml version="1.0" encoding="utf-8"?>
<!-- Generator: Adobe Illustrator 22.1.0, SVG Export Plug-In . SVG Version: 6.00 Build 0)  -->
<svg xmlns="http://www.w3.org/2000/svg" xmlns:xlink="http://www.w3.org/1999/xlink" viewBox="0 0 362.1 362.1" style="enable-background:new 0 0 362.1 362.1;" xml:space="preserve">
<style type="text/css">
	.st0{fill:#324969;}
</style>
<path class="st0" d="M120.7,181c0-33.3,27-60.3,60.3-60.3c33.3,0,60.4,27,60.4,60.3c0,33.3-27,60.3-60.4,60.3
	C147.7,241.4,120.7,214.4,120.7,181 M88.1,181c0,51.3,41.6,93,93,93c51.4,0,93-41.6,93-93s-41.6-93-93-93
	C129.7,88.1,88.1,129.7,88.1,181 M256,84.4c0,12,9.7,21.7,21.7,21.7c12,0,21.7-9.7,21.7-21.7c0-12-9.7-21.7-21.7-21.7
	C265.7,62.7,256,72.4,256,84.4 M107.9,328.4c-17.7-0.8-27.2-3.7-33.6-6.2c-8.5-3.3-14.5-7.2-20.8-13.5c-6.3-6.3-10.3-12.4-13.5-20.8
	c-2.5-6.4-5.4-16-6.2-33.6c-0.9-19.1-1.1-24.8-1.1-73.2c0-48.3,0.2-54.1,1.1-73.2c0.8-17.6,3.8-27.2,6.2-33.6
	c3.3-8.5,7.2-14.5,13.5-20.8c6.3-6.3,12.4-10.3,20.8-13.5c6.4-2.5,16-5.4,33.6-6.2c19.1-0.9,24.8-1.1,73.2-1.1
	c48.3,0,54.1,0.2,73.2,1.1c17.6,0.8,27.2,3.8,33.6,6.2c8.5,3.3,14.5,7.2,20.8,13.5c6.3,6.3,10.3,12.4,13.5,20.8
	c2.5,6.4,5.4,16,6.2,33.6c0.9,19.1,1,24.8,1,73.2c0,48.3-0.2,54.1-1,73.2c-0.8,17.7-3.8,27.2-6.2,33.6c-3.3,8.5-7.2,14.5-13.5,20.8
	c-6.3,6.3-12.4,10.3-20.8,13.5c-6.4,2.5-16,5.4-33.6,6.2c-19.1,0.9-24.8,1.1-73.2,1.1C132.7,329.5,127,329.3,107.9,328.4 M106.4,1.1
	C87.1,2,74,5,62.5,9.5c-11.9,4.6-22,10.8-32.1,20.9C20.3,40.5,14.1,50.5,9.5,62.5C5,74,2,87.1,1.1,106.4C0.2,125.7,0,131.9,0,181
	s0.2,55.3,1.1,74.6C2,275,5,288.1,9.5,299.6c4.6,11.9,10.8,22,20.9,32.1c10.1,10.1,20.2,16.3,32.1,20.9c11.5,4.5,24.7,7.5,43.9,8.4
	c19.3,0.9,25.5,1.1,74.6,1.1c49.2,0,55.3-0.2,74.6-1.1c19.3-0.9,32.4-3.9,44-8.4c11.9-4.6,22-10.8,32.1-20.9
	c10.1-10.1,16.3-20.2,20.9-32.1c4.5-11.5,7.5-24.7,8.4-43.9c0.9-19.3,1.1-25.5,1.1-74.6s-0.2-55.3-1.1-74.6
	c-0.9-19.3-3.9-32.4-8.4-43.9c-4.6-11.9-10.8-22-20.9-32.1c-10.1-10.1-20.2-16.3-32.1-20.9C288.1,5,275,2,255.7,1.1
	C236.4,0.2,230.2,0,181,0C131.9,0,125.7,0.2,106.4,1.1"/>
</svg>
