<?xml version="1.0" encoding="utf-8"?>
<!-- Generator: Adobe Illustrator 22.1.0, SVG Export Plug-In . SVG Version: 6.00 Build 0)  -->
<svg version="1.1" id="Layer_1" xmlns="http://www.w3.org/2000/svg" xmlns:xlink="http://www.w3.org/1999/xlink" x="0px" y="0px"
	 viewBox="0 0 464 472" style="enable-background:new 0 0 464 472;" xml:space="preserve">
<style type="text/css">
	.st0{fill:#BFBFBD;}
	.st1{fill:#F35244;}
	.st2{fill:#EA4A3B;}
	.st3{fill:#DE4132;}
	.st4{fill:#E0E0DE;}
	.st5{fill:#F59898;}
	.st6{fill:#EC8C8C;}
	.st7{fill:#E07F7F;}
	.st8{fill:#FC685B;}
	.st9{fill:#FEB2B2;}
	.st10{fill:#D47474;}
</style>
<path class="st0" d="M248,96h-16V64c0-26.5-21.5-48-48-48s-48,21.5-48,48v32h-16V64c0-35.3,28.7-64,64-64s64,28.7,64,64V96z"/>
<path class="st1" d="M240,248V96H0v376h240"/>
<path class="st2" d="M0,400v72h240V160L0,400z"/>
<path class="st3" d="M240,96v376h96V96H240z"/>
<path class="st4" d="M184,136h-16V64c0-26.5-21.5-48-48-48S72,37.5,72,64v72H56V64c0-35.3,28.7-64,64-64s64,28.7,64,64V136z"/>
<path class="st5" d="M160,248h224v224H160V248z"/>
<path class="st6" d="M160,424v48h224V248h-48L160,424z"/>
<path class="st7" d="M464,472h-80V248h80V472z"/>
<path class="st0" d="M392,248h-16v-24c0-26.5-21.5-48-48-48s-48,21.5-48,48v24h-16v-24c0-35.3,28.7-64,64-64s64,28.7,64,64V248z"/>
<path class="st4" d="M336,288h-16v-64c0-26.5-21.5-48-48-48s-48,21.5-48,48v64h-16v-64c0-35.3,28.7-64,64-64s64,28.7,64,64V288z"/>
<path class="st8" d="M24,168h16v16H24V168z"/>
<path class="st8" d="M24,200h16v96H24V200z"/>
<path class="st9" d="M184,304h16v16h-16V304z"/>
<path class="st9" d="M184,336h16v96h-16V336z"/>
<path class="st10" d="M432,428.7V248h-16v180.7l-32,32V472h11.3l28.7-28.7l28.7,28.7H464v-11.3L432,428.7z"/>
</svg>
