<?xml version="1.0" encoding="utf-8"?>
<!-- Generator: Adobe Illustrator 22.1.0, SVG Export Plug-In . SVG Version: 6.00 Build 0)  -->
<svg version="1.1" id="Layer_2" xmlns="http://www.w3.org/2000/svg" xmlns:xlink="http://www.w3.org/1999/xlink" x="0px" y="0px"
	 viewBox="0 0 47.6 43.5" style="enable-background:new 0 0 47.6 43.5;" xml:space="preserve">
<g>
	<path d="M24.4,8.2c-0.1-0.4-0.6-0.5-1-0.5c-0.5,0-0.9,0.2-1,0.5l-3,9.9c0,0,0,0.1,0,0.1c0,0.4,0.6,0.7,1,0.7c0.3,0,0.5-0.1,0.6-0.3
		l0.6-2.2h3.8l0.6,2.2c0.1,0.2,0.3,0.3,0.5,0.3c0.5,0,1-0.3,1-0.7c0,0,0-0.1,0-0.1L24.4,8.2z M21.9,15.1l1.5-5.2l1.5,5.2H21.9z"/>
	<path d="M13.4,32.9c0.8-0.4,1.3-1.2,1.3-2.5c0-2.1-1.4-2.6-3.1-2.6H8.8c-0.4,0-0.7,0.2-0.7,0.5v10.1c0,0.3,0.3,0.5,0.7,0.5h3.1
		c1.7,0,3-0.8,3-3.2v-0.3C14.9,33.9,14.3,33.3,13.4,32.9z M9.7,29.3h1.8c1,0,1.6,0.4,1.6,1.5c0,1-0.5,1.6-1.5,1.6H9.7V29.3z
		 M13.3,35.6c0,1.3-0.6,1.9-1.7,1.9H9.7v-4h1.9c1.1,0,1.7,0.5,1.7,1.8V35.6z"/>
	<path d="M36.9,29.3c1.6,0,1.8,1.1,1.8,1.6c0,0.4,0.3,0.5,0.8,0.5c0.5,0,0.8-0.2,0.8-0.8c0-1.6-1.4-2.8-3.5-2.8
		c-1.8,0-3.4,0.9-3.4,3.4v4.4c0,2.5,1.5,3.4,3.4,3.4c2.1,0,3.5-1.2,3.5-2.8c0-0.7-0.3-0.8-0.8-0.8c-0.4,0-0.8,0.1-0.8,0.5
		c-0.1,0.7-0.2,1.7-1.8,1.7c-1.2,0-1.9-0.6-1.9-2v-4.4C35.1,29.9,35.7,29.3,36.9,29.3z"/>
	<path d="M46.8,23l-3.7-2.8c-0.3-0.2-0.7-0.4-1.1-0.4h-6.8V4.7c0-0.2-0.1-0.5-0.1-0.7c0,0,0,0,0-0.1c-0.1-0.3-0.3-0.5-0.6-0.7
		l-3.7-2.8C30.4,0.1,30,0,29.5,0H17.4c-0.4,0-0.8,0.1-1.1,0.4l-3.7,2.8c-0.3,0.2-0.4,0.5-0.6,0.7c0,0,0,0,0,0.1
		c-0.1,0.2-0.1,0.5-0.1,0.7v15.1H5.6c-0.4,0-0.8,0.1-1.1,0.4L0.7,23C0.3,23.4,0,24,0,24.5v17.1c0,1,0.8,1.9,1.9,1.9h19.6
		c1,0,1.9-0.8,1.9-1.9V25.3h2v17.5c0,0.4,0.3,0.8,0.8,0.8h19.6c1,0,1.9-0.8,1.9-1.9V24.5C47.6,23.9,47.3,23.4,46.8,23z M46.1,41.6
		c0,0.2-0.2,0.4-0.4,0.4H26.9V25.3h4.8c0.4,0,0.8-0.3,0.8-0.8c0-0.4-0.3-0.8-0.8-0.8H15.6c-0.4,0-0.8,0.3-0.8,0.8
		c0,0.4,0.3,0.8,0.8,0.8h6.2v16.3c0,0.2-0.2,0.4-0.4,0.4H1.9c-0.2,0-0.4-0.2-0.4-0.4V25.3h7.4c0.4,0,0.8-0.3,0.8-0.8
		s-0.3-0.8-0.8-0.8H2.2l3.1-2.4c0.1-0.1,0.2-0.1,0.2-0.1h6.2v2.9c0,0.4,0.3,0.8,0.8,0.8c0.4,0,0.8-0.3,0.8-0.8V5h7.5
		c0.4,0,0.8-0.3,0.8-0.8s-0.3-0.8-0.8-0.8h-6.2l2.5-1.9c0.1-0.1,0.1-0.1,0.2-0.1h12.2c0.1,0,0.2,0,0.2,0.1l2.5,1.9h-0.5
		c-0.4,0-0.8,0.3-0.8,0.8S31.4,5,31.8,5h1.9v16.9c0,0.4,0.3,0.8,0.8,0.8c0.4,0,0.8-0.3,0.8-0.8v-0.6H42c0.1,0,0.2,0,0.2,0.1l3.1,2.4
		h-4c-0.4,0-0.8,0.3-0.8,0.8s0.3,0.8,0.8,0.8h4.8V41.6z"/>
</g>
</svg>
