<?xml version="1.0" encoding="utf-8"?>
<!-- Generator: Adobe Illustrator 22.1.0, SVG Export Plug-In . SVG Version: 6.00 Build 0)  -->
<svg version="1.1" id="Layer_2" xmlns="http://www.w3.org/2000/svg" xmlns:xlink="http://www.w3.org/1999/xlink" x="0px" y="0px"
	 viewBox="0 0 49.4 37.3" style="enable-background:new 0 0 49.4 37.3;" xml:space="preserve">
<g>
	<path d="M9.5,28.6c-0.2-0.4-0.6-0.6-1-0.4c-0.4,0.2-0.6,0.6-0.4,1c2.1,4.9,8.8,8.1,16.9,8.1c0,0,0,0,0,0c8.1,0,14.8-3.2,16.9-8.1
		c0.2-0.4,0-0.8-0.4-1c-0.4-0.2-0.8,0-1,0.4c-1.9,4.4-8,7.2-15.5,7.2c0,0,0,0,0,0C17.5,35.8,11.4,32.9,9.5,28.6z"/>
	<path d="M24.9,28.2c1.4,1.5,3.3,2.4,5.3,2.4c1,0,2.2-0.5,2.9-1.1c0.3-0.3,0.3-0.8,0-1.1c-0.3-0.3-0.8-0.3-1.1,0
		c-0.5,0.4-1.3,0.7-1.9,0.7c-1.8,0-3.6-1-4.7-2.6c-0.3-0.4-1-0.4-1.2,0c-1.1,1.6-2.8,2.6-4.7,2.6c-0.7,0-1.5-0.3-2-0.8
		c-0.3-0.3-0.8-0.3-1.1,0.1c-0.3,0.3-0.3,0.8,0.1,1.1c0.8,0.7,1.9,1.1,3,1.1C21.6,30.6,23.5,29.7,24.9,28.2z"/>
	<path d="M20.9,26.8c1.4-0.6,2.4-1.9,2.5-3.4c0.1-1.5-0.6-3-2-3.8c-0.3-0.2-0.5-0.3-0.8-0.4c-0.7-0.3-1-1.1-0.8-1.8
		c0-0.1,0.1-0.3,0.2-0.4c0.4-0.7,1.1-1.1,1.9-1.1h5.6c0.8,0,1.5,0.4,1.9,1.1c0.2,0.4,0.2,0.8,0.1,1.2c-0.1,0.4-0.4,0.7-0.8,0.9
		c-1.5,0.7-2.5,2.2-2.5,3.9c0,1.7,1.1,3.2,2.6,3.8c0.1,0,0.2,0.1,0.3,0.1L32,27c9.8,0.5,14.4,0.7,15.9,0.7c0.4,0,0.7-0.1,1-0.4
		c0.3-0.3,0.4-0.6,0.4-1v-2.3c0-0.8-0.6-1.4-1.4-1.4l-6.5-0.2l5.2-1.7c0.4-0.1,0.7-0.4,0.9-0.7c0-0.1,0.1-0.2,0.1-0.3
		c0.1-0.3,0.1-0.6,0-0.8l-0.6-2c-0.1-0.4-0.4-0.7-0.7-0.9c-0.4-0.2-0.8-0.2-1.2-0.1l-2.1,0.7c-0.2-1.6-0.7-3.1-1.6-4.7
		c1.2-2.3,4-8.3,1.3-10.8c-1.4-1.3-4.5-1.5-8.5,0.4c-0.4,0.1-1.8,0.7-3.1,1.7c-0.3,0.2-0.5,0.3-0.8,0.5c-3.4-0.9-7.1-0.9-10.5,0
		C13.8-0.5,9.2-0.7,7.4,1C4.6,3.6,7.4,9.5,8.7,11.8C7.8,13.5,7.2,15,7,16.5l-2.4-0.6c-0.8-0.2-1.6,0.2-1.9,1l-0.6,2
		c-0.1,0.3-0.1,0.6,0,0.8c0,0.1,0.1,0.2,0.1,0.3c0.2,0.4,0.5,0.6,0.9,0.7l5.4,1.7l-6.8,0.5c-1,0.1-1.8,0.9-1.7,1.9L0.1,26
		c0,0.5,0.2,1,0.6,1.3c0.3,0.3,0.8,0.5,1.3,0.5c0,0,0.1,0,0.1,0l18.7-1C20.8,26.8,20.9,26.8,20.9,26.8z M1.9,26.3
		c-0.1,0-0.2,0-0.3-0.1c-0.1-0.1-0.1-0.2-0.1-0.3l-0.1-1.3c0-0.2,0.1-0.4,0.3-0.4l14-1c0.4,0,0.7-0.4,0.7-0.8c0-0.4-0.4-0.7-0.7-0.7
		c0,0,0,0-0.1,0l-3.3,0.2c-0.1-0.1-0.2-0.2-0.3-0.2l-8.6-2.6l0.6-1.9l5.4,1.5c0.4,0.1,0.8-0.1,0.9-0.5c0.1-0.4-0.1-0.8-0.5-0.9
		l-1.5-0.4c0.2-1.5,0.8-3,1.7-4.7c0.1-0.2,0.1-0.5,0-0.8C8.2,8,6.8,3.6,8.4,2.1c1.4-1.3,5.7-0.7,10.9,2.9c0.2,0.1,0.4,0.2,0.6,0.1
		c3-0.8,6.3-0.9,9.4-0.2c-0.1,0.1-0.2,0.3-0.3,0.4c-0.2,0.3-0.1,0.8,0.2,1c0.1,0.1,0.3,0.1,0.4,0.1c0.2,0,0.5-0.1,0.6-0.3
		c0.5-0.7,1.1-1.4,1.8-1.8c4.7-3,8.5-3.4,9.8-2.2c1.6,1.4,0.2,5.9-1.8,9.4c-0.1,0.2-0.1,0.5,0,0.8c1,1.7,1.5,3.1,1.7,4.8l-3.1,1
		c-0.4,0.1-0.6,0.5-0.5,0.9c0.1,0.4,0.5,0.6,0.9,0.5l6.6-2.1l0.6,2l-9.1,3c0,0-0.1,0-0.1,0l-4.4-0.1c-0.4,0-0.8,0.3-0.8,0.7
		c0,0.4,0.3,0.8,0.7,0.8L47.9,24v2.1c-1.6,0-6.2-0.2-15.8-0.7l-2.8-0.1c-0.9-0.4-1.6-1.4-1.6-2.4c0-1.1,0.6-2.1,1.6-2.5
		c0.8-0.3,1.4-1,1.6-1.8c0.3-0.8,0.2-1.7-0.2-2.4c0,0,0-0.1-0.1-0.1c-0.7-1.1-1.9-1.8-3.1-1.8H22c-1.3,0-2.5,0.7-3.2,1.8
		c-0.1,0.2-0.2,0.4-0.3,0.6c-0.5,1.4,0.2,3,1.6,3.7c0.2,0.1,0.4,0.2,0.6,0.3c0.8,0.5,1.3,1.4,1.2,2.4c-0.1,0.9-0.6,1.7-1.5,2.1
		L1.9,26.3z"/>
	<path d="M10.8,4.7c-1.2,1.1-0.3,3.4,0.3,4.6c0.1,0.3,0.4,0.4,0.7,0.4c0.1,0,0.2,0,0.3-0.1c0.4-0.2,0.5-0.6,0.3-1
		c-0.8-1.6-0.9-2.6-0.6-2.8c0.2-0.2,1-0.2,2.3,0.3c-0.3,0.2-0.6,0.4-0.9,0.6c-0.3,0.2-0.4,0.7-0.2,1c0.2,0.3,0.7,0.4,1,0.2
		c0.6-0.4,1.2-0.9,1.9-1.2c0.2-0.1,0.4-0.4,0.4-0.6c0-0.3-0.1-0.5-0.3-0.7C13.8,4.1,11.8,3.8,10.8,4.7z"/>
	<path d="M34.2,6.8C34.8,7.1,35.4,7.5,36,8c0.3,0.2,0.8,0.2,1-0.2c0.2-0.3,0.2-0.8-0.2-1c-0.3-0.2-0.6-0.4-0.9-0.6
		c1.2-0.6,2.1-0.5,2.3-0.3c0.2,0.2,0.2,1.2-0.6,2.8c-0.2,0.4,0,0.8,0.3,1c0.1,0.1,0.2,0.1,0.3,0.1c0.3,0,0.5-0.1,0.7-0.4
		c0.6-1.2,1.5-3.5,0.3-4.6c-1-0.9-3-0.6-5.2,0.8c-0.2,0.1-0.4,0.4-0.3,0.7C33.8,6.4,33.9,6.7,34.2,6.8z"/>
	<path d="M29.7,12.1c0.3-0.3,0.5-0.7,0.5-1.2c0-0.8-0.7-1.5-1.5-1.5c-0.8,0-1.5,0.7-1.5,1.5c0,0.5,0.2,0.9,0.5,1.2H29.7z"/>
	<path d="M22,12.1c0.3-0.3,0.5-0.7,0.5-1.2c0-0.8-0.7-1.5-1.5-1.5c-0.8,0-1.5,0.7-1.5,1.5c0,0.5,0.2,0.9,0.5,1.2H22z"/>
</g>
</svg>
