<?xml version="1.0" encoding="utf-8"?>
<!-- Generator: Adobe Illustrator 22.0.1, SVG Export Plug-In . SVG Version: 6.00 Build 0)  -->
<svg version="1.1" id="Слой_1" xmlns="http://www.w3.org/2000/svg" xmlns:xlink="http://www.w3.org/1999/xlink" x="0px" y="0px"
	 viewBox="0 0 90 90" style="enable-background:new 0 0 90 90;" xml:space="preserve">
<style type="text/css">
	.st0{fill:#4CC6E2;}
	.st1{fill:#FFFFFF;}
</style>
<path class="st0" d="M45,1.1C21.2,1.1,1.1,21.2,1.1,45S21.2,88.9,45,88.9S88.9,68.8,88.9,45S68.8,1.1,45,1.1z"/>
<g>
	<path class="st1" d="M62.4,51.3l0.7-1.4c0-0.1,0.1-0.2,0.1-0.3c1.4-3.1,1.4-6.8-0.1-9.8L61,35.4V22.3c0-0.5-0.4-1-1-1H29.8
		c-0.5,0-1,0.4-1,1v13.1l-2.1,4.3c-1.5,3.1-1.5,6.9,0,10.1l0,0.1c0.1,0.1,0.1,0.2,0.2,0.3l0.6,1.2L26,54.6c-1.7,3.8-1.7,8.2,0,12
		l1.8,4.2c0.2,0.4,0.5,0.6,0.9,0.6h32.5c0.4,0,0.7-0.2,0.9-0.6l1.8-4.2c1.7-3.8,1.7-8.2,0-12L62.4,51.3z M28.5,40.6l2.2-4.5
		c0.1-0.1,0.1-0.3,0.1-0.4V23.3h28.3v12.3c0,0.1,0,0.3,0.1,0.4l2.2,4.5c1.2,2.5,1.2,5.4,0.2,7.9H28.3C27.3,45.9,27.4,43,28.5,40.6z
		 M44,66.2v3.2H29.4l-1.6-3.6c-1.4-3.3-1.4-7.1,0-10.3l1.6-3.1c2.9,0.1,5.7,1,8,2.6c0,0,0.1,0,0.2,0.1C38.9,55.8,44.2,59.4,44,66.2
		C44,66.1,44,66.1,44,66.2C44,66.1,44,66.2,44,66.2z M38.3,53.1c-2.1-1.5-4.6-2.4-7.4-2.7h28.4c-2.3,0.2-5.1,1-7.7,2.9c0,0,0,0,0,0
		c-0.2,0.1-4.1,2.7-6.2,8.1C43.5,56,38.8,53.4,38.3,53.1z M62.2,65.8l-1.6,3.6H46v-1.1c0,0,0,0,0,0c0.1-9,6.3-13.1,6.5-13.3
		c0,0,0,0,0,0c0,0,0,0,0,0c2.3-1.6,5.1-2.5,8.1-2.6l1.5,3C63.6,58.7,63.6,62.5,62.2,65.8z"/>
	<path class="st1" d="M45,39.6L45,39.6c0.8,0,1.4-0.6,1.4-1.4v0c0-0.8-0.6-1.4-1.4-1.4h0c-0.8,0-1.4,0.6-1.4,1.4v0
		C43.6,39,44.2,39.6,45,39.6z"/>
	<path class="st1" d="M23,37.4h-1.9l0.9-0.9c0.3-0.3,0.3-0.7,0-1c-0.3-0.3-0.7-0.3-1,0l-2.2,2.2c-0.3,0.3-0.3,0.7,0,1l2.2,2.2
		c0.1,0.1,0.3,0.2,0.5,0.2c0.2,0,0.4-0.1,0.5-0.2c0.3-0.3,0.3-0.7,0-1l-0.9-0.9H23c0.4,0,0.7-0.3,0.7-0.7S23.4,37.4,23,37.4z"/>
	<path class="st1" d="M71.1,37.9L69,35.7c-0.3-0.3-0.7-0.3-1,0c-0.3,0.3-0.3,0.7,0,1l0.9,0.9H67c-0.4,0-0.7,0.3-0.7,0.7
		s0.3,0.7,0.7,0.7h1.9L67.9,40c-0.3,0.3-0.3,0.7,0,1c0.1,0.1,0.3,0.2,0.5,0.2c0.2,0,0.4-0.1,0.5-0.2l2.2-2.2
		C71.4,38.6,71.4,38.1,71.1,37.9z"/>
	<path class="st1" d="M30.6,60.1c0.1-0.5-0.3-1-0.8-1.1c-0.5-0.1-1,0.3-1.1,0.8c0,0.2-0.6,4.6,2.6,7.6c0.2,0.2,0.4,0.3,0.7,0.3
		c0.3,0,0.5-0.1,0.7-0.3c0.4-0.4,0.4-1,0-1.4C30.1,63.6,30.6,60.1,30.6,60.1z"/>
</g>
</svg>
