<?xml version="1.0" encoding="utf-8"?>
<!-- Generator: Adobe Illustrator 22.0.1, SVG Export Plug-In . SVG Version: 6.00 Build 0)  -->
<svg version="1.1" id="Слой_1" xmlns="http://www.w3.org/2000/svg" xmlns:xlink="http://www.w3.org/1999/xlink" x="0px" y="0px"
	 viewBox="0 0 90 90" style="enable-background:new 0 0 90 90;" xml:space="preserve">
<style type="text/css">
	.st0{fill:#4CC6E2;}
	.st1{fill:#FFFFFF;}
</style>
<g>
	<path class="st0" d="M45,1.1C21.2,1.1,1.1,21.2,1.1,45S21.2,88.9,45,88.9S88.9,68.8,88.9,45S68.8,1.1,45,1.1z"/>
	<g>
		<g>
			<path class="st1" d="M45.9,71.9h-1.8c-13,0-23.9-7.9-23.9-17.3c0-5.4,3-10.9,8.4-15l4.5-3.7c0.4-0.4,0.5-0.9,0.3-1.4
				c-0.6-1.5-3.6-2.9-8.8-2.7c-0.5,0-1-0.4-1-0.9c0-0.5,0.4-1,0.9-1c5.4-0.2,9.6,1.3,10.7,3.9c0.5,1.3,0.2,2.6-0.8,3.6l-4.6,3.8
				c-4.8,3.7-7.6,8.6-7.6,13.4c0,8.3,10.1,15.4,22,15.4h1.8c11.9,0,22-7,22-15.4c0-4.8-2.8-9.7-7.6-13.4l-4.5-3.7
				c-1.1-1.1-1.4-2.4-0.9-3.7c1.1-2.6,5.3-4.1,10.7-3.9c0.5,0,1,0.5,0.9,1c0,0.5-0.5,0.9-1,0.9c-5.2-0.2-8.2,1.3-8.8,2.7
				c-0.2,0.5-0.1,1,0.4,1.4l4.5,3.7c5.3,4,8.3,9.5,8.3,14.9C69.8,63.9,58.9,71.9,45.9,71.9z"/>
		</g>
		<g>
			<g>
				<path class="st1" d="M45.8,63.8c-9.2,0-16.2-4.4-16.2-10.3c0-3.1,1.9-5.9,5.8-8.7c1.8-1.3,5.8-4.5,7-6.2
					c0.9-1.3,1.4-4.4-0.2-7.4c-2.4-4.4-8.2-6.7-16.5-6.5c-0.5,0-1-0.4-1-0.9c0-0.5,0.4-1,0.9-1C38,22.3,42.4,27.2,44,30.2
					c0.5,0.8,0.8,1.7,1,2.6c0.2-0.9,0.5-1.7,1-2.6c1.6-3,6-7.9,18.3-7.5c0.5,0,1,0.5,0.9,1c0,0.5-0.5,0.9-1,0.9
					c-8.3-0.3-14.2,2-16.5,6.5c-1.6,3-1.1,6.2-0.2,7.4c1.2,1.7,5.2,4.9,7,6.2c3.9,2.8,5.8,5.6,5.8,8.7
					C60.4,59.7,52.8,63.8,45.8,63.8z M45,37.6c-0.2,0.8-0.5,1.5-0.9,2.1c-1.5,2.2-6.1,5.7-7.5,6.7c-3.4,2.4-5,4.7-5,7.1
					c0,5.2,7.2,8.3,14.2,8.3c5.9,0,12.6-3.4,12.6-8.3c0-2.4-1.6-4.7-5-7.1c-1.4-1-5.9-4.5-7.5-6.7C45.5,39.1,45.2,38.4,45,37.6z"/>
			</g>
		</g>
	</g>
</g>
</svg>
