<?xml version="1.0" encoding="utf-8"?>
<!-- Generator: Adobe Illustrator 22.0.1, SVG Export Plug-In . SVG Version: 6.00 Build 0)  -->
<svg version="1.1" id="Слой_1" xmlns="http://www.w3.org/2000/svg" xmlns:xlink="http://www.w3.org/1999/xlink" x="0px" y="0px"
	 viewBox="0 0 90 90" style="enable-background:new 0 0 90 90;" xml:space="preserve">
<style type="text/css">
	.st0{fill:#4CC6E2;}
	.st1{fill:#FFFFFF;}
</style>
<path class="st0" d="M45,1.1C21.2,1.1,1.1,21.2,1.1,45S21.2,88.9,45,88.9S88.9,68.8,88.9,45S68.8,1.1,45,1.1z"/>
<g>
	<path class="st1" d="M22.4,56.8c1-0.6,1.9-0.6,3-0.7c0.1,0,0.2,0,0.3,0c0.1,0,0.2,0,0.3,0c1.9-0.2,3.2-1.3,4.4-2.2l0.1-0.1
		c0.5-0.4,1-0.8,1.4-1.1c0.9-0.6,1.9-1.1,3-1.5l0.1-0.1c1.2-0.5,2.4-1.1,3.6-1.9c2.5-1.8,4.8-4.8,5.6-6c1.5-2.1,2.3-4.5,3-6.7
		c0.2-0.6,0.4-1.1,0.6-1.7l0-0.1c0,0,0-0.1,0.1-0.1c0.1-0.1,0.1-0.2,0.2-0.3c0.8-1.4,1.9-3.4,0.6-4.5c0,0,0,0-0.1,0
		c-3.8-2.8-4.8-9-4.9-9.7c-0.1-0.6-0.6-1.1-1.3-1c-0.6,0.1-1.1,0.7-1,1.3l0,0c0.2,1.3,1.2,7.7,5.5,11c-0.2,0.5-0.7,1.6-0.8,1.8
		l-0.1,0.1c-0.1,0.2-0.2,0.4-0.3,0.6c0,0,0,0.1,0,0.1c-0.2,0.5-0.3,1-0.5,1.4l-0.1,0.4c-0.7,2.2-1.4,4.2-2.7,6.1
		c-1.6,2.3-3.5,4.3-5,5.4c-1,0.7-2,1.2-3.3,1.7l-0.3,0.2c-1,0.4-2,0.9-3,1.5c-0.6,0.4-1.2,0.8-1.7,1.2c-1,0.8-2,1.6-3.2,1.8
		c-0.1,0-0.2,0-0.3,0c-0.1,0-0.2,0-0.3,0l0,0c-1.3,0.1-2.6,0.2-4,1c-4.9,2.9-4.8,9.6-4.7,12.8c0,0.6,0.5,1.1,1.2,1.1h0
		c0.6,0,1.1-0.5,1.1-1.2C18.8,63.1,19.1,58.8,22.4,56.8z"/>
	<path class="st1" d="M67.4,33.6c-2.3-4.2-5.9-6.7-10.5-7.3l0,0c-0.3,0-0.5,0-0.8,0c0,0,0,0,0,0l-0.1,0c-0.5,0-0.9,0-1.1-0.2l0,0
		l0,0c-0.9-0.5-4.4-4.5-4.6-7.4c0-0.5-0.5-1-1-1l0,0c-0.6,0-1,0.5-1,1.1c0.2,3.6,4.1,8.2,5.6,9c0.8,0.4,1.6,0.5,2.3,0.5h0
		c0.2,0,0.4,0,0.6,0c3.9,0.5,6.9,2.6,8.9,6.3c1.6,3.1,2.4,7,2.3,11.2C67.5,56.4,62.2,64,53.2,67.4c-1.4,0.5-4.8,1.4-8.8,1.4
		c-3.8,0-7.1-0.7-9.9-2.2l-0.1,0l0,0l0,0c-1.3-0.7-2.5-1.8-3.8-3.5l0-0.1l0,0c-0.8-1.1-1.9-2.5-3.6-2.5c-0.5,0-1,0.1-1.5,0.3
		c-3,1.1-3,5.6-3,7.4c0,0.6,0.5,1,1,1c0.6,0,1-0.5,1-1c0-1.3,0-4.9,1.7-5.5l0,0c0.3-0.1,0.5-0.2,0.7-0.2c0.7,0,1.1,0.5,2,1.7l0,0
		c1.5,2,3,3.3,4.6,4.1c3.1,1.6,6.7,2.4,10.8,2.4c0.6,0,1.1,0,1.7,0c3.8-0.2,6.8-1.1,7.9-1.5c5-1.8,8.9-4.9,11.7-9
		c2.7-4,4.2-8.9,4.4-14.5C70.1,41.3,69.2,36.9,67.4,33.6z"/>
	<path class="st1" d="M34.6,53.5c-2,0.8-3.4,2.3-3.8,4.1c-0.4,1.9,0.1,3.8,1.6,5.4c1,1,2.3,1.9,4.2,2.6c2.2,0.8,4.6,1.2,7.1,1.2
		c1.8,0,3.5-0.2,5.2-0.6c3.9-0.9,7.6-3,10.8-6c2.4-2.3,4-4.7,4.8-7.2c1.1-3,0.9-6.2-0.3-8.8c-0.2-0.4-0.8-1.6-2-1.7l0,0
		c-0.1,0-0.1,0-0.2,0c-0.7,0-1.6,0.3-2.5,1.8c-2.3,3.6-5.9,5.5-8.5,6.5c-4.2,1.6-8.5,1.9-12.7,2.2C37.1,52.9,35.8,53,34.6,53.5z
		 M32.8,58.1c0.3-1.2,1.2-2.2,2.5-2.7l0,0c1-0.4,2.1-0.5,3.1-0.6l0.1,0c4.3-0.3,8.8-0.6,13.2-2.3c5.2-2,8.1-5.1,9.5-7.3l0-0.1
		c0.2-0.3,0.4-0.6,0.6-0.7l0.1,0l0,0c0.1,0.1,0.2,0.3,0.3,0.5l0,0c1,2.2,1.1,4.8,0.3,7.2l0,0.1c-0.7,2.3-2.1,4.3-4.3,6.4
		c-2.9,2.7-6.3,4.7-9.8,5.5c-1.6,0.4-3.2,0.6-4.8,0.6c-2.2,0-4.4-0.4-6.4-1.1c-1.5-0.6-2.7-1.3-3.4-2C32.9,60.6,32.5,59.3,32.8,58.1
		z"/>
</g>
</svg>
