<?xml version="1.0" encoding="utf-8"?>
<!-- Generator: Adobe Illustrator 22.1.0, SVG Export Plug-In . SVG Version: 6.00 Build 0)  -->
<svg version="1.1" id="Layer_1" xmlns="http://www.w3.org/2000/svg" xmlns:xlink="http://www.w3.org/1999/xlink" x="0px" y="0px"
	 viewBox="0 0 639.4 588.2" style="enable-background:new 0 0 639.4 588.2;" xml:space="preserve">
<path d="M551.5,0H87.9C39.4,0,0,39.4,0,87.9v283.7c0,48.4,39.3,87.7,87.6,87.9v128.7l185-128.7h278.9c48.5,0,87.9-39.4,87.9-87.9
	V87.9C639.4,39.4,599.9,0,551.5,0z M601.9,371.6c0,27.8-22.6,50.4-50.4,50.4H260.8l-135.8,94.5V422H87.9
	c-27.8,0-50.4-22.6-50.4-50.4V87.9c0-27.8,22.6-50.4,50.4-50.4h463.6c27.8,0,50.4,22.6,50.4,50.4V371.6z"/>
<path d="M171.1,132.4h297.1v37.5H171.1V132.4z"/>
<path d="M171.1,212.3h297.1v37.5H171.1V212.3z"/>
<path d="M171.1,292.2h297.1v37.5H171.1V292.2z"/>
</svg>
