<?xml version="1.0" encoding="utf-8"?>
<!-- Generator: Adobe Illustrator 22.1.0, SVG Export Plug-In . SVG Version: 6.00 Build 0)  -->
<svg version="1.1" id="Layer_1" xmlns="http://www.w3.org/2000/svg" xmlns:xlink="http://www.w3.org/1999/xlink" x="0px" y="0px"
	 viewBox="0 0 279.8 133.2" style="enable-background:new 0 0 279.8 133.2;" xml:space="preserve">
<style type="text/css">
	.st0{fill:#fff;}
</style>
<polygon class="st0" points="155.9,12.9 160.6,0 162,0 186,69 194.1,70.3 194.1,72.2 168.2,72.2 168.2,70.3 175.4,69.2 167.9,48.3
	148.9,48.3 148.9,46.5 167.3,46.5 155.9,12.9 "/>
<path class="st0" d="M77.7,72.8l1.6-0.3h22.5v0h9.7c4.3,0,8.1-1,11.4-3c3.3-2,5.9-5,7.8-8.9c1.9-4,2.8-8.8,2.8-14.4V32.6
	c0-5.6-0.9-10.4-2.8-14.3c-1.9-3.9-4.5-6.9-7.8-8.9c-3.3-2-7.1-3-11.4-3H95.5v42.3l-9.7,10.9V7.4l-8.1-1.2V4.2h33.7
	c6.5,0,12.2,1.5,17.2,4.4c5,2.9,8.9,7,11.8,12.3c2.8,5.3,4.2,11.5,4.2,18.5c0,7-1.4,13.2-4.2,18.5s-6.7,9.4-11.8,12.3
	c-5,2.9-10.8,4.4-17.2,4.4H77.7V72.8L77.7,72.8z"/>
<polygon class="st0" points="78,72.5 93,72.5 93,74.6 78,74.6 78,72.5 "/>
<polygon class="st0" points="183.9,70.1 202.1,70.1 202.1,72.2 183.9,72.2 183.9,70.1 "/>
<path class="st0" d="M0.5,125.3h1.1c0.7,0,1.4-0.3,2.1-0.9c0.7-0.6,1.4-1.5,2-2.9c0.6-1.2,1-2.7,1.4-4.4c0.3-1.7,0.6-4.3,0.8-7.8
	l0.4-7L4.8,101v-0.7h18.9v0.7l-3,0.5v23.9h2.8l0.5,7.9h-1l-3.4-7.1H4.3L1,133.2H0L0.5,125.3L0.5,125.3z M17.2,125.3v-24.3h-8
	l-0.5,8.3c-0.2,3.6-0.5,6.2-0.8,8c-0.3,1.8-0.8,3.3-1.3,4.5c-0.3,0.8-0.7,1.4-1.1,1.9c-0.4,0.5-0.7,0.9-1,1.1
	c-0.3,0.3-0.5,0.4-0.5,0.4H17.2L17.2,125.3z M33.7,126.1v-0.7l3.2-1.3l9.3-24.5h0.5l8.8,25.4l3,0.5v0.7H49v-0.7l2.7-0.4l-2.7-7.7
	h-8.6l-2.6,6.8l2.9,1.3v0.7H33.7L33.7,126.1z M40.5,116.7h8.1l-3.9-11.4L40.5,116.7L40.5,116.7z M69.9,126.5c-1,0-1.8-0.2-2.3-0.7
	c-0.5-0.5-0.7-1.1-0.7-1.8c0-0.6,0.2-1.1,0.6-1.5c0.4-0.4,0.9-0.6,1.6-0.6c0.4,0,0.7,0.1,1,0.2c0.3,0.2,0.5,0.3,0.6,0.5
	c0.1,0.2,0.2,0.3,0.2,0.3c-0.4,0.3-0.6,0.6-0.6,1c0,0.3,0.1,0.5,0.2,0.6c0.2,0.2,0.4,0.3,0.7,0.3c0.7,0,1.3-0.5,1.8-1.6
	s0.9-2.9,1.3-5.4c0.3-2.5,0.6-5.9,0.8-10.2l0.2-5.2l-3.4-1.4v-0.7h18.8v0.7l-3,0.5V125l3,0.5v0.7H81v-0.7l3-0.5v-23.9h-7.9l-0.3,6.6
	c-0.2,4.8-0.5,8.5-0.8,11.1c-0.3,2.6-0.9,4.5-1.7,5.8C72.5,125.8,71.3,126.5,69.9,126.5L69.9,126.5z M102.4,125.4l3-0.5v-23.5
	l-3-0.5v-0.7h9.5v0.7l-3,0.5v10.2h4.6c3.2,0,5.5,0.6,7.1,1.8c1.6,1.2,2.3,3,2.3,5.5c0,2.5-0.8,4.3-2.3,5.5c-1.6,1.2-3.9,1.8-7.1,1.8
	h-11.1V125.4L102.4,125.4z M113.1,125.3c2,0,3.5-0.5,4.5-1.4c1-0.9,1.5-2.4,1.5-4.4v-1.3c0-2-0.5-3.5-1.5-4.4s-2.5-1.4-4.5-1.4h-4.1
	v13H113.1L113.1,125.3z M147.9,126.1v-0.7l3.2-1.3l9.3-24.5h0.5l8.8,25.4l3,0.5v0.7h-9.5v-0.7l2.7-0.4l-2.7-7.7h-8.6l-2.6,6.8
	l2.9,1.3v0.7H147.9L147.9,126.1z M154.8,116.7h8.1l-3.9-11.4L154.8,116.7L154.8,116.7z M182.6,126.1v-0.7l3-0.5v-23.5l-3-0.5v-0.7
	h9.5v0.7l-3,0.5V112h12.3v-10.6l-3-0.5v-0.7h9.6v0.7l-3,0.5V125l3,0.5v0.7h-9.6v-0.7l3-0.5v-12.1h-12.3V125l3,0.5v0.7H182.6
	L182.6,126.1z M219.9,126.1v-0.7l3-0.5v-23.5l-3-0.5v-0.7h9.5v0.7l-3,0.5V112h12.3v-10.6l-3-0.5v-0.7h9.6v0.7l-3,0.5V125l3,0.5v0.7
	h-9.6v-0.7l3-0.5v-12.1h-12.3V125l3,0.5v0.7H219.9L219.9,126.1z M254.9,126.1v-0.7l3.2-1.3l9.3-24.5h0.5l8.8,25.4l3,0.5v0.7h-9.5
	v-0.7l2.7-0.4l-2.7-7.7h-8.6l-2.6,6.8l2.9,1.3v0.7H254.9L254.9,126.1z M261.8,116.7h8.1l-3.9-11.4L261.8,116.7L261.8,116.7z"/>
</svg>
