<?xml version="1.0" encoding="utf-8"?>
<!-- Generator: Adobe Illustrator 22.1.0, SVG Export Plug-In . SVG Version: 6.00 Build 0)  -->
<svg version="1.1" id="Layer_1" xmlns="http://www.w3.org/2000/svg" xmlns:xlink="http://www.w3.org/1999/xlink" x="0px" y="0px"
	 viewBox="0 0 124.4 74.6" style="enable-background:new 0 0 124.4 74.6;" xml:space="preserve">
<style type="text/css">
	.st0{fill:#FFFFFF;}
</style>
<polygon class="st0" points="78.2,12.9 82.9,0 84.3,0 108.3,69 116.4,70.3 116.4,72.2 90.5,72.2 90.5,70.3 97.7,69.2 90.3,48.3 
	71.2,48.3 71.2,46.5 89.6,46.5 78.2,12.9 "/>
<path class="st0" d="M0,72.8l1.6-0.3H24v0h9.7c4.3,0,8.1-1,11.4-3c3.3-2,5.9-5,7.8-8.9c1.9-4,2.8-8.8,2.8-14.4V32.6
	c0-5.6-0.9-10.4-2.8-14.3c-1.9-3.9-4.5-6.9-7.8-8.9c-3.3-2-7.1-3-11.4-3H17.8v42.3L8.1,59.5V7.4L0,6.1V4.2h33.7
	c6.5,0,12.2,1.5,17.2,4.4c5,2.9,8.9,7,11.8,12.3c2.8,5.3,4.2,11.5,4.2,18.5c0,7-1.4,13.2-4.2,18.5s-6.7,9.4-11.8,12.3
	c-5,2.9-10.8,4.4-17.2,4.4H0V72.8L0,72.8z"/>
<polygon class="st0" points="0.4,72.5 15.3,72.5 15.3,74.6 0.4,74.6 0.4,72.5 "/>
<polygon class="st0" points="106.2,70.1 124.4,70.1 124.4,72.2 106.2,72.2 106.2,70.1 "/>
</svg>
