<?xml version="1.0" encoding="utf-8"?><svg xmlns="http://www.w3.org/2000/svg" xmlns:xlink="http://www.w3.org/1999/xlink"><symbol viewBox="0 0 24 18" id="form-mail" xmlns="http://www.w3.org/2000/svg"><path d="M24 18H0V0h24v18zM1 1.5V17h22V1.5l-11 10-11-10zM22.1 1H1.9L12 10.2 22.1 1z"/></symbol><symbol viewBox="0 0 32 32" id="form-phone" xmlns="http://www.w3.org/2000/svg"><path d="M5.4-1.1l-1 .7C3.1.6 2.2 2 1.9 3.9c-.8 4.7 1.4 11.6 5.9 17.9 6.4 9.2 15.1 13.9 19.6 10.8l1-.7c.8-.5 1.3-1.4 1.5-2.3.2-.9 0-1.9-.6-2.7l-2.9-4.2c-1.1-1.6-3.3-2-4.9-.9l-1 .7c-1.1.8-3.5-.1-6.8-4.9-2.8-4.1-3-6.1-2.8-7 .1-.5.3-.8.6-1l1-.7c1.6-1.1 2-3.4.9-4.9L10.5-.2C9.8-1 9-1.5 8.1-1.6c-1-.2-1.9 0-2.7.5zM8.7 1l2.9 4.2c.5.7.3 1.7-.4 2.1l-1 .7c-.8.5-1.3 1.4-1.5 2.3-.4 2.1.7 5 3.2 8.5 5.1 7.3 8.4 6.2 9.6 5.3l1-.7c.7-.5 1.6-.3 2.1.4l2.9 4.2c.5.7.3 1.7-.4 2.1l-1 .7C22.7 33.4 15 28.7 9.4 20.6 5.3 14.8 3.2 8.4 3.9 4.3c.2-1.4.8-2.4 1.6-3l1-.7c.3-.2.7-.3 1.1-.3.5.1.9.3 1.1.7z"/></symbol><symbol viewBox="0 0 32 32" id="form-user" xmlns="http://www.w3.org/2000/svg"><path d="M16 22c5 0 9-4.9 9-11S21 0 16 0c-2.4 0-4.7 1.2-6.4 3.3C7.9 5.4 7 8.1 7 11c0 6.1 4 11 9 11zm0-20c3.9 0 7 4 7 9s-3.1 9-7 9-7-4-7-9 3.1-9 7-9zm7 18c-.6 0-1 .4-1 1s.4 1 1 1c3.9 0 7 3.1 7 7 0 .6-.4 1-1 1H3c-.6 0-1-.4-1-1 0-3.9 3.1-7 7-7 .6 0 1-.4 1-1s-.4-1-1-1c-5 0-9 4-9 9 0 1.7 1.3 3 3 3h26c1.7 0 3-1.3 3-3 0-5-4-9-9-9z"/></symbol><symbol viewBox="0 0 270.4 98.1" id="iconSheer"><path d="M175.1 51.8c.2 1.2.3 2.1.5 3 2 8.4 8.6 14 17.2 14.7 7.6.6 13.6-2.3 18-8.5 2.2-3 5.7-3.5 8.5-1.1 1.6 1.4 1.8 3.2.5 4.9-.7.9-1.4 1.8-2.1 2.8-2.9 4-6.7 6.7-11.4 8.3-7.6 2.6-15.2 3-22.7.2-10.1-3.7-16.1-11.1-17.8-21.7-1-6.5-.4-13 2.6-18.9 4.3-8.4 11.1-13.6 20.5-15.1 6.2-1 12.4-.4 18.2 2.4 8.2 3.9 13.2 10.5 15.1 19.3.5 2.4.7 4.9.9 7.3.2 1.5-.5 2.2-2.1 2.3h-44.1c-.4.1-.9.1-1.8.1zm38.3-9.2c-1.2-7.9-10.7-14.7-19.4-14.2-9.1.5-18.2 7.5-18.5 14.2h37.9zm-101 9c.1.8.2 1.4.3 2 1.7 9.3 9.3 15.7 18.7 15.9 7.1.1 12.7-2.8 16.8-8.6 2.2-3.1 6.1-3.4 8.8-.7 1.3 1.4 1.5 3 .3 4.6-.5.8-1.1 1.5-1.7 2.2-3.1 4.5-7.3 7.4-12.5 9.1-7.6 2.5-15.2 2.7-22.5-.2-10.6-4.1-16.4-12.1-17.6-23.3-.6-5.4-.1-10.7 2.2-15.6 4.3-9.4 11.4-15.2 21.8-16.6 5.5-.7 11-.3 16.1 1.8 9.2 3.8 14.6 10.9 16.6 20.6.4 2.2.6 4.5.7 6.7.1 1.8-.3 2.2-2.2 2.2h-43.5c-.7-.1-1.4-.1-2.3-.1zm38.4-9.1c-1.2-7.8-10.4-14.4-19.4-14.2-8.8.2-17.9 7.2-18.6 14.2h38zm101 13.5c.7.6 1.1 1 1.5 1.4 4.9 4.2 9.8 8.3 14.6 12.5.3.3.7.6 1 .9 1.8 1.8 2 4.4.3 6.2-1.6 1.8-4.2 2.1-6.1.5-3.4-2.8-6.7-5.7-10-8.5-4.8-4.1-9.5-8.1-14.3-12.2-.4-.4-.9-.7-1.6-1.3 0 1-.1 1.6-.1 2.3v36.1c-.2 2.5-2.1 4.3-4.6 4.2-2.4-.1-4.1-1.9-4.2-4.4V21.9c0-1.6.2-1.9 1.7-1.9 2.1-.1 4.2-.1 6.2-.1 5 0 10.1.2 15.1-.1 8.4-.4 17.8 6.4 18.7 16.3.8 8.9-5.2 17.3-14.3 19.1-1.1.2-2.3.5-3.9.8zm-15.3-6.9c.5.1.9.1 1.2.1h12.6c1.2 0 2.4-.1 3.6-.5 3.9-1.2 7-3.5 8-7.7 1.7-7.1-3.6-13.7-10.9-13.7h-13c-.5 0-1 .1-1.5.1v21.7zM88.5 52H63.9c0 .7-.1 1.4-.1 2v18.9c0 .8 0 1.6-.2 2.3-.6 1.9-2.6 3.1-4.5 3-2.1-.2-3.8-1.8-4.1-3.9-.1-.5 0-1 0-1.5V5.4c0-.9.1-1.8.4-2.6.6-2 2.6-3 4.7-2.8 1.9.3 3.5 2 3.7 3.9.1.6 0 1.2 0 1.8v34.7c0 .7.1 1.4.1 2 1.5.4 22.9.4 24.5 0 0-.5.1-1.1.1-1.7V23.9c.2-2.3 1.9-4 4.2-4.1 2.3-.1 4.3 1.6 4.6 3.9.1.5 0 1 0 1.5v48.9c-.3 2.3-2.3 4.1-4.5 4-2.3-.1-4.1-1.9-4.3-4.2V52zM25 78.3c-5.9-.1-11.4-1.4-16.5-4.4-2.2-1.3-4.2-2.9-5.8-4.8-.8-1-1.6-2.1-2.2-3.3-1-1.9-.6-3.4.9-4.9 1.7-1.6 4.1-2.3 6.4-.7C9 61 10 62 10.9 63c.9.9 1.6 1.9 2.5 2.8 2.7 2.7 6 4.2 9.8 4.6 3.5.4 7 .3 10.4-.9 1.4-.5 2.8-1.2 4-2.1 2.9-2.2 3-5.9.2-8.2-1.3-1.1-2.9-1.9-4.5-2.6-4-1.7-8.1-2.9-12.3-4-3.4-.8-6.7-1.9-10.1-2.9-1.3-.4-2.5-1.1-3.7-1.7-3.2-1.7-5-4.4-5.5-7.9-1-7.1 1.7-12.8 8.1-15.9 9.8-4.8 19.7-5.2 29.4.4 1.8 1 3.5 2.5 5.1 3.9 1.2 1 2 2.5 2.5 4 .8 2.6-.5 3.9-2.8 4.4-2 .4-3.8-.2-5.2-1.7-.3-.3-.5-.6-.7-.9-2.3-3.4-5.6-5.3-9.6-6.1-4-.7-8-.6-11.8.9-1.4.5-2.8 1.3-3.9 2.3-2.7 2.3-2.7 5.4-.1 7.8 1.7 1.6 3.7 2.5 5.9 3 4.8 1.2 9.7 2.4 14.5 3.6 3.1.8 6.1 1.8 8.9 3.4 3.6 1.9 6.2 4.7 7.1 8.8 1.1 5 0 9.4-3.9 13-4.4 4-9.5 6.3-15.4 7-1.7.1-3.3.2-4.8.3z"/></symbol></svg>