<svg width="62" height="62" fill="none" xmlns="http://www.w3.org/2000/svg"><path d="M52.313 44.32a2.421 2.421 0 100 4.844 2.421 2.421 0 100-4.844z" fill="#000"/><path d="M52.313 44.32a2.421 2.421 0 100 4.844 2.421 2.421 0 100-4.844z" fill="url(#paint0_linear)"/><path d="M51.102 34.633a1.212 1.212 0 100 2.423 1.212 1.212 0 000-2.423z" fill="#000"/><path d="M51.102 34.633a1.212 1.212 0 100 2.423 1.212 1.212 0 000-2.423z" fill="url(#paint1_linear)"/><path d="M15.258 44.32a2.421 2.421 0 100 4.844 2.421 2.421 0 100-4.844z" fill="#000"/><path d="M15.258 44.32a2.421 2.421 0 100 4.844 2.421 2.421 0 100-4.844z" fill="url(#paint2_linear)"/><path d="M56.91 29.867l-2.088-8.352a3.604 3.604 0 001.123-2.624 3.637 3.637 0 00-3.633-3.633h-9.687v-3.633a3.637 3.637 0 00-3.633-3.633H3.632A3.637 3.637 0 000 11.625v31.484a3.637 3.637 0 003.633 3.633h4.36c0 4.007 3.258 7.266 7.265 7.266 4.006 0 7.265-3.26 7.265-7.266h22.524a7.274 7.274 0 007.266 7.266c4.006 0 7.265-3.26 7.265-7.266 0-.069-.003-.137-.005-.206A3.638 3.638 0 0062 43.108v-7.265a6.064 6.064 0 00-5.09-5.977zm-4.332-7.344l1.816 7.266H44.337l2.777-2.777a1.21 1.21 0 10-1.712-1.712l-2.777 2.776v-5.553h9.953zm.945-3.632a1.21 1.21 0 01-1.21 1.21h-9.688V17.68h9.688c.667 0 1.21.543 1.21 1.21zM15.258 51.586a4.85 4.85 0 01-4.844-4.844c0-2.707 2.212-4.844 4.844-4.844 2.637 0 4.844 2.143 4.844 4.844a4.85 4.85 0 01-4.844 4.844zm6.85-7.266a7.292 7.292 0 00-6.85-4.843 7.29 7.29 0 00-6.85 4.843H3.633a1.212 1.212 0 01-1.211-1.21V11.624c0-.668.543-1.21 1.21-1.21h35.36c.668 0 1.211.542 1.211 1.21V44.32H22.108zm30.204 7.266a4.85 4.85 0 01-4.843-4.844c0-2.707 2.212-4.844 4.843-4.844 2.638 0 4.844 2.143 4.844 4.844a4.85 4.85 0 01-4.843 4.844zm6.764-7.497a7.292 7.292 0 00-6.764-4.612 7.29 7.29 0 00-6.85 4.843h-2.837V32.21h13.32a3.639 3.639 0 013.425 2.423h-3.425a1.21 1.21 0 100 2.422h3.633v6.054c0 .403-.199.76-.502.98z" fill="#000"/><path d="M56.91 29.867l-2.088-8.352a3.604 3.604 0 001.123-2.624 3.637 3.637 0 00-3.633-3.633h-9.687v-3.633a3.637 3.637 0 00-3.633-3.633H3.632A3.637 3.637 0 000 11.625v31.484a3.637 3.637 0 003.633 3.633h4.36c0 4.007 3.258 7.266 7.265 7.266 4.006 0 7.265-3.26 7.265-7.266h22.524a7.274 7.274 0 007.266 7.266c4.006 0 7.265-3.26 7.265-7.266 0-.069-.003-.137-.005-.206A3.638 3.638 0 0062 43.108v-7.265a6.064 6.064 0 00-5.09-5.977zm-4.332-7.344l1.816 7.266H44.337l2.777-2.777a1.21 1.21 0 10-1.712-1.712l-2.777 2.776v-5.553h9.953zm.945-3.632a1.21 1.21 0 01-1.21 1.21h-9.688V17.68h9.688c.667 0 1.21.543 1.21 1.21zM15.258 51.586a4.85 4.85 0 01-4.844-4.844c0-2.707 2.212-4.844 4.844-4.844 2.637 0 4.844 2.143 4.844 4.844a4.85 4.85 0 01-4.844 4.844zm6.85-7.266a7.292 7.292 0 00-6.85-4.843 7.29 7.29 0 00-6.85 4.843H3.633a1.212 1.212 0 01-1.211-1.21V11.624c0-.668.543-1.21 1.21-1.21h35.36c.668 0 1.211.542 1.211 1.21V44.32H22.108zm30.204 7.266a4.85 4.85 0 01-4.843-4.844c0-2.707 2.212-4.844 4.843-4.844 2.638 0 4.844 2.143 4.844 4.844a4.85 4.85 0 01-4.843 4.844zm6.764-7.497a7.292 7.292 0 00-6.764-4.612 7.29 7.29 0 00-6.85 4.843h-2.837V32.21h13.32a3.639 3.639 0 013.425 2.423h-3.425a1.21 1.21 0 100 2.422h3.633v6.054c0 .403-.199.76-.502.98z" fill="url(#paint3_linear)"/><path d="M21.313 15.258c-6.01 0-10.899 4.889-10.899 10.898 0 6.01 4.89 10.899 10.899 10.899 6.009 0 10.898-4.89 10.898-10.899 0-6.009-4.89-10.898-10.898-10.898zm0 19.375c-4.674 0-8.477-3.803-8.477-8.477s3.803-8.476 8.476-8.476c4.674 0 8.477 3.802 8.477 8.476 0 4.674-3.803 8.477-8.477 8.477z" fill="#000"/><path d="M21.313 15.258c-6.01 0-10.899 4.889-10.899 10.898 0 6.01 4.89 10.899 10.899 10.899 6.009 0 10.898-4.89 10.898-10.899 0-6.009-4.89-10.898-10.898-10.898zm0 19.375c-4.674 0-8.477-3.803-8.477-8.477s3.803-8.476 8.476-8.476c4.674 0 8.477 3.802 8.477 8.476 0 4.674-3.803 8.477-8.477 8.477z" fill="url(#paint4_linear)"/><path d="M26.156 24.945h-3.633v-3.633a1.21 1.21 0 10-2.421 0v4.844a1.21 1.21 0 001.21 1.211h4.844a1.21 1.21 0 100-2.422z" fill="#000"/><path d="M26.156 24.945h-3.633v-3.633a1.21 1.21 0 10-2.421 0v4.844a1.21 1.21 0 001.21 1.211h4.844a1.21 1.21 0 100-2.422z" fill="url(#paint5_linear)"/><defs><linearGradient id="paint0_linear" x1="52.313" y1="44.32" x2="52.313" y2="49.164" gradientUnits="userSpaceOnUse"><stop stop-color="#EC407A"/><stop offset="1" stop-color="#C40135"/></linearGradient><linearGradient id="paint1_linear" x1="51.102" y1="34.633" x2="51.102" y2="37.055" gradientUnits="userSpaceOnUse"><stop stop-color="#EC407A"/><stop offset="1" stop-color="#C40135"/></linearGradient><linearGradient id="paint2_linear" x1="15.258" y1="44.32" x2="15.258" y2="49.164" gradientUnits="userSpaceOnUse"><stop stop-color="#EC407A"/><stop offset="1" stop-color="#C40135"/></linearGradient><linearGradient id="paint3_linear" x1="31" y1="7.992" x2="31" y2="54.008" gradientUnits="userSpaceOnUse"><stop stop-color="#EC407A"/><stop offset="1" stop-color="#C40135"/></linearGradient><linearGradient id="paint4_linear" x1="21.313" y1="15.258" x2="21.313" y2="37.055" gradientUnits="userSpaceOnUse"><stop stop-color="#EC407A"/><stop offset="1" stop-color="#C40135"/></linearGradient><linearGradient id="paint5_linear" x1="23.734" y1="20.102" x2="23.734" y2="27.367" gradientUnits="userSpaceOnUse"><stop stop-color="#EC407A"/><stop offset="1" stop-color="#C40135"/></linearGradient></defs></svg>