<svg width="62" height="62" fill="none" xmlns="http://www.w3.org/2000/svg"><path d="M31 43.11a1.211 1.211 0 100 2.422 1.211 1.211 0 000-2.423z" fill="#000"/><path d="M31 43.11a1.211 1.211 0 100 2.422 1.211 1.211 0 000-2.423z" fill="url(#paint0_linear)"/><path d="M58.367 23.734h-4.36V5.57a3.637 3.637 0 00-3.632-3.633H3.633A3.637 3.637 0 000 5.57v29.063a3.637 3.637 0 003.633 3.633h4.36V56.43a3.637 3.637 0 003.632 3.633h46.742A3.637 3.637 0 0062 56.43V27.367a3.637 3.637 0 00-3.633-3.633zM2.422 11.625h49.164v4.844H2.422v-4.844zm1.21-7.266h46.743c.668 0 1.21.543 1.21 1.211v3.633H2.423V5.57c0-.668.543-1.21 1.21-1.21zm0 31.485c-.667 0-1.21-.543-1.21-1.211V18.89h49.164v4.843H11.625a3.637 3.637 0 00-3.633 3.633v8.477h-4.36zM59.579 56.43c0 .668-.543 1.21-1.21 1.21H11.624a1.21 1.21 0 01-1.21-1.21V27.367c0-.668.542-1.21 1.21-1.21h46.742c.668 0 1.211.542 1.211 1.21V56.43z" fill="#000"/><path d="M58.367 23.734h-4.36V5.57a3.637 3.637 0 00-3.632-3.633H3.633A3.637 3.637 0 000 5.57v29.063a3.637 3.637 0 003.633 3.633h4.36V56.43a3.637 3.637 0 003.632 3.633h46.742A3.637 3.637 0 0062 56.43V27.367a3.637 3.637 0 00-3.633-3.633zM2.422 11.625h49.164v4.844H2.422v-4.844zm1.21-7.266h46.743c.668 0 1.21.543 1.21 1.211v3.633H2.423V5.57c0-.668.543-1.21 1.21-1.21zm0 31.485c-.667 0-1.21-.543-1.21-1.211V18.89h49.164v4.843H11.625a3.637 3.637 0 00-3.633 3.633v8.477h-4.36zM59.579 56.43c0 .668-.543 1.21-1.21 1.21H11.624a1.21 1.21 0 01-1.21-1.21V27.367c0-.668.542-1.21 1.21-1.21h46.742c.668 0 1.211.542 1.211 1.21V56.43z" fill="url(#paint1_linear)"/><path d="M47.953 31c-1.32 0-2.593.433-3.633 1.213A6.052 6.052 0 0040.687 31a6.062 6.062 0 00-6.054 6.055 6.062 6.062 0 006.054 6.054 6.053 6.053 0 003.633-1.213 6.059 6.059 0 003.633 1.213 6.062 6.062 0 006.055-6.054A6.062 6.062 0 0047.953 31zm-10.898 6.055a3.631 3.631 0 016.356-2.402 3.624 3.624 0 010 4.804 3.631 3.631 0 01-6.356-2.402zm10.898 3.633a3.636 3.636 0 01-2.02-.614 6.045 6.045 0 000-6.038 3.636 3.636 0 012.02-.614 3.637 3.637 0 013.633 3.633 3.637 3.637 0 01-3.633 3.633z" fill="#000"/><path d="M47.953 31c-1.32 0-2.593.433-3.633 1.213A6.052 6.052 0 0040.687 31a6.062 6.062 0 00-6.054 6.055 6.062 6.062 0 006.054 6.054 6.053 6.053 0 003.633-1.213 6.059 6.059 0 003.633 1.213 6.062 6.062 0 006.055-6.054A6.062 6.062 0 0047.953 31zm-10.898 6.055a3.631 3.631 0 016.356-2.402 3.624 3.624 0 010 4.804 3.631 3.631 0 01-6.356-2.402zm10.898 3.633a3.636 3.636 0 01-2.02-.614 6.045 6.045 0 000-6.038 3.636 3.636 0 012.02-.614 3.637 3.637 0 013.633 3.633 3.637 3.637 0 01-3.633 3.633z" fill="url(#paint2_linear)"/><path d="M21.313 50.375h-4.844a1.21 1.21 0 100 2.422h4.843a1.21 1.21 0 100-2.422z" fill="#000"/><path d="M21.313 50.375h-4.844a1.21 1.21 0 100 2.422h4.843a1.21 1.21 0 100-2.422z" fill="url(#paint3_linear)"/><path d="M31 50.375h-4.844a1.21 1.21 0 100 2.422H31a1.21 1.21 0 100-2.422z" fill="#000"/><path d="M31 50.375h-4.844a1.21 1.21 0 100 2.422H31a1.21 1.21 0 100-2.422z" fill="url(#paint4_linear)"/><path d="M40.688 50.375h-4.844a1.21 1.21 0 100 2.422h4.843a1.21 1.21 0 100-2.422z" fill="#000"/><path d="M40.688 50.375h-4.844a1.21 1.21 0 100 2.422h4.843a1.21 1.21 0 100-2.422z" fill="url(#paint5_linear)"/><path d="M50.375 50.375h-4.844a1.21 1.21 0 100 2.422h4.844a1.21 1.21 0 100-2.422z" fill="#000"/><path d="M50.375 50.375h-4.844a1.21 1.21 0 100 2.422h4.844a1.21 1.21 0 100-2.422z" fill="url(#paint6_linear)"/><path d="M16.469 45.531h9.687a1.21 1.21 0 100-2.422H16.47a1.21 1.21 0 100 2.422z" fill="#000"/><path d="M16.469 45.531h9.687a1.21 1.21 0 100-2.422H16.47a1.21 1.21 0 100 2.422z" fill="url(#paint7_linear)"/><defs><linearGradient id="paint0_linear" x1="31" y1="43.109" x2="31" y2="45.531" gradientUnits="userSpaceOnUse"><stop stop-color="#EC407A"/><stop offset="1" stop-color="#C40135"/></linearGradient><linearGradient id="paint1_linear" x1="31" y1="1.938" x2="31" y2="60.063" gradientUnits="userSpaceOnUse"><stop stop-color="#EC407A"/><stop offset="1" stop-color="#C40135"/></linearGradient><linearGradient id="paint2_linear" x1="44.32" y1="31" x2="44.32" y2="43.109" gradientUnits="userSpaceOnUse"><stop stop-color="#EC407A"/><stop offset="1" stop-color="#C40135"/></linearGradient><linearGradient id="paint3_linear" x1="18.891" y1="50.375" x2="18.891" y2="52.797" gradientUnits="userSpaceOnUse"><stop stop-color="#EC407A"/><stop offset="1" stop-color="#C40135"/></linearGradient><linearGradient id="paint4_linear" x1="28.578" y1="50.375" x2="28.578" y2="52.797" gradientUnits="userSpaceOnUse"><stop stop-color="#EC407A"/><stop offset="1" stop-color="#C40135"/></linearGradient><linearGradient id="paint5_linear" x1="38.266" y1="50.375" x2="38.266" y2="52.797" gradientUnits="userSpaceOnUse"><stop stop-color="#EC407A"/><stop offset="1" stop-color="#C40135"/></linearGradient><linearGradient id="paint6_linear" x1="47.953" y1="50.375" x2="47.953" y2="52.797" gradientUnits="userSpaceOnUse"><stop stop-color="#EC407A"/><stop offset="1" stop-color="#C40135"/></linearGradient><linearGradient id="paint7_linear" x1="21.313" y1="43.109" x2="21.313" y2="45.531" gradientUnits="userSpaceOnUse"><stop stop-color="#EC407A"/><stop offset="1" stop-color="#C40135"/></linearGradient></defs></svg>