<svg width="62" height="62" fill="none" xmlns="http://www.w3.org/2000/svg"><g clip-path="url(#clip0)"><path d="M28.61 42.052a1.21 1.21 0 000-1.714 1.212 1.212 0 100 1.713z" fill="#000"/><path d="M28.61 42.052a1.21 1.21 0 000-1.714 1.212 1.212 0 100 1.713z" fill="url(#paint0_linear)"/><path d="M22.863 13.316c0 7.343 5.986 13.318 13.343 13.318s13.342-5.975 13.342-13.318C49.548 5.974 43.563 0 36.206 0S22.863 5.974 22.863 13.316zm24.26 0c0 6.008-4.898 10.896-10.917 10.896-6.02 0-10.917-4.888-10.917-10.896 0-6.007 4.897-10.895 10.917-10.895S47.123 7.31 47.123 13.317z" fill="#000"/><path d="M22.863 13.316c0 7.343 5.986 13.318 13.343 13.318s13.342-5.975 13.342-13.318C49.548 5.974 43.563 0 36.206 0S22.863 5.974 22.863 13.316zm24.26 0c0 6.008-4.898 10.896-10.917 10.896-6.02 0-10.917-4.888-10.917-10.896 0-6.007 4.897-10.895 10.917-10.895S47.123 7.31 47.123 13.317z" fill="url(#paint1_linear)"/><path d="M14.034 61.642c.47.473 1.236.478 1.712.01l5.88-5.782c1-.997 1.303-2.474.864-3.757l1.265-1.218a3.621 3.621 0 012.526-1.018h16.125c2.86 0 5.565-1.096 7.614-3.088.085-.081-.64.77 11.001-13.116a4.842 4.842 0 00-.576-6.825 4.87 4.87 0 00-6.807.54l-7.158 7.343a4.879 4.879 0 00-3.77-1.803H29.182a15.677 15.677 0 00-6.074-1.21c-5.84 0-10.941 2.692-13.678 7.74a3.628 3.628 0 00-3.244 1.004l-5.77 5.776a1.21 1.21 0 00-.002 1.708l13.619 13.696zm9.075-27.503c1.857 0 3.654.373 5.34 1.11.153.066.318.1.486.1h13.774a2.43 2.43 0 012.426 2.422 2.426 2.426 0 01-2.426 2.421h-9.896a1.212 1.212 0 100 2.421h9.896a4.852 4.852 0 004.852-4.842c0-.213-.015-.424-.043-.633 6.924-7.103 7.9-8.101 7.942-8.151a2.437 2.437 0 013.42-.289 2.423 2.423 0 01.285 3.417l-10.88 12.981a8.455 8.455 0 01-5.88 2.36H26.282c-1.58 0-3.076.603-4.21 1.697l-1.032.993-9.502-9.484c2.22-4.158 6.388-6.523 11.572-6.523zM7.903 42.173a1.21 1.21 0 011.502-.17c.21.127-.393-.42 10.506 10.442a1.21 1.21 0 01.007 1.706l-5.013 4.93L2.986 47.094l4.917-4.922z" fill="#000"/><path d="M14.034 61.642c.47.473 1.236.478 1.712.01l5.88-5.782c1-.997 1.303-2.474.864-3.757l1.265-1.218a3.621 3.621 0 012.526-1.018h16.125c2.86 0 5.565-1.096 7.614-3.088.085-.081-.64.77 11.001-13.116a4.842 4.842 0 00-.576-6.825 4.87 4.87 0 00-6.807.54l-7.158 7.343a4.879 4.879 0 00-3.77-1.803H29.182a15.677 15.677 0 00-6.074-1.21c-5.84 0-10.941 2.692-13.678 7.74a3.628 3.628 0 00-3.244 1.004l-5.77 5.776a1.21 1.21 0 00-.002 1.708l13.619 13.696zm9.075-27.503c1.857 0 3.654.373 5.34 1.11.153.066.318.1.486.1h13.774a2.43 2.43 0 012.426 2.422 2.426 2.426 0 01-2.426 2.421h-9.896a1.212 1.212 0 100 2.421h9.896a4.852 4.852 0 004.852-4.842c0-.213-.015-.424-.043-.633 6.924-7.103 7.9-8.101 7.942-8.151a2.437 2.437 0 013.42-.289 2.423 2.423 0 01.285 3.417l-10.88 12.981a8.455 8.455 0 01-5.88 2.36H26.282c-1.58 0-3.076.603-4.21 1.697l-1.032.993-9.502-9.484c2.22-4.158 6.388-6.523 11.572-6.523zM7.903 42.173a1.21 1.21 0 011.502-.17c.21.127-.393-.42 10.506 10.442a1.21 1.21 0 01.007 1.706l-5.013 4.93L2.986 47.094l4.917-4.922z" fill="url(#paint2_linear)"/><path d="M34.75 6.053v1.419a3.638 3.638 0 00-2.426 3.424 3.64 3.64 0 003.639 3.631c.668 0 1.212.543 1.212 1.21 0 .668-.544 1.211-1.212 1.211-.518 0-1.078-.325-1.575-.915a1.215 1.215 0 00-1.71-.148 1.209 1.209 0 00-.147 1.706c.648.77 1.41 1.306 2.219 1.576v1.413c0 .67.543 1.21 1.213 1.21s1.212-.54 1.212-1.21v-1.418a3.639 3.639 0 002.427-3.424 3.64 3.64 0 00-3.64-3.632 1.213 1.213 0 01-1.212-1.21c0-.668.544-1.211 1.213-1.211.43 0 .883.219 1.312.633a1.215 1.215 0 001.715-.028 1.21 1.21 0 00-.028-1.712c-.616-.595-1.232-.931-1.787-1.115v-1.41a1.212 1.212 0 00-2.425 0z" fill="#000"/><path d="M34.75 6.053v1.419a3.638 3.638 0 00-2.426 3.424 3.64 3.64 0 003.639 3.631c.668 0 1.212.543 1.212 1.21 0 .668-.544 1.211-1.212 1.211-.518 0-1.078-.325-1.575-.915a1.215 1.215 0 00-1.71-.148 1.209 1.209 0 00-.147 1.706c.648.77 1.41 1.306 2.219 1.576v1.413c0 .67.543 1.21 1.213 1.21s1.212-.54 1.212-1.21v-1.418a3.639 3.639 0 002.427-3.424 3.64 3.64 0 00-3.64-3.632 1.213 1.213 0 01-1.212-1.21c0-.668.544-1.211 1.213-1.211.43 0 .883.219 1.312.633a1.215 1.215 0 001.715-.028 1.21 1.21 0 00-.028-1.712c-.616-.595-1.232-.931-1.787-1.115v-1.41a1.212 1.212 0 00-2.425 0z" fill="url(#paint3_linear)"/></g><defs><linearGradient id="paint0_linear" x1="27.752" y1="39.984" x2="27.752" y2="42.406" gradientUnits="userSpaceOnUse"><stop stop-color="#EC407A"/><stop offset="1" stop-color="#C40135"/></linearGradient><linearGradient id="paint1_linear" x1="36.206" y1="0" x2="36.206" y2="26.634" gradientUnits="userSpaceOnUse"><stop stop-color="#EC407A"/><stop offset="1" stop-color="#C40135"/></linearGradient><linearGradient id="paint2_linear" x1="31.113" y1="25.71" x2="31.113" y2="62" gradientUnits="userSpaceOnUse"><stop stop-color="#EC407A"/><stop offset="1" stop-color="#C40135"/></linearGradient><linearGradient id="paint3_linear" x1="35.924" y1="4.842" x2="35.924" y2="21.791" gradientUnits="userSpaceOnUse"><stop stop-color="#EC407A"/><stop offset="1" stop-color="#C40135"/></linearGradient><clipPath id="clip0"><path fill="#fff" d="M0 0h62v62H0z"/></clipPath></defs></svg>