<svg height="512" viewBox="0 0 59 60" width="512" xmlns="http://www.w3.org/2000/svg"><path d="M44 15a14 14 0 10-18 13.41v3.18a14 14 0 108 0v-3.18A14.02 14.02 0 0044 15zm-26 0c0-6.627 5.373-12 12-12s12 5.373 12 12-5.373 12-12 12c-6.624-.007-11.993-5.376-12-12zm24 30c0 6.627-5.373 12-12 12s-12-5.373-12-12 5.373-12 12-12c6.624.007 11.993 5.376 12 12zM32 31.16a12.6 12.6 0 00-4 0v-2.32a12.6 12.6 0 004 0z"/><path d="M40 15c0-5.523-4.477-10-10-10S20 9.477 20 15s4.477 10 10 10c5.52-.006 9.994-4.48 10-10zm-18 0a8 8 0 118 8 8.009 8.009 0 01-8-8zm8 40a10 10 0 10-7.071-17.066A9.983 9.983 0 0030 55zm-6.315-14.9l4.9 4.9-4.9 4.9a7.982 7.982 0 010-9.8zM25.1 51.315l4.9-4.9 4.9 4.9a8.009 8.009 0 01-9.8 0zM36.315 49.9l-4.9-4.9 4.9-4.9a7.982 7.982 0 010 9.8zM34.9 38.685l-4.9 4.9-4.9-4.9a7.985 7.985 0 019.8 0z"/><path d="M25.707 13.707l3-3a1 1 0 00-1.414-1.414l-3 3a1 1 0 101.414 1.414zm7-3.414a1 1 0 00-1.414 0l-6 6a1 1 0 101.414 1.414l6-6a1 1 0 000-1.414zM4.938 57.035a3.064 3.064 0 006.124 0c1.116-35.73.617-26.452 1.9-40.525A19.448 19.448 0 0016 7c0-4.317-3.065-7-8-7S0 2.683 0 7a19.448 19.448 0 003.042 9.51c1.279 14.073.78 4.795 1.896 40.525zM5.1 17h5.81l-.818 9H5.913zm3.963 39.973A1.055 1.055 0 018 58a1.072 1.072 0 01-1.066-1.027L6.032 28h3.936zM3.181 3.684a11.113 11.113 0 00.839 6.771 1 1 0 001.78-.91c-1.325-2.595-.684-5.774-.275-7.214.482-.137.976-.23 1.475-.279V8a1 1 0 102 0V2.052c.499.049.993.142 1.475.279.409 1.44 1.05 4.619-.276 7.214a1 1 0 101.781.91 11.113 11.113 0 00.839-6.771A4.615 4.615 0 0114 7a17.818 17.818 0 01-2.459 8H4.459A17.818 17.818 0 012 7a4.615 4.615 0 011.181-3.316zM52.5 0C50.892 0 46 0 46 6c.036 2.775.73 5.502 2.024 7.957-.014.3-.163-.857.976 7.113v17.86c-1.143 8-.99 6.811-.976 7.113A17.537 17.537 0 0046 54c0 6 4.892 6 6.5 6s6.5 0 6.5-6a17.537 17.537 0 00-2.024-7.957c.014-.3.163.857-.976-7.113V21.07c1.143-8 .99-6.811.976-7.113A17.537 17.537 0 0059 6c0-6-4.892-6-6.5-6zM54 38h-3V22h3zm-3.847 7l.714-5h3.266l.714 5zm4.694-30l-.714 5h-3.266l-.714-5zm.546 42.485c.2-2.864.038-4.86-.5-5.932a1 1 0 10-1.79.894c.151.3.587 1.555.247 5.514a9.237 9.237 0 01-1.7 0c-.34-3.959.1-5.214.247-5.514a1 1 0 00-1.79-.894c-.536 1.072-.7 3.068-.5 5.932C48.471 56.906 48 55.806 48 54a15.51 15.51 0 011.785-7h5.43A15.513 15.513 0 0157 54c0 1.806-.471 2.906-1.607 3.485zM55.215 13h-5.43A15.513 15.513 0 0148 6c0-1.806.471-2.906 1.607-3.485-.2 2.864-.038 4.86.5 5.932a1 1 0 101.79-.894c-.151-.3-.587-1.555-.247-5.514a9.237 9.237 0 011.7 0c.34 3.959-.1 5.214-.247 5.514a1 1 0 101.79.894c.536-1.072.7-3.068.5-5.932C56.529 3.094 57 4.194 57 6a15.513 15.513 0 01-1.785 7z"/></svg>