<svg height="512" viewBox="0 0 60 60" width="512" xmlns="http://www.w3.org/2000/svg"><path d="M.165 37.282l3.544 19.079A4.851 4.851 0 008.326 60H20.5a4.842 4.842 0 004.683-3.921l2.926-18.933A4.953 4.953 0 0023.439 31H22v-8a8 8 0 10-16 0v8H4.8a4.958 4.958 0 00-4.635 6.282zM8 23a6 6 0 0112 0v8h-3v-2a1 1 0 00-2 0v2h-2v-2a1 1 0 00-2 0v2H8zM4.8 33h18.639a2.961 2.961 0 012.706 3.773l-2.926 18.933A2.836 2.836 0 0120.5 58H19v-2a1 1 0 00-2 0v2h-2v-2a1 1 0 00-2 0v2h-2v-2a1 1 0 00-2 0v2h-.674a2.826 2.826 0 01-2.668-2.083l-3.544-19.08A2.964 2.964 0 014.8 33zM56 22.7V19a4 4 0 00-4-4h-4a4 4 0 00-4 4v3.7a6.969 6.969 0 00-4 6.3v28a3 3 0 003 3h14a3 3 0 003-3V29a6.969 6.969 0 00-4-6.3zM46 19a2 2 0 012-2h4a2 2 0 012 2v15a4 4 0 11-8 0zm12 38a1 1 0 01-1 1H43a1 1 0 01-1-1V29a4.99 4.99 0 012-4v9a6 6 0 0012 0v-9a4.99 4.99 0 012 4z"/><path d="M49 22a1 1 0 001-1v-1a1 1 0 00-2 0v1a1 1 0 001 1zm0 13a1 1 0 001-1v-9a1 1 0 00-2 0v9a1 1 0 001 1zm5 9h-8a1 1 0 000 2h8a1 1 0 000-2zm0 5h-8a1 1 0 000 2h8a1 1 0 000-2zM33 0a6.006 6.006 0 00-6 6v16a3 3 0 003 3v21.525a2 2 0 00-1.093 1.6c-.282 3.23-.56 6.289-.833 9.1a2.011 2.011 0 001.271 2.064 9.712 9.712 0 007.31 0 2.011 2.011 0 001.271-2.063 939.33 939.33 0 01-.833-9.1A2 2 0 0036 46.525V25a3 3 0 003-3V6a6.006 6.006 0 00-6-6zm-2.936 57.42c.274-2.812.552-5.874.844-9.133a7.611 7.611 0 014.192.013c.282 3.237.561 6.3.8 9.132a7.723 7.723 0 01-5.836-.012zM34 46.069a9.688 9.688 0 00-2 0V25h2zM36 23h-6a1 1 0 01-1-1V6a4 4 0 118 0v1h-2a1 1 0 000 2h2v2h-2a1 1 0 000 2h2v2h-2a1 1 0 000 2h2v2h-2a1 1 0 000 2h2v1a1 1 0 01-1 1zM13.007 50.92A6 6 0 0020 45a10.352 10.352 0 00-4.915-8.514 1.993 1.993 0 00-2.184.008A10.536 10.536 0 008.033 44.2a6.113 6.113 0 004.974 6.72zm.984-12.76A8.378 8.378 0 0118 45a4.012 4.012 0 11-7.974-.634 8.593 8.593 0 013.965-6.206z"/></svg>