<svg xmlns="http://www.w3.org/2000/svg" viewBox="0 0 512 512"><path d="M476.963 209.153c-9.241-2.723-16.248-9.539-19.225-18.701s-1.314-18.796 4.562-26.43c13.534-17.583 13.851-40.544.809-58.495-13.042-17.951-34.978-24.745-55.882-17.306-9.076 3.23-18.751 1.834-26.546-3.829-7.794-5.663-12.111-14.433-11.845-24.063.614-22.18-12.625-40.943-33.728-47.799-21.101-6.856-42.841.541-55.382 18.846-5.445 7.948-14.093 12.505-23.726 12.505-9.634 0-18.281-4.558-23.726-12.506-12.541-18.305-34.28-25.701-55.382-18.846-21.102 6.857-34.342 25.619-33.728 47.8.267 9.629-4.05 18.4-11.844 24.062-7.794 5.663-17.469 7.058-26.546 3.829-20.905-7.437-42.84-.645-55.882 17.306-13.042 17.951-12.724 40.912.809 58.495 5.876 7.635 7.539 17.268 4.562 26.43s-9.984 15.978-19.225 18.701C13.753 215.423 0 233.812 0 256c0 22.189 13.752 40.578 35.037 46.849 9.241 2.723 16.248 9.538 19.225 18.701 2.977 9.163 1.315 18.795-4.561 26.429-13.534 17.583-13.852 40.544-.81 58.495 13.043 17.951 34.977 24.742 55.883 17.306 9.077-3.229 18.752-1.834 26.545 3.829 7.794 5.662 12.111 14.433 11.845 24.063-.614 22.18 12.626 40.942 33.728 47.799 5.228 1.699 10.494 2.523 15.65 2.522 15.658 0 30.298-7.598 39.732-21.368 5.445-7.947 14.093-12.505 23.726-12.505 9.634 0 18.282 4.558 23.727 12.505 12.541 18.305 34.279 25.702 55.382 18.846 21.102-6.857 34.342-25.619 33.728-47.799-.266-9.63 4.051-18.401 11.845-24.064 7.794-5.661 17.467-7.059 26.546-3.828 20.907 7.437 42.84.645 55.882-17.306s12.725-40.912-.81-58.495c-5.876-7.634-7.538-17.268-4.561-26.43s9.984-15.978 19.225-18.701C498.248 296.578 512 278.19 512 256c0-22.188-13.753-40.577-35.037-46.847zm-5.674 74.436a48.818 48.818 0 00-32.647 31.756 48.817 48.817 0 007.747 44.881c9.673 12.567 6.588 26.034.476 34.447-6.111 8.413-17.967 15.507-32.908 10.191a48.813 48.813 0 00-45.077 6.501 48.821 48.821 0 00-20.114 40.863c.439 15.852-9.972 24.934-19.861 28.148-9.892 3.214-23.651 1.985-32.614-11.098a48.819 48.819 0 00-40.29-21.236 48.819 48.819 0 00-40.29 21.236c-8.963 13.082-22.722 14.312-32.614 11.098-9.889-3.213-20.301-12.295-19.862-28.148a48.816 48.816 0 00-20.113-40.862 48.808 48.808 0 00-45.078-6.502c-14.941 5.316-26.796-1.779-32.908-10.191-6.112-8.413-9.197-21.879.477-34.447a48.819 48.819 0 007.746-44.881 48.815 48.815 0 00-32.647-31.755c-15.213-4.482-20.633-17.19-20.633-27.588s5.42-23.106 20.632-27.588a48.817 48.817 0 0032.647-31.755 48.82 48.82 0 00-7.746-44.881c-9.673-12.567-6.589-26.034-.476-34.447 6.111-8.413 17.967-15.506 32.908-10.191a48.817 48.817 0 0045.078-6.502 48.818 48.818 0 0020.113-40.862c-.439-15.853 9.973-24.935 19.862-28.148 9.888-3.212 23.65-1.985 32.614 11.098a48.819 48.819 0 0040.29 21.236 48.817 48.817 0 0040.29-21.236c8.962-13.083 22.723-14.311 32.613-11.098 9.89 3.213 20.301 12.295 19.862 28.149a48.82 48.82 0 0020.113 40.862 48.816 48.816 0 0045.078 6.501c14.942-5.316 26.796 1.779 32.908 10.192 6.112 8.412 9.197 21.879-.476 34.447a48.817 48.817 0 00-7.746 44.88 48.816 48.816 0 0032.647 31.756c15.212 4.481 20.632 17.189 20.632 27.588 0 10.399-5.421 23.104-20.633 27.586z"/><path d="M256 97.467c-34.906 0-68.017 11.125-95.753 32.173-26.831 20.361-46.832 49.275-56.317 81.415-1.57 5.318 1.469 10.901 6.787 12.47.949.28 1.905.413 2.846.413 4.335 0 8.335-2.83 9.624-7.2 8.282-28.061 25.754-53.313 49.198-71.104 24.215-18.376 53.128-28.089 83.615-28.089 5.545 0 10.039-4.495 10.039-10.039 0-5.545-4.495-10.039-10.039-10.039zm122.089 243.677c-4.322-3.474-10.642-2.787-14.114 1.535-26.451 32.906-65.807 51.778-107.975 51.778-5.545 0-10.039 4.495-10.039 10.039s4.495 10.039 10.039 10.039c48.282 0 93.341-21.606 123.624-59.278 3.474-4.32 2.787-10.64-1.535-14.113z"/><circle cx="391.54" cy="318.411" r="10.206"/><path d="M236.413 334.313l-68.021-68.022c-2.929-2.929-7.639-.733-10.988 2.616-3.453 3.453-5.546 8.058-2.616 10.988l42.069 42.069-59.231-18.837c-9.419-2.93-12.454-1.988-17.372 2.93-3.453 3.453-5.442 8.163-2.512 11.093l67.918 67.917c2.825 2.825 7.639.941 11.092-2.512 3.35-3.349 5.338-8.267 2.512-11.093l-42.068-42.069 64.568 19.569c5.024 1.466 8.895-.314 12.137-3.557 3.35-3.348 5.338-8.266 2.512-11.092zm58.5-61.642c-3.244-3.244-7.638-4.5-10.359-1.779l-29.615 29.615-21.035-21.034 15.906-15.906c2.931-2.93 1.466-7.116-.941-9.523-2.826-2.825-7.011-3.872-9.732-1.151l-15.906 15.906-20.932-20.931 29.615-29.615c2.721-2.721 1.465-7.116-1.779-10.36-2.825-2.825-7.22-4.5-10.15-1.57l-37.256 37.255c-3.034 3.035-4.499 7.43-1.674 10.256l67.918 67.917c2.825 2.826 7.221 1.361 10.255-1.674l37.255-37.255c2.93-2.93 1.256-7.325-1.57-10.151zm74.095-70.324l-45.104-86.543a6.342 6.342 0 00-1.047-1.465c-3.035-3.035-10.256-.628-14.128 3.244-2.092 2.093-3.243 4.709-1.778 7.221l40.185 73.254-45.313-27.523c-3.243-1.988-7.429-.104-10.359 2.826-3.035 3.035-4.918 7.22-2.931 10.465l27.522 45.313-73.254-40.186c-2.512-1.465-5.127-.314-7.221 1.779-3.872 3.872-6.279 11.093-3.244 14.128a6.357 6.357 0 001.465 1.046l86.545 45.104c4.081 2.197 9.523-.314 13.5-4.291 3.872-3.872 6.488-9.418 4.081-13.29l-21.453-35.058 34.952 21.558c3.873 2.406 9.42-.21 13.291-4.082 3.977-3.978 6.383-9.314 4.291-13.5z"/></svg>