<?xml version="1.0" encoding="utf-8"?>
<!-- Generator: Adobe Illustrator 22.1.0, SVG Export Plug-In . SVG Version: 6.00 Build 0)  -->
<svg version="1.1" id="Слой_1" xmlns="http://www.w3.org/2000/svg" xmlns:xlink="http://www.w3.org/1999/xlink" x="0px" y="0px"
	 viewBox="0 0 107.8 168" style="enable-background:new 0 0 107.8 168;" xml:space="preserve" fill="#fff">
<g>
	<linearGradient id="SVGID_1_" gradientUnits="userSpaceOnUse" x1="31.1448" y1="112.7099" x2="31.1448" y2="174.9994">
		<stop  offset="0" style="stop-color:#FF1563"/>
		<stop  offset="1" style="stop-color:#0077BE"/>
	</linearGradient>
	<path class="st0" d="M62.3,72.3c-1.4-1.2-25.9-21.8-45.6-12.5C9.7,63.1,6,68.8,4.7,71c-14.7,23.9,7.5,57.9,29.4,91.5
		c0,0,4.1,6.3,6.3,5.5c3.4-1.3-4.1-19.4,4.7-30.8c2-2.6,4.5-4.4,4.4-4.6c-0.2-0.2-7.1,3.9-10.5,10.4c-4.9,9.4-0.1,19.3-1,19.6
		c-2.5,0.9-43.6-67.9-22.5-89.1C26.3,62.5,49.7,68.2,62.3,72.3z"/>
	<linearGradient id="SVGID_2_" gradientUnits="userSpaceOnUse" x1="42.1627" y1="94.7876" x2="130.5498" y2="94.7876">
		<stop  offset="0.317" style="stop-color:#00B570"/>
		<stop  offset="1" style="stop-color:#0072BF"/>
	</linearGradient>
	<path class="st1" d="M42.2,50.9c1.9-1.5,40.1-31.6,57.1-19.3c5.1,3.7,6.8,10.2,7.7,17.8c1.7,13.7,0.5,27.9-2.4,41.4
		c-3.1,0.5-5.8,2.4-7.4,5.1l-2.4,4.2l0,0l-2.1-3.8c-0.5-1-1.2-1.8-2-2.6c4.2-20.5,4.5-40.1-5.2-47.9C81.8,43,71.3,37.4,42.2,50.9z
		 M96.9,113.2l-2.4-4.4l-2.7,4.8c-1.6,2.9-4.6,4.9-7.9,5.3c-6.9,20.8-15.4,37.5-18.2,36.9c-0.3-0.1-0.8-0.7-1.2-2.1
		c-4.3-17.1-7.1-23.4-12-25.4c-2.4-1-5.4-0.5-5.5,0c-0.1,0.4,2.4,0.8,4.5,2c5.9,3.6,6.4,11.1,9.9,23.9c1.2,4.6,3.3,6.3,4.3,6.6
		c6.5,2,21.9-18.3,32.1-46.3C97.5,114.1,97.2,113.7,96.9,113.2z M98,104.2l2.1,3.6c1.3-4.2,2.6-8.5,3.6-12.9L98,104.2z M89.1,101
		c-1.1,4.6-2.4,9.2-3.8,13.6l6-9.9L89.1,101z"/>
	<radialGradient id="SVGID_3_" cx="20.4063" cy="41.0271" r="10.1799" gradientUnits="userSpaceOnUse">
		<stop  offset="0" style="stop-color:#FF1563"/>
		<stop  offset="1" style="stop-color:#FF1563"/>
	</radialGradient>
	<circle class="st2" cx="20.4" cy="41" r="10.2"/>
	<linearGradient id="SVGID_4_" gradientUnits="userSpaceOnUse" x1="78.1026" y1="10.1799" x2="109.0121" y2="10.1799">
		<stop  offset="0" style="stop-color:#00B570"/>
		<stop  offset="1" style="stop-color:#0072BF"/>
	</linearGradient>
	<circle class="st3" cx="88.3" cy="10.2" r="10.2"/>
	<g>
		<linearGradient id="SVGID_5_" gradientUnits="userSpaceOnUse" x1="16.7241" y1="105.5797" x2="28.6172" y2="105.5797">
			<stop  offset="0" style="stop-color:#00B570"/>
			<stop  offset="1" style="stop-color:#0072BF"/>
		</linearGradient>
		<path class="st4" d="M21.9,98.9h1.6l5.1,13.4h-2.7l-3.2-9.2l-3.2,9.2h-2.7L21.9,98.9z M21.1,107.7h3.2l0.9,2.4h-4.9L21.1,107.7z"
			/>
		<linearGradient id="SVGID_6_" gradientUnits="userSpaceOnUse" x1="30.0547" y1="105.5797" x2="39.0625" y2="105.5797">
			<stop  offset="0" style="stop-color:#00B570"/>
			<stop  offset="1" style="stop-color:#0072BF"/>
		</linearGradient>
		<path class="st5" d="M30.1,98.9h2.5v13.4h-2.5V98.9z M32.6,109.9h6.5v2.4h-6.5V109.9z"/>
		<linearGradient id="SVGID_7_" gradientUnits="userSpaceOnUse" x1="40.6846" y1="105.5797" x2="50.4326" y2="105.5797">
			<stop  offset="0" style="stop-color:#00B570"/>
			<stop  offset="1" style="stop-color:#0072BF"/>
		</linearGradient>
		<path class="st6" d="M40.7,98.9h2.5v13.4h-2.5V98.9z M43.2,109.9h2c0.8,0,1.5-0.2,1.9-0.6c0.5-0.4,0.7-1,0.7-1.7v-4
			c0-0.7-0.2-1.3-0.7-1.7c-0.5-0.4-1.1-0.6-1.9-0.6h-2v-2.4h1.9c1.1,0,2.1,0.2,2.9,0.6c0.8,0.4,1.4,0.9,1.8,1.6
			c0.4,0.7,0.6,1.6,0.6,2.6v3.8c0,1-0.2,1.8-0.6,2.5s-1,1.3-1.8,1.7c-0.8,0.4-1.8,0.6-2.9,0.6h-1.9V109.9z"/>
		<linearGradient id="SVGID_8_" gradientUnits="userSpaceOnUse" x1="52.8872" y1="105.5797" x2="61.895" y2="105.5797">
			<stop  offset="0" style="stop-color:#00B570"/>
			<stop  offset="1" style="stop-color:#0072BF"/>
		</linearGradient>
		<path class="st7" d="M52.9,98.9h2.5v13.4h-2.5V98.9z M55.4,98.9h6.5v2.4h-6.5V98.9z M55.4,104.4h5.5v2.4h-5.5V104.4z M55.4,109.9
			h6.5v2.4h-6.5V109.9z"/>
		<linearGradient id="SVGID_9_" gradientUnits="userSpaceOnUse" x1="63.9795" y1="105.5753" x2="74.2822" y2="105.5753">
			<stop  offset="0" style="stop-color:#00B570"/>
			<stop  offset="1" style="stop-color:#0072BF"/>
		</linearGradient>
		<path class="st8" d="M66.4,112.3c-0.8,0-1.6,0-2.4,0V98.9h3.1c1.6,3.3,3.2,6.6,4.8,9.8v-9.8h2.4v13.4h-3.1
			c-1.6-3.2-3.2-6.5-4.8-9.7C66.4,105.8,66.4,109.1,66.4,112.3z"/>
		<linearGradient id="SVGID_10_" gradientUnits="userSpaceOnUse" x1="75.165" y1="105.5797" x2="85.0239" y2="105.5797">
			<stop  offset="0" style="stop-color:#00B570"/>
			<stop  offset="1" style="stop-color:#0072BF"/>
		</linearGradient>
		<path class="st9" d="M75.2,98.9H85v2.4h-9.9V98.9z M78.8,101.3h2.5v11h-2.5V101.3z"/>
	</g>
</g>
</svg>
