<?xml version="1.0" encoding="utf-8"?>
<!-- Generator: Adobe Illustrator 22.1.0, SVG Export Plug-In . SVG Version: 6.00 Build 0)  -->
<svg version="1.1" id="Layer_1" xmlns="http://www.w3.org/2000/svg" xmlns:xlink="http://www.w3.org/1999/xlink" x="0px" y="0px"
	 viewBox="0 0 324.6 417" style="enable-background:new 0 0 324.6 417;" xml:space="preserve">
<style type="text/css">
	.st0{fill:url(#SVGID_1_);}
	.st1{fill:url(#SVGID_2_);}
</style>
<linearGradient id="SVGID_1_" gradientUnits="userSpaceOnUse" x1="39.0296" y1="302.7023" x2="285.6079" y2="56.124">
	<stop  offset="0.317" style="stop-color:#00B570"/>
	<stop  offset="1" style="stop-color:#0072BF"/>
</linearGradient>
<path class="st0" d="M162.3,0C72.8,0,0,72.8,0,162.2c0,55.3,26.3,114.7,78.1,176.5c38,45.4,75.6,74.6,77.2,75.8
	c2.1,1.6,4.6,2.4,7.1,2.4c2.5,0,5-0.8,7.1-2.4c1.6-1.2,39.1-30.4,77.2-75.8c51.8-61.8,78.1-121.2,78.1-176.5
	C324.6,72.8,251.8,0,162.3,0z M162.3,277.4c-61,0-110.5-49.5-110.5-110.5c0-61,49.5-110.5,110.5-110.5s110.5,49.5,110.5,110.5
	C272.8,228,223.3,277.4,162.3,277.4z"/>
<linearGradient id="SVGID_2_" gradientUnits="userSpaceOnUse" x1="100.8271" y1="166.939" x2="224.3425" y2="166.939">
	<stop  offset="0" style="stop-color:#00B570"/>
	<stop  offset="1" style="stop-color:#0072BF"/>
</linearGradient>
<circle class="st1" cx="162.6" cy="166.9" r="61.8"/>
</svg>
