<svg xmlns="http://www.w3.org/2000/svg" viewBox="0 0 410 410" width="410" height="410">
	<defs>
		<clipPath clipPathUnits="userSpaceOnUse" id="cp1">
			<path d="M0 0L410 0L410 410L0 410Z" />
		</clipPath>
	</defs>
	<style>
		tspan { white-space:pre }
		.shp0 { fill: #ff383f } 
	</style>
	<g id="Page 1" clip-path="url(#cp1)">
		<path id="Path 1" class="shp0" d="M409.6,38.48v115.42c0,21.16 -12.24,50.72 -27.21,65.68l-178.8,178.79c-14.96,14.96 -39.45,14.96 -54.41,0l-137.97,-137.96c-14.96,-14.96 -14.96,-39.45 0,-54.41l178.8,-178.79c14.96,-14.97 44.52,-27.21 65.68,-27.21h115.43c21.16,0 38.48,17.31 38.48,38.48zM358.4,89.6c0,-21.21 -17.19,-38.4 -38.4,-38.4c-21.21,0 -38.4,17.19 -38.4,38.4c0,21.21 17.19,38.4 38.4,38.4c21.21,0 38.4,-17.19 38.4,-38.4z" />
	</g>
</svg>