<svg xmlns="http://www.w3.org/2000/svg" viewBox="0 0 513 513" width="513" height="513">
	<defs>
		<clipPath clipPathUnits="userSpaceOnUse" id="cp1">
			<path d="M0 0L512 0L512 512L0 512Z" />
		</clipPath>
	</defs>
	<style>
		tspan { white-space:pre }
		.shp0 { fill: #fff } 
	</style>
	<g id="Page 1" clip-path="url(#cp1)">
		<path id="Path 1" class="shp0" d="M512,100.99v401.01c0,5.52 -4.48,10 -10,10h-360c-5.52,0 -10,-4.48 -10,-10v-40.06c0,-5.52 4.48,-10 10,-10c5.52,0 10,4.48 10,10v30.06h340v-70.89h-243.67c-5.52,0 -10,-4.48 -10,-10c0,-5.52 4.48,-10 10,-10h7.28v-63.58l-0.39,0.39c-1.95,1.95 -4.51,2.93 -7.07,2.93c-2.56,0 -5.12,-0.98 -7.07,-2.93c-3.91,-3.91 -3.91,-10.24 0,-14.14l74.97,-74.97c1.88,-1.88 4.42,-2.93 7.07,-2.93c2.65,0 5.19,1.05 7.07,2.93l33.44,33.44l77.83,-77.83h-11.93c-5.52,0 -10,-4.48 -10,-10c0,-5.52 4.48,-10 10,-10h36.08c5.52,0 10,4.48 10,10v36.08c0,5.52 -4.48,10 -10,10c-5.52,0 -10,-4.48 -10,-10v-11.93l-30.24,30.24c0.15,0.69 0.24,1.41 0.24,2.15v150.16h30v-128.78c0,-5.52 4.48,-10 10,-10c5.52,0 10,4.48 10,10v128.78h16.39v-290.11h-81c-5.52,0 -10,-4.48 -10,-10v-81h-249v53.34c40.57,1.65 76.2,25.29 99.26,45.23c13.51,11.68 24.07,23.2 30.54,30.8c13.19,15.49 13.19,17.69 13.19,20.47c0,2.65 0,5.16 -13.18,20.69c-6.43,7.57 -16.96,19.07 -30.56,30.79c-23.88,20.58 -61.27,45.11 -103.75,45.11c-42.43,0 -79.85,-24.65 -103.77,-45.33c-13.51,-11.68 -24.07,-23.2 -30.54,-30.8c-13.19,-15.49 -13.19,-17.69 -13.19,-20.47c0,-2.65 0,-5.16 13.18,-20.69c6.43,-7.57 16.96,-19.07 30.56,-30.79c20.93,-18.04 52.23,-39.11 88.25,-44.04v-64.32c0,-5.52 4.48,-10 10,-10h269c2.65,0 5.2,1.05 7.07,2.93l91,90.99c1.88,1.88 2.93,4.42 2.93,7.07zM355.61,302.51l-30,-30v128.6h30zM305.61,287.54l-30,30v83.58h30zM477.87,91l-56.87,-56.86v56.86zM147.5,93.24c-35.2,0 -67.27,20.63 -87.96,37.95c-18.34,15.34 -31.44,30.9 -37.32,38.57c6.05,7.8 19.19,23.27 37.08,38.33c20.78,17.49 52.96,38.34 88.2,38.34c35.2,0 67.27,-20.63 87.96,-37.95c18.34,-15.34 31.44,-30.9 37.32,-38.57c-6.05,-7.8 -19.19,-23.27 -37.08,-38.33c-20.79,-17.49 -52.96,-38.34 -88.2,-38.34zM405.61,268.57l-30,30v102.55h30zM204.49,169.82c0,31.41 -25.56,56.97 -56.97,56.97c-31.41,0 -56.97,-25.56 -56.97,-56.97c0,-31.41 25.56,-56.97 56.97,-56.97c31.41,0 56.97,25.56 56.97,56.97zM184.49,169.82c0,-20.39 -16.59,-36.97 -36.97,-36.97c-20.39,0 -36.97,16.58 -36.97,36.97c0,20.39 16.58,36.97 36.97,36.97c20.38,0 36.97,-16.58 36.97,-36.97zM157.5,169.84c0,2.63 -1.07,5.2 -2.93,7.07c-1.86,1.86 -4.44,2.93 -7.07,2.93c-2.64,0 -5.21,-1.07 -7.07,-2.93c-1.86,-1.86 -2.93,-4.44 -2.93,-7.07c0,-2.64 1.07,-5.21 2.93,-7.07c1.86,-1.86 4.44,-2.93 7.07,-2.93c2.63,0 5.21,1.07 7.07,2.93c1.86,1.86 2.93,4.44 2.93,7.07zM136.32,367.11c0,5.52 -4.48,10 -10,10h-112.45c-5.52,0 -10,-4.48 -10,-10c0,-5.52 4.48,-10 10,-10h112.45c5.52,0 10,4.48 10,10zM193.43,367.11c0,5.52 -4.48,10 -10,10h-23.02c-5.52,0 -10,-4.48 -10,-10c0,-5.52 4.48,-10 10,-10h23.02c5.52,0 10,4.48 10,10zM162.69,323.11c0,5.52 -4.48,10 -10,10h-138.82c-5.52,0 -10,-4.48 -10,-10c0,-5.52 4.48,-10 10,-10h138.82c5.52,0 10,4.48 10,10zM191.9,323.11c0,2.63 -1.07,5.21 -2.93,7.07c-1.86,1.87 -4.44,2.93 -7.07,2.93c-2.63,0 -5.21,-1.06 -7.07,-2.93c-1.86,-1.86 -2.93,-4.44 -2.93,-7.07c0,-2.63 1.07,-5.2 2.93,-7.07c1.86,-1.86 4.43,-2.92 7.07,-2.92c2.63,0 5.21,1.06 7.07,2.92c1.86,1.87 2.93,4.44 2.93,7.07zM104.27,411.11c0,5.52 -4.48,10 -10,10h-80.4c-5.52,0 -10,-4.48 -10,-10c0,-5.52 4.48,-10 10,-10h80.4c5.52,0 10,4.48 10,10zM136.32,411.11c0,2.63 -1.06,5.21 -2.93,7.07c-1.86,1.87 -4.43,2.93 -7.07,2.93c-2.63,0 -5.21,-1.06 -7.07,-2.93c-1.86,-1.86 -2.93,-4.43 -2.93,-7.07c0,-2.63 1.07,-5.2 2.93,-7.07c1.86,-1.86 4.44,-2.93 7.07,-2.93c2.64,0 5.21,1.07 7.07,2.93c1.87,1.87 2.93,4.44 2.93,7.07zM170.41,411.11c0,2.64 -1.07,5.21 -2.93,7.08c-1.86,1.86 -4.44,2.92 -7.07,2.92c-2.64,0 -5.21,-1.06 -7.07,-2.92c-1.87,-1.87 -2.93,-4.45 -2.93,-7.08c0,-2.63 1.06,-5.2 2.93,-7.07c1.86,-1.86 4.44,-2.93 7.07,-2.93c2.63,0 5.2,1.07 7.07,2.93c1.86,1.86 2.93,4.44 2.93,7.07zM204.49,411.11c0,2.64 -1.07,5.21 -2.93,7.07c-1.86,1.87 -4.44,2.93 -7.07,2.93c-2.63,0 -5.21,-1.06 -7.07,-2.93c-1.86,-1.86 -2.93,-4.43 -2.93,-7.07c0,-2.63 1.07,-5.21 2.93,-7.07c1.86,-1.86 4.44,-2.93 7.07,-2.93c2.63,0 5.21,1.07 7.07,2.93c1.86,1.86 2.93,4.44 2.93,7.07zM367.62,63.19c0,5.52 -4.48,10 -10,10h-72.63c-5.52,0 -10,-4.48 -10,-10c0,-5.52 4.48,-10 10,-10h72.63c5.52,0 10,4.48 10,10zM347.8,105.74c0,5.52 -4.48,10 -10,10h-52.8c-5.52,0 -10,-4.48 -10,-10c0,-5.52 4.48,-10 10,-10h52.8c5.52,0 10,4.48 10,10z" />
	</g>
</svg>