<?xml version="1.0" encoding="utf-8"?>
<!-- Generator: Adobe Illustrator 22.1.0, SVG Export Plug-In . SVG Version: 6.00 Build 0)  -->
<svg version="1.1" id="Layer_1" xmlns="http://www.w3.org/2000/svg" xmlns:xlink="http://www.w3.org/1999/xlink" x="0px" y="0px"
	 viewBox="0 0 512 512" style="enable-background:new 0 0 512 512;" xml:space="preserve" fill="#fff">
<path d="M119.5,24.5C107.1,24.5,97,34.6,97,47s10.1,22.5,22.5,22.5S142,59.4,142,47S131.9,24.5,119.5,24.5z M119.5,54.5
	c-4.1,0-7.5-3.4-7.5-7.5s3.4-7.5,7.5-7.5s7.5,3.4,7.5,7.5S123.6,54.5,119.5,54.5z"/>
<path d="M179.5,69.5c12.4,0,22.5-10.1,22.5-22.5s-10.1-22.5-22.5-22.5S157,34.6,157,47S167.1,69.5,179.5,69.5z M179.5,39.5
	c4.1,0,7.5,3.4,7.5,7.5s-3.4,7.5-7.5,7.5S172,51.1,172,47S175.4,39.5,179.5,39.5z"/>
<path d="M262,47c0-12.4-10.1-22.5-22.5-22.5S217,34.6,217,47s10.1,22.5,22.5,22.5S262,59.4,262,47z M232,47c0-4.1,3.4-7.5,7.5-7.5
	s7.5,3.4,7.5,7.5s-3.4,7.5-7.5,7.5S232,51.1,232,47z"/>
<path d="M437.5,128.5c-4.1,0-7.5,3.4-7.5,7.5v361H81v-17.3c0-4.1-3.4-7.5-7.5-7.5s-7.5,3.4-7.5,7.5v24.8c0,4.1,3.4,7.5,7.5,7.5h364
	c4.1,0,7.5-3.4,7.5-7.5V136C445,131.9,441.6,128.5,437.5,128.5z"/>
<path d="M437.5,0h-364C69.4,0,66,3.4,66,7.5v440c0,4.1,3.4,7.5,7.5,7.5s7.5-3.4,7.5-7.5V95h46.5c4.1,0,7.5-3.4,7.5-7.5
	s-3.4-7.5-7.5-7.5H81V15h349v65H159.6c-4.1,0-7.5,3.4-7.5,7.5s3.4,7.5,7.5,7.5H430v8.8c0,4.1,3.4,7.5,7.5,7.5s7.5-3.4,7.5-7.5V7.5
	C445,3.4,441.6,0,437.5,0z"/>
<path d="M112.1,170.3c-1.6,4.8-0.3,10,3.4,13.6l12,11.6l-2.8,16.4c-0.9,5,1.1,10,5.2,12.9c4.1,3,9.5,3.4,14,1.1l15-7.8l15,7.8
	c2,1,4.1,1.5,6.2,1.5c2.8,0,5.5-0.9,7.9-2.6c4.1-3,6.1-8,5.2-12.9l-2.8-16.4l12-11.6c3.7-3.5,5-8.7,3.4-13.6
	c-1.6-4.9-5.7-8.3-10.8-9.1l-16.7-2.4l-7.5-15c-2.3-4.5-6.8-7.4-11.9-7.4s-9.7,2.8-11.9,7.4l-7.5,15l-16.7,2.4
	C117.8,162,113.7,165.5,112.1,170.3z M142.6,173.6c4.3-0.6,8.1-3.3,10-7.2l6.4-12.8l6.4,12.8c1.9,3.9,5.7,6.6,10,7.2l14.1,2
	l-10.1,9.8c-3.2,3.1-4.6,7.5-3.8,11.8l2.4,13.9l-12.7-6.6c-3.9-2-8.5-2-12.3,0l-12.7,6.6l2.4-13.9c0.7-4.3-0.7-8.7-3.9-11.8
	l-10.1-9.8L142.6,173.6z"/>
<path d="M398.9,170.3c-1.6-4.9-5.7-8.3-10.8-9.1l-16.7-2.4l-7.5-15c-2.3-4.5-6.8-7.4-11.9-7.4s-9.7,2.8-11.9,7.4l-7.5,15l-16.7,2.4
	c-5.1,0.7-9.2,4.2-10.8,9.1c-1.6,4.8-0.3,10,3.4,13.6l12,11.6l-2.8,16.4c-0.9,5,1.1,10,5.2,12.9c4.1,3,9.5,3.4,14,1.1l15-7.8l15,7.8
	c2,1,4.1,1.5,6.2,1.5c2.8,0,5.5-0.9,7.9-2.6c4.1-3,6.1-8,5.2-12.9l-2.8-16.4l12-11.6C399.1,180.4,400.4,175.2,398.9,170.3z
	 M372.3,185.4c-3.2,3.1-4.6,7.5-3.9,11.8l2.4,13.9l-12.7-6.6c-3.9-2-8.5-2-12.3,0l-12.7,6.6l2.4-13.9c0.7-4.3-0.7-8.7-3.9-11.8
	l-10.1-9.8l14.1-2c4.3-0.6,8.1-3.3,10-7.2l6.4-12.8l6.4,12.8c1.9,3.9,5.7,6.6,10,7.2l14.1,2L372.3,185.4z"/>
<path d="M302.4,138.3c-1.6-4.9-5.7-8.3-10.8-9.1l-16.7-2.4l-7.5-15c-2.3-4.5-6.8-7.4-11.9-7.4s-9.7,2.8-11.9,7.4l-7.5,15l-16.7,2.4
	c-5.1,0.7-9.2,4.2-10.8,9.1c-1.6,4.8-0.3,10,3.4,13.6l12,11.6l-2.8,16.4c-0.9,5,1.1,10,5.2,12.9c4.1,3,9.5,3.4,14,1.1l15-7.8l15,7.8
	c2,1,4.1,1.5,6.2,1.5c2.8,0,5.5-0.9,7.9-2.6c4.1-3,6.1-8,5.2-12.9l-2.8-16.4l12-11.6C302.6,148.4,303.9,143.2,302.4,138.3z
	 M275.8,153.4c-3.2,3.1-4.6,7.5-3.9,11.8l2.4,13.9l-12.7-6.6c-3.9-2-8.5-2-12.3,0l-12.7,6.6l2.4-13.9c0.7-4.3-0.7-8.7-3.9-11.8
	l-10.1-9.8l14.1-2c4.3-0.6,8.1-3.3,10-7.2l6.4-12.8l6.4,12.8c1.9,3.9,5.7,6.6,10,7.2l14.1,2L275.8,153.4z"/>
<path d="M195.7,254.6V280c0,3-6,7.1-10.4,7.1l-34.8,0.1c-9.9,0-17.9,8.3-17.9,18.4c0,3.6,1,7.1,2.8,10c-3.1,3.2-4.8,7.2-4.8,11.9
	c0,4.9,1.9,9.5,5.1,12.8c-1.2,2.4-2,5.3-2,9c0,9,6.3,16.4,14.5,18.1c-0.1,0.7-0.1,1.4-0.1,2c0,4.2,1.4,8.1,4.1,11.1
	c3.1,3.6,7.8,5.6,12.7,5.6h79.3c2.2,0,4.3-0.4,6.2-1.2c1.9,1.5,4.3,2.4,7,2.4h22.4c4,0,7.5-2.1,9.5-5.2h83.6c4.1,0,7.5-3.4,7.5-7.5
	v-70c0-4.1-3.4-7.5-7.5-7.5h-82.7c-1.7-4-5.7-6.8-10.4-6.8h-22.4c-2.2,0-4.3,0.6-6,1.7c-2.7-7.3-7.3-18.7-13.5-28.2
	c-2.8-4.3-4.2-9.4-4.2-14.8v-10.5c0-6.7-5.4-12.2-12-12.2h-4.9C206.3,226.2,195.7,235,195.7,254.6z M365.4,367.1h-74.3v-55h74.3
	V367.1z M261.1,305.3h15v67h-15V305.3z M210.7,280v-25.4c0-8,2.5-13.3,6.1-13.3h1.8v7.7c0,8.3,2.3,16.3,6.6,23
	c6.4,10,11.2,22.8,12.9,27.9c1.2,3.4,3.2,6.3,6,8.5c1.2,0.9,1.9,2.5,1.9,4.1v56.4c0,1.3-0.9,2.3-1.9,2.3h-79.3
	c-0.6,0-1.2-0.2-1.5-0.5c-0.1-0.2-0.4-0.4-0.4-1.2c0-0.9,0.2-1.7,0.6-2.1c2.1-2.7,2.5-6.4,1-9.5c-1.5-3.1-4.7-5.1-8.1-5.1h-4.9
	c-1.6,0-2.9-1.5-2.9-3.4c0-2.2,0.8-3,1.5-3.5c2.8-1.8,4.3-5,3.7-8.3c-0.5-3.3-2.9-5.9-6.1-6.8c-1.1-0.3-2.3-1.5-2.3-3.3
	c0-0.6,0-2,3.8-3.1c3.5-1,5.8-4,5.9-7.6c0.1-3.6-2.2-6.8-5.6-7.9c-1-0.3-2.2-1.5-2.2-3.3c0-1.9,1.3-3.4,2.9-3.4l34.8-0.1
	C197.1,302,210.7,292.4,210.7,280z"/>
<path d="M373,425c0-4.1-3.4-7.5-7.5-7.5h-220c-4.1,0-7.5,3.4-7.5,7.5s3.4,7.5,7.5,7.5h220C369.6,432.5,373,429.1,373,425z"/>
<path d="M145.5,450.8c-4.1,0-7.5,3.4-7.5,7.5c0,4.1,3.4,7.5,7.5,7.5h56.1c4.1,0,7.5-3.4,7.5-7.5c0-4.1-3.4-7.5-7.5-7.5H145.5z"/>
</svg>
