<svg xmlns="http://www.w3.org/2000/svg" viewBox="0 0 498 496" width="498" height="496">
	<defs>
		<clipPath clipPathUnits="userSpaceOnUse" id="cp1">
			<path d="M0 0L497 0L497 496L0 496Z" />
		</clipPath>
	</defs>
	<style>
		tspan { white-space:pre }
		.shp0 { fill: #fff } 
	</style>
	<g id="Page 1" clip-path="url(#cp1)">
		<path id="Path 1" class="shp0" d="M58.78,264.4c0,-11.08 5.9,-20.74 14.66,-26.2v-14.2c0,-48.52 39.48,-88 88,-88h4.22c23.58,0 44.92,12.3 56.74,32.38c15.3,2.39 27.04,15.66 27.04,31.62v36.45c9.52,5.55 16,15.76 16,27.55c0,15.66 -11.34,28.68 -26.21,31.42c-1.94,5.79 -5.04,11.16 -9.49,15.61l-33.94,33.94c-4.54,4.54 -10.57,7.03 -16.98,7.03h-34.74c-6.42,0 -12.45,-2.5 -16.98,-7.03l-33.94,-33.94c-4.63,-4.63 -7.81,-10.26 -9.71,-16.34c-14.07,-2.9 -24.67,-15.38 -24.67,-30.29zM89.44,232h37.49c14.96,0 29.02,-5.82 39.6,-16.4l19.78,-19.78l10.34,13.78c8.9,11.87 22.28,19.62 36.8,21.75v-31.35c0,-8.82 -7.18,-16 -16,-16h-4.94l-2.21,-4.42c-8.5,-17.01 -25.61,-27.58 -44.62,-27.58h-4.22c-39.7,0 -72,32.3 -72,72zM225.44,246.17c-16.05,-3.7 -30.62,-12.82 -40.86,-25.99l-6.74,6.74c-13.6,13.6 -31.68,21.09 -50.91,21.09h-29.5v34.74c0,6.31 2.56,12.5 7.02,16.97l33.94,33.95c1.51,1.51 3.53,2.34 5.66,2.34h34.74c2.14,0 4.15,-0.83 5.66,-2.34l33.94,-33.95c4.46,-4.46 7.02,-10.65 7.02,-16.96zM241.44,277.78c4.76,-2.78 8,-7.88 8,-13.78c0,-5.9 -3.24,-11 -8,-13.78zM74.78,264.4c0,5.18 2.65,9.74 6.66,12.42v-24.85c-4.01,2.68 -6.66,7.25 -6.66,12.42zM312.07,431.13l10.82,64.87h-322.89l10.82,-64.88c4.6,-27.63 25.04,-50.26 52.07,-57.62l42.55,-11.61v-9.89h16v15.21l5.35,26.78l23.98,-17.98h21.34l23.98,17.98l5.35,-26.78v-15.21h16v9.89l42.55,11.61c27.03,7.37 47.47,29.99 52.08,57.63zM183.19,480l-14.38,-57.5l12.88,-19.31l-14.93,-11.19h-10.66l-14.92,11.19l12.88,19.31l-14.38,57.5zM136.82,425.5l-8.46,-12.69l-12.28,9.21l-8.81,-44.04l-40.18,10.96c-21.02,5.74 -36.92,23.32 -40.5,44.82l-7.7,46.25h39.62l7.02,-49.13l15.83,2.27l-6.7,46.86h48.53zM303.99,480l-7.69,-46.25c-3.58,-21.5 -19.48,-39.09 -40.5,-44.82l-40.18,-10.96l-8.81,44.04l-12.28,-9.21l-8.46,12.69l13.62,54.5h48.53l-6.7,-46.86l15.83,-2.26l7.02,49.14zM497.44,24c0,13.23 -10.77,24 -24,24h-320c-13.23,0 -24,-10.77 -24,-24c0,-13.23 10.77,-24 24,-24h320c13.23,0 24,10.77 24,24zM481.44,24c0,-4.41 -3.59,-8 -8,-8h-320c-4.41,0 -8,3.59 -8,8c0,4.41 3.59,8 8,8h320c4.41,0 8,-3.59 8,-8zM465.44,64h16v248h-224v-16h208zM145.44,64h16v56h-16zM229.01,153.34l29.24,-19.5c-0.48,-1.88 -0.81,-3.82 -0.81,-5.85c0,-13.23 10.77,-24 24,-24c13.23,0 24,10.77 24,24c0,2.22 -0.4,4.32 -0.96,6.36l43.06,30.14c3.93,-2.81 8.7,-4.5 13.9,-4.5c2.75,0 5.36,0.56 7.82,1.42l35.85,-44.81c-2.29,-3.67 -3.67,-7.97 -3.67,-12.61c0,-13.23 10.77,-24 24,-24c13.23,0 24,10.77 24,24c0,13.23 -10.77,24 -24,24c-2.75,0 -5.36,-0.56 -7.82,-1.42l-35.85,44.81c2.29,3.67 3.67,7.97 3.67,12.61c0,13.23 -10.77,24 -24,24c-13.23,0 -24,-10.77 -24,-24c0,-2.22 0.4,-4.32 0.96,-6.36l-43.06,-30.14c-3.93,2.81 -8.7,4.5 -13.9,4.5c-5.38,0 -10.3,-1.84 -14.3,-4.85l-29.26,19.5zM353.44,184c0,4.41 3.59,8 8,8c4.41,0 8,-3.59 8,-8c0,-4.41 -3.59,-8 -8,-8c-4.41,0 -8,3.59 -8,8zM417.44,104c0,4.41 3.59,8 8,8c4.41,0 8,-3.59 8,-8c0,-4.41 -3.59,-8 -8,-8c-4.41,0 -8,3.59 -8,8zM273.44,128c0,4.41 3.59,8 8,8c4.41,0 8,-3.59 8,-8c0,-4.41 -3.59,-8 -8,-8c-4.41,0 -8,3.59 -8,8zM337.44,264h112v16h-112zM337.44,232h80v16h-80zM433.44,232h16v16h-16z" />
	</g>
</svg>