<svg xmlns="http://www.w3.org/2000/svg" viewBox="0 0 362 440" width="362" height="440">
	<defs>
		<clipPath clipPathUnits="userSpaceOnUse" id="cp1">
			<path d="M0 0L362 0L362 439L0 439Z" />
		</clipPath>
	</defs>
	<style>
		tspan { white-space:pre }
		.shp0 { fill: #ffffff } 
		.shp1 { fill: #00223a } 
		.shp2 { fill: #00afd9 } 
		.shp3 { fill: #6c7a89 } 
		.shp4 { opacity: 0.502;mix-blend-mode: multiply;fill: #3498db } 
		.shp5 { fill: #bdc3c7 } 
		.shp6 { fill: #22313f } 
		.shp7 { fill: #f4f4f4 } 
		.shp8 { fill: #daecfa } 
		.shp9 { opacity: 0.251;mix-blend-mode: multiply;fill: #3498db } 
		.shp10 { fill: #f4d03f } 
		.shp11 { mix-blend-mode: multiply;fill: #f4d03f } 
		.shp12 { fill: #ec644b } 
	</style>
	<g id="Page 1" clip-path="url(#cp1)">
		<path id="Path 1" class="shp0" d="M174.88,439l6.54,-3.02c40.92,-18.89 82.03,-37.48 121.71,-58.9c38.66,-20.86 37.34,-55.71 39.06,-94.72c2.71,-61.61 0.01,-123.33 0.01,-184.97v-10.93l-10.27,-3.73c-30.17,-10.95 -61.04,-22.35 -92.01,-30.79c-22.84,-6.22 -45.65,-10.52 -69.41,-10.27c-22.81,0.24 -44.69,4.67 -66.55,10.93c-29.11,8.34 -58.05,19.45 -86.35,30.21l-10.05,3.82v10.75c0,61.64 -2.69,123.36 0.01,184.97c1.72,39.01 0.4,73.86 39.06,94.72c39.69,21.42 80.79,40 121.71,58.9z" />
		<path id="Path 2" class="shp1" d="M23.15,97.4c0,62.09 -2.66,123.81 0,184.28c1.97,44.9 2.34,66.29 30.88,81.69c38.71,20.89 77.83,38.6 120.84,58.46c43.02,-19.86 82.13,-37.57 120.84,-58.46c28.55,-15.4 28.91,-36.79 30.89,-81.69c2.66,-60.47 0,-122.19 0,-184.28c-146.87,-53.34 -162.22,-53.69 -303.45,0z" />
		<path id="Path 3" class="shp0" d="M34.91,347.06c4.31,6.33 10.4,11.6 19.13,16.31c38.71,20.89 77.82,38.6 120.84,58.46c43.02,-19.86 82.13,-37.57 120.84,-58.46c8.73,-4.71 14.82,-9.98 19.13,-16.31c-40.61,-18.43 -88.58,-29.09 -139.97,-29.09c-51.4,0 -99.36,10.66 -139.97,29.09z" />
		<path id="Path 4" class="shp2" d="M45.29,357.81c2.58,1.95 5.47,3.79 8.74,5.56c38.71,20.89 77.82,38.6 120.84,58.46c43.02,-19.86 82.13,-37.57 120.84,-58.46c3.27,-1.77 6.17,-3.61 8.74,-5.56c-37.81,-16.29 -82.16,-25.67 -129.58,-25.67c-47.43,0 -91.78,9.38 -129.58,25.67z" />
		<path id="Path 5" class="shp0" d="M39.28,129.78l-5.38,2.3l5.54,2.45l2.3,5.38l2.45,-5.54l5.38,-2.3l-5.54,-2.45l-2.3,-5.38zM44.92,269.92l-5.38,2.3l5.54,2.45l2.3,5.38l2.45,-5.54l5.38,-2.3l-5.54,-2.45l-2.3,-5.38zM286.63,199.19l-5.38,2.3l5.54,2.45l2.3,5.38l2.45,-5.54l5.38,-2.3l-5.54,-2.45l-2.3,-5.38zM302.57,124.82l-3.26,1.39l3.35,1.48l1.39,3.26l1.49,-3.35l3.26,-1.39l-3.35,-1.49l-1.39,-3.26zM305.54,284.28l-5.38,2.3l5.54,2.45l2.3,5.39l2.45,-5.54l5.38,-2.3l-5.54,-2.45l-2.3,-5.38zM105.21,225.82l-3.26,1.39l3.35,1.48l1.39,3.26l1.48,-3.35l3.26,-1.39l-3.35,-1.48l-1.39,-3.26z" />
		<path id="Path 6" class="shp3" d="M148,209.92l-1.57,1.57l-2.83,2.83l-19.03,19.05l-4.4,4.38l4.4,4.4l4.38,-4.4l17.59,-17.59l5.84,-5.84z" />
		<path id="Path 7" class="shp4" d="M124.54,233.35l-4.38,4.4l4.4,4.4l4.38,-4.4zM148,209.92l-1.57,1.57l-2.83,2.83l2.94,5.84l5.84,-5.84z" />
		<path id="Path 8" class="shp5" d="M124.56,242.16l-4.4,-4.4l-14.65,-14.65l-104.89,104.89l-0.62,0.6l33.7,33.7l0.62,-0.6l104.89,-104.89z" />
		<path id="Path 9" class="shp6" d="M38.1,316.88l8.79,-8.79l7.33,7.33l-8.79,8.79zM96.71,240.68l8.79,-8.79l7.33,7.33l-8.79,8.79zM71.8,283.18l8.79,-8.79l7.32,7.33l-8.79,8.79zM68.87,283.18l-8.79,8.79l-7.33,-7.33l8.79,-8.79zM61.54,293.43l8.79,-8.79l7.33,7.33l-8.79,8.79zM58.61,293.43l-8.79,8.79l-7.33,-7.33l8.79,-8.79zM51.28,303.69l8.79,-8.79l7.33,7.33l-8.79,8.79zM114.29,258.27l8.79,-8.79l7.33,7.32l-8.79,8.79zM105.5,249.48l8.79,-8.79l7.33,7.33l-8.79,8.79zM35.17,316.88l-8.79,8.79l-7.33,-7.33l8.79,-8.79zM27.84,327.13l8.79,-8.79l7.33,7.33l-8.79,8.79zM16.12,335.92l-7.33,-7.33l8.79,-8.79l7.33,7.33zM86.45,250.94l8.79,-8.79l7.33,7.33l-8.79,8.79zM45.42,306.62l-8.79,8.79l-7.33,-7.33l8.79,-8.79zM68.87,303.69l7.33,7.33l-8.79,8.79l-7.33,-7.33zM79.12,293.43l7.33,7.33l-8.79,8.8l-7.33,-7.33zM102.57,269.99l7.33,7.33l-8.79,8.79l-7.33,-7.32zM112.82,259.73l7.33,7.33l-8.79,8.79l-7.33,-7.33zM89.38,283.18l7.33,7.33l-8.79,8.79l-7.32,-7.32zM55.68,316.88l7.33,7.33l-8.79,8.79l-7.33,-7.33zM92.31,259.73l-8.79,8.79l-7.33,-7.33l8.79,-8.79zM79.12,272.92l-8.79,8.79l-7.33,-7.33l8.79,-8.79zM45.42,327.13l7.33,7.33l-8.79,8.79l-7.33,-7.32zM84.99,269.99l8.79,-8.79l7.33,7.33l-8.79,8.79zM35.17,337.39l7.33,7.33l-8.79,8.8l-7.33,-7.33zM111.36,258.27l-8.79,8.79l-7.33,-7.33l8.79,-8.79zM33.7,335.92l-8.79,8.79l-7.33,-7.33l8.79,-8.79z" />
		<path id="Path 10" class="shp3" d="M237.37,120.54l-4.38,4.4l-19.05,19.03l-2.83,2.83l-1.57,1.57l4.4,4.38l5.84,-5.84l17.59,-17.59l4.4,-4.38v-0.02z" />
		<path id="Path 11" class="shp4" d="M237.37,120.54l-4.4,4.38l4.4,4.4l4.4,-4.38v-0.02zM213.94,143.97l-2.83,2.83l-1.57,1.57l4.4,4.38l5.84,-5.84z" />
		<path id="Path 12" class="shp5" d="M328.21,0.38l-0.84,0.84l-104.65,104.67l14.65,14.65l4.4,4.4l14.65,14.65l104.64,-104.67l0.84,-0.84z" />
		<path id="Path 13" class="shp6" d="M323.82,45.81l-8.79,8.79l-7.33,-7.33l8.79,-8.79zM247.63,104.41l-8.79,8.79l-7.33,-7.33l8.79,-8.79zM290.12,79.5l-8.79,8.8l-7.33,-7.33l8.79,-8.79zM275.47,61.92l8.79,-8.79l7.33,7.33l-8.79,8.79zM300.38,69.25l-8.79,8.79l-7.33,-7.33l8.79,-8.79zM285.72,51.67l8.79,-8.8l7.33,7.33l-8.79,8.79zM310.63,58.99l-8.79,8.79l-7.33,-7.33l8.79,-8.79zM265.21,122l-8.79,8.79l-7.33,-7.33l8.79,-8.79zM256.42,113.21l-8.79,8.79l-7.33,-7.33l8.79,-8.79zM309.17,28.22l8.79,-8.79l7.33,7.33l-8.79,8.79zM334.08,35.55l-8.79,8.79l-7.33,-7.33l8.79,-8.79zM326.75,25.29l-7.33,-7.33l8.79,-8.79l7.33,7.32zM257.88,94.16l-8.79,8.79l-7.33,-7.33l8.79,-8.79zM298.91,38.48l8.79,-8.79l7.33,7.33l-8.79,8.79zM312.1,60.46l7.33,7.33l-8.79,8.79l-7.33,-7.33zM301.84,70.71l7.33,7.33l-8.79,8.79l-7.33,-7.33zM278.4,94.16l7.33,7.33l-8.79,8.79l-7.33,-7.33zM268.14,104.41l7.33,7.33l-8.79,8.79l-7.33,-7.33zM291.58,80.97l7.33,7.33l-8.79,8.79l-7.33,-7.33zM325.29,47.27l7.33,7.33l-8.79,8.79l-7.33,-7.33zM252.02,85.37l8.79,-8.79l7.33,7.33l-8.79,8.79zM265.21,72.18l8.79,-8.79l7.33,7.33l-8.79,8.79zM335.54,37.01l7.33,7.33l-8.79,8.79l-7.33,-7.33zM276.93,92.69l-8.79,8.79l-7.33,-7.33l8.79,-8.79zM345.8,26.76l7.33,7.32l-8.79,8.79l-7.33,-7.33zM250.56,104.41l8.79,-8.79l7.33,7.33l-8.79,8.79zM328.22,26.76l8.79,-8.79l7.33,7.33l-8.79,8.79z" />
		<path id="Path 14" class="shp7" d="M256,186.88l-10.84,-9.67l-6.66,-5.95l-4.16,-3.72l-18.59,-16.6l-4.65,-4.14l-18.57,-16.6l-4.65,-4.16l-6.2,-5.51l-21.97,21.97v0.02l-39.57,39.54l5.51,6.2l4.16,4.65l16.6,18.57l4.14,4.65l16.6,18.59l9.67,10.82l9.67,10.84l6.91,7.74l52.75,-52.75l10.27,-10.24l7.32,-7.35z" />
		<path id="Path 15" class="shp8" d="M256,186.88l-10.84,-9.67l-6.66,-5.95l-4.16,-3.72l-18.59,-16.6l-4.65,-4.14l-18.57,-16.6l-4.65,-4.16l-6.2,-5.51l-21.97,21.97l6.06,5.64l4.58,4.23l4.76,4.4l3.17,2.94l12.41,11.51l8.87,8.23l11.84,10.98v0.02l10.64,9.85l6.37,5.93l3.39,3.14l0.89,0.8l7.59,7.06l5.87,-5.86l10.27,-10.24l7.32,-7.35z" />
		<path id="Path 16" class="shp9" d="M187.89,126.05l-6.2,-5.51l-21.97,21.97v0.02l-39.57,39.54l5.51,6.2l4.16,4.65l62.71,-62.71z" />
		<path id="Path 17" class="shp10" d="M176.83,245.55l68.34,-68.34l-10.84,-9.68l-67.18,67.18z" />
		<path id="Path 18" class="shp9" d="M232.81,204.05c0,3.88 -1.5,7.53 -4.23,10.26l-14.65,14.65c-2.73,2.73 -6.37,4.23 -10.26,4.23c-3.88,0 -7.53,-1.5 -10.26,-4.23l-35.17,-35.17c-2.73,-2.73 -4.23,-6.37 -4.23,-10.26c0,-3.88 1.5,-7.53 4.23,-10.26l14.65,-14.65c2.73,-2.73 6.37,-4.23 10.26,-4.23c3.88,0 7.53,1.5 10.26,4.23l35.17,35.17c2.73,2.73 4.23,6.37 4.23,10.26zM158.16,183.54c0,2.78 1.07,5.38 3.02,7.33l35.17,35.17c1.95,1.95 4.55,3.02 7.33,3.02c2.78,0 5.38,-1.07 7.33,-3.02l14.65,-14.65c1.95,-1.95 3.02,-4.55 3.02,-7.33c0,-2.78 -1.07,-5.38 -3.02,-7.33l-35.17,-35.17c-1.95,-1.95 -4.55,-3.02 -7.33,-3.02c-2.78,0 -5.38,1.07 -7.33,3.02l-14.65,14.65c-1.95,1.95 -3.02,4.55 -3.02,7.33z" />
		<path id="Path 19" class="shp11" d="M211.41,190.45l10.64,9.87l23.11,-23.11l-6.67,-5.95l-4.17,-3.72z" />
		<path id="Path 20" class="shp5" d="M192.67,113.94c-1.77,-1.77 -4.49,-1.99 -6.51,-0.66l-0.09,-0.07l-11.71,11.71l-8.81,8.81l-2.92,2.92l-4.4,4.4l-32.22,32.24l-2.94,2.92l-10.25,10.24l0.07,0.09c-1.33,2.01 -1.11,4.74 0.66,6.51c1.77,1.77 4.49,1.99 6.51,0.66l0.09,0.07l5.51,-5.51l39.9,-39.9l0.22,-0.22l27.62,-27.62l-0.07,-0.09c1.33,-2.01 1.11,-4.74 -0.66,-6.51z" />
		<path id="Path 21" class="shp9" d="M192.67,113.94c-1.77,-1.77 -4.49,-1.99 -6.51,-0.66l-0.09,-0.07l-11.71,11.71l-8.81,8.81l-2.92,2.92l-4.4,4.4l7.33,7.32l0.22,-0.22l27.62,-27.62l-0.07,-0.09c1.33,-2.01 1.11,-4.74 -0.66,-6.51z" />
		<path id="Path 22" class="shp5" d="M270.34,179.88c-1.77,-1.77 -4.51,-1.99 -6.52,-0.66l-0.07,-0.07l-84.98,84.98l0.07,0.08c-1.33,2.01 -1.12,4.75 0.66,6.52c1.77,1.77 4.51,1.99 6.52,0.65l0.07,0.08l84.98,-84.99l-0.07,-0.07c1.33,-2.01 1.11,-4.75 -0.66,-6.52z" />
		<path id="Path 23" class="shp9" d="M270.34,179.88c-1.77,-1.77 -4.51,-1.99 -6.52,-0.66l-0.07,-0.07l-30.77,30.77l7.33,7.32l30.77,-30.77l-0.07,-0.07c1.33,-2.01 1.11,-4.75 -0.66,-6.52z" />
		<path id="Path 24" class="shp3" d="M105.09,152.36l-1.06,-1.06l-2.92,2.94l1.06,1.06l20.91,20.91l2.94,-2.92z" />
		<path id="Path 25" class="shp12" d="M104.03,148.38c-1.61,-1.62 -4.23,-1.62 -5.86,0c-1.62,1.61 -1.62,4.25 0,5.86c1.11,1.08 2.63,1.44 4,1.06c0.69,-0.15 1.33,-0.53 1.86,-1.06c0.53,-0.55 0.88,-1.19 1.06,-1.88c0.38,-1.37 0.02,-2.9 -1.06,-3.98z" />
		<path id="Path 26" class="shp3" d="M127.48,95.62l-2.94,2.94l38.11,38.08l2.92,-2.92zM155.32,100.03l-2.94,2.92l22,21.97l2.92,-2.92z" />
		<path id="Path 27" class="shp10" d="M175.83,173.28l-2.93,2.93c-4.85,4.85 -4.85,12.74 0,17.58l5.86,5.86c4.85,4.85 12.73,4.85 17.58,0l2.93,-2.93c4.85,-4.85 4.85,-12.74 0,-17.58l-5.86,-5.86c-4.85,-4.85 -12.74,-4.85 -17.58,0z" />
		<path id="Path 28" class="shp6" d="M190.48,176.21c-3.22,-3.23 -8.5,-3.23 -11.72,0l-2.93,2.93c-3.23,3.23 -3.23,8.5 0,11.72l5.86,5.86c3.22,3.22 8.5,3.22 11.72,0l2.93,-2.93c3.22,-3.22 3.22,-8.49 0,-11.72z" />
		<path id="Path 29" class="shp3" d="M268.14,204.05l-11.72,11.72l-10.26,-4.39l17.58,-17.58zM241.77,230.42l-11.72,11.72l-10.26,-4.4l17.58,-17.58zM215.39,256.8l-11.72,11.72l-10.26,-4.39l17.58,-17.58z" />
		<path id="Path 30" class="shp4" d="M223.89,239.51l-4.1,-1.76l10.26,-10.26l0,0l3.19,-3.19l4.13,-4.13l0,0l0,0l4.4,10.25l-5.86,5.86l-3.52,-5.28zM197.52,265.89l-4.1,-1.76l14.22,-14.22l3.37,-3.37l0,0l0,0l1.76,4.1l0,0l2.64,6.15l-5.86,5.86l-3.52,-5.27zM250.27,213.14l-4.1,-1.76l17.58,-17.58l0,0l-7.33,7.33l2.34,3.52zM265.5,197.9l0,0l-0.14,-0.33zM263.75,193.79l0,0l1.62,3.78zM262.28,209.91l5.86,-5.86l-2.64,-6.15l-6.74,6.74z" />
	</g>
</svg>