<?xml version="1.0" encoding="utf-8"?><svg xmlns="http://www.w3.org/2000/svg" xmlns:xlink="http://www.w3.org/1999/xlink"><symbol viewBox="0 0 289 492" id="arrow" xmlns="http://www.w3.org/2000/svg"><path d="M281.2 226.8L62.3 7.9C57.2 2.8 50.4 0 43.2 0s-14 2.8-19 7.9L8.1 24c-10.5 10.5-10.5 27.6 0 38L192 245.9 7.9 430C2.8 435 0 441.8 0 449c0 7.2 2.8 14 7.9 19L24 484.1c5.1 5.1 11.8 7.9 19 7.9s14-2.8 19-7.9L281.2 265c5.1-5.1 7.9-11.9 7.8-19.1.1-7.2-2.7-14-7.8-19.1z"/></symbol><symbol viewBox="0 0 512 512" id="candidate" xmlns="http://www.w3.org/2000/svg"><path class="bst0" d="M383.5 370.2L362.2 349l-21.3 21.3 42.6 42.6 63.9-63.9-21.3-21.3-42.6 42.5z"/><path class="bst0" d="M406.4 241.9c2.4-56.8-18.7-111.6-59.4-152.2-79.4-79.4-208-79.5-287.5 0-79.4 79.4-79.5 208 0 287.5 61.5 61.5 151.7 75 226.3 42 20.5 37.3 60.2 62.7 105.7 62.7 66.4 0 120.5-54 120.5-120.5 0-61.4-46.2-112.2-105.6-119.5zM80.9 111c32.7-32.7 76.2-50.7 122.4-50.7 99.8 0 177.9 83.6 173 181.7-42.8 5.4-77.9 33-94.6 69.9-8.4-7.8-17.8-14.2-28-19.1 16.8-14.3 27.4-35.5 27.4-59.2 0-42.9-34.9-77.8-77.8-77.8s-77.8 34.9-77.8 77.8c0 23.7 10.7 45 27.5 59.2-29.6 14.4-52.1 41.1-61 73.3-77.5-65-83.2-183-11.1-255.1zm74.7 122.4c0-26.3 21.4-47.7 47.7-47.7s47.7 21.4 47.7 47.7c0 26.3-21.4 47.7-47.7 47.7s-47.7-21.4-47.7-47.7zm119.2 157.8c-50.3 22.7-108.6 19.6-155.9-6.7 5.9-41.4 41.5-73.3 84.5-73.3 27.4 0 52.7 12.9 68.7 34.8-2 15.2-1 30.7 2.7 45.2zm116.7 60.6c-50.5 0-91.6-41.7-90.3-92.6 1.2-48.1 40.7-87.4 89.2-88h1.2c49.8 0 90.3 40.6 90.3 90.3 0 49.7-40.5 90.3-90.4 90.3z"/></symbol><symbol viewBox="0 0 512 512" id="credit-card" xmlns="http://www.w3.org/2000/svg"><path class="cst0" d="M390 242H240v90h150v-90zm-120 30h30v30h-30v-30zm90 30h-30v-30h30v30zM60 362h60v30H60v-30zm90 0h60v30h-60v-30zm90 0h60v30h-60v-30zm90 0h60v30h-60v-30zM60 422h330v30H60v-30z"/><path class="cst0" d="M512 0H62v182H0v330h450V330h62V0zm-30 30v30H92V30h390zm0 60v30H92V90h390zm-62 392H30V212h390v270zm30-182V182H92v-32h390v150h-32z"/></symbol><symbol viewBox="0 0 512 270" id="eye" xmlns="http://www.w3.org/2000/svg"><path d="M508.2 125C503.6 119.9 393.7 0 256 0S8.4 119.9 3.8 125c-5.1 5.7-5.1 14.3 0 20 4.6 5.1 114.5 125 252.2 125s247.6-119.9 252.2-125c5.1-5.7 5.1-14.3 0-20zM256 240c-57.9 0-105-47.1-105-105S198.1 30 256 30s105 47.1 105 105-47.1 105-105 105z"/><path d="M271 105c0-15.1 7.5-28.4 18.9-36.5-10.2-5.2-21.6-8.5-33.9-8.5-41.4 0-75 33.6-75 75s33.6 75 75 75c37 0 67.7-27 73.7-62.4-30.2 9.8-58.7-13.1-58.7-42.6z"/></symbol><symbol viewBox="0 0 320 511.9" id="fire" xmlns="http://www.w3.org/2000/svg"><path d="M266.7 405.3v64h-85.3v-64h-42.7v64H53.4v-64H10.7v85.3c0 11.8 9.6 21.3 21.3 21.3h256c11.8 0 21.3-9.6 21.3-21.3v-85.3h-42.6zM160 362.7c95.7 0 160-55.7 160-138.7 0-34.6-22.4-92.1-48-123.1-3.2-3.8-8.6-5-13-2.7l-50.1 25.3L170.1 7.3c-1.9-5.6-7.9-8.6-13.5-6.7-2.9 1-5.2 3.1-6.4 5.9L91.1 144.3 48 116.7c-4.8-3-11.1-1.8-14.4 2.8C14.4 146.2 0 196.7 0 224c0 82.9 64.3 138.7 160 138.7zm0-192s64 71.3 64 106.7c0 35.3-28.7 64-64 64s-64-28.7-64-64c0-35.4 64-106.7 64-106.7z"/></symbol><symbol viewBox="0 0 270.4 98.1" id="iconSheer"><path d="M175.1 51.8c.2 1.2.3 2.1.5 3 2 8.4 8.6 14 17.2 14.7 7.6.6 13.6-2.3 18-8.5 2.2-3 5.7-3.5 8.5-1.1 1.6 1.4 1.8 3.2.5 4.9-.7.9-1.4 1.8-2.1 2.8-2.9 4-6.7 6.7-11.4 8.3-7.6 2.6-15.2 3-22.7.2-10.1-3.7-16.1-11.1-17.8-21.7-1-6.5-.4-13 2.6-18.9 4.3-8.4 11.1-13.6 20.5-15.1 6.2-1 12.4-.4 18.2 2.4 8.2 3.9 13.2 10.5 15.1 19.3.5 2.4.7 4.9.9 7.3.2 1.5-.5 2.2-2.1 2.3h-44.1c-.4.1-.9.1-1.8.1zm38.3-9.2c-1.2-7.9-10.7-14.7-19.4-14.2-9.1.5-18.2 7.5-18.5 14.2h37.9zm-101 9c.1.8.2 1.4.3 2 1.7 9.3 9.3 15.7 18.7 15.9 7.1.1 12.7-2.8 16.8-8.6 2.2-3.1 6.1-3.4 8.8-.7 1.3 1.4 1.5 3 .3 4.6-.5.8-1.1 1.5-1.7 2.2-3.1 4.5-7.3 7.4-12.5 9.1-7.6 2.5-15.2 2.7-22.5-.2-10.6-4.1-16.4-12.1-17.6-23.3-.6-5.4-.1-10.7 2.2-15.6 4.3-9.4 11.4-15.2 21.8-16.6 5.5-.7 11-.3 16.1 1.8 9.2 3.8 14.6 10.9 16.6 20.6.4 2.2.6 4.5.7 6.7.1 1.8-.3 2.2-2.2 2.2h-43.5c-.7-.1-1.4-.1-2.3-.1zm38.4-9.1c-1.2-7.8-10.4-14.4-19.4-14.2-8.8.2-17.9 7.2-18.6 14.2h38zm101 13.5c.7.6 1.1 1 1.5 1.4 4.9 4.2 9.8 8.3 14.6 12.5.3.3.7.6 1 .9 1.8 1.8 2 4.4.3 6.2-1.6 1.8-4.2 2.1-6.1.5-3.4-2.8-6.7-5.7-10-8.5-4.8-4.1-9.5-8.1-14.3-12.2-.4-.4-.9-.7-1.6-1.3 0 1-.1 1.6-.1 2.3v36.1c-.2 2.5-2.1 4.3-4.6 4.2-2.4-.1-4.1-1.9-4.2-4.4V21.9c0-1.6.2-1.9 1.7-1.9 2.1-.1 4.2-.1 6.2-.1 5 0 10.1.2 15.1-.1 8.4-.4 17.8 6.4 18.7 16.3.8 8.9-5.2 17.3-14.3 19.1-1.1.2-2.3.5-3.9.8zm-15.3-6.9c.5.1.9.1 1.2.1h12.6c1.2 0 2.4-.1 3.6-.5 3.9-1.2 7-3.5 8-7.7 1.7-7.1-3.6-13.7-10.9-13.7h-13c-.5 0-1 .1-1.5.1v21.7zM88.5 52H63.9c0 .7-.1 1.4-.1 2v18.9c0 .8 0 1.6-.2 2.3-.6 1.9-2.6 3.1-4.5 3-2.1-.2-3.8-1.8-4.1-3.9-.1-.5 0-1 0-1.5V5.4c0-.9.1-1.8.4-2.6.6-2 2.6-3 4.7-2.8 1.9.3 3.5 2 3.7 3.9.1.6 0 1.2 0 1.8v34.7c0 .7.1 1.4.1 2 1.5.4 22.9.4 24.5 0 0-.5.1-1.1.1-1.7V23.9c.2-2.3 1.9-4 4.2-4.1 2.3-.1 4.3 1.6 4.6 3.9.1.5 0 1 0 1.5v48.9c-.3 2.3-2.3 4.1-4.5 4-2.3-.1-4.1-1.9-4.3-4.2V52zM25 78.3c-5.9-.1-11.4-1.4-16.5-4.4-2.2-1.3-4.2-2.9-5.8-4.8-.8-1-1.6-2.1-2.2-3.3-1-1.9-.6-3.4.9-4.9 1.7-1.6 4.1-2.3 6.4-.7C9 61 10 62 10.9 63c.9.9 1.6 1.9 2.5 2.8 2.7 2.7 6 4.2 9.8 4.6 3.5.4 7 .3 10.4-.9 1.4-.5 2.8-1.2 4-2.1 2.9-2.2 3-5.9.2-8.2-1.3-1.1-2.9-1.9-4.5-2.6-4-1.7-8.1-2.9-12.3-4-3.4-.8-6.7-1.9-10.1-2.9-1.3-.4-2.5-1.1-3.7-1.7-3.2-1.7-5-4.4-5.5-7.9-1-7.1 1.7-12.8 8.1-15.9 9.8-4.8 19.7-5.2 29.4.4 1.8 1 3.5 2.5 5.1 3.9 1.2 1 2 2.5 2.5 4 .8 2.6-.5 3.9-2.8 4.4-2 .4-3.8-.2-5.2-1.7-.3-.3-.5-.6-.7-.9-2.3-3.4-5.6-5.3-9.6-6.1-4-.7-8-.6-11.8.9-1.4.5-2.8 1.3-3.9 2.3-2.7 2.3-2.7 5.4-.1 7.8 1.7 1.6 3.7 2.5 5.9 3 4.8 1.2 9.7 2.4 14.5 3.6 3.1.8 6.1 1.8 8.9 3.4 3.6 1.9 6.2 4.7 7.1 8.8 1.1 5 0 9.4-3.9 13-4.4 4-9.5 6.3-15.4 7-1.7.1-3.3.2-4.8.3z"/></symbol><symbol viewBox="0 0 512.01 512.01" id="online-payment" xmlns="http://www.w3.org/2000/svg"><path d="M512.003 435.677V72.666h-115.68V0H115.75v72.666H.006v363.011h181.006v46.333h-30.264v30h210.535v-30H331.02v-46.333zM310.552 254.33c6.396-10.028 10.12-21.917 10.12-34.667 0-35.657-29.009-64.667-64.667-64.667-35.657 0-64.667 29.01-64.667 64.667 0 12.75 3.724 24.639 10.12 34.667H145.75V101.281c36.142-6.428 64.688-35.085 70.958-71.281h78.232c6.293 36.344 35.038 65.09 71.383 71.382V254.33zm-89.214-34.667c0-19.115 15.551-34.667 34.667-34.667 19.115 0 34.667 15.552 34.667 34.667s-15.552 34.667-34.667 34.667-34.667-15.552-34.667-34.667zM366.323 70.68C346.56 65.351 330.971 49.762 325.642 30h40.681zM186.005 30c-5.293 19.613-20.697 35.106-40.255 40.532V30zm-70.255 72.666V254.33H91.66v30h328.688v-30h-24.026V102.666h85.681v247.007H30.006V102.666zM30.006 379.673h451.997v26.004H30.006zM301.02 482.01h-90.008v-46.333h90.008z"/></symbol><symbol viewBox="0 0 277.333 469.333" id="phone" xmlns="http://www.w3.org/2000/svg"><path d="M224 0H53.333C23.893 0 0 23.893 0 53.333V416c0 29.44 23.893 53.333 53.333 53.333H224c29.44 0 53.333-23.893 53.333-53.333V53.333C277.333 23.893 253.44 0 224 0zm-85.333 448c-17.707 0-32-14.293-32-32s14.293-32 32-32 32 14.293 32 32-14.294 32-32 32zm96-85.333h-192V64h192v298.667z"/></symbol><symbol viewBox="0 0 456 434.6" id="shopping-cart" xmlns="http://www.w3.org/2000/svg"><path d="M345.6 328.2c-29.2 0-53.2 23.6-53.2 53.2 0 29.2 23.6 53.2 53.2 53.2 29.2 0 53.2-23.6 53.2-53.2-.5-29.2-24-53.2-53.2-53.2zm93.7-254c-1 0-2.6-.5-4.1-.5H112.6l-5.1-34.3C104.4 16.9 85 0 62 0H20.5C9.2 0 0 9.2 0 20.4s9.2 20.5 20.5 20.5H62c2.6 0 4.6 2 5.1 4.6l31.7 216.1c4.1 27.1 27.6 47.6 55.3 47.6h213c26.6 0 49.7-18.9 55.3-45.1l33.3-166.4c2-10.7-5.1-21.4-16.4-23.5zM215 378.8c-1-28.2-24.6-50.7-52.7-50.7-29.7 1.5-52.2 26.1-51.2 55.3 1 28.2 24.1 50.7 52.2 50.7h1c29.2-1.5 52.3-26.1 50.7-55.3z"/></symbol><symbol viewBox="0 0 460.8 460.8" id="user" xmlns="http://www.w3.org/2000/svg"><path class="jst0" d="M230.4 0c-65.8 0-119.6 53.8-119.6 119.6s53.8 119.6 119.6 119.6S350 185.4 350 119.6 296.3 0 230.4 0zm205.4 334.9c-3.1-7.8-7.3-15.2-12-21.9-24-35.5-61.1-59-102.9-64.8-5.2-.5-11 .5-15.2 3.7-21.9 16.2-48.1 24.6-75.2 24.6s-53.3-8.4-75.2-24.6c-4.2-3.1-9.9-4.7-15.2-3.7-41.8 5.7-79.4 29.3-102.9 64.8-4.7 6.8-8.9 14.6-12 21.9-1.6 3.1-1 6.8.5 9.9 4.2 7.3 9.4 14.6 14.1 20.9 7.3 9.9 15.2 18.8 24 27.2 7.3 7.3 15.7 14.1 24 20.9 41.3 30.8 90.9 47 142.1 47s100.8-16.2 142.1-47c8.4-6.3 16.7-13.6 24-20.9 8.4-8.4 16.7-17.2 24-27.2 5.2-6.8 9.9-13.6 14.1-20.9 2.7-3.1 3.2-6.8 1.7-9.9z"/></symbol></svg>