<?xml version="1.0" encoding="utf-8"?>
<!-- Generator: Adobe Illustrator 22.1.0, SVG Export Plug-In . SVG Version: 6.00 Build 0)  -->
<svg version="1.1" id="Слой_1" xmlns="http://www.w3.org/2000/svg" xmlns:xlink="http://www.w3.org/1999/xlink" x="0px" y="0px"
	 viewBox="0 0 18 10.6" style="enable-background:new 0 0 18 10.6;" xml:space="preserve">
<path d="M9.7,10.3l8-8C17.9,2.1,18,1.8,18,1.6c0-0.3-0.1-0.5-0.3-0.7l-0.6-0.6c-0.4-0.4-1-0.4-1.4,0L9,7L2.3,0.3
	C2.1,0.1,1.8,0,1.6,0C1.3,0,1.1,0.1,0.9,0.3L0.3,0.9C0.1,1.1,0,1.3,0,1.6c0,0.3,0.1,0.5,0.3,0.7l8,8c0.2,0.2,0.4,0.3,0.7,0.3
	C9.3,10.6,9.5,10.5,9.7,10.3L9.7,10.3z"/>
</svg>
