<svg xmlns="http://www.w3.org/2000/svg" viewBox="0 0 512 512"><path d="M345.5 329.2c16-19.7 25.5-44.9 25.5-72.2v-47.3c7.1-2.8 14.2-5.8 21.3-9 5.3-2.5 8.7-7.8 8.7-13.6v-42c0-8.3-6.7-15-15-15h-5.9c-2.6-22.2-11.1-43-24.9-61-14-18.2-32.9-32.3-54.2-40.5V15c0-8.3-6.7-15-15-15h-60c-8.3 0-15 6.7-15 15v13.5c-21.3 8.2-40.2 22.4-54.2 40.5-13.8 18-22.3 38.8-24.9 61H126c-8.3 0-15 6.7-15 15v42c0 5.9 3.4 11.2 8.7 13.6 7.1 3.3 14.2 6.3 21.3 9V257c0 27.3 9.6 52.4 25.5 72.2C93.2 350.6 41 418.2 41 497c0 4 1.6 7.8 4.4 10.6S52 512 56 512h400c8.3 0 15-6.7 15-15 0-78.8-52.2-146.4-125.5-167.8zM211 61.4V75c0 8.3 6.7 15 15 15s15-6.7 15-15V30h30v45c0 8.3 6.7 15 15 15s15-6.7 15-15V61.4c25.8 14 44.1 39.4 48.8 68.6H162.2c4.7-29.2 23-54.6 48.8-68.6zm-70 115.9V160h230v17.3c-77.3 33.2-152.7 33.2-230 0zM71.8 482c4.7-45.8 30.8-85.6 68.6-108.7L183.8 482h-112zm169.2 0h-24.8l-48.7-121.6c8.5-3 17.3-5.2 26.4-6.6 13.9 9 29.9 15 47.1 17.3V482zm-70-225v-37.2c28.3 8.1 56.6 12.1 85 12.1s56.7-4 85-12.1V257c0 46.9-38.1 85-85 85s-85-38.1-85-85zm100 225V371c17.2-2.2 33.1-8.3 47.1-17.3 9.1 1.4 18 3.6 26.4 6.6L295.8 482H271zm57.2 0l43.5-108.7c37.8 23.1 63.9 62.9 68.6 108.7H328.2z" fill="#1f3f69"/></svg>
