<svg version="1.1" id="Capa_1" xmlns="http://www.w3.org/2000/svg" x="0" y="0" viewBox="0 0 512 512" xml:space="preserve"><style>.st0{fill:#fff}</style><circle class="st0" cx="317.8" cy="193.1" r="10.3"/><circle class="st0" cx="317.8" cy="338.4" r="10.3"/><circle class="st0" cx="444.2" cy="193.1" r="10.3"/><circle class="st0" cx="444.2" cy="338.4" r="10.3"/><circle class="st0" cx="193.8" cy="193.1" r="10.3"/><circle class="st0" cx="193.8" cy="338.4" r="10.3"/><circle class="st0" cx="69.7" cy="193.1" r="10.3"/><circle transform="matrix(.03328 -.9994 .9994 .03328 -270.832 396.8)" class="st0" cx="69.7" cy="338.4" r="10.3"/><path class="st0" d="M360.2 109.6L339.7 89c-12-12-31.6-12-43.6 0l-20.6 20.6c-5.8 5.8-9 13.6-9 21.8v30.8h-21.3v-30.8c0-8.2-3.2-16-9-21.8L215.6 89c-12-12-31.6-12-43.6 0l-20.6 20.6c-5.8 5.8-9 13.6-9 21.8v30.8h-21.3v-30.8c0-8.2-3.2-16-9-21.8L91.5 89c-12-12-31.6-12-43.6 0l-20.6 20.6c-5.8 5.8-9 13.6-9 21.8v289.3c0 5.7 4.6 10.3 10.3 10.3H359c5.7 0 10.3-4.6 10.3-10.3V131.4c0-8.2-3.3-16-9.1-21.8zM100.5 410.4H38.8v-279c0-2.7 1.1-5.3 3-7.3l20.6-20.6c4-4 10.5-4 14.5 0l20.6 20.6c1.9 1.9 3 4.5 3 7.3v279zm41.8 0H121v-41.1h21.3v41.1zm0-61.7H121v-20.6h21.3v20.6zm0-41.1H121V224h21.3v83.6zm0-104.2H121v-20.6h21.3v20.6zm82.3 207h-61.7v-279c0-2.7 1.1-5.3 3-7.3l20.6-20.6c4-4 10.5-4 14.5 0l20.6 20.6c1.9 1.9 3 4.5 3 7.3v279zm41.8 0h-21.3v-41.1h21.3v41.1zm0-61.7h-21.3v-20.6h21.3v20.6zm0-41.1h-21.3V224h21.3v83.6zm0-104.2h-21.3v-20.6h21.3v20.6zm82.3 207H287v-279c0-2.7 1.1-5.3 3-7.3l20.6-20.6c4-4 10.5-4 14.5 0l20.6 20.6c1.9 1.9 3 4.5 3 7.3v279z"/><path class="st0" d="M484.3 109.6L463.7 89c-12-12-31.6-12-43.6 0l-20.6 20.6c-5.8 5.8-9 13.6-9 21.8v30.8h-21.3v20.6h21.3v20.6h-21.3V224h21.3v83.6h-21.3v20.6h21.3v20.6h-21.3v20.6h21.3v41.1h-37.7V431H483c5.7 0 10.3-4.6 10.3-10.3V131.4c0-8.2-3.2-16-9-21.8zm-11.5 300.8h-61.7v-279c0-2.7 1.1-5.3 3-7.3l20.6-20.6c4-4 10.5-4 14.5 0l20.6 20.6c1.9 1.9 3 4.5 3 7.3v279z"/></svg>
