<svg version="1.1" id="Layer_1" xmlns="http://www.w3.org/2000/svg" x="0" y="0" viewBox="0 0 512 512" xml:space="preserve"><style>.st0{fill:#263238}</style><path class="st0" d="M421.6 60.1v-15c-2.5-59.9-87.9-59.9-90.4 0v15.1h-30.1V45.1c-2.5-59.9-87.9-59.9-90.4 0v15.1h-30.1V45.1c-2.5-59.9-87.9-59.9-90.4 0v15.1H0V512h512V60.1h-90.4zm60.3 30.1v30.1h-60.2V90.2h60.2zM361.4 45.1c.8-20 29.3-20 30.1 0v15.1h-30.1V45.1zm30.1 45.1v30.1h-90.4V90.2h90.4zM240.9 45.1c.8-20 29.3-20 30.1 0v15.1h-30.1V45.1zm30.2 45.1v30.1h-90.4V90.2h90.4zM120.5 45.1c.8-20 29.3-20 30.1 0v15.1h-30.1V45.1zm30.1 45.1v30.1H30.1V90.2h120.5zM30.1 481.8V150.5h451.8v331.3H30.1z"/><path class="st0" d="M195.8 195.6h256v30.1h-256v-30.1zm0 75.3h195.8V301H195.8v-30.1zm0 75.3h256v30.1h-256v-30.1zm0 75.3h195.8v30.1H195.8v-30.1zm-90.4-202L85.9 200l-21.3 21.3 40.8 40.8 55.8-55.8-21.3-21.3-34.5 34.5zm0 90.4l-19.5-19.5-21.3 21.3 40.8 40.8 55.8-55.8-21.3-21.3-34.5 34.5zm0 90.3l-19.5-19.5L64.6 402l40.8 40.8 55.8-55.8-21.3-21.3-34.5 34.5z"/></svg>