<svg xmlns="http://www.w3.org/2000/svg" viewBox="0 0 440 225.6"><path fill-rule="evenodd" clip-rule="evenodd" d="M243 40.7L265.9 70h56.4L271.2 4.6 243 40.7z"/><path d="M132.6 0H189L56.4 169.5H0L132.6 0zm72.1 0h56.4L128.6 169.5H72.2L204.7 0z" fill-rule="evenodd" clip-rule="evenodd" fill="#ed1c24"/><path d="M426.8 209.3c1.3 0 2.4.2 3.2.5.8.4 1.4.9 1.8 1.5.4.6.6 1.4.6 2.2 0 1.3-.4 2.3-1.3 3.1-.9.7-2.3 1.1-4.3 1.1H422v-8.5h4.8v.1zm0 15.6c2.9 0 5.3-.5 7.2-1.4 1.9-.9 3.4-2.2 4.4-3.9 1-1.7 1.5-3.7 1.5-6 0-2.4-.5-4.4-1.5-6-1-1.7-2.5-2.9-4.4-3.8-2-.9-4.4-1.3-7.2-1.3H422v-9.2c0-.6-.1-.9-.4-1.2-.3-.2-.6-.3-1.1-.3h-5c-.5 0-.8.1-1.1.3-.3.2-.4.6-.4 1.2v30.1c0 .5.1.8.3 1.1.2.3.6.4 1.2.4h11.3zm-44.9-9.7c0 .7-.1 1.2-.3 1.7-.1.5-.4.9-.8 1.2-.4.3-1 .4-1.7.4-.4 0-.7.1-.9.4-.2.2-.2.6-.2 1v3.8c0 .4 0 .7.1.9.1.2.2.4.4.4.2.1.5.1 1 .1 1.9 0 3.5-.1 4.8-.3 1.3-.3 2.3-.8 3-1.5.7-.7 1.3-1.7 1.6-3 .4-1.3.6-3 .7-5l1.1-16.4h8v24.5c0 .6.1 1 .4 1.2.3.2.6.3 1.1.3h5c.5 0 .8-.1 1.1-.3.3-.2.4-.6.4-1.2v-30.1c0-.6-.1-1-.4-1.2-.3-.2-.6-.3-1.1-.3h-20c-.5 0-.8.1-1.1.3-.3.2-.4.6-.4 1.2l-1.8 21.9zm-25.1-2.8l3.8-11.1 3.8 11.1h-7.6zm19.3 11.1l-11.1-30c-.2-.5-.5-.9-.8-1.2-.3-.3-.7-.4-1.3-.4h-4.8c-.5 0-1 .1-1.3.4-.3.3-.6.6-.8 1.2l-11.1 30c-.1.2-.1.4-.1.6 0 .2.1.4.2.5.2.2.4.2.8.2h5.3c.4 0 .7 0 .9-.1.2-.1.4-.2.6-.5.2-.2.3-.5.4-.9l1.4-4h12.3l1.4 4c.1.4.3.7.4.9.2.2.4.4.6.5.2.1.5.1.9.1h5.3c.4 0 .6-.1.8-.2.2-.1.2-.3.2-.5s-.1-.4-.2-.6zm-34.8-31.6H318c-.6 0-1 .1-1.2.4-.2.3-.3.6-.3 1.1v4.2c0 .5.1.8.3 1.1.2.3.6.4 1.2.4h7.7v24.5c0 .6.1 1 .4 1.2.3.2.6.3 1.1.3h5c.5 0 .8-.1 1.1-.3.3-.2.4-.6.4-1.2v-24.5h7.7c.6 0 1-.1 1.2-.4.2-.3.3-.6.3-1.1v-4.2c0-.5-.1-.8-.3-1.1-.4-.3-.8-.4-1.3-.4zm-28.6 23.2c0-.6-.1-1-.3-1.3-.2-.3-.6-.4-1.2-.4h-4.9c-.4 0-.6.1-.8.2-.2.2-.3.4-.4.7-.1.3-.1.6-.2.9-.1.8-.5 1.5-.9 2-.5.5-1.1.9-1.8 1.1-.7.2-1.6.4-2.5.4-1.1 0-2.1-.2-2.9-.6-.8-.4-1.5-1-1.9-1.7-.5-.7-.7-1.7-.7-2.7v-10.4c0-1.1.2-2 .7-2.7.5-.7 1.1-1.3 1.9-1.7.8-.4 1.8-.6 2.9-.6.9 0 1.7.1 2.3.3.6.2 1.2.4 1.7.8s.9.8 1.2 1.4c.1.2.2.4.3.7.1.2.2.4.4.6.2.2.4.3.8.3h4.8c.4 0 .7 0 .9-.1.2-.1.4-.2.5-.4.1-.2.2-.5.2-.9-.1-1.3-.5-2.4-1-3.4s-1.2-1.9-2.1-2.7c-.8-.8-1.8-1.4-2.9-1.9-1.1-.5-2.2-.9-3.4-1.1-1.2-.3-2.4-.4-3.7-.4-1.2 0-2.4.1-3.7.4-1.3.3-2.5.7-3.6 1.3-1.2.6-2.2 1.3-3.1 2.2-.9.9-1.6 2-2.2 3.2-.5 1.2-.8 2.6-.8 4.2v11.8c0 1.6.3 3 .8 4.2.5 1.2 1.3 2.3 2.2 3.2.9.9 2 1.6 3.1 2.2 1.2.6 2.4 1 3.6 1.3 1.3.3 2.5.4 3.7.4 1.3 0 2.5-.2 3.7-.5 1.2-.3 2.4-.8 3.5-1.4 1.1-.6 2.1-1.3 3-2.2.9-.9 1.5-1.8 2-2.9.5-1.3.8-2.5.8-3.8zm-60.1-7.8c0-1.6.4-2.9 1.3-3.7.9-.9 2.1-1.3 3.8-1.3h2v12.2h-2c-1.7 0-2.9-.4-3.8-1.2-.9-.8-1.3-2-1.3-3.6v-2.4zm14.6 7.1v-12.2h2c1.7 0 2.9.5 3.8 1.3.9.9 1.3 2.1 1.3 3.7v2.3c0 1.6-.4 2.8-1.3 3.6-.9.8-2.1 1.2-3.8 1.2h-2v.1zm.2 6.6h1.8c1.2 0 2.4-.1 3.6-.3 1.2-.2 2.4-.5 3.5-1s2.1-1.1 3-2c.9-.9 1.5-1.9 2-3.3.5-1.3.8-2.9.8-4.8v-2.3c0-1.9-.3-3.6-.8-4.9-.5-1.4-1.2-2.5-2-3.3-.9-.9-1.9-1.6-3-2-1.1-.5-2.3-.8-3.5-1-1.2-.2-2.4-.3-3.6-.3h-1.8v-2.5c0-.3 0-.5-.1-.7-.1-.2-.2-.4-.5-.6-.2-.2-.5-.2-.9-.2h-5c-.5 0-.8.1-1.1.3-.3.2-.4.6-.4 1.2v2.6h-1.8c-1.2 0-2.4.1-3.6.3-1.2.2-2.4.5-3.5 1s-2.1 1.2-3 2c-.9.9-1.5 2-2 3.3-.5 1.4-.8 3-.8 4.9v2.3c0 1.9.3 3.5.8 4.8.5 1.3 1.2 2.4 2 3.3.9.9 1.9 1.5 3 2s2.3.8 3.5 1c1.2.2 2.4.3 3.6.3h1.8v2.6c0 .6.1 1 .4 1.2.3.2.6.3 1.1.3h5c.5 0 .8-.1 1.1-.3.3-.2.4-.6.4-1.2V221zm-34.8-7.4c0 1.1-.3 2-.7 2.7-.5.8-1.1 1.3-2 1.7-.8.4-1.8.6-2.9.6-1.1 0-2.1-.2-2.9-.6-.8-.4-1.5-1-2-1.7-.5-.8-.7-1.7-.7-2.7v-10.4c0-1.1.3-2 .7-2.7.5-.8 1.1-1.3 2-1.7.8-.4 1.8-.6 2.9-.6 1.1 0 2.1.2 2.9.6.8.4 1.5 1 2 1.7.5.8.7 1.7.7 2.7v10.4zm7.9-11.2c0-1.6-.3-3-.8-4.2-.5-1.2-1.3-2.3-2.2-3.2-.9-.9-2-1.6-3.1-2.2-1.2-.6-2.4-1-3.6-1.3-1.3-.3-2.5-.4-3.7-.4-1.2 0-2.4.1-3.7.4-1.2.3-2.4.7-3.6 1.3-1.2.6-2.2 1.3-3.1 2.2-.9.9-1.6 2-2.2 3.2-.5 1.2-.8 2.6-.8 4.2v11.8c0 1.6.3 3 .8 4.2.5 1.2 1.3 2.3 2.2 3.2.9.9 2 1.6 3.1 2.2 1.2.6 2.4 1 3.6 1.3 1.3.3 2.5.4 3.7.4 1.2 0 2.4-.1 3.7-.4 1.3-.3 2.5-.7 3.6-1.3 1.2-.6 2.2-1.3 3.1-2.2.9-.9 1.7-2 2.2-3.2.5-1.2.8-2.6.8-4.2v-11.8zm-44.7 5.9H191v-9.4h4.8c1.3 0 2.4.2 3.2.6.8.4 1.4 1 1.8 1.7.4.7.6 1.5.6 2.4 0 .8-.2 1.6-.6 2.3-.4.7-1 1.3-1.8 1.7-.9.5-1.9.7-3.2.7zm0-16.4h-11.3c-.6 0-1 .1-1.2.4-.2.3-.3.6-.3 1.1v30.1c0 .6.1 1 .4 1.2.3.2.6.3 1.1.3h5c.5 0 .8-.1 1.1-.3.3-.2.4-.6.4-1.2v-8.3h4.8c2.9 0 5.3-.5 7.2-1.5s3.4-2.3 4.4-4c1-1.7 1.5-3.8 1.5-6.1 0-1.7-.3-3.3-.8-4.7-.6-1.4-1.4-2.7-2.5-3.7s-2.5-1.8-4.1-2.4c-1.6-.6-3.5-.9-5.7-.9zm-21.6 0h-24c-.5 0-.8.1-1.1.3-.3.2-.4.6-.4 1.2v30.1c0 .6.1 1 .4 1.2.3.2.6.3 1.1.3h5c.5 0 .8-.1 1.1-.3.2-.2.4-.6.4-1.2V199h11.2v24.5c0 .6.1 1 .4 1.2.3.2.6.3 1.1.3h5c.5 0 .8-.1 1.1-.3.3-.2.4-.6.4-1.2v-30.1c0-.6-.1-1-.4-1.2-.5-.3-.8-.3-1.3-.3zm-34.4 0H135c-.5 0-1 .1-1.2.3-.3.2-.5.4-.6.7-.1.3-.3.5-.4.7l-6.9 12.3-6.9-12.3c-.1-.2-.3-.5-.4-.7-.1-.3-.4-.5-.6-.7-.3-.2-.7-.3-1.3-.3h-5c-.6 0-1 .1-1.2.4-.2.3-.3.6-.3 1.1v30.1c0 .6.1 1 .4 1.2.3.2.6.3 1.1.3h5c.5 0 .8-.1 1.1-.3.3-.2.4-.6.4-1.2v-17l5.1 8.8c.1.1.2.3.3.5.1.2.3.3.5.4.2.1.4.2.6.2h2.5c.3 0 .5-.1.7-.2.2-.1.3-.3.5-.4.1-.2.2-.3.3-.5l5-8.8v17c0 .6.1 1 .4 1.2.3.2.6.3 1.1.3h4.8c.5 0 .8-.1 1.1-.3.3-.2.4-.6.4-1.2v-30.1c0-.5-.1-.8-.3-1.1-.4-.3-.8-.4-1.4-.4zm-37 1.4c0-.6-.1-.9-.4-1.2-.3-.2-.6-.3-1.1-.3h-5c-.5 0-.8.1-1.1.3-.3.2-.4.6-.4 1.2v30.1c0 .6.1 1 .4 1.2.3.2.6.3 1.1.3h5c.5 0 .8-.1 1.1-.3.3-.2.4-.6.4-1.2v-30.1zm-25.8 16c1.3 0 2.4.2 3.2.5.8.4 1.4.9 1.8 1.5.4.6.6 1.4.6 2.2 0 1.3-.4 2.3-1.3 3.1-.9.7-2.3 1.1-4.3 1.1h-4.8v-8.5H77v.1zm0 15.6c2.9 0 5.3-.5 7.2-1.4 1.9-.9 3.4-2.2 4.4-3.9 1-1.7 1.5-3.7 1.5-6 0-2.4-.5-4.4-1.5-6-1-1.7-2.5-2.9-4.4-3.8-2-.9-4.4-1.3-7.2-1.3h-4.8v-9.2c0-.6-.1-.9-.4-1.2-.3-.2-.6-.3-1.1-.3h-5c-.5 0-.8.1-1.1.3-.3.2-.4.6-.4 1.2v30.1c0 .5.1.8.3 1.1.2.3.6.4 1.2.4H77zm-31.5-16.6h-4.8v-9.4h4.8c1.3 0 2.4.2 3.2.6.8.4 1.4 1 1.8 1.7.4.7.6 1.5.6 2.4 0 .8-.2 1.6-.6 2.3-.4.7-1 1.3-1.8 1.7-.8.5-1.9.7-3.2.7zm0-16.4H34.3c-.6 0-1 .1-1.2.4-.2.3-.3.6-.3 1.1v30.1c0 .6.1 1 .4 1.2.3.2.6.3 1.1.3h5c.5 0 .8-.1 1.1-.3.3-.2.4-.6.4-1.2v-8.3h4.8c2.9 0 5.3-.5 7.2-1.5 2-1 3.4-2.3 4.4-4 1-1.7 1.5-3.8 1.5-6.1 0-1.7-.3-3.3-.8-4.7-.6-1.4-1.4-2.7-2.5-3.7s-2.5-1.8-4.1-2.4c-1.7-.6-3.6-.9-5.8-.9zm-18 0h-6.8c-.4 0-.7 0-.9.1-.3.1-.5.2-.7.3-.2.2-.5.4-.8.8L7.8 204.5v-11.2c0-.6-.1-1-.4-1.2-.3-.2-.6-.3-1-.3h-5c-.5 0-.8.1-1.1.3-.2.2-.4.6-.4 1.2v30.1c0 .6.1 1 .4 1.2.3.2.6.3 1.1.3h5c.4 0 .8-.1 1-.3.3-.2.4-.6.4-1.2v-8.9l3.1-3.3c.5.8.9 1.6 1.5 2.5.5.9 1.1 1.8 1.6 2.7.5.9 1.1 1.8 1.5 2.6.5.8.9 1.6 1.3 2.2.4.6.7 1.2.9 1.5l.3.6c.3.5.7.9 1 1.2.4.3.9.4 1.5.4h6.1c.3 0 .6-.1.7-.3.2-.2.2-.4.2-.6 0-.2-.1-.5-.2-.7l-10.8-17.8L28 193.3c.2-.2.3-.4.3-.6 0-.2 0-.4-.1-.6-.2-.1-.4-.2-.7-.2zM275.4 89.1h-16.6c-.9 0-1.7 0-2.3.2-.6.1-1.2.4-1.8.8-.6.4-1.2 1.1-2 2l-25.4 28V92.7c0-1.4-.3-2.3-.9-2.8-.6-.5-1.4-.7-2.5-.7h-12.2c-1.2 0-2 .2-2.7.7-.6.5-.9 1.5-.9 2.8v73.7c0 1.4.3 2.3.9 2.8.6.5 1.5.7 2.7.7h12.2c1.1 0 1.9-.2 2.5-.7.6-.5.9-1.5.9-2.8v-21.9l7.6-8c1.1 1.9 2.3 3.9 3.6 6 1.3 2.1 2.6 4.3 3.9 6.5 1.3 2.2 2.6 4.3 3.8 6.3 1.2 2 2.3 3.8 3.2 5.4.9 1.6 1.7 2.8 2.2 3.8.6.9.8 1.4.8 1.4.8 1.3 1.6 2.3 2.6 2.9.9.7 2.1 1 3.6 1h15c.8 0 1.4-.2 1.7-.7.4-.4.6-.9.6-1.5s-.1-1.2-.5-1.7L249 122.5l27.6-30c.4-.4.6-.9.7-1.4.1-.5 0-1-.3-1.4-.3-.3-.8-.5-1.6-.6zm77.1 0h-58.8c-1.1 0-2 .2-2.6.7-.6.5-.9 1.5-1 2.8v73.7c0 1.4.3 2.3 1 2.8.6.5 1.5.7 2.6.7h12.2c1.2 0 2-.2 2.7-.7.6-.5.9-1.5.9-2.8v-60h27.4v60c0 1.4.3 2.3 1 2.8.6.5 1.5.7 2.6.7h12.2c1.1 0 2-.2 2.6-.7.6-.5.9-1.5.9-2.8V92.7c0-1.4-.3-2.3-.9-2.8-.8-.6-1.7-.8-2.8-.8zm83 56.9c0-1.5-.3-2.5-.8-3.2-.6-.7-1.5-1-2.8-1h-12c-.9 0-1.5.2-2 .6-.4.4-.7.9-.9 1.6-.2.7-.3 1.4-.4 2.2-.3 2-1.1 3.6-2.3 4.8-1.2 1.2-2.7 2.1-4.5 2.7-1.8.6-3.8.9-6.1.9-2.7 0-5.1-.5-7.1-1.4-2-1-3.6-2.4-4.7-4.2-1.1-1.8-1.7-4.1-1.7-6.7v-25.5c0-2.6.6-4.8 1.7-6.6 1.1-1.8 2.7-3.2 4.7-4.2s4.4-1.5 7.1-1.5c2.2 0 4.1.2 5.6.6 1.6.4 2.9 1.1 4.1 1.9 1.1.9 2.1 2 2.9 3.3.3.5.6 1.1.8 1.6.2.6.6 1.1 1 1.5.4.4 1 .6 1.9.7h11.8c.9 0 1.7-.1 2.3-.3.6-.2.9-.6 1.2-1.1.2-.5.4-1.3.4-2.2-.3-3.1-1.2-5.9-2.5-8.4s-3-4.7-5.1-6.5c-2.1-1.9-4.4-3.4-7-4.6-2.6-1.2-5.4-2.2-8.4-2.8-2.9-.6-5.9-.9-9-.9-3 0-6 .3-9 1-3.1.7-6 1.7-8.9 3.2-2.8 1.4-5.4 3.2-7.7 5.4s-4 4.8-5.3 7.8c-1.3 3-2 6.4-2 10.3v29c0 3.8.7 7.3 2 10.3 1.3 3 3.1 5.6 5.3 7.8 2.3 2.2 4.8 4 7.7 5.4 2.8 1.4 5.8 2.5 8.9 3.2 3.1.7 6.1 1 9 1 3.1 0 6.1-.4 9.2-1.2 3-.8 5.9-1.9 8.7-3.4 2.7-1.5 5.1-3.2 7.2-5.3 2.1-2.1 3.8-4.5 5-7.2 1-2.5 1.6-5.5 1.7-8.6z"/></svg>