<svg xmlns="http://www.w3.org/2000/svg" viewBox="0 0 512 512"><path d="M512 388.8v-.7c0-.2 0-.3-.1-.5v-.2c0-.2-.1-.5-.1-.7L437 88.1c-1.2-4.8-5.4-8.1-10.3-8.1H85.3c-4.9 0-9.2 3.3-10.3 8.1L.3 386.7c-.1.2-.1.5-.1.7v.3c0 .1 0 .3-.1.4v33.2c0 3.5 1.7 6.7 4.5 8.7 2.8 2 6.4 2.5 9.7 1.4l57.6-20.1 58.1 20.1c2.3.8 4.7.8 7 0l57.8-20.1 57.8 20.1c2.3.8 4.7.8 7 0l57.8-20.1 57.8 20.1c2.3.8 4.8.8 7 0l57.8-20.1 57.8 20.1c1.1.4 2.3.6 3.5.6 2.2 0 4.4-.7 6.2-2 2.8-2 4.5-5.3 4.5-8.7v-32.5zm-25.8-16l-42.7-14.9c-2.3-.8-4.7-.8-7 0l-48.9 17-10.6-85 43.6-15.1 45.1 15.9 20.5 82.1zm-44.5-177.9l17.8 71.1-35.3-12.5c-2.3-.8-4.8-.8-7 0l-42.8 14.8-9.3-74.4 36.5-12.8 40.1 13.8zm-23.4-93.6l17.2 68.9-30.5-10.5c-2.3-.8-4.7-.8-7 0l-35.7 12.5-8.9-70.9h64.9zm-151.6 0H332l8.7 69.7-32.7-11.3c-2.3-.8-4.7-.8-7 0l-34.3 11.9v-70.3zm0 92.9l37.8-13.2 39.1 13.5 9 72.3-38.2-13.4c-2.3-.8-4.8-.8-7 0l-40.7 14.2v-73.4zm0 96l44.2-15.4 44.7 15.6 10.4 83.1-45.1-15.7c-2.3-.8-4.8-.8-7 0l-47.2 16.4v-84zm-86.6-188.9h65.3v70.3L211 159.7c-2.3-.8-4.7-.8-7 0L171.4 171l8.7-69.7zm65.2 188.9v84.1l-47.2-16.4c-2.3-.8-4.7-.8-7 0L146 373.6l10.4-83.1 44.7-15.7 44.2 15.4zm-76.9-95.6l39.1-13.5 37.8 13.2v73.4l-40.7-14.2c-2.3-.8-4.8-.8-7 0l-38.2 13.4 9-72.3zm-74.7-93.3h64.9l-8.9 70.9-35.7-12.5c-2.3-.8-4.7-.8-7 0l-30.6 10.5 17.3-68.9zm-23.4 93.6l40.2-13.8 36.5 12.8-9.3 74.4-42.9-14.8c-2.3-.8-4.8-.8-7 0L52.5 266l17.8-71.1zm-24 95.9l45.1-15.9 43.6 15-10.6 85-49.1-17c-1.1-.4-2.3-.6-3.5-.6-1.2 0-2.4.2-3.5.6l-42.4 14.8 20.4-81.9zm444.4 115.5l-47.2-16.4c-2.3-.8-4.7-.8-7 0L378.7 410l-57.8-20.1c-2.3-.8-4.8-.8-7 0L256 410l-57.8-20.1c-2.3-.8-4.7-.8-7 0L133.3 410l-58.1-20.1c-1.1-.4-2.3-.6-3.5-.6-1.2 0-2.4.2-3.5.6l-46.9 16.4v-9.4l50.4-17.6 58.1 20.1c.1 0 .2.1.3.1.2.1.4.1.6.2.1 0 .3.1.4.1.2 0 .4.1.6.1h2.4c.2 0 .4 0 .6-.1h.3c.2 0 .4-.1.6-.1.1 0 .2 0 .3-.1.2 0 .3-.1.5-.2.1 0 .2 0 .3-.1l57.8-20.1 57.8 20.1h.1c.1 0 .3.1.5.1s.3.1.5.1.3.1.4.1c.2 0 .4.1.6.1h2.8c.2 0 .4-.1.6-.1.1 0 .3-.1.5-.1s.3-.1.5-.1.3-.1.5-.1h.1l57.8-20.1 57.8 20.1c.1 0 .2 0 .3.1.2 0 .3.1.5.2.1 0 .2 0 .3.1.2 0 .4.1.6.1h.3c.2 0 .4 0 .6.1h2.4c.2 0 .5-.1.7-.1.1 0 .2 0 .4-.1.2 0 .4-.1.6-.2.1 0 .2-.1.3-.1l57.8-20.1 50.7 17.6.2 9.4z" fill="#fff"/></svg>
