<svg version="1.1" id="Layer_1" xmlns="http://www.w3.org/2000/svg" x="0" y="0" viewBox="0 0 512 512" xml:space="preserve"><style>.st0{fill:#263238}</style><path class="st0" d="M481.9 361.4V60.2H30.1v301.2H0v15.1c0 41.5 33.8 75.3 75.3 75.3h361.4c41.5 0 75.3-33.8 75.3-75.3v-15.1h-30.1zM60.2 90.4h391.5v271.1h-60.2V356c0-38.5-31.3-69.8-69.8-69.8H190.2c-38.5 0-69.8 31.3-69.8 69.8v5.5H60.2V90.4zm116.6 228.2l42.8 42.8h-69.1v-5.5c.1-17.2 11-31.8 26.3-37.3zm40.3-2.4H295l-39 39-38.9-39zm118.1 2.4c15.3 5.5 26.2 20.2 26.2 37.3v5.5h-69.1l42.9-42.8zm101.5 103H75.3c-19.6 0-36.4-12.6-42.6-30.1h446.6c-6.2 17.6-23 30.1-42.6 30.1z"/><path class="st0" d="M331.3 210.8v-60.2h30.1v-30.1H150.6v30.1h30.1v60.2c0 41.5 33.8 75.3 75.3 75.3s75.3-33.8 75.3-75.3zm-30.1-60.2v30.1h-90.4v-30.1h90.4zM256 256c-24.9 0-45.2-20.3-45.2-45.2h90.4c0 24.9-20.3 45.2-45.2 45.2z"/></svg>