<svg xmlns="http://www.w3.org/2000/svg" viewBox="0 0 512 512"><path d="M166 479.9c36.7 0 49.7 29.9 52 32.1h76c2.2-2.2 15.3-32.1 52-32.1s49.7 29.9 52 32.1h83V30h-67.5C397.6 10.6 373.9 0 346 0s-51.6 10.6-67.5 30h-44.9c-16-19.4-39.7-30-67.6-30s-51.6 10.6-67.5 30H31v482h83c2.2-2.2 15.4-32.1 52-32.1zM421 211h30v120h-30V211zm-30 100.4c-13.4-8.1-28.9-12.5-45-12.5s-31.6 4.4-45 12.5V200.8c10.9-14 27-22 45-22s34.1 8 45 22v110.6zM271 331h-30V211h30v120zm-30 30h30v121h-30V361zm30-180h-30V60h30v121zm-60 130.4c-13.4-8.1-28.9-12.5-45-12.5s-31.6 4.4-45 12.5V200.8c10.9-14 27-22 45-22s34.1 8 45 22v110.6zm-45 138.5c-16.1 0-31.6 4.4-45 12.5V350.8c10.9-14 27-22 45-22s34.1 8 45 22v111.5c-13.4-8-28.9-12.4-45-12.4zm180 0c-16.1 0-31.6 4.4-45 12.5V350.8c10.9-14 27-22 45-22s34.1 8 45 22v111.5c-13.4-8-28.9-12.4-45-12.4zM451 482h-30V361h30v121zm0-422v121h-30V60h30zM346 30c11.2 0 31.4 2.7 45 19.9v111.5c-13.4-8.1-28.9-12.5-45-12.5s-31.6 4.4-45 12.5V49.9C314.6 32.7 334.8 30 346 30zm-180 0c11.2 0 31.4 2.7 45 19.9v111.5c-13.4-8.1-28.9-12.5-45-12.5s-31.6 4.4-45 12.5V49.9C134.6 32.7 154.8 30 166 30zM61 60h30v121H61V60zm30 151v120H61V211h30zM61 361h30v121H61V361z" fill="#263238"/></svg>