<svg version="1.1" id="Capa_1" xmlns="http://www.w3.org/2000/svg" x="0" y="0" viewBox="0 0 450 512" xml:space="preserve"><style>.st0{fill:#263238}</style><path class="st0" d="M84 259.4L222.8 85.9l23.4 18.7-138.8 173.5L84 259.4zM225 212c-24.8 0-45 20.2-45 45s20.2 45 45 45 45-20.2 45-45-20.2-45-45-45zm0 60c-8.3 0-15-6.7-15-15s6.7-15 15-15 15 6.7 15 15-6.7 15-15 15zM105 152c24.8 0 45-20.2 45-45s-20.2-45-45-45-45 20.2-45 45 20.2 45 45 45zm0-60c8.3 0 15 6.7 15 15s-6.7 15-15 15-15-6.7-15-15 6.7-15 15-15z"/><path class="st0" d="M330 272V0H0v437c0 41.4 33.6 75 75 75h300c41.4 0 75-33.6 75-75V272H330zM75 482c-24.8 0-45-20.2-45-45V30h270v407c0 16.1 6.2 33.4 15 45H75zm345-45c0 24.8-20.2 45-45 45s-45-20.2-45-45V302h90v135z"/><path class="st0" d="M60 362h210v30H60v-30zm0 60h210v30H60v-30z"/></svg>