<svg xmlns="http://www.w3.org/2000/svg" viewBox="0 0 512 512"><path d="M406.3 275H431c24.8 0 45-20.2 45-45v-22c0-24.8-20.2-45-45-45h-15v-3C416 71.8 344.2 0 256 0S96 71.8 96 160v3H81c-24.8 0-45 20.2-45 45v22c0 24.8 20.2 45 45 45h16v90c0 1.9.1 3.8.2 5.7C63.4 393.1 41 431.5 41 475v37h430v-37c0-67.9-54.4-123.3-121.9-125 25.9-18.5 46-44.6 57.2-75zm9.7-52v-30h15c8.3 0 15 6.7 15 15v22c0 8.3-6.7 15-15 15h-17c1.2-7.2 1.8-14.5 2-22zM256 30c56.9 0 105.3 36.7 122.9 87.7C349.6 82.5 305.4 60 256 60s-93.6 22.5-122.9 57.7c17.6-51 66-87.7 122.9-87.7zm0 60c67.1 0 122.5 51.1 129.3 116.4-24.7-1-48.3-8.8-68.6-22.8-21.3-14.6-37.6-35-47.2-58.9l-13.9-34.5-13.9 34.5c-9.6 23.9-25.9 44.2-47.2 58.9-20.1 13.8-43.3 21.6-67.6 22.7C133.6 141.1 188.9 90 256 90zm-42.4 320H172c-17.2 0-32.1-9.7-39.7-23.8 10.5-4 21.8-6.2 33.7-6.2h47.6c-1.7 4.7-2.6 9.7-2.6 15s.9 10.3 2.6 15zM127 356.2v-41.7c10 13.6 22.1 25.6 35.9 35.5-12.5.3-24.6 2.5-35.9 6.2zM81 245c-8.3 0-15-6.7-15-15v-22c0-8.3 6.7-15 15-15h15v30c.1 7.5.8 14.8 1.9 22H81zm360 230v7H71v-7c0-29.8 13.8-56.4 35.3-73.8 12.8 23.1 37.4 38.8 65.7 38.8h84c24.8 0 45-20.2 45-45 0-5.3-.9-10.3-2.6-15H346c52.4 0 95 42.6 95 95zm-200-80c0-8.3 6.7-15 15-15s15 6.7 15 15-6.7 15-15 15-15-6.7-15-15zm15-45c-66.1 0-120.9-49.6-129-113.6 30.3-1.2 59.3-10.8 84.3-28 17.7-12.2 32.7-27.6 44.1-45.5 11.5 17.8 26.4 33.3 44.1 45.5 25.3 17.4 54.7 27 85.3 28.1C376.9 300.4 322.1 350 256 350z" fill="#263238"/></svg>