<svg xmlns="http://www.w3.org/2000/svg" viewBox="0 0 512 512"><path d="M467 276h-15v-86h-32l10.3-10.3c8.5-8.5 13.2-19.8 13.2-31.8s-4.7-23.3-13.2-31.8l-74.9-74.9c-17.5-17.5-46.1-17.5-63.6 0L270.9 62V30.1h-60V.1H15v201.4C5.8 209.8 0 221.7 0 235v231.9c0 24.8 20.2 45 45 45h407v-86h15c24.8 0 45-20.2 45-45v-60c0-24.7-20.2-44.9-45-44.9zm-45 0H316l-30.3 42.2 29.7 47.8H422v56H45c-5.3 0-10.3.9-15 2.6V235c0-8.3 6.7-15 15-15h377v56zm-245.5-86H49.4c-2.9-7.5-4.4-15.6-4.4-24.1 0-37.5 30.5-68 68-68s68 30.5 68 68c0 8.5-1.6 16.6-4.5 24.1zm232.6-31.5L377.6 190h-42.4l63.3-63.3 10.6 10.6c5.9 5.9 5.9 15.4 0 21.2zM313 62.4c5.8-5.8 15.4-5.8 21.2 0l43.1 43.1-84.5 84.5H271v-85.6l42-42zm-72.1-2.3v130h-30v-130h30zm-59.9-30v65.4c-17.6-17-41.6-27.5-68-27.5S62.6 78.4 45 95.4V30.1h136zM45 481.9c-8.3 0-15-6.7-15-15s6.7-15 15-15h377v30H45zM467 396h-15v-30h15c8.3 0 15 6.7 15 15 0 8.2-6.7 15-15 15zm15-57.5c-4.7-1.7-9.7-2.6-15-2.6H332l-10.3-16.6 9.7-13.4H467c8.3 0 15 6.7 15 15v17.6z" fill="#263238"/></svg>