<svg version="1.1" id="Capa_1" xmlns="http://www.w3.org/2000/svg" x="0" y="0" viewBox="0 0 512 512" xml:space="preserve"><style>.st0{fill:#263238}</style><path class="st0" d="M437 422h-15v-50.3c0-17.9 4.7-37 14.3-58.2 3.8-8.4 5.7-17.3 5.7-26.5 0-30.7-21.4-56.4-50-63.2V75c0-41.4-33.6-75-75-75H15C6.7 0 0 6.7 0 15v482c0 8.3 6.7 15 15 15h482c8.3 0 15-6.7 15-15 0-41.4-33.6-75-75-75zm-60-170c19.3 0 35 15.7 35 35 0 4.9-1 9.7-3 14.1-9.8 21.6-15.2 41.6-16.6 60.9h-30.7c-1.4-19.3-6.8-39.3-16.6-60.9-2-4.4-3-9.2-3-14.1-.1-19.3 15.6-35 34.9-35zm15 140v30h-30v-30h30zM332 32.6c12.8 4.5 22.9 14.7 27.4 27.4H332V32.6zM243.5 482H30V30h272v45c0 8.3 6.7 15 15 15h45v133.8c-28.6 6.8-50 32.6-50 63.2 0 9.2 1.9 18.1 5.7 26.5 9.6 21.3 14.3 40.3 14.3 58.2V422h-15c-36.2 0-66.5 25.8-73.5 60zm31.1 0c6.2-17.5 22.9-30 42.4-30h120c19.6 0 36.2 12.5 42.4 30H274.6z"/><path class="st0" d="M75 151h242c8.3 0 15-6.7 15-15s-6.7-15-15-15H75c-8.3 0-15 6.7-15 15s6.7 15 15 15zm0 60h242c8.3 0 15-6.7 15-15s-6.7-15-15-15H75c-8.3 0-15 6.7-15 15s6.7 15 15 15zm202 30H75c-8.3 0-15 6.7-15 15s6.7 15 15 15h202c8.3 0 15-6.7 15-15s-6.7-15-15-15zm-142 60c-41.4 0-75 33.6-75 75s33.6 75 75 75 75-33.6 75-75-33.6-75-75-75zm0 120c-24.8 0-45-20.2-45-45s20.2-45 45-45 45 20.2 45 45-20.2 45-45 45z"/><circle class="st0" cx="135" cy="376" r="15"/></svg>