<svg version="1.1" id="Capa_1" xmlns="http://www.w3.org/2000/svg" x="0" y="0" viewBox="0 0 512 512" xml:space="preserve"><style>.st0{fill:#263238}</style><path class="st0" d="M128.9 212.4c-1.8 5.4-.3 11.3 3.7 15.3l50.4 49.7-11.6 69.8c-.9 5.6 1.4 11.3 6 14.6s10.7 3.8 15.7 1.2l62.8-32.6 62.8 32.6c2.2 1.1 4.5 1.7 6.9 1.7 3.1 0 6.2-1 8.8-2.9 4.6-3.3 6.9-9 6-14.6l-11.6-69.8 50.4-49.7c4-4 5.5-9.9 3.7-15.3-1.8-5.4-6.4-9.4-12-10.2l-70-10.5-31.7-63.3c-2.5-5.1-7.7-8.3-13.4-8.3s-10.9 3.2-13.4 8.3l-31.7 63.3-70 10.5c-5.4.8-10 4.8-11.8 10.2zm94.2 7.7c4.8-.7 9-3.8 11.2-8.1l21.7-43.5 21.7 43.5c2.2 4.4 6.4 7.4 11.2 8.1l48 7.2-34.6 34.1c-3.5 3.4-5.1 8.3-4.3 13.1l8 47.9-43.1-22.4c-2.2-1.1-4.5-1.7-6.9-1.7s-4.7.6-6.9 1.7L206 322.5l8-47.9c.8-4.8-.8-9.7-4.3-13.1l-34.6-34.1 48-7.3z"/><path class="st0" d="M500.8 293.9c-1.4-.4-26.8-6.9-53.5-1.7 2.4-11.5 3.7-23 3.9-34.6 15-6.6 40.7-21 52.9-45.7 17.4-35.4.7-77.5 0-79.3-2.9-7.2-10.9-11-18.4-8.7-1.7.5-37.2 11.8-57.3 38.9-5.8-10.8-12.7-21.2-20.7-31 6.3-14.4 15.2-41.6 6.9-68.1-11.8-37.6-53-56.6-54.7-57.4-7-3.2-15.2-.6-19.1 6-1 1.6-23.8 40.8-12 78.4 10.4 33.2 43.8 51.9 52.6 56.4 91.5 106.7 15.2 272.3-125.4 272.3-141 0-217.6-166.4-124.5-273.3 10.7-5.6 41.3-23.9 51.3-55.2 12-37.5-10.6-76.8-11.5-78.5-3.9-6.6-12.1-9.2-19.1-6.1-1.8.8-43 19.6-55.1 57.1-8.6 26.9.5 54.7 6.8 68.9-7.8 9.7-14.7 19.9-20.4 30.6C63.3 136 27.4 126 25.7 125.6c-7.3-2-15 1.8-17.8 8.9-.7 1.8-17.4 43.9-.1 79.3 12.1 24.6 37.6 38.2 52.8 44.4.3 11.5 1.6 23 4 34.4-26.7-5.3-52 1-53.4 1.4-7.8 2-12.6 9.8-10.9 17.7.4 1.9 10.6 47.7 44.2 67.9 14.7 8.8 31.2 11.4 45.3 11.4 9.7 0 18.3-1.2 24.4-2.4 6.9 7.3 14.3 14.1 22.1 20.2-7 2.2-14.1 5.3-20.6 9.7-32.6 22.2-38.9 67.1-39.1 69-1 7.6 3.8 14.7 11.3 16.5.9.2 12.1 2.9 27.2 2.9 15.4 0 34.9-2.8 51.4-14.1 19.9-13.5 30-35.6 34.9-51.1 17.4 5 35.8 7.6 54.8 7.6 18.7 0 36.8-2.6 54-7.4 5 15.5 15.3 38 35.8 51.6 16.1 10.7 34.9 13.5 50 13.5 15.8 0 27.7-3 28.6-3.2 7.4-1.9 12.2-9.1 11.1-16.7-.3-1.9-7.1-46.7-39.9-68.5-6.5-4.3-13.5-7.4-20.5-9.4 8.2-6.4 15.9-13.4 23-21.1 6.3 1.2 14.8 2.4 24.4 2.4 13.9 0 30-2.5 44.6-11.2 33.7-20 44.1-65.7 44.6-67.7 1.5-7.8-3.3-15.7-11.1-17.7zM149.5 468c-12.2 8.3-28 9.4-39.5 8.7 3.6-10.9 10.5-25.3 22.6-33.5 12.2-8.3 28-9.4 39.5-8.8-3.7 11-10.5 25.4-22.6 33.6zM125.7 72.5c4.5-14 16.4-24.6 25.8-31.2 3.8 10.8 7.3 26.3 2.8 40.4-4.5 14-16.3 24.6-25.8 31.2-3.8-10.9-7.2-26.4-2.8-40.4zm-90.9 128c-6.5-13.3-5.3-29.3-3-40.6 10.8 5.1 25.1 14 31.7 27.4 2.1 4.2 3.5 9 4.2 14.3-2.3 8-4 16.1-5.2 24.3-10.8-5.7-22.2-14.2-27.7-25.4zM60 353.8c-12.6-7.6-20.6-22-25.2-33.2 11.9-.8 28.2-.1 40.7 7.5l.1.1c.7 1.7 1.5 3.5 2.2 5.2 4.3 9.7 9.3 18.8 14.8 27.4-10.3.4-22.5-1-32.6-7zm342 123c-11.5.7-27.4-.2-39.6-8.3-12.3-8.1-19.2-22.4-23-33.3 11.5-.7 27.4.2 39.6 8.3 12.3 8.2 19.2 22.5 23 33.3zm46.5-289.6c6.7-13.5 20.9-23 31.8-28.5 2.2 11.3 3.3 27-3.1 40-5.5 11.3-17 20.3-28 26.4-1.2-7.9-2.8-15.6-5-23.3.7-5.3 2.1-10.2 4.3-14.6zM357.3 81.7c-4.4-14-.9-29.5 3-40.3 9.4 6.6 21.2 17.3 25.6 31.3 4.4 14 .9 29.5-3 40.3-9.4-6.5-21.1-17.2-25.6-31.3zm94.5 271.8c-10 5.9-22 7.2-32.2 6.9 5.4-8.5 10.3-17.5 14.5-26.9.9-1.9 1.7-3.8 2.5-5.8 12.7-7.5 28.9-8.1 40.7-7.2-4.8 11.1-12.9 25.5-25.5 33z"/></svg>