<svg xmlns="http://www.w3.org/2000/svg" viewBox="0 0 512 512"><path d="M412.8 253.3c6.1 6.1 16 6.1 22.2 0l72.5-72.5c6.1-6.1 6.1-16 0-22.2L362.6 13.9c-6.1-6.1-16-6.1-22.2 0L309 45.3c-4.2 4.2-10.9 4.2-15.1 0-6.1-6.1-16-6.1-22.2 0l-22.5 22.5c-6.1 6.1-6.1 16 0 22.2l31.5 31.5-50.3 50.3-.4-.4c3.1-32.8-8.6-65.6-32.1-89.1l-.2-.2C162 46.2 108.6 40.6 67.3 62.5 58 67.4 56.1 80 63.6 87.4l53.5 53.5-17.6 17.6L46 105c-7.4-7.4-20-5.6-24.9 3.7-22 41.6-16.1 95 19.7 130.8 23.5 23.5 56.3 35.2 89.1 32.1l.4.4L4.6 397.7c-6.1 6.1-6.1 16 0 22.2l78.2 78.2c6.1 6.1 16 6.1 22.2 0l125.7-125.6 8.6 8.6c-3.1 32.8 8.6 65.6 32.1 89.1 35.9 35.9 89.4 41.6 130.8 19.7 9.3-4.9 11.2-17.5 3.7-24.9l-53.5-53.6 17.6-17.6 53.5 53.6c7.4 7.4 20 5.6 24.9-3.7 22.3-42 15.8-95.3-19.7-130.8-23.5-23.5-56.3-35.2-89.1-32.1l-8.6-8.6 50.3-50.3 31.5 31.4zM103.1 82.6c21-4.3 42.9-.2 60.7 11.7l-24.5 24.5-36.2-36.2zm-9.2 382.3l-56.1-56.1 114.6-114.6 56.1 56.1L93.9 464.9zm272.4 4.8c-21 4.4-42.9.2-60.7-11.7l24.5-24.5 36.2 36.2zm-29.7-157.1c25.5-4.3 51.7 4 69.9 22.3 19.7 19.7 27.1 47 21.7 72.8L381 360.5c-5.3-5.3-12.1-4.6-11.1-4.6-4.2 0-8.1 1.7-11.1 4.6l-75.3 75.3c-11.2-16.8-15.7-37.5-12.3-57.8.8-5-.8-10.1-4.4-13.7l-25.1-25.1-95.2-95.2c-3.6-3.6-8.7-5.2-13.7-4.4-25.5 4.3-51.7-4-70-22.3-19.6-19.6-27.1-46.9-21.7-72.8l47.3 47.3c6.1 6.1 16 6.1 22.2 0l75.2-75.2.1-.1c11.2 16.8 15.7 37.5 12.3 57.8-.8 5 .8 10.1 4.4 13.7l120.3 120.3c3.6 3.5 8.7 5.2 13.7 4.3zm-27.7-62.7l-56.1-56.1 50.3-50.3 56.1 56.1-50.3 50.3zM282.6 78.8l2.4-2.4c14.9 6.4 33.4 3.8 46.2-9l20.3-20.3 122.6 122.6-50.3 50.3L282.6 78.8z" fill="#263238"/></svg>