<svg xmlns="http://www.w3.org/2000/svg" viewBox="0 0 478 478"><path d="M411.7 73.6C366.6 26.5 304.2-.1 238.9 0 107.1-.2.2 106.6 0 238.4-.1 303.5 26.5 365.9 73.6 411c.1.1.2.3.3.5 1.4 1.3 2.9 2.5 4.3 3.7 3.8 3.4 7.7 6.9 11.7 10.2 2.2 1.7 4.4 3.4 6.6 5 3.8 2.9 7.6 5.7 11.6 8.3 2.7 1.7 5.5 3.4 8.3 5.1 3.7 2.2 7.4 4.5 11.2 6.5 3.2 1.7 6.5 3.2 9.8 4.7 3.6 1.7 7.1 3.4 10.8 4.9 3.7 1.5 7.4 2.7 11.1 4.1s6.9 2.6 10.5 3.7c4 1.2 8.2 2.1 12.3 3.2 3.4.8 6.7 1.8 10.2 2.5 4.7.9 9.5 1.5 14.3 2.2 3 .4 5.8 1 8.8 1.3 7.8.8 15.7 1.2 23.7 1.2s15.8-.4 23.7-1.2c3-.3 5.9-.9 8.8-1.3 4.8-.6 9.6-1.2 14.3-2.2 3.4-.7 6.8-1.7 10.2-2.5 4.1-1 8.2-1.9 12.3-3.2 3.6-1.1 7-2.4 10.5-3.7s7.4-2.6 11.1-4.1 7.2-3.3 10.8-4.9c3.3-1.6 6.6-3 9.8-4.7 3.8-2 7.5-4.3 11.2-6.5 2.8-1.7 5.6-3.3 8.3-5.1 4-2.6 7.8-5.5 11.6-8.3 2.2-1.7 4.5-3.2 6.6-5 4-3.2 7.9-6.7 11.7-10.2 1.4-1.3 2.9-2.4 4.3-3.7.1-.1.2-.3.3-.5 95-91.2 98.3-242.3 7.1-337.4zm-38.4 319.5c-3.1 2.7-6.3 5.3-9.6 7.8-1.9 1.5-3.8 2.9-5.8 4.3-3.1 2.2-6.2 4.4-9.4 6.4-2.3 1.5-4.7 2.9-7.1 4.3-3 1.7-6.1 3.4-9.1 5.1-2.7 1.4-5.5 2.7-8.3 4s-5.9 2.7-8.9 3.9-6.2 2.4-9.4 3.4c-2.9 1-5.8 2-8.7 2.9-3.4 1-7 1.9-10.5 2.7-2.8.6-5.5 1.4-8.3 1.9-4 .8-8.2 1.3-12.3 1.9-2.4.3-4.7.7-7.1 1-6.6.6-13.2 1-19.9 1s-13.3-.4-19.9-1c-2.4-.2-4.7-.7-7.1-1-4.1-.6-8.3-1.1-12.3-1.9-2.8-.5-5.5-1.3-8.3-1.9-3.5-.9-7-1.7-10.5-2.7-2.9-.9-5.8-1.9-8.7-2.9-3.2-1.1-6.3-2.2-9.4-3.4-3.1-1.2-6-2.5-8.9-3.9s-5.6-2.6-8.3-4c-3.1-1.6-6.1-3.3-9.1-5.1-2.4-1.4-4.8-2.8-7.1-4.3-3.2-2-6.3-4.1-9.4-6.4-2-1.4-3.9-2.9-5.8-4.3-3.2-2.5-6.5-5.1-9.6-7.8-.8-.6-1.4-1.3-2.2-1.9.8-58.1 38.1-109.3 93.1-127.9 27.5 13.1 59.4 13.1 86.9 0 55 18.6 92.3 69.9 93.1 127.9-.6.6-1.3 1.3-2.1 1.9zM179.4 136.8c18.5-32.9 60.1-44.5 93-26s44.5 60.1 26 93c-6.1 10.9-15.1 19.9-26 26-.1 0-.2 0-.3.1-4.5 2.5-9.3 4.5-14.3 6-.9.3-1.7.6-2.6.8-1.7.4-3.5.8-5.3 1.1-3.3.6-6.7.9-10 1H238c-3.4-.1-6.7-.4-10-1-1.7-.3-3.5-.6-5.3-1.1-.9-.2-1.7-.6-2.6-.8-5-1.5-9.7-3.5-14.3-6l-.3-.1c-32.9-18.5-44.5-60.1-26.1-93zm226.4 220.5c-11-51.1-44.6-94.4-91.4-117.6 38.2-41.7 35.5-106.4-6.2-144.7s-106.4-35.5-144.7 6.2c-36 39.2-36 99.3 0 138.5-46.8 23.3-80.4 66.6-91.4 117.6-65.4-92.2-43.8-220 48.4-285.4s220-43.8 285.4 48.4c24.6 34.7 37.8 76.1 37.8 118.6s-13.2 83.9-37.9 118.4z" fill="#263238"/></svg>