<?xml version="1.0" encoding="UTF-8"?>
<svg width="32px" height="22px" viewBox="0 0 32 22" version="1.1" xmlns="http://www.w3.org/2000/svg" xmlns:xlink="http://www.w3.org/1999/xlink">
    <!-- Generator: Sketch 50.2 (55047) - http://www.bohemiancoding.com/sketch -->
    <title>left-arrow</title>
    <desc>Created with Sketch.</desc>
    <defs></defs>
    <g id="Page-1" stroke="none" stroke-width="1" fill="none" fill-rule="evenodd">
        <g id="left-arrow" fill="#fff" fill-rule="nonzero">
            <path d="M29.6727273,8.82424242 L7.27272727,8.82424242 L12.8,3.2969697 C13.0909091,3.00606061 13.1878788,2.61818182 13.1878788,2.23030303 C13.1878788,1.84242424 12.9939394,1.45454545 12.8,1.16363636 L11.9272727,0.290909091 C11.6363636,0.193939394 11.3454545,0 10.9575758,0 C10.569697,0 10.1818182,0.193939394 9.98787879,0.387878788 L0.484848485,9.89090909 C0.193939394,10.1818182 0,10.569697 0,10.9575758 C0,11.3454545 0.193939394,11.7333333 0.387878788,12.0242424 L9.89090909,21.5272727 C10.1818182,21.8181818 10.569697,21.9151515 10.8606061,21.9151515 C11.2484848,21.9151515 11.6363636,21.7212121 11.830303,21.5272727 L12.7030303,20.6545455 C12.9939394,20.3636364 13.0909091,19.9757576 13.0909091,19.6848485 C13.0909091,19.2969697 12.8969697,19.0060606 12.7030303,18.7151515 L7.07878788,13.0909091 L29.5757576,13.0909091 C30.3515152,13.0909091 31.030303,12.4121212 31.030303,11.6363636 L31.030303,10.3757576 C31.1272727,9.5030303 30.4484848,8.82424242 29.6727273,8.82424242 Z" id="Shape"></path>
        </g>
    </g>
</svg>