<?xml version="1.0" encoding="utf-8"?>
<!-- Generator: Adobe Illustrator 22.1.0, SVG Export Plug-In . SVG Version: 6.00 Build 0)  -->
<svg version="1.1" id="Capa_1" xmlns="http://www.w3.org/2000/svg" xmlns:xlink="http://www.w3.org/1999/xlink" x="0px" y="0px"
	 viewBox="0 0 25.7 36.9" style="enable-background:new 0 0 25.7 36.9;" xml:space="preserve">
<g>
	<g id="Phone_x5F_2">
		<g>
			<path d="M4.5,0.4L3.4,1.1C2,1.8,1,3.2,0.5,5.1c-1.3,4.6,0.2,11.6,4,18.4c5.4,9.8,13.5,15.4,18.4,12.7l1.1-0.6
				c0.8-0.5,1.4-1.2,1.7-2.1c0.3-0.9,0.2-1.9-0.3-2.7l-2.5-4.4c-0.9-1.7-3.1-2.3-4.8-1.4l-1.1,0.6c-1.2,0.7-3.5-0.5-6.3-5.5
				c-2.4-4.3-2.3-6.4-2.1-7.3c0.1-0.5,0.4-0.8,0.7-1l1.1-0.6c1.7-0.9,2.3-3.2,1.4-4.8L9.3,1.8C8.8,1,8.1,0.4,7.2,0.1
				C6.3-0.1,5.3,0,4.5,0.4z M7.5,2.8L10,7.3c0.4,0.7,0.1,1.7-0.6,2.1L8.3,10c-0.8,0.5-1.4,1.2-1.7,2.2c-0.6,2.1,0.2,5,2.3,8.8
				c4.3,7.8,7.7,7,9,6.3l1.1-0.6c0.7-0.4,1.7-0.1,2.1,0.6l2.5,4.4c0.4,0.7,0.1,1.7-0.6,2.1l-1.1,0.6c-3.7,2.1-10.9-3.4-15.6-12
				C2.7,16.2,1.3,9.6,2.4,5.6c0.4-1.3,1-2.3,1.9-2.8l1.1-0.6C5.8,2,6.2,2,6.6,2.1C7,2.2,7.3,2.5,7.5,2.8z"/>
		</g>
	</g>
</g>
</svg>
