<?xml version="1.0" encoding="utf-8"?>
<!-- Generator: Adobe Illustrator 22.1.0, SVG Export Plug-In . SVG Version: 6.00 Build 0)  -->
<svg version="1.1" id="Layer_1" xmlns="http://www.w3.org/2000/svg" xmlns:xlink="http://www.w3.org/1999/xlink" x="0px" y="0px"
	 viewBox="0 0 20 13.4" style="enable-background:new 0 0 20 13.4;" xml:space="preserve">
<g>
	<g>
		<path d="M20,1c0-0.3-0.1-0.5-0.3-0.7C19.6,0.1,19.3,0,19.1,0l0,0H0.9C0.7,0,0.4,0.1,0.3,0.3C0.1,0.5,0,0.8,0,1v11.4
			c0,0.5,0.4,1,0.9,1l0,0h18.2c0.2,0,0.5-0.1,0.6-0.3c0.2-0.2,0.3-0.4,0.3-0.7V1z M18.1,1L10,7.2L1.9,1H18.1z M13.4,8.2l4.8,4.1H1.8
			l4.9-4.2c0.2-0.2,0.2-0.5,0.1-0.7c-0.2-0.1-0.5-0.1-0.7,0l-5.2,4.4V1.4l8.8,6.8C9.8,8.3,9.9,8.3,10,8.3s0.2,0,0.3-0.1l8.8-6.8
			v10.4l-5.2-4.4c-0.2-0.2-0.5-0.1-0.6,0.1C13.1,7.8,13.2,8.1,13.4,8.2z"/>
	</g>
</g>
</svg>
