<?xml version="1.0" encoding="utf-8"?>
<!-- Generator: Adobe Illustrator 22.1.0, SVG Export Plug-In . SVG Version: 6.00 Build 0)  -->
<svg version="1.1" id="Layer_1" xmlns="http://www.w3.org/2000/svg" xmlns:xlink="http://www.w3.org/1999/xlink" x="0px" y="0px"
	 viewBox="0 0 318.2 512" style="enable-background:new 0 0 318.2 512;" xml:space="preserve">
<g>
	<g>
		<path d="M268.1,0H50.1C22.5,0,0,22.5,0,50.1v411.7C0,489.5,22.5,512,50.1,512h217.9c27.6,0,50.1-22.5,50.1-50.1V50.1
			C318.2,22.5,295.7,0,268.1,0z M297.8,461.9c0,16.4-13.3,29.7-29.7,29.7H50.1c-16.4,0-29.7-13.3-29.7-29.7V409h277.4L297.8,461.9
			L297.8,461.9z M297.8,388.6H20.4V87.7h277.4L297.8,388.6L297.8,388.6z M297.8,67.3H20.4V50.1c0-16.4,13.3-29.7,29.7-29.7h217.9
			c16.4,0,29.7,13.3,29.7,29.7L297.8,67.3L297.8,67.3z"/>
	</g>
</g>
<g>
	<g>
		<path d="M159.1,416.1c-18.6,0-33.7,15.1-33.7,33.7c0,18.6,15.1,33.7,33.7,33.7s33.7-15.1,33.7-33.7
			C192.8,431.2,177.7,416.1,159.1,416.1z M159.1,463c-7.3,0-13.3-5.9-13.3-13.3s5.9-13.3,13.3-13.3s13.3,5.9,13.3,13.3
			S166.4,463,159.1,463z"/>
	</g>
</g>
<g>
	<g>
		<path d="M192.8,33.7h-67.3c-5.6,0-10.2,4.6-10.2,10.2s4.6,10.2,10.2,10.2h67.3c5.6,0,10.2-4.6,10.2-10.2S198.4,33.7,192.8,33.7z"
			/>
	</g>
</g>
<g>
	<g>
		<path d="M266.2,33.7h-5.1c-5.6,0-10.2,4.6-10.2,10.2s4.6,10.2,10.2,10.2h5.1c5.6,0,10.2-4.6,10.2-10.2S271.8,33.7,266.2,33.7z"/>
	</g>
</g>
</svg>
