<?xml version="1.0" encoding="utf-8"?>
<!-- Generator: Adobe Illustrator 22.1.0, SVG Export Plug-In . SVG Version: 6.00 Build 0)  -->
<svg version="1.1" id="Capa_1" xmlns="http://www.w3.org/2000/svg" xmlns:xlink="http://www.w3.org/1999/xlink" x="0px" y="0px"
	 viewBox="0 0 344.1 471.9" style="enable-background:new 0 0 344.1 471.9;" xml:space="preserve">
<g>
	<g>
		<path d="M172.1,0C77.2,0,0,77.2,0,172.1c0,37,11.5,72.2,33.4,101.9l130.4,193.5c1.9,2.8,5,4.4,8.3,4.4c3.3,0,6.5-1.7,8.3-4.4
			l130.4-193.5c21.8-29.7,33.4-64.9,33.4-101.9C344.1,77.2,266.9,0,172.1,0z M294.4,262.3c-0.1,0.2-0.2,0.3-0.4,0.5l-122,181.1
			l-122-181.1c-0.1-0.2-0.3-0.4-0.4-0.6c-19.4-26.3-29.6-57.4-29.6-90.2c0-83.8,68.2-152,152-152s152,68.2,152,152
			C324.1,204.8,313.8,236,294.4,262.3z"/>
	</g>
</g>
<g>
	<g>
		<path d="M242.3,161c-5.5,0-10,4.5-10,10c0,33.2-27,60.2-60.2,60.2s-60.2-27-60.2-60.2s27-60.2,60.2-60.2
			c12.1,0,23.7,3.6,33.6,10.3c4.6,3.1,10.8,1.9,13.9-2.7c3.1-4.6,1.9-10.8-2.7-13.9c-13.3-9-28.8-13.7-44.9-13.7
			c-44.2,0-80.2,36-80.2,80.2s36,80.2,80.2,80.2s80.2-36,80.2-80.2C252.3,165.5,247.8,161,242.3,161z"/>
	</g>
</g>
<g>
	<g>
		<path d="M234.2,128H234c-5.5,0-10,4.5-10,10s4.5,10,10,10h0.2c5.5,0,10-4.5,10-10C244.3,132.5,239.8,128,234.2,128z"/>
	</g>
</g>
</svg>
