<svg height="480pt" viewBox="0 0 480 480" width="480pt" xmlns="http://www.w3.org/2000/svg">

    <linearGradient id="gradient" x1="0%" y1="0%" x2="0%" y2="100%">
        <stop offset="0" stop-color="#b9afa5"></stop>
        <stop offset="100%" stop-color="#e1d9c9"></stop>
    </linearGradient>

    <path fill="url(#gradient)" d="m240 480c-14.078125 0-24.511719-11.519531-34.609375-22.671875-5.050781-6.882813-11.640625-12.484375-19.246094-16.359375-8.878906-.558594-17.761719 1.011719-25.914062 4.574219-14.023438 4.480469-28.535157 9.105469-40.261719 2.320312-11.921875-6.886719-15.160156-21.910156-18.296875-36.4375-.964844-8.695312-3.960937-17.035156-8.75-24.355469-7.316406-4.785156-15.65625-7.78125-24.347656-8.742187-14.527344-3.128906-29.550781-6.382813-36.4375-18.328125-6.792969-11.726562-2.160157-26.238281 2.320312-40.273438 3.554688-8.148437 5.125-17.027343 4.574219-25.902343-3.875-7.605469-9.476562-14.199219-16.359375-19.25-11.152344-10.0625-22.671875-20.496094-22.671875-34.574219s11.519531-24.511719 22.671875-34.609375c6.882813-5.050781 12.484375-11.640625 16.359375-19.246094.550781-8.878906-1.019531-17.757812-4.574219-25.914062-4.480469-14.023438-9.113281-28.535157-2.320312-40.261719 6.886719-11.921875 21.910156-15.160156 36.4375-18.296875 8.695312-.964844 17.035156-3.960937 24.355469-8.75 4.785156-7.316406 7.78125-15.65625 8.742187-24.347656 3.144531-14.527344 6.398437-29.550781 18.296875-36.4375 11.726562-6.785157 26.238281-2.152344 40.269531 2.320312 8.152344 3.554688 17.03125 5.121094 25.90625 4.574219 7.605469-3.875 14.195313-9.476562 19.246094-16.359375 10.097656-11.152344 20.53125-22.671875 34.609375-22.671875s24.511719 11.519531 34.609375 22.671875c5.050781 6.882813 11.640625 12.484375 19.246094 16.359375 8.878906.550781 17.757812-1.019531 25.914062-4.574219 14.03125-4.472656 28.550781-9.097656 40.230469-2.320312 11.921875 6.886719 15.199219 21.910156 18.296875 36.4375.964844 8.695312 3.960937 17.035156 8.75 24.355469 7.316406 4.785156 15.65625 7.78125 24.34375 8.742187 14.53125 3.144531 29.554687 6.398437 36.441406 18.296875 6.792969 11.726562 2.160157 26.238281-2.320312 40.269531-3.554688 8.152344-5.125 17.03125-4.574219 25.90625 3.875 7.605469 9.476562 14.195313 16.359375 19.246094 11.183594 10.097656 22.703125 20.53125 22.703125 34.609375s-11.519531 24.511719-22.671875 34.609375c-6.882813 5.050781-12.484375 11.640625-16.359375 19.246094-.550781 8.878906 1.019531 17.757812 4.574219 25.914062 4.480469 14.023438 9.113281 28.535157 2.320312 40.261719-6.886719 11.921875-21.910156 15.199219-36.4375 18.296875-8.695312.964844-17.035156 3.960937-24.355469 8.75-4.785156 7.316406-7.78125 15.65625-8.742187 24.347656-3.144531 14.527344-6.398437 29.550781-18.296875 36.4375-11.726562 6.800781-26.230469 2.160157-40.269531-2.320312-8.148438-3.5625-17.03125-5.128907-25.90625-4.574219-7.605469 3.875-14.195313 9.476562-19.246094 16.359375-10.097656 11.152344-20.53125 22.671875-34.609375 22.671875zm-57.824219-55.496094c2.734375-.019531 5.457031.316406 8.105469 1 10.757812 4.417969 20.09375 11.714844 26.976562 21.089844 7.742188 8.558594 15.757813 17.40625 22.742188 17.40625s15-8.847656 22.742188-17.40625c6.882812-9.375 16.21875-16.671875 26.976562-21.089844 11.859375-1.632812 23.9375.027344 34.914062 4.800782 10.703126 3.414062 21.773438 6.953124 27.382813 3.710937 5.785156-3.34375 8.273437-14.847656 10.664063-25.96875 2.609374-12.039063 5.296874-24.496094 13.082031-32.277344 9.351562-7.253906 20.523437-11.78125 32.285156-13.082031 11.121094-2.398438 22.625-4.878906 25.96875-10.664062 3.199219-5.597657-.296875-16.679688-3.710937-27.390626-4.78125-10.976562-6.441407-23.054687-4.800782-34.914062 4.417969-10.757812 11.714844-20.09375 21.089844-26.976562 8.558594-7.742188 17.40625-15.757813 17.40625-22.742188s-8.847656-15-17.40625-22.742188c-9.375-6.882812-16.671875-16.21875-21.089844-26.976562-1.640625-11.859375.019532-23.9375 4.800782-34.914062 3.414062-10.703126 6.960937-21.78125 3.710937-27.382813-3.34375-5.785156-14.847656-8.273437-25.96875-10.664063-12.046875-2.609374-24.496094-5.320312-32.277344-13.082031-7.253906-9.351562-11.78125-20.523437-13.082031-32.285156-2.398438-11.121094-4.878906-22.625-10.664062-25.96875-5.597657-3.242187-16.679688.296875-27.390626 3.710937-10.976562 4.777344-23.054687 6.4375-34.914062 4.800782-10.757812-4.417969-20.09375-11.714844-26.976562-21.089844-7.742188-8.558594-15.757813-17.40625-22.742188-17.40625s-15 8.847656-22.742188 17.40625c-6.882812 9.375-16.21875 16.671875-26.976562 21.089844-11.859375 1.636718-23.9375-.023438-34.914062-4.800782-10.703126-3.414062-21.765626-6.953124-27.367188-3.710937-5.785156 3.34375-8.273438 14.847656-10.664062 25.96875-2.625 12.046875-5.335938 24.496094-13.097657 32.277344-9.351562 7.253906-20.523437 11.78125-32.285156 13.082031-11.121094 2.398438-22.625 4.878906-25.96875 10.664062-3.242187 5.597657.296875 16.679688 3.710937 27.390626 4.78125 10.976562 6.441407 23.054687 4.800782 34.914062-4.417969 10.757812-11.714844 20.09375-21.089844 26.976562-8.558594 7.742188-17.40625 15.757813-17.40625 22.742188s8.847656 15 17.40625 22.742188c9.375 6.882812 16.671875 16.21875 21.089844 26.976562 1.640625 11.859375-.019532 23.9375-4.800782 34.914062-3.414062 10.703126-6.960937 21.765626-3.710937 27.367188 3.34375 5.785156 14.847656 8.273438 25.96875 10.664062 12.039063 2.609376 24.496094 5.296876 32.277344 13.078126 7.253906 9.351562 11.78125 20.527343 13.082031 32.289062 2.398438 11.121094 4.878906 22.625 10.664062 25.96875 5.597657 3.257812 16.679688-.289062 27.390626-3.710938 8.597656-3.253906 17.632812-5.203124 26.808593-5.785156zm0 0"/>
    <path fill="url(#gradient)" d="m240 416c-81.050781-.003906-151.617188-55.359375-170.921875-134.078125-19.304687-78.714844 17.640625-160.441406 89.492187-197.945313 71.847657-37.503906 160.023438-21.09375 213.566407 39.75 53.542969 60.847657 58.613281 150.390626 12.277343 216.890626-1.585937 2.453124-4.390624 3.847656-7.308593 3.632812-2.914063-.21875-5.480469-2.007812-6.691407-4.671875-1.207031-2.664063-.867187-5.777344.890626-8.113281 47.359374-67.988282 34.976562-160.886719-28.535157-214.097656-63.515625-53.214844-157.144531-49.132813-215.789062 9.40625-58.640625 58.535156-62.890625 152.160156-9.796875 215.769531 53.097656 63.609375 145.972656 76.160156 214.046875 28.921875 3.632812-2.523438 8.617187-1.625 11.140625 2.003906 2.523437 3.628906 1.625 8.617188-2.003906 11.140625-29.445313 20.503906-64.484376 31.464844-100.367188 31.390625zm0 0"/>
    <path fill="url(#gradient)" d="m355.335938 370.152344c-3.277344-.003906-6.21875-2.003906-7.429688-5.046875-1.210938-3.046875-.441406-6.519531 1.941406-8.769531 2.464844-2.332032 4.847656-4.730469 7.152344-7.199219 3.015625-3.230469 8.078125-3.402344 11.308594-.390625 3.230468 3.015625 3.402344 8.082031.386718 11.308594-2.53125 2.722656-5.152343 5.359374-7.863281 7.914062-1.484375 1.402344-3.453125 2.183594-5.496093 2.183594zm0 0"/>
    <path fill="url(#gradient)" d="m359.910156 205.902344c-1.402344-12.59375-12.132812-22.070313-24.804687-21.902344h-55.105469v-40c0-13.253906-10.746094-24-24-24h-16c-4.417969 0-8 3.582031-8 8v32c0 13.253906-10.746094 24-24 24h-16v-16c0-4.417969-3.582031-8-8-8h-48c-4.417969 0-8 3.582031-8 8v160c0 4.417969 3.582031 8 8 8h48c4.417969 0 8-3.582031 8-8v-9.097656l3.671875 2.402344c6.546875 4.363281 14.238281 6.691406 22.105469 6.695312h94.222656c13.226562-.066406 23.933594-10.773438 24-24 .003906-4.121094-1.054688-8.171875-3.078125-11.761719 1.429687-.914062 2.75-1.988281 3.941406-3.199219 4.601563-4.46875 7.179688-10.625 7.136719-17.039062.003906-4.121094-1.054688-8.171875-3.078125-11.761719 1.429687-.914062 2.75-1.988281 3.941406-3.199219 4.601563-4.46875 7.179688-10.625 7.136719-17.039062.003906-4.121094-1.054688-8.171875-3.078125-11.761719 1.429687-.914062 2.75-1.988281 3.941406-3.199219 5.109375-4.992187 7.699219-12.019531 7.046875-19.136718zm-183.910156 114.097656h-32v-144h32zm165.550781-106.304688c-1.457031 1.492188-3.464843 2.324219-5.550781 2.304688h-32c-4.417969 0-8 3.582031-8 8s3.582031 8 8 8h24c4.417969 0 8 3.582031 8 8 .007812 2.15625-.878906 4.21875-2.449219 5.695312-1.457031 1.492188-3.464843 2.324219-5.550781 2.304688h-24c-4.417969 0-8 3.582031-8 8s3.582031 8 8 8h16c4.417969 0 8 3.582031 8 8 .007812 2.15625-.878906 4.21875-2.449219 5.695312-7.097656 1.429688-14.3125 2.199219-21.550781 2.304688-4.417969 0-8 3.582031-8 8s3.582031 8 8 8h8c4.417969 0 8 3.582031 8 8 .007812 2.15625-.878906 4.21875-2.449219 5.695312-1.457031 1.492188-3.464843 2.324219-5.550781 2.304688h-94.222656c-4.71875 0-9.332032-1.390625-13.265625-4l-12.511719-8.296875v-99.703125h16c22.082031-.027344 39.972656-17.917969 40-40v-24h8c4.417969 0 8 3.582031 8 8v48c0 4.417969 3.582031 8 8 8h63.105469c4.371093-.179688 8.191406 2.9375 8.894531 7.257812.226562 2.410157-.679688 4.785157-2.449219 6.4375zm0 0"/></svg>