<svg xmlns="http://www.w3.org/2000/svg" viewBox="0 0 338 460" width="338" height="460">
	<defs>
		<clipPath clipPathUnits="userSpaceOnUse" id="cp1">
			<path d="M0 1L337 1L337 459L0 459Z" />
		</clipPath>
	</defs>
	<style>
		tspan { white-space:pre }
		.shp0 { fill: #ffffff } 
		.shp1 { fill: #00223a } 
		.shp2 { fill: #00afd9 } 
		.shp3 { fill: #f4f4f4 } 
		.shp4 { fill: #3498db } 
		.shp5 { opacity: 0.251;mix-blend-mode: multiply;fill: #3498db } 
		.shp6 { opacity: 0.502;mix-blend-mode: soft-light;fill: #ffffff } 
		.shp7 { fill: #6c7a89 } 
		.shp8 { fill: #daecfa } 
		.shp9 { fill: #22313f } 
	</style>
	<g id="Page 1" clip-path="url(#cp1)">
		<path id="Path 1" class="shp0" d="M168.51,459l6.54,-3.02c40.92,-18.89 82.03,-37.48 121.71,-58.9c38.66,-20.86 37.34,-55.71 39.06,-94.72c2.71,-61.61 0.01,-123.33 0.01,-184.97v-10.93l-10.27,-3.73c-30.17,-10.96 -61.04,-22.35 -92.01,-30.79c-22.84,-6.22 -45.65,-10.52 -69.41,-10.27c-22.82,0.24 -44.69,4.66 -66.55,10.93c-29.11,8.34 -58.05,19.45 -86.35,30.21l-10.05,3.82v10.75c0,61.64 -2.69,123.36 0.01,184.97c1.72,39.01 0.4,73.86 39.06,94.72c39.69,21.41 80.79,40 121.71,58.9z" />
		<path id="Path 2" class="shp1" d="M16.78,117.4c0,62.09 -2.66,123.81 0,184.28c1.97,44.9 2.34,66.28 30.88,81.69c38.71,20.89 77.82,38.6 120.84,58.46c43.02,-19.86 82.13,-37.57 120.84,-58.46c28.55,-15.41 28.91,-36.79 30.89,-81.69c2.66,-60.47 0,-122.19 0,-184.28c-146.86,-53.34 -162.22,-53.69 -303.45,0z" />
		<path id="Path 3" class="shp0" d="M28.54,367.06c4.31,6.33 10.4,11.6 19.13,16.31c38.71,20.89 77.83,38.6 120.84,58.46c43.02,-19.86 82.13,-37.57 120.84,-58.46c8.73,-4.71 14.82,-9.98 19.13,-16.31c-40.61,-18.43 -88.58,-29.09 -139.97,-29.09c-51.4,0 -99.36,10.66 -139.97,29.09z" />
		<path id="Path 4" class="shp2" d="M38.93,377.81c2.58,1.95 5.47,3.79 8.74,5.56c38.71,20.89 77.83,38.6 120.84,58.46c43.02,-19.86 82.13,-37.57 120.84,-58.46c3.27,-1.76 6.17,-3.61 8.74,-5.56c-37.81,-16.29 -82.16,-25.67 -129.58,-25.67c-47.43,0 -91.78,9.38 -129.59,25.67z" />
		<path id="Path 5" class="shp0" d="M32.91,149.78l-5.38,2.3l5.54,2.45l2.3,5.38l2.45,-5.54l5.38,-2.3l-5.54,-2.45l-2.3,-5.38zM38.55,289.92l-5.38,2.3l5.54,2.45l2.3,5.38l2.45,-5.54l5.38,-2.3l-5.54,-2.45l-2.3,-5.38zM280.26,219.19l-5.38,2.3l5.54,2.45l2.3,5.38l2.45,-5.54l5.38,-2.3l-5.54,-2.45l-2.3,-5.38zM296.2,144.82l-3.26,1.39l3.35,1.48l1.39,3.26l1.48,-3.35l3.26,-1.39l-3.35,-1.49l-1.39,-3.26zM299.17,304.28l-5.38,2.3l5.54,2.45l2.3,5.38l2.45,-5.54l5.39,-2.3l-5.54,-2.45l-2.3,-5.38z" />
		<path id="Path 6" class="shp3" d="M256.98,159.39c-0.08,-1.61 -0.22,-3.19 -0.42,-4.74c-0.14,-1.35 -0.34,-2.68 -0.59,-3.97c-2.08,-11.44 -7.22,-21.26 -15.13,-28.86c-0.52,-0.5 -1.05,-0.97 -1.59,-1.45c-0.48,-0.44 -0.99,-0.85 -1.49,-1.27c-1.67,-1.37 -3.39,-2.6 -5.14,-3.73c-0.56,-0.36 -1.13,-0.71 -1.71,-1.05c-4.01,-2.4 -8.15,-4.2 -12.16,-5.57c-0.58,-0.2 -1.15,-0.38 -1.71,-0.56c-0.5,-0.16 -0.99,-0.32 -1.47,-0.46c-1.33,-0.38 -2.64,-0.71 -3.91,-1.01c0,0 -0.02,0 -0.02,-0.02c-3.12,-0.71 -6.03,-1.21 -8.65,-1.53c-0.46,-0.06 -0.89,-0.12 -1.33,-0.16c-0.04,0 -0.08,0 -0.12,-0.02c-0.38,-0.04 -0.73,-0.06 -1.09,-0.1h-0.02c-0.32,-0.04 -0.64,-0.06 -0.93,-0.08c-2.26,-0.46 -4.78,-0.87 -7.62,-1.23c-5,-0.57 -10.95,-0.99 -18.03,-1.11c-1.41,-0.02 -2.86,-0.04 -4.36,-0.04c-9.84,0 -17.75,0.5 -24.12,1.27c-2.44,0.32 -4.64,0.66 -6.66,1.03c-0.67,0.04 -1.41,0.1 -2.16,0.18c-3.21,0.28 -7.06,0.83 -11.25,1.83c-9.28,2.18 -20.17,6.5 -29.14,15.07c-7.91,7.6 -13.05,17.42 -15.14,28.86c-0.2,1.01 -0.36,2.02 -0.49,3.05c-0.4,2.96 -0.59,6.01 -0.59,9.18v49.67c0,6.84 4.54,12.63 10.79,14.48c0.34,0.1 0.69,0.2 1.05,0.28c0.22,0.04 0.46,0.1 0.69,0.12c0.26,0.06 0.54,0.1 0.81,0.12c0.12,0.02 0.24,0.04 0.36,0.04c0.46,0.06 0.93,0.08 1.41,0.08c8.35,0 15.11,-6.76 15.11,-15.11v-49.67c0,-8.45 2.24,-14.72 6.82,-19.16c0.55,-0.54 1.13,-1.03 1.74,-1.51c0.02,-0.02 0.06,-0.04 0.08,-0.06v94.91c-0.02,0.67 -0.02,1.27 0,1.69v86.1h34.55v-86.38l-0.02,-0.93c0,-0.06 0.08,-6.7 4.18,-11.03c0.32,-0.34 0.68,-0.65 1.03,-0.97c0.38,-0.3 0.77,-0.6 1.19,-0.87c0.38,-0.26 0.77,-0.49 1.21,-0.71c0.12,-0.08 0.26,-0.14 0.4,-0.2c0.32,-0.18 0.65,-0.34 1.01,-0.48c0.38,-0.16 0.77,-0.32 1.19,-0.46c0.42,-0.14 0.85,-0.28 1.29,-0.4c0.16,-0.06 0.34,-0.12 0.5,-0.14c0.42,-0.12 0.85,-0.22 1.31,-0.32c0.06,-0.02 0.1,-0.04 0.16,-0.04c0.55,-0.1 1.11,-0.2 1.71,-0.3h0.02c4.18,0.61 8.39,1.96 11.09,4.76c3.79,3.93 4.01,9.82 4.01,10.95v33.5l-0.02,37.01v17h34.55v-85.98c0.02,-0.65 0.04,-1.63 0,-2.8v-93.92c0.64,0.5 1.25,1.01 1.83,1.57c4.58,4.44 6.8,10.71 6.8,19.16v49.67c0,6.84 4.54,12.61 10.79,14.48c0.52,0.16 1.05,0.3 1.61,0.38c0.34,0.08 0.67,0.12 1.03,0.16c0.08,0.02 0.18,0.02 0.26,0.02c0.48,0.06 0.95,0.08 1.45,0.08c8.35,0 15.11,-6.76 15.11,-15.11v-49.67c0,-1.19 -0.02,-2.36 -0.08,-3.53z" />
		<path id="Path 7" class="shp4" d="M101.56,164.37l-20.51,-13.69c-0.02,0.04 -0.02,0.08 -0.04,0.12c-0.18,0.97 -0.32,1.94 -0.46,2.94c-0.4,2.95 -0.6,6.01 -0.6,9.18v25.33l21.6,-5.75l8.63,-2.3v-10.08zM256.98,159.39c-0.08,-1.61 -0.22,-3.19 -0.42,-4.74c-0.14,-1.35 -0.34,-2.68 -0.59,-3.97l-7.95,5.3l-21.2,14.14v10.08l21.56,5.73l8.69,2.32v-25.33c0,-1.19 -0.02,-2.36 -0.08,-3.53zM170.66,197.47v-75.59h-4.3v75.59h-47.52v12.95h99.35v-12.95zM183.63,193.15h-30.24v21.6h30.24z" />
		<path id="Path 8" class="shp0" d="M177.15,199.63h-17.28v8.64h17.28z" />
		<path id="Path 9" class="shp5" d="M218.18,142.18c0,0 -12.96,0.21 -12.96,16.41v166.3h12.96zM106.95,150.09c-3.23,3.89 -5.4,8.61 -5.4,12.83v49.67c0,6.84 -4.56,12.61 -10.81,14.48c0.34,0.1 0.69,0.2 1.05,0.28c0.22,0.04 0.46,0.1 0.7,0.12c0.26,0.06 0.53,0.1 0.81,0.12c0.12,0.02 0.24,0.04 0.36,0.04c0.46,0.06 0.93,0.08 1.41,0.08c8.35,0 15.11,-6.76 15.11,-15.11v-49.67c0,-8.45 2.24,-14.72 6.82,-19.16c0.56,-0.54 1.13,-1.03 1.75,-1.51c-4.28,0.89 -8.59,3.95 -11.8,7.84zM240.83,121.83c-18.8,-17.99 -46.17,-17.36 -49.22,-17.22c-0.54,0.02 -1.06,0.08 -1.58,0.15c10.05,0.71 28.37,3.91 42.11,17.06c10.62,10.17 16.23,24.37 16.23,41.08v49.67c0,6.84 -4.54,12.61 -10.78,14.48c1.38,0.41 2.83,0.64 4.34,0.64c8.35,0 15.12,-6.77 15.12,-15.12v-49.67c0,-16.71 -5.61,-30.91 -16.23,-41.08zM169.72,221.52c-27.13,0 -29.31,19.08 -29.31,19.15l0.02,84.23h12.96v-86.39l-0.02,-0.92c0,-0.06 0.07,-6.71 4.18,-11.04c2.58,-2.72 6.68,-4.4 12.18,-5.03zM152.36,250.53c-0.18,-0.16 -0.36,-0.3 -0.55,-0.46c-0.3,-0.24 -0.62,-0.48 -0.93,-0.7c-0.44,-0.32 -0.89,-0.59 -1.35,-0.87c-0.06,-0.04 -0.12,-0.08 -0.18,-0.1c-0.48,-0.28 -0.95,-0.56 -1.45,-0.79c-2.24,-1.11 -4.76,-1.9 -7.48,-2.32c-1.39,-0.2 -2.84,-0.32 -4.3,-0.32c-7.08,0 -13.33,2.58 -17.28,6.51v19.38c3.95,3.95 10.19,6.52 17.28,6.52c1.47,0 2.92,-0.12 4.3,-0.32c5.3,-0.81 9.86,-3.07 12.97,-6.21v-19.38c-0.32,-0.32 -0.67,-0.64 -1.03,-0.95zM152.36,250.53c-0.18,-0.16 -0.36,-0.3 -0.55,-0.46c-0.3,-0.24 -0.62,-0.48 -0.93,-0.7c-0.44,-0.32 -0.89,-0.59 -1.35,-0.87c-0.06,-0.04 -0.12,-0.08 -0.18,-0.1c-0.48,-0.28 -0.95,-0.56 -1.45,-0.79c1.09,2.22 1.72,4.64 1.72,7.22c0,6.29 -3.67,11.84 -9.2,14.98c-3.03,1.72 -6.64,2.72 -10.51,2.72c-4.11,0 -7.91,-1.13 -11.07,-3.06v1.39c3.95,3.95 10.19,6.52 17.28,6.52c1.47,0 2.92,-0.12 4.3,-0.32c5.3,-0.81 9.86,-3.07 12.97,-6.21v-19.38c-0.32,-0.32 -0.67,-0.64 -1.03,-0.95z" />
		<path id="Path 10" class="shp6" d="M130.71,249.3c-5.37,0 -9.72,2.9 -9.72,6.48c0,3.58 4.35,6.48 9.72,6.48c5.37,0 9.72,-2.9 9.72,-6.48c0,-3.58 -4.35,-6.48 -9.72,-6.48z" />
		<path id="Path 11" class="shp4" d="M218.18,251.49c-3.94,-3.94 -10.2,-6.51 -17.28,-6.51c-7.08,0 -13.34,2.57 -17.28,6.51v19.38c3.94,3.94 10.2,6.51 17.28,6.51c7.08,0 13.34,-2.57 17.28,-6.51zM212.68,247.62c1.1,2.2 1.73,4.64 1.73,7.21c0,9.77 -8.83,17.68 -19.71,17.68c-4.1,0 -7.91,-1.13 -11.07,-3.05v1.41c3.94,3.94 10.2,6.51 17.28,6.51c7.08,0 13.34,-2.56 17.28,-6.51v-19.38c-1.52,-1.52 -3.39,-2.83 -5.51,-3.87z" />
		<path id="Path 12" class="shp6" d="M195.51,249.3c-5.37,0 -9.72,2.9 -9.72,6.48c0,3.58 4.35,6.48 9.72,6.48c5.37,0 9.72,-2.9 9.72,-6.48c0,-3.58 -4.35,-6.48 -9.72,-6.48z" />
		<path id="Path 13" class="shp7" d="M155.55,316.26h-38.88v8.63h38.88z" />
		<path id="Path 14" class="shp8" d="M153.39,308.03c-1.98,-3 -5.77,-5.85 -12.95,-6.66c-1.33,-0.16 -2.78,-0.24 -4.36,-0.24c-0.58,0 -1.11,0.02 -1.65,0.04c-0.44,0 -0.85,0.04 -1.27,0.06c-0.32,0.02 -0.61,0.06 -0.91,0.08c-0.54,0.06 -1.05,0.12 -1.55,0.2h-0.04c-6.41,0.95 -9.92,3.59 -11.82,6.39c-2.78,4.03 -2.22,8.37 -2.22,8.37h38.9c0,0 0.54,-4.24 -2.12,-8.23z" />
		<path id="Path 15" class="shp5" d="M136.06,301.14c-2,0 -3.79,0.13 -5.4,0.37c15.64,2.32 14.04,14.75 14.04,14.75h10.8c0,0 1.95,-15.12 -19.44,-15.12z" />
		<path id="Path 16" class="shp7" d="M181.36,324.89h38.88v-8.64h-38.88z" />
		<path id="Path 17" class="shp8" d="M220.3,316.26c0,0 1.94,-15.12 -19.44,-15.12c-21.39,0 -19.45,15.12 -19.45,15.12z" />
		<path id="Path 18" class="shp5" d="M200.85,301.14c-2,0 -3.79,0.13 -5.4,0.37c15.64,2.32 14.04,14.75 14.04,14.75h10.8c0,0 1.95,-15.12 -19.44,-15.12z" />
		<path id="Path 19" class="shp0" d="M193.35,303.3c-2.98,0 -5.4,2.42 -5.4,5.4c0,2.98 2.42,5.4 5.4,5.4c2.98,0 5.4,-2.42 5.4,-5.4c0,-2.98 -2.42,-5.4 -5.4,-5.4zM128.55,303.3c-2.98,0 -5.4,2.42 -5.4,5.4c0,2.98 2.42,5.4 5.4,5.4c2.98,0 5.4,-2.42 5.4,-5.4c0,-2.98 -2.42,-5.4 -5.4,-5.4z" />
		<path id="Path 20" class="shp4" d="M211.68,106.73c0,0 -0.02,0 -0.02,-0.02c-0.38,-0.32 -3.43,-3.01 -5.57,-6.57c-0.28,-0.5 -0.56,-1.01 -0.79,-1.53c-0.02,-0.02 -0.04,-0.04 -0.04,-0.06c-0.36,-0.73 -0.64,-1.51 -0.85,-2.3c0,0 0,-0.02 -0.02,-0.04c-0.06,-0.26 -0.12,-0.52 -0.16,-0.77l-0.02,-0.02c-0.04,-0.26 -0.06,-0.5 -0.1,-0.75c-0.02,-0.3 -0.04,-0.57 -0.04,-0.87h-71.13c0,0.3 -0.02,0.58 -0.04,0.87c-0.02,0.24 -0.06,0.5 -0.1,0.73c-0.02,0.02 -0.02,0.02 -0.02,0.04c-0.04,0.26 -0.1,0.52 -0.16,0.77c-0.08,0.28 -0.18,0.56 -0.26,0.83c-0.08,0.26 -0.18,0.5 -0.28,0.73c-0.12,0.28 -0.24,0.57 -0.38,0.83c-0.24,0.52 -0.51,1.03 -0.79,1.53c-2.26,3.79 -5.59,6.61 -5.59,6.61c0,0 4.14,20.81 41.04,21.58c0.71,0.02 1.41,0.02 2.14,0.02c0.73,0 1.45,0 2.16,-0.02c2.82,-0.06 5.43,-0.24 7.89,-0.52c0.91,-0.1 1.8,-0.22 2.66,-0.36c0.1,0 0.2,-0.02 0.3,-0.04c0.71,-0.1 1.41,-0.22 2.08,-0.34c0.24,-0.06 0.48,-0.1 0.71,-0.14c0.66,-0.14 1.29,-0.26 1.9,-0.42c0.67,-0.14 1.33,-0.32 1.96,-0.48c2.02,-0.56 3.89,-1.17 5.59,-1.86c0.36,-0.14 0.7,-0.28 1.01,-0.42c0.99,-0.42 1.92,-0.85 2.8,-1.31c0.3,-0.16 0.58,-0.32 0.85,-0.48c1.85,-1.01 3.45,-2.1 4.82,-3.21c0.3,-0.24 0.58,-0.48 0.85,-0.71c0.08,-0.06 0.16,-0.12 0.22,-0.2c0.36,-0.3 0.67,-0.59 0.99,-0.91c2.6,-2.5 4.16,-4.94 5.1,-6.82c0.14,-0.26 0.24,-0.5 0.36,-0.73c0.06,-0.12 0.1,-0.22 0.14,-0.34c0.06,-0.12 0.1,-0.22 0.14,-0.32c0.12,-0.3 0.22,-0.57 0.32,-0.81c0.26,-0.73 0.34,-1.17 0.34,-1.17zM205.29,98.62c-0.02,-0.02 -0.04,-0.04 -0.04,-0.06c-0.34,-0.73 -0.64,-1.51 -0.85,-2.3c0,0 0,-0.02 -0.02,-0.04c-0.06,-0.26 -0.12,-0.51 -0.16,-0.77v-0.04c-0.06,-0.26 -0.08,-0.5 -0.12,-0.73c-0.02,-0.3 -0.04,-0.57 -0.04,-0.87h-71.13c0,0.3 -0.02,0.57 -0.04,0.87c-0.02,0.24 -0.06,0.48 -0.12,0.71v0.02v0.04c-0.04,0.26 -0.1,0.51 -0.16,0.77c-0.08,0.28 -0.18,0.56 -0.26,0.83c-0.1,0.26 -0.18,0.5 -0.28,0.73c-0.12,0.28 -0.24,0.58 -0.38,0.83c-0.24,0.51 -0.52,1.01 -0.81,1.51l0.02,0.02c1.76,1.73 3.65,3.31 5.65,4.78c8.95,6.58 19.99,10.47 31.93,10.47c2.44,0 4.86,-0.16 7.2,-0.48c8.59,-1.15 16.54,-4.32 23.35,-9.02c0.48,-0.32 0.95,-0.65 1.41,-0.99h0.02c1.98,-1.47 3.85,-3.05 5.61,-4.76l0.02,-0.02c-0.3,-0.5 -0.56,-0.99 -0.81,-1.51zM211.7,106.76c0,0 -7.63,-6.48 -7.63,-12.96h-21.34c-5.27,5.17 -9.64,9.45 -9.64,9.45l5.46,24.57c29.6,-3.33 33.15,-21.06 33.15,-21.06zM218.18,35.48v36.02c6.33,-2.88 10.8,-9.86 10.8,-18.01c0,-8.16 -4.47,-15.13 -10.8,-18.01zM117.94,35.94c-5.85,3.11 -9.9,9.8 -9.9,17.55c0,7.22 3.51,13.53 8.71,16.86c0.67,0.44 1.37,0.83 2.08,1.15v-36.02c-0.3,0.14 -0.6,0.28 -0.89,0.46z" />
		<path id="Path 21" class="shp3" d="M222.43,52.44c0.02,-0.24 0,-0.46 -0.02,-0.67c-0.02,-0.54 -0.06,-1.07 -0.12,-1.59c-0.08,-0.95 -0.18,-1.91 -0.32,-2.84c-0.06,-0.46 -0.12,-0.91 -0.2,-1.35c-0.06,-0.3 -0.1,-0.6 -0.16,-0.87c-0.12,-0.73 -0.28,-1.45 -0.46,-2.16c-0.1,-0.5 -0.22,-0.97 -0.34,-1.45c0,-0.06 -0.02,-0.1 -0.04,-0.16c-0.22,-0.85 -0.46,-1.67 -0.71,-2.5c-0.2,-0.65 -0.42,-1.33 -0.65,-1.98c-0.02,-0.06 -0.04,-0.12 -0.06,-0.16c-0.1,-0.26 -0.18,-0.52 -0.28,-0.77c0,0 0,-0.02 -0.02,-0.02c-0.44,-1.17 -0.91,-2.32 -1.43,-3.43l-0.02,-0.02c-0.14,-0.32 -0.28,-0.63 -0.44,-0.95c-0.34,-0.69 -0.67,-1.39 -1.05,-2.08c-0.42,-0.75 -0.83,-1.51 -1.27,-2.22c-0.24,-0.42 -0.5,-0.83 -0.75,-1.23c-0.12,-0.18 -0.22,-0.36 -0.34,-0.52c-0.28,-0.42 -0.55,-0.83 -0.83,-1.23c-0.65,-0.97 -1.37,-1.9 -2.1,-2.84c-0.3,-0.38 -0.61,-0.77 -0.93,-1.15c-0.91,-1.09 -1.86,-2.14 -2.86,-3.13c-0.26,-0.28 -0.52,-0.56 -0.81,-0.81l-0.36,-0.36c-0.75,-0.73 -1.55,-1.45 -2.36,-2.12c-0.44,-0.38 -0.89,-0.75 -1.35,-1.11c-1.19,-0.97 -2.44,-1.88 -3.73,-2.72c-0.4,-0.3 -0.81,-0.55 -1.23,-0.79c-0.28,-0.2 -0.55,-0.36 -0.85,-0.54c-0.26,-0.16 -0.52,-0.32 -0.77,-0.46c-0.24,-0.16 -0.5,-0.3 -0.75,-0.42v-0.02c-1.25,-0.71 -2.54,-1.35 -3.85,-1.94c-6.84,-3.15 -14.46,-4.9 -22.47,-4.9c-23.13,0 -42.88,14.56 -50.56,35.01c-2.22,5.91 -3.43,12.3 -3.43,18.98c0,5.35 0.77,10.55 2.24,15.43c1.13,3.81 2.68,7.46 4.6,10.87c0.54,0.97 1.11,1.92 1.71,2.86c0.08,0.12 0.16,0.22 0.22,0.34c0.3,0.44 0.58,0.85 0.89,1.29c0.32,0.49 0.67,0.97 1.03,1.45c0.36,0.48 0.71,0.93 1.07,1.39c0.38,0.48 0.75,0.91 1.13,1.37c0.64,0.75 1.29,1.47 1.96,2.18c0.18,0.2 0.38,0.4 0.55,0.6c0.36,0.38 0.73,0.73 1.09,1.07c0.58,0.56 1.17,1.09 1.77,1.63v0.02h0.02c0.71,0.65 1.45,1.27 2.2,1.84c0.91,0.73 1.86,1.43 2.82,2.1c0.48,0.32 0.93,0.63 1.41,0.93c1.07,0.7 2.14,1.33 3.23,1.94c0.38,0.2 0.75,0.4 1.13,0.6c0.22,0.12 0.4,0.22 0.59,0.3c0.4,0.22 0.81,0.42 1.21,0.59c1.25,0.6 2.54,1.15 3.83,1.65l1.13,0.42c0.87,0.32 1.74,0.6 2.62,0.85c0.6,0.2 1.19,0.36 1.79,0.5c0.87,0.26 1.77,0.46 2.66,0.64c0.36,0.08 0.73,0.16 1.09,0.22c0.4,0.08 0.79,0.16 1.21,0.22c0.38,0.06 0.75,0.12 1.15,0.18c0.95,0.14 1.92,0.24 2.9,0.32c0.52,0.06 1.05,0.1 1.59,0.12c0.22,0.02 0.44,0.04 0.67,0.02c0.81,0.06 1.65,0.08 2.48,0.08c1.96,0 3.89,-0.1 5.79,-0.32c6.25,-0.65 12.18,-2.38 17.61,-5c4.48,-2.14 8.61,-4.9 12.3,-8.17l0.02,-0.02c7.48,-6.59 13.13,-15.21 16.03,-25.03c1.47,-4.9 2.26,-10.08 2.26,-15.45c0,-0.83 -0.02,-1.67 -0.08,-2.48z" />
		<path id="Path 22" class="shp5" d="M222.43,52.44c0.02,-0.24 0,-0.46 -0.02,-0.67c-0.02,-0.54 -0.06,-1.07 -0.12,-1.59c-0.08,-0.95 -0.18,-1.91 -0.32,-2.84c-0.06,-0.46 -0.12,-0.91 -0.2,-1.35c-0.06,-0.3 -0.1,-0.6 -0.16,-0.87c-0.14,-0.73 -0.28,-1.45 -0.46,-2.16c-0.1,-0.5 -0.22,-0.97 -0.34,-1.45c0,-0.06 -0.02,-0.1 -0.04,-0.16c-0.22,-0.85 -0.46,-1.67 -0.71,-2.5c-0.2,-0.65 -0.42,-1.33 -0.65,-1.98c-0.02,-0.06 -0.04,-0.12 -0.06,-0.16c-0.1,-0.28 -0.2,-0.54 -0.3,-0.79c-0.44,-1.17 -0.91,-2.32 -1.43,-3.43l-0.02,-0.02c-0.14,-0.32 -0.28,-0.63 -0.44,-0.95c-0.34,-0.69 -0.67,-1.39 -1.05,-2.08c-0.42,-0.75 -0.83,-1.51 -1.27,-2.22c-0.24,-0.42 -0.5,-0.83 -0.75,-1.23c-0.12,-0.18 -0.22,-0.36 -0.34,-0.52c-0.28,-0.42 -0.55,-0.83 -0.83,-1.23c-0.65,-0.97 -1.37,-1.9 -2.1,-2.84c-0.3,-0.38 -0.61,-0.77 -0.93,-1.15c-0.91,-1.09 -1.86,-2.14 -2.86,-3.13c-0.26,-0.28 -0.54,-0.56 -0.81,-0.81l-0.36,-0.36c-0.75,-0.73 -1.55,-1.45 -2.36,-2.12c-0.44,-0.38 -0.89,-0.75 -1.35,-1.11c-1.19,-0.97 -2.44,-1.88 -3.73,-2.72c-0.4,-0.3 -0.81,-0.55 -1.23,-0.79c-0.28,-0.2 -0.55,-0.36 -0.85,-0.54c-0.26,-0.16 -0.52,-0.32 -0.77,-0.46c-0.24,-0.16 -0.5,-0.3 -0.75,-0.44v0.02c0.71,1.25 1.35,2.52 1.94,3.83c3.13,6.82 4.9,14.44 4.9,22.45c0,1.23 -0.04,2.44 -0.14,3.63v0.02c-1.84,27.89 -24.87,49.96 -53.14,50.32h-0.02c-0.24,0.02 -0.46,0.02 -0.69,0.02c-9.56,0 -18.53,-2.48 -26.32,-6.84c0.54,0.97 1.11,1.92 1.71,2.86c0.08,0.12 0.16,0.22 0.22,0.34c0.3,0.44 0.58,0.85 0.89,1.29c0.32,0.49 0.67,0.97 1.03,1.45c0.36,0.48 0.71,0.93 1.07,1.39c0.38,0.48 0.75,0.91 1.13,1.37c0.64,0.75 1.29,1.47 1.96,2.18c0.18,0.2 0.38,0.4 0.55,0.6c0.36,0.36 0.73,0.71 1.09,1.07c0.58,0.56 1.17,1.09 1.77,1.63c0,0 0,0.02 0.02,0.02c0.71,0.64 1.45,1.25 2.2,1.84c0.91,0.73 1.86,1.43 2.82,2.1c0.48,0.32 0.93,0.63 1.41,0.93c1.07,0.7 2.14,1.33 3.23,1.94c0.38,0.2 0.75,0.4 1.13,0.6c0.22,0.12 0.4,0.22 0.59,0.3c0.4,0.22 0.81,0.42 1.21,0.59c1.25,0.6 2.54,1.15 3.83,1.65l1.13,0.42c0.87,0.32 1.74,0.6 2.62,0.85c0.6,0.2 1.19,0.36 1.79,0.5c0.87,0.26 1.77,0.46 2.66,0.64c0.36,0.08 0.73,0.16 1.09,0.22c0.4,0.08 0.79,0.16 1.21,0.22c0.38,0.06 0.75,0.12 1.15,0.18c0.95,0.14 1.92,0.24 2.9,0.32c0.52,0.06 1.05,0.1 1.59,0.12c0.22,0.02 0.44,0.04 0.67,0.02c0.81,0.06 1.65,0.08 2.48,0.08c1.96,0 3.89,-0.1 5.79,-0.32c6.25,-0.65 12.18,-2.38 17.61,-5c4.48,-2.14 8.61,-4.9 12.3,-8.17l0.02,-0.02c7.48,-6.59 13.13,-15.21 16.03,-25.03c1.47,-4.9 2.26,-10.08 2.26,-15.45c0,-0.83 -0.02,-1.67 -0.08,-2.48z" />
		<path id="Path 23" class="shp9" d="M168.51,29c-22.66,0 -41.04,6.77 -41.04,27.05c0,20.28 18.37,36.72 41.04,36.72c22.66,0 41.04,-16.44 41.04,-36.72c0,-20.28 -18.37,-27.05 -41.04,-27.05zM194.92,33.61c1.07,2.77 1.66,5.91 1.66,9.48c0,20.28 -18.37,36.72 -41.04,36.72c-8.63,0 -16.63,-2.39 -23.24,-6.47c6.91,11.56 20.52,19.43 36.2,19.43c22.66,0 41.04,-16.44 41.04,-36.72c0,-11.27 -5.69,-18.36 -14.62,-22.44z" />
		<path id="Path 24" class="shp6" d="M151.23,37.64c-8.35,0 -15.12,6.77 -15.12,15.12c0,8.35 6.77,15.12 15.12,15.12c8.35,0 15.12,-6.77 15.12,-15.12c0,-8.35 -6.77,-15.12 -15.12,-15.12z" />
	</g>
</svg>