<?xml version="1.0" encoding="utf-8"?>
<!-- Generator: Adobe Illustrator 22.1.0, SVG Export Plug-In . SVG Version: 6.00 Build 0)  -->
<svg version="1.1" id="Layer_1" xmlns="http://www.w3.org/2000/svg" xmlns:xlink="http://www.w3.org/1999/xlink" x="0px" y="0px"
	 viewBox="0 0 512 512" style="enable-background:new 0 0 512 512;" xml:space="preserve" fill="#fff">
<path d="M469.3,0H42.7C19.1,0,0,19.1,0,42.7v358.4c0,23.6,19.1,42.6,42.7,42.7h136.5v17.1h-34.1c-18.9,0-34.1,15.3-34.1,34.1v8.5
	c0,4.7,3.8,8.5,8.5,8.5h273.1c4.7,0,8.5-3.8,8.5-8.5v-8.5c0-18.9-15.3-34.1-34.1-34.1h-34.1v-17.1h136.5c23.6,0,42.6-19.1,42.7-42.7
	V42.7C512,19.1,492.9,0,469.3,0z M384,494.9H128c0-9.4,7.6-17.1,17.1-17.1h221.9C376.4,477.9,384,485.5,384,494.9z M196.3,460.8
	v-17.1h119.5v17.1H196.3z M42.7,17.1h426.7c14.1,0,25.6,11.5,25.6,25.6v315.7H17.1V42.7C17.1,28.5,28.5,17.1,42.7,17.1z
	 M469.3,426.7H42.7c-14.1,0-25.6-11.5-25.6-25.6v-25.6h477.9v25.6C494.9,415.2,483.5,426.7,469.3,426.7z"/>
<path d="M254.5,131.7c-0.1-0.2-0.3-0.2-0.4-0.4c-1.5-2.1-4-3.4-6.6-3.4c-2.6,0-5.1,1.2-6.6,3.4c-0.1,0.2-0.3,0.2-0.4,0.4l-67,98.2
	c-3.5,5.3-3.6,12.2-0.5,17.7l29.1,50.9c3,5.3,8.7,8.6,14.8,8.6h61.3c6.1,0,11.8-3.3,14.8-8.6l29.1-50.9c3.2-5.6,3-12.5-0.6-17.9
	L254.5,131.7z M247.5,221.9c4.7,0,8.5,3.8,8.5,8.5c0,4.7-3.8,8.5-8.5,8.5c-4.7,0-8.5-3.8-8.5-8.5
	C238.9,225.7,242.8,221.9,247.5,221.9z M278.1,290.1h-61.3l-29.2-50.7l51.3-75.2v42.2c-11.8,4.2-18.8,16.2-16.7,28.5
	c2.1,12.3,12.8,21.3,25.2,21.3c12.5,0,23.1-9,25.2-21.3c2.1-12.3-4.9-24.3-16.7-28.5v-42.2l51.2,75L278.1,290.1z"/>
<path d="M281.6,324.3h-68.3c-4.7,0-8.5,3.8-8.5,8.5c0,4.7,3.8,8.5,8.5,8.5h68.3c4.7,0,8.5-3.8,8.5-8.5
	C290.1,328.1,286.3,324.3,281.6,324.3z"/>
<path d="M85.3,247.5h34.1c9.4,0,17.1-7.6,17.1-17.1v-34.1c0-9.4-7.6-17.1-17.1-17.1h-4.2c12.5-48,50-85.6,98-98v4.2
	c0,9.4,7.6,17.1,17.1,17.1h34.1c9.4,0,17.1-7.6,17.1-17.1v-4.2c48,12.5,85.6,50,98,98h-4.2c-9.4,0-17.1,7.6-17.1,17.1v34.1
	c0,9.4,7.6,17.1,17.1,17.1h34.1c9.4,0,17.1-7.6,17.1-17.1v-34.1c0-9.4-7.6-17.1-17.1-17.1h-12.5C387,135,357.9,97.6,317.7,76.8h33.8
	c4.2,11.8,16.2,18.8,28.5,16.7c12.3-2.1,21.3-12.8,21.3-25.2s-9-23.1-21.3-25.2s-24.3,4.9-28.5,16.7h-69.8v-8.5
	c0-9.4-7.6-17.1-17.1-17.1h-34.1c-9.4,0-17.1,7.6-17.1,17.1v8.5h-69.8C139.3,48,127.3,40.9,115,43S93.8,55.8,93.8,68.3
	s9,23.1,21.3,25.2c12.3,2.1,24.3-4.9,28.5-16.7h33.8C137,97.6,107.9,135,97.8,179.2H85.3c-9.4,0-17.1,7.6-17.1,17.1v34.1
	C68.3,239.8,75.9,247.5,85.3,247.5z M409.6,230.4h-34.1v-34.1h34.1V230.4z M375.5,59.7c4.7,0,8.5,3.8,8.5,8.5c0,4.7-3.8,8.5-8.5,8.5
	c-4.7,0-8.5-3.8-8.5-8.5C366.9,63.6,370.8,59.7,375.5,59.7z M230.4,51.2h34.1v34.1h-34.1V51.2z M119.5,76.8c-4.7,0-8.5-3.8-8.5-8.5
	c0-4.7,3.8-8.5,8.5-8.5c4.7,0,8.5,3.8,8.5,8.5C128,73,124.2,76.8,119.5,76.8z M85.3,196.3h34.1v34.1H85.3V196.3z"/>
</svg>
