<svg version="1.1" id="Слой_1" xmlns="http://www.w3.org/2000/svg" xmlns:xlink="http://www.w3.org/1999/xlink" x="0px" y="0px"
	 viewBox="0 0 147.8 186" style="enable-background:new 0 0 147.8 186;" xml:space="preserve" fill="#526998">
	<defs>
		<rect id="SVGID_1_" width="147.8" height="186"/>
	</defs>
	<clipPath id="SVGID_2_">
		<use xlink:href="#SVGID_1_"  style="overflow:visible;"/>
	</clipPath>
	<path class="st0" d="M72.6,185.6c-8.5,0.1-18.1,0.4-27.7,0.4c-8.4,0.1-16.9-0.1-25.1-2.3c-8.7-2.3-15.1-7.3-17.9-16.2
		c-1.5-4.9-1.9-10-1.7-15c0.7-17.8,7.9-32.8,20.3-45.4c4.9-4.9,10.4-7.8,17.5-6.9c2.8,0.4,5.6,1,8.3,1.7c5.5,1.5,11,3.2,16.6,4.7
		c8,2.1,16.1,1.7,24.1-0.4c6.4-1.7,12.8-3.5,19.2-5c6.5-1.4,12.9-1.3,18.3,3.3c3,2.6,5.7,5.4,8.2,8.4c8.1,9.8,13.1,21.1,14.6,33.7
		c0.7,5.7,0.7,11.5-0.4,17.2c-2,10.6-8.5,17-18.7,19.7c-7.2,1.9-14.6,2.4-22,2.3C95.3,185.9,84.6,185.7,72.6,185.6"/>
	<path class="st0" d="M73.7,98.4c-27.1,0-49.1-22-49.1-49.1C24.6,22,46.6,0,73.9,0c27.2,0,49.2,22,49.2,49.2
		C123.1,76.5,101.1,98.4,73.7,98.4"/>
</svg>
