<svg width="125" height="54" viewBox="0 0 125 54" fill="none" xmlns="http://www.w3.org/2000/svg">
<path d="M2.3 51V41.9H7.656V42.602H3.054V45.826H7.136V46.528H3.054V50.298H7.695V51H2.3ZM14.011 51.195C13.439 51.195 12.88 51.1192 12.334 50.9675C11.788 50.8115 11.3286 50.5883 10.956 50.298L11.372 49.674C11.6103 49.8517 11.8703 50.0012 12.152 50.1225C12.4336 50.2438 12.7305 50.337 13.0425 50.402C13.3588 50.4627 13.686 50.493 14.024 50.493C14.765 50.493 15.3586 50.3435 15.805 50.0445C16.2556 49.7412 16.481 49.297 16.481 48.712C16.481 48.296 16.3336 47.9428 16.039 47.6525C15.7486 47.3622 15.207 47.1 14.414 46.866L13.322 46.541C12.5376 46.307 11.9591 46.008 11.5865 45.644C11.2181 45.2757 11.034 44.8033 11.034 44.227C11.034 43.8327 11.1098 43.4817 11.2615 43.174C11.4131 42.862 11.6276 42.5977 11.905 42.381C12.1866 42.16 12.5181 41.9932 12.8995 41.8805C13.2851 41.7635 13.7076 41.705 14.167 41.705C14.7043 41.705 15.2026 41.783 15.662 41.939C16.1213 42.095 16.5091 42.3008 16.8255 42.5565L16.403 43.148C16.195 42.9877 15.9631 42.8512 15.7075 42.7385C15.4518 42.6258 15.181 42.5413 14.895 42.485C14.609 42.4243 14.3186 42.394 14.024 42.394C13.5733 42.394 13.1746 42.4633 12.828 42.602C12.4856 42.7363 12.217 42.9357 12.022 43.2C11.8313 43.4643 11.736 43.7893 11.736 44.175C11.736 44.4437 11.7945 44.682 11.9115 44.89C12.0328 45.0937 12.2408 45.28 12.5355 45.449C12.8345 45.6137 13.2483 45.774 13.777 45.93L14.96 46.281C15.714 46.502 16.273 46.801 16.637 47.178C17.001 47.555 17.183 48.049 17.183 48.66C17.183 49.1627 17.0616 49.6047 16.819 49.986C16.5806 50.3673 16.2253 50.6642 15.753 50.8765C15.2806 51.0888 14.7 51.195 14.011 51.195ZM24.6604 51.195C23.7201 51.195 22.9011 50.9978 22.2034 50.6035C21.5101 50.2048 20.9727 49.648 20.5914 48.933C20.2101 48.218 20.0194 47.386 20.0194 46.437C20.0194 45.7523 20.1321 45.124 20.3574 44.552C20.5871 43.9757 20.9099 43.4752 21.3259 43.0505C21.7419 42.6215 22.2316 42.29 22.7949 42.056C23.3626 41.822 23.9844 41.705 24.6604 41.705C25.2844 41.705 25.8434 41.783 26.3374 41.939C26.8357 42.095 27.2561 42.316 27.5984 42.602L27.1564 43.213C26.8401 42.9443 26.4782 42.745 26.0709 42.615C25.6636 42.485 25.2151 42.42 24.7254 42.42C24.1361 42.42 23.5987 42.5132 23.1134 42.6995C22.6324 42.8858 22.2186 43.1545 21.8719 43.5055C21.5296 43.8522 21.2652 44.2725 21.0789 44.7665C20.8926 45.2605 20.7994 45.8173 20.7994 46.437C20.7994 47.2907 20.9641 48.0187 21.2934 48.621C21.6227 49.219 22.0886 49.6762 22.6909 49.9925C23.2932 50.3088 24.0017 50.467 24.8164 50.467C25.3234 50.467 25.8022 50.3933 26.2529 50.246C26.7079 50.0943 27.1304 49.8473 27.5204 49.505L27.8844 50.155C27.4251 50.519 26.9267 50.7833 26.3894 50.948C25.8564 51.1127 25.2801 51.195 24.6604 51.195ZM34.9632 51.195C34.2959 51.195 33.674 51.0758 33.0977 50.8375C32.5257 50.5948 32.0252 50.259 31.5962 49.83C31.1715 49.401 30.84 48.8983 30.6017 48.322C30.3634 47.7457 30.2442 47.1217 30.2442 46.45C30.2442 45.774 30.3634 45.1478 30.6017 44.5715C30.84 43.9952 31.1715 43.4925 31.5962 43.0635C32.0252 42.6345 32.5257 42.3008 33.0977 42.0625C33.674 41.8242 34.2959 41.705 34.9632 41.705C35.6262 41.705 36.2437 41.8263 36.8157 42.069C37.3877 42.3117 37.8882 42.6497 38.3172 43.083C38.7462 43.5163 39.0799 44.0212 39.3182 44.5975C39.5609 45.1695 39.6822 45.787 39.6822 46.45C39.6822 47.1217 39.5609 47.7457 39.3182 48.322C39.0799 48.8983 38.7462 49.401 38.3172 49.83C37.8882 50.259 37.3877 50.5948 36.8157 50.8375C36.2437 51.0758 35.6262 51.195 34.9632 51.195ZM34.9632 50.467C35.5092 50.467 36.0205 50.3717 36.4972 50.181C36.9739 49.9903 37.392 49.7195 37.7517 49.3685C38.1114 49.0132 38.393 48.5885 38.5967 48.0945C38.8004 47.6005 38.9022 47.0523 38.9022 46.45C38.9022 45.644 38.7245 44.9398 38.3692 44.3375C38.0182 43.7352 37.5437 43.2672 36.9457 42.9335C36.352 42.5998 35.6912 42.433 34.9632 42.433C34.4172 42.433 33.9059 42.5283 33.4292 42.719C32.9525 42.9097 32.5344 43.1827 32.1747 43.538C31.815 43.889 31.5334 44.3115 31.3297 44.8055C31.126 45.2952 31.0242 45.8433 31.0242 46.45C31.0242 47.256 31.1997 47.9602 31.5507 48.5625C31.906 49.1648 32.3805 49.6328 32.9742 49.9665C33.5722 50.3002 34.2352 50.467 34.9632 50.467ZM43.0088 51V41.9H46.1938C46.7745 41.9 47.275 42.0083 47.6953 42.225C48.12 42.4417 48.445 42.7472 48.6703 43.1415C48.9 43.5315 49.0148 43.9887 49.0148 44.513C49.0148 44.9723 48.9065 45.3797 48.6898 45.735C48.4775 46.086 48.172 46.372 47.7733 46.593C47.379 46.8097 46.9088 46.944 46.3628 46.996L49.4048 51H48.4428L45.4398 47.009H43.7628V51H43.0088ZM43.7628 46.307H45.9728C46.6965 46.307 47.2576 46.1467 47.6563 45.826C48.0593 45.501 48.2608 45.0633 48.2608 44.513C48.2608 43.941 48.0875 43.4795 47.7408 43.1285C47.3941 42.7775 46.8568 42.602 46.1288 42.602H43.7628V46.307ZM54.4956 51V42.602H51.8046V41.9H57.9406V42.602H55.2496V51H54.4956ZM64.6065 51L68.2725 41.9H68.9225L72.7445 51H71.8995L70.8595 48.504H66.4135L65.4255 51H64.6065ZM66.6865 47.802H70.5735L68.5715 43.018L66.6865 47.802ZM79.785 51.195C79.0483 51.195 78.3723 51.0823 77.757 50.857C77.1416 50.6317 76.6086 50.311 76.158 49.895C75.7116 49.479 75.365 48.9828 75.118 48.4065C74.8753 47.8258 74.754 47.1823 74.754 46.476C74.754 45.7653 74.871 45.1197 75.105 44.539C75.3433 43.954 75.677 43.4513 76.106 43.031C76.5393 42.6063 77.0528 42.2792 77.6465 42.0495C78.2401 41.8198 78.8966 41.705 79.616 41.705C79.9496 41.705 80.279 41.7332 80.604 41.7895C80.929 41.8458 81.2366 41.9303 81.527 42.043C81.8216 42.1557 82.086 42.3008 82.32 42.4785L81.956 43.096C81.605 42.875 81.2193 42.7103 80.799 42.602C80.383 42.4893 79.967 42.433 79.551 42.433C78.9486 42.433 78.4005 42.5262 77.9065 42.7125C77.4125 42.8988 76.9878 43.1675 76.6325 43.5185C76.2815 43.8695 76.0106 44.292 75.82 44.786C75.6293 45.28 75.534 45.8347 75.534 46.45C75.534 47.295 75.7095 48.0208 76.0605 48.6275C76.4158 49.2298 76.912 49.6913 77.549 50.012C78.1903 50.3327 78.94 50.493 79.798 50.493C80.279 50.493 80.6993 50.4453 81.059 50.35C81.4186 50.2547 81.6916 50.1463 81.878 50.025V47.243H79.616V46.541H82.606V50.402C82.4023 50.5667 82.1293 50.7097 81.787 50.831C81.449 50.948 81.098 51.0368 80.734 51.0975C80.37 51.1625 80.0536 51.195 79.785 51.195ZM86.376 51V41.9H91.732V42.602H87.13V45.826H91.212V46.528H87.13V50.298H91.771V51H86.376ZM95.3439 51V41.9H95.9939L101.428 49.544V41.9H102.182V51H101.532L96.0979 43.278V51H95.3439ZM110.146 51.195C109.205 51.195 108.386 50.9978 107.689 50.6035C106.995 50.2048 106.458 49.648 106.077 48.933C105.695 48.218 105.505 47.386 105.505 46.437C105.505 45.7523 105.617 45.124 105.843 44.552C106.072 43.9757 106.395 43.4752 106.811 43.0505C107.227 42.6215 107.717 42.29 108.28 42.056C108.848 41.822 109.47 41.705 110.146 41.705C110.77 41.705 111.329 41.783 111.823 41.939C112.321 42.095 112.741 42.316 113.084 42.602L112.642 43.213C112.325 42.9443 111.963 42.745 111.556 42.615C111.149 42.485 110.7 42.42 110.211 42.42C109.621 42.42 109.084 42.5132 108.599 42.6995C108.118 42.8858 107.704 43.1545 107.357 43.5055C107.015 43.8522 106.75 44.2725 106.564 44.7665C106.378 45.2605 106.285 45.8173 106.285 46.437C106.285 47.2907 106.449 48.0187 106.779 48.621C107.108 49.219 107.574 49.6762 108.176 49.9925C108.778 50.3088 109.487 50.467 110.302 50.467C110.809 50.467 111.287 50.3933 111.738 50.246C112.193 50.0943 112.616 49.8473 113.006 49.505L113.37 50.155C112.91 50.519 112.412 50.7833 111.875 50.948C111.342 51.1127 110.765 51.195 110.146 51.195ZM118.586 51V46.944L115.349 41.9H116.259L118.989 46.203L121.693 41.9H122.577L119.34 46.944V51H118.586Z" fill="white"/>
<path d="M21.85 15.625C21.85 14.6875 21.7484 13.9453 21.5453 13.3984C21.3422 12.8516 21.0062 12.4375 20.5375 12.1562C20.0687 11.875 19.4516 11.6953 18.6859 11.6172C17.9203 11.5391 16.975 11.5 15.85 11.5H9.82656C8.82656 11.5 7.98281 11.5312 7.29531 11.5938C6.61562 11.6484 6.05312 11.7656 5.60781 11.9453C5.1625 12.125 4.81875 12.3828 4.57656 12.7188C4.33437 13.0547 4.15859 13.5 4.04922 14.0547C3.93984 14.6094 3.87734 15.293 3.86172 16.1055C3.84609 16.9102 3.83828 17.875 3.83828 19C3.83828 20.125 3.84609 21.0938 3.86172 21.9062C3.88515 22.7109 3.95156 23.3906 4.06094 23.9453C4.17031 24.5 4.34219 24.9453 4.57656 25.2812C4.81875 25.6172 5.1625 25.875 5.60781 26.0547C6.05312 26.2344 6.61562 26.3555 7.29531 26.418C7.98281 26.4727 8.82656 26.5 9.82656 26.5H15.8617C16.7367 26.5 17.4906 26.4766 18.1234 26.4297C18.7562 26.3828 19.2953 26.2969 19.7406 26.1719C20.1859 26.0469 20.5453 25.875 20.8187 25.6562C21.0922 25.4375 21.3031 25.1641 21.4516 24.8359C21.6078 24.5 21.7133 24.1016 21.768 23.6406C21.8227 23.1719 21.85 22.625 21.85 22V20.875H12.8266V19H24.1V22C24.1 22.75 24.0531 23.4297 23.9594 24.0391C23.8656 24.6406 23.6977 25.1797 23.4555 25.6562C23.2211 26.125 22.9047 26.5312 22.5062 26.875C22.1078 27.2188 21.6039 27.5039 20.9945 27.7305C20.3852 27.9492 19.6586 28.1094 18.8148 28.2109C17.9711 28.3203 16.9867 28.375 15.8617 28.375H9.82656C8.45156 28.375 7.2914 28.2891 6.34609 28.1172C5.40859 27.9531 4.63515 27.7031 4.02578 27.3672C3.4164 27.0234 2.94375 26.5938 2.60781 26.0781C2.27969 25.5625 2.0375 24.957 1.88125 24.2617C1.73281 23.5664 1.64687 22.7812 1.62344 21.9062C1.6 21.0312 1.58828 20.0625 1.58828 19C1.58828 17.9375 1.6 16.9688 1.62344 16.0938C1.64687 15.2188 1.73281 14.4336 1.88125 13.7383C2.0375 13.043 2.27969 12.4375 2.60781 11.9219C2.94375 11.4062 3.4164 10.9805 4.02578 10.6445C4.63515 10.3008 5.40859 10.0469 6.34609 9.88281C7.2914 9.71094 8.45156 9.625 9.82656 9.625H15.85C16.975 9.625 17.9594 9.67969 18.8031 9.78906C19.6469 9.89062 20.3734 10.0508 20.9828 10.2695C21.5922 10.4805 22.0961 10.75 22.4945 11.0781C22.9008 11.4062 23.2211 11.793 23.4555 12.2383C23.6977 12.6836 23.8656 13.1875 23.9594 13.75C24.0531 14.3125 24.1 14.9375 24.1 15.625H21.85ZM58.0867 28H55.8367V24.625C55.8367 24.0781 55.825 23.6094 55.8016 23.2188C55.7859 22.8203 55.7195 22.4805 55.6023 22.1992C55.493 21.918 55.3172 21.6914 55.075 21.5195C54.8328 21.3477 54.4891 21.2148 54.0437 21.1211C53.5984 21.0273 53.032 20.9648 52.3445 20.9336C51.6648 20.8945 50.825 20.875 49.825 20.875H39.7117V28H37.4617V10H50.2C51.575 10 52.7312 10.0508 53.6687 10.1523C54.6141 10.2461 55.3914 10.3906 56.0008 10.5859C56.618 10.7812 57.0906 11.0234 57.4187 11.3125C57.7547 11.6016 57.9969 11.9414 58.1453 12.332C58.3016 12.7227 58.3914 13.1602 58.4148 13.6445C58.4461 14.1289 58.4617 14.6641 58.4617 15.25C58.4617 16 58.407 16.6602 58.2977 17.2305C58.1961 17.793 58.0203 18.2734 57.7703 18.6719C57.5203 19.0703 57.1883 19.3906 56.7742 19.6328C56.3602 19.8672 55.8406 20.0312 55.2156 20.125C55.8406 20.2188 56.3406 20.3828 56.7156 20.6172C57.0906 20.8516 57.3797 21.1562 57.5828 21.5312C57.7859 21.9062 57.9187 22.3516 57.9812 22.8672C58.0516 23.3828 58.0867 23.9688 58.0867 24.625V28ZM39.7117 19H50.2C51.2 19 52.0398 18.9844 52.7195 18.9531C53.407 18.9141 53.9734 18.8477 54.4187 18.7539C54.8641 18.6602 55.2078 18.5273 55.45 18.3555C55.6922 18.1836 55.868 17.957 55.9773 17.6758C56.0945 17.3945 56.1609 17.0586 56.1766 16.668C56.2 16.2695 56.2117 15.7969 56.2117 15.25C56.2117 14.7422 56.2 14.3047 56.1766 13.9375C56.1609 13.5703 56.0945 13.2617 55.9773 13.0117C55.868 12.7617 55.6922 12.5625 55.45 12.4141C55.2078 12.2656 54.8641 12.1523 54.4187 12.0742C53.9734 11.9883 53.407 11.9336 52.7195 11.9102C52.0398 11.8867 51.2 11.875 50.2 11.875H39.7117V19ZM89.4367 23.875H75.1867L72.9367 28H70.3117L80.8117 10H83.8117L94.3117 28H91.6867L89.4367 23.875ZM88.3117 22L82.3117 11.5L76.3117 22H88.3117ZM106.912 28V10H124.162V11.875H109.162V17.875H123.412V19.75H109.162V28H106.912Z" fill="url(#paint0_linear_1_1295)"/>
<defs>
<linearGradient id="paint0_linear_1_1295" x1="61.9048" y1="9.30952" x2="61.9048" y2="27.9286" gradientUnits="userSpaceOnUse">
<stop stop-color="#E4CF95"/>
<stop offset="1" stop-color="#BA9356"/>
</linearGradient>
</defs>
</svg>
