<?xml version="1.0" encoding="utf-8"?><svg viewBox="0 0 72 50" xmlns="http://www.w3.org/2000/svg" xmlns:xlink="http://www.w3.org/1999/xlink"><style>:root>svg{display:none}:root>svg:target{display:block}</style><svg viewBox="0 0 50 50" id="play" xmlns="http://www.w3.org/2000/svg"><circle cx="25" cy="25" r="25"/><path d="M32.5 22.402c2 1.155 2 4.041 0 5.196l-9 5.196c-2 1.155-4.5-.288-4.5-2.598V19.804c0-2.31 2.5-3.753 4.5-2.598l9 5.196z"/></svg><svg viewBox="0 0 72 14" id="sheer" xmlns="http://www.w3.org/2000/svg"><g clip-path="url(#ba)" fill-rule="evenodd" clip-rule="evenodd"><path d="M47.452 7.71c.043.28.064.496.128.712.47 2.003 2.026 3.338 4.052 3.51 1.792.151 3.2-.538 4.245-2.024.511-.711 1.343-.84 2.004-.259.384.323.427.754.128 1.163-.17.216-.32.431-.49.668-.683.948-1.579 1.594-2.688 1.982-1.791.624-3.583.71-5.353.043-2.388-.883-3.796-2.65-4.201-5.17-.235-1.55-.085-3.101.618-4.501C46.92 1.83 48.52.604 50.737.237 52.208 0 53.658.151 55.023.819c1.941.926 3.114 2.498 3.562 4.587.128.582.17 1.163.213 1.745.043.366-.128.517-.49.538H47.922c-.15.022-.256.022-.47.022zm9.022-2.196c-.278-1.874-2.517-3.51-4.586-3.382-2.154.13-4.286 1.788-4.372 3.382h8.958zM30.519 7.646c.021.194.043.323.064.474.405 2.218 2.197 3.748 4.415 3.79 1.684.022 2.986-.667 3.967-2.045.511-.733 1.428-.819 2.068-.173.299.323.363.711.064 1.099a3.323 3.323 0 01-.405.517c-.725 1.076-1.727 1.766-2.943 2.175-1.792.603-3.583.646-5.31-.043-2.474-.97-3.86-2.886-4.16-5.557-.149-1.292-.02-2.542.512-3.726 1.046-2.24 2.73-3.619 5.183-3.942 1.3-.172 2.602-.064 3.796.431 2.176.905 3.434 2.606 3.924 4.91.086.518.15 1.078.171 1.595.021.43-.064.517-.512.517H31.095c-.192-.022-.363-.022-.576-.022zm9.064-2.197c-.277-1.852-2.453-3.424-4.585-3.381-2.069.043-4.223 1.723-4.394 3.381h8.979zm28.045 3.188c.17.151.256.237.363.323 1.151.991 2.303 1.982 3.433 2.973.064.064.17.15.235.215.426.43.469 1.055.064 1.486-.384.431-.981.496-1.43.13-.81-.668-1.577-1.357-2.366-2.025-1.13-.97-2.24-1.939-3.37-2.908-.085-.086-.213-.172-.384-.301 0 .237-.021.387-.021.538v3.812c-.043.603-.49 1.034-1.088.991-.576-.021-.96-.452-.981-1.055V.496c0-.388.043-.453.405-.453.49-.021.981-.021 1.472-.021 1.173 0 2.388.043 3.561-.022 1.984-.086 4.202 1.53 4.415 3.877.192 2.111-1.237 4.114-3.37 4.545-.277.065-.575.15-.938.215zM64.024 6.98c.128.021.213.021.277.021h2.965c.277 0 .575-.021.853-.129.917-.28 1.642-.84 1.876-1.83.406-1.702-.853-3.253-2.58-3.253h-3.071c-.128 0-.235.022-.363.022.043 1.723.043 3.424.043 5.169zm-41.183.688h-5.8c0 .172-.022.323-.022.474v4.501c0 .194 0 .388-.043.539-.15.452-.618.732-1.066.71a1.07 1.07 0 01-.96-.926c-.021-.129 0-.237 0-.366 0-5.363-.021-6.01-.021-11.35 0-.216.021-.431.085-.625.17-.453.64-.711 1.13-.646.448.064.832.452.875.926.021.15 0 .28 0 .43 0 2.757.021.797.021 3.554 0 .173.021.323.021.474.363.086 5.396.086 5.78 0 0-.129.021-.258.021-.409V.948c.043-.539.448-.948.981-.97a1.068 1.068 0 011.088.927c.021.129 0 .237 0 .366v11.652c-.064.539-.533.97-1.066.948-.534-.022-.96-.452-1.024-.99V7.667zM5.865 13.979c-1.386-.022-2.687-.324-3.882-1.056a5.373 5.373 0 01-1.365-1.141c-.191-.237-.426-.474-.511-.776-.128-.388-.15-.818.213-1.163.405-.388.96-.538 1.514-.172.533.388.79.883 1.237 1.335.64.646 1.472.991 2.367 1.099.832.086 1.643.064 2.453-.216.32-.129.661-.28.938-.495.512-.582.661-1.4.043-1.96-.299-.259-.682-.452-1.066-.625-.939-.409-1.92-.689-2.9-.947-.811-.194-1.579-.453-2.39-.69-.298-.086-.597-.258-.874-.409C.896 6.353.47 5.708.342 4.89.106 3.188.724 1.66 2.196.905 4.5-.237 6.889-.13 9.192 1.185c.426.237.832.603 1.194.926.278.237.49.581.597.948.107.452-.106.926-.66 1.055-.47.108-.896-.043-1.238-.41a1.507 1.507 0 01-.17-.215c-.534-.818-1.323-1.27-2.261-1.443-.938-.172-1.877-.15-2.773.216-.32.129-.66.301-.917.538-.383.517-.533 1.206-.02 1.852.404.388.874.603 1.385.711 1.13.28 2.282.582 3.413.862.725.194 1.429.43 2.09.818.853.452 1.471 1.12 1.685 2.09.256 1.184 0 2.304-.917 3.166-1.046.947-2.24 1.464-3.626 1.615-.384.043-.768.043-1.11.065z"/></g><defs><clipPath id="ba"><path d="M0 0h72v14H0z"/></clipPath></defs></svg><svg viewBox="0 0 18 18" id="wa" xmlns="http://www.w3.org/2000/svg"><g clip-path="url(#ca)"><path d="M15.372 2.615A8.928 8.928 0 009.036 0C4.104 0 .072 3.994.072 8.92a8.99 8.99 0 001.188 4.46L0 18l4.752-1.236a8.959 8.959 0 004.284 1.093c4.932 0 8.964-3.994 8.964-8.92a8.85 8.85 0 00-2.628-6.322zm-6.336 13.72a7.473 7.473 0 01-3.798-1.04l-.27-.16-2.808.752.756-2.74-.18-.287a7.435 7.435 0 01-1.134-3.94c-.018-4.084 3.33-7.416 7.434-7.416 1.998 0 3.852.77 5.274 2.168a7.35 7.35 0 012.178 5.247c0 4.084-3.348 7.415-7.452 7.415zm4.086-5.553c-.216-.107-1.332-.645-1.53-.716-.198-.072-.36-.108-.504.107-.144.215-.576.717-.702.878-.126.143-.27.16-.486.053-.216-.107-.954-.34-1.8-1.11-.666-.591-1.116-1.325-1.242-1.54-.126-.215-.018-.34.09-.448.108-.107.216-.269.342-.394.108-.125.144-.215.216-.376a.43.43 0 00-.018-.394c-.054-.108-.504-1.2-.684-1.648-.18-.43-.36-.376-.504-.376h-.432a.793.793 0 00-.594.286c-.198.215-.792.77-.792 1.863s.81 2.15.918 2.31c.108.144 1.584 2.4 3.834 3.368.54.233.954.358 1.278.465.54.162 1.026.144 1.404.09.432-.072 1.332-.537 1.512-1.057.18-.52.18-.967.126-1.056-.054-.144-.198-.197-.432-.305z"/></g><defs><clipPath id="ca"><path d="M0 0h18v18H0z"/></clipPath></defs></svg></svg>