<?xml version="1.0" encoding="utf-8"?>
<!-- Generator: Adobe Illustrator 22.1.0, SVG Export Plug-In . SVG Version: 6.00 Build 0)  -->
<svg version="1.1" id="Layer_1" xmlns="http://www.w3.org/2000/svg" xmlns:xlink="http://www.w3.org/1999/xlink" x="0px" y="0px"
	 viewBox="0 0 1.7 1.7" style="enable-background:new 0 0 1.7 1.7;" xml:space="preserve">
<style type="text/css">
	.st0{fill:#231F20;}
</style>
<path class="st0" d="M0.1,1.7L0.1,1.7C0,1.6,0,1.4,0.1,1.3l1.3-1.3C1.4,0,1.6,0,1.7,0.1l0,0c0.1,0.1,0.1,0.2,0,0.3L0.4,1.7
	C0.3,1.7,0.2,1.7,0.1,1.7z"/>
<path class="st0" d="M1.7,1.7L1.7,1.7c-0.1,0.1-0.2,0.1-0.3,0L0.1,0.4C0,0.3,0,0.2,0.1,0.1l0,0C0.2,0,0.3,0,0.4,0.1l1.3,1.3
	C1.7,1.4,1.7,1.6,1.7,1.7z"/>
</svg>
