<?xml version="1.0" encoding="utf-8"?>
<!-- Generator: Adobe Illustrator 22.1.0, SVG Export Plug-In . SVG Version: 6.00 Build 0)  -->
<svg version="1.1" id="Layer_1" xmlns="http://www.w3.org/2000/svg" xmlns:xlink="http://www.w3.org/1999/xlink" x="0px" y="0px"
	 viewBox="0 0 19.7 20" style="enable-background:new 0 0 19.7 20;" xml:space="preserve">
<path class="st0" d="M11.3,4.5l1.4,1.4l-6.3,6.4c-0.3,0.3-0.3,0.8,0,1.2c0.3,0.3,0.8,0.3,1.1,0l7-7.1c1-1,1-2.7,0-3.7s-2.7-1-3.6,0
	l-7.6,7.7c-1.7,1.7-1.7,4.6,0,6.3s4.5,1.7,6.2,0l8.8-9l1.4,1.4l-8.8,9c-2.4,2.5-6.6,2.5-9,0c-2.5-2.5-2.5-6.6,0-9.1l7.6-7.7
	c1.7-1.8,4.7-1.8,6.5,0c1.8,1.8,1.8,4.7,0,6.5l-7,7.1c-1.1,1.1-2.9,1.1-4,0s-1.1-2.9,0-4L11.3,4.5z"/>
</svg>
