<?xml version="1.0" encoding="utf-8"?>
<!-- Generator: Adobe Illustrator 22.0.1, SVG Export Plug-In . SVG Version: 6.00 Build 0)  -->
<svg version="1.1" id="Layer_1" xmlns="http://www.w3.org/2000/svg" xmlns:xlink="http://www.w3.org/1999/xlink" x="0px" y="0px"
	 viewBox="0 0 479.7 154.6" style="enable-background:new 0 0 479.7 154.6;" xml:space="preserve">
<style type="text/css">
	.st0{fill-rule:evenodd;clip-rule:evenodd;fill:#FFFFFF;}
	.st1{clip-path:url(#SVGID_2_);fill:#FFFFFF;}
</style>
<path class="st0" d="M191.9,129.3c-3.8,0-6.5-0.1-8.2-0.2l-0.1,0.1c0.1,0.7,0.1,2.2,0.1,4.4l0.1,0.1l0.7,0l0.1-0.1l0.2-1.3
	c0.1-0.8,0.2-1.4,0.3-1.5c0.1-0.2,0.5-0.3,1.1-0.3c0.6,0,1.4,0,2.3,0l2.1,0c0,2.3,0.1,3.5,0.1,3.7l0,8.2l0,3c0,1,0,1.6-0.1,1.9
	c-0.1,0.3-0.1,0.5-0.2,0.6c-0.1,0.1-0.3,0.2-0.6,0.2c-0.3,0.1-0.9,0.1-1.8,0.1l-0.1,0.1l0,0.7l0.1,0.1c2.4-0.1,3.7-0.1,4-0.1
	c0.3,0,1.6,0,4,0.1l0.1-0.1l0-0.7l-0.1-0.1c-1-0.1-1.6-0.1-1.9-0.2c-0.2-0.1-0.4-0.1-0.5-0.3c-0.1-0.1-0.2-0.3-0.2-0.6
	c-0.1-0.3-0.1-1-0.1-2.1l0-2.7l0-8.2c0-0.3,0-1.6,0.1-3.7l2.7,0c0.6,0,1.2,0,1.7,0.1c0.5,0.1,0.8,0.1,0.9,0.2
	c0.1,0.1,0.2,0.2,0.2,0.3c0.1,0.2,0.1,0.6,0.2,1.3l0.2,1.3l0.1,0.1l0.6,0l0.1-0.1c0-2.1,0.1-3.6,0.2-4.4l-0.1-0.1
	C198.6,129.3,195.8,129.3,191.9,129.3L191.9,129.3z"/>
<path class="st0" d="M201.8,130l0.1,0.1l1.1,0.1c0.3,0.1,0.5,0.1,0.7,0.1c0.1,0.1,0.2,0.1,0.3,0.2c0.1,0.1,0.1,0.2,0.2,0.4
	c0,0.2,0.1,0.5,0.1,1c0,0.4,0,1,0,1.7l0,3.2l0,5.2c0,0.8,0,2-0.1,3.6c-0.1,1.6-0.1,2.4-0.2,2.5c-0.1,0.1-0.4,0.2-1,0.5l-0.1,0.1
	l0,0.5l0.1,0.1c1-0.1,1.9-0.1,2.8-0.1l3.8,0c2.9,0,5.3,0.1,7,0.1l0.1-0.1c0-0.7,0.1-1.6,0.1-2.6c0.1-1,0.2-1.7,0.3-2.1l-0.1-0.1
	l-0.7,0l-0.1,0.1c0,0.2-0.1,0.7-0.4,1.5c-0.2,0.8-0.3,1.3-0.4,1.5c-0.5,0.2-1.1,0.4-1.6,0.4c-0.6,0.1-2,0.1-4.3,0.1l-2.6,0
	c-0.1-1-0.1-2.4-0.1-4.4c0-1.8,0-3.2,0.1-4c1.1-0.1,1.9-0.1,2.5-0.1c1,0,1.8,0,2.3,0.1c0.5,0.1,0.9,0.2,1,0.2
	c0.1,0.1,0.2,0.2,0.3,0.3c0.1,0.1,0.1,0.5,0.2,1.2l0.1,0.9l0.1,0.1l0.6,0l0.1-0.1l0-3.2c0-1,0.1-2.1,0.1-3.1l-0.1-0.1l-0.6,0
	l-0.1,0.1l-0.1,0.9c0,0.5-0.1,0.8-0.2,0.9c0,0.2-0.1,0.3-0.2,0.3c-0.1,0.1-0.5,0.1-1,0.2c-0.6,0-1.3,0.1-2.2,0c-0.9,0-1.8,0-2.8-0.1
	l0-2.9l0.1-2.6l0.1-2.3c1.2-0.1,2.1-0.1,2.8-0.1c0.5,0,1.3,0,2.4,0.1c1,0.1,1.9,0.2,2.5,0.5c0.1,0.7,0.2,1.5,0.2,2.3
	c0,0.1,0,0.1,0,0.2l0.1,0.1l0.7,0l0.1-0.1c0.1-1.9,0.3-3.3,0.6-4.2l-0.1-0.1c-2.4,0-5.1,0.1-8.2,0c-0.9,0-3,0-6.2-0.1l-0.1,0.1
	L201.8,130z"/>
<path class="st0" d="M222.1,149.2c0.9,0,2,0,3.2,0.1l0.1-0.1l0-0.7l-0.1-0.1c-1,0-1.7-0.1-1.9-0.2c-0.2-0.1-0.4-0.3-0.4-0.5
	c0-0.3,0.1-0.8,0.4-1.4l1.6-3.6l8.1,0l1.7,4.3c0.1,0.3,0.2,0.6,0.2,0.8c0,0.3-0.1,0.4-0.4,0.5c-0.3,0.1-0.9,0.1-2,0.1l-0.1,0.1
	l0,0.7l0.1,0.1c1.6,0,3.1-0.1,4.7-0.1c0.8,0,1.7,0,2.7,0.1l0.1-0.1l0-0.7l-0.1-0.1c-0.6,0-1-0.1-1.2-0.1c-0.2-0.1-0.3-0.1-0.4-0.3
	c-0.1-0.1-0.3-0.5-0.6-1.1c-0.3-0.6-0.6-1.2-0.8-1.7l-0.8-1.9l-5.9-14.2l-0.9,0c-0.7,1.7-1.5,3.4-2.2,5.1l-3.9,8.7l-1.5,3.2
	c-0.5,1-0.8,1.6-0.9,1.8c-0.2,0.2-0.3,0.3-0.6,0.4c-0.2,0.1-0.6,0.1-1.3,0.1l-0.1,0.1l0,0.7l0.1,0.1
	C220,149.3,221,149.2,222.1,149.2 M229.1,133l3.5,8.5l-7.1,0L229.1,133z"/>
<path class="st0" d="M249.7,129.6c-3.8,0-6.5-0.1-8.2-0.2l-0.1,0.1c0.1,0.7,0.1,2.2,0.1,4.4l0.1,0.1l0.7,0l0.1-0.1l0.2-1.3
	c0.1-0.8,0.2-1.4,0.3-1.5c0.1-0.2,0.5-0.3,1.1-0.3c0.6,0,1.4,0,2.3,0l2.1,0c0,2.3,0.1,3.5,0.1,3.7l0,8.2l0,3c0,1,0,1.6-0.1,1.9
	c-0.1,0.3-0.1,0.5-0.2,0.6c-0.1,0.1-0.3,0.2-0.6,0.2c-0.3,0.1-0.9,0.1-1.8,0.1l-0.1,0.1l0,0.7l0.1,0.1c2.4-0.1,3.7-0.1,4-0.1
	c0.3,0,1.6,0,4,0.1l0.1-0.1l0-0.7l-0.1-0.1c-1-0.1-1.6-0.1-1.9-0.2c-0.2-0.1-0.4-0.1-0.5-0.3c-0.1-0.1-0.2-0.3-0.2-0.6
	c-0.1-0.3-0.1-1-0.1-2.1l0-2.7l0-8.2c0-0.3,0-1.6,0.1-3.7l2.7,0c0.6,0,1.2,0,1.7,0.1c0.5,0.1,0.8,0.1,0.9,0.2
	c0.1,0.1,0.2,0.2,0.2,0.3c0.1,0.2,0.1,0.6,0.2,1.3l0.2,1.3l0.1,0.1l0.6,0l0.1-0.1c0-2.1,0.1-3.6,0.2-4.4l-0.1-0.1
	C256.3,129.6,253.6,129.6,249.7,129.6"/>
<path class="st0" d="M259.3,129.6l0,0.7l0.1,0.1c1,0.1,1.6,0.1,1.9,0.2c0.3,0.1,0.4,0.1,0.5,0.2c0.1,0.1,0.1,0.3,0.2,0.6
	c0.1,0.3,0.1,1,0.1,2.1l0,2.7l0,6.5l0,3c0,1-0.1,1.6-0.1,1.9c-0.1,0.3-0.1,0.5-0.2,0.6c-0.1,0.1-0.3,0.2-0.6,0.2
	c-0.3,0.1-0.9,0.1-1.7,0.1l-0.1,0.1l0,0.7l0.1,0.1c2.4-0.1,3.7-0.1,4-0.1c0.3,0,1.7,0,4.1,0.1l0.1-0.1l0-0.7l-0.1-0.1
	c-1-0.1-1.6-0.1-1.9-0.2c-0.3-0.1-0.4-0.1-0.5-0.3c-0.1-0.1-0.2-0.3-0.2-0.6c-0.1-0.3-0.1-1-0.1-2.1l0-2.7l0-6.5
	c0-2.8,0.1-4.5,0.2-5.3c1-0.3,2-0.5,2.8-0.4c1.6,0,2.7,0.4,3.5,1.1c0.8,0.8,1.2,1.8,1.2,3.1c0,1.3-0.4,2.3-1.1,3.1
	c-0.8,0.8-1.7,1.2-3,1.2c-0.4,0-1-0.1-1.7-0.3l-0.1,0.1l0.2,0.9c0.7,0.1,1.4,0.2,2,0.2c0.8,0,1.5-0.1,2.3-0.4
	c0.7-0.2,1.4-0.6,2.1-1.2c0.7-0.5,1.2-1.2,1.7-2c0.4-0.8,0.6-1.6,0.6-2.5c0-1-0.3-1.9-0.9-2.6c-0.5-0.7-1.3-1.2-2.1-1.5
	c-0.8-0.3-1.9-0.4-3.3-0.4c-0.3,0-1,0-2.1,0c-1.1,0-2.1,0-3,0c-0.7,0-2.2,0-4.5-0.1L259.3,129.6z"/>
<path class="st0" d="M279.7,149.6c0.9,0,2,0,3.2,0.1l0.1-0.1l0-0.7l-0.1-0.1c-1,0-1.7-0.1-1.9-0.2c-0.2-0.1-0.4-0.3-0.4-0.5
	c0-0.3,0.1-0.8,0.4-1.4l1.6-3.6l8.1,0l1.7,4.3c0.1,0.3,0.2,0.6,0.2,0.8c0,0.3-0.1,0.4-0.4,0.5c-0.3,0.1-0.9,0.1-2,0.1l-0.1,0.1
	l0,0.7l0.1,0.1c1.6,0,3.1-0.1,4.7-0.1c0.8,0,1.7,0,2.7,0.1l0.1-0.1l0-0.7l-0.1-0.1c-0.6,0-1-0.1-1.2-0.1c-0.2-0.1-0.3-0.1-0.4-0.3
	c-0.1-0.1-0.3-0.5-0.6-1.1c-0.3-0.6-0.6-1.2-0.8-1.7l-0.8-1.9l-5.9-14.2l-0.9,0c-0.7,1.7-1.5,3.4-2.2,5.1l-3.9,8.7l-1.5,3.2
	c-0.5,1-0.8,1.6-0.9,1.8c-0.2,0.2-0.3,0.3-0.6,0.4c-0.2,0.1-0.6,0.1-1.3,0.1l-0.1,0.1l0,0.7l0.1,0.1
	C277.6,149.6,278.6,149.6,279.7,149.6 M286.7,133.3l3.5,8.5l-7.1,0L286.7,133.3z"/>
<path class="st0" d="M306.4,149.8c1-0.1,1.9-0.1,2.6-0.1c1.1,0,2,0,2.8,0.1l5.7-8.7c3-4.5,4.9-7.4,5.7-8.6l0.3,0.1l-0.1,10.5
	c0,0.7,0,1.6,0,2.7c0,1.2,0,1.9-0.1,2.2c0,0.3-0.1,0.5-0.2,0.6c-0.1,0.1-0.3,0.2-0.6,0.3c-0.3,0.1-0.9,0.1-1.7,0.1l-0.1,0.1l0,0.7
	l0.1,0.1c2.4-0.1,3.8-0.1,4-0.1c0.4,0,1.1,0,2.2,0.1c1.2,0,1.8,0.1,1.8,0.1l0.1-0.1l0-0.7l-0.1-0.1c-0.8,0-1.4-0.1-1.7-0.1
	c-0.3-0.1-0.5-0.1-0.7-0.3c-0.1-0.1-0.2-0.3-0.2-0.6c0-0.3-0.1-1-0.1-2c0-1.1,0-2,0-2.8l0-6.5c0-0.7,0-1.7,0-2.9
	c0-1.2,0.1-1.9,0.1-2.1c0-0.2,0.1-0.4,0.2-0.5c0.1-0.1,0.3-0.2,0.6-0.2c0.3-0.1,0.9-0.1,1.8-0.1l0.1-0.1l0-0.7l-0.1-0.1
	c-0.9,0.1-1.8,0.1-2.7,0.1c-0.8,0-1.8,0-2.7-0.1c-0.6,1-2.1,3.5-4.7,7.5c-2.5,3.9-4.8,7.3-6.8,10.2l-0.2-0.1l0.1-10.8
	c0-0.7,0-1.6,0-2.7c0-1.2,0.1-1.9,0.1-2.1c0.1-0.3,0.1-0.5,0.2-0.6c0.1-0.1,0.3-0.2,0.6-0.3c0.3-0.1,0.9-0.1,1.7-0.1l0.1-0.1l0-0.7
	l-0.1-0.1c-2.5,0.1-3.8,0.1-4,0.1c-0.4,0-1.1,0-2.2-0.1c-1.2,0-1.8-0.1-1.8-0.1l-0.1,0.1l0,0.7l0.1,0.1c0.8,0,1.4,0.1,1.7,0.2
	c0.3,0.1,0.5,0.1,0.6,0.2c0.1,0.1,0.2,0.2,0.2,0.4c0.1,0.2,0.1,0.9,0.1,2c0,1.1,0,2.1,0,3.1l0,6.5c0,0.7,0,1.6,0,2.7
	c0,1.1-0.1,1.8-0.1,2.1c0,0.3-0.1,0.5-0.2,0.6c-0.1,0.1-0.3,0.2-0.6,0.3c-0.3,0.1-0.9,0.1-1.7,0.1l-0.1,0.1l0,0.7L306.4,149.8z"/>
<path class="st0" d="M343.2,136.7l0-3c0-1,0-1.6,0.1-1.9c0.1-0.3,0.1-0.5,0.3-0.6c0.1-0.1,0.3-0.2,0.6-0.2c0.3-0.1,0.9-0.1,1.8-0.1
	l0.1-0.1l0-0.7l-0.1-0.1c-2.3,0.1-3.7,0.1-4.1,0.1c-0.3,0-1.7,0-4-0.1l-0.1,0.1l0,0.7l0.1,0.1c1,0.1,1.6,0.1,1.9,0.2
	c0.3,0.1,0.4,0.1,0.5,0.2c0.1,0.1,0.1,0.3,0.2,0.6c0,0.3,0.1,1,0,2l0,2.8l0,6.5c0,2.7-0.1,4.2-0.1,4.7c0,0.4-0.1,0.7-0.4,0.9
	c-0.2,0.2-1,0.3-2.3,0.3l-0.1,0.1l0,0.7l0.1,0.1c2.5-0.1,3.9-0.1,4-0.1c0.4,0,0.9,0,1.6,0c1.5,0.1,2.4,0.1,2.5,0.1l0.1-0.1l0-0.7
	l-0.1-0.1c-1-0.1-1.6-0.1-1.9-0.2c-0.2-0.1-0.4-0.1-0.5-0.3c-0.1-0.1-0.2-0.3-0.2-0.6c-0.1-0.3-0.1-1-0.1-2.1l0-2.8l0-3
	c6.5,6,9.9,9.1,10.3,9.3c0.3,0.2,0.7,0.3,1,0.4c0.3,0,1.4,0.1,3.1,0.1l0.1-0.1l0-0.6l-0.1-0.1c-0.5,0-0.8-0.1-1-0.2
	c-0.2-0.1-0.9-0.8-2.2-2l-8.7-8.2l5.7-5.1c1.2-1,1.9-1.7,2.4-2c0.5-0.3,0.9-0.5,1.3-0.6c0.4-0.1,1-0.1,1.9-0.1l0.1-0.1l0-0.6
	l-0.1-0.1l-2.7,0c-0.5,0-1.2,0-1.9-0.1l-0.1,0.1l0,0.9c-0.1,0.2-0.9,1-2.2,2.4l-3.2,3.1l-1.2,1.1c-0.4,0.4-0.8,0.7-1,0.9l-1.3,1.1
	L343.2,136.7z"/>
<path class="st0" d="M358.7,150.1c1-0.1,1.9-0.1,2.6-0.1c1.1,0,2,0,2.8,0.1l5.7-8.7c3-4.5,4.9-7.4,5.7-8.6l0.3,0.1l-0.1,10.5
	c0,0.7,0,1.6,0,2.7c0,1.2,0,1.9-0.1,2.2c0,0.3-0.1,0.5-0.2,0.6c-0.1,0.1-0.3,0.2-0.6,0.3c-0.3,0.1-0.9,0.1-1.7,0.1l-0.1,0.1l0,0.7
	l0.1,0.1c2.4-0.1,3.8-0.1,4-0.1c0.4,0,1.1,0,2.2,0.1c1.2,0,1.8,0.1,1.8,0.1l0.1-0.1l0-0.7l-0.1-0.1c-0.8,0-1.4-0.1-1.7-0.1
	c-0.3-0.1-0.5-0.1-0.7-0.3c-0.1-0.1-0.2-0.3-0.2-0.6c0-0.3-0.1-1-0.1-2.1c0-1.1,0-2,0-2.8l0-6.5c0-0.7,0-1.7,0-2.9
	c0-1.2,0.1-1.9,0.1-2.1c0-0.2,0.1-0.4,0.2-0.5c0.1-0.1,0.3-0.2,0.5-0.2c0.3-0.1,0.9-0.1,1.8-0.1l0.1-0.1l0-0.7l-0.1-0.1
	c-0.9,0.1-1.8,0.1-2.7,0.1c-0.8,0-1.8,0-2.7-0.1c-0.6,1-2.1,3.5-4.7,7.5c-2.5,3.9-4.8,7.3-6.8,10.2l-0.2-0.1l0.1-10.8
	c0-0.7,0-1.6,0-2.7c0-1.2,0.1-1.9,0.1-2.1c0.1-0.3,0.1-0.5,0.2-0.6c0.1-0.1,0.3-0.2,0.6-0.3c0.3-0.1,0.9-0.1,1.7-0.1l0.1-0.1l0-0.7
	l-0.1-0.1c-2.5,0.1-3.8,0.1-4,0.1c-0.4,0-1.1,0-2.2-0.1c-1.2,0-1.8-0.1-1.8-0.1l-0.1,0.1l0,0.7l0.1,0.1c0.8,0,1.4,0.1,1.7,0.2
	c0.3,0.1,0.5,0.1,0.6,0.2c0.1,0.1,0.2,0.2,0.2,0.4c0.1,0.2,0.1,0.9,0.1,2c0,1.1,0,2.1,0,3.1l0,6.5c0,0.7,0,1.6,0,2.7
	c0,1.1-0.1,1.8-0.1,2.1c0,0.3-0.1,0.5-0.2,0.6c-0.1,0.1-0.3,0.2-0.6,0.3c-0.3,0.1-0.9,0.1-1.7,0.1l-0.1,0.1l0,0.7L358.7,150.1z"/>
<path class="st0" d="M382.8,130.3l0,0.7l0.1,0.1c1,0.1,1.6,0.1,1.9,0.2c0.3,0.1,0.4,0.1,0.5,0.2c0.1,0.1,0.1,0.3,0.2,0.6
	c0.1,0.3,0.1,1,0.1,2.1l0,2.7l0,6.5l0,3c0,1-0.1,1.6-0.1,1.9c-0.1,0.3-0.1,0.5-0.2,0.6c-0.1,0.1-0.3,0.2-0.6,0.2
	c-0.3,0.1-0.9,0.1-1.7,0.1l-0.1,0.1l0,0.7l0.1,0.1c2.4-0.1,3.7-0.1,4-0.1c0.3,0,1.7,0,4.1,0.1l0.1-0.1l0-0.7l-0.1-0.1
	c-1-0.1-1.6-0.1-1.9-0.2c-0.3-0.1-0.4-0.1-0.5-0.3c-0.1-0.1-0.2-0.3-0.2-0.6c-0.1-0.3-0.1-1-0.1-2.1l0-2.7l0-3.2
	c2.7,0,4.6-0.1,5.8-0.1c1.1,0,3.1,0,5.8,0.1l0,3.2l0,3c0,1,0,1.6-0.1,1.9c-0.1,0.3-0.1,0.5-0.3,0.6c-0.1,0.1-0.3,0.2-0.6,0.2
	c-0.3,0.1-0.9,0.1-1.8,0.1l-0.1,0.1l0,0.7l0.1,0.1c2.4-0.1,3.8-0.1,4.1-0.1c0.3,0,1.6,0,4,0.1l0.1-0.1l0-0.7l-0.1-0.1
	c-1-0.1-1.6-0.1-1.9-0.2c-0.3-0.1-0.4-0.1-0.5-0.3c-0.1-0.1-0.2-0.3-0.2-0.6c-0.1-0.3-0.1-1-0.1-2.1l0-2.7l0-6.5l0-3.2
	c0-0.7,0-1.2,0.1-1.6c0-0.4,0.1-0.6,0.3-0.7c0.1-0.1,0.4-0.2,0.8-0.2c0.3,0,0.9-0.1,1.5-0.1l0.1-0.1l0-0.7l-0.1-0.1
	c-2.4,0.1-3.7,0.1-4,0.1c-0.3,0-1.6,0-4.1-0.1l-0.1,0.1l0,0.7l0.1,0.1c1,0.1,1.6,0.1,1.9,0.2c0.3,0.1,0.4,0.1,0.5,0.2
	c0.1,0.1,0.2,0.3,0.2,0.6c0.1,0.3,0.1,1,0.1,2.1l0,2.7l0,2c-1.3,0-3.2,0.1-5.7,0.1c-1.8,0-3.8,0-5.9-0.1l0-2l0-3.2
	c0-0.7,0-1.2,0.1-1.6c0.1-0.4,0.1-0.6,0.3-0.7c0.2-0.1,0.4-0.2,0.8-0.2c0.3,0,0.8-0.1,1.5-0.1l0.1-0.1l0-0.7l-0.1-0.1
	c-2.4,0.1-3.8,0.1-4.1,0.1c-0.3,0-1.6,0-4-0.1L382.8,130.3z"/>
<path class="st0" d="M407.3,144.2c0.4,1.3,1.1,2.5,1.9,3.5c0.9,1,2,1.8,3.3,2.3c1.3,0.5,2.7,0.8,4.2,0.8c2.1,0,4.1-0.4,5.8-1.4
	c1.7-0.9,3.1-2.2,4-3.9c1-1.7,1.4-3.6,1.4-5.7c0-3-0.9-5.4-2.8-7.1c-1.9-1.7-4.4-2.7-7.6-2.7c-1.7,0-3.3,0.3-4.7,0.8
	c-1.4,0.6-2.5,1.3-3.5,2.4c-1,1-1.7,2.2-2.1,3.4c-0.4,1.2-0.6,2.5-0.6,4C406.7,141.7,406.9,142.9,407.3,144.2 M411.6,133.3
	c1.3-1.4,3.1-2.1,5.4-2.1c1.5,0,2.9,0.4,4.2,1.1c1.3,0.7,2.2,1.8,2.9,3.4c0.7,1.5,1,3.2,1,5.1c0,1.8-0.3,3.3-0.9,4.7
	c-0.6,1.4-1.5,2.4-2.6,3.1c-1.1,0.7-2.4,1-3.9,1c-1.2,0-2.3-0.2-3.3-0.7c-0.9-0.5-1.8-1.2-2.5-2.1c-0.7-1-1.3-2.1-1.7-3.4
	c-0.4-1.3-0.5-2.6-0.5-3.7C409.7,136.8,410.3,134.7,411.6,133.3"/>
<path class="st0" d="M72.7,145.7c-0.5,0.3-1,0.6-1.5,0.9c-0.5,0.2-1.2,0.4-1.9,0.6c-0.8,0.1-1.6,0.2-2.4,0.2c-1.9,0-3.5-0.4-5-1.2
	c-1.4-0.8-2.5-1.9-3.3-3.3c-0.8-1.4-1.2-3.1-1.2-4.9c0-1.9,0.4-3.5,1.1-4.8c0.7-1.3,1.7-2.3,2.9-2.9c1.3-0.7,2.7-1,4.3-1
	c1.1,0,2.1,0.2,3,0.5c1,0.3,1.8,0.8,2.5,1.3l0.1,2.4l0.1,0.1l0.7,0l0.1-0.1c0.2-2.1,0.4-3.4,0.6-3.9l-0.1-0.1
	c-0.8-0.4-1.8-0.7-3.1-0.9c-1.2-0.3-2.5-0.4-3.7-0.4c-2.2,0-4.1,0.4-5.8,1.2c-1.7,0.8-3.2,2-4.2,3.6c-1.1,1.6-1.6,3.5-1.6,5.6
	c0,3.1,1,5.6,3.1,7.6c2.1,1.9,4.9,2.9,8.2,2.9c2.4,0,4.6-0.5,6.7-1.6L73,146L72.7,145.7z"/>
<path class="st0" d="M82.7,128.7c-3.8,0-6.5-0.1-8.2-0.2l-0.1,0.1c0.1,0.7,0.1,2.2,0.1,4.4l0.1,0.1l0.7,0l0.1-0.1l0.2-1.3
	c0.1-0.8,0.2-1.4,0.3-1.5c0.1-0.2,0.5-0.3,1.1-0.3c0.6,0,1.4,0,2.3,0l2.1,0c0,2.3,0.1,3.5,0.1,3.7l0,8.2l0,3c0,1,0,1.6-0.1,1.9
	c-0.1,0.3-0.1,0.5-0.2,0.6c-0.1,0.1-0.3,0.2-0.6,0.2c-0.3,0.1-0.9,0.1-1.8,0.1l-0.1,0.1l0,0.7l0.1,0.1c2.4-0.1,3.7-0.1,4-0.1
	c0.3,0,1.6,0,4,0.1l0.1-0.1l0-0.7l-0.1-0.1c-1-0.1-1.6-0.1-1.9-0.2c-0.2-0.1-0.4-0.1-0.5-0.3c-0.1-0.1-0.2-0.3-0.2-0.6
	c-0.1-0.3-0.1-1-0.1-2.1l0-2.7l0-8.2c0-0.3,0-1.6,0.1-3.7l2.7,0c0.6,0,1.2,0,1.7,0.1c0.5,0.1,0.8,0.1,0.9,0.2
	c0.1,0.1,0.2,0.2,0.2,0.3c0.1,0.2,0.1,0.6,0.2,1.3l0.2,1.3l0.1,0.1l0.6,0l0.1-0.1c0-2.1,0.1-3.6,0.2-4.4l-0.1-0.1
	C89.3,128.7,86.6,128.7,82.7,128.7z"/>
<path class="st0" d="M93.6,129.8c0.2,0.1,0.5,0.3,0.7,0.5c0.2,0.2,0.7,1,1.4,2.5l2.9,5.6c1.2,2.4,2.1,4.1,2.5,5
	c-0.4,0.8-1,1.5-1.5,2c-0.6,0.5-1.2,0.7-1.8,0.7c-0.4,0-0.8-0.1-1.2-0.4c-0.4-0.3-0.7-0.8-1.1-1.6l-0.5,0.2c0.2,1.2,0.4,2.7,0.5,4.2
	c0.7,0.2,1.2,0.4,1.7,0.4c0.5,0,0.9-0.1,1.3-0.3c0.3-0.1,0.7-0.4,1-0.7c0.3-0.3,0.8-1,1.3-2l2.2-4c0.8-1.5,1.7-3.1,2.6-5
	c1.2-2.4,2.1-4.1,2.7-5c0.6-0.9,1-1.5,1.3-1.7c0.3-0.3,0.8-0.4,1.4-0.6l0.1-0.1l0-0.7l-0.1-0.1c-1,0.1-1.8,0.1-2.6,0.1
	c-0.7,0-1.8,0-3.1-0.1l-0.1,0.1l0,0.7l0.1,0.1c0.6,0.1,1,0.2,1.2,0.3c0.2,0.1,0.3,0.2,0.5,0.3c0.1,0.1,0.2,0.3,0.2,0.5
	c0,0.2-0.1,0.5-0.3,1c-0.2,0.5-0.5,1.2-1,2.3l-1.7,3.7c-0.6,1.3-1,2.1-1.2,2.4c-0.1,0.3-0.3,0.5-0.3,0.5c0,0,0,0-0.1,0
	c0,0,0,0-0.1,0c-0.1-0.1-0.8-1.4-1.9-3.8c-1.3-2.5-2.1-4.3-2.4-5.1c-0.3-0.6-0.4-1-0.4-1.2c0-0.2,0.1-0.4,0.3-0.5
	c0.2-0.1,0.7-0.3,1.4-0.5l0.1-0.1l0-0.7l-0.1-0.1c-1.1,0.1-2.3,0.1-3.4,0.1c-1.4,0-2.6,0-3.6-0.1l-0.1,0.1l0,0.7l0.1,0.1
	C93,129.6,93.4,129.7,93.6,129.8"/>
<path class="st0" d="M124.9,128.9c-0.7,0-1.5,0-2.4-0.1c-1,0-1.6-0.1-1.7-0.1l-0.1,0.1l0,0.7l0.1,0.1c1.7,0.1,2.8,0.2,3.2,0.4
	c0.4,0.1,0.5,0.4,0.5,0.6c0,0.1,0,0.1,0,0.2c0,0.1-0.1,0.2-0.1,0.4c-0.1,0.2-0.6,0.8-1.3,2l-2.8,4l-3.6,5.1
	c-1.3,1.9-2.6,3.6-3.8,5.1c-0.8,0-1.5-0.1-2.1-0.2l-0.2,0.3c0.5,2,1,4.3,1.4,6.6l0.2,0.3l0.3,0l0.2-0.3c0-2,0-3.1,0-3.4
	c0-0.8,0.1-1.3,0.2-1.6c0.1-0.2,0.3-0.3,0.6-0.4c0.3-0.1,1-0.1,2.3-0.1c1.2,0,3,0,5.3,0c0.5,0,1.7,0,3.5,0c1.8,0,2.9,0.1,3.3,0.1
	c0.4,0.1,0.7,0.1,0.8,0.2c0.1,0.1,0.3,0.3,0.3,0.5c0.1,0.2,0.1,0.7,0.1,1.5c0,0.3,0,1.4-0.1,3.3l0.3,0.2l0.3,0l0.2-0.2
	c0.4-2.3,0.9-4.6,1.5-6.6l-0.2-0.3c-0.3,0.1-1,0.1-2.1,0.1l-0.2-0.2c0-3.3,0-6.3,0-9c0-4.4,0-7.6,0.1-9.4l-0.1-0.1
	C126.7,128.9,125.3,128.9,124.9,128.9 M125.9,147.6c-1.4,0-3.2,0.1-5.2,0.1c-2.3,0-4-0.1-5.4-0.1l-0.2-0.2
	c1.7-2.8,5.2-8.4,10.7-16.7l0.4,0c0,3.2,0.1,5.8,0,7.7c0,3-0.1,6-0.1,9L125.9,147.6z"/>
<path class="st0" d="M133.2,148.9c1-0.1,1.9-0.1,2.6-0.1c1.1,0,2,0,2.8,0.1l5.7-8.7c3-4.5,4.9-7.4,5.7-8.6l0.3,0.1l-0.1,10.5
	c0,0.7,0,1.6,0,2.7c0,1.2,0,1.9-0.1,2.2c0,0.3-0.1,0.5-0.2,0.6c-0.1,0.1-0.3,0.2-0.6,0.3c-0.3,0.1-0.9,0.1-1.7,0.1l-0.1,0.1l0,0.7
	l0.1,0.1c2.4-0.1,3.8-0.1,4-0.1c0.4,0,1.1,0,2.2,0.1c1.2,0,1.8,0.1,1.8,0.1l0.1-0.1l0-0.7l-0.1-0.1c-0.8,0-1.4-0.1-1.7-0.1
	c-0.3-0.1-0.5-0.1-0.7-0.3c-0.1-0.1-0.2-0.3-0.2-0.6c0-0.3-0.1-1-0.1-2.1c0-1.1,0-2,0-2.8l0-6.5c0-0.7,0-1.7,0-2.9
	c0-1.2,0.1-1.9,0.1-2.1c0-0.2,0.1-0.4,0.2-0.5c0.1-0.1,0.3-0.2,0.5-0.2c0.3-0.1,0.9-0.1,1.8-0.1l0.1-0.1l0-0.7l-0.1-0.1
	c-0.9,0.1-1.8,0.1-2.7,0.1c-0.8,0-1.8,0-2.7-0.1c-0.6,1-2.1,3.5-4.7,7.5c-2.5,3.9-4.8,7.3-6.8,10.2l-0.2-0.1l0.1-10.8
	c0-0.7,0-1.6,0-2.7c0-1.2,0.1-1.9,0.1-2.1c0.1-0.3,0.1-0.5,0.2-0.6c0.1-0.1,0.3-0.2,0.6-0.3c0.3-0.1,0.9-0.1,1.7-0.1l0.1-0.1l0-0.7
	l-0.1-0.1c-2.5,0.1-3.8,0.1-4,0.1c-0.4,0-1.1,0-2.2-0.1c-1.2,0-1.8-0.1-1.8-0.1l-0.1,0.1l0,0.7l0.1,0.1c0.8,0,1.4,0.1,1.7,0.2
	c0.3,0.1,0.5,0.1,0.6,0.2c0.1,0.1,0.2,0.2,0.2,0.4c0.1,0.2,0.1,0.9,0.1,2c0,1.1,0,2.1,0,3.1l0,6.5c0,0.7,0,1.6,0,2.7
	c0,1.1-0.1,1.8-0.1,2.1c0,0.3-0.1,0.5-0.2,0.6c-0.1,0.1-0.3,0.2-0.6,0.3c-0.3,0.1-0.9,0.1-1.7,0.1l-0.1,0.1l0,0.7L133.2,148.9z"/>
<path class="st0" d="M161.9,143.1c-1.6,2-2.7,3.2-3.2,3.8c-0.5,0.5-0.9,0.9-1.1,1c-0.2,0.1-0.7,0.1-1.3,0.2l-0.1,0.1l0,0.7l0.1,0.1
	c0.8-0.1,1.6-0.1,2.2-0.1c0.5,0,1.2,0,2.1,0.1c4.1-5.2,6.9-8.6,8.3-10.1l0-0.4c-2.3,0-4-0.5-5-1.3c-1-0.9-1.5-1.9-1.5-3.3
	c0-2.4,1.7-3.6,5-3.6c0.5,0,1.2,0,2.1,0.1l0.1,0.1l-0.1,11.8c0,0.7,0,1.6,0,2.8c0,1.2-0.1,1.9-0.1,2.2c0,0.2-0.1,0.4-0.2,0.5
	c-0.1,0.1-0.3,0.2-0.5,0.3c-0.3,0.1-0.9,0.1-1.8,0.1l-0.1,0.1l0,0.7l0.1,0.1c2.5-0.1,3.8-0.1,4-0.1c0.4,0,1.1,0,2.3,0.1
	c1.2,0,1.8,0.1,1.8,0.1l0.1-0.1l0-0.7l-0.1-0.1c-0.8,0-1.4-0.1-1.7-0.2c-0.3-0.1-0.5-0.1-0.7-0.3c-0.1-0.1-0.2-0.3-0.2-0.6
	c0-0.3-0.1-1-0.1-2.1c0-1.1,0-2,0-2.8l0-6.5c0-0.7,0-1.6,0-2.7c0-1.2,0.1-1.9,0.1-2.2c0-0.3,0.1-0.5,0.2-0.6
	c0.1-0.1,0.3-0.2,0.6-0.3c0.3-0.1,0.9-0.1,1.8-0.1l0.1-0.1l0-0.7l-0.1-0.1c-1.8,0.1-3.1,0.1-3.9,0.1c-0.2,0-0.9,0-2.1-0.1
	c-0.9-0.1-1.7-0.1-2.5-0.1c-1.1,0-2,0-2.8,0.2c-0.8,0.1-1.5,0.4-2.1,0.8c-0.6,0.4-1.1,0.9-1.5,1.5c-0.3,0.6-0.5,1.3-0.5,2.1
	c0,1.3,0.4,2.4,1.3,3.3c0.9,0.9,2.4,1.6,4.4,2C164.7,139.7,163.6,141.2,161.9,143.1"/>
<g>
	<defs>
		<path id="SVGID_1_" d="M326,40.3c0,0.8,0.3,1.3,0.9,1.6c0.6,0.2,1.5,0.5,2.7,0.7c3.3,0.5,5.2,1.5,5.7,2.7c0.5,1.3,0.8,4,0.7,8.3
			l-0.2,39.7c0,4.2-0.3,6.9-0.8,8.2c-0.5,1.3-2.2,2.2-5.1,2.7c-2.1,0.4-3.1,1.1-3.2,2.2c0,1.4,0.9,2.1,2.8,2.1c1.7,0,4.4-0.1,8-0.2
			c3.6-0.1,6.3-0.2,8.1-0.2c1.9,0,3,0,3.4,0.1c0.4,0,0.7,0.1,1.1,0.2c0.4,0.1,1.5,0.1,3.4,0.1l28.9-55.2l-0.2,40.3
			c0,2.8-0.1,4.8-0.3,6c-0.2,1.2-0.8,2.1-1.8,2.7c-1,0.7-2.7,1.2-5.2,1.7c-2,0.3-3,1.1-3,2.6c0,1.4,0.9,2.1,2.7,2.1
			c1.8,0,4.5,0,8.1-0.2c3.6-0.1,6.3-0.2,8.1-0.2c2,0,4.9,0.1,8.8,0.3c3.8,0.2,6.7,0.3,8.5,0.3c1.8,0,2.7-0.7,2.7-2.1
			c0-1.3-1.2-2.2-3.6-2.6c-2.2-0.3-3.7-0.9-4.7-1.7c-1-0.8-1.5-1.8-1.7-3c-0.1-1.2-0.2-3.2-0.2-5.8l0.2-39.8c0-4.3,0.3-7,0.9-8.3
			c0.6-1.3,2.7-2.2,6.2-2.7c1-0.1,1.8-0.4,2.4-0.7c0.5-0.3,0.8-0.8,0.8-1.6c0-1.4-0.9-2.1-2.8-2.1c-1.7,0-4.4,0.1-8,0.2
			c-3.6,0.1-6.3,0.2-8.1,0.2c-1.9,0-3,0-3.4,0c-0.4,0-0.7,0.1-1.1,0.1c-0.4,0-1.5,0-3.4,0l-30,56.1l0.2-41.5c0-4.3,0.3-7,0.9-8.3
			s2.7-2.2,6.2-2.7c1-0.1,1.8-0.4,2.4-0.7c0.5-0.3,0.8-0.8,0.8-1.6c0-1.4-0.9-2.1-2.8-2.1c-1.7,0-4.4,0.1-8,0.2
			c-3.6,0.1-6.3,0.2-8.1,0.2c-1.9,0-4.7-0.1-8.5-0.3c-3.8-0.2-6.7-0.3-8.8-0.3c0,0,0,0,0,0C326.9,38.2,326,38.9,326,40.3 M87.3,39
			c0,0.8,0.3,1.3,0.9,1.6c0.6,0.2,1.5,0.5,2.7,0.7c3.3,0.5,5.2,1.4,5.7,2.7c0.5,1.3,0.8,4,0.7,8.3l-0.2,39.8c0,4.1-0.3,6.7-0.9,7.8
			c-0.6,1.1-2.7,2-6.2,2.5c-2,0.3-3,1.1-3,2.6c0,1.4,0.9,2.1,2.7,2.1c1.8,0,4.5,0,8.1-0.2c3.6-0.1,6.3-0.2,8.1-0.2
			c2,0,4.9,0.1,8.8,0.3c3.8,0.2,6.7,0.3,8.5,0.3c1.8,0,2.7-0.7,2.7-2.1c0-1.3-1.2-2.2-3.6-2.6c-2.2-0.3-3.7-0.9-4.7-1.7
			c-1-0.8-1.5-1.8-1.7-3c-0.1-1.2-0.2-3.2-0.2-5.8l0.1-15.7c0-1.6,0.1-2.7,0.1-3.3c0.1-0.5,0.5-0.8,1.4-0.8c0.9,0,1.8,0,2.9,0
			l20,0.1c1.6,0,2.6,0.1,2.9,0.2c0.3,0.2,0.4,1,0.4,2.5l-0.1,17.2c0,4.1-0.3,6.7-0.9,7.8c-0.6,1.1-2.7,2-6.2,2.5c-2,0.3-3,1.1-3,2.6
			c0,1.4,0.9,2.1,2.7,2.1c1.8,0,4.5-0.1,8.1-0.2c3.6-0.1,6.3-0.2,8.1-0.2c2,0,4.9,0.1,8.8,0.3c3.8,0.2,6.7,0.3,8.5,0.3
			c1.8,0,2.7-0.7,2.7-2.1c0-1.3-1.2-2.2-3.6-2.6c-2.2-0.3-3.7-0.9-4.7-1.7c-1-0.8-1.5-1.8-1.7-3c-0.1-1.2-0.2-3.2-0.2-5.8l0.2-39.8
			c0-4.3,0.3-7,0.9-8.3c0.6-1.3,2.7-2.2,6.2-2.7c1-0.1,1.8-0.4,2.4-0.7c0.5-0.3,0.8-0.8,0.8-1.6c0-1.4-0.9-2.1-2.8-2.1
			c-1.7,0-4.4,0.1-8,0.2c-3.6,0.1-6.3,0.2-8.1,0.2c-1.9,0-4.7-0.1-8.5-0.3c-3.8-0.2-6.7-0.3-8.8-0.3c-1.8,0-2.7,0.7-2.7,2.1
			c0,0.8,0.3,1.3,0.9,1.6c0.6,0.2,1.5,0.5,2.7,0.7c3.3,0.5,5.2,1.5,5.7,2.7c0.5,1.3,0.8,4,0.7,8.3l-0.1,10.9c0,2-0.2,3.2-0.5,3.5
			c-0.3,0.3-1.4,0.5-3.3,0.5l-20-0.1c-1.9,0-3.1-0.2-3.5-0.5c-0.4-0.3-0.6-1.5-0.5-3.5l0.1-10.9c0-4.3,0.3-7,0.9-8.3
			c0.6-1.3,2.7-2.2,6.2-2.7c1-0.1,1.8-0.4,2.4-0.7c0.5-0.3,0.8-0.8,0.8-1.6c0-1.4-0.9-2.1-2.8-2.1c-1.7,0-4.4,0-8,0.2
			c-3.6,0.1-6.3,0.2-8.1,0.2c-1.9,0-4.7-0.1-8.5-0.3C95,37,92,36.9,90,36.9c0,0,0,0,0,0C88.2,36.9,87.3,37.6,87.3,39 M0,38.5
			c0,0.8,0.3,1.3,0.9,1.6c0.6,0.2,1.5,0.5,2.7,0.7c3.3,0.5,5.2,1.5,5.7,2.7c0.5,1.3,0.8,4,0.7,8.3L9.8,91.6c0,4.2-0.3,6.9-0.8,8.2
			c-0.5,1.3-2.2,2.2-5.1,2.7c-2.1,0.4-3.1,1.1-3.2,2.2c0,1.4,0.9,2.1,2.8,2.1c1.7,0,4.4,0,8-0.2c3.6-0.1,6.3-0.2,8.1-0.2
			c1.9,0,3,0,3.4,0.1c0.4,0,0.7,0.1,1.1,0.2c0.4,0.1,1.5,0.1,3.4,0.1l28.9-55.2l-0.2,40.3c0,2.8-0.1,4.8-0.3,6
			c-0.2,1.2-0.8,2.1-1.8,2.7c-1,0.7-2.7,1.2-5.2,1.7c-2,0.3-3,1.1-3,2.6c0,1.4,0.9,2.1,2.7,2.1c1.8,0,4.5-0.1,8.1-0.2
			c3.6-0.1,6.3-0.2,8.1-0.2c2,0,4.9,0.1,8.8,0.3c3.8,0.2,6.7,0.3,8.5,0.3c1.8,0,2.7-0.7,2.7-2.1c0-1.3-1.2-2.2-3.6-2.6
			c-2.2-0.3-3.7-0.9-4.7-1.7c-1-0.8-1.5-1.8-1.7-3c-0.1-1.2-0.2-3.2-0.2-5.8l0.2-39.8c0-4.3,0.3-7,0.9-8.3c0.6-1.3,2.7-2.2,6.2-2.7
			c1-0.1,1.8-0.4,2.4-0.7c0.5-0.3,0.8-0.8,0.8-1.6c0-1.4-0.9-2.1-2.8-2.1c-1.7,0-4.4,0-8,0.2c-3.6,0.1-6.3,0.2-8.1,0.2
			c-1.9,0-3,0-3.4,0c-0.4,0-0.7,0.1-1.1,0.1c-0.4,0-1.5,0-3.4,0l-30,56.1l0.2-41.5c0-4.3,0.3-7,0.9-8.3c0.6-1.3,2.7-2.2,6.2-2.7
			c1-0.1,1.8-0.4,2.4-0.7c0.5-0.3,0.8-0.8,0.8-1.6c0-1.4-0.9-2.1-2.8-2.1c-1.7,0-4.4,0.1-8,0.2C24.5,36.9,21.8,37,20,37
			c-1.9,0-4.7-0.1-8.5-0.3c-3.8-0.2-6.7-0.3-8.8-0.3c0,0,0,0,0,0C0.9,36.4,0,37.1,0,38.5 M269.4,78.8c-0.4-0.2-0.6-0.5-0.6-1
			c0-0.1,0.3-1.2,1-3.2l7.5-18.5l7.3,19.2c0.1,0.1,0.4,0.5,0.6,1.3c0.3,0.8,0.4,1.3,0.4,1.5c0,0.4-0.2,0.6-0.7,0.8
			c-0.4,0.1-0.9,0.2-1.5,0.2c-0.5,0-1-0.1-1.6-0.1l-9.8-0.1c-0.5,0-1,0-1.5,0c-0.1,0-0.1,0-0.2,0C270.1,79,269.7,78.9,269.4,78.8
			 M280.7,37.2c-0.6,0.7-1.3,2.3-2.3,4.6l-13.2,30.7L259,88c-2.9,7.2-4.5,11-4.8,11.6c-0.8,1.4-1.5,2.3-2.1,2.7
			c-0.7,0.4-2,0.7-3.9,1.1c-2.1,0.3-3.1,1.1-3.2,2.3c0,1.6,1.1,2.4,3.5,2.4c1.8-0.1,3.4-0.1,4.9-0.1c1.5,0,3.3,0,5.7,0
			c2.3,0,4.2,0,5.7,0.1c1.5,0,3.1,0.1,4.8,0.2c2.5,0,3.7-0.8,3.7-2.3c0-1.3-1.4-2.3-4.1-2.9c-2.7-0.6-4.6-1-5.5-1.4
			c-1-0.3-1.5-1.7-1.4-4c0-1.9,0.9-5.3,2.5-10.2c0.5-1.4,0.9-2.3,1.1-2.6c0.2-0.3,0.6-0.5,1-0.6c0.4-0.1,1.4-0.1,2.8-0.1l14.7,0.1
			c2.1,0,3.3,0.1,3.6,0.4c0.3,0.3,0.8,1.4,1.5,3.3L293,97c0.7,1.9,1.1,3.3,1.1,4.3c0,0.9-0.3,1.5-1,1.8c-0.6,0.3-1.6,0.5-2.8,0.5
			c-1.2,0.1-2.2,0.3-3,0.6c-0.8,0.3-1.1,0.9-1.1,1.7c0,1.6,1.2,2.4,3.6,2.4c1.8,0,4.5,0,8.2-0.2c3.7-0.1,6.4-0.2,8.2-0.2
			c1.5,0,3.8,0.1,6.8,0.3c3.1,0.2,5.3,0.3,6.8,0.3c2.5,0,3.8-0.8,3.8-2.3c0-1.2-0.3-1.9-1-2.1c-0.7-0.2-1.7-0.3-3-0.3
			c-1.9-0.1-3.4-1-4.6-2.7c-0.8-1.2-1.7-3.1-2.8-5.7l-22.8-54.7c-0.9-2.2-1.5-3.5-1.8-3.9c-0.3-0.4-1.4-0.6-3.1-0.6c0,0-0.1,0-0.1,0
			C282.6,36.2,281.3,36.5,280.7,37.2 M205.4,38c-5.6,1.5-10.5,3.9-14.8,7c-4.5,3.3-8.1,7.5-10.7,12.3c-2.6,4.9-3.9,10-4,15.4
			c0,5.3,1.2,10.5,3.8,15.5c2.6,5,6,9.1,10.3,12.5c7.4,5.6,17.2,8.4,29.5,8.5c8.7,0,15.9-1.6,21.6-5c1.6-0.9,2.5-1.7,2.9-2.6
			c0.3-0.8,0.6-2.4,0.8-4.6l0.4-4.7c0.2-2.8-0.5-4.3-2.2-4.3c-1.1,0-2.1,0.8-2.8,2.3c-2.6,4.9-5.1,8.4-7.5,10.3
			c-3.5,2.8-7.5,4.2-11.8,4.2c-7.9,0-14.3-3.8-19-11.3c-3.7-5.9-5.5-13.1-5.5-21.6c0-8.7,2.1-15.9,6.3-21.7c2.1-3,4.8-5.4,8.1-7.3
			c3.3-1.9,6.8-2.8,10.5-2.7c4.4,0,7.7,0.9,9.8,2.6c2.1,1.7,4.1,3.9,6,6.7c1.9,2.8,3.5,4.2,4.7,4.2c1.4,0,2.1-0.6,2.1-1.9
			c0-0.7-0.1-1.8-0.4-3.3l-0.9-5.7c-0.2-1.5-0.5-2.5-0.9-3.1c-0.4-0.6-1.3-1-2.7-1.4c-2.5-0.8-5.3-1.4-8.2-1.8
			c-2.9-0.4-5.8-0.6-8.6-0.7c-0.1,0-0.2,0-0.3,0C216.4,35.8,210.9,36.6,205.4,38 M475,36.1c-0.9,1.4-1.9,2.3-2.9,2.5
			c-1,0.3-2.8,0.4-5.4,0.4l-40.3-0.2c-1.9,0-3.1-0.1-3.5-0.2c-0.4-0.2-0.9-0.9-1.4-2.4c-0.3-1.1-1-1.7-2.2-1.7c-1.3,0-2.4,1.3-3,3.8
			l-3.7,13.1c-0.4,1.3-0.6,2.1-0.6,2.5c0,1.6,0.7,2.5,2,2.5c1.3,0,2.9-1.3,4.6-3.9c2.3-3.3,4.5-5.6,6.5-7c2-1.4,4.8-2,8.3-2
			c1.6,0,2.5,0.2,2.7,0.5c0.3,0.3,0.4,1.2,0.4,2.8L436.3,94c0,4.1-0.3,6.7-0.9,7.9c-0.6,1.1-2.7,2-6.2,2.5c-2,0.3-3,1.1-3,2.6
			c0,1.4,0.9,2.1,2.7,2.1c1.8,0,4.5,0,8.1-0.2c3.6-0.1,6.3-0.2,8.1-0.2c2,0,4.9,0.1,8.8,0.3c3.8,0.2,6.7,0.3,8.5,0.3
			c1.8,0,2.7-0.7,2.7-2.1c0-1.3-1.2-2.2-3.6-2.6c-2.2-0.3-3.7-0.9-4.7-1.7c-1-0.8-1.5-1.8-1.7-3c-0.1-1.2-0.2-3.2-0.2-5.8l0.3-47.5
			c0-1.5,0.2-2.4,0.5-2.7c0.3-0.3,1.2-0.5,2.6-0.5c4.6,0,7.6,0.7,9.2,1.9c1.6,1.2,3.2,4,4.8,8.3c0.8,2.3,2,3.4,3.5,3.4
			c1.1,0,1.8-0.3,1.9-0.9c0.2-0.6,0.3-1.8,0.6-3.6l1.5-14.4c0.2-1.5,0.2-2.5,0-3.1c-0.1-0.6-0.8-0.9-1.9-0.9c0,0,0,0,0,0
			C476.7,34,475.8,34.7,475,36.1 M380.9,0.6c-0.2,0.4-0.3,1.2-0.3,2.4c0,3.7-0.6,6.5-1.7,8.2c-1.1,1.8-3,4.2-5.7,7.4
			c-2.7,3.2-4.1,5.8-4.1,7.8c0,0.4,0.1,1.2,0.2,2.5c0.1,1.3,0.2,2.1,0.2,2.6l0.7,7.4c0.5,3.3,1,4.9,1.5,4.9c0.7,0,1.1-0.1,1.3-0.4
			c0.2-0.3,0.3-1.1,0.3-2.5c0-1.5,0.2-2.6,0.6-3.3c0.4-0.7,1-1.6,1.9-2.8c3.5-4.1,6.1-7.6,7.7-10.4c0.6-1.1,1-2,1.1-2.5
			c0.1-0.6,0.2-2.1,0.2-4.7c0-0.4,0-1.2-0.1-2.2c-0.1-1-0.2-2-0.3-2.9l-0.7-7.4c-0.5-3.3-1.1-4.9-1.7-4.9c0,0,0,0,0,0
			C381.5,0,381.1,0.2,380.9,0.6"/>
	</defs>
	<use xlink:href="#SVGID_1_"  style="overflow:visible;fill:#FFFFFF;"/>
	<clipPath id="SVGID_2_">
		<use xlink:href="#SVGID_1_"  style="overflow:visible;"/>
	</clipPath>
	<rect x="0" class="st1" width="479.7" height="109.3"/>
</g>
</svg>
