<?xml version="1.0" encoding="utf-8"?>
<!-- Generator: Adobe Illustrator 22.0.1, SVG Export Plug-In . SVG Version: 6.00 Build 0)  -->
<svg version="1.1" id="Layer_1" xmlns="http://www.w3.org/2000/svg" xmlns:xlink="http://www.w3.org/1999/xlink" x="0px" y="0px"
	 viewBox="0 0 185 44.4" style="enable-background:new 0 0 185 44.4;" xml:space="preserve">
<style type="text/css">
	.st0{fill:#FFFFFF;}
</style>
<g id="Росмолодежь_NEW">
	<rect id="основание" y="33.7" class="st0" width="184.9" height="10.7"/>
	<path id="ь" class="st0" d="M172.4,18.8V5.4h3.8v3.9h3.2c3.4,0,5.5,1.9,5.5,4.7c0,1.4-0.5,2.5-1.4,3.4c-0.9,0.9-2.3,1.3-3.9,1.3
		H172.4z M176.2,15.9h2.6c1.5,0,2.3-0.7,2.3-1.9c0-1.2-0.9-1.9-2.3-1.9h-2.6V15.9z"/>
	<path id="ж" class="st0" d="M147.9,18.8l5.8-7.1l-5.2-6.3h4.3l4.1,5v-5h3.7v5l4.1-5h4.3l-5.2,6.3l5.8,7.1H165l-4.4-5.7v5.7h-3.7
		v-5.7l-4.5,5.7H147.9z"/>
	<path id="е" class="st0" d="M134.6,17.2c-1.4-1.3-2.1-3-2.1-5.1c0-2,0.6-3.7,1.9-5c1.3-1.4,3-2,5-2c2,0,3.5,0.7,4.6,2.1
		c1.2,1.4,1.7,3,1.7,5v1h-9.6c0.4,1.8,2.1,2.8,4.5,2.8c1.5,0,2.9-0.4,4.3-1.2v3c-1.2,0.9-2.9,1.4-5.1,1.4
		C137.8,19.1,136.1,18.5,134.6,17.2z M142.1,10.7C142.1,9.2,141,8,139.3,8c-1.7,0-2.9,1.1-3.1,2.7H142.1z"/>
	<path id="д" class="st0" d="M128.7,16.3L128.7,16.3l-4.9-11h-2.4l-5.1,11H114v3.2h16.9v-3.2H128.7z M119.9,16.3l2.6-5.6l2.5,5.6
		H125H119.9z"/>
	<path id="о3" class="st0" d="M105.2,5.2c-3.9,0-7,3.2-7,7s3.2,7,7,7c3.9,0,7-3.2,7-7S109.1,5.2,105.2,5.2z M105.2,16.2
		c-2.2,0-3.9-1.8-3.9-3.9c0-2.2,1.8-3.9,3.9-3.9s3.9,1.8,3.9,3.9C109.2,14.5,107.4,16.2,105.2,16.2z"/>
	<path id="о2" class="st0" d="M73.6,5.2c-3.9,0-7,3.2-7,7s3.2,7,7,7c3.9,0,7-3.2,7-7S77.5,5.2,73.6,5.2z M73.6,16.2
		c-2.2,0-3.9-1.8-3.9-3.9c0-2.2,1.8-3.9,3.9-3.9c2.2,0,3.9,1.8,3.9,3.9C77.5,14.5,75.8,16.2,73.6,16.2z"/>
	<path id="м" class="st0" d="M48.2,18.8V5.4h3.7l3.9,5l3.9-5h3.7v13.4h-3.6v-8.3l-3.3,4.2H55l-3.3-4.2v8.3H48.2z"/>
	<path id="с" class="st0" d="M34.7,17.2c-1.4-1.3-2.1-3-2.1-5.2c0-2.1,0.7-3.8,2.1-5.1C36.1,5.7,37.8,5,39.8,5c1.5,0,2.8,0.3,4,0.9
		v3.2c-1.2-0.5-2.3-0.8-3.4-0.8c-1.2,0-2.2,0.3-3,1c-0.8,0.7-1.2,1.6-1.2,2.7c0,1.1,0.4,2,1.2,2.7c0.8,0.7,1.8,1,3,1
		c1.4,0,2.6-0.3,3.6-0.9v3.2c-1.3,0.7-2.7,1-4.2,1C37.8,19.1,36.1,18.5,34.7,17.2z"/>
	<path id="о" class="st0" d="M22.7,5.2c-3.9,0-7,3.2-7,7s3.2,7,7,7c3.9,0,7-3.2,7-7S26.6,5.2,22.7,5.2z M22.7,16.2
		c-2.2,0-3.9-1.8-3.9-3.9c0-2.2,1.8-3.9,3.9-3.9s3.9,1.8,3.9,3.9C26.7,14.5,24.9,16.2,22.7,16.2z"/>
	<path id="Р" class="st0" d="M0.1,18.8V0h8.2c2,0,3.6,0.5,4.8,1.6c1.2,1,1.8,2.4,1.8,4.1c0,1.7-0.6,3.1-1.8,4.1
		c-1.2,1-2.8,1.6-4.8,1.6H4v7.4H0.1z M4,8.1H8c1.9,0,3-0.8,3-2.3c0-1.5-1.1-2.3-3-2.3H4V8.1z"/>
	<polygon class="st0" points="85.1,19.4 89.2,10.6 93.2,19.4 96.8,19.4 90.5,5.3 88.1,5.3 81.5,19.4 	"/>
</g>
</svg>
