<?xml version="1.0" encoding="utf-8"?>
<!-- Generator: Adobe Illustrator 22.0.1, SVG Export Plug-In . SVG Version: 6.00 Build 0)  -->
<svg version="1.1" id="Layer_1" xmlns="http://www.w3.org/2000/svg" xmlns:xlink="http://www.w3.org/1999/xlink" x="0px" y="0px"
	 viewBox="0 0 244.2 84.9" style="enable-background:new 0 0 244.2 84.9;" xml:space="preserve">
<style type="text/css">
	.st0{fill:#FFFFFF;}
</style>
<path class="st0" d="M97.1,5.3h4.4v0.6c0,0-0.1,0-0.2,0s-0.1,0-0.2,0.1s-0.2,0.2-0.4,0.3c-0.1,0.1-0.2,0.3-0.2,0.6v9.7h5V6.9
	c0-0.2-0.1-0.4-0.2-0.6s-0.4-0.3-0.7-0.4V5.3h0.2h4.4v0.6c-0.3,0-0.5,0.1-0.6,0.3c-0.1,0.1-0.2,0.3-0.2,0.5v0.1v0.1v8.9
	c0,0.2,0,0.4,0.1,0.5c0,0.1,0.1,0.2,0.2,0.3l0.1,0.1l0.1,0.1c0.1,0,0.1,0.1,0.2,0.2s0.1,0.1,0.2,0.2c0.2,0.2,0.3,0.4,0.4,0.6
	s0.2,0.5,0.2,0.8v0.1v0.1c-0.1,0.6-0.4,1.1-1,1.6s-1.3,0.7-2.2,0.7h-0.2c-0.2,0-0.5,0-0.7-0.1c-0.3,0-0.5-0.1-0.8-0.1
	c-0.3-0.1-0.6-0.1-0.9-0.2s-0.5-0.2-0.8-0.3c-0.9-0.4-1.6-0.6-2-0.7s-0.7-0.2-0.9-0.2c-0.1,0-0.2,0-0.3,0.1c-0.1,0-0.1,0.1-0.1,0.1
	l0,0l0,0c0,0.1,0,0.1,0,0.1h0.1l0,0l0,0h0.1h0.1c0.1,0,0.1,0,0.2,0s0.2,0.1,0.2,0.1c0.1,0.1,0.1,0.2,0.1,0.3l0,0l0,0
	c0,0.1-0.1,0.3-0.2,0.4s-0.3,0.2-0.6,0.2h-0.2c-0.3,0-0.5-0.1-0.6-0.3C99,20.3,99,20.1,99,19.8c0-0.5,0.3-0.9,0.8-1.3
	c0.5-0.3,1.3-0.5,2.2-0.5h0.2c0.4,0,0.9,0,1.3,0.1s0.7,0.2,1.1,0.3c0.1,0,0.3,0.1,0.4,0.1s0.2,0.1,0.3,0.1c0.6,0.2,1,0.4,1.3,0.5
	s0.6,0.2,0.9,0.2s0.5-0.1,0.8-0.3c0.2-0.2,0.4-0.5,0.4-0.8s-0.1-0.6-0.4-0.8c-0.2-0.2-0.6-0.3-1-0.3H96.9v-0.6c0,0,0.1,0,0.2,0
	s0.1,0,0.2-0.1s0.2-0.2,0.4-0.3c0.1-0.1,0.2-0.3,0.2-0.6v-9c0-0.3-0.1-0.6-0.3-0.7c-0.2-0.2-0.4-0.2-0.6-0.3V5.3
	C96.9,5.3,97.1,5.3,97.1,5.3z M110.7,5.3h8.7c0.2,0,0.4,0,0.5,0s0.2-0.1,0.3-0.3h0.2h0.4v3.1h-0.2H120c-0.2-0.8-0.6-1.3-1-1.6
	c-0.5-0.2-1.1-0.3-1.8-0.3h-2.8v4.4h1.8c0.5,0,0.8-0.1,1.1-0.2c0.3-0.2,0.4-0.4,0.4-0.9l0,0h0.2h0.6v3.2h-0.2h-0.6
	c0-0.3-0.1-0.5-0.2-0.7s-0.2-0.3-0.4-0.3c-0.1,0-0.2-0.1-0.3-0.1c-0.1,0-0.2,0-0.2,0h-2.1v5.1h4c0.7,0,1.3-0.2,1.8-0.7
	c0.5-0.4,0.8-0.9,0.9-1.5h0.2h0.6v3.1h-0.2h-11V17c0.3,0,0.5-0.1,0.6-0.3c0.1-0.1,0.2-0.3,0.2-0.5c0-0.1,0-0.1,0-0.2s0-0.1,0-0.2
	V7.1V7c0-0.1,0-0.1,0-0.1c0-0.2-0.1-0.4-0.2-0.5c-0.1-0.2-0.3-0.3-0.7-0.3C110.7,5.9,110.7,5.3,110.7,5.3z M127.9,5.3v0.6
	c0,0-0.1,0-0.2,0s-0.1,0-0.2,0.1s-0.2,0.2-0.4,0.3c-0.1,0.1-0.2,0.3-0.2,0.6v3.9h5.9V6.9V6.8V6.7c0-0.2-0.1-0.3-0.2-0.5
	c-0.1-0.1-0.3-0.2-0.6-0.3V5.3h0.2h4.4v0.6c-0.3,0-0.5,0.1-0.7,0.3c-0.1,0.2-0.2,0.4-0.2,0.7v9c0,0.3,0,0.5,0.1,0.6s0.3,0.2,0.5,0.3
	c0,0,0,0,0.1,0h0.1v0.6h-0.2h-4.4v-0.6h0.1h0.1c0.3-0.1,0.4-0.2,0.5-0.3c0.1-0.1,0.1-0.3,0.1-0.6v-4.2H127v4.2
	c0,0.3,0.1,0.5,0.2,0.6c0.1,0.2,0.3,0.3,0.7,0.4v0.6h-0.2h-4.4v-0.6c0.3-0.1,0.6-0.2,0.7-0.4s0.2-0.3,0.2-0.6v-9
	c0-0.3-0.1-0.5-0.2-0.6s-0.2-0.2-0.4-0.3c-0.1,0-0.1-0.1-0.2-0.1s-0.1,0-0.2,0V5.3h0.2H127.9L127.9,5.3z M137.7,5h0.7
	c0.2,0.1,0.3,0.1,0.5,0.2c0.2,0,0.4,0.1,0.6,0.1h7.8c0.1,0,0.2,0,0.3,0s0.2,0,0.3,0s0.2,0,0.2-0.1c0.1,0,0.2-0.1,0.3-0.1h0.2h0.7
	v3.2h-0.2h-0.6c-0.2-0.4-0.4-0.7-0.6-0.9c-0.2-0.2-0.4-0.4-0.6-0.6c-0.3-0.2-0.6-0.3-0.8-0.4c-0.3,0-0.5-0.1-0.7-0.1h-1v9.8
	c0,0.3,0.1,0.5,0.2,0.6c0.1,0.2,0.3,0.3,0.7,0.4v0.6h-0.2h-4.4v-0.6h0.1h0.1c0.3-0.1,0.4-0.2,0.5-0.3c0.1-0.1,0.1-0.3,0.1-0.6V6.1
	h-0.8c-0.2,0-0.4,0-0.6,0c-0.2,0-0.4,0.1-0.6,0.1c-0.3,0.1-0.6,0.3-1,0.6c-0.3,0.3-0.6,0.7-0.7,1.2H138h-0.6V5H137.7L137.7,5z
	 M150.2,17.6V17c0,0,0.1,0,0.2,0c0.1,0,0.2-0.1,0.3-0.1c0.1-0.1,0.2-0.2,0.3-0.3c0.1-0.1,0.1-0.3,0.1-0.6V9c0-1.4,0.4-2.4,1.3-3
	c0.8-0.6,1.8-0.9,2.7-1c0.1,0,0.1,0,0.2,0c0.1,0,0.1,0,0.2,0h0.2c1.6,0,2.8,0.4,3.6,1.3c0.8,0.8,1.2,1.8,1.2,2.8
	c0,0.2,0,0.5-0.1,0.7c0,0.3-0.1,0.5-0.2,0.8c-0.2,0.7-0.6,1.3-1.1,1.9c-0.6,0.6-1.4,0.9-2.5,0.9h-0.2c-0.3,0-0.7,0-1.1-0.1
	c-0.4-0.1-0.9-0.3-1.4-0.6v3.1c0,0.2,0.1,0.5,0.3,0.7s0.4,0.3,0.7,0.4v0.6h-0.2L150.2,17.6L150.2,17.6z M153.9,7.8v3
	c0,0.4,0.2,0.7,0.5,1s0.8,0.4,1.2,0.5c0.7,0,1.2-0.3,1.4-0.9c0.2-0.6,0.3-1.3,0.3-2.2s-0.1-1.6-0.2-2.2c-0.2-0.6-0.6-0.9-1.4-0.9
	h-0.1h-0.1c-0.4,0.1-0.8,0.2-1.1,0.5C154,6.8,153.9,7.2,153.9,7.8z M161.2,16.9c0.1,0,0.2-0.1,0.4-0.2s0.4-0.3,0.6-0.6
	c0.1-0.1,0.1-0.2,0.2-0.3c0.1-0.1,0.1-0.2,0.1-0.3L166,8c0-0.1,0.1-0.2,0.1-0.3c0-0.1,0-0.2,0.1-0.3c0-0.1,0-0.2,0-0.3
	c0-0.1,0-0.2,0-0.3c0-0.1-0.1-0.2-0.2-0.3c-0.1-0.1-0.3-0.1-0.5-0.1c0,0,0,0-0.1,0h-0.1V6c0.5,0,0.9-0.1,1.2-0.3
	c0.3-0.1,0.6-0.3,0.7-0.4c0.1,0,0.1-0.1,0.2-0.1l0.1-0.1h0.2h0.6l4.6,9.6c0.4,0.7,0.7,1.3,0.9,1.6c0.2,0.3,0.5,0.5,0.7,0.6l0,0l0,0
	v0.6h-0.2h-5v-0.6h0.1c0.3,0,0.5-0.1,0.6-0.3c0.2-0.2,0.2-0.4,0.3-0.6v-0.1v-0.1v-0.1c0-0.1,0-0.1-0.1-0.1l0,0l0,0v-0.1v-0.1
	l-0.5-1.1h-5.4l-0.5,1c0,0,0,0,0,0.1c0,0,0,0,0,0.1c0,0,0,0.1-0.1,0.2c0,0.1,0,0.1-0.1,0.2V16v0.1c0,0.2,0.1,0.4,0.2,0.5
	c0.2,0.2,0.5,0.3,0.9,0.4v0.6h-0.2h-3.4C161.2,17.6,161.2,16.9,161.2,16.9z M167,8.5l-2.2,4.7v0.1h4.4v-0.1L167,8.5z M178.7,5.3h4.1
	l3.5,10.3v0.1c0,0,0,0.1,0.1,0.1c0.1,0.3,0.2,0.5,0.3,0.7s0.4,0.3,0.7,0.4v0.6h-0.2h-3.3l-3.1-9.2l0,0c-0.1,0.4-0.2,0.9-0.3,1.4
	s-0.3,1-0.4,1.6c-0.1,0.3-0.1,0.6-0.2,0.9c-0.1,0.3-0.2,0.6-0.3,0.9c-0.1,0.4-0.2,0.7-0.3,1.1c-0.1,0.3-0.2,0.6-0.3,0.9
	c-0.1,0.3-0.2,0.5-0.3,0.7c-0.1,0.2-0.2,0.4-0.3,0.6c-0.3,0.5-0.6,0.9-0.9,1.1c-0.3,0.2-0.7,0.3-1.2,0.3h-0.2
	c-0.5,0-0.8-0.1-1.1-0.4c-0.3-0.2-0.4-0.5-0.4-0.8c0,0,0,0,0-0.1s0,0,0-0.1v-0.1v-0.1c0-0.2,0.2-0.4,0.4-0.6
	c0.2-0.2,0.4-0.3,0.8-0.3h0.2c0.1,0,0.2,0,0.3,0s0.2,0.1,0.3,0.1h0.1c0,0,0.1,0,0.1,0.1c0.1,0,0.2,0.1,0.2,0.1c0.1,0,0.1,0,0.2,0.1
	c0.1,0,0.2,0,0.3-0.1s0.2-0.1,0.2-0.2c0.2-0.2,0.3-0.6,0.5-1c0.2-0.5,0.4-1.1,0.6-1.9c0-0.2,0.1-0.4,0.2-0.8
	c0.1-0.4,0.2-0.8,0.3-1.2c0-0.1,0.1-0.3,0.1-0.4c0-0.1,0.1-0.3,0.1-0.4c0.1-0.5,0.2-0.9,0.3-1.3c0.1-0.4,0.1-0.8,0.1-1.1
	c0-0.1,0-0.1,0-0.2s0-0.2-0.1-0.3c-0.1-0.2-0.2-0.3-0.4-0.5c-0.2-0.1-0.4-0.2-0.8-0.2l0,0l0,0l0,0l0,0L178.7,5.3L178.7,5.3
	L178.7,5.3z M192.9,5.3v0.6c-0.3,0-0.5,0.1-0.6,0.3c-0.1,0.1-0.2,0.3-0.2,0.5c0,0.1,0,0.1,0,0.2s0,0.1,0,0.2l0,0l0,0v3.2h1.6
	c1.4,0,2.4,0.2,3,0.6c0.7,0.4,1.1,0.8,1.4,1.3c0.2,0.4,0.3,0.7,0.4,1c0,0.3,0.1,0.6,0.1,0.7c0,0.1,0,0.2,0,0.3s0,0.2,0,0.3
	c-0.1,0.8-0.5,1.5-1.2,2.1s-1.7,1-3.1,1H194h-5.6V17c0.3,0,0.6-0.1,0.7-0.3s0.2-0.4,0.2-0.6V16v-0.1V7.1l0,0l0,0c0-0.1,0-0.1,0-0.2
	s0-0.1,0-0.2c0-0.2-0.1-0.3-0.2-0.5c-0.1-0.1-0.3-0.2-0.6-0.3V5.3h0.2H192.9z M192.1,11.2v5.4h0.9c0.7,0,1.3-0.2,1.7-0.5
	c0.5-0.3,0.7-1,0.7-2.1c0-0.8-0.2-1.5-0.5-2c-0.4-0.5-1-0.8-2-0.8H192.1L192.1,11.2z M204.6,5.3v0.6c0,0-0.1,0-0.2,0
	c-0.1,0-0.1,0-0.2,0.1c-0.1,0.1-0.2,0.2-0.4,0.3c-0.1,0.1-0.2,0.3-0.2,0.6v3.9h5.9V6.9V6.8V6.7c0-0.2-0.1-0.3-0.2-0.5
	c-0.1-0.1-0.3-0.2-0.6-0.3V5.3h0.2h4.4v0.6c-0.3,0-0.5,0.1-0.7,0.3c-0.1,0.2-0.2,0.4-0.2,0.7v9c0,0.3,0,0.5,0.1,0.6s0.3,0.2,0.5,0.3
	c0,0,0,0,0.1,0h0.1v0.6H213h-4.4v-0.6h0.1h0.1c0.3-0.1,0.4-0.2,0.5-0.3c0.1-0.1,0.1-0.3,0.1-0.6v-4.2h-5.9v4.2
	c0,0.3,0.1,0.5,0.2,0.6c0.1,0.2,0.3,0.3,0.7,0.4v0.6h-0.2H200v-0.6c0.3-0.1,0.6-0.2,0.7-0.4c0.1-0.1,0.2-0.3,0.2-0.6v-9
	c0-0.3-0.1-0.5-0.2-0.6c-0.1-0.1-0.2-0.2-0.4-0.3c-0.1,0-0.1-0.1-0.2-0.1c-0.1,0-0.1,0-0.2,0V5.3h0.2H204.6L204.6,5.3z M219.3,5.3
	v0.6c-0.3,0-0.5,0.1-0.6,0.3c-0.1,0.1-0.2,0.3-0.2,0.5c0,0.1,0,0.1,0,0.2s0,0.1,0,0.2l0,0l0,0v3.2h1.6c1.4,0,2.4,0.2,3,0.6
	c0.7,0.4,1.1,0.8,1.4,1.3c0.2,0.4,0.3,0.7,0.4,1c0,0.3,0.1,0.6,0.1,0.7c0,0.1,0,0.2,0,0.3s0,0.2,0,0.3c-0.1,0.8-0.5,1.5-1.2,2.1
	s-1.7,1-3.1,1h-0.2h-5.6V17c0.3,0,0.6-0.1,0.7-0.3s0.2-0.4,0.2-0.6V16v-0.1V7.1l0,0l0,0c0-0.1,0-0.1,0-0.2s0-0.1,0-0.2
	c0-0.2-0.1-0.3-0.2-0.5c-0.1-0.1-0.3-0.2-0.6-0.3V5.3h0.2H219.3L219.3,5.3z M218.4,11.2v5.4h0.9c0.7,0,1.2-0.2,1.7-0.5
	c0.5-0.3,0.7-1,0.7-2.1c0-0.8-0.2-1.5-0.5-2c-0.4-0.5-1-0.8-2-0.8C219.3,11.2,218.4,11.2,218.4,11.2z M229.8,5.3v0.6
	c-0.3,0-0.5,0.1-0.6,0.3c-0.1,0.1-0.2,0.3-0.2,0.5v0.1v0.1v9V16v0.1c0,0.2,0.1,0.3,0.2,0.5c0.1,0.1,0.3,0.2,0.6,0.3v0.6h-0.2h-4.4
	v-0.6c0,0,0.1,0,0.2,0c0.1,0,0.1,0,0.2-0.1c0.1-0.1,0.2-0.2,0.4-0.3c0.1-0.1,0.2-0.3,0.2-0.6v-9c0-0.3-0.1-0.5-0.2-0.6
	c-0.1-0.1-0.2-0.2-0.4-0.3c-0.1,0-0.1-0.1-0.2-0.1c-0.1,0-0.1,0-0.2,0V5.3h0.2C225.4,5.3,229.8,5.3,229.8,5.3z M231.5,5.3h4.4v0.6
	l0,0l0,0l0,0l0,0l0,0c0,0,0,0-0.1,0h-0.1c0,0-0.1,0-0.1,0.1c-0.1,0.1-0.2,0.2-0.3,0.3C235,6.5,235,6.7,235,6.9v6.5l5.4-5.7V6.9
	c0-0.2-0.1-0.4-0.2-0.6c-0.1-0.2-0.4-0.3-0.7-0.4V5.3h0.2h4.4v0.6c-0.3,0-0.5,0.1-0.6,0.3c-0.1,0.1-0.2,0.3-0.2,0.5v0.1v0.1v9V16
	v0.1c0,0.2,0.1,0.3,0.2,0.5c0.1,0.1,0.3,0.2,0.6,0.3v0.6h-0.2h-4.4v-0.6c0.2,0,0.4-0.1,0.5-0.2s0.2-0.2,0.3-0.3c0-0.1,0-0.2,0.1-0.2
	c0-0.1,0-0.1,0-0.2V9.3L235,15v0.9c0,0.2,0.1,0.4,0.2,0.6c0.1,0.2,0.4,0.3,0.7,0.4v0.6h-0.2h-4.4v-0.6c0.3,0,0.5-0.1,0.6-0.3
	c0.1-0.1,0.2-0.3,0.2-0.5V16v-0.1v-9V6.8V6.7c0-0.2-0.1-0.3-0.2-0.5c-0.1-0.1-0.3-0.2-0.6-0.3V5.3H231.5L231.5,5.3z M237.7,2.6
	c0.1,0,0.3,0,0.5,0s0.4,0,0.5-0.1c0.4-0.1,0.8-0.2,1.2-0.4s0.5-0.4,0.5-0.7c0-0.1,0-0.1,0-0.2s-0.1-0.1-0.2-0.1
	c-0.1,0-0.1,0-0.2,0.1c-0.1,0-0.1,0.1-0.2,0.1l0,0l0,0c-0.1,0-0.1,0.1-0.2,0.1s-0.1,0-0.2,0h-0.2c0,0,0,0-0.1,0H239
	c-0.1,0-0.3-0.1-0.4-0.2c-0.1-0.1-0.2-0.2-0.2-0.4s0.1-0.4,0.3-0.5c0.2-0.2,0.4-0.2,0.8-0.2h0.2c0.5,0,0.9,0.1,1.2,0.4
	s0.4,0.6,0.4,1c0,0.7-0.4,1.3-1.1,1.8c-0.7,0.5-1.5,0.8-2.3,0.8h-0.2h-0.1l0,0l0,0l0,0l0,0c-0.9,0-1.6-0.3-2.3-0.8s-1.1-1.1-1.1-1.8
	c0-0.4,0.1-0.7,0.4-1c0.3-0.3,0.7-0.4,1.2-0.4h0.2c0.3,0,0.5,0.1,0.7,0.2c0.1,0.1,0.2,0.2,0.3,0.4v0.1v0.1c0,0.2-0.1,0.3-0.2,0.4
	c-0.1,0.1-0.2,0.2-0.4,0.2h-0.1h-0.1H236c-0.1,0-0.1,0-0.2,0c-0.1,0-0.2-0.1-0.2-0.1l0,0l0,0c0,0-0.1,0-0.1-0.1c-0.1,0-0.1,0-0.1,0
	c-0.1,0-0.1,0.1-0.1,0.1s0,0.1-0.1,0.1l0,0l0,0c0,0.1,0,0.1,0.1,0.2s0.1,0.2,0.2,0.3c0.2,0.2,0.5,0.3,0.9,0.5
	C236.6,2.5,237.1,2.6,237.7,2.6L237.7,2.6z"/>
<path class="st0" d="M96.5,25.3h9.4l7,19.2l7-19.2h0.4h8.9v1.4c-0.5,0.1-0.9,0.2-1.1,0.4c-0.3,0.2-0.5,0.4-0.6,0.7
	c-0.1,0.2-0.2,0.4-0.2,0.6s0,0.3,0,0.4V49c0,0.5,0.1,1,0.3,1.2c0.2,0.3,0.5,0.5,0.7,0.7c0.2,0.1,0.3,0.1,0.5,0.2
	c0.2,0,0.3,0.1,0.4,0.1v1.4h-0.4H119v-1.4c0.5-0.1,0.9-0.2,1.2-0.4c0.3-0.2,0.5-0.5,0.6-0.7s0.1-0.4,0.1-0.6c0-0.2,0-0.3,0-0.4V29.4
	l-8.5,23.3H112h-2.7l-8.6-23.6v19.6c0,0.8,0.2,1.4,0.5,1.8c0.3,0.4,0.7,0.6,1.1,0.7c0.1,0,0.2,0,0.3,0.1c0.1,0,0.2,0,0.3,0v1.4h-0.4
	H96v-1.4c0.6,0,1.1-0.1,1.4-0.4c0.3-0.3,0.5-0.6,0.6-0.9c0.1-0.3,0.2-0.5,0.2-0.7s0-0.4,0-0.5V29.9c0-1-0.2-1.8-0.6-2.4
	s-0.9-0.8-1.6-0.8v-1.4L96.5,25.3L96.5,25.3z"/>
<path class="st0" d="M144,25.3v1.4h-0.1c-0.1,0-0.2,0-0.2,0c-0.1,0-0.2,0-0.3,0c-0.3,0.1-0.6,0.2-0.9,0.4c-0.3,0.2-0.4,0.5-0.4,1
	c0,0.2,0,0.4,0.1,0.7c0.1,0.3,0.2,0.5,0.4,0.9l5.8,9.6l3.8-9c0-0.1,0.1-0.1,0.1-0.2s0.1-0.2,0.1-0.3c0-0.1,0-0.1,0.1-0.2
	c0-0.1,0-0.1,0.1-0.2c0.1-0.2,0.1-0.3,0.1-0.4s0-0.3,0-0.4c0-0.5-0.2-0.9-0.6-1.2c-0.4-0.2-0.9-0.4-1.4-0.5c-0.1,0-0.2,0-0.3-0.1
	c-0.1,0-0.2,0-0.3-0.1v-1.4h0.4h7.3v1.4c-0.8,0.3-1.3,0.7-1.6,1.1s-0.6,0.9-0.9,1.5c0,0.1-0.1,0.1-0.1,0.2s-0.1,0.1-0.1,0.2
	l-6.8,16.1c-0.8,2-1.9,3.7-3.2,5.1c-1.3,1.4-3.1,2.1-5.5,2.1h-0.4c-1.4,0-2.4-0.2-3.1-0.6c-0.7-0.4-1.2-0.9-1.6-1.3
	c-0.2-0.4-0.4-0.7-0.4-1c-0.1-0.3-0.1-0.6-0.1-0.7c0-0.1,0-0.2,0-0.2c0-0.1,0-0.2,0-0.2c0.1-0.7,0.3-1.3,0.8-1.9
	c0.5-0.6,1.2-0.9,2.2-0.9h0.4c0.8,0,1.3,0.1,1.7,0.4c0.4,0.3,0.7,0.6,0.9,1c0.1,0.2,0.2,0.4,0.3,0.6c0.1,0.2,0.1,0.4,0.1,0.5
	s0,0.1,0,0.2c0,0.1,0,0.1,0,0.2c0.1,0.3,0.2,0.5,0.4,0.7s0.5,0.3,0.9,0.4c0.2,0,0.6-0.1,1-0.4c0.5-0.2,1-0.7,1.5-1.4
	c0.2-0.3,0.4-0.6,0.6-1c0.2-0.4,0.4-0.8,0.6-1.2L135,28.8c-0.3-0.5-0.6-0.9-1-1.2c-0.4-0.3-0.7-0.5-1.1-0.7
	c-0.1-0.1-0.2-0.1-0.3-0.1s-0.2-0.1-0.4-0.1v-1.4h0.4L144,25.3L144,25.3z"/>
<path class="st0" d="M162.3,31.5l0.4-6.5h0.4h1.4c0,0.1,0,0.1,0.1,0.1c0,0,0,0.1,0.1,0.1c0.1,0.1,0.2,0.3,0.4,0.4s0.4,0.2,0.8,0.2
	c0.1,0,0.3,0,0.4,0s0.2-0.1,0.4-0.1c0.2-0.1,0.4-0.1,0.6-0.2c0.2-0.1,0.4-0.1,0.7-0.2c0.2-0.1,0.4-0.1,0.7-0.2s0.6-0.1,0.9-0.2
	c0.2,0,0.4-0.1,0.7-0.1c0.2,0,0.5-0.1,0.7-0.1c0.3,0,0.6,0,0.9-0.1c0.3,0,0.5,0,0.8,0h0.4c0.5,0,1.1,0,1.7,0.1
	c0.6,0.1,1.2,0.2,1.8,0.3c1.7,0.4,3.2,1.2,4.6,2.3c1.4,1.1,2.2,2.7,2.4,4.7c0,0.1,0,0.2,0,0.2c0,0.1,0,0.1,0,0.2
	c0,1.3-0.3,2.4-1,3.3c-0.7,0.9-1.5,1.7-2.3,2.2v0.2c0.8,0.4,1.4,0.9,1.9,1.4s0.9,0.9,1.3,1.4c0.5,0.7,0.8,1.3,1,2s0.3,1.3,0.3,1.8
	c0,2.2-0.7,3.8-2.1,5c-1.4,1.2-3,2-4.7,2.5c-0.7,0.2-1.4,0.3-2,0.4c-0.7,0.1-1.3,0.1-1.9,0.1h-0.4c-1.4,0-2.6-0.2-3.7-0.5
	c-1.1-0.3-2-0.7-2.9-1.1c-0.8-0.4-1.5-0.7-2.1-1c-0.7-0.3-1.3-0.5-2-0.6c-0.1,0-0.1,0-0.2,0c-0.1,0-0.1,0-0.2,0h0.4
	c-0.1,0-0.1,0-0.2,0c-0.1,0-0.1,0-0.2,0c-0.4,0-0.8,0-1.3,0s-0.9,0.1-1.4,0.3c-0.1,0-0.2,0.1-0.2,0.1c-0.1,0-0.2,0.1-0.2,0.1h-0.4
	l-0.9-1.6c0.1-0.1,0.3-0.3,0.4-0.4c0.1-0.1,0.3-0.3,0.4-0.4c0.6-0.5,1.3-1.1,2-1.6c0.8-0.5,1.6-0.8,2.4-1c0.2,0,0.4-0.1,0.5-0.1
	c0.2,0,0.3,0,0.5,0h0.4c0.8,0,1.6,0.2,2.2,0.7c0.7,0.5,1.2,1,1.8,1.5c0.2,0.2,0.3,0.3,0.4,0.5c0.1,0.2,0.3,0.3,0.4,0.4
	c0.1,0.1,0.2,0.2,0.3,0.3s0.2,0.2,0.3,0.3c0.4,0.5,0.9,1,1.5,1.4c0.5,0.4,1.2,0.7,2,0.7c1.1-0.1,2.1-0.5,2.9-1.4
	c0.9-0.9,1.3-2.5,1.3-4.9c0-0.9-0.1-1.7-0.4-2.4c-0.3-0.7-0.6-1.4-1.1-2c-0.9,0.4-1.7,0.7-2.6,0.9c-0.8,0.2-1.6,0.3-2.4,0.3H171
	c-1.9,0-3.3-0.3-4.1-1s-1.2-1.5-1.2-2.4v-0.1v-0.1c0.1-0.8,0.4-1.5,1.1-2.1c0.7-0.6,1.8-1,3.4-1h0.4c0.8,0,1.7,0.1,2.6,0.3
	c0.9,0.2,2,0.6,3.4,1.1c0.2-0.3,0.4-0.6,0.6-0.9c0.2-0.3,0.3-0.6,0.4-0.9c0.1-0.4,0.2-0.8,0.3-1.2s0.1-0.7,0.1-1
	c0-1.6-0.5-2.8-1.4-3.6c-0.9-0.8-1.9-1.4-3.1-1.6c-0.2-0.1-0.5-0.1-0.7-0.1s-0.5-0.1-0.7-0.1c-0.3,0-0.6,0-1,0.1
	c-0.3,0.1-0.7,0.1-1,0.2c-1.2,0.3-2.3,0.8-3.4,1.5c-1.1,0.7-1.8,1.7-2.3,3H164L162.3,31.5L162.3,31.5z M174.5,38.2
	c-0.4-0.2-0.8-0.4-1.2-0.6c-0.4-0.2-0.8-0.3-1.3-0.4c-0.4-0.1-0.7-0.2-1.1-0.3c-0.4-0.1-0.7-0.1-1-0.1c-0.7,0-1.2,0.1-1.5,0.3
	s-0.5,0.4-0.6,0.6c0,0.1,0,0.1,0,0.2c0,0.1,0,0.1,0,0.2c0,0.3,0.2,0.6,0.6,0.9c0.4,0.3,1.2,0.4,2.4,0.4c0.8,0,1.5-0.1,2-0.3
	s0.9-0.3,1.3-0.5c0.1-0.1,0.2-0.1,0.3-0.2C174.3,38.3,174.4,38.3,174.5,38.2z"/>
<path class="st0" d="M187.7,25.3H207c0.5,0,0.9,0,1.2-0.1s0.5-0.3,0.6-0.6h0.4h1v7h-0.4h-1.4c-0.5-1.8-1.2-3-2.3-3.5
	c-1-0.5-2.4-0.7-4-0.7H196v9.9h3.9c1,0,1.9-0.2,2.5-0.5c0.6-0.4,0.9-1,0.9-1.9v-0.1h0.4h1.4v7h-0.4h-1.4c-0.1-0.6-0.2-1.1-0.5-1.5
	c-0.3-0.3-0.6-0.6-0.8-0.7c-0.3-0.1-0.5-0.2-0.7-0.2s-0.4,0-0.5,0H196v11.2h9c1.6,0,2.9-0.5,4-1.5s1.7-2.1,1.9-3.4h0.4h1.4v6.9h-0.4
	h-24.5v-1.4c0.7-0.1,1.2-0.3,1.4-0.6c0.3-0.3,0.4-0.7,0.5-1.1c0-0.2,0-0.3,0.1-0.5c0-0.2,0-0.3,0-0.4V29.3c0-0.1,0-0.2,0-0.3
	c0-0.1,0-0.2,0-0.3c-0.1-0.4-0.2-0.8-0.5-1.2c-0.3-0.4-0.8-0.6-1.5-0.7L187.7,25.3L187.7,25.3z"/>
<path class="st0" d="M230,21.8c0.3,0,0.7,0,1.1,0c0.4,0,0.8,0,1.2-0.1c0.9-0.1,1.8-0.2,2.6-0.4c0.8-0.2,1.2-0.4,1.2-0.7
	c0-0.1,0-0.1-0.1-0.2s-0.2-0.1-0.4-0.1c-0.1,0-0.3,0-0.4,0.1c-0.1,0-0.3,0.1-0.4,0.1h-0.1l0,0c-0.2,0-0.3,0.1-0.5,0.1s-0.3,0-0.5,0
	h-0.4c-0.1,0-0.1,0-0.2,0s-0.1,0-0.2,0c-0.3,0-0.6-0.1-0.9-0.2c-0.3-0.1-0.4-0.2-0.4-0.4c0-0.2,0.2-0.4,0.6-0.5
	c0.4-0.2,0.9-0.2,1.7-0.2h0.4c1.1,0,2,0.1,2.6,0.4s1,0.6,1,1c0,0.7-0.8,1.3-2.3,1.8c-1.6,0.5-3.3,0.8-5.2,0.8H230h-0.2h-0.1h-0.1
	h-0.1h-0.1c-1.9,0-3.6-0.3-5.2-0.8c-1.6-0.5-2.4-1.1-2.4-1.8c0-0.4,0.3-0.7,1-1c0.6-0.3,1.5-0.4,2.6-0.4h0.4c0.7,0,1.1,0.1,1.5,0.2
	c0.3,0.1,0.6,0.2,0.7,0.3l0.1,0.1V20c0,0.1-0.1,0.3-0.4,0.4s-0.5,0.2-0.8,0.2c-0.1,0-0.2,0-0.3,0s-0.2,0-0.3,0h-0.4
	c-0.1,0-0.3,0-0.4,0c-0.2,0-0.3-0.1-0.5-0.1h-0.1h-0.1c-0.1,0-0.2,0-0.3-0.1c-0.1,0-0.2,0-0.3,0c-0.2,0-0.3,0.1-0.3,0.1
	c-0.1,0-0.1,0.1-0.1,0.1l0,0l0,0c0,0.1,0.1,0.1,0.2,0.2c0.1,0.1,0.3,0.2,0.5,0.3c0.5,0.2,1.2,0.3,2.1,0.5
	C227.5,21.7,228.7,21.8,230,21.8L230,21.8z"/>
<path class="st0" d="M216.1,25.3h9.7v1.4h-0.1h-0.1l0,0l0,0h-0.1c0,0-0.1,0-0.2,0.1c-0.1,0-0.2,0.1-0.3,0.1s-0.2,0.1-0.3,0.2
	c-0.2,0.1-0.4,0.3-0.6,0.6c-0.2,0.3-0.3,0.7-0.3,1.2v14.4L236,30.7v-1.8c0-0.5-0.1-1-0.4-1.4c-0.3-0.4-0.8-0.7-1.5-0.8v-1.4h0.4h9.7
	v1.4c-0.7,0.1-1.1,0.3-1.4,0.6c-0.3,0.3-0.4,0.7-0.5,1.1c0,0.1,0,0.2,0,0.3s0,0.2,0,0.3v20c0,0.1,0,0.2,0,0.3s0,0.2,0,0.3
	c0.1,0.4,0.2,0.7,0.5,1.1c0.3,0.3,0.7,0.5,1.4,0.6v1.4h-0.4H234v-1.4c0.5-0.1,0.9-0.2,1.2-0.5c0.3-0.2,0.5-0.5,0.6-0.8
	c0.1-0.2,0.1-0.4,0.1-0.5c0-0.2,0-0.3,0-0.4V34.3l-12,12.7v2c0,0.5,0.1,1,0.4,1.4c0.3,0.4,0.8,0.7,1.5,0.8v1.4h-0.4h-9.7v-1.4
	c0.7-0.1,1.1-0.3,1.4-0.6c0.3-0.3,0.4-0.7,0.5-1.1c0-0.1,0-0.2,0-0.3s0-0.2,0-0.3v-20c0-0.1,0-0.2,0-0.3c0-0.1,0-0.2,0-0.3
	c-0.1-0.4-0.2-0.7-0.5-1.1c-0.3-0.3-0.7-0.5-1.4-0.6v-1.4C215.7,25.3,216.1,25.3,216.1,25.3z"/>
<path class="st0" d="M95.5,58.1h1.1c0.3,0.1,0.5,0.2,0.8,0.3s0.6,0.1,1,0.1h12.8c0.2,0,0.4,0,0.5,0c0.2,0,0.3,0,0.5-0.1
	c0.1,0,0.3-0.1,0.4-0.1s0.3-0.1,0.4-0.2h0.3h1.1v5.4h-0.3h-1c-0.3-0.7-0.6-1.2-0.9-1.6c-0.3-0.4-0.7-0.8-1.1-1
	c-0.5-0.3-0.9-0.6-1.4-0.6c-0.4-0.1-0.8-0.1-1.1-0.1H107V77c0,0.4,0.1,0.8,0.3,1.1c0.2,0.3,0.6,0.5,1.2,0.6v1.1h-0.3h-7.1v-1.1
	c0.1,0,0.1,0,0.2-0.1c0,0,0.1,0,0.1-0.1c0.4-0.1,0.7-0.3,0.9-0.5c0.2-0.2,0.2-0.6,0.2-1.1V60.1h-1.3c-0.3,0-0.6,0-0.9,0.1
	c-0.3,0-0.7,0.1-1,0.2c-0.5,0.2-1.1,0.5-1.6,1s-0.9,1.2-1.2,2.1h-0.3h-1v-5.4C95.2,58.1,95.5,58.1,95.5,58.1z M114.8,78.7
	c0.1,0,0.3-0.2,0.6-0.3c0.3-0.2,0.6-0.5,0.9-1c0.1-0.1,0.2-0.3,0.3-0.5c0.1-0.2,0.2-0.3,0.2-0.5l5.8-12.9c0.1-0.1,0.1-0.3,0.2-0.5
	c0-0.2,0.1-0.3,0.1-0.5c0-0.1,0.1-0.3,0.1-0.5s0-0.3,0-0.5s-0.1-0.3-0.3-0.4c-0.2-0.1-0.5-0.2-0.8-0.2h-0.1h-0.1V60
	c0.8-0.1,1.4-0.2,1.9-0.4s0.9-0.5,1.2-0.7c0.1-0.1,0.2-0.1,0.3-0.2c0.1-0.1,0.1-0.2,0.2-0.2h0.3h1l7.5,16.5c0.6,1.3,1.1,2.2,1.5,2.7
	s0.8,0.9,1.1,1.1c0,0,0,0,0.1,0c0,0,0,0,0.1,0v1.1h-0.3h-8.2v-1.1h0.1c0.4,0,0.8-0.1,1-0.4s0.4-0.6,0.5-1c0-0.1,0-0.1,0-0.2
	c0,0,0-0.1,0-0.2c0,0,0-0.1,0-0.2s0-0.2-0.1-0.3c0,0,0,0,0-0.1c0,0,0,0,0-0.1s0-0.2-0.1-0.2c0-0.1,0-0.1-0.1-0.2l-0.9-2h-8.9
	l-0.7,1.8v0.1v0.1c0,0.1-0.1,0.2-0.1,0.3c0,0.1-0.1,0.2-0.1,0.3c0,0.1,0,0.1,0,0.2s0,0.1,0,0.2c0,0.3,0.1,0.6,0.4,0.9
	s0.7,0.5,1.5,0.6v1.1h-0.3H115L114.8,78.7L114.8,78.7z M124.3,64.3l-3.6,8.1v0.1h7.2v-0.1L124.3,64.3z M138.3,58.7h7.7
	c0.1,0,0.2,0,0.3,0s0.2,0,0.3,0c2.1,0,3.6,0.4,4.6,1.1c1,0.7,1.6,1.5,1.9,2.3c0.1,0.3,0.2,0.6,0.2,0.9c0,0.3,0.1,0.5,0.1,0.8
	c0,1.2-0.3,2.2-0.9,2.9c-0.6,0.7-1.3,1.2-2,1.6c-0.3,0.1-0.5,0.2-0.8,0.3c-0.2,0.1-0.5,0.2-0.7,0.2V69c1.5,0.1,2.8,0.7,3.9,1.7
	c1.1,1,1.6,2.2,1.6,3.8s-0.4,2.7-1.2,3.4c-0.8,0.7-1.7,1.3-2.6,1.5c-0.6,0.2-1.3,0.3-1.9,0.3c-0.6,0-1.1,0.1-1.4,0.1h-0.3H138v-1.1
	c0.5-0.1,0.8-0.2,1-0.5s0.3-0.5,0.3-0.8c0-0.1,0-0.1,0-0.2s0-0.1,0-0.2V61.5c0-0.1,0-0.1,0-0.2c0-0.1,0-0.1,0-0.2
	c0-0.3-0.2-0.6-0.3-0.8c-0.2-0.3-0.5-0.4-1-0.5v-1.1H138.3L138.3,58.7z M144,69.6v8.6h1.4c0.2,0,0.5,0,0.8,0s0.7-0.1,1-0.2
	c0.6-0.2,1.1-0.6,1.6-1.2s0.7-1.5,0.7-2.7c0-1.4-0.4-2.5-1.2-3.2s-1.7-1.1-2.6-1.2c-0.2,0-0.3,0-0.5,0s-0.3,0-0.5,0L144,69.6
	L144,69.6z M144,60.3V68h1.3c1.1,0,1.9-0.3,2.6-1c0.7-0.7,1-1.6,1-2.8c0-1.2-0.3-2.1-0.8-2.7c-0.5-0.5-1.1-0.9-1.7-1
	c-0.3-0.1-0.6-0.1-0.9-0.2c-0.3,0-0.5,0-0.8,0C144.7,60.3,144,60.3,144,60.3z M156.9,79.8v-1.1c0.1,0,0.1,0,0.3,0
	c0.1,0,0.3-0.1,0.4-0.2c0.2-0.1,0.3-0.3,0.5-0.5s0.2-0.6,0.2-1V65.1c0-2.4,0.7-4.1,2-5.1c1.4-1,2.9-1.6,4.5-1.7c0.1,0,0.2,0,0.3,0
	s0.2,0,0.3,0h0.3c2.6,0,4.5,0.7,5.8,2.2c1.3,1.4,2,3.1,2,4.9c0,0.4,0,0.8-0.1,1.3s-0.2,0.9-0.3,1.4c-0.3,1.2-0.9,2.2-1.8,3.2
	c-0.9,1-2.2,1.5-4,1.5H167c-0.5,0-1.1-0.1-1.8-0.2s-1.5-0.4-2.3-1V77c0,0.4,0.1,0.8,0.4,1.1c0.3,0.3,0.6,0.5,1.1,0.6v1.1h-0.3
	C164.1,79.8,156.9,79.8,156.9,79.8z M162.9,63v5.1c0,0.7,0.3,1.3,0.8,1.8c0.6,0.5,1.2,0.8,2,0.8c1.2,0,1.9-0.6,2.2-1.6
	s0.5-2.3,0.5-3.8s-0.1-2.8-0.4-3.8c-0.3-1-1-1.5-2.2-1.6c-0.1,0-0.1,0-0.2,0c-0.1,0-0.1,0-0.2,0c-0.6,0.1-1.2,0.4-1.8,0.9
	C163.1,61.3,162.9,62,162.9,63L162.9,63z M176.2,58.7h7.1v1.1c0,0,0,0-0.1,0s-0.1,0-0.1,0l0,0l0,0c0,0,0,0-0.1,0h-0.1
	c-0.1,0-0.1,0-0.2,0.1c-0.1,0-0.2,0.1-0.2,0.1c-0.2,0.1-0.3,0.3-0.4,0.5c-0.1,0.2-0.2,0.5-0.2,0.9v11.1l8.9-9.8v-1.4
	c0-0.4-0.1-0.8-0.3-1.1s-0.6-0.5-1.1-0.6v-1.1h0.3h7.1v1.1c-0.5,0.1-0.8,0.2-1,0.5s-0.3,0.5-0.3,0.8c0,0.1,0,0.1,0,0.2
	c0,0.1,0,0.1,0,0.2V77c0,0.1,0,0.1,0,0.2s0,0.1,0,0.2c0,0.3,0.2,0.6,0.3,0.8c0.2,0.3,0.5,0.4,1,0.5v1.1h-0.3h-7.1v-1.1
	c0.4-0.1,0.7-0.2,0.9-0.4c0.2-0.2,0.3-0.4,0.4-0.6c0-0.1,0.1-0.3,0.1-0.4s0-0.2,0-0.3V65.6l-8.9,9.8V77c0,0.4,0.1,0.8,0.3,1.1
	c0.2,0.3,0.6,0.5,1.1,0.6v1.1H183h-7.1v-1.1c0.5-0.1,0.8-0.2,1-0.5s0.3-0.5,0.3-0.8c0-0.1,0-0.1,0-0.2s0-0.1,0-0.2V61.5
	c0-0.1,0-0.1,0-0.2c0-0.1,0-0.1,0-0.2c0-0.3-0.2-0.6-0.3-0.8c-0.2-0.3-0.5-0.4-1-0.5v-1.1H176.2L176.2,58.7z M217.2,58.7v1.1
	c-0.5,0.1-0.9,0.3-1.1,0.6c-0.2,0.3-0.3,0.6-0.3,1.1v14.9l0,0l0,0l0,0l0,0c0,0.4,0.1,0.8,0.3,1.1c0.2,0.3,0.8,0.5,2,0.5
	c0,0,0,0,0.1,0c0,0,0,0,0.1,0c0.2,0,0.5,0,0.7,0.1s0.3,0.3,0.3,0.8c0,0.3-0.1,0.6-0.2,0.9c-0.1,0.3-0.3,0.7-0.5,1
	c-0.3,0.6-0.6,1.1-1.1,1.7c-0.4,0.5-0.9,1-1.3,1.3c-0.3,0.2-0.6,0.4-0.9,0.6c-0.3,0.2-0.6,0.2-0.8,0.2h-0.3c-0.2,0-0.4-0.1-0.5-0.2
	s-0.2-0.2-0.2-0.3c0-0.1,0-0.1,0-0.2s0-0.1,0-0.1c0-0.1,0-0.3,0.1-0.4s0.1-0.3,0.2-0.5c0,0,0,0,0-0.1c0,0,0,0,0-0.1
	c0.1-0.3,0.2-0.5,0.3-0.8s0.2-0.6,0.2-1c0-0.1,0-0.2,0-0.3c0-0.1,0-0.2-0.1-0.3c-0.1-0.2-0.2-0.5-0.4-0.6c-0.2-0.2-0.5-0.3-0.9-0.3
	h-8.6c-0.6,0-1,0.1-1.3,0.2c-0.2,0.2-0.4,0.5-0.4,0.9c0,0.3,0,0.5,0.1,0.7c0.1,0.1,0.1,0.2,0.2,0.3l0,0c0,0,0,0,0.1,0
	c0.1,0.1,0.2,0.3,0.3,0.6c0.1,0.3,0.1,0.7,0.1,1.4c0,0.3-0.1,0.5-0.2,0.6c-0.1,0.2-0.3,0.2-0.6,0.2h-0.3c-0.1,0-0.3-0.1-0.6-0.2
	s-0.7-0.4-1.3-1c-0.1-0.1-0.3-0.3-0.4-0.5c-0.2-0.2-0.3-0.4-0.5-0.6c-0.2-0.3-0.4-0.6-0.6-0.9c-0.2-0.3-0.4-0.6-0.5-1
	c-0.1-0.3-0.2-0.6-0.3-0.9s-0.1-0.6-0.1-0.8c0-0.4,0.1-0.7,0.3-0.8c0.2-0.1,0.5-0.2,0.8-0.2h0.1h0.1c0.3,0,0.5-0.1,0.8-0.2
	c0.2-0.1,0.5-0.2,0.7-0.4c0.6-0.4,1.2-1.5,2-3.2c0.7-1.7,1.9-4.8,3.5-9.3c0.3-0.9,0.6-1.6,0.7-2.1c0.1-0.5,0.2-0.9,0.2-1.3
	c0-0.5-0.2-1-0.5-1.4s-1.1-0.5-2.3-0.5v-1.1h0.3L217.2,58.7L217.2,58.7z M211.1,60.3c-0.4,0.1-0.7,0.3-1.1,0.6
	c-0.4,0.3-0.8,0.8-1.2,1.3c-0.7,0.9-1.3,2.1-2,3.4c-0.6,1.4-1.2,2.8-1.7,4.3c-0.5,1.4-0.9,2.7-1.1,4c-0.3,1.3-0.4,2.4-0.4,3.3
	c0,0.4,0.1,0.6,0.3,0.8c0.2,0.1,0.5,0.2,0.9,0.2h6.4L211.1,60.3L211.1,60.3z M226.9,58.7v1.1c-0.5,0.1-0.8,0.2-1,0.5
	c-0.2,0.2-0.3,0.5-0.3,0.8c0,0.1-0.1,0.2-0.1,0.4s0,0.2,0,0.4l0,0l0,0v5.6h2.6c2.2,0,3.9,0.3,5,1s1.9,1.4,2.3,2.2
	c0.3,0.6,0.5,1.2,0.6,1.8c0.1,0.6,0.1,1,0.1,1.2s0,0.3,0,0.5s0,0.3,0,0.5c-0.2,1.3-0.9,2.5-2,3.7c-1.1,1.1-2.8,1.7-5,1.7h-0.3h-9.2
	V79c0.5-0.1,0.9-0.3,1.1-0.6c0.2-0.3,0.3-0.7,0.3-1c0-0.1,0-0.1,0-0.2s0-0.1,0-0.2V62l0,0l0,0c0-0.1,0-0.2,0-0.4
	c0-0.1,0-0.2-0.1-0.4c0-0.3-0.2-0.5-0.3-0.8c-0.2-0.2-0.5-0.4-1-0.5v-1.1h0.3C219.8,58.7,226.9,58.7,226.9,58.7z M225.5,68.9v9.3
	h1.5c1.1,0,2-0.3,2.9-0.9c0.8-0.6,1.2-1.8,1.2-3.6c0-1.4-0.3-2.5-0.9-3.4c-0.6-0.9-1.7-1.4-3.2-1.4H225.5L225.5,68.9z M244.1,58.7
	v1.1c-0.5,0.1-0.8,0.2-1,0.5s-0.3,0.5-0.3,0.8c0,0.1,0,0.1,0,0.2c0,0.1,0,0.1,0,0.2V77c0,0.1,0,0.1,0,0.2s0,0.1,0,0.2
	c0,0.3,0.2,0.6,0.3,0.8c0.2,0.3,0.5,0.4,1,0.5v1.1h-0.3h-7.1v-1.1c0.1,0,0.2,0,0.3,0s0.2-0.1,0.3-0.1c0.2-0.1,0.4-0.3,0.6-0.5
	c0.2-0.2,0.3-0.6,0.3-1V61.5c0-0.4-0.1-0.8-0.3-1s-0.4-0.4-0.6-0.5c-0.1-0.1-0.2-0.1-0.3-0.1s-0.2,0-0.3,0v-1.1h0.3L244.1,58.7
	L244.1,58.7z"/>
<path class="st0" d="M84.9,79c0,0.3,0,0.1,0.1,0.5c-0.1,0.2-0.1,0.3-0.4,0.3l-1.1-0.1v-0.4c0-0.4-0.2-0.2-0.2-0.6v-0.2
	c0-0.8,0.5-0.5,0.9-1.1c0.3,0.2,1,0.3,0.9,0.9C85.1,78.8,84.9,78.9,84.9,79z M85.1,75.3c0.7-0.1,1.5-0.6,2.1-0.6
	c0.9,0,1.6,1.3,1.6,2.3v0.4c0,0.7-1,2.1-1.6,2.1l0.6-2.2c-1.1-0.8-0.1-1.5-2.4-1.7C85.3,75.6,85.1,75.3,85.1,75.3z M51.5,68.5
	c-0.1,2.5,0.3,2.9,0.8,4.5c-0.2,0.1-0.4,0.2-0.8,0.2h-0.3c-0.5,0-0.6-1.8-0.6-2.4v-0.9c0-0.8,0.6-2.1,1-2.4
	C51.9,68,51.5,68,51.5,68.5z M61.1,63.4l0.1-0.2h2c1.2,0,4.5,1.9,5.2,2.4c0.9,0.8,4.3,1.6,5.9,1.7l1.2,0.1l2.8-0.2
	c0.1,0.5,0,0.6,0.1,1.3c0.1,0.7,0.3,0.6,0.5,1.3c0.2,0.7,0.8,1.8,0.7,2.8v0.5c0,0.4-0.6,2.3-0.6,2.7V76c0,1.1,1.3,1.1,1.3,1.7v0.4
	c0,0.9-0.2,0.2-0.1,1.5c0.1,0.8-0.4,0.4-0.9,0.7c-0.1-0.1-0.1-0.1-0.4-0.1h-0.2L75,80.4l-1.5-0.1v-0.5c0-0.4,0.5-1.3,0.5-1.6
	c0.1-2.2-0.6-3.3-2.1-3.8c-2.5-0.7-3,1.2-4.1,1.1c-0.4,0-2.1-1.1-2.4-1.3c-0.7-0.5-1.9-0.6-2.3-1.4c-0.7-1.3-0.4-5.4-1.1-6.7v-0.5
	C62.1,65.7,61.1,63.4,61.1,63.4z M25.1,51.1c2.4,0.2,3.5,0,5,1.6c0.6,0.6,1.1,1.2,1.5,2c0.3,0.6,0.7,2,0.6,2.9c0,0-0.3,0.7-0.4,1.5
	c-0.8,1.3-0.9,2.1-2.1,3.1c-0.5,0.5-2.5,1.3-3.4,1.3l-2-0.1c-1-0.1-2.2-1.1-2.7-1.8c-0.4-0.5-0.6-0.8-0.9-1.4
	c-0.4-0.7-0.3-1.1-0.6-1.7v-2c0-1,1-2.9,1.5-3.4c0.4-0.4,0.8-0.8,1.2-1.1c0.6-0.4,0.9-0.3,1.5-0.7h0.4
	C24.8,51.3,25.1,51.1,25.1,51.1z M49.1,65.8c0.1-0.2,0.2-0.2,0.2-0.5c0.1-1.6,0.2-3.2,0.3-5.3c0.1-2-0.3-3.3-0.3-5
	c0.8,0.5,1.1,0.8,2.3,0.9l0.3,0.3l1.7,0.2c0.6,0.1,2.2-0.7,2.9-0.8c0.4,0.3,1,0.9,1.4,0.9c0.3,0,0.1-0.1,0.5-0.1
	c-0.1,0.4-2.3,1.7-2.8,2.1c-0.5,0.4-2.1,2-2.4,2.5c-0.4,0.6-0.7,0.9-1,1.5c-0.4,0.8-0.2,1.1-0.9,1.6c-1.1,0.7-1.6,2.3-2.3,2.7
	C48.8,67,49.1,65.8,49.1,65.8z M84.9,54.5c0,0.4,1.2,1.9,1.5,2.4c0.6,1.1,0.5,1.7,0.5,3.3l-0.2,0.5c-0.6-0.1-0.9-2.2-1.6-2.2
	c-0.2,0-0.5,0.1-0.5,0.4V59c0,0.1,1.3,2.5,1.3,3.6v1c0,0.2-0.5,2.1-0.6,2.4c-0.2,0.8-0.6,1.3-0.6,2.4l-0.2,0.3l-0.1,0.9
	c-0.1,0.2-0.2,0.2-0.2,0.5v0.5c0,0.6,0.1,1.5,0.2,2.1c0,0.6,0.6,1.7,0,1.7c-0.1,0-0.5-0.4-0.7-0.5l-0.5,0.2v0.3
	c0,0.4,0.5,0.7,0.9,0.8v0.2c-0.9,0.2-1.4,1.2-1.5,2.5l-0.1,0.9c0,0.7,0.5,0.8-0.1,1c0-0.6-0.4-0.7-0.3-1.1v-0.8
	c0-0.3,0.1-0.2,0.2-0.4l0.2-1.2c0.1-0.7-0.7-0.5-0.6-1.1v-0.1c0.1-0.9,0.4-1.1,0.4-1.8l0.1-1.8c0.1-2.1-0.6-2-0.5-4.1
	c0.2-1.8,0.9-3.1,0.9-4.3c0.1-1.4-0.3-2.6-1.4-2.7c-0.4,0-0.7,0.9-0.8,1.3c-0.3,1.3-0.1,0.6-0.7,1.5V64c-0.5,0.8,0.1,0.6-0.7,0.8
	c-0.2,0.1-0.8,0.4-0.9,0.5l-1.1-0.2c-0.4-0.1-0.8,0.2-1,0.2c-2.2-0.1-5.6-2.8-7.4-3.6c-1.4-0.7-2.1-1.2-3.7-1.8
	c-0.9-0.3-1.2-0.3-2.2-0.5c-1.2-0.3-1.2,0-2.4,0L58.4,60c0,0.8-0.2,0.6-0.2,0.8c0,0.4,0.2,0.4,0.3,0.5l-0.1,0.8
	c1,0.7,1.9,1.3,2.4,2.7c0.2,0.7,1,3.6,0.7,4.2l0.2,0.5l0.2,2.8c0.3,0.7,0.1,1.1,0.7,1.5c0.6,0.4,0.9,0.4,1.4,0.8l0.1-0.1l2.8,1.7
	l1.5,0.2c0,0.6-0.3,1-0.8,1c-0.2-0.7-3.8-2.7-4.9-2.8l-0.4-0.4c-1.2-0.1-1,0.1-1.4-0.8c-0.3-0.6-0.6-0.7-0.8-1.6
	c-0.3-1-0.9-2.6-1.7-3.1c-1.2-0.8-2,0.1-3.1-1.5c-0.4-0.6-0.7-0.7-0.9-1.5c0-0.2-0.5-1.8-0.5-1.8v-0.2c0-0.7,0.9-2.5,1.1-3.2
	c0.4-1.2,1.2-1.4,2-2.1c1-0.9,3.6-2.3,5.3-2.2l0.3-0.2c1.4,0.1,1.8-0.4,3.1-0.3c1.1,0.1,2.3,0.2,3.4,0.2c2.2,0.2,4.5,0,6.3-0.5
	c1.5-0.4,3.7-1.6,4.6-2.7c0.5-0.6,2-0.1,2.8,0.1c0.9,0.2,2.4,0.4,3.1,0.5c0.3,0,0.2-0.1,0.7-0.1c0,0.2,1.1,1.3,1,2.6v0.5
	c0,0.4-0.1,0.3-0.4,0.3c-0.1-0.6-1.5-2.8-1.9-2.9C85.2,54.1,84.9,54.4,84.9,54.5L84.9,54.5z M21.9,65.2c-2.2-0.2-3.5-0.7-4.6-2.3
	c-0.7-1-1.6-3.9-1.3-5.7c0.3-1.9,0-1.7,0.6-3.5c0.2-0.8,0.8-1.9,1.3-2.4c0.3-0.4,0.4-0.7,0.8-1.1c0.4-0.4,0.5-0.3,0.9-0.8
	c0.1-0.1,2.2-1.2,2.2-1.2H22c0.3,0,1.8,0.6,2,0.7c0.2,0.1,1.7,0.8,1.9,0.8v0.2c-1.8-0.1-3.6,1-4.6,2.1c-0.9,0.9-2.3,3.3-1.9,5.3
	c0.3,1.5,0.1,1.7,0.6,3.1c0.2,0.5,1.1,1.7,1.4,2.1c1.1,1.4,2.9,1.8,4.8,1.9c-0.3,0.5-2.1,0.9-2.9,0.9C23.2,65.3,21.9,65.2,21.9,65.2
	z M73.3,53c0.9,0.1,1.6-0.5,2.8-0.4h0.3c-0.2,0.6-2.8,1.9-3.5,2.1c-1.4,0.4-3,0.6-4.5,0.4L68,55.2V55l1.8-0.8c0.7,0,1.4-0.3,1.9-0.5
	C71.9,53.6,73.1,53.1,73.3,53z M33.8,47h0.4c0,0,1.6,0.5,1.8,0.5c0.5,0.2,1.6,0.2,2.1,0.3c1.8,0.2,0.9,1.6,2,2.7
	c1.6,1.4,1.1,0.6,2,2.8c0.4,1,0.7,2.8,0.7,4.4l-0.2,2.8c-0.1,1.8-1.5,5.4-2.1,6.7c-0.8,1.5-2.4,3.9-3.5,4.8c-0.4,0.3-0.6,0.7-1,1
	s-0.8,0.5-1.2,0.8c-1.1,0.8-1.4,0.8-2.6,1.3c-0.5,0.2-0.5,0.4-1.3,0.6c-0.3,0.1-1.1,0.3-1.5,0.4c-0.3,0.1-3,0.5-3.3,0.5h-0.2
	c-0.3,0-0.4-0.1-0.6-0.3c-1.6,0.3-4-1-4.7-0.9c-0.1-0.3-1.4-0.8-1.7-0.9c-0.7-0.3-1.2-0.6-1.7-1.1c-1.3-1-1.8-1.6-2.8-2.8
	c-1.3-1.6-3-5.3-3.4-8c-0.3-2.3-0.2-2.7-0.1-5.3c0.1-2.1,0.7-3.4,1.2-4.9c0.4-1.1,1.5-3,2.1-3.7c0.4-0.4,2.5-2.7,2.9-2.7
	c0.7,0,0.7,0.4,1.5,0.5l1.7,0.7c0,0.5-1.2,1.2-1.5,1.3c-0.2,0.1-1.3,1.2-1.5,1.5s-0.9,1.5-1.1,1.9c-0.2,0.5-0.4,0.5-0.5,1.1
	s0.1,0.4-0.4,1c0,0.6-0.2,1-0.2,1.5c0,0.3,0,1.2,0,1.5c0,1,0.3,1.7,0.2,3c0.6,1.2,0.6,2.1,1.4,3.5c0.7,1.1,1.3,2,2.2,2.8
	c1.7,1.6,3.9,2.7,6.9,2.9l0.3-0.2c1.5,0.1,3.2-0.1,4.2-0.8c0.9-0.6,2.5-1.2,3.2-2.1c0.4-0.5,0.8-0.7,1.3-1.4
	c0.4-0.6,0.8-1.2,1.1-1.8c0.5-0.7,1.4-3.3,1.4-4.6c0.1-1.9-0.1-5.2-0.9-6.4c-0.4-0.7-0.6-1.8-1.2-2.5C34.8,49,33.8,47.6,33.8,47
	L33.8,47z M79.7,46.4c0.9,0.1,1.6-0.6,2.2-1.1c0.6-0.7,1.2-0.9,2.1-1l0.5,0.4l0.3-0.3l2.9,0.1c0,0,0.8,0.4,1,0.4v0.4
	c-0.9,0-1.9,0.4-2.7,0.3l-1.5-0.2c-0.2-0.1-0.2-0.2-0.4-0.2h-0.5c-0.4,0-0.1,0.3-0.7,0.3c-0.1,0.6-0.3,0.6-0.3,1.2
	c0,0.3,0.1,0.5,0.3,0.5H83c0.3,0,0.2-0.2,0.5-0.2c0.4,0,0.6,0.3,1.4,0.3c0.6,0,0.9,0.1,1.4,0.2c1,0.2,1.7-0.2,2.6-0.2
	c0.2,0,0.3,0.5,0.4,0.7l-1.4,0.6c-1.2,0-2,0.3-3.1-0.1c-0.5-0.1-1.1-0.2-1.5-0.3c-0.8-0.2-0.6,0.1-1.4,0L81,49.4
	c0.3,0.7,3.9,1.1,4.7,1v0.1l2.7-0.2c0.1,0.1,0.2,0.1,0.2,0.4v0.1c0,1-4.4,0.5-5.1,0.3s-2.1-0.3-2.5-0.7c-0.3-0.2-0.7-0.4-1-0.6
	c-0.4-0.2-0.6-0.7-0.8-0.7h-0.1c-0.7,0-1.2,0.3-2.2,0.4c-0.9,0.1-1.2,0.3-2.3,0.2C73,49.6,71.4,50,70,49.9s-3.2,0.5-4.1,0.9
	c-1.3,0.5-2.5,1.1-3.7,1.4c-0.8,0.3-1.5,0.6-0.7-0.7c0.4-0.7,0.5-1.2,1.1-1.7c0.8-0.6,2.4-1.8,3.3-2c1.4-0.3,2.4-0.8,4.1-0.9
	c1.6-0.1,3.2,0.1,4.7,0.2c0.3,0,0.3,0.1,0.5,0.2l0.3-0.2C76.6,47.2,78.9,47,79.7,46.4L79.7,46.4z M62,45.3c0-0.5,0.6-1.8,0.8-2.5
	c0.3-1,0-2,0.7-2.5l0.2,0.5v0.7c0.3,0.6,0.2,1.2,0.2,2.2c-0.2,3.7-1.7,6.3-3.5,8.3c-1,1-1.9,1.7-3.1,2.4c-0.8,0.5-1.1,0.3-1.9,0.7
	c-0.3,0.2-1.8,0.3-2.3,0.2l-1-0.3v-0.2l0.5-0.2c2.4,0.1,4.5-1.9,5.9-3.2C59.4,50.5,61.9,45.5,62,45.3z M86.8,39.2
	c0.6-0.1,0.9,1.6,0.9,2.4c0.1,0.2,0.2,0.2,0.2,0.5l-0.1,1c0,0.6-1.2,0.3-1.5,0.3l-1.4-0.1c-0.1-0.5-0.4-2.7-0.3-3.2v-0.3
	c0-0.3,0.1-0.3,0.2-0.4L86.8,39.2z M40.7,50.1c1.6,0.1,1.8,0.1,3.3-0.1c1.2-0.1,1.9-0.6,2.9-0.8c0.9-0.2,3.9-2.5,4.7-3.2
	c0.2-0.2,1.8-1.9,1.9-2.2c0.2-0.4,0.6-0.8,0.9-1.1c0.3-0.4,0.5-0.9,0.8-1.3c0.8-1.4,2.2-4.2,2.4-6.3c0.2,0,1.4,0.5,1.5,0.6
	c0.3,0.2-0.1,1.4-0.3,1.7c-0.4,0.8-0.3,1.1-0.6,1.7c-0.2,0.5-0.4,1-0.7,1.5c-0.2,0.4-0.4,1.1-0.7,1.6c-0.2,0.5-0.6,0.8-0.8,1.3
	c-0.6,1.1-0.9,1.6-1.6,2.6c-0.2,0.3-1.8,2-2,2.2c-0.7,0.6-1.7,1.2-2.3,1.7c-0.9,1-4.2,1.7-6,1.6H44c-0.3,0-2.3-0.4-2.5-0.6
	c-0.5-0.3-1.7-0.9-1.8-1.5C40.1,49.7,40.7,50.1,40.7,50.1z M34.9,37.7c0.7,0,3.4-1.5,3.8-1.9c0.7-0.8,0.8-0.4,1.5-1.5
	c0.3-0.5,1.6-0.3,2.1,0c-0.2,0.9-0.6,1-1.1,1.5c-0.3,0.3-0.3,0.5-0.6,0.7s-0.6,0.2-0.8,0.4c-0.8,0.7-0.4,0.5-1.5,1
	c-0.5,0.2-1,0.8-1.4,1c-0.3,0.2-3.3,1-3.6,1.1c-0.7,0-1.7,0.1-2.2,0.1s-0.7,0-1.1,0c-0.6,0.1-0.4-0.2-0.8-0.2l-1.7-0.3
	C26.6,39,25.9,39,25,38.1c-0.5-0.5-1.5-1.4-1.6-2.3c0.7,0.1,1.6,2.7,4.2,2.9c0.2,0.2,0.2,0.2,0.4,0.3l0.8,0.1h1.1L30,39
	c0.4,0,2.2-0.4,2.7-0.4C33.5,38.5,34.2,38.1,34.9,37.7z M49.4,34.4c3,0.2,2.7-0.9,1.4,2.3c-0.2,0.5-1.9,3.6-2.2,3.9
	c-1.3,1.5-4.4,5-6.6,4.8l-0.3,0.4c-0.3,0-1.7,0.5-2.4,0.6s-1.8,0.2-2.6,0.2l-0.3-0.3c-2.3-0.1-5.5-1.7-5.6-4.6H31
	c0.1,0.5,1.1,2.2,1.4,2.4c0.8,0.6,1.6,0.7,2.5,0.8c1.8,0.1,2.6,0.3,4.5-0.3c0.4-0.1,0.8-0.1,1.1-0.3s0.5-0.3,0.9-0.5
	c0.6-0.3,1.3-0.6,2-0.8c0.1-0.9,1-1,1.6-2c0.3-0.5,0.6-0.4,1-0.9c0.3-0.4,0.4-0.5,0.7-1c0.5-0.8,1-1.4,1.4-2.3
	C48.5,36.1,49,35,49.4,34.4z M74.8,29.9c0.3-0.8,2.6-0.3,3.3-0.6c0.7-0.3,1.4-2,2.2-2c1.1,0.1,2,0.7,2.5,0.8h0.8
	c0.5,0,0.8-0.4,1.1-0.4c0.5,0,0.9,1.3,1.1,2c0.3,1.9,0.1,1.1,0,2.5c0,0.1,0.2,0.3,0.4,0.4c0.3,0,0.3,0,0.5-0.1l0.1-1.5
	c0-0.7,1.3,0.1,1.2,0.7v0.5c0,0.3-0.3,0.8-0.3,1c0.1,0.2,0.1,0.3,0.4,0.4c0.6,0,1.5-0.8,1.8-0.8c0.2,0,1.3,1.1,1.5,1.4
	c0.4,0.5,0.4,1.6,0.5,2.5c0,1-0.6,1.5-1.2,1.8c-0.2,0.1-1.8,0.7-1.9,0.7c-0.2,0-0.8-0.6-1.7-0.7c-0.7-0.1-1.3,0-2.2,0h-0.2
	c-0.3,0-0.5-0.4-0.5-0.6c0.7-1.1,2-1.2,2.1-3.5v-0.6c0-0.3-0.1-0.4-0.3-0.4c-0.7,0-0.7,2.4-3.3,2.3h-0.5c-0.4,0-1.3-0.5-1.9-0.6
	L79,34.9c0.1-1.3,0.4-2.3-0.1-3.2c-0.4-0.7-1.1-1.4-2-1.4L76.6,30c-1.1,0-1.9,0-2.6,0.6c-0.7,0.5-1,2.4-1.1,2.4
	c-0.2,0-0.6-0.4-0.8-0.5l0.2-1.9C72.4,30.5,74.8,29.9,74.8,29.9z M12.7,27.8c-1.1-1.4-1.6-3.2-0.7-5.3c0.4-0.9,2.4-3.4,3.3-3.3
	c0.4,0,1.3,1.1,1.5,1.5c0.4,0.5,0.5,1.7,0.6,2.4h0.3c0.5,0,0.6,1.1,0.6,1.8c0.5,1,0.1,1.3,0.7,2.1c0.2,0.4,0.9,1.4,1.1,1.6
	c0.5,0.4,0.9,0.9,1.4,1.4c0.1,0.1,1.6,0.8,1.8,0.9c1.2,0.5,2.9,0.9,4.4,0.7c0.8-0.1,1.5-0.1,2.2-0.3c0.4-0.1,1.8-0.7,1.8-0.7h0.1
	c0.5,0,1.4,0.9,1.9,1.1c-0.1,0.6-1.7,0.9-2.3,1c-0.9,0.2-1.8,0.2-2.7,0.2c-1,0-1.4,0.2-2.6-0.1c-0.6-0.2-1.8-0.2-2.7-0.4
	c-1.1-0.2-3.4-1.9-4-2.7c-0.7-0.9-2-3.3-2-4.9c-0.3,0.1-0.4,0.4-0.4,0.9v0.9c-0.1,1.3,1.7,3.8,2.3,4.5c0.3,0.3,1.5,1.4,1.7,1.6
	c0.9,0.6,1.3,0.1,1.2,2.1h-0.3c-0.1,0-1.7-0.9-1.7-0.9h-0.3c-0.1-0.4-0.7-0.3-1.1-0.6c-0.3-0.3-0.6-0.4-1-0.7
	c-0.7-0.4-1.3-0.9-1.9-1.4c-0.6-0.4-1.3-0.9-1.9-1.4C13.4,28.8,13.4,28.7,12.7,27.8z M4.6,25.6c-0.2,0-0.2-0.1-0.4-0.3
	c-1.2-0.1-3-1.4-2.9-2.6c0.4,0.2,0.6,0.5,0.9,0.7c0.5,0.3,0.6,0.1,1.1,0.4c0.5,0.2,1.6,0.8,1.6,1.4v0.5C4.9,25.6,4.6,25.6,4.6,25.6z
	 M80.2,24c0.8-1.2,0.3-2.3,2-2.7c0.8,0.5,0.5,1.8,1.2,2.5c0.6,0.6,1,1.4,1.8,1.9c1.1,0.9,2.8,2.5,2.8,4.5l-1.3-0.8
	c-0.1-0.9-0.8-2.6-1.7-2.6h-0.3c-0.3,0-0.7,0.6-1.2,0.5h-0.1c-0.7,0-1.5-0.9-1.9-0.9h-0.2l-1.8,0.1C79.4,26.4,80.2,24,80.2,24z
	 M48.7,33.3c-0.7-0.3-2.9-0.1-3.8-0.1c-1.4-0.1-2.7,0-3.9-0.4c-0.8-0.3-0.6,0-1.6-0.5c0,0-1.7-0.4-1.9-0.5c-0.5-0.1-1.2-0.6-1.6-0.7
	c-1.2-0.2-0.7-0.2-1.6-0.6c-0.3-0.1-1.2-0.7-1.5-0.9c-0.4-0.2-1-0.9-1.3-1.1c-1.2-0.8-1.6-1-2.4-2.2c-0.3-0.5-0.7-0.9-1-1.3
	c-0.3-0.5-0.5-1.2-0.8-1.5c-0.5-0.5-1.3-2.3-1.4-3.3c0.5,0.5,1.5,2.1,2,2.8c0.3,0.5,0.6,0.9,1,1.3c0.2,0.2,0.9,1.1,1.1,1.3
	c0.7,0.9,1.5,1.7,2.6,2.1c0.9,0.4,2,1.3,3,1.7c2.2,1,4.8,1.4,7.3,1.3c1.4-0.1,2.4-0.1,3.6-0.4c0.8-0.2,2.9-0.5,3.8-0.4l1.9,0.2H54h0
	c0.7,0.1,0.5,0.3,1.5,0.3c0.3,0,1,0.4,1.3,0.6c0.6,0.3,0.8,0.4,1.4,0.7c0.5,0.3,0.6,0.5,1.1,0.8c1,0.6,3.5,3,3.7,4.2
	c-0.4-0.1-0.8-0.7-1-1s-0.9-0.6-1.2-0.8c-0.9-0.4-1.7-0.9-2.7-1.2c-0.7-0.3-0.8-0.3-1.5-0.5c-0.7-0.3-0.7-0.1-1.6-0.2
	c-1.2-0.1-2.3,0.1-3.3,0h-0.1C51.4,33.1,48.7,33.3,48.7,33.3z M67.7,28.8c0.1-2.2,1.2-4.2,2.1-5.3c0.8-0.9,3-2.3,4.6-1.9l1,0.2
	c0.6,0.5,1.4,0.7,1.7,1.5c-0.7,0.4-1.6,1.1-2,1.9c-0.6,1.2-0.1,2.4,0.2,3.2c-0.1,0.1-1.9,0.8-2.1,0.9c-1.3,0.4-1.2-0.6-2-0.7h-0.4
	c-0.5,0-1.1,1.1-1.1,1.8c0,0.9,1.1,1.3,1.6,1.6c0,1.3,0.7,2,1.7,2c0.7,0,0.9-0.8,1-1.7c0.2-0.2,0.8-1,1.1-1l1,0.1
	c0.5,0,1.6,1.1,1.6,1.6v0.2c-0.1,1.2-1,2.2-2,2.1l-1.2-0.1c-0.3,0-1.5-1-1.7-1s-0.1,0-0.4,0.1c-0.2,0.7-0.1,1.5-0.4,1.9
	c-0.1,0.2-0.8,1.1-0.8,1.2v0.1c0,0.4,0.9,1.9,1.6,2c1.5,0.1,2.2-0.1,3.2-0.6c0.5-0.2,2.3-1,2.5-1.4c0.7,0,0.7-0.2,1.1-0.2h0.2
	c0.6,0,1.1,3.8,1,4.8v0.3c-0.1,2.7-0.6,3.1-2.5,3.4c-1.6,0.2-3.1,0.3-4.5,0.3h-0.6h-0.4h-4.5c0.1-0.6,0.3-0.9,0.5-1.4
	s0.2-0.9,0.4-1.5c0.1-0.4,0-2.6,0-3.3c0-0.3-0.5-2.1-0.6-2.8c-0.1-1.2-0.6-1.7-0.5-2.9l-0.2-0.3c0.1-1.1-0.2-1.1-0.2-2.1V28.8
	L67.7,28.8z M23.7,25.4c-0.4-0.3-0.6-0.3-1.3-0.4c-0.4-0.1-0.7-0.4-1.1-0.6c-0.2-0.1-1.8-1.2-2-1.4c-1-1.1-2.6-2.3-2.9-4
	c0.3,0.1,1,1,1.3,1.3c0.5,0.5,0.8,0.8,1.3,1.3c0.4,0.4,1,0.8,1.5,1c0.6,0.2,1.5,0.4,1.9,0.7l1.3,0.1l1.1-0.1l1.7,2.4h-0.9L23.7,25.4
	z M90.2,24.7c0.3,0.6,1.4,1.8,1.3,2.7v0.8c0,0.3-0.1,0.3-0.2,0.5v0.6c-0.5,0.4-0.4,1.2-1,1.2l0.2-1.8V28c0.1-1.7-0.7-2.6-1.6-3.3
	c-0.4-0.4-1-0.7-1.3-1.2c-0.2-0.3-0.4-0.5-0.1-0.6c0.1-0.1,0.8-0.3,0.8-0.3h0.1C88.4,22.6,90.1,24.6,90.2,24.7z M57.6,20.7V21
	c0,0.1-1.3,2.8-1.4,3c-0.3-0.3-1.2-1.7-1.2-2.2v-0.1c0-0.6,0.7-0.5,1.2-0.5l0.3-0.2C56.5,21,57.6,20.7,57.6,20.7z M10.3,23
	c0-0.1,0.6-1.5,0.7-1.7c0.4-0.5,0.6-0.5,1-1.2c0.3-0.5,1.9-1.8,2.4-1.9c-0.1,0.7-0.8,0.9-1.3,1.3c-0.8,0.6-0.6,0.6-1.2,1.3
	c-0.6,0.7-1.3,2.6-1.4,3.9c0,0.2,0.4,1.8,0.5,2c0.5,1.1,0.3,0.7,0.9,1.5c0.3,0.4,0.9,1.1,1.1,1.4c0.6,0.9,0.6,0.6,1.2,1.2
	c0.9,1.1,5.3,3.7,5.6,4.2l2.5,0.9c0.4,0.7,0.8,1.3,1.2,2.1c0.3,0.5,1.2,1.1,1.7,1.4c0.6,0.4,1.3,1,2.2,1.1c1.5,0.1,1.6,0.6,2.4,0.7
	l1.2,2.7c-0.6,0-1.1-0.5-1.4-0.8c-0.1-0.2-1-0.6-1.3-0.9c-0.8-0.7-2-1-2.7-1.6h-0.4c-0.6-0.5-2.8-1-3.1-1.6
	c-1.8-0.1-6.7-3.7-7.7-4.9c-1.1-1.4-2-1.9-2.8-3.5c-0.6-1.2-1.5-3-1.4-4.9C10.2,25.8,10.3,23,10.3,23z M30.2,18.7
	c0.7,0,1.3,0.5,2.3,0c0.6-0.4,1.2-0.7,1.7-1.2c0.8-0.7,2.3-2.4,2.5-3.7h0.2l-0.1,1.4c0,0.5-1.6,2.5-1.7,4.1v0.4
	c-0.1,2.8,0.3,3.5,0.7,5.5c0.3,1.4,1.8,3.6,1.9,4.1c-0.8,0.4-1.9-1.3-2.6-1.8c-0.4-0.3-0.6-0.6-1.2-1.1c-0.3-0.2-1-0.8-1.2-1
	c-0.3-0.3-0.9-1-1.2-1.2c-0.6-0.5-0.7-0.3-1.1-1.1c-0.5-1-0.7-2.5-0.6-4c0-0.3,0-0.2,0.1-0.5C29.8,18.7,30.2,18.7,30.2,18.7z
	 M46.8,17.7c0-0.7,0.8-2.8,1.2-2.7c0.4,0,1.9,1.7,3,1.9l2,0.1c0.5,0,1.9-0.8,2.3-1c-0.1,1-0.4,1-0.5,1.4c0,0.8,0.7,0.3,0.8,1.3
	l-2.9,0.4c-0.4,0.3-0.9,0.3-1,1.1v0.6c-0.1,1.6,0.9,3.4,1.5,4.4c0.2,0.3,0.4,0.7,0.5,1c0.3,0.5,0.4,0.3,0.7,0.7
	c0.7,0.9,0.3,1,0.2,2.2l0.6,0.9l-0.1,0.1c-0.9-0.3-1.8-1.3-2.5-2c-0.4-0.4-0.9-0.5-1.3-1c-0.3-0.3-0.9-1-1.1-1.1
	c-1.1-0.7-3.4-3.8-3.3-5.6L46.8,20l-0.1-1.3C46.8,18.7,46.8,17.7,46.8,17.7z M65.9,18.1c0.6,0,1.8-1.2,2.3-1.6
	c0.7-0.5,1.6-0.9,2.4-1.3c1.1-0.4,1.6-0.5,2.9-0.7c0.7-0.1,2.5-0.3,3.2-0.2h0.6c0,0.8-0.2,0.4-0.2,0.8L77,17
	c-0.1,1.9,0.9,1.7,0.2,4.6c-0.7-0.1-1-0.8-2.1-0.8L73,20.6c-0.1,0-1.8,0.7-1.9,0.7h-0.3c-0.1,0.4-0.9,0.7-1.2,1
	c-0.4,0.3-0.7,0.8-1,1.2c-0.5,0.7-1.2,2.1-1.4,3.1c-0.4,1.9-0.4,2-0.5,3.9s0.2,2.6,0.3,4.1c0.1,1.7,1.6,5.7,1,7.6
	c-0.4,1.4-0.2,2.1-1,3.5c-0.4,0.8-0.3,0.8-1,1.1c-0.3,0.1-1.2,0.6-1.5,0.6c-0.4,0,0.3-1.4,0.4-1.9c0.2-0.8,0.2-1.8,0.4-2.5
	c-0.1-0.3-0.3-0.3-0.3-0.6c0-0.8,0.3-1.8,0-2.3c-0.4-0.8-0.3-1-0.6-1.8c-0.1-0.4-1.3-2.8-1.6-3.1c-0.4-0.6-2.1-1.8-2.1-2.6
	c0-1.9,0.1-2.8,0.2-4.3c0,0,0.7-2.9,0.8-3.1c0.2-0.5,0.2-1.1,0.5-1.5c0.4-0.5,0.4-0.4,0.7-1.2C63.5,21,65.7,18.8,65.9,18.1z
	 M5.6,14.3c0-0.8-0.4-1.7-0.3-2.6c0.1-0.7,0.5-1.7,0.9-2C6.3,10,6.3,9.6,6.3,10c0,0.5-0.3,0.3-0.2,1c0.1,0.6,0.1,0.5,0.1,1.2
	s0.3,1.2,0.4,1.9c0.1,0.6,1.1,2.9,1.7,3c0.6,0,0.8-1.4,1.3-1.6c0,0.8-0.2,1.2-0.1,1.9c0.1,0.4,0.3,1,0.4,1.4c1.3-0.3,0.9-1.6,2-2.4
	c0.4-0.3,2.3-1.8,2.4-1.9l0.3,2.7L14,16.7l-0.1,0.9c-1.6-0.1-3.6,2.7-4.7,3.6c-0.8,0.7-2.5,4.5-2.6,6.3l-1.3-1.7
	c0.2-0.1,0.4-0.1,0.4-0.5V25c0-0.4-0.7-1.4-1.1-1.6c-0.5-0.3-1.2-0.6-1.8-0.8c-0.9-0.4-2-2.2-1.9-3.5v-0.6c0-0.7,0.1-1.3,0.5-1.6
	l0.3,1.3c0.5,1.2,0.4,1.9,1.5,2.7c0.5,0.4,1.8,1.7,2.4,1.7h0.6c0.1-0.3,0.1-0.2,0.1-0.5c0.1-0.6-1-0.8-1.5-1c-0.3-0.2-1-0.8-1.3-1.1
	c-1.1-0.9-1-2.4-1.4-3.4l0.2-3.2l0.5-0.7L3,12.8l-0.2,1.4c-0.1,0.7,0.6,3.7,1.2,3.7c0.3,0,0.3-0.2,0.4-0.5c-0.1-0.3-0.8-2.8-0.8-3.1
	l0.1-0.8c0-0.7,0.3-1.7,0.9-1.7l-0.2,1.1c-0.1,0.6,1.3,3.8,1.9,3.9c0.1,0,0.3-0.2,0.4-0.3C6.7,16.5,5.6,14.3,5.6,14.3z M81.6,13.3
	c0.4-0.2,2.1-0.2,2.7-0.2c0.9,0.1,1.5,0.9,2.2,1c0.1,0,0.2-0.2,0.2-0.4c0-0.3-0.2-0.4-0.2-0.7s0.2-0.9,0.5-0.9c0.7,0,1.9,1.5,2.2,2
	c0.4,0.8,0.8,2.1,0.7,3.5c-0.1,2.1-2,4.6-3.8,4.5c-2.3-0.2-4.7-3.6-6.2-0.1c-0.2,0.4-0.3,0.6-0.4,0.9c-0.3,0.5-0.1,0.5-0.3,1
	c-0.1,0.4-0.6,1.5-0.8,1.8c-0.3,0.6-1.8,2.3-2.3,2.4c-0.1-0.7-0.5-0.8-0.5-1.7c0-0.7,2.5-2.4,3.1-3.5c0.6-1.3,0.3-1.8,0.3-3
	c0.1-1.4-0.6-1.9-0.4-2.8C78.9,14.8,80.2,13.9,81.6,13.3L81.6,13.3z M9.8,10.7c0-1,1.8-3.3,2.4-3.3c0.1,0,0.2,0.1,0.2,0.3
	c0,0.9-0.3,1.3-0.5,2l-1-0.6l-0.1,0.1v1.1l0.2,0.3v1.1c0,0.4-0.3,1.1-0.4,1.7l-1,1.8H9.5L9.8,10.7z M41.9,16.7
	c0.1-2.1,1-4.2,1.7-5.6c0.4-0.8,0.9-1.4,1.4-2C45.2,9,46.9,8,47.1,8h0.7c-0.1,0.2-1.5,2.1-1.8,2.9c-0.5,1.1-0.7,2.4-0.8,3.8v0.5
	c-0.1,2.7,1.1,7.3,2.1,8.7c0.9,1.4,1.5,1.7,2.6,2.8c0.5,0.5,2.5,2.1,2.7,2.6c-0.3,0.2-4.4,0.2-5.1,0.2c-1.2,0-0.9-0.2-1.7-1
	c-0.2-0.2-0.5-0.6-0.7-0.8c-0.3-0.4-0.5-0.4-0.7-0.8c-0.3-0.4-2-3.5-2.1-4c-0.2-0.7-0.5-4.6-0.4-5.8C41.7,17.1,41.9,16.7,41.9,16.7z
	 M27.2,3.3c0.7,0,0.8-0.2,1.5-0.2l0.9,0.1l1.6,0.4c0.3,0.2,0.8,0.3,1.2,0.6s0.5,0.5,0.9,0.8c0.7,0.6,1,1,1.6,1.8
	c0.5,0.6,1,1.2,1.3,2.1c0.2,0.6,0.6,2.3,0.6,2.9v0.8c-0.1,1.5-1.4,2.9-2,3.8c-0.5,0.9-2.3,1.6-3.7,1.2c-2-0.6-2.1-0.7-3.3-2.1
	c-1.1-1.3-0.9-2.2-1.2-4.2l1.1-1.8l0.8-0.1c1.2-0.2,2.4,1.3,2.3,2.9c-0.1,1.5-1.2,1-1.3,1.7c0,0,0.3,0.7,0.5,0.7
	c1.3,0.1,2-1.4,2.6-1.9l0.2-0.8c0.1-1.6-0.5-3.1-1.1-4c-0.7-1-1.6-1.7-2.9-1.8c-1.4-0.1-2.1,0.3-3.2,1.1c-0.5,0.4-1.6,2.4-1.8,3.1
	c-0.3,1.7-0.3,3-0.1,4.7c0,0.5,0.2,1.7,0.3,2.1c0.1,0.2,0.5,1.8,0.5,2c-0.4-0.4-1.3-3.1-1.3-4l-0.5-1.7l-0.1-1.9L23,8
	c0.4-0.5,0.3-1,0.7-1.8c0.3-0.5,0.5-1,0.9-1.5c0.4-0.4,0.7-0.7,1.2-1C26.2,3.7,26.8,3.6,27.2,3.3z M45.6,7.5c1.6-1.4,4-2.2,6.8-2
	L53,5.6c0.4,0,0.5,0.3,1.2,0.3c1.4,1.3,2.7,3,2,5.9c-0.5,2.2-2,4.2-4,4h-0.6c-1.9-0.1-2.3-1.7-3.4-2.7c0.1-1.5,0-2.1,1-2.9
	c0.5-0.5,2-0.3,1.9,1.2s-1.5,0.6-1.6,1.4c0,0.2,0.4,0.5,0.7,0.5h0.2c1.1,0.1,2.2-1.1,2.3-2.3l0.1-1.3c0-0.3-0.9-1.8-1.2-2
	C51.1,7.3,50,7,49.3,6.9c-0.4,0-1.7,0-2,0.1C46.7,7.2,46,7.5,45.6,7.5z M75.2,7.7c2.5,0.1,2-1.7,3.1-1.6h0.1c0.5,0,1.7,2.3,2.3,2.4
	v0.3H80c-1.6-0.1-2.6,0-4.1,0c-1.1,0-2.9,0.7-3.9,0.6c-0.5,0.4-1.4,0.5-2.1,0.7c-0.7,0.3-1.3,0.5-2,0.8c-0.5,0.2-0.5,0.2-0.9,0.5
	c-0.3,0.2-0.7,0.3-1,0.4c-0.6,0.3-1.2,0.8-1.7,1.1c-1.5,0.8-2,1.6-3.1,2.8c-0.5,0.6-2.4,3.1-2.7,3.3c0.1-1.8-0.4-2-1-3.1
	c-0.6-1-0.8-2.1,0.1-2.9c0.3,0.2,2.9,0.2,3.5,0c1.1-0.3,1.8-0.8,2.4-1.8c0.3-0.5,0.2-1.6,0.3-2.3c0.1-1.2-0.2-1.6,0.6-1.3
	C65.1,8,66.1,9,67.2,9h0.5c0.7,0,1.8-0.8,2.2-1.3c0.5-0.6,0.8-2,1.6-2c2,0.1,2.3,1.8,3.4,1.9C74.8,7.6,75.2,7.7,75.2,7.7z
	 M81.9,10.6c0-0.5,0.5-2.5,0.7-2.8c0.2-0.6,1-1.4,1.7-1.4h0.3c0.5,0,1.3,0.4,1.7,0.6c0.8,0.4,0.7,0.4,1,1.2
	c-0.5-0.1-0.8-0.5-1.6-0.6c-1.5-0.1-2.3,0.5-2.4,2.3c0,1,0.2,1.6,0.2,2.3l-0.9,0.1h-0.3c-0.3,0-0.5-0.5-0.4-0.9
	C81.8,11.4,81.9,10.6,81.9,10.6z M75,4.7h-0.5c-0.2,0-2.2-1.7-3.1-1.7h-0.5c-2.4-0.1-1.9,3.7-4,3.5c-1.5-0.1-4.1-3.4-5.7-1.1v3.9
	c0,1.4-2,1.6-3.2,1.6h-0.1c-0.5,0-0.6-2.3-0.8-3c-0.3-1.1-0.4-0.4-0.8-1.1c-0.3-0.5-0.5-0.7-0.9-1.1c-0.9-0.9-3.9-2-5.7-1.9
	l-3.8,0.4c-1.3,0.9-3.4,1.3-4.9,2.4c-0.6,0.4-1.6,1-2,1.7c-0.2,0.3-1.6,2-1.8,2.1c-0.3-0.9-0.3-2-0.9-2.9c-0.5-0.8-0.9-1.4-1.5-2.1
	S33.7,4.1,33,3.5c-0.5-0.5-1.8-0.9-2.3-1.3L28.9,2l-1-0.1c-1-0.1-3.2,1-3.7,1.7c-0.4,0.5-0.9,0.7-1.3,1.5c-0.1,0.2-0.7,1.9-0.8,2.3
	c-0.1,0.1-0.4,0.3-0.4,0.3c-0.3,0-0.2-0.3-0.7-0.3l-1.8-0.1c-1.2-0.1-3.7,2.3-3.8,2.3c-0.6,0-1-1.6-1.8-2.1C13,7.2,12,6.6,11,6.5
	c-0.7,0-1.5,0.5-2,0.9C8.4,7.8,7.9,8.7,7.5,9c0.1-1.6-0.9-0.9-1.6-0.5C5.8,8.6,5.2,9,5.1,9.1C4.9,9.3,4.5,10,4.3,10
	C4,10,4.1,9.8,4,9.6c-0.9,0-1.1,1.3-1.5,1.9c-0.5,0.7-0.8,1.4-0.9,2.7l-0.2,0.3l-0.1,0.6C1,15.6,0,17.1,0,17.9C0,19,0,22.4,0.3,23
	v0.5c0.5,1,0.4,0.8,1.1,1.5c0.7,0.8,0.9,0.6,1.5,1.1c2.3,0.2,2.5,1.3,3.3,2.9v0.6L6.4,30c0,0.2,0.5,3.6,0.6,3.8
	c0.2,0.6,0.4,1,0.5,1.7c0.1,0.6,0.7,1.5,0.7,1.6c0,0-1.6,2.7-1.8,3.1C6,41.1,5.2,43,4.9,43.7l-0.7,2.5L4,46.5
	c-0.1,1.3-0.5,2.6-0.6,4.1c-0.1,1.6-0.1,2.7-0.1,4.3c0,2.2-0.1,7.1,0.8,7.9C4,64.5,5.5,67.7,6,68.9c3.1,12.4,26.4,16.9,36,8.7
	c0.7-0.6,1.1-0.8,1.8-1.6c0.6-0.7,1.1-1,1.6-1.8c0.3-0.5,1.3-1.6,1.5-2.1c0.2-0.6,0.9-2.1,1.3-2.4c-0.1,1.1-0.2,1.6-0.2,2.7
	c0,0.6,0.9,1.2,1.4,1.3l2.3,0.2c0.9,0.1,1.1-0.2,1.7-0.5c0-1.3-1.6-3.7-1-5c1.1,1,0.8,2.7,3.4,3c1.1,0.2,1.9-0.1,2.2,1
	c0.3,1.3,0.3,1.4,0.9,2.4c1.1,2.1,2.2,1.4,4.3,2.1c0.9,0.3,3.5,1.8,3.5,2.9H66V80h0.5c0.2,0,0.2,0.1,0.4,0.2L69,81
	c0.9-0.2,3.3-0.2,4.3-0.1c1.4,0.1,2-0.7,4-0.6l0.3-0.1l10.8-0.5c0.5-0.4,1.5-1.6,1.5-2.5c0.1-0.8-0.1-0.9-0.1-1.6
	c-0.3-0.5-0.2-0.9-0.7-1.4c-0.2-0.2-0.9-1-1.1-1l-1.5,0.1c-0.3,0.2-0.4,0.3-0.9,0.3c-0.6,0-0.6-4.1-0.3-4.9c0.1-0.4,1.4-4.4,1.4-4.7
	l0.1-2.3l0.1,0.1l0.7-1.4l0.1-2c0.4-0.6,0.8-1.1,0.9-2.2c0.1-1.3-0.3-2.2-0.7-3l1.5-1.6l-0.1-0.1l0.1-1c-0.1-0.2-0.2-0.2-0.2-0.5
	v-0.3c0-0.2,0.7-1,0.7-1.6v-0.8c0-0.4-0.3-0.3-0.3-0.7s0.3-0.2,0.3-0.7v-0.1c0-0.3-0.3-1.1-0.5-1.4c-0.3-0.4-1-0.7-1-0.8
	c-0.1-0.3,0.1-1.5,0-1.9c-0.1-0.6-0.2-1.2-0.3-1.7l0.2-0.2l1-0.4h0.5c0.5-0.3,1.2-0.6,1.6-0.9c0.4-0.3,1-1.2,1-1.8
	c0.2-3.6-2.1-4.8-2.1-5s0.8-1.1,1-1.3c0.3-0.4,0.4-1.3,0.8-1.5l0.1-2.2c0-0.4-0.2-0.1-0.2-0.9c-0.6-0.6-0.8-1.6-1.5-2.2
	c-0.4-0.3-1.7-1.5-1.6-2c0-0.2,1.4-1.9,1.5-4v-1.1c0.1-2.3-1.6-4.8-3.2-5.4c0.1-0.8,0.4-1.3,0.4-2.4V8.1c0.1-1.8-1.8-2.7-3.3-2.8
	h-0.2c-1.1-0.1-1.6,0.2-2,0.9c-0.8-0.7-3-3.9-3.6-4c-1-0.1-1.4,0.6-2,0.9C75.9,3.8,75.9,4.8,75,4.7L75,4.7z M83.1,18.2v0.3
	c0,0.3,0.5,1.2,0.8,1.2h0.6c0.8,0.1,1.9-1.9,1.3-2.5L85.6,18c-0.2-0.2-0.4-0.6-0.6-0.6h-0.4c0-0.3,0-0.3-0.3-0.4h-0.1
	C83.8,17,83.2,17.5,83.1,18.2z M79.9,29.7C80,30.2,80,31,80.5,31l0.7,0.1c0.8,0,0.9-2.1-0.3-2.2C80.4,28.9,80.1,29.4,79.9,29.7z"/>
</svg>
