<svg version="1.1" id="Слой_1" xmlns="http://www.w3.org/2000/svg" x="0" y="0" viewBox="0 0 72.9 71" xml:space="preserve"><style>.st0{fill:#29313c}.st1{fill:#fff}.st2{fill:#171924}</style><path class="st0" d="M68.5 20.2v-1.1h1.9v-8.5H63v8.5h1.1v1.1h-6.9v-1.1h4.7v-8.5H51.8v8.5h1.7v1.1h-1.7v8.5h-1.1v-.8H36.4v-1.1h14.3V10.6H30.4v16.2h2.7v1.1h-6.3v-3h2.5V10.6H9.5v16.2h14.3v1.1H23v.8h-1.1v-.8H9.5v10.4h12.3v-5.8H23v6.9H9.5v19.8h20.8V36.4H27v-1.1h23.6v-2.7h1.1v2.7h1.1v1.1H31.5v22.8h26.9v2.5H48.2v6.8H66v-6.8h-3.8v-2.5h8.2V36.4H58.6v-1.1h11.8V24.9h2.5v36.8h-6.3v7.4H47.7v-7.4H7V8.1h65.9v12.7h-2.5v-.5h-1.9z"/><path class="st1" d="M53.5 59.2h4.8v2.4h-4.8v-2.4z"/><path class="st2" d="M53.4 61.7v-2.5h4.9v2.5h-4.9zm.1-.1h4.7v-2.3h-4.7v2.3z"/><path class="st2" d="M53.4 59.9h4.9v.1h-4.9v-.1z"/><path class="st1" d="M33.7 59.2h8.1v2.4h-8.1v-2.4z"/><path class="st2" d="M33.7 61.7v-2.5h8.2v2.5h-8.2zm.1-.1h8v-2.3h-8v2.3z"/><path class="st2" d="M33.7 59.9h8.2v.1h-8.2v-.1z"/><path class="st1" d="M14.2 59.2h8.1v2.4h-8.1v-2.4z"/><path class="st2" d="M14.2 61.7v-2.5h8.2v2.5h-8.2zm.1-.1h8v-2.3h-8v2.3z"/><path class="st2" d="M14.2 59.9h8.2v.1h-8.2v-.1z"/><path class="st1" d="M14.2 8.1h8.1v2.4h-8.1V8.1z"/><path class="st2" d="M14.2 10.6V8.1h8.2v2.5h-8.2zm.1-.1h8V8.2h-8v2.3z"/><path class="st2" d="M14.2 9.7h8.2v.1h-8.2v-.1z"/><path class="st1" d="M33.7 8.1h8.1v2.4h-8.1V8.1z"/><path class="st2" d="M33.7 10.6V8.1h8.2v2.5h-8.2zm.1-.1h8V8.2h-8v2.3z"/><path class="st2" d="M33.7 9.7h8.2v.1h-8.2v-.1z"/><path class="st1" d="M54.3 8.1h5.9v2.4h-5.9V8.1z"/><path class="st2" d="M54.2 10.6V8.1h6v2.5h-6zm.2-.1h5.8V8.2h-5.8v2.3z"/><path class="st2" d="M54.2 9.7h6v.1h-6v-.1z"/><path d="M15.3 66.4c1 1.5.4 3.3-1.2 4.2-1.6.9-3.7.4-4.7-1.1s-.4-3.3 1.2-4.2c1.6-.8 3.7-.3 4.7 1.1z" opacity=".2" fill="#0b1739" fill-opacity=".2"/><path d="M12.7 68.6l-2.8.4 1.8-1.9 2.7-.5-1.7 2zm-.7-1.1l-1.3 1.2 1.8-.4-.5-.8z" fill="red"/><path d="M12.7 68.6l-2.8.4 1.8-1.9 2.7-.5-1.7 2zm-.7-1.1l-1.3 1.2 1.8-.4-.5-.8zM0 0" fill="#0b1739"/><path class="st0" d="M70.5 33.1H58.7v2.3h11.8v-2.3zm-11.7 2.1v-2h11.5v2H58.8z"/><path class="st0" d="M59.9 34.3v-.1h9.5v.1h-9.5z"/><path class="st0" d="M60.3 33.6h.1v1.3h-.1v-1.3zm.5 0h.1v1.3h-.1v-1.3zm.7 0h.1v1.3h-.1v-1.3zm1.6 0h.1v1.3h-.1v-1.3zm.9 0h.1v1.3H64v-1.3zm2.9 0h.1v1.3h-.1v-1.3zm-2.4 0h.1v1.3h-.1v-1.3zm2.9 0h.1v1.3h-.1v-1.3zm-2.2 0h.1v1.3h-.1v-1.3zm2.9 0h.1v1.3h-.1v-1.3zm.7 0h.1v1.3h-.1v-1.3zm-6.6.1h.1l.3 1.3h-.1l-.3-1.3zm4.2 0h-.1l-.4 1.3h.1l.4-1.3zm-38.1 2.5V48h2.3V36.2h-2.3zm2.1.2v11.5h-2V36.4h2z"/><path class="st0" d="M29.5 46.8h-.1v-9.5h.1v9.5z"/><path class="st0" d="M28.8 46.4v-.1h1.3v.1h-1.3zm0-.5v-.1h1.3v.1h-1.3zm0-.7v-.1h1.3v.1h-1.3zm0-1.5v-.1h1.3v.1h-1.3zm0-1v-.1h1.3v.1h-1.3zm0-2.9v-.1h1.3v.1h-1.3zm0 2.4v-.1h1.3v.1h-1.3zm0-2.9v-.1h1.3v.1h-1.3zm0 2.2v-.1h1.3v.1h-1.3zm0-2.9v-.1h1.3v.1h-1.3zm0-.6v-.1h1.3v.1h-1.3zm.1 6.5v-.1l1.3-.3v.1l-1.3.3zm1.3-3.7v-.1l-1.3-.3v.1l1.3.3zm.1-21.1v7.2h2.3v-7.2h-2.3zm2.1 7h-2v-6.9h2v6.9z"/><path class="st0" d="M31.5 26.3h-.1v-5.8h.1v5.8z"/><path class="st0" d="M30.9 25.9v-.1h1.3v.1h-1.3zm0-.5v-.1h1.3v.1h-1.3zm0-.7v-.1h1.3v.1h-1.3zm0-1.6V23h1.3v.1h-1.3zm0-.9v-.1h1.3v.1h-1.3zm0-.5v-.1h1.3v.1h-1.3zm0-.7v-.1h1.3v.1h-1.3zm0 3v-.1l1.3-.4v.1l-1.3.4zM9.5 26.8h7.2v-2.3H9.5v2.3zm7-2.1v2H9.7v-2h6.8z"/><path class="st0" d="M16.1 25.6v.1h-5.8v-.1h5.8z"/><path class="st0" d="M15.7 26.3h-.1V25h.1v1.3zm-.5 0h-.1V25h.1v1.3zm-.6 0h-.1V25h.1v1.3zm-1.6 0h-.1V25h.1v1.3zm-1 0h-.1V25h.1v1.3zm-.5 0h-.1V25h.1v1.3zm-.7 0h-.1V25h.1v1.3zm3-.1h-.1l-.4-1.3h.1l.4 1.3zm49.1-13.4h7.7v-2.3h-7.7v2.3zm7.6-2.1v2h-7.4v-2h7.4z"/><path class="st0" d="M69.6 11.6v.1h-5.8v-.1h5.8z"/><path class="st0" d="M69.2 12.2H69v-1.3h.1v1.3zm-.6 0h-.1v-1.3h.1v1.3zm-.6 0h-.1v-1.3h.1v1.3zm-1.6 0h-.1v-1.3h.1v1.3zm-1 0h-.1v-1.3h.1v1.3zm-.5 0h-.1v-1.3h.1v1.3zm-.6 0h-.1v-1.3h.1v1.3zm3 0h-.1l-.3-1.3h.1l.3 1.3zm3.5 6.9v-6.4h-2.3v6.4h2.3zm-2.2-.1v-6.2h2V19h-2z"/><path class="st0" d="M69.6 13.5h.1v4.9h-.1v-4.9z"/><path class="st0" d="M70.2 13.9v.1h-1.3v-.1h1.3zm0 .4v.1h-1.3v-.1h1.3zm0 .6v.1h-1.3v-.1h1.3zm0 1.3v.1h-1.3v-.1h1.3zm0 .8v.1h-1.3V17h1.3zm0 .4v.1h-1.3v-.1h1.3zm0 .6v.1h-1.3V18h1.3zm-.1-2.5v.1l-1.3.3v-.1l1.3-.3zm-7.3 4.7h-3.6v1.9h3.6v-1.9zm-3.5 1.7v-1.6h3.3v1.6h-3.3zm-7.6 15h-9.8v1.7h9.8v-1.7zm-.2 1.6H42V37h9.5v1.5z"/><path class="st0" d="M50.7 37.4h-8.1v.7h8.1v-.7zm-.1.6h-7.8v-.4h7.8v.4zm-12.4-.6l-3.3 1.5 1.2 2.8 3.3-1.5-1.2-2.8zm1 2.8l-3 1.3-1.1-2.5 3-1.3c0-.1 1.1 2.5 1.1 2.5z"/><path class="st0" d="M38.2 37.4l-3.3 1.5 1.2 2.8 3.3-1.5-1.2-2.8zm1 2.8l-3 1.3-1.1-2.5 3-1.3c0-.1 1.1 2.5 1.1 2.5z"/><path class="st0" d="M38.8 37.2l-4.5 2 1.2 2.8 4.5-2-1.2-2.8zm1 2.7l-4.2 1.9-1.1-2.5 4.2-1.9 1.1 2.5z"/><path class="st0" d="M38.2 37.4l-3.3 1.5.4 1 3.3-1.5-.4-1zm.2 1l-3 1.3-.3-.7 3-1.3.3.7zm4.1 19.7h3.6v-3h-3.6v3zm3.5-2.9V58h-3.3v-2.8H46z"/><path class="st0" d="M42.5 58.1h3.6v-3h-3.6v3zm3.5-2.9V58h-3.3v-2.8H46z"/><path class="st0" d="M41.9 58.1h4.9v-3h-4.9v3zm4.7-2.9V58H42v-2.8h4.6z"/><path class="st0" d="M42.5 58.1h3.6V57h-3.6v1.1zm3.5-.9v.8h-3.3v-.8H46zm-12.8-5.7v3.6h3v-3.6h-3zm3 3.4h-2.8v-3.3h2.8v3.3z"/><path class="st0" d="M33.2 48.1v3.6h3v-3.6h-3zm3 3.4h-2.8v-3.3h2.8v3.3z"/><path class="st0" d="M33.2 44.6v3.6h3v-3.6h-3zm3 3.5h-2.8v-3.3h2.8v3.3z"/><path class="st0" d="M33.2 44.6v10.5h3V44.6h-3zm3 10.4h-2.8V44.7h2.8V55z"/><path class="st0" d="M33.2 43.9v11.8h3V43.9h-3zm3 11.7h-2.8V44.1h2.8v11.5z"/><path class="st0" d="M33.2 51.5v3.6h1.1v-3.6h-1.1zm1 3.4h-.8v-3.3h.8v3.3z"/><path class="st0" d="M33.2 48.1v3.6h1.1v-3.6h-1.1zm1 3.4h-.8v-3.3h.8v3.3zM64 53v-2.1h-1.7V53H64zm-1.6-2h1.5v1.9h-1.5V51zm-9.3 2.5l.9 1.9 1.7-.8-.9-1.9-1.7.8zm1.6-.6l.8 1.7-1.4.7-.8-1.7 1.4-.7zM33.5 15.8v2.1h1.9v-2.1h-1.9zm1.7.2v1.9h-1.6V16h1.6zm-1.7-3.9v2.1h1.9v-2.1h-1.9zm1.7.1v1.9h-1.6v-1.9h1.6zm21.8 45l2.1.3.2-1.6-2.1-.3-.2 1.6zm2.2-1.2l-.2 1.3-1.8-.3.2-1.3c-.1.1 1.8.3 1.8.3zm-46.5 1.1H9.5v2.3h3.2v-2.3zm-3.1 2.1v-2h2.9v2H9.6zm38.9-43.5v6h2.3v-6h-2.3zm2.1 5.8h-2v-5.7h2v5.7zm-37.9-11H9.5v2.3h3.2v-2.3zm-3.1 2.1v-2h2.9v2H9.6zm21 44.5h-6.9v2.3h6.9v-2.3zm-6.8 2.1v-2h6.6v2h-6.6zm5.9-48.7h-6v2.3h6v-2.3zm-5.9 2.1v-2h5.7v2h-5.7zM22.2 49h-8v10.3h8V49zm-7.8 10.2V49.1h7.7v10.1h-7.7z"/><path class="st0" d="M17.9 56.9h-3v2h3v-2zm-.2 1.9H15v-1.7h2.8v1.7zm3.9-1.9h-3v2h3v-2zm-2.9 1.9v-1.7h2.8v1.7h-2.8zm3.5-9.8h-8v7.3h8V49zm-7.8 7.1v-7h7.7v7h-7.7z"/><path class="st0" d="M22.2 49h-8v6h8v-6zm-7.8 5.8v-5.7h7.7v5.7h-7.7zm7.8-33.9h-8V10.5h8v10.4zm-7.8-10.2v10.1h7.7V10.7h-7.7z"/><path class="st0" d="M17.9 12.9h-3v-2h3v2zM15 11v1.7h2.8V11c-.1.1-2.8.1-2.8 0zm6.6 1.9h-3v-2h3v2zM18.7 11v1.7h2.8V11c-.1.1-2.8.1-2.8 0zm3.5 9.9h-8v-7.3h8v7.3zm-7.8-7.2v7h7.7v-7h-7.7z"/><path class="st0" d="M22.2 20.9h-8v-6h8v6zM14.4 15v5.7h7.7V15h-7.7zm26 11.8v-4.2h10.3v4.2H40.4zm10.2-4.1H40.5v4h10.1v-4z"/><path class="st0" d="M48.3 26.2v-3h2v3h-2zm1.9-2.9h-1.7V26h1.7v-2.7zm-9.8 3.5v-4.2h7.3v4.2h-7.3zm7.2-4.1h-7v4h7v-4z"/><path class="st0" d="M40.4 26.8v-4.2h6v4.2h-6zm5.8-4.1h-5.7v4h5.7v-4zm-5.8-7.9v-4.2h10.3v4.2H40.4zm10.2-4.1H40.5v4h10.1v-4z"/><path class="st0" d="M48.3 14.1V11h2v3.1h-2zm1.9-2.9h-1.7V14h1.7v-2.8zm-9.8 3.6v-4.2h7.3v4.2h-7.3zm7.2-4.1h-7v4h7v-4z"/><path class="st0" d="M40.4 14.8v-4.2h6v4.2h-6zm5.8-4.1h-5.7v4h5.7v-4zm-12.6-.2h-3.3v8.6h3.3v-8.6zM30.5 19v-8.4h3V19h-3zM14.9 42.5h-2.1v1.9h2.1v-1.9zm-.1 1.7h-1.9v-1.6h1.9v1.6z"/><path class="st0" d="M18.1 42.6v-3.3H9.5v3.3h8.6zm-8.5-.1v-3H18v3H9.6zM71 36.4H58.7v3.2H71v-3.2zm-12.2 3v-2.9h12.1v2.9H58.8z"/></svg>