<?xml version="1.0" encoding="utf-8"?><svg xmlns="http://www.w3.org/2000/svg" xmlns:xlink="http://www.w3.org/1999/xlink"><symbol viewBox="0 0 6.857 4" id="arrow-sort" xmlns="http://www.w3.org/2000/svg"><g class="ast0"><path d="M4.035.254A.846.846 0 003.428 0a.842.842 0 00-.605.254L.168 3.012a.583.583 0 000 .817.566.566 0 00.807 0l2.453-2.555L5.882 3.83a.566.566 0 00.808 0 .583.583 0 000-.817L4.035.253z"/><path d="M4.035.254A.846.846 0 003.428 0a.842.842 0 00-.605.254L.168 3.012a.583.583 0 000 .817.566.566 0 00.807 0l2.453-2.555L5.882 3.83a.566.566 0 00.808 0 .583.583 0 000-.817L4.035.253z"/></g></symbol></svg>