<?xml version="1.0" encoding="utf-8"?>
<!-- Generator: Adobe Illustrator 22.1.0, SVG Export Plug-In . SVG Version: 6.00 Build 0)  -->
<svg version="1.1" id="Capa_1" xmlns="http://www.w3.org/2000/svg" xmlns:xlink="http://www.w3.org/1999/xlink" x="0px" y="0px"
	 viewBox="0 0 126.7 126.7" style="enable-background:new 0 0 126.7 126.7;" xml:space="preserve">
<g>
	<g>
		<path d="M63.4,40.8c-12.5,0-22.6,10.1-22.6,22.6c0,12.5,10.1,22.6,22.6,22.6c12.5,0,22.6-10.1,22.6-22.6
			C85.9,50.9,75.8,40.8,63.4,40.8z M63.4,70.9c-4.2,0-7.5-3.4-7.5-7.5s3.4-7.5,7.5-7.5s7.5,3.4,7.5,7.5
			C70.9,67.5,67.5,70.9,63.4,70.9z"/>
	</g>
</g>
<g>
	<g>
		<polygon points="63.4,0 43,20.4 53.6,31 63.4,21.3 73.1,31 83.7,20.4 		"/>
	</g>
</g>
<g>
	<g>
		<polygon points="31,53.6 20.4,43 0,63.4 20.4,83.7 31,73.1 21.3,63.4 		"/>
	</g>
</g>
<g>
	<g>
		<polygon points="73.1,95.7 63.4,105.4 53.6,95.7 43,106.3 63.4,126.7 83.7,106.3 		"/>
	</g>
</g>
<g>
	<g>
		<polygon points="106.3,43 95.7,53.6 105.4,63.4 95.7,73.1 106.3,83.7 126.7,63.4 		"/>
	</g>
</g>
</svg>
