<svg xmlns="http://www.w3.org/2000/svg" viewBox="0 0 512 512"><path d="M511.576 402.975c-3.495-36.288-45.168-65.404-49.7-68.45-4.483-3.209-44.825-31.284-80.563-31.284-15.102 0-27.727 4.708-37.921 14.381l-.974 1.05c-11.765 13.773-35.557 34.151-49.256 34.151-.917 0-1.7-.105-2.411-.337-7.754-5.701-46.081-34.235-71.453-59.617-20.388-20.388-53.266-63.131-59.879-71.792-3.447-11.116 16.969-37.357 34.11-52.178l.96-.945c38.331-40.489-14.859-114.764-16.927-117.6C176.187 48.301 143.409 0 103.931 0 90.352 0 78.091 5.29 68.14 15.126c-4.608 3.782-112.091 94.081-47.169 226.941 3.242 6.666 7.291 13.379 12.734 21.143 15.933 22.756 57.205 79.89 96.286 118.966 37.104 37.109 95.193 79.356 118.446 95.79 7.979 5.646 14.902 9.826 21.797 13.188C298.686 504.991 327.392 512 355.553 512c82.941 0 133.968-59.435 140.959-68.097 11.306-11.698 16.515-25.84 15.064-40.928zm-29.374 27.597l-.678.561c-4.975 6.255-50.779 60.901-125.971 60.901h-.019c-25.162 0-50.984-6.145-76.743-18.674-5.916-2.874-11.97-6.45-19.061-11.464-22.842-16.148-79.871-57.549-115.911-93.598-37.987-37.988-78.458-94-94.095-116.335-4.846-6.904-8.394-12.763-11.178-18.483C-18.683 116.357 70.217 38.718 81.199 29.653c6.914-6.799 14.348-10.099 22.732-10.099 24.189 0 49.619 30.09 57.592 41.989 12.896 17.743 41.406 69.045 18.827 92.908-2.13 1.843-52.049 45.436-38.441 75.507l1.127 1.891c4.035 5.3 40.065 52.484 62.434 74.848 27.769 27.77 69.992 58.843 74.719 62.3l1.676.983c3.452 1.595 7.257 2.397 11.307 2.397 28.758 0 62.687-39.334 64.052-40.938 6.054-5.739 14.157-8.642 24.089-8.642 30.157 0 67.615 26.509 69.41 27.789.387.258 38.704 26.423 41.382 54.26.921 9.578-2.316 17.991-9.903 25.726z"/></svg>