<svg version="1.1" id="regular" xmlns="http://www.w3.org/2000/svg" x="0" y="0" viewBox="0 0 512 512" xml:space="preserve"><style>.st0{fill:#fff}</style><path class="st0" d="M101.3 512h309.3c55.9 0 101.3-45.5 101.3-101.3V101.3C512 45.5 466.5 0 410.7 0H101.3C45.5 0 0 45.5 0 101.3v309.3C0 466.5 45.5 512 101.3 512zM32 101.3C32 63.1 63.1 32 101.3 32h309.3c38.2 0 69.3 31.1 69.3 69.3v309.3c0 38.2-31.1 69.3-69.3 69.3H101.3c-38.2.1-69.3-31-69.3-69.2V101.3z"/><path class="st0" d="M256 386.8c72.1 0 130.8-58.7 130.8-130.8S328.1 125.2 256 125.2 125.2 183.9 125.2 256 183.9 386.8 256 386.8zm0-229.6c54.5 0 98.8 44.3 98.8 98.8s-44.3 98.8-98.8 98.8-98.8-44.3-98.8-98.8 44.3-98.8 98.8-98.8zm135.6-.1c21 0 36.9-15.8 36.9-36.7 0-21.8-16.7-36.7-36.9-36.7-21 0-36.9 15.8-36.9 36.7.1 21.7 16.7 36.7 36.9 36.7zm3.8-40.3c6.7 6-8.6 13.2-8.6 3.5 0-5.7 7.8-4.2 8.6-3.5z"/></svg>