<svg width="30" height="30" viewBox="0 0 30 30"  xmlns="http://www.w3.org/2000/svg">
<g clip-path="url(#clip0)">
<path d="M5.25948 9.89158L5.27342 9.87963V15C5.27342 15.4853 5.66694 15.8789 6.15233 15.8789H14.3555C14.8408 15.8789 15.2344 15.4853 15.2344 15V9.87963L15.2483 9.89158C15.4141 10.0337 15.6174 10.1032 15.8199 10.1032C16.0676 10.1032 16.3138 9.99905 16.4876 9.79625C16.8036 9.4277 16.7608 8.87287 16.3923 8.557L10.8259 3.78577C10.4968 3.5037 10.0111 3.5037 9.68196 3.78577L4.11555 8.557C3.747 8.87293 3.70428 9.4277 4.02022 9.79625C4.33604 10.1649 4.89092 10.2075 5.25948 9.89158ZM10.2539 5.61067L13.4765 8.37295V14.1211H11.1328V12.6562C11.1328 12.1708 10.7393 11.7773 10.2539 11.7773C9.7685 11.7773 9.37498 12.1708 9.37498 12.6562V14.1211H7.03123V8.37295L10.2539 5.61067Z"/>
<path d="M9.66797 10.0195H10.8398C11.3252 10.0195 11.7188 9.62602 11.7188 9.14062C11.7188 8.65523 11.3252 8.26172 10.8398 8.26172H9.66797C9.18258 8.26172 8.78906 8.65523 8.78906 9.14062C8.78906 9.62602 9.18258 10.0195 9.66797 10.0195Z"/>
<path d="M4.39453 19.3945H12.5977C13.083 19.3945 13.4766 19.001 13.4766 18.5156C13.4766 18.0302 13.083 17.6367 12.5977 17.6367H4.39453C3.90914 17.6367 3.51562 18.0302 3.51562 18.5156C3.51562 19.001 3.90914 19.3945 4.39453 19.3945Z"/>
<path d="M4.39453 22.9102H12.5977C13.083 22.9102 13.4766 22.5166 13.4766 22.0312C13.4766 21.5459 13.083 21.1523 12.5977 21.1523H4.39453C3.90914 21.1523 3.51562 21.5459 3.51562 22.0312C3.51562 22.5166 3.90914 22.9102 4.39453 22.9102Z"/>
<path d="M28.6075 14.3602L29.2289 13.7388C30.257 12.7107 30.257 11.0379 29.2289 10.0099C28.2009 8.98184 26.5281 8.98184 25.5001 10.0099L24.2571 11.2529L20.5078 15.0021V5.91797H24.3164C24.8018 5.91797 25.1953 5.52445 25.1953 5.03906V3.28125C25.1953 1.50428 23.7496 0.0585938 21.9727 0.0585938H3.22266C1.44568 0.0585938 0 1.50428 0 3.28125V26.7188C0 28.4957 1.44568 29.9414 3.22266 29.9414H21.9727C23.7496 29.9414 25.1953 28.4957 25.1953 26.7188V24.9609C25.1953 24.4755 24.8018 24.082 24.3164 24.082H20.5078V22.4595C20.5146 22.4527 20.5215 22.4462 20.5282 22.4395L27.3645 15.6032L27.5716 15.8104C27.9144 16.1531 27.9144 16.7106 27.5717 17.0534L23.0142 21.6109C22.6709 21.9541 22.6709 22.5106 23.0142 22.8538C23.1858 23.0255 23.4107 23.1113 23.6356 23.1113C23.8605 23.1113 24.0855 23.0255 24.2571 22.8538L28.8146 18.2963C29.8426 17.2683 29.8426 15.5955 28.8146 14.5675L28.6075 14.3602ZM21.9727 1.81641C22.7804 1.81641 23.4375 2.47354 23.4375 3.28125V4.16016H20.5078V3.28125C20.5078 2.47354 21.1649 1.81641 21.9727 1.81641ZM23.4375 25.8398V26.7188C23.4375 27.5265 22.7804 28.1836 21.9727 28.1836C21.1649 28.1836 20.5078 27.5265 20.5078 26.7188V25.8398H23.4375ZM19.1026 28.1836H3.22266C2.41494 28.1836 1.75781 27.5265 1.75781 26.7188V3.28125C1.75781 2.47354 2.41494 1.81641 3.22266 1.81641H19.1026C18.8773 2.25615 18.75 2.75414 18.75 3.28125V16.7599L16.7994 18.7106C15.401 20.109 14.4544 21.9356 14.1128 23.8819L13.3267 24.668H4.39453C3.90914 24.668 3.51562 25.0615 3.51562 25.5469C3.51562 26.0323 3.90914 26.4258 4.39453 26.4258H13.6907C13.9335 26.4258 14.1533 26.3273 14.3123 26.1682L15.3539 25.1266C16.5558 24.9161 17.712 24.4747 18.75 23.8387V26.7188C18.75 27.2459 18.8773 27.7438 19.1026 28.1836ZM19.2853 21.1965C18.3966 22.0851 17.2968 22.751 16.1037 23.135C16.4878 21.9421 17.1537 20.8421 18.0422 19.9535L24.8786 13.1173L26.1216 14.3602L19.2853 21.1965ZM27.986 12.4958L27.3646 13.1173L26.1216 11.8743L26.7431 11.2528C27.0857 10.9102 27.6434 10.9102 27.986 11.2528C28.3287 11.5955 28.3287 12.1531 27.986 12.4958Z"/>
</g>
<defs>
<clipPath id="clip0">
<rect width="30" height="30"/>
</clipPath>
</defs>
</svg>
