<svg width="30" height="30" viewBox="0 0 30 30"  xmlns="http://www.w3.org/2000/svg">
<g clip-path="url(#clip0)">
<path d="M6.52009 7.08706C8.47403 7.08706 10.0636 5.49747 10.0636 3.54353C10.0636 1.58959 8.47403 0 6.52009 0C4.56615 0 2.97656 1.58959 2.97656 3.54353C2.97656 5.49747 4.56615 7.08706 6.52009 7.08706ZM6.52009 1.76471C7.50097 1.76471 8.29892 2.56271 8.29892 3.54353C8.29892 4.52435 7.50097 5.32235 6.52009 5.32235C5.53921 5.32235 4.74127 4.52435 4.74127 3.54353C4.74127 2.56271 5.53921 1.76471 6.52009 1.76471Z"/>
<path d="M7.48683 7.92822H5.5553C3.64877 7.92822 2.09766 9.47934 2.09766 11.3859V20.2941C2.09766 20.7814 2.49272 21.1765 2.98001 21.1765H3.4616V29.1176C3.4616 29.6049 3.85666 30 4.34395 30C4.83124 30 5.2263 29.6049 5.2263 29.1176V21.1765H7.8163V29.1176C7.8163 29.6049 8.21136 30 8.69866 30C9.18595 30 9.58101 29.6049 9.58101 29.1176V21.1765H10.0622C10.5495 21.1765 10.9445 20.7814 10.9445 20.2941V11.3859C10.9445 9.47934 9.39336 7.92822 7.48683 7.92822ZM3.86236 11.3859C3.86236 10.4524 4.62183 9.69293 5.5553 9.69293H7.48683C8.4203 9.69293 9.17977 10.4524 9.17977 11.3859V19.4118H3.86236V11.3859Z"/>
<path d="M27.8823 20.8667C26.936 16.6248 26.4086 14.8883 26.4146 13.932C26.4178 13.4096 26.5747 13.0611 27.0593 12.1188C27.9607 10.3659 26.6861 8.26831 24.7076 8.26831H21.2231C19.2753 8.26831 17.9431 10.2963 18.8078 12.069C19.3314 13.1395 19.4823 13.4273 19.4794 13.9483C19.4743 14.8582 18.9613 16.6003 18.0097 20.8666C17.887 21.4173 18.3063 21.9411 18.871 21.9411H20.0187L20.2416 29.1448C20.2564 29.6227 20.6484 29.9999 21.123 29.9999C21.1323 29.9999 21.1416 29.9998 21.1508 29.9995C21.6379 29.9844 22.0206 29.5774 22.0055 29.0903L21.7843 21.9411H24.1081L23.8863 29.0903C23.8712 29.5773 24.2538 29.9844 24.7409 29.9995C24.7502 29.9998 24.7594 30 24.7688 30C25.2434 30 25.6354 29.6227 25.6502 29.145L25.8737 21.9411H27.021C27.5851 21.9411 28.0051 21.4178 27.8823 20.8667ZM19.9744 20.1764C21.4678 13.6223 21.6943 13.9538 20.3938 11.2954C20.0954 10.6834 20.5916 10.033 21.2231 10.033H24.7076C25.3651 10.033 25.7876 10.733 25.4898 11.3118C24.1591 13.8994 24.4816 13.8952 25.9173 20.1764H19.9744V20.1764Z"/>
<path d="M22.9459 7.08706C24.8998 7.08706 26.4894 5.49747 26.4894 3.54353C26.4894 1.58959 24.8998 0 22.9459 0C20.992 0 19.4023 1.58959 19.4023 3.54353C19.4023 5.49747 20.9919 7.08706 22.9459 7.08706ZM22.9459 1.76471C23.9268 1.76471 24.7247 2.56271 24.7247 3.54353C24.7247 4.52435 23.9268 5.32235 22.9459 5.32235C21.965 5.32235 21.1671 4.52435 21.1671 3.54353C21.1671 2.56271 21.965 1.76471 22.9459 1.76471Z"/>
<path d="M14.9995 0C14.5122 0 14.1172 0.395059 14.1172 0.882353V29.1176C14.1172 29.6049 14.5122 30 14.9995 30C15.4868 30 15.8819 29.6049 15.8819 29.1176V0.882353C15.8819 0.395059 15.4868 0 14.9995 0Z"/>
</g>
<defs>
<clipPath id="clip0">
<rect width="30" height="30"/>
</clipPath>
</defs>
</svg>
