<?xml version="1.0" encoding="utf-8"?>
<!-- Generator: Adobe Illustrator 22.1.0, SVG Export Plug-In . SVG Version: 6.00 Build 0)  -->
<svg version="1.1" id="Capa_1" xmlns="http://www.w3.org/2000/svg" xmlns:xlink="http://www.w3.org/1999/xlink" x="0px" y="0px"
	 viewBox="0 0 64 64" style="enable-background:new 0 0 64 64;" xml:space="preserve">
<style type="text/css">
	.st0{fill:none;stroke:#020000;stroke-width:2;stroke-linecap:round;stroke-linejoin:round;stroke-miterlimit:10;}
</style>
<g id="a-b_testing_2_">
	<g>
		<g>
			<polyline class="st0" points="13,26 19,12 25,26 			"/>
			<line class="st0" x1="15" y1="22" x2="23" y2="22"/>
		</g>
	</g>
	<g>
		<path class="st0" d="M41,46h6.4c1.9,0,3.5,1.6,3.5,3.5l0,0c0,1.9-1.6,3.5-3.5,3.5H41V39h5.5c1.9,0,3.5,1.6,3.5,3.5l0,0
			c0,1.9-1.6,3.5-3.5,3.5H46"/>
	</g>
	<path class="st0" d="M24,37H5c-2.2,0-4-1.8-4-4V5c0-2.2,1.8-4,4-4h28c2.2,0,4,1.8,4,4v18"/>
	<g>
		<path class="st0" d="M44,29H33c-2.2,0-4,1.8-4,4v26c0,2.2,1.8,4,4,4h26c2.2,0,4-1.8,4-4V38"/>
	</g>
	<polyline class="st0" points="51,32 55.2,37.2 63,27.7 	"/>
</g>
</svg>
