<?xml version="1.0" encoding="utf-8"?>
<!-- Generator: Adobe Illustrator 22.1.0, SVG Export Plug-In . SVG Version: 6.00 Build 0)  -->
<svg version="1.1" id="Capa_1" xmlns="http://www.w3.org/2000/svg" xmlns:xlink="http://www.w3.org/1999/xlink" x="0px" y="0px"
	 viewBox="0 0 64 60" style="enable-background:new 0 0 64 60;" xml:space="preserve">
<style type="text/css">
	.st0{fill:none;stroke:#020000;stroke-width:2;stroke-linecap:round;stroke-linejoin:round;stroke-miterlimit:10;}
</style>
<g id="printing-balance">
	<path class="st0" d="M47,29c-3.2,4.8-8.7,8-15,8c-9.9,0-18-8.1-18-18S22.1,1,32,1c9.3,0,16.9,7,17.9,16"/>
	<path class="st0" d="M28.4,48c-0.9-2.2-1.4-4.5-1.4-7c0-9.9,8.1-18,18-18c9.9,0,18,8.1,18,18s-8.1,18-18,18c-2.9,0-5.6-0.7-8-1.9"
		/>
	<path class="st0" d="M21,23.1c9,1,16,8.6,16,17.9c0,9.9-8.1,18-18,18C9.1,59,1,50.9,1,41c0-6.3,3.2-11.8,8-15"/>
</g>
</svg>
