<?xml version="1.0" encoding="utf-8"?>
<!-- Generator: Adobe Illustrator 22.1.0, SVG Export Plug-In . SVG Version: 6.00 Build 0)  -->
<svg version="1.1" id="Capa_1" xmlns="http://www.w3.org/2000/svg" xmlns:xlink="http://www.w3.org/1999/xlink" x="0px" y="0px"
	 viewBox="0 0 64 64" style="enable-background:new 0 0 64 64;" xml:space="preserve">
<style type="text/css">
	.st0{fill:none;stroke:#020000;stroke-width:2;stroke-linejoin:round;stroke-miterlimit:10;}
	.st1{fill:none;stroke:#020000;stroke-width:2;stroke-linecap:square;stroke-linejoin:round;stroke-miterlimit:10;}
	.st2{fill:none;stroke:#020000;stroke-width:2;stroke-linecap:round;stroke-linejoin:round;stroke-miterlimit:10;}
</style>
<g>
	<g>
		<line class="st0" x1="0" y1="26" x2="2" y2="26"/>
		<line class="st0" x1="4" y1="26" x2="6" y2="26"/>
		<line class="st0" x1="58" y1="26" x2="60" y2="26"/>
		<line class="st0" x1="62" y1="26" x2="64" y2="26"/>
	</g>
	<g>
		<line class="st0" x1="0" y1="38" x2="2" y2="38"/>
		<line class="st0" x1="4" y1="38" x2="6" y2="38"/>
		<line class="st0" x1="58" y1="38" x2="60" y2="38"/>
		<line class="st0" x1="62" y1="38" x2="64" y2="38"/>
	</g>
</g>
<g>
	<g>
		<line class="st0" x1="32" y1="64" x2="32" y2="62"/>
		<line class="st0" x1="32" y1="60" x2="32" y2="58"/>
		<line class="st0" x1="32" y1="56" x2="32" y2="54"/>
		<line class="st0" x1="32" y1="52" x2="32" y2="50"/>
		<line class="st0" x1="32" y1="48" x2="32" y2="46"/>
		<line class="st0" x1="32" y1="44" x2="32" y2="42"/>
		<line class="st0" x1="32" y1="18" x2="32" y2="16"/>
		<line class="st0" x1="32" y1="22" x2="32" y2="20"/>
		<line class="st0" x1="32" y1="14" x2="32" y2="12"/>
		<line class="st0" x1="32" y1="10" x2="32" y2="8"/>
		<line class="st0" x1="32" y1="6" x2="32" y2="4"/>
		<line class="st0" x1="32" y1="2" x2="32" y2="0"/>
	</g>
	<g>
		<line class="st0" x1="41" y1="64" x2="41" y2="62"/>
		<line class="st0" x1="41" y1="60" x2="41" y2="58"/>
		<line class="st0" x1="41" y1="56" x2="41" y2="54"/>
		<line class="st0" x1="41" y1="52" x2="41" y2="50"/>
		<line class="st0" x1="41" y1="48" x2="41" y2="46"/>
		<line class="st0" x1="41" y1="44" x2="41" y2="42"/>
		<line class="st0" x1="41" y1="18" x2="41" y2="16"/>
		<line class="st0" x1="41" y1="22" x2="41" y2="20"/>
		<line class="st0" x1="41" y1="14" x2="41" y2="12"/>
		<line class="st0" x1="41" y1="10" x2="41" y2="8"/>
		<line class="st0" x1="41" y1="6" x2="41" y2="4"/>
		<line class="st0" x1="41" y1="2" x2="41" y2="0"/>
	</g>
</g>
<g>
	<polyline class="st1" points="55,1 55,9 63,9 	"/>
	<polyline class="st1" points="55,63 55,55 63,55 	"/>
	<polyline class="st1" points="9,63 9,55 1,55 	"/>
	<polyline class="st1" points="9,1 9,9 1,9 	"/>
</g>
<g>
	<polyline class="st2" points="47,39 52,42 32,54 12,42 17,39 	"/>
	<polyline class="st2" points="12,19 32,31 52,19 32,8 12,19 	"/>
	<line class="st2" x1="52" y1="19" x2="52" y2="42"/>
	<polygon class="st0" points="32,19 21,25 21,37 32,44 43,37 43,25 	"/>
	<line class="st2" x1="32" y1="31" x2="32" y2="54"/>
	<line class="st2" x1="32" y1="8" x2="32" y2="13"/>
	<line class="st2" x1="12" y1="19" x2="12" y2="42"/>
</g>
</svg>
