<?xml version="1.0" encoding="utf-8"?>
<!-- Generator: Adobe Illustrator 22.1.0, SVG Export Plug-In . SVG Version: 6.00 Build 0)  -->
<svg version="1.1" id="Capa_1" xmlns="http://www.w3.org/2000/svg" xmlns:xlink="http://www.w3.org/1999/xlink" x="0px" y="0px"
	 viewBox="0 0 64 64" style="enable-background:new 0 0 64 64;" xml:space="preserve">
<style type="text/css">
	.st0{fill:none;stroke:#000000;stroke-width:2;stroke-linecap:round;stroke-linejoin:round;stroke-miterlimit:10;}
	.st1{fill:none;stroke:#000000;stroke-width:2;stroke-linecap:square;stroke-linejoin:round;stroke-miterlimit:10;}
</style>
<g id="creative_idea_1_">
	<g>
		<g>
			<line class="st0" x1="42" y1="1" x2="42" y2="3"/>
			<line class="st0" x1="58.9" y1="9.7" x2="60.4" y2="8.3"/>
			<line class="st0" x1="51.2" y1="4.8" x2="51.9" y2="2.9"/>
			<line class="st0" x1="32.8" y1="4.8" x2="32.1" y2="2.9"/>
		</g>
		<path class="st0" d="M34,50c0,0-0.8-4.1-2.4-6.2C28,39,24,33.1,24,27c0-10,8-18,18-18s18,8,18,18l3,9h-5v6c0,2.2-1.8,4-4,4h-1.7
			c-1.4,0-2.6,0.9-2.9,2.3l0,0c-0.3,1.1-0.4,2.3-0.4,3.5V54H34"/>
		<path class="st0" d="M39,44c0-6,0-12-4-16h14c-4,4-4,10-4,16"/>
		<path class="st1" d="M34,58L34,58c0,2.8,2.2,5,5,5h5c2.8,0,5-2.2,5-5l0,0"/>
	</g>
	<g>
		<path class="st1" d="M28,9h-3c-1.1,0-2,0.9-2,2v0.8c0,0.8-0.5,1.5-1.2,1.8l-5.1,2.1c-0.7,0.3-1.6,0.1-2.2-0.4l-0.6-0.6
			c-0.8-0.8-2-0.8-2.8,0L6.8,19c-0.8,0.8-0.8,2,0,2.8l1.1,1.1c0.3,0.3,0.4,0.7,0.2,1.1l-2.4,5.8c-0.3,0.7-1,1.2-1.8,1.2H3
			c-1.1,0-2,0.9-2,2v6c0,1.1,0.9,2,2,2h0.8c0.8,0,1.5,0.5,1.8,1.2l2.1,5.1C8.1,48.1,8,49,7.4,49.5l-0.6,0.6c-0.8,0.8-0.8,2,0,2.8
			l4.2,4.2c0.8,0.8,2,0.8,2.8,0l0.6-0.6c0.6-0.6,1.4-0.7,2.2-0.4l5.1,2.1c0.7,0.3,1.2,1,1.2,1.8V61c0,1.1,0.9,2,2,2h4"/>
		<path class="st0" d="M17.5,28c-1.6,2.3-2.5,5-2.5,8c0,7.7,6.3,14,14,14h5"/>
	</g>
</g>
</svg>
