<?xml version="1.0" encoding="utf-8"?>
<!-- Generator: Adobe Illustrator 22.1.0, SVG Export Plug-In . SVG Version: 6.00 Build 0)  -->
<svg version="1.1" id="Capa_1" xmlns="http://www.w3.org/2000/svg" xmlns:xlink="http://www.w3.org/1999/xlink" x="0px" y="0px"
	 viewBox="0 0 64 64" style="enable-background:new 0 0 64 64;" xml:space="preserve">
<style type="text/css">
	.st0{fill:none;stroke:#000000;stroke-width:2;stroke-linecap:round;stroke-linejoin:round;stroke-miterlimit:10;}
</style>
<g>
	<g id="_x3C_Grupo_x3E__52_">
		<path class="st0" d="M19,58c0,0-2,1-5,1s-5-1-5-1l-5,2c-1.3,0.6-2.5,2.1-3,3"/>
		<path class="st0" d="M17,55c2.8-1.9,2.5-3,2.9-5.8c0.2-1.5,0.2-3-0.5-4.4c-0.6-1.2-1.8-2.1-3.1-2.5C15.6,42.1,14.8,42,14,42
			c-0.8,0-1.6,0.1-2.3,0.4c-1.3,0.4-2.5,1.3-3.1,2.5c-0.7,1.3-0.6,2.9-0.5,4.4C8.5,52,8.2,53.1,11,55"/>
	</g>
	<g id="_x3C_Grupo_x3E__51_">
		<path class="st0" d="M45,63c-0.5-0.9-1.7-2.4-3-3l-5-2c0,0-2,1-5,1s-5-1-5-1l-5,2c-1.3,0.6-2.5,2.1-3,3"/>
		<path class="st0" d="M35,55c2.8-1.9,2.5-3,2.9-5.8c0.2-1.5,0.2-3-0.5-4.4c-0.6-1.2-1.8-2.1-3.1-2.5C33.6,42.1,32.8,42,32,42
			c-0.8,0-1.6,0.1-2.3,0.4c-1.3,0.4-2.5,1.3-3.1,2.5c-0.7,1.3-0.6,2.9-0.5,4.4c0.3,2.7,0.1,3.9,2.9,5.8"/>
	</g>
	<g id="_x3C_Grupo_x3E__50_">
		<path class="st0" d="M63,63c-0.5-0.9-1.7-2.4-3-3l-5-2c0,0-2,1-5,1s-5-1-5-1"/>
		<path class="st0" d="M53,55c2.8-1.9,2.5-3,2.9-5.8c0.2-1.5,0.2-3-0.5-4.4c-0.6-1.2-1.8-2.1-3.1-2.5C51.6,42.1,50.8,42,50,42
			c-0.8,0-1.6,0.1-2.3,0.4c-1.3,0.4-2.5,1.3-3.1,2.5c-0.7,1.3-0.6,2.9-0.5,4.4c0.3,2.7,0.1,3.9,2.9,5.8"/>
	</g>
</g>
<path class="st0" d="M23,12c0-3.9-3.1-7-7-7s-7,3.1-7,7c0,0.3,0,0.7,0.1,1c0,0-0.1,0-0.1,0c-2.8,0-5,2.2-5,5s2.2,5,5,5
	c2.5,0,4.6-1.9,4.9-4.3"/>
<path class="st0" d="M41,12c0-3.9,3.1-7,7-7s7,3.1,7,7c0,0.3,0,0.7-0.1,1c0,0,0.1,0,0.1,0c2.8,0,5,2.2,5,5s-2.2,5-5,5
	c-2.5,0-4.6-1.9-4.9-4.3"/>
<path class="st0" d="M60,20.8c1.8,1,3,3,3,5.2l0,0c0,3.3-2.7,6-6,6h-4l-3,6l-6-6h-7l-5,6l-5-6h-7l-6,6l-3-6H7c-3.3,0-6-2.7-6-6l0,0
	c0-2.2,1.2-4.1,3-5.2"/>
<path class="st0" d="M20.1,6C20.6,3.2,23,1,26,1c3.3,0,6,2.7,6,6c0-3.3,2.7-6,6-6c3,0,5.4,2.2,5.9,5"/>
</svg>
