<?xml version="1.0" encoding="utf-8"?>
<!-- Generator: Adobe Illustrator 22.1.0, SVG Export Plug-In . SVG Version: 6.00 Build 0)  -->
<svg version="1.1" id="Capa_1" xmlns="http://www.w3.org/2000/svg" xmlns:xlink="http://www.w3.org/1999/xlink" x="0px" y="0px"
	 viewBox="0 0 64 64" style="enable-background:new 0 0 64 64;" xml:space="preserve">
<style type="text/css">
	.st0{fill:none;stroke:#000000;stroke-width:2;stroke-linejoin:round;stroke-miterlimit:10;}
	.st1{fill:none;stroke:#000000;stroke-width:2;stroke-linecap:round;stroke-linejoin:round;stroke-miterlimit:10;}
</style>
<g id="portfolio_5_">
	<g>
		<path class="st0" d="M25,26v-2c0,0,3-3,9.5-3s9.5,3,9.5,3v2"/>
		<path class="st0" d="M13,44v17c0,1.1,0.9,2,2,2h40c1.1,0,2-0.9,2-2V51"/>
		<path class="st0" d="M37,52h-4c-0.6,0-1-0.4-1-1v-5c0-0.6,0.4-1,1-1h4c0.6,0,1,0.4,1,1v5C38,51.6,37.6,52,37,52z"/>
		<path class="st1" d="M38,48c7.4-0.1,15.2-1.8,18.5-2.6c0.9-0.2,1.5-1,1.5-1.9V31c0-1.1-0.9-2-2-2H14c-1.1,0-2,0.9-2,2v11.5
			c0,0.9,0.6,1.6,1.4,1.9c3.3,1,11.9,3.5,18.6,3.5"/>
	</g>
	<polyline class="st0" points="33.3,21 31.2,15 1,25.6 13,59.7 	"/>
	<g>
		<path class="st1" d="M44.3,9.3l-9.8,1.8c-0.5,0.1-1.1-0.3-1.2-0.8l-0.4-2"/>
		<polyline class="st1" points="45.7,16.8 44.3,8.9 31.7,1 8.1,5.2 10,16 		"/>
	</g>
	<g>
		<polyline class="st1" points="50.5,29 57.3,22.1 63,8 48.9,13.7 40.5,22 		"/>
		<line class="st1" x1="60.2" y1="9.4" x2="61.6" y2="10.8"/>
		<polyline class="st1" points="56.6,22.8 52.4,18.6 49,22 		"/>
	</g>
</g>
</svg>
