<?xml version="1.0" encoding="utf-8"?>
<!-- Generator: Adobe Illustrator 22.1.0, SVG Export Plug-In . SVG Version: 6.00 Build 0)  -->
<svg version="1.1" id="Capa_1" xmlns="http://www.w3.org/2000/svg" xmlns:xlink="http://www.w3.org/1999/xlink" x="0px" y="0px"
	 viewBox="0 0 64 60.8" style="enable-background:new 0 0 64 60.8;" xml:space="preserve">
<style type="text/css">
	.st0{fill:none;stroke:#000000;stroke-width:2;stroke-linecap:round;stroke-linejoin:round;stroke-miterlimit:10;}
</style>
<g id="vision-visualization-visual_communication">
	<g>
		<path class="st0" d="M55,28V5c0-2.2-1.8-4-4-4H5C2.8,1,1,2.8,1,5v48.6c0,0.9,1.1,1.3,1.7,0.7L14,43h14"/>
		<path class="st0" d="M21,43v4c0,2.2,1.8,4,4,4h28l8.3,8.5c0.6,0.6,1.7,0.2,1.7-0.7V25c0-2.2-1.8-4-4-4h-4"/>
	</g>
	<g id="_x3C_Grupo_x3E_">
		<path class="st0" d="M47,22c0,0-7,13-19,13S9,22,9,22S16,9,28,9S47,22,47,22z"/>
		<g>
			<path class="st0" d="M28,35c-7.2,0-13-5.8-13-13"/>
			<path class="st0" d="M28,9c7.2,0,13,5.8,13,13"/>
		</g>
		<path class="st0" d="M28,15c-0.4,0-0.7,0-1.1,0.1c-0.5,3-2.8,5.3-5.8,5.8C21,21.3,21,21.6,21,22c0,3.9,3.1,7,7,7s7-3.1,7-7
			S31.9,15,28,15z"/>
	</g>
</g>
</svg>
