<?xml version="1.0" encoding="utf-8"?>
<!-- Generator: Adobe Illustrator 22.1.0, SVG Export Plug-In . SVG Version: 6.00 Build 0)  -->
<svg version="1.1" id="Capa_1" xmlns="http://www.w3.org/2000/svg" xmlns:xlink="http://www.w3.org/1999/xlink" x="0px" y="0px"
	 viewBox="0 0 64 64" style="enable-background:new 0 0 64 64;" xml:space="preserve">
<style type="text/css">
	.st0{fill:none;stroke:#000000;stroke-width:2;stroke-linecap:square;stroke-linejoin:round;stroke-miterlimit:10;}
	.st1{fill:none;stroke:#000000;stroke-width:2;stroke-linecap:round;stroke-linejoin:round;stroke-miterlimit:10;}
	.st2{fill:none;stroke:#000000;stroke-width:2;stroke-linejoin:round;stroke-miterlimit:10;}
</style>
<g id="_x33_D_3_">
	<g>
		<path class="st0" d="M4,51V26c0-1.7,1.3-3,3-3"/>
		<path class="st0" d="M60,51V26c0-1.7-1.3-3-3-3"/>
		<path class="st1" d="M56,63H8c-3.9,0-7-3.1-7-7l0,0h25v2h12l0-2h25l0,0C63,59.9,59.9,63,56,63z"/>
	</g>
	<g>
		<polyline class="st1" points="47,32 52,35 32,47 12,35 17,32 		"/>
		<polyline class="st1" points="12,12 32,24 52,12 32,1 12,12 		"/>
		<line class="st1" x1="52" y1="12" x2="52" y2="35"/>
		<polygon class="st2" points="32,12 21,18 21,30 32,37 43,30 43,18 		"/>
		<line class="st1" x1="32" y1="24" x2="32" y2="47"/>
		<line class="st1" x1="32" y1="1" x2="32" y2="6"/>
		<line class="st1" x1="12" y1="12" x2="12" y2="35"/>
	</g>
</g>
</svg>
