<?xml version="1.0" encoding="utf-8"?>
<!-- Generator: Adobe Illustrator 22.1.0, SVG Export Plug-In . SVG Version: 6.00 Build 0)  -->
<svg version="1.1" id="Capa_1" xmlns="http://www.w3.org/2000/svg" xmlns:xlink="http://www.w3.org/1999/xlink" x="0px" y="0px"
	 viewBox="0 0 64 64" style="enable-background:new 0 0 64 64;" xml:space="preserve">
<style type="text/css">
	.st0{fill:none;stroke:#000;stroke-width:2;stroke-linecap:round;stroke-linejoin:round;stroke-miterlimit:10;}
	.st1{fill:none;stroke:#000;stroke-width:2;stroke-linecap:square;stroke-linejoin:round;stroke-miterlimit:10;}
</style>
<g id="vector_illustration-digital_art-pen">
	<g>
		<rect x="29" y="1" class="st0" width="6" height="6"/>
		<rect x="1" y="33" class="st0" width="6" height="6"/>
		<circle class="st0" cx="4" cy="4" r="3"/>
		<circle class="st0" cx="60" cy="4" r="3"/>
		<line class="st0" x1="7" y1="4" x2="29" y2="4"/>
		<line class="st0" x1="35" y1="4" x2="57" y2="4"/>
		<path class="st0" d="M35,4c14.1,1.5,25,13.5,25,28c0,8.4-3.7,15.9-9.5,21"/>
		<path class="st0" d="M4,33c0-0.3,0-0.7,0-1C4,17.5,14.9,5.5,29,4"/>
	</g>
	<g>
		<circle class="st0" cx="32" cy="36" r="3"/>
		<path class="st0" d="M40,53c0-6.1,3.7-10.4,6.1-12.5c1.1-0.9,1.3-2.5,0.6-3.7L32.9,12.5c-0.4-0.7-1.4-0.7-1.7,0L17.3,36.7
			c-0.7,1.2-0.4,2.8,0.6,3.7c1.7,1.5,4,4,5.2,7.5"/>
		<path class="st1" d="M33,60h7c1.1,0,2-0.9,2-2v-3c0-1.1-0.9-2-2-2H24c-1.1,0-2,0.9-2,2v3c0,1.1,0.9,2,2,2h2"/>
		<line class="st1" x1="24" y1="63" x2="24" y2="60"/>
		<line class="st1" x1="40" y1="63" x2="40" y2="60"/>
		<line class="st0" x1="32" y1="12" x2="32" y2="33"/>
	</g>
</g>
</svg>
