<?xml version="1.0" encoding="utf-8"?>
<!-- Generator: Adobe Illustrator 22.1.0, SVG Export Plug-In . SVG Version: 6.00 Build 0)  -->
<svg version="1.1" id="Capa_1" xmlns="http://www.w3.org/2000/svg" xmlns:xlink="http://www.w3.org/1999/xlink" x="0px" y="0px"
	 viewBox="0 0 64 64" style="enable-background:new 0 0 64 64;" xml:space="preserve">
<style type="text/css">
	.st0{fill:none;stroke:#000;stroke-width:2;stroke-linecap:round;stroke-linejoin:round;stroke-miterlimit:10;}
	.st1{fill:#000;}
</style>
<g id="video_production_1_">
	<path class="st0" d="M52,55.7C46.6,60.2,39.6,63,32,63C14.9,63,1,49.1,1,32S14.9,1,32,1c17.1,0,31,13.9,31,31"/>
	<circle class="st1" cx="32" cy="32" r="2"/>
	<g>
		<circle class="st0" cx="32" cy="17" r="8"/>
		<circle class="st0" cx="32" cy="47" r="8"/>
		<circle class="st0" cx="17" cy="32" r="8"/>
		<path class="st0" d="M44,39.4c-2.9-1.2-5-4.1-5-7.4c0-4.4,3.6-8,8-8c3.7,0,6.9,2.5,7.7,6"/>
	</g>
	<path class="st0" d="M63,63c-6.1,0-11.8-1.4-16.9-3.4"/>
	<polygon class="st0" points="49,32 49,49.1 53.7,45.2 58.3,53 62.2,50.7 57.6,42.9 63,41.3 	"/>
</g>
</svg>
