<?xml version="1.0" encoding="utf-8"?>
<!-- Generator: Adobe Illustrator 22.0.1, SVG Export Plug-In . SVG Version: 6.00 Build 0)  -->
<svg version="1.1" id="Capa_1" xmlns="http://www.w3.org/2000/svg" xmlns:xlink="http://www.w3.org/1999/xlink" x="0px" y="0px"
	 viewBox="0 0 512.3 512.3" style="enable-background:new 0 0 512.3 512.3;" xml:space="preserve">
<style type="text/css">
	.st0{fill:#4FDBFC;}
	.st1{fill:#FFFFFF;}
	.st2{fill:#415A6B;}
	.st3{fill:#FF4E36;}
	.st4{fill:#F9D606;}
</style>
<g>
	<path class="st0" d="M384.1,306.1c55.5-55.5,128-87.5,128-155.7c0-37.3-29.9-68.3-67.2-68.3c-26.7,0-50.1,16-60.8,38.4
		c-10.7-22.4-34.1-38.4-60.8-38.4c-37.3,0-67.2,30.9-67.2,68.3C256.1,219.7,331.9,251.7,384.1,306.1z"/>
	<path class="st0" d="M408.7,315.7c-13.9,13.9-34.1,13.9-48,0c5.3-6.4,14.9-11.7,14.9-20.3c5.3,0,11.7,0,17.1,0
		C392.7,304,403.3,308.3,408.7,315.7z"/>
</g>
<path class="st1" d="M479.1,122.7c7.5,8.5,10.7,19.2,6.4,22.4s-13.9,0-21.3-9.6c-7.5-8.5-10.7-19.2-6.4-22.4
	C460.9,109.9,470.5,114.1,479.1,122.7z"/>
<g>
	<path class="st2" d="M394.8,301.9h-20.3c-2.1,0-3.2-1.1-3.2-3.2c0-2.1,1.1-3.2,3.2-3.2h20.3c2.1,0,3.2,1.1,3.2,3.2
		C398,299.7,396.9,301.9,394.8,301.9z"/>
	<path class="st2" d="M364.9,324.3c-1.1,0-3.2-1.1-3.2-2.1c0-2.1,1.1-3.2,2.1-4.3c3.2-1.1,5.3-2.1,5.3-7.5
		c1.1-7.5,8.5-12.8,9.6-13.9c1.1-1.1,3.2-1.1,4.3,1.1c1.1,1.1,1.1,3.2-1.1,4.3c-2.1,1.1-6.4,5.3-6.4,9.6
		C375.6,318.9,372.4,322.1,364.9,324.3L364.9,324.3z"/>
	<path class="st2" d="M401.2,369.1c-18.1-30.9-10.7-70.4-10.7-70.4v-1.1h-6.4c-1.1,3.2-7.5,41.6,11.7,74.7
		c17.1,30.9-8.5,86.4-8.5,87.5c-1.1,2.1,0,3.2,1.1,4.3h1.1c1.1,0,2.1-1.1,3.2-2.1C393.7,459.7,420.4,403.2,401.2,369.1z"/>
</g>
<g>
	<path class="st3" d="M134.5,234.7c58.7-58.7,134.4-91.7,134.4-163.2c0-39.5-32-71.5-70.4-71.5c-27.7,0-52.3,16-62.9,40.5
		C122.8,16,98.3,0,70.5,0C32.1,0,0.1,32,0.1,71.5C0.1,144,80.1,177.1,134.5,234.7z"/>
	<path class="st3" d="M159.1,244.3c-14.9,13.9-35.2,13.9-50.1,0c5.3-7.5,16-11.7,16-21.3c6.4,0,11.7,0,18.1,0
		C143.1,231.5,153.7,236.8,159.1,244.3z"/>
</g>
<path class="st1" d="M233.7,41.6c8.5,9.6,10.7,20.3,6.4,23.5c-4.3,4.3-14.9,0-22.4-9.6c-8.5-9.6-10.7-20.3-6.4-23.5
	C215.6,27.7,225.2,32,233.7,41.6z"/>
<g>
	<path class="st2" d="M145.2,229.3h-21.3c-2.1,0-3.2-1.1-3.2-3.2s1.1-3.2,3.2-3.2h21.3c2.1,0,3.2,1.1,3.2,3.2
		C149.5,227.2,147.3,229.3,145.2,229.3z"/>
	<path class="st2" d="M114.3,252.8c-1.1,0-3.2-1.1-3.2-2.1c0-2.1,1.1-3.2,2.1-4.3c3.2-1.1,5.3-2.1,6.4-7.5
		c1.1-7.5,8.5-13.9,9.6-14.9c1.1-1.1,3.2-1.1,4.3,1.1c1.1,1.1,1.1,3.2-1.1,4.3c-2.1,1.1-6.4,5.3-7.5,9.6
		C124.9,247.5,121.7,250.7,114.3,252.8L114.3,252.8z"/>
	<path class="st2" d="M151.6,299.7c-18.1-33.1-11.7-73.6-10.7-73.6v-1.1h-6.4c-1.1,3.2-7.5,43.7,11.7,77.9
		c18.1,32-8.5,90.7-9.6,91.7c-1.1,2.1,0,4.3,2.1,4.3h1.1c1.1,0,2.1-1.1,3.2-2.1S171.9,334.9,151.6,299.7z"/>
</g>
<g>
	<path class="st4" d="M256.1,395.7c53.3-52.3,121.6-83.2,121.6-147.2c0-35.2-28.8-64-64-64c-25.6,0-46.9,14.9-57.6,36.3
		c-10.7-21.3-32-36.3-57.6-36.3c-35.2,0-64,28.8-64,64C134.5,313.6,207.1,343.5,256.1,395.7z"/>
	<path class="st4" d="M278.5,403.2c-12.8,12.8-32,12.8-44.8,0c5.3-6.4,14.9-10.7,14.9-19.2c5.3,0,10.7,0,16,0
		C264.7,392.5,274.3,396.8,278.5,403.2z"/>
</g>
<path class="st1" d="M345.7,220.8c7.5,8.5,9.6,18.1,6.4,21.3s-12.8,0-20.3-8.5s-9.6-18.1-6.4-21.3
	C328.7,209.1,338.3,212.3,345.7,220.8z"/>
<g>
	<path class="st2" d="M266.8,390.4h-19.2c-2.1,0-3.2-1.1-3.2-3.2c0-2.1,1.1-3.2,3.2-3.2h19.2c2.1,0,3.2,1.1,3.2,3.2
		C268.9,389.3,267.9,390.4,266.8,390.4z"/>
	<path class="st2" d="M238,411.7c-1.1,0-3.2-1.1-3.2-2.1c0-2.1,1.1-3.2,2.1-4.3c3.2-1.1,5.3-2.1,5.3-6.4c1.1-7.5,8.5-12.8,8.5-12.8
		c1.1-1.1,3.2-1.1,4.3,1.1c1.1,1.1,1.1,3.2-1.1,4.3c-2.1,1.1-6.4,5.3-6.4,8.5C247.6,406.4,244.4,410.7,238,411.7L238,411.7z"/>
	<path class="st2" d="M268.9,509.9c0,3.2,6.4,3.2,6.4,0c4.3-18.1,6.4-39.5-3.2-55.5c-17.1-29.9-9.6-66.1-9.6-66.1v-1.1h-6.4
		c-1.1,3.2-6.4,39.5,10.7,70.4C275.3,472.5,273.2,492.8,268.9,509.9z"/>
</g>
</svg>
