<?xml version="1.0" encoding="utf-8"?>
<!-- Generator: Adobe Illustrator 22.0.1, SVG Export Plug-In . SVG Version: 6.00 Build 0)  -->
<svg version="1.1" id="Capa_1" xmlns="http://www.w3.org/2000/svg" xmlns:xlink="http://www.w3.org/1999/xlink" x="0px" y="0px"
	 viewBox="0 0 512 512" style="enable-background:new 0 0 512 512;" xml:space="preserve">
<style type="text/css">
	.st0{fill:#0059A9;}
</style>
<g>
	<g>
		<path class="st0" d="M260.2,154.7c-4.1,0-7.5,3.4-7.5,7.5v12.5c0,4.1,3.4,7.5,7.5,7.5s7.5-3.4,7.5-7.5v-12.4
			C267.7,158.1,264.3,154.7,260.2,154.7z"/>
	</g>
</g>
<g>
	<g>
		<path class="st0" d="M98.9,154.7c-4.1,0-7.5,3.4-7.5,7.5v12.5c0,4.1,3.4,7.5,7.5,7.5s7.5-3.4,7.5-7.5v-12.4
			C106.4,158.1,103,154.7,98.9,154.7z"/>
	</g>
</g>
<g>
	<g>
		<path class="st0" d="M208.4,170.1c-2.5-3.3-7.3-3.9-10.5-1.3c-10.8,8.4-25.9,8.4-36.6,0c-3.3-2.5-8-1.9-10.5,1.3
			c-2.5,3.3-1.9,8,1.3,10.5c8.1,6.3,17.8,9.4,27.5,9.4s19.4-3.1,27.5-9.4C210.3,178,210.9,173.3,208.4,170.1z"/>
	</g>
</g>
<g>
	<g>
		<path class="st0" d="M470.2,31.5C454.3,14.1,432.6,3.1,409,0.6c-23-2.5-46.4,3.2-65.8,15.9c-6.5,4.2-14.8,4.2-21.3,0
			C302.5,3.8,279.1-1.9,256.1,0.6c-23.6,2.5-45.4,13.5-61.3,30.9c-5.2,5.7-9.9,11.6-13.8,17.6c-4.2,0.3-8.5-0.7-12.1-3.1
			c-19.4-12.7-42.8-18.4-65.8-15.9c-23.6,2.5-45.4,13.5-61.3,30.9c-1.7,1.8-3.3,3.7-4.9,5.6c-2.6,3.2-2.2,7.9,1,10.6
			c3.2,2.6,7.9,2.2,10.6-1c1.4-1.7,2.9-3.4,4.4-5.1c13.4-14.7,31.8-24,51.8-26.1c19.6-2.1,39.5,2.7,56,13.6c7.9,5.2,21.8,9.3,37.7,0
			c17.1-9.9,36.4-15.6,56-13.6c20,2.1,38.3,11.4,51.8,26.1c21.2,23.3,30.5,48.5,27.6,75c-6.4,58.4-70,112.9-110.6,142.1
			c-4.7-3.2-10.3-5.1-16.4-5.1h-54.6c-6.1,0-11.7,1.9-16.4,5.1c-26.4-19-61-47.5-84.4-80.3c-27.7-38.9-33.9-75.2-18.3-108.1
			c1.8-3.7,0.2-8.2-3.6-10c-3.7-1.8-8.2-0.2-10,3.6c-39.4,83,47,163.3,106.4,206.3c-1.8,3.8-2.8,8-2.8,12.5c0,5.2,1.4,10.1,3.9,14.5
			c-2.5,4.3-3.9,9.2-3.9,14.5c0,16,13,29,29,29h14c-2.1,5-3.5,10.3-3.5,15.7c0,13.4,7.9,20.1,14.2,25.5c5.9,5,8.9,7.9,8.9,14.1
			c0,6.2-3.1,9.1-8.9,14.1c-6.3,5.4-14.2,12.1-14.2,25.5c0,23,24.7,44.4,25.8,45.3c1.4,1.2,3.1,1.8,4.9,1.8c2.1,0,4.2-0.9,5.7-2.6
			c2.7-3.1,2.3-7.9-0.8-10.6c-5.7-4.9-20.5-20.5-20.5-33.9c0-6.2,3.1-9.1,8.9-14.1c6.3-5.4,14.2-12.1,14.2-25.5
			c0-13.4-7.9-20.1-14.2-25.5c-5.9-5-8.9-7.9-8.9-14.1c0-5.1,2.2-10.6,5.2-15.7h23.8c16,0,29-13,29-29c0-5.3-1.4-10.2-3.9-14.5
			c2.6-4.4,3.9-9.4,3.9-14.5c0-4.5-1-8.7-2.8-12.5c15-10.9,28.8-21.9,41.2-33.1c1.6,1.2,3.3,2.4,5,3.6c-1.8,3.8-2.8,8-2.8,12.5
			c0,5.2,1.4,10.1,3.9,14.5c-2.5,4.3-3.9,9.2-3.9,14.5c0,16,13,29,29,29h14c-2.1,5-3.5,10.3-3.5,15.7c0,13.4,7.9,20.1,14.2,25.5
			c5.9,5,8.9,7.9,8.9,14.1c0,6.2-3.1,9.1-8.9,14.1c-6.3,5.4-14.2,12.1-14.2,25.5c0,23,24.7,44.4,25.8,45.3c1.4,1.2,3.1,1.8,4.9,1.8
			c2.1,0,4.2-0.9,5.7-2.6c2.7-3.1,2.3-7.9-0.8-10.6c-5.7-4.9-20.5-20.5-20.5-33.9c0-6.2,3.1-9.1,8.9-14.1
			c6.3-5.4,14.2-12.1,14.2-25.5c0-13.4-7.9-20.1-14.2-25.5c-5.9-5-8.9-7.9-8.9-14.1c0-5.1,2.2-10.6,5.2-15.7h23.8c16,0,29-13,29-29
			c0-5.3-1.4-10.2-3.9-14.5c2.5-4.4,3.9-9.4,3.9-14.5c0-16-13-29-29-29h-54.6c-6.1,0-11.7,1.9-16.4,5.1c-1.2-0.9-2.4-1.7-3.6-2.6
			c6-5.8,11.6-11.7,16.8-17.6c27.7-31.1,43.4-61.7,46.6-90.9c3.4-30.9-7.2-60.1-31.5-86.7c-15.9-17.4-37.6-28.4-61.3-30.9
			c-14.6-1.6-29.3,0.1-43.1,4.8c12.5-10.8,28.1-17.6,44.8-19.4c19.6-2.1,39.5,2.7,56,13.6c11.5,7.5,26.3,7.5,37.7,0
			c16.5-10.8,36.4-15.6,56-13.6c20,2.1,38.3,11.4,51.8,26.1c20.5,22.5,29.9,46.8,27.9,72.3c-4,50.5-51.2,98.1-90.1,129.2
			c-3.2,2.6-3.7,7.2-1.2,10.5c3.7,4.9,9.2,2.3,10.5,1.2c41.2-32.9,91.3-83.9,95.7-139.7C504.3,85.2,493.6,57.1,470.2,31.5z
			 M206.8,355h-54.6c-7.7,0-14-6.3-14-14s6.3-14,14-14h54.6c7.7,0,14,6.3,14,14S214.5,355,206.8,355z M220.4,315.4
			c-4.1-2.2-8.7-3.4-13.6-3.4h-54.6c-4.9,0-9.5,1.2-13.6,3.4c-0.3-1.1-0.4-2.2-0.4-3.4c0-7.7,6.3-14,14-14h54.6c7.7,0,14,6.3,14,14
			C220.8,313.2,220.6,314.3,220.4,315.4z M305.3,268.6h54.6c7.7,0,14,6.3,14,14c0,1.1-0.2,2.3-0.4,3.4c-4-2.2-8.7-3.4-13.6-3.4
			h-54.6c-4.9,0-9.5,1.2-13.6,3.4c-0.3-1.1-0.4-2.2-0.4-3.4C291.3,274.9,297.5,268.6,305.3,268.6z M305.3,297.6h54.6
			c7.7,0,14,6.3,14,14s-6.3,14-14,14h-54.6c-7.7,0-14-6.3-14-14S297.5,297.6,305.3,297.6z"/>
	</g>
</g>
</svg>
