<?xml version="1.0" encoding="utf-8"?>
<!-- Generator: Adobe Illustrator 22.0.1, SVG Export Plug-In . SVG Version: 6.00 Build 0)  -->
<svg version="1.1" id="Capa_1" xmlns="http://www.w3.org/2000/svg" xmlns:xlink="http://www.w3.org/1999/xlink" x="0px" y="0px"
	 viewBox="0 0 656.5 716" style="enable-background:new 0 0 656.5 716;" xml:space="preserve">
<style type="text/css">
	.st0{fill:#66C6B9;}
	.st1{fill:#FFD15C;}
	.st2{fill:#FFD039;}
	.st3{fill:#F4B70C;}
	.st4{fill:#FFDF65;}
	.st5{fill:#FFCD2C;}
	.st6{fill:#FF3D43;}
	.st7{fill:#D62D2D;}
	.st8{fill:#9E1219;}
	.st9{fill:#F05540;}
	.st10{fill:#F3705A;}
	.st11{fill:#415A6B;}
	.st12{fill:#4ABAA5;}
	.st13{fill:#E8EAE9;}
	.st14{fill:#F3F3F3;}
	.st15{fill:#F7B64C;}
</style>
<g>
	<path class="st0" d="M204.6,141.8c0,0,14.7,16.2,36.4,44.1c20.6,26.5,47.1,63.4,72,103.6c11.8,20.6,22.5,39.9,33.3,59.3
		c9.4,20.3,17.8,39.4,24.1,55.7c6.3,16.4,11.6,31.4,15.2,41.4c3.5,10,4,16.1,4,16.1L308,472c0,0-0.4-6-0.6-14.4s-2-21.8-3.7-37.6
		c-1.6-15.8-5.3-34.2-10-53.9c-4.7-19.7-10.4-40.8-17.5-60.9c-13.8-42.4-30.3-82.8-45.6-113.5C215.3,161.1,204.6,141.8,204.6,141.8z
		"/>
	<path class="st0" d="M649.4,136.6c-94.1,100.7-137.7,324-137.7,324l-37.7-4.7C528.8,315.4,585.8,186,649.4,136.6z"/>
	<path class="st0" d="M656.5,194.9c0,0-93.4,142.7-132.8,256.3l-38.9-14.5C483.8,435.5,574.2,278,656.5,194.9z"/>
	<path class="st0" d="M529.4,368.1c-58.9-122.3,21.5-276.3,84.3-337.8C410,165.2,430.7,315,474.5,404.4L529.4,368.1z"/>
	<path class="st0" d="M356.8,417.1C464.3,295.3,420.2,93.4,366.9,2.9C555.8,224.2,486,389,405.8,474.8L356.8,417.1z"/>
	<path class="st0" d="M241.1,413.4C126.2,298.3,155.4,94.9,200.8,0c-173.1,234.5-91.4,394.4-5.7,474.6L241.1,413.4z"/>
	<path class="st0" d="M121.9,418.7l-21.4,8.1c0,0-51.8-140.6-100.5-200.6C9.6,235.8,72.3,308.3,121.9,418.7z"/>
	<path class="st0" d="M164.3,462.4l-18.7,6c0,0-40.7-123.7-83-178.1C72.2,299.9,122.7,365,164.3,462.4z"/>
	<path class="st0" d="M16.3,134.9c0,0,93.3,153,106.1,289.9l46-3.8C168.3,421,133.6,258.6,16.3,134.9z"/>
</g>
<g>
	<circle class="st1" cx="144.2" cy="146.1" r="18.5"/>
	
		<ellipse transform="matrix(0.9994 -3.518173e-02 3.518173e-02 0.9994 -11.2193 9.7445)" class="st1" cx="271.3" cy="323.7" rx="15.1" ry="43.7"/>
	
		<ellipse transform="matrix(0.6817 -0.7316 0.7316 0.6817 -171.9419 282.3899)" class="st1" cx="238.6" cy="338.8" rx="15.1" ry="43.7"/>
	
		<ellipse transform="matrix(0.9994 -3.540230e-02 3.540230e-02 0.9994 -13.0365 8.2216)" class="st1" cx="225.6" cy="372.2" rx="43.7" ry="15.1"/>
	
		<ellipse transform="matrix(0.6818 -0.7316 0.7316 0.6818 -220.0211 305.1985)" class="st1" cx="240.8" cy="405.5" rx="43.7" ry="15.1"/>
	
		<ellipse transform="matrix(0.9994 -3.518173e-02 3.518173e-02 0.9994 -14.506 9.9461)" class="st1" cx="275.4" cy="417.2" rx="15.1" ry="43.7"/>
	
		<ellipse transform="matrix(0.6817 -0.7316 0.7316 0.6817 -196.3019 353.0493)" class="st1" cx="307.6" cy="402.1" rx="15.1" ry="43.7"/>
	
		<ellipse transform="matrix(0.9994 -3.540230e-02 3.540230e-02 0.9994 -12.8889 11.595)" class="st1" cx="321" cy="369.8" rx="43.7" ry="15.1"/>
	
		<ellipse transform="matrix(0.6818 -0.7316 0.7316 0.6818 -148.5703 331.2281)" class="st1" cx="306.4" cy="336.4" rx="43.7" ry="15.1"/>
</g>
<path class="st2" d="M538.8,456.9h-421c-4.1,0-7.5,3.4-7.5,7.5v219c0,18,14.6,32.7,32.7,32.7h370.8c18,0,32.7-14.6,32.7-32.7v-219
	C546.3,460.3,542.9,456.9,538.8,456.9z"/>
<path class="st3" d="M538.8,456.9h-421c-4.1,0-7.5,3.4-7.5,7.5v32.3h436.1v-32.3C546.3,460.3,542.9,456.9,538.8,456.9z"/>
<path class="st4" d="M576.7,382.7h-497c-4.1,0-7.5,3.4-7.5,7.5v74.2c0,4.1,3.4,7.5,7.5,7.5h497c4.1,0,7.5-3.4,7.5-7.5v-74.2
	C584.2,386,580.9,382.7,576.7,382.7z"/>
<path class="st5" d="M72.2,437.4v27.1c0,4.1,3.4,7.5,7.5,7.5h497c4.1,0,7.5-3.4,7.5-7.5v-27.1H72.2z"/>
<g>
	<path class="st6" d="M310,471.9v-56.5c0-4.1-3.4-7.5-7.5-7.5H176.8c-0.3,0-0.7,0-1,0.1c-1.2,0.2-30.4,4.3-45.1,29.8
		c-11.8,20.5-10.6,48.1,3.5,82c10.2,24.6,25.4,38.5,45.1,41.2c55.6,7.7,126.1-80.6,129.1-84.4C309.5,475.2,310,473.6,310,471.9z"/>
	<path class="st6" d="M530.8,437.7c-14.7-25.5-43.8-29.6-45.1-29.8c-0.3,0-0.7-0.1-1-0.1H359c-4.1,0-7.5,3.4-7.5,7.5v56.5
		c0,1.7,0.6,3.3,1.6,4.7c3,3.8,73.4,92.1,129.1,84.4c19.7-2.7,34.9-16.6,45.1-41.2C541.4,485.8,542.6,458.2,530.8,437.7z"/>
	<path class="st7" d="M310,449.9v-34.6c0-4.1-3.4-7.5-7.5-7.5H176.8c-0.3,0-0.7,0-1,0.1c-1.2,0.2-30.4,4.3-45.1,29.8
		c-7.9,13.7-10,30.6-6.2,50.5c1.3-5.7,3.4-11.1,6.2-16c14.7-25.5,43.8-29.6,45.1-29.8c0.3,0,0.7-0.1,1-0.1h125.8
		C306.7,442.4,310,445.8,310,449.9z"/>
	<path class="st7" d="M537,488.2c3.7-19.9,1.7-36.8-6.2-50.5c-14.7-25.5-43.8-29.6-45.1-29.8c-0.3,0-0.7-0.1-1-0.1H359
		c-4.1,0-7.5,3.4-7.5,7.5v34.6c0-4.1,3.4-7.5,7.5-7.5h125.8c0.3,0,0.7,0,1,0.1c1.2,0.2,30.4,4.3,45.1,29.8
		C533.6,477.2,535.7,482.5,537,488.2z"/>
	<path class="st7" d="M366.5,471.9v-56.5c0-4.1-3.4-7.5-7.5-7.5h-56.5c-4.1,0-7.5,3.4-7.5,7.5v56.5c0,4.1,3.4,7.5,7.5,7.5H359
		C363.2,479.4,366.5,476,366.5,471.9z"/>
	<path class="st8" d="M366.5,442.4v-27.1c0-4.1-3.4-7.5-7.5-7.5h-56.5c-4.1,0-7.5,3.4-7.5,7.5v27.1H366.5z"/>
</g>
<path class="st6" d="M365.4,382.7h-74.3c-4.1,0-7.5,3.4-7.5,7.5v318.3c0,4.1,3.4,7.5,7.5,7.5h74.3c4.1,0,7.5-3.4,7.5-7.5V390.2
	C372.9,386,369.5,382.7,365.4,382.7z"/>
<path class="st7" d="M365.4,382.7h-27.1V716h27.1c4.1,0,7.5-3.4,7.5-7.5V390.2C372.9,386,369.5,382.7,365.4,382.7z"/>
<g>
	
		<ellipse transform="matrix(0.9994 -3.518173e-02 3.518173e-02 0.9994 -8.9612 5.7534)" class="st9" cx="159" cy="257.5" rx="18.5" ry="53.8"/>
	
		<ellipse transform="matrix(0.6817 -0.7316 0.7316 0.6817 -163.3614 175.6121)" class="st9" cx="120.1" cy="275.5" rx="18.5" ry="53.8"/>
	
		<ellipse transform="matrix(0.9994 -3.546078e-02 3.546078e-02 0.9994 -11.1877 3.9035)" class="st9" cx="104.5" cy="317.3" rx="53.8" ry="18.5"/>
	
		<ellipse transform="matrix(0.6818 -0.7316 0.7316 0.6818 -223.3761 203.1009)" class="st9" cx="121.8" cy="358.3" rx="53.8" ry="18.5"/>
	
		<ellipse transform="matrix(0.9994 -3.518173e-02 3.518173e-02 0.9994 -13.0287 5.992)" class="st9" cx="163.7" cy="373.2" rx="18.5" ry="53.8"/>
	
		<ellipse transform="matrix(0.6817 -0.7316 0.7316 0.6817 -194.9406 262.4991)" class="st9" cx="204.2" cy="355.3" rx="18.5" ry="53.8"/>
	
		<ellipse transform="matrix(0.9994 -3.546083e-02 3.546083e-02 0.9994 -10.9484 8.006)" class="st9" cx="220.2" cy="312.7" rx="53.8" ry="18.5"/>
	
		<ellipse transform="matrix(0.6818 -0.7316 0.7316 0.6818 -134.7638 233.7815)" class="st9" cx="201.3" cy="271.8" rx="53.8" ry="18.5"/>
</g>
<g>
	
		<ellipse transform="matrix(0.3822 -0.9241 0.9241 0.3822 -142.8351 331.2166)" class="st10" cx="176.3" cy="272.4" rx="38.6" ry="13.4"/>
	
		<ellipse transform="matrix(0.9237 -0.3831 0.3831 0.9237 -94.4675 75.7904)" class="st10" cx="143" cy="275.1" rx="13.4" ry="38.6"/>
	
		<ellipse transform="matrix(0.3821 -0.9241 0.9241 0.3821 -203.2698 297.2223)" class="st10" cx="120.6" cy="300.6" rx="13.4" ry="38.6"/>
	
		<ellipse transform="matrix(0.9236 -0.3833 0.3833 0.9236 -119.2282 72.3049)" class="st10" cx="121.8" cy="335.3" rx="38.6" ry="13.4"/>
	
		<ellipse transform="matrix(0.3822 -0.9241 0.9241 0.3822 -239.1075 356.8686)" class="st10" cx="147.3" cy="357.3" rx="38.6" ry="13.4"/>
	
		<ellipse transform="matrix(0.9237 -0.3831 0.3831 0.9237 -122.0869 96.1515)" class="st10" cx="180.3" cy="354.6" rx="13.4" ry="38.6"/>
	
		<ellipse transform="matrix(0.3821 -0.9241 0.9241 0.3821 -179.8435 391.9995)" class="st10" cx="203.2" cy="330.5" rx="13.4" ry="38.6"/>
	
		<ellipse transform="matrix(0.9236 -0.3833 0.3833 0.9236 -97.9343 100.1143)" class="st10" cx="202.2" cy="295.8" rx="38.6" ry="13.4"/>
</g>
<circle class="st1" cx="161.8" cy="315.6" r="26.9"/>
<circle class="st11" cx="161.8" cy="315.6" r="15.1"/>
<g>
	
		<ellipse transform="matrix(0.9994 -3.518173e-02 3.518173e-02 0.9994 -8.9348 17.5106)" class="st9" cx="493.1" cy="262.6" rx="18.5" ry="53.8"/>
	
		<ellipse transform="matrix(0.6817 -0.7316 0.7316 0.6817 -61.989 420.4952)" class="st9" cx="452.3" cy="281.5" rx="18.5" ry="53.8"/>
	
		<ellipse transform="matrix(0.9994 -3.546078e-02 3.546078e-02 0.9994 -11.1597 15.6958)" class="st9" cx="436.9" cy="322.5" rx="53.8" ry="18.5"/>
	
		<ellipse transform="matrix(0.6817 -0.7316 0.7316 0.6817 -121.1343 449.5879)" class="st9" cx="456.1" cy="364" rx="53.8" ry="18.5"/>
	
		<ellipse transform="matrix(0.9994 -3.518173e-02 3.518173e-02 0.9994 -13.0578 17.7484)" class="st9" cx="497.8" cy="379.9" rx="18.5" ry="53.8"/>
	
		<ellipse transform="matrix(0.6817 -0.7316 0.7316 0.6817 -92.3331 507.6904)" class="st9" cx="537.3" cy="360" rx="18.5" ry="53.8"/>
	
		<ellipse transform="matrix(0.9994 -3.546078e-02 3.546078e-02 0.9994 -10.9822 19.7986)" class="st9" cx="552.7" cy="319.5" rx="53.8" ry="18.5"/>
	
		<ellipse transform="matrix(0.6817 -0.7316 0.7316 0.6817 -33.916 480.0052)" class="st9" cx="534.7" cy="279" rx="53.8" ry="18.5"/>
</g>
<g>
	
		<ellipse transform="matrix(0.3822 -0.9241 0.9241 0.3822 56.7596 643.9984)" class="st10" cx="510" cy="279.6" rx="38.6" ry="13.4"/>
	
		<ellipse transform="matrix(0.9237 -0.3831 0.3831 0.9237 -71.7702 203.8547)" class="st10" cx="475.9" cy="282.1" rx="13.4" ry="38.6"/>
	
		<ellipse transform="matrix(0.3821 -0.9241 0.9241 0.3821 -3.856 608.0987)" class="st10" cx="452.8" cy="306.9" rx="13.4" ry="38.6"/>
	
		<ellipse transform="matrix(0.9236 -0.3833 0.3833 0.9236 -95.5498 200.5677)" class="st10" cx="455.5" cy="340" rx="38.6" ry="13.4"/>
	
		<ellipse transform="matrix(0.3822 -0.9241 0.9241 0.3822 -38.0129 667.273)" class="st10" cx="480" cy="362.1" rx="38.6" ry="13.4"/>
	
		<ellipse transform="matrix(0.9237 -0.3831 0.3831 0.9237 -99.0295 224.6654)" class="st10" cx="514.5" cy="360.9" rx="13.4" ry="38.6"/>
	
		<ellipse transform="matrix(0.3821 -0.9241 0.9241 0.3821 21.5786 704.2878)" class="st10" cx="537.5" cy="336" rx="13.4" ry="38.6"/>
	
		<ellipse transform="matrix(0.9236 -0.3833 0.3833 0.9236 -74.6864 227.8395)" class="st10" cx="534.4" cy="301.3" rx="38.6" ry="13.4"/>
</g>
<circle class="st1" cx="495.2" cy="320.4" r="26.9"/>
<circle class="st11" cx="495.2" cy="320.4" r="15.1"/>
<g>
	
		<ellipse transform="matrix(0.9994 -3.518173e-02 3.518173e-02 0.9994 -12.4888 15.3684)" class="st12" cx="430.4" cy="362.6" rx="13.4" ry="38.6"/>
	
		<ellipse transform="matrix(0.6817 -0.7316 0.7316 0.6817 -148.0919 413.1805)" class="st12" cx="400.8" cy="376.8" rx="13.4" ry="38.6"/>
	
		<ellipse transform="matrix(0.9994 -3.540223e-02 3.540223e-02 0.9994 -14.1449 14.0364)" class="st12" cx="389.3" cy="406.4" rx="38.6" ry="13.4"/>
	
		<ellipse transform="matrix(0.6817 -0.7316 0.7316 0.6817 -191.0226 433.99)" class="st12" cx="403.3" cy="436.5" rx="38.6" ry="13.4"/>
	
		<ellipse transform="matrix(0.9994 -3.518179e-02 3.518179e-02 0.9994 -15.5022 15.5424)" class="st12" cx="433.9" cy="448.3" rx="13.4" ry="38.6"/>
	
		<ellipse transform="matrix(0.6817 -0.7316 0.7316 0.6817 -170.2316 476.6136)" class="st12" cx="462.6" cy="433.9" rx="13.4" ry="38.6"/>
	
		<ellipse transform="matrix(0.9994 -3.546078e-02 3.546078e-02 0.9994 -14.0572 17.047)" class="st12" cx="473.5" cy="404.8" rx="38.6" ry="13.4"/>
	
		<ellipse transform="matrix(0.6817 -0.7316 0.7316 0.6817 -127.6049 456.2123)" class="st12" cx="460.5" cy="374.8" rx="38.6" ry="13.4"/>
</g>
<g>
	
		<ellipse transform="matrix(0.3822 -0.9241 0.9241 0.3822 -69.9353 638.6804)" class="st0" cx="442.7" cy="371.6" rx="29.3" ry="10.3"/>
	
		<ellipse transform="matrix(0.9237 -0.3832 0.3832 0.9237 -111.3965 188.4222)" class="st0" cx="417.2" cy="373.8" rx="10.3" ry="29.3"/>
	
		<ellipse transform="matrix(0.3821 -0.9241 0.9241 0.3821 -114.6577 613.2883)" class="st0" cx="401.3" cy="392.4" rx="10.3" ry="29.3"/>
	
		<ellipse transform="matrix(0.9236 -0.3833 0.3833 0.9236 -129.6393 186.2815)" class="st0" cx="402.6" cy="418.4" rx="29.3" ry="10.3"/>
	
		<ellipse transform="matrix(0.3822 -0.9241 0.9241 0.3822 -142.2513 657.754)" class="st0" cx="420.8" cy="435.3" rx="29.3" ry="10.3"/>
	
		<ellipse transform="matrix(0.9237 -0.3831 0.3831 0.9237 -131.7234 203.9229)" class="st0" cx="446.1" cy="432.7" rx="10.3" ry="29.3"/>
	
		<ellipse transform="matrix(0.3821 -0.9241 0.9241 0.3821 -97.9223 684.0202)" class="st0" cx="462.5" cy="415.2" rx="10.3" ry="29.3"/>
	
		<ellipse transform="matrix(0.9236 -0.3833 0.3833 0.9236 -114.0806 206.6146)" class="st0" cx="461.4" cy="389.6" rx="29.3" ry="10.3"/>
</g>
<circle class="st13" cx="431.8" cy="405.8" r="18.5"/>
<circle class="st11" cx="431.8" cy="405.8" r="11.8"/>
<g>
	
		<ellipse transform="matrix(0.9994 -3.518173e-02 3.518173e-02 0.9994 -9.1792 11.3464)" class="st13" cx="317.8" cy="266.5" rx="16.8" ry="48.7"/>
	
		<ellipse transform="matrix(0.6817 -0.7316 0.7316 0.6817 -119.2294 296.1382)" class="st13" cx="280.7" cy="285.1" rx="16.8" ry="48.7"/>
	
		<ellipse transform="matrix(0.9994 -3.546078e-02 3.546078e-02 0.9994 -11.2544 9.6712)" class="st13" cx="267" cy="322.1" rx="48.7" ry="16.8"/>
	
		<ellipse transform="matrix(0.6818 -0.7316 0.7316 0.6818 -172.8613 322.2062)" class="st13" cx="283.9" cy="359.8" rx="48.7" ry="16.8"/>
	
		<ellipse transform="matrix(0.9994 -3.518173e-02 3.518173e-02 0.9994 -13.0215 11.5579)" class="st13" cx="321.9" cy="375.8" rx="16.8" ry="48.7"/>
	
		<ellipse transform="matrix(0.6817 -0.7316 0.7316 0.6817 -147.7361 377.1499)" class="st13" cx="359.6" cy="358.4" rx="16.8" ry="48.7"/>
	
		<ellipse transform="matrix(0.9994 -3.546078e-02 3.546078e-02 0.9994 -11.1082 13.4857)" class="st13" cx="374.6" cy="319.9" rx="48.7" ry="16.8"/>
	
		<ellipse transform="matrix(0.6817 -0.7316 0.7316 0.6817 -91.8346 350.7617)" class="st13" cx="357.2" cy="280.9" rx="48.7" ry="16.8"/>
</g>
<g>
	
		<ellipse transform="matrix(0.3822 -0.9241 0.9241 0.3822 -56.6119 486.6925)" class="st14" cx="335.7" cy="285.7" rx="34.6" ry="13.2"/>
	
		<ellipse transform="matrix(0.9237 -0.3832 0.3832 0.9237 -87.1125 139.1487)" class="st14" cx="305.7" cy="288.2" rx="13.2" ry="34.6"/>
	
		<ellipse transform="matrix(0.3821 -0.9241 0.9241 0.3821 -111.9453 455.0554)" class="st14" cx="284.3" cy="311.2" rx="13.2" ry="34.6"/>
	
		<ellipse transform="matrix(0.9237 -0.3832 0.3832 0.9237 -108.9978 135.4766)" class="st14" cx="285.5" cy="341.3" rx="34.6" ry="13.2"/>
	
		<ellipse transform="matrix(0.3823 -0.924 0.924 0.3823 -142.9801 509.3261)" class="st14" cx="309.5" cy="361.6" rx="34.6" ry="13.2"/>
	
		<ellipse transform="matrix(0.9237 -0.3831 0.3831 0.9237 -112.0854 158.0501)" class="st14" cx="340.7" cy="360.4" rx="13.2" ry="34.6"/>
	
		<ellipse transform="matrix(0.3821 -0.9241 0.9241 0.3821 -89.3853 541.3545)" class="st14" cx="360.1" cy="337.5" rx="13.2" ry="34.6"/>
	
		<ellipse transform="matrix(0.9236 -0.3833 0.3833 0.9236 -90.0554 160.4617)" class="st14" cx="357.6" cy="306.2" rx="34.6" ry="13.2"/>
</g>
<circle class="st10" cx="320.5" cy="320" r="21.8"/>
<g>
	<circle class="st1" cx="320.5" cy="320" r="15.1"/>
	
		<ellipse transform="matrix(0.9994 -3.518173e-02 3.518173e-02 0.9994 -5.5039 13.3724)" class="st1" cx="377.2" cy="163.1" rx="18.5" ry="53.8"/>
	
		<ellipse transform="matrix(0.6817 -0.7316 0.7316 0.6817 -25.9404 304.2722)" class="st1" cx="336.7" cy="181.9" rx="18.5" ry="53.8"/>
	
		<ellipse transform="matrix(0.9994 -3.540230e-02 3.540230e-02 0.9994 -7.6816 11.5233)" class="st1" cx="321.6" cy="222.7" rx="53.8" ry="18.5"/>
	
		<ellipse transform="matrix(0.6817 -0.7316 0.7316 0.6817 -84.1471 332.1155)" class="st1" cx="339.6" cy="262.8" rx="53.8" ry="18.5"/>
	
		<ellipse transform="matrix(0.9994 -3.518173e-02 3.518173e-02 0.9994 -9.6009 13.6237)" class="st1" cx="382.3" cy="279.6" rx="18.5" ry="53.8"/>
	
		<ellipse transform="matrix(0.6817 -0.7316 0.7316 0.6817 -56.273 392.2877)" class="st1" cx="422.7" cy="260.8" rx="18.5" ry="53.8"/>
	
		<ellipse transform="matrix(0.9994 -3.546078e-02 3.546078e-02 0.9994 -7.4987 15.6778)" class="st1" cx="438.2" cy="219.2" rx="53.8" ry="18.5"/>
	
		<ellipse transform="matrix(0.6817 -0.7316 0.7316 0.6817 2.1688 363.3013)" class="st1" cx="418.6" cy="179.2" rx="53.8" ry="18.5"/>
</g>
<g>
	
		<ellipse transform="matrix(0.3822 -0.9241 0.9241 0.3822 77.2239 475.2124)" class="st15" cx="394" cy="179.9" rx="38.6" ry="13.4"/>
	
		<ellipse transform="matrix(0.9237 -0.3831 0.3831 0.9237 -41.9354 151.5593)" class="st15" cx="359.5" cy="181.1" rx="13.4" ry="38.6"/>
	
		<ellipse transform="matrix(0.3821 -0.9241 0.9241 0.3821 16.9161 439.8404)" class="st15" cx="337.4" cy="207.3" rx="13.4" ry="38.6"/>
	
		<ellipse transform="matrix(0.9236 -0.3833 0.3833 0.9236 -66.0666 148.7637)" class="st15" cx="340.3" cy="240.2" rx="38.6" ry="13.4"/>
	
		<ellipse transform="matrix(0.3822 -0.9241 0.9241 0.3822 -18.4493 499.1303)" class="st15" cx="364.1" cy="263.4" rx="38.6" ry="13.4"/>
	
		<ellipse transform="matrix(0.9237 -0.3831 0.3831 0.9237 -69.3808 172.7143)" class="st15" cx="398.9" cy="260.5" rx="13.4" ry="38.6"/>
	
		<ellipse transform="matrix(0.3821 -0.9241 0.9241 0.3821 42.5598 535.1561)" class="st15" cx="421.5" cy="235.8" rx="13.4" ry="38.6"/>
	
		<ellipse transform="matrix(0.9236 -0.3833 0.3833 0.9236 -45.7936 176.0418)" class="st15" cx="418.8" cy="202.9" rx="38.6" ry="13.4"/>
</g>
<circle class="st9" cx="379.6" cy="220.9" r="25.2"/>
<circle class="st11" cx="379.6" cy="220.9" r="15.1"/>
<g>
	
		<ellipse transform="matrix(0.9994 -3.518173e-02 3.518173e-02 0.9994 -4.3344 10.0985)" class="st12" cx="284.8" cy="128.2" rx="15.1" ry="43.7"/>
	
		<ellipse transform="matrix(0.6817 -0.7316 0.7316 0.6817 -25.0656 229.7765)" class="st12" cx="251.5" cy="143.7" rx="15.1" ry="43.7"/>
	
		<ellipse transform="matrix(0.9994 -3.540230e-02 3.540230e-02 0.9994 -6.1843 8.556)" class="st12" cx="238.5" cy="178.9" rx="43.7" ry="15.1"/>
	
		<ellipse transform="matrix(0.6817 -0.7316 0.7316 0.6817 -74.5522 253.4155)" class="st12" cx="254" cy="212.4" rx="43.7" ry="15.1"/>
	
		<ellipse transform="matrix(0.9994 -3.518173e-02 3.518173e-02 0.9994 -7.8147 10.3265)" class="st12" cx="289.5" cy="227.2" rx="15.1" ry="43.7"/>
	
		<ellipse transform="matrix(0.6817 -0.7316 0.7316 0.6817 -51.3367 302.8834)" class="st12" cx="322.4" cy="210.4" rx="15.1" ry="43.7"/>
	
		<ellipse transform="matrix(0.9994 -3.546078e-02 3.546078e-02 0.9994 -6.0324 12.021)" class="st12" cx="335.9" cy="176.1" rx="43.7" ry="15.1"/>
	
		<ellipse transform="matrix(0.6817 -0.7316 0.7316 0.6817 -1.4779 279.7757)" class="st12" cx="320.8" cy="141.6" rx="43.7" ry="15.1"/>
</g>
<g>
	
		<ellipse transform="matrix(0.3822 -0.9241 0.9241 0.3822 53.0905 365.0127)" class="st0" cx="299.5" cy="142.8" rx="31.9" ry="11.8"/>
	
		<ellipse transform="matrix(0.9237 -0.3831 0.3831 0.9237 -34.383 114.7567)" class="st0" cx="270.9" cy="143.7" rx="11.8" ry="31.9"/>
	
		<ellipse transform="matrix(0.3821 -0.9241 0.9241 0.3821 2.1948 334.6888)" class="st0" cx="251.4" cy="165.7" rx="11.8" ry="31.9"/>
	
		<ellipse transform="matrix(0.9236 -0.3833 0.3833 0.9236 -54.8462 111.8179)" class="st0" cx="253.2" cy="193.5" rx="31.9" ry="11.8"/>
	
		<ellipse transform="matrix(0.3822 -0.9241 0.9241 0.3822 -26.5697 385.045)" class="st0" cx="274.7" cy="212.4" rx="31.9" ry="11.8"/>
	
		<ellipse transform="matrix(0.9237 -0.3831 0.3831 0.9237 -57.541 131.9643)" class="st0" cx="302.5" cy="210.4" rx="11.8" ry="31.9"/>
	
		<ellipse transform="matrix(0.3821 -0.9241 0.9241 0.3821 24.5032 415.7265)" class="st0" cx="323.1" cy="189.5" rx="11.8" ry="31.9"/>
	
		<ellipse transform="matrix(0.9236 -0.3833 0.3833 0.9236 -37.6046 134.9788)" class="st0" cx="319.9" cy="161.8" rx="31.9" ry="11.8"/>
</g>
<ellipse transform="matrix(0.7897 -0.6135 0.6135 0.7897 -48.9345 213.4057)" class="st13" cx="286.8" cy="178.1" rx="20.2" ry="20.2"/>
<ellipse transform="matrix(0.7897 -0.6135 0.6135 0.7897 -48.9345 213.4057)" class="st11" cx="286.8" cy="178.1" rx="13.4" ry="13.4"/>
<g>
	
		<ellipse transform="matrix(0.9994 -3.518173e-02 3.518173e-02 0.9994 -4.3406 17.8994)" class="st13" cx="506.4" cy="132.3" rx="13.4" ry="38.6"/>
	
		<ellipse transform="matrix(0.6817 -0.7316 0.7316 0.6817 46.2572 395.564)" class="st13" cx="477.7" cy="144.6" rx="13.4" ry="38.6"/>
	
		<ellipse transform="matrix(0.9994 -3.540230e-02 3.540230e-02 0.9994 -5.8932 16.6116)" class="st13" cx="466.1" cy="174.7" rx="38.6" ry="13.4"/>
	
		<ellipse transform="matrix(0.6817 -0.7316 0.7316 0.6817 3.0605 416.5571)" class="st13" cx="480.3" cy="204.8" rx="38.6" ry="13.4"/>
	
		<ellipse transform="matrix(0.9994 -3.518173e-02 3.518173e-02 0.9994 -7.2894 18.1006)" class="st13" cx="510.7" cy="216.2" rx="13.4" ry="38.6"/>
	
		<ellipse transform="matrix(0.6817 -0.7316 0.7316 0.6817 23.5877 458.6977)" class="st13" cx="539" cy="202.2" rx="13.4" ry="38.6"/>
	
		<ellipse transform="matrix(0.9994 -3.546078e-02 3.546078e-02 0.9994 -5.7595 19.6164)" class="st13" cx="550.1" cy="172.2" rx="38.6" ry="13.4"/>
	
		<ellipse transform="matrix(0.6817 -0.7316 0.7316 0.6817 66.2365 439.3703)" class="st13" cx="538.1" cy="143.6" rx="38.6" ry="13.4"/>
</g>
<g>
	
		<ellipse transform="matrix(0.3822 -0.9241 0.9241 0.3822 187.5781 569.064)" class="st14" cx="519.4" cy="144.2" rx="28.6" ry="10.1"/>
	
		<ellipse transform="matrix(0.9237 -0.3832 0.3832 0.9237 -17.5069 200.631)" class="st14" cx="494.8" cy="144.3" rx="10.1" ry="28.6"/>
	
		<ellipse transform="matrix(0.3821 -0.9241 0.9241 0.3821 145.6376 542.9031)" class="st14" cx="478.8" cy="162.5" rx="10.1" ry="28.6"/>
	
		<ellipse transform="matrix(0.9236 -0.3833 0.3833 0.9236 -35.4739 198.4306)" class="st14" cx="480.2" cy="188.2" rx="28.6" ry="10.1"/>
	
		<ellipse transform="matrix(0.3822 -0.9241 0.9241 0.3822 118.6818 586.5095)" class="st14" cx="498" cy="204.5" rx="28.6" ry="10.1"/>
	
		<ellipse transform="matrix(0.9237 -0.3832 0.3832 0.9237 -37.5525 215.5297)" class="st14" cx="522.2" cy="202" rx="10.1" ry="28.6"/>
	
		<ellipse transform="matrix(0.3821 -0.9241 0.9241 0.3821 162.9549 611.7272)" class="st14" cx="538.9" cy="184" rx="10.1" ry="28.6"/>
	
		<ellipse transform="matrix(0.9236 -0.3833 0.3833 0.9236 -20.0219 218.0436)" class="st14" cx="537.1" cy="159.3" rx="28.6" ry="10.1"/>
</g>
<ellipse transform="matrix(0.7897 -0.6135 0.6135 0.7897 0.4837 348.7047)" class="st10" cx="508.9" cy="173.6" rx="16.8" ry="16.8"/>
<ellipse transform="matrix(0.7897 -0.6135 0.6135 0.7897 0.4837 348.7047)" class="st1" cx="508.9" cy="173.6" rx="11.8" ry="11.8"/>
<g>
	
		<ellipse transform="matrix(0.9994 -3.518173e-02 3.518173e-02 0.9994 -4.0415 4.8311)" class="st13" cx="135.3" cy="117.3" rx="21.8" ry="62.2"/>
	
		<ellipse transform="matrix(0.6817 -0.7316 0.7316 0.6817 -74.6127 108.1791)" class="st13" cx="87" cy="139.8" rx="21.8" ry="62.2"/>
	
		<ellipse transform="matrix(0.9994 -3.540230e-02 3.540230e-02 0.9994 -6.6154 2.5462)" class="st13" cx="68.6" cy="188.1" rx="62.2" ry="21.8"/>
	
		<ellipse transform="matrix(0.6817 -0.7316 0.7316 0.6817 -143.2096 141.2636)" class="st13" cx="90.7" cy="235.2" rx="62.2" ry="21.8"/>
	
		<ellipse transform="matrix(0.9994 -3.518173e-02 3.518173e-02 0.9994 -8.8758 5.0853)" class="st13" cx="140.1" cy="254.8" rx="21.8" ry="62.2"/>
	
		<ellipse transform="matrix(0.6817 -0.7316 0.7316 0.6817 -111.2486 211.7198)" class="st13" cx="187.7" cy="233.7" rx="21.8" ry="62.2"/>
	
		<ellipse transform="matrix(0.9994 -3.546082e-02 3.546082e-02 0.9994 -6.369 7.424)" class="st13" cx="206.1" cy="183.3" rx="62.2" ry="21.8"/>
	
		<ellipse transform="matrix(0.6817 -0.7316 0.7316 0.6817 -40.9438 177.4462)" class="st13" cx="183.5" cy="135.8" rx="62.2" ry="21.8"/>
</g>
<g>
	
		<ellipse transform="matrix(0.3822 -0.9241 0.9241 0.3822 -30.2349 227.2043)" class="st14" cx="154.8" cy="136.2" rx="45.4" ry="16.8"/>
	
		<ellipse transform="matrix(0.9237 -0.3831 0.3831 0.9237 -44.7444 54.4151)" class="st14" cx="114.2" cy="139.5" rx="16.8" ry="45.4"/>
	
		<ellipse transform="matrix(0.3821 -0.9241 0.9241 0.3821 -101.5214 185.6939)" class="st14" cx="88.1" cy="168.8" rx="16.8" ry="45.4"/>
	
		<ellipse transform="matrix(0.9236 -0.3833 0.3833 0.9236 -72.6675 50.7075)" class="st14" cx="90.9" cy="207.7" rx="45.4" ry="16.8"/>
	
		<ellipse transform="matrix(0.3823 -0.924 0.924 0.3823 -142.8592 256.2365)" class="st14" cx="120.2" cy="235" rx="45.4" ry="16.8"/>
	
		<ellipse transform="matrix(0.9237 -0.3831 0.3831 0.9237 -77.0415 79.5668)" class="st14" cx="161.2" cy="233.2" rx="16.8" ry="45.4"/>
	
		<ellipse transform="matrix(0.3821 -0.9241 0.9241 0.3821 -72.4429 298.3549)" class="st14" cx="186.9" cy="203.3" rx="16.8" ry="45.4"/>
	
		<ellipse transform="matrix(0.9236 -0.3833 0.3833 0.9236 -48.3833 82.8418)" class="st14" cx="183.7" cy="162.8" rx="45.4" ry="16.8"/>
</g>
<circle class="st10" cx="137.4" cy="185.7" r="28.6"/>
<g>
	
		<ellipse transform="matrix(0.3823 -0.924 0.924 0.3823 -175.4496 490.2487)" class="st15" cx="279" cy="376.4" rx="31.9" ry="11.8"/>
	
		<ellipse transform="matrix(0.9237 -0.3832 0.3832 0.9237 -125.8202 124.9742)" class="st15" cx="250.8" cy="378.3" rx="11.8" ry="31.9"/>
	
		<ellipse transform="matrix(0.3821 -0.9241 0.9241 0.3821 -224.4658 461.6588)" class="st15" cx="233" cy="398.7" rx="11.8" ry="31.9"/>
	
		<ellipse transform="matrix(0.9237 -0.3832 0.3832 0.9237 -145.3009 122.0643)" class="st15" cx="233.7" cy="425.7" rx="31.9" ry="11.8"/>
	
		<ellipse transform="matrix(0.3822 -0.9241 0.9241 0.3822 -253.7872 509.48)" class="st15" cx="254.1" cy="444.5" rx="31.9" ry="11.8"/>
	
		<ellipse transform="matrix(0.9237 -0.3831 0.3831 0.9237 -147.7523 141.8984)" class="st15" cx="282.4" cy="441.9" rx="11.8" ry="31.9"/>
	
		<ellipse transform="matrix(0.3821 -0.9241 0.9241 0.3821 -203.7805 537.7877)" class="st15" cx="300.3" cy="421.3" rx="11.8" ry="31.9"/>
	
		<ellipse transform="matrix(0.9237 -0.3832 0.3832 0.9237 -128.5087 144.9134)" class="st15" cx="299.5" cy="395" rx="31.9" ry="11.8"/>
</g>
<circle class="st9" cx="263.1" cy="408.5" r="20.7"/>
<circle class="st11" cx="267.2" cy="410.3" r="13.4"/>
</svg>
