<?xml version="1.0" encoding="utf-8"?>
<!-- Generator: Adobe Illustrator 22.0.1, SVG Export Plug-In . SVG Version: 6.00 Build 0)  -->
<svg version="1.1" id="Capa_1" xmlns="http://www.w3.org/2000/svg" xmlns:xlink="http://www.w3.org/1999/xlink" x="0px" y="0px"
	 viewBox="0 0 512 512" style="enable-background:new 0 0 512 512;" xml:space="preserve">
<style type="text/css">
	.st0{fill:#0059A9;}
</style>
<g>
	<g>
		<g>
			<circle class="st0" cx="140.5" cy="196.8" r="7"/>
			<path class="st0" d="M329.5,79.9c0.8,0.3,1.6,0.4,2.3,0.4c3.2,0,6.1-2,7.1-5.2c1.8-5.6,4-9,6.3-12.6c2.4-3.8,4.9-7.8,6.4-13.6
				c1-4-1.5-8.1-5.5-9.1c-4-1-8.1,1.5-9.1,5.5c-0.9,3.5-2.4,5.9-4.5,9.2c-2.4,3.8-5.4,8.5-7.9,16C323.4,74.4,325.6,78.7,329.5,79.9z
				"/>
			<path class="st0" d="M504.5,273.1c4.1,0,7.5-3.4,7.5-7.5v-12.6c0-14.6-11.9-26.6-26.6-26.6h-50.3v-47.1c3.4-0.9,6.6-2.3,9.5-4.2
				c7-4.6,11.2-12.4,11.2-21v-42.7c0-12.3-10-22.3-22.3-22.3h-40.2c1.1-11.4-2.2-24.9-9.8-39.1c-8.6-16.2-21.6-31.2-34.7-40
				c-3.6-2.4-8-3.1-12.1-1.9c-4,1.2-7.3,4.1-8.9,7.9c-2.3,5.3-9.5,11.7-17.2,18.4c-14.8,13-34.4,30.1-32,54.6h-45.4
				c0.9-9.5-0.9-23.5-11.3-41.8c-2-3.6-6.6-4.9-10.2-2.8c-3.6,2-4.9,6.6-2.8,10.2c7.3,12.9,10.6,25.3,9.2,34.4h-84.5
				c-2.3-16.2,9.8-28.4,26.8-43.3c8.6-7.6,16.8-14.8,20.6-22.8c4.1,2.8,8.3,6.5,12.4,10.8c2.8,3,7.6,3.1,10.6,0.3
				c3-2.8,3.1-7.6,0.3-10.6c-5.1-5.4-10.3-9.9-15.6-13.4c-3.6-2.4-8-3.1-12.1-1.9c-4,1.2-7.3,4.1-8.9,7.9
				c-2.3,5.3-9.5,11.7-17.2,18.4c-14.8,13-34.4,30.1-32,54.6H78.4c-12.3,0-22.3,10-22.3,22.3v42.7c0,8.5,4.2,16.4,11.2,21
				c2.9,1.9,6.1,3.3,9.5,4.2v47.1H26.6C11.9,226.3,0,238.3,0,252.9v55.2c0,10.3,5,19.7,13.5,25.3c1.6,1.1,3.3,2,5.1,2.8v42.2
				c0,4.1,3.4,7.5,7.5,7.5s7.5-3.4,7.5-7.5v-38.7c3.6,0.1,7.2-0.2,10.8-1c10.6-2.5,19.4-9.1,24.9-18.6c4.4-7.6,12.3-12.2,21.1-12.2
				s16.7,4.6,21.1,12.2c7.1,12.3,19.9,19.7,34.1,19.7c14.2,0,27-7.4,34.1-19.7c4.4-7.6,12.3-12.2,21.1-12.2s16.7,4.6,21.1,12.2
				c7.1,12.3,19.9,19.7,34.1,19.7s27-7.4,34.1-19.7c4.4-7.6,12.3-12.2,21.1-12.2c8.8,0,16.7,4.6,21.1,12.2
				c7.1,12.3,19.9,19.7,34.1,19.7c14.2,0,27-7.4,34.1-19.7c4.4-7.6,12.3-12.2,21.1-12.2c8.8,0,16.7,4.6,21.1,12.2
				c5.5,9.5,14.3,16.1,24.9,18.6c3.5,0.8,7.2,1.2,10.8,1v97.7H33.6v-25.1c0-4.1-3.4-7.5-7.5-7.5s-7.5,3.4-7.5,7.5v51.1
				c0,22.5,18.3,40.9,40.9,40.9h393.1c22.5,0,40.9-18.3,40.9-40.9V336.2c1.8-0.8,3.5-1.7,5.1-2.8c8.4-5.5,13.5-15,13.5-25.3v-9.8
				c0-4.1-3.4-7.5-7.5-7.5s-7.5,3.4-7.5,7.5v9.8c0,5.2-2.5,10-6.7,12.7c-2,1.3-4.2,2.3-6.5,3c0,0-0.1,0-0.1,0
				c-4,1.1-8.3,1.3-12.5,0.3c-6.5-1.5-12-5.6-15.4-11.5c-7.1-12.3-19.9-19.7-34.1-19.7c-14.2,0-27,7.4-34.1,19.7
				c-4.4,7.6-12.3,12.2-21.1,12.2s-16.7-4.6-21.1-12.2c-7.1-12.3-19.9-19.7-34.1-19.7c-14.2,0-27,7.4-34.1,19.7
				c-4.4,7.6-12.3,12.2-21.1,12.2s-16.7-4.6-21.1-12.2c-7.1-12.3-19.9-19.7-34.1-19.7c0,0,0,0,0,0c-14.2,0-27,7.4-34.1,19.7
				c-4.4,7.6-12.3,12.2-21.1,12.2s-16.7-4.6-21.1-12.2c-7.1-12.3-19.9-19.7-34.1-19.7s-27,7.4-34.1,19.7c-3.4,5.9-8.9,10-15.4,11.5
				c-4.2,1-8.5,0.9-12.5-0.3c0,0-0.1,0-0.1,0c-2.3-0.7-4.5-1.7-6.6-3c-4.2-2.8-6.7-7.5-6.7-12.7v-55.2c0-6.4,5.2-11.6,11.6-11.6
				h458.9c6.4,0,11.6,5.2,11.6,11.6v12.6C497,269.7,500.4,273.1,504.5,273.1z M478.4,463.5L478.4,463.5c0,14.3-11.6,25.9-25.9,25.9
				H59.5c-14.3,0-25.9-11.6-25.9-25.9v-11h444.8V463.5z M320.6,45.8c8.6-7.6,16.8-14.8,20.6-22.8c10.8,7.5,21.9,20.5,29.1,34.1
				c6.5,12.2,9.2,23.5,7.9,32h-84.5C291.5,72.9,303.6,60.7,320.6,45.8z M91.8,226.3v-46.8c0.2-0.1,0.5-0.1,0.7-0.1
				c8.6-2.1,15.9-7.5,20.3-15.2c3.1-5.4,8.7-8.6,14.9-8.6c6.2,0,11.8,3.2,14.9,8.6c5.8,10.1,16.2,16.1,27.9,16.1s22.1-6,27.9-16.1
				c3.1-5.4,8.7-8.6,14.9-8.6c6.2,0,11.8,3.2,14.9,8.6c5.8,10.1,16.2,16.1,27.9,16.1s22.1-6,27.9-16.1c3.1-5.4,8.7-8.6,14.9-8.6
				c6.2,0,11.8,3.2,14.9,8.6c5.8,10.1,16.2,16.1,27.9,16.1c11.6,0,22.1-6,27.9-16.1c3.1-5.4,8.7-8.6,14.9-8.6
				c6.2,0,11.8,3.2,14.9,8.6c4.5,7.8,11.7,13.2,20.3,15.2c0.2,0.1,0.5,0.1,0.7,0.1v46.8L91.8,226.3L91.8,226.3z M422.9,164.8
				c-4.6-1.1-8.4-4-10.8-8.1c-5.8-10.1-16.2-16.1-27.9-16.1c-11.6,0-22.1,6-27.9,16.1c-3.1,5.4-8.7,8.6-14.9,8.6s-11.8-3.2-14.9-8.6
				c-5.8-10.1-16.2-16.1-27.9-16.1s-22.1,6-27.9,16.1c-3.1,5.4-8.7,8.6-14.9,8.6c-6.2,0-11.8-3.2-14.9-8.6
				c-5.8-10.1-16.2-16.1-27.9-16.1c-11.6,0-22.1,6-27.9,16.1c-3.1,5.4-8.7,8.6-14.9,8.6c-6.2,0-11.8-3.2-14.9-8.6
				c-5.8-10.1-16.2-16.1-27.9-16.1s-22.1,6-27.9,16.1c-2.4,4.1-6.2,7-10.8,8.1c-4.7,1.1-9.6,0.3-13.5-2.3c-2.8-1.8-4.4-5-4.4-8.4
				v-42.7c0-4,3.3-7.3,7.3-7.3h49.3c0,0,0,0,0,0c0,0,0,0,0,0h96.1c0,0,0,0,0,0c0,0,0,0,0,0h63.9c0,0,0,0,0,0c0,0,0,0,0,0h96.3
				c0,0,0,0,0,0h49.4c4,0,7.3,3.3,7.3,7.3v42.7c0,3.5-1.7,6.6-4.4,8.4C432.5,165.1,427.6,165.9,422.9,164.8z"/>
			<circle class="st0" cx="426.1" cy="356" r="7"/>
			<circle class="st0" cx="459.1" cy="403.3" r="7"/>
			<path class="st0" d="M177,45.3c-0.9,3.5-2.4,5.9-4.5,9.2c-2.4,3.8-5.4,8.5-7.9,16c-1.3,3.9,0.9,8.2,4.8,9.5
				c0.8,0.3,1.6,0.4,2.3,0.4c3.2,0,6.1-2,7.1-5.2c1.8-5.6,4-9,6.3-12.6c2.4-3.8,4.9-7.8,6.4-13.6c1-4-1.5-8.1-5.5-9.1
				C182.1,38.8,178,41.3,177,45.3z"/>
			<path class="st0" d="M191.5,386.8v-12c0-4.1-3.4-7.5-7.5-7.5s-7.5,3.4-7.5,7.5v12c0,4.1,3.4,7.5,7.5,7.5S191.5,391,191.5,386.8z"
				/>
			<circle class="st0" cx="72.3" cy="410.2" r="7"/>
			<path class="st0" d="M256,403.5c9.4,0,18.4-4.1,24.6-11.2c2.7-3.1,2.4-7.9-0.7-10.6c-3.1-2.7-7.9-2.4-10.6,0.7
				c-3.4,3.9-8.2,6.1-13.3,6.1s-10-2.2-13.3-6.1c-2.7-3.1-7.5-3.4-10.6-0.7c-3.1,2.7-3.4,7.5-0.7,10.6
				C237.6,399.4,246.6,403.5,256,403.5z"/>
			<path class="st0" d="M335.5,386.8v-12c0-4.1-3.4-7.5-7.5-7.5s-7.5,3.4-7.5,7.5v12c0,4.1,3.4,7.5,7.5,7.5S335.5,391,335.5,386.8z"
				/>
		</g>
	</g>
</g>
</svg>
