<?xml version="1.0" encoding="utf-8"?>
<!-- Generator: Adobe Illustrator 22.0.1, SVG Export Plug-In . SVG Version: 6.00 Build 0)  -->
<svg version="1.1" id="Capa_1" xmlns="http://www.w3.org/2000/svg" xmlns:xlink="http://www.w3.org/1999/xlink" x="0px" y="0px"
	 viewBox="0 0 512 512" style="enable-background:new 0 0 512 512;" xml:space="preserve">
<style type="text/css">
	.st0{fill:#0059A9;}
</style>
<g>
	<path class="st0" d="M327.7,161.2c-2.8,0-5,2.2-5,5v5.2c0,2.8,2.2,5,5,5s5-2.2,5-5v-5.2C332.7,163.4,330.5,161.2,327.7,161.2z"/>
	<path class="st0" d="M500.6,234c-1.6-9.2-11.9-15.1-31.6-17.9c-15.5-2.2-32.5-2-41.3-1.7h-1.1l-0.8-0.7c-4.4-4.2-11.3-6.5-20.3-7
		c-4.1-0.2-8.2,1.3-11.2,4.2s-4.7,6.7-4.7,10.8c-0.1,21.7-6.7,38.2-19.8,49.2c-12.5,10.4-28.4,13.3-38.3,12.6l-2.3-0.2V254
		c0-8-6-14.7-14-15.5l-3.1-0.3l1-3c3.5-10.9,7.8-21.5,11.9-29.2c2.4-4.6,7.1-7.5,12.3-7.5h32.8c2.5,0,4.9,0.4,7.2,1.3l6.9,2.6
		c3.5,1.3,7.4,0.6,10.2-1.8c2.8-2.4,4.1-6.2,3.3-9.8l-1.9-8.7c-2.3-10.5-10-19.1-20.2-22.4l-8.8-3c-1.7-0.6-3.2-1.7-4.2-3.2l-1.4-2
		c-3.4-5-9.1-8-15.1-8h-29.3c-10.9,0-26.3-0.6-34.7-5.7c-2.6-1.6-5.7-1.8-8.5-0.7c-2.7,1.1-4.8,3.5-5.4,6.4
		c-4.2,17.8,2.4,27.5,8.6,32.5l1.6,1.3l-1,1.8c-5.5,10.1-13.2,26-18.9,44.1L256,231l-2.4-7.6c-5.7-18.1-13.4-33.9-18.9-44.1l-1-1.8
		l1.6-1.3c6.2-5,12.8-14.7,8.6-32.5c-0.7-2.9-2.7-5.3-5.4-6.4c-2.8-1.2-5.9-0.9-8.5,0.7c-8.4,5.1-23.8,5.7-34.7,5.7H166
		c-6.1,0-11.7,3-15.1,8l-1.4,2c-1,1.5-2.5,2.6-4.2,3.2l-8.8,3c-10.1,3.4-17.9,12-20.2,22.4l-1.9,8.7c-0.8,3.6,0.5,7.4,3.3,9.8
		c2.8,2.4,6.7,3.1,10.2,1.8l6.9-2.6c2.3-0.9,4.7-1.3,7.2-1.3h32.8c5.2,0,9.9,2.9,12.3,7.5c4,7.7,8.3,18.3,11.9,29.2l1,3l-3.1,0.3
		c-8,0.8-14,7.4-14,15.5v29.3l-2.3,0.2c-9.8,0.7-25.8-2.1-38.3-12.6c-13.1-11-19.8-27.5-19.8-49.2c0-4.1-1.7-8-4.7-10.8
		s-7.1-4.4-11.2-4.2c-9,0.4-15.8,2.8-20.3,7l-0.8,0.7h-1c-7.2-0.3-14.4-0.3-21.4,0c-1.3,0.1-2.6,0.6-3.5,1.6s-1.4,2.3-1.3,3.6
		c0.1,1.3,0.6,2.6,1.6,3.5s2.2,1.4,3.6,1.3c7.7-0.3,16.3-0.2,24.1,0.2c1.7,0.1,3.4-0.8,4.4-2.2c2.2-3.3,7.6-5.3,15.1-5.6
		c1.9-0.1,3.2,0.9,3.8,1.4c1,1,1.6,2.2,1.6,3.6c0.1,30.9,12.8,47.9,23.4,56.8c11.2,9.4,26.8,15,41.6,15c0.8,0,1.7,0,2.8-0.1l2.6-0.1
		v54.8l-0.5,0.7c-6,8-10.8,9.4-12.6,9.6l-1.6,0.2l-0.9-1.3c-2.5-3.9-4.5-17.8-1.1-36.5c0.4-2.2-0.7-4.3-2.7-5.3s-4.3-0.6-5.9,1
		c-8.7,9.2-20.8,18.4-31.3,24.1c-9.8,5.2-17.8,7.2-21.9,5.3l-1.7-0.8l0.3-1.8c0.6-4.5,7-15.2,19.4-28.3c1.6-1.7,1.8-4.4,0.5-6.3
		c-1.4-1.9-4-2.6-6.1-1.7c-22.5,10.2-48.6,15.1-56,12.4l-1.9-0.7l0.3-2c0.8-5.9,10.7-14.6,25.2-22.1c2.2-1.1,3.2-3.6,2.5-6
		c-0.8-2.3-3.1-3.8-5.5-3.4c-28.3,4.3-45.7-4.2-48.3-9.5l-0.7-1.3l0.9-1.2c1.2-1.7,5.8-6,22.7-10.1c2.4-0.6,4-2.9,3.8-5.3
		c-0.2-2.5-2.3-4.4-4.7-4.5c-21.3-1-28.9-6.6-31.5-9.9c-1.8-2.2-2.4-4.7-1.9-7.5c0.3-2,3-4.1,7.3-5.9c2.6-1,3.8-3.9,2.8-6.5
		c-0.5-1.2-1.4-2.2-2.7-2.7c-1.2-0.5-2.6-0.5-3.8,0c-8,3.2-12.5,7.7-13.5,13.5c-1,5.7,0.4,11,4,15.5c3,3.8,7.5,6.8,13.4,9l4.3,1.6
		l-3.7,2.7c-4.8,3.5-7,7.4-7,11.8c0,2.7,1.1,6.9,6.1,11.1c6.1,5.2,16.4,8.8,28.1,10l5.4,0.6l-3.9,3.7c-7.5,7.2-10.5,14.1-8.9,20.7
		c0.7,3,2.9,5.5,6,7c7.2,3.5,21.9,2.5,40.4-2.8l6.1-1.8l-3.3,5.5c-3.9,6.4-5.8,11.8-5.7,15.9c0.1,3.1,1.3,5.7,3.4,7.6
		c14.8,13.2,45.1-8.8,54.1-15.9l4.2-3.3l-0.1,5.3c-0.2,11.9,1.6,20.7,5.3,25.5c2.6,3.4,5.7,4.3,7.8,4.5c3.7,0.3,7.7-0.7,11.6-3
		l3.6-2.1l0.2,4.2c0.1,1.2,0.2,2.5,0.4,3.7l0.2,1.1l-0.6,0.9c-6.9,9.4-10.7,21-10.7,32.6v12.5c0,11.4,7.7,21.4,18.6,24.5l1.8,0.5
		v2.9c0,4.6-3.7,8.3-8.3,8.3H157l-8-22c-1.8-4.9-7-7.8-12.2-6.6l-2.2,0.5L124,397l2-1c5.8-3,9.3-9.1,8.9-15.6l-1-17.2
		c-0.2-2.7-2.5-4.9-5.3-4.7c-2.7,0.2-4.9,2.5-4.7,5.3l1,17.2c0.1,1.4-0.3,2.7-1.1,3.9l-2.7,4.2l-7.6-20.9c-0.5-1.3-1.4-2.3-2.6-2.8
		c-1.2-0.6-2.6-0.6-3.8-0.2c-1.3,0.5-2.3,1.4-2.8,2.6c-0.6,1.2-0.6,2.6-0.2,3.8l7.6,20.9l-4.8-1.4c-1.3-0.4-2.5-1.2-3.3-2.3
		L93.3,375c-0.8-1.1-2-1.8-3.3-2s-2.6,0.1-3.7,0.9c-2.2,1.6-2.7,4.8-1,7l10.3,13.8c3.1,4.1,8,6.6,13.3,6.6c1.2,0,2.4-0.1,3.6-0.4
		l2.1-0.5l10.7,29.3l-2,1c-4.7,2.4-6.9,7.9-5.1,12.9l21.5,59c1.5,4.1,5.5,6.9,9.8,6.9c1.2,0,2.4-0.2,3.6-0.6l11.1-4
		c5.4-2,8.2-8,6.3-13.4l-9.8-27h23.6c10.1,0,18.3-8.2,18.3-18.3v-2.9l1.8-0.5c11-3.1,18.6-13.1,18.6-24.5v-12.5
		c0-1.5,0.7-2.8,1.9-3.7l13.1-9l1.1,0.3c1.1,0.3,2.1,0.8,2.9,1.5l5.9,5.4c0.4,0.4,0.9,0.7,1.5,1.1l1.5,1l-0.5,1.8
		c-1.5,5.2-5.5,9.1-11.5,14.6c-10.3,9.4-23,21.1-9.7,46.1c0.9,1.6,2.6,2.6,4.4,2.6c0.8,0,1.6-0.2,2.4-0.6c2.4-1.3,3.4-4.3,2-6.8
		c-9.7-18.1-2.5-24.8,7.6-34l5.4-5v44.3c0,2.8,2.2,5,5,5c2.8,0,5-2.2,5-5v-44.3l5.4,5c10,9.2,17.3,15.8,7.6,34
		c-1.3,2.4-0.4,5.5,2,6.8c0.7,0.4,1.5,0.6,2.4,0.6c1.9,0,3.5-1,4.4-2.6c13.4-25,0.6-36.7-9.7-46.1c-5.9-5.4-10-9.4-11.5-14.6
		l-0.5-1.8l1.5-1c0.6-0.4,1-0.7,1.5-1.1l5.9-5.4c0.8-0.7,1.8-1.3,2.9-1.5l1.1-0.3l13.1,9c1.2,0.8,1.9,2.2,1.9,3.7v12.5
		c0,11.4,7.7,21.4,18.6,24.5l1.8,0.5v2.9c0,10.1,8.2,18.3,18.3,18.3h17.9l0.5,1.8c4.7,15,18.4,25,34.1,25c5.6,0,11.3-1.4,16.3-3.9
		c2.5-1.3,3.4-4.3,2.2-6.7c-0.6-1.2-1.6-2.1-2.9-2.5s-2.6-0.3-3.8,0.3c-3.6,1.9-7.6,2.8-11.7,2.8c-14.2,0-25.7-11.5-25.7-25.7
		s11.5-25.7,25.7-25.7c13.5,0,24.7,10.5,25.7,23.9c0.2,2.7,2.6,4.8,5.3,4.6c1.3-0.1,2.5-0.7,3.4-1.7s1.3-2.3,1.2-3.6
		c-1.1-16-12.9-29.3-28.6-32.5l-2-0.4v-16.9h5.8c2.8,0,5-2.2,5-5s-2.2-5-5-5h-5.8v-7.9c0-2.8-2.2-5-5-5s-5,2.2-5,5v7.9h-5.8
		c-2.8,0-5,2.2-5,5s2.2,5,5,5h5.8v16.9l-2,0.4c-15.4,3.1-27.1,16.1-28.5,31.7l-0.2,2.3h-16.7c-4.6,0-8.3-3.7-8.3-8.3v-2.9l1.8-0.5
		c11-3.1,18.6-13.1,18.6-24.5v-12.5c0-11.6-3.8-23.2-10.7-32.6l-0.6-0.9l0.2-1.1c0.2-1.2,0.4-2.5,0.4-3.7l0.2-4.2l3.6,2.1
		c3.9,2.3,7.8,3.3,11.6,3c2.1-0.2,5.2-1.1,7.8-4.5c3.7-4.8,5.5-13.6,5.3-25.5l-0.1-5.3l4.2,3.3c16.1,12.7,31.5,20,42.3,20
		c4.7,0,8.7-1.4,11.7-4.1c2.1-1.9,3.3-4.5,3.4-7.6c0.2-4.2-1.7-9.5-5.7-15.9l-3.3-5.5l6.1,1.8c18.8,5.4,33.1,6.4,40.4,2.8
		c3.1-1.5,5.2-4,6-7c1.6-6.5-1.4-13.5-8.9-20.7l-3.9-3.7l5.4-0.6c11.7-1.2,22-4.9,28.1-10c5-4.2,6.1-8.4,6.1-11.1
		c0.1-4.5-2.2-8.4-6.9-11.9l-3.7-2.7l4.3-1.6c5.8-2.2,10.3-5.3,13.3-9C500.2,245,501.6,239.6,500.6,234z M161.2,495.3l-12,4.4
		l-21.8-59.9l12-4.4L161.2,495.3z M355.6,185.5c1.4-5.7,3.5-11.7,6.1-17.5l0.9-2.1l9.8,3.3c6.8,2.3,12,8.1,13.6,15.1l2,8.9l-7.1-2.7
		c-3.5-1.3-7.1-2-10.8-2h-15.2L355.6,185.5z M265.4,235.3c5.5-21.2,14.7-40.4,21.5-52.7c2.6-4.7,1.2-10.6-3.1-13.7
		c-5.5-3.9-7.8-10.2-6.7-18.7l0.4-3.4l3.1,1.4c10.5,4.7,24.9,5.3,36.2,5.3H346c2.7,0,5.3,1.4,6.9,3.6l1.7,2.5l-0.6,1.3
		c-4.1,8.3-7.2,17.4-8.8,25.5l-0.4,2h-7.4c-8.9,0-17,4.9-21.2,12.8c-4.9,9.4-10.1,22.5-13.9,35.2l-0.5,1.8h-37.1L265.4,235.3z
		 M141.9,188.6c-3.7,0-7.3,0.7-10.8,2l-7.1,2.7l2-8.9c1.5-7,6.7-12.8,13.6-15.1l9.8-3.3l0.9,2.1c2.6,5.8,4.7,11.8,6.1,17.5l0.7,3.1
		h-15.2V188.6z M195.9,201.4c-4.1-7.9-12.2-12.8-21.2-12.8h-7.4l-0.4-2c-1.6-8.2-4.7-17.2-8.8-25.5l-0.6-1.3l1.7-2.5
		c1.5-2.3,4.1-3.6,6.9-3.6h29.3c11.4,0,25.7-0.6,36.2-5.3l3.1-1.4l0.4,3.4c1,8.5-1.2,14.8-6.7,18.7c-4.4,3.1-5.7,9-3.1,13.7
		c6.8,12.3,16,31.4,21.5,52.7l0.8,3.1h-37.1l-0.5-1.8C206,223.9,200.8,210.8,195.9,201.4z M215.8,397.1c-1.9,2.5-2.8,5.5-2.8,8.6
		v12.5c0,8.5-6.9,15.4-15.4,15.4s-15.4-6.9-15.4-15.4v-12.5c0-6.8,1.6-13.6,4.6-19.8l1.5-3.1l2.5,2.5c5.1,5.1,11.8,7.9,19,7.9h9.1
		L215.8,397.1z M274.5,383.1c-4.1,0-8.1,1.5-11.1,4.3l-7.3,6.7l-7.3-6.7c-3.1-2.8-7-4.3-11.1-4.3h-27.9c-9.4,0-17-7.6-17-17V254
		c0-3,2.5-5.5,5.5-5.5h115.5c3,0,5.5,2.5,5.5,5.5v112.2c0,9.4-7.6,17-17,17L274.5,383.1z M329.9,405.7v12.5
		c0,8.5-6.9,15.4-15.4,15.4s-15.4-6.9-15.4-15.4v-12.5c0-3.1-1-6.1-2.8-8.6l-3-4h9.1c7.2,0,13.9-2.8,19-7.9l2.5-2.5l1.5,3.1
		C328.3,392.1,329.9,398.9,329.9,405.7z M488.8,243.1L488.8,243.1c-2.6,3.3-10.2,8.9-31.5,9.9c-2.5,0.1-4.5,2.1-4.7,4.5
		c-0.2,2.5,1.4,4.8,3.8,5.3c17,4.2,21.6,8.5,22.7,10.1l0.9,1.2l-0.7,1.3c-2.6,5.3-20,13.8-48.3,9.5c-2.4-0.4-4.8,1.1-5.5,3.4
		c-0.8,2.3,0.3,4.9,2.5,6c14.6,7.5,24.5,16.2,25.2,22.1l0.3,2l-1.9,0.7c-7.4,2.6-33.4-2.2-56-12.4c-2.2-1-4.8-0.3-6.1,1.7
		c-1.4,1.9-1.2,4.6,0.5,6.3c12.4,13,18.7,23.8,19.4,28.3l0.3,1.8l-1.7,0.8c-4.1,1.9-12.1,0-21.9-5.3c-10.6-5.7-22.6-14.9-31.3-24.1
		c-1.5-1.6-3.9-2-5.9-1s-3,3.2-2.7,5.3c3.4,18.7,1.4,32.6-1.1,36.5l-0.9,1.3l-1.6-0.2c-1.8-0.2-6.6-1.6-12.6-9.6l-0.5-0.7V293
		l2.6,0.1c12.1,0.6,30.1-3,44.4-15c10.6-8.9,23.3-26,23.4-56.8c0-1.4,0.6-2.6,1.6-3.6c0.5-0.5,1.8-1.5,3.8-1.4
		c7.5,0.4,12.9,2.3,15.1,5.6c1,1.4,2.7,2.3,4.4,2.2c15.2-0.8,31.3-0.3,43,1.4c16.3,2.4,22.7,6.6,23.2,9.7
		C491.2,238.5,490.6,240.9,488.8,243.1z"/>
	<path class="st0" d="M261.6,307.9c-0.8,1-2.7,2.6-5.6,2.6c-3,0-4.8-1.6-5.6-2.6c-0.9-1-2.1-1.6-3.4-1.7c-0.1,0-0.2,0-0.3,0
		c-1.2,0-2.4,0.4-3.3,1.2c-1,0.9-1.6,2.1-1.7,3.4s0.3,2.6,1.2,3.6c3.3,3.8,8.1,6,13.2,6s9.9-2.2,13.2-6c0.9-1,1.3-2.3,1.2-3.6
		c-0.1-1.3-0.7-2.5-1.7-3.4C266.6,305.6,263.5,305.8,261.6,307.9z"/>
	<path class="st0" d="M286.7,305v5.9c0,2.8,2.2,5,5,5s5-2.2,5-5V305c0-2.8-2.2-5-5-5S286.7,302.3,286.7,305z"/>
	<path class="st0" d="M212.8,61.6c-8.3,17.4,2.2,39.4,7.1,48l2.1,3.7h-4.6c-2.8,0-5,2.2-5,5s2.2,5,5,5h63.2h14c2.8,0,5-2.2,5-5
		s-2.2-5-5-5H290l2.1-3.7c4.9-8.7,15.4-30.7,7.1-48c-4-8.4-11.6-14.1-22.5-17.1h-0.2c-4-1.1-8.5-1.8-13.3-2.1l-2.3-0.2V25.4h5.8
		c2.8,0,5-2.2,5-5s-2.2-5-5-5H261V7.5c0-2.8-2.2-5-5-5s-5,2.2-5,5v7.9h-5.8c-2.8,0-5,2.2-5,5s2.2,5,5,5h5.8v16.7l-2.3,0.2
		c-4.8,0.3-9.2,1.1-13.2,2.1h-0.2C224.3,47.4,216.8,53.2,212.8,61.6z M245.1,52.7c3.4-0.4,7-0.7,10.9-0.7s7.6,0.2,10.9,0.7l2.6,0.3
		L266,72.7c-0.3,1.8-1.9,3.1-3.7,3.1h-12.6c-1.8,0-3.4-1.3-3.7-3.1L242.5,53L245.1,52.7z M221.8,65.9L221.8,65.9
		c1.6-3.4,4.3-6.2,7.9-8.4l3.1-1.9l3.4,18.9c1.2,6.6,6.9,11.4,13.5,11.4h12.6c6.7,0,12.4-4.8,13.5-11.4l3.4-18.9l3.1,1.9
		c3.6,2.2,6.3,5,7.9,8.4c6,12.5-1.8,32.8-11.6,46.4l-0.7,1h-43.7l-0.7-1C223.6,98.7,215.8,78.4,221.8,65.9z"/>
	<path class="st0" d="M189.3,171.4v-5.2c0-2.8-2.2-5-5-5s-5,2.2-5,5v5.2c0,2.8,2.2,5,5,5S189.3,174.2,189.3,171.4z"/>
	<path class="st0" d="M215.3,305v5.9c0,2.8,2.2,5,5,5s5-2.2,5-5V305c0-2.8-2.2-5-5-5S215.3,302.3,215.3,305z"/>
</g>
</svg>
