<?xml version="1.0" encoding="utf-8"?>
<!-- Generator: Adobe Illustrator 22.1.0, SVG Export Plug-In . SVG Version: 6.00 Build 0)  -->
<svg version="1.1" id="Layer_1" xmlns="http://www.w3.org/2000/svg" xmlns:xlink="http://www.w3.org/1999/xlink" x="0px" y="0px"
	 viewBox="0 0 279.042511 94.460022" style="enable-background:new 0 0 279.042511 94.460022;" xml:space="preserve">
<style type="text/css">
	.st0{fill-rule:evenodd;clip-rule:evenodd;fill:#921A7D;}
	.st1{fill-rule:evenodd;clip-rule:evenodd;fill:#81106B;}
	.st2{fill-rule:evenodd;clip-rule:evenodd;fill:#FFFFFF;}
	.st3{fill-rule:evenodd;clip-rule:evenodd;fill:#F5D831;}
	.st4{fill-rule:evenodd;clip-rule:evenodd;fill:#FAE559;}
	.st5{fill-rule:evenodd;clip-rule:evenodd;fill:#C61A4E;}
	.st6{fill-rule:evenodd;clip-rule:evenodd;fill:#DC2A66;}
	.st7{fill-rule:evenodd;clip-rule:evenodd;fill:#13C8D1;}
	.st8{fill-rule:evenodd;clip-rule:evenodd;fill:#00ADBF;}
	.st9{fill-rule:evenodd;clip-rule:evenodd;fill:#FF7A00;}
	.st10{fill-rule:evenodd;clip-rule:evenodd;fill:#FF6100;}
	.st11{fill-rule:evenodd;clip-rule:evenodd;fill:#0059AA;}
	.st12{fill-rule:evenodd;clip-rule:evenodd;fill:#007CC4;}
	.st13{fill-rule:evenodd;clip-rule:evenodd;fill:#0071BB;}
	.st14{fill-rule:evenodd;clip-rule:evenodd;fill:#53CC42;}
	.st15{fill-rule:evenodd;clip-rule:evenodd;fill:#3FBA2A;}
</style>
<path class="st0" d="M237.7093811,32.8515625c0.0660706-0.1964417,0.1641846-0.3438721,0.295105-0.4419556
	c0.1309814-0.098053,0.441925-0.1799622,0.9329224-0.2454834c0.4900818-0.0654602,1.1942139-0.114502,2.1101074-0.1471252
	c0.9169922-0.0331726,2.2260132-0.0490417,3.9270935-0.0490417c2.1600037,0,3.5019226,0.0158691,4.0257874,0.0490417
	c0.5229492,0.0326233,0.8829651,0.114563,1.0799866,0.2455139c0.1961365,0.1309204,0.3271179,0.36026,0.3920288,0.6871338
	c0.0652161,0.3273926,0.0980835,0.8512268,0.0980835,1.5709534c0,2.6177979-0.0328674,5.3013611-0.0980835,8.050354
	c-0.0649109,2.7487793-0.0978088,5.4320679-0.0978088,8.0503845c0.7849121-1.3744812,1.6687622-2.8306274,2.6509705-4.3687134
	c0.9819031-1.5380859,2.0290222-3.0761719,3.1410522-4.6142273c1.112915-1.5383911,2.2748108-3.0436096,3.4857788-4.5161743
	c1.2101135-1.4725952,2.4709473-2.8309937,3.7799988-4.0744934c0.3920288-0.458374,0.8829956-0.7693787,1.4720154-0.9326477
	c0.5890503-0.1635132,1.5380859-0.2457275,2.8471375-0.2457275c0.7860718,0,1.881897,0.0163879,3.289032,0.0492859
	c1.4068298,0.0329285,3.190979,0.1148376,5.3509827,0.2454834c1.046814,0.0655212,1.750946,0.2454834,2.1098328,0.5400391
	c0.3611145,0.2945251,0.5411072,0.8999634,0.5411072,1.8164368c0,4.2544861-0.0170288,8.8026733-0.0498962,13.6462402
	c-0.0320129,4.8435364-0.0652161,9.4742432-0.098053,13.8920593c-0.0320435,4.4180908-0.0649109,8.3613586-0.0980835,11.8306274
	c-0.0328979,3.4684753-0.0490417,5.9230042-0.0490417,7.3627625c0,0.9163818-0.0158691,1.7999573-0.0490417,2.6506348
	c-0.0328674,0.8509827-0.2128906,1.4077148-0.5400085,1.6690674c-0.3268127,0.3928833-0.8838196,0.6386414-1.6687317,0.7364197
	c-0.7860718,0.098114-2.3890381,0.1473999-4.8112793,0.1473999c-1.3087769,0-2.322998-0.0328674-3.0429993-0.0983582
	c-0.7200012-0.0651855-1.2599792-0.196167-1.6199646-0.3925781c-0.3600159-0.1964722-0.5887451-0.4584045-0.6868286-0.7854919
	c-0.0980835-0.3271179-0.1479797-0.7522888-0.1479797-1.2764587c0-1.9632874,0.06604-4.0739136,0.1970215-6.3323059
	c0.1309509-2.2580872,0.2618713-5.3180847,0.3920288-9.1791077c-1.8981323,2.355835-3.7961731,4.8268127-5.6942749,7.4120178
	c-1.8977966,2.5854797-3.5007629,4.9254456-4.8098145,7.0197144c-0.5890198,0.9161682-1.0969849,1.6196899-1.5221863,2.1106873
	c-0.4257507,0.4909363-0.9978027,0.8670654-1.717804,1.1290283c-0.7200012,0.2619324-1.6860352,0.4089966-2.8970337,0.4421997
	c-1.2101135,0.0322876-2.8301086,0.0487366-4.8591614,0.0487366c-1.5048828,0-2.6838074-0.016449-3.5339355-0.0487366
	c-0.8509521-0.0332031-1.5219116-0.0822144-2.0128479-0.1477051c-0.4909973-0.0651855-0.8180847-0.1309814-0.9822083-0.196167
	c-0.1638794-0.0657349-0.3109741-0.1309204-0.4419556-0.1964111c-0.2610474-0.1964722-0.4248657-0.4909668-0.4909668-0.8835449
	c-0.0649109-0.3931885-0.1629944-1.1784058-0.2939148-2.3564758c-0.1309509-0.7852173-0.2131653-2.7651672-0.2460327-5.9394226
	c-0.032074-3.1744995-0.0490417-7.3142395-0.0490417-12.4194641c0-3.5344849,0.0331421-6.8887024,0.0980835-10.0629883
	c0.06604-3.174469,0.0989075-6.3323059,0.0989075-9.4741821c0-2.4213562,0-4.3685303,0-5.8414001
	c0-1.4725647,0.0161438-2.618042,0.0490417-3.4361267c0.0320129-0.8180847,0.0648804-1.4071045,0.0980835-1.767395
	C237.595459,33.4241638,237.6444702,33.1131897,237.7093811,32.8515625L237.7093811,32.8515625z"/>
<path class="st1" d="M278.9002075,61.3144836l-0.0056458,0.7444153c-0.0320435,4.4180908-0.0649109,8.3613586-0.0980835,11.8306274
	c-0.0328979,3.4684753-0.0490417,5.9230042-0.0490417,7.3627625c0,0.9163818-0.0158691,1.7999573-0.0490417,2.6506348
	c-0.0328674,0.8509827-0.2128906,1.4077148-0.5400085,1.6690674c-0.3268127,0.3928833-0.8838196,0.6386414-1.6687317,0.7364197
	c-0.7860718,0.098114-2.3890381,0.1473999-4.8112793,0.1473999c-1.3087769,0-2.322998-0.0328674-3.0429993-0.0983582
	c-0.7200012-0.0651855-1.2599792-0.196167-1.6199646-0.3925781c-0.3600159-0.1964722-0.5887451-0.4584045-0.6868286-0.7854919
	c-0.0980835-0.3271179-0.1479797-0.7522888-0.1479797-1.2764587c0-1.9632874,0.06604-4.0739136,0.1970215-6.3323059
	c0.1309509-2.2580872,0.2618713-5.3180847,0.3920288-9.1791077c-1.8981323,2.355835-3.7961731,4.8268127-5.6942749,7.4120178
	c-1.8977966,2.5854797-3.5007629,4.9254456-4.8098145,7.0197144c-0.5890198,0.9161682-1.0969849,1.6196899-1.5221863,2.1106873
	c-0.4257507,0.4909363-0.9978027,0.8670654-1.717804,1.1290283c-0.7200012,0.2619324-1.6860352,0.4089966-2.8970337,0.4421997
	c-1.2101135,0.0322876-2.8301086,0.0487366-4.8591614,0.0487366c-1.5048828,0-2.6838074-0.016449-3.5339355-0.0487366
	c-0.8509521-0.0332031-1.5219116-0.0822144-2.0128479-0.1477051c-0.4909973-0.0651855-0.8180847-0.1309814-0.9822083-0.196167
	c-0.1638794-0.0657349-0.3109741-0.1309204-0.4419556-0.1964111c-0.2610474-0.1964722-0.4248657-0.4909668-0.4909668-0.8835449
	c-0.0649109-0.3931885-0.1629944-1.1784058-0.2939148-2.3564758c-0.1309509-0.7852173-0.2131653-2.7651672-0.2460327-5.9394226
	c-0.0113831-1.1248169-0.020752-2.3711548-0.0283508-3.7383423c7.260376-7.8187866,18.6227417-12.8531494,31.3959656-12.8531494
	C272.1852112,60.1939392,275.6256104,60.5851135,278.9002075,61.3144836L278.9002075,61.3144836z"/>
<path class="st2" d="M239.5714722,34.0483398c-0.1229858,0.0921326-0.2148743,0.2304382-0.276947,0.4144287
	c-0.0609131,0.2463074-0.1071167,0.5377197-0.1369019,0.8755798c-0.0311584,0.3373718-0.0620728,0.8900757-0.0932617,1.6574707
	c-0.0297546,0.767334-0.045929,1.8419189-0.045929,3.2232666v5.4801941c0,2.9469299-0.0309143,5.9093628-0.0918274,8.8869019
	c-0.0612488,2.9777832-0.0921021,6.1242371-0.0921021,9.4396667c0,4.7888184,0.0161133,8.6719971,0.0458984,11.6498413
	c0.0311584,2.9780273,0.1071167,4.835022,0.2301636,5.5723267c0.1230469,1.10495,0.2148743,1.8416748,0.276947,2.2101746
	c0.0609741,0.3684998,0.2140503,0.6445923,0.4600525,0.8288269c0.1219177,0.0609741,0.2579956,0.1216125,0.4099121,0.1825867
	c-0.0538635-0.4090271-0.1218872-0.97995-0.2041016-1.712738c-0.1227112-0.7367249-0.1989746-2.5939331-0.2298584-5.5717468
	c-0.0309448-2.9778137-0.045929-6.8612976-0.045929-11.6504211c0-3.3156738,0.0308533-6.4618225,0.0918274-9.4399109
	c0.0612488-2.9775391,0.0929565-5.940033,0.0929565-8.8869324v-5.4799194c0-1.3815918,0.0150452-2.455658,0.045105-3.2232666
	c0.0311584-0.767334,0.0620422-1.3198242,0.0929565-1.6577148c0.0300598-0.3375854,0.0759583-0.6292725,0.137207-0.8747253
	c0.0617676-0.1842957,0.1539307-0.3223572,0.2769165-0.4144287c0.1230469-0.0921326,0.4138794-0.16922,0.8750916-0.2304993
	c0.460907-0.0612183,1.1208191-0.1074219,1.97995-0.1377563c0.8589478-0.0308838,0.1998901-0.0462036,1.7957764-0.0462036
	c2.0261841,0,3.2850952,0.0153198,3.776062,0.0462036c0.1950073,0.0119019,0.3659058,0.0314941,0.5130615,0.0581055
	c-0.0150146-0.289093-0.0400085-0.5198364-0.0751648-0.6924744c-0.0609436-0.307312-0.18396-0.5221252-0.3678894-0.6445923
	c-0.18396-0.1227722-0.5218506-0.1998596-1.0128479-0.2301941c-0.4912109-0.0309143,0.1377563-0.0458984-1.8881531-0.0458984
	c-1.5970154,0-2.8250122,0.0149841-3.6838989,0.0458984c-0.8600464,0.0303345-1.5199585,0.0765381-1.9799805,0.1380615
	C239.9856567,33.8799744,239.6944885,33.9564514,239.5714722,34.0483398L239.5714722,34.0483398z M263.424469,34.6473083
	c-1.2279663,1.1664124-2.4100342,2.4406128-3.5458679,3.8216248c-3.9940186,4.8577576-6.4400024,9.0729065-9.6542053,14.4207153
	c-0.0107727,1.059021-0.0158691,2.1075745-0.0158691,3.1450195c3.3388672-5.8444214,6.3399353-10.8598022,10.6128845-16.0562744
	c1.1361389-1.3816223,2.3181763-2.6554565,3.5461121-3.8219299c0.367981-0.4300537,0.8288879-0.7217102,1.381073-0.8750916
	c0.5530396-0.153595,1.4428406-0.2301331,2.6707764-0.2301331c0.73703,0,1.7651367,0.0150146,3.0852661,0.045929
	c1.3209229,0.0306091,2.9939575,0.1073914,5.0198669,0.2301331c0.6499634,0.0405273,1.157959,0.128418,1.5259094,0.2633667
	c-0.0498962-0.6177063-0.2129211-1.0394897-0.4898376-1.2656555c-0.3370361-0.2766724-0.9969482-0.4450378-1.980011-0.5065613
	c-2.0259094-0.1227722-3.6989136-0.199585-5.0190125-0.2301636c-1.3200989-0.0306396-2.3479614-0.0462036-3.0849609-0.0462036
	c-1.2279663,0-2.1180725,0.0767822-2.6711121,0.2307434C264.2536011,33.9258728,263.7923889,34.2175598,263.424469,34.6473083
	L263.424469,34.6473083z M267.8595276,67.4608459c-0.0889587,2.3261108-0.1779785,4.2576294-0.2670288,5.7928772
	c-0.1229858,2.1186523-0.3849182,8.2703552-0.3849182,10.1126099c0,0.4909973,0.045929,0.8901062,0.138031,1.1973572
	c0.0918579,0.3069763,0.3070374,0.5521851,0.6448975,0.7367554c0.0549927,0.0300293,0.1151123,0.0583801,0.178894,0.0856018
	c-0.0127563-0.1576233-0.019043-0.3279724-0.019043-0.5108337c0-1.8419189,0.262207-7.9942322,0.3852539-10.1122742
	c0.1230469-2.1183472,0.2457886-4.9887085,0.3679199-8.6111145
	C268.5554504,66.5838318,268.2073669,67.0203857,267.8595276,67.4608459L267.8595276,67.4608459z"/>
<path class="st3" d="M247.1144714,45.7945251c0,2.4046326-0.0960693,4.7542725-0.2868347,7.049469
	c-0.1922302,2.2949219-0.4240723,4.344696-0.697052,6.1480713c-0.2730103,1.8031006-0.5601196,3.2513428-0.8612061,4.3440857
	c-0.2998657,1.0936279-0.586731,1.6401672-0.8599854,1.6401672c-0.2738342,0-0.6429443-0.0142212-1.1069641-0.041687
	c-0.4648438-0.026947-1.0788574-0.0677795-1.8439026-0.1230164c-0.7659302-0.0547485-1.6951599-0.0952454-2.7870178-0.122467
	c-1.0930786-0.0275269-2.4321594-0.0411072-4.0169983-0.0411072c-0.0549927,0.4370728-0.0819397,1.0108643-0.0819397,1.7214966
	s0,1.2838135,0,1.7209167c1.5848694-0.054718,2.882843-0.1088562,3.8939819-0.1635742
	c1.0099792-0.0546875,1.8439026-0.1094055,2.4998474-0.1641541c0.6550903-0.054657,1.1879883-0.0954895,1.5982056-0.1230164
	c0.4098816-0.0271912,0.8608398-0.0411072,1.3529358-0.0411072c1.1469421,0,1.7209473,0.5740662,1.7209473,1.7218018
	c-0.1088867,0.8197632-0.3279724,1.7761841-0.6559753,2.8688965c-0.3270874,1.0930481-0.6281128,1.858429-0.901947,2.2949524
	c-0.5459595,0.7106628-2.6770325,1.0658569-6.3930054,1.0658569h-3.3610229
	c-0.0549927,0.4915161-0.0960999,1.0658264-0.1230469,1.7214661c-0.026886,0.6556396-0.0410767,1.2843628-0.0410767,1.8853149
	c0.7650757,0.1094055,1.4890442,0.1641235,2.1722107,0.1641235c0.6828308,0,1.3798828,0,2.0908203,0
	c0.8739319,0,1.7351074-0.0408325,2.5820923-0.1230469c0.8458252-0.0819092,1.7889404-0.1229858,2.8278198-0.1229858
	c0.5462646,0,0.8881226,0.1635437,1.0241394,0.4918213c0.1369019,0.3279419,0.2049866,0.7103271,0.2049866,1.1477356
	c0,1.5298462-0.026947,2.8553162-0.0819702,3.9755859c-0.0541382,1.1202393-0.1641235,2.2268982-0.3270874,3.3196716
	c-0.0549927,0.218811-0.2879944,0.4373474-0.6970215,0.6559143c-0.4099121,0.2185364-1.1338501,0.4098816-2.17276,0.5737
	c-1.0380554,0.1635742-2.4451599,0.2865906-4.2210999,0.3688354c-1.7761841,0.0818787-4.0580444,0.1229858-6.8450623,0.1229858
	c-2.5679626,0-4.6578979-0.0136108-6.2711182-0.0411072c-1.6117554-0.0271912-2.881958-0.1094055-3.8109131-0.2457275
	c-0.9288635-0.1366577-1.5990295-0.3688049-2.0089111-0.6967468c-0.4089966-0.3282776-0.6411743-0.7922974-0.696167-1.3935547
	c-0.2188416-1.585083-0.4379272-3.6206665-0.6559448-6.1069336c-0.218811-2.4868164-0.4367981-5.1369629-0.6559143-7.9511719
	c-0.2191162-2.8145447-0.4099121-5.6693115-0.5740051-8.56604c-0.1638794-2.8964233-0.2999268-5.5468445-0.4090576-7.9511719
	c-0.1100159-2.4046326-0.2049255-4.4401855-0.2868652-6.1069641c-0.0822144-1.666748-0.124176-2.6914673-0.124176-3.0739136
	c0-0.4917908,0.3010254-0.9152527,0.9020081-1.270752c0.6020813-0.3548889,1.7081604-0.6695557,3.3202209-0.9425049
	c1.6117859-0.2732544,3.797821-0.4781799,6.5579529-0.6148376c2.7598267-0.1365967,6.3258057-0.2049561,10.6968079-0.2049561
	h9.1811523C246.7045898,44.5648499,247.1144714,44.9744873,247.1144714,45.7945251L247.1144714,45.7945251z"/>
<path class="st4" d="M245.6144104,61.8984375c-0.112854,0.5331726-0.2279053,1.0125427-0.3450317,1.4377136
	c-0.2998657,1.0936279-0.586731,1.6401672-0.8599854,1.6401672c-0.2738342,0-0.6429443-0.0142212-1.1069641-0.041687
	c-0.4648438-0.026947-1.0788574-0.0677795-1.8439026-0.1230164c-0.7659302-0.0547485-1.6951599-0.0952454-2.7870178-0.122467
	c-1.0930786-0.0275269-2.4321594-0.0411072-4.0169983-0.0411072c-0.0549927,0.4370728-0.0819397,1.0108643-0.0819397,1.7214966
	s0,1.2838135,0,1.7209167c1.5848694-0.054718,2.882843-0.1088562,3.8939819-0.1635742
	c1.0099792-0.0546875,1.8439026-0.1094055,2.4998474-0.1641541c0.6550903-0.054657,1.1879883-0.0954895,1.5982056-0.1230164
	c0.4098816-0.0271912,0.8608398-0.0411072,1.3529358-0.0411072c1.1469421,0,1.7209473,0.5740662,1.7209473,1.7218018
	c-0.1088867,0.8197632-0.3279724,1.7761841-0.6559753,2.8688965c-0.3270874,1.0930481-0.6281128,1.858429-0.901947,2.2949524
	c-0.5459595,0.7106628-2.6770325,1.0658569-6.3930054,1.0658569h-3.3610229
	c-0.0549927,0.4915161-0.0960999,1.0658264-0.1230469,1.7214661c-0.026886,0.6556396-0.0410767,1.2843628-0.0410767,1.8853149
	c0.7650757,0.1094055,1.4890442,0.1641235,2.1722107,0.1641235c0.6828308,0,1.3798828,0,2.0908203,0
	c0.8739319,0,1.7351074-0.0408325,2.5820923-0.1230469c0.8458252-0.0819092,1.7889404-0.1229858,2.8278198-0.1229858
	c0.5462646,0,0.8881226,0.1635437,1.0241394,0.4918213c0.1369019,0.3279419,0.2049866,0.7103271,0.2049866,1.1477356
	c0,1.5298462-0.026947,2.8553162-0.0819702,3.9755859c-0.0541382,1.1202393-0.1641235,2.2268982-0.3270874,3.3196716
	c-0.0549927,0.218811-0.2879944,0.4373474-0.6970215,0.6559143c-0.4099121,0.2185364-1.1338501,0.4098816-2.17276,0.5737
	c-1.0380554,0.1635742-2.4451599,0.2865906-4.2210999,0.3688354c-1.7761841,0.0818787-4.0580444,0.1229858-6.8450623,0.1229858
	c-2.5679626,0-4.6578979-0.0136108-6.2711182-0.0411072c-1.6117554-0.0271912-2.881958-0.1094055-3.8109131-0.2457275
	c-0.9288635-0.1366577-1.5990295-0.3688049-2.0089111-0.6967468c-0.4089966-0.3282776-0.6411743-0.7922974-0.696167-1.3935547
	c-0.2188416-1.585083-0.4379272-3.6206665-0.6559448-6.1069336c-0.218811-2.4868164-0.4367981-5.1369629-0.6559143-7.9511719
	c-0.1029358-1.3251953-0.2001343-2.6600342-0.289978-4.0033569
	C224.1836243,65.149231,234.3645325,62.4432373,245.6144104,61.8984375L245.6144104,61.8984375z"/>
<path class="st5" d="M156.7386169,0l0.1618652,0.0002747l0.1320496,0.0005798l0.0309448,0.0002441l0.1621399,0.0011597
	l0.1009216,0.0010986l0.0609436,0.0008545l0.1609802,0.0022583l0.0700073,0.0011902l0.0910034,0.0016479l0.1609802,0.0034485
	l0.0400085,0.000824l0.0161438,0.0005798l0.2647705,0.0067749h0.0090637l0.2559509,0.0082397l0.0332031,0.0014038
	l0.0209351,0.0008545l0.1590576,0.0059814l0.1080017,0.0042114l0.0510254,0.0019836l0.1578369,0.0071106l0.0780029,0.0033875
	l0.0799255,0.0039978l0.1590271,0.0081787l0.0470276,0.002594l0.1099854,0.0061951l0.157074,0.0087891l0.0180969,0.0011597
	l0.138916,0.0082397l0.1448669,0.0093384l0.0110474,0.0008545l0.1570129,0.0104675l0.1139832,0.0082092l0.0411072,0.0031433
	c0.1559143,0.011322,0.3109741,0.0235291,0.4660034,0.0362549l0.0549622,0.005127l0.250061,0.0220947h0.0028381l0.0260315,0.0022583
	l0.1281433,0.0119324l0.1508179,0.01474h0.0031128l0.151947,0.0150146l0.1221924,0.0124817l0.0319824,0.0036621l0.1519775,0.0158997
	l0.0917969,0.0104675l0.0600891,0.0068359l0.1519775,0.0169983l0.0629272,0.0076294l0.0881653,0.0105286l0.1519165,0.0180969
	l0.0340271,0.0045776l0.1159058,0.01474l0.1510925,0.0192566l0.0059814,0.0005798l0.2661743,0.0360107l0.0048218,0.000824
	l0.0229797,0.0031128l0.1490479,0.0209961l0.0989685,0.0141296l0.2690125,0.0400085l0.0779114,0.0118713
	c0.1491394,0.0226746,0.2971191,0.0462036,0.4442139,0.0703125l0.013916,0.002594l0.1329041,0.0226746l0.1340637,0.0223389
	l0.013092,0.0020142l0.1468201,0.0257874l0.1051331,0.0187378l0.040863,0.0076294
	c0.1462708,0.0263672,0.2910767,0.0535583,0.4362488,0.081665l0.0487366,0.009613l0.2412109,0.0473022l0.0218201,0.0045776
	l0.2599487,0.0535889l0.0062561,0.0008545l0.2267456,0.0478516l0.0272217,0.0065308l0.0320129,0.0068054l0.2160339,0.0479431
	l0.0099182,0.0016479l0.05896,0.013916l0.1428528,0.0317383l0.0561523,0.0133362l0.0850525,0.0195313l0.1360474,0.0320435
	l0.0360107,0.0087891l0.0087891,0.0022583l0.0450439,0.0110474l0.0450745,0.0108032l0.0898743,0.0218506l0.0450439,0.0110474
	l0.0209961,0.0050964l0.0241089,0.0056763l0.0450439,0.011322l0.0447693,0.0113525l0.045105,0.0110474l0.0439453,0.011322
	l0.0450134,0.0113525l0.006012,0.0016785l0.0391235,0.0099182l0.0450134,0.0113831l0.0439453,0.0118713l0.045105,0.0110474
	l0.0439453,0.0113831l0.0359497,0.009613l0.0090637,0.002533l0.0448303,0.0116272l0.04422,0.0116272l0.0439453,0.0119019
	l0.0450745,0.0116272l0.0439148,0.012207l0.0209656,0.0056763l0.0229797,0.0065002l0.0450745,0.0115967l0.0439453,0.0124817
	l0.0439453,0.0119324l0.0439148,0.0124817l0.0450745,0.012146l0.0059509,0.0017395l0.0379944,0.0101929l0.04422,0.0124817
	l0.0439453,0.0127258l0.0830078,0.0235291l0.0048523,0.0014038l0.0360107,0.0099792l0.0079346,0.0025024l0.0441895,0.0124817
	l0.0428162,0.0127869l0.0450439,0.0127563l0.0431213,0.0127258l0.0439453,0.0127869l0.0220642,0.0061951l0.0218506,0.0068359
	l0.0439453,0.0127258l0.0430908,0.0130615l0.0439453,0.0127258l0.0441895,0.0138855l0.0428467,0.0127869l0.0070496,0.0019531
	l0.0371704,0.0113831l0.0427551,0.0127258l0.0439453,0.0136414l0.0430908,0.0133057l0.0439148,0.0133057l0.0360107,0.0113525
	l0.0070801,0.0022888l0.0439453,0.0132751l0.0431213,0.013916l0.0430908,0.0136108l0.0427551,0.0135803l0.0442505,0.0136414
	l0.0209656,0.0070496l0.0218506,0.0068359l0.0430908,0.0138855l0.0430908,0.0135803l0.0427551,0.0142212
	c0.7432861,0.2420349,1.4712219,0.5071106,2.1820984,0.7928162l0.0309448,0.0127869l0.0311584,0.0124512l0,0l0.0320435,0.0127563
	l0.0308838,0.0127258l0.0308838,0.0124817l0.0312195,0.013031l0.0309143,0.0127869l0.0308533,0.0130005l0.0312195,0.0128174
	l0.0158386,0.0061951l0.0161743,0.0068359l0.0297546,0.0130005l0.031189,0.0127869l0.0309143,0.013031l0.0311279,0.0130005
	l0.0309448,0.0130615l0.0320129,0.0133362l0.0300293,0.0127563V2.858429l0.0309448,0.0130615l0.0308838,0.0133057
	l0.0311584,0.0130615l0.0309143,0.0132751l0.0300598,0.0133362l0.0308838,0.0133667l0.0311584,0.0133057l0.0150452,0.0065308
	l0.0158997,0.0067749l0.0308838,0.0133057l0.1221619,0.053894l0.0309143,0.0135803l0.0300293,0.0133057l0.0008545,0.0003357
	l0.0300598,0.0138855l0.031189,0.013031l0.0308838,0.0138855l0.0300598,0.0135803l0.0300293,0.0138855l0.0309143,0.0133362
	l0.0300293,0.0141907l0.0158691,0.0065308l0.0150146,0.0076599l0.0300293,0.0136108l0.0309143,0.0138855l0.0300293,0.0138855
	l0.0312195,0.0138855l0.0297546,0.013855l0.0300598,0.0138855l0.0311584,0.0142212l0.0300293,0.0138855l0.0298157,0.0141296
	l0.0311279,0.0141907l0.0300598,0.0144348l0.0297852,0.013916l0.0300293,0.0141907l0.0300293,0.013855l0.0150757,0.0076904
	l0.0158386,0.0067749l0.0300293,0.0144958l0.0300598,0.0144348l0.0600891,0.0286255l0.0300598,0.0144653l0.0297852,0.0144348
	l0.0300293,0.0144653c4.8061523,2.3201599,8.8389893,5.4685974,12.0980225,9.446167l0.0110474,0.0138855l0.0118713,0.0136414
	l0.0110474,0.01474l0.0110474,0.0135803l0.0119324,0.0138855l0.0110779,0.0138855l0.012146,0.0141907l0.0107727,0.0138855
	l0.0110474,0.013916l0.0119019,0.0141602l0.0111084,0.0141602l0.0110474,0.0138855l0.0119019,0.0136108l0.0042419,0.005127
	l0.0068054,0.0090332l0.0110474,0.0138855l0.0119019,0.0141602l0.0110474,0.0142212l0.0110779,0.0138855l0.0119019,0.0141602
	l0.0221252,0.0280457l0.0110474,0.0141907l0.0118713,0.0138855l0.0110474,0.0141602l0.0111084,0.0141602l0.0119019,0.013916
	l0.0079346,0.0107727l0.0031128,0.003418l0.0110474,0.0141602l0.0107727,0.013855l0.0121765,0.0141907l0.0110474,0.0138855
	l0.0107727,0.0144653l0.012207,0.0141907l0.0107422,0.013855l0.0442505,0.0569763l0.0110779,0.0138855l0.0118713,0.0142212
	l0.000824,0.001709l0.0102234,0.0124512l0.0108032,0.0141602l0.0110474,0.0141907l0.0110474,0.013916l0.0110474,0.0144043
	l0.0218506,0.0283508l0.0121765,0.0144958l0.0110779,0.0138855l0.0107727,0.0141296l0.0110474,0.0138855l0.0110474,0.0144958
	l0.0110474,0.0144653l0.0059509,0.0068054l0.005127,0.0073547l0.0107727,0.0141602l0.0110474,0.0144958l0.0110474,0.0144348
	l0.0110474,0.0138855l0.0118713,0.0141602l0.0110779,0.0144653l0.0110474,0.013916l0.0099487,0.0144043l0.0110474,0.0144653
	l0.0110474,0.0141907l0.0048218,0.0054016l0.0039673,0.0053406l0.0042725,0.0059509l0.0047913,0.0056763l0.0039978,0.0054321
	l0.0039368,0.0059509l0.0042725,0.0053406l0.0019836,0.0014648l0.0028381,0.0039368l0.0039673,0.0054016l0.0039368,0.0059509
	l0.0050964,0.0053711l0.0039978,0.0057068l0.0039368,0.0056458l0.0039978,0.0056458l0.005127,0.0054321l0.0039368,0.0056152
	l0.0039978,0.0050964l0.0050659,0.0059814l0.0039978,0.0054016l0.0039368,0.0056763l0.0039978,0.0056458l0.0039673,0.0056458
	l0.0050659,0.0057068l0.0039978,0.0050964l0.0039673,0.0059204l0.0050964,0.0054016l0.0039673,0.0056763l0.0039978,0.0057068
	l0.0050964,0.0053406l0.0028381,0.0059509l0.0050964,0.0054016l0.0039673,0.0056458l0.0039368,0.0059814l0.0050964,0.0047913
	l0.0039978,0.0059509l0.0039368,0.0054321l0.005127,0.0059509l0.0039673,0.0053406l0.0039673,0.0057068l0.0039368,0.0056763
	l0.0040283,0.0056458l0.0030823,0.0036621l0.0020142,0.0017395l0.0039368,0.0056458l0.0039978,0.0056763l0.0050964,0.0059509
	l0.0039673,0.0054016l0.0039368,0.0053711l0.0039978,0.0053711l0.0039368,0.0059509l0.0050964,0.0054321l0.0379944,0.0509644
	l0.0039978,0.0054321l0.0039673,0.0056763c2.7810669,3.6903992,4.9181213,7.9225159,6.3969421,12.6753845
	c1.6571045,5.3033447,2.4859619,10.9375,2.4859619,16.9035645c0,6.40802-0.8288574,12.6501465-2.4859619,18.726532
	c-1.6568604,6.076355-4.0878296,11.4899292-7.2910156,16.2402039c-3.2039795,4.750885-7.2640686,8.5623474-12.1810303,11.434967
	c-4.915863,2.8721008-10.5780334,4.3084106-16.9860229,4.3084106c-5.9658203,0-11.4069214-1.1599426-16.3230591-3.4801025
	c-4.9169312-2.3198547-9.1148071-5.6341248-12.5948792-9.9433899c-3.4801025-4.3083496-6.158844-9.5283813-8.0370483-15.6600037
	c-1.8779602-6.1315918-2.816803-13.0090027-2.816803-20.6325378c0-6.4073792,0.9107361-12.3457031,2.7340088-17.8146057
	c1.8229675-5.4685669,4.473938-10.1914063,7.9540405-14.1689453c3.4797974-3.9773254,7.7059631-7.0982666,12.6779175-9.3631287
	c3.9438782-1.7966309,8.2698059-2.8808289,12.9790039-3.2519226l0.0578308-0.0048218l0.0059509-0.0008545l0.0529785-0.0039368
	l0.0592651-0.0042725l0.0578308-0.0042725l0.0581055-0.0042419l0.0510254-0.0039673l0.0079651-0.0002441l0.0589294-0.0042725
	l0.0589905-0.0039978l0.0589294-0.0039673l0.058136-0.0039368l0.0359802-0.0022583l0.0229492-0.0017395l0.1771545-0.0107727
	l0.0589905-0.0039673l0.0218201-0.000824l0.0371094-0.0022583l0.0589905-0.0034485l0.1179199-0.0067444l0.0589294-0.0031433
	l0.0090942-0.0003052l0.0510254-0.0028381l0.0589905-0.0031128l0.1179199-0.0056763l0.0541382-0.0025024l0.0059509-0.0003357
	l0.0589294-0.0027771l0.0600891-0.002594l0.0589905-0.0025024l0.0600891-0.002594l0.0388489-0.0016785l0.0209656-0.0008545
	l0.0592041-0.0022583l0.059845-0.0022583l0.05896-0.0023193l0.0601196-0.0022583l0.0260315-0.0008545l0.0340576-0.0014038
	l0.0597839-0.0016785l0.0589905-0.0020142l0.0600891-0.0016785l0.0600891-0.0020142l0.0118713-0.0002441l0.0479431-0.0017395
	l0.1201782-0.0031128l0.0609436-0.0010986l0.0569763-0.0014343h0.0031128l0.0598145-0.001709l0.0601196-0.0010986
	l0.0600891-0.0011902l0.0597534-0.0010986l0.0442505-0.0008545l0.0170288-0.0003052l0.0609131-0.0008545l0.059845-0.000824
	l0.0600891-0.0005798l0.0609436-0.0014343h0.0280457l0.2140198-0.0016479l0.0609741-0.0008545h0.0141296l0.0459595-0.0005798
	h0.1218567L156.6773987,0H156.7386169L156.7386169,0z M155.7433472,70.0990906c2.0990601,0,3.7842712-1.4635315,5.0550537-4.3914795
	c1.2701721-2.927002,1.9051208-6.490448,1.9051208-10.6885681c0-3.8667603-0.5240784-6.5460815-1.5740356-8.037384
	c-1.0491028-1.4915466-2.6790466-2.2376709-4.888092-2.2376709c-2.8728943,0-4.8058167,0.7461243-5.8008118,2.2376709
	c-0.9940796,1.4913025-1.4910278,4.1706238-1.4910278,8.037384c0,4.3086853,0.6630554,7.8993225,1.9879303,10.7716675
	C152.2635193,68.6633301,153.865387,70.0990906,155.7433472,70.0990906L155.7433472,70.0990906z"/>
<path class="st6" d="M195.0664063,50.1976013c-0.0938416,1.0479736-0.210022,2.0919189-0.3489075,3.1308594
	c-2.4420776,0.4861145-4.9669189,0.7421265-7.552063,0.7421265c-21.2609863,0-38.4959106-17.2346497-38.4959106-38.4953613
	c0-5.4476318,1.1338196-10.6296082,3.1750488-15.3260803c0.3758545-0.0393982,0.7540588-0.0742798,1.1350098-0.1037598
	l0.0578308-0.0048218l0.0059509-0.0008545l0.0529785-0.0039368l0.0592651-0.0042725l0.0578308-0.0042725l0.0581055-0.0042419
	l0.0510254-0.0039673l0.0079651-0.0002441l0.0589294-0.0042725l0.0589905-0.0039978l0.0589294-0.0039673l0.058136-0.0039368
	l0.0359802-0.0022583l0.0229492-0.0017395l0.1771545-0.0107727l0.0589905-0.0039673l0.0218201-0.000824l0.0371094-0.0022583
	l0.0589905-0.0034485l0.1179199-0.0067444l0.0589294-0.0031433l0.0090942-0.0003052l0.0510254-0.0028381l0.0589905-0.0031128
	l0.1179199-0.0056763l0.0541382-0.0025024l0.0059509-0.0003357l0.0589294-0.0027771l0.0600891-0.002594l0.0589905-0.0025024
	l0.0600891-0.002594l0.0388489-0.0016785l0.0209656-0.0008545l0.0592041-0.0022583l0.059845-0.0022583l0.05896-0.0023193
	l0.0601196-0.0022583l0.0260315-0.0008545l0.0340576-0.0014038l0.0597839-0.0016785l0.0589905-0.0020142l0.0600891-0.0016785
	l0.013031-0.0003052c-2.2921143,4.6967468-3.5810242,9.9743042-3.5810242,15.5525818
	c0,19.6094971,15.8961487,35.5058899,35.5059509,35.5058899C189.8815613,51.0811157,192.5254517,50.7749939,195.0664063,50.1976013
	L195.0664063,50.1976013z"/>
<path class="st6" d="M187.0035706,76.4659729c-0.4581299,0.7659302-0.9351501,1.5165405-1.4301147,2.2506714
	c-3.2039795,4.750885-7.2640686,8.5623474-12.1810303,11.434967c-4.915863,2.8721008-10.5780334,4.3084106-16.9860229,4.3084106
	c-5.9658203,0-11.4069214-1.1599426-16.3230591-3.4801025c-4.9169312-2.3198547-9.1148071-5.6341248-12.5948792-9.9433899
	c-1.8648987-2.3085327-3.4990845-4.8778687-4.9039612-7.7099304c8.0169373-3.8931274,18.0688782-6.2325439,28.9950256-6.2957458
	c1.1908569,2.045166,2.5789795,3.0682373,4.1638184,3.0682373c1.6369934,0,3.0220032-0.8898315,4.1550293-2.6694336
	C170.5144348,68.5218811,179.9535217,71.7853699,187.0035706,76.4659729L187.0035706,76.4659729z"/>
<path class="st7" d="M219.5245972,74.1758423c0,1.2461243-0.0240784,2.3963928-0.071991,3.4511719
	c-0.0481873,1.0542297-0.1202087,2.108429-0.2151489,3.1626282c-0.0958252,1.0547485-0.2639465,2.1571655-0.5028687,3.3077393
	c-0.2401123,1.1497192-0.5281372,2.4202576-0.8631592,3.8103638c-0.0957947,0.1436768-0.263916,0.2156677-0.5039978,0.2156677
	c-2.7320557,0-4.9249268-0.0243225-6.5777893-0.071991c-1.6540527-0.0478516-2.9480286-0.107666-3.8820801-0.1796875
	c-0.9351196-0.0722656-1.5581665-0.1556396-1.8699951-0.251709c-0.3109436-0.0958252-0.4671631-0.2157593-0.4671631-0.3594666
	c0,0.0479431-0.0719604-0.7667542-0.2160034-2.4443054c-0.1439514-1.6775513-0.2148438-4.0977783-0.2148438-7.2614746H186.740509
	c-0.0961304,1.5814514-0.2160034,3.1872253-0.3599854,4.8171997c-0.1428833,1.6290588-0.4071045,3.3550415-0.7900696,5.1763306
	c-0.0960693,0.1436768-0.4668274,0.2272949-1.1148682,0.2511597c-0.6471252,0.0243225-1.3300171,0.0365601-2.0491333,0.0365601
	c-2.4440308,0-4.3608093,0-5.7509155,0s-2.4210815-0.0238342-3.092041-0.0723267
	c-0.6709595-0.0476074-1.091095-0.0836182-1.2580566-0.1079712c-0.1680603-0.0238342-0.2519836-0.0836182-0.2519836-0.1797485
	l-0.790863-10.2089233c-0.1431274-1.6775818-0.2392273-3.0673828-0.2871399-4.1697693
	c-0.0478821-1.102417-0.0720215-1.9890747-0.0720215-2.6603394c0-0.0960999,0.2160339-0.1916199,0.6471863-0.2874451
	c0.4308777-0.0954895,1.0187683-0.1680908,1.7619934-0.2153931c0.742981-0.0482178,1.605011-0.0960999,2.5877686-0.144043
	c0.9822083-0.0478821,2.0012512-0.0719604,3.0551758-0.0719604c0.6709595-0.5751648,1.2098389-1.593689,1.618042-3.0557556
	c0.4070435-1.4615784,0.6108398-3.1991882,0.6108398-5.2120667c0-3.0197449-0.0238037-5.6437988-0.071991-7.8726501
	c-0.0479431-2.2286072-0.1068726-4.2058105-0.1799927-5.9312134c-0.0720215-1.7254333-0.131012-3.3074646-0.1788635-4.7452087
	c-0.0481873-1.4374695-0.071991-2.9236755-0.071991-4.4574585c0-0.3832703,0.0597839-0.6828918,0.178833-0.8986206
	c0.1202087-0.2160034,0.3959961-0.3231201,0.8271484-0.3231201c2.5409546,0,5.2729797-0.0243835,8.1958313-0.0725708
	c2.4930725-0.0473633,5.321167-0.083374,8.4841003-0.1071472c3.1628723-0.0244141,6.4700317-0.0362854,9.9220886-0.0362854
	c1.5808716,0,3.151001,0.0362854,4.7077637,0.1077271c1.5582275,0.0717163,3.0322266,0.2037659,4.4220581,0.3951416
	c0.526947,0.0481567,0.7911377,0.263916,0.7911377,0.6474304c-0.0960693,5.1763-0.2281494,10.3648987-0.3951111,15.565033
	c-0.1678467,5.2009888-0.2758179,10.6046753-0.3240051,16.2127686c1.3421936,0.0954895,2.0131531,0.167511,2.0131531,0.2153931
	V74.1758423L219.5245972,74.1758423z M196.5906067,53.541626c-0.2400818,3.9305115-0.5759888,7.2496033-1.0071716,9.95755
	c-0.4319763,2.7082214-0.9110413,4.7570801-1.4379883,6.1472168c1.3901062,0,2.7921448,0,4.2060547,0
	s2.9119873,0.0237732,4.4929199,0.0717163c-0.1907959-2.5880737-0.3469543-5.2483826-0.4668884-7.9801331
	c-0.1199036-2.7320251-0.2270813-5.464325-0.3231506-8.1963501c-0.4787903-0.0476074-0.934845-0.0833435-1.3659973-0.1076965
	c-0.4320374-0.0238647-0.8869629-0.0360413-1.3657532-0.0360413c-0.4319763,0-0.8750305,0.0121765-1.3311157,0.0360413
	C197.5365295,53.4582825,197.069397,53.4940186,196.5906067,53.541626L196.5906067,53.541626z"/>
<path class="st8" d="M219.5245972,74.1758423c0,1.2461243-0.0240784,2.3963928-0.071991,3.4511719
	c-0.0481873,1.0542297-0.1202087,2.108429-0.2151489,3.1626282c-0.0958252,1.0547485-0.2639465,2.1571655-0.5028687,3.3077393
	c-0.2401123,1.1497192-0.5281372,2.4202576-0.8631592,3.8103638c-0.0957947,0.1436768-0.263916,0.2156677-0.5039978,0.2156677
	c-2.7320557,0-4.9249268-0.0243225-6.5777893-0.071991c-1.6540527-0.0478516-2.9480286-0.107666-3.8820801-0.1796875
	c-0.9351196-0.0722656-1.5581665-0.1556396-1.8699951-0.251709c-0.3109436-0.0958252-0.4671631-0.2157593-0.4671631-0.3594666
	c0,0.0479431-0.0719604-0.7667542-0.2160034-2.4443054c-0.1439514-1.6775513-0.2148438-4.0977783-0.2148438-7.2614746H186.740509
	c-0.0961304,1.5814514-0.2160034,3.1872253-0.3599854,4.8171997c-0.1428833,1.6290588-0.4071045,3.3550415-0.7900696,5.1763306
	c-0.0960693,0.1436768-0.4668274,0.2272949-1.1148682,0.2511597c-0.6471252,0.0243225-1.3300171,0.0365601-2.0491333,0.0365601
	c-2.4440308,0-4.3608093,0-5.7509155,0s-2.4210815-0.0238342-3.092041-0.0723267
	c-0.6709595-0.0476074-1.091095-0.0836182-1.2580566-0.1079712c-0.1680603-0.0238342-0.2519836-0.0836182-0.2519836-0.1797485
	l-0.790863-10.2089233c-0.1431274-1.6775818-0.2392273-3.0673828-0.2871399-4.1697693
	c-0.0478821-1.102417-0.0720215-1.9890747-0.0720215-2.6603394c0-0.0960999,0.2160339-0.1916199,0.6471863-0.2874451
	c0.4308777-0.0954895,1.0187683-0.1680908,1.7619934-0.2153931c0.742981-0.0482178,1.605011-0.0960999,2.5877686-0.144043
	c0.9822083-0.0478821,2.0012512-0.0719604,3.0551758-0.0719604c0.6709595-0.5751648,1.2098389-1.593689,1.618042-3.0557556
	c0.303009-1.0856934,0.4917908-2.3241272,0.5708313-3.7148132c4.5921326-1.4176331,9.5950317-2.3578491,14.8609619-2.7238159
	c-0.1337891,1.1761169-0.2809143,2.2685547-0.4419556,3.2754517c-0.4319763,2.7082214-0.9110413,4.7570801-1.4379883,6.1472168
	c1.3901062,0,2.7921448,0,4.2060547,0s2.9119873,0.0237732,4.4929199,0.0717163
	c-0.1907959-2.5880737-0.3469543-5.2483826-0.4668884-7.9801331l-0.0720215-1.674408
	c5.3838806,0.0978088,10.5380859,0.7945557,15.3158875,1.9902039c-0.0509949,2.580658-0.0870056,5.2069702-0.1099548,7.8803406
	c1.3421936,0.0954895,2.0131531,0.167511,2.0131531,0.2153931V74.1758423L219.5245972,74.1758423z"/>
<path class="st2" d="M156.6164246,4.249115c5.2749939,0,9.9249268,0.971405,13.9510193,2.9154358
	c3.512085,1.6951294,6.5310059,3.9194641,9.058075,6.6716003c-1.7251282-1.309021-3.6030884-2.4533691-5.6341248-3.4338989
	c-4.3327637-2.0916748-9.3378906-3.1379089-15.0159607-3.1379089c-5.5768738,0-10.6078186,1.0210266-15.0899658,3.0628357
	c-4.481842,2.0423584-8.2910767,4.8560181-11.4289856,8.4418335c-3.13797,3.5855713-5.5278625,7.8437805-7.171936,12.774353
	c-1.1658936,3.4990845-1.9179382,7.2116089-2.2569885,11.1378784c-0.0039368-0.3157959-0.0059509-0.6321106-0.0059509-0.9507141
	c0-5.3677063,0.7639465-10.34198,2.2909851-14.9233398c1.5270386-4.58078,3.7479553-8.537323,6.6628418-11.868927
	c2.9151306-3.3318481,6.4550171-5.9461975,10.6199951-7.8434753C146.759491,5.1978455,151.4335938,4.249115,156.6164246,4.249115
	L156.6164246,4.249115z"/>
<path class="st2" d="M153.3934631,73.2092285c1.1060791,1.1574097,2.322937,1.7359619,3.651001,1.7359619
	c2.6069946,0,4.6989746-1.8175964,6.2770386-5.4527283c1.5769348-3.6354675,2.3660583-8.0597534,2.3660583-13.2726746
	c0-0.0711365,0-0.1417236,0-0.2120056c-0.414093,4.0668335-1.2990723,7.6625977-2.6552124,10.7875061
	c-1.9519348,4.4971619-4.5399475,6.7461853-7.7649536,6.7461853
	C154.6213989,73.5414734,153.9975281,73.4303284,153.3934631,73.2092285L153.3934631,73.2092285z"/>
<path class="st2" d="M183.7944336,39.9855042c2.3649292,0,4.9082336-0.0229492,7.6291809-0.068634
	c1.1868896-0.0237732,2.4548035-0.0444641,3.8049622-0.0623474c1.2900391-0.0161743,2.6540527-0.030304,4.0917664-0.041687
	c2.9452515-0.0231934,6.0242004-0.0348206,9.2361755-0.0348206c1.4720154,0,2.9329529,0.0348206,4.3840332,0.1040344
	c1.3028259,0.0620728,2.5438232,0.1706238,3.7218933,0.3262329c0.0260925-1.4411011-16.5620117-1.4731445-18.4640198-1.4584351
	c-1.0559082,0.0082397-2.0718384,0.0175781-3.0469666,0.0289307c-1.7458496,0.0203857-3.361908,0.0450439-4.8509521,0.0745239
	c-2.7209778,0.0462341-5.2650452,0.069458-7.6291199,0.069458c-0.4020081,0-0.6579285,0.1034851-0.7698975,0.3106995
	c-0.1108704,0.2075195-0.1669617,0.4955139-0.1669617,0.8642578c0,1.4740601,0.0220947,2.9021606,0.0668945,4.2843323
	c0.04422,1.3821411,0.1000671,2.9023438,0.1669312,4.5609131c0.0671997,1.6585388,0.1230469,3.5591736,0.1672363,5.7010498
	c0.0448303,2.1427002,0.066925,4.6652527,0.066925,7.567627c0,1.9349365-0.321991,4.0992126-0.7009888,5.5043335
	c-0.3790283,1.4051514-0.881012,2.3845215-1.506073,2.9369812c-0.9810486,0-1.9289551,0.0226746-2.8439941,0.0691833
	c-0.9150391,0.0458984-1.71698,0.0924072-2.408905,0.1383362c-0.6918945,0.0458679-1.2389832,0.1147461-1.6401062,0.2072144
	c-0.4019775,0.0921021-0.6020813,0.1842346-0.6020813,0.2763672c0,0.6448364,0.0220947,1.4972229,0.0671997,2.5568542
	c0.0439453,1.0596008,0.1400146,2.3952637,0.2669983,4.0084534c0.0830688,1.0491028,0.3730469,8.2935791,1.1460266,8.3542786
	l-0.0232239-7.2912598c-0.0047913-1.6185913-0.2228088-2.9486389-0.2667542-4.0082092
	c-0.0450439-1.0595703-0.0671387-1.9119568-0.0671387-2.5571594c0-0.0924072,0.2001343-0.1842041,0.6020813-0.2760925
	c0.401062-0.0923767,0.9479065-0.1615601,1.639801-0.207489c0.6911316-0.0461731,1.4941406-0.0926819,2.4092102-0.1383057
	c0.914978-0.0459595,1.8628845-0.0691528,2.8439941-0.0691528c0.625-0.5527954,1.1270447-1.532135,1.5060425-2.9369812
	c0.3789978-1.4051819,0.7009888-3.5690918,0.7009888-5.5043335c0-2.9026794-0.0220947-5.4252319-0.06604-7.5673828
	c-0.0450745-2.1421204-0.1009216-4.0427551-0.1681213-5.7010193c-0.066864-1.6591492-0.1229858-3.1790771-0.1669312-4.5615234
	c-0.0450745-1.381897-0.066925-2.8099976-0.066925-4.2843018c0-0.3687439,0.0549927-0.6564941,0.1669922-0.8639526
	C183.135376,40.0889587,183.3925171,39.9855042,183.7944336,39.9855042L183.7944336,39.9855042z"/>
<path class="st2" d="M203.8104553,63.1020508c0.111084,2.6257324,0.2559509,5.1828308,0.4351196,7.6705322
	c-1.2611389-0.0393982-10.9139404-0.1168213-11.2481689,0.7928467l8.1881714,0.2009888
	c1.3158569,0.0323181,2.7099304,0.0232239,4.1828003,0.0691223c-0.1270142-1.7628174-1.43573-18.4458618-2.3788147-18.5068359
	C203.0706177,55.6313477,203.7123718,60.7991638,203.8104553,63.1020508L203.8104553,63.1020508z"/>
<path class="st2" d="M219.4526062,77.6270142c-0.0481873,1.0539246-0.1202087,2.108429-0.2160034,3.1626282
	c-0.0549927,0.6063232-0.1340637,1.2279968-0.236145,1.8657837c0.0391235,0.3151855,0.0779724,0.6139526,0.1170654,0.8971558
	c0.0479126,0.5289612,0.2520142,0.9382935,0.6128845,1.2271118c0.1530762,0.1218872,0.3460693,0.2287292,0.5802307,0.3211365
	c-0.0680542-0.1728821-0.1122437-0.363678-0.1312256-0.5745544c-0.1918945-1.3954773-0.3849792-3.1881104-0.5780029-5.377594
	c-0.0467529-0.5445557-0.0949707-1.0978699-0.1428528-1.6605225
	C219.4565735,77.5346375,219.4545593,77.5808411,219.4526062,77.6270142L219.4526062,77.6270142z M221.5145264,47.5678711
	c1.4198608-0.2406311,3.3448792-0.420929,5.7750244-0.5414124c2.4298401-0.1202087,5.5709229-0.1802979,9.4200745-0.1802979
	h8.0849915c0.0059509,0,0.0118713,0,0.0178528,0c-0.0360107-0.6494141-0.3960266-0.9739685-1.0799866-0.9739685h-8.0849915
	c-3.8500366,0-6.9899597,0.0600891-9.420105,0.1805725c-2.4298401,0.1201782-4.3548279,0.3007507-5.7749939,0.5408325
	c-1.0539246,0.1791992-1.8629456,0.377594-2.4259338,0.5961304c-0.0149841,0.5822449-0.0308838,1.1644897-0.0478821,1.7469788
	c0.1318359-0.1958313,0.3370056-0.3755493,0.612854-0.5388184C219.1203918,48.0852356,220.095459,47.8085632,221.5145264,47.5678711
	L221.5145264,47.5678711z M218.8675232,70.0440979c-0.1281128-1.7949219-0.2440796-3.608551-0.348114-5.4405518
	c-0.1439819-2.5506287-0.2650146-4.8846436-0.3608398-7.0018921c-0.0960846-2.1171875-0.1811523-3.9103394-0.2531433-5.3778687
	c-0.0047913-0.1020508-0.0090332-0.2012329-0.013855-0.2973633c-0.0181885,0.5983887-0.0380249,1.1967773-0.0570068,1.7949219
	c-0.1221619,3.7950134-0.2131653,7.6980286-0.2709961,11.7096558c0.0929871,1.5224304,0.1958923,3.0327454,0.3070068,4.5291443
	C218.2784729,69.990509,218.6104431,70.0188599,218.8675232,70.0440979L218.8675232,70.0440979z"/>
<path class="st2" d="M232.116394,69.1327515c0,0,11.5369873-1.1313171,12.1651306-0.5779724
	c0.6278992,0.5524597-0.3769836,3.2671509-0.3769836,3.2671509s0.2009583-2.06073-0.4529724-2.5638733
	C242.7984314,68.7557068,232.116394,69.1327515,232.116394,69.1327515L232.116394,69.1327515z"/>
<path class="st2" d="M231.2155457,81.3205872c0,0,11.5358276-1.1310425,12.164856-0.5785828
	c0.6281738,0.5533752-0.3770142,3.2678223-0.3770142,3.2678223s0.2009888-2.0610962-0.4529419-2.5636597
	C241.897583,80.9438782,231.2155457,81.3205872,231.2155457,81.3205872L231.2155457,81.3205872z"/>
<path class="st9" d="M20.8612823,48.5577698c-0.0819244-3.3608093-0.1502228-25.4449463-0.2046661-28.4505005
	c-0.0549927-3.0056152-0.1230164-5.6420898-0.2049408-7.9100647c-0.0821991-2.2680359-0.1369019-4.0575256-0.1641235-5.3691406
	c-0.0274963-1.3115845-0.0411072-1.9402771-0.0411072-1.8855896c0-0.4918213-0.2193909-0.709259-0.6559296-0.7373047
	c-1.2588654-0.0813293-2.704834-0.2049561-4.3443909-0.2868652c-1.639267-0.0824585-3.2785492-0.1365967-4.9181061-0.1641541
	c-1.639267-0.0271912-3.1966248-0.054657-4.6720581-0.0819092C4.1805267,3.6447754,2.9508667,3.631134,1.9672546,3.631134
	c-0.3282776,0-0.6148376,0.6559753-0.8609009,1.9675598c-0.2457581,1.3115845-0.4371033,2.978363-0.5740204,5
	c-0.1366272,2.0220032-0.2454681,4.2488708-0.3276672,6.6804199c-0.0819397,2.4321594-0.1366425,4.7406921-0.1641388,6.9267578
	C0.0133057,26.3916626,0,47.2322388,0,48.9265137v3.4429626c0,3.0056152,0.0405273,6.5710144,0.1227264,10.6974182
	c0.0819397,4.1255493,0.3143616,9.1394348,0.6964874,15.0411682c0,0.1094055,0.9702911,0.2052307,2.9100342,0.2871704
	c1.9403229,0.0819092,4.4402008,0.19104,7.500473,0.3276672c3.0602875,0.1363525,6.516861,0.2593994,10.3691406,0.3693848
	c3.8528595,0.1087952,7.7054291,0.2046204,11.5582733,0.2865906c3.8522797,0.0819092,7.4998932,0.1505127,10.9428558,0.2051697
	c3.4429779,0.054718,6.3116302,0.0813599,8.6071167,0.0813599h3.9753113c1.3937836,0,2.9239349-0.0135803,4.5907135-0.0407715
	c1.6667633-0.0272522,3.48349-0.0683594,5.4507294-0.1227722c1.9675446-0.054718,4.1530609-0.1094055,6.5579681-0.1641235
	c0.2732544,0,0.5598297-0.054718,0.8603058-0.1638489c0.3004761-0.1094055,0.4512787-0.5193176,0.4512787-1.22995
	l0.2457581-2.7045593c0.054718-0.4920654,0.0819092-0.9155884,0.0819092-1.270752V67.902771
	c0-2.104126-0.0135803-5.0411072-0.0410767-8.8117981c-0.0272217-3.7706299-0.0683289-8.4840393-0.1230164-14.1403198
	c-0.0547333-5.6553955-0.1108551-31.4010925-0.1635742-39.4341736c-0.001709-0.2185364-0.137207-0.3963013-0.4101715-0.5326538
	c-0.2729645-0.1365967-0.9289093-0.2460327-1.9672546-0.3279724c-1.0383301-0.0821838-2.5409698-0.1369019-4.5082245-0.1637878
	c-1.9675293-0.0275269-4.6179199-0.0414124-7.9514618-0.0414124c-1.0383148,0-2.0083466,0.054718-2.9097443,0.1641235
	c-0.9019775,0.109436-1.4629822,0.3721924-1.5165558,0.8200989c-0.2202301,1.8518372-0.3143463,4.0299683-0.4506989,6.5168457
	c-0.1366272,2.4862366-0.2599487,5.1091309-0.3687744,7.8686829c-0.109726,2.7597656-0.1913605,24.474884-0.2460632,27.3435669
	c-0.0547028,2.8692017-0.1230164,5.6426392-0.2049408,8.3204956c-0.0821991,2.6776123-0.150528,5.1774902-0.2052155,7.5002136
	c-0.0544434,2.3224182-0.1091309,4.3035278-0.1635742,5.9425354c-0.2188416,0.0552979-0.9836273,0.0822144-2.2955017,0.0822144
	h-4.3440857c0-2.8417358,0.0816345-6.1203003,0.2457581-9.8365173c0.0547028-4.6995239,0.1230164-8.7437439,0.2046814-12.1314087
	c0.0819092-3.3885498,0.1507874-11.397583,0.2052002-13.7744141c0.0544434-2.3774109,0.0955505-4.3313599,0.1230469-5.8609314
	c0.0271912-1.5300903,0.0546875-2.773407,0.0819092-3.7294922c0.0274963-0.9566956,0.0547028-1.7214966,0.0816345-2.2955017
	c0.0277863-0.5737305,0.0413818-1.1066589,0.0413818-1.5984802c0-0.3824158-0.0683136-0.6148071-0.2049255-0.6967773
	c-0.1369324-0.0821533-0.4161377-0.2145691-0.8605957-0.2868652c-1.9074554-0.3103638-3.9486847-0.4506836-6.107254-0.5326233
	c-2.1585846-0.0821838-4.33078-0.1230164-6.5162964-0.1230164c-2.0769196,0-3.7984161,0.0819092-5.164444,0.2457886
	c-1.3659973,0.1638489-2.0491486,0.7106018-2.0491486,1.6395264c0,7.5957031,0.1230164,20.2229309,0.3690643,27.627594
	c0.2457581,7.4040833,0.559845,14.5222168,0.9422302,21.3531189h-7.3768768c0-3.2244263-0.0141602-6.5985107-0.0411072-10.1236877
	C20.9981995,55.3611755,20.9434814,51.9185181,20.8612823,48.5577698L20.8612823,48.5577698z"/>
<path class="st10" d="M74.7184143,38.1721497l-0.0121918-3.0285339c-1.9167786,0.320343-3.8842926,0.4895935-5.8920898,0.4895935
	c-5.1426086,0-10.0292664-1.0950317-14.441391-3.0620117l-0.0215454,3.2396851
	c4.4660034,1.811676,9.3472595,2.8120117,14.4629364,2.8120117C70.8219299,38.6228943,72.7934113,38.4686584,74.7184143,38.1721497
	L74.7184143,38.1721497z M47.7277679,32.3359375c0.0303345-1.3450623,0.0558624-2.5401306,0.0765381-3.5858459
	c-3.8551178-2.8346252-7.1161041-6.4295654-9.5632477-10.5630188c-1.1468964-0.0260925-2.2971954-0.0402527-3.4514618-0.0431213
	C37.8416748,23.8951721,42.3085022,28.7812805,47.7277679,32.3359375L47.7277679,32.3359375z"/>
<path class="st10" d="M32.3121185,51.3300476c5.2335968,0,10.2906036,0.5640564,15.0715485,1.6126404
	c-0.0320587,1.9300842-0.0609741,4.0064392-0.0867615,6.2302246c-0.1641235,3.716217-0.2457581,6.9947815-0.2457581,9.8365173
	h4.3440857c1.3118744,0,2.0766602-0.0269165,2.2955017-0.0822144c0.0544434-1.6390076,0.1091309-3.6201172,0.1635742-5.9425354
	c0.0546875-2.3227234,0.1230164-4.8226013,0.2052155-7.5002136l0.0209808-0.7018433
	c8.2601471,2.7552795,15.4179077,7.0293274,20.8397522,12.3494263l0.000824,0.7707214v6.0658569
	c0,0.3551636-0.0271912,0.7786865-0.0819092,1.270752l-0.2457581,2.7045593c0,0.7106323-0.1508026,1.1205444-0.4512787,1.22995
	c-0.3004761,0.1091309-0.5870514,0.1638489-0.8603058,0.1638489c-2.4049072,0.054718-4.5904236,0.1094055-6.5579681,0.1641235
	c-1.9672394,0.0544128-3.7839661,0.09552-5.4507294,0.1227722c-1.6667786,0.0271912-3.1969299,0.0407715-4.5907135,0.0407715
	h-3.9753113c-2.2954865,0-5.1641388-0.0266418-8.6071167-0.0813599c-3.4429626-0.054657-7.0905762-0.1232605-10.9428558-0.2051697
	c-3.8528442-0.0819702-7.7054138-0.1777954-11.5582733-0.2865906c-3.8522797-0.1099854-7.3088531-0.2330322-10.3691406-0.3693848
	c-3.0602722-0.1366272-5.5601501-0.2457581-7.500473-0.3276672c-1.939743-0.0819397-2.9100342-0.1777649-2.9100342-0.2871704
	C0.437088,72.2063293,0.2046661,67.1924438,0.1227264,63.0668945c-0.0255127-1.2705078-0.0464935-2.4871521-0.0640564-3.6516113
	c6.0811768-3.4389648,13.1723022-5.9289551,20.8808594-7.1767578c0.0396729,2.182373,0.0682983,4.3985291,0.0858765,6.6472168
	c0.026947,3.525177,0.0411072,6.8992615,0.0411072,10.1236877h7.3768768
	c-0.3160553-5.645752-0.5856323-11.4879761-0.8081512-17.5254822C29.177002,51.3844299,30.7354889,51.3300476,32.3121185,51.3300476
	L32.3121185,51.3300476z"/>
<path class="st2" d="M47.294342,21.4154663c-1.6364288-0.2781067-3.384552-0.40625-5.2307587-0.4816284
	c-1.8938141-0.0773621-3.7998505-0.1153564-5.7174835-0.1153564c-1.8223877,0-3.3326874,0.0771179-4.5311584,0.231842
	c-1.1990662,0.1548157-1.7980347,0.6712952-1.7980347,1.5491333c0,7.1770325-0.0889893,22.0731201,0.1221771,29.0695801
	c0.1717682,5.684906,0.3753052,11.1418457,0.6389313,16.5344849c0.1113892,2.2736816,0.4181213,3.6414185-2.0707092,3.6414185
	h-8.1850433c0-0.9841919,5.2140656-1.3016663,7.9066925-1.3923645c1.1797638-0.0397339,1.4331665-0.9003296,1.378479-2.0021362
	c-0.2905579-5.8496094-0.5329285-11.9185791-0.726532-18.2060547c-0.2159882-6.996521-0.1230164-21.8928223-0.1230164-29.0698547
	c0-0.8781738,0.5995178-1.3941345,1.7980347-1.5488892c1.1987457-0.1550598,2.7093353-0.2321777,4.5311584-0.2321777
	c1.917923,0,3.8242188,0.0386047,5.7180481,0.1159668C42.0437317,19.5516663,47.3167419,20.0364075,47.294342,21.4154663
	L47.294342,21.4154663z M55.116272,68.9561462c0.0348816-1.2430115,0.0689087-2.6526489,0.1037445-4.2290039
	c0.0476379-2.1940308,0.1077271-4.5563965,0.1794434-7.0866089c0.0720062-2.5299377,0.1318207-5.1502991,0.1797028-7.8607788
	c0.0482025-2.7110596,0.1199188-23.2284851,0.2157288-25.8360901c0.0960846-2.6078796,0.2038116-5.085907,0.3240051-7.4349976
	c0.1199036-2.3496399,0.2018433-7.8258972,0.3957062-9.5759888c0.0464935-0.4226379,0.5391541-0.6715393,1.330307-0.7744141
	C58.6360474,6.0550842,59.48703,6.003479,60.3980713,6.003479c2.9250793,0,5.2503204,0.0127563,6.9766235,0.0385742
	c0.9915619,0.0149841,6.0375366,0.2545166,6.0457306,1.7010193c-0.2752228-0.0453186-0.6187897-0.0861511-1.0317841-0.1207275
	c-0.9105225-0.0779724-2.229187-0.1292725-3.95578-0.1550293c-1.7259827-0.0258179-4.0515594-0.0388489-6.9760437-0.0388489
	c-0.9110413,0-1.7623138,0.0515442-2.5534515,0.1547241c-0.790863,0.1029358-1.2838135,0.3521118-1.330307,0.7744751
	c-0.1932983,1.7500916-0.2758179,7.2263489-0.3956909,9.5754089c-0.1199341,2.3496399-0.2276459,4.8276978-0.3234558,7.4355469
	c-0.0960999,2.6070557-0.1683655,23.1250305-0.2160034,25.8355408c-0.0478973,2.7104797-0.1076965,5.3313904-0.1797028,7.8613281
	C56.3862,61.5956726,56.3862,63.9600525,56.2784729,66.1524048c-0.049881,1.0122375-0.108551,1.9544983-0.1082764,2.8283691
	c0.0005646,2.0018311-0.9396667,2.8338013-2.8065796,2.8641663c-1.9817047,0.0323181-6.4627075,0-7.6541138,0
	c0-1.0227661,5.2676239-1.2234802,7.9310608-1.3748169C54.721405,70.408905,55.0859375,70.0690002,55.116272,68.9561462
	L55.116272,68.9561462z M2.8343506,75.5753479c-0.6562195-0.0541382-0.9847565-0.1134033-0.9847565-0.1777649
	c-0.3356171-5.5760498-0.5394287-10.3135681-0.6114349-14.2120667c-0.0717163-3.8981934-0.1076965-7.2674561-0.1076965-10.1069031
	c0-0.5683594,0-1.6523132,0-3.2533264c0-1.6004333,0.0121765-21.2921753,0.0359802-23.3572083
	c0.023819-2.0658875,0.0717163-4.2471313,0.1437225-6.5446472c0.071991-2.2977295,0.1680908-4.401886,0.2879944-6.3121643
	C1.717514,9.7006836,1.8856201,8.1257935,2.101593,6.8867493C2.3173218,5.6477356,2.5687561,5.027771,2.8567657,5.027771
	c0.8631439,0,1.9417114,0.0130615,3.2366028,0.0388489c1.2945709,0.0257874,2.6605682,0.0518799,4.0991669,0.0773926
	c1.4383087,0.0258179,2.8768768,0.0779419,4.3151703,0.1550598c0.8937683,0.0479126,4.3747101,0.2727051,4.4024963,1.6616516
	c-0.9909973-0.0745544-2.1047363-0.1700439-3.34375-0.2369385c-1.4383087-0.0773926-2.8766022-0.1289978-4.3151855-0.1548157
	c-1.4382782-0.0254822-2.8051605-0.0513-4.0997467-0.0771179C5.8569336,6.4655151,4.7780762,6.4527893,3.9151917,6.4527893
	c-0.2877045,0-0.5394287,0.6193237-0.7554169,1.8583984c-0.2157288,1.2395325-0.3835297,2.8145142-0.5031586,4.7247925
	c-0.1198883,1.9104919-0.2160034,4.014679-0.2877045,6.3118896c-0.0720062,2.2983398-0.1201935,4.4793091-0.1439972,6.545166
	C2.2008057,27.9580994,2.189209,47.6495056,2.189209,49.2502441c0,1.6009827,0,2.684967,0,3.2527771
	c0,2.8399963,0.0357056,6.2089844,0.1076965,10.1074829C2.3632355,66.2147522,2.5426636,70.5361938,2.8343506,75.5753479
	L2.8343506,75.5753479z"/>
<path class="st11" d="M95.980545,39.9270935c1.6392517,7.2133179,3.1832733,14.3313904,4.6309509,21.3536682
	c1.4479218,7.0219727,2.8008881,14.1125488,4.0580902,21.2714844c0,0.874176-0.4101868,1.3113098-1.2299805,1.3113098
	c-2.4590454,0-4.8222809-0.0130615-7.0903015-0.040863c-2.2679901-0.026886-4.6312408-0.1773987-7.0902863-0.4509583
	c-0.3282623-0.1091309-0.6012268-0.2455139-0.8197784-0.4096375c-0.2185669-0.1637878-0.3829651-0.5737-0.4918213-1.2296753
	c-0.1094055-0.4917908-0.178009-0.928894-0.2052155-1.3118591c-0.0269318-0.3818359-0.0683136-0.928894-0.1230316-1.6389465
	c-0.655365,0.4370728-1.3388062,0.8058777-2.0488892,1.1065979c-0.7103577,0.3005066-1.1480103,0.4507446-1.3115845,0.4507446
	c-0.2735291,0-0.6012268-0.0955505-0.9836121-0.2868958c-0.3829651-0.1913147-0.6559448-0.4234924-0.8200684-0.6967468
	l-0.3276672,1.7217712c-0.0547333,0.4917908-0.1366577,0.874176-0.2460632,1.1471863
	c-0.1094208,0.2732544-0.3959961,0.4779053-0.8605957,0.6148071c-0.464325,0.1366577-1.202179,0.2185974-2.2133026,0.2460327
	c-1.0108337,0.0272217-2.4179535,0.0411072-4.221344,0.0411072c-2.1313782,0-3.8392487-0.0138855-5.1236267-0.0411072
	c-1.2837982-0.0274353-2.2810211-0.0957642-2.991684-0.204895c-0.7106476-0.109436-1.1749573-0.2596436-1.3937988-0.4509888
	c-0.2182617-0.1911011-0.3276825-0.4507446-0.3276825-0.7789917c0-0.1088257,0-0.2454834,0-0.4096069
	c0-0.1635437,0.0272064-0.3823853,0.0819244-0.655365c1.5848389-6.8862,3.3063202-13.7307434,5.1641541-20.5341797
	c1.8581085-6.8036804,3.8253479-13.5938416,5.9023132-20.369751c0.1091309-0.3279724,0.3004608-0.5740051,0.5734558-0.7378845
	c0.2735138-0.1638184,0.7106171-0.2868347,1.3115692-0.3687439c0.6012421-0.0822144,1.4207306-0.1369324,2.4590607-0.1641235
	c1.0383148-0.0275269,2.3774109-0.040863,4.0169678-0.040863c2.2952118,0,4.1941528,0.0272217,5.6967926,0.0819702
	c1.5026398,0.0546875,2.677597,0.1502075,3.5245972,0.2868652c0.84729,0.1363525,1.4485016,0.3004456,1.8033905,0.4917603
	C95.6386719,39.4219666,95.8711243,39.6538391,95.980545,39.9270935L95.980545,39.9270935z M86.4719849,69.35495
	c0.3276978,0,0.7920074,0.1369019,1.3932343,0.4096069c-0.2729645-1.6939392-0.6012268-3.2513428-0.9836273-4.6723022
	c-0.3823853-1.4207458-0.8742065-3.1969604-1.475708-5.3283081c-0.5459595,1.7489624-1.0383301,3.565979-1.4754333,5.4512939
	c-0.4371033,1.8855896-0.8742065,3.8117371-1.3113098,5.7787476c1.2565918-0.764801,2.090271-1.2294312,2.5001526-1.3932495
	C85.5289154,69.4371643,85.9801941,69.35495,86.4719849,69.35495L86.4719849,69.35495z"/>
<path class="st12" d="M99.8455658,57.5996704c0.214859,1.0230408,0.4280548,2.044342,0.6389313,3.0636902
	c-10.7450104-0.8875122-20.2365417-6.1882935-26.6618347-14.084198c0.3480988-1.1795044,0.6996002-2.3589783,1.0541992-3.537323
	C80.6173096,51.0037842,89.5745239,56.4913635,99.8455658,57.5996704L99.8455658,57.5996704z"/>
<path class="st13" d="M82.1168365,81.1672363c-0.0543976,0.4483948-0.1332245,0.8007507-0.2355499,1.0570374
	c-0.1094208,0.2732544-0.3959961,0.4779053-0.8605957,0.6148071c-0.464325,0.1366577-1.202179,0.2185974-2.2133026,0.2460327
	c-1.0108337,0.0272217-2.4179535,0.0411072-4.221344,0.0411072c-2.1313782,0-3.8392487-0.0138855-5.1236267-0.0411072
	c-1.2837982-0.0274353-2.2810211-0.0957642-2.991684-0.204895c-0.7106476-0.109436-1.1749573-0.2596436-1.3937988-0.4509888
	c-0.2182617-0.1911011-0.3276825-0.4507446-0.3276825-0.7789917c0-0.1088257,0-0.2454834,0-0.4096069
	c0-0.1635437,0.0272064-0.3823853,0.0819244-0.655365c0.3092499-1.3421936,0.6230469-2.6832581,0.9425049-4.0223694
	C71.7590637,77.3543396,77.298233,78.9490967,82.1168365,81.1672363L82.1168365,81.1672363z"/>
<path class="st2" d="M88.9491882,71.1603699c-0.2519989-1.5605164-0.553894-2.9948425-0.9062347-4.303833
	c-0.3330536-1.2367859-0.6550751-2.1322327-0.2701263-3.3638916c0.5533142,1.9632874,1.0065613,3.5991211,1.3591919,4.9076233
	c0.352356,1.3096313,0.6539612,2.743927,0.9059601,4.3044128c-2.0157013-0.9158936-5.187973-0.5751648-7.0446625,0.5547485
	C83.4324036,71.2848206,87.0417786,70.2937927,88.9491882,71.1603699L88.9491882,71.1603699z"/>
<path class="st2" d="M95.1644287,41.5791321c0.1000671,0.4399414,0.1992645,0.879303,0.2984924,1.3183594
	c-0.6655579-2.1761169-13.881546-1.6990356-16.098526-1.3966064c-0.5533142,0.0753784-0.9566803,0.1885071-1.2081146,0.3395996
	c-0.251709,0.1508179-0.4351196,0.3750305-0.5283813,0.6794434c-3.5552216,11.5744324-7.8239136,22.9309082-11.1571655,36.5127869
	c1.4598389-6.3430481,3.0452576-12.6478577,4.7570953-18.9152832c1.7112885-6.267395,3.5237427-12.522644,5.4365692-18.7644958
	c0.1009064-0.3018799,0.2766724-0.5286865,0.528656-0.6795044c0.2514648-0.151062,0.6542664-0.2644653,1.2081299-0.3398438
	c0.553894-0.0754089,1.3090515-0.125885,2.2651672-0.151062c0.9566956-0.025238,2.1900635-0.0377197,3.7000732-0.0377197
	c2.1143494,0,3.8636169,0.0249634,5.2480469,0.0753784c1.3844452,0.0504456,2.4664307,0.138916,3.2467957,0.2644958
	c0.7803955,0.125824,1.3340149,0.2766418,1.6614075,0.4526978C94.8500671,41.1139832,95.0640869,41.3277283,95.1644287,41.5791321
	L95.1644287,41.5791321z"/>
<path class="st14" d="M138.3304443,57.4251099c0,2.950531-0.5317993,5.4779358-1.5979309,7.5818176
	c-1.0660706,2.1038818-2.5001221,3.8528442-4.3041077,5.2460327c-1.8028259,1.3937988-3.9070129,2.4726868-6.3118896,3.2380371
	c-2.4041138,0.7653809-4.9450378,1.2843933-7.6229248,1.5576477v4.5904236c0,0.4370728-0.2321777,0.7783813-0.6970825,1.0247192
	c-0.4639893,0.2460327-1.0791016,0.4370728-1.8439026,0.573761c-0.7650757,0.136322-1.625946,0.2188416-2.5821228,0.2457275
	c-0.9560852,0.0272217-1.8988953,0.040802-2.8280945,0.040802c-1.3659973,0-2.5137634,0-3.4429932,0
	c-0.9288635,0-1.7078552,0-2.3359985,0c-0.6289978,0-1.1607666-0.0135803-1.5978699-0.040802
	c-0.4379578-0.026886-0.8481293-0.068573-1.2299805-0.1230164c-0.2191162-0.2732849-0.4920654-1.2704773-0.8200531-2.9919739
	c-0.3279724-1.7208862-0.6559296-3.8794556-0.9830475-6.475708c-0.3288269-2.5957031-0.6559448-5.464386-0.9839172-8.6071777
	c-0.3282471-3.1421814-0.6287079-6.2432556-0.9019928-9.3035583c-0.2729645-3.0603027-0.491806-5.9292603-0.6559296-8.606842
	c-0.163559-2.6775818-0.2457581-4.8912048-0.2457581-6.6398621c0-0.5465088,0.4371033-1.0519409,1.3118744-1.5162354
	c0.8739319-0.4646301,2.0488739-0.8745117,3.5248871-1.230011c1.4760132-0.3548584,3.1830139-0.6281128,5.1227722-0.8194885
	c1.940033-0.1913147,3.9480591-0.2871399,6.0250549-0.2871399c3.8250427,0,7.282196,0.5604553,10.3690796,1.6806946
	c3.0881042,1.1202393,5.724884,2.6778564,7.9109802,4.6723022c2.1849365,1.994751,3.8519897,4.3716431,5,7.132019
	C137.7564087,51.1264954,138.3304443,54.1459656,138.3304443,57.4251099L138.3304443,57.4251099z M123.9853821,61.8511047
	c0-1.3659973-0.4778748-2.3635254-1.434021-2.9922791c-0.9569702-0.6278687-1.9819946-0.9419556-3.0739136-0.9419556
	c-0.1638184,0-0.3418274,0-0.5328674,0c-0.1910706,0-0.3421326,0.026947-0.4509888,0.0813599v9.0994873
	c1.6939697-0.1646729,3.0330505-0.7247925,4.0169373-1.6809387
	C123.4936218,64.4603882,123.9853821,63.2723694,123.9853821,61.8511047L123.9853821,61.8511047z"/>
<path class="st15" d="M138.3304443,57.4251099c0,2.950531-0.5317993,5.4779358-1.5979309,7.5818176
	c-1.0660706,2.1038818-2.5001221,3.8528442-4.3041077,5.2460327c-1.8028259,1.3937988-3.9070129,2.4726868-6.3118896,3.2380371
	c-2.4041138,0.7653809-4.9450378,1.2843933-7.6229248,1.5576477v4.5904236c0,0.4370728-0.2321777,0.7783813-0.6970825,1.0247192
	c-0.4639893,0.2460327-1.0791016,0.4370728-1.8439026,0.573761c-0.7650757,0.136322-1.625946,0.2188416-2.5821228,0.2457275
	c-0.9560852,0.0272217-1.8988953,0.040802-2.8280945,0.040802c-1.3659973,0-2.5137634,0-3.4429932,0
	c-0.9288635,0-1.7078552,0-2.3359985,0c-0.6289978,0-1.1607666-0.0135803-1.5978699-0.040802
	c-0.4379578-0.026886-0.8481293-0.068573-1.2299805-0.1230164c-0.2191162-0.2732849-0.4920654-1.2704773-0.8200531-2.9919739
	c-0.3279724-1.7208862-0.6559296-3.8794556-0.9830475-6.475708c-0.3160706-2.5024719-0.6318512-5.2583008-0.9484863-8.268158
	c8.5634766-6.3858643,20.0996399-10.3007813,32.7926025-10.3007813c2.059906,0,4.0889587,0.1034546,6.0800476,0.3032837
	C138.2394409,54.851532,138.3304443,56.1174316,138.3304443,57.4251099L138.3304443,57.4251099z M123.9853821,61.8511047
	c0-1.3659973-0.4778748-2.3635254-1.434021-2.9922791c-0.9569702-0.6278687-1.9819946-0.9419556-3.0739136-0.9419556
	c-0.1638184,0-0.3418274,0-0.5328674,0c-0.1910706,0-0.3421326,0.026947-0.4509888,0.0813599v9.0994873
	c1.6939697-0.1646729,3.0330505-0.7247925,4.0169373-1.6809387
	C123.4936218,64.4603882,123.9853821,63.2723694,123.9853821,61.8511047L123.9853821,61.8511047z"/>
<path class="st2" d="M103.4504089,79.8318176c-0.0668945-0.0084839-0.1338501-0.0172729-0.1990356-0.0266113
	c-0.2049255-0.2559814-0.4597473-1.1896973-0.7667847-2.8012085c-0.308075-1.6118164-0.6150818-3.6329041-0.9220963-6.0630188
	c-0.3069534-2.4304504-0.6139603-5.1165466-0.9209671-8.0583801c-0.3069916-2.9417419-0.5878906-5.8450012-0.844162-8.7108154
	C99.5425415,51.306488,99.337616,48.620697,99.18396,46.113739c-0.1533508-2.5072632-0.2304535-4.5791016-0.2304535-6.2164001
	c0-0.5119324,0.4093323-0.9847717,1.2279816-1.4201355c0.8189087-0.4346008,1.9190216-0.8180847,3.3001099-1.1511841
	c1.3809814-0.3322144,2.9808655-0.5879211,4.7970581-0.7670288c1.8158264-0.1794434,3.6969299-0.2687378,5.6397705-0.2687378
	c3.5821533,0,6.8181763,0.5244141,9.7089539,1.5734863c2.8901978,1.0488281,5.3591614,2.506958,7.4060974,4.3744507
	c1.0800171,0.9859009,2.0250854,2.0715332,2.8340759,3.257019c-0.5870361-0.72229-1.2299805-1.4023438-1.9301453-2.0412292
	c-2.0618896-1.8822021-4.5498657-3.3514099-7.4619141-4.4078979c-2.9139709-1.0570374-6.1749878-1.5856934-9.7829285-1.5856934
	c-1.9589844,0-3.8539734,0.0904236-5.6839905,0.2709656c-1.8300781,0.180603-3.440979,0.4379578-4.8330688,0.7733154
	c-1.3921204,0.335083-2.5010223,0.7219849-3.3259125,1.159668c-0.8240356,0.4382324-1.23703,0.9152832-1.23703,1.4309082
	c0,1.6494751,0.0768127,3.7377625,0.2318573,6.2640076c0.1550598,2.5259399,0.361145,5.2330322,0.6191101,8.1201172
	c0.2579498,2.8865051,0.5408325,5.812439,0.8500977,8.7763367c0.309845,2.9644775,0.6188049,5.6712646,0.9277649,8.1201477
	c0.3101501,2.4485779,0.6191101,4.4855652,0.9280701,6.1092529
	C103.2683716,79.0038147,103.3625183,79.4525757,103.4504089,79.8318176L103.4504089,79.8318176z"/>
<path class="st2" d="M123.6985168,67.3953857c1.2818604-1.2458191,1.9230652-2.7940979,1.9230652-4.6451416
	c0-1.1919861-0.2800598-2.1687927-0.8390808-2.9299011c0.0989075,0.4473267,0.1491089,0.9325867,0.1491089,1.4567261
	c0,2.0109253-0.6961975,3.6935425-2.0891113,5.0473633c-0.9751587,0.947937-2.1960449,1.6208496-3.664917,2.0188599
	c-0.2310486,0.0626221-0.4679871,0.1184998-0.7109375,0.1675415v1.0740356
	c0.6607361-0.0640564,1.2809448-0.1745911,1.8598022-0.3313599
	C121.6774597,68.8869629,122.8013916,68.2678833,123.6985168,67.3953857L123.6985168,67.3953857z"/>
</svg>
