<?xml version="1.0" encoding="utf-8"?>
<!-- Generator: Adobe Illustrator 22.0.1, SVG Export Plug-In . SVG Version: 6.00 Build 0)  -->
<svg version="1.1" id="Capa_1" xmlns="http://www.w3.org/2000/svg" xmlns:xlink="http://www.w3.org/1999/xlink" x="0px" y="0px"
	 viewBox="0 0 512 512" style="enable-background:new 0 0 512 512;" xml:space="preserve">
<style type="text/css">
	.st0{fill:#0059A9;}
</style>
<g>
	<g>
		<g>
			<path class="st0" d="M320.4,309.6c-9.3-9.4-21.7-14.5-34.8-14.5h-0.1c-10.8,0-21,3.4-29.5,9.8c-8.5-6.4-18.7-9.8-29.5-9.8h-0.1
				c-13.2,0-25.6,5.2-34.8,14.5c-19.1,19.2-18.9,50.5,0.4,69.8l49.4,49.4c3.9,3.9,9.1,6,14.5,6s10.7-2.1,14.5-6l49.4-49.4
				C339.3,360.1,339.5,328.8,320.4,309.6z M309.4,368.8L260,418.2c-2.2,2.2-5.7,2.2-7.9,0l-49.4-49.4c-13.5-13.5-13.7-35.3-0.4-48.6
				c6.5-6.5,15.1-10.1,24.2-10.1h0.1c9.1,0,17.7,3.6,24.2,10c1.4,1.4,3.3,2.2,5.3,2.2s3.9-0.8,5.3-2.2c6.5-6.5,15.1-10,24.2-10h0.1
				c9.2,0,17.8,3.6,24.2,10.1C323.1,333.5,322.9,355.3,309.4,368.8z"/>
			<path class="st0" d="M185.1,139.8c0-10-8.1-18.1-18.1-18.1s-18.1,8.1-18.1,18.1c0,4.1,3.4,7.5,7.5,7.5s7.5-3.4,7.5-7.5
				c0-1.7,1.4-3.1,3.1-3.1s3.1,1.4,3.1,3.1c0,4.1,3.4,7.5,7.5,7.5S185.1,143.9,185.1,139.8z"/>
			<path class="st0" d="M470.7,195.7c-3.4-1.7-7-3-10.7-3.9c-19.7-4.4-39.9,5.1-49.2,23.1c-7.4,14.4-29.4,34.9-47.9,41.7
				c-2-2.1-4-4.1-6.1-6c16.3-14.8,28.6-33.2,35.5-53.1c1.4-3.9-0.7-8.2-4.6-9.5c-3.9-1.4-8.2,0.7-9.5,4.6
				c-7.9,22.9-24.1,43.5-45.5,58c-22.3,15.1-48.8,23-76.7,23c-70.6,0-128-51.8-128-115.6c0-63.7,57.4-115.6,128-115.6
				s128,51.8,128,115.6c0,2.4-0.1,4.8-0.2,7.2c-0.3,4.1,2.8,7.7,7,8c4.1,0.3,7.7-2.8,8-7c0.2-2.7,0.3-5.5,0.3-8.2
				c0-11.7-1.7-23-4.9-33.8c22.5-10.8,37.2-33.6,37.2-59C431.3,29.3,402,0,365.9,0c-24.9,0-47.6,14.3-58.6,36.3
				c-15.9-5.6-33.3-8.7-51.4-8.7s-35.4,3.1-51.4,8.7C193.7,14.3,171,0,146.1,0c-3.6,0-7.3,0.3-10.8,0.9c-4.1,0.7-6.8,4.5-6.2,8.6
				c0.7,4.1,4.5,6.8,8.6,6.2c2.7-0.5,5.5-0.7,8.3-0.7c18.9,0,36,10.6,44.6,27c-4.5,2.1-8.9,4.5-13.2,7c-6-11.5-17.9-19.1-31.4-19.1
				c-19.5,0-35.4,15.9-35.4,35.4c0,13.5,7.6,25.5,19.1,31.5c-2.5,4.3-4.8,8.7-6.8,13.3c-16.6-8.5-27.3-25.7-27.3-44.8
				c0-16.1,7.8-31.3,20.8-40.8c3.3-2.4,4.1-7.1,1.6-10.5c-2.4-3.3-7.1-4.1-10.5-1.6C90.8,24.8,80.7,44.6,80.7,65.4
				c0,25.4,14.7,48.2,37.2,59c-3.2,10.8-4.9,22.1-4.9,33.8c0,36.1,16.1,68.9,42.2,92.5c-2.1,2-4.2,4-6.2,6
				c-18.4-6.8-40.5-27.4-47.9-41.7c-9.2-18-29.4-27.5-49.2-23.1c-3.7,0.8-7.3,2.1-10.7,3.9c-10.6,5.4-18.4,14.6-22,25.9
				s-2.7,23.4,2.8,33.9c16.6,32.4,52,64.9,87.4,80.9c-1.2,7.5-1.8,15-1.8,22.7c0,6.8,0.3,13.3,0.9,19.6
				c-20.3,11.3-33.3,33.1-33.9,58c-0.1,4.1,3.2,7.6,7.3,7.7c4.1,0.1,7.6-3.2,7.7-7.3c0.6-21,12.1-39,29.8-47.1
				c0.2-0.1,0.4-0.2,0.6-0.3c1.1-0.5,2.3-1,3.5-1.4c13-4.6,27.3-3.5,40,3.1c12.9,6.7,22.8,18.2,27.8,32.4c5,14.2,4.6,29.4-1.3,42.7
				c-0.8,1.8-1.7,3.6-2.7,5.3c-0.1,0.1-0.1,0.2-0.2,0.3c-6,10.3-15.2,18-26.3,21.9c-25.5,9-54.6-4.8-66.2-31.4
				c-1.7-3.8-6.1-5.5-9.9-3.9c-3.8,1.7-5.5,6.1-3.9,9.9c7.1,16.3,19.7,29.3,35.3,36.7c9.1,4.3,18.7,6.5,28.4,6.5
				c7.2,0,14.4-1.2,21.3-3.7c12.7-4.5,23.5-12.8,31.2-23.8c17.1,4.5,36.9,6.8,58.8,6.8s41.7-2.3,58.8-6.8
				c7.7,11,18.5,19.3,31.2,23.8c7,2.5,14.1,3.7,21.3,3.7c10.4,0,20.8-2.5,30.6-7.6c16.3-8.5,28.8-22.9,35.1-40.7
				c6.3-17.8,5.7-36.9-1.7-53.7c-5.9-13.5-15.7-24.3-28-31.2c0.6-6.3,0.9-12.9,0.9-19.6c0-7.7-0.6-15.3-1.8-22.7
				c35.4-16,70.8-48.5,87.4-80.9C501.2,233.7,492.5,206.8,470.7,195.7z M373.8,84.2c-7.5-10-16.5-19-26.8-26.7
				C350.2,50,357.5,45,365.9,45c11.3,0,20.4,9.2,20.4,20.4C386.4,73.8,381.3,81.1,373.8,84.2z M365.9,15c27.8,0,50.4,22.6,50.4,50.4
				c0,19-10.7,36.2-27.3,44.8c-2-4.6-4.3-9-6.8-13.3c11.5-6,19.1-17.9,19.1-31.5c0-19.5-15.9-35.4-35.4-35.4
				c-13.5,0-25.5,7.6-31.4,19.1c-4.2-2.6-8.6-4.9-13.2-7C329.9,25.6,347.1,15,365.9,15z M125.7,65.4c0-11.3,9.2-20.4,20.4-20.4
				c8.4,0,15.7,5.1,18.9,12.6c-10.2,7.7-19.2,16.7-26.8,26.7C130.7,81.1,125.7,73.8,125.7,65.4z M112.6,321.3
				c-31.5-15.1-62.4-43.9-77.2-72.7c-3.6-7-4.2-15-1.8-22.5c2.4-7.5,7.6-13.6,14.6-17.2c2.3-1.2,4.6-2,7.1-2.6
				c13.1-2.9,26.5,3.4,32.6,15.3c8.3,16.1,30.1,37.1,50.9,46.8C126.5,284.3,117.6,302.2,112.6,321.3z M307.5,470.9
				c-15.1,3.6-32.3,5.4-51.4,5.4s-36.4-1.8-51.4-5.4c6.7-16.4,7.1-34.8,1-52c-6.3-17.8-18.8-32.3-35.1-40.7
				c-15-7.8-31.6-9.6-47.3-5.3c-0.3-4.4-0.5-9-0.5-13.7c0-8.8,0.9-17.4,2.5-25.9c0,0,0,0,0-0.1c4.6-23.3,15.5-45,31.5-62.8
				c0,0,0-0.1,0.1-0.1c3.2-3.5,6.6-6.9,10.1-10.1c24.4,17.8,55.4,28.5,89,28.5c30.9,0,60.3-8.9,85.1-25.6c1.3-0.9,2.7-1.9,4-2.8
				c3.6,3.2,6.9,6.5,10.1,10.1c0,0,0,0,0,0.1c16,17.8,26.9,39.4,31.5,62.8c0,0,0,0,0,0.1c1.7,8.4,2.5,17.1,2.5,25.9
				c0,4.7-0.2,9.3-0.5,13.7c-15.7-4.3-32.3-2.4-47.3,5.3c-16.3,8.5-28.8,22.9-35.1,40.7C300.4,436.1,300.8,454.5,307.5,470.9z
				 M417.7,415.9c5.8,13.3,6.3,28.5,1.3,42.7s-14.9,25.7-27.8,32.4c-12.8,6.6-27,7.7-40,3.1c-11.1-3.9-20.2-11.6-26.3-21.9
				c-0.1-0.1-0.1-0.2-0.2-0.3c-1-1.7-1.9-3.5-2.7-5.3c-5.8-13.3-6.3-28.5-1.3-42.7s14.9-25.7,27.8-32.4c7.6-3.9,15.7-5.9,23.7-5.9
				c5.5,0,11,0.9,16.3,2.8c1.3,0.4,2.5,1,3.7,1.5c0.1,0,0.2,0.1,0.2,0.1C403.6,395,412.5,404.1,417.7,415.9z M476.6,248.7
				c-14.7,28.7-45.7,57.6-77.2,72.7c-5.1-19.1-13.9-37.1-26.1-52.8c20.8-9.7,42.6-30.7,50.9-46.8c6.1-11.9,19.5-18.2,32.6-15.3
				c2.4,0.5,4.8,1.4,7.1,2.6C478.3,216.4,484,234.2,476.6,248.7z"/>
			<path class="st0" d="M159.8,159.9c-4.1,0-7.5,3.4-7.5,7.5s3.4,7.5,7.5,7.5h14.5c4.1,0,7.5-3.4,7.5-7.5s-3.4-7.5-7.5-7.5H159.8z"
				/>
			<path class="st0" d="M269,112.9h-25.9c-5.6,0-10.7,2.5-14,6.8c-19.2,10-31.4,30.1-31.4,51.8c0,32.2,26.2,58.4,58.4,58.4
				s58.4-26.2,58.4-58.4c0-21.7-12.3-41.8-31.4-51.8C279.6,115.4,274.6,112.9,269,112.9z M240.5,129.6c0-0.1,0.1-0.1,0.1-0.2
				c0,0,0-0.1,0.1-0.1c0.3-0.6,1-1.4,2.4-1.4H269c1.3,0,2,0.8,2.4,1.4c0,0,0,0.1,0.1,0.1c0,0.1,0.1,0.1,0.1,0.2
				c0.3,0.6,0.6,1.8-0.5,3l-7.6,8c-1.9,2-4.5,3.2-7.3,3.2c-2.8,0-5.4-1.1-7.3-3.2l-7.6-8C240,131.4,240.3,130.2,240.5,129.6z
				 M299.4,171.5c0,23.9-19.5,43.4-43.4,43.4s-43.4-19.5-43.4-43.4c0-12.6,5.5-24.4,14.7-32.5c0.8,1.4,1.7,2.7,2.8,3.9l7.6,8
				c3.7,3.9,8.3,6.4,13.4,7.4c-1.7,1.4-2.8,3.5-2.8,5.8c0,2.8-2.3,5-5,5c-2.8,0-5-2.3-5-5c0-4.1-3.4-7.5-7.5-7.5s-7.5,3.4-7.5,7.5
				c0,11.1,9,20,20,20c4.7,0,9.1-1.7,12.5-4.4c3.4,2.8,7.8,4.4,12.5,4.4c11.1,0,20-9,20-20c0-4.1-3.4-7.5-7.5-7.5
				c-4.1,0-7.5,3.4-7.5,7.5c0,2.8-2.3,5-5,5s-5-2.3-5-5c0-2.3-1.1-4.4-2.8-5.8c5.2-1,9.9-3.5,13.6-7.4l7.6-8
				c1.1-1.2,2.1-2.5,2.8-3.9C293.9,147.1,299.4,158.9,299.4,171.5z"/>
			<path class="st0" d="M362.9,139.8c0-10-8.1-18.1-18.1-18.1c-10,0-18.1,8.1-18.1,18.1c0,4.1,3.4,7.5,7.5,7.5s7.5-3.4,7.5-7.5
				c0-1.7,1.4-3.1,3.1-3.1c1.7,0,3.1,1.4,3.1,3.1c0,4.1,3.4,7.5,7.5,7.5S362.9,143.9,362.9,139.8z"/>
			<path class="st0" d="M337.6,159.9c-4.1,0-7.5,3.4-7.5,7.5s3.4,7.5,7.5,7.5h14.5c4.1,0,7.5-3.4,7.5-7.5s-3.4-7.5-7.5-7.5H337.6z"
				/>
		</g>
	</g>
</g>
</svg>
