<?xml version="1.0" encoding="utf-8"?><svg viewBox="0 0 33 32" xmlns="http://www.w3.org/2000/svg" xmlns:xlink="http://www.w3.org/1999/xlink"><style>:root>svg{display:none}:root>svg:target{display:block}</style><svg viewBox="0 0 33 32" id="discord" xmlns="http://www.w3.org/2000/svg"><path d="M12.293 19.5a1.5 1.5 0 100-3 1.5 1.5 0 000 3zm8 0a1.5 1.5 0 100-3 1.5 1.5 0 000 3z"/><path fill-rule="evenodd" clip-rule="evenodd" d="M16.286 10a20.863 20.863 0 00-6.394.955 1 1 0 11-.598-1.909 22.862 22.862 0 016.999-1.045 22.862 22.862 0 017 1.045 1 1 0 01-.599 1.909A20.863 20.863 0 0016.3 10h-.014zM8.639 21.701a1 1 0 011.253-.655c2.069.648 4.226.97 6.394.954h.014a20.862 20.862 0 006.394-.954 1 1 0 01.598 1.909A22.86 22.86 0 0116.293 24a22.86 22.86 0 01-6.999-1.046 1 1 0 01-.655-1.253z"/><path fill-rule="evenodd" clip-rule="evenodd" d="M20.512 4.81a2.02 2.02 0 011.418-.213c1.318.286 2.608.686 3.855 1.197a1.963 1.963 0 011.18 1.286L31.2 21.225a2.012 2.012 0 01-.596 2.087l-.005.004c-2.068 1.8-4.869 3.16-8.05 3.94a1.974 1.974 0 01-2.266-1.053l-1.509-2.991a1 1 0 011.786-.9l1.513 3 .001.002c2.938-.72 5.432-1.958 7.212-3.507l.656.755-.661-.75a.012.012 0 00.004-.006v-.007L25.049 7.654l-.011-.005a21.051 21.051 0 00-3.532-1.097h-.003a.013.013 0 00-.014.006l-.985 2.98a1 1 0 11-1.899-.628l.99-2.996c.16-.468.487-.86.917-1.104zm-9.421 1.742a.013.013 0 00-.009 0h-.002a21.05 21.05 0 00-3.543 1.102L3.301 21.799v.007c0 .002.002.004.003.005 1.78 1.547 4.273 2.783 7.208 3.503l.001-.003 1.512-3a1 1 0 011.786.9l-1.508 2.992a1.976 1.976 0 01-2.265 1.054c-3.182-.78-5.984-2.142-8.051-3.94l-.005-.005a2.013 2.013 0 01-.597-2.087L5.621 7.08a1.962 1.962 0 011.18-1.286 23.05 23.05 0 013.856-1.197 2.013 2.013 0 012.333 1.317l.003.009.987 2.987a1 1 0 11-1.899.628l-.984-2.98a.012.012 0 00-.006-.006z"/><path d="M12.293 19.5a1.5 1.5 0 100-3 1.5 1.5 0 000 3zm8 0a1.5 1.5 0 100-3 1.5 1.5 0 000 3z"/><path fill-rule="evenodd" clip-rule="evenodd" d="M16.286 10a20.863 20.863 0 00-6.394.955 1 1 0 11-.598-1.909 22.862 22.862 0 016.999-1.045 22.862 22.862 0 017 1.045 1 1 0 01-.599 1.909A20.863 20.863 0 0016.3 10h-.014zM8.639 21.701a1 1 0 011.253-.655c2.069.648 4.226.97 6.394.954h.014a20.862 20.862 0 006.394-.954 1 1 0 01.598 1.909A22.86 22.86 0 0116.293 24a22.86 22.86 0 01-6.999-1.046 1 1 0 01-.655-1.253z"/><path fill-rule="evenodd" clip-rule="evenodd" d="M20.512 4.81a2.02 2.02 0 011.418-.213c1.318.286 2.608.686 3.855 1.197a1.963 1.963 0 011.18 1.286L31.2 21.225a2.012 2.012 0 01-.596 2.087l-.005.004c-2.068 1.8-4.869 3.16-8.05 3.94a1.974 1.974 0 01-2.266-1.053l-1.509-2.991a1 1 0 011.786-.9l1.513 3 .001.002c2.938-.72 5.432-1.958 7.212-3.507l.656.755-.661-.75a.012.012 0 00.004-.006v-.007L25.049 7.654l-.011-.005a21.051 21.051 0 00-3.532-1.097h-.003a.013.013 0 00-.014.006l-.985 2.98a1 1 0 11-1.899-.628l.99-2.996c.16-.468.487-.86.917-1.104zm-9.421 1.742a.013.013 0 00-.009 0h-.002a21.05 21.05 0 00-3.543 1.102L3.301 21.799v.007c0 .002.002.004.003.005 1.78 1.547 4.273 2.783 7.208 3.503l.001-.003 1.512-3a1 1 0 011.786.9l-1.508 2.992a1.976 1.976 0 01-2.265 1.054c-3.182-.78-5.984-2.142-8.051-3.94l-.005-.005a2.013 2.013 0 01-.597-2.087L5.621 7.08a1.962 1.962 0 011.18-1.286 23.05 23.05 0 013.856-1.197 2.013 2.013 0 012.333 1.317l.003.009.987 2.987a1 1 0 11-1.899.628l-.984-2.98a.012.012 0 00-.006-.006z"/></svg><svg viewBox="0 0 20 20" id="envelope" xmlns="http://www.w3.org/2000/svg"><path fill-rule="evenodd" clip-rule="evenodd" d="M1.875 4.375c0-.345.28-.625.625-.625h15c.345 0 .625.28.625.625V15a1.25 1.25 0 01-1.25 1.25H3.125A1.25 1.25 0 011.875 15V4.375zM3.125 5v10h13.75V5H3.125z"/><path fill-rule="evenodd" clip-rule="evenodd" d="M2.04 3.953a.625.625 0 01.882-.039L10 10.402l7.078-6.488a.625.625 0 11.844.922l-7.5 6.875a.625.625 0 01-.844 0l-7.5-6.875a.625.625 0 01-.039-.883z"/></svg><svg viewBox="0 0 20 20" id="eye" xmlns="http://www.w3.org/2000/svg"><path fill-rule="evenodd" clip-rule="evenodd" d="M2.84 6.746C4.33 5.256 6.666 3.75 10 3.75s5.67 1.506 7.16 2.996a11.825 11.825 0 011.63 2.042 9.96 9.96 0 01.494.878l.026.056.007.016.003.005v.002c.001 0 .001.001-.57.255l.57.254v.003l-.003.005-.007.016a6.613 6.613 0 01-.126.253 9.958 9.958 0 01-.393.68c-.351.558-.887 1.3-1.63 2.043-1.49 1.49-3.828 2.996-7.161 2.996-3.333 0-5.67-1.506-7.16-2.996a11.824 11.824 0 01-1.63-2.042 9.966 9.966 0 01-.494-.878 3.55 3.55 0 01-.026-.056l-.007-.016-.003-.005v-.002c-.001 0-.001-.001.57-.255a59.108 59.108 0 01-.57-.254v-.003l.003-.005.007-.016a3.949 3.949 0 01.126-.254c.087-.167.218-.4.393-.68.351-.557.887-1.3 1.63-2.042zM1.25 10l-.571-.254a.625.625 0 000 .508L1.25 10zm.699 0c.073.138.179.325.318.546a10.62 10.62 0 001.456 1.825C5.046 13.693 7.083 15 10 15c2.917 0 4.954-1.307 6.277-2.63a10.574 10.574 0 001.456-1.824c.14-.221.245-.408.318-.546a8.849 8.849 0 00-.318-.546 10.572 10.572 0 00-1.456-1.825C14.954 6.307 12.917 5 10 5 7.083 5 5.046 6.307 3.723 7.63a10.574 10.574 0 00-1.456 1.824c-.14.221-.245.408-.318.546zm16.801 0l.571.254a.624.624 0 000-.508L18.75 10z"/><path fill-rule="evenodd" clip-rule="evenodd" d="M10 7.5a2.5 2.5 0 100 5 2.5 2.5 0 000-5zM6.25 10a3.75 3.75 0 117.5 0 3.75 3.75 0 01-7.5 0z"/></svg><svg viewBox="0 0 33 32" id="instagram" xmlns="http://www.w3.org/2000/svg"><path fill-rule="evenodd" clip-rule="evenodd" d="M16.293 12a4 4 0 100 8 4 4 0 000-8zm-6 4a6 6 0 1112 0 6 6 0 01-12 0z"/><path fill-rule="evenodd" clip-rule="evenodd" d="M10.793 5.5a5 5 0 00-5 5v11a5 5 0 005 5h11a5 5 0 005-5v-11a5 5 0 00-5-5h-11zm-7 5a7 7 0 017-7h11a7 7 0 017 7v11a7 7 0 01-7 7h-11a7 7 0 01-7-7v-11z"/><path d="M22.793 11a1.5 1.5 0 100-3 1.5 1.5 0 000 3z"/></svg><svg viewBox="0 0 20 20" id="rocket" xmlns="http://www.w3.org/2000/svg"><path fill-rule="evenodd" clip-rule="evenodd" d="M6.17 12.45a.625.625 0 01-.393.791c-1.06.356-1.622 1.246-1.923 2.15a6.09 6.09 0 00-.236.99c.286-.043.632-.115.991-.235.905-.3 1.794-.864 2.15-1.923a.625.625 0 011.185.398c-.534 1.59-1.856 2.35-2.94 2.711a7.373 7.373 0 01-2.019.363h-.054l-.001-.625h-.625v-.017a3.195 3.195 0 01.006-.169 7.373 7.373 0 01.357-1.888c.36-1.084 1.122-2.405 2.71-2.94a.625.625 0 01.793.393zm-3.24 4.62h-.625c0 .346.28.625.625.625v-.625zM16.546 3.454c-.725-.105-2.51-.144-4.338 1.684L7.345 10 10 12.655l4.863-4.862c1.827-1.828 1.788-3.613 1.683-4.339zm.181-1.237c-.997-.144-3.221-.145-5.403 2.037L6.019 9.558a.625.625 0 000 .884l3.54 3.54a.626.626 0 00.883 0l5.305-5.305c2.182-2.182 2.18-4.406 2.036-5.404a1.234 1.234 0 00-1.056-1.056z"/><path fill-rule="evenodd" clip-rule="evenodd" d="M14.422 8.492c.345 0 .625.28.625.625v5.056a1.25 1.25 0 01-.372.872l-2.522 2.53a1.25 1.25 0 01-2.11-.64l-.656-3.273a.625.625 0 111.226-.246l.656 3.275 2.528-2.536V9.117c0-.345.28-.625.625-.625zM5.827 4.953h5.056a.625.625 0 110 1.25H5.845l-.005.005-2.53 2.523 3.274.656a.625.625 0 01-.246 1.226l-3.272-.656a1.25 1.25 0 01-.64-2.11l2.53-2.522a1.25 1.25 0 01.871-.372z"/></svg><svg viewBox="0 0 33 32" id="twitter" xmlns="http://www.w3.org/2000/svg"><path d="M16.293 11c0-2.75 2.312-5.037 5.062-5a5 5 0 014.525 3h4.413l-4.038 4.038A15.988 15.988 0 0110.293 28c-4 0-5-1.5-5-1.5s4-1.5 6-4.5c0 0-8-4-6-15 0 0 5 5 11 6v-2z"/></svg><svg viewBox="0 0 20 20" id="user" xmlns="http://www.w3.org/2000/svg"><path fill-rule="evenodd" clip-rule="evenodd" d="M10 3.125a4.375 4.375 0 100 8.75 4.375 4.375 0 000-8.75zM4.375 7.5a5.625 5.625 0 1111.25 0 5.625 5.625 0 01-11.25 0z"/><path fill-rule="evenodd" clip-rule="evenodd" d="M10 13.124a8.124 8.124 0 00-7.037 4.063.625.625 0 01-1.082-.625 9.374 9.374 0 0116.238 0 .625.625 0 11-1.082.625A8.123 8.123 0 0010 13.124z"/></svg><svg viewBox="0 0 33 32" id="youtube" xmlns="http://www.w3.org/2000/svg"><path fill-rule="evenodd" clip-rule="evenodd" d="M13.821 11.118a1 1 0 011.027.05l6 4a1 1 0 010 1.664l-6 4A1 1 0 0113.293 20v-8a1 1 0 01.528-.882zm1.472 2.75v4.263L18.49 16l-3.197-2.132z"/><path fill-rule="evenodd" clip-rule="evenodd" d="M16.291 5.05h-.079l-.236.002c-.204.003-.497.007-.862.018-.73.022-1.747.068-2.897.166-2.277.192-5.175.59-7.406 1.443l-.015.006A3.013 3.013 0 003 8.725v.003c-.312 1.219-.707 3.479-.707 7.273 0 3.794.395 6.054.706 7.272l.001.004a3.012 3.012 0 001.796 2.04l.015.006c2.231.852 5.13 1.25 7.406 1.443a54.065 54.065 0 003.995.185h.162c.055 0 .134 0 .236-.002a54.077 54.077 0 003.76-.183c2.276-.192 5.174-.591 7.405-1.444l.015-.005a3.011 3.011 0 001.796-2.04v-.004c.312-1.218.707-3.478.707-7.272 0-3.795-.395-6.054-.706-7.273l-.001-.004a3.013 3.013 0 00-1.796-2.04l-.015-.005c-2.231-.852-5.13-1.251-7.406-1.443a54.214 54.214 0 00-3.995-.185h-.083zm-.003 19.9h.301c.192-.003.473-.007.823-.018a52.078 52.078 0 002.789-.159c2.236-.189 4.896-.57 6.852-1.316a1.011 1.011 0 00.597-.68c.263-1.033.643-3.123.643-6.776 0-3.653-.38-5.743-.643-6.775a1.013 1.013 0 00-.597-.682C25.097 7.8 22.437 7.417 20.2 7.23a52.216 52.216 0 00-3.831-.178h-.154l-.219.001a52.214 52.214 0 00-3.612.176c-2.236.19-4.896.57-6.852 1.316a1.013 1.013 0 00-.597.682c-.263 1.032-.643 3.122-.643 6.775 0 3.653.38 5.743.643 6.775a1.013 1.013 0 00.597.681c1.956.746 4.616 1.127 6.852 1.316a52.075 52.075 0 003.831.178h.073z"/></svg></svg>