<?xml version="1.0" encoding="utf-8"?><svg xmlns="http://www.w3.org/2000/svg" xmlns:xlink="http://www.w3.org/1999/xlink">
<symbol viewBox="0 0 14 14" id="phone" xmlns="http://www.w3.org/2000/svg">
	<path d="M13.6037 10.2741L11.65 8.32049C10.9523 7.62275 9.76613 7.90187 9.48703 8.8089C9.27771 9.43689 8.57998 9.78576 7.95202 9.64618C6.55655 9.29731 4.67266 7.4832 4.3238 6.01796C4.11448 5.38997 4.53312 4.69224 5.16108 4.48294C6.06813 4.20385 6.34723 3.0177 5.64949 2.31997L3.69584 0.366311C3.13765 -0.122104 2.30037 -0.122104 1.81195 0.366311L0.486256 1.69201C-0.83944 3.08748 0.625803 6.78547 3.90516 10.0648C7.18451 13.3442 10.8825 14.8792 12.278 13.4837L13.6037 12.158C14.0921 11.5998 14.0921 10.7626 13.6037 10.2741Z"/>
</symbol>
<symbol viewBox="0 0 17 10" id="vk" xmlns="http://www.w3.org/2000/svg">
	<path d="M16.8485 8.57901C16.8028 8.50315 16.5201 7.89413 15.16 6.64238C13.7362 5.33162 13.9274 5.54447 15.6424 3.27804C16.687 1.89774 17.1046 1.05481 16.9739 0.694453C16.8495 0.350959 16.0813 0.441574 16.0813 0.441574L13.5269 0.456325C13.5269 0.456325 13.3377 0.431038 13.1964 0.514277C13.0593 0.596463 12.9711 0.786122 12.9711 0.786122C12.9711 0.786122 12.5663 1.85454 12.0265 2.76279C10.8885 4.67941 10.4326 4.78056 10.2467 4.66149C9.81421 4.38438 9.92259 3.54672 9.92259 2.95245C9.92259 1.09485 10.2063 0.320403 9.36899 0.120207C9.09059 0.0538261 8.88658 0.00957223 8.17571 0.00219658C7.26402 -0.00728638 6.49153 0.00535757 6.05481 0.217144C5.76366 0.358335 5.53946 0.67338 5.67653 0.691293C5.84548 0.713419 6.22801 0.793498 6.43096 1.06745C6.69342 1.42043 6.68385 2.21489 6.68385 2.21489C6.68385 2.21489 6.83474 4.40124 6.33214 4.67309C5.9868 4.85958 5.51395 4.47921 4.49919 2.73961C3.97959 1.84927 3.58644 0.864093 3.58644 0.864093C3.58644 0.864093 3.511 0.680756 3.37605 0.582765C3.21241 0.463701 2.98289 0.425769 2.98289 0.425769L0.55384 0.440521C0.55384 0.440521 0.189376 0.451057 0.0554913 0.608053C-0.0635175 0.74819 0.0459281 1.03689 0.0459281 1.03689C0.0459281 1.03689 1.94794 5.44858 4.10073 7.67286C6.07606 9.7117 8.3181 9.57789 8.3181 9.57789H9.33392C9.33392 9.57789 9.64101 9.54417 9.79721 9.37664C9.94172 9.2228 9.93641 8.9341 9.93641 8.9341C9.93641 8.9341 9.91622 7.58225 10.5495 7.38311C11.1732 7.18713 11.9744 8.68965 12.8234 9.26811C13.4652 9.70538 13.953 9.6095 13.953 9.6095L16.2237 9.57789C16.2237 9.57789 17.4116 9.50519 16.8485 8.57901Z"/>
</symbol>
<symbol viewBox="0 0 13 12" id="tg" xmlns="http://www.w3.org/2000/svg">
	<path d="M5.10097 8.07294L4.88593 11.0722C5.1936 11.0722 5.32685 10.9412 5.48664 10.7838L6.9291 9.41682L9.91801 11.5873C10.4662 11.8903 10.8524 11.7307 11.0003 11.0873L12.9622 1.97124L12.9627 1.9707C13.1366 1.16717 12.6697 0.852949 12.1356 1.05007L0.603513 5.42815C-0.183529 5.73109 -0.171612 6.16616 0.469721 6.36328L3.41801 7.27263L10.2663 3.02346C10.5886 2.81183 10.8816 2.92893 10.6406 3.14055L5.10097 8.07294Z"/>
</symbol>
<symbol viewBox="0 0 9 9" id="insta" xmlns="http://www.w3.org/2000/svg">
	<path d="M4.52907 0.648071C2.40177 0.648071 0.675781 2.37395 0.675781 4.50136C0.675781 6.62878 2.40177 8.35465 4.52907 8.35465C6.65649 8.35465 8.38237 6.62878 8.38237 4.50136C8.38237 2.37395 6.65649 0.648071 4.52907 0.648071ZM4.52907 7.0009C3.14899 7.0009 2.02954 5.88156 2.02954 4.50136C2.02954 3.12116 3.14899 2.00183 4.52907 2.00183C5.90927 2.00183 7.02861 3.12116 7.02861 4.50136C7.02861 5.88156 5.90927 7.0009 4.52907 7.0009Z"/>
</symbol>
</svg>