<svg xmlns="http://www.w3.org/2000/svg" viewBox="0 0 217.5 217.4"><path class="st0" d="M113.7 0c41.4 1.9 76.8 26.9 93.5 62.4L162.6 81c-9.3-18.2-27.6-31-48.9-32.7V0z"/><path class="st1" d="M104.6 48.3c-22 1.5-40.7 14.7-50.1 33.5L10 63.2C26.6 27 62.6 1.6 104.6 0v48.3z"/><path class="st2" d="M210.8 70.9c4.4 11.8 6.8 24.5 6.8 37.8 0 31-13 58.9-33.7 78.7l-32.3-35.8c11-11 17.8-26.1 17.8-42.9 0-6.7-1.1-13.2-3.1-19.3l44.5-18.5z"/><path class="st3" d="M176.9 193.4c-18.6 15-42.4 24-68.2 24-26.7 0-51.1-9.6-70-25.5L71 156.1c10.3 8.3 23.5 13.2 37.7 13.2 13.4 0 25.8-4.4 35.8-11.7l32.4 35.8z"/><path class="st4" d="M51.1 90.2c-1.9 5.8-2.9 12.1-2.9 18.5 0 15.9 6.1 30.4 16.2 41.2L32 185.7c-19.8-19.7-32-46.9-32-77 0-13 2.3-25.5 6.5-37.1l44.6 18.6z"/></svg>