<svg version="1.1" id="Layer_1" xmlns="http://www.w3.org/2000/svg" x="0" y="0" viewBox="0 0 207.5 102.6" xml:space="preserve"><style>.st0{fill-rule:evenodd;clip-rule:evenodd;fill:#fff}</style><path class="st0" d="M1.9 0C-2.5 8.6.4 21.5 14.4 24.6 57.3 23 100.1 21.5 143 20c8.4 32.4 24.9 60.7 54.2 82.7 3.4-.7 6.9-1.4 10.3-2.1-17-13.3-33-28-32.8-65.2-.1-24.1 3.4-31.7-15.7-31.4C106.7 2.6 54.3 1.3 1.9 0z"/><path class="st0" d="M52.7 55.7C36 55.4 24.3 49 20.5 33l115.8-8.8c1.1 3.9 2.3 7.7 3.6 11.4L52.7 55.7zm48.5 21.8c-17.1-.9-31.6-4.5-38.8-15.9l78.9-22.2c1.7 4.5 3.7 8.9 5.8 13.2l-45.9 24.9zm50.4 11.4c-15.4 2-28.3-.2-37.5-8.6l35.6-22.7c3.7 6.7 7.9 13.2 12.7 19.3l-10.8 12z"/></svg>