<?xml version="1.0" encoding="iso-8859-1"?>
<!-- Generator: Adobe Illustrator 19.0.0, SVG Export Plug-In . SVG Version: 6.00 Build 0)  -->
<svg version="1.1" id="Capa_1" xmlns="http://www.w3.org/2000/svg" xmlns:xlink="http://www.w3.org/1999/xlink" x="0px" y="0px"
     viewBox="0 0 512 512" style="enable-background:new 0 0 512 512;" xml:space="preserve" fill="#166d3a">
<g>
    <g>
        <path d="M487.827,53.2h-24.174v327.253h24.174c8.682,0,16.892,2.052,24.173,5.698V77.374C512,64.045,501.156,53.2,487.827,53.2z"
            />
    </g>
</g>
<g>
    <g>
        <polygon points="286.269,170.612 286.269,265.959 328.951,265.959 328.951,295.959 256.269,295.959 256.269,170.612
            176.869,170.612 176.869,235.147 146.869,235.147 146.869,170.612 67.469,170.612 67.469,391.331 146.869,391.331 146.869,329.8
            107.169,329.8 107.169,299.8 216.569,299.8 216.569,329.8 176.869,329.8 176.869,391.331 365.669,391.331 365.669,170.612       "/>
    </g>
</g>
<g>
    <g>
        <path d="M487.827,410.453h-54.174v-307.31H0V458.8h487.827c13.329,0,24.173-10.845,24.173-24.174
            C512,421.297,501.156,410.453,487.827,410.453z M395.669,421.331h-358.2V140.612h358.2V421.331z"/>
    </g>
</g>
<g>
</g>
<g>
</g>
<g>
</g>
<g>
</g>
<g>
</g>
<g>
</g>
<g>
</g>
<g>
</g>
<g>
</g>
<g>
</g>
<g>
</g>
<g>
</g>
<g>
</g>
<g>
</g>
<g>
</g>
</svg>
