<svg id="light" enable-background="new 0 0 24 24" height="512" viewBox="0 0 24 24" width="512" xmlns="http://www.w3.org/2000/svg" fill="#166d3a"><path d="m5.636 22.004c-.131 0-.262-.051-.36-.153-.191-.199-.186-.516.014-.707.37-.357.575-.831.575-1.334s-.205-.977-.575-1.334c-.185-.177-.205-.465-.048-.667l2.047-2.631c.241-.311.28-.719.101-1.065-.04-.077-.112-.099-.152-.105-.034-.004-.12-.011-.191.057l-3.698 3.564c-.197.192-.514.186-.707-.013-.191-.199-.186-.516.014-.707l3.697-3.564c.274-.266.668-.387 1.048-.324.383.063.702.293.878.632.355.685.278 1.525-.199 2.139l-1.792 2.304c.376.494.579 1.089.579 1.715 0 .777-.313 1.506-.882 2.054-.099.093-.224.139-.349.139z"/><path d="m8.5 24h-8c-.276 0-.5-.224-.5-.5v-4.88c0-1.71.661-3.327 1.863-4.55l1.879-1.919c.192-.197.511-.201.707-.008.197.193.201.51.008.707l-1.88 1.92c-1.017 1.036-1.577 2.403-1.577 3.85v4.38h7v-.88c0-.176.093-.339.243-.429.759-.454 1.24-1.297 1.257-2.2.005-.276.25-.476.509-.491.276.005.496.233.491.509-.021 1.146-.589 2.225-1.5 2.88v1.111c0 .276-.224.5-.5.5z"/><path d="m18.364 22.004c-.125 0-.25-.046-.347-.14-.568-.547-.882-1.277-.882-2.054 0-.626.203-1.221.579-1.715l-1.792-2.304c-.478-.614-.555-1.454-.198-2.14.175-.338.494-.568.877-.631.38-.063.773.059 1.049.324l3.696 3.564c.199.191.205.508.014.707-.193.199-.509.205-.707.013l-3.697-3.564c-.072-.069-.157-.063-.192-.057-.04.007-.112.029-.151.104-.181.347-.142.755.1 1.066l2.047 2.631c.157.202.137.49-.048.667-.37.357-.575.832-.575 1.334s.205.977.575 1.334c.199.191.205.508.014.707-.1.103-.231.154-.362.154z"/><path d="m23.5 24h-8c-.276 0-.5-.224-.5-.5v-1.111c-.911-.655-1.479-1.733-1.5-2.88-.005-.276.215-.504.491-.509.249.008.504.214.509.491.017.903.498 1.747 1.257 2.2.15.09.243.253.243.429v.88h7v-4.38c0-1.447-.56-2.814-1.576-3.85l-1.881-1.92c-.193-.197-.189-.514.008-.707.196-.193.515-.189.707.008l1.88 1.92c1.201 1.222 1.862 2.839 1.862 4.549v4.88c0 .276-.224.5-.5.5z"/><path d="m17.65 20h-11.15c-.096 0-.177-.003-.257-.019-.271-.053-.447-.316-.394-.587.052-.271.314-.442.582-.396l11.219.002c.276 0 .5.224.5.5s-.223.5-.5.5z"/><path d="m19.5 16.32c-.276 0-.5-.224-.5-.5v-14.32c0-.276-.225-.5-.5-.5h-13c-.275 0-.5.224-.5.5v14.32c0 .276-.224.5-.5.5s-.5-.224-.5-.5v-14.32c0-.827.673-1.5 1.5-1.5h13c.827 0 1.5.673 1.5 1.5v14.32c0 .276-.224.5-.5.5z"/><path d="m7.5 11c-.128 0-.256-.049-.354-.146-.195-.195-.195-.512 0-.707l3.5-3.5c.152-.152.384-.19.577-.094l1.678.839 3.245-3.245c.195-.195.512-.195.707 0s.195.512 0 .707l-3.5 3.5c-.151.152-.384.189-.577.094l-1.678-.839-3.245 3.245c-.097.097-.225.146-.353.146z"/><path d="m16.5 8c-.276 0-.5-.224-.5-.5v-2.5h-2.5c-.276 0-.5-.224-.5-.5s.224-.5.5-.5h3c.276 0 .5.224.5.5v3c0 .276-.224.5-.5.5z"/></svg>
