<?xml version="1.0" encoding="utf-8"?>
<!-- Generator: Adobe Illustrator 22.0.1, SVG Export Plug-In . SVG Version: 6.00 Build 0)  -->
<svg version="1.1" id="Capa_1" xmlns="http://www.w3.org/2000/svg" xmlns:xlink="http://www.w3.org/1999/xlink" x="0px" y="0px"
	 viewBox="0 0 384 384" style="enable-background:new 0 0 384 384;" xml:space="preserve">
<style type="text/css">
	.st0{fill:#22ABC5;}
</style>
<g>
	<g>
		<path class="st0" d="M352,32.3H32c-17.7,0-32,14.3-32,32v255.4c0,17.6,14.4,32,32,32h320c17.7,0,32-14.3,32-32V64.3
			C384,46.6,369.7,32.3,352,32.3z M160,64.3h32v32h-32V64.3z M96,64.3h32v32H96V64.3z M32,64.3h32v32H32V64.3z M352,320.3H32v-192
			h320V320.3z"/>
	</g>
</g>
<g>
	<g>
		<rect x="64" y="160.3" class="st0" width="256" height="64"/>
	</g>
</g>
<g>
	<g>
		<rect x="208" y="256.3" class="st0" width="112" height="32"/>
	</g>
</g>
<g>
	<g>
		<rect x="64" y="256.3" class="st0" width="112" height="32"/>
	</g>
</g>
</svg>
