<?xml version="1.0" encoding="utf-8"?>
<!-- Generator: Adobe Illustrator 22.0.1, SVG Export Plug-In . SVG Version: 6.00 Build 0)  -->
<svg version="1.1" id="Layer_1" xmlns="http://www.w3.org/2000/svg" xmlns:xlink="http://www.w3.org/1999/xlink" x="0px" y="0px"
	 viewBox="0 0 24 24" style="enable-background:new 0 0 24 24;" xml:space="preserve">
<style type="text/css">
	.st0{fill:#22ABC5;}
</style>
<path class="st0" d="M12,23C5.9,23,1,18.1,1,12S5.9,1,12,1s11,4.9,11,11S18.1,23,12,23z M12,21c5,0,9-4,9-9s-4-9-9-9s-9,4-9,9
	S7,21,12,21z M12,13.4l-3.3,3.3l-1.4-1.4l3.3-3.3L7.3,8.7l1.4-1.4l3.3,3.3l3.3-3.3l1.4,1.4L13.4,12l3.3,3.3l-1.4,1.4L12,13.4z"/>
</svg>
