<?xml version="1.0" encoding="utf-8"?>
<!-- Generator: Adobe Illustrator 22.0.1, SVG Export Plug-In . SVG Version: 6.00 Build 0)  -->
<svg version="1.1" id="Layer_1" xmlns="http://www.w3.org/2000/svg" xmlns:xlink="http://www.w3.org/1999/xlink" x="0px" y="0px"
	 viewBox="0 0 159.6 174" style="enable-background:new 0 0 159.6 174;" xml:space="preserve">
<style type="text/css">
	.st0{fill-rule:evenodd;clip-rule:evenodd;fill:#FFFFFF;}
	.st1{fill-rule:evenodd;clip-rule:evenodd;fill:#50C5DB;}
	.st2{fill-rule:evenodd;clip-rule:evenodd;fill:#99BA3E;}
</style>
<g>
	<path class="st0" d="M33.2,0.1c0,0,21.8,22.8,45,1.6c0,0,0,0,0.1-0.1l0,0l1.3-1.4l0,0c0,0,0.1,0.1,0.1,0.1l0.8,0.8l0,0l0,0
		c0,0,0,0,0.1,0.1C104.2,23,126.3,0,126.3,0l33.3,38l-6.5,13.2c-8.9,17.9-0.2,36.5-0.2,36.5c15.4,32.3-1.4,57.9-1.4,57.9
		c-15.3,28.4-60.9,24.8-60.9,24.8c-4.1-0.3-7.2,0.9-10.4,3.1c-0.2,0.1-0.4,0.3-0.6,0.4l-0.6-0.5c-1.6-1.3-5-3.4-10.2-3
		c0,0-45.7,3.7-60.9-24.8c0,0-16.8-25.7-1.4-57.9c0,0,8.7-18.7-0.2-36.5L0.2,37.8L33.2,0.1L33.2,0.1z"/>
	<path class="st1" d="M33.2,0.1c0,0,21.8,22.8,45,1.6c0,0,0,0,0.1-0.1l0,0l1.3-1.4l0,0c0,0,0.1,0.1,0.1,0.1l0.8,0.8l0,0l0,0
		c0,0,0,0,0.1,0.1C104.2,23,126.3,0,126.3,0l33.3,38l-6.5,13.2c-8.9,17.9-0.2,36.5-0.2,36.5c15.4,32.3-1.4,57.9-1.4,57.9
		c-15.3,28.4-60.9,24.8-60.9,24.8c-4.1-0.3-7.2,0.9-10.4,3.1c-0.2,0.1-0.4,0.3-0.6,0.4l-0.6-0.5c-1.6-1.3-5-3.4-10.2-3
		c0,0-45.7,3.7-60.9-24.8c0,0-16.8-25.7-1.4-57.9c0,0,8.7-18.7-0.2-36.5L0.2,37.8L33.2,0.1L33.2,0.1z M107.6,31.4h19.2v6h-11.7v6.4
		h10.6l0.1,6.2h-10.6l-0.1,7.9h11.7V64h-19.2V31.4L107.6,31.4z M49.4,137.1l-11.6,0l-2.8,7.8h-7.7l12-32.9h8.2l11.8,32.9h-7.5
		L49.4,137.1L49.4,137.1z M47.9,130.8l-4.6-11.3l-3.9,11.4L47.9,130.8L47.9,130.8z M98.3,164.8c-2.2,0-6.6,0.2-8.8,0.4
		c-2.2,0.2-2.2,0.2-4.6,0.7c-2,0.5-3.5,1.2-5.3,1.9l0.2-64.4c0,0.1-0.1,0.2-0.1,0.2c-0.1,0.4-0.2,0.7-0.3,1.1c0,0.6-0.2,1.1-0.6,1.6
		l-1.4,1c-0.5,0.5-1.2,0.8-1.9,1.1c-0.5,0.9-1.1,1.5-2.3,2c-0.5,0.3-0.8,0.5-1.4,0.7c-0.5,0.1-1.4,0.4-1.9,0.4
		c-0.5,0-0.8-0.1-1.3-0.2h-0.1c-0.6,0.3-1.1,0.4-1.8,0.4h-0.4c-0.8,0-1.4-0.3-1.9-0.7c-0.9-0.2-1.6-0.7-2-1.6
		c-0.3-0.1-0.6-0.2-1-0.3c-0.8-0.1-1.4-0.5-1.9-1.1c-1.2-0.8-2.2-1.6-2.2-3.3c0-7,2.4,0.2,2.4-5.2c0-0.6,0.1-1.1,0.4-1.5
		c0.1-0.6,0.4-1.1,0.9-1.5c-0.1-0.5-0.2-1.1-0.3-1.6c-0.4-1.6-0.6-1.5-1.9-1.8c-0.4,0.3-0.8,0.4-1.4,0.4c-2.3,0-4.2-3.2-6-4.1
		c-0.6-0.3-1.2-0.7-1.7-1.1h-0.8c-0.8,0.7-1.4,1.2-2.5,1.2h-0.1c-1.9,0-3.6-0.1-4.4-1.3H13.2c1.3-3.4,2.2-7.4,2.7-10.8
		c1.5-9.8,0.5-19.7-4-28.7L7.9,37.8L33.8,9.1c3.7,2.6,7.9,4.4,11.6,5.7c7.1,2.4,15,2.7,22.1,0.2c4.8-1.7,8.9-4.1,12.1-5.9l0.2,31.2
		c0-1.4,0-2.7,0-3.9v27.6c5.3,0,5.1,0.7,7.4,6.7c0.1,0.2,2.5,4.7,2.5,4.8c0.3,0.3,0.6,0.8,0.8,1.1c0.3,0.3,0.6,0.7,1,1
		c1.9,1.7,2.9,3.9,5,5.4c0.1-0.1,0.2-0.1,0.3-0.2c0.3-0.2,0.6-0.3,1-0.4c0,0,0,0,0.1,0c0.2-0.7,0.6-1.2,1.1-1.7l1.8-2
		c0.4-0.2,0.8-0.2,1.2-0.2h0.3c0.9,0,1.6,0.4,2.1,1c0.9-0.8,2.2-1.2,3.4-1.3c0.4-0.1,0.8-0.3,1.2-0.4c2.5-0.2,2.3-0.4,4.8,0.7
		c0.3-0.1,0.5-0.1,0.8-0.1h0.1c0.9,0,1.6,0.4,2.1,1l1.1,1.4c0.3,0.4,0.6,0.9,0.6,1.6c0,1.8-1.6,3.2-3.3,3.5
		c-0.1,0.1-0.1,0.2-0.2,0.2c-0.1,0.4-0.2,0.7-0.4,1c0,0.1,0.1,0.3,0.1,0.5c0.1,0.2,0.3,0.4,0.4,0.6h31.3
		C166,131,143.9,165.1,98.3,164.8L98.3,164.8z"/>
	<polygon class="st1" points="107,112.4 114.1,112.4 114.2,138.9 127.5,138.8 127.5,145 107,145.1 107,112.4 	"/>
	<path class="st2" d="M72.1,68.7l0.3,0.1l0,0.1c0,0,0.1,0.8,0.1,1.2c0.4,0.6-0.4,0.1-0.2,0.7l-0.5-0.1c0-0.4,0-0.3-0.4-0.3
		c-0.3,0-0.7-0.6-0.1-0.7c0,0,0.9-0.1,0.6-0.8l-0.6-0.2c0.1-0.5-0.2-0.3-0.6-0.4v-0.2c0-0.3-0.5-1-0.3-0.2l-0.1,0
		c-0.2-0.5-0.1-0.5-0.7-0.7c0-0.1-0.1-0.2-0.2-0.2c-0.5,0-1.3,0-1.4,0.4c-0.4-0.1,0.1-0.7-0.4-0.1c0,0.2,0.7,0.4,0.9,0.5l0.4-0.1
		l0.1,0.2l0.4,0.2c-0.4,0-0.4-0.1-0.7-0.1c-0.7,0-0.4,0.8,0.2,1l-0.4,0.1c0-0.3,0-0.3-0.4-0.3c0.2-0.3,0-0.2-0.1-0.7
		c0.4-0.4-0.5-0.1-0.5,0.1l0.1,1l-0.1,0c-0.1-0.4-0.1-0.4-0.5-0.2l-0.1-0.2l0-0.5c0.1-0.1,0.3-0.2,0.3-0.3c0-0.4-0.6-0.9-1-0.9
		c-0.2,0-0.2,0-0.4,0.1l0.2-0.4l0.2-0.1c0.1-0.1,0.4-0.5,0.4-0.5c0-1.1-1.5-0.4-0.7-0.1V66l-0.1,0.4l-0.3,0.3l-0.4-0.1
		c-0.1-0.6-0.1-0.4-0.7-0.4l0-0.1l-0.5-0.3v-0.1h0.2c0-0.4-0.5-0.4-0.9-0.4h-1.1c-0.2,0-0.4,0.4-0.4,0.6c0,0,0.9,1.4,1,1.9
		c-0.1,0.2-0.4,0.5-0.4,0.8v0.7c0,0.5,0.4,0.5,0.4,1h-0.2v0.6c0,0.2,0.1,0.2,0.2,0.2c0.2,0,0.2-0.1,0.2-0.2l0.7-0.3v0.1l1.1,0.1
		l0.2,0.7l-0.5-0.1L63.9,72c-0.7-0.2-0.1,0.9-0.1,1.4l-0.1,0.1c-0.3-0.4-0.7-0.9-1.2-0.9c-0.2,0-0.4,0.3-0.5,0.5l-0.6,0.7l-0.1,0.1
		c-0.1-0.1-0.1-0.1-0.3-0.1c-0.8,0-0.8,0.1-0.9,0l-0.4,0.4l-0.4,0.1c1.6-1.8-4.2,1.7-4.8,2.6h-0.7c-0.9,0.6-1.6,0.9-2.4,1.5
		C51,78.5,49,80,49,80.1c0,0.2,0.1,0.2,0.3,0.3L49.2,81l-0.4-0.2l0,0.1l0.3,0.4l-0.8,0.4c0.1-0.1,0.5-0.5,0.5-0.6
		c0-0.2-0.1-0.2-0.2-0.2h-0.1c-0.3,0-1.1,0.8-1.2,1h-0.3v-0.1c-0.4,0.1-1.7,0.9-2.1,1.2c-0.3,0.2-1.5,1.6-1.5,2
		c0,0.5,0.5,0.1,0.5,0.5v0.1c0,0.2-0.1,0.2-0.1,0.3c0,0.3,0,0.1,0.1,0.4c0.4,0.1,1,0,1.3,0.1c0.4,0.1,0.6,0.4,1.1,0.4h0.1
		c0.5,0,1.3-1.2,2-1.2h1.9c0.6,0,1.2,1,1.6,1c0.9,0-0.1,0.1,0.6,0.4c0.3,0.2,0.5,0.3,0.8,0.5c0.4,0.4,0.8,0.9,1.2,1.3
		c0.2,0.2,1.1,1,1.3,1.1c0.4,0.2,0.5-0.1,0.9,0.3c0.2,0.2,0.3,0.6,0.7,0.6c0.1,0,0.6-0.6,0.7-0.6l0.6,0.1l0.1-0.2l0.3,0.1l0.2-0.5
		c0.7,0.1,2.6,1.8,3.1,2.4c0.4,0.5,0.5,1.2,0.7,2c0.1,0.3,0.4,2.1,0.4,2.3v0.5c0,0.6-0.1,0.9-0.4,1.3c-0.5,0-0.6-0.1-0.6,0.4
		c-0.1,0.2-0.3,0.4-0.3,0.7c0,0.8,0.4,1.6,0.4,2.5v0.1c0,0.6-0.3,1.1-0.7,1.3c0,0.1,0.1,0.2,0.1,0.2c0,0.2-0.1,0.2-0.2,0.3l-0.3-0.2
		l-0.3,0.4h-0.1c0-0.2,0-0.2-0.2-0.2h-0.1c-0.2,0-0.3,0.2-0.4,0.3l0.1,0.4h-0.1v-0.1h-0.1l0,0.2l-0.4-0.2v0.2c0,0.6,0.9,1.1,1.3,1.3
		c0.4,0.2,0.3,0.5,0.7,0.6c0.5,0.1,0.8,0.3,1,0.3l0.9-0.1c1.4,0.9,0,1.8,2,1.8c0.1,0.2,0.2,0.6,0.5,0.6h0.4c0.6,0,1.1-0.4,1.2-0.4
		h0.7c0.6,0,0.7,0.2,1.2,0.2c0,0,1.1-0.3,1.3-0.3c0.5-0.1,0.7-0.4,1.1-0.5c1.5-0.6,0.8-1.4,1.5-1.8l0.3,0.1c0.2-0.2,1.5-0.6,1.5-0.8
		c0-0.2,0-0.1-0.1-0.3c0.5-0.6,0.3-0.4,1.2-0.4c0-0.1,0.1-0.2,0.1-0.2c0-0.3-0.1-0.3-0.1-0.5c0-0.4,0.4,0.1,0.5-1
		c0-0.1,0.3-0.9,0.4-1.1c0.2-0.5,1-1.3,1.4-1.7c0.1-0.1,0.9-0.5,1-0.6c0.7-0.3,0.5-0.4,0.9-0.6c0.8-0.4,1.6-0.4,2-1.1
		c1.1-0.2,2-0.2,3-0.4l0,0.1c0.3-0.2,0.5-0.7,1.3-0.7c0.4,0,0.4,0.2,1,0.2c0.2,0.3,0.6,1,1,1c0.5,0,0.8-0.6,1-1c0-1.1,0.1-1.6,0.7-2
		c1.6,0,0.6-1.6,1.3-1.6c0.4,0,0.5,0.2,1.2,0.2c0.2,0.1,0.3,0.4,0.5,0.4h0.3c0.2,0,0.2-0.1,0.2-0.2c0-0.3-0.5-0.4-0.5-0.8
		c0-0.4,0.9-0.2,0.9-0.7c0-0.2-0.1-0.2-0.4-0.2c0-0.3-0.1-0.2-0.1-0.4c0-1,2.1-2.2,3.1-2.2h0.2c1.4,0,3.1,1.3,4,1.9
		c0,0.4,0.2,1,0.6,1h0.1c0.5,0,0.8-0.7,1.3-0.7c0.3,0,0.4,0.2,0.7,0.2c0.4,0,0.3-1,1.2-1c0.5,0,0.9,0.2,1.6,0.1c2.7,0,0.9,0,3.1-0.7
		c0.5-0.1,0.7,0,1.1-0.1c0.2,0,1.4-0.8,1.4-1c0-0.2-0.5-0.5-0.7-1.2c-0.1-0.3-0.3-1.4-0.4-1.6c0.9-1.7,0.2-1.3,0.2-1.4v-0.3
		c0-0.6,0.8-0.5,0.8-1.4c0-0.3,0.2-0.6,0.4-0.6c0.4,0,0.5,0.4,1.1,0.4c0.7,0,1.4-0.5,1.4-1c0-0.2-0.8-0.5-0.8-0.7
		c0-0.3,0-0.7-0.4-0.7h-0.1c-0.3,0-0.2,0.3-0.3,0.6c-1.3-0.6-1.5-0.4-2.4-0.4c-0.7,0-1.3-1.3-1.7-0.5c-0.4-0.1-0.4-0.3-0.6-0.3
		c-0.4,0-1.2,0.4-1.6,0.4h-0.1c-0.9,0-1.7,0.3-2.2,0.9L106,82c0.1,0.6-0.9,1-1.5,1c-0.9,0-2.3-0.9-2.3-1.6c0-0.2,0.4-0.3,0.4-0.5
		c0-0.2-0.1-0.2-0.2-0.2h-0.3c-0.6,0-0.5,0.3-0.5,0.7c0,0.3-1.2,0.8-1.2,1.6c0,0.2,0.1,0.2,0.1,0.3c-0.6,0.9-0.7,0.9-1.8,1.2
		c-0.8,0.3-1.5,1-2.1,1c-0.9,0-2.2-1.1-2.8-1.7c-0.3-0.3-0.6-0.7-1-1.1c-0.4-0.4-0.7-0.7-1-1.1c-0.6-0.8-1.1-1.6-1.9-2.3
		c-0.8-0.7-1.3-1.5-2-2.3c-1-1.1-2.3-3.9-2.9-5.5c-0.3-0.8-1-2.1-1.2-3c-0.1-0.3,0-0.7-0.1-1c-0.1-0.3-0.2-0.2-0.3-0.7
		c-0.1-0.4-0.1-1.5-0.6-1.6l0.1,1.4v0.2h-0.3c0.1-0.4-3-1-1.2,0.1l-0.1,0.7c0.5,0.3,1,1.4,1,0.4c0-0.2,0.1-0.6,0.2-0.6
		c1,0,0.3,1.7,1.1,1.7l0.5,1l-0.1,0.1l-0.5-0.6l-0.1,0l0.4,1.2l-0.2,0.7c0.2,1.4-0.8,1.4,0.1,1.5l0.5-0.3l0.1-0.7
		c0.5,0,0.6,0.6,0.8,1c0.2,0.5,0.4,0.8,0.6,1.2c0.8,2.3,2.5,3.4,4.7,6.1c0.3,0.5,0.2,0.3,0.6,0.6c0.3,0.3,0.3,0.4,0.5,0.7
		c0.3,0.4,1,0.9,1,1.4h0.2c0,0,0.9,0.9,1,1c0.4,0.3,0.6,0.9,0.9,1.1l-0.2-0.4l0-0.1l1,0.6c0,0.2-0.1,0.1-0.1,0.3
		c0,0.2,0.3,0.2,0,0.2v0.3c-0.1,0-0.2-0.1-0.2-0.1c-0.3,0-0.5,0.3-0.8,0.3c-1.1,0-0.1,0.6-1.2,0.2c0-0.5,0.3-0.1,0.4-0.7
		c-0.1,0-1.8-0.7-1.8-0.7c-0.4,0-0.2,0.4-0.2-0.1c0-0.3-1.1-0.5-1.4-0.5c-0.3,0-0.2,0.2-0.4,0.2h-0.1c-0.9,0-1.7-1.8-2.1-2.5
		c0.5-0.7,2.3-1.5,0.7-2.5L88,79.3V79c0-0.2-0.1-0.2-0.2-0.2l-0.4,0c0.2-1,0.4-1.5-0.8-1.5c-0.2-0.4-0.6-0.5-1-0.7
		c-0.3,0-0.4,0-0.6,0.2l-0.4-0.1v-0.2c0-0.4,0.6-0.3,0-0.5c-0.3-0.1-0.4,0.1-0.7,0.3l-0.1-0.1c0-0.1,0.4-1.6-1-0.6h-0.2
		c-0.3,0-0.6,0.2-0.8,0.4l-0.5,0.1l0-0.2l-0.3-0.1c0.1-0.2,0.7-0.7,0.8-0.7h0.4v-0.3c0-0.2,0.5-0.5,0.5-0.8c0-0.2-0.1-0.2-0.4-0.2
		c0-0.1,0.2-1.1-0.3-0.6C82,73.6,81,73.4,80.9,74h-0.1c0-0.4,0.2-0.7,0.2-1.3l0-0.2l0.7-0.3l0.5-0.2c0.1,0.2,0.5,0.7,0.5,0.1
		c0-0.2-0.1-0.4-0.1-0.6l-0.4,0l-0.2,0.4c-0.4,0-0.9,0.2-1.2,0.4c-0.8,0.4-0.4,0.6-0.8,0.8c-0.1-0.2-0.3,0.5-0.7,0.8
		c-0.1,0.1-1,0.7-1.1,0.7c-0.2,0-0.1,0-0.2-0.2l-0.3-0.2l-0.2-0.2l0.9,0v-0.2c0-0.2,0.5-0.6,0.6-0.7c0-0.7,0-1.2,0.7-0.8
		c1.1-0.5,0.1-0.2,0.2-1.1l0.3-0.2c0.3,0.2,0.4,0,0.4-0.4v-0.1c0-0.2-0.6-0.3-0.8-0.4c-0.5-0.2-0.3-0.5-0.7-0.6v0.4h-0.1
		c0,0.7,0.4,0.7,0.4,1.2c0,0.1,0,0.2-0.1,0.2c-0.8,0-0.6-0.8-0.8,0.5l-0.8,1v-0.4l0.2,0l-0.1-0.7c0.1-0.1,0.2-0.3,0.2-0.4
		c0-0.1-1.1-1-1.3-1.1c-0.8-0.5-0.4-1.4-1-1.2c0-0.4-0.6-1-0.4-0.2c-0.3,0-0.4,0.1-0.1,0.2c0,0.2-0.1,0.2-0.1,0.4v0.3h-0.2
		c0-0.6-0.7,0.2-0.7-0.7l0-0.1c0.1-0.7-0.3-0.9-0.1-0.4l-0.1,0.5c-0.2-0.5-0.3-0.1-0.4,0.2l0.2,0.5l-0.4,0.1c0.2-0.4,0-0.3,0-0.7
		l0-0.2c0.3-0.3,0.1-0.3-0.2-0.5c-0.2,0-1-0.2-1.1-0.1C71.8,68.4,71.8,69.1,72.1,68.7L72.1,68.7z"/>
	<path class="st1" d="M30.4,31.1l15.1,0.1c0,0,4.7,1.1,6.4,6.7c0.5,1.7,0.7,5.5-0.2,7.1c-0.8,1.2-2.5,3.6-5.1,4.4l9.7,14.4h-7.5
		l-8.3-12.4l-3.8-0.1l-0.1,12.5l-6.1,0V31.1L30.4,31.1z M36.5,36.6v8.8l4.6,0c1.4,0,2.8-0.5,3.9-1.6c0.4-0.4,0.7-1,0.9-1.7
		c0.4-1.7-0.1-4-1.4-4.8c-0.7-0.4-1.8-0.7-3.3-0.7L36.5,36.6L36.5,36.6z"/>
</g>
</svg>
