<?xml version="1.0" encoding="utf-8"?>
<!-- Generator: Adobe Illustrator 22.0.1, SVG Export Plug-In . SVG Version: 6.00 Build 0)  -->
<svg version="1.1" id="Capa_1" xmlns="http://www.w3.org/2000/svg" xmlns:xlink="http://www.w3.org/1999/xlink" x="0px" y="0px"
	 viewBox="0 0 448 448" style="enable-background:new 0 0 448 448;" xml:space="preserve">
<style type="text/css">
	.st0{fill:#22ABC5;}
</style>
<g>
	<g>
		<rect x="64" y="80" class="st0" width="320" height="96"/>
	</g>
</g>
<g>
	<g>
		<rect x="256" y="208" class="st0" width="128" height="32"/>
	</g>
</g>
<g>
	<g>
		<rect x="64" y="208" class="st0" width="128" height="32"/>
	</g>
</g>
<g>
	<g>
		<path class="st0" d="M416,16H32C14.3,16,0,30.3,0,48v256c0,17.7,14.3,32,32,32h384c17.7,0,32-14.3,32-32V48
			C448,30.3,433.7,16,416,16z M240,320h-32v-16h32V320z M416,272H32V48h384V272z"/>
	</g>
</g>
<g>
	<g>
		<polygon class="st0" points="287.3,382 287.3,350 160.5,350 160.5,382 128,382 128,414 320,414 320,382 		"/>
	</g>
</g>
</svg>
