<?xml version="1.0" encoding="utf-8"?>
<!-- Generator: Adobe Illustrator 22.0.1, SVG Export Plug-In . SVG Version: 6.00 Build 0)  -->
<svg version="1.1" id="Layer_1" xmlns="http://www.w3.org/2000/svg" xmlns:xlink="http://www.w3.org/1999/xlink" x="0px" y="0px"
	 viewBox="0 0 512 512" style="enable-background:new 0 0 512 512;" xml:space="preserve">
<style type="text/css">
	.st0{fill:#22ABC5;}
</style>
<g>
	<g>
		<circle class="st0" cx="333" cy="66.2" r="66.2"/>
	</g>
</g>
<g>
	<g>
		<path class="st0" d="M182.5,75.2c-36.6,0-66.2,29.6-66.2,66.2c0,2.8,0.2,5.6,0.5,8.3h131.3c0.3-2.7,0.5-5.5,0.5-8.3
			C248.7,104.8,219.1,75.2,182.5,75.2z"/>
	</g>
</g>
<g>
	<g>
		<path class="st0" d="M312.9,260.1h142.5v-54.8c0-13.5-10.9-24.4-24.4-24.4H46.6c-13.5,0-24.4,10.9-24.4,24.4v282.3
			c0,13.5,10.9,24.4,24.4,24.4h384.5c13.5,0,24.4-10.9,24.4-24.4v-54.8H312.9c-29.4,0-53.2-23.9-53.2-53.2v-66.3
			C259.7,284,283.6,260.1,312.9,260.1z"/>
	</g>
</g>
<g>
	<g>
		<path class="st0" d="M469.9,293.4H312.9c-11,0-20,8.9-20,20v66.3c0,11,8.9,20,20,20h156.9c11,0,20-8.9,20-20v-66.3
			C489.8,302.3,480.9,293.4,469.9,293.4z M346,369.9c-12.9,0-23.4-10.5-23.4-23.4S333,323,346,323s23.4,10.5,23.4,23.4
			C369.4,359.4,358.9,369.9,346,369.9z"/>
	</g>
</g>
</svg>
