<svg version="1.1" xmlns="http://www.w3.org/2000/svg" xmlns:xlink="http://www.w3.org/1999/xlink" viewBox="0 0 489.3 369.8" style="enable-background:new 0 0 489.3 369.8;" xml:space="preserve">
		<path d="M79.6,170c-10.2,10.2-10.2,26.8,0,37.1c10.2,10.2,26.8,10.2,37.1,0c70.6-70.6,185.5-70.6,256.1,0
			c5.1,5.1,11.8,7.7,18.5,7.7s13.4-2.6,18.5-7.7c10.2-10.2,10.2-26.8,0-37.1C318.8,78.8,170.6,78.8,79.6,170z"/>
		<path d="M150.4,240.8c-10.2,10.2-10.2,26.8,0,37.1c10.2,10.2,26.8,10.2,37.1,0c31.5-31.6,82.9-31.6,114.4,0
			c5.1,5.1,11.8,7.7,18.5,7.7s13.4-2.6,18.5-7.7c10.2-10.2,10.2-26.8,0-37C287,188.8,202.4,188.8,150.4,240.8z"/>
		<circle cx="244.6" cy="334.9" r="34.9"/>
		<path d="M481.6,98C351-32.7,138.4-32.7,7.6,98c-10.2,10.2-10.2,26.8,0,37.1c10.2,10.2,26.8,10.2,37.1,0
			c110.2-110.3,289.6-110.3,399.9,0c5.1,5.1,11.8,7.7,18.5,7.7s13.4-2.6,18.5-7.7C491.9,124.8,491.9,108.3,481.6,98z"/>
</svg>
