<svg version="1.1" xmlns="http://www.w3.org/2000/svg" xmlns:xlink="http://www.w3.org/1999/xlink" viewBox="0 0 511.6 383.7" style="enable-background:new 0 0 511.6 383.7;" xml:space="preserve">
		<path d="M9.1,137H402v54.8c0,2.5,0.9,4.6,2.7,6.4c1.8,1.8,4,2.7,6.4,2.7c2.7,0,4.9-0.9,6.6-2.6l91.4-91.4c1.7-1.7,2.6-3.9,2.6-6.6
			c0-2.7-0.9-4.9-2.6-6.6L418,2.9C415.7,1,413.4,0,411.1,0c-2.7,0-4.9,0.9-6.6,2.6c-1.7,1.7-2.6,3.9-2.6,6.6V64H9.1
			c-2.5,0-4.6,0.9-6.4,2.7S0,70.6,0,73.1v54.8c0,2.5,0.9,4.6,2.7,6.4S6.7,137,9.1,137z"/>
		<path d="M502.5,246.7H109.6v-54.8c0-2.5-0.9-4.6-2.7-6.4c-1.8-1.8-4-2.7-6.4-2.7c-2.7,0-4.9,0.9-6.6,2.6L2.6,276.7
			c-1.7,1.7-2.6,3.9-2.6,6.6c0,2.5,0.9,4.6,2.6,6.3l91.1,91.4c2.3,1.9,4.6,2.9,6.9,2.9c2.5,0,4.6-0.9,6.4-2.7
			c1.8-1.8,2.7-3.9,2.7-6.4v-54.8h392.9c2.5,0,4.6-0.9,6.4-2.7c1.8-1.8,2.7-3.9,2.7-6.4v-54.8c0-2.5-0.9-4.6-2.7-6.4
			C507.1,247.6,505,246.7,502.5,246.7z"/>
</svg>
