<?xml version="1.0" encoding="utf-8"?>
<!-- Generator: Adobe Illustrator 22.1.0, SVG Export Plug-In . SVG Version: 6.00 Build 0)  -->
<svg version="1.1" id="Layer_1" xmlns="http://www.w3.org/2000/svg" xmlns:xlink="http://www.w3.org/1999/xlink" x="0px" y="0px"
	 viewBox="0 0 357.3468933 325.779541" style="enable-background:new 0 0 357.3468933 325.779541;" xml:space="preserve">
<style type="text/css">
	.st0{fill:#0E3B42;}
</style>
<polygon class="st0" points="205.8215942,178.0423279 178.0419617,160.9957275 149.6309814,178.0423279 149.6309814,251.9108887 
	178.6733093,266.4320679 205.821579,251.9108887 205.821579,178.0423279 "/>
<polygon class="st0" points="151.5250397,118.0635757 178.0419617,134.4788208 205.8215942,118.0635757 205.8215942,73.2373505 
	178.6733246,59.347538 151.5250549,73.2373505 151.5250549,118.0635757 "/>
<path class="st0" d="M178.6734467,0L0,89.6525192c0,40.4068832,0,106.0676041,0,146.4744873l178.6734467,89.6525269
	l178.6734467-89.6525269c0-40.4068909,0-105.4364014,0-146.4744873L178.6734467,0z M55.5591812,227.9194641l-23.9914207-11.3643188
	V106.0679855l76.3938293-38.5129013v80.8134003l-23.3602142-5.050766v-37.8813171L55.5591812,119.957489V227.9194641z
	 M108.5931778,257.5932312l-23.991806-11.9958954v-62.5043182l-20.2034454-3.7879791v-23.9914246h0.6315842l43.5636673,8.8387451
	V257.5932312z M229.1818695,131.3221893l-28.4109802,17.0462952l28.4109802,17.0466614v101.0168304l-50.5084229,27.1481934
	l-52.4024048-27.1481934V164.7839508l29.0421906-17.0466766l-27.1481934-16.4150848V58.7163429l50.5084076-25.8857956
	l50.5084229,25.8857956V131.3221893z M323.2535706,219.0803375l-77.0250397,39.7753143v-46.0888672l53.0336151-81.4445953
	V119.957489l-29.6734009-14.5210876v37.8813171l-23.3602142,5.050766v-81.444603l76.3938446,38.5125198v32.1993408
	l-47.3516541,72.6058502v6.9447632l47.9828491-24.6230164V219.0803375z"/>
</svg>
