<?xml version="1.0" encoding="utf-8"?>
<!-- Generator: Adobe Illustrator 22.0.1, SVG Export Plug-In . SVG Version: 6.00 Build 0)  -->
<svg version="1.1" id="Layer_1" xmlns="http://www.w3.org/2000/svg" xmlns:xlink="http://www.w3.org/1999/xlink" x="0px" y="0px"
	 viewBox="0 0 103.8 70.3" style="enable-background:new 0 0 103.8 70.3;" xml:space="preserve">
<style type="text/css">
	.st0{fill:#FFF2E3;}
</style>
<path class="st0" d="M3.6,70.1H0l4.9-12.9h3.7l4.9,12.9H9.9l-0.8-2.3H4.4L3.6,70.1L3.6,70.1z M80.2,14.2L51.9,0L23.6,14.2
	c0,6.4,0,16.8,0,23.2l28.3,14.2l28.3-14.2C80.2,31,80.2,20.7,80.2,14.2L80.2,14.2z M28.6,34.3V16.8l12.1-6.1v12.8L37,22.7v-6
	L32.4,19v17.1L28.6,34.3L28.6,34.3L28.6,34.3z M33.9,24.6l6.9,1.4v14.8L37,38.9V29l-3.2-0.6V24.6L33.9,24.6z M74.7,16.7v5.1
	l-7.5,11.5v1.1l7.6-3.9v4.2L62.6,41v-7.3L71,20.8V19l-4.7-2.3v6l-3.7,0.8V10.6L74.7,16.7L74.7,16.7z M56.2,28.2l-4.4-2.7l-4.5,2.7
	v11.7l4.6,2.3l4.3-2.3V28.2L56.2,28.2z M48.2,23.4l-4.3-2.6V9.3l8-4.1l8,4.1v11.5l-4.5,2.7l4.5,2.7v16l-8,4.3l-8.3-4.3V26.1
	L48.2,23.4L48.2,23.4z M47.6,18.7l4.2,2.6l4.4-2.6v-7.1l-4.3-2.2l-4.3,2.2V18.7L47.6,18.7z M5.3,65.4h3l-1.5-4.3L5.3,65.4L5.3,65.4z
	 M18.3,67.4c-0.1,0.9-0.3,1.6-0.9,2.1c-0.5,0.5-1.2,0.8-2,0.8c-0.2,0-0.5,0-0.7,0c-0.2,0-0.4,0-0.6-0.1c-0.2,0-0.4-0.1-0.6-0.1v-2.5
	h0.8c0.2,0,0.4-0.1,0.6-0.2c0.2-0.2,0.2-0.4,0.2-0.6l0.6-9.6H26v12.9h-3.3V59.8h-3.9L18.3,67.4L18.3,67.4z M30.8,61.6h4.4
	c1.3,0,2.2,0.3,2.8,0.9c0.6,0.6,0.9,1.5,0.9,2.8v1.1c0,1.3-0.3,2.2-0.9,2.8c-0.6,0.6-1.5,0.9-2.8,0.9h-7.8V57.2h3.3V61.6L30.8,61.6z
	 M35.6,65.3c0-0.7-0.4-1.1-1.1-1.1h-3.7v3.3h3.7c0.7,0,1.1-0.4,1.1-1.1V65.3L35.6,65.3z M51.3,70.1H48v-4.3h-2.5l-2.3,4.3h-3.5
	l2.4-4.4c-0.8-0.2-1.4-0.6-1.7-1.1c-0.3-0.6-0.5-1.4-0.5-2.4v-1.3c0-1.3,0.3-2.2,0.9-2.8c0.6-0.6,1.5-0.9,2.8-0.9h7.8V70.1
	L51.3,70.1z M43.2,62.2c0,0.7,0.4,1.1,1.1,1.1H48v-3.5h-3.7c-0.7,0-1.1,0.4-1.1,1.1V62.2L43.2,62.2z M64.2,70.1h-3.3v-5.3h-4.6v5.3
	H53V57.2h3.3v5.1h4.6v-5.1h3.3V70.1L64.2,70.1z M69.4,70.2c-1.2,0-2.1-0.3-2.7-0.8c-0.6-0.6-0.9-1.4-0.9-2.6v-5.9
	c0-1.3,0.3-2.2,0.9-2.8c0.6-0.6,1.5-0.9,2.8-0.9h6.7v2.6h-5.9c-0.7,0-1.1,0.4-1.1,1.1v5.9c0,0.3,0.1,0.5,0.2,0.7
	c0.2,0.2,0.4,0.2,0.7,0.2c0.2,0,0.5,0,0.8,0c0.3,0,0.6,0,1,0c0.3,0,0.7,0,1,0c0.3,0,0.7-0.1,1-0.2c0.8,0,1.5,0,2.3,0v2.4
	c-0.8,0.2-1.6,0.2-2.5,0.2c-0.7,0-1.4,0-2.2,0C70.8,70.2,70.1,70.2,69.4,70.2L69.4,70.2z M86,64.9c-0.7,0-1.1,0.4-1.1,1.1v0.7
	c0,0.3,0.1,0.5,0.2,0.7c0.2,0.2,0.4,0.2,0.7,0.2h2.8c0.3,0,0.5-0.1,0.7-0.2c0.2-0.2,0.2-0.4,0.2-0.7V66c0-0.7-0.4-1.1-1.1-1.1H86
	L86,64.9z M86.4,59.6c-0.7,0-1.1,0.4-1.1,1.1v0.6c0,0.7,0.4,1.1,1.1,1.1h1.7c0.7,0,1.1-0.4,1.1-1.1v-0.6c0-0.7-0.4-1.1-1.1-1.1H86.4
	L86.4,59.6z M92.9,66.8c0,1.2-0.3,2.1-0.9,2.7c-0.6,0.6-1.5,0.9-2.7,0.9h-4.3c-1.2,0-2.1-0.3-2.7-0.9c-0.6-0.6-0.9-1.5-0.9-2.7v-0.2
	c0-0.5,0.1-1,0.2-1.3c0.1-0.4,0.3-0.7,0.5-1c0.2-0.3,0.4-0.5,0.7-0.6c0.3-0.2,0.5-0.3,0.8-0.4c-0.6-0.2-1-0.5-1.3-1
	c-0.3-0.5-0.5-1.1-0.5-1.8v-0.2c0-1.1,0.3-2,0.9-2.5c0.6-0.5,1.5-0.8,2.7-0.8H89c1.2,0,2.1,0.3,2.7,0.8c0.6,0.5,0.9,1.4,0.9,2.5v0.2
	c0,0.7-0.2,1.3-0.5,1.8c-0.3,0.5-0.8,0.8-1.3,1c0.3,0.1,0.5,0.2,0.8,0.4c0.3,0.2,0.5,0.4,0.7,0.6c0.2,0.3,0.4,0.6,0.5,1
	c0.1,0.4,0.2,0.8,0.2,1.3V66.8L92.9,66.8z M103.8,61.2c0,0.4-0.1,0.8-0.2,1.1c-0.1,0.3-0.3,0.6-0.5,0.9c-0.2,0.3-0.4,0.5-0.7,0.8
	c-0.3,0.2-0.6,0.5-0.9,0.7l-4,2.9h6.2v2.6h-10v-3.5l6.7-4.8v-0.9c0-0.7-0.4-1.1-1.1-1.1h-5.2v-2.6h5.9c1.3,0,2.2,0.3,2.8,0.9
	c0.6,0.6,0.9,1.5,0.9,2.8V61.2L103.8,61.2z"/>
</svg>
