<?xml version="1.0" encoding="utf-8"?><svg xmlns="http://www.w3.org/2000/svg" xmlns:xlink="http://www.w3.org/1999/xlink"><symbol id="feat-1" viewBox="0 0 512 512" xml:space="preserve" xmlns="http://www.w3.org/2000/svg"><style>.ast0{fill:#fbf0e1}</style><path class="ast0" d="M381.7 166.3H146V42.8c0-8.7-7-15.7-15.7-15.7h-63c-8.7 0-15.7 7-15.7 15.7s7 15.7 15.7 15.7h47.4v108.7C50 174.9 0 229.8 0 296.6c0 49.4 27.4 93.7 70.8 115.9.7 40 33.4 72.4 73.6 72.4 35.2 0 64.7-24.9 71.9-58h100.6l29.9 50.3c2.8 4.8 7.9 7.7 13.5 7.7h26.8c8.7 0 15.7-7 15.7-15.7v-44c62-10.1 109.3-63.7 109.3-128.6-.1-71.9-58.6-130.3-130.4-130.3zM144.4 453.5c-23.3 0-42.3-19-42.3-42.3 0-23.4 19.2-42.3 42.3-42.3 23.3 0 42.3 19 42.3 42.3 0 23.4-19 42.3-42.3 42.3zm169.2-175.8H198.4c-8.7 0-15.7-7-15.7-15.7s7-15.7 15.7-15.7h115.2c8.7 0 15.7 7 15.7 15.7s-7.1 15.7-15.7 15.7zm57.8 175.8h-2.3l-15.8-26.6h18.1v26.6z"/><path class="ast0" d="M384.7 109H350v-7.8c0-8.7-7-15.7-15.7-15.7H177.7c-8.7 0-15.7 7-15.7 15.7v33.7c95.2 0 222.8-.7 238.4 1.1v-11.3c0-8.7-7-15.7-15.7-15.7z"/></symbol><symbol viewBox="0 0 512 512" id="feat-2" xmlns="http://www.w3.org/2000/svg"><path class="bst0" d="M497 121c-8.3 0-15 6.7-15 15v75h-60v-75c0-8.3-6.7-15-15-15s-15 6.7-15 15v75h-60V15c0-8.3-6.7-15-15-15s-15 6.7-15 15v45H122V15c0-8.3-6.7-15-15-15S92 6.7 92 15v256H30v-45c0-8.3-6.7-15-15-15s-15 6.7-15 15v271c0 8.3 6.7 15 15 15s15-6.7 15-15V391h62v106c0 8.3 6.7 15 15 15h390c8.3 0 15-6.7 15-15V136c0-8.3-6.7-15-15-15zM92 361H30v-60h62v60zm240-120h60v60h-60v-60zm-15 120h30c8.3 0 15 6.7 15 15s-6.7 15-15 15h-30c-8.3 0-15-6.7-15-15s6.7-15 15-15zM122 90h180v30H122V90zm135 361h-90c-8.3 0-15-6.7-15-15s6.7-15 15-15h90c8.3 0 15 6.7 15 15s-6.7 15-15 15zm0-60h-90c-8.3 0-15-6.7-15-15s6.7-15 15-15h90c8.3 0 15 6.7 15 15s-6.7 15-15 15zm0-60h-90c-8.3 0-15-6.7-15-15s6.7-15 15-15h90c8.3 0 15 6.7 15 15s-6.7 15-15 15zm0-60h-90c-8.3 0-15-6.7-15-15s6.7-15 15-15h90c8.3 0 15 6.7 15 15s-6.7 15-15 15zm0-60h-90c-8.3 0-15-6.7-15-15s6.7-15 15-15h90c8.3 0 15 6.7 15 15s-6.7 15-15 15zm180 240H317c-8.3 0-15-6.7-15-15s6.7-15 15-15h120c8.3 0 15 6.7 15 15s-6.7 15-15 15zm45-90h-60V241h60v120z"/></symbol><symbol viewBox="0 0 512 512" id="feat-3" xmlns="http://www.w3.org/2000/svg"><path class="cst0" d="M416 32H96c-17.7 0-32 14.3-32 32v268.9c0 22.9 12.3 44.1 32.2 55.5L256 480l159.8-91.5c19.9-11.4 32.2-32.6 32.2-55.5V64c0-17.7-14.3-32-32-32zM239.3 320L144 224.7l32-32.7 64 64 112-112 32 32-144.7 144z"/></symbol><symbol id="feat-4" viewBox="0 0 512 512" xml:space="preserve" xmlns="http://www.w3.org/2000/svg"><style>.dst0{fill:#fbf0e1}</style><g id="dXMLID_385_"><path id="dXMLID_394_" class="dst0" d="M90.3 309.2c0 7.5 6.1 13.6 13.6 13.6h.7c7.5 0 13.6-6.1 13.6-13.6v-64.1H90.3v64.1z"/><path id="dXMLID_397_" class="dst0" d="M212.1 244.8v55.5c0 8.3-6.8 15.1-15.1 15.1s-15.1-6.8-15.1-15.1v-55.5h-33.5v64.4c0 24.1-19.6 43.7-43.7 43.7h-.7c-24.1 0-43.7-19.6-43.7-43.7v-64.4H0v252.8h271.1V244.8h-59z"/><path id="dXMLID_398_" class="dst0" d="M135.5 117.6c55.3 0 100.7 42.8 105 97h30.2c-4.3-70.8-63.4-127.2-135.3-127.2C63.6 87.4 4.6 143.7.3 214.6h30.2c4.3-54.2 49.8-97 105-97z"/><path id="dXMLID_403_" class="dst0" d="M512 151.2V13.9h-59.6v78.6h-30.2V13.9H300v137.3h212z"/><path id="dXMLID_404_" class="dst0" d="M472 246.8c22.1 0 40-17.9 40-40v-25.5H300v25.4c0 22.1 17.9 40 40 40h132z"/><path id="dXMLID_455_" class="dst0" d="M359.8 277.1v43.3c0 25.6-6 51.4-17.9 76.6-4.6 9.8-6.9 20.3-6.8 31.2.2 18.9 8.1 36.7 22.1 50.1 13.4 12.8 30.7 19.8 48.8 19.8h2.3c18.4-.6 35.6-8.2 48.5-21.5 12.9-13.3 20-30.8 20-49.3 0-10.3-2.2-20.2-6.4-29.4-12.1-26.5-18.3-53.5-18.3-80.3v-40.4l-92.3-.1zm46.2 133c8.5 0 14.7 6.9 15.1 15.1.4 8.1-7.2 15.1-15.1 15.1-8.5 0-14.7-6.9-15.1-15.1-.4-8.1 7.2-15.1 15.1-15.1z"/></g></symbol><symbol id="feat-5" viewBox="0 0 512 512" xml:space="preserve" xmlns="http://www.w3.org/2000/svg"><style>.est0{fill:#fbf0e1}</style><path class="est0" d="M15 512h31v-30c0-8.3 6.7-15 15-15s15 6.7 15 15v30h45V407c0-4.6-2.1-9-5.8-11.8-3.6-2.9-8.4-3.9-12.9-2.7l-91 30C4.7 424.1 0 430.1 0 437v60c0 8.3 6.7 15 15 15z"/><path class="est0" d="M417.3 363.4l33.7 11.2v-58.7c0-8.3-6.7-15-15-15H76c-8.3 0-15 6.7-15 15v58.6L92.9 364c15.8-4.4 29.8-1.1 40.9 7.6C144.7 380.1 151 393 151 407v105h30v-75c0-8.3 6.7-15 15-15s15 6.7 15 15v75h30v-75c0-8.3 6.7-15 15-15s15 6.7 15 15v75h30v-75c0-8.3 6.7-15 15-15s15 6.7 15 15v75h30V407c0-14 6.3-26.9 17.3-35.5 10.8-8.5 25.4-11.7 39-8.1z"/><path class="est0" d="M500.6 422.5l-91-30c-4.4-1.2-9.2-.1-12.9 2.7-3.6 2.8-5.8 7.2-5.8 11.8v105h45v-30c0-8.3 6.7-15 15-15s15 6.7 15 15v30h31c8.3 0 15-6.7 15-15v-60c.1-6.9-4.6-12.9-11.3-14.5zM256 0c-8.3 0-15 6.7-15 15v54.8L227.8 83c-19.2 19.2-32.2 42.7-39.6 68H241v-15c0-8.3 6.7-15 15-15s15 6.7 15 15v15h52.8c-7.4-25.4-20.4-48.8-39.6-68L271 69.8V15c0-8.3-6.7-15-15-15zM121 196v75h60v-45c0-8.3 6.7-15 15-15s15 6.7 15 15v45h30v-45c0-8.3 6.7-15 15-15s15 6.7 15 15v45h30v-45c0-8.3 6.7-15 15-15s15 6.7 15 15v45h60v-75c0-8.3-6.7-15-15-15H136c-8.3 0-15 6.7-15 15zM0 91c0 16.6 14.4 30 31 30h90c16.6 0 30-13.4 30-30 0-16.2-13.3-31.4-32.9-29.4 1.8-4.9 2.9-10.1 2.9-15.6 0-24.9-20.1-46-45-46S31 21.1 31 46c0 5.5 1.1 10.7 2.9 15.6C14.4 59.6 0 74.6 0 91zm478.1-29.4c1.8-4.9 2.9-10.1 2.9-15.6 0-24.9-20.1-46-45-46s-45 21.1-45 46c0 5.5 1.1 10.7 2.9 15.6-19.5-2-32.9 13-32.9 29.4 0 16.6 13.4 30 30 30h90c16.6 0 31-13.4 31-30 0-16.2-14.3-31.4-33.9-29.4z"/></symbol><symbol id="feat-6" viewBox="0 0 512 512" xml:space="preserve" xmlns="http://www.w3.org/2000/svg"><style>.fst0{fill:#fbf0e1}</style><path class="fst0" d="M0 453.3h512V498H0zM0 14h512v44.7H0zm34.1 74.7v334.5h36.7v-71.8H161v71.8h49.9V290h90.3v133.3h49.7V228.6h90.3v194.7H478V88.7H34.1zm370.6 108.4l-29.8-3.3 2.3-20.8-117.5 86.5L151 239l-69.1 55.1-18.7-23.5L143 207l109.3 20.6 107.4-79-23.2-2.5 3.3-29.8 72.9 8-8 72.8z"/></symbol><symbol viewBox="0 0 324.8 368.7" id="icon-hexa" xmlns="http://www.w3.org/2000/svg"><path class="gst0" d="M324.4 268.4c0 5.5-3.9 12.2-8.7 15l-145.1 83.3c-4.8 2.7-12.6 2.7-17.3 0l-144.7-84c-4.8-2.8-8.6-9.5-8.6-15l.4-167.3c0-5.5 3.9-12.2 8.7-15L154.1 2c4.8-2.7 12.6-2.7 17.3 0l144.7 84c4.8 2.8 8.6 9.5 8.6 15l-.3 167.4z"/></symbol><symbol viewBox="0 0 328.6 512" id="icon-mouse" xmlns="http://www.w3.org/2000/svg"><path d="M164.3 0C73.7 0 0 73.7 0 164.3v183.4C0 438.3 73.7 512 164.3 512s164.3-73.7 164.3-164.3V164.3C328.6 73.7 254.9 0 164.3 0zm0 30.8c72.8 0 132.2 58.6 133.5 131.1H179.7v-34.6c0-8.5-6.9-15.4-15.4-15.4s-15.4 6.9-15.4 15.4v34.6H30.8C32.1 89.4 91.5 30.8 164.3 30.8zm133.5 316.9c0 73.6-59.9 133.5-133.5 133.5S30.8 421.3 30.8 347.7v-155h118.1v34.6c0 8.5 6.9 15.4 15.4 15.4s15.4-6.9 15.4-15.4v-34.6h118.1v155z" fill="#0e3b42"/></symbol><symbol viewBox="0 0 270.4 98.1" id="iconSheer"><path d="M175.1 51.8c.2 1.2.3 2.1.5 3 2 8.4 8.6 14 17.2 14.7 7.6.6 13.6-2.3 18-8.5 2.2-3 5.7-3.5 8.5-1.1 1.6 1.4 1.8 3.2.5 4.9-.7.9-1.4 1.8-2.1 2.8-2.9 4-6.7 6.7-11.4 8.3-7.6 2.6-15.2 3-22.7.2-10.1-3.7-16.1-11.1-17.8-21.7-1-6.5-.4-13 2.6-18.9 4.3-8.4 11.1-13.6 20.5-15.1 6.2-1 12.4-.4 18.2 2.4 8.2 3.9 13.2 10.5 15.1 19.3.5 2.4.7 4.9.9 7.3.2 1.5-.5 2.2-2.1 2.3h-44.1c-.4.1-.9.1-1.8.1zm38.3-9.2c-1.2-7.9-10.7-14.7-19.4-14.2-9.1.5-18.2 7.5-18.5 14.2h37.9zm-101 9c.1.8.2 1.4.3 2 1.7 9.3 9.3 15.7 18.7 15.9 7.1.1 12.7-2.8 16.8-8.6 2.2-3.1 6.1-3.4 8.8-.7 1.3 1.4 1.5 3 .3 4.6-.5.8-1.1 1.5-1.7 2.2-3.1 4.5-7.3 7.4-12.5 9.1-7.6 2.5-15.2 2.7-22.5-.2-10.6-4.1-16.4-12.1-17.6-23.3-.6-5.4-.1-10.7 2.2-15.6 4.3-9.4 11.4-15.2 21.8-16.6 5.5-.7 11-.3 16.1 1.8 9.2 3.8 14.6 10.9 16.6 20.6.4 2.2.6 4.5.7 6.7.1 1.8-.3 2.2-2.2 2.2h-43.5c-.7-.1-1.4-.1-2.3-.1zm38.4-9.1c-1.2-7.8-10.4-14.4-19.4-14.2-8.8.2-17.9 7.2-18.6 14.2h38zm101 13.5c.7.6 1.1 1 1.5 1.4 4.9 4.2 9.8 8.3 14.6 12.5.3.3.7.6 1 .9 1.8 1.8 2 4.4.3 6.2-1.6 1.8-4.2 2.1-6.1.5-3.4-2.8-6.7-5.7-10-8.5-4.8-4.1-9.5-8.1-14.3-12.2-.4-.4-.9-.7-1.6-1.3 0 1-.1 1.6-.1 2.3v36.1c-.2 2.5-2.1 4.3-4.6 4.2-2.4-.1-4.1-1.9-4.2-4.4V21.9c0-1.6.2-1.9 1.7-1.9 2.1-.1 4.2-.1 6.2-.1 5 0 10.1.2 15.1-.1 8.4-.4 17.8 6.4 18.7 16.3.8 8.9-5.2 17.3-14.3 19.1-1.1.2-2.3.5-3.9.8zm-15.3-6.9c.5.1.9.1 1.2.1h12.6c1.2 0 2.4-.1 3.6-.5 3.9-1.2 7-3.5 8-7.7 1.7-7.1-3.6-13.7-10.9-13.7h-13c-.5 0-1 .1-1.5.1v21.7zM88.5 52H63.9c0 .7-.1 1.4-.1 2v18.9c0 .8 0 1.6-.2 2.3-.6 1.9-2.6 3.1-4.5 3-2.1-.2-3.8-1.8-4.1-3.9-.1-.5 0-1 0-1.5V5.4c0-.9.1-1.8.4-2.6.6-2 2.6-3 4.7-2.8 1.9.3 3.5 2 3.7 3.9.1.6 0 1.2 0 1.8v34.7c0 .7.1 1.4.1 2 1.5.4 22.9.4 24.5 0 0-.5.1-1.1.1-1.7V23.9c.2-2.3 1.9-4 4.2-4.1 2.3-.1 4.3 1.6 4.6 3.9.1.5 0 1 0 1.5v48.9c-.3 2.3-2.3 4.1-4.5 4-2.3-.1-4.1-1.9-4.3-4.2V52zM25 78.3c-5.9-.1-11.4-1.4-16.5-4.4-2.2-1.3-4.2-2.9-5.8-4.8-.8-1-1.6-2.1-2.2-3.3-1-1.9-.6-3.4.9-4.9 1.7-1.6 4.1-2.3 6.4-.7C9 61 10 62 10.9 63c.9.9 1.6 1.9 2.5 2.8 2.7 2.7 6 4.2 9.8 4.6 3.5.4 7 .3 10.4-.9 1.4-.5 2.8-1.2 4-2.1 2.9-2.2 3-5.9.2-8.2-1.3-1.1-2.9-1.9-4.5-2.6-4-1.7-8.1-2.9-12.3-4-3.4-.8-6.7-1.9-10.1-2.9-1.3-.4-2.5-1.1-3.7-1.7-3.2-1.7-5-4.4-5.5-7.9-1-7.1 1.7-12.8 8.1-15.9 9.8-4.8 19.7-5.2 29.4.4 1.8 1 3.5 2.5 5.1 3.9 1.2 1 2 2.5 2.5 4 .8 2.6-.5 3.9-2.8 4.4-2 .4-3.8-.2-5.2-1.7-.3-.3-.5-.6-.7-.9-2.3-3.4-5.6-5.3-9.6-6.1-4-.7-8-.6-11.8.9-1.4.5-2.8 1.3-3.9 2.3-2.7 2.3-2.7 5.4-.1 7.8 1.7 1.6 3.7 2.5 5.9 3 4.8 1.2 9.7 2.4 14.5 3.6 3.1.8 6.1 1.8 8.9 3.4 3.6 1.9 6.2 4.7 7.1 8.8 1.1 5 0 9.4-3.9 13-4.4 4-9.5 6.3-15.4 7-1.7.1-3.3.2-4.8.3z"/></symbol></svg>