<?xml version="1.0" encoding="utf-8"?>
<!-- Generator: Adobe Illustrator 22.1.0, SVG Export Plug-In . SVG Version: 6.00 Build 0)  -->
<svg version="1.1" id="Layer_1" xmlns="http://www.w3.org/2000/svg" xmlns:xlink="http://www.w3.org/1999/xlink" x="0px" y="0px"
	 viewBox="0 0 492.0039673 289.0480652" style="enable-background:new 0 0 492.0039673 289.0480652;" xml:space="preserve" fill="#666">
<g>
	<g>
		<path d="M226.8040009,7.8480606L7.8600001,226.7960663C2.7920001,231.8600616,0,238.6200562,0,245.828064
			c0,7.2080078,2.7920001,13.9680176,7.8600001,19.0320129l16.1200008,16.1239929
			c10.5039997,10.4920044,27.5759983,10.4920044,38.0639954,0L245.8999939,97.1280594l184.0599976,184.0599976
			c5.0679932,5.0640259,11.8240051,7.8600159,19.0279846,7.8600159c7.2120056,0,13.9679871-2.79599,19.0400085-7.8600159
			l16.1159973-16.1239929c5.0679932-5.0679932,7.8599854-11.8239899,7.8599854-19.0319977
			s-2.7919922-13.9680023-7.8599854-19.0319977L265,7.8480606c-5.0840149-5.0759888-11.871994-7.8640137-19.0879974-7.8479919
			C238.6679993-0.0159225,231.8840027,2.7720718,226.8040009,7.8480606z"/>
	</g>
</g>
</svg>
