<?xml version="1.0" encoding="utf-8"?>
<!-- Generator: Adobe Illustrator 22.1.0, SVG Export Plug-In . SVG Version: 6.00 Build 0)  -->
<svg version="1.1" id="Capa_1" xmlns="http://www.w3.org/2000/svg" xmlns:xlink="http://www.w3.org/1999/xlink" x="0px" y="0px"
	 viewBox="0 0 240 512" style="enable-background:new 0 0 240 512;" xml:space="preserve" fill="#fff">
<path d="M90,512c-49.6,0-90-40.4-90-90V120C0,53.8,53.8,0,120,0s120,53.8,120,120v302h-30V120c0-49.6-40.4-90-90-90s-90,40.4-90,90
	v302c0,33.1,26.9,60,60,60s60-26.9,60-60V180c0-16.5-13.5-30-30-30s-30,13.5-30,30v242H60V180c0-33.1,26.9-60,60-60s60,26.9,60,60
	v242C180,471.6,139.6,512,90,512z"/>
</svg>
