<?xml version="1.0" encoding="utf-8"?>
<!-- Generator: Adobe Illustrator 22.1.0, SVG Export Plug-In . SVG Version: 6.00 Build 0)  -->
<svg version="1.1" id="Layer_1" xmlns="http://www.w3.org/2000/svg" xmlns:xlink="http://www.w3.org/1999/xlink" x="0px" y="0px"
	 viewBox="0 0 960 180.9" style="enable-background:new 0 0 960 180.9;" xml:space="preserve">
<style type="text/css">
	.st0{fill-rule:evenodd;clip-rule:evenodd;fill:#04538B;}
	.st1{fill-rule:evenodd;clip-rule:evenodd;fill:#9FC53C;}
	.st2{fill-rule:evenodd;clip-rule:evenodd;fill:#E63C23;}
	.st3{fill-rule:evenodd;clip-rule:evenodd;fill:#9EC43E;}
	.st4{fill-rule:evenodd;clip-rule:evenodd;fill:#045489;}
	.st5{fill:#E04022;}
</style>
<g>
	<path class="st0" d="M671.3,85.4l253.3,0c-0.4-6.5-7.2-12.6-11.8-16.4c-9.1-7.7-27.4-26.3-35.6-36.5c-5.4-6.7-13.7-19.1-24.9-17.9
		c-7.1,0.7-14,7.2-18.7,10.5c-11.1,7.9-14.8,2.9-22.2,7c-7.1,4-7.4,9-19,10.2c-13.5,1.4-42,5-53.2,2.2c-19.7-5-53.6-40.2-81.9-9.8
		c-5.6,6-9.4,9.7-14.2,15.1l-6.9,6.9c0.3,3.5-1.4,6-2.3,9.3c-0.1,0.5,0,1.1,0.3,1.8c7.6,0,18.8-0.1,23.7,3.5l0.3,0.3l0.3,0.3
		c1.6,1.6,2.7,3.4,3.6,5.4c0.2,0.5,0.6,1.5,0.9,2.1c0.5,0.2,1.5,0.3,1.9,0.3l2.4,0.2l1.5,1.9C669.9,83.1,670.7,84.2,671.3,85.4
		L671.3,85.4z"/>
	<path class="st0" d="M0,125.1c79-2.7,158-6.2,237.8-7.7c157.3-3.1,327.4-4.2,484.5,0.3c79.3,2.2,158.5,5.1,237.7,7.5V105L0,105
		V125.1L0,125.1z"/>
	<path class="st0" d="M41.4,84.8l171.1,0.3l0-0.1l0-0.1l0-0.1l0-0.1c0.1-4.1,0.1-8.2,0.1-12.3c0-5,0.1-10.7,0.9-15.6
		c0.5-3,1.2-5.2,3.3-7.2c0.1-1,0.1-2.4,0.1-3.1c0-4-0.3-8-0.5-11.9l-0.1-0.8c-11-1.6-29.5-7.3-48.3-8.5c-14.4-0.9-45.7-3.1-56.5,3.6
		c-9,5.6-6.5,12.9-34.4,28.6c-6.9,3.9-13.8,7.2-20.2,11.3C51.9,72.2,42.9,78.9,41.4,84.8L41.4,84.8z"/>
	<path class="st1" d="M526.1,40.7c-3,2-1.8,2.9-4.8,4.3c-2.1,1-4.6,1-6.7,2.2l1,1.2c4,6.4,1.1,2.2,4.5,5.3
		c3.1,2.9,3.2,14.7-2.6,17.5c-5,2.4-3.3,0.9-5.1,6.1c-4.7,0.3-18.1-5.5-8.4,11.5c6,0.9,12.6,7.7,17.1-0.4c5.8,0.2,6.7,3.1,12.9,2.5
		c7.4-0.8,4.1-3.4,10.8,1c4.5,3,7.3,1.8,12.6,1.2c8-0.8,7.5,1.6,12.6,1.9c2.2,0.1,4-0.5,6.7-0.4c6.1,0.3,7.4,3.4,17.1-2.6
		c14.6-9,13.3-0.9,23.4-1.9c3-1.9,2.5-2.8,6-4.8c6.3,2,11.5,9.2,21.4,8c4.8-0.6,7.4-3.5,12.2-2.5c6.7,1.4,3.9,4.1,10.1-0.6
		c-0.4-2.4-1.2-3.3-2.4-4.9c-8.4-0.7-5.6-5.1-9.9-9.5c-3.8-2.8-18-2.3-23.9-2.4c-1.3-2.6-3.1-5.6-2.1-8.9c1.3-4.8,5.2-9.5-3-12.1
		c-2.6,0.9-3.9,2.8-6.7,2.9c-12.5,0.4-6.6-4.6-13.1,7.3c-1.4,2.5-3,5.5-4.9,7.9c-3.8-1.3,0-1-4.9-2.1c-1.6-0.4-0.4,0.8-1.7-0.5
		c-1.2-1.7-1.8-5.3-1.4-7.7c0.6-4.3,2-2.3,4.4-5.4c-1.5-7.6-5.8-5.9-11.5-8c-2.5-9.3,3.6-3.2,2.4-9.9c-0.6-3.4-12.7-10-18-6.2
		c-1.3,0.9-2.1,2.5-3.2,3.5c-2.5,2.3-2.6,0.6-4.5,3.2c-1.7,5.5,0,5.8,1.2,9.8l-2.4,0.9c-0.6,0.2-1.8,0.4-2.5,0.5
		c-8.6,1.8-6.6,3.6-8.6,8.6c0,0.1-0.1,0.4-0.3,0.5c-11-5-5.2-7.2-11.5-6.1c0.9,2.5,1.3,0.9,2.5,3C538.3,56.2,527.6,55.6,526.1,40.7
		L526.1,40.7z"/>
	<path class="st2" d="M422,44.6c3.9-0.2,7.3-0.8,11.3-1.3c3-0.4,6.9-1.2,9.8-0.6c2.2,0.4,1.3,0.3,2,0.6l0.4-0.2
		c4.6,0,10.8,0.2,14.2,2c9.4,0.6,18.9,0.1,28.5,0.6c8.8,0.4,17.6,3.9,26.3,1.5c2.1-1.2,4.6-1.2,6.7-2.2c3.1-1.4,1.8-2.4,4.8-4.3
		c2.7-2.2,3.1-0.3,5.3-3.8c-6.8-7.3-25.3-3.2-46.5-24.6c-5.8-5.9-8.3-3.4-9.9,3.7c-5.3,1.1-11,2.7-16.3,4
		c-7.2,1.8-23.4,7.3-29.9,10.6c-8.5,4.4-11.1,2.6-13.4,7.6C417,41.1,418.3,43.5,422,44.6L422,44.6z"/>
	<path class="st0" d="M248.9,85.3c1.5,0,3.1,0,4.6,0c10.3,0.1,3.4,6.3,15.8,1.1c1.6-0.7,3.3-0.9,5.1-0.9l-0.2-5.2l1.7-0.1
		c0.2-1,0.5-2,1.1-3c0.2-0.3,0.4-0.5,0.6-0.8c-1.2-3.6-1.4-7.6-0.5-11.3c1.3-5,4.4-8.6,8.7-10.9l-0.1-1.4c-1.5-1.2-2.6-2.6-3.5-4.2
		c-0.9-0.3-1.8-0.6-2.8-0.9c-4.7-1.3-9.9-2.3-14.6-3.4c-7.8-1.7-15.6-4-23.5-5.8l-0.6,1.3c-0.4,0.8-0.8,1.7-0.7,2.5
		c0.1,0.6,0.3,1.3,0.5,1.9c0.4,1.3,0.9,2.6,1.2,3.9c1.3,5,1.1,8.9,1.4,13.9c0.1,2,0.1,2.9,1.2,4.3c1.3,1.7,2,3.3,2.4,5.5
		c0.6,3.1,0.5,6.1,1,9.1c0.1,0.8,0.3,1.6,0.6,2.3l0.5,1.3L248.9,85.3L248.9,85.3z"/>
	<path class="st3" d="M222.1,34.3c1.8,26.9-1.3,14.1-2.9,23.6c-1.2,6.9-0.7,19.3-0.9,27.2c-0.1,1.3-0.5,4,3.9,3.4
		c4.5,0.9,7.3-0.1,11.7,0.3c5.1,0.4,9.1-0.2,9.5-3.5c-1.6-4-1.1-8.2-1.9-12.4c-0.8-4.3-3.2-2.8-3.7-10.5c-0.3-5.1,0-8.1-1.3-12.8
		c-1.3-5.1-3.2-7.1-0.7-12.3c-1.7-5.9-4.9,4.4-3.3-13.2c1.2-12.9-1-12.3-3.1-14.9c0.6-4.7,3-5,0.3-9h-3.8c-5.2,5.2-2.5,8.5-1.8,15.9
		C224.7,22.5,224.4,28.7,222.1,34.3L222.1,34.3z"/>
	<path class="st2" d="M360.6,70.3l18.7,0.8c5.6-2.9,4-2.8,12.1-2.8c5.3,0,10.5,0,15.8,0c18,0,18.7-2.1,25.5,5.7l5.2,0.4
		c-1-5.8-12.1-13.4-16.5-18.3c-3.5-1-4-1.8-6.2-4.1c-3.2-3.3-3-2.2-7.9-1.7c-6.8,0.8-15.5-0.4-22.6-0.1c-7.9,0.3-9.6,4-14.8,6.9
		c-4.4,2.5-11,4.3-14.2,8.1C356,70.6,356.2,69,360.6,70.3L360.6,70.3z"/>
	<path class="st1" d="M422,44.6l5.6,1c1.2,2.4,2.1,3.4,0.8,6.4c-2.4,0.9-2.1,0.3-4.7,0l-2.3,4.2c4.5,4.9,15.5,12.5,16.5,18.3
		l-5.2-0.4c3,8.8-0.9,9.8-0.6,14.9c1.8,4,2.7,4.8,7.2,3.2c7.8-2.9,2.9-0.6,8.4,0.9l2.7-4.5c1.2-7.4,1.3-6.4-1.8-12.2
		c-2.8-5.3,2.6-5.8,2.7-10.4l-4.2-10.5c-4.5-5.6-3.6-1.7-4.2-11.2c1.2-1.2-1.9-1.2,2.3-0.9c-0.6-0.3,0.3-0.2-2-0.6
		c-3-0.6-6.9,0.2-9.8,0.6C429.3,43.8,425.9,44.4,422,44.6L422,44.6z"/>
	<path class="st4" d="M315.4,64.5c-3.8-1.5-7.5-3.7-11-5.4l-0.4,0.4l0.4,2.8c0.4,1.7,0.8,3.4,1.3,5c0.3,1,0.6,1.9,0.8,2.9
		c0.5-0.2,0.9-0.3,1.4-0.4c0.2-0.4,0.3-0.9,0.4-1.2l1.5-4.3l5.3,0.7L315.4,64.5L315.4,64.5z"/>
	<polygon class="st1" points="470.7,79.1 480.6,79 480.6,53.9 470.3,54.1 470.7,79.1 	"/>
	<path class="st1" d="M459.8,45.1c-3.4-1.7-9.6-2-14.2-2c1.3,3.5,1.1,5.6,2,9.5c1,4.3,2.3,3.7,5,6.1c0.3,4.2,0,6.4,1.7,9.4
		c3.5-0.8,3.7-2.6,5.7-5.7c2.6-4,4.4-2.7,5.6-5.5c-3-1.8-2.6-0.6-6.3-4c-0.2-0.2-0.7-0.6-0.8-0.8c-1-0.9-0.4-0.3-1.2-1.3L459.8,45.1
		L459.8,45.1z"/>
	<polygon class="st1" points="486.4,50.6 486.5,78.1 493.7,78 493.4,50.8 486.4,50.6 	"/>
	<polygon class="st1" points="500.5,71 508.6,71 508.2,52.8 500.3,52.9 500.5,71 	"/>
	<polygon class="st1" points="386.6,85.4 393.1,85.5 392.7,74.4 386.6,74.7 386.6,85.4 	"/>
	<polygon class="st1" points="424.2,75.6 420.6,75.8 420.2,82.4 424.5,82.4 424.2,75.6 	"/>
	<path class="st5" d="M69.7,179.1c0,0.2-0.1,0.4-0.2,0.6c-0.1,0.2-0.3,0.3-0.6,0.4c-0.3,0.1-0.7,0.2-1.3,0.2c-0.5,0.1-1.2,0.1-2,0.1
		c-0.9,0-1.6,0-2.1-0.1c-0.5-0.1-1-0.1-1.3-0.2c-0.3-0.1-0.6-0.3-0.7-0.5c-0.2-0.2-0.3-0.4-0.4-0.7l-3.1-8.7
		c-0.4-1.3-0.9-2.3-1.4-3.2c-0.5-0.9-1-1.6-1.6-2.1c-0.6-0.5-1.2-0.9-2-1.1c-0.8-0.2-1.6-0.3-2.5-0.3h-1.8v15.7
		c0,0.2-0.1,0.4-0.2,0.6c-0.1,0.2-0.3,0.3-0.6,0.4c-0.3,0.1-0.7,0.2-1.2,0.2c-0.5,0.1-1.1,0.1-1.9,0.1c-0.8,0-1.4,0-1.9-0.1
		c-0.5-0.1-0.9-0.1-1.2-0.2c-0.3-0.1-0.5-0.2-0.6-0.4c-0.1-0.2-0.2-0.3-0.2-0.6v-37c0-0.2,0.1-0.4,0.2-0.6c0.1-0.2,0.4-0.3,0.6-0.4
		c0.3-0.1,0.7-0.2,1.2-0.2c0.5-0.1,1.2-0.1,1.9-0.1c0.8,0,1.4,0,1.9,0.1c0.5,0.1,0.9,0.1,1.2,0.2c0.3,0.1,0.5,0.2,0.6,0.4
		c0.1,0.1,0.2,0.3,0.2,0.6v14.7h1.8c0.9,0,1.7-0.1,2.4-0.4c0.7-0.2,1.3-0.6,1.9-1.1c0.6-0.5,1.1-1.2,1.5-2c0.5-0.8,0.9-1.9,1.3-3.1
		l2.6-7.8c0.1-0.3,0.2-0.5,0.4-0.7c0.1-0.2,0.4-0.4,0.7-0.5c0.3-0.1,0.7-0.2,1.2-0.2c0.5-0.1,1.2-0.1,2.1-0.1c0.8,0,1.4,0,1.9,0.1
		c0.5,0.1,0.9,0.1,1.2,0.2c0.3,0.1,0.5,0.2,0.6,0.4c0.1,0.2,0.2,0.3,0.2,0.6c0,0.3,0,0.6-0.1,1c-0.1,0.4-0.2,0.9-0.5,1.5l-2.6,6.9
		c-0.5,1.3-1,2.4-1.5,3.3c-0.5,0.9-1,1.7-1.5,2.3c-0.5,0.6-1.1,1.2-1.7,1.6c-0.6,0.4-1.2,0.7-2,1v0c0.8,0.4,1.5,0.7,2.2,1.2
		c0.7,0.4,1.3,1,1.9,1.6c0.6,0.7,1.1,1.5,1.6,2.5c0.5,1,1.1,2.2,1.6,3.6l3.2,8.1c0.3,0.8,0.5,1.4,0.6,1.7
		C69.6,178.7,69.7,178.9,69.7,179.1L69.7,179.1z M102.3,153c0,2.2-0.3,4.1-1,5.8c-0.7,1.7-1.7,3.1-3,4.3c-1.3,1.2-2.9,2-4.8,2.6
		c-1.9,0.6-4.2,0.9-6.7,0.9h-3.3v12.5c0,0.2-0.1,0.4-0.2,0.5c-0.1,0.2-0.4,0.3-0.6,0.4c-0.3,0.1-0.7,0.2-1.2,0.2
		c-0.5,0.1-1.1,0.1-1.9,0.1c-0.8,0-1.4,0-1.9-0.1c-0.5-0.1-0.9-0.1-1.2-0.2c-0.3-0.1-0.5-0.2-0.6-0.4c-0.1-0.2-0.2-0.4-0.2-0.5
		v-35.2c0-0.9,0.2-1.7,0.7-2.1c0.5-0.5,1.1-0.7,1.9-0.7h9.2c0.9,0,1.8,0,2.6,0.1c0.8,0.1,1.8,0.2,3,0.5c1.2,0.2,2.4,0.7,3.5,1.3
		c1.2,0.6,2.2,1.4,3.1,2.4c0.8,1,1.5,2.1,1.9,3.4C102.1,149.9,102.3,151.4,102.3,153L102.3,153z M94,153.5c0-1.4-0.2-2.5-0.7-3.4
		c-0.5-0.9-1.1-1.5-1.8-2c-0.7-0.4-1.5-0.7-2.2-0.8c-0.8-0.1-1.6-0.2-2.4-0.2h-3.4v13.3H87c1.3,0,2.3-0.2,3.2-0.5
		c0.9-0.3,1.6-0.8,2.1-1.4c0.5-0.6,1-1.3,1.2-2.2C93.9,155.5,94,154.6,94,153.5L94,153.5z M149.3,179.2c0,0.2-0.1,0.4-0.2,0.5
		c-0.1,0.2-0.4,0.3-0.6,0.4c-0.3,0.1-0.7,0.2-1.2,0.2c-0.5,0.1-1.2,0.1-1.9,0.1c-0.8,0-1.4,0-1.9-0.1c-0.5-0.1-0.9-0.1-1.2-0.2
		c-0.3-0.1-0.5-0.2-0.7-0.4c-0.1-0.2-0.2-0.3-0.2-0.5v-37c0-0.2,0.1-0.4,0.2-0.5c0.1-0.2,0.4-0.3,0.7-0.4c0.3-0.1,0.7-0.2,1.2-0.2
		c0.5-0.1,1.1-0.1,1.9-0.1c0.8,0,1.4,0,1.9,0.1c0.5,0.1,0.9,0.1,1.2,0.2c0.3,0.1,0.5,0.2,0.6,0.4c0.1,0.2,0.2,0.3,0.2,0.5V179.2
		L149.3,179.2z M136.6,167.3c0,1.9-0.3,3.5-0.9,5.1c-0.6,1.5-1.5,2.9-2.7,4c-1.2,1.1-2.8,2.1-4.8,2.7c-2,0.7-4.7,1-8.1,1h-9.2
		c-0.3,0-0.7,0-0.9-0.1c-0.3-0.1-0.5-0.2-0.8-0.5c-0.2-0.2-0.4-0.5-0.5-0.8c-0.1-0.3-0.2-0.7-0.2-1.1v-35.6c0-0.2,0.1-0.4,0.2-0.5
		c0.1-0.2,0.4-0.3,0.7-0.4c0.3-0.1,0.7-0.2,1.2-0.2c0.5-0.1,1.1-0.1,1.9-0.1c0.8,0,1.4,0,1.9,0.1c0.5,0.1,0.9,0.1,1.2,0.2
		c0.3,0.1,0.5,0.2,0.6,0.4c0.1,0.2,0.2,0.3,0.2,0.5v13.5h4.9c2.9,0,5.3,0.2,7,0.8c1.7,0.5,3.2,1.2,4.4,2.2c1.2,1,2.2,2.2,2.8,3.7
		C136.3,163.8,136.6,165.4,136.6,167.3L136.6,167.3z M128.4,167.9c0-1-0.1-1.8-0.4-2.6c-0.3-0.8-0.7-1.4-1.3-2
		c-0.6-0.5-1.3-1-2.2-1.3c-0.9-0.3-2.2-0.5-4-0.5h-4.1v12.4h4.2c1.8,0,3.2-0.2,4.2-0.6c0.9-0.4,1.7-0.9,2.2-1.4
		c0.5-0.6,0.9-1.2,1.1-2C128.3,169.4,128.4,168.6,128.4,167.9L128.4,167.9z M203.4,179.1c0,0.2-0.1,0.4-0.2,0.5
		c-0.1,0.2-0.3,0.3-0.6,0.4c-0.3,0.1-0.7,0.2-1.2,0.2c-0.5,0.1-1.1,0.1-1.8,0.1c-0.7,0-1.3,0-1.8-0.1c-0.5-0.1-0.9-0.1-1.2-0.2
		c-0.3-0.1-0.5-0.2-0.6-0.4c-0.1-0.2-0.2-0.4-0.2-0.5v-31.8h-0.1l-11.3,31.8c-0.1,0.3-0.2,0.5-0.4,0.6c-0.2,0.2-0.4,0.3-0.7,0.4
		c-0.3,0.1-0.7,0.2-1.2,0.2c-0.5,0-1.1,0-1.8,0c-0.7,0-1.3,0-1.8-0.1c-0.5-0.1-0.9-0.1-1.2-0.2c-0.3-0.1-0.6-0.2-0.7-0.4
		c-0.2-0.2-0.3-0.4-0.4-0.6l-10.9-31.8h-0.1v31.8c0,0.2-0.1,0.4-0.2,0.5c-0.1,0.2-0.3,0.3-0.6,0.4c-0.3,0.1-0.7,0.2-1.2,0.2
		c-0.5,0.1-1.1,0.1-1.8,0.1c-0.7,0-1.3,0-1.8-0.1c-0.5-0.1-0.9-0.1-1.2-0.2c-0.3-0.1-0.5-0.2-0.6-0.4c-0.1-0.2-0.2-0.4-0.2-0.5
		v-34.8c0-1,0.3-1.8,0.8-2.4c0.5-0.5,1.3-0.8,2.2-0.8h5.2c0.9,0,1.7,0.1,2.4,0.2c0.7,0.2,1.2,0.4,1.7,0.8c0.5,0.4,0.9,0.8,1.2,1.4
		c0.3,0.6,0.6,1.3,0.8,2.1l8.4,23.3h0.1l8.7-23.2c0.3-0.8,0.5-1.6,0.9-2.1c0.3-0.6,0.7-1.1,1.1-1.4c0.4-0.4,0.9-0.6,1.5-0.8
		c0.6-0.2,1.2-0.2,2-0.2h5.4c0.5,0,1,0.1,1.4,0.2c0.4,0.1,0.7,0.3,1,0.6c0.3,0.3,0.4,0.6,0.6,1c0.1,0.4,0.2,0.8,0.2,1.4V179.1
		L203.4,179.1z M238.9,174.3c0,0.5,0,0.9,0,1.3c0,0.4-0.1,0.7-0.1,0.9c-0.1,0.3-0.1,0.5-0.2,0.7c-0.1,0.2-0.3,0.4-0.5,0.6
		c-0.2,0.2-0.6,0.5-1.3,0.9c-0.6,0.4-1.4,0.7-2.3,1c-0.9,0.3-2,0.6-3.1,0.8c-1.2,0.2-2.5,0.3-3.8,0.3c-2.7,0-5.1-0.4-7.2-1.2
		c-2.2-0.8-4-2.1-5.5-3.7c-1.5-1.6-2.7-3.7-3.5-6.1c-0.8-2.5-1.2-5.3-1.2-8.6c0-3.3,0.4-6.3,1.3-8.8c0.9-2.6,2.1-4.7,3.7-6.5
		c1.6-1.8,3.5-3.1,5.7-4c2.2-0.9,4.7-1.4,7.3-1.4c1.1,0,2.1,0.1,3.1,0.3c1,0.2,1.9,0.4,2.8,0.7c0.9,0.3,1.6,0.6,2.3,1
		c0.7,0.4,1.2,0.7,1.4,1c0.3,0.3,0.5,0.5,0.6,0.7c0.1,0.2,0.2,0.4,0.2,0.7c0.1,0.3,0.1,0.6,0.1,1c0,0.4,0,0.8,0,1.4
		c0,0.6,0,1.1-0.1,1.5c0,0.4-0.1,0.8-0.2,1c-0.1,0.3-0.2,0.5-0.4,0.6c-0.1,0.1-0.3,0.2-0.5,0.2c-0.3,0-0.7-0.2-1.1-0.5
		c-0.5-0.4-1.1-0.7-1.8-1.2c-0.7-0.4-1.6-0.8-2.6-1.2c-1-0.4-2.2-0.5-3.6-0.5c-1.5,0-2.9,0.3-4.1,0.9c-1.2,0.6-2.2,1.5-3.1,2.7
		c-0.9,1.2-1.5,2.6-1.9,4.3c-0.4,1.7-0.7,3.5-0.7,5.6c0,2.3,0.2,4.3,0.7,6c0.5,1.7,1.1,3.1,2,4.1c0.9,1.1,1.9,1.9,3.2,2.4
		c1.2,0.5,2.6,0.8,4.2,0.8c1.4,0,2.6-0.2,3.6-0.5c1-0.3,1.9-0.7,2.6-1.1c0.7-0.4,1.3-0.8,1.8-1.1c0.5-0.3,0.8-0.5,1.1-0.5
		c0.2,0,0.4,0,0.5,0.1c0.1,0.1,0.2,0.2,0.3,0.5c0.1,0.2,0.1,0.6,0.2,1C238.9,173,238.9,173.5,238.9,174.3L238.9,174.3z M273.6,179.1
		c0,0.2-0.1,0.4-0.2,0.6c-0.1,0.2-0.3,0.3-0.6,0.4c-0.3,0.1-0.7,0.2-1.3,0.2c-0.5,0.1-1.2,0.1-2,0.1c-0.9,0-1.6,0-2.1-0.1
		c-0.5-0.1-1-0.1-1.3-0.2c-0.3-0.1-0.6-0.3-0.7-0.5c-0.2-0.2-0.3-0.4-0.4-0.7l-3.1-8.7c-0.4-1.3-0.9-2.3-1.4-3.2
		c-0.5-0.9-1-1.6-1.6-2.1c-0.6-0.5-1.2-0.9-2-1.1c-0.8-0.2-1.6-0.3-2.5-0.3h-1.8v15.7c0,0.2-0.1,0.4-0.2,0.6
		c-0.1,0.2-0.3,0.3-0.6,0.4c-0.3,0.1-0.7,0.2-1.2,0.2c-0.5,0.1-1.1,0.1-1.9,0.1c-0.8,0-1.4,0-1.9-0.1c-0.5-0.1-0.9-0.1-1.2-0.2
		c-0.3-0.1-0.5-0.2-0.6-0.4c-0.1-0.2-0.2-0.3-0.2-0.6v-37c0-0.2,0.1-0.4,0.2-0.6c0.1-0.2,0.4-0.3,0.6-0.4c0.3-0.1,0.7-0.2,1.2-0.2
		c0.5-0.1,1.2-0.1,1.9-0.1c0.8,0,1.4,0,1.9,0.1c0.5,0.1,0.9,0.1,1.2,0.2c0.3,0.1,0.5,0.2,0.6,0.4c0.1,0.1,0.2,0.3,0.2,0.6v14.7h1.8
		c0.9,0,1.7-0.1,2.4-0.4c0.7-0.2,1.3-0.6,1.9-1.1c0.6-0.5,1.1-1.2,1.5-2c0.5-0.8,0.9-1.9,1.3-3.1l2.6-7.8c0.1-0.3,0.2-0.5,0.4-0.7
		c0.1-0.2,0.4-0.4,0.7-0.5c0.3-0.1,0.7-0.2,1.2-0.2c0.5-0.1,1.2-0.1,2.1-0.1c0.8,0,1.4,0,1.9,0.1c0.5,0.1,0.9,0.1,1.2,0.2
		c0.3,0.1,0.5,0.2,0.6,0.4c0.1,0.2,0.2,0.3,0.2,0.6c0,0.3,0,0.6-0.1,1c-0.1,0.4-0.2,0.9-0.5,1.5l-2.6,6.9c-0.5,1.3-1,2.4-1.5,3.3
		c-0.5,0.9-1,1.7-1.5,2.3c-0.5,0.6-1.1,1.2-1.7,1.6c-0.6,0.4-1.2,0.7-2,1v0c0.8,0.4,1.5,0.7,2.2,1.2c0.7,0.4,1.3,1,1.9,1.6
		c0.6,0.7,1.1,1.5,1.7,2.5c0.5,1,1.1,2.2,1.6,3.6l3.2,8.1c0.3,0.8,0.5,1.4,0.6,1.7C273.5,178.7,273.6,178.9,273.6,179.1L273.6,179.1
		z M311.5,177.2c0.2,0.7,0.4,1.3,0.5,1.7c0.1,0.4,0,0.7-0.2,1c-0.2,0.2-0.6,0.3-1.2,0.4c-0.6,0.1-1.3,0.1-2.3,0.1c-1,0-1.8,0-2.4,0
		c-0.6,0-1-0.1-1.3-0.2c-0.3-0.1-0.5-0.2-0.6-0.4c-0.1-0.2-0.2-0.4-0.3-0.6l-2.6-7.9h-14.7l-2.5,7.6c-0.1,0.3-0.2,0.5-0.3,0.7
		c-0.1,0.2-0.3,0.3-0.6,0.5c-0.3,0.1-0.7,0.2-1.2,0.2c-0.5,0-1.2,0.1-2.1,0.1c-0.9,0-1.6,0-2.2-0.1c-0.5-0.1-0.9-0.2-1.1-0.4
		c-0.2-0.2-0.3-0.6-0.2-1c0.1-0.4,0.2-1,0.5-1.7l12-34.7c0.1-0.3,0.3-0.6,0.4-0.8c0.2-0.2,0.4-0.4,0.8-0.5c0.4-0.1,0.8-0.2,1.5-0.2
		c0.6,0,1.4,0,2.5,0c1.2,0,2.1,0,2.8,0c0.7,0,1.3,0.1,1.6,0.2s0.7,0.3,0.8,0.5c0.2,0.2,0.3,0.5,0.4,0.9L311.5,177.2L311.5,177.2z
		 M293.5,148.5L293.5,148.5l-5.5,16.6h11L293.5,148.5L293.5,148.5z M343.9,179.2c0,0.2-0.1,0.4-0.2,0.5c-0.1,0.2-0.3,0.3-0.6,0.4
		c-0.3,0.1-0.7,0.2-1.2,0.2c-0.5,0.1-1.2,0.1-1.9,0.1c-0.8,0-1.4,0-1.9-0.1c-0.5-0.1-0.9-0.1-1.2-0.2c-0.3-0.1-0.5-0.2-0.7-0.4
		c-0.1-0.2-0.2-0.3-0.2-0.5v-14.6H333c-1.2,0-2.1,0.1-2.8,0.4c-0.6,0.2-1.2,0.6-1.7,1.1c-0.5,0.5-0.9,1.1-1.3,1.9
		c-0.4,0.8-0.8,1.6-1.1,2.7l-3,8.5c-0.1,0.2-0.2,0.4-0.4,0.6c-0.2,0.2-0.4,0.3-0.7,0.4c-0.3,0.1-0.8,0.2-1.3,0.2
		c-0.5,0-1.2,0.1-2.1,0.1c-0.9,0-1.6,0-2.2-0.1c-0.5-0.1-0.9-0.1-1.2-0.3c-0.3-0.1-0.5-0.2-0.5-0.4c-0.1-0.1-0.1-0.3-0.1-0.5
		c0-0.2,0-0.5,0.1-0.7c0.1-0.3,0.2-0.7,0.4-1.3l2.9-7.7c0.4-1,0.8-1.9,1.2-2.6c0.4-0.7,0.8-1.4,1.3-2c0.5-0.6,1-1.1,1.6-1.5
		c0.6-0.4,1.2-0.7,1.8-1c-1.2-0.3-2.3-0.8-3.3-1.3c-1-0.6-1.8-1.2-2.4-2c-0.6-0.8-1.1-1.7-1.5-2.8c-0.3-1-0.5-2.2-0.5-3.5
		c0-1.8,0.3-3.4,0.9-4.8c0.6-1.4,1.5-2.7,2.7-3.7c1.2-1,2.7-1.8,4.5-2.3c1.8-0.6,4.3-0.8,7.5-0.8h9.6c0.6,0,1.2,0.2,1.6,0.6
		c0.5,0.4,0.7,1,0.7,1.9V179.2L343.9,179.2z M336,147.2h-4.1c-1.7,0-3,0.1-3.9,0.4c-0.8,0.3-1.5,0.6-2.1,1.1
		c-0.5,0.5-0.9,1.1-1.2,1.8c-0.2,0.7-0.4,1.5-0.4,2.3c0,0.8,0.1,1.6,0.4,2.3c0.3,0.7,0.7,1.3,1.2,1.8c0.5,0.5,1.2,0.9,2.1,1.2
		c0.9,0.3,2.1,0.4,3.6,0.4h4.2V147.2L336,147.2z M393.5,174.3c0,0.5,0,0.9,0,1.3c0,0.4-0.1,0.7-0.1,0.9c-0.1,0.3-0.1,0.5-0.2,0.7
		c-0.1,0.2-0.3,0.4-0.5,0.6c-0.2,0.2-0.7,0.5-1.3,0.9c-0.6,0.4-1.4,0.7-2.3,1c-0.9,0.3-2,0.6-3.1,0.8c-1.2,0.2-2.5,0.3-3.8,0.3
		c-2.7,0-5.1-0.4-7.2-1.2c-2.2-0.8-4-2.1-5.5-3.7c-1.5-1.6-2.7-3.7-3.5-6.1c-0.8-2.5-1.2-5.3-1.2-8.6c0-3.3,0.4-6.3,1.3-8.8
		c0.9-2.6,2.1-4.7,3.7-6.5c1.6-1.8,3.5-3.1,5.7-4c2.2-0.9,4.7-1.4,7.3-1.4c1.1,0,2.1,0.1,3.1,0.3c1,0.2,1.9,0.4,2.8,0.7
		c0.9,0.3,1.6,0.6,2.3,1c0.7,0.4,1.2,0.7,1.4,1c0.3,0.3,0.5,0.5,0.6,0.7c0.1,0.2,0.2,0.4,0.2,0.7c0.1,0.3,0.1,0.6,0.1,1
		c0,0.4,0,0.8,0,1.4c0,0.6,0,1.1-0.1,1.5c0,0.4-0.1,0.8-0.2,1c-0.1,0.3-0.2,0.5-0.4,0.6c-0.1,0.1-0.3,0.2-0.5,0.2
		c-0.3,0-0.7-0.2-1.1-0.5c-0.5-0.4-1.1-0.7-1.8-1.2c-0.7-0.4-1.6-0.8-2.6-1.2c-1-0.4-2.2-0.5-3.6-0.5c-1.5,0-2.9,0.3-4.1,0.9
		c-1.2,0.6-2.2,1.5-3.1,2.7c-0.9,1.2-1.5,2.6-1.9,4.3c-0.4,1.7-0.7,3.5-0.7,5.6c0,2.3,0.2,4.3,0.7,6c0.5,1.7,1.1,3.1,2,4.1
		c0.9,1.1,1.9,1.9,3.2,2.4c1.2,0.5,2.6,0.8,4.2,0.8c1.4,0,2.6-0.2,3.6-0.5c1-0.3,1.9-0.7,2.6-1.1c0.7-0.4,1.3-0.8,1.8-1.1
		c0.5-0.3,0.8-0.5,1.1-0.5c0.2,0,0.4,0,0.5,0.1c0.1,0.1,0.2,0.2,0.3,0.5c0.1,0.2,0.1,0.6,0.2,1C393.4,173,393.5,173.5,393.5,174.3
		L393.5,174.3z M440.1,179.2c0,0.2-0.1,0.4-0.2,0.5c-0.1,0.2-0.4,0.3-0.6,0.4c-0.3,0.1-0.7,0.2-1.2,0.2c-0.5,0.1-1.2,0.1-1.9,0.1
		c-0.8,0-1.4,0-1.9-0.1c-0.5-0.1-0.9-0.1-1.2-0.2c-0.3-0.1-0.5-0.2-0.7-0.4c-0.1-0.2-0.2-0.3-0.2-0.5v-37c0-0.2,0.1-0.4,0.2-0.5
		c0.1-0.2,0.4-0.3,0.7-0.4c0.3-0.1,0.7-0.2,1.2-0.2c0.5-0.1,1.1-0.1,1.9-0.1c0.8,0,1.4,0,1.9,0.1c0.5,0.1,0.9,0.1,1.2,0.2
		c0.3,0.1,0.5,0.2,0.6,0.4c0.1,0.2,0.2,0.3,0.2,0.5V179.2L440.1,179.2z M427.3,167.3c0,1.9-0.3,3.5-0.9,5.1c-0.6,1.5-1.5,2.9-2.7,4
		c-1.2,1.1-2.8,2.1-4.8,2.7c-2,0.7-4.7,1-8.1,1h-9.2c-0.3,0-0.7,0-0.9-0.1c-0.3-0.1-0.5-0.2-0.8-0.5c-0.2-0.2-0.4-0.5-0.5-0.8
		c-0.1-0.3-0.2-0.7-0.2-1.1v-35.6c0-0.2,0.1-0.4,0.2-0.5c0.1-0.2,0.4-0.3,0.7-0.4c0.3-0.1,0.7-0.2,1.2-0.2c0.5-0.1,1.1-0.1,1.9-0.1
		c0.8,0,1.4,0,1.9,0.1c0.5,0.1,0.9,0.1,1.2,0.2c0.3,0.1,0.5,0.2,0.6,0.4c0.1,0.2,0.2,0.3,0.2,0.5v13.5h4.9c2.9,0,5.3,0.2,7,0.8
		c1.7,0.5,3.2,1.2,4.4,2.2c1.2,1,2.2,2.2,2.8,3.7C427,163.8,427.3,165.4,427.3,167.3L427.3,167.3z M419.1,167.9c0-1-0.1-1.8-0.4-2.6
		c-0.3-0.8-0.7-1.4-1.3-2c-0.6-0.5-1.3-1-2.2-1.3c-0.9-0.3-2.2-0.5-4-0.5h-4.1v12.4h4.2c1.8,0,3.2-0.2,4.2-0.6
		c0.9-0.4,1.7-0.9,2.2-1.4c0.5-0.6,0.9-1.2,1.1-2C419,169.4,419.1,168.6,419.1,167.9L419.1,167.9z M475.3,153c0,2.2-0.3,4.1-1,5.8
		c-0.7,1.7-1.7,3.1-3,4.3c-1.3,1.2-2.9,2-4.8,2.6c-1.9,0.6-4.2,0.9-6.7,0.9h-3.3v12.5c0,0.2-0.1,0.4-0.2,0.5
		c-0.1,0.2-0.4,0.3-0.6,0.4c-0.3,0.1-0.7,0.2-1.2,0.2c-0.5,0.1-1.1,0.1-1.9,0.1c-0.8,0-1.4,0-1.9-0.1c-0.5-0.1-0.9-0.1-1.2-0.2
		c-0.3-0.1-0.5-0.2-0.6-0.4c-0.1-0.2-0.2-0.4-0.2-0.5v-35.2c0-0.9,0.2-1.7,0.7-2.1c0.5-0.5,1.1-0.7,1.9-0.7h9.2c0.9,0,1.8,0,2.6,0.1
		c0.8,0.1,1.8,0.2,3,0.5c1.2,0.2,2.4,0.7,3.5,1.3c1.2,0.6,2.2,1.4,3.1,2.4c0.8,1,1.5,2.1,1.9,3.4C475.1,149.9,475.3,151.4,475.3,153
		L475.3,153z M467,153.5c0-1.4-0.2-2.5-0.7-3.4c-0.5-0.9-1.1-1.5-1.8-2c-0.7-0.4-1.5-0.7-2.2-0.8c-0.8-0.1-1.6-0.2-2.4-0.2h-3.4
		v13.3h3.6c1.3,0,2.3-0.2,3.2-0.5c0.9-0.3,1.6-0.8,2.1-1.4c0.5-0.6,1-1.3,1.2-2.2C466.9,155.5,467,154.6,467,153.5L467,153.5z
		 M512,179.1c0,0.2-0.1,0.4-0.2,0.5c-0.1,0.2-0.3,0.3-0.6,0.4c-0.3,0.1-0.7,0.2-1.2,0.2c-0.5,0.1-1.1,0.1-1.9,0.1
		c-0.8,0-1.4,0-1.9-0.1c-0.5-0.1-0.9-0.1-1.2-0.2c-0.3-0.1-0.5-0.2-0.6-0.4c-0.1-0.2-0.2-0.4-0.2-0.5v-15.8h-14.7v15.8
		c0,0.2-0.1,0.4-0.2,0.5c-0.1,0.2-0.3,0.3-0.6,0.4c-0.3,0.1-0.7,0.2-1.2,0.2c-0.5,0.1-1.1,0.1-1.9,0.1c-0.8,0-1.4,0-1.9-0.1
		c-0.5-0.1-0.9-0.1-1.2-0.2c-0.3-0.1-0.5-0.2-0.6-0.4c-0.1-0.2-0.2-0.4-0.2-0.5v-36.9c0-0.2,0.1-0.4,0.2-0.5
		c0.1-0.2,0.4-0.3,0.6-0.4c0.3-0.1,0.7-0.2,1.2-0.2c0.5-0.1,1.2-0.1,1.9-0.1c0.8,0,1.4,0,1.9,0.1c0.5,0.1,0.9,0.1,1.2,0.2
		c0.3,0.1,0.5,0.2,0.6,0.4c0.1,0.2,0.2,0.4,0.2,0.5v14.4H504v-14.4c0-0.2,0.1-0.4,0.2-0.5c0.1-0.2,0.3-0.3,0.6-0.4
		c0.3-0.1,0.7-0.2,1.2-0.2c0.5-0.1,1.2-0.1,1.9-0.1c0.8,0,1.4,0,1.9,0.1c0.5,0.1,0.9,0.1,1.2,0.2c0.3,0.1,0.5,0.2,0.6,0.4
		c0.1,0.2,0.2,0.4,0.2,0.5V179.1L512,179.1z"/>
	<path class="st5" d="M552.5,177.2c0.2,0.7,0.4,1.3,0.5,1.7c0.1,0.4,0,0.7-0.2,1c-0.2,0.2-0.6,0.3-1.2,0.4c-0.6,0.1-1.3,0.1-2.3,0.1
		c-1,0-1.8,0-2.4,0c-0.6,0-1-0.1-1.3-0.2c-0.3-0.1-0.5-0.2-0.6-0.4c-0.1-0.2-0.2-0.4-0.3-0.6l-2.6-7.9h-14.7l-2.5,7.6
		c-0.1,0.3-0.2,0.5-0.3,0.7c-0.1,0.2-0.3,0.3-0.6,0.5c-0.3,0.1-0.7,0.2-1.2,0.2c-0.5,0-1.2,0.1-2.1,0.1c-0.9,0-1.7,0-2.2-0.1
		c-0.5-0.1-0.9-0.2-1.1-0.4c-0.2-0.2-0.3-0.6-0.2-1c0.1-0.4,0.2-1,0.5-1.7l12-34.7c0.1-0.3,0.3-0.6,0.4-0.8c0.2-0.2,0.4-0.4,0.8-0.5
		c0.4-0.1,0.8-0.2,1.5-0.2c0.6,0,1.4,0,2.5,0c1.2,0,2.1,0,2.8,0c0.7,0,1.3,0.1,1.6,0.2c0.4,0.1,0.7,0.3,0.8,0.5
		c0.2,0.2,0.3,0.5,0.4,0.9L552.5,177.2L552.5,177.2z M534.6,148.5L534.6,148.5l-5.5,16.6h11L534.6,148.5L534.6,148.5z M584.9,179.2
		c0,0.2-0.1,0.4-0.2,0.5c-0.1,0.2-0.3,0.3-0.6,0.4c-0.3,0.1-0.7,0.2-1.2,0.2c-0.5,0.1-1.2,0.1-1.9,0.1c-0.8,0-1.4,0-1.9-0.1
		c-0.5-0.1-0.9-0.1-1.2-0.2c-0.3-0.1-0.5-0.2-0.7-0.4c-0.1-0.2-0.2-0.3-0.2-0.5v-14.6h-2.9c-1.2,0-2.1,0.1-2.8,0.4
		c-0.6,0.2-1.2,0.6-1.7,1.1c-0.5,0.5-0.9,1.1-1.3,1.9c-0.4,0.8-0.8,1.6-1.1,2.7l-3,8.5c-0.1,0.2-0.2,0.4-0.4,0.6
		c-0.2,0.2-0.4,0.3-0.7,0.4c-0.3,0.1-0.8,0.2-1.3,0.2c-0.5,0-1.2,0.1-2.1,0.1c-0.9,0-1.6,0-2.2-0.1c-0.5-0.1-0.9-0.1-1.2-0.3
		c-0.3-0.1-0.5-0.2-0.5-0.4c-0.1-0.1-0.1-0.3-0.1-0.5c0-0.2,0-0.5,0.1-0.7c0.1-0.3,0.2-0.7,0.4-1.3l2.9-7.7c0.4-1,0.8-1.9,1.2-2.6
		c0.4-0.7,0.8-1.4,1.3-2c0.5-0.6,1-1.1,1.6-1.5c0.6-0.4,1.2-0.7,1.8-1c-1.2-0.3-2.4-0.8-3.3-1.3c-1-0.6-1.8-1.2-2.4-2
		c-0.6-0.8-1.1-1.7-1.5-2.8c-0.3-1-0.5-2.2-0.5-3.5c0-1.8,0.3-3.4,0.9-4.8c0.6-1.4,1.5-2.7,2.7-3.7c1.2-1,2.7-1.8,4.5-2.3
		c1.8-0.6,4.3-0.8,7.5-0.8h9.6c0.6,0,1.2,0.2,1.6,0.6c0.5,0.4,0.7,1,0.7,1.9V179.2L584.9,179.2z M577,147.2h-4.1
		c-1.7,0-3,0.1-3.9,0.4c-0.8,0.3-1.5,0.6-2.1,1.1c-0.5,0.5-0.9,1.1-1.2,1.8c-0.2,0.7-0.4,1.5-0.4,2.3c0,0.8,0.1,1.6,0.4,2.3
		c0.3,0.7,0.7,1.3,1.2,1.8c0.5,0.5,1.2,0.9,2.1,1.2c0.9,0.3,2.1,0.4,3.6,0.4h4.2V147.2L577,147.2z M636.4,179.1
		c0,0.2-0.1,0.4-0.2,0.6c-0.1,0.2-0.3,0.3-0.6,0.4c-0.3,0.1-0.7,0.2-1.3,0.2c-0.5,0.1-1.2,0.1-2,0.1c-0.9,0-1.6,0-2.1-0.1
		c-0.5-0.1-1-0.1-1.3-0.2c-0.3-0.1-0.6-0.3-0.7-0.5c-0.2-0.2-0.3-0.4-0.4-0.7l-3.1-8.7c-0.4-1.3-0.9-2.3-1.4-3.2
		c-0.5-0.9-1-1.6-1.6-2.1c-0.6-0.5-1.2-0.9-2-1.1c-0.8-0.2-1.6-0.3-2.5-0.3h-1.8v15.7c0,0.2-0.1,0.4-0.2,0.6
		c-0.1,0.2-0.3,0.3-0.6,0.4c-0.3,0.1-0.7,0.2-1.2,0.2c-0.5,0.1-1.1,0.1-1.9,0.1c-0.8,0-1.4,0-1.9-0.1c-0.5-0.1-0.9-0.1-1.2-0.2
		c-0.3-0.1-0.5-0.2-0.7-0.4c-0.1-0.2-0.2-0.3-0.2-0.6v-37c0-0.2,0.1-0.4,0.2-0.6c0.1-0.2,0.4-0.3,0.7-0.4c0.3-0.1,0.7-0.2,1.2-0.2
		c0.5-0.1,1.2-0.1,1.9-0.1c0.8,0,1.4,0,1.9,0.1c0.5,0.1,0.9,0.1,1.2,0.2c0.3,0.1,0.5,0.2,0.6,0.4c0.1,0.1,0.2,0.3,0.2,0.6v14.7h1.8
		c0.9,0,1.7-0.1,2.4-0.4c0.7-0.2,1.3-0.6,1.9-1.1c0.6-0.5,1.1-1.2,1.5-2c0.5-0.8,0.9-1.9,1.3-3.1l2.6-7.8c0.1-0.3,0.2-0.5,0.4-0.7
		c0.1-0.2,0.4-0.4,0.7-0.5c0.3-0.1,0.7-0.2,1.2-0.2c0.5-0.1,1.2-0.1,2.1-0.1c0.8,0,1.4,0,1.9,0.1c0.5,0.1,0.9,0.1,1.2,0.2
		c0.3,0.1,0.5,0.2,0.6,0.4c0.1,0.2,0.2,0.3,0.2,0.6c0,0.3,0,0.6-0.1,1c-0.1,0.4-0.2,0.9-0.5,1.5l-2.6,6.9c-0.5,1.3-1,2.4-1.5,3.3
		c-0.5,0.9-1,1.7-1.5,2.3c-0.5,0.6-1.1,1.2-1.7,1.6c-0.6,0.4-1.2,0.7-2,1v0c0.8,0.4,1.5,0.7,2.2,1.2c0.7,0.4,1.3,1,1.9,1.6
		c0.6,0.7,1.1,1.5,1.7,2.5c0.5,1,1.1,2.2,1.6,3.6l3.2,8.1c0.3,0.8,0.5,1.4,0.6,1.7C636.4,178.7,636.4,178.9,636.4,179.1L636.4,179.1
		z M675.8,160.2c0,3.2-0.4,6.1-1.2,8.7c-0.8,2.6-2,4.7-3.6,6.5c-1.6,1.8-3.6,3.1-5.9,4.1c-2.3,0.9-5.1,1.4-8.1,1.4
		c-3,0-5.7-0.4-7.9-1.2c-2.3-0.8-4.2-2-5.7-3.6c-1.5-1.6-2.6-3.7-3.4-6.2c-0.8-2.5-1.1-5.5-1.1-8.9c0-3.2,0.4-6,1.2-8.5
		c0.8-2.5,2-4.7,3.6-6.4c1.6-1.8,3.6-3.1,5.9-4.1c2.3-0.9,5.1-1.4,8.2-1.4c3,0,5.6,0.4,7.8,1.2c2.3,0.8,4.2,2,5.7,3.6
		c1.5,1.6,2.7,3.7,3.4,6.2C675.5,153.9,675.8,156.8,675.8,160.2L675.8,160.2z M667.5,160.6c0-2.1-0.2-3.9-0.5-5.6
		c-0.3-1.7-0.9-3.1-1.6-4.3c-0.8-1.2-1.8-2.1-3.1-2.8c-1.3-0.6-2.9-1-4.8-1c-1.9,0-3.6,0.4-4.9,1.1c-1.3,0.7-2.4,1.7-3.2,2.9
		c-0.8,1.2-1.4,2.7-1.7,4.3c-0.3,1.6-0.5,3.4-0.5,5.2c0,2.1,0.2,4.1,0.5,5.8c0.3,1.7,0.9,3.2,1.6,4.4c0.8,1.2,1.8,2.1,3.1,2.8
		c1.3,0.6,2.9,0.9,4.9,0.9c1.9,0,3.6-0.4,4.9-1.1c1.3-0.7,2.4-1.7,3.2-3c0.8-1.2,1.4-2.7,1.7-4.4
		C667.3,164.2,667.5,162.5,667.5,160.6L667.5,160.6z M728.1,179.1c0,0.2-0.1,0.4-0.2,0.5c-0.1,0.2-0.3,0.3-0.6,0.4
		c-0.3,0.1-0.7,0.2-1.2,0.2c-0.5,0.1-1.1,0.1-1.8,0.1c-0.7,0-1.3,0-1.8-0.1c-0.5-0.1-0.9-0.1-1.2-0.2c-0.3-0.1-0.5-0.2-0.6-0.4
		c-0.1-0.2-0.2-0.4-0.2-0.5v-31.8h-0.1l-11.3,31.8c-0.1,0.3-0.2,0.5-0.4,0.6c-0.2,0.2-0.4,0.3-0.7,0.4c-0.3,0.1-0.7,0.2-1.2,0.2
		c-0.5,0-1.1,0-1.8,0c-0.7,0-1.3,0-1.8-0.1c-0.5-0.1-0.9-0.1-1.2-0.2c-0.3-0.1-0.6-0.2-0.7-0.4c-0.2-0.2-0.3-0.4-0.4-0.6l-10.9-31.8
		h-0.1v31.8c0,0.2-0.1,0.4-0.2,0.5c-0.1,0.2-0.3,0.3-0.6,0.4c-0.3,0.1-0.7,0.2-1.2,0.2c-0.5,0.1-1.1,0.1-1.8,0.1
		c-0.7,0-1.3,0-1.8-0.1c-0.5-0.1-0.9-0.1-1.2-0.2c-0.3-0.1-0.5-0.2-0.6-0.4c-0.1-0.2-0.2-0.4-0.2-0.5v-34.8c0-1,0.3-1.8,0.8-2.4
		c0.5-0.5,1.3-0.8,2.2-0.8h5.2c0.9,0,1.7,0.1,2.4,0.2c0.7,0.2,1.2,0.4,1.7,0.8c0.5,0.4,0.9,0.8,1.2,1.4c0.3,0.6,0.6,1.3,0.8,2.1
		l8.4,23.3h0.1l8.7-23.2c0.3-0.8,0.5-1.6,0.9-2.1c0.3-0.6,0.7-1.1,1.1-1.4c0.4-0.4,0.9-0.6,1.5-0.8c0.6-0.2,1.2-0.2,2-0.2h5.4
		c0.5,0,1,0.1,1.4,0.2c0.4,0.1,0.7,0.3,1,0.6c0.3,0.3,0.4,0.6,0.6,1c0.1,0.4,0.2,0.8,0.2,1.4V179.1L728.1,179.1z M767,179.2
		c0,0.2-0.1,0.4-0.2,0.5c-0.1,0.2-0.3,0.3-0.6,0.4c-0.3,0.1-0.7,0.2-1.2,0.2c-0.5,0.1-1.2,0.1-1.9,0.1c-0.8,0-1.4,0-1.9-0.1
		c-0.5-0.1-0.9-0.1-1.2-0.2c-0.3-0.1-0.5-0.2-0.6-0.4c-0.1-0.2-0.2-0.3-0.2-0.5v-31.5h-14.6v31.5c0,0.2-0.1,0.4-0.2,0.5
		c-0.1,0.2-0.4,0.3-0.6,0.4c-0.3,0.1-0.7,0.2-1.2,0.2c-0.5,0.1-1.1,0.1-1.9,0.1c-0.8,0-1.4,0-1.9-0.1c-0.5-0.1-0.9-0.1-1.2-0.2
		c-0.3-0.1-0.5-0.2-0.6-0.4c-0.1-0.2-0.2-0.3-0.2-0.5v-35.6c0-0.8,0.2-1.5,0.6-1.9c0.4-0.4,1-0.6,1.7-0.6h25.8
		c0.7,0,1.3,0.2,1.7,0.6c0.4,0.4,0.6,1,0.6,1.9V179.2L767,179.2z M807.6,177.2c0.2,0.7,0.4,1.3,0.5,1.7c0.1,0.4,0,0.7-0.2,1
		c-0.2,0.2-0.6,0.3-1.2,0.4c-0.6,0.1-1.3,0.1-2.3,0.1c-1,0-1.8,0-2.4,0c-0.6,0-1-0.1-1.3-0.2c-0.3-0.1-0.5-0.2-0.6-0.4
		c-0.1-0.2-0.2-0.4-0.3-0.6l-2.6-7.9h-14.7l-2.5,7.6c-0.1,0.3-0.2,0.5-0.3,0.7c-0.1,0.2-0.3,0.3-0.6,0.5c-0.3,0.1-0.7,0.2-1.2,0.2
		c-0.5,0-1.2,0.1-2.1,0.1c-0.9,0-1.7,0-2.2-0.1c-0.5-0.1-0.9-0.2-1.1-0.4c-0.2-0.2-0.3-0.6-0.2-1c0.1-0.4,0.2-1,0.5-1.7l12-34.7
		c0.1-0.3,0.3-0.6,0.4-0.8c0.2-0.2,0.4-0.4,0.8-0.5c0.4-0.1,0.8-0.2,1.5-0.2c0.6,0,1.4,0,2.5,0c1.2,0,2.1,0,2.8,0
		c0.7,0,1.3,0.1,1.7,0.2c0.4,0.1,0.7,0.3,0.8,0.5c0.2,0.2,0.3,0.5,0.4,0.9L807.6,177.2L807.6,177.2z M789.6,148.5L789.6,148.5
		l-5.5,16.6h11L789.6,148.5L789.6,148.5z M843.5,179.1c0,0.2-0.1,0.4-0.2,0.5c-0.1,0.2-0.4,0.3-0.7,0.4c-0.3,0.1-0.7,0.2-1.2,0.2
		c-0.5,0.1-1.1,0.1-1.9,0.1c-0.8,0-1.4,0-1.9-0.1c-0.5-0.1-0.9-0.1-1.2-0.2c-0.3-0.1-0.5-0.2-0.6-0.4c-0.1-0.2-0.2-0.4-0.2-0.5
		v-15.8H821v15.8c0,0.2-0.1,0.4-0.2,0.5c-0.1,0.2-0.3,0.3-0.6,0.4c-0.3,0.1-0.7,0.2-1.2,0.2c-0.5,0.1-1.1,0.1-1.9,0.1
		c-0.8,0-1.4,0-1.9-0.1c-0.5-0.1-0.9-0.1-1.2-0.2c-0.3-0.1-0.5-0.2-0.6-0.4c-0.1-0.2-0.2-0.4-0.2-0.5v-36.9c0-0.2,0.1-0.4,0.2-0.5
		c0.1-0.2,0.4-0.3,0.6-0.4c0.3-0.1,0.7-0.2,1.2-0.2c0.5-0.1,1.2-0.1,1.9-0.1c0.8,0,1.4,0,1.9,0.1c0.5,0.1,0.9,0.1,1.2,0.2
		c0.3,0.1,0.5,0.2,0.6,0.4c0.1,0.2,0.2,0.4,0.2,0.5v14.4h14.7v-14.4c0-0.2,0.1-0.4,0.2-0.5c0.1-0.2,0.3-0.3,0.6-0.4
		c0.3-0.1,0.7-0.2,1.2-0.2c0.5-0.1,1.2-0.1,1.9-0.1c0.8,0,1.4,0,1.9,0.1c0.5,0.1,0.9,0.1,1.2,0.2c0.3,0.1,0.5,0.2,0.7,0.4
		c0.1,0.2,0.2,0.4,0.2,0.5V179.1L843.5,179.1z M883.9,179.2c0,0.2-0.1,0.4-0.2,0.5c-0.1,0.2-0.4,0.3-0.6,0.4
		c-0.3,0.1-0.7,0.2-1.2,0.2c-0.5,0.1-1.2,0.1-1.9,0.1c-0.8,0-1.4,0-1.9-0.1c-0.5-0.1-0.9-0.1-1.2-0.2c-0.3-0.1-0.5-0.2-0.6-0.4
		c-0.1-0.2-0.2-0.3-0.2-0.5v-20.6c0-0.8,0-1.6,0-2.3c0-0.8,0.1-1.4,0.1-2H876c-0.2,0.3-0.4,0.6-0.6,1s-0.5,0.8-0.7,1.2
		c-0.3,0.4-0.5,0.8-0.8,1.3c-0.3,0.4-0.6,0.9-0.8,1.3l-13.6,20.3c-0.2,0.2-0.3,0.4-0.5,0.6c-0.2,0.2-0.4,0.3-0.7,0.4
		c-0.3,0.1-0.6,0.2-1,0.2c-0.4,0-0.9,0-1.5,0c-0.8,0-1.4,0-1.9-0.1c-0.5-0.1-0.9-0.1-1.1-0.2c-0.3-0.1-0.5-0.2-0.6-0.4
		c-0.1-0.2-0.2-0.4-0.2-0.6v-37c0-0.2,0.1-0.4,0.2-0.5c0.1-0.2,0.4-0.3,0.7-0.4c0.3-0.1,0.7-0.2,1.2-0.2c0.5-0.1,1.1-0.1,1.9-0.1
		c0.8,0,1.4,0,1.9,0.1c0.5,0.1,0.9,0.1,1.2,0.2c0.3,0.1,0.5,0.2,0.6,0.4c0.1,0.2,0.2,0.3,0.2,0.5v20.7c0,0.6,0,1.3,0,2.1
		c0,0.7-0.1,1.4-0.1,2.1h0.1c0.3-0.6,0.8-1.3,1.3-2.2c0.5-0.8,1.1-1.7,1.6-2.5l13.6-20.3c0.1-0.2,0.3-0.4,0.5-0.5
		c0.2-0.2,0.4-0.3,0.6-0.4c0.3-0.1,0.6-0.2,1-0.2c0.4,0,0.9-0.1,1.5-0.1c0.8,0,1.4,0,1.9,0.1c0.5,0.1,0.8,0.1,1.1,0.2
		c0.3,0.1,0.5,0.2,0.6,0.4c0.1,0.2,0.2,0.3,0.2,0.6V179.2L883.9,179.2z M919.3,179.2c0,0.2-0.1,0.4-0.2,0.5
		c-0.1,0.2-0.3,0.3-0.6,0.4c-0.3,0.1-0.7,0.2-1.2,0.2c-0.5,0.1-1.2,0.1-1.9,0.1c-0.8,0-1.4,0-1.9-0.1c-0.5-0.1-0.9-0.1-1.2-0.2
		c-0.3-0.1-0.5-0.2-0.7-0.4c-0.1-0.2-0.2-0.3-0.2-0.5v-14.6h-2.9c-1.2,0-2.1,0.1-2.8,0.4c-0.6,0.2-1.2,0.6-1.7,1.1
		c-0.5,0.5-0.9,1.1-1.3,1.9c-0.4,0.8-0.8,1.6-1.1,2.7l-3,8.5c-0.1,0.2-0.2,0.4-0.4,0.6c-0.2,0.2-0.4,0.3-0.7,0.4
		c-0.3,0.1-0.8,0.2-1.3,0.2c-0.5,0-1.2,0.1-2.1,0.1c-0.9,0-1.6,0-2.2-0.1c-0.5-0.1-0.9-0.1-1.2-0.3c-0.3-0.1-0.5-0.2-0.5-0.4
		c-0.1-0.1-0.1-0.3-0.1-0.5c0-0.2,0-0.5,0.1-0.7c0.1-0.3,0.2-0.7,0.4-1.3l2.9-7.7c0.4-1,0.8-1.9,1.2-2.6c0.4-0.7,0.8-1.4,1.3-2
		c0.5-0.6,1-1.1,1.6-1.5c0.6-0.4,1.2-0.7,1.8-1c-1.2-0.3-2.4-0.8-3.3-1.3c-1-0.6-1.8-1.2-2.4-2c-0.6-0.8-1.1-1.7-1.5-2.8
		c-0.3-1-0.5-2.2-0.5-3.5c0-1.8,0.3-3.4,0.9-4.8c0.6-1.4,1.5-2.7,2.7-3.7c1.2-1,2.7-1.8,4.5-2.3c1.8-0.6,4.3-0.8,7.5-0.8h9.6
		c0.6,0,1.2,0.2,1.6,0.6c0.5,0.4,0.7,1,0.7,1.9V179.2L919.3,179.2z M911.4,147.2h-4.1c-1.7,0-3,0.1-3.9,0.4
		c-0.8,0.3-1.5,0.6-2.1,1.1c-0.5,0.5-0.9,1.1-1.2,1.8c-0.2,0.7-0.4,1.5-0.4,2.3c0,0.8,0.1,1.6,0.4,2.3c0.3,0.7,0.7,1.3,1.2,1.8
		c0.5,0.5,1.2,0.9,2.1,1.2c0.9,0.3,2.1,0.4,3.6,0.4h4.2V147.2L911.4,147.2z"/>
	<polygon class="st1" points="395.2,74.4 401.8,74.4 401.8,85.4 395.2,85.4 395.2,74.4 	"/>
	<path class="st3" d="M291.4,52.4l0.4,5.3c-10.9,3.1-11,13.5-7.6,19.5c-2.4,3.4-3.2,1.7-2.4,8l-1.7,0.1l9.1,0.2
		c-0.8,1.1-1.8,1.7-0.3,3.5l13.4-3.5c-0.1,4.6,0.4,5.1,2.3,8.1c3,0,5.8-1.1,8.5-1.8c4.1-1.1,4.6-1.9,6.3-4.8c3.7,0.8,6,3.8,9.8,3.5
		c3.4-0.3,6.4-3.6,9.2-4.9c4.6,4.8,11,3.1,18.8,3.6c3.7,0.2,6.3,1,10.5,0.9c3.7-0.1,7.6-1.1,10.4-1.2c0.1-4.5-1.6-4.7-1.5-9.4
		c0.1-3.8,1.9-6.1,2.9-8.5l-18.7-0.8l0,3.8c-1.8,1.3-3.8,2.7-5.8,3.8c-3.8-1.8,0.6-1.6-5.2-2.8c-9.5-2-13.3-12.3-13.3-12.3l-9.9-3.3
		c-2.8,3-2.5,4.8-5.5,6.7l-1.3,5.2l-5.8-0.8c-3.2,9-1.6,2.2-6.8,6.1c-4.1,3-4.9,7.4-5.5,8.2c0.2-16.5,0.2-9.7-2.5-21.4l-0.8-5
		c0.3-2.1-1,0.1,0.6-1.6c-0.8-3.6,1.8-5.8,1.8-11.1c-1-0.7-1.2-0.5-1.9-0.9l-1.4-1c-0.1-0.1-0.3-0.2-0.5-0.4
		c0.5-11.1,6.6-8.1-1.5-23.1c-2-3.6-0.9-4.3-0.9-8.5l-5.6-0.4l-1.4,4.9c-0.7,8.9,2.8,8.8-0.2,15.6c-2.8,6.6-1.7,15.1,4.5,17.5
		L291.4,52.4L291.4,52.4z"/>
</g>
</svg>
