<?xml version="1.0" encoding="utf-8"?>
<!-- Generator: Adobe Illustrator 22.1.0, SVG Export Plug-In . SVG Version: 6.00 Build 0)  -->
<svg version="1.1" id="Layer_1" xmlns="http://www.w3.org/2000/svg" xmlns:xlink="http://www.w3.org/1999/xlink" x="0px" y="0px"
	 viewBox="0 0 38 51.7" style="enable-background:new 0 0 38 51.7;" xml:space="preserve">
<style type="text/css">
	.st0{fill:#E63C23;}
</style>
<g>
	<path class="st0" d="M19,0C8.5,0,0,8.5,0,19c0,2.7,0.6,5.3,1.7,7.8c4.7,10.4,13.9,21.4,16.5,24.5c0.2,0.2,0.5,0.4,0.8,0.4
		s0.6-0.1,0.8-0.4c2.7-3.1,11.8-14.1,16.5-24.5c1.1-2.4,1.7-5,1.7-7.8C38,8.6,29.5,0,19,0z M19,28.9c-5.4,0-9.9-4.4-9.9-9.9
		c0-5.4,4.4-9.9,9.9-9.9s9.9,4.4,9.9,9.9S24.4,28.9,19,28.9z"/>
</g>
</svg>
