<?xml version="1.0" encoding="utf-8"?><svg xmlns="http://www.w3.org/2000/svg" xmlns:xlink="http://www.w3.org/1999/xlink"><symbol viewBox="0 0 24 24" id="form-email" xmlns="http://www.w3.org/2000/svg"><path d="M24 21H0V3h24v18zM1 4.5V20h22V4.5l-11 10-11-10zM22.1 4H1.9L12 13.2 22.1 4z"/></symbol><symbol viewBox="0 0 355 261.7" id="form-msg" xmlns="http://www.w3.org/2000/svg"><path d="M317.1 0H37.9C17 0 0 17 0 37.9v153.3C0 212 17 229 37.9 229h17.4l-5.9 23.3c-.7 2.8.3 5.8 2.5 7.6 1.4 1.1 3.1 1.7 4.8 1.7 1.1 0 2.1-.2 3.2-.7l69-32h188.3c20.9 0 37.9-17 37.9-37.9V37.9C355 17 338 0 317.1 0zM340 191.1c0 12.6-10.3 22.9-22.9 22.9h-190c-1.1 0-2.2.2-3.2.7l-56.2 26 4.4-17.4c.6-2.2.1-4.6-1.3-6.5S67.3 214 65 214H37.9C25.3 214 15 203.7 15 191.1V37.9C15 25.3 25.3 15 37.9 15h279.3c12.6 0 22.9 10.3 22.9 22.9v153.2h-.1z"/><path d="M281.6 57.3H76c-3.5 0-6.4 3.4-6.4 7.5s2.9 7.5 6.4 7.5h205.6c3.5 0 6.4-3.4 6.4-7.5s-2.9-7.5-6.4-7.5zm0 50.9H76c-3.5 0-6.4 3.4-6.4 7.5s2.9 7.5 6.4 7.5h205.6c3.5 0 6.4-3.4 6.4-7.5s-2.9-7.5-6.4-7.5zm0 50.8H76c-3.5 0-6.4 3.4-6.4 7.5s2.9 7.5 6.4 7.5h205.6c3.5 0 6.4-3.4 6.4-7.5s-2.9-7.5-6.4-7.5z"/></symbol><symbol viewBox="0 0 27 36" id="form-phone" xmlns="http://www.w3.org/2000/svg"><path d="M26.9 32.3c.2-.9.1-1.9-.5-2.7l-2.7-4.3c-1-1.6-3.3-2.1-4.9-1.1l-1.1.7c-.3.2-.7.3-1.2.2-.9-.2-2.7-1.2-5.4-5.4-3.1-4.9-3-7.4-1.8-8.2l1.1-.7c1.7-1 2.2-3.2 1.1-4.9L8.9 1.7C8.4.9 7.7.3 6.7.1S4.9 0 4.1.5L3 1.2C-1.7 4.1-.7 13.9 5.2 23.4c4.1 6.6 9.5 11.3 14.2 12.4 1.9.4 3.6.2 4.9-.6l1.1-.7c.8-.5 1.3-1.2 1.5-2.2zm-1.9-.4c-.1.4-.3.7-.7 1l-1.1.7c-.9.5-2 .7-3.4.4-4.1-.9-9.1-5.4-12.9-11.5C1.7 14.1.4 5.2 4 2.9l1.1-.7c.7-.4 1.7-.2 2.1.5L9.9 7c.4.7.2 1.7-.5 2.1l-1 .7c-1.2.8-3.6 3.4 1.2 10.9 2.3 3.7 4.5 5.8 6.6 6.3 1 .2 1.9.1 2.7-.4l1.1-.7c.7-.4 1.7-.2 2.1.5l2.7 4.3c.2.4.3.8.2 1.2z"/></symbol><symbol id="form-theme" viewBox="0 0 270.4 303.3" xml:space="preserve" xmlns="http://www.w3.org/2000/svg"><style>.dst0{fill:#222220}</style><path class="dst0" d="M268.2 117l-32.4-32.4c-2.9-2.9-7.7-2.9-10.6 0l-28.8 28.8-73.9 73.9c-1.1 1.1-1.8 2.5-2.1 4.1l-6.4 38.8c-.4 2.4.4 4.8 2.1 6.5 1.4 1.4 3.3 2.2 5.3 2.2.4 0 .8 0 1.2-.1l38.8-6.4c1.6-.3 3-1 4.1-2.1l102.8-102.8c1.4-1.4 2.2-3.3 2.2-5.3s-.9-3.8-2.3-5.2zM156.5 218.1l-26.1 4.3 4.3-26.1 66.9-66.9 21.8 21.8-66.9 66.9zm77.5-77.6l-21.8-21.8 18.2-18.2 21.8 21.8-18.2 18.2z"/><path class="dst0" d="M231.6 192.9c-4.1 0-7.5 3.4-7.5 7.5v88H15V15h209.1v48.9c0 4.1 3.4 7.5 7.5 7.5s7.5-3.4 7.5-7.5V7.5c0-4.1-3.4-7.5-7.5-7.5H7.5C3.4 0 0 3.4 0 7.5v288.3c0 4.1 3.4 7.5 7.5 7.5h224.1c4.1 0 7.5-3.4 7.5-7.5v-95.5c0-4.1-3.3-7.4-7.5-7.4z"/><path class="dst0" d="M98.2 42.1c-2.9-2.9-7.7-2.9-10.6 0L59 70.7 47.7 59.4c-2.9-2.9-7.7-2.9-10.6 0-2.9 2.9-2.9 7.7 0 10.6l16.6 16.6c1.5 1.5 3.4 2.2 5.3 2.2s3.8-.7 5.3-2.2l33.9-33.9c2.9-2.9 2.9-7.7 0-10.6zm0 88.4c-2.9-2.9-7.7-2.9-10.6 0L59 159l-11.3-11.3c-2.9-2.9-7.7-2.9-10.6 0-2.9 2.9-2.9 7.7 0 10.6l16.6 16.6c1.5 1.5 3.4 2.2 5.3 2.2s3.8-.7 5.3-2.2L98.2 141c2.9-2.9 2.9-7.6 0-10.5zm-10.6 88.3L59 247.4l-11.3-11.3c-2.9-2.9-7.7-2.9-10.6 0-2.9 2.9-2.9 7.7 0 10.6l16.6 16.6c1.4 1.4 3.3 2.2 5.3 2.2s3.9-.8 5.3-2.2l33.9-33.9c2.9-2.9 2.9-7.7 0-10.6-3-2.9-7.7-2.9-10.6 0z"/></symbol><symbol viewBox="0 0 32 32" id="form-user" xmlns="http://www.w3.org/2000/svg"><path d="M16 22c5 0 9-4.9 9-11S21 0 16 0c-2.4 0-4.7 1.2-6.4 3.3C7.9 5.4 7 8.1 7 11c0 6.1 4 11 9 11zm0-20c3.9 0 7 4 7 9s-3.1 9-7 9-7-4-7-9 3.1-9 7-9zm7 18c-.6 0-1 .4-1 1s.4 1 1 1c3.9 0 7 3.1 7 7 0 .6-.4 1-1 1H3c-.6 0-1-.4-1-1 0-3.9 3.1-7 7-7 .6 0 1-.4 1-1s-.4-1-1-1c-5 0-9 4-9 9 0 1.7 1.3 3 3 3h26c1.7 0 3-1.3 3-3 0-5-4-9-9-9z"/></symbol><symbol viewBox="0 0 384 384" id="icon-download" xmlns="http://www.w3.org/2000/svg"><path d="M170.3 33.5c14.1-2 29.4-2 43.5 0 .8.1 1.5.2 2.3.2 7.8 0 14.7-5.8 15.8-13.7 1.2-8.8-4.8-16.9-13.6-18.1-17.1-2.4-35.4-2.4-52.5 0-8.7 1.2-14.8 9.4-13.6 18.1 1.2 8.7 9.3 14.8 18.1 13.5z"/><path d="M279.3 20.9c-7.9-4-17.5-.9-21.5 7s-.9 17.5 7 21.5C318.6 76.9 352 131.6 352 192c0 88.2-71.8 160-160 160S32 280.2 32 192c0-60.4 33.4-115 87.3-142.6 7.9-4 11-13.7 7-21.5-4-7.9-13.7-11-21.5-7C40.1 54 0 119.5 0 192c0 105.9 86.1 192 192 192s192-86.1 192-192c0-72.5-40.1-138-104.7-171.1z"/><path d="M116.7 228.7c-6.2 6.2-6.2 16.4 0 22.6l64 64c3.1 3.1 7.2 4.7 11.3 4.7 4.1 0 8.2-1.6 11.3-4.7l64-64c6.2-6.2 6.2-16.4 0-22.6s-16.4-6.2-22.6 0L208 265.4V80c0-8.8-7.2-16-16-16s-16 7.2-16 16v185.4l-36.7-36.7c-6.2-6.3-16.4-6.3-22.6 0z"/></symbol><symbol id="icon-feat-1" viewBox="0 0 47 47" xml:space="preserve" xmlns="http://www.w3.org/2000/svg"><style>.gst0{fill:#e63c23}</style><path class="gst0" d="M32 34c0 .5-.4.9-.9.9s-.9-.4-.9-.9.4-.9.9-.9.9.4.9.9zm-15.2 0c0 .5-.4.9-.9.9s-.9-.4-.9-.9.4-.9.9-.9.9.4.9.9zm-.6-12h14.7c.5 0 .9-.4.9-.9v-1.8c0-4.5-3.7-8.3-8.3-8.3-4.6 0-8.3 3.7-8.3 8.3v1.8c0 .5.4.9 1 .9zm.9-2.7c0-3.5 2.9-6.4 6.4-6.4 3.5 0 6.4 2.9 6.4 6.4v.9H17.1v-.9zM29 5.5c0-3-2.5-5.5-5.5-5.5S18 2.5 18 5.5s2.5 5.5 5.5 5.5S29 8.5 29 5.5zm-5.5 3.7c-2 0-3.7-1.6-3.7-3.7s1.6-3.7 3.7-3.7c2 0 3.7 1.6 3.7 3.7s-1.7 3.7-3.7 3.7z"/><path class="gst0" d="M1.1 28.2l8.2 9.5c.1.2.2.4.2.6v7.8c0 .5.4.9.9.9h11.3c.5 0 .9-.4.9-.9V33.7c0-1.2-.5-2.4-1.3-3.2l-6.5-6.3c-1.9-1.9-4.8-2.3-7.1-1.1v-7.4c0-3.6-3.2-6.4-6.7-6.4-.6-.1-1 .3-1 .8v15.2c0 1.1.4 2.1 1.1 2.9zm.7-17.1c2.2.4 3.9 2.3 3.9 4.5v9.2c0 .2.1.5.3.6l6.6 6.6c.4.4.9.4 1.3 0s.4-.9 0-1.3L8 24.8c1.7-1.1 3.9-.9 5.3.6l6.5 6.3c.5.5.8 1.2.8 1.9v11.5h-9.5v-6.9c0-.6-.2-1.3-.6-1.8l-8-9.4c-.4-.5-.6-1.1-.6-1.8V11.1zm44.3-1.9c-3.6 0-6.7 2.9-6.7 6.4V23c-.8-.4-1.8-.7-2.8-.7-1.6 0-3.2.6-4.3 1.8 0 0-6.5 6.3-6.6 6.3-.9.9-1.3 2-1.3 3.2V46c0 .5.4.9.9.9h11.3c.5 0 .9-.4.9-.9v-7.8c0-.2.1-.4.2-.6l8.2-9.5c.7-.8 1.1-1.9 1.1-2.9V10.1c0-.5-.4-.9-.9-.9zm-.9 16.1c0 .6-.2 1.3-.6 1.8l-8.2 9.5c-.4.5-.6 1.1-.6 1.8v6.9h-9.5V33.7c0-.7.3-1.4.8-1.9l6.5-6.3c1.4-1.4 3.7-1.6 5.3-.6L33 30.8c-.4.4-.4.9 0 1.3s.9.4 1.3 0l6.6-6.6c.2-.2.3-.4.3-.6v-9.2c0-2.2 1.8-4.1 3.9-4.5v14.1z"/></symbol><symbol viewBox="0 0 512 512" id="icon-feat-2" xmlns="http://www.w3.org/2000/svg"><path d="M395.5 324.1c5.5 0 10-4.5 10-10v-124c0-5.5-4.5-10-10-10s-10 4.5-10 10v124.1c0 5.4 4.5 9.9 10 9.9z"/><path d="M5.4 253.6v84.2c0 5.5 4.5 10 10 10s10-4.5 10-10v-74.2h66v50.5c0 5.5 4.5 10 10 10H196c5.5 0 10-4.5 10-10v-50.5h22.8v7.4c0 24.3 16.4 44.8 38.7 51.2 1.5.4 3 .8 4.5 1.1V492H25.4v-74.2c0-5.5-4.5-10-10-10s-10 4.5-10 10V502c0 5.5 4.5 10 10 10h380.1c5.5 0 10-4.5 10-10V324.1h91c5.5 0 10-4.5 10-10v-124c0-5.5-4.5-10-10-10h-47.8v-22.6c0-29.3-23.9-53.2-53.2-53.2h-16.4c9.1-11.1 14.6-25.9 14.6-42.1C393.7 27.9 369 .1 338.6.1c-30.4 0-55.1 27.9-55.1 62.1 0 16.2 5.6 31 14.6 42.1H282c-29.3 0-53.2 23.9-53.2 53.2v86.1H15.5c-5.6 0-10.1 4.4-10.1 10zm333.4-149.3c-19.4 0-35.1-18.9-35.1-42.1 0-23.2 15.7-42.1 35.1-42.1 19.3 0 35.1 18.9 35.1 42.1-.1 23.1-15.8 42-35.1 42.1zm147.8 199.8h-49.5c.1-.2.2-.3.4-.5 3.1-3.9 5.6-8.2 7.4-12.8.6-1.4 1.1-2.8 1.5-4.3 1.6-5.1 2.3-10.3 2.3-15.6V200h37.8v104.1h.1zm-237.8-33.2V157.5c0-18.3 14.9-33.2 33.2-33.2h113.6c18.3 0 33.2 14.9 33.2 33.2V271c0 14.8-9.8 27.4-23.2 31.6V190.1c0-5.5-4.5-10-10-10h-56.8c-5.5 0-10 4.5-10 10v124.1c0 5.5 4.5 10 10 10h46.8V492h-36.8V346.5c0-5.5-4.5-10-10-10s-10 4.5-10 10V492H292V190.1c0-5.5-4.5-10-10-10s-10 4.5-10 10v112.5c-13.4-4.3-23.2-16.9-23.2-31.7zm99.9 33.2v-104h36.8v104.1h-36.8zm-237.2 0v-40.5H186v40.5h-74.5z"/><path d="M154.8 445.8c5.5 0 10 4.5 10 10s-4.5 10-10 10h-27.7c-5.5 0-10-4.5-10-10s4.5-10 10-10h27.7zm-65.5 0c5.5 0 10 4.5 10 10s-4.5 10-10 10H61.6c-5.5 0-10-4.5-10-10s4.5-10 10-10h27.7zm-73.9-78c5.5 0 10 4.5 10 10s-4.5 10-10 10-10-4.5-10-10 4.5-10 10-10z"/></symbol><symbol id="icon-feat-3" viewBox="0 0 43.2 47" xml:space="preserve" xmlns="http://www.w3.org/2000/svg"><style>.ist0{fill:#e63c23}</style><circle class="ist0" cx="21.6" cy="21.3" r="1"/><circle class="ist0" cx="21.6" cy="24.6" r="1"/><path class="ist0" d="M37 10.3c.5-.8.9-1.7.9-2.7v-3C37.9 2 35.8 0 33.3 0h-.6c-2.6 0-4.6 2.1-4.6 4.6v3c0 1 .3 1.9.9 2.7h-3.1c.5-.8.9-1.7.9-2.7v-3C26.8 2 24.7 0 22.2 0h-.6C19 0 17 2.1 17 4.6v3c0 1 .3 1.9.9 2.7h-3.1c.5-.8.9-1.7.9-2.7v-3C15.7 2 13.6 0 11.1 0H10C7.4 0 5.3 2.1 5.3 4.6v3c0 1 .3 1.9.9 2.7-3.4.1-6.2 3-6.2 6.4v9.6c0 2 1.6 3.6 3.6 3.6h.1v13.8C3.7 45.5 5.1 47 7 47h1c.9 0 1.7-.4 2.3-.9.6.6 1.4.9 2.3.9h1.1c.9 0 1.7-.4 2.3-.9.6.6 1.4.9 2.3.9h1.1c.9 0 1.7-.4 2.3-.9.6.6 1.4.9 2.3.9h1.1c.9 0 1.7-.4 2.3-.9.6.6 1.4.9 2.3.9h1.1c.9 0 1.7-.4 2.3-.9.6.6 1.4.9 2.3.9h1.1c1.8 0 3.3-1.5 3.3-3.3V29.9h.1c2 0 3.6-1.6 3.6-3.6v-9.6c-.3-3.4-3.1-6.2-6.5-6.4zm-7.1-5.7c0-1.5 1.2-2.7 2.7-2.7h.6c1.5 0 2.7 1.2 2.7 2.7v3c0 1.5-1.2 2.7-2.7 2.7h-.6c-1.5 0-2.7-1.2-2.7-2.7v-3zm-11.3 0c0-1.5 1.2-2.7 2.7-2.7h.6c1.5 0 2.7 1.2 2.7 2.7v3c0 1.5-1.2 2.7-2.7 2.7h-.6c-1.5 0-2.7-1.2-2.7-2.7v-3zm5.3 7.7L21.6 16l-2.3-3.7h4.6zM7.3 4.6C7.3 3.2 8.5 2 10 2h.6c1.5 0 2.7 1.2 2.7 2.7v3c0 1.5-1.2 2.7-2.7 2.7H10c-1.5 0-2.7-1.2-2.7-2.7V4.6zM4.7 19.1c-.5 0-1 .4-1 1V28h-.1c-.9 0-1.6-.8-1.6-1.7v-9.6c0-2.5 2-4.5 4.5-4.5h6.6c-1.1 1.2-1.8 2.7-1.8 4.5v9.6c0 .3 0 .6.1.9l-1.1.6-4.7-2.4V20c0-.5-.4-.9-.9-.9zM15 43.7c0 .7-.6 1.3-1.3 1.3h-1.1c-.7 0-1.3-.6-1.3-1.3V32.9c0-.5-.4-1-1-1-.5 0-1 .4-1 1v10.8c0 .8-.6 1.3-1.3 1.3H7c-.7 0-1.3-.6-1.3-1.3V27.6l4.2 2.1c.1.1.3.1.4.1.2 0 .3 0 .4-.1l1.7-.8c.6.6 1.5 1 2.5 1h.1v13.8zm11.2 0c0 .7-.6 1.3-1.3 1.3h-1.1c-.7 0-1.3-.6-1.3-1.3V32.9c0-.5-.4-1-1-1-.5 0-1 .4-1 1v10.8c0 .7-.6 1.3-1.3 1.3h-1.1c-.7 0-1.3-.6-1.3-1.3V27.6l4.2 2.1c.1.1.3.1.4.1.2 0 .3 0 .4-.1l4.2-2.1.2 16.1zm1-24.6c-.5 0-1 .4-1 1v5.4l-4.7 2.4-4.7-2.4v-5.4c0-.5-.4-1-1-1s-1 .4-1 1V28h-.1c-.9 0-1.7-.7-1.7-1.6v-9.6c0-2.2 1.7-4.1 3.8-4.4l3.7 6.1c.2.3.5.5.8.5.3 0 .7-.2.8-.5l3.7-6.1c2.2.3 3.8 2.2 3.8 4.4v9.6c0 .9-.7 1.6-1.7 1.6h-.1v-7.9c.4-.6 0-1-.6-1zm10.3 24.6c0 .7-.6 1.3-1.3 1.3h-1.1c-.7 0-1.3-.6-1.3-1.3V32.9c0-.5-.4-1-1-1-.5 0-1 .4-1 1v10.8c0 .7-.6 1.3-1.3 1.3h-1.1c-.7 0-1.3-.6-1.3-1.3V29.9h.1c1 0 1.8-.4 2.5-1l1.7.8c.1.1.3.1.4.1.2 0 .3 0 .4-.1l4.2-2.1.1 16.1zM39.6 28c-.1 0-.1 0 0 0l-.1-7.9c0-.5-.4-1-1-1-.5 0-1 .4-1 1v5.4l-4.7 2.4-1.1-.6c.1-.3.1-.6.1-.9v-9.6c0-1.7-.7-3.3-1.8-4.5h6.6c2.5 0 4.5 2 4.5 4.5v9.6c.1.8-.6 1.6-1.5 1.6z"/></symbol><symbol id="icon-feat-5" viewBox="0 0 185.5 185.5" xml:space="preserve" xmlns="http://www.w3.org/2000/svg"><style>.jst0{fill:#e7391e}</style><path class="jst0" d="M-379.6-371.1h110.9v17.1h-110.9zm0 34.1h110.9v17.1h-110.9zm0 34.2h76.8v17.1h-76.8zm0 34.1h76.8v17.1h-76.8zm-42.7 341.3h512v17.1h-512zm494-421.9l-34.1-68.3c-2.1-4.2-7.2-5.9-11.4-3.8l-68.3 34.1c-4.2 2.1-5.9 7.2-3.8 11.5 2.1 4.2 7.2 5.9 11.5 3.8L15-396.7 1.5-358.2c-59.3 168.9-212 287.4-390.4 302.8l1.5 17.1c185-16 343.5-139 405-314.2l13.8-39.4 25.1 50.2c2.1 4.2 7.2 5.9 11.5 3.8 4.1-2.1 5.8-7.2 3.7-11.4zM-319.9-12.7h-59.7c-4.7 0-8.5 3.8-8.5 8.5V47c0 4.7 3.8 8.5 8.5 8.5h59.7c4.7 0 8.5-3.8 8.5-8.5V-4.2c0-4.7-3.8-8.5-8.5-8.5zm-8.5 51.2h-42.7V4.4h42.7v34.1zM-226-38.3h-59.7c-4.7 0-8.5 3.8-8.5 8.5V47c0 4.7 3.8 8.5 8.5 8.5h59.7c4.7 0 8.5-3.8 8.5-8.5v-76.8c0-4.7-3.8-8.5-8.5-8.5zm-8.6 76.8h-42.7v-59.7h42.7v59.7zM-132.2-81h-59.7c-4.7 0-8.5 3.8-8.5 8.5V47c0 4.7 3.8 8.5 8.5 8.5h59.7c4.7 0 8.5-3.8 8.5-8.5V-72.4c.1-4.8-3.8-8.6-8.5-8.6zm-8.5 119.5h-42.7V-63.9h42.7V38.5z" transform="translate(153.033 153.033) scale(.36237)"/><path class="jst0" d="M-38.3-140.7H-98c-4.7 0-8.5 3.8-8.5 8.5V47c0 4.7 3.8 8.5 8.5 8.5h59.7c4.7 0 8.5-3.8 8.5-8.5v-179.2c0-4.7-3.8-8.5-8.5-8.5zm-8.5 179.2h-42.7v-162.1h42.7V38.5zM55.6-260.2H-4.2c-4.7 0-8.5 3.8-8.5 8.5V47c0 4.7 3.8 8.5 8.5 8.5h59.7c4.7 0 8.5-3.8 8.5-8.5v-298.7c.1-4.7-3.7-8.5-8.4-8.5zM47 38.5H4.4v-281.6H47V38.5z" transform="translate(153.033 153.033) scale(.36237)"/></symbol><symbol viewBox="0 0 512 512" id="icon-team-1" xmlns="http://www.w3.org/2000/svg"><path d="M165.5 335.4c-53.5 0-97.1 43.6-97.1 97.1V512h17.7v-79.4c0-43.8 35.6-79.4 79.4-79.4h44.1v-17.7l-44.1-.1z"/><path d="M289.1 291.3v51.8l-35.3 127.1-35.3-127.1v-51.8h-17.7v53c0 .8.1 1.6.3 2.4l44.1 158.9c1.1 3.8 4.5 6.5 8.5 6.5s7.4-2.6 8.5-6.5l44.1-158.9c.2-.8.3-1.6.3-2.4v-53h-17.5z"/><circle cx="200.8" cy="167.7" r="17.7"/><circle cx="306.8" cy="167.7" r="17.7"/><path d="M282.9 223.3c-9.7 9.7-22.7 15.1-36.4 15.1h-10.3V256h10.3c18.5 0 35.8-7.2 48.9-20.2l-12.5-12.5zM246.3 203l7.4-51.7-17.5-2.5-8.8 61.8c-.4 2.5.4 5.1 2.1 7 1.7 1.9 4.1 3 6.7 3h26.5V203h-16.4z"/><path d="M342.1 132.4V203c0 48.7-39.6 88.3-88.3 88.3s-88.3-39.6-88.3-88.3h-17.7c0 58.4 47.5 105.9 105.9 105.9s106-47.5 106-105.9v-70.6h-17.6zm0 203H298v17.7h44.1c43.8 0 79.4 35.6 79.4 79.4V512h17.7v-79.4c0-53.6-43.6-97.2-97.1-97.2z"/><path d="M386.2 432.6h-70.6c-4.9 0-8.8 3.9-8.8 8.8v35.3c0 4.9 3.9 8.8 8.8 8.8h70.6c4.9 0 8.8-3.9 8.8-8.8v-35.3c0-4.9-3.9-8.8-8.8-8.8zm-8.8 35.3h-53v-17.7h53v17.7zM253.8 26.5c-58.4 0-105.9 47.5-105.9 105.9v79.4h17.7v-79.4c0-48.7 39.6-88.3 88.3-88.3s88.3 39.6 88.3 88.3v53h17.7v-53C359.7 74 312.2 26.5 253.8 26.5z"/><path d="M297.2 75.9c-1.1-2.4-3.2-4.2-5.7-4.9-2.5-.7-5.3-.2-7.4 1.3-84 58.8-127 60.2-127.4 60.2l.1 17.7c1.8 0 45-.7 129-57.6 13.7 25.2 35.2 45.1 61.6 56.8l7.2-16.1c-25.7-11.5-46.1-31.8-57.4-57.4z"/><path d="M420 48.1c-10.6-15.9-23.8-24.4-39.2-25.3-32.6-2-61.9 31.8-63.1 33.3l13.4 11.5c6.8-8 29.1-28.3 48.6-27.1 9.8.6 18.1 6.3 25.6 17.5 26.6 39.9 21.1 158.5 17.8 204.9l-6.1-6.1c-14.2-14.2-22-33-22-53v-97.1c.3-2.8.3-5.7-.1-8.5-1.2-8.5-5.7-16.1-12.6-21.2-6.7-5-14.9-7.2-23.2-6.2h-25.9v17.7h26.5c.4 0 .8 0 1.3-.1 3.8-.5 7.7.4 10.8 2.8 3.1 2.3 5.1 5.7 5.7 9.6.2 1.4.2 2.8 0 4.1-.1.4-.1.8-.1 1.3v97.7c0 24.7 9.6 48 27.1 65.5l19.6 19.6c1.7 1.7 3.9 2.6 6.2 2.6 1 0 2-.2 3-.5 3.2-1.1 5.5-4 5.8-7.4.7-7.7 17.6-180.7-19.1-235.6zm-257.9 86.2c-2.1-1.7-5-2.3-7.6-1.6l-35.3 8.8c-3.9 1-6.7 4.5-6.7 8.6v61.8c0 3.3 1.9 6.4 4.9 7.9l35.3 17.7c1.2.6 2.6.9 3.9.9 1.6 0 3.2-.4 4.6-1.3 2.6-1.6 4.2-4.4 4.2-7.5v-88.3c.1-2.8-1.1-5.3-3.3-7zm-14.2 80.9l-17.7-8.8V157l17.7-4.4v62.6z"/><path d="M147.8 278.1v-57.4h-17.7v61.8c0 2.8 1.3 5.4 3.5 7.1L169 316l10.6-14.1-31.8-23.8zM253.8 0c-73 0-132.4 59.4-132.4 132.4v17.7H139v-17.7c0-63.3 51.5-114.8 114.8-114.8 30.6 0 60.5 12.5 82 34.4l12.6-12.4C323.6 14.5 289.2 0 253.8 0zm134.5 141.5l-35.3-8.8c-2.6-.6-5.4-.1-7.6 1.6-2.1 1.7-3.4 4.2-3.4 7v88.3c0 3.1 1.6 5.9 4.2 7.5 1.4.9 3 1.3 4.6 1.3 1.4 0 2.7-.3 3.9-.9l35.3-17.7c3-1.5 4.9-4.6 4.9-7.9v-61.8c.1-4.1-2.6-7.6-6.6-8.6zm-10.9 64.9l-17.7 8.8v-62.7l17.7 4.4v49.5z"/></symbol><symbol viewBox="0 0 512 512" id="icon-team-2" xmlns="http://www.w3.org/2000/svg"><path d="M290.1 366.9v110.9c0 9.4-7.7 17.1-17.1 17.1H34.1c-9.4 0-17.1-7.7-17.1-17.1V162.1c0-9.4 7.7-17.1 17.1-17.1H128v-17H34.1C15.3 128 0 143.3 0 162.1v315.7C0 496.7 15.3 512 34.1 512H273c18.8 0 34.1-15.3 34.1-34.1v-111h-17zm-17-238.9h-93.9v17.1h93.9c9.4 0 17.1 7.7 17.1 17.1v153.6h17.1V162.1c-.1-18.8-15.4-34.1-34.2-34.1z"/><path d="M256 401.1v59.7H51.2V179.2h34.1v-17.1H42.7c-4.7 0-8.5 3.8-8.5 8.5v298.7c0 4.7 3.8 8.5 8.5 8.5h221.9c4.7 0 8.5-3.8 8.5-8.5V401l-17.1.1zm8.5-239h-42.7v17.1H256v170.7h17.1V170.7c0-4.7-3.8-8.6-8.6-8.6z"/><path d="M238.6 193.9l-17.1-59.7c-1-3.7-4.4-6.2-8.2-6.2h-25.6v-8.5c0-18.8-15.3-34.1-34.1-34.1s-34.1 15.3-34.1 34.1v8.5H93.9c-3.8 0-7.2 2.5-8.2 6.2l-17.1 59.7c-.7 2.6-.2 5.3 1.4 7.5s4.1 3.4 6.8 3.4h153.6c2.7 0 5.2-1.3 6.8-3.4 1.6-2.1 2.1-4.9 1.4-7.5zm-150.5-6.2l12.2-42.7H128c4.7 0 8.5-3.8 8.5-8.5v-17.1c0-9.4 7.7-17.1 17.1-17.1 9.4 0 17.1 7.7 17.1 17.1v17.1c0 4.7 3.8 8.5 8.5 8.5h27.7l12.2 42.7h-131zm31.4 59.8h110.9v17.1H119.5zm-49.48 11.935l25.61-34.164 13.683 10.256L83.7 269.691zM119.5 298.7h110.9v17.1H119.5zm-49.597 11.924l25.612-34.165 13.681 10.257-25.611 34.164zM119.5 349.9h110.9V367H119.5zm0 51.2h85.3v17.1h-85.3zm-49.598-39.282l25.612-34.164 13.681 10.256-25.611 34.164zm-.009 51.196l25.611-34.164 13.682 10.257-25.611 34.164z"/><path d="M503.5 0H230.4c-4.7 0-8.5 3.8-8.5 8.5v128H239V17.1h256v290.1H349.9v17.1h153.6c4.7 0 8.5-3.8 8.5-8.5V8.5c0-4.7-3.8-8.5-8.5-8.5z"/><path d="M230.4 93.9h273.1V111H230.4z"/><path d="M401.1 0h-68.3c-4.7 0-8.5 3.8-8.5 8.5v145.1c0 4.7 3.8 8.5 8.5 8.5h68.3c4.7 0 8.5-3.8 8.5-8.5V8.5c0-4.7-3.8-8.5-8.5-8.5zm-8.6 145.1h-51.2v-128h51.2v128zm68.3 128h17.1v17.1h-17.1zm-34.1 0h17.1v17.1h-17.1zm-36.7 2.5L364.4 250c-3.3-3.3-8.7-3.3-12.1 0L198.8 403.6c-1.6 1.6-2.5 3.8-2.5 6v25.6c0 4.7 3.8 8.5 8.5 8.5h25.6c2.3 0 4.4-.9 6-2.5L390 287.6c3.4-3.3 3.4-8.7 0-12zM226.9 426.7h-13.5v-13.5l145.1-145.1 13.5 13.5-145.1 145.1z"/><path d="M326.78 287.61l12.092-12.092 25.597 25.597-12.091 12.092z"/></symbol><symbol viewBox="0 0 512 512" id="icon-team-3" xmlns="http://www.w3.org/2000/svg"><path d="M68.3 68.3h358.4v17.1H68.3z"/><path d="M435.2 0H76.8c-4.7 0-8.5 3.8-8.5 8.5v315.7c0 4.7 3.8 8.5 8.5 8.5h358.4c4.7 0 8.5-3.8 8.5-8.5V8.5c0-4.7-3.8-8.5-8.5-8.5zm-8.5 315.7H85.3V17.1h341.3l.1 298.6z"/><path d="M298.7 0h-85.3c-4.7 0-8.5 3.8-8.5 8.5V128c0 4.7 3.8 8.5 8.5 8.5h85.3c4.7 0 8.5-3.8 8.5-8.5V8.5c0-4.7-3.8-8.5-8.5-8.5zm-8.6 119.5h-68.3V17.1h68.3v102.4zM59.7 384H0v17.1h51.2V495H0v17h59.7c4.7 0 8.5-3.8 8.5-8.5v-111c.1-4.7-3.8-8.5-8.5-8.5z"/><path d="M483.1 375.5c-4.8 0-9.6 1.2-13.9 3.5l-104.4 56.2H226.1c-7.1 0-12.8-5.7-12.8-12.8s5.7-12.8 12.8-12.8h72.5c28.2 0 51.2-23 51.2-51.2 0-4.7-3.8-8.5-8.5-8.5H128.7c-7.2 0-14.9 1.9-21.3 5.7l-51.9 29.6L64 400l51.9-29.6c3.9-2.2 8.2-3.3 12.8-3.4h203c-3.8 14.7-17.2 25.6-33 25.6h-72.5c-16.5 0-29.9 13.4-29.9 29.9s13.4 29.9 29.9 29.9H367c1.4 0 2.8-.4 4-1L477.3 394c1.8-1 3.8-1.5 5.8-1.5 6.5 0 11.9 5.3 11.9 11.9v2.4c0 4-2.1 7.7-5.6 9.9l-124.9 78.2H59.7V512h307.2c1.6 0 3.2-.5 4.5-1.3l126.9-79.5c8.4-5.2 13.5-14.3 13.6-24.3v-2.5c.1-16-12.9-28.9-28.8-28.9zm-90.6-93.9h17.1v17.1h-17.1zm-34.1 0h17.1v17.1h-17.1zm-34.1 0h17.1v17.1h-17.1z"/></symbol><symbol viewBox="0 0 270.4 98.1" id="iconSheer"><path d="M175.1 51.8c.2 1.2.3 2.1.5 3 2 8.4 8.6 14 17.2 14.7 7.6.6 13.6-2.3 18-8.5 2.2-3 5.7-3.5 8.5-1.1 1.6 1.4 1.8 3.2.5 4.9-.7.9-1.4 1.8-2.1 2.8-2.9 4-6.7 6.7-11.4 8.3-7.6 2.6-15.2 3-22.7.2-10.1-3.7-16.1-11.1-17.8-21.7-1-6.5-.4-13 2.6-18.9 4.3-8.4 11.1-13.6 20.5-15.1 6.2-1 12.4-.4 18.2 2.4 8.2 3.9 13.2 10.5 15.1 19.3.5 2.4.7 4.9.9 7.3.2 1.5-.5 2.2-2.1 2.3h-44.1c-.4.1-.9.1-1.8.1zm38.3-9.2c-1.2-7.9-10.7-14.7-19.4-14.2-9.1.5-18.2 7.5-18.5 14.2h37.9zm-101 9c.1.8.2 1.4.3 2 1.7 9.3 9.3 15.7 18.7 15.9 7.1.1 12.7-2.8 16.8-8.6 2.2-3.1 6.1-3.4 8.8-.7 1.3 1.4 1.5 3 .3 4.6-.5.8-1.1 1.5-1.7 2.2-3.1 4.5-7.3 7.4-12.5 9.1-7.6 2.5-15.2 2.7-22.5-.2-10.6-4.1-16.4-12.1-17.6-23.3-.6-5.4-.1-10.7 2.2-15.6 4.3-9.4 11.4-15.2 21.8-16.6 5.5-.7 11-.3 16.1 1.8 9.2 3.8 14.6 10.9 16.6 20.6.4 2.2.6 4.5.7 6.7.1 1.8-.3 2.2-2.2 2.2h-43.5c-.7-.1-1.4-.1-2.3-.1zm38.4-9.1c-1.2-7.8-10.4-14.4-19.4-14.2-8.8.2-17.9 7.2-18.6 14.2h38zm101 13.5c.7.6 1.1 1 1.5 1.4 4.9 4.2 9.8 8.3 14.6 12.5.3.3.7.6 1 .9 1.8 1.8 2 4.4.3 6.2-1.6 1.8-4.2 2.1-6.1.5-3.4-2.8-6.7-5.7-10-8.5-4.8-4.1-9.5-8.1-14.3-12.2-.4-.4-.9-.7-1.6-1.3 0 1-.1 1.6-.1 2.3v36.1c-.2 2.5-2.1 4.3-4.6 4.2-2.4-.1-4.1-1.9-4.2-4.4V21.9c0-1.6.2-1.9 1.7-1.9 2.1-.1 4.2-.1 6.2-.1 5 0 10.1.2 15.1-.1 8.4-.4 17.8 6.4 18.7 16.3.8 8.9-5.2 17.3-14.3 19.1-1.1.2-2.3.5-3.9.8zm-15.3-6.9c.5.1.9.1 1.2.1h12.6c1.2 0 2.4-.1 3.6-.5 3.9-1.2 7-3.5 8-7.7 1.7-7.1-3.6-13.7-10.9-13.7h-13c-.5 0-1 .1-1.5.1v21.7zM88.5 52H63.9c0 .7-.1 1.4-.1 2v18.9c0 .8 0 1.6-.2 2.3-.6 1.9-2.6 3.1-4.5 3-2.1-.2-3.8-1.8-4.1-3.9-.1-.5 0-1 0-1.5V5.4c0-.9.1-1.8.4-2.6.6-2 2.6-3 4.7-2.8 1.9.3 3.5 2 3.7 3.9.1.6 0 1.2 0 1.8v34.7c0 .7.1 1.4.1 2 1.5.4 22.9.4 24.5 0 0-.5.1-1.1.1-1.7V23.9c.2-2.3 1.9-4 4.2-4.1 2.3-.1 4.3 1.6 4.6 3.9.1.5 0 1 0 1.5v48.9c-.3 2.3-2.3 4.1-4.5 4-2.3-.1-4.1-1.9-4.3-4.2V52zM25 78.3c-5.9-.1-11.4-1.4-16.5-4.4-2.2-1.3-4.2-2.9-5.8-4.8-.8-1-1.6-2.1-2.2-3.3-1-1.9-.6-3.4.9-4.9 1.7-1.6 4.1-2.3 6.4-.7C9 61 10 62 10.9 63c.9.9 1.6 1.9 2.5 2.8 2.7 2.7 6 4.2 9.8 4.6 3.5.4 7 .3 10.4-.9 1.4-.5 2.8-1.2 4-2.1 2.9-2.2 3-5.9.2-8.2-1.3-1.1-2.9-1.9-4.5-2.6-4-1.7-8.1-2.9-12.3-4-3.4-.8-6.7-1.9-10.1-2.9-1.3-.4-2.5-1.1-3.7-1.7-3.2-1.7-5-4.4-5.5-7.9-1-7.1 1.7-12.8 8.1-15.9 9.8-4.8 19.7-5.2 29.4.4 1.8 1 3.5 2.5 5.1 3.9 1.2 1 2 2.5 2.5 4 .8 2.6-.5 3.9-2.8 4.4-2 .4-3.8-.2-5.2-1.7-.3-.3-.5-.6-.7-.9-2.3-3.4-5.6-5.3-9.6-6.1-4-.7-8-.6-11.8.9-1.4.5-2.8 1.3-3.9 2.3-2.7 2.3-2.7 5.4-.1 7.8 1.7 1.6 3.7 2.5 5.9 3 4.8 1.2 9.7 2.4 14.5 3.6 3.1.8 6.1 1.8 8.9 3.4 3.6 1.9 6.2 4.7 7.1 8.8 1.1 5 0 9.4-3.9 13-4.4 4-9.5 6.3-15.4 7-1.7.1-3.3.2-4.8.3z"/></symbol><symbol viewBox="0 0 144 20" id="lines" xmlns="http://www.w3.org/2000/svg"><path fill-rule="evenodd" fill="#FFF" d="M0 19.017V20h124.702v-.983H0zm124.35-.348l.705.695L144.01.686l-.706-.696-18.954 18.679z"/></symbol><symbol id="logo--footer" viewBox="0 0 960 180.9" xml:space="preserve" xmlns="http://www.w3.org/2000/svg"><style>.pst0{fill-rule:evenodd;clip-rule:evenodd}.pst0,.pst1{fill:#fff}</style><path class="pst0" d="M671.3 85.4h253.3c-.4-6.5-7.2-12.6-11.8-16.4-9.1-7.7-27.4-26.3-35.6-36.5-5.4-6.7-13.7-19.1-24.9-17.9-7.1.7-14 7.2-18.7 10.5-11.1 7.9-14.8 2.9-22.2 7-7.1 4-7.4 9-19 10.2-13.5 1.4-42 5-53.2 2.2-19.7-5-53.6-40.2-81.9-9.8-5.6 6-9.4 9.7-14.2 15.1l-6.9 6.9c.3 3.5-1.4 6-2.3 9.3-.1.5 0 1.1.3 1.8 7.6 0 18.8-.1 23.7 3.5l.3.3.3.3c1.6 1.6 2.7 3.4 3.6 5.4.2.5.6 1.5.9 2.1.5.2 1.5.3 1.9.3l2.4.2 1.5 1.9c1.1 1.3 1.9 2.4 2.5 3.6zM0 125.1c79-2.7 158-6.2 237.8-7.7 157.3-3.1 327.4-4.2 484.5.3 79.3 2.2 158.5 5.1 237.7 7.5V105H0v20.1zm41.4-40.3l171.1.3v-.4c.1-4.1.1-8.2.1-12.3 0-5 .1-10.7.9-15.6.5-3 1.2-5.2 3.3-7.2.1-1 .1-2.4.1-3.1 0-4-.3-8-.5-11.9l-.1-.8c-11-1.6-29.5-7.3-48.3-8.5-14.4-.9-45.7-3.1-56.5 3.6-9 5.6-6.5 12.9-34.4 28.6-6.9 3.9-13.8 7.2-20.2 11.3-5 3.4-14 10.1-15.5 16z"/><path class="pst0" d="M526.1 40.7c-3 2-1.8 2.9-4.8 4.3-2.1 1-4.6 1-6.7 2.2l1 1.2c4 6.4 1.1 2.2 4.5 5.3 3.1 2.9 3.2 14.7-2.6 17.5-5 2.4-3.3.9-5.1 6.1-4.7.3-18.1-5.5-8.4 11.5 6 .9 12.6 7.7 17.1-.4 5.8.2 6.7 3.1 12.9 2.5 7.4-.8 4.1-3.4 10.8 1 4.5 3 7.3 1.8 12.6 1.2 8-.8 7.5 1.6 12.6 1.9 2.2.1 4-.5 6.7-.4 6.1.3 7.4 3.4 17.1-2.6 14.6-9 13.3-.9 23.4-1.9 3-1.9 2.5-2.8 6-4.8 6.3 2 11.5 9.2 21.4 8 4.8-.6 7.4-3.5 12.2-2.5 6.7 1.4 3.9 4.1 10.1-.6-.4-2.4-1.2-3.3-2.4-4.9-8.4-.7-5.6-5.1-9.9-9.5-3.8-2.8-18-2.3-23.9-2.4-1.3-2.6-3.1-5.6-2.1-8.9 1.3-4.8 5.2-9.5-3-12.1-2.6.9-3.9 2.8-6.7 2.9-12.5.4-6.6-4.6-13.1 7.3-1.4 2.5-3 5.5-4.9 7.9-3.8-1.3 0-1-4.9-2.1-1.6-.4-.4.8-1.7-.5-1.2-1.7-1.8-5.3-1.4-7.7.6-4.3 2-2.3 4.4-5.4-1.5-7.6-5.8-5.9-11.5-8-2.5-9.3 3.6-3.2 2.4-9.9-.6-3.4-12.7-10-18-6.2-1.3.9-2.1 2.5-3.2 3.5-2.5 2.3-2.6.6-4.5 3.2-1.7 5.5 0 5.8 1.2 9.8l-2.4.9c-.6.2-1.8.4-2.5.5-8.6 1.8-6.6 3.6-8.6 8.6 0 .1-.1.4-.3.5-11-5-5.2-7.2-11.5-6.1.9 2.5 1.3.9 2.5 3-2.6 1.6-13.3 1-14.8-13.9z"/><path class="pst0" d="M422 44.6c3.9-.2 7.3-.8 11.3-1.3 3-.4 6.9-1.2 9.8-.6 2.2.4 1.3.3 2 .6l.4-.2c4.6 0 10.8.2 14.2 2 9.4.6 18.9.1 28.5.6 8.8.4 17.6 3.9 26.3 1.5 2.1-1.2 4.6-1.2 6.7-2.2 3.1-1.4 1.8-2.4 4.8-4.3 2.7-2.2 3.1-.3 5.3-3.8-6.8-7.3-25.3-3.2-46.5-24.6-5.8-5.9-8.3-3.4-9.9 3.7-5.3 1.1-11 2.7-16.3 4-7.2 1.8-23.4 7.3-29.9 10.6-8.5 4.4-11.1 2.6-13.4 7.6 1.7 2.9 3 5.3 6.7 6.4zM248.9 85.3h4.6c10.3.1 3.4 6.3 15.8 1.1 1.6-.7 3.3-.9 5.1-.9l-.2-5.2 1.7-.1c.2-1 .5-2 1.1-3 .2-.3.4-.5.6-.8-1.2-3.6-1.4-7.6-.5-11.3 1.3-5 4.4-8.6 8.7-10.9l-.1-1.4c-1.5-1.2-2.6-2.6-3.5-4.2-.9-.3-1.8-.6-2.8-.9-4.7-1.3-9.9-2.3-14.6-3.4-7.8-1.7-15.6-4-23.5-5.8l-.6 1.3c-.4.8-.8 1.7-.7 2.5.1.6.3 1.3.5 1.9.4 1.3.9 2.6 1.2 3.9 1.3 5 1.1 8.9 1.4 13.9.1 2 .1 2.9 1.2 4.3 1.3 1.7 2 3.3 2.4 5.5.6 3.1.5 6.1 1 9.1.1.8.3 1.6.6 2.3l.5 1.3.1.8zm-26.8-51c1.8 26.9-1.3 14.1-2.9 23.6-1.2 6.9-.7 19.3-.9 27.2-.1 1.3-.5 4 3.9 3.4 4.5.9 7.3-.1 11.7.3 5.1.4 9.1-.2 9.5-3.5-1.6-4-1.1-8.2-1.9-12.4-.8-4.3-3.2-2.8-3.7-10.5-.3-5.1 0-8.1-1.3-12.8-1.3-5.1-3.2-7.1-.7-12.3-1.7-5.9-4.9 4.4-3.3-13.2 1.2-12.9-1-12.3-3.1-14.9.6-4.7 3-5 .3-9h-3.8c-5.2 5.2-2.5 8.5-1.8 15.9.6 6.4.3 12.6-2 18.2zm138.5 36l18.7.8c5.6-2.9 4-2.8 12.1-2.8h15.8c18 0 18.7-2.1 25.5 5.7l5.2.4c-1-5.8-12.1-13.4-16.5-18.3-3.5-1-4-1.8-6.2-4.1-3.2-3.3-3-2.2-7.9-1.7-6.8.8-15.5-.4-22.6-.1-7.9.3-9.6 4-14.8 6.9-4.4 2.5-11 4.3-14.2 8.1.3 5.4.5 3.8 4.9 5.1z"/><path class="pst0" d="M422 44.6l5.6 1c1.2 2.4 2.1 3.4.8 6.4-2.4.9-2.1.3-4.7 0l-2.3 4.2c4.5 4.9 15.5 12.5 16.5 18.3l-5.2-.4c3 8.8-.9 9.8-.6 14.9 1.8 4 2.7 4.8 7.2 3.2 7.8-2.9 2.9-.6 8.4.9l2.7-4.5c1.2-7.4 1.3-6.4-1.8-12.2-2.8-5.3 2.6-5.8 2.7-10.4l-4.2-10.5c-4.5-5.6-3.6-1.7-4.2-11.2 1.2-1.2-1.9-1.2 2.3-.9-.6-.3.3-.2-2-.6-3-.6-6.9.2-9.8.6-4.1.4-7.5 1-11.4 1.2zM315.4 64.5c-3.8-1.5-7.5-3.7-11-5.4l-.4.4.4 2.8c.4 1.7.8 3.4 1.3 5 .3 1 .6 1.9.8 2.9.5-.2.9-.3 1.4-.4.2-.4.3-.9.4-1.2l1.5-4.3 5.3.7.3-.5zm155.3 14.6l9.9-.1V53.9l-10.3.2.4 25z"/><path class="pst0" d="M459.8 45.1c-3.4-1.7-9.6-2-14.2-2 1.3 3.5 1.1 5.6 2 9.5 1 4.3 2.3 3.7 5 6.1.3 4.2 0 6.4 1.7 9.4 3.5-.8 3.7-2.6 5.7-5.7 2.6-4 4.4-2.7 5.6-5.5-3-1.8-2.6-.6-6.3-4-.2-.2-.7-.6-.8-.8-1-.9-.4-.3-1.2-1.3l2.5-5.7zm26.6 5.5l.1 27.5 7.2-.1-.3-27.2-7-.2zM500.5 71h8.1l-.4-18.2-7.9.1.2 18.1zM386.6 85.4l6.5.1-.4-11.1-6.1.3v10.7zm37.6-9.8l-3.6.2-.4 6.6h4.3l-.3-6.8z"/><path class="pst1" d="M69.7 179.1c0 .2-.1.4-.2.6-.1.2-.3.3-.6.4-.3.1-.7.2-1.3.2-.5.1-1.2.1-2 .1-.9 0-1.6 0-2.1-.1s-1-.1-1.3-.2c-.3-.1-.6-.3-.7-.5-.2-.2-.3-.4-.4-.7l-3.1-8.7c-.4-1.3-.9-2.3-1.4-3.2-.5-.9-1-1.6-1.6-2.1-.6-.5-1.2-.9-2-1.1-.8-.2-1.6-.3-2.5-.3h-1.8v15.7c0 .2-.1.4-.2.6-.1.2-.3.3-.6.4-.3.1-.7.2-1.2.2-.5.1-1.1.1-1.9.1-.8 0-1.4 0-1.9-.1s-.9-.1-1.2-.2c-.3-.1-.5-.2-.6-.4-.1-.2-.2-.3-.2-.6v-37c0-.2.1-.4.2-.6.1-.2.4-.3.6-.4.3-.1.7-.2 1.2-.2.5-.1 1.2-.1 1.9-.1.8 0 1.4 0 1.9.1s.9.1 1.2.2c.3.1.5.2.6.4.1.1.2.3.2.6v14.7h1.8c.9 0 1.7-.1 2.4-.4.7-.2 1.3-.6 1.9-1.1.6-.5 1.1-1.2 1.5-2 .5-.8.9-1.9 1.3-3.1l2.6-7.8c.1-.3.2-.5.4-.7.1-.2.4-.4.7-.5.3-.1.7-.2 1.2-.2.5-.1 1.2-.1 2.1-.1.8 0 1.4 0 1.9.1s.9.1 1.2.2c.3.1.5.2.6.4.1.2.2.3.2.6s0 .6-.1 1-.2.9-.5 1.5l-2.6 6.9c-.5 1.3-1 2.4-1.5 3.3-.5.9-1 1.7-1.5 2.3-.5.6-1.1 1.2-1.7 1.6-.6.4-1.2.7-2 1 .8.4 1.5.7 2.2 1.2.7.4 1.3 1 1.9 1.6.6.7 1.1 1.5 1.6 2.5s1.1 2.2 1.6 3.6l3.2 8.1c.3.8.5 1.4.6 1.7-.1.1 0 .3 0 .5zm32.6-26.1c0 2.2-.3 4.1-1 5.8-.7 1.7-1.7 3.1-3 4.3-1.3 1.2-2.9 2-4.8 2.6-1.9.6-4.2.9-6.7.9h-3.3v12.5c0 .2-.1.4-.2.5-.1.2-.4.3-.6.4-.3.1-.7.2-1.2.2-.5.1-1.1.1-1.9.1-.8 0-1.4 0-1.9-.1s-.9-.1-1.2-.2c-.3-.1-.5-.2-.6-.4-.1-.2-.2-.4-.2-.5v-35.2c0-.9.2-1.7.7-2.1.5-.5 1.1-.7 1.9-.7h9.2c.9 0 1.8 0 2.6.1s1.8.2 3 .5c1.2.2 2.4.7 3.5 1.3 1.2.6 2.2 1.4 3.1 2.4.8 1 1.5 2.1 1.9 3.4.5 1.1.7 2.6.7 4.2zm-8.3.5c0-1.4-.2-2.5-.7-3.4-.5-.9-1.1-1.5-1.8-2-.7-.4-1.5-.7-2.2-.8-.8-.1-1.6-.2-2.4-.2h-3.4v13.3H87c1.3 0 2.3-.2 3.2-.5.9-.3 1.6-.8 2.1-1.4.5-.6 1-1.3 1.2-2.2.4-.8.5-1.7.5-2.8zm55.3 25.7c0 .2-.1.4-.2.5-.1.2-.4.3-.6.4-.3.1-.7.2-1.2.2-.5.1-1.2.1-1.9.1-.8 0-1.4 0-1.9-.1s-.9-.1-1.2-.2c-.3-.1-.5-.2-.7-.4-.1-.2-.2-.3-.2-.5v-37c0-.2.1-.4.2-.5.1-.2.4-.3.7-.4.3-.1.7-.2 1.2-.2.5-.1 1.1-.1 1.9-.1.8 0 1.4 0 1.9.1s.9.1 1.2.2c.3.1.5.2.6.4.1.2.2.3.2.5v37zm-12.7-11.9c0 1.9-.3 3.5-.9 5.1-.6 1.5-1.5 2.9-2.7 4-1.2 1.1-2.8 2.1-4.8 2.7-2 .7-4.7 1-8.1 1h-9.2c-.3 0-.7 0-.9-.1-.3-.1-.5-.2-.8-.5-.2-.2-.4-.5-.5-.8-.1-.3-.2-.7-.2-1.1V142c0-.2.1-.4.2-.5.1-.2.4-.3.7-.4.3-.1.7-.2 1.2-.2.5-.1 1.1-.1 1.9-.1.8 0 1.4 0 1.9.1s.9.1 1.2.2c.3.1.5.2.6.4.1.2.2.3.2.5v13.5h4.9c2.9 0 5.3.2 7 .8 1.7.5 3.2 1.2 4.4 2.2 1.2 1 2.2 2.2 2.8 3.7.8 1.6 1.1 3.2 1.1 5.1zm-8.2.6c0-1-.1-1.8-.4-2.6-.3-.8-.7-1.4-1.3-2-.6-.5-1.3-1-2.2-1.3-.9-.3-2.2-.5-4-.5h-4.1v12.4h4.2c1.8 0 3.2-.2 4.2-.6.9-.4 1.7-.9 2.2-1.4.5-.6.9-1.2 1.1-2 .2-.5.3-1.3.3-2zm75 11.2c0 .2-.1.4-.2.5-.1.2-.3.3-.6.4-.3.1-.7.2-1.2.2-.5.1-1.1.1-1.8.1s-1.3 0-1.8-.1-.9-.1-1.2-.2c-.3-.1-.5-.2-.6-.4-.1-.2-.2-.4-.2-.5v-31.8h-.1l-11.3 31.8c-.1.3-.2.5-.4.6-.2.2-.4.3-.7.4-.3.1-.7.2-1.2.2h-1.8c-.7 0-1.3 0-1.8-.1s-.9-.1-1.2-.2c-.3-.1-.6-.2-.7-.4-.2-.2-.3-.4-.4-.6l-10.9-31.8h-.1V179c0 .2-.1.4-.2.5-.1.2-.3.3-.6.4-.3.1-.7.2-1.2.2-.5.1-1.1.1-1.8.1s-1.3 0-1.8-.1-.9-.1-1.2-.2c-.3-.1-.5-.2-.6-.4-.1-.2-.2-.4-.2-.5v-34.8c0-1 .3-1.8.8-2.4.5-.5 1.3-.8 2.2-.8h5.2c.9 0 1.7.1 2.4.2.7.2 1.2.4 1.7.8s.9.8 1.2 1.4c.3.6.6 1.3.8 2.1l8.4 23.3h.1l8.7-23.2c.3-.8.5-1.6.9-2.1.3-.6.7-1.1 1.1-1.4.4-.4.9-.6 1.5-.8.6-.2 1.2-.2 2-.2h5.4c.5 0 1 .1 1.4.2.4.1.7.3 1 .6.3.3.4.6.6 1 .1.4.2.8.2 1.4v34.8h.2zm35.5-4.8v1.3c0 .4-.1.7-.1.9-.1.3-.1.5-.2.7-.1.2-.3.4-.5.6-.2.2-.6.5-1.3.9-.6.4-1.4.7-2.3 1-.9.3-2 .6-3.1.8-1.2.2-2.5.3-3.8.3-2.7 0-5.1-.4-7.2-1.2-2.2-.8-4-2.1-5.5-3.7s-2.7-3.7-3.5-6.1c-.8-2.5-1.2-5.3-1.2-8.6s.4-6.3 1.3-8.8c.9-2.6 2.1-4.7 3.7-6.5 1.6-1.8 3.5-3.1 5.7-4 2.2-.9 4.7-1.4 7.3-1.4 1.1 0 2.1.1 3.1.3 1 .2 1.9.4 2.8.7.9.3 1.6.6 2.3 1 .7.4 1.2.7 1.4 1 .3.3.5.5.6.7.1.2.2.4.2.7.1.3.1.6.1 1v1.4c0 .6 0 1.1-.1 1.5 0 .4-.1.8-.2 1-.1.3-.2.5-.4.6-.1.1-.3.2-.5.2-.3 0-.7-.2-1.1-.5-.5-.4-1.1-.7-1.8-1.2-.7-.4-1.6-.8-2.6-1.2-1-.4-2.2-.5-3.6-.5-1.5 0-2.9.3-4.1.9-1.2.6-2.2 1.5-3.1 2.7-.9 1.2-1.5 2.6-1.9 4.3-.4 1.7-.7 3.5-.7 5.6 0 2.3.2 4.3.7 6 .5 1.7 1.1 3.1 2 4.1.9 1.1 1.9 1.9 3.2 2.4 1.2.5 2.6.8 4.2.8 1.4 0 2.6-.2 3.6-.5s1.9-.7 2.6-1.1c.7-.4 1.3-.8 1.8-1.1.5-.3.8-.5 1.1-.5.2 0 .4 0 .5.1.1.1.2.2.3.5.1.2.1.6.2 1 .1.6.1 1.1.1 1.9zm34.7 4.8c0 .2-.1.4-.2.6-.1.2-.3.3-.6.4-.3.1-.7.2-1.3.2-.5.1-1.2.1-2 .1-.9 0-1.6 0-2.1-.1s-1-.1-1.3-.2c-.3-.1-.6-.3-.7-.5-.2-.2-.3-.4-.4-.7l-3.1-8.7c-.4-1.3-.9-2.3-1.4-3.2-.5-.9-1-1.6-1.6-2.1-.6-.5-1.2-.9-2-1.1-.8-.2-1.6-.3-2.5-.3h-1.8v15.7c0 .2-.1.4-.2.6-.1.2-.3.3-.6.4-.3.1-.7.2-1.2.2-.5.1-1.1.1-1.9.1-.8 0-1.4 0-1.9-.1s-.9-.1-1.2-.2c-.3-.1-.5-.2-.6-.4-.1-.2-.2-.3-.2-.6v-37c0-.2.1-.4.2-.6.1-.2.4-.3.6-.4.3-.1.7-.2 1.2-.2.5-.1 1.2-.1 1.9-.1.8 0 1.4 0 1.9.1s.9.1 1.2.2c.3.1.5.2.6.4.1.1.2.3.2.6v14.7h1.8c.9 0 1.7-.1 2.4-.4.7-.2 1.3-.6 1.9-1.1.6-.5 1.1-1.2 1.5-2 .5-.8.9-1.9 1.3-3.1l2.6-7.8c.1-.3.2-.5.4-.7.1-.2.4-.4.7-.5.3-.1.7-.2 1.2-.2.5-.1 1.2-.1 2.1-.1.8 0 1.4 0 1.9.1s.9.1 1.2.2c.3.1.5.2.6.4.1.2.2.3.2.6s0 .6-.1 1-.2.9-.5 1.5l-2.6 6.9c-.5 1.3-1 2.4-1.5 3.3-.5.9-1 1.7-1.5 2.3-.5.6-1.1 1.2-1.7 1.6-.6.4-1.2.7-2 1 .8.4 1.5.7 2.2 1.2.7.4 1.3 1 1.9 1.6.6.7 1.1 1.5 1.7 2.5.5 1 1.1 2.2 1.6 3.6l3.2 8.1c.3.8.5 1.4.6 1.7-.2.1-.1.3-.1.5zm37.9-1.9c.2.7.4 1.3.5 1.7.1.4 0 .7-.2 1-.2.2-.6.3-1.2.4-.6.1-1.3.1-2.3.1h-2.4c-.6 0-1-.1-1.3-.2-.3-.1-.5-.2-.6-.4l-.3-.6-2.6-7.9h-14.7l-2.5 7.6c-.1.3-.2.5-.3.7-.1.2-.3.3-.6.5-.3.1-.7.2-1.2.2s-1.2.1-2.1.1c-.9 0-1.6 0-2.2-.1-.5-.1-.9-.2-1.1-.4-.2-.2-.3-.6-.2-1 .1-.4.2-1 .5-1.7l12-34.7c.1-.3.3-.6.4-.8.2-.2.4-.4.8-.5.4-.1.8-.2 1.5-.2h5.3c.7 0 1.3.1 1.6.2s.7.3.8.5c.2.2.3.5.4.9l12 34.6zm-18-28.7l-5.5 16.6h11l-5.5-16.6zm50.4 30.7c0 .2-.1.4-.2.5-.1.2-.3.3-.6.4-.3.1-.7.2-1.2.2-.5.1-1.2.1-1.9.1-.8 0-1.4 0-1.9-.1s-.9-.1-1.2-.2c-.3-.1-.5-.2-.7-.4-.1-.2-.2-.3-.2-.5v-14.6h-3c-1.2 0-2.1.1-2.8.4-.6.2-1.2.6-1.7 1.1-.5.5-.9 1.1-1.3 1.9-.4.8-.8 1.6-1.1 2.7l-3 8.5c-.1.2-.2.4-.4.6-.2.2-.4.3-.7.4-.3.1-.8.2-1.3.2s-1.2.1-2.1.1c-.9 0-1.6 0-2.2-.1-.5-.1-.9-.1-1.2-.3-.3-.1-.5-.2-.5-.4-.1-.1-.1-.3-.1-.5s0-.5.1-.7c.1-.3.2-.7.4-1.3l2.9-7.7c.4-1 .8-1.9 1.2-2.6.4-.7.8-1.4 1.3-2 .5-.6 1-1.1 1.6-1.5.6-.4 1.2-.7 1.8-1-1.2-.3-2.3-.8-3.3-1.3-1-.6-1.8-1.2-2.4-2-.6-.8-1.1-1.7-1.5-2.8-.3-1-.5-2.2-.5-3.5 0-1.8.3-3.4.9-4.8.6-1.4 1.5-2.7 2.7-3.7 1.2-1 2.7-1.8 4.5-2.3 1.8-.6 4.3-.8 7.5-.8h9.6c.6 0 1.2.2 1.6.6.5.4.7 1 .7 1.9v35.5h.2zm-7.9-32h-4.1c-1.7 0-3 .1-3.9.4-.8.3-1.5.6-2.1 1.1-.5.5-.9 1.1-1.2 1.8-.2.7-.4 1.5-.4 2.3 0 .8.1 1.6.4 2.3.3.7.7 1.3 1.2 1.8s1.2.9 2.1 1.2c.9.3 2.1.4 3.6.4h4.2v-11.3h.2zm57.5 27.1v1.3c0 .4-.1.7-.1.9-.1.3-.1.5-.2.7-.1.2-.3.4-.5.6-.2.2-.7.5-1.3.9-.6.4-1.4.7-2.3 1-.9.3-2 .6-3.1.8-1.2.2-2.5.3-3.8.3-2.7 0-5.1-.4-7.2-1.2-2.2-.8-4-2.1-5.5-3.7s-2.7-3.7-3.5-6.1c-.8-2.5-1.2-5.3-1.2-8.6s.4-6.3 1.3-8.8c.9-2.6 2.1-4.7 3.7-6.5 1.6-1.8 3.5-3.1 5.7-4 2.2-.9 4.7-1.4 7.3-1.4 1.1 0 2.1.1 3.1.3 1 .2 1.9.4 2.8.7.9.3 1.6.6 2.3 1 .7.4 1.2.7 1.4 1 .3.3.5.5.6.7.1.2.2.4.2.7.1.3.1.6.1 1v1.4c0 .6 0 1.1-.1 1.5 0 .4-.1.8-.2 1-.1.3-.2.5-.4.6-.1.1-.3.2-.5.2-.3 0-.7-.2-1.1-.5-.5-.4-1.1-.7-1.8-1.2-.7-.4-1.6-.8-2.6-1.2-1-.4-2.2-.5-3.6-.5-1.5 0-2.9.3-4.1.9-1.2.6-2.2 1.5-3.1 2.7-.9 1.2-1.5 2.6-1.9 4.3-.4 1.7-.7 3.5-.7 5.6 0 2.3.2 4.3.7 6 .5 1.7 1.1 3.1 2 4.1.9 1.1 1.9 1.9 3.2 2.4 1.2.5 2.6.8 4.2.8 1.4 0 2.6-.2 3.6-.5s1.9-.7 2.6-1.1c.7-.4 1.3-.8 1.8-1.1.5-.3.8-.5 1.1-.5.2 0 .4 0 .5.1.1.1.2.2.3.5.1.2.1.6.2 1 0 .6.1 1.1.1 1.9zm46.6 4.9c0 .2-.1.4-.2.5-.1.2-.4.3-.6.4-.3.1-.7.2-1.2.2-.5.1-1.2.1-1.9.1-.8 0-1.4 0-1.9-.1s-.9-.1-1.2-.2c-.3-.1-.5-.2-.7-.4-.1-.2-.2-.3-.2-.5v-37c0-.2.1-.4.2-.5.1-.2.4-.3.7-.4.3-.1.7-.2 1.2-.2.5-.1 1.1-.1 1.9-.1.8 0 1.4 0 1.9.1s.9.1 1.2.2c.3.1.5.2.6.4.1.2.2.3.2.5v37zm-12.8-11.9c0 1.9-.3 3.5-.9 5.1-.6 1.5-1.5 2.9-2.7 4-1.2 1.1-2.8 2.1-4.8 2.7-2 .7-4.7 1-8.1 1h-9.2c-.3 0-.7 0-.9-.1-.3-.1-.5-.2-.8-.5-.2-.2-.4-.5-.5-.8-.1-.3-.2-.7-.2-1.1V142c0-.2.1-.4.2-.5.1-.2.4-.3.7-.4.3-.1.7-.2 1.2-.2.5-.1 1.1-.1 1.9-.1.8 0 1.4 0 1.9.1s.9.1 1.2.2c.3.1.5.2.6.4.1.2.2.3.2.5v13.5h4.9c2.9 0 5.3.2 7 .8 1.7.5 3.2 1.2 4.4 2.2 1.2 1 2.2 2.2 2.8 3.7.8 1.6 1.1 3.2 1.1 5.1zm-8.2.6c0-1-.1-1.8-.4-2.6-.3-.8-.7-1.4-1.3-2-.6-.5-1.3-1-2.2-1.3-.9-.3-2.2-.5-4-.5h-4.1v12.4h4.2c1.8 0 3.2-.2 4.2-.6.9-.4 1.7-.9 2.2-1.4.5-.6.9-1.2 1.1-2 .2-.5.3-1.3.3-2zm56.2-14.9c0 2.2-.3 4.1-1 5.8-.7 1.7-1.7 3.1-3 4.3-1.3 1.2-2.9 2-4.8 2.6-1.9.6-4.2.9-6.7.9h-3.3v12.5c0 .2-.1.4-.2.5-.1.2-.4.3-.6.4-.3.1-.7.2-1.2.2-.5.1-1.1.1-1.9.1-.8 0-1.4 0-1.9-.1s-.9-.1-1.2-.2c-.3-.1-.5-.2-.6-.4-.1-.2-.2-.4-.2-.5v-35.2c0-.9.2-1.7.7-2.1.5-.5 1.1-.7 1.9-.7h9.2c.9 0 1.8 0 2.6.1s1.8.2 3 .5c1.2.2 2.4.7 3.5 1.3 1.2.6 2.2 1.4 3.1 2.4.8 1 1.5 2.1 1.9 3.4.5 1.1.7 2.6.7 4.2zm-8.3.5c0-1.4-.2-2.5-.7-3.4-.5-.9-1.1-1.5-1.8-2-.7-.4-1.5-.7-2.2-.8-.8-.1-1.6-.2-2.4-.2h-3.4v13.3h3.6c1.3 0 2.3-.2 3.2-.5.9-.3 1.6-.8 2.1-1.4.5-.6 1-1.3 1.2-2.2.3-.8.4-1.7.4-2.8zm45 25.6c0 .2-.1.4-.2.5-.1.2-.3.3-.6.4-.3.1-.7.2-1.2.2-.5.1-1.1.1-1.9.1-.8 0-1.4 0-1.9-.1s-.9-.1-1.2-.2c-.3-.1-.5-.2-.6-.4-.1-.2-.2-.4-.2-.5v-15.8h-14.7v15.8c0 .2-.1.4-.2.5-.1.2-.3.3-.6.4-.3.1-.7.2-1.2.2-.5.1-1.1.1-1.9.1-.8 0-1.4 0-1.9-.1s-.9-.1-1.2-.2c-.3-.1-.5-.2-.6-.4-.1-.2-.2-.4-.2-.5v-36.9c0-.2.1-.4.2-.5.1-.2.4-.3.6-.4.3-.1.7-.2 1.2-.2.5-.1 1.2-.1 1.9-.1.8 0 1.4 0 1.9.1s.9.1 1.2.2c.3.1.5.2.6.4.1.2.2.4.2.5v14.4H504v-14.4c0-.2.1-.4.2-.5.1-.2.3-.3.6-.4.3-.1.7-.2 1.2-.2.5-.1 1.2-.1 1.9-.1.8 0 1.4 0 1.9.1s.9.1 1.2.2c.3.1.5.2.6.4.1.2.2.4.2.5v36.9h.2zm40.5-1.9c.2.7.4 1.3.5 1.7.1.4 0 .7-.2 1-.2.2-.6.3-1.2.4-.6.1-1.3.1-2.3.1h-2.4c-.6 0-1-.1-1.3-.2-.3-.1-.5-.2-.6-.4l-.3-.6-2.6-7.9h-14.7l-2.5 7.6c-.1.3-.2.5-.3.7-.1.2-.3.3-.6.5-.3.1-.7.2-1.2.2s-1.2.1-2.1.1c-.9 0-1.7 0-2.2-.1-.5-.1-.9-.2-1.1-.4-.2-.2-.3-.6-.2-1 .1-.4.2-1 .5-1.7l12-34.7c.1-.3.3-.6.4-.8.2-.2.4-.4.8-.5.4-.1.8-.2 1.5-.2h5.3c.7 0 1.3.1 1.6.2.4.1.7.3.8.5.2.2.3.5.4.9l12 34.6zm-17.9-28.7l-5.5 16.6h11l-5.5-16.6zm50.3 30.7c0 .2-.1.4-.2.5-.1.2-.3.3-.6.4-.3.1-.7.2-1.2.2-.5.1-1.2.1-1.9.1-.8 0-1.4 0-1.9-.1s-.9-.1-1.2-.2c-.3-.1-.5-.2-.7-.4-.1-.2-.2-.3-.2-.5v-14.6h-2.9c-1.2 0-2.1.1-2.8.4-.6.2-1.2.6-1.7 1.1-.5.5-.9 1.1-1.3 1.9-.4.8-.8 1.6-1.1 2.7l-3 8.5c-.1.2-.2.4-.4.6-.2.2-.4.3-.7.4-.3.1-.8.2-1.3.2s-1.2.1-2.1.1c-.9 0-1.6 0-2.2-.1-.5-.1-.9-.1-1.2-.3-.3-.1-.5-.2-.5-.4-.1-.1-.1-.3-.1-.5s0-.5.1-.7c.1-.3.2-.7.4-1.3l2.9-7.7c.4-1 .8-1.9 1.2-2.6.4-.7.8-1.4 1.3-2 .5-.6 1-1.1 1.6-1.5.6-.4 1.2-.7 1.8-1-1.2-.3-2.4-.8-3.3-1.3-1-.6-1.8-1.2-2.4-2-.6-.8-1.1-1.7-1.5-2.8-.3-1-.5-2.2-.5-3.5 0-1.8.3-3.4.9-4.8.6-1.4 1.5-2.7 2.7-3.7 1.2-1 2.7-1.8 4.5-2.3 1.8-.6 4.3-.8 7.5-.8h9.6c.6 0 1.2.2 1.6.6.5.4.7 1 .7 1.9v35.5h.1zm-7.9-32h-4.1c-1.7 0-3 .1-3.9.4-.8.3-1.5.6-2.1 1.1-.5.5-.9 1.1-1.2 1.8-.2.7-.4 1.5-.4 2.3 0 .8.1 1.6.4 2.3.3.7.7 1.3 1.2 1.8s1.2.9 2.1 1.2c.9.3 2.1.4 3.6.4h4.2v-11.3h.2zm59.4 31.9c0 .2-.1.4-.2.6-.1.2-.3.3-.6.4-.3.1-.7.2-1.3.2-.5.1-1.2.1-2 .1-.9 0-1.6 0-2.1-.1s-1-.1-1.3-.2c-.3-.1-.6-.3-.7-.5-.2-.2-.3-.4-.4-.7l-3.1-8.7c-.4-1.3-.9-2.3-1.4-3.2-.5-.9-1-1.6-1.6-2.1-.6-.5-1.2-.9-2-1.1-.8-.2-1.6-.3-2.5-.3h-1.8v15.7c0 .2-.1.4-.2.6-.1.2-.3.3-.6.4-.3.1-.7.2-1.2.2-.5.1-1.1.1-1.9.1-.8 0-1.4 0-1.9-.1s-.9-.1-1.2-.2c-.3-.1-.5-.2-.7-.4-.1-.2-.2-.3-.2-.6v-37c0-.2.1-.4.2-.6.1-.2.4-.3.7-.4.3-.1.7-.2 1.2-.2.5-.1 1.2-.1 1.9-.1.8 0 1.4 0 1.9.1s.9.1 1.2.2c.3.1.5.2.6.4.1.1.2.3.2.6v14.7h1.8c.9 0 1.7-.1 2.4-.4.7-.2 1.3-.6 1.9-1.1.6-.5 1.1-1.2 1.5-2 .5-.8.9-1.9 1.3-3.1l2.6-7.8c.1-.3.2-.5.4-.7.1-.2.4-.4.7-.5.3-.1.7-.2 1.2-.2.5-.1 1.2-.1 2.1-.1.8 0 1.4 0 1.9.1s.9.1 1.2.2c.3.1.5.2.6.4.1.2.2.3.2.6s0 .6-.1 1-.2.9-.5 1.5l-2.6 6.9c-.5 1.3-1 2.4-1.5 3.3-.5.9-1 1.7-1.5 2.3-.5.6-1.1 1.2-1.7 1.6-.6.4-1.2.7-2 1 .8.4 1.5.7 2.2 1.2.7.4 1.3 1 1.9 1.6.6.7 1.1 1.5 1.7 2.5.5 1 1.1 2.2 1.6 3.6l3.2 8.1c.3.8.5 1.4.6 1.7-.1.1-.1.3-.1.5zm39.4-18.9c0 3.2-.4 6.1-1.2 8.7-.8 2.6-2 4.7-3.6 6.5-1.6 1.8-3.6 3.1-5.9 4.1-2.3.9-5.1 1.4-8.1 1.4s-5.7-.4-7.9-1.2c-2.3-.8-4.2-2-5.7-3.6s-2.6-3.7-3.4-6.2c-.8-2.5-1.1-5.5-1.1-8.9 0-3.2.4-6 1.2-8.5.8-2.5 2-4.7 3.6-6.4 1.6-1.8 3.6-3.1 5.9-4.1 2.3-.9 5.1-1.4 8.2-1.4 3 0 5.6.4 7.8 1.2 2.3.8 4.2 2 5.7 3.6s2.7 3.7 3.4 6.2c.8 2.3 1.1 5.2 1.1 8.6zm-8.3.4c0-2.1-.2-3.9-.5-5.6-.3-1.7-.9-3.1-1.6-4.3-.8-1.2-1.8-2.1-3.1-2.8-1.3-.6-2.9-1-4.8-1s-3.6.4-4.9 1.1c-1.3.7-2.4 1.7-3.2 2.9-.8 1.2-1.4 2.7-1.7 4.3-.3 1.6-.5 3.4-.5 5.2 0 2.1.2 4.1.5 5.8.3 1.7.9 3.2 1.6 4.4.8 1.2 1.8 2.1 3.1 2.8 1.3.6 2.9.9 4.9.9 1.9 0 3.6-.4 4.9-1.1 1.3-.7 2.4-1.7 3.2-3 .8-1.2 1.4-2.7 1.7-4.4.2-1.6.4-3.3.4-5.2zm60.6 18.5c0 .2-.1.4-.2.5-.1.2-.3.3-.6.4-.3.1-.7.2-1.2.2-.5.1-1.1.1-1.8.1s-1.3 0-1.8-.1-.9-.1-1.2-.2c-.3-.1-.5-.2-.6-.4-.1-.2-.2-.4-.2-.5v-31.8h-.1l-11.3 31.8c-.1.3-.2.5-.4.6-.2.2-.4.3-.7.4-.3.1-.7.2-1.2.2H705c-.7 0-1.3 0-1.8-.1s-.9-.1-1.2-.2c-.3-.1-.6-.2-.7-.4-.2-.2-.3-.4-.4-.6L690 147.2h-.1V179c0 .2-.1.4-.2.5-.1.2-.3.3-.6.4-.3.1-.7.2-1.2.2-.5.1-1.1.1-1.8.1s-1.3 0-1.8-.1-.9-.1-1.2-.2c-.3-.1-.5-.2-.6-.4-.1-.2-.2-.4-.2-.5v-34.8c0-1 .3-1.8.8-2.4.5-.5 1.3-.8 2.2-.8h5.2c.9 0 1.7.1 2.4.2.7.2 1.2.4 1.7.8s.9.8 1.2 1.4c.3.6.6 1.3.8 2.1l8.4 23.3h.1l8.7-23.2c.3-.8.5-1.6.9-2.1.3-.6.7-1.1 1.1-1.4.4-.4.9-.6 1.5-.8.6-.2 1.2-.2 2-.2h5.4c.5 0 1 .1 1.4.2.4.1.7.3 1 .6.3.3.4.6.6 1 .1.4.2.8.2 1.4v34.8h.2zm38.9.1c0 .2-.1.4-.2.5-.1.2-.3.3-.6.4-.3.1-.7.2-1.2.2-.5.1-1.2.1-1.9.1-.8 0-1.4 0-1.9-.1s-.9-.1-1.2-.2c-.3-.1-.5-.2-.6-.4-.1-.2-.2-.3-.2-.5v-31.5h-14.6v31.5c0 .2-.1.4-.2.5-.1.2-.4.3-.6.4-.3.1-.7.2-1.2.2-.5.1-1.1.1-1.9.1-.8 0-1.4 0-1.9-.1s-.9-.1-1.2-.2c-.3-.1-.5-.2-.6-.4-.1-.2-.2-.3-.2-.5v-35.6c0-.8.2-1.5.6-1.9.4-.4 1-.6 1.7-.6h25.8c.7 0 1.3.2 1.7.6.4.4.6 1 .6 1.9v35.6h-.2zm40.6-2c.2.7.4 1.3.5 1.7.1.4 0 .7-.2 1-.2.2-.6.3-1.2.4-.6.1-1.3.1-2.3.1H802c-.6 0-1-.1-1.3-.2-.3-.1-.5-.2-.6-.4l-.3-.6-2.6-7.9h-14.7l-2.5 7.6c-.1.3-.2.5-.3.7-.1.2-.3.3-.6.5-.3.1-.7.2-1.2.2s-1.2.1-2.1.1c-.9 0-1.7 0-2.2-.1-.5-.1-.9-.2-1.1-.4-.2-.2-.3-.6-.2-1 .1-.4.2-1 .5-1.7l12-34.7c.1-.3.3-.6.4-.8.2-.2.4-.4.8-.5.4-.1.8-.2 1.5-.2h5.3c.7 0 1.3.1 1.7.2.4.1.7.3.8.5.2.2.3.5.4.9l11.9 34.6zm-18-28.7l-5.5 16.6h11l-5.5-16.6zm53.9 30.6c0 .2-.1.4-.2.5-.1.2-.4.3-.7.4-.3.1-.7.2-1.2.2-.5.1-1.1.1-1.9.1-.8 0-1.4 0-1.9-.1s-.9-.1-1.2-.2c-.3-.1-.5-.2-.6-.4-.1-.2-.2-.4-.2-.5v-15.8H821v15.8c0 .2-.1.4-.2.5-.1.2-.3.3-.6.4-.3.1-.7.2-1.2.2-.5.1-1.1.1-1.9.1-.8 0-1.4 0-1.9-.1s-.9-.1-1.2-.2c-.3-.1-.5-.2-.6-.4-.1-.2-.2-.4-.2-.5v-36.9c0-.2.1-.4.2-.5.1-.2.4-.3.6-.4.3-.1.7-.2 1.2-.2.5-.1 1.2-.1 1.9-.1.8 0 1.4 0 1.9.1s.9.1 1.2.2c.3.1.5.2.6.4.1.2.2.4.2.5v14.4h14.7v-14.4c0-.2.1-.4.2-.5.1-.2.3-.3.6-.4.3-.1.7-.2 1.2-.2.5-.1 1.2-.1 1.9-.1.8 0 1.4 0 1.9.1s.9.1 1.2.2c.3.1.5.2.7.4.1.2.2.4.2.5v36.9h-.1zm40.4.1c0 .2-.1.4-.2.5-.1.2-.4.3-.6.4-.3.1-.7.2-1.2.2-.5.1-1.2.1-1.9.1-.8 0-1.4 0-1.9-.1s-.9-.1-1.2-.2c-.3-.1-.5-.2-.6-.4-.1-.2-.2-.3-.2-.5V156.3c0-.8.1-1.4.1-2h-.2c-.2.3-.4.6-.6 1s-.5.8-.7 1.2c-.3.4-.5.8-.8 1.3-.3.4-.6.9-.8 1.3l-13.6 20.3c-.2.2-.3.4-.5.6-.2.2-.4.3-.7.4-.3.1-.6.2-1 .2h-1.5c-.8 0-1.4 0-1.9-.1s-.9-.1-1.1-.2c-.3-.1-.5-.2-.6-.4-.1-.2-.2-.4-.2-.6v-37c0-.2.1-.4.2-.5.1-.2.4-.3.7-.4.3-.1.7-.2 1.2-.2.5-.1 1.1-.1 1.9-.1.8 0 1.4 0 1.9.1s.9.1 1.2.2c.3.1.5.2.6.4.1.2.2.3.2.5v22.8c0 .7-.1 1.4-.1 2.1h.1c.3-.6.8-1.3 1.3-2.2.5-.8 1.1-1.7 1.6-2.5l13.6-20.3c.1-.2.3-.4.5-.5.2-.2.4-.3.6-.4.3-.1.6-.2 1-.2s.9-.1 1.5-.1c.8 0 1.4 0 1.9.1s.8.1 1.1.2c.3.1.5.2.6.4.1.2.2.3.2.6v36.9h.1zm35.4 0c0 .2-.1.4-.2.5-.1.2-.3.3-.6.4-.3.1-.7.2-1.2.2-.5.1-1.2.1-1.9.1-.8 0-1.4 0-1.9-.1s-.9-.1-1.2-.2c-.3-.1-.5-.2-.7-.4-.1-.2-.2-.3-.2-.5v-14.6h-2.9c-1.2 0-2.1.1-2.8.4-.6.2-1.2.6-1.7 1.1-.5.5-.9 1.1-1.3 1.9-.4.8-.8 1.6-1.1 2.7l-3 8.5c-.1.2-.2.4-.4.6-.2.2-.4.3-.7.4-.3.1-.8.2-1.3.2s-1.2.1-2.1.1c-.9 0-1.6 0-2.2-.1-.5-.1-.9-.1-1.2-.3-.3-.1-.5-.2-.5-.4-.1-.1-.1-.3-.1-.5s0-.5.1-.7c.1-.3.2-.7.4-1.3l2.9-7.7c.4-1 .8-1.9 1.2-2.6.4-.7.8-1.4 1.3-2 .5-.6 1-1.1 1.6-1.5.6-.4 1.2-.7 1.8-1-1.2-.3-2.4-.8-3.3-1.3-1-.6-1.8-1.2-2.4-2-.6-.8-1.1-1.7-1.5-2.8-.3-1-.5-2.2-.5-3.5 0-1.8.3-3.4.9-4.8.6-1.4 1.5-2.7 2.7-3.7 1.2-1 2.7-1.8 4.5-2.3 1.8-.6 4.3-.8 7.5-.8h9.6c.6 0 1.2.2 1.6.6.5.4.7 1 .7 1.9v35.5h.1zm-7.9-32h-4.1c-1.7 0-3 .1-3.9.4-.8.3-1.5.6-2.1 1.1-.5.5-.9 1.1-1.2 1.8-.2.7-.4 1.5-.4 2.3 0 .8.1 1.6.4 2.3.3.7.7 1.3 1.2 1.8s1.2.9 2.1 1.2c.9.3 2.1.4 3.6.4h4.2v-11.3h.2z"/><path class="pst0" d="M395.2 74.4h6.6v11h-6.6v-11zm-103.8-22l.4 5.3c-10.9 3.1-11 13.5-7.6 19.5-2.4 3.4-3.2 1.7-2.4 8l-1.7.1 9.1.2c-.8 1.1-1.8 1.7-.3 3.5l13.4-3.5c-.1 4.6.4 5.1 2.3 8.1 3 0 5.8-1.1 8.5-1.8 4.1-1.1 4.6-1.9 6.3-4.8 3.7.8 6 3.8 9.8 3.5 3.4-.3 6.4-3.6 9.2-4.9 4.6 4.8 11 3.1 18.8 3.6 3.7.2 6.3 1 10.5.9 3.7-.1 7.6-1.1 10.4-1.2.1-4.5-1.6-4.7-1.5-9.4.1-3.8 1.9-6.1 2.9-8.5l-18.7-.8V74c-1.8 1.3-3.8 2.7-5.8 3.8-3.8-1.8.6-1.6-5.2-2.8-9.5-2-13.3-12.3-13.3-12.3l-9.9-3.3c-2.8 3-2.5 4.8-5.5 6.7l-1.3 5.2-5.8-.8c-3.2 9-1.6 2.2-6.8 6.1-4.1 3-4.9 7.4-5.5 8.2.2-16.5.2-9.7-2.5-21.4l-.8-5c.3-2.1-1 .1.6-1.6-.8-3.6 1.8-5.8 1.8-11.1-1-.7-1.2-.5-1.9-.9l-1.4-1c-.1-.1-.3-.2-.5-.4.5-11.1 6.6-8.1-1.5-23.1-2-3.6-.9-4.3-.9-8.5l-5.6-.4-1.4 4.9c-.7 8.9 2.8 8.8-.2 15.6-2.8 6.6-1.7 15.1 4.5 17.5l-.5 3z"/></symbol></svg>