<?xml version="1.0" encoding="utf-8"?><svg xmlns="http://www.w3.org/2000/svg" xmlns:xlink="http://www.w3.org/1999/xlink"><symbol id="icon-feat-1" viewBox="0 0 47 47" xml:space="preserve" xmlns="http://www.w3.org/2000/svg"><style>.ast0{fill:#e63c23}</style><path class="ast0" d="M32 34c0 .5-.4.9-.9.9s-.9-.4-.9-.9.4-.9.9-.9.9.4.9.9zm-15.2 0c0 .5-.4.9-.9.9s-.9-.4-.9-.9.4-.9.9-.9.9.4.9.9zm-.6-12h14.7c.5 0 .9-.4.9-.9v-1.8c0-4.5-3.7-8.3-8.3-8.3-4.6 0-8.3 3.7-8.3 8.3v1.8c0 .5.4.9 1 .9zm.9-2.7c0-3.5 2.9-6.4 6.4-6.4 3.5 0 6.4 2.9 6.4 6.4v.9H17.1v-.9zM29 5.5c0-3-2.5-5.5-5.5-5.5S18 2.5 18 5.5s2.5 5.5 5.5 5.5S29 8.5 29 5.5zm-5.5 3.7c-2 0-3.7-1.6-3.7-3.7s1.6-3.7 3.7-3.7c2 0 3.7 1.6 3.7 3.7s-1.7 3.7-3.7 3.7z"/><path class="ast0" d="M1.1 28.2l8.2 9.5c.1.2.2.4.2.6v7.8c0 .5.4.9.9.9h11.3c.5 0 .9-.4.9-.9V33.7c0-1.2-.5-2.4-1.3-3.2l-6.5-6.3c-1.9-1.9-4.8-2.3-7.1-1.1v-7.4c0-3.6-3.2-6.4-6.7-6.4-.6-.1-1 .3-1 .8v15.2c0 1.1.4 2.1 1.1 2.9zm.7-17.1c2.2.4 3.9 2.3 3.9 4.5v9.2c0 .2.1.5.3.6l6.6 6.6c.4.4.9.4 1.3 0s.4-.9 0-1.3L8 24.8c1.7-1.1 3.9-.9 5.3.6l6.5 6.3c.5.5.8 1.2.8 1.9v11.5h-9.5v-6.9c0-.6-.2-1.3-.6-1.8l-8-9.4c-.4-.5-.6-1.1-.6-1.8V11.1zm44.3-1.9c-3.6 0-6.7 2.9-6.7 6.4V23c-.8-.4-1.8-.7-2.8-.7-1.6 0-3.2.6-4.3 1.8 0 0-6.5 6.3-6.6 6.3-.9.9-1.3 2-1.3 3.2V46c0 .5.4.9.9.9h11.3c.5 0 .9-.4.9-.9v-7.8c0-.2.1-.4.2-.6l8.2-9.5c.7-.8 1.1-1.9 1.1-2.9V10.1c0-.5-.4-.9-.9-.9zm-.9 16.1c0 .6-.2 1.3-.6 1.8l-8.2 9.5c-.4.5-.6 1.1-.6 1.8v6.9h-9.5V33.7c0-.7.3-1.4.8-1.9l6.5-6.3c1.4-1.4 3.7-1.6 5.3-.6L33 30.8c-.4.4-.4.9 0 1.3s.9.4 1.3 0l6.6-6.6c.2-.2.3-.4.3-.6v-9.2c0-2.2 1.8-4.1 3.9-4.5v14.1z"/></symbol><symbol viewBox="0 0 512 512" id="icon-feat-2" xmlns="http://www.w3.org/2000/svg"><path d="M395.5 324.1c5.5 0 10-4.5 10-10v-124c0-5.5-4.5-10-10-10s-10 4.5-10 10v124.1c0 5.4 4.5 9.9 10 9.9z"/><path d="M5.4 253.6v84.2c0 5.5 4.5 10 10 10s10-4.5 10-10v-74.2h66v50.5c0 5.5 4.5 10 10 10H196c5.5 0 10-4.5 10-10v-50.5h22.8v7.4c0 24.3 16.4 44.8 38.7 51.2 1.5.4 3 .8 4.5 1.1V492H25.4v-74.2c0-5.5-4.5-10-10-10s-10 4.5-10 10V502c0 5.5 4.5 10 10 10h380.1c5.5 0 10-4.5 10-10V324.1h91c5.5 0 10-4.5 10-10v-124c0-5.5-4.5-10-10-10h-47.8v-22.6c0-29.3-23.9-53.2-53.2-53.2h-16.4c9.1-11.1 14.6-25.9 14.6-42.1C393.7 27.9 369 .1 338.6.1c-30.4 0-55.1 27.9-55.1 62.1 0 16.2 5.6 31 14.6 42.1H282c-29.3 0-53.2 23.9-53.2 53.2v86.1H15.5c-5.6 0-10.1 4.4-10.1 10zm333.4-149.3c-19.4 0-35.1-18.9-35.1-42.1 0-23.2 15.7-42.1 35.1-42.1 19.3 0 35.1 18.9 35.1 42.1-.1 23.1-15.8 42-35.1 42.1zm147.8 199.8h-49.5c.1-.2.2-.3.4-.5 3.1-3.9 5.6-8.2 7.4-12.8.6-1.4 1.1-2.8 1.5-4.3 1.6-5.1 2.3-10.3 2.3-15.6V200h37.8v104.1h.1zm-237.8-33.2V157.5c0-18.3 14.9-33.2 33.2-33.2h113.6c18.3 0 33.2 14.9 33.2 33.2V271c0 14.8-9.8 27.4-23.2 31.6V190.1c0-5.5-4.5-10-10-10h-56.8c-5.5 0-10 4.5-10 10v124.1c0 5.5 4.5 10 10 10h46.8V492h-36.8V346.5c0-5.5-4.5-10-10-10s-10 4.5-10 10V492H292V190.1c0-5.5-4.5-10-10-10s-10 4.5-10 10v112.5c-13.4-4.3-23.2-16.9-23.2-31.7zm99.9 33.2v-104h36.8v104.1h-36.8zm-237.2 0v-40.5H186v40.5h-74.5z"/><path d="M154.8 445.8c5.5 0 10 4.5 10 10s-4.5 10-10 10h-27.7c-5.5 0-10-4.5-10-10s4.5-10 10-10h27.7zm-65.5 0c5.5 0 10 4.5 10 10s-4.5 10-10 10H61.6c-5.5 0-10-4.5-10-10s4.5-10 10-10h27.7zm-73.9-78c5.5 0 10 4.5 10 10s-4.5 10-10 10-10-4.5-10-10 4.5-10 10-10z"/></symbol><symbol id="icon-feat-3" viewBox="0 0 43.2 47" xml:space="preserve" xmlns="http://www.w3.org/2000/svg"><style>.cst0{fill:#e63c23}</style><circle class="cst0" cx="21.6" cy="21.3" r="1"/><circle class="cst0" cx="21.6" cy="24.6" r="1"/><path class="cst0" d="M37 10.3c.5-.8.9-1.7.9-2.7v-3C37.9 2 35.8 0 33.3 0h-.6c-2.6 0-4.6 2.1-4.6 4.6v3c0 1 .3 1.9.9 2.7h-3.1c.5-.8.9-1.7.9-2.7v-3C26.8 2 24.7 0 22.2 0h-.6C19 0 17 2.1 17 4.6v3c0 1 .3 1.9.9 2.7h-3.1c.5-.8.9-1.7.9-2.7v-3C15.7 2 13.6 0 11.1 0H10C7.4 0 5.3 2.1 5.3 4.6v3c0 1 .3 1.9.9 2.7-3.4.1-6.2 3-6.2 6.4v9.6c0 2 1.6 3.6 3.6 3.6h.1v13.8C3.7 45.5 5.1 47 7 47h1c.9 0 1.7-.4 2.3-.9.6.6 1.4.9 2.3.9h1.1c.9 0 1.7-.4 2.3-.9.6.6 1.4.9 2.3.9h1.1c.9 0 1.7-.4 2.3-.9.6.6 1.4.9 2.3.9h1.1c.9 0 1.7-.4 2.3-.9.6.6 1.4.9 2.3.9h1.1c.9 0 1.7-.4 2.3-.9.6.6 1.4.9 2.3.9h1.1c1.8 0 3.3-1.5 3.3-3.3V29.9h.1c2 0 3.6-1.6 3.6-3.6v-9.6c-.3-3.4-3.1-6.2-6.5-6.4zm-7.1-5.7c0-1.5 1.2-2.7 2.7-2.7h.6c1.5 0 2.7 1.2 2.7 2.7v3c0 1.5-1.2 2.7-2.7 2.7h-.6c-1.5 0-2.7-1.2-2.7-2.7v-3zm-11.3 0c0-1.5 1.2-2.7 2.7-2.7h.6c1.5 0 2.7 1.2 2.7 2.7v3c0 1.5-1.2 2.7-2.7 2.7h-.6c-1.5 0-2.7-1.2-2.7-2.7v-3zm5.3 7.7L21.6 16l-2.3-3.7h4.6zM7.3 4.6C7.3 3.2 8.5 2 10 2h.6c1.5 0 2.7 1.2 2.7 2.7v3c0 1.5-1.2 2.7-2.7 2.7H10c-1.5 0-2.7-1.2-2.7-2.7V4.6zM4.7 19.1c-.5 0-1 .4-1 1V28h-.1c-.9 0-1.6-.8-1.6-1.7v-9.6c0-2.5 2-4.5 4.5-4.5h6.6c-1.1 1.2-1.8 2.7-1.8 4.5v9.6c0 .3 0 .6.1.9l-1.1.6-4.7-2.4V20c0-.5-.4-.9-.9-.9zM15 43.7c0 .7-.6 1.3-1.3 1.3h-1.1c-.7 0-1.3-.6-1.3-1.3V32.9c0-.5-.4-1-1-1-.5 0-1 .4-1 1v10.8c0 .8-.6 1.3-1.3 1.3H7c-.7 0-1.3-.6-1.3-1.3V27.6l4.2 2.1c.1.1.3.1.4.1.2 0 .3 0 .4-.1l1.7-.8c.6.6 1.5 1 2.5 1h.1v13.8zm11.2 0c0 .7-.6 1.3-1.3 1.3h-1.1c-.7 0-1.3-.6-1.3-1.3V32.9c0-.5-.4-1-1-1-.5 0-1 .4-1 1v10.8c0 .7-.6 1.3-1.3 1.3h-1.1c-.7 0-1.3-.6-1.3-1.3V27.6l4.2 2.1c.1.1.3.1.4.1.2 0 .3 0 .4-.1l4.2-2.1.2 16.1zm1-24.6c-.5 0-1 .4-1 1v5.4l-4.7 2.4-4.7-2.4v-5.4c0-.5-.4-1-1-1s-1 .4-1 1V28h-.1c-.9 0-1.7-.7-1.7-1.6v-9.6c0-2.2 1.7-4.1 3.8-4.4l3.7 6.1c.2.3.5.5.8.5.3 0 .7-.2.8-.5l3.7-6.1c2.2.3 3.8 2.2 3.8 4.4v9.6c0 .9-.7 1.6-1.7 1.6h-.1v-7.9c.4-.6 0-1-.6-1zm10.3 24.6c0 .7-.6 1.3-1.3 1.3h-1.1c-.7 0-1.3-.6-1.3-1.3V32.9c0-.5-.4-1-1-1-.5 0-1 .4-1 1v10.8c0 .7-.6 1.3-1.3 1.3h-1.1c-.7 0-1.3-.6-1.3-1.3V29.9h.1c1 0 1.8-.4 2.5-1l1.7.8c.1.1.3.1.4.1.2 0 .3 0 .4-.1l4.2-2.1.1 16.1zM39.6 28c-.1 0-.1 0 0 0l-.1-7.9c0-.5-.4-1-1-1-.5 0-1 .4-1 1v5.4l-4.7 2.4-1.1-.6c.1-.3.1-.6.1-.9v-9.6c0-1.7-.7-3.3-1.8-4.5h6.6c2.5 0 4.5 2 4.5 4.5v9.6c.1.8-.6 1.6-1.5 1.6z"/></symbol><symbol viewBox="0 0 270.4 98.1" id="iconSheer"><path d="M175.1 51.8c.2 1.2.3 2.1.5 3 2 8.4 8.6 14 17.2 14.7 7.6.6 13.6-2.3 18-8.5 2.2-3 5.7-3.5 8.5-1.1 1.6 1.4 1.8 3.2.5 4.9-.7.9-1.4 1.8-2.1 2.8-2.9 4-6.7 6.7-11.4 8.3-7.6 2.6-15.2 3-22.7.2-10.1-3.7-16.1-11.1-17.8-21.7-1-6.5-.4-13 2.6-18.9 4.3-8.4 11.1-13.6 20.5-15.1 6.2-1 12.4-.4 18.2 2.4 8.2 3.9 13.2 10.5 15.1 19.3.5 2.4.7 4.9.9 7.3.2 1.5-.5 2.2-2.1 2.3h-44.1c-.4.1-.9.1-1.8.1zm38.3-9.2c-1.2-7.9-10.7-14.7-19.4-14.2-9.1.5-18.2 7.5-18.5 14.2h37.9zm-101 9c.1.8.2 1.4.3 2 1.7 9.3 9.3 15.7 18.7 15.9 7.1.1 12.7-2.8 16.8-8.6 2.2-3.1 6.1-3.4 8.8-.7 1.3 1.4 1.5 3 .3 4.6-.5.8-1.1 1.5-1.7 2.2-3.1 4.5-7.3 7.4-12.5 9.1-7.6 2.5-15.2 2.7-22.5-.2-10.6-4.1-16.4-12.1-17.6-23.3-.6-5.4-.1-10.7 2.2-15.6 4.3-9.4 11.4-15.2 21.8-16.6 5.5-.7 11-.3 16.1 1.8 9.2 3.8 14.6 10.9 16.6 20.6.4 2.2.6 4.5.7 6.7.1 1.8-.3 2.2-2.2 2.2h-43.5c-.7-.1-1.4-.1-2.3-.1zm38.4-9.1c-1.2-7.8-10.4-14.4-19.4-14.2-8.8.2-17.9 7.2-18.6 14.2h38zm101 13.5c.7.6 1.1 1 1.5 1.4 4.9 4.2 9.8 8.3 14.6 12.5.3.3.7.6 1 .9 1.8 1.8 2 4.4.3 6.2-1.6 1.8-4.2 2.1-6.1.5-3.4-2.8-6.7-5.7-10-8.5-4.8-4.1-9.5-8.1-14.3-12.2-.4-.4-.9-.7-1.6-1.3 0 1-.1 1.6-.1 2.3v36.1c-.2 2.5-2.1 4.3-4.6 4.2-2.4-.1-4.1-1.9-4.2-4.4V21.9c0-1.6.2-1.9 1.7-1.9 2.1-.1 4.2-.1 6.2-.1 5 0 10.1.2 15.1-.1 8.4-.4 17.8 6.4 18.7 16.3.8 8.9-5.2 17.3-14.3 19.1-1.1.2-2.3.5-3.9.8zm-15.3-6.9c.5.1.9.1 1.2.1h12.6c1.2 0 2.4-.1 3.6-.5 3.9-1.2 7-3.5 8-7.7 1.7-7.1-3.6-13.7-10.9-13.7h-13c-.5 0-1 .1-1.5.1v21.7zM88.5 52H63.9c0 .7-.1 1.4-.1 2v18.9c0 .8 0 1.6-.2 2.3-.6 1.9-2.6 3.1-4.5 3-2.1-.2-3.8-1.8-4.1-3.9-.1-.5 0-1 0-1.5V5.4c0-.9.1-1.8.4-2.6.6-2 2.6-3 4.7-2.8 1.9.3 3.5 2 3.7 3.9.1.6 0 1.2 0 1.8v34.7c0 .7.1 1.4.1 2 1.5.4 22.9.4 24.5 0 0-.5.1-1.1.1-1.7V23.9c.2-2.3 1.9-4 4.2-4.1 2.3-.1 4.3 1.6 4.6 3.9.1.5 0 1 0 1.5v48.9c-.3 2.3-2.3 4.1-4.5 4-2.3-.1-4.1-1.9-4.3-4.2V52zM25 78.3c-5.9-.1-11.4-1.4-16.5-4.4-2.2-1.3-4.2-2.9-5.8-4.8-.8-1-1.6-2.1-2.2-3.3-1-1.9-.6-3.4.9-4.9 1.7-1.6 4.1-2.3 6.4-.7C9 61 10 62 10.9 63c.9.9 1.6 1.9 2.5 2.8 2.7 2.7 6 4.2 9.8 4.6 3.5.4 7 .3 10.4-.9 1.4-.5 2.8-1.2 4-2.1 2.9-2.2 3-5.9.2-8.2-1.3-1.1-2.9-1.9-4.5-2.6-4-1.7-8.1-2.9-12.3-4-3.4-.8-6.7-1.9-10.1-2.9-1.3-.4-2.5-1.1-3.7-1.7-3.2-1.7-5-4.4-5.5-7.9-1-7.1 1.7-12.8 8.1-15.9 9.8-4.8 19.7-5.2 29.4.4 1.8 1 3.5 2.5 5.1 3.9 1.2 1 2 2.5 2.5 4 .8 2.6-.5 3.9-2.8 4.4-2 .4-3.8-.2-5.2-1.7-.3-.3-.5-.6-.7-.9-2.3-3.4-5.6-5.3-9.6-6.1-4-.7-8-.6-11.8.9-1.4.5-2.8 1.3-3.9 2.3-2.7 2.3-2.7 5.4-.1 7.8 1.7 1.6 3.7 2.5 5.9 3 4.8 1.2 9.7 2.4 14.5 3.6 3.1.8 6.1 1.8 8.9 3.4 3.6 1.9 6.2 4.7 7.1 8.8 1.1 5 0 9.4-3.9 13-4.4 4-9.5 6.3-15.4 7-1.7.1-3.3.2-4.8.3z"/></symbol><symbol viewBox="0 0 144 20" id="lines" xmlns="http://www.w3.org/2000/svg"><path fill-rule="evenodd" fill="#FFF" d="M0 19.017V20h124.702v-.983H0zm124.35-.348l.705.695L144.01.686l-.706-.696-18.954 18.679z"/></symbol><symbol id="logo--footer" viewBox="0 0 960 180.9" xml:space="preserve" xmlns="http://www.w3.org/2000/svg"><style>.fst0{fill-rule:evenodd;clip-rule:evenodd}.fst0,.fst1{fill:#fff}</style><path class="fst0" d="M671.3 85.4h253.3c-.4-6.5-7.2-12.6-11.8-16.4-9.1-7.7-27.4-26.3-35.6-36.5-5.4-6.7-13.7-19.1-24.9-17.9-7.1.7-14 7.2-18.7 10.5-11.1 7.9-14.8 2.9-22.2 7-7.1 4-7.4 9-19 10.2-13.5 1.4-42 5-53.2 2.2-19.7-5-53.6-40.2-81.9-9.8-5.6 6-9.4 9.7-14.2 15.1l-6.9 6.9c.3 3.5-1.4 6-2.3 9.3-.1.5 0 1.1.3 1.8 7.6 0 18.8-.1 23.7 3.5l.3.3.3.3c1.6 1.6 2.7 3.4 3.6 5.4.2.5.6 1.5.9 2.1.5.2 1.5.3 1.9.3l2.4.2 1.5 1.9c1.1 1.3 1.9 2.4 2.5 3.6zM0 125.1c79-2.7 158-6.2 237.8-7.7 157.3-3.1 327.4-4.2 484.5.3 79.3 2.2 158.5 5.1 237.7 7.5V105H0v20.1zm41.4-40.3l171.1.3v-.4c.1-4.1.1-8.2.1-12.3 0-5 .1-10.7.9-15.6.5-3 1.2-5.2 3.3-7.2.1-1 .1-2.4.1-3.1 0-4-.3-8-.5-11.9l-.1-.8c-11-1.6-29.5-7.3-48.3-8.5-14.4-.9-45.7-3.1-56.5 3.6-9 5.6-6.5 12.9-34.4 28.6-6.9 3.9-13.8 7.2-20.2 11.3-5 3.4-14 10.1-15.5 16z"/><path class="fst0" d="M526.1 40.7c-3 2-1.8 2.9-4.8 4.3-2.1 1-4.6 1-6.7 2.2l1 1.2c4 6.4 1.1 2.2 4.5 5.3 3.1 2.9 3.2 14.7-2.6 17.5-5 2.4-3.3.9-5.1 6.1-4.7.3-18.1-5.5-8.4 11.5 6 .9 12.6 7.7 17.1-.4 5.8.2 6.7 3.1 12.9 2.5 7.4-.8 4.1-3.4 10.8 1 4.5 3 7.3 1.8 12.6 1.2 8-.8 7.5 1.6 12.6 1.9 2.2.1 4-.5 6.7-.4 6.1.3 7.4 3.4 17.1-2.6 14.6-9 13.3-.9 23.4-1.9 3-1.9 2.5-2.8 6-4.8 6.3 2 11.5 9.2 21.4 8 4.8-.6 7.4-3.5 12.2-2.5 6.7 1.4 3.9 4.1 10.1-.6-.4-2.4-1.2-3.3-2.4-4.9-8.4-.7-5.6-5.1-9.9-9.5-3.8-2.8-18-2.3-23.9-2.4-1.3-2.6-3.1-5.6-2.1-8.9 1.3-4.8 5.2-9.5-3-12.1-2.6.9-3.9 2.8-6.7 2.9-12.5.4-6.6-4.6-13.1 7.3-1.4 2.5-3 5.5-4.9 7.9-3.8-1.3 0-1-4.9-2.1-1.6-.4-.4.8-1.7-.5-1.2-1.7-1.8-5.3-1.4-7.7.6-4.3 2-2.3 4.4-5.4-1.5-7.6-5.8-5.9-11.5-8-2.5-9.3 3.6-3.2 2.4-9.9-.6-3.4-12.7-10-18-6.2-1.3.9-2.1 2.5-3.2 3.5-2.5 2.3-2.6.6-4.5 3.2-1.7 5.5 0 5.8 1.2 9.8l-2.4.9c-.6.2-1.8.4-2.5.5-8.6 1.8-6.6 3.6-8.6 8.6 0 .1-.1.4-.3.5-11-5-5.2-7.2-11.5-6.1.9 2.5 1.3.9 2.5 3-2.6 1.6-13.3 1-14.8-13.9z"/><path class="fst0" d="M422 44.6c3.9-.2 7.3-.8 11.3-1.3 3-.4 6.9-1.2 9.8-.6 2.2.4 1.3.3 2 .6l.4-.2c4.6 0 10.8.2 14.2 2 9.4.6 18.9.1 28.5.6 8.8.4 17.6 3.9 26.3 1.5 2.1-1.2 4.6-1.2 6.7-2.2 3.1-1.4 1.8-2.4 4.8-4.3 2.7-2.2 3.1-.3 5.3-3.8-6.8-7.3-25.3-3.2-46.5-24.6-5.8-5.9-8.3-3.4-9.9 3.7-5.3 1.1-11 2.7-16.3 4-7.2 1.8-23.4 7.3-29.9 10.6-8.5 4.4-11.1 2.6-13.4 7.6 1.7 2.9 3 5.3 6.7 6.4zM248.9 85.3h4.6c10.3.1 3.4 6.3 15.8 1.1 1.6-.7 3.3-.9 5.1-.9l-.2-5.2 1.7-.1c.2-1 .5-2 1.1-3 .2-.3.4-.5.6-.8-1.2-3.6-1.4-7.6-.5-11.3 1.3-5 4.4-8.6 8.7-10.9l-.1-1.4c-1.5-1.2-2.6-2.6-3.5-4.2-.9-.3-1.8-.6-2.8-.9-4.7-1.3-9.9-2.3-14.6-3.4-7.8-1.7-15.6-4-23.5-5.8l-.6 1.3c-.4.8-.8 1.7-.7 2.5.1.6.3 1.3.5 1.9.4 1.3.9 2.6 1.2 3.9 1.3 5 1.1 8.9 1.4 13.9.1 2 .1 2.9 1.2 4.3 1.3 1.7 2 3.3 2.4 5.5.6 3.1.5 6.1 1 9.1.1.8.3 1.6.6 2.3l.5 1.3.1.8zm-26.8-51c1.8 26.9-1.3 14.1-2.9 23.6-1.2 6.9-.7 19.3-.9 27.2-.1 1.3-.5 4 3.9 3.4 4.5.9 7.3-.1 11.7.3 5.1.4 9.1-.2 9.5-3.5-1.6-4-1.1-8.2-1.9-12.4-.8-4.3-3.2-2.8-3.7-10.5-.3-5.1 0-8.1-1.3-12.8-1.3-5.1-3.2-7.1-.7-12.3-1.7-5.9-4.9 4.4-3.3-13.2 1.2-12.9-1-12.3-3.1-14.9.6-4.7 3-5 .3-9h-3.8c-5.2 5.2-2.5 8.5-1.8 15.9.6 6.4.3 12.6-2 18.2zm138.5 36l18.7.8c5.6-2.9 4-2.8 12.1-2.8h15.8c18 0 18.7-2.1 25.5 5.7l5.2.4c-1-5.8-12.1-13.4-16.5-18.3-3.5-1-4-1.8-6.2-4.1-3.2-3.3-3-2.2-7.9-1.7-6.8.8-15.5-.4-22.6-.1-7.9.3-9.6 4-14.8 6.9-4.4 2.5-11 4.3-14.2 8.1.3 5.4.5 3.8 4.9 5.1z"/><path class="fst0" d="M422 44.6l5.6 1c1.2 2.4 2.1 3.4.8 6.4-2.4.9-2.1.3-4.7 0l-2.3 4.2c4.5 4.9 15.5 12.5 16.5 18.3l-5.2-.4c3 8.8-.9 9.8-.6 14.9 1.8 4 2.7 4.8 7.2 3.2 7.8-2.9 2.9-.6 8.4.9l2.7-4.5c1.2-7.4 1.3-6.4-1.8-12.2-2.8-5.3 2.6-5.8 2.7-10.4l-4.2-10.5c-4.5-5.6-3.6-1.7-4.2-11.2 1.2-1.2-1.9-1.2 2.3-.9-.6-.3.3-.2-2-.6-3-.6-6.9.2-9.8.6-4.1.4-7.5 1-11.4 1.2zM315.4 64.5c-3.8-1.5-7.5-3.7-11-5.4l-.4.4.4 2.8c.4 1.7.8 3.4 1.3 5 .3 1 .6 1.9.8 2.9.5-.2.9-.3 1.4-.4.2-.4.3-.9.4-1.2l1.5-4.3 5.3.7.3-.5zm155.3 14.6l9.9-.1V53.9l-10.3.2.4 25z"/><path class="fst0" d="M459.8 45.1c-3.4-1.7-9.6-2-14.2-2 1.3 3.5 1.1 5.6 2 9.5 1 4.3 2.3 3.7 5 6.1.3 4.2 0 6.4 1.7 9.4 3.5-.8 3.7-2.6 5.7-5.7 2.6-4 4.4-2.7 5.6-5.5-3-1.8-2.6-.6-6.3-4-.2-.2-.7-.6-.8-.8-1-.9-.4-.3-1.2-1.3l2.5-5.7zm26.6 5.5l.1 27.5 7.2-.1-.3-27.2-7-.2zM500.5 71h8.1l-.4-18.2-7.9.1.2 18.1zM386.6 85.4l6.5.1-.4-11.1-6.1.3v10.7zm37.6-9.8l-3.6.2-.4 6.6h4.3l-.3-6.8z"/><path class="fst1" d="M69.7 179.1c0 .2-.1.4-.2.6-.1.2-.3.3-.6.4-.3.1-.7.2-1.3.2-.5.1-1.2.1-2 .1-.9 0-1.6 0-2.1-.1s-1-.1-1.3-.2c-.3-.1-.6-.3-.7-.5-.2-.2-.3-.4-.4-.7l-3.1-8.7c-.4-1.3-.9-2.3-1.4-3.2-.5-.9-1-1.6-1.6-2.1-.6-.5-1.2-.9-2-1.1-.8-.2-1.6-.3-2.5-.3h-1.8v15.7c0 .2-.1.4-.2.6-.1.2-.3.3-.6.4-.3.1-.7.2-1.2.2-.5.1-1.1.1-1.9.1-.8 0-1.4 0-1.9-.1s-.9-.1-1.2-.2c-.3-.1-.5-.2-.6-.4-.1-.2-.2-.3-.2-.6v-37c0-.2.1-.4.2-.6.1-.2.4-.3.6-.4.3-.1.7-.2 1.2-.2.5-.1 1.2-.1 1.9-.1.8 0 1.4 0 1.9.1s.9.1 1.2.2c.3.1.5.2.6.4.1.1.2.3.2.6v14.7h1.8c.9 0 1.7-.1 2.4-.4.7-.2 1.3-.6 1.9-1.1.6-.5 1.1-1.2 1.5-2 .5-.8.9-1.9 1.3-3.1l2.6-7.8c.1-.3.2-.5.4-.7.1-.2.4-.4.7-.5.3-.1.7-.2 1.2-.2.5-.1 1.2-.1 2.1-.1.8 0 1.4 0 1.9.1s.9.1 1.2.2c.3.1.5.2.6.4.1.2.2.3.2.6s0 .6-.1 1-.2.9-.5 1.5l-2.6 6.9c-.5 1.3-1 2.4-1.5 3.3-.5.9-1 1.7-1.5 2.3-.5.6-1.1 1.2-1.7 1.6-.6.4-1.2.7-2 1 .8.4 1.5.7 2.2 1.2.7.4 1.3 1 1.9 1.6.6.7 1.1 1.5 1.6 2.5s1.1 2.2 1.6 3.6l3.2 8.1c.3.8.5 1.4.6 1.7-.1.1 0 .3 0 .5zm32.6-26.1c0 2.2-.3 4.1-1 5.8-.7 1.7-1.7 3.1-3 4.3-1.3 1.2-2.9 2-4.8 2.6-1.9.6-4.2.9-6.7.9h-3.3v12.5c0 .2-.1.4-.2.5-.1.2-.4.3-.6.4-.3.1-.7.2-1.2.2-.5.1-1.1.1-1.9.1-.8 0-1.4 0-1.9-.1s-.9-.1-1.2-.2c-.3-.1-.5-.2-.6-.4-.1-.2-.2-.4-.2-.5v-35.2c0-.9.2-1.7.7-2.1.5-.5 1.1-.7 1.9-.7h9.2c.9 0 1.8 0 2.6.1s1.8.2 3 .5c1.2.2 2.4.7 3.5 1.3 1.2.6 2.2 1.4 3.1 2.4.8 1 1.5 2.1 1.9 3.4.5 1.1.7 2.6.7 4.2zm-8.3.5c0-1.4-.2-2.5-.7-3.4-.5-.9-1.1-1.5-1.8-2-.7-.4-1.5-.7-2.2-.8-.8-.1-1.6-.2-2.4-.2h-3.4v13.3H87c1.3 0 2.3-.2 3.2-.5.9-.3 1.6-.8 2.1-1.4.5-.6 1-1.3 1.2-2.2.4-.8.5-1.7.5-2.8zm55.3 25.7c0 .2-.1.4-.2.5-.1.2-.4.3-.6.4-.3.1-.7.2-1.2.2-.5.1-1.2.1-1.9.1-.8 0-1.4 0-1.9-.1s-.9-.1-1.2-.2c-.3-.1-.5-.2-.7-.4-.1-.2-.2-.3-.2-.5v-37c0-.2.1-.4.2-.5.1-.2.4-.3.7-.4.3-.1.7-.2 1.2-.2.5-.1 1.1-.1 1.9-.1.8 0 1.4 0 1.9.1s.9.1 1.2.2c.3.1.5.2.6.4.1.2.2.3.2.5v37zm-12.7-11.9c0 1.9-.3 3.5-.9 5.1-.6 1.5-1.5 2.9-2.7 4-1.2 1.1-2.8 2.1-4.8 2.7-2 .7-4.7 1-8.1 1h-9.2c-.3 0-.7 0-.9-.1-.3-.1-.5-.2-.8-.5-.2-.2-.4-.5-.5-.8-.1-.3-.2-.7-.2-1.1V142c0-.2.1-.4.2-.5.1-.2.4-.3.7-.4.3-.1.7-.2 1.2-.2.5-.1 1.1-.1 1.9-.1.8 0 1.4 0 1.9.1s.9.1 1.2.2c.3.1.5.2.6.4.1.2.2.3.2.5v13.5h4.9c2.9 0 5.3.2 7 .8 1.7.5 3.2 1.2 4.4 2.2 1.2 1 2.2 2.2 2.8 3.7.8 1.6 1.1 3.2 1.1 5.1zm-8.2.6c0-1-.1-1.8-.4-2.6-.3-.8-.7-1.4-1.3-2-.6-.5-1.3-1-2.2-1.3-.9-.3-2.2-.5-4-.5h-4.1v12.4h4.2c1.8 0 3.2-.2 4.2-.6.9-.4 1.7-.9 2.2-1.4.5-.6.9-1.2 1.1-2 .2-.5.3-1.3.3-2zm75 11.2c0 .2-.1.4-.2.5-.1.2-.3.3-.6.4-.3.1-.7.2-1.2.2-.5.1-1.1.1-1.8.1s-1.3 0-1.8-.1-.9-.1-1.2-.2c-.3-.1-.5-.2-.6-.4-.1-.2-.2-.4-.2-.5v-31.8h-.1l-11.3 31.8c-.1.3-.2.5-.4.6-.2.2-.4.3-.7.4-.3.1-.7.2-1.2.2h-1.8c-.7 0-1.3 0-1.8-.1s-.9-.1-1.2-.2c-.3-.1-.6-.2-.7-.4-.2-.2-.3-.4-.4-.6l-10.9-31.8h-.1V179c0 .2-.1.4-.2.5-.1.2-.3.3-.6.4-.3.1-.7.2-1.2.2-.5.1-1.1.1-1.8.1s-1.3 0-1.8-.1-.9-.1-1.2-.2c-.3-.1-.5-.2-.6-.4-.1-.2-.2-.4-.2-.5v-34.8c0-1 .3-1.8.8-2.4.5-.5 1.3-.8 2.2-.8h5.2c.9 0 1.7.1 2.4.2.7.2 1.2.4 1.7.8s.9.8 1.2 1.4c.3.6.6 1.3.8 2.1l8.4 23.3h.1l8.7-23.2c.3-.8.5-1.6.9-2.1.3-.6.7-1.1 1.1-1.4.4-.4.9-.6 1.5-.8.6-.2 1.2-.2 2-.2h5.4c.5 0 1 .1 1.4.2.4.1.7.3 1 .6.3.3.4.6.6 1 .1.4.2.8.2 1.4v34.8h.2zm35.5-4.8v1.3c0 .4-.1.7-.1.9-.1.3-.1.5-.2.7-.1.2-.3.4-.5.6-.2.2-.6.5-1.3.9-.6.4-1.4.7-2.3 1-.9.3-2 .6-3.1.8-1.2.2-2.5.3-3.8.3-2.7 0-5.1-.4-7.2-1.2-2.2-.8-4-2.1-5.5-3.7s-2.7-3.7-3.5-6.1c-.8-2.5-1.2-5.3-1.2-8.6s.4-6.3 1.3-8.8c.9-2.6 2.1-4.7 3.7-6.5 1.6-1.8 3.5-3.1 5.7-4 2.2-.9 4.7-1.4 7.3-1.4 1.1 0 2.1.1 3.1.3 1 .2 1.9.4 2.8.7.9.3 1.6.6 2.3 1 .7.4 1.2.7 1.4 1 .3.3.5.5.6.7.1.2.2.4.2.7.1.3.1.6.1 1v1.4c0 .6 0 1.1-.1 1.5 0 .4-.1.8-.2 1-.1.3-.2.5-.4.6-.1.1-.3.2-.5.2-.3 0-.7-.2-1.1-.5-.5-.4-1.1-.7-1.8-1.2-.7-.4-1.6-.8-2.6-1.2-1-.4-2.2-.5-3.6-.5-1.5 0-2.9.3-4.1.9-1.2.6-2.2 1.5-3.1 2.7-.9 1.2-1.5 2.6-1.9 4.3-.4 1.7-.7 3.5-.7 5.6 0 2.3.2 4.3.7 6 .5 1.7 1.1 3.1 2 4.1.9 1.1 1.9 1.9 3.2 2.4 1.2.5 2.6.8 4.2.8 1.4 0 2.6-.2 3.6-.5s1.9-.7 2.6-1.1c.7-.4 1.3-.8 1.8-1.1.5-.3.8-.5 1.1-.5.2 0 .4 0 .5.1.1.1.2.2.3.5.1.2.1.6.2 1 .1.6.1 1.1.1 1.9zm34.7 4.8c0 .2-.1.4-.2.6-.1.2-.3.3-.6.4-.3.1-.7.2-1.3.2-.5.1-1.2.1-2 .1-.9 0-1.6 0-2.1-.1s-1-.1-1.3-.2c-.3-.1-.6-.3-.7-.5-.2-.2-.3-.4-.4-.7l-3.1-8.7c-.4-1.3-.9-2.3-1.4-3.2-.5-.9-1-1.6-1.6-2.1-.6-.5-1.2-.9-2-1.1-.8-.2-1.6-.3-2.5-.3h-1.8v15.7c0 .2-.1.4-.2.6-.1.2-.3.3-.6.4-.3.1-.7.2-1.2.2-.5.1-1.1.1-1.9.1-.8 0-1.4 0-1.9-.1s-.9-.1-1.2-.2c-.3-.1-.5-.2-.6-.4-.1-.2-.2-.3-.2-.6v-37c0-.2.1-.4.2-.6.1-.2.4-.3.6-.4.3-.1.7-.2 1.2-.2.5-.1 1.2-.1 1.9-.1.8 0 1.4 0 1.9.1s.9.1 1.2.2c.3.1.5.2.6.4.1.1.2.3.2.6v14.7h1.8c.9 0 1.7-.1 2.4-.4.7-.2 1.3-.6 1.9-1.1.6-.5 1.1-1.2 1.5-2 .5-.8.9-1.9 1.3-3.1l2.6-7.8c.1-.3.2-.5.4-.7.1-.2.4-.4.7-.5.3-.1.7-.2 1.2-.2.5-.1 1.2-.1 2.1-.1.8 0 1.4 0 1.9.1s.9.1 1.2.2c.3.1.5.2.6.4.1.2.2.3.2.6s0 .6-.1 1-.2.9-.5 1.5l-2.6 6.9c-.5 1.3-1 2.4-1.5 3.3-.5.9-1 1.7-1.5 2.3-.5.6-1.1 1.2-1.7 1.6-.6.4-1.2.7-2 1 .8.4 1.5.7 2.2 1.2.7.4 1.3 1 1.9 1.6.6.7 1.1 1.5 1.7 2.5.5 1 1.1 2.2 1.6 3.6l3.2 8.1c.3.8.5 1.4.6 1.7-.2.1-.1.3-.1.5zm37.9-1.9c.2.7.4 1.3.5 1.7.1.4 0 .7-.2 1-.2.2-.6.3-1.2.4-.6.1-1.3.1-2.3.1h-2.4c-.6 0-1-.1-1.3-.2-.3-.1-.5-.2-.6-.4l-.3-.6-2.6-7.9h-14.7l-2.5 7.6c-.1.3-.2.5-.3.7-.1.2-.3.3-.6.5-.3.1-.7.2-1.2.2s-1.2.1-2.1.1c-.9 0-1.6 0-2.2-.1-.5-.1-.9-.2-1.1-.4-.2-.2-.3-.6-.2-1 .1-.4.2-1 .5-1.7l12-34.7c.1-.3.3-.6.4-.8.2-.2.4-.4.8-.5.4-.1.8-.2 1.5-.2h5.3c.7 0 1.3.1 1.6.2s.7.3.8.5c.2.2.3.5.4.9l12 34.6zm-18-28.7l-5.5 16.6h11l-5.5-16.6zm50.4 30.7c0 .2-.1.4-.2.5-.1.2-.3.3-.6.4-.3.1-.7.2-1.2.2-.5.1-1.2.1-1.9.1-.8 0-1.4 0-1.9-.1s-.9-.1-1.2-.2c-.3-.1-.5-.2-.7-.4-.1-.2-.2-.3-.2-.5v-14.6h-3c-1.2 0-2.1.1-2.8.4-.6.2-1.2.6-1.7 1.1-.5.5-.9 1.1-1.3 1.9-.4.8-.8 1.6-1.1 2.7l-3 8.5c-.1.2-.2.4-.4.6-.2.2-.4.3-.7.4-.3.1-.8.2-1.3.2s-1.2.1-2.1.1c-.9 0-1.6 0-2.2-.1-.5-.1-.9-.1-1.2-.3-.3-.1-.5-.2-.5-.4-.1-.1-.1-.3-.1-.5s0-.5.1-.7c.1-.3.2-.7.4-1.3l2.9-7.7c.4-1 .8-1.9 1.2-2.6.4-.7.8-1.4 1.3-2 .5-.6 1-1.1 1.6-1.5.6-.4 1.2-.7 1.8-1-1.2-.3-2.3-.8-3.3-1.3-1-.6-1.8-1.2-2.4-2-.6-.8-1.1-1.7-1.5-2.8-.3-1-.5-2.2-.5-3.5 0-1.8.3-3.4.9-4.8.6-1.4 1.5-2.7 2.7-3.7 1.2-1 2.7-1.8 4.5-2.3 1.8-.6 4.3-.8 7.5-.8h9.6c.6 0 1.2.2 1.6.6.5.4.7 1 .7 1.9v35.5h.2zm-7.9-32h-4.1c-1.7 0-3 .1-3.9.4-.8.3-1.5.6-2.1 1.1-.5.5-.9 1.1-1.2 1.8-.2.7-.4 1.5-.4 2.3 0 .8.1 1.6.4 2.3.3.7.7 1.3 1.2 1.8s1.2.9 2.1 1.2c.9.3 2.1.4 3.6.4h4.2v-11.3h.2zm57.5 27.1v1.3c0 .4-.1.7-.1.9-.1.3-.1.5-.2.7-.1.2-.3.4-.5.6-.2.2-.7.5-1.3.9-.6.4-1.4.7-2.3 1-.9.3-2 .6-3.1.8-1.2.2-2.5.3-3.8.3-2.7 0-5.1-.4-7.2-1.2-2.2-.8-4-2.1-5.5-3.7s-2.7-3.7-3.5-6.1c-.8-2.5-1.2-5.3-1.2-8.6s.4-6.3 1.3-8.8c.9-2.6 2.1-4.7 3.7-6.5 1.6-1.8 3.5-3.1 5.7-4 2.2-.9 4.7-1.4 7.3-1.4 1.1 0 2.1.1 3.1.3 1 .2 1.9.4 2.8.7.9.3 1.6.6 2.3 1 .7.4 1.2.7 1.4 1 .3.3.5.5.6.7.1.2.2.4.2.7.1.3.1.6.1 1v1.4c0 .6 0 1.1-.1 1.5 0 .4-.1.8-.2 1-.1.3-.2.5-.4.6-.1.1-.3.2-.5.2-.3 0-.7-.2-1.1-.5-.5-.4-1.1-.7-1.8-1.2-.7-.4-1.6-.8-2.6-1.2-1-.4-2.2-.5-3.6-.5-1.5 0-2.9.3-4.1.9-1.2.6-2.2 1.5-3.1 2.7-.9 1.2-1.5 2.6-1.9 4.3-.4 1.7-.7 3.5-.7 5.6 0 2.3.2 4.3.7 6 .5 1.7 1.1 3.1 2 4.1.9 1.1 1.9 1.9 3.2 2.4 1.2.5 2.6.8 4.2.8 1.4 0 2.6-.2 3.6-.5s1.9-.7 2.6-1.1c.7-.4 1.3-.8 1.8-1.1.5-.3.8-.5 1.1-.5.2 0 .4 0 .5.1.1.1.2.2.3.5.1.2.1.6.2 1 0 .6.1 1.1.1 1.9zm46.6 4.9c0 .2-.1.4-.2.5-.1.2-.4.3-.6.4-.3.1-.7.2-1.2.2-.5.1-1.2.1-1.9.1-.8 0-1.4 0-1.9-.1s-.9-.1-1.2-.2c-.3-.1-.5-.2-.7-.4-.1-.2-.2-.3-.2-.5v-37c0-.2.1-.4.2-.5.1-.2.4-.3.7-.4.3-.1.7-.2 1.2-.2.5-.1 1.1-.1 1.9-.1.8 0 1.4 0 1.9.1s.9.1 1.2.2c.3.1.5.2.6.4.1.2.2.3.2.5v37zm-12.8-11.9c0 1.9-.3 3.5-.9 5.1-.6 1.5-1.5 2.9-2.7 4-1.2 1.1-2.8 2.1-4.8 2.7-2 .7-4.7 1-8.1 1h-9.2c-.3 0-.7 0-.9-.1-.3-.1-.5-.2-.8-.5-.2-.2-.4-.5-.5-.8-.1-.3-.2-.7-.2-1.1V142c0-.2.1-.4.2-.5.1-.2.4-.3.7-.4.3-.1.7-.2 1.2-.2.5-.1 1.1-.1 1.9-.1.8 0 1.4 0 1.9.1s.9.1 1.2.2c.3.1.5.2.6.4.1.2.2.3.2.5v13.5h4.9c2.9 0 5.3.2 7 .8 1.7.5 3.2 1.2 4.4 2.2 1.2 1 2.2 2.2 2.8 3.7.8 1.6 1.1 3.2 1.1 5.1zm-8.2.6c0-1-.1-1.8-.4-2.6-.3-.8-.7-1.4-1.3-2-.6-.5-1.3-1-2.2-1.3-.9-.3-2.2-.5-4-.5h-4.1v12.4h4.2c1.8 0 3.2-.2 4.2-.6.9-.4 1.7-.9 2.2-1.4.5-.6.9-1.2 1.1-2 .2-.5.3-1.3.3-2zm56.2-14.9c0 2.2-.3 4.1-1 5.8-.7 1.7-1.7 3.1-3 4.3-1.3 1.2-2.9 2-4.8 2.6-1.9.6-4.2.9-6.7.9h-3.3v12.5c0 .2-.1.4-.2.5-.1.2-.4.3-.6.4-.3.1-.7.2-1.2.2-.5.1-1.1.1-1.9.1-.8 0-1.4 0-1.9-.1s-.9-.1-1.2-.2c-.3-.1-.5-.2-.6-.4-.1-.2-.2-.4-.2-.5v-35.2c0-.9.2-1.7.7-2.1.5-.5 1.1-.7 1.9-.7h9.2c.9 0 1.8 0 2.6.1s1.8.2 3 .5c1.2.2 2.4.7 3.5 1.3 1.2.6 2.2 1.4 3.1 2.4.8 1 1.5 2.1 1.9 3.4.5 1.1.7 2.6.7 4.2zm-8.3.5c0-1.4-.2-2.5-.7-3.4-.5-.9-1.1-1.5-1.8-2-.7-.4-1.5-.7-2.2-.8-.8-.1-1.6-.2-2.4-.2h-3.4v13.3h3.6c1.3 0 2.3-.2 3.2-.5.9-.3 1.6-.8 2.1-1.4.5-.6 1-1.3 1.2-2.2.3-.8.4-1.7.4-2.8zm45 25.6c0 .2-.1.4-.2.5-.1.2-.3.3-.6.4-.3.1-.7.2-1.2.2-.5.1-1.1.1-1.9.1-.8 0-1.4 0-1.9-.1s-.9-.1-1.2-.2c-.3-.1-.5-.2-.6-.4-.1-.2-.2-.4-.2-.5v-15.8h-14.7v15.8c0 .2-.1.4-.2.5-.1.2-.3.3-.6.4-.3.1-.7.2-1.2.2-.5.1-1.1.1-1.9.1-.8 0-1.4 0-1.9-.1s-.9-.1-1.2-.2c-.3-.1-.5-.2-.6-.4-.1-.2-.2-.4-.2-.5v-36.9c0-.2.1-.4.2-.5.1-.2.4-.3.6-.4.3-.1.7-.2 1.2-.2.5-.1 1.2-.1 1.9-.1.8 0 1.4 0 1.9.1s.9.1 1.2.2c.3.1.5.2.6.4.1.2.2.4.2.5v14.4H504v-14.4c0-.2.1-.4.2-.5.1-.2.3-.3.6-.4.3-.1.7-.2 1.2-.2.5-.1 1.2-.1 1.9-.1.8 0 1.4 0 1.9.1s.9.1 1.2.2c.3.1.5.2.6.4.1.2.2.4.2.5v36.9h.2zm40.5-1.9c.2.7.4 1.3.5 1.7.1.4 0 .7-.2 1-.2.2-.6.3-1.2.4-.6.1-1.3.1-2.3.1h-2.4c-.6 0-1-.1-1.3-.2-.3-.1-.5-.2-.6-.4l-.3-.6-2.6-7.9h-14.7l-2.5 7.6c-.1.3-.2.5-.3.7-.1.2-.3.3-.6.5-.3.1-.7.2-1.2.2s-1.2.1-2.1.1c-.9 0-1.7 0-2.2-.1-.5-.1-.9-.2-1.1-.4-.2-.2-.3-.6-.2-1 .1-.4.2-1 .5-1.7l12-34.7c.1-.3.3-.6.4-.8.2-.2.4-.4.8-.5.4-.1.8-.2 1.5-.2h5.3c.7 0 1.3.1 1.6.2.4.1.7.3.8.5.2.2.3.5.4.9l12 34.6zm-17.9-28.7l-5.5 16.6h11l-5.5-16.6zm50.3 30.7c0 .2-.1.4-.2.5-.1.2-.3.3-.6.4-.3.1-.7.2-1.2.2-.5.1-1.2.1-1.9.1-.8 0-1.4 0-1.9-.1s-.9-.1-1.2-.2c-.3-.1-.5-.2-.7-.4-.1-.2-.2-.3-.2-.5v-14.6h-2.9c-1.2 0-2.1.1-2.8.4-.6.2-1.2.6-1.7 1.1-.5.5-.9 1.1-1.3 1.9-.4.8-.8 1.6-1.1 2.7l-3 8.5c-.1.2-.2.4-.4.6-.2.2-.4.3-.7.4-.3.1-.8.2-1.3.2s-1.2.1-2.1.1c-.9 0-1.6 0-2.2-.1-.5-.1-.9-.1-1.2-.3-.3-.1-.5-.2-.5-.4-.1-.1-.1-.3-.1-.5s0-.5.1-.7c.1-.3.2-.7.4-1.3l2.9-7.7c.4-1 .8-1.9 1.2-2.6.4-.7.8-1.4 1.3-2 .5-.6 1-1.1 1.6-1.5.6-.4 1.2-.7 1.8-1-1.2-.3-2.4-.8-3.3-1.3-1-.6-1.8-1.2-2.4-2-.6-.8-1.1-1.7-1.5-2.8-.3-1-.5-2.2-.5-3.5 0-1.8.3-3.4.9-4.8.6-1.4 1.5-2.7 2.7-3.7 1.2-1 2.7-1.8 4.5-2.3 1.8-.6 4.3-.8 7.5-.8h9.6c.6 0 1.2.2 1.6.6.5.4.7 1 .7 1.9v35.5h.1zm-7.9-32h-4.1c-1.7 0-3 .1-3.9.4-.8.3-1.5.6-2.1 1.1-.5.5-.9 1.1-1.2 1.8-.2.7-.4 1.5-.4 2.3 0 .8.1 1.6.4 2.3.3.7.7 1.3 1.2 1.8s1.2.9 2.1 1.2c.9.3 2.1.4 3.6.4h4.2v-11.3h.2zm59.4 31.9c0 .2-.1.4-.2.6-.1.2-.3.3-.6.4-.3.1-.7.2-1.3.2-.5.1-1.2.1-2 .1-.9 0-1.6 0-2.1-.1s-1-.1-1.3-.2c-.3-.1-.6-.3-.7-.5-.2-.2-.3-.4-.4-.7l-3.1-8.7c-.4-1.3-.9-2.3-1.4-3.2-.5-.9-1-1.6-1.6-2.1-.6-.5-1.2-.9-2-1.1-.8-.2-1.6-.3-2.5-.3h-1.8v15.7c0 .2-.1.4-.2.6-.1.2-.3.3-.6.4-.3.1-.7.2-1.2.2-.5.1-1.1.1-1.9.1-.8 0-1.4 0-1.9-.1s-.9-.1-1.2-.2c-.3-.1-.5-.2-.7-.4-.1-.2-.2-.3-.2-.6v-37c0-.2.1-.4.2-.6.1-.2.4-.3.7-.4.3-.1.7-.2 1.2-.2.5-.1 1.2-.1 1.9-.1.8 0 1.4 0 1.9.1s.9.1 1.2.2c.3.1.5.2.6.4.1.1.2.3.2.6v14.7h1.8c.9 0 1.7-.1 2.4-.4.7-.2 1.3-.6 1.9-1.1.6-.5 1.1-1.2 1.5-2 .5-.8.9-1.9 1.3-3.1l2.6-7.8c.1-.3.2-.5.4-.7.1-.2.4-.4.7-.5.3-.1.7-.2 1.2-.2.5-.1 1.2-.1 2.1-.1.8 0 1.4 0 1.9.1s.9.1 1.2.2c.3.1.5.2.6.4.1.2.2.3.2.6s0 .6-.1 1-.2.9-.5 1.5l-2.6 6.9c-.5 1.3-1 2.4-1.5 3.3-.5.9-1 1.7-1.5 2.3-.5.6-1.1 1.2-1.7 1.6-.6.4-1.2.7-2 1 .8.4 1.5.7 2.2 1.2.7.4 1.3 1 1.9 1.6.6.7 1.1 1.5 1.7 2.5.5 1 1.1 2.2 1.6 3.6l3.2 8.1c.3.8.5 1.4.6 1.7-.1.1-.1.3-.1.5zm39.4-18.9c0 3.2-.4 6.1-1.2 8.7-.8 2.6-2 4.7-3.6 6.5-1.6 1.8-3.6 3.1-5.9 4.1-2.3.9-5.1 1.4-8.1 1.4s-5.7-.4-7.9-1.2c-2.3-.8-4.2-2-5.7-3.6s-2.6-3.7-3.4-6.2c-.8-2.5-1.1-5.5-1.1-8.9 0-3.2.4-6 1.2-8.5.8-2.5 2-4.7 3.6-6.4 1.6-1.8 3.6-3.1 5.9-4.1 2.3-.9 5.1-1.4 8.2-1.4 3 0 5.6.4 7.8 1.2 2.3.8 4.2 2 5.7 3.6s2.7 3.7 3.4 6.2c.8 2.3 1.1 5.2 1.1 8.6zm-8.3.4c0-2.1-.2-3.9-.5-5.6-.3-1.7-.9-3.1-1.6-4.3-.8-1.2-1.8-2.1-3.1-2.8-1.3-.6-2.9-1-4.8-1s-3.6.4-4.9 1.1c-1.3.7-2.4 1.7-3.2 2.9-.8 1.2-1.4 2.7-1.7 4.3-.3 1.6-.5 3.4-.5 5.2 0 2.1.2 4.1.5 5.8.3 1.7.9 3.2 1.6 4.4.8 1.2 1.8 2.1 3.1 2.8 1.3.6 2.9.9 4.9.9 1.9 0 3.6-.4 4.9-1.1 1.3-.7 2.4-1.7 3.2-3 .8-1.2 1.4-2.7 1.7-4.4.2-1.6.4-3.3.4-5.2zm60.6 18.5c0 .2-.1.4-.2.5-.1.2-.3.3-.6.4-.3.1-.7.2-1.2.2-.5.1-1.1.1-1.8.1s-1.3 0-1.8-.1-.9-.1-1.2-.2c-.3-.1-.5-.2-.6-.4-.1-.2-.2-.4-.2-.5v-31.8h-.1l-11.3 31.8c-.1.3-.2.5-.4.6-.2.2-.4.3-.7.4-.3.1-.7.2-1.2.2H705c-.7 0-1.3 0-1.8-.1s-.9-.1-1.2-.2c-.3-.1-.6-.2-.7-.4-.2-.2-.3-.4-.4-.6L690 147.2h-.1V179c0 .2-.1.4-.2.5-.1.2-.3.3-.6.4-.3.1-.7.2-1.2.2-.5.1-1.1.1-1.8.1s-1.3 0-1.8-.1-.9-.1-1.2-.2c-.3-.1-.5-.2-.6-.4-.1-.2-.2-.4-.2-.5v-34.8c0-1 .3-1.8.8-2.4.5-.5 1.3-.8 2.2-.8h5.2c.9 0 1.7.1 2.4.2.7.2 1.2.4 1.7.8s.9.8 1.2 1.4c.3.6.6 1.3.8 2.1l8.4 23.3h.1l8.7-23.2c.3-.8.5-1.6.9-2.1.3-.6.7-1.1 1.1-1.4.4-.4.9-.6 1.5-.8.6-.2 1.2-.2 2-.2h5.4c.5 0 1 .1 1.4.2.4.1.7.3 1 .6.3.3.4.6.6 1 .1.4.2.8.2 1.4v34.8h.2zm38.9.1c0 .2-.1.4-.2.5-.1.2-.3.3-.6.4-.3.1-.7.2-1.2.2-.5.1-1.2.1-1.9.1-.8 0-1.4 0-1.9-.1s-.9-.1-1.2-.2c-.3-.1-.5-.2-.6-.4-.1-.2-.2-.3-.2-.5v-31.5h-14.6v31.5c0 .2-.1.4-.2.5-.1.2-.4.3-.6.4-.3.1-.7.2-1.2.2-.5.1-1.1.1-1.9.1-.8 0-1.4 0-1.9-.1s-.9-.1-1.2-.2c-.3-.1-.5-.2-.6-.4-.1-.2-.2-.3-.2-.5v-35.6c0-.8.2-1.5.6-1.9.4-.4 1-.6 1.7-.6h25.8c.7 0 1.3.2 1.7.6.4.4.6 1 .6 1.9v35.6h-.2zm40.6-2c.2.7.4 1.3.5 1.7.1.4 0 .7-.2 1-.2.2-.6.3-1.2.4-.6.1-1.3.1-2.3.1H802c-.6 0-1-.1-1.3-.2-.3-.1-.5-.2-.6-.4l-.3-.6-2.6-7.9h-14.7l-2.5 7.6c-.1.3-.2.5-.3.7-.1.2-.3.3-.6.5-.3.1-.7.2-1.2.2s-1.2.1-2.1.1c-.9 0-1.7 0-2.2-.1-.5-.1-.9-.2-1.1-.4-.2-.2-.3-.6-.2-1 .1-.4.2-1 .5-1.7l12-34.7c.1-.3.3-.6.4-.8.2-.2.4-.4.8-.5.4-.1.8-.2 1.5-.2h5.3c.7 0 1.3.1 1.7.2.4.1.7.3.8.5.2.2.3.5.4.9l11.9 34.6zm-18-28.7l-5.5 16.6h11l-5.5-16.6zm53.9 30.6c0 .2-.1.4-.2.5-.1.2-.4.3-.7.4-.3.1-.7.2-1.2.2-.5.1-1.1.1-1.9.1-.8 0-1.4 0-1.9-.1s-.9-.1-1.2-.2c-.3-.1-.5-.2-.6-.4-.1-.2-.2-.4-.2-.5v-15.8H821v15.8c0 .2-.1.4-.2.5-.1.2-.3.3-.6.4-.3.1-.7.2-1.2.2-.5.1-1.1.1-1.9.1-.8 0-1.4 0-1.9-.1s-.9-.1-1.2-.2c-.3-.1-.5-.2-.6-.4-.1-.2-.2-.4-.2-.5v-36.9c0-.2.1-.4.2-.5.1-.2.4-.3.6-.4.3-.1.7-.2 1.2-.2.5-.1 1.2-.1 1.9-.1.8 0 1.4 0 1.9.1s.9.1 1.2.2c.3.1.5.2.6.4.1.2.2.4.2.5v14.4h14.7v-14.4c0-.2.1-.4.2-.5.1-.2.3-.3.6-.4.3-.1.7-.2 1.2-.2.5-.1 1.2-.1 1.9-.1.8 0 1.4 0 1.9.1s.9.1 1.2.2c.3.1.5.2.7.4.1.2.2.4.2.5v36.9h-.1zm40.4.1c0 .2-.1.4-.2.5-.1.2-.4.3-.6.4-.3.1-.7.2-1.2.2-.5.1-1.2.1-1.9.1-.8 0-1.4 0-1.9-.1s-.9-.1-1.2-.2c-.3-.1-.5-.2-.6-.4-.1-.2-.2-.3-.2-.5V156.3c0-.8.1-1.4.1-2h-.2c-.2.3-.4.6-.6 1s-.5.8-.7 1.2c-.3.4-.5.8-.8 1.3-.3.4-.6.9-.8 1.3l-13.6 20.3c-.2.2-.3.4-.5.6-.2.2-.4.3-.7.4-.3.1-.6.2-1 .2h-1.5c-.8 0-1.4 0-1.9-.1s-.9-.1-1.1-.2c-.3-.1-.5-.2-.6-.4-.1-.2-.2-.4-.2-.6v-37c0-.2.1-.4.2-.5.1-.2.4-.3.7-.4.3-.1.7-.2 1.2-.2.5-.1 1.1-.1 1.9-.1.8 0 1.4 0 1.9.1s.9.1 1.2.2c.3.1.5.2.6.4.1.2.2.3.2.5v22.8c0 .7-.1 1.4-.1 2.1h.1c.3-.6.8-1.3 1.3-2.2.5-.8 1.1-1.7 1.6-2.5l13.6-20.3c.1-.2.3-.4.5-.5.2-.2.4-.3.6-.4.3-.1.6-.2 1-.2s.9-.1 1.5-.1c.8 0 1.4 0 1.9.1s.8.1 1.1.2c.3.1.5.2.6.4.1.2.2.3.2.6v36.9h.1zm35.4 0c0 .2-.1.4-.2.5-.1.2-.3.3-.6.4-.3.1-.7.2-1.2.2-.5.1-1.2.1-1.9.1-.8 0-1.4 0-1.9-.1s-.9-.1-1.2-.2c-.3-.1-.5-.2-.7-.4-.1-.2-.2-.3-.2-.5v-14.6h-2.9c-1.2 0-2.1.1-2.8.4-.6.2-1.2.6-1.7 1.1-.5.5-.9 1.1-1.3 1.9-.4.8-.8 1.6-1.1 2.7l-3 8.5c-.1.2-.2.4-.4.6-.2.2-.4.3-.7.4-.3.1-.8.2-1.3.2s-1.2.1-2.1.1c-.9 0-1.6 0-2.2-.1-.5-.1-.9-.1-1.2-.3-.3-.1-.5-.2-.5-.4-.1-.1-.1-.3-.1-.5s0-.5.1-.7c.1-.3.2-.7.4-1.3l2.9-7.7c.4-1 .8-1.9 1.2-2.6.4-.7.8-1.4 1.3-2 .5-.6 1-1.1 1.6-1.5.6-.4 1.2-.7 1.8-1-1.2-.3-2.4-.8-3.3-1.3-1-.6-1.8-1.2-2.4-2-.6-.8-1.1-1.7-1.5-2.8-.3-1-.5-2.2-.5-3.5 0-1.8.3-3.4.9-4.8.6-1.4 1.5-2.7 2.7-3.7 1.2-1 2.7-1.8 4.5-2.3 1.8-.6 4.3-.8 7.5-.8h9.6c.6 0 1.2.2 1.6.6.5.4.7 1 .7 1.9v35.5h.1zm-7.9-32h-4.1c-1.7 0-3 .1-3.9.4-.8.3-1.5.6-2.1 1.1-.5.5-.9 1.1-1.2 1.8-.2.7-.4 1.5-.4 2.3 0 .8.1 1.6.4 2.3.3.7.7 1.3 1.2 1.8s1.2.9 2.1 1.2c.9.3 2.1.4 3.6.4h4.2v-11.3h.2z"/><path class="fst0" d="M395.2 74.4h6.6v11h-6.6v-11zm-103.8-22l.4 5.3c-10.9 3.1-11 13.5-7.6 19.5-2.4 3.4-3.2 1.7-2.4 8l-1.7.1 9.1.2c-.8 1.1-1.8 1.7-.3 3.5l13.4-3.5c-.1 4.6.4 5.1 2.3 8.1 3 0 5.8-1.1 8.5-1.8 4.1-1.1 4.6-1.9 6.3-4.8 3.7.8 6 3.8 9.8 3.5 3.4-.3 6.4-3.6 9.2-4.9 4.6 4.8 11 3.1 18.8 3.6 3.7.2 6.3 1 10.5.9 3.7-.1 7.6-1.1 10.4-1.2.1-4.5-1.6-4.7-1.5-9.4.1-3.8 1.9-6.1 2.9-8.5l-18.7-.8V74c-1.8 1.3-3.8 2.7-5.8 3.8-3.8-1.8.6-1.6-5.2-2.8-9.5-2-13.3-12.3-13.3-12.3l-9.9-3.3c-2.8 3-2.5 4.8-5.5 6.7l-1.3 5.2-5.8-.8c-3.2 9-1.6 2.2-6.8 6.1-4.1 3-4.9 7.4-5.5 8.2.2-16.5.2-9.7-2.5-21.4l-.8-5c.3-2.1-1 .1.6-1.6-.8-3.6 1.8-5.8 1.8-11.1-1-.7-1.2-.5-1.9-.9l-1.4-1c-.1-.1-.3-.2-.5-.4.5-11.1 6.6-8.1-1.5-23.1-2-3.6-.9-4.3-.9-8.5l-5.6-.4-1.4 4.9c-.7 8.9 2.8 8.8-.2 15.6-2.8 6.6-1.7 15.1 4.5 17.5l-.5 3z"/></symbol></svg>