<?xml version="1.0" encoding="utf-8"?>
<!-- Generator: Adobe Illustrator 22.1.0, SVG Export Plug-In . SVG Version: 6.00 Build 0)  -->
<svg version="1.1" id="Capa_1" xmlns="http://www.w3.org/2000/svg" xmlns:xlink="http://www.w3.org/1999/xlink" x="0px" y="0px"
	 viewBox="0 0 394 512" style="enable-background:new 0 0 394 512;" xml:space="preserve">
<g>
	<path d="M372,159c0,0-137-137-137-137C221.4,8.4,202.7,0,182,0H0v512h394V212C394,191.3,385.6,172.6,372,159z M257,86.4l50.6,50.6
		H257V86.4z M364,482H30V30h152c24.8,0,45,20.2,45,45v92h92c24.8,0,45,20.2,45,45V482z"/>
	<path d="M75,407h176.5v30H75V407z"/>
	<path d="M75,347h244v30H75V347z"/>
	<path d="M75,287h244v30H75V287z"/>
	<path d="M75,227h244v30H75V227z"/>
</g>
</svg>
