<?xml version="1.0" encoding="utf-8"?>
<!-- Generator: Adobe Illustrator 22.1.0, SVG Export Plug-In . SVG Version: 6.00 Build 0)  -->
<svg version="1.1" id="Layer_1" xmlns="http://www.w3.org/2000/svg" xmlns:xlink="http://www.w3.org/1999/xlink" x="0px" y="0px"
	 viewBox="0 0 512 512" style="enable-background:new 0 0 512 512;" xml:space="preserve">
<path d="M504.5,375H7.5c-4.2,0-7.5,3.4-7.5,7.5v80.2c0,4.1,3.4,7.5,7.5,7.5h332.6c4.2,0,7.5-3.4,7.5-7.5c0-4.2-3.4-7.5-7.5-7.5H15
	V390h33.1v16.5c0,4.1,3.4,7.5,7.5,7.5c4.1,0,7.5-3.4,7.5-7.5V390h41.1v16.5c0,4.1,3.4,7.5,7.5,7.5s7.5-3.4,7.5-7.5V390h41.1v16.5
	c0,4.1,3.4,7.5,7.5,7.5s7.5-3.4,7.5-7.5V390h41.1v16.5c0,4.1,3.4,7.5,7.5,7.5s7.5-3.4,7.5-7.5V390h41.1v16.5c0,4.1,3.4,7.5,7.5,7.5
	s7.5-3.4,7.5-7.5V390h41.1v16.5c0,4.1,3.4,7.5,7.5,7.5s7.5-3.4,7.5-7.5V390h41.1v16.5c0,4.1,3.4,7.5,7.5,7.5s7.5-3.4,7.5-7.5V390
	h41.1v16.5c0,4.1,3.4,7.5,7.5,7.5c4.2,0,7.5-3.4,7.5-7.5V390H497v65.1H376.2c-4.2,0-7.5,3.4-7.5,7.5c0,4.1,3.4,7.5,7.5,7.5h128.3
	c4.2,0,7.5-3.4,7.5-7.5v-80.2C512,378.4,508.6,375,504.5,375z"/>
<path d="M95.7,309.9h122c6.6,0,10-8.3,5.2-12.9l-122-118.6c-4.7-4.5-12.8-1.1-12.8,5.4v118.6C88.2,306.5,91.5,309.9,95.7,309.9z
	 M103.2,201.5l96,93.3h-96V201.5z"/>
<path d="M47.6,358h288.6c6.6,0,10-8.3,5.2-12.9L52.8,64.5c-4.7-4.5-12.8-1.1-12.8,5.4v280.5C40.1,354.6,43.4,358,47.6,358z
	 M317.6,343h-30.1v-16.5c0-4.1-3.4-7.5-7.5-7.5s-7.5,3.4-7.5,7.5V343h-33.1v-16.5c0-4.1-3.4-7.5-7.5-7.5s-7.5,3.4-7.5,7.5V343h-33.1
	v-16.5c0-4.1-3.4-7.5-7.5-7.5s-7.5,3.4-7.5,7.5V343h-33.1v-16.5c0-4.1-3.4-7.5-7.5-7.5s-7.5,3.4-7.5,7.5V343H95.2v-16.5
	c0-4.1-3.4-7.5-7.5-7.5s-7.5,3.4-7.5,7.5V343h-25v-41.1h16.5c4.2,0,7.5-3.4,7.5-7.5c0-4.1-3.4-7.5-7.5-7.5H55.1v-33.1h16.5
	c4.2,0,7.5-3.4,7.5-7.5c0-4.1-3.4-7.5-7.5-7.5H55.1v-33.1h16.5c4.2,0,7.5-3.4,7.5-7.5c0-4.1-3.4-7.5-7.5-7.5H55.1v-33.1h16.5
	c4.2,0,7.5-3.4,7.5-7.5c0-4.1-3.4-7.5-7.5-7.5H55.1V87.7L317.6,343z"/>
<path d="M399.4,355.8c2.9,2.9,7.7,2.9,10.6,0c71.7-71.7,71.7-188.3,0-260s-188.3-71.7-260,0c-2.9,2.9-2.9,7.7,0,10.6L399.4,355.8z
	 M399.4,106.4c64,64,65.8,167.2,5.2,233.3L387,322.1l11.7-11.7c2.9-2.9,2.9-7.7,0-10.6c-2.9-2.9-7.7-2.9-10.6,0l-11.7,11.7l-29.1-29
	l11.7-11.7c2.9-2.9,2.9-7.7,0-10.6c-2.9-2.9-7.7-2.9-10.6,0l-11.7,11.7l-29-29l11.7-11.7c2.9-2.9,2.9-7.7,0-10.6
	c-2.9-2.9-7.7-2.9-10.6,0l-11.7,11.7l-29-29.1l11.7-11.7c2.9-2.9,2.9-7.7,0-10.6c-2.9-2.9-7.7-2.9-10.6,0l-11.7,11.7l-29-29.1
	l11.7-11.7c2.9-2.9,2.9-7.7,0-10.6c-2.9-2.9-7.7-2.9-10.6,0l-11.7,11.7l-29-29l11.7-11.7c2.9-2.9,2.9-7.7,0-10.6
	c-2.9-2.9-7.7-2.9-10.6,0L178,113.1l-11.9-11.9C232.3,40.6,335.4,42.3,399.4,106.4z"/>
<path d="M392.8,281.1c1.4,1.4,3.3,2.2,5.3,2.2c0.5,0,1,0,1.4-0.1c2.5-0.5,4.5-2.1,5.5-4.4c10.4-24.6,13.3-51.6,8.4-77.9
	c-5-27-18-51.6-37.4-71.1S332,97.4,305,92.4c-26.4-4.9-53.3-2-77.9,8.4c-2.3,1-4,3-4.4,5.5c-0.5,2.5,0.3,5,2.1,6.8L392.8,281.1z
	 M365.4,140.4c32.2,32.2,43.3,79,29.7,121.8L243.6,110.7C286.4,97.1,333.2,108.2,365.4,140.4z"/>
</svg>
