<?xml version="1.0" encoding="utf-8"?>
<svg version="1.1" id="Layer_1" xmlns="http://www.w3.org/2000/svg" xmlns:xlink="http://www.w3.org/1999/xlink" x="0px" y="0px"
	 viewBox="0 0 220.9 6" style="enable-background:new 0 0 220.9 6; fill:#23bbdc;" xml:space="preserve">
<polygon class="st0" points="2.6,2.7 218.8,2.7 218.8,3.4 2.6,3.4 2.6,2.7 " />
<path class="st0" d="M26.2,3c-4.2,0.6-5.1,1-6.3,3c-1.2-2-2.2-2.5-6.3-3c4.2-0.6,5.1-1,6.3-3C21,2,22,2.5,26.2,3L26.2,3z" />
<path class="st0" d="M16.2,3c-3.2,0.4-3.9,0.8-4.8,2.3C10.4,3.8,9.7,3.5,6.5,3c3.2-0.4,3.9-0.8,4.8-2.3C12.3,2.2,13,2.6,16.2,3
	L16.2,3z" />
<path class="st0" d="M7.2,3C4.8,3.3,4.3,3.6,3.6,4.7C2.9,3.6,2.4,3.3,0,3c2.4-0.3,2.9-0.6,3.6-1.7C4.3,2.4,4.8,2.7,7.2,3L7.2,3z" />
<path class="st0" d="M194.7,3c4.2,0.6,5.1,1,6.3,3c1.2-2,2.2-2.5,6.3-3c-4.2-0.6-5.1-1-6.3-3C199.8,2,198.8,2.5,194.7,3L194.7,3z "/>
<path class="st0" d="M204.7,3c3.2,0.4,3.9,0.8,4.8,2.3c0.9-1.5,1.7-1.9,4.8-2.3c-3.2-0.4-3.9-0.8-4.8-2.3
	C208.6,2.2,207.8,2.6,204.7,3L204.7,3z" />
<path class="st0" d="M213.7,3c2.4,0.3,2.9,0.6,3.6,1.7c0.7-1.1,1.2-1.4,3.6-1.7c-2.4-0.3-2.9-0.6-3.6-1.7C216.6,2.4,216,2.7,213.7,3
	L213.7,3z" />
<path class="st0" d="M194.2,1.4l-83.8-0.6L26.6,1.5c0,0,67.1,0.6,83.7,0.6C127,2,194.2,1.4,194.2,1.4L194.2,1.4z" />
<path class="st0" d="M194.2,4.6L110.5,4L26.6,4.6c0,0,67.1,0.6,83.7,0.6C127,5.2,194.2,4.6,194.2,4.6L194.2,4.6z" />
</svg>
