<?xml version="1.0" encoding="utf-8"?>
<!-- Generator: Adobe Illustrator 22.1.0, SVG Export Plug-In . SVG Version: 6.00 Build 0)  -->
<svg version="1.1" id="Layer_1" xmlns="http://www.w3.org/2000/svg" xmlns:xlink="http://www.w3.org/1999/xlink" x="0px" y="0px"
	 viewBox="0 0 496 496" style="enable-background:new 0 0 496 496;" xml:space="preserve">
<path d="M344,144c-26.5,0-48,21.5-48,48s21.5,48,48,48s48-21.5,48-48S370.5,144,344,144z M344,224c-17.6,0-32-14.4-32-32
	s14.4-32,32-32c17.6,0,32,14.4,32,32S361.7,224,344,224z"/>
<path d="M344,280c-26.5,0-48,21.5-48,48s21.5,48,48,48s48-21.5,48-48S370.5,280,344,280z M352,358.9V344h-16v14.9
	c-11.2-2.9-20-11.7-22.9-22.9H328v-16h-14.9c2.9-11.2,11.7-20,22.9-22.9V312h16v-14.9c11.2,2.9,20,11.7,22.9,22.9H360v16h14.9
	C372,347.2,363.2,355.9,352,358.9z"/>
<path d="M448,136v24h-24v-40c0-19.3-13.8-35.5-32-39.2V0h-48v16h-32V0h-48v16h-32V0h-48v80h-40V64c0-8.8-7.2-16-16-16H64
	c-8.8,0-16,7.2-16,16v16H24C10.8,80,0,90.8,0,104v128c0,10.4,6.7,19.2,16,22.5V288h32v48h16v40h16v-40h16v-16h32v8h16v-32h-16v8H96
	v-16h32v-32h8c13.2,0,24-10.8,24-24v-16h80v176H16c-8.8,0-16,7.2-16,16v32c0,8.8,7.2,16,16,16h32v16c0,13.2,10.8,24,24,24l328,0
	c13.2,0,24-10.8,24-24V240h24v24h48V136H448z M376,16v64h-16V16H376z M344,80h-32V64h32V80z M344,32v16h-32V32H344z M296,16v64h-16
	V16H296z M264,80h-32V64h32V80z M264,32v16h-32V32H264z M200,16h16v64h-16V16z M176,96v72h-16V96H176z M64,64h64v16H64V64z M112,200
	H96v-64h16V200z M16,104c0-4.4,3.6-8,8-8h88v24H80v96h32v24H24c-4.4,0-8-3.6-8-8V104z M80,320H64v-32h16V320z M112,272H32v-16h80
	V272z M144,232c0,4.4-3.6,8-8,8h-8V96h16V232z M256,217.5c9.3,3.3,16,12.1,16,22.5v152h-16V217.5z M16,408h288l0,32H16V408z
	 M408,472c0,4.4-3.6,8-8,8l-328,0c-4.4,0-8-3.6-8-8v-16h240c8.8,0,16-7.2,16-16v-32c0-8.8-7.2-16-16-16h-16V240
	c0-22.1-17.9-40-40-40h-88v-16h32V96h192c13.2,0,24,10.8,24,24V472z M424,224v-48h24v48H424z M480,248h-16v-96h16V248z"/>
<path d="M336,184h16v16h-16V184z"/>
</svg>
