<?xml version="1.0" encoding="utf-8"?>
<!-- Generator: Adobe Illustrator 22.1.0, SVG Export Plug-In . SVG Version: 6.00 Build 0)  -->
<svg version="1.1" id="Layer_1" xmlns="http://www.w3.org/2000/svg" xmlns:xlink="http://www.w3.org/1999/xlink" x="0px" y="0px"
	 viewBox="0 0 220.9 119.7" style="enable-background:new 0 0 220.9 119.7;" xml:space="preserve">
<style type="text/css">
	.st0{fill:#19CFB6;}
	.st1{fill-rule:evenodd;clip-rule:evenodd;fill:#19CFB6;}
</style>
<path class="st0" d="M61.1,89L59,92.9h-0.5c0.4-0.9,0.6-1.5,0.6-1.8c0-0.4-0.4-0.5-1.1-0.5c-1.3,0-2.4,0.6-3.3,1.7
	c-0.7,0.9-1.3,1.9-1.8,3c-0.6,1.3-0.9,2.4-0.9,3.3c0,1.1,0.5,1.7,1.5,1.7c1.2,0,2.3-0.6,3.3-1.7c0.6-0.7,1.4-1.8,2.1-3.3
	c0.1,0.2,0.2,0.4,0.2,0.6c0,1.1-0.9,2.4-2.7,3.8c-1.7,1.3-3.2,2-4.4,2c-1.3,0-2-0.7-2-2.2c0-2.3,1.1-4.7,3.4-7
	c2.3-2.4,4.6-3.5,6.9-3.5C60.6,89,60.8,89,61.1,89L61.1,89z M73.2,89.5c0,0.2-0.1,0.6-0.4,1.1c-0.7-0.1-1.4-0.2-2.1-0.2
	c-1.9,0-3.7,0.5-5.4,1.6c-1.6,1-2.9,2.4-3.9,4.1c-0.5,1-0.8,2-0.8,2.9c0,0.8,0.3,1.2,0.9,1.2c0.5,0,1.2-0.4,2.1-1.3
	c2.4-2.2,3.9-4.8,4.6-7.9c0.4,0.3,0.6,0.7,0.6,1.4c0,1-0.5,2.1-1.5,3.3c0.5,0,1-0.2,1.8-0.4c-1,2.3-1.5,3.6-1.5,4
	c0,0.3,0.1,0.4,0.4,0.4c0.2,0,0.6-0.2,1.3-0.6l0.3,0.4c-1,0.8-2.5,1.4-4.3,1.9v-0.1c0-0.8,0.6-2.5,1.8-5.1c-1,1.1-2.1,2.2-3.3,3.2
	c-1.6,1.3-2.9,2-3.9,2c-0.7,0-1-0.4-1-1.3c0-2,1.1-4.1,3.2-6.2c2.5-2.4,5.2-4,8.4-4.6c0.9-0.2,1.6-0.3,2.2-0.3
	C73.1,89.2,73.2,89.3,73.2,89.5L73.2,89.5z M81.7,89.7c0,0.6-0.7,2.2-2.2,5c-1.4,2.8-2.2,4.4-2.2,4.8c0,0.3,0.1,0.4,0.4,0.4
	c0.4,0,0.8-0.2,1.3-0.6l0.2,0.4c-1.2,0.9-2.6,1.5-4.3,1.8c0.1-1.2,0.9-3.3,2.3-6.3c1.4-2.9,2.1-4.4,2.1-4.4c0-0.3-0.1-0.4-0.3-0.4
	c-0.4,0-1.3,0.6-2.5,1.7c-1.3,1.2-2.3,2.4-3.1,3.5c-0.6,1-1.4,2.3-2.2,4.2c-0.5,1.2-1.3,3-2.4,5.4c-0.7,1.4-1.8,2.5-3,3.3
	c-1.3,0.9-2.8,1.4-4.3,1.4c-1.2,0-1.8-0.5-1.8-1.4c0-0.2,0.1-0.4,0.2-0.7c0.9,0.7,1.8,1.1,2.9,1.1c1.3,0,2.4-0.5,3.3-1.4
	c0.6-0.6,1.3-1.7,2-3.1c0.6-1.2,1.5-3.1,2.7-5.5c1-1.8,1.8-3.2,2.7-4.2c0.8-1,2-2.2,3.5-3.5c1.8-1.5,3.2-2.3,4.2-2.3
	C81.4,88.9,81.7,89.2,81.7,89.7L81.7,89.7z M91.8,89.9c0,0.2-0.1,0.4-0.2,0.7c-0.5,0-1-0.1-1.4-0.1c-3.3,0-5.7,1.8-7.1,5.3
	c-0.5,1.2-0.7,2.2-0.7,3c0,1.1,0.5,1.7,1.5,1.7c1.1,0,2.3-0.9,3.6-2.6c1.2-1.7,1.7-3.1,1.7-4.4c0-0.8-0.3-1.1-0.8-1.1
	c-0.8,0-1.6,0.8-2.3,2.4C86,94.5,86,94.4,86,94.2c0-0.6,0.4-1.3,1.2-2c0.8-0.7,1.5-1,2.1-1c0.5,0,0.9,0.2,1.2,0.6
	c0.3,0.4,0.4,0.8,0.4,1.3c0,1.7-1,3.5-3,5.4c-2.1,2-3.9,3-5.3,3c-0.6,0-1.1-0.2-1.4-0.6c-0.4-0.4-0.5-0.9-0.5-1.5c0-2,0.9-4,2.6-5.9
	c1.6-1.7,3.3-2.9,5.4-3.7c1-0.4,1.9-0.6,2.5-0.6C91.6,89.3,91.8,89.5,91.8,89.9L91.8,89.9z M104,88.9c-0.1,0.3-1.1,2.2-2.9,5.6
	c-1.5,2.9-2.3,4.6-2.3,5c0,0.3,0.1,0.4,0.4,0.4c0.4,0,0.8-0.2,1.3-0.5l0.2,0.4c-1.2,0.9-2.6,1.5-4.3,1.8c0.2-1.4,1.1-3.8,2.7-7.1
	l-2.1,0.3c-0.1,0-0.1-0.3-0.1-0.6c0-0.2-0.1-0.3-0.2-0.3c-0.3,0-0.9,0.1-1.7,0.4c-0.8,2.3-1.8,4.5-2.8,6.5c-0.8,0.2-1.5,0.4-2.2,0.7
	c1-2,2-4.2,2.9-6.5c-0.4,0.2-0.8,0.3-1.1,0.4l0.1-0.6c0.3-0.1,0.7-0.3,1.3-0.5c0.8-1.9,1.1-3.1,1.1-3.5c0-0.4-0.1-0.5-0.4-0.5
	c-0.1,0-0.5,0.1-1.1,0.3l-0.1-0.5c1.4-0.4,2.8-0.9,4-1.5c0.1,0.1,0.1,0.2,0.2,0.3c-0.5,1.6-1,3.2-1.5,4.6c1.1-0.3,1.9-0.5,2.4-0.5
	c0.1,0,0.2,0.1,0.3,0.4c0.1,0.3,0.2,0.4,0.3,0.4c0.3,0,0.8-0.1,1.4-0.3c0.5-1,1.3-2.5,2.3-4.5C102.2,89.3,102.9,89.2,104,88.9
	L104,88.9z M135.2,89c-0.6,1.3-1.4,3.1-2.2,5.3c-1.1,2.8-1.7,4.4-1.7,4.9c0,0.3,0.1,0.5,0.4,0.5c0.2,0,0.5-0.1,0.9-0.3l0.2,0.5
	c-0.8,0.3-2.1,1-3.7,2c0-0.2,0-0.3,0-0.5c0-0.9,0.5-2.6,1.5-5.1c-2.8,3.5-4.9,5.3-6.4,5.3c-0.4,0-0.7-0.2-0.7-0.7
	c0-0.7,0.5-2.3,1.5-4.8c-0.9,1.2-1.9,2.3-3.1,3.4c-1.6,1.4-2.8,2.1-3.7,2.1c-0.4,0-0.6-0.2-0.6-0.6c0-0.3,0.6-1.9,1.9-4.6
	c1.3-2.7,1.9-4.4,1.9-5c0-0.3-0.1-0.4-0.4-0.4c-0.2,0-0.5,0.1-1,0.4l-0.2-0.4c1.1-0.8,2.4-1.4,3.8-1.8c0,1.3-0.6,3.4-1.8,6.2
	c-1.2,2.8-1.8,4.2-1.8,4.2c0,0.2,0.1,0.3,0.3,0.3c0.2,0,0.6-0.2,1.2-0.7c2.6-2,4.6-5.1,5.9-9.1c0.6-0.1,1.3-0.4,2.1-0.8
	c-2.4,6-3.7,9.4-3.7,10.2c0,0.3,0.1,0.4,0.4,0.4c0.5,0,1.3-0.6,2.3-1.9c1.7-2.1,3.3-4.8,4.6-8C133.6,89.6,134.3,89.3,135.2,89
	L135.2,89z M151.4,89.7c0,0.3-0.6,1.9-1.9,4.6c-1.3,2.7-1.9,4.4-1.9,5c0,0.3,0.1,0.4,0.4,0.4c0.2,0,0.5-0.1,1-0.4l0.2,0.4
	c-1.1,0.8-2.3,1.4-3.8,1.8c0-1.3,0.6-3.4,1.8-6.2c1.2-2.8,1.8-4.2,1.8-4.1c0-0.2-0.1-0.4-0.3-0.4c-0.5,0-1.5,0.8-2.9,2.3
	c-1.8,2-3.2,4.5-4.2,7.6c-0.6,0.1-1.3,0.4-2.1,0.8c2.4-6.2,3.7-9.6,3.7-10.3c0-0.3-0.1-0.4-0.4-0.4c-0.5,0-1.3,0.6-2.3,1.9
	c-1.8,2.1-3.3,4.8-4.6,8.1c-0.4,0.2-1.1,0.4-2,0.7c0.6-1.3,1.4-3.1,2.2-5.3c1.1-2.8,1.7-4.4,1.7-4.9c0-0.3-0.1-0.5-0.4-0.5
	c-0.2,0-0.5,0.1-0.9,0.3l-0.2-0.5c0.9-0.3,2.1-1,3.7-2c0,0.2,0,0.4,0,0.6c0,0.8-0.5,2.5-1.6,5c2.8-3.5,4.9-5.3,6.4-5.3
	c0.4,0,0.7,0.2,0.7,0.7c0,0.7-0.5,2.3-1.5,4.8c0.9-1.2,1.9-2.3,3.1-3.3c1.6-1.4,2.8-2.1,3.7-2.1C151.2,89.1,151.4,89.3,151.4,89.7
	L151.4,89.7z M161.8,89.9c0,0.2-0.1,0.4-0.2,0.7c-0.5,0-1-0.1-1.4-0.1c-3.3,0-5.7,1.8-7.1,5.3c-0.5,1.2-0.7,2.2-0.7,3
	c0,1.1,0.5,1.7,1.5,1.7c1.1,0,2.3-0.9,3.6-2.6c1.2-1.7,1.7-3.1,1.7-4.4c0-0.8-0.3-1.1-0.8-1.1c-0.8,0-1.6,0.8-2.3,2.4
	c-0.1-0.2-0.1-0.4-0.1-0.5c0-0.6,0.4-1.3,1.2-2c0.8-0.7,1.5-1,2.1-1c0.5,0,0.9,0.2,1.2,0.6c0.3,0.4,0.4,0.8,0.4,1.3
	c0,1.7-1,3.5-3,5.4c-2.1,2-3.9,3-5.3,3c-0.6,0-1.1-0.2-1.4-0.6c-0.4-0.4-0.5-0.9-0.5-1.5c0-2,0.9-4,2.6-5.9c1.6-1.7,3.3-2.9,5.4-3.7
	c1-0.4,1.9-0.6,2.5-0.6C161.5,89.3,161.8,89.5,161.8,89.9L161.8,89.9z M170.7,92.3c0,2.3-0.9,4.4-2.7,6.5c-1.5,1.6-2.7,2.4-3.8,2.4
	c-0.6,0-0.9-0.3-0.9-0.8c0-0.2,0.1-0.4,0.2-0.6c0.5,0.3,0.9,0.5,1.3,0.5c1.2,0,2.3-0.9,3.3-2.6c0.9-1.5,1.3-3,1.3-4.3
	c0-1.6-1-2.5-3.1-2.5c-2.5,6.4-4.9,12.5-7.1,18.3c-0.5,0.2-1.1,0.4-1.7,0.6c0.5-1.1,1.3-3,2.3-5.9c0.9-2.4,2-5.3,3.2-8.9
	c0.8-0.2,1.4-0.7,1.9-1.7c0.1-0.2,0.4-1,0.9-2.5l-0.4,0c-0.6,0-1.3,0-2.2,0.1l-0.8,2.1l-0.4-0.2l1.3-3.4c0.1,0,1.1-0.1,3.1-0.2
	l0.9-2.6h0.5l-0.9,2.6C169.4,89.2,170.7,90.2,170.7,92.3L170.7,92.3z"/>
<path class="st0" d="M80.5,50.2L63.6,66.7l8.9,8.6c1.5,1.5,2.6,2.2,3.2,2.2c0.6,0,1.6-0.7,2.9-2.1l0.6,0.5c-0.8,0.9-2.4,2.5-5,4.9
	c-2.8-2.8-7-6.9-12.6-12.3c-4.3,4.3-7.2,6.9-8.8,8.1c-3.6,2.6-7.3,3.9-11,3.9c-4.2,0-7.6-1.4-10.3-4.2c-2.7-2.8-4.1-6.3-4.1-10.5
	c0-4,1.4-7.2,4.2-9.7c2.6-2.3,6-3.4,10.1-3.4c5.1,0,10.4,2.7,15.9,8.1c1.2-3.8,1.9-6.3,1.9-7.5c0-0.5-0.2-0.8-0.7-0.8
	c-0.4,0-1.2,0.3-2.4,0.7L56,52.7c1.4-0.6,3.8-1.8,7.3-3.6c-1,3.9-1.6,6.1-1.8,6.8c-0.7,2.6-1.5,4.8-2.4,6.5l3.9,3.8
	c1.7-1.6,6.1-6,13.1-13.3c-0.8,0-2.5-0.1-4.9-0.1c-1.1,0-1.9,0.3-2.4,1c-0.2,0.3-0.5,1.1-1,2.5h-1c0.8-2.2,1.4-4.2,1.9-6.1
	C74.2,50.3,78.1,50.3,80.5,50.2L80.5,50.2z M61,68.1l-3.3-3.3c-1.2,2.2-2.6,4-4.2,5.5c-2,1.8-4.1,2.7-6.2,2.7
	c-0.9,0-1.7-0.2-2.4-0.6c-0.8-0.5-1.3-1.1-1.3-2c0-0.5,0.2-1.1,0.5-1.8c0.3,2.1,1.6,3.1,3.9,3.1c3.5,0,6.4-2.7,8.6-8
	c-3.1-3-5.6-5.2-7.4-6.4c-3.1-2.1-6.1-3.1-9-3.1c-3.3,0-6.1,1-8.3,2.9c-2.3,2-3.4,4.7-3.4,8c0,3.9,1.6,7.1,4.7,9.7
	c2.9,2.5,6.4,3.7,10.4,3.7c3.4,0,6.6-1.1,9.7-3.3C54.8,74.1,57.4,71.8,61,68.1L61,68.1z M127.7,51.6c0,4.8-4.6,11.1-13.7,19
	c-0.8,2.5-1.8,4.7-3,6.8c0.4,0,0.6,0,0.7,0c0.8,0,2,0,3.6,0.1c1.6,0.1,2.8,0.1,3.7,0.1c2.4,0,4.3-1,5.7-3c1.3-1.8,1.9-3.9,1.9-6.4
	c0-0.3,0-0.7,0-1c0.7,0.6,1.1,1.4,1.1,2.4c0,2.5-1.2,4.9-3.7,7c-2.4,2.1-4.8,3.2-7.4,3.2c-0.9,0-2.3-0.1-4.1-0.3
	c-1.8-0.2-3.2-0.3-4.1-0.3c0.6-1.3,1.3-3.2,2.1-5.9c-6.5,4.6-11.4,6.9-14.5,6.9c-1,0-1.8-0.2-2.4-0.7c-0.7-0.5-1.1-1.3-1.1-2.2
	c0-1.3,0.5-3.2,1.5-5.9c0.8-2,1.6-3.9,2.4-5.9c2.7-6.7,4-10.9,4-12.5c0-1.4-1.4-2.1-4.3-2.1c-5.2,0-9.5,1.4-13,4.1
	c-3.9,3-5.8,7-5.8,12c0,1.1,0.2,2.5,0.5,4.2c-1.5-1.3-2.3-3.2-2.3-5.8c0-5.1,2.9-9.2,8.6-12.3c4.3-2.3,9.6-3.5,15.8-3.5
	c1.8,0,3.3,0.1,4.6,0.2c-0.9,4-2.8,9.5-5.6,16.6c-0.7,1.7-1.4,3.4-2.1,5.2c-1,2.4-1.4,4.1-1.4,5c0,1.4,0.8,2.1,2.3,2.1
	c1.4,0,3.7-0.9,6.8-2.7c2.5-1.5,4.7-2.9,6.5-4.3c0.8-2.7,1.5-5.3,2.3-8c1-3.3,2-6,3.1-8c1.5-2.7,3.3-4.7,5.6-6
	c1.4-0.8,2.5-1.2,3.5-1.2C126.9,48.8,127.7,49.7,127.7,51.6L127.7,51.6z M125.5,52.2c0-1.4-0.5-2.1-1.4-2.1c-1.9,0-4,2.7-6.1,8.2
	c-0.8,2-1.9,5.6-3.4,10.7c2.7-2.1,5-4.6,7.1-7.5C124.2,58,125.5,54.9,125.5,52.2L125.5,52.2z M167.9,57.1c0,3.3-1.1,6.4-3.4,9.1
	c-2.4,2.9-5.2,4.3-8.5,4.3c-3.4,0-6.7-1.7-9.9-5.2l-3,5.5l3,3l-1.5,2.3l-3-2.7l-3.7,7.2l-1-0.6l3.9-7.4c-3-3.1-4.4-6.3-4.4-9.5
	c0-1.4,0.3-2.5,1-3.4c0.7-1.1,1.8-1.6,3.1-1.6c1.9,0,4,1.1,6.2,3.4c2-4.1,3.1-6.7,3.1-7.9c0-0.4-0.1-0.6-0.2-0.8
	c0.8,0,1.9-0.1,3.4-0.3c-1.4,2.7-3.2,6-5.4,10c1.8,2.1,3.1,3.6,4.1,4.3c1.7,1.4,3.5,2.1,5.4,2.1c2.5,0,4.6-1.2,6.3-3.5
	c1.6-2.1,2.4-4.5,2.4-7.1c0-2.4-0.8-4.3-2.3-5.6c-1.4-1.2-3.4-1.8-5.8-1.8c-2.7,0-6.6,0.5-11.8,1.6c-5.2,1.1-9.1,1.6-11.8,1.6
	c-3.2,0-5.4-0.4-6.6-1.1l0.9-6.7l0.9,0.2c0,0.4,0,0.8,0,1.2c0,1.5,0.5,2.5,1.4,3c0.6,0.3,1.7,0.4,3.5,0.4c2.6,0,6.5-0.5,11.7-1.5
	c5.2-1,9.1-1.5,11.7-1.5c3.1,0,5.5,0.7,7.3,2.1C166.9,51.8,167.9,54.1,167.9,57.1L167.9,57.1z M145.2,64.4c-2.5-2.9-4.5-4.3-6.1-4.3
	c-1,0-1.5,0.6-1.5,1.7c0,2.2,1.6,4.9,4.7,8L145.2,64.4L145.2,64.4z M193.4,75.5c-1.5,1.6-2.9,3.2-4.2,4.8c-1.8-3.6-3.2-7.5-4.5-11.8
	c-1.4-4.9-2.2-9-2.2-12.3c0-1.2,0.1-2.8,0.3-4.8c-1.4,1.4-3.1,3.4-5.2,6c-2.4,3-4.1,5-5,6.1c0.8-0.1,1.7-0.1,2.8-0.1
	c2.5,0,5,0,7.4,0.1c-0.5,1.3-1,3.1-1.6,5.5h-0.8c0.2-0.8,0.3-1.4,0.3-1.9c0-0.7-0.4-1.1-1.2-1.3c-0.3-0.1-2-0.1-5.2-0.1
	c-1,0-2.3,0-3.9,0.1c-4.9,4.8-9.2,8.4-12.7,10.7c1.1-0.1,2.2-0.1,3.4-0.1c2.7,0,6.2,0.2,10.7,0.7c1.2,0.1,2.2,0.2,3.1,0.2
	c4.7,0,7.4-2.3,8-7c0.6,0.3,0.8,0.7,0.8,1.3c0,1.4-1,3-3.1,4.9c-2.5,2.2-5.3,3.3-8.1,3.3c-1.6,0-4-0.2-7.2-0.5
	c-3.2-0.3-5.7-0.5-7.3-0.5c-0.3,0-2,0-5.3,0.1l1.4-2.3c4.5-1.6,9.1-4.8,13.9-9.6c2.4-2.4,6.2-6.8,11.2-13.1c1.9-2.4,3-3.7,3.1-3.8
	c1.2-1.5,2.3-2.7,3.4-3.6l0.6,0.6c-1,1.1-1.5,2.7-1.5,4.6c0,5.2,1.1,11.3,3.4,18.4c1.3,3.9,2.2,5.9,3,5.9c0.4,0,0.9-0.4,1.7-1.2
	L193.4,75.5L193.4,75.5z"/>
<polygon class="st0" points="2.6,36.7 218.8,36.7 218.8,36 2.6,36 2.6,36.7 "/>
<path class="st0" d="M26.2,36.4c-4.2-0.6-5.1-1-6.3-3c-1.2,2-2.2,2.5-6.3,3c4.2,0.6,5.1,1,6.3,3C21,37.4,22,36.9,26.2,36.4
	L26.2,36.4z"/>
<path class="st0" d="M16.2,36.4c-3.2-0.4-3.9-0.8-4.8-2.3c-0.9,1.5-1.6,1.9-4.8,2.3c3.2,0.4,3.9,0.8,4.8,2.3
	C12.3,37.2,13,36.8,16.2,36.4L16.2,36.4z"/>
<path class="st0" d="M7.2,36.4c-2.4-0.3-2.9-0.6-3.6-1.7c-0.7,1.1-1.2,1.4-3.6,1.7c2.4,0.3,2.9,0.6,3.6,1.7
	C4.3,37,4.8,36.7,7.2,36.4L7.2,36.4z"/>
<path class="st0" d="M194.7,36.4c4.2-0.6,5.1-1,6.3-3c1.2,2,2.2,2.5,6.3,3c-4.2,0.6-5.1,1-6.3,3C199.8,37.4,198.8,36.9,194.7,36.4
	L194.7,36.4z"/>
<path class="st0" d="M204.7,36.4c3.2-0.4,3.9-0.8,4.8-2.3c0.9,1.5,1.7,1.9,4.8,2.3c-3.2,0.4-3.9,0.8-4.8,2.3
	C208.6,37.2,207.8,36.8,204.7,36.4L204.7,36.4z"/>
<path class="st0" d="M213.7,36.4c2.4-0.3,2.9-0.6,3.6-1.7c0.7,1.1,1.2,1.4,3.6,1.7c-2.4,0.3-2.9,0.6-3.6,1.7
	C216.6,37,216,36.7,213.7,36.4L213.7,36.4z"/>
<path class="st0" d="M117.5,8.8c0.3-1.6-4-1.3-5.5,0.9c-0.8,1.1-1.2,2.3-1.4,3.2c0.2-0.3,0.4-0.5,0.6-0.7c0.3-0.6,0.7-1.1,1.3-1.6
	C114.5,9.2,117.2,9.9,117.5,8.8L117.5,8.8z"/>
<path class="st0" d="M112.7,8.3c2.8-2.2,4-3.7,3.2-3.5c-4.2,0.8-5.2,5.1-5.5,7l0-2.6c0.2-0.7,0.7-2.1,1.6-2.9
	c2.1-1.6,2.9-2.7,2.4-2.6c-2.9,0.6-3.8,3.5-4,5l0-2.1c0.1-0.5,0.5-1.4,1.1-1.9c1.5-1.2,2.1-1.9,1.7-1.9c-2,0.4-2.6,2.3-2.8,3.4
	l0-1.5c0.1-0.4,0.3-0.9,0.7-1.2c1-0.8,1.5-1.3,1.2-1.3c-1.3,0.2-1.8,1.4-1.9,2.2l0-1.3c0.2-0.1,0.4-0.2,0.4-0.5
	c0-0.2-0.2-0.4-0.4-0.5l0-0.4c0.1,0,0.2-0.2,0.2-0.3c0-0.2-0.1-0.3-0.2-0.3v0c0-0.2,0-0.3,0-0.5c0.1,0,0.2-0.1,0.2-0.2
	c0-0.1-0.1-0.3-0.3-0.3c-0.1,0-0.3,0.1-0.3,0.3c0,0.1,0.1,0.2,0.2,0.2c0,0.1,0,0.3,0,0.5v0c-0.1,0-0.2,0.2-0.2,0.3
	c0,0.2,0.1,0.3,0.2,0.3V2c-0.2,0-0.4,0.2-0.4,0.5c0,0.2,0.2,0.4,0.4,0.5l0,1.3c-0.2-0.8-0.6-1.9-1.9-2.2c-0.3-0.1,0.2,0.5,1.2,1.3
	c0.4,0.3,0.6,0.9,0.7,1.2l0,1.5c-0.2-1.1-0.8-3-2.8-3.4c-0.4-0.1,0.2,0.7,1.7,1.9c0.6,0.5,1,1.4,1.1,1.9l0,2.1c-0.2-1.5-1.1-4.4-4-5
	c-0.5-0.1,0.3,1,2.4,2.6c1,0.8,1.4,2.2,1.6,2.9l0,2.7c-0.3-1.9-1.3-6.2-5.5-7c-0.7-0.1,0.4,1.3,3.2,3.5c1.4,1.1,2,3.2,2.2,4l0,0.6
	c0,0,0.1,0.1,0.1,0.1c0,0,0,0,0.1-0.1l0-0.7C110.7,11.5,111.4,9.4,112.7,8.3L112.7,8.3z"/>
<path class="st0" d="M103.4,8.8c0.2,1.1,3,0.5,4.9,1.8c0.5,0.4,1,0.9,1.3,1.4c0.2,0.2,0.5,0.5,0.7,0.8c-0.2-0.9-0.6-2-1.3-3.1
	C107.4,7.5,103,7.2,103.4,8.8L103.4,8.8z"/>
<path class="st0" d="M131.7,13.7c-0.8-0.5-1.9-1.1-3.1-1.6c-1.3-0.5-2.7-1-4.4-1.4c-1.7-0.3-3.5-0.5-5.5-0.2c-1,0.1-2,0.4-2.9,0.8
	c-1,0.4-1.9,1-2.7,1.9c-0.4,0.5-0.6,1-0.8,1.5c-0.2,0.6-0.4,1.1-0.4,1.7c-0.1,1.2,0.2,2.5,0.8,3.5c0.6,1.1,1.4,2,2.4,2.7
	c0.9,0.8,2,1.4,3.1,2c2.2,1.1,4.6,1.8,7,2c1.2,0.1,2.5,0.1,3.7-0.2c1.2-0.2,2.4-0.7,3.3-1.7c0.4-0.5,0.8-1,1-1.7
	c0.2-0.7,0.1-1.4-0.2-2c-0.3-0.6-0.7-1.1-1.1-1.5c-0.5-0.4-1-0.8-1.5-1.1c-1-0.6-2.1-1-3.2-1.2c-1.1-0.3-2.2-0.4-3.3-0.4
	c-1.1,0-2.2,0.1-3.2,0.5c-1,0.3-2,0.8-2.8,1.4c-0.8,0.6-1.5,1.4-2,2.2c-0.5,0.8-0.8,1.8-0.7,2.7c0,0.9,0.2,1.8,0.6,2.5
	c0.3,0.7,0.7,1.4,1.2,1.9c0.9,1.1,1.8,1.8,2.5,2.3c0.8,0.5,1.7,1.1,3,1.6c1.2,0.5,2.7,0.9,4.4,1c1.7,0.2,3.5,0.1,5.4-0.3
	c1.9-0.4,3.9-1.1,5.8-2.1c1.9-1,3.8-2.3,5.7-3.7c1.9-1.4,3.9-2.7,5.9-4c2.1-1.3,4.2-2.4,6.6-3.1c2.3-0.7,4.7-1.1,7.1-0.8
	c1.2,0.1,2.3,0.4,3.4,0.9c1.1,0.5,2.1,1.1,2.9,2c0.8,0.8,1.5,1.8,1.8,2.9c0.1,0.6,0.2,1.1,0.1,1.7c-0.1,0.6-0.2,1.1-0.5,1.6
	c-0.6,0.9-1.5,1.5-2.5,1.9c-1,0.3-2,0.5-3,0.4c-1.9,0-3.7-0.9-4.9-2.1c-0.6-0.6-1.1-1.3-1.4-2c-0.3-0.7-0.4-1.5-0.3-2.2
	c0.1-0.7,0.5-1.3,1-1.6c0.5-0.4,1-0.6,1.4-0.7c0.9-0.2,1.7-0.2,2.2-0.2c0.5,0,0.8,0.1,0.8,0c0,0-0.3,0-0.8-0.1c-0.5,0-1.3,0-2.2,0.2
	c-0.5,0.1-1,0.3-1.5,0.7c-0.5,0.4-0.9,1-1,1.7c-0.1,0.7,0,1.5,0.3,2.3c0.3,0.7,0.8,1.5,1.4,2.1c1.2,1.2,3,2.1,5,2.1
	c0.5,0,1,0,1.5-0.1c0.5-0.1,1-0.2,1.5-0.4c0.5-0.2,1-0.4,1.4-0.7c0.4-0.3,0.9-0.7,1.2-1.3c0.3-0.5,0.5-1.1,0.5-1.7
	c0.1-0.6,0-1.2-0.2-1.8c-0.3-1.2-1-2.2-1.9-3.1c-0.9-0.9-1.9-1.5-3-2c-1.1-0.5-2.3-0.8-3.5-0.9c-2.4-0.3-4.9,0.1-7.3,0.8
	c-2.4,0.7-4.6,1.9-6.7,3.2c-2.1,1.3-4.1,2.7-6,4c-1.9,1.3-3.8,2.6-5.7,3.6c-3.8,2-7.7,2.6-10.9,2.2c-1.6-0.2-3-0.6-4.1-1
	c-1.2-0.5-2.1-1-2.8-1.5c-0.7-0.5-1.5-1.2-2.3-2.2c-0.4-0.5-0.8-1.1-1.1-1.7c-0.3-0.7-0.5-1.4-0.6-2.2c0-0.8,0.1-1.6,0.6-2.4
	c0.4-0.8,1-1.5,1.8-2.1c1.5-1.2,3.5-1.8,5.5-1.8c1,0,2.1,0.1,3.2,0.3c1.1,0.2,2.1,0.6,3.1,1.1c0.5,0.3,1,0.6,1.4,0.9
	c0.4,0.4,0.8,0.8,1.1,1.3c0.3,0.5,0.4,1.1,0.3,1.6c-0.1,0.6-0.4,1.1-0.8,1.5c-0.8,0.9-1.9,1.4-3.1,1.6c-1.2,0.3-2.4,0.3-3.6,0.2
	c-2.4-0.2-4.8-0.9-6.9-1.9c-1.1-0.5-2.1-1.1-3-1.9c-0.9-0.7-1.8-1.6-2.4-2.6c-0.6-1-1-2.2-0.9-3.3c0-0.6,0.2-1.1,0.4-1.7
	c0.2-0.5,0.5-1.1,0.8-1.5c0.7-0.9,1.6-1.5,2.5-1.9c0.9-0.4,1.9-0.7,2.9-0.8c1.9-0.3,3.8-0.2,5.5,0.2c1.7,0.3,3.1,0.8,4.4,1.3
	C129.8,12.6,130.8,13.2,131.7,13.7L131.7,13.7L131.7,13.7z"/>
<path class="st0" d="M131,13.9c0.1-0.3,0.4-0.4,0.7-0.2c0.3,0.2,0.4,0.6,0.3,0.9c-0.1,0.3-0.4,0.4-0.7,0.2
	C131,14.6,130.9,14.2,131,13.9L131,13.9z"/>
<path class="st0" d="M163.7,22.6c-0.2-0.2-0.2-0.6,0.1-0.7c0.3-0.2,0.7-0.2,0.9,0.1c0.2,0.2,0.2,0.5-0.1,0.7
	C164.3,22.8,163.9,22.8,163.7,22.6L163.7,22.6z"/>
<path class="st0" d="M146.7,21.9c1.7-0.6,1.7-0.4,2-0.6c0.3-0.3-1.3-0.2-1.5-0.2c0.3-0.3,1.8-0.6,2.3-0.9c0.3-0.2,0.6-0.3,0.9-0.4
	c0.3-0.1,0.5,0,0.8-0.1c0.5-0.2,0.6-0.4,0.6-0.5c0-0.1-0.2-0.3-0.4-0.3c0.3-0.2,0.6-0.3,0.9-0.3c0.4-0.1,0.6,0.2,1.1,0
	c0.3-0.2,0.7-0.6,0.5-0.7c-0.2-0.1-0.4,0-0.6,0c0.3-0.1,1.2-0.4,1.3,0.2c0,0.4,0.7,0.1,1-0.2c0.3,0.1,0.6,0,1-0.2
	c0.4-0.2,0.6-0.7,0-0.8c-0.3-0.1,0.2-0.2,0.4-0.1c0.3,0.1,0.5,0.1,0.4,0.7c-0.1,0.5,0.4,0.4,0.9,0.1c-0.2,0.5,0,0.7,0.8,0.5
	c0.6-0.2,0.9-0.5,0.9-0.8c0.3,0.1,0.9-0.1,1.1-0.3c0.2-0.2,0.4-0.6-0.6-0.7c-0.3,0-0.1-0.2,0.3-0.2c0.3,0.1,0.9,0,1.1,0.7
	c0.2,0.4,0.5,0.3,0.9,0.2c0.3-0.1,0.6-0.2,0.7-0.4c0.1,0.1,0.8,0.2,1.4-0.1c0.5-0.3,0.3-0.9-0.8-0.9c0.8-0.2,1.7-0.2,2.5,0.2
	c0.5,0.2,0.9,0.3,1.2,0.1c0.2-0.1,0.2-0.3,0.1-0.3c0.1,0.1,0.6,0.2,0.8,0c0.3-0.2,0.2-0.3,0-0.4c1.8,0.2,3.1,0.4,3.7,0.8
	c-0.2-0.3-0.6-0.6-1.3-0.8c-0.7-0.2-1.5-0.4-2.6-0.6c-1.1-0.2-2.4-0.3-3.9-0.3c-1.5,0-3.3,0.1-5.3,0.5c-1,0.2-2.1,0.5-3.2,0.8
	c-1.1,0.3-2.2,0.8-3.3,1.2c-5.8,2.8-10.4,7.1-11.7,8.1C141.3,25.1,145,22.5,146.7,21.9L146.7,21.9z"/>
<path class="st1" d="M124.8,32c1,0.1,2,0,3-0.2c0.6-0.1,1.3-0.3,1.9-0.6c0.3-0.1,0.6-0.2,1-0.4c0.3-0.2,0.6-0.3,0.9-0.5
	c1.1-0.6,2.1-1.5,3-2.5c0.8-0.9,1.4-1.8,2-2.7c0.2-0.3,0.4-0.5,0.5-0.8c0.4-0.6,0.7-1.2,1.1-1.7c0.2-0.3,1.2-1.4,1.6-1.9
	c-0.1,0-0.6,0.4-0.7,0.4c0,0-0.2,0.1-0.3,0.1c-0.1,0-0.1,0.2-0.2,0.2c0,0-0.2-0.1-0.2-0.1c-0.3,0.1-0.4,0.5-0.6,0.9
	c-0.1,0.2-0.2,0.3-0.2,0.5c0,0-0.1,0.1-0.1,0.1c-0.4,0.1-0.7,0.6-1,1c-0.4,0.5-0.7,1-1.2,1c-0.1,0-0.2,0-0.3-0.1
	c-0.1,0.7-0.2,1.5-0.8,1.9c0,0-0.1,0.1-0.2,0.2c-0.2,0.2-0.7,0.6-1.1,1c-0.4,0.3-0.8,0.6-1,0.8c-0.1,0.1-0.2,0.1-0.2,0.1
	c0,0.1-0.1,0.1-0.2,0.1c0,0,0,0-0.1,0c-0.1,0-0.2-0.1-0.1-0.2c0.1-0.3,0-0.5-0.1-0.7l0,0c-0.1-0.1-0.1-0.3-0.2-0.4
	c-0.2,0.1-0.3,0.3-0.4,0.5l0,0.1c-0.3,0.3-0.6,0.6-0.9,0.9c-0.1,0.1-0.2,0.1-0.4,0.2c-0.1,0.1-0.3,0.1-0.4,0.2
	c-0.1,0-0.2,0.1-0.4,0.1c-0.2,0.1-0.3,0.1-0.4,0.2c-0.5,0.2-0.8,0.4-0.9,0.8c0,0.1,0,0.2,0,0.3c0,0.1,0,0.1,0,0.1
	c0,0.2-0.2,0.4-0.4,0.6c-0.4,0.3-0.9,0.4-1.4,0.3c-0.1,0-0.3,0-0.4,0c-0.3,0-0.4-0.1-0.6-0.2c-0.1,0-0.1,0-0.2-0.1
	c-0.1,0-0.2,0-0.3,0c-0.1,0-0.3,0-0.5,0c-0.1,0-0.2,0-0.3,0c-0.2,0-0.4,0-0.5,0l0,0c-0.2,0-0.3,0-0.4-0.1c0.5,0.3,1.1,0.4,1.7,0.6
	C124.2,32,124.5,32,124.8,32L124.8,32z"/>
<path class="st1" d="M119.6,29c-0.1,0-0.2-0.1-0.3-0.2c-0.1-0.1-0.2-0.3-0.1-0.4c0.2-0.3,0.5-0.4,0.9-0.5l0.1,0
	c0.1,0,0.3-0.1,0.5-0.1c0.2,0,0.4-0.1,0.6-0.1l0.1,0c0.7-0.2,1.1-0.4,1.2-0.5c-0.2,0-0.4,0-0.6,0c-0.2,0-0.4,0-0.5,0
	c-0.3,0-0.8,0-1.2,0c-0.3,0-0.7-0.1-0.9-0.2c-0.7-0.3-1.4-0.6-2.1-1.2c-0.6-0.5-1.3-1.2-1.5-2.4l0-0.1c-0.1-0.4-0.2-0.9-0.2-1.4
	c0,0.4,0,0.8,0,1.2c0,1,0.2,1.9,0.4,2.6c0.3,0.9,0.8,1.7,1.5,2.3C118.1,28.4,118.8,28.8,119.6,29L119.6,29z"/>
<path class="st1" d="M170,22.8c-0.1-0.4-0.3-0.8-0.6-1.1c-0.2-0.3-0.5-0.5-0.8-0.7c-0.1-0.1-0.3-0.1-0.4-0.2
	c0.2,0.1,0.3,0.2,0.4,0.3l0,0c0.4,0.3,0.5,0.8,0.6,1.1c0.1,0.4,0.1,0.8,0.1,1.2c0,0.1,0,0.3-0.1,0.5c0,0.2-0.1,0.4-0.1,0.6
	c0,0.1-0.1,0.2-0.1,0.3c0,0.1-0.1,0.2-0.1,0.3c0.1,0,0.2-0.2,0.3-0.5l0,0c0-0.1,0.1-0.2,0.1-0.3c0-0.1,0.1-0.1,0.1-0.2l0,0
	c0.1-0.2,0.2-0.3,0.3-0.3c0.1,0,0.1,0,0.1,0.1c0,0.1,0,0.1,0,0.2C170.1,23.6,170.1,23.2,170,22.8L170,22.8z"/>
<path class="st1" d="M159.5,26.5c0,0.3,0.1,0.7,0.2,1c0.1,0.2,0.3,0.5,0.5,0.7c0.1,0.1,0.2,0.2,0.3,0.2c-0.1-0.1-0.2-0.2-0.3-0.4
	l0,0c-0.2-0.3-0.2-0.7-0.2-1c0-0.3,0.1-0.6,0.2-0.9c0-0.1,0.1-0.2,0.1-0.3c0.1-0.1,0.2-0.3,0.2-0.4c0-0.1,0.1-0.1,0.1-0.2
	c0-0.1,0.1-0.1,0.1-0.2c-0.1,0-0.2,0.1-0.3,0.3l0,0c-0.1,0.1-0.1,0.1-0.1,0.2c0,0-0.1,0.1-0.1,0.1l0,0c-0.1,0.1-0.2,0.2-0.3,0.2
	c-0.1,0-0.1-0.1-0.1-0.1c0,0,0-0.1,0-0.1C159.5,25.9,159.5,26.2,159.5,26.5L159.5,26.5z"/>
<path class="st1" d="M165.3,31.7C165.4,31.7,165.4,31.7,165.3,31.7c0.1-0.1,0.2-0.2,0.3-0.1c0.1,0,0.2,0.2,0.2,0.3v0
	c0,0,0,0.1,0,0.1c0,0.1,0,0.1,0,0.2l0,0c0,0.2,0.1,0.3,0.2,0.4c0-0.1,0-0.1,0-0.2c0-0.1,0-0.1,0-0.2c0-0.1,0-0.2,0.1-0.4
	c0-0.1,0.1-0.2,0.1-0.3c0.2-0.2,0.3-0.5,0.6-0.7c0.2-0.2,0.5-0.4,1.1-0.5l0.1,0c0.2,0,0.4-0.1,0.6-0.1c-0.2,0-0.3,0-0.5,0
	c-0.4,0-0.8,0.1-1.1,0.2c-0.4,0.1-0.8,0.3-1,0.5C165.7,31.2,165.5,31.5,165.3,31.7L165.3,31.7z"/>
<path class="st1" d="M127.5,10.6c0,0-0.1,0-0.1,0.1c-0.1,0-0.1,0-0.2,0c-0.1-0.1-0.1-0.2-0.1-0.3l0,0c0,0,0-0.1,0-0.1
	c0-0.1,0-0.1,0-0.2v0c0-0.2-0.1-0.4-0.1-0.4c0,0,0,0.1,0,0.2c0,0.1,0,0.1,0,0.2c0,0.1-0.1,0.2-0.1,0.3c-0.1,0.1-0.1,0.2-0.2,0.2
	c-0.2,0.2-0.5,0.3-0.8,0.4c-0.3,0.1-0.7,0.2-1.3,0.1l-0.1,0c-0.2,0-0.4-0.1-0.7-0.2c0.2,0.1,0.4,0.1,0.5,0.2
	c0.5,0.1,0.9,0.2,1.3,0.3c0.5,0.1,0.9,0,1.2-0.1C127.1,11,127.3,10.8,127.5,10.6L127.5,10.6z"/>
<path class="st1" d="M122.4,10.9c-0.4-0.2-0.9-0.4-1.4-0.5c-0.4,0-0.9,0-1.4,0c-0.2,0-0.4,0.1-0.6,0.1c0.3,0,0.5,0,0.7,0h0.1
	c0.7,0,1.1,0.2,1.5,0.4c0.4,0.2,0.7,0.5,1,0.8c0.1,0.1,0.2,0.2,0.3,0.3c0.1,0.2,0.2,0.4,0.2,0.5c0,0.1,0.1,0.2,0.1,0.2
	c0,0.1,0.1,0.2,0.1,0.2c0-0.1,0.1-0.2,0-0.5l0,0c0-0.1,0-0.2-0.1-0.3c0-0.1,0-0.1,0-0.2l0,0c0-0.2,0-0.3,0.1-0.4c0.1,0,0.2,0,0.2,0
	c0.1,0,0.1,0.1,0.1,0.1C123,11.4,122.7,11.1,122.4,10.9L122.4,10.9z"/>
<path class="st1" d="M127.5,19.6c0.1,0,0.2,0,0.3,0c0.1,0,0.2,0.1,0.2,0.2c0,0.3-0.2,0.5-0.4,0.8l0,0c-0.1,0.1-0.2,0.2-0.3,0.3
	c-0.1,0.1-0.3,0.3-0.4,0.4l-0.1,0.1c-0.4,0.5-0.6,0.8-0.6,0.9c0.1-0.1,0.3-0.2,0.4-0.3c0.1-0.1,0.2-0.2,0.4-0.3
	c0.2-0.2,0.5-0.4,0.8-0.6c0.2-0.1,0.5-0.3,0.7-0.3c0.6-0.2,1.2-0.3,1.8-0.3c0.6,0,1.3,0.1,1.9,0.7l0.1,0.1c0.2,0.2,0.4,0.4,0.7,0.8
	c-0.1-0.3-0.3-0.5-0.4-0.7c-0.4-0.6-0.8-1.1-1.3-1.4c-0.6-0.4-1.2-0.7-1.9-0.7C128.7,19.2,128.1,19.3,127.5,19.6L127.5,19.6z"/>
<path class="st1" d="M112.2,16.8c-0.1,0.5,0,1.1,0.2,1.7c0.1,0.5,0.3,1,0.6,1.6c0.1,0.2,0.2,0.4,0.3,0.6c-0.1-0.3-0.2-0.6-0.3-0.8
	l0-0.1c-0.3-0.8-0.3-1.3-0.2-1.8c0.1-0.5,0.2-0.9,0.4-1.3c0-0.1,0.1-0.3,0.2-0.4c0.1-0.2,0.3-0.3,0.4-0.4c0.1-0.1,0.1-0.1,0.2-0.1
	c0.1,0,0.2-0.1,0.2-0.1c-0.1,0-0.3-0.1-0.6,0.1l0,0c-0.1,0-0.2,0.1-0.3,0.1c-0.1,0-0.1,0.1-0.2,0.1l0,0c-0.1,0.1-0.3,0.1-0.5,0
	c-0.1-0.1-0.1-0.2-0.1-0.3c0-0.1,0-0.1,0.1-0.2C112.4,15.9,112.2,16.4,112.2,16.8L112.2,16.8z"/>
<path class="st0" d="M151.8,24.6c0,0.2-0.6,0.7-1.4,1.3c-0.8,0.6-1.7,1.4-2.5,2c0.9-0.2,1.7-0.2,2.4-0.2c0.7,0,1.3,0.2,1.8,0.4
	c1,0.4,1.6,1,1.7,1.8c-0.7-0.1-1.5-0.2-2.2-0.2c-0.8,0-1.6,0.1-2.4,0.2c-1.6,0.3-3.3,0.9-4.9,1.4c-0.8,0.3-1.6,0.6-2.4,0.9l-1.2,0.4
	c-0.4,0.1-0.7,0.3-1.1,0.4c-1.5,0.5-2.9,0.8-4.3,1.1c-2.7,0.4-5,0.3-6.6,0.1c-0.8-0.1-1.4-0.2-1.9-0.3c-0.4-0.1-0.7-0.2-0.7-0.2
	c-1.1-0.3-2.1-0.6-3.1-1c-1-0.4-2-0.9-2.9-1.5c-0.1,0-0.2-0.1-0.3-0.2c-0.1,0-0.1-0.1-0.1-0.1c0,0,0,0,0-0.1c0,0,0,0,0,0l0,0
	l0.1,0.1l0.2,0.1c0.1,0.1,0.3,0.2,0.4,0.3c0.3,0.2,0.6,0.3,0.9,0.5c0.6,0.3,1.2,0.6,1.9,0.8c1.3,0.5,2.6,0.9,3.9,1.1
	c2.7,0.4,5.4,0.3,8-0.5c1.3-0.4,2.6-0.9,3.8-1.6c0.3-0.2,0.6-0.3,0.9-0.5l1-0.6c0.7-0.4,1.3-0.8,2-1.2c1.3-0.8,2.7-1.7,4.1-2.5
	c0.7-0.4,1.5-0.8,2.3-1.1C150.1,25.1,150.9,24.8,151.8,24.6L151.8,24.6L151.8,24.6z"/>
<path class="st0" d="M116.4,26.2c0,0,0.1,0.5,0.6,1.1c0.4,0.7,1.1,1.6,2.2,2.4c1.1,0.8,2.5,1.5,4.2,1.8c0.8,0.2,1.7,0.3,2.6,0.3
	c0.9,0,1.8-0.1,2.6-0.4c1.7-0.5,3.4-1.3,4.8-2.2c1.5-0.9,2.8-1.9,3.9-2.7c1.1-0.8,2-1.6,2.7-2.1l1.1-0.9l0.4-0.3
	c0.1,0,1.6-1.2,3.8-2.9c1.1-0.8,2.5-1.8,3.9-2.7c0.7-0.5,1.5-1,2.3-1.4c0.8-0.4,1.6-0.9,2.5-1.2c1.7-0.7,3.4-1.3,5.1-1.7
	c1.7-0.4,3.2-0.6,4.6-0.6c1.4-0.1,2.5,0,3.3,0.1c0.8,0.1,1.2,0.2,1.2,0.2s-0.4-0.1-1.2-0.2c-0.8-0.1-1.9-0.1-3.3,0
	c-1.3,0.1-2.9,0.3-4.6,0.7c-1.6,0.4-3.4,1-5,1.8c-0.8,0.4-1.6,0.8-2.4,1.3c-0.8,0.5-1.5,0.9-2.2,1.4c-1.4,1-2.7,1.9-3.8,2.8
	c-2.2,1.7-3.7,2.9-3.7,3l-0.4,0.3l-1.1,0.8c-0.7,0.5-1.6,1.2-2.7,2c-1.1,0.8-2.5,1.7-4,2.6c-1.5,0.9-3.2,1.7-5,2.1
	c-0.9,0.2-1.8,0.3-2.7,0.3c-0.9,0-1.8-0.1-2.6-0.3c-0.8-0.2-1.6-0.5-2.3-0.8c-0.7-0.3-1.3-0.7-1.9-1.2c-1.1-0.9-1.8-1.8-2.2-2.5
	C116.5,26.7,116.4,26.2,116.4,26.2L116.4,26.2z"/>
<path class="st0" d="M114.4,29c-1,2-2.3,2.2-2.8,1.7c-0.6-0.6,0.1-1.4,1.4-2.6c2.5-2.4,2.7-6.2,2.7-6.2S115.8,26.1,114.4,29
	L114.4,29z"/>
<path class="st0" d="M113.8,26.7c-0.9,1.2-1.8,1.2-2,0.9c-0.3-0.4,0.3-0.9,1.3-1.6c2-1.4,2.7-3.8,2.7-3.8S115.1,24.9,113.8,26.7
	L113.8,26.7z"/>
<path class="st0" d="M113.8,25c-0.8,0.7-1.3,0.6-1.4,0.4c-0.1-0.3,0.3-0.5,1.1-0.9c1.5-0.7,2.3-2.1,2.3-2.1S115,24,113.8,25
	L113.8,25z"/>
<path class="st0" d="M140,25.8c1.4-0.4,2.3,0.1,2.4,0.4c0.1,0.4-0.6,0.5-1.9,0.5c-2.5,0-4.2,1.3-4.2,1.3S138,26.4,140,25.8L140,25.8
	z"/>
<path class="st0" d="M139.5,26.9c1.1-0.1,1.6,0.2,1.6,0.4c0,0.3-0.5,0.2-1.4,0.1c-1.8-0.2-3.2,0.4-3.2,0.4S137.9,27.1,139.5,26.9
	L139.5,26.9z"/>
<path class="st0" d="M138.8,27.5c0.7,0,1.1,0.3,1,0.4c0,0.1-0.4,0.1-1-0.1c-1.2-0.3-2.3-0.1-2.3-0.1S137.7,27.5,138.8,27.5
	L138.8,27.5z"/>
<path class="st1" d="M111.2,16.5c-0.2-0.5-0.7-0.7-1.1-0.5c-0.4,0.2-0.6,0.7-0.4,1.2c0.2,0.5,0.7,0.7,1.1,0.5
	C111.2,17.5,111.4,17,111.2,16.5L111.2,16.5z"/>
<path class="st1" d="M111.2,14.2c-0.2-0.5-0.7-0.7-1.1-0.5c-0.4,0.2-0.6,0.7-0.4,1.2c0.2,0.5,0.7,0.7,1.1,0.5
	C111.2,15.2,111.4,14.7,111.2,14.2L111.2,14.2z"/>
<path class="st1" d="M111.2,18.9c-0.2-0.5-0.7-0.7-1.1-0.5c-0.4,0.2-0.6,0.7-0.4,1.2c0.2,0.5,0.7,0.7,1.1,0.5
	C111.2,19.9,111.4,19.4,111.2,18.9L111.2,18.9z"/>
<path class="st1" d="M112.6,12.8c0-0.3-0.2-0.6-0.5-0.6c-0.3,0-0.6,0.2-0.6,0.6c0,0.3,0.2,0.6,0.5,0.6
	C112.2,13.4,112.5,13.1,112.6,12.8L112.6,12.8z"/>
<path class="st1" d="M112.4,21c0-0.3-0.2-0.6-0.5-0.6c-0.3,0-0.6,0.2-0.6,0.6c0,0.3,0.2,0.6,0.5,0.6C112.1,21.6,112.3,21.3,112.4,21
	L112.4,21z"/>
<path class="st1" d="M113.7,11.7c0-0.2-0.1-0.4-0.4-0.5c-0.2,0-0.4,0.2-0.5,0.4c0,0.2,0.1,0.4,0.4,0.5
	C113.4,12.1,113.6,11.9,113.7,11.7L113.7,11.7z"/>
<path class="st1" d="M113.3,22.4c0-0.2-0.1-0.5-0.4-0.5c-0.2,0-0.4,0.2-0.5,0.4c0,0.2,0.1,0.4,0.4,0.5
	C113.1,22.8,113.3,22.6,113.3,22.4L113.3,22.4z"/>
<path class="st1" d="M114.8,10.9c0-0.2-0.1-0.4-0.3-0.4c-0.2,0-0.4,0.1-0.4,0.3c0,0.2,0.1,0.4,0.3,0.4
	C114.6,11.2,114.8,11.1,114.8,10.9L114.8,10.9z"/>
<path class="st1" d="M114.3,23.2c0-0.2-0.1-0.4-0.3-0.4c-0.2,0-0.4,0.1-0.4,0.3c0,0.2,0.1,0.4,0.3,0.4
	C114.1,23.6,114.3,23.4,114.3,23.2L114.3,23.2z"/>
<path class="st1" d="M172.1,27c0-0.5,0.4-0.9,0.9-0.8c0.5,0,0.8,0.5,0.8,1c0,0.5-0.4,0.9-0.9,0.8C172.5,27.9,172.1,27.5,172.1,27
	L172.1,27z"/>
<path class="st1" d="M172.2,24.7c0-0.4,0.4-0.7,0.7-0.7c0.4,0,0.7,0.4,0.7,0.8c0,0.4-0.4,0.7-0.7,0.7
	C172.5,25.5,172.2,25.1,172.2,24.7L172.2,24.7z"/>
<path class="st1" d="M171.5,29.2c0-0.4,0.4-0.7,0.7-0.7c0.4,0,0.7,0.4,0.7,0.8c0,0.4-0.4,0.7-0.7,0.7
	C171.7,29.9,171.4,29.6,171.5,29.2L171.5,29.2z"/>
<path class="st1" d="M171.5,22.7c0-0.3,0.3-0.6,0.6-0.5c0.3,0,0.6,0.3,0.5,0.7c0,0.3-0.3,0.6-0.6,0.5
	C171.7,23.3,171.5,23,171.5,22.7L171.5,22.7z"/>
<path class="st1" d="M170,30.5c0-0.3,0.3-0.6,0.6-0.5c0.3,0,0.6,0.3,0.5,0.7c0,0.3-0.3,0.6-0.6,0.5C170.2,31.1,170,30.8,170,30.5
	L170,30.5z"/>
<path class="st1" d="M170.6,21.4c0-0.2,0.2-0.4,0.4-0.4c0.2,0,0.4,0.2,0.4,0.5c0,0.2-0.2,0.4-0.4,0.4
	C170.8,21.9,170.6,21.7,170.6,21.4L170.6,21.4z"/>
<path class="st1" d="M168.5,31.2c0-0.2,0.2-0.4,0.4-0.4c0.2,0,0.4,0.2,0.4,0.5c0,0.2-0.2,0.4-0.4,0.4
	C168.7,31.6,168.5,31.4,168.5,31.2L168.5,31.2z"/>
<path class="st1" d="M169.6,20.5c0-0.2,0.2-0.4,0.4-0.3c0.2,0,0.3,0.2,0.3,0.4c0,0.2-0.2,0.4-0.4,0.3
	C169.8,20.8,169.6,20.7,169.6,20.5L169.6,20.5z"/>
<path class="st1" d="M167.1,31.3c0-0.2,0.2-0.4,0.4-0.3c0.2,0,0.3,0.2,0.3,0.4c0,0.2-0.2,0.4-0.4,0.3
	C167.2,31.7,167,31.5,167.1,31.3L167.1,31.3z"/>
<path class="st0" d="M89.1,13.7c0.8-0.5,1.9-1.1,3.1-1.6c1.3-0.5,2.7-1,4.4-1.4c1.7-0.3,3.5-0.5,5.5-0.2c1,0.1,2,0.4,2.9,0.8
	c1,0.4,1.9,1,2.7,1.9c0.4,0.5,0.6,1,0.8,1.5c0.2,0.6,0.4,1.1,0.4,1.7c0.1,1.2-0.2,2.5-0.8,3.5c-0.6,1.1-1.4,2-2.4,2.7
	c-0.9,0.8-2,1.4-3.1,2c-2.2,1.1-4.6,1.8-7,2c-1.2,0.1-2.5,0.1-3.7-0.2c-1.2-0.2-2.4-0.7-3.3-1.7c-0.4-0.5-0.8-1-1-1.7
	c-0.2-0.7-0.1-1.4,0.2-2c0.3-0.6,0.7-1.1,1.1-1.5c0.5-0.4,1-0.8,1.5-1.1c1-0.6,2.1-1,3.2-1.2c1.1-0.3,2.2-0.4,3.3-0.4
	c1.1,0,2.2,0.1,3.2,0.5c1,0.3,2,0.8,2.8,1.4c0.8,0.6,1.5,1.4,2,2.2c0.5,0.8,0.8,1.8,0.7,2.8c0,0.9-0.3,1.8-0.6,2.5
	c-0.3,0.7-0.7,1.4-1.2,1.9c-0.9,1.1-1.8,1.8-2.5,2.3c-0.8,0.5-1.7,1.1-3,1.6c-1.2,0.5-2.7,0.9-4.4,1c-1.7,0.2-3.5,0.1-5.4-0.3
	c-1.9-0.4-3.9-1.1-5.8-2.1c-1.9-1-3.8-2.3-5.7-3.7c-1.9-1.4-3.9-2.7-5.9-4c-2.1-1.3-4.2-2.4-6.6-3.1c-2.3-0.7-4.7-1.1-7.1-0.8
	c-1.2,0.1-2.3,0.4-3.4,0.9c-1.1,0.5-2.1,1.1-2.9,2c-0.8,0.8-1.5,1.8-1.8,3c-0.1,0.6-0.2,1.1-0.1,1.7c0.1,0.6,0.2,1.1,0.5,1.6
	c0.6,0.9,1.5,1.5,2.5,1.9c1,0.3,2,0.5,3,0.4c1.9,0,3.7-0.9,4.9-2.1c0.6-0.6,1.1-1.3,1.4-2c0.3-0.7,0.4-1.5,0.3-2.2
	c-0.1-0.7-0.5-1.3-1-1.6c-0.5-0.4-1-0.6-1.4-0.7c-0.9-0.2-1.7-0.2-2.2-0.2c-0.5,0-0.8,0.1-0.8,0c0,0,0.3,0,0.8-0.1
	c0.5,0,1.3,0,2.2,0.2c0.5,0.1,1,0.3,1.5,0.7c0.5,0.4,0.9,1,1,1.7c0.1,0.7,0,1.5-0.3,2.3c-0.3,0.7-0.8,1.5-1.4,2.1
	c-1.2,1.2-3,2.1-5,2.1c-0.5,0-1,0-1.5-0.1c-0.5-0.1-1-0.2-1.5-0.4c-0.5-0.2-1-0.4-1.4-0.7c-0.4-0.3-0.9-0.7-1.2-1.3
	c-0.3-0.5-0.5-1.1-0.5-1.7c-0.1-0.6,0-1.2,0.2-1.8c0.3-1.2,1-2.2,1.9-3.1c0.8-0.9,1.9-1.5,3-2c1.1-0.5,2.3-0.8,3.5-0.9
	c2.4-0.3,4.9,0.1,7.3,0.8c2.4,0.7,4.6,1.9,6.7,3.2c2.1,1.3,4.1,2.7,6,4c1.9,1.3,3.8,2.6,5.7,3.6c3.8,2,7.7,2.6,10.9,2.2
	c1.6-0.2,3-0.6,4.1-1c1.2-0.5,2.1-1,2.8-1.5c0.7-0.5,1.5-1.2,2.3-2.2c0.4-0.5,0.8-1.1,1.1-1.7c0.3-0.7,0.5-1.4,0.6-2.2
	c0-0.8-0.1-1.6-0.6-2.4c-0.4-0.8-1-1.5-1.8-2.1c-1.5-1.2-3.5-1.8-5.5-1.8c-1,0-2.1,0.1-3.2,0.3c-1.1,0.2-2.1,0.6-3.1,1.1
	c-0.5,0.3-1,0.6-1.4,0.9c-0.4,0.4-0.8,0.8-1.1,1.3c-0.3,0.5-0.4,1.1-0.3,1.6c0.1,0.6,0.4,1.1,0.8,1.5c0.8,0.9,1.9,1.4,3.1,1.6
	c1.2,0.3,2.4,0.3,3.6,0.2c2.4-0.2,4.8-0.9,6.9-1.9c1.1-0.5,2.1-1.1,3-1.9c0.9-0.7,1.8-1.6,2.4-2.6c0.6-1,1-2.2,0.9-3.3
	c0-0.6-0.2-1.1-0.4-1.7c-0.2-0.5-0.5-1.1-0.8-1.5c-0.7-0.9-1.6-1.5-2.5-1.9c-1-0.4-1.9-0.7-2.9-0.8c-1.9-0.3-3.8-0.2-5.5,0.2
	c-1.7,0.3-3.1,0.8-4.4,1.3C91.1,12.6,90,13.2,89.1,13.7L89.1,13.7L89.1,13.7z"/>
<path class="st0" d="M89.8,13.9c-0.1-0.3-0.4-0.4-0.7-0.2c-0.3,0.2-0.4,0.6-0.3,0.9c0.1,0.3,0.4,0.4,0.7,0.2
	C89.8,14.6,89.9,14.2,89.8,13.9L89.8,13.9z"/>
<path class="st0" d="M57.2,22.6c0.2-0.2,0.2-0.6-0.1-0.7c-0.3-0.2-0.7-0.2-0.9,0.1c-0.2,0.2-0.2,0.6,0.1,0.7
	C56.6,22.8,57,22.8,57.2,22.6L57.2,22.6z"/>
<path class="st0" d="M74.1,21.9c-1.7-0.6-1.7-0.4-2-0.6c-0.3-0.3,1.3-0.2,1.5-0.2c-0.3-0.3-1.8-0.6-2.3-0.9
	c-0.3-0.2-0.6-0.3-0.9-0.4c-0.3-0.1-0.5,0-0.8-0.1c-0.5-0.2-0.6-0.4-0.6-0.5c0-0.1,0.2-0.3,0.4-0.3c-0.3-0.2-0.6-0.3-0.9-0.3
	c-0.4-0.1-0.6,0.2-1.1,0c-0.3-0.2-0.7-0.6-0.5-0.7c0.2-0.1,0.4,0,0.6,0c-0.3-0.1-1.2-0.4-1.3,0.2c0,0.4-0.7,0.1-1-0.2
	c-0.3,0.1-0.6,0-1-0.2c-0.4-0.2-0.6-0.7,0-0.8c0.3-0.1-0.2-0.2-0.4-0.1c-0.3,0.1-0.5,0.1-0.4,0.7c0.1,0.5-0.4,0.4-0.9,0.1
	c0.2,0.5,0,0.7-0.8,0.5c-0.6-0.2-0.9-0.5-0.9-0.8c-0.3,0.1-0.9-0.1-1.1-0.3c-0.2-0.2-0.4-0.5,0.6-0.7c0.3,0,0.1-0.2-0.3-0.2
	c-0.3,0.1-0.9,0-1.1,0.7c-0.2,0.4-0.5,0.3-0.9,0.2c-0.3-0.1-0.6-0.2-0.7-0.4c-0.1,0.1-0.8,0.2-1.4-0.1c-0.5-0.3-0.3-0.9,0.8-0.9
	c-0.8-0.2-1.7-0.2-2.5,0.2C53.7,16,53.3,16.2,53,16c-0.2-0.1-0.2-0.3-0.1-0.3c-0.1,0.1-0.6,0.2-0.8,0c-0.3-0.2-0.2-0.3,0-0.4
	c-1.8,0.2-3.1,0.4-3.7,0.8c0.2-0.3,0.6-0.6,1.3-0.8c0.7-0.2,1.5-0.4,2.6-0.6c1.1-0.2,2.4-0.3,3.9-0.3c1.5,0,3.3,0.1,5.3,0.5
	c1,0.2,2.1,0.5,3.2,0.8c1.1,0.3,2.2,0.8,3.3,1.3c5.8,2.8,10.4,7.1,11.7,8.1C79.6,25.1,75.8,22.5,74.1,21.9L74.1,21.9z"/>
<path class="st1" d="M96.1,32c-1,0.1-2,0-3-0.2c-0.6-0.1-1.3-0.3-1.9-0.6c-0.3-0.1-0.6-0.2-1-0.4c-0.3-0.2-0.6-0.3-0.9-0.5
	c-1.1-0.6-2.1-1.5-3-2.5c-0.8-0.9-1.4-1.8-2-2.7c-0.2-0.3-0.4-0.5-0.5-0.8c-0.4-0.6-0.7-1.2-1.1-1.7c-0.2-0.3-1.2-1.4-1.6-1.9
	c0.1,0,0.6,0.4,0.7,0.4c0,0,0.2,0.1,0.3,0.1c0.1,0,0.1,0.2,0.2,0.2c0,0,0.2-0.1,0.2-0.1c0.3,0.1,0.4,0.5,0.6,0.9
	c0.1,0.2,0.2,0.3,0.2,0.5c0,0,0.1,0.1,0.1,0.1c0.4,0.1,0.7,0.6,1,1c0.4,0.5,0.7,1,1.2,1c0.1,0,0.2,0,0.3-0.1
	c0.1,0.7,0.2,1.5,0.8,1.9c0,0,0.1,0.1,0.2,0.2c0.2,0.2,0.7,0.6,1.1,1c0.4,0.3,0.8,0.6,1,0.8c0.1,0.1,0.2,0.1,0.2,0.2
	c0,0,0.1,0.1,0.2,0.1c0,0,0,0,0.1,0c0.1,0,0.2-0.1,0.1-0.2c-0.1-0.3,0-0.5,0.1-0.7l0,0c0.1-0.1,0.1-0.3,0.2-0.4
	c0.2,0.1,0.3,0.3,0.4,0.5l0,0.1c0.3,0.3,0.6,0.6,0.9,0.9c0.1,0.1,0.2,0.1,0.4,0.2c0.1,0.1,0.3,0.1,0.4,0.2c0.1,0,0.2,0.1,0.3,0.1
	c0.2,0.1,0.3,0.1,0.4,0.2c0.5,0.2,0.8,0.4,0.9,0.8c0,0.1,0,0.2,0,0.3c0,0.1,0,0.1,0,0.1c0,0.2,0.2,0.4,0.4,0.6
	c0.4,0.3,0.9,0.4,1.4,0.3c0.1,0,0.3,0,0.4,0c0.3,0,0.4-0.1,0.6-0.2c0.1,0,0.1,0,0.2-0.1c0.1,0,0.2,0,0.3,0c0.1,0,0.3,0,0.5,0
	c0.1,0,0.2,0,0.3,0c0.2,0,0.4,0,0.5,0l0,0c0.2,0,0.3,0,0.4-0.1c-0.5,0.3-1.1,0.4-1.7,0.6C96.7,32,96.4,32,96.1,32L96.1,32z"/>
<path class="st1" d="M101.2,29c0.1,0,0.2-0.1,0.3-0.2c0.1-0.1,0.2-0.3,0.1-0.4c-0.2-0.3-0.5-0.4-0.9-0.5l-0.1,0
	c-0.1,0-0.3-0.1-0.5-0.1c-0.2,0-0.4-0.1-0.6-0.1l-0.1,0c-0.7-0.2-1.1-0.4-1.2-0.5c0.2,0,0.4,0,0.6,0c0.2,0,0.4,0,0.5,0
	c0.3,0,0.8,0,1.2,0c0.3,0,0.7-0.1,0.9-0.2c0.7-0.3,1.4-0.6,2.1-1.2c0.6-0.5,1.3-1.2,1.5-2.4l0-0.1c0.1-0.4,0.2-0.9,0.2-1.4
	c0,0.4,0,0.8,0,1.2c0,1-0.2,1.9-0.4,2.6c-0.3,0.9-0.8,1.7-1.5,2.3C102.7,28.4,102,28.8,101.2,29L101.2,29z"/>
<path class="st1" d="M50.8,22.8c0.1-0.4,0.3-0.8,0.6-1.1c0.2-0.3,0.5-0.5,0.8-0.7c0.1-0.1,0.3-0.1,0.4-0.2c-0.2,0.1-0.3,0.2-0.4,0.3
	l0,0c-0.4,0.3-0.5,0.8-0.6,1.1c-0.1,0.4-0.1,0.8-0.1,1.2c0,0.1,0,0.3,0.1,0.5c0,0.2,0.1,0.4,0.1,0.6c0,0.1,0.1,0.2,0.1,0.3
	c0,0.1,0.1,0.2,0.1,0.3c-0.1,0-0.2-0.2-0.3-0.5l0,0c0-0.1-0.1-0.2-0.1-0.3c0-0.1-0.1-0.1-0.1-0.2l0,0c-0.1-0.2-0.2-0.3-0.3-0.3
	c-0.1,0-0.1,0-0.1,0.1c0,0.1,0,0.1,0,0.2C50.7,23.6,50.7,23.2,50.8,22.8L50.8,22.8z"/>
<path class="st1" d="M61.4,26.5c0,0.3-0.1,0.7-0.2,1c-0.1,0.2-0.3,0.5-0.5,0.7c-0.1,0.1-0.2,0.2-0.3,0.2c0.1-0.1,0.2-0.2,0.3-0.4
	l0,0c0.2-0.3,0.2-0.7,0.2-1c0-0.3-0.1-0.6-0.2-0.9c0-0.1-0.1-0.2-0.1-0.3c-0.1-0.1-0.2-0.3-0.2-0.4c0-0.1-0.1-0.1-0.1-0.2
	c0-0.1-0.1-0.1-0.1-0.2c0.1,0,0.2,0.1,0.3,0.3l0,0c0.1,0.1,0.1,0.1,0.1,0.2c0,0,0.1,0.1,0.1,0.1l0,0c0.1,0.1,0.2,0.2,0.3,0.2
	c0,0,0.1,0,0.1-0.1c0,0,0-0.1,0-0.1C61.3,25.9,61.4,26.2,61.4,26.5L61.4,26.5z"/>
<path class="st1" d="M55.5,31.7C55.5,31.7,55.5,31.7,55.5,31.7c-0.1-0.1-0.2-0.2-0.3-0.1c-0.1,0-0.2,0.2-0.2,0.3v0c0,0,0,0.1,0,0.1
	c0,0.1,0,0.1,0,0.2l0,0c0,0.2-0.1,0.3-0.2,0.4c0-0.1,0-0.1,0-0.2c0-0.1,0-0.1,0-0.2c0-0.1,0-0.2-0.1-0.4c0-0.1-0.1-0.2-0.1-0.3
	c-0.2-0.2-0.3-0.5-0.6-0.7c-0.2-0.2-0.5-0.4-1.1-0.5l-0.1,0c-0.2,0-0.4-0.1-0.6-0.1c0.2,0,0.3,0,0.5,0c0.4,0,0.8,0.1,1.1,0.2
	c0.4,0.1,0.8,0.3,1,0.5C55.2,31.2,55.4,31.5,55.5,31.7L55.5,31.7z"/>
<path class="st1" d="M93.3,10.6c0,0,0.1,0,0.1,0.1c0.1,0,0.1,0,0.2,0c0.1-0.1,0.1-0.2,0.1-0.3l0,0c0,0,0-0.1,0-0.1
	c0-0.1,0-0.1,0-0.2v0c0-0.2,0.1-0.4,0.1-0.4c0,0,0,0.1,0,0.2c0,0.1,0,0.1,0,0.2c0,0.1,0.1,0.2,0.1,0.3c0.1,0.1,0.1,0.2,0.2,0.2
	c0.2,0.2,0.5,0.3,0.8,0.4c0.3,0.1,0.7,0.2,1.3,0.1l0.1,0c0.2,0,0.4-0.1,0.7-0.2c-0.2,0.1-0.4,0.1-0.5,0.2c-0.5,0.1-0.9,0.2-1.3,0.3
	c-0.5,0.1-0.9,0-1.2-0.1C93.8,11,93.5,10.8,93.3,10.6L93.3,10.6z"/>
<path class="st1" d="M98.5,10.9c0.4-0.2,0.9-0.4,1.4-0.5c0.4,0,0.9,0,1.4,0c0.2,0,0.4,0.1,0.6,0.1c-0.3,0-0.5,0-0.7,0H101
	c-0.7,0-1.1,0.2-1.5,0.4c-0.4,0.2-0.7,0.5-1,0.8c-0.1,0.1-0.2,0.2-0.3,0.3c-0.1,0.2-0.2,0.4-0.2,0.5c0,0.1-0.1,0.2-0.1,0.2
	c0,0.1-0.1,0.2-0.1,0.2c0-0.1-0.1-0.2-0.1-0.5l0,0c0-0.1,0-0.2,0.1-0.3c0-0.1,0-0.1,0-0.2l0,0c0-0.2,0-0.3-0.1-0.4
	c-0.1,0-0.2,0-0.2,0c0,0-0.1,0.1-0.1,0.1C97.8,11.4,98.1,11.1,98.5,10.9L98.5,10.9z"/>
<path class="st1" d="M93.4,19.6c-0.1,0-0.2,0-0.3,0c-0.1,0-0.2,0.1-0.2,0.2c0,0.3,0.2,0.5,0.4,0.8l0,0c0.1,0.1,0.2,0.2,0.3,0.3
	c0.1,0.1,0.3,0.3,0.4,0.4l0.1,0.1c0.4,0.5,0.6,0.8,0.6,0.9c-0.1-0.1-0.3-0.2-0.4-0.3c-0.1-0.1-0.2-0.2-0.4-0.3
	c-0.2-0.2-0.5-0.4-0.8-0.6c-0.2-0.1-0.5-0.3-0.7-0.3c-0.6-0.2-1.2-0.3-1.8-0.3c-0.6,0-1.3,0.1-1.9,0.7l-0.1,0.1
	c-0.2,0.2-0.4,0.4-0.7,0.8c0.1-0.3,0.3-0.5,0.4-0.7c0.4-0.6,0.8-1.1,1.3-1.4c0.6-0.4,1.2-0.7,1.9-0.7C92.1,19.2,92.8,19.3,93.4,19.6
	L93.4,19.6z"/>
<path class="st1" d="M108.7,16.8c0.1,0.5,0,1.1-0.2,1.7c-0.1,0.5-0.3,1-0.6,1.6c-0.1,0.2-0.2,0.4-0.3,0.6c0.1-0.3,0.2-0.6,0.3-0.8
	l0-0.1c0.3-0.8,0.3-1.3,0.2-1.8c-0.1-0.5-0.2-0.9-0.4-1.3c0-0.1-0.1-0.3-0.2-0.4c-0.1-0.2-0.3-0.3-0.4-0.4c-0.1-0.1-0.1-0.1-0.2-0.1
	c-0.1,0-0.2-0.1-0.2-0.2c0.1,0,0.3-0.1,0.6,0.1l0,0c0.1,0,0.2,0.1,0.3,0.1c0.1,0,0.1,0.1,0.2,0.1l0,0c0.1,0.1,0.3,0.1,0.5,0
	c0.1-0.1,0.1-0.2,0.1-0.3c0-0.1,0-0.1,0-0.2C108.5,15.9,108.6,16.4,108.7,16.8L108.7,16.8z"/>
<path class="st0" d="M69.1,24.6c0,0.2,0.6,0.7,1.4,1.3c0.8,0.6,1.7,1.4,2.5,2c-0.9-0.2-1.7-0.2-2.4-0.2c-0.7,0.1-1.3,0.2-1.8,0.4
	c-1,0.4-1.6,1-1.7,1.8c0.7-0.1,1.5-0.2,2.2-0.2c0.8,0,1.6,0.1,2.4,0.2c1.6,0.3,3.3,0.9,4.9,1.5c0.8,0.3,1.6,0.6,2.4,0.9l1.2,0.4
	c0.4,0.1,0.7,0.3,1.1,0.4c1.5,0.5,2.9,0.8,4.3,1.1c2.7,0.4,5,0.3,6.6,0.1c0.8-0.1,1.4-0.2,1.9-0.3c0.4-0.1,0.7-0.2,0.7-0.2
	c1.1-0.3,2.1-0.6,3.1-1c1-0.4,2-0.9,2.9-1.5c0.1,0,0.2-0.1,0.3-0.2c0.1-0.1,0.1-0.1,0.1-0.1c0,0,0,0,0-0.1c0,0,0,0,0,0l0,0l-0.1,0.1
	l-0.2,0.1c-0.1,0.1-0.3,0.2-0.4,0.3c-0.3,0.2-0.6,0.3-0.9,0.5c-0.6,0.3-1.2,0.6-1.9,0.8c-1.3,0.5-2.6,0.9-3.9,1.1
	c-2.7,0.4-5.4,0.3-8-0.5c-1.3-0.4-2.6-0.9-3.8-1.6c-0.3-0.2-0.6-0.3-0.9-0.5l-1-0.6c-0.7-0.4-1.3-0.8-2-1.2
	c-1.3-0.8-2.7-1.7-4.1-2.5c-0.7-0.4-1.5-0.8-2.3-1.1C70.7,25.1,69.9,24.8,69.1,24.6L69.1,24.6L69.1,24.6z"/>
<path class="st0" d="M104.5,26.2c0,0-0.2,0.4-0.6,1.1c-0.4,0.7-1.1,1.6-2.2,2.4c-1.1,0.8-2.5,1.5-4.2,1.8c-0.8,0.2-1.7,0.3-2.6,0.3
	c-0.9,0-1.8-0.1-2.6-0.4c-1.7-0.5-3.4-1.3-4.8-2.2c-1.5-0.9-2.8-1.9-3.9-2.7c-1.1-0.8-2-1.6-2.7-2.1l-1.1-0.9l-0.4-0.3
	c-0.1,0-1.6-1.2-3.8-2.9c-1.1-0.8-2.5-1.8-3.9-2.7c-0.7-0.5-1.5-1-2.3-1.4c-0.8-0.4-1.6-0.9-2.5-1.2c-1.7-0.7-3.4-1.3-5.1-1.7
	c-1.7-0.4-3.2-0.6-4.6-0.6c-1.4-0.1-2.5,0-3.3,0.1c-0.8,0.1-1.2,0.2-1.2,0.2s0.4-0.1,1.2-0.2c0.8-0.1,1.9-0.1,3.3,0
	c1.3,0.1,2.9,0.3,4.6,0.7c1.6,0.4,3.4,1,5,1.8c0.8,0.4,1.6,0.8,2.4,1.3c0.8,0.5,1.5,0.9,2.2,1.4c1.4,1,2.7,1.9,3.8,2.8
	c2.2,1.7,3.7,2.9,3.7,2.9l0.4,0.3l1.1,0.8c0.7,0.5,1.6,1.2,2.7,2c1.1,0.8,2.5,1.7,4,2.6c1.5,0.9,3.2,1.7,5,2.1
	c0.9,0.2,1.8,0.3,2.7,0.3c0.9,0,1.8-0.1,2.6-0.3c0.8-0.2,1.6-0.5,2.3-0.8c0.7-0.3,1.3-0.7,1.9-1.2c1.1-0.9,1.8-1.8,2.2-2.5
	C104.3,26.7,104.5,26.2,104.5,26.2L104.5,26.2z"/>
<path class="st0" d="M106.5,29c1,2,2.3,2.2,2.8,1.7c0.6-0.6-0.1-1.4-1.4-2.6c-2.5-2.4-2.7-6.2-2.7-6.2S105,26.1,106.5,29L106.5,29z"
	/>
<path class="st0" d="M107.1,26.7c0.9,1.2,1.8,1.2,2,0.9c0.3-0.4-0.3-0.9-1.3-1.6c-2-1.4-2.7-3.8-2.7-3.8S105.7,24.9,107.1,26.7
	L107.1,26.7z"/>
<path class="st0" d="M107,25c0.8,0.7,1.3,0.6,1.4,0.4c0.1-0.3-0.3-0.5-1.1-0.9c-1.5-0.7-2.3-2.1-2.3-2.1S105.9,24,107,25L107,25z"/>
<path class="st0" d="M80.8,25.8c-1.4-0.4-2.3,0.1-2.4,0.4c-0.1,0.4,0.6,0.5,1.9,0.5c2.5,0,4.2,1.3,4.2,1.3S82.9,26.4,80.8,25.8
	L80.8,25.8z"/>
<path class="st0" d="M81.4,26.9c-1.1-0.1-1.6,0.2-1.6,0.4c0,0.3,0.5,0.2,1.4,0.1c1.8-0.2,3.2,0.4,3.2,0.4S82.9,27.1,81.4,26.9
	L81.4,26.9z"/>
<path class="st0" d="M82.1,27.5c-0.7,0-1.1,0.3-1,0.4c0,0.1,0.4,0.1,1-0.1c1.2-0.3,2.3-0.1,2.3-0.1S83.2,27.5,82.1,27.5L82.1,27.5z"
	/>
<path class="st1" d="M108.3,12.8c0-0.3,0.2-0.6,0.5-0.6c0.3,0,0.6,0.2,0.6,0.6c0,0.3-0.2,0.6-0.5,0.6
	C108.6,13.4,108.3,13.1,108.3,12.8L108.3,12.8z"/>
<path class="st1" d="M108.5,21c0-0.3,0.2-0.6,0.5-0.6c0.3,0,0.6,0.2,0.6,0.6c0,0.3-0.2,0.6-0.5,0.6C108.8,21.6,108.5,21.3,108.5,21
	L108.5,21z"/>
<path class="st1" d="M107.2,11.7c0-0.2,0.1-0.4,0.4-0.5c0.2,0,0.4,0.2,0.5,0.4c0,0.2-0.1,0.4-0.4,0.5
	C107.4,12.1,107.2,11.9,107.2,11.7L107.2,11.7z"/>
<path class="st1" d="M107.5,22.4c0-0.2,0.1-0.4,0.4-0.5c0.2,0,0.4,0.2,0.5,0.4c0,0.2-0.1,0.4-0.4,0.5
	C107.8,22.8,107.6,22.6,107.5,22.4L107.5,22.4z"/>
<path class="st1" d="M106.1,10.9c0-0.2,0.1-0.4,0.3-0.4c0.2,0,0.4,0.1,0.4,0.3c0,0.2-0.1,0.4-0.3,0.4
	C106.3,11.3,106.1,11.1,106.1,10.9L106.1,10.9z"/>
<path class="st1" d="M106.6,23.2c0-0.2,0.1-0.4,0.3-0.4c0.2,0,0.4,0.1,0.4,0.3c0,0.2-0.1,0.4-0.3,0.4
	C106.8,23.6,106.6,23.4,106.6,23.2L106.6,23.2z"/>
<path class="st1" d="M48.7,27c0-0.5-0.4-0.9-0.9-0.8c-0.5,0.1-0.8,0.5-0.8,1c0,0.5,0.4,0.9,0.9,0.8C48.4,27.9,48.8,27.5,48.7,27
	L48.7,27z"/>
<path class="st1" d="M48.7,24.7c0-0.4-0.4-0.7-0.7-0.7c-0.4,0-0.7,0.4-0.7,0.8c0,0.4,0.4,0.7,0.7,0.7C48.4,25.5,48.7,25.1,48.7,24.7
	L48.7,24.7z"/>
<path class="st1" d="M49.4,29.2c0-0.4-0.4-0.7-0.7-0.7c-0.4,0-0.7,0.4-0.7,0.8c0,0.4,0.4,0.7,0.7,0.7C49.1,29.9,49.4,29.6,49.4,29.2
	L49.4,29.2z"/>
<path class="st1" d="M49.3,22.7c0-0.3-0.3-0.6-0.6-0.5c-0.3,0-0.6,0.3-0.5,0.7c0,0.3,0.3,0.6,0.6,0.5C49.1,23.3,49.3,23,49.3,22.7
	L49.3,22.7z"/>
<path class="st1" d="M50.8,30.5c0-0.3-0.3-0.6-0.6-0.5c-0.3,0-0.6,0.3-0.5,0.7c0,0.3,0.3,0.6,0.6,0.5C50.6,31.1,50.9,30.8,50.8,30.5
	L50.8,30.5z"/>
<path class="st1" d="M50.2,21.4c0-0.2-0.2-0.4-0.4-0.4c-0.2,0-0.4,0.2-0.4,0.5c0,0.2,0.2,0.4,0.4,0.4C50.1,21.9,50.2,21.7,50.2,21.4
	L50.2,21.4z"/>
<path class="st1" d="M52.3,31.2c0-0.2-0.2-0.4-0.4-0.4c-0.2,0-0.4,0.2-0.4,0.5c0,0.2,0.2,0.4,0.4,0.4C52.1,31.6,52.3,31.4,52.3,31.2
	L52.3,31.2z"/>
<path class="st1" d="M51.2,20.5c0-0.2-0.2-0.4-0.4-0.3c-0.2,0-0.3,0.2-0.3,0.4c0,0.2,0.2,0.4,0.4,0.3C51.1,20.8,51.2,20.7,51.2,20.5
	L51.2,20.5z"/>
<path class="st1" d="M53.8,31.3c0-0.2-0.2-0.4-0.4-0.3c-0.2,0-0.3,0.2-0.3,0.4c0,0.2,0.2,0.4,0.4,0.3C53.7,31.7,53.8,31.5,53.8,31.3
	L53.8,31.3z"/>
<path class="st0" d="M194.2,38l-83.8,0.6l-83.8-0.6c0,0,67.1-0.6,83.7-0.6C127,37.4,194.2,38,194.2,38L194.2,38z"/>
<path class="st0" d="M194.2,34.8l-83.8,0.6l-83.8-0.6c0,0,67.1-0.6,83.7-0.6C127,34.2,194.2,34.8,194.2,34.8L194.2,34.8z"/>
<polygon class="st0" points="2.6,116.4 218.8,116.4 218.8,117.1 2.6,117.1 2.6,116.4 "/>
<path class="st0" d="M26.2,116.7c-4.2,0.6-5.1,1-6.3,3c-1.2-2-2.2-2.5-6.3-3c4.2-0.6,5.1-1,6.3-3C21,115.7,22,116.1,26.2,116.7
	L26.2,116.7z"/>
<path class="st0" d="M16.2,116.7c-3.2,0.4-3.9,0.8-4.8,2.3c-0.9-1.5-1.6-1.9-4.8-2.3c3.2-0.4,3.9-0.8,4.8-2.3
	C12.3,115.9,13,116.3,16.2,116.7L16.2,116.7z"/>
<path class="st0" d="M7.2,116.7c-2.4,0.3-2.9,0.6-3.6,1.7c-0.7-1.1-1.2-1.4-3.6-1.7c2.4-0.3,2.9-0.6,3.6-1.7
	C4.3,116.1,4.8,116.4,7.2,116.7L7.2,116.7z"/>
<path class="st0" d="M194.7,116.7c4.2,0.6,5.1,1,6.3,3c1.2-2,2.2-2.5,6.3-3c-4.2-0.6-5.1-1-6.3-3
	C199.8,115.7,198.8,116.1,194.7,116.7L194.7,116.7z"/>
<path class="st0" d="M204.7,116.7c3.2,0.4,3.9,0.8,4.8,2.3c0.9-1.5,1.7-1.9,4.8-2.3c-3.2-0.4-3.9-0.8-4.8-2.3
	C208.6,115.9,207.8,116.3,204.7,116.7L204.7,116.7z"/>
<path class="st0" d="M213.7,116.7c2.4,0.3,2.9,0.6,3.6,1.7c0.7-1.1,1.2-1.4,3.6-1.7c-2.4-0.3-2.9-0.6-3.6-1.7
	C216.6,116.1,216,116.4,213.7,116.7L213.7,116.7z"/>
<path class="st0" d="M194.2,115.1l-83.8-0.6l-83.8,0.6c0,0,67.1,0.6,83.7,0.6C127,115.7,194.2,115.1,194.2,115.1L194.2,115.1z"/>
<path class="st0" d="M194.2,118.3l-83.8-0.6l-83.8,0.6c0,0,67.1,0.6,83.7,0.6C127,118.9,194.2,118.3,194.2,118.3L194.2,118.3z"/>
</svg>
