<?xml version="1.0" encoding="utf-8"?>
<!-- Generator: Adobe Illustrator 22.1.0, SVG Export Plug-In . SVG Version: 6.00 Build 0)  -->
<svg version="1.1" id="objects" xmlns="http://www.w3.org/2000/svg" xmlns:xlink="http://www.w3.org/1999/xlink" x="0px" y="0px"
	 viewBox="0 0 191.7202911 191.719696" style="enable-background:new 0 0 191.7202911 191.719696;" xml:space="preserve">
<style type="text/css">
	.st0{fill:url(#SVGID_1_);}
	.st1{fill:#FFFFFF;}
</style>
<radialGradient id="SVGID_1_" cx="30.211092" cy="189.1395416" r="229.3936615" gradientUnits="userSpaceOnUse">
	<stop  offset="0" style="stop-color:#FEC053"/>
	<stop  offset="0.327273" style="stop-color:#F2203E"/>
	<stop  offset="0.648485" style="stop-color:#B729A8"/>
	<stop  offset="1" style="stop-color:#5342D6"/>
</radialGradient>
<path class="st0" d="M191.7202911,160.4971008c0,17.1728058-14.0507965,31.2225952-31.222702,31.2225952H31.2227001
	C14.0502996,191.719696,0,177.6699066,0,160.4971008V31.2226009C0,14.0508003,14.0502996,0,31.2227001,0h129.2748871
	c17.1719055,0,31.222702,14.0508003,31.222702,31.2226009V160.4971008z"/>
<g>
	<g>
		<path class="st1" d="M124.0295486,161.2539063H67.6907501c-20.5261192,0-37.2246475-16.6977081-37.2246475-37.2242432V67.690033
			c0-20.5249557,16.6985302-37.2242355,37.2246475-37.2242355h56.3387985c20.5253677,0,37.2246475,16.6992779,37.2246475,37.2242355
			v56.3396301C161.2541962,144.5561981,144.5549164,161.2539063,124.0295486,161.2539063z M67.6907501,41.6766205
			c-14.3442307,0-26.0142441,11.6696014-26.0142441,26.0134125v56.3396301
			c0,14.3446503,11.6700134,26.0142517,26.0142441,26.0142517h56.3387985c14.3446426,0,26.0142441-11.6696014,26.0142441-26.0142517
			V67.690033c0-14.343811-11.6696014-26.0134125-26.0142441-26.0134125H67.6907501z"/>
	</g>
	<g>
		<path class="st1" d="M95.8601913,129.3474426c-18.4648819,0-33.487545-15.0219269-33.487545-33.4875488
			c0-18.4648819,15.0226631-33.4876289,33.487545-33.4876289c18.4647903,0,33.4875412,15.022747,33.4875412,33.4876289
			C129.3477325,114.3255157,114.3249817,129.3474426,95.8601913,129.3474426z M95.8601913,73.5830841
			c-12.2833252,0-22.2772217,9.9930725-22.2772217,22.2768097s9.9938965,22.2775497,22.2772217,22.2775497
			c12.2841492,0,22.2771378-9.9938126,22.2771378-22.2775497S108.1443405,73.5830841,95.8601913,73.5830841z"/>
	</g>
	<g>
		<path class="st1" d="M138.8333893,60.456192c0,4.4455338-3.6035461,8.0478363-8.048584,8.0478363
			c-4.4451218,0-8.0482483-3.6023026-8.0482483-8.0478363c0-4.4454498,3.6031265-8.0485764,8.0482483-8.0485764
			C135.2298431,52.4076157,138.8333893,56.0107422,138.8333893,60.456192z"/>
	</g>
</g>
</svg>
