<?xml version="1.0" encoding="utf-8"?>
<!-- Generator: Adobe Illustrator 22.1.0, SVG Export Plug-In . SVG Version: 6.00 Build 0)  -->
<svg version="1.1" id="objects" xmlns="http://www.w3.org/2000/svg" xmlns:xlink="http://www.w3.org/1999/xlink" x="0px" y="0px"
	 viewBox="0 0 157.8475952 157.847702" style="enable-background:new 0 0 157.8475952 157.847702;" xml:space="preserve">
<style type="text/css">
	.st0{fill:url(#SVGID_1_);}
	.st1{fill:url(#SVGID_2_);}
	.st2{fill:url(#SVGID_3_);}
</style>
<g>
	<g>
		<radialGradient id="SVGID_1_" cx="0.8877349" cy="173.1739197" r="225.7235413" gradientUnits="userSpaceOnUse">
			<stop  offset="0" style="stop-color:#FEC053"/>
			<stop  offset="0.327273" style="stop-color:#F2203E"/>
			<stop  offset="0.648485" style="stop-color:#B729A8"/>
			<stop  offset="1" style="stop-color:#5342D6"/>
		</radialGradient>
		<path class="st0" d="M112.9208984,157.847702H44.9258003C20.1522999,157.847702,0,137.6952972,0,112.9218979V44.9258003
			C0,20.1543007,20.1522999,0,44.9258003,0h67.9951019c24.7723999,0,44.9266968,20.1543007,44.9266968,44.9258003v67.9960938
			C157.8475952,137.6952972,137.6932983,157.847702,112.9208984,157.847702z M44.9258003,13.5303001
			c-17.3125019,0-31.3964996,14.0839996-31.3964996,31.3955002v67.9960938
			c0,17.3125076,14.0839987,31.3965073,31.3964996,31.3965073h67.9951019c17.3125,0,31.3964996-14.0839996,31.3964996-31.3965073
			V44.9258003c0-17.3115005-14.0839996-31.3955002-31.3964996-31.3955002H44.9258003z"/>
	</g>
	<g>
		<radialGradient id="SVGID_2_" cx="0.8876981" cy="173.1740723" r="225.7241974" gradientUnits="userSpaceOnUse">
			<stop  offset="0" style="stop-color:#FEC053"/>
			<stop  offset="0.327273" style="stop-color:#F2203E"/>
			<stop  offset="0.648485" style="stop-color:#B729A8"/>
			<stop  offset="1" style="stop-color:#5342D6"/>
		</radialGradient>
		<path class="st1" d="M78.9237976,119.3398972c-22.2851982,0-40.4160004-18.1298981-40.4160004-40.4160004
			c0-22.2851982,18.1308022-40.4160957,40.4160004-40.4160957s40.4160004,18.1308975,40.4160004,40.4160957
			C119.339798,101.2099991,101.2089996,119.3398972,78.9237976,119.3398972z M78.9237976,52.0381012
			c-14.8252029,0-26.8866844,12.0606003-26.8866844,26.8857956s12.0614815,26.8867035,26.8866844,26.8867035
			s26.8856964-12.0615005,26.8856964-26.8867035S93.7490005,52.0381012,78.9237976,52.0381012z"/>
	</g>
	<g>
		<radialGradient id="SVGID_3_" cx="0.8867896" cy="173.1699829" r="225.7217712" gradientUnits="userSpaceOnUse">
			<stop  offset="0" style="stop-color:#FEC053"/>
			<stop  offset="0.327273" style="stop-color:#F2203E"/>
			<stop  offset="0.648485" style="stop-color:#B729A8"/>
			<stop  offset="1" style="stop-color:#5342D6"/>
		</radialGradient>
		<path class="st2" d="M130.7871094,36.1953011c0,5.3652992-4.3486099,9.7128983-9.7129135,9.7128983
			c-5.3651962,0-9.7138977-4.347599-9.7138977-9.7128983c0-5.365202,4.3487015-9.7138004,9.7138977-9.7138004
			C126.4384995,26.4815006,130.7871094,30.8300991,130.7871094,36.1953011z"/>
	</g>
</g>
</svg>
