<?xml version="1.0" encoding="utf-8"?><svg xmlns="http://www.w3.org/2000/svg" xmlns:xlink="http://www.w3.org/1999/xlink"><symbol viewBox="0 0 289.048 492.004" id="icon-arrow" xmlns="http://www.w3.org/2000/svg"><path d="M281.2 226.804L62.252 7.86C57.188 2.792 50.428 0 43.22 0S29.252 2.792 24.188 7.86L8.064 23.98c-10.492 10.504-10.492 27.576 0 38.064L191.92 245.9 7.86 429.96C2.796 435.028 0 441.784 0 448.988c0 7.212 2.796 13.968 7.86 19.04l16.124 16.116c5.068 5.068 11.824 7.86 19.032 7.86s13.968-2.792 19.032-7.86L281.2 265c5.076-5.084 7.864-11.872 7.848-19.088.016-7.244-2.772-14.028-7.848-19.108z"/></symbol><symbol viewBox="0 0 511.997 468.587" id="icon-cart" xmlns="http://www.w3.org/2000/svg"><path d="M405.387 340.907c-35.202 0-63.84 28.639-63.84 63.84s28.639 63.84 63.84 63.84 63.84-28.639 63.84-63.84-28.639-63.84-63.84-63.84zm0 89.376c-14.083 0-25.536-11.453-25.536-25.536s11.453-25.536 25.536-25.536 25.536 11.453 25.536 25.536-11.453 25.536-25.536 25.536zM507.927 94.17a19.128 19.128 0 00-15.079-7.348H118.22l-17.237-72.12A19.16 19.16 0 0082.354 0H19.152C8.574-.001 0 8.573 0 19.151s8.574 19.152 19.152 19.152h48.085l62.244 260.443a19.153 19.153 0 0018.629 14.702h298.135c8.804 0 16.477-6.001 18.59-14.543l46.604-188.329a19.185 19.185 0 00-3.512-16.406zm-76.666 180.975H163.227l-35.853-150.019h341.003l-37.116 150.019zm-257.615 65.762c-35.202 0-63.84 28.639-63.84 63.84s28.639 63.84 63.84 63.84 63.84-28.639 63.84-63.84-28.639-63.84-63.84-63.84zm0 89.376c-14.083 0-25.536-11.453-25.536-25.536s11.453-25.536 25.536-25.536 25.536 11.453 25.536 25.536-11.453 25.536-25.536 25.536z"/></symbol><symbol viewBox="0 0 384 512" id="icon-cont-1" xmlns="http://www.w3.org/2000/svg"><path class="cst0" d="M192 0C86.1 0 0 86.1 0 192c0 141.6 177.1 310 184.7 317.1 2.1 1.9 4.7 2.9 7.3 2.9s5.3-1 7.3-2.9C206.9 502 384 333.6 384 192 384 86.1 297.9 0 192 0zm0 298.7c-58.8 0-106.7-47.9-106.7-106.7S133.2 85.3 192 85.3 298.7 133.2 298.7 192 250.8 298.7 192 298.7z"/></symbol><symbol viewBox="0 0 512 352" id="icon-cont-2" xmlns="http://www.w3.org/2000/svg"><path d="M339.392 178.624L512 287.744V64.896zM0 64.896v222.848l172.608-109.12zM480 0H32C16.032 0 3.36 11.904.96 27.232L256 195.264 511.04 27.232C508.64 11.904 495.968 0 480 0zM310.08 197.952l-45.28 29.824c-2.688 1.76-5.728 2.624-8.8 2.624s-6.112-.864-8.8-2.624l-45.28-29.856L1.024 324.992C3.488 340.192 16.096 352 32 352h448c15.904 0 28.512-11.808 30.976-27.008L310.08 197.952z"/></symbol><symbol viewBox="0 0 513.64 513.64" id="icon-cont-3" xmlns="http://www.w3.org/2000/svg"><path d="M499.66 376.96l-71.68-71.68c-25.6-25.6-69.12-15.359-79.36 17.92-7.68 23.041-33.28 35.841-56.32 30.72-51.2-12.8-120.32-79.36-133.12-133.12-7.68-23.041 7.68-48.641 30.72-56.32 33.28-10.24 43.52-53.76 17.92-79.36l-71.68-71.68c-20.48-17.92-51.2-17.92-69.12 0L18.38 62.08c-48.64 51.2 5.12 186.88 125.44 307.2s256 176.641 307.2 125.44l48.64-48.64c17.921-20.48 17.921-51.2 0-69.12z"/></symbol><symbol viewBox="0 0 512 512" id="icon-cont-4" xmlns="http://www.w3.org/2000/svg"><path d="M256 0C114.836 0 0 114.836 0 256s114.836 256 256 256 256-114.836 256-256S397.164 0 256 0zm121.75 388.414c-4.16 4.16-9.621 6.254-15.082 6.254s-10.926-2.094-15.082-6.254L240.918 281.75a21.237 21.237 0 01-6.25-15.082V128c0-11.797 9.555-21.332 21.332-21.332s21.332 9.535 21.332 21.332v129.836L377.75 358.25c8.34 8.344 8.34 21.824 0 30.164z"/></symbol><symbol viewBox="0 0 512 455.5" id="icon-heart" xmlns="http://www.w3.org/2000/svg"><path d="M256 455.5c-7.3 0-14.3-2.6-19.8-7.4C215.5 430 195.6 413 178 398l-.1-.1C126.3 354 81.8 316 50.8 278.6 16.1 236.8 0 197.2 0 153.9 0 111.8 14.4 73 40.6 44.6 67.1 15.8 103.5 0 143 0c29.6 0 56.6 9.3 80.4 27.8 12 9.3 22.9 20.7 32.5 34 9.6-13.3 20.5-24.7 32.5-34C312.4 9.3 339.4 0 369 0c39.5 0 75.9 15.8 102.4 44.6C497.6 73 512 111.8 512 153.9c0 43.3-16.1 82.9-50.8 124.7-31 37.4-75.5 75.4-127.1 119.3-17.6 15-37.6 32-58.3 50.2-5.5 4.8-12.5 7.4-19.8 7.4zM143 30c-31 0-59.6 12.4-80.3 34.9-21.1 22.9-32.7 54.5-32.7 89 0 36.4 13.5 69 43.9 105.6 29.3 35.4 73 72.6 123.5 115.6l.1.1c17.7 15.1 37.7 32.1 58.5 50.3 21-18.3 41-35.3 58.7-50.4 50.5-43.1 94.1-80.2 123.5-115.6 30.3-36.6 43.9-69.2 43.9-105.6 0-34.5-11.6-66.1-32.7-89C428.6 42.4 400 30 369 30c-22.8 0-43.7 7.2-62.1 21.5-16.4 12.7-27.9 28.8-34.6 40-3.5 5.8-9.5 9.2-16.3 9.2s-12.8-3.5-16.3-9.2c-6.7-11.3-18.2-27.3-34.6-40C186.7 37.2 165.8 30 143 30z"/></symbol><symbol viewBox="0 0 512 512" id="icon-login" xmlns="http://www.w3.org/2000/svg"><path d="M216 512H80c-44.1 0-80-35.9-80-80V80C0 35.9 35.9 0 80 0h136c44.1 0 80 35.9 80 80v56c0 11-9 20-20 20s-20-9-20-20V80c0-22.1-17.9-40-40-40H80c-22.1 0-40 17.9-40 40v352c0 22.1 17.9 40 40 40h136c22.1 0 40-17.9 40-40v-55c0-11 9-20 20-20s20 9 20 20v55c0 44.1-35.9 80-80 80zm186.7-122.4l91.6-91.1c11.4-11.3 17.7-26.4 17.7-42.5s-6.3-31.2-17.7-42.5l-91.6-91.1a38.95 38.95 0 00-42.6-8.4c-14.6 6.1-24 20.2-24 36v86H100c-11 0-20 9-20 20s9 20 20 20h236c22.1 0 40-17.9 40-40v-83.7l90.1 89.6c3.8 3.8 5.9 8.8 5.9 14.1 0 5.3-2.1 10.4-5.9 14.1L376 359.7V340c0-11-9-20-20-20s-20 9-20 20v22c0 15.8 9.4 29.9 24 36 4.9 2 10 3 15.1 3 10.2 0 20.1-4 27.6-11.4z"/></symbol><symbol viewBox="0 0 512 341.1" id="icon-purse" xmlns="http://www.w3.org/2000/svg"><path d="M0 139.5V272c0 38.2 30.9 69.1 69.1 69.1h373.8c38.2 0 69.1-30.9 69.1-69.1V139.5c0-6.6-5.4-12-12-12H12c-6.6 0-12 5.4-12 12zm127.8 84.1h-32c-11.6 0-21-9.4-21-21s9.4-21 21-21h32c11.6 0 21 9.4 21 21s-9.4 21-21 21zM512 73.4v-4.3C512 30.9 481.1 0 442.9 0H69.1C30.9 0 0 30.9 0 69.1v4.3c0 6.6 5.4 12 12 12h488c6.6 0 12-5.3 12-12z"/></symbol><symbol viewBox="0 0 512 512" id="icon-search" xmlns="http://www.w3.org/2000/svg"><path d="M225.474 0C101.151 0 0 101.151 0 225.474c0 124.33 101.151 225.474 225.474 225.474 124.33 0 225.474-101.144 225.474-225.474C450.948 101.151 349.804 0 225.474 0zm0 409.323c-101.373 0-183.848-82.475-183.848-183.848S124.101 41.626 225.474 41.626s183.848 82.475 183.848 183.848-82.475 183.849-183.848 183.849z"/><path d="M505.902 476.472L386.574 357.144c-8.131-8.131-21.299-8.131-29.43 0-8.131 8.124-8.131 21.306 0 29.43l119.328 119.328A20.74 20.74 0 00491.187 512a20.754 20.754 0 0014.715-6.098c8.131-8.124 8.131-21.306 0-29.43z"/></symbol><symbol viewBox="0 0 135.662 112.173" id="icon-telegram" xmlns="http://www.w3.org/2000/svg"><path class="kst0" d="M8.317 48.852l80.81-33.295C97.102 12.089 124.154.99 124.154.99s12.486-4.855 11.445 6.937c-.346 4.855-3.121 21.85-5.896 40.23l-8.67 54.452s-.694 7.977-6.59 9.364c-5.896 1.387-15.607-4.856-17.34-6.243-1.388-1.04-26.012-16.647-35.03-24.277-2.427-2.081-5.202-6.243.347-11.099C74.907 58.91 89.82 44.69 98.837 35.672c4.162-4.161 8.324-13.872-9.017-2.08L40.918 66.538s-5.549 3.469-15.954.347c-10.404-3.12-22.543-7.282-22.543-7.282s-8.324-5.202 5.896-10.751z"/></symbol><symbol viewBox="0 0 512 512" id="icon-user" xmlns="http://www.w3.org/2000/svg"><path d="M471.4 325c-17-14.9-37.5-27.8-61.2-38.3-10.1-4.5-21.9.1-26.4 10.2s.1 21.9 10.2 26.4c19.9 8.9 37.1 19.5 51 31.8 17.2 15.1 27 36.9 27 59.9v37c0 11-9 20-20 20H60c-11 0-20-9-20-20v-37c0-23 9.8-44.9 27-59.9 20.2-17.8 79.1-59.1 189-59.1 81.6 0 148-66.4 148-148S337.6 0 256 0 108 66.4 108 148c0 47.7 22.7 90.2 57.9 117.3-64.4 14.1-104.4 41.3-125.3 59.7C14.8 347.7 0 380.5 0 415v37c0 33.1 26.9 60 60 60h392c33.1 0 60-26.9 60-60v-37c0-34.5-14.8-67.3-40.6-90zM148 148c0-59.6 48.4-108 108-108s108 48.4 108 108-48.4 108-108 108-108-48.4-108-108z"/></symbol><symbol id="icon-viber" viewBox="0 0 100 108" xml:space="preserve" xmlns="http://www.w3.org/2000/svg"><style>.mst0{fill:#834995}</style><path class="mst0" d="M91.6 60.5C89 82.4 73.3 83.8 70.4 84.8c-1.2.4-12.7 3.3-27 2.4l-15.6 17.3V84.6h-.1c-20.9-6-20.2-28.3-20-40 .2-11.7 2.4-21.3 8.8-27.8 11.5-10.6 35.1-9 35.1-9 20 .1 29.5 6.2 31.7 8.3 7.3 6.4 11.1 21.8 8.3 44.4m-2.9-50C86.1 8.1 75.5.2 51.9.1c0 0-27.8-1.7-41.4 11C3 18.8.3 30.1.1 44.1c-.3 14-.6 40.3 24.1 47.4v10.9s-.2 4.4 2.7 5.3c3.4 1.1 5.4-2.3 8.7-5.9 1.8-2 4.3-4.9 6.1-7.1 16.9 1.5 29.9-1.9 31.4-2.4 3.4-1.1 22.7-3.7 25.9-29.9 3.2-27-1.6-44.2-10.3-51.9"/><path class="mst0" d="M73.6 63.8s-3.2-2.7-4.7-3.9c-1.5-1.1-3.8-2.6-5.1-3.3-2.3-1.3-4.7-.5-5.7.8l-2 2.6c-1 1.3-2.7 1.1-3.1 1-3-.8-6.2-2.6-9.5-5.8s-5.3-6.6-6-10l-.1-.2c-.2-1.4 0-2.1.6-3.1l.1-.1c1.4-1.3 3.9-2.8 4.3-4.3 1-2.6-3.4-8-4-8.9 0 0-3.2-4.2-4.3-5-1.2-1-3.1-1.6-5-.4H29c-5.5 3.7-7.4 5.8-6.9 9l.3 1.3c2.8 8.7 8.1 18.1 16.1 26.4 7.9 8.1 16.5 13 24.9 16.4 2.2.7 4.5.1 6.8-1.9 1.8-1.7 3.2-3.5 4.2-5.4 1.1-2 .7-3.9-.8-5.2M60.5 44.6c-.3 0-.6-.3-.6-.6-.1-2.3-.7-4-1.8-5.2s-2.7-1.8-4.8-1.9c-.3 0-.6-.3-.6-.7s.3-.6.7-.6c2.5.1 4.4.9 5.7 2.3 1.3 1.4 2 3.4 2.2 6-.1.4-.4.7-.8.7"/><path class="mst0" d="M66.7 46.8c-.4 0-.6-.3-.6-.7.1-4.3-1.2-8-3.8-10.9-1.3-1.5-2.9-2.6-4.7-3.4-1.8-.8-3.9-1.3-6.3-1.5-.3 0-.6-.3-.6-.7 0-.4.3-.6.7-.6 5 .4 9 2.2 11.8 5.3 2.8 3.2 4.2 7.1 4.1 11.8.1.4-.2.7-.6.7"/><path class="mst0" d="M73.1 49.3c-.3 0-.6-.3-.6-.6 0-3.8-.6-7.3-1.7-10.3s-2.8-5.6-5-7.8-4.7-3.9-7.4-5-5.8-1.7-9.1-1.7c-.3 0-.6-.3-.6-.6 0-.4.3-.6.6-.6 6.9.1 12.7 2.4 17.4 7.1 2.3 2.3 4.1 5.1 5.3 8.3 1.2 3.2 1.8 6.8 1.8 10.8 0 .1-.3.4-.7.4z"/></symbol><symbol viewBox="0 0 100 100.5" id="icon-wa" xmlns="http://www.w3.org/2000/svg"><path class="nst0" d="M85.4 14.6C76 5.2 63.5 0 50.2 0 22.8 0 .4 22.3.4 49.8c0 8.8 2.3 17.3 6.6 24.9l-7 25.8 26.4-6.9c7.3 4 15.5 6.1 23.8 6.1 27.4 0 49.8-22.3 49.8-49.8 0-13.4-5.2-25.9-14.6-35.3zM50.2 91.2c-7.4 0-14.7-2-21.1-5.8l-1.5-.9L12 88.7l4.2-15.3-1-1.6c-4.1-6.6-6.3-14.2-6.3-22C8.8 27 27.4 8.4 50.2 8.4c11.1 0 21.4 4.3 29.3 12.1 7.8 7.8 12.1 18.2 12.1 29.3 0 22.8-18.6 41.4-41.4 41.4zm22.7-31c-1.2-.6-7.4-3.6-8.5-4s-2-.6-2.8.6c-.8 1.2-3.2 4-3.9 4.9-.7.8-1.5.9-2.7.3s-5.3-1.9-10-6.2c-3.7-3.3-6.2-7.4-6.9-8.6s-.1-1.9.5-2.5 1.2-1.5 1.9-2.2c.6-.7.8-1.2 1.2-2.1.4-.8.2-1.6-.1-2.2-.3-.6-2.8-6.7-3.8-9.2-1-2.4-2-2.1-2.8-2.1h-2.4c-.8 0-2.2.3-3.3 1.6-1.1 1.2-4.4 4.3-4.4 10.4s4.5 12 5.1 12.9c.6.8 8.8 13.4 21.3 18.8 3 1.3 5.3 2 7.1 2.6 3 .9 5.7.8 7.8.5 2.4-.4 7.4-3 8.4-5.9s1-5.4.7-5.9c-.3-.8-1.1-1.1-2.4-1.7z"/></symbol><symbol viewBox="0 0 270.4 98.1" id="iconSheer"><path d="M175.1 51.8c.2 1.2.3 2.1.5 3 2 8.4 8.6 14 17.2 14.7 7.6.6 13.6-2.3 18-8.5 2.2-3 5.7-3.5 8.5-1.1 1.6 1.4 1.8 3.2.5 4.9-.7.9-1.4 1.8-2.1 2.8-2.9 4-6.7 6.7-11.4 8.3-7.6 2.6-15.2 3-22.7.2-10.1-3.7-16.1-11.1-17.8-21.7-1-6.5-.4-13 2.6-18.9 4.3-8.4 11.1-13.6 20.5-15.1 6.2-1 12.4-.4 18.2 2.4 8.2 3.9 13.2 10.5 15.1 19.3.5 2.4.7 4.9.9 7.3.2 1.5-.5 2.2-2.1 2.3h-44.1c-.4.1-.9.1-1.8.1zm38.3-9.2c-1.2-7.9-10.7-14.7-19.4-14.2-9.1.5-18.2 7.5-18.5 14.2h37.9zm-101 9c.1.8.2 1.4.3 2 1.7 9.3 9.3 15.7 18.7 15.9 7.1.1 12.7-2.8 16.8-8.6 2.2-3.1 6.1-3.4 8.8-.7 1.3 1.4 1.5 3 .3 4.6-.5.8-1.1 1.5-1.7 2.2-3.1 4.5-7.3 7.4-12.5 9.1-7.6 2.5-15.2 2.7-22.5-.2-10.6-4.1-16.4-12.1-17.6-23.3-.6-5.4-.1-10.7 2.2-15.6 4.3-9.4 11.4-15.2 21.8-16.6 5.5-.7 11-.3 16.1 1.8 9.2 3.8 14.6 10.9 16.6 20.6.4 2.2.6 4.5.7 6.7.1 1.8-.3 2.2-2.2 2.2h-43.5c-.7-.1-1.4-.1-2.3-.1zm38.4-9.1c-1.2-7.8-10.4-14.4-19.4-14.2-8.8.2-17.9 7.2-18.6 14.2h38zm101 13.5c.7.6 1.1 1 1.5 1.4 4.9 4.2 9.8 8.3 14.6 12.5.3.3.7.6 1 .9 1.8 1.8 2 4.4.3 6.2-1.6 1.8-4.2 2.1-6.1.5-3.4-2.8-6.7-5.7-10-8.5-4.8-4.1-9.5-8.1-14.3-12.2-.4-.4-.9-.7-1.6-1.3 0 1-.1 1.6-.1 2.3v36.1c-.2 2.5-2.1 4.3-4.6 4.2-2.4-.1-4.1-1.9-4.2-4.4V21.9c0-1.6.2-1.9 1.7-1.9 2.1-.1 4.2-.1 6.2-.1 5 0 10.1.2 15.1-.1 8.4-.4 17.8 6.4 18.7 16.3.8 8.9-5.2 17.3-14.3 19.1-1.1.2-2.3.5-3.9.8zm-15.3-6.9c.5.1.9.1 1.2.1h12.6c1.2 0 2.4-.1 3.6-.5 3.9-1.2 7-3.5 8-7.7 1.7-7.1-3.6-13.7-10.9-13.7h-13c-.5 0-1 .1-1.5.1v21.7zM88.5 52H63.9c0 .7-.1 1.4-.1 2v18.9c0 .8 0 1.6-.2 2.3-.6 1.9-2.6 3.1-4.5 3-2.1-.2-3.8-1.8-4.1-3.9-.1-.5 0-1 0-1.5V5.4c0-.9.1-1.8.4-2.6.6-2 2.6-3 4.7-2.8 1.9.3 3.5 2 3.7 3.9.1.6 0 1.2 0 1.8v34.7c0 .7.1 1.4.1 2 1.5.4 22.9.4 24.5 0 0-.5.1-1.1.1-1.7V23.9c.2-2.3 1.9-4 4.2-4.1 2.3-.1 4.3 1.6 4.6 3.9.1.5 0 1 0 1.5v48.9c-.3 2.3-2.3 4.1-4.5 4-2.3-.1-4.1-1.9-4.3-4.2V52zM25 78.3c-5.9-.1-11.4-1.4-16.5-4.4-2.2-1.3-4.2-2.9-5.8-4.8-.8-1-1.6-2.1-2.2-3.3-1-1.9-.6-3.4.9-4.9 1.7-1.6 4.1-2.3 6.4-.7C9 61 10 62 10.9 63c.9.9 1.6 1.9 2.5 2.8 2.7 2.7 6 4.2 9.8 4.6 3.5.4 7 .3 10.4-.9 1.4-.5 2.8-1.2 4-2.1 2.9-2.2 3-5.9.2-8.2-1.3-1.1-2.9-1.9-4.5-2.6-4-1.7-8.1-2.9-12.3-4-3.4-.8-6.7-1.9-10.1-2.9-1.3-.4-2.5-1.1-3.7-1.7-3.2-1.7-5-4.4-5.5-7.9-1-7.1 1.7-12.8 8.1-15.9 9.8-4.8 19.7-5.2 29.4.4 1.8 1 3.5 2.5 5.1 3.9 1.2 1 2 2.5 2.5 4 .8 2.6-.5 3.9-2.8 4.4-2 .4-3.8-.2-5.2-1.7-.3-.3-.5-.6-.7-.9-2.3-3.4-5.6-5.3-9.6-6.1-4-.7-8-.6-11.8.9-1.4.5-2.8 1.3-3.9 2.3-2.7 2.3-2.7 5.4-.1 7.8 1.7 1.6 3.7 2.5 5.9 3 4.8 1.2 9.7 2.4 14.5 3.6 3.1.8 6.1 1.8 8.9 3.4 3.6 1.9 6.2 4.7 7.1 8.8 1.1 5 0 9.4-3.9 13-4.4 4-9.5 6.3-15.4 7-1.7.1-3.3.2-4.8.3z"/></symbol></svg>