<?xml version="1.0" encoding="utf-8"?>
<!-- Generator: Adobe Illustrator 22.1.0, SVG Export Plug-In . SVG Version: 6.00 Build 0)  -->
<svg version="1.1" id="Layer_1" xmlns="http://www.w3.org/2000/svg" xmlns:xlink="http://www.w3.org/1999/xlink" x="0px" y="0px"
	 viewBox="0 0 205.2 44.9" style="enable-background:new 0 0 205.2 44.9;" xml:space="preserve">
<style type="text/css">
	.st0{fill:#fff;}
</style>
<path class="st0" d="M48.2,14.5c1.5-6.9-2.6-14.1-11.6-14.1H22.5l-2.3,10.5h10.6c2.2,0,3.5,1.7,3.1,3.8c-0.5,2.1-2.6,3.7-4.7,3.7
	H18.4l14.4,25.5h15l-9.7-17.1C40.7,25.4,46.6,21.7,48.2,14.5L48.2,14.5z"/>
<path class="st0" d="M2.5,32.7L0,43.9h12.8l5.6-25.5C10.6,18.7,4.5,23.7,2.5,32.7L2.5,32.7z"/>
<path class="st0" d="M10.9,11.6c3.3,0,6-2.6,6-5.8c0-3.2-2.7-5.8-6-5.8c-3.3,0-6,2.6-6,5.8C4.9,9,7.6,11.6,10.9,11.6L10.9,11.6z"/>
<path class="st0" d="M195.9,0.4h-12.1l-6.2,28.4c-1.8,8.3,4.3,16,18.8,16c0.1,0,0.4,0,0.4,0l2.5-11.1c-4.6,0.7-10.4-1-9.4-5.7
	l1.6-7.1h10.7l2.2-10h-10.7L195.9,0.4L195.9,0.4z"/>
<path class="st0" d="M115.1,11.1c-2.4,0-6.6,0.6-8,1.3l2.6-12H97.7L91.6,28c-2.2,9.8,4.7,16.9,16.1,16.9c12.7,0,21.2-5.3,23.6-16.2
	C133.6,18.2,125.5,11.1,115.1,11.1L115.1,11.1z M119.3,28c-0.9,4.2-4.5,7.1-9.5,7.1c-5,0-7-3.1-6.1-7.4c1-4.3,4.2-6.8,9.3-6.8
	C118,20.9,120.3,23.8,119.3,28L119.3,28z"/>
<path class="st0" d="M158.2,11.1c-11.4,0-21.3,6.5-23.6,16.9c-2.3,10.4,4.8,16.9,15.9,16.9c13.7,0,21.7-6.5,23.9-16.9
	C176.7,17.5,169.6,11.1,158.2,11.1L158.2,11.1z M162.3,28c-0.9,4.2-4.4,7.1-9.4,7.1c-5,0-7.2-2.9-6.2-7.2c1-4.3,4.3-7,9.4-7
	C161.1,20.9,163.3,23.8,162.3,28L162.3,28z"/>
<path class="st0" d="M72,11.1c-11.4,0-21.3,6.5-23.6,16.9c-2.3,10.4,4.8,16.9,15.9,16.9C78,44.9,86,38.4,88.2,28
	C90.5,17.5,83.4,11.1,72,11.1L72,11.1z M76.1,28c-0.9,4.2-4.4,7.1-9.4,7.1c-5,0-7.2-2.9-6.2-7.2c1-4.3,4.3-7,9.4-7
	C74.8,20.9,77,23.8,76.1,28L76.1,28z"/>
<path class="st0" d="M202.4,0.8c1.5,0,2.8,1.2,2.8,2.7c0,1.5-1.2,2.7-2.8,2.7c-1.5,0-2.8-1.2-2.8-2.7C199.6,2,200.9,0.8,202.4,0.8
	L202.4,0.8z M202.4,5.8c1.3,0,2.3-1,2.3-2.2c0-1.2-1-2.2-2.3-2.2c-1.3,0-2.3,1-2.3,2.2C200,4.8,201.1,5.8,202.4,5.8L202.4,5.8z
	 M203.9,5h-0.6l-1-1.2h-0.5V5h-0.5V2h1.1c0.9,0,1.2,0.5,1.2,0.9c0,0.5-0.3,0.8-0.8,0.9L203.9,5L203.9,5z M202.4,2.4h-0.6v1h0.6
	c0.5,0,0.7-0.2,0.7-0.5C203.1,2.7,203,2.4,202.4,2.4L202.4,2.4z"/>
</svg>
