<?xml version="1.0" encoding="utf-8"?>
<!-- Generator: Adobe Illustrator 22.0.1, SVG Export Plug-In . SVG Version: 6.00 Build 0)  -->
<svg version="1.1" id="Layer_1" xmlns="http://www.w3.org/2000/svg" xmlns:xlink="http://www.w3.org/1999/xlink" x="0px" y="0px"
	 viewBox="0 0 58.2 70.3" style="enable-background:new 0 0 58.2 70.3;" xml:space="preserve">
<style type="text/css">
	.st0{fill:#72BF44;}
</style>
<polygon class="st0" points="29.1,70.3 8.8,50.1 29.1,50.1 49.4,50.1 "/>
<path class="st0" d="M29,0C12.9,0.1-0.1,13.2,0,29.2c0.1,16.1,13.2,29.1,29.2,29c16.1-0.1,29.1-13.2,29-29.2
	C58.2,12.9,45.1-0.1,29,0L29,0z M20.6,14.3c2.1,0,3.9,1.7,3.9,3.9c0,2.1-1.7,3.9-3.9,3.9c-2.1,0-3.9-1.7-3.9-3.9
	C16.7,16,18.5,14.3,20.6,14.3L20.6,14.3z M44.6,24c-1,4.8-4.8,7.3-6.5,8.2l6.2,11.5h-9.7l-9.2-17.1l-3.6,17.1h-8.2l1.6-7.5
	c1.3-6,5.2-9.4,10.2-9.5h6.9c1.4,0,2.7-1.1,3-2.5c0.3-1.4-0.6-2.5-2-2.5h-6.8l1.5-7h9C42.9,14.5,45.5,19.4,44.6,24L44.6,24z"/>
</svg>
