<?xml version="1.0" encoding="utf-8"?><svg xmlns="http://www.w3.org/2000/svg" xmlns:xlink="http://www.w3.org/1999/xlink"><symbol viewBox="0 0 26.6 36.4" id="form-phone" xmlns="http://www.w3.org/2000/svg"><path d="M4.2.5l-1.1.7C1.8 2 .8 3.4.3 5.3-.8 9.9 1 16.8 4.9 23.5c5.8 9.6 14 15 18.8 12.1l1.1-.7c.8-.5 1.4-1.3 1.6-2.2.2-.9.1-1.9-.4-2.7l-2.6-4.4c-1-1.7-3.2-2.2-4.9-1.2l-1.1.7c-1.2.7-3.5-.3-6.5-5.3-2.5-4.2-2.6-6.3-2.3-7.2.1-.5.3-.8.7-1l1.1-.7c1.6-1 2.2-3.3 1.2-4.9L9.1 1.7C8.6.9 7.8.3 6.9.1 6-.1 5 0 4.2.5zm3.1 2.3l2.6 4.4c.4.7.2 1.7-.5 2.1l-1.1.6c-.8.5-1.4 1.3-1.6 2.2-.5 2.1.3 5 2.6 8.7 4.6 7.7 8 6.8 9.2 6l1.1-.7c.7-.4 1.7-.2 2.1.5l2.6 4.4c.4.7.2 1.7-.5 2.1l-1.1.7c-3.7 2.2-11-3-16-11.4C3 16.3 1.3 9.8 2.3 5.7c.3-1.4 1-2.3 1.8-2.8l1.1-.7c.4-.2.8-.2 1.2-.1.4.1.7.3.9.7z"/></symbol><symbol viewBox="0 0 32 32" id="form-user" xmlns="http://www.w3.org/2000/svg"><path d="M16 22c5 0 9-4.9 9-11S21 0 16 0c-2.4 0-4.7 1.2-6.4 3.3C7.9 5.4 7 8.1 7 11c0 6.1 4 11 9 11zm0-20c3.9 0 7 4 7 9s-3.1 9-7 9-7-4-7-9 3.1-9 7-9zm7 18c-.6 0-1 .4-1 1s.4 1 1 1c3.9 0 7 3.1 7 7 0 .6-.4 1-1 1H3c-.6 0-1-.4-1-1 0-3.9 3.1-7 7-7 .6 0 1-.4 1-1s-.4-1-1-1c-5 0-9 4-9 9 0 1.7 1.3 3 3 3h26c1.7 0 3-1.3 3-3 0-5-4-9-9-9z"/></symbol><symbol viewBox="0 0 367.3 378.4" id="icon-adv-1" xmlns="http://www.w3.org/2000/svg"><path d="M350.6 0H16.7C7.5 0 0 7.5 0 16.7v345c0 9.2 7.5 16.7 16.7 16.7h333.9c9.2 0 16.7-7.5 16.7-16.7v-345c0-9.2-7.5-16.7-16.7-16.7zm-16.7 133.6h-50.1c-9.2 0-16.7 7.5-16.7 16.7s7.5 16.7 16.7 16.7h50.1v178H122.4v-50c0-9.2-7.5-16.7-16.7-16.7S89 285.7 89 295v50H33.4V33.4H89V217c0 9.2 7.5 16.7 16.7 16.7s16.7-7.5 16.7-16.7v-50h83.5c9.2 0 16.7-7.5 16.7-16.7s-7.5-16.7-16.7-16.7h-83.5V33.4h211.5v100.2z"/></symbol><symbol viewBox="0 0 294.5 294.5" id="icon-adv-2" xmlns="http://www.w3.org/2000/svg"><path d="M174.4 32.5c-6.8-10-12.8-19.2-18.4-27.6-.8-1.2-2-2.4-3.2-3.2-4.8-3.2-11.2-1.6-14.4 3.2-5.2 8.4-11.2 17.2-18.4 27.6-31.6 46.4-78.8 116.4-78.8 156.4 0 29.2 12 55.6 31.2 74.8 19.2 18.8 45.6 30.8 74.8 30.8s55.6-12 74.8-31.2 31.2-45.6 31.2-74.8c0-40-47.2-109.6-78.8-156zm33.2 216.4c-15.6 15.6-36.8 24.8-60.4 24.8s-44.8-9.6-60.4-24.8C71.2 233.3 62 212.1 62 188.5c0-33.6 45.2-100.4 75.2-144.8 3.6-5.2 6.8-10.4 10-14.8 3.2 4.4 6.4 9.6 10 14.8 30 44.8 75.2 111.2 75.2 144.8 0 23.6-9.6 44.8-24.8 60.4z"/><path d="M209.2 181.3c-5.6-.4-10.4 4-10.8 9.6-.4 8.8-3.2 17.2-7.6 24.4-4.4 7.2-10.8 13.6-18.4 17.6-4.8 2.8-6.8 9.2-4 14 3.2 5.6 9.6 7.2 14.4 4.4 10.8-6 19.6-14.8 25.6-24.8 6.4-10 10-22 10.4-34.4.4-5.6-4-10.4-9.6-10.8z"/></symbol><symbol viewBox="0 0 512 512" id="icon-adv-3" xmlns="http://www.w3.org/2000/svg"><path d="M229.6 143.2l136.1-90.8v235.7l36.6 36.6V18.3c0-6.8-3.7-12.9-9.7-16.1-5.9-3.2-13.2-2.8-18.8.9l-160 106.6h-26.6l35.5 35.5c2.5-.4 4.9-.7 6.9-2zM512 486.1L25.9 0 0 25.9l109.7 109.7V384c0 10.1 8.2 18.3 18.3 18.3h85.9l160 106.6c3.1 2 6.6 3.1 10.1 3.1 3 0 5.9-.7 8.6-2.2 5.9-3.2 9.7-9.4 9.7-16.1v-65.6l83.9 83.9 25.8-25.9zm-146.3-26.5l-136.1-90.8c-3-2-6.5-3.1-10.1-3.1h-73.1V172.1l219.4 219.4c-.1.1-.1 68.1-.1 68.1z"/></symbol><symbol viewBox="0 0 16 17.5" id="icon-arrow" xmlns="http://www.w3.org/2000/svg"><path fill="none" stroke="#71bf44" stroke-width="2" stroke-linecap="round" stroke-linejoin="round" stroke-miterlimit="10" d="M4.9 16.5v-6.4H1L8 1l7 9.1h-3.9v6.4-6.4H15L8 1l-7 9.1h3.9z"/></symbol><symbol viewBox="0 0 16 17.5" id="icon-arrow-orange" xmlns="http://www.w3.org/2000/svg"><path fill="none" stroke="#ff5800" stroke-width="2" stroke-linecap="round" stroke-linejoin="round" stroke-miterlimit="10" d="M4.9 16.5v-6.4H1L8 1l7 9.1h-3.9v6.4-6.4H15L8 1l-7 9.1h3.9z"/></symbol><symbol viewBox="0 0 270.4 98.1" id="iconSheer"><path d="M175.1 51.8c.2 1.2.3 2.1.5 3 2 8.4 8.6 14 17.2 14.7 7.6.6 13.6-2.3 18-8.5 2.2-3 5.7-3.5 8.5-1.1 1.6 1.4 1.8 3.2.5 4.9-.7.9-1.4 1.8-2.1 2.8-2.9 4-6.7 6.7-11.4 8.3-7.6 2.6-15.2 3-22.7.2-10.1-3.7-16.1-11.1-17.8-21.7-1-6.5-.4-13 2.6-18.9 4.3-8.4 11.1-13.6 20.5-15.1 6.2-1 12.4-.4 18.2 2.4 8.2 3.9 13.2 10.5 15.1 19.3.5 2.4.7 4.9.9 7.3.2 1.5-.5 2.2-2.1 2.3h-44.1c-.4.1-.9.1-1.8.1zm38.3-9.2c-1.2-7.9-10.7-14.7-19.4-14.2-9.1.5-18.2 7.5-18.5 14.2h37.9zm-101 9c.1.8.2 1.4.3 2 1.7 9.3 9.3 15.7 18.7 15.9 7.1.1 12.7-2.8 16.8-8.6 2.2-3.1 6.1-3.4 8.8-.7 1.3 1.4 1.5 3 .3 4.6-.5.8-1.1 1.5-1.7 2.2-3.1 4.5-7.3 7.4-12.5 9.1-7.6 2.5-15.2 2.7-22.5-.2-10.6-4.1-16.4-12.1-17.6-23.3-.6-5.4-.1-10.7 2.2-15.6 4.3-9.4 11.4-15.2 21.8-16.6 5.5-.7 11-.3 16.1 1.8 9.2 3.8 14.6 10.9 16.6 20.6.4 2.2.6 4.5.7 6.7.1 1.8-.3 2.2-2.2 2.2h-43.5c-.7-.1-1.4-.1-2.3-.1zm38.4-9.1c-1.2-7.8-10.4-14.4-19.4-14.2-8.8.2-17.9 7.2-18.6 14.2h38zm101 13.5c.7.6 1.1 1 1.5 1.4 4.9 4.2 9.8 8.3 14.6 12.5.3.3.7.6 1 .9 1.8 1.8 2 4.4.3 6.2-1.6 1.8-4.2 2.1-6.1.5-3.4-2.8-6.7-5.7-10-8.5-4.8-4.1-9.5-8.1-14.3-12.2-.4-.4-.9-.7-1.6-1.3 0 1-.1 1.6-.1 2.3v36.1c-.2 2.5-2.1 4.3-4.6 4.2-2.4-.1-4.1-1.9-4.2-4.4V21.9c0-1.6.2-1.9 1.7-1.9 2.1-.1 4.2-.1 6.2-.1 5 0 10.1.2 15.1-.1 8.4-.4 17.8 6.4 18.7 16.3.8 8.9-5.2 17.3-14.3 19.1-1.1.2-2.3.5-3.9.8zm-15.3-6.9c.5.1.9.1 1.2.1h12.6c1.2 0 2.4-.1 3.6-.5 3.9-1.2 7-3.5 8-7.7 1.7-7.1-3.6-13.7-10.9-13.7h-13c-.5 0-1 .1-1.5.1v21.7zM88.5 52H63.9c0 .7-.1 1.4-.1 2v18.9c0 .8 0 1.6-.2 2.3-.6 1.9-2.6 3.1-4.5 3-2.1-.2-3.8-1.8-4.1-3.9-.1-.5 0-1 0-1.5V5.4c0-.9.1-1.8.4-2.6.6-2 2.6-3 4.7-2.8 1.9.3 3.5 2 3.7 3.9.1.6 0 1.2 0 1.8v34.7c0 .7.1 1.4.1 2 1.5.4 22.9.4 24.5 0 0-.5.1-1.1.1-1.7V23.9c.2-2.3 1.9-4 4.2-4.1 2.3-.1 4.3 1.6 4.6 3.9.1.5 0 1 0 1.5v48.9c-.3 2.3-2.3 4.1-4.5 4-2.3-.1-4.1-1.9-4.3-4.2V52zM25 78.3c-5.9-.1-11.4-1.4-16.5-4.4-2.2-1.3-4.2-2.9-5.8-4.8-.8-1-1.6-2.1-2.2-3.3-1-1.9-.6-3.4.9-4.9 1.7-1.6 4.1-2.3 6.4-.7C9 61 10 62 10.9 63c.9.9 1.6 1.9 2.5 2.8 2.7 2.7 6 4.2 9.8 4.6 3.5.4 7 .3 10.4-.9 1.4-.5 2.8-1.2 4-2.1 2.9-2.2 3-5.9.2-8.2-1.3-1.1-2.9-1.9-4.5-2.6-4-1.7-8.1-2.9-12.3-4-3.4-.8-6.7-1.9-10.1-2.9-1.3-.4-2.5-1.1-3.7-1.7-3.2-1.7-5-4.4-5.5-7.9-1-7.1 1.7-12.8 8.1-15.9 9.8-4.8 19.7-5.2 29.4.4 1.8 1 3.5 2.5 5.1 3.9 1.2 1 2 2.5 2.5 4 .8 2.6-.5 3.9-2.8 4.4-2 .4-3.8-.2-5.2-1.7-.3-.3-.5-.6-.7-.9-2.3-3.4-5.6-5.3-9.6-6.1-4-.7-8-.6-11.8.9-1.4.5-2.8 1.3-3.9 2.3-2.7 2.3-2.7 5.4-.1 7.8 1.7 1.6 3.7 2.5 5.9 3 4.8 1.2 9.7 2.4 14.5 3.6 3.1.8 6.1 1.8 8.9 3.4 3.6 1.9 6.2 4.7 7.1 8.8 1.1 5 0 9.4-3.9 13-4.4 4-9.5 6.3-15.4 7-1.7.1-3.3.2-4.8.3z"/></symbol></svg>