<svg version="1.1" id="Layer_1" xmlns="http://www.w3.org/2000/svg" xmlns:xlink="http://www.w3.org/1999/xlink" x="0px" y="0px"
	 viewBox="0 0 512 512" style="enable-background:new 0 0 512 512;" xml:space="preserve">
<path class="st0" d="M466.1,158.8c5-7.1,7.9-15.8,7.9-25.2v-13c3.8-1.4,6.6-5.1,6.6-9.4v-3.1c0-27.9-22.7-50.6-50.6-50.6
	s-50.6,22.7-50.6,50.6v3.1c0,4.3,2.7,8,6.6,9.4v13c0,9.3,2.9,18,7.9,25.2c-25.1,5.1-44.2,26.6-45.8,52.8H290c-5.5,0-10,4.5-10,10v62
	h-40.6v-62c0-5.5-4.5-10-10-10h-72c-5.5,0-10,4.5-10,10v62h-36V150.1l69.7-69.7l46.5,46.5c3.7,3.7,8.1,6.3,12.8,7.7v16.9l-20.9,20.9
	c-1.9,1.9-2.9,4.4-2.9,7.1V198c0,5.5,4.5,10,10,10c5.5,0,10-4.5,10-10v-14.3l13.8-13.8l13.8,13.8v12.8c0,5.5,4.5,10,10,10
	c5.5,0,10-4.5,10-10v-17c0-2.7-1.1-5.2-2.9-7.1l-20.9-20.9v-17.6c3.9-1.5,7.6-3.8,10.8-7c5.8-5.8,9-13.6,9-21.8s-3.2-16-9-21.8
	l-72.6-72.6c0,0,0,0-0.1,0c-14.4-14.3-37.6-14.2-52,0.1L58.2,99.3c-20.6,4-36.1,22.2-36.1,43.9V195c0,5.5,4.5,10,10,10
	c5.5,0,10-4.5,10-10v-14.6c7.1,4.7,15.6,7.5,24.7,7.5c9.1,0,17.6-2.8,24.7-7.5v106.7c-0.5,0.2-0.9,0.4-1.4,0.6
	c-7.4-2.8-15.3-4.2-23.3-4.2c-8.7,0-17.1,1.7-24.7,4.8V269c0-5.5-4.5-10-10-10s-10,4.5-10,10v31.8C8.5,313,0,330.7,0,350.3V502
	c0,5.5,4.5,10,10,10h456c5.5,0,10-4.5,10-10V335.2c20.1-1.4,36-18.1,36-38.5v-81.5C512,187.3,492.3,164.1,466.1,158.8z M429.5,157.6
	c-13-0.3-23.5-10.9-23.5-24v-12.4h48v12.4c0,13.1-10.5,23.7-23.5,24H429.5z M459.8,101.2H440v-22C449.8,82.6,457.4,90.9,459.8,101.2
	z M420,79.2v22h-19.8C402.6,90.9,410.2,82.6,420,79.2z M413,303.5c13.8,0,25,11.2,25,25s-11.2,25-25,25H109c-13.8,0-25-11.2-25-25
	s11.2-25,25-25H413z M404,373.5h9c2.4,0,4.7-0.2,7-0.5v119h-16V373.5z M64.5,335.4c1.4,9.2,5.7,17.5,11.8,24c-2.6,2.4-6,3.8-9.6,3.8
	c-7.7,0-14-6.3-14-14C52.7,342.3,57.9,336.5,64.5,335.4z M300,231.5h52v52h-52V231.5z M167.4,231.5h52v52h-52V231.5z M146.8,62.6
	c4.2,4.2,9.3,7.3,14.8,9l-53.8,53.8c-4.6-10.6-13.2-19.1-23.9-23.6l54-54C139.6,53.3,142.6,58.4,146.8,62.6z M260.3,105.1
	c0,2.9-1.1,5.6-3.2,7.7c-4.2,4.2-11.1,4.2-15.4,0l-46.5-46.5l3.5-3.5c4.2-4.2,7.3-9.2,9-14.7l49.4,49.4
	C259.2,99.5,260.3,102.2,260.3,105.1z M184.6,24.9c3.2,3.2,4.9,7.4,4.9,11.9c0,4.1-1.5,7.9-4.1,11c-0.3,0.2-0.5,0.5-0.8,0.7
	c-6.5,6.5-17.1,6.5-23.6,0c-6.5-6.5-6.5-17.1,0-23.6c0.2-0.2,0.3-0.3,0.4-0.5C168,18.4,178.2,18.5,184.6,24.9z M66.7,167.9
	c-13.6,0-24.7-11.1-24.7-24.7c0-13.6,11.1-24.7,24.7-24.7c13.6,0,24.7,11.1,24.7,24.7C91.4,156.8,80.4,167.9,66.7,167.9z M20,350.3
	c0-25.8,21-46.7,46.7-46.7c1.6,0,3.2,0.1,4.7,0.2c-2.3,3.5-4.2,7.4-5.4,11.5c-18.4,0.4-33.3,15.5-33.3,34c0,18.8,15.3,34,34,34
	c10.4,0,20-4.7,26.4-12.6c4.9,1.9,10.3,2.9,15.8,2.9h4.5V492H20V350.3z M384,492H133.5v-70.4h117c5.5,0,10-4.5,10-10
	c0-5.5-4.5-10-10-10h-117v-28H384V492z M440,492V364.5c7.5-5.6,13.2-13.5,16-22.7V492H440z M492,296.6c0,9.4-7,17.1-16,18.4v-85
	c0-5.5-4.5-10-10-10s-10,4.5-10,10v62.1v0v23.1c-5.7-18.4-22.8-31.7-43-31.7h-9V230c0-5.5-4.5-10-10-10s-10,4.5-10,10v53.5h-12v-62
	c0-3.3-1.6-6.1-4-8c0.8-20,17.3-36,37.4-36h24c0.2,0,0.4,0,0.5,0c0.2,0,0.4,0,0.5,0h24c20.7,0,37.5,16.8,37.5,37.5V296.6z"/>
<path class="st0" d="M32,245c2.6,0,5.2-1.1,7.1-2.9c1.9-1.9,2.9-4.4,2.9-7.1c0-2.6-1.1-5.2-2.9-7.1c-1.9-1.9-4.4-2.9-7.1-2.9
	c-2.6,0-5.2,1.1-7.1,2.9c-1.9,1.9-2.9,4.4-2.9,7.1c0,2.6,1.1,5.2,2.9,7.1C26.8,243.9,29.4,245,32,245z"/>
<path class="st0" d="M66.7,133.2c-2.6,0-5.2,1.1-7.1,2.9c-1.9,1.9-2.9,4.4-2.9,7.1c0,2.6,1.1,5.2,2.9,7.1s4.4,2.9,7.1,2.9
	c2.6,0,5.2-1.1,7.1-2.9c1.9-1.9,2.9-4.4,2.9-7.1c0-2.6-1.1-5.2-2.9-7.1C71.9,134.2,69.4,133.2,66.7,133.2z"/>
<path class="st0" d="M165.7,43.7c1.9,1.9,4.4,2.9,7.1,2.9c2.6,0,5.2-1.1,7.1-2.9c1.9-1.9,2.9-4.4,2.9-7.1c0-2.6-1.1-5.2-2.9-7.1
	c-1.9-1.9-4.4-2.9-7.1-2.9c-2.6,0-5.2,1.1-7.1,2.9c-1.9,1.9-2.9,4.4-2.9,7.1C162.8,39.3,163.9,41.9,165.7,43.7z"/>
<path class="st0" d="M202,318.5c-2.6,0-5.2,1.1-7.1,2.9c-1.9,1.9-2.9,4.4-2.9,7.1s1.1,5.2,2.9,7.1c1.9,1.9,4.4,2.9,7.1,2.9
	s5.2-1.1,7.1-2.9c1.9-1.9,2.9-4.4,2.9-7.1s-1.1-5.2-2.9-7.1S204.6,318.5,202,318.5z"/>
<path class="st0" d="M138,318.5c-2.6,0-5.2,1.1-7.1,2.9c-1.9,1.9-2.9,4.4-2.9,7.1c0,2.6,1.1,5.2,2.9,7.1s4.4,2.9,7.1,2.9
	c2.6,0,5.2-1.1,7.1-2.9s2.9-4.4,2.9-7.1c0-2.6-1.1-5.2-2.9-7.1S140.6,318.5,138,318.5z"/>
<path class="st0" d="M394,338.5c2.6,0,5.2-1.1,7.1-2.9c1.9-1.9,2.9-4.4,2.9-7.1c0-2.6-1.1-5.2-2.9-7.1s-4.4-2.9-7.1-2.9
	s-5.2,1.1-7.1,2.9c-1.9,1.9-2.9,4.4-2.9,7.1c0,2.6,1.1,5.2,2.9,7.1C388.8,337.5,391.4,338.5,394,338.5z"/>
<path class="st0" d="M266,318.5c-2.6,0-5.2,1.1-7.1,2.9c-1.9,1.9-2.9,4.4-2.9,7.1s1.1,5.2,2.9,7.1c1.9,1.9,4.4,2.9,7.1,2.9
	s5.2-1.1,7.1-2.9c1.9-1.9,2.9-4.4,2.9-7.1c0-2.6-1.1-5.2-2.9-7.1S268.6,318.5,266,318.5z"/>
<path class="st0" d="M330,318.5c-2.6,0-5.2,1.1-7.1,2.9c-1.9,1.9-2.9,4.4-2.9,7.1s1.1,5.2,2.9,7.1c1.9,1.9,4.4,2.9,7.1,2.9
	s5.2-1.1,7.1-2.9c1.9-1.9,2.9-4.4,2.9-7.1s-1.1-5.2-2.9-7.1S332.6,318.5,330,318.5z"/>
<path class="st0" d="M288.9,421.5c2.6,0,5.2-1.1,7.1-2.9c1.9-1.9,2.9-4.4,2.9-7.1c0-2.6-1.1-5.2-2.9-7.1s-4.4-2.9-7.1-2.9
	c-2.6,0-5.2,1.1-7.1,2.9s-2.9,4.4-2.9,7.1c0,2.6,1.1,5.2,2.9,7.1C283.7,420.5,286.3,421.5,288.9,421.5z"/>
</svg>
