<svg version="1.1" id="Layer_1" xmlns="http://www.w3.org/2000/svg" xmlns:xlink="http://www.w3.org/1999/xlink" x="0px" y="0px" viewBox="0 0 512 512" style="enable-background:new 0 0 512 512;" xml:space="preserve">
	<linearGradient id="SVGID_1_" gradientUnits="userSpaceOnUse" x1="256" y1="0" x2="256" y2="512">
		<stop  offset="0" style="stop-color:#00ADEE"/>
		<stop  offset="1" style="stop-color:#4FB820"/>
	</linearGradient>
	<path class="st0" d="M502,0H62c-5.5,0-10,4.5-10,10v40.1c0,5.5,4.5,10,10,10h4.7C61.3,67.7,58.2,77,58.2,87v11.2
		c0,10,3.2,19.3,8.6,27H49.1c-27.1,0-49.1,22-49.1,49.1v129.2c0,15.7,12.8,28.5,28.5,28.5c3,0,5.8-0.5,8.5-1.3v28.5
		c0,5.5,4.5,10,10,10h4.1V480c0,17.6,14.4,32,32,32c8.5,0,16.3-3.4,22-8.8c5.7,5.4,13.5,8.8,22,8.8c17.6,0,32-14.4,32-32V369.3h4.1
		c5.5,0,10-4.5,10-10v-84.3c2.9,1,6,1.5,9.2,1.5h29.4c14.6,0,26.7-11,28.3-25.2l44.6-44.6c3.9-3.9,3.9-10.2,0-14.1
		c-3.9-3.9-10.2-3.9-14.1,0l-37,37c-5.2-6.2-13.1-10.1-21.8-10.1h-1.5v-45c0-27.1-22.1-49.1-49.1-49.1h-17.6c5.4-7.6,8.6-16.9,8.6-27
		V87c0-10-3.2-19.3-8.5-26.9H472v270H243.2c-5.5,0-10,4.5-10,10c0,5.5,4.5,10,10,10H482c5.5,0,10-4.5,10-10v-280h10
		c5.5,0,10-4.5,10-10V10C512,4.5,507.5,0,502,0z M116.6,145.2L105.1,161l-11.5-15.8H116.6z M83.1,492c-6.6,0-12-5.4-12-12V369.3h24
		V480C95.1,486.6,89.8,492,83.1,492z M139.1,480c0,6.6-5.4,12-12,12s-12-5.4-12-12V369.3h24V480z M190.3,174.4v55c0,5.5,4.5,10,10,10
		h11.5c4.7,0,8.5,3.8,8.5,8.5s-3.8,8.5-8.5,8.5h-29.4c-5.1,0-9.2-4.1-9.2-9.2v-54.5c0-5.5-4.5-10-10-10c-5.5,0-10,4.5-10,10v156.5
		H57.1V192.7c0-5.5-4.5-10-10-10c-5.5,0-10,4.5-10,10v110.9c0,4.7-3.8,8.5-8.5,8.5s-8.5-3.8-8.5-8.5V174.4
		c0-16.1,13.1-29.1,29.1-29.1h19.8l28.1,38.7c1.9,2.6,4.9,4.1,8.1,4.1c3.2,0,6.2-1.5,8.1-4.1l28.1-38.7h19.8
		C177.2,145.2,190.3,158.3,190.3,174.4z M132.1,87v11.2c0,14.9-12.1,27-27,27c-14.9,0-27-12.1-27-27V87c0-14.3,11.2-26.1,25.3-26.9
		h3.3C120.9,60.9,132.1,72.7,132.1,87z M492,40.1H72V20h420V40.1z M324.4,204.6v26.6c-13.4,4.3-23.2,16.8-23.2,31.7
		c0,18.3,14.9,33.2,33.2,33.2c18.3,0,33.2-14.9,33.2-33.2c0-14.8-9.8-27.4-23.2-31.7v-26.6c17.3-4.5,30.1-20.2,30.1-38.8
		c0-3.9-0.6-7.8-1.6-11.4l23.1-12.8c3.9,3.6,8.7,6.3,13.9,7.7c2.9,0.8,5.8,1.1,8.6,1.1c5.8,0,11.4-1.5,16.5-4.5
		c7.7-4.4,13.2-11.6,15.5-20.2c2.3-8.6,1.1-17.5-3.3-25.2c-4.4-7.7-11.6-13.2-20.2-15.5s-17.5-1.1-25.2,3.3
		c-7.7,4.4-13.2,11.6-15.5,20.2c-1.4,5.2-1.5,10.5-0.4,15.6l-23.5,13c-7.2-7.1-17.2-11.5-28.1-11.5c-11.2,0-21.3,4.6-28.6,12
		l-19.4-11.2c4-15.8-2.7-33-17.4-41.5c-8.6-5-18.6-6.3-28.3-3.7c-9.6,2.6-17.6,8.7-22.6,17.3s-6.3,18.6-3.7,28.3s8.7,17.6,17.3,22.6
		c5.8,3.4,12.2,5,18.6,5c9.6,0,19.1-3.7,26.1-10.6l19.4,11.2c-1,3.4-1.5,7-1.5,10.7C294.4,184.4,307.2,200.1,324.4,204.6z
		 M265.3,125.9c-4.8,8.2-15.3,11.1-23.5,6.3c-4-2.3-6.8-6-8-10.5c-1.2-4.4-0.6-9.1,1.7-13.1c2.3-4,6-6.8,10.5-8
		c1.5-0.4,3-0.6,4.5-0.6c3,0,5.9,0.8,8.6,2.3C267.2,107.1,270.1,117.7,265.3,125.9z M334.4,276c-7.3,0-13.2-5.9-13.2-13.2
		c0-7.3,5.9-13.2,13.2-13.2c7.3,0,13.2,5.9,13.2,13.2C347.6,270.1,341.7,276,334.4,276z M405.7,113.8c0.9-3.4,3.1-6.3,6.1-8
		c2-1.2,4.3-1.8,6.6-1.8c1.1,0,2.3,0.2,3.4,0.5c3.4,0.9,6.3,3.1,8,6.1c1.8,3.1,2.2,6.6,1.3,10s-3.1,6.3-6.1,8
		c-3.1,1.8-6.6,2.2-10,1.3c-3.4-0.9-6.3-3.1-8-6.1C405.3,120.8,404.8,117.3,405.7,113.8z M334.4,145.7c11.1,0,20.1,9,20.1,20.1
		c0,11.1-9,20.1-20.1,20.1c-11.1,0-20.1-9-20.1-20.1C314.4,154.7,323.4,145.7,334.4,145.7z M203.2,330.1c-2.6,0-5.2,1.1-7.1,2.9
		c-1.9,1.9-2.9,4.4-2.9,7.1c0,2.6,1.1,5.2,2.9,7.1c1.9,1.9,4.4,2.9,7.1,2.9c2.6,0,5.2-1.1,7.1-2.9c1.9-1.9,2.9-4.4,2.9-7.1
		c0-2.6-1.1-5.2-2.9-7.1C208.4,331.1,205.9,330.1,203.2,330.1z"/>
</svg>
