<svg version="1.1" id="Layer_1" xmlns="http://www.w3.org/2000/svg" xmlns:xlink="http://www.w3.org/1999/xlink" x="0px" y="0px"
	 viewBox="0 0 512 512" style="enable-background:new 0 0 512 512;" xml:space="preserve">
<path class="st0" d="M455.7,355.8c-5.5,0-10,4.5-10,10v105.4c0,11.4-9.3,20.7-20.7,20.7H260.4v-40.1l11.9-8
	c4.6-3.1,5.8-9.3,2.7-13.9c-3.1-4.6-9.3-5.8-13.9-2.7l-0.7,0.5v-16.9c0-0.5,0-1.5,0-2.9v-31.2c0.3,0,0.6,0,0.9,0
	c32.6,0,59.6-9.4,80.4-28c37.9-34,40.7-86,40.8-88.2c0.1-2.9-1-5.8-3.2-7.8s-5.1-3-8-2.6c-69.8,8.2-101.8,39.1-116.2,63.6
	c-9.7,16.4-13,32.1-14.2,42.2c-14.5-18.2-41.3-37.5-90.4-43.2c-2.9-0.3-5.8,0.6-8,2.6c-2.1,2-3.3,4.9-3.2,7.8
	c0.1,1.9,2.5,45.6,34.4,74.2c17.3,15.5,39.7,23.4,66.6,23.6v25.7v0v9.6l-3.8-2.6c-4.6-3.1-10.8-1.9-13.9,2.7
	c-3.1,4.6-1.9,10.8,2.7,13.9l15,10.2V492H86.8c-11.4,0-20.7-9.3-20.7-20.7V40.8C66,29.3,75.3,20,86.8,20h224.1v100.7
	c0,27.4,22.3,49.8,49.7,49.8h85.1v115c0,5.5,4.5,10,10,10c5.5,0,10-4.5,10-10V163.8c0-7.4-2-14.6-5.8-21c-0.3-0.5-0.6-0.9-0.9-1.3
	L356.3,19.1C348.9,7.3,335.7,0,321.8,0h-235C64.3,0,46,18.3,46,40.8v430.5c0,22.5,18.3,40.8,40.8,40.8H425
	c22.5,0,40.8-18.3,40.8-40.8V365.8C465.8,360.3,461.3,355.8,455.7,355.8z M360.9,271.9c-2.9,15.6-11,42.7-32.6,62
	c-17,15.2-39.5,22.9-67.1,22.9c-0.1,0-0.2,0-0.3,0C263.5,336,278.4,286.1,360.9,271.9z M187.3,382.5c-16.4-14.6-23.2-35-26-47.9
	c62.4,11.7,75.7,48.8,78.4,66.3C218.2,400.6,200.6,394.4,187.3,382.5z M330.9,22.6c3.2,1.7,5.9,4.3,7.8,7.5c0.3,0.5,0.6,0.9,0.9,1.3
	l99.9,119.1h-78.9c-16.4,0-29.7-13.3-29.7-29.7V22.6z"/>
<path class="st0" d="M235.7,195.1l0.3,0.2c1.8,1.4,3.9,2,6,2c3,0,6-1.4,8-4c3.3-4.4,2.5-10.7-1.9-14l-0.3-0.2
	c-4.4-3.3-10.7-2.5-14,1.9C230.5,185.5,231.3,191.8,235.7,195.1z"/>
<path class="st0" d="M461.9,317.7l-0.3-0.2c-4.4-3.4-10.7-2.5-14,1.9c-3.4,4.4-2.5,10.7,1.9,14l0.3,0.2c1.8,1.4,3.9,2,6.1,2
	c3,0,6-1.4,8-3.9C467.2,327.4,466.3,321.1,461.9,317.7z"/>
<path class="st0" d="M251.6,130.7c0-5.5-4.5-10-10-10H116.4c-5.5,0-10,4.5-10,10s4.5,10,10,10h125.2
	C247.1,140.7,251.6,136.2,251.6,130.7z"/>
<path class="st0" d="M116.4,177.3c-5.5,0-10,4.5-10,10s4.5,10,10,10h86c5.5,0,10-4.5,10-10s-4.5-10-10-10H116.4z"/>
</svg>
