<svg version="1.1" id="Capa_1" xmlns="http://www.w3.org/2000/svg" xmlns:xlink="http://www.w3.org/1999/xlink" x="0px" y="0px"
	 viewBox="0 0 512 512" style="enable-background:new 0 0 512 512;" xml:space="preserve">
<g>
	<g>
		<path class="st0" d="M239,360.6h-66c-5.5,0-10,4.5-10,10v66c0,5.5,4.5,10,10,10h66c5.5,0,10-4.5,10-10v-66
			C249,365,244.6,360.6,239,360.6z M229,426.6h-46v-46h46V426.6z"/>
	</g>
</g>
<g>
	<g>
		<path class="st0" d="M348.1,360.6h-66c-5.5,0-10,4.5-10,10v66c0,5.5,4.5,10,10,10h66c5.5,0,10-4.5,10-10v-66
			C358.1,365,353.6,360.6,348.1,360.6z M338.1,426.6h-46v-46h46V426.6z"/>
	</g>
</g>
<g>
	<g>
		<path class="st0" d="M456.9,360.6h-66c-5.5,0-10,4.5-10,10v66c0,5.5,4.5,10,10,10h66c5.5,0,10-4.5,10-10v-66
			C466.9,365,462.4,360.6,456.9,360.6z M446.9,426.6h-46v-46h46V426.6z"/>
	</g>
</g>
<g>
	<g>
		<path class="st0" d="M501.9,296.4h-7V75.2c0-3.6-1.9-6.9-5.1-8.7c-3.1-1.8-7-1.7-10.1,0.2l-64,38.8c-3,1.8-4.8,5.1-4.8,8.5v176.9
			l-83.1-42.7c-3.1-1.6-6.8-1.5-9.8,0.4c-3,1.8-4.8,5-4.8,8.5v33.8l-83.1-42.7c-3.1-1.6-6.8-1.5-9.8,0.4c-3,1.8-4.8,5-4.8,8.5v33.8
			l-83.1-42.7c-3.1-1.6-6.8-1.5-9.8,0.4c-3,1.8-4.8,5-4.8,8.5v48.7l-75.5-75.5c-3.9-3.9-10.2-3.9-14.1,0c-3.9,3.9-3.9,10.2,0,14.1
			L118,334c0,0,0,0,0.1,0.1v74.6l-46-46c-3.9-3.9-10.2-3.9-14.1,0c-3.9,3.9-3.9,10.2,0,14.1l60.2,60.2v45.4
			c-10.9-8.8-26.3-23.2-41.6-43.7c-25.7-34.6-56.4-94.3-56.4-182.7S50.7,107.8,76.4,73.2C97.4,45.1,118.5,28.6,128,22
			c23.8,16.7,96.2,77.5,106.8,202.7c0.5,5.5,5.3,9.6,10.8,9.1c5.5-0.5,9.6-5.3,9.1-10.8c-5.3-63.4-25.9-118.9-61.3-164.9
			C168.6,26,143.7,8.2,134.1,2l-0.3-0.2c-3.2-2.2-7.4-2.5-10.8-0.5C121.7,2.1,91.4,20,61,60.4c-17.7,23.6-31.9,50.2-42,78.9
			c-12.6,35.8-19,75-19,116.6c0,41.6,6.4,80.8,19,116.6c10.1,28.7,24.2,55.3,42,78.9c27.1,36.2,54.3,54.3,60.6,58.3
			c1.7,1.4,4,2.3,6.4,2.3h373.9c5.5,0,10-4.5,10-10V306.4C511.9,300.9,507.5,296.4,501.9,296.4z M431,119.6l44-26.7v203.5h-44V119.6
			z M138,492V273.5l81.4,41.8c1.4,0.7,3,1.1,4.6,1.1h1.7c5.5,0,10-4.5,10-10v-33l81.4,41.8c1.4,0.7,3,1.1,4.6,1.1h1.7
			c5.5,0,10-4.5,10-10v-33l81.4,41.8c1.4,0.7,3,1.1,4.6,1.1h72.7V492H138z"/>
	</g>
</g>
<g>
	<g>
		<path class="st0" d="M173.1,91.1c-3.9-3.9-10.2-3.9-14.1,0L138,112V90.8c0-5.5-4.5-10-10-10s-10,4.5-10,10v80.8l-46.9-46.9
			c-3.9-3.9-10.2-3.9-14.1,0c-3.9,3.9-3.9,10.2,0,14.1l59,59c0.6,0.6,1.3,1.2,2.1,1.6v18.1c0,5.5,4.5,10,10,10c5.5,0,10-4.5,10-10
			v-77.4c0.4-0.3,0.8-0.6,1.2-1l33.9-33.9C177,101.3,177,95,173.1,91.1z"/>
	</g>
</g>
<g>
	<g>
		<path class="st0" d="M135.1,52.4c-1.9-1.9-4.4-2.9-7.1-2.9s-5.2,1.1-7.1,2.9s-2.9,4.4-2.9,7.1s1.1,5.2,2.9,7.1
			c1.9,1.9,4.4,2.9,7.1,2.9s5.2-1.1,7.1-2.9c1.9-1.9,2.9-4.4,2.9-7.1S137,54.3,135.1,52.4z"/>
	</g>
</g>
<g>
	<g>
		<path class="st0" d="M211.9,201.6c-3.9-3.9-10.2-3.9-14.1,0L166,233.4c-3.9,3.9-3.9,10.2,0,14.1c2,2,4.5,2.9,7.1,2.9
			s5.1-1,7.1-2.9l31.8-31.8C215.8,211.9,215.8,205.5,211.9,201.6z"/>
	</g>
</g>
<g>
	<g>
		<path class="st0" d="M339.9,20h-58.6c-5.5,0-10,4.5-10,10v7.9c0,35.4,28.8,64.1,64.1,64.1H394c5.5,0,10-4.5,10-10v-7.9
			C404,48.8,375.3,20,339.9,20z M335.4,82c-20,0-37-13.4-42.3-31.7L359,82H335.4z M380,69.9L317.8,40h22.1
			c19.9,0,36.7,13.2,42.2,31.3C381.5,70.8,380.8,70.3,380,69.9z"/>
	</g>
</g>
</svg>
