<?xml version="1.0" encoding="utf-8"?>
<!-- Generator: Adobe Illustrator 22.0.1, SVG Export Plug-In . SVG Version: 6.00 Build 0)  -->
<svg version="1.1" id="Layer_1" xmlns="http://www.w3.org/2000/svg" xmlns:xlink="http://www.w3.org/1999/xlink" x="0px" y="0px"
	 viewBox="0 0 468 512" style="enable-background:new 0 0 468 512;" xml:space="preserve">
<style type="text/css">
	.st0{fill:url(#SVGID_1_);}
</style>
<linearGradient id="SVGID_1_" gradientUnits="userSpaceOnUse" x1="234" y1="0" x2="234" y2="512">
	<stop  offset="0" style="stop-color:#00ADEE"/>
	<stop  offset="1" style="stop-color:#4FB820"/>
</linearGradient>
<path class="st0" d="M438,20H304.3C300.2,8.4,289,0,276,0s-24.2,8.4-28.3,20H110c-16.5,0-30,13.5-30,30v106H30
	c-16.5,0-30,13.5-30,30c0,14.5,10.3,26.6,24,29.4V454c0,32,26,58,58,58c5.7,0,11.2-0.8,16.4-2.4c3.7,1.5,7.6,2.4,11.6,2.4h328
	c16.5,0,30-13.5,30-30V50C468,33.5,454.5,20,438,20z M256,40c5.5,0,10-4.5,10-10c0-5.5,4.5-10,10-10s10,4.5,10,10
	c0,5.5,4.5,10,10,10h34v20H222V40H256z M100,50c0-5.5,4.5-10,10-10h92v20h-72c-5.5,0-10,4.5-10,10v86h-20V50z M20,186
	c0-5.5,4.5-10,10-10h104c5.5,0,10,4.5,10,10s-4.5,10-10,10H30C24.5,196,20,191.5,20,186z M44,265.2h12.1c5.5,0,10-4.5,10-10
	s-4.5-10-10-10H44V216h76v78.4H44V265.2z M44.8,462h11.3c5.5,0,10-4.5,10-10s-4.5-10-10-10H44v-29.2h12.1c5.5,0,10-4.5,10-10
	s-4.5-10-10-10H44v-29.2h12.1c5.5,0,10-4.5,10-10s-4.5-10-10-10H44v-29.2h76V454c0,21-17,38-38,38C63.8,492,48.5,479.1,44.8,462z
	 M448,482c0,5.5-4.5,10-10,10H125.8c5-5.8,8.9-12.6,11.4-20h213.5c2.7,0,5.2-1.1,7.1-2.9l66.5-66.5c1.9-1.9,2.9-4.4,2.9-7.1V272.8
	c0-5.5-4.5-10-10-10c-5.5,0-10,4.5-10,10v112.8h-56.5c-5.5,0-10,4.5-10,10V452H140V215.4c13.7-2.8,24-14.9,24-29.4
	s-10.3-26.6-24-29.4V80h267.1v112.8c0,5.5,4.5,10,10,10s10-4.5,10-10V70c0-5.5-4.5-10-10-10H350V40h88c5.5,0,10,4.5,10,10V482z
	 M360.6,437.9v-32.3h32.3L360.6,437.9z M354,129.5H198c-5.5,0-10,4.5-10,10s4.5,10,10,10h156c5.5,0,10-4.5,10-10
	S359.5,129.5,354,129.5z M354,185.5H198c-5.5,0-10,4.5-10,10s4.5,10,10,10h156c5.5,0,10-4.5,10-10S359.5,185.5,354,185.5z
	 M354,241.5H198c-5.5,0-10,4.5-10,10s4.5,10,10,10h156c5.5,0,10-4.5,10-10S359.5,241.5,354,241.5z M354,297.5H198
	c-5.5,0-10,4.5-10,10s4.5,10,10,10h156c5.5,0,10-4.5,10-10S359.5,297.5,354,297.5z M276.1,353.5H198c-5.5,0-10,4.5-10,10
	s4.5,10,10,10h78.1c5.5,0,10-4.5,10-10S281.6,353.5,276.1,353.5z M417.1,222.8c-2.6,0-5.2,1.1-7.1,2.9c-1.9,1.9-2.9,4.4-2.9,7.1
	s1.1,5.2,2.9,7.1c1.9,1.9,4.4,2.9,7.1,2.9c2.6,0,5.2-1.1,7.1-2.9c1.9-1.9,2.9-4.4,2.9-7.1c0-2.6-1.1-5.2-2.9-7.1
	C422.3,223.8,419.7,222.8,417.1,222.8z"/>
</svg>
