<svg version="1.1" id="Layer_1" xmlns="http://www.w3.org/2000/svg" xmlns:xlink="http://www.w3.org/1999/xlink" x="0px" y="0px"
	 viewBox="0 0 512 512" style="enable-background:new 0 0 512 512;" xml:space="preserve">
<style type="text/css">
	.st0{fill:url(#SVGID_1_);}
</style>
<linearGradient id="SVGID_1_" gradientUnits="userSpaceOnUse" x1="256" y1="1" x2="256" y2="512.957">
	<stop  offset="0" style="stop-color:#00ADEE"/>
	<stop  offset="1" style="stop-color:#4FB820"/>
</linearGradient>
<path class="st0" d="M132.3,188.8c2.6,0.7,5.3,1,7.9,1c5.3,0,10.5-1.4,15.1-4.1c11.4-6.6,17-19.6,14.7-31.9l19.1-10.6
	c6.5,6.1,15.3,9.9,24.9,9.9c9.8,0,18.8-3.9,25.3-10.3l15.5,8.9c-3.2,14.1,2.9,29.3,16.1,37c5.2,3,11,4.6,16.9,4.6
	c2.9,0,5.9-0.4,8.8-1.2c8.8-2.3,16.1-8,20.6-15.8c4.5-7.9,5.7-17,3.4-25.8c-2.3-8.8-8-16.1-15.8-20.6c-7.9-4.5-17-5.7-25.8-3.4
	c-5.4,1.5-10.3,4.2-14.3,7.9l-15.5-8.9c0.7-2.8,1.1-5.8,1.1-8.9c0-16.6-11.2-30.7-26.4-35V60.1c11.9-4.1,20.4-15.4,20.4-28.7
	C244.4,14.6,230.8,1,214,1c-16.8,0-30.4,13.6-30.4,30.4c0,13.3,8.5,24.6,20.4,28.7v21.6c-15.2,4.4-26.4,18.4-26.4,35
	c0,3.3,0.4,6.4,1.2,9.4l-18.7,10.4c-3.4-3-7.6-5.2-12.1-6.5c-7.8-2.1-16-1-23.1,3c-7,4.1-12.1,10.6-14.2,18.5c-2.1,7.8-1,16,3,23.1
	C117.9,181.7,124.4,186.7,132.3,188.8z M275.9,152.5c1.9-3.2,4.9-5.5,8.5-6.5c3.6-1,7.4-0.5,10.6,1.4c3.2,1.9,5.5,4.9,6.5,8.5
	s0.5,7.4-1.4,10.6c-1.9,3.2-4.9,5.5-8.5,6.5c-3.6,1-7.4,0.5-10.6-1.4C274.3,167.7,272,159.1,275.9,152.5z M214,21
	c5.7,0,10.4,4.7,10.4,10.4c0,5.7-4.7,10.4-10.4,10.4c-5.7,0-10.4-4.7-10.4-10.4C203.6,25.7,208.3,21,214,21z M214,100.3
	c9.1,0,16.4,7.4,16.4,16.4s-7.4,16.4-16.4,16.4s-16.4-7.4-16.4-16.4S205,100.3,214,100.3z M130.1,156.8c0.7-2.7,2.4-4.9,4.8-6.3
	c2.4-1.4,5.2-1.8,7.9-1c2.7,0.7,4.9,2.4,6.3,4.9c2.9,5,1.2,11.3-3.8,14.2c-2.4,1.4-5.2,1.8-7.9,1s-4.9-2.4-6.3-4.9
	C129.7,162.2,129.4,159.4,130.1,156.8z M204,190.3V277c0,5.5,4.5,10,10,10c5.5,0,10-4.5,10-10v-86.7c0-5.5-4.5-10-10-10
	C208.5,180.3,204,184.8,204,190.3z M466.1,272.8c13.2-10.4,21.7-26.5,21.7-44.5v-85.2c0-26.3-21.4-47.6-47.6-47.6h-60.5
	c-15.8,0-28.7,12.9-28.7,28.7v21.1c0,17.3,9.4,32.5,23.5,40.7v42.3c0,18.2,8.6,34.3,21.9,44.7c-22.7,11-39.6,32.3-44.2,58.5
	l-17.6,99.8h-53c-5.5,0-10,4.5-10,10v11.9c-10.1,2.5-18.9,8.6-24.7,16.9c-9.2-10.5-22.7-17.2-37.7-17.2h-95.2c-5.5,0-10,4.5-10,10
	v30H45.5C31.4,493,20,481.5,20,467.5V340.1c0-12,8.3-22,19.4-24.8v104.2c0,16.5,13.5,30,30,30s30-13.5,30-30v-75c0-5.5-4.5-10-10-10
	c-5.5,0-10,4.5-10,10v75c0,5.5-4.5,10-10,10c-5.5,0-10-4.5-10-10V199.2c0-5.5,4.5-10,10-10c5.5,0,10,4.5,10,10v65.4
	c0,5.5,4.5,10,10,10c5.5,0,10-4.5,10-10v-65.4c0-16.5-13.5-30-30-30s-30,13.5-30,30V295C17.2,298,0,317.1,0,340.1v127.4
	C0,492.5,20.4,513,45.5,513H502c5.5,0,10-4.5,10-10V345.5C512,313.5,493.2,285.8,466.1,272.8z M371,124.2c0-4.8,3.9-8.7,8.7-8.7
	h60.5c15.2,0,27.6,12.4,27.6,27.6v29.3h-69.7c-14.9,0-27-12.1-27-27V124.2z M394.5,192.4h73.3v35.9c0,20.2-16.4,36.7-36.7,36.7
	c-20.2,0-36.7-16.4-36.7-36.7V192.4z M136.9,493h-12.8v-20h85.2c13,0,24.2,8.4,28.3,20H136.9z M271.6,474.4V493h-12.3
	C259.8,484.8,264.7,477.9,271.6,474.4z M492,493h-91.5c4-5.3,7.1-11.5,8.8-18.2l21.9-85.9c1.4-5.4-1.9-10.8-7.2-12.2
	c-5.4-1.4-10.8,1.9-12.2,7.2l-21.9,85.9c-3.5,13.6-15.7,23.2-29.8,23.2h-68.5v-41.6H343c4.9,0,9-3.5,9.8-8.3l19-108.1
	c5.1-29,30.2-50,59.6-50c33.4,0,60.5,27.1,60.5,60.5L492,493L492,493z M89.4,294.6c-2.6,0-5.2,1.1-7.1,2.9c-1.9,1.9-2.9,4.4-2.9,7.1
	c0,2.6,1.1,5.2,2.9,7.1c1.9,1.9,4.4,2.9,7.1,2.9s5.2-1.1,7.1-2.9c1.9-1.9,2.9-4.4,2.9-7.1c0-2.6-1.1-5.2-2.9-7.1
	S92,294.6,89.4,294.6z"/>
</svg>
