<svg version="1.1" id="Layer_1" xmlns="http://www.w3.org/2000/svg" xmlns:xlink="http://www.w3.org/1999/xlink" x="0px" y="0px"
	 viewBox="0 0 511 511" style="enable-background:new 0 0 511 511;" xml:space="preserve">
<style type="text/css">
	.st0{fill:url(#SVGID_1_);}
</style>
<linearGradient id="SVGID_1_" gradientUnits="userSpaceOnUse" x1="255.5001" y1="0.9977" x2="255.5001" y2="511.9906">
	<stop  offset="0" style="stop-color:#00ADEE"/>
	<stop  offset="1" style="stop-color:#4FB820"/>
</linearGradient>
<path class="st0" d="M509.1,447.5l-28.5-101.9c0,0,0,0,0,0l-18.4-65.7c-1.5-5.3-7-8.4-12.3-6.9c-5.3,1.5-8.4,7-6.9,12.3l10.9,38.9
	c-11.8-5.7-24.8-8.7-38.3-8.7c-23.6,0-45.8,9.2-62.6,25.9c-25.5,25.5-66.1,26.6-93,3.6l51.6-184.3h96.6l13.3,47.6
	c1.5,5.3,7,8.4,12.3,6.9c5.3-1.5,8.4-7,6.9-12.3l-13.1-46.8c8.5-5.3,14.1-14.7,14.1-25.4c0-16.5-13.4-29.9-29.9-29.9H307.9
	c-16.5,0-29.9,13.4-29.9,29.9c0,10.7,5.6,20.1,14.1,25.4l-38.1,136.3l-46.5-46.5V60.3c13.8-2.7,24.2-14.8,24.2-29.4
	c0-16.5-13.4-29.9-29.9-29.9h-95.8C89.4,1,76,14.4,76,30.9c0,14.5,10.4,26.7,24.2,29.4v185.6l-65.5,65.5C12.3,333.8,0,363.5,0,395.1
	s12.3,61.3,34.6,83.6L65,509.1c1.9,1.9,4.4,2.9,7.1,2.9h163.5c2.6,0,5.1-1,7-2.9c5.3,1.9,11,2.9,16.9,2.9h200.8
	c16,0,30.8-7.3,40.5-20.1C510.3,479.1,513.4,463,509.1,447.5z M307.9,120.8h103.8c5.5,0,10,4.5,10,10c0,5.5-4.5,10-10,10H307.9
	c-5.5,0-10-4.5-10-10C297.9,125.2,302.4,120.8,307.9,120.8z M187.5,145.8c-3.5,2.5-7.7,3.9-12.1,3.9c-5.5,0-10.8-2.2-14.7-6.1
	c-7.7-7.7-17.9-11.9-28.8-11.9c-4,0-8,0.6-11.8,1.7V60.9h67.4V145.8z M95.9,30.9c0-5.5,4.5-10,10-10h95.8c5.5,0,10,4.5,10,10
	c0,5.5-4.5,10-10,10h-95.8C100.4,40.9,95.9,36.4,95.9,30.9z M48.7,464.5C30.2,446,20,421.3,20,395.1c0-26.3,10.2-50.9,28.8-69.5
	l68.5-68.4c1.9-1.9,2.9-4.4,2.9-7.1v-94.7c3.4-2.4,7.5-3.7,11.8-3.7c5.5,0,10.8,2.2,14.7,6.1c7.7,7.7,17.9,11.9,28.8,11.9
	c4.2,0,8.3-0.6,12.1-1.8v82.2c0,2.6,1.1,5.2,2.9,7.1l57.3,57.3l-37.2,133.1c-4.3,15.4-1.2,31.6,8.4,44.4c0,0,0.1,0.1,0.1,0.1H76.2
	L48.7,464.5z M484.7,479.8c-5.9,7.8-14.8,12.2-24.6,12.2H259.4c-9.7,0-18.7-4.4-24.6-12.2c-5.9-7.8-7.7-17.6-5.1-26.9l24.4-87.2
	c15.1,10.5,32.7,15.7,50.3,15.7c22.7,0,45.3-8.6,62.6-25.9c12.9-12.9,30.1-20.1,48.4-20.1c17.5,0,33.9,6.5,46.6,18.3l27.7,99.1
	C492.5,462.3,490.6,472.1,484.7,479.8z M127.7,398.2c-16.5,0-29.9,13.4-29.9,29.9s13.4,29.9,29.9,29.9c16.5,0,29.9-13.4,29.9-29.9
	S144.3,398.2,127.7,398.2z M127.7,438.1c-5.5,0-10-4.5-10-10s4.5-10,10-10c5.5,0,10,4.5,10,10S133.3,438.1,127.7,438.1z M414,412.2
	c-16.5,0-29.9,13.4-29.9,29.9s13.4,29.9,29.9,29.9s29.9-13.4,29.9-29.9S430.5,412.2,414,412.2z M414,452.1c-5.5,0-10-4.5-10-10
	c0-5.5,4.5-10,10-10c5.5,0,10,4.5,10,10C424,447.6,419.5,452.1,414,452.1z M310.1,258.8c0,16.5,13.4,29.9,29.9,29.9
	c16.5,0,29.9-13.4,29.9-29.9c0-16.5-13.4-29.9-29.9-29.9C323.5,228.9,310.1,242.3,310.1,258.8z M350,258.8c0,5.5-4.5,10-10,10
	c-5.5,0-10-4.5-10-10c0-5.5,4.5-10,10-10C345.5,248.8,350,253.3,350,258.8z M183.3,311.9c-16.5,0-29.9,13.4-29.9,29.9
	c0,16.5,13.4,29.9,29.9,29.9s29.9-13.4,29.9-29.9C213.2,325.3,199.8,311.9,183.3,311.9z M183.3,351.8c-5.5,0-10-4.5-10-10
	c0-5.5,4.5-10,10-10c5.5,0,10,4.5,10,10C193.3,347.3,188.8,351.8,183.3,351.8z M159.4,238.5c2.6,0,5.2-1.1,7.1-2.9
	c1.9-1.9,2.9-4.4,2.9-7.1s-1.1-5.2-2.9-7.1s-4.4-2.9-7.1-2.9c-2.6,0-5.2,1.1-7.1,2.9c-1.9,1.9-2.9,4.4-2.9,7.1s1.1,5.2,2.9,7.1
	C154.2,237.5,156.7,238.5,159.4,238.5z M96.5,334.8c-1.9-1.9-4.4-2.9-7.1-2.9c-2.6,0-5.2,1.1-7.1,2.9c-1.9,1.9-2.9,4.4-2.9,7.1
	c0,2.6,1.1,5.2,2.9,7.1c1.9,1.9,4.4,2.9,7.1,2.9c2.6,0,5.2-1.1,7.1-2.9c1.9-1.9,2.9-4.4,2.9-7.1S98.4,336.6,96.5,334.8z
	 M431.8,244.1c0,2.6,1.1,5.2,2.9,7.1c1.9,1.9,4.4,2.9,7.1,2.9c2.6,0,5.2-1.1,7.1-2.9c1.9-1.9,2.9-4.4,2.9-7.1s-1.1-5.2-2.9-7.1
	c-1.9-1.9-4.4-2.9-7.1-2.9c-2.6,0-5.2,1.1-7.1,2.9C432.9,238.9,431.8,241.5,431.8,244.1z"/>
</svg>
