<svg version="1.1" id="Layer_1" xmlns="http://www.w3.org/2000/svg" xmlns:xlink="http://www.w3.org/1999/xlink" x="0px" y="0px"
	 viewBox="0 0 404 512" style="enable-background:new 0 0 404 512;" xml:space="preserve">
<style type="text/css">
	.st0{fill:url(#SVGID_1_);}
</style>
<linearGradient id="SVGID_1_" gradientUnits="userSpaceOnUse" x1="202" y1="0" x2="202" y2="512">
	<stop  offset="0" style="stop-color:#00ADEE"/>
	<stop  offset="1" style="stop-color:#4FB820"/>
</linearGradient>
<path class="st0" d="M404,88c0-26.5-21.5-48-48-48H251.1c-4.6-22.8-24.8-40-49-40c-24.1,0-44.4,17.2-49,40H48C21.5,40,0,61.5,0,88
	v38c0,0.4,0,0.8,0.1,1.3c0,0,0,0,0,0l44.8,351.3c2.4,19.1,18.8,33.5,38,33.5h238.2c19.2,0,35.6-14.4,38-33.5l15.7-123.3
	c0.7-5.5-3.2-10.5-8.7-11.2c-5.5-0.7-10.5,3.2-11.2,8.7L339.2,476c-1.2,9.1-9,16-18.2,16H82.9c-9.2,0-17-6.9-18.2-16L21.4,136H64
	v37.5c0,5.5,4.5,10,10,10s10-4.5,10-10V136h65.3v37.5c0,5.5,4.5,10,10,10s10-4.5,10-10V136h65.3v37.5c0,5.5,4.5,10,10,10
	c5.5,0,10-4.5,10-10V136H320v37.5c0,5.5,4.5,10,10,10s10-4.5,10-10V136h42.6l-17.5,136.7c-0.7,5.5,3.2,10.5,8.7,11.2
	s10.5-3.2,11.2-8.7l18.9-148c0,0,0,0,0,0c0.1-0.4,0.1-0.8,0.1-1.3V88z M202.1,20c13,0,24.1,8.4,28.3,20h-56.6
	C178,28.4,189.1,20,202.1,20z M20,116V88c0-15.4,12.6-28,28-28h308c15.4,0,28,12.6,28,28v28H20z M302.1,344.3
	c1.2,4.5,5.2,7.4,9.7,7.4c0.9,0,1.7-0.1,2.6-0.3c5.3-1.4,8.5-6.9,7.1-12.2c-4.5-16.9-15.3-31-30.5-39.7c-5.8-3.3-11.9-5.7-18.2-7.2
	c-2.2-5-5-9.8-8.2-14.2c1.9-6.2,2.9-12.7,2.9-19.4c0-17.5-6.8-33.9-19.2-46.2c-3.9-3.9-10.2-3.9-14.1,0c-3.9,3.9-3.9,10.2,0,14.1
	c8.6,8.6,13.3,20,13.3,32.1c0,0.8,0,1.5-0.1,2.3c-12.7-9.3-28.4-14.7-45.3-14.7s-32.6,5.5-45.3,14.7c0-0.8-0.1-1.5-0.1-2.3
	c0-12.1,4.7-23.5,13.3-32.1c3.9-3.9,3.9-10.2,0-14.1s-10.2-3.9-14.1,0c-12.3,12.4-19.1,28.8-19.1,46.2c0,6.7,1,13.2,2.9,19.4
	c-3.2,4.4-6,9.2-8.2,14.2c-6.3,1.4-12.5,3.8-18.2,7.2c-15.1,8.7-25.9,22.8-30.5,39.7c-1.4,5.3,1.7,10.8,7.1,12.3
	c0.9,0.2,1.7,0.3,2.6,0.3c4.4,0,8.5-2.9,9.7-7.4c3.1-11.7,10.6-21.5,21.1-27.6c0.7-0.4,1.3-0.7,2-1.1c-0.3,2.6-0.4,5.3-0.4,7.9
	c0,31.4,18.8,58.5,45.8,70.6c-0.6,0.4-1.3,0.8-2,1.2c-10.5,6.1-22.7,7.7-34.4,4.5c-5.3-1.4-10.8,1.7-12.3,7.1
	c-1.4,5.3,1.7,10.8,7.1,12.3c5.6,1.5,11.4,2.3,17,2.3c11.3,0,22.5-3,32.6-8.8c5.8-3.3,10.9-7.4,15.3-12.2c2.7,0.3,5.4,0.4,8.2,0.4
	c2.8,0,5.5-0.2,8.2-0.4c4.4,4.7,9.5,8.9,15.3,12.2c10.1,5.8,21.3,8.8,32.6,8.8c5.7,0,11.4-0.7,17-2.3c5.3-1.4,8.5-6.9,7.1-12.3
	c-1.4-5.3-6.9-8.5-12.3-7.1c-11.7,3.1-23.9,1.5-34.4-4.5c-0.7-0.4-1.3-0.8-2-1.2c26.9-12.1,45.8-39.2,45.8-70.6
	c0-2.7-0.1-5.3-0.4-7.9C289.9,321.3,298.6,331.4,302.1,344.3z M210.5,323.6c0,4.7-3.8,8.5-8.5,8.5s-8.5-3.8-8.5-8.5s3.8-8.5,8.5-8.5
	S210.5,318.9,210.5,323.6z M202,266.2c15.1,0,28.9,5.9,39.1,15.5c-1.9,3.3-4.3,6.3-7,9c-4.3,4.3-9.5,7.7-15.1,10
	c-4.7-3.5-10.6-5.6-17-5.6c-6.4,0-12.2,2.1-17,5.6c-5.7-2.3-10.7-5.6-15.1-10c-2.7-2.7-5.1-5.8-7-9
	C173.1,272.1,186.9,266.2,202,266.2z M144.7,323.6c0-4.4,0.5-8.8,1.5-12.9c3.8,0,7.6,0.5,11.4,1.6c5.9,1.6,11.4,4.4,16.2,8.1
	c-0.1,1.1-0.2,2.2-0.2,3.3c0,11.7,7.1,21.8,17.2,26.1c0.9,6,0.5,12.1-1.1,18.1c-1,3.8-2.5,7.3-4.3,10.6
	C161.8,371.2,144.7,349.4,144.7,323.6z M259.3,323.6c0,25.8-17.1,47.7-40.6,54.8c-1.9-3.3-3.3-6.9-4.3-10.6
	c-1.6-5.9-1.9-12.1-1.1-18.1c10.1-4.4,17.2-14.4,17.2-26.1c0-1.1-0.1-2.2-0.2-3.3c4.8-3.8,10.2-6.5,16.2-8.1c3.8-1,7.6-1.5,11.4-1.5
	C258.8,314.8,259.3,319.1,259.3,323.6z M370,304c-2.6,0-5.2,1.1-7.1,2.9s-2.9,4.4-2.9,7.1s1.1,5.2,2.9,7.1s4.4,2.9,7.1,2.9
	s5.2-1.1,7.1-2.9s2.9-4.4,2.9-7.1s-1.1-5.2-2.9-7.1S372.6,304,370,304z"/>
</svg>
