<svg version="1.1" id="Layer_1" xmlns="http://www.w3.org/2000/svg" xmlns:xlink="http://www.w3.org/1999/xlink" x="0px" y="0px"
	 viewBox="0 0 511 511" style="enable-background:new 0 0 511 511;" xml:space="preserve">
<path class="st0" d="M393.2,436.2h-92.8v-0.2c27.3-7.5,52.3-21.8,72.8-41.6c22.4-21.7,38.3-49,46-79c1.4-5.3-1.8-10.8-7.2-12.2
	c-5.3-1.4-10.8,1.8-12.2,7.2c-12.8,49.5-51.2,89.4-99.5,104.8v-9.9c0-7.2-2.4-13.9-6.3-19.4c46.9-16.1,80.8-60.6,80.8-113
	c0-37.7-17.3-72.3-46.8-94.8l21.2-21.2c24.8,20.1,42.7,47.7,50.7,78.6c1.2,4.5,5.2,7.5,9.7,7.5c0.8,0,1.7-0.1,2.5-0.3
	c5.3-1.4,8.5-6.8,7.2-12.2c-8.9-34.3-28.5-65.1-55.8-87.8l10.4-10.4c5.7-5.7,8.8-13.2,8.8-21.2c0-7.3-2.6-14.2-7.4-19.7l24-24
	l3.3,3.3c1.9,1.9,4.5,2.9,7.1,2.9c2.6,0,5.1-1,7.1-2.9c3.9-3.9,3.9-10.2,0-14.1L362.1,1.9c-3.9-3.9-10.2-3.9-14.1,0
	c-3.9,3.9-3.9,10.2,0,14.1l3.3,3.3l-24,24c-11.8-10.3-29.7-9.8-40.9,1.4L175.2,155.9c-5.7,5.7-8.8,13.2-8.8,21.2
	c0,6,1.7,11.7,5,16.5l-32.9,32.9c-1.9,1.9-2.9,4.4-2.9,7.1c0,2.6,1.1,5.2,2.9,7.1l39.5,39.5c1.9,1.9,4.5,2.9,7.1,2.9
	c2.6,0,5.1-1,7.1-2.9l32.9-32.9c4.9,3.2,10.6,5,16.5,5c8,0,15.5-3.1,21.2-8.8l51-51c25.9,18.7,41.2,48.2,41.2,80.5
	c0,54.8-44.6,99.4-99.4,99.4c-18.8,0-37-5.3-52.8-15.2c6.8-5.9,11.2-14.5,11.2-24.2c0-17.6-14.3-31.9-31.9-31.9H85.8
	c-17.6,0-31.9,14.3-31.9,31.9s14.3,31.9,31.9,31.9h27.7c22.5,34.7,57.3,60.2,97,71.1v0.2h-92.8c-35.2,0-63.9,28.7-63.9,63.9
	c0,5.5,4.5,10,10,10h383.3c5.5,0,10-4.5,10-10C457.1,464.8,428.5,436.2,393.2,436.2z M385.1,53.2l-24,24l-19.8-19.8l24-24
	L385.1,53.2z M185.1,258.9l-25.4-25.4l25.4-25.4l25.4,25.4L185.1,258.9z M248.6,229.3c-1.9,1.9-4.4,2.9-7.1,2.9s-5.2-1-7.1-2.9
	l-42.3-42.3c0,0,0,0,0,0l-2.8-2.8c-1.9-1.9-2.9-4.4-2.9-7.1s1-5.2,2.9-7.1L300.4,58.9c1.9-1.9,4.5-2.9,7.1-2.9c2.6,0,5.1,1,7.1,2.9
	l45.2,45.2c1.9,1.9,2.9,4.4,2.9,7.1s-1,5.2-2.9,7.1L248.6,229.3z M267.5,392.2c7.2,0,13,5.8,13,13v30.9h-49.9v-7.4
	c0-0.4,0-0.9,0-1.3v-22.2c0-7.2,5.8-13,13-13H267.5z M73.9,332.9c0-6.6,5.4-12,12-12H182c6.6,0,12,5.4,12,12c0,6.6-5.4,12-12,12
	H85.8C79.2,344.8,73.9,339.5,73.9,332.9z M138.1,364.8h41.3c11.2,9.3,23.9,16.4,37.5,21c-4,5.4-6.3,12.1-6.3,19.4v9.9
	C182,406.1,156.6,388.4,138.1,364.8z M75,490c4.5-19.4,22-33.9,42.8-33.9h275.5c20.8,0,38.2,14.5,42.8,33.9H75z"/>
<path class="st0" d="M255.5,424.2c2.6,0,5.2-1.1,7.1-2.9c1.9-1.9,2.9-4.4,2.9-7.1s-1.1-5.2-2.9-7.1c-1.9-1.9-4.4-2.9-7.1-2.9
	c-2.6,0-5.2,1.1-7.1,2.9c-1.9,1.9-2.9,4.4-2.9,7.1s1.1,5.2,2.9,7.1C250.3,423.1,252.9,424.2,255.5,424.2z"/>
<path class="st0" d="M407.6,265.8c-1.9,1.9-2.9,4.4-2.9,7.1c0,2.6,1.1,5.2,2.9,7.1c1.9,1.9,4.4,2.9,7.1,2.9c2.6,0,5.2-1.1,7.1-2.9
	c1.9-1.9,2.9-4.4,2.9-7.1c0-2.6-1.1-5.2-2.9-7.1c-1.9-1.9-4.4-2.9-7.1-2.9C412,262.9,409.4,264,407.6,265.8z"/>
</svg>
