<svg version="1.1" id="Layer_1" xmlns="http://www.w3.org/2000/svg" xmlns:xlink="http://www.w3.org/1999/xlink" x="0px" y="0px"
	 viewBox="0 0 512 512" style="enable-background:new 0 0 512 512;" xml:space="preserve">
<path class="st0" d="M490.9,129.1L265.4,2.5c-6-3.4-13.5-3.4-19.6,0L20.2,129.1c-6.3,3.5-10.2,10.2-10.2,17.4
	c0,7.2,3.9,13.9,10.2,17.4l58.3,32.7V307c0,6.7,3.3,12.9,8.8,16.6l11.9,8c-3.2,5.6-5,12-5,18.9V502c0,5.5,4.5,10,10,10h56
	c5.5,0,10-4.5,10-10V379.4l74.1,49.9c3.4,2.3,7.3,3.4,11.2,3.4s7.8-1.1,11.2-3.4l157-105.7c5.5-3.7,8.8-9.9,8.8-16.6V196.7
	l58.3-32.7c6.3-3.5,10.2-10.2,10.2-17.4C501.1,139.3,497.2,132.6,490.9,129.1z M98.6,207.9l23.7,13.3v92.7c-3,0.8-5.8,2-8.4,3.4
	L98.6,307V207.9z M150.3,360.6v0.1v16.2h-36v-26.3c0-9.9,8.1-18,18-18s18,8.1,18,18V360.6z M114.3,492v-95.1h36V492H114.3z
	 M412.6,307l-147,99v-41.5c0-5.5-4.5-10-10-10s-10,4.5-10,10V406l-75.3-50.7v-4.8c0-17.5-11.9-32.3-28-36.7v-81.4l103.5,58.1
	c3,1.7,6.4,2.5,9.8,2.5c3.4,0,6.8-0.8,9.8-2.5l147.2-82.6V307z M418.7,181.5c-0.7,0.3-1.3,0.7-1.9,1.1l-161.2,90.4l-102.5-57.5
	l76.6-43.1c7,5,16,8,25.8,8c22.1,0,40-15.3,40-34c0-18.8-17.9-34-40-34c-22.1,0-40,15.3-40,34c0,3.5,0.6,6.9,1.8,10l-84.6,47.6
	l-38.3-21.5c-0.6-0.4-1.3-0.8-1.9-1.1l-62.4-35L255.6,20l225.6,126.5L418.7,181.5z M235.4,146.5c0-7.6,9.2-14,20-14
	c10.8,0,20,6.4,20,14s-9.2,14-20,14C244.6,160.5,235.4,154.1,235.4,146.5z"/>
<path class="st0" d="M255.6,314.5c-2.6,0-5.2,1.1-7.1,2.9c-1.9,1.9-2.9,4.4-2.9,7.1c0,2.6,1.1,5.2,2.9,7.1c1.9,1.9,4.4,2.9,7.1,2.9
	c2.6,0,5.2-1.1,7.1-2.9c1.9-1.9,2.9-4.4,2.9-7.1c0-2.6-1.1-5.2-2.9-7.1C260.8,315.6,258.2,314.5,255.6,314.5z"/>
</svg>
