<svg version="1.1" id="Capa_1" xmlns="http://www.w3.org/2000/svg" xmlns:xlink="http://www.w3.org/1999/xlink" x="0px" y="0px"
	 viewBox="0 0 512 512" style="enable-background:new 0 0 512 512;" xml:space="preserve">
<g>
	<g>
		<path class="st0" d="M449.4,94.1c-29.4,0-53.4,23.9-53.4,53.4V185h-42.9c13.5-19.6,20.9-43.1,20.9-67C374,52.9,321.1,0,256,0
			S138,52.9,138,118c0,24,7.4,47.4,20.9,67H116v-37.6c0-29.4-23.9-53.4-53.4-53.4C28.1,94.1,0,122.2,0,156.7v281.5
			C0,478.9,33.1,512,73.9,512h364.3c40.7,0,73.9-33.1,73.9-73.9V156.7C512,122.2,483.9,94.1,449.4,94.1z M158,118c0-54,44-98,98-98
			s98,44,98,98c0,22.5-7.8,44.5-22,61.9c-0.1,0.1-0.2,0.3-0.3,0.4l-75.7,97l-74.8-95.9c-0.2-0.4-0.5-0.7-0.7-1
			C166,162.9,158,140.7,158,118z M20,156.7c0-23.5,19.1-42.6,42.6-42.6c18.4,0,33.4,15,33.4,33.4v239.8
			c-9.1-7.4-20.8-11.8-33.4-11.8c-16.5,0-31.4,6.4-42.6,16.8V156.7z M335.1,492l-33.9-33.9c-3.9-3.9-10.2-3.9-14.1,0
			c-3.9,3.9-3.9,10.2,0,14.1l19.8,19.8h-233C44.2,492,20,467.8,20,438.1c0-23.5,19.1-42.6,42.6-42.6c18.4,0,33.4,15,33.4,33.4
			c0,14.2-11.5,25.7-25.7,25.7c-10.7,0-19.5-8.7-19.5-19.5c0-5.5-4.5-10-10-10s-10,4.5-10,10c0,21.8,17.7,39.5,39.5,39.5
			c25.2,0,45.7-20.5,45.7-45.7V382h80.9l40.7,40.7c2,2,4.5,2.9,7.1,2.9s5.1-1,7.1-2.9c3.9-3.9,3.9-10.2,0-14.1l-43.6-43.6
			c-1.9-1.9-4.4-2.9-7.1-2.9h-85v-29.9h122.8c5.5,0,10-4.5,10-10s-4.5-10-10-10H116V205h58.2l73.9,94.7c1.9,2.4,4.8,3.8,7.9,3.8
			c3.1,0,6-1.4,7.9-3.8l73.9-94.7H396v13L259.5,354.5c-3.9,3.9-3.9,10.2,0,14.1L382.9,492H335.1z M438.1,492h-26.9L280.7,361.5
			L396,246.3v182.6c0,25.2,20.5,45.7,45.7,45.7c21.8,0,39.5-17.7,39.5-39.5c0-5.5-4.5-10-10-10s-10,4.5-10,10
			c0,10.7-8.7,19.5-19.5,19.5c-14.2,0-25.7-11.5-25.7-25.7c0-18.4,15-33.4,33.4-33.4c23.5,0,42.6,19.1,42.6,42.6
			C492,467.8,467.8,492,438.1,492z M492,392.3c-11.2-10.4-26.2-16.8-42.6-16.8c-12.6,0-24.2,4.4-33.4,11.8V147.4
			c0-18.4,15-33.4,33.4-33.4c23.5,0,42.6,19.1,42.6,42.6V392.3z"/>
	</g>
</g>
<g>
	<g>
		<path class="st0" d="M58,173c-5.5,0-10,4.5-10,10v73.4c0,5.5,4.5,10,10,10s10-4.5,10-10V183C68,177.5,63.5,173,58,173z"/>
	</g>
</g>
<g>
	<g>
		<path class="st0" d="M65.1,288c-1.9-1.9-4.4-2.9-7.1-2.9s-5.2,1.1-7.1,2.9S48,292.4,48,295c0,2.6,1.1,5.2,2.9,7.1
			c1.9,1.9,4.4,2.9,7.1,2.9s5.2-1.1,7.1-2.9c1.9-1.9,2.9-4.4,2.9-7.1S66.9,289.8,65.1,288z"/>
	</g>
</g>
<g>
	<g>
		<path class="st0" d="M256,49c-39,0-70.8,31.7-70.8,70.8s31.7,70.8,70.8,70.8s70.8-31.7,70.8-70.8S295,49,256,49z M256,170.5
			c-28,0-50.8-22.8-50.8-50.8S228,69,256,69s50.8,22.8,50.8,50.8S284,170.5,256,170.5z"/>
	</g>
</g>
<g>
	<g>
		<path class="st0" d="M276.8,433.7c-1.9-1.9-4.4-2.9-7.1-2.9s-5.2,1.1-7.1,2.9c-1.9,1.9-2.9,4.4-2.9,7.1s1.1,5.2,2.9,7.1
			c1.9,1.9,4.4,2.9,7.1,2.9s5.2-1.1,7.1-2.9c1.9-1.9,2.9-4.4,2.9-7.1S278.7,435.5,276.8,433.7z"/>
	</g>
</g>
</svg>
