<svg xmlns="http://www.w3.org/2000/svg" viewBox="0 0 163 197" width="163" height="197">
	<defs>
		<clipPath clipPathUnits="userSpaceOnUse" id="cp1">
			<path d="M0 1L162 1L162 197L0 197Z" />
		</clipPath>
	</defs>
	<style>
		tspan { white-space:pre }
		.shp0 { fill: #ffffff } 
		.shp1 { fill: #00223a } 
		.shp2 { fill: #0265b2 } 
		.shp3 { fill: #6c7a89 } 
		.shp4 { opacity: 0.502;mix-blend-mode: multiply;fill: #3498db } 
		.shp5 { fill: #bdc3c7 } 
		.shp6 { fill: #22313f } 
		.shp7 { fill: #f4f4f4 } 
		.shp8 { fill: #daecfa } 
		.shp9 { opacity: 0.251;mix-blend-mode: multiply;fill: #3498db } 
		.shp10 { fill: #f4d03f } 
		.shp11 { mix-blend-mode: multiply;fill: #f4d03f } 
		.shp12 { fill: #ec644b } 
	</style>
	<g id="Page 1" clip-path="url(#cp1)">
		<path id="Path 1" class="shp0" d="M78.28,197l2.93,-1.35c18.32,-8.46 36.72,-16.78 54.48,-26.36c17.3,-9.34 16.71,-24.94 17.48,-42.4c1.21,-27.58 0.01,-55.21 0.01,-82.8v-4.89l-4.6,-1.67c-13.5,-4.9 -27.32,-10 -41.18,-13.78c-10.22,-2.78 -20.44,-4.71 -31.07,-4.6c-10.21,0.11 -20.01,2.09 -29.79,4.89c-13.03,3.73 -25.98,8.71 -38.65,13.52l-4.5,1.71v4.81c0,27.59 -1.21,55.22 0.01,82.8c0.77,17.46 0.18,33.06 17.48,42.4c17.76,9.58 36.16,17.91 54.48,26.36z" />
		<path id="Path 2" class="shp1" d="M10.36,44.09c0,27.79 -1.19,55.42 0,82.49c0.88,20.1 1.05,29.67 13.82,36.57c17.33,9.35 34.84,17.28 54.09,26.17c19.26,-8.89 36.76,-16.82 54.09,-26.17c12.78,-6.89 12.94,-16.47 13.82,-36.57c1.19,-27.07 0,-54.7 0,-82.49c-65.74,-23.87 -72.61,-24.03 -135.83,0z" />
		<path id="Path 3" class="shp0" d="M15.63,155.84c1.93,2.83 4.65,5.19 8.56,7.3c17.33,9.35 34.84,17.28 54.09,26.17c19.25,-8.89 36.76,-16.82 54.09,-26.17c3.91,-2.11 6.63,-4.47 8.56,-7.3c-18.18,-8.25 -39.65,-13.02 -62.65,-13.02c-23.01,0 -44.48,4.77 -62.66,13.02z" />
		<path id="Path 4" class="shp2" d="M20.28,160.66c1.15,0.87 2.45,1.7 3.91,2.49c17.33,9.35 34.84,17.28 54.09,26.17c19.25,-8.89 36.76,-16.82 54.09,-26.17c1.46,-0.79 2.76,-1.62 3.91,-2.49c-16.92,-7.29 -36.78,-11.49 -58,-11.49c-21.23,0 -41.08,4.2 -58.01,11.49z" />
		<path id="Path 5" class="shp0" d="M17.58,58.59l-2.41,1.03l2.48,1.1l1.03,2.41l1.1,-2.48l2.41,-1.03l-2.48,-1.1l-1.03,-2.41zM20.11,121.32l-2.41,1.03l2.48,1.1l1.03,2.41l1.1,-2.48l2.41,-1.03l-2.48,-1.1l-1.03,-2.41zM128.3,89.65l-2.41,1.03l2.48,1.1l1.03,2.41l1.1,-2.48l2.41,-1.03l-2.48,-1.1l-1.03,-2.41zM135.44,56.36l-1.46,0.62l1.5,0.67l0.62,1.46l0.67,-1.5l1.46,-0.62l-1.5,-0.67l-0.62,-1.46zM136.77,127.74l-2.41,1.03l2.48,1.1l1.03,2.41l1.1,-2.48l2.41,-1.03l-2.48,-1.1l-1.03,-2.41zM47.1,101.57l-1.46,0.62l1.5,0.66l0.62,1.46l0.66,-1.5l1.46,-0.62l-1.5,-0.67l-0.62,-1.46z" />
		<path id="Path 6" class="shp3" d="M66.25,94.46l-0.7,0.7l-1.27,1.27l-8.52,8.53l-1.97,1.96l1.97,1.97l1.96,-1.97l7.87,-7.87l2.61,-2.62z" />
		<path id="Path 7" class="shp4" d="M55.75,104.95l-1.96,1.97l1.97,1.97l1.96,-1.97zM66.25,94.46l-0.7,0.7l-1.27,1.27l1.32,2.62l2.61,-2.62z" />
		<path id="Path 8" class="shp5" d="M55.76,108.89l-1.97,-1.97l-6.56,-6.56l-46.95,46.95l-0.28,0.27l15.09,15.09l0.28,-0.27l46.95,-46.95z" />
		<path id="Path 9" class="shp6" d="M17.05,142.34l3.93,-3.94l3.28,3.28l-3.94,3.93zM43.29,108.23l3.93,-3.94l3.28,3.28l-3.94,3.93zM32.14,127.25l3.93,-3.94l3.28,3.28l-3.94,3.93zM30.83,127.25l-3.94,3.93l-3.28,-3.28l3.94,-3.93zM27.55,131.84l3.93,-3.93l3.28,3.28l-3.93,3.93zM26.24,131.84l-3.94,3.93l-3.28,-3.28l3.94,-3.93zM22.96,136.43l3.94,-3.93l3.28,3.28l-3.93,3.94zM51.16,116.1l3.94,-3.93l3.28,3.28l-3.93,3.93zM47.22,112.16l3.94,-3.93l3.28,3.28l-3.94,3.93zM15.74,142.34l-3.93,3.93l-3.28,-3.28l3.93,-3.93zM12.46,146.93l3.94,-3.94l3.28,3.28l-3.94,3.93zM7.21,150.86l-3.28,-3.28l3.93,-3.93l3.28,3.28zM38.7,112.82l3.93,-3.94l3.28,3.28l-3.94,3.93zM20.33,137.74l-3.94,3.94l-3.28,-3.28l3.94,-3.93zM30.83,136.43l3.28,3.28l-3.94,3.93l-3.28,-3.28zM35.42,131.84l3.28,3.28l-3.94,3.94l-3.28,-3.28zM45.91,121.35l3.28,3.28l-3.94,3.93l-3.28,-3.28zM50.5,116.76l3.28,3.28l-3.93,3.94l-3.28,-3.28zM40.01,127.25l3.28,3.28l-3.94,3.94l-3.28,-3.28zM24.92,142.34l3.28,3.28l-3.94,3.94l-3.28,-3.28zM41.32,116.76l-3.94,3.93l-3.28,-3.28l3.94,-3.93zM35.42,122.66l-3.94,3.93l-3.28,-3.28l3.94,-3.94zM20.33,146.93l3.28,3.28l-3.93,3.94l-3.28,-3.28zM38.04,121.35l3.94,-3.94l3.28,3.28l-3.93,3.94zM15.74,151.52l3.28,3.28l-3.93,3.94l-3.28,-3.28zM49.85,116.1l-3.94,3.93l-3.28,-3.28l3.94,-3.93zM15.09,150.86l-3.94,3.93l-3.28,-3.28l3.94,-3.93z" />
		<path id="Path 10" class="shp3" d="M106.25,54.45l-1.96,1.97l-8.53,8.52l-1.27,1.27l-0.7,0.7l1.97,1.96l2.61,-2.62l7.87,-7.87l1.97,-1.96v-0.01z" />
		<path id="Path 11" class="shp4" d="M106.25,54.45l-1.97,1.96l1.97,1.97l1.97,-1.96v-0.01zM95.76,64.94l-1.27,1.27l-0.7,0.7l1.97,1.96l2.61,-2.62z" />
		<path id="Path 12" class="shp5" d="M146.91,0.66l-0.38,0.38l-46.84,46.85l6.56,6.56l1.97,1.97l6.56,6.56l46.84,-46.85l0.38,-0.38z" />
		<path id="Path 13" class="shp6" d="M144.95,21l-3.94,3.93l-3.28,-3.28l3.94,-3.94zM110.84,47.23l-3.94,3.94l-3.28,-3.28l3.94,-3.93zM129.86,36.08l-3.94,3.94l-3.28,-3.28l3.94,-3.93zM123.31,28.21l3.94,-3.93l3.28,3.28l-3.94,3.93zM134.46,31.49l-3.94,3.93l-3.28,-3.28l3.93,-3.93zM127.9,23.62l3.94,-3.94l3.28,3.28l-3.94,3.93zM139.05,26.9l-3.94,3.94l-3.28,-3.28l3.93,-3.94zM118.71,55.1l-3.94,3.93l-3.28,-3.28l3.93,-3.94zM114.78,51.17l-3.94,3.94l-3.28,-3.28l3.94,-3.93zM138.39,13.13l3.93,-3.93l3.28,3.28l-3.94,3.93zM149.54,16.4l-3.94,3.94l-3.28,-3.28l3.94,-3.93zM146.26,11.81l-3.28,-3.28l3.94,-3.93l3.28,3.28zM115.44,42.64l-3.93,3.93l-3.28,-3.28l3.93,-3.93zM133.8,17.72l3.93,-3.94l3.28,3.28l-3.94,3.94zM139.7,27.56l3.28,3.28l-3.94,3.93l-3.28,-3.28zM135.11,32.15l3.28,3.28l-3.94,3.94l-3.28,-3.28zM124.62,42.64l3.28,3.28l-3.94,3.93l-3.28,-3.28zM120.03,47.23l3.28,3.28l-3.94,3.94l-3.28,-3.28zM130.52,36.74l3.28,3.28l-3.94,3.94l-3.28,-3.28zM145.61,21.65l3.28,3.28l-3.93,3.93l-3.28,-3.28zM112.81,38.71l3.94,-3.94l3.28,3.28l-3.93,3.94zM118.71,32.8l3.93,-3.93l3.28,3.28l-3.94,3.93zM150.2,17.06l3.28,3.28l-3.93,3.94l-3.28,-3.28zM123.96,41.99l-3.94,3.94l-3.28,-3.28l3.94,-3.93zM154.79,12.47l3.28,3.28l-3.93,3.93l-3.28,-3.28zM112.16,47.23l3.94,-3.93l3.28,3.28l-3.94,3.93zM146.92,12.47l3.94,-3.94l3.28,3.28l-3.94,3.93z" />
		<path id="Path 14" class="shp7" d="M114.59,84.14l-4.85,-4.33l-2.98,-2.66l-1.86,-1.67l-8.32,-7.43l-2.08,-1.85l-8.31,-7.43l-2.08,-1.86l-2.77,-2.47l-9.84,9.84v0.01l-17.71,17.7l2.47,2.77l1.86,2.08l7.43,8.31l1.85,2.08l7.43,8.32l4.33,4.84l4.33,4.85l3.09,3.47l23.61,-23.61l4.6,-4.59l3.28,-3.29z" />
		<path id="Path 15" class="shp8" d="M114.59,84.14l-4.85,-4.33l-2.98,-2.66l-1.86,-1.67l-8.32,-7.43l-2.08,-1.85l-8.31,-7.43l-2.08,-1.86l-2.77,-2.47l-9.84,9.84l2.71,2.53l2.05,1.89l2.13,1.97l1.42,1.32l5.56,5.15l3.97,3.68l5.3,4.91v0.01l4.77,4.41l2.85,2.65l1.52,1.41l0.4,0.36l3.4,3.16l2.62,-2.62l4.6,-4.59l3.28,-3.29z" />
		<path id="Path 16" class="shp9" d="M84.11,56.92l-2.77,-2.47l-9.84,9.84v0.01l-17.71,17.7l2.47,2.77l1.86,2.08l28.07,-28.07z" />
		<path id="Path 17" class="shp10" d="M79.15,110.41l30.59,-30.59l-4.85,-4.33l-30.07,30.07z" />
		<path id="Path 18" class="shp9" d="M104.21,91.83c0,1.74 -0.67,3.37 -1.9,4.59l-6.56,6.56c-1.22,1.22 -2.85,1.89 -4.59,1.89c-1.74,0 -3.37,-0.67 -4.59,-1.89l-15.74,-15.74c-1.22,-1.22 -1.9,-2.85 -1.9,-4.59c0,-1.74 0.67,-3.37 1.9,-4.59l6.56,-6.56c1.22,-1.22 2.85,-1.9 4.59,-1.9c1.74,0 3.37,0.67 4.59,1.9l15.74,15.74c1.22,1.22 1.9,2.85 1.9,4.59zM70.8,82.65c0,1.24 0.48,2.41 1.35,3.28l15.74,15.74c0.87,0.87 2.04,1.35 3.28,1.35c1.24,0 2.41,-0.48 3.28,-1.35l6.56,-6.56c0.87,-0.87 1.35,-2.04 1.35,-3.28c0,-1.24 -0.48,-2.41 -1.35,-3.28l-15.74,-15.74c-0.87,-0.87 -2.04,-1.35 -3.28,-1.35c-1.24,0 -2.41,0.48 -3.28,1.35l-6.56,6.56c-0.87,0.87 -1.35,2.04 -1.35,3.28z" />
		<path id="Path 19" class="shp11" d="M94.63,85.74l4.76,4.42l10.35,-10.35l-2.98,-2.67l-1.87,-1.67z" />
		<path id="Path 20" class="shp5" d="M86.25,51.5c-0.79,-0.79 -2.01,-0.89 -2.91,-0.3l-0.04,-0.03l-5.24,5.24l-3.94,3.94l-1.31,1.31l-1.97,1.97l-14.42,14.43l-1.32,1.31l-4.59,4.59l0.03,0.04c-0.59,0.9 -0.5,2.12 0.3,2.91c0.79,0.79 2.01,0.89 2.91,0.3l0.04,0.03l2.47,-2.47l17.86,-17.86l0.1,-0.1l12.36,-12.36l-0.03,-0.04c0.59,-0.9 0.5,-2.12 -0.3,-2.91z" />
		<path id="Path 21" class="shp9" d="M86.25,51.5c-0.79,-0.79 -2.01,-0.89 -2.91,-0.3l-0.04,-0.03l-5.24,5.24l-3.94,3.94l-1.31,1.31l-1.97,1.97l3.28,3.28l0.1,-0.1l12.36,-12.36l-0.03,-0.04c0.59,-0.9 0.5,-2.12 -0.3,-2.91z" />
		<path id="Path 22" class="shp5" d="M121.01,81.01c-0.79,-0.79 -2.02,-0.89 -2.92,-0.29l-0.03,-0.03l-38.04,38.04l0.03,0.03c-0.6,0.9 -0.5,2.12 0.29,2.92c0.79,0.79 2.02,0.89 2.92,0.29l0.03,0.04l38.04,-38.04l-0.03,-0.03c0.6,-0.9 0.5,-2.13 -0.29,-2.92z" />
		<path id="Path 23" class="shp9" d="M121.01,81.01c-0.79,-0.79 -2.02,-0.89 -2.92,-0.29l-0.03,-0.03l-13.77,13.77l3.28,3.28l13.77,-13.77l-0.03,-0.03c0.6,-0.9 0.5,-2.13 -0.29,-2.92z" />
		<path id="Path 24" class="shp3" d="M47.04,68.69l-0.48,-0.47l-1.31,1.32l0.48,0.47l9.36,9.36l1.32,-1.31z" />
		<path id="Path 25" class="shp12" d="M46.56,66.91c-0.72,-0.72 -1.89,-0.72 -2.62,0c-0.72,0.72 -0.72,1.9 0,2.62c0.5,0.49 1.18,0.64 1.79,0.48c0.31,-0.07 0.59,-0.24 0.83,-0.48c0.24,-0.25 0.4,-0.53 0.48,-0.84c0.17,-0.61 0.01,-1.3 -0.48,-1.78z" />
		<path id="Path 26" class="shp3" d="M57.06,43.3l-1.32,1.32l17.06,17.05l1.31,-1.31zM69.52,45.27l-1.32,1.31l9.85,9.84l1.31,-1.31z" />
		<path id="Path 27" class="shp10" d="M78.71,78.06l-1.31,1.31c-2.17,2.17 -2.17,5.7 0,7.87l2.62,2.63c2.17,2.17 5.7,2.17 7.87,0l1.31,-1.31c2.17,-2.17 2.17,-5.7 0,-7.87l-2.62,-2.62c-2.17,-2.17 -5.7,-2.17 -7.87,0z" />
		<path id="Path 28" class="shp6" d="M85.26,79.37c-1.44,-1.44 -3.8,-1.44 -5.25,0l-1.31,1.31c-1.44,1.44 -1.44,3.8 0,5.25l2.62,2.63c1.44,1.44 3.8,1.44 5.25,0l1.31,-1.31c1.44,-1.44 1.44,-3.8 0,-5.25z" />
		<path id="Path 29" class="shp3" d="M120.03,91.83l-5.25,5.25l-4.59,-1.97l7.87,-7.87zM108.22,103.64l-5.25,5.25l-4.59,-1.97l7.87,-7.87zM96.42,115.44l-5.25,5.25l-4.59,-1.97l7.87,-7.87z" />
		<path id="Path 30" class="shp4" d="M100.22,107.7l-1.84,-0.79l4.59,-4.59l0,0l3.27,-3.27l0.01,-0.01l0,0l0,0l1.97,4.59l-2.62,2.63l-1.57,-2.36zM88.41,119.51l-1.84,-0.79l7.84,-7.83l0.03,-0.03l1.97,4.59l-2.62,2.62l-1.57,-2.36zM112.03,95.9l-1.84,-0.79l7.87,-7.87l0,0l-3.28,3.28l1.05,1.57zM118.85,89.08l-3.02,3.02l1.57,2.36l2.62,-2.62l-1.97,-4.59l0,0z" />
	</g>
</svg>