<?xml version="1.0" encoding="utf-8"?>
<!-- Generator: Adobe Illustrator 22.1.0, SVG Export Plug-In . SVG Version: 6.00 Build 0)  -->
<svg version="1.1" id="Capa_1" xmlns="http://www.w3.org/2000/svg" xmlns:xlink="http://www.w3.org/1999/xlink" x="0px" y="0px"
	 viewBox="0 0 208.7 185.1" style="enable-background:new 0 0 208.7 185.1;" xml:space="preserve">
<style type="text/css">
	.st0{fill:#666666;}
</style>
<path class="st0" d="M84.9,138.7c-12.8,0-23.2,10.4-23.2,23.2c0,12.8,10.4,23.2,23.2,23.2s23.2-10.4,23.2-23.2
	C108.1,149.1,97.7,138.7,84.9,138.7z M84.9,170.1c-4.5,0-8.2-3.7-8.2-8.2s3.7-8.2,8.2-8.2s8.2,3.7,8.2,8.2S89.4,170.1,84.9,170.1z"
	/>
<path class="st0" d="M162.3,138.7c-12.8,0-23.2,10.4-23.2,23.2c0,12.8,10.4,23.2,23.2,23.2s23.2-10.4,23.2-23.2
	C185.5,149.1,175.1,138.7,162.3,138.7z M162.3,170.1c-4.5,0-8.2-3.7-8.2-8.2s3.7-8.2,8.2-8.2s8.2,3.7,8.2,8.2
	S166.8,170.1,162.3,170.1z"/>
<path class="st0" d="M207.2,32.7c-1.4-1.8-3.6-2.9-5.9-2.9H51.7L45.5,5.6C44.6,2.3,41.7,0,38.2,0H7.5C3.4,0,0,3.4,0,7.5
	S3.4,15,7.5,15h24.9l6.2,23.9c0,0.2,0.1,0.3,0.1,0.4l23.1,89c0.9,3.3,3.8,5.6,7.3,5.6H178c3.4,0,6.4-2.3,7.3-5.6L208.5,39
	C209.1,36.9,208.6,34.5,207.2,32.7z M172.2,119H74.9L55.6,44.7h135.9L172.2,119z"/>
</svg>
