<?xml version="1.0" encoding="utf-8"?>
<!-- Generator: Adobe Illustrator 22.1.0, SVG Export Plug-In . SVG Version: 6.00 Build 0)  -->
<svg version="1.1" id="Capa_1" xmlns="http://www.w3.org/2000/svg" xmlns:xlink="http://www.w3.org/1999/xlink" x="0px" y="0px"
	 viewBox="0 0 329.9999695 282.9440308" style="enable-background:new 0 0 329.9999695 282.9440308;" xml:space="preserve">
<path d="M304.2860107,25.7140045C287.70401,9.1320038,265.65802,0,242.2080078,0
	s-45.4970093,9.1320038-62.07901,25.7140045L165,40.8430023l-15.1289978-15.1289978
	C133.2890015,9.1320038,111.2430115,0,87.7920074,0c-23.4499969,0-45.496994,9.1320038-62.0780029,25.7140045
	C9.1320038,42.2960052,0,64.3430023,0,87.7920074c0,23.4499969,9.1320038,45.4970093,25.7140045,62.0780029l128.6799927,128.6799774
	c2.9290009,2.9290161,6.7680054,4.394043,10.6060028,4.394043c3.8380127,0,7.678009-1.4639893,10.6059875-4.394043
	l128.6799927-128.6799774c16.5820007-16.5809937,25.7139893-38.6269989,25.7139893-62.0780029
	c0-23.4490051-9.1319885-45.4960022-25.7139893-62.0780029H304.2860107z"/>
</svg>
