<?xml version="1.0" encoding="utf-8"?>
<!-- Generator: Adobe Illustrator 22.1.0, SVG Export Plug-In . SVG Version: 6.00 Build 0)  -->
<svg version="1.1" id="Capa_1" xmlns="http://www.w3.org/2000/svg" xmlns:xlink="http://www.w3.org/1999/xlink" x="0px" y="0px"
	 viewBox="0 0 330 283" style="enable-background:new 0 0 330 283;" xml:space="preserve">
<path class="st0" d="M304.3,25.7C287.7,9.1,265.7,0,242.2,0s-45.5,9.1-62.1,25.7L165,40.9l-15.1-15.1C133.3,9.2,111.3,0.1,87.8,0.1
	c-23.4,0-45.5,9.1-62.1,25.7C9.1,42.3,0,64.4,0,87.8s9.1,45.5,25.7,62.1l128.7,128.7c2.9,2.9,6.8,4.4,10.6,4.4
	c3.8,0,7.7-1.5,10.6-4.4l128.7-128.7c16.6-16.6,25.7-38.6,25.7-62.1C330,64.4,320.9,42.3,304.3,25.7L304.3,25.7z M283.1,128.7
	L165,246.8L46.9,128.7C36,117.8,30,103.3,30,87.8s6-29.9,16.9-40.9C58.2,35.6,73,30,87.8,30c14.8,0,29.6,5.6,40.9,16.9l25.7,25.7
	c5.9,5.9,15.4,5.9,21.2,0l25.7-25.7c22.5-22.5,59.2-22.5,81.7,0c10.9,10.9,16.9,25.4,16.9,40.9C300,103.3,294,117.8,283.1,128.7
	L283.1,128.7z"/>
</svg>
