<?xml version="1.0" encoding="utf-8"?>
<!-- Generator: Adobe Illustrator 22.1.0, SVG Export Plug-In . SVG Version: 6.00 Build 0)  -->
<svg version="1.1" id="Capa_1" xmlns="http://www.w3.org/2000/svg" xmlns:xlink="http://www.w3.org/1999/xlink" x="0px" y="0px"
	 viewBox="0 0 176.5315857 170.951004" style="enable-background:new 0 0 176.5315857 170.951004;" xml:space="preserve">
<style type="text/css">
	.st0{fill:#1D1D1B;}
</style>
<g>
	<path class="st0" d="M152.9277802,83.1220093L93.0377884,33.716011c-2.7709961-2.2870007-6.7730026-2.2870007-9.5449982,0
		L23.6027908,83.1220093c-1.7280006,1.4250031-2.7280006,3.5459976-2.7280006,5.7850037v74.5439911
		c0,4.1430054,3.3570004,7.5,7.5,7.5h119.7789917c4.1430054,0,7.5-3.3569946,7.5-7.5V88.9070053
		C155.6557922,86.6680069,154.6557922,84.5470047,152.9277802,83.1220093z M96.1957932,155.951004H80.3357925V114.427002h15.8590012
		v41.5240021H96.1957932z M140.6557922,155.951004h-29.4599915V106.927002c0-4.1429977-3.3570023-7.5-7.5-7.5H72.8357925
		c-4.1429977,0-7.5,3.3570023-7.5,7.5v49.0240021H35.8757935V92.4430084l52.3899994-43.2190018l52.3899994,43.2190018V155.951004z"
		/>
	<path class="st0" d="M173.7197876,68.076004c-16.7059937-13.382-32.4580078-26.1780014-49.560997-40.2610016
		c-5.1090012-4.5909996-10.4790039-8.9379997-15.6750031-13.144001c-5.086998-4.118-10.3479996-8.3769989-15.201004-12.7449989
		c-2.8540039-2.5680001-7.1819992-2.5680001-10.0350037,0c-4.8540039,4.368-10.1139984,8.6269989-15.201004,12.7449989
		c-5.1949997,4.2049999-10.5649986,8.5530014-15.6749992,13.144001
		C35.2697945,41.8990059,19.5177937,54.6940079,2.8117938,68.076004c-3.233,2.5889969-3.7550001,7.3099976-1.165,10.5419998
		c2.5889997,3.2320023,7.3110003,3.7549973,10.5419998,1.1650009C28.9907932,66.326004,44.8287926,53.4590073,62.0337944,39.2900085
		c0.0849991-0.0690002,0.1679993-0.1409988,0.25-0.2150002c4.8540001-4.368,10.1140022-8.6270008,15.2010002-12.7450008
		c3.5589981-2.8800011,7.1989975-5.8269997,10.7809982-8.8730011c3.5820007,3.0459995,7.2229996,5.993,10.7809982,8.8730011
		c5.086998,4.118,10.3479996,8.3770008,15.201004,12.7450008c0.0820007,0.0740013,0.1650009,0.1459999,0.25,0.2150002
		c17.2039871,14.1689987,33.0429916,27.0359955,49.8449936,40.4929962c1.3840027,1.1080017,3.0390015,1.6460037,4.6840057,1.6460037
		c2.197998,0,4.3769989-0.961998,5.8580017-2.8119965C177.4747925,75.3860092,176.9527893,70.6650085,173.7197876,68.076004z"/>
</g>
</svg>
