<?xml version="1.0" encoding="utf-8"?>
<!-- Generator: Adobe Illustrator 22.1.0, SVG Export Plug-In . SVG Version: 6.00 Build 0)  -->
<svg version="1.1" id="Layer_1" xmlns="http://www.w3.org/2000/svg" xmlns:xlink="http://www.w3.org/1999/xlink" x="0px" y="0px"
	 viewBox="0 0 355.1619873 512" style="enable-background:new 0 0 355.1619873 512;" xml:space="preserve">
<g>
	<g>
		<g>
			<path d="M177.5809937,238.4279938c65.7340088,0,119.2139893-53.4799957,119.2139893-119.2139969
				C296.79599,53.4780006,243.3150024,0,177.5809937,0C111.8450012,0,58.3670044,53.4780006,58.3670044,119.2139969
				C58.3669891,184.947998,111.8470001,238.4279938,177.5809937,238.4279938z M177.5809937,38.7029991
				c44.3940125,0,80.5109863,36.118,80.5109863,80.5110016s-36.1169739,80.5110016-80.5109863,80.5110016
				c-44.3950043,0-80.5110016-36.1179962-80.5110016-80.5110016S133.1869965,38.7029991,177.5809937,38.7029991z"/>
			<path d="M177.5809937,253.6929932C79.6629944,253.6929932,0,333.3549805,0,431.2739868v61.375
				C0,503.3359985,8.6640015,512,19.3509979,512h316.4589844c10.6870117,0,19.3519897-8.6640015,19.3519897-19.3510132v-61.375
				C355.1629944,333.3559875,275.5010071,253.6929932,177.5809937,253.6929932z M38.7029953,473.2969971v-42.0239868
				c0-76.5780029,62.2999954-138.8779907,138.8779907-138.8779907s138.8779907,62.2999878,138.8779907,138.8779907v42.0239868
				H38.7029953z"/>
		</g>
	</g>
</g>
</svg>
