<?xml version="1.0" encoding="utf-8"?>
<!-- Generator: Adobe Illustrator 22.1.0, SVG Export Plug-In . SVG Version: 6.00 Build 0)  -->
<svg version="1.1" id="Capa_1" xmlns="http://www.w3.org/2000/svg" xmlns:xlink="http://www.w3.org/1999/xlink" x="0px" y="0px"
	 viewBox="0 0 172.9459991 208.9539948" style="enable-background:new 0 0 172.9459991 208.9539948;" xml:space="preserve">
<path d="M172.8450012,200.227005L160.1299896,58.6259995c-0.3470001-3.8670006-3.5879974-6.8289986-7.4700012-6.8289986h-26.2210007
	V39.9710007C126.4389877,17.9309998,108.5089874,0,86.469986,0c-22.038002,0-39.9659958,17.9309998-39.9659958,39.9710007
	v11.8260002H20.2649899c-3.882,0-7.1230011,2.9620018-7.4699993,6.8289986L0.0299888,200.7839966
	c-0.1879997,2.0980072,0.5139999,4.177002,1.9349995,5.7310028s3.4300003,2.4389954,5.5349998,2.4389954h157.9260101
	c0.0059967,0,0.0140076,0,0.0200043,0c4.1430054,0,7.5-3.3580017,7.5-7.5
	C172.9449921,201.0370026,172.9109955,200.6260071,172.8450012,200.227005z M61.5039902,39.9710007
	C61.5039902,26.2019997,72.7039871,15,86.4709854,15c13.7679977,0,24.9689941,11.2019997,24.9689941,24.9710007v11.8260002
	H61.5039902V39.9710007z M15.703989,193.9550018L27.1219883,66.7969971h19.3820019v13.4120026c0,4.1419983,3.3570023,7.5,7.5,7.5
	s7.5-3.3580017,7.5-7.5V66.7969971h49.9360046v13.4120026c0,4.1419983,3.3569946,7.5,7.5,7.5s7.5-3.3580017,7.5-7.5V66.7969971
	h19.364006l11.4179993,127.1579895H15.703989V193.9550018z"/>
</svg>
