<?xml version="1.0" encoding="utf-8"?>
<!-- Generator: Adobe Illustrator 22.1.0, SVG Export Plug-In . SVG Version: 6.00 Build 0)  -->
<svg version="1.1" id="Capa_1" xmlns="http://www.w3.org/2000/svg" xmlns:xlink="http://www.w3.org/1999/xlink" x="0px" y="0px"
	 viewBox="0 0 139.9 203.1" style="enable-background:new 0 0 139.9 203.1;" xml:space="preserve">
<style type="text/css">
	.st0{fill:#FFFFFF;}
</style>
<g>
	<path class="st0" d="M122.4,73.2h-3.3V49.1C119.1,22,97.1,0,70,0S20.8,22,20.8,49.1v24.1h-3.3C7.9,73.2,0,81.1,0,90.7v94.9
		c0,9.6,7.9,17.5,17.5,17.5h104.9c9.6,0,17.5-7.9,17.5-17.5V90.7C139.9,81.1,132,73.2,122.4,73.2z M35.8,49.1
		C35.8,30.3,51.1,15,69.9,15S104,30.3,104,49.1v24.1H35.8V49.1z M124.9,185.6c0,1.4-1.1,2.5-2.5,2.5H17.5c-1.4,0-2.5-1.1-2.5-2.5
		V90.7c0-1.4,1.1-2.5,2.5-2.5h10.8h83.2h10.9c1.4,0,2.5,1.1,2.5,2.5V185.6z"/>
	<path class="st0" d="M69.9,116.3c-4.1,0-7.5,3.4-7.5,7.5v28.7c0,4.1,3.4,7.5,7.5,7.5c4.1,0,7.5-3.4,7.5-7.5v-28.7
		C77.4,119.7,74.1,116.3,69.9,116.3z"/>
</g>
</svg>
