<svg 
 xmlns="http://www.w3.org/2000/svg"
 xmlns:xlink="http://www.w3.org/1999/xlink"
 width="17px" height="15px">
<defs>
<filter id="Filter_0">
    <feFlood flood-color="rgb(8, 34, 68)" flood-opacity="0.4" result="floodOut" />
    <feComposite operator="atop" in="floodOut" in2="SourceGraphic" result="compOut" />
    <feBlend mode="normal" in="compOut" in2="SourceGraphic" />
</filter>

</defs>
<g filter="url(#Filter_0)">
<path fill-rule="evenodd"  fill="rgb(207, 209, 222)"
 d="M4.065,3.216 L4.065,0.902 C4.065,0.403 4.479,-0.002 4.989,-0.002 C5.499,-0.002 5.913,0.403 5.913,0.902 L5.913,3.216 C5.913,3.715 5.499,4.119 4.989,4.119 C4.479,4.119 4.065,3.715 4.065,3.216 ZM12.011,4.119 C12.521,4.119 12.935,3.715 12.935,3.216 L12.935,0.902 C12.935,0.403 12.521,-0.002 12.011,-0.002 C11.500,-0.002 11.087,0.403 11.087,0.902 L11.087,3.216 C11.087,3.715 11.500,4.119 12.011,4.119 ZM17.000,2.053 L17.000,14.275 C17.000,14.674 16.669,14.998 16.261,14.998 L0.739,14.998 C0.331,14.998 -0.000,14.674 -0.000,14.275 L-0.000,2.053 C-0.000,1.653 0.331,1.263 0.739,1.263 L2.467,1.263 C2.875,1.263 3.206,1.587 3.206,1.986 C3.206,2.385 2.875,2.708 2.467,2.708 L1.478,2.708 L1.478,5.782 L15.522,5.782 L15.522,2.708 L14.533,2.708 C14.125,2.708 13.794,2.385 13.794,1.986 C13.794,1.587 14.125,1.263 14.533,1.263 L16.261,1.263 C16.669,1.263 17.000,1.653 17.000,2.053 ZM15.522,13.553 L15.522,7.047 L1.478,7.047 L1.478,13.553 L15.522,13.553 ZM7.334,2.708 L9.666,2.708 C10.075,2.708 10.405,2.385 10.405,1.986 C10.405,1.587 10.075,1.263 9.666,1.263 L7.334,1.263 C6.926,1.263 6.595,1.587 6.595,1.986 C6.595,2.385 6.926,2.708 7.334,2.708 Z"/>
</g>
</svg>