<svg xmlns="http://www.w3.org/2000/svg" width="77.35" height="77.35"><style>.st0{fill:#43a9ff}</style><path class="st0" d="M48.71 48.72a14.09 14.09 0 0 1-10.04 4.15c-3.79 0-7.36-1.47-10.04-4.15-5.54-5.54-5.54-14.55 0-20.09 2.68-2.68 6.25-4.16 10.04-4.16 3.8 0 7.36 1.48 10.04 4.16 2.69 2.69 4.16 6.25 4.16 10.04 0 3.8-1.47 7.36-4.16 10.05m26.78-11.76c-2.83.18-5.68.26-8.5.28l7.66-7.66c.68-.68.68-1.79 0-2.47-.69-.69-1.8-.69-2.48 0L62.06 37.22c-1.95-.03-3.87-.07-5.76-.13a17.62 17.62 0 0 0-3.95-9.66l4.26-4.26h13.93c.96 0 1.75-.79 1.75-1.75 0-.97-.78-1.75-1.75-1.75H60.11L66 13.78c.02-.03.04-.05.06-.08a1.73 1.73 0 0 0 .45-1.11v-.05c0-.45-.17-.9-.51-1.24a1.75 1.75 0 0 0-2.47 0l-5.85 5.85V6.81c0-.97-.78-1.75-1.75-1.75s-1.75.78-1.75 1.75v13.84l-4.31 4.31a17.515 17.515 0 0 0-9.48-3.9v-6.04l9.85-9.85c.68-.68.68-1.79 0-2.47a1.75 1.75 0 0 0-2.47 0l-7.38 7.37V1.74c0-.96-.78-1.74-1.75-1.74-.96 0-1.75.78-1.75 1.74v8.27L29.58 2.7a1.75 1.75 0 0 0-2.47 2.48l9.78 9.78v6.1A17.58 17.58 0 0 0 27.43 25l-4.26-4.26V6.81c0-.97-.79-1.75-1.75-1.75-.97 0-1.75.78-1.75 1.75v10.43l-5.89-5.9a1.747 1.747 0 1 0-2.97 1.45c.04.38.2.74.49 1.03l5.85 5.85H6.81c-.97 0-1.75.78-1.75 1.75 0 .96.78 1.75 1.75 1.75h13.84l4.31 4.31a17.574 17.574 0 0 0-3.89 9.47h-6.05l-9.84-9.84a1.75 1.75 0 0 0-2.48 2.47l7.37 7.37H1.74c-.96 0-1.74.79-1.74 1.75v.01c0 .96.78 1.75 1.74 1.75h8.27L2.7 47.77a1.75 1.75 0 0 0 0 2.47 1.765 1.765 0 0 0 2.48 0l9.78-9.78h6.11c.34 3.36 1.63 6.65 3.89 9.41l-4.31 4.31H6.81c-.97 0-1.75.79-1.75 1.75 0 .97.78 1.75 1.75 1.75h10.34l-5.85 5.85a1.75 1.75 0 0 0 0 2.47c.34.34.79.52 1.24.52a1.769 1.769 0 0 0 1.24-.52l5.88-5.89.01 10.43c0 .97.78 1.75 1.75 1.75.96 0 1.75-.78 1.75-1.75l-.01-13.93 4.27-4.26c2.71 2.23 5.97 3.59 9.46 3.93v6.11l-9.78 9.78c-.69.69-.69 1.79 0 2.48a1.748 1.748 0 0 0 2.47 0l7.31-7.31v8.26c0 .97.79 1.75 1.75 1.75.97 0 1.75-.78 1.75-1.75v-8.33l7.38 7.38a1.748 1.748 0 0 0 2.47 0c.68-.69.68-1.79 0-2.48l-9.85-9.84v-6.04c3.49-.33 6.77-1.68 9.48-3.9l4.1 4.1.21.21v13.84c0 .97.78 1.75 1.75 1.75s1.75-.78 1.75-1.75V60.2l5.85 5.85a1.748 1.748 0 0 0 2.47 0 1.765 1.765 0 0 0 0-2.48l-5.89-5.89h10.43c.97 0 1.75-.78 1.75-1.75s-.78-1.75-1.75-1.75H56.61l-4.27-4.27a17.35 17.35 0 0 0 3.92-9.32c2.1.06 4.23.1 6.39.13l9.52 9.52a1.765 1.765 0 0 0 2.48 0c.68-.68.68-1.79 0-2.47l-7.05-7.05c2.7-.02 5.41-.09 8.12-.27.96-.06 1.69-.89 1.63-1.86-.06-.96-.89-1.71-1.86-1.63"/><path class="st0" d="M47.23 30.12c-.68-.69-1.79-.69-2.47 0l-6.09 6.08-6.08-6.08c-.68-.69-1.79-.69-2.48 0a1.75 1.75 0 0 0 0 2.47l6.09 6.09-6.09 6.08a1.75 1.75 0 0 0 0 2.47c.35.35.79.52 1.24.52.45 0 .9-.17 1.24-.52l6.08-6.08 6.09 6.08c.34.35.79.52 1.24.52.44 0 .89-.17 1.23-.52.69-.68.69-1.79 0-2.47l-6.08-6.08 6.08-6.09c.69-.68.69-1.79 0-2.47"/></svg>