<svg xmlns="http://www.w3.org/2000/svg" width="72.1" height="75.65"><path d="M49.55 57.23h-27c-.14-.55-.21-1.12-.21-1.7 0-2.33 1.16-4.52 3.1-5.83.14-.09.27-.21.37-.34 1.5-1.81 4.05-5.7 4.26-11.35.11-2.97 1.8-4.48 5.02-4.48h1.68c3.38 0 5.14 1.51 5.26 4.48.21 5.65 2.76 9.54 4.25 11.35.11.13.23.25.37.34a7.028 7.028 0 0 1 3.1 5.83c0 .58-.07 1.15-.2 1.7m-.71-10.27a15.55 15.55 0 0 1-3.32-9.08c-.22-5.79-4.66-7.85-8.75-7.85h-1.68c-3.98 0-8.3 2.06-8.52 7.85-.17 4.43-2.08 7.53-3.31 9.08a10.527 10.527 0 0 0-4.42 8.57c0 1.43.29 2.83.85 4.14.27.64.91 1.06 1.61 1.06h29.5c.7 0 1.33-.42 1.61-1.06.56-1.31.84-2.7.84-4.14 0-3.41-1.64-6.59-4.41-8.57M36.05 72.15c-1.77 0-3.21-1.44-3.21-3.21 0-1.76 1.44-3.2 3.21-3.2s3.2 1.44 3.2 3.2c0 1.77-1.43 3.21-3.2 3.21m0-9.91c-3.7 0-6.71 3.01-6.71 6.7 0 3.7 3.01 6.71 6.71 6.71 3.69 0 6.7-3.01 6.7-6.71 0-3.69-3.01-6.7-6.7-6.7M61.39 17.9c-.9 1.15-1.42 2.41-1.71 3.58a9.51 9.51 0 0 0-3.51-1.64c-.82-.19-1.65-.25-2.5-.21.86-.71 1.57-1.95 1.57-4.11v-3.67c.34-.04.69-.1 1.03-.18 1.38-.34 2.54-.98 3.48-1.7.31 1.18.85 2.42 1.76 3.56.68.85 1.5 1.55 2.44 2.12-1 .6-1.86 1.35-2.56 2.25m-9.65-9.94v7.56c0 1.56-.42 1.56-.83 1.56-1.17 0-2.96-.82-4.68-1.83-1.05-.63-2.08-1.33-2.92-1.95V7.27c2.19-1.63 5.7-3.77 7.6-3.77.41 0 .83 0 .83 1.55zm-12.52 4.66h-5.05c-.06 0-.1-.02-.11 0l-.01-4.63c0-.01.04-.04.12-.04h5.05c.06 0 .09.02.1.02l.02 4.61s-.04.04-.12.04m-8.9.68c-.13.09-.27.19-.41.29-1 .72-2.2 1.51-3.4 2.16-1.43.76-2.82 1.33-3.79 1.33-.41 0-.83 0-.83-1.56V5.05c0-1.55.42-1.55.83-1.55 1.89 0 5.4 2.14 7.6 3.77zm-9.14 7.07c-1.84-.61-3.63-.71-5.35-.29-1.38.34-2.54.98-3.49 1.7-.31-1.18-.84-2.42-1.75-3.57-.68-.84-1.5-1.54-2.45-2.11 1.01-.6 1.87-1.35 2.57-2.25.9-1.15 1.41-2.41 1.71-3.58.95.7 2.12 1.32 3.5 1.64.67.16 1.35.23 2.04.23.14 0 .29-.01.43-.02v3.4c0 3.17 1.51 4.36 2.8 4.8zm49.25-6.51c-2.86-.13-4.94-.97-6.17-2.49-1.39-1.72-1.44-3.97-1.38-4.98.02-.31.05-.51.05-.52.17-.95-.47-1.85-1.42-2.02-.23-.04-.46-.03-.68.02-.42.13-.8.43-1.02.86-.01.01-.11.19-.31.48-.57.84-1.96 2.54-4.06 3.06l-.2.03V5.05C55.24.36 51.92 0 50.91 0c-3.65 0-8.76 3.75-10.14 4.81a3.64 3.64 0 0 0-1.55-.36h-5.05c-.5 0-.98.1-1.41.28C31.25 3.58 26.28 0 22.72 0c-1.02 0-4.33.36-4.33 5.05v3.56c-.57.05-1.12.02-1.65-.1-2.13-.48-3.55-2.17-4.14-3.01-.2-.29-.31-.48-.31-.48-.23-.42-.6-.71-1.02-.84-.22-.04-.45-.05-.68-.01-.95.18-1.58 1.09-1.41 2.04 0 0 .04.2.06.52.07 1 .06 3.25-1.31 4.99-1.21 1.54-3.28 2.41-6.14 2.58-.32.02-.61.13-.85.29a1.743 1.743 0 0 0 .72 3.29c2.87.14 4.94.98 6.18 2.5 1.39 1.72 1.43 3.97 1.37 4.97-.02.32-.05.52-.05.53-.16.94.47 1.85 1.42 2.01.11.02.21.03.31.03.15 0 .28-.04.42-.07.4-.14.76-.42.98-.82 0-.01.1-.19.29-.47.57-.84 1.98-2.57 4.11-3.08 1.9-.46 4.06.14 6.41 1.78.79.55 1.89.36 2.44-.44.3-.44 1.08-4.58 2.88-5.89 1.4-1 3.28-1.33 5.61-.97.18 1.92-.15 3.51-1 4.74-1.65 2.38-4.83 2.8-4.9 2.81-.96.11-1.65.97-1.54 1.93.1.89.85 1.56 1.73 1.56.07 0 .13-.01.2-.02.19-.02 4.77-.56 7.36-4.25.05-.06.08-.13.12-.2.08.12.14.24.22.35 2.64 3.66 7.23 4.14 7.42 4.15.06.01.12.01.17.01.89 0 1.65-.68 1.74-1.58a1.75 1.75 0 0 0-1.57-1.91c-.03 0-3.22-.37-4.92-2.72-.9-1.25-1.25-2.88-1.06-4.88 2.28-.37 4.15-.08 5.54.89 1.84 1.28 2.67 5.43 2.99 5.87.56.78 1.65.96 2.44.4 2.33-1.67 4.48-2.3 6.39-1.87 2.14.48 3.56 2.19 4.15 3.03.18.27.29.44.3.46.21.4.56.66.95.8.14.04.28.08.43.08a1.752 1.752 0 0 0 1.72-2.08c0-.01-.03-.2-.05-.51-.08-1-.06-3.23 1.29-4.97 1.21-1.55 3.28-2.43 6.16-2.6.32-.02.62-.13.87-.31.52-.28.89-.81.92-1.45.04-.96-.7-1.78-1.67-1.83" fill="#43a9ff"/></svg>