<svg xmlns="http://www.w3.org/2000/svg" width="80.66" height="76.98"><style>.st0{fill:#43a9ff}</style><path class="st0" d="M25.34 4.1a2.01 2.01 0 1 0 0-4.02 2.01 2.01 0 0 0 0 4.02M4.35 12.09a2.01 2.01 0 1 0 0-4.02 2.01 2.01 0 0 0 0 4.02m59 20.48a2.01 2.01 0 1 0 0 4.02 2.01 2.01 0 0 0 0-4.02M2 62.71c-1.1 0-2 .9-2 2.01 0 1.11.9 2.01 2 2.01a2.01 2.01 0 0 0 0-4.02m77.53-11.57l.62-.62a1.75 1.75 0 0 0-2.47-2.48l-.63.63-.62-.63c-.68-.68-1.79-.68-2.48 0-.68.69-.68 1.79 0 2.48l.63.62-.63.63a1.75 1.75 0 0 0 0 2.47c.35.34.8.51 1.24.51.45 0 .9-.17 1.24-.51l.62-.62.63.62a1.748 1.748 0 0 0 2.47 0c.69-.68.69-1.79 0-2.48zM20.84 21.58a2.01 2.01 0 1 0 0-4.02 2.01 2.01 0 0 0 0 4.02m46-11.5l-1.99 1.99c-.68.69-.68 1.79 0 2.48a1.748 1.748 0 0 0 2.47 0l2-2 1.99 2a1.748 1.748 0 0 0 2.47 0c.69-.69.69-1.79 0-2.48l-1.99-1.99 1.99-1.99a1.75 1.75 0 0 0-2.47-2.48L69.32 7.6l-2-1.99a1.75 1.75 0 0 0-2.47 0c-.68.69-.68 1.79 0 2.48z"/><path class="st0" d="M62.48 12.09a2.01 2.01 0 1 0 0-4.02 2.01 2.01 0 0 0 0 4.02m13.62 0a2.01 2.01 0 0 0 0-4.02c-1.1 0-2.01.9-2.01 2.01 0 1.11.91 2.01 2.01 2.01m-6.78 2.82a2.01 2.01 0 1 0 0 4.02 2.01 2.01 0 0 0 0-4.02m0-9.66a2.01 2.01 0 1 0 0-4.02 2.01 2.01 0 0 0 0 4.02M9.91 35.56c.71 0 1.27.57 1.27 1.27a1.265 1.265 0 1 1-2.53 0c0-.7.57-1.27 1.26-1.27m-1.67 8.19c0 .96.78 1.75 1.75 1.75.96 0 1.75-.79 1.75-1.75v-2.52a4.733 4.733 0 0 0 2.6-2.65h2.56c.97 0 1.75-.79 1.75-1.75 0-.97-.78-1.75-1.75-1.75h-2.56a4.78 4.78 0 0 0-2.6-2.66v-2.51c0-.97-.79-1.75-1.75-1.75-.97 0-1.75.78-1.75 1.75v2.47a4.723 4.723 0 0 0-2.75 2.7H3.07c-.97 0-1.75.78-1.75 1.75 0 .96.78 1.75 1.75 1.75h2.42a4.78 4.78 0 0 0 2.75 2.7zm44.1 28.81V55.88h10v17.51c-3.24.28-6.67-.1-10-.83m-33.21-4.85V55.88h9.9v11.41c-3.66-.15-7.03.06-9.9.42m24.38-8.37h-6c-.97 0-1.75.78-1.75 1.75v6.89c-1.1-.18-2.17-.32-3.23-.44V55.88h16.31v15.78a57.77 57.77 0 0 1-3.58-1.15v-9.42c0-.97-.78-1.75-1.75-1.75m-1.75 10.01c-.84-.25-1.67-.47-2.5-.66v-5.85h2.5zm7.08 51.97H32.53v8.04h16.31zm-13.15-13.31h9.58v9.81h-9.58zm8.57-80.49h-7.59l3.8-8.11zm28.76 41.05c-2 2.17-4.47 3.51-7.18 4.22V54.13c0-.97-.79-1.75-1.75-1.75H52.34v-9.8c0-.97-.78-1.75-1.75-1.75h-1.82V29.27c0-.28-.07-.55-.2-.79v-.01l-6.42-13.73-.01-.01V9.06h2.09c.96 0 1.75-.78 1.75-1.75s-.79-1.75-1.75-1.75h-2.09V1.74c0-.96-.78-1.74-1.75-1.74s-1.75.78-1.75 1.74v3.82h-2.08c-.97 0-1.75.78-1.75 1.75s.78 1.75 1.75 1.75h2.08v5.68c0 .09.01.18.03.26l-6.3 13.47c-.06.13-.1.26-.13.39s-.05.27-.05.41v11.56h-1.41c-.97 0-1.75.78-1.75 1.75v9.8H17.38c-.97 0-1.75.78-1.75 1.75v14.13c-3.79.7-6.19 1.53-6.44 1.62-.92.33-1.39 1.33-1.07 2.24.32.91 1.33 1.38 2.24 1.06.16-.06 16.39-5.68 33.17.43 6.2 2.25 11.77 3.37 16.63 3.37 6.5 0 11.73-2.02 15.44-6.03.65-.71.61-1.82-.1-2.48-.71-.65-1.82-.61-2.48.1"/><path class="st0" d="M40.46 33.17a2.72 2.72 0 0 0-2.71 2.72c0 1.49 1.22 2.71 2.71 2.71 1.5 0 2.71-1.22 2.71-2.71 0-1.5-1.21-2.72-2.71-2.72"/></svg>