<svg xmlns="http://www.w3.org/2000/svg" width="83.52" height="74.52"><style>.st0{fill:#43a9ff}</style><path class="st0" d="M82.54 7.96l-2.46-1.21 1.02-2.84c.32-.91-.15-1.92-1.06-2.24-.91-.33-1.91.14-2.24 1.05l-1.23 3.44-24.63 6.58L57.62 2.6c.47-.84.17-1.91-.67-2.38-.84-.46-1.91-.17-2.38.67l-7.28 13c-.02.04-.03.07-.05.1l-15.58 4.17L37.29 8.1c.47-.84.17-1.91-.67-2.38-.85-.47-1.91-.17-2.39.67L26.95 19.4s0 .01-.01.02l-15.55 4.15 5.66-10.1c.47-.84.17-1.91-.67-2.38-.85-.47-1.91-.17-2.39.67L6.71 24.77l-.03.06-5.39 1.44c-.93.25-1.47 1.21-1.23 2.15.2.78.91 1.29 1.68 1.29.15 0 .31-.02.46-.06l19.32-5.16v16.07c0 .96.78 1.75 1.75 1.75.96 0 1.75-.79 1.75-1.75v-17l7.67-2.05c.08.06.16.13.25.18l12.8 7.64c.28.17.59.25.89.25.6 0 1.18-.31 1.51-.86.49-.83.22-1.9-.61-2.4l-10.16-6.06 14.84-3.97v11.17c0 .97.79 1.75 1.75 1.75.97 0 1.75-.78 1.75-1.75V15.35l3.12-.83 12.24 7.31c.28.16.59.24.9.24.59 0 1.17-.3 1.5-.85.49-.83.22-1.9-.61-2.4l-9.31-5.56 14.14-3.78 3.32 1.62c.24.12.51.18.76.18.65 0 1.27-.36 1.58-.98.42-.87.06-1.92-.81-2.34M23.96 71.02c-4.38 0-7.95-3.57-7.95-7.94 0-4.38 3.57-7.95 7.95-7.95 4.38 0 7.94 3.57 7.94 7.95 0 4.37-3.56 7.94-7.94 7.94m0-19.39c-6.31 0-11.45 5.14-11.45 11.45 0 6.3 5.14 11.44 11.45 11.44S35.4 69.38 35.4 63.08c0-6.31-5.13-11.45-11.44-11.45"/><path class="st0" d="M22.97 57.02c-1.56 0-2.9.53-3.87 1.53-1.71 1.75-1.69 4.29-1.68 4.57.03.95.8 1.7 1.75 1.7h.03c.96-.02 1.73-.82 1.72-1.78-.01-.37.11-1.47.69-2.06.2-.2.55-.46 1.36-.46.97 0 1.75-.79 1.75-1.75 0-.97-.78-1.75-1.75-1.75m1.43-6.38c.97 0 1.75-.78 1.75-1.75v-2.21a2.89 2.89 0 0 0-2.88-2.89c-1.59 0-2.89 1.3-2.89 2.89v2.21c0 .97.78 1.75 1.75 1.75zm29.56 17.49c-6.4 0-11.6-5.2-11.6-11.6 0-6.4 5.2-11.61 11.6-11.61 6.4 0 11.61 5.21 11.61 11.61 0 6.4-5.21 11.6-11.61 11.6m0-26.71c-8.33 0-15.1 6.78-15.1 15.11 0 8.33 6.77 15.1 15.1 15.1s15.11-6.77 15.11-15.1-6.78-15.11-15.11-15.11"/><path class="st0" d="M52.61 48.84c-1.97 0-3.66.66-4.87 1.91-2.16 2.22-2.13 5.46-2.12 5.82.02.96.8 1.71 1.75 1.71h.04c.97-.03 1.73-.84 1.71-1.8-.01-.02-.01-2.12 1.13-3.29.55-.57 1.33-.85 2.36-.85.96 0 1.75-.78 1.75-1.75s-.79-1.75-1.75-1.75m2.92-10.1c.97 0 1.75-.79 1.75-1.75v-3.05c0-1.83-1.49-3.32-3.32-3.32-1.83 0-3.31 1.49-3.31 3.32v3.05c0 .96.78 1.75 1.75 1.75z"/></svg>