<svg xmlns="http://www.w3.org/2000/svg" width="73.31" height="73.12"><style>.st0{fill:#f7f8fb}</style><path class="st0" d="M40.78 38.31h7.14c-.29 1.86-1.03 3.58-2.1 5.03zm-2.47 9.53v-7.06l5.02 5.02a11.302 11.302 0 0 1-5.02 2.04m-3.5-7.06v7.03c-1.83-.3-3.51-1.03-4.94-2.09zm-9.42-2.47h6.94l-4.92 4.92c-1.04-1.43-1.74-3.1-2.02-4.92m6.94-3.5h-6.94c.28-1.82.98-3.49 2.02-4.92zm2.48-9.51v7.03l-4.94-4.93a11.38 11.38 0 0 1 4.94-2.1m3.5 7.03v-7.06c1.85.28 3.56.99 5.02 2.04zm9.61 2.48h-7.14l5.04-5.03c1.07 1.45 1.81 3.16 2.1 5.03m18.13 3.5h5.32c.97 0 1.75-.78 1.75-1.75s-.78-1.75-1.75-1.75h-5.54l6.91-6.23c.71-.65.77-1.76.12-2.48-.65-.71-1.75-.77-2.47-.12l-9.74 8.79c-.03.01-.07.02-.1.04h-4.63l6.9-6.23c.72-.65.77-1.76.13-2.48-.65-.71-1.76-.77-2.48-.12l-9.1 8.22a14.85 14.85 0 0 0-3.06-6.92l5.73-5.73c.68-.68.68-1.79 0-2.47-.68-.69-1.79-.69-2.47 0l-5.75 5.74c-1.96-1.54-4.3-2.58-6.87-2.98l8.12-8.99a1.752 1.752 0 1 0-2.6-2.35l-6.16 6.83v-4.69l8.76-9.71c.65-.72.59-1.82-.12-2.47-.72-.64-1.83-.58-2.48.12l-6.16 6.83V1.75c0-.97-.79-1.75-1.75-1.75-.97 0-1.75.78-1.75 1.75v5.6L28.7.58a1.77 1.77 0 0 0-2.47-.12c-.72.65-.78 1.75-.13 2.47l8.71 9.64v4.7L28.7 10.5c-.65-.71-1.75-.77-2.47-.12-.72.64-.78 1.75-.13 2.47l8.14 9c-2.57.43-4.92 1.49-6.87 3.05l-5.82-5.82a1.75 1.75 0 0 0-2.48 2.47l5.84 5.84a14.796 14.796 0 0 0-2.82 5.99l-8.2-7.4c-.71-.65-1.82-.59-2.47.12-.64.72-.59 1.83.13 2.48l6.9 6.23h-4.63a.69.69 0 0 0-.1-.04l-9.74-8.79c-.72-.65-1.82-.59-2.47.12-.65.72-.59 1.83.12 2.48l6.91 6.23h-6.8c-.96 0-1.74.78-1.74 1.75s.78 1.75 1.74 1.75h6.58l-6.69 6.04c-.71.65-.77 1.75-.12 2.47a1.747 1.747 0 0 0 2.47.13l9.56-8.64h4.7l-6.69 6.04c-.72.65-.77 1.75-.13 2.47.35.38.82.58 1.3.58.42 0 .84-.15 1.17-.45l8.16-7.36a14.77 14.77 0 0 0 2.86 6.14l-5.84 5.84a1.75 1.75 0 0 0 0 2.47c.34.35.79.52 1.24.52.45 0 .9-.17 1.24-.52l5.82-5.82c1.89 1.5 4.15 2.56 6.62 3l-7.89 8.74c-.65.71-.59 1.82.13 2.47.33.3.75.45 1.17.45.48 0 .95-.19 1.3-.58l6.11-6.76v4.69l-8.71 9.64c-.65.72-.59 1.83.13 2.47.33.31.75.46 1.17.46.48 0 .95-.2 1.3-.58l6.11-6.76v5.91c0 .97.78 1.75 1.75 1.75.96 0 1.75-.78 1.75-1.75v-5.98l6.16 6.83c.35.38.83.58 1.3.58.42 0 .84-.15 1.18-.46.71-.64.77-1.75.12-2.47l-8.76-9.7v-4.7l6.16 6.83c.35.39.83.58 1.3.58.42 0 .84-.15 1.18-.45.71-.65.77-1.76.12-2.47l-7.87-8.72c2.47-.43 4.73-1.46 6.62-2.94l5.75 5.74c.34.34.79.52 1.23.52.45 0 .9-.18 1.24-.52.68-.68.68-1.79 0-2.47l-5.73-5.73c1.6-2.01 2.69-4.44 3.08-7.09l9.08 8.2c.34.3.76.45 1.18.45.47 0 .95-.2 1.3-.58.64-.72.59-1.82-.13-2.47l-6.69-6.04h4.69l9.57 8.64a1.747 1.747 0 0 0 2.47-.13c.65-.72.59-1.82-.12-2.47z"/><path class="st0" d="M12.03 8.65a3.67 3.67 0 0 1 3.66 3.67c0 2.02-1.64 3.66-3.66 3.66a3.67 3.67 0 0 1-3.67-3.66c0-2.02 1.65-3.67 3.67-3.67m0 10.83c3.95 0 7.16-3.21 7.16-7.16s-3.21-7.17-7.16-7.17-7.17 3.22-7.17 7.17c0 3.95 3.22 7.16 7.17 7.16M61.28 8.65c2.02 0 3.67 1.65 3.67 3.67a3.67 3.67 0 0 1-7.34 0c0-2.02 1.65-3.67 3.67-3.67m0 10.83c3.95 0 7.17-3.21 7.17-7.16s-3.22-7.17-7.17-7.17c-3.95 0-7.17 3.22-7.17 7.17 0 3.95 3.22 7.16 7.17 7.16M12.03 64.46a3.67 3.67 0 0 1-3.67-3.66c0-2.02 1.65-3.67 3.67-3.67a3.67 3.67 0 0 1 3.66 3.67c0 2.02-1.64 3.66-3.66 3.66m0-10.83c-3.95 0-7.17 3.22-7.17 7.17 0 3.95 3.22 7.16 7.17 7.16 3.95 0 7.16-3.21 7.16-7.16s-3.21-7.17-7.16-7.17m49.25 10.83a3.67 3.67 0 0 1-3.67-3.66c0-2.02 1.65-3.67 3.67-3.67s3.67 1.65 3.67 3.67a3.67 3.67 0 0 1-3.67 3.66m0-10.83c-3.95 0-7.17 3.22-7.17 7.17 0 3.95 3.22 7.16 7.17 7.16 3.95 0 7.17-3.21 7.17-7.16s-3.22-7.17-7.17-7.17"/></svg>