<svg xmlns="http://www.w3.org/2000/svg" width="77.25" height="77.25"><path d="M50.91 44.08c-2.13 0-3.82-.5-5.29-1.31l-4.23-4.24c1.17-1.04 2.31-2.17 3.3-3.48 1.67-1.16 3.62-1.89 6.22-1.89 4.76 0 7.34 2.43 9.99 5.46-2.65 3.03-5.23 5.46-9.99 5.46M38.62 60.9c-3.03-2.65-5.46-5.23-5.46-9.99 0-2.6.73-4.55 1.89-6.22 1.34-1.01 2.5-2.2 3.57-3.4 1.07 1.2 2.23 2.38 3.57 3.4 1.16 1.67 1.89 3.62 1.89 6.22 0 4.76-2.43 7.34-5.46 9.99M26.33 44.08c-4.76 0-7.34-2.43-9.99-5.46 2.65-3.03 5.23-5.46 9.99-5.46 2.6 0 4.55.73 6.22 1.88.95 1.28 2.06 2.38 3.2 3.41l-4.54 4.54c-1.37.68-2.94 1.09-4.88 1.09m6.83-17.75c0-4.76 2.43-7.34 5.46-9.99 3.03 2.64 5.46 5.23 5.46 9.99 0 1.94-.41 3.51-1.1 4.88l-4.45 4.46-4.06-4.06c-.82-1.46-1.31-3.15-1.31-5.28M75.5 44.08c-4.76 0-7.35-2.43-9.99-5.46 2.64-3.03 5.23-5.46 9.99-5.46.96 0 1.75-.78 1.75-1.75 0-.96-.79-1.75-1.75-1.75-6 0-9.45 3.09-12.3 6.29-2.84-3.2-6.3-6.29-12.29-6.29-.52 0-1.02.03-1.5.08l7.24-7.24 6.6 6.6c.35.34.79.52 1.24.52.45 0 .9-.18 1.24-.52.68-.68.68-1.79 0-2.47l-6.61-6.61 7.27-7.27c.69-.68.69-1.79 0-2.47a1.75 1.75 0 0 0-2.47 0l-7.27 7.27-6.61-6.6c-.68-.69-1.79-.69-2.47 0a1.75 1.75 0 0 0 0 2.47l6.6 6.6-6.61 6.61c.01-.1.02-.2.02-.3 0-5.99-3.09-9.45-6.29-12.29 3.2-2.85 6.29-6.3 6.29-12.3 0-.96-.79-1.74-1.75-1.74-.97 0-1.75.78-1.75 1.74 0 4.76-2.43 7.35-5.46 9.99-3.03-2.64-5.46-5.23-5.46-9.99 0-.96-.78-1.74-1.75-1.74-.96 0-1.75.78-1.75 1.74 0 6 3.09 9.45 6.29 12.3-3.2 2.84-6.29 6.3-6.29 12.29 0 .17.02.33.02.5l-6.8-6.8 6.6-6.61c.69-.68.69-1.79 0-2.47-.68-.69-1.79-.69-2.47 0l-6.6 6.6-7.27-7.27c-.69-.68-1.8-.68-2.48 0-.68.68-.68 1.79 0 2.48l7.27 7.27-6.6 6.6c-.69.68-.69 1.79 0 2.47.34.34.79.52 1.23.52.45 0 .9-.18 1.24-.52l6.6-6.6 7.22 7.21c-.42-.03-.85-.05-1.29-.05-5.99 0-9.45 3.09-12.29 6.29-2.85-3.2-6.3-6.29-12.29-6.29-.97 0-1.75.79-1.75 1.75 0 .97.78 1.75 1.75 1.75 4.75 0 7.34 2.43 9.98 5.46-2.64 3.03-5.23 5.46-9.98 5.46-.97 0-1.75.78-1.75 1.75 0 .96.78 1.75 1.75 1.75 5.99 0 9.44-3.09 12.29-6.29 2.84 3.2 6.3 6.29 12.29 6.29.1 0 .2-.01.3-.01l-6.23 6.22-6.6-6.6a1.75 1.75 0 0 0-2.47 0c-.69.68-.69 1.79 0 2.48l6.6 6.6-7.27 7.27a1.75 1.75 0 0 0 0 2.47c.34.35.79.52 1.24.52.44 0 .89-.17 1.23-.52l7.27-7.27 6.61 6.61a1.748 1.748 0 0 0 2.47 0c.69-.68.69-1.79 0-2.48l-6.6-6.6 6.86-6.86c-.05.48-.08.98-.08 1.5 0 5.99 3.09 9.45 6.29 12.29-3.2 2.85-6.29 6.3-6.29 12.29 0 .97.79 1.75 1.75 1.75.97 0 1.75-.78 1.75-1.75 0-4.75 2.43-7.34 5.46-9.98 3.03 2.64 5.46 5.23 5.46 9.98 0 .97.78 1.75 1.75 1.75.96 0 1.75-.78 1.75-1.75 0-5.99-3.09-9.44-6.29-12.29 3.2-2.84 6.29-6.3 6.29-12.29 0-.44-.02-.87-.05-1.29l6.65 6.65-6.61 6.6c-.68.69-.68 1.8 0 2.48a1.765 1.765 0 0 0 2.48 0l6.6-6.6 7.27 7.26c.34.35.79.52 1.24.52.45 0 .89-.17 1.23-.51.69-.69.69-1.8.01-2.48l-7.28-7.27 6.61-6.6c.68-.69.68-1.8 0-2.48-.68-.68-1.79-.68-2.48 0l-6.6 6.61-6.24-6.24c.17 0 .33.02.5.02 5.99 0 9.45-3.09 12.29-6.29 2.85 3.2 6.3 6.29 12.3 6.29.96 0 1.75-.79 1.75-1.75 0-.97-.79-1.75-1.75-1.75" fill="#f7f8fb"/></svg>