<svg xmlns="http://www.w3.org/2000/svg" viewBox="0 0 537.865 64.91"><path d="M370.137 12.501L382.712 0h-17.587l-11.888 12.501zM119.275 32.835c1.843-1.846 3.253-4.046 4.228-6.601l.01-.03H74.99v12.502h28.486c3.368 0 6.38-.517 9.039-1.551 2.658-1.033 4.912-2.473 6.759-4.32zm236.858-6.63h-29.51v12.5h38.596zm2.159 26.205l8.736 12.5h17.236l-9.086-12.5zM123.833 12.501c-.04-.132-.065-.276-.107-.406-.829-2.57-2.084-4.755-3.767-6.557-1.684-1.801-3.803-3.175-6.355-4.12C111.048.473 108.043 0 104.587 0H74.99v12.501h48.842zm18.818 39.909v12.5h21.316c.62 0 1.588-.03 2.903-.088 1.315-.059 2.761-.273 4.342-.643 1.58-.369 3.204-.944 4.873-1.728 1.67-.782 3.19-1.905 4.566-3.367 1.371-1.462 2.502-3.315 3.388-5.56.139-.352.247-.738.364-1.115h-41.752zm0-13.704V26.205h21.316c.62 0 1.588.029 2.903.088s2.761.273 4.342.643c1.58.368 3.204.944 4.873 1.727 1.67.783 3.19 1.906 4.566 3.368 1.371 1.462 2.502 3.315 3.388 5.56.139.351.247.738.364 1.115h-41.752zM43.514 12.501L56.09 0H38.503L26.615 12.501zM29.51 26.205H0v12.5h38.596zm2.16 26.205l8.736 12.5h17.236l-9.086-12.5zM0 0h17.233v12.501H0zm0 52.409h17.233V64.91H0zm74.991 0h17.233V64.91H74.991zM142.651 0h17.233v12.501h-17.233zm52.644 0h17.233v12.501h-17.233zm0 26.205h17.233v12.501h-17.233zm0 26.204h17.233V64.91h-17.233zm39.896 0h17.233V64.91h-17.233zm52.939 0h17.233V64.91H288.13zM326.622 0h17.233v12.501h-17.233zm0 52.409h17.233V64.91h-17.233zm141.072 0h17.233V64.91h-17.233zm52.939 0h17.233V64.91h-17.233zM259.836 26.205h-24.645v12.5h28.816zm.658 26.205l4.193 12.5h11.178l4.194-12.5zM251.019 0H235.19v12.501h20zm25.385 38.706h28.959V26.205h-24.787zM289.394 0l-4.172 12.501h20.14V0zm202.945 26.205h-24.645v12.5h28.816zM483.521 0h-15.827v12.501h19.999zm9.475 52.41l4.193 12.5h11.178l4.194-12.5zM521.896 0l-4.172 12.501h20.141V0zm-12.989 38.706h28.958V26.205H513.08zm-63.713-26.314a27.67 27.67 0 00-2.32-3.04c-2.574-2.91-5.7-5.194-9.384-6.853C429.806.841 425.674.011 421.093.011c-4.976 0-9.334.83-13.072 2.488-3.738 1.659-6.844 3.943-9.317 6.852-.81.953-1.545 1.97-2.218 3.041h48.708zM396.37 52.3c.712 1.143 1.471 2.245 2.334 3.259 2.473 2.91 5.58 5.194 9.317 6.852 3.738 1.658 8.096 2.488 13.072 2.488 4.58 0 8.713-.83 12.397-2.488 3.683-1.658 6.81-3.943 9.384-6.852.896-1.014 1.692-2.116 2.443-3.259H396.37zm13.238-26.204h-17.91a46.948 46.948 0 00.003 12.501h17.906V26.096zm40.776 0H432.55v12.5h17.848c.3-2.016.466-4.095.466-6.25 0-2.161-.171-4.24-.479-6.25z" fill="#ff8901"/></svg>
