<?xml version="1.0" encoding="utf-8"?>
<!-- Generator: Adobe Illustrator 22.1.0, SVG Export Plug-In . SVG Version: 6.00 Build 0)  -->
<svg version="1.1" id="Capa_1" xmlns="http://www.w3.org/2000/svg" xmlns:xlink="http://www.w3.org/1999/xlink" x="0px" y="0px"
	 viewBox="0 0 26.6 36.4" style="enable-background:new 0 0 26.6 36.4;" xml:space="preserve">
<g>
	<g id="Phone_x5F_2">
		<g>
			<path d="M4.2,0.5L3.1,1.2C1.8,2,0.8,3.4,0.3,5.3C-0.8,9.9,1,16.8,4.9,23.5c5.8,9.6,14,15,18.8,12.1l1.1-0.7
				c0.8-0.5,1.4-1.3,1.6-2.2c0.2-0.9,0.1-1.9-0.4-2.7l-2.6-4.4c-1-1.7-3.2-2.2-4.9-1.2l-1.1,0.7c-1.2,0.7-3.5-0.3-6.5-5.3
				c-2.5-4.2-2.6-6.3-2.3-7.2c0.1-0.5,0.3-0.8,0.7-1l1.1-0.7c1.6-1,2.2-3.3,1.2-4.9L9.1,1.7C8.6,0.9,7.8,0.3,6.9,0.1
				C6-0.1,5,0,4.2,0.5z M7.3,2.8l2.6,4.4c0.4,0.7,0.2,1.7-0.5,2.1L8.3,9.9c-0.8,0.5-1.4,1.3-1.6,2.2c-0.5,2.1,0.3,5,2.6,8.7
				c4.6,7.7,8,6.8,9.2,6l1.1-0.7c0.7-0.4,1.7-0.2,2.1,0.5l2.6,4.4c0.4,0.7,0.2,1.7-0.5,2.1l-1.1,0.7c-3.7,2.2-11-3-16-11.4
				C3,16.3,1.3,9.8,2.3,5.7c0.3-1.4,1-2.3,1.8-2.8l1.1-0.7C5.6,2,6,2,6.4,2.1C6.8,2.2,7.1,2.4,7.3,2.8z"/>
		</g>
	</g>
</g>
</svg>
