<?xml version="1.0" encoding="utf-8"?>
<!-- Generator: Adobe Illustrator 22.1.0, SVG Export Plug-In . SVG Version: 6.00 Build 0)  -->
<svg version="1.1" id="Layer_1" xmlns="http://www.w3.org/2000/svg" xmlns:xlink="http://www.w3.org/1999/xlink" x="0px" y="0px"
	 viewBox="0 0 48.2 27.7" style="enable-background:new 0 0 48.2 27.7;" xml:space="preserve">
<style type="text/css">
	.st0{fill:#FFFFFF;}
</style>
<path class="st0" d="M0.5,4.2C0.1,3.1-0.5,2,0.8,1.4c2.5,0,5-0.1,7.5-0.1c1.1,0,1.6,0.8,2.2,1.9c1.7,3.2,3.4,6.5,5.5,9.4
	c0.7,1,1.8,1.3,2.8-0.2c0.1-2.1,0.2-4.2,0.3-6.2c-0.3-2.4-1.2-3.9-2.7-4c-0.8-0.8-0.2-1.5,1.7-1.9c3-0.6,5.6-0.4,7.9-0.1
	c1.9,0.1,2.2,1.4,2.2,2.9C28.1,6,28,8.8,28,11.6c0.6,2.8,2.1,1.7,3.1,0.5c1.8-2.6,3.4-5.1,4.7-7.9c1.4-2.9,1.7-2.7,2.7-2.7
	c2.3,0,4.8-0.1,6.6-0.1c3.8-0.2,3.4,1.5,2.3,3.3c-1.9,3.1-4.2,5.9-6.4,8.9c-1.3,1.7-1.3,2.8,0.1,3.8c2,2.2,4.2,4.3,6,6.7
	c2,2.6,0.5,3.3-1.3,3.5c-2.2,0-4.4,0-6.7,0c-1.9,0-3.6-0.4-4.8-2.5c-2.8-3.7-4.9-4.7-5.7-2.6c-0.4,0.9-0.7,2.1-0.7,3.3
	c0,1.7-1,1.8-2.4,1.8c-1.5,0-3,0.4-4.4,0c-5-1.3-9.8-3.6-14.5-11.7C4.7,12.4,2.6,8.6,0.5,4.2L0.5,4.2z"/>
</svg>
