<?xml version="1.0" encoding="utf-8"?>
<!-- Generator: Adobe Illustrator 22.1.0, SVG Export Plug-In . SVG Version: 6.00 Build 0)  -->
<svg version="1.1" id="Capa_1" xmlns="http://www.w3.org/2000/svg" xmlns:xlink="http://www.w3.org/1999/xlink" x="0px" y="0px"
	 viewBox="0 0 512 512" style="enable-background:new 0 0 512 512;" xml:space="preserve">
<g>
	<g>
		<path d="M504.5,404.5h-52.2v-21.7c0-6.9-5.6-12.5-12.5-12.5h-1.1v-20.9h2.5c6.6,0,12.3-5.2,12.9-11.8l2-21.2
			c5.9-1.6,10.3-7.1,10.3-13.5v-23.3c0.2-0.3,0.5-0.6,0.7-1c7-12.1,27.7-55.2-0.8-100.9c-7.1-11.3-13.2-23-18.2-34.6
			c-1.6-3.8-6-5.6-9.9-3.9c-3.8,1.6-5.6,6-3.9,9.9c1.6,3.7,3.3,7.3,5,11c-1,0-1.9,0-2.9,0c-51,0-92.7,41-94.5,92
			c-8.1-3-16.8-4.5-26.1-4.5c-29.3,0-55.7,15.7-63.2,20.6H226c-4.1,0-7.5,3.4-7.5,7.5s3.4,7.5,7.5,7.5h29c1.6,0,3.1-0.5,4.4-1.4
			c0.3-0.2,27.2-19.2,56.5-19.2c16.8,0,31.4,6.2,43.5,18.3c1.4,1.4,3.3,2.2,5.3,2.2h86.7v18.9H360c-14.4-13.6-30.7-20.6-48.5-20.6
			c-26.2,0-47.7,15.4-54.1,20.6H39.9c1.4-6.5,3.2-12.9,5.4-18.9H188c4.1,0,7.5-3.4,7.5-7.5s-3.4-7.5-7.5-7.5h-28.3
			c3.7-14.8,4.9-33.5-2.1-53.6c25.7-6.4,74.8-19.7,110.4-39.7c37.3-20.8,71.6-50.6,104.7-90.7l46.8,14.7c0.5,3.6,1.5,9.1,3.2,16.1
			c1,4,5.1,6.5,9.1,5.5c4-1,6.5-5.1,5.5-9.1c-1.7-6.7-2.5-11.9-3-15.1c-0.7-5.4-4.5-9.9-9.7-11.5l-41.9-13.1
			c0.6-0.7,1.1-1.4,1.7-2.1c1.5-2,2-4.5,1.2-6.9c-0.8-2.4-2.6-4.2-5-4.9L341.4,46c-1.3-0.4-2.7-0.6-4.1-0.6l-0.2,0
			c-4.8,0.1-9.3,2.6-11.9,6.6c-6,9.2-11.9,17.8-17.8,25.9c-3.4-1.8-7.6-0.8-9.7,2.5c-2,3-1.6,6.9,0.8,9.4c-4.8,6.2-9.5,12-14.2,17.5
			l-1.4-0.9c-3.5-2.2-8.1-1.3-10.4,2.2c-2.1,3.3-1.3,7.7,1.7,10c-5.4,5.8-10.7,11.3-15.9,16.3l-3.6-2c-3.6-2-8.2-0.8-10.2,2.8
			c-1.9,3.4-0.9,7.7,2.3,9.9c-24.6,21.7-47,35-65.9,44.1c-20.1,8.7-38.6,13.8-55.2,18.4c-29.3,8.1-52.5,14.6-71.2,33.4
			c-6.4,6.5-12.1,14.4-16.8,23.6c-0.9,1.8-1.4,3.8-1.5,5.8c-2.1,1.6-3.7,3.7-4.6,6.2c-2.7,7.3-4.9,15-6.6,22.9
			c-0.8,4.1,0.2,8.4,2.8,11.7c2.7,3.3,6.6,5.2,10.8,5.2h3.5V343c0,25.2,12.1,47.5,30.8,61.5H7.5c-4.1,0-7.5,3.4-7.5,7.5
			s3.4,7.5,7.5,7.5h497c4.1,0,7.5-3.4,7.5-7.5C512,407.9,508.6,404.5,504.5,404.5z M367.7,268L367.7,268c-3.4-3.2-7-6-10.7-8.5
			c-0.1-1.4-0.1-2.9-0.1-4.2c0-44.3,35.7-80.4,79.5-80.4c3.7,0,7.4,0.3,11.2,0.8c1.9,3.3,3.9,6.6,5.9,9.9
			c22.4,35.7,8.9,69.8,2.1,82.8c-1-0.2-2-0.4-3.1-0.4H367.7z M337.5,60.5l28.1,8.3c-8.9,11.2-17.8,21.3-26.5,30.4l-19.4-13
			C325.7,78.2,331.6,69.7,337.5,60.5z M310.8,98.3l17.6,11.8c-5.5,5.4-11,10.4-16.4,15.1l-15.1-9.8
			C301.5,110,306.1,104.3,310.8,98.3z M286.9,126.8l13,8.4c-6,4.8-12,9.1-17.8,13.1l-10.3-5.8C276.8,137.7,281.8,132.4,286.9,126.8z
			 M260.5,153.4l7.4,4.2c-11.3,6.8-22.3,12.3-32.9,16.8C243.2,168.3,251.7,161.3,260.5,153.4z M65.1,252.1
			c15.9-16,37.3-22,64.6-29.5c3.7-1,7.5-2.1,11.3-3.2c0,0,0.1,0,0.1,0c0.7-0.2,1.3-0.4,2-0.6c6.6,18.7,4.8,36.1,1,49.3h-91
			C56.7,261.9,60.7,256.5,65.1,252.1z M441,316.9l-1.7,17.5h-54.9l-3.9-17.5H441z M423.7,349.4v20.9h-18.9v-20.9H423.7z
			 M195.9,316.9h18.9v53.4h-18.9V316.9z M180.9,316.9v53.4h-63.1c-14.9,0-26.9-12.2-26.9-27.3v-26.2H180.9z M437.3,404.5H117.9
			c-33.5,0-60.8-27.6-60.8-61.5v-26.2h18.9V343c0,23.3,18.8,42.3,41.9,42.3H340c4.1,0,7.5-3.4,7.5-7.5s-3.4-7.5-7.5-7.5H229.8v-53.4
			h27.9c3.2,0,6.3-1.1,8.8-3.1c5-4.1,23.2-17.4,44.9-17.4c13.9,0,26.9,5.6,38.5,16.7c2.6,2.5,6,3.9,9.6,3.9h5.6l4.8,21.7
			c1.4,6.1,7.1,10.8,13.4,10.8h6.4v20.9H377c-4.1,0-7.5,3.4-7.5,7.5s3.4,7.5,7.5,7.5h60.3V404.5z"/>
	</g>
</g>
<g>
	<g>
		<path d="M227.6,451.6H76.9c-4.1,0-7.5,3.4-7.5,7.5s3.4,7.5,7.5,7.5h150.7c4.1,0,7.5-3.4,7.5-7.5
			C235.1,454.9,231.7,451.6,227.6,451.6z"/>
	</g>
</g>
<g>
	<g>
		<path d="M450.3,451.6H299.6c-4.1,0-7.5,3.4-7.5,7.5s3.4,7.5,7.5,7.5h150.7c4.1,0,7.5-3.4,7.5-7.5
			C457.8,454.9,454.4,451.6,450.3,451.6z"/>
	</g>
</g>
<g>
	<g>
		<path d="M382.4,107.3c-1.4-1.4-3.3-2.2-5.3-2.2c-2,0-3.9,0.8-5.3,2.2c-1.4,1.4-2.2,3.3-2.2,5.3s0.8,3.9,2.2,5.3
			c1.4,1.4,3.3,2.2,5.3,2.2c2,0,3.9-0.8,5.3-2.2c1.4-1.4,2.2-3.3,2.2-5.3S383.8,108.7,382.4,107.3z"/>
	</g>
</g>
<g>
	<g>
		<path d="M349.6,135.3c-1.4-1.4-3.3-2.2-5.3-2.2s-3.9,0.8-5.3,2.2c-1.4,1.4-2.2,3.3-2.2,5.3s0.8,3.9,2.2,5.3
			c1.4,1.4,3.3,2.2,5.3,2.2c2,0,3.9-0.8,5.3-2.2c1.4-1.4,2.2-3.3,2.2-5.3C351.8,138.7,351,136.7,349.6,135.3z"/>
	</g>
</g>
<g>
	<g>
		<path d="M316.8,163.3c-1.4-1.4-3.3-2.2-5.3-2.2c-2,0-3.9,0.8-5.3,2.2s-2.2,3.3-2.2,5.3c0,2,0.8,3.9,2.2,5.3
			c1.4,1.4,3.3,2.2,5.3,2.2c2,0,3.9-0.8,5.3-2.2c1.4-1.4,2.2-3.3,2.2-5.3C319,166.7,318.2,164.8,316.8,163.3z"/>
	</g>
</g>
<g>
	<g>
		<path d="M284,186.3c-1.4-1.4-3.3-2.2-5.3-2.2c-2,0-3.9,0.8-5.3,2.2c-1.4,1.4-2.2,3.3-2.2,5.3c0,2,0.8,3.9,2.2,5.3
			c1.4,1.4,3.3,2.2,5.3,2.2c2,0,3.9-0.8,5.3-2.2c1.4-1.4,2.2-3.3,2.2-5.3C286.2,189.6,285.4,187.7,284,186.3z"/>
	</g>
</g>
<g>
	<g>
		<path d="M248.7,201.6c-1.4-1.4-3.3-2.2-5.3-2.2c-2,0-3.9,0.8-5.3,2.2c-1.4,1.4-2.2,3.3-2.2,5.3c0,2,0.8,3.9,2.2,5.3
			c1.4,1.4,3.3,2.2,5.3,2.2c2,0,3.9-0.8,5.3-2.2c1.4-1.4,2.2-3.3,2.2-5.3C250.9,204.9,250.1,203,248.7,201.6z"/>
	</g>
</g>
<g>
	<g>
		<path d="M213.4,211.8c-1.4-1.4-3.3-2.2-5.3-2.2c-2,0-3.9,0.8-5.3,2.2c-1.4,1.4-2.2,3.3-2.2,5.3c0,2,0.8,3.9,2.2,5.3
			c1.4,1.4,3.3,2.2,5.3,2.2c2,0,3.9-0.8,5.3-2.2c1.4-1.4,2.2-3.3,2.2-5.3C215.6,215.1,214.8,213.1,213.4,211.8z"/>
	</g>
</g>
</svg>
