<?xml version="1.0" encoding="utf-8"?>
<!-- Generator: Adobe Illustrator 22.1.0, SVG Export Plug-In . SVG Version: 6.00 Build 0)  -->
<svg version="1.1" id="Capa_1" xmlns="http://www.w3.org/2000/svg" xmlns:xlink="http://www.w3.org/1999/xlink" x="0px" y="0px"
	 viewBox="0 0 512 512" style="enable-background:new 0 0 512 512;" xml:space="preserve">
<g>
	<g>
		<path d="M335.1,133.1c-2.6-3.2-7.4-3.7-10.6-1.1c-0.2,0.2-4.7,3.8-10.3-0.3c-3.4-2.4-8-1.7-10.5,1.7c-2.4,3.4-1.7,8,1.7,10.5
			c4.8,3.5,9.6,4.7,14,4.7c6.4,0,11.8-2.7,14.6-5C337.2,141,337.7,136.3,335.1,133.1z"/>
	</g>
</g>
<g>
	<g>
		<path d="M361.8,109.4c-11.9-8.6-23.9-3.6-28.6,0.3c-3.2,2.6-3.7,7.3-1.1,10.6c2.6,3.2,7.3,3.7,10.6,1.1c0.2-0.2,4.7-3.8,10.3,0.3
			c1.3,1,2.9,1.4,4.4,1.4c2.3,0,4.6-1.1,6.1-3.1C365.9,116.5,365.2,111.8,361.8,109.4z"/>
	</g>
</g>
<g>
	<g>
		<path d="M360.4,229.4c0.2,0,0.5,0.1,0.7,0.1l51.1,4c5.5,10.1,16.1,16.9,28.3,16.9c17.8,0,32.2-14.4,32.2-32.2S458.3,186,440.5,186
			c-11.2,0-21.1,5.8-26.9,14.5l-47.9-7.4l-31.1-9.9c0.5-3.7,0.9-7.3,1.3-11c17.2-4.2,31.8-15.2,40.8-30.1c2,0.6,4,0.9,6.1,1
			c0.3,0,0.6,0,1,0c14.1,0,25.7-11.2,26.3-25.3c0.2-6.3-1.8-12.1-5.3-16.8c0-0.2,0.1-0.3,0.1-0.5c0.2-1.9,5.2-46.2-20.9-75.7
			C369.2,8.4,347.9,0,320.7,0c-26.9,0-48.1,8.2-63,24.3c-4.5,4.9-8.1,10.1-11,15.5c-3.8-3.2-8.9-6.7-15.7-9.5
			c-14.4-5.8-39.2-9.2-75.9,7.7c-3.8,1.7-5.4,6.2-3.7,10c1.7,3.8,6.2,5.4,10,3.7c50.6-23.4,73.2-3.8,79,3c-1.5,4.5-2.6,9-3.4,13.3
			c-3.7-2.3-7.5-3.6-11.5-4c-13.9-1.3-26.2,9.2-40.4,21.4c-15.9,13.6-35.8,30.6-63.4,35.9c-26.8,5.1-45.8,2.1-56.6-9
			c-9-9.2-10.8-22.6-10.7-32.4c2.2,1,4.8,1.9,7.8,2.6c17.6,4.1,41.1-1.1,69.8-15.4c3.7-1.8,5.2-6.3,3.4-10.1
			c-1.8-3.7-6.3-5.2-10.1-3.4c-55,27.3-69.5,9.7-70.6,8.2c-1.4-2.8-4.3-4.3-7.5-4c-3.2,0.3-5.7,2.9-6.4,6.1
			c-0.3,1.5-7.8,36.8,13.4,58.7c10.3,10.6,25.2,15.9,44.5,15.9c7.8,0,16.4-0.9,25.7-2.6c31.6-6,53.1-24.4,70.4-39.2
			c11.6-10,21.7-18.5,29.3-17.9c3.4,0.3,7,2.6,10.8,6.9c-0.2,4.4-0.1,8,0,10.7c-3.2,4.3-5.1,9.4-5.3,14.9c-0.3,7,2.2,13.7,7,18.9
			c4.8,5.1,11.3,8.1,18.3,8.4c0.3,0,0.6,0,1,0c1.8,0,3.5-0.2,5.2-0.5c2.9,5.6,6.5,10.7,10.7,15.3l-53.5,21.8l-47.2,11.1
			c-1.3-1.7-2.9-3.3-4.6-4.8c-6.5-5.6-14.9-8.3-23.4-7.6c-8.6,0.7-16.4,4.7-22,11.2c-5.6,6.5-8.3,14.9-7.6,23.4
			c0.7,8.6,4.7,16.4,11.2,22c5.9,5,13.2,7.7,20.8,7.7c0.9,0,1.7,0,2.6-0.1c8.6-0.7,16.4-4.7,22-11.2c2.1-2.4,3.7-5.1,5-7.9l46.4-7.4
			c-4.6,4.4-9.5,8.8-14.7,13.2c-3.1,2.7-3.5,7.4-0.8,10.6c1.5,1.7,3.6,2.6,5.7,2.6c1.7,0,3.5-0.6,4.9-1.8
			c13.1-11.2,24.7-22.5,34.5-32.9c0.1-0.1,0.1-0.1,0.2-0.2c15.9-16.8,27.2-31.3,33-39.3c9.6,6.2,20.9,9.9,33.1,10.4
			c0.8,0,1.6,0,2.4,0c0.2,0,0.3,0,0.5,0c-0.2,1.5-0.3,3-0.5,4.5l-27.7-8.8c-3.9-1.3-8.2,0.9-9.4,4.9c-1.3,3.9,0.9,8.2,4.9,9.4
			l68.1,21.7l-0.8,7.4l-33.2-5.8c0,0-0.1,0-0.1,0l-41.6-7.3c-4.1-0.7-8,2-8.7,6.1s2,8,6.1,8.7l33.5,5.8
			c-11.2,36.6-27.7,60.6-32.5,67.1c-26.1,7.5-52.9,5.6-79.5-5.6c-10.9-4.6-19.7-10-25.6-14c5.4-3.4,10.8-7,16.2-10.9
			c3.4-2.4,4.2-7.1,1.8-10.5c-2.4-3.4-7.1-4.2-10.5-1.8c-7.9,5.6-16,10.8-23.9,15.5l-39.9,12.8c-5.9,1.9-10,7.1-10.4,13.3
			c-0.4,6.2,2.9,11.9,8.4,14.6c9.1,4.4,17.7,10.3,25.5,17.5c7.3,6.7,20.4,17.4,37.8,26.3l-4.4,80.2c-3.8,0.4-6.8,3.6-6.8,7.5l0,49.8
			c0,2,0.8,3.9,2.2,5.3c1.4,1.4,3.3,2.2,5.3,2.2l4,0l0,6.8l-8.8,0c0,0,0,0,0,0c-4.1,0-7.5,3.4-7.5,7.5s3.4,7.5,7.5,7.5l77.1,0
			c0,0,0,0,0,0c3.9,0,7.6-1.5,10.4-4.3c2.8-2.8,4.3-6.5,4.3-10.4c0-4.1-3.4-7.5-7.5-7.5c0,0,0,0,0,0c-4.1,0-7.4,3.2-7.5,7.3l-20.1,0
			l0-6.8l10.4,0c0,0,0,0,0,0c2,0,3.9-0.8,5.3-2.2c1.4-1.4,2.2-3.3,2.2-5.3l0-12.3c0-8.3-3.2-16.2-9.1-22.1
			c-5.9-5.9-13.7-9.1-22.1-9.1h-0.1l0-6.3c0-2.8-1.5-5.2-3.8-6.5l4.7-16.7c1.1-4-1.2-8.1-5.2-9.2c-4-1.1-8.1,1.2-9.2,5.2l-5.5,19.7
			l-5.3,0l4-73.6c6.3,2.4,13,4.5,20.2,6l-5.5,19.7c-1.1,4,1.2,8.1,5.2,9.2c0.7,0.2,1.4,0.3,2,0.3c3.3,0,6.3-2.2,7.2-5.5l6-21.4
			c3.9,0.4,7.9,0.6,12,0.6c12.9,0,26.7-2,41.1-6.9l76.2,19.5c-0.2,1.7,0.2,3.5,1.2,4.9c1.1,1.7,2.8,2.8,4.8,3.2l48.9,9.7
			c0.5,0.1,1,0.1,1.5,0.1c3.5,0,6.6-2.5,7.3-6l0.8-3.9l6.7,1.3l-1.7,8.6c-0.8,4.1,1.8,8,5.9,8.8c0.5,0.1,1,0.1,1.5,0.1
			c3.5,0,6.6-2.5,7.3-6l15-75.7c0.8-3.9,0-7.8-2.2-11.1c-2.2-3.3-5.5-5.5-9.4-6.3c-4.1-0.8-8,1.8-8.8,5.9c-0.8,4,1.7,7.9,5.7,8.8
			l-3.9,19.7l-6.7-1.3l2-10.2c0.8-4.1-1.8-8-5.9-8.8l-12.1-2.4c-8.2-1.6-16.5,0-23.4,4.7c-6.9,4.6-11.6,11.7-13.3,19.9l0,0.1
			l-6.2-1.2c-2.7-0.5-5.4,0.5-7.1,2.5L335,323.1c5.1-4.2,10.3-8.7,15.5-13.7c3.9-3.8,5.5-9.2,4.1-14.5c-1.3-5.3-5.3-9.3-10.6-10.8
			l-38.7-10.8c6.8-12.5,14.5-29.4,20.6-49.9L360.4,229.4z M440.5,201c9.5,0,17.2,7.7,17.2,17.2s-7.7,17.2-17.2,17.2
			s-17.2-7.7-17.2-17.2S431,201,440.5,201z M370.6,209.1l37.9,5.8c-0.1,1.1-0.2,2.1-0.2,3.2l-38.4-3L370.6,209.1z M158.9,217.2
			c-3,3.5-7.1,5.6-11.7,6c-4.6,0.4-9-1.1-12.5-4.1c-3.5-3-5.6-7.1-6-11.7c-0.4-4.6,1.1-9,4.1-12.5s7.1-5.6,11.7-6
			c0.5,0,0.9-0.1,1.4-0.1c4.1,0,8,1.4,11.1,4.1c3.5,3,5.6,7.1,6,11.7C163.3,209.3,161.8,213.7,158.9,217.2z M177.9,203.5
			c-0.1-1.1-0.2-2.1-0.4-3.2l37.3-8.8l1.1,6L177.9,203.5z M241.9,191.4l-11.3,2.9l-1.4-7.4l26.2-10.7
			C251.4,181,246.9,186.1,241.9,191.4z M395,117.4c-0.2,6.2-5.5,11.1-11.7,10.9c-0.1,0-0.2,0-0.3,0c1.8-5.6,2.9-11.5,3.1-17.7
			c0.1-1.5,0-3.1,0-4.6C391.3,107.1,395.2,111.8,395,117.4z M255.5,123.6c-3-0.1-5.8-1.4-7.9-3.6c-2.1-2.2-3.1-5.1-3-8.1
			c0.1-3,1.4-5.8,3.6-7.9c1.7-1.6,3.8-2.6,6.1-2.9c-0.2,1.5-0.3,3-0.3,4.6c-0.2,6.2,0.4,12.1,1.8,17.9
			C255.7,123.6,255.6,123.6,255.5,123.6z M257.1,62.5c-2.4,10-2.5,19-2.3,23.6c-1.7,0.1-3.3,0.3-4.9,0.7c0.6-13.7,4-36.2,18.8-52.2
			C280.6,21.6,298.1,15,320.7,15c22.8,0,40.2,6.7,51.9,19.8c16,18,17.8,44.1,17.7,56.7c-1.8-0.5-3.7-0.7-5.6-0.8c0,0,0,0,0,0
			c0.1-0.4,0.2-0.9,0.3-1.3c0.1-0.5,1.6-12.9-1.8-27.3c-0.9-4-5-6.6-9-5.6c-4,0.9-6.5,5-5.6,9c1.4,5.9,1.7,11.5,1.8,15.5H269.8
			c0.1-3.9,0.5-9.2,1.9-14.9c1-4-1.5-8.1-5.6-9C262.1,56,258.1,58.5,257.1,62.5z M318.2,159.2c-28.2-1-50.2-24.8-49.2-52.9
			c0.1-3.5,0.6-7,1.4-10.4h99.3c1.1,4.6,1.6,9.3,1.4,14.1C370.1,138.1,346.4,160.2,318.2,159.2z M428.4,348.8l6.7,1.3l-3.5,17.7
			l-6.7-1.3L428.4,348.8z M377,352.2l6.2,1.2c4.1,0.8,8-1.8,8.8-5.9l1.5-7.4c0.8-4.2,3.3-7.9,6.9-10.3c3.6-2.4,7.9-3.3,12.2-2.4
			l4.7,0.9l-8.5,42.7c0,0,0,0,0,0s0,0,0,0l-0.8,3.9l-34.2-6.8L377,352.2z M211.8,497l-18.1,0l0-6.8l18.1,0L211.8,497z M198.5,440.3
			l0,6.3c0,4.1,3.4,7.5,7.5,7.5l7.6,0c4.3,0,8.4,1.7,11.4,4.7c3.1,3.1,4.7,7.1,4.7,11.5l0,4.8l-47.5,0l0-34.8L198.5,440.3z
			 M361.5,353.3l-1,5.2L303.8,344c5.9-3.1,11.8-6.7,17.8-10.9L361.5,353.3z M340,298.5C340,298.5,340,298.6,340,298.5
			c-7.8,7.6-15.6,14.1-23.2,19.6c-0.3,0.2-0.5,0.3-0.7,0.5c-12.6,9.1-24.8,15.5-36.6,19.8c-0.4,0.1-2,0.6-2.4,0.9
			c-13.2,4.6-25.7,6.5-37.5,6.5c-4.8,0-14.9-1-17.7-1.5c-32.4-5.3-57.4-23.9-71.1-36.6c-8.9-8.2-18.7-15-29.2-20c0,0,0-0.1,0-0.1
			l36.8-11.8c5.5,4.3,17.4,12.9,34.1,19.9c17.9,7.6,36.2,11.4,54.4,11.4c12.9,0,25.7-1.9,38.2-5.8c1.4-0.4,2.7-1.3,3.6-2.4
			c0.4-0.5,3.8-4.7,8.7-12.4L340,298.5z"/>
	</g>
</g>
<g>
	<g>
		<path d="M404.6,267.2c-3.8-2-6.8-5.3-8.9-9.8c-2-4.2-6.1-6.7-10.7-6.7s-8.7,2.6-10.7,6.7c-2.1,4.5-5.1,7.8-8.9,9.8
			c-3.3,1.8-5.4,5.3-5.4,9.1c0,3.8,2.1,7.3,5.4,9.1c3.8,2,6.8,5.3,8.9,9.8c2,4.2,6.1,6.7,10.7,6.7s8.7-2.6,10.7-6.7
			c2.1-4.5,5.1-7.8,8.9-9.8c3.3-1.8,5.4-5.3,5.4-9.1C410,272.4,407.9,268.9,404.6,267.2z M384.9,283.6c-1.9-2.8-4-5.3-6.5-7.4
			c2.5-2.1,4.6-4.6,6.5-7.4c1.9,2.8,4,5.3,6.5,7.4C389,278.3,386.8,280.8,384.9,283.6z"/>
	</g>
</g>
<g>
	<g>
		<path d="M154.6,352.3c-3.8-2-6.8-5.3-8.9-9.8c-2-4.2-6.1-6.7-10.7-6.7c-4.6,0-8.7,2.6-10.7,6.7c-2.1,4.5-5.1,7.8-8.9,9.8
			c-3.3,1.8-5.4,5.3-5.4,9.1c0,3.8,2.1,7.3,5.4,9.1c3.8,2,6.8,5.3,8.9,9.8c2,4.2,6.1,6.7,10.7,6.7c4.6,0,8.7-2.6,10.7-6.7
			c2.1-4.5,5.1-7.8,8.9-9.8c3.3-1.8,5.4-5.3,5.4-9.1C160,357.6,158,354.1,154.6,352.3z M135,368.8c-1.9-2.8-4-5.3-6.5-7.4
			c2.5-2.1,4.6-4.6,6.5-7.4c1.9,2.8,4,5.3,6.5,7.4C139,363.5,136.9,366,135,368.8z"/>
	</g>
</g>
<g>
	<g>
		<path d="M214.3,131.9c-3.8-2-6.8-5.3-8.9-9.8c-2-4.2-6.1-6.7-10.7-6.7s-8.7,2.6-10.7,6.7c-2.1,4.5-5.1,7.8-8.9,9.8
			c-3.3,1.8-5.4,5.3-5.4,9.1c0,3.8,2.1,7.3,5.4,9.1c3.8,2,6.8,5.3,8.9,9.8c2,4.2,6.1,6.7,10.7,6.7c4.6,0,8.7-2.6,10.7-6.7
			c2.1-4.5,5.1-7.8,8.9-9.8c3.3-1.8,5.4-5.3,5.4-9.1C219.7,137.2,217.6,133.7,214.3,131.9z M194.6,148.4c-1.9-2.8-4-5.3-6.5-7.4
			c2.5-2.1,4.6-4.6,6.5-7.4c1.9,2.8,4,5.3,6.5,7.4C198.7,143.1,196.5,145.6,194.6,148.4z"/>
	</g>
</g>
<g>
	<g>
		<path d="M305.3,110.7c-11.2-8.7-23-4.3-27.7-0.7c-3.3,2.5-3.9,7.2-1.4,10.5c2.5,3.3,7.2,3.9,10.5,1.4c0.2-0.1,4.4-3.3,9.4,0.6
			c1.4,1.1,3,1.6,4.6,1.6c2.2,0,4.5-1,5.9-2.9C309.2,118,308.6,113.2,305.3,110.7z"/>
	</g>
</g>
</svg>
