<?xml version="1.0" encoding="utf-8"?>
<!-- Generator: Adobe Illustrator 22.1.0, SVG Export Plug-In . SVG Version: 6.00 Build 0)  -->
<svg version="1.1" id="Layer_1" xmlns="http://www.w3.org/2000/svg" xmlns:xlink="http://www.w3.org/1999/xlink" x="0px" y="0px"
	 viewBox="0 0 512 512" style="enable-background:new 0 0 512 512;" xml:space="preserve">
<path d="M276,236h82v40H236V120h40V236z M472,100v312c0,29.7-21.7,54.4-50,59.2V512h-40v-40H130v40H90v-40.8
	c-28.3-4.8-50-29.5-50-59.2V100c0-33.1,26.9-60,60-60h136V0h40v40h136C445.1,40,472,66.9,472,100z M432,100c0-11-9-20-20-20H100
	c-11,0-20,9-20,20v312c0,11,9,20,20,20h312c11,0,20-9,20-20V100z"/>
</svg>
