<?xml version="1.0" encoding="utf-8"?>
<!-- Generator: Adobe Illustrator 22.1.0, SVG Export Plug-In . SVG Version: 6.00 Build 0)  -->
<svg version="1.1" id="Layer_1" xmlns="http://www.w3.org/2000/svg" xmlns:xlink="http://www.w3.org/1999/xlink" x="0px" y="0px"
	 viewBox="0 0 211.3 84.2" style="enable-background:new 0 0 211.3 84.2;" xml:space="preserve">
<style type="text/css">
	.st0{fill:#1E671A;}
	.st1{fill-rule:evenodd;clip-rule:evenodd;fill:none;}
</style>
<path d="M27.7,46.6l-0.5,0.9c-0.1,0.3-0.4,0.5-0.7,0.6c0,0-0.2,0.1-0.4,0.1c-0.1,0-0.2,0-0.3,0c-0.3,0-0.5,0-0.6,0
	c-0.1,0-0.1,0-0.2,0h-0.2c-0.3-0.1-0.4-0.3-0.3-0.6c0-0.3,0.2-0.4,0.5-0.3h0l0.1,0h0.1l0.1,0c0,0,0.1,0,0.3,0c0,0,0.3-0.1,0.4-0.1
	c0.3-0.1,0.5-0.5,0.8-1.1c0.2-0.6,0.3-1.3,0.3-2l0-0.6l0-0.6v-0.7l0-0.3v-0.3l0.1-2.8l0.3-3.1c0-0.7,0.3-2.6,0.3-3.2l0.3-3.1
	l0.1-1.6l0.1-1.5l0.6-5.4l0.6-5.3L29.5,21c-0.1,1.7-0.2,3.5-0.4,5.5L28.9,28l-0.1,1.5l-0.2,3.2l-0.1,1.6l-0.1,1.6l-0.2,3l0,0.7v0.7
	l0,1.4v1.3c0,0.6,0,1.1,0,1.3C27.9,45.2,27.9,46,27.7,46.6z M27.7,49c0.6-0.5,1-1.3,1.1-2.2c0.4-9.7,1.7-22.7,3.9-38.9
	c0.2-1.6-0.5-2.5-2.2-2.9c-1.7-0.3-2.8,0.1-3.6,1.4L16.5,24l-2.6-8l-2.7-7.9c-0.5-1.7-1.7-2.4-3.3-2.2c-1.7,0.2-2.6,1.3-2.7,3
	L3.7,23.7L2.1,38.5c0,0.8,0.3,1.5,0.9,2.2c0.6,0.6,1.4,0.9,2.2,0.9c0.9,0,1.6-0.3,2.2-0.9c0.6-0.6,0.9-1.3,0.9-2.2l0.8-7.5l0.7-7.5
	l1.5,4.3l1.4,4.3c0.4,1.3,1.3,2,2.6,2.2c1.3,0.2,2.3-0.2,3-1.5c0.9-1.5,3-5,6.2-10.5c-1.1,9.4-1.8,17.5-2.1,24.3
	c0,0.9,0.2,1.7,0.9,2.2c0.5,0.5,1.3,0.7,2.1,0.7C26.3,49.8,27,49.5,27.7,49z"/>
<path d="M42.5,17.8l0-5.8c0.7-0.3,1.5-0.5,2.3-0.7c0,0,0,0,0.1,0h1.6l0,0l0.4,0.1l0.4,0.1l0.1,0l0.1,0c0.1,0,0.4,0.2,0.4,0.2
	l0.3,0.2l0.2,0.1l0.1,0.1l0.1,0c0.1,0,0.2,0.2,0.5,0.4l0,0l0.1,0.1l0.2,0.2l0.3,0.4l0.1,0.2l0.1,0.2l0.2,0.7l0,0.2l0,0.2l0,0.5v0.9
	L50.3,17c-0.2,1-0.7,2-1.4,2.8c-0.9,1-2.2,1.9-3.6,2.6c-0.6,0.3-1.6,0.7-2.8,1.2V17.8z M41.6,7.9l0.6-0.2l0.2-0.1l0.2,0l0.2,0
	l0.4-0.1l0.5-0.1l0.5,0c0.1,0,0.3,0,0.6,0c0.1,0,0.3,0,0.6,0H46c0.3,0,0.5,0,0.6,0H47l0.3,0l0.7,0.1l0.3,0.1l0.3,0.1l0.6,0.2
	l0.6,0.3l0.6,0.3L51,8.9l0.5,0.4c0.2,0.1,0.4,0.3,0.4,0.4l0.4,0.4l0.4,0.4l0.5,0.7l0.2,0.3l0.1,0.3c0,0,0.1,0.1,0.1,0.2l0.1,0.2
	l0.1,0.1c0.1,0.2,0,0.5-0.2,0.6c-0.3,0.1-0.5,0-0.6-0.2v0c0,0,0-0.1,0-0.1l-0.2-0.4c-0.1-0.3-0.3-0.7-0.8-1.3l-0.6-0.7L51,9.7
	c-0.2-0.2-0.3-0.3-0.4-0.4l-1-0.7l-1.2-0.5l-0.3-0.1l-0.3-0.1l-0.6-0.1l-0.6-0.1l-0.3,0H46l-0.3,0h-1.4c-0.1,0-0.3,0-0.5,0l-0.9,0.1
	c-0.3,0-0.5,0.1-0.6,0.1L41.6,7.9z M51.6,25.2c0.5-0.4,1.1-1,1.8-1.7c2.6-3.2,3.4-6.6,2.5-10.3c-0.9-3.4-3.1-5.7-6.6-7.1
	c-3.4-1.3-7.1-0.7-11.2,1.8l-0.3,0.2c-0.7,0.6-1.1,1.4-1.1,2.3l0.1,28.1c0,0.9,0.3,1.6,0.9,2.1c0.5,0.5,1.2,0.7,2,0.7
	c0.7,0,1.4-0.2,2-0.7c0.6-0.5,0.9-1.2,0.9-2.1v-4.5l0-4.5c1.4-0.3,2.7-0.7,4.1-1.3l5.9,9.9c0.5,0.9,1.4,1.4,2.6,1.4
	c0.5,0,1-0.1,1.5-0.4c0.7-0.4,1.2-1,1.4-1.8c0.2-0.8,0.1-1.5-0.3-2.2L51.6,25.2z"/>
<path d="M67.6,38.4c0,0.1-0.1,0.3-0.2,0.4L67.3,39c0,0,0,0,0,0.1l0,0l-0.1,0.1L67,39.4c0,0-0.1,0.1-0.1,0.2c0,0,0.1-0.1,0.1-0.2
	l0.1-0.2l0.1-0.2l0-0.1l0.1-0.4c0,0,0-0.2,0-0.5v-0.1l0-0.1v-0.1l0-0.1c0-0.2-0.1-0.3-0.2-0.4l0-0.1l-0.1-0.1l-0.1-0.1
	c-0.1-0.1-0.2-0.2-0.4-0.3c0-0.1-0.2-0.2-0.4-0.2L66,36l-0.2,0h-0.1l0,0h-0.3l0,0h0c0,0,0,0-0.1,0c-0.2,0-0.4,0-0.5-0.2
	c0-0.2,0-0.4,0.2-0.4c0,0,0,0,0,0h0.1c0,0,0,0,0.1,0h0.2l0.2,0c0.1,0,0.1,0,0.2,0l0.2,0c0.2,0.1,0.4,0.2,0.4,0.2l0.4,0.3l0.3,0.4
	c0.1,0.1,0.2,0.2,0.2,0.2l0.1,0.2l0.1,0.5c0,0,0,0.1,0,0.3v0.3l0,0.2L67.6,38.4z M67.8,35.1c-1.3-1.4-3.6-1.4-4.9,0
	c-1.3,1.5-1.3,3.9,0,5.3c1.2,1.4,3.7,1.4,4.9,0c0.6-0.6,0.9-1.5,0.9-2.6C68.8,36.7,68.5,35.8,67.8,35.1z"/>
<path d="M93.3,41.9c-0.1-0.2-0.3-0.3-0.6-0.2c-0.7,0.3-1.3,0.5-1.7,0.6l-0.5,0.1l-0.1,0h0c-0.1,0-0.2,0.1-0.3,0.2
	c0,0.1-0.1,0.2,0,0.3c0,0.3,0.2,0.4,0.4,0.4l0,0h0l0.2,0l0.6-0.2c0.6-0.2,1.2-0.4,1.8-0.7C93.4,42.4,93.5,42.2,93.3,41.9z M99,35.4
	c0,0-0.1-0.1-0.3-0.2c0,0-0.1,0-0.2,0c-0.1,0-0.2,0.1-0.2,0.3c-0.6,2.2-1.9,4-4,5.3c-0.2,0.2-0.2,0.4-0.1,0.6
	c0.2,0.2,0.5,0.1,0.6,0.1c2.2-1.5,3.7-3.5,4.3-5.9C99.1,35.6,99,35.6,99,35.4z M94,37l-0.4,0.4l-0.2,0.2l-0.2,0.1l-0.4,0.3l-0.3,0.3
	l-0.4,0.2c-0.1,0.1-0.5,0.3-0.5,0.3l0.5-0.4l0.3-0.2c0.1-0.1,0.2-0.2,0.3-0.3l0.2-0.1l0.1-0.1l0.4-0.4l0.3-0.4
	c0.1-0.1,0.2-0.3,0.3-0.4l0.3-0.5l0.3-0.5l0.2-0.5l0.2-0.6c0.2-0.4,0.4-1.3,0.5-2.4c0-0.8,0-1.5,0-2.1c0-0.4-0.1-0.9-0.2-1.4
	L95.4,28l-0.1-0.1c0,0,0-0.1,0-0.2l0.1-0.1c0,0,0.1,0,0.2,0l0.1,0.1v0c0,0,0,0,0,0.1L96,28l0,0.2c0.1,0.5,0.2,1,0.2,1.6
	c0,0.4,0,1.1-0.1,2.2l-0.3,1.2l-0.4,1.2c-0.2,0.5-0.4,0.9-0.5,1.1L94.6,36l-0.3,0.5L94,37z M85.3,41.4c3.7,0.4,6.8-0.7,9.4-3.5
	c2.2-2.2,3.1-5.1,2.9-8.6c0-0.1,0-0.3,0-0.6c0-0.9-0.4-1.7-1.2-2.2c-0.7-0.5-1.5-0.7-2.4-0.5L91,26.5L88.1,27
	c-0.7,0.1-1.3,0.6-1.7,1.4c-0.4,0.7-0.5,1.5-0.2,2.2c0.2,0.8,0.7,1.3,1.3,1.7c0.6,0.3,1.4,0.4,2.2,0.3l1.1-0.2l1-0.2l-0.1,0.5
	l-0.2,0.5c-1,1.8-2.6,2.6-4.8,2.6c-2.2,0-4-1.1-5.4-3.5c-1.1-1.9-1.8-4.1-2.1-6.5c-0.2-2.7,0-5.1,0.7-7.4c0.8-2.6,2.1-4.5,3.8-5.7
	c0.7-0.5,1.4-0.9,2.2-1.1l0.4-0.1h0.2h0.7c0,0,0,0,0.1,0l0.2,0h0.1c0.5,0.1,1.1,0.5,1.6,1.2c0.2,0.3,0.4,0.7,0.7,1.2
	c0.1,0.4,0.3,0.9,0.5,1.5c0.2,0.8,0.7,1.4,1.4,1.8c1.3,0.6,3,0.1,3.8-1c0.4-0.6,0.5-1.4,0.3-2.2c-1-3.8-3-6.4-6.1-7.6
	c-2.3-1-5-0.7-8,0.7c-3,1.5-5.3,4.1-6.8,7.9c-1.3,3.2-1.8,6.6-1.6,10.4c0.2,3.9,1.3,7.3,3.3,10.3C78.8,39,81.7,40.9,85.3,41.4z"/>
<path d="M109.2,17.8l0-5.8c0.7-0.3,1.5-0.5,2.3-0.7c0,0,0,0,0.1,0h1.6l0,0l0.4,0.1l0.4,0.1l0.1,0l0.1,0c0.1,0,0.4,0.2,0.4,0.2
	l0.3,0.2l0.2,0.1l0.1,0.1l0.1,0c0.1,0,0.2,0.2,0.5,0.4l0,0L116,13l0.2,0.2l0.3,0.4l0.1,0.2l0.1,0.2l0.2,0.7l0,0.2l0,0.2l0,0.5v0.9
	L117,17c-0.2,1-0.7,2-1.4,2.8c-0.9,1-2.2,1.9-3.6,2.6c-0.6,0.3-1.6,0.7-2.8,1.2V17.8z M108.3,7.9l0.6-0.2l0.2-0.1l0.2,0l0.2,0
	l0.4-0.1l0.5-0.1l0.5,0c0.1,0,0.3,0,0.6,0c0.1,0,0.3,0,0.6,0h0.6c0.3,0,0.5,0,0.6,0h0.3l0.3,0l0.7,0.1l0.3,0.1l0.3,0.1l0.6,0.2
	l0.6,0.3l0.6,0.3l0.5,0.4l0.5,0.4c0.2,0.1,0.4,0.3,0.4,0.4l0.4,0.4l0.4,0.4l0.5,0.7l0.2,0.3l0.1,0.3c0,0,0.1,0.1,0.1,0.2l0.1,0.2
	l0.1,0.1c0.1,0.2,0,0.5-0.2,0.6c-0.3,0.1-0.5,0-0.6-0.2v0c0,0,0-0.1,0-0.1l-0.2-0.4c-0.1-0.3-0.3-0.7-0.8-1.3l-0.6-0.7l-0.4-0.4
	c-0.2-0.2-0.3-0.3-0.4-0.4l-1-0.7l-1.2-0.5l-0.3-0.1l-0.3-0.1l-0.6-0.1l-0.6-0.1l-0.3,0h-0.3l-0.3,0h-1.4c-0.1,0-0.3,0-0.5,0
	l-0.9,0.1c-0.3,0-0.5,0.1-0.6,0.1L108.3,7.9z M118.3,25.2c0.5-0.4,1.1-1,1.8-1.7c2.6-3.2,3.4-6.6,2.5-10.3c-0.9-3.4-3.1-5.7-6.6-7.1
	c-3.4-1.3-7.1-0.7-11.2,1.8l-0.3,0.2c-0.7,0.6-1.1,1.4-1.1,2.3l0.1,28.1c0,0.9,0.3,1.6,0.9,2.1c0.5,0.5,1.2,0.7,2,0.7
	c0.7,0,1.4-0.2,2-0.7c0.6-0.5,0.9-1.2,0.9-2.1v-4.5l0-4.5c1.4-0.3,2.7-0.7,4.1-1.3l5.9,9.9c0.5,0.9,1.4,1.4,2.6,1.4
	c0.5,0,1-0.1,1.5-0.4c0.7-0.4,1.2-1,1.4-1.8c0.2-0.8,0.1-1.5-0.3-2.2L118.3,25.2z"/>
<path d="M152,31.3c0-0.4,0.8-0.4,0.8,0.1c0,0,0,0.1,0,0.1v0.1l-0.1,0.4c-0.1,0.1-0.2,0.2-0.3,0.3c-0.2,0.2-0.6,0.4-1,0.6
	c-0.2,0.1-0.7,0.2-1.4,0.3l-0.7,0.1c-0.1,0-0.1,0-0.2,0h-0.1l-0.1,0h-0.2l-0.2,0l-0.8,0.2l-0.8,0.2l-0.9,0.3l-0.9,0.3l-0.5,0.1
	l-0.4,0.1l-0.4,0.2l-0.5,0.1l-0.9,0.4l-0.9,0.4l-1.7,0.7l-0.8,0.4c-0.4,0.2-0.7,0.3-0.8,0.3l-1.4,0.9l-0.3,0.2l-0.3,0.1
	c-0.2,0.1-0.4,0.2-0.5,0.3l-0.5,0.3l-0.4,0.3l-0.5,0.4l0.5-0.4l0.4-0.3l0.5-0.3l0.5-0.3l0.3-0.2l0.3-0.2l1.4-0.9l0.3-0.2l0.4-0.2
	c0.2-0.1,0.7-0.3,0.8-0.4l0.8-0.4l0.9-0.4l0.9-0.4c0.6-0.2,0.9-0.4,0.9-0.4l0.9-0.3l0.5-0.2l0.4-0.1c0.5-0.2,1.6-0.5,1.9-0.6
	l0.4-0.1l0.4-0.1l0.5-0.1l0.3-0.1l0.4-0.1l0.1,0h0.1l0.2,0l0.4-0.1l0.3-0.1l1.3-0.3c0.4-0.1,0.6-0.2,0.8-0.5
	c0.1-0.1,0.2-0.3,0.2-0.4V31.3z M153.5,32.9c0.3-0.6,0.4-1.2,0.3-1.9c-0.4-1.5-1.5-2.1-3.1-1.8c-6.4,1.3-12.1,3.6-17.1,6.9L134,31
	l6.3-3.4c0.6-0.3,1-0.8,1.2-1.5c0.2-1.1-0.6-2.5-1.7-2.9c-0.6-0.2-1.3-0.1-2,0.2l-3.4,1.8l0.1-2.6l0.2-2.6c0.1-1.2,0.2-2.9,0.2-5.3
	l4.9-1.8l3.7-1.2l3.7-1.2c0.7-0.2,1.2-0.7,1.5-1.3c0.2-0.6,0.3-1.2,0.1-1.8c-0.2-0.6-0.5-1.1-1-1.5c-0.6-0.3-1.3-0.4-2-0.2l-4,1.3
	c-0.6,0.2-1.4,0.4-2.3,0.8l-1.7,0.6c-1.8,0.5-3.6,1.2-5.4,2l-0.5,0.2l-0.5,0.1c-0.2,0-0.5,0.2-1.1,0.5c-0.8,0.5-1.3,1.1-1.5,1.8
	c-0.2,1.2,0.1,2.1,1.1,2.7c0,0.1-0.1,2.2-0.3,5.9l-0.2,3l-0.1,3v0.2l0,0.2c-0.4,0.4-0.7,0.9-0.7,1.5c0,0.6,0.2,1.1,0.6,1.6l-0.2,5.1
	l-0.3,5.1c0,1.1,0.5,1.9,1.5,2.2c1.1,0.3,2,0.2,2.7-0.5l0.5-0.5l0.6-0.4l0.5-0.4l0.5-0.3l0.5-0.3l1.1-0.8l1.2-0.7
	c4.3-2.6,9-4.4,14.3-5.5C152.7,33.9,153.2,33.5,153.5,32.9z"/>
<path d="M181.3,31.3c0-0.4,0.8-0.4,0.8,0.1c0,0,0,0.1,0,0.1v0.1l-0.1,0.4c-0.1,0.1-0.2,0.2-0.3,0.3c-0.2,0.2-0.6,0.4-1,0.6
	c-0.2,0.1-0.7,0.2-1.4,0.3l-0.7,0.1c-0.1,0-0.1,0-0.2,0h-0.1l-0.1,0h-0.2l-0.2,0l-0.8,0.2l-0.8,0.2l-0.9,0.3l-0.9,0.3l-0.5,0.1
	l-0.4,0.1l-0.4,0.2l-0.5,0.1l-0.9,0.4l-0.9,0.4l-1.7,0.7l-0.8,0.4c-0.4,0.2-0.7,0.3-0.8,0.3l-1.4,0.9l-0.3,0.2l-0.3,0.1
	c-0.2,0.1-0.4,0.2-0.5,0.3l-0.5,0.3l-0.4,0.3l-0.5,0.4l0.5-0.4l0.4-0.3l0.5-0.3l0.5-0.3l0.3-0.2l0.3-0.2l1.4-0.9l0.3-0.2l0.4-0.2
	c0.2-0.1,0.7-0.3,0.8-0.4l0.8-0.4l0.9-0.4l0.9-0.4c0.6-0.2,0.9-0.4,0.9-0.4l0.9-0.3l0.5-0.2l0.4-0.1c0.5-0.2,1.6-0.5,1.9-0.6
	l0.4-0.1l0.4-0.1l0.5-0.1l0.3-0.1l0.4-0.1l0.1,0h0.1l0.2,0l0.4-0.1l0.3-0.1l1.3-0.3c0.4-0.1,0.6-0.2,0.8-0.5
	c0.1-0.1,0.2-0.3,0.2-0.4V31.3z M182.8,32.9c0.3-0.6,0.4-1.2,0.3-1.9c-0.4-1.5-1.5-2.1-3.1-1.8c-6.4,1.3-12.1,3.6-17.1,6.9l0.3-5.2
	l6.3-3.4c0.6-0.3,1-0.8,1.2-1.5c0.2-1.1-0.6-2.5-1.7-2.9c-0.6-0.2-1.3-0.1-2,0.2l-3.4,1.8l0.1-2.6l0.2-2.6c0.1-1.2,0.2-2.9,0.2-5.3
	l4.9-1.8l3.7-1.2l3.7-1.2c0.7-0.2,1.2-0.7,1.5-1.3c0.2-0.6,0.3-1.2,0.1-1.8c-0.2-0.6-0.5-1.1-1-1.5c-0.6-0.3-1.3-0.4-2-0.2l-4,1.3
	c-0.6,0.2-1.4,0.4-2.3,0.8l-1.7,0.6c-1.8,0.5-3.6,1.2-5.4,2l-0.5,0.2l-0.5,0.1c-0.2,0-0.5,0.2-1.1,0.5c-0.8,0.5-1.3,1.1-1.5,1.8
	c-0.2,1.2,0.1,2.1,1.1,2.7c0,0.1-0.1,2.2-0.3,5.9l-0.2,3l-0.1,3v0.2l0,0.2c-0.4,0.4-0.7,0.9-0.7,1.5c0,0.6,0.2,1.1,0.6,1.6l-0.2,5.1
	l-0.3,5.1c0,1.1,0.5,1.9,1.5,2.2c1.1,0.3,2,0.2,2.7-0.5l0.5-0.5l0.6-0.4l0.5-0.4l0.5-0.3l0.5-0.3l1.1-0.8l1.2-0.7
	c4.3-2.6,9-4.4,14.3-5.5C182,33.9,182.5,33.5,182.8,32.9z"/>
<path d="M207.7,38.9c0-0.1-0.1-0.1-0.2-0.1c-0.3,0-0.4,0-0.5,0.4c-0.1,1.3-0.7,2.3-1.6,2.9c-0.3,0.2-0.6,0.3-1,0.4
	c0,0-0.3,0-0.3,0.1h-0.1c-0.1,0-0.2,0.1-0.2,0.1c-0.1,0.1-0.1,0.2-0.1,0.3c0,0.2,0.1,0.3,0.4,0.3h0c0.4,0,1-0.2,1.8-0.6
	c0.5-0.2,0.9-0.7,1.3-1.2c0.4-0.6,0.7-1.4,0.8-2.3C207.8,39.2,207.8,39.1,207.7,38.9z M207.7,36.6c0-0.2-0.1-0.4-0.5-0.3
	c-0.1,0-0.2,0-0.2,0.1c-0.1,0.1-0.1,0.2-0.1,0.3l0.1,1.1c0,0.3,0.1,0.4,0.4,0.4c0.2,0,0.4-0.2,0.4-0.5L207.7,36.6z M209.6,6.1
	c0,0.3,0,0.6-0.1,0.9l-0.1,0.3l-0.1,0.4l-0.5,1.8l-0.5,1.9c-0.1,0.4-0.5,1.9-1.1,4.3c-0.9,3.2-1.5,5.9-1.9,8
	c-0.1,0.5-0.2,1.1-0.3,1.5l-0.1,1.1v-0.5c0-0.1,0-0.5,0.1-0.6c0-0.5,0.2-1.3,0.2-1.6c0.3-2.3,0.9-5,1.6-8.1c0.5-2.3,1.2-5,2-8
	c0-0.1,0.1-0.4,0.2-0.7l0-0.3V6.2c0-0.3-0.1-0.5-0.3-0.6c-0.2-0.1-0.4-0.1-0.6-0.1h-0.2c-0.1,0-0.2,0-0.3-0.1c0,0-0.1-0.1-0.2-0.2
	c0-0.3,0.1-0.4,0.4-0.5h0.1l0.1,0c0.1,0,0.3,0,0.4,0c0.2,0.1,0.4,0.1,0.5,0.2c0.2,0.1,0.4,0.3,0.5,0.5
	C209.5,5.6,209.6,5.9,209.6,6.1z M210.4,4.9c-0.4-0.7-1-1.1-1.7-1.3c-1.7-0.4-2.8,0.2-3.5,2c-1.7,4.3-3.1,9.8-4.2,16.4
	c-0.1,0.5-0.2,1.2-0.3,2.1l-0.3,2.1c-0.5-1.6-0.8-2.8-1.1-3.9c-1.1-4-2.1-7.8-2.8-11.6c-0.3-1.3-1.2-2-2.7-2c-1.5,0-2.4,0.7-2.7,2
	c-0.7,3.5-1.3,7.4-1.7,11.5l-0.6,5.8l-0.5,5.8l-0.6,7.4l-0.6,7.4c-0.1,1.5,1.4,2.8,2.8,2.8c0.8,0,1.5-0.3,2-0.8
	c0.4-0.5,0.7-1.2,0.8-2l0.6-7.1l0.6-7.1l0.4-4.2l0.4-4.2c0.6,2.1,1.3,4.3,2.2,6.9c0.5,1.6,1,2.9,1.5,3.8c0.6,1.4,1.3,2.5,2.1,3.6
	c0.9,1.2,2,1.7,3.2,1.3c0.6-0.1,1.1-0.5,1.5-1c0.4-0.5,0.6-1.1,0.6-1.7c-0.3-4.5,0-9.8,0.9-16c1-6.3,2.4-11.6,4.1-15.9
	C210.9,6.3,210.8,5.6,210.4,4.9z"/>
<path d="M3,83c-1.4-0.8-0.1-5.7,1.5-8.5c0.2-0.3,3.4-5.5,3.6-5.4c0.2,0,0.2,0.6-0.2,2.5c-0.7,3.6-1.7,7.1-2.6,9.7
	C4.8,82.7,4.1,83.6,3,83z M2.8,84c0.9,0.4,2,0.2,3.1-0.6c1.5-1,3.6-4.4,4.4-7.9c0.6-2.4,1.2-5.5,1.3-9.4c1-1.2,2.3-2.8,3.4-5.3
	c0.3-0.7,0.8-1.7,0.8-2c0.1-0.3,0.1-0.8-0.2-0.8c-0.2-0.1-0.5,0.4-0.5,0.6c-0.6,1.4-2.2,5.5-4,6.4c-0.6-1.2-1.6-2.1-2.7-2.5
	c-1.3-0.6-1.9-0.3-2.3-0.7C6,61.7,5.8,61.4,6,61.2c0.8-1,2.8-3.4,3.1-6.1c0.1-1.4-0.7-2.4-1.7-2.8s-2.5-0.2-3.9,0.8
	C1.9,54.3,0.7,56.1,0,59c-0.2,0.7,0.4,0.8,0.6,0.4c0.4-1.1,0.5-1.4,0.9-2.3c0.7-1.7,1.8-2.7,2.7-3.3c0.6-0.4,1.2-0.4,1.8-0.3
	c0.9,0.2,1.1,0.9,0.6,2.1c-1.5,3.8-2,4.3-4.3,7.3c-0.4,0.5-0.7,0.8-1,1.3c-0.3,0.4-0.5,0.7-0.1,1.4C1.5,65.9,2,66,2.6,65.5
	c0.3-0.3,1.4-1.2,1.6-1.3c0.6-0.5,0.4-0.4,1.1-0.7c0.8-0.4,2.8,0.9,2.8,3.7c-0.6,1.1-2.1,3.1-3.2,4.7C2.4,75.6-0.1,82.7,2.8,84z"/>
<path d="M17.1,58.9c-0.2-0.1,0-0.9,0-1.1c0.4-1.4,0.7-2.3,1.5-3.4c0.5-0.8,1.6-1.8,2.6-1.3c0.7,0.4,0.9,1.3,0.4,2.1
	c-0.6,1-1.3,1.6-2.2,2.4C18.7,58.3,17.5,59.1,17.1,58.9z M19.2,67.8c2.5-0.6,3.9-2.1,5.5-4.7c0.6-1,1-2,1.3-2.8
	c0.4-1,0.7-1.5,0.9-2.2c0-0.2,0-0.4,0-0.5c0,0-0.3-0.2-0.6,0.1C26,58,25.8,59,25.2,60.2c-1.6,3.2-4.7,7-7,6.1
	C17.4,66,17,64.7,17,63.8c-0.1-1.1,0-1.7,0-2.5c0-0.4,0.2-0.8,0.6-1.1c1-0.7,2.2-1.6,3.2-2.5c1.6-1.4,3.3-3.6,1.8-5.1
	c-1.1-1.2-2.6-0.7-4.2,0.4c-1.1,0.9-2.6,2.8-3.2,4.5c-0.9,2.4-1.6,5.6-0.8,7.9c0.2,0.5,0.7,1.5,1.3,1.8C16.6,68,18.4,68,19.2,67.8z"
	/>
<path d="M38.7,67.8c2.9-0.5,4.9-4.7,6-7.7c0.2-0.5,0.4-0.8,0.5-1.2c0.1-0.2,0.1-0.5-0.2-0.6c-0.1,0-0.4,0-0.5,0.4
	c-0.8,2.1-2.5,5.1-3.1,6c-1,1.2-1.7,1.8-2.5,1.8c-0.4,0-1.2-0.3-1.1-1.5c0-0.6,0.6-3.6,0.9-5.7c0.4-2.3,1.2-5-0.3-7.1
	c-1.2-1.7-3.1-1.1-4.1,0.1c-0.6,0.8-1.5,3.1-2.5,5.5c-0.6,1.6-1.6,5.1-3,7.6c-0.8,1.3-1.5,1.6-2.3,1.4c-1.3-0.4-1.1-1.7-0.8-3.2
	c0.2-1.1-1.1-1.1-1.3-0.4c-0.6,1.4-0.5,3.9,1.8,4.4c2.3,0.5,3.8-0.7,6.7-9.4c0.7-2.1,1.7-4.2,2.3-5c0.8-1.1,1.9,0.3,1.6,1.9
	c-0.3,1.5-0.7,3.3-1,4.8c-0.2,0.9-0.5,2.6-0.7,3.5C34.4,66.7,35.8,68.3,38.7,67.8z"/>
<path d="M47,58.9c-0.2-0.1,0-0.9,0-1.1c0.4-1.4,0.7-2.3,1.5-3.4c0.5-0.8,1.6-1.8,2.6-1.3c0.7,0.4,0.9,1.3,0.4,2.1
	c-0.6,1-1.3,1.6-2.2,2.4C48.7,58.3,47.5,59.1,47,58.9z M49.1,67.8c2.5-0.6,3.9-2.1,5.5-4.7c0.6-1,1-2,1.3-2.8c0.4-1,0.7-1.5,0.9-2.2
	c0-0.2,0-0.4,0-0.5c0,0-0.3-0.2-0.6,0.1C56,58,55.8,59,55.2,60.2c-1.6,3.2-4.7,7-7,6.1C47.4,66,47,64.7,47,63.8
	c-0.1-1.1,0-1.7,0-2.5c0-0.4,0.2-0.8,0.6-1.1c1-0.7,2.2-1.6,3.2-2.5c1.6-1.4,3.3-3.6,1.8-5.1c-1.1-1.2-2.6-0.7-4.2,0.4
	c-1.1,0.9-2.6,2.8-3.2,4.5c-0.9,2.4-1.6,5.6-0.8,7.9c0.2,0.5,0.7,1.5,1.3,1.8C46.6,68,48.4,68,49.1,67.8z"/>
<path d="M74.2,58.2c-0.1,0-0.4,0-0.5,0.4c-0.8,2.1-2.5,5.1-3.1,6c-1,1.2-1.7,1.8-2.5,1.8c-0.4,0-1.2-0.3-1.1-1.5
	c0-0.6,0.6-3.6,0.9-5.7c0.3-1.7,0.8-4.3,0.8-6c0-1-0.9-1.5-1.9-1.1c-0.2,0.1-0.4,0.6-0.5,0.8c-0.3,1.2-0.7,3.5-1.2,5.7
	c-2.4,0.7-4.7,1.2-6.5,1.5c0.1-0.3,0.1-0.6,0.2-0.8c0.3-1.7,0.8-4.3,0.8-6c0-1-0.9-1.5-1.9-1.1c-0.2,0.1-0.4,0.6-0.5,0.8
	c-0.3,1.4-0.9,4.5-1.5,6.8l-0.1,0.5c-1.9,0.3-2,1.5-0.6,1.3c0.1,0,0.2,0,0.3,0c-0.2,1.1-0.5,2.6-0.9,4.9c-0.3,1.9,2.5,3.8,3.4-1.5
	c0-0.4,0.3-2.1,0.6-3.8c2-0.2,4.4-0.5,6.3-1c-0.2,0.9-0.4,2.4-0.6,3.1c-0.6,3.4,0.8,5.1,3.6,4.5c2.9-0.5,4.9-4.7,6-7.7
	c0.2-0.5,0.4-0.8,0.5-1.2C74.4,58.6,74.4,58.3,74.2,58.2z"/>
<path d="M76.6,67.9c2.5-0.5,3.8-4.1,5-6.7c0-0.1,0.2-0.4,0.6-0.4c0.1,0,0.2,0.1,0.2,0.3c0,0.7,0,1.3,0,2c0,0.5,0,1,0.1,1.5
	c0.1,1,0.6,2.5,1.6,2.9c1.8,0.8,4,0.2,5.7-2.5c1.3-2,2.8-6.3,3-6.6c0.1-0.4,0.3-0.8,0.4-1.2c0-0.2-0.1-0.3-0.3-0.3
	c-0.1,0-0.2,0-0.2,0c-0.2,0.2-0.4,0.5-0.5,0.9c-0.8,2.8-3.7,8.7-5.9,8.1c-0.4-0.1-0.7-0.5-0.7-1.1c0-1.8,0-3.5,0-5.3
	c0-1.6,0-3.2-0.1-4.7c0-0.4-0.2-0.6-0.3-0.9c-0.3-0.4-0.8-0.3-1.1,0c-0.6,0.6-0.5,1.1-0.7,2.4c-0.2,0.3-0.3,0.6-0.4,0.9
	c-0.4,0.9-0.9,1.8-1.4,2.6c-1.4,2.6-2.3,4.7-3.8,5.9c-0.5,0.4-1.5,0.3-1.7-0.6c-0.6-2.8-0.2-7.6,1.9-10.6c1.2-1.7,2.5-2.3,3.7-1.9
	c0.8,0.2-0.6,2.6,0.4,2.6c0.2,0,0.3,0,0.5-0.2c0.4-0.7,0.5-1.1,0.5-1.9c0-0.8-0.5-1.5-1.3-1.6c-2.1-0.3-4.6,1.3-6,3.1
	c-2.8,3.8-3.5,8.7-2.4,11.6C74,67.4,75.3,68.1,76.6,67.9z"/>
<path d="M95.2,59.6c-2-1.1-0.2-6,1.4-7.2c1.1-0.8,2.1-0.3,2.7,0.2c-0.1,0.6-0.3,1.5-0.4,2.6C98.1,57.5,96.9,60.5,95.2,59.6z
	 M107.3,57.3c-0.1,0-0.4,0-0.5,0.4c-0.8,2.1-1.9,4.2-3.4,6.6c-0.8,1.3-2,2.2-2.8,2.2c-0.4,0-0.9-0.4-0.8-1.5c0-0.6,0.9-4.1,1.3-6.2
	c0.3-1.7,0.8-4.3,0.8-6c0-1-0.9-1.5-1.9-1.1c-0.1,0-0.2,0.2-0.4,0.4c-0.7-0.5-1.8-0.9-3.5-0.3c-1.7,0.6-3.3,1.8-4.1,3.8
	s-0.8,5.5,2.9,5.3c0.9,0,1.7-0.2,2.2-0.5c-0.7,1.6-1.5,3.5-2.3,4.9c-0.8,1.3-1.5,1.6-2.3,1.4c-1.3-0.4-1.1-1.7-0.8-3.2
	c0.2-1.1-1.1-1.1-1.4-0.4c-0.6,1.4-0.4,3.9,1.9,4.4c2,0.4,3.4-0.4,5.7-6.7c-0.2,0.8-0.3,1.7-0.4,2.5c-0.5,3.2,0.3,5.1,3.2,4.5
	c2.5-0.5,5.3-5.6,6.4-8.6c0.2-0.5,0.4-0.8,0.5-1.2C107.6,57.7,107.5,57.4,107.3,57.3z"/>
<path d="M144.5,58.9c-0.2-0.1,0-0.9,0-1.1c0.4-1.4,0.7-2.3,1.5-3.4c0.5-0.8,1.6-1.8,2.6-1.3c0.7,0.4,0.9,1.3,0.4,2.1
	c-0.6,1-1.3,1.6-2.2,2.4C146.2,58.3,145,59.1,144.5,58.9z M146.6,67.8c2.5-0.6,3.9-2.1,5.5-4.7c0.6-1,1-2,1.3-2.8
	c0.4-1,0.7-1.5,0.9-2.2c0-0.2,0-0.4,0-0.5c0,0-0.3-0.2-0.6,0.1c-0.3,0.3-0.5,1.3-1.1,2.5c-1.6,3.2-4.7,7-7,6.1
	c-0.8-0.3-1.2-1.7-1.2-2.5c-0.1-1.1,0-1.7,0-2.5c0-0.4,0.2-0.8,0.6-1.1c1-0.7,2.2-1.6,3.2-2.5c1.6-1.4,3.3-3.6,1.8-5.1
	c-1.1-1.2-2.6-0.7-4.2,0.4c-1.1,0.9-2.6,2.8-3.2,4.5c-0.9,2.4-1.6,5.6-0.8,7.9c0.2,0.5,0.7,1.5,1.3,1.8
	C144.1,68,145.9,68,146.6,67.8z"/>
<path d="M149.4,82.6c-1.8,0-1.3-4.8-0.6-7.2c0.7-2.7,1.7-4.8,3-7l0.2-0.1c0.1,0.2,0.1,0.3,0.1,0.5c0,2.3-0.3,5.2-0.8,8.7
	C151.2,78.7,150.8,82.6,149.4,82.6z M157.7,66c-0.8-0.5,0-1.7,1-2.5c0.6-0.5,1.7-1.2,1.9-1.1c0.1,0.1,0,1.1-0.2,1.7
	C160,65.4,159,66.8,157.7,66z M149.4,84c1.1,0,2.3-0.3,3.5-2.6c1.8-3.6,2-9.2,2.2-12.4c0-1.3,1.1-11.7,2.1-13.5
	c0.6-1,1.7-2.5,2.7-2.5c1.3,0,1.5,1.1,1.4,3.7c-0.1,1.9-0.3,2.6-0.7,4.3c0,0.2-0.2,0.3-0.4,0.5c-1.5,0.9-4.2,2.5-3.8,4.7
	c0.3,2.1,3.2,2.3,5.1,0.2c0.8-1,1.2-2.4,1.7-3.5c0-0.2,0.2-0.7,0.5-0.8c0.3-0.2,0.9-0.6,1.7-1.3c1.8-1.9,2.5-3.2,2.7-3.6
	c0.2-0.2,0.5-0.8,0.1-1c-0.2-0.1-0.6,0.1-0.8,0.4c-0.5,0.9-1.8,3.1-2.8,3.6c-0.5,0.3-0.9,0.5-1,0.4c0,0,0-0.4,0-0.8
	c0.2-2.3,0.4-5-1.1-6.9c-0.7-0.9-1.5-1.4-2.8-1.3c-1.2,0.1-2.1,1-2.6,1.8l-0.3,0.4c0,0-0.2-0.8-0.3-0.9c-0.2-0.5-0.8-0.8-1.4-0.5
	c-0.4,0.3-0.7,0.8-0.8,1.4c0.1-0.2-1.3,6.4-2.1,9.3c-0.7,2.4-1.9,5.1-2.8,7.3c-1.2,3.3-2,5.6-2.3,8.7C147.1,80.3,146.9,84,149.4,84z
	"/>
<path d="M192.4,58.2c-0.1,0-0.4,0-0.5,0.4c-0.8,2.1-2.4,5.1-3,6c-1,1.2-1.9,1.8-2.6,1.8c-0.4,0-1.2-0.3-1.1-1.5
	c0-0.6,0.6-3.6,0.9-5.7c0.3-1.7,0.8-4.5,0.8-6.1c0-1-0.9-1.5-1.9-1.1c-0.1,0-0.2,0.1-0.2,0.3c-0.2,0.2-0.3,0.4-0.4,0.7
	c-0.8,2.8-5.1,13.3-7,12.1c-0.6-0.4-0.7-2.9-0.5-6.1c0.1-2.1,0.9-6,0.9-8c0-0.9-2.2-0.9-2.8,0.5c-0.7,1.7-1.5,3.6-2.4,6.3
	c-0.6,1.5-1.6,5.1-3,7.6c-0.8,1.3-1.5,1.6-2.3,1.4c-1.3-0.4-1.1-1.7-0.8-3.2c0.2-1.1-1.1-1.1-1.3-0.4c-0.6,1.4-0.5,3.9,1.8,4.4
	c2.3,0.5,3.8-0.2,6.7-9.4c0.4-1.3,0.8-2.4,1.2-3.2c-0.5,2.6-1.7,11,0.3,11.5c2.6,0.7,3.6,0.2,5.9-3.4c0.6-1,1.6-3.3,2.5-5.4
	c-0.2,0.8-0.4,1.6-0.5,2.3c-0.2,0.9-0.5,2.6-0.7,3.5c-0.6,3.4,0.8,5.1,3.6,4.5c2.9-0.5,5-4.6,6.2-7.6c0.2-0.5,0.3-0.9,0.4-1.4
	C192.6,58.5,192.6,58.3,192.4,58.2z"/>
<path d="M194.8,67.9c2.5-0.5,3.8-4.1,5-6.7c0-0.1,0.2-0.4,0.6-0.4c0.1,0,0.2,0.1,0.2,0.3c0,0.7,0,1.3,0,2c0,0.5,0,1,0.1,1.5
	c0.1,1,0.6,2.5,1.6,2.9c1.8,0.8,4,0.2,5.7-2.5c1.3-2,2.8-6.3,3-6.6c0.1-0.4,0.3-0.8,0.4-1.2c0-0.2-0.1-0.3-0.3-0.3
	c-0.1,0-0.2,0-0.2,0c-0.2,0.2-0.4,0.5-0.5,0.9c-0.8,2.8-3.7,8.7-5.9,8.1c-0.4-0.1-0.7-0.5-0.7-1.1c0-1.8,0-3.5,0-5.3
	c0-1.6,0-3.2-0.1-4.7c0-0.4-0.2-0.6-0.3-0.9c-0.3-0.4-0.8-0.3-1.1,0c-0.6,0.6-0.5,1.1-0.7,2.4c-0.2,0.3-0.3,0.6-0.4,0.9
	c-0.4,0.9-0.9,1.8-1.4,2.6c-1.4,2.6-2.3,4.7-3.8,5.9c-0.5,0.4-1.5,0.3-1.7-0.6c-0.6-2.8-0.2-7.6,1.9-10.6c1.2-1.7,2.5-2.3,3.7-1.9
	c0.8,0.2-0.6,2.6,0.4,2.6c0.2,0,0.3,0,0.5-0.2c0.4-0.7,0.5-1.1,0.5-1.9c0-0.8-0.5-1.5-1.3-1.6c-2.1-0.3-4.6,1.3-6,3.1
	c-2.8,3.8-3.5,8.7-2.4,11.6C192.2,67.4,193.6,68.1,194.8,67.9z"/>
<path class="st0" d="M122.9,57.3c-1.6-1.5-1.9-3.6-1.9-6c2,0.1,4.4,0.6,6.2,2.3c1.8,1.7,2.3,4.1,2.4,5.5
	C127.1,59.1,124.6,58.8,122.9,57.3L122.9,57.3z M134.3,50.4c2.2-1.9,5.1-2.4,7.5-2.5c0,2.7-0.4,5-2.3,6.6c-2,1.7-5,2-8.1,2
	C131.6,55,132.1,52.3,134.3,50.4L134.3,50.4z M119.9,68.7c-0.5,0.1-0.7,0.6-0.6,1.1s0.6,0.7,1.1,0.6c3.4-1,6.3-1.7,10.2-1.7
	c4,0,8.4,0.6,11.9,1.7c0.5,0.1,0.9-0.1,1.1-0.6c0.1-0.5-0.1-0.9-0.6-1.1c-3.4-1-7.6-1.7-11.5-1.8v-8.7c3.4,0,6.8-0.3,9.2-2.4
	c2.7-2.3,2.9-5.5,2.9-8.8c0-0.5-0.4-0.9-0.9-0.9c-2.8,0-6.7,0.5-9.5,2.9c-1.8,1.6-2.7,3.6-3.1,5.4c-0.4-0.7-1-1.5-1.6-2.1
	c-2.5-2.3-5.9-2.7-8.3-2.7c-0.5,0-0.9,0.4-0.9,0.9c0,3.1,0.2,6,2.5,8.1c2.1,1.9,5,2.2,7.9,2.3V67C126,67.1,123.2,67.7,119.9,68.7
	L119.9,68.7z"/>
<rect x="117.5" y="44.4" class="st1" width="27.8" height="27.8"/>
<path class="st0" d="M30.4,41.7l-0.5,0.9c-0.1,0.3-0.4,0.5-0.7,0.6c0,0-0.2,0.1-0.4,0.1c-0.1,0-0.2,0-0.3,0c-0.3,0-0.5,0-0.6,0
	c-0.1,0-0.1,0-0.2,0h-0.2c-0.3-0.1-0.4-0.3-0.3-0.6c0-0.3,0.2-0.4,0.5-0.3h0l0.1,0h0.1l0.1,0c0,0,0.1,0,0.3,0c0,0,0.3-0.1,0.4-0.1
	c0.3-0.1,0.5-0.5,0.8-1.1c0.2-0.6,0.3-1.3,0.3-2l0-0.6l0-0.6v-0.7l0-0.3v-0.3l0.1-2.8l0.3-3.1c0-0.7,0.3-2.6,0.3-3.2l0.3-3.1
	l0.1-1.6l0.1-1.5l0.6-5.4l0.6-5.3l-0.5,5.3c-0.1,1.7-0.2,3.5-0.4,5.5l-0.1,1.5l-0.1,1.5l-0.2,3.2l-0.1,1.6L31,31l-0.2,3l0,0.7v0.7
	l0,1.4v1.3c0,0.6,0,1.1,0,1.3C30.7,40.3,30.6,41.1,30.4,41.7z M30.4,44.1c0.6-0.5,1-1.3,1.1-2.2c0.4-9.7,1.7-22.7,3.9-38.9
	c0.2-1.6-0.5-2.5-2.2-2.9c-1.7-0.3-2.8,0.1-3.6,1.4L19.2,19.1l-2.6-8l-2.7-7.9c-0.5-1.7-1.7-2.4-3.3-2.2C8.9,1.2,8,2.3,7.8,4
	L6.4,18.8L4.8,33.6c0,0.8,0.3,1.5,0.9,2.2c0.6,0.6,1.4,0.9,2.2,0.9c0.9,0,1.6-0.3,2.2-0.9c0.6-0.6,0.9-1.3,0.9-2.2l0.8-7.5l0.7-7.5
	L14,23l1.4,4.3c0.4,1.3,1.3,2,2.6,2.2c1.3,0.2,2.3-0.2,3-1.5c0.9-1.5,3-5,6.2-10.5c-1.1,9.4-1.8,17.5-2.1,24.3
	c0,0.9,0.2,1.7,0.9,2.2c0.5,0.5,1.3,0.7,2.1,0.7C29,44.9,29.7,44.6,30.4,44.1z"/>
<path class="st0" d="M44.6,14.6l0-5.8c0.7-0.3,1.5-0.5,2.3-0.7c0,0,0,0,0.1,0h1.6l0,0L49,8.2l0.4,0.1l0.1,0l0.1,0
	c0.1,0,0.4,0.2,0.4,0.2l0.3,0.2l0.2,0.1L50.6,9l0.1,0c0.1,0,0.2,0.2,0.5,0.4l0,0l0.1,0.1l0.2,0.2l0.3,0.4l0.1,0.2l0.1,0.2l0.2,0.7
	l0,0.2l0,0.2l0,0.5v0.9l-0.1,0.3c-0.2,1-0.7,2-1.4,2.8c-0.9,1-2.2,1.9-3.6,2.6c-0.6,0.3-1.6,0.7-2.8,1.2V14.6z M43.7,4.7l0.6-0.2
	l0.2-0.1l0.2,0l0.2,0l0.4-0.1l0.5-0.1l0.5,0c0.1,0,0.3,0,0.6,0c0.1,0,0.3,0,0.6,0h0.6c0.3,0,0.5,0,0.6,0H49l0.3,0L50,4.2l0.3,0.1
	l0.3,0.1l0.6,0.2l0.6,0.3l0.6,0.3L53,5.6L53.5,6c0.2,0.1,0.4,0.3,0.4,0.4l0.4,0.4l0.4,0.4l0.5,0.7l0.2,0.3l0.1,0.3
	c0,0,0.1,0.1,0.1,0.2l0.1,0.2L56,9.1c0.1,0.2,0,0.5-0.2,0.6c-0.3,0.1-0.5,0-0.6-0.2v0c0,0,0-0.1,0-0.1l-0.2-0.4
	c-0.1-0.3-0.3-0.7-0.8-1.3l-0.6-0.7l-0.4-0.4c-0.2-0.2-0.3-0.3-0.4-0.4l-1-0.7l-1.2-0.5l-0.3-0.1l-0.3-0.1l-0.6-0.1l-0.6-0.1l-0.3,0
	H48l-0.3,0h-1.4c-0.1,0-0.3,0-0.5,0l-0.9,0.1c-0.3,0-0.5,0.1-0.6,0.1L43.7,4.7z M53.7,21.9c0.5-0.4,1.1-1,1.8-1.7
	C58.1,17,58.9,13.6,58,10c-0.9-3.4-3.1-5.7-6.6-7.1c-3.4-1.3-7.1-0.7-11.2,1.8l-0.3,0.2c-0.7,0.6-1.1,1.4-1.1,2.3l0.1,28.1
	c0,0.9,0.3,1.6,0.9,2.1c0.5,0.5,1.2,0.7,2,0.7c0.7,0,1.4-0.2,2-0.7c0.6-0.5,0.9-1.2,0.9-2.1v-4.5l0-4.5c1.4-0.3,2.7-0.7,4.1-1.3
	l5.9,9.9c0.5,0.9,1.4,1.4,2.6,1.4c0.5,0,1-0.1,1.5-0.4c0.7-0.4,1.2-1,1.4-1.8c0.2-0.8,0.1-1.5-0.3-2.2L53.7,21.9z"/>
</svg>
