<?xml version="1.0" encoding="utf-8"?><svg xmlns="http://www.w3.org/2000/svg" xmlns:xlink="http://www.w3.org/1999/xlink"><symbol viewBox="0 0 16 12" id="form-email" xmlns="http://www.w3.org/2000/svg"><path fill-rule="evenodd" d="M0 11.998V.004h16.003v11.994H0zm.774-1.315l4.595-4.682L.774 1.319v9.364zm.517-9.89l5.833 5.945c.645.657 1.11.657 1.755 0L14.713.793H1.291zm13.422 10.416l-4.595-4.682c-.903.921-1.497 1.552-2.117 1.552-.619 0-1.213-.631-2.116-1.552l-4.594 4.682h13.422zm-4.079-5.208l4.595 4.682V1.319l-4.595 4.682z"/></symbol><symbol viewBox="0 0 355 261.7" id="form-msg" xmlns="http://www.w3.org/2000/svg"><path d="M317.1 0H37.9C17 0 0 17 0 37.9v153.3C0 212 17 229 37.9 229h17.4l-5.9 23.3c-.7 2.8.3 5.8 2.5 7.6 1.4 1.1 3.1 1.7 4.8 1.7 1.1 0 2.1-.2 3.2-.7l69-32h188.3c20.9 0 37.9-17 37.9-37.9V37.9C355 17 338 0 317.1 0zM340 191.1c0 12.6-10.3 22.9-22.9 22.9h-190c-1.1 0-2.2.2-3.2.7l-56.2 26 4.4-17.4c.6-2.2.1-4.6-1.3-6.5S67.3 214 65 214H37.9C25.3 214 15 203.7 15 191.1V37.9C15 25.3 25.3 15 37.9 15h279.3c12.6 0 22.9 10.3 22.9 22.9v153.2h-.1z"/><path d="M281.6 57.3H76c-3.5 0-6.4 3.4-6.4 7.5s2.9 7.5 6.4 7.5h205.6c3.5 0 6.4-3.4 6.4-7.5s-2.9-7.5-6.4-7.5zm0 50.9H76c-3.5 0-6.4 3.4-6.4 7.5s2.9 7.5 6.4 7.5h205.6c3.5 0 6.4-3.4 6.4-7.5s-2.9-7.5-6.4-7.5zm0 50.8H76c-3.5 0-6.4 3.4-6.4 7.5s2.9 7.5 6.4 7.5h205.6c3.5 0 6.4-3.4 6.4-7.5s-2.9-7.5-6.4-7.5z"/></symbol><symbol viewBox="0 0 28.2 35.3" id="form-phone" xmlns="http://www.w3.org/2000/svg"><path d="M3.7.6l-1 .7C1.4 2.3.5 3.8.2 5.6-.7 10.3 1.6 17.2 6 23.5c6.4 9.2 15.1 13.9 19.6 10.8l1-.7c.8-.5 1.3-1.4 1.5-2.3.2-.9 0-1.9-.6-2.7l-2.9-4.2c-1.1-1.6-3.3-2-4.9-.9l-1 .7c-1.1.8-3.5-.1-6.8-4.9-2.8-4.1-3-6.1-2.8-7 .1-.5.3-.8.6-1l1-.7c1.6-1.1 2-3.4.9-4.9l-3-4.2C8.1.7 7.3.2 6.3.1c-.9-.2-1.8 0-2.6.5zM7 2.7l2.9 4.2c.5.7.3 1.7-.4 2.1l-1 .7c-.8.5-1.3 1.4-1.5 2.3-.4 2.1.7 5 3.2 8.5 5.1 7.3 8.4 6.2 9.6 5.3l1-.7c.7-.5 1.6-.3 2.1.4l2.9 4.2c.5.7.3 1.7-.4 2.1l-1 .7C21 35.1 13.3 30.4 7.7 22.3 3.6 16.5 1.4 10.1 2.2 6c.2-1.4.8-2.4 1.6-3l1-.7c.4-.2.8-.3 1.2-.3.4.1.7.3 1 .7z"/></symbol><symbol viewBox="0 0 32 32" id="form-user" xmlns="http://www.w3.org/2000/svg"><path d="M16 22c5 0 9-4.9 9-11S21 0 16 0c-2.4 0-4.7 1.2-6.4 3.3C7.9 5.4 7 8.1 7 11c0 6.1 4 11 9 11zm0-20c3.9 0 7 4 7 9s-3.1 9-7 9-7-4-7-9 3.1-9 7-9zm7 18c-.6 0-1 .4-1 1s.4 1 1 1c3.9 0 7 3.1 7 7 0 .6-.4 1-1 1H3c-.6 0-1-.4-1-1 0-3.9 3.1-7 7-7 .6 0 1-.4 1-1s-.4-1-1-1c-5 0-9 4-9 9 0 1.7 1.3 3 3 3h26c1.7 0 3-1.3 3-3 0-5-4-9-9-9z"/></symbol><symbol viewBox="0 0 512 512" id="icon-download" xmlns="http://www.w3.org/2000/svg"><path d="M0 475.4h512V512H0v-36.6zm420.5-237.7l-25.8-25.9-120.4 120.5V0h-36.6v332.3L117.2 211.8l-25.7 25.9L256 402.3l164.5-164.6z"/></symbol><symbol viewBox="0 0 512 384" id="icon-envelope" xmlns="http://www.w3.org/2000/svg"><path d="M464 0H48C21.5 0 0 21.5 0 48v288c0 26.5 21.5 48 48 48h416c26.5 0 48-21.5 48-48V48c0-26.5-21.5-48-48-48zm0 32c2.2 0 4.2.5 6.1 1.2L256 218.8 41.9 33.2c1.9-.8 4-1.2 6.1-1.2h416zm0 320H48c-8.8 0-16-7.2-16-16V67l213.5 185c3 2.6 6.8 3.9 10.5 3.9s7.5-1.3 10.5-3.9L480 67v269c0 8.8-7.2 16-16 16z"/></symbol><symbol viewBox="0 0 512 512" id="icon-insta" xmlns="http://www.w3.org/2000/svg"><path d="M373.4 0H138.6C62.2 0 0 62.2 0 138.6v234.8C0 449.8 62.2 512 138.6 512h234.8c76.4 0 138.6-62.2 138.6-138.6V138.6C512 62.2 449.8 0 373.4 0zM482 373.4c0 59.9-48.7 108.6-108.6 108.6H138.6C78.7 482 30 433.3 30 373.4V138.6C30 78.7 78.7 30 138.6 30h234.8C433.3 30 482 78.7 482 138.6v234.8z"/><path d="M256 116c-77.2 0-140 62.8-140 140s62.8 140 140 140 140-62.8 140-140-62.8-140-140-140zm0 250c-60.6 0-110-49.3-110-110 0-60.6 49.3-110 110-110 60.6 0 110 49.3 110 110 0 60.6-49.4 110-110 110zM399.3 66.3c-22.8 0-41.4 18.6-41.4 41.4 0 22.8 18.6 41.4 41.4 41.4s41.4-18.6 41.4-41.4-18.5-41.4-41.4-41.4zm0 52.7c-6.3 0-11.4-5.1-11.4-11.4 0-6.3 5.1-11.4 11.4-11.4 6.3 0 11.4 5.1 11.4 11.4 0 6.3-5.1 11.4-11.4 11.4z"/></symbol><symbol viewBox="0 0 512 512" id="icon-no-contact" xmlns="http://www.w3.org/2000/svg"><path d="M256.6 0C115.2 0 .6 114.6.6 256s114.6 256 256 256 256-114.6 256-256C512.4 114.7 397.9.2 256.6 0zm0 494.9c-132 0-238.9-107-238.9-238.9s107-238.9 238.9-238.9S495.5 124 495.5 256c-.2 131.9-107 238.8-238.9 238.9z"/><path d="M396.2 233.4c-6.7-4.3-14.8-5.8-22.5-4-7.7 1.7-14.5 6.4-18.8 13.1l-21.5 33.7v-163c0-16.5-13.4-29.8-29.9-29.9-4.4 0-8.8 1-12.8 3v-5.2c0-16.5-13.4-29.9-29.9-29.9s-29.9 13.4-29.9 29.9v5.2c-4-2-8.4-3-12.8-3-16.5.1-29.9 13.5-29.9 30v5.2c-4-2-8.4-3-12.8-3-7.9 0-15.5 3.2-21.1 8.7-5.6 5.6-8.8 13.2-8.7 21.1v221.5c0 42.4 34.4 76.8 76.8 76.8h32.7c26.2.1 50.7-13.3 64.7-35.5l85.4-133.7c9-13.7 4.9-32.2-9-41zm-5.2 32l-85.4 133.7c-10.9 17.2-29.9 27.6-50.3 27.6h-32.7c-33 0-59.7-26.8-59.7-59.7V145.4c0-3.4 1.3-6.7 3.7-9.1 3.7-3.7 9.2-4.7 14-2.7 4.8 2 7.9 6.7 7.8 12v85.8c0 4.7 3.8 8.5 8.5 8.5s8.5-3.8 8.5-8.5v-118c0-4.6 2.4-8.9 6.4-11.2s8.9-2.3 12.9 0 6.4 6.6 6.4 11.2v118c0 4.7 3.8 8.5 8.5 8.5s8.5-3.8 8.5-8.5V81.2c0-4.6 2.4-8.9 6.4-11.2 4-2.3 8.9-2.3 12.9 0s6.4 6.6 6.4 11.2v150.2c0 4.7 3.8 8.5 8.5 8.5s8.5-3.8 8.5-8.5v-118c0-3.5 1.4-6.8 3.8-9.2 2.4-2.4 5.6-3.8 9-3.8 7.1 0 12.8 5.7 12.8 12.8v192.1c0 .3.1.6.2.9.1.6.2 1.1.3 1.7.5 1.6 1.5 3 2.8 4l.6.6c.2.1.4.1.6.2 1 .5 2.1.8 3.3 1 .2 0 .5.1.7.1.3 0 .6-.1.9-.2.6-.1 1.1-.2 1.7-.3 1-.3 2-.8 2.8-1.5.5-.4.9-.8 1.2-1.3l.6-.6 37.2-58.2c3.8-5.9 11.7-7.7 17.7-3.9s7.7 11.6 4 17.6z"/><path d="M77.188 93.099L88.43 81.856 435.9 429.325l-11.243 11.243z"/></symbol><symbol id="icon-viber" viewBox="0 0 100 108" xml:space="preserve" xmlns="http://www.w3.org/2000/svg"><style>.ist0{fill:#834995}</style><path class="ist0" d="M91.6 60.5C89 82.4 73.3 83.8 70.4 84.8c-1.2.4-12.7 3.3-27 2.4l-15.6 17.3V84.6h-.1c-20.9-6-20.2-28.3-20-40 .2-11.7 2.4-21.3 8.8-27.8 11.5-10.6 35.1-9 35.1-9 20 .1 29.5 6.2 31.7 8.3 7.3 6.4 11.1 21.8 8.3 44.4m-2.9-50C86.1 8.1 75.5.2 51.9.1c0 0-27.8-1.7-41.4 11C3 18.8.3 30.1.1 44.1c-.3 14-.6 40.3 24.1 47.4v10.9s-.2 4.4 2.7 5.3c3.4 1.1 5.4-2.3 8.7-5.9 1.8-2 4.3-4.9 6.1-7.1 16.9 1.5 29.9-1.9 31.4-2.4 3.4-1.1 22.7-3.7 25.9-29.9 3.2-27-1.6-44.2-10.3-51.9"/><path class="ist0" d="M73.6 63.8s-3.2-2.7-4.7-3.9c-1.5-1.1-3.8-2.6-5.1-3.3-2.3-1.3-4.7-.5-5.7.8l-2 2.6c-1 1.3-2.7 1.1-3.1 1-3-.8-6.2-2.6-9.5-5.8s-5.3-6.6-6-10l-.1-.2c-.2-1.4 0-2.1.6-3.1l.1-.1c1.4-1.3 3.9-2.8 4.3-4.3 1-2.6-3.4-8-4-8.9 0 0-3.2-4.2-4.3-5-1.2-1-3.1-1.6-5-.4H29c-5.5 3.7-7.4 5.8-6.9 9l.3 1.3c2.8 8.7 8.1 18.1 16.1 26.4 7.9 8.1 16.5 13 24.9 16.4 2.2.7 4.5.1 6.8-1.9 1.8-1.7 3.2-3.5 4.2-5.4 1.1-2 .7-3.9-.8-5.2M60.5 44.6c-.3 0-.6-.3-.6-.6-.1-2.3-.7-4-1.8-5.2s-2.7-1.8-4.8-1.9c-.3 0-.6-.3-.6-.7s.3-.6.7-.6c2.5.1 4.4.9 5.7 2.3 1.3 1.4 2 3.4 2.2 6-.1.4-.4.7-.8.7"/><path class="ist0" d="M66.7 46.8c-.4 0-.6-.3-.6-.7.1-4.3-1.2-8-3.8-10.9-1.3-1.5-2.9-2.6-4.7-3.4-1.8-.8-3.9-1.3-6.3-1.5-.3 0-.6-.3-.6-.7 0-.4.3-.6.7-.6 5 .4 9 2.2 11.8 5.3 2.8 3.2 4.2 7.1 4.1 11.8.1.4-.2.7-.6.7"/><path class="ist0" d="M73.1 49.3c-.3 0-.6-.3-.6-.6 0-3.8-.6-7.3-1.7-10.3s-2.8-5.6-5-7.8-4.7-3.9-7.4-5-5.8-1.7-9.1-1.7c-.3 0-.6-.3-.6-.6 0-.4.3-.6.6-.6 6.9.1 12.7 2.4 17.4 7.1 2.3 2.3 4.1 5.1 5.3 8.3 1.2 3.2 1.8 6.8 1.8 10.8 0 .1-.3.4-.7.4z"/></symbol><symbol viewBox="0 0 100 100.5" id="icon-wa" xmlns="http://www.w3.org/2000/svg"><path class="jst0" d="M85.4 14.6C76 5.2 63.5 0 50.2 0 22.8 0 .4 22.3.4 49.8c0 8.8 2.3 17.3 6.6 24.9l-7 25.8 26.4-6.9c7.3 4 15.5 6.1 23.8 6.1 27.4 0 49.8-22.3 49.8-49.8 0-13.4-5.2-25.9-14.6-35.3zM50.2 91.2c-7.4 0-14.7-2-21.1-5.8l-1.5-.9L12 88.7l4.2-15.3-1-1.6c-4.1-6.6-6.3-14.2-6.3-22C8.8 27 27.4 8.4 50.2 8.4c11.1 0 21.4 4.3 29.3 12.1 7.8 7.8 12.1 18.2 12.1 29.3 0 22.8-18.6 41.4-41.4 41.4zm22.7-31c-1.2-.6-7.4-3.6-8.5-4s-2-.6-2.8.6c-.8 1.2-3.2 4-3.9 4.9-.7.8-1.5.9-2.7.3s-5.3-1.9-10-6.2c-3.7-3.3-6.2-7.4-6.9-8.6s-.1-1.9.5-2.5 1.2-1.5 1.9-2.2c.6-.7.8-1.2 1.2-2.1.4-.8.2-1.6-.1-2.2-.3-.6-2.8-6.7-3.8-9.2-1-2.4-2-2.1-2.8-2.1h-2.4c-.8 0-2.2.3-3.3 1.6-1.1 1.2-4.4 4.3-4.4 10.4s4.5 12 5.1 12.9c.6.8 8.8 13.4 21.3 18.8 3 1.3 5.3 2 7.1 2.6 3 .9 5.7.8 7.8.5 2.4-.4 7.4-3 8.4-5.9s1-5.4.7-5.9c-.3-.8-1.1-1.1-2.4-1.7z"/></symbol><symbol viewBox="0 0 270.4 98.1" id="iconSheer"><path d="M175.1 51.8c.2 1.2.3 2.1.5 3 2 8.4 8.6 14 17.2 14.7 7.6.6 13.6-2.3 18-8.5 2.2-3 5.7-3.5 8.5-1.1 1.6 1.4 1.8 3.2.5 4.9-.7.9-1.4 1.8-2.1 2.8-2.9 4-6.7 6.7-11.4 8.3-7.6 2.6-15.2 3-22.7.2-10.1-3.7-16.1-11.1-17.8-21.7-1-6.5-.4-13 2.6-18.9 4.3-8.4 11.1-13.6 20.5-15.1 6.2-1 12.4-.4 18.2 2.4 8.2 3.9 13.2 10.5 15.1 19.3.5 2.4.7 4.9.9 7.3.2 1.5-.5 2.2-2.1 2.3h-44.1c-.4.1-.9.1-1.8.1zm38.3-9.2c-1.2-7.9-10.7-14.7-19.4-14.2-9.1.5-18.2 7.5-18.5 14.2h37.9zm-101 9c.1.8.2 1.4.3 2 1.7 9.3 9.3 15.7 18.7 15.9 7.1.1 12.7-2.8 16.8-8.6 2.2-3.1 6.1-3.4 8.8-.7 1.3 1.4 1.5 3 .3 4.6-.5.8-1.1 1.5-1.7 2.2-3.1 4.5-7.3 7.4-12.5 9.1-7.6 2.5-15.2 2.7-22.5-.2-10.6-4.1-16.4-12.1-17.6-23.3-.6-5.4-.1-10.7 2.2-15.6 4.3-9.4 11.4-15.2 21.8-16.6 5.5-.7 11-.3 16.1 1.8 9.2 3.8 14.6 10.9 16.6 20.6.4 2.2.6 4.5.7 6.7.1 1.8-.3 2.2-2.2 2.2h-43.5c-.7-.1-1.4-.1-2.3-.1zm38.4-9.1c-1.2-7.8-10.4-14.4-19.4-14.2-8.8.2-17.9 7.2-18.6 14.2h38zm101 13.5c.7.6 1.1 1 1.5 1.4 4.9 4.2 9.8 8.3 14.6 12.5.3.3.7.6 1 .9 1.8 1.8 2 4.4.3 6.2-1.6 1.8-4.2 2.1-6.1.5-3.4-2.8-6.7-5.7-10-8.5-4.8-4.1-9.5-8.1-14.3-12.2-.4-.4-.9-.7-1.6-1.3 0 1-.1 1.6-.1 2.3v36.1c-.2 2.5-2.1 4.3-4.6 4.2-2.4-.1-4.1-1.9-4.2-4.4V21.9c0-1.6.2-1.9 1.7-1.9 2.1-.1 4.2-.1 6.2-.1 5 0 10.1.2 15.1-.1 8.4-.4 17.8 6.4 18.7 16.3.8 8.9-5.2 17.3-14.3 19.1-1.1.2-2.3.5-3.9.8zm-15.3-6.9c.5.1.9.1 1.2.1h12.6c1.2 0 2.4-.1 3.6-.5 3.9-1.2 7-3.5 8-7.7 1.7-7.1-3.6-13.7-10.9-13.7h-13c-.5 0-1 .1-1.5.1v21.7zM88.5 52H63.9c0 .7-.1 1.4-.1 2v18.9c0 .8 0 1.6-.2 2.3-.6 1.9-2.6 3.1-4.5 3-2.1-.2-3.8-1.8-4.1-3.9-.1-.5 0-1 0-1.5V5.4c0-.9.1-1.8.4-2.6.6-2 2.6-3 4.7-2.8 1.9.3 3.5 2 3.7 3.9.1.6 0 1.2 0 1.8v34.7c0 .7.1 1.4.1 2 1.5.4 22.9.4 24.5 0 0-.5.1-1.1.1-1.7V23.9c.2-2.3 1.9-4 4.2-4.1 2.3-.1 4.3 1.6 4.6 3.9.1.5 0 1 0 1.5v48.9c-.3 2.3-2.3 4.1-4.5 4-2.3-.1-4.1-1.9-4.3-4.2V52zM25 78.3c-5.9-.1-11.4-1.4-16.5-4.4-2.2-1.3-4.2-2.9-5.8-4.8-.8-1-1.6-2.1-2.2-3.3-1-1.9-.6-3.4.9-4.9 1.7-1.6 4.1-2.3 6.4-.7C9 61 10 62 10.9 63c.9.9 1.6 1.9 2.5 2.8 2.7 2.7 6 4.2 9.8 4.6 3.5.4 7 .3 10.4-.9 1.4-.5 2.8-1.2 4-2.1 2.9-2.2 3-5.9.2-8.2-1.3-1.1-2.9-1.9-4.5-2.6-4-1.7-8.1-2.9-12.3-4-3.4-.8-6.7-1.9-10.1-2.9-1.3-.4-2.5-1.1-3.7-1.7-3.2-1.7-5-4.4-5.5-7.9-1-7.1 1.7-12.8 8.1-15.9 9.8-4.8 19.7-5.2 29.4.4 1.8 1 3.5 2.5 5.1 3.9 1.2 1 2 2.5 2.5 4 .8 2.6-.5 3.9-2.8 4.4-2 .4-3.8-.2-5.2-1.7-.3-.3-.5-.6-.7-.9-2.3-3.4-5.6-5.3-9.6-6.1-4-.7-8-.6-11.8.9-1.4.5-2.8 1.3-3.9 2.3-2.7 2.3-2.7 5.4-.1 7.8 1.7 1.6 3.7 2.5 5.9 3 4.8 1.2 9.7 2.4 14.5 3.6 3.1.8 6.1 1.8 8.9 3.4 3.6 1.9 6.2 4.7 7.1 8.8 1.1 5 0 9.4-3.9 13-4.4 4-9.5 6.3-15.4 7-1.7.1-3.3.2-4.8.3z"/></symbol></svg>