<svg id="Layer_1" xmlns="http://www.w3.org/2000/svg" viewBox="0 0 512 512"><style>.st3{fill:#ff5a73}</style><path d="M393.5 239c10.9-25.9-2-71.5-30-83.1 0 0-9.5-63.3-63.3-63.3s-57.9 63.3-23.8 79.7c0 0 12.3 35.4 54.5 35.4s42.2 31.3 42.2 31.3l9 9 11.4-9z" fill="#65687f"/><path d="M104.9 239h288.7v69.4H104.9V239z" fill="#d8edf7"/><path d="M104.9 279.9h288.7v28.6H104.9v-28.6z" fill="#a8c3cf"/><path class="st3" d="M362.2 239h31.3v69.4h-31.3V239z"/><path d="M362.2 279.9h31.3v28.6h-31.3v-28.6z" fill="#d4243e"/><path d="M104.9 239h79v69.4h-79V239z" fill="#f2b375"/><path d="M104.9 279.9h79v28.6h-79v-28.6z" fill="#e09544"/><path class="st3" d="M256 0C114.6 0 0 114.6 0 256s114.6 256 256 256 256-114.6 256-256S397.4 0 256 0zM46 256c0-71.2 35.4-134 89.6-172L336 450.1c-24.7 10.2-51.7 15.8-80 15.8C140 466 46 372 46 256zm330.4 172L176 61.9C200.6 51.7 227.7 46 256 46c116 0 209.9 94 209.9 210 0 71.2-35.4 134-89.5 172z"/></svg>