<svg id="Layer_1" xmlns="http://www.w3.org/2000/svg" viewBox="0 0 512 512"><style>.st0{fill:#3a3d51}.st1{fill:#65687f}</style><path class="st0" d="M234.7 318.8h-52.9c-4.3 0-7.8-3.5-7.8-7.8s3.5-7.8 7.8-7.8h52.9c10.7 0 20.1-7.3 22.7-17.7l5.3-20.8c1.1-4.2 5.3-6.7 9.5-5.7 4.2 1.1 6.7 5.3 5.7 9.5l-5.3 20.8c-4.3 17.4-19.9 29.5-37.9 29.5z"/><path class="st0" d="M222.1 292c-.6 0-1.3-.1-1.9-.2-4.2-1.1-6.7-5.3-5.7-9.5l3.9-15.3c1.1-4.2 5.3-6.7 9.5-5.7 4.2 1.1 6.7 5.3 5.7 9.5l-3.9 15.3c-.9 3.5-4.1 5.9-7.6 5.9zM172.4 236.8c-4.3 0-7.8-3.5-7.8-7.8 0-34.9-29.4-42.1-30.6-42.4-4.2-1-6.8-5.2-5.9-9.4.9-4.2 5.1-6.9 9.3-5.9 14.8 3.3 42.9 19.5 42.9 57.7-.1 4.3-3.6 7.8-7.9 7.8zM341.5 175.7l34.5-29.3c7.7-6.6 19.6-1.1 19.6 9.1v20.2l-34 8.2-20.1-8.2z"/><path class="st1" d="M414.5 226.8v-51.1h-224c0 28.2-22.9 51.1-51.1 51.1h-2s-81 107.2-23.5 139.5c39.6 22.3 78.1-16.5 78.1-55.3s33.2-44.4 55.7-44.4h124.8v-39.8h42z"/><path class="st0" d="M234.6 203.3h179.9v23.5H234.6v-23.5zM254.4 249.4h118v17.1h-118v-17.1z"/><path d="M203.3 280.3C196.5 287 192 296.8 192 311c0 38.8-38.5 77.5-78.1 55.3-36.5-20.5-17.1-71.3 1.8-105.6 10.5-17.7 78.8-19.9 87.6 19.6z" fill="#f2b375"/><path class="st0" d="M135 366c-50.6-29.8 6.1-120.5 20.4-141.8-5 1.7-10.4 2.6-16 2.6h-2s-81 107.2-23.5 139.5c11.9 6.7 23.7 7.9 34.3 5.2-4.3-1.1-8.8-2.9-13.2-5.5z"/><path d="M135 366c-36.5-21.5-17.1-74.7 1.8-110.7 1.4-2.4 3.8-4.6 6.9-6.4-13.1 1.2-24.2 5.5-28 11.8-19 34.3-38.3 85.1-1.8 105.6 11.9 6.7 23.7 7.9 34.3 5.2-4.3-1.1-8.8-2.9-13.2-5.5z" fill="#e09544"/><path class="st1" d="M140.5 335.7c-7 0-10.4-8.9-5.3-13.6 2.6-2.4 6.6-2.7 9.6-.7 2.6 1.7 3.9 5 3.3 8-.6 3.6-3.9 6.3-7.6 6.3zM155.9 282.6c-3.3 0-6.3-2.1-7.4-5.2-1.2-3.2 0-6.9 2.7-8.9 5.6-4.2 13.7.9 12.3 7.8-.6 3.6-3.9 6.3-7.6 6.3z"/><path d="M256 0C114.6 0 0 114.6 0 256s114.6 256 256 256 256-114.6 256-256S397.4 0 256 0zM46 256c0-71.2 35.4-134 89.6-172L336 450.1c-24.7 10.2-51.7 15.8-80 15.8C140 466 46 372 46 256zm330.4 172L176 61.9C200.6 51.7 227.7 46 256 46c116 0 209.9 94 209.9 210 0 71.2-35.4 134-89.5 172z" fill="#ff5a73"/></svg>