<svg id="Layer_1" xmlns="http://www.w3.org/2000/svg" viewBox="0 0 512 512"><style>.st0{fill:#d8edf7}.st1{fill:#a8c3cf}.st4{fill:#ff5a73}</style><path class="st0" d="M256 425.2c-4.3 0-7.8-3.5-7.8-7.8l-9.6-125.3c0-3.2 13.1-7.8 17.5-7.8s17.5 4.7 17.5 7.8L264 417.4c-.2 4.3-3.7 7.8-8 7.8z"/><path class="st1" d="M256 425.2c-4.3 0-7.8-3.5-7.8-7.8l-9.6-125.3c0-3.2 13.2-7.8 17.5-7.8-1.3 0-5.1 4.7-5.1 7.8l2.8 125.3c-.1 4.3.9 7.8 2.2 7.8z"/><path class="st0" d="M364.8 194.3c0 66.3-48.7 120.1-108.8 120.1s-108.8-53.8-108.8-120.1c0-23 5.9-55.4 16-87.9h185.5c10.2 32.6 16.1 64.9 16.1 87.9z"/><path class="st1" d="M320.5 291c-18 14.7-40.3 23.4-64.5 23.4-60.1 0-108.8-53.8-108.8-120.1 0-23 5.9-55.4 16-87.9H207c-5.4 32.5-8.5 64.9-8.5 87.9 0 66.3 25.7 109.6 57.5 109.6 15.7.1 39.7 2.8 64.5-12.9z"/><path d="M364.8 194.3c0 66.3-48.7 120.1-108.8 120.1s-108.8-53.8-108.8-120.1h217.6z" fill="#d4243e"/><path d="M320.5 291c-1.7 1.4-3.5 2.8-5.3 4.1-.4.3-.9.6-1.3.9-.2.2-.5.3-.7.5-.4.3-.8.6-1.3.9-1.5 1-3 1.9-4.5 2.8-.6.4-1.2.7-1.9 1.1-.1.1-.2.1-.3.1-.6.3-1.1.6-1.7 1-.2.1-.5.3-.7.4-.7.4-1.4.7-2.1 1.1-.7.4-1.5.7-2.2 1.1-.1 0-.1.1-.2.1-.8.4-1.5.7-2.3 1-.2.1-.4.2-.5.2-.6.3-1.2.5-1.8.7-.2.1-.4.2-.7.3-.7.3-1.5.6-2.2.9-.8.3-1.7.6-2.5.9-1 .3-2 .7-3 1-.7.2-1.3.4-2 .6-.1 0-.3.1-.4.1-.6.2-1.2.3-1.8.5-1 .3-2.1.5-3.1.8-.7.2-1.4.3-2.1.5-.6.1-1.3.3-2 .4-.1 0-.3.1-.4.1-.6.1-1.2.2-1.9.3-.1 0-.3.1-.4.1l-1.8.3c-1 .1-1.9.3-2.9.3-.7.1-1.5.2-2.2.2-.7.1-1.4.1-2.2.2-.4 0-.8.1-1.2.1-.7.1-1.4.1-2.2.1h-2.8c-1.8 0-3.7-.1-5.6-.2-57.5-3.2-103.2-55.7-103.2-119.9h51.3c0 66.3 25.7 109.6 57.5 109.6 15.8-.2 39.8 2.5 64.6-13.2z" fill="#d61616"/><path class="st4" d="M256 0C114.6 0 0 114.6 0 256s114.6 256 256 256 256-114.6 256-256S397.4 0 256 0zM46 256c0-71.2 35.4-134 89.6-172L336 450.1c-24.7 10.2-51.7 15.8-80 15.8C140 466 46 372 46 256zm330.4 172L176 61.9C200.6 51.7 227.7 46 256 46c116 0 209.9 94 209.9 210 0 71.2-35.4 134-89.5 172z"/><path class="st1" d="M304.1 418.8c0 4.3-3.5 7.8-7.8 7.8h-80.6c-4.3 0-7.8-3.5-7.8-7.8s3.5-7.8 7.8-7.8h80.6c4.3-.1 7.8 3.4 7.8 7.8z"/><path class="st0" d="M304.1 418.8c0 4.3-3.5 7.8-7.8 7.8h-59c-4.3 0-7.8-3.5-7.8-7.8s3.5-7.8 7.8-7.8h59c4.3-.1 7.8 3.4 7.8 7.8z"/><path d="M342.1 195.4c0-21.8-9.1-39.5-20.4-39.5-11.3 0-20.4 17.7-20.4 39.5s9.1 39.5 20.4 39.5c11.3 0 20.4-17.7 20.4-39.5z" fill="#dae6ea"/><path class="st4" d="M342.1 195.4c0 21.8-9.1 39.5-20.4 39.5-11.3 0-20.4-17.7-20.4-39.5v-1.1h40.8v1.1z"/></svg>