<svg id="Layer_1" xmlns="http://www.w3.org/2000/svg" viewBox="0 0 512 512"><style>.st0{fill:#33a39d}.st1{fill:#71c799}</style><path class="st0" d="M256 422.9c-4.3 0-7.8-3.5-7.8-7.8V295c0-4.3 3.5-7.8 7.8-7.8s7.8 3.5 7.8 7.8v120c0 4.4-3.5 7.9-7.8 7.9z"/><path class="st0" d="M234.8 339.6c13-14.3 20-31.9 21.2-49.8-17.7 2.8-34.6 11.4-47.6 25.7-13 14.3-20 31.9-21.2 49.8 17.7-2.8 34.6-11.4 47.6-25.7zM277.2 339.6c-13-14.3-20-31.9-21.2-49.8 17.7 2.8 34.6 11.4 47.6 25.7 13 14.3 20 31.9 21.2 49.8-17.7-2.8-34.6-11.4-47.6-25.7z"/><path class="st1" d="M224 198.5c0 34.5 12 66.3 32 91.3 20-25 32-56.8 32-91.3S276 106.1 256 81c-20 25-32 82.9-32 117.5z"/><path class="st0" d="M168.8 247.8c24.4 24.4 55.3 38.4 87.2 42-3.6-31.9-17.5-62.8-42-87.2-24.4-24.4-55.3-38.4-87.2-42 3.6 31.9 17.6 62.8 42 87.2zM343.2 247.8c-24.4 24.4-55.3 38.4-87.2 42 3.6-31.9 17.5-62.8 42-87.2 24.4-24.4 55.3-38.4 87.2-42-3.6 31.9-17.6 62.8-42 87.2z"/><path class="st1" d="M164.7 321.8c34.5 0 66.3-12 91.3-32-25-20-56.8-32-91.3-32s-66.3 12-91.3 32c25 20 56.7 32 91.3 32zM347.3 321.8c-34.5 0-66.3-12-91.3-32 25-20 56.8-32 91.3-32s66.3 12 91.3 32c-25 20-56.7 32-91.3 32z"/><path d="M256 0C114.6 0 0 114.6 0 256s114.6 256 256 256 256-114.6 256-256S397.4 0 256 0zM46 256c0-71.2 35.4-134 89.6-172L336 450.1c-24.7 10.2-51.7 15.8-80 15.8C140 466 46 372 46 256zm330.4 172L176 61.9C200.6 51.7 227.7 46 256 46c116 0 209.9 94 209.9 210 0 71.2-35.4 134-89.5 172z" fill="#ff5a73"/></svg>