<svg id="Layer_1" xmlns="http://www.w3.org/2000/svg" viewBox="0 0 512 512"><style>.st0{fill:#8db0ff}.st1{fill:#669af7}.st4{fill:#636363}</style><path class="st0" d="M512 256c0 141.4-114.6 256-256 256S0 397.4 0 256 114.6 0 256 0s256 114.6 256 256z"/><path class="st1" d="M428 66.4c41.2 45.4 66.4 105.8 66.4 172 0 141.4-114.6 256-256 256-66.2 0-126.5-25.1-172-66.4 46.8 51.6 114.5 84 189.6 84 141.4 0 256-114.6 256-256 0-75.2-32.4-142.8-84-189.6z"/><path d="M460 256c0 112.6-91.3 204-204 204S52 368.6 52 256 143.4 52 256 52s204 91.4 204 204z" fill="#ddf5ff"/><path d="M390.3 102.5c31.4 35.9 50.4 82.9 50.4 134.3 0 112.6-91.3 204-204 204-51.4 0-98.4-19-134.3-50.4C139.9 433 194.8 460 256 460c112.6 0 204-91.3 204-204 0-61.2-27-116.1-69.7-153.5z" fill="#c1e9f4"/><path class="st4" d="M272.6 256h-33.3V122.8c0-9.2 7.5-16.6 16.6-16.6s16.6 7.5 16.6 16.6V256z"/><path class="st4" d="M188.2 339.9c-6.5 6.5-17 6.5-23.5 0s-6.5-17 0-23.5l72.1-72.1 23.5 23.5-72.1 72.1z"/><path d="M351.6 367.7l-85.5-85.5c-3.1-3-3.1-8 0-11 3-3 8-3 11 0l85.5 85.5c3.1 3.1 3.1 8 0 11-1.5 1.5-3.5 2.3-5.5 2.3-2-.1-4-.8-5.5-2.3z" fill="#ff6969"/><path class="st4" d="M263.8 52.2v20.7c0 4.3-3.5 7.8-7.8 7.8s-7.8-3.5-7.8-7.8V52.2c2.6-.1 5.2-.1 7.8-.1s5.2 0 7.8.1zM168.3 104.1c-1.2.7-2.6 1.1-3.9 1.1-2.7 0-5.3-1.4-6.8-3.9l-10.3-17.9c4.4-2.8 8.9-5.4 13.5-7.8l10.4 17.9c2.1 3.7.9 8.5-2.9 10.6zM104.1 168.3c-1.4 2.5-4.1 3.9-6.8 3.9-1.3 0-2.7-.3-3.9-1l-17.9-10.4c2.4-4.6 5-9.1 7.8-13.5l17.9 10.3c3.8 2.2 5.1 7 2.9 10.7zM80.6 256c0 4.3-3.5 7.8-7.8 7.8H52.2c-.1-2.6-.1-5.2-.1-7.8s.1-5.2.1-7.8h20.7c4.3 0 7.7 3.5 7.7 7.8zM101.3 354.3l-17.9 10.3c-2.8-4.4-5.4-8.9-7.8-13.5l17.9-10.4c3.7-2.2 8.5-.9 10.7 2.9 2.1 3.8.8 8.6-2.9 10.7zM171.2 418.5l-10.4 17.9c-4.6-2.4-9.1-5-13.5-7.8l10.3-17.9c2.2-3.7 6.9-5 10.7-2.9 3.8 2.2 5 7 2.9 10.7zM263.8 439.2v20.7c-2.6.1-5.2.1-7.8.1s-5.2-.1-7.8-.1v-20.7c0-4.3 3.5-7.8 7.8-7.8s7.8 3.4 7.8 7.8zM364.7 428.6c-4.4 2.8-8.9 5.4-13.5 7.8l-10.4-17.9c-2.2-3.7-.9-8.5 2.9-10.7 3.7-2.2 8.5-.9 10.7 2.9l10.3 17.9zM436.4 351.2c-2.4 4.6-5 9.1-7.8 13.5l-17.9-10.3c-3.7-2.2-5-6.9-2.9-10.7 2.2-3.7 6.9-5 10.7-2.9l17.9 10.4zM460 256c0 2.6-.1 5.2-.1 7.8h-20.7c-4.3 0-7.8-3.5-7.8-7.8s3.5-7.8 7.8-7.8h20.7c0 2.6.1 5.2.1 7.8zM436.4 160.8l-17.9 10.4c-1.2.7-2.6 1-3.9 1-2.7 0-5.3-1.4-6.8-3.9-2.2-3.7-.9-8.5 2.9-10.7l17.9-10.3c2.8 4.4 5.4 8.9 7.8 13.5zM364.7 83.4l-10.3 17.9c-1.4 2.5-4.1 3.9-6.8 3.9-1.3 0-2.7-.3-3.9-1.1-3.7-2.2-5-6.9-2.9-10.7l10.4-17.9c4.6 2.5 9.1 5.1 13.5 7.9z"/><path class="st0" d="M287.2 256c0 17.2-14 31.2-31.2 31.2s-31.2-14-31.2-31.2 14-31.2 31.2-31.2 31.2 14 31.2 31.2z"/><path class="st1" d="M273.8 230.4c3.5 5.1 5.6 11.2 5.6 17.8 0 17.2-14 31.2-31.2 31.2-6.6 0-12.8-2.1-17.8-5.6 5.6 8.1 15 13.4 25.6 13.4 17.2 0 31.2-14 31.2-31.2 0-10.6-5.3-20-13.4-25.6z"/></svg>