<svg id="Layer_1" xmlns="http://www.w3.org/2000/svg" viewBox="0 0 512 512"><style>.st1{fill:#e09544}</style><path d="M415.2 201.3L402.6 223c-1.7 3-4.9 4.8-8.4 4.8h-61.8l-25.1 73.8 2.6 95.7h-37l-3.7-55.1c-1.2-17.9-16-31.7-34-31.7h-24.5c-25.3 0-45.8 20.5-45.8 45.8v41h-20.6c-4.6 0-8.6-3.4-9.2-8.1l-29.2-219.4c-.6-4.1 4.8-6.3 7.3-2.9l32.2 44.3c5.5 7.6 15.1 10.9 24.1 8.4l66.8-18.4 14.1-3.9 58-95.7c1.9-3.1 6.5-2.6 7.8.8l11.2 31.3 38.6 14.7c2.6 1 4.3 3.5 4.3 6.3v14.1c0 2.9 1.8 5.4 4.6 6.4l35.3 12c5.5 2 8.1 8.8 5 14.1z" fill="#f2b375"/><path class="st1" d="M270.8 235.2c4.6 52.2-26.7 29.1-26.7 29.1l-8-62.9 14.1-3.9 58-95.7c1.9-3.1 6.5-2.6 7.8.8-12.4 6.8-49.8 80.4-45.2 132.6zM332.3 227.8c-22.5 0-47 33.8-47 33.8l21.9 40 25.1-73.8zM164.8 356.3v41h-20.6c-4.7 0-8.6-3.4-9.2-8.1l-29.2-219.4c-.6-4.1 4.8-6.3 7.3-2.9l32.2 44.3c5.5 7.6 15.1 10.9 24.1 8.4-24 7.2-40.4 100.9-4.6 136.7z"/><path d="M256 0C114.6 0 0 114.6 0 256s114.6 256 256 256 256-114.6 256-256S397.4 0 256 0zM46 256c0-71.2 35.4-134 89.6-172L336 450.1c-24.7 10.2-51.7 15.8-80 15.8C140 466 46 372 46 256zm330.4 172L176 61.9C200.6 51.7 227.7 46 256 46c116 0 209.9 94 209.9 210 0 71.2-35.4 134-89.5 172z" fill="#ff5a73"/><path d="M344.2 182.2c-3.1 0-5.9-1.9-7.2-4.7-1.4-3.1-.5-6.9 2.1-9.1 5.4-4.6 13.8.1 12.8 7.1-.5 3.8-3.9 6.7-7.7 6.7z" fill="#65687f"/><path class="st1" d="M165 382h-10v15.3h10c4.2 0 7.7-3.4 7.7-7.7 0-4.2-3.5-7.6-7.7-7.6z"/></svg>