<?xml version="1.0" encoding="utf-8"?>
<!-- Generator: Adobe Illustrator 22.1.0, SVG Export Plug-In . SVG Version: 6.00 Build 0)  -->
<svg version="1.1" id="Layer_1" xmlns="http://www.w3.org/2000/svg" xmlns:xlink="http://www.w3.org/1999/xlink" x="0px" y="0px"
	 viewBox="0 0 512 512" style="enable-background:new 0 0 512 512;" xml:space="preserve" fill="#fff">
<path d="M42.7,443.7h136.5v17.1h-34.1c-18.9,0-34.1,15.3-34.1,34.1v8.5c0,4.7,3.8,8.5,8.5,8.5h273.1c4.7,0,8.5-3.8,8.5-8.5v-8.5
	c0-18.9-15.3-34.1-34.1-34.1h-34.1v-17.1h136.5c23.6,0,42.6-19.1,42.7-42.7V42.7C512,19.1,492.9,0,469.3,0H42.7
	C19.1,0,0,19.1,0,42.7v358.4C0,424.6,19.1,443.7,42.7,443.7z M384,494.9H128c0-9.4,7.6-17.1,17.1-17.1h221.9
	C376.4,477.9,384,485.5,384,494.9z M196.3,460.8v-17.1h119.5v17.1H196.3z M469.3,426.7H42.7c-14.1,0-25.6-11.5-25.6-25.6V384h477.9
	v17.1C494.9,415.2,483.5,426.7,469.3,426.7z M264.5,119.5h230.4v247.5H264.5V119.5z M494.9,42.7v59.7H264.5V17.1h204.8
	C483.5,17.1,494.9,28.5,494.9,42.7z M42.7,17.1h204.8v349.9H17.1V42.7C17.1,28.5,28.5,17.1,42.7,17.1z"/>
<path d="M307.2,85.3c14.1,0,25.6-11.5,25.6-25.6c0-14.1-11.5-25.6-25.6-25.6c-14.1,0-25.6,11.5-25.6,25.6
	C281.6,73.9,293.1,85.3,307.2,85.3z M307.2,51.2c4.7,0,8.5,3.8,8.5,8.5c0,4.7-3.8,8.5-8.5,8.5c-4.7,0-8.5-3.8-8.5-8.5
	C298.7,55,302.5,51.2,307.2,51.2z"/>
<path d="M366.9,68.3h93.9c4.7,0,8.5-3.8,8.5-8.5c0-4.7-3.8-8.5-8.5-8.5h-93.9c-4.7,0-8.5,3.8-8.5,8.5
	C358.4,64.4,362.2,68.3,366.9,68.3z"/>
<path d="M460.8,136.5H298.7c-9.4,0-17.1,7.6-17.1,17.1v76.8c0,6.7,3.9,12.7,10,15.5c0.2,0.1,0.4,0.2,0.6,0.3
	c2.1,0.9,4.3,1.3,6.5,1.3h162.1c2.3,0,4.6-0.5,6.7-1.4c0.2-0.1,0.4-0.2,0.5-0.3c6-2.8,9.8-8.8,9.8-15.4v-76.8
	C477.9,144.2,470.2,136.5,460.8,136.5z M417.4,230.4l-16-16l12.4-11.6l29.6,27.6H417.4z M382.8,219.9c0,0,0,0.1,0.1,0.1
	c0.1,0,0.1,0.1,0.2,0.1l10.2,10.2H315l39.1-39.2L382.8,219.9z M460.8,153.6v69.7l-41.1-38.4c-3.3-3.1-8.4-3.1-11.7,0l-18.7,17.4
	l-29.2-29.2c-1.6-1.6-3.8-2.5-6-2.5s-4.4,0.9-6,2.5l-49.4,49.5v-69H460.8z"/>
<path d="M349.9,298.7h-25.6c-4.7,0-8.5,3.8-8.5,8.5c0,4.7,3.8,8.5,8.5,8.5h25.6c4.7,0,8.5-3.8,8.5-8.5
	C358.4,302.5,354.6,298.7,349.9,298.7z"/>
<path d="M294.8,300.1c-0.4-0.3-0.9-0.6-1.5-0.8c-0.5-0.3-1.1-0.4-1.6-0.5c-1.1-0.3-2.2-0.3-3.2,0c-0.6,0.1-1.1,0.3-1.6,0.5
	c-0.5,0.2-1.1,0.4-1.5,0.8l-1.3,1c-1.6,1.6-2.4,3.8-2.5,6.1c0,1.1,0.2,2.2,0.7,3.2c0.4,1,1,2,1.8,2.8l1.3,1c0.5,0.3,1,0.6,1.5,0.8
	c0.5,0.3,1.1,0.4,1.6,0.5c0.5,0.1,1.1,0.2,1.6,0.2c0.5,0,1.1-0.1,1.6-0.2c0.6-0.1,1.1-0.3,1.6-0.5c0.5-0.2,1-0.4,1.5-0.8
	c0.5-0.3,0.9-0.7,1.4-1c0.8-0.8,1.4-1.8,1.8-2.8c0.4-1,0.7-2.1,0.7-3.2c0-2.3-0.9-4.4-2.5-6.1C295.8,300.8,295.3,300.5,294.8,300.1z
	"/>
<path d="M349.9,264.5h-25.6c-4.7,0-8.5,3.8-8.5,8.5c0,4.7,3.8,8.5,8.5,8.5h25.6c4.7,0,8.5-3.8,8.5-8.5
	C358.4,268.4,354.6,264.5,349.9,264.5z"/>
<path d="M294.8,266c-0.4-0.3-0.9-0.6-1.5-0.8c-0.5-0.3-1.1-0.4-1.6-0.5c-1.1-0.3-2.2-0.3-3.2,0c-0.6,0.1-1.1,0.2-1.6,0.5
	c-0.5,0.2-1.1,0.4-1.5,0.8l-1.3,1c-1.6,1.6-2.4,3.8-2.5,6c0,1.1,0.2,2.2,0.7,3.2c0.4,1,1,2,1.8,2.8l1.3,1c0.5,0.3,1,0.6,1.5,0.8
	c0.5,0.3,1.1,0.4,1.6,0.5c0.5,0.1,1.1,0.2,1.6,0.2c0.5,0,1.1-0.1,1.6-0.2c0.6-0.1,1.1-0.3,1.6-0.5c0.5-0.2,1-0.4,1.5-0.8
	c0.5-0.3,0.9-0.7,1.4-1c0.8-0.8,1.4-1.8,1.8-2.8c0.4-1,0.7-2.1,0.7-3.2c0-2.3-0.9-4.4-2.5-6.1C295.8,266.7,295.3,266.4,294.8,266z"
	/>
<path d="M349.9,332.8h-25.6c-4.7,0-8.5,3.8-8.5,8.5c0,4.7,3.8,8.5,8.5,8.5h25.6c4.7,0,8.5-3.8,8.5-8.5
	C358.4,336.6,354.6,332.8,349.9,332.8z"/>
<path d="M294.8,334.3c-0.4-0.3-0.9-0.6-1.5-0.8c-0.5-0.3-1.1-0.4-1.6-0.5c-1.1-0.3-2.2-0.3-3.2,0c-0.6,0.1-1.1,0.2-1.6,0.5
	c-0.5,0.2-1.1,0.5-1.5,0.8l-1.3,1c-1.6,1.6-2.4,3.8-2.5,6c0,1.1,0.2,2.2,0.7,3.2c0.4,1,1,2,1.8,2.8l1.3,1c0.5,0.3,1,0.6,1.5,0.8
	c0.5,0.3,1.1,0.4,1.6,0.5c0.5,0.1,1.1,0.2,1.6,0.2c0.5,0,1.1-0.1,1.6-0.2c0.6-0.1,1.1-0.3,1.6-0.5c0.5-0.2,1-0.4,1.5-0.8
	c0.5-0.3,0.9-0.7,1.4-1c0.8-0.8,1.4-1.8,1.8-2.8c0.4-1,0.7-2.1,0.7-3.2c0-2.3-0.9-4.4-2.5-6.1C295.8,335,295.3,334.6,294.8,334.3z"
	/>
<path d="M460.8,264.5h-68.3c-9.4,0-17.1,7.6-17.1,17.1v51.2c0,9.4,7.6,17.1,17.1,17.1h68.3c9.4,0,17.1-7.6,17.1-17.1v-51.2
	C477.9,272.2,470.2,264.5,460.8,264.5z M392.5,332.8v-51.2h68.3v51.2H392.5z"/>
<path d="M42.7,59.7h51.2c4.7,0,8.5-3.8,8.5-8.5c0-4.7-3.8-8.5-8.5-8.5H42.7c-4.7,0-8.5,3.8-8.5,8.5C34.1,55.9,38,59.7,42.7,59.7z"/>
<path d="M128,59.7h17.1c4.7,0,8.5-3.8,8.5-8.5c0-4.7-3.8-8.5-8.5-8.5H128c-4.7,0-8.5,3.8-8.5,8.5C119.5,55.9,123.3,59.7,128,59.7z"
	/>
<path d="M85.3,85.3c0,4.7,3.8,8.5,8.5,8.5h93.9c4.7,0,8.5-3.8,8.5-8.5c0-4.7-3.8-8.5-8.5-8.5H93.9C89.2,76.8,85.3,80.6,85.3,85.3z"
	/>
<path d="M42.7,93.9h17.1c4.7,0,8.5-3.8,8.5-8.5c0-4.7-3.8-8.5-8.5-8.5H42.7c-4.7,0-8.5,3.8-8.5,8.5C34.1,90,38,93.9,42.7,93.9z"/>
<path d="M85.3,170.7c0,4.7,3.8,8.5,8.5,8.5h93.9c4.7,0,8.5-3.8,8.5-8.5c0-4.7-3.8-8.5-8.5-8.5H93.9C89.2,162.1,85.3,166,85.3,170.7z
	"/>
<path d="M42.7,179.2h17.1c4.7,0,8.5-3.8,8.5-8.5c0-4.7-3.8-8.5-8.5-8.5H42.7c-4.7,0-8.5,3.8-8.5,8.5C34.1,175.4,38,179.2,42.7,179.2
	z"/>
<path d="M76.8,213.3h93.9c4.7,0,8.5-3.8,8.5-8.5c0-4.7-3.8-8.5-8.5-8.5H76.8c-4.7,0-8.5,3.8-8.5,8.5
	C68.3,209.5,72.1,213.3,76.8,213.3z"/>
<path d="M221.9,196.3h-17.1c-4.7,0-8.5,3.8-8.5,8.5c0,4.7,3.8,8.5,8.5,8.5h17.1c4.7,0,8.5-3.8,8.5-8.5
	C230.4,200.1,226.6,196.3,221.9,196.3z"/>
<path d="M119.5,119.5c0,4.7,3.8,8.5,8.5,8.5h93.9c4.7,0,8.5-3.8,8.5-8.5c0-4.7-3.8-8.5-8.5-8.5H128
	C123.3,110.9,119.5,114.8,119.5,119.5z"/>
<path d="M93.9,110.9H76.8c-4.7,0-8.5,3.8-8.5,8.5c0,4.7,3.8,8.5,8.5,8.5h17.1c4.7,0,8.5-3.8,8.5-8.5
	C102.4,114.8,98.6,110.9,93.9,110.9z"/>
<path d="M42.7,264.5h51.2c4.7,0,8.5-3.8,8.5-8.5s-3.8-8.5-8.5-8.5H42.7c-4.7,0-8.5,3.8-8.5,8.5S38,264.5,42.7,264.5z"/>
<path d="M128,264.5h17.1c4.7,0,8.5-3.8,8.5-8.5s-3.8-8.5-8.5-8.5H128c-4.7,0-8.5,3.8-8.5,8.5S123.3,264.5,128,264.5z"/>
<path d="M85.3,290.1c0,4.7,3.8,8.5,8.5,8.5h93.9c4.7,0,8.5-3.8,8.5-8.5c0-4.7-3.8-8.5-8.5-8.5H93.9
	C89.2,281.6,85.3,285.4,85.3,290.1z"/>
<path d="M42.7,298.7h17.1c4.7,0,8.5-3.8,8.5-8.5c0-4.7-3.8-8.5-8.5-8.5H42.7c-4.7,0-8.5,3.8-8.5,8.5C34.1,294.8,38,298.7,42.7,298.7
	z"/>
<path d="M221.9,315.7H128c-4.7,0-8.5,3.8-8.5,8.5c0,4.7,3.8,8.5,8.5,8.5h93.9c4.7,0,8.5-3.8,8.5-8.5
	C230.4,319.6,226.6,315.7,221.9,315.7z"/>
<path d="M93.9,315.7H76.8c-4.7,0-8.5,3.8-8.5,8.5c0,4.7,3.8,8.5,8.5,8.5h17.1c4.7,0,8.5-3.8,8.5-8.5
	C102.4,319.6,98.6,315.7,93.9,315.7z"/>
</svg>
