<?xml version="1.0" encoding="utf-8"?>
<!-- Generator: Adobe Illustrator 22.1.0, SVG Export Plug-In . SVG Version: 6.00 Build 0)  -->
<svg version="1.1" id="Layer_1" xmlns="http://www.w3.org/2000/svg" xmlns:xlink="http://www.w3.org/1999/xlink" x="0px" y="0px"
	 viewBox="0 0 367.3 378.4" style="enable-background:new 0 0 367.3 378.4;" xml:space="preserve">
<g>
	<g>
		<path d="M350.6,0H16.7C7.5,0,0,7.5,0,16.7v345c0,9.2,7.5,16.7,16.7,16.7h333.9c9.2,0,16.7-7.5,16.7-16.7v-345
			C367.3,7.5,359.8,0,350.6,0z M333.9,133.6h-50.1c-9.2,0-16.7,7.5-16.7,16.7s7.5,16.7,16.7,16.7h50.1V345H122.4V295
			c0-9.2-7.5-16.7-16.7-16.7S89,285.7,89,295V345H33.4V33.4H89V217c0,9.2,7.5,16.7,16.7,16.7s16.7-7.5,16.7-16.7V167h83.5
			c9.2,0,16.7-7.5,16.7-16.7s-7.5-16.7-16.7-16.7h-83.5V33.4h211.5L333.9,133.6L333.9,133.6z"/>
	</g>
</g>
</svg>
