<?xml version="1.0" encoding="utf-8"?>
<!-- Generator: Adobe Illustrator 22.1.0, SVG Export Plug-In . SVG Version: 6.00 Build 0)  -->
<svg version="1.1" id="Capa_1" xmlns="http://www.w3.org/2000/svg" xmlns:xlink="http://www.w3.org/1999/xlink" x="0px" y="0px"
	 viewBox="0 0 512 512" style="enable-background:new 0 0 512 512;" xml:space="preserve">
<path d="M229.6,143.2l136.1-90.8v235.7l36.6,36.6V18.3c0-6.8-3.7-12.9-9.7-16.1c-5.9-3.2-13.2-2.8-18.8,0.9l-160,106.6h-26.6
	l35.5,35.5C225.2,144.8,227.6,144.5,229.6,143.2L229.6,143.2z"/>
<path d="M512,486.1L25.9,0L0,25.9l109.7,109.7V384c0,10.1,8.2,18.3,18.3,18.3h85.9l160,106.6c3.1,2,6.6,3.1,10.1,3.1
	c3,0,5.9-0.7,8.6-2.2c5.9-3.2,9.7-9.4,9.7-16.1v-65.6l83.9,83.9L512,486.1L512,486.1z M365.7,459.6l-136.1-90.8
	c-3-2-6.5-3.1-10.1-3.1h-73.1V172.1l219.4,219.4C365.7,391.6,365.7,459.6,365.7,459.6L365.7,459.6z"/>
</svg>
