<?xml version="1.0" encoding="utf-8"?>
<!-- Generator: Adobe Illustrator 22.1.0, SVG Export Plug-In . SVG Version: 6.00 Build 0)  -->
<svg version="1.1" id="Capa_1" xmlns="http://www.w3.org/2000/svg" xmlns:xlink="http://www.w3.org/1999/xlink" x="0px" y="0px"
	 viewBox="0 0 29 34.7" style="enable-background:new 0 0 29 34.7;" xml:space="preserve">
<g>
	<g id="Phone_x5F_2">
		<g>
			<path d="M3.4,0.7l-1,0.8C1.2,2.4,0.4,3.9,0.1,5.8c-0.7,4.7,1.8,11.5,6.5,17.7c6.8,9,15.5,13.4,20,10.1l1-0.8
				c0.8-0.6,1.2-1.4,1.4-2.3c0.1-0.9-0.1-1.9-0.7-2.6l-3.1-4.1c-1.2-1.6-3.4-1.9-5-0.7l-1,0.8c-1.1,0.8-3.5,0-7-4.6
				c-3-4-3.2-6-3.1-6.9c0.1-0.5,0.3-0.8,0.6-1.1l1-0.8c1.5-1.1,1.8-3.5,0.7-5L8.4,1.4C7.8,0.7,7,0.2,6.1,0C5.1-0.1,4.2,0.1,3.4,0.7z
				 M6.8,2.6l3.1,4.1c0.5,0.7,0.4,1.7-0.3,2.1l-1,0.8C7.8,10.2,7.3,11,7.2,12c-0.3,2.1,0.9,5,3.5,8.4c5.4,7.1,8.6,5.9,9.8,5l1-0.8
				c0.7-0.5,1.6-0.4,2.1,0.3l3.1,4.1c0.5,0.7,0.4,1.7-0.3,2.1l-1,0.8c-3.4,2.6-11.3-1.9-17.1-9.7c-4.3-5.7-6.7-12-6.1-16.2
				c0.2-1.4,0.7-2.4,1.5-3l1-0.8C5,2.1,5.4,2,5.8,2C6.2,2.1,6.5,2.3,6.8,2.6z"/>
		</g>
	</g>
</g>
</svg>
