<?xml version="1.0" encoding="utf-8"?>
<!-- Generator: Adobe Illustrator 22.1.0, SVG Export Plug-In . SVG Version: 6.00 Build 0)  -->
<svg version="1.1" id="Capa_1" xmlns="http://www.w3.org/2000/svg" xmlns:xlink="http://www.w3.org/1999/xlink" x="0px" y="0px"
	 viewBox="0 0 456.8 512" style="enable-background:new 0 0 456.8 512;" xml:space="preserve">
<g>
	<g>
		<path d="M367.5,8c-62.7-20.1-115.1,2.4-139.2,16.3C204.3,10.4,151.9-12.1,89.2,8C6.1,34.6-32.8,155.9,33.8,253.8
			c31.6,46.4,35.8,82.1,40.2,120c3.3,27.7,6.6,56.4,20.7,89.9c9.5,22.5,22.9,48.3,42.7,48.3c0.2,0,0.4,0,0.5,0
			c16-0.4,28.8-16.2,41.7-51.3c6.6-17.9,10.8-39,14.8-59.4c7.3-36.8,14.9-74.8,33.9-74.9c0,0,0.1,0,0.1,0c18.8,0,26.3,38,33.6,74.8
			c4.1,20.5,8.3,41.7,14.8,59.5c12.9,35.2,25.7,51,41.7,51.4c0.2,0,0.4,0,0.5,0c19.8,0,33.2-25.8,42.7-48.4
			c13.5-32,17-60.6,20.4-88.2c4.8-38.9,9.3-75.7,40.6-121.7C490.4,154.6,449.2,34.2,367.5,8z M406.5,242.5
			c-34,50-39,90.9-43.9,130.5c-3.4,27.5-6.6,53.5-19,82.9c-14.7,34.9-23.3,36.1-24.3,36.1c0,0,0,0,0,0c-0.4,0-9.6-0.7-23.4-38.3
			c-6-16.4-10.1-36.8-14-56.5c-4.4-22.1-8.5-43.1-15.4-59.4c-8.8-20.9-21.5-31.5-37.8-31.5c-0.1,0-0.2,0-0.3,0
			c-16.4,0.1-29.2,10.8-38,31.7c-6.8,16.3-11,37.2-15.4,59.3c-3.9,19.7-8,40-14,56.5c-13.8,37.5-23,38.2-23.4,38.2
			c-0.9,0-9.5-0.8-24.4-36c-13-30.9-16.1-56.9-19.3-84.4c-4.5-38.6-9.2-78.5-43.6-128.9c-60-88.2-23.9-193.4,45-215.5
			C155.2,7.9,204.6,32.8,223,44.4c3.3,2,7.4,2,10.6,0C252.1,32.8,301.6,7.9,361.4,27C431.6,49.5,465.3,155.9,406.5,242.5z"/>
	</g>
</g>
</svg>
