<svg version="1.1" id="Layer_1" xmlns="http://www.w3.org/2000/svg" x="0" y="0" viewBox="0 0 512 512" xml:space="preserve"><style>.st0{fill:#fff}</style><path class="st0" d="M0 301h512V0H0v301zM30 30h452v241H30V30zm436 331h-47.6c-6.2-17.5-22.9-30-42.4-30h-60c-19.6 0-36.2 12.5-42.4 30h-35.2c-6.2-17.5-22.9-30-42.4-30h-60c-19.6 0-36.2 12.5-42.4 30H45c-24.8 0-45 20.2-45 45v106h151v-30h30v30h150v-30h30v30h151V406c0-12.1-4.9-23.5-13.9-32.1-8.8-8.3-20.1-12.9-32.1-12.9zM121 482H30v-76c0-8.3 6.7-15 15-15h61c8.3 0 15 6.7 15 15v76zm30-30v-46c0-17.9-10.5-33.3-25.6-40.6 2.7-2.7 6.5-4.4 10.6-4.4h60c4.1 0 7.9 1.7 10.6 4.4-15.1 7.3-25.6 22.7-25.6 40.6v46h-30zm150 30h-90v-76c0-8.3 6.7-15 15-15h60c8.3 0 15 6.7 15 15v76zm30-30v-46c0-17.9-10.5-33.3-25.6-40.6 2.7-2.7 6.5-4.4 10.6-4.4h60c4.1 0 7.9 1.7 10.6 4.4-15.1 7.3-25.6 22.7-25.6 40.6v46h-30zm151 30h-91v-76c0-8.3 6.7-15 15-15h60c8.5 0 16 7 16 15v76z"/><path class="st0" d="M196 63v176l132-88-132-88zm30 56l48 32-48 32v-64z"/><path transform="rotate(-45.001 375.995 226.01)" class="st0" d="M361 211h30v30h-30z"/><path transform="rotate(-45.001 315.995 226.01)" class="st0" d="M301 211h30v30h-30z"/><path transform="rotate(-45.001 435.996 226.012)" class="st0" d="M421 211h30v30h-30z"/></svg>