<svg version="1.1" id="Layer_1" xmlns="http://www.w3.org/2000/svg" x="0" y="0" viewBox="0 0 512 512" xml:space="preserve"><style>.st0{fill:#fff}</style><path class="st0" d="M0 30h31v482l224.9-83.5L481 511.9V30h31V0H0v30zm451 438.2l-194.9-71.8L61 468.9V30h30v390.1l165.3-57.4L421 418.6V30h30v438.2zM121 30h270v346l-134.4-45L121 378V30z"/><path class="st0" d="M316 211c-24.8 0-45 20.2-45 45s20.2 45 45 45 45-20.2 45-45-20.2-45-45-45zm0 60c-8.3 0-15-6.7-15-15s6.7-15 15-15 15 6.7 15 15c0 8.2-6.7 15-15 15zm-120-90c24.8 0 45-20.2 45-45s-20.2-45-45-45-45 20.2-45 45 20.2 45 45 45zm0-60c8.3 0 15 6.7 15 15s-6.7 15-15 15-15-6.7-15-15 6.7-15 15-15z"/><path transform="rotate(-53 256 195.972)" class="st0" d="M106 181h300v30H106z"/></svg>