<svg version="1.1" id="Capa_1" xmlns="http://www.w3.org/2000/svg" x="0" y="0" viewBox="0 0 512 512" xml:space="preserve"><style>.st0{fill:#fff}</style><path class="st0" d="M450.9 150.1c.5-4.8.8-9.7.8-14.5C451.7 60.9 390.9.1 316.2.1S180.8 60.9 180.8 135.6c0 4.9.3 9.7.8 14.5H0v361.8h512V150.1h-61.1zm-134.7-120c58.2 0 105.5 47.3 105.5 105.5 0 8.8-1.1 17.5-3.2 25.9-2.9 11.7-10.8 26.7-17 36.2l-85.2 126.5-55.5-82.3-29.1-43.2-1-1.5-.2-.2c-7.7-10.8-13.3-22.7-16.5-35.6-2.1-8.4-3.2-17.1-3.2-25.9 0-58.1 47.3-105.4 105.4-105.4zm-202 150h74.1c4.4 12.7 10.7 24.7 18.8 35.7l27.4 40.7-24.5 24.4-98.3-98.3 2.5-2.5zm74.6 122L135 355.9l-98.3-98.3 53.8-53.8 98.3 98.3zM30 180.1h41.7L30 221.9v-41.8zm0 113.2l83.7 83.7L30 460.7V293.3zm452 188.6H322l98.3-98.3 61.7 61.7v36.6zm0-79l-40.5-40.5 40.5-40.5v81zm0-123.5L279.5 481.9H51.2l200.3-200.1 64.7 96.1 80.3-119.2 28.6-42.5.4-.6c5.8-8.6 13.3-22 18.4-35.4h38v99.2z"/><path class="st0" d="M316.2 67.3c-36.1 0-65.4 29.3-65.4 65.4 0 15.4 5.5 30.3 15.4 42.1 12.5 14.8 30.7 23.3 50 23.3s37.6-8.5 50-23.3c9.9-11.8 15.4-26.7 15.4-42.1 0-36.1-29.3-65.4-65.4-65.4zm27.1 88.2c-6.7 8-16.6 12.6-27.1 12.6s-20.3-4.6-27.1-12.6c-5.4-6.4-8.3-14.4-8.3-22.8 0-19.5 15.9-35.4 35.4-35.4s35.4 15.9 35.4 35.4c0 8.3-2.9 16.4-8.3 22.8z"/></svg>