<svg version="1.1" id="Layer_1" xmlns="http://www.w3.org/2000/svg" x="0" y="0" viewBox="0 0 512 512" xml:space="preserve"><style>.st0{fill:#fff}</style><path class="st0" d="M61.1 194.9c0 84.1 31.9 108.4 183 302L256 512l11.8-15.1c150.8-193.2 183-217.4 183-302C450.9 87.4 363.4 0 256 0S61.1 87.4 61.1 194.9zM256 30c90.9 0 164.9 74 164.9 164.9 0 70.8-26.4 91.8-164.9 268.5C114.9 283.2 91.1 265.3 91.1 194.9c0-91 74-164.9 164.9-164.9z"/><path class="st0" d="M256 329.8c74.4 0 134.9-60.5 134.9-134.9S330.4 60 256 60s-134.9 60.5-134.9 134.9S181.6 329.8 256 329.8zm-45-40.2v-79.8h90v79.8c-13.6 6.5-28.9 10.1-45 10.1s-31.3-3.6-45-10.1zm60-109.7h-30v-15c0-8.3 6.7-15 15-15s15 6.7 15 15v15zm-15-90c57.9 0 104.9 47.1 104.9 104.9 0 28.5-11.4 54.4-30 73.3v-88.3h-30v-15c0-24.8-20.2-45-45-45s-45 20.2-45 45v15h-30v88.3c-18.5-18.9-30-44.8-30-73.3.2-57.8 47.2-104.9 105.1-104.9z"/></svg>