<svg version="1.1" id="Capa_1" xmlns="http://www.w3.org/2000/svg" x="0" y="0" viewBox="0 0 512 512" xml:space="preserve"><style>.st0{fill:#fff}</style><path class="st0" d="M445.1 97h-25.2V25H92.1v72H66.9L0 249.3h32.5V487h447V249.3H512L445.1 97zm-323-42h267.8v42H122.1V55zm225.7 164.3H271V127h64.3l12.5 92.3zM241 127v92.3h-76.8l12.5-92.3H241zm-154.5 0h60L134 219.3H46L86.5 127zm363 330h-387V249.3h387V457zm-71.4-237.7L365.6 127h59.9l40.5 92.3h-87.9z"/><path class="st0" d="M92.1 276.3v152.9h327.8V276.3H92.1zm297.8 122.9H122.1v-92.9h267.8v92.9z"/></svg>