<svg xmlns="http://www.w3.org/2000/svg" viewBox="0 0 512 512"><path d="M464.9 137.1l46.7-46.7-65.1-65.1L399.8 72l-5.8-5.8-8.5 8.5V0h-306L.4 79.1V512h385.1V228.2l85.2-85.2-5.8-5.9zm-18.3-69.4l22.6 22.6-25.5 25.5L421 93.3l25.6-25.6zM83.9 38v45.5H38.4L83.9 38zm271.6 444H30.4V113.5h83.5V30h241.6v74.7L274.2 186v-22H111.7v30h154.5l-30 30H111.7v30h94.5L147 313.2l-13.1 13.1-32.7 94.8 14.7 14.7 95.5-33.6 144-144 .1 223.8zM155.7 355.1l25.8 25.8-39.5 13.9 13.7-39.7zm51.5 9l-34.3-34.3 107.5-107.5 34.3 34.3-107.5 107.5zm128.7-128.8L301.6 201l92.4-92.4 34.3 34.3-92.4 92.4z" fill="#fff"/></svg>