<?xml version="1.0" encoding="utf-8"?>
<!-- Generator: Adobe Illustrator 22.1.0, SVG Export Plug-In . SVG Version: 6.00 Build 0)  -->
<svg version="1.1" id="Capa_1" xmlns="http://www.w3.org/2000/svg" xmlns:xlink="http://www.w3.org/1999/xlink" x="0px" y="0px"
	 viewBox="0 0 460 512" style="enable-background:new 0 0 460 512;" xml:space="preserve">
<g>
	<g>
		<path d="M250,243c-5.5,0-10,4.5-10,10c0,5.5,4.5,10,10,10s10-4.5,10-10C260,247.5,255.5,243,250,243z"/>
	</g>
</g>
<g>
	<g>
		<path d="M250,329h-40c-5.5,0-10,4.5-10,10v40c0,5.5,4.5,10,10,10h40c5.5,0,10-4.5,10-10v-40C260,333.5,255.5,329,250,329z
			 M240,369h-20v-20h20V369z"/>
	</g>
</g>
<g>
	<g>
		<path d="M330,329h-40c-5.5,0-10,4.5-10,10v40c0,5.5,4.5,10,10,10h40c5.5,0,10-4.5,10-10v-40C340,333.5,335.5,329,330,329z
			 M320,369h-20v-20h20V369z"/>
	</g>
</g>
<g>
	<g>
		<path d="M250,409h-40c-5.5,0-10,4.5-10,10v40c0,5.5,4.5,10,10,10h40c5.5,0,10-4.5,10-10v-40C260,413.5,255.5,409,250,409z
			 M240,449h-20v-20h20V449z"/>
	</g>
</g>
<g>
	<g>
		<path d="M330,409h-40c-5.5,0-10,4.5-10,10v40c0,5.5,4.5,10,10,10h40c5.5,0,10-4.5,10-10v-40C340,413.5,335.5,409,330,409z
			 M320,449h-20v-20h20V449z"/>
	</g>
</g>
<g>
	<g>
		<path d="M410,329h-40c-5.5,0-10,4.5-10,10v120c0,5.5,4.5,10,10,10h40c5.5,0,10-4.5,10-10V339C420,333.5,415.5,329,410,329z
			 M400,449h-20V349h20V449z"/>
	</g>
</g>
<g>
	<g>
		<path d="M410,203H210c-5.5,0-10,4.5-10,10v86c0,5.5,4.5,10,10,10h200c5.5,0,10-4.5,10-10v-86C420,207.5,415.5,203,410,203z
			 M400,289H220v-66h180V289z"/>
	</g>
</g>
<g>
	<g>
		<path d="M430,160h-90V99.6c0-7.8-3-15.2-8.4-20.8L264.3,9.1c-2.9-3-6.4-5.4-10.3-6.9c-0.1-0.1-0.3-0.1-0.4-0.2c0,0,0,0,0,0
			c-3.5-1.4-7.1-2-10.9-2H30C13.5,0,0,13.5,0,30v389c0,16.5,13.5,30,30,30h130v33c0,16.5,13.5,30,30,30h240c16.5,0,30-13.5,30-30
			V190C460,173.5,446.5,160,430,160z M260,33.4l57.2,59.2c1.8,1.9,2.8,4.3,2.8,6.9v0.4h-50c-5.5,0-10-4.5-10-10V33.4z M160,190v239
			H30c-5.5,0-10-4.5-10-10V30c0-5.5,4.5-10,10-10h210v70c0,16.5,13.5,30,30,30h50v40H190C173.5,160,160,173.5,160,190z M440,482
			c0,5.5-4.5,10-10,10H190c-5.5,0-10-4.5-10-10V190c0-5.5,4.5-10,10-10h240c5.5,0,10,4.5,10,10V482z"/>
	</g>
</g>
<g>
	<g>
		<path d="M370,243h-80c-5.5,0-10,4.5-10,10s4.5,10,10,10h80c5.5,0,10-4.5,10-10S375.5,243,370,243z"/>
	</g>
</g>
<g>
	<g>
		<path d="M210,120H45c-5.5,0-10,4.5-10,10s4.5,10,10,10h165c5.5,0,10-4.5,10-10S215.5,120,210,120z"/>
	</g>
</g>
<g>
	<g>
		<path d="M210,80H45c-5.5,0-10,4.5-10,10s4.5,10,10,10h165c5.5,0,10-4.5,10-10S215.5,80,210,80z"/>
	</g>
</g>
<g>
	<g>
		<path d="M130,203H50c-5.5,0-10,4.5-10,10s4.5,10,10,10h80c5.5,0,10-4.5,10-10S135.5,203,130,203z"/>
	</g>
</g>
<g>
	<g>
		<path d="M70,243H50c-5.5,0-10,4.5-10,10s4.5,10,10,10h20c5.5,0,10-4.5,10-10S75.5,243,70,243z"/>
	</g>
</g>
<g>
	<g>
		<path d="M130,243h-20c-5.5,0-10,4.5-10,10s4.5,10,10,10h20c5.5,0,10-4.5,10-10S135.5,243,130,243z"/>
	</g>
</g>
<g>
	<g>
		<path d="M70,289H50c-5.5,0-10,4.5-10,10s4.5,10,10,10h20c5.5,0,10-4.5,10-10S75.5,289,70,289z"/>
	</g>
</g>
<g>
	<g>
		<path d="M130,289h-20c-5.5,0-10,4.5-10,10s4.5,10,10,10h20c5.5,0,10-4.5,10-10S135.5,289,130,289z"/>
	</g>
</g>
<g>
	<g>
		<path d="M70,329H50c-5.5,0-10,4.5-10,10s4.5,10,10,10h20c5.5,0,10-4.5,10-10S75.5,329,70,329z"/>
	</g>
</g>
<g>
	<g>
		<path d="M130,329h-20c-5.5,0-10,4.5-10,10s4.5,10,10,10h20c5.5,0,10-4.5,10-10S135.5,329,130,329z"/>
	</g>
</g>
<g>
	<g>
		<path d="M70,369H50c-5.5,0-10,4.5-10,10s4.5,10,10,10h20c5.5,0,10-4.5,10-10S75.5,369,70,369z"/>
	</g>
</g>
<g>
	<g>
		<path d="M130,369h-20c-5.5,0-10,4.5-10,10s4.5,10,10,10h20c5.5,0,10-4.5,10-10S135.5,369,130,369z"/>
	</g>
</g>
</svg>
