<?xml version="1.0" encoding="utf-8"?>
<!-- Generator: Adobe Illustrator 22.1.0, SVG Export Plug-In . SVG Version: 6.00 Build 0)  -->
<svg version="1.1" id="Capa_1" xmlns="http://www.w3.org/2000/svg" xmlns:xlink="http://www.w3.org/1999/xlink" x="0px" y="0px"
	 viewBox="0 0 512 404" style="enable-background:new 0 0 512 404;" xml:space="preserve">
<g>
	<g>
		<path d="M37.1,255.6c-1.9-1.9-4.4-2.9-7.1-2.9s-5.2,1.1-7.1,2.9s-2.9,4.4-2.9,7.1c0,2.6,1.1,5.2,2.9,7.1c1.9,1.9,4.4,2.9,7.1,2.9
			s5.2-1.1,7.1-2.9c1.9-1.9,2.9-4.4,2.9-7.1S38.9,257.5,37.1,255.6z"/>
	</g>
</g>
<g>
	<g>
		<path d="M57.1,22.9l-20-20C33.2-1,26.8-1,22.9,2.9l-20,20C-1,26.8-1,33.2,2.9,37.1c3.9,3.9,10.2,3.9,14.1,0l2.9-2.9v188.2
			c0,5.5,4.5,10,10,10s10-4.5,10-10V34.1l2.9,2.9c2,2,4.5,2.9,7.1,2.9s5.1-1,7.1-2.9C61,33.2,61,26.8,57.1,22.9z"/>
	</g>
</g>
<g>
	<g>
		<path d="M509.1,366.9l-20-20c-3.9-3.9-10.2-3.9-14.1,0c-3.9,3.9-3.9,10.2,0,14.1l2.9,2.9H442V223.7c0-5.5-4.5-10-10-10
			s-10,4.5-10,10V364H313.6v-64c0-5.5-4.5-10-10-10s-10,4.5-10,10v64h-83.1V203.5c0-5.5-4.5-10-10-10s-10,4.5-10,10V364h-80.3v-62.5
			c0-5.5-4.5-10-10-10s-10,4.5-10,10V364H40v-57.6c0-5.5-4.5-10-10-10s-10,4.5-10,10V374c0,5.5,4.5,10,10,10h447.9l-2.9,2.9
			c-3.9,3.9-3.9,10.2,0,14.1c2,2,4.5,2.9,7.1,2.9s5.1-1,7.1-2.9l20-20C513,377.2,513,370.8,509.1,366.9z"/>
	</g>
</g>
<g>
	<g>
		<path d="M432,77.5c-19.9,0-36.1,16.2-36.1,36.1c0,5.7,1.3,11.1,3.7,15.9l-78.3,78.3c-5.2-2.9-11.2-4.6-17.7-4.6
			c-6.3,0-12.2,1.6-17.3,4.4l-53-53c2.1-4.6,3.3-9.6,3.3-15c0-19.9-16.2-36.1-36.1-36.1s-36.1,16.2-36.1,36.1c0,6.1,1.5,11.9,4.3,17
			l-51,51c-5.2-2.9-11.1-4.5-17.4-4.5c-19.9,0-36.1,16.2-36.1,36.1s16.2,36.1,36.1,36.1s36.1-16.2,36.1-36.1
			c0-6.3-1.6-12.3-4.5-17.5l50.8-50.8c5.3,3,11.4,4.8,17.9,4.8c7.3,0,14.1-2.2,19.8-5.9l51.8,51.8c-2.9,5.2-4.6,11.2-4.6,17.6
			c0,19.9,16.2,36.1,36.1,36.1s36.1-16.2,36.1-36.1c0-6.2-1.6-12.1-4.4-17.2l77.7-77.7c5.5,3.4,12,5.4,18.9,5.4
			c19.9,0,36.1-16.2,36.1-36.1C468.1,93.7,451.9,77.5,432,77.5z M100.2,255.4c-8.9,0-16.1-7.2-16.1-16.1s7.2-16.1,16.1-16.1
			c4.4,0,8.3,1.7,11.2,4.6c0,0.1,0.1,0.1,0.1,0.2c0.1,0.1,0.1,0.1,0.2,0.2c2.8,2.9,4.6,6.9,4.6,11.2
			C116.3,248.2,109.1,255.4,100.2,255.4z M200.5,155.8c-8.9,0-16.1-7.2-16.1-16.1s7.2-16.1,16.1-16.1s16.1,7.2,16.1,16.1
			S209.4,155.8,200.5,155.8z M303.6,255.4c-8.9,0-16.1-7.2-16.1-16.1s7.2-16.1,16.1-16.1s16.1,7.2,16.1,16.1
			C319.7,248.2,312.5,255.4,303.6,255.4z M432,129.7c-8.9,0-16.1-7.2-16.1-16.1s7.2-16.1,16.1-16.1s16.1,7.2,16.1,16.1
			S440.9,129.7,432,129.7z"/>
	</g>
</g>
<g>
	<g>
		<path d="M439,174.9c-1.9-1.9-4.4-2.9-7.1-2.9s-5.2,1.1-7.1,2.9c-1.9,1.9-2.9,4.4-2.9,7.1s1.1,5.2,2.9,7.1c1.9,1.9,4.4,2.9,7.1,2.9
			s5.2-1.1,7.1-2.9c1.9-1.9,2.9-4.4,2.9-7.1S440.9,176.8,439,174.9z"/>
	</g>
</g>
</svg>
