<?xml version="1.0" encoding="utf-8"?>
<!-- Generator: Adobe Illustrator 22.1.0, SVG Export Plug-In . SVG Version: 6.00 Build 0)  -->
<svg version="1.1" id="Capa_1" xmlns="http://www.w3.org/2000/svg" xmlns:xlink="http://www.w3.org/1999/xlink" x="0px" y="0px"
	 viewBox="0 0 404 512" style="enable-background:new 0 0 404 512;" xml:space="preserve">
<g>
	<g>
		<path d="M394,258.1c5.5,0,10-4.5,10-10V90c0-27.6-22.4-50-50-50h-67.8c-5-6.4-12.8-10.5-21.5-10.5h-16.3
			C240.5,11.8,222.7,0,202.9,0h-1.8c-19.9,0-37.6,11.8-45.6,29.5h-16.3c-8.7,0-16.5,4.1-21.5,10.5H50C22.4,40,0,62.4,0,90v372
			c0,27.6,22.4,50,50,50h304c27.6,0,50-22.4,50-50V331.9c0-5.5-4.5-10-10-10s-10,4.5-10,10V462c0,16.5-13.5,30-30,30H50
			c-16.5,0-30-13.5-30-30V90c0-16.5,13.5-30,30-30h62v20H60c-11,0-20,9-20,20v352c0,11,9,20,20,20h284c11,0,20-9,20-20V100
			c0-11-9-20-20-20h-52V60h62c16.5,0,30,13.5,30,30v158.1C384,253.6,388.5,258.1,394,258.1z M132,56.8c0-4,3.3-7.3,7.3-7.3h23.3
			c4.5,0,8.5-3,9.7-7.4c3.5-13,15.4-22.1,28.9-22.1h1.8c13.5,0,25.4,9.1,28.9,22.1c1.2,4.4,5.1,7.4,9.7,7.4h23.3
			c4,0,7.3,3.3,7.3,7.3V80H132V56.8z M344,100l0,352c0,0,0,0,0,0H60V100h62h160H344z"/>
	</g>
</g>
<g>
	<g>
		<path d="M401.1,283.8c-1.9-1.9-4.4-2.9-7.1-2.9s-5.2,1.1-7.1,2.9c-1.9,1.9-2.9,4.4-2.9,7.1c0,2.6,1.1,5.2,2.9,7.1
			c1.9,1.9,4.4,2.9,7.1,2.9s5.2-1.1,7.1-2.9c1.9-1.9,2.9-4.4,2.9-7.1C404,288.3,402.9,285.7,401.1,283.8z"/>
	</g>
</g>
<g>
	<g>
		<path d="M216.1,178.9c-1.9-1.9-4.4-2.9-7.1-2.9s-5.2,1.1-7.1,2.9c-1.9,1.9-2.9,4.4-2.9,7.1s1.1,5.2,2.9,7.1s4.4,2.9,7.1,2.9
			s5.2-1.1,7.1-2.9c1.9-1.9,2.9-4.4,2.9-7.1S217.9,180.8,216.1,178.9z"/>
	</g>
</g>
<g>
	<g>
		<path d="M312.5,176H253c-5.5,0-10,4.5-10,10s4.5,10,10,10h59.5c5.5,0,10-4.5,10-10S318,176,312.5,176z"/>
	</g>
</g>
<g>
	<g>
		<path d="M312.5,284H209c-5.5,0-10,4.5-10,10s4.5,10,10,10h103.5c5.5,0,10-4.5,10-10S318,284,312.5,284z"/>
	</g>
</g>
<g>
	<g>
		<path d="M312.5,392H209c-5.5,0-10,4.5-10,10s4.5,10,10,10h103.5c5.5,0,10-4.5,10-10S318,392,312.5,392z"/>
	</g>
</g>
<g>
	<g>
		<path d="M146,176h-38v-38c0-5.5-4.5-10-10-10s-10,4.5-10,10v48c0,5.5,4.5,10,10,10h48c5.5,0,10-4.5,10-10S151.5,176,146,176z"/>
	</g>
</g>
<g>
	<g>
		<path d="M167,127.7c-3.9-3.9-10.2-3.9-14.1,0l-13.8,13.8l-1.2-1.2c-3.9-3.9-10.2-3.9-14.1,0s-3.9,10.2,0,14.1l8.2,8.2
			c2,2,4.5,2.9,7.1,2.9s5.1-1,7.1-2.9l20.9-20.9C170.9,138,170.9,131.6,167,127.7z"/>
	</g>
</g>
<g>
	<g>
		<path d="M146,283.7h-38v-38c0-5.5-4.5-10-10-10s-10,4.5-10,10v48c0,5.5,4.5,10,10,10h48c5.5,0,10-4.5,10-10S151.5,283.7,146,283.7
			z"/>
	</g>
</g>
<g>
	<g>
		<path d="M167,235.4c-3.9-3.9-10.2-3.9-14.1,0l-13.8,13.8l-1.2-1.2c-3.9-3.9-10.2-3.9-14.1,0s-3.9,10.2,0,14.1l8.2,8.2
			c2,2,4.5,2.9,7.1,2.9s5.1-1,7.1-2.9l20.9-20.9C170.9,245.7,170.9,239.3,167,235.4z"/>
	</g>
</g>
<g>
	<g>
		<path d="M146,392h-38v-38c0-5.5-4.5-10-10-10s-10,4.5-10,10v48c0,5.5,4.5,10,10,10h48c5.5,0,10-4.5,10-10S151.5,392,146,392z"/>
	</g>
</g>
<g>
	<g>
		<path d="M167,343.7c-3.9-3.9-10.2-3.9-14.1,0l-13.8,13.8l-1.2-1.2c-3.9-3.9-10.2-3.9-14.1,0s-3.9,10.2,0,14.1l8.2,8.2
			c2,2,4.5,2.9,7.1,2.9s5.1-1,7.1-2.9l20.9-20.9C170.9,354,170.9,347.6,167,343.7z"/>
	</g>
</g>
</svg>
