<?xml version="1.0" encoding="utf-8"?>
<!-- Generator: Adobe Illustrator 22.1.0, SVG Export Plug-In . SVG Version: 6.00 Build 0)  -->
<svg version="1.1" id="Layer_1" xmlns="http://www.w3.org/2000/svg" xmlns:xlink="http://www.w3.org/1999/xlink" x="0px" y="0px"
	 viewBox="0 0 512 512" style="enable-background:new 0 0 512 512;" xml:space="preserve">
<g id="XMLID_967_">
	<g id="XMLID_855_">
		<path id="XMLID_856_" d="M132,188.6c-2.6,0-5.2,1.1-7.1,2.9c-1.9,1.9-2.9,4.4-2.9,7.1c0,2.6,1.1,5.2,2.9,7.1
			c1.9,1.9,4.4,2.9,7.1,2.9s5.2-1.1,7.1-2.9c1.9-1.9,2.9-4.4,2.9-7.1c0-2.6-1.1-5.2-2.9-7.1C137.2,189.7,134.6,188.6,132,188.6z"/>
		<path id="XMLID_860_" d="M412.9,291.6c-1.9,1.9-2.9,4.4-2.9,7.1c0,2.6,1.1,5.2,2.9,7.1s4.4,2.9,7.1,2.9s5.2-1.1,7.1-2.9
			c1.9-1.9,2.9-4.4,2.9-7.1s-1.1-5.2-2.9-7.1c-1.9-1.9-4.4-2.9-7.1-2.9S414.8,289.7,412.9,291.6z"/>
		<path id="XMLID_861_" d="M246,470c0,5.5,4.5,10,10,10h0.1c5.5,0,10-4.5,10-10s-4.5-10-10-10S246,464.5,246,470z"/>
		<path id="XMLID_930_" d="M488.8,102H430V40c0-22.1-17.9-40-40-40H122C99.9,0,82,17.9,82,40v188.6H24.7C11.1,228.6,0,239.7,0,253.3
			v114.6c0,13.6,11.1,24.7,24.7,24.7H82V472c0,22.1,17.9,40,40,40h268c22.1,0,40-17.9,40-40V338.7c0-5.5-4.5-10-10-10s-10,4.5-10,10
			V472c0,11-9,20-20,20H122c-11,0-20-9-20-20v-79.4h20V438c0,5.5,4.5,10,10,10h248c5.5,0,10-4.5,10-10V268.6h98.8
			c12.8,0,23.2-10.4,23.2-23.2V125.2C512,112.4,501.6,102,488.8,102z M45.2,372.6l44-44c6.4,3.8,13.6,5.7,20.8,5.7
			c7.2,0,14.4-1.9,20.8-5.7l44,44H45.2z M74.2,315.3l-54,54c-0.1-0.4-0.2-0.9-0.2-1.4V261.1L74.2,315.3z M200,367.9
			c0,0.5-0.1,1-0.2,1.4l-54-54l54.2-54.2V367.9z M124.6,308.3C124.6,308.3,124.6,308.3,124.6,308.3
			C124.6,308.3,124.6,308.3,124.6,308.3c-8.1,8.1-21.2,8.1-29.2,0c0,0,0,0,0,0c0,0,0,0,0,0l-59.7-59.7h148.5L124.6,308.3z M370,428
			H142v-35.4h53.3c13.6,0,24.7-11.1,24.7-24.7V253.3c0-13.6-11.1-24.7-24.7-24.7H102V40c0-11,9-20,20-20h268c11,0,20,9,20,20v62h-20
			V64c0-5.5-4.5-10-10-10H132c-5.5,0-10,4.5-10,10v94.6c0,5.5,4.5,10,10,10s10-4.5,10-10V74h228v28h-54.8
			c-12.8,0-23.2,10.4-23.2,23.2V278c0,3.4,1.8,6.6,4.6,8.4c1.6,1,3.5,1.6,5.4,1.6c1.4,0,2.9-0.3,4.3-0.9l39.3-18.5H370V428z
			 M492,245.4c0,1.8-1.4,3.2-3.2,3.2H343.3c-1.5,0-2.9,0.3-4.3,0.9L312,262.2V125.2c0-1.8,1.4-3.2,3.2-3.2h173.6
			c1.8,0,3.2,1.4,3.2,3.2L492,245.4L492,245.4z"/>
		<path id="XMLID_984_" d="M422.8,194h-75.7c-5.5,0-10,4.5-10,10s4.5,10,10,10h75.7c5.5,0,10-4.5,10-10S428.3,194,422.8,194z"/>
		<path id="XMLID_995_" d="M456.8,154H347.2c-5.5,0-10,4.5-10,10s4.5,10,10,10h109.7c5.5,0,10-4.5,10-10S462.4,154,456.8,154z"/>
	</g>
</g>
</svg>
