<svg width="84" height="84" viewBox="0 0 84 84" fill="none" xmlns="http://www.w3.org/2000/svg">
<path d="M42.176 81.7143C63.8657 81.7143 81.4486 64.0842 81.4486 42.3364C81.4486 20.5886 63.8657 2.9585 42.176 2.9585C20.4863 2.9585 2.90332 20.5886 2.90332 42.3364C2.90332 64.0842 20.4863 81.7143 42.176 81.7143Z" fill="#0C0C0C" fill-opacity="0.9"/>
<path d="M42.1763 83.6223C34.0251 83.6285 26.0552 81.2105 19.2747 76.6743C12.4942 72.1381 7.20774 65.6874 4.08412 58.1383C0.960503 50.5891 0.140028 42.2807 1.72647 34.2639C3.31291 26.2471 7.23501 18.8822 12.9966 13.1007C18.7582 7.3193 26.1005 3.38113 34.0946 1.78437C42.0888 0.187604 50.3757 1.00398 57.907 4.13025C65.4384 7.25652 71.8758 12.5522 76.405 19.3474C80.9343 26.1427 83.3518 34.1322 83.3518 42.3052C83.3435 53.2552 79.0038 63.7549 71.2846 71.5006C63.5654 79.2464 53.0971 83.6057 42.1763 83.6223ZM42.1763 4.83524C34.7729 4.83524 27.5358 7.0365 21.3801 11.1606C15.2244 15.2848 10.4266 21.1465 7.59346 28.0047C4.76031 34.8629 4.01902 42.4094 5.46335 49.69C6.90769 56.9706 10.4728 63.6583 15.7078 68.9073C20.9427 74.1563 27.6125 77.7309 34.8737 79.1791C42.1348 80.6273 49.6612 79.8841 56.501 77.0433C63.3409 74.2026 69.187 69.3919 73.3001 63.2198C77.4132 57.0476 79.6086 49.791 79.6086 42.3678C79.6086 37.4389 78.6404 32.5584 76.7592 28.0047C74.8781 23.451 72.1208 19.3135 68.6449 15.8283C65.169 12.343 61.0425 9.57842 56.501 7.69223C51.9595 5.80605 47.092 4.83524 42.1763 4.83524Z" fill="white"/>
<path d="M49.8333 54.3778H35.1M49.8333 54.3778V56.8333C49.8333 59.1216 49.8333 60.2658 49.4595 61.1683C48.961 62.3717 48.005 63.3277 46.8016 63.8262C45.8991 64.2 44.755 64.2 42.4667 64.2V64.2C40.1784 64.2 39.0342 64.2 38.1317 63.8262C36.9283 63.3277 35.9723 62.3717 35.4738 61.1683C35.1 60.2658 35.1 59.1216 35.1 56.8333V54.3778M49.8333 54.3778V51.9043C49.8333 51.1177 50.0806 50.351 50.5402 49.7126L54.7158 43.9132C61.9045 33.9289 54.7696 20 42.4667 20V20C30.1637 20 23.0288 33.9289 30.2175 43.9132L34.3931 49.7126C34.8527 50.351 35.1 51.1177 35.1 51.9043V54.3778M38.7833 40.8722L42.4667 47.0111L46.15 40.8722" stroke="#FBFBFB" stroke-width="1.5" stroke-linecap="round" stroke-linejoin="round"/>
</svg>
