<?xml version="1.0" encoding="utf-8"?><svg viewBox="0 0 35 36" xmlns="http://www.w3.org/2000/svg" xmlns:xlink="http://www.w3.org/1999/xlink"><style>:root>svg{display:none}:root>svg:target{display:block}</style><svg viewBox="0 0 7 12" id="arrow" xmlns="http://www.w3.org/2000/svg"><path d="M1 1l4.667 4.667L1 10.333"/></svg><svg viewBox="0 0 14 24" id="fb" xmlns="http://www.w3.org/2000/svg"><path d="M6.76 22.6h.48c.9 0 1.35 0 1.665-.23.102-.073.192-.163.266-.265.229-.315.229-.765.229-1.665V13.6h1.5c.843 0 1.264 0 1.567-.202.13-.088.243-.2.33-.331.203-.303.203-.724.203-1.567s0-1.264-.202-1.567a1.201 1.201 0 00-.331-.33C12.164 9.4 11.743 9.4 10.9 9.4H9.4V7c0-.56 0-.839.091-1.06a1.2 1.2 0 01.65-.649c.22-.091.5-.091 1.059-.091.56 0 .839 0 1.06-.091a1.2 1.2 0 00.649-.65C13 4.24 13 3.96 13 3.4v-.533c0-.622 0-.933-.112-1.174a1.2 1.2 0 00-.58-.58C12.065 1 11.754 1 11.132 1c-2.176 0-3.264 0-4.108.394a4.2 4.2 0 00-2.031 2.031C4.6 4.269 4.6 5.357 4.6 7.533V9.4H3.1c-.843 0-1.264 0-1.567.202a1.2 1.2 0 00-.33.331C1 10.236 1 10.657 1 11.5s0 1.264.202 1.567c.088.13.2.243.331.33.303.203.724.203 1.567.203h1.5v6.84c0 .9 0 1.35.23 1.665a1.2 1.2 0 00.265.266c.315.229.765.229 1.665.229z"/></svg><svg viewBox="0 0 25 25" id="in" xmlns="http://www.w3.org/2000/svg"><path d="M11.443 12v7.617-3.253A4.364 4.364 0 0115.807 12a2.618 2.618 0 012.618 2.618v4.999M7 12v7.617M7.982 6.713a1.27 1.27 0 11-2.539 0 1.27 1.27 0 012.54 0z"/><path d="M1 7.6c0-2.75 0-4.125.7-5.089.226-.31.5-.585.811-.81C3.475 1 4.851 1 7.6 1h9.65c2.75 0 4.125 0 5.088.7.312.226.586.5.812.811.7.964.7 2.34.7 5.089v9.65c0 2.75 0 4.125-.7 5.088-.226.312-.5.586-.811.812-.964.7-2.34.7-5.089.7H7.6c-2.75 0-4.125 0-5.089-.7a3.665 3.665 0 01-.81-.811C1 21.375 1 19.998 1 17.25V7.6z"/></svg><svg viewBox="0 0 25 25" id="insta" xmlns="http://www.w3.org/2000/svg"><path d="M1 10.14c0-3.808 0-5.712.97-7.047A5.09 5.09 0 013.093 1.97C4.428 1 6.332 1 10.14 1h4.57c3.808 0 5.712 0 7.047.97.43.313.81.692 1.123 1.123.97 1.335.97 3.239.97 7.047v4.57c0 3.808 0 5.712-.97 7.047a5.08 5.08 0 01-1.123 1.123c-1.335.97-3.239.97-7.047.97h-4.57c-3.808 0-5.712 0-7.047-.97a5.08 5.08 0 01-1.123-1.123C1 20.422 1 18.518 1 14.71v-4.57z"/><path d="M17.503 12.425a5.078 5.078 0 11-10.156 0 5.078 5.078 0 0110.156 0z"/></svg><svg viewBox="0 0 32 32" id="services-1" xmlns="http://www.w3.org/2000/svg"><path d="M10.415 26.641L2 30l3.359-8.415m5.056 5.056L27.902 9.155M10.415 26.64l-.673-4.384-4.383-.672m0 0L22.845 4.098m5.057 5.057l-5.056-5.057m5.056 5.057l1.57-1.57a3.575 3.575 0 000-5.057 3.575 3.575 0 00-5.056 0l-1.57 1.57"/></svg><svg viewBox="0 0 34 35" id="services-2" xmlns="http://www.w3.org/2000/svg"><path d="M15.392 6.432l-6.763 1.78c-.795.21-1.192.314-1.494.558-.1.08-.19.17-.27.27-.244.302-.35.7-.558 1.495L2.489 25.044c-.976 3.707-1.464 5.56-.698 6.737.241.37.557.687.928.928 1.177.766 3.03.278 6.737-.698l14.51-3.818c.794-.209 1.192-.314 1.494-.558.1-.08.19-.17.27-.27.244-.302.349-.7.558-1.494l1.78-6.763M15.392 6.432l12.676 12.676M15.392 6.432l3.128-3.127c.96-.96 1.44-1.44 2.021-1.533.188-.03.379-.03.567 0 .58.092 1.06.573 2.021 1.533l8.066 8.066c.96.96 1.44 1.44 1.533 2.021.03.188.03.38 0 .567-.092.581-.572 1.061-1.533 2.021l-3.127 3.128"/><path d="M12.902 21.606a3.361 3.361 0 114.753-4.753 3.361 3.361 0 01-4.753 4.753zm0 0L8.148 26.36"/></svg><svg viewBox="0 0 35 36" id="services-3" xmlns="http://www.w3.org/2000/svg"><path d="M14.601 9.518c-.301 1.633-.587 4.758-.587 6.42 0 1.66.076 4.84.587 6.42m0-12.84l3.337-2.924c4.15-3.637 6.226-5.456 8-5.102.55.11 1.07.345 1.515.687 1.434 1.1 1.434 3.86 1.434 9.379v8.721c0 5.438 0 8.157-1.42 9.258a3.67 3.67 0 01-1.505.692c-1.76.364-3.824-1.403-7.952-4.937a361.7 361.7 0 01-3.409-2.934m0-12.84c-.73-.052-4.01-.053-7.167-.04-2.615.01-3.923.015-4.86.666a3.679 3.679 0 00-.927.93C1 12.015 1 13.328 1 15.953c0 2.638 0 3.957.651 4.898.252.363.57.68.933.931.942.65 2.256.65 4.884.647 3.145-.003 6.405-.02 7.133-.07m-9.882.062l-.04 9.405a2.744 2.744 0 002.745 2.756 2.744 2.744 0 002.742-2.744v-9.416m22.44-13.955c1.859 5.604 1.859 9.34 0 14.944"/></svg><svg viewBox="0 0 35 35" id="services-4" xmlns="http://www.w3.org/2000/svg"><path d="M27.35 12.018c0 1.808-1.514 3.274-3.38 3.274-1.868 0-3.38-1.466-3.38-3.274s1.512-3.274 3.38-3.274c1.866 0 3.38 1.466 3.38 3.274zm-12.555 0c0 1.808-1.513 3.274-3.38 3.274s-3.38-1.466-3.38-3.274 1.513-3.274 3.38-3.274 3.38 1.466 3.38 3.274zm.965 11.225c0 1.808-1.513 3.274-3.38 3.274-1.866 0-3.38-1.466-3.38-3.274s1.514-3.274 3.38-3.274c1.867 0 3.38 1.466 3.38 3.274z"/><path d="M33.997 13.209C33.797 4.893 21.706-.313 12.9 1.289 4.096 2.889-.164 11.566 1.275 19.969 2.675 28.139 11.898 34 17.692 34c5.794 0 10.623-2.806 6.549-6.15a9.781 9.781 0 01-2.706-3.242c-.973-1.886.788-4.58 2.957-4.394 4.402.376 9.66-.521 9.505-7.005z"/></svg><svg viewBox="0 0 33 33" id="services-5" xmlns="http://www.w3.org/2000/svg"><path d="M25.2 3.556c.8.707 1.275 1.591 1.275 2.55 0 .958-.474 1.842-1.274 2.549M29.805 1c1.132 1.537 1.77 3.271 1.77 5.107 0 1.83-.633 3.56-1.758 5.093M15 11.2A5.1 5.1 0 1115 1a5.1 5.1 0 010 10.2zM7.076 31.6h15.848c4.268 0 7.123-4.394 5.39-8.294a11.797 11.797 0 00-10.78-7.006h-5.067a11.797 11.797 0 00-10.78 7.006c-1.734 3.9 1.12 8.294 5.39 8.294z"/></svg><svg viewBox="0 0 34 32" id="services-6" xmlns="http://www.w3.org/2000/svg"><path d="M11.333 16.052l-3.777-5.017 1.743-2.017c.889-1.026 1.333-1.54 1.902-1.862a3.78 3.78 0 01.589-.27c.616-.22 1.295-.22 2.653-.22H17M7.43 3.14L3.97 6.816c-1.676 1.782-2.515 2.673-2.722 3.748-.068.35-.086.707-.053 1.062.1 1.09.847 2.06 2.34 4l8.077 10.489c2.185 2.837 3.278 4.256 4.7 4.519.455.084.92.084 1.375 0 1.423-.263 2.516-1.682 4.7-4.52l8.078-10.489c1.493-1.939 2.24-2.908 2.34-4a3.78 3.78 0 00-.053-1.06c-.207-1.076-1.046-1.967-2.723-3.75L26.57 3.14c-.88-.936-1.32-1.404-1.87-1.697a3.782 3.782 0 00-.565-.244C23.545 1 22.903 1 21.617 1h-9.235c-1.285 0-1.927 0-2.516.2a3.778 3.778 0 00-.565.243c-.55.293-.99.76-1.87 1.697z"/></svg></svg>