<svg width="21" height="25" xmlns="http://www.w3.org/2000/svg"><path d="M20.616 7.577c-.024 2.04-.622 5.311-3.335 9.307-4.82 7.098-10.36 7.988-11.422 8.095l-.02.001-.086.008a4.056 4.056 0 01-2.065-.377 1.703 1.703 0 01-1.648-.147l-.357-.243a2.944 2.944 0 01-1.246-1.895 2.944 2.944 0 01.459-2.222l2.213-3.258a2.963 2.963 0 014.116-.787l.358.243a1.69 1.69 0 01.745 1.48c.231.216.437.46.612.725 1.039-.675 2.844-2.031 4.19-4.014 1.33-1.959 1.851-3.982 2.051-5.12a4.04 4.04 0 01-.935-.31 1.702 1.702 0 01-1.649-.146l-.357-.243a2.944 2.944 0 01-1.246-1.895 2.944 2.944 0 01.46-2.222L13.665 1.3a2.962 2.962 0 014.116-.787l.358.242c.504.343.766.911.744 1.48.502.47.882 1.066 1.096 1.727.095.196.206.492.326.945.217.819.321 1.718.31 2.671z" fill="#84C125"/></svg>
