<svg width="18" height="18" fill="none" xmlns="http://www.w3.org/2000/svg"><path d="M0 18l1.548-4.644a8.845 8.845 0 113.492 3.318L0 18z" fill="#84C125"/><path d="M14.798 11.789c-.408-.772-1.914-1.655-1.914-1.655-.341-.194-.752-.216-.947.13 0 0-.49.587-.614.672-.568.385-1.095.37-1.626-.162L8.46 9.54 7.226 8.303c-.532-.531-.547-1.058-.162-1.627.085-.124.672-.613.672-.613.346-.195.324-.606.13-.947 0 0-.883-1.506-1.655-1.914a.846.846 0 00-.994.15l-.545.545c-1.73 1.73-.879 3.685.852 5.416l1.582 1.581 1.582 1.582c1.73 1.731 3.684 2.583 5.415.852l.546-.545a.847.847 0 00.15-.994z" fill="#fff"/></svg>