<?xml version="1.0" encoding="utf-8"?>
<!-- Generator: Adobe Illustrator 22.1.0, SVG Export Plug-In . SVG Version: 6.00 Build 0)  -->
<svg version="1.1" id="Layer_1" xmlns="http://www.w3.org/2000/svg" xmlns:xlink="http://www.w3.org/1999/xlink" x="0px" y="0px"
	 viewBox="0 0 104.8 66.6" style="enable-background:new 0 0 104.8 66.6;" xml:space="preserve">
<style type="text/css">
	.st0{fill-rule:evenodd;clip-rule:evenodd;fill:#FFFFFF;}
</style>
<path class="st0" d="M48.1,0v20.3h-0.4c-0.9-6.3-3-11.1-6.2-14.5C39.8,4,38.7,3,36.4,1.5c0.2,0.1,0.5,0.2,0.7,0.2
	c3.8,1.1,6.2,1.6,7.4,1.6c1.9,0,3-1.1,3.3-3.4H48.1L48.1,0z M15.8,12.2c0.1,3.5,1.2,6.1,3.5,8c2.3,1.9,5.7,3.5,10.1,5.1
	c6.1,1.9,10.8,3.9,14.1,6.1c4.6,3,6.9,7.8,6.9,14.4c0,5.7-2.3,10.5-7,14.3c-2.9,2.4-10.6,5.1-16.7,5.4c7-4.4,12-12.6,5.3-19.7
	c-0.8-0.8-2-1.6-3.6-2.5c-1.6-0.9-3-1.5-4-2c-1-0.4-2.6-1-4.7-1.8c-0.8-0.3-1.5-0.5-1.9-0.7c-3.2-1.4-5.9-2.7-8.2-3.9
	c-2.6-1.4-4.7-3.4-6.4-6.1c-1.6-2.7-2.5-5.8-2.5-9.3c0-5.6,2.2-10.2,6.6-13.8c4-3.3,10.3-6,17.1-4.9C18.2,1.8,15.5,6.6,15.8,12.2
	L15.8,12.2z M9.3,62.5c-2.9-1.1-4.8-1.6-5.6-1.6c-1.9,0-3,1.2-3.3,3.5H0V43.7h0.5C1.8,53.8,4.6,56.5,9.3,62.5L9.3,62.5z"/>
<path class="st0" d="M51.6,17.4c1.5-3,3.5-5.8,5.9-8.2C63.8,3.1,71.9,0,81.8,0c2.9,0,5.8,0.5,8.9,1.5c3.1,1,5.4,1.5,6.8,1.5
	c1.9,0,3-1,3.3-3.1h0.3v20.3h-0.4C99,7.2,93.3,0.6,83.5,0.6c-5.3,0-9.4,2.7-12.2,8.2c-2.8,5.4-4.1,13.3-4.1,23.4
	c0,5,0.4,9.5,1.3,13.4L51.6,17.4L51.6,17.4z"/>
<path class="st0" d="M104.8,50.8c-4.6,8.7-13.4,14.8-23.7,15.8l-1.7-2.8c9.4-0.4,17.5-5.5,22.1-13H104.8L104.8,50.8z"/>
</svg>
