<?xml version="1.0" encoding="utf-8"?>
<!-- Generator: Adobe Illustrator 22.1.0, SVG Export Plug-In . SVG Version: 6.00 Build 0)  -->
<svg version="1.1" id="Layer_1" xmlns="http://www.w3.org/2000/svg" xmlns:xlink="http://www.w3.org/1999/xlink" x="0px" y="0px"
	 viewBox="0 0 311 111.8" style="enable-background:new 0 0 311 111.8;" xml:space="preserve">
<style type="text/css">
	.st0{fill-rule:evenodd;clip-rule:evenodd;fill:#FFFFFF;}
	.st1{fill:#FFFFFF;}
</style>
<path class="st0" d="M151.2,0v20.3h-0.4c-0.9-6.3-3-11.1-6.2-14.5C143,4,141.8,3,139.5,1.5c0.2,0.1,0.5,0.2,0.7,0.2
	c3.8,1.1,6.2,1.6,7.4,1.6c1.9,0,3-1.1,3.3-3.4H151.2L151.2,0z M118.9,12.2c0.1,3.5,1.2,6.1,3.5,8c2.3,1.9,5.7,3.5,10.1,5.1
	c6.1,1.9,10.8,3.9,14.1,6.1c4.6,3,6.9,7.8,6.9,14.4c0,5.7-2.3,10.5-7,14.3c-2.9,2.4-10.6,5.1-16.7,5.4c7-4.4,12-12.6,5.3-19.7
	c-0.8-0.8-2-1.6-3.6-2.5c-1.6-0.9-3-1.5-4-2c-1-0.4-2.6-1-4.7-1.8c-0.8-0.3-1.5-0.5-1.9-0.7c-3.2-1.4-5.9-2.7-8.2-3.9
	c-2.6-1.4-4.7-3.4-6.4-6.1c-1.6-2.7-2.5-5.8-2.5-9.3c0-5.6,2.2-10.2,6.6-13.8c4-3.3,10.3-6,17.1-4.9C121.3,1.8,118.6,6.6,118.9,12.2
	L118.9,12.2z M112.4,62.5c-2.9-1.1-4.8-1.6-5.6-1.6c-1.9,0-3,1.2-3.3,3.5h-0.4V43.7h0.5C104.9,53.8,107.8,56.5,112.4,62.5
	L112.4,62.5z"/>
<path class="st0" d="M154.7,17.4c1.5-3,3.5-5.8,5.9-8.2C166.9,3.1,175,0,184.9,0c2.9,0,5.8,0.5,8.9,1.5c3.1,1,5.4,1.5,6.8,1.5
	c1.9,0,3-1,3.3-3.1h0.3v20.3h-0.4c-1.7-13.1-7.4-19.7-17.2-19.7c-5.3,0-9.4,2.7-12.2,8.2c-2.8,5.4-4.1,13.3-4.1,23.4
	c0,5,0.4,9.5,1.3,13.4L154.7,17.4L154.7,17.4z"/>
<path class="st0" d="M207.9,50.8c-4.6,8.7-13.4,14.8-23.7,15.8l-1.7-2.8c9.4-0.4,17.5-5.5,22.1-13H207.9L207.9,50.8z"/>
<path class="st1" d="M7,111.8c-0.5,0-1,0-1.6-0.1c-0.6-0.1-1.2-0.2-1.8-0.3c-0.6-0.1-1.2-0.2-1.9-0.4c-0.6-0.1-1.2-0.3-1.7-0.4V105
	h2l0.6,2.5c0,0.1,0.1,0.1,0.1,0.2c0,0.1,0.1,0.1,0.2,0.2c0.1,0.1,0.1,0.1,0.2,0.2c0.1,0,0.1,0.1,0.2,0.1c0.2,0.1,0.5,0.3,0.8,0.4
	c0.3,0.2,0.6,0.3,1,0.4c0.3,0.1,0.7,0.2,1.1,0.3c0.4,0.1,0.7,0.1,1,0.1c0.6,0,1.1-0.1,1.6-0.2c0.5-0.1,0.9-0.3,1.2-0.5
	c0.4-0.2,0.6-0.5,0.8-0.8c0.2-0.3,0.3-0.7,0.3-1.1c0-0.4-0.1-0.7-0.2-0.9c-0.1-0.3-0.3-0.5-0.5-0.7c-0.2-0.2-0.5-0.4-0.8-0.5
	c-0.3-0.1-0.7-0.3-1.1-0.4c-0.4-0.1-0.8-0.3-1.1-0.4c-0.4-0.1-0.8-0.2-1.1-0.3c-0.4-0.1-0.7-0.2-1.1-0.3c-0.4-0.1-0.7-0.2-1.1-0.4
	c-0.5-0.2-1-0.5-1.5-0.8c-0.4-0.3-0.8-0.7-1.2-1.1c-0.3-0.4-0.6-0.9-0.8-1.4c-0.2-0.5-0.3-1.1-0.3-1.8c0-0.6,0.1-1.2,0.3-1.7
	c0.2-0.5,0.5-1,0.8-1.4c0.3-0.4,0.7-0.8,1.2-1.2c0.5-0.3,1-0.6,1.5-0.9c0.6-0.2,1.2-0.4,1.8-0.5C6.6,92.1,7.3,92,7.9,92
	c0.6,0,1.1,0,1.7,0.1c0.6,0.1,1.2,0.1,1.8,0.2c0.6,0.1,1.1,0.2,1.6,0.3c0.5,0.1,1,0.2,1.4,0.3v5.5h-2L11.8,96c0-0.1-0.1-0.3-0.3-0.4
	c-0.1-0.1-0.2-0.2-0.3-0.3c-0.1-0.1-0.3-0.1-0.5-0.2c-0.2-0.1-0.5-0.2-0.8-0.3c-0.3-0.1-0.6-0.2-0.9-0.3c-0.3-0.1-0.7-0.1-1-0.1
	c-0.6,0-1,0.1-1.5,0.2c-0.4,0.1-0.8,0.3-1,0.5c-0.3,0.2-0.5,0.4-0.6,0.7c-0.1,0.3-0.2,0.5-0.2,0.8c0,0.3,0,0.6,0.1,0.8
	c0.1,0.2,0.2,0.5,0.4,0.7c0.2,0.2,0.5,0.4,0.8,0.6c0.4,0.2,0.8,0.4,1.3,0.5c0.4,0.1,0.7,0.2,1,0.3c0.3,0.1,0.7,0.2,1,0.3
	c0.4,0.1,0.7,0.2,1.1,0.4c0.4,0.1,0.8,0.3,1.2,0.4c0.5,0.2,1,0.4,1.4,0.7c0.5,0.3,0.8,0.6,1.2,1c0.3,0.4,0.6,0.8,0.8,1.3
	c0.2,0.5,0.3,1.1,0.3,1.8c0,0.8-0.2,1.6-0.5,2.4c-0.3,0.8-0.9,1.4-1.6,2c-0.7,0.6-1.6,1-2.7,1.4C9.7,111.6,8.4,111.8,7,111.8
	L7,111.8z M18.3,110.1l2.1-0.9c0.1-0.1,0.2-0.1,0.3-0.2c0.1-0.1,0.1-0.2,0.1-0.4V95.1c0-0.2,0-0.3-0.1-0.4s-0.2-0.1-0.3-0.2
	l-2.1-0.9v-1.2h16.8v5.4h-2l-0.6-2.5c0-0.2-0.1-0.3-0.2-0.4c-0.1-0.1-0.2-0.1-0.4-0.1h-6.5v5.5h3.4c0.2,0,0.3,0,0.4-0.1
	c0.1-0.1,0.1-0.2,0.2-0.4l0.7-2h1.6v7.3H30l-0.7-2c0-0.1-0.1-0.3-0.2-0.4c-0.1-0.1-0.2-0.1-0.4-0.1h-3.4v6.2h7.5
	c0.1,0,0.2,0,0.3-0.1c0.1-0.1,0.2-0.2,0.2-0.4l0.7-2.8h2v5.7H18.3V110.1L18.3,110.1z M39,110.1l2.1-0.9c0.1,0,0.2-0.1,0.3-0.2
	c0.1-0.1,0.1-0.2,0.1-0.4V95.1c0-0.2,0-0.3-0.1-0.4c-0.1-0.1-0.2-0.1-0.3-0.2L39,93.6v-1.2h9.6v1.2l-2.1,0.9
	c-0.1,0.1-0.2,0.1-0.3,0.2c-0.1,0.1-0.1,0.2-0.1,0.4v13.8h6.2c0.1,0,0.1,0,0.2,0c0.1,0,0.1-0.1,0.2-0.1c0.1,0,0.1-0.1,0.1-0.2
	c0-0.1,0.1-0.1,0.1-0.2l0.7-3.9h2v6.9H39V110.1L39,110.1z M57.8,110.1l2.2-0.9c0.1-0.1,0.3-0.1,0.3-0.2c0.1-0.1,0.1-0.2,0.1-0.4
	V95.1c0-0.2,0-0.3-0.1-0.4c-0.1-0.1-0.2-0.1-0.3-0.2l-2.2-0.9v-1.2h9.9v1.2l-2.2,0.9c-0.1,0.1-0.3,0.1-0.3,0.2
	c-0.1,0.1-0.1,0.2-0.1,0.4v13.6c0,0.2,0,0.3,0.1,0.4c0.1,0.1,0.2,0.2,0.3,0.2l2.2,0.9v1.2h-9.9V110.1L57.8,110.1z M80.7,111.8
	c-1.3,0-2.5-0.2-3.5-0.5c-1-0.3-1.8-0.7-2.5-1.3c-0.7-0.5-1.2-1.2-1.5-1.9c-0.3-0.7-0.5-1.5-0.5-2.4V95.1c0-0.2-0.1-0.3-0.1-0.4
	c-0.1-0.1-0.2-0.1-0.3-0.2l-2.1-0.9v-1.2h9.6v1.2l-2.1,0.9c-0.1,0-0.2,0.1-0.3,0.2c-0.1,0.1-0.1,0.2-0.1,0.4v9.4
	c0,0.3,0,0.7,0.1,1.1c0,0.4,0.1,0.7,0.2,1.1c0.1,0.3,0.3,0.7,0.5,1c0.2,0.3,0.4,0.6,0.8,0.8c0.3,0.2,0.7,0.4,1.1,0.5
	c0.4,0.1,1,0.2,1.6,0.2c0.6,0,1.1-0.1,1.6-0.2c0.4-0.1,0.8-0.3,1.2-0.5c0.3-0.2,0.6-0.5,0.8-0.8c0.2-0.3,0.4-0.6,0.5-1
	c0.1-0.3,0.2-0.7,0.3-1.1c0.1-0.4,0.1-0.7,0.1-1.1v-9.2c0-0.2,0-0.3-0.1-0.4c-0.1-0.1-0.2-0.1-0.3-0.2l-2.1-0.9v-1.2h7.7v1.2
	l-2.1,0.9c-0.1,0.1-0.2,0.1-0.3,0.2c-0.1,0.1-0.1,0.2-0.1,0.4v10c0,0.8-0.1,1.5-0.4,2.2c-0.2,0.6-0.6,1.2-1,1.7
	c-0.4,0.5-0.9,0.9-1.4,1.3c-0.5,0.4-1.1,0.6-1.7,0.9c-0.6,0.2-1.2,0.4-1.8,0.5C81.8,111.7,81.2,111.8,80.7,111.8L80.7,111.8z
	 M97.4,110.1l2.2-0.9c0.1-0.1,0.3-0.1,0.3-0.2c0.1-0.1,0.1-0.2,0.1-0.4V94.8h-3.8c-0.1,0-0.3,0-0.4,0.1s-0.2,0.2-0.2,0.4L95,98.1h-2
	v-5.7h18.4v5.7h-2l-0.6-2.8c0-0.2-0.1-0.3-0.2-0.4c-0.1-0.1-0.2-0.1-0.3-0.1h-3.8v13.8c0,0.2,0,0.3,0.1,0.4c0.1,0.1,0.2,0.2,0.3,0.2
	l2.2,0.9v1.2h-9.9V110.1L97.4,110.1z M113.7,110.1l2.2-0.9c0.1-0.1,0.3-0.1,0.3-0.2c0.1-0.1,0.1-0.2,0.1-0.4V95.1
	c0-0.2,0-0.3-0.1-0.4c-0.1-0.1-0.2-0.1-0.3-0.2l-2.2-0.9v-1.2h9.9v1.2l-2.2,0.9c-0.1,0.1-0.3,0.1-0.3,0.2c-0.1,0.1-0.1,0.2-0.1,0.4
	v13.6c0,0.2,0,0.3,0.1,0.4c0.1,0.1,0.2,0.2,0.3,0.2l2.2,0.9v1.2h-9.9V110.1L113.7,110.1z M132.9,98.9l-0.9-1.6h-0.3v11.3
	c0,0.2,0.1,0.3,0.1,0.4c0.1,0.1,0.2,0.1,0.3,0.2l2.1,1v1.2h-7.8v-1.2l2.1-1c0.1-0.1,0.2-0.1,0.3-0.2c0.1-0.1,0.1-0.2,0.1-0.4V95.1
	c0-0.2,0-0.3-0.1-0.4s-0.2-0.1-0.3-0.2l-2.2-0.9v-1.2h7l7.8,11.3l0.9,1.6h0.3V95.1c0-0.2,0-0.3-0.1-0.4c-0.1-0.1-0.2-0.1-0.3-0.2
	l-2.1-0.9v-1.2h7.8v1.2l-2.1,0.9c-0.1,0.1-0.2,0.1-0.3,0.2c-0.1,0.1-0.2,0.2-0.2,0.4v13.3l-0.4,3h-3.1L132.9,98.9L132.9,98.9z
	 M168.8,111.7c-1.5,0-2.8-0.2-4-0.7c-1.2-0.4-2.2-1.1-3.1-1.9c-0.9-0.8-1.5-1.9-2-3.1c-0.5-1.2-0.7-2.6-0.7-4.1c0-1,0.1-1.9,0.3-2.8
	c0.2-0.9,0.5-1.7,0.9-2.4c0.4-0.7,0.9-1.4,1.5-2c0.6-0.6,1.2-1.1,2-1.5c0.7-0.4,1.5-0.7,2.4-0.9c0.9-0.2,1.8-0.3,2.7-0.3
	c0.5,0,1.1,0,1.7,0.1c0.6,0.1,1.2,0.1,1.9,0.2c0.6,0.1,1.2,0.2,1.8,0.3c0.6,0.1,1,0.2,1.4,0.3v5.3h-2l-0.7-2.5
	c0-0.1-0.1-0.2-0.2-0.3c-0.1-0.1-0.3-0.2-0.3-0.2c-0.4-0.2-0.9-0.4-1.4-0.6c-0.5-0.2-1-0.3-1.6-0.3c-0.9,0-1.6,0.1-2.3,0.4
	c-0.7,0.3-1.3,0.7-1.8,1.3c-0.5,0.6-0.9,1.3-1.1,2.2c-0.3,0.9-0.4,1.9-0.4,3.1c0,1.2,0.1,2.3,0.4,3.2c0.3,0.9,0.7,1.7,1.3,2.3
	c0.5,0.6,1.2,1.1,2,1.4c0.8,0.3,1.7,0.5,2.6,0.5c0.6,0,1.1-0.1,1.6-0.2c0.5-0.1,0.9-0.3,1.3-0.5c0.4-0.2,0.8-0.4,1.1-0.6
	c0.3-0.2,0.6-0.4,0.8-0.6h1.1v1.9c-0.4,0.3-0.8,0.6-1.4,1c-0.5,0.3-1.1,0.6-1.7,0.9c-0.6,0.3-1.3,0.5-2,0.7
	C170.3,111.6,169.5,111.7,168.8,111.7L168.8,111.7z M188.2,111.7c-1.6,0-3-0.2-4.2-0.7c-1.2-0.4-2.2-1.1-3.1-2
	c-0.8-0.9-1.5-1.9-1.9-3.1c-0.4-1.2-0.6-2.6-0.6-4.1c0-1.4,0.2-2.8,0.7-4c0.4-1.2,1.1-2.2,1.9-3.1c0.8-0.9,1.9-1.5,3.1-2
	c1.2-0.5,2.6-0.7,4.1-0.7c1.7,0,3.1,0.2,4.3,0.7c1.2,0.5,2.2,1.2,3,2.1c0.8,0.9,1.4,1.9,1.8,3.1c0.4,1.2,0.6,2.5,0.6,3.9
	c0,0.8-0.1,1.7-0.2,2.5c-0.2,0.8-0.4,1.6-0.8,2.3c-0.3,0.7-0.8,1.4-1.3,2c-0.5,0.6-1.2,1.2-1.9,1.6c-0.7,0.5-1.5,0.8-2.5,1.1
	C190.4,111.6,189.3,111.7,188.2,111.7L188.2,111.7z M188.4,109.4c0.8,0,1.5-0.2,2.1-0.5c0.6-0.3,1.1-0.8,1.5-1.4
	c0.4-0.6,0.7-1.4,0.9-2.3c0.2-0.9,0.3-1.9,0.3-2.9c0-1.2-0.1-2.4-0.3-3.4c-0.2-1-0.5-1.8-0.9-2.5c-0.4-0.7-1-1.2-1.6-1.6
	c-0.6-0.4-1.4-0.5-2.3-0.5c-0.8,0-1.6,0.2-2.1,0.6c-0.6,0.4-1.1,0.9-1.5,1.5c-0.4,0.6-0.7,1.4-0.8,2.3c-0.2,0.9-0.3,1.8-0.3,2.8
	c0,1.2,0.1,2.4,0.3,3.3c0.2,1,0.5,1.8,0.9,2.5c0.4,0.7,0.9,1.2,1.6,1.6C186.7,109.3,187.5,109.4,188.4,109.4L188.4,109.4z
	 M200.7,110.1l2.1-1c0.1-0.1,0.2-0.1,0.3-0.2c0.1-0.1,0.1-0.2,0.1-0.4V95.1c0-0.2,0-0.3-0.1-0.4c-0.1-0.1-0.2-0.1-0.3-0.2l-2.1-0.9
	v-1.2h8.8l3.7,10.8l0.6,2.1h0.3l4.3-12.9h8.7v1.2l-2.1,0.9c-0.1,0.1-0.2,0.1-0.3,0.2c-0.1,0.1-0.2,0.2-0.2,0.4v13.6
	c0,0.2,0,0.3,0.1,0.4c0.1,0.1,0.2,0.2,0.3,0.2l2.1,0.9v1.2h-9.6v-1.2l2.1-0.9c0.1-0.1,0.3-0.1,0.3-0.2c0.1-0.1,0.1-0.2,0.1-0.4V95.7
	h-0.3l-0.6,1.9l-3.7,10.8l-1.2,2.9h-2.7l-4.7-13.7l-0.6-1.9h-0.3v12.8c0,0.2,0,0.3,0.1,0.4c0.1,0.1,0.2,0.1,0.3,0.2l2.1,1v1.2h-7.7
	V110.1L200.7,110.1z M229.8,110.1l2.1-0.9c0.1-0.1,0.3-0.1,0.3-0.2c0.1-0.1,0.1-0.2,0.1-0.4V95.1c0-0.2,0-0.3-0.1-0.4
	c-0.1-0.1-0.2-0.1-0.3-0.2l-2.1-0.9v-1.2h9.6c1,0,2,0.1,2.9,0.3c0.9,0.2,1.7,0.5,2.3,1c0.7,0.4,1.2,1,1.6,1.7
	c0.4,0.7,0.6,1.5,0.6,2.5c0,1-0.2,2-0.5,2.8c-0.3,0.8-0.8,1.5-1.4,2.1c-0.6,0.6-1.3,1-2.1,1.3c-0.8,0.3-1.7,0.5-2.7,0.5
	c-0.2,0-0.5,0-0.8-0.1c-0.3,0-0.6-0.1-0.9-0.2c-0.3-0.1-0.6-0.2-0.9-0.3c-0.3-0.1-0.5-0.2-0.7-0.4v5c0,0.2,0,0.3,0.1,0.4
	c0.1,0.1,0.2,0.2,0.3,0.2l2.2,0.9v1.2h-9.7V110.1L229.8,110.1z M239,102.1c0.4,0,0.8-0.1,1.1-0.2c0.3-0.1,0.6-0.3,0.8-0.5
	c0.2-0.2,0.4-0.4,0.5-0.7c0.1-0.3,0.3-0.5,0.3-0.8c0.1-0.3,0.1-0.5,0.2-0.8s0-0.5,0-0.6c0-0.5-0.1-1-0.2-1.4
	c-0.1-0.5-0.3-0.9-0.6-1.2c-0.3-0.3-0.7-0.6-1.1-0.8c-0.5-0.2-1.1-0.3-1.8-0.3h-1.5v7.1c0.1,0,0.3,0.1,0.4,0.1c0.2,0,0.4,0,0.5,0.1
	c0.2,0,0.4,0,0.6,0C238.7,102.1,238.8,102.1,239,102.1L239,102.1z M246.6,110.1l1.4-0.7c0.3-0.1,0.5-0.4,0.6-0.7l5.3-13.4l1.6-3.2
	h3.5l6.4,16.7c0.1,0.1,0.1,0.3,0.2,0.4c0.1,0.1,0.2,0.2,0.3,0.3l1.5,0.6v1.2h-8.6v-1.2l2.2-0.9l-1.6-3.8h-6.8l-1.4,3.7l2.2,0.9v1.2
	h-6.8V110.1L246.6,110.1z M258.5,103.2l-1.8-4.6l-0.5-1.8H256l-2.4,6.4H258.5L258.5,103.2z M275.2,98.9l-0.9-1.6h-0.3v11.3
	c0,0.2,0.1,0.3,0.1,0.4c0.1,0.1,0.2,0.1,0.3,0.2l2.1,1v1.2h-7.8v-1.2l2.1-1c0.1-0.1,0.2-0.1,0.3-0.2c0.1-0.1,0.1-0.2,0.1-0.4V95.1
	c0-0.2,0-0.3-0.1-0.4s-0.2-0.1-0.3-0.2l-2.2-0.9v-1.2h7l7.8,11.3l0.9,1.6h0.3V95.1c0-0.2,0-0.3-0.1-0.4c-0.1-0.1-0.2-0.1-0.3-0.2
	l-2.1-0.9v-1.2h7.8v1.2l-2.1,0.9c-0.1,0.1-0.2,0.1-0.3,0.2c-0.1,0.1-0.2,0.2-0.2,0.4v13.3l-0.4,3H284L275.2,98.9L275.2,98.9z
	 M296.3,110.1l2.2-0.9c0.1-0.1,0.3-0.1,0.4-0.2c0.1-0.1,0.1-0.2,0.1-0.4v-4.2l-5.4-9.5c-0.1-0.1-0.1-0.2-0.2-0.4
	c-0.1-0.1-0.2-0.2-0.4-0.3l-1.5-0.6v-1.2h8.7v1.2l-2.1,0.8l3.4,5.7l0.6,1.6h0.3l4-7.2l-2.1-0.9v-1.2h6.8v1.2l-1.5,0.7
	c-0.1,0.1-0.2,0.2-0.4,0.3c-0.1,0.1-0.2,0.2-0.3,0.4l-5.5,9.4v4.3c0,0.2,0,0.3,0.1,0.4c0.1,0.1,0.2,0.2,0.3,0.2l2.2,0.9v1.2h-9.8
	V110.1L296.3,110.1z"/>
</svg>
