<svg version="1.1" id="Pattern" xmlns="http://www.w3.org/2000/svg" xmlns:xlink="http://www.w3.org/1999/xlink" x="0" y="0" viewBox="0 0 823 800" xml:space="preserve"><style>.st1,.st2{fill:rgba(209,196,233,.22)}</style><pattern y="800" width="274.4" height="248.8" patternUnits="userSpaceOnUse" id="Nueva_muestra_de_motivo_2" viewBox="32.5 -269.5 274.4 248.8" overflow="visible"><path fill="none" d="M32.5-269.5h274.4v248.8H32.5z"/><path class="st1" d="M341.7-140.6c3.7 2.7 7.5 4.8 12.1 4.3 5.4-.5 9.1-5.1 11.8-9.3 2.1-3.2 4-6.4 7.7-7.8 2.8-1.1 6.1-.5 8.8.8 4.2 2.2 3.4 6.7 1.1 10-2.6 3.6-7.6 5.2-11.5 7-14.8 6.7-23.5 20.9-37 29.4-6.1 3.8-14.9 7.8-21.8 4.1-4.6-2.5-7.3-8.4-9.9-12.7-.6-.9-2 0-1.4.9 2.7 4.4 5.3 10 9.9 12.8 5.3 3.3 11.3 2 16.8 0 8.7-3.3 15.9-9.6 22.5-16 3.8-3.6 7.3-7.6 11.3-11 4.1-3.4 9.1-5.5 13.9-7.7 5.2-2.4 11.3-6.3 10.8-12.8-.3-4.5-5.3-6.7-9.2-7.1-5.6-.6-9.4 2.8-12.2 7.2-2.7 4.1-5.2 8-9.9 10-4.5 1.9-9.2-.8-12.8-3.4-.7-.6-1.9.6-1 1.3z"/><path class="st1" d="M303.9-115.8c2 3.1 3.8 6.4 6.2 9.3.7.8 2.1-.1 1.4-.9-2.3-2.9-4.1-6.2-6.2-9.3-.6-1-2 0-1.4.9zm2.2-2.5c2.2 3.4 3.8 7.1 6.1 10.4.6.9 2 0 1.4-.9-2.3-3.3-3.9-7-6.1-10.4-.6-.9-2 0-1.4.9z"/><path class="st2" d="M237-39.3c-4.2 3.5-11.7 2.6-16.6 4.1-3.4 1-8.8 5.1-12.5 3.7-3.4-1.3-3.3-5.1-3.7-8.2-.5-4.2-2.8-8-4.1-12-.5-1.7-1.4-3.8-1-5.6.2-1.3.7-2.4 1.8-3.2 1.7-1.4 6.8-2.3 6.7-5.2v-.3c-2.1-.8-3.8-2.5-4.6-4.9-2.2-6.1-4.4-12.4-6.2-18.6-1.7-5.6-2.5-13.2 5.4-16.2 8.7-2.2 10.6 7.8 12.3 13.8 1.3 4.6 3.3 8.9 4.8 13.4.7 2 1.9 4.5 1.1 6.7-.3 1-.9 1.9-1.5 2.7 4.1 1.4 10.6-2 13.2 2.4 1.1 1.9 1.4 3.9 1.9 6 .8 3.7 2 7.2 3.3 10.8 1.4 3.5 3.2 7.7-.3 10.6zm-19.4-28.6c-.9.7-1.9 1.2-3.1 1.7 1.5 4.8 3.5 9.4 4.9 14.1 4.7-1.3 9.5-2.5 14.2-3.8-.5-1.8-1-3.7-1.4-5.5-.6-2.7-1.3-6.3-5-6-3.5.3-6.4 1.1-9.6-.5zm-4.8.5c4.7-1.2 7-4.4 5.4-9.2-1.7-5-4-9.8-5.3-14.9-1.1-4.7-2.9-14.7-10-12.6-7.7 2.3-5.9 10.5-4.1 15.2 1.6 4.4 3.3 8.8 4.6 13.3 1.2 4.7 3.5 9.7 9.4 8.2zM201-54.7c.7 2.3 1.5 4.5 2.4 6.7.2.4.4.9.6 1.3 4.5-2 9.2-3.6 14-5-1.4-4.8-3.4-9.4-4.9-14.1-.2 0-.4.1-.6.1-1.1.2-2.2.2-3.2 0 0 2.3-1.2 3.6-3.4 4.4-3.2 1.2-6.1 2.7-4.9 6.6zm35.9 8.6c-.7-2.2-1.6-4.3-2.3-6.4-.2-.6-.3-1.1-.5-1.7-4.7 1.2-9.5 2.4-14.2 3.7.4 1.4.7 2.8.9 4.3.1 0 .1.1.2.2 1.7-.3 3.5.1 4.8 1.3.8.7-.4 2-1.2 1.2-.7-.6-1.6-1-2.5-1 .8 1 1.7 1.9 2.8 2.2 1 .3.6 2-.4 1.6-1.1-.3-2.1-1.1-2.9-1.9.1.7.2 1.4.3 2 .1 1.1-1.6 1.1-1.7 0-.1-1.2-.3-2.3-.5-3.5-.7.9-.8 2.6-.6 3.6.2 1.1-1.4 1.5-1.6.5-.4-2.1 0-4.7 1.8-5.9-.2-1.4-.5-2.8-.8-4.2-4.7 1.4-9.3 2.9-13.7 4.9h-.1c.6 1.5 1.1 3 1.3 4.6.2 1.8.1 3.9.9 5.6 1.9 4.3 8.4-.2 11.2-1.3 4.7-1.8 9.9-1.5 14.7-3 3.4-1.1 5.4-2.9 4.1-6.8zM279-74.2c5.1-1.9 11.9 1.4 17 1.6 3.5.2 10-1.9 13 .6 2.8 2.3 1.4 5.9.8 8.9-.9 4.2 0 8.5-.1 12.7-.1 1.8.1 4-.9 5.7-.6 1.1-1.5 2-2.7 2.5-2.1.7-7.2 0-8 2.7 0 .1-.1.2-.1.2 1.7 1.5 2.7 3.6 2.7 6.2 0 6.5.1 13.1-.2 19.6-.3 5.9-2 13.3-10.4 13.5-9-.8-7.5-10.8-7.1-17.1.3-4.8-.1-9.5-.1-14.2 0-2.1-.3-4.9 1.1-6.7.7-.9 1.4-1.5 2.3-2-3.4-2.6-10.6-1.6-11.7-6.6-.4-2.1-.1-4.1.2-6.3.5-3.8.5-7.5.4-11.3-.1-3.9-.4-8.4 3.8-10zm8.9 33.4c1.1-.4 2.2-.5 3.4-.6.2-5-.2-10 .1-15-4.9-.3-9.8-.7-14.6-1.1-.1 1.9-.2 3.8-.5 5.7-.4 2.7-.9 6.4 2.8 7.4 3.3.9 6.3 1.1 8.8 3.6zm4.8 1.1c-4.8-.4-8.1 1.8-8.1 6.9 0 5.3.6 10.6.1 15.8-.5 4.8-2.1 14.9 5.3 15.2 8.1.4 9-7.9 8.9-13-.1-4.7-.3-9.4 0-14 .3-4.9-.2-10.4-6.2-10.9zm15.3-8.1c.1-2.4.1-4.7 0-7.1 0-.5 0-1-.1-1.5-4.9.4-9.9.4-14.9.1-.3 5 .1 10 0 15 .2 0 .4 0 .6.1 1.1.2 2.1.5 3 1 .8-2.2 2.3-3 4.6-3 3.3 0 6.6-.5 6.8-4.6zm-31.1-20c-.1 2.3.1 4.6.1 6.8 0 .6 0 1.2-.1 1.8 4.8.4 9.7.8 14.7 1.1.1-1.4.3-2.9.6-4.3-.1-.1-.1-.1-.1-.2-1.7-.2-3.3-1.3-4.1-2.8-.5-1 1-1.7 1.5-.8.4.8 1.2 1.5 2 1.8-.4-1.2-1-2.3-1.9-3-.9-.6 0-2.1.9-1.4.9.7 1.6 1.7 2.1 2.8.1-.7.3-1.3.4-2 .2-1.1 1.8-.5 1.6.5-.3 1.2-.5 2.3-.6 3.5 1-.6 1.6-2.2 1.8-3.2.2-1.1 1.9-1 1.7.1-.3 2.1-1.5 4.4-3.7 5-.3 1.4-.5 2.8-.6 4.2 4.9.3 9.8.3 14.5-.1h.1c-.1-1.6-.1-3.2.3-4.7.4-1.8 1.2-3.7 1-5.6-.4-4.7-8-2.6-11-2.5-5 .2-9.8-1.8-14.8-2-3.8-.1-6.3.9-6.4 5zm-24.8-13.5c-.3.4-.9.2-1.3-.1-.3.1-.6.1-1-.2-2.5-1.8-5.3-2.9-8-4.6-2.7-1.7-5.1-3.6-8-4.8-.7-.3-1-.9-.9-1.3 1.1-7-.7-14.7 3.7-20.3 2.5-3.3 6.8-5.5 12-5.1v-.2c.3-7.4-1.2-16.2 5.8-20.4 4.7-2.8 11.8-1.3 17.7 2.1.3.1.4.3.5.5 6.3 4 10.6 10.1 9.5 15.8-.5 2.7-1.7 5.3-3.9 7.1-3.1 2.5-8 2.8-11.1 5.2 9.9 14-8.4 18.9-15 26.3zm20.5-35.2c-2.5 2.3-5.6 4.2-8.1 6.5.4.2.8.5 1.2.7 4.4-3.4 11.5-3.1 13.7-8.9.9-2.2.9-4.6.3-6.8-2.1 3.1-4.4 6-7.1 8.5zm-11 4.8c.3.1.5.3.8.4 2.6-2.5 5.9-4.3 8.5-6.8 2.9-2.8 5.4-5.9 7.5-9.3 0-.1.1-.1.1-.1-.8-1.4-1.8-2.8-3.2-4.1-2.2 4.2-5.1 8-7.8 11.9-1.8 2.7-3.2 5.8-5.9 8zm2.1-12.1c-1.7 3.5-4 6.7-5.8 10.1.6.3 1.2.6 1.8 1 0-.2.1-.3.2-.4 3.3-2.8 5.1-7 7.6-10.4 2.2-3.1 4.3-6.1 6-9.5l.1-.1c-.7-.5-1.4-1-2.2-1.5l-.1.1c-4.3 2.2-5.7 6.7-7.6 10.7zm-8.8 7.7c-.1.3-.3.4-.6.5.5.3 1 .5 1.5.8 2.2-4.3 4.9-8.2 6.9-12.5 1.5-3.3 3.2-6.5 6.5-8.5-1.5-.7-3.1-1.2-4.7-1.5 0 .1-.1.2-.2.3-6.8 4.6-7.1 13.6-9.4 20.9zm-4-1.5c.6.4 1.3.7 1.9 1.1v-.3c2.3-7.2 2.7-15.9 8.7-21-3.6-.1-6.8 1-8.4 3.7-2.9 4.7-2 10.8-2.2 16.5zm14.2 10c-4.7-3.1-9.8-5.4-14.6-8.3h-.3c-16.1-2.1-13.6 14.4-14.9 23.7 2.3 1.1 4.2 2.5 6.4 3.9 3 1.8 6.2 3.2 9 5.2 6.3-6.7 24-11.4 14.4-24.5zm28.2-73.4c.5.9 2.1.3 1.5-.7-4.4-8.1-7.5-16.8-11.1-25.3-.4-1-2-.3-1.5.7 3.6 8.5 6.7 17.2 11.1 25.3zm-3 1c.5.9 2.1.3 1.6-.7-4.7-8.3-7.6-17.4-11.3-26.1-.4-1-2-.3-1.6.7 3.6 8.7 6.6 17.8 11.3 26.1zm-2.6 1.4c.5.9 2.1.3 1.5-.7-4.4-8.1-7.5-16.8-11.1-25.3-.4-1-2-.3-1.5.7 3.5 8.5 6.6 17.2 11.1 25.3zm-3.1 1c.5.9 2.1.3 1.5-.7-4.7-8.3-7.6-17.4-11.3-26.1-.4-1-2-.3-1.6.7 3.7 8.7 6.7 17.8 11.4 26.1zm-2.7 1.7c.5.9 2.1.3 1.5-.7-4.7-8.3-7.6-17.4-11.3-26.1-.4-1-2-.3-1.5.7 3.7 8.7 6.7 17.8 11.3 26.1zm-3.3 1c.5.9 2.1.3 1.5-.7-4.7-8.3-7.6-17.4-11.3-26.1-.4-1-2-.3-1.5.7 3.6 8.8 6.6 17.8 11.3 26.1zm-2.7 1.7c.5.9 2.1.3 1.5-.7-4.7-8.3-7.6-17.4-11.3-26.1-.4-1-2-.3-1.5.7 3.7 8.8 6.7 17.8 11.3 26.1zm-3 1.1c.5.9 2.1.3 1.5-.7-4.7-8.3-7.6-17.4-11.3-26.1-.4-1-2-.3-1.5.7 3.6 8.7 6.6 17.8 11.3 26.1zm-2.7 1.7c.5.9 2.1.3 1.5-.7-4.7-8.3-7.6-17.4-11.3-26.1-.4-1-2-.3-1.6.7 3.8 8.7 6.8 17.8 11.4 26.1zm-3.3 1c.5.9 2.1.3 1.6-.7-4.7-8.3-7.6-17.4-11.3-26.1-.4-1-2-.3-1.5.7 3.5 8.7 6.5 17.8 11.2 26.1z"/><path class="st2" d="M263.2-169.7c0 .2 0 .3.2.5l.6.9.3.6c0 .1.1.1.2.2 2.1 3.6 3 7.9 5.8 11.1.1.1.3.2.4.2.1.2.3.3.6.3 2 .2 4 .6 6 1 .1.1.3.2.4.2 9.8 1.1 9.1 10.6 10.9 18.1 1.1 4.8 3.7 9.3 9.1 8.9 5.5-.4 9.7-6.7 9.2-11.8-.3-3.6-3.9-6.4-6.2-8.8-4.8-4.7-4.7-10-2.3-15.9.1-.1.2-.2.2-.3 1.1-2.2 2.2-4.3 3.5-6.4.2-.4.1-.7-.1-1v-.1c-.9-5.9-4.4-11.1-6.4-16.6-2.6-6.9-6.3-13.4-8.5-20.4-.3-1-1.9-.4-1.5.7 1.9 5.9 4.9 11.6 7.2 17.4 1.2 2.9 2.2 5.9 3.5 8.8 1.6 3.5 3.5 6.7 4 10.5 0 .1.1.3.1.3-1.2 2-2.3 4-3.3 6l-.3.3c-2.6 6.1-2.9 11.6 1.5 16.8 3.1 3.7 8.1 6.6 6.4 12.3-1.4 4.6-7.8 8.9-11.9 4.9-4-3.9-3.6-11.8-4.9-16.9-1.3-5.2-4.7-7.8-9.9-8.5-.1-.1-.2-.2-.4-.2-2.1-.4-4.2-.8-6.3-1.1-2.9-3.4-3.8-7.9-6.1-11.6-4.4-8.1-7.4-16.9-10.9-25.4-.4-1-2-.3-1.5.7 3.5 8.2 6.3 16.6 10.4 24.3z"/><path class="st2" d="M292.9-135.7c-1.1-2.4-.4-6.1 2.3-7.1 4.9-1.8 8.8 5.8 4.7 8.5-1 .9-2.3 1.4-3.8 1.1-1.3-.2-2.6-1.3-3.2-2.5zm3.2.8c.9.3 1.5.2 2.2-.2.1-.1.2-.3.4-.3.1-.1.2-.1.3-.2.2-.1.3-.3.5-.5l.2-.2c1.3-1.9-.7-5.7-3.2-5.1-1.8.5-2.6 2.6-2.2 4.3.2 1 .8 1.8 1.8 2.2zM145.6-86.3c-4.2 5.3-12.4 5.3-18.5 4.2-3.9-.7-7.8-1.9-10.9-4.4-3.3-2.7-4.1-7.2-4.4-11.2-2.3-.8-4.3-1.2-5.3 1.1.3.1.7.2 1 .3.5.2.7.6.5 1.1-1 4.2-3.6 12.4-5 15.3 12.7 8.7 17.7 30.8 9.2 43.8-8 12.3-25.5 19.3-39.4 13C60.7-28.5 49.3-41 52.6-55.3c1.9-8.5 7.4-16.9 13.9-22.6 5.7-5 11.7-7 19.1-6.9 1.8-5.2 2-11 5.2-15.5.2-.3.6-.4 1-.3.6.1 1.3.3 1.9.4 1.4-4.5 2.5-9.1 7.6-10.6 1.4-.4 3 .3 4 1.2 2.7 2.5 3.8 6 7.9 6.7 7-5 17.6-6.7 25.4-2.2 5.5 3.1 12 12.5 7 18.8zm-43.9 7.4c-2.2-.4-4.4-1-6.6-1.6-2.2 7.9-4.3 16.5-7.6 24.3 7.6 2.4 14.9 5.9 22.8 7.2.7.1.9.8.7 1.3.1.1.1.3.1.4-2.3 16.5-19.9 27.2-35.3 20.5-12.8-5.5-25.4-24.4-14.9-37 .2-.2.4-.3.7-.3.2-.2.4-.2.7-.1 7.6 3.4 15.7 5.1 23.6 7.5 3.3-7.8 5.3-16.5 7.5-24.3-2.2-.7-4.5-1.5-6.7-2.2-.1.1-.3.1-.4.1-8.4-.3-15 2.3-20.8 8.5-5 5.4-10 12.5-11.4 19.9-2.4 13.2 7.3 25.3 19.1 30.1 12.9 5.3 30.4.1 37.5-12.4 7.3-12.8 3.7-33.2-8.9-41.6.1-.1 0-.2-.1-.3zM69.8-37.3c7.4-4.1 12.1-10.5 15.5-17.9-7.8-2.2-15.7-4-23.2-7.3-9.4 11.9 3 29.9 15.2 34.6 14.2 5.4 30-4.4 32.1-19.4 0-.1 0-.1.1-.2-7.7-1.5-14.7-4.8-22.1-7.1-.2 0-.3-.1-.5-.1-3.5 7.8-8.4 14.6-16.3 18.9-1 .5-1.8-1-.8-1.5zm24.5-61.1c-2.5-.5-2.9-.4-3.9 2.2-.5 1.3-.9 2.6-1.2 4-.6 2.5-1.1 4.9-1.9 7.3 4.7 1.5 9.3 3.3 14.1 4.2 1.8-4.7 3.5-9.4 4.7-14.3-3.8-1.3-7.9-2-11.8-3.4zm17.7-1.1c.2-.7.3-1.3.4-2-3.4-.8-4.6-3.1-7-5.8-5.6-6.2-8.7 3.1-10 7.4 3.1 1.1 6.3 1.8 9.5 2.7 1.3-3.4 3.6-3.4 7.1-2.3zm24-5.1c-7.2-2.7-15.5-1.6-21.8 2.9-.1 0-.1 0-.2.1l-.6 3.3v.1c.4 4.5 1.3 9.3 5.6 11.7 2.4 1.3 5.1 2.2 7.7 2.7 5 .9 12.8 1.6 16.7-2.5 5.8-6.1-1.1-16-7.4-18.3zm-63.7-142c.1.3.1.8-.3 1-.2.1-.4.3-.6.4 6.1 5.6 10.2 13.2 14.8 20.1 2.9 4.4 5.8 8.7 8.5 13.2 2.4 4 4.3 8.3 7.7 11.5.4.3.3.8.1 1.2 0 .2-.1.4-.3.6l-.3.3c3.3 3.2 6.1 7.2 8.1 11.3.3.6-.2 1.1-.8 1.1-5.1 5.7-11.3 10-17.3 14.7-.4.3-.9.2-1.2-.1-3.1-3.5-6.3-6.8-9.2-10.4-.2.2-.4.4-.7.5-.3.2-.6.2-.9.1-.2 0-.4-.1-.6-.3C72.7-187.8 67-195.1 61-202c-3.1-3.5-6.3-6.8-9.3-10.3-2.9-3.3-5.5-6.8-8.8-9.7-.1-.1-.1-.2-.2-.3-.6.4-1.2.8-1.7 1.2-.4.3-.9.2-1.2-.1-2-2.7-4.3-5-6.4-7.5 0-.1-.1-.1-.1-.2-.3-.3-.4-.7-.1-1 9.5-9.9 21.8-16.3 32.2-25.1.2-.2.5-.2.7-.2.3-.1.7-.1 1 .2 2.1 2.4 4 5.3 5.2 8.4zm-7.6 3.8c.6-.5 1.2-.9 1.8-1.3-.9-2.3-2.4-4.4-3.9-6.4 0-.1-.1-.1-.1-.2l-2.4 1.8c2 1.8 3.1 4.1 4.6 6.1zm-8.5-3.2c1.9 1.8 3.4 3.9 4.9 6.1.8-.6 1.5-1.2 2.3-1.8-1.5-2-2.5-4.4-4.5-6.1l-.1-.1c-.8.7-1.7 1.3-2.6 1.9zm-4 2.8c2.1 1.8 3.6 4.1 5.3 6.3.7-.6 1.3-1.1 2-1.7.1-.1.2-.2.3-.2-1.4-2.1-2.9-4.2-4.7-6-.1-.1-.1-.2-.2-.3-.9.6-1.8 1.3-2.7 1.9zm-3.9 2.8c2.1 2 4 4.2 5.6 6.7.8-.7 1.6-1.4 2.4-2-1.6-2.1-3-4.4-5.1-6.2-.1-.1-.2-.2-.2-.3-1 .5-1.8 1.1-2.7 1.8zm-3.5 2.5c.1 0 .2.1.2.2 2.1 2.1 3.9 4.3 5.8 6.6l1.8-1.5c-1.5-2.5-3.4-4.7-5.5-6.7 0 0-.1-.1-.1-.2-.8.5-1.5 1.1-2.2 1.6zm2.3 9.9c.8-.7 1.6-1.4 2.4-2-1.8-2.3-3.7-4.6-5.8-6.7-.1-.1-.1-.2-.2-.2-.8.6-1.6 1.2-2.3 1.8 1.8 2.5 4 4.7 5.9 7.1zm-9.2-4.2c1.9 2.4 4.2 4.4 6.1 6.8l1.8-1.5c-1.9-2.4-4.1-4.6-5.8-7.1l-2.1 1.8zm4.7 7.8c-1.9-2.3-4.1-4.3-6-6.6-.6.5-1.1 1.1-1.7 1.6 1.8 2.2 3.8 4.2 5.6 6.5.8-.5 1.5-1 2.1-1.5zM88.9-176c1.8-1 3.3-2.4 4.8-3.8-.4-2.3.1-5.4 2.2-6.8 2-1.3 4-.6 5.6.9 1.7-1.4 3.3-2.8 4.5-4.6l.1-.1c-1.5-2.5-3.3-4.8-5.4-6.7-.1-.1-.1-.1-.1-.2-6 4.8-11.8 9.7-17.8 14.5 2 2.3 4 4.5 6.1 6.8zm18.2-13c-1.4 1.8-3.1 3.4-4.9 4.8-.1.1-.2.1-.3.2-.3.2-.7.2-1-.2-1.2-1.3-3.2-2.4-4.5-.6-1 1.4-1.2 3-1 4.7v.3c.1.3.1.7-.2 1-1.6 1.5-3.2 2.9-5.1 4.1.5.6 1 1.1 1.5 1.7 5.7-4.4 11.7-8.6 16.6-14.1-.4-.7-.7-1.3-1.1-1.9zM70-244.3c-9.4 6.1-17.1 14.3-26 20.9 3.4 3 6 6.6 9 9.9 3.1 3.4 6.3 6.8 9.3 10.3 5.9 6.8 11.5 13.8 17.9 20.1 6.9-5.5 13.7-11.2 20.6-16.7-2.5-2.5-4.3-5.5-6-8.6-2.8-5-5.9-9.8-9.1-14.5-4.7-7.1-9.1-15.5-15.7-21.4zm-3.8-9.2c-.8.6-1.6 1.3-2.3 1.9l.1.1c1.6 2 3 4.1 4 6.5.6-.4 1.1-.8 1.7-1.1 1.8-1.1-2-5.6-3.5-7.4zm75.1 34.1c-.8 4-5.4 7.8-9.6 7.1-8.1-1.3-9.4-14.6-.5-15.1.2-.2.4-.3.6-.3 2.8 0 5.8-.4 7.8 2 1.6 1.8 2.2 3.9 1.7 6.3zm-4.4-6.3c-1.6-.5-3.2-.4-4.8-.3-.2.2-.4.3-.6.3-7.3 0-5.6 11.9 1 11.8 3.3 0 6.9-2.8 7.3-6.2.2-2.1-.7-4.8-2.9-5.6zm40.6 8.9c-1.6 4.8-6.7 6.6-11.4 5.5-9.9-2.4-6.4-17.9 3.3-16.4h.3c5.3.5 9.7 5.4 7.8 10.9zm-7.9-9.3h-.3c-7.3-1.1-10.8 10.6-3.4 12.9 3.3 1.1 8.1.4 9.6-3.2 2.1-4.6-1-9.1-5.9-9.7z"/><path class="st2" d="M175.8-209.9c-1.2.6-2.5 1-3.8 1.3 1.9 8.9-5.3 15.9-8.4 23.5-.1.2-.3.4-.5.5 1.5 2.1 2.8 4.4 3.9 6.8 3.1 6.5 5 13.3 6.5 20.3 1.6 7.9 2.4 16.2 5.3 23.8.2.6-.2 1-.6 1.1 0 .7-1.2 1.1-1.6.3-7.7-13.1-11.5-27.8-18-41.3-.2 3.3-1 6.4-1.3 9.7-.3 3.6-.4 7.3-.7 10.9-.6 7.3-1.4 14.6-1.6 21.9 0 .9-1.2.9-1.6.2-8.8-14.4-3.1-34.5.2-49.7.1-.3.3-.5.6-.6-3.3-4.5-7.2-8.4-10.9-12.7-4.1-4.7-7.1-9.8-9.2-15.6-.1-.3-.1-.5 0-.7-4 .4-8.1-.9-10.3-4.3-3-4.5-2.1-9.7 1.4-13.7.1-.1.1-.2.3-.3 0 0 .1 0 .1-.1l.6-.6c.2-.2.5-.2.7-.2 5.8-3 13.7-1.7 16.4 4.4 1.8 4.1 1.2 9.6-3 12.5 1.7 3.2 3.2 6.6 5.4 9.4 2.5 3.3 5.6 5.8 8.7 8.5 1.8 1.6 3.6 3.4 5.2 5.2 3.5-5.3 6.9-12.4 5.5-18.9 0-.2 0-.4.1-.5-2.6-.7-5-2.1-6.5-4.4-3.3-5-2.4-10.9 1.6-15.3.1-.1.1-.3.3-.4 0 0 .1 0 .1-.1l.7-.7c.3-.2.6-.3.8-.2 6.6-3.4 15.3-1.9 18.4 4.9 2.2 5.3 1.1 12.2-4.8 15.1zm-38.9-2.4c12.7-5.1 2-23.3-10.2-15.1-2.9 3-4.2 7.4-2.2 11.1 2.3 4 7.6 6 12.4 4zm20.5 36.3c-.7-1.3-1.5-2.6-2.3-3.8-3.1 13.9-8.1 31.8-1.7 45.5.3-6.9 1.2-13.7 1.6-20.6.2-3.5.2-7.2.7-10.7.5-3.3 1.2-6.5 1.2-9.8 0-.3.2-.5.5-.6zm1-12.1c-2.9-3.2-6.3-5.8-9.5-8.8-4.5-4.2-7.2-9.2-10-14.6-1.1.5-2.3.9-3.5 1.2 0 .1.1.1.1.2 2.7 7.2 6.7 12.9 11.9 18.4 4.9 5.1 9.2 10.3 12.2 16.7 6 12.5 9.9 25.9 16.3 38.2-4.1-13.3-4.1-27.6-10.5-40.3-1.8-4-4-7.8-7-11zm11.9-20.2c-1.2.1-2.4.2-3.6 0 1.5 7-2.2 14.7-6 20.4.5.6 1 1.3 1.5 1.9 3-7.2 10-14 8.1-22.3zm-8.4-19.3c-3.3 3.4-4.7 8.3-2.4 12.5 2.5 4.5 8.4 6.7 13.8 4.5 14.3-5.8 2.3-26.2-11.4-17z"/><path class="st2" d="M159.6-184.2c-.4-.1-.8-.1-1.2 0h-.5c-.3 0-.7.4-.7.7v.4c-.2.8.3 1.8 1.2 1.9.9.1 2.2-.5 2-1.6 0-.1-.1-.2-.1-.3.1-.5-.2-1-.7-1.1z"/><path class="st1" d="M226.3-155.5zm-.8 8.6c-1.5 7.5-2.4 15.2-4.2 22.7-.1.3-.3.5-.5.6-.1.1-.2.3-.5.3-3.6.7-7.5-.4-10.9-1.3-3.7-.9-7.4-1.5-10.8-3.3-.2-.1-.3-.2-.3-.4-.1-.2-.2-.4-.2-.7 1.5-7.5 2.3-15.3 4.5-22.6h-.1c-2.7-2.2-.3-6.6 2-8.1.2-.2.4-.4.8-.3.6.1 1.2.2 1.8.4 1.1-6.1 3.3-17.4 5.1-22.4.3-1.9 2.6-3.3 4.3-3.4.7-2.7 2.2-8.7 2.4-11.5 0-.2.1-.3.2-.4.2-.7.4-1.3.7-1.7 2-3.2 5.8-5.3 9.4-6.1.3-.1.6 0 .8.2.2 0 .4 0 .6.2.7.6 1 1.4 1 2.3.1.2.2.4.2.6-.5 5-3.2 13.1-3.8 18.1.1 0 .2.1.3.1 1.6 1.2 2.3 3.1 1.7 4.7v.1c-1.1 5-3.6 18.2-4.6 23.3 0 0 .8.1.9.1h.2c5 .9 2.6 7.2-1 8.5zm-4.1-48.3c2.3.2 4.5-1.2 6-2.8.8-.8 3.6-4.2 2.2-5.5-2.5.6-5 1.8-6.9 3.7-.3.4-3.4 4.4-1.3 4.6zm-3.6 12.1c.8 3.8 6 3.1 8.1 1 .1-.1.2-.2.3-.2.3-4.1 2.2-11.3 3.1-15.3l-.3.3c-2 2.2-5.3 4.6-8.5 3.7-.1 0-.2-.1-.4-.2-.5 2.4-1.9 8.1-2.4 10.5.2.1.1.1.1.2zm-.8 5.2c1.3.7 2.9 1 4.3.9 1.7-.1 10.1-1.5 6.5-5-.1.2-.2.4-.5.5 0 .1-.1.3-.2.4-3 2.9-9.9 3.6-11-1.5 0-.2 0-.4.1-.5-.1-.1-.1-.3-.1-.5v-.1c-3.5.6-1.3 4.7.9 5.8zm-8.1 18.6c5 1.1 9.9 2.6 14.9 3.4v-.1c.9-4.2 3.2-16.7 4.1-20.9-2.7 1.4-6 2-9 1.4-2.3-.5-4.5-1.8-5.7-3.8-1.2 4.5-3.3 14.7-4.3 20zm10.9 34.4c1.7-7.2 2.6-14.6 4.1-21.9-6.9-1-12.8-2.6-19.6-4-2.1 7-2.9 14.5-4.3 21.7 3.1 1.5 6.6 2.1 9.9 2.9 3 .7 6.7 1.9 9.9 1.3zm6.3-28.9c-.1 0-.1 0-.1-.1h-.1c-7.3-.7-13.2-3.1-20.4-4.4-1.4.9-3.5 4-1.8 5.4l.1.1c7.4 1.6 13.6 3.3 21.1 4.3l.1-.1c2-.6 4.4-4.6 1.1-5.2zM170-38zm-.8 8.7c-1.5 7.5-2.4 15.2-4.2 22.7-.1.3-.3.5-.5.6-.1.1-.2.3-.5.3-3.6.7-7.5-.4-10.9-1.3-3.7-.9-7.4-1.5-10.8-3.3-.2-.1-.3-.2-.3-.4-.1-.2-.2-.4-.2-.7 1.5-7.5 2.3-15.3 4.5-22.6h-.1c-2.7-2.2-.3-6.6 2-8.1.2-.2.4-.4.8-.3.6.1 1.2.2 1.8.4 1.1-6.1 3.3-17.4 5.1-22.4.3-1.9 2.6-3.3 4.3-3.4.7-2.7 2.2-8.7 2.4-11.5 0-.2.1-.3.2-.4.2-.7.4-1.3.7-1.7 2-3.2 5.8-5.3 9.4-6.1.3-.1.6 0 .8.2.2 0 .4 0 .6.2.7.6 1 1.4 1 2.3.1.2.2.4.2.6-.5 5-3.2 13.1-3.8 18.1.1 0 .2.1.3.1 1.6 1.2 2.3 3.1 1.7 4.7v.1c-1.1 5-3.6 18.2-4.6 23.3 0 0 .8.1.9.1h.2c5 .8 2.6 7.1-1 8.5zm-4.1-48.4c2.3.2 4.5-1.2 6-2.8.8-.8 3.6-4.2 2.2-5.5-2.5.6-5 1.8-6.9 3.7-.3.4-3.4 4.4-1.3 4.6zm-3.6 12.1c.8 3.8 6 3.1 8.1 1 .1-.1.2-.2.3-.2.3-4.1 2.2-11.3 3.1-15.3l-.3.3c-2 2.2-5.3 4.6-8.5 3.7-.1 0-.2-.1-.4-.2-.5 2.4-1.9 8.1-2.4 10.5.2.1.1.1.1.2zm-.8 5.3c1.3.7 2.9 1 4.3.9 1.7-.1 10.1-1.5 6.5-5-.1.2-.2.4-.5.5 0 .1-.1.3-.2.4-3 2.9-9.9 3.6-11-1.5 0-.2 0-.4.1-.5-.1-.1-.1-.3-.1-.5v-.1c-3.5.5-1.3 4.7.9 5.8zm-8.1 18.5c5 1.1 9.9 2.6 14.9 3.4v-.1c.9-4.2 3.2-16.7 4.1-20.9-2.7 1.4-6 2-9 1.4-2.3-.5-4.5-1.8-5.7-3.8-1.2 4.5-3.3 14.7-4.3 20zm10.9 34.4c1.7-7.2 2.6-14.6 4.1-21.9-6.9-1-12.8-2.6-19.6-4-2.1 7-2.9 14.5-4.3 21.7 3.1 1.5 6.6 2.1 9.9 2.9 3 .7 6.7 1.9 9.9 1.3zm6.3-28.9c-.1 0-.1 0-.1-.1h-.1c-7.3-.7-13.2-3.1-20.4-4.4-1.4.9-3.5 4-1.8 5.4l.1.1c7.4 1.6 13.6 3.3 21.1 4.3l.1-.1c2-.6 4.4-4.6 1.1-5.2zM67.3-140.6c3.7 2.7 7.5 4.8 12.1 4.3 5.4-.5 9.1-5.1 11.8-9.3 2.1-3.2 4-6.4 7.7-7.8 2.8-1.1 6.1-.5 8.8.8 4.2 2.2 3.4 6.7 1.1 10-2.6 3.6-7.6 5.2-11.5 7-14.7 6.7-23.5 20.9-37 29.4-6.1 3.8-14.9 7.8-21.8 4.1-4.6-2.5-7.3-8.4-9.9-12.7-.6-.9-2 0-1.4.9 2.7 4.4 5.3 10 9.9 12.8 5.3 3.3 11.3 2 16.8 0 8.7-3.3 15.9-9.6 22.5-16 3.8-3.6 7.3-7.6 11.3-11 4.1-3.4 9.1-5.5 13.9-7.7 5.2-2.4 11.3-6.3 10.8-12.8-.3-4.5-5.3-6.7-9.2-7.1-5.6-.6-9.4 2.8-12.2 7.2-2.7 4.1-5.2 8-9.9 10-4.5 1.9-9.2-.8-12.8-3.4-.8-.6-1.9.6-1 1.3z"/><path class="st1" d="M29.5-115.8c2 3.1 3.8 6.4 6.2 9.3.7.8 2.1-.1 1.4-.9-2.3-2.9-4.1-6.2-6.2-9.3-.6-1-2 0-1.4.9zm2.1-2.5c2.2 3.4 3.8 7.1 6.1 10.4.6.9 2 0 1.4-.9-2.3-3.3-3.9-7-6.1-10.4-.5-.9-1.9 0-1.4.9zm2.8-1.5c2.1 3.2 3.8 6.6 5.6 9.9.5 1 1.9 0 1.4-.9-1.7-3.4-3.5-6.7-5.6-9.9-.6-1-2-.1-1.4.9zm14.8 3.2c-2-3.1-3.8-6.4-6.2-9.3-.7-.8-2.1.1-1.4.9 2.3 2.9 4.1 6.2 6.2 9.3.6 1 2 0 1.4-.9zm-2.1 2.5c-2.2-3.4-3.8-7.1-6.1-10.4-.6-.9-2 0-1.4.9 2.3 3.3 3.9 7 6.1 10.4.6.9 2 0 1.4-.9zm-2.8 1.6c-2.1-3.2-3.8-6.6-5.6-9.9-.5-1-1.9 0-1.4.9 1.7 3.4 3.5 6.7 5.6 9.9.6.9 2 0 1.4-.9zm-.1-13.9c2 3.1 3.8 6.4 6.2 9.3.7.8 2.1-.1 1.4-.9-2.3-2.9-4.1-6.2-6.2-9.3-.6-.9-2 0-1.4.9zm2.2-2.4c2.2 3.4 3.8 7.1 6.1 10.4.6.9 2 0 1.4-.9-2.3-3.3-3.9-7-6.1-10.4-.6-.9-2 0-1.4.9zm2.7-1.6c2.1 3.2 3.8 6.6 5.6 9.9.5 1 1.9 0 1.4-.9-1.7-3.4-3.5-6.8-5.6-9.9-.6-.9-2 0-1.4.9zm14.9 3.3c-2-3.1-3.8-6.4-6.2-9.3-.7-.8-2.1.1-1.4.9 2.3 2.9 4.1 6.2 6.2 9.3.6.9 2 0 1.4-.9zm-2.2 2.5c-2.2-3.4-3.8-7.1-6.1-10.4-.6-.9-2 0-1.4.9 2.3 3.3 3.9 7 6.1 10.4.6.9 2 0 1.4-.9zm-2.7 1.5c-2.1-3.2-3.8-6.6-5.6-9.9-.5-1-1.9 0-1.4.9 1.7 3.4 3.5 6.7 5.6 9.9.6 1 2 0 1.4-.9zm12.1-8.8c-2-3.1-3.8-6.4-6.2-9.3-.7-.8-2.1.1-1.4.9 2.4 2.9 4.1 6.2 6.2 9.3.6 1 2 0 1.4-.9zm-2.2 2.5c-2.2-3.4-3.8-7.1-6.1-10.4-.6-.9-2 0-1.4.9 2.3 3.3 3.9 7 6.1 10.4.6.9 2 0 1.4-.9zm-2.4 1.4c-2.1-3.2-3.8-6.6-5.6-9.9-.5-1-1.9 0-1.4.9 1.7 3.4 3.5 6.8 5.6 9.9.6.9 2 0 1.4-.9zm39.9-19.8c3 5.4-6.4 10.5-9.5 5.1 0-.1-.1-.1-.1-.2v-.1c-3.7-5.5 6.4-10.6 9.6-4.8zm-8.1 4.2c2 3.4 8.3.4 6.7-3.2-1.9-4.2-9.6-.8-6.7 3.2zm147.7-89.9l-.1.1c0 .3-.2.5-.5.6-10.8 4.2-21.8 7.9-32.5 12.2-.1.1-.3.1-.4.1-.2.2-.5.3-.8.2-4.8-1.6-9.8-3.7-12.1-8.6-2.7-5.7-1.3-10.3.2-16.1 0-.1.1-.2.1-.3-2.9-2.5-6.8-6.7-2.5-9.9 4.7-3.6 11.3-5 16.7-7.1 4.2-1.7 8.7-2.8 12.8-4.7 2-.9 4.8-2.6 7.1-2.3 4.6.6 4.4 5.7 3.9 9.5 11.5 1.9 12.4 17.5 8.1 26.3zm-12.8-34.3c.8 2.7 1 5.5 1.4 8.3.5-.1 1-.3 1.5-.4.4-2.7 1-8.6-2.9-7.9zm-1.7 9.2c.5-.2 1-.3 1.5-.4-.4-2.7-.5-5.5-1.3-8.2v-.1c-.6.2-1.1.4-1.6.6.3 2.7.9 5.4 1.4 8.1zm-3.9 1.3c.8-.3 1.5-.5 2.3-.8-.4-2.7-1-5.3-1.5-7.9-.3.1-.6.3-.9.4l-2.1.9c1.1 2.3 1.7 4.8 2.2 7.4zM224-256c.7-.3 1.4-.5 2.1-.8-.4-2.5-1.1-5-2.2-7.4-.8.3-1.7.6-2.5.9 1.3 2.3 1.9 4.8 2.6 7.3zm-3.9 1.5c.8-.3 1.6-.6 2.3-.9-.7-2.5-1.2-5.1-2.7-7.3-.7.3-1.5.5-2.2.8 1.5 2.3 1.9 4.9 2.6 7.4zm-4.3 1.8c.9-.4 1.8-.8 2.8-1.1-.7-2.5-1-5.2-2.5-7.4v-.1c-.7.3-1.5.5-2.2.8.9 2.6 1.5 5.2 1.9 7.8zm-3.3 1.4c.6-.2 1.1-.5 1.7-.7-.3-2.7-.9-5.3-1.9-7.8-.9.3-1.7.7-2.6 1 .9 2.4 1.8 5 2.8 7.5zm-6.8-6.2c1 2.6 2.2 5.1 3.4 7.6.6-.3 1.2-.5 1.8-.8-1-2.5-1.9-5.1-2.8-7.7-.8.4-1.6.6-2.4.9zm-3.6 1.4c1.7 2.3 2.8 4.9 3.8 7.6.6-.2 1.1-.5 1.7-.7-1.2-2.5-2.4-5.1-3.4-7.7-.3.1-.6.2-1 .4-.3.1-.7.3-1.1.4zm-3.2 1.6c1.7 2.2 2.5 4.9 4.1 7.2.4-.2.8-.3 1.2-.5-1-2.6-2-5.3-3.8-7.5-.4.2-1 .5-1.5.8zm2.3 8c.1 0 .2-.1.3-.1-1.4-2.1-2.3-4.5-3.8-6.6-.1.2-.3.4-.3.7-.8 2.5 2.1 4.5 3.8 6zm35.1-11.7c-8.3 2.2-16.1 5.5-24 8.8-2.1.9-4.3 1.8-6.4 2.7-.1.1-.2.1-.4.2-1.3.6-2.7 1.1-4 1.6-1.3 4.7-3.1 9.4-.9 14.1 2.4 4.9 6.6 7 11.5 8.6.1-.1.1-.1.2-.1 10.7-4.2 21.5-7.9 32.2-12 3.8-7.7 4-23.2-8.2-23.9z"/><path class="st1" d="M240.3-241.4c.3.7-19.5 8.7-28.9 12.3-.5.2-.9-.1-1.1-.5-1.9-3.4-2.9-7.2-5.2-10.4-.1-.2-.2-.3-.2-.5-.3-.4-.3-1 .4-1.2 10.5-2.7 19.5-9.3 30.2-11.2.4-.1.7.2.9.5 1.7 3.6 2.5 7.4 3.9 11zm-1.9-.4c-1-2.8-1.6-5.9-2.9-8.6-.9-1.9-9.2 2-10.6 2.7-5.9 2.6-11.7 5.6-17.9 7.4 2 2.9 3 6.3 4.6 9.4 9-3.5 17.5-8.1 26.8-10.9z"/><path class="st2" d="M4.6-74.2c5.1-1.9 11.9 1.4 17 1.6 3.5.2 10-1.9 13 .6 2.8 2.3 1.4 5.9.8 8.9-.9 4.2 0 8.5-.1 12.7-.1 1.8.1 4-.9 5.7-.6 1.1-1.5 2-2.7 2.5-2.1.7-7.2 0-8 2.7 0 .1-.1.2-.1.2 1.7 1.5 2.7 3.6 2.7 6.2 0 6.5.1 13.1-.2 19.6-.3 5.9-2 13.4-10.5 13.5-9-.8-7.5-10.8-7.1-17.1.3-4.8-.1-9.5-.1-14.2 0-2.1-.3-4.9 1.1-6.7.7-.9 1.4-1.5 2.3-2C8.4-42.6 1.2-41.6.1-46.6c-.4-2.1-.1-4.1.2-6.3.5-3.8.5-7.5.4-11.3 0-3.9-.3-8.4 3.9-10zm8.9 33.4c1.1-.4 2.2-.5 3.4-.6.2-5-.2-10 .1-15-4.9-.3-9.8-.7-14.6-1.1-.1 1.9-.2 3.8-.5 5.7-.4 2.8-.9 6.4 2.8 7.4 3.3.9 6.3 1.1 8.8 3.6zm4.8 1.1c-4.8-.4-8.1 1.8-8.1 6.9 0 5.3.6 10.6.1 15.8-.5 4.8-2.1 14.8 5.2 15.2 8.1.4 9-7.9 8.9-13-.1-4.7-.3-9.4 0-14 .4-4.9-.1-10.4-6.1-10.9zm15.3-8.1c.1-2.4.1-4.7 0-7.1 0-.5 0-1-.1-1.5-4.9.4-9.9.3-14.8.1-.3 5 .1 10 0 15 .2 0 .4 0 .6.1 1.1.2 2.1.5 3 1 .8-2.2 2.3-3 4.6-3 3.2 0 6.5-.5 6.7-4.6zm-31.2-20c-.1 2.3.1 4.6.1 6.8 0 .6 0 1.2-.1 1.8 4.8.4 9.7.8 14.7 1.1.1-1.4.3-2.9.6-4.3-.1-.1-.1-.1-.1-.2-1.7-.2-3.2-1.3-4.1-2.8-.5-1 1-1.7 1.5-.8.4.8 1.2 1.5 2 1.8-.4-1.2-1-2.3-1.9-3-.9-.6 0-2.1.9-1.4.9.7 1.6 1.7 2.1 2.8.1-.7.3-1.3.4-2 .2-1.1 1.8-.5 1.6.5-.3 1.2-.5 2.3-.6 3.5 1-.6 1.6-2.2 1.8-3.2.2-1.1 1.9-1 1.7.1-.3 2.1-1.5 4.4-3.7 5-.3 1.4-.5 2.8-.6 4.2 4.9.3 9.8.3 14.5-.1h.1c-.1-1.6-.1-3.2.3-4.7.4-1.8 1.2-3.7 1-5.6-.4-4.7-8-2.6-11-2.5-5 .2-9.8-1.8-14.8-2-3.8-.1-6.3.9-6.4 5zM279-323c5.1-1.9 11.9 1.4 17 1.6 3.5.2 10-1.9 13 .6 2.8 2.3 1.4 5.9.8 8.9-.9 4.2 0 8.5-.1 12.7-.1 1.8.1 4-.9 5.7-.6 1.1-1.5 2-2.7 2.5-2.1.7-7.2 0-8 2.7 0 .1-.1.2-.1.2 1.7 1.5 2.7 3.6 2.7 6.2 0 6.5.1 13.1-.2 19.6-.3 5.9-2 13.3-10.4 13.5-9-.8-7.5-10.8-7.1-17.1.3-4.8-.1-9.5-.1-14.2 0-2.1-.3-4.9 1.1-6.7.7-.9 1.4-1.5 2.3-2-3.4-2.6-10.6-1.6-11.7-6.6-.4-2.1-.1-4.1.2-6.3.5-3.8.5-7.5.4-11.3-.1-3.9-.4-8.4 3.8-10zm8.9 33.4c1.1-.4 2.2-.5 3.4-.6.2-5-.2-10 .1-15-4.9-.3-9.8-.7-14.6-1.1-.1 1.9-.2 3.8-.5 5.7-.4 2.7-.9 6.4 2.8 7.4 3.3.9 6.3 1.1 8.8 3.6zm4.8 1.1c-4.8-.4-8.1 1.8-8.1 6.9 0 5.3.6 10.6.1 15.8-.5 4.8-2.1 14.9 5.3 15.2 8.1.4 9-7.9 8.9-13-.1-4.7-.3-9.4 0-14 .3-4.9-.2-10.4-6.2-10.9zm15.3-8.1c.1-2.4.1-4.7 0-7.1 0-.5 0-1-.1-1.5-4.9.4-9.9.3-14.8.1-.3 5 .1 10 0 15 .2 0 .4 0 .6.1 1.1.2 2.1.5 3 1 .8-2.2 2.3-3 4.6-3 3.2-.1 6.5-.5 6.7-4.6zm-31.1-20c-.1 2.3.1 4.6.1 6.8 0 .6 0 1.2-.1 1.8 4.8.4 9.7.8 14.7 1.1.1-1.4.3-2.9.6-4.3-.1-.1-.1-.1-.1-.2-1.7-.2-3.3-1.3-4.1-2.8-.5-1 1-1.7 1.5-.8.4.8 1.2 1.5 2 1.8-.4-1.2-1-2.3-1.9-3-.9-.6 0-2.1.9-1.4.9.7 1.6 1.7 2.1 2.8.1-.7.3-1.3.4-2 .2-1.1 1.8-.5 1.6.5-.3 1.2-.5 2.3-.6 3.5 1-.6 1.6-2.2 1.8-3.2.2-1.1 1.9-1 1.7.1-.3 2.1-1.5 4.4-3.7 5-.3 1.4-.5 2.8-.6 4.2 4.9.3 9.8.3 14.5-.1h.1c-.1-1.6-.1-3.2.3-4.7.4-1.8 1.2-3.7 1-5.6-.4-4.7-8-2.6-11-2.5-5 .2-9.8-1.8-14.8-2-3.8-.1-6.3.9-6.4 5z"/><path class="st1" d="M169.2-278.1c-1.5 7.5-2.4 15.2-4.2 22.7-.1.3-.3.5-.5.6-.1.1-.2.3-.5.3-3.6.7-7.5-.4-10.9-1.3-3.7-.9-7.4-1.5-10.8-3.3-.2-.1-.3-.2-.3-.4-.1-.2-.2-.4-.2-.7 1.5-7.5 2.3-15.3 4.5-22.6h-.1c-2.7-2.2-.3-6.6 2-8.1.2-.2.4-.4.8-.3.6.1 1.2.2 1.8.4 1.1-6.1 3.3-17.4 5.1-22.4.3-1.9 2.6-3.3 4.3-3.4.7-2.7 2.2-8.7 2.4-11.5 0-.2.1-.3.2-.4.2-.7.4-1.3.7-1.7 2-3.2 5.8-5.3 9.4-6.1.3-.1.6 0 .8.2.2 0 .4 0 .6.2.7.6 1 1.4 1 2.3.1.2.2.4.2.6-.5 5-3.2 13.1-3.8 18.1.1 0 .2.1.3.1 1.6 1.2 2.3 3.1 1.7 4.7v.1c-1.1 5-3.6 18.2-4.6 23.3 0 0 .8.1.9.1h.2c5 .8 2.6 7.1-1 8.5zm-4.1-48.4c2.3.2 4.5-1.2 6-2.8.8-.8 3.6-4.2 2.2-5.5-2.5.6-5 1.8-6.9 3.7-.3.4-3.4 4.4-1.3 4.6zm-3.6 12.1c.8 3.8 6 3.1 8.1 1 .1-.1.2-.2.3-.2.3-4.1 2.2-11.3 3.1-15.3l-.3.3c-2 2.2-5.3 4.6-8.5 3.7-.1 0-.2-.1-.4-.2-.5 2.4-1.9 8.1-2.4 10.5.2.1.1.1.1.2zm-.8 5.3c1.3.7 2.9 1 4.3.9 1.7-.1 10.1-1.5 6.5-5-.1.2-.2.4-.5.5 0 .1-.1.3-.2.4-3 2.9-9.9 3.6-11-1.5 0-.2 0-.4.1-.5-.1-.1-.1-.3-.1-.5v-.1c-3.5.5-1.3 4.7.9 5.8zm-8.1 18.5c5 1.1 9.9 2.6 14.9 3.4v-.1c.9-4.2 3.2-16.7 4.1-20.9-2.7 1.4-6 2-9 1.4-2.3-.5-4.5-1.8-5.7-3.8-1.2 4.5-3.3 14.7-4.3 20zm10.9 34.4c1.7-7.2 2.6-14.6 4.1-21.9-6.9-1-12.8-2.6-19.6-4-2.1 7-2.9 14.5-4.3 21.7 3.1 1.5 6.6 2.1 9.9 2.9 3 .7 6.7 1.9 9.9 1.3zm6.3-28.9c-.1 0-.1 0-.1-.1h-.1c-7.3-.7-13.2-3.1-20.4-4.4-1.4.9-3.5 4-1.8 5.4l.1.1c7.4 1.6 13.6 3.3 21.1 4.3l.1-.1c2-.6 4.4-4.6 1.1-5.2z"/><path class="st2" d="M4.6-323c5.1-1.9 11.9 1.4 17 1.6 3.5.2 10-1.9 13 .6 2.8 2.3 1.4 5.9.8 8.9-.9 4.2 0 8.5-.1 12.7-.1 1.8.1 4-.9 5.7-.6 1.1-1.5 2-2.7 2.5-2.1.7-7.2 0-8 2.7 0 .1-.1.2-.1.2 1.7 1.5 2.7 3.6 2.7 6.2 0 6.5.1 13.1-.2 19.6-.3 5.9-2 13.3-10.4 13.5-9-.8-7.5-10.8-7.1-17.1.3-4.8-.1-9.5-.1-14.2 0-2.1-.3-4.9 1.1-6.7.7-.9 1.4-1.5 2.3-2-3.4-2.6-10.6-1.6-11.7-6.6-.4-2.1-.1-4.1.2-6.3.5-3.8.5-7.5.4-11.3-.1-3.9-.4-8.4 3.8-10zm8.9 33.4c1.1-.4 2.2-.5 3.4-.6.2-5-.2-10 .1-15-4.9-.3-9.8-.7-14.6-1.1-.1 1.9-.2 3.8-.5 5.7-.4 2.7-.9 6.4 2.8 7.4 3.3.9 6.3 1.1 8.8 3.6zm4.8 1.1c-4.8-.4-8.1 1.8-8.1 6.9 0 5.3.6 10.6.1 15.8-.5 4.8-2.1 14.9 5.3 15.2 8.1.4 9-7.9 8.9-13-.1-4.7-.3-9.4 0-14 .3-4.9-.2-10.4-6.2-10.9zm15.3-8.1c.1-2.4.1-4.7 0-7.1 0-.5 0-1-.1-1.5-4.9.4-9.9.3-14.8.1-.3 5 .1 10 0 15 .2 0 .4 0 .6.1 1.1.2 2.1.5 3 1 .8-2.2 2.3-3 4.6-3 3.2-.1 6.5-.5 6.7-4.6zm-31.2-20c-.1 2.3.1 4.6.1 6.8 0 .6 0 1.2-.1 1.8 4.8.4 9.7.8 14.7 1.1.1-1.4.3-2.9.6-4.3-.1-.1-.1-.1-.1-.2-1.7-.2-3.2-1.3-4.1-2.8-.5-1 1-1.7 1.5-.8.4.8 1.2 1.5 2 1.8-.4-1.2-1-2.3-1.9-3-.9-.6 0-2.1.9-1.4.9.7 1.6 1.7 2.1 2.8.1-.7.3-1.3.4-2 .2-1.1 1.8-.5 1.6.5-.3 1.2-.5 2.3-.6 3.5 1-.6 1.6-2.2 1.8-3.2.2-1.1 1.9-1 1.7.1-.3 2.1-1.5 4.4-3.7 5-.3 1.4-.5 2.8-.6 4.2 4.9.3 9.8.3 14.5-.1h.1c-.1-1.6-.1-3.2.3-4.7.4-1.8 1.2-3.7 1-5.6-.4-4.7-8-2.6-11-2.5-5 .2-9.8-1.8-14.8-2-3.8-.1-6.3.9-6.4 5z"/></pattern><pattern id="SVGID_1_" xlink:href="#Nueva_muestra_de_motivo_2" patternTransform="translate(-50 -200.195)"/><path fill="url(#SVGID_1_)" d="M0 0h800v800H0z"/><pattern id="SVGID_2_" xlink:href="#Nueva_muestra_de_motivo_2" patternTransform="translate(-50 -200.195)"/><path fill="url(#SVGID_2_)" d="M800 0h23v800h-23z"/></svg>