<svg version="1.1" id="Layer_1" xmlns="http://www.w3.org/2000/svg" x="0" y="0" viewBox="0 0 447.1 260.2" xml:space="preserve"><style>.st45{fill:#d1d3d4}.st46{fill:#cfe4bd}</style><path opacity=".1" fill="#d1d3d4" d="M172.8 2.2L0 102.5l272.7 157.7 174.4-101.9z"/><path opacity=".121" fill="#d0d2d3" d="M172.9 2.5L.5 102.5l272.1 157.3 173.9-101.7z"/><path opacity=".143" fill="#cfd1d2" d="M173 2.7L1 102.6l271.4 156.8L446 158z"/><path opacity=".164" fill="#ced0d1" d="M173.1 3L1.6 102.6l270.7 156.5 173.1-101.2z"/><path opacity=".186" fill="#cdcfd0" d="M173.2 3.2L2.1 102.6l270 156.1 172.7-100.9z"/><path opacity=".207" fill="#cccecf" d="M173.3 3.5L2.6 102.6 272 258.3l172.2-100.7z"/><path opacity=".229" fill="#cbcdce" d="M173.4 3.7L3.1 102.6l268.7 155.3 171.8-100.4z"/><path opacity=".25" fill="#cacccd" d="M173.5 4L3.6 102.6l268.1 155L443 157.4z"/><path opacity=".271" fill="#c9cbcc" d="M173.5 4.3L4.1 102.6l267.4 154.6 171-99.9z"/><path opacity=".293" fill="#c8cacb" d="M173.6 4.5L4.7 102.6l266.7 154.2 170.5-99.7z"/><path opacity=".314" fill="#c7c9ca" d="M173.7 4.8L5.2 102.7l266 153.7L441.3 157z"/><path opacity=".336" fill="#c6c8c9" d="M173.8 5L5.7 102.7 271 256.1l169.7-99.2z"/><path opacity=".357" fill="#c5c7c8" d="M173.9 5.3L6.2 102.7l264.7 153 169.2-98.9z"/><path opacity=".379" fill="#c4c6c7" d="M174 5.6L6.7 102.7l264 152.6 168.9-98.7z"/><path opacity=".4" fill="#c3c5c6" d="M174.1 5.8L7.3 102.7l263.3 152.2L439 156.5z"/><path opacity=".421" fill="#c2c4c5" d="M174.2 6.1L7.8 102.7l262.6 151.9 168-98.2z"/><path opacity=".443" fill="#c1c3c4" d="M174.3 6.3l-166 96.4 262 151.5 167.5-97.9z"/><path opacity=".464" fill="#c0c2c3" d="M174.4 6.6L8.8 102.7l261.3 151.1 167.1-97.7z"/><path opacity=".486" fill="#bfc1c2" d="M174.5 6.8L9.3 102.7 270 253.4 436.7 156z"/><path opacity=".507" fill="#bec0c1" d="M174.6 7.1L9.8 102.8l260 150.3 166.3-97.2z"/><path opacity=".529" fill="#bdbfc0" d="M174.7 7.4L10.4 102.8l259.3 149.9 165.8-96.9z"/><path opacity=".55" fill="#bdbfc0" d="M174.8 7.6L10.9 102.8l258.6 149.5 165.4-96.7z"/><path opacity=".571" fill="#bcbebf" d="M174.9 7.9L11.4 102.8l258 149.1 164.9-96.4z"/><path opacity=".593" fill="#bbbdbe" d="M174.9 8.1l-163 94.7 257.3 148.7 164.5-96.1z"/><path opacity=".614" fill="#babcbd" d="M175 8.4L12.4 102.8l256.7 148.4 164.1-95.9z"/><path opacity=".636" fill="#b9bbbc" d="M175.1 8.7L13 102.8l255.9 148 163.7-95.7z"/><path opacity=".657" fill="#b8babb" d="M175.2 8.9L13.5 102.8l255.3 147.6L432 155z"/><path opacity=".679" fill="#b7b9ba" d="M175.3 9.2L14 102.8 268.6 250l162.8-95.1z"/><path opacity=".7" fill="#b6b8b9" d="M175.4 9.4L14.5 102.9l254 146.8 162.3-94.9z"/><path opacity=".721" fill="#b5b7b8" d="M175.5 9.7L15 102.9l253.3 146.4 162-94.7z"/><path opacity=".743" fill="#b4b6b7" d="M175.6 9.9l-160.1 93 252.6 146 161.6-94.4z"/><path opacity=".764" fill="#b3b5b6" d="M175.7 10.2L16.1 102.9 268 248.5l161.1-94.1z"/><path opacity=".786" fill="#b2b4b5" d="M175.8 10.5L16.6 102.9l251.2 145.3 160.7-93.9z"/><path opacity=".807" fill="#b1b3b4" d="M175.9 10.7L17.1 102.9l250.6 144.9 160.2-93.7z"/><path opacity=".829" fill="#b0b2b3" d="M176 11L17.6 102.9l249.9 144.5L427.3 154z"/><path opacity=".85" fill="#afb1b2" d="M176.1 11.2l-158 91.7L267.4 247l159.4-93.1z"/><path opacity=".871" fill="#aeb0b1" d="M176.2 11.5L18.7 102.9l248.5 143.8 159-93z"/><path opacity=".893" fill="#adafb0" d="M176.2 11.8L19.2 103l247.9 143.3 158.5-92.7z"/><path opacity=".914" fill="#acaeaf" d="M176.3 12L19.7 103l247.2 142.9L425 153.5z"/><path opacity=".936" fill="#abadae" d="M176.4 12.3L20.2 103l246.6 142.5 157.6-92.1z"/><path opacity=".957" fill="#aaacad" d="M176.5 12.5L20.7 103l245.9 142.1 157.3-91.9z"/><path opacity=".979" fill="#a9abac" d="M176.6 12.8L21.2 103l245.3 141.8 156.8-91.7z"/><path fill="#a8aaab" d="M176.7 13L21.8 103l244.5 141.4L422.7 153z"/><path fill="#fff" d="M272.7 258l174.4-101.9-63.8-52.1-65.7-22-64.4-50-80.4-32L0 100.3l79 32.1 65.5 51.1 64.4 21.8z"/><linearGradient id="SVGID_1_" gradientUnits="userSpaceOnUse" x1="329.7" y1="329.024" x2="149.033" y2="-18.309"><stop offset=".076" stop-color="#f0eff2"/><stop offset="1" stop-color="#fff"/></linearGradient><path fill="url(#SVGID_1_)" d="M211.4 200.9L146.9 179l-65.3-51-70.3-28.5 161.9-94 77.5 30.9 64.5 50.1 65.7 21.9 57.5 47-165.2 96.5z"/><path class="st45" d="M178.4 57.6l-6 3.6 7.4 8.7 10.6-5.3zm-40.5 114.5l36.8-23.1 12.5 9.3c.1.1.3.2.4.2l7.7 2.6-18.8 11 1.5 2.6 21.7-12.7c.5-.3.8-.9.7-1.4-.1-.6-.5-1.1-1-1.3l-10.6-3.6-11.4-8.4 10.8-6.8-1.6-2.5-51.2 32.1 2.5 2zm-81-87.4l-33.3 19.8 3.4 1.4 33.4-19.7-.2-.2 15.2 5.6 1.1-2.8L48 78.2l-3.3 2z"/><path class="st45" d="M143.7 90.8c.2.1.4.1.6.1.3 0 .6-.1.8-.2l12.5-7.8 4.7 2 26.8 24.8 2-2.2-6.3-5.8 32.9-20.1c.4-.2.7-.7.7-1.1 0-.5-.1-.9-.5-1.3L199.6 63c-.1-.1-.1-.1-.2-.1l-19.7-12.5-1.6 2.5 19.6 12.4 9.2 8.1-31.7 19.4-11.1-10.3c-.1-.1-.3-.2-.4-.3l-42-17.9-1.2 2.8 33.7 14.4-10 6.3-51.8-23.2 20.2-12.1-1.5-2.6L89 63.1l-8.4-3.8-3.2 1.9 66.3 29.6zm65.6-15.3l5.1 4.5-31.9 19.5-5-4.6 31.8-19.4zm117.8 121.7l-2 2.1 14.4 13.9 2.7-1.6zm-111.2-7l-1.6-2.6L200 197l3.6 1.2zm130.4-49c.1.6.5 1 1.1 1.2l23.3 6.7.8-2.9-22.4-6.4-1.3-7.5 36.5-21-2.5-2-34.5 19.7-.7-4c-.1-.5-.4-.9-.8-1.1l-7.1-3.6 28.5-16.4-3.8-1.3-27.9 16.1-21.7-11.1-1.4 2.7 31.3 16 2.6 14.9zm-80.2-92.8l-11.4 6.5 1.5 2.6 12.4-7.1z"/><path class="st46" d="M216.8 102.9l40.6-1.7 37-7.6 18 9.3-31.3 19.3-11.3-3-51.4 18.4-15.6-29zm-44.7-99l-64.5 38.5 24 12 27-11 19 1.5 32-17.5-3-9.5zm60.5 142.5l-31.5 11 .5 6.5 4.5 12.5 25 11 4.5 3 2.5 2 46 10 11 7.5 23-14-11-18.5 11-21.5-10.5-8.5-36.5-16.5z"/><linearGradient id="SVGID_2_" gradientUnits="userSpaceOnUse" x1="147.595" y1="264.678" x2="276.262" y2="-16.656"><stop offset=".035" stop-color="#138bbd"/><stop offset=".226" stop-color="#169ac7"/><stop offset=".595" stop-color="#1fc3df"/><stop offset="1" stop-color="#2af6ff"/></linearGradient><path d="M240.5 224.9l27.1 22.4c2.7-14.2 7.6-43.8 9.2-64.7 1.5-19.6-15.2-29.2-24-38.7-5.4-5.8-7.4-11.3-9.7-18.1-2.8-8.7-1.2-16.7.7-25.9 2-9.5 6.9-21.4 3.6-33.3-3.7-13.3-22.2-20.1-40.5-29.4-14.4-7.3-27-18.9-35.1-30.9l-24.7 14.3c12.5 15.1 35.6 22.1 53.6 31.2 11.1 5.6 23.4 16.4 24.7 21.2 2 7.3.5 14.5-1.2 22.8-2.2 10.5-7.7 23.1-3.3 36.9 3.6 11 10.8 18.7 17.1 25.5 8.8 9.4 16.8 14.5 16 24.9-1 14.2-8.1 30.8-13.5 41.8z" fill="url(#SVGID_2_)"/><path d="M300.3 218.4l74.3-46c.9-.6 1.4-1.6 1.4-2.6l-1-35.9 20.2-13.7-4.8-4-20.1 13.6c-.8.6-1.3 1.5-1.3 2.6l1 35.8-74.5 46.1.1.1-10.6-8.8c-.4-.3-.9-.5-1.4-.6l-48.1-9.3-4.9-4.9c-.3-.3-.7-.5-1.1-.7L168 167.3l-50-43.4 59-35.4c1.2-.7 1.8-2.3 1.3-3.6l-9.8-25.7 42.7-23.9 22.3 8.8 63.2 49.7c.1.1.3.2.5.3l17.2 9-35.4 22.3 3.2 5.1 57.1-35.9-7.4-2.5-12.2 7.7.3-.5-19.8-10.4L236.9 39c-.2-.2-.5-.3-.8-.4l-24-9.5c-.8-.3-1.8-.3-2.6.2l-44.9 25.2-34 2.4-24.3-12.5-6.2 3.6L124 60.1l-83.9 51L47 114l84-51.2 31.8-2.2 9.1 24-60.3 36.2c-.8.5-1.4 1.4-1.4 2.3-.1 1 .3 1.9 1 2.5l53.5 46.5c.3.2.6.4.9.5l18.4 6.8-12.1 8 7.2 2.4 11.8-7.8 36 13.4 5 5c.4.4 1 .7 1.5.8l48.2 9.4 25.5 21.3 5.5-3.2-12.3-10.3z" fill="#fee2a6"/><linearGradient id="SVGID_3_" gradientUnits="userSpaceOnUse" x1="242.376" y1="127.966" x2="-23.957" y2="15.633"><stop offset=".035" stop-color="#ffa98c"/><stop offset=".317" stop-color="#ffb892"/><stop offset=".86" stop-color="#fee1a3"/><stop offset="1" stop-color="#feeca8"/></linearGradient><path d="M315.8 139.9c-.3-.3-.7-.5-1.1-.7l-42-18.5c-.9-.4-2-.5-2.9-.1l-68.9 24.3-21.8-17.7c1.5-1.7 2.2-3.7 2.2-5.7 0-1-.2-1.9-.5-2.8l29.5-16.3 45.1-3.4c.6 0 1.2-.2 1.7-.5l41.5-24.7-6.8-5.3-38 22.6-45.1 3.4c-.6 0-1.1.2-1.6.5l-32 17.7c-2.8-1.5-6.4-2.3-10.1-2.3-2 0-4 .2-5.8.7l-18.1-14.7c-.3-.2-.6-.4-1-.6L69.1 66l-8.7 5 76 31.9 15 12.2c-1.8 1.8-2.8 4-2.8 6.3 0 1.5.4 2.9 1.2 4.3L109.7 150l6.7 5.3 40.1-24.4c2.5 1 5.5 1.6 8.5 1.6 2.3 0 4.6-.3 6.7-.9l25.8 21c1.1.9 2.5 1.1 3.9.7l69.5-24.5 40 17.6 56.4 50.6 7.3-4.2-58.8-52.9zm-144-16.9c-1.7 1-4.1 1.5-6.6 1.5-2.6 0-5-.6-6.7-1.6-1.2-.7-1.6-1.4-1.6-1.6 0-.2.4-.8 1.6-1.5 1.7-1 4.1-1.5 6.6-1.5 2.6 0 5 .6 6.7 1.6 1.2.7 1.6 1.4 1.6 1.6-.1.1-.5.8-1.6 1.5z" fill="url(#SVGID_3_)"/><path class="st46" d="M375.6 191.4l-10.5-10.5 14-9 16.5-43 6-2.5 35.5 29zm-266.5-44l-25.5-19-2.5-19-11-7 24-15 37 14.5-2.5 7-19.5 11.5-8.5 5.5 13 3.5 4 14.5z"/><linearGradient id="SVGID_4_" gradientUnits="userSpaceOnUse" x1="324.096" y1="118.38" x2="149.347" y2="2.381"><stop offset=".035" stop-color="#9f19ab"/><stop offset=".244" stop-color="#ae25b1"/><stop offset=".645" stop-color="#d744bf"/><stop offset="1" stop-color="#ff63ce"/></linearGradient><path d="M322.9 118.7c-.2 0-.3 0-.5-.1l-1.8-.8c-.6-.3-.9-1-.6-1.7.3-.6 1-.9 1.7-.6l1.8.8c.6.3.9 1 .6 1.7-.2.4-.7.7-1.2.7z" fill="url(#SVGID_4_)"/><linearGradient id="SVGID_5_" gradientUnits="userSpaceOnUse" x1="323.467" y1="119.328" x2="148.717" y2="3.328"><stop offset=".035" stop-color="#9f19ab"/><stop offset=".244" stop-color="#ae25b1"/><stop offset=".645" stop-color="#d744bf"/><stop offset="1" stop-color="#ff63ce"/></linearGradient><path d="M317.5 116.2c-.2 0-.3 0-.5-.1l-3.6-1.6c-.6-.3-.9-1-.6-1.7.3-.6 1-.9 1.7-.6l3.6 1.6c.6.3.9 1 .6 1.7-.2.5-.7.7-1.2.7z" fill="url(#SVGID_5_)"/><linearGradient id="SVGID_6_" gradientUnits="userSpaceOnUse" x1="322.338" y1="121.029" x2="147.589" y2="5.03"><stop offset=".035" stop-color="#9f19ab"/><stop offset=".244" stop-color="#ae25b1"/><stop offset=".645" stop-color="#d744bf"/><stop offset="1" stop-color="#ff63ce"/></linearGradient><path d="M306.8 113.3c-.4 0-.8-.2-1.1-.6-.4-.6-.2-1.4.4-1.7l1.7-1c.4-.2.8-.2 1.2-.1l1.8.8c.6.3.9 1 .6 1.7-.3.6-1 .9-1.7.6l-1.2-.5-1.2.7s-.3.1-.5.1z" fill="url(#SVGID_6_)"/><linearGradient id="SVGID_7_" gradientUnits="userSpaceOnUse" x1="314.574" y1="132.725" x2="139.823" y2="16.725"><stop offset=".035" stop-color="#9f19ab"/><stop offset=".244" stop-color="#ae25b1"/><stop offset=".645" stop-color="#d744bf"/><stop offset="1" stop-color="#ff63ce"/></linearGradient><path d="M285.8 126c-.4 0-.8-.2-1.1-.6-.4-.6-.2-1.4.4-1.7l3.5-2.1c.6-.4 1.4-.2 1.7.4.4.6.2 1.4-.4 1.7l-3.5 2.1c-.1.1-.4.2-.6.2zm7-4.2c-.4 0-.8-.2-1.1-.6-.4-.6-.2-1.4.4-1.7l3.5-2.1c.6-.4 1.4-.2 1.7.4.4.6.2 1.4-.4 1.7l-3.5 2.1c-.1.1-.4.2-.6.2zm7-4.3c-.4 0-.8-.2-1.1-.6-.4-.6-.2-1.4.4-1.7l3.5-2.1c.6-.4 1.4-.2 1.7.4.4.6.2 1.4-.4 1.7l-3.5 2.1c-.1.2-.4.2-.6.2z" fill="url(#SVGID_7_)"/><linearGradient id="SVGID_8_" gradientUnits="userSpaceOnUse" x1="306.774" y1="144.476" x2="132.023" y2="28.476"><stop offset=".035" stop-color="#9f19ab"/><stop offset=".244" stop-color="#ae25b1"/><stop offset=".645" stop-color="#d744bf"/><stop offset="1" stop-color="#ff63ce"/></linearGradient><path d="M280.6 129.2c-.1 0-.3 0-.4-.1l-1.9-.7c-.6-.2-1-1-.7-1.6.2-.6 1-1 1.6-.7l1.3.5 1.2-.7c.6-.4 1.4-.2 1.7.4.4.6.2 1.4-.4 1.7l-1.7 1c-.3.1-.5.2-.7.2z" fill="url(#SVGID_8_)"/><linearGradient id="SVGID_9_" gradientUnits="userSpaceOnUse" x1="290.059" y1="169.656" x2="115.309" y2="53.656"><stop offset=".035" stop-color="#9f19ab"/><stop offset=".244" stop-color="#ae25b1"/><stop offset=".645" stop-color="#d744bf"/><stop offset="1" stop-color="#ff63ce"/></linearGradient><path d="M205.6 148.7c-.5 0-1-.3-1.2-.8-.2-.7.1-1.4.8-1.6l3.7-1.3c.7-.2 1.4.1 1.6.8.2.7-.1 1.4-.8 1.6l-3.7 1.3h-.4zm7.3-2.6c-.5 0-1-.3-1.2-.8-.2-.7.1-1.4.8-1.6l3.7-1.3c.7-.2 1.4.1 1.6.8.2.7-.1 1.4-.8 1.6l-3.7 1.3h-.4zm7.4-2.5c-.5 0-1-.3-1.2-.8-.2-.7.1-1.4.8-1.6l3.7-1.3c.7-.2 1.4.1 1.6.8.2.7-.1 1.4-.8 1.6l-3.7 1.3c-.2-.1-.3 0-.4 0zm7.3-2.6c-.5 0-1-.3-1.2-.8-.2-.7.1-1.4.8-1.6l3.7-1.3c.7-.2 1.4.1 1.6.8.2.7-.1 1.4-.8 1.6L228 141h-.4zm7.3-2.6c-.5 0-1-.3-1.2-.8-.2-.7.1-1.4.8-1.6l3.7-1.3c.7-.2 1.4.1 1.6.8.2.7-.1 1.4-.8 1.6l-3.7 1.3h-.4zm7.3-2.6c-.5 0-1-.3-1.2-.8-.2-.7.1-1.4.8-1.6l3.7-1.3c.7-.2 1.4.1 1.6.8.2.7-.1 1.4-.8 1.6l-3.7 1.3h-.4zm7.3-2.5c-.5 0-1-.3-1.2-.8-.2-.7.1-1.4.8-1.6l3.7-1.3c.7-.2 1.4.1 1.6.8.2.7-.1 1.4-.8 1.6l-3.7 1.3c-.1-.1-.3 0-.4 0zm7.3-2.6c-.5 0-1-.3-1.2-.8-.2-.7.1-1.4.8-1.6l3.7-1.3c.7-.2 1.4.1 1.6.8.2.7-.1 1.4-.8 1.6l-3.7 1.3h-.4zm7.3-2.6c-.5 0-1-.3-1.2-.8-.2-.7.1-1.4.8-1.6l3.7-1.3c.7-.2 1.4.1 1.6.8.2.7-.1 1.4-.8 1.6l-3.7 1.3h-.4zm11-1c-.1 0-.3 0-.4-.1l-3.6-1.3c-.6-.2-1-1-.7-1.6.2-.6 1-1 1.6-.7l3.6 1.3c.6.2 1 1 .7 1.6-.2.5-.7.8-1.2.8z" fill="url(#SVGID_9_)"/><linearGradient id="SVGID_10_" gradientUnits="userSpaceOnUse" x1="272.315" y1="196.388" x2="97.565" y2="80.388"><stop offset=".035" stop-color="#9f19ab"/><stop offset=".244" stop-color="#ae25b1"/><stop offset=".645" stop-color="#d744bf"/><stop offset="1" stop-color="#ff63ce"/></linearGradient><path d="M200.1 150.7c-.3 0-.6-.1-.8-.3l-1.6-1.3c-.5-.4-.6-1.2-.2-1.8.4-.5 1.2-.6 1.8-.2l1 .8 1.2-.4c.7-.2 1.4.1 1.6.8.2.7-.1 1.4-.8 1.6l-1.9.7s-.2.1-.3.1z" fill="url(#SVGID_10_)"/><linearGradient id="SVGID_11_" gradientUnits="userSpaceOnUse" x1="272.833" y1="195.607" x2="98.083" y2="79.607"><stop offset=".035" stop-color="#9f19ab"/><stop offset=".244" stop-color="#ae25b1"/><stop offset=".645" stop-color="#d744bf"/><stop offset="1" stop-color="#ff63ce"/></linearGradient><path d="M195.8 147.2c-.3 0-.6-.1-.8-.3l-2.8-2.2c-.5-.4-.6-1.2-.2-1.8.4-.5 1.2-.6 1.8-.2l2.8 2.2c.5.4.6 1.2.2 1.8-.3.3-.7.5-1 .5zm-5.5-4.5c-.3 0-.6-.1-.8-.3l-2.8-2.2c-.5-.4-.6-1.2-.2-1.8.4-.5 1.2-.6 1.8-.2l2.8 2.2c.5.4.6 1.2.2 1.8-.3.3-.7.5-1 .5zm-5.6-4.5c-.3 0-.6-.1-.8-.3l-2.8-2.2c-.5-.4-.6-1.2-.2-1.8.4-.5 1.2-.6 1.8-.2l2.8 2.2c.5.4.6 1.2.2 1.8-.2.3-.6.5-1 .5zm-5.5-4.5c-.3 0-.6-.1-.8-.3l-2.8-2.2c-.5-.4-.6-1.2-.2-1.8.4-.5 1.2-.6 1.8-.2l2.8 2.2c.5.4.6 1.2.2 1.8-.2.3-.6.5-1 .5z" fill="url(#SVGID_11_)"/><linearGradient id="SVGID_12_" gradientUnits="userSpaceOnUse" x1="274.278" y1="193.43" x2="99.528" y2="77.43"><stop offset=".035" stop-color="#9f19ab"/><stop offset=".244" stop-color="#ae25b1"/><stop offset=".645" stop-color="#d744bf"/><stop offset="1" stop-color="#ff63ce"/></linearGradient><path d="M173.7 129.2c-.3 0-.6-.1-.8-.3l-1.6-1.3c-.3-.2-.5-.6-.5-1s.2-.7.5-1c0 0 .6-.5 1.3-1.2.5-.5 1.2-.6 1.8-.1.5.5.6 1.2.1 1.8l-.5.5.4.3c.5.4.6 1.2.2 1.8-.2.4-.5.5-.9.5z" fill="url(#SVGID_12_)"/><linearGradient id="SVGID_13_" gradientUnits="userSpaceOnUse" x1="277.975" y1="187.86" x2="103.226" y2="71.861"><stop offset=".035" stop-color="#9f19ab"/><stop offset=".244" stop-color="#ae25b1"/><stop offset=".645" stop-color="#d744bf"/><stop offset="1" stop-color="#ff63ce"/></linearGradient><path d="M175.5 123.5c-.1 0-.3 0-.4-.1-.7-.2-1-.9-.8-1.6.1-.4.2-.9.2-1.3 0-.5-.1-.9-.3-1.4-.3-.6 0-1.4.7-1.6.6-.3 1.4 0 1.6.7.3.8.5 1.5.5 2.4 0 .7-.1 1.4-.3 2.1-.2.4-.7.8-1.2.8zm-2.4-6.4c-.3 0-.5-.1-.8-.3-.8-.6-1.7-1.1-2.8-1.4-.7-.2-1-.9-.8-1.6.2-.7.9-1 1.6-.8 1.4.4 2.6 1.1 3.6 1.8.5.4.6 1.2.2 1.8-.2.4-.6.5-1 .5zm-6.8-2.3h-.1c-1.1-.1-2.3-.1-3.5 0-.7.1-1.3-.5-1.3-1.2s.5-1.3 1.2-1.3c1.2-.1 2.6-.1 3.8 0 .7.1 1.2.7 1.1 1.3 0 .7-.5 1.2-1.2 1.2z" fill="url(#SVGID_13_)"/><linearGradient id="SVGID_14_" gradientUnits="userSpaceOnUse" x1="275.243" y1="191.976" x2="100.493" y2="75.976"><stop offset=".035" stop-color="#9f19ab"/><stop offset=".244" stop-color="#ae25b1"/><stop offset=".645" stop-color="#d744bf"/><stop offset="1" stop-color="#ff63ce"/></linearGradient><path d="M157.1 115.7c-.3 0-.6-.1-.8-.3l-1.5-1.3c-.5-.4-.6-1.2-.2-1.8.4-.5 1.2-.6 1.8-.2l1 .9c.4-.1.8-.2 1.4-.3.7-.1 1.3.3 1.4 1 .1.7-.3 1.3-1 1.4-1.1.2-1.8.4-1.8.4-.1.1-.2.2-.3.2z" fill="url(#SVGID_14_)"/><linearGradient id="SVGID_15_" gradientUnits="userSpaceOnUse" x1="275.354" y1="191.806" x2="100.605" y2="75.807"><stop offset=".035" stop-color="#9f19ab"/><stop offset=".244" stop-color="#ae25b1"/><stop offset=".645" stop-color="#d744bf"/><stop offset="1" stop-color="#ff63ce"/></linearGradient><path d="M152.4 111.7c-.3 0-.6-.1-.8-.3l-3.1-2.6c-.5-.4-.6-1.2-.2-1.8.4-.5 1.2-.6 1.8-.2l3.1 2.6c.5.4.6 1.2.2 1.8-.3.4-.6.5-1 .5z" fill="url(#SVGID_15_)"/><linearGradient id="SVGID_16_" gradientUnits="userSpaceOnUse" x1="276.295" y1="190.389" x2="101.546" y2="74.39"><stop offset=".035" stop-color="#9f19ab"/><stop offset=".244" stop-color="#ae25b1"/><stop offset=".645" stop-color="#d744bf"/><stop offset="1" stop-color="#ff63ce"/></linearGradient><path d="M146.1 106.4c-.3 0-.6-.1-.8-.3l-1.5-1.3c-.3-.3-.5-.7-.4-1.1 0-.4.3-.8.6-1l1.7-1c.6-.3 1.4-.1 1.7.5.3.6.1 1.4-.5 1.7l-.2.1.2.1c.5.4.6 1.2.2 1.8-.3.4-.6.5-1 .5z" fill="url(#SVGID_16_)"/><linearGradient id="SVGID_17_" gradientUnits="userSpaceOnUse" x1="284.751" y1="177.654" x2="110.001" y2="61.654"><stop offset=".035" stop-color="#9f19ab"/><stop offset=".244" stop-color="#ae25b1"/><stop offset=".645" stop-color="#d744bf"/><stop offset="1" stop-color="#ff63ce"/></linearGradient><path d="M149.4 102.4c-.4 0-.9-.2-1.1-.6-.3-.6-.1-1.4.5-1.7l3.1-1.8c.6-.3 1.4-.1 1.7.5.3.6.1 1.4-.5 1.7l-3.1 1.8c-.2 0-.4.1-.6.1zm6.1-3.6c-.4 0-.9-.2-1.1-.6-.3-.6-.1-1.4.5-1.7l3.1-1.8c.6-.3 1.4-.1 1.7.5.3.6.1 1.4-.5 1.7l-3.1 1.8c-.2.1-.4.1-.6.1zm6.1-3.5c-.4 0-.9-.2-1.1-.6-.3-.6-.1-1.4.5-1.7l3.1-1.8c.6-.3 1.4-.1 1.7.5.3.6.1 1.4-.5 1.7l-3.1 1.8c-.1 0-.4.1-.6.1zm6.1-3.6c-.4 0-.9-.2-1.1-.6-.3-.6-.1-1.4.5-1.7l3.1-1.8c.6-.3 1.4-.1 1.7.5.3.6.1 1.4-.5 1.7l-3.1 1.8c-.1.1-.3.1-.6.1z" fill="url(#SVGID_17_)"/><linearGradient id="SVGID_18_" gradientUnits="userSpaceOnUse" x1="293.504" y1="164.467" x2="118.754" y2="48.467"><stop offset=".035" stop-color="#9f19ab"/><stop offset=".244" stop-color="#ae25b1"/><stop offset=".645" stop-color="#d744bf"/><stop offset="1" stop-color="#ff63ce"/></linearGradient><path d="M173.9 88.2c-.4 0-.8-.2-1.1-.6-.3-.6-.1-1.4.5-1.7l.9-.5-.3-1c-.2-.7.2-1.4.9-1.5.7-.2 1.4.2 1.5.9l.5 1.9c.2.5-.1 1.1-.6 1.4l-1.7 1c-.2 0-.4.1-.6.1z" fill="url(#SVGID_18_)"/><linearGradient id="SVGID_19_" gradientUnits="userSpaceOnUse" x1="296.364" y1="160.158" x2="121.614" y2="44.158"><stop offset=".035" stop-color="#9f19ab"/><stop offset=".244" stop-color="#ae25b1"/><stop offset=".645" stop-color="#d744bf"/><stop offset="1" stop-color="#ff63ce"/></linearGradient><path d="M174.1 81.7c-.5 0-1-.4-1.2-.9l-1-3.6c-.2-.7.2-1.4.9-1.5.7-.2 1.4.2 1.5.9l1 3.6c.2.7-.2 1.4-.9 1.5h-.3z" fill="url(#SVGID_19_)"/><linearGradient id="SVGID_20_" gradientUnits="userSpaceOnUse" x1="299.214" y1="155.865" x2="124.464" y2="39.865"><stop offset=".035" stop-color="#9f19ab"/><stop offset=".244" stop-color="#ae25b1"/><stop offset=".645" stop-color="#d744bf"/><stop offset="1" stop-color="#ff63ce"/></linearGradient><path d="M172.1 74.6c-.5 0-1-.4-1.2-.9l-.5-1.9c-.2-.6.1-1.2.6-1.4l1.8-.9c.6-.3 1.4-.1 1.7.5.3.6.1 1.4-.5 1.7l-1 .3.3 1c.2.7-.2 1.4-.9 1.5-.1 0-.2.1-.3.1z" fill="url(#SVGID_20_)"/><linearGradient id="SVGID_21_" gradientUnits="userSpaceOnUse" x1="302.926" y1="150.273" x2="128.176" y2="34.273"><stop offset=".035" stop-color="#9f19ab"/><stop offset=".244" stop-color="#ae25b1"/><stop offset=".645" stop-color="#d744bf"/><stop offset="1" stop-color="#ff63ce"/></linearGradient><path d="M177.3 69.5c-.4 0-.9-.2-1.1-.7-.3-.6-.1-1.4.5-1.7l2.5-1.2c.6-.3 1.4-.1 1.7.5.3.6.1 1.4-.5 1.7l-2.5 1.2c-.2.2-.4.2-.6.2z" fill="url(#SVGID_21_)"/><linearGradient id="SVGID_22_" gradientUnits="userSpaceOnUse" x1="304.423" y1="148.018" x2="129.673" y2="32.018"><stop offset=".035" stop-color="#9f19ab"/><stop offset=".244" stop-color="#ae25b1"/><stop offset=".645" stop-color="#d744bf"/><stop offset="1" stop-color="#ff63ce"/></linearGradient><path d="M183.7 67.7c-1.2.7-3.2.7-4.4 0-1.2-.7-1.2-1.8 0-2.5s3.2-.7 4.4 0c1.2.7 1.2 1.8 0 2.5z" fill="url(#SVGID_22_)"/><path class="st45" d="M328.4 191.2l18-10.6-21.6-20-6.4 4.3 12 13.3-8 5zm-44 50.7l18-10.7-16.5-14.5-6.3 4.4-1.2 12.8zm27-126l-14.3 9 9.5 5.3 9-2.6 10.2 5.6 11-6.3zm-168.3-51l-4 2.7 19 8.3 4-4-3.7-7zm14 87.3l14.3-9-5.6-5.6-6 3.3-5.7-5.3-10.7 6.3zm98-66.3l13.7-9.3-13.7-12-4.7 4.3 7.4 5.7-6.4 5.3zm101 85.7l10-6.4-.3-16-7.7-1.3-2 10.3-3.7 2.7-16.3-14.3-5.3 3zm-155-29.7l11-5.7-12.7-25-10 5.4-.3 7.3-5.3 4z"/><path d="M317.6 82l-64.4-50L79 132.4l65.5 51.1zM208.9 205.3l63.8 52.7 174.4-101.9-63.8-52.1z" fill="#c8cacc"/><radialGradient id="SVGID_23_" cx="1107.945" cy="-3363.443" r="22.044" gradientTransform="matrix(1.181 0 0 .6022 -979.333 2142.14)" gradientUnits="userSpaceOnUse"><stop offset="0" stop-color="#c7c8c9"/><stop offset="1" stop-color="#fff"/></radialGradient><ellipse cx="328.6" cy="116.7" rx="26" ry="13.3" fill="url(#SVGID_23_)"/><linearGradient id="SVGID_24_" gradientUnits="userSpaceOnUse" x1="348.22" y1="108.712" x2="306.813" y2="14.634"><stop offset=".035" stop-color="#9f19ab"/><stop offset=".164" stop-color="#ae25b1"/><stop offset=".412" stop-color="#d744bf"/><stop offset=".631" stop-color="#ff63ce"/><stop offset=".874" stop-color="#dc48c1"/></linearGradient><path d="M329 17.4c-8.5-4.9-16.1-5-21.3-1.4l-6.1 2.8.7 3.9c-1.3 3-2.1 6.7-2.1 11 0 12.5 6.7 32.2 13.6 49.2l7.2 37.6 8-4s28.7-23.8 28.7-49.7c.1-18-12.8-40.2-28.7-49.4z" fill="url(#SVGID_24_)"/><linearGradient id="SVGID_25_" gradientUnits="userSpaceOnUse" x1="275.393" y1="98.815" x2="355.889" y2="33.226"><stop offset=".035" stop-color="#9f19ab"/><stop offset=".244" stop-color="#ae25b1"/><stop offset=".645" stop-color="#d744bf"/><stop offset="1" stop-color="#ff63ce"/></linearGradient><path d="M349.8 71c0 25.9-28.7 49.7-28.7 49.7s-28.7-57-28.7-82.9c0-18.2 12.9-25.6 28.7-16.4 15.9 9.1 28.7 31.3 28.7 49.6z" fill="url(#SVGID_25_)"/><radialGradient id="SVGID_26_" cx="335.404" cy="52.823" r="40.501" gradientUnits="userSpaceOnUse"><stop offset="0" stop-color="#fff"/><stop offset="1"/></radialGradient><path d="M322.9 20.4c-8.3-4.8-15.7-5-21-1.6 5.1-2.3 11.8-1.6 19.2 2.6 15.9 9.2 28.7 31.4 28.7 49.6 0 22.2-21.1 42.8-27.1 48.3.1.3.2.4.2.4s28.7-23.8 28.7-49.7c.1-18.2-12.8-40.4-28.7-49.6z" fill="url(#SVGID_26_)"/><linearGradient id="SVGID_27_" gradientUnits="userSpaceOnUse" x1="-212.664" y1="2169.766" x2="-234.823" y2="2153.016" gradientTransform="matrix(.866 .5 0 1.1547 514.7 -2329.762)"><stop offset="0" stop-color="#d4d1d8"/><stop offset="1" stop-color="#fff"/></linearGradient><path d="M333.6 61.6c0 7.9-5.6 11.1-12.5 7.1s-12.5-13.6-12.5-21.6c0-7.9 5.6-11.1 12.5-7.1s12.5 13.7 12.5 21.6z" fill="url(#SVGID_27_)"/><path class="st45" d="M324.9 66.9c-6.9-4-12.5-13.6-12.5-21.6 0-3.1.9-5.5 2.4-7-3.7.3-6.2 3.5-6.2 8.8 0 7.9 5.6 17.6 12.5 21.6 4.2 2.4 7.9 2.2 10.1-.1-1.8.2-4-.4-6.3-1.7z"/></svg>