<svg version="1.1" id="Capa_1" xmlns="http://www.w3.org/2000/svg" x="0" y="0" viewBox="0 0 512 512" xml:space="preserve"><style>.st0{fill:#fff}</style><path class="st0" d="M211.3 389.2L151 449.5c-25 25-65.5 25-90.5 0s-25-65.5 0-90.5l120.7-120.7c25-25 65.5-25 90.5 0 8.3 8.3 21.8 8.3 30.2 0 8.3-8.3 8.3-21.8 0-30.2-41.7-41.7-109.2-41.7-150.8 0L30.2 328.9c-41.7 41.7-41.7 109.2 0 150.8 41.6 41.7 109.2 41.7 150.9 0l60.3-60.3c8.3-8.3 8.3-21.8 0-30.2s-21.8-8.3-30.1 0z" transform="translate(1 1)"/><path class="st0" d="M479.7 30.2c-41.7-41.7-109.2-41.7-150.9 0l-72.4 72.4c-8.3 8.3-8.3 21.8 0 30.2 8.3 8.3 21.8 8.3 30.2 0L359 60.4c25-25 65.5-25 90.5 0s25 65.5 0 90.5L316.8 283.6c-25 25-65.5 25-90.5 0-8.3-8.3-21.8-8.3-30.2 0s-8.3 21.8 0 30.2c41.7 41.7 109.2 41.7 150.8 0l132.7-132.7c41.8-41.7 41.8-109.2.1-150.9z" transform="translate(1 1)"/></svg>