<?xml version="1.0" encoding="utf-8"?><svg xmlns="http://www.w3.org/2000/svg" xmlns:xlink="http://www.w3.org/1999/xlink"><symbol viewBox="0 0 512.002 512.002" id="add" xmlns="http://www.w3.org/2000/svg"><path d="M468.146 372.001a8.398 8.398 0 00-10.725-5.104 8.399 8.399 0 00-5.105 10.725c4.831 13.613-.062 28.927-11.899 37.242-14.585 10.242-34.783 6.713-45.027-7.871-4.962-7.065-6.876-15.64-5.39-24.145 1.486-8.505 6.197-15.921 13.261-20.884a32.272 32.272 0 0135.784-.924 8.398 8.398 0 108.932-14.226 49.029 49.029 0 00-54.37 1.404c-22.164 15.567-27.531 46.263-11.963 68.427 9.55 13.597 24.79 20.872 40.265 20.87a48.85 48.85 0 0028.163-8.908c17.987-12.633 25.419-35.91 18.074-56.606z"/><path d="M484.733 340.609c-11.666-15.376-28.617-25.908-47.728-29.653-19.117-3.747-38.786-.386-55.386 9.458a79.376 79.376 0 00-14.442 10.958l-66.567-94.773L330.725 64.35c16.764 28.675 23.023 62.608 17.233 95.724l-17.121 97.931a8.399 8.399 0 006.828 9.719c.489.086.977.128 1.456.128a8.401 8.401 0 008.263-6.954l17.121-97.931c7.773-44.459-3.865-90.232-31.927-125.582a8.4 8.4 0 00-14.851 3.776l-30.77 175.999-46.94-66.829a8.399 8.399 0 10-13.746 9.654l105.833 150.678-20.606 28.88-100.685-143.347c-19.313-27.496-28.079-60.848-25.103-93.958l24.156 34.391a8.4 8.4 0 0013.746-9.654l-36.005-51.261a8.397 8.397 0 00-8.463-3.414 8.408 8.408 0 00-6.587 6.325c-10.362 43.924-1.428 90.295 24.512 127.226l73.556 104.724-6.701 38.334a78.951 78.951 0 00-11.61-2.948c-20.782-3.633-41.739 1.046-59.009 13.176-17.269 12.13-28.781 30.255-32.415 51.039-3.635 20.787 1.045 41.746 13.175 59.015 12.129 17.266 30.255 28.776 51.041 32.409a79.957 79.957 0 0013.777 1.202c16.102 0 31.789-4.926 45.237-14.371 17.266-12.128 28.776-30.256 32.411-51.045l8.603-49.206 31.401 44.706c12.419 17.682 30.974 29.45 52.249 33.139a80.378 80.378 0 0013.728 1.189c16.059 0 31.637-4.895 44.919-14.278 17.646-12.469 29.184-31.1 32.484-52.463 3.298-21.355-2.093-42.615-15.182-59.864zm-184.751 93.882c-2.861 16.37-11.924 30.643-25.519 40.192-13.595 9.548-30.095 13.232-46.466 10.368-16.365-2.861-30.637-11.924-40.187-25.519-9.551-13.596-13.235-30.098-10.373-46.466 2.861-16.364 11.925-30.635 25.523-40.186s30.1-13.234 46.463-10.374a62.132 62.132 0 0117.199 5.681 8.4 8.4 0 0012.045-6.058l5.615-32.114 27.198 38.724-11.498 65.752zm183.33-36.587c-2.599 16.821-11.683 31.492-25.577 41.308-13.373 9.449-29.74 13.092-46.084 10.259-16.844-2.92-31.539-12.241-41.373-26.243l-43.039-61.277a1.181 1.181 0 00-.031-.044l-5.471-7.791 20.606-28.88 17.117 24.369a8.396 8.396 0 006.645 3.569 8.362 8.362 0 006.829-3.203 62.29 62.29 0 0117.258-15.109c13.046-7.738 28.528-10.375 43.587-7.422 15.061 2.951 28.406 11.234 37.577 23.322 10.307 13.589 14.554 30.331 11.956 47.142z"/><path d="M247.17 375.396c-12.926-2.26-25.955.649-36.691 8.19-10.737 7.541-17.894 18.812-20.154 31.736-4.664 26.68 13.248 52.181 39.926 56.845 2.858.499 5.721.747 8.563.747 10.011 0 19.765-3.064 28.128-8.936 10.737-7.541 17.894-18.812 20.154-31.736 4.664-26.682-13.247-52.181-39.926-56.846zm23.379 53.952c-3.069 17.556-19.843 29.348-37.406 26.272-17.556-3.069-29.342-19.849-26.272-37.406 3.069-17.556 19.846-29.342 37.406-26.272 17.556 3.07 29.342 19.85 26.272 37.406zm38.564-136.927c-3.164-1.677-7.148-1.156-9.746 1.321-2.932 2.795-3.409 7.375-1.189 10.745 4.091 6.214 13.974 4.041 15.244-3.226.616-3.524-1.143-7.162-4.309-8.84zm-140.574 25.334l-.06-.336a23.72 23.72 0 00-23.364-19.539h-42.697c-7.754 0-14.878-2.936-19.262-7.458h54.866a8.4 8.4 0 000-16.798H76.927a498.739 498.739 0 01-2.801-14.401h59.136a8.4 8.4 0 000-16.798H71.399a492.225 492.225 0 01-1.863-14.39h61.822a8.4 8.4 0 000-16.798H67.922a485.59 485.59 0 01-.928-14.401h64.364a8.4 8.4 0 000-16.798H66.442c-.072-4.801-.072-9.6 0-14.401h65.544a8.4 8.4 0 000-16.798H66.994c.237-4.797.546-9.595.927-14.39h65.341a8.4 8.4 0 000-16.798H69.535A490.457 490.457 0 0171.4 103.25h63.845a8.4 8.4 0 000-16.798H74.126a498.756 498.756 0 012.802-14.401h61.094a8.4 8.4 0 000-16.798H83.154c4.384-4.522 11.51-7.459 19.263-7.459h42.697a23.71 23.71 0 0023.366-19.55l.055-.307a23.67 23.67 0 00-5.149-19.427A23.69 23.69 0 00145.17 0H65.153C45.79 0 28.708 13.107 23.613 31.873c-9.545 35.168-18.532 116.992-7.131 307.083.278 4.629 4.261 8.168 8.886 7.88a8.399 8.399 0 007.881-8.887c-8.915-148.663-6.642-252.981 6.576-301.676 3.112-11.466 13.529-19.475 25.328-19.475h80.017c2.824 0 4.551 1.561 5.329 2.492.776.929 2.004 2.901 1.485 5.785l-.039.219a6.929 6.929 0 01-6.831 5.71h-42.697c-19.353 0-36.088 11.699-39.791 27.818-17.388 75.659-17.388 152.382 0 228.04 3.703 16.119 20.438 27.818 39.791 27.818h42.697a6.935 6.935 0 016.831 5.709l.06.337c.499 2.775-.728 4.746-1.505 5.673-.776.928-2.499 2.486-5.318 2.486h-28.1c-16.178 0-29.771 12.639-30.945 28.776l-8.884 122.155c-.627 8.629-7.897 15.389-16.549 15.389a16.52 16.52 0 01-16.52-15.043 4405.875 4405.875 0 01-8.991-111.731 8.399 8.399 0 10-16.759 1.133 4427.641 4427.641 0 009.026 112.164c1.616 17.26 15.908 30.275 33.244 30.275 17.411 0 32.038-13.603 33.303-30.968l8.884-122.154c.538-7.4 6.772-13.197 14.192-13.197h28.1a23.684 23.684 0 0018.204-8.511 23.675 23.675 0 005.152-19.418z"/></symbol><symbol viewBox="0 0 289 492" id="arrow" xmlns="http://www.w3.org/2000/svg"><path d="M281.2 226.8L62.3 7.9C57.2 2.8 50.4 0 43.2 0s-14 2.8-19 7.9L8.1 24c-10.5 10.5-10.5 27.6 0 38L192 245.9 7.9 430C2.8 435 0 441.8 0 449c0 7.2 2.8 14 7.9 19L24 484.1c5.1 5.1 11.8 7.9 19 7.9s14-2.8 19-7.9L281.2 265c5.1-5.1 7.9-11.9 7.8-19.1.1-7.2-2.7-14-7.8-19.1z"/></symbol><symbol viewBox="0 0 512 512" id="calculator" xmlns="http://www.w3.org/2000/svg"><path d="M467 0H45C20.187 0 0 20.187 0 45v422c0 24.813 20.187 45 45 45h422c24.813 0 45-20.187 45-45V45c0-24.813-20.187-45-45-45zm15 45v196H271V30h196c8.271 0 15 6.729 15 15zM45 30h196v211H30V45c0-8.271 6.729-15 15-15zM30 467V271h211v211H45c-8.271 0-15-6.729-15-15zm437 15H271V271h211v196c0 8.271-6.729 15-15 15z"/><path d="M91 151h30v30c0 8.284 6.716 15 15 15s15-6.716 15-15v-30h30c8.284 0 15-6.716 15-15s-6.716-15-15-15h-30V91c0-8.284-6.716-15-15-15s-15 6.716-15 15v30H91c-8.284 0-15 6.716-15 15s6.716 15 15 15zm66.213 225l21.213-21.213c5.858-5.858 5.858-15.355 0-21.213-5.857-5.857-15.355-5.857-21.213 0L136 354.787l-21.213-21.213c-5.857-5.857-15.355-5.857-21.213 0-5.858 5.858-5.858 15.355 0 21.213L114.787 376l-21.213 21.213c-5.858 5.858-5.858 15.355 0 21.213s15.355 5.858 21.213 0L136 397.213l21.213 21.213c5.858 5.858 15.355 5.858 21.213 0s5.858-15.355 0-21.213zM421 331h-90c-8.284 0-15 6.716-15 15s6.716 15 15 15h90c8.284 0 15-6.716 15-15s-6.716-15-15-15zm0 60h-90c-8.284 0-15 6.716-15 15s6.716 15 15 15h90c8.284 0 15-6.716 15-15s-6.716-15-15-15zm-90-240h90c8.284 0 15-6.716 15-15s-6.716-15-15-15h-90c-8.284 0-15 6.716-15 15s6.716 15 15 15z"/></symbol><symbol viewBox="0 0 19.7 20" id="cart" xmlns="http://www.w3.org/2000/svg"><path d="M4.9 4c.3-2.2 2.5-4 5-4s4.7 1.8 5 4h2.9c1.1 0 2 .9 2 2v.3l-1.7 12c-.1 1-1 1.7-2 1.7H3.7c-1 0-1.8-.7-2-1.7L0 6.3C-.1 5.2.6 4.2 1.7 4h3.2zm2 0h5.9c-.3-1.1-1.5-2-2.9-2s-2.7.9-3 2zM4.8 6H2l1.7 12H16l1.7-12h-2.8v2h-2V6h-6v2h-2V6z"/></symbol><symbol viewBox="0 0 423.416 423.416" id="cart-socials" xmlns="http://www.w3.org/2000/svg"><path d="M420.688 145.096a9.401 9.401 0 00-7.837-2.612H300.525V92.851c0-49.052-39.764-88.816-88.816-88.816s-88.816 39.764-88.816 88.816v49.633H10.565c-3.135 0-6.269 0-7.837 2.612a8.883 8.883 0 00-2.612 7.837L39.3 367.137c5.474 29.881 31.275 51.746 61.649 52.245h221.518c30.461-.749 56.208-22.787 61.649-52.767L423.3 152.933a8.883 8.883 0 00-2.612-7.837zM143.79 92.851c0-37.51 30.408-67.918 67.918-67.918 37.51 0 67.918 30.408 67.918 67.918v49.633H143.79V92.851zm219.428 271.151c-3.519 19.801-20.641 34.289-40.751 34.482H100.949c-20.11-.193-37.232-14.68-40.751-34.482l-37.094-200.62h377.208l-37.094 200.62z"/><path d="M290.076 265.259c5.771 0 10.449-4.678 10.449-10.449v-31.347c0-5.771-4.678-10.449-10.449-10.449s-10.449 4.678-10.449 10.449v31.347c-.001 5.771 4.678 10.449 10.449 10.449zm-156.735 0c5.771 0 10.449-4.678 10.449-10.449v-31.347c0-5.771-4.678-10.449-10.449-10.449s-10.449 4.678-10.449 10.449v31.347c0 5.771 4.678 10.449 10.449 10.449z"/></symbol><symbol viewBox="0 0 10 10" id="compare" xmlns="http://www.w3.org/2000/svg"><path d="M0 4h2v6H0zm4-4h2v10H4zm4 3h2v7H8z"/></symbol><symbol viewBox="0 0 512.006 512.006" id="coupon" xmlns="http://www.w3.org/2000/svg"><path d="M502.335 77.815l6.741-6.741c3.905-3.905 3.905-10.237 0-14.143-3.905-3.904-10.237-3.904-14.143 0l-6.741 6.741-6.737-6.737a10.001 10.001 0 00-7.071-2.929h-10.999L412.308 2.929A10.003 10.003 0 00405.237 0H36.015C16.157 0 .001 16.155.001 36.014v187.401c0 19.858 16.156 36.014 36.014 36.014h87.12L64.55 318.015c-6.802 6.802-10.548 15.846-10.548 25.466 0 9.619 3.746 18.663 10.548 25.466l132.512 132.512c6.802 6.802 15.846 10.548 25.466 10.548s18.664-3.746 25.466-10.548l99.247-99.246c3.906-3.905 3.906-10.237 0-14.143-3.905-3.903-10.237-3.904-14.142 0l-99.248 99.246c-3.024 3.025-7.046 4.69-11.323 4.69s-8.299-1.665-11.323-4.69L78.692 354.804a15.91 15.91 0 01-4.69-11.323c0-4.278 1.666-8.299 4.69-11.323l258.15-258.15h133.401l3.808 3.808-23.124 23.124a29.817 29.817 0 00-12.926-2.931c-16.542 0-30 13.458-30 30s13.458 30 30 30 30-13.458 30-30c0-4.626-1.054-9.01-2.932-12.926l23.124-23.124 3.808 3.808v133.4l-95.264 95.265c-3.905 3.905-3.905 10.237 0 14.143 3.905 3.904 10.237 3.904 14.143 0l98.193-98.193a10.003 10.003 0 002.929-7.071V91.623c0-2.652-1.054-5.195-2.929-7.071zM179.58 179.435c-5.516 0-10.003-4.487-10.003-10.003 0-5.517 4.487-10.004 10.003-10.004s10.003 4.487 10.003 10.004c0 5.515-4.487 10.003-10.003 10.003zM332.7 54.007a10.001 10.001 0 00-7.071 2.929L209.335 173.229c.158-1.245.249-2.511.249-3.798 0-16.544-13.459-30.004-30.003-30.004-16.543 0-30.003 13.46-30.003 30.004s13.459 30.003 30.003 30.003c1.287 0 2.553-.091 3.798-.249l-40.243 40.243H36.015c-8.83 0-16.014-7.184-16.014-16.014v-187.4c0-8.83 7.184-16.014 16.014-16.014h365.079l34.007 34.007zm105.301 84c-5.514 0-10-4.486-10-10s4.486-10 10-10c2.282 0 4.382.777 6.067 2.069.265.346.547.684.863 1s.654.598 1 .863a9.938 9.938 0 012.069 6.067c.001 5.515-4.485 10.001-9.999 10.001z"/><path d="M332.599 295.835c2.652 0 5.196-1.054 7.071-2.929l22.627-22.628c3.905-3.905 3.905-10.237 0-14.143-3.905-3.904-10.237-3.904-14.142 0l-15.556 15.557-49.498-49.497c-3.904-3.904-10.237-3.904-14.142 0-3.905 3.905-3.905 10.237 0 14.143l56.569 56.568a10.005 10.005 0 007.071 2.929zm77.782-87.782c-3.905-3.904-10.237-3.904-14.143 0l-12.728 12.728-14.142-14.141 12.728-12.728c3.905-3.905 3.905-10.237 0-14.143-3.905-3.904-10.237-3.904-14.143 0l-12.728 12.728-14.142-14.142 12.728-12.728c3.905-3.905 3.906-10.237 0-14.143-3.905-3.903-10.237-3.904-14.142 0l-19.799 19.799a10.001 10.001 0 000 14.142l56.569 56.568c1.952 1.952 4.512 2.929 7.071 2.929s5.119-.977 7.071-2.929l19.799-19.799c3.906-3.904 3.906-10.236.001-14.141zM299.776 323.029c4.919 2.508 10.942.55 13.45-4.371 2.507-4.921.55-10.942-4.372-13.449l-74.953-38.184a9.999 9.999 0 00-13.449 13.449l38.184 74.953a9.995 9.995 0 0013.449 4.371c4.921-2.507 6.878-8.528 4.372-13.449l-3.066-6.02 20.367-20.367zm-35.932-1.437l-11.604-22.779 22.78 11.605zm-59.938 78.794c-3.905 3.905-3.906 10.237 0 14.143 1.953 1.952 4.512 2.929 7.071 2.929s5.119-.977 7.071-2.929l14.143-14.142c11.697-11.697 11.697-30.729 0-42.427-11.118-11.118-28.857-11.66-40.632-1.644a9.958 9.958 0 00-1.055.905l-.74.739c-1.889 1.889-4.4 2.929-7.071 2.929s-5.182-1.04-7.071-2.929c-3.899-3.899-3.899-10.243 0-14.143l14.142-14.142c3.905-3.905 3.906-10.237 0-14.143-3.905-3.903-10.237-3.904-14.142 0l-14.143 14.142c-11.697 11.697-11.697 30.73 0 42.428 5.667 5.666 13.2 8.786 21.213 8.786 8.002 0 15.526-3.112 21.192-8.766l.022-.02c3.898-3.9 10.243-3.9 14.142 0a9.932 9.932 0 012.929 7.07 9.93 9.93 0 01-2.929 7.071zM171.339 64.557c-4.809-2.714-10.909-1.018-13.624 3.792l-64.5 114.254c-2.715 4.81-1.018 10.909 3.792 13.624a9.996 9.996 0 0013.624-3.792l64.5-114.254c2.715-4.81 1.018-10.91-3.792-13.624zm-46.163 25.44c0-16.544-13.459-30.003-30.003-30.003S65.169 73.453 65.169 89.997s13.459 30.004 30.003 30.004 30.004-13.46 30.004-30.004zm-40.007 0c0-5.516 4.487-10.003 10.003-10.003s10.003 4.487 10.003 10.003c0 5.517-4.487 10.004-10.003 10.004s-10.003-4.487-10.003-10.004zm286.822 263.322c-2.64 0-5.21 1.07-7.07 2.931a10.072 10.072 0 00-2.93 7.069c0 2.631 1.07 5.211 2.93 7.07 1.86 1.86 4.43 2.93 7.07 2.93 2.63 0 5.21-1.069 7.07-2.93a10.072 10.072 0 002.93-7.07c0-2.63-1.07-5.21-2.93-7.069a10.077 10.077 0 00-7.07-2.931z"/></symbol><symbol viewBox="0 0 512.002 512.002" stroke-width="3" id="credit-card" xmlns="http://www.w3.org/2000/svg"><path d="M502.903 96.829c-6.634-7.842-15.924-12.632-26.161-13.487L116.185 53.236c-10.238-.855-20.192 2.328-28.035 8.961-7.811 6.607-12.594 15.85-13.476 26.037L67.42 156.29H38.455C17.251 156.29 0 173.541 0 194.745v225.702c0 21.204 17.251 38.455 38.455 38.455h361.813c21.205 0 38.456-17.251 38.456-38.455v-36.613l12.839 1.072c1.083.09 2.16.135 3.228.135 19.768 0 36.62-15.209 38.294-35.257l18.781-224.919c.854-10.237-2.329-20.193-8.963-28.036zM38.455 176.29h361.813c10.176 0 18.456 8.279 18.456 18.455v20.566H20v-20.566c0-10.176 8.279-18.455 18.455-18.455zM20 235.311h398.724V276.8H20zm380.268 203.591H38.455c-10.176 0-18.455-8.279-18.455-18.455V296.8h398.724v123.647c0 10.176-8.28 18.455-18.456 18.455zM491.935 123.2l-18.781 224.919c-.847 10.141-9.788 17.706-19.927 16.856l-14.503-1.211V194.745c0-21.204-17.251-38.455-38.456-38.455H87.534l7.039-66.04c.008-.076.015-.151.021-.228.847-10.141 9.783-17.705 19.927-16.855l360.558 30.106c4.913.41 9.372 2.709 12.555 6.473s4.711 8.541 4.301 13.454z"/><path d="M376.873 326.532h-96.242c-5.523 0-10 4.477-10 10v62.789c0 5.523 4.477 10 10 10h96.242c5.523 0 10-4.477 10-10v-62.789c0-5.523-4.477-10-10-10zm-10 62.789h-76.242v-42.789h76.242z"/></symbol><symbol viewBox="0 0 60 58" id="depil" xmlns="http://www.w3.org/2000/svg"><path d="M59 30H41.53a1 1 0 00-.886 1.463 12 12 0 11-21.288 0A1 1 0 0018.47 30H1a1 1 0 000 2h15.925a14 14 0 1026.15 0H59a1 1 0 000-2z"/><path d="M35.768 3.955c-2.966 3.437-6.885 9.729-8.712 20.191a12.874 12.874 0 01-3.544 6.627 9 9 0 1013.977 1.237A14.547 14.547 0 0134.9 21.991a54.886 54.886 0 014.19-15.882 2 2 0 00-3.322-2.154zM32.922 21.73a16.744 16.744 0 002.9 11.39 7 7 0 11-10.872-.961 14.857 14.857 0 004.073-7.669c1.751-10.012 5.457-15.983 8.256-19.229a56.828 56.828 0 00-4.357 16.469z"/><circle cx="6" cy="37" r="1"/><circle cx="12" cy="37" r="1"/><circle cx="3" cy="41" r="1"/><circle cx="9" cy="41" r="1"/><circle cx="6" cy="45" r="1"/><circle cx="12" cy="45" r="1"/><circle cx="3" cy="49" r="1"/><circle cx="9" cy="49" r="1"/><circle cx="15" cy="49" r="1"/><circle cx="6" cy="53" r="1"/><circle cx="12" cy="53" r="1"/><circle cx="18" cy="53" r="1"/><circle cx="24" cy="53" r="1"/><circle cx="30" cy="53" r="1"/><circle cx="54" cy="37" r="1"/><circle cx="48" cy="37" r="1"/><circle cx="57" cy="41" r="1"/><circle cx="51" cy="41" r="1"/><circle cx="54" cy="45" r="1"/><circle cx="48" cy="45" r="1"/><circle cx="57" cy="49" r="1"/><circle cx="51" cy="49" r="1"/><circle cx="45" cy="49" r="1"/><circle cx="54" cy="53" r="1"/><circle cx="48" cy="53" r="1"/><circle cx="42" cy="53" r="1"/><circle cx="36" cy="53" r="1"/><circle cx="3" cy="57" r="1"/><circle cx="9" cy="57" r="1"/><circle cx="15" cy="57" r="1"/><circle cx="21" cy="57" r="1"/><circle cx="27" cy="57" r="1"/><circle cx="51" cy="57" r="1"/><circle cx="57" cy="57" r="1"/><circle cx="45" cy="57" r="1"/><circle cx="39" cy="57" r="1"/><circle cx="33" cy="57" r="1"/><path d="M11.825 1.337c-2.361 3.07-6.772 10.354-6.772 14.087a9.474 9.474 0 1018.947 0c0-3.733-4.411-11.017-6.772-14.087a3.4 3.4 0 00-5.403 0zM14.526 23a7.533 7.533 0 01-7.473-7.576c0-2.852 3.7-9.416 6.358-12.868a1.4 1.4 0 012.231 0C18.3 6.008 22 12.572 22 15.424A7.534 7.534 0 0114.526 23z"/><path d="M13.561 18.262a2.812 2.812 0 01-2.045-1.416 4.453 4.453 0 01.277-3.3A1 1 0 0010 12.663c-.056.111-1.34 2.762-.3 5.014a4.722 4.722 0 003.37 2.523 1 1 0 00.491-1.939zm30.732-.555a1 1 0 001.414 0l1-1a1 1 0 00-1.414-1.414l-1 1a1 1 0 000 1.414zm-4 2.586l-1 1a1 1 0 001.414 1.414l1-1a1 1 0 00-1.414-1.414zm4 1.414C45.353 22.768 45.48 23 46 23a1 1 0 00.707-1.707l-1-1a1 1 0 00-1.414 1.414zm-2.586-5.414l-1-1a1 1 0 00-1.414 1.414l1 1a1 1 0 001.414-1.414zM51 7c.53 0 .675-.261 1.707-1.293a1 1 0 10-1.414-1.414l-1 1A1 1 0 0051 7zm-5.707 4.707a1 1 0 001.414 0l1-1a1 1 0 00-1.414-1.414l-1 1a1 1 0 000 1.414zm5-1C51.353 11.768 51.48 12 52 12a1 1 0 00.707-1.707l-1-1a1 1 0 00-1.414 1.414zm-4-4a1 1 0 001.414-1.414l-1-1a1 1 0 00-1.414 1.414z"/></symbol><symbol viewBox="0 0 512 512" id="electroequip" xmlns="http://www.w3.org/2000/svg"><path d="M40 209.434V256c0 5.52 4.477 10 10 10s10-4.48 10-10v-32.078a120.29 120.29 0 0057 16.039V266h-7c-16.543 0-30 13.457-30 30s13.457 30 30 30h7.414c.54 6.75 1.477 14.293 3.098 19.16 7.476 22.43 32.824 46.738 37.933 51.48 1.914 2.981 2.114 6.602.5 9.829-1.73 3.465-5.074 5.531-8.945 5.531H90c-16.543 0-30-13.457-30-30v-46c0-5.523-4.477-10-10-10s-10 4.477-10 10v46c0 24.145 17.203 44.348 40 48.992V442c0 13.313 8.719 24.621 20.742 28.531C104.805 494.051 125.34 512 150 512h286c5.523 0 10-4.477 10-10s-4.477-10-10-10H150c-13.816 0-25.473-9.39-28.941-22.121C132.14 465.469 140 454.637 140 442v-10h10c24.707 0 38.824-28.238 24-48.004-.39-.516-.824-.992-1.305-1.426-7.406-6.675-27.812-27.547-33.21-43.734C137.878 334.008 137 321.484 137 316v-77.21c20.516-2.911 16.727-4.134 199.031-68.188l82.676 28.84C425.164 201.691 432 196.917 432 190V30c0-6.879-6.797-11.703-13.293-9.441l-83.195 29.02C144.395 3.46 145.282 0 120 0 54.621 0 0 52.996 0 120c0 34.32 14.523 66.645 40 89.434zM117 306h-7c-5.516 0-10-4.484-10-10s4.484-10 10-10h7zm3 136c0 5.516-4.484 10-10 10s-10-4.484-10-10v-10h20zM346 67.102l66-23.024v131.844l-66-23.024zM120 20c21.305 0 18.387 2.418 206 47.832v85.11C149.094 214.636 147.703 220 120 220c-23.203 0-45.8-8.113-63.629-22.848 0 0-.004 0-.004-.004C33.257 178.058 20 149.938 20 120 20 64.082 65.594 20 120 20zm0 0"/><path d="M120 190c38.652 0 70-31.484 70-70 0-38.504-31.328-70-70-70-38.652 0-70 31.484-70 70 0 38.504 31.328 70 70 70zm0-20c-15.973 0-30.688-7.664-39.977-20.012h79.954C150.687 162.336 135.973 170 120 170zm0-100c15.973 0 30.688 7.656 39.977 20H80.023c9.29-12.344 24.004-20 39.977-20zm-48.984 40h97.972a49.971 49.971 0 010 20H71.016a49.69 49.69 0 010-20zM502 100h-40c-5.523 0-10 4.477-10 10s4.477 10 10 10h40c5.523 0 10-4.477 10-10s-4.477-10-10-10zm0-40h-40c-5.523 0-10 4.477-10 10s4.477 10 10 10h40c5.523 0 10-4.477 10-10s-4.477-10-10-10zm0 80h-40c-5.523 0-10 4.477-10 10s4.477 10 10 10h40c5.523 0 10-4.477 10-10s-4.477-10-10-10zM60 296c0 5.523-4.477 10-10 10s-10-4.477-10-10 4.477-10 10-10 10 4.477 10 10zm0 0"/></symbol><symbol viewBox="0 0 60 60" id="equip" xmlns="http://www.w3.org/2000/svg"><path d="M57.621 36.371L57 36.123V3a3 3 0 00-3-3h-8a3 3 0 00-3 3v9h-8.907a33.009 33.009 0 00-4.931-5.91c-7.216-7.215-9.4-6.154-9.9-5.656l-2.827 2.828c-.5.5-1.561 2.682 5.656 9.9 4.983 4.984 7.567 6.02 8.853 6.02.384.026.761-.105 1.046-.363l2.829-2.829c.223-.222.554-.789.209-1.989H43V31.25l-21.232 6.181a8.854 8.854 0 00-.653-5.89l3.411-2.849A3 3 0 0027 30h8a3 3 0 000-6h-8a3 3 0 00-2.952 2.522c-.3.2.258-.253-3.882 3.206-2.569-4.242-7.1-7.764-8.881-9.049 1.032-2.512-.047-5.279-3.059-7.722A4.97 4.97 0 000 16.7a5.072 5.072 0 00.931 2.939C20.79 47.865 8.7 30.683 18.4 44.461a2.906 2.906 0 002.275 1.223L22.492 50H18a8.009 8.009 0 00-8 8 2 2 0 002 2h46a2 2 0 002-2 7.984 7.984 0 00-3-6.235v-8.178a3.787 3.787 0 00.621-7.216zM18.2 5.022c3.406 1.546 10.381 8.478 12.022 12.027C26.705 15.421 19.813 8.523 18.2 5.022zm13.715 11.043c-1.628-3.737-8.992-11.1-12.727-12.728l1.323-1.323c.819.169 3.589 1.842 7.237 5.49s5.321 6.417 5.49 7.238zM27 26h8a1 1 0 010 2h-8a1 1 0 010-2zm18 5.323V26h10v9.323zM55 24H45v-7h10zM45 3a1 1 0 011-1h8a1 1 0 011 1v12H45zM2.565 18.488A2.934 2.934 0 014.9 13.782a3.3 3.3 0 012.066.729c1.739 1.41 3.518 3.544 2.288 5.785l-3.686 2.459zM20.032 43.31L6.72 24.391l3.266-2.179c4.4 3.17 11.255 9.444 9.85 14.7a1.986 1.986 0 002.453 2.459l21.66-6.317 12.933 5.172a1.785 1.785 0 01-1.331 3.312C43.443 36.7 44.3 37.01 44.022 37.005c-.16-.033.2-.112-22.992 6.655a.914.914 0 01-.998-.35zM39.359 50l-4.578-8.269L43 39.334V50zm-16.691-4.734l10.145-2.96L37.073 50H24.664zM58 58H12a6.006 6.006 0 016-6h34a6.009 6.009 0 016 6zm-13-8V39.477c11.149 4.457 9.526 3.816 10 3.977v7.135C53.071 49.805 52.249 50 45 50z"/><path d="M48 9a1 1 0 001-1V7a1 1 0 00-2 0v1a1 1 0 001 1zm4 0a1 1 0 001-1V7a1 1 0 00-2 0v1a1 1 0 001 1zM18 54h-1a1 1 0 000 2h1a1 1 0 000-2zm15 0H22a1 1 0 000 2h11a1 1 0 000-2z"/></symbol><symbol viewBox="0 0 60 56" id="eyelashes" xmlns="http://www.w3.org/2000/svg"><path d="M50.9 1.558a1 1 0 00-1.343-.458c-.138.067-3.41 1.629-5.85-.811A1 1 0 0042 1c0 4.411-5.383 8-12 8S18 5.411 18 1a1 1 0 00-1.707-.707c-2.44 2.44-5.712.878-5.846.812a1 1 0 00-.894 1.79 7.625 7.625 0 006.683-.06c.177.658.438 1.29.777 1.881a4.369 4.369 0 01-4.776 2.312 1 1 0 10-.479 1.942 6.3 6.3 0 006.53-2.513c.51.554 1.074 1.056 1.683 1.5-.809 2.876-2.749 3.031-2.983 3.038A1.003 1.003 0 1017 13c.145 0 3.361-.048 4.727-3.945a16.3 16.3 0 003.252 1.275c-.217 3.089-3.37 4.746-3.428 4.776a1.001 1.001 0 00.9 1.789c.175-.088 4.067-2.085 4.509-6.143.676.108 1.357.18 2.04.216V17a1 1 0 002 0v-6.032a19.281 19.281 0 002.044-.216c.442 4.058 4.334 6.055 4.509 6.143a1 1 0 10.9-1.788c-.034-.017-3.211-1.676-3.429-4.777a16.3 16.3 0 003.252-1.275C39.639 12.952 42.855 13 43 13c.545 0 .988-.44.992-.986A1.007 1.007 0 0043.014 11c-.225-.007-2.174-.153-2.985-3.038a11.475 11.475 0 001.682-1.5 6.311 6.311 0 006.531 2.513 1 1 0 10-.484-1.94 4.311 4.311 0 01-4.771-2.314c.339-.59.6-1.223.777-1.881a7.616 7.616 0 006.683.06 1 1 0 00.453-1.342z"/><path d="M50.447 18.9a1 1 0 00-.89-1.791c-.138.066-3.41 1.629-5.85-.811A1 1 0 0042 17c0 4.411-5.383 8-12 8s-12-3.589-12-8a1 1 0 00-1.707-.707c-2.44 2.439-5.712.878-5.846.812a1 1 0 10-.894 1.79 7.628 7.628 0 006.683-.06c.177.658.438 1.29.777 1.881a4.367 4.367 0 01-4.776 2.312 1 1 0 10-.479 1.942 6.3 6.3 0 006.53-2.513c.51.554 1.074 1.056 1.683 1.5-.809 2.876-2.749 3.031-2.983 3.038A1.003 1.003 0 0017 29c.145 0 3.361-.048 4.727-3.945a16.3 16.3 0 003.252 1.275c-.217 3.089-3.37 4.746-3.428 4.776a1.001 1.001 0 00.9 1.789c.175-.088 4.067-2.085 4.509-6.143.676.108 1.357.18 2.04.216V33a1 1 0 002 0v-6.032a19.281 19.281 0 002.044-.216c.442 4.058 4.334 6.055 4.509 6.143a1 1 0 00.9-1.788c-.034-.017-3.211-1.676-3.429-4.777a16.3 16.3 0 003.252-1.275C39.639 28.952 42.855 29 43 29c.545 0 .988-.44.992-.986A1.007 1.007 0 0043.014 27c-.225-.007-2.174-.153-2.985-3.038a11.475 11.475 0 001.682-1.5 6.311 6.311 0 006.531 2.513 1 1 0 00-.484-1.94 4.313 4.313 0 01-4.771-2.314c.339-.59.6-1.223.777-1.881a7.619 7.619 0 006.683.06zm7.363 16.11C10.8 39.533 17.776 39 13 39a3 3 0 00-2.816 2H4.5a4.5 4.5 0 100 9h5.684A3 3 0 0013 52c4.8 0-2.336-.547 44.81 3.99a2 2 0 002.19-2V37.011a2 2 0 00-2.19-2.001zM53 37.491v16.027l-15-1.443V38.93zM2 45.5A2.5 2.5 0 014.5 43H10v5H4.5A2.5 2.5 0 012 45.5zM12 49v-7a1 1 0 011-1h3v9h-3a1 1 0 01-1-1zm6-8.15l18-1.728v12.761L18 50.15zm37 12.861V37.3l3-.288V54zM57.905 55L58 54z"/></symbol><symbol viewBox="0 0 60 60" id="hair-dye" xmlns="http://www.w3.org/2000/svg"><path d="M32.7 8.778a1 1 0 10-1.414 1.414l4.439 4.439a1.968 1.968 0 00.51 1.925c1.761 1.761 3.081 3.34 6.107 3.7a9.966 9.966 0 015.964 2.713l4.9 4.9a4 4 0 105.537-5.776l-4.781-4.781a9.968 9.968 0 01-2.712-5.964c-.372-3.1-2.108-4.513-3.7-6.107a2 2 0 00-1.924-.509L41.187.293a1 1 0 00-1.414 1.414l4.243 4.243L42.6 7.364l-4.241-4.242a1 1 0 00-1.414 1.414l4.242 4.242-1.414 1.414L35.53 5.95a1 1 0 00-1.414 1.414l4.243 4.242-1.415 1.415zm16.564 2.809a11.944 11.944 0 003.284 7.14l4.781 4.781c.79.75.885 1.976.221 2.839a2.063 2.063 0 01-2.93.109l-4.9-4.9a11.942 11.942 0 00-7.14-3.285c-2.358-.281-3.4-1.6-4.931-3.129l8.488-8.483c1.582 1.579 2.847 2.575 3.129 4.928z"/><path d="M45.21 41.048c-1.209-3.508.345-8.237.769-16.013a1.002 1.002 0 10-2-.11c-.412 7.581-1.933 12.234-.821 16.266C39.043 41.568 34 42.594 34 45c.082.83.6 1.554 1.36 1.9l.489 2.445c-1.19.167-2.486.3-3.872.4v-6.917a18.772 18.772 0 004.432-7.922c1.6-.423 4.591-1.89 4.591-6.946 0-2.339-.54-3.749-1.652-4.311a2.413 2.413 0 00-1.774-.128c0-.637-.022-1.268-.067-1.866a1 1 0 00-.287-.629C33.362 17.136 31.7 17 24.5 17c-4.788 0-6.585-2.736-7.23-4.368a1 1 0 00-1.54-.424c-2.856 2.2-4.261 5.9-4.3 11.314a2.416 2.416 0 00-1.773.127C8.54 24.211 8 25.621 8 27.96c0 5.04 2.971 6.513 4.574 6.94a18.569 18.569 0 004.463 7.97v6.874C6.8 49 4.193 46.745 2.826 45.2c6.6-3.156 1.166-15.883 2.13-25.933C5.939 9.063 14.5 8.594 17.105 8.687c.215.024.432-.018.623-.119a24.458 24.458 0 0113.557-2.433 1 1 0 00.215-1.989 26.711 26.711 0 00-14.487 2.537C10.821 6.524 3.872 9.667 2.964 19.075c-1.006 10.5 4.444 23.172-1.99 24.654a1.01 1.01 0 00-.493 1.851c1.63 1.5 2.839 5.216 16.665 6.182a3.012 3.012 0 002.908 2.244h8.94a2.951 2.951 0 002.877-2.246 61.01 61.01 0 004.371-.451c.91 4.548.758 3.3.758 5.691a3 3 0 003 3h14a3 3 0 003-3c0-2.536-.267-.568 1.64-10.1A2.342 2.342 0 0060 45c0-3.611-11.119-4.126-14.79-3.952zm-6.765-15.614c.023.011.555.3.555 2.526 0 2.675-1 3.966-2.048 4.587a42 42 0 00.612-6.861c.46-.263.771-.309.881-.252zM10 27.96c0-2.221.532-2.515.555-2.526.11-.055.421-.01.88.253.015 2.297.216 4.59.6 6.854C10.99 31.918 10 30.627 10 27.96zm5.569 9.261c-1.792-3.826-2.152-7.982-2.152-13.446 0-4.214.858-7.222 2.618-9.143C17.153 16.505 19.569 19 24.5 19c6.92 0 7.952.105 11.037 3.171.031.518.046 1.056.046 1.6 0 5.452-.364 9.6-2.177 13.445-2.1 4.471-5.094 6.738-8.906 6.738-3.842.004-6.846-2.262-8.931-6.733zm13.425 14.785h-8.94a1 1 0 01-1.006-1.127c0-.051-.011.715-.011-6.435a10.539 10.539 0 0010.94-.024V51a.985.985 0 01-.983 1.006zM47 43c6.09 0 10.231 1.264 10.941 2-.71.736-4.851 2-10.941 2s-10.231-1.264-10.941-2c.71-.736 4.851-2 10.941-2zm8 14a1 1 0 01-1 1H40a1 1 0 01-1-1v-1h10a1 1 0 000-2H38.82l-1.234-6.167a39.07 39.07 0 0018.828 0C54.728 56.262 55 54.2 55 57z"/></symbol><symbol viewBox="0 0 22 20.1" id="heart" xmlns="http://www.w3.org/2000/svg"><path d="M12.1.7c1.1-.5 2-.7 3.5-.7C19.3 0 22 3.1 22 7.1c0 3-1.7 6-4.8 8.8-1.7 1.5-3.8 3-5.3 3.7l-.9.5-.9-.4c-1.5-.8-3.6-2.3-5.3-3.7C1.7 13.1 0 10.2 0 7.1 0 3.1 2.7 0 6.5 0c1.4 0 2.4.2 3.5.7.4.2.7.4 1.1.7.2-.3.6-.5 1-.7zm3.7 13.7c2.8-2.5 4.2-4.9 4.2-7.3C20 4.2 18.1 2 15.5 2c-1.2 0-1.8.1-2.6.5-.5.2-.9.5-1.3.9l-.6.8-.7-.8c-.4-.3-.8-.6-1.3-.9-.8-.4-1.4-.5-2.5-.5C3.9 2 2 4.1 2 7.1c0 2.4 1.4 4.8 4.2 7.3 1.5 1.4 3.5 2.7 4.8 3.4 1.4-.6 3.3-2 4.8-3.4z"/></symbol><symbol viewBox="0 0 512 512" stroke-width="3" id="help" xmlns="http://www.w3.org/2000/svg"><path d="M512 346.5c0-74.629-50.285-139.832-121.195-159.48C386.348 83.14 300.457 0 195.5 0 87.7 0 0 87.7 0 195.5c0 35.133 9.352 69.34 27.11 99.371L.718 390.277l95.41-26.386c27.605 16.324 58.746 25.52 90.887 26.906C206.66 461.71 271.867 512 346.5 512c29.79 0 58.758-7.934 84.21-23.008l80.567 22.285-22.285-80.566C504.066 405.258 512 376.289 512 346.5zm-411.137-15.047l-57.117 15.8 15.8-57.116-3.6-5.633C38.972 257.949 30 227.172 30 195.5 30 104.242 104.242 30 195.5 30S361 104.242 361 195.5 286.758 361 195.5 361c-31.672 0-62.445-8.973-89.004-25.945zm367.39 136.8l-42.382-11.726-5.66 3.684C398.27 474.465 372.777 482 346.5 482c-58.656 0-110.2-37.926-128.46-92.309 89.82-10.355 161.296-81.832 171.655-171.656C444.075 236.301 482 287.844 482 346.5c0 26.277-7.535 51.77-21.79 73.71l-3.683 5.661zm0 0"/><path d="M180.5 271h30v30h-30zm45-121c0 8.52-3.469 16.383-9.766 22.145l-35.234 32.25V241h30v-23.395l25.488-23.328C248.387 182.93 255.5 166.793 255.5 150c0-33.086-26.914-60-60-60s-60 26.914-60 60h30c0-16.543 13.457-30 30-30s30 13.457 30 30zm0 0"/></symbol><symbol viewBox="0 0 57 57" id="icon-search" xmlns="http://www.w3.org/2000/svg"><path d="M55.1 51.9L41.6 37.8C45.1 33.6 47 28.4 47 23 47 10.3 36.7 0 24 0S1 10.3 1 23s10.3 23 23 23c4.8 0 9.3-1.4 13.2-4.2L50.8 56c.6.6 1.3.9 2.2.9.8 0 1.5-.3 2.1-.8 1.2-1.1 1.2-3 0-4.2zM24 6c9.4 0 17 7.6 17 17s-7.6 17-17 17S7 32.4 7 23 14.6 6 24 6z"/></symbol><symbol viewBox="0 0 270.4 98.1" id="iconSheer"><path d="M175.1 51.8c.2 1.2.3 2.1.5 3 2 8.4 8.6 14 17.2 14.7 7.6.6 13.6-2.3 18-8.5 2.2-3 5.7-3.5 8.5-1.1 1.6 1.4 1.8 3.2.5 4.9-.7.9-1.4 1.8-2.1 2.8-2.9 4-6.7 6.7-11.4 8.3-7.6 2.6-15.2 3-22.7.2-10.1-3.7-16.1-11.1-17.8-21.7-1-6.5-.4-13 2.6-18.9 4.3-8.4 11.1-13.6 20.5-15.1 6.2-1 12.4-.4 18.2 2.4 8.2 3.9 13.2 10.5 15.1 19.3.5 2.4.7 4.9.9 7.3.2 1.5-.5 2.2-2.1 2.3h-44.1c-.4.1-.9.1-1.8.1zm38.3-9.2c-1.2-7.9-10.7-14.7-19.4-14.2-9.1.5-18.2 7.5-18.5 14.2h37.9zm-101 9c.1.8.2 1.4.3 2 1.7 9.3 9.3 15.7 18.7 15.9 7.1.1 12.7-2.8 16.8-8.6 2.2-3.1 6.1-3.4 8.8-.7 1.3 1.4 1.5 3 .3 4.6-.5.8-1.1 1.5-1.7 2.2-3.1 4.5-7.3 7.4-12.5 9.1-7.6 2.5-15.2 2.7-22.5-.2-10.6-4.1-16.4-12.1-17.6-23.3-.6-5.4-.1-10.7 2.2-15.6 4.3-9.4 11.4-15.2 21.8-16.6 5.5-.7 11-.3 16.1 1.8 9.2 3.8 14.6 10.9 16.6 20.6.4 2.2.6 4.5.7 6.7.1 1.8-.3 2.2-2.2 2.2h-43.5c-.7-.1-1.4-.1-2.3-.1zm38.4-9.1c-1.2-7.8-10.4-14.4-19.4-14.2-8.8.2-17.9 7.2-18.6 14.2h38zm101 13.5c.7.6 1.1 1 1.5 1.4 4.9 4.2 9.8 8.3 14.6 12.5.3.3.7.6 1 .9 1.8 1.8 2 4.4.3 6.2-1.6 1.8-4.2 2.1-6.1.5-3.4-2.8-6.7-5.7-10-8.5-4.8-4.1-9.5-8.1-14.3-12.2-.4-.4-.9-.7-1.6-1.3 0 1-.1 1.6-.1 2.3v36.1c-.2 2.5-2.1 4.3-4.6 4.2-2.4-.1-4.1-1.9-4.2-4.4V21.9c0-1.6.2-1.9 1.7-1.9 2.1-.1 4.2-.1 6.2-.1 5 0 10.1.2 15.1-.1 8.4-.4 17.8 6.4 18.7 16.3.8 8.9-5.2 17.3-14.3 19.1-1.1.2-2.3.5-3.9.8zm-15.3-6.9c.5.1.9.1 1.2.1h12.6c1.2 0 2.4-.1 3.6-.5 3.9-1.2 7-3.5 8-7.7 1.7-7.1-3.6-13.7-10.9-13.7h-13c-.5 0-1 .1-1.5.1v21.7zM88.5 52H63.9c0 .7-.1 1.4-.1 2v18.9c0 .8 0 1.6-.2 2.3-.6 1.9-2.6 3.1-4.5 3-2.1-.2-3.8-1.8-4.1-3.9-.1-.5 0-1 0-1.5V5.4c0-.9.1-1.8.4-2.6.6-2 2.6-3 4.7-2.8 1.9.3 3.5 2 3.7 3.9.1.6 0 1.2 0 1.8v34.7c0 .7.1 1.4.1 2 1.5.4 22.9.4 24.5 0 0-.5.1-1.1.1-1.7V23.9c.2-2.3 1.9-4 4.2-4.1 2.3-.1 4.3 1.6 4.6 3.9.1.5 0 1 0 1.5v48.9c-.3 2.3-2.3 4.1-4.5 4-2.3-.1-4.1-1.9-4.3-4.2V52zM25 78.3c-5.9-.1-11.4-1.4-16.5-4.4-2.2-1.3-4.2-2.9-5.8-4.8-.8-1-1.6-2.1-2.2-3.3-1-1.9-.6-3.4.9-4.9 1.7-1.6 4.1-2.3 6.4-.7C9 61 10 62 10.9 63c.9.9 1.6 1.9 2.5 2.8 2.7 2.7 6 4.2 9.8 4.6 3.5.4 7 .3 10.4-.9 1.4-.5 2.8-1.2 4-2.1 2.9-2.2 3-5.9.2-8.2-1.3-1.1-2.9-1.9-4.5-2.6-4-1.7-8.1-2.9-12.3-4-3.4-.8-6.7-1.9-10.1-2.9-1.3-.4-2.5-1.1-3.7-1.7-3.2-1.7-5-4.4-5.5-7.9-1-7.1 1.7-12.8 8.1-15.9 9.8-4.8 19.7-5.2 29.4.4 1.8 1 3.5 2.5 5.1 3.9 1.2 1 2 2.5 2.5 4 .8 2.6-.5 3.9-2.8 4.4-2 .4-3.8-.2-5.2-1.7-.3-.3-.5-.6-.7-.9-2.3-3.4-5.6-5.3-9.6-6.1-4-.7-8-.6-11.8.9-1.4.5-2.8 1.3-3.9 2.3-2.7 2.3-2.7 5.4-.1 7.8 1.7 1.6 3.7 2.5 5.9 3 4.8 1.2 9.7 2.4 14.5 3.6 3.1.8 6.1 1.8 8.9 3.4 3.6 1.9 6.2 4.7 7.1 8.8 1.1 5 0 9.4-3.9 13-4.4 4-9.5 6.3-15.4 7-1.7.1-3.3.2-4.8.3z"/></symbol><symbol viewBox="0 0 59 60" id="makeup" xmlns="http://www.w3.org/2000/svg"><path d="M44 15a14 14 0 10-18 13.41v3.18a14 14 0 108 0v-3.18A14.02 14.02 0 0044 15zm-26 0c0-6.627 5.373-12 12-12s12 5.373 12 12-5.373 12-12 12c-6.624-.007-11.993-5.376-12-12zm24 30c0 6.627-5.373 12-12 12s-12-5.373-12-12 5.373-12 12-12c6.624.007 11.993 5.376 12 12zM32 31.16a12.6 12.6 0 00-4 0v-2.32a12.6 12.6 0 004 0z"/><path d="M40 15c0-5.523-4.477-10-10-10S20 9.477 20 15s4.477 10 10 10c5.52-.006 9.994-4.48 10-10zm-18 0a8 8 0 118 8 8.009 8.009 0 01-8-8zm8 40a10 10 0 10-7.071-17.066A9.983 9.983 0 0030 55zm-6.315-14.9l4.9 4.9-4.9 4.9a7.982 7.982 0 010-9.8zM25.1 51.315l4.9-4.9 4.9 4.9a8.009 8.009 0 01-9.8 0zM36.315 49.9l-4.9-4.9 4.9-4.9a7.982 7.982 0 010 9.8zM34.9 38.685l-4.9 4.9-4.9-4.9a7.985 7.985 0 019.8 0z"/><path d="M25.707 13.707l3-3a1 1 0 00-1.414-1.414l-3 3a1 1 0 101.414 1.414zm7-3.414a1 1 0 00-1.414 0l-6 6a1 1 0 101.414 1.414l6-6a1 1 0 000-1.414zM4.938 57.035a3.064 3.064 0 006.124 0c1.116-35.73.617-26.452 1.9-40.525A19.448 19.448 0 0016 7c0-4.317-3.065-7-8-7S0 2.683 0 7a19.448 19.448 0 003.042 9.51c1.279 14.073.78 4.795 1.896 40.525zM5.1 17h5.81l-.818 9H5.913zm3.963 39.973A1.055 1.055 0 018 58a1.072 1.072 0 01-1.066-1.027L6.032 28h3.936zM3.181 3.684a11.113 11.113 0 00.839 6.771 1 1 0 001.78-.91c-1.325-2.595-.684-5.774-.275-7.214.482-.137.976-.23 1.475-.279V8a1 1 0 102 0V2.052c.499.049.993.142 1.475.279.409 1.44 1.05 4.619-.276 7.214a1 1 0 101.781.91 11.113 11.113 0 00.839-6.771A4.615 4.615 0 0114 7a17.818 17.818 0 01-2.459 8H4.459A17.818 17.818 0 012 7a4.615 4.615 0 011.181-3.316zM52.5 0C50.892 0 46 0 46 6c.036 2.775.73 5.502 2.024 7.957-.014.3-.163-.857.976 7.113v17.86c-1.143 8-.99 6.811-.976 7.113A17.537 17.537 0 0046 54c0 6 4.892 6 6.5 6s6.5 0 6.5-6a17.537 17.537 0 00-2.024-7.957c.014-.3.163.857-.976-7.113V21.07c1.143-8 .99-6.811.976-7.113A17.537 17.537 0 0059 6c0-6-4.892-6-6.5-6zM54 38h-3V22h3zm-3.847 7l.714-5h3.266l.714 5zm4.694-30l-.714 5h-3.266l-.714-5zm.546 42.485c.2-2.864.038-4.86-.5-5.932a1 1 0 10-1.79.894c.151.3.587 1.555.247 5.514a9.237 9.237 0 01-1.7 0c-.34-3.959.1-5.214.247-5.514a1 1 0 00-1.79-.894c-.536 1.072-.7 3.068-.5 5.932C48.471 56.906 48 55.806 48 54a15.51 15.51 0 011.785-7h5.43A15.513 15.513 0 0157 54c0 1.806-.471 2.906-1.607 3.485zM55.215 13h-5.43A15.513 15.513 0 0148 6c0-1.806.471-2.906 1.607-3.485-.2 2.864-.038 4.86.5 5.932a1 1 0 101.79-.894c-.151-.3-.587-1.555-.247-5.514a9.237 9.237 0 011.7 0c.34 3.959-.1 5.214-.247 5.514a1 1 0 101.79.894c.536-1.072.7-3.068.5-5.932C56.529 3.094 57 4.194 57 6a15.513 15.513 0 01-1.785 7z"/></symbol><symbol viewBox="0 0 60 60" id="nail-polish" xmlns="http://www.w3.org/2000/svg"><path d="M.165 37.282l3.544 19.079A4.851 4.851 0 008.326 60H20.5a4.842 4.842 0 004.683-3.921l2.926-18.933A4.953 4.953 0 0023.439 31H22v-8a8 8 0 10-16 0v8H4.8a4.958 4.958 0 00-4.635 6.282zM8 23a6 6 0 0112 0v8h-3v-2a1 1 0 00-2 0v2h-2v-2a1 1 0 00-2 0v2H8zM4.8 33h18.639a2.961 2.961 0 012.706 3.773l-2.926 18.933A2.836 2.836 0 0120.5 58H19v-2a1 1 0 00-2 0v2h-2v-2a1 1 0 00-2 0v2h-2v-2a1 1 0 00-2 0v2h-.674a2.826 2.826 0 01-2.668-2.083l-3.544-19.08A2.964 2.964 0 014.8 33zM56 22.7V19a4 4 0 00-4-4h-4a4 4 0 00-4 4v3.7a6.969 6.969 0 00-4 6.3v28a3 3 0 003 3h14a3 3 0 003-3V29a6.969 6.969 0 00-4-6.3zM46 19a2 2 0 012-2h4a2 2 0 012 2v15a4 4 0 11-8 0zm12 38a1 1 0 01-1 1H43a1 1 0 01-1-1V29a4.99 4.99 0 012-4v9a6 6 0 0012 0v-9a4.99 4.99 0 012 4z"/><path d="M49 22a1 1 0 001-1v-1a1 1 0 00-2 0v1a1 1 0 001 1zm0 13a1 1 0 001-1v-9a1 1 0 00-2 0v9a1 1 0 001 1zm5 9h-8a1 1 0 000 2h8a1 1 0 000-2zm0 5h-8a1 1 0 000 2h8a1 1 0 000-2zM33 0a6.006 6.006 0 00-6 6v16a3 3 0 003 3v21.525a2 2 0 00-1.093 1.6c-.282 3.23-.56 6.289-.833 9.1a2.011 2.011 0 001.271 2.064 9.712 9.712 0 007.31 0 2.011 2.011 0 001.271-2.063 939.33 939.33 0 01-.833-9.1A2 2 0 0036 46.525V25a3 3 0 003-3V6a6.006 6.006 0 00-6-6zm-2.936 57.42c.274-2.812.552-5.874.844-9.133a7.611 7.611 0 014.192.013c.282 3.237.561 6.3.8 9.132a7.723 7.723 0 01-5.836-.012zM34 46.069a9.688 9.688 0 00-2 0V25h2zM36 23h-6a1 1 0 01-1-1V6a4 4 0 118 0v1h-2a1 1 0 000 2h2v2h-2a1 1 0 000 2h2v2h-2a1 1 0 000 2h2v2h-2a1 1 0 000 2h2v1a1 1 0 01-1 1zM13.007 50.92A6 6 0 0020 45a10.352 10.352 0 00-4.915-8.514 1.993 1.993 0 00-2.184.008A10.536 10.536 0 008.033 44.2a6.113 6.113 0 004.974 6.72zm.984-12.76A8.378 8.378 0 0118 45a4.012 4.012 0 11-7.974-.634 8.593 8.593 0 013.965-6.206z"/></symbol><symbol viewBox="0 0 512 512" id="new" xmlns="http://www.w3.org/2000/svg"><path d="M476.963 209.153c-9.241-2.723-16.248-9.539-19.225-18.701s-1.314-18.796 4.562-26.43c13.534-17.583 13.851-40.544.809-58.495-13.042-17.951-34.978-24.745-55.882-17.306-9.076 3.23-18.751 1.834-26.546-3.829-7.794-5.663-12.111-14.433-11.845-24.063.614-22.18-12.625-40.943-33.728-47.799-21.101-6.856-42.841.541-55.382 18.846-5.445 7.948-14.093 12.505-23.726 12.505-9.634 0-18.281-4.558-23.726-12.506-12.541-18.305-34.28-25.701-55.382-18.846-21.102 6.857-34.342 25.619-33.728 47.8.267 9.629-4.05 18.4-11.844 24.062-7.794 5.663-17.469 7.058-26.546 3.829-20.905-7.437-42.84-.645-55.882 17.306-13.042 17.951-12.724 40.912.809 58.495 5.876 7.635 7.539 17.268 4.562 26.43s-9.984 15.978-19.225 18.701C13.753 215.423 0 233.812 0 256c0 22.189 13.752 40.578 35.037 46.849 9.241 2.723 16.248 9.538 19.225 18.701 2.977 9.163 1.315 18.795-4.561 26.429-13.534 17.583-13.852 40.544-.81 58.495 13.043 17.951 34.977 24.742 55.883 17.306 9.077-3.229 18.752-1.834 26.545 3.829 7.794 5.662 12.111 14.433 11.845 24.063-.614 22.18 12.626 40.942 33.728 47.799 5.228 1.699 10.494 2.523 15.65 2.522 15.658 0 30.298-7.598 39.732-21.368 5.445-7.947 14.093-12.505 23.726-12.505 9.634 0 18.282 4.558 23.727 12.505 12.541 18.305 34.279 25.702 55.382 18.846 21.102-6.857 34.342-25.619 33.728-47.799-.266-9.63 4.051-18.401 11.845-24.064 7.794-5.661 17.467-7.059 26.546-3.828 20.907 7.437 42.84.645 55.882-17.306s12.725-40.912-.81-58.495c-5.876-7.634-7.538-17.268-4.561-26.43s9.984-15.978 19.225-18.701C498.248 296.578 512 278.19 512 256c0-22.188-13.753-40.577-35.037-46.847zm-5.674 74.436a48.818 48.818 0 00-32.647 31.756 48.817 48.817 0 007.747 44.881c9.673 12.567 6.588 26.034.476 34.447-6.111 8.413-17.967 15.507-32.908 10.191a48.813 48.813 0 00-45.077 6.501 48.821 48.821 0 00-20.114 40.863c.439 15.852-9.972 24.934-19.861 28.148-9.892 3.214-23.651 1.985-32.614-11.098a48.819 48.819 0 00-40.29-21.236 48.819 48.819 0 00-40.29 21.236c-8.963 13.082-22.722 14.312-32.614 11.098-9.889-3.213-20.301-12.295-19.862-28.148a48.816 48.816 0 00-20.113-40.862 48.808 48.808 0 00-45.078-6.502c-14.941 5.316-26.796-1.779-32.908-10.191-6.112-8.413-9.197-21.879.477-34.447a48.819 48.819 0 007.746-44.881 48.815 48.815 0 00-32.647-31.755c-15.213-4.482-20.633-17.19-20.633-27.588s5.42-23.106 20.632-27.588a48.817 48.817 0 0032.647-31.755 48.82 48.82 0 00-7.746-44.881c-9.673-12.567-6.589-26.034-.476-34.447 6.111-8.413 17.967-15.506 32.908-10.191a48.817 48.817 0 0045.078-6.502 48.818 48.818 0 0020.113-40.862c-.439-15.853 9.973-24.935 19.862-28.148 9.888-3.212 23.65-1.985 32.614 11.098a48.819 48.819 0 0040.29 21.236 48.817 48.817 0 0040.29-21.236c8.962-13.083 22.723-14.311 32.613-11.098 9.89 3.213 20.301 12.295 19.862 28.149a48.82 48.82 0 0020.113 40.862 48.816 48.816 0 0045.078 6.501c14.942-5.316 26.796 1.779 32.908 10.192 6.112 8.412 9.197 21.879-.476 34.447a48.817 48.817 0 00-7.746 44.88 48.816 48.816 0 0032.647 31.756c15.212 4.481 20.632 17.189 20.632 27.588 0 10.399-5.421 23.104-20.633 27.586z"/><path d="M256 97.467c-34.906 0-68.017 11.125-95.753 32.173-26.831 20.361-46.832 49.275-56.317 81.415-1.57 5.318 1.469 10.901 6.787 12.47.949.28 1.905.413 2.846.413 4.335 0 8.335-2.83 9.624-7.2 8.282-28.061 25.754-53.313 49.198-71.104 24.215-18.376 53.128-28.089 83.615-28.089 5.545 0 10.039-4.495 10.039-10.039 0-5.545-4.495-10.039-10.039-10.039zm122.089 243.677c-4.322-3.474-10.642-2.787-14.114 1.535-26.451 32.906-65.807 51.778-107.975 51.778-5.545 0-10.039 4.495-10.039 10.039s4.495 10.039 10.039 10.039c48.282 0 93.341-21.606 123.624-59.278 3.474-4.32 2.787-10.64-1.535-14.113z"/><circle cx="391.54" cy="318.411" r="10.206"/><path d="M236.413 334.313l-68.021-68.022c-2.929-2.929-7.639-.733-10.988 2.616-3.453 3.453-5.546 8.058-2.616 10.988l42.069 42.069-59.231-18.837c-9.419-2.93-12.454-1.988-17.372 2.93-3.453 3.453-5.442 8.163-2.512 11.093l67.918 67.917c2.825 2.825 7.639.941 11.092-2.512 3.35-3.349 5.338-8.267 2.512-11.093l-42.068-42.069 64.568 19.569c5.024 1.466 8.895-.314 12.137-3.557 3.35-3.348 5.338-8.266 2.512-11.092zm58.5-61.642c-3.244-3.244-7.638-4.5-10.359-1.779l-29.615 29.615-21.035-21.034 15.906-15.906c2.931-2.93 1.466-7.116-.941-9.523-2.826-2.825-7.011-3.872-9.732-1.151l-15.906 15.906-20.932-20.931 29.615-29.615c2.721-2.721 1.465-7.116-1.779-10.36-2.825-2.825-7.22-4.5-10.15-1.57l-37.256 37.255c-3.034 3.035-4.499 7.43-1.674 10.256l67.918 67.917c2.825 2.826 7.221 1.361 10.255-1.674l37.255-37.255c2.93-2.93 1.256-7.325-1.57-10.151zm74.095-70.324l-45.104-86.543a6.342 6.342 0 00-1.047-1.465c-3.035-3.035-10.256-.628-14.128 3.244-2.092 2.093-3.243 4.709-1.778 7.221l40.185 73.254-45.313-27.523c-3.243-1.988-7.429-.104-10.359 2.826-3.035 3.035-4.918 7.22-2.931 10.465l27.522 45.313-73.254-40.186c-2.512-1.465-5.127-.314-7.221 1.779-3.872 3.872-6.279 11.093-3.244 14.128a6.357 6.357 0 001.465 1.046l86.545 45.104c4.081 2.197 9.523-.314 13.5-4.291 3.872-3.872 6.488-9.418 4.081-13.29l-21.453-35.058 34.952 21.558c3.873 2.406 9.42-.21 13.291-4.082 3.977-3.978 6.383-9.314 4.291-13.5z"/></symbol><symbol viewBox="0 0 24 24" id="phone" xmlns="http://www.w3.org/2000/svg"><path fill-rule="evenodd" d="M10.975 6.254c.585.65.4 1.386-.118 2.084a5.453 5.453 0 01-.436.508 14.89 14.89 0 01-.28.285l-.767.768c-.1.1.586 1.47 1.917 2.803 1.33 1.331 2.7 2.018 2.801 1.917l.767-.767c.422-.422.645-.626.952-.827.638-.42 1.335-.533 1.922-.008 1.917 1.372 3.002 2.213 3.534 2.765 1.037 1.078.9 2.736.006 3.682-.31.328-.704.722-1.169 1.17-2.811 2.813-8.745 1.101-13.293-3.45C2.263 12.63.551 6.695 3.358 3.888c.503-.512.67-.678 1.16-1.161.913-.9 2.648-1.041 3.703 0 .554.549 1.439 1.686 2.754 3.526zm5.297 9.012l-.766.767c-1.303 1.303-3.521.192-5.629-1.917-2.109-2.111-3.219-4.329-1.916-5.632l.766-.766c.123-.123.18-.18.246-.25.092-.097.167-.182.228-.257-1.166-1.623-1.958-2.637-2.385-3.06-.22-.217-.714-.177-.896.002-.483.476-.642.635-1.144 1.145-1.804 1.805-.423 6.595 3.45 10.471 3.87 3.875 8.66 5.257 10.478 3.438.457-.441.83-.815 1.117-1.118.208-.22.245-.671.006-.92-.397-.412-1.37-1.17-3.05-2.377a6.856 6.856 0 00-.505.474zM13.655 2.07a9.505 9.505 0 018.275 8.275l-1.975.33a7.503 7.503 0 00-6.63-6.63l.33-1.975zm-.659 3.952a5.501 5.501 0 014.982 4.982l-1.982.33a3.5 3.5 0 00-3.33-3.33l.33-1.982z"/></symbol><symbol fill="none" viewBox="0 0 18 18" id="prod-sort-1" xmlns="http://www.w3.org/2000/svg"><g class="avprod-sort-g" clip-path="url(#avclip0)"><path d="M3.75 0h-3A.75.75 0 000 .75v3c0 .414.336.75.75.75h3a.75.75 0 00.75-.75v-3A.75.75 0 003.75 0zm0 6.75h-3A.75.75 0 000 7.5v3c0 .414.336.75.75.75h3a.75.75 0 00.75-.75v-3a.75.75 0 00-.75-.75zm0 6.75h-3a.75.75 0 00-.75.75v3c0 .414.336.75.75.75h3a.75.75 0 00.75-.75v-3a.75.75 0 00-.75-.75zM10.5 0h-3a.75.75 0 00-.75.75v3c0 .414.336.75.75.75h3a.75.75 0 00.75-.75v-3A.75.75 0 0010.5 0zm0 6.75h-3a.75.75 0 00-.75.75v3c0 .414.336.75.75.75h3a.75.75 0 00.75-.75v-3a.75.75 0 00-.75-.75zm0 6.75h-3a.75.75 0 00-.75.75v3c0 .414.336.75.75.75h3a.75.75 0 00.75-.75v-3a.75.75 0 00-.75-.75zM17.25 0h-3a.75.75 0 00-.75.75v3c0 .414.336.75.75.75h3a.75.75 0 00.75-.75v-3a.75.75 0 00-.75-.75zm0 6.75h-3a.75.75 0 00-.75.75v3c0 .414.336.75.75.75h3a.75.75 0 00.75-.75v-3a.75.75 0 00-.75-.75zm0 6.75h-3a.75.75 0 00-.75.75v3c0 .414.336.75.75.75h3a.75.75 0 00.75-.75v-3a.75.75 0 00-.75-.75z"/></g><defs><clipPath id="avclip0"><path fill="#fff" d="M0 0h18v18H0z"/></clipPath></defs></symbol><symbol fill="none" viewBox="0 0 18 18" id="prod-sort-2" xmlns="http://www.w3.org/2000/svg"><g class="awprod-sort-g" clip-path="url(#awclip0)"><path fill="#fff" d="M0 0h18v18H0z"/><path d="M3.75 0h-3A.75.75 0 000 .75v3c0 .414.336.75.75.75h3a.75.75 0 00.75-.75v-3A.75.75 0 003.75 0zm13.5 0H6.75A.75.75 0 006 .75v3c0 .414.336.75.75.75h10.5a.75.75 0 00.75-.75v-3a.75.75 0 00-.75-.75zM3.75 6.75h-3A.75.75 0 000 7.5v3c0 .414.336.75.75.75h3a.75.75 0 00.75-.75v-3a.75.75 0 00-.75-.75zm13.5 0H6.75A.75.75 0 006 7.5v3c0 .414.336.75.75.75h10.5a.75.75 0 00.75-.75v-3a.75.75 0 00-.75-.75zM3.75 13.5h-3a.75.75 0 00-.75.75v3c0 .414.336.75.75.75h3a.75.75 0 00.75-.75v-3a.75.75 0 00-.75-.75zm13.5 0H6.75a.75.75 0 00-.75.75v3c0 .414.336.75.75.75h10.5a.75.75 0 00.75-.75v-3a.75.75 0 00-.75-.75z"/></g><defs><clipPath id="awclip0"><path fill="#fff" d="M0 0h18v18H0z"/></clipPath></defs></symbol><symbol fill="none" viewBox="0 0 18 18" id="prod-sort-3" xmlns="http://www.w3.org/2000/svg"><g class="axprod-sort-g"><rect width="18" height="4.135" rx="1"/><rect y="6.617" width="18" height="4.136" rx="1"/><rect y="13.234" width="18" height="4.136" rx="1"/></g></symbol><symbol viewBox="0 0 60 60" id="shampoo" xmlns="http://www.w3.org/2000/svg"><path d="M55 18v-2a3 3 0 00-3-3h-1v-1a3.987 3.987 0 00-2-3.444V6.117l3.883 4.005a3 3 0 004.248-4.23L52.264.9a3.022 3.022 0 00-2.147-.9H35a3 3 0 000 6h8v2.556A3.987 3.987 0 0041 12v1h-1a3 3 0 00-3 3v2a5.006 5.006 0 00-5 5v8h-7.355C26.214 13.687 26 17.392 26 12a3 3 0 00-3-3H3a3 3 0 00-3 3v4.091C3.5 54.586 3 46.434 3 57a3 3 0 003 3h49a5.006 5.006 0 005-5V23a5.006 5.006 0 00-5-5zM34 3a1 1 0 011-1h15.117a1 1 0 01.716.3l4.875 5A1 1 0 0154.3 8.719L50.027 4.3a1 1 0 00-.717-.3H35a1 1 0 01-1-1zm11 3h2v2h-2zm-2 6a2 2 0 012-2h2a2 2 0 012 2v1h-6zm-4 4a1 1 0 011-1h12a1 1 0 011 1v2H39zm3 22v-3a4 4 0 00-4-4v-7h16v30h-9V41a3 3 0 00-3-3zm-4-5a2 2 0 012 2v3H20v-3a2 2 0 012-2zM2 12a1 1 0 011-1h1v2a1 1 0 002 0v-2h2v2a1 1 0 002 0v-2h2v2a1 1 0 002 0v-2h2v2a1 1 0 002 0v-2h2v2a1 1 0 002 0v-2h1a1 1 0 011 1v3H2zm21.905 5l-1.269 14H22a4 4 0 00-4 4v3a3 3 0 00-3 3v7H4.913L2.1 17zM5 50h10v4.088c-.581 1.251-3.528 1.145-3.964.073A1.93 1.93 0 009.22 53H5zm12-5h14a1 1 0 011 1v6a1 1 0 01-1 1H17zM5 57v-2h4.222C10 56.72 12.754 57.557 15 56.6c-.035.474.028.95.184 1.4H6a1 1 0 01-1-1zm13 1a1 1 0 01-1-1v-2h14a3 3 0 003-3v-6a3 3 0 00-3-3H17v-2a1 1 0 011-1h24a1 1 0 011 1v16a1 1 0 01-1 1zm40-3a3 3 0 01-3 3H44.816A5.077 5.077 0 0045 56h10a1 1 0 001-1V23a1 1 0 00-1-1H37a1 1 0 00-1 1v8h-2v-8a3 3 0 013-3h18a3 3 0 013 3z"/><path d="M7 45a1 1 0 001-1.083l-1.67-20A.987.987 0 005.247 23a1 1 0 00-.913 1.079l1.67 20A1 1 0 007 45z"/><circle cx="5" cy="20" r="1"/></symbol><symbol viewBox="0 0 301.4 260.4" id="telegram" xmlns="http://www.w3.org/2000/svg"><path class="azst0" d="M279.5 2.9l-267.7 105S-.9 112.2.1 120.2s11.3 11.7 11.3 11.7l67.3 22.7.1.1v-.1L240.4 51.9s9.3-5.7 9 0c0 0 1.7 1-3.3 5.7s-127 114.3-127 114.3l-8.8 75c3.7 1.6 7.1-1 7.1-1l43.5-39.7 67.8 52c18.3 8 25-8.7 25-8.7L301.4 9.2c0-16-22-6.3-21.9-6.3z"/></symbol><symbol viewBox="0 0 100 108" id="viber" xmlns="http://www.w3.org/2000/svg"><path class="bast0" d="M91.6 60.5C89 82.4 73.3 83.8 70.4 84.8c-1.2.4-12.7 3.3-27 2.4l-15.6 17.3V84.6h-.1c-20.9-6-20.2-28.3-20-40 .2-11.7 2.4-21.3 8.8-27.8 11.5-10.6 35.1-9 35.1-9 20 .1 29.5 6.2 31.7 8.3 7.3 6.4 11.1 21.8 8.3 44.4m-2.9-50C86.1 8.1 75.5.2 51.9.1c0 0-27.8-1.7-41.4 11C3 18.8.3 30.1.1 44.1c-.3 14-.6 40.3 24.1 47.4v10.9s-.2 4.4 2.7 5.3c3.4 1.1 5.4-2.3 8.7-5.9 1.8-2 4.3-4.9 6.1-7.1 16.9 1.5 29.9-1.9 31.4-2.4 3.4-1.1 22.7-3.7 25.9-29.9 3.2-27-1.6-44.2-10.3-51.9"/><path class="bast0" d="M73.6 63.8s-3.2-2.7-4.7-3.9c-1.5-1.1-3.8-2.6-5.1-3.3-2.3-1.3-4.7-.5-5.7.8l-2 2.6c-1 1.3-2.7 1.1-3.1 1-3-.8-6.2-2.6-9.5-5.8s-5.3-6.6-6-10l-.1-.2c-.2-1.4 0-2.1.6-3.1l.1-.1c1.4-1.3 3.9-2.8 4.3-4.3 1-2.6-3.4-8-4-8.9 0 0-3.2-4.2-4.3-5-1.2-1-3.1-1.6-5-.4H29c-5.5 3.7-7.4 5.8-6.9 9l.3 1.3c2.8 8.7 8.1 18.1 16.1 26.4 7.9 8.1 16.5 13 24.9 16.4 2.2.7 4.5.1 6.8-1.9 1.8-1.7 3.2-3.5 4.2-5.4 1.1-2 .7-3.9-.8-5.2M60.5 44.6c-.3 0-.6-.3-.6-.6-.1-2.3-.7-4-1.8-5.2s-2.7-1.8-4.8-1.9c-.3 0-.6-.3-.6-.7s.3-.6.7-.6c2.5.1 4.4.9 5.7 2.3 1.3 1.4 2 3.4 2.2 6-.1.4-.4.7-.8.7"/><path class="bast0" d="M66.7 46.8c-.4 0-.6-.3-.6-.7.1-4.3-1.2-8-3.8-10.9-1.3-1.5-2.9-2.6-4.7-3.4-1.8-.8-3.9-1.3-6.3-1.5-.3 0-.6-.3-.6-.7 0-.4.3-.6.7-.6 5 .4 9 2.2 11.8 5.3 2.8 3.2 4.2 7.1 4.1 11.8.1.4-.2.7-.6.7"/><path class="bast0" d="M73.1 49.3c-.3 0-.6-.3-.6-.6 0-3.8-.6-7.3-1.7-10.3s-2.8-5.6-5-7.8-4.7-3.9-7.4-5-5.8-1.7-9.1-1.7c-.3 0-.6-.3-.6-.6 0-.4.3-.6.6-.6 6.9.1 12.7 2.4 17.4 7.1 2.3 2.3 4.1 5.1 5.3 8.3 1.2 3.2 1.8 6.8 1.8 10.8 0 .1-.3.4-.7.4z"/></symbol><symbol viewBox="0 0 100 100.5" id="wa" xmlns="http://www.w3.org/2000/svg"><path class="bbst0" d="M85.4 14.6C76 5.2 63.5 0 50.2 0 22.8 0 .4 22.3.4 49.8c0 8.8 2.3 17.3 6.6 24.9l-7 25.8 26.4-6.9c7.3 4 15.5 6.1 23.8 6.1 27.4 0 49.8-22.3 49.8-49.8 0-13.4-5.2-25.9-14.6-35.3zM50.2 91.2c-7.4 0-14.7-2-21.1-5.8l-1.5-.9L12 88.7l4.2-15.3-1-1.6c-4.1-6.6-6.3-14.2-6.3-22C8.8 27 27.4 8.4 50.2 8.4c11.1 0 21.4 4.3 29.3 12.1 7.8 7.8 12.1 18.2 12.1 29.3 0 22.8-18.6 41.4-41.4 41.4zm22.7-31c-1.2-.6-7.4-3.6-8.5-4s-2-.6-2.8.6c-.8 1.2-3.2 4-3.9 4.9-.7.8-1.5.9-2.7.3s-5.3-1.9-10-6.2c-3.7-3.3-6.2-7.4-6.9-8.6s-.1-1.9.5-2.5 1.2-1.5 1.9-2.2c.6-.7.8-1.2 1.2-2.1.4-.8.2-1.6-.1-2.2-.3-.6-2.8-6.7-3.8-9.2-1-2.4-2-2.1-2.8-2.1h-2.4c-.8 0-2.2.3-3.3 1.6-1.1 1.2-4.4 4.3-4.4 10.4s4.5 12 5.1 12.9c.6.8 8.8 13.4 21.3 18.8 3 1.3 5.3 2 7.1 2.6 3 .9 5.7.8 7.8.5 2.4-.4 7.4-3 8.4-5.9s1-5.4.7-5.9c-.3-.8-1.1-1.1-2.4-1.7z"/></symbol></svg>