<?xml version="1.0" encoding="utf-8"?><svg xmlns="http://www.w3.org/2000/svg" xmlns:xlink="http://www.w3.org/1999/xlink"><symbol viewBox="0 0 289 492" id="arrow" xmlns="http://www.w3.org/2000/svg"><path d="M281.2 226.8L62.3 7.9C57.2 2.8 50.4 0 43.2 0s-14 2.8-19 7.9L8.1 24c-10.5 10.5-10.5 27.6 0 38L192 245.9 7.9 430C2.8 435 0 441.8 0 449c0 7.2 2.8 14 7.9 19L24 484.1c5.1 5.1 11.8 7.9 19 7.9s14-2.8 19-7.9L281.2 265c5.1-5.1 7.9-11.9 7.8-19.1.1-7.2-2.7-14-7.8-19.1z"/></symbol><symbol viewBox="0 0 512 512" id="calculator" xmlns="http://www.w3.org/2000/svg"><path d="M467 0H45C20.187 0 0 20.187 0 45v422c0 24.813 20.187 45 45 45h422c24.813 0 45-20.187 45-45V45c0-24.813-20.187-45-45-45zm15 45v196H271V30h196c8.271 0 15 6.729 15 15zM45 30h196v211H30V45c0-8.271 6.729-15 15-15zM30 467V271h211v211H45c-8.271 0-15-6.729-15-15zm437 15H271V271h211v196c0 8.271-6.729 15-15 15z"/><path d="M91 151h30v30c0 8.284 6.716 15 15 15s15-6.716 15-15v-30h30c8.284 0 15-6.716 15-15s-6.716-15-15-15h-30V91c0-8.284-6.716-15-15-15s-15 6.716-15 15v30H91c-8.284 0-15 6.716-15 15s6.716 15 15 15zm66.213 225l21.213-21.213c5.858-5.858 5.858-15.355 0-21.213-5.857-5.857-15.355-5.857-21.213 0L136 354.787l-21.213-21.213c-5.857-5.857-15.355-5.857-21.213 0-5.858 5.858-5.858 15.355 0 21.213L114.787 376l-21.213 21.213c-5.858 5.858-5.858 15.355 0 21.213s15.355 5.858 21.213 0L136 397.213l21.213 21.213c5.858 5.858 15.355 5.858 21.213 0s5.858-15.355 0-21.213zM421 331h-90c-8.284 0-15 6.716-15 15s6.716 15 15 15h90c8.284 0 15-6.716 15-15s-6.716-15-15-15zm0 60h-90c-8.284 0-15 6.716-15 15s6.716 15 15 15h90c8.284 0 15-6.716 15-15s-6.716-15-15-15zm-90-240h90c8.284 0 15-6.716 15-15s-6.716-15-15-15h-90c-8.284 0-15 6.716-15 15s6.716 15 15 15z"/></symbol><symbol viewBox="0 0 19.7 20" id="cart" xmlns="http://www.w3.org/2000/svg"><path d="M4.9 4c.3-2.2 2.5-4 5-4s4.7 1.8 5 4h2.9c1.1 0 2 .9 2 2v.3l-1.7 12c-.1 1-1 1.7-2 1.7H3.7c-1 0-1.8-.7-2-1.7L0 6.3C-.1 5.2.6 4.2 1.7 4h3.2zm2 0h5.9c-.3-1.1-1.5-2-2.9-2s-2.7.9-3 2zM4.8 6H2l1.7 12H16l1.7-12h-2.8v2h-2V6h-6v2h-2V6z"/></symbol><symbol viewBox="0 0 423.416 423.416" id="cart-socials" xmlns="http://www.w3.org/2000/svg"><path d="M420.688 145.096a9.401 9.401 0 00-7.837-2.612H300.525V92.851c0-49.052-39.764-88.816-88.816-88.816s-88.816 39.764-88.816 88.816v49.633H10.565c-3.135 0-6.269 0-7.837 2.612a8.883 8.883 0 00-2.612 7.837L39.3 367.137c5.474 29.881 31.275 51.746 61.649 52.245h221.518c30.461-.749 56.208-22.787 61.649-52.767L423.3 152.933a8.883 8.883 0 00-2.612-7.837zM143.79 92.851c0-37.51 30.408-67.918 67.918-67.918 37.51 0 67.918 30.408 67.918 67.918v49.633H143.79V92.851zm219.428 271.151c-3.519 19.801-20.641 34.289-40.751 34.482H100.949c-20.11-.193-37.232-14.68-40.751-34.482l-37.094-200.62h377.208l-37.094 200.62z"/><path d="M290.076 265.259c5.771 0 10.449-4.678 10.449-10.449v-31.347c0-5.771-4.678-10.449-10.449-10.449s-10.449 4.678-10.449 10.449v31.347c-.001 5.771 4.678 10.449 10.449 10.449zm-156.735 0c5.771 0 10.449-4.678 10.449-10.449v-31.347c0-5.771-4.678-10.449-10.449-10.449s-10.449 4.678-10.449 10.449v31.347c0 5.771 4.678 10.449 10.449 10.449z"/></symbol><symbol viewBox="0 0 10 10" id="compare" xmlns="http://www.w3.org/2000/svg"><path d="M0 4h2v6H0zm4-4h2v10H4zm4 3h2v7H8z"/></symbol><symbol viewBox="0 0 512.002 512.002" stroke-width="3" id="credit-card" xmlns="http://www.w3.org/2000/svg"><path d="M502.903 96.829c-6.634-7.842-15.924-12.632-26.161-13.487L116.185 53.236c-10.238-.855-20.192 2.328-28.035 8.961-7.811 6.607-12.594 15.85-13.476 26.037L67.42 156.29H38.455C17.251 156.29 0 173.541 0 194.745v225.702c0 21.204 17.251 38.455 38.455 38.455h361.813c21.205 0 38.456-17.251 38.456-38.455v-36.613l12.839 1.072c1.083.09 2.16.135 3.228.135 19.768 0 36.62-15.209 38.294-35.257l18.781-224.919c.854-10.237-2.329-20.193-8.963-28.036zM38.455 176.29h361.813c10.176 0 18.456 8.279 18.456 18.455v20.566H20v-20.566c0-10.176 8.279-18.455 18.455-18.455zM20 235.311h398.724V276.8H20zm380.268 203.591H38.455c-10.176 0-18.455-8.279-18.455-18.455V296.8h398.724v123.647c0 10.176-8.28 18.455-18.456 18.455zM491.935 123.2l-18.781 224.919c-.847 10.141-9.788 17.706-19.927 16.856l-14.503-1.211V194.745c0-21.204-17.251-38.455-38.456-38.455H87.534l7.039-66.04c.008-.076.015-.151.021-.228.847-10.141 9.783-17.705 19.927-16.855l360.558 30.106c4.913.41 9.372 2.709 12.555 6.473s4.711 8.541 4.301 13.454z"/><path d="M376.873 326.532h-96.242c-5.523 0-10 4.477-10 10v62.789c0 5.523 4.477 10 10 10h96.242c5.523 0 10-4.477 10-10v-62.789c0-5.523-4.477-10-10-10zm-10 62.789h-76.242v-42.789h76.242z"/></symbol><symbol viewBox="0 0 22 20.1" id="heart" xmlns="http://www.w3.org/2000/svg"><path d="M12.1.7c1.1-.5 2-.7 3.5-.7C19.3 0 22 3.1 22 7.1c0 3-1.7 6-4.8 8.8-1.7 1.5-3.8 3-5.3 3.7l-.9.5-.9-.4c-1.5-.8-3.6-2.3-5.3-3.7C1.7 13.1 0 10.2 0 7.1 0 3.1 2.7 0 6.5 0c1.4 0 2.4.2 3.5.7.4.2.7.4 1.1.7.2-.3.6-.5 1-.7zm3.7 13.7c2.8-2.5 4.2-4.9 4.2-7.3C20 4.2 18.1 2 15.5 2c-1.2 0-1.8.1-2.6.5-.5.2-.9.5-1.3.9l-.6.8-.7-.8c-.4-.3-.8-.6-1.3-.9-.8-.4-1.4-.5-2.5-.5C3.9 2 2 4.1 2 7.1c0 2.4 1.4 4.8 4.2 7.3 1.5 1.4 3.5 2.7 4.8 3.4 1.4-.6 3.3-2 4.8-3.4z"/></symbol><symbol viewBox="0 0 512 512" stroke-width="3" id="help" xmlns="http://www.w3.org/2000/svg"><path d="M512 346.5c0-74.629-50.285-139.832-121.195-159.48C386.348 83.14 300.457 0 195.5 0 87.7 0 0 87.7 0 195.5c0 35.133 9.352 69.34 27.11 99.371L.718 390.277l95.41-26.386c27.605 16.324 58.746 25.52 90.887 26.906C206.66 461.71 271.867 512 346.5 512c29.79 0 58.758-7.934 84.21-23.008l80.567 22.285-22.285-80.566C504.066 405.258 512 376.289 512 346.5zm-411.137-15.047l-57.117 15.8 15.8-57.116-3.6-5.633C38.972 257.949 30 227.172 30 195.5 30 104.242 104.242 30 195.5 30S361 104.242 361 195.5 286.758 361 195.5 361c-31.672 0-62.445-8.973-89.004-25.945zm367.39 136.8l-42.382-11.726-5.66 3.684C398.27 474.465 372.777 482 346.5 482c-58.656 0-110.2-37.926-128.46-92.309 89.82-10.355 161.296-81.832 171.655-171.656C444.075 236.301 482 287.844 482 346.5c0 26.277-7.535 51.77-21.79 73.71l-3.683 5.661zm0 0"/><path d="M180.5 271h30v30h-30zm45-121c0 8.52-3.469 16.383-9.766 22.145l-35.234 32.25V241h30v-23.395l25.488-23.328C248.387 182.93 255.5 166.793 255.5 150c0-33.086-26.914-60-60-60s-60 26.914-60 60h30c0-16.543 13.457-30 30-30s30 13.457 30 30zm0 0"/></symbol><symbol viewBox="0 0 57 57" id="icon-search" xmlns="http://www.w3.org/2000/svg"><path d="M55.1 51.9L41.6 37.8C45.1 33.6 47 28.4 47 23 47 10.3 36.7 0 24 0S1 10.3 1 23s10.3 23 23 23c4.8 0 9.3-1.4 13.2-4.2L50.8 56c.6.6 1.3.9 2.2.9.8 0 1.5-.3 2.1-.8 1.2-1.1 1.2-3 0-4.2zM24 6c9.4 0 17 7.6 17 17s-7.6 17-17 17S7 32.4 7 23 14.6 6 24 6z"/></symbol><symbol viewBox="0 0 270.4 98.1" id="iconSheer"><path d="M175.1 51.8c.2 1.2.3 2.1.5 3 2 8.4 8.6 14 17.2 14.7 7.6.6 13.6-2.3 18-8.5 2.2-3 5.7-3.5 8.5-1.1 1.6 1.4 1.8 3.2.5 4.9-.7.9-1.4 1.8-2.1 2.8-2.9 4-6.7 6.7-11.4 8.3-7.6 2.6-15.2 3-22.7.2-10.1-3.7-16.1-11.1-17.8-21.7-1-6.5-.4-13 2.6-18.9 4.3-8.4 11.1-13.6 20.5-15.1 6.2-1 12.4-.4 18.2 2.4 8.2 3.9 13.2 10.5 15.1 19.3.5 2.4.7 4.9.9 7.3.2 1.5-.5 2.2-2.1 2.3h-44.1c-.4.1-.9.1-1.8.1zm38.3-9.2c-1.2-7.9-10.7-14.7-19.4-14.2-9.1.5-18.2 7.5-18.5 14.2h37.9zm-101 9c.1.8.2 1.4.3 2 1.7 9.3 9.3 15.7 18.7 15.9 7.1.1 12.7-2.8 16.8-8.6 2.2-3.1 6.1-3.4 8.8-.7 1.3 1.4 1.5 3 .3 4.6-.5.8-1.1 1.5-1.7 2.2-3.1 4.5-7.3 7.4-12.5 9.1-7.6 2.5-15.2 2.7-22.5-.2-10.6-4.1-16.4-12.1-17.6-23.3-.6-5.4-.1-10.7 2.2-15.6 4.3-9.4 11.4-15.2 21.8-16.6 5.5-.7 11-.3 16.1 1.8 9.2 3.8 14.6 10.9 16.6 20.6.4 2.2.6 4.5.7 6.7.1 1.8-.3 2.2-2.2 2.2h-43.5c-.7-.1-1.4-.1-2.3-.1zm38.4-9.1c-1.2-7.8-10.4-14.4-19.4-14.2-8.8.2-17.9 7.2-18.6 14.2h38zm101 13.5c.7.6 1.1 1 1.5 1.4 4.9 4.2 9.8 8.3 14.6 12.5.3.3.7.6 1 .9 1.8 1.8 2 4.4.3 6.2-1.6 1.8-4.2 2.1-6.1.5-3.4-2.8-6.7-5.7-10-8.5-4.8-4.1-9.5-8.1-14.3-12.2-.4-.4-.9-.7-1.6-1.3 0 1-.1 1.6-.1 2.3v36.1c-.2 2.5-2.1 4.3-4.6 4.2-2.4-.1-4.1-1.9-4.2-4.4V21.9c0-1.6.2-1.9 1.7-1.9 2.1-.1 4.2-.1 6.2-.1 5 0 10.1.2 15.1-.1 8.4-.4 17.8 6.4 18.7 16.3.8 8.9-5.2 17.3-14.3 19.1-1.1.2-2.3.5-3.9.8zm-15.3-6.9c.5.1.9.1 1.2.1h12.6c1.2 0 2.4-.1 3.6-.5 3.9-1.2 7-3.5 8-7.7 1.7-7.1-3.6-13.7-10.9-13.7h-13c-.5 0-1 .1-1.5.1v21.7zM88.5 52H63.9c0 .7-.1 1.4-.1 2v18.9c0 .8 0 1.6-.2 2.3-.6 1.9-2.6 3.1-4.5 3-2.1-.2-3.8-1.8-4.1-3.9-.1-.5 0-1 0-1.5V5.4c0-.9.1-1.8.4-2.6.6-2 2.6-3 4.7-2.8 1.9.3 3.5 2 3.7 3.9.1.6 0 1.2 0 1.8v34.7c0 .7.1 1.4.1 2 1.5.4 22.9.4 24.5 0 0-.5.1-1.1.1-1.7V23.9c.2-2.3 1.9-4 4.2-4.1 2.3-.1 4.3 1.6 4.6 3.9.1.5 0 1 0 1.5v48.9c-.3 2.3-2.3 4.1-4.5 4-2.3-.1-4.1-1.9-4.3-4.2V52zM25 78.3c-5.9-.1-11.4-1.4-16.5-4.4-2.2-1.3-4.2-2.9-5.8-4.8-.8-1-1.6-2.1-2.2-3.3-1-1.9-.6-3.4.9-4.9 1.7-1.6 4.1-2.3 6.4-.7C9 61 10 62 10.9 63c.9.9 1.6 1.9 2.5 2.8 2.7 2.7 6 4.2 9.8 4.6 3.5.4 7 .3 10.4-.9 1.4-.5 2.8-1.2 4-2.1 2.9-2.2 3-5.9.2-8.2-1.3-1.1-2.9-1.9-4.5-2.6-4-1.7-8.1-2.9-12.3-4-3.4-.8-6.7-1.9-10.1-2.9-1.3-.4-2.5-1.1-3.7-1.7-3.2-1.7-5-4.4-5.5-7.9-1-7.1 1.7-12.8 8.1-15.9 9.8-4.8 19.7-5.2 29.4.4 1.8 1 3.5 2.5 5.1 3.9 1.2 1 2 2.5 2.5 4 .8 2.6-.5 3.9-2.8 4.4-2 .4-3.8-.2-5.2-1.7-.3-.3-.5-.6-.7-.9-2.3-3.4-5.6-5.3-9.6-6.1-4-.7-8-.6-11.8.9-1.4.5-2.8 1.3-3.9 2.3-2.7 2.3-2.7 5.4-.1 7.8 1.7 1.6 3.7 2.5 5.9 3 4.8 1.2 9.7 2.4 14.5 3.6 3.1.8 6.1 1.8 8.9 3.4 3.6 1.9 6.2 4.7 7.1 8.8 1.1 5 0 9.4-3.9 13-4.4 4-9.5 6.3-15.4 7-1.7.1-3.3.2-4.8.3z"/></symbol><symbol viewBox="0 0 512 512" id="phone" xmlns="http://www.w3.org/2000/svg"><path d="M298.667 25.6h-85.333a8.536 8.536 0 00-8.533 8.533 8.536 8.536 0 008.533 8.533h85.333a8.536 8.536 0 008.533-8.533 8.536 8.536 0 00-8.533-8.533zm59.733 0h-8.533a8.536 8.536 0 00-8.533 8.533 8.536 8.536 0 008.533 8.533h8.533a8.536 8.536 0 008.533-8.533A8.536 8.536 0 00358.4 25.6zm-91.802 409.6H245.41c-12.979 0-23.543 10.564-23.543 23.543v4.122c0 12.979 10.564 23.535 23.535 23.535h21.188c12.979 0 23.543-10.556 23.543-23.535v-4.122c0-12.979-10.564-23.543-23.535-23.543zm6.469 27.665a6.475 6.475 0 01-6.468 6.468H245.41c-3.575 0-6.477-2.901-6.477-6.468v-4.122a6.48 6.48 0 016.477-6.477h21.18a6.478 6.478 0 016.477 6.477v4.122z"/><path d="M370.227 0H141.781c-17.007 0-30.848 13.841-30.848 30.848v450.304c0 17.007 13.841 30.848 30.848 30.848h228.437c17.007 0 30.848-13.841 30.848-30.839V30.848C401.067 13.841 387.226 0 370.227 0zM384 481.152c0 7.595-6.178 13.781-13.773 13.781H141.781c-7.603 0-13.781-6.187-13.781-13.773V30.848c0-7.595 6.178-13.781 13.781-13.781h228.437c7.603 0 13.781 6.187 13.781 13.781v450.304z"/><path d="M392.533 51.2H119.467a8.536 8.536 0 00-8.533 8.533v358.4a8.536 8.536 0 008.533 8.533h273.067a8.536 8.536 0 008.533-8.533v-358.4c0-4.71-3.823-8.533-8.534-8.533zM384 409.6H128V68.267h256V409.6z"/></symbol><symbol viewBox="0 0 301.4 260.4" id="telegram" xmlns="http://www.w3.org/2000/svg"><path class="lst0" d="M279.5 2.9l-267.7 105S-.9 112.2.1 120.2s11.3 11.7 11.3 11.7l67.3 22.7.1.1v-.1L240.4 51.9s9.3-5.7 9 0c0 0 1.7 1-3.3 5.7s-127 114.3-127 114.3l-8.8 75c3.7 1.6 7.1-1 7.1-1l43.5-39.7 67.8 52c18.3 8 25-8.7 25-8.7L301.4 9.2c0-16-22-6.3-21.9-6.3z"/></symbol><symbol viewBox="0 0 100 108" id="viber" xmlns="http://www.w3.org/2000/svg"><path class="mst0" d="M91.6 60.5C89 82.4 73.3 83.8 70.4 84.8c-1.2.4-12.7 3.3-27 2.4l-15.6 17.3V84.6h-.1c-20.9-6-20.2-28.3-20-40 .2-11.7 2.4-21.3 8.8-27.8 11.5-10.6 35.1-9 35.1-9 20 .1 29.5 6.2 31.7 8.3 7.3 6.4 11.1 21.8 8.3 44.4m-2.9-50C86.1 8.1 75.5.2 51.9.1c0 0-27.8-1.7-41.4 11C3 18.8.3 30.1.1 44.1c-.3 14-.6 40.3 24.1 47.4v10.9s-.2 4.4 2.7 5.3c3.4 1.1 5.4-2.3 8.7-5.9 1.8-2 4.3-4.9 6.1-7.1 16.9 1.5 29.9-1.9 31.4-2.4 3.4-1.1 22.7-3.7 25.9-29.9 3.2-27-1.6-44.2-10.3-51.9"/><path class="mst0" d="M73.6 63.8s-3.2-2.7-4.7-3.9c-1.5-1.1-3.8-2.6-5.1-3.3-2.3-1.3-4.7-.5-5.7.8l-2 2.6c-1 1.3-2.7 1.1-3.1 1-3-.8-6.2-2.6-9.5-5.8s-5.3-6.6-6-10l-.1-.2c-.2-1.4 0-2.1.6-3.1l.1-.1c1.4-1.3 3.9-2.8 4.3-4.3 1-2.6-3.4-8-4-8.9 0 0-3.2-4.2-4.3-5-1.2-1-3.1-1.6-5-.4H29c-5.5 3.7-7.4 5.8-6.9 9l.3 1.3c2.8 8.7 8.1 18.1 16.1 26.4 7.9 8.1 16.5 13 24.9 16.4 2.2.7 4.5.1 6.8-1.9 1.8-1.7 3.2-3.5 4.2-5.4 1.1-2 .7-3.9-.8-5.2M60.5 44.6c-.3 0-.6-.3-.6-.6-.1-2.3-.7-4-1.8-5.2s-2.7-1.8-4.8-1.9c-.3 0-.6-.3-.6-.7s.3-.6.7-.6c2.5.1 4.4.9 5.7 2.3 1.3 1.4 2 3.4 2.2 6-.1.4-.4.7-.8.7"/><path class="mst0" d="M66.7 46.8c-.4 0-.6-.3-.6-.7.1-4.3-1.2-8-3.8-10.9-1.3-1.5-2.9-2.6-4.7-3.4-1.8-.8-3.9-1.3-6.3-1.5-.3 0-.6-.3-.6-.7 0-.4.3-.6.7-.6 5 .4 9 2.2 11.8 5.3 2.8 3.2 4.2 7.1 4.1 11.8.1.4-.2.7-.6.7"/><path class="mst0" d="M73.1 49.3c-.3 0-.6-.3-.6-.6 0-3.8-.6-7.3-1.7-10.3s-2.8-5.6-5-7.8-4.7-3.9-7.4-5-5.8-1.7-9.1-1.7c-.3 0-.6-.3-.6-.6 0-.4.3-.6.6-.6 6.9.1 12.7 2.4 17.4 7.1 2.3 2.3 4.1 5.1 5.3 8.3 1.2 3.2 1.8 6.8 1.8 10.8 0 .1-.3.4-.7.4z"/></symbol><symbol viewBox="0 0 100 100.5" id="wa" xmlns="http://www.w3.org/2000/svg"><path class="nst0" d="M85.4 14.6C76 5.2 63.5 0 50.2 0 22.8 0 .4 22.3.4 49.8c0 8.8 2.3 17.3 6.6 24.9l-7 25.8 26.4-6.9c7.3 4 15.5 6.1 23.8 6.1 27.4 0 49.8-22.3 49.8-49.8 0-13.4-5.2-25.9-14.6-35.3zM50.2 91.2c-7.4 0-14.7-2-21.1-5.8l-1.5-.9L12 88.7l4.2-15.3-1-1.6c-4.1-6.6-6.3-14.2-6.3-22C8.8 27 27.4 8.4 50.2 8.4c11.1 0 21.4 4.3 29.3 12.1 7.8 7.8 12.1 18.2 12.1 29.3 0 22.8-18.6 41.4-41.4 41.4zm22.7-31c-1.2-.6-7.4-3.6-8.5-4s-2-.6-2.8.6c-.8 1.2-3.2 4-3.9 4.9-.7.8-1.5.9-2.7.3s-5.3-1.9-10-6.2c-3.7-3.3-6.2-7.4-6.9-8.6s-.1-1.9.5-2.5 1.2-1.5 1.9-2.2c.6-.7.8-1.2 1.2-2.1.4-.8.2-1.6-.1-2.2-.3-.6-2.8-6.7-3.8-9.2-1-2.4-2-2.1-2.8-2.1h-2.4c-.8 0-2.2.3-3.3 1.6-1.1 1.2-4.4 4.3-4.4 10.4s4.5 12 5.1 12.9c.6.8 8.8 13.4 21.3 18.8 3 1.3 5.3 2 7.1 2.6 3 .9 5.7.8 7.8.5 2.4-.4 7.4-3 8.4-5.9s1-5.4.7-5.9c-.3-.8-1.1-1.1-2.4-1.7z"/></symbol></svg>