<svg width="15" height="15" fill="none" xmlns="http://www.w3.org/2000/svg"><path d="M14.905 7.208C14.77 7.025 11.578 2.72 7.5 2.72S.229 7.025.095 7.208a.495.495 0 000 .584C.23 7.975 3.422 12.28 7.5 12.28s7.27-4.305 7.405-4.488a.494.494 0 000-.584zM7.5 11.291c-3.004 0-5.605-2.857-6.376-3.791.77-.935 3.366-3.791 6.376-3.791 3.004 0 5.605 2.857 6.375 3.791-.769.935-3.365 3.791-6.375 3.791z" fill="#9E98AA"/><path d="M7.498 4.533A2.97 2.97 0 004.531 7.5a2.97 2.97 0 002.967 2.967A2.97 2.97 0 0010.465 7.5a2.97 2.97 0 00-2.967-2.967zm0 4.945A1.98 1.98 0 015.52 7.5a1.98 1.98 0 011.978-1.978A1.98 1.98 0 019.476 7.5a1.98 1.98 0 01-1.978 1.978z" fill="#9E98AA"/></svg>