<?xml version="1.0" encoding="utf-8"?>
<!-- Generator: Adobe Illustrator 22.1.0, SVG Export Plug-In . SVG Version: 6.00 Build 0)  -->
<svg version="1.1" id="Layer_1" xmlns="http://www.w3.org/2000/svg" xmlns:xlink="http://www.w3.org/1999/xlink" x="0px" y="0px"
	 viewBox="0 0 769.5 396.2" style="enable-background:new 0 0 769.5 396.2;" xml:space="preserve">
<style type="text/css">
	.st0{fill:#CEEDEB;}
	.st1{fill:#FEF3BB;}
	.st2{fill:#DDEFD3;}
	.st3{fill:#E1F0F5;}
	.st4{fill:#FEF1AC;}
	.st5{fill:#324050;}
	.st6{fill:#E2F3F7;}
</style>
<path class="st0" d="M65.5,252l-13-6.7c-4.1-2.1-7.1-1.1-9.2,3l-6.6,13.1c-2.1,4.1-1.1,7.2,2.9,9.3l13.1,6.6c4.1,2.1,7.1,1.1,9.3-3
	l6.6-13C70.6,257.2,69.6,254.1,65.5,252z M64.3,259l-6.7,13c-0.6,1.2-1.5,1.5-2.8,0.9l-13-6.7c-1.2-0.6-1.5-1.5-0.8-2.8l6.6-13
	c0.6-1.2,1.5-1.5,2.7-0.8l13,6.6C64.5,257,64.8,257.9,64.3,259z"/>
<path class="st0" d="M721.1,124.3c-2.2,0-4.1-0.8-5.6-2.4c-1.5-1.5-2.3-3.4-2.3-5.6c0-2.2,0.8-4.1,2.3-5.7c1.6-1.5,3.5-2.3,5.6-2.3
	c2.2,0,4.1,0.8,5.6,2.3c1.6,1.6,2.3,3.4,2.3,5.7c0,2.2-0.8,4.1-2.3,5.6C725.2,123.5,723.3,124.3,721.1,124.3L721.1,124.3z"/>
<path id="Path" class="st0" d="M13.6,98c1.6,1.6,2.3,3.4,2.3,5.7c0,2.2-0.8,4.1-2.3,5.6c-1.5,1.6-3.4,2.4-5.6,2.4s-4.1-0.8-5.6-2.4
	c-1.5-1.5-2.3-3.4-2.3-5.6c0-2.2,0.8-4.1,2.3-5.7c1.6-1.5,3.5-2.3,5.6-2.3S12,96.4,13.6,98z"/>
<path id="Path-Copy" class="st0" d="M392.2,13.6c-1.6-1.6-2.4-3.4-2.4-5.7c0-2.2,0.8-4.1,2.4-5.6c1.5-1.6,3.4-2.3,5.6-2.3
	c2.2,0,4.1,0.8,5.6,2.3c1.5,1.5,2.3,3.4,2.3,5.6c0,2.2-0.8,4.1-2.3,5.7c-1.6,1.5-3.5,2.3-5.6,2.3C395.6,15.9,393.7,15.1,392.2,13.6z
	"/>
<path id="Fill-9-Copy" class="st0" d="M360.3,101.8l-7.1,3.6c-2.2,1.1-3.9,0.6-5-1.6l-3.6-7.1c-1.1-2.2-0.6-3.9,1.6-5l7.1-3.6
	c2.2-1.1,3.9-0.6,5,1.6l3.6,7.1C363,99,362.5,100.7,360.3,101.8z M359.1,99.5c0.6-0.3,0.8-0.8,0.5-1.5l-3.6-7.1
	c-0.3-0.6-0.8-0.8-1.5-0.4l-7.1,3.6c-0.6,0.3-0.8,0.8-0.5,1.4l3.6,7.1c0.3,0.6,0.8,0.8,1.4,0.4L359.1,99.5L359.1,99.5z"/>
<path id="Path-Copy-2" class="st1" d="M348.8,47c0,1.4-0.5,2.6-1.4,3.6c-1,1-2.2,1.4-3.6,1.4c-1.4,0-2.5-0.5-3.5-1.4
	c-1-1-1.5-2.2-1.5-3.6c0-1.4,0.5-2.6,1.5-3.6c1-1,2.1-1.4,3.5-1.4c1.4,0,2.6,0.5,3.6,1.4C348.3,44.4,348.8,45.6,348.8,47z"/>
<path id="Path_1_" class="st2" d="M655.3,196.5c0-1.4,0.5-2.5,1.4-3.5c1-1,2.2-1.5,3.6-1.5c1.4,0,2.5,0.5,3.5,1.5
	c1,1,1.5,2.2,1.5,3.5c0,1.4-0.5,2.6-1.5,3.6c-1,1-2.1,1.4-3.5,1.4c-1.4,0-2.6-0.5-3.6-1.4C655.7,199.1,655.3,197.9,655.3,196.5
	L655.3,196.5z"/>
<path id="Fill-9" class="st3" d="M45.5,9.8l7.1-3.6c2.2-1.1,3.9-0.6,5,1.6l3.6,7.1c1.1,2.2,0.6,3.9-1.6,5l-7.1,3.6
	c-2.2,1.1-3.9,0.6-5-1.6l-3.6-7.1C42.8,12.6,43.3,10.9,45.5,9.8z M46.7,12.1c-0.6,0.3-0.8,0.8-0.5,1.4l3.6,7.1
	c0.3,0.6,0.8,0.8,1.5,0.4l7.1-3.6c0.6-0.3,0.8-0.8,0.4-1.5L55.3,9c-0.3-0.6-0.8-0.8-1.5-0.4L46.7,12.1L46.7,12.1z"/>
<path id="Path_2_" class="st1" d="M22.3,90.7c0-1.4,0.5-2.5,1.4-3.5c1-1,2.2-1.5,3.6-1.5c1.4,0,2.5,0.5,3.5,1.5c1,1,1.5,2.2,1.5,3.5
	c0,1.4-0.5,2.6-1.5,3.6c-1,1-2.1,1.4-3.5,1.4c-1.4,0-2.6-0.5-3.6-1.4C22.7,93.3,22.3,92.1,22.3,90.7z"/>
<path id="Fill-71" class="st0" d="M105.4,391.6c-1,0.6-1.5,0.3-1.5-0.9v-5.5c0-1.1,0.5-2,1.5-2.5l4.7-2.8c1-0.6,1.5-0.3,1.5,0.8v5.5
	c0,1.1-0.5,2-1.5,2.6L105.4,391.6z M280.3,210.7l-4.7,2.8c-1,0.6-1.5,0.3-1.5-0.9v-5.5c0-1.1,0.5-2,1.5-2.5l4.7-2.8
	c1-0.6,1.5-0.3,1.5,0.9v5.5C281.8,209.3,281.3,210.1,280.3,210.7L280.3,210.7z"/>
<path id="Fill-75" class="st2" d="M162.9,338.7v-4.2c0-0.9,0.4-1.5,1.2-2l3.6-2.1c0.7-0.4,1.1-0.2,1.1,0.6v4.2c0,0.9-0.4,1.5-1.1,2
	l-3.6,2.1C163.3,339.8,162.9,339.6,162.9,338.7z M169.9,293.1l-5.5,3.2c-1.1,0.7-1.7,0.3-1.7-1V289c0-1.3,0.6-2.3,1.7-3l5.5-3.2
	c1.2-0.7,1.8-0.3,1.8,1v6.4C171.7,291.5,171.1,292.5,169.9,293.1z M356.5,249.5v4.2c0,0.9-0.4,1.5-1.1,1.9l-3.6,2.1
	c-0.8,0.4-1.2,0.2-1.2-0.6v-4.2c0-0.9,0.4-1.5,1.2-1.9l3.6-2.1C356.1,248.4,356.5,248.7,356.5,249.5L356.5,249.5z"/>
<path id="Fill-75_1_" class="st2" d="M576,308.7v-4.2c0-0.9,0.4-1.5,1.1-2l3.7-2.1c0.7-0.4,1.1-0.2,1.1,0.6v4.2c0,0.9-0.4,1.5-1.1,2
	l-3.7,2.1C576.3,309.8,576,309.6,576,308.7z M583,263.1l-5.5,3.2c-1.1,0.7-1.7,0.3-1.7-1v-6.3c0-1.3,0.6-2.3,1.7-3l5.5-3.2
	c1.2-0.7,1.8-0.3,1.8,1v6.4C584.7,261.4,584.1,262.4,583,263.1z M769.5,219.5v4.2c0,0.9-0.4,1.5-1.1,1.9l-3.6,2.1
	c-0.8,0.4-1.2,0.2-1.2-0.6v-4.2c0-0.9,0.4-1.5,1.2-1.9l3.6-2.1C769.1,218.4,769.5,218.6,769.5,219.5L769.5,219.5z"/>
<path id="Fill-76" class="st3" d="M177.6,391.2c0-0.9,0.4-1.5,1.2-1.9l3.6-2.1c0.7-0.4,1.1-0.2,1.1,0.6v4.2c0,0.9-0.4,1.5-1.1,1.9
	l-3.6,2.1c-0.8,0.4-1.2,0.2-1.2-0.6V391.2z M231.9,224c0.7-0.4,1.1-0.2,1.1,0.6v4.2c0,0.9-0.4,1.5-1.1,2l-3.7,2.1
	c-0.8,0.4-1.1,0.2-1.1-0.6V228c0-0.9,0.4-1.5,1.1-2L231.9,224z M379.8,235.5l3.7-2.1c0.7-0.4,1.1-0.2,1.1,0.6v4.2
	c0,0.9-0.4,1.5-1.1,1.9l-3.7,2.1c-0.8,0.4-1.1,0.2-1.1-0.6v-4.2C378.6,236.6,379,235.9,379.8,235.5L379.8,235.5z"/>
<path id="Fill-77" class="st4" d="M133.9,349.2c0,1.5-0.6,2.6-1.9,3.4l-6.2,3.5c-1.3,0.7-1.9,0.4-1.9-1.1v-7c0-1.5,0.6-2.6,1.9-3.4
	l6.2-3.5c1.3-0.7,1.9-0.4,1.9,1.1V349.2z M245.8,195.4l6.1-3.5c1.3-0.7,1.9-0.4,1.9,1.1v7c0,1.5-0.6,2.6-1.9,3.4l-6.1,3.6
	c-1.3,0.7-1.9,0.3-1.9-1.2v-7C243.9,197.3,244.5,196.2,245.8,195.4z M405.5,212.2v7c0,1.5-0.6,2.6-1.9,3.4l-6.1,3.5
	c-1.3,0.7-1.9,0.4-1.9-1.1v-7c0-1.5,0.6-2.6,1.9-3.4l6.1-3.6C404.8,210.3,405.5,210.7,405.5,212.2L405.5,212.2z"/>
<polyline id="Fill-82" class="st5" points="488.8,127.9 490.3,128.9 488.8,128 488.8,127.9 "/>
<path id="Fill-85" class="st2" d="M193.6,345.1l6.2-3.5c1.3-0.7,1.9-0.4,1.9,1.1v7.1c0,1.5-0.6,2.6-1.9,3.4l-6.2,3.5
	c-1.3,0.8-1.9,0.4-1.9-1.1v-7.1C191.7,347,192.3,345.8,193.6,345.1"/>
<path id="Fill-86" class="st6" d="M132.6,296.2l-6.2,3.6c-1.3,0.8-1.9,0.4-1.9-1.1v-7.1c0-1.5,0.6-2.6,1.9-3.4l6.2-3.6
	c1.3-0.7,2-0.4,2,1.1v7.1C134.6,294.3,133.9,295.4,132.6,296.2"/>
</svg>
