<svg version="1.1" id="Layer_1" xmlns="http://www.w3.org/2000/svg" xmlns:xlink="http://www.w3.org/1999/xlink" x="0px" y="0px"
	 viewBox="0 0 26.2 6" style="enable-background:new 0 0 26.2 6;" xml:space="preserve">
<style type="text/css">
	.st0{fill:#23bcde;}
</style>
<path class="st0" d="M0,3c4.2,0.6,5.1,1,6.3,3c1.2-2,2.2-2.5,6.3-3C8.5,2.5,7.5,2,6.3,0C5.1,2,4.2,2.5,0,3L0,3z"/>
<path class="st0" d="M10,3c3.2,0.4,3.9,0.8,4.8,2.3c0.9-1.5,1.6-1.9,4.8-2.3c-3.2-0.4-3.9-0.8-4.8-2.3C13.9,2.2,13.2,2.6,10,3L10,3z
	"/>
<path class="st0" d="M19,3c2.4,0.3,2.9,0.6,3.6,1.7c0.7-1.1,1.2-1.4,3.6-1.7c-2.4-0.3-2.9-0.6-3.6-1.7C21.9,2.4,21.4,2.7,19,3L19,3z
	"/>
</svg>
