<svg version="1.1" id="Layer_1" xmlns="http://www.w3.org/2000/svg" xmlns:xlink="http://www.w3.org/1999/xlink" x="0px" y="0px"
	 viewBox="0 0 26.2 6" style="enable-background:new 0 0 26.2 6;" xml:space="preserve">
<style type="text/css">
	.st0{fill:#23bcde;}
</style>
<path class="st0" d="M26.2,3c-4.2,0.6-5.1,1-6.3,3c-1.2-2-2.2-2.5-6.3-3c4.2-0.6,5.1-1,6.3-3C21,2,22,2.5,26.2,3L26.2,3z"/>
<path class="st0" d="M16.2,3c-3.2,0.4-3.9,0.8-4.8,2.3C10.4,3.8,9.7,3.5,6.5,3c3.2-0.4,3.9-0.8,4.8-2.3C12.3,2.2,13,2.6,16.2,3
	L16.2,3z"/>
<path class="st0" d="M7.2,3C4.8,3.3,4.3,3.6,3.6,4.7C2.9,3.6,2.4,3.3,0,3c2.4-0.3,2.9-0.6,3.6-1.7C4.3,2.4,4.8,2.7,7.2,3L7.2,3z"/>
</svg>
