<?xml version="1.0" encoding="utf-8"?>
<!-- Generator: Adobe Illustrator 22.1.0, SVG Export Plug-In . SVG Version: 6.00 Build 0)  -->
<svg version="1.1" id="Layer_1" xmlns="http://www.w3.org/2000/svg" xmlns:xlink="http://www.w3.org/1999/xlink" x="0px" y="0px"
	 viewBox="0 0 321.1 329.2" style="enable-background:new 0 0 321.1 329.2;" xml:space="preserve">
<style type="text/css">
	.st0{fill:#C7E4FF;}
	.st1{fill:url(#Shape_3_);}
	.st2{fill:#60A2F0;}
	.st3{fill:#FFFFFF;}
	.st4{fill:#0D8E90;}
	.st5{fill:#097577;}
	.st6{fill:#1FBCBF;}
	.st7{fill:#FFAA83;}
	.st8{fill:#ED9870;}
	.st9{fill:#452312;}
	.st10{fill:#713D22;}
	.st11{fill:#CE7C56;}
	.st12{fill:#EEFCFF;}
	.st13{fill:#00558C;}
	.st14{fill:#003151;}
	.st15{fill:#132146;}
	.st16{fill:#2C4482;}
	.st17{fill:#455D9D;}
</style>
<path id="Shape_1_" class="st0" d="M38.5,151.5l-9,1.6c-2.8,0-4.9-2.1-6.5-6.2L1,87.4c-2.3-6.1-0.9-10.6,4.2-13.6L126.7,3
	c1-0.6,2.1-1.1,3.2-1.3c0.2,0,0.3-0.1,0.4-0.2l8-1.5c-1,0.3-2,0.7-2.9,1.3L14.1,72.2C9,75.1,7.6,79.6,9.8,85.7l22,59.6
	c0.6,2.2,2,4.1,3.8,5.4C36.5,151.2,37.5,151.5,38.5,151.5L38.5,151.5z M49.6,160.9l-4.5-12.2l7.8-4.5l5.7,15.5
	C55.7,160.5,52.4,160.3,49.6,160.9z M49.6,160.9c2.9-0.7,5.7-1.5,8.7-2.3l2.1,5.8c1.1,2.3,2.4,3.4,4.1,3.3l-8.1,1.5l-0.6,0.1
	l-0.2,0.1c-1.9,0.1-3.4-1.4-4.5-4.4L49.6,160.9z"/>
<linearGradient id="Shape_3_" gradientUnits="userSpaceOnUse" x1="45.7809" y1="35.7751" x2="127.8973" y2="105.1598" gradientTransform="matrix(0.938 -0.3468 0.3468 0.938 -23.669 40.6154)">
	<stop  offset="0" style="stop-color:#5DA2DC"/>
	<stop  offset="1" style="stop-color:#9FCFFF"/>
</linearGradient>
<path id="Shape_2_" class="st1" d="M166.3,59.4l2.3,6.1c2.2,6.1,0.8,10.6-4.3,13.6l-89.8,52.5l-4,24.3c-4.5,1.3-7.7,2.1-12,3.3
	l-5.6-15l-7.8,4.5l-2.2,1.2c-1.3,0.8-2.8,1.3-4.3,1.5l-0.1,0c-1,0-1.9-0.3-2.8-0.8c-1.8-1.3-3.2-3.2-3.8-5.4l-22-59.4
	c-2.2-6.1-0.8-10.6,4.3-13.5L135.5,1.5c0.9-0.6,1.9-1,2.9-1.3c0.3-0.1,0.6-0.1,1-0.1c3.2-0.4,5.5,1.6,7.2,6L166.3,59.4z M58.2,158.7
	c4-1.1,8.1-2.2,12.3-3.4l-1.1,6.8c-0.9,3.4-2.5,5.3-4.6,5.6c-0.1,0-0.2,0-0.3,0.1c-1.7,0.1-3-1-4.1-3.3L58.2,158.7z"/>
<path class="st2" d="M57.7,63.7c6.9-4.1,11.7-2.3,14.6,5.4L81.8,95c0.6,1.6,1,3.3,1.1,5c0.4,5.2-2,9.3-7.3,12.5l-26.1,15.2
	c-6.8,3.9-11.6,2.1-14.4-5.5l-9.6-25.9c-2.8-7.6-0.8-13.4,6-17.3L57.7,63.7z"/>
<polygon class="st3" points="107.2,67.5 85.9,80 83.7,74.3 107.5,60.4 133.7,45.2 135.8,50.9 "/>
<polygon class="st3" points="134.3,37.9 107.9,53.5 81.5,68.9 79.4,63.2 108.2,46.4 126.5,35.7 138.7,28.6 140.8,34.2 "/>
<polygon class="st3" points="106.5,81.6 89.8,91.3 87.7,85.6 106.9,74.5 137.6,56.5 139.7,62.2 "/>
<path class="st3" d="M66.2,94.8c1.1,0.7,2,1.5,2.9,2.5c1,0.9,1.8,1.8,2.6,2.8c0.5,0.3,0.8,0.9,0.8,1.4c0.1,0.6-0.2,1.2-0.8,1.6
	l-4.4,2.6l-6.5,3.8c-5.2,3-8.8,5.1-10.7,6.1c-0.6,0.3-1.2,0.6-1.8,0.9c-0.6,0.1-1.2-0.2-1.6-0.7c-0.2-0.8-0.3-1.6-0.3-2.4
	c0-0.3,0-0.5,0-0.8l0.3-3.2c0-1.2,0.1-2.1,0-2.6c0-0.8,0.2-1.6,0.6-2.2c0.4-0.6,1-1.5,1.6-2.6c0.6-0.8,1.2-1.6,1.8-2.4
	c1.1,0,2-0.1,2.6-0.1c0.9,0,1.8-0.3,2.6-0.7c0.7-0.6,1.3-1.2,2.1-1.9c0.4-0.5,1-1.4,1.8-2.6c1.5,0,2.5,0.1,3.2,0.2
	C64.1,94.3,65.2,94.4,66.2,94.8L66.2,94.8z"/>
<path class="st3" d="M56.5,82.8c1.3,1.3,2.1,3.1,2.2,4.9c0.3,1.8,0.2,3.8-0.4,5.5c-0.7,1.4-1.7,2.5-2.9,3.4
	c-1.2,0.7-2.6,0.9-3.9,0.6c-1.9-0.5-3.5-1.8-4.2-3.6c-1.1-1.9-1.5-4.1-1.2-6.3c0.1-1.6,0.8-3.2,2-4.2c1.1-1,2.3-1.7,3.8-2.1
	c0.8-0.2,1.7-0.1,2.5,0.2C55.2,81.5,55.9,82.1,56.5,82.8L56.5,82.8z"/>
<g>
	<path class="st4" d="M160.9,136.1c0.6-0.1,1.4-0.2,2.3-0.4c1.1-0.1,2.2-0.4,3.2-0.8c1.6,0.7,2.9,1.8,3.9,3.2
		c2.2,3.2,3.7,6.7,4.5,10.5c1.3,5,2.6,11.5,3.8,19.4c0.6,1.6,3.2,4.6,7.7,8.9c5.1,4.8,7.9,7.5,8.4,8.1c0.1,0.1,0.2,0.3,0.3,0.4
		c1.3,2.1,2.2,4.5,2.6,7c-3,1.6-5.7,3.6-8.1,6c-0.3-1.8-0.9-3.6-1.7-5.3c-1.3-2.7-2.9-5.1-4.9-7.4c-1-1.1-2.7-2.9-5-5.3
		c-2.2-2.2-3.9-3.9-5.1-5.2c-1.6-0.2-3.2-0.5-4.7-1.1c-1.6-0.5-2.9-1.6-3.9-3c-1.4-1.7-2.1-4.4-2.1-8.2v-4.4
		c-0.2-1.4-0.6-2.8-1.2-4.1c0,0-0.1,0-0.1,0c-2.6-1.8-5.5-3.2-8.6-4.2c-2.3-0.8-4.7-1.4-7.1-1.9c-2.2-0.4-4.2-0.7-6-1.1
		c-1.8-0.3-3.2-0.7-4.6-1c-2.4-0.5-4.4-1-6.1-1.5c-0.7-0.2-1.4-0.4-2.2-0.6c-2.8-0.7-6.2-1.4-10.3-2.1c-0.4-2.1-0.2-4.3,0.6-6.2
		c0.8-2.4,2.2-3.6,4.3-3.6c1.8,0.4,3.6,0.8,5.5,1.1c2.6,0.4,5.4,0.8,8.2,1.1c1.5,0.2,3,0.3,4.6,0.4l1.2,0.1
		c2.6,0.2,6.6,0.5,11.9,0.7l7.8,0.3c0.2,0,0.4-0.1,0.8-0.1L160.9,136.1z"/>
	<path class="st5" d="M164.6,132.8c-0.6,0.9-1.1,1.9-1.4,2.9c-1,0.1-1.7,0.3-2.3,0.4l-1.8-0.5c-0.7-0.2-1.4-0.4-2.2-0.6
		c-2.8-0.7-6.2-1.4-10.3-2.1c-0.4-2.1-0.2-4.3,0.6-6.2c0.8-2.4,2.2-3.6,4.3-3.6l0.7,0.2c0,0,0.1,0.1,0.1,0.1c2.1,2.7,5.5,4,8.9,3.6
		c0.3,0.4,0.9,1.3,1.8,2.8C163.5,130.6,164.1,131.7,164.6,132.8L164.6,132.8z"/>
	<path class="st6" d="M175.2,129.7c6.9,9.4,16.6,16.4,27.6,20c0.2,1.6,0.5,3.4,0.8,5.2c1.1,6.3,1.8,10.9,2.1,13.7
		c0,0.3,0,0.5,0.1,0.8c0.3,3,1.6,5.8,3.7,8.1c0.2,0.2,0.4,0.4,0.6,0.6c2,1.9,4.4,3.2,7,4c-2.2,1.5-4.5,2.8-7,4
		c-3.2,1.6-5.6,2.8-7.3,3.5c-0.9,0.4-1.8,0.8-2.6,1.3s-1.6,0.8-2.2,1.3c-0.1,0-0.2,0.1-0.3,0.2c-0.1,0-0.1,0-0.2,0.1l-0.1,0.1
		c-0.4-2.5-1.3-4.9-2.6-7c-0.1-0.1-0.2-0.3-0.3-0.4c-0.5-0.6-3.3-3.4-8.4-8.1c-4.5-4.3-7-7.2-7.7-8.9c-1.2-8-2.5-14.4-3.8-19.4
		c-0.8-3.8-2.3-7.3-4.5-10.5c-1-1.4-2.3-2.5-3.9-3.2c0.5-0.2,1.1-0.5,1.6-0.7c0.6-0.3,2-1.3,4.4-2.8
		C173.3,130.8,174.3,130.2,175.2,129.7z"/>
	<path class="st6" d="M180.8,114.2L180.8,114.2c-1.9-1.3-4.2-1.5-6.9-0.6c-2.7,0.9-4,2.7-3.6,5.6c0.3,1.6,0.8,3.1,1.5,4.5l-0.2-0.1
		c-0.8-0.4-1.6-0.9-2.2-1.5c-1-1-1.7-2.2-1.9-3.5c-0.1-0.5-0.1-1-0.1-1.5c0-1.9,0.7-3.7,2.1-5c0.4-0.4,0.8-0.8,1.3-1.1
		c1.1-0.7,2.4-1,3.7-1c0.6,0,1.3,0.1,1.9,0.2c1.2,0.3,2.2,1,3.1,1.8c0.5,0.5,0.9,1,1.2,1.6C180.6,113.8,180.7,114,180.8,114.2z"/>
	<path class="st7" d="M252.5,271.3c0.2,1.1,0.5,2.1,0.8,3.1c0.7,2.3,1.6,4.5,2.8,6.6c0.6,1,1.2,2,2,2.9c-1.1-0.1-3.4-0.2-6.9-0.2
		c-4.6,0-9.9,0-16-0.1c-5.3-0.1-10.7,0.5-15.9,1.8c-4.5,1.2-7.7,0.5-9.5-2c-2.1-2.9-3.4-6.3-4-9.8c0.5-3.2,1.3-6.4,2.2-9.5
		c2.9-6.2,7.6-11.5,13.5-15.1c1.4-0.9,2.7-1.6,4-2.2c-0.2,6-0.2,13.7,0,23.1c3.5-1.9,7.8-2.4,12.8-1.6l9.2,1.5
		c1.1,0.3,2.1,0.4,2.7,0.6L252.5,271.3z"/>
	<path class="st7" d="M99.1,134.6l-1.2-0.7c-3-1.7-5.3-2.9-7-3.8c-2.8-1.3-5.8-2.3-8.8-2.9l0,0l3.3-1.9c0.3-0.8,0.8-1.6,1.5-2.2
		c0.6-0.5,1-1.1,1.5-1.8c0-0.1-0.8-1.8-2.4-4.8c0-0.1,0-0.2,0-0.4c0.1-0.9,0.5-1.1,1.4-0.8c0.9,0.5,1.8,1.1,2.5,1.9
		c1.2,1.1,2.3,2.3,3.3,3.7c0.3,0.4,0.5,0.9,0.6,1.4c0.3,0.5,0.6,1.1,0.8,1.7c1.1,0.5,2.3,1,3.5,1.3c0.7,0.2,1.4,0.5,2.2,0.7
		c2.1,0.6,4.6,1.2,7.5,1.9c3.7,0.8,7.2,1.9,10.7,3.3c-6.1,3.6-9.5,5.4-10.5,5.4c-2.6-0.2-5.2-0.7-7.7-1.6L99.1,134.6z"/>
	<path class="st7" d="M147,108.3c0.7,3.3,2.2,6.3,4.5,8.8c2.1,2.6,5.1,4.3,8.4,5c0.2,0.5,0.4,1.4,0.6,2.6c0.1,0.6,0.3,1.3,0.5,2.2
		c-3.4,0.5-6.7-0.9-8.9-3.6c0,0-0.1-0.1-0.1-0.1c-0.1-0.1-0.2-0.3-0.3-0.4c-0.5-0.6-0.9-1.2-1.2-1.9
		C148.4,117,147.2,112.8,147,108.3L147,108.3z"/>
	<path class="st7" d="M129.7,125.4c-3.6-2-6.3-3.5-8.1-4.5c-2.8-1.3-5.8-2.3-8.8-2.9c-0.5-0.1-1-0.3-1.4-0.5
		c-2.3-0.1-4.4-1.4-5.7-3.4l-0.2-0.4l8.3-4.8c0.5,0.1,1,0.1,1.5,0.1c0.6,0,0.9-0.1,0.8-0.3c-0.1-0.2-0.2-0.4-0.2-0.6
		c-0.1-0.1-0.2-0.2-0.3-0.3l1.2-0.7l-0.2-0.3c-1.1-1.3-2.1-2.7-3-4.1c0-2.1,1.6-1.3,4.9,2.4l0.6,0.7c2.6,3,3.9,4.9,3.9,5.4
		c0.9,1,1.6,2.2,2.1,3.5c4.3,1.7,8.7,3.1,13.2,3.9c3.7,0.8,7.2,1.9,10.7,3.3c-6.1,3.6-9.5,5.4-10.5,5.4
		C135.5,127.2,132.5,126.5,129.7,125.4L129.7,125.4z"/>
	<path class="st7" d="M182.8,113.6v0.5c-0.1-0.2-0.2-0.4-0.4-0.5H182.8z"/>
	<path class="st8" d="M297,288.7c-1.1,1.5-1.8,3.3-1.8,5.2c-4-3.8-7.7-7.8-11.2-12.1c-0.8-1-2.4-3.6-4.7-7.6
		c-1.5-2.8-3.3-5.3-5.4-7.6c-6.1-4-11.4-4.8-16.1-2.5c-2.9,1.5-4.7,3.3-5.4,5.3c-1.6-0.9-3.1-2-4.5-3.2c-0.1-0.7-0.4-2.1-0.9-4.3
		c-0.5-1.8-0.8-3.7-0.9-5.6c0-5.6,1.6-11.1,4.5-15.9c1-1.5,1.8-2.9,2.4-4c2.7,6.6,5.4,12.6,8.1,17.8c0.7,1.9,2.6,3.3,5.4,4l3.6,0.8
		c1.1,0.3,2.2,0.8,3.2,1.4c5.1,2.4,9.9,7.1,14.5,14.2c1.2,1.9,3,4.8,5.4,8.7C294.5,285.4,295.7,287.1,297,288.7z"/>
	<path class="st8" d="M225.3,247c-1.2,0.6-2.6,1.3-4,2.2c-5.9,3.6-10.5,8.8-13.5,15.1c-1,3.1-1.7,6.3-2.2,9.5
		c-0.7-3.4-1.7-7.8-3.2-13.2c-1.8-7-3-11.5-3.4-13.3c-0.1-0.3-0.2-0.7-0.2-1.1c4,0.6,8,0.8,12,0.7l4.9-0.3l2.2-0.3
		c2.5-0.3,4.9-0.8,7.3-1.4C225.3,245.6,225.3,246.3,225.3,247L225.3,247z"/>
	<path class="st8" d="M115.6,107.8c0.1,0.1,0.2,0.2,0.3,0.3c0,0.2,0,0.4,0.2,0.6c0,0.2-0.3,0.3-0.8,0.3c-0.5,0-1,0-1.5-0.1
		L115.6,107.8z"/>
	<path class="st8" d="M115.9,142.2c-3-0.6-5.9-1.6-8.7-3c-1.7-0.8-4-2.1-7.1-3.9l-1.1-0.6l1.1,0.3c2.5,0.9,5.1,1.4,7.7,1.6
		c0.9,0,4.4-1.8,10.5-5.4c0.8,0.3,1.6,0.7,2.4,1.1c-2,0-3.4,1.2-4.3,3.6C115.6,137.9,115.4,140.1,115.9,142.2z"/>
	<path class="st8" d="M129.7,125.4c2.8,1,5.8,1.7,8.8,2c0.9,0,4.4-1.8,10.5-5.4c0.8,0.3,1.6,0.7,2.4,1.1c-2,0-3.4,1.2-4.3,3.6
		c-0.8,2-1,4.1-0.6,6.2c-3-0.6-5.9-1.6-8.7-3C136,129.1,133.3,127.5,129.7,125.4z"/>
	<path id="Shape_39_" class="st9" d="M264.7,113c0.1,1.8-0.3,3.6-1.1,5.2c-0.7,1.4-1.5,2.7-2.4,4c-0.6,0.9-1.3,1.7-2.1,2.4l-0.2,0.1
		c-6.8,2.4-13.1,3.2-18.8,2.3c1.3-0.2,2.7-0.4,4.2-0.7c0.5,0,0.9-0.1,1.3-0.2l2.1-0.5c0.8-0.3,1.6-0.5,2.4-0.7
		c1.1-0.3,2.2-0.8,3.1-1.3l2.9-1.9c1-0.7,2-1.4,2.9-2.2c0.9-0.9,1.8-1.8,2.7-2.9L264.7,113z M245,143.2c0,0.1-0.5-0.5-1.6-2
		c-1-1.5-4.3-2.4-9.7-3l-12.7-0.3l-6.3-0.1c-1,0-1.9,0-2.9-0.1c-4.6-0.3-9.1-1.4-13.4-3.2l-0.2-0.1c-4.4-2.1-7.6-4.5-9.6-7.3
		c0,0,0-0.1-0.1-0.1c-0.2-0.3-0.4-0.5-0.6-0.8l1.3,0.8c2,1.1,4,2.1,6,3c5.1,2.2,10.6,3.6,16.2,3.9c1.1,0.1,2.2,0.1,3.4,0
		c1.9-0.1,3.8-0.2,5.7-0.3c7.1-0.5,14.2-1.5,21.2-2.8c5.5-0.1,9.3,0.8,11.4,2.7c1.7,1.8,3,4,3.6,6.4
		C253.2,141.3,249.1,142.5,245,143.2L245,143.2z M159.9,122.2c-3.3-0.6-6.3-2.4-8.4-5c-2.2-2.5-3.8-5.5-4.5-8.8c0-0.6,0-2.4,0-5.4
		c0.1-1.8-0.1-3.7-0.8-5.4c0.1-0.5,0.3-1,0.5-1.6c0,0,0.1-0.1,0.1-0.1c0.8-2,2-3.7,3.6-5.2l0.3-0.3c0.8,1.5,1.4,3.2,1.7,4.9
		c0.2,2,0.3,4,0.2,5.9c0,9.3,3,15.4,9,18.2c0,0,1.8,0.6,5.4,1.8v-0.4c0-0.8,0.1-1.5,0.4-2.2c0.3,1.3,0.9,2.6,1.9,3.5
		c0.6,0.7,1.4,1.2,2.2,1.5c-0.3,0.3-0.7,0.5-1.1,0.6c0,0.5,0,1.1-0.2,1.6c0,0.1,0,0.2-0.1,0.2v0.2c-1-0.1-2-0.3-2.9-0.7
		c-0.7-0.2-1.4-0.5-2.1-0.9C162.1,123.2,160.3,122.3,159.9,122.2z M176.2,110.2c-0.6-0.2-1.3-0.3-1.9-0.2c-1.3,0-2.6,0.3-3.7,1
		c1.6-3.3,2.3-5.9,2.3-7.7c-0.1-1.2-0.4-2.3-0.9-3.4c-0.5-1.1-0.8-2.3-0.9-3.5c0-1,0.1-1.4,0.2-1.3v0.3h0.7c0.6,0.6,1.5,2.6,2.7,5.9
		c0.9,2.3,1.5,4.6,1.8,7.1C176.4,108.9,176.3,109.6,176.2,110.2L176.2,110.2z"/>
	<path id="Shape_38_" class="st10" d="M245,143.2c1.2,1.3,1.5,3.1,0.9,4.7c-0.7,2.1-2.8,3.5-6.2,4c-6.5,1.1-13.1,1.5-19.6,1.1
		c-3-0.2-6-0.6-9-1.1c-2.8-0.5-5.5-1.2-8.2-2.2c-11-3.7-20.7-10.7-27.6-20l-0.6-0.8c-0.7-1-1.2-1.9-1.7-2.8h-0.4l-1.5,0.3h-0.8V126
		c0-0.1,0-0.1,0.1-0.2c0.1-0.5,0.2-1,0.2-1.6c0.4-0.1,0.8-0.3,1.1-0.6l0.2,0.1c-0.7-1.4-1.2-3-1.5-4.5c-0.4-2.9,0.8-4.7,3.6-5.6
		c2.8-0.9,5-0.7,6.8,0.5l0.1,0.1c1.7,1.2,3.2,2.5,4.6,4.1c1.3,1.4,4.9,3.3,10.6,5.9c3.2,1.4,8,2,14.4,1.8c2.7-0.1,5.8-0.3,9.1-0.7
		c2.7-0.3,5.5-0.7,8.5-1.1c9.6-1.5,17-4.3,22.3-8.4c1.3-1,2.9-2.4,4.8-4.1c1.5-1.2,3.3-2,5.2-2.4c2.2-0.3,3.7,0.9,4.5,3.6l-2.9,3.5
		c-0.9,1-1.8,2-2.7,2.9c-0.9,0.8-1.9,1.5-2.9,2.2l-2.9,1.9c-1,0.6-2,1-3.1,1.3c-0.8,0.2-1.6,0.4-2.4,0.7l-2.1,0.5
		c-0.4,0.1-0.9,0.2-1.3,0.2c-1.5,0.3-2.9,0.5-4.2,0.7c5.7,0.9,11.9,0.1,18.8-2.3c3.1-0.9,5.6-0.6,7.5,1c1,0.7,1.7,1.8,2,3
		c0.4,2.6-1.1,5.1-4.6,7.4c-2.1,1.4-4.4,2.6-6.7,3.6c-0.6-2.4-1.9-4.6-3.6-6.4c-2.1-1.9-5.9-2.8-11.4-2.7c-7,1.4-14.1,2.3-21.2,2.8
		c-1.9,0.1-3.8,0.2-5.7,0.3c-1.1,0-2.2,0-3.4,0c-5.6-0.3-11.1-1.6-16.2-3.9c-2.1-0.9-4.1-1.9-6-3l-1.3-0.8c0.2,0.3,0.4,0.5,0.6,0.8
		c0,0.1,0,0.1,0.1,0.1c2,2.8,5.2,5.2,9.6,7.3l0.2,0.1c4.2,1.8,8.8,2.9,13.4,3.3c0.9,0.1,1.9,0.1,2.9,0.1l6.3,0.1l12.7,0.3
		c5.4,0.6,8.7,1.6,9.7,3C244.5,142.6,245,143.3,245,143.2z M170.6,111c-0.5,0.3-0.9,0.7-1.3,1.1c-1.4,1.3-2.1,3.1-2.1,5
		c0,0.5,0,1,0.1,1.5c-0.2,0.7-0.4,1.5-0.4,2.2v0.4c-3.6-1.2-5.4-1.8-5.4-1.8c-6-2.8-9-8.8-9-18.2c0-2,0-4-0.2-5.9
		c-0.3-1.7-0.8-3.4-1.7-4.9c0.2-0.2,0.4-0.3,0.6-0.5c2.4-1.9,5.2-3.1,8.2-3.6c3-0.5,6.1-0.2,9.1,0.6c3,0.7,5.7,2.3,7.8,4.5
		c3,2.7,4.8,6.4,5,10.4c0.3,4,0,8-1,11.8c-0.3-0.6-0.7-1.1-1.2-1.6c-0.8-0.9-1.9-1.5-3.1-1.8c0.1-0.6,0.2-1.3,0.3-2
		c-0.3-2.4-0.9-4.8-1.8-7.1c-1.2-3.3-2.1-5.3-2.7-5.9h-0.7v-0.3c-0.1-0.1-0.2,0.4-0.2,1.3c0.1,1.2,0.4,2.4,0.9,3.5
		c0.5,1.1,0.8,2.2,0.9,3.4C173,105.1,172.2,107.7,170.6,111L170.6,111z"/>
	<path class="st11" d="M252.9,236.3c-0.6,1.1-1.4,2.5-2.4,4c-3,4.7-4.5,10.2-4.5,15.8c0.1,1.9,0.4,3.8,0.9,5.6
		c0.5,2.2,0.8,3.6,0.9,4.3c-0.9-0.8-1.8-1.8-2.6-2.7c-3-4.1-5.4-7.1-7-9.1c-2.4-2.3-4.6-4.9-6.6-7.6c-0.8-1.1-1.4-2.1-2-3
		c7.8-2.7,15.1-6.7,21.5-11.9c0,0.1,0,0.2,0,0.3c0.1,0.1,0.1,0.3,0.2,0.3l1.3,3.1C252.7,235.8,252.8,236.1,252.9,236.3z"/>
	<path class="st11" d="M261.9,265c-1.2,0.8-2.2,1.8-3.1,2.9l-2.6,3.3c-1.3-0.5-2.7-1.1-3.9-1.8c0.6-2.1,2.4-3.8,5.4-5.3
		c4.7-2.2,10-1.4,16.1,2.5c2.1,2.3,4,4.8,5.4,7.6c2.4,4,3.9,6.6,4.7,7.6c3.5,4.2,7.3,8.2,11.2,12.1c-0.1,0.2-0.1,0.4-0.1,0.7
		c0,0.1,0.7,3.9,2.2,11.3l-3.5-4.3c-1.4-1-2.7-2.1-3.8-3.5c-1.1-1.4-2.4-2.8-3.7-4v-1.1l-0.1-0.9c-0.1-0.2-0.1-0.4-0.1-0.6
		c-0.7-2.8-2.1-5.4-4.1-7.6c-3.2-3.4-5.6-5.9-7-7.7c-1-1.1-1.9-2.3-2.7-3.6c-1.4-2.1-2.2-3.4-2.7-4c-2-2.6-4.2-3.9-6.6-3.7h-0.3
		h-0.2l-0.2,0.1L261.9,265z"/>
	<path class="st11" d="M171.1,126.3c-2.6,1.7-4.8,3.9-6.5,6.5c-0.4-1.1-1-2.2-1.7-3.1c-0.9-1.5-1.5-2.4-1.8-2.8
		c-0.2-0.8-0.3-1.5-0.5-2.2c-0.3-1.2-0.5-2-0.6-2.6c0.4,0.1,2.2,1,5.4,2.5c0.7,0.3,1.3,0.6,2.1,0.9c0.9,0.4,1.9,0.6,2.9,0.7H171.1z"
		/>
	<path class="st12" d="M295.1,293.9c0.1-1.9,0.7-3.7,1.8-5.2c0.9,1,1.7,2,2.5,2.7l-0.3,0.5c-1.7,2.7-1.8,6-0.3,9.9
		c0.1,0.1,0.8,1.7,2.1,4.9c0.7,1.6,1.3,3.2,1.6,4.9c-1.6-1.5-3.1-3.2-4.5-4.9l-0.7-0.9l0,0c-1.5-7.4-2.2-11.2-2.2-11.3
		C295,294.4,295,294.1,295.1,293.9z"/>
	<path class="st12" d="M258.1,284c-0.7-0.9-1.4-1.9-2-2.9c-1.2-2.1-2.1-4.3-2.8-6.6c-0.3-1-0.6-2.1-0.8-3.1l3.5,1.1
		c1.2,2.6,3,4.9,5.1,6.7c3.3,2.9,5.3,5.4,6.1,7.2c-1.5-0.2-3-0.6-4.5-1.1c-2.2-0.7-3.6-1.1-4-1.3C258.5,284,258.3,284,258.1,284
		L258.1,284z"/>
	<path class="st12" d="M163.2,135.7c0.3-1,0.8-2,1.4-2.9c1.7-2.6,3.9-4.8,6.5-6.5l1.5-0.3h0.4c0.5,0.9,1.1,1.8,1.7,2.8l0.6,0.8
		c-1,0.5-2,1.1-2.9,1.7c-2.3,1.5-3.8,2.5-4.4,2.8c-0.5,0.3-1,0.5-1.6,0.7C165.4,135.4,164.3,135.6,163.2,135.7L163.2,135.7z"/>
	<path class="st13" d="M251.1,231.8c-6.4,5.2-13.7,9.2-21.5,11.9c-1.4,0.4-2.8,0.8-4.2,1.2c-2.4,0.6-4.9,1.1-7.3,1.4
		c0.5-2.1,1-4.4,1.5-7c0-6.3-1-11.3-3-15.2c-1.7-3-4-5.6-6.7-7.7c-2.4-1.8-4.7-3.9-6.7-6.3c-2.2-3.2-3.3-7-3.1-10.9
		c0.1-1.8-0.3-3.6-0.9-5.3c-0.2-0.4-0.3-0.8-0.6-1.1c-0.1-0.2-0.3-0.4-0.5-0.6c0.7-0.4,1.5-0.9,2.2-1.3c0.8-0.4,1.7-0.8,2.6-1.3
		c1.6-0.8,4.1-1.9,7.3-3.5c2.4-1.2,4.7-2.5,7-4c0.2-0.3,0.5-0.5,0.8-0.6c0.4-0.1,0.7,0,1,0.2c0.7,0.3,1.4,0.6,2.1,1
		c2.4,1.2,4.9,2.2,7.4,3c2.6,0.8,4.9,2.2,6.8,4c2.2,2.8,3.9,6,4.9,9.5c0.1,0.5,0.3,1.1,0.5,1.7c0.1,0.4,1.3,3.6,3.6,9.8
		c2.5,6.6,5.8,12.8,10,18.4C253.2,230.1,252.2,231,251.1,231.8z"/>
	<path class="st14" d="M218,246.3l-2.2,0.3l-4.9,0.3c-4,0.1-8-0.1-12-0.7c-1.3-0.2-2.7-0.4-3.9-0.7l0.8-21.7c0-1.1,0-2.2,0-3.3v-0.1
		c-0.1-1.4-0.2-2.7-0.6-4c-0.3-1-0.7-2.1-1.1-3.2c-0.1-0.2-0.2-0.4-0.2-0.6c-1.5-3.4-2.5-5.9-3.1-7.6c0-0.1-0.5-1.2-1.5-3.3
		c0-0.1-0.1-0.1-0.1-0.2c-0.5-1-0.5-2.1,0.1-3c2.4-2.4,5.2-4.4,8.1-6l0.1-0.1c0.1,0,0.1,0,0.2-0.1c0.1-0.1,0.2-0.1,0.3-0.2
		c0.2,0.2,0.4,0.4,0.5,0.6c0.2,0.4,0.4,0.7,0.6,1.1c0.6,1.7,1,3.5,0.9,5.3c-0.2,3.9,0.9,7.7,3.1,10.9c2,2.3,4.2,4.4,6.7,6.3
		c2.8,2.1,5,4.7,6.7,7.7c2,3.8,3,8.9,3,15.2C219.1,241.9,218.6,244.3,218,246.3z"/>
	<path id="Shape_37_" class="st15" d="M302.5,311.7c-0.3-1.7-0.8-3.4-1.6-4.9c-1.3-3.2-2-4.9-2.1-4.9c-1.4-4-1.3-7.3,0.3-9.9
		c0.8-0.1,1.9-0.3,3.5-0.5c1.2-0.2,2.4-0.2,3.5,0l-0.1,0.1c0,0,0,0,0,0.1c-0.5,0.2-1,0.5-1.3,1c-0.1,0.1-0.2,0.2-0.3,0.4
		c-0.1,0.1-0.2,0.2-0.2,0.4c0,0.1-0.1,0.1-0.1,0.2c-0.4,0.9-0.6,1.9-0.4,2.9v0.3c0.5,2.2,1.2,4.3,2,6.3c0.9,1.9,1.5,3.8,1.8,5.8
		c0.3,1.3,0.8,3.3,1.2,5.9c1,5,2.7,8.7,5,11c1,1.4,2.7,1.8,5.2,1.3c-1.2,1.7-3.3,2.4-5.2,1.7c-1.9-0.5-3.6-1.9-4.4-3.7
		c-0.3-0.6-1.6-2.8-4-6.6C304,316.6,303,314.2,302.5,311.7z M256.2,271.2l2.6-3.3c0.9-1.1,2-2.1,3.1-2.9c-0.3,2.1,0.3,4.3,1.6,6
		c0.1,0.1,0.7,0.9,1.7,2.6c0.8,1,1.3,1.9,1.7,2.6c3,5.7,5.5,9.7,7.4,11.9c3.7,4.1,7.6,5.8,11.9,4.9v1.1c-2.9,2.7-6.3,2.7-10.3-0.1
		c-1.6-1.2-3.1-2.5-4.5-3.9c-1.3-1.4-2.8-2.6-4.3-3.8c-0.7-1.9-2.8-4.3-6.1-7.2c-2.1-1.9-3.9-4.2-5.1-6.7L256.2,271.2z"/>
	<path id="Shape_36_" class="st16" d="M307.6,292.1c-0.3,0.2-0.5,0.5-0.7,0.7c-0.9,0.8-1.5,1.9-1.6,3.1c0,0.1,0.6,2.3,1.8,6.6
		c1.3,4.5,2.2,7.6,2.5,9.2c0.9,5.7,2.3,9.8,4.1,12.1c1.3,1.8,3.4,2.9,5.7,3c-0.1,0.1-0.2,0.2-0.2,0.3c-2.5,0.5-4.2,0.1-5.2-1.3
		c-2.4-2.3-4-6-5-11c-0.5-2.7-0.9-4.6-1.2-5.9c-0.4-2-1-4-1.8-5.8c-0.9-2-1.5-4.2-2-6.3v-0.3c-0.1-1,0-2,0.4-2.9
		c0-0.1,0-0.2,0.1-0.2c0-0.1,0.1-0.3,0.2-0.4c0.1-0.1,0.2-0.3,0.3-0.4c0.3-0.5,0.8-0.8,1.3-1c0-0.1,0-0.1,0-0.1l0.1-0.1
		C306.7,291.5,307.1,291.8,307.6,292.1L307.6,292.1z M261.9,265h0.2l0.2-0.1h0.2h0.3h0.2l-0.2,1.4c0,0.8,2.5,5.2,7.4,13.1
		c2,3.5,4.3,6.8,7,9.8c1.9,1.9,3.7,2.9,5.5,2.9c1.1,0,2.2-0.2,3.3-0.6c0,0.2,0,0.4,0.1,0.6l0.1,0.9c-4.3,0.9-8.2-0.7-11.9-4.9
		c-1.9-2.2-4.4-6.2-7.4-11.9c-0.4-0.7-1-1.6-1.7-2.6c-1.1-1.6-1.7-2.5-1.7-2.6C262.1,269.3,261.6,267.1,261.9,265L261.9,265z"/>
	<path class="st17" d="M319.3,326.9c-2.2-0.1-4.3-1.2-5.7-3c-1.8-2.4-3.2-6.4-4.1-12.1c-0.3-1.6-1.1-4.7-2.5-9.2
		c-1.2-4.2-1.8-6.4-1.8-6.6c0.1-1.2,0.7-2.3,1.6-3.1c0.2-0.3,0.5-0.5,0.7-0.7c1.7,1.1,3,2.8,3.8,4.7c0,0.2,0.5,1.4,1.4,3.6
		c0.4,1.2,1,2.4,1.6,3.5c0.6,1.1,1.6,3,3,5.5c1,1.9,1.9,3.9,2.7,5.9C321.6,319.9,321.4,323.7,319.3,326.9z"/>
	<path class="st17" d="M286,291.6c-1,0.4-2.1,0.6-3.3,0.6c-1.8,0-3.6-1-5.5-2.9c-2.7-3-5-6.3-7-9.8c-4.9-7.9-7.4-12.3-7.4-13.1
		l0.2-1.4h-0.2c2.4-0.1,4.6,1.1,6.6,3.7c0.4,0.6,1.4,1.9,2.7,4c0.8,1.3,1.7,2.5,2.7,3.6c1.5,1.8,3.8,4.3,7,7.7
		C283.8,286.2,285.2,288.8,286,291.6z"/>
</g>
</svg>
