<?xml version="1.0" encoding="utf-8"?>
<!-- Generator: Adobe Illustrator 22.1.0, SVG Export Plug-In . SVG Version: 6.00 Build 0)  -->
<svg version="1.1" id="Layer_1" xmlns="http://www.w3.org/2000/svg" xmlns:xlink="http://www.w3.org/1999/xlink" x="0px" y="0px"
	 viewBox="0 0 492 454.9" style="enable-background:new 0 0 492 454.9;" xml:space="preserve">
<style type="text/css">
	.st0{fill:#F6F8FA;}
	.st1{fill:#D1E1EC;}
	.st2{fill:#CEDAE7;}
	.st3{fill:#AABCD6;}
	.st4{fill:#EAEFF4;}
	.st5{fill:#F3FAFB;}
	.st6{fill:#7893BF;}
	.st7{fill:#FAFBFC;}
	.st8{fill:#FFFFFE;}
	.st9{fill:#15283C;}
	.st10{fill:#709AC4;}
	.st11{fill:#1A4D79;}
	.st12{fill:#0E1820;}
	.st13{fill:#E3926C;}
	.st14{fill:#C07553;}
	.st15{fill:#EFA37F;}
	.st16{fill:#F9CE3D;}
	.st17{fill:#30B4B0;}
	.st18{fill:#1D8583;}
	.st19{fill:#0B0C0A;}
	.st20{fill:#186260;}
	.st21{fill:#F0A982;}
	.st22{fill:#A4BDD6;}
	.st23{fill:#E7A32E;}
	.st24{fill:#D42C6F;}
	.st25{fill:#93B7D6;}
	.st26{fill:#0A0B09;}
	.st27{fill:#A1244A;}
	.st28{fill:#FBD75E;}
	.st29{fill:#EC9446;}
	.st30{fill:#0D1012;}
	.st31{fill:#85A3C1;}
	.st32{fill:#5CB5B8;}
	.st33{fill:#D9252A;}
	.st34{fill:#13192F;}
	.st35{fill:#42558A;}
	.st36{fill:#2E3D6E;}
	.st37{fill:#603826;}
	.st38{fill:#0F1525;}
</style>
<path id="Fill-3" class="st0" d="M137.2,339.8c0.4-0.8,0.7-1.5,1.1-2l0.8-1.2c-1.4-3.3-3.4-5.7-6.1-7.2c-0.6-0.4-1.2-0.7-1.8-0.9
	c0.7,0.2,1.3,0.5,2,0.9c2.7,1.5,4.7,3.9,6,7.3l1.3-0.6l2.7-0.3l0,0c-1.6,1-2.8,1.8-3.6,2.3c0,0-0.1,0-0.1,0.1l-1.1-0.2
	c-0.4,0.5-0.7,1.1-0.9,1.7C137.3,339.7,137.3,339.8,137.2,339.8z M152.9,342.9c-0.7,0.2-1.4,0.5-2.1,0.8l-0.1,0
	c0.8-0.4,1.5-0.7,2.4-0.9C153,342.8,153,342.8,152.9,342.9z M261.2,332.2l-0.2,0.1c0.1-0.2,0.2-0.4,0.3-0.7
	C261.3,331.8,261.2,332,261.2,332.2z M200.6,342.9c-0.5-2.3-1-4.9-1.6-7.7c0.1-0.1,0.3-0.1,0.4-0.2c3-0.5,5.6-1.3,7.9-2.4
	c1.2,3,2.4,5.9,3.6,8.5L200.6,342.9z M29.8,245.4v0.5l27.4-4.8v-3.4l-20.3,3.6c2.9-1.3,5.9-2.4,9.2-3.2c4.9-1.2,10-1.9,15.4-2v28.1
	c-0.8,5.5-4,9-9.5,10.5c-12.1-9.7-23-16.1-32.6-19C22.3,251.6,25.8,248.2,29.8,245.4z M86.6,249.6v-10.3c8.3,2.1,16.3,5.1,24.2,9.1
	c9.6,4.8,16.8,10,21.7,15.5c2.2,2.2,4.4,4.2,6.6,6.2c0.1,0.6,0.2,1.3,0.3,2c0.5,2.3,0.9,3.9,1.2,4.8c0.3,0.8,0.8,1.9,1.3,3.3
	c0.8,4.2,1.9,8.2,3.4,11.9c0,2,0.1,5.2,0.3,9.6c0.1,4.3,0.2,7.6,0.2,9.9c-1.6,1.3-3.6,3.1-6,5.4c-3,3-4.9,5-5.7,5.8
	c-1.9,0.4-3.8,1.1-5.6,2.3c-0.5,0.3-1,0.6-1.4,1l-5.9-11.7c-0.5-1-1.2-1.6-2.2-1.8L85.4,306c-6.9-6.9-12.3-12.2-16.2-16
	c-4.3-4.1-8.4-7.9-12.4-11.3c5.9-2.6,9.2-7.2,10-14c0-0.1,0-0.2,0-0.3v-28.1c4,0.2,8.1,0.7,12.4,1.4c1.4,0.3,2.7,0.5,4.1,0.8v11.6
	c-1.6,0.6-2.9,1.6-4.1,3c-1.6,1.9-2.4,4-2.4,6.3s0.8,4.1,2.4,5.4c1.6,1.3,3.5,1.8,5.7,1.4c2.3-0.4,4.2-1.5,5.7-3.4
	c1.6-1.9,2.4-4,2.4-6.3c0-2.3-0.8-4.1-2.4-5.4C89.5,250.1,88.1,249.6,86.6,249.6z M414.4,249.8c-0.9,0.2-1.9,0.3-3,0.2l-6.9-1.3l0,0
	c-7.4-1.3-11.2-5.6-11.4-12.9v-9.4c5-4.8,8.9-9.4,11.8-14c6.9,8.6,10.3,18.7,10.1,30.3C414.9,245,414.7,247.4,414.4,249.8z
	 M413.5,255.3c-1.3,6.3-3.6,12.8-6.8,19.5c-0.6,1.4-1.3,2.7-2,4l-13,2.3c-0.8,0.1-1.3,0.6-1.7,1.4l-12,29.9c-2.2-1.2-4-2.5-5.3-4
	c-0.6-2.3-1.1-4.1-1.4-5.3c-0.5-2.1-0.9-3.9-1.2-5.4c0,0,0.1-0.1,0.1-0.1l1.1-2.3c0.2-0.6,0.3-1.2,0.3-1.8l-0.5-3.3
	c0-0.1-0.1-0.1-0.1-0.2l-0.7-1.7c-0.7-1.6-1.8-3.4-3.3-5.4c-0.1-2.8-0.1-4.9-0.2-6.5c-0.1-2.7-0.4-5-0.9-6.8c-1-4.2-3.1-6.9-6.2-8.2
	c3.3-5.8,6.8-10.7,10.5-14.6c-0.8-0.4-1.6-0.7-2.3-1c0-0.1,0-0.1,0.1-0.2c7.5-4.9,14.1-9.8,19.6-14.5v4.6
	c0.2,10.3,5.5,16.4,15.8,18.2l0,0l7.2,1.3c0.1,0,0.2,0,0.3,0.1C411.9,255.4,412.7,255.4,413.5,255.3L413.5,255.3z"/>
<path id="Fill-4" class="st1" d="M261,332.2l-17.3,3.1l0-27c0.5-3.6,0.9-6.1,1-7.7c0.6-5.3,0.9-10,0.8-14.2c0.3-2.6,1.2-5.7,2.5-9.4
	c2-5.4,3.1-8.5,3.3-9.1c0.4-2.1,2-5.4,4.6-10c2.3-4,3.5-7.5,3.4-10.4c1.1,4,1.4,8.5,0.9,13.7c-0.2,2.4-1.1,7-2.5,13.8
	c-1.2,5.7-1.8,10.3-1.8,13.6c0,5,0.9,9.5,2.9,13.5c2.2,10.1,3,20,2.4,29.4C261.2,331.8,261.1,332,261,332.2z M342.4,214.4
	c-2.3,1-4.5,2.3-6.5,4c-2.2,2.7-3.5,6.6-3.9,11.7c-0.1,1.4-0.2,3.5-0.3,6.4c-0.1,1.4-0.1,2.6-0.3,3.8c-0.2,0.2-0.3,0.3-0.4,0.5
	c-3.5-0.3-5.3,1.5-5.3,5.5c0,1,0.2,2.1,0.6,3.1c-3.5,1.7-6.9,3.8-10.3,6.2c-0.8,0.2-1.7,0.5-2.6,0.7c-3.9,1-7.1,3.2-9.6,6.6
	c-1.2,1.6-2,3.2-2.4,5c-5.3,5.3-10.1,11.1-14.4,17.5c-1.6,2.4-3.1,4.8-4.4,7.1v-2.8c0-0.2,0-0.3,0-0.5c0.2-7,0.1-12.9-0.3-17.7
	c1.9-4.1,3.2-7.6,4.1-10.5c1.2-4,1.8-7.7,1.8-11.2c0-0.1,0.1-0.2,0.2-0.3c1.2-2.2,2.3-4.4,3.2-6.7c2.5-6.1,4.3-12.7,5.4-19.9
	c0-0.1,0-0.1,0-0.2c0.3-1.9,0.5-3.8,0.7-5.8c0-0.1,0-0.3,0-0.4c0.2-2.5,0.3-5.1,0.3-7.7c8.2-4.7,15.3-8.8,21.4-12.4
	c2.6,4.1,6.9,6.6,13.1,7.7v0l11.2,2C343.4,208.6,342.9,211.4,342.4,214.4z M229.9,248.2c-0.1,2.5-0.1,4.6-0.2,6.2
	c0,3.3-0.5,6.8-1.6,10.8c-0.4,1.5-1.1,3.6-2,6.3c0,0,0,0,0,0.1c0,0.1-0.1,0.3-0.1,0.4l-1.2,3.3c0,0.1-0.1,0.2-0.1,0.3
	c-1.7,4.5-2.8,7.9-3.5,10.3c-1,3.9-1.5,7.5-1.3,10.8c0.4,3.1,1.1,7.1,1.9,12.1c2.5,8.4,2.7,18.3,0.6,29.6l0.6,0.5l-12.1,2.1
	c-1.2-2.6-2.4-5.5-3.6-8.5c1.1-0.6,2.1-1.2,3.1-1.9c3.4-2.6,5.2-6,5.3-10.1c0.1-8.2,0.1-14.4,0-18.4c0-7.3-0.4-13.4-1.2-18.4
	c0.1-5,0.2-8.7,0.2-11.2c-0.1-4.4-0.8-8-2.1-11c0,0.1,0.1,0.1,0.2,0.1c-0.8-2.3-2.3-4.5-4.4-6.4c0,0,0-0.1-0.1-0.1
	c-1.9-1.6-4.1-3-6.6-4c-1.5-0.9-3.8-2.6-6.9-5c-0.9-0.7-1.7-1.3-2.4-1.8c-0.2-6.1-0.4-12.6-0.6-19.6c-0.8-25.7-0.1-37.3,1.8-34.8
	c2,2.5,9.1,13.5,21.5,33C219.9,230.9,224.9,239.3,229.9,248.2z M344.7,200.7l-11.2-2v0c-4.3-0.8-7.3-2.5-9.2-5.3
	c12.7-7.5,19.8-11.9,21.2-13.3C347.4,178.5,347.1,185.3,344.7,200.7z M74.4,365.1l-21.7,3.8c-2-1.7-4-3.4-6-5.3
	c-8.5-7.9-16.7-16.7-24.4-26.6c-5.3-6.9-9.1-12.4-11.5-16.6c1,0,2.2,0,3.4,0.1c13.2,0.1,28.8,1.6,46.7,4.5
	c5.5,0.9,10.7,1.9,15.5,3.1l7.8,15.4c0.1,0.2,0.2,0.4,0.4,0.6c-1.7,0.6-3.4,1.4-5.1,2.4c-1.8,1.1-3,1.8-3.8,2.3
	c-2.7,1.7-4.3,4.1-4.8,7.2c0,0.2,0,0.4-0.1,0.5c-0.2,3.3,0.7,6,2.8,8.1C74,364.8,74.2,365,74.4,365.1z M427.7,347.6
	c-0.3-2.1-0.5-4-0.8-6c-0.2-1-0.4-2.3-0.6-3.8c-0.1-0.6-0.1-1.3-0.2-2c-0.3-3.2-0.5-5.2-0.5-5.8c-0.6-4.7-1.8-8.5-3.5-11.2
	c-1.6-2.4-3.6-4-6.2-4.8l4.3-3.4c0.6-0.5,0.5-0.6-0.3-0.5l-1.4,0.3l1.3-1c0.2-0.1,0.3-0.3,0.3-0.3c0.7-0.2,1.3-0.6,1.6-1.4l3.6-8.8
	c0.4,0,0.8-0.1,1.2-0.1c11.5-1.1,23.6-1.2,36-0.3c8.7,0.6,15.4,1.5,20,2.6c-0.7,0.8-1.4,1.6-2.3,2.5c-8.9,9.8-20.5,20.3-34.6,31.7
	C439.2,339.9,433.3,344.1,427.7,347.6L427.7,347.6z"/>
<path id="Fill-5" class="st2" d="M166.9,385.5c0-0.1,0.1-0.1,0.2-0.1v0.1c0.5,0.1,0.9,0.2,1.3,0.2c0.2,0,0.3,0.1,0.3,0.1
	c3,0.7,5.3,1.3,6.8,1.8c1.1,0.5,2.1,0.8,3,1.1c-6.6,0.8-14.1,1.2-22.6,1.1c-10.9,0-20.2-0.7-28-2c0.2-0.1,0.4-0.2,0.5-0.2
	c2.2-1.3,5-2.5,8.4-3.6c5.1-1.7,7.8-2.7,8.1-2.8l0.5,0.2c0.5,0.2,2.1,0.4,4.6,0.6c1.9,0.2,3.7,0.6,5.4,1.3c0.6,0.1,1.9,0.6,4.1,1.5
	c0.9,0.6,1.7,0.6,2.4,0.2C163.3,384.8,165,385,166.9,385.5z M186.1,383.6c2.1-1,3.9-2.4,5.5-4.2c3.1,1,4.7,2.1,4.7,3.4
	c0,1.9-3.9,3.6-11.8,5h0c0,0,0.1-0.1,0.1-0.1c1.3,0,2.1-0.4,2.5-1.3C187.2,385.6,186.9,384.6,186.1,383.6z M287.5,429.5l-28.4,5
	l24,3.3L287.5,429.5z M209.1,366.2v9.1c-6.4-1.3-9.5-2.8-9.5-4.6C199.5,369,202.7,367.5,209.1,366.2z M278.9,372.7v-9.9
	c1.3,0.4,2.5,0.7,3.8,1c4.8,1.2,9,2,12.6,2.3c6.4,0.6,12.2,0.1,17.5-1.6c0.1-0.7,0.3-1.3,0.3-1.6c0.1-0.7,0-1-0.4-0.9
	c0,0,0-0.1,0-0.1c0-0.1,0-0.2,0.1-0.3c0-0.1,0-0.1,0-0.2c0,0,0-0.1,0-0.1c0-0.1,0-0.1,0-0.2l-2.2-4.2c2.1,0.3,4.1,0.5,6,0.9
	c7.9,1.4,11.8,3.1,11.8,5c0,1.9-3.9,3.6-11.8,5c-7.9,1.4-17.4,2-28.5,2c-2.9,0-5.7,0-8.4-0.1c0.4,0.4,0.5,0.8,0.5,1.2
	C280.2,371.5,279.8,372.1,278.9,372.7z M315.7,317.7c0,0-0.1,0-0.2,0c-0.4,0.1-0.7,0.2-1.1,0.4c-0.2,0.1-0.5,0.2-0.7,0.3
	c0.1-0.7,0.3-1.5,0.4-2.3c1.4-7.9,2.5-13.1,3.3-15.8c0.3-1,0.7-3.7,1.3-8.3c0.5-3.7,1.3-6.6,2.3-8.7c0.6-1.1,1.9-2.6,4-4.6
	c2.3-2.1,4.6-3.8,6.8-5.1c0.2,0.5,0.4,0.9,0.6,1.4c0.2,0.6,0.4,1.2,0.5,1.8c0,0.1,0,0.1,0,0.2c0.1,0.5,0.2,1,0.2,1.5
	c0,0,0,0.1,0,0.1c0.1,1.6-0.5,3.1-1.8,4.4c-0.1,0.1-0.3,0.3-0.4,0.4c-0.9,0.8-2.3,2-4.3,3.4c-0.8,1.7-1.3,3.9-1.7,6.5
	c0,0.2,0,0.3-0.1,0.5c-0.2,1.6-0.5,3.9-0.9,7.1c-0.4,2-0.9,4.9-1.6,8.7c-0.6,3.5-1.3,6.4-2,8.7C319.1,317.5,317.4,317.3,315.7,317.7
	z M354.5,262.4l1.9-0.5c0.5,1.2,0.9,2.3,1.3,3.3c0.3,0.8,0.6,1.5,0.8,2.2c0.1,0.2,0.1,0.4,0.2,0.6c0.2,0.7,0.4,1.4,0.6,2
	c0.2,0.6,0.3,1.1,0.4,1.6c-0.1-0.1-0.3-0.2-0.6-0.4c-0.5-0.4-1.1-1-2-1.8v0c0,0,0,0-0.1,0c-0.4-0.4-0.7-0.7-1.1-1
	c-0.5-0.4-1-0.8-1.4-1.1c-0.1,0-0.1-0.1-0.2-0.1l-0.1,0.1c-0.1,0.1-0.2,0.1-0.3,0.2v0c-0.3-0.5-0.5-1.1-0.8-1.6
	c0.5-0.4,0.9-1.2,1-2.4c0-0.3,0-0.6,0.1-0.9v-0.1C354.5,262.5,354.5,262.5,354.5,262.4z M201,256.6c2.3,0.2,3.3,2.4,2.9,6.7
	c-1.1,4.9-1.2,10-0.4,15.2c0.8,5.4,1.3,10.1,1.6,14.4c0,0.3,0.1,0.6,0.1,0.8c0.1,1.7,0.3,3.2,0.3,4.4c0.1,0.3,0.1,0.6,0.2,0.9
	c0.2,1,0.3,4.3,0.4,9.9c0.1,4.4-1,7.9-3.4,10.3c-0.6,0.6-1.2,1.2-2,1.7c-1.2,0.8-2.5,1.6-3.8,2.4c-2.5,1.5-5.2,2.8-7.9,4.1
	c-4.2,1.8-7,3-8.4,3.6c-1.1-2-2.7-3.6-4.8-4.6c0.5-0.6,3-2,7.7-4.2c2.9-1.5,5.6-2.8,8.1-3.8c1.1-0.5,2.1-0.9,3.1-1.2
	c0.4-0.1,0.7-0.3,1-0.4v-0.1c-0.5-2.8-0.9-6.3-1.1-10.4c-0.2-4.8-0.4-8.4-0.5-10.8c0-0.2,0-0.4-0.1-0.6c-0.6-7.5-2-13.5-4.3-18.2
	c-0.2-0.5-0.5-1-0.8-1.4c-0.1-1.9-0.1-3.8,0.3-5.5c0.6-2.6,1.9-4.9,3.8-7c1.1-1.3,2.5-2.5,4.1-3.7
	C198.4,257.8,199.8,257.1,201,256.6z M221.3,433.7h0.1l13.1-5.8l174.2-30.7c0,0,0,0.1,0,0.1c0.1,0.8,0.2,1.5,0.3,2
	c0,0.1,0,0.2-0.1,0.3c-0.1,0.9-0.3,2.4-0.5,4.4c-0.1,0.4-0.1,0.8-0.1,1.1l-186.9,33v3.1l186.8-32.9c0,0.3,0,0.6,0.1,0.8
	c0.3,4,1.9,6.1,4.6,6.4c0.8,0.1,1.6,0.2,2.5,0.3L271.8,441v0.1l-50.5,8.8V433.7z M221.3,430v-21.8L355,384.6c-1.4,0-2.9,0-4.4,0
	c-9.2,0-17-0.5-23.5-1.7c-6.5-1.1-9.8-2.5-9.8-4.2c0-1.6,3.3-2.9,9.8-4.1c2.4-0.4,5-0.8,7.9-1c1.4,1.3,2.9,2.4,4.7,3.5
	c5.7,3.2,11.5,4,17.4,2.4c1.5-0.6,2.6-1,3.3-1.2c1.4-0.5,2.5-0.7,3.5-0.5c4.4,0.3,8.6-0.5,12.7-2.4c0.1,0,0.2-0.1,0.3-0.1
	c4.6,1,6.9,2.2,6.9,3.6c0,0.3-0.1,0.5-0.3,0.8l16-2.8c0.3,0.5,0.5,1,0.8,1.6c1.2,2.5,2.4,4.8,3.4,6.9l-182.3,32.1v3.1L405,388.1
	c1.1,2.2,2,4.3,2.7,6.1L221.4,427L221.3,430L221.3,430z M423.6,391.4l-3,0.5c-0.6-1.3-1.3-3.3-2.1-6c0,0,0-0.1-0.1-0.1l2.9-0.5
	c0.1,0.2,0.2,0.4,0.2,0.6C422.2,387.5,422.9,389.3,423.6,391.4z M424.4,394.3c0,0.4,0.1,0.8,0.1,1.2c0,0.9,0,2,0.1,3.3
	c-0.9-1-1.7-2.1-2.3-3.1c-0.2-0.3-0.3-0.6-0.5-0.9L424.4,394.3z M420.1,382.3l-2.5,0.5c-0.8-2.7-1.6-5.6-2.3-8.8l1.2-0.2
	C417.9,377.1,419.1,379.9,420.1,382.3z M418.3,310.3l-39.7,7c-0.8,0.1-1.5,0.4-2,0.9l-21,16.4l-1.6,0.3c-0.8,0.1-0.9,0-0.3-0.5
	l3.9-3.1l4.2-3.2l6.2-4.9l0.6-0.5l7.5-5.8c0.2-0.1,0.3-0.2,0.5-0.3c0.2-0.1,0.3-0.2,0.5-0.2c0.3-0.1,0.6-0.2,0.9-0.3
	c0.1,0.2,0.4,0.2,0.8,0.2l41.1-7.3c0,0,0.1,0,0.1,0c0,0.1-0.1,0.2-0.3,0.3L418.3,310.3z M407.6,290.4c1.5,0,2.6,0.5,3.4,1.5
	c0.8,1,0.9,2.2,0.5,3.6c-0.4,1.4-1.3,2.6-2.6,3.6c-1.3,1-2.7,1.6-4.2,1.6c-1.5,0-2.6-0.5-3.3-1.6c-0.8-1-1-2.2-0.6-3.6
	c0.4-1.4,1.3-2.6,2.7-3.6C404.7,290.9,406.1,290.4,407.6,290.4z M339.4,52.8c-0.3,0-0.7,0.1-1,0.1c-0.2,0-0.3,0-0.5,0.1
	c-0.3,0-0.6,0-0.9,0.1c-1.7,0.1-3.4,0.1-5.1,0c-0.1-0.9-0.2-1.9-0.3-3L331,39.8c0-0.5,0-1,0-1.4c1.5,0.3,3,0.6,4.5,0.9
	c0.1,0,0.2,0,0.3,0.1c0.6,0,1.2,0,1.8,0L339.4,52.8z M234,157.7c-1.1,1.2-2.4,2.1-4,2.7c-1.9-0.4-3.9-1.4-6.2-2.9
	c-2.6-1.9-4.5-3.3-5.7-4.1c0.2,0,0.3,0,0.5-0.1c0.1,0,0.1,0,0.2,0c0.1,0,0.1,0,0.2,0c2.4-0.3,4.6-1.2,6.6-2.6
	c0.1-0.1,0.2-0.2,0.3-0.3c0.2,0.1,0.3,0.2,0.5,0.3c2.6,1.9,5.1,4.2,7.5,6.7C233.8,157.5,233.9,157.6,234,157.7z M433.1,383.1
	l32.9-5.8v-3.1l-33.4,5.9c-0.5-3.1-1-6.1-1.5-9l35-6.2v41.8l-13.4,2.4c-1.2-0.9-2.6-1.9-4.3-3.1c-2.6-1.7-4.5-3-5.9-3.9L466,398
	v-3.1l-26.7,4.7c-1.5-1.6-2.5-3.1-3.2-4.5c0,0,0-0.1-0.1-0.1c-0.4-0.9-0.7-1.7-1-2.6L466,387v-3.1l-31.7,5.6
	c-0.2-1.2-0.5-2.4-0.7-3.6C433.5,384.9,433.3,384,433.1,383.1z M377.9,315.4L377.9,315.4c-0.5,0.1-0.8,0-0.8-0.3c0,0,0-0.1,0-0.2
	c0-0.2,0-0.3,0.1-0.6l0.8-1.9l12-29.9c0.3-0.8,0.9-1.3,1.7-1.4l13-2.3l28.1-5c0.6-0.1,0.9,0.1,0.8,0.6l-41,7.3
	c-0.8,0.1-1.3,0.6-1.7,1.5l-12.9,32c0,0,0,0.1,0,0.1C378,315.3,378,315.4,377.9,315.4L377.9,315.4z"/>
<path id="Fill-6" class="st3" d="M137.4,339.6c0.3-0.7,0.6-1.3,0.9-1.7l1.1,0.2C138.7,338.7,138,339.2,137.4,339.6z M93.5,330.3
	c0.7,1.7,1.9,3.1,3.6,4.2c1.8,1.1,3.6,1.6,5.4,1.4c1.8-0.1,3.1-0.9,4-2.2c0.8-1.4,0.9-2.9,0.2-4.6c-0.6-1.7-1.8-3.1-3.6-4.2
	c-1.8-1.1-3.5-1.6-5.4-1.4c-1.8,0.2-3.2,0.9-4,2.3C92.9,327.1,92.8,328.6,93.5,330.3z M223.8,389.5c0.5,0.9,1.3,1.6,2.3,1.9l7.1,1.2
	c0.9,0.2,1.9,0.1,3.1-0.1l1.6-0.3c0.5,0.8,1.2,1.4,2.2,1.7l7.1,1.2c0.9,0.2,1.9,0.1,3.1-0.1l21.9-3.9c3-0.5,5-1.9,6-4.2
	c2.3,0.5,4.3,1,6,1.4c4,1.1,5.3,1.9,3.6,2.1l-35.6,6.3c-1.6,0.3-5.6,0.1-12-0.6c-6.4-0.7-13.3-1.7-20.6-2.9c-7.3-1.3-13-2.5-17-3.6
	c-4.1-1.1-5.3-1.9-3.6-2.1l10.5-1.8c0.5,1.6,1.4,2.5,2.8,3l7.1,1.2c0.9,0.2,1.9,0.1,3.1-0.1L223.8,389.5z M405,388.1l-183.7,32.4
	v-3.1l182.3-32.1c0.1,0.2,0.2,0.4,0.3,0.6C404.4,386.6,404.7,387.4,405,388.1z M358.5,267.4c0.5,0.5,0.8,1.4,0.8,2.6
	c-0.2-0.6-0.4-1.3-0.6-2C358.7,267.8,358.6,267.6,358.5,267.4z M359.2,271.1c-0.4,3-0.8,5.4-1.3,7.2c-0.4-1.7-0.6-2.5-0.6-2.5
	l-0.9-4.8c0.1-0.1,0.1-0.3,0.2-0.4c0.2-0.5,0.4-0.9,0.6-1.3C358.1,270.2,358.8,270.8,359.2,271.1z M354.5,281.2
	c-0.7-0.8-1.6-1.8-2.7-3.1c-0.9-1.1-2-2.4-3.2-3.8c0.4-0.6,1.3-1.8,2.6-3.6c0.1-0.1,0.2-0.2,0.3-0.4c0.1-0.1,0.2-0.2,0.2-0.3
	c0.1-0.1,0.2-0.3,0.3-0.4c0,0.1,0.1,0.2,0.1,0.2c0.1,0.2,0.3,0.5,0.4,0.7c0.4,0.7,0.8,1.2,1.2,1.6c0,0.1,0,0.1,0,0.2
	c0,0.4,0,0.8,0,1.2c0.1,1.6,0.2,3.5,0.5,5.9c0,0.2,0.1,0.4,0.1,0.6C354.4,280.4,354.4,280.8,354.5,281.2z M276.4,83.6
	c0.2,1.2,0.4,2.4,0.6,3.8c1.1,7.5,1.9,14.4,2.7,20.7c0.7,6.3,1.1,13.5,1,21.7c0,6.8-0.1,11.8-0.1,15c0,0.7,0,1.3,0,1.8
	c0,1.4,0.1,2.6,0.2,3.6c0,0,0,0.1,0,0.1c-0.1,0.4-0.1,0.8-0.2,1.2c0-0.5-0.1-0.9-0.1-1.3c-0.2-1.9-0.3-3.7-0.5-5.5
	c-1.4-15.1-2.6-27.6-3.5-37.5c-0.8-9.2-5-19.7-12.5-31.5c0.1,0.1,0.2,0.2,0.3,0.3c5.2,5.1,9.3,7.9,12.4,8.5
	C276.4,84.2,276.4,83.9,276.4,83.6z M284.5,96.3c-0.7-3.9-1.6-7.5-2.7-10.8c-0.5-1.5-1.1-2.9-1.6-4.2c0.4-0.8,0.8-2,1.2-3.4
	c0.1,0.4,0.2,0.8,0.4,1.2C283.2,84.9,284.1,90.6,284.5,96.3z M144.5,335c-0.1,0.1-0.2,0.1-0.2,0.2l-1,0.5l-0.1,0.1l-2.7,0.3
	c1.1-1.3,1.8-2.8,2-4.4c0.1-1.6-0.1-3.1-0.6-4.6c-0.7-1.5-1.7-2.6-2.9-3.3c-1.5-0.9-3.1-1.2-4.9-1c0.8-0.8,2.6-2.8,5.7-5.8
	c2.4-2.3,4.4-4.1,6-5.4c0-2.3-0.1-5.6-0.2-9.9c-0.2-4.5-0.3-7.7-0.3-9.6c2.2,7.1,3.2,14.4,3.2,21.8c0,2.8-0.2,5.5-0.5,8.2
	C147.3,326.5,146.1,330.8,144.5,335z M207.3,332.6c-2.3,1.2-4.9,2-7.9,2.4c-0.1,0.1-0.2,0.1-0.4,0.2c-3.4,1.4-6.1,2.5-8.3,3.1
	c-2.5,0.9-5.1,1.7-7.8,2.5c-0.7,0.2-1.5,0.5-2.3,0.7c0.1-0.4,0.2-0.7,0.3-1.1c0.9-3.1,0.9-5.8,0.1-8.1c-0.2-0.5-0.4-0.9-0.6-1.4
	c1.4-0.6,4.2-1.8,8.4-3.6c2.8-1.2,5.4-2.6,7.9-4.1c1.3-0.8,2.6-1.5,3.8-2.4c0.7-0.5,1.4-1,2-1.7c2.4-2.5,3.5-5.9,3.4-10.3
	c-0.1-5.5-0.2-8.8-0.4-9.9c0-0.3-0.1-0.6-0.2-0.9c-0.1-1.2-0.2-2.7-0.3-4.4c0-0.3-0.1-0.5-0.1-0.8c-0.2-4.2-0.7-9-1.6-14.4
	c-0.8-5.3-0.6-10.3,0.4-15.2c0.4-4.3-0.6-6.5-2.9-6.7c4.4-1.5,8.2,0.1,11.5,4.9c1.3,3,2,6.6,2.1,11c0,2.5-0.1,6.2-0.2,11.2
	c0.8,5,1.2,11.1,1.2,18.4c0.1,4.1,0.1,10.2,0,18.4c-0.1,4.1-1.8,7.4-5.3,10.1C209.4,331.4,208.4,332,207.3,332.6z M157,267.3l-1.7-6
	c0.2,0.5,0.5,0.4,1-0.5c0.5-0.8,0.8-1.6,1.1-2.5c0.2,0,0.3,0.1,0.5,0.3c0,0.5-0.1,0.9-0.1,1.3c0,0.1,0,0.2-0.1,0.3
	c0.1,0,0.1,0,0,0.1c0.1,0.7,0.1,1.5,0,2.4c0,0.8-0.1,1.5-0.3,2.4c0,0.1,0,0.3,0,0.5C157.3,266.2,157.2,266.7,157,267.3z
	 M161.5,263.3c0.2-0.4,0.4-0.7,0.8-1c1.3-1.5,1.7-3.3,1.1-5.4c1,2.3,1.9,4.6,2.9,6.8l-6.5,4.4c0.1-0.5,0.2-1,0.3-1.5
	C160.3,265.4,160.8,264.3,161.5,263.3z M151.8,249.3c-6.5,3.7-9.9,11.3-10.2,22.9c-0.1,2.5,0,5.1,0.2,7.9c-0.6-1.4-1-2.4-1.3-3.3
	c-0.2-0.9-0.6-2.4-1.2-4.8c-0.1-0.7-0.2-1.4-0.3-2c-0.2-1.4-0.3-2.5-0.3-3.1c0.2-1.7,0.4-3.3,0.8-5c0.4-1.6,1.1-3,2-4.4
	c0.8-1.3,1.8-2.5,3.1-3.6c1-1,2-1.8,3.2-2.4C149.1,250.7,150.5,249.9,151.8,249.3z M408.2,408.2l-186.8,32.9V438l186.9-33
	C408.2,406.2,408.1,407.3,408.2,408.2z M408.3,395.3c0.1,0.4,0.2,1,0.5,1.8l-174.2,30.7l0.8-0.4l-13.9,2.5V427l186.4-32.9
	C407.9,394.5,408.1,394.9,408.3,395.3z M442.4,402.2c-0.6-0.4-1.1-0.7-1.5-0.9c-0.6-0.6-1.1-1.1-1.6-1.6l26.7-4.7v3.1L442.4,402.2z
	 M432.6,380.1l33.4-5.9v3.1l-32.9,5.8C432.9,382.1,432.8,381.1,432.6,380.1z M435.1,392.5c-0.3-1-0.6-2-0.8-2.9v0l31.7-5.6v3.1
	L435.1,392.5z M423.6,391.4c0.2,0.5,0.4,1,0.6,1.5c0.1,0.5,0.2,1,0.2,1.4l-2.7,0.5c-0.1-0.2-0.1-0.3-0.2-0.5
	c-0.3-0.7-0.5-1.4-0.7-2.1c-0.1-0.1-0.1-0.2-0.2-0.3L423.6,391.4z M418.4,385.7c-0.2-0.8-0.5-1.7-0.8-2.7c0-0.1-0.1-0.2-0.1-0.3
	l2.5-0.5c0,0,0,0.1,0,0.1c0.4,0.8,0.7,1.8,1.2,2.8L418.4,385.7z M407.6,290.4c-1.5,0-2.9,0.5-4.2,1.5c-1.4,1-2.3,2.2-2.7,3.6
	c-0.4,1.4-0.2,2.6,0.6,3.6c0.8,1,1.9,1.6,3.3,1.6c1.5,0,2.9-0.5,4.2-1.6c1.3-1,2.2-2.2,2.6-3.6c0.4-1.4,0.3-2.6-0.5-3.6
	C410.2,290.9,409.1,290.4,407.6,290.4z M363.3,312.9c-0.2-1.8,0.1-4,1-6.5c0-0.1,0.1-0.1,0.1-0.2c1-2.6,2.9-5.4,5.7-8.3
	c0.3,1.5,0.6,3.3,1.2,5.4c0.3,1.2,0.8,2.9,1.4,5.3C369.5,309.2,366.3,310.6,363.3,312.9z M367.1,282.9c-1.1-1.9-2.5-5.6-4.3-11.3
	c-1.2-3.6-2.4-6.6-3.8-8.8c-0.5-0.8-1-1.5-1.5-2.1c0.8,0.1,1.6,0.4,2.3,0.7c3.1,1.3,5.1,4,6.2,8.2c0.5,1.8,0.8,4.1,0.9,6.8
	C367,278,367.1,280.2,367.1,282.9z M137.7,352.9l0.5,0.9l0,0.1c0.5,1,0.3,1.4-0.7,1.2l-50.9-9.9h-0.1c-0.7-0.1-1.3-0.5-1.8-1.2
	c-0.1-0.2-0.3-0.4-0.4-0.6l-7.8-15.4l-11.5-22.7c-0.5-1-0.3-1.4,0.7-1.2l1.9,0.4l49,9.5c1,0.2,1.7,0.8,2.2,1.8L137.7,352.9z
	 M221.3,441v8.9l-195-34.5v-41.8h0.1l43.8,7.8l15.6,2.8c3.6,1.5,7,2.6,10,3.2c4,0.9,7.7,1.1,11.1,0.8l1.3,0l24.6,4.4l88.6,15.7v9.1
	L26.4,382.9v3.2l194.9,34.4v6.5L26.4,392.5v3.2l166.8,29.4l28.1,8.6v4.2L26.4,403.5v3.2l43.7,7.7l2.6,5l14.5-2L221.3,441z
	 M377.9,316.1c0-0.1,0-0.1-0.1-0.2c0-0.1,0-0.3,0.1-0.4c0,0,0-0.1,0.1-0.1c0,0,0-0.1,0-0.1l12.9-32c0.3-0.9,0.9-1.4,1.7-1.5l41-7.3
	l0.1,0c0.8-0.1,1,0.2,0.7,1.1l-9.4,23.2l-3.6,8.8c-0.3,0.8-0.8,1.3-1.6,1.4c0,0-0.1,0-0.1,0l-41.1,7.3
	C378.3,316.3,378.1,316.2,377.9,316.1L377.9,316.1z"/>
<path id="Fill-7" class="st4" d="M93.5,330.3c-0.6-1.7-0.6-3.2,0.3-4.6c0.9-1.3,2.2-2.1,4-2.3c1.8-0.1,3.6,0.3,5.4,1.4
	c1.8,1.1,2.9,2.5,3.6,4.2c0.7,1.7,0.6,3.3-0.2,4.6c-0.8,1.3-2.1,2.1-4,2.2c-1.8,0.2-3.6-0.3-5.4-1.4C95.4,333.5,94.2,332,93.5,330.3
	z M281.2,335.7l-0.7,0.5l-1.3,0.6L281.2,335.7z M399.5,376.7l-16,2.8c0.2-0.3,0.3-0.5,0.3-0.8c0-1.4-2.3-2.5-6.9-3.6
	c4-1.9,7.2-4.6,9.6-8.1c0.8-0.7,1.7-1.7,2.7-2.9c1.1-1.4,1.9-2.5,2.5-3.2C392.5,362.5,395.1,367.7,399.5,376.7z M57.2,230.2l-39.7,7
	v-3.4l39.7-7V230.2z M57.2,235.7l-27.4,4.9v-3.4l27.4-4.8V235.7z M314.4,318.1c-0.2,0.1-0.5,0.2-0.7,0.3c-1.7,0.8-3.3,2.1-5,3.9
	c-0.2,0.2-0.4,0.5-0.6,0.7c0.9-4.9,1.8-10.4,2.6-16.6c0.4-3.1,1-8.7,1.9-16.6c0-6.8,0.3-11.5,1-14.1c1.3-5.4,4.2-8.7,8.6-10.1
	c1,0.2,2,0.5,2.9,1c1.7,0.8,3.2,2.1,4.6,3.7c0.9,1,1.6,2.1,2.1,3.2c-2.3,1.3-4.5,3-6.8,5.1c-2.1,2-3.4,3.5-4,4.6
	c-1,2.1-1.8,5-2.3,8.7c-0.6,4.6-1.1,7.3-1.3,8.3c-0.8,2.7-1.9,8-3.3,15.8c-0.1,0.8-0.3,1.5-0.4,2.3
	C314,318.3,314.2,318.2,314.4,318.1z M353.4,265.9c0.2,0.5,0.5,1,0.8,1.6c-0.3,0.2-0.5,0.4-0.8,0.6c-0.4,0.4-0.9,0.9-1.3,1.4
	c0,0-0.1,0.1-0.1,0.1c-0.1,0.1-0.2,0.3-0.3,0.4c-0.1,0.1-0.2,0.2-0.2,0.3c-0.1,0.1-0.2,0.3-0.3,0.4c-1.3,1.8-2.2,3-2.6,3.6
	c-0.2,0.2-0.3,0.4-0.3,0.4c-1.1-0.9-2.5-2.2-4.2-3.9c-2.1-2.1-3.5-3.4-4.2-4c-3.3-3.1-6.6-5-9.8-5.7c-1.7-0.9-1.5-2.6,0.5-5.1
	c0.5-0.6,1-1.1,1.5-1.6c1.4-1.4,2.8-2.2,4.2-2.4c-0.2,0.6-0.3,1.3-0.3,1.8c0.1,1.5,0.9,2.8,2.5,3.9c0.4,0.3,1.4,0.9,3.1,1.8
	c1.3,0.8,2.3,1.4,2.8,1.9c2.9,2.3,5,3.8,6.3,4.4c0.5,0.2,0.9,0.4,1.3,0.5C352.6,266.2,353.1,266.1,353.4,265.9z M243.7,335.3
	l17.3-3.1l0.2-0.1c0,0,0,0.1,0,0.1l2,1.3c-0.1,1.5-0.5,3.7-1.1,6.7c-0.1,0.4-0.2,0.7-0.2,1.1c-0.2,1.1-0.5,2.3-0.8,3.5
	c-0.7,2.9-1.1,5.5-1.3,7.6l-5-0.9h-0.2c-0.9-0.2-1.9-0.2-3,0.1l-1.3,0.2c-0.5-0.9-1.3-1.5-2.3-1.8c-0.4-0.1-0.8-0.2-1.2-0.2
	l-4.1-0.8c-0.3-0.7-0.5-1.4-0.8-2.1c-0.1-0.2-0.1-0.4-0.2-0.6l-0.7-2.3l0.1-1l2.6-0.8V335.3z M341.8,136.6l-27.4-4.8v-3.4l27.4,4.8
	V136.6z M341.8,142.1l-27.4-4.8v-3.4l27.4,4.8V142.1z M163.5,331.4c-0.1,0.1-0.2,0.1-0.4,0.2c2.3-1.5,4.3-2.6,6.1-3.3
	c2.2-1.1,4.4-1.8,6.5-1.9c2.1,1,3.8,2.5,4.8,4.6c0.2,0.5,0.4,0.9,0.6,1.4c0.8,2.3,0.8,5-0.1,8.1c-0.1,0.4-0.2,0.7-0.3,1.1
	c-3.5,0.9-6.9,1.3-10.1,1.3c-0.5,0-1,0-1.6,0c0.1-0.2,0.3-0.5,0.4-0.8c0-0.1,0.1-0.1,0.1-0.2c0.4-0.8,0.6-1.5,0.8-2.2
	c0.1-0.5,0.2-1,0.2-1.5c0-1.4-0.2-2.8-0.8-4C168.3,331.4,166.3,330.5,163.5,331.4z M108.2,388.1l4.6,0.1c1.1-0.1,2.5-0.1,4.2-0.1
	c1.9,0.1,3.2,0.1,3.8,0.1c0,0,0.1,0.1,0.1,0.1c2.6,0.6,5,0.4,7.1-0.6c7.8,1.3,17.1,2,28,2c8.5,0,16-0.3,22.6-1.1
	c0.7,0.2,1.3,0.3,1.7,0.4c1.9,0.4,3.3,0,4.2-1.2h0c7.9-1.4,11.8-3.1,11.8-5c0-1.2-1.6-2.4-4.7-3.4c1.1-1.3,2.2-2.8,3.1-4.6
	c1.5-2.9,2.8-6.9,3.6-11.9c0-0.1,0-0.2,0.1-0.3c0.1,0.1,0.2,0.1,0.3,0.2c3.3-2.5,4.5-6.8,3.5-12.9c-0.5-2-1.1-4.4-1.6-7l10.3-1.8
	l12.1-2.1l2.8,2.3c-0.5,2-0.9,4.5-1.1,7.5c0,0.7-0.1,1.5-0.1,2.5l-8.9,1.6c-4.4,0.8-6.6,3.4-6.6,7.9v5.6c-6.4,1.3-9.5,2.7-9.5,4.4
	c0,1.8,3.2,3.3,9.5,4.6v7.7c0,1,0.1,1.9,0.3,2.7l-10.5,1.8c-1.6,0.3-0.4,1,3.6,2.1c4.1,1.1,9.8,2.4,17,3.6
	c7.3,1.3,14.2,2.3,20.6,2.9c6.4,0.7,10.4,0.9,12,0.6l35.6-6.3c1.6-0.3,0.4-1-3.6-2.1c-1.7-0.5-3.7-0.9-6-1.4
	c0.5-1.1,0.7-2.3,0.7-3.8v-10.5c0.9-0.6,1.3-1.2,1.3-1.8c0-0.4-0.2-0.8-0.5-1.2c2.7,0.1,5.5,0.1,8.4,0.1c11.1,0,20.6-0.6,28.5-2
	c7.9-1.4,11.8-3.1,11.8-5c0-2-3.9-3.6-11.8-5c-1.9-0.3-3.9-0.6-6-0.9l-0.3-0.6c-0.5-0.3-1.2-0.6-1.9-0.8c-3-0.9-5.9-2.1-8.5-3.6
	c-6-3.6-11.5-8.1-16.3-13.3l-2.3-2.6c-0.1-0.1-0.1-0.2-0.2-0.2l1.5-1.1v-2.3l46.6,8.3c-1.8,5.8-1.9,13.4-0.2,22.6
	c0.9,4.1,2.8,7.5,5.9,10.3c-2.8,0.3-5.4,0.6-7.9,1c-6.5,1.2-9.8,2.6-9.8,4.1c0,1.6,3.3,3,9.8,4.2c6.5,1.1,14.3,1.7,23.5,1.7
	c1.5,0,3,0,4.4,0l-133.7,23.6l-88.6-15.7L108.2,388.1z M158.3,255.9c-0.2,0.9-0.5,1.7-0.9,2.4c-0.2,0.9-0.6,1.8-1.1,2.5
	c-0.5,0.9-0.8,1-1,0.5v-0.2c-0.1-0.4-0.1-1.2-0.1-2.4c0.1-2.9,0.2-5.1,0.2-6.6c0.1-1.6,0.2-2.8,0.5-3.6l0.1,0.1c0,0,0.1,0,0.1,0.1
	l0.4,0.4c0.1,0.1,0.1,0.2,0.2,0.3c0.1,0.1,0.2,0.2,0.3,0.3c0.1,0.2,0.2,0.3,0.3,0.5c0.4,0.4,0.9,0.9,1.4,1.6v3
	c-0.1,0.1-0.1,0.3-0.2,0.5L158.3,255.9z M120.6,171.2v3.4l-27.4,4.8V176L120.6,171.2z M120.6,165.7v3.4L93.2,174v-3.4L120.6,165.7z
	 M132.8,158.1v3.4l-39.7,7v-3.4L132.8,158.1z M187.5,241.1c-0.8,2.5-2.2,4.6-4.2,6.4c-2.1,1.8-4.1,3.6-5.9,5.5
	c-1.9,1.8-5.6,5.3-11.1,10.6c-1-2.2-2-4.5-2.9-6.8l-0.5-1.2c-0.6-1.8-0.3-3.2,0.8-4.1l1.6-0.5c2.1-0.6,4.6-2,7.4-4.2
	c3.6-2.9,5.9-4.8,7-5.8c1.1-0.9,1.9-1.8,2.3-2.7c0.5-0.9,0.6-2,0.1-3.3c1.6-0.3,2.9,0.3,3.8,1.8
	C186.3,237.8,186.8,239.2,187.5,241.1z M235.4,149.6c1.3,2.1,1.2,4.2-0.2,6.4c-0.4,0.6-0.8,1.2-1.2,1.7c-0.1-0.1-0.2-0.2-0.3-0.3
	c-2.4-2.5-4.8-4.8-7.5-6.7c-0.2-0.1-0.3-0.2-0.5-0.3c0.1-0.1,0.3-0.2,0.4-0.3c2.8-2.3,3.9-4.8,3.3-7.7c0.7,0.8,1.7,2,2.9,3.6
	C233.7,147.6,234.7,148.8,235.4,149.6z M165.3,130.1v3.4l-27.4,4.8v-3.4L165.3,130.1z M165.3,124.6v3.4l-27.4,4.8v-3.4L165.3,124.6z
	 M415.3,374c-0.5-2.1-1-4.3-1.5-6.6c1,2.3,1.9,4.4,2.7,6.4L415.3,374z M429.6,214.4v-3.4l39.7,7v3.4L429.6,214.4z M429.6,225.3v-3.4
	l27.4,4.8v3.4L429.6,225.3z M429.6,219.8v-3.4l27.4,4.8v3.4L429.6,219.8z M452.4,154.4V151l27.4,4.8v3.4L452.4,154.4z M452.4,149
	v-3.4l39.7,7v3.4L452.4,149z M452.4,159.9v-3.4l27.4,4.8v3.4L452.4,159.9z M331.8,53c-0.6,0-1.2-0.1-1.7-0.1
	c-1.9-0.1-3.9-0.4-5.8-0.6c-0.1-0.1-0.1-0.1-0.2-0.2l0.3-15.5c2.1,0.7,4.3,1.3,6.5,1.8c0,0.4,0,0.9,0,1.4l0.6,10.2
	C331.6,51.1,331.7,52.1,331.8,53z M271.7,53.7l0-0.1l0.2-1c1.7,1.2,3.6,3.1,5.6,5.7c0.9,2.3,1.6,4.1,2,5.4c0.2,0.6,0.3,1,0.4,1.4
	c0.1,0.6,0.2,1.2,0.3,1.8c0.2,1.8,0,3.4-0.7,4.9c-0.1,0.1-0.1,0.2-0.2,0.3c-0.5-1-1.3-2.4-2.3-4.4l-0.4-1.1
	c-0.1-0.2-0.2-0.5-0.3-0.8c0,0,0-0.1,0-0.1c0-0.3,0-0.6,0-1c0-0.2,0.1-0.5,0.2-0.7c0.4-1.6,0.6-2.5,0.6-2.6
	C276.6,58.5,274.8,56,271.7,53.7z M248.6,53.2L248.6,53.2c-0.8-0.2-1.3-0.1-1.4,0.1v0.1c-0.1,0-0.1,0-0.1,0.1c0,0.1,0,0.2,0.1,0.4
	c0.3,0.8,0.9,1,1.9,0.8c2.4,1.2,4.8,2.2,7.2,2.9c1.7,0.9,4.1,2.2,7.3,4.1c2.9,1.6,5.5,2.7,7.7,3.3c0.2,0,0.4,0.1,0.6,0.1
	c0.7,0.2,1,0.8,0.9,1.7c0,0.6-0.2,1.6-0.5,2.8l-0.3,0.9c-0.4,1.3-0.8,2.2-1.1,2.6c-0.6,0.7-1.3,0.7-2.3-0.1
	c-4.9-2.7-8.7-4.8-11.4-6.3c-0.3-0.2-0.5-0.4-0.7-0.6c-0.2-0.2-1.5-1.4-3.9-3.6c-2.4-2.2-5.1-3.6-8.1-4.3c0.3-2.4,0.5-3.7,0.6-4
	c0.5-1.4,1.5-2.1,3-1.9L248.6,53.2z M36.9,241.3l20.3-3.6v3.4L29.8,246v-3.4L36.9,241.3z M137.7,352.9l-18.8-37.1
	c-0.5-1-1.2-1.6-2.2-1.8l-49-9.5l-0.3-0.7c-0.5-1-0.3-1.4,0.7-1.2l17.4,3.4l33.5,6.5c1,0.2,1.7,0.8,2.2,1.8L127,326
	c0.4-0.3,0.9-0.7,1.4-1c1.8-1.1,3.6-1.9,5.6-2.3c1.8-0.2,3.4,0.1,4.9,1c1.3,0.8,2.2,1.9,2.9,3.3c0.6,1.5,0.8,3,0.6,4.6
	c-0.2,1.6-0.9,3.1-2,4.4l-1.3,0.6c-1.3-3.4-3.3-5.8-6-7.3c-0.7-0.4-1.3-0.7-2-0.9c-1-0.4-2.1-0.5-3.1-0.5l7.1,14.1l0.7,1.4l0.2,0.3
	l1.1,2.1l0.3,0.7l0.1,0.2l0.5,0.9l0.1,0.3l0.5,1l0.2,0.3l0.1,0.1l0.4,0.9l0.4,0.8l0.1,0.2l0.1,0.3l0.1,0.1l0.2,0.4
	c0,0.1,0.1,0.1,0.1,0.2c0,0,0,0.1,0,0.1c0,0.1,0.1,0.1,0.1,0.2c0.1,0.2,0.1,0.4,0.1,0.5c0,0.2-0.2,0.3-0.6,0.3c-0.1,0-0.2,0-0.4-0.1
	L137.7,352.9z M81.9,380.9c0,0.1,0.1,0.2,0.2,0.3c0.6,1.3,1.6,2.2,3,2.6c0.2,0.1,0.5,0.2,0.7,0.3l-15.6-2.8l-43.8-7.8l26.3-4.6
	l21.7-3.8c1.7,1.3,3.8,2.4,6.5,3.3c3.5,0.8,6.1,1.5,7.8,2.1c-2,1-3.5,1.9-4.3,2.6c-1.5,1.1-2.4,2.5-2.5,4.1
	C81.4,378.5,81.4,379.7,81.9,380.9z M26.4,411.2v4.2l195,34.5v-0.1l50.5-8.8V441l143.4-25.3c2.7,0.4,5.4,1,8.3,1.7
	c1.4,0.4,2.8,0.8,4.3,1.1l-206.2,36.3L0,415.8L26.4,411.2z M456.5,413.5c-0.2-0.8-0.8-1.6-1.8-2.5c-0.5-0.5-1.2-1.1-2.1-1.8
	l13.4-2.4v-1.8l19.6,3.4L456.5,413.5z M466,365l-35,6.2c-0.5-2.9-0.9-5.6-1.3-8.3c-0.2-1.5-0.4-3-0.6-4.4L466,365z M415.5,71.6V75
	L388,70.2v-3.4L415.5,71.6z M415.5,77v3.4L388,75.6v-3.4L415.5,77z M427.7,62.8v3.4l-39.7-7v-3.4L427.7,62.8z M415.5,66.2v3.4
	L388,64.7v-3.4L415.5,66.2L415.5,66.2z"/>
<path id="Fill-8" class="st5" d="M326.6,250.1c-1.2,1.4-2.7,2.5-4.6,3.4c-1.5,0.6-3.5,1.2-6.1,2c3.4-2.4,6.9-4.4,10.3-6.2
	C326.4,249.6,326.5,249.9,326.6,250.1z M282.7,332.4v-40.1c1.3-2.3,2.8-4.6,4.4-7.1c4.3-6.4,9.1-12.2,14.4-17.5
	c-0.5,2-0.4,4.1,0.2,6.4c1.1,4.1,1.6,7.6,1.4,10.4c-0.1,2.8-1.9,6.2-5.4,10.3c-3.4,4.1-5.5,10-6.3,17.5c0,3.3,0.7,6.5,2.3,9.4
	c2,4,4.9,6.9,8.7,8.8c7.5,3.8,15.3,5.2,23.6,4c2.3-0.2,4.5-0.6,6.5-1.3c0,0.3-0.1,0.7-0.1,1c-0.8,1.1-1.4,2.2-2,3.5
	c-0.4,0.9-0.8,1.8-1.1,2.8L282.7,332.4z M357.5,260.8c2.8-2.7,5.1-5.3,6.8-7.9c1.5-2.2,2.7-4.5,3.5-6.8c0-0.1,0.1-0.1,0.1-0.2
	c0.8,0.3,1.6,0.6,2.3,1c-3.7,3.9-7.1,8.7-10.5,14.6C359.1,261.2,358.4,260.9,357.5,260.8L357.5,260.8z"/>
<path id="Fill-9" class="st6" d="M221.3,437.9v3.2l-134-23.6l9.5-1.3l-28.4-5l1.8,3.3l-43.7-7.7v-3.2L221.3,437.9z M221.3,426.9v3.1
	l-28.6-5l0.4,0.2L26.4,395.7v-3.2L221.3,426.9z M221.3,417.2v3.2L26.4,386v-3.2L221.3,417.2L221.3,417.2z"/>
<path id="Fill-10" class="st7" d="M87.3,417.4l-14.5,2l-2.6-5l-1.8-3.3l28.4,5L87.3,417.4z M287.5,429.5l-4.4,8.3l-24-3.3
	L287.5,429.5z M234.5,427.8l-13.1,5.8h-0.1l-28.1-8.6l-0.4-0.2l28.6,5h0.1v-0.1l13.9-2.5L234.5,427.8L234.5,427.8z"/>
<path id="Fill-12" class="st8" d="M19.2,280.7c0.8,0.9,1.2,2,1.2,3.4c0,0.6-0.1,1.2-0.2,1.7c-0.3,0.9-0.7,1.8-1.4,2.6
	c-1.1,1.3-2.4,2-4,2.3c-1.6,0.3-2.9,0-4-0.9c-1.1-0.9-1.6-2.2-1.6-3.8s0.5-3,1.6-4.3s2.4-2.1,4-2.4c1.6-0.3,2.9,0,4,1
	C18.9,280.5,19.1,280.6,19.2,280.7z M303.5,124.4c1.6,0.3,2.9,1.1,4,2.4c1.1,1.3,1.6,2.7,1.6,4.3c0,1.6-0.5,2.8-1.6,3.8
	c-0.6,0.5-1.4,0.9-2.2,1c-0.5,0.1-1.1,0.1-1.8-0.1c-0.6-0.1-1.1-0.3-1.6-0.5c-0.9-0.4-1.7-1-2.4-1.8c-1.1-1.3-1.6-2.7-1.6-4.3
	c0-1.6,0.5-2.8,1.6-3.8S301.9,124.1,303.5,124.4z M374.6,57.3c1.6,0.3,2.9,1.1,4,2.4c1.1,1.3,1.6,2.7,1.6,4.3c0,1.6-0.5,2.8-1.6,3.8
	c-0.7,0.6-1.5,0.9-2.5,1c-0.5,0-1,0-1.5-0.1c-0.6-0.1-1.2-0.3-1.7-0.5c-0.8-0.4-1.6-1-2.3-1.8c-1.1-1.3-1.6-2.7-1.6-4.3
	s0.5-2.8,1.6-3.8S373,57,374.6,57.3z M85,252.3c0.6-0.1,1.1-0.1,1.6-0.1c0.9,0.1,1.7,0.5,2.4,1c1.1,0.9,1.6,2.2,1.6,3.8
	c0,1.6-0.5,3-1.6,4.3c-1.1,1.3-2.4,2-4,2.3c-1.6,0.3-2.9,0-4-0.9c-1.1-0.9-1.6-2.2-1.6-3.8s0.5-3,1.6-4.3c0.7-0.8,1.5-1.4,2.4-1.8
	C83.9,252.5,84.4,252.4,85,252.3z M138.3,173c0,1.6-0.5,3-1.6,4.3c-0.7,0.8-1.4,1.3-2.3,1.7c-0.5,0.3-1.1,0.5-1.7,0.6
	c-0.5,0.1-1,0.1-1.5,0.1c-0.9-0.1-1.8-0.4-2.5-1c-1.1-0.9-1.6-2.2-1.6-3.8s0.5-3,1.6-4.3c1.1-1.3,2.4-2.1,4-2.4c1.6-0.3,2.9,0,4,1
	C137.8,170.2,138.3,171.5,138.3,173z M177,122.5c1.6-0.3,2.9,0,4,1c1.1,0.9,1.6,2.2,1.6,3.8s-0.5,3-1.6,4.3
	c-0.7,0.8-1.4,1.4-2.3,1.8c-0.5,0.2-1.1,0.4-1.7,0.5c-0.5,0.1-1.1,0.1-1.6,0.1c-0.9-0.1-1.7-0.4-2.4-1c-1.1-0.9-1.6-2.2-1.6-3.8
	c0-1.6,0.5-3,1.6-4.3C174.1,123.6,175.4,122.8,177,122.5z M459.3,181.3c0-0.8,0.2-1.6,0.5-2.2c0.3-0.6,0.6-1.1,1.2-1.5
	c1.1-0.9,2.4-1.3,4-1c1.6,0.3,2.9,1.1,4,2.4s1.6,2.7,1.6,4.3s-0.5,2.8-1.6,3.8c-1.1,0.9-2.4,1.2-4,0.9c-1.6-0.3-2.9-1.1-4-2.3
	c-0.3-0.3-0.5-0.7-0.7-1C459.6,183.6,459.3,182.5,459.3,181.3z M437,155.8c-1.1-1.3-1.6-2.7-1.6-4.3c0-1.6,0.5-2.8,1.6-3.8
	c1.1-0.9,2.4-1.3,4-1c1.6,0.3,2.9,1.1,4,2.4c1.1,1.3,1.6,2.7,1.6,4.3s-0.5,2.8-1.6,3.8c-0.7,0.6-1.6,0.9-2.5,1c-0.5,0-0.9,0-1.4-0.1
	c-0.7-0.1-1.3-0.3-1.9-0.7C438.3,157.1,437.6,156.5,437,155.8L437,155.8z"/>
<path id="Fill-14" class="st9" d="M133.6,359.9c0,0.1,0,0.1-0.1,0.2c-1.2,3.7-3.1,7.2-5.5,10.4c-1.2,1.5-2.5,2.8-3.9,4
	c-7-2-13.9-3.9-20.8-5.6c-7.2-1.9-13.3-3.8-18.2-5.5c-6.9-2.5-11.6-4.9-14.1-7.2c0.5-3.1,2.1-5.5,4.8-7.2c0.7-0.5,2-1.2,3.8-2.3
	c1.7-1,3.5-1.8,5.1-2.4c0.5,0.6,1.1,1,1.8,1.2h0.1l0.1,0.1l0.7,1.2l0.8,0.8l0.6,0.3l0.5,0.4l11.7,2c0,0.2,0,0.3-0.1,0.4
	c0.3-0.1,0.7-0.2,1.1-0.2l16.1,2.7c1,0.4,2,0.9,3.2,1.4c1.2,0.5,2.4,1.1,3.8,1.8h0C128.9,358,131.7,359.2,133.6,359.9z M141.7,356.9
	c0.6,0,1.2-0.1,1.9-0.2l24.9-4.5c0,0.4,0.1,0.9,0.1,1.3c-6.7,5.3-11.6,12.2-14.6,20.6c-0.3,0.5-0.7,1-1.2,1.5
	c-0.8,0.9-1.8,1.7-2.9,2.5c-0.3,0.3-0.8,0.6-1.4,1c-0.9,0.6-2.1,1.2-3.5,1.9c-0.2,0.2-2.9,1.1-8.1,2.8c-3.4,1.1-6.2,2.3-8.4,3.6
	c-0.2,0.1-0.4,0.2-0.5,0.2c-2.2,1-4.6,1.2-7.1,0.6c0,0-0.1,0-0.1-0.1c-1.7-0.9-2.9-1.9-3.6-2.9c-0.3-0.4-0.6-0.8-0.9-1.2
	c0.1,0,0.2-0.1,0.2-0.1c3.3-1.3,6.5-3.3,9.6-6.1c3.3-3,6.6-6.9,9.8-11.7C138.4,362,140.3,358.9,141.7,356.9z M391.7,361
	c-0.6,0.7-1.4,1.8-2.5,3.2c-1,1.3-1.9,2.2-2.7,2.9c-2.5,1-5,1.3-7.5,0.9c-2.6-0.3-4.8-1.3-6.8-2.9c4.4-4.6,9.2-9.3,14.3-14.2
	c1-0.9,2-1.9,3-2.8c0.1,0.9,0.3,2,0.5,3.5c0.1,0.9,0.3,1.9,0.4,3.1C390.9,357.1,391.3,359.3,391.7,361z M332.5,320.4
	c-1.1-0.3-3.1-0.6-6-1c-0.5-0.1-0.9-0.1-1.3-0.2c-1.9-0.3-3.4-0.6-4.5-0.9c0.8-2.4,1.4-5.3,2-8.7c0.7-3.9,1.2-6.8,1.6-8.7
	c0.2,0.8,0.5,1.7,0.9,2.7c0.8,2,1.8,4.4,3.1,7.2c1.4,2.9,2.4,5.3,3.2,7.2C331.9,318.9,332.3,319.7,332.5,320.4z M356.5,271.1
	c-0.6,1.3-1,2-1.2,2c-0.3,0-0.7-0.2-1.1-0.5c-0.1-0.1-0.3-0.3-0.4-0.4c-0.4-0.4-0.8-0.9-1.2-1.6c-0.2-0.2-0.3-0.5-0.4-0.7
	c0-0.1-0.1-0.2-0.1-0.2c0,0,0.1-0.1,0.1-0.1c0.4-0.5,0.9-1,1.3-1.4c0.2-0.2,0.4-0.3,0.6-0.5c0.3-0.1,0.5-0.2,0.7-0.3
	c0.4,0.3,0.9,0.6,1.4,1.1c0.3,0.3,0.7,0.6,1.1,1c0,0,0,0,0.1,0v0c-0.2,0.4-0.4,0.8-0.6,1.3C356.6,270.8,356.6,270.9,356.5,271.1z
	 M308.1,323.1c0,0.7-0.1,1.3-0.1,1.9c0,1.1,0,2,0.1,2.7c0,0,0,0.1,0,0.1c0,0.2,0,0.3,0.1,0.5c0.5,2,1.6,3,3.4,3c1.6,0,5.1,0,10.7,0
	c1,0,1.9,0,2.8,0c3.2,0,5.8-0.1,7.9-0.2c-0.3,0.7-0.5,1.5-0.6,2.3c-2.1,0.7-4.2,1.1-6.5,1.3c-8.3,1.1-16.2-0.2-23.6-4
	c-3.8-1.9-6.6-4.8-8.7-8.8c-1.6-3-2.3-6.1-2.3-9.4c0.8-7.5,2.9-13.3,6.3-17.5c3.5-4.1,5.3-7.6,5.4-10.3c0.1-2.8-0.4-6.3-1.4-10.4
	c-0.6-2.3-0.6-4.4-0.2-6.4c0.4-1.7,1.2-3.4,2.4-5c2.5-3.4,5.7-5.6,9.6-6.6c0.9-0.2,1.8-0.5,2.6-0.7c2.6-0.7,4.7-1.4,6.1-2
	c1.9-0.9,3.4-2,4.6-3.4c0.2,0.4,0.5,0.8,0.7,1.2c0.1,0.3,0.3,0.5,0.5,0.8c1.2,1.4,2.6,2.1,4.2,2.2c-0.5,0.5-1,1-1.5,1.6
	c-2,2.5-2.2,4.2-0.5,5.1c-1.7,1-3.4,2-4.9,2.9c-0.1,0.1-0.2,0.1-0.3,0.2c-0.9,0.5-1.7,1-2.5,1.5c-4.4,1.4-7.3,4.7-8.6,10.1
	c-0.7,2.6-1,7.3-1,14.1c-0.9,7.9-1.5,13.5-1.9,16.6C309.9,312.7,309,318.2,308.1,323.1z M297.1,222.7c-1,7.1-2.8,13.8-5.4,19.9
	c0.3-0.8,0.6-1.6,0.9-2.4c0.3-1,0.5-2.1,0.8-3.2C295,231.2,296.2,226.4,297.1,222.7z M278.7,336.8c-2.6,0.2-5.2,0.1-7.7-0.5
	c-2.8-0.5-5.4-1.5-7.7-2.8l-2-1.3c0,0,0,0,0-0.1c0-0.2,0-0.4,0.1-0.6c0.6-9.5-0.2-19.3-2.4-29.4c-2-4-2.9-8.5-2.9-13.5
	c0-3.4,0.6-7.9,1.8-13.6c1.4-6.8,2.2-11.4,2.5-13.8c0.5-5.2,0.2-9.8-0.9-13.7c0.3-4.1,0.9-8.6,1.7-13.6c0.6-3.5,1.3-7.2,2.1-11.1
	c2.4-10.9,4.2-19,5.3-24.5c3.1-1.4,5.6-2.7,7.5-3.9c2.6-1.8,4.6-3.7,6.1-5.9c0.7-0.2,1.4-0.4,2.1-0.6c1.5-0.5,2.9-1.1,4.3-1.7
	c0.7-0.3,1.4-0.7,2.1-1.1c0,3.9,0.4,7.8,1.2,11.8c0.7,3.5,0.5,8.8-0.7,15.9c-0.2,1-0.3,2-0.5,3.1c-1.6,8.7-5.8,20.2-12.5,34.5
	c-1.8,7.2-2.7,17.1-2.7,29.6l2.4,42.5c0.2,3.2,0.5,6.2,0.7,9C278.4,333.4,278.5,335.2,278.7,336.8z M331.4,240.3
	c0,0.2-0.1,0.4-0.1,0.6c-0.1,0-0.2,0-0.3-0.1C331.1,240.6,331.3,240.4,331.4,240.3z M372.5,238.7l0,0.1c-0.7,2.5-2,4-3.8,4.4
	c0.6-1.1,0.3-2.2-0.8-3.1c-0.6-0.4-1.6-0.9-3.1-1.6c-1.6-0.2-3.5-1.1-5.5-2.8c-2.5-2.1-4.1-3.3-4.9-3.6c-0.3,0.8-0.6,1.6-1,2.3
	c-1.1,2.4-2.6,4.6-4.3,6.7c-0.1,0.1-0.2,0.2-0.3,0.3c-0.4,0.5-0.8,0.9-1.2,1.3c-2.2,2.3-4.6,4.2-7.2,5.6c-0.3-0.1-0.7-0.2-1-0.3
	c-0.9-0.2-1.8-0.5-2.7-0.7c-1.8-0.3-3.2-0.7-4.1-1.1h0c-0.1,0-0.2-0.1-0.2-0.1c-0.7-0.4-1.2-0.9-1.4-1.5c2.1-0.3,4.1-0.8,6-1.4
	c0.2-0.1,0.3-0.1,0.5-0.2c1.5-0.5,3-1,4.4-1.7c1.8-0.8,3.1-1.8,4.1-3.1c0.3-0.4,0.5-0.8,0.8-1.2c0.5-1,1-2.8,1.5-5.3
	c0.3-1.4,0.6-2.6,0.9-3.7c-0.7-1.7-1.4-3.8-2.2-6.3c-1.5-4.9-2.3-7.8-2.3-8.6c0.5-0.1,0.9-0.3,1.4-0.4h0c1.6,0.9,3.2,3,5,6.1
	c2.8,4.9,5,8.2,6.8,9.8c2.3,1.6,7,4.6,14.3,9.1c0.1,0.1,0.3,0.2,0.4,0.3C372.6,238.5,372.5,238.6,372.5,238.7z M158.8,253.8
	c1.4,1.5,2.8,2.2,4.1,1.9l0.5,1.2c0.6,2.1,0.2,3.9-1.1,5.4c-0.4,0.3-0.6,0.7-0.8,1c-0.4,0-0.8,0-1.2,0.1c-0.7,0.1-1.4-0.1-2.3-0.5
	c-0.1-0.1-0.2-0.1-0.3-0.2c0.1-0.9,0.1-1.7,0-2.4c0.1-0.1,0.1-0.1,0-0.1c0.1-0.1,0.1-0.2,0.1-0.3c0-0.4,0-0.8,0.1-1.3
	c0.1-0.9,0.2-1.8,0.4-2.7l0.3-0.8c0-0.2,0.1-0.4,0.2-0.5V253.8z M177.9,223.7c-0.3,0.7-0.6,1.6-0.8,2.8c-0.4,1.3-1,2.4-1.7,3.2
	c-0.2,0-0.5,0.1-0.6,0.2c-0.9-0.5-1.6-0.9-2.2-1.4c2.2-3.2,3.6-6.2,4.4-9c0.4-1.7,0.9-4.1,1.4-7.1c0.3-2.6,0.6-4.6,0.9-5.8h0.1
	c0.8,1.1,1.4,2.2,2.1,3.5c1.5,3,2.2,6.2,2.2,9.4c0,3.5-0.9,6.4-2.7,8.8l-0.4,0.3c0-1.5-0.1-2.6-0.2-3.3c-0.1-1.3-0.6-2.3-1.4-2.9
	C178.5,222.6,178.2,223.1,177.9,223.7z M246.7,22.8c-0.6,0.3-1.2,0.7-1.7,1c-3.9,2.2-7.5,3.7-10.8,4.7c0-1.8,0.3-3.6,0.7-5.3
	c0-0.1,0-0.2,0.1-0.2c0-0.1,0.1-0.2,0.1-0.3c0-0.1,0.1-0.2,0.1-0.3c0-0.1,0.1-0.2,0.1-0.2c0-0.1,0.1-0.2,0.1-0.3
	c2.2-0.6,4.3-1.3,6.2-2.1c1.3-0.5,3.1-1.7,5.4-3.4c2.8-2.1,4.9-3.6,6.3-4.4c0.4-0.2,2.9-1.2,7.4-2.8c4.4-1.6,7.1-2.8,8.1-3.4
	c0.3-0.2,1.2-1,2.7-2.4c0.1,0.1,0.2,0.3,0.3,0.4c0.6,1,0.8,2.4,0.5,4.2l0,0.2c-0.4,1.9-1.1,3.6-2.1,5.3c-2.8,0.4-5.2,0.8-7.2,1.1
	c-0.2-0.1-0.4-0.3-0.6-0.5c-0.5,0.3-1.1,0.6-1.7,0.8c-1.8,0.3-3,0.6-3.6,0.8c-4.8,1.4-8.3,3.6-10.7,6.9
	C246.4,22.6,246.6,22.7,246.7,22.8z M244.2,42.5c0.1,0.4,0.4,1.4,0.8,2.9c0,0,0,0.1,0,0.1l0.3,1.1c0.1,0.3,0.2,0.7,0.3,1h0
	c0.1,0.2,0.1,0.4,0.2,0.6c-0.9-0.3-1.8-0.8-2.6-1.3c-0.3-0.2-0.6-0.4-1-0.7c-0.2-0.1-0.4-0.3-0.6-0.5l-2.5-2.4
	c0-0.1-0.1-0.1-0.1-0.2c-0.1-0.1-0.1-0.1-0.2-0.2c-0.1-0.1-0.1-0.2-0.2-0.2c-0.1-0.1-0.1-0.1-0.2-0.2c-0.1-0.1-0.1-0.1-0.2-0.2
	c-0.1-0.1-0.1-0.1-0.2-0.2c0-0.1-0.1-0.1-0.1-0.2c-0.1-0.1-0.1-0.2-0.2-0.3c0-0.1-0.1-0.1-0.1-0.2c0-0.1-0.1-0.1-0.1-0.2
	c-0.1-0.1-0.1-0.2-0.2-0.2c-1.5-2.4-2.4-5-2.9-7.8c0.1-0.1,0.3-0.2,0.4-0.3c2.3-1.8,4.9-3.3,7.7-4.6c2.5-1.1,4.5-1.8,6.2-2
	c0.1,0.2,0.1,0.5,0.2,0.7l0.3,2.3c0,0.1,0,0.1,0,0.2c0,0.1,0,0.2,0,0.3c0,1.7-0.4,4.2-1,7.7c-1.1,0.4-2.3,0-3.6-1
	c-1.7-1.3-2.8-2-3.3-2.1c-0.4,1.4-0.3,2.9,0.3,4.4C242.3,40.2,243.1,41.4,244.2,42.5z M235,344.2c-1.8-0.1-3.8-0.4-5.9-0.9
	c-1.2-0.4-2.4-1.1-3.3-2l-2.8-2.3l-0.6-0.5c2.1-11.3,1.9-21.2-0.6-29.6c-0.8-5-1.5-9-1.9-12.1c-0.1-3.3,0.3-6.9,1.3-10.8
	c0.6-2.4,1.8-5.8,3.5-10.3c0-0.1,0.1-0.2,0.1-0.3l1.2-3.3c0-0.1,0.1-0.3,0.1-0.4c0,0,0,0,0-0.1c0.9-2.7,1.6-4.8,2-6.3
	c1.1-3.9,1.6-7.5,1.6-10.8c0-1.7,0.1-3.8,0.2-6.2c0.1-4.3,0.4-9.9,0.8-16.6c0.6-9.8,0.8-17.4,0.8-22.9c-0.1-7.5-0.1-13.1-0.1-16.8
	c0-2.3,0.2-4.6,0.4-6.6c0-0.4,0.1-0.7,0.1-1c0.2-1.6,0.4-3.1,0.7-4.5c0-0.2,0.1-0.4,0.1-0.6c0.3-1.3,0.6-2.6,1-3.8l12.1,5.5
	c1.1,0.5,2.2,0.9,3.3,1.3c0.6,0.2,1.2,0.4,1.8,0.6c0.1,0.3,0.2,0.6,0.2,0.9c0.8,3.2,1.2,5.8,1.2,8c0,11.3-0.6,21.4-1.9,30.2
	c-0.9,6.1-2.4,13.5-4.6,22.3c-0.7,2.9-1.4,5.5-2,8c-1.7,7-3,12.5-3.8,16.3c-2.2,10.9-3.9,23.1-5.1,36.4V344.2z M168.4,218.9
	c-0.1,0-0.1,0-0.2,0c-0.6-0.1-1.1-0.2-1.6-0.3c-1-0.2-2.2-0.1-3.8,0.4c-0.1,0-0.1,0-0.2,0.1c-1.2,0.1-3.2,0.8-6,2.1
	c-2.7,1-4.8,1.7-6.3,1.9c-2.3,0.4-4.2,0.2-5.8-0.6c-1.1-0.5-2.3-1.3-3.8-2.3c-1.4-1-2.1-2.2-2.3-3.5c0.2,0,0.4,0,0.6,0.1
	c3.6,0.8,7.4,1,11.3,0.6c4.9-0.5,9.1-1.6,12.5-3.3c1.7-0.9,3.2-1.9,4.4-3c0.3-0.3,0.6-0.6,0.9-0.9c0.9-0.9,1.6-1.7,2.3-2.6
	c0.9-1.3,1.5-2.2,1.9-2.9c0.3-0.7,0.5-1.2,0.8-1.7c0.2-0.6,0.4-1,0.5-1.2c0.2,0.1,0.4,0.2,0.6,0.2c0.2,0.1,0.5,0.3,0.8,0.6
	c0-0.1,0.1-0.1,0.3,0c0.5,0.5,1.1,1,1.7,1.6c-0.9,2-1.8,3.8-2.7,5.6s-1.9,3.4-2.8,4.9c-0.9,1.6-1.6,2.8-1.9,3.5
	C169.1,218.6,168.7,218.8,168.4,218.9z M429.2,358.5c0.2,1.5,0.4,2.9,0.6,4.4c0.4,2.6,0.8,5.4,1.3,8.3c0.5,2.9,1,5.8,1.5,9
	c0.2,1,0.4,2,0.5,3c0.2,0.9,0.3,1.8,0.5,2.7c0.2,1.2,0.4,2.4,0.7,3.6v0c-0.1,0-0.1,0-0.2,0l-5.4,1c-1.7,0.6-3.2,1.4-4.5,2.4
	c-0.2-0.5-0.4-1-0.6-1.5c-0.7-2.1-1.4-3.9-2.1-5.5c-0.1-0.2-0.2-0.4-0.2-0.6c-0.4-1-0.8-2-1.2-2.8c0,0,0-0.1,0-0.1
	c-1-2.4-2.2-5.2-3.6-8.6c-0.8-2-1.7-4.1-2.7-6.4c-0.8-3.8-1.5-7.8-2-12c-0.4-3.6-0.8-7.4-1-11.3c-0.1-2.2-0.2-4.3-0.4-6.2
	c-0.4-5.3-1.1-9.4-1.9-12.4c-0.5-1.6-1.1-3-2-4.3c-1.3-1.9-3.1-3.3-5.3-4.4c3.3-2.5,7-3.7,11-3.5c1.3,0.1,2.5,0.3,3.6,0.6
	c2.6,0.8,4.7,2.4,6.2,4.8c1.8,2.8,2.9,6.5,3.5,11.2c0.1,0.7,0.2,2.6,0.5,5.8c0.1,0.7,0.1,1.4,0.2,2c0.2,1.5,0.4,2.8,0.6,3.8
	c0.3,1.9,0.5,3.9,0.8,6C428.2,351,428.7,354.7,429.2,358.5L429.2,358.5z"/>
<path id="Fill-15" class="st10" d="M359.6,335.3l-5.1,0.9c-0.8,0.1-0.9,0-0.3-0.5l1.4-1.1l21-16.4c0.6-0.5,1.3-0.8,2-0.9l39.7-7
	l1.4-0.3c0.8-0.1,0.9,0.1,0.3,0.5l-4.3,3.4c-1.1-0.4-2.3-0.6-3.6-0.6c-4.1-0.2-7.8,1-11,3.5c-0.9-0.4-1.9-0.7-2.8-0.9
	c-3.4-0.2-7.1,0.6-10.9,2.3c-2.3,1-5.6,2.9-9.9,5.6c-2.5,1.6-4.5,2.8-6.2,3.6c-1.1,0.7-2.3,1.6-3.7,2.5
	C365.4,331.4,362.8,333.2,359.6,335.3"/>
<path id="Fill-16" class="st11" d="M144.9,381c1.5-0.7,2.6-1.4,3.5-1.9c0.7,0.1,1.4,0.3,2.2,0.5c1.6,0.4,3,0.7,4,0.9
	c-0.1,1,0.1,1.9,0.8,2.6c-1.6-0.6-3.4-1.1-5.4-1.3c-2.5-0.2-4.1-0.4-4.6-0.6L144.9,381z M184.5,387.6c-0.5-0.7-0.9-1.5-1.4-2.3
	c-1-1.7-1.9-3.7-2.8-6.1c-0.3-0.8-0.6-1.6-0.9-2.3c-1.2-3.1-2.1-5.3-2.7-6.4c2.3-0.8,4.1,0.7,5.6,4.4c0.3,0.6,0.6,1.4,1,2.5
	c0.2,0.7,0.5,1.4,0.8,2.3c0.7,1.8,1.4,3.1,2,3.8c0.8,1,1.1,1.9,0.9,2.7C186.7,387.2,185.8,387.6,184.5,387.6z M133.6,359.9
	c0.5-1.4,1.1-2.7,1.8-3.9l4.5,0.8c0.5,0.1,1,0.2,1.7,0.2c-1.3,2-3.3,5.1-5.8,9.3c-3.2,4.8-6.4,8.7-9.8,11.7
	c-3.1,2.8-6.3,4.9-9.6,6.1c-0.1,0-0.2,0.1-0.2,0.1c-0.5-1.1-0.6-2.2-0.4-3.4l2.4-2.2c-5.7-1.8-10.4-3.2-14-4c-0.9-0.3-2.3-0.7-4-1.2
	c-1.7-0.5-3.4-0.9-5.2-1.3c-1.6-0.5-2.9-0.8-3.9-1c-1.3,0.6-2.4,1.2-3.4,1.7c-0.6,0.3-1.1,0.6-1.6,0.9c-1.8,1-3.2,2.2-4.3,3.5
	c0.1-1.6,1-2.9,2.5-4.1c0.8-0.8,2.3-1.6,4.3-2.6c-1.7-0.6-4.3-1.3-7.8-2.1c-2.6-0.9-4.8-2-6.5-3.3c-0.2-0.1-0.4-0.3-0.5-0.4
	c-2.1-2.1-3.1-4.8-2.8-8.1c0-0.2,0.1-0.4,0.1-0.5c2.5,2.3,7.2,4.7,14.1,7.2c4.9,1.8,11,3.6,18.2,5.5c6.9,1.8,13.8,3.6,20.8,5.6
	c1.4-1.2,2.7-2.5,3.9-4c2.5-3.2,4.3-6.7,5.5-10.4C133.6,360,133.6,359.9,133.6,359.9z M170.5,342.8c-3,0.9-5.7,1.8-8.2,2.7l-2.7-0.5
	c0,0,0.1,0,0.1,0c0.5,0.1,2.2-0.2,5.1-1.1c1.9-0.6,3.2-1,3.7-1.1h0.1l0.4-0.1C169.5,342.8,170,342.8,170.5,342.8z M241.8,347.1
	c0.2,0.7,0.5,1.4,0.8,2.1l-1.8-0.3h-0.2c-0.4-0.1-0.9-0.1-1.4-0.1c1-0.5,1.6-0.9,1.7-1C241.3,347.6,241.6,347.3,241.8,347.1z
	 M312.7,362c0.4-0.1,0.5,0.2,0.4,0.9c-0.1,0.4-0.2,0.9-0.3,1.6c-5.3,1.7-11.1,2.2-17.5,1.6c-3.6-0.4-7.8-1.1-12.6-2.3
	c-1.2-0.3-2.5-0.6-3.8-1v-1.9c0-0.3,0-0.7,0-1c0.5,0.1,1,0.1,1.5,0.2c0.8,0.3,1.5,0.6,2.3,0.8c4.5,1.5,9.1,2.5,13.7,2.8
	C302,364.1,307.5,363.5,312.7,362z M310.3,356.2c-0.3-0.1-0.6-0.3-0.9-0.4c-0.7,0.2-1.3,0.5-2,0.7c-4.3,1.4-9.2,2-14.7,2
	c-3.3-0.9-6.7-1.9-10.2-2.8c-0.1,0-0.1,0-0.2-0.1c-6.9-1.8-12.1-2.7-15.8-2.7c1-5.8,4.5-9.6,10.4-11.6c1.5-0.5,3.4-1,5.8-1.7
	c0.5-0.2,1-0.4,1.3-0.6c-0.2-0.2-0.4-0.4-0.5-0.6c4.8,5.2,10.3,9.6,16.3,13.3c2.6,1.5,5.4,2.8,8.5,3.6
	C309.2,355.7,309.8,355.9,310.3,356.2z M356.5,271.1l0.9,4.8c0,0,0.2,0.9,0.6,2.5v0c-0.7,2.8-1.3,4.3-1.9,4.3
	c-0.1,0-0.6-0.4-1.4-1.3c-0.1-0.1-0.1-0.1-0.2-0.2c0-0.4-0.1-0.8-0.1-1.2c0-0.2-0.1-0.4-0.1-0.6c-0.3-2.4-0.4-4.3-0.5-5.9
	c0-0.4,0-0.8,0-1.2c0-0.1,0-0.1,0-0.2c0.2,0.2,0.3,0.3,0.4,0.4c0.4,0.4,0.8,0.5,1.1,0.5C355.5,273.1,355.9,272.4,356.5,271.1z
	 M281.9,188.5c-1.4,2.2-3.4,4.1-6.1,5.9c-1.9,1.2-4.3,2.5-7.5,3.9c-1.1,5.5-2.8,13.6-5.3,24.5c-0.8,3.9-1.5,7.6-2.1,11.1
	c-0.8,5-1.4,9.6-1.7,13.6c0,2.9-1.1,6.4-3.4,10.4c-2.6,4.6-4.2,7.9-4.6,10c-0.2,0.6-1.3,3.7-3.3,9.1c-1.4,3.7-2.2,6.8-2.5,9.4
	c0.1,4.2-0.1,8.9-0.8,14.2c-0.2,1.5-0.5,4.1-1,7.7l0,27v7.2l-2.6,0.8c-1.8,0.7-3.8,1-6.1,0.9v-39.2c1.3-13.3,3-25.5,5.1-36.4
	c0.8-3.8,2-9.3,3.8-16.3c0.6-2.5,1.3-5.1,2-8c2.2-8.8,3.8-16.2,4.6-22.3c1.3-8.8,1.9-18.9,1.9-30.2c0-2.1-0.4-4.8-1.2-8
	c-0.1-0.3-0.2-0.6-0.2-0.9c1.4,0.5,2.8,1,4.1,1.4c0.7,0.2,1.4,0.4,2,0.6c7.8,2.4,15.3,3.6,22.5,3.7
	C280.4,188.6,281.1,188.6,281.9,188.5z M282.7,292.3v42.3l-1.5,1.1l-2,1.1c0,0-0.1,0-0.1,0c-0.1,0-0.2,0-0.3,0
	c-0.2-1.7-0.3-3.4-0.5-5.3c-0.2-2.8-0.5-5.8-0.7-9l-2.4-42.5c0-12.6,0.9-22.5,2.7-29.6c6.8-14.3,10.9-25.8,12.5-34.5
	c0.2-1.1,0.4-2.1,0.5-3.1c1.1-7.1,1.4-12.5,0.7-15.9c-0.8-4-1.2-7.9-1.2-11.8c0.5-0.3,1-0.6,1.6-0.9c1.3-0.8,2.5-1.7,3.6-2.6
	c0.2,0.9,0.3,1.8,0.5,2.6c1.5,8.5,2.2,16.6,2.1,24.4c0,2.6-0.1,5.2-0.3,7.7c0,0.1,0,0.3,0,0.4c-0.2,2-0.4,3.9-0.7,5.8
	c0,0.1,0,0.1,0,0.2c-0.9,3.7-2.1,8.5-3.6,14.3c-0.3,1.1-0.6,2.1-0.8,3.2c-0.3,0.8-0.6,1.6-0.9,2.4c-1,2.3-2.1,4.6-3.2,6.7
	c-0.1,0.1-0.1,0.2-0.2,0.3c0,3.5-0.6,7.2-1.8,11.2c-0.9,2.9-2.3,6.4-4.1,10.5c0.3,4.8,0.4,10.7,0.3,17.7c0,0.2,0,0.3,0,0.5V292.3z
	 M372.5,238.7c0-0.1,0-0.3,0.1-0.4c-0.1-0.1-0.3-0.2-0.4-0.3c-7.3-4.5-12.1-7.5-14.3-9.1c-1.7-1.6-4-4.8-6.8-9.8
	c-1.8-3.1-3.5-5.2-5-6.1c1.3-0.3,2.7-0.6,4.2-0.7c5.9-0.6,10.8,0.8,14.7,4.1c2.1,1.8,3.9,4.3,5.5,7.5c0.9,1.8,2,4.6,3.5,8.7
	C373.5,233.8,373,235.8,372.5,238.7z M331.4,240.3c0.1-1.1,0.2-2.4,0.3-3.8c0.1-2.9,0.2-5,0.3-6.4c0.4-5.1,1.7-9.1,3.9-11.7
	c2-1.7,4.2-3,6.5-4c0.7-0.3,1.5-0.6,2.3-0.9c0,0.9,0.8,3.7,2.3,8.6c0.8,2.5,1.5,4.6,2.2,6.3c-0.3,1.1-0.6,2.3-0.9,3.7
	c-0.5,2.5-1,4.3-1.5,5.3c-0.2,0.4-0.5,0.8-0.8,1.2c-1,1.3-2.4,2.3-4.1,3.1c-1.4,0.6-2.9,1.2-4.4,1.7c-0.2,0.1-0.3,0.1-0.5,0.2
	c-1.9,0.6-3.9,1-6,1.4c-0.2-0.6-0.2-1.4,0.1-2.2c0.1-0.6,0.2-1.2,0.3-1.9C331.4,240.7,331.4,240.5,331.4,240.3z M157.7,262.7
	c0.1,0,0.2,0.1,0.3,0.2c0.9,0.4,1.6,0.6,2.3,0.5c0.4-0.1,0.8-0.1,1.2-0.1c-0.8,1-1.2,2.1-1.3,3.3c-0.1,0.5-0.2,1-0.3,1.5l-2,1.4
	l-0.8-2.2c0.1-0.6,0.3-1.2,0.4-1.7c0-0.2,0-0.4,0-0.5C157.6,264.3,157.7,263.5,157.7,262.7z M179.3,206.5h-0.1
	c-0.2,1.3-0.5,3.2-0.9,5.8c-0.5,3.1-1,5.4-1.4,7.1c-0.8,2.8-2.2,5.8-4.4,9c-2.3-1.8-3.7-3.7-4.2-5.8c-0.2-1.2-0.2-2.5,0.1-3.8
	c0.3,0,0.7-0.3,1.1-0.8c0.4-0.7,1-1.9,1.9-3.5c1-1.5,1.9-3.1,2.8-4.9s1.8-3.7,2.7-5.6C177.9,204.8,178.7,205.6,179.3,206.5z
	 M260.6,14.9c0.6-0.3,1.1-0.6,1.7-0.8c0.1,0.2,0.3,0.3,0.6,0.5C262,14.6,261.3,14.7,260.6,14.9z M431.6,406.5
	c-1.6,0-3.2,1.2-4.9,3.4c2.3,0.6,4.4,0.5,6.4-0.3C435.3,408.8,434.8,407.7,431.6,406.5z M407.8,394.2c-0.8-1.8-1.7-3.8-2.7-6.1
	c-0.3-0.7-0.7-1.5-1-2.2c-0.1-0.2-0.2-0.4-0.3-0.6c-1-2.1-2.1-4.5-3.4-6.9c-0.3-0.5-0.5-1.1-0.8-1.6c-4.5-9-7.1-14.3-7.8-15.8
	c-0.5-1.7-0.9-3.9-1.2-6.4c-0.2-1.1-0.3-2.1-0.4-3.1c-0.2-1.4-0.4-2.6-0.5-3.5c-1,1-2,1.9-3,2.8c-5.1,4.9-9.9,9.6-14.3,14.2
	c-0.9,0.6-2,1.9-3.4,3.8c-1.4,1.5-3.2,2.4-5.6,2.7c-4.4,0.5-8.2-0.5-11.6-2.9c-3.4-2.4-6.4-5.6-9.2-9.4c-1.6-2.4-2.4-4.3-2.4-6
	c0-1.5,0.6-2.9,1.7-4.1c1.7-1.7,3.6-3.5,5.9-5.3c2.4-2,5.1-4,8.1-6.1c0.1-0.1,0.2-0.1,0.2-0.2c1.3-0.8,2.5-1.6,3.6-2.4
	c3.1-2.1,5.8-3.9,8-5.4c1.4-1,2.6-1.8,3.7-2.5c1.7-0.8,3.8-2,6.2-3.6c4.3-2.7,7.6-4.5,9.9-5.6c3.9-1.7,7.5-2.4,10.9-2.3
	c0.9,0.2,1.9,0.5,2.8,0.9c2.2,1.1,4,2.5,5.3,4.4c0.9,1.3,1.5,2.7,2,4.3c0.8,3,1.5,7.1,1.9,12.4c0.2,1.9,0.3,4,0.4,6.2
	c0.2,3.9,0.5,7.7,1,11.3c0.5,4.2,1.2,8.2,2,12c0.5,2.3,1,4.5,1.5,6.6c0.8,3.2,1.5,6.1,2.3,8.8c0,0.1,0.1,0.2,0.1,0.3
	c0.3,0.9,0.5,1.8,0.8,2.7c0,0,0,0.1,0.1,0.1c0.8,2.7,1.5,4.7,2.1,6c0.1,0.1,0.1,0.2,0.2,0.3c-0.5-0.1-1-0.1-1.5-0.1l-4.6,0.8
	c-0.1,0-0.2,0.1-0.3,0.1c-1.4,0.4-3.4,1.1-6.1,2.3C408.1,394.9,407.9,394.5,407.8,394.2z M271.6,3.7c-0.1-0.1-0.2-0.3-0.3-0.4
	c-1.5,1.5-2.4,2.3-2.7,2.4c-1,0.6-3.7,1.8-8.1,3.4c-4.5,1.6-7,2.6-7.4,2.8c-1.4,0.8-3.4,2.3-6.3,4.4c-2.3,1.7-4.1,2.8-5.4,3.4
	c-1.9,0.8-4,1.5-6.2,2.1c0.3-0.9,0.6-1.7,1-2.5c1.7-3.7,4.2-6.5,7.5-8.4c1.4-1.3,3.1-2.3,5.1-3.1c1.1-0.4,3.1-1,5.8-1.8
	c5.2-1.4,8.7-3.2,10.6-5.5c0.6-0.6,1.2-0.8,1.6-0.4c0.3,0.2,0.6,0.8,1,1.7c0.4,0.9,0.8,1.4,1.2,1.6c0.5,0.4,1.1,0.2,1.9-0.5
	C271.2,3.2,271.4,3.4,271.6,3.7z M249,27.1c-0.1-0.2-0.1-0.5-0.2-0.7c-1.6,0.2-3.7,0.9-6.2,2c-2.9,1.3-5.4,2.8-7.7,4.6
	c-0.1,0.1-0.3,0.2-0.4,0.3c-0.1-0.9-0.2-1.9-0.3-2.8c0-0.7-0.1-1.3-0.1-2c3.3-0.9,6.9-2.5,10.8-4.7c0.6-0.3,1.1-0.6,1.7-1
	C247.8,24,248.6,25.4,249,27.1z M241.6,45.8c0.2,0.2,0.4,0.3,0.6,0.5c0.4,0.3,0.7,0.5,1,0.7C242.7,46.6,242.1,46.2,241.6,45.8z
	 M162.9,200.2c1-0.2,2.1-0.3,3.2-0.3c0.7,0,1.5,0,2.2,0c1.9,0.2,3.7,0.8,5.4,1.7c-0.1,0.2-0.3,0.6-0.5,1.2c-0.2,0.4-0.5,1-0.8,1.7
	c-0.4,0.7-1,1.7-1.9,2.9c-0.6,0.9-1.4,1.7-2.3,2.6c-0.3,0.3-0.6,0.6-0.9,0.9c-1.3,1.2-2.8,2.2-4.4,3c-3.4,1.7-7.5,2.8-12.5,3.3
	c-3.9,0.3-7.6,0.1-11.3-0.6c-0.2-0.1-0.4-0.1-0.6-0.1v-0.2c3.4-4.8,7.4-8.6,12-11.4C154.5,202.5,158.6,200.9,162.9,200.2z
	 M432.3,405.2c0.7,1.2,1.8,2.3,3.5,3.2c0.3,0.1,1.7,0.8,4.4,2.1c0.4,0.2,0.9,0.4,1.2,0.6c1.2,0.6,2,1.2,2.6,1.8
	c0.7,0.7,1.2,1.5,1.4,2.5c0.1,0.5,0.2,1.1,0.2,1.7c-3.8,2.5-7.6,3.5-11.2,2.8c-2.2-0.4-4.5-0.9-6.7-1.4c-1.4-0.4-2.8-0.7-4.3-1.1
	c-2.8-0.8-5.6-1.3-8.3-1.7c-0.8-0.1-1.6-0.2-2.5-0.3c-2.8-0.3-4.3-2.4-4.6-6.4c0-0.3,0-0.5-0.1-0.8c0-0.9,0-2,0.1-3.1
	c0-0.4,0.1-0.7,0.1-1.1c0.2-2,0.4-3.5,0.5-4.4c-0.2,2.1,0.6,3.7,2.3,5c0.4,0.3,0.9,0.6,1.5,0.9c0.7,0.3,1.6,0.7,2.8,1.1
	c0.2,0.1,0.5,0.2,0.7,0.2c0.1,0,0.3,0.1,0.4,0.1c1.9,0.6,3.1,1.1,3.7,1.3c1.6,0.9,3.1,0.5,4.6-1c0.8-1,1.4-1.7,1.9-2.1
	c0.1-0.1,0.1-0.2,0.2-0.2c0.7-0.7,1.3-1.2,1.8-1.5c0.6,0.3,1.1,0.5,1.6,0.8c0.1,0,0.2,0.1,0.3,0.1
	C431.3,404.5,431.8,404.9,432.3,405.2L432.3,405.2z"/>
<path id="Fill-17" class="st12" d="M278.7,336.8c0.1,0,0.2,0,0.3,0c0,0,0.1,0,0.1,0l1.3-0.6l0.7-0.5c0.1,0.1,0.1,0.2,0.2,0.2
	l2.3,2.6c0.2,0.2,0.4,0.4,0.5,0.6c-0.4,0.2-0.8,0.4-1.3,0.6c-2.4,0.6-4.4,1.2-5.8,1.7c-5.9,1.9-9.4,5.8-10.4,11.6
	c3.7,0,9,0.9,15.8,2.7c0.1,0,0.1,0,0.2,0.1c3.5,0.9,6.9,1.9,10.2,2.8c5.5,0,10.4-0.7,14.7-2c0.7-0.2,1.4-0.4,2-0.7
	c0.3,0.1,0.6,0.3,0.9,0.4l0.3,0.6l2.2,4.2c0,0,0,0.1,0,0.2c0,0,0,0.1,0,0.1c0,0.1,0,0.1,0,0.2c0,0.1,0,0.2-0.1,0.3c0,0,0,0.1,0,0.1
	c-5.2,1.6-10.6,2.2-16.3,1.8c-4.6-0.3-9.1-1.3-13.7-2.8c-0.8-0.3-1.5-0.5-2.3-0.8c-0.4-0.1-0.9-0.2-1.5-0.2c-0.2-2.4-1.2-3.9-3-4.4
	c-0.4-0.1-0.8-0.2-1.2-0.2l-6-1.1h-0.2c-0.9-0.2-1.9-0.2-3,0.1l-1.6,0.3c-0.5-0.8-1.2-1.3-2.1-1.6c-0.4-0.1-0.8-0.2-1.2-0.2l-1-0.2
	c0.2-2.2,0.7-4.7,1.3-7.6c0.3-1.3,0.6-2.4,0.8-3.5c0.1-0.4,0.2-0.8,0.2-1.1c0.6-3,1-5.2,1.1-6.7c2.3,1.4,4.9,2.3,7.7,2.8
	C273.5,336.9,276,337,278.7,336.8z M225.8,341.3c1,0.9,2.1,1.6,3.3,2c2.1,0.5,4.1,0.8,5.9,0.9c2.3,0.1,4.3-0.2,6.1-0.9l-0.1,1
	l0.7,2.3c0.1,0.2,0.1,0.4,0.2,0.6c-0.3,0.2-0.6,0.5-0.9,0.7c-0.1,0.1-0.7,0.4-1.7,1c-0.5,0-1,0.1-1.6,0.2l-13.1,2.3
	c0.1-1,0.1-1.8,0.1-2.5C224.9,345.7,225.3,343.3,225.8,341.3z M443.4,404.2c-1.6-0.2-3.2,0.6-4.7,2.5c2.1,0.8,4.1,0.9,6.1,0.3
	C446.8,406.6,446.3,405.6,443.4,404.2z M376.9,375.2c-0.1,0-0.2,0.1-0.3,0.1c-4.1,1.9-8.3,2.7-12.7,2.4c-1-0.1-2.2,0-3.5,0.5
	c-0.8,0.2-1.9,0.7-3.3,1.2c-5.9,1.6-11.7,0.8-17.4-2.4c-1.8-1-3.4-2.2-4.7-3.5c-3-2.8-5-6.3-5.9-10.3c-1.6-9.3-1.5-16.8,0.2-22.6
	c0.3-1,0.7-1.9,1.1-2.8c0.6-1.3,1.2-2.4,2-3.5c0.7-0.4,1.4-0.9,2.2-1.2c2.1-0.9,4.5-1.5,7.2-1.8c1.6-0.1,4.5-0.1,8.8,0
	c0.4,0,0.9,0,1.4,0c2.2,0.1,4.1,0.1,5.8,0l-3.9,3.1c-0.6,0.5-0.5,0.6,0.3,0.5l1.6-0.3l-1.4,1.1c-0.6,0.5-0.5,0.6,0.3,0.5l5.1-0.9
	c-1.2,0.8-2.4,1.6-3.6,2.4c-0.1,0.1-0.2,0.1-0.2,0.2c-3,2.1-5.7,4.2-8.1,6.1c-2.2,1.8-4.2,3.6-5.9,5.3c-1.1,1.2-1.7,2.6-1.7,4.1
	c0,1.6,0.8,3.6,2.4,6c2.7,3.8,5.8,7,9.2,9.4c3.4,2.4,7.3,3.4,11.6,2.9c2.4-0.3,4.2-1.2,5.6-2.7c1.4-1.9,2.5-3.2,3.4-3.8
	c2,1.6,4.2,2.6,6.8,2.9c2.5,0.4,5,0.1,7.5-0.9C384.1,370.6,380.9,373.3,376.9,375.2z M440.9,401.2c0.4,0.2,0.9,0.5,1.5,0.9
	c1.4,0.9,3.4,2.1,5.9,3.9c1.7,1.2,3.2,2.2,4.3,3.1c0.9,0.7,1.6,1.3,2.1,1.8c1,0.9,1.6,1.8,1.8,2.5c0.5,1.5-0.3,2.7-2.4,3.6
	c-1.2,0.5-2.6,0.8-4.2,0.8c-1.6,0-3-0.2-4.2-0.8c0-0.6-0.1-1.2-0.2-1.7c-0.2-1-0.7-1.8-1.4-2.5c-0.6-0.6-1.4-1.2-2.6-1.8
	c-0.4-0.2-0.8-0.4-1.2-0.6c-2.7-1.3-4.2-1.9-4.4-2.1c-1.6-0.9-2.8-2-3.5-3.2c1.5,1,3,0.8,4.4-0.8c0.6-0.7,1-1.2,1.3-1.5
	c0.3-0.3,0.4-0.5,0.5-0.5C439.3,401.7,440.1,401.3,440.9,401.2L440.9,401.2z"/>
<path id="Fill-18" class="st13" d="M143.1,335.8c0.1,0,0.1,0,0.2-0.1c1.1-0.3,1.9-0.4,2.3-0.1c-1.1,1.3-3.1,2.9-5.8,5
	c-0.3,0.3-0.7,0.5-1,0.8c-0.9,0.7-1.6,1.2-2.2,1.6c-0.2,0.1-0.4,0.3-0.6,0.4l-0.7-1.4c0.4-0.7,0.9-1.3,1.4-1.8
	c0.2-0.1,0.4-0.3,0.5-0.4c0.1-0.1,0.2-0.1,0.2-0.2c0.6-0.4,1.3-1,2-1.5c0,0,0.1,0,0.1-0.1C140.3,337.6,141.5,336.8,143.1,335.8z
	 M142.4,344.5c-0.1,0.1-0.5,0.4-1.3,1c-0.4,0.4-0.9,0.7-1.2,0.9c-0.2,0.1-0.3,0.2-0.5,0.3c-0.8,0.4-1.4,0.4-1.8-0.1l-0.3-0.7
	c0.1-0.1,0.1-0.2,0.1-0.2h0.1c0.6-0.9,1.6-1.9,3.1-3.2c0.2-0.2,0.4-0.4,0.7-0.6c0.1-0.1,0.2-0.2,0.4-0.3c3.5-2.8,6-4.2,7.4-4.2
	c-1,1.4-2.5,3.1-4.4,5.1c-0.1,0.1-0.2,0.2-0.3,0.4C143.5,343.3,142.9,343.9,142.4,344.5z M144.4,347.9c-0.5,0.3-1.2,0.4-1.9,0.3
	c-0.1,0-0.3,0-0.4,0.1c0.1-0.3,0.2-0.5,0.4-0.8c0-0.1,0.1-0.1,0.1-0.2c0.1-0.1,0.1-0.2,0.2-0.3c0.8-1.1,2-2.4,3.6-3.7
	c0.1-0.1,0.2-0.2,0.3-0.3c0,0,0.1-0.1,0.1-0.1c3.4-2.8,6-4.2,7.8-4.3l0.1,0.6c0.1,0.5-0.7,1.5-2.2,3.1c-0.4,0.4-0.7,0.7-1,1
	c-0.3,0.1-0.6,0.3-0.9,0.5c-0.1,0.1-0.2,0.1-0.3,0.2l0,0l-3.7,2.2c-0.2,0.1-0.3,0.2-0.4,0.3c-0.1,0-0.2,0.1-0.3,0.3
	c-0.1,0.1-0.2,0.1-0.3,0.2c-0.1,0.2-0.3,0.4-0.5,0.6c-0.1,0.1-0.2,0.2-0.4,0.3C144.7,347.7,144.5,347.8,144.4,347.9z M163.5,331.4
	c2.8-0.9,4.8,0,6.2,2.7c0.6,1.3,0.8,2.6,0.8,4c0,0.5-0.1,1-0.2,1.5c-0.2,0.7-0.5,1.4-0.8,2.2c0,0.1-0.1,0.1-0.1,0.2
	c-0.2,0.3-0.4,0.6-0.8,0.9h-0.1c-0.5,0.1-1.8,0.5-3.7,1.1c-2.9,0.9-4.6,1.2-5.1,1.1c0,0,0,0-0.1,0c-1,0.6-3.6,1.6-7.6,3
	c-0.1,0-0.2,0.1-0.4,0.1c-0.6,0.2-1.1,0.4-1.6,0.5c-0.2,0-0.3,0.1-0.5,0.1c-0.6,0.1-1.1,0.2-1.4,0.3c-0.2,0-0.4,0-0.6-0.1
	c0,0,0.1,0,0.1,0c0.2-0.1,0.4-0.2,0.7-0.3c0.2-0.1,0.3-0.1,0.5-0.2c1.7-0.7,3.7-1.5,6.2-2.4c0,0,0.1,0,0.1-0.1
	c0.3-0.1,0.7-0.2,1-0.4c0.5-0.2,0.9-0.3,1.3-0.5c0.2-0.1,0.4-0.1,0.6-0.2c6.3-2.4,9.7-4.8,10.2-7.2c0.1-0.3,0.1-0.6,0.1-1
	c-0.1-0.9-0.9-1.9-2.6-3.3C164.5,332.5,163.8,331.8,163.5,331.4z M175.4,229.7c0.7-0.8,1.3-1.8,1.7-3.2c0.2-1.2,0.5-2.2,0.8-2.8
	c0.5,0.7,0.9,1.5,1,2.4c0,0.1,0,0.8,0.1,2.3c-0.2,1.5-0.8,2.4-2,2.5C176,231,175.5,230.6,175.4,229.7z M251.2,43.3
	c-0.1,0-0.2-0.1-0.3-0.1c0.1,0,0.1-0.1,0.2-0.1C251.2,43.1,251.2,43.2,251.2,43.3z M443.4,404.2c2.9,1.4,3.4,2.3,1.4,2.8
	c-1.9,0.5-3.9,0.4-6.1-0.3C440.2,404.8,441.8,404,443.4,404.2z M415.5,406.5c-1.2-0.4-2.1-0.8-2.8-1.1c-0.5-0.3-1-0.6-1.5-0.9
	c-1.7-1.3-2.4-3-2.3-5c0-0.1,0.1-0.2,0.1-0.3c0-0.6-0.1-1.3-0.3-2c0,0,0-0.1,0-0.1c-0.2-0.8-0.4-1.4-0.5-1.8
	c2.7-1.1,4.7-1.9,6.1-2.3c0.1,0,0.2-0.1,0.3-0.1l4.6-0.8c0.5,0,1,0,1.5,0.1c0.2,0.7,0.4,1.4,0.7,2.1c-0.1,0.2-0.2,0.4-0.4,0.6
	c-0.5,0.9-1.3,1.9-2.1,3.2c-1.2,2-2.1,3.9-2.7,5.6C415.9,404.7,415.6,405.6,415.5,406.5z M439.2,399.6c0.5,0.5,1,1.1,1.6,1.6
	c-0.8,0.1-1.6,0.4-2.3,1.1c-0.1,0.1-0.2,0.2-0.5,0.5c-0.3,0.3-0.7,0.8-1.3,1.5c-1.4,1.5-2.9,1.8-4.4,0.8c-0.5-0.3-1.1-0.6-1.7-0.9
	c-0.1,0-0.2-0.1-0.3-0.1c0.1-1.4,0.2-2.4,0.4-3c0.1-0.2,0.1-0.4,0.2-0.5c0.8-1.3,2.5-3.2,5.1-5.6c0,0,0,0.1,0.1,0.1
	C436.7,396.5,437.8,398,439.2,399.6z M308,325c0-0.4,0-0.8,0.1-1.2c0.2-0.5,0.4-1,0.7-1.5c1.6-1.8,3.3-3.1,5-3.9
	c0.2-0.1,0.5-0.2,0.7-0.3c0.4-0.2,0.8-0.3,1.1-0.4c0.1,0,0.1,0,0.2,0l0.2,1.4c-0.9,1.4-1.6,2.5-2,3.2c-0.7,1.3-1.1,2.3-1.1,3.2
	c0,0.7,0.3,1.2,0.8,1.4c0.3,0.1,0.6,0.2,1.1,0.2c2.6,0,4.2,0,4.9,0.1c0.8,0,1.5,0.2,2.2,0.4l31.1-0.4c1.2-0.2,2.7-0.6,4.6-1.1
	c2.2-0.6,4.9-1.5,8.1-2.5h0c0.4,0,0.8,0,1.4-0.1c0,0,0.1,0,0.2,0c0.3,0,0.6,0,0.9,0l-6.2,4.9c-2.6,0.8-5.7,1.3-9.2,1.5
	c-1.1,0.1-2.2,0.1-3.3,0.2c-1.8,0.1-4.5,0.1-8.1,0.2c-0.7,0-1.4,0.1-2.1,0.1c-1.4,0.1-2.6,0.3-3.8,0.5c-0.8,0.1-1.5,0.3-2.2,0.4
	c-2.1,0.1-4.8,0.2-7.9,0.2c-0.9,0-1.8,0-2.8,0c-5.6,0-9.1,0-10.7,0c-1.8,0-2.9-1-3.4-3c0-0.1-0.1-0.3-0.1-0.5c0,0,0-0.1,0-0.1
	C308,326.9,308,326.1,308,325z M368,245.9c0,0.1-0.1,0.1-0.1,0.2c-0.2-0.2-0.5-0.3-0.8-0.5c-0.5-0.3-1-0.7-1.6-1.1
	c-5.4-3.8-8.4-5.8-9.1-6.1c-0.7,1.2-1.9,2.7-3.5,4.4c-0.5,0.6-1.1,1.1-1.7,1.7c-0.6,0.6-1.2,1.1-1.8,1.7c-3.2,2.9-5.8,4.7-7.6,5.3
	c-0.2-0.3-0.4-0.7-0.5-1c-0.2-0.5-0.5-1-0.6-1.6c0-0.1-0.1-0.3-0.1-0.4c2.6-1.5,5.1-3.3,7.2-5.6c0.4-0.4,0.8-0.9,1.2-1.3
	c0.1-0.1,0.2-0.2,0.3-0.3c1.7-2.1,3.1-4.3,4.3-6.7c0.4-0.8,0.7-1.5,1-2.3c0.8,0.3,2.4,1.5,4.9,3.6c2,1.6,3.8,2.6,5.5,2.8
	c1.5,0.6,2.5,1.1,3.1,1.6c1.1,0.9,1.4,1.9,0.8,3.1c-0.2,0.8-0.4,1.6-0.7,2.4C368,245.8,368,245.9,368,245.9z M292.4,139.3
	c0-0.3,0-0.5,0-0.8c0,0,0.1,0,0.1,0L292.4,139.3z M323.7,23.4L323.7,23.4c-0.1-0.1-0.1-0.2-0.1-0.4l-0.1-1c0.5-0.5,1.2-1.2,2.1-2
	c1.3-1.1,2.3-1.9,2.9-2.4c0,0,0.1,0,0.1,0.1c0.1,0,0.1-0.1,0.2-0.1l0.4-0.1c0.1,0,0.2,0,0.4-0.1c0,0.4-0.2,0.8-0.7,1.2
	c-0.5,0.4-0.8,0.8-0.8,1.1c0,0.2,0.3,1.2,0.8,3.1c0.6,2.1,0.9,3.4,1,4.1c1-0.2,1.4-0.8,1.4-1.8c-0.2-1-0.3-1.7-0.4-2.1v-2.8
	c0,0,0.1,0,0.1-0.1c0.1-0.1,0.2-0.1,0.5-0.1c0.6,0,0.9,0.8,1,2.5v4.1h1.9c0.2-1.5,0.4-2.6,0.5-3.4c0.3-1.3,0.7-2.4,1.4-3.2
	c0.3,0.3,0.5,0.6,0.5,0.8c0,0.5-0.3,2.5-0.9,6c0,0.4,0,0.5,0.1,0.4c0.1,0,0.1,0,0.2,0.1c0.1,0,0.3,0.1,0.5,0.1
	c0.2,0,0.8-0.9,1.7-2.7c1-2,1.8-3.2,2.3-3.6c0.3,0.1,0.4,0.2,0.5,0.3l0.1,0.1c-0.4,1-0.7,2.3-0.9,4c-1,2.9-1.8,4.3-2.5,4.3
	c-0.2,0-0.5-0.1-0.9-0.2c-0.4-0.2-0.6-0.3-0.7-0.3l-3.4-0.2l-1.5,0.1c0.2,1.6,0.5,2.7,0.9,3.5c0.3,0.6,0.5,1.4,0.5,2.5
	c0,0.6,0,1-0.1,1.2c-0.1,0.5-0.5,0.9-1,1c-0.8-1.1-1.7-2.3-2.6-3.6c-1.4-2-2-3.2-2-3.7c0-0.2,0.3-1,0.8-2.1c0.5-1.2,0.7-2.1,0.7-2.5
	c0,0-0.4-1.6-1.3-4.8c-0.5,0-1.2,0.5-2.1,1.5C324.5,22.7,324,23.1,323.7,23.4z M324.3,33.5c0.6,0.4,1.4,1.1,2.6,1.9
	c2.6,1.6,5.2,2.4,7.8,2.4c0,0,1.1-0.8,3.1-2.3c-0.6,1.2-1.2,2.4-2,3.8c-0.1,0-0.2-0.1-0.3-0.1c-1.5-0.2-3-0.5-4.5-0.9
	c-2.2-0.5-4.4-1.1-6.5-1.8c0-0.8-0.1-1.6-0.2-2.4C324.3,33.9,324.3,33.7,324.3,33.5z M262.9,14.5c1.9-0.3,4.3-0.7,7.2-1.1
	c0.1,0.1,0.2,0.2,0.2,0.3c0.7,0.7,1.3,1.5,1.9,2.4c0.4,0.5,0.7,1,1,1.6c-0.2,0-0.5,0-0.7,0.1c-8,0.6-13.5,2.5-16.7,5.7
	c-1.9,2.1-3.7,4-5.3,5.6c-0.4,0.4-0.7,0.8-1.1,1.1c0-0.1,0-0.2,0-0.3c0-0.1,0-0.1,0-0.2l-0.3-2.3c-0.4-1.7-1.2-3.1-2.3-4.3
	c-0.1-0.1-0.2-0.3-0.4-0.4c2.3-3.2,5.9-5.5,10.7-6.9c0.6-0.2,1.8-0.4,3.6-0.8C261.3,14.7,262,14.6,262.9,14.5z M271.7,53.6l0,0.1
	c0,0.7,0.2,1.7,0.4,3.2c-0.4,1.9-1.2,3.1-2.4,3.4c-0.9,0.3-2.3,0.2-4.1-0.5c-2.1-0.9-3.6-1.4-4.7-1.8c-1.9-0.6-3.4-0.8-4.6-0.4
	c-2.4-0.7-4.8-1.7-7.2-2.9l-0.5-1.4l-0.4-0.9c-0.2-0.6-0.6-1.3-1.1-2.1c-0.5-0.9-0.9-1.6-1.2-2c-0.1-0.2-0.1-0.4-0.2-0.6
	c0.7,0.3,1.4,0.7,2.2,1C255,51.8,262.9,53.4,271.7,53.6z M230,160.3c1.6-0.6,2.9-1.5,4-2.7c0.5-0.5,0.9-1.1,1.2-1.7
	c1.4-2.2,1.4-4.4,0.2-6.4c0.3,0,0.9,0,1.8-0.1c0.4-0.1,0.8-0.1,1.2-0.2c0.4,1.2,0.6,2.5,0.6,4c0,1.1-0.1,2.8-0.3,5.1
	c0,2.5,0.9,4.8,2.7,6.8c0.4,0.4,0.8,0.8,1.1,1.2c-0.1,0-0.2,0.1-0.4,0.1c-0.9,0.2-1.8,0.1-2.8-0.4c0,0-0.1,0-0.1-0.1
	c-1.3-0.7-2.6-1.3-3.8-1.9c-0.6-0.3-1.1-0.5-1.7-0.8c-0.6-0.3-1.3-0.8-1.9-1.3C231.6,161.8,231,161.2,230,160.3z M168.3,222.7
	c-0.2,0-0.3-0.1-0.5-0.1c-0.9-0.2-1.8-0.2-2.6-0.2c-1,0.1-2.1,0.2-3,0.5c-1.4,0.3-2.7,0.9-3.9,1.5c-2,1.1-5.3,1.9-9.9,2.4
	c-1,0-2.2-0.1-3.7-0.5c-0.1-0.3-0.1-0.5-0.1-0.8l-0.1-3c0-0.1,0.1-0.1,0.1-0.2c1.6,0.8,3.6,1,5.8,0.6c1.5-0.2,3.6-0.8,6.3-1.9
	c2.8-1.3,4.8-1.9,6-2.1c0.1,0,0.1,0,0.2-0.1c1.6-0.5,2.8-0.6,3.8-0.4c0.5,0.1,1.1,0.2,1.6,0.3c0,0,0.1,0,0.2,0
	C168.1,220.2,168.1,221.5,168.3,222.7L168.3,222.7z"/>
<path id="Fill-19" class="st14" d="M137.2,339.8c-0.2,0.2-0.4,0.3-0.5,0.4c-0.5,0.5-1,1.1-1.4,1.8l-7.1-14.1c1,0,2.1,0.1,3.1,0.5
	c0.6,0.2,1.2,0.5,1.8,0.9c2.6,1.5,4.7,3.9,6.1,7.2l-0.8,1.2C137.9,338.4,137.5,339,137.2,339.8z M336.3,251.8
	c0.1-1.8,0.3-3.2,0.4-4.2c0.9,0.2,1.8,0.5,2.7,0.7c0.3,0.1,0.7,0.2,1,0.3c0,0.1,0.1,0.3,0.1,0.4c0.2,0.5,0.4,1,0.6,1.6
	c1.1,2.3,2.7,4.4,4.8,6.3c1.9,1.7,4.1,3.3,6.7,4.6c0.6,0.3,1.2,0.6,1.8,0.9c0,0.1,0,0.1,0,0.2v0.1c0,0.3,0,0.6-0.1,0.9
	c-0.1,1.2-0.5,2-1,2.4c-0.4,0.3-0.8,0.4-1.4,0.3c-0.4-0.1-0.8-0.2-1.3-0.5c-1.4-0.7-3.5-2.2-6.3-4.4c-0.6-0.5-1.5-1.1-2.8-1.9
	c-1.6-0.9-2.6-1.5-3.1-1.8c-1.6-1.1-2.5-2.4-2.5-3.9C335.9,253.1,336,252.5,336.3,251.8z M276.4,64.7c-0.5-0.2-1.1-0.3-1.8-0.3
	c-1.3,0-2.2,0.2-2.8,0.7c-0.2-0.1-0.4-0.1-0.6-0.1c-2.2-0.6-4.8-1.7-7.7-3.3c-3.2-1.9-5.7-3.3-7.3-4.1c1.1-0.3,2.7-0.2,4.6,0.4
	c1.1,0.3,2.6,0.9,4.7,1.8c1.8,0.6,3.2,0.8,4.1,0.5c1.2-0.3,2-1.4,2.4-3.4c1.2,1,2.9,2.5,5.1,4.5c0,0.1-0.2,1-0.6,2.6
	C276.5,64.2,276.5,64.5,276.4,64.7z M162.9,255.7c-1.3,0.3-2.7-0.3-4.1-1.9v-2.1c1.8,0,3.4,0,4.9-0.2
	C162.5,252.5,162.3,253.8,162.9,255.7z M182,235.1c0.5,1.3,0.5,2.4-0.1,3.3c-0.4,0.9-1.2,1.8-2.3,2.7c-1.1,1-3.4,2.9-7,5.8
	c-2.8,2.2-5.3,3.6-7.4,4.2c1.6-1.6,2.9-2.9,3.8-3.6c1.6-1.5,2.9-2.7,3.8-3.8c2.4-3.3,3.1-6.5,2.4-9.8c1.6,0.4,2.8,0,3.7-1.1
	c1.1-1.5,1.7-2.9,1.6-4.2l0.4-0.3c0.2,0.9,0.3,1.9,0.5,2.9C181.6,232.2,181.8,233.5,182,235.1z M368.6,322.8
	c-0.7-0.1-1.4-0.3-1.9-0.4c-0.5-0.9-0.8-1.4-0.9-1.6c1.2-0.9,3.3-1.8,6.3-2.6c1-0.3,2-0.6,2.8-0.9c0.6-0.2,1.2-0.5,1.7-0.7
	c-0.2,0.1-0.3,0.2-0.5,0.3L368.6,322.8z M377.9,315.9c0,0.1,0,0.2,0.1,0.2c-0.3,0.1-0.6,0.2-0.9,0.3
	C377.4,316.2,377.6,316,377.9,315.9z M430.4,404.1c-0.5-0.2-1-0.5-1.6-0.8c-0.6-0.5-1.2-1-1.7-1.6c-0.8-0.9-1.7-1.8-2.5-2.9
	c-0.1-1.3-0.1-2.3-0.1-3.3c0-0.4,0-0.8-0.1-1.2c0-0.5-0.1-1-0.2-1.4c1.3-1,2.8-1.8,4.5-2.4l5.4-1c0.1,0,0.1,0,0.2,0
	c0.2,1,0.4,2,0.8,2.9c0.3,0.9,0.6,1.7,1,2.6c-2.6,2.4-4.3,4.3-5.1,5.6c-0.1,0.1-0.1,0.3-0.2,0.5
	C430.6,401.7,430.5,402.7,430.4,404.1z M363.3,312.9c3-2.3,6.1-3.7,9.4-4.3c1.3,1.5,3,2.8,5.3,4l-0.8,1.9c-0.1,0.2-0.1,0.4-0.1,0.6
	c-0.6-0.2-1.2-0.3-1.8-0.3c-1.3-0.2-2.7-0.2-4.2,0c-1,0.1-3.4,0.6-7.2,1.4C363.6,314.5,363.4,313.5,363.3,312.9z M245.7,47.6
	L245.7,47.6c-0.1-0.3-0.2-0.6-0.3-1l-0.3-1.1c0,0,0-0.1,0-0.1c-0.4-1.5-0.7-2.5-0.8-2.9c1.4,0.7,2.6,1.1,3.5,1.2
	c1.2,0.2,2.3,0,3.2-0.6c0.1,0,0.2,0.1,0.3,0.1c1.7,3.9,5,6.4,10,7.4c3.4,0.7,7.9,0.7,13.5,0l-2.7,1.8l-0.2,1
	c-8.8-0.1-16.7-1.8-23.8-4.9C247.1,48.3,246.4,47.9,245.7,47.6L245.7,47.6z"/>
<path id="Fill-20" class="st15" d="M169.3,342c-0.1,0.3-0.2,0.6-0.4,0.8l-0.4,0.1C168.9,342.5,169.2,342.2,169.3,342z M308,325
	c0-0.6,0-1.2,0.1-1.9c0.2-0.3,0.4-0.5,0.6-0.7c-0.3,0.5-0.5,1-0.7,1.5C308,324.2,308,324.6,308,325z M367.9,246.1
	c-0.9,2.3-2,4.5-3.5,6.8c-1.8,2.6-4,5.3-6.8,7.9l-1.1,1.1l-1.9,0.5c-0.6-0.3-1.2-0.6-1.8-0.9c-2.6-1.3-4.8-2.9-6.7-4.6
	c-2.1-1.9-3.7-4-4.8-6.3c0.2,0.3,0.3,0.7,0.5,1c1.9-0.6,4.4-2.4,7.6-5.3c0.7-0.6,1.3-1.2,1.8-1.7c0.6-0.6,1.2-1.2,1.7-1.7
	c1.6-1.7,2.8-3.2,3.5-4.4c0.7,0.3,3.7,2.3,9.1,6.1c0.6,0.4,1.1,0.8,1.6,1.1C367.4,245.8,367.6,245.9,367.9,246.1z M242.1,166.4
	c0.1,0,0.3-0.1,0.4-0.1c-0.4-0.4-0.7-0.7-1.1-1.2c-1.8-2-2.7-4.3-2.7-6.8c0.1-2.3,0.2-4,0.3-5.1c0-1.5-0.2-2.8-0.6-4
	c3.5-0.3,6,1.2,7.7,4.6c1.9,3.8,1.4,7.4-1.2,10.7C244,165.6,243.1,166.2,242.1,166.4z M142.1,348.3c-0.7-0.1-1-0.5-1-0.9
	c0-0.1,0-0.2,0.1-0.3c0-0.1,0.1-0.2,0.1-0.3c0.1-0.2,0.2-0.5,0.4-0.7c0.7-1,0.9-1.5,0.8-1.4c0.6-0.6,1.1-1.1,1.6-1.7
	c0.1-0.1,0.2-0.2,0.3-0.4c1.9-2,3.4-3.7,4.4-5.1c-1.4,0-3.9,1.4-7.4,4.2c-0.1,0.1-0.3,0.2-0.4,0.3c-0.2,0.2-0.5,0.4-0.7,0.6
	c-1.4,1.3-2.5,2.3-3.1,3.2c0.4-1,0.6-1.6,0.6-2c-0.6,0.2-1.3,0.3-1.9,0.1l-0.2-0.3c0.2-0.1,0.4-0.2,0.6-0.4c0.6-0.4,1.3-0.9,2.2-1.6
	c0.3-0.2,0.6-0.5,1-0.8c2.8-2.1,4.7-3.8,5.8-5c-0.4-0.3-1.1-0.2-2.3,0.1c-0.1,0-0.1,0-0.2,0.1l0,0l0.1-0.1l1-0.5
	c0.1-0.1,0.2-0.1,0.2-0.2c2.3-1.6,5.3-2.6,8.9-2.9c4.4-0.1,7.6-0.3,9.8-0.5c0.1,0,0.3-0.1,0.4-0.2c0.3,0.4,1,1.1,2.3,2
	c1.6,1.3,2.5,2.4,2.6,3.3c0,0.3,0,0.6-0.1,1c-0.5,2.4-4,4.8-10.2,7.2c-0.2,0.1-0.4,0.1-0.6,0.2c-0.4,0.2-0.9,0.3-1.3,0.5
	c-0.3,0.1-0.7,0.3-1,0.4c0,0-0.1,0-0.1,0.1c-2.4,0.9-4.5,1.7-6.2,2.4c-0.2,0.1-0.3,0.1-0.5,0.2c-0.2,0.1-0.5,0.2-0.7,0.3
	c0,0-0.1,0-0.1,0c-0.1-0.1-0.2-0.1-0.2-0.2c0-0.1-0.1-0.2,0-0.3c0-0.1,0-0.1,0.1-0.2c0.1-0.2,0.2-0.3,0.3-0.5
	c0.1-0.1,0.2-0.3,0.3-0.4l0,0c0.6-0.7,1.4-1.4,2.2-2.1c0.1-0.1,0.5-0.4,1.2-1c0.1-0.1,0.1-0.1,0.2-0.2c0.4-0.3,0.8-0.6,1.3-1
	c0.1,0,0.1-0.1,0.2-0.1c-0.8,0.2-1.6,0.5-2.4,0.9c-0.1,0.1-0.2,0.1-0.3,0.2c0.1-0.1,0.2-0.1,0.3-0.2c0.3-0.2,0.6-0.3,0.9-0.5
	c0.3-0.3,0.6-0.6,1-1c1.5-1.6,2.3-2.6,2.2-3.1l-0.1-0.6c-1.8,0.1-4.4,1.6-7.8,4.3c0,0-0.1,0.1-0.1,0.1c-0.1,0.1-0.2,0.2-0.3,0.3
	c-1.6,1.3-2.8,2.6-3.6,3.7c-0.1,0.1-0.1,0.2-0.2,0.3c0,0.1-0.1,0.1-0.1,0.2C142.4,347.8,142.2,348,142.1,348.3z M431.6,406.5
	c3.1,1.3,3.7,2.3,1.6,3.1c-2,0.8-4.1,0.9-6.4,0.3C428.4,407.7,430.1,406.5,431.6,406.5z M421.5,394.3c0.1,0.2,0.1,0.3,0.2,0.5
	c0.2,0.3,0.3,0.6,0.5,0.9c0.6,1,1.4,2.1,2.3,3.1c0.9,1.1,1.7,2.1,2.5,2.9c0.6,0.6,1.2,1.1,1.7,1.6c-0.5,0.3-1.2,0.8-1.8,1.5
	c-0.1,0.1-0.1,0.2-0.2,0.2c-0.4,0.5-1.1,1.2-1.9,2.1c-1.5,1.5-3,1.8-4.6,1c-0.6-0.3-1.8-0.7-3.7-1.3c-0.1,0-0.2-0.1-0.4-0.1
	c-0.2-0.1-0.5-0.2-0.7-0.2c0.1-0.9,0.4-1.9,0.8-2.9c0.6-1.7,1.5-3.6,2.7-5.6c0.9-1.3,1.6-2.3,2.1-3.2
	C421.2,394.7,421.4,394.5,421.5,394.3z M342.1,322.2c1.6,0.2,3.2,0.5,4.7,0.6c1.5,0.2,3,0.3,4.4,0.4c1.8-0.2,3.9-1.4,6.4-3.4
	c2.6-2.1,4.7-3.3,6.3-3.7c3.9-0.9,6.3-1.3,7.2-1.4c1.5-0.2,2.9-0.2,4.2,0c0.6,0.1,1.2,0.2,1.8,0.3c0,0.1,0,0.1,0,0.2
	c0.1,0.3,0.3,0.4,0.8,0.3h0c-0.1,0.2-0.1,0.3-0.1,0.4c-0.2,0.2-0.5,0.3-0.8,0.5c-0.1,0.1-0.3,0.2-0.5,0.2c-0.5,0.2-1.1,0.5-1.7,0.7
	c-0.8,0.3-1.8,0.6-2.8,0.9c-3,0.9-5.1,1.7-6.3,2.6c-1.3,0.9-1.8,1.6-1.5,2.1c0.2,0.3,0.6,0.5,1.3,0.5c-3.2,1.1-5.9,1.9-8.1,2.5
	c-1.9,0.5-3.5,0.9-4.6,1.1l-31.1,0.4c-0.7-0.2-1.4-0.3-2.2-0.4c-0.6,0-2.3-0.1-4.9-0.1c-0.4,0-0.8-0.1-1.1-0.2
	c-0.5-0.2-0.8-0.7-0.8-1.4c0-0.9,0.4-1.9,1.1-3.2c0.4-0.8,1.1-1.8,2-3.2l-0.2-1.4c1.7-0.4,3.4-0.2,5,0.6c1.1,0.3,2.6,0.6,4.5,0.9
	c0.4,0.1,0.9,0.1,1.3,0.2c2.9,0.4,4.9,0.7,6,1c1.8,0.4,3.6,0.7,5.3,1C339.3,321.7,340.7,322,342.1,322.2z M341.3,21.5L341.3,21.5
	c-0.1-0.1-0.2-0.2-0.5-0.3c-0.5,0.4-1.2,1.6-2.3,3.6c-1,1.8-1.5,2.7-1.7,2.7c-0.2,0-0.4,0-0.5-0.1c0-0.1-0.1-0.1-0.2-0.1
	c-0.1,0.1-0.1,0-0.1-0.4c0.6-3.5,0.9-5.5,0.9-6c0-0.2-0.2-0.4-0.5-0.8c-0.7,0.8-1.1,1.8-1.4,3.2c-0.1,0.8-0.3,1.9-0.5,3.4h-1.9v-4.1
	c-0.1-1.6-0.4-2.5-1-2.5c-0.2,0-0.4,0-0.5,0.1c0,0.1,0,0.1-0.1,0.1v2.8c0,0.4,0.2,1.1,0.4,2.1c0,0.9-0.5,1.5-1.4,1.8
	c-0.1-0.7-0.4-2.1-1-4.1c-0.5-1.9-0.8-2.9-0.8-3.1c0-0.3,0.2-0.7,0.8-1.1c0.5-0.4,0.7-0.8,0.7-1.2c-0.1,0-0.3,0.1-0.4,0.1
	c2.1-0.4,4.2-0.4,6.4,0c2.5,0.5,4.5,1.6,5.8,3.1C341.4,21,341.4,21.2,341.3,21.5z M323.6,22l-0.2-2.4c0-2.4,0.1-4.6,0.5-6.7
	c0.4-2.7,1.1-5.1,2.1-7.3c1.3,0.1,2,0.6,2.3,1.7c0.2,0.8,0.2,2-0.2,3.6c-0.1,0.8-0.2,1.4-0.3,2c-0.1,0.9-0.2,1.6-0.2,1.9
	c0,1.3,0.3,2.2,1,2.7c-0.7,0.5-1.7,1.3-2.9,2.4C324.8,20.8,324.1,21.5,323.6,22z M340.4,25.4c-0.1,0.9-0.3,1.9-0.5,2.9
	c-0.2,2.1-0.9,4.5-2.2,7.2c-2,1.5-3.1,2.3-3.1,2.3c-2.5,0-5.1-0.8-7.8-2.4c-1.1-0.9-2-1.5-2.6-1.9c-0.3-4.4-0.5-7.7-0.5-10
	c0.3-0.3,0.8-0.8,1.3-1.4c0.9-1,1.6-1.5,2.1-1.5c0.9,3.2,1.3,4.8,1.3,4.8c0,0.5-0.2,1.3-0.7,2.5c-0.5,1.2-0.8,1.9-0.8,2.1
	c0,0.5,0.7,1.7,2,3.7c0.9,1.4,1.8,2.6,2.6,3.6c0.5-0.1,0.9-0.5,1-1c0-0.2,0.1-0.6,0.1-1.2c0-1.1-0.2-1.9-0.5-2.5
	c-0.4-0.8-0.6-1.9-0.9-3.5l1.5-0.1l3.4,0.2c0.1,0,0.3,0.1,0.7,0.3c0.4,0.1,0.7,0.2,0.9,0.2C338.6,29.8,339.4,28.3,340.4,25.4z
	 M274.7,50.7c-5.5,0.7-10,0.7-13.5,0c-4.9-1-8.3-3.5-10-7.4c0-0.1-0.1-0.2-0.1-0.2c-0.1,0-0.1,0.1-0.2,0.1c-0.9,0.5-2,0.7-3.2,0.6
	c-0.9-0.1-2.1-0.5-3.5-1.2c-1.1-1.1-2-2.3-2.5-3.5c-0.6-1.5-0.7-3-0.3-4.4c0.5,0.1,1.6,0.8,3.3,2.1c1.3,1,2.4,1.3,3.6,1
	c0.7-3.5,1-6,1-7.7c0.3-0.3,0.7-0.7,1.1-1.1c1.6-1.6,3.4-3.5,5.3-5.6c3.2-3.1,8.8-5,16.7-5.7c0.3,0,0.5,0,0.7-0.1
	c1.6,2.7,2.6,5.9,3.2,9.5c0.6,3.7,0.9,10.5,0.9,20.5C277.3,49.5,276.5,50.5,274.7,50.7z M156.1,248.6l-0.1-0.2l-0.4-0.8
	c-0.6-0.8-1.2-1.5-1.8-2.4c-1.7-2.1-3.1-4.4-4.4-6.6c-0.2-0.4-0.5-0.9-0.7-1.3c-0.8-1.6-1.5-3.2-2.2-4.8c0-0.1,0-0.1-0.1-0.2
	c-0.4-1-0.7-1.9-1-2.8c-0.4-1.1-0.7-2.1-0.8-3.2c1.5,0.4,2.7,0.5,3.7,0.5c4.6-0.5,8-1.3,9.9-2.4c1.2-0.7,2.6-1.2,3.9-1.5
	c1-0.2,2-0.4,3-0.5c0.8,0,1.7,0,2.6,0.2c0.2,0,0.3,0.1,0.5,0.1c0.5,2.1,1.9,4,4.2,5.8c0.6,0.5,1.3,1,2.2,1.4
	c0.2-0.1,0.4-0.2,0.6-0.2c0.1,0.9,0.6,1.3,1.6,1.2c1.1-0.1,1.8-1,2-2.5c-0.1-1.4-0.1-2.2-0.1-2.3c-0.1-0.9-0.4-1.7-1-2.4
	c0.3-0.6,0.6-1.1,0.9-1.4c0.9,0.6,1.3,1.6,1.4,2.9c0.1,0.7,0.2,1.8,0.2,3.3c0.1,1.3-0.5,2.7-1.6,4.2c-0.9,1.1-2.1,1.4-3.7,1.1
	c0.8,3.3,0,6.6-2.4,9.8c-0.9,1-2.2,2.3-3.8,3.8c-0.9,0.8-2.1,2-3.8,3.6l-1.6,0.5c-1.5,0.1-3.1,0.2-4.9,0.2c-0.5-0.6-1-1.1-1.4-1.6
	c-0.1-0.1-0.2-0.3-0.3-0.5c-0.1-0.1-0.2-0.2-0.3-0.3c0-0.1-0.1-0.3-0.2-0.3l-0.4-0.4C156.2,248.6,156.1,248.6,156.1,248.6
	L156.1,248.6z"/>
<path class="st16" d="M141.8,280.1c-0.2-2.8-0.3-5.4-0.2-7.9c0.3-11.5,3.7-19.2,10.2-22.9c0.9-0.4,1.8-0.8,2.7-1.2
	c0.4-0.1,0.8-0.3,1.1-0.5l0.4,0.8v0.1c-0.2,0.9-0.4,2.1-0.5,3.6c0,1.5-0.1,3.7-0.2,6.6c-0.1,1.1-0.1,1.9,0.1,2.4v0.2l1.7,6l0.8,2.2
	l2-1.4l6.5-4.4c5.5-5.3,9.2-8.9,11.1-10.6c1.8-1.9,3.8-3.7,5.9-5.5c2-1.8,3.4-3.9,4.2-6.4c0.5,0.4,1.1,0.8,1.8,1.3
	c0.2,0.1,0.6,0.3,0.9,0.5c0.6,0.4,1.2,0.9,1.9,1.4c0.7,0.6,1.6,1.2,2.4,1.8c3.1,2.4,5.4,4.1,6.9,5c2.5,1,4.8,2.3,6.6,4
	c-6.2-1.7-11.4-0.6-15.4,3.2c-1.5,1.4-2.9,3.2-4.1,5.4c-3.7,6.4-4.9,13.4-3.7,21c0.5,2.9,0.5,5.8-0.1,8.8c-0.3,1.3-0.6,2.7-1.1,4
	c-1.6,5.2-2.5,10.5-2.7,16c0,6.5-4.1,10-12.3,10.5c-8.1,0.4-13.5,0.2-16.3-0.7c-1.5-0.4-3-0.8-4.4-1.3c0.3-2.7,0.5-5.4,0.5-8.2
	c0.1-7.4-1-14.6-3.2-21.8C143.7,288.3,142.6,284.3,141.8,280.1z"/>
<path class="st17" d="M87.8,372.8c1.5,0.7,3.8,1.8,6.9,3.4c6.8,3.3,11.6,6.2,14.6,8.8c-0.2,0.1-0.5,0.3-0.9,0.5
	c-0.4,0.2-1.1,0.4-2,0.5c-0.7,0.1-3.3-0.2-7.8-1c-3.9-0.7-7-1.3-9.4-1.7c-0.5-0.1-2.6-0.8-6.3-2.1c-0.4-0.1-0.7-0.2-1-0.3
	c-0.5-1.2-0.5-2.4-0.1-3.8c1.1-1.4,2.5-2.5,4.3-3.5C86.6,373.4,87.2,373.1,87.8,372.8z"/>
<path class="st17" d="M176.7,370.6c0.6,1.1,1.4,3.2,2.7,6.4c0.3,0.7,0.6,1.5,0.9,2.3c0.9,2.4,1.8,4.4,2.8,6.1c-1-0.3-2-0.5-3.2-0.7
	c-5.6-0.8-8.6-3.1-9-6.7c0-0.6,0.1-1.2,0.4-1.8c0.5-1.1,1.5-2.2,2.9-3.4C175.3,371.9,176.2,371.2,176.7,370.6L176.7,370.6z"/>
<path class="st17" d="M209.1,375.3v-14.6c0-4.5,2.2-7.1,6.6-7.9l8.9-1.6l13.1-2.3c0.5-0.1,1.1-0.2,1.6-0.2c0.5,0,1,0,1.4,0.1h0.2
	l1.8,0.3l4.1,0.8c-0.7-0.1-1.5,0-2.5,0.2l-21.9,3.9c-4.4,0.8-6.6,3.4-6.6,7.9v22.3c0,0.1,0,0.3,0,0.4c0.1,1.7,0.5,3,1.2,3.9
	c0.6,0.7,1.4,1.2,2.4,1.4l-7.1-1.2c-1.4-0.4-2.3-1.4-2.8-3c-0.2-0.8-0.3-1.7-0.3-2.7V375.3z"/>
<path class="st17" d="M292.5,138.6c0,0-0.1,0-0.1,0c0,0.2,0,0.5,0,0.8c0,2.2,0.2,4.8,0.6,7.7c0,0.2,0.1,0.4,0.1,0.6
	c0.1,0.5,0.4,2.2,0.9,5c0.2,1.1,0.4,2.4,0.7,3.9c0.2,1.3,0.7,3.4,1.6,6.2c0.9,2.9,1.5,5,1.7,6.5c1,5.1,0.2,9.3-2.4,12.3
	c-1.1,1-2.3,1.8-3.6,2.6c-0.5,0.3-1,0.6-1.6,0.9c-0.7,0.4-1.4,0.7-2.1,1.1c-0.1-1.3-0.3-2.7-0.5-4.3c-0.8-7.1-1.1-11.8-1.1-14.2
	c0-1.7,0-7.2-0.1-16.4c0-0.8,0-1.6,0-2.4c0-1,0-2,0-3c0-9.2,0.2-15.7,0.5-19.6c0.3-4.3,0.5-7.4,0.5-9.1c0-1.8,0.2-6.5,0.7-14
	c0.4-7.6,0.9-13.2,1.5-16.8c0.2-1.2,0.4-2.1,0.5-2.7c0-0.3-0.4-1.1-1.2-2.3c-0.8-1.2-2.1-3.3-3.8-6.2c0.3-0.8,1.7-1.5,4.2-1.9
	c-1.9-3.9-3-6.1-3.5-6.7c-1.9-2.1-3.1-3.6-3.9-4.6c-1-1.3-1.9-2.4-2.5-3.2c1.7,0.3,3.8,0.5,6.5,0.6c1.7,0.2,3.1,0.6,4.4,1.2
	c0,0,0.1,0,0.1,0.1c0.9,0.4,1.6,0.9,2.3,1.4c0.3,0.2,0.6,0.5,0.8,0.8c1.5,2.1,2.4,4.5,2.8,7.2c0,0.3,0.4,1.5,1.3,3.7
	c0.8,2.2,0.8,9.4-0.1,21.6c0,0.8,0.1,1.6,0.1,2.4c-1.4,5.6-2.6,11.8-3.4,18.7c-0.6,4.6-1.1,10.5-1.6,17.6c0,0.5-0.1,0.9-0.2,1.3
	c0,0,0,0,0.1-0.1L292.5,138.6z"/>
<path class="st17" d="M251,182.8c-0.6-0.2-1.2-0.4-1.8-0.6c-1.1-0.4-2.2-0.9-3.3-1.3c0.6-1.3,1.2-2.6,1.8-3.8
	c8.6-19.3,10.4-39.7,5.5-61.2c-2.9-12.5-6.7-24.7-11.6-36.5c-2.2-5.3-5.4-9.8-9.7-13.6c1.1-0.5,2.3-1.1,3.6-1.7c3-1.5,5.6-3,7.6-4.6
	c0.4,0.6,0.7,1,0.7,1.2c0,1.9,0.2,7.6,0.5,17.1L255,78c-0.7,1.2-1.5,3-2.5,5.4c-1,2.3-1.5,4-1.8,5.2c7.4,4.5,11.7,8.9,13,13.2
	c1.9,6.3,4.1,13,6.6,20.2c2.4,7,4,14.3,4.8,21.9c0,0.2,0,0.4,0.1,0.5c0.2,1.7,0.3,3.3,0.5,5c0.6,6.1,1.1,12.1,1.5,18
	c0.6,7.5,1.1,14.6,1.7,21.2c0.3,0,0.5,0,0.8,0c-7.1-0.1-14.6-1.3-22.5-3.7c-0.7-0.2-1.4-0.4-2-0.6
	C253.8,183.8,252.4,183.3,251,182.8z"/>
<path class="st17" d="M225.5,150.6c-5.2-5.3-9.2-9.6-12.2-12.8c-12-12.8-18-21.7-18-26.7c0-1.2,0.2-2.6,0.6-4.2
	c3.2-4.2,5.9-8.1,8.3-11.4c4.5-6.5,8.3-12.7,11.4-18.6c0.5-0.7,1.1-1.4,1.7-2.1c0.9-1,1.9-1.9,2.9-2.8c1.8-1.4,3.7-2.6,5.7-3.4
	c6.2,2.3,10.6,6.1,13.3,11.5c-0.3,0.2-0.7,0.4-1,0.7c-5.1,3.4-9.6,7.4-13.6,12.1c-3.1,3.1-5.9,6.1-8.5,9c-4.9,5.5-7.4,9.1-7.4,10.8
	c0,0.5,1.3,2.4,3.8,5.8c1.9,2.6,3.6,4.3,4.9,5.1c1.7,2,3.4,4.5,5.2,7.4c4.3,7,6.6,10.8,7,11.3c0.6,2.9-0.5,5.5-3.3,7.7
	c-0.1,0.1-0.3,0.2-0.4,0.3C225.7,150.5,225.6,150.6,225.5,150.6L225.5,150.6z"/>
<path class="st18" d="M154.7,380.5c0.1-0.3,0.1-0.5,0.2-0.7c0-0.1,0.6-1.2,1.7-3.3l-0.1-1.2c0.6,0.1,1.2,0.3,1.7,0.4
	c1.3,0.3,2.4,0.5,3.2,0.5c2,0.3,3.7,0.3,5.1,0c0.1-0.1,0.3-0.2,0.5-0.3c2.8-1.8,6-3.6,9.8-5.3v0.1c-0.6,0.5-1.4,1.2-2.5,2.1
	c-1.5,1.2-2.4,2.3-2.9,3.4c-0.3,0.6-0.4,1.3-0.4,1.8c0.4,3.6,3.4,5.9,9,6.7c1.1,0.2,2.2,0.4,3.2,0.7c0.5,0.8,0.9,1.5,1.4,2.3
	c0,0-0.1,0.1-0.1,0.1c-0.9,1.2-2.3,1.6-4.2,1.2c-0.5,0-1.1-0.2-1.7-0.4c-0.8-0.2-1.8-0.6-3-1.1c-1.5-0.5-3.8-1.1-6.8-1.8
	c0,0-0.1,0-0.3-0.1c-0.4,0-0.8-0.1-1.3-0.2v-0.1c0-0.1-0.1-0.2-0.2-0.3c0,0.1,0,0.2-0.1,0.4c-1.9-0.5-3.6-0.7-5-0.6
	c-0.7,0.4-1.5,0.4-2.4-0.2c-2.1-0.9-3.5-1.4-4.1-1.5C154.8,382.4,154.6,381.5,154.7,380.5z"/>
<path class="st18" d="M85.8,384.1c-0.2-0.1-0.5-0.2-0.7-0.3c-1.4-0.5-2.4-1.3-3-2.6c-0.1-0.1-0.1-0.2-0.2-0.3c0.3,0,0.7,0.1,1,0.3
	c3.7,1.3,5.8,2,6.3,2.1c2.4,0.5,5.5,1,9.4,1.7c4.5,0.8,7.1,1.1,7.8,1c0.9-0.1,1.6-0.2,2-0.5c0.3-0.2,0.6-0.4,0.9-0.5
	c-3-2.6-7.8-5.5-14.6-8.8c-3.1-1.6-5.4-2.7-6.9-3.4c0.9-0.5,2.1-1,3.4-1.7c1,0.2,2.3,0.5,3.9,1c1.8,0.4,3.5,0.9,5.2,1.3
	c1.8,0.5,3.1,0.9,4,1.2c3.6,0.9,8.3,2.2,14,4l-2.4,2.2c-0.2,1.1-0.1,2.3,0.4,3.4c0.2,0.4,0.5,0.8,0.9,1.2c0.7,1,1.9,1.9,3.6,2.9
	c-0.6,0-1.9,0-3.8-0.1c-1.6-0.1-3-0.1-4.2,0.1l-4.6-0.1l-1.3,0c-3.4,0.4-7.1,0.1-11.1-0.8C92.8,386.7,89.4,385.6,85.8,384.1z"/>
<path class="st18" d="M239.2,80.1c0.6,1.2,1.2,2.5,1.6,3.9c0.4,1.4,0.6,2.7,0.6,3.9c0,1.8-0.8,3.2-2.2,4.2c-2.2,1.6-4.2,3.5-6.1,5.6
	c-2.2,2.4-4.3,5-6.2,7.7c-1.6,1.8-3.6,4.2-6.2,7.5c-1.3,1.7-2.5,3.1-3.5,4.3c-1.1,1.4-2,2.5-2.7,3.2c0.9,0.8,1.8,1.8,2.7,2.9
	c0,0.1,0.1,0.1,0.1,0.2c-1.3-0.8-2.9-2.5-4.9-5.1c-2.5-3.4-3.8-5.4-3.8-5.8c0-1.7,2.5-5.3,7.4-10.8c2.5-2.8,5.4-5.8,8.5-9
	c4-4.6,8.5-8.7,13.6-12.1C238.6,80.6,238.9,80.3,239.2,80.1z"/>
<path class="st18" d="M339.6,99.1c-0.4-0.1-0.7-0.2-1.1-0.2c-10-2.1-16-3.6-18-4.7c-3-1.6-6-3.6-8.8-6c-3.1-2.6-5-4.8-5.6-6.4
	c-2.1-6.4-4.3-11.6-6.6-15.7l24,14.8v-6.3c0-2,0.1-3.9,0.3-5.9c0.1-2.1,0.2-4.2,0.3-6.4c0-0.5,0-1.1,0.1-1.6l0-1.7
	c0.1-1.7,0.1-3.3,0.2-5c0-0.7,0.1-1.3,0.1-1.9c1.9,0.3,3.9,0.5,5.8,0.6c0.6,0.1,1.2,0.1,1.7,0.1c1.7,0.1,3.4,0.1,5.1,0
	c0.3,0,0.6,0,0.9-0.1c0.2,0,0.3,0,0.5-0.1c0.3,0,0.7-0.1,1-0.1c0.6,2.9,1.1,5.7,1.3,8.5c0.2,2.5,0.4,4.9,0.5,7.4
	c0.1,2,0.2,4.4,0.4,7.3c0.2,2.1,0.4,4.5,0.6,7.3c0.1,1.1,0.2,2.2,0.3,3.4c0.4,4.3,0,7.5-1,9.7C341.1,97.4,340.4,98.3,339.6,99.1z"/>
<path class="st18" d="M288.3,186.2c-1.4,0.6-2.8,1.2-4.3,1.7c-0.7,0.2-1.4,0.4-2.1,0.6c-0.8,0-1.5,0-2.3,0c-0.3,0-0.5,0-0.8,0
	c-0.6-6.6-1.1-13.7-1.7-21.2c-0.4-5.9-1-11.9-1.5-18c-0.2-1.7-0.3-3.3-0.5-5c0-0.2,0-0.4-0.1-0.5c-0.8-7.6-2.4-14.9-4.8-21.9
	c-2.5-7.2-4.6-13.9-6.6-20.2c-1.3-4.3-5.6-8.7-13-13.2c0.2-1.1,0.8-2.9,1.8-5.2c1-2.4,1.8-4.2,2.5-5.4l-10.7-0.3
	c-0.3-9.5-0.5-15.2-0.5-17.1c0-0.1-0.2-0.5-0.7-1.2c0.2-0.2,0.5-0.4,0.7-0.5c0.3-0.2,0.5-0.4,0.8-0.6c3,0.7,5.7,2.2,8.1,4.3
	c2.4,2.2,3.7,3.4,3.9,3.6c0.2,0.2,0.4,0.4,0.7,0.6c0.2,0.1,0.3,0.2,0.5,0.3v0c2.2,3,4.2,5.8,6,8.7c7.5,11.8,11.7,22.3,12.5,31.5
	c0.9,9.9,2,22.4,3.5,37.5c0.2,1.8,0.3,3.6,0.5,5.5c0,0.4,0.1,0.9,0.1,1.3c0.1-0.4,0.1-0.8,0.2-1.2c0.1,0.6,0.2,1.1,0.3,1.6
	c0.5,1.8,1.3,3,2.5,3.6l1-59.2c-0.4-5.6-1.3-11.4-2.8-17.2c-0.1-0.4-0.3-0.8-0.4-1.2c-0.7-2.4-1.3-4.4-1.8-6
	c0.6-1.4,0.8-3.1,0.7-4.9c-0.1-0.6-0.2-1.2-0.3-1.8c-0.1-0.4-0.2-0.8-0.4-1.4c-0.4-1.3-1.1-3.1-2-5.4c0.3,0.1,0.6,0.2,1,0.2
	c0.3,0.1,0.7,0.1,1.1,0.2v0c0.7,0.8,1.5,1.9,2.5,3.2c0.7,1,2,2.5,3.9,4.6c0.5,0.6,1.6,2.8,3.5,6.7c-2.5,0.4-4,1-4.2,1.9
	c1.8,2.9,3,5,3.8,6.2c0.8,1.2,1.2,2,1.2,2.3c-0.1,0.6-0.3,1.5-0.5,2.7c-0.6,3.6-1.1,9.2-1.5,16.8c-0.4,7.6-0.6,12.3-0.7,14
	c0,1.8-0.2,4.8-0.5,9.1c-0.3,3.9-0.5,10.4-0.5,19.6c0,1,0,2,0,3c0,0.8,0,1.7,0,2.4c0,9.3,0.1,14.8,0.1,16.4c0,2.3,0.4,7,1.1,14.2
	C288,183.5,288.1,184.9,288.3,186.2z"/>
<path class="st18" d="M195.9,106.9c-0.4,1.6-0.6,3.1-0.6,4.2c0,5,6,14,18,26.7c3,3.2,7,7.4,12.2,12.8c-1.9,1.4-4.1,2.3-6.6,2.6
	c-0.1,0-0.1,0-0.2,0c-0.1,0-0.1,0-0.2,0c-0.2,0-0.3,0-0.5,0.1c-0.1-0.1-0.4-0.3-0.8-0.7c-1.5-1.2-4.9-4.1-10.2-8.4
	c-4.5-3.7-8.2-6.8-11.3-9.2c-3.2-2.5-5.3-5.8-6.4-10.1c-1.1-4.2-0.5-8.1,1.8-11.7C192.8,111,194.4,108.9,195.9,106.9L195.9,106.9z"
	/>
<path id="Fill-24" class="st19" d="M248.6,53.2l0.5,1.4c-1,0.2-1.6-0.1-1.9-0.8c-0.1-0.2-0.1-0.3-0.1-0.4c0-0.1,0-0.1,0.1-0.1v-0.1
	C247.4,53,247.8,53,248.6,53.2L248.6,53.2"/>
<path id="Fill-25" class="st20" d="M250.2,352l-20.6,3.6c-2.7,0.5-4.6,1.6-5.6,3.5c-0.7,1.2-1,2.7-1,4.4v22.3c0,1.6,0.3,2.8,0.8,3.8
	l-1.4,0.2c-1.2,0.2-2.2,0.3-3.1,0.1c-1-0.2-1.8-0.7-2.4-1.4c-0.7-0.9-1.1-2.2-1.2-3.9c0-0.1,0-0.3,0-0.4v-22.3
	c0-4.5,2.2-7.1,6.6-7.9l21.9-3.9c0.9-0.2,1.8-0.2,2.5-0.2c0.4,0,0.8,0.1,1.2,0.2C249,350.5,249.7,351.1,250.2,352z M297.7,95.3
	c0.9-12.2,0.9-19.4,0.1-21.6c-0.8-2.2-1.3-3.4-1.3-3.7c-0.4-2.7-1.3-5.1-2.8-7.2c-0.3-0.3-0.5-0.5-0.8-0.8l6.5,4v0
	c2.4,4.1,4.6,9.3,6.6,15.7c0.6,1.7,2.5,3.8,5.6,6.4c2.9,2.4,5.8,4.4,8.8,6c2,1,8,2.6,18,4.7c0.4,0.1,0.7,0.2,1.1,0.2
	c-1,1.1-2.4,2-4,2.9c-3.4,1.8-7,2.7-10.8,2.7c-2.5-0.2-4.9-0.6-7.3-1c-0.8-0.2-1.7-0.4-2.5-0.6c-3.3-0.8-5.9-1.7-8-2.8
	C304.7,99.1,301.6,97.5,297.7,95.3z M245.9,180.8l-12.1-5.5c-1.4-0.4-2.1-1.3-2.1-2.6c-0.1-3.3,0.5-6.5,2-9.5
	c0.6,0.2,1.1,0.5,1.7,0.8c1.2,0.6,2.5,1.2,3.8,1.9c0,0,0.1,0,0.1,0.1c1,0.5,2,0.6,2.8,0.4c1-0.2,1.9-0.8,2.7-1.8
	c2.7-3.3,3.1-6.8,1.2-10.7c-1.7-3.4-4.2-4.9-7.7-4.6c-0.4,0-0.8,0.1-1.2,0.2c2-6.5,1.8-12.8-0.6-19.1c-3.1-8.4-6.3-16.6-9.6-24.8
	c2-2.7,4-5.3,6.2-7.7c1.9-2.1,3.9-4,6.1-5.6c1.4-1,2.2-2.4,2.2-4.2c0-1.3-0.2-2.6-0.6-3.9c-0.4-1.4-1-2.7-1.6-3.9
	c-2.7-5.4-7.2-9.2-13.3-11.5l6.1-2.9c4.3,3.8,7.5,8.3,9.7,13.6c4.9,11.8,8.8,24,11.6,36.5c4.9,21.5,3,42-5.5,61.2
	C247.2,178.3,246.5,179.5,245.9,180.8L245.9,180.8z"/>
<polyline id="Fill-26" class="st21" points="156,248.5 156,248.4 156.1,248.6 156,248.5 "/>
<path id="Fill-27" class="st22" d="M150.8,343.7c0.7-0.3,1.4-0.6,2.1-0.8c-0.5,0.4-0.9,0.7-1.3,1L150.8,343.7z M158.3,255.9
	c-0.2,1-0.4,1.9-0.4,2.7c-0.1-0.2-0.3-0.3-0.5-0.3C157.8,257.6,158.1,256.8,158.3,255.9L158.3,255.9z"/>
<path id="Fill-28" class="st23" d="M200.6,342.9c0.6,2.7,1.1,5,1.6,7c1,6.1-0.2,10.4-3.5,12.9c-0.1-0.1-0.2-0.1-0.3-0.2
	c0.5-1.9,0.7-3.2,0.8-4.1c0-1.6-0.3-2.8-0.9-3.6c-1-1.5-2.1-3-3.5-4.5c-1.4-1.5-2.8-3.1-4.4-4.8c-0.3-0.3-0.6-0.6-0.9-0.9
	c-1.2-1.2-2.4-2.1-3.5-2.7c-0.9-0.6-2-1-3.2-1.3c2.7-0.8,5.3-1.7,7.8-2.5c2.1-0.7,4.9-1.7,8.3-3.1
	C199.5,338,200.1,340.6,200.6,342.9z M212.5,261.5c-3.3-4.8-7.1-6.4-11.5-4.9c-1.3,0.5-2.6,1.2-4.1,2.3c-1.6,1.1-2.9,2.4-4.1,3.7
	c-1.9,2.1-3.1,4.5-3.8,7c-0.3,1.8-0.4,3.6-0.3,5.5c0.3,0.5,0.6,0.9,0.8,1.4c2.3,4.7,3.7,10.8,4.3,18.2c0,0.2,0,0.4,0.1,0.6
	c0.2,2.4,0.4,6,0.5,10.8c0.2,4.1,0.6,7.6,1.1,10.4v0.1c-0.3,0.1-0.6,0.3-1,0.4c-1,0.3-2,0.7-3.1,1.2c-2.5,1-5.2,2.3-8.1,3.8
	c-4.7,2.2-7.3,3.6-7.7,4.2c-2.1,0.2-4.3,0.8-6.5,1.9c-1.7,0.7-3.7,1.8-6.1,3.3c-2.1,0.3-5.4,0.4-9.8,0.5c-3.6,0.3-6.5,1.3-8.9,2.9
	c1.6-4.2,2.8-8.6,3.4-13.1c1.4,0.5,2.9,0.9,4.4,1.3c2.8,0.9,8.2,1.1,16.3,0.7c8.2-0.5,12.3-4,12.3-10.5c0.2-5.4,1.1-10.8,2.7-16
	c0.5-1.3,0.9-2.7,1.1-4c0.6-2.9,0.6-5.9,0.1-8.8c-1.2-7.6,0-14.6,3.7-21c1.2-2.2,2.6-4,4.1-5.4c4.1-3.8,9.2-4.9,15.4-3.2
	c0.1,0,0.1,0,0.1,0.1c2.1,2,3.6,4.1,4.4,6.4C212.6,261.7,212.5,261.6,212.5,261.5L212.5,261.5z"/>
<path id="Fill-29" class="st24" d="M366.7,322.3c0.1,0.1,0.2,0.4,0.5,0.9c-0.1,0-0.1,0-0.2,0c-0.5,0.1-1,0.2-1.4,0.1h0
	c-0.6,0-1-0.2-1.3-0.5c-0.3-0.5,0.2-1.2,1.5-2.1C365.9,320.9,366.2,321.4,366.7,322.3z M332.6,246.6c-1.2,0.8-2.2,1.8-3.2,3
	c-0.6,0.8-1.2,1.6-1.6,2.5c-0.2-0.2-0.4-0.5-0.5-0.8c-0.3-0.4-0.5-0.8-0.7-1.2c-0.1-0.3-0.2-0.5-0.3-0.8c-0.4-1-0.6-2-0.6-3.1
	c0-4,1.8-5.8,5.3-5.5c0.1,0,0.2,0,0.3,0.1c-0.1,0.7-0.2,1.3-0.3,1.9c-0.3,0.8-0.4,1.5-0.1,2.2c0.2,0.6,0.7,1.1,1.4,1.5
	C332.4,246.5,332.5,246.5,332.6,246.6L332.6,246.6z M272,70.5l0.3-0.9c0.3-1.3,0.5-2.2,0.5-2.8c0-0.9-0.3-1.4-0.9-1.7
	c0.6-0.5,1.5-0.7,2.8-0.7c0.7,0,1.3,0.1,1.8,0.3c-0.1,0.3-0.1,0.7,0,1c0,0,0,0.1,0,0.1c0.1,0.2,0.2,0.5,0.3,0.8l0.4,1.1
	c-0.7,1.9-0.7,4,0.2,6.5c0.2,0.7,0.5,1.6,1,2.6c-0.4,0.8-1.1,1.2-2.1,1.2c-0.4,0-0.8-0.1-1.1-0.2c-0.7-2.6-1.5-4.7-2.4-6.2
	C272.5,71.2,272.3,70.9,272,70.5z M357.7,331.3c-1.7,0.1-3.6,0.1-5.8,0c-0.5,0-0.9,0-1.4,0c-4.2-0.1-7.1-0.1-8.8,0
	c-2.7,0.3-5.1,0.9-7.2,1.8c-0.8,0.4-1.5,0.8-2.2,1.2c0-0.4,0.1-0.7,0.1-1c0.2-0.8,0.4-1.6,0.6-2.3c0.7-0.2,1.4-0.3,2.2-0.4
	c1.2-0.2,2.5-0.3,3.8-0.5c0.7-0.1,1.4-0.1,2.1-0.1c3.6-0.1,6.3-0.1,8.1-0.2c1.1,0,2.2-0.1,3.3-0.2c3.6-0.3,6.6-0.8,9.2-1.5
	L357.7,331.3z M371.6,293.6c0,0.4-0.1,0.7-0.1,1c0,0.3-0.1,0.5-0.2,0.8l-1.1,2.3c0,0-0.1,0.1-0.1,0.1c-2.8,2.9-4.7,5.6-5.7,8.3
	c0,0.1-0.1,0.1-0.1,0.2c-0.1,0-0.2,0-0.3,0c-3.8,0-7.1,0.6-10,1.8c-4.2,1.7-7.5,4.7-9.8,9c-0.9,1.7-1.6,3.4-2.1,5.1
	c-1.4-0.2-2.8-0.5-4.2-0.7c-1.7-0.3-3.5-0.7-5.3-1c-0.3-0.7-0.6-1.6-1-2.5c-0.8-1.9-1.9-4.3-3.2-7.2c-1.3-2.8-2.4-5.2-3.1-7.2
	c-0.4-1-0.7-1.9-0.9-2.7c0.3-3.1,0.6-5.5,0.9-7.1c0-0.2,0-0.3,0.1-0.5c0.3-2.6,0.9-4.8,1.7-6.5c2-1.5,3.4-2.6,4.3-3.4
	c0.2-0.1,0.3-0.3,0.4-0.4c1.3-1.4,1.9-2.9,1.8-4.4c0,0,0-0.1,0-0.1c-0.1-0.5-0.1-1-0.2-1.5c0-0.1,0-0.1,0-0.2
	c-0.1-0.6-0.3-1.2-0.5-1.8c-0.2-0.5-0.4-0.9-0.6-1.4c-0.6-1.1-1.3-2.2-2.1-3.2c-1.4-1.6-2.9-2.8-4.6-3.7c-0.9-0.4-1.9-0.8-2.9-1
	c0.8-0.5,1.7-1,2.5-1.5c0.3,0.2,0.6,0.4,0.8,0.6c4.9,2.6,8.3,5.9,10,9.7c1.1,2.4,1.7,5.7,1.7,9.8c0,3.9,0.4,6.4,1,7.5
	c1.1,1.9,3.5,2.9,7.3,3c0.2,0,0.4,0,0.6,0c1.6,0,3.5-0.8,5.7-2.3c1.4-1,2.7-1.7,3.7-2.1c0.5-0.2,1-0.3,1.4-0.3
	c0.6,0,1.9,0.3,4.1,0.8c2.1,0.5,3.5,0.8,4.1,0.8c1.8,0,3.3-0.9,4.5-2.8c0.2-0.3,0.4-0.6,0.6-0.8c0.1,0.1,0.1,0.3,0.2,0.4l0.7,1.7
	c0,0.1,0.1,0.1,0.1,0.2L371.6,293.6L371.6,293.6z"/>
<path id="Fill-30" class="st25" d="M257.3,66.7c2.7,1.5,6.5,3.6,11.4,6.3c0.9,0.8,1.7,0.8,2.3,0.1c0.3-0.4,0.7-1.3,1.1-2.6
	c0.2,0.4,0.4,0.7,0.6,1c0.9,1.5,1.7,3.6,2.4,6.2c0,0.1,0,0.1,0.1,0.2c0,0.1,0.1,0.3,0.1,0.4l1.1,5.3c0,0.3,0.1,0.6,0.1,0.9
	c-3.1-0.6-7.2-3.4-12.4-8.5c-0.1-0.1-0.2-0.2-0.3-0.3c-1.8-2.8-3.8-5.7-6-8.7v0C257.7,66.9,257.5,66.8,257.3,66.7z M281.4,77.8
	c-0.4,1.5-0.8,2.6-1.2,3.4v0c-0.1-0.1-0.1-0.3-0.2-0.4c-0.1-0.1-0.1-0.3-0.2-0.4c-0.6-1.4-1.1-2.6-1.6-3.6c-0.4-1-0.7-1.9-1-2.6
	c-0.8-2.5-0.9-4.7-0.2-6.5c1,2,1.7,3.5,2.3,4.4c0.1-0.1,0.1-0.2,0.2-0.3C280,73.3,280.6,75.4,281.4,77.8L281.4,77.8z"/>
<path id="Fill-31" class="st26" d="M272,56.8c-0.2-1.4-0.3-2.5-0.4-3.2c3.1,2.3,4.9,4.8,5.5,7.7C274.9,59.3,273.2,57.8,272,56.8"/>
<path id="Fill-32" class="st27" d="M237.9,392.3l-1.6,0.3c-1.2,0.2-2.2,0.3-3.1,0.1c-1-0.2-1.8-0.7-2.4-1.4
	c-0.6-0.7-0.9-1.6-1.1-2.8c-0.1-0.5-0.1-1-0.1-1.5v-22.3c0-1.7,0.3-3.1,0.9-4.2c1-2,2.9-3.2,5.7-3.7l21.9-3.9c0.5-0.1,1-0.2,1.5-0.2
	c0.4,0,0.7,0,1,0c0.4,0,0.8,0.1,1.2,0.2c0.9,0.3,1.6,0.8,2.1,1.6l-20.4,3.6c-4.2,0.7-6.4,3.1-6.6,7.2c0,0.2,0,0.4,0,0.7v22.3
	C237,390,237.3,391.3,237.9,392.3z M332.1,254.3c-1.6-0.1-3-0.8-4.2-2.2c0.4-0.8,0.9-1.6,1.6-2.5c0.9-1.2,2-2.2,3.2-3
	c0.9,0.4,2.2,0.8,4.1,1.1c-0.1,1-0.3,2.4-0.4,4.2C334.9,252.1,333.5,252.9,332.1,254.3L332.1,254.3z"/>
<path id="Fill-33" class="st28" d="M278.9,362.8v20.5c0,1.5-0.2,2.7-0.7,3.8c-1,2.3-3,3.6-6,4.2l-21.9,3.9c-1.2,0.3-2.2,0.3-3.1,0.1
	c-1-0.2-1.8-0.7-2.4-1.4c-0.5-0.7-0.9-1.5-1-2.5c-0.1-0.5-0.1-1.1-0.1-1.8v-22.3c0-0.4,0-0.8,0.1-1.2c0.3-3.1,1.8-5.2,4.6-6.2
	c0.6-0.2,1.3-0.4,2-0.5l21.9-3.9c0.9-0.2,1.8-0.2,2.5-0.2c0.4,0,0.8,0.1,1.2,0.2c1.8,0.5,2.8,2,3,4.4c0,0.3,0,0.6,0,1V362.8"/>
<path id="Fill-34" class="st29" d="M247.2,395.2l-7.1-1.2c-1-0.3-1.7-0.9-2.2-1.7c-0.6-1-0.9-2.3-0.9-4V366c0-0.2,0-0.5,0-0.7
	c0.2-4.1,2.4-6.5,6.6-7.2l20.4-3.6l1.6-0.3c1.1-0.2,2.1-0.2,3-0.1h0.2l6,1.1c-0.7-0.1-1.5,0-2.5,0.2l-21.9,3.9
	c-0.7,0.1-1.4,0.3-2,0.5c-2.8,1-4.3,3.1-4.6,6.2c0,0.4-0.1,0.8-0.1,1.2v22.3c0,0.7,0,1.2,0.1,1.8c0.2,1,0.5,1.9,1,2.5
	C245.4,394.5,246.2,395,247.2,395.2"/>
<path id="Fill-35" class="st30" d="M191.6,379.4c-1.6,1.8-3.4,3.2-5.5,4.2c-0.6-0.8-1.3-2-2-3.8c-0.3-0.9-0.5-1.6-0.8-2.3
	c-0.4-1.1-0.7-1.9-1-2.5c-1.4-3.7-3.3-5.1-5.6-4.4c-3.8,1.7-7,3.5-9.8,5.3c-0.2,0.1-0.3,0.2-0.5,0.3c-1.4,0.3-3.1,0.3-5.1,0
	c-0.8-0.1-1.9-0.3-3.2-0.5c-0.5-0.1-1.1-0.2-1.7-0.4l-2.5-1.1c3-8.4,7.9-15.3,14.6-20.6c0-0.5,0-0.9-0.1-1.3l6.5-1.2
	c1-0.1,1.6-0.6,1.8-1.5l-0.2-1.2v-0.2l-0.1-0.1l-0.2-0.1l-0.6-0.2l-13.5-2.3c2.5-0.9,5.2-1.8,8.2-2.7c3.2,0,6.6-0.4,10.1-1.3
	c0.8-0.2,1.5-0.5,2.3-0.7c1.2,0.3,2.3,0.8,3.2,1.3c1.1,0.6,2.2,1.5,3.5,2.7c0.3,0.3,0.6,0.6,0.9,0.9c1.6,1.6,3,3.2,4.4,4.8
	c1.4,1.5,2.5,3,3.5,4.5c0.6,0.8,0.9,2,0.9,3.6c-0.1,0.9-0.3,2.2-0.8,4.1c0,0.1,0,0.2-0.1,0.3c-0.9,5-2.1,9-3.6,11.9
	C193.8,376.6,192.8,378.1,191.6,379.4"/>
<path id="Fill-36" d="M141.5,354.2l0.2,0.1v0.1h0.1v-0.1h-0.1l-0.1-0.1H141.5z M141.4,354.2l-0.2-0.1l-0.2,0.2L141.4,354.2l-0.3,0.2
	L141.4,354.2z M142.4,354.2h-0.1v0.1L142.4,354.2L142.4,354.2l0.2-0.1v-0.1h-0.2l0.2,0.1L142.4,354.2z M139.9,346.4l1.4,0.2
	c-0.1,0.1-0.1,0.2-0.1,0.3l-1.8-0.3C139.5,346.6,139.7,346.5,139.9,346.4z M144.8,347.6c0.1-0.1,0.3-0.2,0.4-0.3l0.5,0.1h1l1.3-0.2
	c-0.1,0.1-0.2,0.3-0.3,0.4c-0.1,0.2-0.2,0.4-0.3,0.5l-1.3-0.2H146L144.8,347.6z M150.8,343.7l0.9,0.2c-0.1,0.1-0.1,0.1-0.2,0.2
	l-1.1-0.2C150.5,343.8,150.6,343.7,150.8,343.7L150.8,343.7z M162.3,345.5l13.5,2.3l0.6,0.2l0.2,0.1l0.1,0.1v0.2h-0.2l-33.1,6
	l-2.7,0.2l-0.1-0.5h-0.1l-0.2-0.4l1.2,0.1l17.4-3.2v-0.1l0.6-0.1l0.2-0.1l-0.1-0.2h-0.3l-9.5-1.7c0.5-0.1,1-0.3,1.6-0.5
	c0.2,0,0.3,0,0.4-0.1c4.1-1.4,6.6-2.4,7.6-3L162.3,345.5L162.3,345.5z"/>
<path id="Fill-37" class="st31" d="M141.2,346.6l-1.4-0.2c0.4-0.2,0.8-0.5,1.2-0.9c0.8-0.6,1.2-0.9,1.3-1c0.2-0.1-0.1,0.4-0.8,1.4
	C141.4,346.2,141.3,346.4,141.2,346.6z M137.1,345.9l-1.1-2.1c0.6,0.1,1.2,0.1,1.9-0.1c-0.1,0.4-0.3,1.1-0.6,2h-0.1
	C137.2,345.7,137.2,345.8,137.1,345.9z M150.4,343.9l1.1,0.2c-0.7,0.5-1.1,0.9-1.2,1c-0.9,0.7-1.6,1.4-2.2,2.1l-1.4,0.3h-1l-0.5-0.1
	c0.2-0.2,0.3-0.4,0.5-0.6c0,0,0.1-0.1,0.3-0.2c0.1-0.2,0.2-0.3,0.3-0.3c0.1-0.1,0.2-0.2,0.4-0.3L150.4,343.9L150.4,343.9
	L150.4,343.9z"/>
<path id="Fill-38" class="st32" d="M145.1,351.3l-2.2-0.5l-2.7,0.5l2.2,0.4L145.1,351.3z M141.3,349.4l0.4-0.1l2.2-0.5l-2.2-0.4
	l-2.5,0.4L141.3,349.4z M145.6,350.3l-2.2-0.5l-0.4,0.1l-2.2,0.4l2.2,0.4h0.3L145.6,350.3L145.6,350.3z M151.2,351.3l-4.9-0.9
	l-2.3,0.4v0.1l4.6,0.8L151.2,351.3z M148.1,351.7L148.1,351.7l-2.4-0.4l-2.5,0.5l0.1,0.1l2.7,0.4l2.2-0.5H148.1z M157.5,350.1
	l-2.5-0.4l-0.6,0.1v-0.2l-2.7-0.5l-0.1,0l-0.4,0.2l-0.1,0l-2.1,0.2v0.1l-1.7-0.3l-0.1-0.3l-1.2,0.1l-1.8-0.3l-2.2,0.6l2.6,0.3
	l2.1-0.4h0.1l0.1,0.1v0.2l-1.7,0.4l6.2,1h0.4l2.3-0.5l-1.5-0.2l0.2-0.1h0.1l-0.1-0.1l0.7-0.1l0.1,0.2l2.8,0.4l1.1-0.2v-0.1
	L157.5,350.1z M164.4,351.4l0.6-0.1l-0.1-0.1L164.4,351.4L164.4,351.4z M147.3,348.3l-1.2-0.3h0l-0.1,0h-0.5l-2.6,0.6l2.7,0.3
	l1.7-0.3c0,0.1,0.1,0.2,0.2,0.2c0.1,0,0.3,0.1,0.6,0.1l1.7,0.3h0.2l1.1-0.1l0.1-0.1l-1.7-0.3c0.1,0,0.3-0.1,0.5-0.1l9.5,1.7
	l-0.1,0.1l0.2-0.1h0.1l0.1,0.2l-0.2,0.1l-0.6,0.1v0.1l-17.4,3.2l-1.2-0.1l0.2,0.4h0.1l0.1,0.5l2.7-0.2l33.1-6h0.2l0.2,1.2
	c-0.2,0.9-0.8,1.4-1.8,1.5l-6.5,1.2l-24.9,4.5c-0.7,0.1-1.3,0.2-1.9,0.2c-0.6,0-1.2-0.1-1.7-0.2l-4.5-0.8l-17.3-2.9l-16.1-2.7
	l-1-0.2l-11.7-2l-0.5-0.4l-0.6-0.3l-0.8-0.8l-0.7-1.2l1.5,1.7l1.2,0.6l50.7,8.7l0.2-0.1l0.4-0.4l0.1-0.4v-0.5l-0.8-1.6
	c0.3,0,0.5-0.1,0.6-0.3l0.7,0l1-0.3l-1.7-0.3c0-0.1-0.1-0.1-0.1-0.2l2.3,0.4l2.5-0.4l-3.8-0.8h-0.2l-1.2,0.1l-0.1-0.1l0.5-0.1
	l-0.3-0.2l-0.3,0l-0.1-0.2l2.1-0.5l-2.4-0.4h-0.1l-0.2-0.3l1,0.1l2.2-0.2l-0.2-0.1l-2.2-0.5h-0.2l-1,0.2l-0.1-0.1l0.3-0.1L139,349
	l-0.3-0.1l-0.1-0.2h0l2.1-0.4l-2.4-0.4h-0.2l-0.1-0.3l0.1,0h0.3l2.5-0.5l-2-0.3c-0.6,0.2-1,0.1-1.3-0.1l-0.1-0.2
	c0.4,0.5,1,0.5,1.8,0.1l1.8,0.3c0,0.1-0.1,0.2-0.1,0.3l-2.2,0.4l2.9,0.6h0.6l2.5-0.4l-0.5-0.1c0.1-0.1,0.3-0.1,0.4-0.2l1.2,0.2h0.1
	l1.3,0.2C147.3,348.2,147.3,348.2,147.3,348.3L147.3,348.3z"/>
<path id="Fill-39" class="st33" d="M142.4,354.2l0.2-0.1l-0.2-0.1h0.2v0.1L142.4,354.2L142.4,354.2l-0.1,0.1v-0.1H142.4z
	 M141.4,354.2l-0.3,0.2L141.4,354.2l-0.3,0.1l0.2-0.2L141.4,354.2z M141.5,354.2h0.2l0.1,0.1h0.1v0.1h-0.1v-0.1L141.5,354.2z
	 M164.4,351.4L164.4,351.4l0.5-0.2l0.1,0.1L164.4,351.4z M159.5,350.2h0.2H159.5L159.5,350.2z M148,347.2l-1.3,0.2h-0.1L148,347.2
	L148,347.2L148,347.2z"/>
<path id="Fill-40" class="st34" d="M157.5,350.1l0.1,0.4v0.1l-1.1,0.2l-2.8-0.4l-0.1-0.2l-0.7,0.1l0.1,0.1H153l-0.2,0.1l-3.7-0.6
	v-0.1l2.3,0.4l3.1-0.5v0.2l-0.8,0.1v0.1l2.8,0.4L157.5,350.1z M135.5,355.9c-0.8,1.2-1.4,2.5-1.8,3.9c-2-0.6-4.8-1.9-8.4-3.7h0
	c-1.4-0.6-2.6-1.2-3.8-1.8c-1.2-0.5-2.3-1-3.2-1.4L135.5,355.9z M102.1,350.2c-0.4,0.1-0.8,0.1-1.1,0.2c0.1-0.1,0.1-0.2,0.1-0.4
	L102.1,350.2L102.1,350.2z"/>
<path id="Fill-41" class="st35" d="M145.1,351.3l-2.7,0.3l-2.2-0.4l2.7-0.5L145.1,351.3z M141.3,349.4l-2.1-0.5l2.5-0.4l2.2,0.4
	l-2.2,0.5L141.3,349.4z M145.6,350.3L145.6,350.3l-2.3,0.4h-0.3l-2.2-0.4l2.2-0.4l0.4-0.1L145.6,350.3z M151.2,351.3l-2.6,0.3
	l-4.6-0.8v-0.1l2.3-0.4L151.2,351.3z M148.1,351.7h0.2l-2.2,0.5l-2.7-0.4l-0.1-0.1l2.5-0.5L148.1,351.7L148.1,351.7z M157.5,350.1
	l-1,0.3l-2.8-0.4v-0.1l0.8-0.1l0.6-0.1L157.5,350.1z M146.2,349.2l0.8,0.3l-2.1,0.4l-2.6-0.3l2.2-0.6L146.2,349.2z M149.1,349.7
	v-0.2l2.1-0.2l0.1,0l0.4-0.2l0.1,0l2.7,0.5l-3.1,0.5L149.1,349.7z M149.1,349.8l3.7,0.6l1.5,0.2l-2.3,0.5h-0.4l-6.2-1l1.7-0.4
	l0.6-0.2L149.1,349.8z M140.5,353.1c0-0.1,0-0.3-0.1-0.5l1.7,0.3l-1,0.3L140.5,353.1z M137.7,352.9l1.9,0.4c0.1,0,0.3,0,0.4,0.1
	l0.8,1.6v0.5l-0.1,0.4l-0.4,0.4l-0.2,0.1l-50.7-8.7l-1.2-0.6l-1.5-1.7l-0.1-0.1l50.9,9.9c1,0.2,1.2-0.2,0.7-1.2l0-0.1L137.7,352.9z
	 M140,351.6l-0.1-0.3l0.3,0l0.3,0.2L140,351.6z M140.4,352.4C140.4,352.4,140.4,352.3,140.4,352.4c-0.1-0.1-0.1-0.2-0.1-0.2
	l-0.2-0.4l1.2-0.1h0.2l3.8,0.8l-2.5,0.4L140.4,352.4z M139.2,349.9l-0.3-0.5l1-0.2h0.2l2.2,0.5l0.2,0.1l-2.2,0.2L139.2,349.9z
	 M139.8,351.1l-0.4-0.8h0.1l2.4,0.4L139.8,351.1z M138.7,349l0.3,0.1l0.2,0.2l-0.3,0.1L138.7,349z M138.2,348h0.2l2.4,0.4l-2.1,0.4
	h0L138.2,348z M138.1,347.7l-0.5-0.9c0.3,0.3,0.8,0.3,1.3,0.1l2,0.3l-2.5,0.5h-0.3L138.1,347.7z M141.1,347.3c0,0.5,0.4,0.8,1,0.9
	c0.1-0.1,0.2-0.1,0.4-0.1c0.7,0,1.4-0.1,1.9-0.3l0.5,0.1l-2.5,0.4h-0.6l-2.9-0.6L141.1,347.3z M147.3,348.6l-1.7,0.3l-2.7-0.3
	l2.6-0.6h0.5l0.1,0h0l1.2,0.3C147.3,348.4,147.3,348.5,147.3,348.6z M149.5,348.7l1.7,0.3l-0.1,0.1l-1.1,0.1h-0.2l-1.7-0.3
	C148.4,348.9,148.9,348.8,149.5,348.7L149.5,348.7z"/>
<polyline id="Fill-42" class="st36" points="149.1,349.8 147.7,349.5 147.1,349.7 147.1,349.5 147.1,349.5 147,349.5 146.2,349.2 
	147.4,349.1 147.5,349.4 149.1,349.6 149.1,349.8 "/>
<path id="Fill-43" class="st37" d="M167.1,385.4c-0.1,0-0.2,0-0.2,0.1c0-0.2,0.1-0.4,0.1-0.4C167,385.1,167.1,385.2,167.1,385.4"/>
<path id="Fill-44" class="st38" d="M148.5,379.1c0.6-0.4,1.1-0.7,1.4-1c1.2-0.8,2.1-1.6,2.9-2.5c0.4-0.5,0.8-1,1.2-1.5l2.5,1.1
	l0.1,1.2c-1.1,2.1-1.7,3.3-1.7,3.3c0,0.2-0.1,0.4-0.2,0.7c-1-0.2-2.4-0.5-4-0.9C149.9,379.4,149.2,379.2,148.5,379.1"/>
</svg>
