<?xml version="1.0" encoding="utf-8"?>
<!-- Generator: Adobe Illustrator 22.1.0, SVG Export Plug-In . SVG Version: 6.00 Build 0)  -->
<svg version="1.1" id="Capa_1" xmlns="http://www.w3.org/2000/svg" xmlns:xlink="http://www.w3.org/1999/xlink" x="0px" y="0px"
	 viewBox="0 0 389.1 487.7" style="enable-background:new 0 0 389.1 487.7;" xml:space="preserve">
<style type="text/css">
	.st0{fill-rule:evenodd;clip-rule:evenodd;fill:#1DA5A5;}
	.st1{fill-rule:evenodd;clip-rule:evenodd;fill:#69B548;}
	.st2{fill:#1DA5A5;}
</style>
<g>
	<path class="st0" d="M156.6,113.9c-1.1,2-21.9,13.1-24.7,14.7c-9.1,5.4-17.9,10.1-26,15l-0.3,103.4c7,3.2,16.7,11,22.6,12.5
		l0.4-58.7c0.7-3.3,50.3-28.9,54.3-33l-19.3-11.8c-6.8-4.1-6.6-2.2-20.6,6.2c-3.3,2-11.1,7.2-14.4,7.3l0-12.1
		c7.3-3.4,27.4-18.1,31.7-16.1l32.1,18.9c3.9,2.4,18.3,11.5,22,11.7l0.2-28.3c-2.6-1.6-4.5-2.6-6.6-3.8l-42.4-24.5
		C160.8,112.7,162.3,112.2,156.6,113.9L156.6,113.9z"/>
	<path class="st1" d="M229.1,278.1c1.3-0.1,2.8-1.2,6.7-3.5l47.7-27.3l0-103.7c-7.9-3.6-15.5-9.6-23-12.7l0.1,60.4L234,206.6
		c-8.8,5-18.1,10.6-26.6,15.2c1.7,2.6,3.2,2.9,6,4.6c2.3,1.4,4.3,2.6,6.5,4c14.8,9.4,10.3,8.1,26.6-1.4c2.3-1.3,11.4-7,13.6-7.4
		l0.2,11.8l-20.2,11.9c-3.4,2-7.1,5.3-11.2,3.5c-1.3-0.6-3.7-2.1-5.1-2.9c-15.7-8.8-31-16.8-46.8-25.3l-0.1,28.1
		C181.9,251.4,227.5,278.2,229.1,278.1L229.1,278.1z"/>
	<path class="st0" d="M171.1,107.3c4.7,1.5,20.6,11,26.8,14.3c4.5,2.4,8.5,4.8,13,7.2c3.7,2,9.7,5.2,13,7.6l0.2,63.2l24.9-14.1
		l0.4-61.3l-51.1-29.6c-1.7-1-0.2,0.1-1.5-0.9c-1.7-1.3-0.7-0.2-1.8-1.9C190.3,96.7,172.8,103,171.1,107.3L171.1,107.3z"/>
	<path class="st1" d="M217.8,281.8c-4.7-1.5-20.6-11-26.8-14.3c-4.5-2.4-8.5-4.8-13-7.2c-3.7-2-9.7-5.2-13-7.6l-0.2-63.2l-24.9,14.1
		l-0.4,61.3l51.1,29.6c1.7,1,0.2-0.1,1.6,0.9c1.7,1.3,0.6,0.2,1.8,1.9C198.7,292.4,216.1,286.1,217.8,281.8L217.8,281.8z"/>
</g>
<path class="st2" d="M187.6,0.1C90.7,3.5,10.2,79.1,0.9,175.6c-1.9,19.3-0.8,38,2.6,55.9c0,0,0.3,2.1,1.3,6.1
	c3,13.4,7.5,26.4,13.1,38.6c19.5,46.2,64.6,123.5,165.8,207.6c6.2,5.2,15.3,5.2,21.6,0c101.2-84,146.3-161.3,165.9-207.7
	c5.7-12.2,10.1-25.1,13.1-38.6c0.9-3.9,1.3-6.1,1.3-6.1c2.3-12,3.5-24.3,3.5-36.9C389.1,84.7,298.2-3.8,187.6,0.1z M194.6,317.8
	c-66.8,0-121-54.2-121-121c0-66.8,54.2-121,121-121c66.8,0,121,54.2,121,121C315.6,263.7,261.4,317.8,194.6,317.8z"/>
</svg>
