<?xml version="1.0" encoding="utf-8"?>
<!-- Generator: Adobe Illustrator 22.1.0, SVG Export Plug-In . SVG Version: 6.00 Build 0)  -->
<svg version="1.1" id="Capa_1" xmlns="http://www.w3.org/2000/svg" xmlns:xlink="http://www.w3.org/1999/xlink" x="0px" y="0px"
	 viewBox="0 0 28.2 35.3" style="enable-background:new 0 0 28.2 35.3;" xml:space="preserve">
<g>
	<g id="Phone_x5F_2">
		<g>
			<path d="M3.7,0.6l-1,0.7C1.4,2.3,0.5,3.8,0.2,5.6C-0.7,10.3,1.6,17.2,6,23.5c6.4,9.2,15.1,13.9,19.6,10.8l1-0.7
				c0.8-0.5,1.3-1.4,1.5-2.3c0.2-0.9,0-1.9-0.6-2.7l-2.9-4.2c-1.1-1.6-3.3-2-4.9-0.9l-1,0.7c-1.1,0.8-3.5-0.1-6.8-4.9
				c-2.8-4.1-3-6.1-2.8-7c0.1-0.5,0.3-0.8,0.6-1l1-0.7c1.6-1.1,2-3.4,0.9-4.9L8.6,1.5C8.1,0.7,7.3,0.2,6.3,0.1
				C5.4-0.1,4.5,0.1,3.7,0.6z M7,2.7l2.9,4.2c0.5,0.7,0.3,1.7-0.4,2.1l-1,0.7c-0.8,0.5-1.3,1.4-1.5,2.3c-0.4,2.1,0.7,5,3.2,8.5
				c5.1,7.3,8.4,6.2,9.6,5.3l1-0.7c0.7-0.5,1.6-0.3,2.1,0.4l2.9,4.2c0.5,0.7,0.3,1.7-0.4,2.1l-1,0.7C21,35.1,13.3,30.4,7.7,22.3
				C3.6,16.5,1.4,10.1,2.2,6c0.2-1.4,0.8-2.4,1.6-3l1-0.7C5.2,2.1,5.6,2,6,2C6.4,2.1,6.7,2.3,7,2.7z"/>
		</g>
	</g>
</g>
</svg>
