<?xml version="1.0" encoding="utf-8"?>
<!-- Generator: Adobe Illustrator 22.1.0, SVG Export Plug-In . SVG Version: 6.00 Build 0)  -->
<svg version="1.1" id="Capa_1" xmlns="http://www.w3.org/2000/svg" xmlns:xlink="http://www.w3.org/1999/xlink" x="0px" y="0px"
	 viewBox="0 0 512 512" style="enable-background:new 0 0 512 512;" xml:space="preserve">
<g>
	<g>
		<g>
			<path d="M256.6,0C115.2,0,0.6,114.6,0.6,256s114.6,256,256,256s256-114.6,256-256C512.4,114.7,397.9,0.2,256.6,0z M256.6,494.9
				c-132,0-238.9-107-238.9-238.9s107-238.9,238.9-238.9S495.5,124,495.5,256C495.3,387.9,388.5,494.8,256.6,494.9z"/>
			<path d="M396.2,233.4L396.2,233.4c-6.7-4.3-14.8-5.8-22.5-4c-7.7,1.7-14.5,6.4-18.8,13.1l-21.5,33.7V113.2
				c0-16.5-13.4-29.8-29.9-29.9c-4.4,0-8.8,1-12.8,3v-5.2c0-16.5-13.4-29.9-29.9-29.9s-29.9,13.4-29.9,29.9v5.2c-4-2-8.4-3-12.8-3
				c-16.5,0.1-29.9,13.5-29.9,30v5.2c-4-2-8.4-3-12.8-3c-7.9,0-15.5,3.2-21.1,8.7c-5.6,5.6-8.8,13.2-8.7,21.1v221.5
				c0,42.4,34.4,76.8,76.8,76.8h32.7c26.2,0.1,50.7-13.3,64.7-35.5l85.4-133.7C414.2,260.7,410.1,242.2,396.2,233.4z M391,265.4
				L391,265.4l-85.4,133.7c-10.9,17.2-29.9,27.6-50.3,27.6h-32.7c-33,0-59.7-26.8-59.7-59.7V145.4c0-3.4,1.3-6.7,3.7-9.1
				c3.7-3.7,9.2-4.7,14-2.7c4.8,2,7.9,6.7,7.8,12v85.8c0,4.7,3.8,8.5,8.5,8.5c4.7,0,8.5-3.8,8.5-8.5v-118c0-4.6,2.4-8.9,6.4-11.2
				s8.9-2.3,12.9,0c4,2.3,6.4,6.6,6.4,11.2v118c0,4.7,3.8,8.5,8.5,8.5s8.5-3.8,8.5-8.5V81.2c0-4.6,2.4-8.9,6.4-11.2
				c4-2.3,8.9-2.3,12.9,0s6.4,6.6,6.4,11.2v150.2c0,4.7,3.8,8.5,8.5,8.5s8.5-3.8,8.5-8.5v-118c0-3.5,1.4-6.8,3.8-9.2
				c2.4-2.4,5.6-3.8,9-3.8c7.1,0,12.8,5.7,12.8,12.8v192.1c0,0.3,0.1,0.6,0.2,0.9c0.1,0.6,0.2,1.1,0.3,1.7c0.5,1.6,1.5,3,2.8,4
				c0.2,0.2,0.4,0.4,0.6,0.6c0.2,0.1,0.4,0.1,0.6,0.2c1,0.5,2.1,0.8,3.3,1c0.2,0,0.5,0.1,0.7,0.1c0.3,0,0.6-0.1,0.9-0.2
				c0.6-0.1,1.1-0.2,1.7-0.3c1-0.3,2-0.8,2.8-1.5c0.5-0.4,0.9-0.8,1.2-1.3c0.2-0.2,0.4-0.4,0.6-0.6l37.2-58.2
				c3.8-5.9,11.7-7.7,17.7-3.9S394.7,259.4,391,265.4z"/>
		</g>
	</g>
</g>
<rect x="248.6" y="15.5" transform="matrix(0.7071 -0.7071 0.7071 0.7071 -109.5573 257.9236)" width="15.9" height="491.4"/>
</svg>
