<?xml version="1.0" encoding="utf-8"?>
<!-- Generator: Adobe Illustrator 22.0.1, SVG Export Plug-In . SVG Version: 6.00 Build 0)  -->
<svg version="1.1" id="Layer_1" xmlns="http://www.w3.org/2000/svg" xmlns:xlink="http://www.w3.org/1999/xlink" x="0px" y="0px"
	 viewBox="0 0 319.6 118.5" style="enable-background:new 0 0 319.6 118.5;" xml:space="preserve">
<style type="text/css">
	.st0{fill-rule:evenodd;clip-rule:evenodd;fill:#D51F26;}
	.st1{fill-rule:evenodd;clip-rule:evenodd;fill:#ffffff;}
	.st2{fill:#ffffff;}
</style>
<polygon class="st0" points="30.4,0 32.9,3.6 37.1,2.3 34.5,5.8 37,9.4 32.8,8 30.2,11.5 30.3,7.1 26.1,5.7 30.3,4.4 30.4,0 "/>
<path class="st0" d="M41.3,52.1c-7.1,11.8-15.5,19.7-25,24.2c24.3-21.3,24.8-42.1,20.4-65c1.5,2.9,2.6,5.5,3.7,9.1c3.7,0,7.3,0,11,0
	c0,15.3,0,30.5,0,45.8c-5.1,0-10.2,0-15.2,0c-3.8,8.7-9,12.8-14.3,16c2.8-3.1,5.4-6.2,5.2-10.5C36.6,64.5,41,58,41.3,52.1L41.3,52.1
	z"/>
<path class="st1" d="M0.6,20.3H31c0.3,3.2,0.3,6.4-0.3,9.4c-1.4-1.1-3.2-1.8-5.2-1.8c-4.6,0-8.3,3.7-8.3,8.3c0,3.7,2.4,6.8,5.6,7.9
	c-1.7,1.9-3.5,3.7-5.2,5.5c-4.1,4.2-8.1,8.3-11.5,13l-2.5,3.5H0.6V20.3L0.6,20.3z M19.2,66.2h-8.6c0.8-0.6,1.6-1.3,2.3-1.9
	c1.3-1.1,2.5-2.3,3.7-3.4c0.7-0.7,2.9-2.7,4.4-3.7c0,0.6-0.1,1.2-0.1,1.5C20.6,61.1,19.9,63.7,19.2,66.2L19.2,66.2z"/>
<path class="st1" d="M21.8,67.3c7.8-27.4-8.6-5.4-13.5-3c7.3-10,15.8-15.9,21-23.9c-1,0.9-2.3,1.4-3.7,1.4c-3.1,0-5.6-2.5-5.6-5.6
	c0-3.1,2.5-5.6,5.6-5.6c3.1,0,5.6,2.5,5.6,5.6c0,0.4,0,0.8-0.1,1.2c2.7-5.3,3.9-11.7,2.4-20.6C40.9,37.4,32.1,52.6,21.8,67.3
	L21.8,67.3z"/>
<path class="st2" d="M96.5,20.3H68.4v46h9.3V29.2h9.5v37.1h9.3V20.3L96.5,20.3z M104.6,66.3h9.1l7.7-17.8c1.6-3.7,2.8-7.5,4.2-11.2
	l0.2,0.2c-0.7,5.8-1.1,14.4-1.1,19.5v9.3h9.1v-46h-9.1l-8.7,20c-1.2,2.8-2.2,5.9-3.3,8.8l-0.2-0.2c0.7-5.8,1.2-13.7,1.2-17.9V20.3
	h-9.1V66.3L104.6,66.3z M155.7,67c9.3,0,14.9-5.8,14.9-15.7V35.2c0-9.9-5.6-15.7-14.9-15.7c-9.3,0-14.9,5.8-14.9,15.7v16.2
	C140.8,61.2,146.3,67,155.7,67L155.7,67z M155.7,58c-3.5,0-5.3-2.3-5.3-6.6V35.2c0-4.3,1.8-6.6,5.3-6.6s5.3,2.3,5.3,6.6v16.2
	C160.9,55.7,159.1,58,155.7,58L155.7,58z M196.2,20.3v18.4h-9.5V20.3h-9.4v46h9.4V47.5h9.5v18.7h9.4v-46H196.2L196.2,20.3z
	 M223.1,57.4V47.2h13.1v-8.5h-13.1v-9.5h14.4v-8.9h-23.7v46h24.4v-8.9H223.1L223.1,57.4z M257.8,20.3h-13.3v46h9.3V51.5h4
	c9.5,0,15.2-5.8,15.2-15.6C273,26.1,267.4,20.3,257.8,20.3L257.8,20.3z M257.7,42.6h-3.9V29.2h3.9c3.7,0,5.7,2.3,5.7,6.8
	C263.4,40.3,261.5,42.6,257.7,42.6L257.7,42.6z M278.1,66.3h12.3c10,0,14.3-4.4,14.3-14.1c0-8.4-4.3-14.4-14.3-14.4h-2.7V20.3h-9.7
	V66.3L278.1,66.3z M309.1,66.3h9.3v-46h-9.3V66.3L309.1,66.3z M287.8,57.7V46.6h1.9c3.7,0,5.3,1.7,5.3,5.6c0,3.9-1.6,5.5-5.3,5.5
	H287.8L287.8,57.7z"/>
<path class="st2" d="M3.7,99.1c2.1,0,3.3-1.2,3.3-3.3H5c-0.1,0.9-0.4,1.3-1.2,1.3c-0.7,0-1-0.4-1-1.3v-4c0-0.9,0.4-1.3,1-1.3
	c0.8,0,1.2,0.4,1.2,1.3H7c-0.1-2.2-1.2-3.4-3.3-3.4c-2,0-3.2,1.2-3.2,3.4v4C0.5,98,1.7,99.1,3.7,99.1L3.7,99.1z M13.8,88.6H7.6v2h2
	V99h2.2v-8.4h2V88.6L13.8,88.6z M17.8,88.6h-3V99h2.1v-3.3h0.9c2.1,0,3.4-1.3,3.4-3.5C21.2,89.9,19.9,88.6,17.8,88.6L17.8,88.6z
	 M17.8,93.6h-0.9v-3h0.9c0.8,0,1.3,0.5,1.3,1.5C19,93.1,18.6,93.6,17.8,93.6L17.8,93.6z M24.4,97v-2.3h2.9v-1.9h-2.9v-2.1h3.2v-2
	h-5.3V99h5.5v-2H24.4L24.4,97z M36,88.6l-1.6,3.9c-0.2,0.5-0.6,1.4-0.7,1.8h-0.1c-0.1-0.4-0.5-1.3-0.7-1.8l-1.6-3.9h-2.1V99h2v-2.5
	c0-1.3-0.1-2.5-0.1-3.8l0.1,0l0.9,2.7l0.5,1.4h2.1l0.5-1.4l0.9-2.7l0.1,0c-0.1,1.3-0.1,2.5-0.2,3.8V99h2.1V88.6H36L36,88.6z
	 M40.8,88.6c-0.2,4.3-0.3,6-0.5,7.1c-0.3,1.3-0.6,1.5-1.2,1.5v1.9c1.7,0,2.8-0.4,3.2-2.9c0.2-1.2,0.3-2.9,0.5-5.7h1.7V99h2.1V88.6
	H40.8L40.8,88.6z M50.5,97v-2.3h2.9v-1.9h-2.9v-2.1h3.2v-2h-5.3V99h5.5v-2H50.5L50.5,97z M59.6,88.6v4.1h-2.1v-4.1h-2.1V99h2.1v-4.2
	h2.1V99h2.1V88.6H59.6L59.6,88.6z M63.5,99h2.1l1.7-4c0.4-0.8,0.6-1.7,0.9-2.5l0,0c-0.1,1.3-0.2,3.2-0.2,4.4V99h2V88.6H68l-2,4.5
	c-0.3,0.6-0.5,1.3-0.8,2l0,0c0.2-1.3,0.3-3.1,0.3-4v-2.4h-2V99L63.5,99z M74,97v-2.3H77v-1.9H74v-2.1h3.2v-2h-5.3V99h5.5v-2H74
	L74,97z M86.3,99h2.4l-3.1-5.8l2.6-4.5h-2.4l-1.4,2.8l-0.5,1.2v-4h-2.1V99h2.1v-3l0.6-0.9L86.3,99L86.3,99z M96.8,88.6v4.1h-2.1
	v-4.1h-2.1V99h2.1v-4.2h2.1V99h2.1V88.6H96.8L96.8,88.6z M102.9,97v-2.3h2.9v-1.9h-2.9v-2.1h3.2v-2h-5.3V99h5.5v-2H102.9L102.9,97z
	 M107.7,99h2.1l1.7-4c0.4-0.8,0.6-1.7,0.9-2.5l0,0c-0.1,1.3-0.2,3.2-0.2,4.4V99h2V88.6h-2.1l-2,4.5c-0.3,0.6-0.5,1.3-0.8,2l0,0
	c0.2-1.3,0.3-3.1,0.3-4v-2.4h-2V99L107.7,99z M120.5,93.6c1-0.4,1.4-1.1,1.4-2.1c0-1.9-1.2-3.1-3.1-3.1c-2.1,0-3.2,1.4-3.3,3.4h2.1
	c0-0.7,0.3-1.4,1.2-1.4c0.7,0,1,0.4,1,1.1c0,0.8-0.3,1.2-1.3,1.2h-0.6v1.8h0.7c0.9,0,1.4,0.4,1.4,1.3s-0.6,1.3-1.3,1.3
	c-1,0-1.3-0.8-1.4-1.3h-2.1c0.1,1.7,1.3,3.4,3.5,3.4c1.9,0,3.5-1.2,3.5-3.2C122.2,94.8,121.8,93.9,120.5,93.6L120.5,93.6z
	 M128.3,93.7c0.5-0.5,0.9-1.3,0.9-2.1c0-1.8-1.1-2.9-2.7-2.9h-3.2V99h3.3c1.8,0,3-1.2,3-3.1C129.5,94.9,129.1,94.1,128.3,93.7
	L128.3,93.7z M126.1,90.6c0.7,0,1,0.4,1,1c0,0.7-0.3,1.1-0.9,1.1h-0.8v-2.2H126.1L126.1,90.6z M126.1,97h-0.8v-2.3h0.8
	c0.8,0,1.2,0.4,1.2,1.1C127.4,96.6,127,97,126.1,97L126.1,97z M132.9,97v-2.3h2.9v-1.9h-2.9v-2.1h3.2v-2h-5.3V99h5.5v-2H132.9
	L132.9,97z M144.5,97v-8.4h-5.6l-0.2,4.3c-0.1,1.4-0.3,3.1-1.2,4.1h-0.7v3.7h2.1V99h4.5v1.8h2.1V97H144.5L144.5,97z M142.5,97h-2.5
	c0.5-1,0.8-2.2,0.8-3.5l0.1-2.9h1.6V97L142.5,97z M150.7,99h2.2l-2.5-10.3h-2.2L145.7,99h2.2l0.3-1.7h2.2L150.7,99L150.7,99z
	 M148.6,95.3l0.2-1.2c0.1-0.7,0.3-2,0.4-2.8h0.1c0.1,0.8,0.3,2.1,0.4,2.8l0.2,1.2H148.6L148.6,95.3z M158.1,88.6v4.1H156v-4.1h-2.1
	V99h2.1v-4.2h2.1V99h2.1V88.6H158.1L158.1,88.6z M166.3,88.6v4.1h-2.1v-4.1H162V99h2.1v-4.2h2.1V99h2.1V88.6H166.3L166.3,88.6z
	 M173.3,99.1c2.1,0,3.4-1.3,3.4-3.5V92c0-2.2-1.3-3.5-3.4-3.5c-2.1,0-3.4,1.3-3.4,3.5v3.6C169.9,97.8,171.2,99.1,173.3,99.1
	L173.3,99.1z M173.3,97.1c-0.8,0-1.2-0.5-1.2-1.5V92c0-1,0.4-1.5,1.2-1.5c0.8,0,1.2,0.5,1.2,1.5v3.6
	C174.5,96.6,174.1,97.1,173.3,97.1L173.3,97.1z M185,88.6l-1.6,3.9c-0.2,0.5-0.6,1.4-0.7,1.8h-0.1c-0.1-0.4-0.5-1.3-0.7-1.8
	l-1.6-3.9h-2.1V99h2v-2.5c0-1.3-0.1-2.5-0.1-3.8l0.1,0l0.9,2.7l0.5,1.4h2.1l0.5-1.4l0.9-2.7l0.1,0c-0.1,1.3-0.1,2.5-0.2,3.8V99h2.1
	V88.6H185L185,88.6z M192.7,88.6l-1.2,4.2l-1.3-4.2H188l2.5,7.5c-0.3,1-0.6,1.1-1.4,1.1h-0.5v1.9h0.4c1.9,0,2.7-0.4,3.4-2.7l2.4-7.8
	H192.7L192.7,88.6z M198.8,99h2.1l1.7-4c0.4-0.8,0.6-1.7,0.9-2.5l0,0c-0.1,1.3-0.2,3.2-0.2,4.4V99h2V88.6h-2.1l-2,4.5
	c-0.3,0.6-0.5,1.3-0.8,2l0,0c0.2-1.3,0.3-3.1,0.3-4v-2.4h-2V99L198.8,99z M214.4,88.6v4.1h-2.1v-4.1h-2.1V99h2.1v-4.2h2.1V99h2.1
	V88.6H214.4L214.4,88.6z M220.5,97v-2.3h2.9v-1.9h-2.9v-2.1h3.2v-2h-5.3V99h5.5v-2H220.5L220.5,97z M231.6,88.6h-6.3V99h2.1v-8.4
	h2.1V99h2.1V88.6L231.6,88.6z M236.5,99.1c2.1,0,3.4-1.3,3.4-3.5V92c0-2.2-1.3-3.5-3.4-3.5c-2.1,0-3.4,1.3-3.4,3.5v3.6
	C233.2,97.8,234.4,99.1,236.5,99.1L236.5,99.1z M236.5,97.1c-0.8,0-1.2-0.5-1.2-1.5V92c0-1,0.4-1.5,1.2-1.5c0.8,0,1.2,0.5,1.2,1.5
	v3.6C237.7,96.6,237.3,97.1,236.5,97.1L236.5,97.1z M244.3,99.1c2.1,0,3.3-1.2,3.3-3.3h-2.1c-0.1,0.9-0.4,1.3-1.2,1.3
	c-0.7,0-1-0.4-1-1.3v-4c0-0.9,0.4-1.3,1-1.3c0.8,0,1.2,0.4,1.2,1.3h2.1c-0.1-2.2-1.2-3.4-3.3-3.4c-2,0-3.2,1.2-3.2,3.4v4
	C241.1,98,242.3,99.1,244.3,99.1L244.3,99.1z M254.4,88.6h-6.2v2h2V99h2.2v-8.4h2V88.6L254.4,88.6z M255.4,99h2.1l1.7-4
	c0.4-0.8,0.6-1.7,0.9-2.5l0,0c-0.1,1.3-0.2,3.2-0.2,4.4V99h2V88.6h-2.1l-2,4.5c-0.3,0.6-0.5,1.3-0.8,2l0,0c0.2-1.3,0.3-3.1,0.3-4
	v-2.4h-2V99L255.4,99z M271.8,99h2.3l-3-5.7l2.7-4.6h-2.4l-1.4,2.8l-0.5,1.2v-4h-2v4l-0.5-1.2l-1.4-2.8h-2.4l2.7,4.6l-3,5.7h2.3
	l1.8-3.9l0.5,0.8V99h2v-3.1l0.5-0.8L271.8,99L271.8,99z M274.9,99h2.1l1.7-4c0.4-0.8,0.6-1.7,0.9-2.5l0,0c-0.1,1.3-0.2,3.2-0.2,4.4
	V99h2V88.6h-2.1l-2,4.5c-0.3,0.6-0.5,1.3-0.8,2l0,0c0.2-1.3,0.3-3.1,0.3-4v-2.4h-2V99L274.9,99z M290.1,88.6l-1.6,3.9
	c-0.2,0.5-0.6,1.4-0.7,1.8h-0.1c-0.1-0.4-0.5-1.3-0.7-1.8l-1.6-3.9h-2.1V99h2v-2.5c0-1.3-0.1-2.5-0.1-3.8l0.1,0l0.9,2.7l0.5,1.4h2.1
	l0.5-1.4l0.9-2.7l0.1,0c-0.1,1.3-0.1,2.5-0.2,3.8V99h2.1V88.6H290.1L290.1,88.6z M297.1,99.1c2.1,0,3.4-1.3,3.4-3.5V92
	c0-2.2-1.3-3.5-3.4-3.5c-2.1,0-3.4,1.3-3.4,3.5v3.6C293.7,97.8,295,99.1,297.1,99.1L297.1,99.1z M297.1,97.1c-0.8,0-1.2-0.5-1.2-1.5
	V92c0-1,0.4-1.5,1.2-1.5c0.8,0,1.2,0.5,1.2,1.5v3.6C298.3,96.6,297.9,97.1,297.1,97.1L297.1,97.1z M308.8,88.6l-1.6,3.9
	c-0.2,0.5-0.6,1.4-0.7,1.8h-0.1c-0.1-0.4-0.5-1.3-0.7-1.8l-1.6-3.9H302V99h2v-2.5c0-1.3-0.1-2.5-0.1-3.8l0.1,0l0.9,2.7l0.5,1.4h2.1
	l0.5-1.4l0.9-2.7l0.1,0c-0.1,1.3-0.1,2.5-0.2,3.8V99h2.1V88.6H308.8L308.8,88.6z M316.5,88.6l-1.2,4.2l-1.3-4.2h-2.2l2.5,7.5
	c-0.3,1-0.6,1.1-1.4,1.1h-0.5v1.9h0.4c1.9,0,2.7-0.4,3.4-2.7l2.4-7.8H316.5L316.5,88.6z M317.7,97.2l-0.3,3.9h1.2l1-3.9H317.7
	L317.7,97.2z M5.2,111.3c1-0.4,1.4-1.1,1.4-2.1c0-1.9-1.2-3.1-3.1-3.1c-2.1,0-3.2,1.4-3.3,3.4h2.1c0-0.7,0.3-1.4,1.2-1.4
	c0.7,0,1,0.4,1,1.1c0,0.8-0.3,1.2-1.3,1.2H2.6v1.8h0.7c0.9,0,1.4,0.4,1.4,1.3s-0.6,1.3-1.3,1.3c-1,0-1.3-0.8-1.4-1.3H0
	c0.1,1.7,1.3,3.4,3.5,3.4c1.9,0,3.5-1.2,3.5-3.2C6.9,112.6,6.5,111.7,5.2,111.3L5.2,111.3z M11.9,116.7H14l-2.5-10.3H9.3l-2.5,10.3
	H9l0.3-1.7h2.2L11.9,116.7L11.9,116.7z M9.8,113l0.2-1.2c0.1-0.7,0.3-2,0.4-2.8h0.1c0.1,0.8,0.3,2.1,0.4,2.8l0.2,1.2H9.8L9.8,113z
	 M16,106.4c-0.2,4.3-0.3,6-0.5,7.1c-0.3,1.3-0.6,1.5-1.2,1.5v1.9c1.7,0,2.8-0.4,3.2-2.9c0.2-1.2,0.3-2.9,0.5-5.7h1.7v8.4h2.1v-10.3
	H16L16,106.4z M26.7,116.9c2.1,0,3.4-1.3,3.4-3.5v-3.6c0-2.2-1.3-3.5-3.4-3.5s-3.4,1.3-3.4,3.5v3.6
	C23.4,115.6,24.6,116.9,26.7,116.9L26.7,116.9z M26.7,114.8c-0.8,0-1.2-0.5-1.2-1.5v-3.6c0-1,0.4-1.5,1.2-1.5c0.8,0,1.2,0.5,1.2,1.5
	v3.6C27.9,114.3,27.5,114.8,26.7,114.8L26.7,114.8z M36.8,106.4h-5.2v10.3h2.1v-8.4h3.1V106.4L36.8,106.4z M44.8,106.4l-1.2,4.2
	l-1.3-4.2h-2.2l2.5,7.5c-0.3,1-0.6,1.1-1.4,1.1h-0.5v1.9h0.4c1.9,0,2.7-0.4,3.4-2.7l2.4-7.8H44.8L44.8,106.4z M50.5,116.9
	c2.1,0,3.3-1.2,3.3-3.3h-2.1c-0.1,0.9-0.4,1.3-1.2,1.3c-0.7,0-1-0.4-1-1.3v-4c0-0.9,0.4-1.3,1-1.3c0.8,0,1.2,0.4,1.2,1.3h2.1
	c-0.1-2.2-1.2-3.4-3.3-3.4c-2,0-3.2,1.2-3.2,3.4v4C47.3,115.7,48.5,116.9,50.5,116.9L50.5,116.9z M61.4,106.4H55v10.3h2.1v-8.4h2.1
	v8.4h2.1V106.4L61.4,106.4z M65.3,114.7v-2.3h2.9v-1.9h-2.9v-2.1h3.2v-2h-5.3v10.3h5.5v-2H65.3L65.3,114.7z M76.3,116.7l-2.4-5.4
	l2.3-5h-2.3l-1.1,2.8l-1.1-2.8h-2.3l2.3,5l-2.4,5.4h2.3l1.3-3.1l1.2,3.1H76.3L76.3,116.7z M81.4,116.7h2.2l-2.5-10.3h-2.2l-2.5,10.3
	h2.2l0.3-1.7h2.2L81.4,116.7L81.4,116.7z M79.3,113l0.2-1.2c0.1-0.7,0.3-2,0.4-2.8H80c0.1,0.8,0.3,2.1,0.4,2.8l0.2,1.2H79.3
	L79.3,113z M87.5,116.7h2.1l1.7-4c0.4-0.8,0.6-1.7,0.9-2.5l0,0c-0.1,1.3-0.2,3.2-0.2,4.4v2.1h2v-10.3H92l-2,4.5
	c-0.3,0.6-0.5,1.3-0.8,2l0,0c0.2-1.3,0.3-3.1,0.3-4v-2.4h-2V116.7L87.5,116.7z M99.7,106.4c-0.2,4.3-0.3,6-0.5,7.1
	c-0.3,1.3-0.6,1.5-1.2,1.5v1.9c1.7,0,2.8-0.4,3.2-2.9c0.2-1.2,0.3-2.9,0.5-5.7h1.7v8.4h2.1v-10.3H99.7L99.7,106.4z M107.3,116.7h2.1
	l1.7-4c0.4-0.8,0.6-1.7,0.9-2.5l0,0c-0.1,1.3-0.2,3.2-0.2,4.4v2.1h2v-10.3h-2.1l-2,4.5c-0.3,0.6-0.5,1.3-0.8,2l0,0
	c0.2-1.3,0.3-3.1,0.3-4v-2.4h-2V116.7L107.3,116.7z M122.4,114.7v-8.4h-5.6l-0.2,4.3c-0.1,1.4-0.3,3.1-1.2,4.1h-0.7v3.7h2.1v-1.8
	h4.5v1.8h2.1v-3.7H122.4L122.4,114.7z M120.3,114.7h-2.5c0.5-1,0.8-2.2,0.8-3.5l0.1-2.9h1.6V114.7L120.3,114.7z M126.5,114.7v-2.3
	h2.9v-1.9h-2.9v-2.1h3.2v-2h-5.3v10.3h5.5v-2H126.5L126.5,114.7z M134.3,106.4h-3v10.3h2.1v-3.3h0.9c2.1,0,3.4-1.3,3.4-3.5
	C137.8,107.7,136.5,106.4,134.3,106.4L134.3,106.4z M134.3,111.4h-0.9v-3h0.9c0.8,0,1.3,0.5,1.3,1.5
	C135.6,110.9,135.2,111.4,134.3,111.4L134.3,111.4z M142,116.9c2.1,0,3.3-1.2,3.3-3.3h-2.1c-0.1,0.9-0.4,1.3-1.2,1.3
	c-0.7,0-1-0.4-1-1.3v-4c0-0.9,0.4-1.3,1-1.3c0.8,0,1.2,0.4,1.2,1.3h2.1c-0.1-2.2-1.2-3.4-3.3-3.4c-2,0-3.2,1.2-3.2,3.4v4
	C138.8,115.7,140,116.9,142,116.9L142,116.9z M152.1,106.4h-6.2v2h2v8.4h2.2v-8.4h2V106.4L152.1,106.4z M158.1,111.4
	c0.5-0.5,0.9-1.3,0.9-2.1c0-1.8-1.1-2.9-2.7-2.9H153v10.3h3.3c1.8,0,3-1.2,3-3.1C159.4,112.7,158.9,111.9,158.1,111.4L158.1,111.4z
	 M155.9,108.3c0.7,0,1,0.4,1,1c0,0.7-0.3,1.1-0.9,1.1h-0.8v-2.2H155.9L155.9,108.3z M155.9,114.7h-0.8v-2.3h0.8
	c0.8,0,1.2,0.4,1.2,1.1C157.2,114.3,156.8,114.7,155.9,114.7L155.9,114.7z M164.5,116.7h2.2l-2.5-10.3h-2.2l-2.5,10.3h2.2l0.3-1.7
	h2.2L164.5,116.7L164.5,116.7z M162.4,113l0.2-1.2c0.1-0.7,0.3-2,0.4-2.8h0.1c0.1,0.8,0.3,2.1,0.4,2.8l0.2,1.2H162.4L162.4,113z"/>
</svg>
