<?xml version="1.0" encoding="utf-8"?>
<!-- Generator: Adobe Illustrator 22.1.0, SVG Export Plug-In . SVG Version: 6.00 Build 0)  -->
<svg version="1.1" id="Layer_1" xmlns="http://www.w3.org/2000/svg" xmlns:xlink="http://www.w3.org/1999/xlink" x="0px" y="0px"
	 viewBox="0 0 319.6019897 118.4612885" style="enable-background:new 0 0 319.6019897 118.4612885;" xml:space="preserve">
<style type="text/css">
	.st0{fill-rule:evenodd;clip-rule:evenodd;fill:#D51F26;}
	.st1{fill-rule:evenodd;clip-rule:evenodd;fill:#313036;}
	.st2{fill:#313036;}
</style>
<polygon class="st0" points="30.4063873,0 32.9164581,3.611908 37.1225281,2.3246918 34.4627686,5.8280334 36.9867401,9.4302979 
	32.8331299,7.9835052 30.1869812,11.4973297 30.2793884,7.0996552 26.1201172,5.6687317 30.3309784,4.3976746 30.4063873,0 "/>
<path class="st0" d="M41.2534485,52.0730133C34.1773071,63.871933,25.8020782,71.7749481,16.282486,76.2422943
	c24.348465-21.3425751,24.8088074-42.1352692,20.3859406-65.0083008c1.5097046,2.8519287,2.552002,5.4720001,3.6688538,9.1096954
	c3.6654816,0,7.3309631,0,10.9964447,0c0,15.2727814,0,30.5458527,0,45.8186188c-5.0779877,0-10.1565247,0-15.2345276,0
	c-3.8318634,8.7338715-8.9560547,12.81604-14.3186493,16.0367432c2.8199158-3.0724792,5.4090881-6.2362061,5.1548157-10.5383606
	C36.6443024,64.4944305,41.0130615,58.0172577,41.2534485,52.0730133L41.2534485,52.0730133z"/>
<path class="st1" d="M0.5649414,20.343689h30.4426727c0.319458,3.2110748,0.2726898,6.3637848-0.3364716,9.4475861
	c-1.4201508-1.125061-3.2156219-1.7971649-5.1675568-1.7971649c-4.598938,0-8.3290405,3.7301025-8.3290405,8.3287659
	c0,3.6580963,2.3598328,6.7662964,5.6398163,7.8851166c-1.6871796,1.898941-3.4871674,3.7085724-5.2375946,5.4819336
	c-4.1156158,4.1694794-8.0719299,8.2581787-11.5491791,12.9996796l-2.5466461,3.472702H0.5649414V20.343689L0.5649414,20.343689z
	 M19.22229,66.1623077h-8.6283722c0.8365021-0.5737152,1.6457825-1.2823639,2.3473663-1.907135
	c1.2557526-1.1185455,2.4695435-2.2869873,3.703476-3.430191c0.7154541-0.6630249,2.8751678-2.657196,4.4095612-3.703476
	c-0.0291901,0.5941467-0.0989075,1.2001953-0.1391754,1.5018005C20.5817871,61.1243134,19.9099731,63.7214203,19.22229,66.1623077
	L19.22229,66.1623077z"/>
<path class="st1" d="M21.7805481,67.3078156c7.7762909-27.3716278-8.647644-5.3523712-13.5164337-2.9780884
	c7.300354-9.9549866,15.8062897-15.9247437,20.9715576-23.8915253c-0.9861603,0.8948975-2.2954865,1.4402924-3.7320862,1.4402924
	c-3.068222,0-5.555603-2.4874115-5.555603-5.5556183c0-3.0679474,2.487381-5.5553436,5.555603-5.5553436
	c3.0679474,0,5.5553436,2.4873962,5.5553436,5.5553436c0,0.400238-0.0425262,0.7900085-0.1230316,1.1658783
	c2.6844025-5.3206177,3.8579559-11.6965942,2.4139862-20.5812225
	C40.8897705,37.4411316,32.0649414,52.6132965,21.7805481,67.3078156L21.7805481,67.3078156z"/>
<path class="st2" d="M96.4967194,20.2895508H68.3903656v45.9683228h9.325119V29.154892h9.4561005v37.1029816h9.3251343V20.2895508
	L96.4967194,20.2895508z M104.6395111,66.2578735h9.1281433l7.7487793-17.7962036
	c1.5760498-3.6773834,2.8238678-7.4862976,4.2029419-11.2294464l0.1970215,0.1970062
	c-0.6567993,5.7789917-1.0508423,14.3815765-1.0508423,19.5037842v9.3248596h9.0623474V20.2895508h-9.1281128l-8.7337952,19.9635468
	c-1.247818,2.8236084-2.2328491,5.9102478-3.3491516,8.7996063l-0.1970062-0.1970215
	c0.7222748-5.7789764,1.1820526-13.6593018,1.1820526-17.9277191V20.2895508h-9.0623779V66.2578735L104.6395111,66.2578735z
	 M155.6642914,67.0458984c9.3248291,0,14.9067993-5.8444824,14.9067993-15.69487V35.1963806
	c0-9.8501129-5.5819702-15.6945801-14.9067993-15.6945801c-9.3251343,0-14.9068298,5.8444672-14.9068298,15.6945801v16.1546478
	C140.7574615,61.201416,146.3391571,67.0458984,155.6642914,67.0458984L155.6642914,67.0458984z M155.6642914,57.9835358
	c-3.4803772,0-5.2534485-2.2983398-5.2534485-6.6325073V35.1963806c0-4.3338928,1.7730713-6.6325073,5.2534485-6.6325073
	s5.253418,2.2986145,5.253418,6.6325073v16.1546478C160.9177094,55.6851959,159.1446686,57.9835358,155.6642914,57.9835358
	L155.6642914,57.9835358z M196.2476044,20.2895508v18.3874817h-9.4563904V20.2895508h-9.390564v45.9683228h9.390564V47.5421143
	h9.4563904v18.7157593h9.390625V20.2895508H196.2476044L196.2476044,20.2895508z M223.1061554,57.3925018V47.2138519h13.0679932
	v-8.5368195h-13.0679932V29.154892h14.3812866v-8.8653412h-23.7064209v45.9683228h24.3632202v-8.8653717H223.1061554
	L223.1061554,57.3925018z M257.8447876,20.2895508h-13.3307953v45.9683228h9.3251343V51.4822693h4.005661
	c9.5220947,0,15.1695557-5.778717,15.1695557-15.5633392C273.0143433,26.0685425,267.3668823,20.2895508,257.8447876,20.2895508
	L257.8447876,20.2895508z M257.713501,42.6172028h-3.8743744V29.154892h3.8743744
	c3.7431641,0,5.7131958,2.2986145,5.7131958,6.7640381C263.4266968,40.318573,261.456665,42.6172028,257.713501,42.6172028
	L257.713501,42.6172028z M278.1362915,66.2578735h12.3457031c9.9816895,0,14.2503052-4.3999481,14.2503052-14.0530548
	c0-8.4055634-4.2686157-14.4473419-14.2503052-14.4473419h-2.6923218v-17.467926h-9.6533813V66.2578735L278.1362915,66.2578735z
	 M309.0662231,66.2578735h9.3251343V20.2895508h-9.3251343V66.2578735L309.0662231,66.2578735z M287.7896729,57.7210388V46.6228333
	h1.9042969c3.6776733,0,5.3192139,1.7073059,5.3192139,5.5819855c0,3.8743896-1.6415405,5.5162201-5.3192139,5.5162201H287.7896729
	L287.7896729,57.7210388z"/>
<path class="st2" d="M3.7244568,99.1439972c2.0987549,0,3.2958374-1.1676025,3.3403168-3.340332H4.9660034
	c-0.0592346,0.9164124-0.4285889,1.3005371-1.2415466,1.3005371c-0.6502991,0-1.0048828-0.4138794-1.0048828-1.3005371v-4.0201111
	c0-0.9164124,0.3693237-1.3302612,1.0048828-1.3302612c0.7982025,0,1.152832,0.3843689,1.2120667,1.3302612h2.0984955
	c-0.0736847-2.1875-1.2265472-3.3698425-3.2958374-3.3698425c-2.0247955,0-3.2071228,1.1823425-3.2071228,3.3698425v4.0201111
	C0.5320587,97.9763947,1.714386,99.1439972,3.7244568,99.1439972L3.7244568,99.1439972z M13.7896881,88.6206512H7.5821228v1.9953308
	h2.0247803v8.3505554h2.15802v-8.3505554h2.024765V88.6206512L13.7896881,88.6206512z M17.7803192,88.6206512h-3.0001984v10.3458862
	h2.0987701v-3.325592h0.9014282c2.1429749,0,3.414032-1.3005371,3.414032-3.5027771
	C21.1943512,89.9211884,19.9232941,88.6206512,17.7803192,88.6206512L17.7803192,88.6206512z M17.750824,93.6459198h-0.871933
	v-3.0299377h0.871933c0.842453,0,1.2857971,0.5172729,1.2857971,1.5221863
	C19.0366211,93.1286163,18.593277,93.6459198,17.750824,93.6459198L17.750824,93.6459198z M24.4462585,96.9712677v-2.2909851
	h2.9409485v-1.9213257h-2.9409485v-2.1429749h3.2366028v-1.9953308h-5.3353729v10.3458862h5.4833374v-1.9952698H24.4462585
	L24.4462585,96.9712677z M36.0484619,88.6206512l-1.6256561,3.916626c-0.2069244,0.517334-0.5618439,1.4190369-0.6800232,1.8031311
	h-0.05896c-0.118515-0.3840942-0.473114-1.2857971-0.6800385-1.8031311l-1.6256714-3.916626h-2.1135254v10.3458862h2.0395203
	v-2.5420837c-0.04422-1.2563171-0.1034546-2.5126343-0.1476746-3.7689514l0.0737-0.02948l0.9311829,2.7195435l0.5173187,1.4040222
	h2.0692902l0.517334-1.4040222l0.9308929-2.7195435l0.0739899,0.02948
	c-0.0592499,1.2563171-0.1034546,2.5126343-0.1624146,3.7689514v2.5420837h2.054245V88.6206512H36.0484619L36.0484619,88.6206512z
	 M40.7633362,88.6206512c-0.2069244,4.3452454-0.2956543,6.0449219-0.487854,7.0942993
	c-0.2511292,1.3155518-0.5762634,1.5372009-1.197052,1.5372009v1.8918457c1.714386,0,2.8082733-0.3991089,3.2071075-2.8822632
	c0.1921844-1.182312,0.3401642-2.9114685,0.4878387-5.6604919h1.6996613v8.3652954h2.0987701V88.6206512H40.7633362
	L40.7633362,88.6206512z M50.5034485,96.9712677v-2.2909851h2.9409485v-1.9213257h-2.9409485v-2.1429749h3.236618v-1.9953308
	h-5.3353882v10.3458862h5.4833679v-1.9952698H50.5034485L50.5034485,96.9712677z M59.5635529,88.6206512v4.1383057h-2.1282654
	v-4.1383057h-2.1134949v10.3458862h2.1134949v-4.2122803h2.1282654v4.2122803h2.1135254V88.6206512H59.5635529
	L59.5635529,88.6206512z M63.509964,98.9665375h2.054245l1.7441711-4.0053406
	c0.354599-0.8277283,0.6355133-1.684906,0.9459076-2.5273743l0.04422,0.0445251
	c-0.1476898,1.3005066-0.2364044,3.2366028-0.2364044,4.3894348v2.0987549h2.0395355V88.6206512h-2.0542755l-1.9658356,4.4931946
	c-0.2808838,0.6355286-0.5025635,1.3300171-0.7537231,1.9802856l-0.0445099-0.04422
	c0.1627045-1.3005371,0.2661743-3.0741882,0.2661743-4.0348206v-2.3944397h-2.039505V98.9665375L63.509964,98.9665375z
	 M74.0332794,96.9712677v-2.2909851h2.9409485v-1.9213257h-2.9409485v-2.1429749h3.2366028v-1.9953308h-5.3353729v10.3458862
	h5.4833527v-1.9952698H74.0332794L74.0332794,96.9712677z M86.3302612,98.9665375h2.3646698l-3.0741882-5.8232117
	l2.6308594-4.5226746h-2.3944397l-1.4485016,2.8082886l-0.5320587,1.1528931v-3.9611816h-2.0690002v10.3458862h2.0690002v-2.9854431
	l0.5765686-0.9311829L86.3302612,98.9665375L86.3302612,98.9665375z M96.8090973,88.6206512v4.1383057h-2.1282501v-4.1383057
	H92.567337v10.3458862h2.1135101v-4.2122803h2.1282501v4.2122803h2.1135254V88.6206512H96.8090973L96.8090973,88.6206512z
	 M102.8542633,96.9712677v-2.2909851h2.9409485v-1.9213257h-2.9409485v-2.1429749h3.2366028v-1.9953308h-5.3353882v10.3458862
	h5.4833527v-1.9952698H102.8542633L102.8542633,96.9712677z M107.6725922,98.9665375h2.0542603l1.7441559-4.0053406
	c0.3546295-0.8277283,0.6355438-1.684906,0.9459229-2.5273743l0.04422,0.0445251
	c-0.1476746,1.3005066-0.2363892,3.2366028-0.2363892,4.3894348v2.0987549h2.039505V88.6206512h-2.0542603l-1.9658203,4.4931946
	c-0.2809143,0.6355286-0.502594,1.3300171-0.7537384,1.9802856l-0.0445099-0.04422
	c0.1627197-1.3005371,0.2661743-3.0741882,0.2661743-4.0348206v-2.3944397h-2.0395203V98.9665375L107.6725922,98.9665375z
	 M120.5163879,93.5572052c1.0048828-0.4138794,1.374527-1.0788574,1.374527-2.0987854
	c0-1.8623657-1.2416077-3.0594177-3.1334229-3.0594177c-2.1135406,0-3.1776581,1.4334717-3.2958374,3.384552h2.0690002
	c0.0297699-0.7390137,0.295639-1.3745117,1.2415771-1.3745117c0.6502686,0,0.9901428,0.4286194,0.9901428,1.0935974
	c0,0.8129883-0.3398743,1.2415771-1.2858124,1.2415771h-0.5615692v1.8178711h0.709549
	c0.9459076,0,1.4481964,0.4433594,1.4481964,1.2857971s-0.6057739,1.3008118-1.3299866,1.3008118
	c-0.9754028,0-1.345047-0.7537537-1.3598175-1.3302917h-2.1134949c0.0739899,1.7441406,1.2858124,3.355072,3.4733124,3.355072
	c1.9360352,0,3.4732666-1.2120972,3.4732666-3.1923828C122.2160187,94.8429718,121.8169098,93.9412689,120.5163879,93.5572052
	L120.5163879,93.5572052z M128.3201447,93.6753998c0.5467834-0.5025635,0.8719177-1.3302917,0.8719177-2.1135254
	c0-1.7588806-1.138092-2.9412231-2.7342834-2.9412231h-3.2218475v10.3458862h3.2663727
	c1.7733459,0,3.0443726-1.2415771,3.0443726-3.0888977C129.5466766,94.9464569,129.0886383,94.1187286,128.3201447,93.6753998
	L128.3201447,93.6753998z M126.0884552,90.6012421c0.6797485,0,0.9754028,0.3546143,0.9754028,1.0493774
	c0,0.7242432-0.3103943,1.1083374-0.9017334,1.1083374h-0.8273926v-2.1577148H126.0884552L126.0884552,90.6012421z
	 M126.1326447,96.9859772h-0.7979126v-2.2611694h0.8424377c0.7832031,0,1.211792,0.3840637,1.211792,1.138092
	C127.3889618,96.6018829,126.9603729,96.9859772,126.1326447,96.9859772L126.1326447,96.9859772z M132.8873444,96.9712677
	v-2.2909851h2.9409485v-1.9213257h-2.9409485v-2.1429749h3.2366028v-1.9953308h-5.3353882v10.3458862h5.4833374v-1.9952698
	H132.8873444L132.8873444,96.9712677z M144.5190277,97.0007172v-8.3800659h-5.6210938l-0.1627197,4.3010254
	c-0.0541382,1.4187317-0.3052979,3.0888977-1.2217102,4.0790405h-0.6650391v3.7247314h2.0690308v-1.7589111h4.4784241v1.7589111
	h2.0837402v-3.7247314H144.5190277L144.5190277,97.0007172z M142.4500275,97.0007172h-2.5004578
	c0.5320435-0.9901428,0.7537537-2.1871948,0.7982483-3.458252l0.1181641-2.9412231h1.5840454V97.0007172L142.4500275,97.0007172z
	 M150.7118683,98.9665375h2.17276l-2.4831543-10.3458862h-2.2464294l-2.4831543,10.3458862h2.1727295l0.3398743-1.714386h2.1875305
	L150.7118683,98.9665375L150.7118683,98.9665375z M148.5983429,95.2568512l0.2364502-1.182312
	c0.1479492-0.7390137,0.3103638-1.9953308,0.4138184-2.8377991h0.0592651
	c0.1034546,0.8424683,0.2809143,2.0987854,0.4138184,2.8377991l0.2364502,1.182312H148.5983429L148.5983429,95.2568512z
	 M158.0870514,88.6206512v4.1383057h-2.1282349v-4.1383057h-2.1135254v10.3458862h2.1135254v-4.2122803h2.1282349v4.2122803
	h2.1134949V88.6206512H158.0870514L158.0870514,88.6206512z M166.2752228,88.6206512v4.1383057h-2.1282959v-4.1383057h-2.1134644
	v10.3458862h2.1134644v-4.2122803h2.1282959v4.2122803h2.1134949V88.6206512H166.2752228L166.2752228,88.6206512z
	 M173.2810211,99.1439972c2.0987854,0,3.3548279-1.3155823,3.3548279-3.5325317v-3.6357422
	c0-2.2169495-1.2560425-3.5325012-3.3548279-3.5325012c-2.0987549,0-3.355072,1.3155518-3.355072,3.5325012v3.6357422
	C169.9259491,97.8284149,171.1822662,99.1439972,173.2810211,99.1439972L173.2810211,99.1439972z M173.2810211,97.1042023
	c-0.7834778,0-1.1825867-0.517334-1.1825867-1.4927368v-3.6357422c0-0.9753723,0.3991089-1.4926758,1.1825867-1.4926758
	c0.7832336,0,1.182373,0.5173035,1.182373,1.4926758v3.6357422
	C174.4633942,96.5868683,174.0642548,97.1042023,173.2810211,97.1042023L173.2810211,97.1042023z M184.956955,88.6206512
	l-1.6257019,3.916626c-0.2069092,0.517334-0.5618286,1.4190369-0.6799927,1.8031311h-0.0589905
	c-0.1184692-0.3840942-0.473114-1.2857971-0.6800232-1.8031311l-1.6257019-3.916626h-2.1134644v10.3458862h2.0394897v-2.5420837
	c-0.0441895-1.2563171-0.1034241-2.5126343-0.147644-3.7689514l0.0736694-0.02948l0.9312134,2.7195435l0.517334,1.4040222h2.0692444
	l0.5173645-1.4040222l0.9308777-2.7195435l0.0740051,0.02948c-0.0592651,1.2563171-0.1035156,2.5126343-0.1624451,3.7689514
	v2.5420837h2.0542603V88.6206512H184.956955L184.956955,88.6206512z M192.7459564,88.6206512l-1.2120667,4.2270508
	l-1.3005371-4.2270508h-2.20224l2.5421143,7.5228882c-0.3251343,0.9753723-0.6355591,1.138092-1.3598022,1.138092h-0.4580383
	v1.8623657h0.3843689c1.8771057,0,2.6897583-0.3843689,3.399292-2.704834l2.4091492-7.818512H192.7459564L192.7459564,88.6206512z
	 M198.8206024,98.9665375h2.0542908l1.7441711-4.0053406c0.3546143-0.8277283,0.635498-1.684906,0.9459229-2.5273743
	l0.0441895,0.0445251c-0.147644,1.3005066-0.2363892,3.2366028-0.2363892,4.3894348v2.0987549h2.0394897V88.6206512h-2.0542603
	l-1.9658203,4.4931946c-0.2808838,0.6355286-0.5025635,1.3300171-0.7537231,1.9802856l-0.0444946-0.04422
	c0.1627197-1.3005371,0.2661743-3.0741882,0.2661743-4.0348206v-2.3944397h-2.0395508V98.9665375L198.8206024,98.9665375z
	 M214.4429474,88.6206512v4.1383057h-2.1282959v-4.1383057h-2.1134949v10.3458862h2.1134949v-4.2122803h2.1282959v4.2122803
	h2.1134949V88.6206512H214.4429474L214.4429474,88.6206512z M220.4881134,96.9712677v-2.2909851h2.940918v-1.9213257h-2.940918
	v-2.1429749h3.2365723v-1.9953308h-5.3353882v10.3458862h5.4833679v-1.9952698H220.4881134L220.4881134,96.9712677z
	 M231.6322174,88.6206512h-6.3258057v10.3458862h2.0987854v-8.3505554h2.1282654v8.3505554h2.0987549V88.6206512
	L231.6322174,88.6206512z M236.5242157,99.1439972c2.0988159,0,3.3548584-1.3155823,3.3548584-3.5325317v-3.6357422
	c0-2.2169495-1.2560425-3.5325012-3.3548584-3.5325012c-2.0987244,0-3.3550415,1.3155518-3.3550415,3.5325012v3.6357422
	C233.1691742,97.8284149,234.4254913,99.1439972,236.5242157,99.1439972L236.5242157,99.1439972z M236.5242157,97.1042023
	c-0.7834473,0-1.1825562-0.517334-1.1825562-1.4927368v-3.6357422c0-0.9753723,0.3991089-1.4926758,1.1825562-1.4926758
	c0.7832642,0,1.182373,0.5173035,1.182373,1.4926758v3.6357422
	C237.7065887,96.5868683,237.3074799,97.1042023,236.5242157,97.1042023L236.5242157,97.1042023z M244.3130341,99.1439972
	c2.0987244,0,3.2958374-1.1676025,3.3403015-3.340332h-2.0987549c-0.0592346,0.9164124-0.4285889,1.3005371-1.2415466,1.3005371
	c-0.6502991,0-1.0049133-0.4138794-1.0049133-1.3005371v-4.0201111c0-0.9164124,0.3693542-1.3302612,1.0049133-1.3302612
	c0.7981873,0,1.152832,0.3843689,1.2120667,1.3302612h2.0985107c-0.0737305-2.1875-1.2265625-3.3698425-3.2958374-3.3698425
	c-2.0248413,0-3.2071228,1.1823425-3.2071228,3.3698425v4.0201111
	C241.1206512,97.9763947,242.3029327,99.1439972,244.3130341,99.1439972L244.3130341,99.1439972z M254.3782501,88.6206512
	h-6.2075806v1.9953308h2.0247803v8.3505554h2.1580505v-8.3505554h2.0247498V88.6206512L254.3782501,88.6206512z
	 M255.3686676,98.9665375h2.054245l1.7442017-4.0053406c0.3546143-0.8277283,0.635498-1.684906,0.9459229-2.5273743
	l0.0441895,0.0445251c-0.147644,1.3005066-0.2363892,3.2366028-0.2363892,4.3894348v2.0987549h2.0395508V88.6206512h-2.0543213
	l-1.9658203,4.4931946c-0.2808838,0.6355286-0.5025635,1.3300171-0.7537231,1.9802856l-0.0444946-0.04422
	c0.1627197-1.3005371,0.2661743-3.0741882,0.2661743-4.0348206v-2.3944397h-2.0395355V98.9665375L255.3686676,98.9665375z
	 M271.7741699,98.9665375h2.3057251l-2.9854736-5.7049866l2.7045898-4.6408997h-2.3646851l-1.4039917,2.8082886
	l-0.5320435,1.1970825v-4.0053711h-2.039856v4.0053711l-0.5320435-1.1970825l-1.4040527-2.8082886h-2.364624l2.7045898,4.6408997
	l-2.9855347,5.7049866h2.3057251l1.7883911-3.8871155l0.4875488,0.7834778v3.1036377h2.039856v-3.1036377l0.4875488-0.7834778
	L271.7741699,98.9665375L271.7741699,98.9665375z M274.8634033,98.9665375h2.0542603l1.7441406-4.0053406
	c0.3546143-0.8277283,0.6355591-1.684906,0.9459839-2.5273743l0.0441895,0.0445251
	c-0.1477051,1.3005066-0.2364502,3.2366028-0.2364502,4.3894348v2.0987549h2.0395508V88.6206512h-2.0542603l-1.9658203,4.4931946
	c-0.2808838,0.6355286-0.5025635,1.3300171-0.7537842,1.9802856l-0.0444946-0.04422
	c0.1627197-1.3005371,0.2662354-3.0741882,0.2662354-4.0348206v-2.3944397h-2.0395508V98.9665375L274.8634033,98.9665375z
	 M290.0718384,88.6206512l-1.6256714,3.916626c-0.2069702,0.517334-0.5618286,1.4190369-0.6799927,1.8031311h-0.059021
	c-0.1184692-0.3840942-0.4730835-1.2857971-0.6799927-1.8031311l-1.6256714-3.916626h-2.1135254v10.3458862h2.0394897v-2.5420837
	c-0.0441895-1.2563171-0.1033936-2.5126343-0.147644-3.7689514l0.0736694-0.02948l0.9312134,2.7195435l0.517334,1.4040222h2.0692749
	l0.517334-1.4040222l0.9308472-2.7195435l0.0740356,0.02948c-0.0592651,1.2563171-0.1034546,2.5126343-0.1624756,3.7689514
	v2.5420837h2.0542603V88.6206512H290.0718384L290.0718384,88.6206512z M297.0776978,99.1439972
	c2.0986938,0,3.3547363-1.3155823,3.3547363-3.5325317v-3.6357422c0-2.2169495-1.2560425-3.5325012-3.3547363-3.5325012
	c-2.0988159,0-3.3551636,1.3155518-3.3551636,3.5325012v3.6357422
	C293.7225342,97.8284149,294.9788818,99.1439972,297.0776978,99.1439972L297.0776978,99.1439972z M297.0776978,97.1042023
	c-0.7835693,0-1.1826782-0.517334-1.1826782-1.4927368v-3.6357422c0-0.9753723,0.3991089-1.4926758,1.1826782-1.4926758
	c0.7831421,0,1.182312,0.5173035,1.182312,1.4926758v3.6357422
	C298.2600098,96.5868683,297.8608398,97.1042023,297.0776978,97.1042023L297.0776978,97.1042023z M308.75354,88.6206512
	l-1.6256104,3.916626c-0.2069702,0.517334-0.5618286,1.4190369-0.6800537,1.8031311h-0.05896
	c-0.1185303-0.3840942-0.4731445-1.2857971-0.6800537-1.8031311l-1.6256714-3.916626h-2.1135254v10.3458862h2.0395508v-2.5420837
	c-0.0442505-1.2563171-0.1034546-2.5126343-0.1477051-3.7689514l0.0737305-0.02948l0.9311523,2.7195435l0.517334,1.4040222
	h2.0693359l0.5172729-1.4040222l0.9309082-2.7195435l0.0739746,0.02948
	c-0.0592651,1.2563171-0.1034546,2.5126343-0.1624146,3.7689514v2.5420837h2.0542603V88.6206512H308.75354L308.75354,88.6206512z
	 M316.5426025,88.6206512l-1.2120972,4.2270508l-1.3005371-4.2270508h-2.2022095l2.5420532,7.5228882
	c-0.3250732,0.9753723-0.635498,1.138092-1.3597412,1.138092h-0.4580688v1.8623657h0.3843384
	c1.8771362,0,2.6898193-0.3843689,3.399292-2.704834l2.4092407-7.818512H316.5426025L316.5426025,88.6206512z
	 M317.7249146,97.1929169l-0.2955933,3.8871765h1.1675415l1.005127-3.8871765H317.7249146L317.7249146,97.1929169z
	 M5.2469177,111.2930145c1.0048828-0.4138489,1.374527-1.0788574,1.374527-2.0987854
	c0-1.8623352-1.2415771-3.0594177-3.1334229-3.0594177c-2.1135101,0-3.1776428,1.4334717-3.2958374,3.384552h2.0690002
	c0.0297699-0.7389832,0.2956543-1.3745117,1.2415771-1.3745117c0.6502686,0,0.9901428,0.4286194,0.9901428,1.0935974
	c0,0.8129883-0.3398743,1.2416077-1.2857971,1.2416077H2.6455841v1.8178406H3.355072
	c0.9459381,0,1.4482422,0.4433289,1.4482422,1.2857971s-0.6057587,1.3008118-1.3300323,1.3008118
	c-0.9754028,0-1.3450317-0.7537231-1.3597717-1.3302917H0c0.0739746,1.7441406,1.2857971,3.355072,3.4732819,3.355072
	c1.9360809,0,3.4732971-1.2120972,3.4732971-3.1923523C6.946579,112.5788116,6.5474548,111.6771088,5.2469177,111.2930145
	L5.2469177,111.2930145z M11.8680878,116.7023468h2.17276l-2.483139-10.3458557H9.3112335l-2.483139,10.3458557h2.1727448
	l0.3398743-1.714386h2.1875L11.8680878,116.7023468L11.8680878,116.7023468z M9.7545776,112.9926605l0.2364197-1.1823425
	c0.1479797-0.7389832,0.310379-1.9953003,0.4138641-2.837738h0.0592194c0.1034698,0.8424377,0.2809448,2.0987549,0.4138794,2.837738
	l0.2363892,1.1823425H9.7545776L9.7545776,112.9926605z M16.0361481,106.3564911
	c-0.2069244,4.3452148-0.2956543,6.0448608-0.4878235,7.0942688c-0.2511749,1.3155212-0.5762939,1.5372009-1.1970825,1.5372009
	v1.8918457c1.714386,0,2.8082733-0.3991089,3.2071075-2.8822632c0.1921997-1.1823425,0.3401642-2.9114685,0.487854-5.6605225
	h1.699646v8.3653259h2.0987701v-10.3458557H16.0361481L16.0361481,106.3564911z M26.7369385,116.8798065
	c2.0987701,0,3.3548126-1.3155518,3.3548126-3.5325317v-3.6357117c0-2.21698-1.2560425-3.5325317-3.3548126-3.5325317
	s-3.3550873,1.3155518-3.3550873,3.5325317v3.6357117C23.3818512,115.5642548,24.6381683,116.8798065,26.7369385,116.8798065
	L26.7369385,116.8798065z M26.7369385,114.8400116c-0.7834778,0-1.1826172-0.517334-1.1826172-1.4927368v-3.6357117
	c0-0.9754028,0.3991394-1.4927063,1.1826172-1.4927063c0.7832031,0,1.1823425,0.5173035,1.1823425,1.4927063v3.6357117
	C27.919281,114.3226776,27.5201416,114.8400116,26.7369385,114.8400116L26.7369385,114.8400116z M36.8461304,106.3564911h-5.2171478
	v10.3458557h2.0987701v-8.3505859h3.1183777V106.3564911L36.8461304,106.3564911z M44.7681122,106.3564911l-1.2120819,4.2269897
	l-1.3005524-4.2269897h-2.2022247l2.5421143,7.5228577c-0.3251495,0.9754028-0.6355286,1.138092-1.359787,1.138092h-0.4580688
	v1.8623657h0.3843689c1.877121,0,2.6898041-0.3843384,3.3993073-2.7048035l2.4091644-7.818512H44.7681122L44.7681122,106.3564911z
	 M50.4731293,116.8798065c2.0987854,0,3.2958374-1.167572,3.3403473-3.3403625h-2.0987701
	c-0.0592499,0.9164734-0.4285889,1.3005676-1.2415771,1.3005676c-0.6502686,0-1.0048828-0.4138489-1.0048828-1.3005676v-4.0200806
	c0-0.9164429,0.3693542-1.3302917,1.0048828-1.3302917c0.798233,0,1.1528625,0.3843994,1.2120972,1.3302917h2.0984802
	c-0.0737-2.1874695-1.2265472-3.369812-3.2958374-3.369812c-2.0247803,0-3.2071228,1.1823425-3.2071228,3.369812v4.0200806
	C47.2807465,115.7122345,48.463089,116.8798065,50.4731293,116.8798065L50.4731293,116.8798065z M61.3513641,106.3564911h-6.3258057
	v10.3458557h2.0987854v-8.3505859h2.1282501v8.3505859h2.0987701V106.3564911L61.3513641,106.3564911z M65.2827301,114.7070465
	v-2.2909546h2.9409485v-1.9213562h-2.9409485v-2.1429749h3.2366028v-1.9952698h-5.3353577v10.3458557h5.4833374v-1.9953003
	H65.2827301L65.2827301,114.7070465z M76.3083801,116.7023468l-2.4386444-5.3503723l2.2909546-4.9954834h-2.2909546
	l-1.1086426,2.8082581l-1.1230774-2.8082581h-2.2909698l2.2909698,4.9954834l-2.4386292,5.3503723h2.3056946l1.256012-3.1036377
	l1.2415771,3.1036377H76.3083801L76.3083801,116.7023468z M81.4220734,116.7023468h2.17276l-2.4831543-10.3458557h-2.24646
	l-2.483139,10.3458557h2.1727448l0.3398743-1.714386h2.1875L81.4220734,116.7023468L81.4220734,116.7023468z M79.308548,112.9926605
	l0.2364197-1.1823425c0.1479645-0.7389832,0.3103943-1.9953003,0.4138641-2.837738h0.0592499
	c0.1034546,0.8424377,0.280899,2.0987549,0.4138489,2.837738l0.2364197,1.1823425H79.308548L79.308548,112.9926605z
	 M87.5114594,116.7023468h2.0542603l1.7441711-4.0053406c0.354599-0.8276978,0.6355286-1.684906,0.9459076-2.5273743
	l0.0442352,0.0445251c-0.1477051,1.3005371-0.2364197,3.2366028-0.2364197,4.3894348v2.0987549h2.0395508v-10.3458557h-2.0542908
	l-1.9658356,4.4931946c-0.280899,0.635498-0.5025787,1.3299866-0.7537079,1.9802551l-0.0445099-0.0441895
	c0.1627045-1.3005676,0.2661591-3.0741882,0.2661591-4.0348816v-2.3943787h-2.0395203V116.7023468L87.5114594,116.7023468z
	 M99.6604767,106.3564911c-0.2069397,4.3452148-0.2956696,6.0448608-0.487854,7.0942688
	c-0.2511292,1.3155212-0.5762939,1.5372009-1.197052,1.5372009v1.8918457c1.7143707,0,2.8082581-0.3991089,3.2070923-2.8822632
	c0.1921844-1.1823425,0.3401642-2.9114685,0.487854-5.6605225h1.699646v8.3653259h2.0987854v-10.3458557H99.6604767
	L99.6604767,106.3564911z M107.3018341,116.7023468h2.054245l1.7441711-4.0053406
	c0.354599-0.8276978,0.6355286-1.684906,0.9459076-2.5273743l0.04422,0.0445251
	c-0.1476746,1.3005371-0.2364044,3.2366028-0.2364044,4.3894348v2.0987549h2.0395355v-10.3458557h-2.0542755l-1.9658356,4.4931946
	c-0.2808838,0.635498-0.5025787,1.3299866-0.7537231,1.9802551l-0.0444946-0.0441895
	c0.1627045-1.3005676,0.2661743-3.0741882,0.2661743-4.0348816v-2.3943787h-2.0395203V116.7023468L107.3018341,116.7023468z
	 M122.4067993,114.7365265v-8.3800354h-5.621109l-0.1627197,4.3009644c-0.0541382,1.4187622-0.3052673,3.0889587-1.2216949,4.079071
	h-0.6650238v3.724762h2.0690155v-1.7589417h4.4784393v1.7589417h2.0837708v-3.724762H122.4067993L122.4067993,114.7365265z
	 M120.3377991,114.7365265h-2.500473c0.532074-0.9901123,0.7537537-2.1871948,0.7982635-3.458252l0.1182098-2.9412537h1.5839996
	V114.7365265L120.3377991,114.7365265z M126.5306549,114.7070465v-2.2909546h2.9409485v-1.9213562h-2.9409485v-2.1429749h3.2366028
	v-1.9952698h-5.3353729v10.3458557h5.4833221v-1.9953003H126.5306549L126.5306549,114.7070465z M134.3491364,106.3564911h-3.0001831
	v10.3458557h2.0988159v-3.3255615h0.9013672c2.1430054,0,3.414093-1.3005676,3.414093-3.5028076
	C137.7632294,107.6569977,136.4921417,106.3564911,134.3491364,106.3564911L134.3491364,106.3564911z M134.3196564,111.3817291
	h-0.8718872v-3.0299683h0.8718872c0.8424683,0,1.2858276,0.517334,1.2858276,1.5222168
	C135.605484,110.8644257,135.1621246,111.3817291,134.3196564,111.3817291L134.3196564,111.3817291z M141.9902496,116.8798065
	c2.0987854,0,3.2958374-1.167572,3.340332-3.3403625h-2.0987854c-0.0592651,0.9164734-0.4285889,1.3005676-1.2415466,1.3005676
	c-0.6502991,0-1.0048828-0.4138489-1.0048828-1.3005676v-4.0200806c0-0.9164429,0.3693237-1.3302917,1.0048828-1.3302917
	c0.7982178,0,1.152832,0.3843994,1.2120972,1.3302917h2.0984497c-0.0737-2.1874695-1.226532-3.369812-3.2958374-3.369812
	c-2.0247498,0-3.2071228,1.1823425-3.2071228,3.369812v4.0200806
	C138.7978363,115.7122345,139.9802094,116.8798065,141.9902496,116.8798065L141.9902496,116.8798065z M152.0554657,106.3564911
	h-6.20755v1.9952698h2.0247803v8.3505859h2.15802v-8.3505859h2.0247498V106.3564911L152.0554657,106.3564911z
	 M158.1301117,111.4112091c0.5468445-0.502594,0.8719788-1.3303223,0.8719788-2.1134949
	c0-1.7589111-1.1381226-2.9412231-2.734314-2.9412231h-3.2218323v10.3458557h3.2663269
	c1.7733765,0,3.0444336-1.2415466,3.0444336-3.0888977C159.3567047,112.6822662,158.8986053,111.854538,158.1301117,111.4112091
	L158.1301117,111.4112091z M155.8983917,108.3370209c0.6797485,0,0.9754333,0.3546143,0.9754333,1.049408
	c0,0.7242432-0.3104248,1.1083069-0.9017029,1.1083069h-0.8274536v-2.1577148H155.8983917L155.8983917,108.3370209z
	 M155.9426422,114.721817h-0.7979736v-2.2612305h0.8424988c0.7832031,0,1.211792,0.3841248,1.211792,1.1381226
	C157.1989594,114.3377228,156.7703705,114.721817,155.9426422,114.721817L155.9426422,114.721817z M164.5001678,116.7023468h2.17276
	l-2.4831543-10.3458557h-2.24646l-2.4831848,10.3458557h2.1727905l0.3398743-1.714386h2.1875L164.5001678,116.7023468
	L164.5001678,116.7023468z M162.3866425,112.9926605l0.2364197-1.1823425
	c0.1479797-0.7389832,0.3103638-1.9953003,0.4138489-2.837738h0.0592346
	c0.1034851,0.8424377,0.2809143,2.0987549,0.4138794,2.837738l0.2363892,1.1823425H162.3866425L162.3866425,112.9926605z"/>
</svg>
