<?xml version="1.0" encoding="utf-8"?>
<!-- Generator: Adobe Illustrator 22.1.0, SVG Export Plug-In . SVG Version: 6.00 Build 0)  -->
<svg version="1.1" id="objects" xmlns="http://www.w3.org/2000/svg" xmlns:xlink="http://www.w3.org/1999/xlink" x="0px" y="0px"
	 viewBox="0 0 17.2 27.9" style="enable-background:new 0 0 17.2 27.9;" xml:space="preserve">
<style type="text/css">
	.st0{fill-rule:evenodd;clip-rule:evenodd;fill:#ff383f;}
</style>
<path id="XMLID_72_" class="st0" d="M17.2,8.6c0-4.7-3.9-8.6-8.6-8.6C3.9,0,0,3.9,0,8.6c0,1.6,0.4,3,1.2,4.3h0l7.4,15l7.5-15h0
	C16.8,11.6,17.2,10.2,17.2,8.6L17.2,8.6z M8.6,12.9L8.6,12.9c-2.4,0-4.3-1.9-4.3-4.3c0-2.4,1.9-4.3,4.3-4.3c2.4,0,4.3,1.9,4.3,4.3
	C12.9,11,11,12.9,8.6,12.9z"/>
</svg>
