<?xml version="1.0" encoding="UTF-8"?>
<svg width="31px" height="43px" viewBox="0 0 31 43" version="1.1" xmlns="http://www.w3.org/2000/svg" xmlns:xlink="http://www.w3.org/1999/xlink">
    <!-- Generator: Sketch 50.2 (55047) - http://www.bohemiancoding.com/sketch -->
    <title>Vector Smart Object1</title>
    <desc>Created with Sketch.</desc>
    <defs></defs>
    <g id="Page-1" stroke="none" stroke-width="1" fill="none" fill-rule="evenodd" fill-opacity="0.2">
        <g id="Vector-Smart-Object1" fill="#FFFFFF" fill-rule="nonzero">
            <path d="M30.1083333,0 L0.891666667,0 C0.425,0 0.0416666667,0.383333333 0.0416666667,0.85 L0.0416666667,41.8166667 C0.0416666667,42.2833333 0.425,42.6666667 0.891666667,42.6666667 L23.1083333,42.6666667 C23.3333333,42.6666667 23.55,42.575 23.7083333,42.4166667 L30.7083333,35.4166667 C30.8666667,35.2583333 30.9583333,35.0416667 30.9583333,34.8166667 L30.9583333,0.85 C30.9583333,0.383333333 30.575,0 30.1083333,0 Z M23.9583333,39.7666667 L23.9583333,35.6583333 L28.0666667,35.6583333 L23.9583333,39.7666667 Z M29.2583333,33.9666667 L23.1,33.9583333 C23.1,33.9583333 23.1,33.9583333 23.1,33.9583333 C22.875,33.9583333 22.6583333,34.05 22.5,34.2083333 C22.3416667,34.3666667 22.25,34.5833333 22.25,34.8083333 L22.2583333,40.9666667 L1.74166667,40.9666667 L1.74166667,1.7 L29.2583333,1.7 L29.2583333,33.9666667 Z" id="Shape"></path>
            <path d="M8.75,30.6666667 C6.61666667,30.6666667 4.875,32.4083333 4.875,34.5416667 C4.875,36.675 6.61666667,38.4166667 8.75,38.4166667 C10.8833333,38.4166667 12.625,36.675 12.625,34.5416667 C12.625,32.4 10.8916667,30.6666667 8.75,30.6666667 Z M8.75,36.7166667 C7.55,36.7166667 6.575,35.7416667 6.575,34.5416667 C6.575,33.3416667 7.55,32.3666667 8.75,32.3666667 C9.95,32.3666667 10.925,33.3416667 10.925,34.5416667 C10.925,35.7416667 9.95,36.7166667 8.75,36.7166667 Z" id="Shape"></path>
            <path d="M19.8333333,33.825 L15.1583333,33.825 C14.6916667,33.825 14.3083333,34.2083333 14.3083333,34.675 C14.3083333,35.1416667 14.6916667,35.525 15.1583333,35.525 L19.8333333,35.525 C20.3,35.525 20.6833333,35.1416667 20.6833333,34.675 C20.6833333,34.2083333 20.3,33.825 19.8333333,33.825 Z" id="Shape"></path>
            <path d="M8.44166667,5.1 L5.975,5.1 C5.50833333,5.1 5.125,5.48333333 5.125,5.95 C5.125,6.41666667 5.50833333,6.8 5.975,6.8 L8.44166667,6.8 C8.90833333,6.8 9.29166667,6.41666667 9.29166667,5.95 C9.29166667,5.48333333 8.91666667,5.1 8.44166667,5.1 Z" id="Shape"></path>
            <path d="M25.3583333,5.1 L17.9666667,5.1 C17.5,5.1 17.1166667,5.48333333 17.1166667,5.95 C17.1166667,6.41666667 17.5,6.8 17.9666667,6.8 L25.3583333,6.8 C25.825,6.8 26.2083333,6.41666667 26.2083333,5.95 C26.2083333,5.48333333 25.825,5.1 25.3583333,5.1 Z" id="Shape"></path>
            <path d="M25.3583333,8.75833333 L12.7833333,8.75833333 C12.3166667,8.75833333 11.9333333,9.14166667 11.9333333,9.60833333 C11.9333333,10.075 12.3166667,10.4583333 12.7833333,10.4583333 L25.3583333,10.4583333 C25.825,10.4583333 26.2083333,10.075 26.2083333,9.60833333 C26.2083333,9.13333333 25.825,8.75833333 25.3583333,8.75833333 Z" id="Shape"></path>
            <path d="M25.4,15.4666667 L5.6,15.4666667 C5.13333333,15.4666667 4.75,15.85 4.75,16.3166667 C4.75,16.7833333 5.13333333,17.1666667 5.6,17.1666667 L25.4,17.1666667 C25.8666667,17.1666667 26.25,16.7833333 26.25,16.3166667 C26.25,15.85 25.875,15.4666667 25.4,15.4666667 Z" id="Shape"></path>
            <path d="M25.4,18.3583333 L5.6,18.3583333 C5.13333333,18.3583333 4.75,18.7416667 4.75,19.2083333 C4.75,19.675 5.13333333,20.0583333 5.6,20.0583333 L25.4,20.0583333 C25.8666667,20.0583333 26.25,19.675 26.25,19.2083333 C26.25,18.7416667 25.875,18.3583333 25.4,18.3583333 Z" id="Shape"></path>
            <path d="M25.4,21.5 L5.6,21.5 C5.13333333,21.5 4.75,21.8833333 4.75,22.35 C4.75,22.8166667 5.13333333,23.2 5.6,23.2 L25.4,23.2 C25.8666667,23.2 26.25,22.8166667 26.25,22.35 C26.25,21.8833333 25.875,21.5 25.4,21.5 Z" id="Shape"></path>
            <path d="M25.4,24.3916667 L24.9333333,24.3916667 C24.4666667,24.3916667 24.0833333,24.775 24.0833333,25.2416667 C24.0833333,25.7083333 24.4666667,26.0916667 24.9333333,26.0916667 L25.4,26.0916667 C25.8666667,26.0916667 26.25,25.7083333 26.25,25.2416667 C26.25,24.775 25.875,24.3916667 25.4,24.3916667 Z" id="Shape"></path>
            <path d="M21.9583333,24.3916667 L5.6,24.3916667 C5.13333333,24.3916667 4.75,24.775 4.75,25.2416667 C4.75,25.7083333 5.13333333,26.0916667 5.6,26.0916667 L21.9583333,26.0916667 C22.425,26.0916667 22.8083333,25.7083333 22.8083333,25.2416667 C22.8083333,24.775 22.425,24.3916667 21.9583333,24.3916667 Z" id="Shape"></path>
        </g>
    </g>
</svg>