<?xml version="1.0" encoding="UTF-8"?>
<svg width="10px" height="8px" viewBox="0 0 10 8" version="1.1" xmlns="http://www.w3.org/2000/svg" xmlns:xlink="http://www.w3.org/1999/xlink">
    <!-- Generator: Sketch 50.2 (55047) - http://www.bohemiancoding.com/sketch -->
    <title>Shape</title>
    <desc>Created with Sketch.</desc>
    <defs></defs>
    <g id="Page-1" stroke="none" stroke-width="1" fill="none" fill-rule="evenodd">
        <g id="check" fill="#333333" fill-rule="nonzero">
            <path d="M9.80812641,1.07223476 L8.93227991,0.196388262 C8.81264108,0.0767494357 8.66591422,0.0158013544 8.49435666,0.0158013544 C8.3227991,0.0158013544 8.17607223,0.0767494357 8.05643341,0.196388262 L3.82844244,4.42889391 L1.93453725,2.5282167 C1.81489842,2.40857788 1.66817156,2.3476298 1.496614,2.3476298 C1.32505643,2.3476298 1.17832957,2.40857788 1.05869074,2.5282167 L0.180586907,3.40632054 C0.0609480813,3.52595937 0,3.67268623 0,3.84424379 C0,4.01580135 0.0609480813,4.16252822 0.180586907,4.28216704 L2.51241535,6.61399549 L3.38826185,7.48984199 C3.50790068,7.60948081 3.65462754,7.67042889 3.8261851,7.67042889 C3.99774266,7.67042889 4.14446953,7.60948081 4.26410835,7.48984199 L5.13995485,6.61399549 L9.80586907,1.94808126 C9.9255079,1.82844244 9.98645598,1.68171558 9.98645598,1.51015801 C9.98871332,1.33860045 9.93002257,1.19187359 9.80812641,1.07223476 Z" id="Shape"></path>
        </g>
    </g>
</svg>