<?xml version="1.0" encoding="utf-8"?>
<!-- Generator: Adobe Illustrator 22.1.0, SVG Export Plug-In . SVG Version: 6.00 Build 0)  -->
<svg version="1.1" id="Capa_1" xmlns="http://www.w3.org/2000/svg" xmlns:xlink="http://www.w3.org/1999/xlink" x="0px" y="0px"
	 viewBox="0 0 432.7 432.7" style="enable-background:new 0 0 432.7 432.7;" xml:space="preserve">
<g>
	<path d="M109.6,432.7c-23.9,0-46.3-9.3-63.2-26.2c-34.8-34.8-34.8-91.5,0-126.3L246.8,79.8c23.6-23.6,62.1-23.6,85.8,0
		c23.6,23.6,23.6,62.1,0,85.8L185.2,313c-5.9,5.9-15.4,5.9-21.2,0s-5.9-15.4,0-21.2l147.4-147.4c12-12,12-31.4,0-43.3
		c-5.8-5.8-13.5-9-21.7-9s-15.9,3.2-21.7,9L67.6,301.4c-23.1,23.1-23.1,60.8,0,83.9c11.2,11.2,26.1,17.4,41.9,17.4
		s30.7-6.2,41.9-17.4l205.1-205.1c16.6-16.6,25.8-38.7,25.8-62.2s-9.2-45.6-25.8-62.2c-34.3-34.3-90.1-34.3-124.5,0L80.1,207.8
		c-5.9,5.9-15.4,5.9-21.2,0s-5.9-15.4,0-21.2L211,34.5c46-46,120.9-46,166.9,0c22.3,22.3,34.6,51.9,34.6,83.4s-12.3,61.2-34.6,83.4
		L172.7,406.5C155.8,423.4,133.4,432.7,109.6,432.7z"/>
</g>
</svg>
