<?xml version="1.0" encoding="utf-8"?>
<!-- Generator: Adobe Illustrator 22.1.0, SVG Export Plug-In . SVG Version: 6.00 Build 0)  -->
<svg version="1.1" id="Layer_1" xmlns="http://www.w3.org/2000/svg" xmlns:xlink="http://www.w3.org/1999/xlink" x="0px" y="0px"
	 viewBox="0 0 355 261.7" style="enable-background:new 0 0 355 261.7;" xml:space="preserve">
<path d="M317.1,0H37.9C17,0,0,17,0,37.9v153.3C0,212,17,229,37.9,229h17.4l-5.9,23.3c-0.7,2.8,0.3,5.8,2.5,7.6
	c1.4,1.1,3.1,1.7,4.8,1.7c1.1,0,2.1-0.2,3.2-0.7l69-32h188.3c20.9,0,37.9-17,37.9-37.9V37.9C355,17,338,0,317.1,0L317.1,0z
	 M340,191.1c0,12.6-10.3,22.9-22.9,22.9h-190c-1.1,0-2.2,0.2-3.2,0.7l-56.2,26l4.4-17.4c0.6-2.2,0.1-4.6-1.3-6.5S67.3,214,65,214
	H37.9C25.3,214,15,203.7,15,191.1V37.9C15,25.3,25.3,15,37.9,15h279.3c12.6,0,22.9,10.3,22.9,22.9V191.1L340,191.1z"/>
<path d="M281.6,57.3H76c-3.5,0-6.4,3.4-6.4,7.5s2.9,7.5,6.4,7.5h205.6c3.5,0,6.4-3.4,6.4-7.5S285.1,57.3,281.6,57.3z"/>
<path d="M281.6,108.2H76c-3.5,0-6.4,3.4-6.4,7.5s2.9,7.5,6.4,7.5h205.6c3.5,0,6.4-3.4,6.4-7.5S285.1,108.2,281.6,108.2z"/>
<path d="M281.6,159H76c-3.5,0-6.4,3.4-6.4,7.5s2.9,7.5,6.4,7.5h205.6c3.5,0,6.4-3.4,6.4-7.5S285.1,159,281.6,159z"/>
</svg>
