<?xml version="1.0" encoding="utf-8"?>
<!-- Generator: Adobe Illustrator 22.0.1, SVG Export Plug-In . SVG Version: 6.00 Build 0)  -->
<svg version="1.1" id="Layer_1" xmlns="http://www.w3.org/2000/svg" xmlns:xlink="http://www.w3.org/1999/xlink" x="0px" y="0px"
	 viewBox="0 0 40 69.1" style="enable-background:new 0 0 40 69.1;" xml:space="preserve">
<style type="text/css">
	.st0{fill:#FFFFFF;}
</style>
<path class="st0" d="M26.7,1.1C17.5-2.3,7.3,2.4,3.9,11.6S5.2,31,14.4,34.4s19.4-1.3,22.8-10.5C40.6,14.7,35.9,4.5,26.7,1.1z
	 M27.5,20.3c-1.4,3.8-5.7,5.8-9.5,4.4s-5.8-5.7-4.4-9.5c1.4-3.9,5.7-5.8,9.5-4.4S28.9,16.5,27.5,20.3z"/>
<path class="st0" d="M22.4,48.1c-1.9-1.9-4.9-2-6.9-0.1L2.7,60.2c-1.9,1.9-2,4.9-0.1,6.9l0,0c1.9,1.9,4.9,2,6.9,0.1L22.2,55
	C24.2,53.1,24.2,50,22.4,48.1L22.4,48.1L22.4,48.1z"/>
<path class="st0" d="M18.1,47.9c-1.9,1.9-2,4.9-0.1,6.9l12.3,12.8c1.9,1.9,4.9,2,6.9,0.1l0,0c1.9-1.9,2-4.9,0.1-6.9L24.9,48.1
	C23.1,46.1,20,46.1,18.1,47.9L18.1,47.9L18.1,47.9z"/>
<path class="st0" d="M36.7,36.8c-1.5-0.6-3.2-0.3-4.5,0.5c-7.9,3.8-16,4.6-24.8-0.6l0,0c-0.3-0.2-0.5-0.3-0.8-0.4
	c-2.6-0.9-5.4,0.4-6.3,2.9c-0.9,2.6,0.4,5.4,2.9,6.3l0,0C13.9,51.3,25,52.6,36.9,46c1.2-0.5,2.3-1.5,2.8-2.9
	C40.6,40.6,39.3,37.8,36.7,36.8L36.7,36.8z"/>
</svg>
