<?xml version="1.0" encoding="utf-8"?>
<!-- Generator: Adobe Illustrator 22.0.1, SVG Export Plug-In . SVG Version: 6.00 Build 0)  -->
<svg version="1.1" id="Layer_1" xmlns="http://www.w3.org/2000/svg" xmlns:xlink="http://www.w3.org/1999/xlink" x="0px" y="0px"
	 viewBox="0 0 28.1 16.2" style="enable-background:new 0 0 28.1 16.2;" xml:space="preserve">
<style type="text/css">
	.st0{fill:#FFFFFF;}
</style>
<path class="st0" d="M0.3,2.4C0,1.8-0.3,1.2,0.4,0.8c1.5,0,2.9,0,4.4-0.1c0.6,0,0.9,0.5,1.3,1.1c1,1.9,2,3.8,3.2,5.5
	c0.4,0.6,1.1,0.8,1.6-0.1C11,6.1,11,4.9,11.1,3.6c-0.2-1.4-0.7-2.2-1.6-2.3c-0.5-0.5-0.1-0.9,1-1.1c1.8-0.4,3.3-0.2,4.6,0
	c1.1,0.1,1.3,0.8,1.3,1.7c0,1.6-0.1,3.2-0.1,4.8c0.3,1.6,1.2,1,1.8,0.3c1.1-1.5,2-3,2.7-4.6c0.8-1.7,1-1.6,1.6-1.6
	c1.3,0,2.8-0.1,3.9,0c2.2-0.1,2,0.9,1.3,1.9c-1.1,1.8-2.5,3.5-3.7,5.2c-0.8,1-0.7,1.7,0.1,2.2c1.2,1.3,2.5,2.5,3.5,3.9
	c1.2,1.5,0.3,1.9-0.8,2c-1.3,0-2.6,0-3.9,0c-1.1,0-2.1-0.3-2.8-1.4c-1.6-2.1-2.8-2.7-3.3-1.5c-0.2,0.5-0.4,1.2-0.4,1.9
	c0,1-0.6,1.1-1.4,1.1c-0.9,0-1.7,0.2-2.6,0C9.5,15.3,6.7,14,4,9.3C2.7,7.2,1.5,5,0.3,2.4L0.3,2.4z"/>
</svg>
