<?xml version="1.0" encoding="UTF-8"?> <svg xmlns="http://www.w3.org/2000/svg" width="388" height="168" viewBox="0 0 388 168" fill="#ececec"> <path fill-rule="evenodd" clip-rule="evenodd" d="M184 8C181.791 8 180 6.20914 180 4C180 1.79086 181.791 -2.7141e-07 184 -1.74846e-07C186.209 -7.82811e-08 188 1.79086 188 4C188 6.20914 186.209 8 184 8ZM184 28C181.791 28 180 26.2091 180 24C180 21.7909 181.791 20 184 20C186.209 20 188 21.7909 188 24C188 26.2091 186.209 28 184 28ZM184 48C181.791 48 180 46.2091 180 44C180 41.7909 181.791 40 184 40C186.209 40 188 41.7909 188 44C188 46.2091 186.209 48 184 48ZM184 68C181.791 68 180 66.2091 180 64C180 61.7909 181.791 60 184 60C186.209 60 188 61.7909 188 64C188 66.2091 186.209 68 184 68ZM184 88C181.791 88 180 86.2091 180 84C180 81.7909 181.791 80 184 80C186.209 80 188 81.7909 188 84C188 86.2091 186.209 88 184 88ZM184 108C181.791 108 180 106.209 180 104C180 101.791 181.791 100 184 100C186.209 100 188 101.791 188 104C188 106.209 186.209 108 184 108ZM184 128C181.791 128 180 126.209 180 124C180 121.791 181.791 120 184 120C186.209 120 188 121.791 188 124C188 126.209 186.209 128 184 128ZM184 148C181.791 148 180 146.209 180 144C180 141.791 181.791 140 184 140C186.209 140 188 141.791 188 144C188 146.209 186.209 148 184 148ZM180 164C180 166.209 181.791 168 184 168C186.209 168 188 166.209 188 164C188 161.791 186.209 160 184 160C181.791 160 180 161.791 180 164ZM160 164C160 166.209 161.791 168 164 168C166.209 168 168 166.209 168 164C168 161.791 166.209 160 164 160C161.791 160 160 161.791 160 164ZM143.999 168C141.79 168 139.999 166.209 139.999 164C139.999 161.791 141.79 160 143.999 160C146.208 160 147.999 161.791 147.999 164C147.999 166.209 146.208 168 143.999 168ZM120 164C120 166.209 121.791 168 124 168C126.209 168 128 166.209 128 164C128 161.791 126.209 160 124 160C121.791 160 120 161.791 120 164ZM104 168C101.791 168 100 166.209 100 164C100 161.791 101.791 160 104 160C106.209 160 108 161.791 108 164C108 166.209 106.209 168 104 168ZM79.9994 164C79.9994 166.209 81.7902 168 83.9994 168C86.2085 168 87.9994 166.209 87.9994 164C87.9994 161.791 86.2085 160 83.9994 160C81.7902 160 79.9994 161.791 79.9994 164ZM63.9995 168C61.7904 168 59.9995 166.209 59.9995 164C59.9995 161.791 61.7904 160 63.9995 160C66.2086 160 67.9995 161.791 67.9995 164C67.9995 166.209 66.2086 168 63.9995 168ZM39.9996 164C39.9996 166.209 41.7905 168 43.9996 168C46.2088 168 47.9996 166.209 47.9996 164C47.9996 161.791 46.2088 160 43.9996 160C41.7905 160 39.9996 161.791 39.9996 164ZM23.9998 168C21.7906 168 19.9998 166.209 19.9998 164C19.9998 161.791 21.7906 160 23.9998 160C26.2089 160 27.9998 161.791 27.9998 164C27.9998 166.209 26.2089 168 23.9998 168ZM-9.87214e-05 164C-9.8818e-05 166.209 1.79076 168 3.9999 168C6.20904 168 7.9999 166.209 7.9999 164C7.9999 161.791 6.20904 160 3.9999 160C1.79076 160 -9.86248e-05 161.791 -9.87214e-05 164ZM160 144C160 146.209 161.791 148 164 148C166.209 148 168 146.209 168 144C168 141.791 166.209 140 164 140C161.791 140 160 141.791 160 144ZM143.999 148C141.79 148 139.999 146.209 139.999 144C139.999 141.791 141.79 140 143.999 140C146.208 140 147.999 141.791 147.999 144C147.999 146.209 146.208 148 143.999 148ZM120 144C120 146.209 121.791 148 124 148C126.209 148 128 146.209 128 144C128 141.791 126.209 140 124 140C121.791 140 120 141.791 120 144ZM104 148C101.791 148 100 146.209 100 144C100 141.791 101.791 140 104 140C106.209 140 108 141.791 108 144C108 146.209 106.209 148 104 148ZM79.9994 144C79.9994 146.209 81.7902 148 83.9994 148C86.2085 148 87.9994 146.209 87.9994 144C87.9994 141.791 86.2085 140 83.9994 140C81.7902 140 79.9994 141.791 79.9994 144ZM63.9995 148C61.7904 148 59.9995 146.209 59.9995 144C59.9995 141.791 61.7904 140 63.9995 140C66.2086 140 67.9995 141.791 67.9995 144C67.9995 146.209 66.2086 148 63.9995 148ZM39.9996 144C39.9996 146.209 41.7905 148 43.9996 148C46.2088 148 47.9996 146.209 47.9996 144C47.9996 141.791 46.2088 140 43.9996 140C41.7905 140 39.9996 141.791 39.9996 144ZM23.9998 148C21.7906 148 19.9998 146.209 19.9998 144C19.9998 141.791 21.7906 140 23.9998 140C26.2089 140 27.9998 141.791 27.9998 144C27.9998 146.209 26.2089 148 23.9998 148ZM-9.78472e-05 144C-9.79437e-05 146.209 1.79077 148 3.9999 148C6.20904 148 7.9999 146.209 7.9999 144C7.9999 141.791 6.20904 140 3.9999 140C1.79077 140 -9.77506e-05 141.791 -9.78472e-05 144ZM160 124C160 126.209 161.791 128 164 128C166.209 128 168 126.209 168 124C168 121.791 166.209 120 164 120C161.791 120 160 121.791 160 124ZM143.999 128C141.79 128 139.999 126.209 139.999 124C139.999 121.791 141.79 120 143.999 120C146.208 120 147.999 121.791 147.999 124C147.999 126.209 146.208 128 143.999 128ZM120 124C120 126.209 121.791 128 124 128C126.209 128 128 126.209 128 124C128 121.791 126.209 120 124 120C121.791 120 120 121.791 120 124ZM104 128C101.791 128 100 126.209 100 124C100 121.791 101.791 120 104 120C106.209 120 108 121.791 108 124C108 126.209 106.209 128 104 128ZM79.9994 124C79.9994 126.209 81.7902 128 83.9994 128C86.2085 128 87.9994 126.209 87.9994 124C87.9994 121.791 86.2085 120 83.9994 120C81.7902 120 79.9994 121.791 79.9994 124ZM63.9995 128C61.7904 128 59.9995 126.209 59.9995 124C59.9995 121.791 61.7904 120 63.9995 120C66.2086 120 67.9995 121.791 67.9995 124C67.9995 126.209 66.2086 128 63.9995 128ZM39.9996 124C39.9996 126.209 41.7905 128 43.9996 128C46.2088 128 47.9996 126.209 47.9996 124C47.9996 121.791 46.2088 120 43.9996 120C41.7905 120 39.9996 121.791 39.9996 124ZM23.9998 128C21.7906 128 19.9998 126.209 19.9998 124C19.9998 121.791 21.7906 120 23.9998 120C26.2089 120 27.9998 121.791 27.9998 124C27.9998 126.209 26.2089 128 23.9998 128ZM-9.69729e-05 124C-9.70695e-05 126.209 1.79077 128 3.9999 128C6.20904 128 7.9999 126.209 7.9999 124C7.9999 121.791 6.20904 120 3.9999 120C1.79077 120 -9.68764e-05 121.791 -9.69729e-05 124ZM160 104C160 106.209 161.791 108 164 108C166.209 108 168 106.209 168 104C168 101.791 166.209 100 164 100C161.791 100 160 101.791 160 104ZM143.999 108C141.79 108 139.999 106.209 139.999 104C139.999 101.791 141.79 100 143.999 100C146.208 100 147.999 101.791 147.999 104C147.999 106.209 146.208 108 143.999 108ZM120 104C120 106.209 121.791 108 124 108C126.209 108 128 106.209 128 104C128 101.791 126.209 100 124 100C121.791 100 120 101.791 120 104ZM104 108C101.791 108 100 106.209 100 104C100 101.791 101.791 100 104 100C106.209 100 108 101.791 108 104C108 106.209 106.209 108 104 108ZM79.9994 104C79.9994 106.209 81.7902 108 83.9994 108C86.2085 108 87.9994 106.209 87.9994 104C87.9994 101.791 86.2085 100 83.9994 100C81.7902 100 79.9994 101.791 79.9994 104ZM63.9995 108C61.7904 108 59.9995 106.209 59.9995 104C59.9995 101.791 61.7904 100 63.9995 100C66.2086 100 67.9995 101.791 67.9995 104C67.9995 106.209 66.2086 108 63.9995 108ZM39.9996 104C39.9996 106.209 41.7905 108 43.9996 108C46.2088 108 47.9996 106.209 47.9996 104C47.9996 101.791 46.2088 100 43.9996 100C41.7905 100 39.9996 101.791 39.9996 104ZM23.9998 108C21.7906 108 19.9998 106.209 19.9998 104C19.9998 101.791 21.7906 100 23.9998 100C26.2089 100 27.9998 101.791 27.9998 104C27.9998 106.209 26.2089 108 23.9998 108ZM-9.60987e-05 104C-9.61953e-05 106.209 1.79077 108 3.9999 108C6.20904 108 7.9999 106.209 7.9999 104C7.9999 101.791 6.20904 100 3.9999 100C1.79077 100 -9.60022e-05 101.791 -9.60987e-05 104ZM160 84C160 86.2091 161.791 88 164 88C166.209 88 168 86.2091 168 84C168 81.7909 166.209 80 164 80C161.791 80 160 81.7909 160 84ZM143.999 88C141.79 88 139.999 86.2091 139.999 84C139.999 81.7909 141.79 80 143.999 80C146.208 80 147.999 81.7909 147.999 84C147.999 86.2091 146.208 88 143.999 88ZM120 84C120 86.2091 121.791 88 124 88C126.209 88 128 86.2091 128 84C128 81.7909 126.209 80 124 80C121.791 80 120 81.7909 120 84ZM104 88C101.791 88 100 86.2091 100 84C100 81.7909 101.791 80 104 80C106.209 80 108 81.7909 108 84C108 86.2091 106.209 88 104 88ZM79.9994 84C79.9994 86.2091 81.7902 88 83.9994 88C86.2085 88 87.9994 86.2091 87.9994 84C87.9994 81.7909 86.2085 80 83.9994 80C81.7902 80 79.9994 81.7909 79.9994 84ZM63.9995 88C61.7904 88 59.9995 86.2091 59.9995 84C59.9995 81.7909 61.7904 80 63.9995 80C66.2086 80 67.9995 81.7909 67.9995 84C67.9995 86.2091 66.2086 88 63.9995 88ZM39.9996 84C39.9996 86.2091 41.7905 88 43.9996 88C46.2088 88 47.9996 86.2091 47.9996 84C47.9996 81.7909 46.2088 80 43.9996 80C41.7905 80 39.9996 81.7909 39.9996 84ZM23.9998 88C21.7906 88 19.9998 86.2091 19.9998 84C19.9998 81.7909 21.7906 80 23.9998 80C26.2089 80 27.9998 81.7909 27.9998 84C27.9998 86.2091 26.2089 88 23.9998 88ZM-9.52245e-05 84C-9.53211e-05 86.2091 1.79077 88 3.9999 88C6.20904 88 7.9999 86.2091 7.9999 84C7.9999 81.7909 6.20904 80 3.9999 80C1.79077 80 -9.51279e-05 81.7909 -9.52245e-05 84ZM160 64C160 66.2091 161.791 68 164 68C166.209 68 168 66.2091 168 64C168 61.7909 166.209 60 164 60C161.791 60 160 61.7909 160 64ZM143.999 68C141.79 68 139.999 66.2091 139.999 64C139.999 61.7909 141.79 60 143.999 60C146.208 60 147.999 61.7909 147.999 64C147.999 66.2091 146.208 68 143.999 68ZM120 64C120 66.2091 121.791 68 124 68C126.209 68 128 66.2091 128 64C128 61.7909 126.209 60 124 60C121.791 60 120 61.7909 120 64ZM104 68C101.791 68 100 66.2091 100 64C100 61.7909 101.791 60 104 60C106.209 60 108 61.7909 108 64C108 66.2091 106.209 68 104 68ZM79.9994 64C79.9994 66.2091 81.7902 68 83.9994 68C86.2085 68 87.9994 66.2091 87.9994 64C87.9994 61.7909 86.2085 60 83.9994 60C81.7902 60 79.9994 61.7909 79.9994 64ZM63.9995 68C61.7904 68 59.9995 66.2091 59.9995 64C59.9995 61.7909 61.7904 60 63.9995 60C66.2086 60 67.9995 61.7909 67.9995 64C67.9995 66.2091 66.2086 68 63.9995 68ZM39.9996 64C39.9996 66.2091 41.7905 68 43.9996 68C46.2088 68 47.9996 66.2091 47.9996 64C47.9996 61.7909 46.2088 60 43.9996 60C41.7905 60 39.9996 61.7909 39.9996 64ZM23.9998 68C21.7906 68 19.9998 66.2091 19.9998 64C19.9998 61.7909 21.7906 60 23.9998 60C26.2089 60 27.9998 61.7909 27.9998 64C27.9998 66.2091 26.2089 68 23.9998 68ZM-9.43503e-05 64C-9.44468e-05 66.2091 1.79077 68 3.99991 68C6.20904 68 7.99991 66.2091 7.99991 64C7.99991 61.7909 6.20904 60 3.99991 60C1.79077 60 -9.42537e-05 61.7909 -9.43503e-05 64ZM160 44C160 46.2091 161.791 48 164 48C166.209 48 168 46.2091 168 44C168 41.7909 166.209 40 164 40C161.791 40 160 41.7909 160 44ZM143.999 48C141.79 48 139.999 46.2091 139.999 44C139.999 41.7909 141.79 40 143.999 40C146.208 40 147.999 41.7909 147.999 44C147.999 46.2091 146.208 48 143.999 48ZM120 44C120 46.2091 121.791 48 124 48C126.209 48 128 46.2091 128 44C128 41.7909 126.209 40 124 40C121.791 40 120 41.7909 120 44ZM104 48C101.791 48 100 46.2091 100 44C100 41.7909 101.791 40 104 40C106.209 40 108 41.7909 108 44C108 46.2091 106.209 48 104 48ZM79.9994 44C79.9994 46.2091 81.7902 48 83.9994 48C86.2085 48 87.9994 46.2091 87.9994 44C87.9994 41.7909 86.2085 40 83.9994 40C81.7902 40 79.9994 41.7909 79.9994 44ZM63.9995 48C61.7904 48 59.9995 46.2091 59.9995 44C59.9995 41.7909 61.7904 40 63.9995 40C66.2086 40 67.9995 41.7909 67.9995 44C67.9995 46.2091 66.2086 48 63.9995 48ZM39.9996 44C39.9996 46.2091 41.7905 48 43.9996 48C46.2088 48 47.9996 46.2091 47.9996 44C47.9996 41.7909 46.2088 40 43.9996 40C41.7905 40 39.9996 41.7909 39.9996 44ZM23.9998 48C21.7906 48 19.9998 46.2091 19.9998 44C19.9998 41.7909 21.7906 40 23.9998 40C26.2089 40 27.9998 41.7909 27.9998 44C27.9998 46.2091 26.2089 48 23.9998 48ZM-9.3476e-05 44C-9.35726e-05 46.2091 1.79077 48 3.99991 48C6.20904 48 7.99991 46.2091 7.99991 44C7.99991 41.7909 6.20904 40 3.99991 40C1.79077 40 -9.33795e-05 41.7909 -9.3476e-05 44ZM160 24C160 26.2091 161.791 28 164 28C166.209 28 168 26.2091 168 24C168 21.7909 166.209 20 164 20C161.791 20 160 21.7909 160 24ZM143.999 28C141.79 28 139.999 26.2091 139.999 24C139.999 21.7909 141.79 20 143.999 20C146.208 20 147.999 21.7909 147.999 24C147.999 26.2091 146.208 28 143.999 28ZM120 24C120 26.2091 121.791 28 124 28C126.209 28 128 26.2091 128 24C128 21.7909 126.209 20 124 20C121.791 20 120 21.7909 120 24ZM104 28C101.791 28 100 26.2091 100 24C100 21.7909 101.791 20 104 20C106.209 20 108 21.7909 108 24C108 26.2091 106.209 28 104 28ZM79.9994 24C79.9994 26.2091 81.7902 28 83.9994 28C86.2085 28 87.9994 26.2091 87.9994 24C87.9994 21.7909 86.2085 20 83.9994 20C81.7902 20 79.9994 21.7909 79.9994 24ZM63.9995 28C61.7904 28 59.9995 26.2091 59.9995 24C59.9995 21.7909 61.7904 20 63.9995 20C66.2086 20 67.9995 21.7909 67.9995 24C67.9995 26.2091 66.2086 28 63.9995 28ZM39.9996 24C39.9996 26.2091 41.7905 28 43.9996 28C46.2088 28 47.9996 26.2091 47.9996 24C47.9996 21.7909 46.2088 20 43.9996 20C41.7905 20 39.9996 21.7909 39.9996 24ZM23.9998 28C21.7906 28 19.9998 26.2091 19.9998 24C19.9998 21.7909 21.7906 20 23.9998 20C26.2089 20 27.9998 21.7909 27.9998 24C27.9998 26.2091 26.2089 28 23.9998 28ZM-9.26018e-05 24C-9.26984e-05 26.2091 1.79077 28 3.99991 28C6.20904 28 7.99991 26.2091 7.99991 24C7.99991 21.7909 6.20904 20 3.99991 20C1.79077 20 -9.25052e-05 21.7909 -9.26018e-05 24ZM160 4C160 6.20914 161.791 8 164 8C166.209 8 168 6.20914 168 4C168 1.79086 166.209 -9.52502e-07 164 -1.04907e-06C161.791 -1.14563e-06 160 1.79086 160 4ZM143.999 8C141.79 8 139.999 6.20914 139.999 4C139.999 1.79086 141.79 -2.0199e-06 143.999 -1.92333e-06C146.208 -1.82677e-06 147.999 1.79086 147.999 4C147.999 6.20914 146.208 8 143.999 8ZM120 4C120 6.20914 121.791 8 124 8C126.209 8 128 6.20914 128 4C128 1.79086 126.209 -2.70095e-06 124 -2.79751e-06C121.791 -2.89408e-06 120 1.79086 120 4ZM104 8C101.791 8 100 6.20914 100 4C100 1.79086 101.791 -3.7683e-06 104 -3.67173e-06C106.209 -3.57517e-06 108 1.79086 108 4C108 6.20914 106.209 8 104 8ZM79.9994 4C79.9994 6.20913 81.7902 8 83.9994 8C86.2085 8 87.9994 6.20913 87.9994 4C87.9994 1.79086 86.2085 -4.44944e-06 83.9994 -4.546e-06C81.7902 -4.64257e-06 79.9994 1.79086 79.9994 4ZM63.9995 7.99999C61.7904 7.99999 59.9995 6.20913 59.9995 3.99999C59.9995 1.79086 61.7904 -5.51679e-06 63.9995 -5.42022e-06C66.2086 -5.32366e-06 67.9995 1.79086 67.9995 3.99999C67.9995 6.20913 66.2086 7.99999 63.9995 7.99999ZM39.9996 3.99999C39.9996 6.20913 41.7905 7.99999 43.9996 7.99999C46.2088 7.99999 47.9996 6.20913 47.9996 3.99999C47.9996 1.79085 46.2088 -6.19788e-06 43.9996 -6.29444e-06C41.7905 -6.39101e-06 39.9996 1.79085 39.9996 3.99999ZM23.9998 7.99999C21.7906 7.99999 19.9998 6.20913 19.9998 3.99999C19.9998 1.79085 21.7906 -7.26523e-06 23.9998 -7.16867e-06C26.2089 -7.0721e-06 27.9998 1.79085 27.9998 3.99999C27.9998 6.20913 26.2089 7.99999 23.9998 7.99999ZM-9.17276e-05 3.99999C-9.18241e-05 6.20913 1.79077 7.99999 3.99991 7.99999C6.20905 7.99999 7.99991 6.20913 7.99991 3.99999C7.99991 1.79085 6.20905 -7.94632e-06 3.99991 -8.04289e-06C1.79077 -8.13945e-06 -9.1631e-05 1.79085 -9.17276e-05 3.99999Z" fill="#ECECEC"></path> <path fill-rule="evenodd" clip-rule="evenodd" d="M384 8C381.791 8 380 6.20914 380 4C380 1.79086 381.791 -2.7141e-07 384 -1.74846e-07C386.209 -7.82811e-08 388 1.79086 388 4C388 6.20914 386.209 8 384 8ZM384 28C381.791 28 380 26.2091 380 24C380 21.7909 381.791 20 384 20C386.209 20 388 21.7909 388 24C388 26.2091 386.209 28 384 28ZM384 48C381.791 48 380 46.2091 380 44C380 41.7909 381.791 40 384 40C386.209 40 388 41.7909 388 44C388 46.2091 386.209 48 384 48ZM384 68C381.791 68 380 66.2091 380 64C380 61.7909 381.791 60 384 60C386.209 60 388 61.7909 388 64C388 66.2091 386.209 68 384 68ZM384 88C381.791 88 380 86.2091 380 84C380 81.7909 381.791 80 384 80C386.209 80 388 81.7909 388 84C388 86.2091 386.209 88 384 88ZM384 108C381.791 108 380 106.209 380 104C380 101.791 381.791 100 384 100C386.209 100 388 101.791 388 104C388 106.209 386.209 108 384 108ZM384 128C381.791 128 380 126.209 380 124C380 121.791 381.791 120 384 120C386.209 120 388 121.791 388 124C388 126.209 386.209 128 384 128ZM384 148C381.791 148 380 146.209 380 144C380 141.791 381.791 140 384 140C386.209 140 388 141.791 388 144C388 146.209 386.209 148 384 148ZM380 164C380 166.209 381.791 168 384 168C386.209 168 388 166.209 388 164C388 161.791 386.209 160 384 160C381.791 160 380 161.791 380 164ZM360 164C360 166.209 361.791 168 364 168C366.209 168 368 166.209 368 164C368 161.791 366.209 160 364 160C361.791 160 360 161.791 360 164ZM343.999 168C341.79 168 339.999 166.209 339.999 164C339.999 161.791 341.79 160 343.999 160C346.208 160 347.999 161.791 347.999 164C347.999 166.209 346.208 168 343.999 168ZM320 164C320 166.209 321.791 168 324 168C326.209 168 328 166.209 328 164C328 161.791 326.209 160 324 160C321.791 160 320 161.791 320 164ZM304 168C301.791 168 300 166.209 300 164C300 161.791 301.791 160 304 160C306.209 160 308 161.791 308 164C308 166.209 306.209 168 304 168ZM279.999 164C279.999 166.209 281.79 168 283.999 168C286.209 168 287.999 166.209 287.999 164C287.999 161.791 286.209 160 283.999 160C281.79 160 279.999 161.791 279.999 164ZM264 168C261.79 168 260 166.209 260 164C260 161.791 261.79 160 264 160C266.209 160 268 161.791 268 164C268 166.209 266.209 168 264 168ZM240 164C240 166.209 241.791 168 244 168C246.209 168 248 166.209 248 164C248 161.791 246.209 160 244 160C241.791 160 240 161.791 240 164ZM224 168C221.791 168 220 166.209 220 164C220 161.791 221.791 160 224 160C226.209 160 228 161.791 228 164C228 166.209 226.209 168 224 168ZM200 164C200 166.209 201.791 168 204 168C206.209 168 208 166.209 208 164C208 161.791 206.209 160 204 160C201.791 160 200 161.791 200 164ZM360 144C360 146.209 361.791 148 364 148C366.209 148 368 146.209 368 144C368 141.791 366.209 140 364 140C361.791 140 360 141.791 360 144ZM343.999 148C341.79 148 339.999 146.209 339.999 144C339.999 141.791 341.79 140 343.999 140C346.208 140 347.999 141.791 347.999 144C347.999 146.209 346.208 148 343.999 148ZM320 144C320 146.209 321.791 148 324 148C326.209 148 328 146.209 328 144C328 141.791 326.209 140 324 140C321.791 140 320 141.791 320 144ZM304 148C301.791 148 300 146.209 300 144C300 141.791 301.791 140 304 140C306.209 140 308 141.791 308 144C308 146.209 306.209 148 304 148ZM279.999 144C279.999 146.209 281.79 148 283.999 148C286.209 148 287.999 146.209 287.999 144C287.999 141.791 286.209 140 283.999 140C281.79 140 279.999 141.791 279.999 144ZM264 148C261.79 148 260 146.209 260 144C260 141.791 261.79 140 264 140C266.209 140 268 141.791 268 144C268 146.209 266.209 148 264 148ZM240 144C240 146.209 241.791 148 244 148C246.209 148 248 146.209 248 144C248 141.791 246.209 140 244 140C241.791 140 240 141.791 240 144ZM224 148C221.791 148 220 146.209 220 144C220 141.791 221.791 140 224 140C226.209 140 228 141.791 228 144C228 146.209 226.209 148 224 148ZM200 144C200 146.209 201.791 148 204 148C206.209 148 208 146.209 208 144C208 141.791 206.209 140 204 140C201.791 140 200 141.791 200 144ZM360 124C360 126.209 361.791 128 364 128C366.209 128 368 126.209 368 124C368 121.791 366.209 120 364 120C361.791 120 360 121.791 360 124ZM343.999 128C341.79 128 339.999 126.209 339.999 124C339.999 121.791 341.79 120 343.999 120C346.208 120 347.999 121.791 347.999 124C347.999 126.209 346.208 128 343.999 128ZM320 124C320 126.209 321.791 128 324 128C326.209 128 328 126.209 328 124C328 121.791 326.209 120 324 120C321.791 120 320 121.791 320 124ZM304 128C301.791 128 300 126.209 300 124C300 121.791 301.791 120 304 120C306.209 120 308 121.791 308 124C308 126.209 306.209 128 304 128ZM279.999 124C279.999 126.209 281.79 128 283.999 128C286.209 128 287.999 126.209 287.999 124C287.999 121.791 286.209 120 283.999 120C281.79 120 279.999 121.791 279.999 124ZM264 128C261.79 128 260 126.209 260 124C260 121.791 261.79 120 264 120C266.209 120 268 121.791 268 124C268 126.209 266.209 128 264 128ZM240 124C240 126.209 241.791 128 244 128C246.209 128 248 126.209 248 124C248 121.791 246.209 120 244 120C241.791 120 240 121.791 240 124ZM224 128C221.791 128 220 126.209 220 124C220 121.791 221.791 120 224 120C226.209 120 228 121.791 228 124C228 126.209 226.209 128 224 128ZM200 124C200 126.209 201.791 128 204 128C206.209 128 208 126.209 208 124C208 121.791 206.209 120 204 120C201.791 120 200 121.791 200 124ZM360 104C360 106.209 361.791 108 364 108C366.209 108 368 106.209 368 104C368 101.791 366.209 100 364 100C361.791 100 360 101.791 360 104ZM343.999 108C341.79 108 339.999 106.209 339.999 104C339.999 101.791 341.79 100 343.999 100C346.208 100 347.999 101.791 347.999 104C347.999 106.209 346.208 108 343.999 108ZM320 104C320 106.209 321.791 108 324 108C326.209 108 328 106.209 328 104C328 101.791 326.209 100 324 100C321.791 100 320 101.791 320 104ZM304 108C301.791 108 300 106.209 300 104C300 101.791 301.791 100 304 100C306.209 100 308 101.791 308 104C308 106.209 306.209 108 304 108ZM279.999 104C279.999 106.209 281.79 108 283.999 108C286.209 108 287.999 106.209 287.999 104C287.999 101.791 286.209 100 283.999 100C281.79 100 279.999 101.791 279.999 104ZM264 108C261.79 108 260 106.209 260 104C260 101.791 261.79 100 264 100C266.209 100 268 101.791 268 104C268 106.209 266.209 108 264 108ZM240 104C240 106.209 241.791 108 244 108C246.209 108 248 106.209 248 104C248 101.791 246.209 100 244 100C241.791 100 240 101.791 240 104ZM224 108C221.791 108 220 106.209 220 104C220 101.791 221.791 100 224 100C226.209 100 228 101.791 228 104C228 106.209 226.209 108 224 108ZM200 104C200 106.209 201.791 108 204 108C206.209 108 208 106.209 208 104C208 101.791 206.209 100 204 100C201.791 100 200 101.791 200 104ZM360 84C360 86.2091 361.791 88 364 88C366.209 88 368 86.2091 368 84C368 81.7909 366.209 80 364 80C361.791 80 360 81.7909 360 84ZM343.999 88C341.79 88 339.999 86.2091 339.999 84C339.999 81.7909 341.79 80 343.999 80C346.208 80 347.999 81.7909 347.999 84C347.999 86.2091 346.208 88 343.999 88ZM320 84C320 86.2091 321.791 88 324 88C326.209 88 328 86.2091 328 84C328 81.7909 326.209 80 324 80C321.791 80 320 81.7909 320 84ZM304 88C301.791 88 300 86.2091 300 84C300 81.7909 301.791 80 304 80C306.209 80 308 81.7909 308 84C308 86.2091 306.209 88 304 88ZM279.999 84C279.999 86.2091 281.79 88 283.999 88C286.209 88 287.999 86.2091 287.999 84C287.999 81.7909 286.209 80 283.999 80C281.79 80 279.999 81.7909 279.999 84ZM264 88C261.79 88 260 86.2091 260 84C260 81.7909 261.79 80 264 80C266.209 80 268 81.7909 268 84C268 86.2091 266.209 88 264 88ZM240 84C240 86.2091 241.791 88 244 88C246.209 88 248 86.2091 248 84C248 81.7909 246.209 80 244 80C241.791 80 240 81.7909 240 84ZM224 88C221.791 88 220 86.2091 220 84C220 81.7909 221.791 80 224 80C226.209 80 228 81.7909 228 84C228 86.2091 226.209 88 224 88ZM200 84C200 86.2091 201.791 88 204 88C206.209 88 208 86.2091 208 84C208 81.7909 206.209 80 204 80C201.791 80 200 81.7909 200 84ZM360 64C360 66.2091 361.791 68 364 68C366.209 68 368 66.2091 368 64C368 61.7909 366.209 60 364 60C361.791 60 360 61.7909 360 64ZM343.999 68C341.79 68 339.999 66.2091 339.999 64C339.999 61.7909 341.79 60 343.999 60C346.208 60 347.999 61.7909 347.999 64C347.999 66.2091 346.208 68 343.999 68ZM320 64C320 66.2091 321.791 68 324 68C326.209 68 328 66.2091 328 64C328 61.7909 326.209 60 324 60C321.791 60 320 61.7909 320 64ZM304 68C301.791 68 300 66.2091 300 64C300 61.7909 301.791 60 304 60C306.209 60 308 61.7909 308 64C308 66.2091 306.209 68 304 68ZM279.999 64C279.999 66.2091 281.79 68 283.999 68C286.209 68 287.999 66.2091 287.999 64C287.999 61.7909 286.209 60 283.999 60C281.79 60 279.999 61.7909 279.999 64ZM264 68C261.79 68 260 66.2091 260 64C260 61.7909 261.79 60 264 60C266.209 60 268 61.7909 268 64C268 66.2091 266.209 68 264 68ZM240 64C240 66.2091 241.791 68 244 68C246.209 68 248 66.2091 248 64C248 61.7909 246.209 60 244 60C241.791 60 240 61.7909 240 64ZM224 68C221.791 68 220 66.2091 220 64C220 61.7909 221.791 60 224 60C226.209 60 228 61.7909 228 64C228 66.2091 226.209 68 224 68ZM200 64C200 66.2091 201.791 68 204 68C206.209 68 208 66.2091 208 64C208 61.7909 206.209 60 204 60C201.791 60 200 61.7909 200 64ZM360 44C360 46.2091 361.791 48 364 48C366.209 48 368 46.2091 368 44C368 41.7909 366.209 40 364 40C361.791 40 360 41.7909 360 44ZM343.999 48C341.79 48 339.999 46.2091 339.999 44C339.999 41.7909 341.79 40 343.999 40C346.208 40 347.999 41.7909 347.999 44C347.999 46.2091 346.208 48 343.999 48ZM320 44C320 46.2091 321.791 48 324 48C326.209 48 328 46.2091 328 44C328 41.7909 326.209 40 324 40C321.791 40 320 41.7909 320 44ZM304 48C301.791 48 300 46.2091 300 44C300 41.7909 301.791 40 304 40C306.209 40 308 41.7909 308 44C308 46.2091 306.209 48 304 48ZM279.999 44C279.999 46.2091 281.79 48 283.999 48C286.209 48 287.999 46.2091 287.999 44C287.999 41.7909 286.209 40 283.999 40C281.79 40 279.999 41.7909 279.999 44ZM264 48C261.79 48 260 46.2091 260 44C260 41.7909 261.79 40 264 40C266.209 40 268 41.7909 268 44C268 46.2091 266.209 48 264 48ZM240 44C240 46.2091 241.791 48 244 48C246.209 48 248 46.2091 248 44C248 41.7909 246.209 40 244 40C241.791 40 240 41.7909 240 44ZM224 48C221.791 48 220 46.2091 220 44C220 41.7909 221.791 40 224 40C226.209 40 228 41.7909 228 44C228 46.2091 226.209 48 224 48ZM200 44C200 46.2091 201.791 48 204 48C206.209 48 208 46.2091 208 44C208 41.7909 206.209 40 204 40C201.791 40 200 41.7909 200 44ZM360 24C360 26.2091 361.791 28 364 28C366.209 28 368 26.2091 368 24C368 21.7909 366.209 20 364 20C361.791 20 360 21.7909 360 24ZM343.999 28C341.79 28 339.999 26.2091 339.999 24C339.999 21.7909 341.79 20 343.999 20C346.208 20 347.999 21.7909 347.999 24C347.999 26.2091 346.208 28 343.999 28ZM320 24C320 26.2091 321.791 28 324 28C326.209 28 328 26.2091 328 24C328 21.7909 326.209 20 324 20C321.791 20 320 21.7909 320 24ZM304 28C301.791 28 300 26.2091 300 24C300 21.7909 301.791 20 304 20C306.209 20 308 21.7909 308 24C308 26.2091 306.209 28 304 28ZM279.999 24C279.999 26.2091 281.79 28 283.999 28C286.209 28 287.999 26.2091 287.999 24C287.999 21.7909 286.209 20 283.999 20C281.79 20 279.999 21.7909 279.999 24ZM264 28C261.79 28 260 26.2091 260 24C260 21.7909 261.79 20 264 20C266.209 20 268 21.7909 268 24C268 26.2091 266.209 28 264 28ZM240 24C240 26.2091 241.791 28 244 28C246.209 28 248 26.2091 248 24C248 21.7909 246.209 20 244 20C241.791 20 240 21.7909 240 24ZM224 28C221.791 28 220 26.2091 220 24C220 21.7909 221.791 20 224 20C226.209 20 228 21.7909 228 24C228 26.2091 226.209 28 224 28ZM200 24C200 26.2091 201.791 28 204 28C206.209 28 208 26.2091 208 24C208 21.7909 206.209 20 204 20C201.791 20 200 21.7909 200 24ZM360 4C360 6.20914 361.791 8 364 8C366.209 8 368 6.20914 368 4C368 1.79086 366.209 -9.52502e-07 364 -1.04907e-06C361.791 -1.14563e-06 360 1.79086 360 4ZM343.999 8C341.79 8 339.999 6.20914 339.999 4C339.999 1.79086 341.79 -2.0199e-06 343.999 -1.92333e-06C346.208 -1.82677e-06 347.999 1.79086 347.999 4C347.999 6.20914 346.208 8 343.999 8ZM320 4C320 6.20914 321.791 8 324 8C326.209 8 328 6.20914 328 4C328 1.79086 326.209 -2.70095e-06 324 -2.79751e-06C321.791 -2.89408e-06 320 1.79086 320 4ZM304 8C301.791 8 300 6.20914 300 4C300 1.79086 301.791 -3.7683e-06 304 -3.67173e-06C306.209 -3.57517e-06 308 1.79086 308 4C308 6.20914 306.209 8 304 8ZM279.999 4C279.999 6.20913 281.79 8 283.999 8C286.209 8 287.999 6.20913 287.999 4C287.999 1.79086 286.209 -4.44944e-06 283.999 -4.546e-06C281.79 -4.64257e-06 279.999 1.79086 279.999 4ZM264 7.99999C261.79 7.99999 260 6.20913 260 3.99999C260 1.79086 261.79 -5.51679e-06 264 -5.42022e-06C266.209 -5.32366e-06 268 1.79086 268 3.99999C268 6.20913 266.209 7.99999 264 7.99999ZM240 3.99999C240 6.20913 241.791 7.99999 244 7.99999C246.209 7.99999 248 6.20913 248 3.99999C248 1.79085 246.209 -6.19788e-06 244 -6.29444e-06C241.791 -6.39101e-06 240 1.79085 240 3.99999ZM224 7.99999C221.791 7.99999 220 6.20913 220 3.99999C220 1.79085 221.791 -7.26523e-06 224 -7.16867e-06C226.209 -7.0721e-06 228 1.79085 228 3.99999C228 6.20913 226.209 7.99999 224 7.99999ZM200 3.99999C200 6.20913 201.791 7.99999 204 7.99999C206.209 7.99999 208 6.20913 208 3.99999C208 1.79085 206.209 -7.94632e-06 204 -8.04289e-06C201.791 -8.13945e-06 200 1.79085 200 3.99999Z" fill="#ECECEC"></path> </svg> 