<?xml version="1.0" encoding="UTF-8"?> <svg xmlns="http://www.w3.org/2000/svg" width="168" height="88" viewBox="0 0 168 88" fill="rgba(255,255,255,0.6)"> <path d="M8 4C8 1.79086 6.20914 -2.7141e-07 4 -1.74846e-07C1.79086 -7.8281e-08 -3.76832e-06 1.79086 -3.67176e-06 4C-3.57519e-06 6.20914 1.79086 8 4 8C6.20914 8 8 6.20914 8 4ZM24 4C24 1.79086 22.2091 -9.70792e-07 20 -8.74228e-07C17.7909 -7.77663e-07 16 1.79086 16 4C16 6.20914 17.7909 8 20 8C22.2091 8 24 6.20914 24 4ZM20 16C22.2091 16 24 17.7909 24 20C24 22.2091 22.2091 24 20 24C17.7909 24 16 22.2091 16 20C16 17.7909 17.7909 16 20 16ZM40 4C40 1.79086 38.2091 -1.67017e-06 36 -1.57361e-06C33.7909 -1.47705e-06 32 1.79086 32 4C32 6.20914 33.7909 8 36 8C38.2091 8 40 6.20914 40 4ZM36 16C38.2091 16 40 17.7909 40 20C40 22.2091 38.2091 24 36 24C33.7909 24 32 22.2091 32 20C32 17.7909 33.7909 16 36 16ZM40 36C40 33.7909 38.2091 32 36 32C33.7909 32 32 33.7909 32 36C32 38.2091 33.7909 40 36 40C38.2091 40 40 38.2091 40 36ZM52 -2.27299e-06C54.2091 -2.36956e-06 56 1.79086 56 4C56 6.20913 54.2091 8 52 8C49.7909 8 48 6.20913 48 4C48 1.79086 49.7909 -2.17643e-06 52 -2.27299e-06ZM56 20C56 17.7909 54.2091 16 52 16C49.7909 16 48 17.7909 48 20C48 22.2091 49.7909 24 52 24C54.2091 24 56 22.2091 56 20ZM52 32C54.2091 32 56 33.7909 56 36C56 38.2091 54.2091 40 52 40C49.7909 40 48 38.2091 48 36C48 33.7909 49.7909 32 52 32ZM56 52C56 49.7909 54.2091 48 52 48C49.7909 48 48 49.7909 48 52C48 54.2091 49.7909 56 52 56C54.2091 56 56 54.2091 56 52ZM68 -2.97237e-06C70.2091 -3.06894e-06 72 1.79086 72 4C72 6.20913 70.2091 8 68 8C65.7909 8 64 6.20913 64 4C64 1.79086 65.7909 -2.87581e-06 68 -2.97237e-06ZM72 20C72 17.7909 70.2091 16 68 16C65.7909 16 64 17.7909 64 20C64 22.2091 65.7909 24 68 24C70.2091 24 72 22.2091 72 20ZM68 32C70.2091 32 72 33.7909 72 36C72 38.2091 70.2091 40 68 40C65.7909 40 64 38.2091 64 36C64 33.7909 65.7909 32 68 32ZM72 52C72 49.7909 70.2091 48 68 48C65.7909 48 64 49.7909 64 52C64 54.2091 65.7909 56 68 56C70.2091 56 72 54.2091 72 52ZM68 64C70.2091 64 72 65.7909 72 68C72 70.2091 70.2091 72 68 72C65.7909 72 64 70.2091 64 68C64 65.7909 65.7909 64 68 64ZM88 4C88 1.79086 86.2091 -3.76832e-06 84 -3.67176e-06C81.7909 -3.57519e-06 80 1.79086 80 4C80 6.20913 81.7909 8 84 8C86.2091 8 88 6.20913 88 4ZM84 16C86.2091 16 88 17.7909 88 20C88 22.2091 86.2091 24 84 24C81.7909 24 80 22.2091 80 20C80 17.7909 81.7909 16 84 16ZM88 36C88 33.7909 86.2091 32 84 32C81.7909 32 80 33.7909 80 36C80 38.2091 81.7909 40 84 40C86.2091 40 88 38.2091 88 36ZM84 48C86.2091 48 88 49.7909 88 52C88 54.2091 86.2091 56 84 56C81.7909 56 80 54.2091 80 52C80 49.7909 81.7909 48 84 48ZM88 68C88 65.7909 86.2091 64 84 64C81.7909 64 80 65.7909 80 68C80 70.2091 81.7909 72 84 72C86.2091 72 88 70.2091 88 68ZM100 64C102.209 64 104 65.7909 104 68C104 70.2091 102.209 72 100 72C97.7909 72 96 70.2091 96 68C96 65.7909 97.7909 64 100 64ZM88 84C88 81.7909 86.2091 80 84 80C81.7909 80 80 81.7909 80 84C80 86.2091 81.7909 88 84 88C86.2091 88 88 86.2091 88 84ZM100 -4.37114e-06C102.209 -4.4677e-06 104 1.79086 104 4C104 6.20913 102.209 8 100 8C97.7909 8 96 6.20913 96 4C96 1.79086 97.7909 -4.27457e-06 100 -4.37114e-06ZM104 20C104 17.7909 102.209 16 100 16C97.7909 16 96 17.7909 96 20C96 22.2091 97.7909 24 100 24C102.209 24 104 22.2091 104 20ZM100 32C102.209 32 104 33.7909 104 36C104 38.2091 102.209 40 100 40C97.7909 40 96 38.2091 96 36C96 33.7909 97.7909 32 100 32ZM104 52C104 49.7909 102.209 48 100 48C97.7909 48 96 49.7909 96 52C96 54.2091 97.7909 56 100 56C102.209 56 104 54.2091 104 52ZM116 48C118.209 48 120 49.7909 120 52C120 54.2091 118.209 56 116 56C113.791 56 112 54.2091 112 52C112 49.7909 113.791 48 116 48ZM120 3.99999C120 1.79086 118.209 -5.16709e-06 116 -5.07052e-06C113.791 -4.97396e-06 112 1.79086 112 4C112 6.20913 113.791 8 116 7.99999C118.209 7.99999 120 6.20913 120 3.99999ZM116 16C118.209 16 120 17.7909 120 20C120 22.2091 118.209 24 116 24C113.791 24 112 22.2091 112 20C112 17.7909 113.791 16 116 16ZM120 36C120 33.7909 118.209 32 116 32C113.791 32 112 33.7909 112 36C112 38.2091 113.791 40 116 40C118.209 40 120 38.2091 120 36ZM132 32C134.209 32 136 33.7909 136 36C136 38.2091 134.209 40 132 40C129.791 40 128 38.2091 128 36C128 33.7909 129.791 32 132 32ZM136 3.99999C136 1.79086 134.209 -5.86647e-06 132 -5.7699e-06C129.791 -5.67334e-06 128 1.79086 128 3.99999C128 6.20913 129.791 7.99999 132 7.99999C134.209 7.99999 136 6.20913 136 3.99999ZM132 16C134.209 16 136 17.7909 136 20C136 22.2091 134.209 24 132 24C129.791 24 128 22.2091 128 20C128 17.7909 129.791 16 132 16ZM152 20C152 17.7909 150.209 16 148 16C145.791 16 144 17.7909 144 20C144 22.2091 145.791 24 148 24C150.209 24 152 22.2091 152 20ZM148 -6.46929e-06C150.209 -6.56585e-06 152 1.79086 152 3.99999C152 6.20913 150.209 7.99999 148 7.99999C145.791 7.99999 144 6.20913 144 3.99999C144 1.79086 145.791 -6.37272e-06 148 -6.46929e-06ZM160 3.99999C160 1.79086 161.791 -7.0721e-06 164 -7.16867e-06C166.209 -7.26523e-06 168 1.79086 168 3.99999C168 6.20913 166.209 7.99999 164 7.99999C161.791 7.99999 160 6.20913 160 3.99999Z"></path> </svg>
