<?xml version="1.0" encoding="UTF-8"?> <svg xmlns="http://www.w3.org/2000/svg" width="168" height="188" viewBox="0 0 168 188" fill="none"> <path fill-rule="evenodd" clip-rule="evenodd" d="M8 4C8 6.20914 6.20914 8 4 8C1.79086 8 0 6.20914 0 4C0 1.79086 1.79086 0 4 0C6.20914 0 8 1.79086 8 4ZM28 4C28 6.20914 26.2091 8 24 8C21.7909 8 20 6.20914 20 4C20 1.79086 21.7909 0 24 0C26.2091 0 28 1.79086 28 4ZM48 4C48 6.20914 46.2091 8 44 8C41.7909 8 40 6.20914 40 4C40 1.79086 41.7909 0 44 0C46.2091 0 48 1.79086 48 4ZM68 4C68 6.20914 66.2091 8 64 8C61.7909 8 60 6.20914 60 4C60 1.79086 61.7909 0 64 0C66.2091 0 68 1.79086 68 4ZM88 4C88 6.20914 86.2091 8 84 8C81.7909 8 80 6.20914 80 4C80 1.79086 81.7909 0 84 0C86.2091 0 88 1.79086 88 4ZM108 4C108 6.20914 106.209 8 104 8C101.791 8 100 6.20914 100 4C100 1.79086 101.791 0 104 0C106.209 0 108 1.79086 108 4ZM128 4C128 6.20914 126.209 8 124 8C121.791 8 120 6.20914 120 4C120 1.79086 121.791 0 124 0C126.209 0 128 1.79086 128 4ZM148 4C148 6.20914 146.209 8 144 8C141.791 8 140 6.20914 140 4C140 1.79086 141.791 0 144 0C146.209 0 148 1.79086 148 4ZM164 8C166.209 8 168 6.20914 168 4C168 1.79086 166.209 0 164 0C161.791 0 160 1.79086 160 4C160 6.20914 161.791 8 164 8ZM164 28C166.209 28 168 26.2091 168 24C168 21.7909 166.209 20 164 20C161.791 20 160 21.7909 160 24C160 26.2091 161.791 28 164 28ZM168 44C168 46.2091 166.209 48 164 48C161.791 48 160 46.2091 160 44C160 41.7909 161.791 40 164 40C166.209 40 168 41.7909 168 44ZM164 68C166.209 68 168 66.2091 168 64C168 61.7909 166.209 60 164 60C161.791 60 160 61.7909 160 64C160 66.2091 161.791 68 164 68ZM168 84C168 86.2091 166.209 88 164 88C161.791 88 160 86.2091 160 84C160 81.7909 161.791 80 164 80C166.209 80 168 81.7909 168 84ZM164 108C166.209 108 168 106.209 168 104C168 101.791 166.209 100 164 100C161.791 100 160 101.791 160 104C160 106.209 161.791 108 164 108ZM168 124C168 126.209 166.209 128 164 128C161.791 128 160 126.209 160 124C160 121.791 161.791 120 164 120C166.209 120 168 121.791 168 124ZM164 148C166.209 148 168 146.209 168 144C168 141.791 166.209 140 164 140C161.791 140 160 141.791 160 144C160 146.209 161.791 148 164 148ZM168 164C168 166.209 166.209 168 164 168C161.791 168 160 166.209 160 164C160 161.791 161.791 160 164 160C166.209 160 168 161.791 168 164ZM164 188C166.209 188 168 186.209 168 184C168 181.791 166.209 180 164 180C161.791 180 160 181.791 160 184C160 186.209 161.791 188 164 188ZM144 28C146.209 28 148 26.2091 148 24C148 21.7909 146.209 20 144 20C141.791 20 140 21.7909 140 24C140 26.2091 141.791 28 144 28ZM148 44C148 46.2091 146.209 48 144 48C141.791 48 140 46.2091 140 44C140 41.7909 141.791 40 144 40C146.209 40 148 41.7909 148 44ZM144 68C146.209 68 148 66.2091 148 64C148 61.7909 146.209 60 144 60C141.791 60 140 61.7909 140 64C140 66.2091 141.791 68 144 68ZM148 84C148 86.2091 146.209 88 144 88C141.791 88 140 86.2091 140 84C140 81.7909 141.791 80 144 80C146.209 80 148 81.7909 148 84ZM144 108C146.209 108 148 106.209 148 104C148 101.791 146.209 100 144 100C141.791 100 140 101.791 140 104C140 106.209 141.791 108 144 108ZM148 124C148 126.209 146.209 128 144 128C141.791 128 140 126.209 140 124C140 121.791 141.791 120 144 120C146.209 120 148 121.791 148 124ZM144 148C146.209 148 148 146.209 148 144C148 141.791 146.209 140 144 140C141.791 140 140 141.791 140 144C140 146.209 141.791 148 144 148ZM148 164C148 166.209 146.209 168 144 168C141.791 168 140 166.209 140 164C140 161.791 141.791 160 144 160C146.209 160 148 161.791 148 164ZM144 188C146.209 188 148 186.209 148 184C148 181.791 146.209 180 144 180C141.791 180 140 181.791 140 184C140 186.209 141.791 188 144 188ZM124 28C126.209 28 128 26.2091 128 24C128 21.7909 126.209 20 124 20C121.791 20 120 21.7909 120 24C120 26.2091 121.791 28 124 28ZM128 44C128 46.2091 126.209 48 124 48C121.791 48 120 46.2091 120 44C120 41.7909 121.791 40 124 40C126.209 40 128 41.7909 128 44ZM124 68C126.209 68 128 66.2091 128 64C128 61.7909 126.209 60 124 60C121.791 60 120 61.7909 120 64C120 66.2091 121.791 68 124 68ZM128 84C128 86.2091 126.209 88 124 88C121.791 88 120 86.2091 120 84C120 81.7909 121.791 80 124 80C126.209 80 128 81.7909 128 84ZM124 108C126.209 108 128 106.209 128 104C128 101.791 126.209 100 124 100C121.791 100 120 101.791 120 104C120 106.209 121.791 108 124 108ZM128 124C128 126.209 126.209 128 124 128C121.791 128 120 126.209 120 124C120 121.791 121.791 120 124 120C126.209 120 128 121.791 128 124ZM124 148C126.209 148 128 146.209 128 144C128 141.791 126.209 140 124 140C121.791 140 120 141.791 120 144C120 146.209 121.791 148 124 148ZM128 164C128 166.209 126.209 168 124 168C121.791 168 120 166.209 120 164C120 161.791 121.791 160 124 160C126.209 160 128 161.791 128 164ZM124 188C126.209 188 128 186.209 128 184C128 181.791 126.209 180 124 180C121.791 180 120 181.791 120 184C120 186.209 121.791 188 124 188ZM104 28C106.209 28 108 26.2091 108 24C108 21.7909 106.209 20 104 20C101.791 20 100 21.7909 100 24C100 26.2091 101.791 28 104 28ZM108 44C108 46.2091 106.209 48 104 48C101.791 48 100 46.2091 100 44C100 41.7909 101.791 40 104 40C106.209 40 108 41.7909 108 44ZM104 68C106.209 68 108 66.2091 108 64C108 61.7909 106.209 60 104 60C101.791 60 100 61.7909 100 64C100 66.2091 101.791 68 104 68ZM108 84C108 86.2091 106.209 88 104 88C101.791 88 100 86.2091 100 84C100 81.7909 101.791 80 104 80C106.209 80 108 81.7909 108 84ZM104 108C106.209 108 108 106.209 108 104C108 101.791 106.209 100 104 100C101.791 100 100 101.791 100 104C100 106.209 101.791 108 104 108ZM108 124C108 126.209 106.209 128 104 128C101.791 128 100 126.209 100 124C100 121.791 101.791 120 104 120C106.209 120 108 121.791 108 124ZM104 148C106.209 148 108 146.209 108 144C108 141.791 106.209 140 104 140C101.791 140 100 141.791 100 144C100 146.209 101.791 148 104 148ZM108 164C108 166.209 106.209 168 104 168C101.791 168 100 166.209 100 164C100 161.791 101.791 160 104 160C106.209 160 108 161.791 108 164ZM104 188C106.209 188 108 186.209 108 184C108 181.791 106.209 180 104 180C101.791 180 100 181.791 100 184C100 186.209 101.791 188 104 188ZM84 28C86.2091 28 88 26.2091 88 24C88 21.7909 86.2091 20 84 20C81.7909 20 80 21.7909 80 24C80 26.2091 81.7909 28 84 28ZM88 44C88 46.2091 86.2091 48 84 48C81.7909 48 80 46.2091 80 44C80 41.7909 81.7909 40 84 40C86.2091 40 88 41.7909 88 44ZM84 68C86.2091 68 88 66.2091 88 64C88 61.7909 86.2091 60 84 60C81.7909 60 80 61.7909 80 64C80 66.2091 81.7909 68 84 68ZM88 84C88 86.2091 86.2091 88 84 88C81.7909 88 80 86.2091 80 84C80 81.7909 81.7909 80 84 80C86.2091 80 88 81.7909 88 84ZM84 108C86.2091 108 88 106.209 88 104C88 101.791 86.2091 100 84 100C81.7909 100 80 101.791 80 104C80 106.209 81.7909 108 84 108ZM88 124C88 126.209 86.2091 128 84 128C81.7909 128 80 126.209 80 124C80 121.791 81.7909 120 84 120C86.2091 120 88 121.791 88 124ZM84 148C86.2091 148 88 146.209 88 144C88 141.791 86.2091 140 84 140C81.7909 140 80 141.791 80 144C80 146.209 81.7909 148 84 148ZM88 164C88 166.209 86.2091 168 84 168C81.7909 168 80 166.209 80 164C80 161.791 81.7909 160 84 160C86.2091 160 88 161.791 88 164ZM84 188C86.2091 188 88 186.209 88 184C88 181.791 86.2091 180 84 180C81.7909 180 80 181.791 80 184C80 186.209 81.7909 188 84 188ZM64 28C66.2091 28 68 26.2091 68 24C68 21.7909 66.2091 20 64 20C61.7909 20 60 21.7909 60 24C60 26.2091 61.7909 28 64 28ZM68 44C68 46.2091 66.2091 48 64 48C61.7909 48 60 46.2091 60 44C60 41.7909 61.7909 40 64 40C66.2091 40 68 41.7909 68 44ZM64 68C66.2091 68 68 66.2091 68 64C68 61.7909 66.2091 60 64 60C61.7909 60 60 61.7909 60 64C60 66.2091 61.7909 68 64 68ZM68 84C68 86.2091 66.2091 88 64 88C61.7909 88 60 86.2091 60 84C60 81.7909 61.7909 80 64 80C66.2091 80 68 81.7909 68 84ZM64 108C66.2091 108 68 106.209 68 104C68 101.791 66.2091 100 64 100C61.7909 100 60 101.791 60 104C60 106.209 61.7909 108 64 108ZM68 124C68 126.209 66.2091 128 64 128C61.7909 128 60 126.209 60 124C60 121.791 61.7909 120 64 120C66.2091 120 68 121.791 68 124ZM64 148C66.2091 148 68 146.209 68 144C68 141.791 66.2091 140 64 140C61.7909 140 60 141.791 60 144C60 146.209 61.7909 148 64 148ZM68 164C68 166.209 66.2091 168 64 168C61.7909 168 60 166.209 60 164C60 161.791 61.7909 160 64 160C66.2091 160 68 161.791 68 164ZM64 188C66.2091 188 68 186.209 68 184C68 181.791 66.2091 180 64 180C61.7909 180 60 181.791 60 184C60 186.209 61.7909 188 64 188ZM44 28C46.2091 28 48 26.2091 48 24C48 21.7909 46.2091 20 44 20C41.7909 20 40 21.7909 40 24C40 26.2091 41.7909 28 44 28ZM48 44C48 46.2091 46.2091 48 44 48C41.7909 48 40 46.2091 40 44C40 41.7909 41.7909 40 44 40C46.2091 40 48 41.7909 48 44ZM44 68C46.2091 68 48 66.2091 48 64C48 61.7909 46.2091 60 44 60C41.7909 60 40 61.7909 40 64C40 66.2091 41.7909 68 44 68ZM48 84C48 86.2091 46.2091 88 44 88C41.7909 88 40 86.2091 40 84C40 81.7909 41.7909 80 44 80C46.2091 80 48 81.7909 48 84ZM44 108C46.2091 108 48 106.209 48 104C48 101.791 46.2091 100 44 100C41.7909 100 40 101.791 40 104C40 106.209 41.7909 108 44 108ZM48 124C48 126.209 46.2091 128 44 128C41.7909 128 40 126.209 40 124C40 121.791 41.7909 120 44 120C46.2091 120 48 121.791 48 124ZM44 148C46.2091 148 48 146.209 48 144C48 141.791 46.2091 140 44 140C41.7909 140 40 141.791 40 144C40 146.209 41.7909 148 44 148ZM48 164C48 166.209 46.2091 168 44 168C41.7909 168 40 166.209 40 164C40 161.791 41.7909 160 44 160C46.2091 160 48 161.791 48 164ZM44 188C46.2091 188 48 186.209 48 184C48 181.791 46.2091 180 44 180C41.7909 180 40 181.791 40 184C40 186.209 41.7909 188 44 188ZM24 28C26.2091 28 28 26.2091 28 24C28 21.7909 26.2091 20 24 20C21.7909 20 20 21.7909 20 24C20 26.2091 21.7909 28 24 28ZM28 44C28 46.2091 26.2091 48 24 48C21.7909 48 20 46.2091 20 44C20 41.7909 21.7909 40 24 40C26.2091 40 28 41.7909 28 44ZM24 68C26.2091 68 28 66.2091 28 64C28 61.7909 26.2091 60 24 60C21.7909 60 20 61.7909 20 64C20 66.2091 21.7909 68 24 68ZM28 84C28 86.2091 26.2091 88 24 88C21.7909 88 20 86.2091 20 84C20 81.7909 21.7909 80 24 80C26.2091 80 28 81.7909 28 84ZM24 108C26.2091 108 28 106.209 28 104C28 101.791 26.2091 100 24 100C21.7909 100 20 101.791 20 104C20 106.209 21.7909 108 24 108ZM28 124C28 126.209 26.2091 128 24 128C21.7909 128 20 126.209 20 124C20 121.791 21.7909 120 24 120C26.2091 120 28 121.791 28 124ZM24 148C26.2091 148 28 146.209 28 144C28 141.791 26.2091 140 24 140C21.7909 140 20 141.791 20 144C20 146.209 21.7909 148 24 148ZM28 164C28 166.209 26.2091 168 24 168C21.7909 168 20 166.209 20 164C20 161.791 21.7909 160 24 160C26.2091 160 28 161.791 28 164ZM24 188C26.2091 188 28 186.209 28 184C28 181.791 26.2091 180 24 180C21.7909 180 20 181.791 20 184C20 186.209 21.7909 188 24 188ZM4 28C6.20914 28 8 26.2091 8 24C8 21.7909 6.20914 20 4 20C1.79086 20 0 21.7909 0 24C0 26.2091 1.79086 28 4 28ZM8 44C8 46.2091 6.20914 48 4 48C1.79086 48 0 46.2091 0 44C0 41.7909 1.79086 40 4 40C6.20914 40 8 41.7909 8 44ZM4 68C6.20914 68 8 66.2091 8 64C8 61.7909 6.20914 60 4 60C1.79086 60 0 61.7909 0 64C0 66.2091 1.79086 68 4 68ZM8 84C8 86.2091 6.20914 88 4 88C1.79086 88 0 86.2091 0 84C0 81.7909 1.79086 80 4 80C6.20914 80 8 81.7909 8 84ZM4 108C6.20914 108 8 106.209 8 104C8 101.791 6.20914 100 4 100C1.79086 100 0 101.791 0 104C0 106.209 1.79086 108 4 108ZM8 124C8 126.209 6.20914 128 4 128C1.79086 128 0 126.209 0 124C0 121.791 1.79086 120 4 120C6.20914 120 8 121.791 8 124ZM4 148C6.20914 148 8 146.209 8 144C8 141.791 6.20914 140 4 140C1.79086 140 0 141.791 0 144C0 146.209 1.79086 148 4 148ZM8 164C8 166.209 6.20914 168 4 168C1.79086 168 0 166.209 0 164C0 161.791 1.79086 160 4 160C6.20914 160 8 161.791 8 164ZM4 188C6.20914 188 8 186.209 8 184C8 181.791 6.20914 180 4 180C1.79086 180 0 181.791 0 184C0 186.209 1.79086 188 4 188Z" fill="#ECECEC"></path> </svg> 