<?xml version="1.0" encoding="utf-8"?>
<!-- Generator: Adobe Illustrator 22.0.1, SVG Export Plug-In . SVG Version: 6.00 Build 0)  -->
<svg version="1.1" id="Layer_1" xmlns="http://www.w3.org/2000/svg" xmlns:xlink="http://www.w3.org/1999/xlink" x="0px" y="0px"
	 viewBox="0 0 100 100" style="enable-background:new 0 0 100 100;" xml:space="preserve">
<style type="text/css">
	.st0{fill:#B1B0B8;}
	.st1{fill:#313036;}
	.st2{fill:#FE0000;}
</style>
<path class="st0" d="M41.7,29.7c-3.6,0-6.5-2.9-6.5-6.5c0-3.6,2.9-6.5,6.5-6.5c3.6,0,6.5,2.9,6.5,6.5C48.2,26.8,45.3,29.7,41.7,29.7
	z"/>
<path class="st0" d="M59.5,23.2c-3.6,0-6.5-2.9-6.5-6.5s2.9-6.5,6.5-6.5s6.5,2.9,6.5,6.5S63.1,23.2,59.5,23.2z"/>
<path class="st1" d="M40.1,7h-3.2v8.1h3.2V7z"/>
<path class="st1" d="M46.5,5.4h-3.2v9.7h3.2V5.4z"/>
<path class="st1" d="M57.9,2.2h-3.2v6.5h3.2V2.2z"/>
<path class="st1" d="M64.4,0.5h-3.2v8.1h3.2V0.5z"/>
<path class="st1" d="M98.1,23.2h-7.8v3.2h3.3L83.5,40.4L75.6,34l-8,8c-0.3-2.4-2.3-4.3-4.8-4.3h-0.4l6.5-11.3H32.3l6.1,10.1L33,41.1
	H1.1v3.2h33l9.5-7.9l10,2.9l3.4,4.3c0.5,0.6,0.7,1.3,0.6,2c-0.1,0.7-0.5,1.4-1,1.8c-1,0.8-2.5,0.7-3.5-0.2l-3.3-3.3l-9.2,7.4l1,1.2
	c-0.3,4.1-2.2,8.1-5.3,11.4c0,0,0,0,0,0c0,0,0,0,0,0h-0.6l-3.2-1.6H1.1v3.2h30.4l2.4,1.2c-1.9,2.9-3.1,6.1-3.5,9.6l-6.6-6.6L0,93.4
	l2.3,2.3l21.6-21.6l6.6,6.6c1.2,10,9.8,18.2,20.1,18.6c0.3,0,0.6,0,0.9,0c5.5,0,10.6-2.1,14.6-5.9c4.2-4,6.5-9.4,6.5-15.2
	c0-5.2-1.9-10.2-5.4-14c0.3-0.7,0.5-1.4,0.5-2.2c0-1.3-0.5-2.4-1.3-3.2c0.8-0.9,1.3-2,1.3-3.2s-0.5-2.4-1.3-3.2
	c0.8-0.9,1.3-2,1.3-3.2c0-0.7-0.2-1.4-0.5-2.1l8.7-8.7l8.3,6.6l11.9-16.4l0.8,3.1L100,31L98.1,23.2z M62.8,41.1
	c0.9,0,1.6,0.7,1.6,1.6c0,0.9-0.7,1.6-1.6,1.6h-1.9c-0.1-1-0.5-2-1.2-2.8l-0.3-0.4H62.8z M56.7,37.8l-1.1-1.4l-12.7-3.6l-2,1.6
	l-2.9-4.7h25.1l-4.6,8.1H56.7z M58.6,49.9c0.8-0.6,1.4-1.4,1.8-2.3h2.4c0.9,0,1.6,0.7,1.6,1.6c0,0.9-0.7,1.6-1.6,1.6h-6
	C57.4,50.6,58,50.3,58.6,49.9z M56.3,54.1h6.5c0.9,0,1.6,0.7,1.6,1.6c0,0.9-0.7,1.6-1.6,1.6h-6.5c-0.9,0-1.6-0.7-1.6-1.6
	C54.7,54.8,55.4,54.1,56.3,54.1z M56.3,60.5h6.5c0.9,0,1.6,0.7,1.6,1.6c0,0.9-0.7,1.6-1.6,1.6h-6.5c-0.9,0-1.6-0.7-1.6-1.6
	C54.7,61.3,55.4,60.5,56.3,60.5z M69,78.6c0,4.8-1.9,9.3-5.4,12.6c-3.5,3.3-8,5-12.8,4.8c-9.1-0.4-16.6-8-16.8-17.1
	c-0.1-4.7,1.7-9.1,4.9-12.4c3.8-3.9,5.9-8.7,6.2-13.7l4.7-3.7l1.2,1.2c0.2,0.2,0.3,0.3,0.5,0.4c0,0,0,0,0,0c0.1,1,0.5,1.9,1.2,2.5
	c-0.8,0.8-1.2,1.9-1.2,3.2c0,1.2,0.5,2.3,1.2,3.2c-0.8,0.8-1.2,1.9-1.2,3.2c0,1.2,0.5,2.3,1.2,3.2l0.3,0.4c0.8,0.8,2,1.2,3.2,1.2
	h6.4c0.7,0,1.4-0.2,2-0.4C67.4,70.2,69,74.3,69,78.6z"/>
<circle class="st2" cx="51.5" cy="79.5" r="8.5"/>
</svg>
