<?xml version="1.0" encoding="utf-8"?>
<!-- Generator: Adobe Illustrator 22.0.1, SVG Export Plug-In . SVG Version: 6.00 Build 0)  -->
<svg version="1.1" id="Layer_1" xmlns="http://www.w3.org/2000/svg" xmlns:xlink="http://www.w3.org/1999/xlink" x="0px" y="0px"
	 viewBox="0 0 100 100" style="enable-background:new 0 0 100 100;" xml:space="preserve">
<style type="text/css">
	.st0{fill:#FE0000;}
	.st1{fill:#B1B0B8;}
	.st2{fill:#313036;}
</style>
<path class="st0" d="M56.5,58.1c-1.2,0-2.4,0.2-3.6,0.4c-0.8,2.6-3.2,4.4-6.1,4.4h-2.5c-3.6,3.3-5.6,7.9-5.6,12.9
	c0,9.8,8,17.7,17.7,17.7s17.7-8,17.7-17.7S66.2,58.1,56.5,58.1z"/>
<path class="st1" d="M48.4,22.6H6.5V6.5h41.9V22.6z"/>
<path class="st2" d="M54.8,51.6V8.1c0-4.4-3.6-8.1-8.1-8.1H8.1C3.6,0,0,3.6,0,8.1v48.4c0,4.4,3.6,8.1,8.1,8.1h4.8V100H100V51.6H54.8
	z M96.8,62.8c-4-0.7-7.2-3.9-7.9-7.9h7.9V62.8z M8.1,3.2h38.7c2.7,0,4.8,2.2,4.8,4.8v46.8H3.2V8.1C3.2,5.4,5.4,3.2,8.1,3.2z
	 M3.5,58.1h47.8c-0.7,1.9-2.4,3.2-4.5,3.2H8.1C6,61.3,4.2,59.9,3.5,58.1z M46.8,64.5c4.4,0,8.1-3.6,8.1-8.1v-1.6h30.8
	c0.7,5.8,5.4,10.4,11.2,11.2v19.6c-5.8,0.7-10.4,5.4-11.2,11.2H27.3C26.6,91,22,86.3,16.1,85.6V64.5H46.8z M16.1,88.9
	c4,0.7,7.2,3.9,7.9,7.9h-7.9V88.9z M88.9,96.8c0.7-4,3.9-7.2,7.9-7.9v7.9H88.9z"/>
<path class="st2" d="M12.9,12.9h3.2v3.2h-3.2V12.9z"/>
<path class="st2" d="M19.4,12.9h3.2v3.2h-3.2V12.9z"/>
<path class="st2" d="M25.8,12.9H29v3.2h-3.2V12.9z"/>
<path class="st2" d="M32.3,12.9h3.2v3.2h-3.2V12.9z"/>
<path class="st2" d="M38.7,12.9h3.2v3.2h-3.2V12.9z"/>
</svg>
