<?xml version="1.0" encoding="utf-8"?>
<!-- Generator: Adobe Illustrator 22.0.1, SVG Export Plug-In . SVG Version: 6.00 Build 0)  -->
<svg version="1.1" id="Layer_1" xmlns="http://www.w3.org/2000/svg" xmlns:xlink="http://www.w3.org/1999/xlink" x="0px" y="0px"
	 viewBox="0 0 89 80.3" style="enable-background:new 0 0 89 80.3;" xml:space="preserve">
<style type="text/css">
	.st0{fill:#FE0000;}
	.st1{fill:#313036;}
	.st2{fill:#B1B0B8;}
</style>
<path class="st0" d="M44.5,56.1c-9.8,0-17.7-8-17.7-17.7c0-9.8,8-17.7,17.7-17.7c9.8,0,17.7,8,17.7,17.7
	C62.2,48.2,54.2,56.1,44.5,56.1z"/>
<path class="st1" d="M45.2,12.2c-0.4-0.2-0.9-0.2-1.3,0L29,19.6c-0.5,0.3-0.8,0.8-0.8,1.3v19.3c0,0.8,0.7,1.5,1.5,1.5h29.7
	c0.8,0,1.5-0.7,1.5-1.5V20.9c0-0.6-0.3-1.1-0.8-1.3L45.2,12.2z M41.5,38.7v-7.4h5.9v7.4H41.5z M57.9,38.7h-7.4v-8.9
	c0-0.8-0.7-1.5-1.5-1.5h-8.9c-0.8,0-1.5,0.7-1.5,1.5v8.9h-7.4V21.9l13.4-6.7l13.3,6.7L57.9,38.7L57.9,38.7z"/>
<path class="st2" d="M38.8,58.7c-2.2-5.1-5.7-9.5-10.1-12.9l-2-1.5c-1.6-1.2-3.9-1-5.2,0.4c-1.3,1.3-1.5,3.3-0.6,4.9l2.1,3.8
	l-9.2-5.7L7.5,30.9c-0.7-2-2.9-3.1-4.9-2.4c-2,0.7-3,2.8-2.5,4.8l4.4,17.1c0.6,2.3,1.7,4.5,3.3,6.3L20.4,71c0.5,0.6,0.8,1.3,0.8,2.1
	v5.8c0,0.8,0.7,1.5,1.5,1.5h17.4c0.8,0,1.5-0.7,1.5-1.5V68.1c0-2.1-0.4-4.2-1.2-6.1L38.8,58.7z M38.6,77.3H24.2V73
	c0-1.5-0.5-2.9-1.5-4L10,54.7c-1.3-1.4-2.2-3.2-2.7-5L3,32.6c-0.1-0.5,0.1-1.1,0.6-1.3c0.5-0.1,1,0.1,1.1,0.6l6.4,17.3
	c0.1,0.3,0.3,0.6,0.6,0.7l14.5,9c0.7,0.4,1.6,0.2,2-0.5c0.3-0.5,0.3-1,0-1.5l-4.8-8.8c-0.3-0.5-0.2-1,0.2-1.4
	c0.3-0.4,0.9-0.4,1.3-0.1l2,1.5c4,3,7.2,7,9.1,11.6l1.5,3.4c0.7,1.6,1,3.2,1,4.9V77.3z"/>
<path class="st2" d="M86.4,28.6c-2-0.7-4.2,0.4-4.9,2.4l-6.2,16.8L66,53.5l2.1-3.8c0.9-1.6,0.6-3.6-0.6-4.9
	c-1.4-1.5-3.6-1.6-5.2-0.4l-2,1.5c-4.4,3.3-7.9,7.8-10.1,12.9l-1.5,3.4c-0.8,1.9-1.2,4-1.2,6.1v10.6c0,0.8,0.7,1.5,1.5,1.5h17.4
	c0.8,0,1.5-0.7,1.5-1.5V73c0-0.8,0.3-1.5,0.8-2.1l12.6-14.3c1.6-1.8,2.7-3.9,3.3-6.3l4.4-17.1C89.4,31.4,88.3,29.3,86.4,28.6z
	 M86,32.6l-4.4,17.1c-0.5,1.9-1.4,3.6-2.7,5L66.4,69c-1,1.1-1.5,2.5-1.5,4v4.3H50.4v-9.2c0-1.7,0.3-3.4,1-4.9l1.5-3.4
	c2-4.6,5.1-8.6,9.1-11.6l2-1.5c0.4-0.3,1-0.3,1.3,0.1c0.4,0.4,0.4,1,0.2,1.4L60.7,57c-0.4,0.7-0.1,1.6,0.6,2c0.5,0.3,1,0.2,1.5,0
	l14.5-9c0.3-0.2,0.5-0.4,0.6-0.7L84.2,32c0.2-0.5,0.7-0.7,1.1-0.6C85.9,31.6,86.1,32.1,86,32.6z"/>
<path class="st1" d="M70.4,12.9L44.5,0L18.6,12.9l4.6,6.9L44.5,9.3l21.3,10.6L70.4,12.9z M44.5,5.9L24.2,16.1l-1.3-2L44.5,3.3
	l21.6,10.8l-1.3,2L44.5,5.9z"/>
</svg>
