<?xml version="1.0" encoding="utf-8"?>
<!-- Generator: Adobe Illustrator 22.0.1, SVG Export Plug-In . SVG Version: 6.00 Build 0)  -->
<svg version="1.1" id="Layer_1" xmlns="http://www.w3.org/2000/svg" xmlns:xlink="http://www.w3.org/1999/xlink" x="0px" y="0px"
	 viewBox="0 0 100 100" style="enable-background:new 0 0 100 100;" xml:space="preserve">
<style type="text/css">
	.st0{fill:#FE0000;}
	.st1{fill:#313036;}
	.st2{fill:#B1B0B8;}
</style>
<path class="st0" d="M45.2,51.6c-9.8,0-17.7-8-17.7-17.7c0-9.8,8-17.7,17.7-17.7c9.8,0,17.7,8,17.7,17.7
	C62.9,43.7,54.9,51.6,45.2,51.6z"/>
<path class="st1" d="M0,9.7v48.4h35.5v-3.2H14.4C13.7,49,9.1,44.4,3.2,43.7V24.1c5.8-0.7,10.4-5.4,11.2-11.2h61.5
	c0.7,5.8,5.4,10.4,11.2,11.2v19.5h3.2V9.7H0z M11.1,54.8H3.2v-7.9C7.3,47.6,10.5,50.8,11.1,54.8z M3.2,20.8v-7.9h7.9
	C10.5,16.9,7.3,20.1,3.2,20.8z M79.2,12.9h7.9v7.9C83.1,20.1,79.9,16.9,79.2,12.9z"/>
<path class="st2" d="M61.3,51.6h16.1v37.1H61.3V51.6z"/>
<path class="st2" d="M38.7,61.3h16.1v27.4H38.7V61.3z"/>
<path class="st2" d="M83.9,41.9H100v46.8H83.9V41.9z"/>
<path class="st1" d="M35.5,87.1H100v3.2H35.5V87.1z"/>
</svg>
