<?xml version="1.0" encoding="utf-8"?>
<!-- Generator: Adobe Illustrator 22.0.1, SVG Export Plug-In . SVG Version: 6.00 Build 0)  -->
<svg version="1.1" id="Capa_1" xmlns="http://www.w3.org/2000/svg" xmlns:xlink="http://www.w3.org/1999/xlink" x="0px" y="0px"
	 viewBox="0 0 425.2 425.2" style="enable-background:new 0 0 425.2 425.2;" xml:space="preserve">
<style type="text/css">
	.st0{fill:url(#SVGID_1_);}
	.st1{fill:none;}
	.st2{fill:url(#SVGID_2_);}
	.st3{fill-rule:evenodd;clip-rule:evenodd;fill:#D51F26;}
	.st4{fill-rule:evenodd;clip-rule:evenodd;fill:#313036;}
</style>
<linearGradient id="SVGID_1_" gradientUnits="userSpaceOnUse" x1="97.569" y1="205.1431" x2="272.879" y2="205.1431">
	<stop  offset="0" style="stop-color:#ED1C24"/>
	<stop  offset="0.3726" style="stop-color:#EB1C24"/>
	<stop  offset="0.5069" style="stop-color:#E41B23"/>
	<stop  offset="0.6026" style="stop-color:#DB1A21"/>
	<stop  offset="0.68" style="stop-color:#CE181F"/>
	<stop  offset="0.7463" style="stop-color:#BE141A"/>
	<stop  offset="0.805" style="stop-color:#A90F14"/>
	<stop  offset="0.8581" style="stop-color:#910608"/>
	<stop  offset="0.9069" style="stop-color:#770000"/>
	<stop  offset="0.9523" style="stop-color:#570000"/>
	<stop  offset="0.9926" style="stop-color:#210000"/>
	<stop  offset="1" style="stop-color:#000000"/>
</linearGradient>
<path class="st0" d="M272.9,169.8c0-48.4-39.2-87.7-87.7-87.7c-48.4,0-87.7,39.2-87.7,87.7c0,19.1,6.1,36.7,16.5,51.1h0l71.2,107.2
	L257.8,219c0.1-0.2,0.3-0.4,0.4-0.6l0.8-1.2h0C267.7,203.5,272.9,187.3,272.9,169.8z M185.2,228.4c-33.2,0-60-26.9-60-60
	c0-33.1,26.9-60,60-60c33.2,0,60,26.9,60,60C245.3,201.5,218.4,228.4,185.2,228.4z"/>
<path class="st1" d="M180,228.1c-30.7-2.6-54.8-28.4-54.8-59.8c0-27,17.8-49.8,42.4-57.4c1.3-4.6,2.9-9.1,4.7-13.5
	c2.2-5.4,4.8-10.4,7.7-15.1c-45.9,2.8-82.3,40.8-82.3,87.4c0,19.1,6.1,36.7,16.5,51.1h0l71.2,107.2l44.3-66.7
	C209.6,257.3,191.6,246.3,180,228.1z"/>
<linearGradient id="SVGID_2_" gradientUnits="userSpaceOnUse" x1="185.224" y1="118.8025" x2="185.224" y2="226.9366">
	<stop  offset="0" style="stop-color:#FFFFFF"/>
	<stop  offset="0.1413" style="stop-color:#FFFFFF"/>
	<stop  offset="1" style="stop-color:#FFFFFF"/>
</linearGradient>
<circle class="st2" cx="185.2" cy="168.3" r="49.5"/>
<g>
	<polygon class="st3" points="189.6,128.1 192,131.6 196.2,130.4 193.6,133.8 196,137.3 192,135.9 189.4,139.4 189.5,135.1 
		185.4,133.7 189.5,132.4 189.6,128.1 	"/>
	<path class="st3" d="M200.2,179.1c-6.9,11.6-15.1,19.3-24.4,23.7c23.8-20.9,24.3-41.2,20-63.6c1.5,2.8,2.5,5.4,3.6,8.9
		c3.6,0,7.2,0,10.8,0c0,15,0,29.9,0,44.9c-5,0-9.9,0-14.9,0c-3.8,8.6-8.8,12.5-14,15.7c2.8-3,5.3-6.1,5-10.3
		C195.7,191.2,200,184.9,200.2,179.1L200.2,179.1z"/>
	<path class="st4" d="M160.4,148h29.8c0.3,3.1,0.3,6.2-0.3,9.2c-1.4-1.1-3.1-1.8-5.1-1.8c-4.5,0-8.2,3.7-8.2,8.2
		c0,3.6,2.3,6.6,5.5,7.7c-1.7,1.9-3.4,3.6-5.1,5.4c-4,4.1-7.9,8.1-11.3,12.7l-2.5,3.4h-2.9V148L160.4,148z M178.6,192.9h-8.4
		c0.8-0.6,1.6-1.3,2.3-1.9c1.2-1.1,2.4-2.2,3.6-3.4c0.7-0.6,2.8-2.6,4.3-3.6c0,0.6-0.1,1.2-0.1,1.5
		C180,187.9,179.3,190.5,178.6,192.9L178.6,192.9z"/>
	<path class="st4" d="M181.1,194c7.6-26.8-8.5-5.2-13.2-2.9c7.1-9.7,15.5-15.6,20.5-23.4c-1,0.9-2.2,1.4-3.7,1.4
		c-3,0-5.4-2.4-5.4-5.4c0-3,2.4-5.4,5.4-5.4c3,0,5.4,2.4,5.4,5.4c0,0.4,0,0.8-0.1,1.1c2.6-5.2,3.8-11.5,2.4-20.1
		C199.9,164.8,191.2,179.6,181.1,194L181.1,194z"/>
</g>
</svg>
