<?xml version="1.0" encoding="utf-8"?>
<!-- Generator: Adobe Illustrator 22.0.1, SVG Export Plug-In . SVG Version: 6.00 Build 0)  -->
<svg version="1.1" id="Layer_1" xmlns="http://www.w3.org/2000/svg" xmlns:xlink="http://www.w3.org/1999/xlink" x="0px" y="0px"
	 viewBox="0 0 126.2 218.1" style="enable-background:new 0 0 126.2 218.1;" xml:space="preserve">
<style type="text/css">
	.st0{fill:#313036;}
</style>
<path class="st0" d="M84.3,3.5c-29-10.7-61.2,4.1-72,33.1c-10.7,29.1,4.1,61.3,33.1,72c29.1,10.7,61.3-4.1,72-33.1
	C128.1,46.4,113.3,14.2,84.3,3.5z M86.8,64.1c-4.5,12.1-17.9,18.3-30,13.8C44.7,73.5,38.5,60,43,47.9s17.9-18.3,30-13.8
	S91.3,52,86.8,64.1z"/>
<path class="st0" d="M70.6,151.9c-5.8-6.1-15.6-6.3-21.7-0.4L8.6,190.3c-6.1,5.8-6.3,15.6-0.4,21.7l0,0c5.8,6.1,15.6,6.3,21.7,0.4
	l40.3-38.8C76.3,167.8,76.5,158,70.6,151.9L70.6,151.9L70.6,151.9z"/>
<path class="st0" d="M57,151.4c-6.1,5.8-6.3,15.6-0.4,21.7l38.8,40.3c5.8,6.1,15.6,6.3,21.7,0.4l0,0c6.1-5.8,6.3-15.6,0.4-21.7
	l-38.8-40.3C72.9,145.8,63.1,145.6,57,151.4L57,151.4L57,151.4z"/>
<path class="st0" d="M116,116.3c-4.9-1.8-10.1-1-14.1,1.7c-24.8,12.1-50.6,14.5-78.2-1.8l0,0c-0.8-0.5-1.7-0.9-2.6-1.3
	c-8.1-3-17,1.1-20,9.2c-3,8.1,1.1,17,9.2,20l0,0C44,162,79,166.2,116.5,145.4c3.9-1.6,7.2-4.8,8.7-9
	C128.2,128.3,124.1,119.3,116,116.3L116,116.3z"/>
</svg>
