<?xml version="1.0" encoding="utf-8"?>
<!-- Generator: Adobe Illustrator 22.0.1, SVG Export Plug-In . SVG Version: 6.00 Build 0)  -->
<svg version="1.1" id="Capa_1" xmlns="http://www.w3.org/2000/svg" xmlns:xlink="http://www.w3.org/1999/xlink" x="0px" y="0px"
	 viewBox="0 0 512 512" style="enable-background:new 0 0 512 512;" xml:space="preserve">
<style type="text/css">
	.st0{fill:#003167;}
</style>
<g>
	<path class="st0" d="M497,81h-66V64c0-8.3-6.7-15-15-15h-64c-8.3,0-15,6.7-15,15v17H218.5L173.8,7.2C171.1,2.7,166.3,0,161,0H82
		c-8.3,0-15,6.7-15,15v66H15C6.7,81,0,87.7,0,96v64c0,8.3,6.7,15,15,15h82v242h-9c-6.3,0-11.9,3.9-14.1,9.8l-24,65
		C46.3,501.6,53.6,512,64,512h192c10.4,0,17.7-10.4,14.1-20.2l-24-65c-2.2-5.9-7.8-9.8-14.1-9.8h-9V175h114v18c0,8.3,6.7,15,15,15
		h17v36.3L320.2,314H304c-8.3,0-15,6.7-15,15v80c0,8.3,6.7,15,15,15h160c8.3,0,15-6.7,15-15v-80c0-8.3-6.7-15-15-15h-16.2L399,244.3
		V208h17c8.3,0,15-6.7,15-15v-18h66c8.3,0,15-6.7,15-15V96C512,87.7,505.3,81,497,81L497,81z M449,394H319v-50h130V394z M356.8,314
		l27.2-38.8l27.2,38.8H356.8z M97,30h55.5l30.9,51c-10.8,0-73.9,0-86.4,0L97,30z M193,303.4l-66,38.5v-53.3l66-38.5V303.4z
		 M234.5,482H85.5l12.9-35h123.1L234.5,482z M127,417v-40.4l66-38.5V417H127z M193,215.4l-66,38.5V175h66V215.4z M30,145v-34h307v34
		C311,145,43.6,145,30,145z M401,178h-34V79h34V178z M482,145c-15.8,0-36.4,0-51,0v-34h51V145z"/>
</g>
</svg>
