<?xml version="1.0" encoding="utf-8"?>
<!-- Generator: Adobe Illustrator 22.0.1, SVG Export Plug-In . SVG Version: 6.00 Build 0)  -->
<svg version="1.1" id="Capa_1" xmlns="http://www.w3.org/2000/svg" xmlns:xlink="http://www.w3.org/1999/xlink" x="0px" y="0px"
	 viewBox="0 0 512 512" style="enable-background:new 0 0 512 512;" xml:space="preserve">
<style type="text/css">
	.st0{fill:#003167;}
</style>
<g>
	<g>
		<path class="st0" d="M507.6,401.5C500,393.9,370.2,264.2,362.1,256l136.6-136.6c17.6-17.6,17.7-46,0.1-63.6l-42.6-42.6
			c-17.5-17.5-46-17.5-63.5,0L256,149.9c-3.1-3.1-133.7-133.7-145.5-145.5c-5.9-5.9-15.4-5.9-21.2,0L4.4,89.2
			c-5.9,5.9-5.9,15.4,0,21.2L149.9,256L47.8,358.1c-1.6,1.6-2.9,3.7-3.6,5.9L0.8,492.3c-1.8,5.4-0.4,11.3,3.6,15.4
			c4,4,10,5.4,15.3,3.6L148,467.8c2.2-0.7,4.2-2,5.9-3.6L256,362.1l145.5,145.5c5.9,5.9,15.4,5.9,21.2,0l84.9-84.9
			C513.5,416.9,513.5,407.4,507.6,401.5z M413.9,34.5c5.8-5.8,15.3-5.8,21.1,0L477.6,77c5.8,5.8,5.8,15.3-0.1,21.1l-21.2,21.2
			l-63.6-63.6l0,0L413.9,34.5z M371.4,76.9L371.4,76.9l63.6,63.6l-21.2,21.2l-63.6-63.6l0,0L371.4,76.9z M36.2,99.9l63.6-63.6
			l42.4,42.4l-10.6,10.6c-5.9,5.9-5.9,15.4,0,21.2c5.9,5.9,15.4,5.9,21.2,0l10.6-10.6l21.2,21.2l-10.6,10.6
			c-5.9,5.9-5.9,15.4,0,21.2c5.9,5.9,15.4,5.9,21.2,0l10.6-10.6l28.9,28.9l-63.6,63.6L36.2,99.9z M329,119.4L329,119.4l21.2,21.2
			L100.9,389.9l-21.2-21.2C88,360.4,316.7,131.6,329,119.4z M38.7,473.3L65,396.5c4.5,4.5,41.4,41.4,50.5,50.5L38.7,473.3z
			 M143.3,432.4l-21.2-21.2l249.3-249.3l21.2,21.2C386.7,188.9,146,429.6,143.3,432.4z M412.1,475.8L277.2,340.9l63.6-63.6
			l28.9,28.9l-10.6,10.6c-5.9,5.9-5.9,15.4,0,21.2c5.9,5.9,15.4,5.9,21.2,0l10.6-10.6l21.2,21.2l-10.6,10.6
			c-5.9,5.9-5.9,15.4,0,21.2c5.9,5.9,15.4,5.9,21.2,0l10.6-10.6l42.4,42.4L412.1,475.8z"/>
	</g>
</g>
</svg>
