<?xml version="1.0" encoding="utf-8"?>
<!-- Generator: Adobe Illustrator 22.0.1, SVG Export Plug-In . SVG Version: 6.00 Build 0)  -->
<svg version="1.1" id="Capa_1" xmlns="http://www.w3.org/2000/svg" xmlns:xlink="http://www.w3.org/1999/xlink" x="0px" y="0px"
	 viewBox="0 0 512 512" style="enable-background:new 0 0 512 512;" xml:space="preserve">
<style type="text/css">
	.st0{fill:#003167;}
</style>
<g>
	<circle class="st0" cx="126" cy="437" r="15"/>
	<circle class="st0" cx="186" cy="437" r="15"/>
	<circle class="st0" cx="126" cy="377" r="15"/>
	<circle class="st0" cx="186" cy="377" r="15"/>
	<circle class="st0" cx="126" cy="317" r="15"/>
	<circle class="st0" cx="186" cy="317" r="15"/>
	<path class="st0" d="M216,182H96c-8.3,0-15,6.7-15,15v60c0,8.3,6.7,15,15,15h120c8.3,0,15-6.7,15-15v-60
		C231,188.7,224.3,182,216,182z M201,242h-90v-30h90V242z"/>
	<path class="st0" d="M441,123.8V45c0-24.8-20.2-45-45-45H246c-24.8,0-45,20.2-45,45v17h-15c-8.3,0-15,6.7-15,15v45H81V77
		c0-8.3-6.7-15-15-15s-15,6.7-15,15v47.6c-17.5,6.2-30,22.9-30,42.4v117.6c0,12,4.7,23.3,13.2,31.8L51,333.2V457
		c0,30.3,24.7,55,55,55h100c30.3,0,55-24.7,55-55V333.2l16.8-16.8c8.5-8.5,13.2-19.8,13.2-31.8V167c0-19.6-12.5-36.2-30-42.4V77
		c0-8.3-6.7-15-15-15h-15V45c0-8.3,6.7-15,15-15h150c8.3,0,15,6.7,15,15v78.8c-28.6,6.8-50,32.6-50,63.2v70c0,13.9,8.2,26,20,31.6
		v100.1c0,40.9,11.1,81,32.1,116c2.7,4.5,7.6,7.3,12.9,7.3s10.2-2.8,12.9-7.3c21-35,32.1-75.2,32.1-116V288.6
		c11.8-5.6,20-17.7,20-31.6v-70C491,156.3,469.6,130.6,441,123.8z M201,92h30v30h-30V92z M261,284.6c0,4-1.6,7.8-4.4,10.6
		l-21.2,21.2c-2.8,2.8-4.4,6.6-4.4,10.6v130c0,13.8-11.2,25-25,25H106c-13.8,0-25-11.2-25-25V327c0-4-1.6-7.8-4.4-10.6l-21.2-21.2
		c-2.8-2.8-4.4-6.6-4.4-10.6V167c0-8.3,6.7-15,15-15h180c8.3,0,15,6.7,15,15V284.6z M391,187c0-19.3,15.7-35,35-35s35,15.7,35,35v70
		c0,2.8-2.2,5-5,5h-60c-2.8,0-5-2.2-5-5V187z M441,388.7c0,25.9-5.1,51.4-15,75.1c-9.9-23.7-15-49.2-15-75.1V292h30V388.7z"/>
</g>
</svg>
